<?xml version="1.0" encoding="utf-8"?>
<!-- Generator: Adobe Illustrator 23.0.5, SVG Export Plug-In . SVG Version: 6.00 Build 0)  -->
<svg version="1.1" xmlns="http://www.w3.org/2000/svg" xmlns:xlink="http://www.w3.org/1999/xlink" x="0px" y="0px"
	 viewBox="0 0 1920 1080" style="enable-background:new 0 0 1920 1080;" xml:space="preserve">
<style type="text/css">
	.st0{fill:#AAA49F;}
	.st1{fill:#4C315B;}
	.st2{fill:#5B4731;}
	.st3{fill:#876A4D;}
	.st4{fill:#443D38;}
	.st5{fill:#514943;}
	.st6{fill:#635950;}
	.st7{fill:#635C58;}
	.st8{fill:#8E837C;}
	.st9{fill:#E2CFC5;}
	.st10{fill:#F4A414;}
	.st11{fill:#593C0D;}
	.st12{fill:#594B31;}
	.st13{fill:#80C2D6;}
	.st14{fill:#9A15BA;}
	.st15{fill:#16B72D;}
	.st16{fill:#CEF236;}
</style>
<g id="圖層_1">
</g>
<g id="圖層_2">
	<rect x="0" y="814" class="st0" width="1919" height="266"/>
	<g>
		<rect x="1" class="st1" width="1920" height="884"/>
	</g>
	<rect x="0" y="791" class="st2" width="1920" height="63"/>
	<path class="st3" d="M1920,791c-640,0-1280,0-1920,0c37.33-56.67,74.67-113.33,112-170c573.67,1.33,1147.33,2.67,1721,4
		C1862,680.33,1891,735.67,1920,791z"/>
	<rect x="0" y="854" class="st3" width="36" height="226"/>
	<rect x="36" y="854" class="st2" width="24" height="226"/>
	<rect x="183" y="854" class="st3" width="32" height="147"/>
	<rect x="215" y="854" class="st2" width="26" height="147"/>
	
		<rect x="1883.07" y="854" transform="matrix(-1 -4.486867e-11 4.486867e-11 -1 3802.1409 1934)" class="st3" width="36" height="226"/>
	
		<rect x="1859.07" y="854" transform="matrix(-1 -4.494417e-11 4.494417e-11 -1 3742.1409 1934)" class="st2" width="24" height="226"/>
	<rect x="1712" y="854" transform="matrix(-1 -4.490642e-11 4.490642e-11 -1 3456 1855)" class="st3" width="32" height="147"/>
	<rect x="1686" y="854" transform="matrix(-1 -4.484514e-11 4.484514e-11 -1 3398 1855)" class="st2" width="26" height="147"/>
	<rect x="876" y="670" class="st4" width="256" height="87"/>
	<path class="st5" d="M1428,681H577c22.49-144,44.98-288,67.48-432c241.37-0.33,482.74-0.67,724.11-1
		C1388.39,392.33,1408.19,536.67,1428,681z"/>
	<path class="st6" d="M1425,649H580c22.33-144,44.67-288,67-432c239.67-0.33,479.33-0.67,719-1
		C1385.67,360.33,1405.33,504.67,1425,649z"/>
	<g>
		<rect x="1670" y="614" class="st7" width="28" height="84"/>
		<rect x="1606" y="692" class="st7" width="158" height="25"/>
		<g>
			<g>
				<path class="st7" d="M1770.46,549.3c4.32-2.28,9.75-2.41,14.17-0.32c4.57,2.16,7.57,6.33,8.62,11.2
					c0.98,4.55-0.35,9.39-3.23,13.11c-3.17,4.1-7.76,6.9-12.58,8.42c-7.02,2.21-14.45,2.16-21.73,1.83c-1.62-0.07-3,1.43-3,3
					c0,1.69,1.38,2.93,3,3c13.51,0.62,29.06-0.45,38.33-11.72c4.25-5.17,6.28-11.49,5.2-18.15c-1-6.2-4.82-11.97-10.24-15.15
					c-6.55-3.85-14.88-3.93-21.57-0.39c-1.43,0.76-1.87,2.75-1.08,4.1C1767.21,549.68,1769.03,550.06,1770.46,549.3L1770.46,549.3z"
					/>
			</g>
		</g>
		<ellipse class="st8" cx="1684" cy="543" rx="83" ry="21"/>
		<rect x="1663" y="443" class="st9" width="45" height="140"/>
		<path class="st7" d="M1601,543c13.67,7.39,43.21,21,83,21c15.54,0,48-2.08,83-21c0.37,6.41,1.53,37.94-22,64
			c-3.59,3.98-29.71,31.95-68,28c-26.32-2.72-42.95-18.92-49-25C1602.15,584.04,1601.05,550.88,1601,543z"/>
		<path class="st10" d="M1686.49,432L1686.49,432c-1.62-0.07-7.24-0.54-11.6-5.83c-4.09-4.95-4.57-11.11-4.8-14.07
			c-1.46-18.6,15.3-33.71,16.89-35.11c1.82,1.7,17.44,16.66,15.92,35.11c-0.25,3.06-0.75,9.15-4.8,14.07
			C1693.75,431.44,1688.14,431.93,1686.49,432z"/>
		<g>
			<g>
				<path class="st11" d="M1685.61,445.86c-1.19-6.25-0.41-12.85,2.23-18.65c0.34-0.74,0.21-1.61-0.54-2.05
					c-0.64-0.38-1.72-0.2-2.05,0.54c-2.99,6.59-3.88,13.85-2.53,20.96C1683.08,448.55,1685.97,447.75,1685.61,445.86L1685.61,445.86
					z"/>
			</g>
		</g>
	</g>
	<g>
		<rect x="200.89" y="525" class="st12" width="28.23" height="25.96"/>
		<rect x="201.89" y="550.96" class="st13" width="26.21" height="40.63"/>
		<ellipse class="st13" cx="215" cy="648.59" rx="62" ry="69.41"/>
		<path class="st14" d="M215.5,708.97c28.4,0,51.41-25.77,51.41-57.56H164.09C164.09,683.2,187.11,708.97,215.5,708.97z"/>
	</g>
	<rect x="399.89" y="507" class="st12" width="28.23" height="25.96"/>
	<rect x="400.89" y="532.96" class="st13" width="26.21" height="40.63"/>
	<ellipse class="st13" cx="414" cy="630.59" rx="62" ry="69.41"/>
	<path class="st15" d="M414.5,690.97c28.4,0,51.41-25.77,51.41-57.56H363.09C363.09,665.2,386.11,690.97,414.5,690.97z"/>
	<rect x="310.89" y="583" class="st12" width="28.23" height="25.96"/>
	<rect x="311.89" y="608.96" class="st13" width="26.21" height="40.63"/>
	<ellipse class="st13" cx="325" cy="706.59" rx="62" ry="69.41"/>
	<path class="st16" d="M325.5,766.97c28.4,0,51.41-25.77,51.41-57.56H274.09C274.09,741.2,297.11,766.97,325.5,766.97z"/>
</g>
</svg>
