<?xml version="1.0" encoding="utf-8"?>
<!-- Generator: Adobe Illustrator 23.0.5, SVG Export Plug-In . SVG Version: 6.00 Build 0)  -->
<svg version="1.1" id="圖層_1" xmlns="http://www.w3.org/2000/svg" xmlns:xlink="http://www.w3.org/1999/xlink" x="0px" y="0px"
	 viewBox="0 0 1920 1080" style="enable-background:new 0 0 1920 1080;" xml:space="preserve">
<style type="text/css">
	.st0{fill:#EB7976;}
	.st1{fill:#280A0C;}
	.st2{fill:#F5E9DB;stroke:#42210B;stroke-miterlimit:10;}
	.st3{fill:#7C4F86;}
	.st4{fill:#EDD0A9;}
	.st5{fill:none;stroke:#C88F60;stroke-width:2;stroke-miterlimit:10;}
	.st6{fill:#E8B05D;}
	.st7{fill:none;stroke:#42210B;stroke-miterlimit:10;}
</style>
<g>
	<path class="st0" d="M1717.54,967.96c-1.75,20.66-19.82,35.97-40.36,34.2c-77.2-6.65-180.27-14.9-301.4-22.83
		c-334.69-21.92-528.25-33.98-771.73-19.94c-89.42,5.15-213.8,15.45-363.02,38.24c-21.41,3.27-41.1-12.39-42.82-34.11
		c-18.34-231.06-36.68-462.11-55.02-693.17c-1.58-19.86,12.54-37.49,32.16-40.17c80.8-11.06,191.81-21.8,323.47-21.02
		c215.91,1.28,249.84,32.16,459.07,33.75c189.02,1.44,221.52-23.31,471.27-32.22c128.7-4.59,236.77-2.18,313.48,1.17
		c21.19,0.93,37.34,19.42,35.54,40.68C1757.97,491.02,1737.75,729.49,1717.54,967.96z"/>
	<path class="st1" d="M1041.77,987H874v-39.89c11.79-8.28,44.77-29.11,91.51-29.15c40.3-0.03,69.76,15.41,82.36,23.01
		C1045.83,956.32,1043.8,971.66,1041.77,987z"/>
	<path class="st2" d="M1723.26,278.06c-0.14-7.99-1.69-16.25,0.92-23.8c-14.14-5.71-17.11-25.82-30.31-33.47
		c-2.35-1.36-5.14-2.45-6.36-4.9c-1.07-2.15-0.58-4.74-1.04-7.1c-2.13-10.99-22.03-11.57-22.54-22.76
		c-0.13-2.75,1.09-5.75-0.27-8.14c-1.75-3.1-6.21-2.77-9.48-4.14c-8.26-3.44-6.8-15.74-11.36-23.47c-3.03-5.14-9.27-8.17-15.16-7.37
		c-4.37,0.6-8.36,3.28-10.76,6.98l0.07-0.16c-14.95,18.48-20.91,43.01-21.08,66.84c-0.09,12.62,1.33,25.14,3.43,37.59
		c-433.41,1.74-866.83,3.48-1300.24,5.23c-0.33-26.04-2.62-51.96-8.77-77.21c-1.52-6.23-3.39-12.64-7.67-17.4
		c-4.28-4.76-11.63-7.31-17.22-4.23c-5.38,2.97-7.24,9.68-8.6,15.7c-4.67-0.28-8.82,3.46-10.64,7.8s-1.85,9.19-2.01,13.89
		c-0.04,1.17-0.14,2.47-0.96,3.3c-1.04,1.05-2.71,0.92-4.17,1.1c-7.8,1.01-9.74,11.12-12.68,18.46c-2.28,5.7-6.26,10.7-11.29,14.18
		c-7.21-0.5-11.76,8.3-11.14,15.54c0.41,4.82,2.16,9.4,3.45,14.07c-5.82,4.57-9.4,11.86-8.84,19.89
		c15.13,214.94,30.25,429.87,45.38,644.81c0.92,13.08,12.44,22.79,25.41,21.39c86.25-9.32,183.26-19.28,291.99-29.64
		c50.67-4.83,106.57-9.93,181.49-6.14c55.71,2.82,101.85,9.55,134.21,15.34c11.66-6.98,28.08-14.98,48.81-19.94
		c5.22-1.25,23.32-5.32,47.28-4.6c11.58,0.35,24.79,0.75,41.18,6.14c15.95,5.25,27.72,12.86,35.08,18.41
		c24.07-3.51,61.22-8.19,106.76-10.74c79.17-4.43,145.86-0.31,362.99,24.55c35.57,4.07,80.05,9.26,131.52,15.49
		c13.07,1.58,24.81-8.17,25.72-21.39c14.84-215.51,29.68-431.02,44.52-646.53C1722.72,287.51,1723.35,282.6,1723.26,278.06z
		 M207.59,261.16c0.16,0.96,0.34,1.92,0.51,2.88c-0.06,0.04-0.11,0.09-0.17,0.13L207.59,261.16z"/>
	<path class="st3" d="M1592.98,794.61c-1.12,20.21-19.76,34.7-39.5,30.75c-111.56-22.28-278.37-35.05-452.24,34.3
		c-34.51,13.77-65.99,29.45-94.56,46.03c-8.71-2.12-19.54-4.01-32.03-4.6c-12.37-0.58-23.22,0.27-32.03,1.53
		c-40.6-20.83-87.39-40.75-140.31-56.77c-169.36-51.27-322.5-38.71-426.09-18.48c-19.28,3.77-37.53-10.21-39.16-29.9
		c-18.44-222.17-36.89-444.34-55.33-666.51c-1.45-17.47,10.83-33.09,28.06-35.66c88.36-13.21,162.96-15.68,217.99-15.02
		c116.24,1.4,238.7,4.22,367.56,72.11c34.44,18.14,60.88,36.48,77.78,49.09c30.87-23.82,77.89-55.6,140.31-81.31
		c123.09-50.7,234.29-48.27,337.06-46.03c39.51,0.86,91.07,3.82,151.46,12.3c17,2.39,29.32,17.54,28.36,34.78
		C1617.88,345.69,1605.43,570.15,1592.98,794.61z"/>
	<path class="st4" d="M951.33,834.1c0.2,9.1-8.88,15.45-17.28,12.08c-56.53-22.73-131.5-46.42-221.72-58.63
		c-105.23-14.24-194.91-7.94-259.28,1.53c-1.4-6.3-7.22-29.01-28.98-46.03c-21.94-17.15-45.49-17.1-51.86-16.88
		c-13.22-174.39-26.44-348.78-39.65-523.16c7.3-1.75,24.75-7,39.65-23.01c20-21.5,21.23-47.17,21.35-53.7
		c59.75-8.93,145.62-15.84,247.08-3.07c135.74,17.09,228.77,22.88,282.15,88.98c41.47,51.35,33.44,105.03,28.98,282.29
		C949.66,579.04,948.26,694.67,951.33,834.1z"/>
	<path class="st4" d="M988,834.1c-0.2,9.1,8.88,15.45,17.28,12.08c56.53-22.73,131.5-46.42,221.72-58.63
		c105.23-14.24,194.91-7.94,259.28,1.53c1.4-6.3,7.22-29.01,28.98-46.03c21.94-17.15,45.49-17.1,51.86-16.88
		c13.22-174.39,26.44-348.78,39.65-523.16c-7.3-1.75-24.75-7-39.65-23.01c-20-21.5-21.23-47.17-21.35-53.7
		c-59.75-8.93-145.62-15.84-247.08-3.07c-135.74,17.09-228.77,22.88-282.15,88.98c-41.47,51.35-33.44,105.03-28.98,282.29
		C989.67,579.04,991.06,694.67,988,834.1z"/>
	<path class="st5" d="M381.37,357.98c65.57-15.14,161.88-29.65,277.58-19.94c109.83,9.22,198.43,37.01,259.28,61.37"/>
	<path class="st5" d="M396.63,574.3c68.52-15.3,166-29.15,282.15-19.94c97.99,7.76,179.36,29.55,239.45,50.63"/>
	<path class="st5" d="M1551.17,348.77c-65.57-15.14-161.88-29.65-277.58-19.94c-109.83,9.22-198.43,37.01-259.28,61.37"/>
	<path class="st5" d="M1535.92,565.09c-68.52-15.3-166-29.15-282.15-19.94c-97.99,7.76-179.36,29.55-239.45,50.63"/>
	<g>
		<path class="st6" d="M332.35,170.24c-2.55-0.86-2.59-5.01-0.37-6.53s5.41-0.73,7.39,1.1c4.51,4.14,3.28,12.45-1.75,15.93
			c-5.03,3.48-12.34,2.32-16.89-1.76c-4.55-4.09-6.56-10.49-6.44-16.63c0.05-2.77,0.56-5.67,2.32-7.81c4.5-5.45,14.03-2.9,19.3-7.6
			c-4.03-4.05-8.06-8.09-12.09-12.14c-2.06-2.07-4.17-4.22-5.24-6.94s-0.82-6.19,1.38-8.11c1.38-1.21,3.28-1.62,5.1-1.88
			c7.2-1,14.64-0.19,21.47,2.33c0.12,1.4-1.48,2.35-2.88,2.39c-1.4,0.04-2.79-0.46-4.17-0.25c-3.25,0.48-4.78,4.67-3.85,7.84
			s3.43,5.57,5.62,8.04c3.36,3.8,6.23,8.15,10.37,11.07c4.14,2.92,10.16,4,14.1,0.82c3.73-3.01,4.21-8.53,3.7-13.31
			c-0.3-2.82-1.35-6.17-4.1-6.79c-1.37-0.31-2.85,0.19-4.2-0.19c-2.85-0.8-3.25-5.15-1.25-7.35c2-2.2,5.23-2.68,8.19-2.7
			c2.25-0.02,4.57,0.17,6.58,1.17c3.41,1.69,5.35,5.37,6.7,8.94c3.74,9.88,4.44,21.76-1.61,30.4c-6.05,8.64-20.3,11.37-27.13,3.34
			c-1.31-1.54-2.29-3.36-3.74-4.77c-2.94-2.85-7.33-3.56-11.42-3.55c-2.95,0.01-6,0.35-8.53,1.87c-2.53,1.52-4.38,4.49-3.85,7.4
			c0.53,2.92,4.04,5.11,6.63,3.7c1.37-0.75,2.3-2.3,3.83-2.64c3.22-0.71,4.55,4.01,4.37,7.32"/>
	</g>
	<g>
		<path class="st6" d="M379.63,745.23c-2.55,0.86-2.59,5.01-0.37,6.53c2.22,1.52,5.41,0.73,7.39-1.1
			c4.51-4.14,3.28-12.45-1.75-15.93c-5.03-3.48-12.34-2.32-16.89,1.76c-4.55,4.09-6.56,10.49-6.44,16.63
			c0.05,2.77,0.56,5.67,2.32,7.81c4.5,5.45,14.03,2.9,19.3,7.6c-4.03,4.05-8.06,8.09-12.09,12.14c-2.06,2.07-4.17,4.22-5.24,6.94
			s-0.82,6.19,1.38,8.11c1.38,1.21,3.28,1.62,5.1,1.88c7.2,1,14.64,0.19,21.47-2.33c0.12-1.4-1.48-2.35-2.88-2.39
			c-1.4-0.04-2.79,0.46-4.17,0.25c-3.25-0.48-4.78-4.67-3.85-7.84c0.92-3.17,3.43-5.57,5.62-8.04c3.36-3.8,6.23-8.15,10.37-11.07
			s10.16-4,14.1-0.82c3.73,3.01,4.21,8.53,3.7,13.31c-0.3,2.82-1.35,6.17-4.1,6.79c-1.37,0.31-2.85-0.19-4.2,0.19
			c-2.85,0.8-3.25,5.15-1.25,7.35c2,2.2,5.23,2.68,8.19,2.7c2.25,0.02,4.57-0.17,6.58-1.17c3.41-1.69,5.35-5.37,6.7-8.94
			c3.74-9.88,4.44-21.76-1.61-30.4c-6.05-8.64-20.3-11.37-27.13-3.34c-1.31,1.54-2.29,3.36-3.74,4.77
			c-2.94,2.85-7.33,3.56-11.42,3.55c-2.95-0.01-6-0.35-8.53-1.87c-2.53-1.52-4.38-4.49-3.85-7.4c0.53-2.92,4.04-5.11,6.63-3.7
			c1.37,0.75,2.3,2.3,3.83,2.64c3.22,0.71,4.55-4.01,4.37-7.32"/>
	</g>
	<g>
		<path class="st6" d="M1605.91,167.63c2.39-0.72,2.43-4.21,0.35-5.49c-2.08-1.28-5.07-0.61-6.93,0.92
			c-4.23,3.48-3.08,10.47,1.64,13.4c4.71,2.93,11.57,1.96,15.84-1.48c4.27-3.44,6.15-8.82,6.04-13.98
			c-0.05-2.33-0.53-4.77-2.18-6.56c-4.22-4.59-13.15-2.44-18.1-6.39c3.78-3.4,7.55-6.81,11.33-10.21c1.93-1.74,3.91-3.55,4.91-5.83
			c1-2.29,0.77-5.21-1.29-6.82c-1.3-1.02-3.08-1.37-4.78-1.58c-6.75-0.84-13.73-0.16-20.13,1.96c-0.12,1.18,1.39,1.98,2.7,2.01
			s2.61-0.38,3.91-0.21c3.05,0.4,4.48,3.93,3.61,6.59c-0.87,2.67-3.22,4.69-5.27,6.76c-3.15,3.19-5.84,6.85-9.72,9.31
			c-3.88,2.45-9.53,3.37-13.22,0.69c-3.5-2.53-3.95-7.17-3.47-11.19c0.28-2.37,1.27-5.19,3.84-5.71c1.29-0.26,2.67,0.16,3.94-0.16
			c2.67-0.67,3.05-4.33,1.18-6.18c-1.87-1.85-4.91-2.25-7.68-2.27c-2.11-0.01-4.28,0.14-6.17,0.98c-3.2,1.42-5.01,4.51-6.28,7.52
			c-3.51,8.3-4.16,18.3,1.51,25.57c5.67,7.27,19.03,9.56,25.43,2.81c1.23-1.3,2.15-2.83,3.51-4.01c2.76-2.4,6.88-2.99,10.71-2.98
			c2.76,0.01,5.63,0.29,8,1.57c2.37,1.28,4.11,3.77,3.61,6.22s-3.79,4.3-6.22,3.11c-1.29-0.63-2.16-1.93-3.59-2.22
			c-3.02-0.6-4.26,3.37-4.1,6.16"/>
	</g>
	<g>
		<path class="st6" d="M1551.01,758.22c2.39,0.72,2.43,4.21,0.35,5.49c-2.08,1.28-5.07,0.61-6.93-0.92
			c-4.23-3.48-3.08-10.47,1.64-13.4c4.71-2.93,11.57-1.96,15.84,1.48c4.27,3.44,6.15,8.82,6.04,13.98
			c-0.05,2.33-0.53,4.77-2.18,6.56c-4.22,4.59-13.15,2.44-18.1,6.39c3.78,3.4,7.55,6.81,11.33,10.21c1.93,1.74,3.91,3.55,4.91,5.83
			s0.77,5.21-1.29,6.82c-1.3,1.02-3.08,1.37-4.78,1.58c-6.75,0.84-13.73,0.16-20.13-1.96c-0.12-1.18,1.39-1.98,2.7-2.01
			c1.31-0.03,2.61,0.38,3.91,0.21c3.05-0.4,4.48-3.93,3.61-6.59c-0.87-2.67-3.22-4.69-5.27-6.76c-3.15-3.19-5.84-6.85-9.72-9.31
			s-9.53-3.37-13.22-0.69c-3.5,2.53-3.95,7.17-3.47,11.19c0.28,2.37,1.27,5.19,3.84,5.71c1.29,0.26,2.67-0.16,3.94,0.16
			c2.67,0.67,3.05,4.33,1.18,6.18s-4.91,2.25-7.68,2.27c-2.11,0.01-4.28-0.14-6.17-0.98c-3.2-1.42-5.01-4.51-6.28-7.52
			c-3.51-8.3-4.16-18.3,1.51-25.57c5.67-7.27,19.03-9.56,25.43-2.81c1.23,1.3,2.15,2.83,3.51,4.01c2.76,2.4,6.88,2.99,10.71,2.98
			c2.76-0.01,5.63-0.29,8-1.57c2.37-1.28,4.11-3.77,3.61-6.22c-0.5-2.45-3.79-4.3-6.22-3.11c-1.29,0.63-2.16,1.93-3.59,2.22
			c-3.02,0.6-4.26-3.37-4.1-6.16"/>
	</g>
	<line class="st7" x1="206.74" y1="257.49" x2="261.65" y2="923.33"/>
	<path class="st7" d="M261.65,923.33c2,5.09,5.95,12.79,13.73,16.88c13.11,6.89,29.3-0.55,35.08-3.07
		c14.65-6.4,65.18-15.51,166.24-33.75c14.16-2.56,36.31-6.2,64.06-9.21"/>
	<line class="st7" x1="222.76" y1="253.65" x2="286.81" y2="913.36"/>
	<line class="st7" x1="245.64" y1="227.57" x2="293.68" y2="717.75"/>
	<line class="st7" x1="301.3" y1="604.22" x2="330.28" y2="894.18"/>
	<line class="st7" x1="267.75" y1="222.2" x2="296.73" y2="512.16"/>
	<path class="st7" d="M401.2,855.06c66.79-9.05,152.03-14.56,250.13-6.14c91.75,7.88,170.09,25.84,231.82,44.49"/>
	<path class="st7" d="M405.78,878.07c53.47-7.01,115.85-11.53,185.34-9.85c56.84,1.38,108.5,6.67,154,13.68"/>
	<line class="st7" x1="1706.74" y1="243.68" x2="1651.83" y2="909.52"/>
	<line class="st7" x1="1690.72" y1="239.84" x2="1626.66" y2="899.55"/>
	<line class="st7" x1="1664.06" y1="213.42" x2="1623.58" y2="704.28"/>
	<path class="st7" d="M1568.71,855.06c-66.79-9.05-152.03-14.56-250.13-6.14c-91.75,7.88-170.09,25.84-231.82,44.49"/>
	<path class="st7" d="M1507.7,896.48c-53.47-7.01-115.85-11.53-185.34-9.85c-56.84,1.38-108.5,6.67-154,13.68"/>
	<path class="st0" d="M1061.59,980.86c-14.51,8.8-55.35,30.95-111.34,27.62c-56.73-3.38-95.03-30.92-108.29-41.42
		c-11.66-13.25-9.41-29.97-1.53-35.29c5.63-3.8,15-2.36,22.88,3.07c3.89,5.7,33.95,48.16,88.46,52.16
		c43.59,3.2,86.01-19.43,109.81-58.3c9.77-4.49,13.72-2.66,15.25-1.53c7.37,5.42,1.69,26.02-4.58,38.36
		C1068.72,972.51,1064.59,977.61,1061.59,980.86z"/>
</g>
<g>
	<path d="M1081.95,696.57h-11.69v-39.2h10.75v4.22c1.5-3.22,4.31-4.83,8.41-4.83c3.55,0,6.34,1.38,8.35,4.15
		c2.01,2.76,3.02,6.53,3.02,11.29c0,4.77-1.03,8.55-3.09,11.37c-2.06,2.81-4.78,4.22-8.16,4.22c-3.32,0-5.85-1.27-7.59-3.81V696.57z
		 M1081.95,676.27c0,1.33,0.3,2.36,0.91,3.09c0.6,0.73,1.36,1.1,2.26,1.1c1.41,0,2.37-0.65,2.9-1.95c0.53-1.3,0.79-3.3,0.79-5.99
		c0-3.11-0.3-5.29-0.91-6.55c-0.61-1.26-1.51-1.89-2.72-1.89c-0.72,0-1.44,0.28-2.15,0.85c-0.71,0.57-1.07,1.49-1.07,2.78V676.27z"
		/>
	<path d="M1120.01,687.79c-4.94,0-8.87-1.54-11.78-4.61c-2.91-3.08-4.37-6.68-4.37-10.83c0-4.45,1.52-8.16,4.56-11.13
		c3.04-2.97,6.99-4.45,11.85-4.45c4.9,0,8.84,1.46,11.82,4.39c2.98,2.93,4.47,6.6,4.47,11.02c0,4.45-1.51,8.17-4.53,11.15
		C1129.01,686.3,1125,687.79,1120.01,687.79z M1120.18,680.7c1.82,0,2.92-0.94,3.33-2.83c0.4-1.88,0.6-3.85,0.6-5.9
		c0-2.79-0.28-4.8-0.85-6.04c-0.57-1.23-1.58-1.85-3.05-1.85c-1.35,0-2.33,0.63-2.96,1.9c-0.63,1.27-0.94,3.36-0.94,6.27
		c0,3.42,0.32,5.68,0.97,6.78C1117.93,680.14,1118.89,680.7,1120.18,680.7z"/>
	<path d="M1181.32,657.38l-9.43,29.79h-8.41l-3.9-16.14l-4.07,16.14h-8.32l-9.61-29.79h11.48l3.93,14.59l3.75-14.59h8.65l3.69,14.58
		l4.12-14.58H1181.32z"/>
	<path d="M1203.65,676.48l10.9,0.73c-0.64,2.93-2.29,5.42-4.94,7.49c-2.65,2.06-6.23,3.09-10.74,3.09c-5.02,0-9.02-1.45-12.01-4.35
		s-4.48-6.5-4.48-10.8c0-4.45,1.47-8.21,4.42-11.28c2.95-3.07,6.88-4.6,11.81-4.6c4.77,0,8.62,1.45,11.56,4.34
		c2.94,2.89,4.41,6.83,4.41,11.81c0,0.41-0.01,0.98-0.03,1.7h-19.95c0.04,1.88,0.37,3.27,1,4.17c0.63,0.91,1.82,1.36,3.57,1.36
		C1201.7,680.14,1203.2,678.92,1203.65,676.48z M1202.86,668.74c-0.02-2.01-0.42-3.36-1.21-4.06c-0.79-0.69-1.77-1.04-2.93-1.04
		c-2.76,0-4.15,1.7-4.15,5.1H1202.86z"/>
	<path d="M1230.34,687.17h-11.19v-29.79h9.73v6.15c1.11-4.47,3.7-6.71,7.76-6.71c0.41,0,0.98,0.04,1.7,0.12v10.4
		c-0.82-0.19-1.55-0.29-2.2-0.29c-3.87,0-5.8,2.16-5.8,6.47V687.17z"/>
	<path d="M1302.17,687.17h-11.34v-18.63c0-1.25-0.18-2.12-0.54-2.62c-0.36-0.5-1-0.75-1.92-0.75c-2.19,0-3.28,1.59-3.28,4.78v17.23
		h-11.22v-18.63c0-2.38-0.92-3.57-2.75-3.57c-1.89,0-2.84,1.19-2.84,3.57v18.63h-11.25v-29.79h10.49v4.01
		c1.88-3.09,4.6-4.63,8.17-4.63c3.85,0,6.64,1.54,8.38,4.63c1.93-3.09,4.9-4.63,8.91-4.63c1.91,0,3.6,0.4,5.05,1.2
		c1.45,0.8,2.51,1.83,3.16,3.09c0.65,1.26,0.98,3.21,0.98,5.84V687.17z"/>
	<path d="M1328.04,676.48l10.9,0.73c-0.64,2.93-2.29,5.42-4.94,7.49c-2.65,2.06-6.23,3.09-10.74,3.09c-5.02,0-9.02-1.45-12.01-4.35
		s-4.48-6.5-4.48-10.8c0-4.45,1.47-8.21,4.42-11.28c2.95-3.07,6.88-4.6,11.81-4.6c4.77,0,8.62,1.45,11.56,4.34
		c2.94,2.89,4.41,6.83,4.41,11.81c0,0.41-0.01,0.98-0.03,1.7h-19.95c0.04,1.88,0.37,3.27,1,4.17c0.63,0.91,1.82,1.36,3.57,1.36
		C1326.1,680.14,1327.59,678.92,1328.04,676.48z M1327.25,668.74c-0.02-2.01-0.42-3.36-1.21-4.06c-0.79-0.69-1.77-1.04-2.93-1.04
		c-2.76,0-4.15,1.7-4.15,5.1H1327.25z"/>
	<path d="M1389.6,650.61l-0.29,8l-0.56-0.03c-1.05-0.06-1.81-0.09-2.26-0.09c-1.82,0-2.91,0.36-3.28,1.08
		c2.23,1.84,3.34,4.05,3.34,6.65c0,3.05-1.21,5.34-3.62,6.87c-2.41,1.53-5.69,2.3-9.83,2.3c-0.1,0-0.61-0.02-1.52-0.06
		c-0.86-0.04-1.31-0.06-1.35-0.06c-1.89,0-2.84,0.49-2.84,1.46c0,0.86,0.84,1.32,2.52,1.38l9.58,0.41c3.5,0.16,6.06,1.13,7.69,2.93
		c1.63,1.8,2.45,3.9,2.45,6.3c0,2.85-1.22,5.18-3.65,6.99s-7.16,2.71-14.19,2.71c-10.84,0-16.26-2.49-16.26-7.47
		c0-2.71,1.44-4.61,4.31-5.68c-1.86-1.31-2.78-2.86-2.78-4.66c0-2.93,1.9-5.14,5.71-6.62c-3.18-1.39-4.78-3.69-4.78-6.91
		c0-2.95,1.29-5.24,3.87-6.88s6.11-2.46,10.61-2.46c2.05,0,3.92,0.21,5.6,0.62c0.68-4.67,3.15-7,7.41-7
		C1386.44,650.37,1387.82,650.45,1389.6,650.61z M1369.5,686.78c-0.43-0.02-0.86-0.03-1.29-0.03c-2.01,0-3.02,0.63-3.02,1.88
		c0,1.15,0.77,1.9,2.3,2.23c1.53,0.33,3.58,0.5,6.14,0.5c2.42,0,3.98-0.21,4.67-0.61c0.69-0.41,1.04-0.98,1.04-1.7
		c0-0.51-0.16-0.93-0.47-1.27c-0.31-0.34-1.05-0.54-2.23-0.6L1369.5,686.78z M1372.49,669.86c2.27,0,3.4-1.2,3.4-3.6
		c0-2.46-1.16-3.69-3.49-3.69c-2.3,0-3.46,1.25-3.46,3.75C1368.94,668.67,1370.12,669.86,1372.49,669.86z"/>
	<path d="M1404.39,645.92v9.26h-11.69v-9.26H1404.39z M1404.39,657.38v29.79h-11.69v-29.79H1404.39z"/>
	<path d="M1438.06,657.38l-10.91,29.79h-8.73l-11.16-29.79h12.01l4.27,12.65c0.35,1.04,0.67,2.06,0.94,3.08
		c0.1-0.35,0.24-0.8,0.44-1.35c0.04-0.08,0.17-0.45,0.38-1.11l4.38-13.27H1438.06z"/>
	<path d="M1459.7,676.48l10.9,0.73c-0.64,2.93-2.29,5.42-4.94,7.49c-2.65,2.06-6.23,3.09-10.74,3.09c-5.02,0-9.02-1.45-12.01-4.35
		s-4.48-6.5-4.48-10.8c0-4.45,1.47-8.21,4.42-11.28c2.95-3.07,6.88-4.6,11.81-4.6c4.77,0,8.62,1.45,11.56,4.34
		c2.94,2.89,4.41,6.83,4.41,11.81c0,0.41-0.01,0.98-0.03,1.7h-19.95c0.04,1.88,0.37,3.27,1,4.17c0.63,0.91,1.82,1.36,3.57,1.36
		C1457.76,680.14,1459.25,678.92,1459.7,676.48z M1458.91,668.74c-0.02-2.01-0.42-3.36-1.21-4.06c-0.79-0.69-1.77-1.04-2.93-1.04
		c-2.76,0-4.15,1.7-4.15,5.1H1458.91z"/>
</g>
<g>
	<path d="M1067.62,457.73l9.23-1.26c0.53,2.15,2.62,3.22,6.27,3.22c3.03,0,4.54-0.59,4.54-1.76c0-0.51-0.29-0.9-0.88-1.19
		s-1.97-0.57-4.16-0.87c-6.05-0.84-9.83-2.15-11.34-3.94c-1.5-1.79-2.26-3.77-2.26-5.96c0-3.05,1.27-5.51,3.81-7.4
		c2.54-1.88,5.87-2.83,9.99-2.83c7.23,0,11.84,2.61,13.83,7.82l-8.85,1.67c-0.82-1.76-2.55-2.64-5.19-2.64
		c-1.25,0-2.18,0.17-2.8,0.51s-0.92,0.68-0.92,1.01c0,0.98,0.94,1.57,2.81,1.78c4.88,0.54,8.19,1.09,9.93,1.66
		c1.74,0.57,3.22,1.6,4.45,3.11c1.23,1.5,1.85,3.32,1.85,5.45c0,3.26-1.36,5.85-4.09,7.77s-6.48,2.87-11.26,2.87
		C1074.53,466.79,1069.54,463.77,1067.62,457.73z"/>
	<path d="M1121.73,455.48l10.9,0.73c-0.64,2.93-2.29,5.42-4.94,7.49c-2.65,2.06-6.23,3.09-10.74,3.09c-5.02,0-9.02-1.45-12.01-4.35
		s-4.48-6.5-4.48-10.8c0-4.45,1.47-8.21,4.42-11.28c2.95-3.07,6.88-4.6,11.81-4.6c4.77,0,8.62,1.45,11.56,4.34
		c2.94,2.89,4.41,6.83,4.41,11.81c0,0.41-0.01,0.98-0.03,1.7h-19.95c0.04,1.88,0.37,3.27,1,4.17c0.63,0.91,1.82,1.36,3.57,1.36
		C1119.79,459.14,1121.28,457.92,1121.73,455.48z M1120.94,447.74c-0.02-2.01-0.42-3.36-1.21-4.06c-0.79-0.69-1.77-1.04-2.93-1.04
		c-2.76,0-4.15,1.7-4.15,5.1H1120.94z"/>
	<path d="M1155.19,454.16l9.96,0.85c-0.47,3.48-1.93,6.31-4.38,8.5c-2.45,2.19-5.71,3.28-9.77,3.28c-4.55,0-8.25-1.43-11.09-4.29
		s-4.26-6.53-4.26-11c0-4.57,1.41-8.33,4.23-11.29c2.82-2.96,6.49-4.44,11-4.44c4,0,7.27,1.12,9.79,3.35s3.96,5.06,4.34,8.48
		l-10.22,0.85c-0.43-3.14-1.62-4.72-3.57-4.72c-1.25,0-2.16,0.57-2.74,1.71c-0.58,1.14-0.86,3.13-0.86,5.96
		c0,2.44,0.29,4.25,0.86,5.42c0.58,1.17,1.58,1.76,3,1.76C1153.56,458.58,1154.8,457.11,1155.19,454.16z"/>
	<path d="M1179.8,466.17h-11.19v-29.79h9.73v6.15c1.11-4.47,3.7-6.71,7.76-6.71c0.41,0,0.98,0.04,1.7,0.12v10.4
		c-0.82-0.2-1.55-0.29-2.2-0.29c-3.87,0-5.8,2.16-5.8,6.47V466.17z"/>
	<path d="M1211.18,455.48l10.9,0.73c-0.64,2.93-2.29,5.42-4.94,7.49c-2.65,2.06-6.23,3.09-10.74,3.09c-5.02,0-9.02-1.45-12.01-4.35
		s-4.48-6.5-4.48-10.8c0-4.45,1.47-8.21,4.42-11.28c2.95-3.07,6.88-4.6,11.81-4.6c4.77,0,8.62,1.45,11.56,4.34
		c2.94,2.89,4.41,6.83,4.41,11.81c0,0.41-0.01,0.98-0.03,1.7h-19.95c0.04,1.88,0.37,3.27,1,4.17c0.63,0.91,1.82,1.36,3.57,1.36
		C1209.23,459.14,1210.73,457.92,1211.18,455.48z M1210.39,447.74c-0.02-2.01-0.42-3.36-1.21-4.06c-0.79-0.69-1.77-1.04-2.93-1.04
		c-2.76,0-4.15,1.7-4.15,5.1H1210.39z"/>
	<path d="M1245.07,436.38v7.59h-5.95v10.99c0,1.5,0.28,2.4,0.85,2.68c0.57,0.28,1.15,0.42,1.76,0.42c0.94,0,2.05-0.17,3.34-0.5v8.32
		c-2.3,0.45-4.57,0.67-6.8,0.67c-3.59,0-6.24-0.77-7.92-2.31c-1.69-1.54-2.53-4-2.53-7.38l0.03-3.49v-9.4h-4.45v-7.59h4.45l0.18-9.7
		l11.1-0.18v9.87H1245.07z"/>
	<path d="M1282.37,436.38v7.59h-5.95v10.99c0,1.5,0.28,2.4,0.85,2.68c0.57,0.28,1.15,0.42,1.76,0.42c0.94,0,2.05-0.17,3.34-0.5v8.32
		c-2.3,0.45-4.57,0.67-6.8,0.67c-3.59,0-6.24-0.77-7.92-2.31c-1.69-1.54-2.53-4-2.53-7.38l0.03-3.49v-9.4h-4.45v-7.59h4.45l0.18-9.7
		l11.1-0.18v9.87H1282.37z"/>
	<path d="M1297.46,466.17h-11.19v-29.79h9.73v6.15c1.11-4.47,3.7-6.71,7.76-6.71c0.41,0,0.98,0.04,1.7,0.12v10.4
		c-0.82-0.2-1.55-0.29-2.2-0.29c-3.87,0-5.8,2.16-5.8,6.47V466.17z"/>
	<path d="M1339.18,466.17h-11.13c-0.27-1.27-0.41-2.66-0.41-4.16c-2.11,3.18-5.3,4.78-9.58,4.78c-3.52,0-6.15-0.9-7.9-2.7
		c-1.75-1.8-2.62-3.86-2.62-6.18c0-3.14,1.43-5.69,4.29-7.63c2.86-1.94,7.93-3.11,15.22-3.5v-0.67c0-1.31-0.3-2.18-0.89-2.61
		c-0.6-0.43-1.47-0.64-2.62-0.64c-2.7,0-4.2,1.08-4.51,3.25l-10.66-1c1.52-6.23,6.71-9.35,15.56-9.35c2.4,0,4.61,0.24,6.62,0.72
		c2.01,0.48,3.6,1.23,4.78,2.24s1.96,2.09,2.36,3.22c0.4,1.13,0.6,3.31,0.6,6.53v11.89
		C1338.27,462.64,1338.57,464.57,1339.18,466.17z M1327.05,452.23c-4.98,0.53-7.47,2.12-7.47,4.78c0,1.8,0.99,2.7,2.96,2.7
		c1.25,0,2.31-0.37,3.19-1.11s1.32-2.38,1.32-4.92V452.23z"/>
	<path d="M1356.02,424.92v9.26h-11.69v-9.26H1356.02z M1356.02,436.38v29.79h-11.69v-29.79H1356.02z"/>
	<path d="M1373.69,426.18v39.99h-11.51v-39.99H1373.69z"/>
	<path d="M1377.2,457.73l9.23-1.26c0.53,2.15,2.62,3.22,6.27,3.22c3.03,0,4.54-0.59,4.54-1.76c0-0.51-0.29-0.9-0.88-1.19
		s-1.97-0.57-4.16-0.87c-6.05-0.84-9.83-2.15-11.34-3.94c-1.5-1.79-2.26-3.77-2.26-5.96c0-3.05,1.27-5.51,3.81-7.4
		c2.54-1.88,5.87-2.83,9.99-2.83c7.23,0,11.84,2.61,13.83,7.82l-8.85,1.67c-0.82-1.76-2.55-2.64-5.19-2.64
		c-1.25,0-2.18,0.17-2.8,0.51s-0.92,0.68-0.92,1.01c0,0.98,0.94,1.57,2.81,1.78c4.88,0.54,8.19,1.09,9.93,1.66
		c1.74,0.57,3.22,1.6,4.45,3.11c1.23,1.5,1.85,3.32,1.85,5.45c0,3.26-1.36,5.85-4.09,7.77s-6.48,2.87-11.26,2.87
		C1384.11,466.79,1379.12,463.77,1377.2,457.73z"/>
	<path d="M1445.03,436.38v7.59h-5.95v10.99c0,1.5,0.28,2.4,0.85,2.68c0.57,0.28,1.15,0.42,1.76,0.42c0.94,0,2.05-0.17,3.34-0.5v8.32
		c-2.3,0.45-4.57,0.67-6.8,0.67c-3.59,0-6.24-0.77-7.92-2.31c-1.69-1.54-2.53-4-2.53-7.38l0.03-3.49v-9.4h-4.45v-7.59h4.45l0.18-9.7
		l11.1-0.18v9.87H1445.03z"/>
	<path d="M1463.48,466.79c-4.94,0-8.87-1.54-11.78-4.61c-2.91-3.08-4.37-6.68-4.37-10.83c0-4.45,1.52-8.16,4.56-11.13
		c3.04-2.97,6.99-4.45,11.85-4.45c4.9,0,8.84,1.46,11.82,4.39c2.98,2.93,4.47,6.6,4.47,11.02c0,4.45-1.51,8.17-4.53,11.15
		S1468.48,466.79,1463.48,466.79z M1463.66,459.7c1.82,0,2.92-0.94,3.33-2.83c0.4-1.88,0.6-3.85,0.6-5.9c0-2.79-0.28-4.8-0.85-6.04
		c-0.57-1.23-1.58-1.85-3.05-1.85c-1.35,0-2.33,0.63-2.96,1.9c-0.63,1.27-0.94,3.36-0.94,6.27c0,3.42,0.32,5.68,0.97,6.78
		S1462.37,459.7,1463.66,459.7z"/>
</g>
<g>
	<path d="M1100.29,258.17h-11.13c-0.27-1.27-0.41-2.66-0.41-4.16c-2.11,3.18-5.3,4.78-9.58,4.78c-3.52,0-6.15-0.9-7.9-2.7
		c-1.75-1.8-2.62-3.86-2.62-6.18c0-3.14,1.43-5.69,4.29-7.63c2.86-1.94,7.93-3.11,15.22-3.5v-0.67c0-1.31-0.3-2.18-0.89-2.61
		c-0.6-0.43-1.47-0.64-2.62-0.64c-2.7,0-4.2,1.08-4.51,3.25l-10.66-1c1.52-6.23,6.71-9.35,15.56-9.35c2.4,0,4.61,0.24,6.62,0.72
		c2.01,0.48,3.6,1.23,4.78,2.24s1.96,2.09,2.36,3.22c0.4,1.13,0.6,3.31,0.6,6.53v11.89
		C1099.38,254.64,1099.68,256.57,1100.29,258.17z M1088.16,244.23c-4.98,0.53-7.47,2.12-7.47,4.78c0,1.8,0.99,2.7,2.96,2.7
		c1.25,0,2.31-0.37,3.19-1.11s1.32-2.38,1.32-4.92V244.23z"/>
	<path d="M1102.81,249.73l9.23-1.26c0.53,2.15,2.62,3.22,6.27,3.22c3.03,0,4.54-0.59,4.54-1.76c0-0.51-0.29-0.9-0.88-1.19
		s-1.97-0.57-4.16-0.87c-6.05-0.84-9.83-2.15-11.34-3.94c-1.5-1.79-2.26-3.77-2.26-5.96c0-3.05,1.27-5.51,3.81-7.4
		c2.54-1.88,5.87-2.83,9.99-2.83c7.23,0,11.84,2.61,13.83,7.82l-8.85,1.67c-0.82-1.76-2.55-2.64-5.19-2.64
		c-1.25,0-2.18,0.17-2.8,0.51s-0.92,0.68-0.92,1.01c0,0.98,0.94,1.57,2.81,1.78c4.88,0.54,8.19,1.09,9.93,1.66
		c1.74,0.57,3.22,1.6,4.45,3.11c1.23,1.5,1.85,3.32,1.85,5.45c0,3.26-1.36,5.85-4.09,7.77s-6.48,2.87-11.26,2.87
		C1109.71,258.79,1104.72,255.77,1102.81,249.73z"/>
	<path d="M1180.06,228.38l-11.69,32.29c-0.9,2.44-2.19,4.35-3.87,5.73c-1.68,1.38-4.27,2.07-7.76,2.07c-0.84,0-2.79-0.09-5.86-0.26
		v-8.29c1.52,0.23,2.93,0.35,4.22,0.35c3.36,0,5.04-0.74,5.04-2.23c0-0.49-0.17-1.16-0.5-2.02l-10.69-27.63h12.5l4.93,15.9
		l5.14-15.9H1180.06z"/>
	<path d="M1196.5,258.79c-4.94,0-8.87-1.54-11.78-4.61c-2.91-3.08-4.37-6.68-4.37-10.83c0-4.45,1.52-8.16,4.56-11.13
		c3.04-2.97,6.99-4.45,11.85-4.45c4.9,0,8.84,1.46,11.82,4.39c2.98,2.93,4.47,6.6,4.47,11.02c0,4.45-1.51,8.17-4.53,11.15
		S1201.5,258.79,1196.5,258.79z M1196.68,251.7c1.82,0,2.92-0.94,3.33-2.83c0.4-1.88,0.6-3.85,0.6-5.9c0-2.79-0.28-4.8-0.85-6.04
		c-0.57-1.23-1.58-1.85-3.05-1.85c-1.35,0-2.33,0.63-2.96,1.9c-0.63,1.27-0.94,3.36-0.94,6.27c0,3.42,0.32,5.68,0.97,6.78
		S1195.39,251.7,1196.68,251.7z"/>
	<path d="M1246.57,228.38v29.79h-10.81v-4.89c-1.58,3.67-4.67,5.51-9.26,5.51c-2.83,0-5.02-0.79-6.58-2.36s-2.33-3.82-2.33-6.75
		v-21.3h11.69v18.75c0,1.17,0.16,2,0.48,2.48s0.95,0.72,1.89,0.72c1,0,1.81-0.36,2.43-1.07c0.63-0.71,0.94-1.71,0.94-3v-17.87
		H1246.57z"/>
	<path d="M1285.68,246.16l9.96,0.85c-0.47,3.48-1.93,6.31-4.38,8.5c-2.45,2.19-5.71,3.28-9.77,3.28c-4.55,0-8.25-1.43-11.09-4.29
		s-4.26-6.53-4.26-11c0-4.57,1.41-8.33,4.23-11.29c2.82-2.96,6.49-4.44,11-4.44c4,0,7.27,1.12,9.79,3.35s3.96,5.06,4.34,8.48
		l-10.22,0.85c-0.43-3.14-1.62-4.72-3.57-4.72c-1.25,0-2.16,0.57-2.74,1.71c-0.58,1.14-0.86,3.13-0.86,5.96
		c0,2.44,0.29,4.25,0.86,5.42c0.58,1.17,1.58,1.76,3,1.76C1284.05,250.58,1285.29,249.11,1285.68,246.16z"/>
	<path d="M1329.13,258.17h-11.13c-0.27-1.27-0.41-2.66-0.41-4.16c-2.11,3.18-5.3,4.78-9.58,4.78c-3.52,0-6.15-0.9-7.9-2.7
		c-1.75-1.8-2.62-3.86-2.62-6.18c0-3.14,1.43-5.69,4.29-7.63c2.86-1.94,7.93-3.11,15.22-3.5v-0.67c0-1.31-0.3-2.18-0.89-2.61
		c-0.6-0.43-1.47-0.64-2.62-0.64c-2.7,0-4.2,1.08-4.51,3.25l-10.66-1c1.52-6.23,6.71-9.35,15.56-9.35c2.4,0,4.61,0.24,6.62,0.72
		c2.01,0.48,3.6,1.23,4.78,2.24s1.96,2.09,2.36,3.22c0.4,1.13,0.6,3.31,0.6,6.53v11.89
		C1328.22,254.64,1328.52,256.57,1329.13,258.17z M1317,244.23c-4.98,0.53-7.47,2.12-7.47,4.78c0,1.8,0.99,2.7,2.96,2.7
		c1.25,0,2.31-0.37,3.19-1.11s1.32-2.38,1.32-4.92V244.23z"/>
	<path d="M1363.38,258.17h-11.69v-18.75c0-1.54-0.24-2.53-0.72-2.96c-0.48-0.43-1.08-0.64-1.8-0.64c-2.13,0-3.19,1.48-3.19,4.45
		v17.9h-11.69v-29.79h10.84v4.22c1.6-3.22,4.46-4.83,8.58-4.83c2.17,0,4,0.42,5.49,1.25s2.56,1.9,3.21,3.22s0.97,3.61,0.97,6.87
		V258.17z"/>
	<path d="M1402.49,246.16l9.96,0.85c-0.47,3.48-1.93,6.31-4.38,8.5c-2.45,2.19-5.71,3.28-9.77,3.28c-4.55,0-8.25-1.43-11.09-4.29
		s-4.26-6.53-4.26-11c0-4.57,1.41-8.33,4.23-11.29c2.82-2.96,6.49-4.44,11-4.44c4,0,7.27,1.12,9.79,3.35s3.96,5.06,4.34,8.48
		l-10.22,0.85c-0.43-3.14-1.62-4.72-3.57-4.72c-1.25,0-2.16,0.57-2.74,1.71c-0.58,1.14-0.86,3.13-0.86,5.96
		c0,2.44,0.29,4.25,0.86,5.42c0.58,1.17,1.58,1.76,3,1.76C1400.86,250.58,1402.1,249.11,1402.49,246.16z"/>
	<path d="M1445.93,258.17h-11.13c-0.27-1.27-0.41-2.66-0.41-4.16c-2.11,3.18-5.3,4.78-9.58,4.78c-3.52,0-6.15-0.9-7.9-2.7
		c-1.75-1.8-2.62-3.86-2.62-6.18c0-3.14,1.43-5.69,4.29-7.63c2.86-1.94,7.93-3.11,15.22-3.5v-0.67c0-1.31-0.3-2.18-0.89-2.61
		c-0.6-0.43-1.47-0.64-2.62-0.64c-2.7,0-4.2,1.08-4.51,3.25l-10.66-1c1.52-6.23,6.71-9.35,15.56-9.35c2.4,0,4.61,0.24,6.62,0.72
		c2.01,0.48,3.6,1.23,4.78,2.24s1.96,2.09,2.36,3.22c0.4,1.13,0.6,3.31,0.6,6.53v11.89
		C1445.03,254.64,1445.33,256.57,1445.93,258.17z M1433.8,244.23c-4.98,0.53-7.47,2.12-7.47,4.78c0,1.8,0.99,2.7,2.96,2.7
		c1.25,0,2.31-0.37,3.19-1.11s1.32-2.38,1.32-4.92V244.23z"/>
	<path d="M1462.6,218.18v39.99h-11.51v-39.99H1462.6z"/>
	<path d="M1480.27,218.18v39.99h-11.51v-39.99H1480.27z"/>
</g>
<g>
	<path d="M445.95,637.92v9.26h-11.69v-9.26H445.95z M445.95,649.38v29.79h-11.69v-29.79H445.95z"/>
	<path d="M449.46,670.73l9.23-1.26c0.53,2.15,2.62,3.22,6.27,3.22c3.03,0,4.54-0.59,4.54-1.76c0-0.51-0.29-0.9-0.88-1.19
		s-1.97-0.57-4.16-0.87c-6.05-0.84-9.83-2.15-11.34-3.94c-1.5-1.79-2.26-3.77-2.26-5.96c0-3.05,1.27-5.51,3.81-7.4
		c2.54-1.88,5.87-2.83,9.99-2.83c7.23,0,11.84,2.61,13.83,7.82l-8.85,1.67c-0.82-1.76-2.55-2.64-5.19-2.64
		c-1.25,0-2.18,0.17-2.8,0.51s-0.92,0.68-0.92,1.01c0,0.98,0.94,1.57,2.81,1.78c4.88,0.54,8.19,1.09,9.93,1.66
		c1.74,0.57,3.22,1.6,4.45,3.11c1.23,1.5,1.85,3.32,1.85,5.45c0,3.26-1.36,5.85-4.09,7.77s-6.48,2.87-11.26,2.87
		C456.37,679.79,451.38,676.77,449.46,670.73z"/>
	<path d="M539.96,649.38l-9.43,29.79h-8.41l-3.9-16.14l-4.07,16.14h-8.32l-9.61-29.79h11.48l3.93,14.59l3.75-14.59h8.65l3.69,14.58
		l4.12-14.58H539.96z"/>
	<path d="M555.14,637.92v9.26h-11.69v-9.26H555.14z M555.14,649.38v29.79h-11.69v-29.79H555.14z"/>
	<path d="M579.69,649.38v7.59h-5.95v10.99c0,1.5,0.28,2.4,0.85,2.68c0.57,0.28,1.15,0.42,1.76,0.42c0.94,0,2.05-0.17,3.34-0.5v8.32
		c-2.3,0.45-4.57,0.67-6.8,0.67c-3.59,0-6.24-0.77-7.92-2.31c-1.69-1.54-2.53-4-2.53-7.38l0.03-3.49v-9.4h-4.45v-7.59h4.45l0.18-9.7
		l11.1-0.18v9.87H579.69z"/>
	<path d="M612.85,679.17h-11.69v-17.93c0-1.64-0.18-2.77-0.54-3.38c-0.36-0.62-1.05-0.92-2.08-0.92c-0.8,0-1.49,0.24-2.08,0.72
		s-0.94,0.97-1.04,1.48s-0.15,1.57-0.15,3.19v16.85h-11.69v-39.99h11.69v13.71c2.11-2.75,4.86-4.13,8.26-4.13
		c1.72,0,3.23,0.3,4.53,0.89c1.3,0.6,2.3,1.36,3,2.3s1.18,1.85,1.42,2.72c0.24,0.88,0.37,2.58,0.37,5.1V679.17z"/>
	<path d="M630.72,637.92v9.26h-11.69v-9.26H630.72z M630.72,649.38v29.79h-11.69v-29.79H630.72z"/>
	<path d="M665.97,679.17h-11.69v-18.75c0-1.54-0.24-2.53-0.72-2.96c-0.48-0.43-1.08-0.64-1.8-0.64c-2.13,0-3.19,1.48-3.19,4.45v17.9
		h-11.69v-29.79h10.84v4.22c1.6-3.22,4.46-4.83,8.58-4.83c2.17,0,4,0.42,5.49,1.25s2.56,1.9,3.21,3.22s0.97,3.61,0.97,6.87V679.17z"
		/>
	<path d="M716.39,679.17H704.7v-17.93c0-1.64-0.18-2.77-0.54-3.38c-0.36-0.62-1.05-0.92-2.08-0.92c-0.8,0-1.49,0.24-2.08,0.72
		s-0.94,0.97-1.04,1.48s-0.15,1.57-0.15,3.19v16.85h-11.69v-39.99h11.69v13.71c2.11-2.75,4.86-4.13,8.26-4.13
		c1.72,0,3.23,0.3,4.53,0.89c1.3,0.6,2.3,1.36,3,2.3s1.18,1.85,1.42,2.72c0.24,0.88,0.37,2.58,0.37,5.1V679.17z"/>
	<path d="M734.26,637.92v9.26h-11.69v-9.26H734.26z M734.26,649.38v29.79h-11.69v-29.79H734.26z"/>
	<path d="M769.5,679.17h-10.96v-3.96c-1.62,3.05-4.3,4.57-8.03,4.57c-3.44,0-6.23-1.34-8.36-4.03s-3.21-6.59-3.21-11.7
		c0-4.79,1.07-8.58,3.22-11.4c2.15-2.81,4.99-4.22,8.53-4.22c2.95,0,5.38,1.12,7.29,3.37v-12.63h11.51V679.17z M757.99,660.01
		c0-2.68-1.1-4.01-3.31-4.01c-1.54,0-2.55,0.85-3.03,2.55c-0.48,1.7-0.72,3.78-0.72,6.24c0,4.82,1.23,7.24,3.69,7.24
		c0.94,0,1.73-0.38,2.39-1.14c0.65-0.76,0.98-1.92,0.98-3.49V660.01z"/>
	<path d="M804.75,679.17h-10.96v-3.96c-1.62,3.05-4.3,4.57-8.03,4.57c-3.44,0-6.23-1.34-8.36-4.03s-3.21-6.59-3.21-11.7
		c0-4.79,1.07-8.58,3.22-11.4c2.15-2.81,4.99-4.22,8.53-4.22c2.95,0,5.38,1.12,7.29,3.37v-12.63h11.51V679.17z M793.23,660.01
		c0-2.68-1.1-4.01-3.31-4.01c-1.54,0-2.55,0.85-3.03,2.55c-0.48,1.7-0.72,3.78-0.72,6.24c0,4.82,1.23,7.24,3.69,7.24
		c0.94,0,1.73-0.38,2.39-1.14c0.65-0.76,0.98-1.92,0.98-3.49V660.01z"/>
	<path d="M830.59,668.48l10.9,0.73c-0.64,2.93-2.29,5.42-4.94,7.49c-2.65,2.06-6.23,3.09-10.74,3.09c-5.02,0-9.02-1.45-12.01-4.35
		s-4.48-6.5-4.48-10.8c0-4.45,1.47-8.21,4.42-11.28c2.95-3.07,6.88-4.6,11.81-4.6c4.77,0,8.62,1.45,11.56,4.34
		c2.94,2.89,4.41,6.83,4.41,11.81c0,0.41-0.01,0.98-0.03,1.7h-19.95c0.04,1.88,0.37,3.27,1,4.17c0.63,0.91,1.82,1.36,3.57,1.36
		C828.64,672.14,830.14,670.92,830.59,668.48z M829.8,660.74c-0.02-2.01-0.42-3.36-1.21-4.06c-0.79-0.69-1.77-1.04-2.93-1.04
		c-2.76,0-4.15,1.7-4.15,5.1H829.8z"/>
	<path d="M875.18,679.17h-11.69v-18.75c0-1.54-0.24-2.53-0.72-2.96c-0.48-0.43-1.08-0.64-1.8-0.64c-2.13,0-3.19,1.48-3.19,4.45v17.9
		h-11.69v-29.79h10.84v4.22c1.6-3.22,4.46-4.83,8.58-4.83c2.17,0,4,0.42,5.49,1.25s2.56,1.9,3.21,3.22s0.97,3.61,0.97,6.87V679.17z"
		/>
</g>
<g>
	<path d="M382.11,204.76v30.41h-11.63v-30.41h-8.29v-9.58h28.21v9.58H382.11z"/>
	<path d="M422.74,235.17h-11.69v-17.93c0-1.64-0.18-2.77-0.54-3.38c-0.36-0.62-1.05-0.92-2.08-0.92c-0.8,0-1.49,0.24-2.08,0.72
		c-0.59,0.48-0.94,0.97-1.04,1.48c-0.1,0.51-0.15,1.57-0.15,3.19v16.85h-11.69v-39.99h11.69v13.71c2.11-2.75,4.86-4.13,8.26-4.13
		c1.72,0,3.23,0.3,4.53,0.89c1.3,0.6,2.3,1.36,3,2.3s1.18,1.85,1.42,2.72c0.24,0.88,0.37,2.58,0.37,5.1V235.17z"/>
	<path d="M448.61,224.48l10.9,0.73c-0.64,2.93-2.29,5.42-4.94,7.49c-2.65,2.06-6.23,3.09-10.74,3.09c-5.02,0-9.02-1.45-12.01-4.35
		s-4.48-6.5-4.48-10.8c0-4.45,1.47-8.21,4.42-11.28c2.95-3.07,6.88-4.6,11.81-4.6c4.77,0,8.62,1.45,11.56,4.34
		c2.94,2.89,4.41,6.83,4.41,11.81c0,0.41-0.01,0.98-0.03,1.7h-19.95c0.04,1.88,0.37,3.27,1,4.17c0.63,0.91,1.82,1.36,3.57,1.36
		C446.67,228.14,448.16,226.92,448.61,224.48z M447.82,216.74c-0.02-2.01-0.42-3.36-1.21-4.06c-0.79-0.69-1.77-1.04-2.93-1.04
		c-2.76,0-4.15,1.7-4.15,5.1H447.82z"/>
	<path d="M475.3,235.17h-11.19v-29.79h9.73v6.15c1.11-4.47,3.7-6.71,7.76-6.71c0.41,0,0.98,0.04,1.7,0.12v10.4
		c-0.82-0.19-1.55-0.29-2.2-0.29c-3.87,0-5.8,2.16-5.8,6.47V235.17z"/>
	<path d="M506.68,224.48l10.9,0.73c-0.64,2.93-2.29,5.42-4.94,7.49c-2.65,2.06-6.23,3.09-10.74,3.09c-5.02,0-9.02-1.45-12.01-4.35
		s-4.48-6.5-4.48-10.8c0-4.45,1.47-8.21,4.42-11.28c2.95-3.07,6.88-4.6,11.81-4.6c4.77,0,8.62,1.45,11.56,4.34
		c2.94,2.89,4.41,6.83,4.41,11.81c0,0.41-0.01,0.98-0.03,1.7h-19.95c0.04,1.88,0.37,3.27,1,4.17c0.63,0.91,1.82,1.36,3.57,1.36
		C504.73,228.14,506.23,226.92,506.68,224.48z M505.88,216.74c-0.02-2.01-0.42-3.36-1.21-4.06c-0.79-0.69-1.77-1.04-2.93-1.04
		c-2.76,0-4.15,1.7-4.15,5.1H505.88z"/>
	<path d="M578.25,205.38l-9.43,29.79h-8.41l-3.9-16.14l-4.07,16.14h-8.32l-9.61-29.79h11.48l3.93,14.59l3.75-14.59h8.65l3.69,14.58
		l4.12-14.58H578.25z"/>
	<path d="M593.42,193.92v9.26h-11.69v-9.26H593.42z M593.42,205.38v29.79h-11.69v-29.79H593.42z"/>
	<path d="M611.09,195.18v39.99h-11.51v-39.99H611.09z"/>
	<path d="M628.76,195.18v39.99h-11.51v-39.99H628.76z"/>
	<path d="M661.1,235.17h-11.19v-29.79h9.73v6.15c1.11-4.47,3.7-6.71,7.76-6.71c0.41,0,0.98,0.04,1.7,0.12v10.4
		c-0.82-0.19-1.55-0.29-2.2-0.29c-3.87,0-5.8,2.16-5.8,6.47V235.17z"/>
	<path d="M692.48,224.48l10.9,0.73c-0.64,2.93-2.29,5.42-4.94,7.49c-2.65,2.06-6.23,3.09-10.74,3.09c-5.02,0-9.02-1.45-12.01-4.35
		s-4.48-6.5-4.48-10.8c0-4.45,1.47-8.21,4.42-11.28c2.95-3.07,6.88-4.6,11.81-4.6c4.77,0,8.62,1.45,11.56,4.34
		c2.94,2.89,4.41,6.83,4.41,11.81c0,0.41-0.01,0.98-0.03,1.7h-19.95c0.04,1.88,0.37,3.27,1,4.17c0.63,0.91,1.82,1.36,3.57,1.36
		C690.53,228.14,692.03,226.92,692.48,224.48z M691.69,216.74c-0.02-2.01-0.42-3.36-1.21-4.06c-0.79-0.69-1.77-1.04-2.93-1.04
		c-2.76,0-4.15,1.7-4.15,5.1H691.69z"/>
	<path d="M726.37,205.38v7.59h-5.95v10.99c0,1.5,0.28,2.4,0.85,2.68c0.57,0.28,1.15,0.42,1.76,0.42c0.94,0,2.05-0.17,3.34-0.5v8.32
		c-2.3,0.45-4.57,0.67-6.8,0.67c-3.59,0-6.24-0.77-7.92-2.31c-1.69-1.54-2.53-4-2.53-7.38l0.03-3.49v-9.4h-4.45v-7.59h4.45l0.18-9.7
		l11.1-0.18v9.87H726.37z"/>
	<path d="M759.24,205.38v29.79h-10.81v-4.89c-1.58,3.67-4.67,5.51-9.26,5.51c-2.83,0-5.02-0.79-6.58-2.36
		c-1.55-1.57-2.33-3.82-2.33-6.75v-21.3h11.69v18.75c0,1.17,0.16,2,0.48,2.48c0.32,0.48,0.95,0.72,1.89,0.72
		c1,0,1.81-0.36,2.43-1.07c0.63-0.71,0.94-1.71,0.94-3v-17.87H759.24z"/>
	<path d="M776.59,235.17H765.4v-29.79h9.73v6.15c1.11-4.47,3.7-6.71,7.76-6.71c0.41,0,0.98,0.04,1.7,0.12v10.4
		c-0.82-0.19-1.55-0.29-2.2-0.29c-3.87,0-5.8,2.16-5.8,6.47V235.17z"/>
	<path d="M817.37,235.17h-11.69v-18.75c0-1.54-0.24-2.53-0.72-2.96c-0.48-0.43-1.08-0.64-1.8-0.64c-2.13,0-3.19,1.48-3.19,4.45v17.9
		h-11.69v-29.79h10.84v4.22c1.6-3.22,4.46-4.83,8.58-4.83c2.17,0,4,0.42,5.49,1.25c1.49,0.83,2.56,1.9,3.21,3.22
		s0.97,3.61,0.97,6.87V235.17z"/>
	<path d="M383.66,277.38v7.59h-5.95v10.99c0,1.5,0.28,2.4,0.85,2.68c0.57,0.28,1.15,0.42,1.76,0.42c0.94,0,2.05-0.17,3.34-0.5v8.32
		c-2.3,0.45-4.57,0.67-6.8,0.67c-3.59,0-6.24-0.77-7.92-2.31c-1.69-1.54-2.53-4-2.53-7.38l0.03-3.49v-9.4h-4.45v-7.59h4.45l0.18-9.7
		l11.1-0.18v9.87H383.66z"/>
	<path d="M416.82,307.17h-11.69v-17.93c0-1.64-0.18-2.77-0.54-3.38c-0.36-0.62-1.05-0.92-2.08-0.92c-0.8,0-1.49,0.24-2.08,0.72
		c-0.59,0.48-0.94,0.97-1.04,1.48c-0.1,0.51-0.15,1.57-0.15,3.19v16.85h-11.69v-39.99h11.69v13.71c2.11-2.75,4.86-4.13,8.26-4.13
		c1.72,0,3.23,0.3,4.53,0.89c1.3,0.6,2.3,1.36,3,2.3s1.18,1.85,1.42,2.72c0.24,0.88,0.37,2.58,0.37,5.1V307.17z"/>
	<path d="M442.69,296.48l10.9,0.73c-0.64,2.93-2.29,5.42-4.94,7.49c-2.65,2.06-6.23,3.09-10.74,3.09c-5.02,0-9.02-1.45-12.01-4.35
		s-4.48-6.5-4.48-10.8c0-4.45,1.47-8.21,4.42-11.28c2.95-3.07,6.88-4.6,11.81-4.6c4.77,0,8.62,1.45,11.56,4.34
		c2.94,2.89,4.41,6.83,4.41,11.81c0,0.41-0.01,0.98-0.03,1.7h-19.95c0.04,1.88,0.37,3.27,1,4.17c0.63,0.91,1.82,1.36,3.57,1.36
		C440.75,300.14,442.24,298.92,442.69,296.48z M441.9,288.74c-0.02-2.01-0.42-3.36-1.21-4.06c-0.79-0.69-1.77-1.04-2.93-1.04
		c-2.76,0-4.15,1.7-4.15,5.1H441.9z"/>
	<path d="M487.75,307.79c-4.94,0-8.87-1.54-11.78-4.61c-2.91-3.08-4.37-6.68-4.37-10.83c0-4.45,1.52-8.16,4.56-11.13
		c3.04-2.97,6.99-4.45,11.85-4.45c4.9,0,8.84,1.46,11.82,4.39c2.98,2.93,4.47,6.6,4.47,11.02c0,4.45-1.51,8.17-4.53,11.15
		C496.76,306.3,492.75,307.79,487.75,307.79z M487.93,300.7c1.82,0,2.92-0.94,3.33-2.83c0.4-1.88,0.6-3.85,0.6-5.9
		c0-2.79-0.28-4.8-0.85-6.04c-0.57-1.23-1.58-1.85-3.05-1.85c-1.35,0-2.33,0.63-2.96,1.9c-0.63,1.27-0.94,3.36-0.94,6.27
		c0,3.42,0.32,5.68,0.97,6.78C485.67,300.14,486.64,300.7,487.93,300.7z"/>
	<path d="M527.24,277.38v7.59h-5.95v10.99c0,1.5,0.28,2.4,0.85,2.68c0.57,0.28,1.15,0.42,1.76,0.42c0.94,0,2.05-0.17,3.34-0.5v8.32
		c-2.3,0.45-4.57,0.67-6.8,0.67c-3.59,0-6.24-0.77-7.92-2.31c-1.69-1.54-2.53-4-2.53-7.38l0.03-3.49v-9.4h-4.45v-7.59h4.45l0.18-9.7
		l11.1-0.18v9.87H527.24z"/>
	<path d="M560.41,307.17h-11.69v-17.93c0-1.64-0.18-2.77-0.54-3.38c-0.36-0.62-1.05-0.92-2.08-0.92c-0.8,0-1.49,0.24-2.08,0.72
		c-0.59,0.48-0.94,0.97-1.04,1.48c-0.1,0.51-0.15,1.57-0.15,3.19v16.85h-11.69v-39.99h11.69v13.71c2.11-2.75,4.86-4.13,8.26-4.13
		c1.72,0,3.23,0.3,4.53,0.89c1.3,0.6,2.3,1.36,3,2.3s1.18,1.85,1.42,2.72c0.24,0.88,0.37,2.58,0.37,5.1V307.17z"/>
	<path d="M586.28,296.48l10.9,0.73c-0.64,2.93-2.29,5.42-4.94,7.49c-2.65,2.06-6.23,3.09-10.74,3.09c-5.02,0-9.02-1.45-12.01-4.35
		s-4.48-6.5-4.48-10.8c0-4.45,1.47-8.21,4.42-11.28c2.95-3.07,6.88-4.6,11.81-4.6c4.77,0,8.62,1.45,11.56,4.34
		c2.94,2.89,4.41,6.83,4.41,11.81c0,0.41-0.01,0.98-0.03,1.7h-19.95c0.04,1.88,0.37,3.27,1,4.17c0.63,0.91,1.82,1.36,3.57,1.36
		C584.33,300.14,585.83,298.92,586.28,296.48z M585.48,288.74c-0.02-2.01-0.42-3.36-1.21-4.06c-0.79-0.69-1.77-1.04-2.93-1.04
		c-2.76,0-4.15,1.7-4.15,5.1H585.48z"/>
	<path d="M612.96,307.17h-11.19v-29.79h9.73v6.15c1.11-4.47,3.7-6.71,7.76-6.71c0.41,0,0.98,0.04,1.7,0.12v10.4
		c-0.82-0.19-1.55-0.29-2.2-0.29c-3.87,0-5.8,2.16-5.8,6.47V307.17z"/>
	<path d="M637.02,298.73l9.23-1.26c0.53,2.15,2.62,3.22,6.27,3.22c3.03,0,4.54-0.59,4.54-1.76c0-0.51-0.29-0.9-0.88-1.19
		c-0.59-0.28-1.97-0.57-4.16-0.86c-6.05-0.84-9.83-2.15-11.34-3.94c-1.5-1.79-2.26-3.77-2.26-5.96c0-3.05,1.27-5.51,3.81-7.4
		c2.54-1.88,5.87-2.83,9.99-2.83c7.23,0,11.84,2.61,13.83,7.82l-8.85,1.67c-0.82-1.76-2.55-2.64-5.19-2.64
		c-1.25,0-2.18,0.17-2.8,0.51c-0.62,0.34-0.92,0.68-0.92,1.01c0,0.98,0.94,1.57,2.81,1.78c4.88,0.54,8.19,1.09,9.93,1.66
		c1.74,0.57,3.22,1.6,4.45,3.11c1.23,1.5,1.85,3.32,1.85,5.45c0,3.26-1.36,5.85-4.09,7.77c-2.72,1.92-6.48,2.87-11.26,2.87
		C643.92,307.79,638.93,304.77,637.02,298.73z"/>
	<path d="M700.71,307.17h-11.69v-17.93c0-1.64-0.18-2.77-0.54-3.38c-0.36-0.62-1.05-0.92-2.08-0.92c-0.8,0-1.49,0.24-2.08,0.72
		c-0.59,0.48-0.94,0.97-1.04,1.48c-0.1,0.51-0.15,1.57-0.15,3.19v16.85h-11.69v-39.99h11.69v13.71c2.11-2.75,4.86-4.13,8.26-4.13
		c1.72,0,3.23,0.3,4.53,0.89c1.3,0.6,2.3,1.36,3,2.3s1.18,1.85,1.42,2.72c0.24,0.88,0.37,2.58,0.37,5.1V307.17z"/>
	<path d="M736.92,307.17h-11.13c-0.27-1.27-0.41-2.66-0.41-4.16c-2.11,3.18-5.3,4.78-9.58,4.78c-3.52,0-6.15-0.9-7.9-2.7
		c-1.75-1.8-2.62-3.86-2.62-6.18c0-3.14,1.43-5.69,4.29-7.63c2.86-1.94,7.93-3.11,15.22-3.5v-0.67c0-1.31-0.3-2.18-0.89-2.61
		c-0.6-0.43-1.47-0.64-2.62-0.64c-2.7,0-4.2,1.08-4.51,3.25l-10.66-1c1.52-6.23,6.71-9.35,15.56-9.35c2.4,0,4.61,0.24,6.62,0.72
		c2.01,0.48,3.6,1.23,4.78,2.24c1.17,1.02,1.96,2.09,2.36,3.22c0.4,1.13,0.6,3.31,0.6,6.53v11.89
		C736.01,303.64,736.31,305.57,736.92,307.17z M724.79,293.22c-4.98,0.53-7.47,2.12-7.47,4.78c0,1.8,0.99,2.7,2.96,2.7
		c1.25,0,2.31-0.37,3.19-1.11c0.88-0.74,1.32-2.38,1.32-4.92V293.22z"/>
	<path d="M754.67,284.96v22.21h-11.02v-22.21h-4.45v-7.59h4.45c0-2.46,0.11-4.28,0.32-5.46c0.21-1.18,0.75-2.31,1.61-3.4
		c0.86-1.08,2.01-1.91,3.46-2.49c1.45-0.58,3.39-0.86,5.83-0.86c2.62,0,5.13,0.21,7.53,0.62v7.65c-1.86-0.25-3.24-0.38-4.16-0.38
		c-0.92,0-1.76,0.19-2.52,0.56c-0.76,0.37-1.14,1.28-1.14,2.72v1.05h7.62v7.59H754.67z"/>
	<path d="M785.32,277.38v7.59h-5.95v10.99c0,1.5,0.28,2.4,0.85,2.68c0.57,0.28,1.15,0.42,1.76,0.42c0.94,0,2.05-0.17,3.34-0.5v8.32
		c-2.3,0.45-4.57,0.67-6.8,0.67c-3.59,0-6.24-0.77-7.92-2.31c-1.69-1.54-2.53-4-2.53-7.38l0.03-3.49v-9.4h-4.45v-7.59h4.45l0.18-9.7
		l11.1-0.18v9.87H785.32z"/>
	<path d="M815.9,265.92v9.26h-11.69v-9.26H815.9z M815.9,277.38v29.79h-11.69v-29.79H815.9z"/>
	<path d="M851.15,307.17h-11.69v-18.75c0-1.54-0.24-2.53-0.72-2.96c-0.48-0.43-1.08-0.64-1.8-0.64c-2.13,0-3.19,1.48-3.19,4.45v17.9
		h-11.69v-29.79h10.84v4.22c1.6-3.22,4.46-4.83,8.58-4.83c2.17,0,4,0.42,5.49,1.25c1.49,0.83,2.56,1.9,3.21,3.22
		s0.97,3.61,0.97,6.87V307.17z"/>
	<path d="M875.7,277.38v7.59h-5.95v10.99c0,1.5,0.28,2.4,0.85,2.68c0.57,0.28,1.15,0.42,1.76,0.42c0.94,0,2.05-0.17,3.34-0.5v8.32
		c-2.3,0.45-4.57,0.67-6.8,0.67c-3.59,0-6.24-0.77-7.92-2.31c-1.69-1.54-2.53-4-2.53-7.38l0.03-3.49v-9.4h-4.45v-7.59h4.45l0.18-9.7
		l11.1-0.18v9.87H875.7z"/>
	<path d="M894.16,307.79c-4.94,0-8.87-1.54-11.78-4.61c-2.91-3.08-4.37-6.68-4.37-10.83c0-4.45,1.52-8.16,4.56-11.13
		c3.04-2.97,6.99-4.45,11.85-4.45c4.9,0,8.84,1.46,11.82,4.39c2.98,2.93,4.47,6.6,4.47,11.02c0,4.45-1.51,8.17-4.53,11.15
		C903.17,306.3,899.16,307.79,894.16,307.79z M894.33,300.7c1.82,0,2.92-0.94,3.33-2.83c0.4-1.88,0.6-3.85,0.6-5.9
		c0-2.79-0.28-4.8-0.85-6.04c-0.57-1.23-1.58-1.85-3.05-1.85c-1.35,0-2.33,0.63-2.96,1.9c-0.63,1.27-0.94,3.36-0.94,6.27
		c0,3.42,0.32,5.68,0.97,6.78C892.08,300.14,893.04,300.7,894.33,300.7z"/>
	<path d="M925.97,296.54v9.81l-6.42,11.1h-4.6l4.6-10.28h-4.72v-10.63H925.97z"/>
</g>
<g>
	<path d="M446.29,444.17h-11.13c-0.27-1.27-0.41-2.66-0.41-4.16c-2.11,3.18-5.3,4.78-9.58,4.78c-3.52,0-6.15-0.9-7.9-2.7
		c-1.75-1.8-2.62-3.86-2.62-6.18c0-3.14,1.43-5.69,4.29-7.63c2.86-1.94,7.93-3.11,15.22-3.5v-0.67c0-1.31-0.3-2.18-0.89-2.61
		c-0.6-0.43-1.47-0.64-2.62-0.64c-2.7,0-4.2,1.08-4.51,3.25l-10.66-1c1.52-6.23,6.71-9.35,15.56-9.35c2.4,0,4.61,0.24,6.62,0.72
		c2.01,0.48,3.6,1.23,4.78,2.24s1.96,2.09,2.36,3.22c0.4,1.13,0.6,3.31,0.6,6.53v11.89C445.38,440.64,445.68,442.57,446.29,444.17z
		 M434.16,430.23c-4.98,0.53-7.47,2.12-7.47,4.78c0,1.8,0.99,2.7,2.96,2.7c1.25,0,2.31-0.37,3.19-1.11s1.32-2.38,1.32-4.92V430.23z"
		/>
	<path d="M462.64,444.17h-11.19v-29.79h9.73v6.15c1.11-4.47,3.7-6.71,7.76-6.71c0.41,0,0.98,0.04,1.7,0.12v10.4
		c-0.82-0.2-1.55-0.29-2.2-0.29c-3.87,0-5.8,2.16-5.8,6.47V444.17z"/>
	<path d="M494.01,433.48l10.9,0.73c-0.64,2.93-2.29,5.42-4.94,7.49c-2.65,2.06-6.23,3.09-10.74,3.09c-5.02,0-9.02-1.45-12.01-4.35
		s-4.48-6.5-4.48-10.8c0-4.45,1.47-8.21,4.42-11.28c2.95-3.07,6.88-4.6,11.81-4.6c4.77,0,8.62,1.45,11.56,4.34
		c2.94,2.89,4.41,6.83,4.41,11.81c0,0.41-0.01,0.98-0.03,1.7h-19.95c0.04,1.88,0.37,3.27,1,4.17c0.63,0.91,1.82,1.36,3.57,1.36
		C492.07,437.14,493.56,435.92,494.01,433.48z M493.22,425.74c-0.02-2.01-0.42-3.36-1.21-4.06c-0.79-0.69-1.77-1.04-2.93-1.04
		c-2.76,0-4.15,1.7-4.15,5.1H493.22z"/>
	<path d="M553.6,444.17h-10.96v-3.96c-1.62,3.05-4.3,4.57-8.03,4.57c-3.44,0-6.23-1.34-8.36-4.03s-3.21-6.59-3.21-11.7
		c0-4.79,1.07-8.58,3.22-11.4c2.15-2.81,4.99-4.22,8.53-4.22c2.95,0,5.38,1.12,7.29,3.37v-12.63h11.51V444.17z M542.09,425.01
		c0-2.68-1.1-4.01-3.31-4.01c-1.54,0-2.55,0.85-3.03,2.55c-0.48,1.7-0.72,3.78-0.72,6.24c0,4.82,1.23,7.24,3.69,7.24
		c0.94,0,1.73-0.38,2.39-1.14c0.65-0.76,0.98-1.92,0.98-3.49V425.01z"/>
	<path d="M574.32,444.79c-4.94,0-8.87-1.54-11.78-4.61c-2.91-3.08-4.37-6.68-4.37-10.83c0-4.45,1.52-8.16,4.56-11.13
		c3.04-2.97,6.99-4.45,11.85-4.45c4.9,0,8.84,1.46,11.82,4.39c2.98,2.93,4.47,6.6,4.47,11.02c0,4.45-1.51,8.17-4.53,11.15
		S579.32,444.79,574.32,444.79z M574.49,437.7c1.82,0,2.92-0.94,3.33-2.83c0.4-1.88,0.6-3.85,0.6-5.9c0-2.79-0.28-4.8-0.85-6.04
		c-0.57-1.23-1.58-1.85-3.05-1.85c-1.35,0-2.33,0.63-2.96,1.9c-0.63,1.27-0.94,3.36-0.94,6.27c0,3.42,0.32,5.68,0.97,6.78
		S573.2,437.7,574.49,437.7z"/>
	<path d="M624.5,444.17h-11.69v-18.75c0-1.54-0.24-2.53-0.72-2.96c-0.48-0.43-1.08-0.64-1.8-0.64c-2.13,0-3.19,1.48-3.19,4.45v17.9
		h-11.69v-29.79h10.84v4.22c1.6-3.22,4.46-4.83,8.58-4.83c2.17,0,4,0.42,5.49,1.25s2.56,1.9,3.21,3.22s0.97,3.61,0.97,6.87V444.17z"
		/>
	<path d="M650.34,433.48l10.9,0.73c-0.64,2.93-2.29,5.42-4.94,7.49c-2.65,2.06-6.23,3.09-10.74,3.09c-5.02,0-9.02-1.45-12.01-4.35
		s-4.48-6.5-4.48-10.8c0-4.45,1.47-8.21,4.42-11.28c2.95-3.07,6.88-4.6,11.81-4.6c4.77,0,8.62,1.45,11.56,4.34
		c2.94,2.89,4.41,6.83,4.41,11.81c0,0.41-0.01,0.98-0.03,1.7h-19.95c0.04,1.88,0.37,3.27,1,4.17c0.63,0.91,1.82,1.36,3.57,1.36
		C648.4,437.14,649.89,435.92,650.34,433.48z M649.55,425.74c-0.02-2.01-0.42-3.36-1.21-4.06c-0.79-0.69-1.77-1.04-2.93-1.04
		c-2.76,0-4.15,1.7-4.15,5.1H649.55z"/>
	<path d="M721.91,414.38l-9.43,29.79h-8.41l-3.9-16.14l-4.07,16.14h-8.32l-9.61-29.79h11.48l3.93,14.59l3.75-14.59h8.65l3.69,14.58
		l4.12-14.58H721.91z"/>
	<path d="M739.11,444.79c-4.94,0-8.87-1.54-11.78-4.61c-2.91-3.08-4.37-6.68-4.37-10.83c0-4.45,1.52-8.16,4.56-11.13
		c3.04-2.97,6.99-4.45,11.85-4.45c4.9,0,8.84,1.46,11.82,4.39c2.98,2.93,4.47,6.6,4.47,11.02c0,4.45-1.51,8.17-4.53,11.15
		S744.11,444.79,739.11,444.79z M739.29,437.7c1.82,0,2.92-0.94,3.33-2.83c0.4-1.88,0.6-3.85,0.6-5.9c0-2.79-0.28-4.8-0.85-6.04
		c-0.57-1.23-1.58-1.85-3.05-1.85c-1.35,0-2.33,0.63-2.96,1.9c-0.63,1.27-0.94,3.36-0.94,6.27c0,3.42,0.32,5.68,0.97,6.78
		S738,437.7,739.29,437.7z"/>
	<path d="M771.4,444.17h-11.19v-29.79h9.73v6.15c1.11-4.47,3.7-6.71,7.76-6.71c0.41,0,0.98,0.04,1.7,0.12v10.4
		c-0.82-0.2-1.55-0.29-2.2-0.29c-3.87,0-5.8,2.16-5.8,6.47V444.17z"/>
	<path d="M813.88,414.38l-9,10.24l10.03,19.56h-12.08l-5.59-11.93l-3.19,3.73v8.2h-10.96v-39.99h10.96v16.14
		c0,0.45-0.03,2.25-0.09,5.39c0.7-1,1.42-1.9,2.14-2.72l7.48-8.61H813.88z"/>
	<path d="M457.33,486.38l-9.43,29.79h-8.41l-3.9-16.14l-4.07,16.14h-8.32l-9.61-29.79h11.48l3.93,14.59l3.75-14.59h8.65l3.69,14.58
		l4.12-14.58H457.33z"/>
	<path d="M472.51,474.92v9.26h-11.69v-9.26H472.51z M472.51,486.38v29.79h-11.69v-29.79H472.51z"/>
	<path d="M497.06,486.38v7.59h-5.95v10.99c0,1.5,0.28,2.4,0.85,2.68c0.57,0.28,1.15,0.42,1.76,0.42c0.94,0,2.05-0.17,3.34-0.5v8.32
		c-2.3,0.45-4.57,0.67-6.8,0.67c-3.59,0-6.24-0.77-7.92-2.31c-1.69-1.54-2.53-4-2.53-7.38l0.03-3.49v-9.4h-4.45v-7.59h4.45l0.18-9.7
		l11.1-0.18v9.87H497.06z"/>
	<path d="M530.22,516.17h-11.69v-17.93c0-1.64-0.18-2.77-0.54-3.38c-0.36-0.62-1.05-0.92-2.08-0.92c-0.8,0-1.49,0.24-2.08,0.72
		s-0.94,0.97-1.04,1.48s-0.15,1.57-0.15,3.19v16.85h-11.69v-39.99h11.69v13.71c2.11-2.75,4.86-4.13,8.26-4.13
		c1.72,0,3.23,0.3,4.53,0.89c1.3,0.6,2.3,1.36,3,2.3s1.18,1.85,1.42,2.72c0.24,0.88,0.37,2.58,0.37,5.1V516.17z"/>
	<path d="M569.8,486.38v7.59h-5.95v10.99c0,1.5,0.28,2.4,0.85,2.68c0.57,0.28,1.15,0.42,1.76,0.42c0.94,0,2.05-0.17,3.34-0.5v8.32
		c-2.3,0.45-4.57,0.67-6.8,0.67c-3.59,0-6.24-0.77-7.92-2.31c-1.69-1.54-2.53-4-2.53-7.38l0.03-3.49v-9.4h-4.45v-7.59h4.45l0.18-9.7
		l11.1-0.18v9.87H569.8z"/>
	<path d="M584.89,516.17H573.7v-29.79h9.73v6.15c1.11-4.47,3.7-6.71,7.76-6.71c0.41,0,0.98,0.04,1.7,0.12v10.4
		c-0.82-0.2-1.55-0.29-2.2-0.29c-3.87,0-5.8,2.16-5.8,6.47V516.17z"/>
	<path d="M625.56,486.38v29.79h-10.81v-4.89c-1.58,3.67-4.67,5.51-9.26,5.51c-2.83,0-5.02-0.79-6.58-2.36s-2.33-3.82-2.33-6.75
		v-21.3h11.69v18.75c0,1.17,0.16,2,0.48,2.48s0.95,0.72,1.89,0.72c1,0,1.81-0.36,2.43-1.07c0.63-0.71,0.94-1.71,0.94-3v-17.87
		H625.56z"/>
	<path d="M651.4,505.48l10.9,0.73c-0.64,2.93-2.29,5.42-4.94,7.49c-2.65,2.06-6.23,3.09-10.74,3.09c-5.02,0-9.02-1.45-12.01-4.35
		s-4.48-6.5-4.48-10.8c0-4.45,1.47-8.21,4.42-11.28c2.95-3.07,6.88-4.6,11.81-4.6c4.77,0,8.62,1.45,11.56,4.34
		c2.94,2.89,4.41,6.83,4.41,11.81c0,0.41-0.01,0.98-0.03,1.7h-19.95c0.04,1.88,0.37,3.27,1,4.17c0.63,0.91,1.82,1.36,3.57,1.36
		C649.45,509.14,650.95,507.92,651.4,505.48z M650.61,497.74c-0.02-2.01-0.42-3.36-1.21-4.06c-0.79-0.69-1.77-1.04-2.93-1.04
		c-2.76,0-4.15,1.7-4.15,5.1H650.61z"/>
	<path d="M693.58,525.58h-11.69v-39.2h10.75v4.22c1.5-3.22,4.31-4.83,8.41-4.83c3.55,0,6.34,1.38,8.35,4.15
		c2.01,2.76,3.02,6.53,3.02,11.29s-1.03,8.55-3.09,11.37c-2.06,2.81-4.78,4.22-8.16,4.22c-3.32,0-5.85-1.27-7.59-3.81V525.58z
		 M693.58,505.27c0,1.33,0.3,2.36,0.91,3.09c0.6,0.73,1.36,1.1,2.26,1.1c1.41,0,2.37-0.65,2.9-1.95s0.79-3.3,0.79-5.99
		c0-3.11-0.3-5.29-0.91-6.55c-0.61-1.26-1.51-1.89-2.72-1.89c-0.72,0-1.44,0.28-2.15,0.85c-0.71,0.57-1.07,1.49-1.07,2.78V505.27z"
		/>
	<path d="M731.64,516.79c-4.94,0-8.87-1.54-11.78-4.61c-2.91-3.08-4.37-6.68-4.37-10.83c0-4.45,1.52-8.16,4.56-11.13
		c3.04-2.97,6.99-4.45,11.85-4.45c4.9,0,8.84,1.46,11.82,4.39c2.98,2.93,4.47,6.6,4.47,11.02c0,4.45-1.51,8.17-4.53,11.15
		S736.64,516.79,731.64,516.79z M731.82,509.7c1.82,0,2.92-0.94,3.33-2.83c0.4-1.88,0.6-3.85,0.6-5.9c0-2.79-0.28-4.8-0.85-6.04
		c-0.57-1.23-1.58-1.85-3.05-1.85c-1.35,0-2.33,0.63-2.96,1.9c-0.63,1.27-0.94,3.36-0.94,6.27c0,3.42,0.32,5.68,0.97,6.78
		S730.53,509.7,731.82,509.7z"/>
	<path d="M792.96,486.38l-9.43,29.79h-8.41l-3.9-16.14l-4.07,16.14h-8.32l-9.61-29.79h11.48l3.93,14.59l3.75-14.59h8.65l3.69,14.58
		l4.12-14.58H792.96z"/>
	<path d="M815.28,505.48l10.9,0.73c-0.64,2.93-2.29,5.42-4.94,7.49c-2.65,2.06-6.23,3.09-10.74,3.09c-5.02,0-9.02-1.45-12.01-4.35
		s-4.48-6.5-4.48-10.8c0-4.45,1.47-8.21,4.42-11.28c2.95-3.07,6.88-4.6,11.81-4.6c4.77,0,8.62,1.45,11.56,4.34
		c2.94,2.89,4.41,6.83,4.41,11.81c0,0.41-0.01,0.98-0.03,1.7h-19.95c0.04,1.88,0.37,3.27,1,4.17c0.63,0.91,1.82,1.36,3.57,1.36
		C813.34,509.14,814.83,507.92,815.28,505.48z M814.49,497.74c-0.02-2.01-0.42-3.36-1.21-4.06c-0.79-0.69-1.77-1.04-2.93-1.04
		c-2.76,0-4.15,1.7-4.15,5.1H814.49z"/>
	<path d="M841.97,516.17h-11.19v-29.79h9.73v6.15c1.11-4.47,3.7-6.71,7.76-6.71c0.41,0,0.98,0.04,1.7,0.12v10.4
		c-0.82-0.2-1.55-0.29-2.2-0.29c-3.87,0-5.8,2.16-5.8,6.47V516.17z"/>
</g>
</svg>
