<?xml version="1.0" encoding="utf-8"?>
<!-- Generator: Adobe Illustrator 23.0.5, SVG Export Plug-In . SVG Version: 6.00 Build 0)  -->
<svg version="1.1" xmlns="http://www.w3.org/2000/svg" xmlns:xlink="http://www.w3.org/1999/xlink" x="0px" y="0px"
	 viewBox="0 0 1920 1080" style="enable-background:new 0 0 1920 1080;" xml:space="preserve">
<style type="text/css">
	.st0{fill:#EB7976;}
	.st1{fill:#280A0C;}
	.st2{fill:#F5E9DB;stroke:#42210B;stroke-miterlimit:10;}
	.st3{fill:#7C4F86;}
	.st4{fill:#EDD0A9;}
	.st5{fill:none;stroke:#C88F60;stroke-width:2;stroke-miterlimit:10;}
	.st6{fill:#E8B05D;}
	.st7{fill:none;stroke:#42210B;stroke-miterlimit:10;}
	.st8{fill:none;}
</style>
<g id="圖層_1">
</g>
<g id="圖層_2">
	<g>
		<path class="st0" d="M1726.22,974.14c-1.75,20.66-19.82,35.97-40.36,34.2c-77.2-6.65-180.27-14.9-301.4-22.83
			c-334.69-21.92-528.25-33.98-771.73-19.94c-89.42,5.15-213.8,15.45-363.02,38.24c-21.41,3.27-41.1-12.39-42.82-34.11
			c-18.34-231.06-36.68-462.11-55.02-693.17c-1.58-19.86,12.54-37.49,32.16-40.17c80.8-11.06,191.81-21.8,323.47-21.02
			c215.91,1.28,249.84,32.16,459.07,33.75c189.02,1.44,221.52-23.31,471.27-32.22c128.7-4.59,236.77-2.18,313.48,1.17
			c21.19,0.93,37.34,19.42,35.54,40.68C1766.65,497.2,1746.43,735.67,1726.22,974.14z"/>
		<path class="st1" d="M1050.45,993.18H882.68v-39.89c11.79-8.28,44.77-29.11,91.51-29.15c40.3-0.03,69.76,15.41,82.36,23.01
			C1054.52,962.5,1052.48,977.84,1050.45,993.18z"/>
		<path class="st2" d="M1731.95,284.24c-0.14-7.99-1.69-16.25,0.92-23.8c-14.14-5.71-17.11-25.82-30.31-33.47
			c-2.35-1.36-5.14-2.45-6.36-4.9c-1.07-2.15-0.58-4.74-1.04-7.1c-2.13-10.99-22.03-11.57-22.54-22.76
			c-0.13-2.75,1.09-5.75-0.27-8.14c-1.75-3.1-6.21-2.77-9.48-4.14c-8.26-3.44-6.8-15.74-11.36-23.47
			c-3.03-5.14-9.27-8.17-15.16-7.37c-4.37,0.6-8.36,3.28-10.76,6.98l0.07-0.16c-14.95,18.48-20.91,43.01-21.08,66.84
			c-0.09,12.62,1.33,25.14,3.43,37.59c-433.41,1.74-866.83,3.48-1300.24,5.23c-0.33-26.04-2.62-51.96-8.77-77.21
			c-1.52-6.23-3.39-12.64-7.67-17.4s-11.63-7.31-17.22-4.23c-5.38,2.97-7.24,9.68-8.6,15.7c-4.67-0.28-8.82,3.46-10.64,7.8
			c-1.82,4.34-1.85,9.19-2.01,13.89c-0.04,1.17-0.14,2.47-0.96,3.3c-1.04,1.05-2.71,0.92-4.17,1.1c-7.8,1.01-9.74,11.12-12.68,18.46
			c-2.28,5.7-6.26,10.7-11.29,14.18c-7.21-0.5-11.76,8.3-11.14,15.54c0.41,4.82,2.16,9.4,3.45,14.07
			c-5.82,4.57-9.4,11.86-8.84,19.89c15.13,214.94,30.25,429.87,45.38,644.81c0.92,13.08,12.44,22.79,25.41,21.39
			c86.25-9.32,183.26-19.28,291.99-29.64c50.67-4.83,106.57-9.93,181.49-6.14c55.71,2.82,101.85,9.55,134.21,15.34
			c11.66-6.98,28.08-14.98,48.8-19.94c5.22-1.25,23.32-5.32,47.28-4.6c11.58,0.35,24.79,0.75,41.18,6.14
			c15.95,5.25,27.72,12.86,35.08,18.41c24.07-3.51,61.22-8.19,106.76-10.74c79.17-4.43,145.86-0.31,362.99,24.55
			c35.57,4.07,80.05,9.26,131.52,15.49c13.07,1.58,24.81-8.17,25.72-21.39c14.84-215.51,29.68-431.02,44.52-646.53
			C1731.4,293.69,1732.03,288.79,1731.95,284.24z M216.27,267.34c0.16,0.96,0.34,1.92,0.51,2.88c-0.06,0.04-0.11,0.09-0.17,0.13
			L216.27,267.34z"/>
		<path class="st3" d="M1601.67,800.79c-1.12,20.21-19.76,34.7-39.5,30.75c-111.56-22.28-278.37-35.05-452.24,34.3
			c-34.51,13.77-65.99,29.45-94.56,46.03c-8.71-2.12-19.54-4.01-32.03-4.6c-12.37-0.58-23.22,0.27-32.03,1.53
			c-40.6-20.83-87.39-40.75-140.31-56.77c-169.36-51.27-322.5-38.71-426.09-18.48c-19.28,3.77-37.53-10.21-39.16-29.9
			c-18.44-222.17-36.89-444.34-55.33-666.51c-1.45-17.47,10.83-33.09,28.06-35.66c88.36-13.21,162.96-15.68,217.99-15.02
			c116.24,1.4,238.7,4.22,367.56,72.11c34.44,18.14,60.88,36.48,77.78,49.09c30.87-23.82,77.89-55.6,140.31-81.31
			c123.09-50.7,234.29-48.27,337.06-46.03c39.51,0.86,91.07,3.82,151.46,12.3c17,2.39,29.32,17.54,28.36,34.78
			C1626.56,351.87,1614.11,576.33,1601.67,800.79z"/>
		<path class="st4" d="M960.01,840.29c0.2,9.1-8.88,15.45-17.28,12.08c-56.53-22.73-131.5-46.42-221.72-58.63
			c-105.23-14.24-194.91-7.94-259.28,1.53c-1.4-6.3-7.22-29.01-28.98-46.03c-21.94-17.15-45.49-17.1-51.86-16.88
			c-13.22-174.39-26.44-348.78-39.65-523.16c7.3-1.75,24.75-7,39.65-23.01c20-21.5,21.23-47.17,21.35-53.7
			c59.75-8.93,145.62-15.84,247.08-3.07c135.74,17.09,228.77,22.88,282.15,88.98c41.47,51.35,33.44,105.03,28.98,282.29
			C958.34,585.22,956.94,700.86,960.01,840.29z"/>
		<path class="st4" d="M996.68,840.29c-0.2,9.1,8.88,15.45,17.28,12.08c56.53-22.73,131.5-46.42,221.72-58.63
			c105.23-14.24,194.91-7.94,259.28,1.53c1.4-6.3,7.22-29.01,28.98-46.03c21.94-17.15,45.49-17.1,51.86-16.88
			c13.22-174.39,26.44-348.78,39.65-523.16c-7.3-1.75-24.75-7-39.65-23.01c-20-21.5-21.23-47.17-21.35-53.7
			c-59.75-8.93-145.62-15.84-247.08-3.07c-135.74,17.09-228.77,22.88-282.15,88.98c-41.47,51.35-33.44,105.03-28.98,282.29
			C998.35,585.22,999.75,700.86,996.68,840.29z"/>
		<path class="st5" d="M390.06,364.16c65.57-15.14,161.88-29.65,277.58-19.94c109.83,9.22,198.43,37.01,259.28,61.37"/>
		<path class="st5" d="M405.31,580.48c68.52-15.3,166-29.15,282.15-19.94c97.99,7.76,179.36,29.55,239.45,50.63"/>
		<path class="st5" d="M1559.85,354.95c-65.57-15.14-161.88-29.65-277.58-19.94c-109.83,9.22-198.43,37.01-259.28,61.37"/>
		<path class="st5" d="M1544.6,571.27c-68.52-15.3-166-29.15-282.15-19.94c-97.99,7.76-179.36,29.55-239.45,50.63"/>
		<g>
			<path class="st6" d="M341.03,176.42c-2.55-0.86-2.59-5.01-0.37-6.53s5.41-0.73,7.39,1.1c4.51,4.14,3.28,12.45-1.75,15.93
				c-5.03,3.48-12.34,2.32-16.89-1.76c-4.55-4.09-6.56-10.49-6.44-16.63c0.05-2.77,0.56-5.67,2.32-7.81c4.5-5.45,14.03-2.9,19.3-7.6
				c-4.03-4.05-8.06-8.09-12.09-12.14c-2.06-2.07-4.17-4.22-5.24-6.94c-1.07-2.72-0.82-6.19,1.38-8.11c1.38-1.21,3.28-1.62,5.1-1.88
				c7.2-1,14.64-0.19,21.47,2.33c0.12,1.4-1.48,2.35-2.88,2.39c-1.4,0.04-2.79-0.46-4.17-0.25c-3.25,0.48-4.78,4.67-3.85,7.84
				c0.92,3.17,3.43,5.57,5.62,8.04c3.36,3.8,6.23,8.15,10.37,11.07c4.14,2.92,10.16,4,14.1,0.82c3.73-3.01,4.21-8.53,3.7-13.31
				c-0.3-2.82-1.35-6.17-4.1-6.79c-1.37-0.31-2.85,0.19-4.2-0.19c-2.85-0.8-3.25-5.15-1.25-7.35c2-2.2,5.23-2.68,8.19-2.7
				c2.25-0.02,4.57,0.17,6.58,1.17c3.41,1.69,5.35,5.37,6.7,8.94c3.74,9.88,4.44,21.76-1.61,30.4s-20.3,11.37-27.13,3.34
				c-1.31-1.54-2.29-3.36-3.74-4.77c-2.94-2.85-7.33-3.56-11.42-3.55c-2.95,0.01-6,0.35-8.53,1.87c-2.53,1.52-4.38,4.49-3.85,7.4
				c0.53,2.92,4.04,5.11,6.63,3.7c1.37-0.75,2.3-2.3,3.83-2.64c3.22-0.71,4.55,4.01,4.37,7.32"/>
		</g>
		<g>
			<path class="st6" d="M388.31,751.41c-2.55,0.86-2.59,5.01-0.37,6.53c2.22,1.52,5.41,0.73,7.39-1.1
				c4.51-4.14,3.28-12.45-1.75-15.93s-12.34-2.32-16.89,1.76s-6.56,10.49-6.44,16.63c0.05,2.77,0.56,5.67,2.32,7.81
				c4.5,5.45,14.03,2.9,19.3,7.59c-4.03,4.05-8.06,8.09-12.09,12.14c-2.06,2.07-4.17,4.22-5.24,6.94c-1.07,2.72-0.82,6.19,1.38,8.11
				c1.38,1.21,3.28,1.62,5.1,1.88c7.2,1,14.64,0.19,21.47-2.33c0.12-1.4-1.48-2.35-2.88-2.39s-2.79,0.46-4.17,0.25
				c-3.25-0.48-4.78-4.67-3.85-7.84c0.92-3.17,3.43-5.57,5.62-8.04c3.36-3.8,6.23-8.15,10.37-11.07c4.14-2.92,10.16-4,14.1-0.82
				c3.73,3.01,4.21,8.53,3.7,13.31c-0.3,2.82-1.35,6.17-4.1,6.79c-1.37,0.31-2.85-0.19-4.2,0.19c-2.85,0.8-3.25,5.15-1.25,7.35
				c2,2.2,5.23,2.68,8.19,2.7c2.25,0.02,4.57-0.17,6.58-1.17c3.41-1.69,5.35-5.37,6.7-8.94c3.74-9.88,4.44-21.76-1.61-30.4
				c-6.05-8.64-20.3-11.37-27.13-3.34c-1.31,1.54-2.29,3.36-3.74,4.77c-2.94,2.85-7.33,3.56-11.42,3.55c-2.95-0.01-6-0.35-8.53-1.87
				c-2.53-1.52-4.38-4.49-3.85-7.4s4.04-5.11,6.63-3.7c1.37,0.75,2.3,2.3,3.83,2.64c3.22,0.71,4.55-4.01,4.37-7.32"/>
		</g>
		<g>
			<path class="st6" d="M1614.6,173.81c2.39-0.72,2.43-4.21,0.35-5.49c-2.08-1.28-5.07-0.61-6.93,0.92
				c-4.23,3.48-3.08,10.47,1.64,13.4c4.71,2.93,11.57,1.96,15.84-1.48c4.27-3.44,6.15-8.82,6.04-13.98
				c-0.05-2.33-0.53-4.77-2.18-6.56c-4.22-4.59-13.15-2.44-18.1-6.39c3.78-3.4,7.55-6.81,11.33-10.21c1.93-1.74,3.91-3.55,4.91-5.83
				c1-2.29,0.77-5.21-1.29-6.82c-1.3-1.02-3.08-1.37-4.78-1.58c-6.75-0.84-13.73-0.16-20.13,1.96c-0.12,1.18,1.39,1.98,2.7,2.01
				c1.31,0.03,2.61-0.38,3.91-0.21c3.05,0.4,4.48,3.93,3.61,6.59c-0.87,2.67-3.22,4.69-5.27,6.76c-3.15,3.19-5.84,6.85-9.72,9.31
				c-3.88,2.45-9.53,3.37-13.22,0.69c-3.5-2.53-3.95-7.17-3.47-11.19c0.28-2.37,1.26-5.19,3.84-5.71c1.29-0.26,2.67,0.16,3.94-0.16
				c2.67-0.67,3.05-4.33,1.18-6.18c-1.87-1.85-4.91-2.25-7.68-2.27c-2.11-0.01-4.28,0.14-6.17,0.98c-3.2,1.42-5.01,4.51-6.28,7.52
				c-3.51,8.3-4.16,18.3,1.51,25.57c5.67,7.27,19.03,9.56,25.43,2.81c1.23-1.3,2.15-2.83,3.51-4.01c2.76-2.4,6.88-2.99,10.71-2.98
				c2.76,0.01,5.63,0.29,8,1.57c2.37,1.28,4.11,3.77,3.61,6.22c-0.5,2.45-3.79,4.3-6.22,3.11c-1.29-0.63-2.16-1.93-3.59-2.22
				c-3.02-0.6-4.26,3.37-4.1,6.16"/>
		</g>
		<g>
			<path class="st6" d="M1559.69,764.4c2.39,0.72,2.43,4.21,0.35,5.49c-2.08,1.28-5.07,0.61-6.93-0.92
				c-4.23-3.48-3.08-10.47,1.64-13.4c4.71-2.93,11.57-1.96,15.84,1.48c4.27,3.44,6.15,8.82,6.04,13.98
				c-0.05,2.33-0.53,4.77-2.18,6.56c-4.22,4.59-13.15,2.44-18.1,6.39c3.78,3.4,7.55,6.81,11.33,10.21c1.93,1.74,3.91,3.55,4.91,5.83
				c1,2.29,0.77,5.21-1.29,6.82c-1.3,1.02-3.08,1.37-4.78,1.58c-6.75,0.84-13.73,0.16-20.13-1.96c-0.12-1.18,1.39-1.98,2.7-2.01
				c1.31-0.03,2.61,0.38,3.91,0.21c3.05-0.4,4.48-3.93,3.61-6.59c-0.87-2.67-3.22-4.69-5.27-6.76c-3.15-3.19-5.84-6.85-9.72-9.31
				c-3.88-2.45-9.53-3.37-13.22-0.69c-3.5,2.53-3.95,7.17-3.47,11.19c0.28,2.37,1.26,5.19,3.84,5.71c1.29,0.26,2.67-0.16,3.94,0.16
				c2.67,0.67,3.05,4.33,1.18,6.18c-1.87,1.85-4.91,2.25-7.68,2.27c-2.11,0.01-4.28-0.14-6.17-0.98c-3.2-1.42-5.01-4.51-6.28-7.52
				c-3.51-8.3-4.16-18.3,1.51-25.57c5.67-7.27,19.03-9.56,25.43-2.81c1.23,1.3,2.15,2.83,3.51,4.01c2.76,2.4,6.88,2.99,10.71,2.98
				c2.76-0.01,5.63-0.29,8-1.57c2.37-1.28,4.11-3.77,3.61-6.22c-0.5-2.45-3.79-4.3-6.22-3.11c-1.29,0.63-2.16,1.93-3.59,2.22
				c-3.02,0.6-4.26-3.37-4.1-6.16"/>
		</g>
		<line class="st7" x1="215.43" y1="263.67" x2="270.33" y2="929.51"/>
		<path class="st7" d="M270.33,929.51c2,5.09,5.95,12.79,13.73,16.88c13.11,6.89,29.3-0.55,35.08-3.07
			c14.65-6.4,65.18-15.51,166.24-33.75c14.16-2.56,36.31-6.2,64.06-9.21"/>
		<line class="st7" x1="231.44" y1="259.83" x2="295.5" y2="919.54"/>
		<line class="st7" x1="254.32" y1="233.75" x2="302.36" y2="723.93"/>
		<line class="st7" x1="309.99" y1="610.4" x2="338.96" y2="900.36"/>
		<line class="st7" x1="276.43" y1="228.38" x2="305.41" y2="518.34"/>
		<path class="st7" d="M409.88,861.24c66.79-9.05,152.03-14.56,250.13-6.14c91.75,7.88,170.09,25.84,231.82,44.49"/>
		<path class="st7" d="M414.46,884.25c53.47-7.01,115.85-11.53,185.34-9.85c56.84,1.38,108.5,6.67,154,13.68"/>
		<line class="st7" x1="1715.42" y1="249.86" x2="1660.51" y2="915.7"/>
		<line class="st7" x1="1699.4" y1="246.02" x2="1635.35" y2="905.73"/>
		<line class="st7" x1="1672.74" y1="219.6" x2="1632.27" y2="710.47"/>
		<path class="st7" d="M1577.39,861.24c-66.79-9.05-152.03-14.56-250.13-6.14c-91.75,7.88-170.09,25.84-231.82,44.49"/>
		<path class="st7" d="M1516.38,902.66c-53.47-7.01-115.85-11.53-185.34-9.85c-56.84,1.38-108.5,6.67-154,13.68"/>
		<path class="st0" d="M1070.28,987.04c-14.51,8.8-55.35,30.95-111.34,27.62c-56.73-3.38-95.03-30.92-108.29-41.42
			c-11.66-13.25-9.41-29.97-1.53-35.29c5.63-3.8,15-2.36,22.88,3.07c3.89,5.7,33.95,48.16,88.46,52.16
			c43.59,3.2,86.01-19.43,109.81-58.3c9.77-4.49,13.72-2.66,15.25-1.53c7.37,5.42,1.69,26.02-4.58,38.36
			C1077.4,978.69,1073.27,983.79,1070.28,987.04z"/>
	</g>
	<g>
		<path d="M1053.12,645.63c2.38-1.64,5.09-4.29,5.09-7.79c-0.58,0.32-1.11,0.53-1.75,0.53c-2.33,0-3.82-1.7-3.82-3.5
			c0-2.07,1.27-3.82,3.82-3.82c2.07,0,4.56,1.33,4.56,5.3c0,4.24-2.97,7.58-7.1,10.39L1053.12,645.63z"/>
		<path d="M1099.34,658.53c-4.37,0-7.83-1.36-10.4-4.08c-2.57-2.72-3.86-5.9-3.86-9.56c0-3.93,1.34-7.21,4.02-9.83
			c2.68-2.62,6.17-3.93,10.47-3.93c4.33,0,7.81,1.29,10.44,3.88s3.95,5.83,3.95,9.73c0,3.93-1.33,7.22-4,9.85
			C1107.3,657.21,1103.75,658.53,1099.34,658.53z M1099.49,652.26c1.6,0,2.58-0.83,2.94-2.5c0.35-1.67,0.53-3.4,0.53-5.21
			c0-2.47-0.25-4.24-0.75-5.33s-1.4-1.63-2.69-1.63c-1.19,0-2.06,0.56-2.61,1.68c-0.55,1.12-0.83,2.97-0.83,5.54
			c0,3.02,0.28,5.02,0.85,5.99S1098.36,652.26,1099.49,652.26z"/>
		<path d="M1134.12,631.66v6.7h-5.25v9.71c0,1.33,0.25,2.12,0.75,2.37c0.5,0.25,1.02,0.38,1.55,0.38c0.83,0,1.81-0.15,2.95-0.44
			v7.35c-2.04,0.4-4.04,0.6-6,0.6c-3.17,0-5.51-0.68-7-2.04c-1.49-1.36-2.24-3.54-2.24-6.52l0.03-3.08v-8.31h-3.93v-6.7h3.93
			l0.16-8.57l9.81-0.16v8.72H1134.12z"/>
		<path d="M1163.15,657.98h-10.33v-16.56c0-1.36-0.21-2.23-0.63-2.61c-0.42-0.38-0.95-0.57-1.59-0.57c-1.88,0-2.82,1.31-2.82,3.93
			v15.81h-10.33v-26.32h9.58v3.73c1.42-2.85,3.94-4.27,7.58-4.27c1.91,0,3.53,0.37,4.85,1.1c1.32,0.73,2.26,1.68,2.83,2.85
			s0.85,3.19,0.85,6.07V657.98z"/>
		<path d="M1178.8,621.54v8.18h-10.33v-8.18H1178.8z M1178.8,631.66v26.32h-10.33v-26.32H1178.8z"/>
		<path d="M1213.53,631.66v6.7h-5.25v9.71c0,1.33,0.25,2.12,0.75,2.37c0.5,0.25,1.02,0.38,1.55,0.38c0.83,0,1.81-0.15,2.95-0.44
			v7.35c-2.04,0.4-4.04,0.6-6,0.6c-3.17,0-5.51-0.68-7-2.04c-1.49-1.36-2.24-3.54-2.24-6.52l0.03-3.08v-8.31h-3.93v-6.7h3.93
			l0.16-8.57l9.81-0.16v8.72H1213.53z"/>
		<path d="M1227.99,638.37v19.62h-9.73v-19.62h-3.93v-6.7h3.93c0-2.17,0.09-3.78,0.28-4.83c0.19-1.04,0.66-2.04,1.42-3
			c0.76-0.96,1.78-1.69,3.05-2.2c1.28-0.51,2.99-0.76,5.15-0.76c2.31,0,4.53,0.18,6.65,0.54v6.75c-1.64-0.22-2.86-0.34-3.67-0.34
			s-1.55,0.16-2.23,0.49c-0.67,0.33-1.01,1.13-1.01,2.41v0.93h6.73v6.7H1227.99z"/>
		<path d="M1264.07,657.98h-9.83c-0.24-1.12-0.36-2.35-0.36-3.68c-1.86,2.81-4.68,4.22-8.46,4.22c-3.11,0-5.43-0.79-6.97-2.38
			c-1.54-1.59-2.32-3.41-2.32-5.46c0-2.78,1.26-5.02,3.79-6.74s7.01-2.75,13.44-3.09v-0.59c0-1.16-0.26-1.92-0.79-2.3
			c-0.53-0.38-1.3-0.57-2.32-0.57c-2.38,0-3.71,0.96-3.98,2.87l-9.42-0.88c1.35-5.5,5.93-8.26,13.74-8.26
			c2.12,0,4.07,0.21,5.85,0.63s3.18,1.08,4.22,1.98s1.73,1.85,2.08,2.85c0.35,1,0.53,2.92,0.53,5.77v10.51
			C1263.26,654.86,1263.53,656.57,1264.07,657.98z M1253.35,645.66c-4.4,0.46-6.6,1.87-6.6,4.22c0,1.59,0.87,2.38,2.61,2.38
			c1.1,0,2.04-0.33,2.82-0.98c0.78-0.66,1.16-2.1,1.16-4.35V645.66z"/>
		<path d="M1294.37,657.98h-10.33v-15.84c0-1.45-0.16-2.45-0.48-2.99c-0.32-0.54-0.93-0.81-1.84-0.81c-0.7,0-1.32,0.21-1.84,0.63
			c-0.52,0.42-0.83,0.86-0.91,1.31c-0.09,0.45-0.13,1.39-0.13,2.82v14.88h-10.33v-35.33h10.33v12.11c1.86-2.43,4.3-3.65,7.3-3.65
			c1.52,0,2.85,0.26,4,0.79c1.15,0.53,2.03,1.2,2.65,2.03s1.04,1.63,1.26,2.41c0.21,0.78,0.32,2.28,0.32,4.5V657.98z"/>
		<path d="M1297.39,650.53l8.15-1.11c0.47,1.9,2.31,2.85,5.54,2.85c2.67,0,4.01-0.52,4.01-1.55c0-0.45-0.26-0.8-0.78-1.05
			s-1.74-0.5-3.68-0.76c-5.35-0.74-8.69-1.9-10.01-3.48c-1.33-1.58-1.99-3.33-1.99-5.27c0-2.69,1.12-4.87,3.37-6.53
			c2.24-1.67,5.18-2.5,8.82-2.5c6.38,0,10.46,2.3,12.21,6.91l-7.82,1.47c-0.72-1.55-2.25-2.33-4.58-2.33c-1.1,0-1.93,0.15-2.47,0.45
			c-0.54,0.3-0.82,0.6-0.82,0.89c0,0.86,0.83,1.39,2.49,1.57c4.31,0.48,7.24,0.97,8.77,1.47c1.54,0.5,2.85,1.42,3.93,2.75
			c1.09,1.33,1.63,2.93,1.63,4.82c0,2.88-1.2,5.17-3.61,6.86c-2.41,1.69-5.72,2.54-9.95,2.54
			C1303.49,658.53,1299.08,655.86,1297.39,650.53z"/>
		<path d="M1350.72,657.98h-9.89v-26.32h8.59v5.43c0.98-3.95,3.27-5.93,6.86-5.93c0.36,0,0.86,0.03,1.5,0.1v9.19
			c-0.72-0.17-1.37-0.26-1.94-0.26c-3.42,0-5.12,1.91-5.12,5.72V657.98z"/>
		<path d="M1378.33,648.54l9.63,0.65c-0.57,2.59-2.02,4.79-4.36,6.61s-5.5,2.73-9.48,2.73c-4.43,0-7.97-1.28-10.61-3.84
			c-2.64-2.56-3.96-5.74-3.96-9.54c0-3.93,1.3-7.25,3.91-9.96c2.6-2.71,6.08-4.06,10.43-4.06c4.21,0,7.61,1.28,10.21,3.83
			c2.6,2.55,3.89,6.03,3.89,10.43c0,0.36-0.01,0.86-0.03,1.5h-17.62c0.04,1.66,0.33,2.89,0.88,3.69c0.55,0.8,1.6,1.2,3.16,1.2
			C1376.62,651.77,1377.94,650.69,1378.33,648.54z M1377.64,641.7c-0.02-1.78-0.38-2.97-1.07-3.58c-0.7-0.61-1.56-0.92-2.59-0.92
			c-2.44,0-3.66,1.5-3.66,4.5H1377.64z"/>
		<path d="M1417.77,657.98h-10.33v-15.84c0-1.45-0.16-2.45-0.48-2.99c-0.32-0.54-0.93-0.81-1.84-0.81c-0.7,0-1.32,0.21-1.84,0.63
			c-0.52,0.42-0.83,0.86-0.91,1.31c-0.09,0.45-0.13,1.39-0.13,2.82v14.88h-10.33v-35.33h10.33v12.11c1.86-2.43,4.3-3.65,7.3-3.65
			c1.52,0,2.85,0.26,4,0.79c1.15,0.53,2.03,1.2,2.65,2.03s1.04,1.63,1.26,2.41c0.21,0.78,0.32,2.28,0.32,4.5V657.98z"/>
		<path d="M1439.38,631.66v6.7h-5.25v9.71c0,1.33,0.25,2.12,0.75,2.37c0.5,0.25,1.02,0.38,1.55,0.38c0.83,0,1.81-0.15,2.95-0.44
			v7.35c-2.04,0.4-4.04,0.6-6,0.6c-3.18,0-5.51-0.68-7-2.04c-1.49-1.36-2.24-3.54-2.24-6.52l0.03-3.08v-8.31h-3.93v-6.7h3.93
			l0.15-8.57l9.81-0.16v8.72H1439.38z"/>
		<path d="M1455.58,658.53c-4.37,0-7.83-1.36-10.4-4.08c-2.57-2.72-3.86-5.9-3.86-9.56c0-3.93,1.34-7.21,4.02-9.83
			c2.68-2.62,6.17-3.93,10.47-3.93c4.33,0,7.81,1.29,10.44,3.88s3.95,5.83,3.95,9.73c0,3.93-1.33,7.22-4,9.85
			C1463.53,657.21,1459.99,658.53,1455.58,658.53z M1455.73,652.26c1.6,0,2.58-0.83,2.94-2.5c0.35-1.67,0.53-3.4,0.53-5.21
			c0-2.47-0.25-4.24-0.75-5.33c-0.5-1.09-1.4-1.63-2.69-1.63c-1.19,0-2.06,0.56-2.61,1.68s-0.83,2.97-0.83,5.54
			c0,3.02,0.28,5.02,0.85,5.99C1453.74,651.78,1454.59,652.26,1455.73,652.26z"/>
		<path d="M1050.97,712.14l9.63,0.65c-0.57,2.59-2.02,4.79-4.36,6.61s-5.5,2.73-9.48,2.73c-4.43,0-7.97-1.28-10.61-3.84
			c-2.64-2.56-3.96-5.74-3.96-9.54c0-3.93,1.3-7.25,3.91-9.96c2.6-2.71,6.08-4.06,10.43-4.06c4.21,0,7.61,1.28,10.21,3.83
			s3.89,6.03,3.89,10.43c0,0.36-0.01,0.86-0.03,1.5h-17.62c0.03,1.66,0.33,2.88,0.88,3.69c0.55,0.8,1.6,1.2,3.16,1.2
			C1049.26,715.37,1050.58,714.29,1050.97,712.14z M1050.27,705.3c-0.02-1.78-0.37-2.97-1.07-3.58s-1.56-0.92-2.59-0.92
			c-2.44,0-3.66,1.5-3.66,4.5H1050.27z"/>
		<path d="M1090.41,721.58h-10.33v-15.84c0-1.45-0.16-2.45-0.48-2.99c-0.32-0.54-0.93-0.82-1.84-0.82c-0.71,0-1.32,0.21-1.84,0.63
			s-0.83,0.86-0.91,1.31c-0.09,0.45-0.13,1.39-0.13,2.82v14.88h-10.33v-35.32h10.33v12.11c1.86-2.43,4.3-3.65,7.3-3.65
			c1.52,0,2.85,0.26,4,0.79s2.03,1.2,2.65,2.03s1.04,1.63,1.25,2.41s0.32,2.28,0.32,4.5V721.58z"/>
		<path d="M1112.02,695.26v6.7h-5.25v9.7c0,1.33,0.25,2.12,0.75,2.37c0.5,0.25,1.02,0.38,1.55,0.38c0.83,0,1.81-0.15,2.95-0.44v7.35
			c-2.04,0.4-4.04,0.59-6,0.59c-3.17,0-5.51-0.68-7-2.04c-1.49-1.36-2.24-3.54-2.24-6.52l0.03-3.08v-8.31h-3.93v-6.7h3.93l0.16-8.57
			l9.81-0.16v8.72H1112.02z"/>
		<path d="M1154.19,721.58h-10.33v-16.56c0-1.36-0.21-2.23-0.63-2.61c-0.42-0.38-0.95-0.57-1.59-0.57c-1.88,0-2.82,1.31-2.82,3.93
			v15.81h-10.33v-26.32h9.58v3.73c1.41-2.85,3.94-4.27,7.58-4.27c1.92,0,3.53,0.37,4.85,1.1c1.32,0.73,2.26,1.68,2.83,2.85
			c0.57,1.17,0.85,3.19,0.85,6.07V721.58z"/>
		<path d="M1169.41,721.58h-9.88v-26.32h8.59v5.43c0.98-3.95,3.27-5.93,6.86-5.93c0.36,0,0.86,0.04,1.5,0.1v9.19
			c-0.72-0.17-1.37-0.26-1.94-0.26c-3.42,0-5.13,1.91-5.13,5.72V721.58z"/>
		<path d="M1205.22,695.26v26.32h-9.55v-4.32c-1.4,3.24-4.12,4.87-8.18,4.87c-2.5,0-4.44-0.69-5.81-2.08
			c-1.37-1.39-2.06-3.38-2.06-5.96v-18.81h10.33v16.56c0,1.04,0.14,1.76,0.43,2.19s0.84,0.63,1.67,0.63c0.88,0,1.6-0.31,2.15-0.94
			c0.55-0.63,0.83-1.51,0.83-2.65v-15.79H1205.22z"/>
		<path d="M1226.8,695.26v6.7h-5.25v9.7c0,1.33,0.25,2.12,0.75,2.37c0.5,0.25,1.02,0.38,1.55,0.38c0.83,0,1.81-0.15,2.95-0.44v7.35
			c-2.04,0.4-4.04,0.59-6,0.59c-3.17,0-5.51-0.68-7-2.04c-1.49-1.36-2.24-3.54-2.24-6.52l0.03-3.08v-8.31h-3.93v-6.7h3.93l0.16-8.57
			l9.81-0.16v8.72H1226.8z"/>
		<path d="M1247.53,712.14l9.63,0.65c-0.57,2.59-2.02,4.79-4.36,6.61s-5.5,2.73-9.48,2.73c-4.43,0-7.97-1.28-10.61-3.84
			c-2.64-2.56-3.96-5.74-3.96-9.54c0-3.93,1.3-7.25,3.91-9.96s6.08-4.06,10.43-4.06c4.21,0,7.61,1.28,10.21,3.83
			s3.89,6.03,3.89,10.43c0,0.36-0.01,0.86-0.03,1.5h-17.62c0.03,1.66,0.33,2.88,0.88,3.69c0.55,0.8,1.61,1.2,3.16,1.2
			C1245.81,715.37,1247.13,714.29,1247.53,712.14z M1246.83,705.3c-0.02-1.78-0.37-2.97-1.07-3.58c-0.7-0.61-1.56-0.92-2.59-0.92
			c-2.44,0-3.66,1.5-3.66,4.5H1246.83z"/>
		<path d="M1271,721.58h-9.89v-26.32h8.59v5.43c0.98-3.95,3.27-5.93,6.86-5.93c0.36,0,0.86,0.04,1.5,0.1v9.19
			c-0.72-0.17-1.37-0.26-1.94-0.26c-3.42,0-5.12,1.91-5.12,5.72V721.58z"/>
		<path d="M1304.53,686.26v35.32h-10.17v-35.32H1304.53z"/>
		<path d="M1320.03,686.26v35.32h-10.17v-35.32H1320.03z"/>
		<path d="M1335.69,685.14v8.18h-10.33v-8.18H1335.69z M1335.69,695.26v26.32h-10.33v-26.32H1335.69z"/>
		<path d="M1377.3,695.26l-8.33,26.32h-7.43l-3.45-14.26l-3.6,14.26h-7.35l-8.49-26.32h10.14l3.47,12.89l3.31-12.89h7.64l3.26,12.88
			l3.64-12.88H1377.3z"/>
		<path d="M1410.81,712.14l9.63,0.65c-0.57,2.59-2.02,4.79-4.36,6.61s-5.5,2.73-9.48,2.73c-4.43,0-7.97-1.28-10.61-3.84
			c-2.64-2.56-3.96-5.74-3.96-9.54c0-3.93,1.3-7.25,3.91-9.96c2.6-2.71,6.08-4.06,10.43-4.06c4.21,0,7.61,1.28,10.21,3.83
			c2.6,2.55,3.89,6.03,3.89,10.43c0,0.36-0.01,0.86-0.03,1.5h-17.62c0.04,1.66,0.33,2.88,0.88,3.69c0.55,0.8,1.6,1.2,3.16,1.2
			C1409.09,715.37,1410.41,714.29,1410.81,712.14z M1410.11,705.3c-0.02-1.78-0.38-2.97-1.07-3.58c-0.7-0.61-1.56-0.92-2.59-0.92
			c-2.44,0-3.66,1.5-3.66,4.5H1410.11z"/>
		<path d="M1434.28,721.58h-9.89v-26.32h8.59v5.43c0.98-3.95,3.27-5.93,6.86-5.93c0.36,0,0.86,0.04,1.5,0.1v9.19
			c-0.72-0.17-1.37-0.26-1.94-0.26c-3.42,0-5.12,1.91-5.12,5.72V721.58z"/>
		<path d="M1461.88,712.14l9.63,0.65c-0.57,2.59-2.02,4.79-4.36,6.61s-5.5,2.73-9.48,2.73c-4.43,0-7.97-1.28-10.61-3.84
			c-2.64-2.56-3.96-5.74-3.96-9.54c0-3.93,1.3-7.25,3.91-9.96c2.6-2.71,6.08-4.06,10.43-4.06c4.21,0,7.61,1.28,10.21,3.83
			s3.89,6.03,3.89,10.43c0,0.36-0.01,0.86-0.03,1.5h-17.62c0.03,1.66,0.33,2.88,0.88,3.69c0.55,0.8,1.6,1.2,3.16,1.2
			C1460.17,715.37,1461.49,714.29,1461.88,712.14z M1461.19,705.3c-0.02-1.78-0.37-2.97-1.07-3.58s-1.56-0.92-2.59-0.92
			c-2.44,0-3.66,1.5-3.66,4.5H1461.19z"/>
		<path d="M1501.32,721.58H1491v-15.84c0-1.45-0.16-2.45-0.48-2.99c-0.32-0.54-0.93-0.82-1.84-0.82c-0.71,0-1.32,0.21-1.84,0.63
			s-0.83,0.86-0.91,1.31c-0.09,0.45-0.13,1.39-0.13,2.82v14.88h-10.33v-35.32h10.33v12.11c1.86-2.43,4.3-3.65,7.3-3.65
			c1.52,0,2.85,0.26,4,0.79s2.03,1.2,2.65,2.03s1.04,1.63,1.25,2.41s0.32,2.28,0.32,4.5V721.58z"/>
		<path d="M1521.56,694.72v26.86h-10.27v-26.86h-7.32v-8.46h24.92v8.46H1521.56z"/>
	</g>
	<g>
		<path d="M1058.13,442.35h-11.19v-29.79h9.73v6.15c1.11-4.47,3.7-6.71,7.76-6.71c0.41,0,0.98,0.04,1.7,0.12v10.4
			c-0.82-0.19-1.55-0.29-2.2-0.29c-3.87,0-5.8,2.16-5.8,6.47V442.35z"/>
		<path d="M1089.51,431.66l10.9,0.73c-0.64,2.93-2.29,5.42-4.94,7.49c-2.65,2.06-6.23,3.09-10.74,3.09c-5.02,0-9.02-1.45-12.01-4.35
			s-4.48-6.5-4.48-10.8c0-4.45,1.47-8.21,4.42-11.28c2.95-3.07,6.88-4.6,11.81-4.6c4.77,0,8.62,1.45,11.56,4.34
			c2.94,2.89,4.41,6.83,4.41,11.81c0,0.41-0.01,0.98-0.03,1.7h-19.95c0.04,1.88,0.37,3.27,1,4.17s1.82,1.36,3.57,1.36
			C1087.57,435.32,1089.06,434.1,1089.51,431.66z M1088.72,423.92c-0.02-2.01-0.42-3.36-1.21-4.06c-0.79-0.69-1.77-1.04-2.93-1.04
			c-2.76,0-4.15,1.7-4.15,5.1H1088.72z"/>
		<path d="M1145.23,412.56l-9.43,29.79h-8.41l-3.9-16.14l-4.07,16.14h-8.32l-9.61-29.79h11.48l3.93,14.59l3.75-14.59h8.65
			l3.69,14.58l4.13-14.58H1145.23z"/>
		<path d="M1162.43,442.97c-4.94,0-8.87-1.54-11.78-4.61s-4.37-6.68-4.37-10.83c0-4.45,1.52-8.16,4.56-11.13
			c3.04-2.97,6.99-4.45,11.85-4.45c4.9,0,8.84,1.46,11.82,4.39c2.98,2.93,4.47,6.6,4.47,11.02c0,4.45-1.51,8.17-4.53,11.15
			C1171.44,441.48,1167.43,442.97,1162.43,442.97z M1162.61,435.88c1.82,0,2.93-0.94,3.33-2.83c0.4-1.88,0.6-3.85,0.6-5.9
			c0-2.79-0.28-4.8-0.85-6.04s-1.58-1.85-3.05-1.85c-1.35,0-2.33,0.63-2.96,1.9c-0.63,1.27-0.94,3.36-0.94,6.27
			c0,3.42,0.32,5.68,0.97,6.78C1160.35,435.33,1161.32,435.88,1162.61,435.88z"/>
		<path d="M1195.21,451.76h-11.69v-39.2h10.75v4.22c1.5-3.22,4.31-4.83,8.41-4.83c3.55,0,6.34,1.38,8.35,4.15
			c2.01,2.76,3.02,6.53,3.02,11.29c0,4.77-1.03,8.55-3.09,11.37c-2.06,2.81-4.78,4.22-8.16,4.22c-3.32,0-5.85-1.27-7.59-3.81V451.76
			z M1195.21,431.45c0,1.33,0.3,2.36,0.91,3.09s1.36,1.1,2.26,1.1c1.41,0,2.37-0.65,2.9-1.95c0.53-1.3,0.79-3.3,0.79-5.99
			c0-3.11-0.3-5.29-0.91-6.55s-1.51-1.89-2.72-1.89c-0.72,0-1.44,0.28-2.15,0.85c-0.71,0.57-1.07,1.49-1.07,2.78V431.45z"/>
		<path d="M1252.11,412.56v7.59h-5.95v10.99c0,1.5,0.28,2.4,0.85,2.68c0.57,0.28,1.15,0.42,1.76,0.42c0.94,0,2.05-0.17,3.34-0.5
			v8.32c-2.3,0.45-4.57,0.67-6.8,0.67c-3.59,0-6.24-0.77-7.92-2.31c-1.69-1.54-2.54-4-2.54-7.38l0.03-3.49v-9.4h-4.45v-7.59h4.45
			l0.18-9.7l11.1-0.18v9.87H1252.11z"/>
		<path d="M1267.2,442.35H1256v-29.79h9.73v6.15c1.11-4.47,3.7-6.71,7.76-6.71c0.41,0,0.98,0.04,1.7,0.12v10.4
			c-0.82-0.19-1.55-0.29-2.2-0.29c-3.87,0-5.8,2.16-5.8,6.47V442.35z"/>
		<path d="M1307.86,412.56v29.79h-10.81v-4.89c-1.58,3.67-4.67,5.51-9.26,5.51c-2.83,0-5.02-0.79-6.58-2.36
			c-1.55-1.57-2.33-3.82-2.33-6.75v-21.3h11.69v18.75c0,1.17,0.16,2,0.48,2.48c0.32,0.48,0.95,0.72,1.89,0.72
			c1,0,1.81-0.36,2.43-1.07c0.63-0.71,0.94-1.71,0.94-3v-17.87H1307.86z"/>
		<path d="M1333.7,431.66l10.9,0.73c-0.64,2.93-2.29,5.42-4.94,7.49c-2.65,2.06-6.23,3.09-10.74,3.09c-5.02,0-9.02-1.45-12.01-4.35
			s-4.48-6.5-4.48-10.8c0-4.45,1.47-8.21,4.42-11.28c2.95-3.07,6.88-4.6,11.81-4.6c4.77,0,8.62,1.45,11.56,4.34
			c2.94,2.89,4.41,6.83,4.41,11.81c0,0.41-0.01,0.98-0.03,1.7h-19.95c0.04,1.88,0.37,3.27,1,4.17s1.82,1.36,3.57,1.36
			C1331.76,435.32,1333.25,434.1,1333.7,431.66z M1332.91,423.92c-0.02-2.01-0.42-3.36-1.21-4.06c-0.79-0.69-1.77-1.04-2.93-1.04
			c-2.76,0-4.15,1.7-4.15,5.1H1332.91z"/>
		<path d="M1393.46,442.35h-11.69v-17.93c0-1.64-0.18-2.77-0.54-3.38s-1.05-0.92-2.08-0.92c-0.8,0-1.49,0.24-2.08,0.72
			c-0.59,0.48-0.94,0.97-1.04,1.48c-0.1,0.51-0.15,1.57-0.15,3.19v16.85h-11.69v-39.99h11.69v13.71c2.11-2.75,4.86-4.13,8.26-4.13
			c1.72,0,3.23,0.3,4.53,0.89c1.3,0.6,2.3,1.36,3,2.3s1.18,1.85,1.42,2.72c0.24,0.88,0.37,2.58,0.37,5.1V442.35z"/>
		<path d="M1418.04,412.56v7.59h-5.95v10.99c0,1.5,0.28,2.4,0.85,2.68c0.57,0.28,1.15,0.42,1.76,0.42c0.94,0,2.05-0.17,3.34-0.5
			v8.32c-2.3,0.45-4.57,0.67-6.8,0.67c-3.59,0-6.24-0.77-7.92-2.31c-1.69-1.54-2.54-4-2.54-7.38l0.03-3.49v-9.4h-4.45v-7.59h4.45
			l0.18-9.7l11.1-0.18v9.87H1418.04z"/>
		<path d="M1433.63,401.1v9.26h-11.69v-9.26H1433.63z M1433.63,412.56v29.79h-11.69v-29.79H1433.63z"/>
		<path d="M1480.86,412.56l-9.43,29.79h-8.41l-3.9-16.14l-4.07,16.14h-8.32l-9.61-29.79h11.48l3.93,14.59l3.75-14.59h8.65
			l3.69,14.58l4.13-14.58H1480.86z"/>
		<path d="M1077.73,484.56l-9,10.24l10.03,19.56h-12.08l-5.59-11.93l-3.19,3.73v8.2h-10.96v-39.99h10.96v16.14
			c0,0.45-0.03,2.25-0.09,5.39c0.7-1,1.42-1.9,2.14-2.72l7.48-8.61H1077.73z"/>
		<path d="M1092.56,514.35h-11.19v-29.79h9.73v6.15c1.11-4.47,3.7-6.71,7.76-6.71c0.41,0,0.98,0.04,1.7,0.12v10.4
			c-0.82-0.19-1.55-0.29-2.2-0.29c-3.87,0-5.8,2.16-5.8,6.47V514.35z"/>
		<path d="M1118.81,514.97c-4.94,0-8.87-1.54-11.78-4.61s-4.37-6.68-4.37-10.83c0-4.45,1.52-8.16,4.56-11.13
			c3.04-2.97,6.99-4.45,11.85-4.45c4.9,0,8.84,1.46,11.82,4.39c2.98,2.93,4.47,6.6,4.47,11.02c0,4.45-1.51,8.17-4.53,11.15
			C1127.82,513.48,1123.81,514.97,1118.81,514.97z M1118.98,507.88c1.82,0,2.93-0.94,3.33-2.83c0.4-1.88,0.6-3.85,0.6-5.9
			c0-2.79-0.28-4.8-0.85-6.04s-1.58-1.85-3.05-1.85c-1.35,0-2.33,0.63-2.96,1.9c-0.63,1.27-0.94,3.36-0.94,6.27
			c0,3.42,0.32,5.68,0.97,6.78C1116.73,507.33,1117.69,507.88,1118.98,507.88z"/>
		<path d="M1180.13,484.56l-9.43,29.79h-8.41l-3.9-16.14l-4.07,16.14h-8.32l-9.61-29.79h11.48l3.93,14.59l3.75-14.59h8.65
			l3.69,14.58l4.13-14.58H1180.13z"/>
		<path d="M1218.3,503.66l10.9,0.73c-0.64,2.93-2.29,5.42-4.94,7.49c-2.65,2.06-6.23,3.09-10.74,3.09c-5.02,0-9.02-1.45-12.01-4.35
			s-4.48-6.5-4.48-10.8c0-4.45,1.47-8.21,4.42-11.28c2.95-3.07,6.88-4.6,11.81-4.6c4.77,0,8.62,1.45,11.56,4.34
			c2.94,2.89,4.41,6.83,4.41,11.81c0,0.41-0.01,0.98-0.03,1.7h-19.95c0.04,1.88,0.37,3.27,1,4.17s1.82,1.36,3.57,1.36
			C1216.36,507.32,1217.85,506.1,1218.3,503.66z M1217.51,495.92c-0.02-2.01-0.42-3.36-1.21-4.06c-0.79-0.69-1.77-1.04-2.93-1.04
			c-2.76,0-4.15,1.7-4.15,5.1H1217.51z"/>
		<path d="M1262.89,514.35h-11.69V495.6c0-1.54-0.24-2.53-0.72-2.96c-0.48-0.43-1.08-0.64-1.8-0.64c-2.13,0-3.19,1.48-3.19,4.45
			v17.9h-11.69v-29.79h10.84v4.22c1.6-3.22,4.46-4.83,8.58-4.83c2.17,0,4,0.42,5.49,1.25c1.49,0.83,2.56,1.9,3.21,3.22
			s0.97,3.61,0.97,6.87V514.35z"/>
		<path d="M1283.6,514.97c-4.94,0-8.87-1.54-11.78-4.61s-4.37-6.68-4.37-10.83c0-4.45,1.52-8.16,4.56-11.13
			c3.04-2.97,6.99-4.45,11.85-4.45c4.9,0,8.84,1.46,11.82,4.39c2.98,2.93,4.47,6.6,4.47,11.02c0,4.45-1.51,8.17-4.53,11.15
			C1292.61,513.48,1288.6,514.97,1283.6,514.97z M1283.78,507.88c1.82,0,2.93-0.94,3.33-2.83c0.4-1.88,0.6-3.85,0.6-5.9
			c0-2.79-0.28-4.8-0.85-6.04s-1.58-1.85-3.05-1.85c-1.35,0-2.33,0.63-2.96,1.9c-0.63,1.27-0.94,3.36-0.94,6.27
			c0,3.42,0.32,5.68,0.97,6.78C1281.52,507.33,1282.49,507.88,1283.78,507.88z"/>
		<path d="M1333.79,514.35h-10.96v-3.96c-1.62,3.05-4.3,4.57-8.03,4.57c-3.44,0-6.22-1.34-8.36-4.03c-2.14-2.69-3.21-6.59-3.21-11.7
			c0-4.79,1.07-8.58,3.22-11.4s4.99-4.22,8.53-4.22c2.95,0,5.38,1.12,7.29,3.37v-12.63h11.51V514.35z M1322.27,495.19
			c0-2.68-1.1-4.01-3.31-4.01c-1.54,0-2.55,0.85-3.03,2.55c-0.48,1.7-0.72,3.78-0.72,6.24c0,4.82,1.23,7.24,3.69,7.24
			c0.94,0,1.73-0.38,2.39-1.14c0.65-0.76,0.98-1.92,0.98-3.49V495.19z"/>
		<path d="M1374.63,503.66l10.9,0.73c-0.64,2.93-2.29,5.42-4.94,7.49c-2.65,2.06-6.23,3.09-10.74,3.09c-5.02,0-9.02-1.45-12.01-4.35
			s-4.48-6.5-4.48-10.8c0-4.45,1.47-8.21,4.42-11.28c2.95-3.07,6.88-4.6,11.81-4.6c4.77,0,8.62,1.45,11.56,4.34
			c2.94,2.89,4.41,6.83,4.41,11.81c0,0.41-0.01,0.98-0.03,1.7h-19.95c0.04,1.88,0.37,3.27,1,4.17s1.82,1.36,3.57,1.36
			C1372.68,507.32,1374.18,506.1,1374.63,503.66z M1373.84,495.92c-0.02-2.01-0.42-3.36-1.21-4.06c-0.79-0.69-1.77-1.04-2.93-1.04
			c-2.76,0-4.15,1.7-4.15,5.1H1373.84z"/>
		<path d="M1401.32,514.35h-11.19v-29.79h9.73v6.15c1.11-4.47,3.7-6.71,7.76-6.71c0.41,0,0.98,0.04,1.7,0.12v10.4
			c-0.82-0.19-1.55-0.29-2.2-0.29c-3.87,0-5.8,2.16-5.8,6.47V514.35z"/>
		<path d="M1443.04,514.35h-11.13c-0.27-1.27-0.41-2.66-0.41-4.16c-2.11,3.18-5.3,4.78-9.58,4.78c-3.52,0-6.15-0.9-7.89-2.7
			c-1.75-1.8-2.62-3.86-2.62-6.18c0-3.14,1.43-5.69,4.29-7.63c2.86-1.94,7.93-3.11,15.22-3.5v-0.67c0-1.31-0.3-2.18-0.89-2.61
			c-0.6-0.43-1.47-0.64-2.62-0.64c-2.7,0-4.2,1.08-4.51,3.25l-10.66-1c1.52-6.23,6.71-9.35,15.56-9.35c2.4,0,4.61,0.24,6.62,0.72
			c2.01,0.48,3.6,1.23,4.78,2.24c1.17,1.02,1.96,2.09,2.36,3.22c0.4,1.13,0.6,3.31,0.6,6.53v11.89
			C1442.13,510.82,1442.43,512.75,1443.04,514.35z M1430.91,500.41c-4.98,0.53-7.47,2.12-7.47,4.78c0,1.8,0.99,2.7,2.96,2.7
			c1.25,0,2.31-0.37,3.19-1.11c0.88-0.74,1.32-2.38,1.32-4.92V500.41z"/>
	</g>
	<g>
		<path d="M1108.03,264.35h-11.69V245.6c0-1.54-0.24-2.53-0.72-2.96c-0.48-0.43-1.08-0.64-1.8-0.64c-2.13,0-3.19,1.48-3.19,4.45
			v17.9h-11.69v-29.79h10.84v4.22c1.6-3.22,4.46-4.83,8.58-4.83c2.17,0,4,0.42,5.49,1.25c1.49,0.83,2.56,1.9,3.21,3.22
			s0.97,3.61,0.97,6.87V264.35z"/>
		<path d="M1133.87,253.66l10.9,0.73c-0.64,2.93-2.29,5.42-4.94,7.49c-2.65,2.06-6.23,3.09-10.74,3.09c-5.02,0-9.02-1.45-12.01-4.35
			s-4.48-6.5-4.48-10.8c0-4.45,1.47-8.21,4.42-11.28c2.95-3.07,6.88-4.6,11.81-4.6c4.77,0,8.62,1.45,11.56,4.34
			c2.94,2.89,4.41,6.83,4.41,11.81c0,0.41-0.01,0.98-0.03,1.7h-19.95c0.04,1.88,0.37,3.27,1,4.17s1.82,1.36,3.57,1.36
			C1131.93,257.32,1133.42,256.1,1133.87,253.66z M1133.08,245.92c-0.02-2.01-0.42-3.36-1.21-4.06c-0.79-0.69-1.77-1.04-2.93-1.04
			c-2.76,0-4.15,1.7-4.15,5.1H1133.08z"/>
		<path d="M1178.46,264.35h-10.96v-3.96c-1.62,3.05-4.3,4.57-8.03,4.57c-3.44,0-6.22-1.34-8.36-4.03c-2.14-2.69-3.21-6.59-3.21-11.7
			c0-4.79,1.07-8.58,3.22-11.4s4.99-4.22,8.53-4.22c2.95,0,5.38,1.12,7.29,3.37v-12.63h11.51V264.35z M1166.95,245.19
			c0-2.68-1.1-4.01-3.31-4.01c-1.54,0-2.55,0.85-3.03,2.55c-0.48,1.7-0.72,3.78-0.72,6.24c0,4.82,1.23,7.24,3.69,7.24
			c0.94,0,1.73-0.38,2.39-1.14c0.65-0.76,0.98-1.92,0.98-3.49V245.19z"/>
		<path d="M1213.71,264.35h-10.96v-3.96c-1.62,3.05-4.3,4.57-8.03,4.57c-3.44,0-6.22-1.34-8.36-4.03c-2.14-2.69-3.21-6.59-3.21-11.7
			c0-4.79,1.07-8.58,3.22-11.4s4.99-4.22,8.53-4.22c2.95,0,5.38,1.12,7.29,3.37v-12.63h11.51V264.35z M1202.19,245.19
			c0-2.68-1.1-4.01-3.31-4.01c-1.54,0-2.55,0.85-3.03,2.55c-0.48,1.7-0.72,3.78-0.72,6.24c0,4.82,1.23,7.24,3.69,7.24
			c0.94,0,1.73-0.38,2.39-1.14c0.65-0.76,0.98-1.92,0.98-3.49V245.19z"/>
		<path d="M1231.55,223.1v9.26h-11.69v-9.26H1231.55z M1231.55,234.56v29.79h-11.69v-29.79H1231.55z"/>
		<path d="M1266.97,264.35h-11.69v-17.93c0-1.64-0.18-2.77-0.54-3.38s-1.05-0.92-2.08-0.92c-0.8,0-1.49,0.24-2.08,0.72
			c-0.59,0.48-0.94,0.97-1.04,1.48c-0.1,0.51-0.15,1.57-0.15,3.19v16.85h-11.69v-39.99h11.69v13.71c2.11-2.75,4.86-4.13,8.26-4.13
			c1.72,0,3.23,0.3,4.53,0.89c1.3,0.6,2.3,1.36,3,2.3s1.18,1.85,1.42,2.72c0.24,0.88,0.37,2.58,0.37,5.1V264.35z"/>
		<path d="M1317.24,264.35h-11.69V245.6c0-1.54-0.24-2.53-0.72-2.96c-0.48-0.43-1.08-0.64-1.8-0.64c-2.13,0-3.19,1.48-3.19,4.45
			v17.9h-11.69v-29.79h10.84v4.22c1.6-3.22,4.46-4.83,8.58-4.83c2.17,0,4,0.42,5.49,1.25c1.49,0.83,2.56,1.9,3.21,3.22
			s0.97,3.61,0.97,6.87V264.35z"/>
		<path d="M1335.08,223.1v9.26h-11.69v-9.26H1335.08z M1335.08,234.56v29.79h-11.69v-29.79H1335.08z"/>
		<path d="M1370.5,264.35h-11.69v-17.93c0-1.64-0.18-2.77-0.54-3.38s-1.05-0.92-2.08-0.92c-0.8,0-1.49,0.24-2.08,0.72
			c-0.59,0.48-0.94,0.97-1.04,1.48c-0.1,0.51-0.15,1.57-0.15,3.19v16.85h-11.69v-39.99h11.69v13.71c2.11-2.75,4.86-4.13,8.26-4.13
			c1.72,0,3.23,0.3,4.53,0.89c1.3,0.6,2.3,1.36,3,2.3s1.18,1.85,1.42,2.72c0.24,0.88,0.37,2.58,0.37,5.1V264.35z"/>
		<path d="M1395.08,234.56v7.59h-5.95v10.99c0,1.5,0.28,2.4,0.85,2.68c0.57,0.28,1.15,0.42,1.76,0.42c0.94,0,2.05-0.17,3.34-0.5
			v8.32c-2.3,0.45-4.57,0.67-6.8,0.67c-3.59,0-6.24-0.77-7.92-2.31c-1.69-1.54-2.54-4-2.54-7.38l0.03-3.49v-9.4h-4.45v-7.59h4.45
			l0.18-9.7l11.1-0.18v9.87H1395.08z"/>
		<path d="M1410.67,223.1v9.26h-11.69v-9.26H1410.67z M1410.67,234.56v29.79h-11.69v-29.79H1410.67z"/>
		<path d="M1457.9,234.56l-9.43,29.79h-8.41l-3.9-16.14l-4.07,16.14h-8.32l-9.61-29.79h11.48l3.93,14.59l3.75-14.59h8.65l3.69,14.58
			l4.13-14.58H1457.9z"/>
		<path d="M1473.75,255.91l9.23-1.26c0.53,2.15,2.62,3.22,6.27,3.22c3.03,0,4.54-0.59,4.54-1.76c0-0.51-0.29-0.9-0.88-1.19
			c-0.59-0.28-1.97-0.57-4.16-0.86c-6.05-0.84-9.83-2.15-11.34-3.94s-2.26-3.77-2.26-5.96c0-3.05,1.27-5.51,3.81-7.4
			s5.87-2.83,9.99-2.83c7.23,0,11.84,2.61,13.83,7.82l-8.85,1.67c-0.82-1.76-2.55-2.64-5.19-2.64c-1.25,0-2.18,0.17-2.8,0.51
			c-0.62,0.34-0.92,0.68-0.92,1.01c0,0.98,0.94,1.57,2.81,1.78c4.88,0.54,8.19,1.09,9.93,1.66c1.74,0.57,3.22,1.6,4.45,3.11
			c1.23,1.5,1.84,3.32,1.84,5.45c0,3.26-1.36,5.85-4.09,7.77c-2.72,1.92-6.48,2.87-11.27,2.87
			C1480.65,264.97,1475.66,261.95,1473.75,255.91z"/>
		<path d="M1519.86,223.1v9.26h-11.69v-9.26H1519.86z M1519.86,234.56v29.79h-11.69v-29.79H1519.86z"/>
	</g>
	<g>
		<path d="M436.46,633.36v39.99h-11.51v-39.99H436.46z"/>
		<path d="M454.12,633.36v39.99h-11.51v-39.99H454.12z"/>
		<path d="M490.3,673.35h-11.13c-0.27-1.27-0.41-2.66-0.41-4.16c-2.11,3.18-5.3,4.78-9.58,4.78c-3.52,0-6.15-0.9-7.9-2.7
			c-1.75-1.8-2.62-3.86-2.62-6.18c0-3.14,1.43-5.69,4.29-7.63c2.86-1.94,7.93-3.11,15.22-3.5v-0.67c0-1.31-0.3-2.18-0.89-2.61
			c-0.6-0.43-1.47-0.64-2.62-0.64c-2.7,0-4.2,1.08-4.51,3.25l-10.66-1c1.52-6.23,6.71-9.35,15.56-9.35c2.4,0,4.61,0.24,6.62,0.72
			c2.01,0.48,3.6,1.23,4.78,2.24c1.17,1.02,1.96,2.09,2.36,3.22c0.4,1.13,0.6,3.31,0.6,6.53v11.89
			C489.4,669.82,489.7,671.75,490.3,673.35z M478.17,659.41c-4.98,0.53-7.47,2.12-7.47,4.78c0,1.8,0.99,2.7,2.96,2.7
			c1.25,0,2.31-0.37,3.19-1.11c0.88-0.74,1.32-2.38,1.32-4.92V659.41z"/>
		<path d="M513.42,661.34l9.96,0.85c-0.47,3.48-1.93,6.31-4.38,8.5c-2.45,2.19-5.71,3.28-9.77,3.28c-4.55,0-8.25-1.43-11.09-4.29
			s-4.26-6.53-4.26-11c0-4.57,1.41-8.33,4.23-11.29c2.82-2.96,6.49-4.44,11-4.44c4,0,7.27,1.12,9.79,3.36s3.96,5.06,4.34,8.48
			l-10.22,0.85c-0.43-3.14-1.62-4.72-3.57-4.72c-1.25,0-2.16,0.57-2.74,1.71c-0.58,1.14-0.86,3.13-0.86,5.96
			c0,2.44,0.29,4.25,0.86,5.42c0.58,1.17,1.58,1.76,3,1.76C511.79,665.76,513.03,664.29,513.42,661.34z"/>
		<path d="M570.93,673.35h-11.69V654.6c0-1.54-0.24-2.53-0.72-2.96c-0.48-0.43-1.08-0.64-1.8-0.64c-2.13,0-3.19,1.48-3.19,4.45v17.9
			h-11.69v-29.79h10.84v4.22c1.6-3.22,4.46-4.83,8.58-4.83c2.17,0,4,0.42,5.49,1.25s2.56,1.9,3.21,3.22s0.97,3.61,0.97,6.87V673.35z
			"/>
		<path d="M607.11,673.35h-11.13c-0.27-1.27-0.41-2.66-0.41-4.16c-2.11,3.18-5.3,4.78-9.58,4.78c-3.52,0-6.15-0.9-7.9-2.7
			c-1.75-1.8-2.62-3.86-2.62-6.18c0-3.14,1.43-5.69,4.29-7.63c2.86-1.94,7.93-3.11,15.22-3.5v-0.67c0-1.31-0.3-2.18-0.89-2.61
			c-0.6-0.43-1.47-0.64-2.62-0.64c-2.7,0-4.2,1.08-4.51,3.25l-10.66-1c1.52-6.23,6.71-9.35,15.56-9.35c2.4,0,4.61,0.24,6.62,0.72
			c2.01,0.48,3.6,1.23,4.78,2.24c1.17,1.02,1.96,2.09,2.36,3.22c0.4,1.13,0.6,3.31,0.6,6.53v11.89
			C606.2,669.82,606.5,671.75,607.11,673.35z M594.98,659.41c-4.98,0.53-7.47,2.12-7.47,4.78c0,1.8,0.99,2.7,2.96,2.7
			c1.25,0,2.31-0.37,3.19-1.11c0.88-0.74,1.32-2.38,1.32-4.92V659.41z"/>
		<path d="M630.23,661.34l9.96,0.85c-0.47,3.48-1.93,6.31-4.38,8.5c-2.45,2.19-5.71,3.28-9.77,3.28c-4.55,0-8.25-1.43-11.09-4.29
			s-4.26-6.53-4.26-11c0-4.57,1.41-8.33,4.23-11.29c2.82-2.96,6.49-4.44,11-4.44c4,0,7.27,1.12,9.79,3.36s3.96,5.06,4.34,8.48
			l-10.22,0.85c-0.43-3.14-1.62-4.72-3.57-4.72c-1.25,0-2.16,0.57-2.74,1.71c-0.58,1.14-0.86,3.13-0.86,5.96
			c0,2.44,0.29,4.25,0.86,5.42c0.58,1.17,1.58,1.76,3,1.76C628.59,665.76,629.83,664.29,630.23,661.34z"/>
		<path d="M687.62,643.56v29.79h-10.81v-4.89c-1.58,3.67-4.67,5.51-9.26,5.51c-2.83,0-5.02-0.79-6.58-2.36s-2.33-3.82-2.33-6.75
			v-21.3h11.69v18.75c0,1.17,0.16,2,0.48,2.48s0.95,0.72,1.89,0.72c1,0,1.81-0.36,2.43-1.07c0.63-0.71,0.94-1.71,0.94-3v-17.87
			H687.62z"/>
		<path d="M708.33,673.97c-4.94,0-8.87-1.54-11.78-4.61c-2.91-3.08-4.37-6.68-4.37-10.83c0-4.45,1.52-8.16,4.56-11.13
			c3.04-2.97,6.99-4.45,11.85-4.45c4.9,0,8.84,1.46,11.82,4.39c2.98,2.93,4.47,6.6,4.47,11.02c0,4.45-1.51,8.17-4.53,11.15
			S713.33,673.97,708.33,673.97z M708.51,666.88c1.82,0,2.92-0.94,3.33-2.83c0.4-1.88,0.6-3.85,0.6-5.9c0-2.79-0.28-4.8-0.85-6.04
			c-0.57-1.23-1.58-1.85-3.05-1.85c-1.35,0-2.33,0.63-2.96,1.9c-0.63,1.27-0.94,3.36-0.94,6.27c0,3.42,0.32,5.68,0.97,6.78
			S707.22,666.88,708.51,666.88z"/>
		<path d="M756.11,643.56l-11.69,32.29c-0.9,2.44-2.19,4.35-3.87,5.73c-1.68,1.38-4.27,2.06-7.76,2.06c-0.84,0-2.79-0.09-5.86-0.26
			v-8.29c1.52,0.23,2.93,0.35,4.22,0.35c3.36,0,5.04-0.74,5.04-2.23c0-0.49-0.17-1.16-0.5-2.02L725,643.56h12.5l4.93,15.9l5.14-15.9
			H756.11z"/>
		<path d="M771.38,664.91l9.23-1.26c0.53,2.15,2.62,3.22,6.27,3.22c3.03,0,4.54-0.59,4.54-1.76c0-0.51-0.29-0.9-0.88-1.19
			s-1.97-0.57-4.16-0.87c-6.05-0.84-9.83-2.15-11.34-3.94c-1.5-1.79-2.26-3.77-2.26-5.96c0-3.05,1.27-5.51,3.81-7.4
			c2.54-1.88,5.87-2.83,9.99-2.83c7.23,0,11.84,2.61,13.83,7.82l-8.85,1.67c-0.82-1.76-2.55-2.64-5.19-2.64
			c-1.25,0-2.18,0.17-2.8,0.51s-0.92,0.68-0.92,1.01c0,0.98,0.94,1.57,2.81,1.78c4.88,0.54,8.19,1.09,9.93,1.66
			c1.74,0.57,3.22,1.6,4.45,3.11c1.23,1.5,1.85,3.32,1.85,5.45c0,3.26-1.36,5.85-4.09,7.77c-2.72,1.92-6.48,2.87-11.26,2.87
			C778.28,673.97,773.29,670.95,771.38,664.91z"/>
		<path d="M835.83,673.35H824.7c-0.27-1.27-0.41-2.66-0.41-4.16c-2.11,3.18-5.3,4.78-9.58,4.78c-3.52,0-6.15-0.9-7.9-2.7
			c-1.75-1.8-2.62-3.86-2.62-6.18c0-3.14,1.43-5.69,4.29-7.63c2.86-1.94,7.93-3.11,15.22-3.5v-0.67c0-1.31-0.3-2.18-0.89-2.61
			c-0.6-0.43-1.47-0.64-2.62-0.64c-2.7,0-4.2,1.08-4.51,3.25l-10.66-1c1.52-6.23,6.71-9.35,15.56-9.35c2.4,0,4.61,0.24,6.62,0.72
			c2.01,0.48,3.6,1.23,4.78,2.24c1.17,1.02,1.96,2.09,2.36,3.22c0.4,1.13,0.6,3.31,0.6,6.53v11.89
			C834.92,669.82,835.23,671.75,835.83,673.35z M823.7,659.41c-4.98,0.53-7.47,2.12-7.47,4.78c0,1.8,0.99,2.7,2.96,2.7
			c1.25,0,2.31-0.37,3.19-1.11c0.88-0.74,1.32-2.38,1.32-4.92V659.41z"/>
	</g>
	<g>
		<path d="M444.63,253.66l10.9,0.73c-0.64,2.93-2.29,5.42-4.94,7.49c-2.65,2.06-6.23,3.09-10.74,3.09c-5.02,0-9.02-1.45-12.01-4.35
			s-4.48-6.5-4.48-10.8c0-4.45,1.47-8.21,4.42-11.28c2.95-3.07,6.88-4.6,11.81-4.6c4.77,0,8.62,1.45,11.56,4.34
			c2.94,2.89,4.41,6.83,4.41,11.81c0,0.41-0.01,0.98-0.03,1.7h-19.95c0.04,1.88,0.37,3.27,1,4.17c0.63,0.91,1.82,1.36,3.57,1.36
			C442.69,257.32,444.18,256.1,444.63,253.66z M443.84,245.92c-0.02-2.01-0.42-3.36-1.21-4.06c-0.79-0.69-1.77-1.04-2.93-1.04
			c-2.76,0-4.15,1.7-4.15,5.1H443.84z"/>
		<path d="M486.74,234.56l-10.91,29.79h-8.73l-11.16-29.79h12.01l4.27,12.65c0.35,1.04,0.67,2.06,0.94,3.08
			c0.1-0.35,0.24-0.8,0.44-1.35c0.04-0.08,0.17-0.45,0.38-1.11l4.38-13.27H486.74z"/>
		<path d="M501.29,223.1v9.26H489.6v-9.26H501.29z M501.29,234.56v29.79H489.6v-29.79H501.29z"/>
		<path d="M538.5,227.79l-0.29,8l-0.56-0.03c-1.05-0.06-1.81-0.09-2.26-0.09c-1.82,0-2.91,0.36-3.28,1.08
			c2.23,1.84,3.34,4.05,3.34,6.65c0,3.05-1.21,5.34-3.62,6.87c-2.41,1.53-5.69,2.3-9.83,2.3c-0.1,0-0.61-0.02-1.52-0.06
			c-0.86-0.04-1.31-0.06-1.35-0.06c-1.89,0-2.84,0.49-2.84,1.46c0,0.86,0.84,1.32,2.52,1.38l9.58,0.41c3.5,0.16,6.06,1.13,7.69,2.93
			c1.63,1.8,2.45,3.9,2.45,6.3c0,2.85-1.22,5.18-3.65,6.99c-2.43,1.81-7.16,2.71-14.19,2.71c-10.84,0-16.26-2.49-16.26-7.47
			c0-2.71,1.44-4.61,4.31-5.68c-1.86-1.31-2.78-2.86-2.78-4.66c0-2.93,1.9-5.14,5.71-6.62c-3.18-1.39-4.78-3.69-4.78-6.91
			c0-2.95,1.29-5.24,3.87-6.88s6.11-2.46,10.61-2.46c2.05,0,3.92,0.21,5.6,0.62c0.68-4.67,3.15-7,7.41-7
			C535.34,227.56,536.72,227.63,538.5,227.79z M518.4,263.97c-0.43-0.02-0.86-0.03-1.29-0.03c-2.01,0-3.02,0.63-3.02,1.88
			c0,1.15,0.77,1.9,2.3,2.23c1.53,0.33,3.58,0.5,6.14,0.5c2.42,0,3.98-0.21,4.67-0.61c0.69-0.41,1.04-0.98,1.04-1.7
			c0-0.51-0.16-0.93-0.47-1.27c-0.31-0.34-1.05-0.54-2.23-0.6L518.4,263.97z M521.39,247.04c2.27,0,3.4-1.2,3.4-3.6
			c0-2.46-1.16-3.69-3.49-3.69c-2.3,0-3.46,1.25-3.46,3.75C517.84,245.86,519.02,247.04,521.39,247.04z"/>
		<path d="M576.29,253.66l10.9,0.73c-0.64,2.93-2.29,5.42-4.94,7.49c-2.65,2.06-6.23,3.09-10.74,3.09c-5.02,0-9.02-1.45-12.01-4.35
			s-4.48-6.5-4.48-10.8c0-4.45,1.47-8.21,4.42-11.28c2.95-3.07,6.88-4.6,11.81-4.6c4.77,0,8.62,1.45,11.56,4.34
			c2.94,2.89,4.41,6.83,4.41,11.81c0,0.41-0.01,0.98-0.03,1.7h-19.95c0.04,1.88,0.37,3.27,1,4.17c0.63,0.91,1.82,1.36,3.57,1.36
			C574.35,257.32,575.84,256.1,576.29,253.66z M575.5,245.92c-0.02-2.01-0.42-3.36-1.21-4.06c-0.79-0.69-1.77-1.04-2.93-1.04
			c-2.76,0-4.15,1.7-4.15,5.1H575.5z"/>
		<path d="M636.93,264.35H625.6v-18.63c0-1.25-0.18-2.12-0.54-2.62c-0.36-0.5-1-0.75-1.92-0.75c-2.19,0-3.28,1.59-3.28,4.78v17.23
			h-11.22v-18.63c0-2.38-0.92-3.57-2.75-3.57c-1.89,0-2.84,1.19-2.84,3.57v18.63h-11.25v-29.79h10.49v4.01
			c1.88-3.09,4.6-4.63,8.17-4.63c3.85,0,6.64,1.54,8.38,4.63c1.93-3.09,4.9-4.63,8.91-4.63c1.91,0,3.6,0.4,5.05,1.2
			c1.45,0.8,2.51,1.83,3.16,3.09c0.65,1.26,0.98,3.21,0.98,5.84V264.35z"/>
		<path d="M669.31,264.35h-11.19v-29.79h9.73v6.15c1.11-4.47,3.7-6.71,7.76-6.71c0.41,0,0.98,0.04,1.7,0.12v10.4
			c-0.82-0.19-1.55-0.29-2.2-0.29c-3.87,0-5.8,2.16-5.8,6.47V264.35z"/>
		<path d="M700.68,253.66l10.9,0.73c-0.64,2.93-2.29,5.42-4.94,7.49c-2.65,2.06-6.23,3.09-10.74,3.09c-5.02,0-9.02-1.45-12.01-4.35
			s-4.48-6.5-4.48-10.8c0-4.45,1.47-8.21,4.42-11.28c2.95-3.07,6.88-4.6,11.81-4.6c4.77,0,8.62,1.45,11.56,4.34
			c2.94,2.89,4.41,6.83,4.41,11.81c0,0.41-0.01,0.98-0.03,1.7h-19.95c0.04,1.88,0.37,3.27,1,4.17c0.63,0.91,1.82,1.36,3.57,1.36
			C698.74,257.32,700.23,256.1,700.68,253.66z M699.89,245.92c-0.02-2.01-0.42-3.36-1.21-4.06c-0.79-0.69-1.77-1.04-2.93-1.04
			c-2.76,0-4.15,1.7-4.15,5.1H699.89z"/>
		<path d="M756.41,234.56l-9.43,29.79h-8.41l-3.9-16.14l-4.07,16.14h-8.32l-9.61-29.79h11.48l3.93,14.59l3.75-14.59h8.65l3.69,14.58
			l4.12-14.58H756.41z"/>
		<path d="M773.6,264.97c-4.94,0-8.87-1.54-11.78-4.61c-2.91-3.08-4.37-6.68-4.37-10.83c0-4.45,1.52-8.16,4.56-11.13
			c3.04-2.97,6.99-4.45,11.85-4.45c4.9,0,8.84,1.46,11.82,4.39c2.98,2.93,4.47,6.6,4.47,11.02c0,4.45-1.51,8.17-4.53,11.15
			C782.61,263.48,778.6,264.97,773.6,264.97z M773.78,257.88c1.82,0,2.92-0.94,3.33-2.83c0.4-1.88,0.6-3.85,0.6-5.9
			c0-2.79-0.28-4.8-0.85-6.04c-0.57-1.23-1.58-1.85-3.05-1.85c-1.35,0-2.33,0.63-2.96,1.9c-0.63,1.27-0.94,3.36-0.94,6.27
			c0,3.42,0.32,5.68,0.97,6.78C771.52,257.33,772.49,257.88,773.78,257.88z"/>
		<path d="M806.39,273.76H794.7v-39.2h10.75v4.22c1.5-3.22,4.31-4.83,8.41-4.83c3.55,0,6.34,1.38,8.35,4.15
			c2.01,2.76,3.02,6.53,3.02,11.29c0,4.77-1.03,8.55-3.09,11.37c-2.06,2.81-4.78,4.22-8.16,4.22c-3.32,0-5.85-1.27-7.59-3.81V273.76
			z M806.39,253.45c0,1.33,0.3,2.36,0.91,3.09c0.6,0.73,1.36,1.1,2.26,1.1c1.41,0,2.37-0.65,2.9-1.95c0.53-1.3,0.79-3.3,0.79-5.99
			c0-3.11-0.3-5.29-0.91-6.55c-0.61-1.26-1.51-1.89-2.72-1.89c-0.72,0-1.44,0.28-2.15,0.85c-0.71,0.57-1.07,1.49-1.07,2.78V253.45z"
			/>
		<path d="M840.61,253.72v9.81l-6.42,11.1h-4.6l4.6-10.28h-4.72v-10.63H840.61z"/>
	</g>
	<g>
		<path d="M436.82,494.79c-4.94,0-8.87-1.54-11.78-4.61c-2.91-3.08-4.37-6.68-4.37-10.83c0-4.45,1.52-8.16,4.56-11.13
			c3.04-2.97,6.99-4.45,11.85-4.45c4.9,0,8.84,1.46,11.82,4.39c2.98,2.93,4.47,6.6,4.47,11.02c0,4.45-1.51,8.17-4.53,11.15
			S441.82,494.79,436.82,494.79z M437,487.7c1.82,0,2.92-0.94,3.33-2.83c0.4-1.88,0.6-3.85,0.6-5.9c0-2.79-0.28-4.8-0.85-6.04
			c-0.57-1.23-1.58-1.85-3.05-1.85c-1.35,0-2.33,0.63-2.96,1.9c-0.63,1.27-0.94,3.36-0.94,6.27c0,3.42,0.32,5.68,0.97,6.78
			S435.71,487.7,437,487.7z"/>
		<path d="M476.31,464.38v7.59h-5.95v10.99c0,1.5,0.28,2.4,0.85,2.68c0.57,0.28,1.15,0.42,1.76,0.42c0.94,0,2.05-0.17,3.34-0.5v8.32
			c-2.3,0.45-4.57,0.67-6.8,0.67c-3.59,0-6.24-0.77-7.92-2.31c-1.69-1.54-2.53-4-2.53-7.38l0.03-3.49v-9.4h-4.45v-7.59h4.45
			l0.18-9.7l11.1-0.18v9.87H476.31z"/>
		<path d="M492.57,485.73l9.23-1.26c0.53,2.15,2.62,3.22,6.27,3.22c3.03,0,4.54-0.59,4.54-1.76c0-0.51-0.29-0.9-0.88-1.19
			s-1.97-0.57-4.16-0.87c-6.05-0.84-9.83-2.15-11.34-3.94c-1.5-1.79-2.26-3.77-2.26-5.96c0-3.05,1.27-5.51,3.81-7.4
			c2.54-1.88,5.87-2.83,9.99-2.83c7.23,0,11.84,2.61,13.83,7.82l-8.85,1.67c-0.82-1.76-2.55-2.64-5.19-2.64
			c-1.25,0-2.18,0.17-2.8,0.51s-0.92,0.68-0.92,1.01c0,0.98,0.94,1.57,2.81,1.78c4.88,0.54,8.19,1.09,9.93,1.66
			c1.74,0.57,3.22,1.6,4.45,3.11c1.23,1.5,1.85,3.32,1.85,5.45c0,3.26-1.36,5.85-4.09,7.77s-6.48,2.87-11.26,2.87
			C499.48,494.79,494.49,491.77,492.57,485.73z"/>
		<path d="M538.51,454.18v39.99H527v-39.99H538.51z"/>
		<path d="M556.35,452.92v9.26h-11.69v-9.26H556.35z M556.35,464.38v29.79h-11.69v-29.79H556.35z"/>
		<path d="M592.53,494.17H581.4c-0.27-1.27-0.41-2.66-0.41-4.16c-2.11,3.18-5.3,4.78-9.58,4.78c-3.52,0-6.15-0.9-7.9-2.7
			c-1.75-1.8-2.62-3.86-2.62-6.18c0-3.14,1.43-5.69,4.29-7.63c2.86-1.94,7.93-3.11,15.22-3.5v-0.67c0-1.31-0.3-2.18-0.89-2.61
			c-0.6-0.43-1.47-0.64-2.62-0.64c-2.7,0-4.2,1.08-4.51,3.25l-10.66-1c1.52-6.23,6.71-9.35,15.56-9.35c2.4,0,4.61,0.24,6.62,0.72
			c2.01,0.48,3.6,1.23,4.78,2.24s1.96,2.09,2.36,3.22c0.4,1.13,0.6,3.31,0.6,6.53v11.89C591.63,490.64,591.93,492.57,592.53,494.17z
			 M580.4,480.23c-4.98,0.53-7.47,2.12-7.47,4.78c0,1.8,0.99,2.7,2.96,2.7c1.25,0,2.31-0.37,3.19-1.11s1.32-2.38,1.32-4.92V480.23z"
			/>
		<path d="M608.88,494.17h-11.19v-29.79h9.73v6.15c1.11-4.47,3.7-6.71,7.76-6.71c0.41,0,0.98,0.04,1.7,0.12v10.4
			c-0.82-0.2-1.55-0.29-2.2-0.29c-3.87,0-5.8,2.16-5.8,6.47V494.17z"/>
		<path d="M640.17,464.38v7.59h-5.95v10.99c0,1.5,0.28,2.4,0.85,2.68c0.57,0.28,1.15,0.42,1.76,0.42c0.94,0,2.05-0.17,3.34-0.5v8.32
			c-2.3,0.45-4.57,0.67-6.8,0.67c-3.59,0-6.24-0.77-7.92-2.31c-1.69-1.54-2.53-4-2.53-7.38l0.03-3.49v-9.4h-4.45v-7.59h4.45
			l0.18-9.7l11.1-0.18v9.87H640.17z"/>
		<path d="M677.46,464.38v7.59h-5.95v10.99c0,1.5,0.28,2.4,0.85,2.68c0.57,0.28,1.15,0.42,1.76,0.42c0.94,0,2.05-0.17,3.34-0.5v8.32
			c-2.3,0.45-4.57,0.67-6.8,0.67c-3.59,0-6.24-0.77-7.92-2.31c-1.69-1.54-2.53-4-2.53-7.38l0.03-3.49v-9.4h-4.45v-7.59h4.45
			l0.18-9.7l11.1-0.18v9.87H677.46z"/>
		<path d="M701.05,483.48l10.9,0.73c-0.64,2.93-2.29,5.42-4.94,7.49c-2.65,2.06-6.23,3.09-10.74,3.09c-5.02,0-9.02-1.45-12.01-4.35
			s-4.48-6.5-4.48-10.8c0-4.45,1.47-8.21,4.42-11.28c2.95-3.07,6.88-4.6,11.81-4.6c4.77,0,8.62,1.45,11.56,4.34
			c2.94,2.89,4.41,6.83,4.41,11.81c0,0.41-0.01,0.98-0.03,1.7H692c0.04,1.88,0.37,3.27,1,4.17c0.63,0.91,1.82,1.36,3.57,1.36
			C699.1,487.14,700.6,485.92,701.05,483.48z M700.26,475.74c-0.02-2.01-0.42-3.36-1.21-4.06c-0.79-0.69-1.77-1.04-2.93-1.04
			c-2.76,0-4.15,1.7-4.15,5.1H700.26z"/>
		<path d="M727.74,494.17h-11.19v-29.79h9.73v6.15c1.11-4.47,3.7-6.71,7.76-6.71c0.41,0,0.98,0.04,1.7,0.12v10.4
			c-0.82-0.2-1.55-0.29-2.2-0.29c-3.87,0-5.8,2.16-5.8,6.47V494.17z"/>
		<path d="M757.39,482.16l9.96,0.85c-0.47,3.48-1.93,6.31-4.38,8.5c-2.45,2.19-5.71,3.28-9.77,3.28c-4.55,0-8.25-1.43-11.09-4.29
			s-4.26-6.53-4.26-11c0-4.57,1.41-8.33,4.23-11.29c2.82-2.96,6.49-4.44,11-4.44c4,0,7.27,1.12,9.79,3.35s3.96,5.06,4.34,8.48
			l-10.22,0.85c-0.43-3.14-1.62-4.72-3.57-4.72c-1.25,0-2.16,0.57-2.74,1.71c-0.58,1.14-0.86,3.13-0.86,5.96
			c0,2.44,0.29,4.25,0.86,5.42c0.58,1.17,1.58,1.76,3,1.76C755.76,486.58,757,485.11,757.39,482.16z"/>
		<path d="M790.49,483.48l10.9,0.73c-0.64,2.93-2.29,5.42-4.94,7.49c-2.65,2.06-6.23,3.09-10.74,3.09c-5.02,0-9.02-1.45-12.01-4.35
			s-4.48-6.5-4.48-10.8c0-4.45,1.47-8.21,4.42-11.28c2.95-3.07,6.88-4.6,11.81-4.6c4.77,0,8.62,1.45,11.56,4.34
			c2.94,2.89,4.41,6.83,4.41,11.81c0,0.41-0.01,0.98-0.03,1.7h-19.95c0.04,1.88,0.37,3.27,1,4.17c0.63,0.91,1.82,1.36,3.57,1.36
			C788.55,487.14,790.04,485.92,790.49,483.48z M789.7,475.74c-0.02-2.01-0.42-3.36-1.21-4.06c-0.79-0.69-1.77-1.04-2.93-1.04
			c-2.76,0-4.15,1.7-4.15,5.1H789.7z"/>
		<path d="M803.35,485.73l9.23-1.26c0.53,2.15,2.62,3.22,6.27,3.22c3.03,0,4.54-0.59,4.54-1.76c0-0.51-0.29-0.9-0.88-1.19
			s-1.97-0.57-4.16-0.87c-6.05-0.84-9.83-2.15-11.34-3.94c-1.5-1.79-2.26-3.77-2.26-5.96c0-3.05,1.27-5.51,3.81-7.4
			c2.54-1.88,5.87-2.83,9.99-2.83c7.23,0,11.84,2.61,13.83,7.82l-8.85,1.67c-0.82-1.76-2.55-2.64-5.19-2.64
			c-1.25,0-2.18,0.17-2.8,0.51s-0.92,0.68-0.92,1.01c0,0.98,0.94,1.57,2.81,1.78c4.88,0.54,8.19,1.09,9.93,1.66
			c1.74,0.57,3.22,1.6,4.45,3.11c1.23,1.5,1.85,3.32,1.85,5.45c0,3.26-1.36,5.85-4.09,7.77s-6.48,2.87-11.26,2.87
			C810.26,494.79,805.27,491.77,803.35,485.73z"/>
	</g>
	<rect x="417.18" y="399.16" class="st8" width="520.13" height="191.66"/>
</g>
</svg>
