<?xml version="1.0" encoding="utf-8"?>
<!-- Generator: Adobe Illustrator 23.0.5, SVG Export Plug-In . SVG Version: 6.00 Build 0)  -->
<svg version="1.1" id="圖層_1" xmlns="http://www.w3.org/2000/svg" xmlns:xlink="http://www.w3.org/1999/xlink" x="0px" y="0px"
	 viewBox="0 0 1920 1080" style="enable-background:new 0 0 1920 1080;" xml:space="preserve">
<style type="text/css">
	.st0{fill:#403F45;}
	.st1{fill:#522E1B;}
	.st2{fill:#585862;}
	.st3{fill:#9B806D;}
	.st4{fill:#282F3B;}
	.st5{fill:#504C54;}
	.st6{fill:#413F45;}
	.st7{fill:#442F2E;}
	.st8{fill:#6C7887;}
	.st9{fill:#3A404D;}
	.st10{fill:#626064;}
	.st11{fill:#A49581;}
	.st12{fill:#F9D99C;}
	.st13{fill:#B7A694;}
	.st14{fill:#393844;}
	.st15{fill:#F0D3AC;}
	.st16{fill:#666A76;}
	.st17{fill:#7F695B;}
	.st18{fill:#543C3A;}
	.st19{fill:#493E42;}
	.st20{fill:#65544E;}
	.st21{fill:#7779A0;}
	.st22{fill:#3E3E68;}
	.st23{fill:#5BC44D;}
	.st24{fill:#313331;}
	.st25{fill:#F2E1C2;}
	.st26{fill:#BCB8B7;}
</style>
<g>
	<g>
		<g>
			<path class="st0" d="M221.19,1063.84c-22.16-0.71-55.1-1.27-95.39,0c-41.29,1.3-57.47,3.49-66.97-7.28
				c-19.21-21.77,7.39-75.5,15.22-90.51c49.05,1.73,98.09,3.47,147.14,5.2V1063.84z"/>
			<rect x="365.29" y="244.06" class="st1" width="91.33" height="822.9"/>
			<path class="st2" d="M370.36,263.83c-14.21-7.28-28.41-14.56-42.62-21.85V219.1c18.94,7.63,37.88,15.26,56.83,22.89
				C379.83,249.27,375.1,256.55,370.36,263.83z"/>
			<path class="st3" d="M342.99,961.89c-81.2-0.35-162.4-0.69-243.6-1.04c-3.03-227.48-6.06-454.97-9.1-682.45
				c86.59,2.08,173.18,4.16,259.78,6.24C347.71,510.39,345.35,736.14,342.99,961.89z"/>
			<path class="st4" d="M365.71,1068c-48.17-1.39-96.35-2.77-144.52-4.16c1.11-33.98,2.22-67.97,3.34-101.95h141.18
				c3.47,16.14,6.25,36.63,5.56,60.34C370.76,1039.63,368.5,1055.05,365.71,1068z"/>
			<path class="st5" d="M353.11,1068c-43.97-1.39-87.95-2.77-131.92-4.16c1.01-33.98,2.03-67.97,3.04-101.95h128.87
				c3.17,16.14,5.7,36.63,5.07,60.34C357.72,1039.63,355.66,1055.05,353.11,1068z"/>
			<path class="st6" d="M336.87,284.64c-80.5-2.08-161.01-4.16-241.51-6.24c-9.47-13.18-18.94-26.35-28.41-39.53
				c88.96,0.35,177.92,0.69,266.88,1.04C334.84,254.81,335.86,269.73,336.87,284.64z"/>
			<path class="st7" d="M362.24,287.76c-8.12-1.04-16.24-2.08-24.35-3.12c-0.68-12.14-1.35-24.27-2.03-36.41
				c9.81,4.51,19.62,9.02,29.43,13.52C364.27,270.42,363.26,279.09,362.24,287.76z"/>
			<path class="st8" d="M333.83,239.9c-91.67,0-183.33,0-275,0c-0.29-0.47-3.36-5.6-1.01-11.44c2.24-5.57,7.51-7.12,8.12-7.28
				c87.95,0,175.89,0,263.84,0C331.12,227.42,332.48,233.66,333.83,239.9z"/>
			<path class="st9" d="M282.08,169.16c-41.27-1.39-82.53-2.77-123.8-4.16c3.38-10.06,6.77-20.11,10.15-30.17
				c32.13,0.69,64.27,1.39,96.4,2.08C270.58,147.66,276.33,158.41,282.08,169.16z"/>
			<path class="st10" d="M278.02,138.99c-43.63-0.69-87.27-1.39-130.9-2.08c-0.38-5.62-0.46-11.91,0-18.73
				c0.96-14.17,3.97-26.15,7.1-35.37c40.59,0,81.18,0,121.77,0C276.66,101.54,277.34,120.27,278.02,138.99z"/>
			<path class="st11" d="M328.75,166.04c-17.93-8.32-35.85-16.65-53.78-24.97c-0.34-20.11-0.68-40.23-1.01-60.34
				c24.69,17.69,49.38,35.37,74.08,53.06c0.68,3.12,1.35,6.24,2.03,9.36C342.96,150.78,335.86,158.41,328.75,166.04z"/>
			<path class="st12" d="M350.06,143.15c-25.37-20.81-50.74-41.61-76.11-62.42c5.41-8.32,10.82-16.65,16.24-24.97
				c22.32,22.54,44.65,45.08,66.97,67.62C354.8,129.98,352.43,136.56,350.06,143.15z"/>
			<path class="st13" d="M275.99,82.81c-40.59,0-81.18,0-121.77,0c8.12-9.02,16.24-18.03,24.35-27.05c37.21,0,74.42,0,111.62,0
				c0.32,2.61,0.47,6.76-1.01,11.44C286.05,77.04,278.07,81.69,275.99,82.81z"/>
			<path class="st14" d="M320.96,183.73c-13-4.51-26.01-9.02-39.01-13.52c-4.7-10.4-9.39-20.81-14.09-31.21
				c21.31,9.36,42.62,18.73,63.93,28.09C328.19,172.63,324.58,178.18,320.96,183.73z"/>
			<path class="st15" d="M384.57,241.98c-18.27-7.28-36.53-14.56-54.8-21.85c-15.9-16.99-31.8-33.98-47.69-50.98
				c12.85,4.51,25.71,9.02,38.56,13.52C341.95,202.45,363.26,222.22,384.57,241.98z"/>
			<path class="st16" d="M327.74,219.1c-87.95,0-175.89,0-263.84,0c7.65-7.44,16.42-15.2,26.38-22.89
				c17.66-13.63,34.74-23.72,49.72-31.21c47.02,1.39,94.03,2.77,141.05,4.16c8.54,4.66,21.1,12.96,32.47,27.05
				C320.17,204.42,324.67,212.47,327.74,219.1z"/>
			<path class="st17" d="M360.21,961.89c-8.12,0-16.24,0-24.35,0c0.34-225.75,0.68-451.5,1.01-677.25
				c8.46,1.04,16.91,2.08,25.37,3.12C361.57,512.47,360.89,737.18,360.21,961.89z"/>
			<rect x="369.34" y="245.1" class="st18" width="77.12" height="67.62"/>
			<rect x="369.34" y="312.73" class="st19" width="77.12" height="749.03"/>
			<path class="st2" d="M221.19,1063.84H98.41c1.54-10.81,2.68-28.29-2.03-48.9c-5.32-23.24-15.65-39.79-22.32-48.9
				c50.06-1.39,100.12-2.77,150.18-4.16C223.22,995.87,222.21,1029.85,221.19,1063.84z"/>
		</g>
		<g>
			<path class="st0" d="M1689.81,1044.07c22.16-0.71,55.1-1.27,95.39,0c41.29,1.3,57.47,3.49,66.97-7.28
				c19.21-21.77-7.39-75.5-15.22-90.51c-49.05,1.73-98.09,3.47-147.14,5.2V1044.07z"/>
			
				<rect x="1454.39" y="224.3" transform="matrix(-1 -4.604862e-11 4.604862e-11 -1 3000.1008 1271.4919)" class="st1" width="91.33" height="822.9"/>
			<path class="st2" d="M1540.64,244.06c14.21-7.28,28.41-14.56,42.62-21.85v-22.89c-18.94,7.63-37.88,15.26-56.83,22.89
				C1531.17,229.5,1535.9,236.78,1540.64,244.06z"/>
			<path class="st3" d="M1568.01,942.12c81.2-0.35,162.4-0.69,243.6-1.04c3.03-227.48,6.06-454.97,9.1-682.45
				c-86.59,2.08-173.18,4.16-259.78,6.24C1563.29,490.62,1565.65,716.37,1568.01,942.12z"/>
			<path class="st4" d="M1545.29,1048.23c48.17-1.39,96.35-2.77,144.52-4.16c-1.11-33.98-2.22-67.97-3.34-101.95h-141.18
				c-3.47,16.14-6.25,36.63-5.56,60.34C1540.24,1019.87,1542.5,1035.28,1545.29,1048.23z"/>
			<path class="st5" d="M1557.89,1048.23c43.97-1.39,87.95-2.77,131.92-4.16c-1.01-33.98-2.03-67.97-3.04-101.95h-128.87
				c-3.17,16.14-5.7,36.63-5.07,60.34C1553.28,1019.87,1555.34,1035.28,1557.89,1048.23z"/>
			<path class="st6" d="M1574.13,264.87c80.5-2.08,161.01-4.16,241.51-6.24c9.47-13.18,18.94-26.35,28.41-39.53
				c-88.96,0.35-177.92,0.69-266.88,1.04C1576.16,235.05,1575.14,249.96,1574.13,264.87z"/>
			<path class="st7" d="M1548.76,267.99c8.12-1.04,16.24-2.08,24.35-3.12c0.68-12.14,1.35-24.27,2.03-36.41
				c-9.81,4.51-19.62,9.02-29.43,13.52C1546.73,250.65,1547.74,259.32,1548.76,267.99z"/>
			<path class="st8" d="M1577.17,220.14c91.67,0,183.33,0,275,0c0.29-0.47,3.36-5.6,1.01-11.44c-2.24-5.57-7.51-7.12-8.12-7.28
				c-87.95,0-175.89,0-263.84,0C1579.88,207.65,1578.52,213.9,1577.17,220.14z"/>
			<path class="st9" d="M1628.92,149.4c41.27-1.39,82.53-2.77,123.8-4.16c-3.38-10.06-6.77-20.11-10.15-30.17
				c-32.13,0.69-64.27,1.39-96.4,2.08C1640.42,127.9,1634.67,138.65,1628.92,149.4z"/>
			<path class="st10" d="M1632.98,119.23c43.63-0.69,87.27-1.39,130.9-2.08c0.38-5.62,0.46-11.91,0-18.73
				c-0.96-14.17-3.97-26.15-7.1-35.37c-40.59,0-81.18,0-121.77,0C1634.34,81.77,1633.66,100.5,1632.98,119.23z"/>
			<path class="st11" d="M1582.25,146.27c17.93-8.32,35.85-16.65,53.78-24.97c0.34-20.11,0.68-40.23,1.01-60.34
				c-24.69,17.69-49.38,35.37-74.08,53.06c-0.68,3.12-1.35,6.24-2.03,9.36C1568.04,131.02,1575.14,138.65,1582.25,146.27z"/>
			<path class="st12" d="M1560.94,123.39c25.37-20.81,50.74-41.61,76.11-62.42c-5.41-8.32-10.82-16.65-16.24-24.97
				c-22.32,22.54-44.65,45.08-66.97,67.62C1556.2,110.21,1558.57,116.8,1560.94,123.39z"/>
			<path class="st13" d="M1635.01,63.05c40.59,0,81.18,0,121.77,0c-8.12-9.02-16.24-18.03-24.35-27.05c-37.21,0-74.42,0-111.62,0
				c-0.32,2.61-0.47,6.76,1.01,11.44C1624.95,57.27,1632.93,61.92,1635.01,63.05z"/>
			<path class="st14" d="M1590.04,163.96c13-4.51,26.01-9.02,39.01-13.52c4.7-10.4,9.39-20.81,14.09-31.21
				c-21.31,9.36-42.62,18.73-63.93,28.09C1582.81,152.86,1586.42,158.41,1590.04,163.96z"/>
			<path class="st15" d="M1526.43,222.22c18.27-7.28,36.53-14.56,54.8-21.85c15.9-16.99,31.8-33.98,47.69-50.98
				c-12.85,4.51-25.71,9.02-38.56,13.52C1569.05,182.69,1547.74,202.45,1526.43,222.22z"/>
			<path class="st16" d="M1583.26,199.33c87.95,0,175.89,0,263.84,0c-7.65-7.44-16.42-15.2-26.38-22.89
				c-17.66-13.63-34.74-23.72-49.72-31.21c-47.02,1.39-94.03,2.77-141.05,4.16c-8.54,4.66-21.1,12.96-32.47,27.05
				C1590.83,184.66,1586.33,192.7,1583.26,199.33z"/>
			<path class="st17" d="M1550.79,942.12c8.12,0,16.24,0,24.35,0c-0.34-225.75-0.68-451.5-1.01-677.25
				c-8.46,1.04-16.91,2.08-25.37,3.12C1549.43,492.7,1550.11,717.41,1550.79,942.12z"/>
			
				<rect x="1464.53" y="225.34" transform="matrix(-1 -4.587498e-11 4.587498e-11 -1 3006.1892 518.2984)" class="st18" width="77.12" height="67.62"/>
			
				<rect x="1464.53" y="292.96" transform="matrix(-1 -4.608726e-11 4.608726e-11 -1 3006.1892 1334.9517)" class="st19" width="77.12" height="749.03"/>
			<path class="st2" d="M1689.81,1044.07h122.78c-1.54-10.81-2.68-28.29,2.03-48.9c5.32-23.24,15.65-39.79,22.32-48.9
				c-50.06-1.39-100.12-2.77-150.18-4.16C1687.78,976.1,1688.79,1010.09,1689.81,1044.07z"/>
		</g>
		<g>
			<rect x="465.75" y="263.83" class="st20" width="32.47" height="771.92"/>
			<path class="st20" d="M920.35,168.12c-58.31,5.27-135.7,18.19-222.23,49.94c-85.06,31.21-151.94,70.7-199.91,104.03
				c0-16.3,0-32.6,0-48.9c47.33-31.38,110.44-66.91,188.74-95.71c90.61-33.33,171.87-46.71,233.39-52.02
				C920.35,139.69,920.35,153.9,920.35,168.12z"/>
			<rect x="914.27" y="110.9" class="st20" width="31.46" height="937.33"/>
			<rect x="498.22" y="888.02" class="st20" width="422.14" height="30.17"/>
			<rect x="498.22" y="978.53" class="st20" width="422.14" height="22.89"/>
			<path class="st20" d="M914.27,296.08c-69.55,9.37-158.4,28.7-255.72,69.7c-63.11,26.59-116.58,56.73-160.33,85.31
				c-0.68-28.78-1.35-57.56-2.03-86.35c19.06-5.97,48.78-15.99,84.22-31.21c55.7-23.92,67.82-35.88,117.71-55.14
				c13.39-5.17,49.7-18.65,98.43-29.13c46.43-9.98,86.82-13.51,117.71-14.56C914.27,255.16,914.27,275.62,914.27,296.08z"/>
			<rect x="849.32" y="169.16" class="st20" width="15.22" height="820.81"/>
			<rect x="783.36" y="169.16" class="st20" width="15.22" height="820.81"/>
			<rect x="702.18" y="173.32" class="st20" width="15.22" height="820.81"/>
			<rect x="640.28" y="221.18" class="st20" width="15.22" height="772.96"/>
			<rect x="567.22" y="248.23" class="st20" width="15.22" height="751.11"/>
		</g>
		<g>
			
				<rect x="1411.49" y="263.83" transform="matrix(-1 -4.593404e-11 4.593404e-11 -1 2855.4612 1299.5807)" class="st20" width="32.47" height="771.92"/>
			<path class="st20" d="M989.36,168.12c58.31,5.27,135.7,18.19,222.23,49.94c85.06,31.21,151.94,70.7,199.91,104.03
				c0-16.3,0-32.6,0-48.9c-47.33-31.38-110.44-66.91-188.74-95.71c-90.61-33.33-171.87-46.71-233.39-52.02
				C989.36,139.69,989.36,153.9,989.36,168.12z"/>
			
				<rect x="963.99" y="110.9" transform="matrix(-1 -4.625956e-11 4.625956e-11 -1 1959.4357 1159.1371)" class="st20" width="31.46" height="937.33"/>
			
				<rect x="989.36" y="888.02" transform="matrix(-1 -4.602908e-11 4.602908e-11 -1 2400.8525 1806.2178)" class="st20" width="422.14" height="30.17"/>
			
				<rect x="989.36" y="978.53" transform="matrix(-1 -4.602464e-11 4.602464e-11 -1 2400.8525 1979.9517)" class="st20" width="422.14" height="22.89"/>
			<path class="st20" d="M995.45,296.08c69.55,9.37,158.4,28.7,255.72,69.7c63.11,26.59,116.58,56.73,160.33,85.31
				c0.68-28.78,1.35-57.56,2.03-86.35c-19.06-5.97-48.78-15.99-84.22-31.21c-55.7-23.92-67.82-35.88-117.71-55.14
				c-13.39-5.17-49.7-18.65-98.43-29.13c-46.43-9.98-86.82-13.51-117.71-14.56C995.45,255.16,995.45,275.62,995.45,296.08z"/>
			
				<rect x="1045.17" y="169.16" transform="matrix(-1 -4.624802e-11 4.624802e-11 -1 2105.5598 1159.1371)" class="st20" width="15.22" height="820.81"/>
			
				<rect x="1111.13" y="169.16" transform="matrix(-1 -4.588919e-11 4.588919e-11 -1 2237.4775 1159.1371)" class="st20" width="15.22" height="820.81"/>
			
				<rect x="1192.31" y="173.32" transform="matrix(-1 -4.648694e-11 4.648694e-11 -1 2399.8379 1167.4597)" class="st20" width="15.22" height="820.81"/>
			
				<rect x="1254.21" y="221.18" transform="matrix(-1 -4.636748e-11 4.636748e-11 -1 2523.6375 1215.3146)" class="st20" width="15.22" height="772.96"/>
			
				<rect x="1327.27" y="248.23" transform="matrix(-1 -4.648694e-11 4.648694e-11 -1 2669.7617 1247.5646)" class="st20" width="15.22" height="751.11"/>
		</g>
		<rect x="1629.67" y="327.29" class="st21" width="138.01" height="247.6"/>
		<g>
			<rect x="1656.63" y="402.33" class="st22" width="23.31" height="16.86"/>
			<rect x="1686.33" y="402.33" class="st22" width="23.31" height="16.86"/>
			<rect x="1717.86" y="402.33" class="st22" width="23.31" height="16.86"/>
			<rect x="1717.86" y="425.47" class="st22" width="23.31" height="16.86"/>
			<rect x="1686.33" y="425.47" class="st22" width="23.31" height="16.86"/>
			<rect x="1656.63" y="425.47" class="st22" width="23.31" height="16.86"/>
			<rect x="1656.63" y="448.61" class="st22" width="23.31" height="16.86"/>
			<rect x="1687.24" y="448.61" class="st22" width="23.31" height="16.86"/>
			<rect x="1717.86" y="448.61" class="st22" width="23.31" height="16.86"/>
			<rect x="1717.86" y="471.25" class="st22" width="23.31" height="16.86"/>
			<rect x="1687.24" y="471.25" class="st22" width="23.31" height="16.86"/>
			<rect x="1656.63" y="471.25" class="st22" width="23.31" height="16.86"/>
		</g>
		<rect x="1650.23" y="341.84" class="st23" width="97.34" height="48.59"/>
		<rect x="1650.23" y="514.06" class="st24" width="35.64" height="25.78"/>
		<rect x="1711.92" y="514.06" class="st24" width="35.64" height="25.78"/>
	</g>
	<rect x="136.81" y="447.61" class="st25" width="151.57" height="105.89"/>
	<rect x="202.44" y="434.41" class="st26" width="20.31" height="26.4"/>
	<g>
		<path d="M152.35,488.78c-0.28,0.26-0.61,0.39-0.99,0.39s-0.72-0.13-0.99-0.39c-0.28-0.26-0.41-0.57-0.41-0.93v-13.6
			c0-0.54,0.2-1,0.6-1.38c0.4-0.38,0.89-0.57,1.45-0.57h3.36c4.52,0,6.78,1.7,6.78,5.1c0,1.77-0.61,3.11-1.83,4.01
			c-1.22,0.9-2.84,1.35-4.86,1.35H153c-0.16,0-0.24,0.07-0.24,0.22v4.85C152.76,488.21,152.63,488.52,152.35,488.78z M152.76,480.43
			c0,0.15,0.08,0.22,0.24,0.22h2.2c1.42,0,2.47-0.26,3.17-0.79c0.69-0.53,1.04-1.35,1.04-2.45c0-1.09-0.35-1.85-1.05-2.29
			s-1.79-0.66-3.27-0.66H153c-0.16,0-0.24,0.07-0.24,0.22V480.43z"/>
		<path d="M175.59,489.17c-0.44,0-0.84-0.13-1.19-0.38c-0.35-0.25-0.59-0.57-0.72-0.96l-1.02-3.24c-0.05-0.15-0.15-0.22-0.31-0.22
			h-5.72c-0.16,0-0.26,0.07-0.31,0.22l-1.04,3.29c-0.13,0.39-0.36,0.7-0.7,0.94c-0.34,0.24-0.72,0.36-1.15,0.36
			c-0.35,0-0.62-0.13-0.83-0.4c-0.13-0.18-0.19-0.37-0.19-0.56c0-0.1,0.02-0.21,0.05-0.31l4.94-14.13c0.16-0.43,0.43-0.78,0.83-1.05
			c0.39-0.27,0.83-0.4,1.31-0.4c0.48,0,0.92,0.13,1.31,0.4c0.39,0.27,0.67,0.62,0.83,1.05l4.91,14.07c0.05,0.12,0.07,0.23,0.07,0.34
			c0,0.21-0.07,0.4-0.21,0.58C176.24,489.03,175.95,489.17,175.59,489.17z M167.13,482.06c-0.02,0.06-0.01,0.11,0.02,0.16
			c0.03,0.04,0.08,0.07,0.14,0.07h4.39c0.06,0,0.11-0.02,0.14-0.07c0.03-0.04,0.04-0.1,0.02-0.16l-0.64-2.06
			c-0.3-0.91-0.86-2.76-1.68-5.55c-0.02-0.03-0.04-0.04-0.07-0.04c-0.03,0-0.05,0.01-0.05,0.04c-0.44,1.65-0.98,3.5-1.63,5.55
			L167.13,482.06z"/>
		<path d="M184.45,489.46c-2,0-3.79-0.56-5.36-1.68c-0.32-0.21-0.47-0.51-0.47-0.89c0-0.33,0.11-0.6,0.33-0.81
			c0.22-0.25,0.5-0.39,0.85-0.4c0.03,0,0.06,0,0.09,0c0.31,0,0.6,0.08,0.85,0.25c1.2,0.82,2.45,1.23,3.76,1.23
			c1.07,0,1.9-0.22,2.49-0.65s0.89-1.01,0.89-1.74c0-0.3-0.06-0.57-0.17-0.81c-0.11-0.24-0.23-0.44-0.35-0.59
			c-0.13-0.16-0.34-0.32-0.65-0.5c-0.31-0.18-0.56-0.31-0.74-0.39c-0.19-0.08-0.5-0.21-0.94-0.39l-2.48-1.01
			c-2.41-0.97-3.61-2.45-3.61-4.43c0-1.33,0.55-2.43,1.65-3.32c1.1-0.89,2.5-1.33,4.21-1.33c1.65,0,3.16,0.47,4.51,1.41
			c0.28,0.19,0.43,0.47,0.43,0.83c0,0.28-0.1,0.53-0.28,0.74c-0.21,0.22-0.47,0.35-0.78,0.38c-0.05,0.01-0.09,0.02-0.14,0.02
			c-0.27,0-0.51-0.07-0.73-0.22c-0.93-0.57-1.93-0.85-3-0.85c-0.91,0-1.64,0.2-2.19,0.59c-0.54,0.4-0.81,0.93-0.81,1.6
			c0,0.27,0.06,0.52,0.18,0.76c0.12,0.24,0.25,0.44,0.39,0.59c0.14,0.16,0.37,0.31,0.67,0.47c0.31,0.16,0.56,0.28,0.76,0.37
			c0.2,0.09,0.49,0.2,0.89,0.34l2.43,0.98c1.17,0.48,2.06,1.07,2.69,1.78s0.95,1.64,0.95,2.78c0,1.4-0.57,2.57-1.71,3.5
			S186.35,489.46,184.45,489.46z"/>
		<path d="M198.74,489.46c-2,0-3.79-0.56-5.36-1.68c-0.32-0.21-0.47-0.51-0.47-0.89c0-0.33,0.11-0.6,0.33-0.81
			c0.22-0.25,0.5-0.39,0.85-0.4c0.03,0,0.06,0,0.09,0c0.31,0,0.6,0.08,0.85,0.25c1.2,0.82,2.45,1.23,3.76,1.23
			c1.07,0,1.9-0.22,2.49-0.65s0.89-1.01,0.89-1.74c0-0.3-0.06-0.57-0.17-0.81c-0.11-0.24-0.23-0.44-0.35-0.59s-0.34-0.32-0.65-0.5
			c-0.31-0.18-0.56-0.31-0.74-0.39c-0.19-0.08-0.5-0.21-0.94-0.39l-2.48-1.01c-2.41-0.97-3.61-2.45-3.61-4.43
			c0-1.33,0.55-2.43,1.65-3.32c1.1-0.89,2.5-1.33,4.21-1.33c1.65,0,3.16,0.47,4.51,1.41c0.28,0.19,0.43,0.47,0.43,0.83
			c0,0.28-0.1,0.53-0.28,0.74c-0.21,0.22-0.47,0.35-0.78,0.38c-0.05,0.01-0.09,0.02-0.14,0.02c-0.27,0-0.51-0.07-0.73-0.22
			c-0.93-0.57-1.93-0.85-3-0.85c-0.91,0-1.64,0.2-2.19,0.59c-0.54,0.4-0.81,0.93-0.81,1.6c0,0.27,0.06,0.52,0.18,0.76
			c0.12,0.24,0.25,0.44,0.39,0.59c0.14,0.16,0.37,0.31,0.67,0.47c0.31,0.16,0.56,0.28,0.76,0.37c0.2,0.09,0.49,0.2,0.89,0.34
			l2.43,0.98c1.17,0.48,2.06,1.07,2.69,1.78c0.63,0.71,0.95,1.64,0.95,2.78c0,1.4-0.57,2.57-1.71,3.5S200.65,489.46,198.74,489.46z"
			/>
		<path d="M211.88,489.17c-0.49,0-0.93-0.15-1.31-0.45c-0.39-0.3-0.63-0.67-0.72-1.12l-3.02-13.93c-0.02-0.1-0.02-0.19-0.02-0.27
			c0-0.25,0.09-0.48,0.26-0.67c0.24-0.28,0.54-0.42,0.92-0.42c0.43,0,0.8,0.13,1.12,0.39s0.52,0.59,0.58,0.97l1.42,7.42l0.95,5.35
			c0,0.03,0.02,0.04,0.05,0.04c0.03,0,0.06-0.01,0.07-0.04c0.3-1.4,0.69-3.18,1.18-5.35l2.01-7.65c0.1-0.33,0.28-0.6,0.57-0.82
			c0.28-0.22,0.61-0.32,0.97-0.32c0.36,0,0.68,0.11,0.97,0.32s0.47,0.49,0.57,0.82l2.01,7.65c0.17,0.69,0.41,1.71,0.71,3.06
			c0.3,1.36,0.46,2.12,0.5,2.28c0.02,0.03,0.04,0.04,0.08,0.04c0.04,0,0.06-0.01,0.06-0.04c0.11-0.72,0.28-1.71,0.5-3
			s0.35-2.06,0.4-2.35l1.44-7.54c0.06-0.36,0.24-0.66,0.54-0.89c0.3-0.24,0.65-0.36,1.04-0.36c0.35,0,0.63,0.13,0.85,0.38
			c0.17,0.19,0.26,0.41,0.26,0.65c0,0.07-0.01,0.15-0.02,0.22l-2.91,14c-0.11,0.46-0.36,0.85-0.74,1.15s-0.83,0.46-1.33,0.46
			c-0.5,0-0.96-0.15-1.36-0.45c-0.4-0.3-0.66-0.68-0.77-1.14l-1.98-7.78c-0.3-1.27-0.58-2.53-0.83-3.8c0-0.04-0.02-0.07-0.06-0.07
			c-0.04,0-0.07,0.02-0.08,0.07c-0.09,0.49-0.36,1.76-0.8,3.8l-1.96,7.81c-0.11,0.46-0.36,0.84-0.76,1.13
			S212.37,489.17,211.88,489.17z"/>
		<path d="M242.25,487.08c-1.43,1.59-3.3,2.38-5.62,2.38c-2.32,0-4.2-0.79-5.62-2.38c-1.43-1.59-2.14-3.72-2.14-6.41
			s0.71-4.8,2.14-6.35c1.43-1.55,3.3-2.33,5.62-2.33c2.32,0,4.2,0.78,5.62,2.34c1.43,1.56,2.14,3.67,2.14,6.34
			C244.39,483.36,243.68,485.49,242.25,487.08z M233.07,485.4c0.88,1.17,2.06,1.76,3.54,1.76c1.48,0,2.67-0.59,3.56-1.76
			c0.89-1.17,1.34-2.75,1.34-4.73c0-1.97-0.45-3.52-1.34-4.66c-0.89-1.14-2.08-1.71-3.56-1.71c-1.48,0-2.66,0.57-3.54,1.71
			c-0.88,1.14-1.32,2.69-1.32,4.66C231.75,482.66,232.19,484.23,233.07,485.4z"/>
		<path d="M260.17,487.87c0.08,0.15,0.12,0.29,0.12,0.44s-0.04,0.29-0.12,0.44c-0.19,0.28-0.46,0.42-0.8,0.42
			c-0.49,0-0.95-0.12-1.37-0.35c-0.43-0.23-0.76-0.55-0.99-0.95l-3.14-5.3c-0.08-0.13-0.2-0.2-0.35-0.2h-2.41
			c-0.16,0-0.24,0.07-0.24,0.22v5.26c0,0.36-0.14,0.67-0.41,0.93c-0.28,0.26-0.61,0.39-0.99,0.39s-0.72-0.13-0.99-0.39
			c-0.28-0.26-0.41-0.57-0.41-0.93v-13.6c0-0.54,0.2-1,0.6-1.38c0.4-0.38,0.89-0.57,1.45-0.57h3.78c4.28,0,6.43,1.63,6.43,4.88
			c0,1.22-0.31,2.23-0.92,3.03c-0.61,0.8-1.47,1.38-2.58,1.73c-0.14,0.06-0.17,0.15-0.09,0.27L260.17,487.87z M251.1,474.46
			c-0.16,0-0.24,0.07-0.24,0.22v5.35c0,0.15,0.08,0.22,0.24,0.22h2.46c2.66,0,3.99-1.02,3.99-3.06c0-0.98-0.33-1.68-0.99-2.1
			c-0.66-0.42-1.66-0.63-3-0.63H251.1z"/>
		<path d="M265.91,489.17c-0.57,0-1.05-0.19-1.45-0.57c-0.4-0.38-0.6-0.84-0.6-1.38v-12.97c0-0.54,0.2-1,0.6-1.38
			c0.4-0.38,0.89-0.57,1.45-0.57h2.58c2.76,0,4.87,0.71,6.36,2.14c1.48,1.42,2.22,3.5,2.22,6.23c0,2.73-0.74,4.83-2.21,6.3
			c-1.47,1.47-3.55,2.2-6.23,2.2H265.91z M266.67,486.8c0,0.15,0.08,0.22,0.24,0.2h1.39c1.92,0,3.38-0.53,4.38-1.6
			c1-1.07,1.5-2.64,1.5-4.73c0-4.14-1.96-6.21-5.88-6.19h-1.39c-0.16,0-0.24,0.07-0.24,0.22V486.8z"/>
	</g>
</g>
</svg>
