<?xml version="1.0" encoding="utf-8"?>
<!-- Generator: Adobe Illustrator 23.0.5, SVG Export Plug-In . SVG Version: 6.00 Build 0)  -->
<svg version="1.1" id="圖層_1" xmlns="http://www.w3.org/2000/svg" xmlns:xlink="http://www.w3.org/1999/xlink" x="0px" y="0px"
	 viewBox="0 0 1920 1080" style="enable-background:new 0 0 1920 1080;" xml:space="preserve">
<style type="text/css">
	.st0{fill:url(#SVGID_1_);}
	.st1{fill:#F7E3BF;}
	.st2{fill:#CFDFD2;}
	.st3{fill:#597D5C;}
	.st4{fill:#93BBAB;}
	.st5{fill:#5B745B;}
	.st6{fill:#572E1B;}
	.st7{fill:#7F7A1F;}
	.st8{fill:#4E8A57;}
	.st9{fill:#9F7F6A;}
	.st10{fill:#614A44;}
	.st11{fill:#282B15;}
	.st12{fill:#343A14;}
	.st13{fill:#3D7D59;}
	.st14{fill:#DDB785;}
	.st15{fill:#3A2701;}
	.st16{fill:#427673;}
	.st17{fill:#447562;}
	.st18{fill:#F3E6CC;}
</style>
<linearGradient id="SVGID_1_" gradientUnits="userSpaceOnUse" x1="941.1625" y1="-6.9749" x2="967.4816" y2="1294.3813" gradientTransform="matrix(1 0 0 -1 0 1080)">
	<stop  offset="0" style="stop-color:#D7EEE4"/>
	<stop  offset="0.8104" style="stop-color:#4FBBD2"/>
</linearGradient>
<rect x="-8" y="-1" class="st0" width="1922" height="1005.33"/>
<g>
	<path class="st1" d="M983.27,328.08c-0.91-13.78-7.6-26.47-14.96-38.16c-13.94-22.15-33.43-43.97-59.39-47.28
		c-10.03-1.28-20.87,0.22-29.68-4.73c-11.68-6.56-21.24-23.91-33.28-18.03c17.97-26.98,36.68-59.92,24.45-89.95
		c-4.15-10.18-11.55-18.73-19.73-26.09c-50-44.97-129.3-46.22-189-15.27c-8.07,4.18-17.89,8.9-25.66,4.19
		c4.63-18.58,9.29-37.63,7.34-56.68C641.94,22.23,636.3,8.2,626.64-1.5H-2v391.92c20.16,13.17,48.08,17.35,73.07,19.64
		c100.25,9.18,200.5,18.36,300.75,27.54c58.21,5.33,116.94,10.65,174.97,3.63c44.72-5.41,88.31-18.08,133.02-23.54
		c75.04-9.16,152.34,2.07,225.86-15.51c18.95-4.53,37.88-11.18,52.98-23.51C973.75,366.36,984.55,347.52,983.27,328.08z"/>
</g>
<g>
	<path class="st2" d="M1170.44,255.67c-7.41-15.6,1.18-36.67,17.38-42.64c13.87-5.11,30.73-0.24,43.12-8.31
		c14.29-9.31,14.41-29.63,19.76-45.82c7.1-21.46,26.56-38.34,48.81-42.34c5.86-1.05,12.07-1.34,17.21-4.36
		c5.85-3.44,9.24-9.76,13.25-15.24c19.84-27.11,56.36-34.76,89.54-40c17.42-2.75,35.18-5.4,52.61-2.74
		c17.43,2.65,34.8,11.44,43.59,26.73c5.6,9.74,7.32,21.24,12.08,31.41s14.55,19.66,25.69,18.17c17.75-34.47,65.59-49.34,99.75-31.02
		c16.56,8.88,29.15,23.79,45.27,33.45c39.39,23.61,97.34,15.05,125.18,51.56c12.49,16.38,15.21,37.96,17.51,58.43
		c2.17,19.33,4.19,39.71-3.6,57.53c-5.03,11.5-13.75,20.91-22.32,30.09c-54.61,58.52-113.25,119.56-190.34,141.11
		c-29.5,8.25-60.36,10.22-90.97,11.31c-31.33,1.11-62.69,1.34-94.04,1.56c-15.82,0.11-31.93,0.19-47.08-4.41
		c-12.04-3.65-23.06-10.15-35.1-13.8c-14.94-4.53-30.82-4.5-46.43-4.29c-43.63,0.57-87.87,2.2-130.29-8.05
		c-42.42-10.24-83.68-34.29-103.89-72.97c-11.87-22.71-13.15-55.63,8.5-69.33c4.96-3.14,10.76-4.99,15.22-8.82
		c9.51-8.16,11.19-23.77,22.18-29.79c9.37-5.13,22.18-0.83,30.97-6.9"/>
</g>
<g>
	<path class="st3" d="M207.09,307.88c21.46-6.88,44.29-13.76,65.59-6.23c21.3,7.53,39,35.53,30.54,59.77
		c22.04-2.71,44.39,17.08,48.34,42.78c1.22,7.91,0.93,16.29,3.75,23.61c3.35,8.69,10.44,14.34,16.57,20.57
		c11.11,11.3,20.17,26.89,20.6,44.18c0.44,17.3-10.15,35.48-24.78,36.88c7.01,21.34,23.95,35.36,37.99,51.17
		c28.58,32.21,46.74,74.84,64.36,116.58c1.88,4.45,3.79,9.04,4.07,14c0.63,10.98-6.75,20.25-14.34,26.67
		c-36.05,30.46-84.2,28.91-128.49,26.11c-85.15-5.38-170.3-10.76-255.45-16.14c-20.58-1.3-41.59-2.71-60.69-11.83
		s-36.27-27.51-40.21-51.36c-2.37-14.31,0.16-29.05,2.93-43.27c6.83-35.03,15.25-70.33,13.71-106.22
		c-0.88-20.44-4.99-40.78-3.41-61.17c2.85-36.86,24.33-68.89,50.53-89.26s56.91-30.87,87.18-40.65
		c30.27-9.78,61.08-19.35,88.11-38.17"/>
</g>
<path class="st4" d="M1929,717.83h-400.49V460.77c25.42,1.27,61.96-0.51,99.28-17.58c75.04-34.32,84-98.81,129.74-109.86
	c32.61-7.88,84.89,11.18,171.48,127.43C1929,546.46,1929,632.15,1929,717.83z"/>
<g>
	<path class="st5" d="M1757.54,724.21c1.17-16.38,2.29-33.22-2.08-48.93c-2.16-7.78-5.61-16.37-2.21-23.6
		c3.04-6.47,10.28-8.84,15.23-13.68c7.81-7.61,9.12-20.26,13.81-30.5c4.51-9.85,12.53-17.71,21.95-21.51
		c5.73-2.31,11.9-3.17,17.49-5.88c12.67-6.13,21.09-21.09,34.52-24.77c4.5-1.23,9.38-1.11,13.47-3.53c3.17-1.87,5.49-5.06,7.85-8.05
		c10.53-13.39,23.53-24.42,37.97-32.24c1.11-0.6,2.26-1.2,3.49-1.29c5.18-0.4,7.33,7.07,7.71,12.77c4.16,62,6.52,124.15,7.05,186.33
		c0.02,2.6-0.03,5.44-1.5,7.47c-1.31,1.8-3.45,2.57-5.5,3.05c-5,1.19-10.16,1.22-15.28,1.25c-50.9,0.31-101.79,0.63-152.69,0.93"/>
</g>
<path class="st6" d="M1863.24,398.17c0.18,0.27,0.35,0.56,0.53,0.83c22.33-30.4,44.67-60.78,67-91.18
	c-23.24,19.86-46.48,39.71-69.73,59.58c-3.28-44.16-7.04-87.83-11.27-130.98c-5.33,0.36-10.67,0.74-16,1.1
	c2.84,38.07,5.04,77.22,6.52,117.37c-25.15-17.07-50.3-34.14-75.45-51.22c25.36,23.37,50.73,46.74,76.09,70.11
	c2.21,71.63,2.05,146.4-1.16,224.06c-1.46,35.18-3.48,69.61-6,103.27c14,0.36,28,0.74,42,1.1c-0.25-17.86-0.58-35.81-1-53.83
	C1872.78,563.32,1868.85,479.91,1863.24,398.17z"/>
<g>
	<path class="st7" d="M1921-1.5h-250.97c-3.31,2.19-6.2,4.98-8.38,8.55c-1.94,3.18-3.2,6.82-5.41,9.79
		c-3.44,4.62-8.77,7.07-13.15,10.67c-4.39,3.6-8.08,9.63-6.13,15.15l0.74-0.42c2.3,5.7-0.8,12.23-4.51,17s-8.3,9.25-9.63,15.29
		c-1.84,8.41,2.71,19.14-3.35,24.87c-2.63,2.49-6.46,2.94-9.34,5.08c-5.31,3.96-5.73,12.44-3.41,18.9
		c2.31,6.46,6.66,11.86,9.42,18.12c3.98,9.03,4.66,19.83,10.6,27.54c5.71,7.41,15.1,10.38,21.61,16.99
		c6.73,6.84,9.66,16.75,13.7,25.69c4.04,8.94,10.48,17.95,19.68,19.32c8.1,1.2,17.36-3.71,24.02,1.37c2.69,2.04,4.29,5.35,6.74,7.71
		c6.87,6.6,19.17,4.79,24.38,12.93c5.82,9.08-1.38,24.68,7.05,31c5.95,4.46,13.84-0.34,20.89-2.27c12.42-3.42,25.16,2.77,36.96,8.11
		c11.81,5.35,25.61,9.95,37.05,3.75c11.81-6.42,17.04-22.4,28.97-28.54c1.76-0.91,3.76-1.58,5.67-1.11
		c3.16,0.78,4.91,4.25,6.89,6.99c9.07,12.56,27.75,11.44,39.91,2.01L1921-1.5L1921-1.5z"/>
</g>
<g>
	<path class="st8" d="M1789.27,721.89c-2.3-12.94,4.71-27.13,15.83-32.09c13.28-5.91,28.8,0.82,42.57-3.52
		c5.55-1.75,10.5-5.21,15.79-7.76c14.59-7.04,31.95-6.81,46.38,0.62c14.43,7.44,25.69,21.94,30.1,38.77
		c-49.78,10.05-100.83,12.5-151.22,7.24c-0.32-2.64,0.6-5.43,2.39-7.23"/>
</g>
<rect x="1530.51" y="745.83" class="st9" width="392.49" height="148"/>
<rect x="1530.51" y="719.67" class="st10" width="392.49" height="25.99"/>
<rect x="3" y="745.83" class="st9" width="449" height="148"/>
<rect y="717.83" class="st10" width="452" height="28"/>
<g>
	<path class="st11" d="M1260.54,932.55c28.22-21.93,64.73-32.9,100.37-30.17c26.12,2,52.27,11.03,77.98,6.01
		c9.82-1.92,19.23-5.86,29.17-7.02c7.19-0.84,14.58-0.22,21.58-2.07c16.88-4.47,26.98-21.72,42.17-30.33
		c15.1-8.55,33.46-7.72,50.69-9.73c32.77-3.82,64.1-19.07,87.32-42.52c13.4-13.53,26.81-31,45.85-31.31
		c12.31-0.2,23.25,7.12,34.43,12.27c27.31,12.58,58.66,12.7,88.59,9.81c29.93-2.88,59.83-8.54,89.84-6.65
		c2.55,0.16,5.37,0.52,7.01,2.48c1.37,1.64,1.5,3.96,1.53,6.1c0.16,9.52-0.26,19.05-1.26,28.52c-0.47,4.41-1.18,9.1-4.14,12.4
		c-2.74,3.07-6.91,4.38-10.87,5.53c-32.03,9.29-64.57,16.81-97.42,22.54c-40.84,7.11-82.26,11.46-122.38,21.92
		c-48.76,12.71-94.98,34.29-144.19,45.12c-53.81,11.84-109.57,10.47-164.6,7.82c-42.31-2.04-85.02-4.87-125.64-16.88
		c-3.4-1.01-7.5-4.91-4.76-7.16"/>
</g>
<g>
	<path class="st12" d="M89.3,853.45c8.59-10.21,23.43-14.66,36.23-10.87c5.16,1.53,10.19,4.29,15.55,3.8
		c4.43-0.4,8.32-2.98,12.1-5.34c19.83-12.38,45.99-20.39,66.05-8.38c4.64,2.78,8.75,6.54,13.83,8.4c7.95,2.93,16.75,0.74,25.23,0.76
		c8.69,0.02,17.36,2.48,24.78,7.02c1.91,1.17,3.84,2.51,6.07,2.67c2.74,0.19,5.23-1.43,7.52-2.94
		c13.11-8.67,27.54-16.08,43.15-17.94c15.61-1.87,32.62,2.6,42.94,14.46c6.73,7.73,11.05,18.67,20.73,22.03
		c4.1,1.42,8.58,1.2,12.88,0.63c10.56-1.38,20.84-4.69,31.46-5.39s22.24,1.72,29.21,9.77c3.96,4.58,6.12,10.61,10.59,14.7
		c12.33,11.28,32.33,1.45,48.63,5.15c10.99,2.49,19.58,11.06,30.1,15.09c9.07,3.48,19.05,3.4,28.77,3.28
		c23.59-0.29,47.18-0.58,70.76-0.87c17.85-0.22,38,0.5,50.04,13.68c2.15,2.36,4.03,5.34,3.73,8.52c-0.67,7.12-10.25,8.72-17.39,8.42
		c-58.13-2.49-116.41-1.49-174.42,3c-21.95,1.7-44.65,3.81-65.47-3.35c-21.95-7.54-39.47-24.64-61.06-33.16
		c-28.88-11.39-61.21-6.25-92.17-3.97c-63.17,4.63-126.67-3.53-188.66-16.52c-8.95-1.88-18.35-4.1-24.98-10.39
		c-6.63-6.3-8.94-18.06-2.37-24.41"/>
</g>
<path class="st13" d="M775,1152.83H0c0.17-94.5,0.33-189,0.5-283.5c112.79,6.26,225.45,13.93,338,23
	c141.84,11.43,283.51,25.1,425,41C767.33,1006.5,771.17,1079.66,775,1152.83z"/>
<path class="st13" d="M1925,1156.83h-603c-23.33-72.33-46.67-144.67-70-217c134.31,4.72,233.13,7.71,265,9
	c4.77,0.19,17.59,0.74,33-4c23.48-7.21,37.89-22.05,42-26c8.13-7.81,33.17-27.96,193-51c36.51-5.26,83.99-11.24,140-16
	C1925,953.5,1925,1055.16,1925,1156.83z"/>
<path class="st14" d="M1769,1156.83c-518.67-1.33-1037.33-2.67-1556-4c184.67-71.67,369.33-143.33,554-215c160.33,0,320.67,0,481,0
	C1421.67,1010.83,1595.33,1083.83,1769,1156.83z"/>
<rect x="-69.51" y="521.53" transform="matrix(0.1598 -0.9872 0.9872 0.1598 -512.3201 464.1326)" class="st15" width="172.01" height="23"/>
<path class="st15" d="M100.61,487.06c-26.6,19.79-53.2,39.59-79.79,59.38l-8.91-20.13C41.48,513.23,71.05,500.14,100.61,487.06z"/>
<g>
	<path class="st16" d="M211.63,406.1c-3.75-2.03-8.28-4.84-7.89-9.08c0.24-2.63,2.39-4.64,4.46-6.27
		c7.82-6.17,16.74-11.04,23.57-18.29c17.53-18.6,16.79-48.98,5.17-71.75c-11.62-22.77-31.88-39.7-51.6-55.96
		c19.46-6.89,32.11-27.46,33.07-48.08c0.97-20.62-8.29-40.76-21.8-56.36c8.79-8.78,17.71-17.74,23.49-28.74
		c9.39-17.89,9.35-39.87,2.28-58.8s-20.65-34.95-36.62-47.33c-2.95-2.29-6.02-4.46-9.2-6.44H-2v447.03
		c19.94,4.59,39.97,8.84,59.04,16.15c21.34,8.17,41.53,20.17,64.08,23.87c28.81,4.74,57.89-4.58,85.56-13.91
		c10.3-3.47,21.4-7.58,27.12-16.82c5.31-8.59,4.5-20.02-0.28-28.91C228.73,417.52,220.5,410.92,211.63,406.1z"/>
</g>
<path class="st17" d="M35.39,611c-12.22,0-23.85,1.76-34.39,4.95v109.75c10.54,3.17,22.16,4.95,34.39,4.95
	c47.66,0,86.29-26.79,86.29-59.83S83.05,611,35.39,611z"/>
<g>
	<path class="st18" d="M1145.23,111.79c0.5-6.99,7.18-12.95,14.18-12.66c1.73,0.07,3.59,0.45,5.12-0.36
		c2.66-1.41,2.71-5.44,5.09-7.29c3.08-2.39,8.07,0.19,11.27-2.04c2.43-1.69,2.51-5.16,3.14-8.05c2.5-11.42,15.61-16.61,27.02-19.16
		c6.99-1.56,14.23-2.85,21.3-1.66c7.07,1.19,14.02,5.29,16.85,11.88c1.06,2.47,1.63,5.37,3.74,7.05c2.88,2.29,7.05,1.18,10.71,1.48
		c8.04,0.65,14.09,9.97,11.41,17.58c-3.29,9.36-15.12,11.89-25.01,12.81c-33.44,3.12-67.03,4.62-100.62,4.5
		c-1.77-0.01-3.69-0.07-5.04-1.21c-1.35-1.14-1.44-3.76,0.21-4.38"/>
</g>
<g>
	<g>
		<path class="st18" d="M1170.5,257c1.93,0,1.93-3,0-3S1168.57,257,1170.5,257L1170.5,257z"/>
	</g>
</g>
</svg>
