<?xml version="1.0" encoding="utf-8"?>
<!-- Generator: Adobe Illustrator 23.0.5, SVG Export Plug-In . SVG Version: 6.00 Build 0)  -->
<svg version="1.1" id="圖層_1" xmlns="http://www.w3.org/2000/svg" xmlns:xlink="http://www.w3.org/1999/xlink" x="0px" y="0px"
	 viewBox="0 0 1920 1080" style="enable-background:new 0 0 1920 1080;" xml:space="preserve">
<style type="text/css">
	.st0{fill:#403F45;}
	.st1{fill:#522E1B;}
	.st2{fill:#585862;}
	.st3{fill:#9B806D;}
	.st4{fill:#282F3B;}
	.st5{fill:#504C54;}
	.st6{fill:#413F45;}
	.st7{fill:#442F2E;}
	.st8{fill:#6C7887;}
	.st9{fill:#3A404D;}
	.st10{fill:#626064;}
	.st11{fill:#A49581;}
	.st12{fill:#F9D99C;}
	.st13{fill:#B7A694;}
	.st14{fill:#393844;}
	.st15{fill:#F0D3AC;}
	.st16{fill:#666A76;}
	.st17{fill:#7F695B;}
	.st18{fill:#543C3A;}
	.st19{fill:#493E42;}
	.st20{fill:#65544E;}
	.st21{fill:#7779A0;}
	.st22{fill:#3E3E68;}
	.st23{fill:#5BC44D;}
	.st24{fill:#313331;}
</style>
<g>
	<g>
		<path class="st0" d="M221.2,1064c-22.2-0.7-55.1-1.2-95.4,0c-41.3,1.2-57.5,3.3-67-7c-19.2-20.8,7.4-72.2,15.2-86.5
			c49.1,1.7,98.1,3.3,147.1,5V1064z"/>
		<rect x="365.3" y="280.6" class="st1" width="91.3" height="786.3"/>
		<path class="st2" d="M370.4,299.5c-14.2-7-28.4-13.9-42.6-20.9v-21.9c18.9,7.3,37.9,14.6,56.8,21.9
			C379.8,285.6,375.1,292.6,370.4,299.5z"/>
		<path class="st3" d="M343,966.6c-81.2-0.3-162.4-0.7-243.6-1c-3-217.4-6.1-434.8-9.1-652.2c86.6,2,173.2,4,259.8,6
			C347.7,535.2,345.4,750.9,343,966.6z"/>
		<path class="st4" d="M365.7,1068c-48.2-1.3-96.4-2.7-144.5-4c1.1-32.5,2.2-65,3.3-97.4h141.2c3.5,15.4,6.3,35,5.6,57.7
			C370.8,1040.9,368.5,1055.6,365.7,1068z"/>
		<path class="st5" d="M353.1,1068c-44-1.3-88-2.7-131.9-4c1-32.5,2-65,3-97.4h128.9c3.2,15.4,5.7,35,5.1,57.7
			C357.7,1040.9,355.7,1055.6,353.1,1068z"/>
		<path class="st6" d="M336.9,319.4c-80.5-2-161-4-241.5-6c-9.5-12.6-18.9-25.2-28.4-37.8c89,0.3,177.9,0.7,266.9,1
			C334.8,290.9,335.9,305.2,336.9,319.4z"/>
		<path class="st7" d="M362.2,322.4c-8.1-1-16.2-2-24.4-3c-0.7-11.6-1.4-23.2-2-34.8c9.8,4.3,19.6,8.6,29.4,12.9
			C364.3,305.8,363.3,314.1,362.2,322.4z"/>
		<path class="st8" d="M333.8,276.7c-91.7,0-183.3,0-275,0c-0.3-0.5-3.4-5.4-1-10.9c2.2-5.3,7.5-6.8,8.1-7c87.9,0,175.9,0,263.8,0
			C331.1,264.8,332.5,270.7,333.8,276.7z"/>
		<path class="st9" d="M282.1,209.1c-41.3-1.3-82.5-2.6-123.8-4c3.4-9.6,6.8-19.2,10.1-28.8c32.1,0.7,64.3,1.3,96.4,2
			C270.6,188.5,276.3,198.8,282.1,209.1z"/>
		<path class="st10" d="M278,180.3c-43.6-0.7-87.3-1.3-130.9-2c-0.4-5.4-0.5-11.4,0-17.9c1-13.5,4-25,7.1-33.8
			c40.6,0,81.2,0,121.8,0C276.7,144.5,277.3,162.4,278,180.3z"/>
		<path class="st11" d="M328.8,206.1c-17.9-7.9-35.9-15.9-53.8-23.9c-0.3-19.2-0.7-38.4-1-57.7c24.7,16.9,49.4,33.8,74.1,50.7
			c0.7,3,1.4,6,2,8.9C343,191.5,335.9,198.8,328.8,206.1z"/>
		<path class="st12" d="M350.1,184.2c-25.4-19.9-50.7-39.8-76.1-59.7c5.4-7.9,10.8-15.9,16.2-23.9c22.3,21.5,44.6,43.1,67,64.6
			C354.8,171.6,352.4,177.9,350.1,184.2z"/>
		<path class="st13" d="M276,126.6c-40.6,0-81.2,0-121.8,0c8.1-8.6,16.2-17.2,24.4-25.8c37.2,0,74.4,0,111.6,0
			c0.3,2.5,0.5,6.5-1,10.9C286,121.1,278.1,125.5,276,126.6z"/>
		<path class="st14" d="M321,223c-13-4.3-26-8.6-39-12.9c-4.7-9.9-9.4-19.9-14.1-29.8c21.3,8.9,42.6,17.9,63.9,26.8
			C328.2,212.4,324.6,217.7,321,223z"/>
		<path class="st15" d="M384.6,278.7c-18.3-7-36.5-13.9-54.8-20.9c-15.9-16.2-31.8-32.5-47.7-48.7c12.9,4.3,25.7,8.6,38.6,12.9
			C342,240.9,363.3,259.8,384.6,278.7z"/>
		<path class="st16" d="M327.7,256.8c-87.9,0-175.9,0-263.8,0c7.7-7.1,16.4-14.5,26.4-21.9c17.7-13,34.7-22.7,49.7-29.8
			c47,1.3,94,2.6,141,4c8.5,4.4,21.1,12.4,32.5,25.9C320.2,242.8,324.7,250.5,327.7,256.8z"/>
		<path class="st17" d="M360.2,966.6c-8.1,0-16.2,0-24.4,0c0.3-215.7,0.7-431.5,1-647.2c8.5,1,16.9,2,25.4,3
			C361.6,537.1,360.9,751.9,360.2,966.6z"/>
		<rect x="369.3" y="281.6" class="st18" width="77.1" height="64.6"/>
		<rect x="369.3" y="346.3" class="st19" width="77.1" height="715.8"/>
		<path class="st2" d="M221.2,1064H98.4c1.5-10.3,2.7-27-2-46.7c-5.3-22.2-15.7-38-22.3-46.7c50.1-1.3,100.1-2.7,150.2-4
			C223.2,999.1,222.2,1031.6,221.2,1064z"/>
	</g>
	<g>
		<path class="st0" d="M1689.8,1045.1c22.2-0.7,55.1-1.2,95.4,0c41.3,1.2,57.5,3.3,67-7c19.2-20.8-7.4-72.2-15.2-86.5
			c-49.1,1.7-98.1,3.3-147.1,5V1045.1z"/>
		<rect x="1454.4" y="261.8" class="st1" width="91.3" height="786.3"/>
		<path class="st2" d="M1540.6,280.6c14.2-7,28.4-13.9,42.6-20.9v-21.9c-18.9,7.3-37.9,14.6-56.8,21.9
			C1531.2,266.7,1535.9,273.7,1540.6,280.6z"/>
		<path class="st3" d="M1568,947.7c81.2-0.3,162.4-0.7,243.6-1c3-217.4,6.1-434.8,9.1-652.2c-86.6,2-173.2,4-259.8,6
			C1563.3,516.3,1565.7,732,1568,947.7z"/>
		<path class="st4" d="M1545.3,1049.1c48.2-1.3,96.3-2.7,144.5-4c-1.1-32.5-2.2-65-3.3-97.4h-141.2c-3.5,15.4-6.3,35-5.6,57.7
			C1540.2,1022,1542.5,1036.7,1545.3,1049.1z"/>
		<path class="st5" d="M1557.9,1049.1c44-1.3,87.9-2.7,131.9-4c-1-32.5-2-65-3-97.4h-128.9c-3.2,15.4-5.7,35-5.1,57.7
			C1553.3,1022,1555.3,1036.7,1557.9,1049.1z"/>
		<path class="st6" d="M1574.1,300.5c80.5-2,161-4,241.5-6c9.5-12.6,18.9-25.2,28.4-37.8c-89,0.3-177.9,0.7-266.9,1
			C1576.2,272,1575.1,286.3,1574.1,300.5z"/>
		<path class="st7" d="M1548.8,303.5c8.1-1,16.2-2,24.3-3c0.7-11.6,1.3-23.2,2-34.8c-9.8,4.3-19.6,8.6-29.4,12.9
			C1546.7,287,1547.7,295.2,1548.8,303.5z"/>
		<path class="st8" d="M1577.2,257.8c91.7,0,183.3,0,275,0c0.3-0.5,3.4-5.4,1-10.9c-2.2-5.3-7.5-6.8-8.1-7c-87.9,0-175.9,0-263.8,0
			C1579.9,245.9,1578.5,251.8,1577.2,257.8z"/>
		<path class="st9" d="M1628.9,190.2c41.3-1.3,82.5-2.6,123.8-4c-3.4-9.6-6.8-19.2-10.2-28.8c-32.1,0.7-64.3,1.3-96.4,2
			C1640.4,169.6,1634.7,179.9,1628.9,190.2z"/>
		<path class="st10" d="M1633,161.4c43.6-0.7,87.3-1.3,130.9-2c0.4-5.4,0.5-11.4,0-17.9c-1-13.5-4-25-7.1-33.8
			c-40.6,0-81.2,0-121.8,0C1634.3,125.6,1633.7,143.5,1633,161.4z"/>
		<path class="st11" d="M1582.3,187.2c17.9-7.9,35.8-15.9,53.8-23.9c0.3-19.2,0.7-38.4,1-57.7c-24.7,16.9-49.4,33.8-74.1,50.7
			c-0.7,3-1.3,6-2,8.9C1568,172.6,1575.1,179.9,1582.3,187.2z"/>
		<path class="st12" d="M1560.9,165.3c25.4-19.9,50.7-39.8,76.1-59.7c-5.4-7.9-10.8-15.9-16.2-23.9c-22.3,21.5-44.7,43.1-67,64.6
			C1556.2,152.7,1558.6,159,1560.9,165.3z"/>
		<path class="st13" d="M1635,107.7c40.6,0,81.2,0,121.8,0c-8.1-8.6-16.2-17.2-24.3-25.8c-37.2,0-74.4,0-111.6,0
			c-0.3,2.5-0.5,6.5,1,10.9C1624.9,102.2,1632.9,106.6,1635,107.7z"/>
		<path class="st14" d="M1590,204.1c13-4.3,26-8.6,39-12.9c4.7-9.9,9.4-19.9,14.1-29.8c-21.3,8.9-42.6,17.9-63.9,26.8
			C1582.8,193.5,1586.4,198.8,1590,204.1z"/>
		<path class="st15" d="M1526.4,259.8c18.3-7,36.5-13.9,54.8-20.9c15.9-16.2,31.8-32.5,47.7-48.7c-12.8,4.3-25.7,8.6-38.6,12.9
			C1569.1,222,1547.7,240.9,1526.4,259.8z"/>
		<path class="st16" d="M1583.3,237.9c87.9,0,175.9,0,263.8,0c-7.7-7.1-16.4-14.5-26.4-21.9c-17.7-13-34.7-22.7-49.7-29.8
			c-47,1.3-94,2.6-141.1,4c-8.5,4.4-21.1,12.4-32.5,25.9C1590.8,223.9,1586.3,231.6,1583.3,237.9z"/>
		<path class="st17" d="M1550.8,947.7c8.1,0,16.2,0,24.3,0c-0.3-215.7-0.7-431.5-1-647.2c-8.5,1-16.9,2-25.4,3
			C1549.4,518.3,1550.1,733,1550.8,947.7z"/>
		<rect x="1464.5" y="262.8" class="st18" width="77.1" height="64.6"/>
		<rect x="1464.5" y="327.4" class="st19" width="77.1" height="715.8"/>
		<path class="st2" d="M1689.8,1045.1h122.8c-1.5-10.3-2.7-27,2-46.7c5.3-22.2,15.7-38,22.3-46.7c-50.1-1.3-100.1-2.7-150.2-4
			C1687.8,980.2,1688.8,1012.7,1689.8,1045.1z"/>
	</g>
	<g>
		<rect x="465.8" y="299.5" class="st20" width="32.5" height="737.6"/>
		<path class="st20" d="M920.3,208.1c-58.3,5-135.7,17.4-222.2,47.7c-85.1,29.8-151.9,67.6-199.9,99.4c0-15.6,0-31.1,0-46.7
			c47.3-30,110.4-63.9,188.7-91.5c90.6-31.9,171.9-44.6,233.4-49.7C920.3,180.9,920.3,194.5,920.3,208.1z"/>
		<rect x="914.3" y="153.4" class="st20" width="31.5" height="895.7"/>
		<rect x="498.2" y="896" class="st20" width="422.1" height="28.8"/>
		<rect x="498.2" y="982.5" class="st20" width="422.1" height="21.9"/>
		<path class="st20" d="M914.3,330.4c-69.5,9-158.4,27.4-255.7,66.6c-63.1,25.4-116.6,54.2-160.3,81.5c-0.7-27.5-1.4-55-2-82.5
			c19.1-5.7,48.8-15.3,84.2-29.8c55.7-22.9,67.8-34.3,117.7-52.7c13.4-4.9,49.7-17.8,98.4-27.8c46.4-9.5,86.8-12.9,117.7-13.9
			C914.3,291.3,914.3,310.8,914.3,330.4z"/>
		<rect x="849.3" y="209.1" class="st20" width="15.2" height="784.4"/>
		<rect x="783.4" y="209.1" class="st20" width="15.2" height="784.4"/>
		<rect x="702.2" y="213.1" class="st20" width="15.2" height="784.4"/>
		<rect x="640.3" y="258.8" class="st20" width="15.2" height="738.6"/>
		<rect x="567.2" y="284.6" class="st20" width="15.2" height="717.8"/>
	</g>
	<rect x="1413" y="282.3" class="st20" width="32.5" height="737.6"/>
	<path class="st20" d="M1053.4,51.6c57.3,32.2,130.7,80,205.5,148.4c73.5,67.2,124.9,132.9,159.7,184.4c6.9-14,13.9-28.1,20.8-42.1
		c-34.9-49.5-84.2-110-151.8-171.9c-78.3-71.7-155.5-121.7-216-155.4C1065.5,27.1,1059.5,39.4,1053.4,51.6z"/>
	<rect x="1048.7" y="8" class="st20" width="31.5" height="895.7"/>
	<polygon class="st20" points="1065.5,817.5 1426.7,905.4 1434,877.2 1072.8,789.3 	"/>
	<polygon class="st20" points="1053.6,872.2 1435,965 1440.6,943.4 1059.2,850.6 	"/>
	<path class="st20" d="M1054,390.9c62.6,16.3,141.7,44.1,226,93.4c54.7,32,100.1,66.3,136.8,98c4-27.2,8-54.5,12-81.7
		c-16.8-7.7-42.8-20.4-73.5-38.6c-48.2-28.6-57.9-41.3-101.3-64.9c-11.7-6.3-43.3-23-86.7-38.1c-41.3-14.4-77.9-22.1-106.1-26.4
		C1058.8,352.1,1056.4,371.5,1054,390.9z"/>
	<rect x="1129.9" y="81.8" class="st20" width="18.8" height="794.3"/>
	<rect x="1182.6" y="116.3" class="st20" width="18.2" height="778.9"/>
	<rect x="1236.7" y="153.3" class="st20" width="14.4" height="751.1"/>
	<rect x="1287.1" y="191.5" class="st20" width="17.9" height="726.1"/>
	<rect x="1340.9" y="246.5" class="st20" width="15.8" height="689.1"/>
	<rect x="1629.7" y="360.2" class="st21" width="138" height="236.6"/>
	<g>
		<rect x="1656.6" y="431.9" class="st22" width="23.3" height="16.1"/>
		<rect x="1686.3" y="431.9" class="st22" width="23.3" height="16.1"/>
		<rect x="1717.9" y="431.9" class="st22" width="23.3" height="16.1"/>
		<rect x="1717.9" y="454" class="st22" width="23.3" height="16.1"/>
		<rect x="1686.3" y="454" class="st22" width="23.3" height="16.1"/>
		<rect x="1656.6" y="454" class="st22" width="23.3" height="16.1"/>
		<rect x="1656.6" y="476.1" class="st22" width="23.3" height="16.1"/>
		<rect x="1687.2" y="476.1" class="st22" width="23.3" height="16.1"/>
		<rect x="1717.9" y="476.1" class="st22" width="23.3" height="16.1"/>
		<rect x="1717.9" y="497.8" class="st22" width="23.3" height="16.1"/>
		<rect x="1687.2" y="497.8" class="st22" width="23.3" height="16.1"/>
		<rect x="1656.6" y="497.8" class="st22" width="23.3" height="16.1"/>
	</g>
	<rect x="1650.2" y="374.1" class="st23" width="97.3" height="46.4"/>
	<rect x="1650.2" y="538.7" class="st24" width="35.6" height="24.6"/>
	<rect x="1711.9" y="538.7" class="st24" width="35.6" height="24.6"/>
</g>
</svg>
