<?xml version="1.0" encoding="utf-8"?>
<!-- Generator: Adobe Illustrator 23.0.5, SVG Export Plug-In . SVG Version: 6.00 Build 0)  -->
<svg version="1.1" id="圖層_1" xmlns="http://www.w3.org/2000/svg" xmlns:xlink="http://www.w3.org/1999/xlink" x="0px" y="0px"
	 viewBox="0 0 1920 1080" style="enable-background:new 0 0 1920 1080;" xml:space="preserve">
<style type="text/css">
	.st0{fill:#403F45;}
	.st1{fill:#522E1B;}
	.st2{fill:#585862;}
	.st3{fill:#9B806D;}
	.st4{fill:#282F3B;}
	.st5{fill:#504C54;}
	.st6{fill:#413F45;}
	.st7{fill:#442F2E;}
	.st8{fill:#6C7887;}
	.st9{fill:#3A404D;}
	.st10{fill:#626064;}
	.st11{fill:#A49581;}
	.st12{fill:#F9D99C;}
	.st13{fill:#B7A694;}
	.st14{fill:#393844;}
	.st15{fill:#F0D3AC;}
	.st16{fill:#666A76;}
	.st17{fill:#7F695B;}
	.st18{fill:#543C3A;}
	.st19{fill:#493E42;}
	.st20{fill:#65544E;}
	.st21{fill:#7779A0;}
	.st22{fill:#3E3E68;}
	.st23{fill:#5BC44D;}
	.st24{fill:#313331;}
	.st25{fill:#F2E1C2;}
	.st26{fill:#BCB8B7;}
</style>
<g>
	<g>
		<path class="st0" d="M221.19,1064.02c-22.16-0.68-55.1-1.21-95.39,0c-41.29,1.24-57.47,3.33-66.97-6.96
			c-19.21-20.81,7.39-72.15,15.22-86.49c49.05,1.66,98.09,3.31,147.14,4.97V1064.02z"/>
		<rect x="365.29" y="280.65" class="st1" width="91.33" height="786.35"/>
		<path class="st2" d="M370.36,299.54c-14.21-6.96-28.41-13.92-42.62-20.88V256.8c18.94,7.29,37.88,14.58,56.83,21.87
			C379.83,285.62,375.1,292.58,370.36,299.54z"/>
		<path class="st3" d="M342.99,966.6c-81.2-0.33-162.4-0.66-243.6-0.99c-3.03-217.38-6.06-434.76-9.1-652.15
			c86.59,1.99,173.18,3.98,259.78,5.96C347.71,535.15,345.35,750.87,342.99,966.6z"/>
		<path class="st4" d="M365.71,1068c-48.17-1.33-96.35-2.65-144.52-3.98c1.11-32.47,2.22-64.95,3.34-97.42h141.18
			c3.47,15.42,6.25,35.01,5.56,57.66C370.76,1040.89,368.5,1055.62,365.71,1068z"/>
		<path class="st5" d="M353.11,1068c-43.97-1.33-87.95-2.65-131.92-3.98c1.01-32.47,2.03-64.95,3.04-97.42h128.87
			c3.17,15.42,5.7,35.01,5.07,57.66C357.72,1040.89,355.66,1055.62,353.11,1068z"/>
		<path class="st6" d="M336.87,319.42c-80.5-1.99-161.01-3.98-241.51-5.96c-9.47-12.59-18.94-25.18-28.41-37.78
			c88.96,0.33,177.92,0.66,266.88,0.99C334.84,290.93,335.86,305.18,336.87,319.42z"/>
		<path class="st7" d="M362.24,322.41c-8.12-0.99-16.24-1.99-24.35-2.98c-0.68-11.6-1.35-23.2-2.03-34.79
			c9.81,4.31,19.62,8.62,29.43,12.92C364.27,305.84,363.26,314.12,362.24,322.41z"/>
		<path class="st8" d="M333.83,276.68c-91.67,0-183.33,0-275,0c-0.29-0.45-3.36-5.35-1.01-10.94c2.24-5.33,7.51-6.8,8.12-6.96
			c87.95,0,175.89,0,263.84,0C331.12,264.75,332.48,270.71,333.83,276.68z"/>
		<path class="st9" d="M282.08,209.08c-41.27-1.33-82.53-2.65-123.8-3.98c3.38-9.61,6.77-19.22,10.15-28.83
			c32.13,0.66,64.27,1.33,96.4,1.99C270.58,188.53,276.33,198.8,282.08,209.08z"/>
		<path class="st10" d="M278.02,180.25c-43.63-0.66-87.27-1.33-130.9-1.99c-0.38-5.37-0.46-11.38,0-17.89
			c0.96-13.54,3.97-24.99,7.1-33.8c40.59,0,81.18,0,121.77,0C276.66,144.46,277.34,162.35,278.02,180.25z"/>
		<path class="st11" d="M328.75,206.09c-17.93-7.95-35.85-15.91-53.78-23.86c-0.34-19.22-0.68-38.44-1.01-57.66
			c24.69,16.9,49.38,33.8,74.08,50.7c0.68,2.98,1.35,5.96,2.03,8.95C342.96,191.51,335.86,198.8,328.75,206.09z"/>
		<path class="st12" d="M350.06,184.22c-25.37-19.88-50.74-39.76-76.11-59.65c5.41-7.95,10.82-15.91,16.24-23.86
			c22.32,21.54,44.65,43.08,66.97,64.62C354.8,171.63,352.43,177.93,350.06,184.22z"/>
		<path class="st13" d="M275.99,126.56c-40.59,0-81.18,0-121.77,0c8.12-8.62,16.24-17.23,24.35-25.85c37.21,0,74.42,0,111.62,0
			c0.32,2.49,0.47,6.46-1.01,10.94C286.05,121.05,278.07,125.49,275.99,126.56z"/>
		<path class="st14" d="M320.96,222.99c-13-4.31-26.01-8.62-39.01-12.92c-4.7-9.94-9.39-19.88-14.09-29.82
			c21.31,8.95,42.62,17.89,63.93,26.84C328.19,212.39,324.58,217.69,320.96,222.99z"/>
		<path class="st15" d="M384.57,278.67c-18.27-6.96-36.53-13.92-54.8-20.88c-15.9-16.24-31.8-32.47-47.69-48.71
			c12.85,4.31,25.71,8.62,38.56,12.92C341.95,240.89,363.26,259.78,384.57,278.67z"/>
		<path class="st16" d="M327.74,256.8c-87.95,0-175.89,0-263.84,0c7.65-7.11,16.42-14.52,26.38-21.87
			c17.66-13.02,34.74-22.67,49.72-29.82c47.02,1.33,94.03,2.65,141.05,3.98c8.54,4.45,21.1,12.39,32.47,25.85
			C320.17,242.77,324.67,250.46,327.74,256.8z"/>
		<path class="st17" d="M360.21,966.6c-8.12,0-16.24,0-24.35,0c0.34-215.72,0.68-431.45,1.01-647.17
			c8.46,0.99,16.91,1.99,25.37,2.98C361.57,537.14,360.89,751.87,360.21,966.6z"/>
		<rect x="369.34" y="281.65" class="st18" width="77.12" height="64.62"/>
		<rect x="369.34" y="346.27" class="st19" width="77.12" height="715.77"/>
		<path class="st2" d="M221.19,1064.02H98.41c1.54-10.33,2.68-27.03-2.03-46.72c-5.32-22.21-15.65-38.02-22.32-46.72
			c50.06-1.33,100.12-2.65,150.18-3.98C223.22,999.07,222.21,1031.55,221.19,1064.02z"/>
	</g>
	<g>
		<path class="st0" d="M1689.81,1045.14c22.16-0.68,55.1-1.21,95.39,0c41.29,1.24,57.47,3.33,66.97-6.96
			c19.21-20.81-7.39-72.15-15.22-86.49c-49.05,1.66-98.09,3.31-147.14,4.97V1045.14z"/>
		
			<rect x="1454.39" y="261.77" transform="matrix(-1 -4.401691e-11 4.401691e-11 -1 3000.1008 1309.8832)" class="st1" width="91.33" height="786.35"/>
		<path class="st2" d="M1540.64,280.65c14.21-6.96,28.41-13.92,42.62-20.88v-21.87c-18.94,7.29-37.88,14.58-56.83,21.87
			C1531.17,266.74,1535.9,273.7,1540.64,280.65z"/>
		<path class="st3" d="M1568.01,947.71c81.2-0.33,162.4-0.66,243.6-0.99c3.03-217.38,6.06-434.76,9.1-652.15
			c-86.59,1.99-173.18,3.98-259.78,5.96C1563.29,516.26,1565.65,731.99,1568.01,947.71z"/>
		<path class="st4" d="M1545.29,1049.11c48.17-1.33,96.35-2.65,144.52-3.98c-1.11-32.47-2.22-64.95-3.34-97.42h-141.18
			c-3.47,15.42-6.25,35.01-5.56,57.66C1540.24,1022,1542.5,1036.73,1545.29,1049.11z"/>
		<path class="st5" d="M1557.89,1049.11c43.97-1.33,87.95-2.65,131.92-3.98c-1.01-32.47-2.03-64.95-3.04-97.42h-128.87
			c-3.17,15.42-5.7,35.01-5.07,57.66C1553.28,1022,1555.34,1036.73,1557.89,1049.11z"/>
		<path class="st6" d="M1574.13,300.54c80.5-1.99,161.01-3.98,241.51-5.96c9.47-12.59,18.94-25.18,28.41-37.78
			c-88.96,0.33-177.92,0.66-266.88,0.99C1576.16,272.04,1575.14,286.29,1574.13,300.54z"/>
		<path class="st7" d="M1548.76,303.52c8.12-0.99,16.24-1.99,24.35-2.98c0.68-11.6,1.35-23.2,2.03-34.79
			c-9.81,4.31-19.62,8.62-29.43,12.92C1546.73,286.95,1547.74,295.23,1548.76,303.52z"/>
		<path class="st8" d="M1577.17,257.79c91.67,0,183.33,0,275,0c0.29-0.45,3.36-5.35,1.01-10.94c-2.24-5.33-7.51-6.8-8.12-6.96
			c-87.95,0-175.89,0-263.84,0C1579.88,245.86,1578.52,251.82,1577.17,257.79z"/>
		<path class="st9" d="M1628.92,190.19c41.27-1.33,82.53-2.65,123.8-3.98c-3.38-9.61-6.77-19.22-10.15-28.83
			c-32.13,0.66-64.27,1.33-96.4,1.99C1640.42,169.64,1634.67,179.92,1628.92,190.19z"/>
		<path class="st10" d="M1632.98,161.36c43.63-0.66,87.27-1.33,130.9-1.99c0.38-5.37,0.46-11.38,0-17.89
			c-0.96-13.54-3.97-24.99-7.1-33.8c-40.59,0-81.18,0-121.77,0C1634.34,125.57,1633.66,143.46,1632.98,161.36z"/>
		<path class="st11" d="M1582.25,187.21c17.93-7.95,35.85-15.91,53.78-23.86c0.34-19.22,0.68-38.44,1.01-57.66
			c-24.69,16.9-49.38,33.8-74.08,50.7c-0.68,2.98-1.35,5.96-2.03,8.95C1568.04,172.63,1575.14,179.92,1582.25,187.21z"/>
		<path class="st12" d="M1560.94,165.34c25.37-19.88,50.74-39.76,76.11-59.65c-5.41-7.95-10.82-15.91-16.24-23.86
			c-22.32,21.54-44.65,43.08-66.97,64.62C1556.2,152.74,1558.57,159.04,1560.94,165.34z"/>
		<path class="st13" d="M1635.01,107.68c40.59,0,81.18,0,121.77,0c-8.12-8.62-16.24-17.23-24.35-25.85c-37.21,0-74.42,0-111.62,0
			c-0.32,2.49-0.47,6.46,1.01,10.94C1624.95,102.16,1632.93,106.6,1635.01,107.68z"/>
		<path class="st14" d="M1590.04,204.11c13-4.31,26.01-8.62,39.01-12.92c4.7-9.94,9.39-19.88,14.09-29.82
			c-21.31,8.95-42.62,17.89-63.93,26.84C1582.81,193.5,1586.42,198.8,1590.04,204.11z"/>
		<path class="st15" d="M1526.43,259.78c18.27-6.96,36.53-13.92,54.8-20.88c15.9-16.24,31.8-32.47,47.69-48.71
			c-12.85,4.31-25.71,8.62-38.56,12.92C1569.05,222,1547.74,240.89,1526.43,259.78z"/>
		<path class="st16" d="M1583.26,237.91c87.95,0,175.89,0,263.84,0c-7.65-7.11-16.42-14.52-26.38-21.87
			c-17.66-13.02-34.74-22.67-49.72-29.82c-47.02,1.33-94.03,2.65-141.05,3.98c-8.54,4.45-21.1,12.39-32.47,25.85
			C1590.83,223.88,1586.33,231.57,1583.26,237.91z"/>
		<path class="st17" d="M1550.79,947.71c8.12,0,16.24,0,24.35,0c-0.34-215.72-0.68-431.45-1.01-647.17
			c-8.46,0.99-16.91,1.99-25.37,2.98C1549.43,518.25,1550.11,732.98,1550.79,947.71z"/>
		
			<rect x="1464.53" y="262.76" transform="matrix(-1 -4.385837e-11 4.385837e-11 -1 3006.1892 590.1376)" class="st18" width="77.12" height="64.62"/>
		
			<rect x="1464.53" y="327.38" transform="matrix(-1 -4.401203e-11 4.401203e-11 -1 3006.1892 1370.5248)" class="st19" width="77.12" height="715.77"/>
		<path class="st2" d="M1689.81,1045.14h122.78c-1.54-10.33-2.68-27.03,2.03-46.72c5.32-22.21,15.65-38.02,22.32-46.72
			c-50.06-1.33-100.12-2.65-150.18-3.98C1687.78,980.19,1688.79,1012.66,1689.81,1045.14z"/>
	</g>
	<g>
		<rect x="465.75" y="299.54" class="st20" width="32.47" height="737.64"/>
		<path class="st20" d="M920.35,208.08c-58.31,5.03-135.7,17.38-222.23,47.72c-85.06,29.82-151.94,67.56-199.91,99.41
			c0-15.57,0-31.15,0-46.72c47.33-29.98,110.44-63.94,188.74-91.46c90.61-31.85,171.87-44.63,233.39-49.71
			C920.35,180.91,920.35,194.5,920.35,208.08z"/>
		<rect x="914.27" y="153.41" class="st20" width="31.46" height="895.71"/>
		<rect x="498.22" y="896.02" class="st20" width="422.14" height="28.83"/>
		<rect x="498.22" y="982.51" class="st20" width="422.14" height="21.87"/>
		<path class="st20" d="M914.27,330.36c-69.55,8.95-158.4,27.43-255.72,66.61c-63.11,25.41-116.58,54.21-160.33,81.52
			c-0.68-27.5-1.35-55.01-2.03-82.51c19.06-5.7,48.78-15.28,84.22-29.82c55.7-22.86,67.82-34.29,117.71-52.69
			c13.39-4.94,49.7-17.82,98.43-27.84c46.43-9.54,86.82-12.91,117.71-13.92C914.27,291.26,914.27,310.81,914.27,330.36z"/>
		<rect x="849.32" y="209.08" class="st20" width="15.22" height="784.36"/>
		<rect x="783.36" y="209.08" class="st20" width="15.22" height="784.36"/>
		<rect x="702.18" y="213.05" class="st20" width="15.22" height="784.36"/>
		<rect x="640.28" y="258.78" class="st20" width="15.22" height="738.63"/>
		<rect x="567.22" y="284.63" class="st20" width="15.22" height="717.76"/>
	</g>
	
		<rect x="1412.98" y="282.27" transform="matrix(-1 -4.380553e-11 4.380553e-11 -1 2858.4333 1302.1726)" class="st20" width="32.47" height="737.64"/>
	<path class="st20" d="M1053.42,51.62c57.26,32.18,130.72,79.98,205.49,148.35c73.5,67.21,124.91,132.93,159.65,184.39
		c6.95-14.04,13.9-28.09,20.85-42.13c-34.92-49.47-84.17-110-151.8-171.92c-78.26-71.66-155.47-121.7-216-155.43
		C1065.54,27.12,1059.48,39.37,1053.42,51.62z"/>
	
		<rect x="1048.69" y="8" transform="matrix(-1 -4.417767e-11 4.417767e-11 -1 2128.8418 911.7054)" class="st20" width="31.46" height="895.71"/>
	<polygon class="st20" points="1065.47,817.5 1426.7,905.41 1434.02,877.17 1072.79,789.25 	"/>
	<polygon class="st20" points="1053.58,872.21 1434.97,965.03 1440.58,943.4 1059.19,850.58 	"/>
	<path class="st20" d="M1054,390.9c62.59,16.3,141.68,44.11,225.98,93.39c54.67,31.96,100.08,66.25,136.79,98.02
		c4.01-27.24,8.01-54.47,12.02-81.71c-16.75-7.69-42.79-20.37-73.46-38.59c-48.19-28.63-57.88-41.27-101.31-64.86
		c-11.66-6.33-43.32-22.99-86.71-38.13c-41.35-14.42-77.92-22.07-106.08-26.36C1058.81,352.07,1056.4,371.49,1054,390.9z"/>
	
		<rect x="1129.87" y="81.83" transform="matrix(-1 -3.645718e-11 3.645718e-11 -1 2278.5549 957.9207)" class="st20" width="18.81" height="794.26"/>
	
		<rect x="1182.59" y="116.32" transform="matrix(-1 -3.649093e-11 3.649093e-11 -1 2383.3743 1011.5142)" class="st20" width="18.19" height="778.88"/>
	
		<rect x="1236.73" y="153.34" transform="matrix(-1 -4.479806e-11 4.479806e-11 -1 2487.8687 1057.8047)" class="st20" width="14.41" height="751.13"/>
	
		<rect x="1287.08" y="191.55" transform="matrix(-1 -3.705048e-11 3.705048e-11 -1 2592.0391 1109.1886)" class="st20" width="17.87" height="726.09"/>
	
		<rect x="1340.9" y="246.49" transform="matrix(-1 -4.114277e-11 4.114277e-11 -1 2697.6228 1182.0361)" class="st20" width="15.83" height="689.07"/>
	<rect x="1629.67" y="360.18" class="st21" width="138.01" height="236.6"/>
	<g>
		<rect x="1656.63" y="431.89" class="st22" width="23.31" height="16.11"/>
		<rect x="1686.33" y="431.89" class="st22" width="23.31" height="16.11"/>
		<rect x="1717.86" y="431.89" class="st22" width="23.31" height="16.11"/>
		<rect x="1717.86" y="454" class="st22" width="23.31" height="16.11"/>
		<rect x="1686.33" y="454" class="st22" width="23.31" height="16.11"/>
		<rect x="1656.63" y="454" class="st22" width="23.31" height="16.11"/>
		<rect x="1656.63" y="476.12" class="st22" width="23.31" height="16.11"/>
		<rect x="1687.24" y="476.12" class="st22" width="23.31" height="16.11"/>
		<rect x="1717.86" y="476.12" class="st22" width="23.31" height="16.11"/>
		<rect x="1717.86" y="497.75" class="st22" width="23.31" height="16.11"/>
		<rect x="1687.24" y="497.75" class="st22" width="23.31" height="16.11"/>
		<rect x="1656.63" y="497.75" class="st22" width="23.31" height="16.11"/>
	</g>
	<rect x="1650.23" y="374.08" class="st23" width="97.34" height="46.44"/>
	<rect x="1650.23" y="538.66" class="st24" width="35.64" height="24.64"/>
	<rect x="1711.92" y="538.66" class="st24" width="35.64" height="24.64"/>
	<rect x="138.29" y="461.39" class="st25" width="151.57" height="99.85"/>
	<rect x="203.93" y="448.94" class="st26" width="20.31" height="24.89"/>
	<g>
		<path d="M153.84,500.22c-0.28,0.25-0.61,0.37-0.99,0.37s-0.72-0.12-0.99-0.37s-0.41-0.54-0.41-0.88v-12.82
			c0-0.51,0.2-0.94,0.6-1.3c0.4-0.36,0.89-0.54,1.45-0.54h3.36c4.52,0,6.78,1.6,6.78,4.81c0,1.67-0.61,2.93-1.83,3.79
			c-1.22,0.85-2.84,1.28-4.86,1.28h-2.46c-0.16,0-0.24,0.07-0.24,0.21v4.58C154.25,499.68,154.11,499.97,153.84,500.22z
			 M154.25,492.34c0,0.14,0.08,0.21,0.24,0.21h2.2c1.42,0,2.47-0.25,3.17-0.75c0.69-0.5,1.04-1.27,1.04-2.31
			c0-1.03-0.35-1.75-1.05-2.16c-0.7-0.41-1.79-0.62-3.27-0.62h-2.08c-0.16,0-0.24,0.07-0.24,0.21V492.34z"/>
		<path d="M177.07,500.59c-0.44,0-0.84-0.12-1.19-0.36c-0.35-0.24-0.59-0.54-0.72-0.91l-1.02-3.06c-0.05-0.14-0.15-0.21-0.31-0.21
			h-5.72c-0.16,0-0.26,0.07-0.31,0.21l-1.04,3.1c-0.13,0.37-0.36,0.66-0.7,0.89c-0.34,0.22-0.72,0.34-1.15,0.34
			c-0.35,0-0.62-0.13-0.83-0.38c-0.13-0.17-0.19-0.34-0.19-0.53c0-0.1,0.02-0.2,0.05-0.3l4.94-13.33c0.16-0.41,0.43-0.74,0.83-0.99
			c0.39-0.25,0.83-0.38,1.31-0.38c0.48,0,0.92,0.13,1.31,0.38c0.39,0.25,0.67,0.58,0.83,0.99l4.91,13.26
			c0.05,0.11,0.07,0.22,0.07,0.32c0,0.2-0.07,0.38-0.21,0.55C177.73,500.45,177.44,500.59,177.07,500.59z M168.61,493.88
			c-0.02,0.06-0.01,0.11,0.02,0.15c0.03,0.04,0.08,0.06,0.14,0.06h4.39c0.06,0,0.11-0.02,0.14-0.06c0.03-0.04,0.04-0.09,0.02-0.15
			l-0.64-1.94c-0.3-0.86-0.86-2.6-1.68-5.23c-0.02-0.03-0.04-0.04-0.07-0.04c-0.03,0-0.05,0.01-0.05,0.04
			c-0.44,1.56-0.98,3.3-1.63,5.23L168.61,493.88z"/>
		<path d="M185.93,500.86c-2,0-3.79-0.53-5.36-1.58c-0.32-0.2-0.47-0.48-0.47-0.84c0-0.31,0.11-0.56,0.33-0.76
			c0.22-0.24,0.5-0.37,0.85-0.38c0.03,0,0.06,0,0.09,0c0.31,0,0.6,0.08,0.85,0.23c1.2,0.77,2.45,1.16,3.76,1.16
			c1.07,0,1.9-0.2,2.49-0.61s0.89-0.96,0.89-1.64c0-0.28-0.06-0.53-0.17-0.76c-0.11-0.22-0.23-0.41-0.35-0.56s-0.34-0.31-0.65-0.47
			c-0.31-0.17-0.56-0.29-0.74-0.37c-0.19-0.08-0.5-0.2-0.94-0.37l-2.48-0.95c-2.41-0.91-3.61-2.31-3.61-4.18
			c0-1.25,0.55-2.3,1.65-3.13c1.1-0.84,2.5-1.25,4.21-1.25c1.65,0,3.16,0.44,4.51,1.33c0.28,0.18,0.43,0.44,0.43,0.78
			c0,0.27-0.1,0.5-0.28,0.7c-0.21,0.21-0.47,0.33-0.78,0.36c-0.05,0.01-0.09,0.02-0.14,0.02c-0.27,0-0.51-0.07-0.73-0.21
			c-0.93-0.53-1.93-0.8-3-0.8c-0.91,0-1.64,0.19-2.19,0.56c-0.54,0.37-0.81,0.88-0.81,1.51c0,0.25,0.06,0.49,0.18,0.72
			s0.25,0.41,0.39,0.56c0.14,0.15,0.37,0.3,0.67,0.44c0.31,0.15,0.56,0.26,0.76,0.35c0.2,0.08,0.49,0.19,0.89,0.32l2.43,0.93
			c1.17,0.45,2.06,1.01,2.69,1.68c0.63,0.67,0.95,1.54,0.95,2.63c0,1.32-0.57,2.42-1.71,3.3
			C189.36,500.42,187.84,500.86,185.93,500.86z"/>
		<path d="M200.23,500.86c-2,0-3.79-0.53-5.36-1.58c-0.32-0.2-0.47-0.48-0.47-0.84c0-0.31,0.11-0.56,0.33-0.76
			c0.22-0.24,0.5-0.37,0.85-0.38c0.03,0,0.06,0,0.09,0c0.31,0,0.6,0.08,0.85,0.23c1.2,0.77,2.45,1.16,3.76,1.16
			c1.07,0,1.9-0.2,2.49-0.61c0.59-0.41,0.89-0.96,0.89-1.64c0-0.28-0.06-0.53-0.17-0.76c-0.11-0.22-0.23-0.41-0.35-0.56
			s-0.34-0.31-0.65-0.47c-0.31-0.17-0.56-0.29-0.74-0.37c-0.19-0.08-0.5-0.2-0.94-0.37l-2.48-0.95c-2.41-0.91-3.61-2.31-3.61-4.18
			c0-1.25,0.55-2.3,1.65-3.13c1.1-0.84,2.5-1.25,4.21-1.25c1.65,0,3.16,0.44,4.51,1.33c0.28,0.18,0.43,0.44,0.43,0.78
			c0,0.27-0.1,0.5-0.28,0.7c-0.21,0.21-0.47,0.33-0.78,0.36c-0.05,0.01-0.09,0.02-0.14,0.02c-0.27,0-0.51-0.07-0.73-0.21
			c-0.93-0.53-1.93-0.8-3-0.8c-0.91,0-1.64,0.19-2.19,0.56c-0.54,0.37-0.81,0.88-0.81,1.51c0,0.25,0.06,0.49,0.18,0.72
			c0.12,0.22,0.25,0.41,0.39,0.56c0.14,0.15,0.37,0.3,0.67,0.44c0.31,0.15,0.56,0.26,0.76,0.35c0.2,0.08,0.49,0.19,0.89,0.32
			l2.43,0.93c1.17,0.45,2.06,1.01,2.69,1.68c0.63,0.67,0.95,1.54,0.95,2.63c0,1.32-0.57,2.42-1.71,3.3
			C203.66,500.42,202.13,500.86,200.23,500.86z"/>
		<path d="M213.36,500.59c-0.49,0-0.93-0.14-1.31-0.42c-0.39-0.28-0.63-0.63-0.72-1.05l-3.02-13.14c-0.02-0.1-0.02-0.18-0.02-0.25
			c0-0.24,0.09-0.45,0.26-0.63c0.24-0.27,0.54-0.4,0.92-0.4c0.43,0,0.8,0.12,1.12,0.37c0.32,0.25,0.52,0.55,0.58,0.92l1.42,7
			l0.95,5.04c0,0.03,0.02,0.04,0.05,0.04c0.03,0,0.06-0.01,0.07-0.04c0.3-1.32,0.69-3,1.18-5.04l2.01-7.21
			c0.1-0.31,0.28-0.57,0.57-0.77s0.61-0.31,0.97-0.31c0.36,0,0.68,0.1,0.97,0.31s0.47,0.46,0.57,0.77l2.01,7.21
			c0.17,0.65,0.41,1.61,0.71,2.89c0.3,1.28,0.46,2,0.5,2.15c0.02,0.03,0.04,0.04,0.08,0.04c0.04,0,0.06-0.01,0.06-0.04
			c0.11-0.67,0.28-1.62,0.5-2.83c0.22-1.21,0.35-1.95,0.4-2.21l1.44-7.11c0.06-0.34,0.24-0.62,0.54-0.84
			c0.3-0.22,0.65-0.34,1.04-0.34c0.35,0,0.63,0.12,0.85,0.36c0.17,0.18,0.26,0.39,0.26,0.61c0,0.07-0.01,0.14-0.02,0.21l-2.91,13.2
			c-0.11,0.44-0.36,0.8-0.74,1.09c-0.39,0.29-0.83,0.43-1.33,0.43c-0.5,0-0.96-0.14-1.36-0.42c-0.4-0.28-0.66-0.64-0.77-1.08
			l-1.98-7.34c-0.3-1.2-0.58-2.39-0.83-3.59c0-0.04-0.02-0.06-0.06-0.06c-0.04,0-0.07,0.02-0.08,0.06c-0.09,0.46-0.36,1.66-0.8,3.59
			l-1.96,7.36c-0.11,0.44-0.36,0.79-0.76,1.07C214.29,500.45,213.85,500.59,213.36,500.59z"/>
		<path d="M243.74,498.62c-1.43,1.5-3.3,2.25-5.62,2.25c-2.32,0-4.2-0.75-5.62-2.25c-1.43-1.5-2.14-3.51-2.14-6.04
			s0.71-4.53,2.14-5.99c1.43-1.46,3.3-2.19,5.62-2.19c2.32,0,4.2,0.73,5.62,2.2c1.43,1.47,2.14,3.46,2.14,5.98
			C245.87,495.1,245.16,497.12,243.74,498.62z M234.56,497.03c0.88,1.1,2.06,1.66,3.54,1.66c1.48,0,2.67-0.55,3.56-1.66
			c0.89-1.1,1.34-2.59,1.34-4.46c0-1.86-0.45-3.32-1.34-4.4c-0.89-1.08-2.08-1.61-3.56-1.61c-1.48,0-2.66,0.54-3.54,1.61
			c-0.88,1.08-1.32,2.54-1.32,4.4C233.23,494.44,233.68,495.93,234.56,497.03z"/>
		<path d="M261.66,499.36c0.08,0.14,0.12,0.28,0.12,0.41c0,0.13-0.04,0.27-0.12,0.41c-0.19,0.27-0.46,0.4-0.8,0.4
			c-0.49,0-0.95-0.11-1.37-0.33s-0.76-0.52-0.99-0.9l-3.14-5c-0.08-0.13-0.2-0.19-0.35-0.19h-2.41c-0.16,0-0.24,0.07-0.24,0.21v4.96
			c0,0.34-0.14,0.63-0.41,0.88c-0.28,0.25-0.61,0.37-0.99,0.37s-0.72-0.12-0.99-0.37s-0.41-0.54-0.41-0.88v-12.82
			c0-0.51,0.2-0.94,0.6-1.3c0.4-0.36,0.89-0.54,1.45-0.54h3.78c4.28,0,6.43,1.53,6.43,4.6c0,1.15-0.31,2.11-0.92,2.86
			c-0.61,0.75-1.47,1.3-2.58,1.63c-0.14,0.06-0.17,0.14-0.09,0.25L261.66,499.36z M252.58,486.71c-0.16,0-0.24,0.07-0.24,0.21v5.04
			c0,0.14,0.08,0.21,0.24,0.21h2.46c2.66,0,3.99-0.96,3.99-2.89c0-0.93-0.33-1.59-0.99-1.98c-0.66-0.39-1.66-0.59-3-0.59H252.58z"/>
		<path d="M267.4,500.59c-0.57,0-1.05-0.18-1.45-0.54c-0.4-0.36-0.6-0.79-0.6-1.3v-12.23c0-0.51,0.2-0.94,0.6-1.3
			c0.4-0.36,0.89-0.54,1.45-0.54h2.58c2.76,0,4.87,0.67,6.36,2.01c1.48,1.34,2.22,3.3,2.22,5.87s-0.74,4.55-2.21,5.94
			c-1.47,1.38-3.55,2.08-6.23,2.08H267.4z M268.15,498.35c0,0.14,0.08,0.2,0.24,0.19h1.39c1.92,0,3.38-0.5,4.38-1.51
			c1-1.01,1.5-2.49,1.5-4.46c0-3.91-1.96-5.86-5.88-5.84h-1.39c-0.16,0-0.24,0.07-0.24,0.21V498.35z"/>
	</g>
</g>
</svg>
