<?xml version="1.0" encoding="utf-8"?>
<!-- Generator: Adobe Illustrator 23.0.5, SVG Export Plug-In . SVG Version: 6.00 Build 0)  -->
<svg version="1.1" id="圖層_1" xmlns="http://www.w3.org/2000/svg" xmlns:xlink="http://www.w3.org/1999/xlink" x="0px" y="0px"
	 viewBox="0 0 1920 1080" style="enable-background:new 0 0 1920 1080;" xml:space="preserve">
<style type="text/css">
	.st0{fill:#FFD66D;}
	.st1{fill:#291105;}
	.st2{fill:#F7960F;}
	.st3{fill:#27A6B7;stroke:#291105;stroke-miterlimit:10;}
	.st4{fill:#CA3244;stroke:#291105;stroke-miterlimit:10;}
	.st5{fill:#CD7DF3;stroke:#291105;stroke-miterlimit:10;}
	.st6{fill:#50E6FA;stroke:#291105;stroke-miterlimit:10;}
	.st7{fill:#C272E1;stroke:#291105;stroke-miterlimit:10;}
</style>
<g>
	<g>
		<g>
			<path class="st0" d="M679.8,208c7-9.3,2.5-23.9-4.9-32.7c-7.4-8.8-17.3-15.1-23.2-25.3c-5.4-9.5-6.6-21.4-6.3-32.7
				c0.3-11.9,2.2-24.4,8.6-33.9c8.9-13.4,24.6-18.5,39.3-21.2c11.6-2.1,25.9-1.8,32.2,9.3c3.8,6.7,3.3,15.2,3.8,23.1
				c1.5,23.8,13.2,45.2,26.2,64c2.5,3.6,5.2,7.6,5.3,12.2c0.3,9-8.6,14.4-16.2,17.3c-18.5,7.2-37.3,13.3-56.3,18.1
				c-2.5,0.6-6.4-0.6-5.3-3.1"/>
			<g>
				<path class="st1" d="M681.1,208.7c7.5-10.2,2.5-24.9-4.6-33.9c-4.2-5.2-9.4-9.5-14.2-14.2c-4.9-4.8-9.3-10.1-11.7-16.6
					c-2.6-6.8-3.5-14.2-3.7-21.4c-0.2-7.2,0.2-14.5,1.7-21.6c1.4-6.8,3.9-13.5,8.2-19c3.9-5,9-8.8,14.6-11.6
					c5.6-2.8,11.6-4.6,17.6-5.9c5.6-1.2,11.3-2.1,17.1-1.8c5.3,0.3,10.9,1.7,14.9,5.5c5,4.7,6,11.7,6.3,18.2
					c0.4,7.3,0.7,14.5,2.3,21.7c1.6,7.1,3.9,13.9,6.8,20.5c2.9,6.7,6.4,13.1,10.2,19.4c1.9,3,3.8,6,5.8,9c2,3,4.3,5.8,5.7,9.1
					c6,14-12.4,20.1-22.1,23.7c-15.2,5.6-30.7,10.5-46.4,14.6c-1.3,0.3-2.6,0.8-4,0.5c-0.7-0.2-1.7-0.4-1.4-1.3
					c0.6-1.8-2.3-2.6-2.9-0.8c-1,2.8,1.5,4.7,4,5.1c1.5,0.2,2.9,0,4.3-0.4c2.1-0.5,4.2-1.1,6.3-1.7c8.2-2.2,16.3-4.7,24.4-7.4
					c8.1-2.7,16.1-5.6,24.1-8.7c5.4-2.1,11-4.9,14.6-9.6c1.8-2.3,2.9-5,3.1-8c0.3-3.6-1.1-7.1-2.9-10.2c-1.9-3.2-4.2-6.2-6.2-9.3
					c-2.1-3.2-4.1-6.4-6-9.6c-7.6-13.1-13.7-27.2-15.9-42.3c-1.1-7.5-0.4-15.2-2-22.7c-1.3-6.3-4.8-11.9-10.5-15
					c-10.6-5.8-24.3-3.1-35.3-0.2c-12.7,3.4-24.9,9.8-31.8,21.4c-3.8,6.4-5.8,13.7-6.8,21c-1,7.5-1.3,15.2-0.7,22.8
					c0.6,7.4,2.1,14.9,5.6,21.6c3.3,6.3,8.4,11.4,13.5,16.3c4.9,4.6,10.2,9.2,13.7,15c3.3,5.4,5.4,12,4.8,18.4
					c-0.3,3-1.4,5.7-3.2,8.1C677.3,208.8,679.9,210.3,681.1,208.7L681.1,208.7z"/>
			</g>
		</g>
		<g>
			<g>
				<path class="st1" d="M647.4,119.9c19.7,1.9,39.7-0.7,58.3-7.4c5.3-1.9,10.5-4.2,15.5-6.7c1.7-0.9,0.2-3.5-1.5-2.6
					c-17.4,8.8-36.6,13.8-56,14.3c-5.4,0.2-10.9,0-16.3-0.6C645.5,116.7,645.5,119.7,647.4,119.9L647.4,119.9z"/>
			</g>
		</g>
	</g>
	<g>
		<g>
			<path class="st0" d="M720.5,76.4c0-8.7,7.3-15.1,14.2-19.1c21.1-12.2,46-16.2,69.4-11.2c12.5,2.7,26.1,9.9,29,23.7
				c1.4,6.8-0.1,13.8-1.3,20.7c-3.6,21.2-3.6,43.1,0.1,64.3c1.4,8.2,2.5,18.6-3.9,22.8c-2.3,1.5-5,1.7-7.6,1.9
				c-16.5,1.2-33.1,2.4-49.6,3.5c-2.7,0.2-5.5,0.4-8.1-0.6c-3.1-1.2-5.6-4-7.8-6.7C732.4,147.9,720,110.4,720.8,73"/>
			<g>
				<path class="st1" d="M722,76.4c0-6.2,4.2-11.3,9-14.9c5.3-4,11.7-7,17.9-9.4c13.1-5.1,27.2-7.4,41.2-6.5
					c11.6,0.7,24.5,3.2,33.5,11.2c4.3,3.8,7.3,8.7,8.2,14.3c1.3,7.7-1,15.6-2.1,23.2c-2.3,15.7-2.7,31.7-1.1,47.5
					c0.4,3.8,0.9,7.6,1.5,11.4c0.5,3,1,6.1,1.2,9.2c0.3,4.8,0.2,11.3-4.5,14.1c-3.1,1.8-7.3,1.5-10.7,1.7c-4.1,0.3-8.1,0.6-12.2,0.9
					c-8.1,0.6-16.2,1.2-24.3,1.7c-4,0.3-8.1,0.8-12.1,0.8c-3.7,0-6.4-1.3-9-3.9c-4.6-4.7-8.4-10.5-12-16.1
					c-14.7-23.4-23-50.8-24.1-78.4c-0.1-3.4-0.2-6.8-0.1-10.2c0-1.9-3-1.9-3,0c-0.3,14.6,1.3,29.2,4.8,43.4
					c3.5,13.9,8.7,27.5,15.7,40c3.4,6.2,7.3,12.1,11.6,17.7c2.1,2.7,4.2,5.6,6.9,7.7c3.1,2.4,6.6,3.1,10.4,2.9
					c8.5-0.4,16.9-1.2,25.4-1.8c8.5-0.6,17-1.2,25.6-1.8c3.4-0.2,7-0.6,9.8-2.8c2.1-1.7,3.4-4.1,4.1-6.7c1.5-5.9,0.4-12.2-0.6-18
					c-2.7-16.3-3.2-33.1-1.6-49.6c0.4-4.1,0.9-8.2,1.6-12.2c0.7-4,1.5-8.1,1.9-12.2c0.6-6.9-0.5-13.7-4.5-19.5
					c-7-10-19.4-14.4-31-16.3c-14.5-2.3-29.5-1.3-43.6,2.9c-7.1,2.1-14,5-20.5,8.6c-5.4,3-10.8,6.9-13.9,12.5
					c-1.5,2.7-2.3,5.6-2.3,8.7C719,78.3,722,78.3,722,76.4L722,76.4z"/>
			</g>
		</g>
		<g>
			<g>
				<path class="st1" d="M724.4,104.4c25.5,1.1,51.7,2,76.5-4.7c7-1.9,13.8-4.4,20.3-7.6c1.7-0.8,0.2-3.4-1.5-2.6
					c-22.9,11.2-48.8,13.1-74,12.7c-7.1-0.1-14.2-0.4-21.3-0.7C722.4,101.3,722.4,104.3,724.4,104.4L724.4,104.4z"/>
			</g>
		</g>
	</g>
	<g>
		<g>
			<path class="st0" d="M820.1,74.2c7.8-11.7,20.9-17.4,33.7-20.4c14.4-3.4,29.7-4.2,43.7,1c14,5.2,26.5,16.9,31.1,32.6
				c4.4,15.1,1.1,31.4-0.1,47.3c-1.1,14.6-0.4,29.4,2.1,43.8c1.2,6.8,2.6,14.7-1.4,20c-4.6,6.3-13.4,4.9-20.5,3
				c-18.1-4.9-36.1-9.8-54.2-14.8c-8.3-2.3-17-4.7-23.5-11c-7-6.8-10.5-17.1-12.3-27.3c-4.5-25.1-0.8-51,3-76.2"/>
			<g>
				<path class="st1" d="M821.4,75c7.3-10.9,19.5-16.5,31.9-19.5c14.6-3.6,30.5-4.5,44.8,1.2c11.4,4.5,21.1,13.3,26.4,24.3
					c6.7,13.8,4.9,29.7,3.4,44.4c-0.8,7.9-1.4,15.9-1.4,23.8c0,8,0.7,16,1.8,24c0.5,3.7,1.3,7.4,1.8,11.1c0.4,3.2,0.6,6.6-0.3,9.7
					c-0.8,2.8-2.6,5.3-5.2,6.6c-2.5,1.2-5.4,1.3-8.1,1c-3.1-0.3-6-1.1-9-1.9c-4.1-1.1-8.2-2.2-12.2-3.3c-8-2.2-16-4.4-24-6.5
					c-7.6-2.1-15.2-3.9-22.7-6.3c-6.4-2-12.7-4.8-17.4-9.8c-4.6-4.9-7.4-11.3-9.2-17.7c-2.1-7.4-3.1-15.1-3.5-22.8
					c-1-16.3,0.8-32.6,3-48.7c0.6-3.9,1.1-7.9,1.7-11.8c0.3-1.9-2.6-2.7-2.9-0.8c-2.5,16.8-5,33.7-5.1,50.7
					c-0.1,8.4,0.5,16.8,1.9,25.2c1.2,7.1,3.1,14.3,6.6,20.6c3.4,6.2,8.4,11.2,14.8,14.4c6.6,3.3,13.9,5,21,6.9
					c16.6,4.5,33.2,9.3,49.9,13.6c5.6,1.4,12.2,2.5,17.4-0.5c6.1-3.5,7-10.9,6.4-17.3c-0.4-3.8-1.2-7.4-1.7-11.2
					c-0.6-4.2-1.1-8.4-1.4-12.6c-0.7-8.4-0.7-16.9-0.1-25.4c1.1-16.1,4.8-32.7,0.4-48.7C926.7,75,918,64.2,906.7,57.5
					c-13.1-7.8-28.8-9.2-43.7-7.1c-13.4,1.9-27.6,6.1-37.8,15.5c-2.4,2.2-4.6,4.8-6.4,7.5C817.7,75.1,820.3,76.6,821.4,75L821.4,75z
					"/>
			</g>
		</g>
		<g>
			<g>
				<path class="st1" d="M821.4,93.2c6.5-0.6,12.6,2.4,18.5,4.5c5.9,2.1,12,3.9,18,5.4c12.2,3.1,24.8,5.1,37.4,5.9
					c7.2,0.5,14.3,0.6,21.5,0.3c1.9-0.1,1.9-3.1,0-3c-25.4,1-50.8-2.8-74.8-11c-6.6-2.3-13.5-5.7-20.7-5
					C819.5,90.3,819.5,93.3,821.4,93.2L821.4,93.2z"/>
			</g>
		</g>
	</g>
	<g>
		<g>
			<path class="st0" d="M922.3,99.3c12.8-8.9,26.2-16.8,40.1-23.6c8.9-4.3,18.6-8.3,28.1-6.2c11.1,2.4,19.5,12.6,25.7,23.1
				c17.5,29.9,23.1,68.1,15.2,102.6c-1.2,5.4-2.8,10.8-5.7,15.3c-8.1,12.6-23.7,15-37.6,15.4c-14,0.5-28.9-0.2-40.8-8.7
				c-16.1-11.5-22.4-34.2-25.4-55.4c-2.2-15.4-3.4-31-3.6-46.5c-0.1-7,0.6-15.1,5.9-18.9"/>
			<g>
				<path class="st1" d="M923,100.6c13.4-9.3,27.5-17.7,42.2-24.6c7.1-3.3,15-6.4,23-5.3c6.7,0.9,12.5,4.9,17.1,9.7
					c4.8,5.1,8.6,11.1,11.9,17.2c3.4,6.3,6.3,13,8.6,19.8c4.7,13.8,7.2,28.4,7.6,43c0.2,7.3-0.2,14.7-1.1,21.9
					c-1,7.4-2.3,15.1-5.1,22.1c-2.4,6.2-6.7,11.2-12.4,14.4c-5.3,2.9-11.3,4.4-17.2,5.1c-6.5,0.8-13.2,0.9-19.7,0.7
					c-7.1-0.2-14.3-1.2-20.9-3.8c-12.4-4.8-20.6-15.6-25.5-27.6c-5.4-13.1-7.6-27.3-9.2-41.2c-1-8.5-1.6-17-2-25.5
					c-0.2-4.1-0.3-8.2-0.3-12.3c0-3.1,0.2-6.3,1-9.3c0.7-2.7,1.9-5.3,4.2-7c1.5-1.1,0-3.7-1.5-2.6c-5.3,4-6.4,10.9-6.6,17.1
					c-0.3,8.5,0.3,17.2,0.9,25.7c1.2,15.6,2.9,31.4,7.3,46.4c3.7,12.6,9.8,25.3,20.5,33.4c12.1,9.3,28,10.2,42.7,9.7
					c12.3-0.4,26.1-2.3,35.1-11.6c5.4-5.6,7.8-13,9.5-20.4c1.7-7.5,2.8-15.1,3.3-22.7c1-15.3-0.5-30.8-4.3-45.6
					c-3.7-14.4-9.5-28.6-17.9-40.9c-4-5.8-8.8-11.3-14.9-14.9c-6.6-4-14.2-4.7-21.7-3c-8.2,1.9-15.9,6-23.3,9.8
					c-7.6,4-15,8.2-22.2,12.8c-3.5,2.2-7,4.6-10.4,7C919.9,99.1,921.4,101.7,923,100.6L923,100.6z"/>
			</g>
		</g>
		<g>
			<g>
				<path class="st1" d="M918.9,110.5c12.2,3.6,25,4.7,37.7,5c6,0.2,12,0.3,18,0.2c5.4,0,10.8-0.3,16.1-1.3c6-1.1,11.9-3.4,16.8-7.1
					c1.5-1.1,0-3.8-1.5-2.6c-8.6,6.5-19.5,7.8-30,8c-11.9,0.2-24,0-35.9-1.2c-6.9-0.7-13.8-2-20.4-3.9
					C917.8,107.1,917,110,918.9,110.5L918.9,110.5z"/>
			</g>
		</g>
	</g>
	<g>
		<g>
			<path class="st0" d="M1005.3,125.2c18-32.2,52.7-48.7,86.5-51.9c10.4-1,21.5-0.7,30.7,4.9c13.8,8.5,20.1,27.5,19.5,45
				c-0.6,17.6-7,34.1-13.2,50.3c-5.2,13.4-11.1,27.7-22.5,34.6c-7.2,4.4-15.7,5.2-23.9,5.9c-9.1,0.8-18.2,1.6-27.4,2.4
				c-10.5,0.9-21.8,1.7-30.9-4.1c-12-7.6-16.9-24.4-17.4-39.9s2.2-31,0.8-46.4"/>
			<g>
				<path class="st1" d="M1006.6,126c6.7-11.9,15.9-22.1,27-30.1c10.8-7.8,23-13.4,35.8-16.9c6.3-1.8,12.7-3,19.2-3.8
					c7.3-0.9,14.9-1.3,22.1,0.1c6.9,1.4,13,4.7,17.8,9.9c4.4,4.8,7.4,10.8,9.3,17c4.5,14.7,2.8,30.1-1.3,44.7
					c-2.3,8-5.2,15.8-8.2,23.6c-2.6,6.7-5.2,13.5-8.6,19.9c-3.2,5.9-7.2,11.7-12.8,15.5c-6.4,4.4-14.2,5.7-21.8,6.4
					c-8.8,0.8-17.6,1.6-26.4,2.4c-7.7,0.7-15.7,1.7-23.4,0.3c-6.9-1.2-12.9-4.6-17.2-10.1c-4-5.1-6.5-11.3-8-17.6
					c-3.8-15.9-1.1-32.3-0.8-48.4c0.1-4.3,0-8.6-0.4-12.9c-0.2-1.9-3.2-1.9-3,0c1.6,17.6-2.4,35.3-0.4,52.9
					c1.5,13.1,6.3,27.8,18.2,35c6.8,4.1,14.8,4.9,22.5,4.6c8.9-0.3,17.7-1.4,26.5-2.2c8.4-0.7,17.1-1,25.3-3.2
					c7.2-2,13.3-6.1,17.9-11.9c4.6-5.7,7.9-12.3,10.7-19c3.2-7.4,6-15,8.7-22.7c5.5-15.5,9.6-32,7.3-48.5
					c-1.8-13.1-7.8-26.9-19.4-34.2c-6.8-4.2-14.8-5.6-22.7-5.6c-7.2,0-14.4,0.9-21.4,2.2c-13.5,2.6-26.7,7.3-38.7,14.2
					c-12.1,7-22.7,16.4-30.9,27.7c-2.1,2.9-4,5.8-5.7,8.9C1003,126.2,1005.6,127.7,1006.6,126L1006.6,126z"/>
			</g>
		</g>
		<g>
			<g>
				<path class="st1" d="M1008.2,130.6c17.4,0.7,34.9,1.1,52.3-1.3c14.9-2.1,29.7-6.5,42.8-14c7.3-4.2,14.1-9.4,20-15.5
					c1.3-1.4-0.8-3.5-2.1-2.1c-10.2,10.5-22.9,18.1-36.7,22.9c-15.2,5.3-31.3,7.2-47.3,7.5c-9.6,0.2-19.3-0.1-28.9-0.5
					C1006.3,127.5,1006.3,130.5,1008.2,130.6L1008.2,130.6z"/>
			</g>
		</g>
	</g>
	<g>
		<g>
			<path class="st0" d="M1119.9,73.6c17.6-27.9,52.1-40.8,81.1-30.2c11.4,4.1,22.1,11.8,28.8,22.9c6.7,11.1,9.1,25.9,4.5,38.3
				c-4.2,11.6-13.5,19.7-20.1,29.8c-10.6,16.2-15,38.4-30,49.3c-14.9,10.8-34.6,6.3-51.2-0.8c-5-2.2-10-4.6-13.7-9
				c-5.1-6.1-6.5-15-7-23.4c-1.4-26.7,5.3-53.1,11.9-78.8"/>
			<g>
				<path class="st1" d="M1121.2,74.4c6.8-10.8,16.4-19.6,27.8-25.5c10.8-5.6,23.1-8.4,35.3-7.5c13,0.9,25.8,6.1,35.4,14.9
					c10.6,9.8,16.7,24.1,15.3,38.6c-0.7,7.3-3.6,13.8-7.7,19.8c-4.1,6-9,11.3-13.1,17.2c-7.6,10.9-11.6,23.6-18,35.1
					c-3,5.4-6.7,10.6-11.6,14.5c-5.4,4.3-12,6.6-18.8,7c-7.1,0.4-14.2-0.9-21-3c-3.4-1.1-6.8-2.3-10.1-3.7c-3.3-1.4-6.6-2.9-9.6-5
					c-6.1-4.2-8.9-10.8-10.1-17.9c-1.4-7.9-1.3-16.2-0.8-24.2c0.9-17.1,4.6-34,8.7-50.6c1-4,2-8.1,3.1-12.1c0.5-1.9-2.4-2.7-2.9-0.8
					c-4.4,17.2-8.8,34.6-10.9,52.3c-1,8.8-1.5,17.8-1.1,26.7c0.4,7.3,1.4,15.1,5.2,21.5c4,6.7,10.8,10.1,17.7,13
					c6.9,2.9,14.1,5.2,21.5,6.3c7.1,1,14.5,0.8,21.3-1.7c6.4-2.4,11.9-6.6,16.2-11.9c8.5-10.6,12.6-23.9,19-35.8
					c3.4-6.4,7.8-12.1,12.4-17.8c4.7-5.8,9.2-11.9,11.7-19c5.1-14.2,1.6-30.8-7.1-42.8c-8.3-11.4-21.1-19.2-34.8-22.2
					c-12.5-2.8-25.7-1.7-37.7,2.7c-12.3,4.5-23.4,12.3-31.8,22.4c-2.1,2.5-4.1,5.2-5.8,8C1117.6,74.5,1120.2,76,1121.2,74.4
					L1121.2,74.4z"/>
			</g>
		</g>
		<g>
			<g>
				<path class="st1" d="M1123.5,78.8c5.6-0.9,11.1,2.6,16.5,3.7c6,1.1,12.1,1,18.2,1.1c12.3,0.2,24.7,0.3,37-0.7
					c6.9-0.5,13.8-1.4,20.7-2.6c1.9-0.4,1.1-3.2-0.8-2.9c-12.2,2.3-24.5,3.1-36.9,3.3c-6.2,0.1-12.3,0-18.5-0.1
					c-6.1-0.1-12.4,0.2-18.4-0.9c-6.3-1.1-12.1-4.7-18.6-3.7C1120.8,76.2,1121.6,79.1,1123.5,78.8L1123.5,78.8z"/>
			</g>
		</g>
	</g>
	<g>
		<g>
			<path class="st0" d="M1217.5,80.2c3.9-13.7,20.8-17.8,32.3-11.5c11.5,6.3,18.8,19.2,25.1,31.7c9,17.7,17.5,38.9,10.5,57.7
				c-3.7,10-11.3,17.4-18.6,24.4c-7.7,7.4-15.4,14.8-23.1,22.2c-2.2,2.1-4.5,4.3-7.3,5.2c-4.7,1.5-9.6-0.8-14-3.1
				c-14.8-7.8-30.6-18.4-34.6-36.2c-3.6-16.2,4-32.6,12.2-46.5s17.6-28.3,17.9-45"/>
			<g>
				<path class="st1" d="M1218.9,80.6c2.6-9,11.6-13.7,20.5-13.3c10.7,0.5,18.9,8.7,24.6,17.1c3.4,5,6.3,10.3,9,15.7
					c3,5.9,5.8,11.8,8.2,18c4.5,11.9,7.3,25.2,3.4,37.6c-3.8,12.2-13.9,20.9-22.9,29.5c-5.2,5-10.4,10-15.7,15
					c-2.5,2.4-4.8,5.1-7.7,7c-2.8,1.9-5.8,2-9,1.1c-3-0.9-5.9-2.5-8.6-4c-2.4-1.3-4.7-2.6-7-4.1c-4.6-2.9-9-6.1-12.9-9.9
					c-3.8-3.7-7-7.9-9.2-12.7c-2.6-5.6-3.6-11.7-3.3-17.9c1.5-26.7,24.6-45.7,29.9-71.3c0.6-3.1,1-6.2,1.1-9.3c0-1.9-3-1.9-3,0
					c-0.3,13.6-6.8,25.8-13.6,37.3c-7,11.8-14.4,23.9-16.7,37.7c-1.1,6.6-1,13.4,1,19.9c1.7,5.5,4.6,10.4,8.3,14.8
					c7.3,8.7,17.4,14.9,27.5,20c3.1,1.6,6.5,3.1,10.1,3.2c3.3,0.1,6.2-1.3,8.7-3.3c2.9-2.3,5.4-5,8.1-7.6c2.7-2.6,5.5-5.2,8.2-7.8
					c5.2-5,10.4-9.8,15.4-14.9c4.4-4.5,8.6-9.5,11.5-15.1c6.3-12.2,5.4-26.2,1.5-39c-2-6.6-4.7-13.1-7.7-19.3
					c-2.8-5.8-5.7-11.6-9-17.1c-5.7-9.5-13.7-19.8-25-22.5c-9.2-2.2-19.7,0.5-25.4,8.3c-1.4,1.9-2.4,4.1-3.1,6.4
					C1215.5,81.6,1218.4,82.4,1218.9,80.6L1218.9,80.6z"/>
			</g>
		</g>
		<g>
			<g>
				<path class="st1" d="M1217.5,80.1c0.7,6,4.3,10.8,8.3,15.1c4.8,5.2,9.7,10.3,14.6,15.4c5,5.2,9.9,10.5,14.9,15.7
					c4.6,4.8,9,10,14.2,14.2c4.9,4,10.9,7.1,17.4,5.6c1.9-0.4,1.1-3.3-0.8-2.9c-5.3,1.2-10.4-1.6-14.4-4.9
					c-4.8-3.9-8.9-8.7-13.1-13.1c-9.4-9.9-18.7-19.8-28.1-29.7c-4.2-4.4-9.1-9.2-9.8-15.5C1220.3,78.2,1217.3,78.1,1217.5,80.1
					L1217.5,80.1z"/>
			</g>
		</g>
	</g>
	<g>
		<g>
			<path class="st2" d="M527.8,486.8c-3.7,4.6-4.4,11.5-3.3,17.5s4.1,11.5,6.9,16.8c2.9,5.5,5.8,10.9,8.7,16.4
				c2.3,4.4,5.1,9.2,9.5,10.5c3.4,1,7.1-0.3,9.8-2.9s4.3-6.2,5.3-10c2.8-10.9-0.1-23.5-7.2-31.5c-4.9-5.5-11.5-8.8-18.1-11.2"/>
			<g>
				<path class="st1" d="M526.7,485.8c-6.6,8.4-4.4,19.8-0.3,28.8c2.4,5.3,5.3,10.4,8,15.5c2.5,4.7,4.7,9.8,7.9,14
					c2.8,3.7,6.6,6.4,11.4,5.6c4.9-0.8,8.6-4.8,10.6-9.2c4.1-8.8,3.8-19.5,0.1-28.4c-2.1-5.1-5.3-9.6-9.6-13.1
					c-4.5-3.7-9.7-6.2-15.1-8.1c-1.8-0.7-2.6,2.2-0.8,2.9c8.5,3.1,16.5,7.8,21,15.9c4.2,7.5,5.4,16.7,3.3,25
					c-1.1,4.3-3.2,8.9-7.3,11.1c-1.8,1-3.9,1.4-5.9,0.8c-1.8-0.5-3.3-1.9-4.5-3.3c-3-3.5-4.9-8.1-7.1-12.2c-2.5-4.6-5-9.3-7.4-13.9
					c-2.5-4.8-4.8-9.9-5.4-15.3c-0.5-4.8,0.1-10.2,3.2-14.1C530,486.4,527.9,484.3,526.7,485.8L526.7,485.8z"/>
			</g>
		</g>
		<g>
			<path class="st2" d="M517,413.8c-6.3,6.5-8.1,16.9-7.6,26.5c0.9,18.9,9,37.2,21.9,49.4c1.8,1.7,3.8,3.3,6.2,3.5
				c3.2,0.2,6-2.7,7.2-6c1.1-3.3,0.9-7,0.5-10.6c-1.4-10.4-4.8-20.5-9.9-29.3"/>
			<g>
				<path class="st1" d="M515.9,412.8c-6.5,6.7-8.3,16.6-8.1,25.6c0.1,9.7,2.3,19.5,6.1,28.5c3.7,8.7,9,16.8,15.8,23.4
					c3.3,3.2,7.6,6.1,12.1,3.2c4.2-2.8,5.4-8,5.2-12.8c-0.2-5.9-1.5-11.9-3.3-17.6c-1.8-5.8-4.2-11.3-7.2-16.5
					c-1-1.7-3.6-0.2-2.6,1.5c4.9,8.4,8.1,17.8,9.6,27.4c0.7,4.4,1.3,9.8-1.5,13.6c-1.1,1.5-2.8,2.8-4.7,2.5c-2.2-0.3-4-2.1-5.5-3.5
					c-12.6-12.1-19.8-29.5-20.9-46.8c-0.5-9.1,0.5-19.6,7.2-26.5C519.4,413.5,517.3,411.4,515.9,412.8L515.9,412.8z"/>
			</g>
		</g>
		<g>
			<path class="st2" d="M529.8,337.4c-9.5,5.5-12.9,18.7-14.6,30.5c-1.4,9.9-2.4,20-1.8,30.1c1,17.8,6.8,35.2,16.4,49.3
				c0.6,0.8,1.2,1.7,2,2.2c2.3,1.2,4.9-1.1,6.3-3.5c3-5.7,3-12.7,2.9-19.3c-0.3-16.6-0.5-33.1-0.8-49.7"/>
			<g>
				<path class="st1" d="M529.1,336.1c-9.8,5.8-13.1,18-14.8,28.5c-2.4,14-3.5,28.4-1.4,42.5c1.9,13.2,6.4,26.1,13.4,37.4
					c1.4,2.3,3.1,5.9,5.9,6.6c2.9,0.8,5.5-1.6,6.9-3.8c3.5-5.5,3.6-12.7,3.5-19c-0.2-17.1-0.6-34.3-0.8-51.4c0-1.9-3-1.9-3,0
					c0.2,14.3,0.5,28.7,0.7,43c0.1,6.5,0.7,13.3-0.6,19.7c-0.6,2.7-1.5,5.8-3.6,7.7c-0.9,0.8-2,1.4-3,0.5c-1.1-0.9-1.9-2.6-2.7-3.8
					c-6.6-10.4-11.1-22.2-13.2-34.4c-2.4-13.4-1.6-27,0.3-40.5c0.8-6,2-11.9,4.1-17.6c2-5.2,5.1-10.1,9.9-13
					C532.2,337.8,530.7,335.2,529.1,336.1L529.1,336.1z"/>
			</g>
		</g>
		<g>
			<path class="st2" d="M558,287.5c-13.4,3.5-23,17.5-26.4,32.4c-3.4,14.9-1.6,30.6,0.8,45.7c0.6,3.5,1.4,7.3,4,9.4
				c3.5,2.8,8.8,0.7,11.3-3.3c2.6-3.9,3.1-9,3.6-13.8c1.1-11.1,2.2-22.1,3.4-33.2"/>
			<g>
				<path class="st1" d="M557.6,286.1c-9.2,2.4-16.3,9.3-21,17.3c-5.7,9.5-7.9,20.5-8.3,31.5c-0.2,6.3,0.2,12.7,1,19
					c0.4,3.1,0.8,6.1,1.3,9.1c0.4,2.7,0.7,5.4,1.6,7.9c0.8,2.3,2,4.5,4.1,5.8c1.9,1.2,4.2,1.3,6.3,0.8c4.9-1.4,7.6-5.8,8.9-10.4
					c0.8-2.9,1.1-6,1.4-9c0.4-3.6,0.7-7.3,1.1-10.9c0.8-7.4,1.5-14.9,2.3-22.3c0.2-1.9-2.8-1.9-3,0c-1.2,11.8-2.2,23.7-3.6,35.5
					c-0.5,4.5-1.4,10.1-5.3,13c-1.5,1.1-3.4,1.9-5.3,1.5c-2.1-0.5-3.3-2.4-4-4.2c-0.8-2.3-1.1-4.7-1.5-7.1c-0.5-2.8-0.9-5.7-1.2-8.6
					c-0.7-5.7-1.2-11.4-1.1-17.1c0-10.3,1.6-20.8,6.4-30c4.4-8.5,11.3-16.2,20.8-18.7C560.3,288.5,559.5,285.6,557.6,286.1
					L557.6,286.1z"/>
			</g>
		</g>
		<g>
			<path class="st2" d="M635.7,221.9c-9.7-2.1-19.9,0.1-29.1,4.3c-17.1,7.7-31.7,22-40.8,39.9c-9.1,17.9-12.6,39.3-9.8,59.6
				c0.1,1.1,0.3,2.2,0.9,3.1c1.4,2.1,4.3,2,6.4,0.9c2.9-1.4,5.1-3.9,7.3-6.5c14-16.3,26-34.8,35.5-54.8"/>
			<g>
				<path class="st1" d="M636.1,220.5c-15.6-3.3-31.7,3.5-44.2,12.5c-11.9,8.6-21.5,20.3-28,33.4c-7.2,14.6-10.7,31.1-10.4,47.4
					c0.1,4.1,0.4,8.2,1,12.3c0.3,1.8,0.7,3.5,2.2,4.7c1.2,1,2.7,1.3,4.2,1.1c3.7-0.4,6.7-3.2,9.1-5.8c2.8-3,5.3-6.2,7.9-9.4
					c10.3-13,19.2-27,26.6-41.8c0.9-1.9,1.9-3.8,2.8-5.7c0.8-1.7-1.8-3.3-2.6-1.5c-6.7,14.2-14.7,27.7-24,40.3
					c-2.3,3.1-4.6,6.2-7,9.1c-2.4,3-4.8,6.1-7.6,8.7c-1.6,1.5-5.8,4.9-7.9,2.3c-1.1-1.3-1-3.9-1.2-5.5c-0.2-1.9-0.3-3.8-0.4-5.7
					c-0.8-15.3,1.9-30.9,8.1-45c5.6-12.8,14.1-24.4,24.9-33.3c10.9-9,25.3-16.5,39.8-15.9c2,0.1,3.9,0.3,5.8,0.7
					C637.2,223.8,638,220.9,636.1,220.5L636.1,220.5z"/>
			</g>
		</g>
		<g>
			<path class="st2" d="M688.8,201.3c-20-4.8-42.1,3.7-55.4,21.1c-3,4-5.6,8.3-8.5,12.4c-4.2,5.7-9,10.8-12.9,16.8
				c-3.9,6-6.8,13.2-6.3,20.5c0,0.4,0.1,0.7,0.2,1.1c0.6,1.1,2,0.8,3,0.3c31.4-14.7,51-49.3,77.4-73.4"/>
			<g>
				<path class="st1" d="M689.2,199.9c-14.3-3.3-29.5-0.2-41.8,7.7c-6.5,4.2-12,9.6-16.5,15.9c-2.7,3.8-5.1,7.8-7.9,11.6
					c-2.7,3.6-5.6,6.9-8.3,10.4c-5.2,6.7-9.8,14.4-10.4,23.1c-0.1,1.7-0.5,4.4,0.7,5.9c1.2,1.4,3.1,1.1,4.6,0.5
					c3.3-1.5,6.5-3.3,9.5-5.2c12.7-8.1,23.3-19,33.2-30.2c10.2-11.5,19.9-23.6,31-34.4c1.4-1.3,2.8-2.7,4.2-3.9
					c1.4-1.3-0.7-3.4-2.1-2.1c-10.8,9.9-20.2,21.1-29.7,32.2c-9.4,10.8-19,21.6-30.3,30.4c-2.8,2.2-5.6,4.2-8.6,6
					c-1.5,0.9-3,1.8-4.5,2.6c-1.4,0.7-3,1.9-4.5,2.2c-0.1,0-0.2,0.1-0.4,0.1c-0.3-0.1,0.1,0.2,0-0.1c-0.1-0.4-0.1-1-0.1-1.5
					c0-1,0-2,0.1-3c0.2-2,0.7-4,1.3-5.9c1.3-3.9,3.3-7.5,5.6-10.9c2.4-3.5,5.1-6.7,7.8-10c2.7-3.4,5.3-6.9,7.7-10.5
					c2.3-3.4,4.5-6.9,7.3-10c2.3-2.7,4.9-5.2,7.7-7.4c10.8-8.6,25-13,38.8-11.3c1.7,0.2,3.3,0.5,5,0.9
					C690.2,203.2,691,200.3,689.2,199.9L689.2,199.9z"/>
			</g>
		</g>
	</g>
	<g>
		<g>
			<path class="st2" d="M1397.2,489.2c3.7,4.6,4.4,11.5,3.3,17.5c-1.2,6.1-4.1,11.5-6.9,16.8c-2.9,5.5-5.8,10.9-8.7,16.4
				c-2.3,4.4-5.1,9.2-9.5,10.5c-3.4,1-7.1-0.3-9.8-2.9s-4.3-6.2-5.3-10c-2.8-10.9,0.1-23.5,7.2-31.5c4.9-5.5,11.5-8.8,18.1-11.2"/>
			<g>
				<path class="st1" d="M1396.1,490.3c5.9,7.5,3.1,18.2-0.6,26c-2.2,4.7-4.8,9.3-7.2,13.9c-2.3,4.3-4.4,8.9-7.1,13
					c-2.1,3.3-5.2,6.8-9.5,6.1c-4.5-0.7-7.5-4.8-9-8.7c-3.2-8-2.7-17.6,0.7-25.5c2-4.5,4.9-8.3,8.7-11.4c4.1-3.3,8.9-5.6,13.8-7.4
					c1.8-0.7,1-3.6-0.8-2.9c-9.5,3.5-18.3,8.8-23.2,18c-4.5,8.5-5.7,19-2.8,28.2c1.5,4.6,4.2,9.4,8.7,11.6c4.4,2.1,9,1.3,12.5-2.1
					c3.6-3.4,5.7-8.3,8-12.7c2.8-5.2,5.6-10.4,8.3-15.6c5-9.9,9.2-22.9,1.6-32.6C1397,486.6,1394.9,488.7,1396.1,490.3L1396.1,490.3
					z"/>
			</g>
		</g>
		<g>
			<path class="st2" d="M1407.9,416.2c6.3,6.5,8.1,16.9,7.6,26.5c-0.9,18.9-9,37.2-21.9,49.4c-1.8,1.7-3.8,3.3-6.2,3.5
				c-3.2,0.2-6-2.7-7.2-6s-0.9-7-0.5-10.6c1.4-10.4,4.8-20.5,9.9-29.3"/>
			<g>
				<path class="st1" d="M1406.9,417.2c5.9,6.1,7.3,15.1,7.3,23.3c-0.1,8.9-1.9,17.7-5.2,26c-3.1,8-7.7,15.5-13.6,21.8
					c-2.4,2.6-6.4,7.5-10.3,5.1c-4-2.4-4.3-7.8-3.9-12c0.9-10.8,4.6-21.6,10-31c1-1.7-1.6-3.2-2.6-1.5c-5.3,9.2-8.8,19.5-10.1,30.1
					c-0.6,4.9-0.8,10.5,2.5,14.6c1.3,1.7,3.1,3,5.2,3.4c2.4,0.4,4.6-0.5,6.5-1.9c3.7-2.8,6.9-6.6,9.7-10.3c2.9-3.8,5.3-7.9,7.4-12.2
					c4.2-8.8,6.7-18.4,7.4-28.2c0.7-10.1-0.7-21.6-8-29.2C1407.7,413.7,1405.5,415.8,1406.9,417.2L1406.9,417.2z"/>
			</g>
		</g>
		<g>
			<path class="st2" d="M1395.1,339.8c9.5,5.5,12.9,18.7,14.6,30.5c1.4,9.9,2.4,20,1.8,30.1c-1,17.8-6.8,35.2-16.4,49.3
				c-0.6,0.8-1.2,1.7-2,2.2c-2.3,1.2-4.9-1.1-6.3-3.5c-3-5.7-3-12.7-2.9-19.3c0.3-16.6,0.5-33.1,0.8-49.7"/>
			<g>
				<path class="st1" d="M1394.4,341.1c9,5.3,11.8,16.9,13.4,26.5c2.2,13.2,3.3,26.9,1.6,40.2c-1.6,12.3-5.6,24.3-11.7,35.1
					c-0.7,1.2-1.4,2.4-2.2,3.6c-0.8,1.2-1.5,2.7-2.6,3.7c-2.3,2.2-4.8-2.4-5.5-4.1c-2.4-5.8-2-12.3-1.9-18.5
					c0.3-16.1,0.5-32.1,0.8-48.2c0-1.9-3-1.9-3,0c-0.3,15.4-0.5,30.8-0.8,46.2c-0.1,6.6-0.6,13.7,1.6,20.1c0.9,2.8,2.4,5.8,5.1,7.3
					c2.8,1.6,5.3,0.2,7.1-2.2c7.7-10.7,12.7-23.7,15.1-36.6c2.8-14.2,2-28.6,0-42.9c-1.6-11.7-4.4-26.3-15.5-32.8
					C1394.2,337.5,1392.7,340.1,1394.4,341.1L1394.4,341.1z"/>
			</g>
		</g>
		<g>
			<path class="st2" d="M1366.9,289.9c13.4,3.5,23,17.5,26.4,32.4c3.4,14.9,1.6,30.6-0.8,45.7c-0.6,3.5-1.4,7.3-4,9.4
				c-3.5,2.8-8.8,0.7-11.3-3.3c-2.6-3.9-3.1-9-3.6-13.8c-1.1-11.1-2.2-22.1-3.4-33.2"/>
			<g>
				<path class="st1" d="M1366.5,291.3c8.3,2.2,14.8,8.5,19.2,15.8c5.2,8.7,7.4,18.7,7.9,28.7c0.3,5.7,0,11.4-0.6,17.1
					c-0.5,5.5-1.3,11.1-2.3,16.6c-0.8,3.8-2.6,8.8-7.5,7.4c-4.6-1.3-6.5-6.3-7.3-10.6c-0.6-3-0.8-6-1.1-9c-0.3-3.3-0.7-6.6-1-9.9
					c-0.7-6.8-1.4-13.6-2.1-20.3c-0.2-1.9-3.2-1.9-3,0c0.7,6.6,1.3,13.2,2,19.8c0.6,6.1,1,12.3,2,18.4c0.8,5,2.4,10.4,7,13.3
					c4,2.5,8.9,2,11.6-2c1.4-2.1,2-4.6,2.5-7.1c0.5-3,1-6.1,1.4-9.1c0.8-6.1,1.5-12.3,1.6-18.4c0.2-11.3-1.4-22.7-6.5-32.9
					c-4.7-9.4-12.5-17.8-22.8-20.6C1365.5,287.9,1364.7,290.8,1366.5,291.3L1366.5,291.3z"/>
			</g>
		</g>
		<g>
			<path class="st2" d="M1289.2,224.3c9.7-2.1,19.9,0.1,29.1,4.3c17.1,7.7,31.7,22,40.8,39.9s12.6,39.3,9.8,59.6
				c-0.1,1.1-0.3,2.2-0.9,3.1c-1.4,2.1-4.3,2-6.4,0.9c-2.9-1.4-5.1-3.9-7.3-6.5c-14-16.3-26-34.8-35.5-54.8"/>
			<g>
				<path class="st1" d="M1289.6,225.7c14.7-3.1,30,3.6,41.7,12.1c11.2,8.1,20.2,19,26.5,31.3c7,13.7,10.5,29,10.6,44.3
					c0,3.8-0.2,7.6-0.6,11.4c-0.2,1.6-0.1,4.2-1.2,5.5c-0.9,1.1-2.4,0.9-3.6,0.5c-3.4-1.1-5.9-4.4-8.1-7c-2.5-3-5-6-7.4-9.1
					c-9.5-12.4-17.8-25.7-24.8-39.7c-0.9-1.7-1.7-3.5-2.6-5.3c-0.8-1.7-3.4-0.2-2.6,1.5c7.1,15,15.7,29.3,25.7,42.6
					c2.5,3.3,5,6.5,7.6,9.7c2.5,3.1,5.1,6.3,8.4,8.6c2.6,1.8,6.4,2.9,9.1,0.7c1.4-1.2,1.8-3,2.1-4.8c0.3-2,0.5-3.9,0.6-5.9
					c1.3-16.3-1.3-33-7.6-48c-5.7-13.7-14.7-26.1-26.2-35.6c-5.5-4.5-11.5-8.4-18-11.3c-7.6-3.4-15.9-5.7-24.2-5.3
					c-2.1,0.1-4.1,0.4-6.2,0.8C1287,223.2,1287.8,226.1,1289.6,225.7L1289.6,225.7z"/>
			</g>
		</g>
		<g>
			<path class="st2" d="M1236.2,203.7c20-4.8,42.1,3.7,55.4,21.1c3,4,5.6,8.3,8.5,12.4c4.2,5.7,9,10.8,12.9,16.8
				c3.9,6,6.8,13.2,6.3,20.5c0,0.4-0.1,0.7-0.2,1.1c-0.6,1.1-2,0.8-3,0.3c-31.4-14.7-51-49.3-77.4-73.4"/>
			<g>
				<path class="st1" d="M1236.6,205.1c13.5-3.2,27.9-0.1,39.5,7.4c6.1,3.9,11.4,9.1,15.6,15c2.6,3.6,4.9,7.4,7.5,11
					c2.5,3.4,5.2,6.6,7.8,9.8c5.1,6.4,9.9,13.6,10.8,21.9c0.1,1,0.2,2,0.1,3c0,0.4,0,0.9-0.1,1.3c0,0.3-0.1,0.4,0.1,0.3
					c-0.1,0.1-0.4,0-0.5-0.1c-1.5-0.3-3.1-1.4-4.5-2.2c-3.1-1.7-6.1-3.5-8.9-5.5c-11.7-8.2-21.5-18.7-30.9-29.4
					c-9.7-11-18.9-22.4-29.4-32.6c-1.3-1.2-2.6-2.5-3.9-3.7c-1.4-1.3-3.5,0.8-2.1,2.1c11.4,10.4,21.2,22.3,31.3,33.9
					c9.9,11.4,20.2,22.6,32.5,31.4c3,2.2,6.1,4.1,9.3,5.9c1.6,0.9,3.2,1.8,4.9,2.5c1.5,0.6,3.3,0.9,4.5-0.5c1.2-1.5,0.8-4.2,0.7-5.9
					c-0.2-2.1-0.6-4.2-1.2-6.3c-1.2-4-3.1-7.8-5.4-11.3c-2.5-3.8-5.3-7.2-8.2-10.7c-2.9-3.5-5.6-7.1-8.1-10.9
					c-4.6-6.9-9.3-13.3-15.9-18.4c-11.5-9-26.4-13.8-41-11.9c-1.8,0.2-3.6,0.5-5.4,1C1233.9,202.6,1234.7,205.5,1236.6,205.1
					L1236.6,205.1z"/>
			</g>
		</g>
	</g>
	<path class="st3" d="M1417.1,944.1c-62.6,92.1-188.8,81.4-359.3,89.1c-279.8,12.6-482,21.8-552-109
		c-37.5-70.2-13.3-172.9,35.6-378.7c45.5-191.3,77.6-319.2,172.8-361.1c38.7-17.1,131.5-39.1,182.2-4.7c3.2,2.1,26.8,18.5,60.7,29.3
		c31.1,9.9,45.1,7,52.4,4.7c15.4-4.9,18-12.7,36.7-23.5c18.9-10.8,35.1-13.6,51.3-16.4c8.9-1.5,92.2-15.8,149.8,31.7
		c34,28,36.6,58.9,70.2,157.1c36.3,106.2,36.2,79,76.5,193.5c74.5,211.9,64.5,276.3,56.6,308.4
		C1446.8,879.4,1438.3,912.8,1417.1,944.1z"/>
	<path class="st4" d="M1264,879.3c-53.9,69.8-137.1,73.1-282.6,78.7c-89.3,3.5-147-5.9-196.2-20.5c-54.1-16-84.4-25.5-109.9-56.3
		c-52.9-63.9-40.2-165.6-34-215.1c10-80.2,32.8-96.1,50.1-198.1c9.2-54.2,11.2-99.9,11.4-130.4c33.1,26.1,84.3,59.8,152.2,81.2
		c48.4,15.3,91.6,20,125,20.8c29.2-3.6,64.1-10.6,102.2-24.5c62.6-22.7,110.5-55.1,143.2-81.6c17.2,96.8,35.5,173,48.8,224.1
		c26.6,102.1,46.4,153.8,31.1,225.7C1301.3,802.3,1292.2,842.7,1264,879.3z"/>
	<path class="st5" d="M1143.7,724.8c-13.9,86.3-89.9,153.1-172.8,152.4c-83.7-0.7-162.2-70-172.8-165.3
		C786,603.3,867,505.6,958.3,498.5C1066.1,490.1,1162.1,610.2,1143.7,724.8z"/>
	<path class="st6" d="M1121.8,720.7c-12.1,75.3-78.3,133.7-150.4,133.1c-72.8-0.6-141.2-61.1-150.4-144.4
		c-10.5-94.8,60-180.1,139.5-186.3C1054.3,515.8,1137.8,620.6,1121.8,720.7z"/>
	<polygon class="st7" points="1104.9,690.1 1038.9,657.6 1038.9,722.5 	"/>
	<polygon class="st7" points="833.7,687.7 891.3,655.3 891.3,720.1 	"/>
	<polygon class="st7" points="904,803.5 914.3,753.2 944,778 	"/>
	<polygon class="st7" points="1028.9,805.9 1018.6,755.6 988.8,780.3 	"/>
	<polygon class="st7" points="1028.9,570.3 1018.6,620.6 988.8,595.8 	"/>
	<polygon class="st7" points="906.1,572.7 916.4,623 946.1,598.2 	"/>
	<path class="st7" d="M1002.6,772.7l93.8,7.2l-56.3-93.8l54.2-90.3l-86.4,6.6l-39-81.7l-38,79.6l-87.5-1.3l48.7,91.6l-51.6,84.6H925
		l38.2,80.9L1002.6,772.7z M997.5,615.8l38.2,74.1L999.6,760l-69.3,0l-33.8-71.7l37.4-72.5H997.5z"/>
	<polygon class="st6" points="968.1,559.5 947.5,595.8 988.7,595.8 	"/>
	<polygon class="st6" points="1061.2,617.3 1022.8,615.6 1043.4,655.5 	"/>
	<polygon class="st6" points="1059.2,759.3 1044.2,719.7 1020.8,757.6 	"/>
	<polygon class="st6" points="965,821.4 985.5,785 944.4,785 	"/>
	<polygon class="st6" points="873.9,758.4 912.3,760.2 891.8,720.3 	"/>
	<polygon class="st6" points="874.6,620.2 893.8,657.4 912.9,616.6 	"/>
</g>
</svg>
