<?xml version="1.0" encoding="utf-8"?>
<!-- Generator: Adobe Illustrator 23.0.5, SVG Export Plug-In . SVG Version: 6.00 Build 0)  -->
<svg version="1.1" id="圖層_1" xmlns="http://www.w3.org/2000/svg" xmlns:xlink="http://www.w3.org/1999/xlink" x="0px" y="0px"
	 viewBox="0 0 1920 1080" style="enable-background:new 0 0 1920 1080;" xml:space="preserve">
<style type="text/css">
	.st0{fill:#FFD66D;}
	.st1{fill:#291105;}
	.st2{fill:#F7960F;}
	.st3{fill:#27A6B7;stroke:#291105;stroke-miterlimit:10;}
	.st4{fill:#CA3244;stroke:#291105;stroke-miterlimit:10;}
	.st5{fill:#CD7DF3;stroke:#291105;stroke-miterlimit:10;}
	.st6{fill:#50E6FA;stroke:#291105;stroke-miterlimit:10;}
	.st7{fill:#C272E1;stroke:#291105;stroke-miterlimit:10;}
	.st8{fill:#393940;stroke:#000000;stroke-miterlimit:10;}
</style>
<g>
	<g>
		<g>
			<g>
				<path class="st0" d="M722.7,164.3c5.5-7.4,1.9-19-3.9-26s-13.6-12-18.2-20.2c-4.3-7.6-5.2-17-5-26c0.2-9.5,1.7-19.4,6.7-27
					c7-10.6,19.3-14.8,30.8-16.9c9.1-1.7,20.3-1.5,25.3,7.4c3,5.3,2.6,12.1,3,18.4c1.2,18.9,10.4,35.9,20.6,51c2,2.9,4.1,6,4.2,9.7
					c0.2,7.2-6.8,11.4-12.7,13.8c-14.5,5.7-29.3,10.6-44.3,14.4c-1.9,0.5-5-0.5-4.2-2.5"/>
				<g>
					<path class="st1" d="M724,165.1c5.9-8.1,2.1-19.8-3.4-27c-6.5-8.5-16.4-14.1-20.4-24.5c-2.1-5.3-2.8-11.1-3-16.7
						c-0.2-5.7,0.1-11.5,1.2-17.1c1.1-5.4,2.9-10.7,6.2-15.2c2.9-3.9,6.8-7,11.1-9.2c4.3-2.3,9.1-3.7,13.8-4.8
						c4.4-1,8.8-1.7,13.3-1.6c4.2,0.2,8.6,1.2,11.7,4.1c4,3.6,4.8,9.1,5.1,14.2c0.3,5.8,0.5,11.5,1.7,17.1c1.2,5.6,3,11.1,5.3,16.4
						c2.3,5.3,4.9,10.4,7.9,15.3c1.5,2.4,3,4.9,4.6,7.2c1.5,2.3,3.2,4.5,4.4,7c1.1,2.3,1.6,4.8,0.8,7.3c-0.6,2-2,3.7-3.6,5.1
						c-3.8,3.2-8.7,4.8-13.3,6.6c-11.9,4.5-24,8.4-36.3,11.7c-1.1,0.3-2.3,0.8-3.5,0.7c-0.3,0-0.9-0.1-1.2-0.4c-0.2-0.2-0.2,0,0-0.3
						c0.6-1.8-2.3-2.6-2.9-0.8c-0.7,2.2,1,3.9,3,4.4c2.7,0.6,5.7-0.7,8.3-1.4c6.6-1.8,13.1-3.8,19.5-5.9c6.4-2.1,12.7-4.4,19-6.9
						c4.4-1.7,8.8-3.9,11.7-7.7c3.3-4.3,3.1-9.6,0.6-14.3c-1.4-2.6-3.2-4.9-4.8-7.4c-1.6-2.5-3.2-5.1-4.7-7.6
						c-6.1-10.5-11.1-21.9-12.8-34c-1.5-10.4,1.1-24-9.6-30.3c-8.2-4.8-19.1-2.8-27.8-0.5c-10.1,2.6-19.8,7.7-25.4,16.7
						c-3.1,5-4.8,10.8-5.7,16.6c-0.9,6-1.1,12.1-0.7,18.2c0.4,5.9,1.5,11.8,4.1,17.2c2.4,5.1,6.3,9.3,10.4,13.2
						c3.9,3.8,8.2,7.4,11.1,12c2.7,4.3,4.5,9.5,4,14.7c-0.2,2.4-1,4.7-2.5,6.6C720.3,165.1,722.9,166.6,724,165.1L724,165.1z"/>
				</g>
			</g>
			<g>
				<g>
					<path class="st1" d="M697.3,94.5c15.5,1.5,31.3-0.6,45.9-6c4.2-1.5,8.2-3.3,12.2-5.4c1.7-0.9,0.2-3.5-1.5-2.6
						c-13.5,6.9-28.5,10.9-43.7,11.3c-4.3,0.1-8.6,0-12.9-0.4C695.4,91.4,695.4,94.4,697.3,94.5L697.3,94.5z"/>
				</g>
			</g>
		</g>
		<g>
			<g>
				<path class="st0" d="M754.7,59.6c0-6.9,5.7-12,11.1-15.2c16.6-9.7,36.1-12.9,54.5-8.9c9.8,2.1,20.5,7.9,22.8,18.9
					c1.1,5.4-0.1,11-1,16.4c-2.8,16.8-2.8,34.3,0,51.1c1.1,6.5,1.9,14.8-3.1,18.1c-1.8,1.2-3.9,1.3-6,1.5c-13,0.9-26,1.9-39,2.8
					c-2.1,0.2-4.3,0.3-6.4-0.5c-2.5-0.9-4.4-3.1-6.1-5.3c-17.6-22.1-27.3-52-26.6-81.7"/>
				<g>
					<path class="st1" d="M756.2,59.6c0-4.8,3.2-8.7,6.9-11.5c4.2-3.2,9.3-5.6,14.2-7.5c10.3-4,21.4-5.8,32.5-5c9,0.6,19.1,2.7,26,9
						c3.4,3.1,5.7,7.2,6.2,11.8c0.7,6.2-1.1,12.4-1.9,18.5c-1.7,12.2-2,24.6-0.8,36.8c0.5,5.5,1.8,10.9,2.2,16.4
						c0.3,3.7,0.3,8.9-3.3,11.1c-2.4,1.5-5.8,1.2-8.5,1.4c-3.1,0.2-6.2,0.5-9.4,0.7c-6.4,0.5-12.8,0.9-19.2,1.4
						c-3,0.2-6,0.6-9.1,0.6c-3,0.1-5.2-0.9-7.2-3.1c-3.6-3.8-6.6-8.4-9.4-12.8c-11.5-18.6-17.9-40.3-18.8-62.1
						c-0.1-2.7-0.1-5.4-0.1-8.1c0-1.9-3-1.9-3,0c-0.5,23.2,5.1,46.6,16.4,66.9c2.7,4.9,5.8,9.6,9.2,14.1c1.7,2.2,3.4,4.5,5.7,6.2
						c2.4,1.7,5.2,2.1,8.1,1.9c13.4-0.8,26.8-1.9,40.2-2.9c2.7-0.2,5.4-0.6,7.5-2.5c1.6-1.4,2.6-3.4,3.1-5.4
						c1.2-4.7,0.3-9.7-0.5-14.4c-2.1-13.1-2.5-26.4-1.3-39.6c0.3-3.2,0.7-6.4,1.3-9.6c0.5-3.3,1.2-6.5,1.5-9.8
						c0.5-5.4-0.5-10.9-3.6-15.5c-5.5-8-15.2-11.6-24.4-13.1c-11.6-1.9-23.5-1.1-34.7,2.3c-5.7,1.7-11.2,4.1-16.3,7
						c-4.2,2.4-8.5,5.6-10.8,10c-1.2,2.2-1.8,4.5-1.8,7C753.2,61.5,756.2,61.5,756.2,59.6L756.2,59.6z"/>
				</g>
			</g>
			<g>
				<g>
					<path class="st1" d="M757.8,82.2c20,0.9,40.6,1.6,60.1-3.8c5.5-1.5,10.9-3.6,16.1-6.1c1.7-0.9,0.2-3.4-1.5-2.6
						c-17.9,8.9-38.2,10.3-57.9,10c-5.6-0.1-11.2-0.3-16.8-0.6C755.8,79.1,755.8,82.1,757.8,82.2L757.8,82.2z"/>
				</g>
			</g>
		</g>
		<g>
			<g>
				<path class="st0" d="M833,57.9c6.1-9.3,16.4-13.9,26.4-16.3c11.3-2.7,23.3-3.3,34.3,0.8s20.8,13.5,24.4,25.9
					c3.4,12,0.9,25-0.1,37.6c-0.9,11.6-0.3,23.4,1.7,34.9c0.9,5.4,2,11.7-1.1,15.9c-3.7,5-10.5,3.9-16.1,2.4
					c-14.2-3.9-28.4-7.8-42.6-11.8c-6.5-1.8-13.4-3.8-18.5-8.8c-5.5-5.4-8.2-13.6-9.7-21.7c-3.6-20-0.6-40.6,2.3-60.7"/>
				<g>
					<path class="st1" d="M834.3,58.6c5.7-8.6,15.3-13,25-15.4c11.4-2.8,23.8-3.5,34.9,1c9,3.6,16.6,10.7,20.7,19.5
						c5.1,11,3.5,23.6,2.4,35.2c-1.3,12.7-1.4,25.3,0.4,38c0.7,5.2,2.6,11.1,1.1,16.3c-0.6,2.2-2,4-4.1,5c-2,0.9-4.2,0.9-6.4,0.6
						c-2.5-0.3-4.9-1-7.2-1.6c-3.1-0.9-6.2-1.7-9.3-2.6c-6.3-1.7-12.6-3.5-18.9-5.2c-5.9-1.6-12-3.1-17.8-5c-5-1.6-9.9-3.9-13.4-7.9
						c-3.6-4-5.6-9.2-7-14.3c-1.5-5.8-2.3-11.7-2.6-17.7c-0.7-12.9,0.6-25.7,2.4-38.5c0.4-3.1,0.9-6.2,1.3-9.4
						c0.3-1.9-2.6-2.7-2.9-0.8c-2,13.4-3.9,26.9-4,40.4c0,6.7,0.4,13.4,1.5,20.1c0.9,5.6,2.4,11.2,5.1,16.3
						c2.6,4.9,6.5,8.9,11.4,11.6c5.2,2.8,11,4.1,16.7,5.7c13.2,3.7,26.4,7.5,39.7,11c4.4,1.1,9.6,1.9,13.7-0.5
						c4.8-2.8,5.7-8.5,5.3-13.6c-0.3-3-0.9-5.9-1.3-8.8c-0.5-3.4-0.9-6.8-1.2-10.2c-0.5-6.8-0.6-13.6-0.1-20.4
						c0.8-12.9,3.8-26.2,0.3-39c-2.8-10.1-9.6-18.7-18.5-24c-10.4-6.3-22.8-7.4-34.6-5.7c-10.6,1.5-21.8,4.9-29.8,12.4
						c-1.9,1.8-3.6,3.9-5.1,6.1C830.6,58.7,833.2,60.2,834.3,58.6L834.3,58.6z"/>
				</g>
			</g>
			<g>
				<g>
					<path class="st1" d="M834,73.2c5-0.4,9.6,1.8,14.2,3.4c4.7,1.7,9.6,3.2,14.4,4.4c9.7,2.5,19.6,4.1,29.5,4.7
						c5.6,0.4,11.2,0.4,16.8,0.2c1.9-0.1,1.9-3.1,0-3c-20.1,0.8-40.2-2.3-59.1-8.9c-5.1-1.8-10.3-4.3-15.8-3.9
						C832.1,70.4,832.1,73.4,834,73.2L834,73.2z"/>
				</g>
			</g>
		</g>
		<g>
			<g>
				<path class="st0" d="M913.2,77.9c10.1-7.1,20.6-13.4,31.5-18.8c7-3.4,14.6-6.6,22.1-4.9c8.7,1.9,15.3,10,20.2,18.4
					c13.7,23.8,18.2,54.2,11.9,81.7c-1,4.3-2.2,8.6-4.5,12.2c-6.4,10-18.6,11.9-29.5,12.3c-11,0.4-22.7-0.2-32-6.9
					c-12.6-9.2-17.6-27.3-20-44.1c-1.8-12.2-2.7-24.6-2.8-37c0-5.6,0.5-12,4.6-15.1"/>
				<g>
					<path class="st1" d="M913.9,79.1c10.4-7.4,21.4-14,32.9-19.5c5.5-2.6,11.7-5.1,17.9-4.3c5.3,0.7,9.8,3.8,13.4,7.6
						c3.8,4,6.7,8.7,9.3,13.6c2.7,5,4.9,10.2,6.7,15.6c3.7,10.9,5.7,22.4,6,33.9c0.1,5.8-0.1,11.6-0.8,17.3
						c-0.7,5.8-1.8,11.7-3.7,17.2c-1.8,4.9-4.9,9.1-9.5,11.8c-4.1,2.4-8.8,3.6-13.5,4.2c-5.1,0.7-10.4,0.8-15.5,0.6
						c-5.6-0.2-11.3-0.9-16.5-3c-9.8-3.8-16.2-12.5-20.1-22.1c-4.2-10.4-5.9-21.7-7.2-32.7c-0.8-6.6-1.3-13.3-1.5-20
						c-0.1-3.2-0.2-6.3-0.2-9.5c0-2.5,0.1-5.1,0.7-7.5c0.5-2.1,1.4-4.2,3.1-5.5c1.5-1.2,0-3.8-1.5-2.6c-4.3,3.3-5.2,8.8-5.3,13.8
						c-0.2,6.7,0.2,13.5,0.7,20.1c0.9,12.5,2.3,25.2,5.8,37.3c2.9,10.1,7.7,20.3,16.2,26.8c9.7,7.4,22.2,8.2,34,7.8
						c9.9-0.4,20.9-2,27.9-9.7c4.1-4.5,6-10.4,7.3-16.3c1.3-5.9,2.1-11.9,2.5-18c0.7-12.2-0.4-24.6-3.4-36.5
						c-2.9-11.5-7.5-23-14.3-32.8c-3.1-4.5-6.9-8.9-11.7-11.7c-5.3-3.2-11.4-3.8-17.4-2.4c-6.4,1.5-12.3,4.7-18.1,7.7
						c-6,3.2-11.9,6.6-17.6,10.3c-2.7,1.8-5.5,3.6-8.1,5.5C910.9,77.7,912.4,80.3,913.9,79.1L913.9,79.1z"/>
				</g>
			</g>
			<g>
				<g>
					<path class="st1" d="M910.4,87c9.6,2.9,19.6,3.7,29.6,4c4.7,0.1,9.5,0.2,14.2,0.2c4.3,0,8.6-0.3,12.9-1.1
						c4.7-0.9,9.3-2.7,13.2-5.7c1.5-1.2,0-3.8-1.5-2.6c-6.7,5.1-15.1,6.2-23.3,6.3c-9.3,0.2-18.7,0-27.9-0.9
						c-5.5-0.6-11-1.6-16.3-3.1C909.4,83.6,908.6,86.5,910.4,87L910.4,87z"/>
				</g>
			</g>
		</g>
		<g>
			<g>
				<path class="st0" d="M978.4,98.5c14.1-25.6,41.4-38.8,67.9-41.3c8.2-0.8,16.9-0.6,24.1,3.9c10.8,6.7,15.8,21.9,15.3,35.8
					s-5.5,27.2-10.4,40c-4.1,10.6-8.7,22-17.7,27.5c-5.7,3.5-12.3,4.2-18.8,4.7c-7.2,0.6-14.3,1.3-21.5,1.9
					c-8.3,0.7-17.1,1.4-24.3-3.3c-9.4-6.1-13.3-19.4-13.7-31.8s1.8-24.7,0.7-36.9"/>
				<g>
					<path class="st1" d="M979.7,99.2c10.4-18.7,28.6-31.4,49-37.2c4.9-1.4,10-2.4,15.1-3.1c5.8-0.7,11.8-1.1,17.6,0.2
						c5.4,1.2,10.1,3.9,13.7,8c3.3,3.8,5.6,8.6,7,13.4c3.5,11.7,2.1,24-1.2,35.5c-1.7,6.2-4,12.3-6.3,18.3
						c-2.1,5.4-4.1,10.8-6.8,15.9c-2.5,4.7-5.7,9.2-10.1,12.3c-5.1,3.5-11.2,4.4-17.2,5c-6.7,0.6-13.5,1.2-20.3,1.8
						c-6.1,0.5-12.3,1.4-18.4,0.3c-5.4-1-10.1-3.7-13.5-8.1c-3.1-4.1-5-9-6.1-14c-2.9-12.5-0.8-25.5-0.5-38.1
						c0.1-3.4,0-6.8-0.3-10.2c-0.2-1.9-3.2-1.9-3,0c1.2,14.1-1.9,28.1-0.3,42.2c1.2,10.5,4.9,22.2,14.4,28c5.4,3.3,11.8,4,18,3.7
						c7-0.3,13.9-1.1,20.9-1.7c6.5-0.6,13.3-0.8,19.7-2.5c5.7-1.6,10.5-4.8,14.3-9.4c3.7-4.5,6.3-9.8,8.5-15.1
						c2.5-6,4.8-12.1,7-18.2c4.3-12.3,7.6-25.5,5.8-38.6c-1.4-10.5-6-21.6-15.3-27.5c-10.1-6.5-23.5-5.1-34.7-2.9
						c-21.7,4.1-42.2,15.4-55.1,33.5c-1.6,2.3-3.1,4.7-4.5,7.2C976.2,99.4,978.7,100.9,979.7,99.2L979.7,99.2z"/>
				</g>
			</g>
			<g>
				<g>
					<path class="st1" d="M980.7,103c25.4,1,52.2,1,74.9-12.3c5.8-3.4,11.1-7.5,15.7-12.3c1.3-1.4-0.8-3.5-2.1-2.1
						c-8,8.4-18,14.4-28.9,18.2c-11.8,4.1-24.4,5.6-36.8,5.9c-7.6,0.2-15.1-0.1-22.7-0.4C978.8,100,978.8,103,980.7,103L980.7,103z"
						/>
				</g>
			</g>
		</g>
		<g>
			<g>
				<path class="st0" d="M1068.4,57.4c13.8-22.2,40.9-32.4,63.7-24.1c9,3.3,17.3,9.4,22.6,18.2c5.3,8.8,7.1,20.6,3.6,30.5
					c-3.3,9.2-10.6,15.7-15.8,23.7c-8.3,12.9-11.8,30.5-23.6,39.2c-11.7,8.6-27.2,5-40.2-0.7c-3.9-1.7-7.9-3.7-10.7-7.2
					c-4-4.9-5.1-11.9-5.5-18.6c-1.1-21.3,4.2-42.2,9.4-62.7"/>
				<g>
					<path class="st1" d="M1069.7,58.2c10.4-16.7,29.6-27.5,49.4-26.1c10.1,0.7,20.1,4.9,27.5,11.9c8.3,7.8,12.9,19.2,11.8,30.6
						c-0.6,5.7-2.9,10.9-6.2,15.6c-3.2,4.6-7,8.8-10.2,13.5c-5.9,8.6-9,18.6-14,27.7c-2.3,4.3-5.1,8.3-8.9,11.5
						c-4.1,3.5-9.3,5.3-14.7,5.7c-5.5,0.4-11.1-0.6-16.4-2.3c-5.3-1.6-10.9-3.7-15.5-6.8c-4.9-3.4-7-8.7-8-14.3
						c-1.1-6.2-1-12.8-0.6-19.1c0.7-13.5,3.6-26.8,6.8-40c0.8-3.3,1.6-6.5,2.5-9.8c0.5-1.9-2.4-2.7-2.9-0.8
						c-3.5,13.8-7,27.7-8.6,41.9c-0.8,7-1.2,14.1-0.8,21.2c0.3,5.8,1.1,12,4.1,17.1c3.2,5.4,8.7,8.2,14.3,10.6
						c5.4,2.3,11.1,4.1,16.9,4.9c5.6,0.8,11.4,0.6,16.8-1.4c5.1-1.9,9.4-5.2,12.7-9.5c6.8-8.5,10-19.2,15.1-28.7
						c2.7-5.1,6.1-9.6,9.7-14.1c3.7-4.6,7.2-9.4,9.2-15c4.1-11.3,1.4-24.7-5.5-34.4c-6.5-9.1-16.5-15.3-27.3-17.9
						c-20.3-4.7-42,4-55,19.8c-1.7,2.1-3.3,4.3-4.7,6.6C1066.1,58.3,1068.7,59.8,1069.7,58.2L1069.7,58.2z"/>
				</g>
			</g>
			<g>
				<g>
					<path class="st1" d="M1071.3,61.8c4.4-0.6,8.6,2.1,12.8,2.9c4.6,0.9,9.4,0.8,14.2,0.8c9.7,0.2,19.5,0.2,29.2-0.5
						c5.5-0.4,10.9-1.1,16.3-2.1c1.9-0.4,1.1-3.2-0.8-2.9c-9.6,1.8-19.4,2.4-29.1,2.6c-4.9,0.1-9.7,0-14.6-0.1
						c-4.7-0.1-9.7,0.1-14.3-0.8c-4.9-0.9-9.3-3.7-14.4-2.9C1068.6,59.2,1069.4,62.1,1071.3,61.8L1071.3,61.8z"/>
				</g>
			</g>
		</g>
		<g>
			<g>
				<path class="st0" d="M1145,62.6c3.1-10.9,16.3-14.2,25.4-9.2s14.7,15.3,19.7,25.3c7,14.1,13.8,31,8.2,45.9
					c-2.9,7.9-8.9,13.8-14.6,19.4c-6.1,5.9-12.1,11.8-18.2,17.7c-1.7,1.7-3.5,3.4-5.7,4.1c-3.7,1.2-7.5-0.6-11-2.5
					c-11.6-6.2-24.1-14.7-27.2-28.8c-2.8-12.9,3.2-25.9,9.6-37s13.8-22.6,14-35.8"/>
				<g>
					<path class="st1" d="M1146.5,63c2-7,9-10.7,16-10.3c8.5,0.5,14.8,7.4,19.2,14.1c2.6,3.9,4.8,8.1,6.9,12.3
						c2.3,4.6,4.5,9.3,6.3,14.2c3.5,9.4,5.6,19.9,2.4,29.8c-3.1,9.6-11.1,16.5-18.1,23.3c-4.2,4-8.3,8.1-12.5,12.1
						c-1.9,1.8-3.7,3.9-5.9,5.3c-2.4,1.5-5,1.2-7.5,0.2c-4.1-1.6-8-4.1-11.7-6.5c-3.5-2.3-6.9-4.8-9.8-7.8c-6.5-6.6-10-15-9.3-24.3
						c1.5-21,19.3-36,23.4-56.2c0.5-2.5,0.8-4.9,0.8-7.4c0-1.9-3-1.9-3,0c-0.3,10.9-5.5,20.7-10.8,29.9c-5.5,9.5-11.4,19.2-13,30.2
						c-0.8,5.2-0.6,10.6,1,15.6c1.4,4.3,3.7,8.3,6.6,11.7c5.7,6.8,13.6,11.8,21.4,15.9c2.5,1.3,5.1,2.5,7.9,2.6
						c2.7,0.1,5-0.9,7.1-2.5c2.2-1.8,4.2-3.9,6.3-5.9c2.3-2.2,4.5-4.4,6.8-6.6c4.1-3.9,8.2-7.8,12.1-11.9c3.6-3.7,6.9-7.7,9.2-12.4
						c4.8-9.7,4.1-20.8,1.2-30.9c-1.6-5.4-3.8-10.6-6.2-15.7c-2.2-4.6-4.5-9.2-7.1-13.5c-4.5-7.6-10.9-15.9-19.9-18
						c-7.3-1.8-15.7,0.5-20.2,6.7c-1.2,1.6-2,3.4-2.5,5.2C1143.1,64.1,1145.9,64.9,1146.5,63L1146.5,63z"/>
				</g>
			</g>
			<g>
				<g>
					<path class="st1" d="M1144.8,62.5c0.6,4.8,3.2,8.5,6.4,12c3.8,4.2,7.8,8.3,11.6,12.5c4,4.3,8,8.5,11.9,12.8
						c3.6,3.8,7,7.9,11,11.2c3.9,3.2,8.7,5.7,13.9,4.5c1.9-0.4,1.1-3.3-0.8-2.9c-4.1,1-8-1.3-11.1-3.9c-3.8-3.1-7-6.9-10.3-10.5
						c-7.3-7.8-14.6-15.6-21.8-23.4c-3.3-3.5-7.2-7.3-7.7-12.3C1147.6,60.6,1144.6,60.6,1144.8,62.5L1144.8,62.5z"/>
				</g>
			</g>
		</g>
		<g>
			<g>
				<path class="st2" d="M603.4,386.3c-2.9,3.7-3.5,9.1-2.6,13.9c0.9,4.8,3.2,9.2,5.4,13.4c2.3,4.4,4.6,8.7,6.8,13.1
					c1.8,3.5,4,7.3,7.5,8.4c2.7,0.8,5.6-0.3,7.7-2.3s3.4-5,4.2-8c2.2-8.7,0-18.7-5.7-25.1c-3.9-4.4-9-7-14.2-9"/>
				<g>
					<path class="st1" d="M602.1,385.5c-5.1,6.7-3.2,15.9,0,23c1.9,4.2,4.2,8.3,6.3,12.4c2,3.8,3.7,7.9,6.3,11.3
						c2.2,3,5.4,5.1,9.2,4.4c4-0.7,6.9-4,8.5-7.6c3.2-7.1,2.9-15.6,0-22.8c-1.7-4.1-4.2-7.7-7.6-10.5c-3.6-2.9-7.7-4.9-12-6.6
						c-1.8-0.7-2.6,2.2-0.8,2.9c6.6,2.5,12.8,6.2,16.4,12.6c3.2,5.8,4.2,13,2.6,19.4c-0.8,3.4-2.4,7-5.6,8.8
						c-3.2,1.8-6.1,0.4-8.2-2.3c-2.3-2.9-3.8-6.5-5.5-9.8c-1.9-3.7-3.9-7.3-5.8-11.1c-3.4-6.8-6.6-16-1.3-22.8
						c0.5-0.6,0.1-1.7-0.5-2.1C603.4,384.5,602.6,384.9,602.1,385.5L602.1,385.5z"/>
				</g>
			</g>
			<g>
				<path class="st2" d="M594.9,328.1c-5,5.1-6.3,13.5-6,21.1c0.7,15,7.1,29.6,17.2,39.3c1.4,1.3,3,2.6,4.8,2.7
					c2.5,0.1,4.7-2.1,5.6-4.8c0.9-2.6,0.7-5.6,0.4-8.4c-1.1-8.3-3.8-16.3-7.8-23.3"/>
				<g>
					<path class="st1" d="M593.9,327.1c-5.2,5.4-6.6,13.3-6.5,20.6c0.1,7.8,1.8,15.7,4.8,22.9c2.9,7,7.1,13.5,12.6,18.8
						c2.7,2.6,6.2,4.8,9.8,2.4c3.4-2.3,4.3-6.6,4.2-10.4c-0.3-9.4-3.6-19.1-8.3-27.2c-1-1.7-3.5-0.2-2.6,1.5
						c3.7,6.6,6.2,13.8,7.4,21.2c0.6,3.5,1.2,7.8-0.9,10.9c-0.8,1.2-2.1,2.3-3.6,2.1c-1.7-0.2-3-1.7-4.2-2.8
						c-9.8-9.7-15.4-23.4-16.2-37.1c-0.4-7.1,0.4-15.3,5.5-20.7C597.3,327.8,595.2,325.7,593.9,327.1L593.9,327.1z"/>
				</g>
			</g>
			<g>
				<path class="st2" d="M605,267.4c-7.5,4.4-10.1,14.9-11.5,24.3c-1.1,7.9-1.9,15.9-1.4,23.9c0.8,14.1,5.3,28,12.9,39.3
					c0.5,0.7,0.9,1.4,1.6,1.7c1.8,1,3.9-0.8,4.9-2.8c2.4-4.5,2.3-10.1,2.3-15.3c-0.2-13.2-0.4-26.4-0.6-39.6"/>
				<g>
					<path class="st1" d="M604.2,266.1c-7.8,4.7-10.4,14.4-11.8,22.8c-1.9,11.4-2.8,23-1.1,34.5c1.6,10.5,5.2,20.7,10.7,29.7
						c1.2,1.9,2.5,4.6,4.9,5.1c2.3,0.5,4.3-1.3,5.5-3.1c2.8-4.3,2.9-10.1,2.9-15c-0.1-13.8-0.4-27.5-0.7-41.3c0-1.9-3-1.9-3,0
						c0.2,11.2,0.4,22.4,0.5,33.6c0.1,5.1,0.6,10.4-0.3,15.4c-0.4,2.2-1,4.7-2.5,6.4c-0.5,0.6-1.4,1.4-2.2,0.9
						c-0.9-0.5-1.5-2-2.1-2.8c-5.2-8.3-8.7-17.6-10.4-27.2c-1.9-10.6-1.4-21.5,0.1-32.1c1.2-8.4,2.9-19.5,10.9-24.3
						C607.4,267.7,605.9,265.1,604.2,266.1L604.2,266.1z"/>
				</g>
			</g>
			<g>
				<path class="st2" d="M627.1,227.6c-10.5,2.8-18.1,13.9-20.7,25.8c-2.7,11.9-1.3,24.4,0.7,36.4c0.4,2.8,1.1,5.8,3.1,7.5
					c2.8,2.2,6.9,0.5,8.9-2.6s2.5-7.1,2.8-11c0.9-8.8,1.8-17.6,2.6-26.4"/>
				<g>
					<path class="st1" d="M626.7,226.2c-7.4,2-13.1,7.7-16.9,14.2c-4.5,7.7-6.2,16.6-6.4,25.5c-0.1,5.1,0.3,10.2,0.9,15.2
						c0.3,2.5,0.7,5,1,7.5c0.3,2.1,0.6,4.2,1.3,6.2c1.4,3.5,4.4,5.9,8.3,4.8c3.9-1.1,6.2-4.7,7.3-8.5c0.7-2.4,0.9-4.9,1.2-7.3
						c0.3-2.9,0.6-5.9,0.9-8.8c0.6-5.9,1.2-11.8,1.8-17.6c0.2-1.9-2.8-1.9-3,0c-0.9,9.2-1.8,18.5-2.8,27.7c-0.4,3.6-0.9,8-3.9,10.5
						c-1,0.9-2.5,1.5-3.9,1.3c-1.6-0.3-2.6-1.8-3.1-3.2c-0.6-1.7-0.9-3.6-1.1-5.3c-0.4-2.3-0.7-4.6-1-6.9c-0.5-4.5-0.9-9-0.9-13.6
						c0-8.1,1.2-16.4,4.9-23.7c3.4-6.7,8.8-12.9,16.2-14.9C629.4,228.6,628.6,225.7,626.7,226.2L626.7,226.2z"/>
				</g>
			</g>
			<g>
				<path class="st2" d="M688.1,175.4c-7.6-1.7-15.6,0.1-22.8,3.4c-13.4,6.1-24.9,17.5-32,31.7c-7.2,14.2-9.9,31.2-7.7,47.4
					c0.1,0.9,0.3,1.8,0.7,2.5c1.1,1.7,3.4,1.6,5.1,0.7c2.2-1.1,4-3.1,5.7-5.1c11-13,20.4-27.7,27.9-43.6"/>
				<g>
					<path class="st1" d="M688.5,174c-12.5-2.7-25.5,2.9-35.4,10.3c-9.4,7-17,16.4-22,27c-5.6,11.9-8.3,25.1-7.9,38.3
						c0.1,3.2,0.3,6.4,0.9,9.5c0.5,2.9,2.8,4.5,5.7,4.1c2.8-0.4,5-2.5,6.8-4.5c2.1-2.3,4.1-4.8,6.1-7.3c9.2-11.8,17-24.6,23.4-38.2
						c0.8-1.7-1.8-3.3-2.6-1.5c-5.2,11.2-11.5,21.9-18.7,31.9c-1.8,2.5-3.7,5-5.6,7.4c-1.9,2.3-3.7,4.7-5.8,6.8
						c-1.1,1.1-4.1,3.7-5.8,2.2c-0.8-0.8-0.8-2.6-0.9-3.7c-0.2-1.6-0.3-3.2-0.4-4.8c-1.2-23.3,7.5-47.1,25.6-62.3
						c9.5-8,23-14.9,35.7-12.2C689.6,177.3,690.4,174.4,688.5,174L688.5,174z"/>
				</g>
			</g>
			<g>
				<path class="st2" d="M729.8,159c-15.7-3.8-33.1,2.9-43.5,16.8c-2.4,3.2-4.4,6.6-6.7,9.8c-3.3,4.6-7.1,8.6-10.1,13.4
					c-3.1,4.7-5.4,10.5-5,16.3c0,0.3,0,0.6,0.2,0.8c0.4,0.9,1.6,0.6,2.4,0.2c24.6-11.7,40.1-39.3,60.8-58.4"/>
				<g>
					<path class="st1" d="M730.2,157.6c-11.3-2.7-23.4-0.2-33.1,6.1c-5.2,3.4-9.6,7.8-13.2,12.9c-2,2.9-3.8,5.9-5.9,8.7
						c-2.1,2.9-4.5,5.7-6.7,8.6c-4.2,5.4-7.7,11.5-8.3,18.5c-0.1,1.5-0.4,3.6,0.5,4.9c0.8,1.2,2.3,1.2,3.6,0.8
						c2.7-1,5.3-2.7,7.7-4.2c10-6.4,18.3-15,26.1-23.9c9.1-10.4,17.7-21.4,27.9-30.8c1.4-1.3-0.7-3.4-2.1-2.1
						c-16.7,15.5-28.9,35.3-46.8,49.5c-2.2,1.7-4.4,3.3-6.8,4.8c-1.1,0.7-2.2,1.3-3.3,2c-1.2,0.7-2.7,1.2-3.8,1.9
						c-0.4,0.2-0.3-0.2-0.1,0.2c-0.1-0.3,0-1,0-1.3c0-0.7,0-1.5,0.1-2.2c0.2-1.7,0.6-3.5,1.2-5.1c1.1-3,2.7-5.9,4.5-8.5
						c1.9-2.7,4.1-5.3,6.2-7.9c2.1-2.6,4-5.3,5.8-8.1c3.3-5.1,6.8-9.8,11.6-13.6c9.5-7.6,22.2-11,34.1-8.2
						C731.3,160.9,732.1,158,730.2,157.6L730.2,157.6z"/>
				</g>
			</g>
		</g>
		<g>
			<g>
				<path class="st2" d="M1286.2,388.1c2.9,3.7,3.5,9.1,2.6,13.9c-0.9,4.8-3.2,9.2-5.4,13.4c-2.3,4.4-4.6,8.7-6.8,13.1
					c-1.8,3.5-4,7.3-7.5,8.4c-2.7,0.8-5.6-0.3-7.7-2.3c-2.1-2.1-3.4-5-4.2-8c-2.2-8.7,0-18.7,5.7-25.1c3.9-4.4,9-7,14.2-9"/>
				<g>
					<path class="st1" d="M1284.9,388.9c4.5,5.9,2.8,14,0,20.2c-1.7,3.7-3.7,7.3-5.6,10.9c-1.8,3.5-3.5,7-5.5,10.4
						c-1.5,2.6-3.8,5.7-7.2,5.3c-3.6-0.4-6-3.7-7.2-6.8c-2.5-6.3-2.1-13.8,0.6-20c3.3-7.6,10-12,17.4-14.8c1.8-0.7,1-3.6-0.8-2.9
						c-7.5,2.8-14.6,7.1-18.4,14.4c-3.6,6.8-4.5,15.1-2.3,22.4c1.1,3.7,3.2,7.6,6.8,9.5c3.5,1.9,7.4,1.3,10.3-1.3
						c3-2.7,4.6-6.7,6.4-10.2c2.2-4.2,4.4-8.4,6.6-12.6c3.9-7.8,7.4-18.3,1.4-26.1c-0.5-0.6-1.3-1-2.1-0.5
						C1284.8,387.2,1284.4,388.2,1284.9,388.9L1284.9,388.9z"/>
				</g>
			</g>
			<g>
				<path class="st2" d="M1294.6,330c5,5.1,6.3,13.5,6,21.1c-0.7,15-7.1,29.6-17.2,39.3c-1.4,1.3-3,2.6-4.8,2.7
					c-2.5,0.1-4.7-2.1-5.6-4.8c-0.9-2.6-0.7-5.6-0.4-8.4c1.1-8.3,3.8-16.3,7.8-23.3"/>
				<g>
					<path class="st1" d="M1293.6,331.1c4.5,4.8,5.6,11.8,5.6,18.1c0,7-1.4,13.9-3.9,20.4c-2.4,6.3-5.9,12.3-10.5,17.3
						c-1.8,2-5,6.2-8,4.3c-3.1-2-3.2-6.4-2.9-9.6c0.8-8.4,3.6-16.8,7.8-24.2c1-1.7-1.6-3.2-2.6-1.5c-4.2,7.4-6.9,15.6-8,24.1
						c-0.5,3.9-0.6,8.3,1.9,11.7c2.4,3.1,6.2,3.9,9.4,1.5c3.1-2.2,5.6-5.3,7.8-8.3c2.3-3,4.2-6.3,5.9-9.7c3.4-7.2,5.4-14.9,5.9-22.8
						c0.5-8.1-0.6-17.3-6.4-23.4C1294.4,327.5,1292.3,329.7,1293.6,331.1L1293.6,331.1z"/>
				</g>
			</g>
			<g>
				<path class="st2" d="M1284.6,269.2c7.5,4.4,10.1,14.9,11.5,24.3c1.1,7.9,1.9,15.9,1.4,23.9c-0.8,14.1-5.3,28-12.9,39.3
					c-0.5,0.7-0.9,1.4-1.6,1.7c-1.8,1-3.9-0.8-4.9-2.8c-2.4-4.5-2.3-10.1-2.3-15.3c0.2-13.2,0.4-26.4,0.6-39.6"/>
				<g>
					<path class="st1" d="M1283.8,270.5c7,4.2,9.1,13.4,10.4,20.8c1.8,10.4,2.6,21.2,1.3,31.8c-1.2,9.7-4.3,19.3-9.1,27.8
						c-0.6,1-1.2,2.1-1.8,3.1c-0.6,0.9-1.2,2.2-2,2.9c-1.7,1.4-3.4-2.5-3.8-3.6c-1.7-4.6-1.4-9.7-1.4-14.5
						c0.2-12.7,0.4-25.4,0.6-38.1c0-1.9-3-1.9-3,0c-0.2,12.3-0.4,24.6-0.6,36.8c-0.1,5.4-0.5,11,1.3,16.2c0.7,2.2,1.8,4.4,3.8,5.7
						c2.2,1.4,4.5,0.7,5.9-1.3c3.1-4.1,5.5-9,7.4-13.7c2.1-4.9,3.6-10.1,4.7-15.3c2.3-11.5,1.8-23,0.2-34.5
						c-1.3-9.5-3.4-21.2-12.3-26.6C1283.7,266.9,1282.2,269.5,1283.8,270.5L1283.8,270.5z"/>
				</g>
			</g>
			<g>
				<path class="st2" d="M1262.4,229.5c10.5,2.8,18.1,13.9,20.7,25.8s1.3,24.4-0.7,36.4c-0.4,2.8-1.1,5.8-3.1,7.5
					c-2.8,2.2-6.9,0.5-8.9-2.6s-2.5-7.1-2.8-11c-0.9-8.8-1.8-17.6-2.6-26.4"/>
				<g>
					<path class="st1" d="M1262,230.9c6.5,1.8,11.5,6.8,14.9,12.5c4.1,6.9,5.8,14.9,6.2,22.9c0.4,8.8-0.6,18-2.3,26.7
						c-0.6,2.9-2,6.8-5.7,5.5c-3.5-1.2-4.8-5.2-5.4-8.5c-0.9-4.9-1.1-9.9-1.6-14.9c-0.5-5.3-1.1-10.6-1.6-15.9c-0.2-1.9-3.2-1.9-3,0
						c0.5,5.2,1,10.4,1.6,15.7c0.5,5,0.8,10,1.6,14.9c0.6,4,2,8.2,5.5,10.6c3.1,2,7.1,1.8,9.4-1.2c1.2-1.6,1.8-3.5,2.1-5.4
						c0.5-2.3,0.8-4.7,1.1-7.1c0.7-5,1.2-10.1,1.4-15.2c0.2-9.1-1-18.4-5-26.6c-3.7-7.6-9.9-14.5-18.3-16.8
						C1261,227.5,1260.2,230.4,1262,230.9L1262,230.9z"/>
				</g>
			</g>
			<g>
				<path class="st2" d="M1201.4,177.3c7.6-1.7,15.6,0.1,22.8,3.4c13.4,6.1,24.9,17.5,32,31.7c7.2,14.2,9.9,31.2,7.7,47.4
					c-0.1,0.9-0.3,1.8-0.7,2.5c-1.1,1.7-3.4,1.6-5.1,0.7c-2.2-1.1-4-3.1-5.7-5.1c-11-13-20.4-27.7-27.9-43.6"/>
				<g>
					<path class="st1" d="M1201.8,178.7c11.6-2.5,23.6,3,32.7,9.8c8.8,6.5,15.8,15.3,20.6,25c5.4,10.9,8.1,23.1,8.1,35.3
						c0,3-0.2,6-0.5,9.1c-0.1,1.1-0.1,2.9-0.8,3.8c-0.7,0.7-1.9,0.5-2.7,0.2c-2.6-1-4.5-3.6-6.2-5.7c-2-2.4-3.9-4.8-5.8-7.2
						c-8.3-11-15.4-22.9-21.3-35.4c-0.8-1.7-3.4-0.2-2.6,1.5c5.7,12.1,12.5,23.7,20.5,34.4c1.9,2.6,3.9,5.1,5.9,7.6
						c2,2.4,4,5,6.7,6.8c2,1.3,4.8,2.1,7,0.6c2.4-1.7,2.3-5.4,2.5-8c2.3-25-6.9-51.2-26.2-67.5c-10.4-8.8-24.7-15.9-38.7-12.9
						C1199.1,176.2,1199.9,179.1,1201.8,178.7L1201.8,178.7z"/>
				</g>
			</g>
			<g>
				<path class="st2" d="M1159.8,160.9c15.7-3.8,33.1,2.9,43.5,16.8c2.4,3.2,4.4,6.6,6.7,9.8c3.3,4.6,7.1,8.6,10.1,13.4
					s5.4,10.5,5,16.3c0,0.3,0,0.6-0.2,0.8c-0.4,0.9-1.6,0.6-2.4,0.2c-24.6-11.7-40.1-39.3-60.8-58.4"/>
				<g>
					<path class="st1" d="M1160.2,162.3c10.6-2.5,21.7-0.1,30.8,5.8c4.8,3.1,8.8,7.1,12.1,11.8c1.9,2.7,3.7,5.6,5.6,8.4
						c1.9,2.7,4,5.2,6.1,7.8c4.1,5.1,8,10.9,8.8,17.6c0.1,0.7,0.1,1.5,0.1,2.2c0,0.3,0.1,1.1,0,1.3c0.2-0.3,0.5,0.2-0.1-0.2
						c-1.1-0.8-2.6-1.3-3.8-1.9c-2.4-1.3-4.6-2.8-6.8-4.3c-9.1-6.5-16.7-14.8-24-23.2c-8.5-9.8-16.6-19.9-26.1-28.8
						c-1.4-1.3-3.5,0.8-2.1,2.1c17.8,16.5,30.7,38.2,50.6,52.5c2.4,1.7,4.9,3.3,7.5,4.7c1.9,1,5.4,3.4,7.2,1
						c0.9-1.3,0.6-3.4,0.5-4.9c-0.1-1.7-0.5-3.4-1-5.1c-1-3.3-2.6-6.4-4.4-9.3c-1.9-2.9-4.1-5.6-6.3-8.3c-2.3-2.9-4.4-5.8-6.5-8.9
						c-3.5-5.4-7.3-10.4-12.3-14.4c-10.3-8.1-23.8-11.8-36.7-8.8C1157.5,159.9,1158.3,162.8,1160.2,162.3L1160.2,162.3z"/>
				</g>
			</g>
		</g>
		<path class="st3" d="M1301.8,750.1c-49.2,73.3-148.3,64.8-282.2,70.9c-219.7,10.1-378.6,17.3-433.5-86.8
			c-29.5-55.9-10.5-137.6,28-301.4c35.7-152.2,61-254,135.7-287.4c30.4-13.6,103.3-31.1,143.1-3.7c2.5,1.7,21,14.7,47.7,23.3
			c24.4,7.9,35.4,5.6,41.1,3.7c12.1-3.9,14.2-10.1,28.8-18.7c14.8-8.6,27.5-10.8,40.3-13.1c7-1.2,72.4-12.6,117.6,25.2
			c26.7,22.3,28.8,46.9,55.1,125c28.5,84.5,28.4,62.9,60.1,154c58.5,168.7,50.7,219.9,44.4,245.4
			C1325.2,698.7,1318.5,725.3,1301.8,750.1z"/>
		<path class="st4" d="M1181.6,698.6c-42.3,55.6-107.7,58.1-221.9,62.6c-70.1,2.8-115.5-4.7-154.1-16.3
			c-42.5-12.8-66.3-20.3-86.3-44.8c-41.6-50.9-31.6-131.8-26.7-171.2c7.9-63.8,25.8-76.4,39.3-157.6c7.2-43.2,8.8-79.5,9-103.8
			c26,20.8,66.2,47.6,119.6,64.6c38,12.2,71.9,15.9,98.2,16.6c22.9-2.8,50.3-8.5,80.3-19.5c49.2-18.1,86.7-43.8,112.5-65
			c13.5,77,27.9,137.7,38.4,178.4c20.9,81.3,36.5,122.4,24.4,179.6C1210.9,637.3,1203.8,669.5,1181.6,698.6z"/>
		<path class="st5" d="M1087.1,575.6c-10.9,68.7-70.6,121.8-135.7,121.3c-65.7-0.5-127.4-55.7-135.7-131.6
			c-9.5-86.4,54.2-164.2,125.9-169.8C1026.2,388.9,1101.6,484.4,1087.1,575.6z"/>
		<path class="st6" d="M1069.9,572.4c-9.5,60-61.5,106.4-118.2,105.9c-57.2-0.5-110.9-48.6-118.2-114.9
			c-8.3-75.5,47.2-143.4,109.6-148.3C1016.9,409.3,1082.5,492.7,1069.9,572.4z"/>
		<polygon class="st7" points="1056.7,548 1004.8,522.2 1004.8,573.8 		"/>
		<polygon class="st7" points="843.6,546.1 888.9,520.3 888.9,571.9 		"/>
		<polygon class="st7" points="898.8,638.3 906.9,598.2 930.3,618 		"/>
		<polygon class="st7" points="996.9,640.1 988.8,600.1 965.5,619.8 		"/>
		<polygon class="st7" points="996.9,452.7 988.8,492.7 965.5,473 		"/>
		<polygon class="st7" points="900.5,454.5 908.6,494.6 931.9,474.9 		"/>
		<path class="st7" d="M976.3,613.8l73.6,5.7l-44.3-74.6l42.6-71.9l-67.9,5.3l-30.6-65l-29.8,63.3l-68.8-1l38.2,72.9l-40.5,67.4
			h66.6l30,64.4L976.3,613.8z M972.3,488.9l30,59l-28.4,55.8l-54.5,0l-26.6-57.1l29.4-57.7H972.3z"/>
		<polygon class="st6" points="949.2,444.1 933,473 965.4,473 		"/>
		<polygon class="st6" points="1022.3,490.1 992.2,488.7 1008.3,520.4 		"/>
		<polygon class="st6" points="1020.7,603.1 1009,571.6 990.6,601.7 		"/>
		<polygon class="st6" points="946.7,652.5 962.9,623.5 930.6,623.5 		"/>
		<polygon class="st6" points="875.2,602.4 905.4,603.8 889.2,572 		"/>
		<polygon class="st6" points="875.7,492.4 890.8,522 905.8,489.5 		"/>
	</g>
	<path class="st8" d="M879.3,619.6c-194.5-3.6-372.2-26.6-529.7-58.7C424.5,843.8,657.7,1050,933.8,1050
		c276.1,0,509.3-206.3,584.2-489.1C1332.4,598.8,1117.5,624.1,879.3,619.6z"/>
</g>
</svg>
