<?xml version="1.0" encoding="utf-8"?>
<!-- Generator: Adobe Illustrator 23.0.5, SVG Export Plug-In . SVG Version: 6.00 Build 0)  -->
<svg version="1.1" id="圖層_1" xmlns="http://www.w3.org/2000/svg" xmlns:xlink="http://www.w3.org/1999/xlink" x="0px" y="0px"
	 viewBox="0 0 1920 1080" style="enable-background:new 0 0 1920 1080;" xml:space="preserve">
<style type="text/css">
	.st0{fill:#B7A88A;}
	.st1{fill:#E7E1C7;stroke:#000000;stroke-miterlimit:10;}
	.st2{fill:#C9C3A7;stroke:#000000;stroke-miterlimit:10;}
	.st3{fill:#E6DFC7;stroke:#000000;stroke-miterlimit:10;}
	.st4{fill:#D2BD8E;stroke:#000000;stroke-miterlimit:10;}
	.st5{fill:#E8E1C7;stroke:#000000;stroke-miterlimit:10;}
	.st6{fill:#DBD1B6;stroke:#000000;stroke-miterlimit:10;}
	.st7{fill:#B2A282;stroke:#000000;stroke-miterlimit:10;}
	.st8{fill:#D4BF90;stroke:#000000;stroke-miterlimit:10;}
</style>
<rect x="3" y="3" class="st0" width="1920" height="1071"/>
<path class="st1" d="M1916.5,1077.5c-637.17,2.5-1274.33,5-1911.5,7.5c0.33-37,0.67-74,1-111c45.67-23,91.33-46,137-69
	c542-0.67,1084-1.33,1626-2c48,24,96,48,144,72C1914.17,1009.17,1915.33,1043.33,1916.5,1077.5z"/>
<path class="st2" d="M1757,976.18c-538,0-1076,0-1614,0c28.39-12.89,56.77-25.79,85.16-38.68c483.34-0.33,966.67-0.67,1450.01-1
	C1704.45,949.73,1730.72,962.96,1757,976.18z"/>
<rect x="143" y="976.18" class="st1" width="1614" height="40.32"/>
<rect x="252" y="794" class="st3" width="1408" height="50"/>
<rect x="252.5" y="843.5" class="st3" width="1408" height="50"/>
<path class="st2" d="M1654,917.18c-467.5,0-935,0-1402.5,0c24.67-12.89,49.33-25.79,74-38.68c420-0.33,840-0.67,1260-1
	C1608.33,890.73,1631.17,903.96,1654,917.18z"/>
<path class="st1" d="M123,921c-39,17.67-78,35.33-117,53C4.67,648.67,3.33,323.33,2-2c41.33,0,82.67,0,124,0
	C125,305.67,124,613.33,123,921z"/>
<path class="st1" d="M1796,921.5c39,17.67,78,35.33,117,53c1.33-325.33,2.67-650.67,4-976c-41.33,0-82.67,0-124,0
	C1794,306.17,1795,613.83,1796,921.5z"/>
<rect x="245" y="-2" class="st1" width="132" height="665"/>
<path class="st1" d="M397,714H143c0-17,0-34,0-51c8.67-2.33,17.33-4.67,26-7c73.67,1.67,147.33,3.33,221,5c4,5.67,8,11.33,12,17
	C400.33,690,398.67,702,397,714z"/>
<rect x="1523.5" y="-1.5" transform="matrix(-1 -4.489621e-11 4.489621e-11 -1 3179 662)" class="st1" width="132" height="665"/>
<path class="st1" d="M1503.5,714.5h254c0-17,0-34,0-51c-8.67-2.33-17.33-4.67-26-7c-73.67,1.67-147.33,3.33-221,5
	c-4,5.67-8,11.33-12,17C1500.17,690.5,1501.83,702.5,1503.5,714.5z"/>
<rect x="448" y="-2" class="st1" width="107" height="544"/>
<rect x="436" y="548" class="st1" width="131" height="25"/>
<rect x="427" y="573" class="st1" width="153" height="15"/>
<path class="st1" d="M587,609c-55.67-0.33-111.33-0.67-167-1c-1.67-6.33-3.33-12.67-5-19c60.67,0,121.33,0,182,0
	C593.67,595.67,590.33,602.33,587,609z"/>
<rect x="408" y="607" class="st4" width="191" height="98"/>
<rect x="1351" y="1" class="st1" width="107" height="544"/>
<rect x="1335" y="548" class="st1" width="131" height="25"/>
<rect x="1326" y="573" class="st1" width="153" height="15"/>
<path class="st1" d="M1486,609c-55.67-0.33-111.33-0.67-167-1c-1.67-6.33-3.33-12.67-5-19c60.67,0,121.33,0,182,0
	C1492.67,595.67,1489.33,602.33,1486,609z"/>
<rect x="1307" y="607" class="st4" width="191" height="98"/>
<path class="st4" d="M1224,13c-85.6,1.81-173.3,2.53-263,2c-88.67-0.52-175.37-2.24-260-5c-2.67-4-5.33-8-8-12
	c179.67,0,359.33,0,539,0C1229.33,3,1226.67,8,1224,13z"/>
<path class="st5" d="M1238,48c-93.67,2.22-187.33,3.22-281,3c-90-0.21-180-1.54-270-4c-3.02-2.1-8.9-6.8-13-15
	c-4.76-9.54-4.37-18.34-4-22c194.33,1,388.67,2,583,3c-0.29,4.68-1.33,11.95-5,20C1244.87,39.85,1240.96,44.81,1238,48z"/>
<path class="st6" d="M1255,62c-99-0.33-198-0.33-297,0c-61,0.21-122,0.54-183,1c-21.85-0.32-38.82-0.18-50,0
	c-15.49,0.25-27.63,0.69-44-3c-7.27-1.64-13.12-3.58-17-5c-0.7-0.23-3.33-1.2-5-4c-1.9-3.19-1.16-6.39-1-7c202,0.67,404,1.33,606,2
	c0.24,0.73,1.65,5.32-1,10C1260.37,60.65,1255.75,61.82,1255,62z"/>
<path class="st6" d="M1272,76c-99-0.33-198-0.33-297,0c-61,0.21-122,0.54-183,1c-21.85-0.32-38.82-0.18-50,0
	c-15.49,0.25-27.63,0.69-44-3c-7.27-1.64-13.12-3.58-17-5c-0.7-0.23-3.33-1.2-5-4c-1.9-3.19-1.16-6.39-1-7c202,0.67,404,1.33,606,2
	c0.24,0.73,1.65,5.32-1,10C1277.37,74.65,1272.75,75.82,1272,76z"/>
<path class="st6" d="M1254.89,86.36c-100.1-0.23-200.2-0.23-300.29,0c-61.68,0.14-123.36,0.37-185.03,0.69
	c-22.1-0.22-39.25-0.12-50.55,0c-15.67,0.17-27.94,0.47-44.49-2.06c-7.35-1.12-13.27-2.46-17.19-3.43
	c-0.71-0.16-3.37-0.82-5.06-2.75c-1.92-2.19-1.17-4.39-1.01-4.81c204.24,0.46,408.48,0.92,612.71,1.37c0.24,0.5,1.67,3.65-1.01,6.87
	C1260.32,85.44,1255.66,86.24,1254.89,86.36z"/>
<path class="st3" d="M1225,120c-305.8,1.75-530.21,0.69-552-3c-16.13-2.73-25-12-25-12c-6.42-6.71-8.9-14.69-10-20
	c210.67,2,421.33,4,632,6c-2.98,3.55-6.61,7.31-11,11C1246.7,112.34,1233.96,117.4,1225,120z"/>
<path class="st7" d="M1187,140v11c-3,3-6,6-9,9c0.11,4,0.22,8,0.33,12H732.67c0.11-4,0.22-8,0.33-12c-3-3-6-6-9-9v-11h-11v111h11
	v-18h7c0.34-12.5,0.68-25,1.03-37.5h446.95c0.34,12.5,0.68,25,1.03,37.5h7v18h11V140H1187z"/>
<rect x="802" y="140" class="st3" width="23" height="480"/>
<rect x="1081" y="140" class="st3" width="23" height="480"/>
<polygon class="st3" points="1229,112 684,112 684,128 684,137 684,621 710,621 710,137 1201,137 1201,620 1228,620 1228,137 
	1229,137 "/>
<path class="st3" d="M1347,653c-261,0.33-522,0.67-783,1c19.67-12,39.33-24,59-36c226-0.33,452-0.67,678-1
	C1316.33,629,1331.67,641,1347,653z"/>
<path class="st8" d="M1347,656H567v20h82.51c1.5,26.33,2.99,52.67,4.49,79c209.33-0.67,418.67-1.33,628-2
	c3.36-25.67,6.72-51.33,10.08-77H1347V656z"/>
<path class="st1" d="M1653.5,755.5c-452.33,0-904.67,0-1357,0c36-18.67,72-37.33,108-56c386.67-1,773.33-2,1160-3
	C1594.17,716.17,1623.83,735.83,1653.5,755.5z"/>
<rect x="221" y="755" class="st1" width="1458" height="39"/>
<g>
	<rect x="364.5" y="816.5" class="st1" width="1184" height="40"/>
	<path class="st2" d="M1548.5,816.5c-394.67,0-789.33,0-1184,0c8.67-7.67,17.33-15.33,26-23c376.33,0,752.67,0,1129,0
		C1529.17,801.17,1538.83,808.83,1548.5,816.5z"/>
</g>
<g>
	<rect x="325.5" y="867.5" class="st1" width="1260.5" height="40"/>
	<path class="st2" d="M1586,867.5c-420.17,0-840.33,0-1260.5,0c9.23-7.67,18.45-15.33,27.68-23c400.65,0,801.3,0,1201.95,0
		C1565.42,852.17,1575.71,859.83,1586,867.5z"/>
</g>
<rect x="251.5" y="917.18" class="st1" width="1402.5" height="40.32"/>
</svg>
