<?xml version="1.0" encoding="utf-8"?>
<!-- Generator: Adobe Illustrator 23.0.5, SVG Export Plug-In . SVG Version: 6.00 Build 0)  -->
<svg version="1.1" id="圖層_1" xmlns="http://www.w3.org/2000/svg" xmlns:xlink="http://www.w3.org/1999/xlink" x="0px" y="0px"
	 viewBox="0 0 1920 1080" style="enable-background:new 0 0 1920 1080;" xml:space="preserve">
<style type="text/css">
	.st0{fill:#F9B950;}
	.st1{fill:#DADFE5;}
</style>
<g>
	<path class="st0" d="M972.1,24.4c43.4,137.9,86.9,275.9,130.3,413.8c154.5-90.2,309-180.5,463.4-270.7
		c-117.8,141-235.6,282.1-353.4,423.1c83,146.4,166,292.7,249,439.1c-152.2-102.4-304.4-204.9-456.6-307.3
		C856.1,836,707.4,949.7,558.7,1063.4c71.1-148.8,142.2-297.7,213.3-446.5c-149.1-130.3-298.1-260.6-447.2-391
		C485.4,296.1,646,366.3,806.7,436.5C861.8,299.2,917,161.8,972.1,24.4z"/>
	<g>
		<g>
			<path class="st1" d="M547.2,33.7c2.5,1.6,5,3.4,7.4,5.2c0.3,0.2,0.6,0.5,0.9,0.7c0.1,0.1,1.1,0.9,0.3,0.2
				c0.6,0.5,1.2,0.9,1.8,1.4c1.2,1,2.4,1.9,3.5,2.9c4.7,4,9.1,8.4,13.3,13c2.1,2.3,4.2,4.7,6.1,7.2c0.5,0.6,1,1.2,1.5,1.9
				c0.1,0.1,0.9,1.1,0.3,0.3c0.2,0.3,0.5,0.6,0.7,0.9c1,1.3,1.9,2.6,2.8,3.9c3.7,5.3,7.2,10.8,10.3,16.4c1.8,3.2,3.5,6.5,5,9.8
				c1.8,3.7,2.8,6.2,4.2,9.6c0.9,2.2,3,3.9,5.5,3.1c2.1-0.7,4.1-3.2,3.1-5.5c-9.9-24.9-25-47.9-45.2-65.7
				c-5.4-4.8-11.2-9.2-17.2-13.1c-2-1.3-5.1-0.5-6.2,1.6C544.4,29.8,545,32.4,547.2,33.7L547.2,33.7z"/>
		</g>
	</g>
	<g>
		<g>
			<path class="st1" d="M1494.7,571.9c16.5,3,33,6,49.6,9c2.3,0.4,5-0.6,5.5-3.1c0.5-2.2-0.7-5.1-3.1-5.5c-16.5-3-33-6-49.6-9
				c-2.3-0.4-5,0.6-5.5,3.1C1491.1,568.5,1492.2,571.4,1494.7,571.9L1494.7,571.9z"/>
		</g>
	</g>
	<g>
		<g>
			<path class="st1" d="M236.1,597.6c24.6-0.4,49.2-0.8,73.8-1.2c7-0.1,14-0.2,20.9-0.3c2.4,0,4.6-2,4.5-4.5c-0.1-2.4-2-4.5-4.5-4.5
				c-24.6,0.4-49.2,0.8-73.8,1.2c-7,0.1-14,0.2-20.9,0.3c-2.4,0-4.6,2-4.5,4.5C231.7,595.6,233.6,597.7,236.1,597.6L236.1,597.6z"/>
		</g>
	</g>
</g>
</svg>
