<?xml version="1.0" encoding="utf-8"?>
<!-- Generator: Adobe Illustrator 23.0.5, SVG Export Plug-In . SVG Version: 6.00 Build 0)  -->
<svg version="1.1" id="圖層_1" xmlns="http://www.w3.org/2000/svg" xmlns:xlink="http://www.w3.org/1999/xlink" x="0px" y="0px"
	 viewBox="0 0 1920 1080" style="enable-background:new 0 0 1920 1080;" xml:space="preserve">
<style type="text/css">
	.st0{fill:#8BF9F4;}
	.st1{fill:#D59154;}
	.st2{fill:#62C457;}
	.st3{fill:#EF3420;}
</style>
<g>
	<ellipse class="st0" cx="979" cy="135.58" rx="157.23" ry="35.52"/>
	<g>
		<path class="st0" d="M1091.86,194.78c-71.38,1.32-142.76,2.63-214.14,3.95c-8.05-3.55-22.01-11-34.72-25.65
			c-10.99-12.66-16.52-25.47-19.29-33.54c104.17-1.32,208.35-2.63,312.52-3.95c-3.81,9.2-9.81,21.13-19.29,33.54
			C1108.2,180.56,1099.18,188.93,1091.86,194.78z"/>
		<rect x="873.86" y="192.8" class="st0" width="217.99" height="195.35"/>
		<ellipse class="st0" cx="979" cy="710.78" rx="354" ry="352.22"/>
		<path class="st1" d="M1048.99,155.31H912.87c-6.6,0-12-5.4-12-12V43c0-6.6,5.4-12,12-12h136.12c6.6,0,12,5.4,12,12v100.31
			C1060.99,149.91,1055.59,155.31,1048.99,155.31z"/>
		<path class="st2" d="M664.86,719.66c14.32,157.06,149.48,280.2,314.14,280.2s299.82-123.14,314.14-280.2H664.86z"/>
		<polygon class="st3" points="1024.34,248.77 990.57,248.77 990.57,214.51 972.25,214.51 972.25,248.77 939.45,248.77 
			939.45,267.37 972.25,267.37 972.25,340.8 990.57,340.8 990.57,267.37 1024.34,267.37 		"/>
	</g>
</g>
</svg>
