<?xml version="1.0" encoding="utf-8"?>
<!-- Generator: Adobe Illustrator 23.0.5, SVG Export Plug-In . SVG Version: 6.00 Build 0)  -->
<svg version="1.1" id="圖層_1" xmlns="http://www.w3.org/2000/svg" xmlns:xlink="http://www.w3.org/1999/xlink" x="0px" y="0px"
	 viewBox="0 0 1920 1080" style="enable-background:new 0 0 1920 1080;" xml:space="preserve">
<style type="text/css">
	.st0{fill:#20192D;}
	.st1{fill:#191627;}
	.st2{fill:#42414F;}
	.st3{fill:#45DBE3;}
	.st4{fill:#3886C9;}
	.st5{fill:#FD972A;}
	.st6{fill:#FEF6B3;}
	.st7{fill:#F69730;}
	.st8{fill:#FB8C2E;}
	.st9{fill:#F9F7C1;}
	.st10{fill:#252638;}
	.st11{fill:#232436;}
	.st12{fill:#191629;}
	.st13{fill:#1F1C2F;}
</style>
<path class="st0" d="M1352.71,322.61c-265.65,0-531.31,0-796.96,0c-18.11-17.57-41.22-45.14-57.66-84.77
	c-4.67-11.27-8.23-22.13-10.96-32.29c301.31,1.35,602.62,2.69,903.93,4.04c-0.46,11.64-1.95,25.36-5.48,40.37
	C1377.73,283.29,1363.37,307.66,1352.71,322.61z"/>
<ellipse class="st1" cx="930.88" cy="166.2" rx="418.18" ry="99.91"/>
<path class="st2" d="M523.01,167.21c-0.78-2.33-1.18-4.69-1.18-7.06c0-50.72,181.91-91.83,406.31-91.83s406.31,41.11,406.31,91.83
	c0,2.38-0.4,4.73-1.18,7.06h95.75c-9.88-70.67-226.24-127.15-491.75-127.15S455.4,96.53,445.52,167.21H523.01z"/>
<g>
	<path class="st3" d="M623.49,186.8c4.91-9.28,9.98-18.77,17.48-25.62c7.5-6.85,18.07-10.64,27.16-6.81
		c3.79,1.59,7.31,4.45,11.37,4.47c6.8,0.03,11.32-7.59,17.31-11.14c17.11-10.13,36.65,15.21,55.64,10.74
		c13.57-3.2,21.05-20.31,34.1-25.49c7.16-2.84,15.04-1.71,22.64-2.16c30.1-1.77,56.34-32.7,56.01-66.01
		c-0.09-9.49-2.05-18.89-1.86-28.38c0.19-9.49,3.09-19.7,10.28-24.88c8.46-6.09,20.27-3.08,28.04,4.03
		c7.78,7.11,12.44,17.45,16.89,27.46c5.86,13.2,11.73,26.41,17.59,39.61c8.85,19.93,19.41,41.61,38.3,49.15
		c8.64,3.45,18.08,3.44,27.25,2.69c22.95-1.88,49.14-11.56,56.46-35.68c3.02-9.95,2.24-20.92,5.25-30.87
		c3.65-12.05,12.49-21.34,22.08-28.35c6.9-5.04,14.9-9.29,23.12-8.3c10.75,1.3,19.22,11.53,22.78,22.82s3.17,23.56,2.73,35.5
		c-0.65,17.8-1.29,35.61-1.94,53.41c4.86,1.22,9.73,2.44,14.59,3.65c-12.24,12.47-25.33,26.87-26.27,45.24
		c-0.69,13.46,4.99,28.93-2.81,39.28c-7.51,9.95-22.36,7.06-31.94-0.4s-16.89-18.43-27.39-24.19c-18.02-9.88-39.76-1.68-57.4,9.02
		c-17.63,10.7-35.13,24.24-55.23,25.19c-19.7,0.93-39.3-10.57-58.54-5.84c-5.5,1.35-11.17,4.01-16.56,2.2
		c-5.88-1.99-9.27-8.54-12.74-14.16c-15.53-25.15-44.09-39.67-71.48-36.33c-27.38,3.34-52.4,24.4-62.59,52.68
		c-3.4,9.44-6.28,20.83-14.83,24.55c-3.17,1.38-6.68,1.42-10.09,1.2c-37.26-2.37-70.83-36.59-75.98-77.45"/>
</g>
<g>
	<path class="st4" d="M853.81,245.26c12.32-20.42,32.96-34.44,55-37.37c19.95-2.65,41.66,3.03,59.29-7.63
		c20.04-12.13,31.22-43.45,54.07-43.56c21.14-0.1,35.06,28,56.13,30.04c4.71,0.46,9.53-0.46,14.14,0.7
		c4.51,1.13,8.45,4.14,12.9,5.55c4.44,1.4,10.17,0.51,12.21-4.07c2.44-5.49-1.86-11.44-4.3-16.93c-5.15-11.59-0.96-27.2,9.09-33.8
		c4.97-3.26,10.81-4.39,16.51-5.45c11.94-2.23,23.89-4.47,35.83-6.7c13.32-2.49,29.24-4.03,38.11,7.23
		c4.36,5.54,5.94,13.18,6.03,20.52c0.45,36.01-30.15,63.24-60.66,75.88c-29.24,12.11-60.58,16.34-91.58,20.48
		c-62.52,8.34-125.18,16.7-188.15,17.86c-6.94,0.13-14.37,0.02-20.12-4.3s-8.35-14.48-3.27-19.72"/>
</g>
<g>
	<g>
		<path class="st5" d="M1036.26,251.62c7.12-20.38,28.01-31.57,47.78-32.09c19.76-0.52,38.8,7.48,57.23,15.37
			c-4.27-8.77,4.35-19,13.09-21.47c8.73-2.47,18.39-1.11,26.43-5.61c10.03-5.6,14.51-18.38,20.84-28.64
			c14.67-23.78,43.43-35.71,68.63-28.47c19.04,5.47,36.63,24.91,33.67,46.4c-3.41,24.69-29.36,36-51.49,41.08
			c-59.22,13.58-119.98,16.37-180.41,19.12c-11.97,0.54-24.02,1.08-35.89-0.73"/>
	</g>
	<ellipse class="st6" cx="1258.66" cy="180.32" rx="13.7" ry="15.14"/>
</g>
<g>
	<path class="st7" d="M553,160.67c-6.87-8.49-7.72-21.41-4.58-32.27c3.14-10.86,9.66-20.07,16.36-28.74
		c8.29-10.74,19.01-21.93,31.73-20.61c10.94,1.13,19.44,11.62,23.38,22.95s4.41,23.71,6.24,35.68s5.46,24.4,13.91,32.15
		c7.28,6.68,16.97,8.87,25.96,12.15c9.23,3.37,18.06,8.09,26.18,14.01c7.14,5.2,14.46,13.41,12.66,22.65
		c-1.18,6.08-6.08,10.42-11.15,13.12c-12.1,6.46-26.14,6.3-39.56,5.48c-16.24-0.99-32.44-2.76-48.54-5.3
		c-23-3.63-46.35-9.07-66.11-22.58c-5.87-4.01-11.77-9.42-12.95-16.93c-1.11-7.06,2.43-14.22,7.39-18.83s11.19-7.14,17.28-9.6"/>
</g>
<g>
	<g>
		<path class="st8" d="M713.97,256.72c-7.33-8.53-8.87-20.39-6.23-30.98s9.01-20.08,16.21-28.7c7.56-9.05,16.28-17.49,26.95-23.33
			c26.41-14.46,61.82-10.34,87.07,5.78c25.24,16.11,41.14,42.38,48.86,69.67c0.52,1.86,1.11,3.86,2.74,5.06
			c1.73,1.28,4.15,1.29,6.35,1.59c9.05,1.24,16.49,8.98,16.7,17.36c-2.56,4.37-9.07,4.84-14.48,4.76
			c-42.36-0.65-84.72-1.31-127.07-1.96c-12.61-0.19-25.42-0.42-37.49-3.78c-12.07-3.36-23.53-10.34-28.92-20.8"/>
	</g>
	<ellipse class="st9" cx="796.86" cy="203.54" rx="19.81" ry="18.16"/>
</g>
<path class="st10" d="M614.96,1065.35c-30.34,10.43-79.84,7.9-91.31-20.18c-9.84-24.1,9.23-64.83,29.22-68.62
	c14.19-2.69,24.28,14.09,34.7,8.07c5.62-3.25,7.24-10.77,10.96-34.31c4.5-28.53,6.75-42.79,7.3-50.46c1.52-21.01,2.47-50.47,0-86.79
	c35.3,22.87,70.61,45.75,105.91,68.62C711.2,888.26,697.26,1037.04,614.96,1065.35z"/>
<path class="st11" d="M1269.69,1057.28c30.34,10.43,79.84,7.9,91.31-20.18c9.84-24.1-9.23-64.83-29.22-68.62
	c-14.19-2.69-24.28,14.09-34.7,8.07c-5.62-3.25-7.24-10.77-10.96-34.31c-4.5-28.53-6.75-42.79-7.3-50.46
	c-1.52-21.01-2.47-50.47,0-86.79c-35.3,22.87-70.61,45.75-105.91,68.62C1173.45,880.18,1187.39,1028.97,1269.69,1057.28z"/>
<path class="st12" d="M971.05,982.6c-9.15,2.21-20.95,4.12-34.7,4.04c-12.93-0.08-24.08-1.91-32.87-4.04
	c-4.31-7.53-9.44-18.38-12.78-32.29c-5.15-21.45-3.54-39.79-1.83-50.46c31.04-1.35,62.09-2.69,93.13-4.04
	c1.09,13.16,1.31,30.53-1.83,50.46C977.94,960.53,974.5,972.74,971.05,982.6z"/>
<path class="st2" d="M1327.14,794.9c-201.47,186.34-570.87,195.01-759.66-14.13c-28-31.02-130.91-145.02-120.52-304.76
	c6.13-94.27,49.02-162.94,73.04-195.77c116.09,27.43,264.23,50.88,436.44,50.46c168.14-0.41,313.06-23.46,427.31-50.46
	c19.7,25.4,93.68,126.72,82.18,262.38C1454.52,677.09,1366.46,758.54,1327.14,794.9z"/>
<path class="st2" d="M445.13,480.04c-50.47,25.63-104.02,13.77-127.83-22.2c-22.77-34.39-11.29-80.17-9.13-88.81
	c2.26-9.01,14.14-52.31,51.13-72.66c39.12-21.53,91.36-9.16,127.83,32.29C473.13,379.13,459.13,429.58,445.13,480.04z"/>
<path class="st2" d="M1602.89,473.99c-30.22,44.64-91.19,58.14-140.61,26.24c-17.65-58.53-35.3-117.06-52.96-175.59
	c60.47-53.52,140.2-48.25,180.79,0C1619.45,359.53,1635.64,425.6,1602.89,473.99z"/>
<path class="st13" d="M1414.8,633.43c-61.4,168.32-235.29,224.45-295.83,244.21c-14.99,4.89-359.62,110.99-560.62-137.24
	c-79.4-98.06-103.11-210.31-111.39-270.45c2.26-8.83,8.2-27.51,23.74-44.4c13.85-15.06,28.7-21.5,36.52-24.22
	c89.71,240.2,283.38,393.61,480.27,385.49c125.26-5.16,276.08-76.71,346.96-209.9c67.43-126.71,38.14-263.37,54.78-264.4
	C1407.91,311.37,1470.1,481.84,1414.8,633.43z"/>
<path class="st2" d="M1332.57,165.19c-2.4,50.25-183.35,90.82-406.25,90.82s-403.86-40.57-406.25-90.82h-75.01
	c-1.13,3.66-1.74,7.36-1.74,11.1c0,73.01,220.34,132.2,492.14,132.2s492.14-59.19,492.14-132.2c0-3.74-0.61-7.44-1.74-11.1H1332.57z
	"/>
</svg>
