<?xml version="1.0" encoding="utf-8"?>
<!-- Generator: Adobe Illustrator 23.0.5, SVG Export Plug-In . SVG Version: 6.00 Build 0)  -->
<svg version="1.1" id="圖層_1" xmlns="http://www.w3.org/2000/svg" xmlns:xlink="http://www.w3.org/1999/xlink" x="0px" y="0px"
	 viewBox="0 0 1920 1080" style="enable-background:new 0 0 1920 1080;" xml:space="preserve">
<style type="text/css">
	.st0{fill:#AE5A36;}
	.st1{fill:#284668;}
</style>
<g>
	<path class="st0" d="M641,1029.02c1.24,1.99,13.57,20.95,39.17,23.67c24.54,2.61,40.95-11.88,42.92-13.68
		c103.86-251.33,207.72-502.67,311.59-754c4.14-30.42-10.36-59.24-35.18-71.57c-26.49-13.16-53.1-1.73-56.96,0
		C842.02,485.3,741.51,757.16,641,1029.02z"/>
	<path class="st1" d="M1108.33,229.43c16.43,39.17,17.37,78.67-2.53,98.75c-35.52,35.86-117.96-9.89-132.83-18.15
		c-42.34-23.5-119.26-84.14-102.59-144.09c9.44-33.96,44.61-52.23,63.31-60.01c2.51-15.94,9.61-41.18,30.24-54.12
		c34.41-21.57,98.4-3.89,143.08,55.78c4.37,5.59,30.05,39.56,21.11,81.89C1124.13,208.41,1114.73,221.85,1108.33,229.43z"/>
</g>
</svg>
