<?xml version="1.0" encoding="utf-8"?>
<!-- Generator: Adobe Illustrator 23.0.5, SVG Export Plug-In . SVG Version: 6.00 Build 0)  -->
<svg version="1.1" id="圖層_1" xmlns="http://www.w3.org/2000/svg" xmlns:xlink="http://www.w3.org/1999/xlink" x="0px" y="0px"
	 viewBox="0 0 1920 1080" style="enable-background:new 0 0 1920 1080;" xml:space="preserve">
<style type="text/css">
	.st0{fill:#B4D52C;stroke:#8DC741;stroke-width:0.5;stroke-miterlimit:10;}
	.st1{fill:#572E25;}
	.st2{fill:#90755A;stroke:#582D24;stroke-miterlimit:10;}
	.st3{fill:#75604B;stroke:#582D24;stroke-miterlimit:10;}
	.st4{fill:#5D4835;}
	.st5{fill:#4A3927;stroke:#582D24;stroke-miterlimit:10;}
	.st6{fill:#B09B87;}
	.st7{fill:#7F5D44;}
	.st8{fill:#B4D52C;}
	.st9{fill:#624F1C;}
	.st10{fill:#010101;}
	.st11{fill:#F15A25;}
	.st12{fill:#FFFFFF;stroke:#FFFFFF;stroke-miterlimit:10;}
</style>
<g>
	<g>
		<path class="st0" d="M1238,633.5c-1.1,10.2-7.5,16.4-20,28.5c-10.1,9.8-19.5,15.5-24,18c-5.4,3-13.2,7.4-24,10
			c-11.5,2.8-14.1,0.6-33,2c-16.9,1.2-15.9,3.1-31,4c-15.4,0.9-27.8-0.3-35-1c-13.7-1.4-14.3-2.6-30-4c-9.7-0.9-13-0.7-21-2
			c-8.6-1.4-11-2.6-21-5c-19.2-4.6-20.1-2.5-32-6c-11.3-3.3-8.8-4.7-27-12c-19.2-7.7-25.8-7.8-30-15c-3.7-6.5-2.6-13.6-2-17.5
			c2.3-14.3,12.9-22.9,15-24.5c15.7-12.5,36.7-7.3,57-6c45.6,3,43.8-16.3,93-18c59.7-2.1,65.9,26.2,116,18c9.9-1.6,27.4-5.7,39,4
			C1235.6,613.4,1239,624.3,1238,633.5z"/>
		<g>
			<g>
				<path class="st1" d="M1116.4,674c0.6-2.2,0.3-4.5-1-6.4c-1.2-1.8-3.6-2.5-4.7-4.3c-0.3,0.7-0.6,1.5-0.9,2.2
					c2.9-0.6,5.8,0.1,8.3,1.8c0.6,0.4,1.7,0.2,2.1-0.5c0.8-1.8,2.2-3.1,4.1-3.7c-0.6-0.3-1.2-0.7-1.8-1c0.8,2.3,1,4.7,0.8,7.1
					c-0.1,1.3,1.7,2,2.6,1.1c3-3.1,7.4-4.7,11.6-4c-0.1-0.9-0.2-1.8-0.4-2.7c-3.7,2.4-6.4,6-7.6,10.2c-0.5,1.9,2.4,2.7,2.9,0.8
					c1-3.5,3.2-6.5,6.2-8.5c1-0.6,1-2.5-0.4-2.7c-5.3-0.9-10.8,0.8-14.6,4.8c0.9,0.4,1.7,0.7,2.6,1.1c0.2-2.7-0.1-5.3-1-7.9
					c-0.2-0.7-1-1.3-1.8-1c-2.6,0.9-4.7,2.7-5.9,5.1c0.7-0.2,1.4-0.4,2.1-0.5c-3.2-2.1-6.9-2.8-10.6-2.1c-1,0.2-1.4,1.4-0.9,2.2
					c1,1.6,2.6,2.4,4,3.6c1.4,1.2,1.9,3.1,1.5,4.8C1113,675,1115.9,675.8,1116.4,674L1116.4,674z"/>
			</g>
		</g>
		<g>
			<path class="st2" d="M1175,553c5.1,7.5,8,7.4,13,16c2.6,4.4,2.6,5.7,5,8c4.6,4.4,8.7,3.5,12,7c4,4.2,3.2,10.9,3,13
				c-2.3,21.3-48.9,34.3-55,36c-10.4,2.8-21.4,3.9-43,6c-32.3,3.1-48.5,4.7-65,3c-5.4-0.6-31.5-3.4-59-18c-9.6-5.1-15.8-9.7-20-17
				c-7.6-13.1-4.8-27.3-4-31c2.3-10.7,8.7-19,11-22c3.8-5,7-7.8,11-15c3-5.5,2.7-6.7,5-11c4.6-8.6,9.7-10.8,17-18
				c12.1-11.9,7.7-15.3,17-23c8.7-7.2,22.9-12.8,35-9c6.9,2.1,6.5,5.4,14,7c10.4,2.2,14.3-3,24-1c3.4,0.7,8.3,4.1,18,11
				c11,7.8,16.5,11.7,20,16c7.8,9.6,5.2,13.8,12,19c7.9,6,14.2,0.9,21,7C1171.8,541.3,1168.7,543.6,1175,553z"/>
			<path class="st3" d="M1139.5,587.5c2.2,6.4,2.8,13.3,4,27c0.8,9.2,1.1,13.9,0,16c-4.1,7.7-16.1,7.6-41,9c-41.1,2.3-39,4.4-52,3
				c-21.8-2.3-39.3-4.2-46-16c-10.8-19,13.6-51,28-65c10.4-10.2,24.8-24.1,45.5-24c25,0.2,41.6,19.8,48.5,28
				C1129.9,569.5,1135.8,576.6,1139.5,587.5z"/>
			<path class="st4" d="M1122.5,587.5c3.1,8.1,4,14.8,5,23c1.6,12.5,2.3,18.7-1,23c-3.9,5.1-10.2,4.8-28,6
				c-27.7,1.8-29,4.1-41.5,3.5c-2-0.1-12.6-0.7-26-4c-9.4-2.3-14.1-3.5-16-6c-8-10.7,10-37.7,22.5-51.5c12-13.2,23.9-19.7,32-23
				c9.5-3.9,15.5-6.4,23-5C1110.7,556.9,1119.6,580.1,1122.5,587.5z"/>
			<path class="st5" d="M1118,577c1.2,2,5.5,9.4,8,20c1.3,5.7,1.6,10.5,2,20c0.5,10.4,0.7,15.7-1,18c-3.1,4.2-8,3.5-26,5
				c-21.6,1.8-26.7,3.8-30,0c-2.2-2.6-1.8-8.4-1-20c0.4-5.4,0.7-10.2,2-17c2.3-12.4,4-21.1,10-30c3.8-5.5,9.7-14.2,17.5-14
				C1107.3,559.2,1112.8,568.3,1118,577z"/>
			<path class="st6" d="M1076.5,506.5c-3.6-1.2-5.7-0.7-7,0c-2,1.1-2.9,3.1-6,4c-1.4,0.4-1.8,0.2-2,0c-0.6-0.6-0.4-2.3,1-4
				c0.5-0.8,2.8-4.1,7-5c1.6-0.3,3-0.2,4,0c1.3,0.1,2.5,0.9,3,2C1077.2,504.9,1076.6,506.3,1076.5,506.5z"/>
			<path class="st6" d="M998.9,579.1c-4.2,0.2-6.3,1.5-7.3,2.8c-2.3,2.8-1.1,6.9-3.6,8.1c-1.3,0.6-2.7,0.1-3,0c-2.4-0.9-3-3.8-3-4
				c0.8-2.2,3.2-7.7,9-11c1.8-1,3.5-1.6,5-2c0.5,0.3,1.3,1,2,2C999.1,576.7,999,578.5,998.9,579.1z"/>
			<path class="st6" d="M987,539c1.3,0.3,2.7,0.7,4,1c12.2-12.4,21-18.1,27-21c2.1-1,6.8-3.1,10-8c1-1.5,1.9-3.3,4-11
				c1.3-4.9,2.3-9,3-12c4.7-2.8,8.3-5.2,11-7c1.6-1,3.2-2.2,3-3c-0.3-1.1-3.7-1-5-1c-14.1,4.7-21.2,11.5-25,17
				c-3.1,4.5-3.8,7.7-9,14c-5.4,6.6-8.4,7.6-13,13C993.9,524.6,989.9,530.3,987,539z"/>
			<path class="st7" d="M1185.4,618.3c-3.4,2.4-12.2,8.2-21.7,6c-1.7-0.4-6.6-1.5-7.6-4.7c-0.7-2.1,1-3.5,1.7-6.9
				c0.9-4.4-0.7-8.2-2-11.2c-2.8-6.6-5.9-6.3-9.8-13c-3-5.1-2-6.5-4.8-13.5c-1.4-3.5-4.1-7.7-9.5-16c-11.3-17.2-14.2-19.8-17-21.7
				c0,0,0,0-7.6-4.7c-9.5-5.9-9.5-5.9-9.5-5.9c-4.5-2.3-7.1-2.7-7.6-4.7c-0.3-1.4,0.5-2.9,1.4-3.9c7.3,0.7,14.6,1.4,21.9,2.1
				c2.9,1.4,7.2,3.9,11.3,8.1c3.6,3.7,3.8,5.4,7.2,8.7c5.6,5.4,7.8,3.6,13.3,8.3c1.3,1.1,7.9,7,10.5,16.1c0.8,2.6,1.1,5.2,3.2,8.3
				c1.6,2.3,2.8,2.9,5.5,5.5c4.8,4.7,3.8,5.6,7.2,8.7c5.5,5,8.7,3.4,12.3,8.2c2,2.6,0.6,2.7,3.3,7.3c2.9,5.1,5.5,6.7,6,10.6
				c0.3,2.1-0.1,3.9-0.5,5c-0.2,0.5-0.8,1.9-2.3,2.8C1188.2,619.2,1185.7,618.4,1185.4,618.3z"/>
		</g>
		<g>
			<g>
				<path class="st1" d="M998.4,668c0.6-2.2,0.3-4.5-1-6.4c-1.2-1.8-3.6-2.5-4.7-4.3c-0.3,0.7-0.6,1.5-0.9,2.2
					c2.9-0.6,5.8,0.1,8.3,1.8c0.6,0.4,1.7,0.2,2.1-0.5c0.8-1.8,2.2-3.1,4.1-3.7c-0.6-0.3-1.2-0.7-1.8-1c0.8,2.3,1,4.7,0.8,7.1
					c-0.1,1.3,1.7,2,2.6,1.1c3-3.1,7.4-4.7,11.6-4c-0.1-0.9-0.2-1.8-0.4-2.7c-3.7,2.4-6.4,6-7.6,10.2c-0.5,1.9,2.4,2.7,2.9,0.8
					c1-3.5,3.2-6.5,6.2-8.5c1-0.6,1-2.5-0.4-2.7c-5.3-0.9-10.8,0.8-14.6,4.8c0.9,0.4,1.7,0.7,2.6,1.1c0.2-2.7-0.1-5.3-1-7.9
					c-0.2-0.7-1-1.3-1.8-1c-2.6,0.9-4.7,2.7-5.9,5.1c0.7-0.2,1.4-0.4,2.1-0.5c-3.2-2.1-6.9-2.8-10.6-2.1c-1,0.2-1.4,1.4-0.9,2.2
					c1,1.6,2.6,2.4,4,3.6c1.4,1.2,1.9,3.1,1.5,4.8C995,669,997.9,669.8,998.4,668L998.4,668z"/>
			</g>
		</g>
		<g>
			<path class="st8" d="M964.9,617.1c2.3-4,3.6-9.1,3.3-12.8c-0.2-3-1.4-5.1-0.9-8.5c3.5-0.2,6.2,2.5,7.3,7.3
				c2.5-3.9,5.6-6.5,8.2-7.1c-1.1,5.1-2.9,10.4-5.1,15.4c5.8-5.9,12-7.5,15.7-4c-4.8,2.9-9.9,8.9-13.9,16.2"/>
			<g>
				<path class="st9" d="M966.2,617.9c1.9-3.5,3.2-7.3,3.5-11.3c0.3-3.7-1.3-7.1-0.9-10.8c-0.5,0.5-1,1-1.5,1.5
					c3.5-0.1,5.1,3.2,5.8,6.2c0.3,1.3,2.1,1.4,2.7,0.4c1.7-2.6,4.1-5.6,7.3-6.4c-0.6-0.6-1.2-1.2-1.8-1.8c-1.2,5.2-2.8,10.2-5,15
					c-0.7,1.5,1.1,3.1,2.4,1.8c3.1-3.1,9.3-7.9,13.6-4c0.1-0.8,0.2-1.6,0.3-2.4c-6.3,3.9-10.9,10.4-14.4,16.8
					c-0.9,1.7,1.7,3.2,2.6,1.5c3.3-5.9,7.5-12.1,13.3-15.7c0.8-0.5,1-1.7,0.3-2.4c-5.7-5.2-13.4-0.5-17.8,4c0.8,0.6,1.6,1.2,2.4,1.8
					c2.3-5.1,4.1-10.3,5.3-15.7c0.3-1.1-0.7-2.1-1.8-1.8c-4,1-6.9,4.5-9.1,7.8c0.9,0.1,1.8,0.2,2.7,0.4c-1-4.3-3.8-8.5-8.7-8.4
					c-0.9,0-1.4,0.7-1.5,1.5c-0.4,3.5,1.1,6.6,1,10.1c-0.1,3.7-1.4,7.3-3.2,10.5C962.6,618,965.2,619.6,966.2,617.9L966.2,617.9z"/>
			</g>
		</g>
		<g>
			<path class="st8" d="M1171,635.2c0.6-4.6-0.1-9.8-1.7-13.1c-1.3-2.7-3.2-4.2-4.1-7.6c3.2-1.5,6.7,0,9.5,4
				c0.9-4.5,2.7-8.1,4.9-9.6c0.9,5.2,1.2,10.7,1,16.2c3.2-7.7,8.3-11.5,13-9.6c-3.3,4.5-5.8,12-6.8,20.3"/>
			<g>
				<path class="st9" d="M1172.5,635.2c0.5-3.9,0.2-8-1-11.8c-1.1-3.4-3.8-5.9-4.8-9.3c-0.2,0.6-0.5,1.1-0.7,1.7
					c3-1.3,5.8,1.2,7.4,3.5c0.7,1,2.5,1,2.7-0.4c0.6-3,1.6-6.9,4.2-8.7c-0.7-0.3-1.5-0.6-2.2-0.9c0.9,5.2,1.2,10.5,1,15.8
					c-0.1,1.8,2.3,1.8,2.9,0.4c1.8-4.2,5.7-10.6,11.2-8.5c-0.3-0.7-0.6-1.5-0.9-2.2c-4.4,6-6.1,13.8-7,21c-0.2,1.9,2.8,1.9,3,0
					c0.8-6.7,2.5-13.9,6.5-19.5c0.6-0.9-0.1-1.9-0.9-2.2c-7.2-2.7-12.5,5-14.9,10.6c1,0.1,2,0.3,2.9,0.4c0.2-5.6-0.2-11.1-1.1-16.6
					c-0.2-0.9-1.5-1.4-2.2-0.9c-3.3,2.4-4.8,6.7-5.6,10.5c0.9-0.1,1.8-0.2,2.7-0.4c-2.7-3.9-6.8-6.6-11.5-4.6
					c-0.6,0.3-0.8,1.1-0.7,1.7c0.5,1.7,1.2,3.2,2.2,4.7c0.9,1.4,1.9,2.7,2.5,4.3c1.3,3.6,1.5,7.5,1.1,11.3
					C1169.3,637.2,1172.3,637.1,1172.5,635.2L1172.5,635.2z"/>
			</g>
		</g>
		<g>
			<path class="st8" d="M1193.9,625.7c-1.6-4.3-4.6-8.7-7.6-10.8c-2.4-1.8-4.8-2.2-7.1-4.8c2.2-2.8,6-3.1,10.3-0.8
				c-1.3-4.4-1.3-8.5-0.1-10.8c3.2,4.2,6.1,8.9,8.4,13.9c-0.8-8.3,2-14,7.1-14.5c-0.9,5.6,0.4,13.3,3.4,21.1"/>
			<g>
				<path class="st9" d="M1195.4,625.3c-1.4-3.7-3.5-7.3-6.3-10c-2.6-2.6-6.3-3.6-8.8-6.2c0,0.7,0,1.4,0,2.1c2.2-2.7,5.7-2,8.5-0.6
					c1.1,0.6,2.6-0.4,2.2-1.7c-0.8-2.9-1.7-6.8-0.3-9.7c-0.9,0-1.7,0-2.6,0c3.3,4.3,6.1,9,8.4,13.9c0.6,1.3,2.9,0.7,2.8-0.8
					c-0.4-4.2-0.1-12.3,5.6-13c-0.5-0.6-1-1.3-1.4-1.9c-1.1,7.4,0.8,15,3.4,21.9c0.7,1.8,3.6,1,2.9-0.8c-2.4-6.3-4.4-13.5-3.4-20.3
					c0.1-0.8-0.4-2-1.4-1.9c-7.7,0.9-9.1,9.7-8.6,16c0.9-0.3,1.9-0.5,2.8-0.8c-2.4-4.9-5.2-9.5-8.4-13.9c-0.6-0.8-2-1.1-2.6,0
					c-1.8,3.7-1.1,8.2,0,12c0.7-0.6,1.5-1.1,2.2-1.7c-3.9-2-9-2.8-12.1,1.1c-0.5,0.6-0.6,1.5,0,2.1c1.2,1.3,2.6,2.3,4.2,3.1
					c1.4,0.8,2.9,1.5,4.1,2.6c2.7,2.5,4.8,5.8,6.1,9.2C1193.2,627.9,1196.1,627.1,1195.4,625.3L1195.4,625.3z"/>
			</g>
		</g>
	</g>
	<g>
		<g>
			<path class="st10" d="M935.7,630H904v-98h31.7c-0.3,13.6-0.2,24.7,0,32.2c0.5,21.4-0.9,22.8,1,27.1c5,11.2,12.2,22,12.2,25.7
				c0,0.1,0,0.9,0,3c0,1.8,0,2,0,2C949,623.3,946.5,625.5,935.7,630z"/>
			<path class="st10" d="M986,632c-2.8-0.4-7.1-1.3-12-3c-3.9-1.4-7-2.9-13-6c-2.9-1.5-7.3-3.6-13-7c-4.3-2.6-9.8-6-16.4-10.1
				c1.3-2.7,2.5-5.4,3.8-8.2c20.2,11.1,40.4,22.2,60.6,33.3C992.7,631.3,989.3,631.7,986,632z"/>
			<path class="st10" d="M968,636.1c-0.7,1.8-7.9,1.9-13.1-0.8c-2.4-1.2-4-2.9-8-4.1c-1.9-0.6-3.5-0.8-5-0.9
				c-6.5-0.8-8.4,0.6-10.1-0.8c-2.3-2-2.4-7.8,0.1-10.2c3.2-3,9.9,0.1,17.2,3.5C957.2,626.5,969,633.5,968,636.1z"/>
			<path class="st10" d="M857.6,628c-1,0.9-1.2,1.6-1.1,2c0.5,2.3,9.5,2.2,22.9,1.9c6.8-0.1,10.8-0.4,12-0.5c5.1-0.4,9.6-1,13.1-1.5
				c0.1-2.7,0.2-5.3,0.3-8c4.8-14.2,4.2-18,2.7-18.9c-4.1-2.4-18.1,15.4-31.8,18.8c-0.9,0.2-4.4,1-9.1,2.6
				C862.8,625.7,859.6,627.1,857.6,628z"/>
			<path class="st10" d="M935,545c-10.3-4.3-20.7-8.7-31-13c7.8-2.1,10.7-5.4,12-8c3.7-7.4-2.2-16.8,3-22c1.3-1.3,2.9-1.9,3-2
				c4.5-1.9,7.8,1.2,11,0c1.7-0.6,3.8-2.6,5-9c8.7,8.3,17.3,16.7,26,25c-5.3,5.3-10.7,10.7-16,16C943.7,536.3,939.3,540.7,935,545z"
				/>
			<path class="st10" d="M905,555c-2.2-2-5.5-5.2-9.5-9.3c-7.2-7.5-7.8-8.9-11.6-11.4c-3.1-2-6.6-3.5-13.6-6.4
				c-3.4-1.4-6.3-2.5-8.3-3.2c1.3-3,2.6-6,3.9-9c5.5,1.5,11.9,3.5,18.7,6.5c7.8,3.4,14.5,7.1,19.8,10.6
				C904.7,540.1,904.8,547.6,905,555z"/>
			<path class="st10" d="M862,524.6c-2.7-1.2-5.3-2.4-8-3.6c0.7-2.7,1.3-5.3,2-8c1.1-0.2,2.9-0.4,5,0c2.6,0.5,4.4,1.8,5.2,2.5
				C864.8,518.5,863.4,521.5,862,524.6z"/>
			<path class="st10" d="M844,535c-1.2,4-0.6,8.3,2,11c3.8,4,11.5,4.2,17-1c-3.4,0.5-6.2,0.3-8,0c-2.5-0.4-4.1-0.7-5-2
				c-1.2-1.9-0.2-4.5,0-5c0.5-1.2,0.8-1.2,3-4c2-2.6,1.8-2.7,3-4c1.5-1.5,2-1.7,3-3c1-1.3,1.4-2.6,1.6-3.5c-2-1.1-4-2.3-5.9-3.4
				c-2.2,2.7-4.5,5.7-6.7,8.9C846.6,531,845.2,533,844,535z"/>
			<path class="st10" d="M849,531"/>
			<path class="st10" d="M834.9,511.4c-6.8,0.8-12.4,3.3-14.2,6.7c-2.6,5,3.4,11.7,15.2,14c-3.5-2.7-5.4-5.1-6.5-6.8
				c-1.5-2.3-2.4-3.8-1.2-5.1c1.7-1.9,6.3-2.2,7.2-2.3c2.1-0.1,2.4,0.2,8.2,0.7c5.4,0.5,5.3,0.3,8.2,0.7c3.4,0.5,4.1,1,6.7,1.2
				c2.7,0.2,4.9,0,6.3-0.2c0-2.2,0.1-4.4,0.1-6.6c-5.7-0.6-11.8-1.2-18.2-1.7C842.7,511.8,838.7,511.6,834.9,511.4z"/>
			<path class="st10" d="M931.1,502.8c-4.7,2.1-9.4,4.1-14.1,6.2c-0.7-3.5-2-8.7-4-15c-0.9-2.8-1.6-4.7-4-11c-1.3-3.5-3.4-9-6-16
				c5.7-0.7,11.3-1.3,17-2c0.7,3.9,1.4,7.5,2,11c1.2,7.2,1.2,7.9,2,10c1.6,4.2,3,5.1,5,10C930.1,498.8,930.7,501.2,931.1,502.8z"/>
			<path class="st10" d="M893.9,433.8c-6.9-6.3-15-9.7-20.8-8c-8.7,2.4-11.9,15.6-4.5,30.4c0.4-6.5,1.8-11,3-13.8
				c1.6-3.9,2.7-6.4,5.5-6.6c3.9-0.2,8.3,4.3,9.1,5.2c2,2.1,1.9,2.7,6.2,9.4c4,6.2,4.3,5.9,6.2,9.4c2.3,4.1,2.3,5.3,4.4,8.3
				c2,3,4.2,5.2,5.7,6.5c2.8-2.2,5.6-4.5,8.5-6.7c-4.2-6.7-8.7-13.7-13.7-20.9C900.2,442.4,897,438,893.9,433.8z"/>
			<path class="st10" d="M871.3,461.6c-5,4.6-8.1,10.1-7.4,14.2c1,6.1,10.2,8.7,21.3,4c-4.6-0.4-7.7-1.6-9.6-2.5
				c-2.6-1.2-4.3-2.1-4.2-4c0.2-2.7,3.8-5.6,4.5-6.2c1.6-1.3,2.1-1.2,7.2-4c4.7-2.6,4.5-2.8,7.2-4c3.1-1.5,4-1.5,6.3-2.8
				c2.3-1.3,4-2.8,5.1-3.8c-1.4-2-2.7-4.1-4.1-6.1c-5.1,2.7-10.4,5.7-16,8.9C877.9,457.5,874.5,459.6,871.3,461.6z"/>
			<path class="st10" d="M910.3,461.6l6.1,7.1c2.6-2.2,5.5-4.9,8.4-8.4c2.3-2.7,4.1-5.2,5.6-7.5c-1.4-1.6-2.8-3.2-4.3-4.7
				c-2.4,1.5-4.1,3-5.2,4.1c-2.4,2.4-2.6,3.5-4.4,4.3c-2.4,1.1-4,0-5.3,1.3C910.2,458.8,910.2,460.3,910.3,461.6z"/>
			<path class="st10" d="M924.8,437.6c-2.6-2.4-6.2-3.5-9.4-2.4c-4.7,1.5-8.2,7.5-6.5,13.6c1.1-2.9,2.4-4.9,3.4-6.2
				c1.4-1.8,2.3-3,3.7-3.2c2-0.3,3.6,1.5,3.9,1.8c0.7,0.8,0.6,1.1,1.8,3.8c1.2,2.5,1.3,2.4,1.8,3.8c0.6,1.7,0.4,2.2,1,3.4
				c0.6,1.2,1.4,2.1,2,2.5c1.7-1.1,3.5-2.2,5.2-3.4c-1.2-2.7-2.5-5.5-4-8.5C926.8,441.1,925.8,439.3,924.8,437.6z"/>
			<rect x="938" y="461" class="st10" width="16" height="50"/>
			<path class="st10" d="M948,461c-3.3,0-6.7,0-10,0c-0.9-8.2-0.6-15.1,0-20c0.2-1.5,0.7-5.6,2-11c1.5-6.2,3.4-11.2,5-15
				c2.7,1.3,5.3,2.7,8,4c-0.9,1.6-2,4-3,7c-1.5,4.7-1.8,8.5-2,12C947.5,446.8,947.7,455,948,461z"/>
			<path class="st10" d="M948,438"/>
			<path class="st10" d="M953,419h-9c0.4-3.6,0.6-8.9-1-15c-0.8-3.2-1.9-5.8-3-8c2.3-0.3,4.7-0.7,7-1c2,2.6,3.3,5.1,4,7
				c1.4,3.6,1.8,6.7,2,9C953.3,414.1,953.2,416.8,953,419z"/>
			<path class="st10" d="M943.4,398.6c-1.5-0.8-3.7-1.8-6.4-2.6c-1.4-0.4-2.5-0.8-4-1c-1.8-0.3-5.8-0.8-9,1c-3.6,2.1-3.4,5.4-6,6
				c-2.1,0.4-4.2-1.2-6-3c4-3.3,8-6.7,12-10c2-0.6,7-1.7,13,0c5.2,1.5,8.5,4.5,10,6C945.8,396.2,944.6,397.4,943.4,398.6z"/>
			<path class="st10" d="M915.8,421h-1.7c-1.7,0-3.2-1.2-3.2-2.8v-17.5c0-1.5,1.4-2.8,3.2-2.8h1.7c1.7,0,3.2,1.2,3.2,2.8
				c-0.8,2.8-1.5,6.7-1.1,11.2c0.2,2.4,0.6,4.5,1.1,6.2c-0.4,0.2-0.8,0.5-1.1,0.8C917,419.7,916.3,420.4,915.8,421z"/>
			<path class="st10" d="M929,411L929,411c0,0-0.8,5.1-3,9c-0.8,1.4-2,3.2-4,5c-1,0.2-4.1,0.7-7-1c-2.5-1.5-4.8-4.6-4-6
				c0.7-1.2,3.6-1.2,7,0c4-4,8-8,12-12C929.7,407.7,929.3,409.3,929,411z"/>
			<path class="st10" d="M954,470c-1.9-2.2-3.7-4.3-5.6-6.5c4.5-5.3,7-10.1,8.6-13.5c3.4-7.5,3.3-11.9,7-20c2.4-5.4,5.1-9.5,7-12
				c2.3,2.3,4.7,4.7,7,7c-2.3,2.7-4.5,6-6,10c-2.6,7-0.9,10-4,16c-1.5,2.9-2.2,2.8-7,9C957.9,464.1,955.5,467.6,954,470z"/>
			<path class="st10" d="M994.5,416.9c-0.7,0.8-1.9,2-3.5,3.1c-3.2,2.2-5.9,2.6-10,3.9c-2,0.6-4.8,1.6-8.2,3.2
				c-1.2-2.5-2.4-5-3.5-7.5c1.8-1.1,3.9-2.3,6.3-3.5c3-1.4,5.5-2.1,8-2.9c2-0.6,4.4-1.3,7.1-1.9C991.9,413.1,993.2,415,994.5,416.9z
				"/>
			<path class="st10" d="M1005.2,429.4c1.9,4.1,2,8.6,0,11.5c-3,4.3-10.5,4.8-16.8-0.3c3.4,0.4,6.1,0,7.8-0.3
				c2.4-0.5,3.9-0.9,4.5-2.3c0.9-2-0.6-4.7-0.9-5.2c-0.7-1.2-1-1.2-3.6-4c-2.4-2.6-2.2-2.7-3.6-4c-1.7-1.5-2.3-1.7-3.5-3
				c-1.2-1.3-1.8-2.6-2.2-3.5c1.7-1.3,3.4-2.5,5.2-3.8c2.7,2.7,5.4,5.7,8.2,8.9C1002,425.4,1003.7,427.4,1005.2,429.4z"/>
			<path class="st10" d="M988.9,412.7c2,1.8,4.1,3.5,6.1,5.3c0.2-1.5,1-6.2,5-10c2.6-2.5,5.5-3.6,7-4c-1.1-1.6-2.1-3.1-3.2-4.7
				c-1.9,0.5-5.4,1.7-8.8,4.7C991.3,407.2,989.6,410.8,988.9,412.7z"/>
			<path class="st10" d="M955,508c3,2.6,6,5.3,9.1,7.9c4.9-4.4,9.8-8.8,14.7-13.2c-1.8-1.3-3.6-2.7-5.4-4
				C967.2,501.8,961.1,504.9,955,508z"/>
			<path class="st10" d="M972,500c1.6,1.2,3.1,2.5,4.7,3.7c6.4-2.9,12.9-5.8,19.3-8.7c-2.5-2.1-4.9-4.2-7.4-6.4
				C983.1,492.4,977.5,496.2,972,500z"/>
			<path class="st10" d="M989,489c2,2.3,4,4.7,6,7c1.9-3.1,4.3-6.7,7.5-10.3c4-4.6,8.1-8.1,11.5-10.7c-0.7-2-1.3-4-2-6
				c-3.4,1.5-8.3,4-13.2,8.3C994.1,481.5,990.9,485.8,989,489z"/>
			<path class="st10" d="M1029,504c8.2-9.3,7.3-21.7,1-27c-6-5.1-15.2-2.2-16-2c-0.7-2-1.3-4-2-6c1.3-0.7,3.4-1.6,6-2
				c7.4-1.1,13.2,2.8,15,4c2.5,1.7,7.3,4.9,9,11c1.8,6.4-1.1,11.7-4,17c-1.5,2.8-2.9,4.4-5,5C1031.4,504.5,1029.9,504.2,1029,504z"
				/>
			<path class="st10" d="M984,528c0.3-0.5,3,1.3,8,2c2.7,0.4,4.3,0.6,6,0c4-1.5,6.4-7.1,6-12c-0.4-5.6-4.4-9.5-8-11
				c-1.5-0.6-2.7-0.7-6-1c-3.5-0.3-8.2-0.7-14-1c1.1-1.5,2.7-3.3,5-5c5.2-3.7,10.7-4,13-4c5.4,2.2,9,5.1,11,7
				c2.8,2.7,4.1,4.9,4.4,5.4c0.6,1.1,2.2,4,2.6,7.6c0.4,4.2-1.1,10.7-6,15c-3.3,2.9-6.8,3.8-8,4c-3,0.6-5.5,0.3-7,0
				C984.8,529.9,983.7,528.4,984,528z"/>
			<path class="st10" d="M1006.8,404c-1.3-1.7-2.5-3.3-3.8-5c0.7,0.1,8,0.8,11.3-4c1.2-1.8,1.7-4.1,1.9-5c0.6-3,0.3-5.5,0-7l0,0
				c0.9,1.4,2.2,3.8,2.8,7c0.3,1.5,0.9,4.5,0,7C1017.6,401.1,1012.7,403.8,1006.8,404z"/>
		</g>
		<g>
			<path class="st11" d="M932.7,546c0.5,6.1,0.4,6.6,0,7c-1.6,1.4-6.7-1.1-8.6-5c-0.7-1.5-0.9-2.9-1-4c-0.2-2.1-0.4-4.7,1-6
				c1.8-1.6,5.9-0.5,7.6,2C932.2,540.7,932.3,541.3,932.7,546z"/>
			<path class="st11" d="M909.3,545.7c-0.9,6.1-0.9,6.6-0.5,7c1.5,1.5,6.7-0.6,8.9-4.4c0.8-1.4,1.1-2.9,1.2-3.9
				c0.3-2.1,0.8-4.7-0.5-6.1c-1.7-1.8-5.9-0.9-7.7,1.5C910.1,540.5,910,541,909.3,545.7z"/>
			<path class="st11" d="M923,556.5c0,0.8-0.4,2.1-1.5,2.5c-1,0.3-2.1-0.2-2.5-1c-0.8-1.5,1.2-4.2,2.5-4
				C922.3,554.1,923,555.4,923,556.5z"/>
			<path class="st11" d="M926,572c0.2,2,0.3,4.8,0,13c-0.3,6.1-0.5,8.2-2,9c-1.1,0.6-2.3,0.2-3,0c-3.8-1.1-5.3-5.6-6-7.7
				c-1-3-1-5.6-1-7.3c0.1-3.3,0.1-7.5,3-11c1.7-2.1,4.9-4.9,7-4C924.5,564.2,925.4,564.8,926,572z"/>
		</g>
	</g>
</g>
<g>
	
		<image style="overflow:visible;opacity:0.75;" width="115" height="71" xlink:href="12E9DDB.png"  transform="matrix(1 0 0 1 1027 401)">
	</image>
	<g>
		<g>
			<path class="st12" d="M1062,417.7c0.9-1.1,1.6-1.1,2.1,0l-0.3,3.6h19.6c0.9,0.7,0.9,1.3,0,2h-19.9l-0.7,4h14.3
				c3,0,4.4,1.4,4.2,4.3v21.2c0.2,2.9-3.4,3.5-10.8,2c-0.9-1.3-0.6-2,1-2c5.4,1.3,7.9,1,7.7-1v-20.2c0.2-1.5-0.6-2.3-2.4-2.3h-25.8
				c-1.6,0-2.4,0.8-2.4,2.3v24.2c-0.7,0.9-1.4,0.9-2.1,0v-23.8c0-3.1,1.4-4.6,4.2-4.6h10.1l0.7-4h-17.1c-0.9-0.7-0.9-1.3,0-2h17.5
				L1062,417.7z M1050.8,436.5h16.1c1.2-2.2,2.1-4.1,2.8-5.6c1.2-0.9,1.9-0.7,2.1,0.7c-0.7,1.5-1.5,3.2-2.4,5h6.6
				c1.2,0.7,1.2,1.3,0,2h-11.5v6h12.6c0.9,0.7,0.9,1.3,0,2h-12.6v8.9c-0.7,1.1-1.4,1.1-2.1,0v-8.9h-11.5c-1.2-0.7-1.2-1.3,0-2h11.5
				v-6h-11.5C1049.9,437.8,1049.9,437.2,1050.8,436.5z M1054.7,431.9c-0.2-1.3,0.3-1.8,1.7-1.3c1.2,1.3,2.1,2.8,2.8,4.3
				c0,1.3-0.6,1.7-1.7,1C1056.5,434.3,1055.6,433,1054.7,431.9z"/>
			<path class="st12" d="M1094.9,418.7h27.2c3,0,4.4,1.4,4.2,4.3v29.1c0.2,2.6-1.3,3.9-4.5,3.6h-26.5c-2.8,0.2-4.2-0.9-4.2-3.3
				v-29.8C1091,420,1092.3,418.7,1094.9,418.7z M1113,420.6v4h4.5c-0.2-0.9-0.6-1.8-1-2.6c0.2-0.9,0.8-1.1,1.7-0.7
				c0.7,1.1,1.2,2.2,1.4,3.3h2.4c0.9,0.7,0.9,1.3,0,2h-9.1c0.9,6.8,1.9,11.5,2.8,13.9c1.9-3.7,3.1-7.4,3.8-10.9
				c0.9-0.9,1.6-0.8,2.1,0.3c-0.9,4.2-2.6,8.5-4.9,12.9c0.9,2,1.7,3.6,2.4,5c0.9,1.8,1.4,0.2,1.4-4.6c0.7-0.9,1.4-0.9,2.1,0
				c0.2,7.3-1,9.8-3.8,7.6c-1.2-1.1-2.3-3.1-3.5-6c-1.2,1.8-3.3,4.1-6.3,6.9c-1.2,0.4-1.7,0-1.7-1.3c3-2.6,5.4-5.2,7-7.6
				c-1.4-3.1-2.6-8.5-3.5-16.2h-15.4c-0.9-0.7-0.9-1.3,0-2h15.4v-4h-15.7c-1.4,0-2.1,0.7-2.1,2v29.5c0,1.3,0.8,1.9,2.4,1.7h25.8
				c2.1,0.2,3-0.4,2.8-2V423c0.2-1.5-0.6-2.3-2.4-2.3H1113z M1109.6,443.8c1.6,0.2,1.9,0.9,0.7,2c-3.7,2.2-8.5,4.1-14.3,5.6
				c-1.2,0-1.4-0.7-0.7-2C1100.8,447.9,1105.6,446,1109.6,443.8z M1100.1,429.2h5.6c2.8,0,4.1,1.3,3.8,4v6.6
				c0.2,2.4-1.2,3.5-4.2,3.3h-4.5c-3,0.4-4.5-0.8-4.5-3.6v-6.3C1096.3,430.6,1097.6,429.2,1100.1,429.2z M1105,431.2h-4.2
				c-1.6,0-2.4,0.8-2.4,2.3v5.6c0,1.5,0.8,2.2,2.4,2h4.2c1.9,0.2,2.7-0.4,2.4-2v-5.3C1107.7,432.1,1106.9,431.2,1105,431.2z"/>
		</g>
	</g>
</g>
</svg>
