<?xml version="1.0" encoding="utf-8"?>
<!-- Generator: Adobe Illustrator 23.0.5, SVG Export Plug-In . SVG Version: 6.00 Build 0)  -->
<svg version="1.1" id="圖層_1" xmlns="http://www.w3.org/2000/svg" xmlns:xlink="http://www.w3.org/1999/xlink" x="0px" y="0px"
	 viewBox="0 0 1920 1080" style="enable-background:new 0 0 1920 1080;" xml:space="preserve">
<style type="text/css">
	.st0{fill:#23C124;}
	.st1{fill:#019204;}
	.st2{fill:#69C8EC;}
	.st3{fill:#01B7E0;}
	.st4{fill:#8ACDAD;}
	.st5{fill:#FFFFFF;}
	.st6{fill:#FFFFFF;stroke:#FFFFFF;stroke-miterlimit:10;}
</style>
<g>
	<g>
		<g>
			<path class="st0" d="M1158.6,629.7c-87.2,9-174.4,17.9-261.6,26.9c19.2-41.6,33.1-74.6,42.6-97.7c3.4-8.3,10.3-22.4,24.1-50.6
				c11.7-23.8,19.2-38.3,35.4-48.7c7.4-4.8,14.5-7.3,19.8-8.8c0.9-0.3,1.9-0.4,2.9-0.3c6.5,0.2,15.9,1.2,26.2,5.3
				c6.2,2.5,19.8,8.9,42.8,37c8.9,10.9,15,20.3,26.9,38.5c29.7,45.7,34.5,59.9,37.1,70.7C1157.6,613.4,1158.4,623.2,1158.6,629.7z"
				/>
			
				<ellipse transform="matrix(0.844 -0.5364 0.5364 0.844 -107.6616 633.9645)" class="st1" cx="1035.9" cy="502" rx="4.4" ry="10.2"/>
			
				<ellipse transform="matrix(0.844 -0.5364 0.5364 0.844 -102.1567 641.6776)" class="st1" cx="1051.9" cy="496.4" rx="4.4" ry="6.9"/>
			
				<ellipse transform="matrix(0.844 -0.5364 0.5364 0.844 -112.9302 653.8272)" class="st1" cx="1067.4" cy="521" rx="4.4" ry="6.9"/>
			
				<ellipse transform="matrix(0.844 -0.5364 0.5364 0.844 -123.3934 665.2503)" class="st1" cx="1081.8" cy="544.7" rx="4.4" ry="6.9"/>
			
				<ellipse transform="matrix(0.844 -0.5364 0.5364 0.844 -133.8566 676.6735)" class="st1" cx="1096.2" cy="568.4" rx="4.4" ry="6.9"/>
			
				<ellipse transform="matrix(0.844 -0.5364 0.5364 0.844 -106.6984 660.3548)" class="st1" cx="1081.7" cy="513.6" rx="4.4" ry="6.9"/>
			
				<ellipse transform="matrix(0.844 -0.5364 0.5364 0.844 -116.1248 671.3618)" class="st1" cx="1095.9" cy="535.3" rx="4.4" ry="6.9"/>
			
				<ellipse transform="matrix(0.844 -0.5364 0.5364 0.844 -125.5512 682.3687)" class="st1" cx="1110.1" cy="557" rx="4.4" ry="6.9"/>
			
				<ellipse transform="matrix(0.844 -0.5364 0.5364 0.844 -118.7193 645.6932)" class="st1" cx="1050.5" cy="526.9" rx="3.5" ry="5.5"/>
			
				<ellipse transform="matrix(0.844 -0.5364 0.5364 0.844 -95.9249 648.2052)" class="st1" cx="1066.2" cy="489" rx="4.4" ry="6.9"/>
		</g>
		<g>
			<g>
				<path class="st2" d="M1173.1,665.5c-5.7,2.9-15,7.1-27,9.8c-21.3,4.8-38.7,2.4-51.2,0.5c-76.4-11.4-85.8-18.5-115.2-15.1
					c-24.1,2.8-40.2,10.2-45.6,12.8c-15.6,7.5-26,16.5-32.1,22.6c-6-22.6-11.9-45.2-17.9-67.7c18.4-8.8,33.9-14.5,45-18.1
					c11.1-3.7,18.3-5.4,22.4-6.3c4.2-0.9,14-3,26.9-4.2c9.8-0.9,25.6-2.5,43.5,0c9.5,1.3,6,1.8,48.7,13.5c8.2,2.2,17.2,4.6,29.8,5.7
					c9,0.7,16.2,0.5,20,0.3c8.8-0.5,22.4-2.1,38.5-7.5C1163.6,629.6,1168.3,647.5,1173.1,665.5z"/>
				<path class="st3" d="M1000.5,630.3c-0.1,1.2-11.7,1.3-30.7,4.5c-18.2,3-29.2,6.6-29.7,5.5c-0.4-0.9,5.7-3.7,10.2-5.4
					c3.4-1.3,6.1-1.9,15.4-3.5c16.3-2.8,19.4-2.9,21-2.9C992.9,628.5,1000.6,629.3,1000.5,630.3z"/>
				<path class="st3" d="M1010.8,607.2c0.2,1.1-25.7,5.9-61.9,16.3c-35.9,10.3-60.2,19.9-60.8,18.9c-0.4-0.7,11.2-6.1,21.2-10.1
					c2-0.8,3.4-1.3,4.4-1.7c32.7-12,30.7-11.5,33.8-12.4c3.7-1,14.1-3.2,34.7-7.4c0.6-0.1,0.9-0.2,1.2-0.2
					C996.8,608,1010.6,606.5,1010.8,607.2z"/>
				<path class="st3" d="M1082.7,626.1c-0.7,1.3-19.3-1.2-51-2c-30.4-0.8-49.6,0.6-49.8-0.7c-0.1-1,10.9-2.7,19-3.5
					c6.1-0.6,10.7-0.6,26.2-0.3c27.4,0.6,32.2,1.2,34.8,1.5C1071.5,622.5,1083.3,625.1,1082.7,626.1z"/>
				<path class="st3" d="M1021.9,649.4c-0.1,1.2-11.7,1.3-30.7,4.5c-18.2,3-29.2,6.6-29.7,5.5c-0.4-0.9,5.7-3.7,10.2-5.4
					c3.4-1.3,6.1-1.9,15.4-3.5c16.3-2.8,19.4-2.9,21-2.9C1014.2,647.6,1021.9,648.4,1021.9,649.4z"/>
				<path class="st3" d="M970.2,645.5c0.1,1.1-14.4,5.7-37.6,15.8c-22.2,9.7-35.2,17.1-36.1,16.3c-0.6-0.6,6.3-5.5,11.7-8.7
					c4.1-2.4,7.3-4,18.6-9c19.9-8.8,23.7-10,25.7-10.7C960.2,646.8,970,644.6,970.2,645.5z"/>
				<path class="st3" d="M1104.1,649.2c-0.5,0.9-17.5-10.3-46.1-12.4c-28-2-49.7,6.1-49.7,5.2c-0.1-0.9,24.2-11.6,51.4-9.5
					C1087,634.6,1104.6,648.3,1104.1,649.2z"/>
				<path class="st3" d="M1098.7,627.3c0.5-0.9,9.5,9.2,27.8,9.7c18,0.5,33.7-8.4,33.6-7.5c-0.1,0.9-18,12.4-35.5,11.7
					C1107.1,640.6,1098.1,628.2,1098.7,627.3z"/>
				<path class="st3" d="M1158,656.5c-0.3-0.9-16.5,9.3-40.9,9.8c-23.9,0.5-40.9-8.6-41.1-7.7c-0.2,0.9,18.5,12.6,41.9,12.1
					C1141.2,670,1158.3,657.4,1158,656.5z"/>
			</g>
			<g>
				<path class="st4" d="M1061.5,655.4c-0.4,7.5-11.1,14.2-11.8,14c-0.5-0.1,2.8-3.2,4.3-8.3c0.1-0.4,0.7-2.5,0.6-4.9
					c-0.1-7.7-6.4-12-5.5-12.4C1050.3,643.3,1061.9,647.4,1061.5,655.4z"/>
				<path class="st4" d="M1065.2,663.7c-4.8,5.2-16,6-16.4,5.7c-0.3-0.2,3.9-1.2,8-4.3c0.3-0.3,2-1.5,3.4-3.2
					c4.6-5.5,3.1-10.8,4-10.7C1065.1,651.1,1070.3,658.2,1065.2,663.7z"/>
				<path class="st4" d="M1041.1,663.4c0.4,5.2,10.7,6.3,11.4,5.9c0.4-0.2-2.8-1.3-4.2-4.5c-0.1-0.3-0.7-1.5-0.6-3.2
					c0.1-5.6,6.1-10.7,5.3-10.7C1052,650.9,1040.7,657.9,1041.1,663.4z"/>
				<path class="st4" d="M1074.2,659.5c-0.6,1-2.7,4.5-8.5,6.8c-4.3,1.7-9.8,2.5-10.3,1.7c-0.6-1,7.9-3.2,13.9-8.9
					c3.7-3.6,4.2-6.4,5.2-6.4C1075.5,652.7,1076.2,656.1,1074.2,659.5z"/>
			</g>
			<g>
				<path class="st4" d="M921.4,654.5c5.5,10.2,1.5,24.8,0.8,25c-0.5,0.1,0-5.8-2.8-13.5c-0.2-0.6-1.3-3.7-3.2-6.8
					c-6.1-10.3-14.9-12.7-14.4-13.7C902.3,644.3,915.5,643.6,921.4,654.5z"/>
				<path class="st4" d="M931.1,663.6c-0.1,9.5-9.1,16.6-9.7,16.3c-0.4-0.2,2.4-3.7,3.5-10.1c0.1-0.5,0.5-3,0.4-6.1
					c-0.3-9.8-5.7-16.1-5-16.5C921.2,646.8,931.2,653.5,931.1,663.6z"/>
				<path class="st4" d="M910.1,676.1c4.4,6.8,14.2,2.7,14.5,1.9c0.2-0.5-3.4-0.3-7.1-3.8c-0.3-0.3-1.8-1.7-3.1-4
					c-4.2-7.5-3.1-17.6-3.8-17.2C909.7,653.6,905.4,668.9,910.1,676.1z"/>
				<path class="st4" d="M935.5,653.2c0.3,1.6,1.2,7.4-2,13.7c-2.4,4.6-6.6,8.5-7.6,7.8c-1.3-1,4.4-8.4,5.1-19.2
					c0.4-6.8-1.4-10.7-0.5-11.3C931.5,643.4,934.6,647.6,935.5,653.2z"/>
			</g>
			<g>
				<path class="st4" d="M1152.5,648.9c5.5,10.2,1.5,24.8,0.8,25c-0.5,0.1,0-5.8-2.8-13.5c-0.2-0.6-1.3-3.7-3.2-6.8
					c-6.1-10.3-14.9-12.7-14.4-13.7C1133.3,638.7,1146.6,638,1152.5,648.9z"/>
				<path class="st4" d="M1162.1,658c-0.1,9.5-9.1,16.6-9.7,16.3c-0.4-0.2,2.4-3.7,3.5-10.1c0.1-0.5,0.5-3,0.4-6.1
					c-0.3-9.8-5.7-16.1-5-16.5C1152.2,641.2,1162.2,647.9,1162.1,658z"/>
				<path class="st4" d="M1141.1,670.5c4.4,6.8,14.2,2.7,14.5,1.9c0.2-0.5-3.4-0.3-7.1-3.8c-0.3-0.3-1.8-1.7-3.1-4
					c-4.2-7.5-3.1-17.6-3.8-17.2C1140.7,648,1136.4,663.2,1141.1,670.5z"/>
				<path class="st4" d="M1166.5,647.6c0.3,1.6,1.2,7.4-2,13.7c-2.4,4.6-6.6,8.5-7.6,7.8c-1.3-1,4.4-8.4,5.1-19.2
					c0.4-6.8-1.4-10.7-0.5-11.3C1162.5,637.8,1165.6,642,1166.5,647.6z"/>
			</g>
			<path class="st4" d="M1162.6,668.9c-3.7,3.2-8.9,4.7-9.4,4c-0.3-0.4,1.7-1.7,6.3-6c5.8-5.3,7.2-7.4,7.8-7.2
				C1168.3,660,1167,665.2,1162.6,668.9z"/>
			<g>
				<path class="st4" d="M904.8,608.1c1.4,7.6-3.2,15-4.3,14.9c-0.8-0.1,0.6-4.3-0.1-12.6c-0.6-7.7-2.4-11.6-1.5-11.9
					C899.9,598.1,903.8,602.5,904.8,608.1z"/>
				<path class="st4" d="M898.5,609.2c2.7,4.3,3,6.2,2.9,7.9c-0.2,3-1.9,6.2-3.4,6.3c-0.9,0-1.7-1.6-3.2-4.8c-0.9-2-1.2-2.8-2.3-5.6
					c-1.8-4.6-2.1-4.6-2.4-6.2c-0.5-2.2-0.9-6.4,0.5-6.9C892.5,599.3,896.6,606.1,898.5,609.2z"/>
				<path class="st4" d="M911.5,610.2c-2.7,7.6-10.5,13.1-11.4,12.6c-0.7-0.4,2.7-3.9,6.4-11.9c3.4-7.4,3.8-11.7,4.7-11.7
					C912.2,599.2,913.4,604.7,911.5,610.2z"/>
			</g>
			<g>
				<path class="st4" d="M1103.4,606.1c1.4,7.6-3.2,15-4.3,14.9c-0.8-0.1,0.6-4.3-0.1-12.6c-0.6-7.7-2.4-11.6-1.5-11.9
					C1098.4,596.2,1102.4,600.6,1103.4,606.1z"/>
				<path class="st4" d="M1097,607.2c2.7,4.3,3,6.2,2.9,7.9c-0.2,3-1.9,6.2-3.4,6.3c-0.9,0-1.7-1.6-3.2-4.8c-0.9-2-1.2-2.8-2.3-5.6
					c-1.8-4.6-2.1-4.6-2.4-6.2c-0.5-2.2-0.9-6.4,0.5-6.9C1091,597.4,1095.2,604.1,1097,607.2z"/>
				<path class="st4" d="M1110,608.3c-2.7,7.6-10.5,13.1-11.4,12.6c-0.7-0.4,2.7-3.9,6.4-11.9c3.4-7.4,3.8-11.7,4.7-11.7
					C1110.8,597.3,1112,602.7,1110,608.3z"/>
			</g>
		</g>
		<path class="st5" d="M1039.7,511.4c-0.2-15-15.8-27.2-35-27.2c-3.9,0-7.7,0.5-11.2,1.4c-5.3-13.1-18.1-22.3-33.1-22.3
			c-19.7,0-35.8,16-35.8,35.9c0,4.3,0.7,8.4,2.1,12.1L1039.7,511.4z"/>
	</g>
	<g>
		
			<image style="overflow:visible;opacity:0.75;" width="207" height="72" xlink:href="754B466D.png"  transform="matrix(1 0 0 1 911 383)">
		</image>
		<g>
			<g>
				<path class="st6" d="M928.1,411.3c2.3,1.3,5,3.3,8,6c0.5,1.3,0,1.9-1.4,1.7c-3-2.4-5.7-4.4-8-6
					C926.3,411.6,926.7,411.1,928.1,411.3z M933.4,422.2c0.9-1.1,1.6-1,2.1,0.3c-1.9,6.4-4.1,11.5-6.6,15.2c-1.4,0.4-2,0-1.7-1.3
					C929.9,432.1,932,427.3,933.4,422.2z M929.9,400.4c2.6,1.8,5.1,4,7.7,6.6c0.5,1.1,0,1.5-1.4,1.3c-2.8-2.4-5.4-4.5-7.7-6.3
					C928,400.7,928.5,400.2,929.9,400.4z M937.5,413.3h30.4c0.9,0.7,0.9,1.3,0,2h-15.7l-1,4.6h11.2c3,0,4.3,1.1,3.8,3.3v10.9
					c0.2,3.3-0.9,4.9-3.5,4.6c-1.6-0.2-2.9-0.7-3.8-1.3c-0.5-1.1-0.1-1.7,1-1.7c3.3,1.5,4.7,1,4.2-1.7v-10.3c0.2-1.3-0.5-2-2.1-2
					h-4.2v15.9c-0.7,0.9-1.4,0.9-2.1,0v-15.9h-6.3v15.9c-0.7,0.9-1.4,0.9-2.1,0v-15.9h-4.2c-1.4,0-2.1,0.7-2.1,2v13.9
					c-0.7,0.9-1.4,0.9-2.1,0v-14.6c0-2.2,1.2-3.3,3.5-3.3h6.6l1-4.6h-12.6C936.6,414.6,936.6,414,937.5,413.3z M953.6,400.1v8.6h8.4
					c1.6,0.2,2.3-0.4,2.1-2v-4.6c0.7-0.9,1.4-0.9,2.1,0v5.3c0.2,2.4-0.9,3.5-3.5,3.3h-19.6c-2.3,0.2-3.5-0.9-3.5-3.3v-6
					c0.7-0.9,1.4-0.9,2.1,0v5.3c0,1.5,0.7,2.2,2.1,2h7.7v-8.6C952.2,399.2,952.9,399.2,953.6,400.1z"/>
				<path class="st6" d="M984.4,401.7H997c3.3,0,4.4,1.1,3.5,3.3c-0.9,1.3-2,2.4-3.1,3.3h7.7c2.8,0,4.1,1.5,3.8,4.6v7.3
					c0.2,2.4-1.2,3.5-4.2,3.3h-27.2c-1.2-0.7-1.2-1.3,0-2h26.9c1.9,0.2,2.7-0.4,2.4-2v-2.6h-27.6c-1.2-0.7-1.2-1.3,0-2h27.6v-1.7
					c0.2-2-0.5-3-2.1-3h-26.2c-0.9-0.7-0.9-1.3,0-2h15.7c1.4-0.9,2.6-1.9,3.5-3c0.9-1.1,0.6-1.7-1-1.7H983c-2.1,2.2-5.1,4.5-9.1,6.9
					c-1.4,0.4-1.9-0.1-1.4-1.7c4.2-2.4,7.8-5.5,10.8-9.3c1.6-0.7,2.3-0.4,2.1,0.7L984.4,401.7z M976.4,425.5
					c0.9-0.9,1.6-0.8,2.1,0.3c-0.5,4-1.5,7.8-3.1,11.6c-1.2,0.7-1.9,0.4-2.1-0.7C974.8,433,975.9,429.3,976.4,425.5z M982.6,426.2
					c0.7-0.9,1.4-0.9,2.1,0v7.9c0,1.5,0.8,2.2,2.4,2h11.9c1.9,0.2,2.7-2,2.4-6.6c0.7-1.1,1.4-1.1,2.1,0c0.2,6.2-1.3,9-4.5,8.6h-12.6
					c-2.6,0.2-3.8-1-3.8-3.6V426.2z M995.6,433.8c-0.5,1.1-1.2,1.2-2.1,0.3c-0.7-2.4-1.7-5.3-3.1-8.6c0.2-1.3,0.9-1.5,2.1-0.7
					C993.8,428.2,994.9,431.2,995.6,433.8z M1005.3,426.5c0.2-1.3,0.9-1.5,2.1-0.7c2.1,3.3,4,6.7,5.6,10.3c0,1.3-0.6,1.7-1.7,1
					C1009.4,433.6,1007.4,430.1,1005.3,426.5z"/>
				<path class="st6" d="M1018,411c3,2.6,5.5,5,7.3,6.9c0.5,1.5,0,2.1-1.4,1.7c-2.1-2.2-4.5-4.5-7.3-6.9
					C1016.1,411.5,1016.6,411,1018,411z M1028.1,422.2c-2.6,6-5.7,11.1-9.4,15.6c-1.2,0.7-1.7,0.3-1.7-1c4.4-6,7.4-11,9.1-15.2
					C1027.2,420.7,1027.9,420.9,1028.1,422.2z M1019,399.7c3.3,2.4,5.9,4.7,8,6.9c0.2,1.1-0.2,1.7-1.4,1.7c-2.8-2.6-5.5-5-8-6.9
					C1017.4,400.3,1017.8,399.7,1019,399.7z M1057.4,401.1c0.9,0.7,0.9,1.3,0,2h-4.2v31.1c0.2,2.4-1.4,3.7-4.9,4
					c-2.6,0-5.1-0.3-7.7-1c-0.9-0.9-0.8-1.5,0.3-2c7,1.8,10.4,1.2,10.1-1.7V403H1027c-0.9-0.4-0.9-1.1,0-2H1057.4z M1033.7,409h8.4
					c2.8,0,4.1,1.2,3.8,3.6v13.2c0.2,2.6-1,3.9-3.8,3.6h-8.4c-2.6,0.2-3.8-1-3.8-3.6v-13.2C1029.8,410.2,1031.1,409,1033.7,409z
					 M1041.7,411h-7.7c-1.4,0-2.1,0.7-2.1,2v12.6c0,1.5,0.7,2.2,2.1,2h7.3c1.9,0.2,2.7-0.4,2.4-2V413
					C1044,411.6,1043.3,411,1041.7,411z"/>
				<path class="st6" d="M1062,414.3h4.2c2.6,0,3.7,1.1,3.5,3.3v12.2c4,4.4,9.1,6.5,15.4,6.3h16.1c1.2,0.7,1.2,1.3,0,2h-16.1
					c-7,0-12.5-2.1-16.4-6.3c-0.7,1.8-2.4,3.6-5.2,5.6c-1.4,0.2-1.9-0.3-1.4-1.7c2.8-1.8,4.7-3.9,5.6-6.3v-11.3c0.2-1.3-0.5-2-2.1-2
					h-3.5C1060.8,415.6,1060.8,415,1062,414.3z M1064.5,401.1c2.3,2.4,4.2,4.6,5.6,6.6c0.2,1.3-0.3,1.8-1.7,1.3
					c-1.4-2-3.3-4.2-5.6-6.6C1062.5,401.3,1063.1,400.8,1064.5,401.1z M1077.7,401.1c-0.2-1.3,0.3-1.8,1.7-1.3
					c1.6,1.5,2.8,3.1,3.5,4.6h7.3c0.9-1.5,1.6-3.1,2.1-4.6c0.9-0.7,1.6-0.4,2.1,0.7c-0.5,1.5-1.2,2.9-2.1,4h8c1.4,0.7,1.4,1.3,0,2
					h-14l-0.7,4h9.1c2.6,0,3.7,1.1,3.5,3.3v14.6c0.2,2.4-0.9,3.5-3.5,3.3h-16.8c-2.3,0.2-3.5-0.9-3.5-3.3V414c0-2.4,1.2-3.6,3.5-3.6
					h5.6l0.7-4h-11.9c-1.2-0.7-1.2-1.3,0-2h8C1079.8,403.3,1078.9,402.2,1077.7,401.1z M1094.1,412.3h-15.4c-1.4,0-2.1,0.7-2.1,2v2
					h19.6v-2C1096.5,413,1095.8,412.3,1094.1,412.3z M1096.2,418.3h-19.6v4.6h19.6V418.3z M1096.2,424.9h-19.6v2.6
					c0,1.5,0.7,2.2,2.1,2h15.4c1.6,0.2,2.3-0.4,2.1-2V424.9z"/>
			</g>
		</g>
	</g>
</g>
</svg>
