<?xml version="1.0" encoding="utf-8"?>
<!-- Generator: Adobe Illustrator 23.0.5, SVG Export Plug-In . SVG Version: 6.00 Build 0)  -->
<svg version="1.1" id="圖層_1" xmlns="http://www.w3.org/2000/svg" xmlns:xlink="http://www.w3.org/1999/xlink" x="0px" y="0px"
	 viewBox="0 0 1920 1080" style="enable-background:new 0 0 1920 1080;" xml:space="preserve">
<style type="text/css">
	.st0{fill:#401A5B;stroke:#000000;stroke-width:0.25;stroke-miterlimit:10;}
	.st1{fill:#FD870C;stroke:#000000;stroke-width:0.25;stroke-miterlimit:10;}
	.st2{fill:#FFFFFF;stroke:#FFFFFF;stroke-miterlimit:10;}
</style>
<g>
	<g>
		<path class="st0" d="M1139.8,625c-7,3.5-14.1,7.1-21.1,10.6c0.2,0.1,0.4,0.3,0.6,0.5c-0.6-0.3-1.2-0.5-1.9-0.8v-37.6
			c7.3,0.3,14.6,0.6,21.9,0.9c-12.9-17.9-25.7-35.7-38.6-53.6v-14.4h-21.4v-5.4h6.8l-15.1-13.9l-15.1,13.9h6.8v5.4h-16.7v-28.2h1.6
			c-3-4.5-5.9-8.9-8.9-13.4c-2.3,3.5-4.5,7-6.8,10.5v-20.8c4.7,0,9.4,0,14.1,0c-5.3-4.8-11-10.6-16.7-17.4
			c-5.7-6.9-10.1-13.4-13.6-19.2c-2.2,5.4-5.8,12.6-12,20.1c-6.1,7.5-12.6,12.9-17.7,16.6c4.2,0,8.3,0,12.5,0v51.9
			c-17-4.2-34.1-8.4-51.1-12.5c-0.1,4.2-0.1,8.3-0.2,12.5c0.1,0,0.1,0,0.2,0v20.7c-9,17.1-18.1,34.2-27.1,51.3c9-0.2,18-0.4,27-0.6
			c0-2.4,0.1-4.9,0.1-7.3v20.4c-5.5,7.1-12.3,15.1-20.9,23.3c-8.9,8.5-17.7,15.5-25.5,21c4.3,0,8.7,0.1,13,0.1v41h33.4h153.3h16.7
			V671h21.9c0.1-2.9,0.5-6.4,1.6-10.3c1.6-5.7,4.1-10.2,6.3-13.4c3.6,0.3,7,0.3,9.9,0C1151.3,639.9,1145.5,632.4,1139.8,625z"/>
		<path class="st1" d="M1045.4,701H1010v-48c0-9.8,7.9-17.7,17.7-17.7l0,0c9.8,0,17.7,7.9,17.7,17.7V701z"/>
		<g>
			<path class="st1" d="M969.6,617.8L969.6,617.8c-1.6,0-2.9-1.3-2.9-2.9v-15.3c0-1.6,1.3-2.9,2.9-2.9l0,0c1.6,0,2.9,1.3,2.9,2.9
				v15.3C972.4,616.5,971.1,617.8,969.6,617.8z"/>
			<path class="st1" d="M980,617.8L980,617.8c-1.6,0-2.9-1.3-2.9-2.9v-15.3c0-1.6,1.3-2.9,2.9-2.9l0,0c1.6,0,2.9,1.3,2.9,2.9v15.3
				C982.9,616.5,981.6,617.8,980,617.8z"/>
			<path class="st1" d="M990.4,617.8L990.4,617.8c-1.6,0-2.9-1.3-2.9-2.9v-15.3c0-1.6,1.3-2.9,2.9-2.9l0,0c1.6,0,2.9,1.3,2.9,2.9
				v15.3C993.3,616.5,992,617.8,990.4,617.8z"/>
		</g>
		<g>
			<path class="st1" d="M1066,617.8L1066,617.8c-1.6,0-2.9-1.3-2.9-2.9v-15.3c0-1.6,1.3-2.9,2.9-2.9l0,0c1.6,0,2.9,1.3,2.9,2.9v15.3
				C1068.9,616.5,1067.6,617.8,1066,617.8z"/>
			<path class="st1" d="M1076.4,617.8L1076.4,617.8c-1.6,0-2.9-1.3-2.9-2.9v-15.3c0-1.6,1.3-2.9,2.9-2.9l0,0c1.6,0,2.9,1.3,2.9,2.9
				v15.3C1079.3,616.5,1078,617.8,1076.4,617.8z"/>
			<path class="st1" d="M1086.9,617.8L1086.9,617.8c-1.6,0-2.9-1.3-2.9-2.9v-15.3c0-1.6,1.3-2.9,2.9-2.9l0,0c1.6,0,2.9,1.3,2.9,2.9
				v15.3C1089.7,616.5,1088.5,617.8,1086.9,617.8z"/>
		</g>
		<path class="st1" d="M987,665.2h-35.5v-7.8c0-9.8,7.9-17.7,17.7-17.7h0c9.8,0,17.7,7.9,17.7,17.7V665.2z"/>
		<path class="st1" d="M970.3,574.9L970.3,574.9c-1.7,0-3.1-1.4-3.1-3.1v-16.1c0-1.7,1.4-3.1,3.1-3.1l0,0c1.7,0,3.1,1.4,3.1,3.1
			v16.1C973.5,573.4,972.1,574.9,970.3,574.9z"/>
		<path class="st1" d="M928.1,681.8L928.1,681.8c-1.7,0-3.1-1.4-3.1-3.1v-16.1c0-1.7,1.4-3.1,3.1-3.1l0,0c1.7,0,3.1,1.4,3.1,3.1
			v16.1C931.2,680.4,929.8,681.8,928.1,681.8z"/>
		<path class="st1" d="M1129,667.6l-6-1.5c-1.6-0.4-2.6-1.9-2.1-3.3l5.7-16.3c0.5-1.4,2.2-2.2,3.9-1.8l6,1.5
			c1.6,0.4,2.6,1.9,2.1,3.3l-5.7,16.3C1132.4,667.2,1130.7,668.1,1129,667.6z"/>
		<path class="st1" d="M1071,529.7L1071,529.7c-1.7,0-3.1-1.4-3.1-3.1v-2.2c0-1.7,1.4-3.1,3.1-3.1l0,0c1.7,0,3.1,1.4,3.1,3.1v2.2
			C1074.1,528.3,1072.7,529.7,1071,529.7z"/>
		<path class="st1" d="M1038.6,525.6L1038.6,525.6c-1.7,0-3.1-1.4-3.1-3.1v-16.1c0-1.7,1.4-3.1,3.1-3.1l0,0c1.7,0,3.1,1.4,3.1,3.1
			v16.1C1041.8,524.2,1040.4,525.6,1038.6,525.6z"/>
		<path class="st1" d="M1025.6,506.4h-19.8v-18.3c0-5.5,4.4-9.9,9.9-9.9h0c5.5,0,9.9,4.4,9.9,9.9V506.4z"/>
	</g>
	<g>
		
			<image style="overflow:visible;opacity:0.75;" width="208" height="71" xlink:href="2F599AB4.png"  transform="matrix(1 0 0 1 932 378)">
		</image>
		<g>
			<g>
				<path class="st2" d="M964.7,395.9c1.2-0.9,1.9-0.7,2.1,0.7c-0.9,2.9-1.9,5.4-2.8,7.6h24.8c0.9,0.7,0.9,1.3,0,2h-7.7
					c-1.2,6.8-3.7,12.8-7.7,17.9c5.8,2.6,10.6,5.2,14.3,7.6c0.5,1.3,0,1.9-1.4,1.7c-3.5-2.2-8.3-4.7-14.3-7.6
					c-5.1,4.2-12.2,6.7-21.3,7.6c-1.2-0.4-1.3-1.1-0.3-2c7.4-0.7,14-2.9,19.6-6.6c-4-1.8-7.9-3.4-11.9-5c-1.6-0.7-2-2.1-1-4.3
					c1.4-2.9,2.8-6,4.2-9.3h-12.2c-0.9-0.7-0.9-1.3,0-2h12.6C962.9,401.3,964,398.5,964.7,395.9z M979,406.2h-15.7
					c-1.2,3.1-2.6,6.3-4.2,9.6c-0.5,0.9-0.3,1.7,0.3,2.3c3.7,1.5,7.7,3.2,11.9,5C975.3,418.2,977.8,412.6,979,406.2z"/>
				<path class="st2" d="M995.1,397.2h37c0.7,0.7,0.7,1.3,0,2h-17.5V431h19.6c0.9,0.7,0.9,1.3,0,2h-41.6c-0.7-0.7-0.7-1.3,0-2h19.9
					v-31.8h-17.5C994.4,398.5,994.4,397.9,995.1,397.2z M1004.5,401.9c-0.5,3.8-0.9,6.7-1.4,8.9c3,5.1,5.5,10.7,7.3,16.9
					c-0.5,1.3-1.2,1.5-2.1,0.7c-0.9-3.7-2.9-8.7-5.9-14.9c-2.3,7.5-4.8,12.7-7.3,15.6c-0.9,0.4-1.5,0.1-1.7-1
					c5.4-7.5,8.4-16.2,9.1-26.1C1003.1,401,1003.8,401,1004.5,401.9z M1025.8,402.5c0,1.3-0.2,3.6-0.7,6.9c3,5.3,5.7,11.7,8,19.2
					c-0.5,1.3-1.2,1.5-2.1,0.7c-1.6-5.7-3.8-11.4-6.6-16.9c-1.4,6-3.7,11.7-7,17.2c-0.9,0.4-1.5,0.1-1.7-1c5.4-9.3,8-18,8-26.1
					C1024.4,401.6,1025.1,401.6,1025.8,402.5z"/>
				<path class="st2" d="M1040.2,403.5h31.4c3.5,0,4.5,1.2,3.1,3.6c-5.4,7.5-14,14-25.8,19.5c4,2.9,8.1,4.2,12.6,4h16.4
					c0.9,0.7,0.9,1.3,0,2h-16.4c-4.4,0.4-9.2-1.1-14.3-4.6c-1.9-1.1-4.3,0.2-7.3,4c-1.2,0.2-1.6-0.2-1.4-1.3c2.3-3.3,5-5,8-5
					c11.6-5.1,20.3-11.4,25.8-18.9c0.9-0.9,0.3-1.3-1.7-1.3h-30.4C1039.3,404.8,1039.3,404.2,1040.2,403.5z M1055.9,394.6
					c1.6,2.6,2.9,5.1,3.8,7.3c-0.2,1.1-0.9,1.3-2.1,0.7c-0.9-2.2-2.2-4.5-3.8-6.9C1053.8,394.2,1054.5,393.9,1055.9,394.6z"/>
				<path class="st2" d="M1091.2,395.9c1.2-0.9,1.9-0.7,2.1,0.7c-0.7,2-1.6,4-2.8,6v17.5c-0.7,1.1-1.4,1.1-2.1,0v-14.6
					c-1.2,2-2.4,3.5-3.8,4.6c-1.4,0.7-1.9,0.2-1.4-1.3C1086.9,404.8,1089.6,400.5,1091.2,395.9z M1105.2,420.1v4h14.7
					c0.9,0.7,0.9,1.3,0,2h-14.7v5.3h18.2c0.9,0.7,0.9,1.3,0,2h-37.7c-0.9-0.4-0.9-1.1,0-2h17.5V426h-14c-0.9-0.7-0.9-1.3,0-2h14v-4
					C1103.8,419,1104.5,419,1105.2,420.1z M1100.3,396.2h14.7c3.5,0,5.1,1.1,4.9,3.3v2.3c0.2,2.9-1.4,4.2-4.9,4h-5.9v2.3h13.6
					c1.2,0.7,1.2,1.3,0,2h-12.6c3.7,4,8.1,6.8,13.3,8.6c0.9,1.1,0.7,1.8-0.7,2c-5.4-1.8-9.9-4.7-13.6-8.9v8.3
					c-0.7,1.3-1.4,1.3-2.1,0v-7.9c-4.9,4.4-9.3,7.3-13.3,8.6c-1.4-0.2-1.6-0.9-0.7-2c4.2-1.5,8.5-4.4,12.9-8.6H1094
					c-0.9-0.7-0.9-1.3,0-2h12.9v-2.3h-6.6c-2.8,0.2-4.2-1.1-4.2-4v-1.7C1096.1,397.6,1097.5,396.2,1100.3,396.2z M1114.3,398.2H1101
					c-1.9,0-2.8,0.8-2.8,2.3v0.7c0,2,0.9,2.9,2.8,2.6h13.3c2.6,0.2,3.7-0.7,3.5-2.6v-0.7C1118,399,1116.8,398.2,1114.3,398.2z"/>
			</g>
		</g>
	</g>
</g>
</svg>
