<?xml version="1.0" encoding="utf-8"?>
<!-- Generator: Adobe Illustrator 23.0.5, SVG Export Plug-In . SVG Version: 6.00 Build 0)  -->
<svg version="1.1" id="圖層_1" xmlns="http://www.w3.org/2000/svg" xmlns:xlink="http://www.w3.org/1999/xlink" x="0px" y="0px"
	 viewBox="0 0 1920 1080" style="enable-background:new 0 0 1920 1080;" xml:space="preserve">
<style type="text/css">
	.st0{fill:#BDF984;}
	.st1{fill:#99AE5E;}
	.st2{fill:#7F9049;}
	.st3{fill:#70BAFC;}
	.st4{fill:#59D3EF;}
	.st5{fill:#34A8D0;}
	.st6{fill:#FFFFFF;}
	.st7{fill:#758F52;}
	.st8{fill:#5C9261;}
	.st9{fill:#A9DCA7;}
	.st10{fill:#4CB101;}
	.st11{fill:#EF326B;}
	.st12{fill:#F0FE8D;}
	.st13{fill:#EFFE8B;}
	.st14{fill:#FCCE02;}
	.st15{fill:#73A486;}
	.st16{fill:#6C9C82;}
	.st17{fill:#FE5C84;}
	.st18{fill:#DEDD3B;}
	.st19{fill:#A0F9A6;stroke:#424441;stroke-width:0.75;stroke-miterlimit:10;}
	.st20{fill:#BEBEBF;stroke:#424441;stroke-width:0.75;stroke-miterlimit:10;}
	.st21{fill:#52CC52;stroke:#424441;stroke-width:0.75;stroke-miterlimit:10;}
	.st22{fill:#B1B1B1;stroke:#424441;stroke-width:0.75;stroke-miterlimit:10;}
	.st23{fill:#60E863;stroke:#424441;stroke-width:0.75;stroke-miterlimit:10;}
	.st24{fill:#967D2C;}
	.st25{fill:#3D9E15;}
</style>
<g>
	<rect x="0" y="17" class="st0" width="1920" height="1079"/>
</g>
<g>
	<path class="st1" d="M635.9,579.9c-76-13.6-110.9,1.4-128.7,18.2c-9.6,9-19.3,23.4-43.9,42.8c-11.3,9-25.2,19.6-44.5,28.7
		c-35.8,16.8-51.9,7.3-80.5,21.2c-13.5,6.6-31.6,19.3-48.1,46.5c6.5,14.3,13,28.5,19.5,42.8c15.3-27.2,32.7-40,45.8-46.7
		c32.8-16.6,51.3-1.2,93-19.5c24-10.5,43.1-25.5,52-33.3c16.1-14.2,20-22.4,41.9-41.2c16.8-14.5,25.2-21.8,35.8-26
		c8.1-3.3,34.9-12.1,77.2,9.4C648.9,608.4,642.4,594.2,635.9,579.9z"/>
	<ellipse transform="matrix(0.9829 -0.1841 0.1841 0.9829 -124.1558 74.6102)" class="st2" cx="339.7" cy="705.8" rx="8.5" ry="4"/>
	<ellipse transform="matrix(0.9829 -0.1841 0.1841 0.9829 -123.8307 84.517)" class="st2" cx="393.2" cy="709" rx="8.5" ry="4"/>
	<ellipse transform="matrix(0.9829 -0.1841 0.1841 0.9829 -117.6612 90.642)" class="st2" cx="429.2" cy="678.9" rx="8.5" ry="4"/>
	<ellipse transform="matrix(0.9829 -0.1841 0.1841 0.9829 -118.0717 98.6433)" class="st2" cx="472.1" cy="685.1" rx="8.5" ry="4"/>
	
		<ellipse transform="matrix(0.9829 -0.1841 0.1841 0.9829 -109.5153 106.3952)" class="st2" cx="518.1" cy="642.9" rx="8.5" ry="4"/>
	<ellipse transform="matrix(0.9829 -0.1841 0.1841 0.9829 -111.4917 96.767)" class="st2" cx="465.3" cy="648.7" rx="8.5" ry="4"/>
</g>
<g>
	<path class="st1" d="M1088.6,792.7c-16.6-5.3-40.6-14.8-65.7-32.8c-40-28.7-36.5-45.8-70-68.5c-46.6-31.5-67.1-7.8-108.6-40.8
		c-29.3-23.3-26.7-41.3-56.8-59.7c-27.4-16.8-57-18.7-78-17.6c10-17.3,20-34.5,29.9-51.8c20-2,49.9-1.8,77.3,14.6
		c33.7,20.1,28.2,43.3,62.4,67.1c37,25.8,56,7.5,98,36.9c21.6,15.1,21.5,23.4,44.6,44.8c19.4,18,49.9,40.3,96.9,55.9
		C1108.6,758.2,1098.6,775.4,1088.6,792.7z"/>
	
		<ellipse transform="matrix(0.1217 -0.9926 0.9926 0.1217 124.3559 1308.4237)" class="st2" cx="801.5" cy="583.9" rx="4" ry="8.5"/>
	<ellipse transform="matrix(0.1217 -0.9926 0.9926 0.1217 154.944 1364.598)" class="st2" cx="848.5" cy="594.7" rx="4" ry="8.5"/>
	<ellipse transform="matrix(0.1217 -0.9926 0.9926 0.1217 127.3701 1389.9946)" class="st2" cx="849.1" cy="623" rx="4" ry="8.5"/>
	
		<ellipse transform="matrix(0.1217 -0.9926 0.9926 0.1217 178.0977 1466.0985)" class="st2" cx="917.5" cy="632.4" rx="4" ry="8.5"/>
	
		<ellipse transform="matrix(0.1217 -0.9926 0.9926 0.1217 180.0165 1522.6862)" class="st2" cx="950.4" cy="659.6" rx="4" ry="8.5"/>
	
		<ellipse transform="matrix(0.1217 -0.9926 0.9926 0.1217 136.2512 1445.0115)" class="st2" cx="884.6" cy="645.5" rx="4" ry="8.5"/>
	
		<ellipse transform="matrix(0.1217 -0.9926 0.9926 0.1217 179.2722 1573.0626)" class="st2" cx="978.5" cy="685.2" rx="4" ry="8.5"/>
</g>
<g>
	<path class="st1" d="M1453,546.9c-19.2,16.5-45.1,34.2-78.3,46.3c-35.3,12.9-46.7,7.6-69.2,22.4c-32.9,21.5-24.8,43.2-58.9,70.1
		c-27.7,21.9-42,14.5-71.2,33.2c-19.9,12.7-44.8,36.3-62.6,84.3c-13-16.5-26-33-39.1-49.4c18.1-41.1,41.2-63.6,58.3-76.4
		c31.5-23.5,47.8-17.9,79.5-44.4c35.9-30,27.1-47.3,56.9-64.4c31.6-18.2,51-4,90.2-19.6c30-12,49.8-32.7,61.6-47.8
		C1431.2,516.3,1442.1,531.6,1453,546.9z"/>
	
		<ellipse transform="matrix(8.321191e-02 -0.9965 0.9965 8.321191e-02 461.4731 1802.6917)" class="st2" cx="1210.5" cy="650.5" rx="4.6" ry="9.9"/>
	
		<ellipse transform="matrix(8.321191e-02 -0.9965 0.9965 8.321191e-02 448.5657 1846.475)" class="st2" cx="1227.8" cy="679.4" rx="4.6" ry="9.9"/>
	
		<ellipse transform="matrix(8.321191e-02 -0.9965 0.9965 8.321191e-02 508.2837 1840.426)" class="st2" cx="1254.4" cy="644" rx="4.6" ry="9.9"/>
	
		<ellipse transform="matrix(8.321191e-02 -0.9965 0.9965 8.321191e-02 543.7566 1813.1672)" class="st2" cx="1257.3" cy="611.1" rx="4.6" ry="9.9"/>
	
		<ellipse transform="matrix(8.321191e-02 -0.9965 0.9965 8.321191e-02 596.1721 1850.5787)" class="st2" cx="1303.9" cy="601.3" rx="4.6" ry="9.9"/>
	
		<ellipse transform="matrix(8.321191e-02 -0.9965 0.9965 8.321191e-02 625.0725 1822.3943)" class="st2" cx="1303" cy="571.5" rx="4.6" ry="9.9"/>
	
		<ellipse transform="matrix(8.321191e-02 -0.9965 0.9965 8.321191e-02 658.1176 1882.6591)" class="st2" cx="1352.3" cy="583.6" rx="4.6" ry="9.9"/>
</g>
<path class="st1" d="M1777.9,387c-11.3-2.3-27.4-4.2-44.9-0.8c-4.6,0.9-24.3,5.1-46.3,23.3c-30.3,25.1-24.5,43.5-49.5,55.4
	c-19.4,9.3-23.2-1.7-48,6.8c-33.3,11.5-28.6,32-58.3,39.9c-29.3,7.8-38.4-11-57.2,2.2c-9.7,6.8-20.3,21-36.9,43.2
	c-2.3,3-4.1,5.6-5.4,7.3c-10.5-20.5-20.9-40.9-31.4-61.4c15.2-32.7,34-43.3,48.4-46.8c23.1-5.7,33.8,6.9,59.3-0.5
	c25.2-7.3,21.2-21.4,50.1-33.1c25-10.1,32.3-1.2,52.8-10.8c24-11.2,28.8-30.4,43.4-48.5c14.6-18.1,41-37.5,92.4-37.6
	C1757,346.1,1767.4,366.6,1777.9,387z"/>
<ellipse class="st2" cx="1455.5" cy="489.5" rx="9.5" ry="4.5"/>
<ellipse class="st2" cx="1521.5" cy="500.5" rx="9.5" ry="4.5"/>
<ellipse class="st2" cx="1557.5" cy="461.5" rx="9.5" ry="4.5"/>
<ellipse class="st2" cx="1602.5" cy="451.5" rx="9.5" ry="4.5"/>
<ellipse class="st3" cx="1014.5" cy="987" rx="146.5" ry="90"/>
<path class="st4" d="M1920-16H0c0,85.9,0,171.7,0,257.6c36.7-12.9,90-30.1,157.3-46.6c99.8-24.4,293.3-64.8,547-56.5
	c489.9,16,717.4,195.6,857.7,61.1c45-43.2,66.8-105,137-118.9c94.4-18.7,220,60.5,220,60.5c0,0,0.3,3,1,8.7V-16z"/>
<ellipse transform="matrix(0.9823 -0.1871 0.1871 0.9823 -140.5101 50.7277)" class="st2" cx="198.5" cy="769.9" rx="8.4" ry="4"/>
<ellipse transform="matrix(0.9823 -0.1871 0.1871 0.9823 -142.5232 41.0499)" class="st2" cx="146.2" cy="775.7" rx="8.4" ry="4"/>
<path class="st1" d="M315.1,706.9c-75.2-13.6-109.8,1.4-127.4,18.2c-9.5,9-19.1,23.4-43.4,42.8c-11.2,9-24.9,19.6-44,28.7
	c-35.5,16.8-51.4,7.3-79.6,21.2c-6.1,3-13.2,7.3-20.6,13.7v63.1c13-18.9,26.8-28.7,37.6-34.2c32.4-16.6,50.8-1.2,92-19.5
	c23.8-10.5,42.7-25.5,51.5-33.3c16-14.2,19.8-22.4,41.4-41.2c16.6-14.5,25-21.8,35.4-26c8-3.3,34.5-12.1,76.4,9.4
	C328,735.4,321.5,721.2,315.1,706.9z"/>
<ellipse transform="matrix(0.9823 -0.1871 0.1871 0.9823 -156.0154 18.291)" class="st2" cx="18.9" cy="835.8" rx="8.4" ry="4"/>
<ellipse transform="matrix(0.9823 -0.1871 0.1871 0.9823 -155.6797 28.253)" class="st2" cx="71.9" cy="839" rx="8.4" ry="4"/>
<ellipse transform="matrix(0.9823 -0.1871 0.1871 0.9823 -149.4085 34.3973)" class="st2" cx="107.6" cy="808.9" rx="8.4" ry="4"/>
<ellipse transform="matrix(0.9823 -0.1871 0.1871 0.9823 -149.8214 42.4449)" class="st2" cx="150" cy="815.1" rx="8.4" ry="4"/>
<g>
	<path class="st5" d="M607.6,77.8c-0.4-0.7-4.4-7-11.6-7.4c-6.4-0.4-10.6,4.2-11.3,5c0.1-1,0.2-2.1,0.3-3.1c0.9-1,4.4-4.9,9.9-5.1
		c7.9-0.4,12.6,7,12.9,7.6C607.8,75.8,607.7,76.8,607.6,77.8z"/>
	<path class="st5" d="M629,68.5c-0.7-0.4-6.7-4.1-13.3-0.7c-5.9,3-7.8,9.2-8.1,10.2c-0.3-1-0.7-1.9-1-2.9c0.4-1.3,2-6.6,6.8-9.7
		c6.9-4.4,14-0.2,14.5,0.2C628.3,66.6,628.7,67.5,629,68.5z"/>
</g>
<g>
	<path class="st5" d="M107.6,177.8c-0.4-0.7-4.4-7-11.6-7.4c-6.4-0.4-10.6,4.2-11.3,5c0.1-1,0.2-2.1,0.3-3.1c0.9-1,4.4-4.9,9.9-5.1
		c7.9-0.4,12.6,7,12.9,7.6C107.8,175.8,107.7,176.8,107.6,177.8z"/>
	<path class="st5" d="M129,168.5c-0.7-0.4-6.7-4.1-13.3-0.7c-5.9,3-7.8,9.2-8.1,10.2c-0.3-1-0.7-1.9-1-2.9c0.4-1.3,2-6.6,6.8-9.7
		c6.9-4.4,14-0.2,14.5,0.2C128.3,166.6,128.7,167.5,129,168.5z"/>
</g>
<g>
	<path class="st5" d="M454.6,134.8c-0.4-0.7-4.4-7-11.6-7.4c-6.4-0.4-10.6,4.2-11.3,5c0.1-1,0.2-2.1,0.3-3.1c0.9-1,4.4-4.9,9.9-5.1
		c7.9-0.4,12.6,7,12.9,7.6C454.8,132.8,454.7,133.8,454.6,134.8z"/>
	<path class="st5" d="M476,125.5c-0.7-0.4-6.7-4.1-13.3-0.7c-5.9,3-7.8,9.2-8.1,10.2c-0.3-1-0.7-1.9-1-2.9c0.4-1.3,2-6.6,6.8-9.7
		c6.9-4.4,14-0.2,14.5,0.2C475.3,123.6,475.7,124.5,476,125.5z"/>
</g>
<g>
	<path class="st5" d="M1096.6,109.8c-0.4-0.7-4.4-7-11.6-7.4c-6.4-0.4-10.6,4.2-11.3,5c0.1-1,0.2-2.1,0.3-3.1c0.9-1,4.4-4.9,9.9-5.1
		c7.9-0.4,12.6,7,12.9,7.6C1096.8,107.8,1096.7,108.8,1096.6,109.8z"/>
	<path class="st5" d="M1118,100.5c-0.7-0.4-6.7-4.1-13.3-0.7c-5.9,3-7.8,9.2-8.1,10.2c-0.3-1-0.7-1.9-1-2.9c0.4-1.3,2-6.6,6.8-9.7
		c6.9-4.4,14-0.2,14.5,0.2C1117.3,98.6,1117.7,99.5,1118,100.5z"/>
</g>
<path class="st6" d="M387.3,112c3-3.5,4.7-7.4,4.7-11.5c0-13.4-17.9-24.4-40.6-25.4C340.8,58.1,313.3,46,281,46
	c-35.9,0-65.8,14.9-73.2,34.9C204,80.3,200.1,80,196,80c-24.3,0-44,11.2-44,25c0,2.4,0.6,4.8,1.8,7H387.3z"/>
<path class="st6" d="M1526,193c-0.4-26-31.6-47-70-47c-7.8,0-15.3,0.9-22.3,2.5c-10.7-22.6-36.3-38.5-66.2-38.5
	c-39.5,0-71.5,27.8-71.5,62c0,7.4,1.5,14.4,4.2,21H1526z"/>
<path class="st6" d="M744,131.5c0.4-23,28.9-41.4,64-41.3c7.1,0,14,0.8,20.4,2.2c9.8-19.9,33.2-33.9,60.5-33.8
	c36,0.1,65.2,24.7,65.1,54.9c0,6.5-1.4,12.8-3.9,18.5L744,131.5z"/>
<g>
	<rect x="381.9" y="625.4" class="st7" width="6.2" height="35.6"/>
	<path class="st8" d="M401.9,605.9c3-2,4.9-4.5,4.9-7.2c0-4.7-5.3-8.7-13-10.5c4.1-1.6,6.8-4.3,6.8-7.3c0-4.9-7-8.9-15.6-8.9
		s-15.6,4-15.6,8.9c0,3,2.7,5.7,6.8,7.3c-7.6,1.8-13,5.8-13,10.5c0,2.7,1.8,5.2,4.9,7.2c-6.7,3-11.1,7.8-11.1,13.1
		c0,9.1,12.5,16.5,28,16.5c15.5,0,28-7.4,28-16.5C413,613.7,408.6,608.9,401.9,605.9z"/>
</g>
<g>
	<path class="st6" d="M473.1,738.9c2.1-0.3,4.6-0.5,7.6-0.5c3.3,0,6.2,0.2,8.4,0.6c0-1.3,0-2.7,0-4c-2.2-0.2-4.9-0.4-7.8-0.4
		c-3.1,0-5.9,0.1-8.2,0.4C473.1,736.3,473.1,737.6,473.1,738.9z"/>
	<path class="st6" d="M456.1,738.9c2.1-0.3,4.6-0.5,7.6-0.5c3.3,0,6.2,0.2,8.4,0.6c0-1.3,0-2.7,0-4c-2.2-0.2-4.9-0.4-7.8-0.4
		c-3.1,0-5.9,0.1-8.2,0.4C456.1,736.3,456.1,737.6,456.1,738.9z"/>
	<g>
		<ellipse class="st9" cx="478.5" cy="793" rx="103.5" ry="48"/>
		<path class="st6" d="M380.6,778h-1.3c-1.9,0-3.4-1.5-3.4-3.4v-20.3c0-1.9,1.5-3.4,3.4-3.4h1.3c1.9,0,3.4,1.5,3.4,3.4v20.3
			C384,776.5,382.5,778,380.6,778z"/>
		<path class="st6" d="M392.6,771h-1.3c-1.9,0-3.4-1.5-3.4-3.4v-20.3c0-1.9,1.5-3.4,3.4-3.4h1.3c1.9,0,3.4,1.5,3.4,3.4v20.3
			C396,769.5,394.5,771,392.6,771z"/>
		<path class="st6" d="M408.6,762h-1.3c-1.9,0-3.4-1.5-3.4-3.4v-20.3c0-1.9,1.5-3.4,3.4-3.4h1.3c1.9,0,3.4,1.5,3.4,3.4v20.3
			C412,760.5,410.5,762,408.6,762z"/>
		<path class="st6" d="M423.6,755h-1.3c-1.9,0-3.4-1.5-3.4-3.4v-20.3c0-1.9,1.5-3.4,3.4-3.4h1.3c1.9,0,3.4,1.5,3.4,3.4v20.3
			C427,753.5,425.5,755,423.6,755z"/>
		<path class="st6" d="M439.6,753h-1.3c-1.9,0-3.4-1.5-3.4-3.4v-20.3c0-1.9,1.5-3.4,3.4-3.4h1.3c1.9,0,3.4,1.5,3.4,3.4v20.3
			C443,751.5,441.5,753,439.6,753z"/>
		<path class="st6" d="M456.6,751h-1.3c-1.9,0-3.4-1.5-3.4-3.4v-20.3c0-1.9,1.5-3.4,3.4-3.4h1.3c1.9,0,3.4,1.5,3.4,3.4v20.3
			C460,749.5,458.5,751,456.6,751z"/>
		<path class="st6" d="M473.6,750h-1.3c-1.9,0-3.4-1.5-3.4-3.4v-20.3c0-1.9,1.5-3.4,3.4-3.4h1.3c1.9,0,3.4,1.5,3.4,3.4v20.3
			C477,748.5,475.5,750,473.6,750z"/>
		<path class="st6" d="M491.6,751h-1.3c-1.9,0-3.4-1.5-3.4-3.4v-20.3c0-1.9,1.5-3.4,3.4-3.4h1.3c1.9,0,3.4,1.5,3.4,3.4v20.3
			C495,749.5,493.5,751,491.6,751z"/>
		<path class="st6" d="M507.6,754h-1.3c-1.9,0-3.4-1.5-3.4-3.4v-20.3c0-1.9,1.5-3.4,3.4-3.4h1.3c1.9,0,3.4,1.5,3.4,3.4v20.3
			C511,752.5,509.5,754,507.6,754z"/>
		<path class="st6" d="M524.6,758h-1.3c-1.9,0-3.4-1.5-3.4-3.4v-20.3c0-1.9,1.5-3.4,3.4-3.4h1.3c1.9,0,3.4,1.5,3.4,3.4v20.3
			C528,756.5,526.5,758,524.6,758z"/>
		<path class="st6" d="M539.6,763h-1.3c-1.9,0-3.4-1.5-3.4-3.4v-20.3c0-1.9,1.5-3.4,3.4-3.4h1.3c1.9,0,3.4,1.5,3.4,3.4v20.3
			C543,761.5,541.5,763,539.6,763z"/>
		<path class="st6" d="M554.6,768h-1.3c-1.9,0-3.4-1.5-3.4-3.4v-20.3c0-1.9,1.5-3.4,3.4-3.4h1.3c1.9,0,3.4,1.5,3.4,3.4v20.3
			C558,766.5,556.5,768,554.6,768z"/>
		<path class="st6" d="M568.6,772h-1.3c-1.9,0-3.4-1.5-3.4-3.4v-20.3c0-1.9,1.5-3.4,3.4-3.4h1.3c1.9,0,3.4,1.5,3.4,3.4v20.3
			C572,770.5,570.5,772,568.6,772z"/>
		<path class="st6" d="M490.6,843h-1.3c-1.9,0-3.4-1.5-3.4-3.4v-20.3c0-1.9,1.5-3.4,3.4-3.4h1.3c1.9,0,3.4,1.5,3.4,3.4v20.3
			C494,841.5,492.5,843,490.6,843z"/>
		<path class="st6" d="M578.6,784h-1.3c-1.9,0-3.4-1.5-3.4-3.4v-16.3c0-1.9,1.5-3.4,3.4-3.4h1.3c1.9,0,3.4,1.5,3.4,3.4v16.3
			C582,782.5,580.5,784,578.6,784z"/>
		<path class="st6" d="M574.2,775.3c1.6,1.4,3.5,3.1,5.5,5.3c2.2,2.4,3.9,4.7,5.2,6.6c1-0.9,2-1.8,3-2.7c-1.3-1.8-3-3.9-4.9-6
			c-2.1-2.3-4-4.3-5.8-5.9C576.2,773.5,575.2,774.4,574.2,775.3z"/>
		<path class="st6" d="M565.5,762.4c1.8,1.1,3.9,2.5,6.2,4.4c2.6,2.1,4.6,4.1,6.2,5.7c0.8-1,1.7-2.1,2.5-3.1
			c-1.6-1.6-3.5-3.4-5.8-5.2c-2.4-2-4.7-3.6-6.7-4.9C567.2,760.4,566.4,761.4,565.5,762.4z"/>
		<path class="st6" d="M552.1,753.7c1.9,0.8,4.3,1.8,6.9,3.3c2.9,1.6,5.2,3.2,7.1,4.6c0.7-1.2,1.3-2.3,2-3.5c-1.8-1.3-4-2.7-6.5-4.2
			c-2.7-1.5-5.2-2.8-7.4-3.7C553.4,751.4,552.8,752.6,552.1,753.7z"/>
		<path class="st6" d="M536.9,748.5c2.1,0.4,4.6,0.9,7.4,1.8c3.2,1,5.8,2.1,7.9,3c0.4-1.3,0.8-2.5,1.2-3.8c-2.1-0.9-4.5-1.8-7.3-2.7
			c-3-0.9-5.7-1.6-8-2.1C537.7,745.9,537.3,747.2,536.9,748.5z"/>
		<path class="st6" d="M521.9,744.5c2.1,0.4,4.6,0.9,7.4,1.8c3.2,1,5.8,2.1,7.9,3c0.4-1.3,0.8-2.5,1.2-3.8c-2.1-0.9-4.5-1.8-7.3-2.7
			c-3-0.9-5.7-1.6-8-2.1C522.7,741.9,522.3,743.2,521.9,744.5z"/>
		<path class="st6" d="M506.9,741.6c2.1,0.1,4.7,0.3,7.6,0.8c3.3,0.5,6,1.3,8.2,2c0.2-1.3,0.5-2.6,0.7-3.9c-2.2-0.6-4.7-1.2-7.6-1.7
			c-3.1-0.5-5.8-0.8-8.2-1C507.3,738.9,507.1,740.3,506.9,741.6z"/>
		<path class="st6" d="M490.9,739c2.1,0,4.7,0,7.6,0.3c3.3,0.4,6.1,0.9,8.3,1.5c0.2-1.3,0.3-2.6,0.5-4c-2.2-0.5-4.8-0.9-7.7-1.3
			c-3.1-0.4-5.9-0.5-8.2-0.5C491.3,736.4,491.1,737.7,490.9,739z"/>
		<path class="st6" d="M439.1,739.9c2.1-0.3,4.6-0.5,7.6-0.5c3.3,0,6.2,0.2,8.4,0.6c0-1.3,0-2.7,0-4c-2.2-0.2-4.9-0.4-7.8-0.4
			c-3.1,0-5.9,0.1-8.2,0.4C439.1,737.3,439.1,738.6,439.1,739.9z"/>
		<path class="st6" d="M421.7,743.5c2-0.7,4.5-1.4,7.3-2c3.2-0.7,6.1-1,8.4-1.1c-0.3-1.3-0.5-2.6-0.8-3.9c-2.2,0.2-4.8,0.6-7.7,1.1
			c-3,0.6-5.7,1.3-8,2C421.2,740.9,421.5,742.2,421.7,743.5z"/>
		<path class="st6" d="M408.1,750.2c1.9-0.9,4.3-1.9,7.1-2.7c3.2-1,6-1.6,8.2-2c-0.4-1.3-0.8-2.5-1.2-3.8c-2.2,0.4-4.8,1.1-7.5,1.9
			c-3,0.9-5.6,1.9-7.8,2.8C407.4,747.7,407.8,748.9,408.1,750.2z"/>
		<path class="st6" d="M391.9,760.3c1.7-1.2,3.9-2.5,6.6-3.8c3-1.5,5.6-2.5,7.8-3.2c-0.6-1.2-1.2-2.4-1.8-3.6
			c-2.1,0.8-4.5,1.8-7.1,3.1c-2.8,1.4-5.2,2.7-7.2,4C390.8,757.9,391.4,759.1,391.9,760.3z"/>
		<path class="st6" d="M381.8,769.1c1.6-1.4,3.5-3,6-4.7c2.7-1.9,5.2-3.3,7.3-4.3c-0.7-1.1-1.5-2.2-2.2-3.3c-2,1.1-4.2,2.4-6.6,4
			c-2.6,1.7-4.8,3.4-6.6,5C380.3,766.9,381,768,381.8,769.1z"/>
		<path class="st6" d="M378.2,786.1c0.3-2.1,0.7-4.6,1.4-7.5c0.8-3.2,1.8-5.9,2.7-8c-1.3-0.3-2.6-0.7-3.9-1
			c-0.8,2.1-1.6,4.6-2.4,7.4c-0.8,3-1.3,5.7-1.7,8.1C375.7,785.4,376.9,785.7,378.2,786.1z"/>
		<g>
			
				<ellipse transform="matrix(0.6403 -0.7681 0.7681 0.6403 -450.8176 585.2245)" class="st10" cx="399.5" cy="774" rx="2.5" ry="5"/>
			
				<ellipse transform="matrix(0.5487 -0.836 0.836 0.5487 -476.4891 687.3757)" class="st10" cx="398.5" cy="785.1" rx="3.2" ry="6.8"/>
			
				<ellipse transform="matrix(0.836 -0.5487 0.5487 0.836 -363.6317 353.4346)" class="st10" cx="409.5" cy="785.1" rx="6.8" ry="3.2"/>
			<g>
				<rect x="403" y="762" class="st10" width="2" height="27"/>
				
					<ellipse transform="matrix(0.7681 -0.6403 0.6403 0.7681 -400.8905 441.0807)" class="st10" cx="408.5" cy="774" rx="5" ry="2.5"/>
				<g>
					<path class="st11" d="M411,748.4l0.8,0.1c3.7,0.3,5.6,4.8,3.2,7.6l-0.8,0.9c-1,1.1-1.3,2.5-1,4l0.3,1.3c0.9,3.6-2.7,6.5-6.1,5
						l-1-0.4c-1.4-0.6-3-0.6-4.2,0.2l-0.7,0.4c-3.2,1.9-7.3-0.7-6.9-4.5l0.1-0.8c0.2-1.5-0.4-3-1.6-4l-0.8-0.7
						c-2.8-2.5-1.8-7,1.8-7.8l1.3-0.3c1.4-0.3,2.6-1.3,3.1-2.6l0.4-1.1c1.4-3.4,6.2-3.6,8.1-0.3l0.4,0.7
						C408.1,747.4,409.4,748.3,411,748.4z"/>
					<ellipse class="st12" cx="403.4" cy="756.2" rx="3.2" ry="3.3"/>
				</g>
			</g>
		</g>
		<g>
			
				<ellipse transform="matrix(0.6403 -0.7681 0.7681 0.6403 -425.8733 618.4962)" class="st10" cx="447.5" cy="764" rx="2.5" ry="5"/>
			
				<ellipse transform="matrix(0.5487 -0.836 0.836 0.5487 -446.4684 722.9909)" class="st10" cx="446.5" cy="775.1" rx="3.2" ry="6.8"/>
			
				<ellipse transform="matrix(0.836 -0.5487 0.5487 0.836 -350.2722 378.1338)" class="st10" cx="457.5" cy="775.1" rx="6.8" ry="3.2"/>
			<g>
				<rect x="451" y="752" class="st10" width="2" height="27"/>
				
					<ellipse transform="matrix(0.7681 -0.6403 0.6403 0.7681 -383.3553 469.4981)" class="st10" cx="456.5" cy="764" rx="5" ry="2.5"/>
				<g>
					<path class="st11" d="M459,738.4l0.8,0.1c3.7,0.3,5.6,4.8,3.2,7.6l-0.8,0.9c-1,1.1-1.3,2.5-1,4l0.3,1.3c0.9,3.6-2.7,6.5-6.1,5
						l-1-0.4c-1.4-0.6-3-0.6-4.2,0.2l-0.7,0.4c-3.2,1.9-7.3-0.7-6.9-4.5l0.1-0.8c0.2-1.5-0.4-3-1.6-4l-0.8-0.7
						c-2.8-2.5-1.8-7,1.8-7.8l1.3-0.3c1.4-0.3,2.6-1.3,3.1-2.6l0.4-1.1c1.4-3.4,6.2-3.6,8.1-0.3l0.4,0.7
						C456.1,737.4,457.4,738.3,459,738.4z"/>
					<ellipse class="st12" cx="451.4" cy="746.2" rx="3.2" ry="3.3"/>
				</g>
			</g>
		</g>
		<g>
			
				<ellipse transform="matrix(0.6403 -0.7681 0.7681 0.6403 -406.6288 681.5952)" class="st10" cx="524.5" cy="775" rx="2.5" ry="5"/>
			
				<ellipse transform="matrix(0.5487 -0.836 0.836 0.5487 -420.9169 792.3266)" class="st10" cx="523.5" cy="786.1" rx="3.2" ry="6.8"/>
			
				<ellipse transform="matrix(0.836 -0.5487 0.5487 0.836 -343.6801 422.1904)" class="st10" cx="534.5" cy="786.1" rx="6.8" ry="3.2"/>
			<g>
				<rect x="528" y="763" class="st10" width="2" height="27"/>
				
					<ellipse transform="matrix(0.7681 -0.6403 0.6403 0.7681 -372.5418 521.3557)" class="st10" cx="533.5" cy="775" rx="5" ry="2.5"/>
				<g>
					<path class="st11" d="M536,749.4l0.8,0.1c3.7,0.3,5.6,4.8,3.2,7.6l-0.8,0.9c-1,1.1-1.3,2.5-1,4l0.3,1.3c0.9,3.6-2.7,6.5-6.1,5
						l-1-0.4c-1.4-0.6-3-0.6-4.2,0.2l-0.7,0.4c-3.2,1.9-7.3-0.7-6.9-4.5l0.1-0.8c0.2-1.5-0.4-3-1.6-4l-0.8-0.7
						c-2.8-2.5-1.8-7,1.8-7.8l1.3-0.3c1.4-0.3,2.6-1.3,3.1-2.6l0.4-1.1c1.4-3.4,6.2-3.6,8.1-0.3l0.4,0.7
						C533.1,748.4,534.4,749.3,536,749.4z"/>
					<ellipse class="st12" cx="528.4" cy="757.2" rx="3.2" ry="3.3"/>
				</g>
			</g>
		</g>
		<g>
			
				<ellipse transform="matrix(0.6403 -0.7681 0.7681 0.6403 -413.4804 652.9626)" class="st10" cx="490.5" cy="768" rx="2.5" ry="5"/>
			
				<ellipse transform="matrix(0.5487 -0.836 0.836 0.5487 -430.408 760.7438)" class="st10" cx="489.5" cy="779.1" rx="3.2" ry="6.8"/>
			
				<ellipse transform="matrix(0.836 -0.5487 0.5487 0.836 -345.415 402.3854)" class="st10" cx="500.5" cy="779.1" rx="6.8" ry="3.2"/>
			<rect x="494" y="756" class="st10" width="2" height="27"/>
			
				<ellipse transform="matrix(0.7681 -0.6403 0.6403 0.7681 -375.9444 497.9606)" class="st10" cx="499.5" cy="768" rx="5" ry="2.5"/>
			<path class="st13" d="M502,742.4l0.8,0.1c3.7,0.3,5.6,4.8,3.2,7.6l-0.8,0.9c-1,1.1-1.3,2.5-1,4l0.3,1.3c0.9,3.6-2.7,6.5-6.1,5
				l-1-0.4c-1.4-0.6-3-0.6-4.2,0.2l-0.7,0.4c-3.2,1.9-7.3-0.7-6.9-4.5l0.1-0.8c0.2-1.5-0.4-3-1.6-4l-0.8-0.7c-2.8-2.5-1.8-7,1.8-7.8
				l1.3-0.3c1.4-0.3,2.6-1.3,3.1-2.6l0.4-1.1c1.4-3.4,6.2-3.6,8.1-0.3l0.4,0.7C499.1,741.4,500.4,742.3,502,742.4z"/>
			<ellipse class="st14" cx="494.4" cy="750.2" rx="3.2" ry="3.3"/>
		</g>
		<g>
			
				<ellipse transform="matrix(0.6403 -0.7681 0.7681 0.6403 -404.3369 710.4898)" class="st10" cx="556.5" cy="787" rx="2.5" ry="5"/>
			
				<ellipse transform="matrix(0.5487 -0.836 0.836 0.5487 -416.5084 824.4937)" class="st10" cx="555.5" cy="798.1" rx="3.2" ry="6.8"/>
			
				<ellipse transform="matrix(0.836 -0.5487 0.5487 0.836 -345.0168 441.718)" class="st10" cx="566.5" cy="798.1" rx="6.8" ry="3.2"/>
			<rect x="560" y="775" class="st10" width="2" height="27"/>
			
				<ellipse transform="matrix(0.7681 -0.6403 0.6403 0.7681 -372.8048 544.6296)" class="st10" cx="565.5" cy="787" rx="5" ry="2.5"/>
			<path class="st13" d="M568,761.4l0.8,0.1c3.7,0.3,5.6,4.8,3.2,7.6l-0.8,0.9c-1,1.1-1.3,2.5-1,4l0.3,1.3c0.9,3.6-2.7,6.5-6.1,5
				l-1-0.4c-1.4-0.6-3-0.6-4.2,0.2l-0.7,0.4c-3.2,1.9-7.3-0.7-6.9-4.5l0.1-0.8c0.2-1.5-0.4-3-1.6-4l-0.8-0.7c-2.8-2.5-1.8-7,1.8-7.8
				l1.3-0.3c1.4-0.3,2.6-1.3,3.1-2.6l0.4-1.1c1.4-3.4,6.2-3.6,8.1-0.3l0.4,0.7C565.1,760.4,566.4,761.3,568,761.4z"/>
			<ellipse class="st14" cx="560.4" cy="769.2" rx="3.2" ry="3.3"/>
		</g>
		<g>
			
				<ellipse transform="matrix(0.6403 -0.7681 0.7681 0.6403 -462.205 614.9055)" class="st10" cx="425.5" cy="801" rx="2.5" ry="5"/>
			
				<ellipse transform="matrix(0.5487 -0.836 0.836 0.5487 -487.3281 721.2958)" class="st10" cx="424.5" cy="812.1" rx="3.2" ry="6.8"/>
			
				<ellipse transform="matrix(0.836 -0.5487 0.5487 0.836 -374.1835 372.1298)" class="st10" cx="435.5" cy="812.1" rx="6.8" ry="3.2"/>
			<g>
				<rect x="429" y="789" class="st10" width="2" height="27"/>
				
					<ellipse transform="matrix(0.7681 -0.6403 0.6403 0.7681 -412.1501 463.9913)" class="st10" cx="434.5" cy="801" rx="5" ry="2.5"/>
				<g>
					<path class="st11" d="M437,775.4l0.8,0.1c3.7,0.3,5.6,4.8,3.2,7.6l-0.8,0.9c-1,1.1-1.3,2.5-1,4l0.3,1.3c0.9,3.6-2.7,6.5-6.1,5
						l-1-0.4c-1.4-0.6-3-0.6-4.2,0.2l-0.7,0.4c-3.2,1.9-7.3-0.7-6.9-4.5l0.1-0.8c0.2-1.5-0.4-3-1.6-4l-0.8-0.7
						c-2.8-2.5-1.8-7,1.8-7.8l1.3-0.3c1.4-0.3,2.6-1.3,3.1-2.6l0.4-1.1c1.4-3.4,6.2-3.6,8.1-0.3l0.4,0.7
						C434.1,774.4,435.4,775.3,437,775.4z"/>
					<ellipse class="st12" cx="429.4" cy="783.2" rx="3.2" ry="3.3"/>
				</g>
			</g>
		</g>
		<g>
			
				<ellipse transform="matrix(0.6403 -0.7681 0.7681 0.6403 -449.044 649.0122)" class="st10" cx="468.5" cy="804" rx="2.5" ry="5"/>
			
				<ellipse transform="matrix(0.5487 -0.836 0.836 0.5487 -470.4317 758.5975)" class="st10" cx="467.5" cy="815.1" rx="3.2" ry="6.8"/>
			
				<ellipse transform="matrix(0.836 -0.5487 0.5487 0.836 -368.7775 396.2174)" class="st10" cx="478.5" cy="815.1" rx="6.8" ry="3.2"/>
			<rect x="472" y="792" class="st10" width="2" height="27"/>
			
				<ellipse transform="matrix(0.7681 -0.6403 0.6403 0.7681 -404.0989 492.2218)" class="st10" cx="477.5" cy="804" rx="5" ry="2.5"/>
			<path class="st13" d="M480,778.4l0.8,0.1c3.7,0.3,5.6,4.8,3.2,7.6l-0.8,0.9c-1,1.1-1.3,2.5-1,4l0.3,1.3c0.9,3.6-2.7,6.5-6.1,5
				l-1-0.4c-1.4-0.6-3-0.6-4.2,0.2l-0.7,0.4c-3.2,1.9-7.3-0.7-6.9-4.5l0.1-0.8c0.2-1.5-0.4-3-1.6-4l-0.8-0.7c-2.8-2.5-1.8-7,1.8-7.8
				l1.3-0.3c1.4-0.3,2.6-1.3,3.1-2.6l0.4-1.1c1.4-3.4,6.2-3.6,8.1-0.3l0.4,0.7C477.1,777.4,478.4,778.3,480,778.4z"/>
			<ellipse class="st14" cx="472.4" cy="786.2" rx="3.2" ry="3.3"/>
		</g>
		<g>
			
				<ellipse transform="matrix(0.6403 -0.7681 0.7681 0.6403 -432.9083 685.472)" class="st10" cx="515.5" cy="805" rx="2.5" ry="5"/>
			
				<ellipse transform="matrix(0.5487 -0.836 0.836 0.5487 -450.0582 798.3406)" class="st10" cx="514.5" cy="816.1" rx="3.2" ry="6.8"/>
			
				<ellipse transform="matrix(0.836 -0.5487 0.5487 0.836 -361.6181 422.1719)" class="st10" cx="525.5" cy="816.1" rx="6.8" ry="3.2"/>
			<g>
				<rect x="519" y="793" class="st10" width="2" height="27"/>
				
					<ellipse transform="matrix(0.7681 -0.6403 0.6403 0.7681 -393.8394 522.5499)" class="st10" cx="524.5" cy="805" rx="5" ry="2.5"/>
				<g>
					<path class="st11" d="M527,779.4l0.8,0.1c3.7,0.3,5.6,4.8,3.2,7.6l-0.8,0.9c-1,1.1-1.3,2.5-1,4l0.3,1.3c0.9,3.6-2.7,6.5-6.1,5
						l-1-0.4c-1.4-0.6-3-0.6-4.2,0.2l-0.7,0.4c-3.2,1.9-7.3-0.7-6.9-4.5l0.1-0.8c0.2-1.5-0.4-3-1.6-4l-0.8-0.7
						c-2.8-2.5-1.8-7,1.8-7.8l1.3-0.3c1.4-0.3,2.6-1.3,3.1-2.6l0.4-1.1c1.4-3.4,6.2-3.6,8.1-0.3l0.4,0.7
						C524.1,778.4,525.4,779.3,527,779.4z"/>
					<ellipse class="st12" cx="519.4" cy="787.2" rx="3.2" ry="3.3"/>
				</g>
			</g>
		</g>
		<g>
			<path class="st6" d="M471.6,843h-1.3c-1.9,0-3.4-1.5-3.4-3.4v-20.3c0-1.9,1.5-3.4,3.4-3.4h1.3c1.9,0,3.4,1.5,3.4,3.4v20.3
				C475,841.5,473.5,843,471.6,843z"/>
			<path class="st6" d="M453.6,842h-1.3c-1.9,0-3.4-1.5-3.4-3.4v-20.3c0-1.9,1.5-3.4,3.4-3.4h1.3c1.9,0,3.4,1.5,3.4,3.4v20.3
				C457,840.5,455.5,842,453.6,842z"/>
			<path class="st6" d="M436.6,839h-1.3c-1.9,0-3.4-1.5-3.4-3.4v-20.3c0-1.9,1.5-3.4,3.4-3.4h1.3c1.9,0,3.4,1.5,3.4,3.4v20.3
				C440,837.5,438.5,839,436.6,839z"/>
			<path class="st6" d="M419.6,836h-1.3c-1.9,0-3.4-1.5-3.4-3.4v-20.3c0-1.9,1.5-3.4,3.4-3.4h1.3c1.9,0,3.4,1.5,3.4,3.4v20.3
				C423,834.5,421.5,836,419.6,836z"/>
			<path class="st6" d="M403.6,830h-1.3c-1.9,0-3.4-1.5-3.4-3.4v-20.3c0-1.9,1.5-3.4,3.4-3.4h1.3c1.9,0,3.4,1.5,3.4,3.4v20.3
				C407,828.5,405.5,830,403.6,830z"/>
			<path class="st6" d="M389.6,822h-1.3c-1.9,0-3.4-1.5-3.4-3.4v-20.3c0-1.9,1.5-3.4,3.4-3.4h1.3c1.9,0,3.4,1.5,3.4,3.4v20.3
				C393,820.5,391.5,822,389.6,822z"/>
			<path class="st6" d="M378.6,807h-1.3c-1.9,0-3.4-1.5-3.4-3.4v-20.3c0-1.9,1.5-3.4,3.4-3.4h1.3c1.9,0,3.4,1.5,3.4,3.4v20.3
				C382,805.5,380.5,807,378.6,807z"/>
			<path class="st6" d="M541.6,835h-1.3c-1.9,0-3.4-1.5-3.4-3.4v-20.3c0-1.9,1.5-3.4,3.4-3.4h1.3c1.9,0,3.4,1.5,3.4,3.4v20.3
				C545,833.5,543.5,835,541.6,835z"/>
			<path class="st6" d="M557.6,829h-1.3c-1.9,0-3.4-1.5-3.4-3.4v-20.3c0-1.9,1.5-3.4,3.4-3.4h1.3c1.9,0,3.4,1.5,3.4,3.4v20.3
				C561,827.5,559.5,829,557.6,829z"/>
			<path class="st6" d="M571.6,820h-1.3c-1.9,0-3.4-1.5-3.4-3.4v-20.3c0-1.9,1.5-3.4,3.4-3.4h1.3c1.9,0,3.4,1.5,3.4,3.4v20.3
				C575,818.5,573.5,820,571.6,820z"/>
			<path class="st6" d="M584.6,806h-1.3c-1.9,0-3.4-1.5-3.4-3.4v-20.3c0-1.9,1.5-3.4,3.4-3.4h1.3c1.9,0,3.4,1.5,3.4,3.4v20.3
				C588,804.5,586.5,806,584.6,806z"/>
			<path class="st6" d="M377.1,796.5c1.5,1.5,3.4,3.2,5.7,5c2.6,2,5,3.6,7,4.7c-0.8,1.1-1.6,2.1-2.4,3.2c-1.9-1.2-4.1-2.6-6.4-4.4
				c-2.5-1.9-4.6-3.7-6.3-5.3C375.5,798.6,376.3,797.6,377.1,796.5z"/>
			<path class="st6" d="M390.6,807.9c1.6,1.4,3.6,3,6.1,4.6c2.8,1.8,5.3,3.2,7.4,4.1c-0.7,1.1-1.4,2.2-2.2,3.4c-2-1-4.3-2.3-6.7-3.9
				c-2.6-1.7-4.8-3.3-6.7-4.8C389.2,810.1,389.9,809,390.6,807.9z"/>
			<path class="st6" d="M404.1,816.7c1.9,0.9,4.3,1.8,7.1,2.7c3.2,1,6,1.6,8.2,1.9c-0.4,1.3-0.8,2.5-1.2,3.8c-2.2-0.4-4.8-1-7.5-1.9
				c-3-0.9-5.6-1.9-7.8-2.8C403.4,819.2,403.7,818,404.1,816.7z"/>
			<path class="st6" d="M420.4,823c2,0.5,4.6,1,7.5,1.4c3.3,0.4,6.1,0.5,8.4,0.4c-0.2,1.3-0.3,2.6-0.5,4c-2.3,0-4.9-0.2-7.8-0.5
				c-3.1-0.3-5.8-0.8-8.1-1.3C420.1,825.7,420.3,824.3,420.4,823z"/>
			<path class="st6" d="M438.2,825.8c2.1,0.3,4.6,0.6,7.6,0.7c3.3,0.1,6.2-0.1,8.4-0.4c0,1.3-0.1,2.7-0.1,4
				c-2.2,0.2-4.9,0.3-7.8,0.2c-3.1-0.1-5.9-0.3-8.2-0.6C438.1,828.4,438.2,827.1,438.2,825.8z"/>
			<path class="st6" d="M455.2,826.8c2.1,0.3,4.6,0.6,7.6,0.7c3.3,0.1,6.2-0.1,8.4-0.4c0,1.3-0.1,2.7-0.1,4
				c-2.2,0.2-4.9,0.3-7.8,0.2c-3.1-0.1-5.9-0.3-8.2-0.6C455.1,829.4,455.2,828.1,455.2,826.8z"/>
			<path class="st6" d="M473.2,826.8c2.1,0.3,4.6,0.6,7.6,0.7c3.3,0.1,6.2-0.1,8.4-0.4c0,1.3-0.1,2.7-0.1,4
				c-2.2,0.2-4.9,0.3-7.8,0.2c-3.1-0.1-5.9-0.3-8.2-0.6C473.1,829.4,473.2,828.1,473.2,826.8z"/>
			<path class="st6" d="M491.2,825.8c2.1,0.3,4.6,0.6,7.6,0.7c3.3,0.1,6.2-0.1,8.4-0.4c0,1.3-0.1,2.7-0.1,4
				c-2.2,0.2-4.9,0.3-7.8,0.2c-3.1-0.1-5.9-0.3-8.2-0.6C491.1,828.4,491.2,827.1,491.2,825.8z"/>
			<path class="st6" d="M509.1,824.2c2.1,0.2,4.7,0.3,7.6,0.3c3.3-0.1,6.2-0.5,8.4-0.8c0,1.3,0.1,2.7,0.1,4
				c-2.2,0.3-4.8,0.6-7.7,0.7c-3.1,0.1-5.9,0.1-8.2-0.1C509.2,826.9,509.1,825.5,509.1,824.2z"/>
			<path class="st6" d="M524.9,822.5c2.1-0.1,4.7-0.4,7.5-0.9c3.3-0.6,6-1.4,8.2-2.1c0.3,1.3,0.5,2.6,0.8,3.9
				c-2.2,0.6-4.7,1.3-7.5,1.9c-3,0.6-5.8,0.9-8.2,1.2C525.4,825.1,525.1,823.8,524.9,822.5z"/>
			<path class="st6" d="M540.9,817.4c2.1-0.3,4.6-0.9,7.4-1.7c3.2-0.9,5.8-2,7.9-3c0.4,1.3,0.8,2.5,1.2,3.8
				c-2.1,0.9-4.5,1.8-7.3,2.7c-3,0.9-5.7,1.6-8,2C541.6,819.9,541.2,818.6,540.9,817.4z"/>
			<path class="st6" d="M556.9,811.1c2-0.5,4.5-1.3,7.2-2.4c3.1-1.2,5.6-2.5,7.6-3.7c0.5,1.2,1,2.5,1.5,3.7c-2,1.1-4.3,2.2-7,3.3
				c-2.9,1.2-5.5,2.1-7.8,2.7C557.9,813.6,557.4,812.3,556.9,811.1z"/>
			<path class="st6" d="M570.9,801.3c2-0.6,4.5-1.4,7.2-2.5c3-1.3,5.6-2.7,7.5-3.9c0.5,1.2,1.1,2.4,1.6,3.7c-2,1.1-4.3,2.3-7,3.5
				c-2.8,1.3-5.5,2.2-7.7,2.9C572,803.7,571.5,802.5,570.9,801.3z"/>
		</g>
		<path class="st6" d="M524.6,839h-1.3c-1.9,0-3.4-1.5-3.4-3.4v-20.3c0-1.9,1.5-3.4,3.4-3.4h1.3c1.9,0,3.4,1.5,3.4,3.4v20.3
			C528,837.5,526.5,839,524.6,839z"/>
		<path class="st6" d="M507.6,841h-1.3c-1.9,0-3.4-1.5-3.4-3.4v-20.3c0-1.9,1.5-3.4,3.4-3.4h1.3c1.9,0,3.4,1.5,3.4,3.4v20.3
			C511,839.5,509.5,841,507.6,841z"/>
	</g>
</g>
<g>
	<path class="st6" d="M191.1,880.9c2.1-0.3,4.6-0.5,7.6-0.5c3.3,0,6.2,0.2,8.4,0.6c0-1.3,0-2.7,0-4c-2.2-0.2-4.9-0.4-7.8-0.4
		c-3.1,0-5.9,0.1-8.2,0.4C191.1,878.3,191.1,879.6,191.1,880.9z"/>
	<path class="st6" d="M174.1,880.9c2.1-0.3,4.6-0.5,7.6-0.5c3.3,0,6.2,0.2,8.4,0.6c0-1.3,0-2.7,0-4c-2.2-0.2-4.9-0.4-7.8-0.4
		c-3.1,0-5.9,0.1-8.2,0.4C174.1,878.3,174.1,879.6,174.1,880.9z"/>
	<ellipse class="st9" cx="196.5" cy="935" rx="103.5" ry="48"/>
	<path class="st6" d="M98.6,920h-1.3c-1.9,0-3.4-1.5-3.4-3.4v-20.3c0-1.9,1.5-3.4,3.4-3.4h1.3c1.9,0,3.4,1.5,3.4,3.4v20.3
		C102,918.5,100.5,920,98.6,920z"/>
	<path class="st6" d="M110.6,913h-1.3c-1.9,0-3.4-1.5-3.4-3.4v-20.3c0-1.9,1.5-3.4,3.4-3.4h1.3c1.9,0,3.4,1.5,3.4,3.4v20.3
		C114,911.5,112.5,913,110.6,913z"/>
	<path class="st6" d="M126.6,904h-1.3c-1.9,0-3.4-1.5-3.4-3.4v-20.3c0-1.9,1.5-3.4,3.4-3.4h1.3c1.9,0,3.4,1.5,3.4,3.4v20.3
		C130,902.5,128.5,904,126.6,904z"/>
	<path class="st6" d="M141.6,897h-1.3c-1.9,0-3.4-1.5-3.4-3.4v-20.3c0-1.9,1.5-3.4,3.4-3.4h1.3c1.9,0,3.4,1.5,3.4,3.4v20.3
		C145,895.5,143.5,897,141.6,897z"/>
	<path class="st6" d="M157.6,895h-1.3c-1.9,0-3.4-1.5-3.4-3.4v-20.3c0-1.9,1.5-3.4,3.4-3.4h1.3c1.9,0,3.4,1.5,3.4,3.4v20.3
		C161,893.5,159.5,895,157.6,895z"/>
	<path class="st6" d="M174.6,893h-1.3c-1.9,0-3.4-1.5-3.4-3.4v-20.3c0-1.9,1.5-3.4,3.4-3.4h1.3c1.9,0,3.4,1.5,3.4,3.4v20.3
		C178,891.5,176.5,893,174.6,893z"/>
	<path class="st6" d="M191.6,892h-1.3c-1.9,0-3.4-1.5-3.4-3.4v-20.3c0-1.9,1.5-3.4,3.4-3.4h1.3c1.9,0,3.4,1.5,3.4,3.4v20.3
		C195,890.5,193.5,892,191.6,892z"/>
	<path class="st6" d="M209.6,893h-1.3c-1.9,0-3.4-1.5-3.4-3.4v-20.3c0-1.9,1.5-3.4,3.4-3.4h1.3c1.9,0,3.4,1.5,3.4,3.4v20.3
		C213,891.5,211.5,893,209.6,893z"/>
	<path class="st6" d="M225.6,896h-1.3c-1.9,0-3.4-1.5-3.4-3.4v-20.3c0-1.9,1.5-3.4,3.4-3.4h1.3c1.9,0,3.4,1.5,3.4,3.4v20.3
		C229,894.5,227.5,896,225.6,896z"/>
	<path class="st6" d="M242.6,900h-1.3c-1.9,0-3.4-1.5-3.4-3.4v-20.3c0-1.9,1.5-3.4,3.4-3.4h1.3c1.9,0,3.4,1.5,3.4,3.4v20.3
		C246,898.5,244.5,900,242.6,900z"/>
	<path class="st6" d="M257.6,905h-1.3c-1.9,0-3.4-1.5-3.4-3.4v-20.3c0-1.9,1.5-3.4,3.4-3.4h1.3c1.9,0,3.4,1.5,3.4,3.4v20.3
		C261,903.5,259.5,905,257.6,905z"/>
	<path class="st6" d="M272.6,910h-1.3c-1.9,0-3.4-1.5-3.4-3.4v-20.3c0-1.9,1.5-3.4,3.4-3.4h1.3c1.9,0,3.4,1.5,3.4,3.4v20.3
		C276,908.5,274.5,910,272.6,910z"/>
	<path class="st6" d="M286.6,914h-1.3c-1.9,0-3.4-1.5-3.4-3.4v-20.3c0-1.9,1.5-3.4,3.4-3.4h1.3c1.9,0,3.4,1.5,3.4,3.4v20.3
		C290,912.5,288.5,914,286.6,914z"/>
	<path class="st6" d="M208.6,985h-1.3c-1.9,0-3.4-1.5-3.4-3.4v-20.3c0-1.9,1.5-3.4,3.4-3.4h1.3c1.9,0,3.4,1.5,3.4,3.4v20.3
		C212,983.5,210.5,985,208.6,985z"/>
	<path class="st6" d="M296.6,926h-1.3c-1.9,0-3.4-1.5-3.4-3.4v-16.3c0-1.9,1.5-3.4,3.4-3.4h1.3c1.9,0,3.4,1.5,3.4,3.4v16.3
		C300,924.5,298.5,926,296.6,926z"/>
	<path class="st6" d="M292.2,917.3c1.6,1.4,3.5,3.1,5.5,5.3c2.2,2.4,3.9,4.7,5.2,6.6c1-0.9,2-1.8,3-2.7c-1.3-1.8-3-3.9-4.9-6
		c-2.1-2.3-4-4.3-5.8-5.9C294.2,915.5,293.2,916.4,292.2,917.3z"/>
	<path class="st6" d="M283.5,904.4c1.8,1.1,3.9,2.5,6.2,4.4c2.6,2.1,4.6,4.1,6.2,5.7c0.8-1,1.7-2.1,2.5-3.1
		c-1.6-1.6-3.5-3.4-5.8-5.2c-2.4-2-4.7-3.6-6.7-4.9C285.2,902.4,284.4,903.4,283.5,904.4z"/>
	<path class="st6" d="M270.1,895.7c1.9,0.8,4.3,1.8,6.9,3.3c2.9,1.6,5.2,3.2,7.1,4.6c0.7-1.2,1.3-2.3,2-3.5c-1.8-1.3-4-2.7-6.5-4.2
		c-2.7-1.5-5.2-2.8-7.4-3.7C271.4,893.4,270.8,894.6,270.1,895.7z"/>
	<path class="st6" d="M254.9,890.5c2.1,0.4,4.6,0.9,7.4,1.8c3.2,1,5.8,2.1,7.9,3c0.4-1.3,0.8-2.5,1.2-3.8c-2.1-0.9-4.5-1.8-7.3-2.7
		c-3-0.9-5.7-1.6-8-2.1C255.7,887.9,255.3,889.2,254.9,890.5z"/>
	<path class="st6" d="M239.9,886.5c2.1,0.4,4.6,0.9,7.4,1.8c3.2,1,5.8,2.1,7.9,3c0.4-1.3,0.8-2.5,1.2-3.8c-2.1-0.9-4.5-1.8-7.3-2.7
		c-3-0.9-5.7-1.6-8-2.1C240.7,883.9,240.3,885.2,239.9,886.5z"/>
	<path class="st6" d="M224.9,883.6c2.1,0.1,4.7,0.3,7.6,0.8c3.3,0.5,6,1.3,8.2,2c0.2-1.3,0.5-2.6,0.7-3.9c-2.2-0.6-4.7-1.2-7.6-1.7
		c-3.1-0.5-5.8-0.8-8.2-1C225.3,880.9,225.1,882.3,224.9,883.6z"/>
	<path class="st6" d="M208.9,881c2.1,0,4.7,0,7.6,0.3c3.3,0.4,6.1,0.9,8.3,1.5c0.2-1.3,0.3-2.6,0.5-4c-2.2-0.5-4.8-0.9-7.7-1.3
		c-3.1-0.4-5.9-0.5-8.2-0.5C209.3,878.4,209.1,879.7,208.9,881z"/>
	<path class="st6" d="M157.1,881.9c2.1-0.3,4.6-0.5,7.6-0.5c3.3,0,6.2,0.2,8.4,0.6c0-1.3,0-2.7,0-4c-2.2-0.2-4.9-0.4-7.8-0.4
		c-3.1,0-5.9,0.1-8.2,0.4C157.1,879.3,157.1,880.6,157.1,881.9z"/>
	<path class="st6" d="M139.7,885.5c2-0.7,4.5-1.4,7.3-2c3.2-0.7,6.1-1,8.4-1.1c-0.3-1.3-0.5-2.6-0.8-3.9c-2.2,0.2-4.8,0.6-7.7,1.1
		c-3,0.6-5.7,1.3-8,2C139.2,882.9,139.5,884.2,139.7,885.5z"/>
	<path class="st6" d="M126.1,892.2c1.9-0.9,4.3-1.9,7.1-2.7c3.2-1,6-1.6,8.2-2c-0.4-1.3-0.8-2.5-1.2-3.8c-2.2,0.4-4.8,1.1-7.5,1.9
		c-3,0.9-5.6,1.9-7.8,2.8C125.4,889.7,125.8,890.9,126.1,892.2z"/>
	<path class="st6" d="M109.9,902.3c1.7-1.2,3.9-2.5,6.6-3.8c3-1.5,5.6-2.5,7.8-3.2c-0.6-1.2-1.2-2.4-1.8-3.6
		c-2.1,0.8-4.5,1.8-7.1,3.1c-2.8,1.4-5.2,2.7-7.2,4C108.8,899.9,109.4,901.1,109.9,902.3z"/>
	<path class="st6" d="M99.8,911.1c1.6-1.4,3.5-3,6-4.7c2.7-1.9,5.2-3.3,7.3-4.3c-0.7-1.1-1.5-2.2-2.2-3.3c-2,1.1-4.2,2.4-6.6,4
		c-2.6,1.7-4.8,3.4-6.6,5C98.3,908.9,99,910,99.8,911.1z"/>
	<path class="st6" d="M96.2,928.1c0.3-2.1,0.7-4.6,1.4-7.5c0.8-3.2,1.8-5.9,2.7-8c-1.3-0.3-2.6-0.7-3.9-1c-0.8,2.1-1.6,4.6-2.4,7.4
		c-0.8,3-1.3,5.7-1.7,8.1C93.7,927.4,94.9,927.7,96.2,928.1z"/>
	<path class="st6" d="M242.6,981h-1.3c-1.9,0-3.4-1.5-3.4-3.4v-20.3c0-1.9,1.5-3.4,3.4-3.4h1.3c1.9,0,3.4,1.5,3.4,3.4v20.3
		C246,979.5,244.5,981,242.6,981z"/>
	<path class="st6" d="M225.6,983h-1.3c-1.9,0-3.4-1.5-3.4-3.4v-20.3c0-1.9,1.5-3.4,3.4-3.4h1.3c1.9,0,3.4,1.5,3.4,3.4v20.3
		C229,981.5,227.5,983,225.6,983z"/>
	<g>
		<rect x="128" y="896" class="st15" width="2" height="34"/>
		
			<ellipse transform="matrix(0.5843 -0.8115 0.8115 0.5843 -691.4983 493.0186)" class="st16" cx="135.5" cy="921.5" rx="10.5" ry="1.5"/>
		
			<ellipse transform="matrix(0.8115 -0.5843 0.5843 0.8115 -515.3559 245.2542)" class="st16" cx="122.5" cy="921.5" rx="1.5" ry="10.5"/>
		<g>
			<path class="st17" d="M136.8,884l-5.7,0l-2.3-2.6l-2.3,2.6l-6,0l0.9,6.1l0.1-0.1c0,0.2,0,0.4,0,0.6c0,3.6,3.3,6.5,7.4,6.5
				s7.4-2.9,7.4-6.5c0-0.6-0.1-1.1-0.3-1.7L136.8,884z"/>
			<g>
				<rect x="126" y="881" class="st18" width="1" height="3"/>
				<circle class="st18" cx="126.5" cy="880.5" r="1.5"/>
			</g>
			<g>
				<rect x="131" y="881" class="st18" width="1" height="3"/>
				<circle class="st18" cx="131.5" cy="880.5" r="1.5"/>
			</g>
		</g>
	</g>
	<g>
		<rect x="169" y="878" class="st15" width="2" height="34"/>
		
			<ellipse transform="matrix(0.5843 -0.8115 0.8115 0.5843 -659.8476 518.809)" class="st16" cx="176.5" cy="903.5" rx="10.5" ry="1.5"/>
		
			<ellipse transform="matrix(0.8115 -0.5843 0.5843 0.8115 -497.1109 265.8185)" class="st16" cx="163.5" cy="903.5" rx="1.5" ry="10.5"/>
		<g>
			<path class="st17" d="M177.8,866l-5.7,0l-2.3-2.6l-2.3,2.6l-6,0l0.9,6.1l0.1-0.1c0,0.2,0,0.4,0,0.6c0,3.6,3.3,6.5,7.4,6.5
				s7.4-2.9,7.4-6.5c0-0.6-0.1-1.1-0.3-1.7L177.8,866z"/>
			<g>
				<rect x="167" y="863" class="st18" width="1" height="3"/>
				<circle class="st18" cx="167.5" cy="862.5" r="1.5"/>
			</g>
			<g>
				<rect x="172" y="863" class="st18" width="1" height="3"/>
				<circle class="st18" cx="172.5" cy="862.5" r="1.5"/>
			</g>
		</g>
	</g>
	<g>
		<rect x="216" y="879" class="st15" width="2" height="34"/>
		
			<ellipse transform="matrix(0.5843 -0.8115 0.8115 0.5843 -641.1218 557.3665)" class="st16" cx="223.5" cy="904.5" rx="10.5" ry="1.5"/>
		
			<ellipse transform="matrix(0.8115 -0.5843 0.5843 0.8115 -488.8371 293.4696)" class="st16" cx="210.5" cy="904.5" rx="1.5" ry="10.5"/>
		<g>
			<path class="st17" d="M224.8,867l-5.7,0l-2.3-2.6l-2.3,2.6l-6,0l0.9,6.1l0.1-0.1c0,0.2,0,0.4,0,0.6c0,3.6,3.3,6.5,7.4,6.5
				s7.4-2.9,7.4-6.5c0-0.6-0.1-1.1-0.3-1.7L224.8,867z"/>
			<g>
				<rect x="214" y="864" class="st18" width="1" height="3"/>
				<circle class="st18" cx="214.5" cy="863.5" r="1.5"/>
			</g>
			<g>
				<rect x="219" y="864" class="st18" width="1" height="3"/>
				<circle class="st18" cx="219.5" cy="863.5" r="1.5"/>
			</g>
		</g>
	</g>
	<g>
		<rect x="262" y="899" class="st15" width="2" height="34"/>
		
			<ellipse transform="matrix(0.5843 -0.8115 0.8115 0.5843 -638.2307 603.0106)" class="st16" cx="269.5" cy="924.5" rx="10.5" ry="1.5"/>
		
			<ellipse transform="matrix(0.8115 -0.5843 0.5843 0.8115 -491.8537 324.1174)" class="st16" cx="256.5" cy="924.5" rx="1.5" ry="10.5"/>
		<g>
			<path class="st17" d="M270.8,887l-5.7,0l-2.3-2.6l-2.3,2.6l-6,0l0.9,6.1l0.1-0.1c0,0.2,0,0.4,0,0.6c0,3.6,3.3,6.5,7.4,6.5
				s7.4-2.9,7.4-6.5c0-0.6-0.1-1.1-0.3-1.7L270.8,887z"/>
			<g>
				<rect x="260" y="884" class="st18" width="1" height="3"/>
				<circle class="st18" cx="260.5" cy="883.5" r="1.5"/>
			</g>
			<g>
				<rect x="265" y="884" class="st18" width="1" height="3"/>
				<circle class="st18" cx="265.5" cy="883.5" r="1.5"/>
			</g>
		</g>
	</g>
	<g>
		<rect x="232" y="916" class="st15" width="2" height="34"/>
		
			<ellipse transform="matrix(0.5843 -0.8115 0.8115 0.5843 -664.4974 585.7314)" class="st16" cx="239.5" cy="941.5" rx="10.5" ry="1.5"/>
		
			<ellipse transform="matrix(0.8115 -0.5843 0.5843 0.8115 -507.4411 309.7921)" class="st16" cx="226.5" cy="941.5" rx="1.5" ry="10.5"/>
		<g>
			<path class="st17" d="M240.8,904l-5.7,0l-2.3-2.6l-2.3,2.6l-6,0l0.9,6.1l0.1-0.1c0,0.2,0,0.4,0,0.6c0,3.6,3.3,6.5,7.4,6.5
				s7.4-2.9,7.4-6.5c0-0.6-0.1-1.1-0.3-1.7L240.8,904z"/>
			<g>
				<rect x="230" y="901" class="st18" width="1" height="3"/>
				<circle class="st18" cx="230.5" cy="900.5" r="1.5"/>
			</g>
			<g>
				<rect x="235" y="901" class="st18" width="1" height="3"/>
				<circle class="st18" cx="235.5" cy="900.5" r="1.5"/>
			</g>
		</g>
	</g>
	<g>
		<rect x="189" y="917" class="st15" width="2" height="34"/>
		
			<ellipse transform="matrix(0.5843 -0.8115 0.8115 0.5843 -683.1835 551.2513)" class="st16" cx="196.5" cy="942.5" rx="10.5" ry="1.5"/>
		
			<ellipse transform="matrix(0.8115 -0.5843 0.5843 0.8115 -516.1297 284.8551)" class="st16" cx="183.5" cy="942.5" rx="1.5" ry="10.5"/>
		<g>
			<path class="st17" d="M197.8,905l-5.7,0l-2.3-2.6l-2.3,2.6l-6,0l0.9,6.1l0.1-0.1c0,0.2,0,0.4,0,0.6c0,3.6,3.3,6.5,7.4,6.5
				s7.4-2.9,7.4-6.5c0-0.6-0.1-1.1-0.3-1.7L197.8,905z"/>
			<g>
				<rect x="187" y="902" class="st18" width="1" height="3"/>
				<circle class="st18" cx="187.5" cy="901.5" r="1.5"/>
			</g>
			<g>
				<rect x="192" y="902" class="st18" width="1" height="3"/>
				<circle class="st18" cx="192.5" cy="901.5" r="1.5"/>
			</g>
		</g>
	</g>
	<g>
		<rect x="154" y="926" class="st15" width="2" height="34"/>
		
			<ellipse transform="matrix(0.5843 -0.8115 0.8115 0.5843 -705.0363 526.5891)" class="st16" cx="161.5" cy="951.5" rx="10.5" ry="1.5"/>
		
			<ellipse transform="matrix(0.8115 -0.5843 0.5843 0.8115 -527.985 266.1004)" class="st16" cx="148.5" cy="951.5" rx="1.5" ry="10.5"/>
		<g>
			<path class="st17" d="M162.8,914l-5.7,0l-2.3-2.6l-2.3,2.6l-6,0l0.9,6.1l0.1-0.1c0,0.2,0,0.4,0,0.6c0,3.6,3.3,6.5,7.4,6.5
				s7.4-2.9,7.4-6.5c0-0.6-0.1-1.1-0.3-1.7L162.8,914z"/>
			<g>
				<rect x="152" y="911" class="st18" width="1" height="3"/>
				<circle class="st18" cx="152.5" cy="910.5" r="1.5"/>
			</g>
			<g>
				<rect x="157" y="911" class="st18" width="1" height="3"/>
				<circle class="st18" cx="157.5" cy="910.5" r="1.5"/>
			</g>
		</g>
	</g>
	<g>
		<path class="st6" d="M189.6,985h-1.3c-1.9,0-3.4-1.5-3.4-3.4v-20.3c0-1.9,1.5-3.4,3.4-3.4h1.3c1.9,0,3.4,1.5,3.4,3.4v20.3
			C193,983.5,191.5,985,189.6,985z"/>
		<path class="st6" d="M171.6,984h-1.3c-1.9,0-3.4-1.5-3.4-3.4v-20.3c0-1.9,1.5-3.4,3.4-3.4h1.3c1.9,0,3.4,1.5,3.4,3.4v20.3
			C175,982.5,173.5,984,171.6,984z"/>
		<path class="st6" d="M154.6,981h-1.3c-1.9,0-3.4-1.5-3.4-3.4v-20.3c0-1.9,1.5-3.4,3.4-3.4h1.3c1.9,0,3.4,1.5,3.4,3.4v20.3
			C158,979.5,156.5,981,154.6,981z"/>
		<path class="st6" d="M137.6,978h-1.3c-1.9,0-3.4-1.5-3.4-3.4v-20.3c0-1.9,1.5-3.4,3.4-3.4h1.3c1.9,0,3.4,1.5,3.4,3.4v20.3
			C141,976.5,139.5,978,137.6,978z"/>
		<path class="st6" d="M121.6,972h-1.3c-1.9,0-3.4-1.5-3.4-3.4v-20.3c0-1.9,1.5-3.4,3.4-3.4h1.3c1.9,0,3.4,1.5,3.4,3.4v20.3
			C125,970.5,123.5,972,121.6,972z"/>
		<path class="st6" d="M107.6,964h-1.3c-1.9,0-3.4-1.5-3.4-3.4v-20.3c0-1.9,1.5-3.4,3.4-3.4h1.3c1.9,0,3.4,1.5,3.4,3.4v20.3
			C111,962.5,109.5,964,107.6,964z"/>
		<path class="st6" d="M96.6,949h-1.3c-1.9,0-3.4-1.5-3.4-3.4v-20.3c0-1.9,1.5-3.4,3.4-3.4h1.3c1.9,0,3.4,1.5,3.4,3.4v20.3
			C100,947.5,98.5,949,96.6,949z"/>
		<path class="st6" d="M259.6,977h-1.3c-1.9,0-3.4-1.5-3.4-3.4v-20.3c0-1.9,1.5-3.4,3.4-3.4h1.3c1.9,0,3.4,1.5,3.4,3.4v20.3
			C263,975.5,261.5,977,259.6,977z"/>
		<path class="st6" d="M275.6,971h-1.3c-1.9,0-3.4-1.5-3.4-3.4v-20.3c0-1.9,1.5-3.4,3.4-3.4h1.3c1.9,0,3.4,1.5,3.4,3.4v20.3
			C279,969.5,277.5,971,275.6,971z"/>
		<path class="st6" d="M289.6,962h-1.3c-1.9,0-3.4-1.5-3.4-3.4v-20.3c0-1.9,1.5-3.4,3.4-3.4h1.3c1.9,0,3.4,1.5,3.4,3.4v20.3
			C293,960.5,291.5,962,289.6,962z"/>
		<path class="st6" d="M302.6,948h-1.3c-1.9,0-3.4-1.5-3.4-3.4v-20.3c0-1.9,1.5-3.4,3.4-3.4h1.3c1.9,0,3.4,1.5,3.4,3.4v20.3
			C306,946.5,304.5,948,302.6,948z"/>
		<path class="st6" d="M95.1,938.5c1.5,1.5,3.4,3.2,5.7,5c2.6,2,5,3.6,7,4.7c-0.8,1.1-1.6,2.1-2.4,3.2c-1.9-1.2-4.1-2.6-6.4-4.4
			c-2.5-1.9-4.6-3.7-6.3-5.3C93.5,940.6,94.3,939.6,95.1,938.5z"/>
		<path class="st6" d="M108.6,949.9c1.6,1.4,3.6,3,6.1,4.6c2.8,1.8,5.3,3.2,7.4,4.1c-0.7,1.1-1.4,2.2-2.2,3.4c-2-1-4.3-2.3-6.7-3.9
			c-2.6-1.7-4.8-3.3-6.7-4.8C107.2,952.1,107.9,951,108.6,949.9z"/>
		<path class="st6" d="M122.1,958.7c1.9,0.9,4.3,1.8,7.1,2.7c3.2,1,6,1.6,8.2,1.9c-0.4,1.3-0.8,2.5-1.2,3.8c-2.2-0.4-4.8-1-7.5-1.9
			c-3-0.9-5.6-1.9-7.8-2.8C121.4,961.2,121.7,960,122.1,958.7z"/>
		<path class="st6" d="M138.4,965c2,0.5,4.6,1,7.5,1.4c3.3,0.4,6.1,0.5,8.4,0.4c-0.2,1.3-0.3,2.6-0.5,4c-2.3,0-4.9-0.2-7.8-0.5
			c-3.1-0.3-5.8-0.8-8.1-1.3C138.1,967.7,138.3,966.3,138.4,965z"/>
		<path class="st6" d="M156.2,967.8c2.1,0.3,4.6,0.6,7.6,0.7c3.3,0.1,6.2-0.1,8.4-0.4c0,1.3-0.1,2.7-0.1,4c-2.2,0.2-4.9,0.3-7.8,0.2
			c-3.1-0.1-5.9-0.3-8.2-0.6C156.1,970.4,156.2,969.1,156.2,967.8z"/>
		<path class="st6" d="M173.2,968.8c2.1,0.3,4.6,0.6,7.6,0.7c3.3,0.1,6.2-0.1,8.4-0.4c0,1.3-0.1,2.7-0.1,4c-2.2,0.2-4.9,0.3-7.8,0.2
			c-3.1-0.1-5.9-0.3-8.2-0.6C173.1,971.4,173.2,970.1,173.2,968.8z"/>
		<path class="st6" d="M191.2,968.8c2.1,0.3,4.6,0.6,7.6,0.7c3.3,0.1,6.2-0.1,8.4-0.4c0,1.3-0.1,2.7-0.1,4c-2.2,0.2-4.9,0.3-7.8,0.2
			c-3.1-0.1-5.9-0.3-8.2-0.6C191.1,971.4,191.2,970.1,191.2,968.8z"/>
		<path class="st6" d="M209.2,967.8c2.1,0.3,4.6,0.6,7.6,0.7c3.3,0.1,6.2-0.1,8.4-0.4c0,1.3-0.1,2.7-0.1,4c-2.2,0.2-4.9,0.3-7.8,0.2
			c-3.1-0.1-5.9-0.3-8.2-0.6C209.1,970.4,209.2,969.1,209.2,967.8z"/>
		<path class="st6" d="M227.1,966.2c2.1,0.2,4.7,0.3,7.6,0.3c3.3-0.1,6.2-0.5,8.4-0.8c0,1.3,0.1,2.7,0.1,4c-2.2,0.3-4.8,0.6-7.7,0.7
			c-3.1,0.1-5.9,0.1-8.2-0.1C227.2,968.9,227.1,967.5,227.1,966.2z"/>
		<path class="st6" d="M242.9,964.5c2.1-0.1,4.7-0.4,7.5-0.9c3.3-0.6,6-1.4,8.2-2.1c0.3,1.3,0.5,2.6,0.8,3.9
			c-2.2,0.6-4.7,1.3-7.5,1.9c-3,0.6-5.8,0.9-8.2,1.2C243.4,967.1,243.1,965.8,242.9,964.5z"/>
		<path class="st6" d="M258.9,959.4c2.1-0.3,4.6-0.9,7.4-1.7c3.2-0.9,5.8-2,7.9-3c0.4,1.3,0.8,2.5,1.2,3.8c-2.1,0.9-4.5,1.8-7.3,2.7
			c-3,0.9-5.7,1.6-8,2C259.6,961.9,259.2,960.6,258.9,959.4z"/>
		<path class="st6" d="M274.9,953.1c2-0.5,4.5-1.3,7.2-2.4c3.1-1.2,5.6-2.5,7.6-3.7c0.5,1.2,1,2.5,1.5,3.7c-2,1.1-4.3,2.2-7,3.3
			c-2.9,1.2-5.5,2.1-7.8,2.7C275.9,955.6,275.4,954.3,274.9,953.1z"/>
		<path class="st6" d="M288.9,943.3c2-0.6,4.5-1.4,7.2-2.5c3-1.3,5.6-2.7,7.5-3.9c0.5,1.2,1.1,2.4,1.6,3.7c-2,1.1-4.3,2.3-7,3.5
			c-2.8,1.3-5.5,2.2-7.7,2.9C290,945.7,289.5,944.5,288.9,943.3z"/>
	</g>
</g>
<g>
	<rect x="1410.3" y="910.2" class="st19" width="48.7" height="71.2"/>
	<polygon class="st20" points="1434.8,840.8 1403.7,910.2 1465.9,910.2 	"/>
	<polygon class="st21" points="1450.3,972 1450.3,981.4 1443.3,981.4 1443.3,972 1431.1,972 1431.1,981.4 1424.2,981.4 1424.2,972 
		1412,972 1412,981.4 1405,981.4 1405,972 1392.9,972 1392.9,981.4 1384.2,981.4 1384.2,972 1372,972 1372,981.4 1372,1060 
		1462.4,1060 1462.4,981.4 1462.4,972 	"/>
	<path class="st19" d="M1476.3,818.4h-43.5v-13.1h43.5c-7.6,0.9-12.4,4.8-12.2,7.5C1464.3,815.4,1469.3,818.4,1476.3,818.4z"/>
	<rect x="1432.9" y="805.3" class="st20" width="3.5" height="41.2"/>
	<path class="st20" d="M1443.3,951.4h-15.7v-19.8c0-2.5,2-4.5,4.5-4.5h6.7c2.5,0,4.5,2,4.5,4.5V951.4z"/>
	<rect x="1745.9" y="900.8" class="st19" width="48.7" height="159.2"/>
	<path class="st19" d="M1812,811h-43.5v-13.1h43.5c-7.6,0.9-12.4,4.8-12.2,7.5C1800,807.9,1805,810.9,1812,811z"/>
	<rect x="1768.5" y="797.8" class="st20" width="3.5" height="31.8"/>
	<path class="st20" d="M1778.9,940.2h-15.7v-19.8c0-2.5,2-4.5,4.5-4.5h6.7c2.5,0,4.5,2,4.5,4.5V940.2z"/>
	<path class="st20" d="M1778.9,981.4h-15.7v-19.8c0-2.5,2-4.5,4.5-4.5h6.7c2.5,0,4.5,2,4.5,4.5V981.4z"/>
	<path class="st20" d="M1778.9,1022.5h-15.7v-19.8c0-2.5,2-4.5,4.5-4.5h6.7c2.5,0,4.5,2,4.5,4.5V1022.5z"/>
	<rect x="1801.5" y="910.2" class="st19" width="48.7" height="71.2"/>
	<polygon class="st20" points="1826.1,840.8 1795,910.2 1857.2,910.2 	"/>
	<path class="st19" d="M1867.6,818.4h-43.5v-13.1h43.5c-7.6,0.9-12.4,4.8-12.2,7.5C1855.6,815.4,1860.6,818.4,1867.6,818.4z"/>
	<rect x="1824.1" y="805.3" class="st20" width="3.5" height="41.2"/>
	<path class="st20" d="M1834.6,951.4h-15.7v-19.8c0-2.5,2-4.5,4.5-4.5h6.7c2.5,0,4.5,2,4.5,4.5V951.4z"/>
	<polygon class="st21" points="1872.8,972 1872.8,981.4 1865.9,981.4 1865.9,972 1853.7,972 1853.7,981.4 1846.7,981.4 1846.7,972 
		1834.6,972 1834.6,981.4 1827.6,981.4 1827.6,972 1815.4,972 1815.4,981.4 1806.7,981.4 1806.7,972 1794.6,972 1794.6,981.4 
		1794.6,1060 1885,1060 1885,981.4 1885,972 	"/>
	<rect x="1594.6" y="741.7" class="st19" width="73" height="89.9"/>
	<path class="st20" d="M1643.3,805.3h-22.6v-32.8c0-3.6,2.9-6.5,6.5-6.5h9.6c3.6,0,6.5,2.9,6.5,6.5V805.3z"/>
	<polygon class="st20" points="1629.4,649.9 1587.6,745.4 1671.1,745.4 	"/>
	<rect x="1627.6" y="590" class="st20" width="3.5" height="63.7"/>
	<path class="st19" d="M1692,608.7h-60.9V590h60.9c-10.6,1.3-17.3,6.9-17,10.7C1675.2,604.4,1682.2,608.6,1692,608.7z"/>
	<g>
		<rect x="1577.2" y="829.7" class="st19" width="128.7" height="127.3"/>
		<rect x="1577.2" y="820.3" class="st19" width="13.9" height="9.4"/>
		<rect x="1605" y="820.3" class="st19" width="13.9" height="9.4"/>
		<rect x="1632.8" y="820.3" class="st19" width="13.9" height="9.4"/>
		<rect x="1658.9" y="820.3" class="st19" width="13.9" height="9.4"/>
		<rect x="1692" y="820.3" class="st19" width="13.9" height="9.4"/>
	</g>
	<path class="st20" d="M1608.5,870.9h-15.7V851c0-2.5,2-4.5,4.5-4.5h6.7c2.5,0,4.5,2,4.5,4.5V870.9z"/>
	<path class="st20" d="M1645,870.9h-15.7V851c0-2.5,2-4.5,4.5-4.5h6.7c2.5,0,4.5,2,4.5,4.5V870.9z"/>
	<path class="st20" d="M1681.5,870.9h-15.7V851c0-2.5,2-4.5,4.5-4.5h6.7c2.5,0,4.5,2,4.5,4.5V870.9z"/>
	<rect x="1512.9" y="758.5" class="st19" width="50.4" height="200.4"/>
	<path class="st20" d="M1545.9,897.1h-17.4v-21.7c0-2.5,2-4.5,4.5-4.5h8.4c2.5,0,4.5,2,4.5,4.5V897.1z"/>
	<path class="st20" d="M1545.9,848.4h-17.4v-21.7c0-2.5,2-4.5,4.5-4.5h8.4c2.5,0,4.5,2,4.5,4.5V848.4z"/>
	<path class="st22" d="M1545.9,797.8h-17.4v-21.7c0-2.5,2-4.5,4.5-4.5h8.4c2.5,0,4.5,2,4.5,4.5V797.8z"/>
	<g>
		<rect x="1507.6" y="848.4" class="st21" width="60.9" height="15"/>
		<rect x="1507.6" y="842.8" class="st21" width="7" height="5.6"/>
		<rect x="1519.8" y="842.8" class="st21" width="7" height="5.6"/>
		<rect x="1533.7" y="842.8" class="st21" width="7" height="5.6"/>
		<rect x="1549.4" y="842.8" class="st21" width="7" height="5.6"/>
		<rect x="1561.5" y="842.8" class="st21" width="7" height="5.6"/>
	</g>
	<g>
		<rect x="1507.6" y="796" class="st21" width="60.9" height="15"/>
		<rect x="1507.6" y="790.4" class="st21" width="7" height="5.6"/>
		<rect x="1519.8" y="790.4" class="st21" width="7" height="5.6"/>
		<rect x="1533.7" y="790.4" class="st21" width="7" height="5.6"/>
		<rect x="1549.4" y="790.4" class="st21" width="7" height="5.6"/>
		<rect x="1561.5" y="790.4" class="st21" width="7" height="5.6"/>
	</g>
	<rect x="1462.4" y="900.8" class="st19" width="48.7" height="159.2"/>
	<polygon class="st20" points="1486.9,824.1 1457.4,900.8 1516.3,900.8 	"/>
	<path class="st20" d="M1495.5,940.2h-15.7v-19.8c0-2.5,2-4.5,4.5-4.5h6.7c2.5,0,4.5,2,4.5,4.5V940.2z"/>
	<path class="st20" d="M1495.5,981.4h-15.7v-19.8c0-2.5,2-4.5,4.5-4.5h6.7c2.5,0,4.5,2,4.5,4.5V981.4z"/>
	<path class="st20" d="M1495.5,1022.5h-15.7v-19.8c0-2.5,2-4.5,4.5-4.5h6.7c2.5,0,4.5,2,4.5,4.5V1022.5z"/>
	<path class="st19" d="M1528.5,811H1485v-13.1h43.5c-7.6,0.9-12.4,4.8-12.2,7.5C1516.5,807.9,1521.5,810.9,1528.5,811z"/>
	<rect x="1485" y="797.8" class="st20" width="3.5" height="31.8"/>
	<polygon class="st20" points="1539,707.4 1504.3,758.5 1573.7,758.5 	"/>
	<path class="st19" d="M1580.7,693h-43.5v-13.1h43.5c-7.6,0.9-12.4,4.8-12.2,7.5C1568.7,690,1573.7,692.9,1580.7,693z"/>
	<rect x="1537.2" y="679.9" class="st20" width="3.5" height="31.8"/>
	<rect x="1697.2" y="754.8" class="st19" width="50.4" height="200.4"/>
	<path class="st20" d="M1730.2,893.3h-17.4v-21.7c0-2.5,2-4.5,4.5-4.5h8.4c2.5,0,4.5,2,4.5,4.5V893.3z"/>
	<path class="st20" d="M1730.2,844.7h-17.4v-21.7c0-2.5,2-4.5,4.5-4.5h8.4c2.5,0,4.5,2,4.5,4.5V844.7z"/>
	<path class="st20" d="M1730.2,794.1h-17.4v-21.7c0-2.5,2-4.5,4.5-4.5h8.4c2.5,0,4.5,2,4.5,4.5V794.1z"/>
	<g>
		<rect x="1692" y="844.7" class="st21" width="60.9" height="15"/>
		<rect x="1692" y="839" class="st21" width="7" height="5.6"/>
		<rect x="1704.1" y="839" class="st21" width="7" height="5.6"/>
		<rect x="1718.1" y="839" class="st21" width="7" height="5.6"/>
		<rect x="1733.7" y="839" class="st21" width="7" height="5.6"/>
		<rect x="1745.9" y="839" class="st21" width="7" height="5.6"/>
	</g>
	<g>
		<rect x="1692" y="792.2" class="st21" width="60.9" height="15"/>
		<rect x="1692" y="786.6" class="st21" width="7" height="5.6"/>
		<rect x="1704.1" y="786.6" class="st21" width="7" height="5.6"/>
		<rect x="1718.1" y="786.6" class="st21" width="7" height="5.6"/>
		<rect x="1733.7" y="786.6" class="st21" width="7" height="5.6"/>
		<rect x="1745.9" y="786.6" class="st21" width="7" height="5.6"/>
	</g>
	<polygon class="st20" points="1723.3,703.7 1688.6,754.8 1758.1,754.8 	"/>
	<path class="st19" d="M1765,689.2h-43.5v-13.1h43.5c-7.6,0.9-12.4,4.8-12.2,7.5C1753,686.2,1758,689.2,1765,689.2z"/>
	<rect x="1721.5" y="676.1" class="st20" width="3.5" height="31.8"/>
	<g>
		<rect x="1542.4" y="895.2" class="st23" width="83.5" height="59.9"/>
		<rect x="1542.4" y="887.7" class="st23" width="12.2" height="7.5"/>
		<rect x="1566.8" y="887.7" class="st23" width="12.2" height="7.5"/>
		<rect x="1589.4" y="887.7" class="st23" width="12.2" height="7.5"/>
		<rect x="1613.7" y="887.7" class="st23" width="12.2" height="7.5"/>
	</g>
	<g>
		<rect x="1636.3" y="895.2" class="st23" width="83.5" height="59.9"/>
		<rect x="1636.3" y="887.7" class="st23" width="12.2" height="7.5"/>
		<rect x="1660.7" y="887.7" class="st23" width="12.2" height="7.5"/>
		<rect x="1683.3" y="887.7" class="st23" width="12.2" height="7.5"/>
		<rect x="1707.6" y="887.7" class="st23" width="12.2" height="7.5"/>
	</g>
	<polygon class="st21" points="1730.2,942 1730.2,955.1 1714.6,955.1 1714.6,942 1693.7,942 1693.7,955.1 1678.1,955.1 1678.1,942 
		1657.2,942 1657.2,955.1 1641.5,955.1 1641.5,942 1620.7,942 1620.7,955.1 1605,955.1 1605,942 1584.2,942 1584.2,955.1 
		1568.5,955.1 1568.5,942 1547.6,942 1547.6,955.1 1526.8,955.1 1526.8,942 1511.1,942 1511.1,955.1 1511.1,1060 1745.9,1060 
		1745.9,955.1 1745.9,942 	"/>
	<path class="st20" d="M1657.2,1060h-53.9v-70.6c0-8.6,6.9-15.5,15.5-15.5h22.9c8.6,0,15.5,6.9,15.5,15.5V1060z"/>
	<path class="st20" d="M1566.8,927.1h-10.4v-15.7c0-1.7,1.3-3,3-3h4.4c1.7,0,3,1.3,3,3V927.1z"/>
	<path class="st20" d="M1612,927.1h-10.4v-15.7c0-1.7,1.3-3,3-3h4.4c1.7,0,3,1.3,3,3V927.1z"/>
	<path class="st20" d="M1660.7,927.1h-10.4v-15.7c0-1.7,1.3-3,3-3h4.4c1.7,0,3,1.3,3,3V927.1z"/>
	<path class="st20" d="M1709.4,927.1h-10.4v-15.7c0-1.7,1.3-3,3-3h4.4c1.7,0,3,1.3,3,3V927.1z"/>
	<polygon class="st20" points="1770.3,824.1 1740.9,900.8 1799.8,900.8 	"/>
</g>
<g>
	
		<rect x="841.3" y="969.9" transform="matrix(-1.836970e-16 1 -1 -1.836970e-16 1847.835 105.039)" class="st24" width="60.1" height="13.1"/>
	<polygon class="st25" points="871.8,906.1 817.2,947.5 926.4,947.5 	"/>
	<polygon class="st25" points="873.4,880.3 818.9,921.8 928,921.8 	"/>
	<polygon class="st25" points="871.8,853 817.2,894.4 926.4,894.4 	"/>
</g>
</svg>
