<?xml version="1.0" encoding="utf-8"?>
<!-- Generator: Adobe Illustrator 23.0.5, SVG Export Plug-In . SVG Version: 6.00 Build 0)  -->
<svg version="1.1" id="圖層_1" xmlns="http://www.w3.org/2000/svg" xmlns:xlink="http://www.w3.org/1999/xlink" x="0px" y="0px"
	 viewBox="0 0 1920 1080" style="enable-background:new 0 0 1920 1080;" xml:space="preserve">
<style type="text/css">
	.st0{fill:#F0D8C0;stroke:#715F55;stroke-miterlimit:10;}
	.st1{fill:#FEF0E5;stroke:#715F55;stroke-miterlimit:10;}
	.st2{fill:#FDF1E3;stroke:#715F55;stroke-miterlimit:10;}
	.st3{fill:#FFF2DE;stroke:#A1896D;stroke-miterlimit:10;}
	.st4{fill:#713C2C;stroke:#825C47;stroke-miterlimit:10;}
	.st5{fill:#FFE9D4;stroke:#DAC9B9;stroke-miterlimit:10;}
	.st6{fill:#CEB8AA;stroke:#715F55;stroke-miterlimit:10;}
	.st7{fill:#F9E1C9;stroke:#715F55;stroke-miterlimit:10;}
	.st8{fill:#66340F;stroke:#715F55;stroke-miterlimit:10;}
	.st9{fill:#F4DEC7;stroke:#715F55;stroke-miterlimit:10;}
	.st10{fill:#FFFAE7;stroke:#977559;stroke-miterlimit:10;}
	.st11{fill:#783C1A;stroke:#977559;stroke-miterlimit:10;}
	.st12{fill:#D1746D;stroke:#996666;stroke-miterlimit:10;}
	.st13{fill:#9D423F;stroke:#996666;stroke-miterlimit:10;}
	.st14{fill:#993F3E;stroke:#853A35;stroke-miterlimit:10;}
	.st15{fill:#CC6666;stroke:#993F3E;stroke-miterlimit:10;}
	.st16{fill:#FAF0E6;stroke:#967556;stroke-miterlimit:10;}
	.st17{fill:#C59D83;stroke:#967556;stroke-miterlimit:10;}
	.st18{fill:#F3D9BE;stroke:#967556;stroke-miterlimit:10;}
	.st19{fill:#D2B49A;stroke:#967556;stroke-miterlimit:10;}
	.st20{fill:#DCBDA0;stroke:#967556;stroke-miterlimit:10;}
	.st21{fill:#CFB093;stroke:#967556;stroke-miterlimit:10;}
	.st22{fill:#FED251;stroke:#000000;stroke-width:0.25;stroke-miterlimit:10;}
	.st23{fill:none;stroke:#000000;stroke-width:0.25;stroke-miterlimit:10;}
	.st24{fill:#50322E;stroke:#000000;stroke-width:0.25;stroke-miterlimit:10;}
	.st25{fill:#FECA93;stroke:#000000;stroke-width:0.25;stroke-miterlimit:10;}
	.st26{fill:#FFD251;stroke:#000000;stroke-width:0.25;stroke-miterlimit:10;}
	.st27{fill:#FF0C00;stroke:#000000;stroke-width:0.25;stroke-miterlimit:10;}
	.st28{fill:#F3CD4E;stroke:#000000;stroke-width:0.25;stroke-miterlimit:10;}
	.st29{fill:#FEC993;stroke:#000000;stroke-width:0.25;stroke-miterlimit:10;}
	.st30{fill:#FFFFFF;stroke:#000000;stroke-width:0.25;stroke-miterlimit:10;}
	.st31{fill:#FFD6B1;stroke:#000000;stroke-width:0.25;stroke-miterlimit:10;}
	.st32{stroke:#000000;stroke-width:0.25;stroke-miterlimit:10;}
	.st33{fill:#FFFFFF;stroke:#FFFFFF;stroke-miterlimit:10;}
</style>
<g>
	<path class="st0" d="M1154.5,577.5c-37,4.9-74.1,9.8-111.1,14.7c0-9.9,0-19.9,0-29.8c37.3-4.3,74.7-8.6,112-12.9
		C1155.2,558.8,1154.8,568.2,1154.5,577.5z"/>
	<path class="st0" d="M1151.5,675.5c-35,8.7-70,17.3-105,26c-0.4-8.7-0.8-17.4-1.1-26.2c35.4-6.3,70.8-12.6,106.1-18.8
		C1151.5,662.8,1151.5,669.2,1151.5,675.5z"/>
	<path class="st0" d="M1151.6,657.4c-35.5,6-71.1,12.1-106.6,18.1c-0.1-8-0.3-16-0.4-24c36.3-6.7,72.7-13.3,109-20
		C1152.9,640.1,1152.2,648.8,1151.6,657.4z"/>
	<path class="st0" d="M1153.2,633.4c-36.1,6-72.2,12-108.4,18c-0.4-9.3-0.9-18.6-1.3-27.9c36.9-5.7,73.8-11.4,110.7-17.1
		C1153.8,615.4,1153.5,624.4,1153.2,633.4z"/>
	<path class="st0" d="M1153.5,606.5c-36.6,6-73.1,12-109.7,17.9c-0.1-11-0.2-22-0.3-32.9c37-4.7,74-9.3,111-14
		C1154.2,587.2,1153.8,596.8,1153.5,606.5z"/>
	<path class="st0" d="M1144,522.7c-28.7,2.8-57.3,5.5-86,8.3c10.5-10.2,21-20.3,31.5-30.5c12.7-0.7,25.3-1.3,38-2
		C1133,506.6,1138.5,514.6,1144,522.7z"/>
	<path class="st0" d="M1110.3,480.5c-5.4,6.5-10.9,13-16.3,19.5l29.8-2.3C1119.3,492,1114.8,486.2,1110.3,480.5z"/>
	<g>
		<path class="st0" d="M1043.5,532.1c0,10.7,0,21.4,0,32.1c37.2-4.9,74.5-9.9,111.7-14.8c-2.6-8.8-5.1-17.5-7.7-26.3
			C1112.8,526.1,1078.1,529.1,1043.5,532.1z"/>
		<path class="st0" d="M1151.1,535.4c1.4,4.5,2.8,9,4.2,13.5l5.4-3.5C1157.5,542.1,1154.3,538.7,1151.1,535.4z"/>
	</g>
	<path class="st1" d="M1046.8,701.2c-5.1,1.8-10.2,3.5-15.3,5.3c-1.7-45-3.3-90-5-135c5.7-4.3,11.3-8.7,17-13
		C1044.6,606.1,1045.7,653.6,1046.8,701.2z"/>
	<path class="st2" d="M1161.5,671.4c-3.3,1.4-6.7,2.8-10,4.1c1-43.8,2-87.7,3-131.5c5,1.4,10,2.8,15,4.1
		C1166.8,589.2,1164.2,630.3,1161.5,671.4z"/>
	<g>
		<path class="st3" d="M1130,676c-16.7,4-33.3,8-50,12c-1.3-34.3-2.7-68.7-4-103c19.3-2.3,38.7-4.7,58-7
			C1132.7,610.7,1131.3,643.3,1130,676z"/>
		<path class="st4" d="M1126,627c-12.7,1.3-25.3,2.7-38,4c-0.7-12.3-1.3-24.7-2-37c13.7-1.7,27.3-3.3,41-5
			C1126.7,601.7,1126.3,614.3,1126,627z"/>
		<g>
			<path class="st5" d="M1123.5,671.5c-11,2.3-22,4.7-33,7c-0.7-13-1.3-26-2-39c12-1.7,24-3.3,36-5
				C1124.2,646.8,1123.8,659.2,1123.5,671.5z"/>
			<path class="st5" d="M1119.3,667.1c-7.6,1.6-15.3,3.3-22.9,4.9c-0.5-9.2-0.9-18.3-1.4-27.5c8.3-1.2,16.7-2.3,25-3.5
				C1119.8,649.7,1119.5,658.4,1119.3,667.1z"/>
		</g>
	</g>
	<path class="st6" d="M1015.5,702.5c-31.7-7-63.3-14-95-21c-0.7-7.3-1.3-14.7-2-22c32,6,64,12,96,18
		C1014.8,685.8,1015.2,694.2,1015.5,702.5z"/>
	<path class="st6" d="M1017.8,678.1c-33.6-6-67.2-12-100.9-18.1c-1.1-9.4-2.3-18.7-3.4-28.1c34.3,6.7,68.6,13.4,103,20.1
		C1016.9,660.7,1017.3,669.4,1017.8,678.1z"/>
	<path class="st6" d="M1015.5,622.1c-34.3-5.2-68.5-10.3-102.8-15.5c-1.1-9-2.1-18-3.2-27c34.9,4.2,69.9,8.3,104.8,12.5
		C1014.7,602,1015.1,612,1015.5,622.1z"/>
	<path class="st6" d="M1015.3,592.4c-35.2-4.4-70.4-8.7-105.7-13.1c-1.5-8-3-16-4.6-24c35.8,4.7,71.6,9.5,107.4,14.2
		C1013.4,577.1,1014.4,584.8,1015.3,592.4z"/>
	<path class="st6" d="M1015.3,651.7c-33.3-6.5-66.5-13-99.8-19.5c-1.4-8.7-2.8-17.4-4.2-26.1c34.3,5.2,68.6,10.3,102.8,15.5
		C1014.5,631.7,1014.9,641.7,1015.3,651.7z"/>
	<path class="st6" d="M921,681.5c-5.4-0.7-10.9-1.3-16.3-2c-4.7-41.3-9.5-82.7-14.2-124c5.7,0,11.3,0,17,0
		C912,597.5,916.5,639.5,921,681.5z"/>
	<path class="st1" d="M1031.8,706.2c-5.4-1.2-10.8-2.5-16.3-3.7c-1-44.3-2-88.7-3-133c4.7,0.7,9.3,1.3,14,2
		C1028.3,616.4,1030,661.3,1031.8,706.2z"/>
	<g>
		<path class="st7" d="M994,652.5c-19.5-3-38.9-6-58.4-9c-1.4-22-2.7-44-4.1-66c20.5,2,41,4,61.5,6
			C993.3,606.5,993.7,629.5,994,652.5z"/>
		<path class="st7" d="M989.5,651.5c-18-2.7-36-5.3-54-8c-1-20.7-2-41.3-3-62c18.7,1.8,37.4,3.6,56,5.4
			C988.9,608.4,989.2,630,989.5,651.5z"/>
		<path class="st7" d="M982.5,644c-13.3-2.3-26.7-4.7-40-7c-1-16-2-32-3-48c14.3,1,28.7,2,43,3C982.5,609.3,982.5,626.7,982.5,644z"
			/>
		<path class="st8" d="M982.5,640.5c-12.2-2.7-24.3-5.5-36.5-8.2c-0.8-14.3-1.7-28.5-2.5-42.8c13,0.9,26,1.7,39,2.6
			C982.5,608.2,982.5,624.4,982.5,640.5z"/>
		<path class="st9" d="M982.5,612.5c-5.3-0.3-10.7-0.6-16-0.9c-0.7-6.9-1.5-13.7-2.2-20.6c-2.9-0.2-5.8-0.3-8.8-0.5
			c0.8,6.6,1.6,13.3,2.4,19.9c-4.5-0.6-8.9-1.3-13.4-1.9c0.2,2.8,0.3,5.6,0.5,8.3c4.6,0.5,9.1,1,13.7,1.5c0.5,5.7,1,11.4,1.6,17.1
			c3,0.7,6.1,1.4,9.1,2.1c-0.7-6-1.3-12.1-2-18.1c5,0.4,10.1,0.8,15.1,1.1C982.5,617.8,982.5,615.2,982.5,612.5z"/>
	</g>
	<g>
		<path class="st10" d="M1121.5,558.5c-10,1-20,2-30,3c0-13.3,0-26.7,0-40h30V558.5z"/>
		<path class="st11" d="M1115,551.2c-5.2,0.6-10.3,1.2-15.5,1.8c0-8.2,0-16.3,0-24.5h15.5V551.2z"/>
		<path class="st10" d="M1115,543.5c-5.2,0.2-10.3,0.4-15.5,0.5c0-2.3,0-4.7,0-7h15.5V543.5z"/>
	</g>
	<g>
		<path class="st12" d="M1030.5,575.5c-54.3-7.2-108.7-14.4-163-21.7c8.9-7.1,17.7-14.2,26.6-21.3c54,5,108,10,161.9,15
			C1047.5,556.8,1039,566.2,1030.5,575.5z"/>
		<path class="st13" d="M1032.1,569.5c-53.5-6.7-107-13.3-160.5-20c7.3-5.7,14.5-11.3,21.8-17c52.6,5,105.2,10,157.7,15
			C1044.7,554.8,1038.4,562.2,1032.1,569.5z"/>
	</g>
	<g>
		<path class="st12" d="M1053.5,555.5c-54.3-7.2-108.7-14.4-163-21.7c8.9-7.1,17.7-14.2,26.6-21.3c54,5,108,10,161.9,15
			C1070.5,536.8,1062,546.2,1053.5,555.5z"/>
		<path class="st13" d="M1055.1,549.5c-53.5-6.7-107-13.3-160.5-20c7.3-5.7,14.5-11.3,21.8-17c52.6,5,105.2,10,157.7,15
			C1067.7,534.8,1061.4,542.2,1055.1,549.5z"/>
	</g>
	<g>
		<path class="st12" d="M1075.5,536.5c-54.3-8-108.7-16-163-23.9c8.9-7.9,17.7-15.7,26.6-23.6c54,5.5,108,11,161.9,16.6
			C1092.5,515.9,1084,526.2,1075.5,536.5z"/>
		<path class="st13" d="M1077.1,529.9c-53.5-7.4-107-14.7-160.5-22.1c7.3-6.3,14.5-12.5,21.8-18.8c52.6,5.5,105.2,11,157.7,16.6
			C1089.7,513.7,1083.4,521.8,1077.1,529.9z"/>
	</g>
	<path class="st12" d="M1100.4,507.5c-55.3-5.7-110.6-11.3-165.9-17c9.6-8.7,19.1-17.3,28.7-26c52.1,4.7,104.2,9.3,156.3,14
		C1113.1,488.2,1106.8,497.8,1100.4,507.5z"/>
	<path class="st13" d="M1095.7,501.5c-51.7-5.7-103.4-11.3-155.2-17c7-6.7,14-13.3,21-20c51,4.7,102,9.3,152.9,14
		C1108.2,486.2,1102,493.8,1095.7,501.5z"/>
	<path class="st12" d="M939.5,474.5"/>
	<g>
		<path class="st14" d="M1184.6,566.1c-3.9-1.7-7.9-3.4-11.8-5.2c-20.4-24.7-40.8-49.4-61.2-74c1.1-1.2,2.2-2.3,3.2-3.5
			C1138,511,1161.3,538.5,1184.6,566.1z"/>
		<path class="st15" d="M1138.4,501.1c-1.7,1-3.5,1.9-5.2,2.9c-5.9-6.8-11.7-13.6-17.6-20.4c1.4-1.6,2.7-3.2,4.1-4.8
			C1125.9,486.2,1132.2,493.7,1138.4,501.1z"/>
		<path class="st15" d="M1159.7,527.1c-1.6,0.7-3.3,1.5-4.9,2.2c-7.1-8.3-14.2-16.7-21.2-25c1.6-1.1,3.2-2.2,4.8-3.2
			C1145.5,509.8,1152.6,518.4,1159.7,527.1z"/>
		<path class="st15" d="M1178.8,550.2c-2,0.8-3.9,1.5-5.9,2.3c-6-7.7-12.1-15.4-18.1-23.1c1.6-0.7,3.3-1.5,4.9-2.2
			C1166.1,534.8,1172.5,542.5,1178.8,550.2z"/>
		<path class="st15" d="M1191.6,564.6c-1.6,1.1-3.2,2.2-4.8,3.2c-4.6-5.1-9.2-10.2-13.8-15.3c2-0.8,3.9-1.5,5.9-2.3
			C1183.1,555,1187.3,559.8,1191.6,564.6z"/>
	</g>
	<g>
		<path class="st16" d="M1027,446c-14.3,1-28.7,2-43,3c-1.3-5-2.7-10-4-15c16-1.7,32-3.3,48-5C1027.7,434.7,1027.3,440.3,1027,446z"
			/>
		<path class="st16" d="M1059.5,448.5c-10.7-1-21.3-2-32-3c0-5.3,0-10.7,0-16c11.3,2,22.7,4,34,6
			C1060.8,439.8,1060.2,444.2,1059.5,448.5z"/>
		<path class="st17" d="M1026,490c-11-1.3-22-2.7-33-4c-3-12.3-6-24.7-9-37c14.3-1,28.7-2,43-3C1026.7,460.7,1026.3,475.3,1026,490z
			"/>
		<path class="st18" d="M1027.5,445.5c-0.3,14.7-0.7,29.3-1,44c5.3-6,10.7-12,16-18c3,1,6,2,9,3c0.7-2.3,1.3-4.7,2-7s1.3-4.7,2-7
			c1.3-4,2.7-8,4-12C1048.8,447.5,1038.2,446.5,1027.5,445.5z"/>
		<path class="st19" d="M1010.5,458.5c-0.1,3.8-3.3,6.7-6,8c-5.1,2.4-10-0.4-11-1c-3.7-2.1-5.2-5.3-6-7c-0.6-1.3-3.1-6.7-1-9
			c0.7-0.7,1.6-0.9,5-1c6-0.2,8.9-0.3,10,0C1005.2,449.6,1010.7,453.3,1010.5,458.5z"/>
		<ellipse class="st19" cx="1018.5" cy="482.5" rx="5" ry="4"/>
		<path class="st20" d="M1043,467c-0.5,2.1-3.7,2.9-8,4c-4.3,1.1-5.6,0.3-6,0c-1.8-1.2-2-3.6-2-4c-0.2-2.5,1.2-4.8,3-6
			c2.5-1.7,5.3-1.2,6-1C1039.8,460.8,1043.6,464.3,1043,467z"/>
		<path class="st21" d="M1058,449c1.2,1.5,0,5-2,6c-1,0.5-1.5,0-4.5,0c-3.1,0-3.7,0.6-4.5,0c-1.7-1.2-1.9-5.5,0-7
			c0.6-0.5,1.1-0.4,6,0C1057,448.4,1057.6,448.4,1058,449z"/>
	</g>
	<g>
		<path class="st22" d="M1013,715"/>
		<line class="st23" x1="1030" y1="704" x2="1030" y2="706"/>
		<path class="st24" d="M1021,706.5c0,0.7-0.2,1.8-1,2.5c-0.5,0.5-1,0.6-2,1c-0.4,0.2-3.1,1.3-3,2c0,0.4,1.1,0.9,6,1
			c1.5,0,3,0,4.5,0v1h3v-1c0,0,0,0,0,0v-6.5C1026,706.5,1023.5,706.5,1021,706.5z"/>
		<path class="st24" d="M1040.5,706.5c0,0.7,0.2,1.8,1,2.5c0.5,0.5,1,0.6,2,1c0.4,0.2,3.1,1.3,3,2c0,0.4-1.1,0.9-6,1
			c-1.5,0-3,0-4.5,0v1h-3v-1c0,0,0,0,0,0v-6.5C1035.5,706.5,1038,706.5,1040.5,706.5z"/>
		<path class="st22" d="M1029.2,707c-1.4,0.5-3.6,1-6.2,1c-1.5,0-3.7-0.2-6.2-1c-0.1,0-0.3,0-0.5-0.2c-0.1-0.2-0.2-0.4-0.2-0.6v-1.3
			c0-0.5,0.5-0.9,0.9-0.8c1.6,0.4,3.7,0.8,6.1,0.8c1.6,0,3.7-0.2,6.1-0.8c0.5-0.1,0.9,0.3,0.9,0.8v1.3
			C1030,706.6,1029.7,707,1029.2,707z"/>
		<path class="st22" d="M1043.2,707c-1.4,0.5-3.6,1-6.2,1c-1.5,0-3.7-0.2-6.2-1c-0.1,0-0.3,0-0.5-0.2c-0.1-0.2-0.2-0.4-0.2-0.6v-1.3
			c0-0.5,0.5-0.9,0.9-0.8c1.6,0.4,3.7,0.8,6.1,0.8c1.6,0,3.7-0.2,6.1-0.8c0.5-0.1,0.9,0.3,0.9,0.8v1.3
			C1044,706.6,1043.7,707,1043.2,707z"/>
		<g>
			<g>
				<ellipse class="st25" cx="1012.5" cy="700" rx="3.5" ry="2"/>
				<g>
					<g>
						<path d="M1010.9,700.9c-0.1,0.2-0.2,0.5-0.2,0.8c0,0.1,0.1,0.2,0.1,0.1c0.1,0,0.1-0.1,0.2-0.1c0,0,0-0.1,0,0c0,0,0,0,0,0
							c0,0,0-0.1,0-0.1c0-0.1,0-0.1,0-0.2c0-0.1,0.1-0.2,0.1-0.4c0-0.1,0-0.2-0.1-0.2C1011,700.8,1010.9,700.8,1010.9,700.9
							L1010.9,700.9z"/>
					</g>
				</g>
				<g>
					<g>
						<path d="M1012.5,701.2c0,0.2,0,0.4,0,0.6c0,0.1,0.1,0.2,0.2,0.2c0.1,0,0.2-0.1,0.2-0.2c0-0.2,0-0.4,0-0.6
							c0-0.1-0.1-0.2-0.2-0.1C1012.6,701,1012.5,701.1,1012.5,701.2L1012.5,701.2z"/>
					</g>
				</g>
				<g>
					<g>
						<path d="M1013.9,701.1C1013.9,701.2,1013.9,701.2,1013.9,701.1C1014,701.2,1014,701.2,1013.9,701.1
							C1014,701.2,1013.9,701.2,1013.9,701.1c0.1,0.1,0.1,0.1,0.1,0.1c0,0,0.1,0.1,0.1,0.1c0,0,0,0,0,0c0,0,0,0,0,0c0,0,0,0,0,0
							c0,0,0,0,0,0.1c0,0,0.1,0.1,0.1,0.1c0,0,0.1,0.1,0.1,0.1c0,0,0.1,0,0.1,0c0,0,0.1-0.1,0.1-0.1c0,0,0-0.1,0-0.1
							c-0.1-0.2-0.3-0.4-0.5-0.5c-0.1,0-0.2,0-0.2,0.1C1013.8,701,1013.8,701.1,1013.9,701.1L1013.9,701.1z"/>
					</g>
				</g>
			</g>
			<rect x="1008" y="696" class="st26" width="8" height="3"/>
			<g>
				<path class="st27" d="M1058,683c-1.1-0.7-2.2-0.8-4-1c-0.7-0.1-2.9-0.3-5,0c-1.4,0.2-3.3,0.8-5,1.7c0-0.6,0-1.2,0-1.7h-28
					c0,0.2,0,0.4,0,0.6c-1-0.2-2-0.4-3-0.6c-1,1.6-2.1,3.6-3,6c-1.2,3.1-1.7,5.8-2,8c2.7,0,5.3,0,8,0c0,2.8,0,5.6,0,8.4
					c5.2,1.2,9.9,1.6,14,1.6c5.2,0,10-0.7,14-1.6c0-2.8,0-5.5,0-8.3c1.7-0.1,3.3-1.7,8-4.1c5.8-2.9,8.8-3.1,9-5
					C1061.2,685.3,1059.1,683.7,1058,683z"/>
				<g>
					<g>
						<path d="M1015.7,693.9c0,0.7,0,1.4,0,2.1c0,0.2,0.3,0.2,0.3,0c0-0.7,0-1.4,0-2.1C1016,693.7,1015.7,693.7,1015.7,693.9
							L1015.7,693.9z"/>
					</g>
				</g>
			</g>
			<g>
				<g>
					<path class="st22" d="M1056.3,708c-1.8-0.3-3.7-0.7-5.5-1c0-3.3,0-6.7,0-10c1.8,0.7,3.7,1.3,5.5,2
						C1056.3,702,1056.3,705,1056.3,708z"/>
					<g>
						<path d="M1053,695.9c0-2.1,1.2-3.8,2.6-3.8s2.6,1.7,2.6,3.8c0,0.3,0,0.7-0.1,1c0.3-0.6,0.5-1.3,0.5-2c0-2.1-1.3-3.8-3-3.8
							s-3,1.7-3,3.8c0,0.7,0.2,1.4,0.5,2C1053,696.5,1053,696.2,1053,695.9z"/>
						<g>
							<polygon class="st24" points="1061.1,697.1 1058.5,696 1055.9,695 1055.9,695 1055.9,695 1055.9,695 1055.9,695 1053.3,696 
								1050.7,697.1 1053.4,698 1055.7,698.8 1055.7,698.9 1055.9,698.8 1056.1,698.9 1056.1,698.8 1058.4,698 							"/>
							<path class="st24" d="M1057.7,696.3c-0.1,0.8-1.5,0.8-2,0.8s-1.9,0-2-0.8c-0.1-0.7,0.9-2.3,2-2.3
								C1056.8,694,1057.8,695.5,1057.7,696.3z"/>
						</g>
						
							<ellipse transform="matrix(0.1602 -0.9871 0.9871 0.1602 195.5147 1634.8009)" class="st22" cx="1058.5" cy="702.5" rx="6.6" ry="3.4"/>
					</g>
				</g>
				<g>
					<ellipse class="st28" cx="1055" cy="688.5" rx="5" ry="3.5"/>
					<ellipse class="st24" cx="1055.5" cy="689.5" rx="3.5" ry="2.5"/>
					<g>
						<ellipse class="st29" cx="1055.5" cy="690" rx="2.5" ry="2"/>
						<g>
							<g>
								<path d="M1054.3,691.1c0,0.1,0,0.2,0.1,0.3c0,0,0,0,0,0c0,0,0,0,0,0c0,0,0,0,0,0c0,0,0,0.1,0,0.1c0,0.1,0,0.1,0,0.2
									c0,0.1,0.1,0.2,0.2,0.2c0.1,0,0.2-0.1,0.2-0.2c0-0.2,0-0.5-0.1-0.7c0-0.1-0.1-0.1-0.2-0.1
									C1054.4,690.9,1054.3,691,1054.3,691.1L1054.3,691.1z"/>
							</g>
						</g>
						<g>
							<g>
								<path d="M1055.4,690.9c0.1,0.3,0.2,0.7,0.2,1c0,0.1,0.1,0.2,0.2,0.2c0.1,0,0.2-0.1,0.2-0.2c0-0.4-0.1-0.7-0.2-1.1
									c0-0.1-0.1-0.1-0.2-0.1C1055.5,690.7,1055.4,690.8,1055.4,690.9L1055.4,690.9z"/>
							</g>
						</g>
						<g>
							<g>
								<path d="M1056.5,690.8C1056.5,690.8,1056.6,690.8,1056.5,690.8C1056.5,690.8,1056.6,690.8,1056.5,690.8
									C1056.6,690.8,1056.6,690.9,1056.5,690.8c0.1,0.1,0.1,0.1,0.2,0.1c0,0,0.1,0.1,0.1,0.1c0,0,0,0,0,0c0,0,0,0,0,0
									c0,0,0,0,0,0.1c0,0.1,0.1,0.1,0.1,0.2c0,0,0,0,0,0c0,0,0,0,0,0c0,0,0,0,0,0.1c0,0,0,0.1,0,0.1c0,0.1,0.1,0.1,0.2,0.1
									c0.1,0,0.1-0.1,0.1-0.2c-0.1-0.4-0.3-0.7-0.6-0.9c-0.1,0-0.2,0-0.2,0.1C1056.4,690.7,1056.5,690.8,1056.5,690.8
									L1056.5,690.8z"/>
							</g>
						</g>
					</g>
				</g>
			</g>
		</g>
		<path class="st30" d="M1045,668c-0.8,0-0.9,2.5-3,6.1c-0.7,1.1-2.1,3.4-4.2,5c-3.3,2.4-7.2,2.1-8.8,2c-5.9-0.4-9.9-3.9-11-5
			c-4.6-4.4-4.8-9.2-6-9c-1.4,0.2-2.4,7,0,13c0.4,0.9,1.7,4.1,5,7c0.6,0.5,1.8,1.6,3.6,2.6l1.8,2.4l1-1.1c0.6,0.2,1.2,0.4,1.9,0.6
			l1.1,1.5l1-1.1c0.4,0,0.8,0.1,1.2,0.1l0.8,1l0.9-1c0.6,0,1.2-0.1,2-0.2l1.5,1.2l1-1.8c0.2-0.1,0.4-0.1,0.6-0.2l2,1l1.1-2.4
			c1.6-0.9,3.1-2,4.5-3.6c0.5-0.6,3.7-4.4,4-10C1047.2,672.1,1046,668,1045,668z"/>
		<g>
			<path class="st31" d="M1043,676c-0.3,1.5-0.7,3.4-2,5c-2.3,2.8-6.1,2.9-12,3c-5.9,0.1-9.9,0.1-12.2-2.4c-2.2-2.4-2.7-6-2.8-6.6
				c-0.2-1.3-0.5-3,0.1-4.5c2.3-5.7,13-5.6,15.2-5.6c4.1,0.1,9.8,0.1,12.9,4.4c0.2,0.3,0.4,0.5,0.4,0.5
				C1043.8,672,1043.3,674.4,1043,676z"/>
			<path class="st30" d="M1038.8,673.1c-0.5-0.4-1.7-1.1-3.4-1.6c-1.5-0.4-2.7-0.4-3.3-0.4c-0.1,0-0.8-0.3-1.2-0.8
				c-0.3-0.3-0.4-0.7-0.3-1l0,0c0.1-0.1,0.3-0.5,0.8-0.7c0.3-0.1,0.7-0.2,0.9-0.2c0.8,0,2.2,0,3.9,0.5c2,0.6,3.4,1.4,4,1.8
				c0.2,0.1,0.4,0.3,0.6,0.6c0.3,0.5,0.3,0.9,0.3,1l0,0C1040.8,673.2,1039.8,673.5,1038.8,673.1z"/>
			<path class="st30" d="M1017.8,673.1c0.5-0.4,1.7-1.1,3.4-1.6c1.5-0.4,2.7-0.4,3.3-0.4c0.1,0,0.8-0.3,1.2-0.8
				c0.3-0.3,0.4-0.7,0.3-1l0,0c-0.1-0.1-0.3-0.5-0.8-0.7c-0.3-0.1-0.7-0.2-0.9-0.2c-0.8,0-2.2,0-3.9,0.5c-2,0.6-3.4,1.4-4,1.8
				c-0.2,0.1-0.4,0.3-0.6,0.6c-0.3,0.5-0.3,0.9-0.3,1l0,0C1015.7,673.2,1016.7,673.5,1017.8,673.1z"/>
			<circle class="st32" cx="1021.3" cy="675.1" r="2"/>
			<circle class="st32" cx="1035.3" cy="675.1" r="2"/>
			<g>
				<g>
					<path d="M1028.4,676.1c-0.1,0.1-0.1,0.2-0.1,0.4c0,0.1,0,0.3-0.1,0.4c-0.1,0.1-0.3,0.2-0.4,0.3c-0.1,0.1-0.2,0.2-0.3,0.3
						c-0.4,0.4-0.6,1.1-0.4,1.6c0.5,1.1,2.1,1.4,3,0.6c0.1-0.1-0.1-0.3-0.2-0.2c-0.4,0.4-1,0.5-1.5,0.3c-0.5-0.1-1-0.5-1.1-1.1
						c-0.1-0.6,0.3-1.1,0.7-1.4c0.2-0.1,0.4-0.2,0.5-0.4c0.1-0.2,0-0.5,0.1-0.7C1028.7,676.1,1028.5,675.9,1028.4,676.1
						L1028.4,676.1z"/>
				</g>
			</g>
			<g>
				<g>
					<path d="M1025.7,681.5c1.7,1.5,4.2,1.5,5.9,0c0.1-0.1-0.1-0.3-0.2-0.2c-1.5,1.4-3.9,1.4-5.4,0
						C1025.7,681.1,1025.5,681.4,1025.7,681.5L1025.7,681.5z"/>
				</g>
			</g>
		</g>
		<g>
			<path class="st27" d="M1018.4,632.6c-0.7-0.3-1.4,0.2-1.4,0.9c0,3.9-0.2,8.4-1,13.5c-1,5.9-2.5,11-4,15c1.9-1.4,7.3-4.9,15-5
				c8.3-0.2,14.1,3.7,16,5c-0.9-3.8-3.3-11.6-10-19C1027.8,637.3,1022.1,634.2,1018.4,632.6z"/>
			<circle class="st22" cx="1017.5" cy="631.5" r="1.5"/>
			<path class="st22" d="M1031,641c-1.8-0.3-4.4-0.4-7.4,0c-2.9,0.4-5.3,1.3-6.9,2c0.1-1.7,0.2-3.3,0.3-5c1.2-0.4,2.8-0.8,4.6-1
				c1.7-0.2,3.2-0.1,4.4,0C1027.7,638.3,1029.3,639.7,1031,641z"/>
			<path class="st22" d="M1040,653c-3-0.7-7.4-1.4-12.6-1c-5.6,0.4-10,1.8-13,3c0.3-1.7,0.7-3.3,1-5c2.3-1.1,5.7-2.4,10-3
				c4.3-0.6,8-0.4,10.6,0C1037.3,649,1038.7,651,1040,653z"/>
			<path class="st22" d="M1047,669c-0.2,1.4-0.8,3.8-2,4c-1.2,0.2-1.9-2.1-4-4c-3.3-3-8-3-12-3c-2.9,0-6.4,0-10,2
				c-4.3,2.3-5.3,5.5-7,5c-2-0.7-3.3-5.2-2.1-8.2c0.3-0.8,0.9-1.6,1.1-1.8c0,0,1.2-1.7,3-3c3.1-2.3,7-2.9,8-3c3-0.4,5.2-0.2,8,0
				c7.1,0.6,11,1,14,4C1044.2,661.2,1047.5,664.6,1047,669z"/>
		</g>
		<line class="st22" x1="1051" y1="697" x2="1056" y2="708"/>
		<path class="st22" d="M1056,699"/>
		<line class="st22" x1="1050.8" y1="706.8" x2="1056" y2="699"/>
		<line class="st22" x1="1061.1" y1="697.1" x2="1056.3" y2="708"/>
		<line class="st22" x1="1056.3" y1="699" x2="1061" y2="706"/>
	</g>
</g>
<g>
	
		<image style="overflow:visible;opacity:0.75;" width="205" height="72" xlink:href="47204990.png"  transform="matrix(1 0 0 1 941 365)">
	</image>
	<g>
		<g>
			<path class="st33" d="M963.2,382.3c1.2-0.7,1.7-0.3,1.7,1c-1.4,2.2-3,4.2-4.9,6l4.2-0.3c0.9-0.9,1.9-2.1,2.8-3.6
				c0.9-0.7,1.6-0.4,2.1,0.7c-2.6,4-5.1,6.8-7.7,8.6l6.3-0.3l-1.4-2.3c0-1.1,0.6-1.4,1.7-1c1.4,2,2.3,4,2.8,6
				c-0.2,1.1-0.8,1.3-1.7,0.7l-0.7-1.7l-9.1,0.7c-1.9,0-2.2-0.7-1-2c1.4-0.9,3-2.2,4.9-4l-3.5,0.3c-2.3,0.2-2.9-0.4-1.7-2
				C960.8,386.1,962.5,383.8,963.2,382.3z M959.7,398.2c0.7-1.1,1.4-1.1,2.1,0c-0.2,2.6-0.9,5-2.1,6.9c-1.4,0.4-2.1,0.1-2.1-1
				C958.8,402.4,959.5,400.4,959.7,398.2z M975.4,404.5c0.7-1.3,1.4-1.3,2.1,0v2h10.8c2.3,0,3.4,0.9,3.1,2.6v2c0.2,2-1,2.9-3.8,2.6
				h-10.1v3.6c3,0,7.6-0.3,13.6-1l-1-1.3c0-1.1,0.6-1.4,1.7-1c1.6,1.5,2.9,3.4,3.8,5.6c-0.2,1.1-0.9,1.3-2.1,0.7
				c-0.2-0.7-0.7-1.3-1.4-2c-9.8,0.9-20.7,1.3-32.8,1.3c-0.9-0.7-0.9-1.3,0-2c4.9,0,10.2-0.1,16.1-0.3v-3.6h-10.1
				c-2.1,0.2-3.1-0.7-3.1-2.6v-2c0-1.8,1-2.6,3.1-2.6h10.1V404.5z M962.9,398.2c0.5-1.1,1.2-1.2,2.1-0.3c0.5,1.5,0.8,3.5,1,6
				c-0.7,1.3-1.4,1.4-2.1,0.3C963.7,401.5,963.3,399.5,962.9,398.2z M975.4,408.4h-9.1c-1.4,0-2.1,0.6-2.1,1.7
				c0,1.3,0.7,1.9,2.1,1.7h9.1V408.4z M966,398.2c0.2-1.1,0.9-1.3,2.1-0.7c0.7,1.5,1.2,3.4,1.4,5.6c-0.5,1.3-1.2,1.4-2.1,0.3
				C967.2,401.3,966.7,399.5,966,398.2z M975.8,385.3c-0.5-0.9-1.3-2-2.4-3.3c-0.2-1.1,0.3-1.4,1.7-1c1.6,1.3,2.7,2.8,3.1,4.3h3.8
				c1.4,0.7,1.4,1.3,0,2h-11.2c-1.2-0.7-1.2-1.3,0-2H975.8z M971.9,389.3h9.1c0.9,0.7,0.9,1.3,0,2h-9.1
				C971,390.6,971,389.9,971.9,389.3z M971.9,392.6h9.1c0.9,0.7,0.9,1.3,0,2h-9.1C971,393.9,971,393.2,971.9,392.6z M971.2,399.2
				c0-2.2,1.3-3.3,3.8-3.3h2.8c2.8,0,4.1,1.1,3.8,3.3v0.7c0.2,2.4-1,3.5-3.8,3.3h-2.8c-2.6,0.2-3.8-0.9-3.8-3.3V399.2z M977.5,397.9
				h-2.1c-1.4,0-2.1,0.6-2.1,1.7c0,1.3,0.7,1.9,2.1,1.7h2.1c1.6,0.2,2.3-0.3,2.1-1.7C979.9,398.4,979.2,397.9,977.5,397.9z
				 M987.3,408.4h-9.8v3.3h9.8c1.6,0.2,2.3-0.3,2.1-1.7C989.6,409,988.9,408.4,987.3,408.4z M984.5,397.9c0.7-0.9,1.4-0.8,2.1,0.3
				c-0.2,2.2-0.8,4.4-1.7,6.6c-1.2,0.7-1.9,0.4-2.1-0.7C983.7,402.2,984.3,400.1,984.5,397.9z M988.7,382c1.2-0.4,1.7-0.1,1.7,1
				c-1.4,2.2-3,4.3-4.9,6.3l3.8-0.3c0.9-0.9,1.9-2,2.8-3.3c1.2-0.4,1.7-0.1,1.7,1c-2.6,3.5-4.9,6.2-7,7.9c1.2,0.2,3.1,0.1,5.9-0.3
				c-0.5-0.7-0.8-1.2-1-1.7c0-1.1,0.6-1.4,1.7-1c1.4,1.8,2.4,3.8,3.1,6c-0.2,1.1-0.8,1.3-1.7,0.7c-0.5-0.9-0.8-1.7-1-2.3
				c-2.1,0.2-5.4,0.4-9.8,0.7c-1.6-0.2-1.7-0.9-0.3-2c1.2-0.7,2.7-2,4.5-4l-3.5,0.3c-2.1,0-2.6-0.7-1.4-2
				C985.8,386.3,987.5,384,988.7,382z M988,398.2c0.5-1.1,1.2-1.2,2.1-0.3c0.5,2,0.8,4.2,1,6.6c-0.5,1.1-1.2,1.2-2.1,0.3
				C988.8,402.4,988.5,400.2,988,398.2z M991.9,398.5c0-1.1,0.6-1.4,1.7-1c1.2,2,2,4.1,2.4,6.3c-0.5,1.3-1.2,1.4-2.1,0.3
				C993.7,402.6,993,400.7,991.9,398.5z"/>
			<path class="st33" d="M1020.9,381.6c0.7-0.7,1.5-0.7,2.4,0c6.5,5.5,12.8,9.3,18.9,11.3c0.9,1.1,0.7,1.8-0.7,2
				c-6.1-2-12.3-5.6-18.9-10.9c-0.5-0.4-0.9-0.3-1.4,0.3c-5.4,4.9-11.5,8.2-18.5,9.9c-1.4-0.4-1.5-1.1-0.3-2
				C1009.4,390.5,1015.5,386.9,1020.9,381.6z M1008,393.6h27.9c1.2,0.7,1.2,1.3,0,2h-12.6v6h15.4c0.9,0.7,0.9,1.3,0,2h-15.4v13.9
				h5.6c1.9-3.7,3.5-7.7,4.9-11.9c0.9-0.9,1.6-0.8,2.1,0.3c-1.4,4.2-2.9,8.1-4.5,11.6h8.7c0.9,0.7,0.9,1.3,0,2h-36.3
				c-0.9-0.7-0.9-1.3,0-2h9.1c-0.7-2.9-2.2-6.7-4.5-11.6c0.5-1.1,1.2-1.3,2.1-0.7c1.9,3.8,3.5,7.8,4.9,12.2h5.9v-13.9h-16.1
				c-1.2-0.7-1.2-1.3,0-2h16.1v-6H1008C1007,394.9,1007,394.2,1008,393.6z"/>
			<path class="st33" d="M1048.5,389.9h31.4c3.5,0,4.5,1.2,3.1,3.6c-5.4,7.5-14,14-25.8,19.5c4,2.9,8.1,4.2,12.6,4h16.4
				c0.9,0.7,0.9,1.3,0,2h-16.4c-4.4,0.4-9.2-1.1-14.3-4.6c-1.9-1.1-4.3,0.2-7.3,4c-1.2,0.2-1.6-0.2-1.4-1.3c2.3-3.3,5-5,8-5
				c11.6-5.1,20.3-11.4,25.8-18.9c0.9-0.9,0.3-1.3-1.7-1.3h-30.4C1047.6,391.2,1047.6,390.6,1048.5,389.9z M1064.2,381
				c1.6,2.6,2.9,5.1,3.8,7.3c-0.2,1.1-0.9,1.3-2.1,0.7c-0.9-2.2-2.2-4.5-3.8-6.9C1062.1,380.6,1062.8,380.3,1064.2,381z"/>
			<path class="st33" d="M1098.2,382.6h27.2c3,0,4.4,1.4,4.2,4.3v29.1c0.2,2.6-1.3,3.9-4.5,3.6h-26.5c-2.8,0.2-4.2-0.9-4.2-3.3
				v-29.8C1094.3,384,1095.6,382.6,1098.2,382.6z M1116.3,384.6v4h4.5c-0.2-0.9-0.6-1.8-1-2.6c0.2-0.9,0.8-1.1,1.7-0.7
				c0.7,1.1,1.2,2.2,1.4,3.3h2.4c0.9,0.7,0.9,1.3,0,2h-9.1c0.9,6.8,1.9,11.5,2.8,13.9c1.9-3.7,3.1-7.4,3.8-10.9
				c0.9-0.9,1.6-0.8,2.1,0.3c-0.9,4.2-2.6,8.5-4.9,12.9c0.9,2,1.7,3.6,2.4,5c0.9,1.8,1.4,0.2,1.4-4.6c0.7-0.9,1.4-0.9,2.1,0
				c0.2,7.3-1,9.8-3.8,7.6c-1.2-1.1-2.3-3.1-3.5-6c-1.2,1.8-3.3,4.1-6.3,7c-1.2,0.4-1.7,0-1.7-1.3c3-2.6,5.4-5.2,7-7.6
				c-1.4-3.1-2.6-8.5-3.5-16.2h-15.4c-0.9-0.7-0.9-1.3,0-2h15.4v-4h-15.7c-1.4,0-2.1,0.7-2.1,2v29.5c0,1.3,0.8,1.9,2.4,1.7h25.8
				c2.1,0.2,3-0.4,2.8-2v-28.8c0.2-1.5-0.6-2.3-2.4-2.3H1116.3z M1112.8,407.8c1.6,0.2,1.9,0.9,0.7,2c-3.7,2.2-8.5,4.1-14.3,5.6
				c-1.2,0-1.4-0.7-0.7-2C1104.1,411.9,1108.9,410,1112.8,407.8z M1103.4,393.2h5.6c2.8,0,4.1,1.3,3.8,4v6.6
				c0.2,2.4-1.2,3.5-4.2,3.3h-4.5c-3,0.4-4.5-0.8-4.5-3.6v-6.3C1099.6,394.5,1100.8,393.2,1103.4,393.2z M1108.3,395.2h-4.2
				c-1.6,0-2.4,0.8-2.4,2.3v5.6c0,1.5,0.8,2.2,2.4,2h4.2c1.9,0.2,2.7-0.4,2.4-2v-5.3C1111,396.1,1110.1,395.2,1108.3,395.2z"/>
		</g>
	</g>
</g>
</svg>
