<?xml version="1.0" encoding="utf-8"?>
<!-- Generator: Adobe Illustrator 23.0.5, SVG Export Plug-In . SVG Version: 6.00 Build 0)  -->
<svg version="1.1" id="圖層_1" xmlns="http://www.w3.org/2000/svg" xmlns:xlink="http://www.w3.org/1999/xlink" x="0px" y="0px"
	 viewBox="0 0 1920 1080" style="enable-background:new 0 0 1920 1080;" xml:space="preserve">
<style type="text/css">
	.st0{fill:#55481B;}
	.st1{fill:#5E831A;}
	.st2{fill:#FFFFFF;stroke:#FFFFFF;stroke-miterlimit:10;}
</style>
<g>
	<g>
		<path class="st0" d="M951.8,665c-9.1,0.3-18.3,0.5-27.4,0.8c-1.9-23-3.2-47.4-3.7-73c-0.5-24.8-0.1-48.5,0.8-71
			c6.1,0.1,12.3,0.3,18.4,0.4c-0.2,25.4,0.8,53.1,3.7,82.8C945.7,626.3,948.5,646.3,951.8,665z"/>
		<path class="st1" d="M971.8,517c4.1-2.9,6.7-7.2,6.7-11.9c0-8.9-9.2-16.1-20.4-16.1c-2.4,0-4.7,0.3-6.9,0.9
			c-1.3-8.7-9.1-15.4-18.4-15.4c-9.8,0-17.8,7.3-18.6,16.5c-3.7-2.7-8.5-4.3-13.9-4.3c-11.3,0-20.4,7.2-20.4,16.1
			c0,4.5,2.4,8.6,6.2,11.6c-7.8,2.3-13.3,8.2-13.3,15.1c0,8.8,9.1,16,20.3,16.1c2.9,6.2,10.4,10.6,19.2,10.6c4.5,0,8.6-1.1,12-3.1
			c3.4,1.9,7.5,3.1,12,3.1c8.5,0,15.7-4.1,18.8-9.8c2.6,1,5.6,1.5,8.7,1.5c11.3,0,20.4-7.2,20.4-16.1
			C984.1,525.1,979.1,519.5,971.8,517z"/>
	</g>
	<g>
		<path class="st0" d="M928.2,679.2c-3.9-18.7-7.2-38.7-9.6-59.9c-3.4-29.7-4.6-57.4-4.3-82.8c-7.2-0.1-14.5-0.3-21.7-0.4
			c-1.1,22.4-1.5,46.1-1,71c0,0.8,0,1.5,0.1,2.3c-6-2.6-11.2-4.3-15-5.4c-6.2-1.8-9.3-2.3-14.5-4.3c-6.6-2.6-11.4-5.7-14.5-7.9
			c-1.7-3.7-3.9-8.2-6.3-13.4c-3.7-8-6.5-14.2-7.7-17c-1.8-4-3.9-8.8-6.3-14.2c-0.8-0.1-1.6-0.3-2.4-0.4c1.8,6.2,3,11.2,3.9,14.6
			c2.1,8.6,2.6,12.3,4.8,18.1c1.9,4.9,3.9,8.7,5.3,11c4.5,6.9,9.7,10.6,13.5,12.6c7,3.8,12.2,3.7,22.7,7.5c7.4,2.7,13,5.7,16.3,7.7
			c0.1-0.2,0.2-0.5,0.4-0.7c0.7,21.8,2.1,42.6,4,62.4C906.7,679.7,917.4,679.5,928.2,679.2z"/>
		<path class="st1" d="M951.8,531.2c4.8-2.9,7.8-7.2,7.8-11.9c0-8.9-10.8-16.1-24.1-16.1c-2.8,0-5.6,0.3-8.1,0.9
			c-1.5-8.7-10.7-15.4-21.7-15.4c-11.5,0-21,7.3-21.9,16.5c-4.3-2.7-10.1-4.3-16.4-4.3c-13.3,0-24.1,7.2-24.1,16.1
			c0,4.5,2.8,8.6,7.3,11.6c-9.1,2.3-15.6,8.2-15.6,15.1c0,8.8,10.7,16,23.9,16.1c3.4,6.2,12.2,10.6,22.6,10.6
			c5.3,0,10.1-1.1,14.1-3.1c4,1.9,8.8,3.1,14.1,3.1c10,0,18.5-4.1,22.2-9.8c3.1,1,6.5,1.5,10.2,1.5c13.3,0,24.1-7.2,24.1-16.1
			C966.3,539.3,960.3,533.7,951.8,531.2z"/>
	</g>
	<g>
		<path class="st0" d="M1008.2,661.5c-9.1,0.3-18.3,0.5-27.4,0.8c-1.9-23-3.2-47.4-3.7-73c-0.5-24.8-0.1-48.5,0.8-71
			c6.1,0.1,12.3,0.3,18.4,0.4c-0.2,25.4,0.8,53.1,3.7,82.8C1002.1,622.8,1004.9,642.8,1008.2,661.5z"/>
		<path class="st1" d="M1028.3,513.4c4.1-2.9,6.7-7.2,6.7-11.9c0-8.9-9.2-16.1-20.4-16.1c-2.4,0-4.7,0.3-6.9,0.9
			c-1.3-8.7-9.1-15.4-18.4-15.4c-9.8,0-17.8,7.3-18.6,16.5c-3.7-2.7-8.5-4.3-13.9-4.3c-11.3,0-20.4,7.2-20.4,16.1
			c0,4.5,2.4,8.6,6.2,11.6c-7.8,2.3-13.3,8.2-13.3,15.1c0,8.8,9.1,16,20.3,16.1c2.9,6.2,10.4,10.6,19.2,10.6c4.5,0,8.6-1.1,12-3.1
			c3.4,1.9,7.5,3.1,12,3.1c8.5,0,15.7-4.1,18.8-9.8c2.6,1,5.6,1.5,8.7,1.5c11.3,0,20.4-7.2,20.4-16.1
			C1040.5,521.6,1035.5,515.9,1028.3,513.4z"/>
	</g>
	<g>
		<path class="st0" d="M985.1,677.6c-10.8,0.3-21.5,0.5-32.3,0.8c-2.2-23-3.8-47.4-4.3-73c-0.6-24.8-0.1-48.5,1-71
			c7.2,0.1,14.5,0.3,21.7,0.4c-0.2,25.4,0.9,53.1,4.3,82.8C977.9,638.9,981.2,658.9,985.1,677.6z"/>
		<path class="st1" d="M1008.7,529.6c4.8-2.9,7.8-7.2,7.8-11.9c0-8.9-10.8-16.1-24.1-16.1c-2.8,0-5.6,0.3-8.1,0.9
			c-1.5-8.7-10.7-15.4-21.7-15.4c-11.5,0-21,7.3-21.9,16.5c-4.3-2.7-10.1-4.3-16.4-4.3c-13.3,0-24.1,7.2-24.1,16.1
			c0,4.5,2.8,8.6,7.3,11.6c-9.1,2.3-15.6,8.2-15.6,15.1c0,8.8,10.7,16,23.9,16.1c3.4,6.2,12.2,10.6,22.6,10.6
			c5.3,0,10.1-1.1,14.1-3.1c4,1.9,8.8,3.1,14.1,3.1c10,0,18.5-4.1,22.2-9.8c3.1,1,6.5,1.5,10.2,1.5c13.3,0,24.1-7.2,24.1-16.1
			C1023.2,537.8,1017.2,532.1,1008.7,529.6z"/>
	</g>
	<g>
		<path class="st0" d="M1002.9,675.3c10.8,0.3,21.5,0.5,32.3,0.8c2.2-23,3.8-47.4,4.3-73c0.6-24.8,0.1-48.5-1-71
			c-7.2,0.1-14.5,0.3-21.7,0.4c0.2,25.4-0.9,53.1-4.3,82.8C1010.1,636.6,1006.8,656.6,1002.9,675.3z"/>
		<path class="st1" d="M1096,539.8c0-6.9-6.5-12.8-15.6-15.1c4.5-2.9,7.3-7,7.3-11.6c0-8.9-10.8-16.1-24.1-16.1
			c-6.3,0-12.1,1.6-16.4,4.3c-0.9-9.3-10.3-16.5-21.9-16.5c-11.1,0-20.2,6.7-21.7,15.4c-2.5-0.6-5.3-0.9-8.1-0.9
			c-13.3,0-24.1,7.2-24.1,16.1c0,4.7,3,8.9,7.8,11.9c-8.5,2.5-14.5,8.2-14.5,14.8c0,8.9,10.8,16.1,24.1,16.1c3.6,0,7.1-0.5,10.2-1.5
			c3.7,5.8,12.2,9.8,22.2,9.8c5.3,0,10.1-1.1,14.1-3.1c4,1.9,8.8,3.1,14.1,3.1c10.4,0,19.2-4.4,22.6-10.6
			C1085.3,555.8,1096,548.6,1096,539.8z"/>
	</g>
</g>
<g>
	
		<image style="overflow:visible;opacity:0.75;" width="119" height="72" xlink:href="BB3CF221.png"  transform="matrix(1 0 0 1 906 399)">
	</image>
	<g>
		<g>
			<path class="st2" d="M931.7,435.5v-3.3c0.9-0.9,1.6-0.9,2.1,0v3.3h6.6c1.2,0.7,1.2,1.3,0,2h-6.6v1.3c3.3,3.5,5.5,6,6.6,7.3
				c0.5,1.3,0,1.9-1.4,1.7c-1.6-2-3.4-4-5.2-6v12.2c-0.7,1.1-1.4,1.1-2.1,0v-11.9c-1.9,3.8-4.7,7.3-8.4,10.6c-1.4,0.2-2-0.2-1.7-1.3
				c4.9-4.4,8.3-9,10.1-13.9h-7.3c-1.2-0.7-1.2-1.3,0-2H931.7z M943.6,415.7v3.3H959c0.9,0.7,0.9,1.3,0,2h-14
				c5.4,4.9,11.1,8.1,17.1,9.6c1.2,0.9,1,1.5-0.3,2c-6.3-1.5-12.3-4.9-18.2-9.9v11.9c-0.7,1.1-1.4,1.1-2.1,0v-11.9
				c-5.1,5.1-11.1,8.2-17.8,9.3c-1.4-0.4-1.5-1.1-0.3-2c7-1.3,12.6-4.3,16.8-8.9h-14c-0.9-0.7-0.9-1.3,0-2h15.4v-3.3
				C942.2,414.6,942.9,414.6,943.6,415.7z M952.7,431.6v4h8.4c0.9,0.7,0.9,1.3,0,2h-8.4c3,5.1,6.5,9.5,10.5,13.2
				c0.2,1.3-0.3,1.8-1.7,1.3c-3.5-3.5-6.4-7.2-8.7-10.9v13.2c-0.7,1.1-1.4,1.1-2.1,0v-13.2c-2.8,4.2-5.8,7.8-9.1,10.9
				c-1.4,0.2-1.9-0.3-1.4-1.7c4.4-4.2,7.8-8.5,10.1-12.9h-5.9c-0.9-0.7-0.9-1.3,0-2h6.3v-4C951.3,430.7,952,430.7,952.7,431.6z"/>
			<path class="st2" d="M977.5,422.3h5.6c0.9,0.7,0.9,1.3,0,2h-5.6v0.7c2.8,3.8,5.2,7.7,7.3,11.9c-0.2,1.1-0.9,1.4-2.1,1
				c-1.6-3.3-3.4-6.4-5.2-9.3v25.5c-0.7,1.1-1.4,1.1-2.1,0v-23.8c-1.6,6.4-4,12-7,16.9c-1.4,0.4-2,0-1.7-1.3
				c3.5-5.5,6.3-12.7,8.4-21.5h-6.3c-0.9-0.7-0.9-1.3,0-2h6.6v-6.6c0.7-0.9,1.4-0.9,2.1,0V422.3z M996.4,422.3h9.8
				c0.9,0.7,0.9,1.3,0,2h-9.8c3,7.7,7.2,15.2,12.6,22.5c0.2,1.3-0.3,1.8-1.7,1.3c-4.4-5.7-8-11.9-10.8-18.5v24.5
				c-0.7,1.1-1.4,1.1-2.1,0v-23.5c-2.3,6.6-5.9,12.7-10.8,18.2c-1.2,0.4-1.7,0-1.7-1.3c5.4-5.5,9.5-13.2,12.6-23.2h-8.4
				c-0.9-0.7-0.9-1.3,0-2h8.4v-6.6c0.7-0.9,1.4-0.9,2.1,0V422.3z"/>
		</g>
	</g>
</g>
</svg>
