<?xml version="1.0" encoding="utf-8"?>
<!-- Generator: Adobe Illustrator 23.0.5, SVG Export Plug-In . SVG Version: 6.00 Build 0)  -->
<svg version="1.1" id="圖層_1" xmlns="http://www.w3.org/2000/svg" xmlns:xlink="http://www.w3.org/1999/xlink" x="0px" y="0px"
	 viewBox="0 0 1920 1080" style="enable-background:new 0 0 1920 1080;" xml:space="preserve">
<style type="text/css">
	.st0{fill:#20192D;}
	.st1{fill:#191627;}
	.st2{fill:#42414F;}
	.st3{fill:#45DBE3;}
	.st4{fill:#3886C9;}
	.st5{fill:#FD972A;}
	.st6{fill:#FEF6B3;}
	.st7{fill:#F69730;}
	.st8{fill:#FB8C2E;}
	.st9{fill:#F9F7C1;}
	.st10{fill:#252638;}
	.st11{fill:#232436;}
	.st12{fill:#191629;}
	.st13{fill:#1F1C2F;}
	.st14{fill:#8BF9F4;}
	.st15{fill:#D59154;}
	.st16{fill:#62C457;}
	.st17{fill:#EF3420;}
	.st18{fill:#FFFFFF;stroke:#000000;stroke-width:4;stroke-miterlimit:10;}
</style>
<g>
	<path class="st0" d="M1252.12,444.9c-201.79,0-403.59,0-605.38,0c-13.76-13.17-31.31-33.84-43.8-63.55
		c-3.55-8.45-6.25-16.59-8.33-24.21c228.88,1.01,457.76,2.02,686.64,3.03c-0.35,8.73-1.48,19.01-4.16,30.27
		C1271.12,415.43,1260.22,433.7,1252.12,444.9z"/>
	<ellipse class="st1" cx="931.69" cy="327.64" rx="317.65" ry="74.9"/>
	<path class="st2" d="M621.87,328.4c-0.59-1.75-0.9-3.52-0.9-5.29c0-38.02,138.18-68.84,308.64-68.84s308.64,30.82,308.64,68.84
		c0,1.78-0.3,3.55-0.9,5.29h72.73c-7.5-52.98-171.85-95.32-373.54-95.32S570.51,275.41,563,328.4H621.87z"/>
	<g>
		<path class="st3" d="M698.19,343.09c3.73-6.96,7.58-14.07,13.28-19.21c5.7-5.14,13.73-7.98,20.63-5.11
			c2.88,1.19,5.55,3.34,8.64,3.35c5.17,0.02,8.6-5.69,13.15-8.35c13-7.59,27.84,11.4,42.26,8.05c10.31-2.4,15.99-15.23,25.9-19.11
			c5.44-2.13,11.42-1.28,17.2-1.62c22.86-1.33,42.8-24.52,42.55-49.49c-0.07-7.11-1.56-14.16-1.41-21.28
			c0.14-7.11,2.35-14.77,7.81-18.65c6.43-4.57,15.4-2.31,21.3,3.02c5.91,5.33,9.45,13.08,12.83,20.59c4.45,9.9,8.91,19.8,13.36,29.7
			c6.72,14.94,14.74,31.19,29.09,36.85c6.56,2.59,13.73,2.58,20.7,2.02c17.43-1.41,37.33-8.67,42.89-26.75
			c2.29-7.46,1.7-15.68,3.99-23.14c2.77-9.03,9.49-16,16.77-21.25c5.24-3.78,11.32-6.96,17.56-6.22c8.17,0.97,14.6,8.64,17.3,17.11
			c2.7,8.46,2.41,17.66,2.07,26.61c-0.49,13.34-0.98,26.7-1.47,40.04c3.69,0.91,7.39,1.83,11.08,2.74
			c-9.3,9.35-19.24,20.14-19.96,33.92c-0.52,10.09,3.79,21.69-2.13,29.45c-5.7,7.46-16.98,5.29-24.26-0.3s-12.83-13.82-20.81-18.14
			c-13.69-7.41-30.2-1.26-43.6,6.76c-13.39,8.02-26.69,18.17-41.95,18.88c-14.96,0.7-29.85-7.92-44.47-4.38
			c-4.18,1.01-8.48,3.01-12.58,1.65c-4.47-1.49-7.04-6.4-9.68-10.62c-11.8-18.85-33.49-29.74-54.3-27.24
			c-20.8,2.5-39.8,18.29-47.54,39.49c-2.58,7.08-4.77,15.62-11.27,18.41c-2.41,1.03-5.07,1.06-7.66,0.9
			c-28.3-1.78-53.8-27.43-57.72-58.06"/>
	</g>
	<g>
		<path class="st4" d="M873.15,386.91c9.36-15.31,25.04-25.82,41.78-28.02c15.15-1.99,31.65,2.27,45.04-5.72
			c15.22-9.09,23.72-32.57,41.07-32.66c16.06-0.07,26.63,20.99,42.64,22.52c3.58,0.34,7.24-0.34,10.74,0.52
			c3.43,0.85,6.42,3.1,9.8,4.16c3.37,1.05,7.73,0.38,9.27-3.05c1.85-4.12-1.41-8.58-3.27-12.69c-3.91-8.69-0.73-20.39,6.9-25.34
			c3.78-2.44,8.21-3.29,12.54-4.09c9.07-1.67,18.15-3.35,27.22-5.02c10.12-1.87,22.21-3.02,28.95,5.42
			c3.31,4.15,4.51,9.88,4.58,15.38c0.34,27-22.9,47.41-46.08,56.89c-22.21,9.08-46.02,12.25-69.57,15.35
			c-47.49,6.25-95.09,12.52-142.92,13.39c-5.27,0.1-10.92,0.01-15.28-3.22c-4.37-3.24-6.34-10.86-2.48-14.78"/>
	</g>
	<g>
		<g>
			<path class="st5" d="M1011.74,391.68c5.41-15.28,21.28-23.67,36.29-24.06c15.01-0.39,29.47,5.61,43.47,11.52
				c-3.24-6.57,3.3-14.24,9.94-16.1c6.63-1.85,13.97-0.83,20.08-4.21c7.62-4.2,11.02-13.78,15.83-21.47
				c11.14-17.83,32.99-26.77,52.13-21.34c14.46,4.1,27.82,18.67,25.58,34.79c-2.59,18.51-22.3,26.99-39.11,30.8
				c-44.98,10.18-91.14,12.27-137.04,14.33c-9.09,0.4-18.25,0.81-27.26-0.55"/>
		</g>
		<ellipse class="st6" cx="1180.68" cy="338.23" rx="10.41" ry="11.35"/>
	</g>
	<g>
		<path class="st7" d="M644.65,323.5c-5.22-6.36-5.86-16.05-3.48-24.19c2.39-8.14,7.34-15.05,12.43-21.55
			c6.3-8.05,14.44-16.44,24.1-15.45c8.31,0.85,14.77,8.71,17.76,17.21c2.99,8.49,3.35,17.78,4.74,26.75s4.15,18.29,10.57,24.1
			c5.53,5.01,12.89,6.65,19.72,9.11c7.01,2.53,13.72,6.07,19.89,10.5c5.42,3.9,10.98,10.05,9.62,16.98
			c-0.9,4.56-4.62,7.81-8.47,9.84c-9.19,4.84-19.86,4.72-30.05,4.11c-12.34-0.74-24.64-2.07-36.87-3.97
			c-17.47-2.72-35.21-6.8-50.22-16.93c-4.46-3.01-8.94-7.06-9.84-12.69c-0.84-5.29,1.85-10.66,5.61-14.12
			c3.77-3.46,8.5-5.35,13.13-7.2"/>
	</g>
	<g>
		<g>
			<path class="st8" d="M766.92,395.51c-5.57-6.39-6.74-15.29-4.73-23.23s6.84-15.05,12.31-21.52c5.74-6.78,12.37-13.11,20.47-17.49
				c20.06-10.84,46.96-7.75,66.14,4.33c19.17,12.08,31.25,31.77,37.11,52.23c0.4,1.39,0.84,2.89,2.08,3.79
				c1.31,0.96,3.15,0.97,4.82,1.19c6.87,0.93,12.53,6.73,12.69,13.01c-1.94,3.28-6.89,3.63-11,3.57
				c-32.18-0.49-64.35-0.98-96.52-1.47c-9.58-0.14-19.31-0.31-28.48-2.83s-17.87-7.75-21.97-15.59"/>
		</g>
		<ellipse class="st9" cx="829.89" cy="355.64" rx="15.05" ry="13.61"/>
	</g>
	<path class="st10" d="M691.71,1001.73c-23.05,7.82-60.65,5.92-69.36-15.13c-7.47-18.07,7.01-48.6,22.2-51.44
		c10.78-2.02,18.44,10.56,26.36,6.05c4.27-2.44,5.5-8.07,8.33-25.72c3.42-21.39,5.13-32.08,5.55-37.83
		c1.15-15.75,1.88-37.84,0-65.07c26.81,17.15,53.64,34.3,80.45,51.44C764.82,868.97,754.23,980.51,691.71,1001.73z"/>
	<path class="st11" d="M1189.05,995.68c23.05,7.82,60.65,5.92,69.36-15.13c7.47-18.07-7.01-48.6-22.2-51.44
		c-10.78-2.02-18.44,10.56-26.36,6.05c-4.27-2.44-5.5-8.07-8.33-25.72c-3.42-21.39-5.13-32.08-5.55-37.83
		c-1.15-15.75-1.88-37.84,0-65.07c-26.81,17.15-53.64,34.3-80.45,51.44C1115.95,862.91,1126.54,974.46,1189.05,995.68z"/>
	<path class="st12" d="M962.2,939.7c-6.95,1.66-15.91,3.09-26.36,3.03c-9.82-0.06-18.29-1.43-24.97-3.03
		c-3.27-5.65-7.17-13.78-9.71-24.21c-3.91-16.08-2.69-29.83-1.39-37.83c23.58-1.01,47.16-2.02,70.74-3.03
		c0.83,9.87,1,22.89-1.39,37.83C967.44,923.15,964.82,932.3,962.2,939.7z"/>
	<path class="st2" d="M1232.69,798.98c-153.04,139.7-433.64,146.2-577.05-10.59c-21.27-23.26-99.44-108.72-91.55-228.48
		c4.66-70.67,37.24-122.16,55.48-146.77c88.18,20.56,200.71,38.14,331.53,37.83c127.72-0.31,237.8-17.59,324.59-37.83
		c14.96,19.04,71.16,95,62.43,196.71C1329.45,710.66,1262.56,771.72,1232.69,798.98z"/>
	<path class="st2" d="M562.71,562.93c-38.34,19.21-79.01,10.32-97.1-16.64c-17.3-25.78-8.58-60.1-6.94-66.58
		c1.72-6.75,10.74-39.22,38.84-54.47c29.72-16.14,69.4-6.87,97.1,24.21C583.98,487.28,573.34,525.1,562.71,562.93z"/>
	<path class="st2" d="M1442.16,558.39c-22.96,33.47-69.27,43.59-106.81,19.67c-13.41-43.88-26.81-87.76-40.23-131.64
		c45.93-40.12,106.5-36.17,137.33,0C1454.74,472.58,1467.04,522.11,1442.16,558.39z"/>
	<path class="st13" d="M1299.28,677.92c-46.64,126.19-178.73,168.27-224.72,183.08c-11.39,3.67-273.17,83.21-425.85-102.89
		c-60.31-73.52-78.32-157.67-84.61-202.76c1.72-6.62,6.23-20.62,18.03-33.29c10.52-11.29,21.8-16.12,27.74-18.16
		c68.14,180.08,215.26,295.09,364.82,289c95.15-3.87,209.71-57.51,263.56-157.36c51.22-94.99,28.97-197.45,41.61-198.22
		C1294.05,436.48,1341.29,564.28,1299.28,677.92z"/>
	<path class="st2" d="M1236.82,326.89c-1.82,37.67-139.28,68.09-308.59,68.09s-306.78-30.42-308.59-68.09h-56.98
		c-0.86,2.74-1.32,5.52-1.32,8.32c0,54.74,167.37,99.11,373.84,99.11s373.84-44.37,373.84-99.11c0-2.8-0.46-5.58-1.32-8.32H1236.82
		L1236.82,326.89z"/>
	<g>
		<ellipse class="st14" cx="936.54" cy="101.73" rx="46.82" ry="8.55"/>
		<g>
			<path class="st14" d="M970.15,115.97c-21.26,0.32-42.51,0.63-63.77,0.95c-2.4-0.85-6.55-2.65-10.34-6.17
				c-3.27-3.05-4.92-6.13-5.74-8.07c31.02-0.32,62.05-0.63,93.07-0.95c-1.13,2.21-2.92,5.08-5.74,8.07
				C975.02,112.55,972.33,114.56,970.15,115.97z"/>
			<rect x="905.23" y="115.5" class="st14" width="64.92" height="47"/>
			<ellipse class="st14" cx="936.54" cy="240.13" rx="105.42" ry="84.75"/>
			<path class="st15" d="M957.38,106.48h-40.54c-1.97,0-3.57-1.3-3.57-2.89V79.45c0-1.59,1.61-2.89,3.57-2.89h40.54
				c1.97,0,3.57,1.3,3.57,2.89v24.14C960.96,105.18,959.35,106.48,957.38,106.48z"/>
			<path class="st16" d="M842.99,242.26c4.26,37.79,44.51,67.42,93.55,67.42s89.29-29.63,93.55-67.42H842.99z"/>
			<polygon class="st17" points="950.04,128.96 939.99,128.96 939.99,120.72 934.53,120.72 934.53,128.96 924.76,128.96 
				924.76,133.44 934.53,133.44 934.53,151.11 939.99,151.11 939.99,133.44 950.04,133.44 			"/>
		</g>
	</g>
</g>
<g>
	<path class="st18" d="M644.14,1005.77c0,1.94-0.91,4.49-2.74,7.65c-16.02,26.59-37.3,39.89-63.84,39.89
		c-27.16,0-49.18-12.93-66.06-38.79c-16.45-25.01-24.67-56.58-24.67-94.71c0-36.91,8.05-68.24,24.15-93.98
		c16.8-26.96,38.16-40.43,64.1-40.43c28.2,0,50.31,12.08,66.32,36.24c1.74,2.67,2.61,5.04,2.61,7.1c0,2.31-3.03,10.87-9.07,25.68
		c-6.05,14.82-9.86,23.13-11.42,24.95c-0.7,0.97-1.57,1.46-2.61,1.46c-0.44,0-2.61-2.43-6.53-7.29c-4.7-5.83-9.31-10.38-13.84-13.66
		c-6.88-4.85-14.01-7.29-21.41-7.29c-12.79,0-23.02,6.68-30.68,20.03c-7.05,12.38-10.58,27.68-10.58,45.9
		c0,18.46,3.52,33.94,10.58,46.44c7.66,13.6,17.89,20.4,30.68,20.4c7.57,0,14.75-2.3,21.54-6.92c4.44-3.03,8.96-7.29,13.58-12.75
		c3.83-4.61,5.96-6.92,6.4-6.92c0.87,0,1.74,0.67,2.61,2c1.39,2.19,5.18,9.77,11.36,22.77
		C640.96,997.03,644.14,1004.43,644.14,1005.77z"/>
	<path class="st18" d="M778.22,1050.03c-7.49,0-17.23-0.25-29.24-0.73c-15.67-0.49-25.42-0.79-29.24-0.91l-39.04-0.73
		c-3.92,0.12-9.53-0.12-16.84-0.73c-2.53-0.61-3.79-2.49-3.79-5.65c0-13.23,0.15-33.06,0.46-59.47c0.3-26.41,0.46-46.23,0.46-59.47
		c0-14.08-0.31-35.18-0.91-63.29c-0.61-28.11-0.91-49.2-0.91-63.29c0-2.67,1.31-4.01,3.92-4.01c2.61,0,6.51,0.18,11.68,0.55
		c5.18,0.36,9.03,0.55,11.55,0.55c2.87,0,7.14-0.21,12.79-0.64c5.66-0.42,9.92-0.64,12.79-0.64c1.31,0,1.91,1.16,1.83,3.46
		l-0.13,2.37c-1.04,22.83-2.22,57.13-3.52,102.9l-0.13,48.08c0,15.54,0.04,26.9,0.13,34.06c0.08,1.46,0.17,2.91,0.26,4.37
		c0.09,1.46,0.74,2.37,1.96,2.73c0.09,0,1.22,0,3.39,0c7.83,0,19.56-0.58,35.18-1.73c15.62-1.15,27.35-1.73,35.18-1.73
		c2.35,0,3.53,1.4,3.53,4.19c0,20.76-1.09,38.67-3.26,53.73c-0.44,3.16-1.35,5.04-2.74,5.65
		C783.13,1049.9,781.35,1050.03,778.22,1050.03z"/>
	<path class="st18" d="M938.14,990.29c0,5.22-0.74,14.82-2.22,28.78c-1.57,15.18-2.96,24.22-4.18,27.14
		c-1.04,2.31-2.48,3.46-4.31,3.46c-0.78,0-2.09-0.18-3.92-0.55c-6.35-1.21-24.89-1.82-55.62-1.82c-6.7,0-16.67-0.06-29.9-0.18
		c-13.23-0.12-23.15-0.18-29.77-0.18c-2.87,0-4.31-1.76-4.31-5.28c0-13.6,0.54-34.03,1.63-61.29c1.09-27.26,1.63-47.69,1.63-61.29
		c0-13.84-0.52-39.64-1.57-77.41c-0.26-9.71-0.74-24.22-1.44-43.53l-0.13-2.55c-0.18-2.79,0.91-4.19,3.26-4.19
		c6.44,0,16.12,0.25,29.05,0.73c12.92,0.49,22.61,0.73,29.05,0.73c6.35,0,15.93-0.24,28.72-0.73c12.79-0.48,22.37-0.73,28.72-0.73
		c4.52,0,7.14,2.37,7.83,7.1c0.43,2.79,1.11,11.26,2.02,25.41c0.91,14.15,1.37,22.74,1.37,25.77c0,2.55-0.87,3.83-2.61,3.83
		c-0.52,0-1.44-0.06-2.74-0.18c-23.15-2.67-43.95-4.01-62.4-4.01c-4.61,0-7.44,1.52-8.49,4.55c-0.44,1.46-0.65,6.13-0.65,14.02
		c0,8.26,0.87,13.72,2.61,16.39c1.48,2.31,4.31,3.46,8.49,3.46c0.87,0,2.57-0.09,5.09-0.27c2.52-0.18,4.61-0.27,6.27-0.27
		c10.97,0,22.06-0.42,33.29-1.27c0.96-0.12,3.35-0.42,7.18-0.91c2.96-0.48,5.31-0.73,7.05-0.73c2.09,0,3.13,1.4,3.13,4.19
		c0-2.55-0.78,6.74-2.35,27.87c-0.7,9.72-1.04,19.43-1.04,29.14c0,2.43-1.26,3.64-3.79,3.64l-11.75-1.82
		c-4.96-0.73-16.28-1.09-33.94-1.09H863.6c-3.57,0-5.66,1.22-6.27,3.64c-0.09,0.61-0.13,4.37-0.13,11.29
		c0,9.23,0.43,15.18,1.3,17.85c1.48,4.62,7.05,7.35,16.71,8.2c-0.17,0,6.18,0,19.06,0c4.61,0,11.47-0.57,20.56-1.73
		c9.09-1.15,15.91-1.73,20.43-1.73C937.18,983.73,938.14,985.92,938.14,990.29z"/>
	<path class="st18" d="M1127.71,1042.38c0,2.19-1.09,3.71-3.26,4.55c-2.61,0.97-10.71,1.46-24.28,1.46
		c-12.45,0-20.45-0.49-24.02-1.46c-2.96-0.85-4.83-3.58-5.61-8.2c-2.96-17.49-5.27-26.83-6.92-28.05
		c-1.39-0.85-13.06-1.27-34.99-1.27c-14.8,0-22.67,0.55-23.63,1.64c-1.48,1.94-3.13,8.44-4.96,19.49c-1.65,10.08-3.66,15.54-6,16.39
		c-2.96,0.97-12.88,1.46-29.77,1.46c-13.32,0-19.97-1.76-19.97-5.28c0-3.16,9.83-41.95,29.5-116.38
		c21.32-80.5,32.9-124.76,34.73-132.77c1.04-4.61,2.26-6.92,3.66-6.92c2.35,0,5.98,0.3,10.9,0.91c4.92,0.61,8.59,0.91,11.03,0.91
		c2.35,0,5.81-0.21,10.38-0.64c4.57-0.42,7.98-0.64,10.25-0.64c1.65,0,3.18,2,4.57,6.01c4.26,12.75,16.71,56.46,37.34,131.13
		C1117.35,999.88,1127.71,1039.1,1127.71,1042.38z M1035.14,876.45c-1.83,5.34-4.92,16.94-9.27,34.79
		c-4.7,18.94-7.05,30.05-7.05,33.33c0,2.19,2.61,3.4,7.83,3.64c2.7,0.24,7.14,0.36,13.32,0.36c5.75,0,8.92-0.97,9.53-2.91
		c0.17-0.61,0.26-1.46,0.26-2.55c0-4.01-2-15.05-6.01-33.15C1039.84,892.48,1036.97,881.31,1035.14,876.45z"/>
	<path class="st18" d="M1296.64,1045.11c0,0.85-0.87,1.46-2.61,1.82c-3.31,0.73-11.62,1.09-24.94,1.09
		c-11.4,0-19.15-0.36-23.24-1.09c-1.92-0.36-3-0.67-3.26-0.91c-0.52-0.36-1.13-1.58-1.83-3.64c-1.31-4.74-3.22-11.78-5.75-21.13
		c-3.39-12.14-8.7-30.05-15.93-53.73c-1.57-4.74-5.18-7.34-10.84-7.83c2.61,0.24-1.87,0.36-13.45,0.36c-1.31,0-1.96,3.1-1.96,9.29
		c0,8.26,0.54,20.58,1.63,36.97c1.09,16.39,1.63,28.72,1.63,36.97c0,2.07-0.39,3.28-1.17,3.64c-1.22,0.12-2.44,0.24-3.66,0.36
		c-5.14,0.48-13.14,0.73-24.02,0.73c-12.45,0-19.93-0.36-22.46-1.09c-2.53-0.73-3.79-2.61-3.79-5.65c0-13.36,0.46-33.51,1.37-60.47
		c0.91-26.96,1.37-47.17,1.37-60.65c0-51.36-0.83-91.43-2.48-120.21l-0.13-2.55c-0.09-2.06,1.28-3.46,4.11-4.19
		c2.83-0.73,16.12-1.46,39.88-2.19c16.1-0.48,28.94-0.73,38.51-0.73c19.84,0,36.03,6.25,48.57,18.76
		c14.19,14.09,21.28,34.42,21.28,61.01c0,17.73-1.83,31.87-5.48,42.44s-10.4,20.83-20.24,30.78c-2,1.94-3,3.77-3,5.46
		c0-0.12,5.31,15.12,15.93,45.72C1291.33,1025.07,1296.64,1041.95,1296.64,1045.11z M1241.81,881.74c0-14.81-3.48-25.07-10.44-30.78
		c-5.4-4.37-13.84-6.56-25.33-6.56c-8.27,0-12.66,1.76-13.19,5.28c-0.52,4.13-0.78,16.03-0.78,35.7c0,2.79,0.04,6.92,0.13,12.39
		c0.09,5.46,0.13,9.53,0.13,12.2c0,0.61,1.39,1.22,4.18,1.82c5.31,1.09,10.88,1.64,16.71,1.64
		C1232.28,913.43,1241.81,902.86,1241.81,881.74z"/>
	<path class="st18" d="M1362.7,835.48c0,22.1-1.44,42.86-4.31,62.29c-3.48,19.92-6.92,39.77-10.31,59.56
		c-0.78,4.49-4.27,6.74-10.44,6.74c-7.05,0-10.97-1.94-11.75-5.83c-8.18-38.98-12.27-61.13-12.27-66.48
		c0-4.98,0.17-12.38,0.52-22.22c0.35-9.83,0.52-17.24,0.52-22.22c0-5.46-0.13-13.66-0.39-24.59c-0.26-10.93-0.39-19.12-0.39-24.59
		c0-4.49,0.78-6.74,2.35-6.74c2.44,0,6.09,0.25,10.97,0.73c4.87,0.49,8.53,0.73,10.97,0.73c2.44,0,6.09-0.24,10.97-0.73
		c4.87-0.48,8.53-0.73,10.97-0.73C1361.83,791.4,1362.7,806.09,1362.7,835.48z M1362.7,1015.97c0,10.2-2.26,18.67-6.79,25.41
		c-4.53,6.74-10.44,10.11-17.75,10.11c-7.4,0-13.34-3.34-17.82-10.02c-4.48-6.68-6.72-15.18-6.72-25.5c0-10.2,2.26-18.58,6.79-25.13
		c4.52-6.56,10.44-9.83,17.75-9.83c7.22,0,13.12,3.28,17.69,9.83C1360.42,997.39,1362.7,1005.77,1362.7,1015.97z"/>
</g>
</svg>
