<?xml version="1.0" encoding="utf-8"?>
<!-- Generator: Adobe Illustrator 23.0.5, SVG Export Plug-In . SVG Version: 6.00 Build 0)  -->
<svg version="1.1" id="圖層_1" xmlns="http://www.w3.org/2000/svg" xmlns:xlink="http://www.w3.org/1999/xlink" x="0px" y="0px"
	 viewBox="0 0 1920 1080" style="enable-background:new 0 0 1920 1080;" xml:space="preserve">
<style type="text/css">
	.st0{fill:#31343F;}
	.st1{fill:#63636D;}
	.st2{fill:#CCBEB6;}
	.st3{fill:#488298;}
	.st4{fill:#EBDBCE;}
	.st5{fill:#F06C53;stroke:#A8412D;stroke-miterlimit:10;}
	.st6{fill:#F57B57;}
	.st7{fill:#322E2E;}
	.st8{fill:#CABDAF;}
	.st9{fill:#67B4CC;}
	.st10{fill:#83C5CE;}
	.st11{fill:#B5B5B5;}
	.st12{fill:#F47D63;}
	.st13{fill:#FAB68F;}
	.st14{fill:#939190;}
	.st15{fill:#EFDA5E;}
	.st16{fill:#F99B76;}
	.st17{fill:#4A707C;}
	.st18{fill:#E7E1DE;}
	.st19{fill:#382C28;}
	.st20{fill:#52EF3C;}
	.st21{fill:#E3D2C7;}
	.st22{fill:#F5F4EF;}
	.st23{fill:#E6D9C9;}
	.st24{fill:#658388;}
	.st25{fill:#223C53;}
	.st26{fill:#473A44;}
	.st27{fill:#5C838A;}
	.st28{fill:#9A373E;}
	.st29{fill:#CFD9DB;}
	.st30{fill:#FFFFFF;}
	.st31{fill:#F1775F;}
	.st32{fill:#FFFFFF;stroke:#000000;stroke-width:4;stroke-miterlimit:10;}
</style>
<path class="st0" d="M1595.81,360.37c-106.25-21.5-212.51-42.99-318.76-64.49c2.81-10.42,5.63-20.85,8.44-31.26
	c65.36,7.61,134.96,18.06,208.13,32.24c78.53,15.22,151.79,32.93,219.38,51.78C1673.93,352.55,1634.87,356.46,1595.81,360.37z"/>
<path class="st1" d="M1535.81,993.5c-75.63-2.93-151.26-5.86-226.88-8.79c2.81-227.33,5.63-454.65,8.44-681.99
	c74.38,13.68,148.75,27.36,223.14,41.04C1538.93,560.34,1537.37,776.92,1535.81,993.5z"/>
<rect x="1268.61" y="118.06" class="st2" width="8.44" height="48.85"/>
<rect x="1110.17" y="127.83" class="st2" width="8.44" height="48.85"/>
<path class="st0" d="M1285.48,262.66c-335.63,25.73-671.27,51.45-1006.91,77.19c44.06,3.91,88.13,7.81,132.19,11.72
	c289.39-20.52,578.77-41.04,868.16-61.56C1281.11,280.9,1283.3,271.78,1285.48,262.66z"/>
<path class="st2" d="M1239.55,984.71H464.21V351.57c258.17-21.17,516.32-42.34,774.49-63.51
	C1238.98,520.28,1239.26,752.5,1239.55,984.71z"/>
<path class="st3" d="M664.83,741.43H470.77V440.49c64.06-4.56,128.13-9.12,192.19-13.68C663.58,531.68,664.21,636.55,664.83,741.43z
	"/>
<rect x="1055.79" y="401.41" class="st3" width="108.75" height="329.27"/>
<rect x="1055.79" y="769.76" class="st3" width="103.13" height="187.6"/>
<g>
	<path class="st4" d="M1001.42,975.91c-90.46-1.93-180.92-3.87-271.38-5.8c-2.04-177.52-4.09-355.04-6.13-532.55
		c91.92-6.84,183.84-13.68,275.76-20.52C1000.25,603.33,1000.83,789.62,1001.42,975.91z"/>
	<g>
		<path class="st3" d="M964.84,730.67H761.41c-0.31-87.28-0.63-174.57-0.94-261.85c68.75-3.91,137.51-7.81,206.25-11.72
			C966.09,548.29,965.47,639.48,964.84,730.67z"/>
		<rect x="760.47" y="728.72" class="st5" width="206.25" height="24.43"/>
		<rect x="760.47" y="752.17" class="st6" width="206.25" height="193.46"/>
	</g>
</g>
<g>
	<path class="st7" d="M1334.23,131.73c-99.37,2.28-198.76,4.56-298.13,6.84c-0.63-29.97-1.25-59.92-1.88-89.89
		c98.75-7.49,197.51-14.98,296.26-22.47C1331.73,61.38,1332.98,96.56,1334.23,131.73z"/>
	<path class="st8" d="M1325.8,125.87c-94.69,2.93-189.38,5.86-284.07,8.79c0-27.36,0-54.71,0-82.07
		c93.76-6.84,187.5-13.68,281.26-20.52C1323.93,63.35,1324.86,94.61,1325.8,125.87z"/>
</g>
<path class="st9" d="M848.55,399.62c-17.13,0.23-34.26,0.47-51.38,0.7c-4.53,0.07-8.56-2.99-9.91-7.49
	c-4.19-13.96-8.38-27.94-12.57-41.9c-1.99-6.62,2.52-13.43,9.17-13.85c18.59-1.16,37.16-2.33,55.75-3.5
	c5.14-0.32,9.71,3.38,10.68,8.66c2.74,14.9,5.46,29.8,8.2,44.7C859.69,393.46,854.93,399.53,848.55,399.62z"/>
<path class="st10" d="M833.43,390.95c-10.52-0.29-21.06-0.58-31.58-0.87c-8.3-0.23-15.34-6.41-16.97-14.89
	c-0.88-4.58-1.76-9.18-2.64-13.76c-2.1-10.93,5.47-21.31,16.14-22.13c9.8-0.75,19.6-1.5,29.39-2.25
	c8.33-0.64,15.97,4.85,18.35,13.19c1.61,5.63,3.22,11.26,4.83,16.89C854.42,379.21,845.53,391.29,833.43,390.95z"/>
<rect x="1179.54" y="467.84" class="st11" width="57.19" height="116.27"/>
<rect x="1184.23" y="473.71" class="st9" width="46.88" height="18.57"/>
<rect x="1184.23" y="501.07" class="st9" width="46.88" height="75.23"/>
<rect x="1184.23" y="600.73" class="st12" width="52.51" height="95.75"/>
<rect x="1184.23" y="630.04" class="st13" width="52.51" height="26.38"/>
<rect x="1176.73" y="417.04" class="st14" width="60" height="40.06"/>
<rect x="1184.23" y="401.41" class="st15" width="38.44" height="15.64"/>
<path class="st16" d="M1283.61,189.39c-354.7,31.91-709.4,63.83-1064.09,95.75c6.25,18.57,12.5,37.13,18.75,55.69
	c349.7-26.05,699.39-52.11,1049.1-78.16C1286.1,238.24,1284.85,213.81,1283.61,189.39z"/>
<path class="st17" d="M1280.8,160.08c-279.38,24.1-558.77,48.2-838.15,72.3c-74.38,17.58-148.76,35.17-223.14,52.76
	c355.32-28.99,710.65-57.97,1065.97-86.96C1283.92,185.48,1282.36,172.77,1280.8,160.08z"/>
<rect x="616.09" y="147.37" class="st2" width="17.81" height="75.23"/>
<path class="st18" d="M621.17,151.95c-2.29-0.13-4.59-0.26-6.88-0.39c-2.65-0.15-4.72-2.47-4.69-5.24
	c0.27-18.76,0.55-37.53,0.82-56.29c0.03-1.97,1.13-3.76,2.85-4.6c2.02-1,4.04-1.98,6.06-2.98c3.29-1.62,7.08,0.89,7.08,4.68v59.66
	C626.4,149.75,624,152.11,621.17,151.95z"/>
<path class="st19" d="M660.08,151.98c-9.71-0.47-19.44-0.94-29.15-1.41c-3.07-0.15-5.51-2.77-5.55-5.97
	c-0.25-17.94-0.5-35.88-0.75-53.82c-0.05-3.98,3.53-6.94,7.23-5.97l32.93,8.58c2.74,0.71,4.59,3.36,4.4,6.3
	c-1.01,15.55-2.02,31.1-3.04,46.66C665.95,149.62,663.25,152.13,660.08,151.98z"/>
<path class="st20" d="M660.15,147.37c-9.69-0.98-19.37-1.95-29.07-2.93V94.61c10.94,1.62,21.88,3.26,32.81,4.88
	C662.65,115.45,661.4,131.41,660.15,147.37z"/>
<rect x="414.52" y="353.53" class="st21" width="30" height="624.34"/>
<rect x="444.52" y="353.53" class="st22" width="19.69" height="624.34"/>
<rect x="1236.73" y="288.07" class="st23" width="33.75" height="696.65"/>
<path class="st24" d="M1308.92,984.71c-12.81,0-25.63,0-38.44,0c0-232.22,0-464.43,0-696.65c15.62,4.88,31.26,9.77,46.88,14.66
	C1314.55,530.05,1311.73,757.38,1308.92,984.71z"/>
<path class="st25" d="M1535.81,735.56c-72.82-3.26-145.63-6.52-218.45-9.77c1.56-119.53,3.13-239.05,4.69-358.58
	c72.82,12.38,145.63,24.76,218.45,37.13C1538.93,514.74,1537.37,625.15,1535.81,735.56z"/>
<path class="st26" d="M1562.06,990.57c-8.75,0.98-17.5,1.95-26.25,2.93c1.56-217.56,3.13-435.12,4.69-652.68h21.56V990.57z"/>
<path class="st27" d="M1595.81,993.5h-34.68c0-217.56,0-435.12,0-652.68c9.69,5.54,19.37,11.07,29.07,16.61
	C1592.05,569.45,1593.93,781.48,1595.81,993.5z"/>
<path class="st28" d="M1713,348.64c-70.28-19.52-146.02-37.85-226.88-53.74c-69.37-13.64-135.78-24.17-198.76-32.24
	c-1.25-26.71-2.5-53.42-3.75-80.12c79.25,21.09,143.89,33.55,188.44,41.04c50.99,8.57,85.38,12.27,135.95,27.36
	c52.59,15.69,93.66,35.05,120,48.85C1723,316.07,1718,332.36,1713,348.64z"/>
<path class="st17" d="M1607.99,250.93c-108.13-22.8-216.26-45.59-324.39-68.4c-0.94-7.49-1.88-14.98-2.81-22.47
	c50.32,11.4,100.63,22.8,150.94,34.19c28.06,6.04,58.58,13.96,90.94,24.43C1553.87,228.78,1582.36,239.8,1607.99,250.93z"/>
<ellipse class="st29" cx="962.04" cy="736.53" rx="25.32" ry="26.38"/>
<path class="st30" d="M891.94,586.07h-69.81c-4.02,0-7.29-3.36-7.29-7.5v-53.39c0-4.14,3.27-7.5,7.29-7.5h69.81
	c4.02,0,7.29,3.36,7.29,7.5v53.39C899.22,582.71,895.96,586.07,891.94,586.07z"/>
<path class="st31" d="M891.2,583.63h-67.4c-3.74,0-6.77-3.12-6.77-6.97v-49.58c0-3.85,3.03-6.97,6.77-6.97h67.4
	c3.74,0,6.77,3.12,6.77,6.97v49.58C897.97,580.51,894.94,583.63,891.2,583.63z"/>
<g>
	<path class="st32" d="M665.06,990.32c0,1.94-0.91,4.49-2.74,7.65c-16.02,26.59-37.3,39.89-63.84,39.89
		c-27.16,0-49.18-12.93-66.06-38.79c-16.45-25.01-24.67-56.58-24.67-94.71c0-36.91,8.05-68.24,24.15-93.98
		c16.8-26.96,38.16-40.43,64.1-40.43c28.2,0,50.31,12.08,66.32,36.24c1.74,2.67,2.61,5.04,2.61,7.1c0,2.31-3.03,10.87-9.07,25.68
		c-6.05,14.82-9.86,23.13-11.42,24.95c-0.7,0.97-1.57,1.46-2.61,1.46c-0.44,0-2.61-2.43-6.53-7.29c-4.7-5.83-9.31-10.38-13.84-13.66
		c-6.88-4.85-14.01-7.29-21.41-7.29c-12.79,0-23.02,6.68-30.68,20.03c-7.05,12.38-10.58,27.68-10.58,45.9
		c0,18.46,3.52,33.94,10.58,46.44c7.66,13.6,17.89,20.4,30.68,20.4c7.57,0,14.75-2.3,21.54-6.92c4.44-3.03,8.96-7.29,13.58-12.75
		c3.83-4.61,5.96-6.92,6.4-6.92c0.87,0,1.74,0.67,2.61,2c1.39,2.19,5.18,9.77,11.36,22.77
		C661.88,981.58,665.06,988.98,665.06,990.32z"/>
	<path class="st32" d="M799.14,1034.58c-7.49,0-17.23-0.25-29.24-0.73c-15.67-0.49-25.42-0.79-29.24-0.91l-39.04-0.73
		c-3.92,0.12-9.53-0.12-16.84-0.73c-2.53-0.61-3.79-2.49-3.79-5.65c0-13.23,0.15-33.06,0.46-59.47c0.3-26.41,0.46-46.23,0.46-59.47
		c0-14.08-0.31-35.18-0.91-63.29c-0.61-28.11-0.91-49.2-0.91-63.29c0-2.67,1.31-4.01,3.92-4.01c2.61,0,6.51,0.18,11.68,0.55
		c5.18,0.36,9.03,0.55,11.55,0.55c2.87,0,7.14-0.21,12.79-0.64c5.66-0.42,9.92-0.64,12.79-0.64c1.31,0,1.91,1.16,1.83,3.46
		l-0.13,2.37c-1.04,22.83-2.22,57.13-3.52,102.9l-0.13,48.08c0,15.54,0.04,26.9,0.13,34.06c0.08,1.46,0.17,2.91,0.26,4.37
		c0.09,1.46,0.74,2.37,1.96,2.73c0.09,0,1.22,0,3.39,0c7.83,0,19.56-0.58,35.18-1.73c15.62-1.15,27.35-1.73,35.18-1.73
		c2.35,0,3.53,1.4,3.53,4.19c0,20.76-1.09,38.67-3.26,53.73c-0.44,3.16-1.35,5.04-2.74,5.65
		C804.05,1034.45,802.27,1034.58,799.14,1034.58z"/>
	<path class="st32" d="M959.06,974.84c0,5.22-0.74,14.82-2.22,28.78c-1.57,15.18-2.96,24.22-4.18,27.14
		c-1.04,2.31-2.48,3.46-4.31,3.46c-0.78,0-2.09-0.18-3.92-0.55c-6.35-1.21-24.89-1.82-55.62-1.82c-6.7,0-16.67-0.06-29.9-0.18
		c-13.23-0.12-23.15-0.18-29.77-0.18c-2.87,0-4.31-1.76-4.31-5.28c0-13.6,0.54-34.03,1.63-61.29c1.09-27.26,1.63-47.69,1.63-61.29
		c0-13.84-0.52-39.64-1.57-77.41c-0.26-9.71-0.74-24.22-1.44-43.53l-0.13-2.55c-0.18-2.79,0.91-4.19,3.26-4.19
		c6.44,0,16.12,0.25,29.05,0.73c12.92,0.49,22.61,0.73,29.05,0.73c6.35,0,15.93-0.24,28.72-0.73c12.79-0.48,22.37-0.73,28.72-0.73
		c4.52,0,7.14,2.37,7.83,7.1c0.43,2.79,1.11,11.26,2.02,25.41c0.91,14.15,1.37,22.74,1.37,25.77c0,2.55-0.87,3.83-2.61,3.83
		c-0.52,0-1.44-0.06-2.74-0.18c-23.15-2.67-43.95-4.01-62.4-4.01c-4.61,0-7.44,1.52-8.49,4.55c-0.44,1.46-0.65,6.13-0.65,14.02
		c0,8.26,0.87,13.72,2.61,16.39c1.48,2.31,4.31,3.46,8.49,3.46c0.87,0,2.57-0.09,5.09-0.27c2.52-0.18,4.61-0.27,6.27-0.27
		c10.97,0,22.06-0.42,33.29-1.27c0.96-0.12,3.35-0.42,7.18-0.91c2.96-0.48,5.31-0.73,7.05-0.73c2.09,0,3.13,1.4,3.13,4.19
		c0-2.55-0.78,6.74-2.35,27.87c-0.7,9.72-1.04,19.43-1.04,29.14c0,2.43-1.26,3.64-3.79,3.64l-11.75-1.82
		c-4.96-0.73-16.28-1.09-33.94-1.09h-13.84c-3.57,0-5.66,1.22-6.27,3.64c-0.09,0.61-0.13,4.37-0.13,11.29
		c0,9.23,0.43,15.18,1.3,17.85c1.48,4.62,7.05,7.35,16.71,8.2c-0.17,0,6.18,0,19.06,0c4.61,0,11.47-0.57,20.56-1.73
		c9.09-1.15,15.91-1.73,20.43-1.73C958.11,968.28,959.06,970.47,959.06,974.84z"/>
	<path class="st32" d="M1148.63,1026.93c0,2.19-1.09,3.71-3.26,4.55c-2.61,0.97-10.71,1.46-24.28,1.46
		c-12.45,0-20.45-0.49-24.02-1.46c-2.96-0.85-4.83-3.58-5.61-8.2c-2.96-17.49-5.27-26.83-6.92-28.05
		c-1.39-0.85-13.06-1.27-34.99-1.27c-14.8,0-22.67,0.55-23.63,1.64c-1.48,1.94-3.13,8.44-4.96,19.49c-1.65,10.08-3.66,15.54-6,16.39
		c-2.96,0.97-12.88,1.46-29.77,1.46c-13.32,0-19.97-1.76-19.97-5.28c0-3.16,9.83-41.95,29.5-116.38
		c21.32-80.5,32.9-124.76,34.73-132.77c1.04-4.61,2.26-6.92,3.66-6.92c2.35,0,5.98,0.3,10.9,0.91c4.92,0.61,8.59,0.91,11.03,0.91
		c2.35,0,5.81-0.21,10.38-0.64c4.57-0.42,7.98-0.64,10.25-0.64c1.65,0,3.18,2,4.57,6.01c4.26,12.75,16.71,56.46,37.34,131.13
		C1138.27,984.43,1148.63,1023.65,1148.63,1026.93z M1056.07,861c-1.83,5.34-4.92,16.94-9.27,34.79
		c-4.7,18.94-7.05,30.05-7.05,33.33c0,2.19,2.61,3.4,7.83,3.64c2.7,0.24,7.14,0.36,13.32,0.36c5.75,0,8.92-0.97,9.53-2.91
		c0.17-0.61,0.26-1.46,0.26-2.55c0-4.01-2-15.05-6.01-33.15C1060.77,877.03,1057.89,865.86,1056.07,861z"/>
	<path class="st32" d="M1317.56,1029.66c0,0.85-0.87,1.46-2.61,1.82c-3.31,0.73-11.62,1.09-24.94,1.09
		c-11.4,0-19.15-0.36-23.24-1.09c-1.92-0.36-3-0.67-3.26-0.91c-0.52-0.36-1.13-1.58-1.83-3.64c-1.31-4.74-3.22-11.78-5.75-21.13
		c-3.39-12.14-8.7-30.05-15.93-53.73c-1.57-4.74-5.18-7.34-10.84-7.83c2.61,0.24-1.87,0.36-13.45,0.36c-1.31,0-1.96,3.1-1.96,9.29
		c0,8.26,0.54,20.58,1.63,36.97c1.09,16.39,1.63,28.72,1.63,36.97c0,2.07-0.39,3.28-1.17,3.64c-1.22,0.12-2.44,0.24-3.66,0.36
		c-5.14,0.48-13.14,0.73-24.02,0.73c-12.45,0-19.93-0.36-22.46-1.09c-2.53-0.73-3.79-2.61-3.79-5.65c0-13.36,0.46-33.51,1.37-60.47
		c0.91-26.96,1.37-47.17,1.37-60.65c0-51.36-0.83-91.43-2.48-120.21l-0.13-2.55c-0.09-2.06,1.28-3.46,4.11-4.19
		c2.83-0.73,16.12-1.46,39.88-2.19c16.1-0.48,28.94-0.73,38.51-0.73c19.84,0,36.03,6.25,48.57,18.76
		c14.19,14.09,21.28,34.42,21.28,61.01c0,17.73-1.83,31.87-5.48,42.44s-10.4,20.83-20.24,30.78c-2,1.94-3,3.77-3,5.46
		c0-0.12,5.31,15.12,15.93,45.72C1312.25,1009.62,1317.56,1026.5,1317.56,1029.66z M1262.73,866.29c0-14.81-3.48-25.07-10.44-30.78
		c-5.4-4.37-13.84-6.56-25.33-6.56c-8.27,0-12.66,1.76-13.19,5.28c-0.52,4.13-0.78,16.03-0.78,35.7c0,2.79,0.04,6.92,0.13,12.39
		c0.09,5.46,0.13,9.53,0.13,12.2c0,0.61,1.39,1.22,4.18,1.82c5.31,1.09,10.88,1.64,16.71,1.64
		C1253.2,897.98,1262.73,887.41,1262.73,866.29z"/>
	<path class="st32" d="M1383.62,820.03c0,22.1-1.44,42.86-4.31,62.29c-3.48,19.92-6.92,39.77-10.31,59.56
		c-0.78,4.49-4.27,6.74-10.44,6.74c-7.05,0-10.97-1.94-11.75-5.83c-8.18-38.98-12.27-61.13-12.27-66.48
		c0-4.98,0.17-12.38,0.52-22.22c0.35-9.83,0.52-17.24,0.52-22.22c0-5.46-0.13-13.66-0.39-24.59c-0.26-10.93-0.39-19.12-0.39-24.59
		c0-4.49,0.78-6.74,2.35-6.74c2.44,0,6.09,0.25,10.97,0.73c4.87,0.49,8.53,0.73,10.97,0.73c2.44,0,6.09-0.24,10.97-0.73
		c4.87-0.48,8.53-0.73,10.97-0.73C1382.75,775.95,1383.62,790.64,1383.62,820.03z M1383.62,1000.52c0,10.2-2.26,18.67-6.79,25.41
		c-4.53,6.74-10.44,10.11-17.75,10.11c-7.4,0-13.34-3.34-17.82-10.02c-4.48-6.68-6.72-15.18-6.72-25.5c0-10.2,2.26-18.58,6.79-25.13
		c4.52-6.56,10.44-9.83,17.75-9.83c7.22,0,13.12,3.28,17.69,9.83C1381.34,981.94,1383.62,990.32,1383.62,1000.52z"/>
</g>
</svg>
