<?xml version="1.0" encoding="utf-8"?>
<!-- Generator: Adobe Illustrator 23.0.5, SVG Export Plug-In . SVG Version: 6.00 Build 0)  -->
<svg version="1.1" id="圖層_1" xmlns="http://www.w3.org/2000/svg" xmlns:xlink="http://www.w3.org/1999/xlink" x="0px" y="0px"
	 viewBox="0 0 1920 1080" style="enable-background:new 0 0 1920 1080;" xml:space="preserve">
<style type="text/css">
	.st0{fill:#403F45;}
	.st1{fill:#522E1B;}
	.st2{fill:#585862;}
	.st3{fill:#9B806D;}
	.st4{fill:#282F3B;}
	.st5{fill:#504C54;}
	.st6{fill:#413F45;}
	.st7{fill:#442F2E;}
	.st8{fill:#6C7887;}
	.st9{fill:#3A404D;}
	.st10{fill:#626064;}
	.st11{fill:#A49581;}
	.st12{fill:#F9D99C;}
	.st13{fill:#B7A694;}
	.st14{fill:#393844;}
	.st15{fill:#F0D3AC;}
	.st16{fill:#666A76;}
	.st17{fill:#7F695B;}
	.st18{fill:#543C3A;}
	.st19{fill:#493E42;}
	.st20{fill:#65544E;}
	.st21{fill:#7779A0;}
	.st22{fill:#3E3E68;}
	.st23{fill:#5BC44D;}
	.st24{fill:#313331;}
	.st25{fill:#FFFFFF;}
	.st26{fill:none;stroke:#000000;stroke-width:2;stroke-miterlimit:10;}
	.st27{fill:#FFFFFF;stroke:#000000;stroke-width:6;stroke-miterlimit:10;}
	.st28{fill:#7FEF6C;}
</style>
<g>
	<g>
		<path class="st0" d="M214.25,960.41c-22.2-0.6-55.1-1.04-95.4,0c-41.3,1.04-57.5,2.85-67-6.04c-19.2-17.95,7.4-62.3,15.2-74.63
			c49.1,1.47,98.1,2.85,147.1,4.31v76.36H214.25z"/>
		<rect x="358.35" y="284.46" class="st1" width="91.3" height="678.44"/>
		<path class="st2" d="M363.45,300.77c-14.2-6.04-28.4-11.99-42.6-18.03v-18.9c18.9,6.3,37.9,12.6,56.8,18.9
			C372.85,288.78,368.15,294.82,363.45,300.77z"/>
		<path class="st3" d="M336.05,876.37c-81.2-0.26-162.4-0.6-243.6-0.86c-3-187.58-6.1-375.16-9.1-562.74
			c86.6,1.73,173.2,3.45,259.8,5.18C340.75,504.14,338.45,690.25,336.05,876.37z"/>
		<path class="st4" d="M358.75,963.86c-48.2-1.12-96.4-2.33-144.5-3.45c1.1-28.04,2.2-56.08,3.3-84.04h141.2
			c3.5,13.29,6.3,30.2,5.6,49.79C363.85,940.47,361.55,953.16,358.75,963.86z"/>
		<path class="st5" d="M346.15,963.86c-44-1.12-88-2.33-131.9-3.45c1-28.04,2-56.08,3-84.04h128.9c3.2,13.29,5.7,30.2,5.1,49.79
			C350.75,940.47,348.75,953.16,346.15,963.86z"/>
		<path class="st6" d="M329.95,317.94c-80.5-1.73-161-3.45-241.5-5.18c-9.5-10.87-18.9-21.74-28.4-32.61
			c89,0.26,177.9,0.6,266.9,0.86C327.85,293.35,328.95,305.69,329.95,317.94z"/>
		<path class="st7" d="M355.25,320.53c-8.1-0.86-16.2-1.73-24.4-2.59c-0.7-10.01-1.4-20.02-2-30.03c9.8,3.71,19.6,7.42,29.4,11.13
			C357.35,306.21,356.35,313.37,355.25,320.53z"/>
		<path class="st8" d="M326.85,281.1c-91.7,0-183.3,0-275,0c-0.3-0.43-3.4-4.66-1-9.4c2.2-4.57,7.5-5.87,8.1-6.04
			c87.9,0,175.9,0,263.8,0C324.15,270.83,325.55,275.92,326.85,281.1z"/>
		<path class="st9" d="M275.15,222.77c-41.3-1.12-82.5-2.24-123.8-3.45c3.4-8.28,6.8-16.57,10.1-24.85c32.1,0.6,64.3,1.12,96.4,1.73
			C263.65,205,269.35,213.88,275.15,222.77z"/>
		<path class="st10" d="M271.05,197.92c-43.6-0.6-87.3-1.12-130.9-1.73c-0.4-4.66-0.5-9.84,0-15.44c1-11.65,4-21.57,7.1-29.16
			c40.6,0,81.2,0,121.8,0C269.75,167.03,270.35,182.48,271.05,197.92z"/>
		<path class="st11" d="M321.85,220.18c-17.9-6.82-35.9-13.72-53.8-20.62c-0.3-16.57-0.7-33.13-1-49.79
			c24.7,14.58,49.4,29.16,74.1,43.75c0.7,2.59,1.4,5.18,2,7.68C336.05,207.59,328.95,213.88,321.85,220.18z"/>
		<path class="st12" d="M343.15,201.29c-25.4-17.17-50.7-34.34-76.1-51.51c5.4-6.82,10.8-13.72,16.2-20.62
			c22.3,18.55,44.6,37.19,67,55.74C347.85,190.42,345.45,195.85,343.15,201.29z"/>
		<path class="st13" d="M269.05,151.59c-40.6,0-81.2,0-121.8,0c8.1-7.42,16.2-14.84,24.4-22.26c37.2,0,74.4,0,111.6,0
			c0.3,2.16,0.5,5.61-1,9.4C279.05,146.84,271.15,150.64,269.05,151.59z"/>
		<path class="st14" d="M314.05,234.76c-13-3.71-26-7.42-39-11.13c-4.7-8.54-9.4-17.17-14.1-25.71c21.3,7.68,42.6,15.44,63.9,23.12
			C321.25,225.62,317.65,230.19,314.05,234.76z"/>
		<path class="st15" d="M377.65,282.82c-18.3-6.04-36.5-11.99-54.8-18.03c-15.9-13.98-31.8-28.04-47.7-42.02
			c12.9,3.71,25.7,7.42,38.6,11.13C335.05,250.21,356.35,266.52,377.65,282.82z"/>
		<path class="st16" d="M320.75,263.93c-87.9,0-175.9,0-263.8,0c7.7-6.13,16.4-12.51,26.4-18.9c17.7-11.22,34.7-19.59,49.7-25.71
			c47,1.12,94,2.24,141,3.45c8.5,3.8,21.1,10.7,32.5,22.35C313.25,251.85,317.75,258.49,320.75,263.93z"/>
		<path class="st17" d="M353.25,876.37c-8.1,0-16.2,0-24.4,0c0.3-186.11,0.7-372.31,1-558.42c8.5,0.86,16.9,1.73,25.4,2.59
			C354.65,505.78,353.95,691.12,353.25,876.37z"/>
		<rect x="362.35" y="285.33" class="st18" width="77.1" height="55.74"/>
		<rect x="362.35" y="341.15" class="st19" width="77.1" height="617.61"/>
		<path class="st2" d="M214.25,960.41H91.45c1.5-8.89,2.7-23.3-2-40.29c-5.3-19.15-15.7-32.79-22.3-40.29
			c50.1-1.12,100.1-2.33,150.2-3.45C216.25,904.41,215.25,932.45,214.25,960.41z"/>
	</g>
	<g>
		<path class="st0" d="M1682.85,944.1c22.2-0.6,55.1-1.04,95.4,0c41.3,1.04,57.5,2.85,67-6.04c19.2-17.95-7.4-62.3-15.2-74.63
			c-49.1,1.47-98.1,2.85-147.1,4.31v76.36H1682.85z"/>
		<rect x="1447.45" y="268.24" class="st1" width="91.3" height="678.44"/>
		<path class="st2" d="M1533.65,284.46c14.2-6.04,28.4-11.99,42.6-18.03v-18.9c-18.9,6.3-37.9,12.6-56.8,18.9
			C1524.25,272.47,1528.95,278.51,1533.65,284.46z"/>
		<path class="st3" d="M1561.05,860.06c81.2-0.26,162.4-0.6,243.6-0.86c3-187.58,6.1-375.16,9.1-562.74
			c-86.6,1.73-173.2,3.45-259.8,5.18C1556.35,487.83,1558.75,673.95,1561.05,860.06z"/>
		<path class="st4" d="M1538.35,947.55c48.2-1.12,96.3-2.33,144.5-3.45c-1.1-28.04-2.2-56.08-3.3-84.04h-141.2
			c-3.5,13.29-6.3,30.2-5.6,49.79C1533.25,924.17,1535.55,936.85,1538.35,947.55z"/>
		<path class="st5" d="M1550.95,947.55c44-1.12,87.9-2.33,131.9-3.45c-1-28.04-2-56.08-3-84.04h-128.9
			c-3.2,13.29-5.7,30.2-5.1,49.79C1546.35,924.17,1548.35,936.85,1550.95,947.55z"/>
		<path class="st6" d="M1567.15,301.63c80.5-1.73,161-3.45,241.5-5.18c9.5-10.87,18.9-21.74,28.4-32.61
			c-89,0.26-177.9,0.6-266.9,0.86C1569.25,277.04,1568.15,289.38,1567.15,301.63z"/>
		<path class="st7" d="M1541.85,304.22c8.1-0.86,16.2-1.73,24.3-2.59c0.7-10.01,1.3-20.02,2-30.03c-9.8,3.71-19.6,7.42-29.4,11.13
			C1539.75,289.99,1540.75,297.06,1541.85,304.22z"/>
		<path class="st8" d="M1570.25,264.79c91.7,0,183.3,0,275,0c0.3-0.43,3.4-4.66,1-9.4c-2.2-4.57-7.5-5.87-8.1-6.04
			c-87.9,0-175.9,0-263.8,0C1572.95,254.52,1571.55,259.61,1570.25,264.79z"/>
		<path class="st9" d="M1621.95,206.46c41.3-1.12,82.5-2.24,123.8-3.45c-3.4-8.28-6.8-16.57-10.2-24.85
			c-32.1,0.6-64.3,1.12-96.4,1.73C1633.45,188.69,1627.75,197.58,1621.95,206.46z"/>
		<path class="st10" d="M1626.05,181.61c43.6-0.6,87.3-1.12,130.9-1.73c0.4-4.66,0.5-9.84,0-15.44c-1-11.65-4-21.57-7.1-29.16
			c-40.6,0-81.2,0-121.8,0C1627.35,150.73,1626.75,166.17,1626.05,181.61z"/>
		<path class="st11" d="M1575.35,203.88c17.9-6.82,35.8-13.72,53.8-20.62c0.3-16.57,0.7-33.13,1-49.79
			c-24.7,14.58-49.4,29.16-74.1,43.75c-0.7,2.59-1.3,5.18-2,7.68C1561.05,191.28,1568.15,197.58,1575.35,203.88z"/>
		<path class="st12" d="M1553.95,184.98c25.4-17.17,50.7-34.34,76.1-51.51c-5.4-6.82-10.8-13.72-16.2-20.62
			c-22.3,18.55-44.7,37.19-67,55.74C1549.25,174.11,1551.65,179.54,1553.95,184.98z"/>
		<path class="st13" d="M1628.05,135.28c40.6,0,81.2,0,121.8,0c-8.1-7.42-16.2-14.84-24.3-22.26c-37.2,0-74.4,0-111.6,0
			c-0.3,2.16-0.5,5.61,1,9.4C1617.95,130.53,1625.95,134.33,1628.05,135.28z"/>
		<path class="st14" d="M1583.05,218.46c13-3.71,26-7.42,39-11.13c4.7-8.54,9.4-17.17,14.1-25.71c-21.3,7.68-42.6,15.44-63.9,23.12
			C1575.85,209.31,1579.45,213.88,1583.05,218.46z"/>
		<path class="st15" d="M1519.45,266.52c18.3-6.04,36.5-11.99,54.8-18.03c15.9-13.98,31.8-28.04,47.7-42.02
			c-12.8,3.71-25.7,7.42-38.6,11.13C1562.15,233.9,1540.75,250.21,1519.45,266.52z"/>
		<path class="st16" d="M1576.35,247.62c87.9,0,175.9,0,263.8,0c-7.7-6.13-16.4-12.51-26.4-18.9c-17.7-11.22-34.7-19.59-49.7-25.71
			c-47,1.12-94,2.24-141.1,3.45c-8.5,3.8-21.1,10.7-32.5,22.35C1583.85,235.54,1579.35,242.19,1576.35,247.62z"/>
		<path class="st17" d="M1543.85,860.06c8.1,0,16.2,0,24.3,0c-0.3-186.11-0.7-372.31-1-558.42c-8.5,0.86-16.9,1.73-25.4,2.59
			C1542.45,489.56,1543.15,674.81,1543.85,860.06z"/>
		<rect x="1457.55" y="269.11" class="st18" width="77.1" height="55.74"/>
		<rect x="1457.55" y="324.84" class="st19" width="77.1" height="617.61"/>
		<path class="st2" d="M1682.85,944.1h122.8c-1.5-8.89-2.7-23.3,2-40.29c5.3-19.15,15.7-32.79,22.3-40.29
			c-50.1-1.12-100.1-2.33-150.2-3.45C1680.85,888.1,1681.85,916.14,1682.85,944.1z"/>
	</g>
	<g>
		<rect x="458.85" y="300.77" class="st20" width="32.5" height="636.42"/>
		<path class="st20" d="M913.35,221.91c-58.3,4.31-135.7,15.01-222.2,41.16c-85.1,25.71-151.9,58.33-199.9,85.77
			c0-13.46,0-26.83,0-40.29c47.3-25.88,110.4-55.13,188.7-78.95c90.6-27.52,171.9-38.48,233.4-42.88
			C913.35,198.44,913.35,210.17,913.35,221.91z"/>
		<rect x="907.35" y="174.71" class="st20" width="31.5" height="772.84"/>
		<rect x="491.25" y="815.45" class="st20" width="422.1" height="24.85"/>
		<rect x="491.25" y="890.08" class="st20" width="422.1" height="18.9"/>
		<path class="st20" d="M907.35,327.43c-69.5,7.77-158.4,23.64-255.7,57.46c-63.1,21.92-116.6,46.77-160.3,70.32
			c-0.7-23.73-1.4-47.46-2-71.18c19.1-4.92,48.8-13.2,84.2-25.71c55.7-19.76,67.8-29.6,117.7-45.47c13.4-4.23,49.7-15.36,98.4-23.99
			c46.4-8.2,86.8-11.13,117.7-11.99C907.35,293.7,907.35,310.52,907.35,327.43z"/>
		<rect x="842.35" y="222.77" class="st20" width="15.2" height="676.8"/>
		<rect x="776.45" y="222.77" class="st20" width="15.2" height="676.8"/>
		<rect x="695.25" y="226.22" class="st20" width="15.2" height="676.8"/>
		<rect x="633.35" y="265.65" class="st20" width="15.2" height="637.29"/>
		<rect x="560.25" y="287.92" class="st20" width="15.2" height="619.34"/>
	</g>
	<rect x="1406.05" y="285.93" class="st20" width="32.5" height="636.42"/>
	<path class="st20" d="M1046.45,86.88c57.3,27.78,130.7,69.03,205.5,128.04c73.5,57.98,124.9,114.67,159.7,159.11
		c6.9-12.08,13.9-24.25,20.8-36.33c-34.9-42.71-84.2-94.91-151.8-148.32c-78.3-61.86-155.5-105.01-216-134.08
		C1058.55,65.74,1052.55,76.35,1046.45,86.88z"/>
	<rect x="1041.75" y="49.26" class="st20" width="31.5" height="772.84"/>
	<polygon class="st20" points="1058.55,747.72 1419.75,823.56 1427.05,799.23 1065.85,723.39 	"/>
	<polygon class="st20" points="1046.65,794.91 1428.05,874.98 1433.65,856.35 1052.25,776.28 	"/>
	<path class="st20" d="M1047.05,379.63c62.6,14.06,141.7,38.05,226,80.59c54.7,27.61,100.1,57.21,136.8,84.56
		c4-23.47,8-47.02,12-70.49c-16.8-6.64-42.8-17.6-73.5-33.31c-48.2-24.68-57.9-35.63-101.3-56c-11.7-5.44-43.3-19.85-86.7-32.87
		c-41.3-12.42-77.9-19.07-106.1-22.78C1051.85,346.16,1049.45,362.9,1047.05,379.63z"/>
	<rect x="1122.95" y="112.93" class="st20" width="18.8" height="685.35"/>
	<rect x="1175.65" y="142.7" class="st20" width="18.2" height="672.06"/>
	<rect x="1229.75" y="174.63" class="st20" width="14.4" height="648.07"/>
	<rect x="1280.15" y="207.59" class="st20" width="17.9" height="626.5"/>
	<rect x="1333.95" y="255.04" class="st20" width="15.8" height="594.58"/>
	<rect x="1622.75" y="353.15" class="st21" width="138" height="204.15"/>
	<g>
		<rect x="1649.65" y="415.01" class="st22" width="23.3" height="13.89"/>
		<rect x="1679.35" y="415.01" class="st22" width="23.3" height="13.89"/>
		<rect x="1710.95" y="415.01" class="st22" width="23.3" height="13.89"/>
		<rect x="1710.95" y="434.08" class="st22" width="23.3" height="13.89"/>
		<rect x="1679.35" y="434.08" class="st22" width="23.3" height="13.89"/>
		<rect x="1649.65" y="434.08" class="st22" width="23.3" height="13.89"/>
		<rect x="1649.65" y="453.15" class="st22" width="23.3" height="13.89"/>
		<rect x="1680.25" y="453.15" class="st22" width="23.3" height="13.89"/>
		<rect x="1710.95" y="453.15" class="st22" width="23.3" height="13.89"/>
		<rect x="1710.95" y="471.87" class="st22" width="23.3" height="13.89"/>
		<rect x="1680.25" y="471.87" class="st22" width="23.3" height="13.89"/>
		<rect x="1649.65" y="471.87" class="st22" width="23.3" height="13.89"/>
	</g>
	<rect x="1643.25" y="365.14" class="st23" width="97.3" height="40.04"/>
	<rect x="1643.25" y="507.16" class="st24" width="35.6" height="21.23"/>
	<rect x="1704.95" y="507.16" class="st24" width="35.6" height="21.23"/>
</g>
<g>
	<g>
		<g>
			<path class="st25" d="M778,1019.5c-11.56,0-22.5-0.2-32.5-0.59c-12.4-0.4-23.11-2.38-31.82-5.91c-8.76-3.55-16.33-9-22.49-16.21
				l-0.01-0.01c-7.35,6.32-14.53,12.18-21.33,17.41c-1.75,1.43-3.82,2.17-6.1,2.17c-0.77,0-1.55-0.08-2.34-0.23l-0.1-0.02
				c-3.18-0.8-5.53-2.66-6.97-5.54l-0.04-0.09l-0.03-0.09c-0.74-1.91-1.11-3.79-1.11-5.6c0-1.19,0.15-2.46,0.44-3.76
				c0.94-3.44,2.87-6.07,5.77-7.89c6.78-4.48,13.31-9.18,19.36-13.94c0.58-0.44,0.8-0.88,0.8-1.55v-43.9h-16.75
				c-2.89,0-5.4-1.05-7.47-3.13c-2.07-2.07-3.12-4.58-3.12-7.47c0-2.88,1.05-5.39,3.12-7.47c2.07-2.07,4.59-3.13,7.47-3.13h19.53
				c5.22,0,9.73,1.87,13.43,5.57c3.69,3.69,5.57,8.21,5.57,13.43v45.12c0,0.87,0.25,1.62,0.77,2.31
				c7.84,11.45,22.56,17.66,43.8,18.54c9.68,0.52,20.09,0.78,30.97,0.78c16.33,0,34.24-0.52,53.21-1.56
				c0.18-0.01,0.36-0.02,0.54-0.02c2.65,0,4.88,1.17,6.47,3.39c1.04,1.56,1.55,3.18,1.55,4.88c0,0.75-0.07,1.56-0.22,2.47
				l-0.02,0.14l-0.04,0.14c-1.03,3.24-2.83,5.89-5.35,7.89c-2.57,2.04-5.55,3.07-8.86,3.07C807.61,1019.24,792.08,1019.5,778,1019.5
				z M802.61,991.57c-2.7,0-5.1-0.88-7.15-2.62c-2.06-1.61-3.59-3.76-4.5-6.33c-0.71-2.31-0.4-4.57,0.87-6.61
				c1.27-2.03,3.17-3.1,5.49-3.1c0.16,0,0.31,0,0.47,0.01h4.52c1.1,0,2.25-0.03,3.41-0.09c1.29-0.07,2.14-0.1,2.55-0.1
				c0.47,0,0.71-0.06,0.81-0.1c0.04-0.12,0.12-0.42,0.12-1.03v-12.06h-25.88V980c0,2.88-1.02,5.36-3.03,7.37s-4.49,3.03-7.37,3.03
				c-2.89,0-5.37-1.02-7.37-3.03c-2.01-2-3.03-4.48-3.03-7.37v-20.46h-24.71v20.85c0,2.88-1.05,5.4-3.13,7.47
				c-2.07,2.07-4.62,3.13-7.57,3.13c-2.94,0-5.47-1.01-7.54-3c-2.09-2.01-3.15-4.56-3.15-7.59v-76.76c0-5.21,1.87-9.73,5.57-13.43
				c3.69-3.69,8.21-5.57,13.43-5.57h25.36c-5.74-2.66-11.61-5.23-17.53-7.67c-2.2-0.91-3.59-2.68-4.04-5.1
				c-0.46-2.48,0.35-4.67,2.36-6.3c2.97-2.38,6.15-3.58,9.47-3.58c1.93,0,3.87,0.37,5.79,1.11c5.63,2.1,11.24,4.34,16.67,6.67
				c0.37,0.15,0.74,0.23,1.07,0.23c0.27,0,0.52-0.06,0.77-0.18c5-2.6,9.92-5.52,14.67-8.71h-63.58c-2.5,0-4.68-0.92-6.49-2.74
				c-1.81-1.81-2.73-4.02-2.73-6.59c0-2.56,0.92-4.78,2.73-6.59s4-2.73,6.49-2.73h86.83l0.21-0.1l0.27-0.05
				c0.79-0.16,1.57-0.23,2.34-0.23c2.02,0,3.88,0.67,5.54,2l2.74,2.35c2.02,1.54,3.09,3.66,3.09,6.15c0,2.47-1,4.59-2.88,6.14
				c-9.18,7.81-19.16,14.79-29.66,20.74c3.01,1.45,5.87,2.96,8.5,4.5c0.84,0.47,1.74,0.7,2.7,0.7h5.66c5.22,0,9.73,1.87,13.43,5.57
				c3.69,3.69,5.57,8.21,5.57,13.43v68.16c0,4.75-0.53,8.28-1.64,10.77c-1.18,2.67-3.45,4.78-6.76,6.29
				c-3.97,1.7-10.35,2.58-19.55,2.72h-0.01h-0.2V991.57z M809.21,941.67v-11.04h-25.88v11.04H809.21z M762.53,941.67v-11.04h-24.71
				v11.04H762.53z M809.21,912.96v-10.65h-25.88v10.65H809.21z M762.53,912.96v-10.65h-24.71v10.65H762.53z M690.79,883.56
				c-3.06-0.16-5.58-1.46-7.51-3.87c-5.7-6.58-12.58-13.26-20.38-19.79c-2.42-1.79-3.69-4.36-3.69-7.43c0-2.69,1.09-4.98,3.25-6.8
				c2.1-1.95,4.76-3.05,7.83-3.21h0.69c2.79,0,5.3,0.87,7.48,2.57c8.35,6.26,15.53,12.58,21.32,18.76c2.06,2.38,3.08,4.99,3.08,7.81
				c0,3.56-1.33,6.61-3.95,9.07c-2.08,1.92-4.44,2.89-7.03,2.89L690.79,883.56z"/>
			<path class="st26" d="M778,1019.5c-11.56,0-22.5-0.2-32.5-0.59c-12.4-0.4-23.11-2.38-31.82-5.91c-8.76-3.55-16.33-9-22.49-16.21
				l-0.01-0.01c-7.35,6.32-14.53,12.18-21.33,17.41c-1.75,1.43-3.82,2.17-6.1,2.17c-0.77,0-1.55-0.08-2.34-0.23l-0.1-0.02
				c-3.18-0.8-5.53-2.66-6.97-5.54l-0.04-0.09l-0.03-0.09c-0.74-1.91-1.11-3.79-1.11-5.6c0-1.19,0.15-2.46,0.44-3.76
				c0.94-3.44,2.87-6.07,5.77-7.89c6.78-4.48,13.31-9.18,19.36-13.94c0.58-0.44,0.8-0.88,0.8-1.55v-43.9h-16.75
				c-2.89,0-5.4-1.05-7.47-3.13c-2.07-2.07-3.12-4.58-3.12-7.47c0-2.88,1.05-5.39,3.12-7.47c2.07-2.07,4.59-3.13,7.47-3.13h19.53
				c5.22,0,9.73,1.87,13.43,5.57c3.69,3.69,5.57,8.21,5.57,13.43v45.12c0,0.87,0.25,1.62,0.77,2.31
				c7.84,11.45,22.56,17.66,43.8,18.54c9.68,0.52,20.09,0.78,30.97,0.78c16.33,0,34.24-0.52,53.21-1.56
				c0.18-0.01,0.36-0.02,0.54-0.02c2.65,0,4.88,1.17,6.47,3.39c1.04,1.56,1.55,3.18,1.55,4.88c0,0.75-0.07,1.56-0.22,2.47
				l-0.02,0.14l-0.04,0.14c-1.03,3.24-2.83,5.89-5.35,7.89c-2.57,2.04-5.55,3.07-8.86,3.07C807.61,1019.24,792.08,1019.5,778,1019.5
				z M802.61,991.57c-2.7,0-5.1-0.88-7.15-2.62c-2.06-1.61-3.59-3.76-4.5-6.33c-0.71-2.31-0.4-4.57,0.87-6.61
				c1.27-2.03,3.17-3.1,5.49-3.1c0.16,0,0.31,0,0.47,0.01h4.52c1.1,0,2.25-0.03,3.41-0.09c1.29-0.07,2.14-0.1,2.55-0.1
				c0.47,0,0.71-0.06,0.81-0.1c0.04-0.12,0.12-0.42,0.12-1.03v-12.06h-25.88V980c0,2.88-1.02,5.36-3.03,7.37s-4.49,3.03-7.37,3.03
				c-2.89,0-5.37-1.02-7.37-3.03c-2.01-2-3.03-4.48-3.03-7.37v-20.46h-24.71v20.85c0,2.88-1.05,5.4-3.13,7.47
				c-2.07,2.07-4.62,3.13-7.57,3.13c-2.94,0-5.47-1.01-7.54-3c-2.09-2.01-3.15-4.56-3.15-7.59v-76.76c0-5.21,1.87-9.73,5.57-13.43
				c3.69-3.69,8.21-5.57,13.43-5.57h25.36c-5.74-2.66-11.61-5.23-17.53-7.67c-2.2-0.91-3.59-2.68-4.04-5.1
				c-0.46-2.48,0.35-4.67,2.36-6.3c2.97-2.38,6.15-3.58,9.47-3.58c1.93,0,3.87,0.37,5.79,1.11c5.63,2.1,11.24,4.34,16.67,6.67
				c0.37,0.15,0.74,0.23,1.07,0.23c0.27,0,0.52-0.06,0.77-0.18c5-2.6,9.92-5.52,14.67-8.71h-63.58c-2.5,0-4.68-0.92-6.49-2.74
				c-1.81-1.81-2.73-4.02-2.73-6.59c0-2.56,0.92-4.78,2.73-6.59s4-2.73,6.49-2.73h86.83l0.21-0.1l0.27-0.05
				c0.79-0.16,1.57-0.23,2.34-0.23c2.02,0,3.88,0.67,5.54,2l2.74,2.35c2.02,1.54,3.09,3.66,3.09,6.15c0,2.47-1,4.59-2.88,6.14
				c-9.18,7.81-19.16,14.79-29.66,20.74c3.01,1.45,5.87,2.96,8.5,4.5c0.84,0.47,1.74,0.7,2.7,0.7h5.66c5.22,0,9.73,1.87,13.43,5.57
				c3.69,3.69,5.57,8.21,5.57,13.43v68.16c0,4.75-0.53,8.28-1.64,10.77c-1.18,2.67-3.45,4.78-6.76,6.29
				c-3.97,1.7-10.35,2.58-19.55,2.72h-0.01h-0.2V991.57z M809.21,941.67v-11.04h-25.88v11.04H809.21z M762.53,941.67v-11.04h-24.71
				v11.04H762.53z M809.21,912.96v-10.65h-25.88v10.65H809.21z M762.53,912.96v-10.65h-24.71v10.65H762.53z M690.79,883.56
				c-3.06-0.16-5.58-1.46-7.51-3.87c-5.7-6.58-12.58-13.26-20.38-19.79c-2.42-1.79-3.69-4.36-3.69-7.43c0-2.69,1.09-4.98,3.25-6.8
				c2.1-1.95,4.76-3.05,7.83-3.21h0.69c2.79,0,5.3,0.87,7.48,2.57c8.35,6.26,15.53,12.58,21.32,18.76c2.06,2.38,3.08,4.99,3.08,7.81
				c0,3.56-1.33,6.61-3.95,9.07c-2.08,1.92-4.44,2.89-7.03,2.89L690.79,883.56z"/>
		</g>
		<g>
			<path class="st25" d="M872.14,1022.63c-3.01,0-5.62-1.08-7.76-3.22s-3.22-4.75-3.22-7.76V862.03c0-5.21,1.87-9.73,5.57-13.43
				c3.69-3.69,8.21-5.57,13.43-5.57h40.43c5.22,0,9.73,1.87,13.43,5.57c3.69,3.69,5.57,8.21,5.57,13.43v32.42
				c0,4.19-1.48,7.76-4.41,10.61c-2.27,2.22-4.88,3.58-7.77,4.07c0.01,0.02,0.01,0.04,0.02,0.06c0.4,1.62,0.09,3.2-0.9,4.58
				l-0.06,0.08c-4.55,5.72-8.33,10.23-11.22,13.39c-0.04,0.05-0.07,0.09-0.1,0.13c0.01,0.01,0.02,0.02,0.04,0.04
				c1.34,1.35,2.39,2.44,3.18,3.34c2.72-3.11,5.11-5.99,7.1-8.61c1.33-1.66,2.98-2.77,4.93-3.34c0.83-0.24,1.65-0.36,2.46-0.36
				c1.17,0,2.32,0.25,3.42,0.75c1.93,0.97,3.1,2.5,3.48,4.47c0.38,2-0.13,3.79-1.48,5.16c-2.86,3.21-5.57,6.18-8.11,8.9
				c0.05-0.02,0.11-0.04,0.17-0.06c0.99-0.33,1.99-0.49,2.98-0.49c2.74,0,5.08,1.32,6.74,3.82c1.9,2.94,3.59,5.87,5.05,8.77
				c1.11-1.21,2.56-1.84,4.23-1.84h0.69c0.06-0.02,0.09-0.04,0.09-0.04c0.67-0.58,2.26-2.07,6.4-6.21c0,0,0.15-0.14,0.17-0.16
				c-3.54-4.16-7.83-8.37-12.74-12.53c-1.47-1.28-2.28-2.95-2.37-4.85c-0.09-1.92,0.55-3.62,1.85-4.92l0.09-0.08
				c1.52-1.35,3.25-2.07,5.14-2.16c0.13-0.01,0.25-0.01,0.37-0.01c1.67,0,3.21,0.5,4.59,1.5c2.55-3.68,4.63-6.81,6.2-9.36
				c-2.01-0.43-3.81-1.43-5.35-2.97c-2.14-2.14-3.22-4.75-3.22-7.76v-36.33c0-5.21,1.87-9.73,5.57-13.43
				c3.69-3.69,8.21-5.57,13.43-5.57h41.8c5.22,0,9.73,1.87,13.43,5.57c3.69,3.69,5.57,8.21,5.57,13.43v136.33
				c0,5.37-0.55,9.44-1.69,12.43c-1.22,3.2-3.52,5.67-6.83,7.33c-3.91,2.09-10.07,3.26-18.8,3.53h-0.45c-2.95,0-5.63-1.02-7.95-3.03
				c-2.48-2.04-4.21-4.6-5.1-7.58l-0.03-0.09l-0.02-0.09c-0.16-0.78-0.23-1.57-0.23-2.35c0-1.85,0.58-3.61,1.73-5.25
				c1.68-2.35,4.06-3.59,6.91-3.59c2.85,0.13,5.87,0.19,9.08,0.2c1.12-0.12,1.41-0.38,1.42-0.39l0,0c0,0,0.2-0.3,0.2-1.32v-88.83
				h-32.22c0.23,1.4-0.09,2.69-0.93,3.74c-4.56,5.73-8.59,10.56-11.99,14.34c-0.05,0.06-0.08,0.1-0.11,0.14
				c0.01,0.01,1.97,1.97,3.2,3.2c3.12-3.5,5.5-6.33,7.11-8.43l0.09-0.11c1.29-1.46,2.96-2.48,4.96-3.04
				c0.78-0.22,1.55-0.33,2.3-0.33c1.28,0,2.52,0.31,3.69,0.93c1.88,0.79,3.07,2.26,3.45,4.27c0.37,1.97-0.12,3.81-1.44,5.31
				c-5.84,6.41-11.54,12.28-17,17.53c1.19-0.07,2.51-0.15,3.95-0.23c2.22-0.13,4.11-0.21,5.62-0.26c-0.22-0.39-0.44-0.74-0.63-1.03
				c-0.72-1.15-1.35-2.97-0.39-5.37c0.78-1.75,2.07-2.87,3.77-3.31c1.11-0.46,2.08-0.68,2.97-0.68c2.89,0,5.3,1.41,6.97,4.06
				c3.28,5,5.91,9.84,7.77,14.36c0.74,2.03,0.65,3.96-0.24,5.82s-2.38,3.15-4.44,3.85c-0.8,0.31-1.61,0.47-2.43,0.47
				c-1.03,0-2.07-0.25-3.07-0.76c-1.63-0.81-2.82-2.03-3.55-3.63c-4.87,0.38-11.54,0.85-19.84,1.4c-2.05,0.13-3.95,0.26-5.72,0.38
				c0.76,0.4,1.47,0.93,2.12,1.58c1.69,1.69,2.54,3.74,2.54,6.1v12.45h12.21v-9.72c0-2.21,0.78-4.15,2.3-5.77
				c1.56-1.65,3.5-2.48,5.75-2.48c2.23,0,4.18,0.82,5.81,2.44c1.62,1.63,2.44,3.58,2.44,5.81v8.2c0,4.58-1.65,8.51-4.9,11.68
				c-3.24,3.16-7.12,4.77-11.55,4.77H965.8v13.23c0,2.38-0.87,4.41-2.57,6.04c-1.68,1.6-3.72,2.41-6.07,2.41
				c-2.36,0-4.38-0.82-6-2.44c-1.62-1.62-2.44-3.64-2.44-6v-40.63c0-2.34,0.81-4.38,2.41-6.06c0.36-0.38,0.75-0.72,1.15-1.02
				c-1.59,0.11-2.95,0.2-4.07,0.28c-0.19,0.03-0.37,0.04-0.54,0.04c-0.76,0-1.44-0.24-1.99-0.67l-4.53,1.65
				c0.04,0.23,0.06,0.46,0.06,0.71v16.8c0,4-0.27,7.56-0.81,10.6c-0.55,3.08-1.58,6.33-3.07,9.65c-1.55,3.45-4.02,6.64-7.36,9.49
				c-3.26,2.78-7.29,5.28-11.99,7.43c-1.33,0.57-2.65,0.85-3.96,0.85c-0.99,0-1.98-0.16-2.96-0.47c-2.19-0.7-4.08-2.06-5.62-4.05
				c-1.45-1.66-1.92-3.66-1.37-5.78c0.55-2.11,1.84-3.63,3.73-4.38c4.98-2.07,8.85-4.65,11.51-7.67h-6.48
				c-4.43,0-8.32-1.6-11.56-4.77c-3.25-3.17-4.9-7.1-4.9-11.68v-8.4c0-2.23,0.79-4.16,2.34-5.71c1.56-1.56,3.48-2.34,5.71-2.34
				s4.16,0.79,5.71,2.34c1.56,1.55,2.34,3.48,2.34,5.71v9.91h11.82v-9.52c0-3.42,1.13-6.23,3.35-8.37c1.84-1.78,4.04-2.82,6.54-3.11
				c-0.06-0.16-0.21-0.55-0.21-0.55l-0.02-0.08c-0.06-0.21-0.13-0.31-0.15-0.34l0,0c-0.01,0-0.06-0.01-0.13-0.01
				c-0.05,0-0.09,0-0.14,0.01c-8.13,0.79-20.04,1.64-35.43,2.54c-0.17,0.02-0.39,0.03-0.62,0.03c-1.71,0-3.28-0.59-4.68-1.76
				c-1.57-1.31-2.46-3.02-2.66-5.08c-0.34-1.99,0.2-3.85,1.56-5.39c1.32-1.5,2.98-2.35,4.93-2.52l0.11-0.01l5.13-0.19
				c0.31-0.07,0.56-0.19,0.76-0.4c1.94-1.81,3.87-3.68,5.81-5.61c0.09-0.1,0.14-0.18,0.17-0.24c-0.01-0.01-0.02-0.02-0.03-0.03
				c-3.56-4.32-7.73-8.36-12.41-12.03l-0.08-0.07c-1.43-1.25-2.25-2.81-2.43-4.63c-0.19-1.89,0.41-3.6,1.75-4.93
				c1.37-1.37,3-2.16,4.84-2.34c0.26-0.02,0.52-0.04,0.77-0.04c1.41,0,2.75,0.38,3.99,1.12c2.48-3.41,4.58-6.48,6.31-9.2h-28.3
				v102.3c0,3-1.04,5.6-3.1,7.73C877.76,1021.53,875.17,1022.63,872.14,1022.63z M926.44,941.63c-1.77,1.84-3.44,3.53-5.02,5.08
				l5.69-0.39l-0.07-0.12C926.2,944.7,925.99,943.13,926.44,941.63z M1009.21,892.45v-8.11h-36.43v8.11H1009.21z M918.19,892.45
				v-8.11h-35.26v8.11H918.19z M1009.21,868.63v-8.5h-36.43v8.5H1009.21z M918.19,868.63v-8.5h-35.26v8.5H918.19z"/>
			<path class="st26" d="M872.14,1022.63c-3.01,0-5.62-1.08-7.76-3.22s-3.22-4.75-3.22-7.76V862.03c0-5.21,1.87-9.73,5.57-13.43
				c3.69-3.69,8.21-5.57,13.43-5.57h40.43c5.22,0,9.73,1.87,13.43,5.57c3.69,3.69,5.57,8.21,5.57,13.43v32.42
				c0,4.19-1.48,7.76-4.41,10.61c-2.27,2.22-4.88,3.58-7.77,4.07c0.01,0.02,0.01,0.04,0.02,0.06c0.4,1.62,0.09,3.2-0.9,4.58
				l-0.06,0.08c-4.55,5.72-8.33,10.23-11.22,13.39c-0.04,0.05-0.07,0.09-0.1,0.13c0.01,0.01,0.02,0.02,0.04,0.04
				c1.34,1.35,2.39,2.44,3.18,3.34c2.72-3.11,5.11-5.99,7.1-8.61c1.33-1.66,2.98-2.77,4.93-3.34c0.83-0.24,1.65-0.36,2.46-0.36
				c1.17,0,2.32,0.25,3.42,0.75c1.93,0.97,3.1,2.5,3.48,4.47c0.38,2-0.13,3.79-1.48,5.16c-2.86,3.21-5.57,6.18-8.11,8.9
				c0.05-0.02,0.11-0.04,0.17-0.06c0.99-0.33,1.99-0.49,2.98-0.49c2.74,0,5.08,1.32,6.74,3.82c1.9,2.94,3.59,5.87,5.05,8.77
				c1.11-1.21,2.56-1.84,4.23-1.84h0.69c0.06-0.02,0.09-0.04,0.09-0.04c0.67-0.58,2.26-2.07,6.4-6.21c0,0,0.15-0.14,0.17-0.16
				c-3.54-4.16-7.83-8.37-12.74-12.53c-1.47-1.28-2.28-2.95-2.37-4.85c-0.09-1.92,0.55-3.62,1.85-4.92l0.09-0.08
				c1.52-1.35,3.25-2.07,5.14-2.16c0.13-0.01,0.25-0.01,0.37-0.01c1.67,0,3.21,0.5,4.59,1.5c2.55-3.68,4.63-6.81,6.2-9.36
				c-2.01-0.43-3.81-1.43-5.35-2.97c-2.14-2.14-3.22-4.75-3.22-7.76v-36.33c0-5.21,1.87-9.73,5.57-13.43
				c3.69-3.69,8.21-5.57,13.43-5.57h41.8c5.22,0,9.73,1.87,13.43,5.57c3.69,3.69,5.57,8.21,5.57,13.43v136.33
				c0,5.37-0.55,9.44-1.69,12.43c-1.22,3.2-3.52,5.67-6.83,7.33c-3.91,2.09-10.07,3.26-18.8,3.53h-0.45c-2.95,0-5.63-1.02-7.95-3.03
				c-2.48-2.04-4.21-4.6-5.1-7.58l-0.03-0.09l-0.02-0.09c-0.16-0.78-0.23-1.57-0.23-2.35c0-1.85,0.58-3.61,1.73-5.25
				c1.68-2.35,4.06-3.59,6.91-3.59c2.85,0.13,5.87,0.19,9.08,0.2c1.12-0.12,1.41-0.38,1.42-0.39l0,0c0,0,0.2-0.3,0.2-1.32v-88.83
				h-32.22c0.23,1.4-0.09,2.69-0.93,3.74c-4.56,5.73-8.59,10.56-11.99,14.34c-0.05,0.06-0.08,0.1-0.11,0.14
				c0.01,0.01,1.97,1.97,3.2,3.2c3.12-3.5,5.5-6.33,7.11-8.43l0.09-0.11c1.29-1.46,2.96-2.48,4.96-3.04
				c0.78-0.22,1.55-0.33,2.3-0.33c1.28,0,2.52,0.31,3.69,0.93c1.88,0.79,3.07,2.26,3.45,4.27c0.37,1.97-0.12,3.81-1.44,5.31
				c-5.84,6.41-11.54,12.28-17,17.53c1.19-0.07,2.51-0.15,3.95-0.23c2.22-0.13,4.11-0.21,5.62-0.26c-0.22-0.39-0.44-0.74-0.63-1.03
				c-0.72-1.15-1.35-2.97-0.39-5.37c0.78-1.75,2.07-2.87,3.77-3.31c1.11-0.46,2.08-0.68,2.97-0.68c2.89,0,5.3,1.41,6.97,4.06
				c3.28,5,5.91,9.84,7.77,14.36c0.74,2.03,0.65,3.96-0.24,5.82s-2.38,3.15-4.44,3.85c-0.8,0.31-1.61,0.47-2.43,0.47
				c-1.03,0-2.07-0.25-3.07-0.76c-1.63-0.81-2.82-2.03-3.55-3.63c-4.87,0.38-11.54,0.85-19.84,1.4c-2.05,0.13-3.95,0.26-5.72,0.38
				c0.76,0.4,1.47,0.93,2.12,1.58c1.69,1.69,2.54,3.74,2.54,6.1v12.45h12.21v-9.72c0-2.21,0.78-4.15,2.3-5.77
				c1.56-1.65,3.5-2.48,5.75-2.48c2.23,0,4.18,0.82,5.81,2.44c1.62,1.63,2.44,3.58,2.44,5.81v8.2c0,4.58-1.65,8.51-4.9,11.68
				c-3.24,3.16-7.12,4.77-11.55,4.77H965.8v13.23c0,2.38-0.87,4.41-2.57,6.04c-1.68,1.6-3.72,2.41-6.07,2.41
				c-2.36,0-4.38-0.82-6-2.44c-1.62-1.62-2.44-3.64-2.44-6v-40.63c0-2.34,0.81-4.38,2.41-6.06c0.36-0.38,0.75-0.72,1.15-1.02
				c-1.59,0.11-2.95,0.2-4.07,0.28c-0.19,0.03-0.37,0.04-0.54,0.04c-0.76,0-1.44-0.24-1.99-0.67l-4.53,1.65
				c0.04,0.23,0.06,0.46,0.06,0.71v16.8c0,4-0.27,7.56-0.81,10.6c-0.55,3.08-1.58,6.33-3.07,9.65c-1.55,3.45-4.02,6.64-7.36,9.49
				c-3.26,2.78-7.29,5.28-11.99,7.43c-1.33,0.57-2.65,0.85-3.96,0.85c-0.99,0-1.98-0.16-2.96-0.47c-2.19-0.7-4.08-2.06-5.62-4.05
				c-1.45-1.66-1.92-3.66-1.37-5.78c0.55-2.11,1.84-3.63,3.73-4.38c4.98-2.07,8.85-4.65,11.51-7.67h-6.48
				c-4.43,0-8.32-1.6-11.56-4.77c-3.25-3.17-4.9-7.1-4.9-11.68v-8.4c0-2.23,0.79-4.16,2.34-5.71c1.56-1.56,3.48-2.34,5.71-2.34
				s4.16,0.79,5.71,2.34c1.56,1.55,2.34,3.48,2.34,5.71v9.91h11.82v-9.52c0-3.42,1.13-6.23,3.35-8.37c1.84-1.78,4.04-2.82,6.54-3.11
				c-0.06-0.16-0.21-0.55-0.21-0.55l-0.02-0.08c-0.06-0.21-0.13-0.31-0.15-0.34l0,0c-0.01,0-0.06-0.01-0.13-0.01
				c-0.05,0-0.09,0-0.14,0.01c-8.13,0.79-20.04,1.64-35.43,2.54c-0.17,0.02-0.39,0.03-0.62,0.03c-1.71,0-3.28-0.59-4.68-1.76
				c-1.57-1.31-2.46-3.02-2.66-5.08c-0.34-1.99,0.2-3.85,1.56-5.39c1.32-1.5,2.98-2.35,4.93-2.52l0.11-0.01l5.13-0.19
				c0.31-0.07,0.56-0.19,0.76-0.4c1.94-1.81,3.87-3.68,5.81-5.61c0.09-0.1,0.14-0.18,0.17-0.24c-0.01-0.01-0.02-0.02-0.03-0.03
				c-3.56-4.32-7.73-8.36-12.41-12.03l-0.08-0.07c-1.43-1.25-2.25-2.81-2.43-4.63c-0.19-1.89,0.41-3.6,1.75-4.93
				c1.37-1.37,3-2.16,4.84-2.34c0.26-0.02,0.52-0.04,0.77-0.04c1.41,0,2.75,0.38,3.99,1.12c2.48-3.41,4.58-6.48,6.31-9.2h-28.3
				v102.3c0,3-1.04,5.6-3.1,7.73C877.76,1021.53,875.17,1022.63,872.14,1022.63z M926.44,941.63c-1.77,1.84-3.44,3.53-5.02,5.08
				l5.69-0.39l-0.07-0.12C926.2,944.7,925.99,943.13,926.44,941.63z M1009.21,892.45v-8.11h-36.43v8.11H1009.21z M918.19,892.45
				v-8.11h-35.26v8.11H918.19z M1009.21,868.63v-8.5h-36.43v8.5H1009.21z M918.19,868.63v-8.5h-35.26v8.5H918.19z"/>
		</g>
		<g>
			<path class="st25" d="M1086.79,1022.63c-3.16,0-5.84-1.13-7.98-3.35c-2.12-2.2-3.2-4.84-3.2-7.83v-39.84c0-3,1.08-5.63,3.2-7.83
				c2.14-2.22,4.8-3.35,7.89-3.35c3.07,0,5.75,1.12,7.96,3.32c2.21,2.21,3.32,4.85,3.32,7.86v21.63h35.84v-31.98
				c0-3.14,1.12-5.85,3.32-8.05c0.85-0.85,1.77-1.53,2.76-2.05h-5.83c-9.06,0-15.5-0.81-19.69-2.49c-0.41-0.16-0.78-0.25-1.11-0.25
				c-0.27,0-0.53,0.06-0.77,0.18l-0.1,0.05c-12.12,5.21-25.2,9.97-38.88,14.14l-0.07,0.02l-0.07,0.02c-1.3,0.29-2.56,0.44-3.76,0.44
				c-1.67,0-3.34-0.3-4.98-0.9c-3.01-1.2-5.42-3.08-7.2-5.61c-1.03-1.54-1.54-3.17-1.54-4.86c0-0.88,0.17-1.76,0.5-2.62
				c0.87-2.7,2.77-4.49,5.5-5.18c14.94-3.86,28.91-8.5,41.51-13.77c0.36-0.16,0.53-0.33,0.53-0.89v-29.69c0-2.74,1.01-5.18,3-7.25
				c2.01-2.09,4.5-3.15,7.4-3.15c2.89,0,5.38,1.06,7.4,3.15c1.99,2.08,3,4.51,3,7.25v20.67c19.45-10.13,35.22-22.18,46.87-35.84
				c1.96-2.26,4.4-3.79,7.26-4.54c1.05-0.3,2.16-0.46,3.25-0.46c1.84,0,3.63,0.39,5.32,1.15c2.62,1.15,4.37,3.25,5.03,6.05
				c0.66,2.82,0.04,5.45-1.79,7.61c-11.88,13.95-27.42,26.75-46.24,38.11h25.77c3.72,0,5.31-0.73,5.98-1.34
				c0.57-0.51,1.6-2.01,2.19-6.31c0.34-2.42,1.65-4.36,3.79-5.64c1.21-0.73,2.5-1.1,3.83-1.1c1.02,0,2.06,0.22,3.1,0.66
				c2.56,0.92,4.7,2.53,6.36,4.78l0.08,0.11c1.11,1.76,1.68,3.69,1.68,5.76v1.75l-0.03,0.18c-1.41,7.61-3.92,12.7-7.69,15.58
				c-3.71,2.84-9.45,4.22-17.52,4.22h-21.46c0.99,0.52,1.91,1.21,2.76,2.05c2.21,2.21,3.32,4.92,3.32,8.06v31.98h38.19V971.8
				c0-3.14,1.12-5.85,3.32-8.05s4.88-3.32,7.96-3.32c3.07,0,5.75,1.12,7.96,3.32c2.21,2.21,3.32,4.92,3.32,8.06v39.06
				c0,3.14-1.12,5.85-3.32,8.05c-2.21,2.21-4.85,3.32-7.86,3.32h-2.34c-2.49,0-4.65-0.89-6.39-2.64c-1.46-1.46-2.32-3.19-2.56-5.18
				h-96.92c-0.25,2.1-1.14,3.94-2.66,5.47c-1.82,1.82-4.07,2.74-6.69,2.74L1086.79,1022.63L1086.79,1022.63z M1225.85,940.4
				c-0.66,0-1.38-0.08-2.16-0.24c-2.83-0.63-5.12-2.05-6.84-4.24c-5.93-8.12-13.47-16.5-22.46-24.97c-1.83-1.66-2.78-3.74-2.78-6.14
				c0-3.02,1.33-5.42,3.84-6.95c2.01-1.38,4.35-2.08,6.95-2.08h0.69c2.94,0.16,5.46,1.19,7.5,3.07
				c9.53,8.49,17.49,16.79,23.66,24.65c1.33,1.84,1.99,3.87,1.99,6.12c0,0.65-0.08,1.31-0.24,1.97c-0.49,2.83-1.93,5.15-4.29,6.87
				C1229.77,939.76,1227.81,940.4,1225.85,940.4z M1069.6,937.47c-3.01,0-5.75-0.91-8.16-2.69c-2.23-1.41-3.41-3.6-3.41-6.34
				c0-2.65,1.01-4.92,2.99-6.75c6.44-5.55,11.65-12.62,15.55-21.05c1.1-2.51,2.95-4.37,5.5-5.48c1.42-0.63,2.78-0.95,4.03-0.95
				c1.21,0,2.46,0.24,3.73,0.71c2.6,0.98,4.49,2.78,5.62,5.37c0.62,1.24,0.95,2.59,0.95,3.93c0,1.28-0.24,2.57-0.71,3.83
				c-4.82,11.11-10.76,19.88-17.72,26.17c-2.15,2-4.88,3.1-8.08,3.25h-0.05H1069.6z M1147.67,900.62c-2.13,0-4.09-0.69-5.85-2.04
				c-6.33-4.43-13.61-8.71-21.55-12.69c-2.22-1.02-3.66-2.84-4.1-5.24c-0.43-2.31,0.05-4.44,1.42-6.32l0.07-0.09l0.08-0.08
				c0.87-0.95,1.83-1.72,2.87-2.31h-39.04v12.26c0,3.01-1.08,5.62-3.22,7.76s-4.78,3.22-7.86,3.22c-3.09,0-5.75-1.13-7.89-3.35
				c-2.12-2.2-3.2-4.77-3.2-7.64v-14.06c0-5.21,1.87-9.73,5.57-13.43s8.21-5.57,13.43-5.57h55.23v-4.45c0-3.42,1.13-6.24,3.35-8.37
				c2.2-2.12,4.93-3.2,8.13-3.2s5.94,1.12,8.15,3.32c2.21,2.21,3.32,4.98,3.32,8.25v4.45h56.59c5.21,0,9.73,1.87,13.43,5.57
				c3.7,3.7,5.57,8.21,5.57,13.43v13.48c0,3.12-1.07,5.84-3.17,8.1c-2.14,2.3-4.9,3.47-8.2,3.47c-3.29,0-6.07-1.16-8.28-3.44
				c-2.19-2.26-3.29-4.99-3.29-8.13v-11.68h-77.13c8.2,3.78,15.41,7.74,21.46,11.77c2.3,1.48,3.66,3.68,3.91,6.36
				c0.24,2.59-0.45,4.97-2.07,7.07c-1.68,2.02-3.83,3.18-6.42,3.5C1148.53,900.59,1148.09,900.62,1147.67,900.62z"/>
			<path class="st26" d="M1086.79,1022.63c-3.16,0-5.84-1.13-7.98-3.35c-2.12-2.2-3.2-4.84-3.2-7.83v-39.84c0-3,1.08-5.63,3.2-7.83
				c2.14-2.22,4.8-3.35,7.89-3.35c3.07,0,5.75,1.12,7.96,3.32c2.21,2.21,3.32,4.85,3.32,7.86v21.63h35.84v-31.98
				c0-3.14,1.12-5.85,3.32-8.05c0.85-0.85,1.77-1.53,2.76-2.05h-5.83c-9.06,0-15.5-0.81-19.69-2.49c-0.41-0.16-0.78-0.25-1.11-0.25
				c-0.27,0-0.53,0.06-0.77,0.18l-0.1,0.05c-12.12,5.21-25.2,9.97-38.88,14.14l-0.07,0.02l-0.07,0.02c-1.3,0.29-2.56,0.44-3.76,0.44
				c-1.67,0-3.34-0.3-4.98-0.9c-3.01-1.2-5.42-3.08-7.2-5.61c-1.03-1.54-1.54-3.17-1.54-4.86c0-0.88,0.17-1.76,0.5-2.62
				c0.87-2.7,2.77-4.49,5.5-5.18c14.94-3.86,28.91-8.5,41.51-13.77c0.36-0.16,0.53-0.33,0.53-0.89v-29.69c0-2.74,1.01-5.18,3-7.25
				c2.01-2.09,4.5-3.15,7.4-3.15c2.89,0,5.38,1.06,7.4,3.15c1.99,2.08,3,4.51,3,7.25v20.67c19.45-10.13,35.22-22.18,46.87-35.84
				c1.96-2.26,4.4-3.79,7.26-4.54c1.05-0.3,2.16-0.46,3.25-0.46c1.84,0,3.63,0.39,5.32,1.15c2.62,1.15,4.37,3.25,5.03,6.05
				c0.66,2.82,0.04,5.45-1.79,7.61c-11.88,13.95-27.42,26.75-46.24,38.11h25.77c3.72,0,5.31-0.73,5.98-1.34
				c0.57-0.51,1.6-2.01,2.19-6.31c0.34-2.42,1.65-4.36,3.79-5.64c1.21-0.73,2.5-1.1,3.83-1.1c1.02,0,2.06,0.22,3.1,0.66
				c2.56,0.92,4.7,2.53,6.36,4.78l0.08,0.11c1.11,1.76,1.68,3.69,1.68,5.76v1.75l-0.03,0.18c-1.41,7.61-3.92,12.7-7.69,15.58
				c-3.71,2.84-9.45,4.22-17.52,4.22h-21.46c0.99,0.52,1.91,1.21,2.76,2.05c2.21,2.21,3.32,4.92,3.32,8.06v31.98h38.19V971.8
				c0-3.14,1.12-5.85,3.32-8.05s4.88-3.32,7.96-3.32c3.07,0,5.75,1.12,7.96,3.32c2.21,2.21,3.32,4.92,3.32,8.06v39.06
				c0,3.14-1.12,5.85-3.32,8.05c-2.21,2.21-4.85,3.32-7.86,3.32h-2.34c-2.49,0-4.65-0.89-6.39-2.64c-1.46-1.46-2.32-3.19-2.56-5.18
				h-96.92c-0.25,2.1-1.14,3.94-2.66,5.47c-1.82,1.82-4.07,2.74-6.69,2.74L1086.79,1022.63L1086.79,1022.63z M1225.85,940.4
				c-0.66,0-1.38-0.08-2.16-0.24c-2.83-0.63-5.12-2.05-6.84-4.24c-5.93-8.12-13.47-16.5-22.46-24.97c-1.83-1.66-2.78-3.74-2.78-6.14
				c0-3.02,1.33-5.42,3.84-6.95c2.01-1.38,4.35-2.08,6.95-2.08h0.69c2.94,0.16,5.46,1.19,7.5,3.07
				c9.53,8.49,17.49,16.79,23.66,24.65c1.33,1.84,1.99,3.87,1.99,6.12c0,0.65-0.08,1.31-0.24,1.97c-0.49,2.83-1.93,5.15-4.29,6.87
				C1229.77,939.76,1227.81,940.4,1225.85,940.4z M1069.6,937.47c-3.01,0-5.75-0.91-8.16-2.69c-2.23-1.41-3.41-3.6-3.41-6.34
				c0-2.65,1.01-4.92,2.99-6.75c6.44-5.55,11.65-12.62,15.55-21.05c1.1-2.51,2.95-4.37,5.5-5.48c1.42-0.63,2.78-0.95,4.03-0.95
				c1.21,0,2.46,0.24,3.73,0.71c2.6,0.98,4.49,2.78,5.62,5.37c0.62,1.24,0.95,2.59,0.95,3.93c0,1.28-0.24,2.57-0.71,3.83
				c-4.82,11.11-10.76,19.88-17.72,26.17c-2.15,2-4.88,3.1-8.08,3.25h-0.05H1069.6z M1147.67,900.62c-2.13,0-4.09-0.69-5.85-2.04
				c-6.33-4.43-13.61-8.71-21.55-12.69c-2.22-1.02-3.66-2.84-4.1-5.24c-0.43-2.31,0.05-4.44,1.42-6.32l0.07-0.09l0.08-0.08
				c0.87-0.95,1.83-1.72,2.87-2.31h-39.04v12.26c0,3.01-1.08,5.62-3.22,7.76s-4.78,3.22-7.86,3.22c-3.09,0-5.75-1.13-7.89-3.35
				c-2.12-2.2-3.2-4.77-3.2-7.64v-14.06c0-5.21,1.87-9.73,5.57-13.43s8.21-5.57,13.43-5.57h55.23v-4.45c0-3.42,1.13-6.24,3.35-8.37
				c2.2-2.12,4.93-3.2,8.13-3.2s5.94,1.12,8.15,3.32c2.21,2.21,3.32,4.98,3.32,8.25v4.45h56.59c5.21,0,9.73,1.87,13.43,5.57
				c3.7,3.7,5.57,8.21,5.57,13.43v13.48c0,3.12-1.07,5.84-3.17,8.1c-2.14,2.3-4.9,3.47-8.2,3.47c-3.29,0-6.07-1.16-8.28-3.44
				c-2.19-2.26-3.29-4.99-3.29-8.13v-11.68h-77.13c8.2,3.78,15.41,7.74,21.46,11.77c2.3,1.48,3.66,3.68,3.91,6.36
				c0.24,2.59-0.45,4.97-2.07,7.07c-1.68,2.02-3.83,3.18-6.42,3.5C1148.53,900.59,1148.09,900.62,1147.67,900.62z"/>
		</g>
		<g>
			<path class="st25" d="M1398.71,1022.82c-2.72,0-5.18-1-7.32-2.97c-2.01-1.86-3.47-4.22-4.36-7.02l-0.03-0.09l-0.02-0.09
				c-0.5-2.36-0.11-4.54,1.16-6.49c1.27-1.94,3.21-2.97,5.61-2.97c0.19,0,0.39,0.01,0.59,0.02c4.05,0.13,7.29,0.19,9.83,0.19
				c2.22,0,3.74-0.48,4.51-1.41c0.89-1.12,2.57-4.81,4-16.66c-0.63,0.13-1.25,0.2-1.86,0.2c-1.28,0-2.57-0.24-3.83-0.71
				c-2.72-1.12-4.71-2.95-5.97-5.47c-1.81-3.87-3.81-7.62-5.98-11.18c-0.94-1.49-1.15-3.28-0.6-5.13c0.56-1.85,1.75-3.23,3.45-3.99
				c1.09-0.49,2.23-0.75,3.38-0.75c0.8,0,1.61,0.12,2.41,0.37c1.95,0.6,3.46,1.69,4.5,3.25c2.12,3.18,4.06,6.46,5.78,9.8
				c0.4-5.29,0.71-10.81,0.9-16.46h-61.08c-5.21,0-9.73-1.87-13.43-5.57c-3.7-3.7-5.57-8.21-5.57-13.43v-74.42
				c0-5.21,1.87-9.73,5.57-13.43s8.21-5.57,13.43-5.57h68.55c2.88,0,5.33,0.99,7.27,2.93c1.94,1.94,2.93,4.36,2.93,7.18
				c0,2.8-0.98,5.24-2.9,7.25c-1.94,2.03-4.4,3.06-7.3,3.06h-25.93v10.84h21.83c2.6,0,4.84,0.88,6.65,2.6
				c1.84,1.75,2.77,3.95,2.77,6.53c0,2.56-0.92,4.78-2.73,6.59c-1.81,1.81-4.06,2.73-6.69,2.73h-21.83v11.63h21.83
				c2.47,0,4.68,0.91,6.56,2.7c1.9,1.83,2.87,4.08,2.87,6.72c0,2.64-0.96,4.9-2.86,6.72c-1.87,1.79-4.08,2.7-6.56,2.7h-21.83v12.02
				h21.24c5.1,0,9.53,1.92,13.16,5.69c3.34,3.35,5.05,7.5,5.05,12.32c0,13.06-1.19,27.81-3.54,43.84c-1.37,9.3-3.23,15.3-5.7,18.35
				c-3.64,4.07-8.39,6.46-14.2,7.17c-3.25,0.27-7.25,0.41-11.96,0.41L1398.71,1022.82L1398.71,1022.82z M1375.81,935.03v-12.02
				h-20.02v12.02H1375.81z M1375.81,904.17v-11.63h-20.02v11.63H1375.81z M1375.81,874.09v-10.84h-20.02v10.84H1375.81z
				 M1277.03,1013.64c-2.75,0-5.13-0.99-7.08-2.93c-1.94-1.94-2.93-4.33-2.93-7.08v-43.92c-1.38,1.31-3.13,1.99-5.18,1.99
				c-0.18,0-0.36-0.01-0.55-0.02c-3.01-0.17-5.33-1.59-6.7-4.13c-1.99-3.28-3-6.64-3-9.98c0-2.92,0.8-5.93,2.38-8.94
				c9.45-17.5,16.53-42.46,21.03-74.22h-10.86c-2.89,0-5.4-1.05-7.47-3.13c-2.07-2.07-3.12-4.58-3.12-7.47c0-2.9,1.06-5.38,3.15-7.4
				c2.07-1.99,4.57-3,7.44-3h56.84c2.88,0,5.36,1.02,7.37,3.03s3.03,4.49,3.03,7.37c0,2.87-1.01,5.37-3,7.44
				c-2.01,2.09-4.5,3.15-7.4,3.15h-23.83c-0.22,0-0.3,0.04-0.3,0.04l0,0c0.01,0-0.04,0.1-0.08,0.31
				c-2.28,14.82-5.05,28.63-8.23,40.97h17.01c5.21,0,9.73,1.87,13.43,5.57c3.7,3.7,5.57,8.21,5.57,13.43v54.1
				c0,5.21-1.87,9.73-5.57,13.43s-8.21,5.57-13.43,5.57h-18.5v5.81c0,2.75-0.99,5.13-2.93,7.08
				C1282.16,1012.66,1279.78,1013.64,1277.03,1013.64z M1304.13,977.42v-51.47h-17.09v51.47L1304.13,977.42L1304.13,977.42z
				 M1330.66,1011.15c-1.78,0-3.47-0.5-5.04-1.49c-2.16-1.19-3.57-3.13-4.07-5.63c-0.15-0.58-0.23-1.33-0.23-2.15
				c0-1.64,0.41-3.22,1.23-4.68c3.9-7.05,6.85-16.88,8.75-29.21c0.33-2.34,1.49-4.26,3.42-5.7c1.45-1.08,3.06-1.62,4.78-1.62
				c0.59,0,1.2,0.07,1.81,0.2c2.63,0.66,4.66,2.04,6.11,4.14c1.46,2.1,2.03,4.48,1.71,7.05c-2.11,14.79-5.48,26.33-10.01,34.33
				c-1.33,2.32-3.36,3.82-6.05,4.47C1332.25,1011.05,1331.44,1011.15,1330.66,1011.15z M1361.58,1005.77
				c-1.74,0-3.32-0.66-4.68-1.96c-1.71-1.62-2.57-3.52-2.57-5.65c-0.26-7.54-0.91-15.49-1.94-23.58c-0.34-2.19,0.18-4.24,1.57-6.06
				c1.33-1.74,3.09-2.88,5.24-3.37l0.15-0.03c0.42-0.06,0.84-0.1,1.25-0.1c1.79,0,3.43,0.6,4.9,1.79c1.72,1.39,2.84,3.18,3.33,5.3
				l0.03,0.13c1.31,7.99,2.1,15.9,2.37,23.5c0.16,2.41-0.55,4.63-2.12,6.52c-1.55,1.87-3.55,2.99-5.97,3.33
				C1362.6,1005.72,1362.08,1005.77,1361.58,1005.77z M1386.86,997.91c-1.35,0-2.67-0.39-3.94-1.16c-1.97-1.2-3.2-3.01-3.56-5.25
				c-1.28-6.12-2.96-12.33-5.01-18.48c-0.7-1.91-0.57-3.88,0.4-5.82c0.96-1.91,2.49-3.24,4.57-3.93l0.09-0.03l0.09-0.02
				c0.71-0.16,1.42-0.25,2.11-0.25c1.41,0,2.77,0.34,4.05,1.01c1.91,1,3.31,2.52,4.14,4.52l0.04,0.12
				c2.22,6.39,4.07,12.56,5.52,18.33c0.51,2.38,0.17,4.57-0.99,6.57c-1.18,2.02-2.96,3.38-5.28,4.04
				C1388.41,997.78,1387.63,997.91,1386.86,997.91z"/>
			<path class="st26" d="M1398.71,1022.82c-2.72,0-5.18-1-7.32-2.97c-2.01-1.86-3.47-4.22-4.36-7.02l-0.03-0.09l-0.02-0.09
				c-0.5-2.36-0.11-4.54,1.16-6.49c1.27-1.94,3.21-2.97,5.61-2.97c0.19,0,0.39,0.01,0.59,0.02c4.05,0.13,7.29,0.19,9.83,0.19
				c2.22,0,3.74-0.48,4.51-1.41c0.89-1.12,2.57-4.81,4-16.66c-0.63,0.13-1.25,0.2-1.86,0.2c-1.28,0-2.57-0.24-3.83-0.71
				c-2.72-1.12-4.71-2.95-5.97-5.47c-1.81-3.87-3.81-7.62-5.98-11.18c-0.94-1.49-1.15-3.28-0.6-5.13c0.56-1.85,1.75-3.23,3.45-3.99
				c1.09-0.49,2.23-0.75,3.38-0.75c0.8,0,1.61,0.12,2.41,0.37c1.95,0.6,3.46,1.69,4.5,3.25c2.12,3.18,4.06,6.46,5.78,9.8
				c0.4-5.29,0.71-10.81,0.9-16.46h-61.08c-5.21,0-9.73-1.87-13.43-5.57c-3.7-3.7-5.57-8.21-5.57-13.43v-74.42
				c0-5.21,1.87-9.73,5.57-13.43s8.21-5.57,13.43-5.57h68.55c2.88,0,5.33,0.99,7.27,2.93c1.94,1.94,2.93,4.36,2.93,7.18
				c0,2.8-0.98,5.24-2.9,7.25c-1.94,2.03-4.4,3.06-7.3,3.06h-25.93v10.84h21.83c2.6,0,4.84,0.88,6.65,2.6
				c1.84,1.75,2.77,3.95,2.77,6.53c0,2.56-0.92,4.78-2.73,6.59c-1.81,1.81-4.06,2.73-6.69,2.73h-21.83v11.63h21.83
				c2.47,0,4.68,0.91,6.56,2.7c1.9,1.83,2.87,4.08,2.87,6.72c0,2.64-0.96,4.9-2.86,6.72c-1.87,1.79-4.08,2.7-6.56,2.7h-21.83v12.02
				h21.24c5.1,0,9.53,1.92,13.16,5.69c3.34,3.35,5.05,7.5,5.05,12.32c0,13.06-1.19,27.81-3.54,43.84c-1.37,9.3-3.23,15.3-5.7,18.35
				c-3.64,4.07-8.39,6.46-14.2,7.17c-3.25,0.27-7.25,0.41-11.96,0.41L1398.71,1022.82L1398.71,1022.82z M1375.81,935.03v-12.02
				h-20.02v12.02H1375.81z M1375.81,904.17v-11.63h-20.02v11.63H1375.81z M1375.81,874.09v-10.84h-20.02v10.84H1375.81z
				 M1277.03,1013.64c-2.75,0-5.13-0.99-7.08-2.93c-1.94-1.94-2.93-4.33-2.93-7.08v-43.92c-1.38,1.31-3.13,1.99-5.18,1.99
				c-0.18,0-0.36-0.01-0.55-0.02c-3.01-0.17-5.33-1.59-6.7-4.13c-1.99-3.28-3-6.64-3-9.98c0-2.92,0.8-5.93,2.38-8.94
				c9.45-17.5,16.53-42.46,21.03-74.22h-10.86c-2.89,0-5.4-1.05-7.47-3.13c-2.07-2.07-3.12-4.58-3.12-7.47c0-2.9,1.06-5.38,3.15-7.4
				c2.07-1.99,4.57-3,7.44-3h56.84c2.88,0,5.36,1.02,7.37,3.03s3.03,4.49,3.03,7.37c0,2.87-1.01,5.37-3,7.44
				c-2.01,2.09-4.5,3.15-7.4,3.15h-23.83c-0.22,0-0.3,0.04-0.3,0.04l0,0c0.01,0-0.04,0.1-0.08,0.31
				c-2.28,14.82-5.05,28.63-8.23,40.97h17.01c5.21,0,9.73,1.87,13.43,5.57c3.7,3.7,5.57,8.21,5.57,13.43v54.1
				c0,5.21-1.87,9.73-5.57,13.43s-8.21,5.57-13.43,5.57h-18.5v5.81c0,2.75-0.99,5.13-2.93,7.08
				C1282.16,1012.66,1279.78,1013.64,1277.03,1013.64z M1304.13,977.42v-51.47h-17.09v51.47L1304.13,977.42L1304.13,977.42z
				 M1330.66,1011.15c-1.78,0-3.47-0.5-5.04-1.49c-2.16-1.19-3.57-3.13-4.07-5.63c-0.15-0.58-0.23-1.33-0.23-2.15
				c0-1.64,0.41-3.22,1.23-4.68c3.9-7.05,6.85-16.88,8.75-29.21c0.33-2.34,1.49-4.26,3.42-5.7c1.45-1.08,3.06-1.62,4.78-1.62
				c0.59,0,1.2,0.07,1.81,0.2c2.63,0.66,4.66,2.04,6.11,4.14c1.46,2.1,2.03,4.48,1.71,7.05c-2.11,14.79-5.48,26.33-10.01,34.33
				c-1.33,2.32-3.36,3.82-6.05,4.47C1332.25,1011.05,1331.44,1011.15,1330.66,1011.15z M1361.58,1005.77
				c-1.74,0-3.32-0.66-4.68-1.96c-1.71-1.62-2.57-3.52-2.57-5.65c-0.26-7.54-0.91-15.49-1.94-23.58c-0.34-2.19,0.18-4.24,1.57-6.06
				c1.33-1.74,3.09-2.88,5.24-3.37l0.15-0.03c0.42-0.06,0.84-0.1,1.25-0.1c1.79,0,3.43,0.6,4.9,1.79c1.72,1.39,2.84,3.18,3.33,5.3
				l0.03,0.13c1.31,7.99,2.1,15.9,2.37,23.5c0.16,2.41-0.55,4.63-2.12,6.52c-1.55,1.87-3.55,2.99-5.97,3.33
				C1362.6,1005.72,1362.08,1005.77,1361.58,1005.77z M1386.86,997.91c-1.35,0-2.67-0.39-3.94-1.16c-1.97-1.2-3.2-3.01-3.56-5.25
				c-1.28-6.12-2.96-12.33-5.01-18.48c-0.7-1.91-0.57-3.88,0.4-5.82c0.96-1.91,2.49-3.24,4.57-3.93l0.09-0.03l0.09-0.02
				c0.71-0.16,1.42-0.25,2.11-0.25c1.41,0,2.77,0.34,4.05,1.01c1.91,1,3.31,2.52,4.14,4.52l0.04,0.12
				c2.22,6.39,4.07,12.56,5.52,18.33c0.51,2.38,0.17,4.57-0.99,6.57c-1.18,2.02-2.96,3.38-5.28,4.04
				C1388.41,997.78,1387.63,997.91,1386.86,997.91z"/>
		</g>
	</g>
</g>
<path class="st27" d="M567.62,1011.68H493.4c-28.48,0-51.56-23.09-51.56-51.56V885.9c0-28.48,23.09-51.56,51.56-51.56h74.22
	c28.48,0,51.56,23.09,51.56,51.56v74.22C619.18,988.6,596.09,1011.68,567.62,1011.68z"/>
<polygon class="st28" points="554.88,946.42 645.65,799.47 619.2,780.93 529.24,926.58 476.09,885.47 458.85,910.59 538.02,971.83 
	539.45,969.74 540.16,970.24 549.65,954.88 555.26,946.71 "/>
</svg>
