<?xml version="1.0" encoding="utf-8"?>
<!-- Generator: Adobe Illustrator 23.0.5, SVG Export Plug-In . SVG Version: 6.00 Build 0)  -->
<svg version="1.1" id="圖層_1" xmlns="http://www.w3.org/2000/svg" xmlns:xlink="http://www.w3.org/1999/xlink" x="0px" y="0px"
	 viewBox="0 0 1920 1080" style="enable-background:new 0 0 1920 1080;" xml:space="preserve">
<style type="text/css">
	.st0{fill:#D6D2CF;stroke:#000000;stroke-miterlimit:10;}
	.st1{fill:#F8B945;stroke:#000000;stroke-miterlimit:10;}
	.st2{font-family:'FranklinGothic-Medium';}
	.st3{font-size:172.18px;}
	.st4{fill:#FFFFFF;stroke:#000000;stroke-width:4;stroke-miterlimit:10;}
</style>
<g>
	<path class="st0" d="M1261.92,975.76c-72.6,18.33-161.65,33-263.44,33.05c-102.25,0.05-191.68-14.66-264.5-33.05
		c0.7-196.39,1.41-392.77,2.11-589.16c77.85,7.9,162.04,12.39,251.81,11.5c96.29-0.96,186.17-8.01,268.73-18.68
		C1258.39,578.19,1260.16,776.97,1261.92,975.76z"/>
	<path class="st0" d="M1264.03,1004.5c-79.27,16.85-173,29.23-278.25,28.74c-97.3-0.46-184.5-11.83-259.21-27.3
		c-0.69-0.75-6.6-7.49-6.35-18.68c0.24-10.33,5.56-16.37,6.35-17.24c72.39,14.53,157.53,24.9,252.87,23.84
		c103.57-1.14,195.23-15.5,271.9-33.9c1.01,0.44,11.44,5.31,14.81,20.12C1268.98,992.48,1264.77,1002.77,1264.03,1004.5z"/>
	<ellipse class="st1" cx="993.18" cy="633.04" rx="130.14" ry="160.22"/>
	<path class="st0" d="M1268.79,370.07c-3.33,20.97-44.21,25.22-280.37,27.3c-229.14,2.02-269.61-1.29-272.97-21.55
		C712.27,356.55,742.1,318.49,900.6,235c61.01-1.92,122.03-3.83,183.04-5.75C1242.39,311.95,1271.93,350.33,1268.79,370.07z"/>
	<rect x="913.3" y="204.82" class="st0" width="158.7" height="25.87"/>
	<rect x="914.37" y="109.98" class="st0" width="158.7" height="25.87"/>
	<rect x="921.77" y="135.84" class="st0" width="142.83" height="68.97"/>
	<rect x="921.77" y="46.75" class="st1" width="144.95" height="63.23"/>
	<text transform="matrix(0.7006 0 0 1 903.6608 694.4745)" class="st2 st3">OIL</text>
</g>
<g>
	<path class="st4" d="M697.8,1021.84c0,1.94-0.91,4.49-2.74,7.65c-16.02,26.59-37.3,39.89-63.84,39.89
		c-27.16,0-49.18-12.93-66.06-38.79c-16.45-25.01-24.67-56.58-24.67-94.71c0-36.91,8.05-68.24,24.15-93.98
		c16.8-26.96,38.16-40.43,64.1-40.43c28.2,0,50.31,12.08,66.32,36.24c1.74,2.67,2.61,5.04,2.61,7.1c0,2.31-3.03,10.87-9.07,25.68
		c-6.05,14.82-9.86,23.13-11.42,24.95c-0.7,0.97-1.57,1.46-2.61,1.46c-0.44,0-2.61-2.43-6.53-7.29c-4.7-5.83-9.31-10.38-13.84-13.66
		c-6.88-4.85-14.01-7.29-21.41-7.29c-12.79,0-23.02,6.68-30.68,20.03c-7.05,12.38-10.58,27.68-10.58,45.9
		c0,18.46,3.52,33.94,10.58,46.44c7.66,13.6,17.89,20.4,30.68,20.4c7.57,0,14.75-2.3,21.54-6.92c4.44-3.03,8.96-7.29,13.58-12.75
		c3.83-4.61,5.96-6.92,6.4-6.92c0.87,0,1.74,0.67,2.61,2c1.39,2.19,5.18,9.77,11.36,22.77
		C694.62,1013.09,697.8,1020.5,697.8,1021.84z"/>
	<path class="st4" d="M831.87,1066.09c-7.49,0-17.23-0.25-29.24-0.73c-15.67-0.49-25.42-0.79-29.24-0.91l-39.04-0.73
		c-3.92,0.12-9.53-0.12-16.84-0.73c-2.53-0.61-3.79-2.49-3.79-5.65c0-13.23,0.15-33.06,0.46-59.47c0.3-26.41,0.46-46.23,0.46-59.47
		c0-14.08-0.31-35.18-0.91-63.29c-0.61-28.11-0.91-49.2-0.91-63.29c0-2.67,1.31-4.01,3.92-4.01c2.61,0,6.51,0.18,11.68,0.55
		c5.18,0.36,9.03,0.55,11.55,0.55c2.87,0,7.14-0.21,12.79-0.64c5.66-0.42,9.92-0.64,12.79-0.64c1.31,0,1.91,1.16,1.83,3.46
		l-0.13,2.37c-1.04,22.83-2.22,57.13-3.52,102.9l-0.13,48.08c0,15.54,0.04,26.9,0.13,34.06c0.08,1.46,0.17,2.91,0.26,4.37
		c0.09,1.46,0.74,2.37,1.96,2.73c0.09,0,1.22,0,3.39,0c7.83,0,19.56-0.58,35.18-1.73c15.62-1.15,27.35-1.73,35.18-1.73
		c2.35,0,3.53,1.4,3.53,4.19c0,20.76-1.09,38.67-3.26,53.73c-0.44,3.16-1.35,5.04-2.74,5.65
		C836.79,1065.97,835.01,1066.09,831.87,1066.09z"/>
	<path class="st4" d="M991.8,1006.36c0,5.22-0.74,14.82-2.22,28.78c-1.57,15.18-2.96,24.22-4.18,27.14
		c-1.04,2.31-2.48,3.46-4.31,3.46c-0.78,0-2.09-0.18-3.92-0.55c-6.35-1.21-24.89-1.82-55.62-1.82c-6.7,0-16.67-0.06-29.9-0.18
		c-13.23-0.12-23.15-0.18-29.77-0.18c-2.87,0-4.31-1.76-4.31-5.28c0-13.6,0.54-34.03,1.63-61.29c1.09-27.26,1.63-47.69,1.63-61.29
		c0-13.84-0.52-39.64-1.57-77.41c-0.26-9.71-0.74-24.22-1.44-43.53l-0.13-2.55c-0.18-2.79,0.91-4.19,3.26-4.19
		c6.44,0,16.12,0.25,29.05,0.73c12.92,0.49,22.61,0.73,29.05,0.73c6.35,0,15.93-0.24,28.72-0.73c12.79-0.48,22.37-0.73,28.72-0.73
		c4.52,0,7.14,2.37,7.83,7.1c0.43,2.79,1.11,11.26,2.02,25.41c0.91,14.15,1.37,22.74,1.37,25.77c0,2.55-0.87,3.83-2.61,3.83
		c-0.52,0-1.44-0.06-2.74-0.18c-23.15-2.67-43.95-4.01-62.4-4.01c-4.61,0-7.44,1.52-8.49,4.55c-0.44,1.46-0.65,6.13-0.65,14.02
		c0,8.26,0.87,13.72,2.61,16.39c1.48,2.31,4.31,3.46,8.49,3.46c0.87,0,2.57-0.09,5.09-0.27c2.52-0.18,4.61-0.27,6.27-0.27
		c10.97,0,22.06-0.42,33.29-1.27c0.96-0.12,3.35-0.42,7.18-0.91c2.96-0.48,5.31-0.73,7.05-0.73c2.09,0,3.13,1.4,3.13,4.19
		c0-2.55-0.78,6.74-2.35,27.87c-0.7,9.72-1.04,19.43-1.04,29.14c0,2.43-1.26,3.64-3.79,3.64l-11.75-1.82
		c-4.96-0.73-16.28-1.09-33.94-1.09h-13.84c-3.57,0-5.66,1.22-6.27,3.64c-0.09,0.61-0.13,4.37-0.13,11.29
		c0,9.23,0.43,15.18,1.3,17.85c1.48,4.62,7.05,7.35,16.71,8.2c-0.17,0,6.18,0,19.06,0c4.61,0,11.47-0.57,20.56-1.73
		c9.09-1.15,15.91-1.73,20.43-1.73C990.84,999.8,991.8,1001.98,991.8,1006.36z"/>
	<path class="st4" d="M1181.37,1058.45c0,2.19-1.09,3.71-3.26,4.55c-2.61,0.97-10.71,1.46-24.28,1.46
		c-12.45,0-20.45-0.49-24.02-1.46c-2.96-0.85-4.83-3.58-5.61-8.2c-2.96-17.49-5.27-26.83-6.92-28.05
		c-1.39-0.85-13.06-1.27-34.99-1.27c-14.8,0-22.67,0.55-23.63,1.64c-1.48,1.94-3.13,8.44-4.96,19.49c-1.65,10.08-3.66,15.54-6,16.39
		c-2.96,0.97-12.88,1.46-29.77,1.46c-13.32,0-19.97-1.76-19.97-5.28c0-3.16,9.83-41.95,29.5-116.38
		c21.32-80.5,32.9-124.76,34.73-132.77c1.04-4.61,2.26-6.92,3.66-6.92c2.35,0,5.98,0.3,10.9,0.91c4.92,0.61,8.59,0.91,11.03,0.91
		c2.35,0,5.81-0.21,10.38-0.64c4.57-0.42,7.98-0.64,10.25-0.64c1.65,0,3.18,2,4.57,6.01c4.26,12.75,16.71,56.46,37.34,131.13
		C1171.01,1015.95,1181.37,1055.17,1181.37,1058.45z M1088.8,892.52c-1.83,5.34-4.92,16.94-9.27,34.79
		c-4.7,18.94-7.05,30.05-7.05,33.33c0,2.19,2.61,3.4,7.83,3.64c2.7,0.24,7.14,0.36,13.32,0.36c5.75,0,8.92-0.97,9.53-2.91
		c0.17-0.61,0.26-1.46,0.26-2.55c0-4.01-2-15.05-6.01-33.15C1093.5,908.55,1090.63,897.38,1088.8,892.52z"/>
	<path class="st4" d="M1350.3,1061.18c0,0.85-0.87,1.46-2.61,1.82c-3.31,0.73-11.62,1.09-24.94,1.09c-11.4,0-19.15-0.36-23.24-1.09
		c-1.92-0.36-3-0.67-3.26-0.91c-0.52-0.36-1.13-1.58-1.83-3.64c-1.31-4.74-3.22-11.78-5.75-21.13c-3.39-12.14-8.7-30.05-15.93-53.73
		c-1.57-4.74-5.18-7.34-10.84-7.83c2.61,0.24-1.87,0.36-13.45,0.36c-1.31,0-1.96,3.1-1.96,9.29c0,8.26,0.54,20.58,1.63,36.97
		c1.09,16.39,1.63,28.72,1.63,36.97c0,2.07-0.39,3.28-1.17,3.64c-1.22,0.12-2.44,0.24-3.66,0.36c-5.14,0.48-13.14,0.73-24.02,0.73
		c-12.45,0-19.93-0.36-22.46-1.09c-2.53-0.73-3.79-2.61-3.79-5.65c0-13.36,0.46-33.51,1.37-60.47c0.91-26.96,1.37-47.17,1.37-60.65
		c0-51.36-0.83-91.43-2.48-120.21l-0.13-2.55c-0.09-2.06,1.28-3.46,4.11-4.19c2.83-0.73,16.12-1.46,39.88-2.19
		c16.1-0.48,28.94-0.73,38.51-0.73c19.84,0,36.03,6.25,48.57,18.76c14.19,14.09,21.28,34.42,21.28,61.01
		c0,17.73-1.83,31.87-5.48,42.44s-10.4,20.83-20.24,30.78c-2,1.94-3,3.77-3,5.46c0-0.12,5.31,15.12,15.93,45.72
		C1344.99,1041.14,1350.3,1058.02,1350.3,1061.18z M1295.47,897.8c0-14.81-3.48-25.07-10.44-30.78c-5.4-4.37-13.84-6.56-25.33-6.56
		c-8.27,0-12.66,1.76-13.19,5.28c-0.52,4.13-0.78,16.03-0.78,35.7c0,2.79,0.04,6.92,0.13,12.39c0.09,5.46,0.13,9.53,0.13,12.2
		c0,0.61,1.39,1.22,4.18,1.82c5.31,1.09,10.88,1.64,16.71,1.64C1285.94,929.5,1295.47,918.93,1295.47,897.8z"/>
	<path class="st4" d="M1416.36,851.54c0,22.1-1.44,42.86-4.31,62.29c-3.48,19.92-6.92,39.77-10.31,59.56
		c-0.78,4.49-4.27,6.74-10.44,6.74c-7.05,0-10.97-1.94-11.75-5.83c-8.18-38.98-12.27-61.13-12.27-66.48
		c0-4.98,0.17-12.38,0.52-22.22c0.35-9.83,0.52-17.24,0.52-22.22c0-5.46-0.13-13.66-0.39-24.59c-0.26-10.93-0.39-19.12-0.39-24.59
		c0-4.49,0.78-6.74,2.35-6.74c2.44,0,6.09,0.25,10.97,0.73c4.87,0.49,8.53,0.73,10.97,0.73c2.44,0,6.09-0.24,10.97-0.73
		c4.87-0.48,8.53-0.73,10.97-0.73C1415.49,807.47,1416.36,822.16,1416.36,851.54z M1416.36,1032.04c0,10.2-2.26,18.67-6.79,25.41
		c-4.53,6.74-10.44,10.11-17.75,10.11c-7.4,0-13.34-3.34-17.82-10.02c-4.48-6.68-6.72-15.18-6.72-25.5c0-10.2,2.26-18.58,6.79-25.13
		c4.52-6.56,10.44-9.83,17.75-9.83c7.22,0,13.12,3.28,17.69,9.83C1414.08,1013.46,1416.36,1021.84,1416.36,1032.04z"/>
</g>
</svg>
