<?xml version="1.0" encoding="utf-8"?>
<!-- Generator: Adobe Illustrator 23.0.5, SVG Export Plug-In . SVG Version: 6.00 Build 0)  -->
<svg version="1.1" id="圖層_1" xmlns="http://www.w3.org/2000/svg" xmlns:xlink="http://www.w3.org/1999/xlink" x="0px" y="0px"
	 viewBox="0 0 1920 1080" style="enable-background:new 0 0 1920 1080;" xml:space="preserve">
<style type="text/css">
	.st0{fill:#585862;}
	.st1{fill:#4E4357;}
	.st2{fill:#3D2E4D;}
	.st3{fill:#F9F9BC;}
	.st4{fill:#759A9E;}
	.st5{fill:#E9A660;}
	.st6{fill:#E4A150;stroke:#522011;stroke-width:3;stroke-miterlimit:10;}
	.st7{fill:none;stroke:#522011;stroke-width:3;stroke-miterlimit:10;}
	.st8{fill:#AE7154;stroke:#371C0A;stroke-width:3;stroke-miterlimit:10;}
	.st9{fill:#6A5443;}
	.st10{fill:#62FAFC;}
	.st11{fill:#FFFFFF;}
	.st12{fill:none;stroke:#000000;stroke-width:2;stroke-miterlimit:10;}
	.st13{fill:#FFFFFF;stroke:#000000;stroke-width:6;stroke-miterlimit:10;}
	.st14{fill:#7FEF6C;}
</style>
<g>
	<path class="st0" d="M849.72,936.72c-437.9,52.24-538.24,35.81-543.41,9.11c-2.73-14.14,21.85-27.66,66.03-76.99
		c54.72-61.1,89.33-121.06,110.05-162.28c-20.49-26.49-40.99-52.99-61.47-79.48c-11.88-53.26-23.78-106.52-35.66-159.79
		c9.64-11.68,24.31-29.72,41.74-52.16c103.88-133.77,122.29-188.4,177.6-199.53c25.88-5.21,53.89,0.32,77.41,4.97
		c44.94,8.87,51.57,21.16,86.53,21.52c37.96,0.4,41.52-13.99,69.82-6.62c24.7,6.43,35.56,20.91,56.93,15.73
		c6.25-1.51,4.83-2.64,28.08-13.24c17.99-8.21,22.13-9.04,34.91-14.9c25.82-11.83,26.4-16.44,39.47-21.52
		c19.4-7.55,35.57-4.18,67.55,2.48c39.55,8.24,66.48,23.98,72.1,27.32c24.98,14.9,37.46,22.34,45.54,34.78
		c3.88,5.98,8.12,14.34,15.18,14.9c7.74,0.62,11.79-8.68,20.49-14.9c13.29-9.49,29.5-6.16,43.26-3.31
		c31.43,6.48,103.67,40.11,168.49,131.64c18.27,25.8,17.38,29.98,32.64,47.19c36.78,41.49,67.16,45.63,72.86,76.99
		c1.42,7.81,4.81,26.45-3.79,42.23c-4.01,7.37-9.56,12.12-11.39,22.35c0,0-1.75,9.8,2.27,21.52c11.81,34.3,87.45,74.42,99.42,127.5
		c2.17,9.64,0.26,10.9-23.52,101.84c-15,57.36-19.77,77.94-21.25,82.79C1549.62,1008.09,1020.74,955.46,849.72,936.72z"/>
	<path class="st1" d="M1226.93,896.15H757.88V434.99c63.87-17.01,166.01-34.09,286.89-9.93c59,11.8,108.98,30.72,148.75,49.68
		C1204.65,615.21,1215.78,755.68,1226.93,896.15z"/>
	<g>
		<path class="st2" d="M389.61,467.83c10.99-13.41,43.18,12.4,84.99,11.51c34.03-0.72,61.51-18.84,79.64-34.38
			c-13.1,13.55-26.21,27.11-39.31,40.66c-7.83,8.11-15.95,16.68-19.38,27.85c-5.4,17.6,2.14,36.55,10,53.03
			c19.35,40.56,41.64,79.46,66.58,116.22c2.35,3.47,4.81,7.11,5.36,11.38c0.74,5.64-1.96,11.08-4.78,15.88
			c-26.87,45.8-71.89,76.54-97.2,123.37c-20.25,37.44-26.92,83.49-53.11,116.26c-3.91,4.89-10.34,12.3-20.6,17.64
			c-24.34,12.67-50.03,3.05-70.06-4.46c-14.49-5.43-23.29-8.87-25.04-16.55c-2.82-12.34,14.55-26.5,25.04-35.61
			c56.04-48.58,96.58-108.99,110.05-132.47c13.81-24.04,22.66-50.21,35.66-62.09c1.22-1.11,4.91-4.32,5.31-9.11
			c0.79-9.3-11.4-17.42-15.94-20.69c-13.81-9.97-23.12-24.59-41.74-53.82c-18.95-29.73-7.31-36.06-31.12-125.84
			C387.96,483.94,384.49,474.07,389.61,467.83z"/>
	</g>
	<g>
		<g>
			<path class="st2" d="M672.15,391.49c0.65-0.59,1.3-1.18,1.97-1.73c0.27-0.22,0.55-0.44,0.81-0.66c1.3-1.1-0.91,0.65,0.45-0.36
				c1.39-1.02,2.79-1.99,4.26-2.9c1.31-0.8,2.64-1.55,4-2.26c0.75-0.39,1.52-0.76,2.29-1.13c0.39-0.18,0.77-0.35,1.16-0.53
				c0.23-0.1,0.47-0.21,0.7-0.31c-0.53,0.22-0.61,0.26-0.22,0.09c6.34-2.43,12.81-4.11,19.52-5.11c1.14-0.17,0.21-0.03-0.03,0
				c0.43-0.05,0.86-0.1,1.27-0.16c0.77-0.09,1.53-0.17,2.3-0.25c1.79-0.17,3.58-0.31,5.38-0.4c3.61-0.19,7.22-0.22,10.83-0.17
				c8.39,0.13,16.77,0.72,25.16,1.1c9.42,0.43,18.87,0.57,28.26-0.48c3.03-0.34,6-2.43,5.84-5.82c-0.13-2.86-2.58-6.18-5.84-5.82
				c-31.46,3.52-64.16-6.31-94.63,5.42c-8.05,3.1-15.39,7.4-21.77,13.23c-2.26,2.07-2.26,6.17,0,8.23
				C666.29,393.71,669.73,393.71,672.15,391.49L672.15,391.49z"/>
		</g>
	</g>
	<path class="st3" d="M1180.62,964.88c-54.41-5.13-110.59-9.34-168.49-12.42c-80.21-4.27-157.46-6.03-231.48-5.79
		c0-16.84,0-33.67,0-50.51c133.58,0.56,267.15,1.1,400.73,1.66C1181.13,920.17,1180.87,942.51,1180.62,964.88z"/>
	<g>
		<path class="st4" d="M575.82,533.91c15.77-25.35,38.91-45.16,65.24-55.83c-3.96,14.55,10.92,26.45,23.82,32.11
			c12.91,5.66,28.66,13.9,28.66,29.07c38.7-58.94,76.39-119.88,98.37-188.3c7.52-23.42,13.38-48.07,26.78-68.13
			s36.98-34.65,58.78-27.55c17.36,5.65,29.69,23.46,47.07,29.06c18.91,6.09,38.66-3.52,58.12-6.95c19.46-3.43,44.83,4.63,47.07,26
			c12.16-17.5,34.94-25.21,54.04-18.29s33.13,27.96,33.27,49.92c10.65-18.4,38.02-15.31,52.07,0.13
			c14.05,15.44,18.61,38.02,23.55,59.11c11.21,47.92,27.46,94.44,48.31,138.35c2.75-23.05,19.51-40.78,35.86-55.67
			c30.86-28.09,63.91-53.29,98.69-75.25c9.49,35.06,3.73,74.68-15.26,104.8c-3.03,4.81-6.48,9.67-7.16,15.47
			c-0.74,6.4,2.07,12.57,3.9,18.71c11.95,39.85-16.04,79.85-22.52,121.19c-6.71,42.82,10.25,85.83,30.87,123
			s45.61,72.31,57.71,113.71c0.31,1.05,0.65,7.04,1.65,17.46c3.32,34.49,3.62,34.3,3.3,35.58c-5.84,23.42-88.47,19.48-178.35,15.73
			c-36.98-1.54-66.45-2.69-82.72-3.31c-0.65-11.47-0.08-26.2,4.35-42.36c1.16-4.18,2.45-8.07,3.83-11.67
			c-15.79-8.73-25.63-28.84-23.46-48.01c2.14-18.96,14.29-34.4,23.33-50.76c21.51-38.92,26.29-86.8,20.55-131.81
			s-21.29-87.79-38.22-129.32c-11.38-27.88-23.78-56-43.39-77.77s-47.87-36.43-75.43-31.21c-19.56,3.71-37.41,16.97-57.26,16.68
			c-16.83-0.23-32.05-10.15-47.94-16.26c-29.27-11.25-63.99-8.7-88.75,11.74c-20.88,17.25-32.43,44.52-42.2,71.04
			c-24.52,66.62-43.09,136.95-43.61,208.75c-0.52,71.78,18.38,145.52,61.54,199.71c-18.75,13.05-40.64,15.87-62.04,9.3"/>
	</g>
	<g>
		<path class="st4" d="M575.25,533.48c12.83,17.87,22.75,38.21,29.18,59.79c3.74,12.57,6.34,25.63,11.59,37.56
			c6.47,14.68,16.73,27.06,28.24,37.44c10.21,9.22,22.61,19.3,22.73,33.76c0.08,10.63-6.75,19.65-13.21,27.61
			c-14.52,17.9-29.21,35.98-47.18,49.65c-5.55,4.22-11.55,8.19-15.16,14.42c-4.27,7.39-4.47,16.71-7.53,24.78
			c-4.01,10.54-12.61,18.15-18.03,27.92c-4.27,7.72-6.43,16.59-9.86,24.81c-9.81,23.53-29.7,41.13-37.59,65.5
			c-0.73,2.24,1.21,5.35,1.01,10.24c-0.52,12.51-7.2,17.49-5.91,21.22c2.56,7.48,33.77,0.54,56.93-3.31
			c35.99-6,27.12-0.36,93.36-8.28c29.9-3.57,53.09-7.28,64.35-9.16c12.04-1.99,22.3-3.85,30.13-5.34"/>
	</g>
	<g>
		<path class="st5" d="M1126.74,888.7c-90.82,2.48-181.65,4.97-272.46,7.45c-1.01-96.04-2.03-192.08-3.04-288.12
			c28.09-67.46,87.5-109.97,149.52-107.63c64.89,2.44,105.28,52.98,112.32,62.09c3.83,5.82,9.4,15.34,13.66,28.14
			c0,0,4.83,14.55,6.07,31.47C1134.57,646.18,1132.66,748.99,1126.74,888.7z"/>
		<g>
			<path class="st6" d="M1092.2,892.42H894.11V606.79c17.17-40.11,53.21-66.67,93.36-68.72c42.22-2.16,82.08,23.14,101.7,64.58
				C1090.18,699.25,1091.19,795.84,1092.2,892.42z"/>
			<line class="st7" x1="998.86" y1="537.66" x2="998.86" y2="842.33"/>
			<line class="st7" x1="941.18" y1="552.56" x2="941.18" y2="843.16"/>
			<line class="st7" x1="1057.33" y1="562.5" x2="1057.33" y2="842.33"/>
			<rect x="896.02" y="842.33" class="st8" width="195.05" height="49.68"/>
			<rect x="1044.77" y="697.45" class="st9" width="25.04" height="78.65"/>
			<ellipse class="st10" cx="1057.67" cy="680.9" rx="9.87" ry="10.76"/>
		</g>
	</g>
	<g>
		<g>
			<path class="st2" d="M728.09,623.22c18.13-7.94,36.25-15.88,54.38-23.82c2.81-1.23,3.68-5.54,2.09-7.97
				c-1.87-2.9-4.99-3.4-8-2.08c-18.13,7.94-36.25,15.88-54.38,23.82c-2.81,1.23-3.68,5.54-2.09,7.97
				C721.96,624.03,725.07,624.54,728.09,623.22L728.09,623.22z"/>
		</g>
	</g>
	<g>
		<g>
			<path class="st2" d="M1232.32,968.39c13.01-21.37,22.01-45.23,26.6-69.78c2.34-12.56,3.64-25.34,3.73-38.12
				c0.09-13.4-1.09-26.76-1.69-40.13c-0.32-7.46-0.48-14.94-0.1-22.4c0.18-3.65,0.47-7.29,0.96-10.9c-0.12,0.88,0.03-0.13,0.04-0.26
				c0.09-0.59,0.18-1.2,0.27-1.8c0.14-0.91,0.31-1.8,0.48-2.69c0.36-1.9,0.78-3.79,1.23-5.66c0.73-2.95-0.95-6.45-4.08-7.17
				c-3.01-0.69-6.42,0.91-7.2,4.06c-6.51,26.38-2.25,53.44-1.68,80.19c0.14,6.38,0.03,12.75-0.4,19.12
				c-0.21,3.05-0.48,6.12-0.82,9.16c-0.09,0.76-0.17,1.53-0.27,2.28c-0.05,0.38-0.09,0.76-0.14,1.14c-0.03,0.17-0.16,1.14-0.01,0.16
				c-0.21,1.51-0.43,3.03-0.68,4.54c-1.95,12.24-4.99,24.3-9.09,35.99c-1.13,3.22-2.34,6.42-3.62,9.57
				c-0.14,0.35-0.29,0.7-0.43,1.05c0.01-0.04-0.58,1.41-0.36,0.88c0.25-0.59-0.21,0.49-0.26,0.61c-0.18,0.44-0.38,0.87-0.57,1.29
				c-0.69,1.55-1.39,3.1-2.12,4.63c-2.96,6.29-6.27,12.4-9.88,18.34c-1.58,2.6-0.66,6.51,2.09,7.97
				C1227.16,971.98,1230.63,971.18,1232.32,968.39L1232.32,968.39z"/>
		</g>
	</g>
	<g>
		<g>
			<path class="st2" d="M1339.95,970.01c-0.1-2.38-0.1-4.77,0.01-7.15c0.05-1.19,0.14-2.38,0.25-3.57c0.05-0.59,0.12-1.19,0.18-1.77
				c0.04-0.4,0.26-1.88,0.09-0.72c0.75-4.79,1.79-9.48,3.31-14.08c0.34-1.05,0.7-2.08,1.09-3.1c0.21-0.56,0.42-1.1,0.64-1.66
				c0.13-0.31,0.26-0.62,0.38-0.93c0.32-0.83-0.36,0.81,0,0c0.97-2.13,1.96-4.26,3.08-6.32c1.16-2.12,2.39-4.19,3.74-6.2
				c0.6-0.89,1.21-1.77,1.84-2.64c0.34-0.47,0.69-0.93,1.04-1.38c-0.05,0.06-0.57,0.71-0.16,0.21c0.26-0.31,0.51-0.65,0.78-0.96
				c1.61-1.95,3.31-3.83,5.12-5.61c0.92-0.91,1.87-1.8,2.86-2.65c0.48-0.43,0.97-0.84,1.48-1.25c0.18-0.16,0.38-0.31,0.56-0.47
				c0.12-0.1,1.4-1.1,0.34-0.28c2.42-1.85,3.96-5.1,2.09-7.97c-1.53-2.38-5.4-4.07-8-2.08c-16.59,12.71-27.68,31.74-31.16,52.29
				c-1.03,6.07-1.52,12.2-1.26,18.34c0.13,3.04,2.6,5.96,5.84,5.82C1337.15,975.69,1340.08,973.27,1339.95,970.01L1339.95,970.01z"
				/>
		</g>
	</g>
	<g>
		<path class="st2" d="M1538.71,609.32c-11.87-0.76-24.2,9.14-29.72,22.08c-5.45,12.77-4.09,24.69-2.39,51.38
			c1.1,17.28,1.74,35.67-4.17,50.93c-26.81-42.64-61.37-75.76-99.54-95.4c-8.36,40.62-4.86,70.76-1.84,86.87
			c5.03,26.77,15.07,48.55,24.37,68.72c9.01,19.54,15.73,27.68,25.56,52.99c3.81,9.8,7.97,21.79,11.59,36.85
			c4.68,19.49,7.01,29.24,5.95,41.4c-1.91,21.7-12.44,31.47-9.21,38.5c2.45,5.33,10.29,3.35,20.21,1.66
			c32.56-5.56,48.85-8.36,53.48-9.93c26.57-9.08,39.83-13.74,48.13-25.66c6.73-9.66,5.68-14.51,15.16-59.2
			c7.83-36.94,13.03-75.12,23.17-110.94c1.29-4.54,4.26-14.68,2.97-27.32c-0.97-9.62-4.07-17.23-8.91-26.49
			c-10.51-20.09-21.33-32.83-24.37-36.43C1553.38,626.81,1553.48,610.27,1538.71,609.32z"/>
	</g>
</g>
<g>
	<g>
		<g>
			<path class="st11" d="M769.91,995.01c-10.69,0-17.7-1.34-21.41-4.11c-3.84-2.86-5.79-8.33-5.79-16.25v-21.63h-12.65
				c-0.48,0-0.54,0.08-0.62,0.33c-2.69,10.18-7.47,18.62-14.2,25.09c-6.71,6.44-16.78,11.73-29.91,15.71l-0.1,0.03
				c-1.2,0.3-2.35,0.45-3.41,0.45c-1.65,0-3.33-0.3-4.98-0.9l-0.13-0.05c-2.69-1.2-4.89-3.09-6.53-5.62
				c-0.87-1.38-1.3-2.79-1.3-4.21c0-0.87,0.17-1.81,0.5-2.79c0.89-2.51,2.68-4.1,5.19-4.64c9.88-2.5,17.42-5.76,22.32-9.67
				c4.57-3.64,7.95-8.26,10.06-13.72h-3.05c-5.22,0-9.73-1.87-13.43-5.57c-3.69-3.69-5.57-8.21-5.57-13.43v-18.16
				c0-5.21,1.87-9.75,5.55-13.51c3.7-3.77,8.22-5.68,13.44-5.68h22.66c0.11,0,0.16-0.02,0.16-0.02l0.03-0.07l0.05-0.12
				c1.89-3.15,3.36-5.9,4.38-8.18c0.31-0.67,0.67-1.2,1.05-1.61c-2.55-1.86-6-4.18-10.31-6.92v6.02c0,2.49-0.89,4.65-2.64,6.39
				s-3.87,2.64-6.3,2.64s-4.55-0.89-6.3-2.64s-2.64-3.9-2.64-6.39v-6.51c-4.58,4.42-9.46,8.22-14.53,11.34
				c-1.54,0.95-3.19,1.43-4.89,1.43c-0.63,0-1.28-0.07-1.93-0.2c-2.3-0.48-4.34-1.67-6.05-3.54l-0.08-0.1
				c-1.39-1.73-1.94-3.77-1.58-5.88c0.36-2.19,1.68-3.91,3.81-4.97c5.95-2.98,11.59-6.82,16.79-11.45h-11.4
				c-2.11,0-3.93-0.76-5.42-2.25c-1.49-1.48-2.24-3.34-2.24-5.51c0-2.17,0.76-4.03,2.25-5.52s3.31-2.25,5.42-2.25h19.88v-1.91
				c0-1.99,0.57-3.74,1.68-5.23h-32.06v44.68c0,42.92-5.32,76.39-15.8,99.46c-1.17,2.51-3.25,4.11-6.03,4.63
				c-0.56,0.17-1.18,0.25-1.85,0.25c-2.16,0-4.16-0.74-5.95-2.21c-2.29-1.99-3.81-4.35-4.57-7.07c-0.31-1.06-0.46-2.3-0.46-3.66
				c0-1.72,0.39-3.44,1.16-5.13c8.04-19.14,12.19-48.19,12.32-86.29v-45.31c0-5.22,1.87-9.73,5.57-13.43
				c3.69-3.69,8.21-5.57,13.43-5.57h54.45v-3.66c0-3.13,1.11-5.86,3.3-8.13c2.21-2.28,4.96-3.44,8.18-3.44
				c3.2,0,5.98,1.15,8.25,3.42c2.27,2.27,3.42,5.02,3.42,8.15v3.66h65.19c2.6,0,4.91,0.94,6.85,2.8c1.97,1.88,2.96,4.21,2.96,6.91
				c0,2.69-0.99,5.04-2.93,6.98s-4.26,2.93-6.88,2.93h-23.93c1.14,1.54,1.71,3.29,1.71,5.23v1.91h21.63c2.08,0,3.92,0.74,5.47,2.2
				c1.58,1.5,2.39,3.37,2.39,5.56c0,2.2-0.8,4.06-2.39,5.56c-1.55,1.46-3.39,2.2-5.47,2.2h-12.59c5.14,4.24,10.99,8.09,17.43,11.46
				c1.99,1.09,3.22,2.83,3.58,5.07c0.36,2.26-0.31,4.31-1.93,5.93c-1.65,1.81-3.65,2.99-5.88,3.47c-0.68,0.15-1.38,0.22-2.08,0.22
				c-1.59,0-3.22-0.39-4.85-1.15l-0.13-0.06l-0.12-0.08c-5.1-3.36-10.16-7.38-15.06-11.97v6.98c0,2.47-0.84,4.61-2.5,6.36
				c-1.69,1.77-3.85,2.67-6.43,2.67c-2.56,0-4.74-0.89-6.49-2.64s-2.64-3.9-2.64-6.39v-6.13c-5.72,5.48-11.88,10.03-18.33,13.55
				l-0.07,0.04l-0.07,0.03c-0.62,0.27-1.24,0.41-1.86,0.41c-0.46,0-1.01-0.08-1.61-0.33c-0.67,0.9-1.51,2.01-2.52,3.32h39.55
				c5.22,0,9.73,1.87,13.43,5.57c3.69,3.69,5.57,8.28,5.57,13.62v19.34c0,4.82-1.74,9.03-5.16,12.53c-3.44,3.51-7.7,5.29-12.66,5.29
				c-0.36,0-0.52,0.07-0.68,0.33c-0.29,0.97-0.77,2.33-1.45,4.14c-0.5,1.32-0.89,2.4-1.16,3.22l7.14-0.26
				c-0.68-1.49-0.78-3.09-0.29-4.66c0.58-1.85,1.84-3.14,3.62-3.74c1.19-0.45,2.41-0.69,3.56-0.69c2.84,0,5.27,1.24,7.23,3.68
				l0.07,0.09c2.64,3.7,4.99,7.45,6.97,11.15c0.16,0.27,0.38,0.39,0.54,0.45c3.27,1.49,5.85,3.63,7.75,6.39
				c1.27,1.91,1.91,3.93,1.91,6.01c0,1.09-0.16,2.19-0.47,3.28l-0.03,0.11c-1.59,4.62-4.06,7.91-7.35,9.78
				c-3.21,1.82-7.68,2.7-13.69,2.7H769.91z M762.73,974.65c0,0.85,0.11,2.33,0.85,2.7c0.46,0.23,2.15,0.76,7.89,0.76h30.27
				c2.85,0,3.99-0.5,4.41-0.81c0.21-0.15,0.52-0.46,0.85-1.1c-0.77-0.07-1.52-0.29-2.25-0.65c-1.35-0.67-2.44-1.65-3.26-2.92
				c-3.98,0.49-9.2,0.98-15.51,1.46c-6.77,0.52-11.16,0.91-13.07,1.16c-0.32,0.03-0.56,0.04-0.8,0.04c-1.67,0-3.22-0.54-4.6-1.62
				c-1.57-1.22-2.54-2.81-2.89-4.74l-0.02-0.09l-0.01-0.09c-0.18-1.96,0.33-3.7,1.51-5.16c1.19-1.47,2.8-2.31,4.79-2.49l0.09-0.01
				h0.51c0.88-3.03,1.55-5.74,2.02-8.11h-10.8V974.65z M787.25,937.69v-6.16h-31.16v6.16H787.25z M735.49,937.69v-6.16h-30.57v6.16
				H735.49z M787.25,917.96V912h-31.16v5.96H787.25z M735.49,917.96V912h-30.57v5.96H735.49z M746.77,887.03
				c-0.46-1.41-0.54-2.93-0.2-4.5c0.57-2.68,2.01-4.78,4.29-6.25l0.08-0.05l0.08-0.04c5.4-2.81,10.4-6.26,14.9-10.29h-8.7
				c-2.08,0-3.93-0.74-5.48-2.21c-1.58-1.49-2.38-3.36-2.38-5.56c0-2.19,0.8-4.06,2.38-5.56c1.55-1.46,3.4-2.21,5.48-2.21h16.75
				l0-1.91c0-1.94,0.6-3.69,1.78-5.23h-55.52c1.12,1.48,1.68,3.23,1.68,5.23v1.91h18.31c2.08,0,3.92,0.74,5.47,2.2
				c1.58,1.5,2.39,3.37,2.39,5.56c0,2.2-0.8,4.06-2.39,5.56c-1.55,1.46-3.39,2.2-5.47,2.2H726.2c3.13,1.45,6.43,3.06,9.86,4.81
				c3.37,1.53,5.45,4.21,5.94,7.7c0.15,0.77,0.22,1.54,0.22,2.28c0,1.89-0.51,3.69-1.53,5.38L746.77,887.03z"/>
			<path class="st12" d="M769.91,995.01c-10.69,0-17.7-1.34-21.41-4.11c-3.84-2.86-5.79-8.33-5.79-16.25v-21.63h-12.65
				c-0.48,0-0.54,0.08-0.62,0.33c-2.69,10.18-7.47,18.62-14.2,25.09c-6.71,6.44-16.78,11.73-29.91,15.71l-0.1,0.03
				c-1.2,0.3-2.35,0.45-3.41,0.45c-1.65,0-3.33-0.3-4.98-0.9l-0.13-0.05c-2.69-1.2-4.89-3.09-6.53-5.62
				c-0.87-1.38-1.3-2.79-1.3-4.21c0-0.87,0.17-1.81,0.5-2.79c0.89-2.51,2.68-4.1,5.19-4.64c9.88-2.5,17.42-5.76,22.32-9.67
				c4.57-3.64,7.95-8.26,10.06-13.72h-3.05c-5.22,0-9.73-1.87-13.43-5.57c-3.69-3.69-5.57-8.21-5.57-13.43v-18.16
				c0-5.21,1.87-9.75,5.55-13.51c3.7-3.77,8.22-5.68,13.44-5.68h22.66c0.11,0,0.16-0.02,0.16-0.02l0.03-0.07l0.05-0.12
				c1.89-3.15,3.36-5.9,4.38-8.18c0.31-0.67,0.67-1.2,1.05-1.61c-2.55-1.86-6-4.18-10.31-6.92v6.02c0,2.49-0.89,4.65-2.64,6.39
				s-3.87,2.64-6.3,2.64s-4.55-0.89-6.3-2.64s-2.64-3.9-2.64-6.39v-6.51c-4.58,4.42-9.46,8.22-14.53,11.34
				c-1.54,0.95-3.19,1.43-4.89,1.43c-0.63,0-1.28-0.07-1.93-0.2c-2.3-0.48-4.34-1.67-6.05-3.54l-0.08-0.1
				c-1.39-1.73-1.94-3.77-1.58-5.88c0.36-2.19,1.68-3.91,3.81-4.97c5.95-2.98,11.59-6.82,16.79-11.45h-11.4
				c-2.11,0-3.93-0.76-5.42-2.25c-1.49-1.48-2.24-3.34-2.24-5.51c0-2.17,0.76-4.03,2.25-5.52s3.31-2.25,5.42-2.25h19.88v-1.91
				c0-1.99,0.57-3.74,1.68-5.23h-32.06v44.68c0,42.92-5.32,76.39-15.8,99.46c-1.17,2.51-3.25,4.11-6.03,4.63
				c-0.56,0.17-1.18,0.25-1.85,0.25c-2.16,0-4.16-0.74-5.95-2.21c-2.29-1.99-3.81-4.35-4.57-7.07c-0.31-1.06-0.46-2.3-0.46-3.66
				c0-1.72,0.39-3.44,1.16-5.13c8.04-19.14,12.19-48.19,12.32-86.29v-45.31c0-5.22,1.87-9.73,5.57-13.43
				c3.69-3.69,8.21-5.57,13.43-5.57h54.45v-3.66c0-3.13,1.11-5.86,3.3-8.13c2.21-2.28,4.96-3.44,8.18-3.44
				c3.2,0,5.98,1.15,8.25,3.42c2.27,2.27,3.42,5.02,3.42,8.15v3.66h65.19c2.6,0,4.91,0.94,6.85,2.8c1.97,1.88,2.96,4.21,2.96,6.91
				c0,2.69-0.99,5.04-2.93,6.98s-4.26,2.93-6.88,2.93h-23.93c1.14,1.54,1.71,3.29,1.71,5.23v1.91h21.63c2.08,0,3.92,0.74,5.47,2.2
				c1.58,1.5,2.39,3.37,2.39,5.56c0,2.2-0.8,4.06-2.39,5.56c-1.55,1.46-3.39,2.2-5.47,2.2h-12.59c5.14,4.24,10.99,8.09,17.43,11.46
				c1.99,1.09,3.22,2.83,3.58,5.07c0.36,2.26-0.31,4.31-1.93,5.93c-1.65,1.81-3.65,2.99-5.88,3.47c-0.68,0.15-1.38,0.22-2.08,0.22
				c-1.59,0-3.22-0.39-4.85-1.15l-0.13-0.06l-0.12-0.08c-5.1-3.36-10.16-7.38-15.06-11.97v6.98c0,2.47-0.84,4.61-2.5,6.36
				c-1.69,1.77-3.85,2.67-6.43,2.67c-2.56,0-4.74-0.89-6.49-2.64s-2.64-3.9-2.64-6.39v-6.13c-5.72,5.48-11.88,10.03-18.33,13.55
				l-0.07,0.04l-0.07,0.03c-0.62,0.27-1.24,0.41-1.86,0.41c-0.46,0-1.01-0.08-1.61-0.33c-0.67,0.9-1.51,2.01-2.52,3.32h39.55
				c5.22,0,9.73,1.87,13.43,5.57c3.69,3.69,5.57,8.28,5.57,13.62v19.34c0,4.82-1.74,9.03-5.16,12.53c-3.44,3.51-7.7,5.29-12.66,5.29
				c-0.36,0-0.52,0.07-0.68,0.33c-0.29,0.97-0.77,2.33-1.45,4.14c-0.5,1.32-0.89,2.4-1.16,3.22l7.14-0.26
				c-0.68-1.49-0.78-3.09-0.29-4.66c0.58-1.85,1.84-3.14,3.62-3.74c1.19-0.45,2.41-0.69,3.56-0.69c2.84,0,5.27,1.24,7.23,3.68
				l0.07,0.09c2.64,3.7,4.99,7.45,6.97,11.15c0.16,0.27,0.38,0.39,0.54,0.45c3.27,1.49,5.85,3.63,7.75,6.39
				c1.27,1.91,1.91,3.93,1.91,6.01c0,1.09-0.16,2.19-0.47,3.28l-0.03,0.11c-1.59,4.62-4.06,7.91-7.35,9.78
				c-3.21,1.82-7.68,2.7-13.69,2.7H769.91z M762.73,974.65c0,0.85,0.11,2.33,0.85,2.7c0.46,0.23,2.15,0.76,7.89,0.76h30.27
				c2.85,0,3.99-0.5,4.41-0.81c0.21-0.15,0.52-0.46,0.85-1.1c-0.77-0.07-1.52-0.29-2.25-0.65c-1.35-0.67-2.44-1.65-3.26-2.92
				c-3.98,0.49-9.2,0.98-15.51,1.46c-6.77,0.52-11.16,0.91-13.07,1.16c-0.32,0.03-0.56,0.04-0.8,0.04c-1.67,0-3.22-0.54-4.6-1.62
				c-1.57-1.22-2.54-2.81-2.89-4.74l-0.02-0.09l-0.01-0.09c-0.18-1.96,0.33-3.7,1.51-5.16c1.19-1.47,2.8-2.31,4.79-2.49l0.09-0.01
				h0.51c0.88-3.03,1.55-5.74,2.02-8.11h-10.8V974.65z M787.25,937.69v-6.16h-31.16v6.16H787.25z M735.49,937.69v-6.16h-30.57v6.16
				H735.49z M787.25,917.96V912h-31.16v5.96H787.25z M735.49,917.96V912h-30.57v5.96H735.49z M746.77,887.03
				c-0.46-1.41-0.54-2.93-0.2-4.5c0.57-2.68,2.01-4.78,4.29-6.25l0.08-0.05l0.08-0.04c5.4-2.81,10.4-6.26,14.9-10.29h-8.7
				c-2.08,0-3.93-0.74-5.48-2.21c-1.58-1.49-2.38-3.36-2.38-5.56c0-2.19,0.8-4.06,2.38-5.56c1.55-1.46,3.4-2.21,5.48-2.21h16.75
				l0-1.91c0-1.94,0.6-3.69,1.78-5.23h-55.52c1.12,1.48,1.68,3.23,1.68,5.23v1.91h18.31c2.08,0,3.92,0.74,5.47,2.2
				c1.58,1.5,2.39,3.37,2.39,5.56c0,2.2-0.8,4.06-2.39,5.56c-1.55,1.46-3.39,2.2-5.47,2.2H726.2c3.13,1.45,6.43,3.06,9.86,4.81
				c3.37,1.53,5.45,4.21,5.94,7.7c0.15,0.77,0.22,1.54,0.22,2.28c0,1.89-0.51,3.69-1.53,5.38L746.77,887.03z"/>
		</g>
		<g>
			<path class="st11" d="M973.72,995.59c-3.08,0-5.75-1.12-7.96-3.32c-2.2-2.21-3.32-4.92-3.32-8.06v-70.76
				c-8.28,18.22-17.58,33.56-27.72,45.67c-1.69,2.03-3.85,3.06-6.42,3.06h-1.34l-0.16-0.03c-2.89-0.48-5.24-2.01-6.98-4.55
				c-1.54-2.46-2.3-5.12-2.3-7.97c0-3.72,1.21-7.05,3.6-9.88c7.71-8.73,14.91-19.26,21.45-31.31c6.43-11.85,11.76-24.13,15.85-36.5
				h-19.56c-3.01,0-5.59-1.05-7.67-3.13c-2.07-2.07-3.12-4.65-3.12-7.66c0-3.01,1.05-5.59,3.13-7.66c2.07-2.07,4.65-3.13,7.66-3.13
				h23.59v-31.01c0-3.01,1.12-5.66,3.32-7.86c2.2-2.2,4.88-3.32,7.96-3.32c3.09,0,5.77,1.16,7.98,3.44c2.19,2.27,3.3,4.87,3.3,7.74
				v31.01h25.73c2.99,0,5.6,1.04,7.73,3.1l3.25,3.13v4.56c0,3.03-1.09,5.62-3.25,7.69c-2.13,2.06-4.74,3.1-7.73,3.1h-20.55
				c8.33,26.72,18.74,48.78,30.95,65.57c1.69,2.3,2.48,4.89,2.34,7.67v1.01l-0.01,0.09c-0.3,3.33-1.62,6.18-3.9,8.46
				c-2.03,2.19-4.62,3.32-7.66,3.32h-0.2c-3.34-0.16-5.92-1.63-7.56-4.26c-6.69-10.59-13.12-24.04-19.16-40.07v70.45
				c0,3.14-1.12,5.85-3.32,8.05C979.47,994.48,976.8,995.59,973.72,995.59z M886.13,995.59c-3,0-5.63-1.08-7.83-3.2
				c-2.22-2.14-3.35-4.83-3.35-7.98V914.8c-6.1,14.65-12.54,26.99-19.2,36.75c-1.55,2.24-3.74,3.41-6.34,3.41h-0.89l-0.11-0.01
				c-2.97-0.33-5.32-1.89-6.8-4.52c-1.47-2.64-2.21-5.46-2.21-8.4v-1.06l0.01-0.08c0.29-3.45,1.32-6.53,3.06-9.15l0.06-0.08
				c5.89-7.94,11.47-17.39,16.6-28.09c5.04-10.52,9.15-21.16,12.21-31.61h-19.39c-2.87,0-5.41-1.04-7.54-3.1
				c-2.16-2.07-3.25-4.66-3.25-7.69c0-3.03,1.09-5.61,3.25-7.69c2.14-2.06,4.67-3.1,7.54-3.1h23v-31.2c0-3.03,1.13-5.65,3.35-7.79
				c2.2-2.12,4.83-3.2,7.83-3.2c3,0,5.63,1.08,7.83,3.2c2.22,2.14,3.35,4.76,3.35,7.79v31.2h16.36c2.87,0,5.4,1.04,7.54,3.1
				c2.16,2.08,3.25,4.67,3.25,7.69c0,3.03-1.09,5.62-3.25,7.69c-2.13,2.06-4.67,3.1-7.54,3.1h-16.36c0.01,0.78,0.28,1.45,0.83,2.11
				c4.83,4.84,12.8,13.66,23.68,26.23c2.28,2.73,3.42,5.92,3.42,9.51c0,3.3-0.99,6.21-2.95,8.64c-1.67,2.3-4.04,3.52-6.86,3.52
				l-0.5,0c-2.95-0.16-5.38-1.55-7.02-4.01c-3.18-4.66-6.73-9.77-10.59-15.23v81.7c0,3.16-1.13,5.84-3.35,7.98
				C891.76,994.52,889.12,995.59,886.13,995.59z"/>
			<path class="st12" d="M973.72,995.59c-3.08,0-5.75-1.12-7.96-3.32c-2.2-2.21-3.32-4.92-3.32-8.06v-70.76
				c-8.28,18.22-17.58,33.56-27.72,45.67c-1.69,2.03-3.85,3.06-6.42,3.06h-1.34l-0.16-0.03c-2.89-0.48-5.24-2.01-6.98-4.55
				c-1.54-2.46-2.3-5.12-2.3-7.97c0-3.72,1.21-7.05,3.6-9.88c7.71-8.73,14.91-19.26,21.45-31.31c6.43-11.85,11.76-24.13,15.85-36.5
				h-19.56c-3.01,0-5.59-1.05-7.67-3.13c-2.07-2.07-3.12-4.65-3.12-7.66c0-3.01,1.05-5.59,3.13-7.66c2.07-2.07,4.65-3.13,7.66-3.13
				h23.59v-31.01c0-3.01,1.12-5.66,3.32-7.86c2.2-2.2,4.88-3.32,7.96-3.32c3.09,0,5.77,1.16,7.98,3.44c2.19,2.27,3.3,4.87,3.3,7.74
				v31.01h25.73c2.99,0,5.6,1.04,7.73,3.1l3.25,3.13v4.56c0,3.03-1.09,5.62-3.25,7.69c-2.13,2.06-4.74,3.1-7.73,3.1h-20.55
				c8.33,26.72,18.74,48.78,30.95,65.57c1.69,2.3,2.48,4.89,2.34,7.67v1.01l-0.01,0.09c-0.3,3.33-1.62,6.18-3.9,8.46
				c-2.03,2.19-4.62,3.32-7.66,3.32h-0.2c-3.34-0.16-5.92-1.63-7.56-4.26c-6.69-10.59-13.12-24.04-19.16-40.07v70.45
				c0,3.14-1.12,5.85-3.32,8.05C979.47,994.48,976.8,995.59,973.72,995.59z M886.13,995.59c-3,0-5.63-1.08-7.83-3.2
				c-2.22-2.14-3.35-4.83-3.35-7.98V914.8c-6.1,14.65-12.54,26.99-19.2,36.75c-1.55,2.24-3.74,3.41-6.34,3.41h-0.89l-0.11-0.01
				c-2.97-0.33-5.32-1.89-6.8-4.52c-1.47-2.64-2.21-5.46-2.21-8.4v-1.06l0.01-0.08c0.29-3.45,1.32-6.53,3.06-9.15l0.06-0.08
				c5.89-7.94,11.47-17.39,16.6-28.09c5.04-10.52,9.15-21.16,12.21-31.61h-19.39c-2.87,0-5.41-1.04-7.54-3.1
				c-2.16-2.07-3.25-4.66-3.25-7.69c0-3.03,1.09-5.61,3.25-7.69c2.14-2.06,4.67-3.1,7.54-3.1h23v-31.2c0-3.03,1.13-5.65,3.35-7.79
				c2.2-2.12,4.83-3.2,7.83-3.2c3,0,5.63,1.08,7.83,3.2c2.22,2.14,3.35,4.76,3.35,7.79v31.2h16.36c2.87,0,5.4,1.04,7.54,3.1
				c2.16,2.08,3.25,4.67,3.25,7.69c0,3.03-1.09,5.62-3.25,7.69c-2.13,2.06-4.67,3.1-7.54,3.1h-16.36c0.01,0.78,0.28,1.45,0.83,2.11
				c4.83,4.84,12.8,13.66,23.68,26.23c2.28,2.73,3.42,5.92,3.42,9.51c0,3.3-0.99,6.21-2.95,8.64c-1.67,2.3-4.04,3.52-6.86,3.52
				l-0.5,0c-2.95-0.16-5.38-1.55-7.02-4.01c-3.18-4.66-6.73-9.77-10.59-15.23v81.7c0,3.16-1.13,5.84-3.35,7.98
				C891.76,994.52,889.12,995.59,886.13,995.59z"/>
		</g>
		<g>
			<path class="st11" d="M1101.75,995.59c-2.8,0-5.32-0.93-7.49-2.78c-2.23-1.66-3.88-3.84-4.92-6.51c-0.88-2.45-0.6-4.84,0.77-6.98
				c1.33-2.08,3.26-3.18,5.58-3.18c0.15,0,0.3,0,0.46,0.01h11.94c1.17-0.13,1.54-0.41,1.61-0.47c0.06-0.05,0.21-0.34,0.21-1.04
				v-30.62h-40.38c-0.22,0-0.3,0.04-0.3,0.04c0,0,0,0,0,0c0.01,0-0.03,0.08-0.07,0.23c-1.85,17.83-5.73,32.62-11.53,43.96
				c-1.17,2.33-3.19,3.88-5.84,4.46c-0.72,0.16-1.44,0.24-2.13,0.24c-1.8,0-3.5-0.53-5.03-1.57c-2.24-1.31-3.71-3.26-4.37-5.82
				c-0.31-0.95-0.47-1.93-0.47-2.9c0-1.45,0.32-2.91,0.95-4.33c7.28-14.7,10.96-36.61,10.96-65.2v-28.42c-0.01,0-0.03,0-0.04,0
				c-1.1,0-2.14-0.48-3.08-1.42c-1.47-1.34-3.02-2.7-4.55-3.98c-2.16-1.69-3.45-3.98-3.81-6.78c-0.15-0.52-0.23-1.06-0.23-1.59
				c0-2.26,0.73-4.37,2.16-6.28c9.32-12.38,16.76-28.07,22.14-46.62c0.78-2.81,2.45-5.04,4.96-6.61c1.74-1.11,3.68-1.67,5.75-1.67
				c0.85,0,1.7,0.16,2.54,0.47c2.82,0.66,4.97,2.21,6.4,4.6c0.97,1.61,1.46,3.34,1.46,5.13c0,0.99-0.17,1.99-0.49,2.97
				c-0.36,1.17-0.73,2.32-1.12,3.42h18.25c0.66-0.19,1.31-0.28,1.95-0.28c1.32,0,2.57,0.4,3.72,1.18l3.36,1.98
				c1.93,1.29,3.28,3.05,4.01,5.23c0.73,2.2,0.69,4.4-0.13,6.53c-2.47,5.93-5.25,11.9-8.28,17.79h7.58c4.19,0,7.76,1.48,10.61,4.41
				c2.47,2.54,3.89,5.55,4.21,8.95c7.15-3.63,12.68-8.23,16.45-13.67c3.98-5.76,6.9-12.72,8.67-20.69h-14.74
				c-2.63,0-4.91-0.95-6.79-2.83c-1.88-1.87-2.83-4.19-2.83-6.88c0-2.69,0.95-5,2.83-6.88c1.88-1.88,4.16-2.83,6.79-2.83h62.3
				c5.23,0,9.72,1.92,13.36,5.69c3.35,3.5,5.05,7.64,5.05,12.32l0,1.08c-0.66,12.53-1.52,21.98-2.57,28.07
				c-1.12,6.49-2.68,10.8-4.76,13.19c-2.74,3.46-7.06,5.62-12.78,6.33c-2.31,0.27-5.52,0.41-9.82,0.41h-2.54
				c-0.59,0-1.16-0.04-1.73-0.14c0.23,0.19,0.45,0.39,0.67,0.6c2.16,2.08,3.25,4.67,3.25,7.69v8.35h22.61
				c2.75,0,5.13,0.99,7.08,2.93c1.94,1.94,2.93,4.33,2.93,7.08s-0.99,5.13-2.93,7.08c-1.94,1.94-4.33,2.93-7.08,2.93h-22.61v17.68
				h26.32c2.75,0,5.13,0.99,7.08,2.93c1.94,1.94,2.93,4.33,2.93,7.08c0,2.74-0.98,5.14-2.9,7.15c-1.94,2.03-4.33,3.06-7.11,3.06
				h-26.32v24.37c0,2.88-1.08,5.43-3.22,7.57c-2.14,2.14-4.72,3.22-7.66,3.22c-2.96,0-5.52-1.09-7.59-3.25
				c-2.05-2.13-3.1-4.67-3.1-7.54v-24.37h-29.64c-2.77,0-5.16-1.03-7.11-3.06c-1.14-1.19-1.95-2.51-2.42-3.97v22.02
				c0,8.95-2.65,14.93-7.88,17.77l-0.08,0.04l-0.08,0.04c-3.91,1.68-10.15,2.62-19.09,2.9l-0.03,0H1101.75z M1129.14,946.49
				c0.47-1.45,1.29-2.76,2.45-3.92c1.94-1.94,4.33-2.93,7.08-2.93h29.64v-17.68h-15.77c-0.56,0-0.73,0.17-0.91,0.57
				c-1.31,3.26-2.86,6.45-4.6,9.39c-1.28,2.39-3.28,3.98-5.93,4.63l-0.08,0.02l-0.08,0.01c-0.88,0.15-1.72,0.22-2.48,0.22
				c-1.75,0-3.43-0.4-5-1.19l-0.09-0.05c-2.07-1.18-3.49-2.86-4.24-4.99V946.49z M1109.91,925.77v-16.12h-11.04v16.12H1109.91z
				 M1081.78,925.77v-16.12h-11.23v16.12H1081.78z M1129.14,923.84c0.16-0.38,0.34-0.76,0.55-1.14c4.58-8.02,8.33-17.84,11.13-29.19
				c0.64-2.59,2.12-4.64,4.38-6.09c1.63-1.05,3.39-1.58,5.22-1.58c0.7,0,1.43,0.08,2.15,0.24c2.6,0.57,4.66,1.97,6.12,4.17
				c1.48,2.23,1.91,4.76,1.26,7.52c-0.3,1.32-0.66,2.72-1.06,4.18h9.42v-8.35c0-3.01,1.05-5.59,3.13-7.66
				c2.07-2.07,4.62-3.13,7.57-3.13c0.63,0,1.23,0.05,1.83,0.14c-0.14-0.12-0.28-0.23-0.42-0.36c-2.04-1.82-3.46-4.11-4.21-6.82
				c-0.54-2.34-0.11-4.49,1.26-6.46c1.33-1.91,3.24-2.92,5.51-2.92c0.18,0,0.37,0.01,0.56,0.02c2.38,0.13,5.1,0.19,8.06,0.19l0.1,0
				c0.2,0.01,0.4,0.02,0.59,0.02c1.59,0,2.67-0.35,3.21-1.03l0.07-0.08c0.8-0.9,2.78-5.41,3.98-27.77l-23.78,0.05
				c-0.22,0-0.3,0.04-0.3,0.04c0,0,0,0,0,0c0.01,0-0.04,0.1-0.08,0.31c-1.85,10.03-4.88,18.91-9,26.36
				c-4.16,7.52-10.14,14.11-17.77,19.6l-0.08,0.05l-0.08,0.05c-2.32,1.36-4.69,2.05-7.05,2.05c-0.22,0-0.44-0.01-0.67-0.02
				c-1.22-0.01-2.51-0.23-3.84-0.67c-2.79-0.76-5.39-2.13-7.78-4.08V923.84z M1109.91,891.79v-14.95h-11.04v14.95H1109.91z
				 M1081.78,891.79v-14.95h-11.23v14.95H1081.78z M1085.54,858.78c0.51,0,0.71-0.12,0.91-0.57c1.69-3.75,3.53-8.25,5.46-13.4
				h-14.57c-0.56,0-0.73,0.17-0.91,0.57c-2.11,5.05-4.17,9.56-6.1,13.4H1085.54z"/>
			<path class="st12" d="M1101.75,995.59c-2.8,0-5.32-0.93-7.49-2.78c-2.23-1.66-3.88-3.84-4.92-6.51c-0.88-2.45-0.6-4.84,0.77-6.98
				c1.33-2.08,3.26-3.18,5.58-3.18c0.15,0,0.3,0,0.46,0.01h11.94c1.17-0.13,1.54-0.41,1.61-0.47c0.06-0.05,0.21-0.34,0.21-1.04
				v-30.62h-40.38c-0.22,0-0.3,0.04-0.3,0.04c0,0,0,0,0,0c0.01,0-0.03,0.08-0.07,0.23c-1.85,17.83-5.73,32.62-11.53,43.96
				c-1.17,2.33-3.19,3.88-5.84,4.46c-0.72,0.16-1.44,0.24-2.13,0.24c-1.8,0-3.5-0.53-5.03-1.57c-2.24-1.31-3.71-3.26-4.37-5.82
				c-0.31-0.95-0.47-1.93-0.47-2.9c0-1.45,0.32-2.91,0.95-4.33c7.28-14.7,10.96-36.61,10.96-65.2v-28.42c-0.01,0-0.03,0-0.04,0
				c-1.1,0-2.14-0.48-3.08-1.42c-1.47-1.34-3.02-2.7-4.55-3.98c-2.16-1.69-3.45-3.98-3.81-6.78c-0.15-0.52-0.23-1.06-0.23-1.59
				c0-2.26,0.73-4.37,2.16-6.28c9.32-12.38,16.76-28.07,22.14-46.62c0.78-2.81,2.45-5.04,4.96-6.61c1.74-1.11,3.68-1.67,5.75-1.67
				c0.85,0,1.7,0.16,2.54,0.47c2.82,0.66,4.97,2.21,6.4,4.6c0.97,1.61,1.46,3.34,1.46,5.13c0,0.99-0.17,1.99-0.49,2.97
				c-0.36,1.17-0.73,2.32-1.12,3.42h18.25c0.66-0.19,1.31-0.28,1.95-0.28c1.32,0,2.57,0.4,3.72,1.18l3.36,1.98
				c1.93,1.29,3.28,3.05,4.01,5.23c0.73,2.2,0.69,4.4-0.13,6.53c-2.47,5.93-5.25,11.9-8.28,17.79h7.58c4.19,0,7.76,1.48,10.61,4.41
				c2.47,2.54,3.89,5.55,4.21,8.95c7.15-3.63,12.68-8.23,16.45-13.67c3.98-5.76,6.9-12.72,8.67-20.69h-14.74
				c-2.63,0-4.91-0.95-6.79-2.83c-1.88-1.87-2.83-4.19-2.83-6.88c0-2.69,0.95-5,2.83-6.88c1.88-1.88,4.16-2.83,6.79-2.83h62.3
				c5.23,0,9.72,1.92,13.36,5.69c3.35,3.5,5.05,7.64,5.05,12.32l0,1.08c-0.66,12.53-1.52,21.98-2.57,28.07
				c-1.12,6.49-2.68,10.8-4.76,13.19c-2.74,3.46-7.06,5.62-12.78,6.33c-2.31,0.27-5.52,0.41-9.82,0.41h-2.54
				c-0.59,0-1.16-0.04-1.73-0.14c0.23,0.19,0.45,0.39,0.67,0.6c2.16,2.08,3.25,4.67,3.25,7.69v8.35h22.61
				c2.75,0,5.13,0.99,7.08,2.93c1.94,1.94,2.93,4.33,2.93,7.08s-0.99,5.13-2.93,7.08c-1.94,1.94-4.33,2.93-7.08,2.93h-22.61v17.68
				h26.32c2.75,0,5.13,0.99,7.08,2.93c1.94,1.94,2.93,4.33,2.93,7.08c0,2.74-0.98,5.14-2.9,7.15c-1.94,2.03-4.33,3.06-7.11,3.06
				h-26.32v24.37c0,2.88-1.08,5.43-3.22,7.57c-2.14,2.14-4.72,3.22-7.66,3.22c-2.96,0-5.52-1.09-7.59-3.25
				c-2.05-2.13-3.1-4.67-3.1-7.54v-24.37h-29.64c-2.77,0-5.16-1.03-7.11-3.06c-1.14-1.19-1.95-2.51-2.42-3.97v22.02
				c0,8.95-2.65,14.93-7.88,17.77l-0.08,0.04l-0.08,0.04c-3.91,1.68-10.15,2.62-19.09,2.9l-0.03,0H1101.75z M1129.14,946.49
				c0.47-1.45,1.29-2.76,2.45-3.92c1.94-1.94,4.33-2.93,7.08-2.93h29.64v-17.68h-15.77c-0.56,0-0.73,0.17-0.91,0.57
				c-1.31,3.26-2.86,6.45-4.6,9.39c-1.28,2.39-3.28,3.98-5.93,4.63l-0.08,0.02l-0.08,0.01c-0.88,0.15-1.72,0.22-2.48,0.22
				c-1.75,0-3.43-0.4-5-1.19l-0.09-0.05c-2.07-1.18-3.49-2.86-4.24-4.99V946.49z M1109.91,925.77v-16.12h-11.04v16.12H1109.91z
				 M1081.78,925.77v-16.12h-11.23v16.12H1081.78z M1129.14,923.84c0.16-0.38,0.34-0.76,0.55-1.14c4.58-8.02,8.33-17.84,11.13-29.19
				c0.64-2.59,2.12-4.64,4.38-6.09c1.63-1.05,3.39-1.58,5.22-1.58c0.7,0,1.43,0.08,2.15,0.24c2.6,0.57,4.66,1.97,6.12,4.17
				c1.48,2.23,1.91,4.76,1.26,7.52c-0.3,1.32-0.66,2.72-1.06,4.18h9.42v-8.35c0-3.01,1.05-5.59,3.13-7.66
				c2.07-2.07,4.62-3.13,7.57-3.13c0.63,0,1.23,0.05,1.83,0.14c-0.14-0.12-0.28-0.23-0.42-0.36c-2.04-1.82-3.46-4.11-4.21-6.82
				c-0.54-2.34-0.11-4.49,1.26-6.46c1.33-1.91,3.24-2.92,5.51-2.92c0.18,0,0.37,0.01,0.56,0.02c2.38,0.13,5.1,0.19,8.06,0.19l0.1,0
				c0.2,0.01,0.4,0.02,0.59,0.02c1.59,0,2.67-0.35,3.21-1.03l0.07-0.08c0.8-0.9,2.78-5.41,3.98-27.77l-23.78,0.05
				c-0.22,0-0.3,0.04-0.3,0.04c0,0,0,0,0,0c0.01,0-0.04,0.1-0.08,0.31c-1.85,10.03-4.88,18.91-9,26.36
				c-4.16,7.52-10.14,14.11-17.77,19.6l-0.08,0.05l-0.08,0.05c-2.32,1.36-4.69,2.05-7.05,2.05c-0.22,0-0.44-0.01-0.67-0.02
				c-1.22-0.01-2.51-0.23-3.84-0.67c-2.79-0.76-5.39-2.13-7.78-4.08V923.84z M1109.91,891.79v-14.95h-11.04v14.95H1109.91z
				 M1081.78,891.79v-14.95h-11.23v14.95H1081.78z M1085.54,858.78c0.51,0,0.71-0.12,0.91-0.57c1.69-3.75,3.53-8.25,5.46-13.4
				h-14.57c-0.56,0-0.73,0.17-0.91,0.57c-2.11,5.05-4.17,9.56-6.1,13.4H1085.54z"/>
		</g>
		<g>
			<path class="st11" d="M1273.04,995.98c-3.15,0-5.84-1.13-7.98-3.35c-2.12-2.2-3.2-4.84-3.2-7.83v-39.84c0-3,1.08-5.63,3.2-7.83
				c2.14-2.22,4.79-3.35,7.89-3.35c3.07,0,5.75,1.12,7.96,3.32c2.21,2.21,3.32,4.85,3.32,7.86v21.63h35.84v-31.98
				c0-3.14,1.12-5.85,3.32-8.05c0.84-0.85,1.77-1.53,2.76-2.05h-5.83c-9.06,0-15.5-0.81-19.69-2.49c-0.41-0.16-0.78-0.25-1.11-0.25
				c-0.27,0-0.53,0.06-0.77,0.18l-0.1,0.05c-12.12,5.21-25.2,9.97-38.88,14.14l-0.07,0.02l-0.07,0.02c-1.3,0.29-2.56,0.44-3.76,0.44
				c-1.66,0-3.34-0.3-4.98-0.9c-3.02-1.2-5.42-3.08-7.2-5.61c-1.03-1.54-1.54-3.17-1.54-4.86c0-0.88,0.17-1.76,0.5-2.62
				c0.87-2.7,2.77-4.49,5.5-5.18c14.94-3.86,28.91-8.5,41.51-13.77c0.36-0.16,0.53-0.33,0.53-0.89v-29.69c0-2.74,1.01-5.18,3-7.25
				c2.01-2.09,4.5-3.15,7.4-3.15c2.89,0,5.38,1.06,7.4,3.15c1.99,2.07,3,4.51,3,7.25v20.67c19.45-10.13,35.22-22.18,46.87-35.84
				c1.96-2.26,4.4-3.79,7.26-4.54c1.05-0.3,2.15-0.46,3.25-0.46c1.84,0,3.63,0.39,5.32,1.16c2.62,1.15,4.37,3.24,5.03,6.05
				c0.66,2.82,0.04,5.45-1.79,7.61c-11.88,13.94-27.42,26.75-46.24,38.11h25.77c3.72,0,5.31-0.73,5.98-1.34
				c0.57-0.51,1.6-2.01,2.19-6.31c0.34-2.42,1.65-4.36,3.79-5.64c1.21-0.73,2.5-1.1,3.83-1.1c1.02,0,2.06,0.22,3.1,0.66
				c2.56,0.92,4.7,2.53,6.36,4.78l0.08,0.11c1.11,1.76,1.68,3.69,1.68,5.76v1.75l-0.03,0.18c-1.41,7.61-3.92,12.7-7.69,15.58
				c-3.71,2.84-9.45,4.22-17.52,4.22h-21.46c0.99,0.52,1.91,1.21,2.76,2.05c2.21,2.21,3.32,4.92,3.32,8.06v31.98H1381v-21.44
				c0-3.14,1.12-5.85,3.32-8.05s4.88-3.32,7.96-3.32c3.07,0,5.75,1.12,7.96,3.32c2.21,2.21,3.32,4.92,3.32,8.06v39.06
				c0,3.14-1.12,5.85-3.32,8.05c-2.21,2.21-4.85,3.32-7.86,3.32h-2.34c-2.49,0-4.65-0.89-6.39-2.64c-1.46-1.46-2.32-3.19-2.56-5.18
				h-96.92c-0.25,2.1-1.14,3.94-2.66,5.47c-1.82,1.82-4.07,2.74-6.69,2.74H1273.04z M1412.1,913.76c-0.65,0-1.38-0.08-2.15-0.23
				c-2.83-0.63-5.13-2.05-6.84-4.24c-5.93-8.12-13.47-16.5-22.46-24.97c-1.83-1.66-2.78-3.74-2.78-6.14c0-3.02,1.33-5.42,3.84-6.95
				c2.01-1.38,4.35-2.08,6.95-2.08l0.69,0c2.94,0.16,5.46,1.19,7.5,3.07c9.53,8.49,17.49,16.79,23.66,24.65
				c1.33,1.84,1.99,3.87,1.99,6.12c0,0.65-0.08,1.31-0.24,1.97c-0.49,2.83-1.93,5.14-4.29,6.87
				C1416.01,913.12,1414.06,913.76,1412.1,913.76z M1255.85,910.83c-3.01,0-5.75-0.91-8.16-2.69c-2.23-1.41-3.41-3.6-3.41-6.34
				c0-2.65,1.01-4.92,2.99-6.75c6.44-5.55,11.66-12.62,15.55-21.05c1.1-2.51,2.95-4.37,5.51-5.48c1.42-0.63,2.78-0.95,4.02-0.95
				c1.21,0,2.46,0.24,3.73,0.71c2.6,0.98,4.49,2.78,5.62,5.37c0.62,1.24,0.95,2.59,0.95,3.93c0,1.28-0.24,2.57-0.71,3.83l-0.04,0.09
				c-4.78,11.02-10.73,19.79-17.68,26.08c-2.16,2-4.88,3.1-8.08,3.25l-0.05,0H1255.85z M1333.92,873.98c-2.13,0-4.09-0.69-5.85-2.04
				c-6.33-4.43-13.61-8.71-21.55-12.69c-2.22-1.02-3.66-2.84-4.1-5.24c-0.43-2.31,0.05-4.44,1.42-6.32l0.07-0.09l0.08-0.08
				c0.87-0.95,1.83-1.72,2.87-2.31h-39.04v12.26c0,3.01-1.08,5.62-3.22,7.76c-2.14,2.14-4.78,3.22-7.86,3.22
				c-3.09,0-5.75-1.13-7.89-3.35c-2.12-2.2-3.2-4.77-3.2-7.64V843.4c0-5.22,1.87-9.73,5.57-13.43c3.69-3.69,8.21-5.57,13.43-5.57
				h55.23v-4.45c0-3.42,1.13-6.24,3.35-8.37c2.2-2.12,4.93-3.2,8.13-3.2c3.2,0,5.95,1.12,8.15,3.32c2.21,2.21,3.32,4.98,3.32,8.25
				v4.45h56.59c5.21,0,9.73,1.87,13.43,5.57c3.69,3.69,5.57,8.21,5.57,13.43v13.48c0,3.12-1.07,5.84-3.17,8.1
				c-2.14,2.3-4.9,3.47-8.2,3.47c-3.29,0-6.07-1.16-8.28-3.44c-2.19-2.26-3.29-4.99-3.29-8.13V845.2h-77.13
				c8.21,3.79,15.41,7.74,21.46,11.77c2.3,1.48,3.66,3.68,3.91,6.36c0.24,2.59-0.45,4.97-2.07,7.07c-1.68,2.02-3.82,3.18-6.42,3.5
				C1334.77,873.95,1334.34,873.98,1333.92,873.98z"/>
			<path class="st12" d="M1273.04,995.98c-3.15,0-5.84-1.13-7.98-3.35c-2.12-2.2-3.2-4.84-3.2-7.83v-39.84c0-3,1.08-5.63,3.2-7.83
				c2.14-2.22,4.79-3.35,7.89-3.35c3.07,0,5.75,1.12,7.96,3.32c2.21,2.21,3.32,4.85,3.32,7.86v21.63h35.84v-31.98
				c0-3.14,1.12-5.85,3.32-8.05c0.84-0.85,1.77-1.53,2.76-2.05h-5.83c-9.06,0-15.5-0.81-19.69-2.49c-0.41-0.16-0.78-0.25-1.11-0.25
				c-0.27,0-0.53,0.06-0.77,0.18l-0.1,0.05c-12.12,5.21-25.2,9.97-38.88,14.14l-0.07,0.02l-0.07,0.02c-1.3,0.29-2.56,0.44-3.76,0.44
				c-1.66,0-3.34-0.3-4.98-0.9c-3.02-1.2-5.42-3.08-7.2-5.61c-1.03-1.54-1.54-3.17-1.54-4.86c0-0.88,0.17-1.76,0.5-2.62
				c0.87-2.7,2.77-4.49,5.5-5.18c14.94-3.86,28.91-8.5,41.51-13.77c0.36-0.16,0.53-0.33,0.53-0.89v-29.69c0-2.74,1.01-5.18,3-7.25
				c2.01-2.09,4.5-3.15,7.4-3.15c2.89,0,5.38,1.06,7.4,3.15c1.99,2.07,3,4.51,3,7.25v20.67c19.45-10.13,35.22-22.18,46.87-35.84
				c1.96-2.26,4.4-3.79,7.26-4.54c1.05-0.3,2.15-0.46,3.25-0.46c1.84,0,3.63,0.39,5.32,1.16c2.62,1.15,4.37,3.24,5.03,6.05
				c0.66,2.82,0.04,5.45-1.79,7.61c-11.88,13.94-27.42,26.75-46.24,38.11h25.77c3.72,0,5.31-0.73,5.98-1.34
				c0.57-0.51,1.6-2.01,2.19-6.31c0.34-2.42,1.65-4.36,3.79-5.64c1.21-0.73,2.5-1.1,3.83-1.1c1.02,0,2.06,0.22,3.1,0.66
				c2.56,0.92,4.7,2.53,6.36,4.78l0.08,0.11c1.11,1.76,1.68,3.69,1.68,5.76v1.75l-0.03,0.18c-1.41,7.61-3.92,12.7-7.69,15.58
				c-3.71,2.84-9.45,4.22-17.52,4.22h-21.46c0.99,0.52,1.91,1.21,2.76,2.05c2.21,2.21,3.32,4.92,3.32,8.06v31.98H1381v-21.44
				c0-3.14,1.12-5.85,3.32-8.05s4.88-3.32,7.96-3.32c3.07,0,5.75,1.12,7.96,3.32c2.21,2.21,3.32,4.92,3.32,8.06v39.06
				c0,3.14-1.12,5.85-3.32,8.05c-2.21,2.21-4.85,3.32-7.86,3.32h-2.34c-2.49,0-4.65-0.89-6.39-2.64c-1.46-1.46-2.32-3.19-2.56-5.18
				h-96.92c-0.25,2.1-1.14,3.94-2.66,5.47c-1.82,1.82-4.07,2.74-6.69,2.74H1273.04z M1412.1,913.76c-0.65,0-1.38-0.08-2.15-0.23
				c-2.83-0.63-5.13-2.05-6.84-4.24c-5.93-8.12-13.47-16.5-22.46-24.97c-1.83-1.66-2.78-3.74-2.78-6.14c0-3.02,1.33-5.42,3.84-6.95
				c2.01-1.38,4.35-2.08,6.95-2.08l0.69,0c2.94,0.16,5.46,1.19,7.5,3.07c9.53,8.49,17.49,16.79,23.66,24.65
				c1.33,1.84,1.99,3.87,1.99,6.12c0,0.65-0.08,1.31-0.24,1.97c-0.49,2.83-1.93,5.14-4.29,6.87
				C1416.01,913.12,1414.06,913.76,1412.1,913.76z M1255.85,910.83c-3.01,0-5.75-0.91-8.16-2.69c-2.23-1.41-3.41-3.6-3.41-6.34
				c0-2.65,1.01-4.92,2.99-6.75c6.44-5.55,11.66-12.62,15.55-21.05c1.1-2.51,2.95-4.37,5.51-5.48c1.42-0.63,2.78-0.95,4.02-0.95
				c1.21,0,2.46,0.24,3.73,0.71c2.6,0.98,4.49,2.78,5.62,5.37c0.62,1.24,0.95,2.59,0.95,3.93c0,1.28-0.24,2.57-0.71,3.83l-0.04,0.09
				c-4.78,11.02-10.73,19.79-17.68,26.08c-2.16,2-4.88,3.1-8.08,3.25l-0.05,0H1255.85z M1333.92,873.98c-2.13,0-4.09-0.69-5.85-2.04
				c-6.33-4.43-13.61-8.71-21.55-12.69c-2.22-1.02-3.66-2.84-4.1-5.24c-0.43-2.31,0.05-4.44,1.42-6.32l0.07-0.09l0.08-0.08
				c0.87-0.95,1.83-1.72,2.87-2.31h-39.04v12.26c0,3.01-1.08,5.62-3.22,7.76c-2.14,2.14-4.78,3.22-7.86,3.22
				c-3.09,0-5.75-1.13-7.89-3.35c-2.12-2.2-3.2-4.77-3.2-7.64V843.4c0-5.22,1.87-9.73,5.57-13.43c3.69-3.69,8.21-5.57,13.43-5.57
				h55.23v-4.45c0-3.42,1.13-6.24,3.35-8.37c2.2-2.12,4.93-3.2,8.13-3.2c3.2,0,5.95,1.12,8.15,3.32c2.21,2.21,3.32,4.98,3.32,8.25
				v4.45h56.59c5.21,0,9.73,1.87,13.43,5.57c3.69,3.69,5.57,8.21,5.57,13.43v13.48c0,3.12-1.07,5.84-3.17,8.1
				c-2.14,2.3-4.9,3.47-8.2,3.47c-3.29,0-6.07-1.16-8.28-3.44c-2.19-2.26-3.29-4.99-3.29-8.13V845.2h-77.13
				c8.21,3.79,15.41,7.74,21.46,11.77c2.3,1.48,3.66,3.68,3.91,6.36c0.24,2.59-0.45,4.97-2.07,7.07c-1.68,2.02-3.82,3.18-6.42,3.5
				C1334.77,873.95,1334.34,873.98,1333.92,873.98z"/>
		</g>
	</g>
</g>
<path class="st13" d="M557.4,991.01h-74.22c-28.48,0-51.56-23.09-51.56-51.56v-74.22c0-28.48,23.09-51.56,51.56-51.56h74.22
	c28.48,0,51.56,23.09,51.56,51.56v74.22C608.96,967.92,585.88,991.01,557.4,991.01z"/>
<polygon class="st14" points="545.06,936.48 635.83,789.53 609.39,771 519.42,916.65 466.27,875.54 449.03,900.65 528.2,961.89 
	529.63,959.81 530.34,960.31 539.83,944.95 545.44,936.78 "/>
</svg>
