<?xml version="1.0" encoding="utf-8"?>
<!-- Generator: Adobe Illustrator 23.0.5, SVG Export Plug-In . SVG Version: 6.00 Build 0)  -->
<svg version="1.1" id="圖層_1" xmlns="http://www.w3.org/2000/svg" xmlns:xlink="http://www.w3.org/1999/xlink" x="0px" y="0px"
	 viewBox="0 0 1920 1080" style="enable-background:new 0 0 1920 1080;" xml:space="preserve">
<style type="text/css">
	.st0{fill:#403F45;}
	.st1{fill:#522E1B;}
	.st2{fill:#585862;}
	.st3{fill:#9B806D;}
	.st4{fill:#282F3B;}
	.st5{fill:#504C54;}
	.st6{fill:#413F45;}
	.st7{fill:#442F2E;}
	.st8{fill:#6C7887;}
	.st9{fill:#3A404D;}
	.st10{fill:#626064;}
	.st11{fill:#A49581;}
	.st12{fill:#F9D99C;}
	.st13{fill:#B7A694;}
	.st14{fill:#393844;}
	.st15{fill:#F0D3AC;}
	.st16{fill:#666A76;}
	.st17{fill:#7F695B;}
	.st18{fill:#543C3A;}
	.st19{fill:#493E42;}
	.st20{fill:#65544E;}
	.st21{fill:#7779A0;}
	.st22{fill:#3E3E68;}
	.st23{fill:#5BC44D;}
	.st24{fill:#313331;}
	.st25{fill:#FFFFFF;stroke:#000000;stroke-width:4;stroke-miterlimit:10;}
</style>
<g>
	<g>
		<path class="st0" d="M214.25,960.41c-22.2-0.6-55.1-1.04-95.4,0c-41.3,1.04-57.5,2.85-67-6.04c-19.2-17.95,7.4-62.3,15.2-74.63
			c49.1,1.47,98.1,2.85,147.1,4.31v76.36H214.25z"/>
		<rect x="358.35" y="284.46" class="st1" width="91.3" height="678.44"/>
		<path class="st2" d="M363.45,300.77c-14.2-6.04-28.4-11.99-42.6-18.03v-18.9c18.9,6.3,37.9,12.6,56.8,18.9
			C372.85,288.78,368.15,294.82,363.45,300.77z"/>
		<path class="st3" d="M336.05,876.37c-81.2-0.26-162.4-0.6-243.6-0.86c-3-187.58-6.1-375.16-9.1-562.74
			c86.6,1.73,173.2,3.45,259.8,5.18C340.75,504.14,338.45,690.25,336.05,876.37z"/>
		<path class="st4" d="M358.75,963.86c-48.2-1.12-96.4-2.33-144.5-3.45c1.1-28.04,2.2-56.08,3.3-84.04h141.2
			c3.5,13.29,6.3,30.2,5.6,49.79C363.85,940.47,361.55,953.16,358.75,963.86z"/>
		<path class="st5" d="M346.15,963.86c-44-1.12-88-2.33-131.9-3.45c1-28.04,2-56.08,3-84.04h128.9c3.2,13.29,5.7,30.2,5.1,49.79
			C350.75,940.47,348.75,953.16,346.15,963.86z"/>
		<path class="st6" d="M329.95,317.94c-80.5-1.73-161-3.45-241.5-5.18c-9.5-10.87-18.9-21.74-28.4-32.61
			c89,0.26,177.9,0.6,266.9,0.86C327.85,293.35,328.95,305.69,329.95,317.94z"/>
		<path class="st7" d="M355.25,320.53c-8.1-0.86-16.2-1.73-24.4-2.59c-0.7-10.01-1.4-20.02-2-30.03c9.8,3.71,19.6,7.42,29.4,11.13
			C357.35,306.21,356.35,313.37,355.25,320.53z"/>
		<path class="st8" d="M326.85,281.1c-91.7,0-183.3,0-275,0c-0.3-0.43-3.4-4.66-1-9.4c2.2-4.57,7.5-5.87,8.1-6.04
			c87.9,0,175.9,0,263.8,0C324.15,270.83,325.55,275.92,326.85,281.1z"/>
		<path class="st9" d="M275.15,222.77c-41.3-1.12-82.5-2.24-123.8-3.45c3.4-8.28,6.8-16.57,10.1-24.85c32.1,0.6,64.3,1.12,96.4,1.73
			C263.65,205,269.35,213.88,275.15,222.77z"/>
		<path class="st10" d="M271.05,197.92c-43.6-0.6-87.3-1.12-130.9-1.73c-0.4-4.66-0.5-9.84,0-15.44c1-11.65,4-21.57,7.1-29.16
			c40.6,0,81.2,0,121.8,0C269.75,167.03,270.35,182.48,271.05,197.92z"/>
		<path class="st11" d="M321.85,220.18c-17.9-6.82-35.9-13.72-53.8-20.62c-0.3-16.57-0.7-33.13-1-49.79
			c24.7,14.58,49.4,29.16,74.1,43.75c0.7,2.59,1.4,5.18,2,7.68C336.05,207.59,328.95,213.88,321.85,220.18z"/>
		<path class="st12" d="M343.15,201.29c-25.4-17.17-50.7-34.34-76.1-51.51c5.4-6.82,10.8-13.72,16.2-20.62
			c22.3,18.55,44.6,37.19,67,55.74C347.85,190.42,345.45,195.85,343.15,201.29z"/>
		<path class="st13" d="M269.05,151.59c-40.6,0-81.2,0-121.8,0c8.1-7.42,16.2-14.84,24.4-22.26c37.2,0,74.4,0,111.6,0
			c0.3,2.16,0.5,5.61-1,9.4C279.05,146.84,271.15,150.64,269.05,151.59z"/>
		<path class="st14" d="M314.05,234.76c-13-3.71-26-7.42-39-11.13c-4.7-8.54-9.4-17.17-14.1-25.71c21.3,7.68,42.6,15.44,63.9,23.12
			C321.25,225.62,317.65,230.19,314.05,234.76z"/>
		<path class="st15" d="M377.65,282.82c-18.3-6.04-36.5-11.99-54.8-18.03c-15.9-13.98-31.8-28.04-47.7-42.02
			c12.9,3.71,25.7,7.42,38.6,11.13C335.05,250.21,356.35,266.52,377.65,282.82z"/>
		<path class="st16" d="M320.75,263.93c-87.9,0-175.9,0-263.8,0c7.7-6.13,16.4-12.51,26.4-18.9c17.7-11.22,34.7-19.59,49.7-25.71
			c47,1.12,94,2.24,141,3.45c8.5,3.8,21.1,10.7,32.5,22.35C313.25,251.85,317.75,258.49,320.75,263.93z"/>
		<path class="st17" d="M353.25,876.37c-8.1,0-16.2,0-24.4,0c0.3-186.11,0.7-372.31,1-558.42c8.5,0.86,16.9,1.73,25.4,2.59
			C354.65,505.78,353.95,691.12,353.25,876.37z"/>
		<rect x="362.35" y="285.33" class="st18" width="77.1" height="55.74"/>
		<rect x="362.35" y="341.15" class="st19" width="77.1" height="617.61"/>
		<path class="st2" d="M214.25,960.41H91.45c1.5-8.89,2.7-23.3-2-40.29c-5.3-19.15-15.7-32.79-22.3-40.29
			c50.1-1.12,100.1-2.33,150.2-3.45C216.25,904.41,215.25,932.45,214.25,960.41z"/>
	</g>
	<g>
		<path class="st0" d="M1682.85,944.1c22.2-0.6,55.1-1.04,95.4,0c41.3,1.04,57.5,2.85,67-6.04c19.2-17.95-7.4-62.3-15.2-74.63
			c-49.1,1.47-98.1,2.85-147.1,4.31v76.36H1682.85z"/>
		<rect x="1447.45" y="268.24" class="st1" width="91.3" height="678.44"/>
		<path class="st2" d="M1533.65,284.46c14.2-6.04,28.4-11.99,42.6-18.03v-18.9c-18.9,6.3-37.9,12.6-56.8,18.9
			C1524.25,272.47,1528.95,278.51,1533.65,284.46z"/>
		<path class="st3" d="M1561.05,860.06c81.2-0.26,162.4-0.6,243.6-0.86c3-187.58,6.1-375.16,9.1-562.74
			c-86.6,1.73-173.2,3.45-259.8,5.18C1556.35,487.83,1558.75,673.95,1561.05,860.06z"/>
		<path class="st4" d="M1538.35,947.55c48.2-1.12,96.3-2.33,144.5-3.45c-1.1-28.04-2.2-56.08-3.3-84.04h-141.2
			c-3.5,13.29-6.3,30.2-5.6,49.79C1533.25,924.17,1535.55,936.85,1538.35,947.55z"/>
		<path class="st5" d="M1550.95,947.55c44-1.12,87.9-2.33,131.9-3.45c-1-28.04-2-56.08-3-84.04h-128.9
			c-3.2,13.29-5.7,30.2-5.1,49.79C1546.35,924.17,1548.35,936.85,1550.95,947.55z"/>
		<path class="st6" d="M1567.15,301.63c80.5-1.73,161-3.45,241.5-5.18c9.5-10.87,18.9-21.74,28.4-32.61
			c-89,0.26-177.9,0.6-266.9,0.86C1569.25,277.04,1568.15,289.38,1567.15,301.63z"/>
		<path class="st7" d="M1541.85,304.22c8.1-0.86,16.2-1.73,24.3-2.59c0.7-10.01,1.3-20.02,2-30.03c-9.8,3.71-19.6,7.42-29.4,11.13
			C1539.75,289.99,1540.75,297.06,1541.85,304.22z"/>
		<path class="st8" d="M1570.25,264.79c91.7,0,183.3,0,275,0c0.3-0.43,3.4-4.66,1-9.4c-2.2-4.57-7.5-5.87-8.1-6.04
			c-87.9,0-175.9,0-263.8,0C1572.95,254.52,1571.55,259.61,1570.25,264.79z"/>
		<path class="st9" d="M1621.95,206.46c41.3-1.12,82.5-2.24,123.8-3.45c-3.4-8.28-6.8-16.57-10.2-24.85
			c-32.1,0.6-64.3,1.12-96.4,1.73C1633.45,188.69,1627.75,197.58,1621.95,206.46z"/>
		<path class="st10" d="M1626.05,181.61c43.6-0.6,87.3-1.12,130.9-1.73c0.4-4.66,0.5-9.84,0-15.44c-1-11.65-4-21.57-7.1-29.16
			c-40.6,0-81.2,0-121.8,0C1627.35,150.73,1626.75,166.17,1626.05,181.61z"/>
		<path class="st11" d="M1575.35,203.88c17.9-6.82,35.8-13.72,53.8-20.62c0.3-16.57,0.7-33.13,1-49.79
			c-24.7,14.58-49.4,29.16-74.1,43.75c-0.7,2.59-1.3,5.18-2,7.68C1561.05,191.28,1568.15,197.58,1575.35,203.88z"/>
		<path class="st12" d="M1553.95,184.98c25.4-17.17,50.7-34.34,76.1-51.51c-5.4-6.82-10.8-13.72-16.2-20.62
			c-22.3,18.55-44.7,37.19-67,55.74C1549.25,174.11,1551.65,179.54,1553.95,184.98z"/>
		<path class="st13" d="M1628.05,135.28c40.6,0,81.2,0,121.8,0c-8.1-7.42-16.2-14.84-24.3-22.26c-37.2,0-74.4,0-111.6,0
			c-0.3,2.16-0.5,5.61,1,9.4C1617.95,130.53,1625.95,134.33,1628.05,135.28z"/>
		<path class="st14" d="M1583.05,218.46c13-3.71,26-7.42,39-11.13c4.7-8.54,9.4-17.17,14.1-25.71c-21.3,7.68-42.6,15.44-63.9,23.12
			C1575.85,209.31,1579.45,213.88,1583.05,218.46z"/>
		<path class="st15" d="M1519.45,266.52c18.3-6.04,36.5-11.99,54.8-18.03c15.9-13.98,31.8-28.04,47.7-42.02
			c-12.8,3.71-25.7,7.42-38.6,11.13C1562.15,233.9,1540.75,250.21,1519.45,266.52z"/>
		<path class="st16" d="M1576.35,247.62c87.9,0,175.9,0,263.8,0c-7.7-6.13-16.4-12.51-26.4-18.9c-17.7-11.22-34.7-19.59-49.7-25.71
			c-47,1.12-94,2.24-141.1,3.45c-8.5,3.8-21.1,10.7-32.5,22.35C1583.85,235.54,1579.35,242.19,1576.35,247.62z"/>
		<path class="st17" d="M1543.85,860.06c8.1,0,16.2,0,24.3,0c-0.3-186.11-0.7-372.31-1-558.42c-8.5,0.86-16.9,1.73-25.4,2.59
			C1542.45,489.56,1543.15,674.81,1543.85,860.06z"/>
		<rect x="1457.55" y="269.11" class="st18" width="77.1" height="55.74"/>
		<rect x="1457.55" y="324.84" class="st19" width="77.1" height="617.61"/>
		<path class="st2" d="M1682.85,944.1h122.8c-1.5-8.89-2.7-23.3,2-40.29c5.3-19.15,15.7-32.79,22.3-40.29
			c-50.1-1.12-100.1-2.33-150.2-3.45C1680.85,888.1,1681.85,916.14,1682.85,944.1z"/>
	</g>
	<g>
		<rect x="458.85" y="300.77" class="st20" width="32.5" height="636.42"/>
		<path class="st20" d="M913.35,221.91c-58.3,4.31-135.7,15.01-222.2,41.16c-85.1,25.71-151.9,58.33-199.9,85.77
			c0-13.46,0-26.83,0-40.29c47.3-25.88,110.4-55.13,188.7-78.95c90.6-27.52,171.9-38.48,233.4-42.88
			C913.35,198.44,913.35,210.17,913.35,221.91z"/>
		<rect x="907.35" y="174.71" class="st20" width="31.5" height="772.84"/>
		<rect x="491.25" y="815.45" class="st20" width="422.1" height="24.85"/>
		<rect x="491.25" y="890.08" class="st20" width="422.1" height="18.9"/>
		<path class="st20" d="M907.35,327.43c-69.5,7.77-158.4,23.64-255.7,57.46c-63.1,21.92-116.6,46.77-160.3,70.32
			c-0.7-23.73-1.4-47.46-2-71.18c19.1-4.92,48.8-13.2,84.2-25.71c55.7-19.76,67.8-29.6,117.7-45.47c13.4-4.23,49.7-15.36,98.4-23.99
			c46.4-8.2,86.8-11.13,117.7-11.99C907.35,293.7,907.35,310.52,907.35,327.43z"/>
		<rect x="842.35" y="222.77" class="st20" width="15.2" height="676.8"/>
		<rect x="776.45" y="222.77" class="st20" width="15.2" height="676.8"/>
		<rect x="695.25" y="226.22" class="st20" width="15.2" height="676.8"/>
		<rect x="633.35" y="265.65" class="st20" width="15.2" height="637.29"/>
		<rect x="560.25" y="287.92" class="st20" width="15.2" height="619.34"/>
	</g>
	<rect x="1406.05" y="285.93" class="st20" width="32.5" height="636.42"/>
	<path class="st20" d="M1046.45,86.88c57.3,27.78,130.7,69.03,205.5,128.04c73.5,57.98,124.9,114.67,159.7,159.11
		c6.9-12.08,13.9-24.25,20.8-36.33c-34.9-42.71-84.2-94.91-151.8-148.32c-78.3-61.86-155.5-105.01-216-134.08
		C1058.55,65.74,1052.55,76.35,1046.45,86.88z"/>
	<rect x="1041.75" y="49.26" class="st20" width="31.5" height="772.84"/>
	<polygon class="st20" points="1058.55,747.72 1419.75,823.56 1427.05,799.23 1065.85,723.39 	"/>
	<polygon class="st20" points="1046.65,794.91 1428.05,874.98 1433.65,856.35 1052.25,776.28 	"/>
	<path class="st20" d="M1047.05,379.63c62.6,14.06,141.7,38.05,226,80.59c54.7,27.61,100.1,57.21,136.8,84.56
		c4-23.47,8-47.02,12-70.49c-16.8-6.64-42.8-17.6-73.5-33.31c-48.2-24.68-57.9-35.63-101.3-56c-11.7-5.44-43.3-19.85-86.7-32.87
		c-41.3-12.42-77.9-19.07-106.1-22.78C1051.85,346.16,1049.45,362.9,1047.05,379.63z"/>
	<rect x="1122.95" y="112.93" class="st20" width="18.8" height="685.35"/>
	<rect x="1175.65" y="142.7" class="st20" width="18.2" height="672.06"/>
	<rect x="1229.75" y="174.63" class="st20" width="14.4" height="648.07"/>
	<rect x="1280.15" y="207.59" class="st20" width="17.9" height="626.5"/>
	<rect x="1333.95" y="255.04" class="st20" width="15.8" height="594.58"/>
	<rect x="1622.75" y="353.15" class="st21" width="138" height="204.15"/>
	<g>
		<rect x="1649.65" y="415.01" class="st22" width="23.3" height="13.89"/>
		<rect x="1679.35" y="415.01" class="st22" width="23.3" height="13.89"/>
		<rect x="1710.95" y="415.01" class="st22" width="23.3" height="13.89"/>
		<rect x="1710.95" y="434.08" class="st22" width="23.3" height="13.89"/>
		<rect x="1679.35" y="434.08" class="st22" width="23.3" height="13.89"/>
		<rect x="1649.65" y="434.08" class="st22" width="23.3" height="13.89"/>
		<rect x="1649.65" y="453.15" class="st22" width="23.3" height="13.89"/>
		<rect x="1680.25" y="453.15" class="st22" width="23.3" height="13.89"/>
		<rect x="1710.95" y="453.15" class="st22" width="23.3" height="13.89"/>
		<rect x="1710.95" y="471.87" class="st22" width="23.3" height="13.89"/>
		<rect x="1680.25" y="471.87" class="st22" width="23.3" height="13.89"/>
		<rect x="1649.65" y="471.87" class="st22" width="23.3" height="13.89"/>
	</g>
	<rect x="1643.25" y="365.14" class="st23" width="97.3" height="40.04"/>
	<rect x="1643.25" y="507.16" class="st24" width="35.6" height="21.23"/>
	<rect x="1704.95" y="507.16" class="st24" width="35.6" height="21.23"/>
</g>
<g>
	<path class="st25" d="M679.38,976.51c0,1.94-0.91,4.49-2.74,7.65c-16.02,26.59-37.3,39.89-63.84,39.89
		c-27.16,0-49.18-12.93-66.06-38.79c-16.45-25.01-24.67-56.58-24.67-94.71c0-36.91,8.05-68.24,24.15-93.98
		c16.8-26.96,38.16-40.43,64.1-40.43c28.2,0,50.31,12.08,66.32,36.24c1.74,2.67,2.61,5.04,2.61,7.1c0,2.31-3.03,10.87-9.07,25.68
		c-6.05,14.82-9.86,23.13-11.42,24.95c-0.7,0.97-1.57,1.46-2.61,1.46c-0.44,0-2.61-2.43-6.53-7.29c-4.7-5.83-9.31-10.38-13.84-13.66
		c-6.88-4.85-14.01-7.29-21.41-7.29c-12.79,0-23.02,6.68-30.68,20.03c-7.05,12.38-10.58,27.68-10.58,45.9
		c0,18.46,3.52,33.94,10.58,46.44c7.66,13.6,17.89,20.4,30.68,20.4c7.57,0,14.75-2.3,21.54-6.92c4.44-3.03,8.96-7.29,13.58-12.75
		c3.83-4.61,5.96-6.92,6.4-6.92c0.87,0,1.74,0.67,2.61,2c1.39,2.19,5.18,9.77,11.36,22.77C676.2,967.76,679.38,975.17,679.38,976.51
		z"/>
	<path class="st25" d="M813.45,1020.76c-7.49,0-17.23-0.25-29.24-0.73c-15.67-0.49-25.42-0.79-29.24-0.91l-39.04-0.73
		c-3.92,0.12-9.53-0.12-16.84-0.73c-2.53-0.61-3.79-2.49-3.79-5.65c0-13.23,0.15-33.06,0.46-59.47c0.3-26.41,0.46-46.23,0.46-59.47
		c0-14.08-0.31-35.18-0.91-63.29c-0.61-28.11-0.91-49.2-0.91-63.29c0-2.67,1.31-4.01,3.92-4.01c2.61,0,6.51,0.18,11.68,0.55
		c5.18,0.36,9.03,0.55,11.55,0.55c2.87,0,7.14-0.21,12.79-0.64c5.66-0.42,9.92-0.64,12.79-0.64c1.31,0,1.91,1.16,1.83,3.46
		l-0.13,2.37c-1.04,22.83-2.22,57.13-3.52,102.9l-0.13,48.08c0,15.54,0.04,26.9,0.13,34.06c0.08,1.46,0.17,2.91,0.26,4.37
		c0.09,1.46,0.74,2.37,1.96,2.73c0.09,0,1.22,0,3.39,0c7.83,0,19.56-0.58,35.18-1.73c15.62-1.15,27.35-1.73,35.18-1.73
		c2.35,0,3.53,1.4,3.53,4.19c0,20.76-1.09,38.67-3.26,53.73c-0.44,3.16-1.35,5.04-2.74,5.65
		C818.37,1020.64,816.59,1020.76,813.45,1020.76z"/>
	<path class="st25" d="M973.38,961.02c0,5.22-0.74,14.82-2.22,28.78c-1.57,15.18-2.96,24.22-4.18,27.14
		c-1.04,2.31-2.48,3.46-4.31,3.46c-0.78,0-2.09-0.18-3.92-0.55c-6.35-1.21-24.89-1.82-55.62-1.82c-6.7,0-16.67-0.06-29.9-0.18
		c-13.23-0.12-23.15-0.18-29.77-0.18c-2.87,0-4.31-1.76-4.31-5.28c0-13.6,0.54-34.03,1.63-61.29c1.09-27.26,1.63-47.69,1.63-61.29
		c0-13.84-0.52-39.64-1.57-77.41c-0.26-9.71-0.74-24.22-1.44-43.53l-0.13-2.55c-0.18-2.79,0.91-4.19,3.26-4.19
		c6.44,0,16.12,0.25,29.05,0.73c12.92,0.49,22.61,0.73,29.05,0.73c6.35,0,15.93-0.24,28.72-0.73c12.79-0.48,22.37-0.73,28.72-0.73
		c4.52,0,7.14,2.37,7.83,7.1c0.43,2.79,1.11,11.26,2.02,25.41c0.91,14.15,1.37,22.74,1.37,25.77c0,2.55-0.87,3.83-2.61,3.83
		c-0.52,0-1.44-0.06-2.74-0.18c-23.15-2.67-43.95-4.01-62.4-4.01c-4.61,0-7.44,1.52-8.49,4.55c-0.44,1.46-0.65,6.13-0.65,14.02
		c0,8.26,0.87,13.72,2.61,16.39c1.48,2.31,4.31,3.46,8.49,3.46c0.87,0,2.57-0.09,5.09-0.27c2.52-0.18,4.61-0.27,6.27-0.27
		c10.97,0,22.06-0.42,33.29-1.27c0.96-0.12,3.35-0.42,7.18-0.91c2.96-0.48,5.31-0.73,7.05-0.73c2.09,0,3.13,1.4,3.13,4.19
		c0-2.55-0.78,6.74-2.35,27.87c-0.7,9.72-1.04,19.43-1.04,29.14c0,2.43-1.26,3.64-3.79,3.64l-11.75-1.82
		c-4.96-0.73-16.28-1.09-33.94-1.09h-13.84c-3.57,0-5.66,1.22-6.27,3.64c-0.09,0.61-0.13,4.37-0.13,11.29
		c0,9.23,0.43,15.18,1.3,17.85c1.48,4.62,7.05,7.35,16.71,8.2c-0.17,0,6.18,0,19.06,0c4.61,0,11.47-0.57,20.56-1.73
		c9.09-1.15,15.91-1.73,20.43-1.73C972.42,954.47,973.38,956.65,973.38,961.02z"/>
	<path class="st25" d="M1162.94,1013.11c0,2.19-1.09,3.71-3.26,4.55c-2.61,0.97-10.71,1.46-24.28,1.46
		c-12.45,0-20.45-0.49-24.02-1.46c-2.96-0.85-4.83-3.58-5.61-8.2c-2.96-17.49-5.27-26.83-6.92-28.05
		c-1.39-0.85-13.06-1.27-34.99-1.27c-14.8,0-22.67,0.55-23.63,1.64c-1.48,1.94-3.13,8.44-4.96,19.49c-1.65,10.08-3.66,15.54-6,16.39
		c-2.96,0.97-12.88,1.46-29.77,1.46c-13.32,0-19.97-1.76-19.97-5.28c0-3.16,9.83-41.95,29.5-116.38
		c21.32-80.5,32.9-124.76,34.73-132.77c1.04-4.61,2.26-6.92,3.66-6.92c2.35,0,5.98,0.3,10.9,0.91c4.92,0.61,8.59,0.91,11.03,0.91
		c2.35,0,5.81-0.21,10.38-0.64c4.57-0.42,7.98-0.64,10.25-0.64c1.65,0,3.18,2,4.57,6.01c4.26,12.75,16.71,56.46,37.34,131.13
		C1152.59,970.62,1162.94,1009.84,1162.94,1013.11z M1070.38,847.19c-1.83,5.34-4.92,16.94-9.27,34.79
		c-4.7,18.94-7.05,30.05-7.05,33.33c0,2.19,2.61,3.4,7.83,3.64c2.7,0.24,7.14,0.36,13.32,0.36c5.75,0,8.92-0.97,9.53-2.91
		c0.17-0.61,0.26-1.46,0.26-2.55c0-4.01-2-15.05-6.01-33.15C1075.08,863.22,1072.21,852.05,1070.38,847.19z"/>
	<path class="st25" d="M1331.88,1015.85c0,0.85-0.87,1.46-2.61,1.82c-3.31,0.73-11.62,1.09-24.94,1.09
		c-11.4,0-19.15-0.36-23.24-1.09c-1.92-0.36-3-0.67-3.26-0.91c-0.52-0.36-1.13-1.58-1.83-3.64c-1.31-4.74-3.22-11.78-5.75-21.13
		c-3.39-12.14-8.7-30.05-15.93-53.73c-1.57-4.74-5.18-7.34-10.84-7.83c2.61,0.24-1.87,0.36-13.45,0.36c-1.31,0-1.96,3.1-1.96,9.29
		c0,8.26,0.54,20.58,1.63,36.97c1.09,16.39,1.63,28.72,1.63,36.97c0,2.07-0.39,3.28-1.17,3.64c-1.22,0.12-2.44,0.24-3.66,0.36
		c-5.14,0.48-13.14,0.73-24.02,0.73c-12.45,0-19.93-0.36-22.46-1.09c-2.53-0.73-3.79-2.61-3.79-5.65c0-13.36,0.46-33.51,1.37-60.47
		c0.91-26.96,1.37-47.17,1.37-60.65c0-51.36-0.83-91.43-2.48-120.21l-0.13-2.55c-0.09-2.06,1.28-3.46,4.11-4.19
		c2.83-0.73,16.12-1.46,39.88-2.19c16.1-0.48,28.94-0.73,38.51-0.73c19.84,0,36.03,6.25,48.57,18.76
		c14.19,14.09,21.28,34.42,21.28,61.01c0,17.73-1.83,31.87-5.48,42.44s-10.4,20.83-20.24,30.78c-2,1.94-3,3.77-3,5.46
		c0-0.12,5.31,15.12,15.93,45.72C1326.57,995.81,1331.88,1012.69,1331.88,1015.85z M1277.05,852.47c0-14.81-3.48-25.07-10.44-30.78
		c-5.4-4.37-13.84-6.56-25.33-6.56c-8.27,0-12.66,1.76-13.19,5.28c-0.52,4.13-0.78,16.03-0.78,35.7c0,2.79,0.04,6.92,0.13,12.39
		c0.09,5.46,0.13,9.53,0.13,12.2c0,0.61,1.39,1.22,4.18,1.82c5.31,1.09,10.88,1.64,16.71,1.64
		C1267.52,884.16,1277.05,873.6,1277.05,852.47z"/>
	<path class="st25" d="M1397.94,806.21c0,22.1-1.44,42.86-4.31,62.29c-3.48,19.92-6.92,39.77-10.31,59.56
		c-0.78,4.49-4.27,6.74-10.44,6.74c-7.05,0-10.97-1.94-11.75-5.83c-8.18-38.98-12.27-61.13-12.27-66.48
		c0-4.98,0.17-12.38,0.52-22.22c0.35-9.83,0.52-17.24,0.52-22.22c0-5.46-0.13-13.66-0.39-24.59c-0.26-10.93-0.39-19.12-0.39-24.59
		c0-4.49,0.78-6.74,2.35-6.74c2.44,0,6.09,0.25,10.97,0.73c4.87,0.49,8.53,0.73,10.97,0.73c2.44,0,6.09-0.24,10.97-0.73
		c4.87-0.48,8.53-0.73,10.97-0.73C1397.07,762.14,1397.94,776.83,1397.94,806.21z M1397.94,986.7c0,10.2-2.26,18.67-6.79,25.41
		c-4.53,6.74-10.44,10.11-17.75,10.11c-7.4,0-13.34-3.34-17.82-10.02c-4.48-6.68-6.72-15.18-6.72-25.5c0-10.2,2.26-18.58,6.79-25.13
		c4.52-6.56,10.44-9.83,17.75-9.83c7.22,0,13.12,3.28,17.69,9.83C1395.66,968.13,1397.94,976.51,1397.94,986.7z"/>
</g>
</svg>
