<?xml version="1.0" encoding="utf-8"?>
<!-- Generator: Adobe Illustrator 23.0.5, SVG Export Plug-In . SVG Version: 6.00 Build 0)  -->
<svg version="1.1" id="圖層_1" xmlns="http://www.w3.org/2000/svg" xmlns:xlink="http://www.w3.org/1999/xlink" x="0px" y="0px"
	 viewBox="0 0 1920 1080" style="enable-background:new 0 0 1920 1080;" xml:space="preserve">
<style type="text/css">
	.st0{fill:#F4B54B;}
	.st1{fill:#9FA09C;}
	.st2{fill:#523D52;}
	.st3{fill:#B96922;}
	.st4{fill:#C29869;}
	.st5{fill:#704A48;}
	.st6{fill:#B1B4A1;}
	.st7{fill:#848889;}
	.st8{fill:#C48C3B;}
	.st9{fill:#BEA16E;}
	.st10{fill:#511C0A;}
	.st11{fill:#74391B;}
	.st12{fill:url(#SVGID_1_);}
	.st13{fill:#605A55;}
	.st14{fill:#F3C415;}
	.st15{fill:#F8D183;}
	.st16{fill:#857D75;}
	.st17{fill:#D4C9B6;}
	.st18{fill:#FCCB4F;}
	.st19{fill:#3B190C;}
	.st20{fill:#535655;}
	.st21{fill:#834F31;}
	.st22{fill:#FFFFFF;}
	.st23{fill:none;stroke:#663D28;stroke-width:2;stroke-miterlimit:10;}
	.st24{fill:#96873C;}
	.st25{fill:#A4A796;}
	.st26{fill:#654B4B;}
	.st27{fill:#4A3D50;}
	.st28{fill:#ACAF9F;}
	.st29{fill:#4C3E54;}
	.st30{fill:none;stroke:#000000;stroke-width:2;stroke-miterlimit:10;}
	.st31{fill:#FFFFFF;stroke:#000000;stroke-width:6;stroke-miterlimit:10;}
	.st32{fill:#7FEF6C;}
</style>
<path class="st0" d="M1900.26,815.97c0,64.59-225.04,114.23-478.24,170.08c-153.1,33.77-361.93,78.32-627.1,62.5
	c-319.41-19.05-717-125.51-713.66-221.3c3.44-98.73,431.75-157.24,525.75-170.08C1243.75,570.18,1900.26,705.66,1900.26,815.97z"/>
<g>
	<path class="st1" d="M318.8,980.93c-8.8-0.68-17.6-1.37-26.39-2.05c-1.52-3.22-5-11.7-3.17-22.54
		c2.14-12.67,10.13-20.3,12.67-22.54c2.99-3.2,9.21-8.97,19-12.3c14.22-4.84,26.58-1.33,30.62,0
		C340.62,941.32,329.71,961.13,318.8,980.93z"/>
	<path class="st2" d="M396.92,972.74c-25.69,2.73-51.38,5.46-77.07,8.2c10.56-19.81,21.11-39.62,31.67-59.43
		c6.11,2.14,17.27,6.96,27.45,17.42C391.72,952.02,395.62,966.45,396.92,972.74z"/>
</g>
<g>
	<g>
		<path class="st3" d="M432.98,932.89c10.16-4.27,21.62-5.56,32.52-3.68c5.81,1,11.42,2.88,17.01,4.75c2.38,0.8,5.08,1.9,5.8,4.24
			c0.99,3.19-2.49,6.1-5.82,6.89c-7.46,1.78-14.98-1.9-22.26-4.29c-6.67-2.18-13.7-3.32-20.73-3.35c-1.42-0.01-2.9,0.02-4.18-0.58
			c-1.28-0.6-2.27-2.05-1.79-3.35"/>
	</g>
	<g>
		<path class="st3" d="M403.48,921.57c7.58-2.36,16.64,1.1,20.52,7.85c0.25,0.43,0.48,0.9,0.42,1.39c-0.13,1.01-1.38,1.46-2.43,1.57
			c-4.92,0.52-9.71-1.5-14.22-3.48c-1.67-0.73-3.41-1.52-4.51-2.95s-1.27-3.69,0.13-4.84"/>
	</g>
	<g>
		<path class="st3" d="M420.7,982.89c9.59-0.69,19.37,1.35,27.81,5.82c-6.67,3.1-14.12,4.6-21.5,4.33c-3.4-0.13-7.2-0.86-9.11-3.6
			c-1.9-2.74,0.22-7.62,3.55-6.93"/>
	</g>
	<g>
		<path class="st3" d="M458.59,892c6.61-1.87,13.56-2.6,20.43-2.14c3.51,0.23,7.72,1.38,8.56,4.69c0.65,2.59-1.33,5.26-3.82,6.39
			c-2.49,1.13-5.35,1.09-8.1,1.04c-4.01-0.08-8.01-0.17-12.02-0.25c-3.09-0.06-6.98-0.69-7.77-3.6c-0.7-2.56,1.62-4.88,3.71-6.57"/>
	</g>
	<g>
		<path class="st3" d="M268.64,897.77c5.03-0.86,10.19-1.03,15.28-0.51c3.04,0.31,6.53,1.23,7.69,3.98
			c1.07,2.55-0.53,5.54-2.82,7.15c-3.56,2.5-8.46,2.55-12.63,1.19c-4.16-1.37-7.76-3.97-11.27-6.52c-0.41-0.3-0.85-0.66-0.88-1.15
			c-0.03-0.61,0.57-1.05,1.1-1.37c1.47-0.88,2.93-1.76,4.4-2.64"/>
	</g>
	<g>
		<path class="st3" d="M134.77,806.93c6.28-0.59,12.6-0.69,18.89-0.3c1.41,0.09,2.91,0.24,3.99,1.11c2.08,1.69,1.3,5.2-0.81,6.85
			c-2.11,1.64-4.99,1.93-7.69,2.15c-4.25,0.35-8.51,0.7-12.76,1.05c-1.67,0.14-3.48,0.25-4.9-0.63c-2.2-1.37-2.38-4.61-1.07-6.81
			s3.65-3.59,5.89-4.89"/>
	</g>
	<g>
		<path class="st3" d="M699.86,986.3c2.69-0.37,5.19-1.85,6.76-4.01c0.64-0.89,1.15-1.89,2.01-2.59c1.06-0.86,2.5-1.11,3.88-1.28
			c5.12-0.61,10.62-0.34,14.95,2.38c4.33,2.72,6.91,8.47,4.63,12.96c-1.65,3.22-5.38,5.07-9.06,5.43
			c-3.69,0.36-7.38-0.55-10.92-1.59c-4.35-1.28-8.85-2.93-11.71-6.36c-1.36-1.63-1.68-4.83,0.45-5.15"/>
	</g>
	<g>
		<path class="st3" d="M869.57,897.24c3.48-6.13,10.57-10.2,17.79-10.11s14.24,4.37,17.36,10.68c0.8,1.62,1.37,3.41,1.13,5.19
			c-0.7,5.2-7.29,7.24-12.67,7.73c-5.33,0.49-10.9,0.58-15.8-1.52c-4.9-2.1-8.92-6.9-8.45-12.07"/>
	</g>
</g>
<path class="st4" d="M659.79,1013.72c-19.35-1.71-38.71-3.42-58.06-5.12c-0.34-0.26-7.5-5.84-6.33-14.34
	c0.84-6.12,5.4-9.57,6.33-10.25c19.35,0,38.71,0,58.06,0c1.48,2.16,3.41,5.64,4.22,10.25
	C665.72,1003.92,661.22,1011.5,659.79,1013.72z"/>
<g>
	<path class="st5" d="M800.2,854.91c-28.15-0.68-56.3-1.37-84.46-2.05c-1.76-14.69-3.52-29.37-5.28-44.06
		c10.74-5.05,38.53-16.26,70.73-8.2c9.22,2.31,16.97,5.73,23.23,9.22c-1.87,7.15-3.53,15.78-4.22,25.61
		C799.7,842.6,799.8,849.14,800.2,854.91z"/>
	<path class="st6" d="M732.64,854.91c-20.96-2-37.36-6.47-48.56-10.25c-14.3-4.83-33.7-11.37-33.78-20.49
		c-0.04-4.59,4.83-8.05,9.5-11.27c15.71-10.83,33.99-11.08,44.34-10.25c2.69-3.04,18.86-20.71,45.4-21.52
		c34.33-1.05,53.84,27.11,54.9,28.69c-5.69-2.74-13.92-5.5-22.17-3.07c-10.48,3.08-13.98,12.48-26.39,26.64
		C750.87,839.09,743.33,846.82,732.64,854.91z"/>
</g>
<g>
	<path class="st7" d="M1803.17,314.19l-49.82-22.04c-4.06-1.8-5.46-5.81-3.12-8.92l3.55-4.71c2.34-3.11,7.58-4.19,11.64-2.39
		l49.82,22.04c4.06,1.8,5.46,5.81,3.12,8.92l-3.55,4.71C1812.47,314.91,1807.23,315.98,1803.17,314.19z"/>
	<g>
		<path class="st7" d="M1736.72,284.01c4.26-4.35,5.74-6.2,11.26-9.92c5.21-3.51,14.36-5.54,18.31-1.17
			c2.73,3.03,1.02,7.14-0.78,10.55c-8.05,15.31-16.1,30.62-24.15,45.93c-3.22,6.12-6.48,12.39-6.92,18.98
			c-0.44,6.59,2.44,13.69,9.41,17.57c9.24,5.14,22.84,2.98,31.65-2.6c8.81-5.57,13.95-13.76,18.82-21.67
			c7.44-12.08,14.87-24.16,22.31-36.23c2.05-3.33,4.92-7.12,9.7-7.45c4.4-0.31,8.23,2.77,9.18,6.08c0.95,3.31-0.23,6.73-1.49,9.98
			c-7.57,19.5-18.05,38.34-31.18,56.03c-5.17,6.96-10.99,13.95-19.65,18.44c-11.64,6.03-26.52,6.64-40.56,7.04
			c-7.79,0.22-17.66-0.6-20.08-6.27c-1.4-3.3,0.56-6.93-0.2-10.36c-0.79-3.57-4.35-6.33-6.95-9.35c-7.49-8.73-7.1-20.05-5.01-30.37
			c3.93-19.43,12.95-38.25,26.36-55.01"/>
	</g>
	<path class="st8" d="M1557.91,725.76l27.32,7.23c59.47-114.42,118.93-228.84,178.4-343.26c-13.26-3.66-26.52-7.31-39.78-10.97
		C1668.53,494.42,1613.22,610.09,1557.91,725.76z"/>
</g>
<path class="st7" d="M1521.1,686.97c-37.44,74.97-40.58,147.87-6.32,164.87c34.25,16.99,93.3-28.17,134-101.52L1521.1,686.97z"/>
<g>
	<path class="st0" d="M1459.83,755.88c6.38,16.11,25.5,24.01,43.21,25.48c17.72,1.47,35.65-1.7,53.29,0.46
		c18.63,2.28,36.4,10.67,49.76,23.47c8.07,7.74,14.5,16.96,22.66,24.61c8.16,7.65,18.79,13.83,30.11,13.22
		c-11.71,15.09-23.42,30.18-35.14,45.27c-5.6,7.22-12.01,14.95-21.13,16.74c-5.2,1.02-10.57-0.08-15.75-1.21
		c-47.39-10.36-94.1-23.67-139.74-39.81c-6.78-2.4-14.34-5.63-16.62-12.28c-1.61-4.69-0.07-9.79,1.48-14.5
		c8.5-25.82,17.39-51.53,26.65-77.1"/>
</g>
<g>
	<g>
		<path class="st9" d="M1453.76,306.96c-363.4,0.35-726.8,0.7-1090.2,1.05c40.38-31.55,80.76-63.1,121.13-94.65
			c285.34,1.75,570.67,3.5,856.01,5.26C1378.39,248.07,1416.07,277.51,1453.76,306.96z"/>
		<path class="st10" d="M1399.92,299.6c-327.51,1.05-655.02,2.1-982.53,3.16c26.92-28.39,53.84-56.79,80.76-85.18
			c276.36,1.75,552.73,3.5,829.09,5.26C1351.47,248.41,1375.69,274,1399.92,299.6z"/>
		<path class="st11" d="M1351.47,219.67c-294.31-1.75-588.62-3.5-882.93-5.26c-30.51-47.67-61.01-95.35-91.52-143.02
			c359.81,0,719.62,0,1079.43,0C1421.46,120.82,1386.46,170.24,1351.47,219.67z"/>
		
			<linearGradient id="SVGID_1_" gradientUnits="userSpaceOnUse" x1="920.4026" y1="1927.4926" x2="916.5123" y2="2081.4578" gradientTransform="matrix(1 0 0 -1 0 2160)">
			<stop  offset="0" style="stop-color:#582712"/>
			<stop  offset="0.5753" style="stop-color:#2B120A"/>
			<stop  offset="0.8433" style="stop-color:#110603"/>
		</linearGradient>
		<path class="st12" d="M1305.71,189.17c-270.08,0.35-540.16,0.7-810.25,1.05c-17.05-34.35-34.1-68.71-51.15-103.06h944.84
			C1361.34,121.17,1333.52,155.17,1305.71,189.17z"/>
		<path class="st13" d="M377.02,71.39c18.85,0,37.69,0,56.53,0c5.38,8.41,10.77,16.83,16.15,25.24h-56.53
			C387.78,88.22,382.4,79.8,377.02,71.39z"/>
		<path class="st13" d="M1456.45,71.39c-18.85,0-37.69,0-56.53,0c-5.38,8.41-10.77,16.83-16.15,25.24h56.53
			C1445.68,88.22,1451.07,79.8,1456.45,71.39z"/>
		<g>
			<path class="st14" d="M475.1,299.63c-4.38-11.14,8.75-23.06,32.48-29.48c6.3-1.7,13.29-3.06,18.76-5.15
				c4.75-1.81,8.12-4.1,12.28-6.13c10.65-5.19,26.02-8.49,40.98-11.66c49.81-10.56,101.6-21.34,158.13-22.86
				c6.45-0.17,13.01-0.23,19.16-1c9.21-1.16,16.6-3.81,24.84-5.78c17.63-4.22,40.02-5.27,59.7-2.8c4.19,0.52,8.42,1.21,12.82,1.11
				c4.74-0.1,9-1.1,13.1-2.03c24.32-5.54,51.04-9.94,79.13-10.64s57.78,2.71,76.86,10.8c7.12,3.02,13.11,6.75,22.82,8.33
				c32.3,5.23,63.19-17.47,94.96-11.76c11.02,1.98,16.55,6.76,25.15,10.09c27.09,10.49,77.82,4.89,105.65,15.08
				c9.96,3.65,15.24,8.77,22.12,13.37c26.24,17.57,66.8,30.69,78.97,50.47c-303.44,3.17-598.43,7.61-901.77,3.16"/>
		</g>
		<g>
			<rect x="387.78" y="41.83" class="st15" width="1071.36" height="29.45"/>
			<rect x="377.02" y="39.73" class="st16" width="113.06" height="32.6"/>
			<rect x="1346.08" y="40.78" class="st16" width="113.06" height="32.6"/>
			<path class="st17" d="M1244.25,76.53h-22.44c-1.23,0-2.24-0.51-2.24-1.14V37.72c0-0.63,1.01-1.14,2.24-1.14h22.44
				c1.23,0,2.24,0.51,2.24,1.14v37.67C1246.49,76.02,1245.48,76.53,1244.25,76.53z"/>
			<path class="st18" d="M923.47,28.16h-13.46c-17.76,0-32.3,5.68-32.3,12.62v38.91c0,6.94,14.54,12.62,32.3,12.62h13.46
				c17.76,0,32.3-5.68,32.3-12.62V40.78C955.77,33.84,941.23,28.16,923.47,28.16z M936.93,51.29c0,4.62-9.69,8.41-21.53,8.41
				c-11.85,0-21.53-3.79-21.53-8.41v-8.41c0-4.62,9.69-8.41,21.53-8.41c11.85,0,21.53,3.79,21.53,8.41V51.29z"/>
			<ellipse class="st19" cx="915.39" cy="71.28" rx="16.15" ry="6.31"/>
			<path class="st17" d="M676.27,76.53h-22.44c-1.23,0-2.24-0.51-2.24-1.14V37.72c0-0.63,1.01-1.14,2.24-1.14h22.44
				c1.23,0,2.24,0.51,2.24,1.14v37.67C678.51,76.02,677.5,76.53,676.27,76.53z"/>
		</g>
	</g>
	<path class="st20" d="M503.54,763.04H280.11c25.12-33.27,50.25-66.54,75.37-99.8c28.71,0,57.43,0,86.14,0
		C462.26,696.51,482.9,729.77,503.54,763.04z"/>
	<path class="st20" d="M1504.91,753.54h-223.43c25.12-33.27,50.25-66.54,75.37-99.8c28.71,0,57.43,0,86.14,0
		C1463.63,687.01,1484.27,720.28,1504.91,753.54z"/>
	<rect x="390.48" y="356.72" class="st21" width="1044.44" height="346.92"/>
	<path class="st20" d="M1469.91,304.44c-42.17,0-84.35,0-126.52,0v2.64c-331.1,0.7-662.2,1.41-993.29,2.11c0,0.79,0,1.58,0,2.37
		c0,28.51,0,57.03,0,85.54v323.16h102.29v-330.3c51.51-3.59,103.55-6.76,156.13-9.48c254.85-13.19,500.14-14.67,734.88-7.17v349.34
		h107.67c5.17-114.86,10.35-229.71,15.52-344.57c0.21,0.01,0.42,0.01,0.63,0.02c0.9-23.76,1.79-47.52,2.69-71.28
		c-0.03,0-0.07,0-0.11,0C1469.84,306.03,1469.88,305.24,1469.91,304.44z"/>
	<ellipse class="st22" cx="413.36" cy="405.43" rx="14.81" ry="13.07"/>
	<ellipse class="st22" cx="413.36" cy="519.48" rx="14.81" ry="13.07"/>
	<ellipse class="st22" cx="413.36" cy="654.93" rx="14.81" ry="13.07"/>
	<ellipse class="st22" cx="1379.73" cy="393.55" rx="14.81" ry="13.07"/>
	<ellipse class="st22" cx="1379.73" cy="507.6" rx="14.81" ry="13.07"/>
	<ellipse class="st22" cx="1379.73" cy="643.05" rx="14.81" ry="13.07"/>
	<path class="st22" d="M576.22,359.09H401.24c-1.48,0-2.69-1.39-2.69-3.1v-22.31c0-1.71,1.21-3.1,2.69-3.1h174.98
		c1.48,0,2.69,1.39,2.69,3.1v22.31C578.91,357.7,577.7,359.09,576.22,359.09z"/>
	<line class="st23" x1="452.39" y1="481.39" x2="1346.08" y2="481.39"/>
	<line class="st23" x1="452.39" y1="585.74" x2="1343.39" y2="585.74"/>
	<path class="st24" d="M1101.52,703.65c-70.49-0.82-140.97-1.36-211.45-1.62c-64.81-0.24-129.63-0.23-194.45,0
		c0.26-116.9,0.53-233.8,0.79-350.71c135.56-1,271.12-2.01,406.69-3.02C1102.58,466.75,1102.04,585.2,1101.52,703.65z"/>
</g>
<g>
	<path class="st25" d="M405.37,762.7c-83.75-1.71-167.51-3.42-251.26-5.12c2.32-5.48,6.26-13.65,12.67-22.54
		c15.84-21.97,27.73-21.95,44.34-42.01c17.84-21.54,11.27-30.19,25.34-37.91c14.42-7.92,24.23-0.44,45.4-10.25
		c13.06-6.05,13.93-11.04,22.17-14.34c11.85-4.76,32.29-3.39,69.68,26.64c8.12,3.76,18.22,10.03,26.39,20.49
		C427.16,712.34,406.76,759.59,405.37,762.7z"/>
	<path class="st26" d="M404.31,762.7c-36.95-0.68-73.9-1.37-110.85-2.05c0.35-5.93,1.55-14.27,5.28-23.57
		c4.93-12.29,12.07-20.75,16.89-25.61c9.22-5.53,22.51-11.38,38.01-10.25c17.43,1.27,26.88,10.58,35.89,6.15
		c5.05-2.48,10.34-9.45,10.56-29.71c4.73,7.31,16.39,27.58,13.72,54.3C412.48,745.34,407.99,755.86,404.31,762.7z"/>
</g>
<g>
	<path class="st26" d="M539.44,811.88c-9.69,3.27-23.42,6.71-40.12,7.17c-24.94,0.69-44.61-5.62-55.95-10.25
		c-10.91-23.22-21.82-46.45-32.73-69.67c46.8,4.78,93.61,9.56,140.41,14.34c4.54,6.26,10.71,15.91,15.84,28.69
		c4.86,12.12,7.6,19.22,4.22,24.59C566.77,813.67,553.8,815.27,539.44,811.88z"/>
	<path class="st6" d="M443.37,808.8c-9.44-7.62-23.1-16.87-41.17-23.57c-24.25-8.98-38.51-6.7-42.23-14.34
		c-3.56-7.32,3.22-22.33,44.34-55.33c10.94-5.26,21.03-7.92,29.56-9.22c60.38-9.24,109.19,38.99,117.18,47.13
		c-8.01-1-19.22-2.21-32.73-3.07c-19.52-1.25-23.65-0.48-27.45,1.02c-8.44,3.35-12.08,9.08-23.23,24.59
		C462.28,783.49,454.04,794.81,443.37,808.8z"/>
</g>
<g>
	<path class="st27" d="M1317.5,702.25c-10.9,9.42-27.71,21.93-50.67,31.76c-6.71,2.88-25.38,11.62-70.73,16.39
		c-23.48,2.47-54.67,4.85-91.85,5.12c-1.15-5.37-2.22-13.26-1.06-22.54c1.97-15.71,9.18-26.16,12.91-32.6
		c6.86-11.87,13.63-30.47,12.43-59.61c21.47-10.59,42.93-21.17,64.4-31.76C1234.46,640.09,1275.98,671.17,1317.5,702.25z"/>
	<path class="st28" d="M1104.25,755.52c-20.32-1.66-46.91-6.08-76.01-17.42c-14.63-5.7-27.3-12.14-38.01-18.44
		c3.61-3.78,9.59-9.55,17.95-15.37c15.24-10.62,21.38-9.56,29.56-18.44c7.97-8.66,5.66-13.49,13.72-25.61
		c7.04-10.59,15.76-17.38,22.17-21.52c17.41-13.64,33.73-21.78,45.4-26.64c18.48-7.7,35-14.33,54.9-10.25
		c8.29,1.7,14.74,4.76,19,7.17c-12.2,3.5-29.16,10.5-36.95,25.61c-9.13,17.73,3.5,28.82-5.28,48.16c-9.3,20.48-28.45,19-40.12,42.01
		C1104.67,736.44,1103.98,747.89,1104.25,755.52z"/>
</g>
<g>
	<path class="st29" d="M1433.63,765.77c-1.35,4.89-7.8,11.62-64.4,17.42c-29.24,3-53.62,3.87-70.73,4.1
		c-5.11-11.09-14.41-35.25-11.61-66.6c2.98-33.39,18.05-56.7,25.34-66.6c7.82,2.18,20.23,6.7,32.73,16.39
		c9.72,7.54,16.1,15.59,20.06,21.52c11.71,10.06,28.35,24.91,47.51,44.06C1431.04,754.56,1435.14,760.32,1433.63,765.77z"/>
	<path class="st28" d="M1298.5,787.29c-10.55-0.81-23.11-2.57-36.95-6.15c-16.63-4.3-30.45-10.03-41.17-15.37
		c3.21-13.85,8.59-31.26,17.95-50.21c8.85-17.92,18.78-32.23,27.45-43.03c4.17-4.32,13.25-12.5,27.45-16.39
		c7.51-2.06,14.17-2.29,19-2.05c3.08,7.47,5.95,18.08,1.06,26.64c-4.01,7.02-10.32,7.54-15.84,14.34
		c-6.74,8.33-6.25,18.59-5.28,31.76C1293.49,744.67,1295.47,764.93,1298.5,787.29z"/>
</g>
<g>
	<g>
		<g>
			<path class="st22" d="M607.14,958.18c-2.8,0-5.32-0.93-7.49-2.78c-2.23-1.66-3.88-3.84-4.92-6.51c-0.88-2.45-0.6-4.84,0.77-6.98
				c1.33-2.08,3.26-3.18,5.58-3.18c0.15,0,0.3,0,0.46,0.01h11.94c1.17-0.13,1.54-0.41,1.61-0.47c0.06-0.05,0.21-0.34,0.21-1.04
				v-30.62h-40.38c-0.22,0-0.3,0.04-0.3,0.04l0,0c0.01,0-0.03,0.08-0.06,0.23c-1.85,17.83-5.72,32.62-11.53,43.96
				c-1.17,2.33-3.19,3.88-5.84,4.46c-0.72,0.16-1.44,0.24-2.13,0.24c-1.8,0-3.49-0.53-5.03-1.57c-2.24-1.31-3.71-3.26-4.37-5.82
				c-0.31-0.95-0.47-1.93-0.47-2.9c0-1.45,0.32-2.91,0.95-4.33c7.28-14.7,10.96-36.61,10.96-65.2V847.3c-0.02,0-0.03,0-0.04,0
				c-1.1,0-2.14-0.48-3.08-1.42c-1.47-1.34-3.02-2.7-4.55-3.98c-2.16-1.69-3.45-3.98-3.81-6.78c-0.15-0.52-0.23-1.06-0.23-1.59
				c0-2.26,0.73-4.37,2.16-6.28c9.32-12.38,16.77-28.07,22.14-46.62c0.78-2.81,2.45-5.04,4.96-6.61c1.74-1.11,3.68-1.67,5.75-1.67
				c0.85,0,1.7,0.16,2.54,0.47c2.82,0.66,4.97,2.21,6.4,4.6c0.97,1.61,1.46,3.34,1.46,5.13c0,0.99-0.17,1.99-0.49,2.97
				c-0.36,1.17-0.74,2.33-1.12,3.42h18.25c0.66-0.19,1.31-0.28,1.95-0.28c1.32,0,2.57,0.4,3.72,1.18l3.31,1.95l0.05,0.03
				c1.93,1.29,3.28,3.05,4.01,5.23c0.73,2.2,0.69,4.4-0.13,6.53c-2.47,5.93-5.25,11.9-8.28,17.79h7.58c4.19,0,7.76,1.48,10.61,4.41
				c2.48,2.54,3.89,5.55,4.21,8.95c7.15-3.63,12.68-8.23,16.45-13.67c3.98-5.76,6.9-12.72,8.67-20.69h-14.74
				c-2.63,0-4.91-0.95-6.79-2.83c-1.88-1.87-2.83-4.19-2.83-6.88s0.95-5,2.83-6.88s4.16-2.83,6.79-2.83h62.3
				c5.23,0,9.72,1.92,13.36,5.69c3.35,3.5,5.05,7.65,5.05,12.32v1.08c-0.65,12.53-1.52,21.97-2.56,28.07
				c-1.12,6.49-2.68,10.8-4.76,13.19c-2.74,3.46-7.06,5.62-12.78,6.33c-2.31,0.27-5.52,0.41-9.82,0.41h-2.54
				c-0.59,0-1.16-0.04-1.73-0.13c0.23,0.19,0.45,0.39,0.67,0.6c2.16,2.08,3.25,4.67,3.25,7.69v8.35h22.61
				c2.75,0,5.13,0.99,7.08,2.93c1.94,1.94,2.93,4.33,2.93,7.08s-0.99,5.13-2.93,7.08c-1.94,1.94-4.33,2.93-7.08,2.93H695.3v17.68
				h26.32c2.75,0,5.13,0.99,7.08,2.93c1.94,1.94,2.93,4.33,2.93,7.08c0,2.74-0.98,5.14-2.9,7.15c-1.94,2.03-4.33,3.06-7.11,3.06
				H695.3v24.37c0,2.88-1.08,5.43-3.22,7.57c-2.14,2.14-4.72,3.22-7.66,3.22c-2.96,0-5.52-1.09-7.59-3.25
				c-2.06-2.13-3.1-4.67-3.1-7.54v-24.37h-29.67c-2.77,0-5.16-1.03-7.11-3.06c-1.14-1.19-1.95-2.51-2.42-3.97v22.02
				c0,8.95-2.65,14.93-7.88,17.77l-0.08,0.04l-0.09,0.04c-3.91,1.67-10.15,2.62-19.09,2.89h-0.03h-0.21V958.18z M634.53,909.07
				c0.47-1.45,1.29-2.76,2.45-3.92c1.94-1.94,4.33-2.93,7.08-2.93h29.64v-17.68h-15.77c-0.56,0-0.73,0.17-0.91,0.57
				c-1.31,3.27-2.86,6.45-4.6,9.39c-1.28,2.39-3.28,3.98-5.93,4.63l-0.08,0.02l-0.08,0.01c-0.88,0.15-1.72,0.22-2.48,0.22
				c-1.75,0-3.43-0.4-5-1.19l-0.09-0.05c-2.07-1.18-3.49-2.86-4.24-4.99L634.53,909.07L634.53,909.07z M615.29,888.36v-16.12h-11.04
				v16.12H615.29z M587.17,888.36v-16.12h-11.23v16.12H587.17z M634.53,886.42c0.16-0.38,0.34-0.76,0.55-1.14
				c4.58-8.02,8.33-17.84,11.13-29.19c0.65-2.59,2.12-4.63,4.38-6.08c1.63-1.05,3.39-1.58,5.22-1.58c0.7,0,1.43,0.08,2.15,0.24
				c2.6,0.57,4.66,1.97,6.12,4.17c1.48,2.23,1.91,4.76,1.26,7.52c-0.3,1.32-0.66,2.72-1.06,4.18h9.42v-8.35
				c0-3.01,1.05-5.59,3.13-7.66c2.07-2.07,4.62-3.13,7.57-3.13c0.63,0,1.23,0.05,1.83,0.14c-0.14-0.12-0.28-0.24-0.42-0.36
				c-2.04-1.82-3.46-4.11-4.21-6.82c-0.54-2.34-0.11-4.49,1.26-6.46c1.33-1.91,3.24-2.92,5.51-2.92c0.19,0,0.37,0.01,0.56,0.02
				c2.38,0.13,5.1,0.19,8.06,0.19h0.1c0.2,0.01,0.4,0.01,0.59,0.01c1.59,0,2.67-0.34,3.21-1.03l0.06-0.08
				c0.8-0.9,2.78-5.41,3.98-27.77l-23.78,0.05c-0.22,0-0.3,0.04-0.3,0.04l0,0c0.01,0-0.04,0.1-0.08,0.31
				c-1.85,10.03-4.88,18.91-9,26.36c-4.16,7.52-10.14,14.11-17.77,19.6l-0.07,0.05l-0.08,0.05c-2.32,1.36-4.69,2.05-7.05,2.05
				c-0.22,0-0.44-0.01-0.67-0.02c-1.22-0.01-2.51-0.23-3.84-0.67c-2.79-0.76-5.39-2.13-7.78-4.08v42.36H634.53z M615.29,854.37
				v-14.94h-11.04v14.95h11.04V854.37z M587.17,854.37v-14.94h-11.23v14.95h11.23V854.37z M590.93,821.36
				c0.51,0,0.71-0.12,0.91-0.57c1.69-3.75,3.53-8.25,5.46-13.4h-14.57c-0.56,0-0.73,0.17-0.91,0.57c-2.11,5.05-4.17,9.56-6.1,13.4
				H590.93z"/>
			<path class="st30" d="M607.14,958.18c-2.8,0-5.32-0.93-7.49-2.78c-2.23-1.66-3.88-3.84-4.92-6.51c-0.88-2.45-0.6-4.84,0.77-6.98
				c1.33-2.08,3.26-3.18,5.58-3.18c0.15,0,0.3,0,0.46,0.01h11.94c1.17-0.13,1.54-0.41,1.61-0.47c0.06-0.05,0.21-0.34,0.21-1.04
				v-30.62h-40.38c-0.22,0-0.3,0.04-0.3,0.04l0,0c0.01,0-0.03,0.08-0.06,0.23c-1.85,17.83-5.72,32.62-11.53,43.96
				c-1.17,2.33-3.19,3.88-5.84,4.46c-0.72,0.16-1.44,0.24-2.13,0.24c-1.8,0-3.49-0.53-5.03-1.57c-2.24-1.31-3.71-3.26-4.37-5.82
				c-0.31-0.95-0.47-1.93-0.47-2.9c0-1.45,0.32-2.91,0.95-4.33c7.28-14.7,10.96-36.61,10.96-65.2V847.3c-0.02,0-0.03,0-0.04,0
				c-1.1,0-2.14-0.48-3.08-1.42c-1.47-1.34-3.02-2.7-4.55-3.98c-2.16-1.69-3.45-3.98-3.81-6.78c-0.15-0.52-0.23-1.06-0.23-1.59
				c0-2.26,0.73-4.37,2.16-6.28c9.32-12.38,16.77-28.07,22.14-46.62c0.78-2.81,2.45-5.04,4.96-6.61c1.74-1.11,3.68-1.67,5.75-1.67
				c0.85,0,1.7,0.16,2.54,0.47c2.82,0.66,4.97,2.21,6.4,4.6c0.97,1.61,1.46,3.34,1.46,5.13c0,0.99-0.17,1.99-0.49,2.97
				c-0.36,1.17-0.74,2.33-1.12,3.42h18.25c0.66-0.19,1.31-0.28,1.95-0.28c1.32,0,2.57,0.4,3.72,1.18l3.31,1.95l0.05,0.03
				c1.93,1.29,3.28,3.05,4.01,5.23c0.73,2.2,0.69,4.4-0.13,6.53c-2.47,5.93-5.25,11.9-8.28,17.79h7.58c4.19,0,7.76,1.48,10.61,4.41
				c2.48,2.54,3.89,5.55,4.21,8.95c7.15-3.63,12.68-8.23,16.45-13.67c3.98-5.76,6.9-12.72,8.67-20.69h-14.74
				c-2.63,0-4.91-0.95-6.79-2.83c-1.88-1.87-2.83-4.19-2.83-6.88s0.95-5,2.83-6.88s4.16-2.83,6.79-2.83h62.3
				c5.23,0,9.72,1.92,13.36,5.69c3.35,3.5,5.05,7.65,5.05,12.32v1.08c-0.65,12.53-1.52,21.97-2.56,28.07
				c-1.12,6.49-2.68,10.8-4.76,13.19c-2.74,3.46-7.06,5.62-12.78,6.33c-2.31,0.27-5.52,0.41-9.82,0.41h-2.54
				c-0.59,0-1.16-0.04-1.73-0.13c0.23,0.19,0.45,0.39,0.67,0.6c2.16,2.08,3.25,4.67,3.25,7.69v8.35h22.61
				c2.75,0,5.13,0.99,7.08,2.93c1.94,1.94,2.93,4.33,2.93,7.08s-0.99,5.13-2.93,7.08c-1.94,1.94-4.33,2.93-7.08,2.93H695.3v17.68
				h26.32c2.75,0,5.13,0.99,7.08,2.93c1.94,1.94,2.93,4.33,2.93,7.08c0,2.74-0.98,5.14-2.9,7.15c-1.94,2.03-4.33,3.06-7.11,3.06
				H695.3v24.37c0,2.88-1.08,5.43-3.22,7.57c-2.14,2.14-4.72,3.22-7.66,3.22c-2.96,0-5.52-1.09-7.59-3.25
				c-2.06-2.13-3.1-4.67-3.1-7.54v-24.37h-29.67c-2.77,0-5.16-1.03-7.11-3.06c-1.14-1.19-1.95-2.51-2.42-3.97v22.02
				c0,8.95-2.65,14.93-7.88,17.77l-0.08,0.04l-0.09,0.04c-3.91,1.67-10.15,2.62-19.09,2.89h-0.03h-0.21V958.18z M634.53,909.07
				c0.47-1.45,1.29-2.76,2.45-3.92c1.94-1.94,4.33-2.93,7.08-2.93h29.64v-17.68h-15.77c-0.56,0-0.73,0.17-0.91,0.57
				c-1.31,3.27-2.86,6.45-4.6,9.39c-1.28,2.39-3.28,3.98-5.93,4.63l-0.08,0.02l-0.08,0.01c-0.88,0.15-1.72,0.22-2.48,0.22
				c-1.75,0-3.43-0.4-5-1.19l-0.09-0.05c-2.07-1.18-3.49-2.86-4.24-4.99L634.53,909.07L634.53,909.07z M615.29,888.36v-16.12h-11.04
				v16.12H615.29z M587.17,888.36v-16.12h-11.23v16.12H587.17z M634.53,886.42c0.16-0.38,0.34-0.76,0.55-1.14
				c4.58-8.02,8.33-17.84,11.13-29.19c0.65-2.59,2.12-4.63,4.38-6.08c1.63-1.05,3.39-1.58,5.22-1.58c0.7,0,1.43,0.08,2.15,0.24
				c2.6,0.57,4.66,1.97,6.12,4.17c1.48,2.23,1.91,4.76,1.26,7.52c-0.3,1.32-0.66,2.72-1.06,4.18h9.42v-8.35
				c0-3.01,1.05-5.59,3.13-7.66c2.07-2.07,4.62-3.13,7.57-3.13c0.63,0,1.23,0.05,1.83,0.14c-0.14-0.12-0.28-0.24-0.42-0.36
				c-2.04-1.82-3.46-4.11-4.21-6.82c-0.54-2.34-0.11-4.49,1.26-6.46c1.33-1.91,3.24-2.92,5.51-2.92c0.19,0,0.37,0.01,0.56,0.02
				c2.38,0.13,5.1,0.19,8.06,0.19h0.1c0.2,0.01,0.4,0.01,0.59,0.01c1.59,0,2.67-0.34,3.21-1.03l0.06-0.08
				c0.8-0.9,2.78-5.41,3.98-27.77l-23.78,0.05c-0.22,0-0.3,0.04-0.3,0.04l0,0c0.01,0-0.04,0.1-0.08,0.31
				c-1.85,10.03-4.88,18.91-9,26.36c-4.16,7.52-10.14,14.11-17.77,19.6l-0.07,0.05l-0.08,0.05c-2.32,1.36-4.69,2.05-7.05,2.05
				c-0.22,0-0.44-0.01-0.67-0.02c-1.22-0.01-2.51-0.23-3.84-0.67c-2.79-0.76-5.39-2.13-7.78-4.08v42.36H634.53z M615.29,854.37
				v-14.94h-11.04v14.95h11.04V854.37z M587.17,854.37v-14.94h-11.23v14.95h11.23V854.37z M590.93,821.36
				c0.51,0,0.71-0.12,0.91-0.57c1.69-3.75,3.53-8.25,5.46-13.4h-14.57c-0.56,0-0.73,0.17-0.91,0.57c-2.11,5.05-4.17,9.56-6.1,13.4
				H590.93z"/>
		</g>
		<g>
			<path class="st22" d="M825.1,956.22c-0.96,0-1.92-0.16-2.88-0.46c-2.72-0.63-5.09-2.08-7.03-4.33c-1.35-1.52-2.05-3.28-2.05-5.21
				c0-0.71,0.09-1.28,0.27-1.77c0.45-2.12,1.5-3.83,3.14-5.09c-14.99,3.33-34.17,7.34-57.07,11.95c-0.81,0.16-1.51,0.23-2.15,0.23
				c-2.07,0-4.01-0.56-5.76-1.68c-2.54-1.58-4.15-3.85-4.79-6.73c-0.16-0.81-0.24-1.6-0.24-2.38c0-1.94,0.56-3.81,1.68-5.57
				c1.63-2.46,3.92-3.93,6.83-4.42c7.27-1.17,14.28-2.41,20.84-3.7l0.09-0.02c0,0,0.2-0.02,0.24-0.03c0-0.04,0.01-0.08,0.01-0.14
				v-52.69h-19.09c-2.76,0-5.17-1.02-7.18-3.03c-2.01-2-3.03-4.42-3.03-7.17c0-2.77,1.03-5.16,3.06-7.11c2-1.92,4.41-2.9,7.15-2.9
				h19.09v-14.16h-9.33c-2.77,0-5.13-1-7.01-2.96c-1.2-1.25-2.02-2.69-2.45-4.28c-1.16,0.55-2.41,0.82-3.76,0.82
				c-0.22,0-0.45-0.01-0.67-0.02c-2.52-0.16-4.7-1.22-6.48-3.14c-0.13-0.13-0.26-0.26-0.39-0.39c-1.93-1.93-2.91-4.31-2.91-7.06
				c0-2.78,1.01-5.12,2.99-6.94c10.67-10.42,19.54-22.72,26.31-36.52c1.18-2.52,2.97-4.57,5.3-6.07c2.34-1.51,4.91-2.27,7.63-2.27
				c5.99,0.14,11.1,2.16,15.23,6c8.59,7.68,16.01,15.1,22.02,22.03c2.01,2.32,3.03,5.06,3.03,8.15c0,3.35-1.15,6.36-3.43,8.94
				c-1.8,2.12-4.09,3.22-6.77,3.22h-0.69c-2.96-0.16-5.37-1.49-7.17-3.94c-6-7.87-12.47-15.19-19.23-21.75
				c-5.91,9.72-12.2,18.56-18.74,26.38h39.19c2.73,0,5.1,0.94,7.05,2.8c1.97,1.88,2.96,4.24,2.96,7.01c0,2.75-0.99,5.13-2.93,7.08
				c-1.94,1.94-4.33,2.93-7.08,2.93h-12.45v14.16h16.95c2.75,0,5.13,0.99,7.08,2.93c1.94,1.94,2.93,4.33,2.93,7.08
				c0,2.74-0.98,5.14-2.9,7.15c-1.94,2.03-4.33,3.06-7.11,3.06h-16.95v49.09c2.43-0.39,5.96-1.06,10.49-1.98
				c4.78-0.97,7.45-1.52,7.92-1.64l0.12-0.03c0.6-0.11,1.2-0.17,1.78-0.17c1.98,0,3.82,0.64,5.47,1.92
				c2.28,1.63,3.52,4.15,3.52,7.25c0,2.39-0.73,4.56-2.16,6.47c-0.17,0.22-0.34,0.43-0.52,0.63c7.63-4.24,14.5-8.77,20.53-13.55
				c2.39-1.94,5.15-3.01,8.17-3.16h1.08c2.57,0,5.02,0.69,7.28,2.04l0.11,0.07c2.61,1.8,3.99,4.46,3.99,7.7
				c0,2.69-1.15,4.99-3.32,6.66c-8.77,6.93-19,13.44-30.38,19.33C828.83,955.75,827.01,956.22,825.1,956.22z M915.58,955.05
				l-0.15-0.02c-3-0.45-5.66-1.74-7.9-3.84c-5.57-5.57-12.02-11.3-19.22-17.09c-2-1.5-3.09-3.67-3.09-6.25
				c0-2.73,1.18-4.99,3.4-6.53c2.25-1.65,4.88-2.5,7.78-2.5c2.92,0,5.5,0.87,7.68,2.58c8.05,5.97,15.33,11.93,21.6,17.68
				c1.93,1.6,2.99,3.83,2.99,6.36c0,3.58-1.57,6.35-4.54,8c-2.18,1.09-4.39,1.62-6.64,1.62L915.58,955.05L915.58,955.05z
				 M764.38,921.23c-1.61,0-3.12-0.51-4.51-1.52c-1.89-1.38-2.99-3.3-3.16-5.57c-0.89-7.07-2.45-14.93-4.63-23.28
				c-0.17-0.69-0.26-1.38-0.26-2.07c0-1.39,0.41-2.77,1.23-4.11c1.05-2.04,2.78-3.38,5.01-3.9c0.68-0.16,1.36-0.24,2.03-0.24
				c1.46,0,2.89,0.37,4.25,1.11c2.03,1.1,3.4,2.78,4.08,4.98c2.37,8.28,4.09,16.25,5.15,23.75c0.33,2.32-0.21,4.53-1.6,6.58
				c-1.38,2.03-3.31,3.39-5.73,4.03C765.57,921.16,764.96,921.23,764.38,921.23z M848.35,918.33c-5.22,0-9.73-1.87-13.43-5.57
				c-3.69-3.69-5.57-8.21-5.57-13.43v-62.1c0-5.36,1.92-9.92,5.69-13.55c3.76-3.61,8.23-5.44,13.3-5.44h15.19v-36.67
				c0-2.88,1.05-5.4,3.13-7.47c2.07-2.07,4.62-3.13,7.57-3.13c2.96,0,5.48,1.06,7.49,3.15c1.99,2.08,3,4.58,3,7.44v36.67h17.53
				c5.21,0,9.72,1.83,13.41,5.45c3.7,3.63,5.58,8.19,5.58,13.54v62.11c0,5.21-1.87,9.73-5.57,13.43c-3.69,3.69-8.21,5.57-13.43,5.57
				L848.35,918.33L848.35,918.33z M899.28,900.47v-10.26h-48.93v10.26H899.28z M899.28,873.32v-10.26h-48.93v10.26H899.28z
				 M899.28,845.97v-9.87h-48.93v9.87H899.28z M806.95,917.75c-0.68,0-1.37-0.09-2.05-0.25c-2.21-0.51-3.94-1.87-4.99-3.92
				c-0.68-1.2-1.02-2.5-1.02-3.88c0-0.69,0.09-1.38,0.26-2.05c1.94-6.97,3.56-14.2,4.85-21.54c0.51-2.54,1.92-4.49,4.09-5.68
				c1.35-0.83,2.87-1.25,4.52-1.25c0.67,0,1.35,0.08,2.04,0.25c2.51,0.67,4.4,2.1,5.65,4.26c1.24,2.16,1.54,4.51,0.88,6.98
				c-3.22,11.32-5.32,18.42-6.26,21.14c-0.54,2.21-1.91,3.91-3.96,4.94C809.64,917.41,808.29,917.75,806.95,917.75z M903.03,816.19
				c-1.38,0-2.78-0.23-4.15-0.69l-0.11-0.04c-2.53-1.01-4.23-2.84-5.07-5.44c-0.81-2.5-0.65-5,0.48-7.42
				c2.99-5.73,5.8-11.66,8.37-17.71c1.07-2.75,3.04-4.82,5.83-6.09c1.45-0.79,2.99-1.19,4.6-1.19c1.27,0,2.56,0.24,3.83,0.71
				c2.89,1.12,4.91,3.07,6.03,5.8c0.5,1.33,0.74,2.61,0.74,3.89c0,1.44-0.32,2.9-0.95,4.33l-0.05,0.1
				c-3.02,5.9-6.32,12.03-9.8,18.23c-1.44,2.4-3.5,4.07-6.16,5.01l-0.11,0.04C905.45,816.03,904.27,816.19,903.03,816.19z
				 M844.83,815.79c-1.28,0-2.57-0.24-3.83-0.71l-0.1-0.04l-0.09-0.05c-2.51-1.25-4.33-3.16-5.43-5.68
				c-2.21-5.83-4.99-11.72-8.31-17.59c-1.34-2.33-1.55-4.83-0.63-7.41c0.91-2.57,2.64-4.39,5.15-5.39c1.36-0.6,2.78-0.92,4.16-0.92
				c1.34,0,2.66,0.24,3.92,0.71c2.65,0.94,4.66,2.63,5.95,5.03c3.51,6.11,6.5,12.03,8.86,17.54c0.51,1.35,0.75,2.67,0.75,4.01
				s-0.24,2.66-0.71,3.92l-0.06,0.15c-1.26,2.67-3.25,4.58-5.93,5.68C847.39,815.54,846.14,815.79,844.83,815.79z"/>
			<path class="st30" d="M825.1,956.22c-0.96,0-1.92-0.16-2.88-0.46c-2.72-0.63-5.09-2.08-7.03-4.33c-1.35-1.52-2.05-3.28-2.05-5.21
				c0-0.71,0.09-1.28,0.27-1.77c0.45-2.12,1.5-3.83,3.14-5.09c-14.99,3.33-34.17,7.34-57.07,11.95c-0.81,0.16-1.51,0.23-2.15,0.23
				c-2.07,0-4.01-0.56-5.76-1.68c-2.54-1.58-4.15-3.85-4.79-6.73c-0.16-0.81-0.24-1.6-0.24-2.38c0-1.94,0.56-3.81,1.68-5.57
				c1.63-2.46,3.92-3.93,6.83-4.42c7.27-1.17,14.28-2.41,20.84-3.7l0.09-0.02c0,0,0.2-0.02,0.24-0.03c0-0.04,0.01-0.08,0.01-0.14
				v-52.69h-19.09c-2.76,0-5.17-1.02-7.18-3.03c-2.01-2-3.03-4.42-3.03-7.17c0-2.77,1.03-5.16,3.06-7.11c2-1.92,4.41-2.9,7.15-2.9
				h19.09v-14.16h-9.33c-2.77,0-5.13-1-7.01-2.96c-1.2-1.25-2.02-2.69-2.45-4.28c-1.16,0.55-2.41,0.82-3.76,0.82
				c-0.22,0-0.45-0.01-0.67-0.02c-2.52-0.16-4.7-1.22-6.48-3.14c-0.13-0.13-0.26-0.26-0.39-0.39c-1.93-1.93-2.91-4.31-2.91-7.06
				c0-2.78,1.01-5.12,2.99-6.94c10.67-10.42,19.54-22.72,26.31-36.52c1.18-2.52,2.97-4.57,5.3-6.07c2.34-1.51,4.91-2.27,7.63-2.27
				c5.99,0.14,11.1,2.16,15.23,6c8.59,7.68,16.01,15.1,22.02,22.03c2.01,2.32,3.03,5.06,3.03,8.15c0,3.35-1.15,6.36-3.43,8.94
				c-1.8,2.12-4.09,3.22-6.77,3.22h-0.69c-2.96-0.16-5.37-1.49-7.17-3.94c-6-7.87-12.47-15.19-19.23-21.75
				c-5.91,9.72-12.2,18.56-18.74,26.38h39.19c2.73,0,5.1,0.94,7.05,2.8c1.97,1.88,2.96,4.24,2.96,7.01c0,2.75-0.99,5.13-2.93,7.08
				c-1.94,1.94-4.33,2.93-7.08,2.93h-12.45v14.16h16.95c2.75,0,5.13,0.99,7.08,2.93c1.94,1.94,2.93,4.33,2.93,7.08
				c0,2.74-0.98,5.14-2.9,7.15c-1.94,2.03-4.33,3.06-7.11,3.06h-16.95v49.09c2.43-0.39,5.96-1.06,10.49-1.98
				c4.78-0.97,7.45-1.52,7.92-1.64l0.12-0.03c0.6-0.11,1.2-0.17,1.78-0.17c1.98,0,3.82,0.64,5.47,1.92
				c2.28,1.63,3.52,4.15,3.52,7.25c0,2.39-0.73,4.56-2.16,6.47c-0.17,0.22-0.34,0.43-0.52,0.63c7.63-4.24,14.5-8.77,20.53-13.55
				c2.39-1.94,5.15-3.01,8.17-3.16h1.08c2.57,0,5.02,0.69,7.28,2.04l0.11,0.07c2.61,1.8,3.99,4.46,3.99,7.7
				c0,2.69-1.15,4.99-3.32,6.66c-8.77,6.93-19,13.44-30.38,19.33C828.83,955.75,827.01,956.22,825.1,956.22z M915.58,955.05
				l-0.15-0.02c-3-0.45-5.66-1.74-7.9-3.84c-5.57-5.57-12.02-11.3-19.22-17.09c-2-1.5-3.09-3.67-3.09-6.25
				c0-2.73,1.18-4.99,3.4-6.53c2.25-1.65,4.88-2.5,7.78-2.5c2.92,0,5.5,0.87,7.68,2.58c8.05,5.97,15.33,11.93,21.6,17.68
				c1.93,1.6,2.99,3.83,2.99,6.36c0,3.58-1.57,6.35-4.54,8c-2.18,1.09-4.39,1.62-6.64,1.62L915.58,955.05L915.58,955.05z
				 M764.38,921.23c-1.61,0-3.12-0.51-4.51-1.52c-1.89-1.38-2.99-3.3-3.16-5.57c-0.89-7.07-2.45-14.93-4.63-23.28
				c-0.17-0.69-0.26-1.38-0.26-2.07c0-1.39,0.41-2.77,1.23-4.11c1.05-2.04,2.78-3.38,5.01-3.9c0.68-0.16,1.36-0.24,2.03-0.24
				c1.46,0,2.89,0.37,4.25,1.11c2.03,1.1,3.4,2.78,4.08,4.98c2.37,8.28,4.09,16.25,5.15,23.75c0.33,2.32-0.21,4.53-1.6,6.58
				c-1.38,2.03-3.31,3.39-5.73,4.03C765.57,921.16,764.96,921.23,764.38,921.23z M848.35,918.33c-5.22,0-9.73-1.87-13.43-5.57
				c-3.69-3.69-5.57-8.21-5.57-13.43v-62.1c0-5.36,1.92-9.92,5.69-13.55c3.76-3.61,8.23-5.44,13.3-5.44h15.19v-36.67
				c0-2.88,1.05-5.4,3.13-7.47c2.07-2.07,4.62-3.13,7.57-3.13c2.96,0,5.48,1.06,7.49,3.15c1.99,2.08,3,4.58,3,7.44v36.67h17.53
				c5.21,0,9.72,1.83,13.41,5.45c3.7,3.63,5.58,8.19,5.58,13.54v62.11c0,5.21-1.87,9.73-5.57,13.43c-3.69,3.69-8.21,5.57-13.43,5.57
				L848.35,918.33L848.35,918.33z M899.28,900.47v-10.26h-48.93v10.26H899.28z M899.28,873.32v-10.26h-48.93v10.26H899.28z
				 M899.28,845.97v-9.87h-48.93v9.87H899.28z M806.95,917.75c-0.68,0-1.37-0.09-2.05-0.25c-2.21-0.51-3.94-1.87-4.99-3.92
				c-0.68-1.2-1.02-2.5-1.02-3.88c0-0.69,0.09-1.38,0.26-2.05c1.94-6.97,3.56-14.2,4.85-21.54c0.51-2.54,1.92-4.49,4.09-5.68
				c1.35-0.83,2.87-1.25,4.52-1.25c0.67,0,1.35,0.08,2.04,0.25c2.51,0.67,4.4,2.1,5.65,4.26c1.24,2.16,1.54,4.51,0.88,6.98
				c-3.22,11.32-5.32,18.42-6.26,21.14c-0.54,2.21-1.91,3.91-3.96,4.94C809.64,917.41,808.29,917.75,806.95,917.75z M903.03,816.19
				c-1.38,0-2.78-0.23-4.15-0.69l-0.11-0.04c-2.53-1.01-4.23-2.84-5.07-5.44c-0.81-2.5-0.65-5,0.48-7.42
				c2.99-5.73,5.8-11.66,8.37-17.71c1.07-2.75,3.04-4.82,5.83-6.09c1.45-0.79,2.99-1.19,4.6-1.19c1.27,0,2.56,0.24,3.83,0.71
				c2.89,1.12,4.91,3.07,6.03,5.8c0.5,1.33,0.74,2.61,0.74,3.89c0,1.44-0.32,2.9-0.95,4.33l-0.05,0.1
				c-3.02,5.9-6.32,12.03-9.8,18.23c-1.44,2.4-3.5,4.07-6.16,5.01l-0.11,0.04C905.45,816.03,904.27,816.19,903.03,816.19z
				 M844.83,815.79c-1.28,0-2.57-0.24-3.83-0.71l-0.1-0.04l-0.09-0.05c-2.51-1.25-4.33-3.16-5.43-5.68
				c-2.21-5.83-4.99-11.72-8.31-17.59c-1.34-2.33-1.55-4.83-0.63-7.41c0.91-2.57,2.64-4.39,5.15-5.39c1.36-0.6,2.78-0.92,4.16-0.92
				c1.34,0,2.66,0.24,3.92,0.71c2.65,0.94,4.66,2.63,5.95,5.03c3.51,6.11,6.5,12.03,8.86,17.54c0.51,1.35,0.75,2.67,0.75,4.01
				s-0.24,2.66-0.71,3.92l-0.06,0.15c-1.26,2.67-3.25,4.58-5.93,5.68C847.39,815.54,846.14,815.79,844.83,815.79z"/>
		</g>
		<g>
			<path class="st22" d="M964.95,957.2c-4.61,0-8.73-2-12.24-5.94c-1.12-1.31-1.68-2.73-1.68-4.26c0-0.79,0.18-1.58,0.54-2.33
				c0.76-2.15,2.39-3.57,4.72-4.11c12.45-2.33,23.72-5.09,33.67-8.22c-4.56-0.34-8.58-2.18-11.96-5.5
				c-3.77-3.69-5.68-8.21-5.68-13.44v-30.66c0-5.21,1.87-9.73,5.57-13.43c3.69-3.69,8.28-5.57,13.62-5.57h94.73
				c5.21,0,9.73,1.87,13.43,5.57c3.7,3.7,5.57,8.21,5.57,13.43v30.66c0,5.21-1.87,9.73-5.57,13.43c-3.07,3.07-6.7,4.88-10.83,5.4
				c9.39,2.7,18.34,5.44,26.73,8.17c3.05,1.08,4.7,3.48,4.7,6.78c0,2.2-1.03,4.11-2.97,5.52c-3.48,2.46-7.22,3.7-11.14,3.7
				c-2.58,0-5.18-0.51-7.75-1.5c-12.11-4.51-25.99-9.03-41.24-13.42c-2.64-0.7-4.38-2.49-5.01-5.18c-0.33-1.41-0.27-2.73,0.17-3.92
				h-31.93c0.6,1.24,0.82,2.64,0.64,4.18c-0.35,3.03-2.01,5.19-4.8,6.24c-13.79,5.72-29.93,10.43-47.93,13.95
				C967.14,957.05,966.01,957.2,964.95,957.2z M1082.48,918.04v-4.2h-87.8v4.2H1082.48z M1082.48,899.88v-4.01h-87.8v4.01H1082.48z
				 M1082.48,881.91v-3.81h-87.8v3.81H1082.48z M963.04,862.88c-2.07,0-3.96-0.68-5.61-2.03c-1.85-1.51-2.88-3.47-3.07-5.82
				c-0.32-2.22,0.31-4.34,1.84-6.11c1.53-1.78,3.5-2.77,5.87-2.94h0.14c2.56,0,6.73-0.16,12.39-0.49
				c5.92-0.33,10.21-0.56,13.11-0.68c0.01,0,0.03,0,0.04,0v-4.59h-15.77c-1.85,0-3.47-0.69-4.83-2.05
				c-1.36-1.36-2.05-3.05-2.05-5.03s0.69-3.67,2.05-5.03c1.36-1.36,2.99-2.05,4.83-2.05h15.77v-3.81h-17.73
				c-2.1,0-3.96-0.79-5.36-2.29c-1.05-1.12-1.72-2.38-1.98-3.78c-3.24-0.16-6.11-1.47-8.53-3.89c-2.48-2.63-3.71-5.72-3.71-9.23
				v-3.32c0-4.43,1.6-8.32,4.77-11.55c3.18-3.25,7.11-4.9,11.68-4.9h58.94v-1.32c0-3.01,1.12-5.66,3.32-7.86s4.88-3.32,7.96-3.32
				c3.09,0,5.77,1.16,7.98,3.44c2.19,2.27,3.3,4.87,3.3,7.74v1.32h59.13c4.57,0,8.5,1.65,11.68,4.9c3.17,3.24,4.77,7.13,4.77,11.55
				v0.78c0,4.31-1.54,8.04-4.59,11.08c-2.97,2.97-6.59,4.51-10.76,4.59c-0.25,1.5-0.92,2.83-1.99,3.96
				c-1.43,1.52-3.23,2.29-5.36,2.29h-16.55v3.03h28.08c1.84,0,3.5,0.72,4.93,2.15c1.43,1.43,2.15,3.12,2.15,5.03
				c0,1.91-0.72,3.6-2.15,5.03c-1.42,1.43-3.08,2.15-4.93,2.15h-2.95c0.4,0.29,0.78,0.62,1.14,0.98c1.75,1.75,2.64,3.83,2.64,6.2
				v2.93c0,3.14-1.15,5.89-3.42,8.15c-2.27,2.27-5.08,3.42-8.35,3.42h-52.73c-3.42,0-6.27-1.16-8.47-3.44
				c-2.19-2.26-3.29-4.99-3.29-8.13v-3.13c0-2.36,0.85-4.42,2.54-6.1c0.33-0.33,0.67-0.62,1.02-0.88h-2.34
				c-1.98,0-3.73-0.76-5.07-2.2c-1.33-1.42-2-3.09-2-4.98c0-1.88,0.67-3.56,2-4.98c0.71-0.76,1.53-1.33,2.44-1.7
				c-0.68-1.1-1.08-2.36-1.22-3.78c-0.25-2.69,0.57-5.01,2.43-6.87c2.71-2.84,5.12-6,7.12-9.37c1.02-1.6,2.17-2.87,3.45-3.82h-76.49
				v4.79h52.88c2.1,0,3.92,0.75,5.42,2.24c1.49,1.5,2.25,3.32,2.25,5.42c0,2.11-0.76,3.93-2.25,5.42s-3.31,2.25-5.42,2.25h-16.95
				v3.81h15.19c1.98,0,3.67,0.69,5.03,2.05c1.36,1.36,2.05,3.05,2.05,5.03s-0.69,3.67-2.05,5.03c-1.36,1.36-3.05,2.05-5.03,2.05
				h-15.19v3.58l17.83-0.74c0.15-0.01,0.37-0.02,0.59-0.02c1.85,0,3.51,0.64,4.92,1.89c1.59,1.42,2.43,3.35,2.43,5.6
				c0,2.08-0.78,3.96-2.31,5.58c-1.52,1.6-3.4,2.5-5.6,2.67c-19.84,1.43-40.48,2.81-61.36,4.1
				C963.49,862.88,963.26,862.88,963.04,862.88z M1095.76,847.34V847c0-2.36,0.89-4.45,2.64-6.2c0.36-0.36,0.74-0.69,1.14-0.98
				h-14.82v7.52H1095.76z M1065.29,847.34v-7.52h-14.01c0.35,0.26,0.69,0.56,1.02,0.88c1.69,1.69,2.54,3.74,2.54,6.1v0.54
				L1065.29,847.34L1065.29,847.34z M1065.29,825.47v-3.03h-11.28c-0.74,0-1.33,0.23-1.84,0.72c-0.63,0.76-1.3,1.54-2.01,2.31
				L1065.29,825.47L1065.29,825.47z M1102.41,808.08v-5.96h-42.51c0.45,0.48,0.84,1.04,1.16,1.66c0.74,1.41,1,2.87,0.79,4.3
				L1102.41,808.08L1102.41,808.08z"/>
			<path class="st30" d="M964.95,957.2c-4.61,0-8.73-2-12.24-5.94c-1.12-1.31-1.68-2.73-1.68-4.26c0-0.79,0.18-1.58,0.54-2.33
				c0.76-2.15,2.39-3.57,4.72-4.11c12.45-2.33,23.72-5.09,33.67-8.22c-4.56-0.34-8.58-2.18-11.96-5.5
				c-3.77-3.69-5.68-8.21-5.68-13.44v-30.66c0-5.21,1.87-9.73,5.57-13.43c3.69-3.69,8.28-5.57,13.62-5.57h94.73
				c5.21,0,9.73,1.87,13.43,5.57c3.7,3.7,5.57,8.21,5.57,13.43v30.66c0,5.21-1.87,9.73-5.57,13.43c-3.07,3.07-6.7,4.88-10.83,5.4
				c9.39,2.7,18.34,5.44,26.73,8.17c3.05,1.08,4.7,3.48,4.7,6.78c0,2.2-1.03,4.11-2.97,5.52c-3.48,2.46-7.22,3.7-11.14,3.7
				c-2.58,0-5.18-0.51-7.75-1.5c-12.11-4.51-25.99-9.03-41.24-13.42c-2.64-0.7-4.38-2.49-5.01-5.18c-0.33-1.41-0.27-2.73,0.17-3.92
				h-31.93c0.6,1.24,0.82,2.64,0.64,4.18c-0.35,3.03-2.01,5.19-4.8,6.24c-13.79,5.72-29.93,10.43-47.93,13.95
				C967.14,957.05,966.01,957.2,964.95,957.2z M1082.48,918.04v-4.2h-87.8v4.2H1082.48z M1082.48,899.88v-4.01h-87.8v4.01H1082.48z
				 M1082.48,881.91v-3.81h-87.8v3.81H1082.48z M963.04,862.88c-2.07,0-3.96-0.68-5.61-2.03c-1.85-1.51-2.88-3.47-3.07-5.82
				c-0.32-2.22,0.31-4.34,1.84-6.11c1.53-1.78,3.5-2.77,5.87-2.94h0.14c2.56,0,6.73-0.16,12.39-0.49
				c5.92-0.33,10.21-0.56,13.11-0.68c0.01,0,0.03,0,0.04,0v-4.59h-15.77c-1.85,0-3.47-0.69-4.83-2.05
				c-1.36-1.36-2.05-3.05-2.05-5.03s0.69-3.67,2.05-5.03c1.36-1.36,2.99-2.05,4.83-2.05h15.77v-3.81h-17.73
				c-2.1,0-3.96-0.79-5.36-2.29c-1.05-1.12-1.72-2.38-1.98-3.78c-3.24-0.16-6.11-1.47-8.53-3.89c-2.48-2.63-3.71-5.72-3.71-9.23
				v-3.32c0-4.43,1.6-8.32,4.77-11.55c3.18-3.25,7.11-4.9,11.68-4.9h58.94v-1.32c0-3.01,1.12-5.66,3.32-7.86s4.88-3.32,7.96-3.32
				c3.09,0,5.77,1.16,7.98,3.44c2.19,2.27,3.3,4.87,3.3,7.74v1.32h59.13c4.57,0,8.5,1.65,11.68,4.9c3.17,3.24,4.77,7.13,4.77,11.55
				v0.78c0,4.31-1.54,8.04-4.59,11.08c-2.97,2.97-6.59,4.51-10.76,4.59c-0.25,1.5-0.92,2.83-1.99,3.96
				c-1.43,1.52-3.23,2.29-5.36,2.29h-16.55v3.03h28.08c1.84,0,3.5,0.72,4.93,2.15c1.43,1.43,2.15,3.12,2.15,5.03
				c0,1.91-0.72,3.6-2.15,5.03c-1.42,1.43-3.08,2.15-4.93,2.15h-2.95c0.4,0.29,0.78,0.62,1.14,0.98c1.75,1.75,2.64,3.83,2.64,6.2
				v2.93c0,3.14-1.15,5.89-3.42,8.15c-2.27,2.27-5.08,3.42-8.35,3.42h-52.73c-3.42,0-6.27-1.16-8.47-3.44
				c-2.19-2.26-3.29-4.99-3.29-8.13v-3.13c0-2.36,0.85-4.42,2.54-6.1c0.33-0.33,0.67-0.62,1.02-0.88h-2.34
				c-1.98,0-3.73-0.76-5.07-2.2c-1.33-1.42-2-3.09-2-4.98c0-1.88,0.67-3.56,2-4.98c0.71-0.76,1.53-1.33,2.44-1.7
				c-0.68-1.1-1.08-2.36-1.22-3.78c-0.25-2.69,0.57-5.01,2.43-6.87c2.71-2.84,5.12-6,7.12-9.37c1.02-1.6,2.17-2.87,3.45-3.82h-76.49
				v4.79h52.88c2.1,0,3.92,0.75,5.42,2.24c1.49,1.5,2.25,3.32,2.25,5.42c0,2.11-0.76,3.93-2.25,5.42s-3.31,2.25-5.42,2.25h-16.95
				v3.81h15.19c1.98,0,3.67,0.69,5.03,2.05c1.36,1.36,2.05,3.05,2.05,5.03s-0.69,3.67-2.05,5.03c-1.36,1.36-3.05,2.05-5.03,2.05
				h-15.19v3.58l17.83-0.74c0.15-0.01,0.37-0.02,0.59-0.02c1.85,0,3.51,0.64,4.92,1.89c1.59,1.42,2.43,3.35,2.43,5.6
				c0,2.08-0.78,3.96-2.31,5.58c-1.52,1.6-3.4,2.5-5.6,2.67c-19.84,1.43-40.48,2.81-61.36,4.1
				C963.49,862.88,963.26,862.88,963.04,862.88z M1095.76,847.34V847c0-2.36,0.89-4.45,2.64-6.2c0.36-0.36,0.74-0.69,1.14-0.98
				h-14.82v7.52H1095.76z M1065.29,847.34v-7.52h-14.01c0.35,0.26,0.69,0.56,1.02,0.88c1.69,1.69,2.54,3.74,2.54,6.1v0.54
				L1065.29,847.34L1065.29,847.34z M1065.29,825.47v-3.03h-11.28c-0.74,0-1.33,0.23-1.84,0.72c-0.63,0.76-1.3,1.54-2.01,2.31
				L1065.29,825.47L1065.29,825.47z M1102.41,808.08v-5.96h-42.51c0.45,0.48,0.84,1.04,1.16,1.66c0.74,1.41,1,2.87,0.79,4.3
				L1102.41,808.08L1102.41,808.08z"/>
		</g>
		<g>
			<path class="st22" d="M1192.49,958.76c-3.03,0-5.62-1.09-7.69-3.25c-2.05-2.13-3.1-4.74-3.1-7.73v-44.24
				c-5.94,10.03-12.1,18.89-18.34,26.38c-1.84,2.17-4.12,3.26-6.81,3.26c-0.34,0-0.69-0.07-1.08-0.23c-2.73-0.24-5.05-1.45-6.88-3.6
				c-1.89-2.36-2.82-5.01-2.82-7.94c0-3.12,1.1-5.88,3.27-8.2c10.89-11.89,20.27-26.46,27.87-43.31h-18.4
				c-2.89,0-5.37-1.02-7.37-3.03c-2.01-2-3.03-4.48-3.03-7.37c0-2.87,1.01-5.37,3-7.44c2.01-2.09,4.5-3.15,7.4-3.15h23.2V839
				c0-3,1.04-5.6,3.1-7.74c1.68-1.75,3.7-2.8,6.03-3.13c-2.44-6.73-5.09-12.86-7.92-18.29l-0.05-0.11c-0.2-0.45-0.39-0.57-0.91-0.57
				h-1.37c-0.49,0-0.84,0.12-1.18,0.73c-3.94,6.96-7.93,13.14-11.87,18.39c-1.88,2.5-4.4,3.94-7.51,4.29
				c-0.63,0.15-1.19,0.22-1.71,0.22c-2.5,0-4.86-0.78-7.02-2.33c-2.35-1.56-3.75-3.82-4.12-6.68c-0.15-0.54-0.23-1.14-0.23-1.78
				c0-2.3,0.82-4.38,2.43-6.18c8.02-10.07,14.81-22.16,20.17-35.95c1.08-2.78,3.02-4.96,5.78-6.49c1.74-0.95,3.57-1.42,5.46-1.42
				c1.08,0,2.12,0.16,3.07,0.46c2.88,0.67,5.07,2.38,6.51,5.1c0.8,1.43,1.21,3.01,1.21,4.65c0,1.15-0.24,2.37-0.71,3.63
				c-0.49,1.26-0.97,2.45-1.44,3.55h37.46c2.75,0,5.13,0.99,7.08,2.93c1.94,1.94,2.93,4.29,2.93,6.98c0,1.71-0.4,3.28-1.19,4.7
				c4.63-7.06,8.65-14.99,11.97-23.67c1.23-3.07,3.24-5.32,6-6.71c1.85-1.07,3.81-1.61,5.83-1.61c0.94,0,1.96,0.15,3.02,0.45
				c3.02,0.66,5.28,2.42,6.72,5.24c0.95,1.47,1.44,3.06,1.44,4.71c0,1.28-0.24,2.57-0.71,3.83l-0.05,0.13
				c-0.47,1.03-0.94,2.11-1.42,3.23h50.34c2.6,0,4.91,0.94,6.85,2.8c1.96,1.88,2.96,4.24,2.96,7.01s-1,5.13-2.96,7.01
				c-1.94,1.86-4.24,2.8-6.85,2.8h-28.04c2.04,2.8,3.9,5.66,5.56,8.52c0.83,1.5,1.24,3.07,1.24,4.71c0,1.03-0.24,2.13-0.72,3.27
				c-0.98,2.73-2.86,4.69-5.6,5.81c-1.32,0.5-2.64,0.74-3.98,0.74c-1.32,0-2.68-0.23-4.05-0.69l-0.13-0.05
				c-2.65-1.09-4.7-2.97-6.09-5.6c-2.79-4.81-6.3-10.21-10.41-15.99l-0.06-0.1c-0.24-0.39-0.53-0.63-1.24-0.63h-5.86
				c-0.22,0-0.69,0-1.27,0.87c-3.76,6.23-7.63,11.82-11.43,16.55c-1.82,2.43-4.39,3.88-7.6,4.23c-0.52,0.15-1.05,0.23-1.57,0.23
				c-2.77,0-5.27-0.85-7.42-2.53c-2.38-1.61-3.83-3.88-4.31-6.76l-0.03-0.16v-1.34c0-2.46,0.83-4.62,2.47-6.42
				c2.28-2.69,4.45-5.55,6.5-8.58c-0.27,0.34-0.56,0.67-0.88,0.98c-1.94,1.94-4.33,2.93-7.08,2.93h-21.23
				c1.23,2.31,2.41,4.78,3.53,7.36l0.04,0.08l0.03,0.08c0.46,1.37,0.69,2.77,0.69,4.15c0,1.44-0.32,2.9-0.95,4.33
				c-1.02,2.63-2.88,4.63-5.49,5.91v17.85h19.09c2.89,0,5.38,1.06,7.4,3.15c1.99,2.07,3,4.58,3,7.44c0,2.88-1.02,5.36-3.03,7.37
				s-4.49,3.03-7.37,3.03h-19.09c0,0.04,0,0.09,0,0.15v1.76c0,0.92,0.36,1.34,0.67,1.61c5.47,4.82,13.24,11.93,23.11,21.15
				c2.61,2.3,3.96,5.37,3.96,9.08c0,2.82-0.95,5.37-2.83,7.55c-1.95,2.28-4.37,3.43-7.18,3.43h-0.2c-3.09,0-5.68-1.3-7.47-3.75
				c-2.67-3.3-6.06-7.3-10.06-11.87v48.77c0,3.01-1.08,5.62-3.22,7.76C1198.11,957.68,1195.51,958.76,1192.49,958.76z
				 M1245.42,958.18c-2.88,0-5.43-1.08-7.57-3.22c-2.14-2.14-3.22-4.75-3.22-7.76v-93.17c0-5.21,1.87-9.73,5.57-13.43
				s8.21-5.57,13.43-5.57h49.41c5.21,0,9.73,1.87,13.43,5.57s5.57,8.21,5.57,13.43v91.6c0,3.14-1.12,5.85-3.32,8.05
				c-2.21,2.21-4.92,3.32-8.06,3.32h-3.13c-2.23,0-4.19-0.82-5.81-2.44c-1.32-1.32-2.11-2.86-2.36-4.59h-43.03
				c-0.25,2.1-1.14,3.94-2.66,5.47c-1.82,1.82-4.07,2.74-6.69,2.74L1245.42,958.18L1245.42,958.18z M1299.29,930.74v-13.38h-42.88
				v13.38H1299.29z M1299.29,899.1v-12.99h-42.88v12.99H1299.29z M1299.29,868.04v-12.6h-42.88v12.6H1299.29z"/>
			<path class="st30" d="M1192.49,958.76c-3.03,0-5.62-1.09-7.69-3.25c-2.05-2.13-3.1-4.74-3.1-7.73v-44.24
				c-5.94,10.03-12.1,18.89-18.34,26.38c-1.84,2.17-4.12,3.26-6.81,3.26c-0.34,0-0.69-0.07-1.08-0.23c-2.73-0.24-5.05-1.45-6.88-3.6
				c-1.89-2.36-2.82-5.01-2.82-7.94c0-3.12,1.1-5.88,3.27-8.2c10.89-11.89,20.27-26.46,27.87-43.31h-18.4
				c-2.89,0-5.37-1.02-7.37-3.03c-2.01-2-3.03-4.48-3.03-7.37c0-2.87,1.01-5.37,3-7.44c2.01-2.09,4.5-3.15,7.4-3.15h23.2V839
				c0-3,1.04-5.6,3.1-7.74c1.68-1.75,3.7-2.8,6.03-3.13c-2.44-6.73-5.09-12.86-7.92-18.29l-0.05-0.11c-0.2-0.45-0.39-0.57-0.91-0.57
				h-1.37c-0.49,0-0.84,0.12-1.18,0.73c-3.94,6.96-7.93,13.14-11.87,18.39c-1.88,2.5-4.4,3.94-7.51,4.29
				c-0.63,0.15-1.19,0.22-1.71,0.22c-2.5,0-4.86-0.78-7.02-2.33c-2.35-1.56-3.75-3.82-4.12-6.68c-0.15-0.54-0.23-1.14-0.23-1.78
				c0-2.3,0.82-4.38,2.43-6.18c8.02-10.07,14.81-22.16,20.17-35.95c1.08-2.78,3.02-4.96,5.78-6.49c1.74-0.95,3.57-1.42,5.46-1.42
				c1.08,0,2.12,0.16,3.07,0.46c2.88,0.67,5.07,2.38,6.51,5.1c0.8,1.43,1.21,3.01,1.21,4.65c0,1.15-0.24,2.37-0.71,3.63
				c-0.49,1.26-0.97,2.45-1.44,3.55h37.46c2.75,0,5.13,0.99,7.08,2.93c1.94,1.94,2.93,4.29,2.93,6.98c0,1.71-0.4,3.28-1.19,4.7
				c4.63-7.06,8.65-14.99,11.97-23.67c1.23-3.07,3.24-5.32,6-6.71c1.85-1.07,3.81-1.61,5.83-1.61c0.94,0,1.96,0.15,3.02,0.45
				c3.02,0.66,5.28,2.42,6.72,5.24c0.95,1.47,1.44,3.06,1.44,4.71c0,1.28-0.24,2.57-0.71,3.83l-0.05,0.13
				c-0.47,1.03-0.94,2.11-1.42,3.23h50.34c2.6,0,4.91,0.94,6.85,2.8c1.96,1.88,2.96,4.24,2.96,7.01s-1,5.13-2.96,7.01
				c-1.94,1.86-4.24,2.8-6.85,2.8h-28.04c2.04,2.8,3.9,5.66,5.56,8.52c0.83,1.5,1.24,3.07,1.24,4.71c0,1.03-0.24,2.13-0.72,3.27
				c-0.98,2.73-2.86,4.69-5.6,5.81c-1.32,0.5-2.64,0.74-3.98,0.74c-1.32,0-2.68-0.23-4.05-0.69l-0.13-0.05
				c-2.65-1.09-4.7-2.97-6.09-5.6c-2.79-4.81-6.3-10.21-10.41-15.99l-0.06-0.1c-0.24-0.39-0.53-0.63-1.24-0.63h-5.86
				c-0.22,0-0.69,0-1.27,0.87c-3.76,6.23-7.63,11.82-11.43,16.55c-1.82,2.43-4.39,3.88-7.6,4.23c-0.52,0.15-1.05,0.23-1.57,0.23
				c-2.77,0-5.27-0.85-7.42-2.53c-2.38-1.61-3.83-3.88-4.31-6.76l-0.03-0.16v-1.34c0-2.46,0.83-4.62,2.47-6.42
				c2.28-2.69,4.45-5.55,6.5-8.58c-0.27,0.34-0.56,0.67-0.88,0.98c-1.94,1.94-4.33,2.93-7.08,2.93h-21.23
				c1.23,2.31,2.41,4.78,3.53,7.36l0.04,0.08l0.03,0.08c0.46,1.37,0.69,2.77,0.69,4.15c0,1.44-0.32,2.9-0.95,4.33
				c-1.02,2.63-2.88,4.63-5.49,5.91v17.85h19.09c2.89,0,5.38,1.06,7.4,3.15c1.99,2.07,3,4.58,3,7.44c0,2.88-1.02,5.36-3.03,7.37
				s-4.49,3.03-7.37,3.03h-19.09c0,0.04,0,0.09,0,0.15v1.76c0,0.92,0.36,1.34,0.67,1.61c5.47,4.82,13.24,11.93,23.11,21.15
				c2.61,2.3,3.96,5.37,3.96,9.08c0,2.82-0.95,5.37-2.83,7.55c-1.95,2.28-4.37,3.43-7.18,3.43h-0.2c-3.09,0-5.68-1.3-7.47-3.75
				c-2.67-3.3-6.06-7.3-10.06-11.87v48.77c0,3.01-1.08,5.62-3.22,7.76C1198.11,957.68,1195.51,958.76,1192.49,958.76z
				 M1245.42,958.18c-2.88,0-5.43-1.08-7.57-3.22c-2.14-2.14-3.22-4.75-3.22-7.76v-93.17c0-5.21,1.87-9.73,5.57-13.43
				s8.21-5.57,13.43-5.57h49.41c5.21,0,9.73,1.87,13.43,5.57s5.57,8.21,5.57,13.43v91.6c0,3.14-1.12,5.85-3.32,8.05
				c-2.21,2.21-4.92,3.32-8.06,3.32h-3.13c-2.23,0-4.19-0.82-5.81-2.44c-1.32-1.32-2.11-2.86-2.36-4.59h-43.03
				c-0.25,2.1-1.14,3.94-2.66,5.47c-1.82,1.82-4.07,2.74-6.69,2.74L1245.42,958.18L1245.42,958.18z M1299.29,930.74v-13.38h-42.88
				v13.38H1299.29z M1299.29,899.1v-12.99h-42.88v12.99H1299.29z M1299.29,868.04v-12.6h-42.88v12.6H1299.29z"/>
		</g>
	</g>
</g>
<path class="st31" d="M466.23,957.99h-74.22c-28.48,0-51.56-23.09-51.56-51.56V832.2c0-28.48,23.09-51.56,51.56-51.56h74.22
	c28.48,0,51.56,23.09,51.56,51.56v74.22C517.79,934.9,494.7,957.99,466.23,957.99z"/>
<polygon class="st32" points="457.39,897.48 548.16,750.53 521.71,731.99 431.74,877.64 378.6,836.53 361.36,861.65 440.53,922.89 
	441.96,920.81 442.67,921.3 452.16,905.94 457.77,897.77 "/>
</svg>
