<?xml version="1.0" encoding="utf-8"?>
<!-- Generator: Adobe Illustrator 23.0.5, SVG Export Plug-In . SVG Version: 6.00 Build 0)  -->
<svg version="1.1" id="圖層_1" xmlns="http://www.w3.org/2000/svg" xmlns:xlink="http://www.w3.org/1999/xlink" x="0px" y="0px"
	 viewBox="0 0 1920 1080" style="enable-background:new 0 0 1920 1080;" xml:space="preserve">
<style type="text/css">
	.st0{fill:#31343F;}
	.st1{fill:#63636D;}
	.st2{fill:#CCBEB6;}
	.st3{fill:#488298;}
	.st4{fill:#EBDBCE;}
	.st5{fill:#F06C53;stroke:#A8412D;stroke-miterlimit:10;}
	.st6{fill:#F57B57;}
	.st7{fill:#322E2E;}
	.st8{fill:#CABDAF;}
	.st9{fill:#67B4CC;}
	.st10{fill:#83C5CE;}
	.st11{fill:#B5B5B5;}
	.st12{fill:#F47D63;}
	.st13{fill:#FAB68F;}
	.st14{fill:#939190;}
	.st15{fill:#EFDA5E;}
	.st16{fill:#F99B76;}
	.st17{fill:#4A707C;}
	.st18{fill:#E7E1DE;}
	.st19{fill:#382C28;}
	.st20{fill:#52EF3C;}
	.st21{fill:#E3D2C7;}
	.st22{fill:#F5F4EF;}
	.st23{fill:#E6D9C9;}
	.st24{fill:#658388;}
	.st25{fill:#223C53;}
	.st26{fill:#473A44;}
	.st27{fill:#5C838A;}
	.st28{fill:#9A373E;}
	.st29{fill:#CFD9DB;}
	.st30{fill:#FFFFFF;}
	.st31{fill:#F1775F;}
	.st32{fill:none;stroke:#000000;stroke-width:2;stroke-miterlimit:10;}
	.st33{fill:#FFFFFF;stroke:#000000;stroke-width:6;stroke-miterlimit:10;}
	.st34{fill:#7FEF6C;}
</style>
<path class="st0" d="M1595.81,360.37c-106.25-21.5-212.51-42.99-318.76-64.49c2.81-10.42,5.63-20.85,8.44-31.26
	c65.36,7.61,134.96,18.06,208.13,32.24c78.53,15.22,151.79,32.93,219.38,51.78C1673.93,352.55,1634.87,356.46,1595.81,360.37z"/>
<path class="st1" d="M1535.81,993.5c-75.63-2.93-151.26-5.86-226.88-8.79c2.81-227.33,5.63-454.65,8.44-681.99
	c74.38,13.68,148.75,27.36,223.14,41.04C1538.93,560.34,1537.37,776.92,1535.81,993.5z"/>
<rect x="1268.61" y="118.06" class="st2" width="8.44" height="48.85"/>
<rect x="1110.17" y="127.83" class="st2" width="8.44" height="48.85"/>
<path class="st0" d="M1285.48,262.66c-335.63,25.73-671.27,51.45-1006.91,77.19c44.06,3.91,88.13,7.81,132.19,11.72
	c289.39-20.52,578.77-41.04,868.16-61.56C1281.11,280.9,1283.3,271.78,1285.48,262.66z"/>
<path class="st2" d="M1239.55,984.71H464.21V351.57c258.17-21.17,516.32-42.34,774.49-63.51
	C1238.98,520.28,1239.26,752.5,1239.55,984.71z"/>
<path class="st3" d="M664.83,741.43H470.77V440.49c64.06-4.56,128.13-9.12,192.19-13.68C663.58,531.68,664.21,636.55,664.83,741.43z
	"/>
<rect x="1055.79" y="401.41" class="st3" width="108.75" height="329.27"/>
<rect x="1055.79" y="769.76" class="st3" width="103.13" height="187.6"/>
<g>
	<path class="st4" d="M1001.42,975.91c-90.46-1.93-180.92-3.87-271.38-5.8c-2.04-177.52-4.09-355.04-6.13-532.55
		c91.92-6.84,183.84-13.68,275.76-20.52C1000.25,603.33,1000.83,789.62,1001.42,975.91z"/>
	<g>
		<path class="st3" d="M964.84,730.67H761.41c-0.31-87.28-0.63-174.57-0.94-261.85c68.75-3.91,137.51-7.81,206.25-11.72
			C966.09,548.29,965.47,639.48,964.84,730.67z"/>
		<rect x="760.47" y="728.72" class="st5" width="206.25" height="24.43"/>
		<rect x="760.47" y="752.17" class="st6" width="206.25" height="193.46"/>
	</g>
</g>
<g>
	<path class="st7" d="M1334.23,131.73c-99.37,2.28-198.76,4.56-298.13,6.84c-0.63-29.97-1.25-59.92-1.88-89.89
		c98.75-7.49,197.51-14.98,296.26-22.47C1331.73,61.38,1332.98,96.56,1334.23,131.73z"/>
	<path class="st8" d="M1325.8,125.87c-94.69,2.93-189.38,5.86-284.07,8.79c0-27.36,0-54.71,0-82.07
		c93.76-6.84,187.5-13.68,281.26-20.52C1323.93,63.35,1324.86,94.61,1325.8,125.87z"/>
</g>
<path class="st9" d="M848.55,399.62c-17.13,0.23-34.26,0.47-51.38,0.7c-4.53,0.07-8.56-2.99-9.91-7.49
	c-4.19-13.96-8.38-27.94-12.57-41.9c-1.99-6.62,2.52-13.43,9.17-13.85c18.59-1.16,37.16-2.33,55.75-3.5
	c5.14-0.32,9.71,3.38,10.68,8.66c2.74,14.9,5.46,29.8,8.2,44.7C859.69,393.46,854.93,399.53,848.55,399.62z"/>
<path class="st10" d="M833.43,390.95c-10.52-0.29-21.06-0.58-31.58-0.87c-8.3-0.23-15.34-6.41-16.97-14.89
	c-0.88-4.58-1.76-9.18-2.64-13.76c-2.1-10.93,5.47-21.31,16.14-22.13c9.8-0.75,19.6-1.5,29.39-2.25
	c8.33-0.64,15.97,4.85,18.35,13.19c1.61,5.63,3.22,11.26,4.83,16.89C854.42,379.21,845.53,391.29,833.43,390.95z"/>
<rect x="1179.54" y="467.84" class="st11" width="57.19" height="116.27"/>
<rect x="1184.23" y="473.71" class="st9" width="46.88" height="18.57"/>
<rect x="1184.23" y="501.07" class="st9" width="46.88" height="75.23"/>
<rect x="1184.23" y="600.73" class="st12" width="52.51" height="95.75"/>
<rect x="1184.23" y="630.04" class="st13" width="52.51" height="26.38"/>
<rect x="1176.73" y="417.04" class="st14" width="60" height="40.06"/>
<rect x="1184.23" y="401.41" class="st15" width="38.44" height="15.64"/>
<path class="st16" d="M1283.61,189.39c-354.7,31.91-709.4,63.83-1064.09,95.75c6.25,18.57,12.5,37.13,18.75,55.69
	c349.7-26.05,699.39-52.11,1049.1-78.16C1286.1,238.24,1284.85,213.81,1283.61,189.39z"/>
<path class="st17" d="M1280.8,160.08c-279.38,24.1-558.77,48.2-838.15,72.3c-74.38,17.58-148.76,35.17-223.14,52.76
	c355.32-28.99,710.65-57.97,1065.97-86.96C1283.92,185.48,1282.36,172.77,1280.8,160.08z"/>
<rect x="616.09" y="147.37" class="st2" width="17.81" height="75.23"/>
<path class="st18" d="M621.17,151.95c-2.29-0.13-4.59-0.26-6.88-0.39c-2.65-0.15-4.72-2.47-4.69-5.24
	c0.27-18.76,0.55-37.53,0.82-56.29c0.03-1.97,1.13-3.76,2.85-4.6c2.02-1,4.04-1.98,6.06-2.98c3.29-1.62,7.08,0.89,7.08,4.68v59.66
	C626.4,149.75,624,152.11,621.17,151.95z"/>
<path class="st19" d="M660.08,151.98c-9.71-0.47-19.44-0.94-29.15-1.41c-3.07-0.15-5.51-2.77-5.55-5.97
	c-0.25-17.94-0.5-35.88-0.75-53.82c-0.05-3.98,3.53-6.94,7.23-5.97l32.93,8.58c2.74,0.71,4.59,3.36,4.4,6.3
	c-1.01,15.55-2.02,31.1-3.04,46.66C665.95,149.62,663.25,152.13,660.08,151.98z"/>
<path class="st20" d="M660.15,147.37c-9.69-0.98-19.37-1.95-29.07-2.93V94.61c10.94,1.62,21.88,3.26,32.81,4.88
	C662.65,115.45,661.4,131.41,660.15,147.37z"/>
<rect x="414.52" y="353.53" class="st21" width="30" height="624.34"/>
<rect x="444.52" y="353.53" class="st22" width="19.69" height="624.34"/>
<rect x="1236.73" y="288.07" class="st23" width="33.75" height="696.65"/>
<path class="st24" d="M1308.92,984.71c-12.81,0-25.63,0-38.44,0c0-232.22,0-464.43,0-696.65c15.62,4.88,31.26,9.77,46.88,14.66
	C1314.55,530.05,1311.73,757.38,1308.92,984.71z"/>
<path class="st25" d="M1535.81,735.56c-72.82-3.26-145.63-6.52-218.45-9.77c1.56-119.53,3.13-239.05,4.69-358.58
	c72.82,12.38,145.63,24.76,218.45,37.13C1538.93,514.74,1537.37,625.15,1535.81,735.56z"/>
<path class="st26" d="M1562.06,990.57c-8.75,0.98-17.5,1.95-26.25,2.93c1.56-217.56,3.13-435.12,4.69-652.68h21.56V990.57z"/>
<path class="st27" d="M1595.81,993.5h-34.68c0-217.56,0-435.12,0-652.68c9.69,5.54,19.37,11.07,29.07,16.61
	C1592.05,569.45,1593.93,781.48,1595.81,993.5z"/>
<path class="st28" d="M1713,348.64c-70.28-19.52-146.02-37.85-226.88-53.74c-69.37-13.64-135.78-24.17-198.76-32.24
	c-1.25-26.71-2.5-53.42-3.75-80.12c79.25,21.09,143.89,33.55,188.44,41.04c50.99,8.57,85.38,12.27,135.95,27.36
	c52.59,15.69,93.66,35.05,120,48.85C1723,316.07,1718,332.36,1713,348.64z"/>
<path class="st17" d="M1607.99,250.93c-108.13-22.8-216.26-45.59-324.39-68.4c-0.94-7.49-1.88-14.98-2.81-22.47
	c50.32,11.4,100.63,22.8,150.94,34.19c28.06,6.04,58.58,13.96,90.94,24.43C1553.87,228.78,1582.36,239.8,1607.99,250.93z"/>
<ellipse class="st29" cx="962.04" cy="736.53" rx="25.32" ry="26.38"/>
<path class="st30" d="M891.94,586.07h-69.81c-4.02,0-7.29-3.36-7.29-7.5v-53.39c0-4.14,3.27-7.5,7.29-7.5h69.81
	c4.02,0,7.29,3.36,7.29,7.5v53.39C899.22,582.71,895.96,586.07,891.94,586.07z"/>
<path class="st31" d="M891.2,583.63h-67.4c-3.74,0-6.77-3.12-6.77-6.97v-49.58c0-3.85,3.03-6.97,6.77-6.97h67.4
	c3.74,0,6.77,3.12,6.77,6.97v49.58C897.97,580.51,894.94,583.63,891.2,583.63z"/>
<g>
	<g>
		<g>
			<path class="st30" d="M699.71,1032.55c-10.69,0-17.7-1.34-21.41-4.11c-3.84-2.86-5.79-8.33-5.79-16.25v-21.63h-12.65
				c-0.48,0-0.54,0.08-0.62,0.33c-2.69,10.18-7.47,18.62-14.2,25.09c-6.71,6.44-16.78,11.73-29.91,15.71l-0.1,0.03
				c-1.2,0.3-2.35,0.45-3.41,0.45c-1.65,0-3.32-0.3-4.98-0.9l-0.13-0.05c-2.7-1.2-4.89-3.09-6.53-5.62c-0.87-1.39-1.3-2.79-1.3-4.21
				c0-0.87,0.17-1.81,0.5-2.79c0.89-2.51,2.68-4.1,5.19-4.64c9.88-2.5,17.42-5.76,22.32-9.67c4.57-3.64,7.95-8.26,10.06-13.72h-3.05
				c-5.22,0-9.73-1.87-13.43-5.57c-3.69-3.69-5.57-8.21-5.57-13.43v-18.16c0-5.21,1.87-9.75,5.55-13.51
				c3.7-3.77,8.22-5.68,13.44-5.68h22.66c0.11,0,0.16-0.02,0.16-0.02l0.03-0.07l0.05-0.12c1.89-3.15,3.37-5.9,4.38-8.18
				c0.31-0.67,0.67-1.2,1.05-1.61c-2.55-1.86-6-4.18-10.31-6.92v6.02c0,2.49-0.89,4.65-2.64,6.39c-1.75,1.75-3.87,2.64-6.3,2.64
				s-4.55-0.89-6.3-2.64s-2.64-3.9-2.64-6.39v-6.51c-4.58,4.42-9.46,8.22-14.53,11.34c-1.54,0.95-3.19,1.43-4.89,1.43
				c-0.63,0-1.28-0.07-1.93-0.2c-2.3-0.48-4.34-1.67-6.05-3.54l-0.08-0.1c-1.39-1.73-1.94-3.77-1.58-5.88
				c0.36-2.19,1.68-3.91,3.81-4.97c5.95-2.97,11.59-6.82,16.79-11.45h-11.4c-2.11,0-3.93-0.76-5.42-2.25
				c-1.49-1.48-2.24-3.34-2.24-5.51c0-2.17,0.76-4.03,2.25-5.52s3.31-2.25,5.42-2.25h19.88V886c0-1.99,0.57-3.74,1.68-5.23h-32.06
				v44.68c0,42.92-5.32,76.39-15.8,99.46c-1.17,2.51-3.26,4.11-6.03,4.63c-0.56,0.17-1.18,0.25-1.84,0.25
				c-2.16,0-4.16-0.74-5.95-2.21c-2.29-1.99-3.81-4.35-4.57-7.07c-0.31-1.06-0.46-2.3-0.46-3.66c0-1.72,0.39-3.44,1.16-5.13
				c8.04-19.14,12.19-48.19,12.32-86.29v-45.31c0-5.21,1.87-9.73,5.57-13.43c3.69-3.69,8.21-5.57,13.43-5.57h54.45v-3.66
				c0-3.13,1.11-5.87,3.3-8.13c2.21-2.28,4.96-3.44,8.18-3.44c3.2,0,5.98,1.15,8.25,3.42s3.42,5.02,3.42,8.15v3.66h65.19
				c2.6,0,4.91,0.94,6.85,2.8c1.96,1.88,2.96,4.21,2.96,6.91c0,2.69-0.99,5.04-2.93,6.98c-1.94,1.94-4.26,2.93-6.88,2.93h-23.93
				c1.14,1.54,1.71,3.29,1.71,5.23v1.91h21.63c2.08,0,3.92,0.74,5.47,2.21c1.58,1.5,2.39,3.37,2.39,5.56c0,2.19-0.8,4.06-2.39,5.56
				c-1.55,1.46-3.39,2.21-5.47,2.21h-12.59c5.14,4.24,10.99,8.08,17.43,11.46c1.99,1.09,3.22,2.83,3.58,5.07
				c0.36,2.26-0.31,4.31-1.93,5.93c-1.65,1.81-3.65,2.99-5.88,3.47c-0.68,0.15-1.38,0.22-2.08,0.22c-1.59,0-3.22-0.38-4.85-1.14
				l-0.13-0.06l-0.12-0.08c-5.1-3.36-10.16-7.38-15.06-11.97v6.98c0,2.47-0.84,4.61-2.5,6.36c-1.69,1.77-3.85,2.67-6.43,2.67
				c-2.56,0-4.74-0.89-6.49-2.64s-2.64-3.9-2.64-6.39v-6.13c-5.72,5.48-11.88,10.03-18.33,13.55l-0.15,0.07
				c-0.62,0.27-1.24,0.41-1.86,0.41c-0.46,0-1.01-0.08-1.61-0.33c-0.67,0.9-1.51,2.01-2.52,3.32h39.55c5.22,0,9.73,1.87,13.43,5.57
				c3.69,3.69,5.57,8.28,5.57,13.62v19.34c0,4.82-1.74,9.03-5.16,12.53c-3.44,3.51-7.7,5.29-12.66,5.29c-0.36,0-0.52,0.07-0.68,0.33
				c-0.29,0.97-0.77,2.33-1.45,4.14c-0.5,1.32-0.89,2.4-1.16,3.22l7.14-0.26c-0.68-1.49-0.78-3.09-0.29-4.66
				c0.58-1.85,1.84-3.14,3.62-3.74c1.19-0.45,2.41-0.69,3.56-0.69c2.84,0,5.27,1.24,7.23,3.68l0.07,0.09
				c2.64,3.7,4.99,7.46,6.97,11.16c0.16,0.27,0.38,0.39,0.54,0.45c3.28,1.49,5.85,3.63,7.75,6.39c1.27,1.91,1.91,3.93,1.91,6.01
				c0,1.09-0.16,2.19-0.47,3.28l-0.03,0.11c-1.59,4.62-4.06,7.91-7.35,9.78c-3.21,1.82-7.68,2.7-13.69,2.7h-34.04L699.71,1032.55
				L699.71,1032.55z M692.53,1012.19c0,0.85,0.11,2.33,0.85,2.71c0.46,0.23,2.15,0.76,7.89,0.76h30.27c2.85,0,3.99-0.5,4.41-0.81
				c0.21-0.15,0.52-0.46,0.85-1.1c-0.77-0.07-1.52-0.29-2.25-0.65c-1.35-0.67-2.44-1.65-3.26-2.92c-3.97,0.49-9.18,0.98-15.51,1.46
				c-6.77,0.52-11.16,0.91-13.07,1.16c-0.32,0.03-0.56,0.04-0.8,0.04c-1.67,0-3.22-0.54-4.6-1.62c-1.57-1.22-2.54-2.81-2.89-4.74
				l-0.02-0.09l-0.01-0.09c-0.18-1.96,0.33-3.7,1.51-5.16c1.19-1.47,2.8-2.31,4.79-2.49l0.09-0.01h0.51
				c0.88-3.03,1.55-5.74,2.02-8.11h-10.8v21.66H692.53z M717.04,975.23v-6.16h-31.15v6.16H717.04z M665.29,975.23v-6.16h-30.57v6.16
				H665.29z M717.04,955.51v-5.96h-31.15v5.96H717.04z M665.29,955.51v-5.96h-30.57v5.96H665.29z M676.57,924.57
				c-0.46-1.41-0.54-2.93-0.2-4.5c0.57-2.68,2.01-4.78,4.29-6.25l0.08-0.05l0.08-0.04c5.4-2.81,10.4-6.26,14.9-10.29h-8.7
				c-2.08,0-3.93-0.74-5.48-2.21c-1.58-1.49-2.38-3.36-2.38-5.56c0-2.19,0.8-4.06,2.38-5.56c1.55-1.46,3.39-2.21,5.48-2.21h16.75
				v-1.91c0-1.94,0.6-3.69,1.78-5.23h-55.52c1.12,1.48,1.68,3.23,1.68,5.23v1.91h18.31c2.08,0,3.92,0.74,5.47,2.21
				c1.58,1.5,2.39,3.37,2.39,5.56c0,2.19-0.8,4.06-2.39,5.56c-1.55,1.46-3.39,2.21-5.47,2.21h-14.03c3.13,1.45,6.43,3.06,9.86,4.81
				c3.37,1.53,5.45,4.21,5.94,7.7c0.15,0.77,0.22,1.54,0.22,2.28c0,1.89-0.51,3.69-1.53,5.38L676.57,924.57z"/>
			<path class="st32" d="M699.71,1032.55c-10.69,0-17.7-1.34-21.41-4.11c-3.84-2.86-5.79-8.33-5.79-16.25v-21.63h-12.65
				c-0.48,0-0.54,0.08-0.62,0.33c-2.69,10.18-7.47,18.62-14.2,25.09c-6.71,6.44-16.78,11.73-29.91,15.71l-0.1,0.03
				c-1.2,0.3-2.35,0.45-3.41,0.45c-1.65,0-3.32-0.3-4.98-0.9l-0.13-0.05c-2.7-1.2-4.89-3.09-6.53-5.62c-0.87-1.39-1.3-2.79-1.3-4.21
				c0-0.87,0.17-1.81,0.5-2.79c0.89-2.51,2.68-4.1,5.19-4.64c9.88-2.5,17.42-5.76,22.32-9.67c4.57-3.64,7.95-8.26,10.06-13.72h-3.05
				c-5.22,0-9.73-1.87-13.43-5.57c-3.69-3.69-5.57-8.21-5.57-13.43v-18.16c0-5.21,1.87-9.75,5.55-13.51
				c3.7-3.77,8.22-5.68,13.44-5.68h22.66c0.11,0,0.16-0.02,0.16-0.02l0.03-0.07l0.05-0.12c1.89-3.15,3.37-5.9,4.38-8.18
				c0.31-0.67,0.67-1.2,1.05-1.61c-2.55-1.86-6-4.18-10.31-6.92v6.02c0,2.49-0.89,4.65-2.64,6.39c-1.75,1.75-3.87,2.64-6.3,2.64
				s-4.55-0.89-6.3-2.64s-2.64-3.9-2.64-6.39v-6.51c-4.58,4.42-9.46,8.22-14.53,11.34c-1.54,0.95-3.19,1.43-4.89,1.43
				c-0.63,0-1.28-0.07-1.93-0.2c-2.3-0.48-4.34-1.67-6.05-3.54l-0.08-0.1c-1.39-1.73-1.94-3.77-1.58-5.88
				c0.36-2.19,1.68-3.91,3.81-4.97c5.95-2.97,11.59-6.82,16.79-11.45h-11.4c-2.11,0-3.93-0.76-5.42-2.25
				c-1.49-1.48-2.24-3.34-2.24-5.51c0-2.17,0.76-4.03,2.25-5.52s3.31-2.25,5.42-2.25h19.88V886c0-1.99,0.57-3.74,1.68-5.23h-32.06
				v44.68c0,42.92-5.32,76.39-15.8,99.46c-1.17,2.51-3.26,4.11-6.03,4.63c-0.56,0.17-1.18,0.25-1.84,0.25
				c-2.16,0-4.16-0.74-5.95-2.21c-2.29-1.99-3.81-4.35-4.57-7.07c-0.31-1.06-0.46-2.3-0.46-3.66c0-1.72,0.39-3.44,1.16-5.13
				c8.04-19.14,12.19-48.19,12.32-86.29v-45.31c0-5.21,1.87-9.73,5.57-13.43c3.69-3.69,8.21-5.57,13.43-5.57h54.45v-3.66
				c0-3.13,1.11-5.87,3.3-8.13c2.21-2.28,4.96-3.44,8.18-3.44c3.2,0,5.98,1.15,8.25,3.42s3.42,5.02,3.42,8.15v3.66h65.19
				c2.6,0,4.91,0.94,6.85,2.8c1.96,1.88,2.96,4.21,2.96,6.91c0,2.69-0.99,5.04-2.93,6.98c-1.94,1.94-4.26,2.93-6.88,2.93h-23.93
				c1.14,1.54,1.71,3.29,1.71,5.23v1.91h21.63c2.08,0,3.92,0.74,5.47,2.21c1.58,1.5,2.39,3.37,2.39,5.56c0,2.19-0.8,4.06-2.39,5.56
				c-1.55,1.46-3.39,2.21-5.47,2.21h-12.59c5.14,4.24,10.99,8.08,17.43,11.46c1.99,1.09,3.22,2.83,3.58,5.07
				c0.36,2.26-0.31,4.31-1.93,5.93c-1.65,1.81-3.65,2.99-5.88,3.47c-0.68,0.15-1.38,0.22-2.08,0.22c-1.59,0-3.22-0.38-4.85-1.14
				l-0.13-0.06l-0.12-0.08c-5.1-3.36-10.16-7.38-15.06-11.97v6.98c0,2.47-0.84,4.61-2.5,6.36c-1.69,1.77-3.85,2.67-6.43,2.67
				c-2.56,0-4.74-0.89-6.49-2.64s-2.64-3.9-2.64-6.39v-6.13c-5.72,5.48-11.88,10.03-18.33,13.55l-0.15,0.07
				c-0.62,0.27-1.24,0.41-1.86,0.41c-0.46,0-1.01-0.08-1.61-0.33c-0.67,0.9-1.51,2.01-2.52,3.32h39.55c5.22,0,9.73,1.87,13.43,5.57
				c3.69,3.69,5.57,8.28,5.57,13.62v19.34c0,4.82-1.74,9.03-5.16,12.53c-3.44,3.51-7.7,5.29-12.66,5.29c-0.36,0-0.52,0.07-0.68,0.33
				c-0.29,0.97-0.77,2.33-1.45,4.14c-0.5,1.32-0.89,2.4-1.16,3.22l7.14-0.26c-0.68-1.49-0.78-3.09-0.29-4.66
				c0.58-1.85,1.84-3.14,3.62-3.74c1.19-0.45,2.41-0.69,3.56-0.69c2.84,0,5.27,1.24,7.23,3.68l0.07,0.09
				c2.64,3.7,4.99,7.46,6.97,11.16c0.16,0.27,0.38,0.39,0.54,0.45c3.28,1.49,5.85,3.63,7.75,6.39c1.27,1.91,1.91,3.93,1.91,6.01
				c0,1.09-0.16,2.19-0.47,3.28l-0.03,0.11c-1.59,4.62-4.06,7.91-7.35,9.78c-3.21,1.82-7.68,2.7-13.69,2.7h-34.04L699.71,1032.55
				L699.71,1032.55z M692.53,1012.19c0,0.85,0.11,2.33,0.85,2.71c0.46,0.23,2.15,0.76,7.89,0.76h30.27c2.85,0,3.99-0.5,4.41-0.81
				c0.21-0.15,0.52-0.46,0.85-1.1c-0.77-0.07-1.52-0.29-2.25-0.65c-1.35-0.67-2.44-1.65-3.26-2.92c-3.97,0.49-9.18,0.98-15.51,1.46
				c-6.77,0.52-11.16,0.91-13.07,1.16c-0.32,0.03-0.56,0.04-0.8,0.04c-1.67,0-3.22-0.54-4.6-1.62c-1.57-1.22-2.54-2.81-2.89-4.74
				l-0.02-0.09l-0.01-0.09c-0.18-1.96,0.33-3.7,1.51-5.16c1.19-1.47,2.8-2.31,4.79-2.49l0.09-0.01h0.51
				c0.88-3.03,1.55-5.74,2.02-8.11h-10.8v21.66H692.53z M717.04,975.23v-6.16h-31.15v6.16H717.04z M665.29,975.23v-6.16h-30.57v6.16
				H665.29z M717.04,955.51v-5.96h-31.15v5.96H717.04z M665.29,955.51v-5.96h-30.57v5.96H665.29z M676.57,924.57
				c-0.46-1.41-0.54-2.93-0.2-4.5c0.57-2.68,2.01-4.78,4.29-6.25l0.08-0.05l0.08-0.04c5.4-2.81,10.4-6.26,14.9-10.29h-8.7
				c-2.08,0-3.93-0.74-5.48-2.21c-1.58-1.49-2.38-3.36-2.38-5.56c0-2.19,0.8-4.06,2.38-5.56c1.55-1.46,3.39-2.21,5.48-2.21h16.75
				v-1.91c0-1.94,0.6-3.69,1.78-5.23h-55.52c1.12,1.48,1.68,3.23,1.68,5.23v1.91h18.31c2.08,0,3.92,0.74,5.47,2.21
				c1.58,1.5,2.39,3.37,2.39,5.56c0,2.19-0.8,4.06-2.39,5.56c-1.55,1.46-3.39,2.21-5.47,2.21h-14.03c3.13,1.45,6.43,3.06,9.86,4.81
				c3.37,1.53,5.45,4.21,5.94,7.7c0.15,0.77,0.22,1.54,0.22,2.28c0,1.89-0.51,3.69-1.53,5.38L676.57,924.57z"/>
		</g>
		<g>
			<path class="st30" d="M942.29,1030.01c-1.15,0-2.37-0.24-3.63-0.71c-2.95-1.09-5.15-3.06-6.56-5.86
				c-0.93-1.86-1.83-3.73-2.7-5.59c-0.25-0.36-0.43-0.36-0.6-0.36c-0.05,0-0.11,0-0.16,0.01c-10.88,0.79-41.74,3-92.65,6.65h-0.14
				h-0.78c-2.79,0-5.31-0.87-7.48-2.58c-2.5-2.03-3.99-4.62-4.45-7.72l-0.02-0.15v-1.52c0-2.4,0.8-4.65,2.37-6.69
				c1.95-2.44,4.55-3.74,7.73-3.9l4.9-0.2c0.26,0,0.41,0,0.63-0.46c7.36-15.1,14.07-32.53,19.94-51.79h-26.35
				c-2.88,0-5.43-1.08-7.57-3.22c-2.14-2.14-3.22-4.72-3.22-7.66c0-2.96,1.09-5.52,3.25-7.59c2.14-2.06,4.67-3.1,7.54-3.1h42.92
				v-29.2h-32.77c-3.03,0-5.62-1.09-7.69-3.25c-2.06-2.13-3.1-4.7-3.1-7.64c0-2.95,1.05-5.49,3.13-7.57
				c2.07-2.07,4.65-3.13,7.66-3.13h32.77v-19.29c0-3.14,1.15-5.88,3.42-8.15c2.27-2.27,5.04-3.42,8.25-3.42
				c3.22,0,5.97,1.16,8.18,3.44c2.19,2.27,3.3,5,3.3,8.13v19.29h34.91c2.87,0,5.4,1.04,7.54,3.1c2.16,2.08,3.25,4.63,3.25,7.59
				c0,2.95-1.08,5.53-3.22,7.66c-2.14,2.14-4.68,3.22-7.57,3.22h-34.93v29.2h44.29c2.87,0,5.4,1.04,7.54,3.1
				c2.16,2.08,3.25,4.63,3.25,7.59c0,2.95-1.08,5.53-3.22,7.66c-2.14,2.14-4.68,3.22-7.57,3.22h-57.03c-0.54,0-0.72,0.16-0.89,0.52
				c-6.81,18.03-14.08,35-21.63,50.48c13.21-0.75,30.85-1.72,53.83-2.97c-3.62-5.6-7.39-10.98-11.22-16.01
				c-1.3-1.62-1.97-3.55-1.97-5.7c0-0.65,0.08-1.38,0.23-2.15c0.66-2.83,2.3-4.98,4.89-6.43c1.92-0.96,3.93-1.43,6.06-1.43
				c0.88,0,1.78,0.07,2.67,0.22c3.13,0.63,5.63,2.12,7.49,4.44c11.62,14.62,20.95,28.66,27.75,41.73c0.93,1.86,1.4,3.74,1.4,5.61
				c0,1.27-0.24,2.56-0.71,3.83c-1.04,3.27-3.08,5.77-6.02,7.32C945.82,1029.54,944.05,1030.01,942.29,1030.01z M788.96,1026.5
				c-2.24,0-4.34-0.71-6.23-2.12c-2.8-1.88-4.46-4.5-4.93-7.8c-0.14-0.83-0.22-1.67-0.22-2.43c0-2.3,0.61-4.54,1.83-6.66
				c9.2-14.65,17.91-30.29,25.92-46.57c1.32-2.65,3.49-4.32,6.44-4.98c0.63-0.16,1.32-0.24,2-0.24c2.03,0,3.96,0.74,5.76,2.21
				c2.44,2.14,3.97,4.72,4.59,7.72c0.3,1.06,0.45,2.14,0.45,3.21c0,1.98-0.46,3.97-1.36,5.92c-7.42,15.49-15.66,31.11-24.5,46.45
				l-0.05,0.09c-1.73,2.67-4.2,4.34-7.34,4.97C790.51,1026.42,789.72,1026.5,788.96,1026.5z M805.37,935.09
				c-2.17,0-4.22-0.55-6.09-1.64c-6.94-4.24-14.53-8.07-22.61-11.4c-2.52-1.17-4.24-3.06-5.21-5.64l-0.06-0.15l-0.03-0.16
				c-0.16-0.77-0.23-1.63-0.23-2.54c0-1.7,0.51-3.32,1.51-4.82c1.52-2.44,3.79-4.17,6.73-5.09c1.34-0.45,2.67-0.68,3.92-0.68
				c1.49,0,3,0.23,4.48,0.67l0.14,0.05c8.52,3.28,16.36,6.93,23.31,10.87c2.66,1.41,4.37,3.72,5.04,6.84
				c0.31,0.84,0.46,1.75,0.46,2.71c0,2.09-0.64,4.1-1.9,5.99c-1.75,2.54-4.13,4.13-7.11,4.75
				C806.94,935.01,806.15,935.09,805.37,935.09z M816.31,882.55c-2.35,0-4.5-0.64-6.38-1.9c-6.66-4.48-14.27-8.77-22.6-12.75
				c-2.48-1.16-4.12-3.09-4.87-5.76c-0.76-2.68-0.29-5.23,1.37-7.56l0.07-0.09c1.81-2.26,4.17-3.86,7.01-4.76l0.12-0.03
				c1.2-0.3,2.35-0.45,3.41-0.45c1.68,0,3.31,0.31,4.84,0.92c8.7,3.69,16.55,7.75,23.38,12.08c2.72,1.76,4.33,4.26,4.81,7.45
				c0.14,0.71,0.22,1.33,0.22,1.86c0,2.39-0.79,4.57-2.36,6.48c-1.75,2.5-4.15,4-7.14,4.48l-0.15,0.02h-1.73V882.55z"/>
			<path class="st32" d="M942.29,1030.01c-1.15,0-2.37-0.24-3.63-0.71c-2.95-1.09-5.15-3.06-6.56-5.86
				c-0.93-1.86-1.83-3.73-2.7-5.59c-0.25-0.36-0.43-0.36-0.6-0.36c-0.05,0-0.11,0-0.16,0.01c-10.88,0.79-41.74,3-92.65,6.65h-0.14
				h-0.78c-2.79,0-5.31-0.87-7.48-2.58c-2.5-2.03-3.99-4.62-4.45-7.72l-0.02-0.15v-1.52c0-2.4,0.8-4.65,2.37-6.69
				c1.95-2.44,4.55-3.74,7.73-3.9l4.9-0.2c0.26,0,0.41,0,0.63-0.46c7.36-15.1,14.07-32.53,19.94-51.79h-26.35
				c-2.88,0-5.43-1.08-7.57-3.22c-2.14-2.14-3.22-4.72-3.22-7.66c0-2.96,1.09-5.52,3.25-7.59c2.14-2.06,4.67-3.1,7.54-3.1h42.92
				v-29.2h-32.77c-3.03,0-5.62-1.09-7.69-3.25c-2.06-2.13-3.1-4.7-3.1-7.64c0-2.95,1.05-5.49,3.13-7.57
				c2.07-2.07,4.65-3.13,7.66-3.13h32.77v-19.29c0-3.14,1.15-5.88,3.42-8.15c2.27-2.27,5.04-3.42,8.25-3.42
				c3.22,0,5.97,1.16,8.18,3.44c2.19,2.27,3.3,5,3.3,8.13v19.29h34.91c2.87,0,5.4,1.04,7.54,3.1c2.16,2.08,3.25,4.63,3.25,7.59
				c0,2.95-1.08,5.53-3.22,7.66c-2.14,2.14-4.68,3.22-7.57,3.22h-34.93v29.2h44.29c2.87,0,5.4,1.04,7.54,3.1
				c2.16,2.08,3.25,4.63,3.25,7.59c0,2.95-1.08,5.53-3.22,7.66c-2.14,2.14-4.68,3.22-7.57,3.22h-57.03c-0.54,0-0.72,0.16-0.89,0.52
				c-6.81,18.03-14.08,35-21.63,50.48c13.21-0.75,30.85-1.72,53.83-2.97c-3.62-5.6-7.39-10.98-11.22-16.01
				c-1.3-1.62-1.97-3.55-1.97-5.7c0-0.65,0.08-1.38,0.23-2.15c0.66-2.83,2.3-4.98,4.89-6.43c1.92-0.96,3.93-1.43,6.06-1.43
				c0.88,0,1.78,0.07,2.67,0.22c3.13,0.63,5.63,2.12,7.49,4.44c11.62,14.62,20.95,28.66,27.75,41.73c0.93,1.86,1.4,3.74,1.4,5.61
				c0,1.27-0.24,2.56-0.71,3.83c-1.04,3.27-3.08,5.77-6.02,7.32C945.82,1029.54,944.05,1030.01,942.29,1030.01z M788.96,1026.5
				c-2.24,0-4.34-0.71-6.23-2.12c-2.8-1.88-4.46-4.5-4.93-7.8c-0.14-0.83-0.22-1.67-0.22-2.43c0-2.3,0.61-4.54,1.83-6.66
				c9.2-14.65,17.91-30.29,25.92-46.57c1.32-2.65,3.49-4.32,6.44-4.98c0.63-0.16,1.32-0.24,2-0.24c2.03,0,3.96,0.74,5.76,2.21
				c2.44,2.14,3.97,4.72,4.59,7.72c0.3,1.06,0.45,2.14,0.45,3.21c0,1.98-0.46,3.97-1.36,5.92c-7.42,15.49-15.66,31.11-24.5,46.45
				l-0.05,0.09c-1.73,2.67-4.2,4.34-7.34,4.97C790.51,1026.42,789.72,1026.5,788.96,1026.5z M805.37,935.09
				c-2.17,0-4.22-0.55-6.09-1.64c-6.94-4.24-14.53-8.07-22.61-11.4c-2.52-1.17-4.24-3.06-5.21-5.64l-0.06-0.15l-0.03-0.16
				c-0.16-0.77-0.23-1.63-0.23-2.54c0-1.7,0.51-3.32,1.51-4.82c1.52-2.44,3.79-4.17,6.73-5.09c1.34-0.45,2.67-0.68,3.92-0.68
				c1.49,0,3,0.23,4.48,0.67l0.14,0.05c8.52,3.28,16.36,6.93,23.31,10.87c2.66,1.41,4.37,3.72,5.04,6.84
				c0.31,0.84,0.46,1.75,0.46,2.71c0,2.09-0.64,4.1-1.9,5.99c-1.75,2.54-4.13,4.13-7.11,4.75
				C806.94,935.01,806.15,935.09,805.37,935.09z M816.31,882.55c-2.35,0-4.5-0.64-6.38-1.9c-6.66-4.48-14.27-8.77-22.6-12.75
				c-2.48-1.16-4.12-3.09-4.87-5.76c-0.76-2.68-0.29-5.23,1.37-7.56l0.07-0.09c1.81-2.26,4.17-3.86,7.01-4.76l0.12-0.03
				c1.2-0.3,2.35-0.45,3.41-0.45c1.68,0,3.31,0.31,4.84,0.92c8.7,3.69,16.55,7.75,23.38,12.08c2.72,1.76,4.33,4.26,4.81,7.45
				c0.14,0.71,0.22,1.33,0.22,1.86c0,2.39-0.79,4.57-2.36,6.48c-1.75,2.5-4.15,4-7.14,4.48l-0.15,0.02h-1.73V882.55z"/>
		</g>
		<g>
			<path class="st30" d="M988.97,1028.84c-3.01,0-5.66-1.12-7.86-3.32s-3.32-4.85-3.32-7.86V869.03c0-5.21,1.87-9.73,5.57-13.43
				c3.7-3.7,8.21-5.57,13.43-5.57h39.06c5.21,0,9.73,1.87,13.43,5.57c3.7,3.7,5.57,8.21,5.57,13.43v40.43
				c0,5.21-1.87,9.73-5.57,13.43c-3.7,3.7-8.21,5.57-13.43,5.57h-35.7v89.21c0,3.01-1.12,5.65-3.32,7.86
				C994.61,1027.73,991.97,1028.84,988.97,1028.84z M1033.45,909.22v-11.63h-33.3v11.63H1033.45z M1033.45,879.73v-10.06h-33.3
				v10.06H1033.45z M1105.76,1028.65c-3.32,0-6.24-1-8.68-2.99c-2.6-2.03-4.53-4.69-5.7-7.9l-0.04-0.13
				c-0.31-1.08-0.47-2.12-0.47-3.09c0-1.7,0.51-3.32,1.51-4.82c1.48-2.47,3.9-3.82,6.94-3.82c5.57,0.13,12.65,0.2,21.09,0.2
				c2.71-0.1,3.27-1.25,3.27-3.08v-74.37h-37.45c-5.21,0-9.73-1.87-13.43-5.57c-3.7-3.7-5.57-8.21-5.57-13.43v-40.63
				c0-5.21,1.87-9.73,5.57-13.43c3.7-3.7,8.21-5.57,13.43-5.57h41.41c5.21,0,9.73,1.87,13.43,5.57c3.7,3.7,5.57,8.21,5.57,13.43
				V1003c0,6.22-0.8,10.88-2.45,14.26c-1.71,3.5-4.72,6.16-8.94,7.9c-5.38,2.07-14.93,3.2-29.24,3.47h-0.02h-0.23L1105.76,1028.65
				L1105.76,1028.65z M1123.68,909.41v-11.82h-34.67v11.82H1123.68z M1123.68,879.73v-10.06h-34.67v10.06H1123.68z"/>
			<path class="st32" d="M988.97,1028.84c-3.01,0-5.66-1.12-7.86-3.32s-3.32-4.85-3.32-7.86V869.03c0-5.21,1.87-9.73,5.57-13.43
				c3.7-3.7,8.21-5.57,13.43-5.57h39.06c5.21,0,9.73,1.87,13.43,5.57c3.7,3.7,5.57,8.21,5.57,13.43v40.43
				c0,5.21-1.87,9.73-5.57,13.43c-3.7,3.7-8.21,5.57-13.43,5.57h-35.7v89.21c0,3.01-1.12,5.65-3.32,7.86
				C994.61,1027.73,991.97,1028.84,988.97,1028.84z M1033.45,909.22v-11.63h-33.3v11.63H1033.45z M1033.45,879.73v-10.06h-33.3
				v10.06H1033.45z M1105.76,1028.65c-3.32,0-6.24-1-8.68-2.99c-2.6-2.03-4.53-4.69-5.7-7.9l-0.04-0.13
				c-0.31-1.08-0.47-2.12-0.47-3.09c0-1.7,0.51-3.32,1.51-4.82c1.48-2.47,3.9-3.82,6.94-3.82c5.57,0.13,12.65,0.2,21.09,0.2
				c2.71-0.1,3.27-1.25,3.27-3.08v-74.37h-37.45c-5.21,0-9.73-1.87-13.43-5.57c-3.7-3.7-5.57-8.21-5.57-13.43v-40.63
				c0-5.21,1.87-9.73,5.57-13.43c3.7-3.7,8.21-5.57,13.43-5.57h41.41c5.21,0,9.73,1.87,13.43,5.57c3.7,3.7,5.57,8.21,5.57,13.43
				V1003c0,6.22-0.8,10.88-2.45,14.26c-1.71,3.5-4.72,6.16-8.94,7.9c-5.38,2.07-14.93,3.2-29.24,3.47h-0.02h-0.23L1105.76,1028.65
				L1105.76,1028.65z M1123.68,909.41v-11.82h-34.67v11.82H1123.68z M1123.68,879.73v-10.06h-34.67v10.06H1123.68z"/>
		</g>
		<g>
			<path class="st30" d="M1269.24,1033.33c-2.74,0-5.18-1.01-7.25-3c-2.09-2.01-3.15-4.5-3.15-7.4v-11.87h-35.7
				c-2.36,0-4.45-0.89-6.2-2.64s-2.64-3.87-2.64-6.3c0-2.43,0.89-4.55,2.64-6.3s3.83-2.64,6.2-2.64h4.84v-12.1
				c-1.75-0.26-3.32-1.08-4.69-2.45c-1.68-1.68-2.54-3.67-2.54-5.9v-0.59c0-2.49,0.89-4.65,2.64-6.39c1.75-1.75,3.9-2.64,6.39-2.64
				h29.05v-6.74h-15.58c-5.21,0-9.73-1.87-13.43-5.57c-3.7-3.7-5.57-8.21-5.57-13.43v-6.64c0-5.21,1.87-9.73,5.57-13.43
				c3.7-3.7,8.21-5.57,13.43-5.57H1279c5.21,0,9.73,1.87,13.43,5.57c3.7,3.7,5.57,8.21,5.57,13.43v6.84c0,5.21-1.84,9.7-5.47,13.33
				c-3.62,3.62-8.02,5.46-13.09,5.47v6.74h12.26c2.36,0,4.45,0.89,6.2,2.64s2.64,3.9,2.64,6.39s-0.89,4.65-2.64,6.39
				c-1.75,1.75-3.83,2.64-6.2,2.64h-12.26v12.02h14.99c2.49,0,4.65,0.89,6.39,2.64c1.75,1.75,2.64,3.87,2.64,6.3
				c0,2.43-0.89,4.55-2.64,6.3s-3.9,2.64-6.39,2.64h-14.99v11.87c0,2.88-1.02,5.36-3.03,7.37
				C1274.4,1032.32,1271.99,1033.33,1269.24,1033.33z M1258.84,993.2v-12.02h-12.41v12.02H1258.84z M1278.96,939.69v-11.43h-37.02
				v11.43H1278.96z M1199.13,1033.33c-2.88,0-5.4-1.05-7.47-3.13c-2.07-2.07-3.13-4.59-3.13-7.47v-74.08
				c-1.38,1.78-2.82,3.55-4.29,5.27c-1.87,2.04-4.07,3.04-6.6,3.04h-1.08l-0.1-0.01c-3.09-0.32-5.57-1.95-7.18-4.69
				c-1.34-2.24-2.03-4.69-2.03-7.26v-1.65l0.01-0.09c0.3-3.3,1.6-6.2,3.85-8.61c9.48-10.25,18-21.89,25.31-34.59
				c2.15-4.01,5.4-6.89,9.62-8.49c2.15-0.86,4.43-1.3,6.76-1.3c1.74,0,3.55,0.3,5.4,0.91c0.23-0.43,0.53-0.83,0.9-1.2
				c0.96-0.96,2.16-1.46,3.46-1.46h15.43c0.22,0,0.3-0.04,0.3-0.04l0,0c-0.01,0,0.04-0.1,0.09-0.31c0.11-0.68,0.7-3.7,2.02-10.3
				h-8.07c-2.37,0-4.42-0.85-6.1-2.54c-1.68-1.68-2.54-3.73-2.54-6.1c0-2.36,0.85-4.42,2.54-6.1c1.68-1.68,3.74-2.54,6.1-2.54h10.94
				c0.25-1.5,0.49-3.15,0.75-5.1c0.32-2.71,1.68-4.99,4.04-6.75c1.79-1.59,3.86-2.4,6.15-2.4h0.9l0.12,0.01
				c2.76,0.33,4.99,1.57,6.62,3.7c1.63,2.12,2.29,4.58,1.96,7.31l-0.01,0.1c-0.19,1.15-0.35,2.2-0.47,3.13h12.75
				c5.21,0,9.73,1.87,13.43,5.57c3.7,3.7,5.57,8.21,5.57,13.43v8.94h1.91c2.66,0,4.9,0.97,6.65,2.9c1.71,1.87,2.57,4.03,2.57,6.43
				c0,2.41-0.88,4.55-2.6,6.36c-1.75,1.84-3.98,2.77-6.62,2.77h-69.73c-2.63,0-4.91-0.95-6.79-2.83c-0.59-0.59-1.09-1.23-1.5-1.9
				c-2.68,5.09-5.55,10.21-8.54,15.27c-0.48,0.76-0.7,1.57-0.7,2.5v102.73c0,2.88-1.05,5.39-3.12,7.47
				C1204.51,1032.28,1202.01,1033.33,1199.13,1033.33z M1275.64,888.51v-10.65h-14.99c-0.22,0-0.3,0.04-0.3,0.04l0,0
				c0.01,0-0.04,0.1-0.08,0.31c-0.62,4.09-1.23,7.5-1.85,10.3H1275.64L1275.64,888.51z M1312.6,1033.14c-2.93,0-5.58-0.94-7.89-2.78
				c-2.41-1.96-4.08-4.53-4.97-7.65c-0.82-2.6-0.42-5.22,1.15-7.54c1.52-2.24,3.73-3.43,6.4-3.43c0.16,0,0.32,0,0.49,0.01h9.79
				c0.78-0.1,1.08-0.26,1.14-0.3c-0.01-0.02,0.1-0.31,0.1-1.02v-78.66h-9.52c-2.9,0-5.39-1.06-7.4-3.15c-1.99-2.06-3-4.57-3-7.44
				c0-2.88,1.02-5.37,3.03-7.37c2.01-2.01,4.49-3.03,7.37-3.03h36.33c2.88,0,5.36,1.02,7.37,3.03s3.03,4.49,3.03,7.37
				c0,2.85-0.97,5.35-2.88,7.41c-1.95,2.11-4.48,3.18-7.52,3.18h-5.43v78.86c0,5.11-0.56,9.02-1.7,11.96
				c-1.23,3.13-3.52,5.56-6.83,7.21c-3.94,1.97-10.03,3.06-18.61,3.34h-0.03L1312.6,1033.14L1312.6,1033.14z M1179.01,898.96
				c-0.54,0-1.07-0.08-1.6-0.23c-2.73-0.37-4.92-1.78-6.51-4.17c-1.27-2.05-1.9-4.25-1.9-6.58v-1.28c0.16-2.9,1.38-5.35,3.63-7.27
				c8.64-8.01,16.03-16.5,21.91-25.19c1.64-2.54,3.94-4.31,6.81-5.25c1.39-0.6,2.81-0.91,4.22-0.91c1.42,0,2.92,0.31,4.45,0.92
				c2.61,0.98,4.46,2.9,5.44,5.68c0.34,1.02,0.5,2.02,0.5,3.01c0,1.7-0.51,3.32-1.51,4.82c-8.66,12.59-18.55,24.01-29.42,33.96
				C1183.42,898.1,1181.38,898.96,1179.01,898.96z M1312.6,878.45c-2.88,0-5.37-1.02-7.37-3.03c-2.01-2-3.03-4.48-3.03-7.37
				c0-2.88,1.02-5.37,3.03-7.37c2.01-2.01,4.49-3.03,7.37-3.03h29.69c2.74,0,5.17,1.01,7.25,3c2.09,2.02,3.15,4.51,3.15,7.4
				s-1.06,5.38-3.15,7.4c-2.07,1.99-4.51,3-7.25,3H1312.6z"/>
			<path class="st32" d="M1269.24,1033.33c-2.74,0-5.18-1.01-7.25-3c-2.09-2.01-3.15-4.5-3.15-7.4v-11.87h-35.7
				c-2.36,0-4.45-0.89-6.2-2.64s-2.64-3.87-2.64-6.3c0-2.43,0.89-4.55,2.64-6.3s3.83-2.64,6.2-2.64h4.84v-12.1
				c-1.75-0.26-3.32-1.08-4.69-2.45c-1.68-1.68-2.54-3.67-2.54-5.9v-0.59c0-2.49,0.89-4.65,2.64-6.39c1.75-1.75,3.9-2.64,6.39-2.64
				h29.05v-6.74h-15.58c-5.21,0-9.73-1.87-13.43-5.57c-3.7-3.7-5.57-8.21-5.57-13.43v-6.64c0-5.21,1.87-9.73,5.57-13.43
				c3.7-3.7,8.21-5.57,13.43-5.57H1279c5.21,0,9.73,1.87,13.43,5.57c3.7,3.7,5.57,8.21,5.57,13.43v6.84c0,5.21-1.84,9.7-5.47,13.33
				c-3.62,3.62-8.02,5.46-13.09,5.47v6.74h12.26c2.36,0,4.45,0.89,6.2,2.64s2.64,3.9,2.64,6.39s-0.89,4.65-2.64,6.39
				c-1.75,1.75-3.83,2.64-6.2,2.64h-12.26v12.02h14.99c2.49,0,4.65,0.89,6.39,2.64c1.75,1.75,2.64,3.87,2.64,6.3
				c0,2.43-0.89,4.55-2.64,6.3s-3.9,2.64-6.39,2.64h-14.99v11.87c0,2.88-1.02,5.36-3.03,7.37
				C1274.4,1032.32,1271.99,1033.33,1269.24,1033.33z M1258.84,993.2v-12.02h-12.41v12.02H1258.84z M1278.96,939.69v-11.43h-37.02
				v11.43H1278.96z M1199.13,1033.33c-2.88,0-5.4-1.05-7.47-3.13c-2.07-2.07-3.13-4.59-3.13-7.47v-74.08
				c-1.38,1.78-2.82,3.55-4.29,5.27c-1.87,2.04-4.07,3.04-6.6,3.04h-1.08l-0.1-0.01c-3.09-0.32-5.57-1.95-7.18-4.69
				c-1.34-2.24-2.03-4.69-2.03-7.26v-1.65l0.01-0.09c0.3-3.3,1.6-6.2,3.85-8.61c9.48-10.25,18-21.89,25.31-34.59
				c2.15-4.01,5.4-6.89,9.62-8.49c2.15-0.86,4.43-1.3,6.76-1.3c1.74,0,3.55,0.3,5.4,0.91c0.23-0.43,0.53-0.83,0.9-1.2
				c0.96-0.96,2.16-1.46,3.46-1.46h15.43c0.22,0,0.3-0.04,0.3-0.04l0,0c-0.01,0,0.04-0.1,0.09-0.31c0.11-0.68,0.7-3.7,2.02-10.3
				h-8.07c-2.37,0-4.42-0.85-6.1-2.54c-1.68-1.68-2.54-3.73-2.54-6.1c0-2.36,0.85-4.42,2.54-6.1c1.68-1.68,3.74-2.54,6.1-2.54h10.94
				c0.25-1.5,0.49-3.15,0.75-5.1c0.32-2.71,1.68-4.99,4.04-6.75c1.79-1.59,3.86-2.4,6.15-2.4h0.9l0.12,0.01
				c2.76,0.33,4.99,1.57,6.62,3.7c1.63,2.12,2.29,4.58,1.96,7.31l-0.01,0.1c-0.19,1.15-0.35,2.2-0.47,3.13h12.75
				c5.21,0,9.73,1.87,13.43,5.57c3.7,3.7,5.57,8.21,5.57,13.43v8.94h1.91c2.66,0,4.9,0.97,6.65,2.9c1.71,1.87,2.57,4.03,2.57,6.43
				c0,2.41-0.88,4.55-2.6,6.36c-1.75,1.84-3.98,2.77-6.62,2.77h-69.73c-2.63,0-4.91-0.95-6.79-2.83c-0.59-0.59-1.09-1.23-1.5-1.9
				c-2.68,5.09-5.55,10.21-8.54,15.27c-0.48,0.76-0.7,1.57-0.7,2.5v102.73c0,2.88-1.05,5.39-3.12,7.47
				C1204.51,1032.28,1202.01,1033.33,1199.13,1033.33z M1275.64,888.51v-10.65h-14.99c-0.22,0-0.3,0.04-0.3,0.04l0,0
				c0.01,0-0.04,0.1-0.08,0.31c-0.62,4.09-1.23,7.5-1.85,10.3H1275.64L1275.64,888.51z M1312.6,1033.14c-2.93,0-5.58-0.94-7.89-2.78
				c-2.41-1.96-4.08-4.53-4.97-7.65c-0.82-2.6-0.42-5.22,1.15-7.54c1.52-2.24,3.73-3.43,6.4-3.43c0.16,0,0.32,0,0.49,0.01h9.79
				c0.78-0.1,1.08-0.26,1.14-0.3c-0.01-0.02,0.1-0.31,0.1-1.02v-78.66h-9.52c-2.9,0-5.39-1.06-7.4-3.15c-1.99-2.06-3-4.57-3-7.44
				c0-2.88,1.02-5.37,3.03-7.37c2.01-2.01,4.49-3.03,7.37-3.03h36.33c2.88,0,5.36,1.02,7.37,3.03s3.03,4.49,3.03,7.37
				c0,2.85-0.97,5.35-2.88,7.41c-1.95,2.11-4.48,3.18-7.52,3.18h-5.43v78.86c0,5.11-0.56,9.02-1.7,11.96
				c-1.23,3.13-3.52,5.56-6.83,7.21c-3.94,1.97-10.03,3.06-18.61,3.34h-0.03L1312.6,1033.14L1312.6,1033.14z M1179.01,898.96
				c-0.54,0-1.07-0.08-1.6-0.23c-2.73-0.37-4.92-1.78-6.51-4.17c-1.27-2.05-1.9-4.25-1.9-6.58v-1.28c0.16-2.9,1.38-5.35,3.63-7.27
				c8.64-8.01,16.03-16.5,21.91-25.19c1.64-2.54,3.94-4.31,6.81-5.25c1.39-0.6,2.81-0.91,4.22-0.91c1.42,0,2.92,0.31,4.45,0.92
				c2.61,0.98,4.46,2.9,5.44,5.68c0.34,1.02,0.5,2.02,0.5,3.01c0,1.7-0.51,3.32-1.51,4.82c-8.66,12.59-18.55,24.01-29.42,33.96
				C1183.42,898.1,1181.38,898.96,1179.01,898.96z M1312.6,878.45c-2.88,0-5.37-1.02-7.37-3.03c-2.01-2-3.03-4.48-3.03-7.37
				c0-2.88,1.02-5.37,3.03-7.37c2.01-2.01,4.49-3.03,7.37-3.03h29.69c2.74,0,5.17,1.01,7.25,3c2.09,2.02,3.15,4.51,3.15,7.4
				s-1.06,5.38-3.15,7.4c-2.07,1.99-4.51,3-7.25,3H1312.6z"/>
		</g>
	</g>
</g>
<path class="st33" d="M483.82,1033.23H409.6c-28.48,0-51.56-23.09-51.56-51.56v-74.22c0-28.48,23.09-51.56,51.56-51.56h74.22
	c28.48,0,51.56,23.09,51.56,51.56v74.22C535.39,1010.14,512.3,1033.23,483.82,1033.23z"/>
<polygon class="st34" points="478.06,973.54 568.83,826.59 542.39,808.06 452.42,953.71 399.27,912.6 382.04,937.71 461.2,998.95 
	462.63,996.87 463.35,997.37 472.83,982.01 478.44,973.84 "/>
</svg>
