<?xml version="1.0" encoding="utf-8"?>
<!-- Generator: Adobe Illustrator 23.0.5, SVG Export Plug-In . SVG Version: 6.00 Build 0)  -->
<svg version="1.1" id="圖層_1" xmlns="http://www.w3.org/2000/svg" xmlns:xlink="http://www.w3.org/1999/xlink" x="0px" y="0px"
	 viewBox="0 0 1920 1080" style="enable-background:new 0 0 1920 1080;" xml:space="preserve">
<style type="text/css">
	.st0{fill:#87593A;}
	.st1{fill:#7F8E92;}
	.st2{fill:#F9B622;}
	.st3{fill:#DDEFF4;}
	.st4{fill:#788C8E;}
	.st5{fill:#474143;}
	.st6{fill:#C21824;}
	.st7{fill:#280811;}
	.st8{fill:#A1A9AC;}
	.st9{fill:#26080B;}
	.st10{fill:#889398;}
	.st11{fill:#2C0A0E;}
	.st12{fill:#FDFDFD;}
	.st13{fill:url(#SVGID_1_);}
	.st14{fill:#2A0914;}
	.st15{fill:#FDFBFC;}
	.st16{fill:#290C14;}
	.st17{fill:#2B0C14;}
	.st18{fill:#FCFCFC;}
	.st19{fill:#280E14;}
	.st20{fill:#FFFFFF;}
	.st21{fill:#EEF8FB;}
	.st22{fill:#FAFBFA;}
	.st23{fill:none;stroke:#000000;stroke-width:2;stroke-miterlimit:10;}
	.st24{fill:#FFFFFF;stroke:#000000;stroke-width:6;stroke-miterlimit:10;}
	.st25{fill:#7FEF6C;}
</style>
<g>
	<g>
		<path class="st0" d="M691.75,332.52c65.02,202.81,98.86,416.28,150.8,623.78c0.71,2.86,1.6,5.98,3.84,7.57
			c1.72,1.23,3.89,1.28,5.93,1.3c14.05,0.09,28.09,0.19,42.13,0.28c1.47,0.01,3.08-0.04,4.18-1.13c1.23-1.22,1.35-3.29,1.33-5.13
			c-0.2-17.31-5.69-33.92-11.24-50.06c-23.61-68.71-49.7-136.57-67.46-207.47c-14.41-57.53-23.21-116.59-34.37-175.02
			c-15.99-83.74-36.85-166.29-62.4-246.99c-13.12,4.12-25.67,10.49-37.08,18.83c-3.42,2.49-6.92,5.43-8.31,9.73
			c-4.19,12.93,12.62,22.37,15.27,35.8"/>
	</g>
	<g>
		<path class="st1" d="M616.4,173.92c1.81-4.61,8.19-3.99,11.54-0.65c3.37,3.34,5.17,8.32,8.5,11.7c3.92,3.99,9.43,5.28,14.68,6.06
			c22.22,3.31,45.43,0.14,65.58-10.87s37.01-30.12,45.03-53.57c13.69,60.59,27.37,121.19,41.06,181.78
			c-13.74-12.11-32.28-16.11-49.6-13.47c-17.31,2.64-33.51,11.43-47.86,22.6c-22.42,17.45-40.82,40.69-56.96,65.37
			c-27.08-56.56-32.68-122.49-37.77-186.42c-0.47-5.84-0.91-11.84,0.61-17.45c1.53-5.6,5.54-10.77,10.73-11.46"/>
	</g>
	<g>
		<path class="st2" d="M879.95,633.08c-21.21-16.8-48.48-34.23-71.46-20.66c-14.65,8.65-21.92,27.22-27.98,44.49
			c-35.09,99.95-65.37,202.01-90.64,305.6c215.43,6.47,431.02,6.4,646.45-0.22c-3.87-45.78-16.39-90.01-28.83-133.84
			c-8.19-28.87-16.39-57.74-24.58-86.61c-4.84-17.07-9.74-34.25-17.3-50.03c-21.12-44.05-62.54-73.67-106.49-82.28
			c-17.11-3.35-36.12-3.33-50.2,8.09c-5.03,4.07-9.15,9.39-14.12,13.53c-8.13,6.77-18.1,10.07-27.87,13.09
			c-31.18,9.67-63.05,18-95.4,17.92s-65.52-9.21-91.07-31.44"/>
	</g>
	<g>
		<path class="st3" d="M882.34,716.94c45.75,33.7,87.95,73.43,125.47,118.11c24.12-17.23,43.86-40.94,64.81-62.76
			c20.96-21.82,44.16-42.42,71.68-51.15c2.7-0.86,5.79-1.54,8.15,0.16c2.88,2.07,3.25,6.55,3.24,10.38
			c-0.05,16.49-1.46,33.03-0.16,49.46c2.34,29.6,13.36,57.47,17.81,86.75c4.51,29.69,2.18,60.09-0.16,90.09
			c-0.14,1.8-0.41,3.85-1.76,4.83c-0.8,0.58-1.81,0.65-2.76,0.69c-86.18,3.96-172.49,4.6-258.7,1.92c-1.42-0.05-4.47,0-8.08-1.47
			c-10.63-4.34-19.32-18.72-26.68-64.75c-3.81-23.8-4.52-38.15-6.03-58.91c-5.77-79.44-16.52-110.22-2.43-121.03
			c2.79-2.14,8.05-4.64,17.99-2.29"/>
	</g>
	<g>
		<path class="st4" d="M1013.95,853.16c21.15-21.37,43.56-43.1,67.27-65.02c23.72-21.92,47.03-42.46,69.78-61.68
			c11.21,61.56,18.99,110.87,24.61,143.69c0,0,1.73,10.09-1.08,69.69c-0.13,2.81-0.54,8.9-4.38,13.35
			c-4.12,4.78-10.82,5.02-16.78,4.93c-47.22-0.65-94.43-1.3-141.64-1.95c-1.69-0.03-3.6-0.15-4.71-1.55
			c-1.2-1.51-1.11-3.64-1.09-4.35c0.18-4.62,0.3-36.12,0.48-80.2C1008.93,864.45,1011.44,858.81,1013.95,853.16z"/>
	</g>
	<g>
		<g>
			<path class="st5" d="M1055.45,840.46c-0.61,1.02-1.22,2.05-1.83,3.06c-0.1,0.16,0.15,0.29,0.25,0.14
				c0.61-1.02,1.22-2.05,1.83-3.06C1055.79,840.45,1055.54,840.31,1055.45,840.46L1055.45,840.46z"/>
		</g>
	</g>
	<g>
		<g>
			<path class="st5" d="M1066.53,942.99c14.14-3.98,27.64-9.87,40.14-17.35c0.15-0.09,0.01-0.33-0.14-0.24
				c-12.49,7.47-25.95,13.35-40.07,17.32C1066.28,942.78,1066.35,943.04,1066.53,942.99L1066.53,942.99z"/>
		</g>
	</g>
	<g>
		<g>
			<path class="st5" d="M875.06,732.37c0.18,0,0.18-0.27,0-0.27C874.88,732.09,874.88,732.37,875.06,732.37L875.06,732.37z"/>
		</g>
	</g>
	<g>
		<g>
			<path class="st5" d="M1144,744.63c0.18,0,0.18-0.27,0-0.27S1143.82,744.63,1144,744.63L1144,744.63z"/>
		</g>
	</g>
	<g>
		<path class="st6" d="M900.45,585.81c-17.86,10.93-34.28,24.8-48.59,41.03c41.67,54.83,100.15,90.41,144.66,142.36
			c1.3,1.52,2.69,3.13,4.51,3.64c2.32,0.66,4.69-0.6,6.81-1.85c56.7-33.45,105.02-81.94,152.59-130.03
			c2.55-2.58,5.34-5.98,4.48-9.71c-0.33-1.47-1.22-2.7-2.07-3.88c-11.48-15.85-22.95-31.71-34.42-47.56
			c-1.78-2.46-3.64-4.99-6.16-6.42c-3.07-1.75-6.69-1.62-10.13-1.37c-36.01,2.57-71.15,13.63-107.07,17.62
			c-33.9,3.76-68.36,1.13-101.5-7.74"/>
	</g>
	<g>
		<path class="st7" d="M892.18,589.18c-0.58,9.92-1.17,19.84-1.75,29.76c-0.2,3.4-0.39,6.91,0.6,10.13c1.05,3.44,3.32,6.2,5.56,8.84
			c31.7,37.26,68.59,68.95,108.93,93.59c4.24,2.59,8.65,5.14,13.45,5.61c8.18,0.8,15.72-4.5,22.57-9.58
			c31.59-23.46,64.45-48.47,82.16-86.02c5.37-11.37,9.22-23.95,9.02-36.81c-0.09-5.26-1.04-10.93-4.47-14.53
			c-3.74-3.92-9.35-4.35-14.47-4.55c-27.31-1.1-54.93-2.08-81.65,4.31c-10.31,2.47-20.41,6.01-30.78,8.11
			c-35.5,7.19-71.78-2.88-106.73-12.87"/>
	</g>
	<g>
		<path class="st8" d="M1188.63,338.19c9.7-2.14,19.51,5.44,24.04,15.29s4.85,21.42,4.4,32.48c-0.25,5.94-0.72,12.02-2.98,17.41
			c-2.26,5.38-6.62,10.01-11.91,10.65c-2.96,0.36-6.38-0.92-7.54-3.99c-0.52-1.38-0.52-2.91-0.52-4.41
			c0.03-16.2,0.06-32.4,0.09-48.6c0.01-4.8,0-9.73-1.53-14.21"/>
		<g>
			<path class="st9" d="M1188.65,338.26c10.55-2.21,19.78,6.41,23.81,14.92c4.94,10.43,5.02,22.38,4.5,33.61
				c-0.27,5.9-0.78,12.07-3.37,17.52c-2.07,4.37-5.88,8.81-11.1,9.59c-2.49,0.37-5.23-0.37-6.83-2.3c-1.97-2.38-1.46-5.88-1.46-8.72
				c0.01-6.36,0.02-12.72,0.04-19.08c0.01-7.12,0.03-14.24,0.04-21.35c0.01-6.51,0.56-13.38-1.52-19.68
				c-0.03-0.08-0.16-0.05-0.13,0.04c2.12,6.42,1.53,13.45,1.52,20.1c-0.01,6.82-0.03,13.62-0.04,20.44s-0.03,13.62-0.04,20.44
				c-0.01,2.63-0.34,5.68,1.48,7.89c1.17,1.43,2.99,2.23,4.84,2.41c4.76,0.48,8.96-2.94,11.45-6.49c3.36-4.76,4.47-10.62,4.98-16.25
				c0.54-6.11,0.68-12.34,0.3-18.46c-0.35-5.86-1.29-11.74-3.45-17.26c-3.71-9.52-13.31-19.98-25.06-17.52
				C1188.53,338.14,1188.57,338.28,1188.65,338.26L1188.65,338.26z"/>
		</g>
	</g>
	<g>
		<path class="st8" d="M1164.69,324.27c5.56-6.99,12.59-14.52,20.87-13.35c6.25,0.89,11.19,6.8,13.44,13.4s2.3,13.83,2.33,20.89
			c0.08,19.36,0.15,38.72,0.24,58.09c0.01,3.32,0.02,6.68-0.79,9.86c-1.64,6.39-6.77,11.47-12.63,12.49s-12.13-2.07-15.42-7.6
			c-2.42-4.06-3.21-9.03-3.88-13.84c-3.72-26.33-5.71-52.97-5.94-79.63"/>
		<g>
			<path class="st9" d="M1164.75,324.31c4.51-5.67,10.61-13.2,18.77-13.43c8.09-0.23,13.5,7.43,15.61,14.05
				c2.75,8.61,2.12,17.96,2.16,26.85c0.04,9.3,0.08,18.6,0.11,27.91c0.02,4.69,0.04,9.38,0.06,14.06c0.02,4.61,0.19,9.26-0.02,13.86
				c-0.18,4.19-1.12,8.25-3.69,11.71c-2.14,2.88-5.23,5.22-8.84,6.08c-3.67,0.88-7.58,0.04-10.73-1.91
				c-3.63-2.24-5.94-5.73-7.25-9.61c-1.4-4.14-1.87-8.53-2.46-12.82c-0.63-4.61-1.2-9.25-1.72-13.87
				c-2.07-18.48-3.3-37.04-3.68-55.63c-0.05-2.33-0.08-4.67-0.1-7c0-0.09-0.14-0.09-0.14,0c0.18,19.86,1.32,39.73,3.45,59.49
				c0.53,4.93,1.11,9.86,1.77,14.78c0.59,4.46,1.04,9.01,2.24,13.37c1.04,3.78,2.8,7.38,5.9,10.01c2.54,2.15,5.8,3.55,9.19,3.68
				c7.18,0.28,13.07-5.31,15.13-11.54c1.44-4.35,1.15-9.06,1.13-13.56c-0.02-4.99-0.04-9.99-0.06-14.98
				c-0.04-9.99-0.08-19.97-0.12-29.95c-0.02-4.9,0-9.8-0.08-14.7c-0.08-4.5-0.31-9.05-1.33-13.46c-1.52-6.62-5.46-14.32-12.74-16.48
				c-7.56-2.25-14.27,3.44-18.86,8.5c-1.32,1.45-2.58,2.98-3.81,4.51C1164.57,324.31,1164.7,324.37,1164.75,324.31L1164.75,324.31z"
				/>
		</g>
	</g>
	<g>
		<path class="st8" d="M1137.33,342.79c5.24-10.57,15.23-16.87,24.72-22.63c1.47-0.9,3-1.8,4.66-1.94c3.3-0.27,6.27,2.68,7.52,6.12
			s1.14,7.28,1.03,10.99c-0.85,26.68-1.68,53.36-2.53,80.04c-0.03,0.79-0.06,1.61-0.33,2.34c-0.72,1.88-2.93,2.56-4.68,1.99
			s-3.14-2.04-4.42-3.5c-16.89-19.42-27-46.07-27.72-73.18"/>
		<g>
			<path class="st9" d="M1137.4,342.83c3.07-6.11,7.91-11.08,13.45-15.23c2.73-2.05,5.61-3.9,8.51-5.7
				c2.96-1.83,6.56-4.81,10.22-3.03c3.66,1.77,5.09,5.99,5.49,9.64c0.43,3.91,0.08,7.91-0.05,11.83c-0.27,8.42-0.53,16.83-0.8,25.25
				c-0.27,8.34-0.52,16.68-0.79,25.02c-0.27,8.39-0.32,16.8-0.8,25.18c-0.12,2.19-1.26,4.09-3.78,4.06
				c-2.01-0.03-3.63-1.6-4.86-2.94c-2.4-2.62-4.59-5.45-6.65-8.32c-4.1-5.71-7.62-11.81-10.56-18.15
				c-6.14-13.21-9.81-27.5-10.87-41.93c-0.13-1.82-0.22-3.65-0.28-5.46c0-0.09-0.14-0.09-0.14,0c0.44,15.3,3.77,30.52,9.9,44.65
				c2.94,6.78,6.52,13.3,10.75,19.42c2.06,2.97,4.26,5.84,6.61,8.59c1.75,2.05,4.25,5.07,7.42,4.09c1.12-0.35,1.98-1.15,2.34-2.24
				c0.61-1.85,0.34-4.12,0.4-6.04c0.14-4.47,0.29-8.95,0.43-13.41c0.29-9.1,0.57-18.19,0.87-27.29c0.29-9.02,0.57-18.04,0.86-27.07
				c0.13-4.31,0.45-8.66,0.31-12.98c-0.11-3.44-0.7-7.07-3.01-9.83c-1.87-2.26-4.64-3.45-7.56-2.32c-1.69,0.66-3.24,1.75-4.77,2.69
				s-3.06,1.89-4.55,2.88c-5.82,3.82-11.36,8.2-15.37,13.82c-1.08,1.51-2.02,3.1-2.86,4.75
				C1137.24,342.84,1137.36,342.91,1137.4,342.83L1137.4,342.83z"/>
		</g>
	</g>
	<g>
		<path class="st10" d="M1018.51,33.69c32.58,79.89,79.37,152.46,136.81,212.22c-48.4,0.41-96.79,0.81-145.19,1.22
			c-1.43,0.01-3.05-0.06-3.99-1.27c-0.82-1.04-0.84-2.59-0.81-3.97c0.16-8,0.32-15.98,0.49-23.98
			c1.19-58.46,2.37-116.93,3.56-175.39c0.02-1.11,0.1-2.33,0.81-3.09c1.41-1.49,3.65,0.14,4.95,1.74
			c5.35,6.55,10.08,13.75,14.08,21.43"/>
	</g>
	<g>
		<path class="st11" d="M859.57,258.9c14.6,0.46,29.2,0.9,43.8,1.36c0.74,0.03,1.55,0.07,2.12,0.61c1.35,1.29,0.15,3.71-1.06,5.16
			c-2.89,3.48-5.79,6.96-8.68,10.44c-1.48,1.79-3.05,3.63-5.07,4.53c-1.76,0.79-3.71,0.79-5.61,0.77
			c-6.54-0.05-13.08-0.09-19.63-0.15c-0.89-0.01-1.87-0.04-2.58-0.66c-0.85-0.73-1.05-2.04-1.2-3.23
			c-0.72-5.85-1.44-11.69-2.16-17.53"/>
	</g>
	<path class="st12" d="M861.39,550.03"/>
	<g>
		
			<linearGradient id="SVGID_1_" gradientUnits="userSpaceOnUse" x1="875.6461" y1="532.2187" x2="1229.5297" y2="852.2969" gradientTransform="matrix(1 0 0 -1 0 1080)">
			<stop  offset="0" style="stop-color:#D4ECEF"/>
			<stop  offset="0.0614" style="stop-color:#CFE6E9"/>
			<stop  offset="0.6958" style="stop-color:#9AAFAF"/>
			<stop  offset="1" style="stop-color:#859A98"/>
		</linearGradient>
		<path class="st13" d="M868.81,270.43c-0.44,96.77-0.89,193.52-1.32,290.29c-0.02,4.81-0.02,9.77,1.65,14.2
			c1.68,4.49,4.9,7.98,8.06,11.32c38.34,40.69,79.07,78.55,121.83,113.26c3.29,2.67,6.93,5.45,10.98,5.28
			c3.7-0.15,6.94-2.72,9.91-5.21c45.07-37.68,87.78-78.92,127.7-123.3c1.57-1.74,3.17-3.56,3.95-5.87c0.7-2.07,0.68-4.34,0.65-6.55
			c-0.58-40.36-1.15-80.71-1.73-121.07c-0.82-57.26-1.66-114.78-10.4-171.19c-89.6-10.94-180.77,18.2-269.82,2.67"/>
	</g>
	<g>
		<path class="st14" d="M1029.3,332.45c3.46-8.86,11.08-15.05,19.27-18.11s16.98-3.38,25.61-3.28c6.81,0.08,14.27,0.69,19.23,5.93
			c2.2,2.32,3.68,5.35,5.13,8.32c2.21,4.53,4.41,9.07,6.61,13.61c-12.24-11.34-29.66-15.24-44.85-10.04
			c-7.73,2.64-14.71,7.4-22.11,11.06c-1.31,0.65-2.74,1.28-4.15,0.95c-2.22-0.52-3.52-3.34-3.41-5.88s1.28-4.85,2.41-7.05"/>
	</g>
	<g>
		<path class="st14" d="M902.23,330.57c5.98-11.01,15.59-19.46,26.55-23.34c8.88-3.14,18.75-3.26,27.38,0.66
			s15.85,12.09,18.41,22.12c0.65,2.52,0.91,5.52-0.62,7.5c-2.01,2.61-5.94,1.83-8.33-0.35c-2.39-2.17-3.88-5.35-6.09-7.75
			c-4.8-5.24-12.11-6.12-18.81-6.2c-11.48-0.12-23.97,1.81-32.05,10.96c-1.28,1.45-2.59,3.16-4.4,3.42
			c-1.68,0.24-3.44-1.09-3.86-2.93c-0.43-1.85,0.52-3.96,2.1-4.67"/>
	</g>
	<g>
		<path class="st15" d="M926.99,353.16c-8.28,9.91-13.01,23.46-12.93,37.03c0.02,2.87,0.25,5.77,1.17,8.44
			c0.95,2.75,2.6,5.14,4.35,7.34c5.19,6.53,12.05,12.16,19.84,12.52c9.85,0.46,18.81-8.02,22.35-18.33s2.54-21.94-0.2-32.55
			c-1.96-7.59-5.42-15.63-11.99-18.49c-3.04-1.32-6.39-1.36-9.65-1.38c-4.75-0.03-10.61,0.75-12.33,5.7"/>
	</g>
	<g>
		<path class="st15" d="M1050.07,354.02c-3.65,1.29-4.68,6.45-4.83,10.73c-0.29,8,0.43,16.04,2.09,23.81
			c1.68,7.8,4.42,15.52,9.24,21.45c4.83,5.92,12.01,9.83,19.11,8.81c9.24-1.33,16.26-10.55,19.25-20.45
			c4.47-14.74,1.29-32.55-9.09-42.88c-10.38-10.34-27.78-11.28-38.02-0.76"/>
	</g>
	<g>
		<path class="st16" d="M991.67,399.13c-4.69,19.65-12.63,38.32-23.31,54.77c7.12,4.95,14.24,9.91,21.35,14.87
			c2.9,2.03,5.93,4.09,9.33,4.59c5.39,0.77,10.48-2.55,15.21-5.54c9.84-6.21,20.16-11.49,30.8-15.75c2.12-0.85,4.48-1.66,6.59-0.72
			c4.05,1.81,4,8.21,2.98,12.97c-2.81,12.98-7.83,25.71-16.37,35.03c-8.55,9.32-21.01,14.74-32.65,11.84
			c-12.65-3.15-21.93-14.97-29.91-26.41c-6.55-9.38-13.23-21.01-10.07-32.38"/>
	</g>
	<g>
		<g>
			<path class="st17" d="M1071.03,437.82c12.53-5.23,25.07-10.45,37.6-15.68c0.09-0.04,0.01-0.16-0.08-0.12
				c-12.53,5.23-25.07,10.45-37.6,15.68C1070.88,437.74,1070.96,437.86,1071.03,437.82L1071.03,437.82z"/>
		</g>
	</g>
	<g>
		<g>
			<path class="st17" d="M893.29,423.61c11.32-0.04,22.6,1.2,33.63,3.65c0.09,0.02,0.12-0.11,0.04-0.13
				c-11.04-2.45-22.34-3.69-33.67-3.65C893.21,423.47,893.2,423.61,893.29,423.61L893.29,423.61z"/>
		</g>
	</g>
	<g>
		<path class="st18" d="M941.42,511.67c41.69,8.28,84.59,8.78,126.43,1.47c-15.24,21.3-39.57,34.01-63.93,33.4
			c-24.35-0.62-48.15-14.56-62.51-36.6"/>
		<g>
			<path class="st16" d="M941.4,511.74c20.11,3.97,40.58,6.19,61.11,6.55c20.5,0.37,41.04-1.11,61.26-4.39
				c0.61-0.1,1.22-0.2,1.82-0.3c0.24-0.04,1.7-0.43,1.82-0.31c0.27,0.26-0.3,0.74-0.51,1.04c-0.37,0.5-0.75,1.01-1.14,1.5
				c-1.33,1.71-2.74,3.37-4.21,4.98c-2.77,3.03-5.78,5.87-8.99,8.46c-6.44,5.21-13.74,9.48-21.58,12.46
				c-14.96,5.69-31.44,6.26-46.72,1.35c-15.79-5.07-29.49-15.33-39.27-28.19c-1.24-1.63-2.41-3.3-3.52-5
				c-0.05-0.07-0.17-0.01-0.12,0.07c10.57,16.15,26.93,29.02,46.2,34.23c18.89,5.11,38.97,1.67,55.56-8.18
				c9.83-5.84,18.25-13.72,24.8-22.83c0.04-0.05-0.03-0.11-0.08-0.1c-16.32,2.84-32.86,4.52-49.44,4.99
				c-16.34,0.47-32.71-0.24-48.94-2.09c-9.39-1.07-18.74-2.54-28-4.38C941.35,511.59,941.31,511.72,941.4,511.74L941.4,511.74z"/>
		</g>
	</g>
	<g>
		<path class="st17" d="M976.25,564.06c19.31-0.37,38.63-0.76,57.94-1.13c-8.24,6.63-16.48,13.26-24.73,19.89
			c-1.23,0.99-2.55,2.01-4.05,2.1c-1.45,0.08-2.81-0.71-4.08-1.49c-9.13-5.59-18.07-11.57-26.8-17.91"/>
	</g>
	<g>
		<path class="st19" d="M941.03,349c-1.45,12.98,0.68,26.42,6,38.05c0.54,1.18,1.14,2.38,2.09,3.16c3.26,2.67,7.69-1.16,9.67-5.12
			c3.67-7.37,4.71-16.64,1.69-24.38s-10.46-13.39-17.95-12.5"/>
	</g>
	<g>
		<g>
			<path class="st15" d="M951.65,361.49c0.18,0,0.18-0.27,0-0.27C951.46,361.21,951.46,361.49,951.65,361.49L951.65,361.49z"/>
		</g>
	</g>
	<g>
		<path class="st19" d="M1047,360.58c1.72-2.92,3.51-5.94,6.15-7.83c2.63-1.89,6.35-2.37,8.78-0.16c1.48,1.35,2.25,3.44,2.95,5.44
			c0.94,2.66,1.88,5.31,2.82,7.97c1.27,3.58,2.54,7.24,2.71,11.08c0.16,3.85-0.98,7.98-3.75,10.26c-5,4.11-12.48,0.09-15.62-5.89
			c-3.14-5.99-3.48-13.24-5.03-19.97"/>
		<g>
			<path class="st19" d="M1047.05,360.6c1.6-2.72,3.25-5.62,5.83-7.6c2.65-2.03,6.7-2.71,9.24-0.14c1.12,1.14,1.76,2.65,2.3,4.1
				c0.6,1.6,1.14,3.23,1.71,4.83c1.15,3.25,2.42,6.51,3.3,9.84c1.41,5.33,1.77,13.68-4.35,16.6c-5.31,2.54-11.22-2.01-13.71-6.28
				c-3.61-6.2-3.81-13.72-5.34-20.52c-0.02-0.07-0.12-0.04-0.11,0.03c1.55,6.85,1.72,14.47,5.43,20.69
				c2.43,4.06,7.79,8.25,12.97,6.51c6.08-2.06,6.68-9.89,5.68-14.99c-0.75-3.86-2.25-7.57-3.56-11.28
				c-0.67-1.88-1.29-3.77-2.01-5.64c-0.51-1.36-1.12-2.75-2.14-3.85c-2.11-2.28-5.54-2.28-8.19-0.87c-3.38,1.79-5.37,5.38-7.2,8.49
				C1046.92,360.61,1047.01,360.67,1047.05,360.6L1047.05,360.6z"/>
		</g>
	</g>
	<g>
		<g>
			<path class="st20" d="M1055.58,364.55c0.18,0,0.18-0.27,0-0.27C1055.39,364.28,1055.39,364.55,1055.58,364.55L1055.58,364.55z"/>
		</g>
	</g>
	<g>
		<path class="st10" d="M1010.21,229.55c-0.38,20.26-0.77,40.52-1.15,60.78c52.39-1.24,104.79-2.48,157.19-3.72
			c2.15-0.05,4.59-0.25,5.96-2.11c1.25-1.71,1.11-4.16,0.91-6.35c-1.03-11.28-2.07-22.55-3.09-33.84
			c-52.73-2.66-105.45-5.32-158.18-7.98"/>
	</g>
	<g>
		<path class="st12" d="M852.66,244.2c19.97,5.05,40.44-2.92,60.66-6.5c9.6-1.7,19.32-2.39,29.03-3.09
			c22.32-1.6,44.69-3.21,67.02-1.83c-0.83,17.16-1.65,34.33-2.47,51.49c-0.1,1.88-0.24,3.92-1.34,5.34c-1.47,1.88-4,1.97-6.22,1.92
			c-48.14-1.18-96.27-2.35-144.41-3.52c-1.26-0.03-2.65-0.13-3.51-1.14c-0.86-1-0.9-2.52-0.89-3.9c0.03-12.45,0.06-24.91,0.09-37.36
			"/>
	</g>
	<g>
		<path class="st12" d="M1003.6,46.26c-47.85,66.55-95.18,133.56-141.98,201.06c45.42-0.42,90.84-0.84,136.26-1.26
			c1.52-0.02,3.19-0.09,4.31-1.25c1.15-1.19,1.32-3.12,1.43-4.87c3.88-66.77,5.74-133.68,5.56-200.58
			c-6.24,4.62-10.59,12.34-11.64,20.65"/>
	</g>
	<g>
		<path class="st9" d="M1099.32,238.81c7-0.57,14.02-1.13,21.02-1.7c-23.82-38.43-46.35-77.84-68.87-117.24
			c-4.39-7.68-8.78-15.36-13.17-23.04c20.61,47.51,40.92,95.17,60.93,142.99"/>
	</g>
	<g>
		<path class="st9" d="M1032.41,76.92c5.9,13.34,8.47,28.18,10.97,42.81c6.91,40.4,13.82,80.79,20.72,121.18"/>
	</g>
	<g>
		<path class="st9" d="M876.09,243.14c34.01-48.11,68.01-96.22,102.03-144.32c-18.93,49.2-48.57,92.09-77.89,134.4
			c-5.36,7.73-13.51,16.37-21.53,12.47"/>
	</g>
	<g>
		<path class="st9" d="M940.19,243.1c5.77-12.02,9.22-25.23,12.64-38.32c11.22-43.02,22.44-86.05,33.66-129.07"/>
	</g>
	<g>
		<path class="st8" d="M863.9,417.54c0.25-29.63,0.49-59.27,0.74-88.9c0.04-4.1,0.01-8.44-1.88-11.94
			c-2.58-4.76-7.95-6.65-12.91-6.98c-15.71-1.04-30.72,10.2-38.82,25.33s-10.16,33.49-9.21,51.1c0.3,5.77,0.92,11.6,2.67,17.04
			c4.2,13.07,15.07,22.95,27.23,25.6s25.24-1.71,34.6-10.81"/>
		<g>
			<path class="st9" d="M863.97,417.54c0.2-24.47,0.41-48.93,0.61-73.4c0.05-5.97,0.21-11.93,0.13-17.9
				c-0.07-4.62-0.73-9.54-4.5-12.81c-6.33-5.49-16.74-4.42-24.08-1.67c-19.06,7.16-29.1,26.65-32.65,44.91
				c-2.05,10.54-2.36,21.39-1.59,32.07c0.39,5.46,1.17,10.96,3.1,16.14c1.55,4.16,3.82,8.06,6.69,11.5
				c5.52,6.61,13.37,11.56,22.17,12.87c9.48,1.42,19.18-1.33,26.91-6.63c2-1.37,3.86-2.91,5.6-4.6c0.07-0.06-0.04-0.16-0.1-0.1
				c-7,6.74-16.41,11.28-26.41,11.55c-9.17,0.25-17.85-3.37-24.44-9.41c-7.25-6.64-11.25-15.44-12.68-24.87
				c-1.58-10.47-1.48-21.45-0.15-31.94c2.38-18.86,10.43-39.01,28.4-48.96c7.34-4.06,17.33-6.47,25.44-3.03
				c2.16,0.91,4.09,2.31,5.45,4.18c1.59,2.17,2.26,4.8,2.52,7.4c0.27,2.6,0.18,5.24,0.16,7.85c-0.03,2.89-0.05,5.77-0.08,8.66
				c-0.19,23.17-0.38,46.35-0.58,69.53c-0.03,2.89-0.05,5.77-0.08,8.66C863.83,417.63,863.97,417.63,863.97,417.54L863.97,417.54z"
				/>
		</g>
	</g>
	<g>
		<g>
			<path class="st9" d="M840.35,313.33c0,29.96,0,59.93,0,89.89c0,8.52,0,17.03,0,25.56c0,0.09,0.14,0.09,0.14,0
				c0-29.96,0-59.93,0-89.89c0-8.52,0-17.03,0-25.56C840.49,313.24,840.35,313.24,840.35,313.33L840.35,313.33z"/>
		</g>
	</g>
	<g>
		<path class="st21" d="M1182.3,611.52c17.84,0.05,35.66,2,53.17,5.82c2.98,0.65,6.47,1.87,7.3,5.14c0.52,2.08-0.27,4.27-1.06,6.24
			c-20.88,52.63-45.28,103.51-72.95,152.05c6.74-31.29,9.95-63.53,9.51-95.72c-0.34-25.49-2.96-51.01-1.22-76.43"/>
	</g>
	
		<ellipse transform="matrix(0.1633 -0.9866 0.9866 0.1633 89.3963 1845.4805)" class="st22" cx="1132.72" cy="870.04" rx="23.92" ry="14.34"/>
</g>
<g>
	<g>
		<g>
			<path class="st20" d="M809.28,1053.6c-10.75-0.28-19.64-9.39-26.49-27.11c-5.91,7.34-12.53,14-19.71,19.82
				c-1.91,1.59-4.18,2.4-6.73,2.4h-0.89c-2.81-0.16-5.33-1.26-7.5-3.27c-1.99-1.82-2.95-4.2-2.78-6.87
				c0.16-2.64,1.26-4.82,3.25-6.49l0.09-0.07c10.44-7.77,19.55-17.39,27.07-28.61c0.34-0.55,0.45-1.21,0.29-2.01
				c-2.12-10.24-3.96-22.31-5.49-36.14c-0.1,0.52-0.26,1.04-0.47,1.55c-2.67,7.12-5.11,13.38-7.22,18.54
				c-0.89,1.96-2.26,3.32-4.09,4.11c-0.97,0.42-1.97,0.63-2.96,0.63c-0.89,0-1.77-0.17-2.64-0.5c-1.67-0.63-2.96-1.75-3.84-3.31
				c-0.17,1.6-0.37,3.16-0.59,4.67c-0.06,0.6,0.11,1.1,0.57,1.57c3.39,3,7.6,7.02,12.54,11.95c2.09,2.26,3.13,4.88,3.13,7.86
				c0,2.54-0.8,4.83-2.39,6.82c-1.62,2.03-3.8,3.1-6.3,3.1c-0.1,0-0.2,0-0.31,0c-2.6-0.08-4.79-1.2-6.32-3.24
				c-1.48-2.05-3.47-4.71-5.93-7.93c-3.92,9.68-9.85,18.26-17.67,25.57c-1.65,1.49-3.53,2.24-5.62,2.24c-0.31,0-0.62-0.02-0.93-0.05
				c-2.35-0.24-4.44-1.26-6.19-3.02c-1.68-1.68-2.54-3.73-2.54-6.1c0-2.41,0.88-4.42,2.62-5.98c3.97-3.84,7.37-8.08,10.08-12.54
				c2.68-4.42,4.64-9.07,5.83-13.8c1.21-4.83,2.04-9.37,2.49-13.5c0.45-4.15,0.67-8.91,0.67-14.14v-2.34
				c-1.1,10.1-3.53,18.38-7.21,24.64c-1.09,1.81-2.78,2.95-4.91,3.3c-0.45,0.08-0.91,0.12-1.35,0.12c-1.58,0-3.07-0.48-4.42-1.43
				c-1.04-0.73-1.84-1.63-2.37-2.68c-2.52,22.12-7.41,40.3-14.62,54.3c-1.38,2.41-3.47,3.86-6.25,4.36
				c-0.66,0.16-1.33,0.24-1.97,0.24c-1.99,0-3.89-0.65-5.67-1.94c-2.29-1.53-3.81-3.68-4.46-6.34c-0.31-0.95-0.47-1.92-0.47-2.89
				c0-1.77,0.48-3.47,1.42-5.06c5.45-10.93,9.12-23.28,10.91-36.71c1.8-13.59,2.72-28.52,2.72-44.37v-36.91
				c0-5.35,1.88-9.91,5.58-13.54c3.69-3.62,8.21-5.46,13.41-5.46h53.07c-0.52-10.81-0.78-17.03-0.78-18.51
				c0-2.75,0.99-5.13,2.93-7.08c1.9-2.05,4.36-3.13,7.27-3.13c2.88,0,5.36,1.02,7.37,3.03c1.98,1.98,3.06,4.43,3.22,7.26
				c0.13,7.18,0.33,13.34,0.59,18.37v0.06h21.97c-4.06-4.1-9.4-8.51-15.95-13.17c-2.02-1.34-3.2-3.32-3.37-5.68
				c-0.18-2.37,0.66-4.38,2.41-5.83c1.73-1.7,3.83-2.72,6.26-3.03c0.49-0.06,0.97-0.09,1.44-0.09c1.93,0,3.76,0.52,5.43,1.54
				l0.09,0.06c4.21,2.89,8.11,5.74,11.62,8.47c3.13,2.66,4.68,5.93,4.68,9.78c0,3.14-0.87,5.91-2.59,8.26
				c1.71,0.42,3.25,1.29,4.61,2.6c2.03,1.95,3.06,4.37,3.06,7.21c0,2.82-1.02,5.27-3.03,7.27c-2.01,2.01-4.42,3.03-7.18,3.03h-28.45
				c1.27,20.8,2.92,38.9,4.91,53.9c3.9-10.14,7.22-21.19,9.87-32.91c0.64-2.59,2.09-4.68,4.3-6.26c1.76-1.28,3.67-1.93,5.65-1.93
				c0.65,0,1.32,0.08,1.98,0.24c2.6,0.5,4.66,1.87,6.12,4.07c1.49,2.24,1.91,4.71,1.25,7.35c-5.61,23.62-13.37,44.17-23.06,61.06
				c-0.34,0.62-0.37,1.23-0.07,1.97l0.06,0.14l0.03,0.15c1.78,7.49,3.75,13.35,5.88,17.4c1.78,3.4,3.58,5.28,5.06,5.28
				c0.18-0.11,2.66-1.74,4.46-19.68l0.02-0.13c0.37-2.23,1.69-3.9,3.81-4.83c0.83-0.36,1.66-0.54,2.48-0.54
				c1.34,0,2.6,0.47,3.76,1.4c4.37,3.2,6.61,7.1,6.61,11.52v2.31l-0.03,0.16c-2.15,12.9-4.94,21.78-8.51,27.15
				c-3.48,5.5-7.66,8.31-12.41,8.31L809.28,1053.6L809.28,1053.6z M714.02,952.97c0,10.58-0.39,20.54-1.17,29.87
				c2.72-5.2,4.54-12.17,5.38-20.69c0.18-1.82,1-3.38,2.43-4.63c1.18-1.03,2.56-1.56,4.1-1.56c0.42,0,0.85,0.04,1.28,0.12
				c1.91,0.35,3.52,1.3,4.79,2.84c0.68,0.81,1.16,1.7,1.44,2.65v-15.58h-8.74c-2.36,0-4.45-0.89-6.2-2.64s-2.64-3.87-2.64-6.3
				s0.89-4.55,2.64-6.3s3.83-2.64,6.2-2.64h34.57c2.49,0,4.65,0.89,6.39,2.64c1.75,1.75,2.64,3.87,2.64,6.3s-0.89,4.55-2.64,6.3
				s-3.9,2.64-6.39,2.64h-8.16v24.17c0,2.23-0.04,4.41-0.12,6.53c1.92-5.35,3.59-10.46,4.97-15.24c0.53-2.22,1.8-3.92,3.78-5.04
				c1.08-0.61,2.22-0.92,3.4-0.92c1.02,0,2.07,0.24,3.11,0.7c2.04,0.71,3.58,2.13,4.58,4.22c0.09,0.19,0.17,0.38,0.25,0.57
				c-1.35-13.04-2.44-27.55-3.27-43.45c0-0.02-0.01-0.03-0.01-0.05c-0.04,0-0.08-0.01-0.14-0.01H714v35.5L714.02,952.97
				L714.02,952.97z M656.74,1046.57c-1.77,0-3.53-0.48-5.26-1.42c-2.82-1.57-4.71-3.93-5.64-7.04c-0.44-1.31-0.67-2.64-0.67-3.9
				c0-1.74,0.47-3.49,1.38-5.19c7.09-15.35,13.76-31.83,19.83-48.99c1.01-2.69,2.93-4.53,5.71-5.52c1.02-0.34,2.02-0.5,3.01-0.5
				c1.7,0,3.32,0.51,4.82,1.51c2.55,1.65,4.39,3.96,5.45,6.83c0.48,1.43,0.71,2.89,0.71,4.4c0,1.36-0.23,2.81-0.67,4.29
				c-6,17.49-12.33,33.96-18.83,49.04c-1.28,2.86-3.43,4.86-6.42,5.97l-0.07,0.03l-0.07,0.02
				C658.93,1046.42,657.83,1046.57,656.74,1046.57z M672.95,954.78c-2.36,0-4.58-0.71-6.61-2.11c-5.36-3.7-11.26-7.2-17.54-10.41
				c-2.46-1.31-4.03-3.27-4.71-5.85c-0.32-0.84-0.48-1.7-0.48-2.57c0-1.89,0.67-3.62,1.98-5.14c1.7-2.42,4.03-4.04,6.93-4.8
				c1.05-0.3,2.22-0.46,3.44-0.46c1.71,0,3.43,0.39,5.12,1.15c6.83,3.15,12.96,6.49,18.23,9.91c2.65,1.56,4.28,3.98,4.78,7.15
				c0.15,0.66,0.23,1.31,0.23,1.95c0,2.52-0.8,4.84-2.37,6.88c-1.73,2.35-4.21,3.8-7.34,4.27l-0.15,0.02L672.95,954.78
				L672.95,954.78z M681.35,903.02c-2.4,0-4.65-0.8-6.69-2.37c-5.08-3.81-11.11-7.63-17.9-11.35c-2.47-1.32-4.03-3.38-4.61-6.13
				c-0.58-2.71,0.06-5.27,1.85-7.41c1.7-2.29,4.02-3.84,6.92-4.6l0.09-0.02l0.09-0.02c0.9-0.15,1.86-0.22,2.86-0.22
				c1.71,0,3.43,0.39,5.12,1.15c7.13,3.44,13.41,7.04,18.68,10.73c2.68,1.73,4.23,4.27,4.55,7.49l0.01,0.1v1.47
				c0,2.49-0.71,4.78-2.11,6.8c-1.77,2.41-4.21,3.79-7.29,4.15C682.42,902.94,681.88,903.02,681.35,903.02z"/>
			<path class="st23" d="M809.28,1053.6c-10.75-0.28-19.64-9.39-26.49-27.11c-5.91,7.34-12.53,14-19.71,19.82
				c-1.91,1.59-4.18,2.4-6.73,2.4h-0.89c-2.81-0.16-5.33-1.26-7.5-3.27c-1.99-1.82-2.95-4.2-2.78-6.87
				c0.16-2.64,1.26-4.82,3.25-6.49l0.09-0.07c10.44-7.77,19.55-17.39,27.07-28.61c0.34-0.55,0.45-1.21,0.29-2.01
				c-2.12-10.24-3.96-22.31-5.49-36.14c-0.1,0.52-0.26,1.04-0.47,1.55c-2.67,7.12-5.11,13.38-7.22,18.54
				c-0.89,1.96-2.26,3.32-4.09,4.11c-0.97,0.42-1.97,0.63-2.96,0.63c-0.89,0-1.77-0.17-2.64-0.5c-1.67-0.63-2.96-1.75-3.84-3.31
				c-0.17,1.6-0.37,3.16-0.59,4.67c-0.06,0.6,0.11,1.1,0.57,1.57c3.39,3,7.6,7.02,12.54,11.95c2.09,2.26,3.13,4.88,3.13,7.86
				c0,2.54-0.8,4.83-2.39,6.82c-1.62,2.03-3.8,3.1-6.3,3.1c-0.1,0-0.2,0-0.31,0c-2.6-0.08-4.79-1.2-6.32-3.24
				c-1.48-2.05-3.47-4.71-5.93-7.93c-3.92,9.68-9.85,18.26-17.67,25.57c-1.65,1.49-3.53,2.24-5.62,2.24c-0.31,0-0.62-0.02-0.93-0.05
				c-2.35-0.24-4.44-1.26-6.19-3.02c-1.68-1.68-2.54-3.73-2.54-6.1c0-2.41,0.88-4.42,2.62-5.98c3.97-3.84,7.37-8.08,10.08-12.54
				c2.68-4.42,4.64-9.07,5.83-13.8c1.21-4.83,2.04-9.37,2.49-13.5c0.45-4.15,0.67-8.91,0.67-14.14v-2.34
				c-1.1,10.1-3.53,18.38-7.21,24.64c-1.09,1.81-2.78,2.95-4.91,3.3c-0.45,0.08-0.91,0.12-1.35,0.12c-1.58,0-3.07-0.48-4.42-1.43
				c-1.04-0.73-1.84-1.63-2.37-2.68c-2.52,22.12-7.41,40.3-14.62,54.3c-1.38,2.41-3.47,3.86-6.25,4.36
				c-0.66,0.16-1.33,0.24-1.97,0.24c-1.99,0-3.89-0.65-5.67-1.94c-2.29-1.53-3.81-3.68-4.46-6.34c-0.31-0.95-0.47-1.92-0.47-2.89
				c0-1.77,0.48-3.47,1.42-5.06c5.45-10.93,9.12-23.28,10.91-36.71c1.8-13.59,2.72-28.52,2.72-44.37v-36.91
				c0-5.35,1.88-9.91,5.58-13.54c3.69-3.62,8.21-5.46,13.41-5.46h53.07c-0.52-10.81-0.78-17.03-0.78-18.51
				c0-2.75,0.99-5.13,2.93-7.08c1.9-2.05,4.36-3.13,7.27-3.13c2.88,0,5.36,1.02,7.37,3.03c1.98,1.98,3.06,4.43,3.22,7.26
				c0.13,7.18,0.33,13.34,0.59,18.37v0.06h21.97c-4.06-4.1-9.4-8.51-15.95-13.17c-2.02-1.34-3.2-3.32-3.37-5.68
				c-0.18-2.37,0.66-4.38,2.41-5.83c1.73-1.7,3.83-2.72,6.26-3.03c0.49-0.06,0.97-0.09,1.44-0.09c1.93,0,3.76,0.52,5.43,1.54
				l0.09,0.06c4.21,2.89,8.11,5.74,11.62,8.47c3.13,2.66,4.68,5.93,4.68,9.78c0,3.14-0.87,5.91-2.59,8.26
				c1.71,0.42,3.25,1.29,4.61,2.6c2.03,1.95,3.06,4.37,3.06,7.21c0,2.82-1.02,5.27-3.03,7.27c-2.01,2.01-4.42,3.03-7.18,3.03h-28.45
				c1.27,20.8,2.92,38.9,4.91,53.9c3.9-10.14,7.22-21.19,9.87-32.91c0.64-2.59,2.09-4.68,4.3-6.26c1.76-1.28,3.67-1.93,5.65-1.93
				c0.65,0,1.32,0.08,1.98,0.24c2.6,0.5,4.66,1.87,6.12,4.07c1.49,2.24,1.91,4.71,1.25,7.35c-5.61,23.62-13.37,44.17-23.06,61.06
				c-0.34,0.62-0.37,1.23-0.07,1.97l0.06,0.14l0.03,0.15c1.78,7.49,3.75,13.35,5.88,17.4c1.78,3.4,3.58,5.28,5.06,5.28
				c0.18-0.11,2.66-1.74,4.46-19.68l0.02-0.13c0.37-2.23,1.69-3.9,3.81-4.83c0.83-0.36,1.66-0.54,2.48-0.54
				c1.34,0,2.6,0.47,3.76,1.4c4.37,3.2,6.61,7.1,6.61,11.52v2.31l-0.03,0.16c-2.15,12.9-4.94,21.78-8.51,27.15
				c-3.48,5.5-7.66,8.31-12.41,8.31L809.28,1053.6L809.28,1053.6z M714.02,952.97c0,10.58-0.39,20.54-1.17,29.87
				c2.72-5.2,4.54-12.17,5.38-20.69c0.18-1.82,1-3.38,2.43-4.63c1.18-1.03,2.56-1.56,4.1-1.56c0.42,0,0.85,0.04,1.28,0.12
				c1.91,0.35,3.52,1.3,4.79,2.84c0.68,0.81,1.16,1.7,1.44,2.65v-15.58h-8.74c-2.36,0-4.45-0.89-6.2-2.64s-2.64-3.87-2.64-6.3
				s0.89-4.55,2.64-6.3s3.83-2.64,6.2-2.64h34.57c2.49,0,4.65,0.89,6.39,2.64c1.75,1.75,2.64,3.87,2.64,6.3s-0.89,4.55-2.64,6.3
				s-3.9,2.64-6.39,2.64h-8.16v24.17c0,2.23-0.04,4.41-0.12,6.53c1.92-5.35,3.59-10.46,4.97-15.24c0.53-2.22,1.8-3.92,3.78-5.04
				c1.08-0.61,2.22-0.92,3.4-0.92c1.02,0,2.07,0.24,3.11,0.7c2.04,0.71,3.58,2.13,4.58,4.22c0.09,0.19,0.17,0.38,0.25,0.57
				c-1.35-13.04-2.44-27.55-3.27-43.45c0-0.02-0.01-0.03-0.01-0.05c-0.04,0-0.08-0.01-0.14-0.01H714v35.5L714.02,952.97
				L714.02,952.97z M656.74,1046.57c-1.77,0-3.53-0.48-5.26-1.42c-2.82-1.57-4.71-3.93-5.64-7.04c-0.44-1.31-0.67-2.64-0.67-3.9
				c0-1.74,0.47-3.49,1.38-5.19c7.09-15.35,13.76-31.83,19.83-48.99c1.01-2.69,2.93-4.53,5.71-5.52c1.02-0.34,2.02-0.5,3.01-0.5
				c1.7,0,3.32,0.51,4.82,1.51c2.55,1.65,4.39,3.96,5.45,6.83c0.48,1.43,0.71,2.89,0.71,4.4c0,1.36-0.23,2.81-0.67,4.29
				c-6,17.49-12.33,33.96-18.83,49.04c-1.28,2.86-3.43,4.86-6.42,5.97l-0.07,0.03l-0.07,0.02
				C658.93,1046.42,657.83,1046.57,656.74,1046.57z M672.95,954.78c-2.36,0-4.58-0.71-6.61-2.11c-5.36-3.7-11.26-7.2-17.54-10.41
				c-2.46-1.31-4.03-3.27-4.71-5.85c-0.32-0.84-0.48-1.7-0.48-2.57c0-1.89,0.67-3.62,1.98-5.14c1.7-2.42,4.03-4.04,6.93-4.8
				c1.05-0.3,2.22-0.46,3.44-0.46c1.71,0,3.43,0.39,5.12,1.15c6.83,3.15,12.96,6.49,18.23,9.91c2.65,1.56,4.28,3.98,4.78,7.15
				c0.15,0.66,0.23,1.31,0.23,1.95c0,2.52-0.8,4.84-2.37,6.88c-1.73,2.35-4.21,3.8-7.34,4.27l-0.15,0.02L672.95,954.78
				L672.95,954.78z M681.35,903.02c-2.4,0-4.65-0.8-6.69-2.37c-5.08-3.81-11.11-7.63-17.9-11.35c-2.47-1.32-4.03-3.38-4.61-6.13
				c-0.58-2.71,0.06-5.27,1.85-7.41c1.7-2.29,4.02-3.84,6.92-4.6l0.09-0.02l0.09-0.02c0.9-0.15,1.86-0.22,2.86-0.22
				c1.71,0,3.43,0.39,5.12,1.15c7.13,3.44,13.41,7.04,18.68,10.73c2.68,1.73,4.23,4.27,4.55,7.49l0.01,0.1v1.47
				c0,2.49-0.71,4.78-2.11,6.8c-1.77,2.41-4.21,3.79-7.29,4.15C682.42,902.94,681.88,903.02,681.35,903.02z"/>
		</g>
		<g>
			<path class="st20" d="M1007.13,1046.38c-1.85,0-3.77-0.46-5.72-1.36c-6.47-3.04-12.68-6.65-18.48-10.73
				c-8.66-5.9-15.93-11.98-21.6-18.04c-5.65-6.04-10.74-12.47-15.15-19.11c-4.41-6.65-7.73-12.65-9.85-17.83
				c-1.16-2.62-2.17-5.17-3.02-7.61c-1.33,3.86-3.02,7.88-5.05,12.03c-3.15,6.69-7.68,14.19-13.45,22.26
				c-5.82,8.13-13.77,16.19-23.63,23.94c-7.22,5.78-15.3,10.85-24,15.07c-1.99,0.92-3.91,1.37-5.76,1.37c-1.32,0-2.6-0.15-3.8-0.45
				l-0.13-0.04c-3.25-1.03-5.94-2.91-8-5.56c-1.44-1.76-2.18-3.76-2.18-5.92v-1.78l0.05-0.21c0.65-2.95,2.4-5.12,5.06-6.28
				c8.41-3.82,16.17-8.35,23.05-13.45c9.46-6.9,17.04-14,22.56-21.1c5.54-7.13,10.2-14.73,13.83-22.56s6.15-14.99,7.48-21.25
				c1.33-6.28,2.01-12.28,2.01-17.85V876.6c0-3.41,1.19-6.29,3.54-8.57c2.33-2.25,5.17-3.39,8.42-3.39c3.27,0,6.11,1.18,8.45,3.52
				c2.33,2.33,3.52,5.17,3.52,8.45v53.13c0,5.56,0.68,11.57,2.01,17.85c1.33,6.26,3.9,13.37,7.66,21.13
				c3.75,7.76,8.56,15.21,14.29,22.16c5.72,6.92,13.53,13.87,23.23,20.63c7.13,4.84,15.04,9.19,23.49,12.9
				c2.93,1.3,4.81,3.69,5.45,6.91c0.16,0.79,0.23,1.58,0.23,2.35c0,2.11-0.65,4.08-1.94,5.86c-2.2,2.93-4.94,4.94-8.17,5.98
				C1010,1046.08,1008.53,1046.38,1007.13,1046.38z M863.58,968.25c-2.99,0-5.72-0.83-8.12-2.47c-2.9-1.79-4.43-4.6-4.43-8.12
				c0-2.72,0.97-5.15,2.87-7.21c7.63-8.76,13.06-21.45,16.11-37.68c0.45-2.88,1.86-5.39,4.17-7.39l0.1-0.08l0.11-0.07
				c1.72-1.14,3.6-1.72,5.59-1.72c0.22,0,0.44,0.01,0.67,0.02c0.62,0.01,1.3,0.08,2.07,0.23c3.38,0.62,5.92,2.28,7.53,4.94
				c1.52,2.02,2.29,4.3,2.29,6.79c0,0.65-0.08,1.32-0.24,1.97c-3.56,20.28-9.88,35.95-18.78,46.58c-2.2,2.51-5.15,3.92-8.79,4.22
				l-0.08,0.01h-1.07L863.58,968.25L863.58,968.25z M980.77,965.32c-1.88,0-3.62-0.4-5.19-1.19c-2.71-1.27-4.45-3.34-5.13-6.12
				c-0.31-0.95-0.47-1.85-0.47-2.7c0-1.79,0.49-3.52,1.46-5.13c6.82-11.2,13.15-23.79,18.81-37.43c1.37-3.35,3.7-5.75,6.92-7.13
				c1.82-0.76,3.59-1.14,5.28-1.14c1.52,0,3.13,0.3,4.78,0.9l0.14,0.06c3.07,1.38,5.26,3.71,6.5,6.92c0.62,1.41,0.93,2.78,0.93,4.08
				c0,1.91-0.55,3.83-1.64,5.69c-8.16,15.03-15.68,27.76-22.33,37.79c-1.55,2.48-3.85,4.15-6.82,4.93
				C982.97,965.17,981.87,965.32,980.77,965.32z"/>
			<path class="st23" d="M1007.13,1046.38c-1.85,0-3.77-0.46-5.72-1.36c-6.47-3.04-12.68-6.65-18.48-10.73
				c-8.66-5.9-15.93-11.98-21.6-18.04c-5.65-6.04-10.74-12.47-15.15-19.11c-4.41-6.65-7.73-12.65-9.85-17.83
				c-1.16-2.62-2.17-5.17-3.02-7.61c-1.33,3.86-3.02,7.88-5.05,12.03c-3.15,6.69-7.68,14.19-13.45,22.26
				c-5.82,8.13-13.77,16.19-23.63,23.94c-7.22,5.78-15.3,10.85-24,15.07c-1.99,0.92-3.91,1.37-5.76,1.37c-1.32,0-2.6-0.15-3.8-0.45
				l-0.13-0.04c-3.25-1.03-5.94-2.91-8-5.56c-1.44-1.76-2.18-3.76-2.18-5.92v-1.78l0.05-0.21c0.65-2.95,2.4-5.12,5.06-6.28
				c8.41-3.82,16.17-8.35,23.05-13.45c9.46-6.9,17.04-14,22.56-21.1c5.54-7.13,10.2-14.73,13.83-22.56s6.15-14.99,7.48-21.25
				c1.33-6.28,2.01-12.28,2.01-17.85V876.6c0-3.41,1.19-6.29,3.54-8.57c2.33-2.25,5.17-3.39,8.42-3.39c3.27,0,6.11,1.18,8.45,3.52
				c2.33,2.33,3.52,5.17,3.52,8.45v53.13c0,5.56,0.68,11.57,2.01,17.85c1.33,6.26,3.9,13.37,7.66,21.13
				c3.75,7.76,8.56,15.21,14.29,22.16c5.72,6.92,13.53,13.87,23.23,20.63c7.13,4.84,15.04,9.19,23.49,12.9
				c2.93,1.3,4.81,3.69,5.45,6.91c0.16,0.79,0.23,1.58,0.23,2.35c0,2.11-0.65,4.08-1.94,5.86c-2.2,2.93-4.94,4.94-8.17,5.98
				C1010,1046.08,1008.53,1046.38,1007.13,1046.38z M863.58,968.25c-2.99,0-5.72-0.83-8.12-2.47c-2.9-1.79-4.43-4.6-4.43-8.12
				c0-2.72,0.97-5.15,2.87-7.21c7.63-8.76,13.06-21.45,16.11-37.68c0.45-2.88,1.86-5.39,4.17-7.39l0.1-0.08l0.11-0.07
				c1.72-1.14,3.6-1.72,5.59-1.72c0.22,0,0.44,0.01,0.67,0.02c0.62,0.01,1.3,0.08,2.07,0.23c3.38,0.62,5.92,2.28,7.53,4.94
				c1.52,2.02,2.29,4.3,2.29,6.79c0,0.65-0.08,1.32-0.24,1.97c-3.56,20.28-9.88,35.95-18.78,46.58c-2.2,2.51-5.15,3.92-8.79,4.22
				l-0.08,0.01h-1.07L863.58,968.25L863.58,968.25z M980.77,965.32c-1.88,0-3.62-0.4-5.19-1.19c-2.71-1.27-4.45-3.34-5.13-6.12
				c-0.31-0.95-0.47-1.85-0.47-2.7c0-1.79,0.49-3.52,1.46-5.13c6.82-11.2,13.15-23.79,18.81-37.43c1.37-3.35,3.7-5.75,6.92-7.13
				c1.82-0.76,3.59-1.14,5.28-1.14c1.52,0,3.13,0.3,4.78,0.9l0.14,0.06c3.07,1.38,5.26,3.71,6.5,6.92c0.62,1.41,0.93,2.78,0.93,4.08
				c0,1.91-0.55,3.83-1.64,5.69c-8.16,15.03-15.68,27.76-22.33,37.79c-1.55,2.48-3.85,4.15-6.82,4.93
				C982.97,965.17,981.87,965.32,980.77,965.32z"/>
		</g>
		<g>
			<path class="st20" d="M1079.89,1053.8c-3.08,0-5.75-1.12-7.96-3.32c-2.2-2.2-3.32-4.85-3.32-7.86v-93.21
				c-3.03,3.75-6.12,7.36-9.22,10.77c-1.83,1.99-4.1,3-6.75,3h-1.5l-0.13-0.02c-3.48-0.47-6.08-2.31-7.54-5.32
				c-1.58-2.62-2.39-5.31-2.39-7.99c0-0.63,0.07-1.26,0.21-1.88c0.33-3.66,1.76-6.79,4.28-9.3c16-17.02,29.54-37.8,40.21-61.71
				c1.22-2.89,3.32-5.08,6.24-6.46c1.72-0.78,3.51-1.17,5.35-1.17c1.06,0,2.21,0.15,3.41,0.45l0.12,0.03c3,0.95,5.24,2.87,6.66,5.7
				c0.67,1.51,0.99,2.97,0.99,4.41s-0.32,2.9-0.95,4.33c-4.57,10.44-9.86,20.96-15.72,31.24c-0.48,0.86-0.71,1.75-0.71,2.72v124.41
				c0,3.01-1.12,5.65-3.32,7.86C1085.64,1052.68,1082.96,1053.8,1079.89,1053.8z M1113.58,1046.57c-3,0-5.63-1.08-7.83-3.2
				c-2.22-2.14-3.35-4.76-3.35-7.79c0-3.02,1.09-5.61,3.25-7.69c2.14-2.06,4.81-3.1,7.93-3.1h37.84v-52.64h-45.46
				c-3.01,0-5.62-1.08-7.76-3.22c-2.14-2.14-3.22-4.75-3.22-7.76s1.08-5.62,3.22-7.76s4.75-3.22,7.76-3.22h45.46v-44.4
				c-10.38,1.66-21.91,3.29-34.28,4.83l-0.12,0.02h-1.3c-2.39,0-4.56-0.73-6.47-2.16c-2.34-1.6-4.06-3.72-5.06-6.24
				c-1.07-2.72-0.88-5.37,0.56-7.66c1.41-2.24,3.56-3.61,6.23-3.95c34.08-4.65,62.3-10.34,83.85-16.92
				c1.72-0.57,3.48-0.87,5.17-0.87c1.67,0,3.32,0.22,4.92,0.66c3.54,1.03,6.43,2.89,8.63,5.53c1.46,1.62,2.22,3.51,2.22,5.58
				c0,0.77-0.08,1.55-0.23,2.34l-0.02,0.11l-0.03,0.11c-0.98,3.11-3.08,5.19-6.06,6.01c-10,2.86-21.74,5.69-34.89,8.43
				c-0.07,0.02-0.12,0.04-0.14,0.05c0.01,0.02-0.02,0.12-0.02,0.34v48.2h42.34c3.01,0,5.62,1.08,7.76,3.22
				c2.14,2.14,3.22,4.75,3.22,7.76s-1.08,5.62-3.22,7.76s-4.75,3.22-7.76,3.22h-42.34v52.64h39.6c3,0,5.6,1.04,7.73,3.1
				c2.16,2.08,3.25,4.67,3.25,7.69c0,3.01-1.08,5.62-3.22,7.76s-4.75,3.22-7.76,3.22L1113.58,1046.57L1113.58,1046.57z"/>
			<path class="st23" d="M1079.89,1053.8c-3.08,0-5.75-1.12-7.96-3.32c-2.2-2.2-3.32-4.85-3.32-7.86v-93.21
				c-3.03,3.75-6.12,7.36-9.22,10.77c-1.83,1.99-4.1,3-6.75,3h-1.5l-0.13-0.02c-3.48-0.47-6.08-2.31-7.54-5.32
				c-1.58-2.62-2.39-5.31-2.39-7.99c0-0.63,0.07-1.26,0.21-1.88c0.33-3.66,1.76-6.79,4.28-9.3c16-17.02,29.54-37.8,40.21-61.71
				c1.22-2.89,3.32-5.08,6.24-6.46c1.72-0.78,3.51-1.17,5.35-1.17c1.06,0,2.21,0.15,3.41,0.45l0.12,0.03c3,0.95,5.24,2.87,6.66,5.7
				c0.67,1.51,0.99,2.97,0.99,4.41s-0.32,2.9-0.95,4.33c-4.57,10.44-9.86,20.96-15.72,31.24c-0.48,0.86-0.71,1.75-0.71,2.72v124.41
				c0,3.01-1.12,5.65-3.32,7.86C1085.64,1052.68,1082.96,1053.8,1079.89,1053.8z M1113.58,1046.57c-3,0-5.63-1.08-7.83-3.2
				c-2.22-2.14-3.35-4.76-3.35-7.79c0-3.02,1.09-5.61,3.25-7.69c2.14-2.06,4.81-3.1,7.93-3.1h37.84v-52.64h-45.46
				c-3.01,0-5.62-1.08-7.76-3.22c-2.14-2.14-3.22-4.75-3.22-7.76s1.08-5.62,3.22-7.76s4.75-3.22,7.76-3.22h45.46v-44.4
				c-10.38,1.66-21.91,3.29-34.28,4.83l-0.12,0.02h-1.3c-2.39,0-4.56-0.73-6.47-2.16c-2.34-1.6-4.06-3.72-5.06-6.24
				c-1.07-2.72-0.88-5.37,0.56-7.66c1.41-2.24,3.56-3.61,6.23-3.95c34.08-4.65,62.3-10.34,83.85-16.92
				c1.72-0.57,3.48-0.87,5.17-0.87c1.67,0,3.32,0.22,4.92,0.66c3.54,1.03,6.43,2.89,8.63,5.53c1.46,1.62,2.22,3.51,2.22,5.58
				c0,0.77-0.08,1.55-0.23,2.34l-0.02,0.11l-0.03,0.11c-0.98,3.11-3.08,5.19-6.06,6.01c-10,2.86-21.74,5.69-34.89,8.43
				c-0.07,0.02-0.12,0.04-0.14,0.05c0.01,0.02-0.02,0.12-0.02,0.34v48.2h42.34c3.01,0,5.62,1.08,7.76,3.22
				c2.14,2.14,3.22,4.75,3.22,7.76s-1.08,5.62-3.22,7.76s-4.75,3.22-7.76,3.22h-42.34v52.64h39.6c3,0,5.6,1.04,7.73,3.1
				c2.16,2.08,3.25,4.67,3.25,7.69c0,3.01-1.08,5.62-3.22,7.76s-4.75,3.22-7.76,3.22L1113.58,1046.57L1113.58,1046.57z"/>
		</g>
		<g>
			<path class="st20" d="M1270.41,1053.02c-2.95,0-5.63-1.02-7.95-3.03c-2.33-1.9-4-4.32-4.9-7.16c-0.83-2.67-0.44-5.26,1.15-7.52
				c1.6-2.28,3.89-3.48,6.62-3.48h9.08c0.61-0.07,0.97-0.15,1.16-0.21c0.03-0.16,0.07-0.45,0.07-0.91v-44.94
				c-5.27,10.97-10.9,20.31-16.74,27.8c-1.52,2.03-3.63,3.11-6.07,3.11c-0.56,0-1.11-0.08-1.65-0.25c-2.87-0.52-5.1-2.15-6.46-4.72
				c-1.25-2.36-1.89-4.84-1.89-7.38c0-0.62,0.07-1.31,0.21-2.04c0.32-3.24,1.59-6.15,3.8-8.65c8.46-9.96,15.9-22.58,22.09-37.5
				h-16.68c-2.88,0-5.33-0.99-7.27-2.93c-1.94-1.94-2.93-4.33-2.93-7.08c0-2.73,0.98-5.14,2.9-7.15c1.95-2.03,4.41-3.06,7.3-3.06
				h36.43c-8.31-5.47-18.27-10.95-29.66-16.31c-2.4-1.2-3.92-3.17-4.43-5.71c-0.52-2.6,0.21-4.98,2.11-6.88
				c1.9-2.05,4.33-3.43,7.18-4.04c1.06-0.3,2.08-0.45,3.02-0.45c1.82,0,3.65,0.38,5.46,1.13c3.02,1.31,5.88,2.64,8.52,3.96
				c0.31,0.17,0.52,0.24,0.7,0.24c0.22,0,0.46-0.09,0.74-0.26c4.2-3.44,8.32-7.47,12.27-12.01h-40.19c-2.75,0-5.13-0.99-7.08-2.93
				c-1.94-1.94-2.93-4.29-2.93-6.98s0.99-5.04,2.93-6.98c1.94-1.94,4.33-2.93,7.08-2.93h58c0.61-0.12,1.21-0.18,1.8-0.18
				c1.57,0,3.08,0.41,4.48,1.23l0.1,0.06l3.52,2.34c2.09,1.29,3.47,3.18,4.06,5.59c0.59,2.46,0.1,4.82-1.42,6.85
				c-6.91,9.21-15.42,17.98-25.31,26.06c1.42,0.79,2.85,1.62,4.25,2.48l0.08,0.05c2.92,2,4.58,4.85,4.94,8.48
				c0.15,0.51,0.22,0.96,0.22,1.37c0,2.11-0.5,4.05-1.5,5.81h8.14c0.95-0.32,1.92-0.49,2.89-0.49c1.07,0,2.14,0.2,3.19,0.6
				l3.16,0.99l0.09,0.04c1.97,0.82,3.51,2.2,4.58,4.08c0.86,1.53,1.23,3.1,1.11,4.7c9-2.64,17.26-5.97,24.61-9.93
				c-5.63-5.45-10.58-11.27-14.71-17.31c-1.13,1.22-2.27,2.41-3.42,3.56c-2.31,2.31-5.12,3.56-8.35,3.71h-0.48
				c-3.04,0-5.8-0.99-8.22-2.93c-2.45-1.66-3.74-4.18-3.74-7.27c0-2.69,1.03-4.92,3.06-6.61c10.66-9.39,19.51-20.7,26.27-33.57
				c1.51-2.73,3.64-4.78,6.34-6.13c1.76-0.8,3.48-1.19,5.19-1.19c1.06,0,2.21,0.15,3.41,0.45c2.84,0.84,4.89,2.56,6.19,5.15
				l0.05,0.1l0.04,0.1c0.47,1.26,0.71,2.55,0.71,3.83c0,1.31-0.32,2.7-0.95,4.13l-0.07,0.13c-0.85,1.58-1.7,3.15-2.55,4.67h51.76
				c2.62,0,4.94,0.99,6.88,2.93c1.94,1.94,2.93,4.29,2.93,6.98c0,2.71-1,5.03-2.96,6.91c-1.94,1.86-4.24,2.8-6.85,2.8h-4.69
				c0-0.01,0-0.01-0.01-0.01c-0.02,0-0.06,0.05-0.11,0.17c-4.95,11.08-11.71,20.98-20.1,29.48c8.38,4.55,17.85,8.3,28.17,11.16
				c2.69,0.67,4.59,2.47,5.46,5.18c0.99,2.68,0.63,5.33-1.04,7.67c-2.1,2.7-4.69,4.62-7.75,5.79c-1.73,0.73-3.51,1.11-5.2,1.11
				c-1.38,0-2.78-0.23-4.15-0.69c-11.96-3.94-23.02-9.21-32.88-15.65l-0.1-0.07c-0.17-0.12-0.31-0.19-0.41-0.19
				c-0.14,0-0.36,0.09-0.6,0.25c-9.12,5.69-20.09,10.81-32.67,15.26c-1.23,0.46-2.58,0.7-3.99,0.7c-1.43,0-2.93-0.31-4.46-0.93
				c-1.77-0.69-3.36-1.68-4.75-2.97c-2.59,8.65-5.11,16.09-7.48,22.16c-0.86,2.22-2.49,3.82-4.84,4.75
				c-1.03,0.41-2.08,0.61-3.1,0.61c-1.32,0-2.62-0.34-3.85-1.01c-2.22-1.11-3.83-2.88-4.73-5.25c-0.88-2.32-0.92-4.71-0.12-7.1
				c1.76-5.28,3.67-12.21,5.69-20.61h-10.97v74.76c0,5.1-0.52,8.98-1.59,11.83c-1.16,3.09-3.5,5.5-6.97,7.16
				c-3.95,1.83-9.76,2.85-17.79,3.13h-0.03L1270.41,1053.02L1270.41,1053.02z M1372.43,923.66c0.06,0.04,0.11,0.07,0.14,0.09
				c0.03-0.03,0.08-0.06,0.14-0.12c5.39-5.03,9.9-10.83,13.46-17.29h-29.85C1360.49,912.36,1365.9,918.18,1372.43,923.66z
				 M1379.98,1052.24c-2.99,0-5.65-1.07-7.91-3.17c-2.15-2-3.62-4.5-4.37-7.45c-0.83-2.55-0.41-5.01,1.21-7.14
				c1.52-1.99,3.58-3.05,5.95-3.05c0.18,0,0.37,0.01,0.55,0.02c3.56,0.26,6.76,0.39,9.54,0.39c2.23,0,3.83-0.55,4.87-1.7l0.07-0.08
				l0.08-0.07c1.68-1.48,4.93-7.75,7.9-33.03h-24.93c-0.13,0-0.18,0.02-0.18,0.02c-0.03,0.02-0.14,0.15-0.25,0.5
				c-3.44,11.65-8.72,21.97-15.69,30.66c-6.99,8.72-16.72,16.1-28.92,21.94c-1.73,0.78-3.39,1.17-4.96,1.17h-0.13l-0.13-0.02
				c-1.2-0.15-2.4-0.45-3.58-0.89c-2.61-0.87-4.94-2.45-6.86-4.67l-0.07-0.09c-1.67-2.17-2.22-4.66-1.64-7.4s2.21-4.81,4.72-5.98
				c16.43-7.53,27.85-19.39,33.97-35.25h-17.3c-2.76,0-5.11-0.95-6.98-2.83c-1.88-1.87-2.83-4.19-2.83-6.88
				c0-2.67,0.94-5.01,2.8-6.95c1.88-1.96,4.24-2.96,7.01-2.96h22.27c0.06,0,0.1,0,0.14-0.01c0.01-0.04,0.02-0.09,0.02-0.15
				c0.4-2.65,0.75-5.26,1.08-7.86c0.38-3.08,1.75-5.7,4.06-7.78c2.32-2.09,5.07-3.15,8.17-3.15c3.04,0,5.63,1.13,7.71,3.37
				l0.07,0.08c1.6,1.93,2.42,4.13,2.42,6.55v1.27l-0.01,0.1c-0.25,2.51-0.63,5.05-1.11,7.57h26.27c5.24,0,9.61,1.92,12.98,5.71
				c3.23,3.25,4.79,7.09,4.64,11.4c0,0.67-0.07,1.43-0.21,2.18c-2.94,27.2-6.88,43.13-12.03,48.72c-3.47,3.47-8.38,5.7-14.64,6.67
				l-0.1,0.02h-0.1c-2.54,0.13-5.73,0.2-9.48,0.2h-4.09L1379.98,1052.24L1379.98,1052.24z"/>
			<path class="st23" d="M1270.41,1053.02c-2.95,0-5.63-1.02-7.95-3.03c-2.33-1.9-4-4.32-4.9-7.16c-0.83-2.67-0.44-5.26,1.15-7.52
				c1.6-2.28,3.89-3.48,6.62-3.48h9.08c0.61-0.07,0.97-0.15,1.16-0.21c0.03-0.16,0.07-0.45,0.07-0.91v-44.94
				c-5.27,10.97-10.9,20.31-16.74,27.8c-1.52,2.03-3.63,3.11-6.07,3.11c-0.56,0-1.11-0.08-1.65-0.25c-2.87-0.52-5.1-2.15-6.46-4.72
				c-1.25-2.36-1.89-4.84-1.89-7.38c0-0.62,0.07-1.31,0.21-2.04c0.32-3.24,1.59-6.15,3.8-8.65c8.46-9.96,15.9-22.58,22.09-37.5
				h-16.68c-2.88,0-5.33-0.99-7.27-2.93c-1.94-1.94-2.93-4.33-2.93-7.08c0-2.73,0.98-5.14,2.9-7.15c1.95-2.03,4.41-3.06,7.3-3.06
				h36.43c-8.31-5.47-18.27-10.95-29.66-16.31c-2.4-1.2-3.92-3.17-4.43-5.71c-0.52-2.6,0.21-4.98,2.11-6.88
				c1.9-2.05,4.33-3.43,7.18-4.04c1.06-0.3,2.08-0.45,3.02-0.45c1.82,0,3.65,0.38,5.46,1.13c3.02,1.31,5.88,2.64,8.52,3.96
				c0.31,0.17,0.52,0.24,0.7,0.24c0.22,0,0.46-0.09,0.74-0.26c4.2-3.44,8.32-7.47,12.27-12.01h-40.19c-2.75,0-5.13-0.99-7.08-2.93
				c-1.94-1.94-2.93-4.29-2.93-6.98s0.99-5.04,2.93-6.98c1.94-1.94,4.33-2.93,7.08-2.93h58c0.61-0.12,1.21-0.18,1.8-0.18
				c1.57,0,3.08,0.41,4.48,1.23l0.1,0.06l3.52,2.34c2.09,1.29,3.47,3.18,4.06,5.59c0.59,2.46,0.1,4.82-1.42,6.85
				c-6.91,9.21-15.42,17.98-25.31,26.06c1.42,0.79,2.85,1.62,4.25,2.48l0.08,0.05c2.92,2,4.58,4.85,4.94,8.48
				c0.15,0.51,0.22,0.96,0.22,1.37c0,2.11-0.5,4.05-1.5,5.81h8.14c0.95-0.32,1.92-0.49,2.89-0.49c1.07,0,2.14,0.2,3.19,0.6
				l3.16,0.99l0.09,0.04c1.97,0.82,3.51,2.2,4.58,4.08c0.86,1.53,1.23,3.1,1.11,4.7c9-2.64,17.26-5.97,24.61-9.93
				c-5.63-5.45-10.58-11.27-14.71-17.31c-1.13,1.22-2.27,2.41-3.42,3.56c-2.31,2.31-5.12,3.56-8.35,3.71h-0.48
				c-3.04,0-5.8-0.99-8.22-2.93c-2.45-1.66-3.74-4.18-3.74-7.27c0-2.69,1.03-4.92,3.06-6.61c10.66-9.39,19.51-20.7,26.27-33.57
				c1.51-2.73,3.64-4.78,6.34-6.13c1.76-0.8,3.48-1.19,5.19-1.19c1.06,0,2.21,0.15,3.41,0.45c2.84,0.84,4.89,2.56,6.19,5.15
				l0.05,0.1l0.04,0.1c0.47,1.26,0.71,2.55,0.71,3.83c0,1.31-0.32,2.7-0.95,4.13l-0.07,0.13c-0.85,1.58-1.7,3.15-2.55,4.67h51.76
				c2.62,0,4.94,0.99,6.88,2.93c1.94,1.94,2.93,4.29,2.93,6.98c0,2.71-1,5.03-2.96,6.91c-1.94,1.86-4.24,2.8-6.85,2.8h-4.69
				c0-0.01,0-0.01-0.01-0.01c-0.02,0-0.06,0.05-0.11,0.17c-4.95,11.08-11.71,20.98-20.1,29.48c8.38,4.55,17.85,8.3,28.17,11.16
				c2.69,0.67,4.59,2.47,5.46,5.18c0.99,2.68,0.63,5.33-1.04,7.67c-2.1,2.7-4.69,4.62-7.75,5.79c-1.73,0.73-3.51,1.11-5.2,1.11
				c-1.38,0-2.78-0.23-4.15-0.69c-11.96-3.94-23.02-9.21-32.88-15.65l-0.1-0.07c-0.17-0.12-0.31-0.19-0.41-0.19
				c-0.14,0-0.36,0.09-0.6,0.25c-9.12,5.69-20.09,10.81-32.67,15.26c-1.23,0.46-2.58,0.7-3.99,0.7c-1.43,0-2.93-0.31-4.46-0.93
				c-1.77-0.69-3.36-1.68-4.75-2.97c-2.59,8.65-5.11,16.09-7.48,22.16c-0.86,2.22-2.49,3.82-4.84,4.75
				c-1.03,0.41-2.08,0.61-3.1,0.61c-1.32,0-2.62-0.34-3.85-1.01c-2.22-1.11-3.83-2.88-4.73-5.25c-0.88-2.32-0.92-4.71-0.12-7.1
				c1.76-5.28,3.67-12.21,5.69-20.61h-10.97v74.76c0,5.1-0.52,8.98-1.59,11.83c-1.16,3.09-3.5,5.5-6.97,7.16
				c-3.95,1.83-9.76,2.85-17.79,3.13h-0.03L1270.41,1053.02L1270.41,1053.02z M1372.43,923.66c0.06,0.04,0.11,0.07,0.14,0.09
				c0.03-0.03,0.08-0.06,0.14-0.12c5.39-5.03,9.9-10.83,13.46-17.29h-29.85C1360.49,912.36,1365.9,918.18,1372.43,923.66z
				 M1379.98,1052.24c-2.99,0-5.65-1.07-7.91-3.17c-2.15-2-3.62-4.5-4.37-7.45c-0.83-2.55-0.41-5.01,1.21-7.14
				c1.52-1.99,3.58-3.05,5.95-3.05c0.18,0,0.37,0.01,0.55,0.02c3.56,0.26,6.76,0.39,9.54,0.39c2.23,0,3.83-0.55,4.87-1.7l0.07-0.08
				l0.08-0.07c1.68-1.48,4.93-7.75,7.9-33.03h-24.93c-0.13,0-0.18,0.02-0.18,0.02c-0.03,0.02-0.14,0.15-0.25,0.5
				c-3.44,11.65-8.72,21.97-15.69,30.66c-6.99,8.72-16.72,16.1-28.92,21.94c-1.73,0.78-3.39,1.17-4.96,1.17h-0.13l-0.13-0.02
				c-1.2-0.15-2.4-0.45-3.58-0.89c-2.61-0.87-4.94-2.45-6.86-4.67l-0.07-0.09c-1.67-2.17-2.22-4.66-1.64-7.4s2.21-4.81,4.72-5.98
				c16.43-7.53,27.85-19.39,33.97-35.25h-17.3c-2.76,0-5.11-0.95-6.98-2.83c-1.88-1.87-2.83-4.19-2.83-6.88
				c0-2.67,0.94-5.01,2.8-6.95c1.88-1.96,4.24-2.96,7.01-2.96h22.27c0.06,0,0.1,0,0.14-0.01c0.01-0.04,0.02-0.09,0.02-0.15
				c0.4-2.65,0.75-5.26,1.08-7.86c0.38-3.08,1.75-5.7,4.06-7.78c2.32-2.09,5.07-3.15,8.17-3.15c3.04,0,5.63,1.13,7.71,3.37
				l0.07,0.08c1.6,1.93,2.42,4.13,2.42,6.55v1.27l-0.01,0.1c-0.25,2.51-0.63,5.05-1.11,7.57h26.27c5.24,0,9.61,1.92,12.98,5.71
				c3.23,3.25,4.79,7.09,4.64,11.4c0,0.67-0.07,1.43-0.21,2.18c-2.94,27.2-6.88,43.13-12.03,48.72c-3.47,3.47-8.38,5.7-14.64,6.67
				l-0.1,0.02h-0.1c-2.54,0.13-5.73,0.2-9.48,0.2h-4.09L1379.98,1052.24L1379.98,1052.24z"/>
		</g>
	</g>
</g>
<path class="st24" d="M554.06,1047.05h-74.22c-28.48,0-51.56-23.09-51.56-51.56v-74.22c0-28.48,23.09-51.56,51.56-51.56h74.22
	c28.48,0,51.56,23.09,51.56,51.56v74.22C605.62,1023.97,582.54,1047.05,554.06,1047.05z"/>
<polygon class="st25" points="540.26,987.51 631.03,840.56 604.59,822.02 514.62,967.67 461.47,926.56 444.23,951.68 523.4,1012.92 
	524.83,1010.83 525.55,1011.33 535.03,995.97 540.64,987.8 "/>
</svg>
