<?xml version="1.0" encoding="utf-8"?>
<!-- Generator: Adobe Illustrator 23.0.5, SVG Export Plug-In . SVG Version: 6.00 Build 0)  -->
<svg version="1.1" id="圖層_1" xmlns="http://www.w3.org/2000/svg" xmlns:xlink="http://www.w3.org/1999/xlink" x="0px" y="0px"
	 viewBox="0 0 1920 1080" style="enable-background:new 0 0 1920 1080;" xml:space="preserve">
<style type="text/css">
	.st0{fill:#FFD66D;}
	.st1{fill:#291105;}
	.st2{fill:#F7960F;}
	.st3{fill:#27A6B7;stroke:#291105;stroke-miterlimit:10;}
	.st4{fill:#CA3244;stroke:#291105;stroke-miterlimit:10;}
	.st5{fill:#CD7DF3;stroke:#291105;stroke-miterlimit:10;}
	.st6{fill:#50E6FA;stroke:#291105;stroke-miterlimit:10;}
	.st7{fill:#C272E1;stroke:#291105;stroke-miterlimit:10;}
	.st8{fill:#393940;stroke:#000000;stroke-miterlimit:10;}
	.st9{fill:#FFFFFF;stroke:#000000;stroke-width:4;stroke-miterlimit:10;}
</style>
<g>
	<g>
		<g>
			<g>
				<path class="st0" d="M804.75,231.79c4.55-6.42,1.57-16.48-3.22-22.55c-4.79-6.07-11.24-10.41-15.04-17.52
					c-3.55-6.59-4.3-14.74-4.13-22.55c0.17-8.24,1.41-16.82,5.54-23.42c5.79-9.19,15.95-12.84,25.46-14.66
					c7.52-1.47,16.78-1.3,20.91,6.42c2.48,4.6,2.15,10.49,2.48,15.96c0.99,16.39,8.6,31.13,17.03,44.23
					c1.65,2.52,3.39,5.2,3.47,8.41c0.17,6.24-5.62,9.89-10.5,11.97c-11.99,4.94-24.22,9.19-36.62,12.49
					c-1.57,0.43-4.13-0.43-3.47-2.17"/>
				<g>
					<path class="st1" d="M805.82,232.48c4.88-7.02,1.74-17.17-2.81-23.42c-5.37-7.37-13.56-12.23-16.86-21.25
						c-1.74-4.6-2.31-9.63-2.48-14.48c-0.17-4.94,0.08-9.97,0.99-14.83c0.91-4.68,2.4-9.28,5.13-13.18c2.4-3.38,5.62-6.07,9.18-7.98
						c3.55-1.99,7.52-3.21,11.41-4.16c3.64-0.87,7.27-1.47,10.99-1.39c3.47,0.17,7.11,1.04,9.67,3.56
						c3.31,3.12,3.97,7.89,4.22,12.32c0.25,5.03,0.41,9.97,1.41,14.83c0.99,4.86,2.48,9.63,4.38,14.22c1.9,4.6,4.05,9.02,6.53,13.27
						c1.24,2.08,2.48,4.25,3.8,6.24c1.24,1.99,2.65,3.9,3.64,6.07c0.91,1.99,1.32,4.16,0.66,6.33c-0.5,1.73-1.65,3.21-2.98,4.42
						c-3.14,2.78-7.19,4.16-10.99,5.72c-9.84,3.9-19.84,7.29-30.01,10.15c-0.91,0.26-1.9,0.69-2.89,0.61
						c-0.25,0-0.74-0.09-0.99-0.35c-0.17-0.17-0.17,0,0-0.26c0.5-1.56-1.9-2.25-2.4-0.69c-0.58,1.91,0.83,3.38,2.48,3.82
						c2.23,0.52,4.71-0.61,6.86-1.21c5.46-1.56,10.83-3.3,16.12-5.12s10.5-3.82,15.71-5.98c3.64-1.47,7.27-3.38,9.67-6.68
						c2.73-3.73,2.56-8.33,0.5-12.4c-1.16-2.25-2.65-4.25-3.97-6.42c-1.32-2.17-2.65-4.42-3.89-6.59
						c-5.04-9.11-9.18-18.99-10.58-29.49c-1.24-9.02,0.91-20.81-7.94-26.28c-6.78-4.16-15.79-2.43-22.98-0.43
						c-8.35,2.25-16.37,6.68-21,14.48c-2.56,4.34-3.97,9.37-4.71,14.4c-0.74,5.2-0.91,10.49-0.58,15.78
						c0.33,5.12,1.24,10.23,3.39,14.92c1.98,4.42,5.21,8.07,8.6,11.45c3.22,3.3,6.78,6.42,9.18,10.41
						c2.23,3.73,3.72,8.24,3.31,12.75c-0.17,2.08-0.83,4.08-2.07,5.72C802.76,232.48,804.91,233.78,805.82,232.48L805.82,232.48z"/>
				</g>
			</g>
			<g>
				<g>
					<path class="st1" d="M783.75,171.25c12.81,1.3,25.87-0.52,37.94-5.2c3.47-1.3,6.78-2.86,10.08-4.68
						c1.41-0.78,0.17-3.04-1.24-2.25c-11.16,5.98-23.56,9.45-36.12,9.8c-3.55,0.09-7.11,0-10.66-0.35
						C782.18,168.56,782.18,171.17,783.75,171.25L783.75,171.25z"/>
				</g>
			</g>
		</g>
		<g>
			<g>
				<path class="st0" d="M831.2,140.99c0-5.98,4.71-10.41,9.18-13.18c13.72-8.41,29.84-11.19,45.05-7.72
					c8.1,1.82,16.95,6.85,18.85,16.39c0.91,4.68-0.08,9.54-0.83,14.22c-2.31,14.57-2.31,29.75,0,44.32
					c0.91,5.64,1.57,12.84-2.56,15.7c-1.49,1.04-3.22,1.13-4.96,1.3c-10.75,0.78-21.49,1.65-32.24,2.43
					c-1.74,0.17-3.55,0.26-5.29-0.43c-2.07-0.78-3.64-2.69-5.04-4.6c-14.55-19.17-22.57-45.1-21.99-70.86"/>
				<g>
					<path class="st1" d="M832.44,140.99c0-4.16,2.65-7.55,5.7-9.97c3.47-2.78,7.69-4.86,11.74-6.5c8.51-3.47,17.69-5.03,26.87-4.34
						c7.44,0.52,15.79,2.34,21.49,7.81c2.81,2.69,4.71,6.24,5.13,10.23c0.58,5.38-0.91,10.75-1.57,16.04
						c-1.41,10.58-1.65,21.33-0.66,31.92c0.41,4.77,1.49,9.45,1.82,14.22c0.25,3.21,0.25,7.72-2.73,9.63
						c-1.98,1.3-4.79,1.04-7.03,1.21c-2.56,0.17-5.13,0.43-7.77,0.61c-5.29,0.43-10.58,0.78-15.87,1.21
						c-2.48,0.17-4.96,0.52-7.52,0.52c-2.48,0.09-4.3-0.78-5.95-2.69c-2.98-3.3-5.46-7.29-7.77-11.1
						c-9.51-16.13-14.8-34.95-15.54-53.86c-0.08-2.34-0.08-4.68-0.08-7.02c0-1.65-2.48-1.65-2.48,0
						c-0.41,20.12,4.22,40.41,13.56,58.02c2.23,4.25,4.79,8.33,7.6,12.23c1.41,1.91,2.81,3.9,4.71,5.38c1.98,1.47,4.3,1.82,6.7,1.65
						c11.08-0.69,22.15-1.65,33.23-2.52c2.23-0.17,4.46-0.52,6.2-2.17c1.32-1.21,2.15-2.95,2.56-4.68
						c0.99-4.08,0.25-8.41-0.41-12.49c-1.74-11.36-2.07-22.9-1.07-34.34c0.25-2.78,0.58-5.55,1.07-8.33
						c0.41-2.86,0.99-5.64,1.24-8.5c0.41-4.68-0.41-9.45-2.98-13.44c-4.55-6.94-12.56-10.06-20.17-11.36
						c-9.59-1.65-19.43-0.95-28.68,1.99c-4.71,1.47-9.26,3.56-13.47,6.07c-3.47,2.08-7.03,4.86-8.93,8.67
						c-0.99,1.91-1.49,3.9-1.49,6.07C829.96,142.63,832.44,142.63,832.44,140.99L832.44,140.99z"/>
				</g>
			</g>
			<g>
				<g>
					<path class="st1" d="M833.76,160.59c16.53,0.78,33.56,1.39,49.68-3.3c4.55-1.3,9.01-3.12,13.31-5.29
						c1.41-0.78,0.17-2.95-1.24-2.25c-14.8,7.72-31.58,8.93-47.86,8.67c-4.63-0.09-9.26-0.26-13.89-0.52
						C832.11,157.9,832.11,160.5,833.76,160.59L833.76,160.59z"/>
				</g>
			</g>
		</g>
		<g>
			<g>
				<path class="st0" d="M895.92,139.51c5.04-8.07,13.56-12.05,21.82-14.14c9.34-2.34,19.26-2.86,28.35,0.69
					c9.09,3.56,17.19,11.71,20.17,22.46c2.81,10.41,0.74,21.68-0.08,32.61c-0.74,10.06-0.25,20.29,1.41,30.27
					c0.74,4.68,1.65,10.15-0.91,13.79c-3.06,4.34-8.68,3.38-13.31,2.08c-11.74-3.38-23.48-6.76-35.21-10.23
					c-5.37-1.56-11.08-3.3-15.29-7.63c-4.55-4.68-6.78-11.79-8.02-18.82c-2.98-17.35-0.5-35.21,1.9-52.64"/>
				<g>
					<path class="st1" d="M897,140.12c4.71-7.46,12.65-11.27,20.67-13.36c9.42-2.43,19.67-3.04,28.85,0.87
						c7.44,3.12,13.72,9.28,17.11,16.91c4.22,9.54,2.89,20.47,1.98,30.53c-1.07,11.01-1.16,21.94,0.33,32.96
						c0.58,4.51,2.15,9.63,0.91,14.14c-0.5,1.91-1.65,3.47-3.39,4.34c-1.65,0.78-3.47,0.78-5.29,0.52
						c-2.07-0.26-4.05-0.87-5.95-1.39c-2.56-0.78-5.13-1.47-7.69-2.25c-5.21-1.47-10.42-3.04-15.62-4.51
						c-4.88-1.39-9.92-2.69-14.71-4.34c-4.13-1.39-8.18-3.38-11.08-6.85c-2.98-3.47-4.63-7.98-5.79-12.4
						c-1.24-5.03-1.9-10.15-2.15-15.35c-0.58-11.19,0.5-22.29,1.98-33.39c0.33-2.69,0.74-5.38,1.07-8.15
						c0.25-1.65-2.15-2.34-2.4-0.69c-1.65,11.62-3.22,23.33-3.31,35.04c0,5.81,0.33,11.62,1.24,17.43
						c0.74,4.86,1.98,9.71,4.22,14.14c2.15,4.25,5.37,7.72,9.42,10.06c4.3,2.43,9.09,3.56,13.8,4.94
						c10.91,3.21,21.82,6.5,32.82,9.54c3.64,0.95,7.94,1.65,11.32-0.43c3.97-2.43,4.71-7.37,4.38-11.79
						c-0.25-2.6-0.74-5.12-1.07-7.63c-0.41-2.95-0.74-5.9-0.99-8.85c-0.41-5.9-0.5-11.79-0.08-17.69
						c0.66-11.19,3.14-22.72,0.25-33.82c-2.31-8.76-7.94-16.22-15.29-20.81c-8.6-5.46-18.85-6.42-28.6-4.94
						c-8.76,1.3-18.02,4.25-24.63,10.75c-1.57,1.56-2.98,3.38-4.22,5.29C893.94,140.21,896.09,141.51,897,140.12L897,140.12z"/>
				</g>
			</g>
			<g>
				<g>
					<path class="st1" d="M896.75,152.78c4.13-0.35,7.94,1.56,11.74,2.95c3.89,1.47,7.94,2.78,11.9,3.82
						c8.02,2.17,16.2,3.56,24.39,4.08c4.63,0.35,9.26,0.35,13.89,0.17c1.57-0.09,1.57-2.69,0-2.6c-16.62,0.69-33.23-1.99-48.85-7.72
						c-4.22-1.56-8.51-3.73-13.06-3.38C895.18,150.35,895.18,152.95,896.75,152.78L896.75,152.78z"/>
				</g>
			</g>
		</g>
		<g>
			<g>
				<path class="st0" d="M962.22,156.86c8.35-6.16,17.03-11.62,26.04-16.3c5.79-2.95,12.07-5.72,18.27-4.25
					c7.19,1.65,12.65,8.67,16.7,15.96c11.32,20.64,15.04,47.01,9.84,70.86c-0.83,3.73-1.82,7.46-3.72,10.58
					c-5.29,8.67-15.38,10.32-24.39,10.67c-9.09,0.35-18.76-0.17-26.45-5.98c-10.42-7.98-14.55-23.68-16.53-38.25
					c-1.49-10.58-2.23-21.33-2.31-32.09c0-4.86,0.41-10.41,3.8-13.1"/>
				<g>
					<path class="st1" d="M962.8,157.9c8.6-6.42,17.69-12.14,27.2-16.91c4.55-2.25,9.67-4.42,14.8-3.73
						c4.38,0.61,8.1,3.3,11.08,6.59c3.14,3.47,5.54,7.55,7.69,11.79c2.23,4.34,4.05,8.85,5.54,13.53c3.06,9.45,4.71,19.43,4.96,29.4
						c0.08,5.03-0.08,10.06-0.66,15c-0.58,5.03-1.49,10.15-3.06,14.92c-1.49,4.25-4.05,7.89-7.85,10.23
						c-3.39,2.08-7.27,3.12-11.16,3.64c-4.22,0.61-8.6,0.69-12.81,0.52c-4.63-0.17-9.34-0.78-13.64-2.6
						c-8.1-3.3-13.39-10.84-16.62-19.17c-3.47-9.02-4.88-18.82-5.95-28.36c-0.66-5.72-1.07-11.53-1.24-17.35
						c-0.08-2.78-0.17-5.46-0.17-8.24c0-2.17,0.08-4.42,0.58-6.5c0.41-1.82,1.16-3.64,2.56-4.77c1.24-1.04,0-3.3-1.24-2.25
						c-3.55,2.86-4.3,7.63-4.38,11.97c-0.17,5.81,0.17,11.71,0.58,17.43c0.74,10.84,1.9,21.86,4.79,32.35
						c2.4,8.76,6.37,17.61,13.39,23.24c8.02,6.42,18.35,7.11,28.11,6.76c8.18-0.35,17.28-1.73,23.06-8.41
						c3.39-3.9,4.96-9.02,6.03-14.14s1.74-10.32,2.07-15.61c0.58-10.58-0.33-21.33-2.81-31.66c-2.4-9.97-6.2-19.95-11.82-28.45
						c-2.56-3.9-5.7-7.72-9.67-10.15c-4.38-2.78-9.42-3.3-14.38-2.08c-5.29,1.3-10.17,4.08-14.96,6.68
						c-4.96,2.78-9.84,5.72-14.55,8.93c-2.23,1.56-4.55,3.12-6.7,4.77C960.32,156.68,961.56,158.94,962.8,157.9L962.8,157.9z"/>
				</g>
			</g>
			<g>
				<g>
					<path class="st1" d="M959.9,164.75c7.94,2.52,16.2,3.21,24.47,3.47c3.89,0.09,7.85,0.17,11.74,0.17
						c3.55,0,7.11-0.26,10.66-0.95c3.89-0.78,7.69-2.34,10.91-4.94c1.24-1.04,0-3.3-1.24-2.25c-5.54,4.42-12.48,5.38-19.26,5.46
						c-7.69,0.17-15.46,0-23.06-0.78c-4.55-0.52-9.09-1.39-13.47-2.69C959.08,161.8,958.42,164.32,959.9,164.75L959.9,164.75z"/>
				</g>
			</g>
		</g>
		<g>
			<g>
				<path class="st0" d="M1016.11,174.72c11.66-22.2,34.22-33.65,56.13-35.82c6.78-0.69,13.97-0.52,19.92,3.38
					c8.93,5.81,13.06,18.99,12.65,31.05c-0.41,12.05-4.55,23.59-8.6,34.69c-3.39,9.19-7.19,19.08-14.63,23.85
					c-4.71,3.04-10.17,3.64-15.54,4.08c-5.95,0.52-11.82,1.13-17.77,1.65c-6.86,0.61-14.14,1.21-20.09-2.86
					c-7.77-5.29-10.99-16.82-11.32-27.58c-0.33-10.75,1.49-21.42,0.58-32"/>
				<g>
					<path class="st1" d="M1017.19,175.33c8.6-16.22,23.64-27.23,40.5-32.26c4.05-1.21,8.27-2.08,12.48-2.69
						c4.79-0.61,9.75-0.95,14.55,0.17c4.46,1.04,8.35,3.38,11.32,6.94c2.73,3.3,4.63,7.46,5.79,11.62
						c2.89,10.15,1.74,20.81-0.99,30.79c-1.41,5.38-3.31,10.67-5.21,15.87c-1.74,4.68-3.39,9.37-5.62,13.79
						c-2.07,4.08-4.71,7.98-8.35,10.67c-4.22,3.04-9.26,3.82-14.22,4.34c-5.54,0.52-11.16,1.04-16.78,1.56
						c-5.04,0.43-10.17,1.21-15.21,0.26c-4.46-0.87-8.35-3.21-11.16-7.02c-2.56-3.56-4.13-7.81-5.04-12.14
						c-2.4-10.84-0.66-22.12-0.41-33.04c0.08-2.95,0-5.9-0.25-8.85c-0.17-1.65-2.65-1.65-2.48,0c0.99,12.23-1.57,24.37-0.25,36.6
						c0.99,9.11,4.05,19.25,11.9,24.28c4.46,2.86,9.75,3.47,14.88,3.21c5.79-0.26,11.49-0.95,17.28-1.47
						c5.37-0.52,10.99-0.69,16.28-2.17c4.71-1.39,8.68-4.16,11.82-8.15c3.06-3.9,5.21-8.5,7.03-13.1c2.07-5.2,3.97-10.49,5.79-15.78
						c3.55-10.67,6.28-22.12,4.79-33.48c-1.16-9.11-4.96-18.73-12.65-23.85c-8.35-5.64-19.43-4.42-28.68-2.52
						c-17.94,3.56-34.88,13.36-45.55,29.05c-1.32,1.99-2.56,4.08-3.72,6.24C1014.3,175.5,1016.36,176.8,1017.19,175.33
						L1017.19,175.33z"/>
				</g>
			</g>
			<g>
				<g>
					<path class="st1" d="M1018.02,178.63c21,0.87,43.15,0.87,61.91-10.67c4.79-2.95,9.18-6.5,12.98-10.67
						c1.07-1.21-0.66-3.04-1.74-1.82c-6.61,7.29-14.88,12.49-23.89,15.78c-9.75,3.56-20.17,4.86-30.42,5.12
						c-6.28,0.17-12.48-0.09-18.76-0.35C1016.44,176.02,1016.44,178.63,1018.02,178.63L1018.02,178.63z"/>
				</g>
			</g>
		</g>
		<g>
			<g>
				<path class="st0" d="M1090.51,139.08c11.41-19.25,33.81-28.1,52.66-20.9c7.44,2.86,14.3,8.15,18.68,15.78
					c4.38,7.63,5.87,17.87,2.98,26.45c-2.73,7.98-8.76,13.62-13.06,20.55c-6.86,11.19-9.75,26.45-19.51,34
					c-9.67,7.46-22.48,4.34-33.23-0.61c-3.22-1.47-6.53-3.21-8.84-6.24c-3.31-4.25-4.22-10.32-4.55-16.13
					c-0.91-18.47,3.47-36.6,7.77-54.38"/>
				<g>
					<path class="st1" d="M1091.58,139.77c8.6-14.48,24.47-23.85,40.84-22.64c8.35,0.61,16.62,4.25,22.73,10.32
						c6.86,6.76,10.66,16.65,9.75,26.54c-0.5,4.94-2.4,9.45-5.13,13.53c-2.65,3.99-5.79,7.63-8.43,11.71
						c-4.88,7.46-7.44,16.13-11.57,24.02c-1.9,3.73-4.22,7.2-7.36,9.97c-3.39,3.04-7.69,4.6-12.15,4.94
						c-4.55,0.35-9.18-0.52-13.56-1.99c-4.38-1.39-9.01-3.21-12.81-5.9c-4.05-2.95-5.79-7.55-6.61-12.4
						c-0.91-5.38-0.83-11.1-0.5-16.56c0.58-11.71,2.98-23.24,5.62-34.69c0.66-2.86,1.32-5.64,2.07-8.5c0.41-1.65-1.98-2.34-2.4-0.69
						c-2.89,11.97-5.79,24.02-7.11,36.34c-0.66,6.07-0.99,12.23-0.66,18.39c0.25,5.03,0.91,10.41,3.39,14.83
						c2.65,4.68,7.19,7.11,11.82,9.19c4.46,1.99,9.18,3.56,13.97,4.25c4.63,0.69,9.42,0.52,13.89-1.21
						c4.22-1.65,7.77-4.51,10.5-8.24c5.62-7.37,8.27-16.65,12.48-24.89c2.23-4.42,5.04-8.33,8.02-12.23
						c3.06-3.99,5.95-8.15,7.6-13.01c3.39-9.8,1.16-21.42-4.55-29.83c-5.37-7.89-13.64-13.27-22.57-15.52
						c-16.78-4.08-34.72,3.47-45.46,17.17c-1.41,1.82-2.73,3.73-3.89,5.72C1088.61,139.86,1090.76,141.16,1091.58,139.77
						L1091.58,139.77z"/>
				</g>
			</g>
			<g>
				<g>
					<path class="st1" d="M1092.91,142.89c3.64-0.52,7.11,1.82,10.58,2.52c3.8,0.78,7.77,0.69,11.74,0.69
						c8.02,0.17,16.12,0.17,24.14-0.43c4.55-0.35,9.01-0.95,13.47-1.82c1.57-0.35,0.91-2.78-0.66-2.52
						c-7.94,1.56-16.04,2.08-24.05,2.25c-4.05,0.09-8.02,0-12.07-0.09c-3.89-0.09-8.02,0.09-11.82-0.69
						c-4.05-0.78-7.69-3.21-11.9-2.52C1090.68,140.64,1091.34,143.15,1092.91,142.89L1092.91,142.89z"/>
				</g>
			</g>
		</g>
		<g>
			<g>
				<path class="st0" d="M1153.83,143.59c2.56-9.45,13.47-12.32,21-7.98c7.52,4.34,12.15,13.27,16.28,21.94
					c5.79,12.23,11.41,26.89,6.78,39.81c-2.4,6.85-7.36,11.97-12.07,16.82c-5.04,5.12-10,10.23-15.04,15.35
					c-1.41,1.47-2.89,2.95-4.71,3.56c-3.06,1.04-6.2-0.52-9.09-2.17c-9.59-5.38-19.92-12.75-22.48-24.98
					c-2.31-11.19,2.65-22.46,7.94-32.09c5.29-9.63,11.41-19.6,11.57-31.05"/>
				<g>
					<path class="st1" d="M1155.07,143.93c1.65-6.07,7.44-9.28,13.23-8.93c7.03,0.43,12.23,6.42,15.87,12.23
						c2.15,3.38,3.97,7.02,5.7,10.67c1.9,3.99,3.72,8.07,5.21,12.32c2.89,8.15,4.63,17.26,1.98,25.84
						c-2.56,8.33-9.18,14.31-14.96,20.21c-3.47,3.47-6.86,7.02-10.33,10.49c-1.57,1.56-3.06,3.38-4.88,4.6
						c-1.98,1.3-4.13,1.04-6.2,0.17c-3.39-1.39-6.61-3.56-9.67-5.64c-2.89-1.99-5.7-4.16-8.1-6.76c-5.37-5.72-8.27-13.01-7.69-21.07
						c1.24-18.21,15.95-31.22,19.34-48.74c0.41-2.17,0.66-4.25,0.66-6.42c0-1.65-2.48-1.65-2.48,0c-0.25,9.45-4.55,17.95-8.93,25.93
						c-4.55,8.24-9.42,16.65-10.75,26.19c-0.66,4.51-0.5,9.19,0.83,13.53c1.16,3.73,3.06,7.2,5.46,10.15
						c4.71,5.9,11.24,10.23,17.69,13.79c2.07,1.13,4.22,2.17,6.53,2.25c2.23,0.09,4.13-0.78,5.87-2.17
						c1.82-1.56,3.47-3.38,5.21-5.12c1.9-1.91,3.72-3.82,5.62-5.72c3.39-3.38,6.78-6.76,10-10.32c2.98-3.21,5.7-6.68,7.6-10.75
						c3.97-8.41,3.39-18.04,0.99-26.8c-1.32-4.68-3.14-9.19-5.13-13.62c-1.82-3.99-3.72-7.98-5.87-11.71
						c-3.72-6.59-9.01-13.79-16.45-15.61c-6.03-1.56-12.98,0.43-16.7,5.81c-0.99,1.39-1.65,2.95-2.07,4.51
						C1152.26,144.89,1154.57,145.58,1155.07,143.93L1155.07,143.93z"/>
				</g>
			</g>
			<g>
				<g>
					<path class="st1" d="M1153.66,143.5c0.5,4.16,2.65,7.37,5.29,10.41c3.14,3.64,6.45,7.2,9.59,10.84
						c3.31,3.73,6.61,7.37,9.84,11.1c2.98,3.3,5.79,6.85,9.09,9.71c3.22,2.78,7.19,4.94,11.49,3.9c1.57-0.35,0.91-2.86-0.66-2.52
						c-3.39,0.87-6.61-1.13-9.18-3.38c-3.14-2.69-5.79-5.98-8.51-9.11c-6.03-6.76-12.07-13.53-18.02-20.29
						c-2.73-3.04-5.95-6.33-6.36-10.67C1155.98,141.85,1153.5,141.85,1153.66,143.5L1153.66,143.5z"/>
				</g>
			</g>
		</g>
		<g>
			<g>
				<path class="st2" d="M706.13,424.32c-2.4,3.21-2.89,7.89-2.15,12.05c0.74,4.16,2.65,7.98,4.46,11.62
					c1.9,3.82,3.8,7.55,5.62,11.36c1.49,3.04,3.31,6.33,6.2,7.29c2.23,0.69,4.63-0.26,6.36-1.99s2.81-4.34,3.47-6.94
					c1.82-7.55,0-16.22-4.71-21.77c-3.22-3.82-7.44-6.07-11.74-7.81"/>
				<g>
					<path class="st1" d="M705.05,423.63c-4.22,5.81-2.65,13.79,0,19.95c1.57,3.64,3.47,7.2,5.21,10.75c1.65,3.3,3.06,6.85,5.21,9.8
						c1.82,2.6,4.46,4.42,7.6,3.82c3.31-0.61,5.7-3.47,7.03-6.59c2.65-6.16,2.4-13.53,0-19.77c-1.41-3.56-3.47-6.68-6.28-9.11
						c-2.98-2.52-6.36-4.25-9.92-5.72c-1.49-0.61-2.15,1.91-0.66,2.52c5.46,2.17,10.58,5.38,13.56,10.93
						c2.65,5.03,3.47,11.27,2.15,16.82c-0.66,2.95-1.98,6.07-4.63,7.63c-2.65,1.56-5.04,0.35-6.78-1.99
						c-1.9-2.52-3.14-5.64-4.55-8.5c-1.57-3.21-3.22-6.33-4.79-9.63c-2.81-5.9-5.46-13.88-1.07-19.77c0.41-0.52,0.08-1.47-0.41-1.82
						C706.13,422.76,705.47,423.11,705.05,423.63L705.05,423.63z"/>
				</g>
			</g>
			<g>
				<path class="st2" d="M699.1,373.85c-4.13,4.42-5.21,11.71-4.96,18.3c0.58,13.01,5.87,25.67,14.22,34.08
					c1.16,1.13,2.48,2.25,3.97,2.34c2.07,0.09,3.89-1.82,4.63-4.16c0.74-2.25,0.58-4.86,0.33-7.29c-0.91-7.2-3.14-14.14-6.45-20.21"
					/>
				<g>
					<path class="st1" d="M698.28,372.98c-4.3,4.68-5.46,11.53-5.37,17.87c0.08,6.76,1.49,13.62,3.97,19.86
						c2.4,6.07,5.87,11.71,10.42,16.3c2.23,2.25,5.13,4.16,8.1,2.08c2.81-1.99,3.55-5.72,3.47-9.02
						c-0.25-8.15-2.98-16.56-6.86-23.59c-0.83-1.47-2.89-0.17-2.15,1.3c3.06,5.72,5.13,11.97,6.12,18.39
						c0.5,3.04,0.99,6.76-0.74,9.45c-0.66,1.04-1.74,1.99-2.98,1.82c-1.41-0.17-2.48-1.47-3.47-2.43
						c-8.1-8.41-12.73-20.29-13.39-32.18c-0.33-6.16,0.33-13.27,4.55-17.95C701.09,373.59,699.35,371.77,698.28,372.98
						L698.28,372.98z"/>
				</g>
			</g>
			<g>
				<path class="st2" d="M707.45,321.2c-6.2,3.82-8.35,12.92-9.51,21.07c-0.91,6.85-1.57,13.79-1.16,20.73
					c0.66,12.23,4.38,24.28,10.66,34.08c0.41,0.61,0.74,1.21,1.32,1.47c1.49,0.87,3.22-0.69,4.05-2.43c1.98-3.9,1.9-8.76,1.9-13.27
					c-0.17-11.45-0.33-22.9-0.5-34.34"/>
				<g>
					<path class="st1" d="M706.79,320.08c-6.45,4.08-8.6,12.49-9.75,19.77c-1.57,9.89-2.31,19.95-0.91,29.92
						c1.32,9.11,4.3,17.95,8.84,25.76c0.99,1.65,2.07,3.99,4.05,4.42c1.9,0.43,3.55-1.13,4.55-2.69c2.31-3.73,2.4-8.76,2.4-13.01
						c-0.08-11.97-0.33-23.85-0.58-35.82c0-1.65-2.48-1.65-2.48,0c0.17,9.71,0.33,19.43,0.41,29.14c0.08,4.42,0.5,9.02-0.25,13.36
						c-0.33,1.91-0.83,4.08-2.07,5.55c-0.41,0.52-1.16,1.21-1.82,0.78c-0.74-0.43-1.24-1.73-1.74-2.43
						c-4.3-7.2-7.19-15.26-8.6-23.59c-1.57-9.19-1.16-18.65,0.08-27.84c0.99-7.29,2.4-16.91,9.01-21.07
						C709.44,321.46,708.2,319.21,706.79,320.08L706.79,320.08z"/>
				</g>
			</g>
			<g>
				<path class="st2" d="M725.72,286.69c-8.68,2.43-14.96,12.05-17.11,22.38c-2.23,10.32-1.07,21.16,0.58,31.57
					c0.33,2.43,0.91,5.03,2.56,6.5c2.31,1.91,5.7,0.43,7.36-2.25c1.65-2.69,2.07-6.16,2.31-9.54c0.74-7.63,1.49-15.26,2.15-22.9"/>
				<g>
					<path class="st1" d="M725.39,285.47c-6.12,1.73-10.83,6.68-13.97,12.32c-3.72,6.68-5.13,14.4-5.29,22.12
						c-0.08,4.42,0.25,8.85,0.74,13.18c0.25,2.17,0.58,4.34,0.83,6.5c0.25,1.82,0.5,3.64,1.07,5.38c1.16,3.04,3.64,5.12,6.86,4.16
						c3.22-0.95,5.13-4.08,6.03-7.37c0.58-2.08,0.74-4.25,0.99-6.33c0.25-2.52,0.5-5.12,0.74-7.63c0.5-5.12,0.99-10.23,1.49-15.26
						c0.17-1.65-2.31-1.65-2.48,0c-0.74,7.98-1.49,16.04-2.31,24.02c-0.33,3.12-0.74,6.94-3.22,9.11c-0.83,0.78-2.07,1.3-3.22,1.13
						c-1.32-0.26-2.15-1.56-2.56-2.78c-0.5-1.47-0.74-3.12-0.91-4.6c-0.33-1.99-0.58-3.99-0.83-5.98c-0.41-3.9-0.74-7.81-0.74-11.79
						c0-7.02,0.99-14.22,4.05-20.55c2.81-5.81,7.27-11.19,13.39-12.92C727.62,287.55,726.96,285.04,725.39,285.47L725.39,285.47z"/>
				</g>
			</g>
			<g>
				<path class="st2" d="M776.14,241.42c-6.28-1.47-12.9,0.09-18.85,2.95c-11.08,5.29-20.58,15.18-26.45,27.49
					c-5.95,12.32-8.18,27.06-6.37,41.11c0.08,0.78,0.25,1.56,0.58,2.17c0.91,1.47,2.81,1.39,4.22,0.61
					c1.82-0.95,3.31-2.69,4.71-4.42c9.09-11.27,16.86-24.02,23.06-37.81"/>
				<g>
					<path class="st1" d="M776.48,240.2c-10.33-2.34-21.08,2.52-29.26,8.93c-7.77,6.07-14.05,14.22-18.19,23.42
						c-4.63,10.32-6.86,21.77-6.53,33.22c0.08,2.78,0.25,5.55,0.74,8.24c0.41,2.52,2.31,3.9,4.71,3.56c2.31-0.35,4.13-2.17,5.62-3.9
						c1.74-1.99,3.39-4.16,5.04-6.33c7.6-10.23,14.05-21.33,19.34-33.13c0.66-1.47-1.49-2.86-2.15-1.3
						c-4.3,9.71-9.51,18.99-15.46,27.67c-1.49,2.17-3.06,4.34-4.63,6.42c-1.57,1.99-3.06,4.08-4.79,5.9
						c-0.91,0.95-3.39,3.21-4.79,1.91c-0.66-0.69-0.66-2.25-0.74-3.21c-0.17-1.39-0.25-2.78-0.33-4.16
						c-0.99-20.21,6.2-40.85,21.16-54.03c7.85-6.94,19.01-12.92,29.51-10.58C777.38,243.06,778.05,240.55,776.48,240.2L776.48,240.2
						z"/>
				</g>
			</g>
			<g>
				<path class="st2" d="M810.61,227.19c-12.98-3.3-27.36,2.52-35.96,14.57c-1.98,2.78-3.64,5.72-5.54,8.5
					c-2.73,3.99-5.87,7.46-8.35,11.62c-2.56,4.08-4.46,9.11-4.13,14.14c0,0.26,0,0.52,0.17,0.69c0.33,0.78,1.32,0.52,1.98,0.17
					c20.33-10.15,33.15-34.08,50.26-50.65"/>
				<g>
					<path class="st1" d="M810.95,225.98c-9.34-2.34-19.34-0.17-27.36,5.29c-4.3,2.95-7.94,6.76-10.91,11.19
						c-1.65,2.52-3.14,5.12-4.88,7.55c-1.74,2.52-3.72,4.94-5.54,7.46c-3.47,4.68-6.36,9.97-6.86,16.04
						c-0.08,1.3-0.33,3.12,0.41,4.25c0.66,1.04,1.9,1.04,2.98,0.69c2.23-0.87,4.38-2.34,6.36-3.64
						c8.27-5.55,15.13-13.01,21.57-20.73c7.52-9.02,14.63-18.56,23.06-26.71c1.16-1.13-0.58-2.95-1.74-1.82
						c-13.8,13.44-23.89,30.61-38.69,42.93c-1.82,1.47-3.64,2.86-5.62,4.16c-0.91,0.61-1.82,1.13-2.73,1.73
						c-0.99,0.61-2.23,1.04-3.14,1.65c-0.33,0.17-0.25-0.17-0.08,0.17c-0.08-0.26,0-0.87,0-1.13c0-0.61,0-1.3,0.08-1.91
						c0.17-1.47,0.5-3.04,0.99-4.42c0.91-2.6,2.23-5.12,3.72-7.37c1.57-2.34,3.39-4.6,5.13-6.85c1.74-2.25,3.31-4.6,4.79-7.02
						c2.73-4.42,5.62-8.5,9.59-11.79c7.85-6.59,18.35-9.54,28.19-7.11C811.85,228.84,812.52,226.32,810.95,225.98L810.95,225.98z"/>
				</g>
			</g>
		</g>
		<g>
			<g>
				<path class="st2" d="M1270.55,425.88c2.4,3.21,2.89,7.89,2.15,12.05c-0.74,4.16-2.65,7.98-4.46,11.62
					c-1.9,3.82-3.8,7.55-5.62,11.36c-1.49,3.04-3.31,6.33-6.2,7.29c-2.23,0.69-4.63-0.26-6.36-1.99c-1.74-1.82-2.81-4.34-3.47-6.94
					c-1.82-7.55,0-16.22,4.71-21.77c3.22-3.82,7.44-6.07,11.74-7.81"/>
				<g>
					<path class="st1" d="M1269.47,426.58c3.72,5.12,2.31,12.14,0,17.52c-1.41,3.21-3.06,6.33-4.63,9.45
						c-1.49,3.04-2.89,6.07-4.55,9.02c-1.24,2.25-3.14,4.94-5.95,4.6c-2.98-0.35-4.96-3.21-5.95-5.9
						c-2.07-5.46-1.74-11.97,0.5-17.35c2.73-6.59,8.27-10.41,14.38-12.84c1.49-0.61,0.83-3.12-0.66-2.52
						c-6.2,2.43-12.07,6.16-15.21,12.49c-2.98,5.9-3.72,13.1-1.9,19.43c0.91,3.21,2.65,6.59,5.62,8.24
						c2.89,1.65,6.12,1.13,8.51-1.13c2.48-2.34,3.8-5.81,5.29-8.85c1.82-3.64,3.64-7.29,5.46-10.93c3.22-6.76,6.12-15.87,1.16-22.64
						c-0.41-0.52-1.07-0.87-1.74-0.43C1269.39,425.1,1269.06,425.97,1269.47,426.58L1269.47,426.58z"/>
				</g>
			</g>
			<g>
				<path class="st2" d="M1277.49,375.49c4.13,4.42,5.21,11.71,4.96,18.3c-0.58,13.01-5.87,25.67-14.22,34.08
					c-1.16,1.13-2.48,2.25-3.97,2.34c-2.07,0.09-3.89-1.82-4.63-4.16c-0.74-2.25-0.58-4.86-0.33-7.29
					c0.91-7.2,3.14-14.14,6.45-20.21"/>
				<g>
					<path class="st1" d="M1276.67,376.45c3.72,4.16,4.63,10.23,4.63,15.7c0,6.07-1.16,12.05-3.22,17.69
						c-1.98,5.46-4.88,10.67-8.68,15c-1.49,1.73-4.13,5.38-6.61,3.73c-2.56-1.73-2.65-5.55-2.4-8.33
						c0.66-7.29,2.98-14.57,6.45-20.99c0.83-1.47-1.32-2.78-2.15-1.3c-3.47,6.42-5.7,13.53-6.61,20.9c-0.41,3.38-0.5,7.2,1.57,10.15
						c1.98,2.69,5.13,3.38,7.77,1.3c2.56-1.91,4.63-4.6,6.45-7.2c1.9-2.6,3.47-5.46,4.88-8.41c2.81-6.24,4.46-12.92,4.88-19.77
						c0.41-7.02-0.5-15-5.29-20.29C1277.33,373.33,1275.59,375.23,1276.67,376.45L1276.67,376.45z"/>
				</g>
			</g>
			<g>
				<path class="st2" d="M1269.23,322.76c6.2,3.82,8.35,12.92,9.51,21.07c0.91,6.85,1.57,13.79,1.16,20.73
					c-0.66,12.23-4.38,24.28-10.66,34.08c-0.41,0.61-0.74,1.21-1.32,1.47c-1.49,0.87-3.22-0.69-4.05-2.43
					c-1.98-3.9-1.9-8.76-1.9-13.27c0.17-11.45,0.33-22.9,0.5-34.34"/>
				<g>
					<path class="st1" d="M1268.57,323.89c5.79,3.64,7.52,11.62,8.6,18.04c1.49,9.02,2.15,18.39,1.07,27.58
						c-0.99,8.41-3.55,16.74-7.52,24.11c-0.5,0.87-0.99,1.82-1.49,2.69c-0.5,0.78-0.99,1.91-1.65,2.52
						c-1.41,1.21-2.81-2.17-3.14-3.12c-1.41-3.99-1.16-8.41-1.16-12.58c0.17-11.01,0.33-22.03,0.5-33.04c0-1.65-2.48-1.65-2.48,0
						c-0.17,10.67-0.33,21.33-0.5,31.92c-0.08,4.68-0.41,9.54,1.07,14.05c0.58,1.91,1.49,3.82,3.14,4.94
						c1.82,1.21,3.72,0.61,4.88-1.13c2.56-3.56,4.55-7.81,6.12-11.88c1.74-4.25,2.98-8.76,3.89-13.27
						c1.9-9.97,1.49-19.95,0.17-29.92c-1.07-8.24-2.81-18.39-10.17-23.07C1268.48,320.77,1267.24,323.02,1268.57,323.89
						L1268.57,323.89z"/>
				</g>
			</g>
			<g>
				<path class="st2" d="M1250.88,288.33c8.68,2.43,14.96,12.05,17.11,22.38c2.15,10.32,1.07,21.16-0.58,31.57
					c-0.33,2.43-0.91,5.03-2.56,6.5c-2.31,1.91-5.7,0.43-7.36-2.25c-1.65-2.69-2.07-6.16-2.31-9.54c-0.74-7.63-1.49-15.26-2.15-22.9
					"/>
				<g>
					<path class="st1" d="M1250.55,289.55c5.37,1.56,9.51,5.9,12.32,10.84c3.39,5.98,4.79,12.92,5.13,19.86
						c0.33,7.63-0.5,15.61-1.9,23.16c-0.5,2.52-1.65,5.9-4.71,4.77c-2.89-1.04-3.97-4.51-4.46-7.37c-0.74-4.25-0.91-8.59-1.32-12.92
						c-0.41-4.6-0.91-9.19-1.32-13.79c-0.17-1.65-2.65-1.65-2.48,0c0.41,4.51,0.83,9.02,1.32,13.62c0.41,4.34,0.66,8.67,1.32,12.92
						c0.5,3.47,1.65,7.11,4.55,9.19c2.56,1.73,5.87,1.56,7.77-1.04c0.99-1.39,1.49-3.04,1.74-4.68c0.41-1.99,0.66-4.08,0.91-6.16
						c0.58-4.34,0.99-8.76,1.16-13.18c0.17-7.89-0.83-15.96-4.13-23.07c-3.06-6.59-8.18-12.58-15.13-14.57
						C1249.72,286.6,1249.06,289.11,1250.55,289.55L1250.55,289.55z"/>
				</g>
			</g>
			<g>
				<path class="st2" d="M1200.45,243.06c6.28-1.47,12.9,0.09,18.85,2.95c11.08,5.29,20.58,15.18,26.45,27.49
					c5.95,12.32,8.18,27.06,6.36,41.11c-0.08,0.78-0.25,1.56-0.58,2.17c-0.91,1.47-2.81,1.39-4.22,0.61
					c-1.82-0.95-3.31-2.69-4.71-4.42c-9.09-11.27-16.86-24.02-23.06-37.81"/>
				<g>
					<path class="st1" d="M1200.78,244.28c9.59-2.17,19.51,2.6,27.03,8.5c7.27,5.64,13.06,13.27,17.03,21.68
						c4.46,9.45,6.7,20.03,6.7,30.61c0,2.6-0.17,5.2-0.41,7.89c-0.08,0.95-0.08,2.52-0.66,3.3c-0.58,0.61-1.57,0.43-2.23,0.17
						c-2.15-0.87-3.72-3.12-5.13-4.94c-1.65-2.08-3.22-4.16-4.79-6.24c-6.86-9.54-12.73-19.86-17.61-30.7
						c-0.66-1.47-2.81-0.17-2.15,1.3c4.71,10.49,10.33,20.55,16.95,29.83c1.57,2.25,3.22,4.42,4.88,6.59
						c1.65,2.08,3.31,4.34,5.54,5.9c1.65,1.13,3.97,1.82,5.79,0.52c1.98-1.47,1.9-4.68,2.07-6.94c1.9-21.68-5.7-44.4-21.66-58.54
						c-8.6-7.63-20.42-13.79-31.99-11.19C1198.55,242.11,1199.21,244.62,1200.78,244.28L1200.78,244.28z"/>
				</g>
			</g>
			<g>
				<path class="st2" d="M1166.06,228.84c12.98-3.3,27.36,2.52,35.96,14.57c1.98,2.78,3.64,5.72,5.54,8.5
					c2.73,3.99,5.87,7.46,8.35,11.62c2.48,4.16,4.46,9.11,4.13,14.14c0,0.26,0,0.52-0.17,0.69c-0.33,0.78-1.32,0.52-1.98,0.17
					c-20.33-10.15-33.15-34.08-50.26-50.65"/>
				<g>
					<path class="st1" d="M1166.39,230.05c8.76-2.17,17.94-0.09,25.46,5.03c3.97,2.69,7.27,6.16,10,10.23
						c1.57,2.34,3.06,4.86,4.63,7.29c1.57,2.34,3.31,4.51,5.04,6.76c3.39,4.42,6.61,9.45,7.27,15.26c0.08,0.61,0.08,1.3,0.08,1.91
						c0,0.26,0.08,0.95,0,1.13c0.17-0.26,0.41,0.17-0.08-0.17c-0.91-0.69-2.15-1.13-3.14-1.65c-1.98-1.13-3.8-2.43-5.62-3.73
						c-7.52-5.64-13.8-12.84-19.84-20.12c-7.03-8.5-13.72-17.26-21.57-24.98c-1.16-1.13-2.89,0.69-1.74,1.82
						c14.71,14.31,25.38,33.13,41.83,45.53c1.98,1.47,4.05,2.86,6.2,4.08c1.57,0.87,4.46,2.95,5.95,0.87
						c0.74-1.13,0.5-2.95,0.41-4.25c-0.08-1.47-0.41-2.95-0.83-4.42c-0.83-2.86-2.15-5.55-3.64-8.07c-1.57-2.52-3.39-4.86-5.21-7.2
						c-1.9-2.52-3.64-5.03-5.37-7.72c-2.89-4.68-6.03-9.02-10.17-12.49c-8.51-7.02-19.67-10.23-30.34-7.63
						C1164.16,227.97,1164.82,230.49,1166.39,230.05L1166.39,230.05z"/>
				</g>
			</g>
		</g>
		<path class="st3" d="M1283.44,739.83c-40.67,63.57-122.59,56.2-233.27,61.49c-181.61,8.76-312.96,15-358.34-75.28
			c-24.39-48.48-8.68-119.34,23.15-261.39c29.51-132,50.42-220.29,112.17-249.25c25.13-11.79,85.39-26.97,118.29-3.21
			c2.07,1.47,17.36,12.75,39.43,20.21c20.17,6.85,29.26,4.86,33.97,3.21c10-3.38,11.74-8.76,23.81-16.22
			c12.23-7.46,22.73-9.37,33.31-11.36c5.79-1.04,59.85-10.93,97.21,21.86c22.07,19.34,23.81,40.67,45.55,108.41
			c23.56,73.28,23.48,54.55,49.68,133.56c48.36,146.31,41.91,190.71,36.7,212.83C1302.79,695.25,1297.25,718.32,1283.44,739.83z"/>
		<path class="st4" d="M1184.08,695.17c-34.97,48.22-89.03,50.39-183.43,54.29c-57.95,2.43-95.48-4.08-127.38-14.14
			c-35.13-11.1-54.81-17.61-71.34-38.85c-34.39-44.14-26.12-114.31-22.07-148.48c6.53-55.33,21.33-66.26,32.49-136.68
			c5.95-37.47,7.27-68.95,7.44-90.02c21.49,18.04,54.72,41.28,98.86,56.03c31.41,10.58,59.43,13.79,81.17,14.4
			c18.93-2.43,41.58-7.37,66.38-16.91c40.67-15.7,71.67-37.99,93-56.37c11.16,66.78,23.06,119.42,31.74,154.72
			c17.28,70.51,30.17,106.15,20.17,155.76C1208.3,642,1202.44,669.93,1184.08,695.17z"/>
		<path class="st5" d="M1105.97,588.49c-9.01,59.58-58.36,105.63-112.17,105.2c-54.31-0.43-105.31-48.31-112.17-114.13
			c-7.85-74.93,44.8-142.4,104.07-147.26C1055.63,426.58,1117.95,509.4,1105.97,588.49z"/>
		<path class="st6" d="M1091.75,585.72c-7.85,52.04-50.84,92.28-97.71,91.84c-47.28-0.43-91.67-42.15-97.71-99.65
			c-6.86-65.48,39.02-124.37,90.6-128.62C1047.94,444.27,1102.17,516.6,1091.75,585.72z"/>
		<polygon class="st7" points="1080.84,564.56 1037.94,542.18 1037.94,586.93 		"/>
		<polygon class="st7" points="904.68,562.91 942.13,540.53 942.13,585.29 		"/>
		<polygon class="st7" points="950.31,642.87 957.01,608.09 976.35,625.27 		"/>
		<polygon class="st7" points="1031.41,644.43 1024.71,609.74 1005.45,626.83 		"/>
		<polygon class="st7" points="1031.41,481.91 1024.71,516.6 1005.45,499.51 		"/>
		<polygon class="st7" points="951.72,483.47 958.42,518.25 977.68,501.16 		"/>
		<path class="st7" d="M1014.38,621.62l60.84,4.94l-36.62-64.7l35.21-62.36l-56.13,4.6l-25.29-56.37l-24.63,54.9l-56.87-0.87
			l31.58,63.22l-33.48,58.45h55.05l24.8,55.85L1014.38,621.62z M1011.07,513.3l24.8,51.17l-23.48,48.39h-45.05l-21.99-49.52
			l24.3-50.04H1011.07L1011.07,513.3z"/>
		<polygon class="st6" points="991.98,474.45 978.59,499.51 1005.37,499.51 		"/>
		<polygon class="st6" points="1052.4,514.34 1027.52,513.13 1040.83,540.62 		"/>
		<polygon class="st6" points="1051.08,612.34 1041.41,585.03 1026.2,611.13 		"/>
		<polygon class="st6" points="989.91,655.19 1003.3,630.04 976.6,630.04 		"/>
		<polygon class="st6" points="930.81,611.74 955.77,612.95 942.38,585.37 		"/>
		<polygon class="st6" points="931.22,516.34 943.7,542.01 956.1,513.82 		"/>
	</g>
	<path class="st8" d="M934.2,626.65c-160.78-3.12-307.67-23.07-437.86-50.91c61.91,245.35,254.68,424.18,482.91,424.18
		s421-178.92,482.91-424.18C1308.74,608.62,1131.1,630.56,934.2,626.65z"/>
</g>
<g>
	<path class="st9" d="M716.52,969.8c0,1.94-0.91,4.49-2.74,7.65c-16.02,26.59-37.3,39.89-63.84,39.89
		c-27.16,0-49.18-12.93-66.06-38.79c-16.45-25.01-24.67-56.58-24.67-94.71c0-36.91,8.05-68.24,24.15-93.98
		c16.8-26.96,38.16-40.43,64.1-40.43c28.2,0,50.31,12.08,66.32,36.24c1.74,2.67,2.61,5.04,2.61,7.1c0,2.31-3.03,10.87-9.07,25.68
		c-6.05,14.82-9.86,23.13-11.42,24.95c-0.7,0.97-1.57,1.46-2.61,1.46c-0.44,0-2.61-2.43-6.53-7.29c-4.7-5.83-9.31-10.38-13.84-13.66
		c-6.88-4.85-14.01-7.29-21.41-7.29c-12.79,0-23.02,6.68-30.68,20.03c-7.05,12.38-10.58,27.68-10.58,45.9
		c0,18.46,3.52,33.94,10.58,46.44c7.66,13.6,17.89,20.4,30.68,20.4c7.57,0,14.75-2.3,21.54-6.92c4.44-3.03,8.96-7.29,13.58-12.75
		c3.83-4.61,5.96-6.92,6.4-6.92c0.87,0,1.74,0.67,2.61,2c1.39,2.19,5.18,9.77,11.36,22.77C713.35,961.06,716.52,968.47,716.52,969.8
		z"/>
	<path class="st9" d="M850.6,1014.06c-7.49,0-17.23-0.25-29.24-0.73c-15.67-0.49-25.42-0.79-29.24-0.91l-39.04-0.73
		c-3.92,0.12-9.53-0.12-16.84-0.73c-2.53-0.61-3.79-2.49-3.79-5.65c0-13.23,0.15-33.06,0.46-59.47c0.3-26.41,0.46-46.23,0.46-59.47
		c0-14.08-0.31-35.18-0.91-63.29c-0.61-28.11-0.91-49.2-0.91-63.29c0-2.67,1.31-4.01,3.92-4.01c2.61,0,6.51,0.18,11.68,0.55
		c5.18,0.36,9.03,0.55,11.55,0.55c2.87,0,7.14-0.21,12.79-0.64c5.66-0.42,9.92-0.64,12.79-0.64c1.31,0,1.91,1.16,1.83,3.46
		l-0.13,2.37c-1.04,22.83-2.22,57.13-3.52,102.9l-0.13,48.08c0,15.54,0.04,26.9,0.13,34.06c0.08,1.46,0.17,2.91,0.26,4.37
		c0.09,1.46,0.74,2.37,1.96,2.73c0.09,0,1.22,0,3.39,0c7.83,0,19.56-0.58,35.18-1.73c15.62-1.15,27.35-1.73,35.18-1.73
		c2.35,0,3.53,1.4,3.53,4.19c0,20.76-1.09,38.67-3.26,53.73c-0.44,3.16-1.35,5.04-2.74,5.65
		C855.52,1013.94,853.74,1014.06,850.6,1014.06z"/>
	<path class="st9" d="M1010.53,954.32c0,5.22-0.74,14.82-2.22,28.78c-1.57,15.18-2.96,24.22-4.18,27.14
		c-1.04,2.31-2.48,3.46-4.31,3.46c-0.78,0-2.09-0.18-3.92-0.55c-6.35-1.21-24.89-1.82-55.62-1.82c-6.7,0-16.67-0.06-29.9-0.18
		c-13.23-0.12-23.15-0.18-29.77-0.18c-2.87,0-4.31-1.76-4.31-5.28c0-13.6,0.54-34.03,1.63-61.29c1.09-27.26,1.63-47.69,1.63-61.29
		c0-13.84-0.52-39.64-1.57-77.41c-0.26-9.71-0.74-24.22-1.44-43.53l-0.13-2.55c-0.18-2.79,0.91-4.19,3.26-4.19
		c6.44,0,16.12,0.25,29.05,0.73c12.92,0.49,22.61,0.73,29.05,0.73c6.35,0,15.93-0.24,28.72-0.73c12.79-0.48,22.37-0.73,28.72-0.73
		c4.52,0,7.14,2.37,7.83,7.1c0.43,2.79,1.11,11.26,2.02,25.41c0.91,14.15,1.37,22.74,1.37,25.77c0,2.55-0.87,3.83-2.61,3.83
		c-0.52,0-1.44-0.06-2.74-0.18c-23.15-2.67-43.95-4.01-62.4-4.01c-4.61,0-7.44,1.52-8.49,4.55c-0.44,1.46-0.65,6.13-0.65,14.02
		c0,8.26,0.87,13.72,2.61,16.39c1.48,2.31,4.31,3.46,8.49,3.46c0.87,0,2.57-0.09,5.09-0.27c2.52-0.18,4.61-0.27,6.27-0.27
		c10.97,0,22.06-0.42,33.29-1.27c0.96-0.12,3.35-0.42,7.18-0.91c2.96-0.48,5.31-0.73,7.05-0.73c2.09,0,3.13,1.4,3.13,4.19
		c0-2.55-0.78,6.74-2.35,27.87c-0.7,9.72-1.04,19.43-1.04,29.14c0,2.43-1.26,3.64-3.79,3.64l-11.75-1.82
		c-4.96-0.73-16.28-1.09-33.94-1.09h-13.84c-3.57,0-5.66,1.22-6.27,3.64c-0.09,0.61-0.13,4.37-0.13,11.29
		c0,9.23,0.43,15.18,1.3,17.85c1.48,4.62,7.05,7.35,16.71,8.2c-0.17,0,6.18,0,19.06,0c4.61,0,11.47-0.57,20.56-1.73
		c9.09-1.15,15.91-1.73,20.43-1.73C1009.57,947.76,1010.53,949.95,1010.53,954.32z"/>
	<path class="st9" d="M1200.09,1006.41c0,2.19-1.09,3.71-3.26,4.55c-2.61,0.97-10.71,1.46-24.28,1.46
		c-12.45,0-20.45-0.49-24.02-1.46c-2.96-0.85-4.83-3.58-5.61-8.2c-2.96-17.49-5.27-26.83-6.92-28.05
		c-1.39-0.85-13.06-1.27-34.99-1.27c-14.8,0-22.67,0.55-23.63,1.64c-1.48,1.94-3.13,8.44-4.96,19.49c-1.65,10.08-3.66,15.54-6,16.39
		c-2.96,0.97-12.88,1.46-29.77,1.46c-13.32,0-19.97-1.76-19.97-5.28c0-3.16,9.83-41.95,29.5-116.38
		c21.32-80.5,32.9-124.76,34.73-132.77c1.04-4.61,2.26-6.92,3.66-6.92c2.35,0,5.98,0.3,10.9,0.91c4.92,0.61,8.59,0.91,11.03,0.91
		c2.35,0,5.81-0.21,10.38-0.64c4.57-0.42,7.98-0.64,10.25-0.64c1.65,0,3.18,2,4.57,6.01c4.26,12.75,16.71,56.46,37.34,131.13
		C1189.73,963.91,1200.09,1003.13,1200.09,1006.41z M1107.53,840.49c-1.83,5.34-4.92,16.94-9.27,34.79
		c-4.7,18.94-7.05,30.05-7.05,33.33c0,2.19,2.61,3.4,7.83,3.64c2.7,0.24,7.14,0.36,13.32,0.36c5.75,0,8.92-0.97,9.53-2.91
		c0.17-0.61,0.26-1.46,0.26-2.55c0-4.01-2-15.05-6.01-33.15C1112.23,856.51,1109.36,845.34,1107.53,840.49z"/>
	<path class="st9" d="M1369.03,1009.14c0,0.85-0.87,1.46-2.61,1.82c-3.31,0.73-11.62,1.09-24.94,1.09c-11.4,0-19.15-0.36-23.24-1.09
		c-1.92-0.36-3-0.67-3.26-0.91c-0.52-0.36-1.13-1.58-1.83-3.64c-1.31-4.74-3.22-11.78-5.75-21.13c-3.39-12.14-8.7-30.05-15.93-53.73
		c-1.57-4.74-5.18-7.34-10.84-7.83c2.61,0.24-1.87,0.36-13.45,0.36c-1.31,0-1.96,3.1-1.96,9.29c0,8.26,0.54,20.58,1.63,36.97
		c1.09,16.39,1.63,28.72,1.63,36.97c0,2.07-0.39,3.28-1.17,3.64c-1.22,0.12-2.44,0.24-3.66,0.36c-5.14,0.48-13.14,0.73-24.02,0.73
		c-12.45,0-19.93-0.36-22.46-1.09c-2.53-0.73-3.79-2.61-3.79-5.65c0-13.36,0.46-33.51,1.37-60.47c0.91-26.96,1.37-47.17,1.37-60.65
		c0-51.36-0.83-91.43-2.48-120.21l-0.13-2.55c-0.09-2.06,1.28-3.46,4.11-4.19c2.83-0.73,16.12-1.46,39.88-2.19
		c16.1-0.48,28.94-0.73,38.51-0.73c19.84,0,36.03,6.25,48.57,18.76c14.19,14.09,21.28,34.42,21.28,61.01
		c0,17.73-1.83,31.87-5.48,42.44s-10.4,20.83-20.24,30.78c-2,1.94-3,3.77-3,5.46c0-0.12,5.31,15.12,15.93,45.72
		C1363.72,989.11,1369.03,1005.98,1369.03,1009.14z M1314.2,845.77c0-14.81-3.48-25.07-10.44-30.78c-5.4-4.37-13.84-6.56-25.33-6.56
		c-8.27,0-12.66,1.76-13.19,5.28c-0.52,4.13-0.78,16.03-0.78,35.7c0,2.79,0.04,6.92,0.13,12.39c0.09,5.46,0.13,9.53,0.13,12.2
		c0,0.61,1.39,1.22,4.18,1.82c5.31,1.09,10.88,1.64,16.71,1.64C1304.67,877.46,1314.2,866.9,1314.2,845.77z"/>
	<path class="st9" d="M1435.09,799.51c0,22.1-1.44,42.86-4.31,62.29c-3.48,19.92-6.92,39.77-10.31,59.56
		c-0.78,4.49-4.27,6.74-10.44,6.74c-7.05,0-10.97-1.94-11.75-5.83c-8.18-38.98-12.27-61.13-12.27-66.48
		c0-4.98,0.17-12.38,0.52-22.22c0.35-9.83,0.52-17.24,0.52-22.22c0-5.46-0.13-13.66-0.39-24.59c-0.26-10.93-0.39-19.12-0.39-24.59
		c0-4.49,0.78-6.74,2.35-6.74c2.44,0,6.09,0.25,10.97,0.73c4.87,0.49,8.53,0.73,10.97,0.73c2.44,0,6.09-0.24,10.97-0.73
		c4.87-0.48,8.53-0.73,10.97-0.73C1434.22,755.43,1435.09,770.12,1435.09,799.51z M1435.09,980c0,10.2-2.26,18.67-6.79,25.41
		c-4.53,6.74-10.44,10.11-17.75,10.11c-7.4,0-13.34-3.34-17.82-10.02c-4.48-6.68-6.72-15.18-6.72-25.5c0-10.2,2.26-18.58,6.79-25.13
		c4.52-6.56,10.44-9.83,17.75-9.83c7.22,0,13.12,3.28,17.69,9.83C1432.8,961.42,1435.09,969.8,1435.09,980z"/>
</g>
</svg>
