<?xml version="1.0" encoding="utf-8"?>
<!-- Generator: Adobe Illustrator 23.0.5, SVG Export Plug-In . SVG Version: 6.00 Build 0)  -->
<svg version="1.1" id="圖層_1" xmlns="http://www.w3.org/2000/svg" xmlns:xlink="http://www.w3.org/1999/xlink" x="0px" y="0px"
	 viewBox="0 0 1920 1080" style="enable-background:new 0 0 1920 1080;" xml:space="preserve">
<style type="text/css">
	.st0{fill:#FFFFFF;}
	.st1{fill:#C3752A;stroke:#000000;stroke-miterlimit:10;}
	.st2{fill:#898989;stroke:#000000;stroke-miterlimit:10;}
	.st3{fill:none;stroke:#000000;stroke-miterlimit:10;}
	.st4{fill:#F4E84D;stroke:#000000;stroke-miterlimit:10;}
	.st5{fill:#FFFFFF;stroke:#000000;stroke-width:4;stroke-miterlimit:10;}
</style>
<g>
	<g>
		<path class="st0" d="M1242.09,337.4c15.27-13.09,38.03-15.4,58.4-12.26c20.37,3.15,39.57,10.95,59.59,15.73
			c35.81,8.56,74.25,7.13,109.24-4.05c46.37-14.81,87.1-46.27,135.8-51.01c-14,75.01-24.56,150.58-31.64,226.44
			c-15.23,2.26-30.46,4.52-45.69,6.77c-16.68,2.47-33.52,4.99-49.22,10.84c-9.29,3.46-18.06,8.06-27.29,11.68
			c-30.76,12.07-66.38,12.67-97.57,1.64c-11.94-4.22-23.22-10.06-35.39-13.65c-24.07-7.08-49.96-4.93-75.05-2.5
			c-3.06,0.29-6.75,0.33-8.48-2.07c-0.82-1.13-0.97-2.56-1.07-3.92c-1.72-21.98,2.6-43.95,3.2-65.98
			c0.45-16.2-1.12-32.43-4.65-48.29c-2.83-12.7-6.95-25.35-6.55-38.32c0.4-12.97,6.43-26.78,18.76-32.53"/>
		<g>
			<path d="M1242.85,338.04c17.08-14.47,42.86-15.28,65.18-10.59c13.32,2.8,26.07,7.14,39.02,10.89
				c12.72,3.69,25.69,6.48,39.07,7.86c26.72,2.76,54.18,0.23,79.54-7.29c22.9-6.8,43.71-17.49,64.71-27.51
				c20.71-9.87,42.21-19.56,65.83-23.5c2.95-0.49,5.92-0.88,8.9-1.18c-0.35-0.38-0.69-0.76-1.05-1.14
				c-5.46,29.28-10.4,58.62-14.81,88.02c-4.42,29.45-8.31,58.96-11.67,88.51c-1.9,16.71-3.63,33.42-5.19,50.15
				c0.27-0.29,0.53-0.58,0.79-0.87c-19.91,2.95-39.91,5.66-59.75,8.94c-9.36,1.55-18.68,3.41-27.66,6.15
				c-9.14,2.78-17.59,6.71-26.15,10.53c-16.46,7.35-34,12.13-52.73,13c-18.17,0.84-36.56-1.81-53.28-7.81
				c-8.77-3.15-17.08-7.08-25.76-10.37c-8.61-3.25-17.55-5.59-26.91-6.78c-18.92-2.41-38.09-0.76-56.97,1.03
				c-1.77,0.17-3.62,0.37-5.39,0.04c-2.73-0.52-3.5-2.42-3.74-4.53c-0.45-4.08-0.47-8.23-0.44-12.33
				c0.05-8.52,0.74-17.02,1.52-25.51c1.54-17.04,2.91-34,1.42-51.09c-0.71-8.24-1.95-16.45-3.7-24.59
				c-1.77-8.26-4.17-16.44-5.62-24.75c-2.4-13.65-2.08-29.64,8.98-40.87c2.26-2.3,4.93-4.24,8.02-5.71c1.2-0.58,0.12-2.13-1.09-1.56
				c-13.48,6.44-18.77,20.61-19.28,32.84c-0.7,16.87,5.95,33.35,8.68,49.93c2.84,17.31,3.04,34.7,1.64,52.11
				c-0.71,8.71-1.65,17.42-2.22,26.14c-0.57,8.61-1.2,17.57,0.03,26.17c0.44,3.07,2.43,5.21,6.2,5.64
				c4.11,0.47,8.59-0.46,12.68-0.82c9.8-0.87,19.65-1.56,29.52-1.53c9.91,0.04,19.84,0.81,29.45,2.9c9.65,2.09,18.56,5.7,27.43,9.42
				c8.43,3.54,16.89,6.97,25.92,9.35c8.64,2.28,17.59,3.72,26.61,4.32c18.4,1.24,37.13-1.09,54.28-6.78
				c9.01-2.99,17.37-7.06,25.94-10.8c8.92-3.89,18.17-6.89,27.9-9.06c9.44-2.11,19.08-3.56,28.69-4.99
				c10.3-1.53,20.6-3.06,30.9-4.58c5.16-0.76,10.32-1.53,15.48-2.29c0.49-0.07,0.76-0.5,0.79-0.87c2.76-29.5,6.04-58.97,9.85-88.39
				c3.82-29.52,8.17-59,13.05-88.41c2.73-16.48,5.64-32.95,8.71-49.4c0.09-0.51-0.27-1.22-1.05-1.14
				c-23.76,2.37-45.61,10.92-66.33,20.47c-21.55,9.94-42.38,21.2-65.21,29.07c-25.21,8.69-52.69,12.39-79.9,10.59
				c-13.75-0.91-27.26-3.28-40.37-6.84c-13.28-3.6-26.19-8.13-39.62-11.35c-21.65-5.18-46.87-6.42-65.96,5.29
				c-2.28,1.4-4.41,2.95-6.39,4.62C1240.34,337.59,1241.87,338.87,1242.85,338.04L1242.85,338.04z"/>
		</g>
	</g>
	<path class="st1" d="M1243.15,887.05h-23.67V335.33c0.94-0.89,4.77-4.31,10.85-4.65c7.29-0.4,12.08,3.95,12.82,4.65
		C1243.15,519.24,1243.15,703.14,1243.15,887.05z"/>
	<g>
		<g>
			<path d="M1294.58,478.9c18.52,1.18,37.12-0.51,55.19-3.91c18.46-3.48,36.38-8.68,53.97-14.43c9.98-3.26,19.87-6.71,29.75-10.18
				c0.54-0.19,0.92-0.6,0.76-1.11c-0.14-0.43-0.79-0.82-1.33-0.63c-17.44,6.12-34.93,12.2-52.85,17.25
				c-17.67,4.98-35.84,9-54.42,10.7c-10.32,0.94-20.72,1.16-31.07,0.5C1293.19,477.01,1293.19,478.81,1294.58,478.9L1294.58,478.9z"
				/>
		</g>
	</g>
	<g>
		<g>
			<path d="M1338.14,492.71c14.75-1.25,29.26-4.19,43.06-8.71c3.94-1.29,7.82-2.71,11.64-4.25c1.26-0.51,0.16-2.06-1.09-1.56
				c-13.14,5.28-27.11,9.11-41.46,11.28c-4.03,0.61-8.07,1.09-12.14,1.43C1336.77,491.02,1336.76,492.83,1338.14,492.71
				L1338.14,492.71z"/>
		</g>
	</g>
</g>
<g>
	<g>
		<ellipse class="st2" cx="626.9" cy="610.44" rx="274.9" ry="249.74"/>
		<ellipse class="st1" cx="626.9" cy="610.44" rx="227.89" ry="201.96"/>
	</g>
	<line class="st3" x1="472.86" y1="461.61" x2="472.86" y2="759.26"/>
	<line class="st3" x1="783.62" y1="461.61" x2="783.62" y2="759.26"/>
	<line class="st3" x1="626.52" y1="408.91" x2="626.52" y2="811.97"/>
	<path class="st2" d="M736.53,433.35"/>
	<ellipse class="st2" cx="626.9" cy="610.44" rx="90.04" ry="81.8"/>
</g>
<g>
	<rect x="1001.78" y="707.24" class="st1" width="51.46" height="151.84"/>
	<ellipse class="st4" cx="1027.51" cy="874.72" rx="50.43" ry="26.05"/>
	<g>
		<g>
			<path d="M1003.55,754.48c7.35,0,14.7,0,22.06,0c1.7,0,1.7-2.31,0-2.31c-7.35,0-14.7,0-22.06,0
				C1001.84,752.17,1001.84,754.48,1003.55,754.48L1003.55,754.48z"/>
		</g>
	</g>
	<g>
		<g>
			<path d="M1003.55,778.79c7.35,0,14.7,0,22.06,0c1.7,0,1.7-2.31,0-2.31c-7.35,0-14.7,0-22.06,0
				C1001.84,776.48,1001.84,778.79,1003.55,778.79L1003.55,778.79z"/>
		</g>
	</g>
	<g>
		<g>
			<path d="M1003.55,803.1c7.35,0,14.7,0,22.06,0c1.7,0,1.7-2.31,0-2.31c-7.35,0-14.7,0-22.06,0
				C1001.84,800.79,1001.84,803.1,1003.55,803.1L1003.55,803.1z"/>
		</g>
	</g>
	<g>
		<g>
			<path d="M1003.55,827.42c7.35,0,14.7,0,22.06,0c1.7,0,1.7-2.31,0-2.31c-7.35,0-14.7,0-22.06,0
				C1001.84,825.11,1001.84,827.42,1003.55,827.42L1003.55,827.42z"/>
		</g>
	</g>
	<rect x="934.88" y="678.22" class="st4" width="187.32" height="29.77"/>
	<path class="st2" d="M1076.92,678.22h-98.81c0-171.69,0-343.37,0-515.07c16.47-10.42,32.93-20.84,49.4-31.26
		c16.47,10.42,32.93,20.84,49.4,31.26C1076.92,334.84,1076.92,506.53,1076.92,678.22z"/>
	<line class="st3" x1="1027.51" y1="678.22" x2="1027.51" y2="350.72"/>
</g>
<g>
	<path class="st5" d="M696.46,924.6c0,1.94-0.91,4.49-2.74,7.65c-16.02,26.59-37.3,39.89-63.84,39.89
		c-27.16,0-49.18-12.93-66.06-38.79c-16.45-25.01-24.67-56.58-24.67-94.71c0-36.91,8.05-68.24,24.15-93.98
		c16.8-26.96,38.16-40.43,64.1-40.43c28.2,0,50.31,12.08,66.32,36.24c1.74,2.67,2.61,5.04,2.61,7.1c0,2.31-3.03,10.87-9.07,25.68
		c-6.05,14.82-9.86,23.13-11.42,24.95c-0.7,0.97-1.57,1.46-2.61,1.46c-0.44,0-2.61-2.43-6.53-7.29c-4.7-5.83-9.31-10.38-13.84-13.66
		c-6.88-4.85-14.01-7.29-21.41-7.29c-12.79,0-23.02,6.68-30.68,20.03c-7.05,12.38-10.58,27.68-10.58,45.9
		c0,18.46,3.52,33.94,10.58,46.44c7.66,13.6,17.89,20.4,30.68,20.4c7.57,0,14.75-2.3,21.54-6.92c4.44-3.03,8.96-7.29,13.58-12.75
		c3.83-4.61,5.96-6.92,6.4-6.92c0.87,0,1.74,0.67,2.61,2c1.39,2.19,5.18,9.77,11.36,22.77C693.28,915.86,696.46,923.27,696.46,924.6
		z"/>
	<path class="st5" d="M830.54,968.86c-7.49,0-17.23-0.25-29.24-0.73c-15.67-0.49-25.42-0.79-29.24-0.91l-39.04-0.73
		c-3.92,0.12-9.53-0.12-16.84-0.73c-2.53-0.61-3.79-2.49-3.79-5.65c0-13.23,0.15-33.06,0.46-59.47c0.3-26.41,0.46-46.23,0.46-59.47
		c0-14.08-0.31-35.18-0.91-63.29c-0.61-28.11-0.91-49.2-0.91-63.29c0-2.67,1.31-4.01,3.92-4.01c2.61,0,6.51,0.18,11.68,0.55
		c5.18,0.36,9.03,0.55,11.55,0.55c2.87,0,7.14-0.21,12.79-0.64c5.66-0.42,9.92-0.64,12.79-0.64c1.31,0,1.91,1.16,1.83,3.46
		l-0.13,2.37c-1.04,22.83-2.22,57.13-3.52,102.9l-0.13,48.08c0,15.54,0.04,26.9,0.13,34.06c0.08,1.46,0.17,2.91,0.26,4.37
		c0.09,1.46,0.74,2.37,1.96,2.73c0.09,0,1.22,0,3.39,0c7.83,0,19.56-0.58,35.18-1.73c15.62-1.15,27.35-1.73,35.18-1.73
		c2.35,0,3.53,1.4,3.53,4.19c0,20.76-1.09,38.67-3.26,53.73c-0.44,3.16-1.35,5.04-2.74,5.65
		C835.45,968.74,833.67,968.86,830.54,968.86z"/>
	<path class="st5" d="M990.46,909.12c0,5.22-0.74,14.82-2.22,28.78c-1.57,15.18-2.96,24.22-4.18,27.14
		c-1.04,2.31-2.48,3.46-4.31,3.46c-0.78,0-2.09-0.18-3.92-0.55c-6.35-1.21-24.89-1.82-55.62-1.82c-6.7,0-16.67-0.06-29.9-0.18
		c-13.23-0.12-23.15-0.18-29.77-0.18c-2.87,0-4.31-1.76-4.31-5.28c0-13.6,0.54-34.03,1.63-61.29c1.09-27.26,1.63-47.69,1.63-61.29
		c0-13.84-0.52-39.64-1.57-77.41c-0.26-9.71-0.74-24.22-1.44-43.53l-0.13-2.55c-0.18-2.79,0.91-4.19,3.26-4.19
		c6.44,0,16.12,0.25,29.05,0.73c12.92,0.49,22.61,0.73,29.05,0.73c6.35,0,15.93-0.24,28.72-0.73c12.79-0.48,22.37-0.73,28.72-0.73
		c4.52,0,7.14,2.37,7.83,7.1c0.43,2.79,1.11,11.26,2.02,25.41c0.91,14.15,1.37,22.74,1.37,25.77c0,2.55-0.87,3.83-2.61,3.83
		c-0.52,0-1.44-0.06-2.74-0.18c-23.15-2.67-43.95-4.01-62.4-4.01c-4.61,0-7.44,1.52-8.49,4.55c-0.44,1.46-0.65,6.13-0.65,14.02
		c0,8.26,0.87,13.72,2.61,16.39c1.48,2.31,4.31,3.46,8.49,3.46c0.87,0,2.57-0.09,5.09-0.27c2.52-0.18,4.61-0.27,6.27-0.27
		c10.97,0,22.06-0.42,33.29-1.27c0.96-0.12,3.35-0.42,7.18-0.91c2.96-0.48,5.31-0.73,7.05-0.73c2.09,0,3.13,1.4,3.13,4.19
		c0-2.55-0.78,6.74-2.35,27.87c-0.7,9.72-1.04,19.43-1.04,29.14c0,2.43-1.26,3.64-3.79,3.64l-11.75-1.82
		c-4.96-0.73-16.28-1.09-33.94-1.09h-13.84c-3.57,0-5.66,1.22-6.27,3.64c-0.09,0.61-0.13,4.37-0.13,11.29
		c0,9.23,0.43,15.18,1.3,17.85c1.48,4.62,7.05,7.35,16.71,8.2c-0.17,0,6.18,0,19.06,0c4.61,0,11.47-0.57,20.56-1.73
		c9.09-1.15,15.91-1.73,20.43-1.73C989.5,902.57,990.46,904.75,990.46,909.12z"/>
	<path class="st5" d="M1180.03,961.21c0,2.19-1.09,3.71-3.26,4.55c-2.61,0.97-10.71,1.46-24.28,1.46c-12.45,0-20.45-0.49-24.02-1.46
		c-2.96-0.85-4.83-3.58-5.61-8.2c-2.96-17.49-5.27-26.83-6.92-28.05c-1.39-0.85-13.06-1.27-34.99-1.27
		c-14.8,0-22.67,0.55-23.63,1.64c-1.48,1.94-3.13,8.44-4.96,19.49c-1.65,10.08-3.66,15.54-6,16.39c-2.96,0.97-12.88,1.46-29.77,1.46
		c-13.32,0-19.97-1.76-19.97-5.28c0-3.16,9.83-41.95,29.5-116.38c21.32-80.5,32.9-124.76,34.73-132.77
		c1.04-4.61,2.26-6.92,3.66-6.92c2.35,0,5.98,0.3,10.9,0.91c4.92,0.61,8.59,0.91,11.03,0.91c2.35,0,5.81-0.21,10.38-0.64
		c4.57-0.42,7.98-0.64,10.25-0.64c1.65,0,3.18,2,4.57,6.01c4.26,12.75,16.71,56.46,37.34,131.13
		C1169.67,918.72,1180.03,957.93,1180.03,961.21z M1087.46,795.29c-1.83,5.34-4.92,16.94-9.27,34.79
		c-4.7,18.94-7.05,30.05-7.05,33.33c0,2.19,2.61,3.4,7.83,3.64c2.7,0.24,7.14,0.36,13.32,0.36c5.75,0,8.92-0.97,9.53-2.91
		c0.17-0.61,0.26-1.46,0.26-2.55c0-4.01-2-15.05-6.01-33.15C1092.16,811.32,1089.29,800.15,1087.46,795.29z"/>
	<path class="st5" d="M1348.96,963.94c0,0.85-0.87,1.46-2.61,1.82c-3.31,0.73-11.62,1.09-24.94,1.09c-11.4,0-19.15-0.36-23.24-1.09
		c-1.92-0.36-3-0.67-3.26-0.91c-0.52-0.36-1.13-1.58-1.83-3.64c-1.31-4.74-3.22-11.78-5.75-21.13c-3.39-12.14-8.7-30.05-15.93-53.73
		c-1.57-4.74-5.18-7.34-10.84-7.83c2.61,0.24-1.87,0.36-13.45,0.36c-1.31,0-1.96,3.1-1.96,9.29c0,8.26,0.54,20.58,1.63,36.97
		c1.09,16.39,1.63,28.72,1.63,36.97c0,2.07-0.39,3.28-1.17,3.64c-1.22,0.12-2.44,0.24-3.66,0.36c-5.14,0.48-13.14,0.73-24.02,0.73
		c-12.45,0-19.93-0.36-22.46-1.09c-2.53-0.73-3.79-2.61-3.79-5.65c0-13.36,0.46-33.51,1.37-60.47c0.91-26.96,1.37-47.17,1.37-60.65
		c0-51.36-0.83-91.43-2.48-120.21l-0.13-2.55c-0.09-2.06,1.28-3.46,4.11-4.19c2.83-0.73,16.12-1.46,39.88-2.19
		c16.1-0.48,28.94-0.73,38.51-0.73c19.84,0,36.03,6.25,48.57,18.76c14.19,14.09,21.28,34.42,21.28,61.01
		c0,17.73-1.83,31.87-5.48,42.44s-10.4,20.83-20.24,30.78c-2,1.94-3,3.77-3,5.46c0-0.12,5.31,15.12,15.93,45.72
		C1343.65,943.91,1348.96,960.79,1348.96,963.94z M1294.13,800.57c0-14.81-3.48-25.07-10.44-30.78c-5.4-4.37-13.84-6.56-25.33-6.56
		c-8.27,0-12.66,1.76-13.19,5.28c-0.52,4.13-0.78,16.03-0.78,35.7c0,2.79,0.04,6.92,0.13,12.39c0.09,5.46,0.13,9.53,0.13,12.2
		c0,0.61,1.39,1.22,4.18,1.82c5.31,1.09,10.88,1.64,16.71,1.64C1284.6,832.26,1294.13,821.7,1294.13,800.57z"/>
	<path class="st5" d="M1415.02,754.31c0,22.1-1.44,42.86-4.31,62.29c-3.48,19.92-6.92,39.77-10.31,59.56
		c-0.78,4.49-4.27,6.74-10.44,6.74c-7.05,0-10.97-1.94-11.75-5.83c-8.18-38.98-12.27-61.13-12.27-66.48
		c0-4.98,0.17-12.38,0.52-22.22c0.35-9.83,0.52-17.24,0.52-22.22c0-5.46-0.13-13.66-0.39-24.59c-0.26-10.93-0.39-19.12-0.39-24.59
		c0-4.49,0.78-6.74,2.35-6.74c2.44,0,6.09,0.25,10.97,0.73c4.87,0.49,8.53,0.73,10.97,0.73c2.44,0,6.09-0.24,10.97-0.73
		c4.87-0.48,8.53-0.73,10.97-0.73C1414.15,710.24,1415.02,724.93,1415.02,754.31z M1415.02,934.8c0,10.2-2.26,18.67-6.79,25.41
		c-4.53,6.74-10.44,10.11-17.75,10.11c-7.4,0-13.34-3.34-17.82-10.02c-4.48-6.68-6.72-15.18-6.72-25.5c0-10.2,2.26-18.58,6.79-25.13
		c4.52-6.56,10.44-9.83,17.75-9.83c7.22,0,13.12,3.28,17.69,9.83C1412.74,916.23,1415.02,924.6,1415.02,934.8z"/>
</g>
</svg>
