<?xml version="1.0" encoding="utf-8"?>
<!-- Generator: Adobe Illustrator 23.0.5, SVG Export Plug-In . SVG Version: 6.00 Build 0)  -->
<svg version="1.1" id="圖層_1" xmlns="http://www.w3.org/2000/svg" xmlns:xlink="http://www.w3.org/1999/xlink" x="0px" y="0px"
	 viewBox="0 0 1920 1080" style="enable-background:new 0 0 1920 1080;" xml:space="preserve">
<style type="text/css">
	.st0{fill:#585862;}
	.st1{fill:#4E4357;}
	.st2{fill:#3D2E4D;}
	.st3{fill:#F9F9BC;}
	.st4{fill:#759A9E;}
	.st5{fill:#E9A660;}
	.st6{fill:#E4A150;stroke:#522011;stroke-width:3;stroke-miterlimit:10;}
	.st7{fill:none;stroke:#522011;stroke-width:3;stroke-miterlimit:10;}
	.st8{fill:#AE7154;stroke:#371C0A;stroke-width:3;stroke-miterlimit:10;}
	.st9{fill:#6A5443;}
	.st10{fill:#62FAFC;}
	.st11{fill:#FFFFFF;stroke:#000000;stroke-width:4;stroke-miterlimit:10;}
</style>
<g>
	<path class="st0" d="M849.72,936.72c-437.9,52.24-538.24,35.81-543.41,9.11c-2.73-14.14,21.85-27.66,66.03-76.99
		c54.72-61.1,89.33-121.06,110.05-162.28c-20.49-26.49-40.99-52.99-61.47-79.48c-11.88-53.26-23.78-106.52-35.66-159.79
		c9.64-11.68,24.31-29.72,41.74-52.16c103.88-133.77,122.29-188.4,177.6-199.53c25.88-5.21,53.89,0.32,77.41,4.97
		c44.94,8.87,51.57,21.16,86.53,21.52c37.96,0.4,41.52-13.99,69.82-6.62c24.7,6.43,35.56,20.91,56.93,15.73
		c6.25-1.51,4.83-2.64,28.08-13.24c17.99-8.21,22.13-9.04,34.91-14.9c25.82-11.83,26.4-16.44,39.47-21.52
		c19.4-7.55,35.57-4.18,67.55,2.48c39.55,8.24,66.48,23.98,72.1,27.32c24.98,14.9,37.46,22.34,45.54,34.78
		c3.88,5.98,8.12,14.34,15.18,14.9c7.74,0.62,11.79-8.68,20.49-14.9c13.29-9.49,29.5-6.16,43.26-3.31
		c31.43,6.48,103.67,40.11,168.49,131.64c18.27,25.8,17.38,29.98,32.64,47.19c36.78,41.49,67.16,45.63,72.86,76.99
		c1.42,7.81,4.81,26.45-3.79,42.23c-4.01,7.37-9.56,12.12-11.39,22.35c0,0-1.75,9.8,2.27,21.52c11.81,34.3,87.45,74.42,99.42,127.5
		c2.17,9.64,0.26,10.9-23.52,101.84c-15,57.36-19.77,77.94-21.25,82.79C1549.62,1008.09,1020.74,955.46,849.72,936.72z"/>
	<path class="st1" d="M1226.93,896.15H757.88V434.99c63.87-17.01,166.01-34.09,286.89-9.93c59,11.8,108.98,30.72,148.75,49.68
		C1204.65,615.21,1215.78,755.68,1226.93,896.15z"/>
	<g>
		<path class="st2" d="M389.61,467.83c10.99-13.41,43.18,12.4,84.99,11.51c34.03-0.72,61.51-18.84,79.64-34.38
			c-13.1,13.55-26.21,27.11-39.31,40.66c-7.83,8.11-15.95,16.68-19.38,27.85c-5.4,17.6,2.14,36.55,10,53.03
			c19.35,40.56,41.64,79.46,66.58,116.22c2.35,3.47,4.81,7.11,5.36,11.38c0.74,5.64-1.96,11.08-4.78,15.88
			c-26.87,45.8-71.89,76.54-97.2,123.37c-20.25,37.44-26.92,83.49-53.11,116.26c-3.91,4.89-10.34,12.3-20.6,17.64
			c-24.34,12.67-50.03,3.05-70.06-4.46c-14.49-5.43-23.29-8.87-25.04-16.55c-2.82-12.34,14.55-26.5,25.04-35.61
			c56.04-48.58,96.58-108.99,110.05-132.47c13.81-24.04,22.66-50.21,35.66-62.09c1.22-1.11,4.91-4.32,5.31-9.11
			c0.79-9.3-11.4-17.42-15.94-20.69c-13.81-9.97-23.12-24.59-41.74-53.82c-18.95-29.73-7.31-36.06-31.12-125.84
			C387.96,483.94,384.49,474.07,389.61,467.83z"/>
	</g>
	<g>
		<g>
			<path class="st2" d="M672.15,391.49c0.65-0.59,1.3-1.18,1.97-1.73c0.27-0.22,0.55-0.44,0.81-0.66c1.3-1.1-0.91,0.65,0.45-0.36
				c1.39-1.02,2.79-1.99,4.26-2.9c1.31-0.8,2.64-1.55,4-2.26c0.75-0.39,1.52-0.76,2.29-1.13c0.39-0.18,0.77-0.35,1.16-0.53
				c0.23-0.1,0.47-0.21,0.7-0.31c-0.53,0.22-0.61,0.26-0.22,0.09c6.34-2.43,12.81-4.11,19.52-5.11c1.14-0.17,0.21-0.03-0.03,0
				c0.43-0.05,0.86-0.1,1.27-0.16c0.77-0.09,1.53-0.17,2.3-0.25c1.79-0.17,3.58-0.31,5.38-0.4c3.61-0.19,7.22-0.22,10.83-0.17
				c8.39,0.13,16.77,0.72,25.16,1.1c9.42,0.43,18.87,0.57,28.26-0.48c3.03-0.34,6-2.43,5.84-5.82c-0.13-2.86-2.58-6.18-5.84-5.82
				c-31.46,3.52-64.16-6.31-94.63,5.42c-8.05,3.1-15.39,7.4-21.77,13.23c-2.26,2.07-2.26,6.17,0,8.23
				C666.29,393.71,669.73,393.71,672.15,391.49L672.15,391.49z"/>
		</g>
	</g>
	<path class="st3" d="M1180.62,964.88c-54.41-5.13-110.59-9.34-168.49-12.42c-80.21-4.27-157.46-6.03-231.48-5.79
		c0-16.84,0-33.67,0-50.51c133.58,0.56,267.15,1.1,400.73,1.66C1181.13,920.17,1180.87,942.51,1180.62,964.88z"/>
	<g>
		<path class="st4" d="M575.82,533.91c15.77-25.35,38.91-45.16,65.24-55.83c-3.96,14.55,10.92,26.45,23.82,32.11
			c12.91,5.66,28.66,13.9,28.66,29.07c38.7-58.94,76.39-119.88,98.37-188.3c7.52-23.42,13.38-48.07,26.78-68.13
			s36.98-34.65,58.78-27.55c17.36,5.65,29.69,23.46,47.07,29.06c18.91,6.09,38.66-3.52,58.12-6.95c19.46-3.43,44.83,4.63,47.07,26
			c12.16-17.5,34.94-25.21,54.04-18.29s33.13,27.96,33.27,49.92c10.65-18.4,38.02-15.31,52.07,0.13
			c14.05,15.44,18.61,38.02,23.55,59.11c11.21,47.92,27.46,94.44,48.31,138.35c2.75-23.05,19.51-40.78,35.86-55.67
			c30.86-28.09,63.91-53.29,98.69-75.25c9.49,35.06,3.73,74.68-15.26,104.8c-3.03,4.81-6.48,9.67-7.16,15.47
			c-0.74,6.4,2.07,12.57,3.9,18.71c11.95,39.85-16.04,79.85-22.52,121.19c-6.71,42.82,10.25,85.83,30.87,123
			c20.62,37.17,45.61,72.31,57.71,113.71c0.31,1.05,0.65,7.04,1.65,17.46c3.32,34.49,3.62,34.3,3.3,35.58
			c-5.84,23.42-88.47,19.48-178.35,15.73c-36.98-1.54-66.45-2.69-82.72-3.31c-0.65-11.47-0.08-26.2,4.35-42.36
			c1.16-4.18,2.45-8.07,3.83-11.67c-15.79-8.73-25.63-28.84-23.46-48.01c2.14-18.96,14.29-34.4,23.33-50.76
			c21.51-38.92,26.29-86.8,20.55-131.81c-5.74-45.01-21.29-87.79-38.22-129.32c-11.38-27.88-23.78-56-43.39-77.77
			c-19.61-21.77-47.87-36.43-75.43-31.21c-19.56,3.71-37.41,16.97-57.26,16.68c-16.83-0.23-32.05-10.15-47.94-16.26
			c-29.27-11.25-63.99-8.7-88.75,11.74c-20.88,17.25-32.43,44.52-42.2,71.04c-24.52,66.62-43.09,136.95-43.61,208.75
			c-0.52,71.78,18.38,145.52,61.54,199.71c-18.75,13.05-40.64,15.87-62.04,9.3"/>
	</g>
	<g>
		<path class="st4" d="M575.25,533.48c12.83,17.87,22.75,38.21,29.18,59.79c3.74,12.57,6.34,25.63,11.59,37.56
			c6.47,14.68,16.73,27.06,28.24,37.44c10.21,9.22,22.61,19.3,22.73,33.76c0.08,10.63-6.75,19.65-13.21,27.61
			c-14.52,17.9-29.21,35.98-47.18,49.65c-5.55,4.22-11.55,8.19-15.16,14.42c-4.27,7.39-4.47,16.71-7.53,24.78
			c-4.01,10.54-12.61,18.15-18.03,27.92c-4.27,7.72-6.43,16.59-9.86,24.81c-9.81,23.53-29.7,41.13-37.59,65.5
			c-0.73,2.24,1.21,5.35,1.01,10.24c-0.52,12.51-7.2,17.49-5.91,21.22c2.56,7.48,33.77,0.54,56.93-3.31
			c35.99-6,27.12-0.36,93.36-8.28c29.9-3.57,53.09-7.28,64.35-9.16c12.04-1.99,22.3-3.85,30.13-5.34"/>
	</g>
	<g>
		<path class="st5" d="M1126.74,888.7c-90.82,2.48-181.65,4.97-272.46,7.45c-1.01-96.04-2.03-192.08-3.04-288.12
			c28.09-67.46,87.5-109.97,149.52-107.63c64.89,2.44,105.28,52.98,112.32,62.09c3.83,5.82,9.4,15.34,13.66,28.14
			c0,0,4.83,14.55,6.07,31.47C1134.57,646.18,1132.66,748.99,1126.74,888.7z"/>
		<g>
			<path class="st6" d="M1092.2,892.42H894.11V606.79c17.17-40.11,53.21-66.67,93.36-68.72c42.22-2.16,82.08,23.14,101.7,64.58
				C1090.18,699.25,1091.19,795.84,1092.2,892.42z"/>
			<line class="st7" x1="998.86" y1="537.66" x2="998.86" y2="842.33"/>
			<line class="st7" x1="941.18" y1="552.56" x2="941.18" y2="843.16"/>
			<line class="st7" x1="1057.33" y1="562.5" x2="1057.33" y2="842.33"/>
			<rect x="896.02" y="842.33" class="st8" width="195.05" height="49.68"/>
			<rect x="1044.77" y="697.45" class="st9" width="25.04" height="78.65"/>
			<ellipse class="st10" cx="1057.67" cy="680.9" rx="9.87" ry="10.76"/>
		</g>
	</g>
	<g>
		<g>
			<path class="st2" d="M728.09,623.22c18.13-7.94,36.25-15.88,54.38-23.82c2.81-1.23,3.68-5.54,2.09-7.97
				c-1.87-2.9-4.99-3.4-8-2.08c-18.13,7.94-36.25,15.88-54.38,23.82c-2.81,1.23-3.68,5.54-2.09,7.97
				C721.96,624.03,725.07,624.54,728.09,623.22L728.09,623.22z"/>
		</g>
	</g>
	<g>
		<g>
			<path class="st2" d="M1232.32,968.39c13.01-21.37,22.01-45.23,26.6-69.78c2.34-12.56,3.64-25.34,3.73-38.12
				c0.09-13.4-1.09-26.76-1.69-40.13c-0.32-7.46-0.48-14.94-0.1-22.4c0.18-3.65,0.47-7.29,0.96-10.9c-0.12,0.88,0.03-0.13,0.04-0.26
				c0.09-0.59,0.18-1.2,0.27-1.8c0.14-0.91,0.31-1.8,0.48-2.69c0.36-1.9,0.78-3.79,1.23-5.66c0.73-2.95-0.95-6.45-4.08-7.17
				c-3.01-0.69-6.42,0.91-7.2,4.06c-6.51,26.38-2.25,53.44-1.68,80.19c0.14,6.38,0.03,12.75-0.4,19.12
				c-0.21,3.05-0.48,6.12-0.82,9.16c-0.09,0.76-0.17,1.53-0.27,2.28c-0.05,0.38-0.09,0.76-0.14,1.14c-0.03,0.17-0.16,1.14-0.01,0.16
				c-0.21,1.51-0.43,3.03-0.68,4.54c-1.95,12.24-4.99,24.3-9.09,35.99c-1.13,3.22-2.34,6.42-3.62,9.57
				c-0.14,0.35-0.29,0.7-0.43,1.05c0.01-0.04-0.58,1.41-0.36,0.88c0.25-0.59-0.21,0.49-0.26,0.61c-0.18,0.44-0.38,0.87-0.57,1.29
				c-0.69,1.55-1.39,3.1-2.12,4.63c-2.96,6.29-6.27,12.4-9.88,18.34c-1.58,2.6-0.66,6.51,2.09,7.97
				C1227.16,971.98,1230.63,971.18,1232.32,968.39L1232.32,968.39z"/>
		</g>
	</g>
	<g>
		<g>
			<path class="st2" d="M1339.95,970.01c-0.1-2.38-0.1-4.77,0.01-7.15c0.05-1.19,0.14-2.38,0.25-3.57c0.05-0.59,0.12-1.19,0.18-1.77
				c0.04-0.4,0.26-1.88,0.09-0.72c0.75-4.79,1.79-9.48,3.31-14.08c0.34-1.05,0.7-2.08,1.09-3.1c0.21-0.56,0.42-1.1,0.64-1.66
				c0.13-0.31,0.26-0.62,0.38-0.93c0.32-0.83-0.36,0.81,0,0c0.97-2.13,1.96-4.26,3.08-6.32c1.16-2.12,2.39-4.19,3.74-6.2
				c0.6-0.89,1.21-1.77,1.84-2.64c0.34-0.47,0.69-0.93,1.04-1.38c-0.05,0.06-0.57,0.71-0.16,0.21c0.26-0.31,0.51-0.65,0.78-0.96
				c1.61-1.95,3.31-3.83,5.12-5.61c0.92-0.91,1.87-1.8,2.86-2.65c0.48-0.43,0.97-0.84,1.48-1.25c0.18-0.16,0.38-0.31,0.56-0.47
				c0.12-0.1,1.4-1.1,0.34-0.28c2.42-1.85,3.96-5.1,2.09-7.97c-1.53-2.38-5.4-4.07-8-2.08c-16.59,12.71-27.68,31.74-31.16,52.29
				c-1.03,6.07-1.52,12.2-1.26,18.34c0.13,3.04,2.6,5.96,5.84,5.82C1337.15,975.69,1340.08,973.27,1339.95,970.01L1339.95,970.01z"
				/>
		</g>
	</g>
	<g>
		<path class="st2" d="M1538.71,609.32c-11.87-0.76-24.2,9.14-29.72,22.08c-5.45,12.77-4.09,24.69-2.39,51.38
			c1.1,17.28,1.74,35.67-4.17,50.93c-26.81-42.64-61.37-75.76-99.54-95.4c-8.36,40.62-4.86,70.76-1.84,86.87
			c5.03,26.77,15.07,48.55,24.37,68.72c9.01,19.54,15.73,27.68,25.56,52.99c3.81,9.8,7.97,21.79,11.59,36.85
			c4.68,19.49,7.01,29.24,5.95,41.4c-1.91,21.7-12.44,31.47-9.21,38.5c2.45,5.33,10.29,3.35,20.21,1.66
			c32.56-5.56,48.85-8.36,53.48-9.93c26.57-9.08,39.83-13.74,48.13-25.66c6.73-9.66,5.68-14.51,15.16-59.2
			c7.83-36.94,13.03-75.12,23.17-110.94c1.29-4.54,4.26-14.68,2.97-27.32c-0.97-9.62-4.07-17.23-8.91-26.49
			c-10.51-20.09-21.33-32.83-24.37-36.43C1553.38,626.81,1553.48,610.27,1538.71,609.32z"/>
	</g>
</g>
<g>
	<path class="st11" d="M711.71,956.69c0,1.94-0.91,4.49-2.74,7.65c-16.02,26.59-37.3,39.89-63.84,39.89
		c-27.16,0-49.18-12.93-66.06-38.79c-16.45-25.01-24.67-56.58-24.67-94.71c0-36.91,8.05-68.24,24.15-93.98
		c16.8-26.96,38.16-40.43,64.1-40.43c28.2,0,50.31,12.08,66.32,36.24c1.74,2.67,2.61,5.04,2.61,7.1c0,2.31-3.03,10.87-9.07,25.68
		c-6.05,14.82-9.86,23.13-11.42,24.95c-0.7,0.97-1.57,1.46-2.61,1.46c-0.44,0-2.61-2.43-6.53-7.29c-4.7-5.83-9.31-10.38-13.84-13.66
		c-6.88-4.85-14.01-7.29-21.41-7.29c-12.79,0-23.02,6.68-30.68,20.03c-7.05,12.38-10.58,27.68-10.58,45.9
		c0,18.46,3.52,33.94,10.58,46.44c7.66,13.6,17.89,20.4,30.68,20.4c7.57,0,14.75-2.3,21.54-6.92c4.44-3.03,8.96-7.29,13.58-12.75
		c3.83-4.61,5.96-6.92,6.4-6.92c0.87,0,1.74,0.67,2.61,2c1.39,2.19,5.18,9.77,11.36,22.77
		C708.53,947.95,711.71,955.36,711.71,956.69z"/>
	<path class="st11" d="M845.79,1000.95c-7.49,0-17.23-0.25-29.24-0.73c-15.67-0.49-25.42-0.79-29.24-0.91l-39.04-0.73
		c-3.92,0.12-9.53-0.12-16.84-0.73c-2.53-0.61-3.79-2.49-3.79-5.65c0-13.23,0.15-33.06,0.46-59.47c0.3-26.41,0.46-46.23,0.46-59.47
		c0-14.08-0.31-35.18-0.91-63.29c-0.61-28.11-0.91-49.2-0.91-63.29c0-2.67,1.31-4.01,3.92-4.01c2.61,0,6.51,0.18,11.68,0.55
		c5.18,0.36,9.03,0.55,11.55,0.55c2.87,0,7.14-0.21,12.79-0.64c5.66-0.42,9.92-0.64,12.79-0.64c1.31,0,1.91,1.16,1.83,3.46
		l-0.13,2.37c-1.04,22.83-2.22,57.13-3.52,102.9l-0.13,48.08c0,15.54,0.04,26.9,0.13,34.06c0.08,1.46,0.17,2.91,0.26,4.37
		c0.09,1.46,0.74,2.37,1.96,2.73c0.09,0,1.22,0,3.39,0c7.83,0,19.56-0.58,35.18-1.73c15.62-1.15,27.35-1.73,35.18-1.73
		c2.35,0,3.53,1.4,3.53,4.19c0,20.76-1.09,38.67-3.26,53.73c-0.44,3.16-1.35,5.04-2.74,5.65
		C850.71,1000.83,848.92,1000.95,845.79,1000.95z"/>
	<path class="st11" d="M1005.72,941.21c0,5.22-0.74,14.82-2.22,28.78c-1.57,15.18-2.96,24.22-4.18,27.14
		c-1.04,2.31-2.48,3.46-4.31,3.46c-0.78,0-2.09-0.18-3.92-0.55c-6.35-1.21-24.89-1.82-55.62-1.82c-6.7,0-16.67-0.06-29.9-0.18
		c-13.23-0.12-23.15-0.18-29.77-0.18c-2.87,0-4.31-1.76-4.31-5.28c0-13.6,0.54-34.03,1.63-61.29c1.09-27.26,1.63-47.69,1.63-61.29
		c0-13.84-0.52-39.64-1.57-77.41c-0.26-9.71-0.74-24.22-1.44-43.53l-0.13-2.55c-0.18-2.79,0.91-4.19,3.26-4.19
		c6.44,0,16.12,0.25,29.05,0.73c12.92,0.49,22.61,0.73,29.05,0.73c6.35,0,15.93-0.24,28.72-0.73c12.79-0.48,22.37-0.73,28.72-0.73
		c4.52,0,7.14,2.37,7.83,7.1c0.43,2.79,1.11,11.26,2.02,25.41c0.91,14.15,1.37,22.74,1.37,25.77c0,2.55-0.87,3.83-2.61,3.83
		c-0.52,0-1.44-0.06-2.74-0.18c-23.15-2.67-43.95-4.01-62.4-4.01c-4.61,0-7.44,1.52-8.49,4.55c-0.44,1.46-0.65,6.13-0.65,14.02
		c0,8.26,0.87,13.72,2.61,16.39c1.48,2.31,4.31,3.46,8.49,3.46c0.87,0,2.57-0.09,5.09-0.27c2.52-0.18,4.61-0.27,6.27-0.27
		c10.97,0,22.06-0.42,33.29-1.27c0.96-0.12,3.35-0.42,7.18-0.91c2.96-0.48,5.31-0.73,7.05-0.73c2.09,0,3.13,1.4,3.13,4.19
		c0-2.55-0.78,6.74-2.35,27.87c-0.7,9.72-1.04,19.43-1.04,29.14c0,2.43-1.26,3.64-3.79,3.64l-11.75-1.82
		c-4.96-0.73-16.28-1.09-33.94-1.09h-13.84c-3.57,0-5.66,1.22-6.27,3.64c-0.09,0.61-0.13,4.37-0.13,11.29
		c0,9.23,0.43,15.18,1.3,17.85c1.48,4.62,7.05,7.35,16.71,8.2c-0.17,0,6.18,0,19.06,0c4.61,0,11.47-0.57,20.56-1.73
		c9.09-1.15,15.91-1.73,20.43-1.73C1004.76,934.66,1005.72,936.84,1005.72,941.21z"/>
	<path class="st11" d="M1195.28,993.3c0,2.19-1.09,3.71-3.26,4.55c-2.61,0.97-10.71,1.46-24.28,1.46c-12.45,0-20.45-0.49-24.02-1.46
		c-2.96-0.85-4.83-3.58-5.61-8.2c-2.96-17.49-5.27-26.83-6.92-28.05c-1.39-0.85-13.06-1.27-34.99-1.27
		c-14.8,0-22.67,0.55-23.63,1.64c-1.48,1.94-3.13,8.44-4.96,19.49c-1.65,10.08-3.66,15.54-6,16.39c-2.96,0.97-12.88,1.46-29.77,1.46
		c-13.32,0-19.97-1.76-19.97-5.28c0-3.16,9.83-41.95,29.5-116.38c21.32-80.5,32.9-124.76,34.73-132.77
		c1.04-4.61,2.26-6.92,3.66-6.92c2.35,0,5.98,0.3,10.9,0.91c4.92,0.61,8.59,0.91,11.03,0.91c2.35,0,5.81-0.21,10.38-0.64
		c4.57-0.42,7.98-0.64,10.25-0.64c1.65,0,3.18,2,4.57,6.01c4.26,12.75,16.71,56.46,37.34,131.13
		C1184.92,950.81,1195.28,990.02,1195.28,993.3z M1102.72,827.38c-1.83,5.34-4.92,16.94-9.27,34.79
		c-4.7,18.94-7.05,30.05-7.05,33.33c0,2.19,2.61,3.4,7.83,3.64c2.7,0.24,7.14,0.36,13.32,0.36c5.75,0,8.92-0.97,9.53-2.91
		c0.17-0.61,0.26-1.46,0.26-2.55c0-4.01-2-15.05-6.01-33.15C1107.42,843.41,1104.55,832.24,1102.72,827.38z"/>
	<path class="st11" d="M1364.22,996.03c0,0.85-0.87,1.46-2.61,1.82c-3.31,0.73-11.62,1.09-24.94,1.09c-11.4,0-19.15-0.36-23.24-1.09
		c-1.92-0.36-3-0.67-3.26-0.91c-0.52-0.36-1.13-1.58-1.83-3.64c-1.31-4.74-3.22-11.78-5.75-21.13c-3.39-12.14-8.7-30.05-15.93-53.73
		c-1.57-4.74-5.18-7.34-10.84-7.83c2.61,0.24-1.87,0.36-13.45,0.36c-1.31,0-1.96,3.1-1.96,9.29c0,8.26,0.54,20.58,1.63,36.97
		c1.09,16.39,1.63,28.72,1.63,36.97c0,2.07-0.39,3.28-1.17,3.64c-1.22,0.12-2.44,0.24-3.66,0.36c-5.14,0.48-13.14,0.73-24.02,0.73
		c-12.45,0-19.93-0.36-22.46-1.09c-2.53-0.73-3.79-2.61-3.79-5.65c0-13.36,0.46-33.51,1.37-60.47c0.91-26.96,1.37-47.17,1.37-60.65
		c0-51.36-0.83-91.43-2.48-120.21l-0.13-2.55c-0.09-2.06,1.28-3.46,4.11-4.19c2.83-0.73,16.12-1.46,39.88-2.19
		c16.1-0.48,28.94-0.73,38.51-0.73c19.84,0,36.03,6.25,48.57,18.76c14.19,14.09,21.28,34.42,21.28,61.01
		c0,17.73-1.83,31.87-5.48,42.44s-10.4,20.83-20.24,30.78c-2,1.94-3,3.77-3,5.46c0-0.12,5.31,15.12,15.93,45.72
		C1358.91,976,1364.22,992.88,1364.22,996.03z M1309.39,832.66c0-14.81-3.48-25.07-10.44-30.78c-5.4-4.37-13.84-6.56-25.33-6.56
		c-8.27,0-12.66,1.76-13.19,5.28c-0.52,4.13-0.78,16.03-0.78,35.7c0,2.79,0.04,6.92,0.13,12.39c0.09,5.46,0.13,9.53,0.13,12.2
		c0,0.61,1.39,1.22,4.18,1.82c5.31,1.09,10.88,1.64,16.71,1.64C1299.86,864.35,1309.39,853.79,1309.39,832.66z"/>
	<path class="st11" d="M1430.28,786.4c0,22.1-1.44,42.86-4.31,62.29c-3.48,19.92-6.92,39.77-10.31,59.56
		c-0.78,4.49-4.27,6.74-10.44,6.74c-7.05,0-10.97-1.94-11.75-5.83c-8.18-38.98-12.27-61.13-12.27-66.48
		c0-4.98,0.17-12.38,0.52-22.22c0.35-9.83,0.52-17.24,0.52-22.22c0-5.46-0.13-13.66-0.39-24.59c-0.26-10.93-0.39-19.12-0.39-24.59
		c0-4.49,0.78-6.74,2.35-6.74c2.44,0,6.09,0.25,10.97,0.73c4.87,0.49,8.53,0.73,10.97,0.73c2.44,0,6.09-0.24,10.97-0.73
		c4.87-0.48,8.53-0.73,10.97-0.73C1429.41,742.33,1430.28,757.02,1430.28,786.4z M1430.28,966.89c0,10.2-2.26,18.67-6.79,25.41
		c-4.53,6.74-10.44,10.11-17.75,10.11c-7.4,0-13.34-3.34-17.82-10.02c-4.48-6.68-6.72-15.18-6.72-25.5c0-10.2,2.26-18.58,6.79-25.13
		c4.52-6.56,10.44-9.83,17.75-9.83c7.22,0,13.12,3.28,17.69,9.83C1427.99,948.32,1430.28,956.69,1430.28,966.89z"/>
</g>
</svg>
