<?xml version="1.0" encoding="utf-8"?>
<!-- Generator: Adobe Illustrator 23.0.5, SVG Export Plug-In . SVG Version: 6.00 Build 0)  -->
<svg version="1.1" id="圖層_1" xmlns="http://www.w3.org/2000/svg" xmlns:xlink="http://www.w3.org/1999/xlink" x="0px" y="0px"
	 viewBox="0 0 1920 1080" style="enable-background:new 0 0 1920 1080;" xml:space="preserve">
<style type="text/css">
	.st0{fill:#D6D2CF;stroke:#000000;stroke-miterlimit:10;}
	.st1{fill:#F8B945;stroke:#000000;stroke-miterlimit:10;}
	.st2{font-family:'FranklinGothic-Medium';}
	.st3{font-size:172.18px;}
	.st4{fill:#FFFFFF;}
	.st5{fill:none;stroke:#000000;stroke-width:2;stroke-miterlimit:10;}
	.st6{fill:#FFFFFF;stroke:#000000;stroke-width:6;stroke-miterlimit:10;}
	.st7{fill:#7FEF6C;}
</style>
<g>
	<path class="st0" d="M1261.92,975.76c-72.6,18.33-161.65,33-263.44,33.05c-102.25,0.05-191.68-14.66-264.5-33.05
		c0.7-196.39,1.41-392.77,2.11-589.16c77.85,7.9,162.04,12.39,251.81,11.5c96.29-0.96,186.17-8.01,268.73-18.68
		C1258.39,578.19,1260.16,776.97,1261.92,975.76z"/>
	<path class="st0" d="M1264.03,1004.5c-79.27,16.85-173,29.23-278.25,28.74c-97.3-0.46-184.5-11.83-259.21-27.3
		c-0.69-0.75-6.6-7.49-6.35-18.68c0.24-10.33,5.56-16.37,6.35-17.24c72.39,14.53,157.53,24.9,252.87,23.84
		c103.57-1.14,195.23-15.5,271.9-33.9c1.01,0.44,11.44,5.31,14.81,20.12C1268.98,992.48,1264.77,1002.77,1264.03,1004.5z"/>
	<ellipse class="st1" cx="993.18" cy="633.04" rx="130.14" ry="160.22"/>
	<path class="st0" d="M1268.79,370.07c-3.33,20.97-44.21,25.22-280.37,27.3c-229.14,2.02-269.61-1.29-272.97-21.55
		C712.27,356.55,742.1,318.49,900.6,235c61.01-1.92,122.03-3.83,183.04-5.75C1242.39,311.95,1271.93,350.33,1268.79,370.07z"/>
	<rect x="913.3" y="204.82" class="st0" width="158.7" height="25.87"/>
	<rect x="914.37" y="109.98" class="st0" width="158.7" height="25.87"/>
	<rect x="921.77" y="135.84" class="st0" width="142.83" height="68.97"/>
	<rect x="921.77" y="46.75" class="st1" width="144.95" height="63.23"/>
	<text transform="matrix(0.7006 0 0 1 903.6606 694.4746)" class="st2 st3">OIL</text>
</g>
<g>
	<g>
		<g>
			<path class="st4" d="M812.94,1063.08c-2.38,0-4.42-0.87-6.04-2.58c-1.3-1.36-2.08-2.92-2.32-4.65h-53.01
				c-0.26,1.74-1.08,3.31-2.45,4.69c-1.69,1.69-3.68,2.54-5.91,2.54h-2.34c-2.88,0-5.4-1.05-7.47-3.13
				c-2.07-2.07-3.12-4.65-3.12-7.66v-39.65c0-5.21,1.87-9.73,5.57-13.43c3.69-3.69,8.21-5.57,13.43-5.57h58.4
				c5.22,0,9.73,1.87,13.43,5.57c3.69,3.69,5.57,8.21,5.57,13.43v39.26c0,3.14-1.08,5.82-3.22,7.96c-2.14,2.14-4.82,3.22-7.96,3.22
				L812.94,1063.08L812.94,1063.08z M804.5,1036.23v-23.15h-52.84v23.15H804.5z M669.19,1028.51c-1.56,0-3.12-0.31-4.65-0.93
				c-3.04-1.28-5.12-3.52-6.22-6.67c-0.46-1.22-0.7-2.57-0.7-3.98c0-1.59,0.39-3.24,1.16-4.93c1.42-2.99,3.71-5.05,6.82-6.14
				c3.97-1.41,8.94-3.3,14.76-5.63l0.11-0.04c0.29-0.1,0.39-0.13,0.39-0.64V945.1h-11.28c-2.88,0-5.43-1.08-7.57-3.22
				c-2.14-2.14-3.22-4.72-3.22-7.66c0-2.96,1.09-5.51,3.25-7.59c2.14-2.06,4.68-3.1,7.54-3.1h11.28v-34.91
				c0-2.88,1.05-5.39,3.12-7.47c2.08-2.07,4.59-3.13,7.47-3.13c2.88,0,5.39,1.05,7.47,3.12c2.08,2.08,3.13,4.59,3.13,7.47v34.91
				h8.94c3.01,0,5.59,1.05,7.66,3.12c2.08,2.08,3.13,4.63,3.13,7.57c0,2.93-1.04,5.5-3.1,7.64c-2.08,2.16-4.67,3.25-7.69,3.25h-8.94
				v46.33l12.63-5.09c-1.07-2.52-1.59-5.02-1.59-7.5c0-1.59,0.22-3.26,0.65-4.98c1.18-4.44,3.79-7.87,7.76-10.22
				c16.23-9.71,29.64-21.43,39.86-34.84c4.02-5.32,9.13-8.01,15.17-8.01c5.96,0,11.22,2.45,15.64,7.29
				c13.18,14.85,28.47,26.45,45.47,34.5c2.59,1.3,4.37,3.32,5.33,6.02l0.07,0.19l0.03,0.2c0.14,1.03,0.21,1.95,0.21,2.82
				c0,1.8-0.49,3.52-1.46,5.13c-1.69,2.77-4.04,4.64-6.97,5.56c-1.13,0.33-2.3,0.48-3.53,0.48c-1.76,0-3.53-0.48-5.25-1.42
				c-5.12-2.79-10.09-5.83-14.8-9.03c-0.45,2.84-1.77,5.36-3.92,7.52c-2.72,2.72-6.02,4.1-9.81,4.1h-38.67c-3.66,0-6.87-1.35-9.52-4
				c-2.06-2.06-3.34-4.46-3.8-7.14c-7.92,5.83-15.94,10.82-23.86,14.84c-0.01,0-0.01,0.01-0.02,0.01c0.01,0.03,0.08,0.26,0.08,0.26
				c0.43,1.71,0.65,3.39,0.65,4.98c0,3.18-0.73,6.19-2.18,8.94c-2.13,4.4-5.55,7.68-10.15,9.69c-12.19,5.45-24.49,10.78-36.55,15.83
				C672.1,1028.19,670.64,1028.51,669.19,1028.51z M800.78,964.94c-9.21-7.27-17.12-14.93-23.56-22.8
				c-5.58,7.71-12.82,15.38-21.54,22.8H800.78z M804.83,933.2c-2.95,0-5.5-1.05-7.57-3.13c-2.07-2.07-3.12-4.58-3.12-7.47v-8.16
				h-33.7v8.35c0,2.88-1.02,5.36-3.03,7.37s-4.52,3.03-7.47,3.03c-2.95,0-5.47-1.02-7.47-3.03c-2.01-2-3.03-4.48-3.03-7.37v-8.35
				h-16.95c-2.75,0-5.13-0.99-7.08-2.93c-1.94-1.94-2.93-4.33-2.93-7.08s0.99-5.13,2.93-7.08c1.94-1.94,4.33-2.93,7.08-2.93h16.95
				v-7.38c0-2.88,1.02-5.36,3.03-7.37s4.52-3.03,7.47-3.03c2.94,0,5.45,1.02,7.47,3.03c2.01,2.02,3.03,4.5,3.03,7.37v7.38h33.7
				v-6.98c0-3.01,1.05-5.59,3.12-7.66c2.08-2.07,4.62-3.13,7.57-3.13c2.94,0,5.49,1.05,7.56,3.12c2.08,2.08,3.13,4.66,3.13,7.67
				v6.98h17.14c2.75,0,5.13,0.99,7.08,2.93c1.94,1.94,2.93,4.33,2.93,7.08s-0.99,5.13-2.93,7.08c-1.94,1.94-4.33,2.93-7.08,2.93
				h-17.14v8.16c0,2.88-1.05,5.4-3.13,7.47C810.33,932.15,807.78,933.2,804.83,933.2z"/>
			<path class="st5" d="M812.94,1063.08c-2.38,0-4.42-0.87-6.04-2.58c-1.3-1.36-2.08-2.92-2.32-4.65h-53.01
				c-0.26,1.74-1.08,3.31-2.45,4.69c-1.69,1.69-3.68,2.54-5.91,2.54h-2.34c-2.88,0-5.4-1.05-7.47-3.13
				c-2.07-2.07-3.12-4.65-3.12-7.66v-39.65c0-5.21,1.87-9.73,5.57-13.43c3.69-3.69,8.21-5.57,13.43-5.57h58.4
				c5.22,0,9.73,1.87,13.43,5.57c3.69,3.69,5.57,8.21,5.57,13.43v39.26c0,3.14-1.08,5.82-3.22,7.96c-2.14,2.14-4.82,3.22-7.96,3.22
				L812.94,1063.08L812.94,1063.08z M804.5,1036.23v-23.15h-52.84v23.15H804.5z M669.19,1028.51c-1.56,0-3.12-0.31-4.65-0.93
				c-3.04-1.28-5.12-3.52-6.22-6.67c-0.46-1.22-0.7-2.57-0.7-3.98c0-1.59,0.39-3.24,1.16-4.93c1.42-2.99,3.71-5.05,6.82-6.14
				c3.97-1.41,8.94-3.3,14.76-5.63l0.11-0.04c0.29-0.1,0.39-0.13,0.39-0.64V945.1h-11.28c-2.88,0-5.43-1.08-7.57-3.22
				c-2.14-2.14-3.22-4.72-3.22-7.66c0-2.96,1.09-5.51,3.25-7.59c2.14-2.06,4.68-3.1,7.54-3.1h11.28v-34.91
				c0-2.88,1.05-5.39,3.12-7.47c2.08-2.07,4.59-3.13,7.47-3.13c2.88,0,5.39,1.05,7.47,3.12c2.08,2.08,3.13,4.59,3.13,7.47v34.91
				h8.94c3.01,0,5.59,1.05,7.66,3.12c2.08,2.08,3.13,4.63,3.13,7.57c0,2.93-1.04,5.5-3.1,7.64c-2.08,2.16-4.67,3.25-7.69,3.25h-8.94
				v46.33l12.63-5.09c-1.07-2.52-1.59-5.02-1.59-7.5c0-1.59,0.22-3.26,0.65-4.98c1.18-4.44,3.79-7.87,7.76-10.22
				c16.23-9.71,29.64-21.43,39.86-34.84c4.02-5.32,9.13-8.01,15.17-8.01c5.96,0,11.22,2.45,15.64,7.29
				c13.18,14.85,28.47,26.45,45.47,34.5c2.59,1.3,4.37,3.32,5.33,6.02l0.07,0.19l0.03,0.2c0.14,1.03,0.21,1.95,0.21,2.82
				c0,1.8-0.49,3.52-1.46,5.13c-1.69,2.77-4.04,4.64-6.97,5.56c-1.13,0.33-2.3,0.48-3.53,0.48c-1.76,0-3.53-0.48-5.25-1.42
				c-5.12-2.79-10.09-5.83-14.8-9.03c-0.45,2.84-1.77,5.36-3.92,7.52c-2.72,2.72-6.02,4.1-9.81,4.1h-38.67c-3.66,0-6.87-1.35-9.52-4
				c-2.06-2.06-3.34-4.46-3.8-7.14c-7.92,5.83-15.94,10.82-23.86,14.84c-0.01,0-0.01,0.01-0.02,0.01c0.01,0.03,0.08,0.26,0.08,0.26
				c0.43,1.71,0.65,3.39,0.65,4.98c0,3.18-0.73,6.19-2.18,8.94c-2.13,4.4-5.55,7.68-10.15,9.69c-12.19,5.45-24.49,10.78-36.55,15.83
				C672.1,1028.19,670.64,1028.51,669.19,1028.51z M800.78,964.94c-9.21-7.27-17.12-14.93-23.56-22.8
				c-5.58,7.71-12.82,15.38-21.54,22.8H800.78z M804.83,933.2c-2.95,0-5.5-1.05-7.57-3.13c-2.07-2.07-3.12-4.58-3.12-7.47v-8.16
				h-33.7v8.35c0,2.88-1.02,5.36-3.03,7.37s-4.52,3.03-7.47,3.03c-2.95,0-5.47-1.02-7.47-3.03c-2.01-2-3.03-4.48-3.03-7.37v-8.35
				h-16.95c-2.75,0-5.13-0.99-7.08-2.93c-1.94-1.94-2.93-4.33-2.93-7.08s0.99-5.13,2.93-7.08c1.94-1.94,4.33-2.93,7.08-2.93h16.95
				v-7.38c0-2.88,1.02-5.36,3.03-7.37s4.52-3.03,7.47-3.03c2.94,0,5.45,1.02,7.47,3.03c2.01,2.02,3.03,4.5,3.03,7.37v7.38h33.7
				v-6.98c0-3.01,1.05-5.59,3.12-7.66c2.08-2.07,4.62-3.13,7.57-3.13c2.94,0,5.49,1.05,7.56,3.12c2.08,2.08,3.13,4.66,3.13,7.67
				v6.98h17.14c2.75,0,5.13,0.99,7.08,2.93c1.94,1.94,2.93,4.33,2.93,7.08s-0.99,5.13-2.93,7.08c-1.94,1.94-4.33,2.93-7.08,2.93
				h-17.14v8.16c0,2.88-1.05,5.4-3.13,7.47C810.33,932.15,807.78,933.2,804.83,933.2z"/>
		</g>
		<g>
			<path class="st4" d="M949.56,1063.28c-3.21,0-5.98-1.15-8.25-3.42s-3.42-5.08-3.42-8.35V999.6h-47.76v0.54
				c0,3.14-1.12,5.85-3.32,8.06c-2.2,2.2-4.91,3.32-8.05,3.32c-3.15,0-5.86-1.12-8.06-3.32s-3.32-4.91-3.32-8.05v-70.31
				c0-5.21,1.87-9.73,5.57-13.43c3.69-3.69,8.21-5.57,13.43-5.57h51.52v-23c0-3.41,1.16-6.26,3.44-8.47c2.27-2.19,5.03-3.3,8.23-3.3
				c3.2,0,5.98,1.15,8.25,3.42c2.27,2.27,3.42,5.08,3.42,8.35v23h52.49c5.22,0,9.73,1.87,13.43,5.57c3.69,3.69,5.57,8.21,5.57,13.43
				v68.95c0,3.13-1.14,5.89-3.39,8.23c-2.27,2.35-5.09,3.54-8.37,3.54c-3.29,0-6.1-1.19-8.37-3.54c-2.05-2.12-3.18-4.61-3.37-7.4
				h-47.98v51.91c0,3.41-1.16,6.26-3.44,8.47C955.52,1062.17,952.75,1063.28,949.56,1063.28z M1009.18,977.44V933h-47.95v44.44
				H1009.18z M937.89,977.44V933h-47.76v44.44H937.89z"/>
			<path class="st5" d="M949.56,1063.28c-3.21,0-5.98-1.15-8.25-3.42s-3.42-5.08-3.42-8.35V999.6h-47.76v0.54
				c0,3.14-1.12,5.85-3.32,8.06c-2.2,2.2-4.91,3.32-8.05,3.32c-3.15,0-5.86-1.12-8.06-3.32s-3.32-4.91-3.32-8.05v-70.31
				c0-5.21,1.87-9.73,5.57-13.43c3.69-3.69,8.21-5.57,13.43-5.57h51.52v-23c0-3.41,1.16-6.26,3.44-8.47c2.27-2.19,5.03-3.3,8.23-3.3
				c3.2,0,5.98,1.15,8.25,3.42c2.27,2.27,3.42,5.08,3.42,8.35v23h52.49c5.22,0,9.73,1.87,13.43,5.57c3.69,3.69,5.57,8.21,5.57,13.43
				v68.95c0,3.13-1.14,5.89-3.39,8.23c-2.27,2.35-5.09,3.54-8.37,3.54c-3.29,0-6.1-1.19-8.37-3.54c-2.05-2.12-3.18-4.61-3.37-7.4
				h-47.98v51.91c0,3.41-1.16,6.26-3.44,8.47C955.52,1062.17,952.75,1063.28,949.56,1063.28z M1009.18,977.44V933h-47.95v44.44
				H1009.18z M937.89,977.44V933h-47.76v44.44H937.89z"/>
		</g>
		<g>
			<path class="st4" d="M1165.48,1063.47c-2.93,0-5.58-0.94-7.89-2.78c-2.24-1.79-3.89-4.12-4.92-6.93
				c-0.86-2.57-0.58-5.02,0.78-7.14c1.41-2.2,3.54-3.36,6.18-3.36h17.7c1.67-0.13,2.18-0.4,2.26-0.45
				c-0.01-0.01,0.12-0.29,0.12-1.06v-20.27h-61.04c4.71,3.4,8.88,6.75,12.44,10c2.1,1.78,3.19,4.13,3.19,6.95
				c0,3.17-1.14,5.84-3.38,7.91l-0.13,0.11c-2.18,1.71-4.56,2.58-7.09,2.58h-0.7c-2.81-0.16-5.33-1.26-7.5-3.27
				c-4.48-4.09-9.74-8.31-15.63-12.54c-2.64-1.98-3.96-4.62-3.96-7.88c0-1.4,0.3-2.69,0.88-3.86h-28.96c-2.62,0-4.94-0.99-6.88-2.93
				s-2.93-4.29-2.93-6.98c0-2.7,1-5.03,2.96-6.91c1.95-1.86,4.25-2.8,6.85-2.8h111.87v-7.13h-9.52c-5.21,0-9.73-1.87-13.43-5.57
				s-5.57-8.21-5.57-13.43v-7.81c0-5.21,1.87-9.73,5.57-13.43s8.21-5.57,13.43-5.57h42.19c5.21,0,9.73,1.87,13.43,5.57
				s5.57,8.21,5.57,13.43v7.81c0,5.21-1.87,9.73-5.57,13.43s-8.21,5.57-13.43,5.57h-10.3v7.13h30.42c2.6,0,4.91,0.94,6.85,2.8
				c1.97,1.89,2.96,4.21,2.96,6.91c0,2.69-0.99,5.04-2.93,6.98c-1.94,1.94-4.26,2.93-6.88,2.93h-30.42v20.85
				c0,5.05-0.71,8.9-2.17,11.75c-1.54,3-4.29,5.2-8.16,6.54c-4.92,1.78-13.44,2.71-26.02,2.84h-0.01h-0.23L1165.48,1063.47
				L1165.48,1063.47z M1208.79,978.22v-12.99h-36.23v12.99H1208.79z M1072,998.84c-2.24,0-4.29-0.8-6.08-2.37
				c-1.93-1.69-3.08-3.78-3.4-6.22l-0.01-0.13c-0.17-2.47,0.58-4.72,2.22-6.69c1.67-2,3.89-3.06,6.42-3.06
				c8.7-0.39,16.05-0.78,21.74-1.17c0.03,0,0.06-0.01,0.08-0.01c0-0.04,0.01-0.08,0.01-0.14v-13.04h-19.09
				c-2.37,0-4.42-0.85-6.1-2.54c-1.68-1.68-2.54-3.73-2.54-6.1c0-2.38,0.87-4.41,2.57-6.04c1.68-1.6,3.72-2.41,6.07-2.41h60.55
				c2.34,0,4.38,0.81,6.06,2.4c1.71,1.63,2.58,3.66,2.58,6.04c0,2.37-0.85,4.42-2.54,6.1c-1.68,1.68-3.74,2.54-6.1,2.54h-20.07
				v12.02c0.01,0,0.02-0.01,0.04-0.01s0.04,0,0.06,0c10.9-0.64,18.74-1.16,23.31-1.55c0.24-0.02,0.45-0.02,0.65-0.02
				c2.16,0,4.05,0.79,5.62,2.36c1.69,1.69,2.54,3.74,2.54,6.1c0,2.33-0.83,4.42-2.47,6.23c-1.65,1.82-3.68,2.83-6.03,2.99
				c-18.26,1.43-40.28,3.01-65.43,4.69C1072.43,998.84,1072.21,998.84,1072,998.84z M1088.14,944.33c-2.24,0-4.19-0.82-5.81-2.44
				c-1.62-1.61-2.44-3.6-2.44-5.9c0-2.3,0.82-4.29,2.44-5.91c1.62-1.62,3.58-2.44,5.81-2.44h106.01v-5.96H1094
				c-2.1,0-3.96-0.79-5.52-2.34c-1.56-1.55-2.34-3.48-2.34-5.71s0.79-4.16,2.34-5.71c1.55-1.56,3.41-2.34,5.52-2.34h100.15v-5.96
				h-105.04c-2.24,0-4.19-0.82-5.81-2.44c-1.62-1.61-2.44-3.57-2.44-5.81c0-2.23,0.82-4.19,2.44-5.81c1.62-1.62,3.58-2.44,5.81-2.44
				h108.2c5.21,0,9.73,1.87,13.43,5.57s5.57,8.21,5.57,13.43v23.24c0,5.21-1.87,9.73-5.57,13.43s-8.21,5.57-13.43,5.57h-109.17
				V944.33z"/>
			<path class="st5" d="M1165.48,1063.47c-2.93,0-5.58-0.94-7.89-2.78c-2.24-1.79-3.89-4.12-4.92-6.93
				c-0.86-2.57-0.58-5.02,0.78-7.14c1.41-2.2,3.54-3.36,6.18-3.36h17.7c1.67-0.13,2.18-0.4,2.26-0.45
				c-0.01-0.01,0.12-0.29,0.12-1.06v-20.27h-61.04c4.71,3.4,8.88,6.75,12.44,10c2.1,1.78,3.19,4.13,3.19,6.95
				c0,3.17-1.14,5.84-3.38,7.91l-0.13,0.11c-2.18,1.71-4.56,2.58-7.09,2.58h-0.7c-2.81-0.16-5.33-1.26-7.5-3.27
				c-4.48-4.09-9.74-8.31-15.63-12.54c-2.64-1.98-3.96-4.62-3.96-7.88c0-1.4,0.3-2.69,0.88-3.86h-28.96c-2.62,0-4.94-0.99-6.88-2.93
				s-2.93-4.29-2.93-6.98c0-2.7,1-5.03,2.96-6.91c1.95-1.86,4.25-2.8,6.85-2.8h111.87v-7.13h-9.52c-5.21,0-9.73-1.87-13.43-5.57
				s-5.57-8.21-5.57-13.43v-7.81c0-5.21,1.87-9.73,5.57-13.43s8.21-5.57,13.43-5.57h42.19c5.21,0,9.73,1.87,13.43,5.57
				s5.57,8.21,5.57,13.43v7.81c0,5.21-1.87,9.73-5.57,13.43s-8.21,5.57-13.43,5.57h-10.3v7.13h30.42c2.6,0,4.91,0.94,6.85,2.8
				c1.97,1.89,2.96,4.21,2.96,6.91c0,2.69-0.99,5.04-2.93,6.98c-1.94,1.94-4.26,2.93-6.88,2.93h-30.42v20.85
				c0,5.05-0.71,8.9-2.17,11.75c-1.54,3-4.29,5.2-8.16,6.54c-4.92,1.78-13.44,2.71-26.02,2.84h-0.01h-0.23L1165.48,1063.47
				L1165.48,1063.47z M1208.79,978.22v-12.99h-36.23v12.99H1208.79z M1072,998.84c-2.24,0-4.29-0.8-6.08-2.37
				c-1.93-1.69-3.08-3.78-3.4-6.22l-0.01-0.13c-0.17-2.47,0.58-4.72,2.22-6.69c1.67-2,3.89-3.06,6.42-3.06
				c8.7-0.39,16.05-0.78,21.74-1.17c0.03,0,0.06-0.01,0.08-0.01c0-0.04,0.01-0.08,0.01-0.14v-13.04h-19.09
				c-2.37,0-4.42-0.85-6.1-2.54c-1.68-1.68-2.54-3.73-2.54-6.1c0-2.38,0.87-4.41,2.57-6.04c1.68-1.6,3.72-2.41,6.07-2.41h60.55
				c2.34,0,4.38,0.81,6.06,2.4c1.71,1.63,2.58,3.66,2.58,6.04c0,2.37-0.85,4.42-2.54,6.1c-1.68,1.68-3.74,2.54-6.1,2.54h-20.07
				v12.02c0.01,0,0.02-0.01,0.04-0.01s0.04,0,0.06,0c10.9-0.64,18.74-1.16,23.31-1.55c0.24-0.02,0.45-0.02,0.65-0.02
				c2.16,0,4.05,0.79,5.62,2.36c1.69,1.69,2.54,3.74,2.54,6.1c0,2.33-0.83,4.42-2.47,6.23c-1.65,1.82-3.68,2.83-6.03,2.99
				c-18.26,1.43-40.28,3.01-65.43,4.69C1072.43,998.84,1072.21,998.84,1072,998.84z M1088.14,944.33c-2.24,0-4.19-0.82-5.81-2.44
				c-1.62-1.61-2.44-3.6-2.44-5.9c0-2.3,0.82-4.29,2.44-5.91c1.62-1.62,3.58-2.44,5.81-2.44h106.01v-5.96H1094
				c-2.1,0-3.96-0.79-5.52-2.34c-1.56-1.55-2.34-3.48-2.34-5.71s0.79-4.16,2.34-5.71c1.55-1.56,3.41-2.34,5.52-2.34h100.15v-5.96
				h-105.04c-2.24,0-4.19-0.82-5.81-2.44c-1.62-1.61-2.44-3.57-2.44-5.81c0-2.23,0.82-4.19,2.44-5.81c1.62-1.62,3.58-2.44,5.81-2.44
				h108.2c5.21,0,9.73,1.87,13.43,5.57s5.57,8.21,5.57,13.43v23.24c0,5.21-1.87,9.73-5.57,13.43s-8.21,5.57-13.43,5.57h-109.17
				V944.33z"/>
		</g>
		<g>
			<path class="st4" d="M1331.59,1062.69c-2.95,0-5.49-1.05-7.57-3.13c-2.07-2.07-3.12-4.65-3.12-7.66V936.08
				c0-5.21,1.87-9.73,5.57-13.43s8.21-5.57,13.43-5.57h26.71v-29.64c0-3.16,1.13-5.84,3.35-7.98c2.2-2.12,4.83-3.2,7.83-3.2
				c3.01,0,5.62,1.08,7.76,3.22c2.14,2.14,3.22,4.82,3.22,7.96v29.64h28.66c5.21,0,9.73,1.87,13.43,5.57s5.57,8.21,5.57,13.43
				v114.45c0,2.99-1.04,5.6-3.1,7.73c-2.08,2.16-4.7,3.25-7.79,3.25c-3.08,0-5.72-1.08-7.86-3.22c-2.08-2.08-3.16-4.61-3.22-7.52
				h-72.17v1.13c0,3.01-1.05,5.59-3.12,7.66C1337.08,1061.64,1334.54,1062.69,1331.59,1062.69z M1414.46,1029.01v-34.67h-25.69
				v34.67H1414.46z M1366.6,1029.01v-34.67h-24.32v34.67H1366.6z M1414.46,972.37v-33.5h-25.69v33.5H1414.46z M1366.6,972.37v-33.5
				h-24.32v33.5H1366.6z M1279.35,1056.25c-2.36,0-4.58-0.71-6.61-2.11c-2.68-2.05-4.32-4.69-4.93-7.91
				c-0.15-0.75-0.23-1.54-0.23-2.33c0-2.46,0.7-4.79,2.07-6.94c7.11-11.25,14.64-24.54,22.37-39.49c1.5-2.66,3.66-4.24,6.44-4.75
				c0.66-0.16,1.33-0.24,1.97-0.24c2.16,0,4.16,0.74,5.95,2.21c2.3,2,3.83,4.51,4.58,7.51l0.03,0.1l0.01,0.11
				c0.14,1.03,0.21,1.95,0.21,2.82c0,1.98-0.46,3.97-1.36,5.92c-6.77,13.93-13.89,27.32-21.18,39.82c-1.58,2.84-4.08,4.56-7.4,5.06
				C1280.64,1056.17,1279.99,1056.25,1279.35,1056.25z M1295.17,968.46c-0.39,0-0.78-0.03-1.17-0.1c-2.1-0.03-4.09-0.58-5.89-1.64
				c-6.5-4.03-14.03-8.34-22.4-12.86c-2.42-1.29-3.99-3.25-4.67-5.83c-0.28-0.72-0.5-1.46-0.64-2.19l-0.04-0.19v-0.19
				c0-1.9,0.74-3.71,2.2-5.36c1.69-2.27,3.93-3.8,6.68-4.57c1.08-0.31,2.18-0.46,3.27-0.46c1.71,0,3.43,0.39,5.12,1.15
				c8.79,4.2,16.47,8.24,22.85,12.01c2.74,1.61,4.38,3.99,4.86,7.07c0.14,0.72,0.22,1.5,0.22,2.27c0,2.21-0.64,4.3-1.9,6.19
				c-1.77,2.57-4.19,4.1-7.21,4.58C1296.08,968.41,1295.62,968.46,1295.17,968.46z M1305.52,915.04c-2.36,0-4.52-0.71-6.41-2.11
				c-6.83-4.37-14.57-8.8-23.02-13.15c-2.5-1.33-4.09-3.42-4.74-6.21c-0.16-0.64-0.25-1.39-0.25-2.21c0-1.81,0.57-3.62,1.68-5.37
				l0.06-0.09l0.07-0.08c1.85-2.31,4.27-3.8,7.2-4.42l0.14-0.02c0.91-0.13,2.87-0.41,2.87-0.41h0.14c1.84,0,3.63,0.39,5.32,1.15
				c8.79,4.2,16.6,8.37,23.26,12.42c2.72,1.76,4.39,4.16,5.02,7.16l0.04,0.2v1.97c0,2.19-0.63,4.32-1.86,6.32l-0.05,0.08l-0.05,0.07
				c-1.88,2.5-4.35,4.01-7.34,4.49C1306.9,914.96,1306.17,915.04,1305.52,915.04z"/>
			<path class="st5" d="M1331.59,1062.69c-2.95,0-5.49-1.05-7.57-3.13c-2.07-2.07-3.12-4.65-3.12-7.66V936.08
				c0-5.21,1.87-9.73,5.57-13.43s8.21-5.57,13.43-5.57h26.71v-29.64c0-3.16,1.13-5.84,3.35-7.98c2.2-2.12,4.83-3.2,7.83-3.2
				c3.01,0,5.62,1.08,7.76,3.22c2.14,2.14,3.22,4.82,3.22,7.96v29.64h28.66c5.21,0,9.73,1.87,13.43,5.57s5.57,8.21,5.57,13.43
				v114.45c0,2.99-1.04,5.6-3.1,7.73c-2.08,2.16-4.7,3.25-7.79,3.25c-3.08,0-5.72-1.08-7.86-3.22c-2.08-2.08-3.16-4.61-3.22-7.52
				h-72.17v1.13c0,3.01-1.05,5.59-3.12,7.66C1337.08,1061.64,1334.54,1062.69,1331.59,1062.69z M1414.46,1029.01v-34.67h-25.69
				v34.67H1414.46z M1366.6,1029.01v-34.67h-24.32v34.67H1366.6z M1414.46,972.37v-33.5h-25.69v33.5H1414.46z M1366.6,972.37v-33.5
				h-24.32v33.5H1366.6z M1279.35,1056.25c-2.36,0-4.58-0.71-6.61-2.11c-2.68-2.05-4.32-4.69-4.93-7.91
				c-0.15-0.75-0.23-1.54-0.23-2.33c0-2.46,0.7-4.79,2.07-6.94c7.11-11.25,14.64-24.54,22.37-39.49c1.5-2.66,3.66-4.24,6.44-4.75
				c0.66-0.16,1.33-0.24,1.97-0.24c2.16,0,4.16,0.74,5.95,2.21c2.3,2,3.83,4.51,4.58,7.51l0.03,0.1l0.01,0.11
				c0.14,1.03,0.21,1.95,0.21,2.82c0,1.98-0.46,3.97-1.36,5.92c-6.77,13.93-13.89,27.32-21.18,39.82c-1.58,2.84-4.08,4.56-7.4,5.06
				C1280.64,1056.17,1279.99,1056.25,1279.35,1056.25z M1295.17,968.46c-0.39,0-0.78-0.03-1.17-0.1c-2.1-0.03-4.09-0.58-5.89-1.64
				c-6.5-4.03-14.03-8.34-22.4-12.86c-2.42-1.29-3.99-3.25-4.67-5.83c-0.28-0.72-0.5-1.46-0.64-2.19l-0.04-0.19v-0.19
				c0-1.9,0.74-3.71,2.2-5.36c1.69-2.27,3.93-3.8,6.68-4.57c1.08-0.31,2.18-0.46,3.27-0.46c1.71,0,3.43,0.39,5.12,1.15
				c8.79,4.2,16.47,8.24,22.85,12.01c2.74,1.61,4.38,3.99,4.86,7.07c0.14,0.72,0.22,1.5,0.22,2.27c0,2.21-0.64,4.3-1.9,6.19
				c-1.77,2.57-4.19,4.1-7.21,4.58C1296.08,968.41,1295.62,968.46,1295.17,968.46z M1305.52,915.04c-2.36,0-4.52-0.71-6.41-2.11
				c-6.83-4.37-14.57-8.8-23.02-13.15c-2.5-1.33-4.09-3.42-4.74-6.21c-0.16-0.64-0.25-1.39-0.25-2.21c0-1.81,0.57-3.62,1.68-5.37
				l0.06-0.09l0.07-0.08c1.85-2.31,4.27-3.8,7.2-4.42l0.14-0.02c0.91-0.13,2.87-0.41,2.87-0.41h0.14c1.84,0,3.63,0.39,5.32,1.15
				c8.79,4.2,16.6,8.37,23.26,12.42c2.72,1.76,4.39,4.16,5.02,7.16l0.04,0.2v1.97c0,2.19-0.63,4.32-1.86,6.32l-0.05,0.08l-0.05,0.07
				c-1.88,2.5-4.35,4.01-7.34,4.49C1306.9,914.96,1306.17,915.04,1305.52,915.04z"/>
		</g>
	</g>
</g>
<path class="st6" d="M581.15,1063.11h-74.22c-28.48,0-51.56-23.09-51.56-51.56v-74.22c0-28.48,23.09-51.56,51.56-51.56h74.22
	c28.48,0,51.56,23.09,51.56,51.56v74.22C632.71,1040.03,609.62,1063.11,581.15,1063.11z"/>
<polygon class="st7" points="573.15,1003.04 663.93,856.09 637.48,837.55 547.51,983.2 494.37,942.09 477.13,967.21 556.29,1028.45 
	557.72,1026.36 558.44,1026.86 567.93,1011.5 573.53,1003.33 "/>
</svg>
