<?xml version="1.0" encoding="utf-8"?>
<!-- Generator: Adobe Illustrator 23.0.5, SVG Export Plug-In . SVG Version: 6.00 Build 0)  -->
<svg version="1.1" id="圖層_1" xmlns="http://www.w3.org/2000/svg" xmlns:xlink="http://www.w3.org/1999/xlink" x="0px" y="0px"
	 viewBox="0 0 1920 1080" style="enable-background:new 0 0 1920 1080;" xml:space="preserve">
<style type="text/css">
	.st0{fill:#F4B54B;}
	.st1{fill:#9FA09C;}
	.st2{fill:#523D52;}
	.st3{fill:#B96922;}
	.st4{fill:#C29869;}
	.st5{fill:#704A48;}
	.st6{fill:#B1B4A1;}
	.st7{fill:#848889;}
	.st8{fill:#C48C3B;}
	.st9{fill:#BEA16E;}
	.st10{fill:#511C0A;}
	.st11{fill:#74391B;}
	.st12{fill:url(#SVGID_1_);}
	.st13{fill:#605A55;}
	.st14{fill:#F3C415;}
	.st15{fill:#F8D183;}
	.st16{fill:#857D75;}
	.st17{fill:#D4C9B6;}
	.st18{fill:#FCCB4F;}
	.st19{fill:#3B190C;}
	.st20{fill:#535655;}
	.st21{fill:#834F31;}
	.st22{fill:#FFFFFF;}
	.st23{fill:none;stroke:#663D28;stroke-width:2;stroke-miterlimit:10;}
	.st24{fill:#96873C;}
	.st25{fill:#A4A796;}
	.st26{fill:#654B4B;}
	.st27{fill:#4A3D50;}
	.st28{fill:#ACAF9F;}
	.st29{fill:#4C3E54;}
	.st30{fill:#FFFFFF;stroke:#000000;stroke-width:4;stroke-miterlimit:10;}
</style>
<path class="st0" d="M1900.26,815.97c0,64.59-225.04,114.23-478.24,170.08c-153.1,33.77-361.93,78.32-627.1,62.5
	c-319.41-19.05-717-125.51-713.66-221.3c3.44-98.73,431.75-157.24,525.75-170.08C1243.75,570.18,1900.26,705.66,1900.26,815.97z"/>
<g>
	<path class="st1" d="M318.8,980.93c-8.8-0.68-17.6-1.37-26.39-2.05c-1.52-3.22-5-11.7-3.17-22.54
		c2.14-12.67,10.13-20.3,12.67-22.54c2.99-3.2,9.21-8.97,19-12.3c14.22-4.84,26.58-1.33,30.62,0
		C340.62,941.32,329.71,961.13,318.8,980.93z"/>
	<path class="st2" d="M396.92,972.74c-25.69,2.73-51.38,5.46-77.07,8.2c10.56-19.81,21.11-39.62,31.67-59.43
		c6.11,2.14,17.27,6.96,27.45,17.42C391.72,952.02,395.62,966.45,396.92,972.74z"/>
</g>
<g>
	<g>
		<path class="st3" d="M432.98,932.89c10.16-4.27,21.62-5.56,32.52-3.68c5.81,1,11.42,2.88,17.01,4.75c2.38,0.8,5.08,1.9,5.8,4.24
			c0.99,3.19-2.49,6.1-5.82,6.89c-7.46,1.78-14.98-1.9-22.26-4.29c-6.67-2.18-13.7-3.32-20.73-3.35c-1.42-0.01-2.9,0.02-4.18-0.58
			c-1.28-0.6-2.27-2.05-1.79-3.35"/>
	</g>
	<g>
		<path class="st3" d="M403.48,921.57c7.58-2.36,16.64,1.1,20.52,7.85c0.25,0.43,0.48,0.9,0.42,1.39c-0.13,1.01-1.38,1.46-2.43,1.57
			c-4.92,0.52-9.71-1.5-14.22-3.48c-1.67-0.73-3.41-1.52-4.51-2.95s-1.27-3.69,0.13-4.84"/>
	</g>
	<g>
		<path class="st3" d="M420.7,982.89c9.59-0.69,19.37,1.35,27.81,5.82c-6.67,3.1-14.12,4.6-21.5,4.33c-3.4-0.13-7.2-0.86-9.11-3.6
			c-1.9-2.74,0.22-7.62,3.55-6.93"/>
	</g>
	<g>
		<path class="st3" d="M458.59,892c6.61-1.87,13.56-2.6,20.43-2.14c3.51,0.23,7.72,1.38,8.56,4.69c0.65,2.59-1.33,5.26-3.82,6.39
			c-2.49,1.13-5.35,1.09-8.1,1.04c-4.01-0.08-8.01-0.17-12.02-0.25c-3.09-0.06-6.98-0.69-7.77-3.6c-0.7-2.56,1.62-4.88,3.71-6.57"/>
	</g>
	<g>
		<path class="st3" d="M268.64,897.77c5.03-0.86,10.19-1.03,15.28-0.51c3.04,0.31,6.53,1.23,7.69,3.98
			c1.07,2.55-0.53,5.54-2.82,7.15c-3.56,2.5-8.46,2.55-12.63,1.19c-4.16-1.37-7.76-3.97-11.27-6.52c-0.41-0.3-0.85-0.66-0.88-1.15
			c-0.03-0.61,0.57-1.05,1.1-1.37c1.47-0.88,2.93-1.76,4.4-2.64"/>
	</g>
	<g>
		<path class="st3" d="M134.77,806.93c6.28-0.59,12.6-0.69,18.89-0.3c1.41,0.09,2.91,0.24,3.99,1.11c2.08,1.69,1.3,5.2-0.81,6.85
			c-2.11,1.64-4.99,1.93-7.69,2.15c-4.25,0.35-8.51,0.7-12.76,1.05c-1.67,0.14-3.48,0.25-4.9-0.63c-2.2-1.37-2.38-4.61-1.07-6.81
			s3.65-3.59,5.89-4.89"/>
	</g>
	<g>
		<path class="st3" d="M699.86,986.3c2.69-0.37,5.19-1.85,6.76-4.01c0.64-0.89,1.15-1.89,2.01-2.59c1.06-0.86,2.5-1.11,3.88-1.28
			c5.12-0.61,10.62-0.34,14.95,2.38c4.33,2.72,6.91,8.47,4.63,12.96c-1.65,3.22-5.38,5.07-9.06,5.43
			c-3.69,0.36-7.38-0.55-10.92-1.59c-4.35-1.28-8.85-2.93-11.71-6.36c-1.36-1.63-1.68-4.83,0.45-5.15"/>
	</g>
	<g>
		<path class="st3" d="M869.57,897.24c3.48-6.13,10.57-10.2,17.79-10.11s14.24,4.37,17.36,10.68c0.8,1.62,1.37,3.41,1.13,5.19
			c-0.7,5.2-7.29,7.24-12.67,7.73c-5.33,0.49-10.9,0.58-15.8-1.52c-4.9-2.1-8.92-6.9-8.45-12.07"/>
	</g>
</g>
<path class="st4" d="M659.79,1013.72c-19.35-1.71-38.71-3.42-58.06-5.12c-0.34-0.26-7.5-5.84-6.33-14.34
	c0.84-6.12,5.4-9.57,6.33-10.25c19.35,0,38.71,0,58.06,0c1.48,2.16,3.41,5.64,4.22,10.25
	C665.72,1003.92,661.22,1011.5,659.79,1013.72z"/>
<g>
	<path class="st5" d="M800.2,854.91c-28.15-0.68-56.3-1.37-84.46-2.05c-1.76-14.69-3.52-29.37-5.28-44.06
		c10.74-5.05,38.53-16.26,70.73-8.2c9.22,2.31,16.97,5.73,23.23,9.22c-1.87,7.15-3.53,15.78-4.22,25.61
		C799.7,842.6,799.8,849.14,800.2,854.91z"/>
	<path class="st6" d="M732.64,854.91c-20.96-2-37.36-6.47-48.56-10.25c-14.3-4.83-33.7-11.37-33.78-20.49
		c-0.04-4.59,4.83-8.05,9.5-11.27c15.71-10.83,33.99-11.08,44.34-10.25c2.69-3.04,18.86-20.71,45.4-21.52
		c34.33-1.05,53.84,27.11,54.9,28.69c-5.69-2.74-13.92-5.5-22.17-3.07c-10.48,3.08-13.98,12.48-26.39,26.64
		C750.87,839.09,743.33,846.82,732.64,854.91z"/>
</g>
<g>
	<path class="st7" d="M1803.17,314.19l-49.82-22.04c-4.06-1.8-5.46-5.81-3.12-8.92l3.55-4.71c2.34-3.11,7.58-4.19,11.64-2.39
		l49.82,22.04c4.06,1.8,5.46,5.81,3.12,8.92l-3.55,4.71C1812.47,314.91,1807.23,315.98,1803.17,314.19z"/>
	<g>
		<path class="st7" d="M1736.72,284.01c4.26-4.35,5.74-6.2,11.26-9.92c5.21-3.51,14.36-5.54,18.31-1.17
			c2.73,3.03,1.02,7.14-0.78,10.55c-8.05,15.31-16.1,30.62-24.15,45.93c-3.22,6.12-6.48,12.39-6.92,18.98
			c-0.44,6.59,2.44,13.69,9.41,17.57c9.24,5.14,22.84,2.98,31.65-2.6c8.81-5.57,13.95-13.76,18.82-21.67
			c7.44-12.08,14.87-24.16,22.31-36.23c2.05-3.33,4.92-7.12,9.7-7.45c4.4-0.31,8.23,2.77,9.18,6.08c0.95,3.31-0.23,6.73-1.49,9.98
			c-7.57,19.5-18.05,38.34-31.18,56.03c-5.17,6.96-10.99,13.95-19.65,18.44c-11.64,6.03-26.52,6.64-40.56,7.04
			c-7.79,0.22-17.66-0.6-20.08-6.27c-1.4-3.3,0.56-6.93-0.2-10.36c-0.79-3.57-4.35-6.33-6.95-9.35c-7.49-8.73-7.1-20.05-5.01-30.37
			c3.93-19.43,12.95-38.25,26.36-55.01"/>
	</g>
	<path class="st8" d="M1557.91,725.76l27.32,7.23c59.47-114.42,118.93-228.84,178.4-343.26c-13.26-3.66-26.52-7.31-39.78-10.97
		C1668.53,494.42,1613.22,610.09,1557.91,725.76z"/>
</g>
<path class="st7" d="M1521.1,686.97c-37.44,74.97-40.58,147.87-6.32,164.87c34.25,16.99,93.3-28.17,134-101.52L1521.1,686.97z"/>
<g>
	<path class="st0" d="M1459.83,755.88c6.38,16.11,25.5,24.01,43.21,25.48c17.72,1.47,35.65-1.7,53.29,0.46
		c18.63,2.28,36.4,10.67,49.76,23.47c8.07,7.74,14.5,16.96,22.66,24.61c8.16,7.65,18.79,13.83,30.11,13.22
		c-11.71,15.09-23.42,30.18-35.14,45.27c-5.6,7.22-12.01,14.95-21.13,16.74c-5.2,1.02-10.57-0.08-15.75-1.21
		c-47.39-10.36-94.1-23.67-139.74-39.81c-6.78-2.4-14.34-5.63-16.62-12.28c-1.61-4.69-0.07-9.79,1.48-14.5
		c8.5-25.82,17.39-51.53,26.65-77.1"/>
</g>
<g>
	<g>
		<path class="st9" d="M1453.76,306.96c-363.4,0.35-726.8,0.7-1090.2,1.05c40.38-31.55,80.76-63.1,121.13-94.65
			c285.34,1.75,570.67,3.5,856.01,5.26C1378.39,248.07,1416.07,277.51,1453.76,306.96z"/>
		<path class="st10" d="M1399.92,299.6c-327.51,1.05-655.02,2.1-982.53,3.16c26.92-28.39,53.84-56.79,80.76-85.18
			c276.36,1.75,552.73,3.5,829.09,5.26C1351.47,248.41,1375.69,274,1399.92,299.6z"/>
		<path class="st11" d="M1351.47,219.67c-294.31-1.75-588.62-3.5-882.93-5.26c-30.51-47.67-61.01-95.35-91.52-143.02
			c359.81,0,719.62,0,1079.43,0C1421.46,120.82,1386.46,170.24,1351.47,219.67z"/>
		
			<linearGradient id="SVGID_1_" gradientUnits="userSpaceOnUse" x1="920.4079" y1="-847.4927" x2="916.5175" y2="-1001.458" gradientTransform="matrix(1 0 0 1 0 1080)">
			<stop  offset="0" style="stop-color:#582712"/>
			<stop  offset="0.5753" style="stop-color:#2B120A"/>
			<stop  offset="0.8433" style="stop-color:#110603"/>
		</linearGradient>
		<path class="st12" d="M1305.71,189.17c-270.08,0.35-540.16,0.7-810.25,1.05c-17.05-34.35-34.1-68.71-51.15-103.06h944.84
			C1361.34,121.17,1333.52,155.17,1305.71,189.17z"/>
		<path class="st13" d="M377.02,71.39c18.85,0,37.69,0,56.53,0c5.38,8.41,10.77,16.83,16.15,25.24h-56.53
			C387.78,88.22,382.4,79.8,377.02,71.39z"/>
		<path class="st13" d="M1456.45,71.39c-18.85,0-37.69,0-56.53,0c-5.38,8.41-10.77,16.83-16.15,25.24h56.53
			C1445.68,88.22,1451.07,79.8,1456.45,71.39z"/>
		<g>
			<path class="st14" d="M475.1,299.63c-4.38-11.14,8.75-23.06,32.48-29.48c6.3-1.7,13.29-3.06,18.76-5.15
				c4.75-1.81,8.12-4.1,12.28-6.13c10.65-5.19,26.02-8.49,40.98-11.66c49.81-10.56,101.6-21.34,158.13-22.86
				c6.45-0.17,13.01-0.23,19.16-1c9.21-1.16,16.6-3.81,24.84-5.78c17.63-4.22,40.02-5.27,59.7-2.8c4.19,0.52,8.42,1.21,12.82,1.11
				c4.74-0.1,9-1.1,13.1-2.03c24.32-5.54,51.04-9.94,79.13-10.64c28.09-0.7,57.78,2.71,76.86,10.8c7.12,3.02,13.11,6.75,22.82,8.33
				c32.3,5.23,63.19-17.47,94.96-11.76c11.02,1.98,16.55,6.76,25.15,10.09c27.09,10.49,77.82,4.89,105.65,15.08
				c9.96,3.65,15.24,8.77,22.12,13.37c26.24,17.57,66.8,30.69,78.97,50.47c-303.44,3.17-598.43,7.61-901.77,3.16"/>
		</g>
		<g>
			<rect x="387.78" y="41.83" class="st15" width="1071.36" height="29.45"/>
			<rect x="377.02" y="39.73" class="st16" width="113.06" height="32.6"/>
			<rect x="1346.08" y="40.78" class="st16" width="113.06" height="32.6"/>
			<path class="st17" d="M1244.25,76.53h-22.44c-1.23,0-2.24-0.51-2.24-1.14V37.72c0-0.63,1.01-1.14,2.24-1.14h22.44
				c1.23,0,2.24,0.51,2.24,1.14v37.67C1246.49,76.02,1245.48,76.53,1244.25,76.53z"/>
			<path class="st18" d="M923.47,28.16h-13.46c-17.76,0-32.3,5.68-32.3,12.62v38.91c0,6.94,14.54,12.62,32.3,12.62h13.46
				c17.76,0,32.3-5.68,32.3-12.62V40.78C955.77,33.84,941.23,28.16,923.47,28.16z M936.93,51.29c0,4.62-9.69,8.41-21.53,8.41
				c-11.85,0-21.53-3.79-21.53-8.41v-8.41c0-4.62,9.69-8.41,21.53-8.41c11.85,0,21.53,3.79,21.53,8.41V51.29z"/>
			<ellipse class="st19" cx="915.39" cy="71.28" rx="16.15" ry="6.31"/>
			<path class="st17" d="M676.27,76.53h-22.44c-1.23,0-2.24-0.51-2.24-1.14V37.72c0-0.63,1.01-1.14,2.24-1.14h22.44
				c1.23,0,2.24,0.51,2.24,1.14v37.67C678.51,76.02,677.5,76.53,676.27,76.53z"/>
		</g>
	</g>
	<path class="st20" d="M503.54,763.04H280.11c25.12-33.27,50.25-66.54,75.37-99.8c28.71,0,57.43,0,86.14,0
		C462.26,696.51,482.9,729.77,503.54,763.04z"/>
	<path class="st20" d="M1504.91,753.54h-223.43c25.12-33.27,50.25-66.54,75.37-99.8c28.71,0,57.43,0,86.14,0
		C1463.63,687.01,1484.27,720.28,1504.91,753.54z"/>
	<rect x="390.48" y="356.72" class="st21" width="1044.44" height="346.92"/>
	<path class="st20" d="M1469.91,304.44c-42.17,0-84.35,0-126.52,0v2.64c-331.1,0.7-662.2,1.41-993.29,2.11c0,0.79,0,1.58,0,2.37
		c0,28.51,0,57.03,0,85.54v323.16h102.29V389.96c51.51-3.59,103.55-6.76,156.13-9.48c254.85-13.19,500.14-14.67,734.88-7.17v349.34
		h107.67c5.17-114.86,10.35-229.71,15.52-344.57c0.21,0.01,0.42,0.01,0.63,0.02c0.9-23.76,1.79-47.52,2.69-71.28
		c-0.03,0-0.07,0-0.11,0C1469.84,306.03,1469.88,305.24,1469.91,304.44z"/>
	<ellipse class="st22" cx="413.36" cy="405.43" rx="14.81" ry="13.07"/>
	<ellipse class="st22" cx="413.36" cy="519.48" rx="14.81" ry="13.07"/>
	<ellipse class="st22" cx="413.36" cy="654.93" rx="14.81" ry="13.07"/>
	<ellipse class="st22" cx="1379.73" cy="393.55" rx="14.81" ry="13.07"/>
	<ellipse class="st22" cx="1379.73" cy="507.6" rx="14.81" ry="13.07"/>
	<ellipse class="st22" cx="1379.73" cy="643.05" rx="14.81" ry="13.07"/>
	<path class="st22" d="M576.22,359.09H401.24c-1.48,0-2.69-1.39-2.69-3.1v-22.31c0-1.71,1.21-3.1,2.69-3.1h174.98
		c1.48,0,2.69,1.39,2.69,3.1v22.31C578.91,357.7,577.7,359.09,576.22,359.09z"/>
	<line class="st23" x1="452.39" y1="481.39" x2="1346.08" y2="481.39"/>
	<line class="st23" x1="452.39" y1="585.74" x2="1343.39" y2="585.74"/>
	<path class="st24" d="M1101.52,703.65c-70.49-0.82-140.97-1.36-211.45-1.62c-64.81-0.24-129.63-0.23-194.45,0
		c0.26-116.9,0.53-233.8,0.79-350.71c135.56-1,271.12-2.01,406.69-3.02C1102.58,466.75,1102.04,585.2,1101.52,703.65z"/>
</g>
<g>
	<path class="st25" d="M405.37,762.7c-83.75-1.71-167.51-3.42-251.26-5.12c2.32-5.48,6.26-13.65,12.67-22.54
		c15.84-21.97,27.73-21.95,44.34-42.01c17.84-21.54,11.27-30.19,25.34-37.91c14.42-7.92,24.23-0.44,45.4-10.25
		c13.06-6.05,13.93-11.04,22.17-14.34c11.85-4.76,32.29-3.39,69.68,26.64c8.12,3.76,18.22,10.03,26.39,20.49
		C427.16,712.34,406.76,759.59,405.37,762.7z"/>
	<path class="st26" d="M404.31,762.7c-36.95-0.68-73.9-1.37-110.85-2.05c0.35-5.93,1.55-14.27,5.28-23.57
		c4.93-12.29,12.07-20.75,16.89-25.61c9.22-5.53,22.51-11.38,38.01-10.25c17.43,1.27,26.88,10.58,35.89,6.15
		c5.05-2.48,10.34-9.45,10.56-29.71c4.73,7.31,16.39,27.58,13.72,54.3C412.48,745.34,407.99,755.86,404.31,762.7z"/>
</g>
<g>
	<path class="st26" d="M539.44,811.88c-9.69,3.27-23.42,6.71-40.12,7.17c-24.94,0.69-44.61-5.62-55.95-10.25
		c-10.91-23.22-21.82-46.45-32.73-69.67c46.8,4.78,93.61,9.56,140.41,14.34c4.54,6.26,10.71,15.91,15.84,28.69
		c4.86,12.12,7.6,19.22,4.22,24.59C566.77,813.67,553.8,815.27,539.44,811.88z"/>
	<path class="st6" d="M443.37,808.8c-9.44-7.62-23.1-16.87-41.17-23.57c-24.25-8.98-38.51-6.7-42.23-14.34
		c-3.56-7.32,3.22-22.33,44.34-55.33c10.94-5.26,21.03-7.92,29.56-9.22c60.38-9.24,109.19,38.99,117.18,47.13
		c-8.01-1-19.22-2.21-32.73-3.07c-19.52-1.25-23.65-0.48-27.45,1.02c-8.44,3.35-12.08,9.08-23.23,24.59
		C462.28,783.49,454.04,794.81,443.37,808.8z"/>
</g>
<g>
	<path class="st27" d="M1317.5,702.25c-10.9,9.42-27.71,21.93-50.67,31.76c-6.71,2.88-25.38,11.62-70.73,16.39
		c-23.48,2.47-54.67,4.85-91.85,5.12c-1.15-5.37-2.22-13.26-1.06-22.54c1.97-15.71,9.18-26.16,12.91-32.6
		c6.86-11.87,13.63-30.47,12.43-59.61c21.47-10.59,42.93-21.17,64.4-31.76C1234.46,640.09,1275.98,671.17,1317.5,702.25z"/>
	<path class="st28" d="M1104.25,755.52c-20.32-1.66-46.91-6.08-76.01-17.42c-14.63-5.7-27.3-12.14-38.01-18.44
		c3.61-3.78,9.59-9.55,17.95-15.37c15.24-10.62,21.38-9.56,29.56-18.44c7.97-8.66,5.66-13.49,13.72-25.61
		c7.04-10.59,15.76-17.38,22.17-21.52c17.41-13.64,33.73-21.78,45.4-26.64c18.48-7.7,35-14.33,54.9-10.25
		c8.29,1.7,14.74,4.76,19,7.17c-12.2,3.5-29.16,10.5-36.95,25.61c-9.13,17.73,3.5,28.82-5.28,48.16c-9.3,20.48-28.45,19-40.12,42.01
		C1104.67,736.44,1103.98,747.89,1104.25,755.52z"/>
</g>
<g>
	<path class="st29" d="M1433.63,765.77c-1.35,4.89-7.8,11.62-64.4,17.42c-29.24,3-53.62,3.87-70.73,4.1
		c-5.11-11.09-14.41-35.25-11.61-66.6c2.98-33.39,18.05-56.7,25.34-66.6c7.82,2.18,20.23,6.7,32.73,16.39
		c9.72,7.54,16.1,15.59,20.06,21.52c11.71,10.06,28.35,24.91,47.51,44.06C1431.04,754.56,1435.14,760.32,1433.63,765.77z"/>
	<path class="st28" d="M1298.5,787.29c-10.55-0.81-23.11-2.57-36.95-6.15c-16.63-4.3-30.45-10.03-41.17-15.37
		c3.21-13.85,8.59-31.26,17.95-50.21c8.85-17.92,18.78-32.23,27.45-43.03c4.17-4.32,13.25-12.5,27.45-16.39
		c7.51-2.06,14.17-2.29,19-2.05c3.08,7.47,5.95,18.08,1.06,26.64c-4.01,7.02-10.32,7.54-15.84,14.34
		c-6.74,8.33-6.25,18.59-5.28,31.76C1293.49,744.67,1295.47,764.93,1298.5,787.29z"/>
</g>
<g>
	<path class="st30" d="M652.21,957.7c0,1.94-0.91,4.49-2.74,7.65c-16.02,26.59-37.3,39.89-63.84,39.89
		c-27.16,0-49.18-12.93-66.06-38.79c-16.45-25.01-24.67-56.58-24.67-94.71c0-36.91,8.05-68.24,24.15-93.98
		c16.8-26.96,38.16-40.43,64.1-40.43c28.2,0,50.31,12.08,66.32,36.24c1.74,2.67,2.61,5.04,2.61,7.1c0,2.31-3.03,10.87-9.07,25.68
		c-6.05,14.82-9.86,23.13-11.42,24.95c-0.7,0.97-1.57,1.46-2.61,1.46c-0.44,0-2.61-2.43-6.53-7.29c-4.7-5.83-9.31-10.38-13.84-13.66
		c-6.88-4.85-14.01-7.29-21.41-7.29c-12.79,0-23.02,6.68-30.68,20.03c-7.05,12.38-10.58,27.68-10.58,45.9
		c0,18.46,3.52,33.94,10.58,46.44c7.66,13.6,17.89,20.4,30.68,20.4c7.57,0,14.75-2.3,21.54-6.92c4.44-3.03,8.96-7.29,13.58-12.75
		c3.83-4.61,5.96-6.92,6.4-6.92c0.87,0,1.74,0.67,2.61,2c1.39,2.19,5.18,9.77,11.36,22.77C649.03,948.96,652.21,956.37,652.21,957.7
		z"/>
	<path class="st30" d="M786.28,1001.96c-7.49,0-17.23-0.25-29.24-0.73c-15.67-0.49-25.42-0.79-29.24-0.91l-39.04-0.73
		c-3.92,0.12-9.53-0.12-16.84-0.73c-2.53-0.61-3.79-2.49-3.79-5.65c0-13.23,0.15-33.06,0.46-59.47c0.3-26.41,0.46-46.23,0.46-59.47
		c0-14.08-0.31-35.18-0.91-63.29c-0.61-28.11-0.91-49.2-0.91-63.29c0-2.67,1.31-4.01,3.92-4.01c2.61,0,6.51,0.18,11.68,0.55
		c5.18,0.36,9.03,0.55,11.55,0.55c2.87,0,7.14-0.21,12.79-0.64c5.66-0.42,9.92-0.64,12.79-0.64c1.31,0,1.91,1.16,1.83,3.46
		l-0.13,2.37c-1.04,22.83-2.22,57.13-3.52,102.9L718,900.33c0,15.54,0.04,26.9,0.13,34.06c0.08,1.46,0.17,2.91,0.26,4.37
		c0.09,1.46,0.74,2.37,1.96,2.73c0.09,0,1.22,0,3.39,0c7.83,0,19.56-0.58,35.18-1.73c15.62-1.15,27.35-1.73,35.18-1.73
		c2.35,0,3.53,1.4,3.53,4.19c0,20.76-1.09,38.67-3.26,53.73c-0.44,3.16-1.35,5.04-2.74,5.65
		C791.2,1001.84,789.42,1001.96,786.28,1001.96z"/>
	<path class="st30" d="M946.21,942.22c0,5.22-0.74,14.82-2.22,28.78c-1.57,15.18-2.96,24.22-4.18,27.14
		c-1.04,2.31-2.48,3.46-4.31,3.46c-0.78,0-2.09-0.18-3.92-0.55c-6.35-1.21-24.89-1.82-55.62-1.82c-6.7,0-16.67-0.06-29.9-0.18
		c-13.23-0.12-23.15-0.18-29.77-0.18c-2.87,0-4.31-1.76-4.31-5.28c0-13.6,0.54-34.03,1.63-61.29c1.09-27.26,1.63-47.69,1.63-61.29
		c0-13.84-0.52-39.64-1.57-77.41c-0.26-9.71-0.74-24.22-1.44-43.53l-0.13-2.55c-0.18-2.79,0.91-4.19,3.26-4.19
		c6.44,0,16.12,0.25,29.05,0.73c12.92,0.49,22.61,0.73,29.05,0.73c6.35,0,15.93-0.24,28.72-0.73c12.79-0.48,22.37-0.73,28.72-0.73
		c4.52,0,7.14,2.37,7.83,7.1c0.43,2.79,1.11,11.26,2.02,25.41c0.91,14.15,1.37,22.74,1.37,25.77c0,2.55-0.87,3.83-2.61,3.83
		c-0.52,0-1.44-0.06-2.74-0.18c-23.15-2.67-43.95-4.01-62.4-4.01c-4.61,0-7.44,1.52-8.49,4.55c-0.44,1.46-0.65,6.13-0.65,14.02
		c0,8.26,0.87,13.72,2.61,16.39c1.48,2.31,4.31,3.46,8.49,3.46c0.87,0,2.57-0.09,5.09-0.27c2.52-0.18,4.61-0.27,6.27-0.27
		c10.97,0,22.06-0.42,33.29-1.27c0.96-0.12,3.35-0.42,7.18-0.91c2.96-0.48,5.31-0.73,7.05-0.73c2.09,0,3.13,1.4,3.13,4.19
		c0-2.55-0.78,6.74-2.35,27.87c-0.7,9.72-1.04,19.43-1.04,29.14c0,2.43-1.26,3.64-3.79,3.64l-11.75-1.82
		c-4.96-0.73-16.28-1.09-33.94-1.09h-13.84c-3.57,0-5.66,1.22-6.27,3.64c-0.09,0.61-0.13,4.37-0.13,11.29
		c0,9.23,0.43,15.18,1.3,17.85c1.48,4.62,7.05,7.35,16.71,8.2c-0.17,0,6.18,0,19.06,0c4.61,0,11.47-0.57,20.56-1.73
		c9.09-1.15,15.91-1.73,20.43-1.73C945.25,935.67,946.21,937.85,946.21,942.22z"/>
	<path class="st30" d="M1135.77,994.31c0,2.19-1.09,3.71-3.26,4.55c-2.61,0.97-10.71,1.46-24.28,1.46
		c-12.45,0-20.45-0.49-24.02-1.46c-2.96-0.85-4.83-3.58-5.61-8.2c-2.96-17.49-5.27-26.83-6.92-28.05
		c-1.39-0.85-13.06-1.27-34.99-1.27c-14.8,0-22.67,0.55-23.63,1.64c-1.48,1.94-3.13,8.44-4.96,19.49c-1.65,10.08-3.66,15.54-6,16.39
		c-2.96,0.97-12.88,1.46-29.77,1.46c-13.32,0-19.97-1.76-19.97-5.28c0-3.16,9.83-41.95,29.5-116.38
		c21.32-80.5,32.9-124.76,34.73-132.77c1.04-4.61,2.26-6.92,3.66-6.92c2.35,0,5.98,0.3,10.9,0.91c4.92,0.61,8.59,0.91,11.03,0.91
		c2.35,0,5.81-0.21,10.38-0.64c4.57-0.42,7.98-0.64,10.25-0.64c1.65,0,3.18,2,4.57,6.01c4.26,12.75,16.71,56.46,37.34,131.13
		C1125.42,951.81,1135.77,991.03,1135.77,994.31z M1043.21,828.39c-1.83,5.34-4.92,16.94-9.27,34.79
		c-4.7,18.94-7.05,30.05-7.05,33.33c0,2.19,2.61,3.4,7.83,3.64c2.7,0.24,7.14,0.36,13.32,0.36c5.75,0,8.92-0.97,9.53-2.91
		c0.17-0.61,0.26-1.46,0.26-2.55c0-4.01-2-15.05-6.01-33.15C1047.91,844.42,1045.04,833.25,1043.21,828.39z"/>
	<path class="st30" d="M1304.71,997.04c0,0.85-0.87,1.46-2.61,1.82c-3.31,0.73-11.62,1.09-24.94,1.09c-11.4,0-19.15-0.36-23.24-1.09
		c-1.92-0.36-3-0.67-3.26-0.91c-0.52-0.36-1.13-1.58-1.83-3.64c-1.31-4.74-3.22-11.78-5.75-21.13c-3.39-12.14-8.7-30.05-15.93-53.73
		c-1.57-4.74-5.18-7.34-10.84-7.83c2.61,0.24-1.87,0.36-13.45,0.36c-1.31,0-1.96,3.1-1.96,9.29c0,8.26,0.54,20.58,1.63,36.97
		c1.09,16.39,1.63,28.72,1.63,36.97c0,2.07-0.39,3.28-1.17,3.64c-1.22,0.12-2.44,0.24-3.66,0.36c-5.14,0.48-13.14,0.73-24.02,0.73
		c-12.45,0-19.93-0.36-22.46-1.09c-2.53-0.73-3.79-2.61-3.79-5.65c0-13.36,0.46-33.51,1.37-60.47c0.91-26.96,1.37-47.17,1.37-60.65
		c0-51.36-0.83-91.43-2.48-120.21l-0.13-2.55c-0.09-2.06,1.28-3.46,4.11-4.19c2.83-0.73,16.12-1.46,39.88-2.19
		c16.1-0.48,28.94-0.73,38.51-0.73c19.84,0,36.03,6.25,48.57,18.76c14.19,14.09,21.28,34.42,21.28,61.01
		c0,17.73-1.83,31.87-5.48,42.44s-10.4,20.83-20.24,30.78c-2,1.94-3,3.77-3,5.46c0-0.12,5.31,15.12,15.93,45.72
		C1299.4,977.01,1304.71,993.89,1304.71,997.04z M1249.88,833.67c0-14.81-3.48-25.07-10.44-30.78c-5.4-4.37-13.84-6.56-25.33-6.56
		c-8.27,0-12.66,1.76-13.19,5.28c-0.52,4.13-0.78,16.03-0.78,35.7c0,2.79,0.04,6.92,0.13,12.39c0.09,5.46,0.13,9.53,0.13,12.2
		c0,0.61,1.39,1.22,4.18,1.82c5.31,1.09,10.88,1.64,16.71,1.64C1240.35,865.36,1249.88,854.8,1249.88,833.67z"/>
	<path class="st30" d="M1370.77,787.41c0,22.1-1.44,42.86-4.31,62.29c-3.48,19.92-6.92,39.77-10.31,59.56
		c-0.78,4.49-4.27,6.74-10.44,6.74c-7.05,0-10.97-1.94-11.75-5.83c-8.18-38.98-12.27-61.13-12.27-66.48
		c0-4.98,0.17-12.38,0.52-22.22c0.35-9.83,0.52-17.24,0.52-22.22c0-5.46-0.13-13.66-0.39-24.59c-0.26-10.93-0.39-19.12-0.39-24.59
		c0-4.49,0.78-6.74,2.35-6.74c2.44,0,6.09,0.25,10.97,0.73c4.87,0.49,8.53,0.73,10.97,0.73c2.44,0,6.09-0.24,10.97-0.73
		c4.87-0.48,8.53-0.73,10.97-0.73C1369.9,743.33,1370.77,758.03,1370.77,787.41z M1370.77,967.9c0,10.2-2.26,18.67-6.79,25.41
		c-4.53,6.74-10.44,10.11-17.75,10.11c-7.4,0-13.34-3.34-17.82-10.02c-4.48-6.68-6.72-15.18-6.72-25.5c0-10.2,2.26-18.58,6.79-25.13
		c4.52-6.56,10.44-9.83,17.75-9.83c7.22,0,13.12,3.28,17.69,9.83C1368.49,949.33,1370.77,957.7,1370.77,967.9z"/>
</g>
</svg>
