<?xml version="1.0" encoding="utf-8"?>
<!-- Generator: Adobe Illustrator 23.0.5, SVG Export Plug-In . SVG Version: 6.00 Build 0)  -->
<svg version="1.1" id="圖層_1" xmlns="http://www.w3.org/2000/svg" xmlns:xlink="http://www.w3.org/1999/xlink" x="0px" y="0px"
	 viewBox="0 0 1920 1080" style="enable-background:new 0 0 1920 1080;" xml:space="preserve">
<style type="text/css">
	.st0{fill:#FFFFFF;}
	.st1{fill:#C3752A;stroke:#000000;stroke-miterlimit:10;}
	.st2{fill:#898989;stroke:#000000;stroke-miterlimit:10;}
	.st3{fill:none;stroke:#000000;stroke-miterlimit:10;}
	.st4{fill:#F4E84D;stroke:#000000;stroke-miterlimit:10;}
	.st5{fill:none;stroke:#000000;stroke-width:2;stroke-miterlimit:10;}
	.st6{fill:#FFFFFF;stroke:#000000;stroke-width:6;stroke-miterlimit:10;}
	.st7{fill:#7FEF6C;}
</style>
<g>
	<g>
		<path class="st0" d="M1242.09,337.4c15.27-13.09,38.03-15.4,58.4-12.26c20.37,3.15,39.57,10.95,59.59,15.73
			c35.81,8.56,74.25,7.13,109.24-4.05c46.37-14.81,87.1-46.27,135.8-51.01c-14,75.01-24.56,150.58-31.64,226.44
			c-15.23,2.26-30.46,4.52-45.69,6.77c-16.68,2.47-33.52,4.99-49.22,10.84c-9.29,3.46-18.06,8.06-27.29,11.68
			c-30.76,12.07-66.38,12.67-97.57,1.64c-11.94-4.22-23.22-10.06-35.39-13.65c-24.07-7.08-49.96-4.93-75.05-2.5
			c-3.06,0.29-6.75,0.33-8.48-2.07c-0.82-1.13-0.97-2.56-1.07-3.92c-1.72-21.98,2.6-43.95,3.2-65.98
			c0.45-16.2-1.12-32.43-4.65-48.29c-2.83-12.7-6.95-25.35-6.55-38.32c0.4-12.97,6.43-26.78,18.76-32.53"/>
		<g>
			<path d="M1242.85,338.04c17.08-14.47,42.86-15.28,65.18-10.59c13.32,2.8,26.07,7.14,39.02,10.89
				c12.72,3.69,25.69,6.48,39.07,7.86c26.72,2.76,54.18,0.23,79.54-7.29c22.9-6.8,43.71-17.49,64.71-27.51
				c20.71-9.87,42.21-19.56,65.83-23.5c2.95-0.49,5.92-0.88,8.9-1.18c-0.35-0.38-0.69-0.76-1.05-1.14
				c-5.46,29.28-10.4,58.62-14.81,88.02c-4.42,29.45-8.31,58.96-11.67,88.51c-1.9,16.71-3.63,33.42-5.19,50.15
				c0.27-0.29,0.53-0.58,0.79-0.87c-19.91,2.95-39.91,5.66-59.75,8.94c-9.36,1.55-18.68,3.41-27.66,6.15
				c-9.14,2.78-17.59,6.71-26.15,10.53c-16.46,7.35-34,12.13-52.73,13c-18.17,0.84-36.56-1.81-53.28-7.81
				c-8.77-3.15-17.08-7.08-25.76-10.37c-8.61-3.25-17.55-5.59-26.91-6.78c-18.92-2.41-38.09-0.76-56.97,1.03
				c-1.77,0.17-3.62,0.37-5.39,0.04c-2.73-0.52-3.5-2.42-3.74-4.53c-0.45-4.08-0.47-8.23-0.44-12.33
				c0.05-8.52,0.74-17.02,1.52-25.51c1.54-17.04,2.91-34,1.42-51.09c-0.71-8.24-1.95-16.45-3.7-24.59
				c-1.77-8.26-4.17-16.44-5.62-24.75c-2.4-13.65-2.08-29.64,8.98-40.87c2.26-2.3,4.93-4.24,8.02-5.71c1.2-0.58,0.12-2.13-1.09-1.56
				c-13.48,6.44-18.77,20.61-19.28,32.84c-0.7,16.87,5.95,33.35,8.68,49.93c2.84,17.31,3.04,34.7,1.64,52.11
				c-0.71,8.71-1.65,17.42-2.22,26.14c-0.57,8.61-1.2,17.57,0.03,26.17c0.44,3.07,2.43,5.21,6.2,5.64
				c4.11,0.47,8.59-0.46,12.68-0.82c9.8-0.87,19.65-1.56,29.52-1.53c9.91,0.04,19.84,0.81,29.45,2.9c9.65,2.09,18.56,5.7,27.43,9.42
				c8.43,3.54,16.89,6.97,25.92,9.35c8.64,2.28,17.59,3.72,26.61,4.32c18.4,1.24,37.13-1.09,54.28-6.78
				c9.01-2.99,17.37-7.06,25.94-10.8c8.92-3.89,18.17-6.89,27.9-9.06c9.44-2.11,19.08-3.56,28.69-4.99
				c10.3-1.53,20.6-3.06,30.9-4.58c5.16-0.76,10.32-1.53,15.48-2.29c0.49-0.07,0.76-0.5,0.79-0.87c2.76-29.5,6.04-58.97,9.85-88.39
				c3.82-29.52,8.17-59,13.05-88.41c2.73-16.48,5.64-32.95,8.71-49.4c0.09-0.51-0.27-1.22-1.05-1.14
				c-23.76,2.37-45.61,10.92-66.33,20.47c-21.55,9.94-42.38,21.2-65.21,29.07c-25.21,8.69-52.69,12.39-79.9,10.59
				c-13.75-0.91-27.26-3.28-40.37-6.84c-13.28-3.6-26.19-8.13-39.62-11.35c-21.65-5.18-46.87-6.42-65.96,5.29
				c-2.28,1.4-4.41,2.95-6.39,4.62C1240.34,337.59,1241.87,338.87,1242.85,338.04L1242.85,338.04z"/>
		</g>
	</g>
	<path class="st1" d="M1243.15,887.05h-23.67V335.33c0.94-0.89,4.77-4.31,10.85-4.65c7.29-0.4,12.08,3.95,12.82,4.65
		C1243.15,519.24,1243.15,703.14,1243.15,887.05z"/>
	<g>
		<g>
			<path d="M1294.58,478.9c18.52,1.18,37.12-0.51,55.19-3.91c18.46-3.48,36.38-8.68,53.97-14.43c9.98-3.26,19.87-6.71,29.75-10.18
				c0.54-0.19,0.92-0.6,0.76-1.11c-0.14-0.43-0.79-0.82-1.33-0.63c-17.44,6.12-34.93,12.2-52.85,17.25
				c-17.67,4.98-35.84,9-54.42,10.7c-10.32,0.94-20.72,1.16-31.07,0.5C1293.19,477.01,1293.19,478.81,1294.58,478.9L1294.58,478.9z"
				/>
		</g>
	</g>
	<g>
		<g>
			<path d="M1338.14,492.71c14.75-1.25,29.26-4.19,43.06-8.71c3.94-1.29,7.82-2.71,11.64-4.25c1.26-0.51,0.16-2.06-1.09-1.56
				c-13.14,5.28-27.11,9.11-41.46,11.28c-4.03,0.61-8.07,1.09-12.14,1.43C1336.77,491.02,1336.76,492.83,1338.14,492.71
				L1338.14,492.71z"/>
		</g>
	</g>
</g>
<g>
	<g>
		<ellipse class="st2" cx="626.9" cy="610.44" rx="274.9" ry="249.74"/>
		<ellipse class="st1" cx="626.9" cy="610.44" rx="227.89" ry="201.96"/>
	</g>
	<line class="st3" x1="472.86" y1="461.61" x2="472.86" y2="759.26"/>
	<line class="st3" x1="783.62" y1="461.61" x2="783.62" y2="759.26"/>
	<line class="st3" x1="626.52" y1="408.91" x2="626.52" y2="811.97"/>
	<path class="st2" d="M736.53,433.35"/>
	<ellipse class="st2" cx="626.9" cy="610.44" rx="90.04" ry="81.8"/>
</g>
<g>
	<rect x="1001.78" y="707.24" class="st1" width="51.46" height="151.84"/>
	<ellipse class="st4" cx="1027.51" cy="874.72" rx="50.43" ry="26.05"/>
	<g>
		<g>
			<path d="M1003.55,754.48c7.35,0,14.7,0,22.06,0c1.7,0,1.7-2.31,0-2.31c-7.35,0-14.7,0-22.06,0
				C1001.84,752.17,1001.84,754.48,1003.55,754.48L1003.55,754.48z"/>
		</g>
	</g>
	<g>
		<g>
			<path d="M1003.55,778.79c7.35,0,14.7,0,22.06,0c1.7,0,1.7-2.31,0-2.31c-7.35,0-14.7,0-22.06,0
				C1001.84,776.48,1001.84,778.79,1003.55,778.79L1003.55,778.79z"/>
		</g>
	</g>
	<g>
		<g>
			<path d="M1003.55,803.1c7.35,0,14.7,0,22.06,0c1.7,0,1.7-2.31,0-2.31c-7.35,0-14.7,0-22.06,0
				C1001.84,800.79,1001.84,803.1,1003.55,803.1L1003.55,803.1z"/>
		</g>
	</g>
	<g>
		<g>
			<path d="M1003.55,827.42c7.35,0,14.7,0,22.06,0c1.7,0,1.7-2.31,0-2.31c-7.35,0-14.7,0-22.06,0
				C1001.84,825.11,1001.84,827.42,1003.55,827.42L1003.55,827.42z"/>
		</g>
	</g>
	<rect x="934.88" y="678.22" class="st4" width="187.32" height="29.77"/>
	<path class="st2" d="M1076.92,678.22h-98.81c0-171.69,0-343.37,0-515.07c16.47-10.42,32.93-20.84,49.4-31.26
		c16.47,10.42,32.93,20.84,49.4,31.26C1076.92,334.84,1076.92,506.53,1076.92,678.22z"/>
	<line class="st3" x1="1027.51" y1="678.22" x2="1027.51" y2="350.72"/>
</g>
<g>
	<g>
		<g>
			<path class="st0" d="M711.26,968.68c-3.03,0-5.62-1.09-7.69-3.25c-2.06-2.13-3.1-4.74-3.1-7.73v-75c0-5.21,1.87-9.73,5.57-13.43
				c3.69-3.69,8.21-5.57,13.43-5.57h36.33c5.22,0,9.73,1.87,13.43,5.57c3.69,3.69,5.57,8.21,5.57,13.43v43.75
				c0,4.88-0.6,8.62-1.83,11.44c-1.3,2.98-3.7,5.33-7.12,6.96c-4.11,1.85-11.15,2.8-21.54,2.93h-0.22c-2.93,0-5.58-0.94-7.89-2.78
				c-2.26-1.81-3.86-4.17-4.76-7.01l-0.03-0.12c-0.67-2.67-0.23-5.1,1.29-7.22c1.54-2.14,3.79-3.27,6.51-3.27h6.45
				c2.54,0,4.44-0.06,5.66-0.19l0.1-0.01h0.1c0.98,0,1.35-0.16,1.42-0.19c-0.01-0.02,0.1-0.28,0.1-0.93v-41.95h-30.77v73.59
				c0,3.01-1.08,5.62-3.22,7.76C716.89,967.61,714.28,968.68,711.26,968.68z M632.55,953.46c-2.87,0-5.37-1.01-7.44-3
				c-2.09-2.01-3.15-4.5-3.15-7.4v-60.35c0-5.21,1.87-9.73,5.57-13.43c3.69-3.69,8.21-5.57,13.43-5.57h29.3
				c5.22,0,9.73,1.87,13.43,5.57c3.69,3.69,5.57,8.21,5.57,13.43v35.16c0,5.21-1.87,9.73-5.57,13.43
				c-3.69,3.69-8.21,5.57-13.43,5.57h-27.3v6.2c0,2.88-1.02,5.36-3.03,7.37C637.91,952.43,635.43,953.46,632.55,953.46z
				 M668.44,916.64v-32.72h-25.49v32.72L668.44,916.64L668.44,916.64z M617.12,861.27c-1.23,0-2.41-0.16-3.48-0.47
				c-3.03-0.91-5.54-2.66-7.48-5.2c-1.32-1.8-1.97-3.78-1.97-5.9c0-0.82,0.09-1.57,0.26-2.25c0.64-2.89,2.31-5.06,4.95-6.38
				c13.5-6.68,26.53-14.79,38.74-24.12c12.19-9.3,22.33-18.82,30.14-28.3c4.69-5.54,10.46-8.34,17.17-8.34
				c6.79,0,12.73,2.64,17.66,7.85c9.5,10.28,20.67,19.98,33.2,28.84c12.53,8.87,25.46,16.3,38.43,22.07
				c2.91,1.3,4.79,3.61,5.44,6.69c0.16,0.82,0.24,1.6,0.24,2.37c0,2.12-0.65,4.09-1.94,5.86c-1.93,2.82-4.6,4.73-7.93,5.64
				c-1.23,0.31-2.44,0.46-3.65,0.46c-1.98,0-3.97-0.46-5.92-1.36l-0.1-0.05c-10.58-5.66-21.07-11.98-31.2-18.82
				c-0.45,3.09-1.83,5.81-4.14,8.11c-2.85,2.85-6.35,4.3-10.4,4.3h-55.08c-4.05,0-7.58-1.48-10.5-4.39
				c-2.34-2.34-3.75-5.07-4.22-8.15c-10.42,7.44-21.44,14.2-32.8,20.13C620.85,860.79,619.01,861.27,617.12,861.27z M727.92,831.48
				c-12.95-9.83-23.53-19.34-31.49-28.33c-7.82,9.31-17.86,18.82-29.88,28.33H727.92z"/>
			<path class="st5" d="M711.26,968.68c-3.03,0-5.62-1.09-7.69-3.25c-2.06-2.13-3.1-4.74-3.1-7.73v-75c0-5.21,1.87-9.73,5.57-13.43
				c3.69-3.69,8.21-5.57,13.43-5.57h36.33c5.22,0,9.73,1.87,13.43,5.57c3.69,3.69,5.57,8.21,5.57,13.43v43.75
				c0,4.88-0.6,8.62-1.83,11.44c-1.3,2.98-3.7,5.33-7.12,6.96c-4.11,1.85-11.15,2.8-21.54,2.93h-0.22c-2.93,0-5.58-0.94-7.89-2.78
				c-2.26-1.81-3.86-4.17-4.76-7.01l-0.03-0.12c-0.67-2.67-0.23-5.1,1.29-7.22c1.54-2.14,3.79-3.27,6.51-3.27h6.45
				c2.54,0,4.44-0.06,5.66-0.19l0.1-0.01h0.1c0.98,0,1.35-0.16,1.42-0.19c-0.01-0.02,0.1-0.28,0.1-0.93v-41.95h-30.77v73.59
				c0,3.01-1.08,5.62-3.22,7.76C716.89,967.61,714.28,968.68,711.26,968.68z M632.55,953.46c-2.87,0-5.37-1.01-7.44-3
				c-2.09-2.01-3.15-4.5-3.15-7.4v-60.35c0-5.21,1.87-9.73,5.57-13.43c3.69-3.69,8.21-5.57,13.43-5.57h29.3
				c5.22,0,9.73,1.87,13.43,5.57c3.69,3.69,5.57,8.21,5.57,13.43v35.16c0,5.21-1.87,9.73-5.57,13.43
				c-3.69,3.69-8.21,5.57-13.43,5.57h-27.3v6.2c0,2.88-1.02,5.36-3.03,7.37C637.91,952.43,635.43,953.46,632.55,953.46z
				 M668.44,916.64v-32.72h-25.49v32.72L668.44,916.64L668.44,916.64z M617.12,861.27c-1.23,0-2.41-0.16-3.48-0.47
				c-3.03-0.91-5.54-2.66-7.48-5.2c-1.32-1.8-1.97-3.78-1.97-5.9c0-0.82,0.09-1.57,0.26-2.25c0.64-2.89,2.31-5.06,4.95-6.38
				c13.5-6.68,26.53-14.79,38.74-24.12c12.19-9.3,22.33-18.82,30.14-28.3c4.69-5.54,10.46-8.34,17.17-8.34
				c6.79,0,12.73,2.64,17.66,7.85c9.5,10.28,20.67,19.98,33.2,28.84c12.53,8.87,25.46,16.3,38.43,22.07
				c2.91,1.3,4.79,3.61,5.44,6.69c0.16,0.82,0.24,1.6,0.24,2.37c0,2.12-0.65,4.09-1.94,5.86c-1.93,2.82-4.6,4.73-7.93,5.64
				c-1.23,0.31-2.44,0.46-3.65,0.46c-1.98,0-3.97-0.46-5.92-1.36l-0.1-0.05c-10.58-5.66-21.07-11.98-31.2-18.82
				c-0.45,3.09-1.83,5.81-4.14,8.11c-2.85,2.85-6.35,4.3-10.4,4.3h-55.08c-4.05,0-7.58-1.48-10.5-4.39
				c-2.34-2.34-3.75-5.07-4.22-8.15c-10.42,7.44-21.44,14.2-32.8,20.13C620.85,860.79,619.01,861.27,617.12,861.27z M727.92,831.48
				c-12.95-9.83-23.53-19.34-31.49-28.33c-7.82,9.31-17.86,18.82-29.88,28.33H727.92z"/>
		</g>
		<g>
			<path class="st0" d="M927.67,965.16c-11.69,0-22.69-0.2-32.7-0.59c-12.4-0.4-23.14-2.38-31.92-5.9
				c-8.79-3.53-16.29-8.95-22.31-16.11c-5.36,5.1-11.4,10.67-17.98,16.62c-1.81,1.64-3.97,2.47-6.42,2.47
				c-0.67,0-1.36-0.08-2.04-0.25c-3.12-0.62-5.49-2.35-6.95-5.11l-0.05-0.1c-0.9-1.95-1.36-4.01-1.36-6.11
				c0-1.21,0.15-2.42,0.45-3.61c0.91-3.34,2.74-6.01,5.45-7.97c5.5-4.09,10.96-8.45,16.21-12.93c0.5-0.52,0.73-1.11,0.73-1.86
				v-44.29h-13.43c-2.89,0-5.4-1.05-7.47-3.13c-2.07-2.07-3.12-4.58-3.12-7.47c0-2.88,1.05-5.39,3.12-7.47
				c2.07-2.07,4.59-3.13,7.47-3.13h16.21c5.22,0,9.73,1.87,13.43,5.57c3.69,3.69,5.57,8.21,5.57,13.43v45.12
				c0,0.87,0.25,1.62,0.77,2.31c7.84,11.45,22.62,17.66,43.99,18.54c9.68,0.52,20.16,0.78,31.17,0.78c16.46,0,34.43-0.52,53.41-1.56
				c0.18-0.01,0.36-0.02,0.54-0.02c2.65,0,4.82,1.17,6.28,3.39c1.15,1.51,1.73,3.15,1.73,4.87c0,0.86-0.17,1.8-0.49,2.78
				c-1.02,3.21-2.82,5.87-5.34,7.87c-2.57,2.04-5.48,3.07-8.67,3.07C957.34,964.9,941.74,965.16,927.67,965.16z M920.93,942.32
				c-3.09,0-5.75-1.13-7.89-3.35c-2.12-2.2-3.2-4.83-3.2-7.83v-5.23h-45.65c-2.49,0-4.65-0.89-6.39-2.64
				c-1.75-1.75-2.64-3.9-2.64-6.39s0.89-4.65,2.64-6.39c1.75-1.75,3.9-2.64,6.39-2.64h45.66v-5.77h-22.8
				c-5.22,0-9.73-1.87-13.43-5.57c-3.69-3.69-5.57-8.21-5.57-13.43v-23.24c0-5.21,1.87-9.73,5.57-13.43
				c3.69-3.69,8.21-5.57,13.43-5.57h22.8v-5.96h-38.63c-2.37,0-4.42-0.85-6.1-2.54c-1.68-1.68-2.54-3.77-2.54-6.2
				s0.85-4.51,2.54-6.2c1.15-1.15,2.48-1.92,3.96-2.28c-0.29,0.02-0.58,0.03-0.88,0.03c-2.84,0-5.26-1.03-7.21-3.06
				c-1.92-2-2.9-4.41-2.9-7.15v-5.08c0-4.18,1.48-7.78,4.39-10.69c2.92-2.92,6.51-4.39,10.69-4.39h97.07
				c4.18,0,7.78,1.48,10.69,4.39c2.92,2.92,4.39,6.51,4.39,10.69v4.69c0,2.87-1.01,5.37-3,7.44c-2.01,2.09-4.53,3.15-7.5,3.15
				c-2.95,0-5.5-1.05-7.57-3.13c-2.07-2.07-3.12-4.58-3.12-7.47v-2.1h-85.65v2.49c0,2.75-1.02,5.17-3.03,7.18
				c-1.41,1.41-3.04,2.33-4.86,2.76c0.2-0.01,0.41-0.02,0.61-0.02h38.63v-1.32c0-3.01,1.08-5.62,3.22-7.76
				c2.14-2.14,4.78-3.22,7.86-3.22c3.08,0,5.72,1.08,7.86,3.22c2.14,2.14,3.22,4.75,3.22,7.76v1.32h39.21c2.49,0,4.61,0.85,6.3,2.54
				s2.54,3.78,2.54,6.2c0,2.43-0.85,4.52-2.54,6.2c-1.68,1.68-3.8,2.54-6.3,2.54h-39.21v5.96h24.17c5.22,0,9.73,1.87,13.43,5.57
				c3.69,3.69,5.57,8.21,5.57,13.43v23.24c0,5.21-1.87,9.73-5.57,13.43c-3.69,3.69-8.21,5.57-13.43,5.57h-24.17v5.77h47.41
				c2.49,0,4.65,0.89,6.39,2.64c1.75,1.75,2.64,3.9,2.64,6.39s-0.89,4.65-2.64,6.39c-1.75,1.75-3.9,2.64-6.39,2.64h-47.41v5.23
				c0,3-1.08,5.64-3.2,7.83C926.68,941.2,924.02,942.32,920.93,942.32z M954.57,886.16v-7.33h-22.56v7.33H954.57z M909.85,886.16
				v-7.33h-21.78v7.33H909.85z M954.57,863.71v-6.74h-22.56v6.74H954.57z M909.85,863.71v-6.74h-21.78v6.74H909.85z M841.34,829.42
				c-0.66,0-1.32-0.08-1.96-0.23c-2.96-0.49-5.4-1.99-7.25-4.47c-4.95-6.22-11.19-12.78-18.5-19.45c-2.1-1.77-3.19-4.06-3.19-6.75
				c0-2.96,1.29-5.48,3.75-7.28c2.3-1.68,4.93-2.54,7.82-2.54h0.39c3.08,0,5.82,1.02,8.15,3.03c7.72,6.54,14.23,12.93,19.36,18.97
				c1.63,2.12,2.43,4.44,2.43,6.96v1.5l-0.02,0.13c-0.47,3.42-2.06,6.12-4.73,8C845.71,828.71,843.6,829.42,841.34,829.42z"/>
			<path class="st5" d="M927.67,965.16c-11.69,0-22.69-0.2-32.7-0.59c-12.4-0.4-23.14-2.38-31.92-5.9
				c-8.79-3.53-16.29-8.95-22.31-16.11c-5.36,5.1-11.4,10.67-17.98,16.62c-1.81,1.64-3.97,2.47-6.42,2.47
				c-0.67,0-1.36-0.08-2.04-0.25c-3.12-0.62-5.49-2.35-6.95-5.11l-0.05-0.1c-0.9-1.95-1.36-4.01-1.36-6.11
				c0-1.21,0.15-2.42,0.45-3.61c0.91-3.34,2.74-6.01,5.45-7.97c5.5-4.09,10.96-8.45,16.21-12.93c0.5-0.52,0.73-1.11,0.73-1.86
				v-44.29h-13.43c-2.89,0-5.4-1.05-7.47-3.13c-2.07-2.07-3.12-4.58-3.12-7.47c0-2.88,1.05-5.39,3.12-7.47
				c2.07-2.07,4.59-3.13,7.47-3.13h16.21c5.22,0,9.73,1.87,13.43,5.57c3.69,3.69,5.57,8.21,5.57,13.43v45.12
				c0,0.87,0.25,1.62,0.77,2.31c7.84,11.45,22.62,17.66,43.99,18.54c9.68,0.52,20.16,0.78,31.17,0.78c16.46,0,34.43-0.52,53.41-1.56
				c0.18-0.01,0.36-0.02,0.54-0.02c2.65,0,4.82,1.17,6.28,3.39c1.15,1.51,1.73,3.15,1.73,4.87c0,0.86-0.17,1.8-0.49,2.78
				c-1.02,3.21-2.82,5.87-5.34,7.87c-2.57,2.04-5.48,3.07-8.67,3.07C957.34,964.9,941.74,965.16,927.67,965.16z M920.93,942.32
				c-3.09,0-5.75-1.13-7.89-3.35c-2.12-2.2-3.2-4.83-3.2-7.83v-5.23h-45.65c-2.49,0-4.65-0.89-6.39-2.64
				c-1.75-1.75-2.64-3.9-2.64-6.39s0.89-4.65,2.64-6.39c1.75-1.75,3.9-2.64,6.39-2.64h45.66v-5.77h-22.8
				c-5.22,0-9.73-1.87-13.43-5.57c-3.69-3.69-5.57-8.21-5.57-13.43v-23.24c0-5.21,1.87-9.73,5.57-13.43
				c3.69-3.69,8.21-5.57,13.43-5.57h22.8v-5.96h-38.63c-2.37,0-4.42-0.85-6.1-2.54c-1.68-1.68-2.54-3.77-2.54-6.2
				s0.85-4.51,2.54-6.2c1.15-1.15,2.48-1.92,3.96-2.28c-0.29,0.02-0.58,0.03-0.88,0.03c-2.84,0-5.26-1.03-7.21-3.06
				c-1.92-2-2.9-4.41-2.9-7.15v-5.08c0-4.18,1.48-7.78,4.39-10.69c2.92-2.92,6.51-4.39,10.69-4.39h97.07
				c4.18,0,7.78,1.48,10.69,4.39c2.92,2.92,4.39,6.51,4.39,10.69v4.69c0,2.87-1.01,5.37-3,7.44c-2.01,2.09-4.53,3.15-7.5,3.15
				c-2.95,0-5.5-1.05-7.57-3.13c-2.07-2.07-3.12-4.58-3.12-7.47v-2.1h-85.65v2.49c0,2.75-1.02,5.17-3.03,7.18
				c-1.41,1.41-3.04,2.33-4.86,2.76c0.2-0.01,0.41-0.02,0.61-0.02h38.63v-1.32c0-3.01,1.08-5.62,3.22-7.76
				c2.14-2.14,4.78-3.22,7.86-3.22c3.08,0,5.72,1.08,7.86,3.22c2.14,2.14,3.22,4.75,3.22,7.76v1.32h39.21c2.49,0,4.61,0.85,6.3,2.54
				s2.54,3.78,2.54,6.2c0,2.43-0.85,4.52-2.54,6.2c-1.68,1.68-3.8,2.54-6.3,2.54h-39.21v5.96h24.17c5.22,0,9.73,1.87,13.43,5.57
				c3.69,3.69,5.57,8.21,5.57,13.43v23.24c0,5.21-1.87,9.73-5.57,13.43c-3.69,3.69-8.21,5.57-13.43,5.57h-24.17v5.77h47.41
				c2.49,0,4.65,0.89,6.39,2.64c1.75,1.75,2.64,3.9,2.64,6.39s-0.89,4.65-2.64,6.39c-1.75,1.75-3.9,2.64-6.39,2.64h-47.41v5.23
				c0,3-1.08,5.64-3.2,7.83C926.68,941.2,924.02,942.32,920.93,942.32z M954.57,886.16v-7.33h-22.56v7.33H954.57z M909.85,886.16
				v-7.33h-21.78v7.33H909.85z M954.57,863.71v-6.74h-22.56v6.74H954.57z M909.85,863.71v-6.74h-21.78v6.74H909.85z M841.34,829.42
				c-0.66,0-1.32-0.08-1.96-0.23c-2.96-0.49-5.4-1.99-7.25-4.47c-4.95-6.22-11.19-12.78-18.5-19.45c-2.1-1.77-3.19-4.06-3.19-6.75
				c0-2.96,1.29-5.48,3.75-7.28c2.3-1.68,4.93-2.54,7.82-2.54h0.39c3.08,0,5.82,1.02,8.15,3.03c7.72,6.54,14.23,12.93,19.36,18.97
				c1.63,2.12,2.43,4.44,2.43,6.96v1.5l-0.02,0.13c-0.47,3.42-2.06,6.12-4.73,8C845.71,828.71,843.6,829.42,841.34,829.42z"/>
		</g>
		<g>
			<path class="st0" d="M1172.59,968.29c-5.42-0.15-10.12-2.44-14-6.83c-3.67-4.15-6.79-9.79-9.27-16.77
				c-2.44-6.85-4.48-15.82-6.05-26.65c-1.56-10.75-2.75-22.4-3.53-34.63c-0.78-12.27-1.44-26.75-1.96-43.03c0-0.01,0-0.01,0-0.02
				h-49.95c-2.9,0-5.39-1.06-7.4-3.15c-1.99-2.06-3-4.57-3-7.44s1.01-5.37,3-7.44c2.01-2.09,4.5-3.15,7.4-3.15h49.56
				c-0.26-13.72-0.39-23.04-0.39-27.69c0-3.02,1.09-5.61,3.25-7.69c2.14-2.06,4.71-3.1,7.64-3.1s5.5,1.04,7.64,3.1
				c2.16,2.08,3.25,4.67,3.25,7.69l-0.2,10.97c0,5.61,0.06,11.25,0.19,16.71h19.88c2.88,0,5.39,1.05,7.47,3.12
				c2.08,2.08,3.13,4.59,3.13,7.47c0,2.88-1.05,5.4-3.13,7.47c-2.07,2.07-4.58,3.13-7.47,3.13h-19.68
				c0.51,20.6,1.43,38.65,2.73,53.59c1.29,14.87,3.04,26.75,5.22,35.33c2.83,10.28,5.45,11.79,6.45,11.95
				c0.44-0.49,1.99-2.99,3.1-14.77c0.18-2.42,1.54-4.25,3.83-5.1c0.78-0.29,1.57-0.44,2.34-0.44c1.4,0,2.72,0.48,3.91,1.44
				c2.44,1.87,4.29,4.16,5.46,6.8l0.04,0.1c0.74,1.92,1.11,3.87,1.11,5.79c0,0.87-0.07,1.77-0.22,2.67
				c-4.04,20.6-10.56,30.58-19.94,30.58L1172.59,968.29L1172.59,968.29z M1021.61,965.76c-2.77,0-5.13-1-7.01-2.96
				c-1.86-1.94-2.8-4.24-2.8-6.85v-42.38c0-5.35,1.88-9.91,5.58-13.54c3.69-3.62,8.21-5.46,13.41-5.46h23.44
				c5.21,0,9.72,1.83,13.41,5.45c3.7,3.63,5.58,8.19,5.58,13.54v24.8c0,5.21-1.87,9.73-5.57,13.43c-3.7,3.7-8.21,5.57-13.43,5.57
				h-22.88c-0.25,2.11-1.18,3.98-2.76,5.57c-1.88,1.88-4.17,2.83-6.79,2.83L1021.61,965.76L1021.61,965.76z M1053.4,938.32v-24.91
				h-21.98v24.91H1053.4z M1086.85,954.23c-2.07,0-4.01-0.56-5.76-1.68c-2.54-1.58-4.15-3.85-4.79-6.73
				c-0.16-0.81-0.24-1.6-0.24-2.38c0-1.94,0.57-3.81,1.68-5.57c1.63-2.46,3.92-3.93,6.83-4.42c3.34-0.51,7.53-1.23,12.47-2.14
				c0.04-0.01,0.08-0.03,0.1-0.04c-0.01-0.01,0.02-0.12,0.02-0.34v-49.56h-9.13c-2.75,0-5.13-0.99-7.08-2.93
				c-1.94-1.94-2.93-4.29-2.93-6.98c0-2.71,1.03-5.07,3.06-7.01c2-1.92,4.34-2.9,6.95-2.9h38.67c2.62,0,4.94,0.99,6.88,2.93
				c1.94,1.94,2.93,4.29,2.93,6.98s-0.99,5.04-2.93,6.98c-1.94,1.94-4.26,2.93-6.88,2.93h-8.35v45.75l13.03-2.64
				c0.63-0.12,1.22-0.17,1.79-0.17c1.98,0,3.78,0.66,5.35,1.96c2.28,1.79,3.46,4.23,3.46,7.2c0,2.39-0.73,4.56-2.16,6.47
				c-1.55,2.18-3.65,3.62-6.19,4.26c-17.98,4.04-32.9,7.33-44.4,9.78C1088.4,954.16,1087.61,954.23,1086.85,954.23z M1021.22,886.07
				c-2.5,0-4.68-0.92-6.49-2.74c-1.81-1.81-2.73-4.03-2.73-6.59s0.92-4.78,2.73-6.59c1.82-1.81,4-2.73,6.49-2.73h43.16
				c2.49,0,4.67,0.92,6.49,2.73c1.82,1.82,2.74,4.04,2.74,6.59c0,2.56-0.92,4.78-2.73,6.59c-1.81,1.81-4,2.73-6.49,2.73h-43.17
				V886.07z M1021.22,859.32c-2.5,0-4.68-0.92-6.49-2.74c-1.81-1.81-2.73-3.99-2.73-6.49c0-2.49,0.92-4.68,2.73-6.49
				c1.82-1.81,4-2.73,6.49-2.73h43.16c2.49,0,4.67,0.92,6.49,2.73c1.82,1.82,2.74,4,2.74,6.49c0,2.5-0.92,4.68-2.73,6.49
				c-1.81,1.81-4,2.73-6.49,2.73h-43.17V859.32z M1012.63,832.55c-2.64,0-4.9-0.96-6.72-2.87c-1.79-1.87-2.7-4.11-2.7-6.65
				c0-2.56,0.92-4.78,2.73-6.59c1.82-1.81,4.07-2.73,6.69-2.73h56.25c2.49,0,4.67,0.92,6.49,2.73c1.82,1.82,2.74,4.04,2.74,6.59
				c0,2.54-0.91,4.78-2.7,6.66c-1.82,1.9-4.01,2.86-6.52,2.86L1012.63,832.55L1012.63,832.55z M1179.45,815.97
				c-0.87,0-1.75-0.13-2.63-0.38c-2.49-0.72-4.48-2.22-5.91-4.45c-2.8-4.2-6.12-8.68-9.84-13.3c-1.54-1.88-2.08-4.15-1.57-6.56
				c0.52-2.4,1.9-4.23,3.99-5.28c1.66-0.89,3.45-1.35,5.26-1.35c0.68,0,1.37,0.06,2.06,0.19c2.51,0.47,4.65,1.66,6.38,3.54
				c3.94,4.34,7.48,8.74,10.52,13.1c1.54,2.4,1.88,4.94,1.05,7.6c-0.65,2.28-2.17,4.15-4.51,5.52
				C1182.71,815.51,1181.09,815.97,1179.45,815.97z M1022,805.79c-2.48,0-4.65-0.88-6.46-2.6c-1.84-1.75-2.77-3.95-2.77-6.52
				c0-2.56,0.92-4.78,2.73-6.59c1.82-1.81,4-2.73,6.49-2.73h41.02c2.62,0,4.87,0.92,6.69,2.73c1.82,1.82,2.74,4.04,2.74,6.59
				c0,2.58-0.93,4.77-2.77,6.52c-1.81,1.73-4.05,2.6-6.65,2.6H1022z"/>
			<path class="st5" d="M1172.59,968.29c-5.42-0.15-10.12-2.44-14-6.83c-3.67-4.15-6.79-9.79-9.27-16.77
				c-2.44-6.85-4.48-15.82-6.05-26.65c-1.56-10.75-2.75-22.4-3.53-34.63c-0.78-12.27-1.44-26.75-1.96-43.03c0-0.01,0-0.01,0-0.02
				h-49.95c-2.9,0-5.39-1.06-7.4-3.15c-1.99-2.06-3-4.57-3-7.44s1.01-5.37,3-7.44c2.01-2.09,4.5-3.15,7.4-3.15h49.56
				c-0.26-13.72-0.39-23.04-0.39-27.69c0-3.02,1.09-5.61,3.25-7.69c2.14-2.06,4.71-3.1,7.64-3.1s5.5,1.04,7.64,3.1
				c2.16,2.08,3.25,4.67,3.25,7.69l-0.2,10.97c0,5.61,0.06,11.25,0.19,16.71h19.88c2.88,0,5.39,1.05,7.47,3.12
				c2.08,2.08,3.13,4.59,3.13,7.47c0,2.88-1.05,5.4-3.13,7.47c-2.07,2.07-4.58,3.13-7.47,3.13h-19.68
				c0.51,20.6,1.43,38.65,2.73,53.59c1.29,14.87,3.04,26.75,5.22,35.33c2.83,10.28,5.45,11.79,6.45,11.95
				c0.44-0.49,1.99-2.99,3.1-14.77c0.18-2.42,1.54-4.25,3.83-5.1c0.78-0.29,1.57-0.44,2.34-0.44c1.4,0,2.72,0.48,3.91,1.44
				c2.44,1.87,4.29,4.16,5.46,6.8l0.04,0.1c0.74,1.92,1.11,3.87,1.11,5.79c0,0.87-0.07,1.77-0.22,2.67
				c-4.04,20.6-10.56,30.58-19.94,30.58L1172.59,968.29L1172.59,968.29z M1021.61,965.76c-2.77,0-5.13-1-7.01-2.96
				c-1.86-1.94-2.8-4.24-2.8-6.85v-42.38c0-5.35,1.88-9.91,5.58-13.54c3.69-3.62,8.21-5.46,13.41-5.46h23.44
				c5.21,0,9.72,1.83,13.41,5.45c3.7,3.63,5.58,8.19,5.58,13.54v24.8c0,5.21-1.87,9.73-5.57,13.43c-3.7,3.7-8.21,5.57-13.43,5.57
				h-22.88c-0.25,2.11-1.18,3.98-2.76,5.57c-1.88,1.88-4.17,2.83-6.79,2.83L1021.61,965.76L1021.61,965.76z M1053.4,938.32v-24.91
				h-21.98v24.91H1053.4z M1086.85,954.23c-2.07,0-4.01-0.56-5.76-1.68c-2.54-1.58-4.15-3.85-4.79-6.73
				c-0.16-0.81-0.24-1.6-0.24-2.38c0-1.94,0.57-3.81,1.68-5.57c1.63-2.46,3.92-3.93,6.83-4.42c3.34-0.51,7.53-1.23,12.47-2.14
				c0.04-0.01,0.08-0.03,0.1-0.04c-0.01-0.01,0.02-0.12,0.02-0.34v-49.56h-9.13c-2.75,0-5.13-0.99-7.08-2.93
				c-1.94-1.94-2.93-4.29-2.93-6.98c0-2.71,1.03-5.07,3.06-7.01c2-1.92,4.34-2.9,6.95-2.9h38.67c2.62,0,4.94,0.99,6.88,2.93
				c1.94,1.94,2.93,4.29,2.93,6.98s-0.99,5.04-2.93,6.98c-1.94,1.94-4.26,2.93-6.88,2.93h-8.35v45.75l13.03-2.64
				c0.63-0.12,1.22-0.17,1.79-0.17c1.98,0,3.78,0.66,5.35,1.96c2.28,1.79,3.46,4.23,3.46,7.2c0,2.39-0.73,4.56-2.16,6.47
				c-1.55,2.18-3.65,3.62-6.19,4.26c-17.98,4.04-32.9,7.33-44.4,9.78C1088.4,954.16,1087.61,954.23,1086.85,954.23z M1021.22,886.07
				c-2.5,0-4.68-0.92-6.49-2.74c-1.81-1.81-2.73-4.03-2.73-6.59s0.92-4.78,2.73-6.59c1.82-1.81,4-2.73,6.49-2.73h43.16
				c2.49,0,4.67,0.92,6.49,2.73c1.82,1.82,2.74,4.04,2.74,6.59c0,2.56-0.92,4.78-2.73,6.59c-1.81,1.81-4,2.73-6.49,2.73h-43.17
				V886.07z M1021.22,859.32c-2.5,0-4.68-0.92-6.49-2.74c-1.81-1.81-2.73-3.99-2.73-6.49c0-2.49,0.92-4.68,2.73-6.49
				c1.82-1.81,4-2.73,6.49-2.73h43.16c2.49,0,4.67,0.92,6.49,2.73c1.82,1.82,2.74,4,2.74,6.49c0,2.5-0.92,4.68-2.73,6.49
				c-1.81,1.81-4,2.73-6.49,2.73h-43.17V859.32z M1012.63,832.55c-2.64,0-4.9-0.96-6.72-2.87c-1.79-1.87-2.7-4.11-2.7-6.65
				c0-2.56,0.92-4.78,2.73-6.59c1.82-1.81,4.07-2.73,6.69-2.73h56.25c2.49,0,4.67,0.92,6.49,2.73c1.82,1.82,2.74,4.04,2.74,6.59
				c0,2.54-0.91,4.78-2.7,6.66c-1.82,1.9-4.01,2.86-6.52,2.86L1012.63,832.55L1012.63,832.55z M1179.45,815.97
				c-0.87,0-1.75-0.13-2.63-0.38c-2.49-0.72-4.48-2.22-5.91-4.45c-2.8-4.2-6.12-8.68-9.84-13.3c-1.54-1.88-2.08-4.15-1.57-6.56
				c0.52-2.4,1.9-4.23,3.99-5.28c1.66-0.89,3.45-1.35,5.26-1.35c0.68,0,1.37,0.06,2.06,0.19c2.51,0.47,4.65,1.66,6.38,3.54
				c3.94,4.34,7.48,8.74,10.52,13.1c1.54,2.4,1.88,4.94,1.05,7.6c-0.65,2.28-2.17,4.15-4.51,5.52
				C1182.71,815.51,1181.09,815.97,1179.45,815.97z M1022,805.79c-2.48,0-4.65-0.88-6.46-2.6c-1.84-1.75-2.77-3.95-2.77-6.52
				c0-2.56,0.92-4.78,2.73-6.59c1.82-1.81,4-2.73,6.49-2.73h41.02c2.62,0,4.87,0.92,6.69,2.73c1.82,1.82,2.74,4.04,2.74,6.59
				c0,2.58-0.93,4.77-2.77,6.52c-1.81,1.73-4.05,2.6-6.65,2.6H1022z"/>
		</g>
		<g>
			<path class="st0" d="M1330.5,968.29c-2.95,0-5.53-1.08-7.66-3.22c-2.14-2.14-3.22-4.75-3.22-7.76v-33.08
				c-9.56,13.08-20.63,24.35-32.94,33.52c-2.08,1.44-4.31,2.15-6.66,2.15h-1.76l-0.19-0.04c-3.04-0.61-5.59-2.08-7.57-4.36
				c-1.61-1.77-2.44-3.93-2.44-6.39v-1.14l0.03-0.16c0.48-2.88,1.87-5.15,4.13-6.77c14.43-9.33,27.04-21.23,37.57-35.43h-11.8
				c-5.21,0-9.73-1.87-13.43-5.57s-5.57-8.21-5.57-13.43v-33.98c0-5.21,1.87-9.73,5.57-13.43s8.21-5.57,13.43-5.57h21.63v-12.41
				h-36.48c-1.32,0-2.55-0.22-3.69-0.65c0.65,0.8,1.2,1.72,1.63,2.77c0.5,1.33,0.74,2.55,0.74,3.69c0,1.46-0.33,2.86-0.97,4.16
				c-5.42,12.41-8.8,20.02-10.36,23.26c-1.53,3.36-4.05,5.57-7.47,6.52c-1.35,0.45-2.73,0.67-4.1,0.67c-1.27,0-2.58-0.22-3.9-0.64
				c-0.3,12.52-1.08,23.37-2.32,32.32l-0.02,0.12c-0.15,0.74,0.06,0.99,0.32,1.21l0.07,0.06l0.07,0.07
				c4.09,4.23,11.27,12.07,21.34,23.3c2.02,2.18,3.05,4.8,3.05,7.78c0,3.14-1.12,5.85-3.32,8.06c-1.94,1.94-4.19,2.93-6.69,2.93
				h-0.89l-0.11-0.01c-2.93-0.32-5.24-1.65-6.88-3.95c-3.44-4.62-7.48-9.81-12-15.4c-4.81,16.65-12.8,31.27-23.75,43.5
				c-1.84,2-4.11,3.01-6.76,3.01h-0.7l-0.11-0.01c-2.82-0.32-5.21-1.51-7.11-3.56c-2.16-2.32-3.27-5.08-3.27-8.19
				c0-2.66,0.87-5.12,2.58-7.29c5.52-6.42,10.09-13.37,13.64-20.73c3.55-7.37,6.2-15.32,7.85-23.64c1.67-8.43,2.81-16.34,3.39-23.5
				c0.58-7.2,0.87-15.63,0.87-25.04v-58.4c0-2.88,1.02-5.36,3.03-7.37s4.49-3.03,7.37-3.03s5.36,1.02,7.37,3.03s3.03,4.49,3.03,7.37
				v53.08c2.63-6.92,5.18-14.49,7.61-22.6c0.8-2.72,2.44-4.77,4.88-6.07l0.13-0.07c1.43-0.63,2.88-0.95,4.33-0.95
				c1.15,0,2.3,0.24,3.43,0.71c-1.53-1.76-2.31-3.88-2.31-6.33c0-2.75,0.99-5.13,2.93-7.08c1.94-1.94,4.33-2.93,7.08-2.93h36.48
				v-9.72c0-3.01,1.08-5.62,3.22-7.76s4.75-3.22,7.76-3.22c3.02,0,5.64,1.13,7.79,3.35c2.12,2.2,3.2,4.77,3.2,7.64v9.72h37.45
				c2.75,0,5.13,0.99,7.08,2.93c1.94,1.94,2.93,4.33,2.93,7.08c0,2.77-1,5.13-2.96,7.01c-1.94,1.86-4.31,2.8-7.05,2.8h-37.45v12.41
				h24.56c5.21,0,9.73,1.87,13.43,5.57s5.57,8.21,5.57,13.43v33.98c0,5.21-1.87,9.73-5.57,13.43s-8.21,5.57-13.43,5.57h-15.17
				c9.52,13.48,20.86,25.15,33.74,34.67c2.58,1.94,3.94,4.65,3.94,7.86c0,2.6-0.9,4.83-2.68,6.64c-1.97,2.25-4.43,3.57-7.31,3.92
				c-0.53,0.15-1.06,0.23-1.58,0.23c-2.55,0-4.82-0.81-6.75-2.42c-10.44-9.12-20.16-20.27-28.95-33.2v34c0,3.01-1.08,5.62-3.22,7.76
				C1336.03,967.22,1333.45,968.29,1330.5,968.29z M1365.12,887.15v-35.06h-25.88v35.06H1365.12z M1321.96,887.15v-35.06h-23.73
				v35.06H1321.96z M1348.13,884.7c-1.02,0-2.03-0.26-2.99-0.79c-1.6-0.73-2.78-1.98-3.41-3.61c-0.67-1.71-0.54-3.44,0.39-4.99
				c2.3-4.98,4.43-10.03,6.35-15.01c0.67-2.01,2.01-3.53,3.97-4.42c1.02-0.46,2.04-0.69,3.06-0.69c0.93,0,1.86,0.19,2.75,0.58
				c1.83,0.78,3.19,2.14,4.06,4.03c0.9,1.98,0.82,4.13-0.23,6.22c-4.21,8.14-6.69,12.93-7.83,15.08l-0.07,0.13
				c-0.89,1.42-2.18,2.45-3.84,3.06C1349.6,884.55,1348.86,884.7,1348.13,884.7z M1312.51,884.52c-1.23,0-2.42-0.33-3.52-0.97
				c-1.71-0.99-2.82-2.55-3.2-4.52c-1.27-4.93-2.94-9.95-4.97-14.91c-0.74-1.84-0.68-3.69,0.16-5.36c0.85-1.7,2.23-2.81,3.99-3.21
				c0.62-0.17,1.33-0.27,2.03-0.27c1.18,0,2.34,0.27,3.46,0.8c1.83,0.88,3.12,2.22,3.83,3.99c2.22,5.37,4.02,10.43,5.34,15.04
				c0.54,1.97,0.31,3.85-0.66,5.61c-0.98,1.79-2.48,2.97-4.45,3.51C1313.85,884.42,1313.17,884.52,1312.51,884.52z M1213.57,877.89
				c-1.37,0-2.69-0.33-3.93-0.98c-2.18-0.88-3.76-2.63-4.58-5.09c-0.33-0.97-0.49-1.91-0.49-2.78c0-1.35,0.33-2.63,0.98-3.81
				c3.64-8.71,5.94-20.4,6.83-34.74c0.02-2.4,1.03-4.45,2.93-5.91c1.64-1.26,3.45-1.9,5.39-1.9c0.22,0,0.45,0.01,0.67,0.03
				l0.12,0.01c2.47,0.33,4.52,1.5,6.09,3.47c1.52,1.92,2.29,4.05,2.29,6.32c-0.79,16.28-3.48,29.72-7.98,40.06
				c-1.01,2.35-2.79,3.98-5.3,4.81C1215.57,877.72,1214.56,877.89,1213.57,877.89z"/>
			<path class="st5" d="M1330.5,968.29c-2.95,0-5.53-1.08-7.66-3.22c-2.14-2.14-3.22-4.75-3.22-7.76v-33.08
				c-9.56,13.08-20.63,24.35-32.94,33.52c-2.08,1.44-4.31,2.15-6.66,2.15h-1.76l-0.19-0.04c-3.04-0.61-5.59-2.08-7.57-4.36
				c-1.61-1.77-2.44-3.93-2.44-6.39v-1.14l0.03-0.16c0.48-2.88,1.87-5.15,4.13-6.77c14.43-9.33,27.04-21.23,37.57-35.43h-11.8
				c-5.21,0-9.73-1.87-13.43-5.57s-5.57-8.21-5.57-13.43v-33.98c0-5.21,1.87-9.73,5.57-13.43s8.21-5.57,13.43-5.57h21.63v-12.41
				h-36.48c-1.32,0-2.55-0.22-3.69-0.65c0.65,0.8,1.2,1.72,1.63,2.77c0.5,1.33,0.74,2.55,0.74,3.69c0,1.46-0.33,2.86-0.97,4.16
				c-5.42,12.41-8.8,20.02-10.36,23.26c-1.53,3.36-4.05,5.57-7.47,6.52c-1.35,0.45-2.73,0.67-4.1,0.67c-1.27,0-2.58-0.22-3.9-0.64
				c-0.3,12.52-1.08,23.37-2.32,32.32l-0.02,0.12c-0.15,0.74,0.06,0.99,0.32,1.21l0.07,0.06l0.07,0.07
				c4.09,4.23,11.27,12.07,21.34,23.3c2.02,2.18,3.05,4.8,3.05,7.78c0,3.14-1.12,5.85-3.32,8.06c-1.94,1.94-4.19,2.93-6.69,2.93
				h-0.89l-0.11-0.01c-2.93-0.32-5.24-1.65-6.88-3.95c-3.44-4.62-7.48-9.81-12-15.4c-4.81,16.65-12.8,31.27-23.75,43.5
				c-1.84,2-4.11,3.01-6.76,3.01h-0.7l-0.11-0.01c-2.82-0.32-5.21-1.51-7.11-3.56c-2.16-2.32-3.27-5.08-3.27-8.19
				c0-2.66,0.87-5.12,2.58-7.29c5.52-6.42,10.09-13.37,13.64-20.73c3.55-7.37,6.2-15.32,7.85-23.64c1.67-8.43,2.81-16.34,3.39-23.5
				c0.58-7.2,0.87-15.63,0.87-25.04v-58.4c0-2.88,1.02-5.36,3.03-7.37s4.49-3.03,7.37-3.03s5.36,1.02,7.37,3.03s3.03,4.49,3.03,7.37
				v53.08c2.63-6.92,5.18-14.49,7.61-22.6c0.8-2.72,2.44-4.77,4.88-6.07l0.13-0.07c1.43-0.63,2.88-0.95,4.33-0.95
				c1.15,0,2.3,0.24,3.43,0.71c-1.53-1.76-2.31-3.88-2.31-6.33c0-2.75,0.99-5.13,2.93-7.08c1.94-1.94,4.33-2.93,7.08-2.93h36.48
				v-9.72c0-3.01,1.08-5.62,3.22-7.76s4.75-3.22,7.76-3.22c3.02,0,5.64,1.13,7.79,3.35c2.12,2.2,3.2,4.77,3.2,7.64v9.72h37.45
				c2.75,0,5.13,0.99,7.08,2.93c1.94,1.94,2.93,4.33,2.93,7.08c0,2.77-1,5.13-2.96,7.01c-1.94,1.86-4.31,2.8-7.05,2.8h-37.45v12.41
				h24.56c5.21,0,9.73,1.87,13.43,5.57s5.57,8.21,5.57,13.43v33.98c0,5.21-1.87,9.73-5.57,13.43s-8.21,5.57-13.43,5.57h-15.17
				c9.52,13.48,20.86,25.15,33.74,34.67c2.58,1.94,3.94,4.65,3.94,7.86c0,2.6-0.9,4.83-2.68,6.64c-1.97,2.25-4.43,3.57-7.31,3.92
				c-0.53,0.15-1.06,0.23-1.58,0.23c-2.55,0-4.82-0.81-6.75-2.42c-10.44-9.12-20.16-20.27-28.95-33.2v34c0,3.01-1.08,5.62-3.22,7.76
				C1336.03,967.22,1333.45,968.29,1330.5,968.29z M1365.12,887.15v-35.06h-25.88v35.06H1365.12z M1321.96,887.15v-35.06h-23.73
				v35.06H1321.96z M1348.13,884.7c-1.02,0-2.03-0.26-2.99-0.79c-1.6-0.73-2.78-1.98-3.41-3.61c-0.67-1.71-0.54-3.44,0.39-4.99
				c2.3-4.98,4.43-10.03,6.35-15.01c0.67-2.01,2.01-3.53,3.97-4.42c1.02-0.46,2.04-0.69,3.06-0.69c0.93,0,1.86,0.19,2.75,0.58
				c1.83,0.78,3.19,2.14,4.06,4.03c0.9,1.98,0.82,4.13-0.23,6.22c-4.21,8.14-6.69,12.93-7.83,15.08l-0.07,0.13
				c-0.89,1.42-2.18,2.45-3.84,3.06C1349.6,884.55,1348.86,884.7,1348.13,884.7z M1312.51,884.52c-1.23,0-2.42-0.33-3.52-0.97
				c-1.71-0.99-2.82-2.55-3.2-4.52c-1.27-4.93-2.94-9.95-4.97-14.91c-0.74-1.84-0.68-3.69,0.16-5.36c0.85-1.7,2.23-2.81,3.99-3.21
				c0.62-0.17,1.33-0.27,2.03-0.27c1.18,0,2.34,0.27,3.46,0.8c1.83,0.88,3.12,2.22,3.83,3.99c2.22,5.37,4.02,10.43,5.34,15.04
				c0.54,1.97,0.31,3.85-0.66,5.61c-0.98,1.79-2.48,2.97-4.45,3.51C1313.85,884.42,1313.17,884.52,1312.51,884.52z M1213.57,877.89
				c-1.37,0-2.69-0.33-3.93-0.98c-2.18-0.88-3.76-2.63-4.58-5.09c-0.33-0.97-0.49-1.91-0.49-2.78c0-1.35,0.33-2.63,0.98-3.81
				c3.64-8.71,5.94-20.4,6.83-34.74c0.02-2.4,1.03-4.45,2.93-5.91c1.64-1.26,3.45-1.9,5.39-1.9c0.22,0,0.45,0.01,0.67,0.03
				l0.12,0.01c2.47,0.33,4.52,1.5,6.09,3.47c1.52,1.92,2.29,4.05,2.29,6.32c-0.79,16.28-3.48,29.72-7.98,40.06
				c-1.01,2.35-2.79,3.98-5.3,4.81C1215.57,877.72,1214.56,877.89,1213.57,877.89z"/>
		</g>
	</g>
</g>
<path class="st6" d="M535.16,971.15h-74.22c-28.48,0-51.56-23.09-51.56-51.56v-74.22c0-28.48,23.09-51.56,51.56-51.56h74.22
	c28.48,0,51.56,23.09,51.56,51.56v74.22C586.73,948.07,563.64,971.15,535.16,971.15z"/>
<polygon class="st7" points="531.19,902.59 621.96,755.64 595.51,737.11 505.55,882.76 452.4,841.65 435.16,866.76 514.33,928 
	515.76,925.92 516.47,926.42 525.96,911.06 531.57,902.89 "/>
</svg>
