<?xml version="1.0" encoding="utf-8"?>
<!-- Generator: Adobe Illustrator 23.0.5, SVG Export Plug-In . SVG Version: 6.00 Build 0)  -->
<svg version="1.1" id="圖層_1" xmlns="http://www.w3.org/2000/svg" xmlns:xlink="http://www.w3.org/1999/xlink" x="0px" y="0px"
	 viewBox="0 0 1920 1080" style="enable-background:new 0 0 1920 1080;" xml:space="preserve">
<style type="text/css">
	.st0{fill:#87593A;}
	.st1{fill:#7F8E92;}
	.st2{fill:#F9B622;}
	.st3{fill:#DDEFF4;}
	.st4{fill:#788C8E;}
	.st5{fill:#474143;}
	.st6{fill:#C21824;}
	.st7{fill:#280811;}
	.st8{fill:#A1A9AC;}
	.st9{fill:#26080B;}
	.st10{fill:#889398;}
	.st11{fill:#2C0A0E;}
	.st12{fill:#FDFDFD;}
	.st13{fill:url(#SVGID_1_);}
	.st14{fill:#2A0914;}
	.st15{fill:#FDFBFC;}
	.st16{fill:#290C14;}
	.st17{fill:#2B0C14;}
	.st18{fill:#FCFCFC;}
	.st19{fill:#280E14;}
	.st20{fill:#FFFFFF;}
	.st21{fill:#EEF8FB;}
	.st22{fill:#FAFBFA;}
	.st23{fill:#FFFFFF;stroke:#000000;stroke-width:4;stroke-miterlimit:10;}
</style>
<g>
	<g>
		<path class="st0" d="M691.75,332.52c65.02,202.81,98.86,416.28,150.8,623.78c0.71,2.86,1.6,5.98,3.84,7.57
			c1.72,1.23,3.89,1.28,5.93,1.3c14.05,0.09,28.09,0.19,42.13,0.28c1.47,0.01,3.08-0.04,4.18-1.13c1.23-1.22,1.35-3.29,1.33-5.13
			c-0.2-17.31-5.69-33.92-11.24-50.06c-23.61-68.71-49.7-136.57-67.46-207.47c-14.41-57.53-23.21-116.59-34.37-175.02
			c-15.99-83.74-36.85-166.29-62.4-246.99c-13.12,4.12-25.67,10.49-37.08,18.83c-3.42,2.49-6.92,5.43-8.31,9.73
			c-4.19,12.93,12.62,22.37,15.27,35.8"/>
	</g>
	<g>
		<path class="st1" d="M616.4,173.92c1.81-4.61,8.19-3.99,11.54-0.65c3.37,3.34,5.17,8.32,8.5,11.7c3.92,3.99,9.43,5.28,14.68,6.06
			c22.22,3.31,45.43,0.14,65.58-10.87c20.15-11.01,37.01-30.12,45.03-53.57c13.69,60.59,27.37,121.19,41.06,181.78
			c-13.74-12.11-32.28-16.11-49.6-13.47c-17.31,2.64-33.51,11.43-47.86,22.6c-22.42,17.45-40.82,40.69-56.96,65.37
			c-27.08-56.56-32.68-122.49-37.77-186.42c-0.47-5.84-0.91-11.84,0.61-17.45c1.53-5.6,5.54-10.77,10.73-11.46"/>
	</g>
	<g>
		<path class="st2" d="M879.95,633.08c-21.21-16.8-48.48-34.23-71.46-20.66c-14.65,8.65-21.92,27.22-27.98,44.49
			c-35.09,99.95-65.37,202.01-90.64,305.6c215.43,6.47,431.02,6.4,646.45-0.22c-3.87-45.78-16.39-90.01-28.83-133.84
			c-8.19-28.87-16.39-57.74-24.58-86.61c-4.84-17.07-9.74-34.25-17.3-50.03c-21.12-44.05-62.54-73.67-106.49-82.28
			c-17.11-3.35-36.12-3.33-50.2,8.09c-5.03,4.07-9.15,9.39-14.12,13.53c-8.13,6.77-18.1,10.07-27.87,13.09
			c-31.18,9.67-63.05,18-95.4,17.92s-65.52-9.21-91.07-31.44"/>
	</g>
	<g>
		<path class="st3" d="M882.34,716.94c45.75,33.7,87.95,73.43,125.47,118.11c24.12-17.23,43.86-40.94,64.81-62.76
			c20.96-21.82,44.16-42.42,71.68-51.15c2.7-0.86,5.79-1.54,8.15,0.16c2.88,2.07,3.25,6.55,3.24,10.38
			c-0.05,16.49-1.46,33.03-0.16,49.46c2.34,29.6,13.36,57.47,17.81,86.75c4.51,29.69,2.18,60.09-0.16,90.09
			c-0.14,1.8-0.41,3.85-1.76,4.83c-0.8,0.58-1.81,0.65-2.76,0.69c-86.18,3.96-172.49,4.6-258.7,1.92c-1.42-0.05-4.47,0-8.08-1.47
			c-10.63-4.34-19.32-18.72-26.68-64.75c-3.81-23.8-4.52-38.15-6.03-58.91c-5.77-79.44-16.52-110.22-2.43-121.03
			c2.79-2.14,8.05-4.64,17.99-2.29"/>
	</g>
	<g>
		<path class="st4" d="M1013.95,853.16c21.15-21.37,43.56-43.1,67.27-65.02c23.72-21.92,47.03-42.46,69.78-61.68
			c11.21,61.56,18.99,110.87,24.61,143.69c0,0,1.73,10.09-1.08,69.69c-0.13,2.81-0.54,8.9-4.38,13.35
			c-4.12,4.78-10.82,5.02-16.78,4.93c-47.22-0.65-94.43-1.3-141.64-1.95c-1.69-0.03-3.6-0.15-4.71-1.55
			c-1.2-1.51-1.11-3.64-1.09-4.35c0.18-4.62,0.3-36.12,0.48-80.2C1008.93,864.45,1011.44,858.81,1013.95,853.16z"/>
	</g>
	<g>
		<g>
			<path class="st5" d="M1055.45,840.46c-0.61,1.02-1.22,2.05-1.83,3.06c-0.1,0.16,0.15,0.29,0.25,0.14
				c0.61-1.02,1.22-2.05,1.83-3.06C1055.79,840.45,1055.54,840.31,1055.45,840.46L1055.45,840.46z"/>
		</g>
	</g>
	<g>
		<g>
			<path class="st5" d="M1066.53,942.99c14.14-3.98,27.64-9.87,40.14-17.35c0.15-0.09,0.01-0.33-0.14-0.24
				c-12.49,7.47-25.95,13.35-40.07,17.32C1066.28,942.78,1066.35,943.04,1066.53,942.99L1066.53,942.99z"/>
		</g>
	</g>
	<g>
		<g>
			<path class="st5" d="M875.06,732.37c0.18,0,0.18-0.27,0-0.27C874.88,732.09,874.88,732.37,875.06,732.37L875.06,732.37z"/>
		</g>
	</g>
	<g>
		<g>
			<path class="st5" d="M1144,744.63c0.18,0,0.18-0.27,0-0.27S1143.82,744.63,1144,744.63L1144,744.63z"/>
		</g>
	</g>
	<g>
		<path class="st6" d="M900.45,585.81c-17.86,10.93-34.28,24.8-48.59,41.03c41.67,54.83,100.15,90.41,144.66,142.36
			c1.3,1.52,2.69,3.13,4.51,3.64c2.32,0.66,4.69-0.6,6.81-1.85c56.7-33.45,105.02-81.94,152.59-130.03
			c2.55-2.58,5.34-5.98,4.48-9.71c-0.33-1.47-1.22-2.7-2.07-3.88c-11.48-15.85-22.95-31.71-34.42-47.56
			c-1.78-2.46-3.64-4.99-6.16-6.42c-3.07-1.75-6.69-1.62-10.13-1.37c-36.01,2.57-71.15,13.63-107.07,17.62
			c-33.9,3.76-68.36,1.13-101.5-7.74"/>
	</g>
	<g>
		<path class="st7" d="M892.18,589.18c-0.58,9.92-1.17,19.84-1.75,29.76c-0.2,3.4-0.39,6.91,0.6,10.13c1.05,3.44,3.32,6.2,5.56,8.84
			c31.7,37.26,68.59,68.95,108.93,93.59c4.24,2.59,8.65,5.14,13.45,5.61c8.18,0.8,15.72-4.5,22.57-9.58
			c31.59-23.46,64.45-48.47,82.16-86.02c5.37-11.37,9.22-23.95,9.02-36.81c-0.09-5.26-1.04-10.93-4.47-14.53
			c-3.74-3.92-9.35-4.35-14.47-4.55c-27.31-1.1-54.93-2.08-81.65,4.31c-10.31,2.47-20.41,6.01-30.78,8.11
			c-35.5,7.19-71.78-2.88-106.73-12.87"/>
	</g>
	<g>
		<path class="st8" d="M1188.63,338.19c9.7-2.14,19.51,5.44,24.04,15.29c4.53,9.85,4.85,21.42,4.4,32.48
			c-0.25,5.94-0.72,12.02-2.98,17.41c-2.26,5.38-6.62,10.01-11.91,10.65c-2.96,0.36-6.38-0.92-7.54-3.99
			c-0.52-1.38-0.52-2.91-0.52-4.41c0.03-16.2,0.06-32.4,0.09-48.6c0.01-4.8,0-9.73-1.53-14.21"/>
		<g>
			<path class="st9" d="M1188.65,338.26c10.55-2.21,19.78,6.41,23.81,14.92c4.94,10.43,5.02,22.38,4.5,33.61
				c-0.27,5.9-0.78,12.07-3.37,17.52c-2.07,4.37-5.88,8.81-11.1,9.59c-2.49,0.37-5.23-0.37-6.83-2.3c-1.97-2.38-1.46-5.88-1.46-8.72
				c0.01-6.36,0.02-12.72,0.04-19.08c0.01-7.12,0.03-14.24,0.04-21.35c0.01-6.51,0.56-13.38-1.52-19.68
				c-0.03-0.08-0.16-0.05-0.13,0.04c2.12,6.42,1.53,13.45,1.52,20.1c-0.01,6.82-0.03,13.62-0.04,20.44
				c-0.01,6.82-0.03,13.62-0.04,20.44c-0.01,2.63-0.34,5.68,1.48,7.89c1.17,1.43,2.99,2.23,4.84,2.41
				c4.76,0.48,8.96-2.94,11.45-6.49c3.36-4.76,4.47-10.62,4.98-16.25c0.54-6.11,0.68-12.34,0.3-18.46
				c-0.35-5.86-1.29-11.74-3.45-17.26c-3.71-9.52-13.31-19.98-25.06-17.52C1188.53,338.14,1188.57,338.28,1188.65,338.26
				L1188.65,338.26z"/>
		</g>
	</g>
	<g>
		<path class="st8" d="M1164.69,324.27c5.56-6.99,12.59-14.52,20.87-13.35c6.25,0.89,11.19,6.8,13.44,13.4
			c2.25,6.6,2.3,13.83,2.33,20.89c0.08,19.36,0.15,38.72,0.24,58.09c0.01,3.32,0.02,6.68-0.79,9.86
			c-1.64,6.39-6.77,11.47-12.63,12.49s-12.13-2.07-15.42-7.6c-2.42-4.06-3.21-9.03-3.88-13.84c-3.72-26.33-5.71-52.97-5.94-79.63"/>
		<g>
			<path class="st9" d="M1164.75,324.31c4.51-5.67,10.61-13.2,18.77-13.43c8.09-0.23,13.5,7.43,15.61,14.05
				c2.75,8.61,2.12,17.96,2.16,26.85c0.04,9.3,0.08,18.6,0.11,27.91c0.02,4.69,0.04,9.38,0.06,14.06c0.02,4.61,0.19,9.26-0.02,13.86
				c-0.18,4.19-1.12,8.25-3.69,11.71c-2.14,2.88-5.23,5.22-8.84,6.08c-3.67,0.88-7.58,0.04-10.73-1.91
				c-3.63-2.24-5.94-5.73-7.25-9.61c-1.4-4.14-1.87-8.53-2.46-12.82c-0.63-4.61-1.2-9.25-1.72-13.87
				c-2.07-18.48-3.3-37.04-3.68-55.63c-0.05-2.33-0.08-4.67-0.1-7c0-0.09-0.14-0.09-0.14,0c0.18,19.86,1.32,39.73,3.45,59.49
				c0.53,4.93,1.11,9.86,1.77,14.78c0.59,4.46,1.04,9.01,2.24,13.37c1.04,3.78,2.8,7.38,5.9,10.01c2.54,2.15,5.8,3.55,9.19,3.68
				c7.18,0.28,13.07-5.31,15.13-11.54c1.44-4.35,1.15-9.06,1.13-13.56c-0.02-4.99-0.04-9.99-0.06-14.98
				c-0.04-9.99-0.08-19.97-0.12-29.95c-0.02-4.9,0-9.8-0.08-14.7c-0.08-4.5-0.31-9.05-1.33-13.46c-1.52-6.62-5.46-14.32-12.74-16.48
				c-7.56-2.25-14.27,3.44-18.86,8.5c-1.32,1.45-2.58,2.98-3.81,4.51C1164.57,324.31,1164.7,324.37,1164.75,324.31L1164.75,324.31z"
				/>
		</g>
	</g>
	<g>
		<path class="st8" d="M1137.33,342.79c5.24-10.57,15.23-16.87,24.72-22.63c1.47-0.9,3-1.8,4.66-1.94c3.3-0.27,6.27,2.68,7.52,6.12
			c1.25,3.44,1.14,7.28,1.03,10.99c-0.85,26.68-1.68,53.36-2.53,80.04c-0.03,0.79-0.06,1.61-0.33,2.34
			c-0.72,1.88-2.93,2.56-4.68,1.99c-1.75-0.57-3.14-2.04-4.42-3.5c-16.89-19.42-27-46.07-27.72-73.18"/>
		<g>
			<path class="st9" d="M1137.4,342.83c3.07-6.11,7.91-11.08,13.45-15.23c2.73-2.05,5.61-3.9,8.51-5.7
				c2.96-1.83,6.56-4.81,10.22-3.03c3.66,1.77,5.09,5.99,5.49,9.64c0.43,3.91,0.08,7.91-0.05,11.83c-0.27,8.42-0.53,16.83-0.8,25.25
				c-0.27,8.34-0.52,16.68-0.79,25.02c-0.27,8.39-0.32,16.8-0.8,25.18c-0.12,2.19-1.26,4.09-3.78,4.06
				c-2.01-0.03-3.63-1.6-4.86-2.94c-2.4-2.62-4.59-5.45-6.65-8.32c-4.1-5.71-7.62-11.81-10.56-18.15
				c-6.14-13.21-9.81-27.5-10.87-41.93c-0.13-1.82-0.22-3.65-0.28-5.46c0-0.09-0.14-0.09-0.14,0c0.44,15.3,3.77,30.52,9.9,44.65
				c2.94,6.78,6.52,13.3,10.75,19.42c2.06,2.97,4.26,5.84,6.61,8.59c1.75,2.05,4.25,5.07,7.42,4.09c1.12-0.35,1.98-1.15,2.34-2.24
				c0.61-1.85,0.34-4.12,0.4-6.04c0.14-4.47,0.29-8.95,0.43-13.41c0.29-9.1,0.57-18.19,0.87-27.29c0.29-9.02,0.57-18.04,0.86-27.07
				c0.13-4.31,0.45-8.66,0.31-12.98c-0.11-3.44-0.7-7.07-3.01-9.83c-1.87-2.26-4.64-3.45-7.56-2.32c-1.69,0.66-3.24,1.75-4.77,2.69
				c-1.53,0.94-3.06,1.89-4.55,2.88c-5.82,3.82-11.36,8.2-15.37,13.82c-1.08,1.51-2.02,3.1-2.86,4.75
				C1137.24,342.84,1137.36,342.91,1137.4,342.83L1137.4,342.83z"/>
		</g>
	</g>
	<g>
		<path class="st10" d="M1018.51,33.69c32.58,79.89,79.37,152.46,136.81,212.22c-48.4,0.41-96.79,0.81-145.19,1.22
			c-1.43,0.01-3.05-0.06-3.99-1.27c-0.82-1.04-0.84-2.59-0.81-3.97c0.16-8,0.32-15.98,0.49-23.98
			c1.19-58.46,2.37-116.93,3.56-175.39c0.02-1.11,0.1-2.33,0.81-3.09c1.41-1.49,3.65,0.14,4.95,1.74
			c5.35,6.55,10.08,13.75,14.08,21.43"/>
	</g>
	<g>
		<path class="st11" d="M859.57,258.9c14.6,0.46,29.2,0.9,43.8,1.36c0.74,0.03,1.55,0.07,2.12,0.61c1.35,1.29,0.15,3.71-1.06,5.16
			c-2.89,3.48-5.79,6.96-8.68,10.44c-1.48,1.79-3.05,3.63-5.07,4.53c-1.76,0.79-3.71,0.79-5.61,0.77
			c-6.54-0.05-13.08-0.09-19.63-0.15c-0.89-0.01-1.87-0.04-2.58-0.66c-0.85-0.73-1.05-2.04-1.2-3.23
			c-0.72-5.85-1.44-11.69-2.16-17.53"/>
	</g>
	<path class="st12" d="M861.39,550.03"/>
	<g>
		
			<linearGradient id="SVGID_1_" gradientUnits="userSpaceOnUse" x1="875.6411" y1="532.2242" x2="1229.5247" y2="852.3024" gradientTransform="matrix(1 0 0 -1 0 1080)">
			<stop  offset="0" style="stop-color:#D4ECEF"/>
			<stop  offset="0.0614" style="stop-color:#CFE6E9"/>
			<stop  offset="0.6958" style="stop-color:#9AAFAF"/>
			<stop  offset="1" style="stop-color:#859A98"/>
		</linearGradient>
		<path class="st13" d="M868.81,270.43c-0.44,96.77-0.89,193.52-1.32,290.29c-0.02,4.81-0.02,9.77,1.65,14.2
			c1.68,4.49,4.9,7.98,8.06,11.32c38.34,40.69,79.07,78.55,121.83,113.26c3.29,2.67,6.93,5.45,10.98,5.28
			c3.7-0.15,6.94-2.72,9.91-5.21c45.07-37.68,87.78-78.92,127.7-123.3c1.57-1.74,3.17-3.56,3.95-5.87c0.7-2.07,0.68-4.34,0.65-6.55
			c-0.58-40.36-1.15-80.71-1.73-121.07c-0.82-57.26-1.66-114.78-10.4-171.19c-89.6-10.94-180.77,18.2-269.82,2.67"/>
	</g>
	<g>
		<path class="st14" d="M1029.3,332.45c3.46-8.86,11.08-15.05,19.27-18.11s16.98-3.38,25.61-3.28c6.81,0.08,14.27,0.69,19.23,5.93
			c2.2,2.32,3.68,5.35,5.13,8.32c2.21,4.53,4.41,9.07,6.61,13.61c-12.24-11.34-29.66-15.24-44.85-10.04
			c-7.73,2.64-14.71,7.4-22.11,11.06c-1.31,0.65-2.74,1.28-4.15,0.95c-2.22-0.52-3.52-3.34-3.41-5.88c0.11-2.54,1.28-4.85,2.41-7.05
			"/>
	</g>
	<g>
		<path class="st14" d="M902.23,330.57c5.98-11.01,15.59-19.46,26.55-23.34c8.88-3.14,18.75-3.26,27.38,0.66
			c8.63,3.92,15.85,12.09,18.41,22.12c0.65,2.52,0.91,5.52-0.62,7.5c-2.01,2.61-5.94,1.83-8.33-0.35c-2.39-2.17-3.88-5.35-6.09-7.75
			c-4.8-5.24-12.11-6.12-18.81-6.2c-11.48-0.12-23.97,1.81-32.05,10.96c-1.28,1.45-2.59,3.16-4.4,3.42
			c-1.68,0.24-3.44-1.09-3.86-2.93c-0.43-1.85,0.52-3.96,2.1-4.67"/>
	</g>
	<g>
		<path class="st15" d="M926.99,353.16c-8.28,9.91-13.01,23.46-12.93,37.03c0.02,2.87,0.25,5.77,1.17,8.44
			c0.95,2.75,2.6,5.14,4.35,7.34c5.19,6.53,12.05,12.16,19.84,12.52c9.85,0.46,18.81-8.02,22.35-18.33s2.54-21.94-0.2-32.55
			c-1.96-7.59-5.42-15.63-11.99-18.49c-3.04-1.32-6.39-1.36-9.65-1.38c-4.75-0.03-10.61,0.75-12.33,5.7"/>
	</g>
	<g>
		<path class="st15" d="M1050.07,354.02c-3.65,1.29-4.68,6.45-4.83,10.73c-0.29,8,0.43,16.04,2.09,23.81
			c1.68,7.8,4.42,15.52,9.24,21.45c4.83,5.92,12.01,9.83,19.11,8.81c9.24-1.33,16.26-10.55,19.25-20.45
			c4.47-14.74,1.29-32.55-9.09-42.88c-10.38-10.34-27.78-11.28-38.02-0.76"/>
	</g>
	<g>
		<path class="st16" d="M991.67,399.13c-4.69,19.65-12.63,38.32-23.31,54.77c7.12,4.95,14.24,9.91,21.35,14.87
			c2.9,2.03,5.93,4.09,9.33,4.59c5.39,0.77,10.48-2.55,15.21-5.54c9.84-6.21,20.16-11.49,30.8-15.75c2.12-0.85,4.48-1.66,6.59-0.72
			c4.05,1.81,4,8.21,2.98,12.97c-2.81,12.98-7.83,25.71-16.37,35.03c-8.55,9.32-21.01,14.74-32.65,11.84
			c-12.65-3.15-21.93-14.97-29.91-26.41c-6.55-9.38-13.23-21.01-10.07-32.38"/>
	</g>
	<g>
		<g>
			<path class="st17" d="M1071.03,437.82c12.53-5.23,25.07-10.45,37.6-15.68c0.09-0.04,0.01-0.16-0.08-0.12
				c-12.53,5.23-25.07,10.45-37.6,15.68C1070.88,437.74,1070.96,437.86,1071.03,437.82L1071.03,437.82z"/>
		</g>
	</g>
	<g>
		<g>
			<path class="st17" d="M893.29,423.61c11.32-0.04,22.6,1.2,33.63,3.65c0.09,0.02,0.12-0.11,0.04-0.13
				c-11.04-2.45-22.34-3.69-33.67-3.65C893.21,423.47,893.2,423.61,893.29,423.61L893.29,423.61z"/>
		</g>
	</g>
	<g>
		<path class="st18" d="M941.42,511.67c41.69,8.28,84.59,8.78,126.43,1.47c-15.24,21.3-39.57,34.01-63.93,33.4
			c-24.35-0.62-48.15-14.56-62.51-36.6"/>
		<g>
			<path class="st16" d="M941.4,511.74c20.11,3.97,40.58,6.19,61.11,6.55c20.5,0.37,41.04-1.11,61.26-4.39
				c0.61-0.1,1.22-0.2,1.82-0.3c0.24-0.04,1.7-0.43,1.82-0.31c0.27,0.26-0.3,0.74-0.51,1.04c-0.37,0.5-0.75,1.01-1.14,1.5
				c-1.33,1.71-2.74,3.37-4.21,4.98c-2.77,3.03-5.78,5.87-8.99,8.46c-6.44,5.21-13.74,9.48-21.58,12.46
				c-14.96,5.69-31.44,6.26-46.72,1.35c-15.79-5.07-29.49-15.33-39.27-28.19c-1.24-1.63-2.41-3.3-3.52-5
				c-0.05-0.07-0.17-0.01-0.12,0.07c10.57,16.15,26.93,29.02,46.2,34.23c18.89,5.11,38.97,1.67,55.56-8.18
				c9.83-5.84,18.25-13.72,24.8-22.83c0.04-0.05-0.03-0.11-0.08-0.1c-16.32,2.84-32.86,4.52-49.44,4.99
				c-16.34,0.47-32.71-0.24-48.94-2.09c-9.39-1.07-18.74-2.54-28-4.38C941.35,511.59,941.31,511.72,941.4,511.74L941.4,511.74z"/>
		</g>
	</g>
	<g>
		<path class="st17" d="M976.25,564.06c19.31-0.37,38.63-0.76,57.94-1.13c-8.24,6.63-16.48,13.26-24.73,19.89
			c-1.23,0.99-2.55,2.01-4.05,2.1c-1.45,0.08-2.81-0.71-4.08-1.49c-9.13-5.59-18.07-11.57-26.8-17.91"/>
	</g>
	<g>
		<path class="st19" d="M941.03,349c-1.45,12.98,0.68,26.42,6,38.05c0.54,1.18,1.14,2.38,2.09,3.16c3.26,2.67,7.69-1.16,9.67-5.12
			c3.67-7.37,4.71-16.64,1.69-24.38s-10.46-13.39-17.95-12.5"/>
	</g>
	<g>
		<g>
			<path class="st15" d="M951.65,361.49c0.18,0,0.18-0.27,0-0.27C951.46,361.21,951.46,361.49,951.65,361.49L951.65,361.49z"/>
		</g>
	</g>
	<g>
		<path class="st19" d="M1047,360.58c1.72-2.92,3.51-5.94,6.15-7.83c2.63-1.89,6.35-2.37,8.78-0.16c1.48,1.35,2.25,3.44,2.95,5.44
			c0.94,2.66,1.88,5.31,2.82,7.97c1.27,3.58,2.54,7.24,2.71,11.08c0.16,3.85-0.98,7.98-3.75,10.26c-5,4.11-12.48,0.09-15.62-5.89
			c-3.14-5.99-3.48-13.24-5.03-19.97"/>
		<g>
			<path class="st19" d="M1047.05,360.6c1.6-2.72,3.25-5.62,5.83-7.6c2.65-2.03,6.7-2.71,9.24-0.14c1.12,1.14,1.76,2.65,2.3,4.1
				c0.6,1.6,1.14,3.23,1.71,4.83c1.15,3.25,2.42,6.51,3.3,9.84c1.41,5.33,1.77,13.68-4.35,16.6c-5.31,2.54-11.22-2.01-13.71-6.28
				c-3.61-6.2-3.81-13.72-5.34-20.52c-0.02-0.07-0.12-0.04-0.11,0.03c1.55,6.85,1.72,14.47,5.43,20.69
				c2.43,4.06,7.79,8.25,12.97,6.51c6.08-2.06,6.68-9.89,5.68-14.99c-0.75-3.86-2.25-7.57-3.56-11.28
				c-0.67-1.88-1.29-3.77-2.01-5.64c-0.51-1.36-1.12-2.75-2.14-3.85c-2.11-2.28-5.54-2.28-8.19-0.87c-3.38,1.79-5.37,5.38-7.2,8.49
				C1046.92,360.61,1047.01,360.67,1047.05,360.6L1047.05,360.6z"/>
		</g>
	</g>
	<g>
		<g>
			<path class="st20" d="M1055.58,364.55c0.18,0,0.18-0.27,0-0.27C1055.39,364.28,1055.39,364.55,1055.58,364.55L1055.58,364.55z"/>
		</g>
	</g>
	<g>
		<path class="st10" d="M1010.21,229.55c-0.38,20.26-0.77,40.52-1.15,60.78c52.39-1.24,104.79-2.48,157.19-3.72
			c2.15-0.05,4.59-0.25,5.96-2.11c1.25-1.71,1.11-4.16,0.91-6.35c-1.03-11.28-2.07-22.55-3.09-33.84
			c-52.73-2.66-105.45-5.32-158.18-7.98"/>
	</g>
	<g>
		<path class="st12" d="M852.66,244.2c19.97,5.05,40.44-2.92,60.66-6.5c9.6-1.7,19.32-2.39,29.03-3.09
			c22.32-1.6,44.69-3.21,67.02-1.83c-0.83,17.16-1.65,34.33-2.47,51.49c-0.1,1.88-0.24,3.92-1.34,5.34c-1.47,1.88-4,1.97-6.22,1.92
			c-48.14-1.18-96.27-2.35-144.41-3.52c-1.26-0.03-2.65-0.13-3.51-1.14c-0.86-1-0.9-2.52-0.89-3.9c0.03-12.45,0.06-24.91,0.09-37.36
			"/>
	</g>
	<g>
		<path class="st12" d="M1003.6,46.26c-47.85,66.55-95.18,133.56-141.98,201.06c45.42-0.42,90.84-0.84,136.26-1.26
			c1.52-0.02,3.19-0.09,4.31-1.25c1.15-1.19,1.32-3.12,1.43-4.87c3.88-66.77,5.74-133.68,5.56-200.58
			c-6.24,4.62-10.59,12.34-11.64,20.65"/>
	</g>
	<g>
		<path class="st9" d="M1099.32,238.81c7-0.57,14.02-1.13,21.02-1.7c-23.82-38.43-46.35-77.84-68.87-117.24
			c-4.39-7.68-8.78-15.36-13.17-23.04c20.61,47.51,40.92,95.17,60.93,142.99"/>
	</g>
	<g>
		<path class="st9" d="M1032.41,76.92c5.9,13.34,8.47,28.18,10.97,42.81c6.91,40.4,13.82,80.79,20.72,121.18"/>
	</g>
	<g>
		<path class="st9" d="M876.09,243.14c34.01-48.11,68.01-96.22,102.03-144.32c-18.93,49.2-48.57,92.09-77.89,134.4
			c-5.36,7.73-13.51,16.37-21.53,12.47"/>
	</g>
	<g>
		<path class="st9" d="M940.19,243.1c5.77-12.02,9.22-25.23,12.64-38.32c11.22-43.02,22.44-86.05,33.66-129.07"/>
	</g>
	<g>
		<path class="st8" d="M863.9,417.54c0.25-29.63,0.49-59.27,0.74-88.9c0.04-4.1,0.01-8.44-1.88-11.94
			c-2.58-4.76-7.95-6.65-12.91-6.98c-15.71-1.04-30.72,10.2-38.82,25.33s-10.16,33.49-9.21,51.1c0.3,5.77,0.92,11.6,2.67,17.04
			c4.2,13.07,15.07,22.95,27.23,25.6c12.16,2.65,25.24-1.71,34.6-10.81"/>
		<g>
			<path class="st9" d="M863.97,417.54c0.2-24.47,0.41-48.93,0.61-73.4c0.05-5.97,0.21-11.93,0.13-17.9
				c-0.07-4.62-0.73-9.54-4.5-12.81c-6.33-5.49-16.74-4.42-24.08-1.67c-19.06,7.16-29.1,26.65-32.65,44.91
				c-2.05,10.54-2.36,21.39-1.59,32.07c0.39,5.46,1.17,10.96,3.1,16.14c1.55,4.16,3.82,8.06,6.69,11.5
				c5.52,6.61,13.37,11.56,22.17,12.87c9.48,1.42,19.18-1.33,26.91-6.63c2-1.37,3.86-2.91,5.6-4.6c0.07-0.06-0.04-0.16-0.1-0.1
				c-7,6.74-16.41,11.28-26.41,11.55c-9.17,0.25-17.85-3.37-24.44-9.41c-7.25-6.64-11.25-15.44-12.68-24.87
				c-1.58-10.47-1.48-21.45-0.15-31.94c2.38-18.86,10.43-39.01,28.4-48.96c7.34-4.06,17.33-6.47,25.44-3.03
				c2.16,0.91,4.09,2.31,5.45,4.18c1.59,2.17,2.26,4.8,2.52,7.4c0.27,2.6,0.18,5.24,0.16,7.85c-0.03,2.89-0.05,5.77-0.08,8.66
				c-0.19,23.17-0.38,46.35-0.58,69.53c-0.03,2.89-0.05,5.77-0.08,8.66C863.83,417.63,863.97,417.63,863.97,417.54L863.97,417.54z"
				/>
		</g>
	</g>
	<g>
		<g>
			<path class="st9" d="M840.35,313.33c0,29.96,0,59.93,0,89.89c0,8.52,0,17.03,0,25.56c0,0.09,0.14,0.09,0.14,0
				c0-29.96,0-59.93,0-89.89c0-8.52,0-17.03,0-25.56C840.49,313.24,840.35,313.24,840.35,313.33L840.35,313.33z"/>
		</g>
	</g>
	<g>
		<path class="st21" d="M1182.3,611.52c17.84,0.05,35.66,2,53.17,5.82c2.98,0.65,6.47,1.87,7.3,5.14c0.52,2.08-0.27,4.27-1.06,6.24
			c-20.88,52.63-45.28,103.51-72.95,152.05c6.74-31.29,9.95-63.53,9.51-95.72c-0.34-25.49-2.96-51.01-1.22-76.43"/>
	</g>
	
		<ellipse transform="matrix(0.1633 -0.9866 0.9866 0.1633 89.2663 1845.501)" class="st22" cx="1132.71" cy="870.12" rx="23.92" ry="14.34"/>
</g>
<g>
	<path class="st23" d="M730.87,1009.02c0,1.94-0.91,4.49-2.74,7.65c-16.02,26.59-37.3,39.89-63.84,39.89
		c-27.16,0-49.18-12.93-66.06-38.79c-16.45-25.01-24.67-56.58-24.67-94.71c0-36.91,8.05-68.24,24.15-93.98
		c16.8-26.96,38.16-40.43,64.1-40.43c28.2,0,50.31,12.08,66.32,36.24c1.74,2.67,2.61,5.04,2.61,7.1c0,2.31-3.03,10.87-9.07,25.68
		c-6.05,14.82-9.86,23.13-11.42,24.95c-0.7,0.97-1.57,1.46-2.61,1.46c-0.44,0-2.61-2.43-6.53-7.29c-4.7-5.83-9.31-10.38-13.84-13.66
		c-6.88-4.85-14.01-7.29-21.41-7.29c-12.79,0-23.02,6.68-30.68,20.03c-7.05,12.38-10.58,27.68-10.58,45.9
		c0,18.46,3.52,33.94,10.58,46.44c7.66,13.6,17.89,20.4,30.68,20.4c7.57,0,14.75-2.3,21.54-6.92c4.44-3.03,8.96-7.29,13.58-12.75
		c3.83-4.61,5.96-6.92,6.4-6.92c0.87,0,1.74,0.67,2.61,2c1.39,2.19,5.18,9.77,11.36,22.77
		C727.69,1000.28,730.87,1007.68,730.87,1009.02z"/>
	<path class="st23" d="M864.95,1053.28c-7.49,0-17.23-0.25-29.24-0.73c-15.67-0.49-25.42-0.79-29.24-0.91l-39.04-0.73
		c-3.92,0.12-9.53-0.12-16.84-0.73c-2.53-0.61-3.79-2.49-3.79-5.65c0-13.23,0.15-33.06,0.46-59.47c0.3-26.41,0.46-46.23,0.46-59.47
		c0-14.08-0.31-35.18-0.91-63.29c-0.61-28.11-0.91-49.2-0.91-63.29c0-2.67,1.31-4.01,3.92-4.01c2.61,0,6.51,0.18,11.68,0.55
		c5.18,0.36,9.03,0.55,11.55,0.55c2.87,0,7.14-0.21,12.79-0.64c5.66-0.42,9.92-0.64,12.79-0.64c1.31,0,1.91,1.16,1.83,3.46
		l-0.13,2.37c-1.04,22.83-2.22,57.13-3.52,102.9l-0.13,48.08c0,15.54,0.04,26.9,0.13,34.06c0.08,1.46,0.17,2.91,0.26,4.37
		c0.09,1.46,0.74,2.37,1.96,2.73c0.09,0,1.22,0,3.39,0c7.83,0,19.56-0.58,35.18-1.73c15.62-1.15,27.35-1.73,35.18-1.73
		c2.35,0,3.53,1.4,3.53,4.19c0,20.76-1.09,38.67-3.26,53.73c-0.44,3.16-1.35,5.04-2.74,5.65
		C869.87,1053.15,868.08,1053.28,864.95,1053.28z"/>
	<path class="st23" d="M1024.88,993.54c0,5.22-0.74,14.82-2.22,28.78c-1.57,15.18-2.96,24.22-4.18,27.14
		c-1.04,2.31-2.48,3.46-4.31,3.46c-0.78,0-2.09-0.18-3.92-0.55c-6.35-1.21-24.89-1.82-55.62-1.82c-6.7,0-16.67-0.06-29.9-0.18
		c-13.23-0.12-23.15-0.18-29.77-0.18c-2.87,0-4.31-1.76-4.31-5.28c0-13.6,0.54-34.03,1.63-61.29c1.09-27.26,1.63-47.69,1.63-61.29
		c0-13.84-0.52-39.64-1.57-77.41c-0.26-9.71-0.74-24.22-1.44-43.53l-0.13-2.55c-0.18-2.79,0.91-4.19,3.26-4.19
		c6.44,0,16.12,0.25,29.05,0.73c12.92,0.49,22.61,0.73,29.05,0.73c6.35,0,15.93-0.24,28.72-0.73c12.79-0.48,22.37-0.73,28.72-0.73
		c4.52,0,7.14,2.37,7.83,7.1c0.43,2.79,1.11,11.26,2.02,25.41c0.91,14.15,1.37,22.74,1.37,25.77c0,2.55-0.87,3.83-2.61,3.83
		c-0.52,0-1.44-0.06-2.74-0.18c-23.15-2.67-43.95-4.01-62.4-4.01c-4.61,0-7.44,1.52-8.49,4.55c-0.44,1.46-0.65,6.13-0.65,14.02
		c0,8.26,0.87,13.72,2.61,16.39c1.48,2.31,4.31,3.46,8.49,3.46c0.87,0,2.57-0.09,5.09-0.27c2.52-0.18,4.61-0.27,6.27-0.27
		c10.97,0,22.06-0.42,33.29-1.27c0.96-0.12,3.35-0.42,7.18-0.91c2.96-0.48,5.31-0.73,7.05-0.73c2.09,0,3.13,1.4,3.13,4.19
		c0-2.55-0.78,6.74-2.35,27.87c-0.7,9.72-1.04,19.43-1.04,29.14c0,2.43-1.26,3.64-3.79,3.64l-11.75-1.82
		c-4.96-0.73-16.28-1.09-33.94-1.09h-13.84c-3.57,0-5.66,1.22-6.27,3.64c-0.09,0.61-0.13,4.37-0.13,11.29
		c0,9.23,0.43,15.18,1.3,17.85c1.48,4.62,7.05,7.35,16.71,8.2c-0.17,0,6.18,0,19.06,0c4.61,0,11.47-0.57,20.56-1.73
		c9.09-1.15,15.91-1.73,20.43-1.73C1023.92,986.98,1024.88,989.17,1024.88,993.54z"/>
	<path class="st23" d="M1214.44,1045.63c0,2.19-1.09,3.71-3.26,4.55c-2.61,0.97-10.71,1.46-24.28,1.46
		c-12.45,0-20.45-0.49-24.02-1.46c-2.96-0.85-4.83-3.58-5.61-8.2c-2.96-17.49-5.27-26.83-6.92-28.05
		c-1.39-0.85-13.06-1.27-34.99-1.27c-14.8,0-22.67,0.55-23.63,1.64c-1.48,1.94-3.13,8.44-4.96,19.49c-1.65,10.08-3.66,15.54-6,16.39
		c-2.96,0.97-12.88,1.46-29.77,1.46c-13.32,0-19.97-1.76-19.97-5.28c0-3.16,9.83-41.95,29.5-116.38
		c21.32-80.5,32.9-124.76,34.73-132.77c1.04-4.61,2.26-6.92,3.66-6.92c2.35,0,5.98,0.3,10.9,0.91c4.92,0.61,8.59,0.91,11.03,0.91
		c2.35,0,5.81-0.21,10.38-0.64c4.57-0.42,7.98-0.64,10.25-0.64c1.65,0,3.18,2,4.57,6.01c4.26,12.75,16.71,56.46,37.34,131.13
		C1204.08,1003.13,1214.44,1042.35,1214.44,1045.63z M1121.88,879.7c-1.83,5.34-4.92,16.94-9.27,34.79
		c-4.7,18.94-7.05,30.05-7.05,33.33c0,2.19,2.61,3.4,7.83,3.64c2.7,0.24,7.14,0.36,13.32,0.36c5.75,0,8.92-0.97,9.53-2.91
		c0.17-0.61,0.26-1.46,0.26-2.55c0-4.01-2-15.05-6.01-33.15C1126.58,895.73,1123.71,884.56,1121.88,879.7z"/>
	<path class="st23" d="M1383.38,1048.36c0,0.85-0.87,1.46-2.61,1.82c-3.31,0.73-11.62,1.09-24.94,1.09
		c-11.4,0-19.15-0.36-23.24-1.09c-1.92-0.36-3-0.67-3.26-0.91c-0.52-0.36-1.13-1.58-1.83-3.64c-1.31-4.74-3.22-11.78-5.75-21.13
		c-3.39-12.14-8.7-30.05-15.93-53.73c-1.57-4.74-5.18-7.34-10.84-7.83c2.61,0.24-1.87,0.36-13.45,0.36c-1.31,0-1.96,3.1-1.96,9.29
		c0,8.26,0.54,20.58,1.63,36.97c1.09,16.39,1.63,28.72,1.63,36.97c0,2.07-0.39,3.28-1.17,3.64c-1.22,0.12-2.44,0.24-3.66,0.36
		c-5.14,0.48-13.14,0.73-24.02,0.73c-12.45,0-19.93-0.36-22.46-1.09c-2.53-0.73-3.79-2.61-3.79-5.65c0-13.36,0.46-33.51,1.37-60.47
		c0.91-26.96,1.37-47.17,1.37-60.65c0-51.36-0.83-91.43-2.48-120.21l-0.13-2.55c-0.09-2.06,1.28-3.46,4.11-4.19
		c2.83-0.73,16.12-1.46,39.88-2.19c16.1-0.48,28.94-0.73,38.51-0.73c19.84,0,36.03,6.25,48.57,18.76
		c14.19,14.09,21.28,34.42,21.28,61.01c0,17.73-1.83,31.87-5.48,42.44s-10.4,20.83-20.24,30.78c-2,1.94-3,3.77-3,5.46
		c0-0.12,5.31,15.12,15.93,45.72C1378.07,1028.32,1383.38,1045.2,1383.38,1048.36z M1328.55,884.99c0-14.81-3.48-25.07-10.44-30.78
		c-5.4-4.37-13.84-6.56-25.33-6.56c-8.27,0-12.66,1.76-13.19,5.28c-0.52,4.13-0.78,16.03-0.78,35.7c0,2.79,0.04,6.92,0.13,12.39
		c0.09,5.46,0.13,9.53,0.13,12.2c0,0.61,1.39,1.22,4.18,1.82c5.31,1.09,10.88,1.64,16.71,1.64
		C1319.02,916.68,1328.55,906.11,1328.55,884.99z"/>
	<path class="st23" d="M1449.44,838.73c0,22.1-1.44,42.86-4.31,62.29c-3.48,19.92-6.92,39.77-10.31,59.56
		c-0.78,4.49-4.27,6.74-10.44,6.74c-7.05,0-10.97-1.94-11.75-5.83c-8.18-38.98-12.27-61.13-12.27-66.48
		c0-4.98,0.17-12.38,0.52-22.22c0.35-9.83,0.52-17.24,0.52-22.22c0-5.46-0.13-13.66-0.39-24.59c-0.26-10.93-0.39-19.12-0.39-24.59
		c0-4.49,0.78-6.74,2.35-6.74c2.44,0,6.09,0.25,10.97,0.73c4.87,0.49,8.53,0.73,10.97,0.73c2.44,0,6.09-0.24,10.97-0.73
		c4.87-0.48,8.53-0.73,10.97-0.73C1448.57,794.65,1449.44,809.34,1449.44,838.73z M1449.44,1019.22c0,10.2-2.26,18.67-6.79,25.41
		c-4.53,6.74-10.44,10.11-17.75,10.11c-7.4,0-13.34-3.34-17.82-10.02c-4.48-6.68-6.72-15.18-6.72-25.5c0-10.2,2.26-18.58,6.79-25.13
		c4.52-6.56,10.44-9.83,17.75-9.83c7.22,0,13.12,3.28,17.69,9.83C1447.15,1000.64,1449.44,1009.02,1449.44,1019.22z"/>
</g>
</svg>
