<?xml version="1.0" encoding="utf-8"?>
<!-- Generator: Adobe Illustrator 23.0.5, SVG Export Plug-In . SVG Version: 6.00 Build 0)  -->
<svg version="1.1" xmlns="http://www.w3.org/2000/svg" xmlns:xlink="http://www.w3.org/1999/xlink" x="0px" y="0px"
	 viewBox="0 0 1920 1080" style="enable-background:new 0 0 1920 1080;" xml:space="preserve">
<style type="text/css">
	.st0{fill:url(#SVGID_1_);}
	.st1{fill:url(#SVGID_2_);}
	.st2{fill:url(#SVGID_3_);}
	.st3{fill:#719069;}
	.st4{fill:#7F7478;}
	.st5{fill:#8E6D40;}
	.st6{fill:#889F58;}
	.st7{fill:#544D45;}
	.st8{fill:#8FA45B;}
	.st9{fill:#597C52;}
	.st10{fill:#37353B;}
	.st11{fill:#E2403E;}
	.st12{fill:#691F1A;}
	.st13{fill:#F7E9E2;}
	.st14{fill:#FC0B0B;}
	.st15{fill:#F70B0B;}
	.st16{fill:#F90808;}
</style>
<g id="圖層_1">
</g>
<g id="圖層_2">
	
		<linearGradient id="SVGID_1_" gradientUnits="userSpaceOnUse" x1="-766.0906" y1="515.4152" x2="-436.9543" y2="1008.7477" gradientTransform="matrix(-1 0 0 1 998 0)">
		<stop  offset="0.2604" style="stop-color:#DFDA84"/>
		<stop  offset="1" style="stop-color:#AAB75C"/>
	</linearGradient>
	<path class="st0" d="M1550.8,1081H1920c0-116,0-232,0-348c-111.6-7.5-229.2-11.6-352.2-11c-175.3,0.8-340,10.9-492.8,27
		C1233.6,859.7,1392.2,970.3,1550.8,1081z"/>
	<linearGradient id="SVGID_2_" gradientUnits="userSpaceOnUse" x1="962.6772" y1="655.8564" x2="966.1996" y2="-92.034">
		<stop  offset="7.745821e-02" style="stop-color:#4982A1"/>
		<stop  offset="0.4395" style="stop-color:#538BA0"/>
		<stop  offset="0.4741" style="stop-color:#548CA0"/>
		<stop  offset="0.6283" style="stop-color:#72A6B5"/>
		<stop  offset="0.9627" style="stop-color:#BEE7EC"/>
		<stop  offset="1" style="stop-color:#C7EFF2"/>
	</linearGradient>
	<rect x="4" y="-1" class="st1" width="1920" height="752"/>
	<linearGradient id="SVGID_3_" gradientUnits="userSpaceOnUse" x1="201.1228" y1="468.5208" x2="578.7435" y2="1034.5251">
		<stop  offset="0.2604" style="stop-color:#DFDA84"/>
		<stop  offset="1" style="stop-color:#AAB75C"/>
	</linearGradient>
	<path class="st2" d="M436,1081H0c0-116,0-232,0-348c131.8-7.5,270.7-11.6,416-11c207,0.8,401.6,10.9,582,27
		C810.7,859.7,623.3,970.3,436,1081z"/>
	<g>
		<path class="st3" d="M300.3,592.8c-12.9,7.1-25.5-9-36.8-18.4C245,559.1,217,560,198.2,545c-12.7-10.1-19.5-27-17.5-43
			c2-16,12.9-30.7,27.7-37.3c6.1-2.7,13-4.3,18.1-8.7c11.6-10.2,8.7-31.3,21.3-40.3c10.9-7.8,26.4-1.7,39.1-5.9
			c10.7-3.5,17.8-13.7,28-18.5c22.9-10.9,47.5,8.8,69.7,21.2c19.9,11.2,46.1,21.5,48.3,44.3c1.3,14-7.7,29.7,0.2,41.4
			c3.3,4.8,8.9,7.8,11.6,12.9c2.5,4.9,1.9,10.8,2.6,16.3c1.5,11.6,9.2,21.4,11.8,32.8c3.8,16.2-3.9,34.2-17.7,43.5
			s-32.7,10-47.6,2.6c-8.1-4-15.1-10.1-23.6-12.9c-25.3-8.6-57.8,12.7-77.9-5"/>
	</g>
	<g>
		<path class="st4" d="M459.1,746.1c11.8-46.8,17.3-95.3,16.3-143.6c-0.2-8.1-0.8-16.9-6.3-22.9c-5.9-6.4-15.5-7.4-23.4-10.9
			c-12-5.3-20.8-17.3-22.2-30.3c9,5.8,17.9,11.6,26.9,17.4c3.5,2.3,8,4.6,11.7,2.6c4.8-2.6,3.6-9.7,1.8-14.8
			c-3-8.7-6.1-17.5-9.1-26.2c9.9,5.6,17.8,14.8,21.8,25.5c1.6,4.2,2.6,8.8,5.2,12.5s7.2,6.6,11.6,5.2c3.9-1.2,6-5.2,7.8-8.8
			c3.9-8,7.9-15.9,11.8-23.9c7.2,22.1-1.4,45.7-8.2,67.9c-13.3,43.3-19.8,88.7-19.3,134c0,2.5,0,5.2-1.5,7.2
			c-1.1,1.5-2.9,2.4-4.6,3.1c-7.1,3.2-16.9,5.8-21.3-0.5"/>
	</g>
	<g>
		<path class="st3" d="M462.3,585.8c-12.9,7.1-25.5-9-36.8-18.4C407,552.1,379,553,360.2,538c-12.7-10.1-19.5-27-17.5-43
			c2-16,12.9-30.7,27.7-37.3c6.1-2.7,13-4.3,18.1-8.7c11.6-10.2,8.7-31.3,21.3-40.3c10.9-7.8,26.4-1.7,39.1-5.9
			c10.7-3.5,17.8-13.7,28-18.5c22.9-10.9,47.5,8.8,69.7,21.2c19.9,11.2,46.1,21.5,48.3,44.3c1.3,14-7.7,29.7,0.2,41.4
			c3.3,4.8,8.9,7.8,11.6,12.9c2.5,4.9,1.9,10.8,2.6,16.3c1.5,11.6,9.2,21.4,11.8,32.8c3.8,16.2-3.9,34.2-17.7,43.5
			s-32.7,10-47.6,2.6c-8.1-4-15.1-10.1-23.6-12.9c-25.3-8.6-57.8,12.7-77.9-5"/>
	</g>
	<g>
		<g>
			<path class="st4" d="M157.1,782.1c11.8-46.8,17.3-95.3,16.3-143.6c-0.2-8.1-0.8-16.9-6.3-22.9c-5.9-6.4-15.5-7.4-23.4-10.9
				c-12-5.3-20.8-17.3-22.2-30.3c9,5.8,17.9,11.6,26.9,17.4c3.5,2.3,8,4.6,11.7,2.6c4.8-2.6,3.6-9.7,1.8-14.8
				c-3-8.7-6.1-17.5-9.1-26.2c9.9,5.6,17.8,14.8,21.8,25.5c1.6,4.2,2.6,8.8,5.2,12.5c2.5,3.7,7.2,6.6,11.6,5.2
				c3.9-1.2,6-5.2,7.8-8.8c3.9-8,7.9-15.9,11.8-23.9c7.2,22.1-1.4,45.7-8.2,67.9c-13.3,43.3-19.8,88.7-19.3,134c0,2.5,0,5.2-1.5,7.2
				c-1.1,1.5-2.9,2.4-4.6,3.1c-7.1,3.2-16.9,5.8-21.3-0.5"/>
		</g>
		<g>
			<path class="st3" d="M160.3,621.8c-12.9,7.1-25.5-9-36.8-18.4C105,588.1,77,589,58.2,574c-12.7-10.1-19.5-27-17.5-43
				c2-16,12.9-30.7,27.7-37.3c6.1-2.7,13-4.3,18.1-8.7c11.6-10.2,8.7-31.3,21.3-40.3c10.9-7.8,26.4-1.7,39.1-5.9
				c10.7-3.5,17.8-13.7,28-18.5c22.9-10.9,47.5,8.8,69.7,21.2c19.9,11.2,46.1,21.5,48.3,44.3c1.3,14-7.7,29.7,0.2,41.4
				c3.3,4.8,8.9,7.8,11.6,12.9c2.5,4.9,1.9,10.8,2.6,16.3c1.5,11.6,9.2,21.4,11.8,32.8c3.8,16.2-3.9,34.2-17.7,43.5
				s-32.7,10-47.6,2.6c-8.1-4-15.1-10.1-23.6-12.9c-25.3-8.6-57.8,12.7-77.9-5"/>
		</g>
		<g>
			<path class="st4" d="M297.1,753.1c11.8-46.8,17.3-95.3,16.3-143.6c-0.2-8.1-0.8-16.9-6.3-22.9c-5.9-6.4-15.5-7.4-23.4-10.9
				c-12-5.3-20.8-17.3-22.2-30.3c9,5.8,17.9,11.6,26.9,17.4c3.5,2.3,8,4.6,11.7,2.6c4.8-2.6,3.6-9.7,1.8-14.8
				c-3-8.7-6.1-17.5-9.1-26.2c9.9,5.6,17.8,14.8,21.8,25.5c1.6,4.2,2.6,8.8,5.2,12.5s7.2,6.6,11.6,5.2c3.9-1.2,6-5.2,7.8-8.8
				c3.9-8,7.9-15.9,11.8-23.9c7.2,22.1-1.4,45.7-8.2,67.9c-13.3,43.3-19.8,88.7-19.3,134c0,2.5,0,5.2-1.5,7.2
				c-1.1,1.5-2.9,2.4-4.6,3.1c-7.1,3.2-16.9,5.8-21.3-0.5"/>
		</g>
		<g>
			<path class="st4" d="M586.1,751.1c11.8-46.8,17.3-95.3,16.3-143.6c-0.2-8.1-0.8-16.9-6.3-22.9c-5.9-6.4-15.5-7.4-23.4-10.9
				c-12-5.3-20.8-17.3-22.2-30.3c9,5.8,17.9,11.6,26.9,17.4c3.5,2.3,8,4.6,11.7,2.6c4.8-2.6,3.6-9.7,1.8-14.8
				c-3-8.7-6.1-17.5-9.1-26.2c9.9,5.6,17.8,14.8,21.8,25.5c1.6,4.2,2.6,8.8,5.2,12.5c2.5,3.7,7.2,6.6,11.6,5.2
				c3.9-1.2,6-5.2,7.8-8.8c3.9-8,7.9-15.9,11.8-23.9c7.2,22.1-1.4,45.7-8.2,67.9c-13.3,43.3-19.8,88.7-19.3,134c0,2.5,0,5.2-1.5,7.2
				c-1.1,1.5-2.9,2.4-4.6,3.1c-7.1,3.2-16.9,5.8-21.3-0.5"/>
		</g>
	</g>
	<g>
		<g>
			<path class="st4" d="M1797.6,722.8c-3.5,2.3-8,4.6-11.7,2.6c-4.8-2.6-3.6-9.7-1.8-14.8c3-8.7,6.1-17.5,9.1-26.2
				c-9.9,5.6-17.8,14.8-21.8,25.5c-1.6,4.2-2.6,8.8-5.2,12.5c-2.5,3.7-7.2,6.6-11.6,5.2c-3.9-1.2-6-5.2-7.8-8.8l-11.8-23.9
				c-7.2,22.1,1.4,45.7,8.2,67.9c13.3,43.3,19.8,88.7,19.3,134c0,2.5,0,5.2,1.5,7.1c1.1,1.5,2.9,2.4,4.6,3.1
				c5.6,2.6,12.9,4.7,18,2.3c0.2-0.8,0.5-1.6,0.8-2.4c-10.8-44.9-15.8-91.2-14.8-137.4c0.2-8.1,0.8-16.9,6.3-22.9
				c5.9-6.4,15.5-7.4,23.4-10.9c12-5.3,20.8-17.3,22.2-30.3L1797.6,722.8z"/>
		</g>
		<g>
			<path class="st3" d="M1785.6,752.8c12.9,7.1,25.5-9,36.8-18.4c18.5-15.3,46.5-14.5,65.4-29.5c12.7-10.1,19.5-27,17.5-43
				c-2-16-12.9-30.7-27.7-37.3c-6.1-2.7-13-4.3-18.1-8.7c-11.6-10.2-8.7-31.3-21.3-40.3c-10.9-7.8-26.4-1.7-39.1-5.9
				c-10.7-3.5-17.8-13.7-28-18.5c-22.9-10.9-47.5,8.8-69.7,21.2c-19.9,11.2-46.1,21.5-48.3,44.3c-1.3,14,7.7,29.7-0.2,41.4
				c-3.3,4.8-8.9,7.8-11.6,12.9c-2.5,4.9-1.9,10.8-2.6,16.3c-1.5,11.6-9.2,21.4-11.8,32.8c-3.8,16.2,3.9,34.2,17.7,43.5
				c13.8,9.3,32.7,10,47.6,2.6c8.1-4,15.1-10.1,23.6-12.9c25.3-8.6,57.8,12.7,77.9-5"/>
		</g>
		<g>
			<path class="st4" d="M1657.6,693.8c-3.5,2.3-8,4.6-11.7,2.6c-4.8-2.6-3.6-9.7-1.8-14.8c3-8.7,6.1-17.5,9.1-26.2
				c-9.9,5.6-17.8,14.8-21.8,25.5c-1.6,4.2-2.6,8.8-5.2,12.5c-2.5,3.7-7.2,6.6-11.6,5.2c-3.9-1.2-6-5.2-7.8-8.8l-11.8-23.9
				c-7.2,22.1,1.4,45.7,8.2,67.9c13.3,43.3,19.8,88.7,19.3,134c0,2.5,0,5.2,1.5,7.1c1.1,1.5,2.9,2.4,4.6,3.1
				c6.1,2.8,14.2,5.1,19.2,1.6c-11.1-45.5-16.2-92.3-15.2-139.1c0.2-8.1,0.8-16.9,6.3-22.9c5.9-6.4,15.5-7.4,23.4-10.9
				c12-5.3,20.8-17.3,22.2-30.3L1657.6,693.8z"/>
		</g>
		<g>
			<path class="st4" d="M1368.6,691.8c-3.5,2.3-8,4.6-11.7,2.6c-4.8-2.6-3.6-9.7-1.8-14.8c3-8.7,6.1-17.5,9.1-26.2
				c-9.9,5.6-17.8,14.8-21.8,25.5c-1.6,4.2-2.6,8.8-5.2,12.5c-2.5,3.7-7.2,6.6-11.6,5.2c-3.9-1.2-6-5.2-7.8-8.8l-11.8-23.9
				c-7.2,22.1,1.4,45.7,8.2,67.9c13.3,43.3,19.8,88.7,19.3,134c0,2.5,0,5.2,1.5,7.1c1.1,1.5,2.9,2.4,4.6,3.1
				c6.1,2.8,14.2,5.1,19.2,1.6c-11.1-45.5-16.2-92.3-15.2-139.1c0.2-8.1,0.8-16.9,6.3-22.9c5.9-6.4,15.5-7.4,23.4-10.9
				c12-5.3,20.8-17.3,22.2-30.3L1368.6,691.8z"/>
		</g>
	</g>
	<g>
		<path class="st3" d="M589.3,590.8c-12.9,7.1-25.5-9-36.8-18.4C534,557.1,506,558,487.2,543c-12.7-10.1-19.5-27-17.5-43
			c2-16,12.9-30.7,27.7-37.3c6.1-2.7,13-4.3,18.1-8.7c11.6-10.2,8.7-31.3,21.3-40.3c10.9-7.8,26.4-1.7,39.1-5.9
			c10.7-3.5,17.8-13.7,28-18.5c22.9-10.9,47.5,8.8,69.7,21.2c19.9,11.2,46.1,21.5,48.3,44.3c1.3,14-7.7,29.7,0.2,41.4
			c3.3,4.8,8.9,7.8,11.6,12.9c2.5,4.9,1.9,10.8,2.6,16.3c1.5,11.6,9.2,21.4,11.8,32.8c3.8,16.2-3.9,34.2-17.7,43.5
			s-32.7,10-47.6,2.6c-8.1-4-15.1-10.1-23.6-12.9c-25.3-8.6-57.8,12.7-77.9-5"/>
	</g>
	<path class="st5" d="M1640,1081c-401.3,0-802.7,0-1204,0c189-111.3,378-222.7,567-334c26.7,0.7,53.3,1.3,80,2
		C1268.7,859.7,1454.3,970.3,1640,1081z"/>
	<g>
		<path class="st6" d="M963.2,533c-10.1,7.8-24.8,7.9-34.9,0.1c-10.1-7.8-15-22.8-11.5-35.7c-16.2,3.2-32.8-14.1-30.5-31.8
			c0.5-4,1.8-8.2,0.8-12.1c-1.1-4-4.4-6.8-7.2-9.7c-12.5-13.1-16.3-34.9-9.1-52c1.7-4,3.9-8,3.6-12.4c-0.3-3.6-2.3-6.8-3.7-10
			c-4.8-10.9-3.4-24.6,3.5-34c2.4-3.2,5.3-6,7-9.7c2.8-6.2,1.4-13.6,0.8-20.5c-1.1-14.2,2-29,9.8-40.5c5-7.2,11.6-12.9,18.1-18.4
			c18.8-16,41.9-32.9,64.6-25c2.8,1,5.7,2.4,8.7,2.2c3.4-0.2,6.4-2.3,9.3-4.4c25.6-19,54.2-41.6,84.6-34.6c4.9,1.1,9.6,3,14.6,3.4
			c8.5,0.7,16.7-2.8,24.7-5.8c36.4-13.5,79.8-15.4,110.3,9.9c1.8,1.5,3.5,3.1,5.6,4.1c2.7,1.3,5.7,1.5,8.7,1.7
			c17,1.1,35,3.1,48.7,14.2s20.4,34.3,9.5,48.4c15.2,6.2,30,15.1,40,28.9c10.1,13.8,14.6,33.2,8.5,49.5c-2.6,7-7.2,13.6-7.1,21.2
			c0.1,7.1,4.3,13.3,8.3,19c8.8,12.5,17.6,25.5,22.1,40.4c4.6,14.9,4.4,32.4-4,45.3c-2.5,3.8-5.7,7.3-6.3,11.9
			c-0.5,4.1,1.1,8.1,2,12.2c4.1,19.3-10.5,37.2-25.2,48.8c-2.6,2.1-5.4,4.1-7.3,7c-2.7,4.1-3.3,9.2-4.5,14.1
			c-5.7,23.5-25.2,41.3-46.9,47.4c-21.7,6.1-45,1.7-65.5-8.1c-13.6-6.5-26.6-15.4-41.3-17.8c-18.1-3-36.4,4.1-54.6,2.3
			c-14-1.4-27-8-40-13.9c-39.5-17.8-81.3-29.4-123.8-34.4"/>
	</g>
	<g>
		<path class="st7" d="M1157.9,532.6c13.5-24.1,26.9-48.1,40.4-72.2c-30.1,13.4-49.1,42.9-73.3,65.3c-13.9,12.9-34.8,23.9-50.8,13.8
			c-11.6-7.3-14.9-22.3-18.3-35.6c-8-31.1-21.9-60.7-40.8-86.7c3.4,16.5,6.4,34.1,8.8,52.8c1.8,13.5,3.1,26.5,4,39
			c-15.4-4.2-30.8-8.4-46.2-12.6c3.6,3.6,9.1,9.4,14.7,17.4c0,0,18.3,25.9,24.4,65.5c5.3,34.9-4.6,111.6-39.5,206.3
			c22,0.2,43.9,2.5,65.8,2.8c18,0.3,36,0.3,54,0.4c0.9-6.2-3.7-13.3-7.4-19.1c-13.5-20.9-16-47.4-12-72s13.8-47.7,23.6-70.6
			c7.1-16.7,14.5-33.7,26.2-47.7c11.7-13.9,27.2-24,41.8-34.9c20.9-15.6,40.2-33.2,57.7-52.6C1206.7,505.5,1182.3,519,1157.9,532.6z
			"/>
	</g>
	<g>
		<path class="st8" d="M806.7,760.5c-10.3,8.2-24.6,6.7-33.2-3.4c-5.7-6.8-9.1-16.9-16.2-21.2c-4.9-3-10.7-2.6-16.2-3.5
			c-10.9-1.7-21.2-8.5-28.2-18.9c-3.5-5.2-6.4-11.4-10.9-15.3c-7.8-6.8-19.1-5.4-26.5-12.8c-10.2-10.2-8.1-31.5-16.2-44.3
			c-3.6-5.7-8.8-9.2-13.1-14s-7.8-11.9-6.3-19.2c1.6-7.4,8-12.7,8.2-20.3c0.2-5-2.4-9.1-4.6-13.2c-9.1-17.3-11.3-40.5-5.8-60.8
			c5.5-20.4,18.7-37.5,34.6-45.2c4.8-2.3,9.9-3.8,14.2-7.4c3.5-2.9,6.3-6.9,9.1-10.9c8.6-12.2,19.7-25.1,32.3-23.4
			c2.8,0.4,5.5,1.5,8.3,0.9c2.6-0.6,4.8-2.5,6.9-4.6c14.9-14.7,28.4-36.7,46.9-37.2c9.5-0.3,18.6,5.5,28.1,4.5
			c10-1.1,18.6-9.4,27.5-15.6c22.3-15.3,49.7-17.2,72.3-4.9c4.3,2.3,8.6,5.2,13.3,5.2c3.3,0,6.6-1.3,9.9-2.5
			c12.9-4.7,26.3-6.5,39.5-5.4c14.3,1.2,30.5,8.6,33.6,26.2c0.6,3.4,0.7,7.2,2.3,10c1.1,2,2.9,3.1,4.7,4.2
			c13.2,8.2,28.7,14.5,35.2,31.1c5.8,14.8,2.2,33.1-3.5,48.5c-0.9,2.6-2,5.2-2,8c0,4,2.2,7.3,4.3,10.3
			c12.5,17.8,25.1,41.6,17.6,64.4c-3.4,10.1-10.6,19.8-8.7,30.2c1,5.5,4.4,9.5,7.1,14c11.9,20.1,6.4,53.5-11,67.5
			c-3.9,3.1-8.3,5.5-11.3,9.9c-4.4,6.6-4.3,16-6.1,24.2c-5.3,23.8-25.9,36.3-44.1,45.6c-13.4,6.8-27,13.7-41.3,14.6
			c-10.8,0.7-21.5-2.2-32.1-3.9c-11-1.8-22.1-2.3-33.2-2.9c-33.1-1.6-66.3-3.3-99.4-4.9"/>
	</g>
	<g>
		<path class="st7" d="M865,678.5c-9.3,8-20,17.9-30.3,13.6c-10.5-4.4-14.8-20.4-16.4-25.7c-6.5-22.5-24.1-54.3-72.3-95.9
			c14.1,24.1,32.8,62.9,42.6,116c3.7,20.1,10.9,60.9,4.5,114.5c-4,33.2-12,61.1-19.9,82.4c23.5,0.5,46.9,2.1,70.3,3.6
			c1.8-7.1-0.8-16.1-3.1-23.4c-16.7-53.6-2.3-121.6,33.9-159.9c11.4-12,24.5-21.2,37.4-30.2c20.9-14.6,41.8-29.1,62.7-43.7
			C936.5,639.8,897.3,650.5,865,678.5z"/>
	</g>
	<g>
		<path class="st6" d="M595.2,693c-10.1,7.8-24.8,7.9-34.9,0.1c-10.1-7.8-15-22.8-11.5-35.7c-16.2,3.2-32.8-14.1-30.5-31.8
			c0.5-4,1.8-8.2,0.8-12.1c-1.1-4-4.4-6.8-7.2-9.7c-12.5-13.1-16.3-34.9-9.1-52c1.7-4,3.9-8,3.6-12.4c-0.3-3.6-2.3-6.8-3.7-10
			c-4.8-10.9-3.4-24.6,3.5-34c2.4-3.2,5.3-6,7-9.7c2.8-6.2,1.4-13.6,0.8-20.5c-1.1-14.2,2-29,9.8-40.5c5-7.2,11.6-12.9,18.1-18.4
			c18.8-16,41.9-32.9,64.6-25c2.8,1,5.7,2.4,8.7,2.2c3.4-0.2,6.4-2.3,9.3-4.4c25.6-19,54.2-41.6,84.6-34.6c4.9,1.1,9.6,3,14.6,3.4
			c8.5,0.7,16.7-2.8,24.7-5.8c36.4-13.5,79.8-15.4,110.3,9.9c1.8,1.5,3.5,3.1,5.6,4.1c2.7,1.3,5.7,1.5,8.7,1.7
			c17,1.1,35,3.1,48.7,14.2s20.4,34.3,9.5,48.4c15.2,6.2,30,15.1,40,28.9c10.1,13.8,14.6,33.2,8.5,49.5c-2.6,7-7.2,13.6-7.1,21.2
			c0.1,7.1,4.3,13.3,8.3,19c8.8,12.5,17.6,25.5,22.1,40.4s4.4,32.4-4,45.3c-2.5,3.8-5.7,7.3-6.3,11.9c-0.5,4.1,1.1,8.1,2,12.2
			c4.1,19.3-10.5,37.2-25.2,48.8c-2.6,2.1-5.4,4.1-7.3,7c-2.7,4.1-3.3,9.2-4.5,14.1c-5.7,23.5-25.2,41.3-46.9,47.4
			c-21.7,6.1-45,1.7-65.5-8.1c-13.6-6.5-26.6-15.4-41.3-17.8c-18.1-3-36.4,4.1-54.6,2.3c-14-1.4-27-8-40-13.9
			c-39.5-17.8-81.3-29.4-123.8-34.4"/>
	</g>
	<g>
		<path class="st7" d="M789.9,692.6c13.5-24.1,26.9-48.1,40.4-72.2c-30.1,13.4-49.1,42.9-73.3,65.3c-13.9,12.9-34.8,23.9-50.8,13.8
			c-11.6-7.3-14.9-22.3-18.3-35.6c-8-31.1-21.9-60.7-40.8-86.7c3.4,16.5,6.4,34.1,8.8,52.8c1.8,13.5,3.1,26.5,4,39
			c-15.4-4.2-30.8-8.4-46.2-12.6c3.6,3.6,9.1,9.4,14.7,17.4c0,0,18.3,25.9,24.4,65.5c5.2,34.3-4.3,108.9-37.6,201.3
			c39.4,0.2,78.7,2.2,117.9,4.6c-0.8-5.2-4.4-10.8-7.4-15.5c-13.5-20.9-16-47.4-12-72s13.8-47.7,23.6-70.6
			c7.1-16.7,14.5-33.7,26.2-47.7c11.7-13.9,27.2-24,41.8-34.9c20.9-15.6,40.2-33.2,57.7-52.6C838.7,665.5,814.3,679,789.9,692.6z"/>
	</g>
	<g>
		<path class="st7" d="M625.5,535.5c3.7-5,9.5-16.1,21-38c5.4-10.4,12.8-24.7,15.2-29.7c6.2-12.9,17.5-42.4,20.1-102.6
			c5.3,5.9,8.3,13.7,8.4,21.6c3.6-6.3,7.3-12.6,10.9-18.9c-5.4,22.6-10.8,45.2-16.2,67.8c14.6-24.7,29.2-49.4,43.8-74.1
			c-0.3,6.6-1.8,13.1-3.8,19.4c0,0-2.7,9.5-7.1,18.7c-9.7,20.3-136.1,257.4-177.5,347.7c-6.9,15-17.3,38.7-22,71
			c-3.5,23.7-2.6,43.8-1.5,70.7c1.2,30,1.9,45,6.5,64.3c4,16.8,12.3,42,31,70c-18.9,1.9-47.4,3.8-82,2c-47.9-2.5-100.8-5.3-109-29
			c-5.1-14.9,12.7-22.5,29-63c8.6-21.5,11.5-44.3,17-89c6.4-52.1,9.6-78.2,7.1-92.8c-7.8-47-34.2-81.7-55.6-109.7
			c-14.8-19.3-23.9-26.9-27.1-29.4c-33.8-27-73.1-30.7-73-31.3c0.1-0.5,25,8.7,57.8,11.2c16.1,1.3,18.4-0.3,28,2.3
			c23.1,6.3,37.3,23.1,42.4,29.3c19.2,23.3,20.9,46.6,25.5,45.8c3.6-0.6,6-15.9,3.5-30.8c-5.7-33.2-34.4-54.2-49.8-65.2
			c-33.2-23.7-65.8-31-65-33.1c0.5-1.3,13,0.5,25.4,5c14.3,5.2,20.8,11.2,24.4,8.6c4.9-3.5-3.3-17.3,0.5-20.4
			c5.8-4.8,35.7,18.3,67.5,50.4c38.6,39.1,46.1,57.3,62.7,56.3c15.9-1,14.4-21.4,43.3-43.1c18.1-13.6,21.4-8,53.5-27
			C602.1,557.7,614.3,550.5,625.5,535.5z"/>
	</g>
	<g>
		<path class="st9" d="M466.2,678.4c-6,12.3-23.9,12.8-36.5,7.3c-12.6-5.5-23.5-15.2-37-17.6c-7-1.3-14.5-0.5-21-3.4
			c-4.4-1.9-7.9-5.3-11.4-8.5c-12.9-12.3-25.9-24.7-38.8-37c-8.5-8.1-17.3-16.4-28.3-20.4c-11.6-4.2-25.7-3.8-34.1-12.8
			c-4.8-5.1-6.7-12.4-11.5-17.5c-6.6-7.1-17-8.8-26-12.2c-32.9-12.2-51-54.3-37.2-86.5c5.4-12.6,14.8-23.8,16.9-37.3
			c1.8-12.3-2.8-24.9-1.4-37.2c4-36.9,54.7-50.6,67.9-85.3c5.7-15.1,4.4-34.3,16.9-44.6c12.7-10.5,31.6-5.2,48-7.2
			c43.4-5.1,67-60.6,110.3-66.6c8.6-1.2,17.3-0.2,26-0.6c48-1.8,91.2-42.2,138.5-33.8c18.5,3.3,35.1,13.9,53.5,17.8
			c32.4,6.9,65.1-7.5,98.1-9.8c32.5-2.3,65.7,7.5,91.7,27.2c9.1,6.9,17.5,15,28.1,19.3c10.9,4.4,22.9,4.4,34.6,5.3
			c29.1,2.3,57.7,11.3,82.9,26c17.3,10.1,34,24.2,39.5,43.5c3.2,11.1,2.5,22.9,1.7,34.4c-1.3,20.2-3.3,41.8-16.4,57.2
			c-7.5,8.8-19,16.5-18.8,28.1c0.1,5.4,2.9,10.4,5.2,15.3c13.6,28.1,14,62.3,1.1,90.8c-2.7,5.9-5.9,11.7-7.2,18
			c-2.3,11.2,1.7,23-1.3,34c-2.1,7.8-7.6,14.3-12.8,20.4c-15.7,18.3-32.5,37.5-55.5,45c-8,2.6-16.5,3.7-24.4,6.5
			c-20.1,7.1-35.4,24.5-55.9,30.2c-10.5,2.9-21.6,2.5-32.1,5.5c-16.7,4.8-30.1,17.6-46.7,22.6c-23.5,7-49.5-2.9-73.2,3.4
			c-10.1,2.7-20,8.4-30.4,6.8c-8.6-1.3-15.7-7.5-23.7-11c-15.3-6.7-32.9-3.2-49.5-1.2c-46,5.5-93.4-1.5-135.7-20.1"/>
	</g>
	<g>
		<path class="st6" d="M1266.5,558c10.1,7.8,24.8,7.9,34.9,0.1c10.1-7.8,15-22.8,11.5-35.7c16.2,3.2,32.8-14.1,30.5-31.8
			c-0.5-4-1.8-8.2-0.8-12.1c1.1-4,4.4-6.8,7.2-9.7c12.5-13.1,16.3-34.9,9.1-52c-1.7-4-3.9-8-3.6-12.4c0.3-3.6,2.3-6.8,3.7-10
			c4.8-10.9,3.4-24.6-3.5-34c-2.4-3.2-5.3-6-7-9.7c-2.8-6.2-1.4-13.6-0.8-20.5c1.1-14.2-2-29-9.8-40.5c-5-7.2-11.6-12.9-18.1-18.4
			c-18.8-16-41.9-32.9-64.6-25c-2.8,1-5.7,2.4-8.7,2.2c-3.4-0.2-6.4-2.3-9.3-4.4c-25.6-19-54.2-41.6-84.6-34.6
			c-4.9,1.1-9.6,3-14.6,3.4c-8.5,0.7-16.7-2.8-24.7-5.8c-36.4-13.5-79.8-15.4-110.3,9.9c-1.8,1.5-3.5,3.1-5.6,4.1
			c-2.7,1.3-5.7,1.5-8.7,1.7c-17,1.1-35,3.1-48.7,14.2s-20.4,34.3-9.5,48.4c-15.2,6.2-30,15.1-40,28.9
			c-10.1,13.8-14.6,33.2-8.5,49.5c2.6,7,7.2,13.6,7.1,21.2c-0.1,7.1-4.3,13.3-8.3,19c-8.8,12.5-17.6,25.5-22.1,40.4
			c-4.6,14.9-4.4,32.4,4,45.3c2.5,3.8,5.7,7.3,6.3,11.9c0.5,4.1-1.1,8.1-2,12.2c-4.1,19.3,10.5,37.2,25.2,48.8
			c2.6,2.1,5.4,4.1,7.3,7c2.7,4.1,3.3,9.2,4.5,14.1c5.7,23.5,25.2,41.3,46.9,47.4c21.7,6.1,45,1.7,65.5-8.1
			c13.6-6.5,26.6-15.4,41.3-17.8c18.1-3,36.4,4.1,54.6,2.3c14-1.4,27-8,40-13.9c39.5-17.8,81.3-29.4,123.8-34.4"/>
	</g>
	<g>
		<path class="st7" d="M1147.9,722.7c4,24.6,1.5,51.1-12,72c-2.9,4.6-6.4,10-7.3,15.1c40.4,0.6,80.7,4.5,121.1,4.6
			c-35.9-96.5-46.2-174.7-40.8-210.1c6.1-39.6,24.4-65.5,24.4-65.5c5.6-7.9,11.1-13.8,14.7-17.4c-15.4,4.2-30.8,8.4-46.2,12.6
			c0.9-12.5,2.2-25.5,4-39c2.4-18.7,5.4-36.3,8.8-52.8c-18.9,26-32.8,55.6-40.8,86.7c-3.4,13.3-6.7,28.3-18.3,35.6
			c-16,10.1-36.9-0.9-50.8-13.8c-24.1-22.4-43.2-51.9-73.3-65.3c13.5,24.1,26.9,48.1,40.4,72.2c-24.4-13.5-48.8-27.1-73.2-40.6
			c17.5,19.3,36.8,37,57.7,52.6c14.6,10.9,30.1,21,41.8,34.9c11.7,13.9,19,30.9,26.2,47.7C1134.1,675,1143.9,698.1,1147.9,722.7z"/>
	</g>
	<g>
		<path class="st8" d="M1291,749.5c10.3,8.2,24.6,6.7,33.2-3.4c5.7-6.8,9.1-16.9,16.2-21.2c4.9-3,10.7-2.6,16.2-3.5
			c10.9-1.7,21.2-8.5,28.2-18.9c3.5-5.2,6.4-11.4,10.9-15.3c7.8-6.8,19.1-5.4,26.5-12.8c10.2-10.2,8.1-31.5,16.2-44.3
			c3.6-5.7,8.8-9.2,13.1-14s7.8-11.9,6.3-19.2c-1.6-7.4-8-12.7-8.2-20.3c-0.2-5,2.4-9.1,4.6-13.2c9.1-17.3,11.3-40.5,5.8-60.8
			c-5.5-20.4-18.7-37.5-34.6-45.2c-4.8-2.3-9.9-3.8-14.2-7.4c-3.5-2.9-6.3-6.9-9.1-10.9c-8.6-12.2-19.7-25.1-32.3-23.4
			c-2.8,0.4-5.5,1.5-8.3,0.9c-2.6-0.6-4.8-2.5-6.9-4.6c-14.9-14.7-28.4-36.7-46.9-37.2c-9.5-0.3-18.6,5.5-28.1,4.5
			c-10-1.1-18.6-9.4-27.5-15.6c-22.3-15.3-49.7-17.2-72.3-4.9c-4.3,2.3-8.6,5.2-13.3,5.2c-3.3,0-6.6-1.3-9.9-2.5
			c-12.9-4.7-26.3-6.5-39.5-5.4c-14.3,1.2-30.5,8.6-33.6,26.2c-0.6,3.4-0.7,7.2-2.3,10c-1.1,2-2.9,3.1-4.7,4.2
			c-13.2,8.2-28.7,14.5-35.2,31.1c-5.8,14.8-2.2,33.1,3.5,48.5c0.9,2.6,2,5.2,2,8c0,4-2.2,7.3-4.3,10.3
			c-12.5,17.8-25.1,41.6-17.6,64.4c3.4,10.1,10.6,19.8,8.7,30.2c-1,5.5-4.4,9.5-7.1,14c-11.9,20.1-6.4,53.5,11,67.5
			c3.9,3.1,8.3,5.5,11.3,9.9c4.4,6.6,4.3,16,6.1,24.2c5.3,23.8,25.9,36.3,44.1,45.6c13.4,6.8,27,13.7,41.3,14.6
			c10.8,0.7,21.5-2.2,32.1-3.9c11-1.8,22.1-2.3,33.2-2.9c33.1-1.6,66.3-3.3,99.4-4.9"/>
	</g>
	<g>
		<path class="st7" d="M1257.3,852.6c-2.5,8.1-5.4,18.1-2.4,25.4c24.9,3.2,50,4.9,74.9,7.7c-9.5-22.5-20.3-55-25.2-95.7
			c-6.4-53.6,0.8-94.4,4.5-114.5c9.8-53.1,28.5-91.9,42.6-116c-48.2,41.6-65.8,73.4-72.3,95.9c-1.5,5.3-5.9,21.3-16.4,25.7
			c-10.3,4.3-21-5.6-30.3-13.6c-32.4-28.1-71.5-38.7-109.5-48.7c20.9,14.6,41.8,29.1,62.7,43.7c13,9,26,18.2,37.4,30.2
			C1259.6,731,1274,799,1257.3,852.6z"/>
	</g>
	<g>
		<path class="st6" d="M1502.5,682c10.1,7.8,24.8,7.9,34.9,0.1c10.1-7.8,15-22.8,11.5-35.7c16.2,3.2,32.8-14.1,30.5-31.8
			c-0.5-4-1.8-8.2-0.8-12.1c1.1-4,4.4-6.8,7.2-9.7c12.5-13.1,16.3-34.9,9.1-52c-1.7-4-3.9-8-3.6-12.4c0.3-3.6,2.3-6.8,3.7-10
			c4.8-10.9,3.4-24.6-3.5-34c-2.4-3.2-5.3-6-7-9.7c-2.8-6.2-1.4-13.6-0.8-20.5c1.1-14.2-2-29-9.8-40.5c-5-7.2-11.6-12.9-18.1-18.4
			c-18.8-16-41.9-32.9-64.6-25c-2.8,1-5.7,2.4-8.7,2.2c-3.4-0.2-6.4-2.3-9.3-4.4c-25.6-19-54.2-41.6-84.6-34.6
			c-4.9,1.1-9.6,3-14.6,3.4c-8.5,0.7-16.7-2.8-24.7-5.8c-36.4-13.5-79.8-15.4-110.3,9.9c-1.8,1.5-3.5,3.1-5.6,4.1
			c-2.7,1.3-5.7,1.5-8.7,1.7c-17,1.1-35,3.1-48.7,14.2s-20.4,34.3-9.5,48.4c-15.2,6.2-30,15.1-40,28.9
			c-10.1,13.8-14.6,33.2-8.5,49.5c2.6,7,7.2,13.6,7.1,21.2c-0.1,7.1-4.3,13.3-8.3,19c-8.8,12.5-17.6,25.5-22.1,40.4
			s-4.4,32.4,4,45.3c2.5,3.8,5.7,7.3,6.3,11.9c0.5,4.1-1.1,8.1-2,12.2c-4.1,19.3,10.5,37.2,25.2,48.8c2.6,2.1,5.4,4.1,7.3,7
			c2.7,4.1,3.3,9.2,4.5,14.1c5.7,23.5,25.2,41.3,46.9,47.4c21.7,6.1,45,1.7,65.5-8.1c13.6-6.5,26.6-15.4,41.3-17.8
			c18.1-3,36.4,4.1,54.6,2.3c14-1.4,27-8,40-13.9c39.5-17.8,81.3-29.4,123.8-34.4"/>
	</g>
	<g>
		<path class="st7" d="M1383.9,846.7c4,24.6,1.5,51.1-12,72c-2.9,4.5-6.3,9.8-7.3,14.8c40.2,0.9,80.4,1.1,120.5,3.5
			c-35.5-95.8-45.7-173.4-40.3-208.6c6.1-39.6,24.4-65.5,24.4-65.5c5.6-7.9,11.1-13.8,14.7-17.4c-15.4,4.2-30.8,8.4-46.2,12.6
			c0.9-12.5,2.2-25.5,4-39c2.4-18.7,5.4-36.3,8.8-52.8c-18.9,26-32.8,55.6-40.8,86.7c-3.4,13.3-6.7,28.3-18.3,35.6
			c-16,10.1-36.9-0.9-50.8-13.8c-24.1-22.4-43.2-51.9-73.3-65.3c13.5,24.1,26.9,48.1,40.4,72.2c-24.4-13.5-48.8-27.1-73.2-40.6
			c17.5,19.3,36.8,37,57.7,52.6c14.6,10.9,30.1,21,41.8,34.9c11.7,13.9,19,30.9,26.2,47.7C1370.1,799,1379.9,822.1,1383.9,846.7z"/>
	</g>
	<g>
		<path class="st7" d="M1510.2,852.5c3.5,23.7,2.6,43.8,1.5,70.7c-1.2,30-1.9,45-6.5,64.3c-3.1,12.9-8.7,30.7-19.6,51
			c4.9-0.3,9.9-0.1,14.8,0.1c10,0.3,20.1,0.1,30.2,0c20.1-0.1,40.2-0.1,60.3,0.2c22.5,0.3,44.9,0.9,67.4,1.3
			c3.3-2.8,5.6-5.9,6.9-9.6c5.1-14.9-12.7-22.5-29-63c-8.6-21.5-11.5-44.3-17-89c-6.4-52.1-9.6-78.2-7.1-92.8
			c7.8-47,34.2-81.7,55.6-109.7c14.8-19.3,23.9-26.9,27.1-29.4c15.4-12.3,32-19.8,45.4-24.3c-8.7,1.8-19,3.4-30.2,4.3
			c-16.1,1.3-18.4-0.3-28,2.3c-23.1,6.3-37.3,23.1-42.4,29.3c-19.2,23.3-20.9,46.6-25.5,45.8c-3.6-0.6-6-15.9-3.5-30.8
			c5.7-33.2,34.4-54.2,49.8-65.2c33.2-23.7,65.8-31,65-33.1c-0.5-1.3-13,0.5-25.4,5c-14.3,5.2-20.8,11.2-24.4,8.6
			c-4.9-3.5,3.3-17.3-0.5-20.4c-5.8-4.8-35.7,18.3-67.5,50.4c-38.6,39.1-46.1,57.3-62.7,56.3c-15.9-1-14.4-21.4-43.3-43.1
			c-18.1-13.6-21.4-8-53.5-27c-21.6-12.8-33.8-20-45-35c-3.7-5-9.5-16.1-21-38c-5.4-10.4-12.8-24.7-15.2-29.7
			c-6.2-12.9-17.5-42.4-20.1-102.6c-5.3,5.9-8.3,13.7-8.4,21.6c-3.6-6.3-7.3-12.6-10.9-18.9c5.4,22.6,10.8,45.2,16.2,67.8
			c-14.6-24.7-29.2-49.4-43.8-74.1c0.3,6.6,1.8,13.1,3.8,19.4c0,0,2.7,9.5,7.1,18.7c9.7,20.3,136.1,257.4,177.5,347.7
			C1495.1,796.5,1505.5,820.2,1510.2,852.5z"/>
	</g>
	<g>
		<path class="st10" d="M1740.2,622.3c12.8-2.6,22.1-5.5,25.8-6.5C1762.2,616.5,1752.5,618.2,1740.2,622.3z"/>
	</g>
	<g>
		<path class="st9" d="M1610.5,679.4c6,12.3,23.9,12.8,36.5,7.3c12.6-5.5,23.5-15.2,37-17.6c7-1.3,14.5-0.5,21-3.4
			c4.4-1.9,7.9-5.3,11.4-8.5c12.9-12.3,25.9-24.7,38.8-37c8.5-8.1,17.3-16.4,28.3-20.4c11.6-4.2,25.7-3.8,34.1-12.8
			c4.8-5.1,6.7-12.4,11.5-17.5c6.6-7.1,16.9-8.8,26-12.2c32.9-12.2,51-54.3,37.2-86.5c-5.4-12.6-14.8-23.8-16.9-37.3
			c-1.8-12.3,2.8-24.9,1.4-37.2c-4-36.9-54.7-50.6-67.9-85.3c-5.7-15.1-4.4-34.3-16.9-44.6c-12.7-10.5-31.6-5.2-48-7.2
			c-43.4-5.1-67-60.6-110.3-66.6c-8.6-1.2-17.3-0.2-26-0.6c-48-1.8-91.2-42.2-138.5-33.8c-18.5,3.3-35.1,13.9-53.5,17.8
			c-32.4,6.9-65.1-7.5-98.1-9.8c-32.5-2.3-65.7,7.5-91.7,27.2c-9.1,6.9-17.5,15-28.1,19.3c-10.9,4.4-22.9,4.4-34.6,5.3
			c-29.1,2.3-57.7,11.3-82.9,26c-17.3,10.1-34,24.2-39.5,43.5c-3.2,11.1-2.5,22.9-1.7,34.4c1.3,20.2,3.3,41.8,16.4,57.2
			c7.5,8.8,19,16.5,18.8,28.1c-0.1,5.4-2.9,10.4-5.2,15.3c-13.6,28.1-14,62.3-1.1,90.8c2.7,5.9,5.9,11.7,7.2,18
			c2.3,11.2-1.7,23,1.3,34c2.1,7.8,7.6,14.3,12.8,20.4c15.7,18.3,32.5,37.5,55.5,45c8,2.6,16.5,3.7,24.4,6.5
			c20.1,7.1,35.4,24.5,55.9,30.2c10.5,2.9,21.6,2.5,32.1,5.5c16.7,4.8,30.1,17.6,46.7,22.6c23.5,7,49.5-2.9,73.2,3.4
			c10.1,2.7,20,8.4,30.4,6.8c8.6-1.3,15.7-7.5,23.7-11c15.3-6.7,32.9-3.2,49.5-1.2c46,5.5,93.4-1.5,135.7-20.1"/>
	</g>
	<g>
		<path class="st11" d="M1385,557c12,24.9-9.3,51.9-11,54c-2.8,3.5-19.2,22.8-46,22c-23.4-0.7-37.6-16.3-40-19
			c-11.7-13.3-21.2-36.9-11-57c12.9-25.5,47.3-25.1,55-25C1339.5,532.1,1373.1,532.5,1385,557z"/>
		<g>
			<g>
				<path class="st12" d="M1313.5,542.2c10.5,6.1,23.9,6.3,34.6,0.4c1.7-0.9,0.2-3.5-1.5-2.6c-9.7,5.3-22,5.2-31.6-0.4
					C1313.3,538.6,1311.8,541.2,1313.5,542.2L1313.5,542.2z"/>
			</g>
		</g>
		<g>
			<g>
				<path class="st12" d="M1332,544.6c1.4-8,4.4-15.7,8.9-22.5c1.1-1.6-1.5-3.1-2.6-1.5c-4.6,7-7.7,14.9-9.2,23.2
					C1328.8,545.7,1331.7,546.5,1332,544.6L1332,544.6z"/>
			</g>
		</g>
		<path class="st13" d="M1378.6,579.7c-0.8,13.1-10.3,23.1-11.6,22.5c-0.8-0.4,2.3-5.5,4.6-16.5c2.8-13.9,1.1-22.7,2.5-22.9
			C1375.4,562.6,1379.1,570.7,1378.6,579.7z"/>
	</g>
	<g>
		<path class="st11" d="M1764,422c12,24.9-9.3,51.9-11,54c-2.8,3.5-19.2,22.8-46,22c-23.4-0.7-37.6-16.3-40-19
			c-11.7-13.3-21.2-36.9-11-57c12.9-25.5,47.3-25.1,55-25C1718.5,397.1,1752.1,397.5,1764,422z"/>
		<g>
			<g>
				<path class="st12" d="M1692.5,407.2c10.5,6.1,23.9,6.3,34.6,0.4c1.7-0.9,0.2-3.5-1.5-2.6c-9.7,5.3-22,5.2-31.6-0.4
					C1692.3,403.6,1690.8,406.2,1692.5,407.2L1692.5,407.2z"/>
			</g>
		</g>
		<g>
			<g>
				<path class="st12" d="M1711,409.6c1.4-8,4.4-15.7,8.9-22.5c1.1-1.6-1.5-3.1-2.6-1.5c-4.6,7-7.7,14.9-9.2,23.2
					C1707.8,410.7,1710.7,411.5,1711,409.6L1711,409.6z"/>
			</g>
		</g>
		<path class="st13" d="M1757.6,444.7c-0.8,13.1-10.3,23.1-11.6,22.5c-0.8-0.4,2.3-5.5,4.6-16.5c2.8-13.9,1.1-22.7,2.5-22.9
			C1754.4,427.6,1758.1,435.7,1757.6,444.7z"/>
	</g>
	<g>
		<path class="st11" d="M1399,275c12,24.9-9.3,51.9-11,54c-2.8,3.5-19.2,22.8-46,22c-23.4-0.7-37.6-16.3-40-19
			c-11.7-13.3-21.2-36.9-11-57c12.9-25.5,47.3-25.1,55-25C1353.5,250.1,1387.1,250.5,1399,275z"/>
		<g>
			<g>
				<path class="st12" d="M1327.5,260.2c10.5,6.1,23.9,6.3,34.6,0.4c1.7-0.9,0.2-3.5-1.5-2.6c-9.7,5.3-22,5.2-31.6-0.4
					C1327.3,256.6,1325.8,259.2,1327.5,260.2L1327.5,260.2z"/>
			</g>
		</g>
		<g>
			<g>
				<path class="st12" d="M1346,262.6c1.4-8,4.4-15.7,8.9-22.5c1.1-1.6-1.5-3.1-2.6-1.5c-4.6,7-7.7,14.9-9.2,23.2
					C1342.8,263.7,1345.7,264.5,1346,262.6L1346,262.6z"/>
			</g>
		</g>
		<path class="st13" d="M1392.6,297.7c-0.8,13.1-10.3,23.1-11.6,22.5c-0.8-0.4,2.3-5.5,4.6-16.5c2.8-13.9,1.1-22.7,2.5-22.9
			C1389.4,280.6,1393.1,288.7,1392.6,297.7z"/>
	</g>
	<g>
		<path class="st11" d="M766,497c12,24.9-9.3,51.9-11,54c-2.8,3.5-19.2,22.8-46,22c-23.4-0.7-37.6-16.3-40-19
			c-11.7-13.3-21.2-36.9-11-57c12.9-25.5,47.3-25.1,55-25C720.5,472.1,754.1,472.5,766,497z"/>
		<g>
			<g>
				<path class="st12" d="M694.5,482.2c10.5,6.1,23.9,6.3,34.6,0.4c1.7-0.9,0.2-3.5-1.5-2.6c-9.7,5.3-22,5.2-31.6-0.4
					C694.3,478.6,692.8,481.2,694.5,482.2L694.5,482.2z"/>
			</g>
		</g>
		<g>
			<g>
				<path class="st12" d="M713,484.6c1.4-8,4.4-15.7,8.9-22.5c1.1-1.6-1.5-3.1-2.6-1.5c-4.6,7-7.7,14.9-9.2,23.2
					C709.8,485.7,712.7,486.5,713,484.6L713,484.6z"/>
			</g>
		</g>
		<path class="st13" d="M759.6,519.7c-0.8,13.1-10.3,23.1-11.6,22.5c-0.8-0.4,2.3-5.5,4.6-16.5c2.8-13.9,1.1-22.7,2.5-22.9
			C756.4,502.6,760.1,510.7,759.6,519.7z"/>
	</g>
	<g>
		<path class="st11" d="M524,280c12,24.9-9.3,51.9-11,54c-2.8,3.5-19.2,22.8-46,22c-23.4-0.7-37.6-16.3-40-19
			c-11.7-13.3-21.2-36.9-11-57c12.9-25.5,47.3-25.1,55-25C478.5,255.1,512.1,255.5,524,280z"/>
		<g>
			<g>
				<path class="st12" d="M452.5,265.2c10.5,6.1,23.9,6.3,34.6,0.4c1.7-0.9,0.2-3.5-1.5-2.6c-9.7,5.3-22,5.2-31.6-0.4
					C452.3,261.6,450.8,264.2,452.5,265.2L452.5,265.2z"/>
			</g>
		</g>
		<g>
			<g>
				<path class="st12" d="M471,267.6c1.4-8,4.4-15.7,8.9-22.5c1.1-1.6-1.5-3.1-2.6-1.5c-4.6,7-7.7,14.9-9.2,23.2
					C467.8,268.7,470.7,269.5,471,267.6L471,267.6z"/>
			</g>
		</g>
		<path class="st13" d="M517.6,302.7c-0.8,13.1-10.3,23.1-11.6,22.5c-0.8-0.4,2.3-5.5,4.6-16.5c2.8-13.9,1.1-22.7,2.5-22.9
			C514.4,285.6,518.1,293.7,517.6,302.7z"/>
	</g>
	<g>
		<path class="st14" d="M463.3,804.6c-1.6,0.7-11.1,4.7-21.1-0.6c-10.4-5.5-13.2-16.7-13.7-18.5
			C440.1,791.8,451.7,798.2,463.3,804.6z"/>
		<path class="st14" d="M473.2,805.5c1.5,1,10.1,6.6,20.9,3.2c11.2-3.5,16.1-14.1,16.8-15.7C498.3,797.1,485.7,801.3,473.2,805.5z"
			/>
	</g>
	<g>
		<path class="st15" d="M1555.6,852.8c-1.6,0.8-11,5.1-21.1,0.2c-10.6-5.1-13.9-16.2-14.4-18
			C1531.9,840.9,1543.7,846.9,1555.6,852.8z"/>
		<path class="st15" d="M1565.5,853.3c1.5,0.9,10.4,6.2,21,2.4c11.1-4,15.5-14.7,16.2-16.4C1590.3,844,1577.9,848.7,1565.5,853.3z"
			/>
	</g>
	<g>
		<path class="st14" d="M1405.1,795c-0.9,0.8-6.3,5-13.2,1.9c-7.2-3.3-10.4-12-10.9-13.4C1389.1,787.3,1397.1,791.2,1405.1,795z"/>
		<path class="st14" d="M1411.4,794.6c1,0.6,7.1,4.2,13.4,0.2c6.5-4.1,8.1-13.2,8.3-14.7C1425.8,785,1418.6,789.8,1411.4,794.6z"/>
	</g>
	<g>
		<path class="st16" d="M1281.5,778.7c-0.5,0.6-3.3,4-6.8,1.5c-3.7-2.6-5.4-9.4-5.6-10.5C1273.2,772.6,1277.4,775.7,1281.5,778.7z"
			/>
		<path class="st16" d="M1284.8,778.3c0.5,0.5,3.7,3.3,6.9,0.2c3.4-3.3,4.2-10.4,4.3-11.5C1292.3,770.8,1288.5,774.6,1284.8,778.3z"
			/>
	</g>
	<g>
		<path class="st14" d="M812.2,799.6c-0.5,0.6-3.6,3.7-6.9,0.9c-3.5-2.9-4.6-9.8-4.8-11C804.4,792.9,808.3,796.2,812.2,799.6z"/>
		<path class="st14" d="M815.4,799.5c0.5,0.5,3.4,3.6,6.9,0.7c3.6-3,5-10,5.2-11.1C823.5,792.6,819.5,796.1,815.4,799.5z"/>
	</g>
	<g>
		<path class="st14" d="M685.3,810.8c-0.9,0.6-6,3.8-11.4-0.5c-5.6-4.4-7.2-13.5-7.4-14.9C672.8,800.6,679,805.7,685.3,810.8z"/>
		<path class="st14" d="M690.6,811.5c0.8,0.8,5.5,5.3,11.3,2.6c6.1-2.8,8.7-11.3,9.1-12.7C704.2,804.8,697.4,808.2,690.6,811.5z"/>
	</g>
	<path d="M483.6,844.6c0.3-11.2-8.2-21.1-19.8-22.6c-11.7-1.4-22.3,6.1-24.7,17.1L483.6,844.6z"/>
	<g>
		<path d="M673.2,828.1c0.4-3.8,5.7-6,8.7-3.6c0.8,0.6,1.4,1.4,2.4,1.6c2.2,0.4,4.2-3.1,6.2-2c2,1.2-0.3,4.8,1.2,6.6
			c2.1-0.5,4.2-1.1,6.3-1.6c0.5-0.1,1.1-0.3,1.6-0.1c1.2,0.4,1.3,2,1.1,3.2c-0.7,4.4-2.5,8.7-5.2,12.3c-1.6,0-1.8-2.3-2.8-3.5
			c-1.6-1.7-4.4-0.2-6.1,1.4c-1.6,1.7-3.6,3.8-5.8,3.1c-1.8-0.5-2.6-2.6-3.9-4c-2.2-2.3-6.3-2.3-8.5,0.1c-0.8-4.6,0.9-9.6,4.4-12.8"
			/>
	</g>
	<g>
		<g>
			<path d="M1542.8,888.6c6.4-4.5,13.2-9.2,21.1-10.3c3.8-0.6,7.7-0.2,11.1,1.4c3.4,1.5,6.3,3.9,8.9,6.5c1.4,1.3,3.5-0.8,2.1-2.1
				c-2.9-2.8-6-5.4-9.7-7.1c-3.8-1.7-7.9-2.3-12-1.8c-8.7,1-16,5.9-23.1,10.8C1539.7,887.2,1541.2,889.8,1542.8,888.6L1542.8,888.6z
				"/>
		</g>
	</g>
</g>
</svg>
