<?xml version="1.0" encoding="utf-8"?>
<!-- Generator: Adobe Illustrator 23.0.5, SVG Export Plug-In . SVG Version: 6.00 Build 0)  -->
<svg version="1.1" id="圖層_1" xmlns="http://www.w3.org/2000/svg" xmlns:xlink="http://www.w3.org/1999/xlink" x="0px" y="0px"
	 viewBox="0 0 1920 1080" style="enable-background:new 0 0 1920 1080;" xml:space="preserve">
<style type="text/css">
	.st0{fill:url(#SVGID_1_);}
	.st1{fill:url(#SVGID_2_);}
	.st2{fill:url(#SVGID_3_);}
	.st3{fill:#719069;}
	.st4{fill:#7F7478;}
	.st5{fill:#8E6D40;}
	.st6{fill:#544D45;}
	.st7{fill:#8FA45B;}
	.st8{fill:#889F58;}
	.st9{fill:#597C52;}
	.st10{fill:#E2403E;}
	.st11{fill:#691F1A;}
	.st12{fill:#F7E9E2;}
</style>
<linearGradient id="SVGID_1_" gradientUnits="userSpaceOnUse" x1="-765.0906" y1="514.4152" x2="-435.9543" y2="1007.7477" gradientTransform="matrix(-1 0 0 1 998 0)">
	<stop  offset="0.2604" style="stop-color:#DFDA84"/>
	<stop  offset="1" style="stop-color:#AAB75C"/>
</linearGradient>
<path class="st0" d="M1549.8,1080H1919c0-116,0-232,0-348c-111.6-7.5-229.2-11.6-352.2-11c-175.3,0.8-340,10.9-492.8,27
	C1232.6,858.7,1391.2,969.3,1549.8,1080z"/>
<linearGradient id="SVGID_2_" gradientUnits="userSpaceOnUse" x1="957.4545" y1="704.1373" x2="960.3281" y2="94.0056">
	<stop  offset="0.1707" style="stop-color:#DCEFEB"/>
	<stop  offset="0.4265" style="stop-color:#C8E6E1"/>
	<stop  offset="1" style="stop-color:#9ED2CC"/>
</linearGradient>
<rect x="-1" class="st1" width="1920" height="752"/>
<linearGradient id="SVGID_3_" gradientUnits="userSpaceOnUse" x1="200.1228" y1="467.5208" x2="577.7435" y2="1033.5251">
	<stop  offset="0.2604" style="stop-color:#DFDA84"/>
	<stop  offset="1" style="stop-color:#AAB75C"/>
</linearGradient>
<path class="st2" d="M435,1080H-1c0-116,0-232,0-348c131.8-7.5,270.7-11.6,416-11c207,0.8,401.6,10.9,582,27
	C809.7,858.7,622.3,969.3,435,1080z"/>
<g>
	<path class="st3" d="M299.3,591.8c-12.9,7.1-25.5-9-36.8-18.4C244,558.1,216,559,197.2,544c-12.7-10.1-19.5-27-17.5-43
		c2-16,12.9-30.7,27.7-37.3c6.1-2.7,13-4.3,18.1-8.7c11.6-10.2,8.7-31.3,21.3-40.3c10.9-7.8,26.4-1.7,39.1-5.9
		c10.7-3.5,17.8-13.7,28-18.5c22.9-10.9,47.5,8.8,69.7,21.2c19.9,11.2,46.1,21.5,48.3,44.3c1.3,14-7.7,29.7,0.2,41.4
		c3.3,4.8,8.9,7.8,11.6,12.9c2.5,4.9,1.9,10.8,2.6,16.3c1.5,11.6,9.2,21.4,11.8,32.8c3.8,16.2-3.9,34.2-17.7,43.5s-32.7,10-47.6,2.6
		c-8.1-4-15.1-10.1-23.6-12.9c-25.3-8.6-57.8,12.7-77.9-5"/>
</g>
<g>
	<path class="st4" d="M458.1,745.1c11.8-46.8,17.3-95.3,16.3-143.6c-0.2-8.1-0.8-16.9-6.3-22.9c-5.9-6.4-15.5-7.4-23.4-10.9
		c-12-5.3-20.8-17.3-22.2-30.3c9,5.8,17.9,11.6,26.9,17.4c3.5,2.3,8,4.6,11.7,2.6c4.8-2.6,3.6-9.7,1.8-14.8
		c-3-8.7-6.1-17.5-9.1-26.2c9.9,5.6,17.8,14.8,21.8,25.5c1.6,4.2,2.6,8.8,5.2,12.5s7.2,6.6,11.6,5.2c3.9-1.2,6-5.2,7.8-8.8
		c3.9-8,7.9-15.9,11.8-23.9c7.2,22.1-1.4,45.7-8.2,67.9c-13.3,43.3-19.8,88.7-19.3,134c0,2.5,0,5.2-1.5,7.2
		c-1.1,1.5-2.9,2.4-4.6,3.1c-7.1,3.2-16.9,5.8-21.3-0.5"/>
</g>
<g>
	<path class="st3" d="M461.3,584.8c-12.9,7.1-25.5-9-36.8-18.4C406,551.1,378,552,359.2,537c-12.7-10.1-19.5-27-17.5-43
		c2-16,12.9-30.7,27.7-37.3c6.1-2.7,13-4.3,18.1-8.7c11.6-10.2,8.7-31.3,21.3-40.3c10.9-7.8,26.4-1.7,39.1-5.9
		c10.7-3.5,17.8-13.7,28-18.5c22.9-10.9,47.5,8.8,69.7,21.2c19.9,11.2,46.1,21.5,48.3,44.3c1.3,14-7.7,29.7,0.2,41.4
		c3.3,4.8,8.9,7.8,11.6,12.9c2.5,4.9,1.9,10.8,2.6,16.3c1.5,11.6,9.2,21.4,11.8,32.8c3.8,16.2-3.9,34.2-17.7,43.5s-32.7,10-47.6,2.6
		c-8.1-4-15.1-10.1-23.6-12.9c-25.3-8.6-57.8,12.7-77.9-5"/>
</g>
<g>
	<g>
		<path class="st4" d="M156.1,781.1c11.8-46.8,17.3-95.3,16.3-143.6c-0.2-8.1-0.8-16.9-6.3-22.9c-5.9-6.4-15.5-7.4-23.4-10.9
			c-12-5.3-20.8-17.3-22.2-30.3c9,5.8,17.9,11.6,26.9,17.4c3.5,2.3,8,4.6,11.7,2.6c4.8-2.6,3.6-9.7,1.8-14.8
			c-3-8.7-6.1-17.5-9.1-26.2c9.9,5.6,17.8,14.8,21.8,25.5c1.6,4.2,2.6,8.8,5.2,12.5c2.5,3.7,7.2,6.6,11.6,5.2c3.9-1.2,6-5.2,7.8-8.8
			c3.9-8,7.9-15.9,11.8-23.9c7.2,22.1-1.4,45.7-8.2,67.9c-13.3,43.3-19.8,88.7-19.3,134c0,2.5,0,5.2-1.5,7.2
			c-1.1,1.5-2.9,2.4-4.6,3.1c-7.1,3.2-16.9,5.8-21.3-0.5"/>
	</g>
	<g>
		<path class="st3" d="M159.3,620.8c-12.9,7.1-25.5-9-36.8-18.4C104,587.1,76,588,57.2,573c-12.7-10.1-19.5-27-17.5-43
			c2-16,12.9-30.7,27.7-37.3c6.1-2.7,13-4.3,18.1-8.7c11.6-10.2,8.7-31.3,21.3-40.3c10.9-7.8,26.4-1.7,39.1-5.9
			c10.7-3.5,17.8-13.7,28-18.5c22.9-10.9,47.5,8.8,69.7,21.2c19.9,11.2,46.1,21.5,48.3,44.3c1.3,14-7.7,29.7,0.2,41.4
			c3.3,4.8,8.9,7.8,11.6,12.9c2.5,4.9,1.9,10.8,2.6,16.3c1.5,11.6,9.2,21.4,11.8,32.8c3.8,16.2-3.9,34.2-17.7,43.5
			s-32.7,10-47.6,2.6c-8.1-4-15.1-10.1-23.6-12.9c-25.3-8.6-57.8,12.7-77.9-5"/>
	</g>
	<g>
		<path class="st4" d="M296.1,752.1c11.8-46.8,17.3-95.3,16.3-143.6c-0.2-8.1-0.8-16.9-6.3-22.9c-5.9-6.4-15.5-7.4-23.4-10.9
			c-12-5.3-20.8-17.3-22.2-30.3c9,5.8,17.9,11.6,26.9,17.4c3.5,2.3,8,4.6,11.7,2.6c4.8-2.6,3.6-9.7,1.8-14.8
			c-3-8.7-6.1-17.5-9.1-26.2c9.9,5.6,17.8,14.8,21.8,25.5c1.6,4.2,2.6,8.8,5.2,12.5s7.2,6.6,11.6,5.2c3.9-1.2,6-5.2,7.8-8.8
			c3.9-8,7.9-15.9,11.8-23.9c7.2,22.1-1.4,45.7-8.2,67.9c-13.3,43.3-19.8,88.7-19.3,134c0,2.5,0,5.2-1.5,7.2
			c-1.1,1.5-2.9,2.4-4.6,3.1c-7.1,3.2-16.9,5.8-21.3-0.5"/>
	</g>
	<g>
		<path class="st4" d="M585.1,750.1c11.8-46.8,17.3-95.3,16.3-143.6c-0.2-8.1-0.8-16.9-6.3-22.9c-5.9-6.4-15.5-7.4-23.4-10.9
			c-12-5.3-20.8-17.3-22.2-30.3c9,5.8,17.9,11.6,26.9,17.4c3.5,2.3,8,4.6,11.7,2.6c4.8-2.6,3.6-9.7,1.8-14.8
			c-3-8.7-6.1-17.5-9.1-26.2c9.9,5.6,17.8,14.8,21.8,25.5c1.6,4.2,2.6,8.8,5.2,12.5c2.5,3.7,7.2,6.6,11.6,5.2c3.9-1.2,6-5.2,7.8-8.8
			c3.9-8,7.9-15.9,11.8-23.9c7.2,22.1-1.4,45.7-8.2,67.9c-13.3,43.3-19.8,88.7-19.3,134c0,2.5,0,5.2-1.5,7.2
			c-1.1,1.5-2.9,2.4-4.6,3.1c-7.1,3.2-16.9,5.8-21.3-0.5"/>
	</g>
</g>
<g>
	<g>
		<path class="st4" d="M1798.9,813.1c-11.8-46.8-17.3-95.3-16.3-143.6c0.2-8.1,0.8-16.9,6.3-22.9c5.9-6.4,15.5-7.4,23.4-10.9
			c12-5.3,20.8-17.3,22.2-30.3c-9,5.8-17.9,11.6-26.9,17.4c-3.5,2.3-8,4.6-11.7,2.6c-4.8-2.6-3.6-9.7-1.8-14.8
			c3-8.7,6.1-17.5,9.1-26.2c-9.9,5.6-17.8,14.8-21.8,25.5c-1.6,4.2-2.6,8.8-5.2,12.5c-2.5,3.7-7.2,6.6-11.6,5.2
			c-3.9-1.2-6-5.2-7.8-8.8c-3.9-8-7.9-15.9-11.8-23.9c-7.2,22.1,1.4,45.7,8.2,67.9c13.3,43.3,19.8,88.7,19.3,134
			c0,2.5,0,5.2,1.5,7.2c1.1,1.5,2.9,2.4,4.6,3.1c7.1,3.2,16.9,5.8,21.3-0.5"/>
	</g>
	<g>
		<path class="st3" d="M1795.6,652.8c12.9,7.1,25.5-9,36.8-18.4c18.5-15.3,46.5-14.5,65.4-29.5c12.7-10.1,19.5-27,17.5-43
			c-2-16-12.9-30.7-27.7-37.3c-6.1-2.7-13-4.3-18.1-8.7c-11.6-10.2-8.7-31.3-21.3-40.3c-10.9-7.8-26.4-1.7-39.1-5.9
			c-10.7-3.5-17.8-13.7-28-18.5c-22.9-10.9-47.5,8.8-69.7,21.2c-19.9,11.2-46.1,21.5-48.3,44.3c-1.3,14,7.7,29.7-0.2,41.4
			c-3.3,4.8-8.9,7.8-11.6,12.9c-2.5,4.9-1.9,10.8-2.6,16.3c-1.5,11.6-9.2,21.4-11.8,32.8c-3.8,16.2,3.9,34.2,17.7,43.5
			c13.8,9.3,32.7,10,47.6,2.6c8.1-4,15.1-10.1,23.6-12.9c25.3-8.6,57.8,12.7,77.9-5"/>
	</g>
	<g>
		<path class="st4" d="M1658.9,784.1c-11.8-46.8-17.3-95.3-16.3-143.6c0.2-8.1,0.8-16.9,6.3-22.9c5.9-6.4,15.5-7.4,23.4-10.9
			c12-5.3,20.8-17.3,22.2-30.3c-9,5.8-17.9,11.6-26.9,17.4c-3.5,2.3-8,4.6-11.7,2.6c-4.8-2.6-3.6-9.7-1.8-14.8
			c3-8.7,6.1-17.5,9.1-26.2c-9.9,5.6-17.8,14.8-21.8,25.5c-1.6,4.2-2.6,8.8-5.2,12.5c-2.5,3.7-7.2,6.6-11.6,5.2
			c-3.9-1.2-6-5.2-7.8-8.8c-3.9-8-7.9-15.9-11.8-23.9c-7.2,22.1,1.4,45.7,8.2,67.9c13.3,43.3,19.8,88.7,19.3,134
			c0,2.5,0,5.2,1.5,7.2c1.1,1.5,2.9,2.4,4.6,3.1c7.1,3.2,16.9,5.8,21.3-0.5"/>
	</g>
	<g>
		<path class="st4" d="M1369.9,782.1c-11.8-46.8-17.3-95.3-16.3-143.6c0.2-8.1,0.8-16.9,6.3-22.9c5.9-6.4,15.5-7.4,23.4-10.9
			c12-5.3,20.8-17.3,22.2-30.3c-9,5.8-17.9,11.6-26.9,17.4c-3.5,2.3-8,4.6-11.7,2.6c-4.8-2.6-3.6-9.7-1.8-14.8
			c3-8.7,6.1-17.5,9.1-26.2c-9.9,5.6-17.8,14.8-21.8,25.5c-1.6,4.2-2.6,8.8-5.2,12.5c-2.5,3.7-7.2,6.6-11.6,5.2
			c-3.9-1.2-6-5.2-7.8-8.8c-3.9-8-7.9-15.9-11.8-23.9c-7.2,22.1,1.4,45.7,8.2,67.9c13.3,43.3,19.8,88.7,19.3,134
			c0,2.5,0,5.2,1.5,7.2c1.1,1.5,2.9,2.4,4.6,3.1c7.1,3.2,16.9,5.8,21.3-0.5"/>
	</g>
</g>
<g>
	<path class="st3" d="M588.3,589.8c-12.9,7.1-25.5-9-36.8-18.4C533,556.1,505,557,486.2,542c-12.7-10.1-19.5-27-17.5-43
		c2-16,12.9-30.7,27.7-37.3c6.1-2.7,13-4.3,18.1-8.7c11.6-10.2,8.7-31.3,21.3-40.3c10.9-7.8,26.4-1.7,39.1-5.9
		c10.7-3.5,17.8-13.7,28-18.5c22.9-10.9,47.5,8.8,69.7,21.2c19.9,11.2,46.1,21.5,48.3,44.3c1.3,14-7.7,29.7,0.2,41.4
		c3.3,4.8,8.9,7.8,11.6,12.9c2.5,4.9,1.9,10.8,2.6,16.3c1.5,11.6,9.2,21.4,11.8,32.8c3.8,16.2-3.9,34.2-17.7,43.5s-32.7,10-47.6,2.6
		c-8.1-4-15.1-10.1-23.6-12.9c-25.3-8.6-57.8,12.7-77.9-5"/>
</g>
<path class="st5" d="M1639,1080c-401.3,0-802.7,0-1204,0c189-111.3,378-222.7,567-334c26.7,0.7,53.3,1.3,80,2
	C1267.7,858.7,1453.3,969.3,1639,1080z"/>
<g>
	<path class="st6" d="M885.9,512.6c13.5-24.1,26.9-48.1,40.4-72.2c-30.1,13.4-49.1,42.9-73.3,65.3c-13.9,12.9-34.8,23.9-50.8,13.8
		c-11.6-7.3-14.9-22.3-18.3-35.6c-8-31.1-21.9-60.7-40.8-86.7c3.4,16.5,6.4,34.1,8.8,52.8c1.8,13.5,3.1,26.5,4,39
		c-15.4-4.2-30.8-8.4-46.2-12.6c3.6,3.6,9.1,9.4,14.7,17.4c0,0,18.3,25.9,24.4,65.5c5.3,34.9-4.7,111.8-39.6,206.7
		c22.4-1.3,44.7,1.2,67.1,1.9c17.6,0.5,35.3-1,53-0.6c0-5.8-4.1-12.3-7.5-17.6c-13.5-20.9-16-47.4-12-72c4-24.6,13.8-47.7,23.6-70.6
		c7.1-16.7,14.5-33.7,26.2-47.7c11.7-13.9,27.2-24,41.8-34.9c20.9-15.6,40.2-33.2,57.7-52.6C934.7,485.5,910.3,499,885.9,512.6z"/>
</g>
<g>
	<path class="st7" d="M713.7,703.2c-9.8,8.8-24.1,8.3-33.3-1.2c-6.2-6.4-10.2-16.2-17.6-20.1c-5.1-2.7-10.8-1.9-16.4-2.4
		c-11-0.9-21.7-7.1-29.4-17c-3.9-5-7.1-10.9-11.9-14.5c-8.2-6.2-19.4-4.1-27.3-11c-10.8-9.5-10.2-30.9-19.1-43.2
		c-3.9-5.4-9.4-8.6-14-13.1c-4.6-4.5-8.6-11.4-7.6-18.7c1.1-7.5,7.1-13.2,6.9-20.8c-0.2-5-3-9-5.4-12.9c-10.3-16.7-14-39.6-9.8-60.3
		s16.2-38.7,31.6-47.4c4.6-2.6,9.6-4.5,13.7-8.3c3.3-3.1,5.8-7.3,8.4-11.5c7.8-12.8,18-26.4,30.7-25.5c2.8,0.2,5.6,1.1,8.3,0.3
		c2.5-0.7,4.6-2.9,6.6-5c13.9-15.6,25.9-38.5,44.3-40.2c9.5-0.9,18.9,4.3,28.3,2.6c9.9-1.8,17.9-10.6,26.4-17.4
		c21.3-16.7,48.5-20.4,71.8-9.7c4.4,2,8.9,4.6,13.6,4.3c3.3-0.2,6.5-1.8,9.7-3.2c12.6-5.5,25.9-8.2,39.1-8
		c14.3,0.3,31,6.6,35.2,23.9c0.8,3.4,1.2,7.2,3,9.8c1.3,1.9,3.1,2.9,4.9,3.9c13.7,7.3,29.6,12.6,37.2,28.8
		c6.7,14.4,4.4,32.9-0.3,48.7c-0.8,2.6-1.6,5.4-1.4,8.1c0.3,4,2.7,7.2,5,10c13.6,17,27.8,39.9,21.8,63.1
		c-2.7,10.3-9.3,20.4-6.7,30.7c1.4,5.4,5,9.2,8,13.5c13.2,19.3,9.9,53-6.6,68.1c-3.7,3.4-7.9,6-10.6,10.7
		c-3.9,6.9-3.2,16.2-4.5,24.6c-3.7,24.1-23.5,38-41,48.4c-12.9,7.7-26.1,15.5-40.2,17.3c-10.8,1.4-21.6-0.8-32.3-1.8
		c-11.1-1-22.2-0.9-33.3-0.7c-33.2,0.5-66.4,1.1-99.5,1.6"/>
</g>
<g>
	<path class="st6" d="M779,622.3c-9.1,8.2-19.6,18.3-30,14.3c-10.6-4.1-15.3-20-16.9-25.3c-7-22.3-25.3-53.7-74.3-94.3
		c14.7,23.8,34.1,62.2,45.1,115.1c4.1,20,12.2,60.6,7,114.4c-3.6,36.9-12.3,67.2-20.6,89.4c23.9-0.2,47.8-1,71.7-1.6
		c3.5-7.5,0.3-18-2.5-26.4c-17.9-53.2-4.9-121.6,30.5-160.6c11.1-12.3,24-21.7,36.8-31c20.6-15,41.1-30,61.7-45
		C849.7,582,810.8,593.5,779,622.3z"/>
</g>
<g>
	<path class="st8" d="M465.1,655.9c-9.8,8.2-24.5,8.8-34.9,1.4s-15.8-22.2-12.8-35.3c-16.1,3.8-33.3-12.9-31.7-30.6
		c0.4-4,1.5-8.2,0.3-12.1c-1.2-4-4.6-6.6-7.5-9.4c-13-12.6-17.6-34.3-11.1-51.6c1.5-4,3.6-8.2,3.2-12.5c-0.4-3.6-2.5-6.7-4.1-9.9
		c-5.2-10.7-4.3-24.5,2.2-34.2c2.2-3.3,5.1-6.2,6.6-10c2.6-6.3,0.9-13.6,0.1-20.5c-1.7-14.2,0.9-29.1,8.3-40.8
		c4.7-7.4,11.1-13.3,17.4-19.1c18.2-16.7,40.6-34.5,63.6-27.4c2.9,0.9,5.8,2.2,8.7,1.9c3.4-0.3,6.4-2.5,9.1-4.7
		c24.9-20,52.6-43.6,83.3-37.8c4.9,0.9,9.7,2.6,14.7,2.9c8.5,0.4,16.5-3.4,24.4-6.7c35.8-14.8,79.1-18.4,110.6,5.8
		c1.8,1.4,3.6,2.9,5.7,3.8c2.8,1.2,5.8,1.3,8.8,1.4c17.1,0.5,35.1,1.8,49.2,12.3c14.1,10.5,21.7,33.5,11.3,48.1
		c15.4,5.6,30.5,14,41.1,27.4c10.6,13.4,15.9,32.7,10.4,49.2c-2.4,7.1-6.7,13.9-6.3,21.5c0.4,7.1,4.8,13.2,9,18.7
		c9.2,12.2,18.5,24.8,23.7,39.6c5.1,14.8,5.6,32.3-2.3,45.4c-2.3,3.9-5.4,7.6-5.8,12.2c-0.4,4.1,1.4,8.1,2.4,12.1
		c4.8,19.1-9,37.5-23.4,49.7c-2.6,2.2-5.2,4.3-7,7.3c-2.5,4.2-3,9.3-4,14.2c-4.8,23.7-23.6,42.2-45.1,49.1s-44.9,3.4-65.8-5.6
		c-13.9-6-27.2-14.4-42-16.3c-18.2-2.3-36.3,5.5-54.5,4.3c-14.1-0.9-27.3-7-40.5-12.4c-40.1-16.3-82.4-26.4-125-29.7"/>
</g>
<g>
	<path class="st6" d="M659.6,648.1c12.6-24.6,25.1-49.1,37.7-73.7c-29.6,14.5-47.5,44.7-70.8,68c-13.4,13.4-33.9,25.2-50.3,15.7
		c-11.8-6.9-15.7-21.7-19.6-34.9c-9.1-30.8-24.2-59.8-44-85.1c4,16.3,7.7,33.8,10.8,52.4c2.3,13.4,4.1,26.4,5.5,38.8
		c-15.6-3.6-31.1-7.2-46.7-10.8c3.8,3.5,9.5,9.1,15.4,16.8c0,0,19.3,25.2,26.8,64.5c6.5,33.7,0,107.2-29,199.3
		c38.3-0.6,76.6-3,114.9-2.6c-1.6-3.2-3.8-6.4-5.8-9.3c-14.3-20.4-17.7-46.8-14.7-71.5c3-24.7,12-48.2,20.9-71.4
		c6.5-17,13.2-34.3,24.4-48.6c11.2-14.3,26.3-25,40.5-36.4c20.3-16.4,39-34.7,55.7-54.7C707.4,619.2,683.5,633.7,659.6,648.1z"/>
</g>
<g>
	<path class="st6" d="M1252.3,617.9c7.6,23.7,15.3,47.7,17,72.5c1.7,24.8-3.2,51-18.6,70.6c-2.6,3.3-5.6,7.2-7.4,11.1
		c20.9,0.1,41.7,3.8,62.6,3.7c17.3-0.1,34.6-1.5,51.9-1.7c-22.8-91.4-25.1-163.3-17-196c9.7-38.9,30.3-63,30.3-63
		c6.3-7.4,12.3-12.7,16.3-16c-15.7,2.8-31.5,5.5-47.2,8.3c2.1-12.3,4.6-25.2,7.6-38.5c4.1-18.4,8.7-35.7,13.6-51.7
		c-21.2,24.2-37.7,52.3-48.5,82.6c-4.6,12.9-9.3,27.5-21.5,33.7c-16.9,8.6-36.7-4.3-49.3-18.4c-22-24.5-38.2-55.7-67-71.8
		c11.2,25.2,22.4,50.4,33.6,75.6c-23.1-15.7-46.1-31.4-69.2-47.1c15.6,20.9,33.3,40.2,52.6,57.7c13.5,12.2,28,23.6,38.4,38.6
		C1241,583,1246.7,600.6,1252.3,617.9z"/>
</g>
<g>
	<path class="st7" d="M1370.8,701.1c9.3,9.4,23.6,9.7,33.3,0.7c6.5-6,11.1-15.6,18.7-19.1c5.2-2.4,10.9-1.3,16.5-1.5
		c11.1-0.3,22-5.9,30.3-15.4c4.1-4.8,7.7-10.5,12.7-13.9c8.6-5.8,19.6-3,27.8-9.5c11.3-8.9,11.9-30.3,21.5-42
		c4.2-5.2,9.9-8,14.7-12.3c4.9-4.2,9.2-10.9,8.6-18.3c-0.6-7.5-6.4-13.6-5.7-21.2c0.4-4.9,3.5-8.8,6.1-12.5
		c11.2-16.1,16.2-38.8,13.1-59.7c-3-20.9-14-39.5-28.9-49c-4.5-2.9-9.3-5-13.2-9c-3.1-3.3-5.4-7.7-7.7-11.9
		c-7.1-13.2-16.5-27.3-29.2-27.1c-2.8,0-5.6,0.8-8.3-0.2c-2.5-0.9-4.5-3.1-6.3-5.4c-13.1-16.4-23.7-39.8-42-42.6
		c-9.4-1.4-19.1,3.2-28.4,1c-9.8-2.3-17.3-11.6-25.4-18.8c-20.3-17.9-47.3-23.1-71.1-13.7c-4.5,1.8-9.1,4.1-13.8,3.6
		c-3.3-0.4-6.4-2.1-9.5-3.7c-12.2-6.2-25.4-9.7-38.6-10.2c-14.3-0.5-31.3,4.9-36.5,21.9c-1,3.3-1.6,7.1-3.5,9.7
		c-1.4,1.8-3.3,2.8-5.1,3.6c-14,6.5-30.3,10.9-38.7,26.6c-7.5,14-6.2,32.6-2.4,48.6c0.6,2.7,1.3,5.4,1,8.2c-0.5,4-3.1,7-5.5,9.7
		c-14.5,16.2-30,38.3-25.3,61.8c2.1,10.5,8.2,20.9,5,31c-1.7,5.3-5.6,8.9-8.7,13c-14.3,18.5-12.9,52.3,2.8,68.3
		c3.5,3.6,7.6,6.4,10,11.2c3.5,7.1,2.3,16.4,3.1,24.8c2.4,24.3,21.3,39.2,38.3,50.7c12.4,8.4,25.2,16.9,39.2,19.5
		c10.7,2,21.6,0.4,32.4,0c11.1-0.4,22.2,0.4,33.3,1.2c33.1,2.4,66.2,4.8,99.3,7.2"/>
</g>
<g>
	<path class="st6" d="M1354.5,652.4c31.3,42.4,37.4,111.7,14.3,162.8c-2,4.5-4.2,9.6-5.3,14.6c22.5-0.1,45,1.1,67.4,3.5
		c-4.3-20.5-7.7-45.6-7.6-74.4c0.1-54,12.2-93.6,18.3-113.1c16.2-51.5,39.4-87.8,56.4-110c-52.9,35.5-74.2,64.9-83.4,86.4
		c-2.2,5.1-8.4,20.5-19.4,23.5c-10.8,3-20.2-8.1-28.4-17.2c-28.7-31.8-66.3-47.1-102.8-61.7c19,17,37.9,34,56.9,51
		C1332.8,628.4,1344.7,639.1,1354.5,652.4z"/>
</g>
<g>
	<path class="st8" d="M1629.1,697.1c6.8,10.8,20.6,15.9,32.7,12.1c12.2-3.8,21.9-16.3,23-29.7c14.1,8.5,35.7-2,39.6-19.4
		c0.9-4,1.1-8.3,3.4-11.6c2.4-3.4,6.4-4.9,10-6.6c16.2-8,27.3-27.2,26.4-45.8c-0.2-4.3-1-8.9,0.8-12.9c1.5-3.3,4.4-5.6,6.9-8.2
		c8.2-8.6,11.6-22,8.4-33.2c-1.1-3.8-2.9-7.5-3.2-11.5c-0.5-6.8,3.4-13.2,6.3-19.6c5.9-13,8.1-28,4.6-41.4
		c-2.2-8.5-6.5-16.1-10.7-23.5c-12.2-21.4-28.1-45.3-52.2-45.6c-3,0-6.1,0.3-8.9-0.9c-3.2-1.3-5.3-4.4-7.2-7.3
		c-17.6-26.7-36.7-57.6-67.7-61.5c-5-0.6-10.1-0.5-14.9-1.8c-8.2-2.2-14.7-8.3-21.2-13.9c-29.6-25.1-69.7-41.8-107-28.4
		c-2.2,0.8-4.4,1.7-6.6,1.9c-3,0.3-5.9-0.5-8.8-1.4c-16.4-4.8-34-9-50.6-3.4c-16.6,5.7-30.9,25.2-25.5,42.3
		c-16.4,0.6-33.3,4-47.5,13.5c-14.2,9.5-25.1,26.2-24.9,43.6c0.1,7.5,2.1,15.3-0.6,22.4c-2.5,6.7-8.6,11.1-14.3,15.1
		c-12.5,8.8-25.2,17.9-34.6,30.4s-15.2,29-11.8,43.9c1,4.4,2.8,8.8,1.8,13.4c-0.9,4-3.8,7.2-6,10.7c-10.4,16.7-2.9,38.5,7,54.5
		c1.8,2.9,3.7,5.7,4.4,9.1c1.1,4.7,0,9.8-0.6,14.8c-2.7,24,9.6,47.4,27.9,60.6c18.3,13.1,41.7,17,64.3,14.9c15-1.4,30.3-5.3,45-2.6
		c18,3.4,32.8,16.3,50.6,20.8c13.7,3.5,28.2,1.7,42.4,0.6c43.2-3.2,86.5,0.2,128.1,10.1"/>
</g>
<g>
	<path class="st6" d="M1489.7,757.9c6.8,23.9,13.7,48.1,14.6,73s-4.9,50.8-20.9,69.9c-3.1,3.7-6.7,8-8.5,12.4
		c24.6-2.1,49.7,4.3,73.9,7.4c14.2,1.8,28.5,2.6,42.8,3.8c-21.3-95.4-21.5-170.1-12-203.4c10.9-38.6,32.3-61.9,32.3-61.9
		c6.6-7.2,12.7-12.3,16.8-15.4c-15.8,2.2-31.6,4.5-47.4,6.7c2.5-12.3,5.4-25,8.8-38.2c4.7-18.2,9.9-35.4,15.3-51.3
		c-22,23.4-39.4,51.1-51.2,81c-5,12.7-10.2,27.2-22.6,33c-17.1,8-36.5-5.5-48.7-20c-21.2-25.3-36.4-56.9-64.6-74
		c10.4,25.6,20.7,51.1,31.1,76.7c-22.5-16.5-45-32.9-67.6-49.4c14.9,21.4,31.9,41.3,50.7,59.4c13.1,12.6,27.2,24.5,37.1,39.8
		C1479.5,722.6,1484.7,740.4,1489.7,757.9z"/>
</g>
<g>
	<path class="st6" d="M1859,610.9c-23.1,6.3-37.3,23.1-42.4,29.3c-19.2,23.3-20.9,46.6-25.5,45.8c-3.6-0.6-6-15.9-3.5-30.8
		c5.7-33.2,34.4-54.2,49.8-65.2c33.2-23.7,65.8-31,65-33.1c-0.5-1.3-13,0.5-25.4,5c-14.3,5.2-20.8,11.2-24.4,8.6
		c-4.9-3.5,3.3-17.3-0.5-20.4c-5.8-4.8-35.7,18.3-67.5,50.4c-38.6,39.1-46.1,57.3-62.7,56.3c-15.9-1-14.4-21.4-43.3-43.1
		c-18.1-13.6-21.4-8-53.5-27c-21.6-12.8-33.8-20-45-35c-3.7-5-9.5-16.1-21-38c-5.4-10.4-12.8-24.7-15.2-29.7
		c-6.2-12.9-17.5-42.4-20.1-102.6c-5.3,5.9-8.3,13.7-8.4,21.6c-3.6-6.3-7.3-12.6-10.9-18.9c5.4,22.6,10.8,45.2,16.2,67.8
		c-14.6-24.7-29.2-49.4-43.8-74.1c0.3,6.6,1.8,13.1,3.8,19.4c0,0,2.7,9.5,7.1,18.7c9.7,20.3,136.1,257.4,177.5,347.7
		c6.9,15,17.3,38.7,22,71c3.5,23.7,2.6,43.8,1.5,70.7c-1.2,30-1.9,45-6.5,64.3c-3,12.6-8.5,30-18.9,49.7c0.6,0,1.2-0.1,1.9-0.1
		c9.9-0.6,19.8-1.8,29.7-2.4c49.2-3.1,98.4-5.5,147.7-5.5c3.7-14-13.6-22.3-29.4-61.7c-8.6-21.5-11.5-44.3-17-89
		c-6.4-52.1-9.6-78.2-7.1-92.8c7.8-47,34.2-81.7,55.6-109.7c14.8-19.3,23.9-26.9,27.1-29.4c15.4-12.3,32-19.8,45.4-24.3
		c-8.7,1.8-19,3.4-30.2,4.3C1870.9,609.9,1868.5,608.3,1859,610.9z"/>
</g>
<g>
	<path class="st6" d="M438.5,547.5c3.7-5,9.5-16.1,21-38c5.4-10.4,12.8-24.7,15.2-29.7c6.2-12.9,17.5-42.4,20.1-102.6
		c5.3,5.9,8.3,13.7,8.4,21.6c3.6-6.3,7.3-12.6,10.9-18.9c-5.4,22.6-10.8,45.2-16.2,67.8c14.6-24.7,29.2-49.4,43.8-74.1
		c-0.3,6.6-1.8,13.1-3.8,19.4c0,0-2.7,9.5-7.1,18.7c-9.7,20.3-136.1,257.4-177.5,347.7c-6.9,15-17.3,38.7-22,71
		c-3.5,23.7-2.6,43.8-1.5,70.7c1.2,30,1.9,45,6.5,64.3c4,16.8,12.3,42,31,70c-18.9,1.9-47.4,3.8-82,2c-47.9-2.5-100.8-5.3-109-29
		c-5.1-14.9,12.7-22.5,29-63c8.6-21.5,11.5-44.3,17-89c6.4-52.1,9.6-78.2,7.1-92.8c-7.8-47-34.2-81.7-55.6-109.7
		c-14.8-19.3-23.9-26.9-27.1-29.4c-33.8-27-73.1-30.7-73-31.3c0.1-0.5,25,8.7,57.8,11.2c16.1,1.3,18.4-0.3,28,2.3
		c23.1,6.3,37.3,23.1,42.4,29.3c19.2,23.3,20.9,46.6,25.5,45.8c3.6-0.6,6-15.9,3.5-30.8c-5.7-33.2-34.4-54.2-49.8-65.2
		c-33.2-23.7-65.8-31-65-33.1c0.5-1.3,13,0.5,25.4,5c14.3,5.2,20.8,11.2,24.4,8.6c4.9-3.5-3.3-17.3,0.5-20.4
		c5.8-4.8,35.7,18.3,67.5,50.4c38.6,39.1,46.1,57.3,62.7,56.3c15.9-1,14.4-21.4,43.3-43.1c18.1-13.6,21.4-8,53.5-27
		C415.1,569.7,427.3,562.5,438.5,547.5z"/>
</g>
<g>
	<path class="st9" d="M763.9,280.5c-5.6-19.3-22.2-33.4-39.5-43.5c-25.2-14.8-53.8-23.7-82.9-26c-11.7-0.9-23.8-0.9-34.6-5.3
		c-10.6-4.3-19-12.5-28.1-19.3c-26-19.7-59.2-29.5-91.7-27.2c-33,2.4-65.8,16.7-98.1,9.8c-18.4-3.9-35-14.5-53.5-17.8
		c-47.3-8.4-90.5,32-138.5,33.8c-8.7,0.3-17.4-0.6-26,0.6C127.6,191.4,104,247,60.6,252c-16.4,1.9-35.3-3.4-48,7.2
		C3.2,267,1.6,279.7-1,291.9V587c7.1,2.3,15.1,3.2,22.2,5.8c11,4,19.8,12.3,28.3,20.4c12.9,12.3,25.9,24.7,38.8,37
		c3.5,3.3,7,6.6,11.4,8.5c6.5,2.8,14,2.1,21,3.4c13.5,2.4,24.5,12,37,17.6c12.6,5.5,30.4,5,36.5-7.3l-5.9-5.8
		c42.4,18.6,89.8,25.6,135.7,20.1c16.6-2,34.1-5.5,49.5,1.2c8,3.5,15,9.6,23.7,11c10.4,1.6,20.3-4.1,30.4-6.8
		c23.7-6.4,49.6,3.6,73.2-3.4c16.6-4.9,30-17.8,46.7-22.6c10.4-3,21.6-2.6,32.1-5.5c20.5-5.7,35.9-23.1,55.9-30.2
		c8-2.8,16.4-3.9,24.4-6.5c22.9-7.5,39.8-26.7,55.5-45c5.3-6.2,10.7-12.6,12.8-20.4c3-11-1-22.8,1.3-34c1.3-6.4,4.6-12.1,7.2-18
		c12.9-28.5,12.5-62.6-1.1-90.8c-2.4-4.9-5.2-9.8-5.2-15.3c-0.2-11.6,11.3-19.3,18.8-28.1c13.1-15.4,15-37.1,16.4-57.2
		C766.4,303.3,767.1,291.6,763.9,280.5z"/>
</g>
<g>
	<path class="st10" d="M540,516c12,24.9-9.3,51.9-11,54c-2.8,3.5-19.2,22.8-46,22c-23.4-0.7-37.6-16.3-40-19
		c-11.7-13.3-21.2-36.9-11-57c12.9-25.5,47.3-25.1,55-25C494.5,491.1,528.1,491.5,540,516z"/>
	<g>
		<g>
			<path class="st11" d="M468.5,501.2c10.5,6.1,23.9,6.3,34.6,0.4c1.7-0.9,0.2-3.5-1.5-2.6c-9.7,5.3-22,5.2-31.6-0.4
				C468.3,497.6,466.8,500.2,468.5,501.2L468.5,501.2z"/>
		</g>
	</g>
	<g>
		<g>
			<path class="st11" d="M487,503.6c1.4-8,4.4-15.7,8.9-22.5c1.1-1.6-1.5-3.1-2.6-1.5c-4.6,7-7.7,14.9-9.2,23.2
				C483.8,504.7,486.7,505.5,487,503.6L487,503.6z"/>
		</g>
	</g>
	<path class="st12" d="M533.6,538.7c-0.8,13.1-10.3,23.1-11.6,22.5c-0.8-0.4,2.3-5.5,4.6-16.5c2.8-13.9,1.1-22.7,2.5-22.9
		C530.4,521.6,534.1,529.7,533.6,538.7z"/>
</g>
<g>
	<path class="st10" d="M298,299c12,24.9-9.3,51.9-11,54c-2.8,3.5-19.2,22.8-46,22c-23.4-0.7-37.6-16.3-40-19
		c-11.7-13.3-21.2-36.9-11-57c12.9-25.5,47.3-25.1,55-25C252.5,274.1,286.1,274.5,298,299z"/>
	<g>
		<g>
			<path class="st11" d="M226.5,284.2c10.5,6.1,23.9,6.3,34.6,0.4c1.7-0.9,0.2-3.5-1.5-2.6c-9.7,5.3-22,5.2-31.6-0.4
				C226.3,280.6,224.8,283.2,226.5,284.2L226.5,284.2z"/>
		</g>
	</g>
	<g>
		<g>
			<path class="st11" d="M245,286.6c1.4-8,4.4-15.7,8.9-22.5c1.1-1.6-1.5-3.1-2.6-1.5c-4.6,7-7.7,14.9-9.2,23.2
				C241.8,287.7,244.7,288.5,245,286.6L245,286.6z"/>
		</g>
	</g>
	<path class="st12" d="M291.6,321.7c-0.8,13.1-10.3,23.1-11.6,22.5c-0.8-0.4,2.3-5.5,4.6-16.5c2.8-13.9,1.1-22.7,2.5-22.9
		C288.4,304.6,292.1,312.7,291.6,321.7z"/>
</g>
<g>
	<path class="st9" d="M1921,241c-43.3-5.2-66.9-60.6-110.2-66.6c-8.6-1.2-17.3-0.2-26-0.6c-48-1.8-91.2-42.2-138.5-33.8
		c-18.5,3.3-35.1,13.9-53.5,17.8c-32.4,6.9-65.1-7.5-98.1-9.8c-32.5-2.3-65.7,7.5-91.7,27.2c-9.1,6.9-17.5,15-28.1,19.3
		c-10.9,4.4-22.9,4.4-34.6,5.3c-29.1,2.3-57.7,11.3-82.9,26c-17.3,10.1-34,24.2-39.5,43.5c-3.2,11.1-2.5,22.9-1.7,34.4
		c1.3,20.2,3.3,41.8,16.4,57.2c7.5,8.8,19,16.5,18.8,28.1c-0.1,5.4-2.9,10.4-5.2,15.3c-13.6,28.1-14,62.3-1.1,90.8
		c2.7,5.9,5.9,11.7,7.2,18c2.3,11.2-1.7,23,1.3,34c2.1,7.8,7.6,14.3,12.8,20.4c15.7,18.3,32.5,37.5,55.5,45c8,2.6,16.5,3.7,24.4,6.5
		c20.1,7.1,35.4,24.5,55.9,30.2c10.5,2.9,21.6,2.5,32.1,5.5c16.7,4.8,30.1,17.6,46.7,22.6c23.5,7,49.5-2.9,73.2,3.4
		c10.1,2.7,20,8.4,30.4,6.8c8.6-1.3,15.7-7.5,23.7-11c15.3-6.7,32.9-3.2,49.5-1.2c46,5.5,93.4-1.5,135.7-20.1l-5.9,5.8
		c6,12.3,23.9,12.8,36.5,7.3c12.6-5.5,23.5-15.2,37-17.6c7-1.3,14.5-0.5,21-3.4c4.4-1.9,7.9-5.3,11.4-8.5
		c9.2-8.8,18.4-17.6,27.6-26.3V241z"/>
</g>
<g>
	<path class="st10" d="M1522,518c12,24.9-9.3,51.9-11,54c-2.8,3.5-19.2,22.8-46,22c-23.4-0.7-37.6-16.3-40-19
		c-11.7-13.3-21.2-36.9-11-57c12.9-25.5,47.3-25.1,55-25C1476.5,493.1,1510.1,493.5,1522,518z"/>
	<g>
		<g>
			<path class="st11" d="M1450.5,503.2c10.5,6.1,23.9,6.3,34.6,0.4c1.7-0.9,0.2-3.5-1.5-2.6c-9.7,5.3-22,5.2-31.6-0.4
				C1450.3,499.6,1448.8,502.2,1450.5,503.2L1450.5,503.2z"/>
		</g>
	</g>
	<g>
		<g>
			<path class="st11" d="M1469,505.6c1.4-8,4.4-15.7,8.9-22.5c1.1-1.6-1.5-3.1-2.6-1.5c-4.6,7-7.7,14.9-9.2,23.2
				C1465.8,506.7,1468.7,507.5,1469,505.6L1469,505.6z"/>
		</g>
	</g>
	<path class="st12" d="M1515.6,540.7c-0.8,13.1-10.3,23.1-11.6,22.5c-0.8-0.4,2.3-5.5,4.6-16.5c2.8-13.9,1.1-22.7,2.5-22.9
		C1512.4,523.6,1516.1,531.7,1515.6,540.7z"/>
</g>
<g>
	<path class="st10" d="M1884,380c12,24.9-9.3,51.9-11,54c-2.8,3.5-19.2,22.8-46,22c-23.4-0.7-37.6-16.3-40-19
		c-11.7-13.3-21.2-36.9-11-57c12.9-25.5,47.3-25.1,55-25C1838.5,355.1,1872.1,355.5,1884,380z"/>
	<g>
		<g>
			<path class="st11" d="M1812.5,365.2c10.5,6.1,23.9,6.3,34.6,0.4c1.7-0.9,0.2-3.5-1.5-2.6c-9.7,5.3-22,5.2-31.6-0.4
				C1812.3,361.6,1810.8,364.2,1812.5,365.2L1812.5,365.2z"/>
		</g>
	</g>
	<g>
		<g>
			<path class="st11" d="M1831,367.6c1.4-8,4.4-15.7,8.9-22.5c1.1-1.6-1.5-3.1-2.6-1.5c-4.6,7-7.7,14.9-9.2,23.2
				C1827.8,368.7,1830.7,369.5,1831,367.6L1831,367.6z"/>
		</g>
	</g>
	<path class="st12" d="M1877.6,402.7c-0.8,13.1-10.3,23.1-11.6,22.5c-0.8-0.4,2.3-5.5,4.6-16.5c2.8-13.9,1.1-22.7,2.5-22.9
		C1874.4,385.6,1878.1,393.7,1877.6,402.7z"/>
</g>
<g>
	<path class="st10" d="M1536,236c12,24.9-9.3,51.9-11,54c-2.8,3.5-19.2,22.8-46,22c-23.4-0.7-37.6-16.3-40-19
		c-11.7-13.3-21.2-36.9-11-57c12.9-25.5,47.3-25.1,55-25C1490.5,211.1,1524.1,211.5,1536,236z"/>
	<g>
		<g>
			<path class="st11" d="M1464.5,221.2c10.5,6.1,23.9,6.3,34.6,0.4c1.7-0.9,0.2-3.5-1.5-2.6c-9.7,5.3-22,5.2-31.6-0.4
				C1464.3,217.6,1462.8,220.2,1464.5,221.2L1464.5,221.2z"/>
		</g>
	</g>
	<g>
		<g>
			<path class="st11" d="M1483,223.6c1.4-8,4.4-15.7,8.9-22.5c1.1-1.6-1.5-3.1-2.6-1.5c-4.6,7-7.7,14.9-9.2,23.2
				C1479.8,224.7,1482.7,225.5,1483,223.6L1483,223.6z"/>
		</g>
	</g>
	<path class="st12" d="M1529.6,258.7c-0.8,13.1-10.3,23.1-11.6,22.5c-0.8-0.4,2.3-5.5,4.6-16.5c2.8-13.9,1.1-22.7,2.5-22.9
		C1526.4,241.6,1530.1,249.7,1529.6,258.7z"/>
</g>
</svg>
