<?xml version="1.0" encoding="utf-8"?>
<!-- Generator: Adobe Illustrator 23.0.5, SVG Export Plug-In . SVG Version: 6.00 Build 0)  -->
<svg version="1.1" xmlns="http://www.w3.org/2000/svg" xmlns:xlink="http://www.w3.org/1999/xlink" x="0px" y="0px"
	 viewBox="0 0 1920 1080" style="enable-background:new 0 0 1920 1080;" xml:space="preserve">
<style type="text/css">
	.st0{fill:#171717;}
	.st1{fill:#424242;}
	.st2{fill:#A6A6A6;}
	.st3{fill:#F28B3D;}
</style>
<g id="圖層_1">
</g>
<g id="圖層_2">
	<g>
		<g>
			<path class="st0" d="M690.91,344.44c-1.23-4.36-2.46-8.91-1.61-13.36c0.85-4.45,4.47-8.72,9-8.7c3.82,0.02,7.08,3.07,8.56,6.59
				c1.47,3.52,1.52,7.45,1.55,11.26c0.01,1.26-0.04,2.66-0.91,3.56c-0.71,0.73-1.78,0.95-2.79,1.09c-3.61,0.52-7.29,0.6-10.93,0.24"
				/>
		</g>
		<polygon class="st0" points="921,493 908.7,488.02 876.72,567 769,567 769,585 883,585 883,581.49 884.86,582.25 		"/>
		<g>
			<path class="st0" d="M816.04,489.98c-5.81,19.61-4.25,41.31,4.31,59.88c1.35,2.92,4.54,6.25,7.16,4.38
				c-6.06-15.87-5.03-34.31,2.77-49.4c1.35-2.61,2.93-5.26,3.03-8.2c0.22-6.27-8.1-10.92-13.32-7.45"/>
		</g>
		<path class="st1" d="M1075,494c-98.33,0.33-196.67,0.67-295,1c-12.33,86-24.67,172-37,258c-42.33,0.33-84.67,0.67-127,1
			c14-85.67,28-171.33,42-257c-5.67-7-11.33-14-17-21c9.67-45.67,19.33-91.33,29-137c140,2,280,4,420,6c1,31,2,62,3,93
			c1,1.39,10.84,15.62,5,33C1092.35,487.82,1076.78,493.4,1075,494z"/>
		<path class="st0" d="M705.33,714h-35.28c-7.24,0-13.04-6-12.79-13.24c0.99-29.55,4.99-65.73,15.74-105.76
			c7.84-29.17,17.67-54.46,27.47-75.56c2.1-4.53,6.63-7.44,11.62-7.44h25.55c7.99,0,14.03,7.24,12.59,15.1
			c-10.77,58.8-21.54,117.6-32.31,176.4C716.81,709.59,711.51,714,705.33,714z"/>
		<path class="st2" d="M1123,450c-148.33,0-296.67,0-445,0c4.33-37,8.67-74,13-111h432V450z"/>
		<rect x="750" y="362" class="st0" width="171" height="33"/>
		<g>
			<path class="st3" d="M1182.61,366.7c30.29-10.18,60.89-19.41,91.76-27.66c-13.19,12.51-26.39,25.02-39.58,37.52
				c60.1,1.25,120.23,3.42,180.1,8.87c-46.73,7.18-93.46,14.37-140.18,21.55c-2.21,0.34-4.77,0.93-5.71,2.96
				c-0.73,1.59-0.16,3.44,0.42,5.08c6.19,17.6,12.37,35.2,18.56,52.79c-39.39-26.63-78.79-53.27-118.18-79.9
				c-1.61-1.09-3.38-2.44-3.54-4.37c-0.16-1.89,1.3-3.5,2.69-4.8c6.94-6.51,14.74-12.09,23.14-16.57"/>
		</g>
	</g>
</g>
</svg>
