<?xml version="1.0" encoding="utf-8"?>
<!-- Generator: Adobe Illustrator 23.0.5, SVG Export Plug-In . SVG Version: 6.00 Build 0)  -->
<svg version="1.1" id="圖層_1" xmlns="http://www.w3.org/2000/svg" xmlns:xlink="http://www.w3.org/1999/xlink" x="0px" y="0px"
	 viewBox="0 0 1920 1080" style="enable-background:new 0 0 1920 1080;" xml:space="preserve">
<style type="text/css">
	.st0{fill:#AE845D;}
	.st1{fill:#E3B36C;}
	.st2{fill:#D18F62;}
	.st3{fill:#322C26;}
	.st4{fill:#FEB487;}
	.st5{fill:#FFFEFF;stroke:#000000;stroke-miterlimit:10;}
	.st6{fill:#7E5C42;}
	.st7{fill:#FDFFFE;}
	.st8{fill:#87888C;}
	.st9{fill:#403C3D;}
</style>
<path class="st0" d="M1239.21,1038c-7.66-60.67-15.33-121.33-22.99-182c-68.35-163.75-246.94-237.39-369.4-197
	c-113.94,37.58-147.14,163.27-150.28,176c-7.51,67.67-15.02,135.33-22.54,203H1239.21z"/>
<g>
	<path class="st1" d="M846.82,658.95c-14.44,0.32-26.68,10.66-31.48,22.54c-4.8,11.88-3.53,24.94-0.96,37.33
		c4.22,20.4,11.73,40.15,17.87,60.17c20.25,66.03,25.74,135.49,53.19,199.51c34.78-24.43,43.11-69.68,78.12-93.86
		c18.52,25.27,37.04,50.53,55.57,75.8c9.25-19.75,18.5-39.51,27.74-59.26c3.88-8.28,11.78-18.29,21.44-15.29
		c5.98,1.85,8.51,7.87,10.3,13.17c7.2,21.28,14.39,42.55,21.59,63.83c20.2-15.43,24.39-41.44,22.74-64.81
		c-2.02-28.52-10.63-56.33-19.2-83.91c-2.53-8.14-5.09-16.35-9.52-23.85c-3.87-6.55-9.09-12.41-14.35-18.18
		c-30.6-33.54-64.38-65.78-106.31-88.16c-41.93-22.38-93.22-34.11-141.03-24.14"/>
</g>
<path class="st2" d="M1014.31,943c-4.97-7.67-9.94-15.33-14.91-23c-4.59-18.33-9.18-36.67-13.77-55
	c-24.94-14.28-64.45-40.95-97.51-85c-25.56-34.05-38.18-66.38-44.74-89c3.44-30.33,6.88-60.67,10.32-91
	c5.35,1.33,10.71,2.67,16.06,4c7.56,28.02,31.97,101.11,110.13,156c35.44,24.89,71.08,38.41,97.51,46
	c-25.76,27.76-35.26,50.69-39,67c-1.53,6.65-3.6,18.27-9.18,35C1024.16,923.18,1018.41,935.17,1014.31,943z"/>
<g>
	<path class="st3" d="M826.93,470.34c0.6-29.31,1.21-58.62,1.81-87.92c0.36-17.53-1.37-38.49-18.81-47.23
		c13.15-8.84,25.77-18.27,37.8-28.24c-9.24-0.7-18.48-1.39-27.72-2.09c14.38-19.83,44.99-23.59,71.57-27.3
		c2.37-0.33,4.89-0.74,6.63-2.18c2.28-1.89,2.52-4.93,2.82-7.67c1.33-12.28,6.88-24.18,15.76-33.79c1.95,7.97,3.39,16.03,4.33,24.13
		c22.69-21.06,51.55-37.03,83.07-45.97c-0.26,5.68-1.31,11.33-3.12,16.78c29.9-3.58,58.63-14.35,82.16-30.82
		c2.1,6.99,4.21,13.97,6.31,20.96c0.55,1.82,1.17,3.75,2.8,4.98c2.2,1.68,5.48,1.54,8.38,1.22c13.75-1.51,27.22-4.95,39.73-10.15
		c-0.27,8.03-2.46,16-6.39,23.26c39.18,0.84,74-20.19,105.67-40.31c6.24,18.81,9.7,38.32,10.28,57.9c0.08,2.6,0.59,5.82,3.41,6.67
		c1.64,0.49,3.43-0.09,5.01-0.72c8.97-3.58,16.94-9.04,23.04-15.79c6.01,25.65,12.04,52.15,6.09,77.81
		c-2.99,12.89-8.93,25.15-11.75,38.07c-2.43,11.12-2.5,22.53-4.26,33.75c-2.71,17.31-9.36,33.93-15.98,50.42
		c-0.99,2.46-2.04,5.01-4.14,6.86c-3.04,2.67-7.63,3.36-11.91,3.79c-16.71,1.7-33.58,1.57-50.4,1.44
		c-58.74-0.45-117.49-0.91-176.23-1.36c-18.73-0.14-39.05,0.16-53.78,10.25c-13.95,9.56-19.4,25.57-29.63,38.22
		c-11.63,14.37-30.06,24.42-49.97,27.26c-4.1,0.58-8.38,0.87-12.35-0.2c-4.92-1.33-8.82-4.57-12.29-7.89
		c-16.44-15.79-27.23-35.98-30.53-57.1"/>
</g>
<path class="st4" d="M1160,829c-19.55,2.71-48.43,4.97-82.6,1c-20.56-2.39-140.21-18.33-189.29-99
	c-20.33-33.42-19.82-63.6-18.36-110c1.38-43.8,10.74-115.13,56.21-199c-0.38-23.33-0.76-46.67-1.15-70
	c11.15-10.85,34.23-29.77,68.83-36c54.78-9.86,115.57,16.21,152.58,66c21.8-6,43.59-12,65.39-18c7.23,10.29,16.81,26.22,22.94,47
	c6.03,20.45,2.63,24.94,9.18,52c7.14,29.51,12.84,30.98,14.91,52c1.39,14.11-0.92,16.03-2.29,43c-1.85,36.22,2.16,35.96,0,56
	c-2.91,27.01-9.88,24.59-21.8,70c-7.88,30-6.09,35.86-14.91,57c-7.28,17.46-15.53,30.32-21.8,40
	C1188.58,795.33,1176.27,811.82,1160,829z"/>
<path class="st3" d="M1118.7,464c-8.86-0.4-22.08-1.37-37.86-4c-31.28-5.21-41.13-11.72-59.65-12c-12.64-0.19-30.66,2.49-52.77,16
	c1.96-5.52,24.03-66.01,55.07-66c7.71,0,17.38,5,36.71,15c15.04,7.78,26.76,15.02,34.42,20c5.93,0.34,15.22,0.49,26.39-1
	c14.33-1.92,20.86-5.09,22.94-3C1146.06,431.14,1143.41,438.6,1118.7,464z"/>
<path class="st3" d="M1251.78,501c-4.11-5.12-17.1-19.86-41.3-27c-22.83-6.73-42.3-2.75-49.33-1c3.82-9,7.65-18,11.47-27
	c7.16-1.47,21.09-3.45,37.86,0c17.98,3.69,29.98,11.72,35.56,16c1.37,0.97,13.75,10.08,12.62,24
	C1258.05,493.48,1253.83,498.75,1251.78,501z"/>
<g>
	<path d="M1077.4,519c-14.78,0.85-34.12,0.68-56.21-3c-16.77-2.79-31.04-6.92-42.45-11c-0.26-2.12-0.33-5.4,1.15-9
		c3.08-7.51,10.75-11.11,14.91-13c13.17-5.97,26.62-4.5,39-3c9.49,1.15,23.85,3.86,40.15,11c0.55,0.37,10.86,7.58,9.18,18
		C1082.31,514.11,1079,517.55,1077.4,519z"/>
	<path class="st5" d="M1077.4,522c-14.78,0.85-34.12,0.68-56.21-3c-16.77-2.79-31.04-6.92-42.45-11c-0.26-2.12-0.33-5.4,1.15-9
		c3.08-7.51,10.75-11.11,14.91-13c13.17-5.97,26.62-4.5,39-3c9.49,1.15,23.85,3.86,40.15,11c0.55,0.37,10.86,7.58,9.18,18
		C1082.31,517.11,1079,520.55,1077.4,522z"/>
	<ellipse class="st6" cx="1034.96" cy="502" rx="20.65" ry="18"/>
	<ellipse cx="1037.89" cy="503.5" rx="11.98" ry="10.5"/>
	<ellipse class="st7" cx="1028.85" cy="498.16" rx="7.66" ry="5.16"/>
</g>
<g>
	<path d="M1227.72,531.84c-11.74,1.54-27.21,2.37-45.14,0.11c-13.62-1.72-25.34-4.79-34.76-7.97c-0.37-1.94-0.68-4.96,0.22-8.35
		c1.88-7.08,7.72-10.79,10.91-12.74c10.06-6.17,20.92-5.5,30.93-4.76c7.67,0.57,19.35,2.34,32.93,8.08
		c0.47,0.31,9.26,6.43,8.73,16.12C1231.26,527.08,1228.88,530.42,1227.72,531.84z"/>
	<path class="st5" d="M1227.95,534.61c-11.74,1.54-27.21,2.37-45.14,0.11c-13.62-1.72-25.34-4.79-34.76-7.97
		c-0.37-1.94-0.68-4.96,0.22-8.35c1.88-7.08,7.72-10.79,10.91-12.74c10.06-6.17,20.92-5.5,30.93-4.76
		c7.67,0.57,19.35,2.34,32.93,8.08c0.47,0.31,9.26,6.43,8.73,16.12C1231.49,529.85,1229.11,533.19,1227.95,534.61z"/>
	
		<ellipse transform="matrix(0.7672 -0.6414 0.6414 0.7672 -54.8607 885.5428)" class="st6" cx="1192.49" cy="518.35" rx="16.41" ry="16.76"/>
	<ellipse transform="matrix(0.8311 -0.5562 0.5562 0.8311 -87.1108 752.3652)" cx="1194.94" cy="519.58" rx="9.54" ry="9.76"/>
	
		<ellipse transform="matrix(0.9995 -0.033 0.033 0.9995 -16.3604 39.4821)" class="st7" cx="1187.31" cy="515.12" rx="6.13" ry="4.77"/>
</g>
<g>
	<g>
		<path d="M1171.99,428.83c-0.75,6.79-1.78,13.57-3.69,20.15c-1.8,6.2-4.55,11.93-7.77,17.5c-6.34,10.98-13.53,21.47-15.46,34.28
			c-4.08,27.2,10.57,52.24,18.36,77.34c1.98,6.38,3.6,12.91,4.32,19.56c0.64,5.94,0.8,12.19-0.7,18.02
			c-1.45,5.66-4.64,10.34-9.69,13.36c-4.96,2.96-10.71,4.7-16.38,5.69c-11.12,1.94-22.98,0.66-33.4-3.72
			c-2.57-1.08-5.06-2.38-7.42-3.86c-2.47-1.55-4.72-3.39-7.15-5c-4.78-3.16-10.02-4.16-15.65-4.55c-4.93-0.34-10.09-0.2-14.81-1.87
			c-5.08-1.8-8.2-6.53-7.26-11.95c1-5.84,5.65-10.56,9.99-14.24c4.56-3.87,9.84-6.98,15.39-9.18c2.73-1.08,5.53-1.96,8.38-2.65
			c1.88-0.45,1.08-3.35-0.8-2.89c-11.9,2.88-23.82,9.31-31.43,19.1c-3.59,4.61-6.01,10.66-3.9,16.46c1.87,5.12,6.55,7.96,11.68,9.04
			c5.26,1.1,10.68,0.86,16,1.48c2.7,0.32,5.45,0.9,7.9,2.1c2.85,1.4,5.31,3.43,7.9,5.25c9.52,6.7,21.26,10.03,32.83,10.31
			c5.94,0.15,11.94-0.53,17.68-2.08c5.82-1.57,11.93-3.96,16.37-8.16c9.1-8.6,8.68-23.07,6.96-34.46
			c-4.17-27.63-21.23-51.93-22.78-80.13c-0.38-6.88,0.28-13.78,2.37-20.36c1.99-6.24,5.27-11.97,8.61-17.57
			c3.31-5.55,6.78-11.05,9.41-16.97c2.83-6.37,4.6-13.1,5.76-19.96c0.56-3.34,0.99-6.69,1.36-10.06
			C1175.21,426.92,1172.2,426.93,1171.99,428.83L1171.99,428.83z"/>
	</g>
</g>
<g>
	<g>
		<path d="M1030.61,706.6c16.79-1.67,33.7-2.05,50.56-1.23c17.18,0.84,34.3,2.91,51.19,6.19c9.58,1.86,19.08,4.11,28.48,6.73
			c1.86,0.52,2.66-2.37,0.8-2.89c-16.73-4.67-33.78-8.12-51-10.38c-17.01-2.23-34.19-3.27-51.35-3.03
			c-9.58,0.13-19.15,0.67-28.68,1.62C1028.7,703.79,1028.68,706.79,1030.61,706.6L1030.61,706.6z"/>
	</g>
</g>
<ellipse transform="matrix(0.8629 -0.5054 0.5054 0.8629 -156.3657 496.7762)" class="st4" cx="837.31" cy="536.55" rx="45.43" ry="84.33"/>
<g>
	<g>
		<g>
			<path d="M808.76,480.97c11.77,6.09,23.05,14.1,31.77,24.15c3.97,4.58,7.57,10.13,8.17,16.3c0.66,6.83-2.46,13.26-4.55,19.58
				c-2.53,7.65-3.17,15.65-1.76,23.59c0.34,1.9,3.23,1.09,2.89-0.8c-1.3-7.33-0.61-14.73,1.69-21.78c2.14-6.55,5.29-13.14,4.76-20.2
				c-0.47-6.33-3.6-11.97-7.46-16.86c-4.12-5.21-9.15-9.76-14.34-13.88c-6.13-4.86-12.71-9.1-19.65-12.7
				C808.56,477.49,807.04,480.08,808.76,480.97L808.76,480.97z"/>
		</g>
	</g>
	<g>
		<g>
			<path d="M850.3,516.87c-9.35,0.2-19.27,4.25-24.48,12.35c-2.48,3.87-3.73,8.63-3.25,13.22c0.54,5.07,3.05,9.22,6.45,12.92
				c3.91,4.25,8.19,8.68,13.3,11.46c1.7,0.93,3.21-1.66,1.51-2.59c-4.12-2.25-7.4-5.61-10.68-8.9c-3.21-3.24-6.28-6.69-7.3-11.26
				c-1.89-8.45,3.17-16.39,10.36-20.45c4.29-2.42,9.18-3.65,14.09-3.75C852.23,519.83,852.24,516.83,850.3,516.87L850.3,516.87z"/>
		</g>
	</g>
</g>
<g>
	<g>
		<path d="M957.14,652.53c12.02-12.33,25.31-23.39,39.55-33.07c14.6-9.92,30.16-18.42,46.36-25.43c9.26-4.01,18.73-7.5,28.35-10.51
			c1.84-0.58,1.05-3.47-0.8-2.89c-17.24,5.4-34,12.37-49.94,20.87c-15.59,8.31-30.39,18.08-44.1,29.23
			c-7.55,6.14-14.75,12.71-21.55,19.68C953.67,651.79,955.79,653.91,957.14,652.53L957.14,652.53z"/>
	</g>
</g>
<g>
	<g>
		<path d="M1167.62,590.2c10.05,9.89,18.67,21.17,25.43,33.56c6.5,11.93,11.23,24.82,13.83,38.16c1.46,7.49,2.21,15.1,2.26,22.73
			c0.01,1.93,3.01,1.93,3,0c-0.1-13.77-2.48-27.5-6.9-40.54c-4.55-13.39-11.18-26.07-19.51-37.5c-4.81-6.6-10.16-12.8-15.99-18.53
			C1168.36,586.72,1166.24,588.84,1167.62,590.2L1167.62,590.2z"/>
	</g>
</g>
<g>
	<rect x="561.54" y="95.28" class="st8" width="62.31" height="890.92"/>
	<rect x="808.77" y="71.6" class="st8" width="62.31" height="914.6"/>
	<rect x="1056" y="83.44" class="st8" width="62.31" height="902.76"/>
	<rect x="1303.23" y="83.44" class="st8" width="62.31" height="902.76"/>
	<path class="st9" d="M367,42v996h1187V42H367z M1503.09,983.98H417.91V96.02h1085.17V983.98z"/>
</g>
</svg>
