<?xml version="1.0" encoding="utf-8"?>
<!-- Generator: Adobe Illustrator 23.0.5, SVG Export Plug-In . SVG Version: 6.00 Build 0)  -->
<svg version="1.1" id="圖層_1" xmlns="http://www.w3.org/2000/svg" xmlns:xlink="http://www.w3.org/1999/xlink" x="0px" y="0px"
	 viewBox="0 0 1920 1080" style="enable-background:new 0 0 1920 1080;" xml:space="preserve">
<style type="text/css">
	.st0{fill:#4B91AA;}
	.st1{fill:#0076AC;}
	.st2{fill:#9B3C0E;}
	.st3{fill:#FC9371;}
	.st4{fill:#2B0D09;}
	.st5{fill:#FDFCF4;stroke:#050505;stroke-miterlimit:10;}
	.st6{fill:#69250B;}
	.st7{fill:#AE5A3A;}
	.st8{fill:#FEFBF5;}
	.st9{fill:#050505;}
	.st10{fill:#491420;}
	.st11{fill:#FFFFFF;}
	.st12{fill:#87888C;}
	.st13{fill:#403C3D;}
</style>
<g>
	<path class="st0" d="M1194,1004c-12.93,21.52-54.39,25.92-96.55,18c-82.9-3.91-165.8-7.82-248.7-11.73
		c-37.25-8.76-74.5-17.51-111.75-26.27c5.11-26.82,20.19-83.91,69.19-114.03c8.63-5.3,19.71-9.34,34.57-14.54
		c116.06-40.55,229.8-1.72,269.98,14.08C1183.93,914.56,1210.58,976.41,1194,1004z"/>
	<g>
		<path class="st1" d="M926.5,831.94c-11.62-0.78-23.23-1.55-34.85-2.33c-2.44-0.16-5.07-0.29-7.13,0.87
			c-1.98,1.11-2.98,3.14-3.87,5.05c-3.76,8.09-7.6,16.72-5.89,25.33c0.91,4.61,3.37,8.85,5.8,13.02
			c13.36,22.94,26.73,45.88,40.09,68.82c9.96-9.58,19.91-19.16,29.87-28.74c16.51,16.77,35.75,31.45,56.95,43.44
			c14.06-16.85,28.12-33.7,42.18-50.56c1.23-1.47,2.53-3,4.39-3.81c2.21-0.96,4.81-0.73,7.27-0.55c10.1,0.75,20.31,0.37,30.3-1.13
			c2-0.3,4.15-0.72,5.47-2.08c1.92-1.96,1.28-4.95,0.38-7.41c-7.22-19.73-24.18-35.29-40.62-50.11c-2.75-2.48-5.59-5.01-9.18-6.43
			c-3.75-1.48-7.98-1.62-12.09-1.72c-41.14-1.03-82.3-1.55-123.46-1.56"/>
	</g>
	<g>
		<path class="st2" d="M963.4,185.77c73.19-1.93,145.24-27.92,198.99-71.77c22.99,48.07,29.04,102.33,17.1,153.43
			c39.29-4.15,77.65-15.14,112.21-32.14c7.89,45.92-21.76,89.65-50.19,128.74c15.55-6.4,31.11-12.81,46.66-19.21
			c-10.46,28.1-27.84,54.18-50.59,75.9c-5.59,5.34-11.62,10.57-14.93,17.23c-2.76,5.55-3.43,11.71-4.07,17.75
			c-2.96,28.09-5.92,56.18-8.88,84.26c-0.61,5.82-1.34,11.92-5.09,16.74c-2.8,3.6-7.02,6.11-11.19,8.47
			c-108.94,61.58-244.58,71.95-373.98,71.93c-12.72,0-26.02-0.21-37.26-5.45c-17.58-8.2-25.53-26.21-38.05-39.84
			c-13.12-14.28-31.61-23.92-46.13-37.11c-16.55-15.03-27.44-34.21-35.97-53.77c-15.3-35.06-23.57-75.13-6.98-109.73
			c12.57-26.22,37.7-45.86,62.03-64.57c-24.74-1-49.71,2.47-72.9,10.15c5.63-19.11,33.06-23.96,51.76-34.81
			c2.37-1.38,4.83-3.16,5.2-5.64c0.3-2.02-0.87-3.96-2.01-5.73c-6.84-10.68-13.67-21.36-20.51-32.03
			c23.63,15.07,47.25,30.14,70.88,45.21c8.93-31.28,19.63-62.71,39.51-89.78c19.87-27.07,50.2-49.61,86.15-55.51
			c-5.88,17.65-9.48,35.89-10.69,54.25c37.79-20.06,75.58-40.12,113.36-60.18c-6.57,12.42-13.14,24.85-19.71,37.27"/>
	</g>
	<g>
		<path class="st3" d="M1117.4,840.18c-65.78,29.49-137.67,3.7-210.13-22.29c-47.73-17.12-113.07-40.56-122.35-84.46
			c-5.16-24.41,5.46-62.51,7.98-71.55c5.71-20.49,11.06-28.25,13.3-48.09c3-26.62-4.47-31.78-3.99-52.79
			c1.01-43.76,34.18-53.62,39.9-96.19c1.93-14.37,1.18-35.77-13.3-63.34c55.16-2.66,111.93-4.66,170.23-5.87
			c57.79-1.19,114.12-1.54,168.9-1.17c14.46,28.73,19.42,52.66,21.28,69.21c3.1,27.58-1.31,44.6,9.31,73.9
			c4.44,12.25,5.76,10.78,17.29,34.02c19.15,38.58,30.41,61.29,30.59,85.63c0.08,11.35-2.22,27.09-25.27,64.52
			C1180.53,787.64,1159.91,821.12,1117.4,840.18z"/>
		
			<ellipse transform="matrix(0.8306 -0.5569 0.5569 0.8306 -231.4439 517.2158)" class="st3" cx="734.37" cy="639.01" rx="59.37" ry="82.8"/>
		<g>
			<g>
				<g>
					<g>
						<path class="st4" d="M711.42,583.25c21.51,10.09,38.29,27.86,49.1,48.84c2.93,5.68,5.41,11.57,7.47,17.61
							c0.62,1.82,3.52,1.04,2.89-0.8c-7.66-22.49-21.2-43.15-40.25-57.57c-5.51-4.17-11.44-7.74-17.69-10.67
							C711.2,579.85,709.67,582.43,711.42,583.25L711.42,583.25z"/>
					</g>
				</g>
				<g>
					<g>
						<path class="st4" d="M765.14,638.02c-8.99-0.76-19.49-1.42-27.51,3.54c-9.03,5.59-10.08,16.84-7.63,26.31
							c1.55,5.99,4.58,11.48,8.58,16.18c1.25,1.47,3.37-0.66,2.12-2.12c-6.05-7.11-10.14-17.21-8.62-26.66
							c0.7-4.34,2.81-8.28,6.5-10.76c3.4-2.28,7.5-3.29,11.52-3.69c5-0.5,10.04-0.22,15.04,0.2
							C767.06,641.18,767.05,638.18,765.14,638.02L765.14,638.02z"/>
					</g>
				</g>
			</g>
		</g>
	</g>
	<path d="M1171.92,578.6c-24.38,2.35-48.76,4.69-73.15,7.04c-2.41-3.79-17.47-28.34-5.32-53.96c0.93-1.95,15.3-31.18,39.9-30.5
		c22.46,0.62,34.85,25.68,37.24,30.5C1181.06,552.84,1174.19,572.79,1171.92,578.6z"/>
	<path class="st5" d="M1171.92,585.64c-24.38,2.35-48.76,4.69-73.15,7.04c-2.41-3.79-17.47-28.34-5.32-53.96
		c0.93-1.95,15.3-31.18,39.9-30.5c22.46,0.62,34.85,25.68,37.24,30.5C1181.06,559.88,1174.19,579.83,1171.92,585.64z"/>
	<path class="st6" d="M1181.23,471.85c-3.46-3.65-14.58-14.41-33.25-17.6c-28.51-4.86-49.64,12.21-51.87,14.08
		c0-12.51,0-25.02,0-37.54c2.51-1.47,23.98-13.61,49.21-5.87c19.6,6.01,28.55,20.06,30.59,23.46
		C1177.69,456.21,1179.46,464.03,1181.23,471.85z"/>
	<path class="st6" d="M1007.01,470.68c-7.3-1.59-18.4-4.01-31.92-7.04c-39.05-8.74-43.8-10.26-51.87-10.56
		c-13.01-0.48-33.64,2.25-59.85,21.11c20.44-42.38,40.64-53.41,55.86-55.13c13.5-1.53,22.37,4.34,53.2,8.21
		c18.92,2.38,34.7,2.57,45.22,2.35C1014.1,443.31,1010.56,456.99,1007.01,470.68z"/>
	<g>
		<path d="M985.73,600.89c-13.65-5.53-31.08-11.29-51.87-15.25c-14.74-2.81-28.22-4.15-39.9-4.69c-2.09-3.82-13.12-24.91-2.66-48.09
			c7.03-15.59,24.96-34.73,50.54-35.19c33.95-0.61,51.65,32.21,53.2,35.19C1012.28,566.12,987.35,598.84,985.73,600.89z"/>
		<path class="st5" d="M985.73,607.92c-13.65-5.53-31.08-11.29-51.87-15.25c-14.74-2.81-28.22-4.15-39.9-4.69
			c-2.09-3.82-13.12-24.91-2.66-48.09c7.03-15.59,24.96-34.73,50.54-35.19c33.95-0.61,51.65,32.21,53.2,35.19
			C1012.28,573.16,987.35,605.88,985.73,607.92z"/>
	</g>
	<ellipse class="st7" cx="933.2" cy="561.59" rx="35.24" ry="31.09"/>
	<ellipse cx="935.86" cy="566.28" rx="23.27" ry="20.53"/>
	<ellipse class="st8" cx="957.14" cy="550.45" rx="11.3" ry="10.56"/>
	<ellipse class="st8" cx="903.94" cy="553.38" rx="8.64" ry="7.62"/>
	<ellipse class="st7" cx="1122.72" cy="561" rx="34.58" ry="30.5"/>
	<ellipse cx="1122.72" cy="559.83" rx="19.95" ry="17.6"/>
	<ellipse class="st8" cx="1110.08" cy="551.62" rx="9.97" ry="7.04"/>
	<g>
		<g>
			<g>
				<path class="st9" d="M1072.33,531.24c-2.95,20.81-5.31,44.85,9.24,62.13c7.28,8.66,17.68,13.78,27.07,19.74
					c4.66,2.96,9.4,6.17,13.09,10.32c1.91,2.15,3.61,4.97,2.56,7.9c-1.02,2.86-3.67,5.14-5.71,7.29
					c-10.33,10.87-21.45,20.98-33.2,30.31c-1.51,1.2,0.62,3.31,2.12,2.12c10.6-8.41,20.69-17.47,30.15-27.14
					c2.26-2.31,4.59-4.61,6.67-7.09c1.85-2.21,3.47-4.81,3.29-7.81c-0.34-5.81-5.97-10.21-10.21-13.47
					c-8.99-6.91-19.6-11.49-28.27-18.85c-8.47-7.18-13.36-16.91-15.14-27.79c-1.99-12.18-0.49-24.73,1.23-36.85
					c0.11-0.81-0.2-1.6-1.05-1.85C1073.48,529.99,1072.45,530.43,1072.33,531.24L1072.33,531.24z"/>
			</g>
		</g>
		<g>
			<g>
				<path class="st9" d="M1037.53,662.39c5.58-0.4,11.66,1.86,14.87,6.61c1.08,1.59,3.68,0.09,2.59-1.51
					c-3.79-5.61-10.79-8.57-17.46-8.1c-0.81,0.06-1.5,0.65-1.5,1.5C1036.03,661.66,1036.72,662.45,1037.53,662.39L1037.53,662.39z"
					/>
			</g>
		</g>
	</g>
	<g>
		<path class="st10" d="M1117.4,707.26c-11.26-2.68-53.9-11.58-98.42,8.21c-61.94,27.53-73.41,86.54-74.48,92.67
			c22.18-11.04,61.74-27.34,114.38-31.67c41.57-3.42,75.94,1.9,98.42,7.04C1144,758.09,1130.7,732.68,1117.4,707.26z"/>
		<path class="st11" d="M1117.4,707.63c-11.27-3.02-27.91-6.04-47.88-4.69c-5.61,0.38-19.37,1.63-35.91,7.04
			c-9.44,3.09-22.46,8.4-35.91,17.6c-15.01,10.27-24.72,21.37-30.59,29.33c22.23-8.77,53.42-18.53,91.93-23.07
			c27.62-3.26,52.01-3.01,71.65-1.56C1126.26,724.05,1121.83,715.84,1117.4,707.63z"/>
	</g>
	<path class="st3" d="M1004.35,949.27c-16.5-20.55-32.23-35.58-43.89-45.75c-21.88-19.07-33.65-24.64-42.56-39.88
		c-11.1-18.99-9.76-39.3-6.65-53.96c31.48,4.69,62.95,9.38,94.43,14.08C1005.24,865.6,1004.79,907.43,1004.35,949.27z"/>
	<g>
		<rect x="561.54" y="95.28" class="st12" width="62.31" height="890.92"/>
		<rect x="808.77" y="71.6" class="st12" width="62.31" height="914.6"/>
		<rect x="1056" y="83.44" class="st12" width="62.31" height="902.76"/>
		<rect x="1303.23" y="83.44" class="st12" width="62.31" height="902.76"/>
		<path class="st13" d="M367,42v996h1187V42H367z M1503.09,983.98H417.91V96.02h1085.17V983.98z"/>
	</g>
</g>
</svg>
