<?xml version="1.0" encoding="utf-8"?>
<!-- Generator: Adobe Illustrator 23.0.5, SVG Export Plug-In . SVG Version: 6.00 Build 0)  -->
<svg version="1.1" xmlns="http://www.w3.org/2000/svg" xmlns:xlink="http://www.w3.org/1999/xlink" x="0px" y="0px"
	 viewBox="0 0 1920 1080" style="enable-background:new 0 0 1920 1080;" xml:space="preserve">
<style type="text/css">
	.st0{fill:#5A2A16;}
	.st1{fill:#F9D364;}
	.st2{fill:#FBA364;}
	.st3{fill:#FDFFFE;stroke:#000000;stroke-width:2;stroke-miterlimit:10;}
	.st4{fill:#C26A2B;}
	.st5{fill:#FDFFFE;}
	.st6{fill:#FC5406;stroke:#000000;stroke-width:2;stroke-miterlimit:10;}
	.st7{fill:#D5160C;}
	.st8{fill:#87888C;}
	.st9{fill:#403C3D;}
</style>
<g id="圖層_1">
</g>
<g id="圖層_2">
	<g>
		<path class="st0" d="M1316.5,608.17c-29.54,0-59.07,0-88.61,0v-112.3c38.3,5.03,76.6,10.07,114.9,15.1
			C1334.03,543.37,1325.27,575.77,1316.5,608.17z"/>
		<rect x="934.81" y="240.12" class="st0" width="165.53" height="109.47"/>
		<path class="st1" d="M1240.56,1005.48c-138.59-2.2-277.18-4.4-415.77-6.61c11.75-23.69,35.68-63.1,80.82-95.32
			c20.96-14.96,56.48-39.65,108.08-43.41c34.77-2.54,61.08,5.57,67.19,7.55c10.25,3.32,34.5,12.28,86.66,60.4
			C1187.31,946.34,1213.05,972.02,1240.56,1005.48z"/>
		<path class="st0" d="M1292.16,664.8c-33.11,10.7-66.21,21.39-99.32,32.09c-10.19,21.71-14.33,42.81-13.97,61.11
			c-21.31,7.94-42.62,15.89-63.92,23.83c-7.39,22.09-1.26,44.65,14.61,56.62c9.91,7.48,24.92,11.79,37,7.55
			c13.33-4.68,23.57-19.93,27.2-41.42c3.46,4.06,7.41,7.23,11.75,9.33c27.47,13.3,73.53-14.47,92.5-50.02
			C1323.11,716.85,1294.33,668.32,1292.16,664.8z"/>
		<path class="st2" d="M1337.27,564.46c-20.72-20.09-66.65-8.14-102.59,26.69c-11.55,11.2-20.65,23.39-27.01,35.46
			c-3.97-58.36-7.94-116.73-11.9-175.09c-57.66-103.89-172.51-160.34-281.4-141.56c-123.45,21.29-180.66,129.2-186.95,141.56
			c-12.3,33.54-11.31,58.96-7.79,76.44c4.17,20.67,12.16,31.61,16.55,58.51c3.56,21.78,2.51,40.28,0.97,52.85
			c-6.53,15.07-23.51,59.86-3.89,104.75c11.4,26.09,30.16,40.76,56.47,61.34c27.72,21.68,59.26,46.34,104.19,55.68
			c48.22,10.02,85.47-3.1,148.98-25.48c50.29-17.72,93.81-33.65,130.48-75.5c20.96-23.92,32.48-48.1,38.95-65.12
			c-0.01-0.14-0.02-0.28-0.03-0.41c22.5,14.12,64.23,1.49,97.43-30.69C1345.66,629.06,1357.99,584.55,1337.27,564.46z"/>
		<g>
			<g>
				<path d="M1329.23,592.94c-3.29-6.5-7.25-12.95-12.07-18.44c-0.99-1.12-2.2-2.11-3.7-2.4c-1.83-0.35-3.56,0.46-5.06,1.43
					c-2.92,1.89-5.72,3.98-8.48,6.09c-11.25,8.62-21.44,18.52-30.9,29.07c-9.44,10.52-18.45,21.59-26.81,32.98
					c-3.72,5.08-6.86,11.7-3.66,17.86c2.64,5.09,8.75,6.15,13.72,4.15c2.74-1.1,5.15-2.93,6.85-5.36c2.13-3.04,2.93-6.94,3.1-10.59
					c0.18-3.83-0.36-7.65-0.87-11.44c-0.61-4.5-1.22-9-1.83-13.5c-0.11-0.81-1.14-1.23-1.85-1.05c-0.87,0.23-1.16,1.05-1.05,1.85
					c0.93,6.88,2.26,13.83,2.58,20.77c0.26,5.42-0.54,11.64-5.28,15.04c-3.54,2.54-9.35,3.66-12.24-0.46
					c-3.6-5.13-0.04-11.45,3.11-15.75c7.61-10.38,15.81-20.44,24.32-30.1c8.51-9.66,17.58-18.86,27.51-27.05
					c2.81-2.32,5.69-4.55,8.64-6.68c1.41-1.02,2.84-2.03,4.29-3c1.54-1.03,3.09-1.98,4.69-0.55c1.27,1.12,2.27,2.62,3.28,3.97
					c1.19,1.58,2.32,3.2,3.41,4.85c2.09,3.16,3.98,6.45,5.7,9.83C1327.51,596.18,1330.1,594.66,1329.23,592.94L1329.23,592.94z"/>
			</g>
		</g>
		<g>
			<g>
				<path d="M1271.97,612.27c7.83,1.84,14.87,6.59,19.28,13.35c1.05,1.61,3.65,0.11,2.59-1.51c-4.83-7.4-12.48-12.71-21.07-14.73
					C1270.89,608.93,1270.09,611.82,1271.97,612.27L1271.97,612.27z"/>
			</g>
		</g>
		<g>
			<path d="M1108.13,612.89c-15.48,7.8-36.46,16.57-62.32,22.65c-26.79,6.3-50.33,7.73-68.16,7.55c-2.83-7.33-5.76-17.27-6.82-29.26
				c-1.6-18.25,1.86-33.17,4.87-42.47c2.52-5.46,18.03-37.71,53.55-47.19c34.2-9.12,80.34,4.65,90.55,36.81
				C1127.39,584.82,1111.76,607.82,1108.13,612.89z"/>
			<path class="st3" d="M1108.13,622.33c-15.48,7.8-36.46,16.57-62.32,22.65c-26.79,6.3-50.33,7.73-68.16,7.55
				c-2.83-7.33-5.76-17.27-6.82-29.26c-1.6-18.25,1.86-33.17,4.87-42.47c2.52-5.46,18.03-37.71,53.55-47.19
				c34.2-9.12,80.34,4.65,90.55,36.81C1127.39,594.26,1111.76,617.25,1108.13,622.33z"/>
		</g>
		<ellipse class="st4" cx="1053.12" cy="592.6" rx="43.33" ry="42"/>
		<ellipse cx="1053.12" cy="592.6" rx="29.7" ry="28.78"/>
		<ellipse class="st5" cx="1030.72" cy="577.98" rx="18.99" ry="14.16"/>
		<g>
			<g>
				<g>
					<path d="M1090.67,530.92c1.22-2.72,2.45-5.44,3.67-8.16c0.34-0.76,0.53-1.48,0.3-2.31c-0.19-0.7-0.73-1.45-1.38-1.79
						c-0.7-0.37-1.54-0.55-2.31-0.3c-0.7,0.23-1.48,0.68-1.79,1.38c-1.22,2.72-2.45,5.44-3.67,8.16c-0.34,0.76-0.53,1.48-0.3,2.31
						c0.19,0.7,0.73,1.45,1.38,1.79c0.7,0.37,1.54,0.55,2.31,0.3C1089.58,532.07,1090.36,531.61,1090.67,530.92L1090.67,530.92z"/>
				</g>
			</g>
			<g>
				<g>
					<path d="M1103.72,544.56c7.94-2.79,14.8-8.1,19.29-15.24c0.84-1.33,0.32-3.36-1.08-4.1c-1.48-0.78-3.21-0.34-4.1,1.08
						c-0.48,0.77-1,1.51-1.53,2.24c-0.32,0.44,0.1-0.11-0.11,0.15c-0.15,0.17-0.28,0.35-0.43,0.53c-0.29,0.35-0.59,0.69-0.89,1.03
						c-1.22,1.36-2.56,2.6-3.98,3.74c-0.18,0.14-0.29,0.22-0.04,0.04c-0.22,0.17-0.44,0.33-0.66,0.49
						c-0.37,0.27-0.75,0.53-1.13,0.78c-0.73,0.48-1.47,0.94-2.23,1.36c-0.8,0.45-1.62,0.86-2.46,1.25c-0.21,0.1-0.42,0.19-0.63,0.28
						c0.4-0.17,0.02-0.01-0.18,0.07c-0.47,0.19-0.95,0.36-1.43,0.53c-1.48,0.52-2.62,2.08-2.1,3.69
						C1100.5,543.92,1102.13,545.11,1103.72,544.56L1103.72,544.56z"/>
				</g>
			</g>
			<g>
				<g>
					<path d="M1120.98,553.54c3.56-1.95,7.11-3.89,10.67-5.84c1.38-0.75,1.94-2.77,1.08-4.1c-0.9-1.4-2.63-1.88-4.1-1.08
						c-3.56,1.95-7.11,3.89-10.67,5.84c-1.38,0.75-1.94,2.77-1.08,4.1C1117.78,553.86,1119.51,554.34,1120.98,553.54L1120.98,553.54
						z"/>
				</g>
			</g>
			<g>
				<g>
					<path d="M1127.69,574.58c3.66-1.77,7.31-3.55,10.97-5.32c1.42-0.69,1.91-2.82,1.08-4.1c-0.94-1.45-2.59-1.81-4.1-1.08
						c-3.66,1.77-7.31,3.55-10.97,5.32c-1.42,0.69-1.91,2.82-1.08,4.1C1124.52,574.96,1126.18,575.31,1127.69,574.58L1127.69,574.58
						z"/>
				</g>
			</g>
		</g>
		<path class="st0" d="M1110.08,503.42c-6.38-6.88-22.85-22.74-49.66-29.26c-38.5-9.36-69.45,7.58-75.95,11.32
			c-5.27,1.96-11.09-0.83-12.66-5.66c-1.44-4.43,1.04-9.52,5.84-11.32c7-5.23,27.03-18.74,54.53-17.93
			C1064.71,451.53,1094.69,472.13,1110.08,503.42z"/>
		<path class="st0" d="M802.39,496.82c-6.12-2.07-15.38-4.18-26.29-2.83c-30.09,3.72-45.68,30.37-47.71,33.97l0,0
			c8.69-31.69,31.85-52.32,54.53-51.9c4.6,0.08,14.21,1.13,25.32,9.44c0.18,0.57,1.21,4.13-0.97,7.55
			C805.63,495.58,803.19,496.54,802.39,496.82z"/>
		<g>
			<g>
				<path d="M860.81,646.87c-17.18-0.52-37.27-2.32-59.4-6.61c-17.53-3.4-33.17-7.74-46.74-12.27
					c-8.81-32.38-3.08-63.07,14.61-73.61c25.28-15.07,72.56,12.46,87.63,48.13C864.36,620.12,862.77,636.91,860.81,646.87z"/>
				<path class="st3" d="M860.81,656.3c-17.18-0.52-37.27-2.32-59.4-6.61c-17.53-3.4-33.17-7.74-46.74-12.27
					c-8.81-32.38-3.08-63.07,14.61-73.61c25.28-15.07,72.56,12.46,87.63,48.13C864.36,629.56,862.77,646.35,860.81,656.3z"/>
			</g>
			<g>
				<g>
					<path d="M756.46,546.96c3.02,3.99,6.05,7.97,9.07,11.96c0.49,0.64,1.29,0.98,2.05,0.54c0.63-0.37,1.03-1.4,0.54-2.05
						c-3.02-3.99-6.05-7.97-9.07-11.96c-0.49-0.64-1.29-0.98-2.05-0.54C756.37,545.27,755.97,546.31,756.46,546.96L756.46,546.96z"
						/>
				</g>
			</g>
			<g>
				<g>
					<path d="M741,563.55c6.09,0.74,12.12,2.02,18,3.77c1.85,0.55,2.65-2.34,0.8-2.89c-6.15-1.83-12.43-3.11-18.79-3.88
						c-0.81-0.1-1.5,0.76-1.5,1.5C739.5,562.94,740.19,563.45,741,563.55L741,563.55z"/>
				</g>
			</g>
			<g>
				<g>
					<path d="M735.04,578.4c5.4-0.05,10.76,0.63,15.98,2.02c1.87,0.5,2.66-2.39,0.8-2.89c-5.46-1.46-11.12-2.18-16.77-2.13
						C733.11,575.42,733.1,578.42,735.04,578.4L735.04,578.4z"/>
				</g>
			</g>
			<g>
				<g>
					<path d="M737.14,590.33c2.97,0.4,5.94,0.8,8.92,1.2c0.77,0.1,1.65-0.19,1.85-1.05c0.16-0.7-0.22-1.73-1.05-1.85
						c-2.97-0.4-5.94-0.8-8.92-1.2c-0.77-0.1-1.65,0.19-1.85,1.05C735.93,589.18,736.31,590.21,737.14,590.33L737.14,590.33z"/>
				</g>
			</g>
		</g>
		<ellipse class="st4" cx="804.34" cy="611.01" rx="38.95" ry="37.75"/>
		<ellipse cx="809.69" cy="608.65" rx="26.78" ry="25.95"/>
		
			<ellipse transform="matrix(0.8817 -0.4718 0.4718 0.8817 -184.6196 443.2184)" class="st5" cx="791.57" cy="589.78" rx="15.89" ry="10.18"/>
		<path class="st0" d="M1254.63,423.12c-26.3-25.67-59.29-43.8-92.23-60.83c-98.37-50.86-203.14-95.66-314.33-103.51
			c-23.91-1.69-46.15-2.16-70.51,4.44c-15.06,4.08-30.74,12.12-62.12,28.21c-31.91,16.36-47.86,24.55-59.59,34.1
			c-16.79,13.68-18.97,20.44-44.79,48.27c-16.84,18.15-31.46,32.02-40.94,40.71c14.52-6.51,29.44-12.17,44.66-16.94
			c-19.54,51.61-19.01,110.1,1.47,161.36c10.56-20.43,21.43-41.26,38.15-57.35c2.48,7.71,9.55,26.06,28.22,41.48
			c20.01,16.52,41.51,19.89,49.66,20.76c-1.79-33.95-3.58-67.9-5.37-101.85c1.91-0.71,3.82-1.42,5.73-2.12
			c61.75-22.79,123.5-45.58,185.25-68.37c-28.53,30.2-57.18,60.55-80.56,94.65c79.38-40,161.82-74.3,246.42-102.53
			c6.14,20.1,12.28,40.2,18.42,60.29c6.57,21.51,13.3,43.35,25.85,62.19c16.4,24.61,41.39,42.21,66.75,58.47
			c1.33,18.57,1.49,40.29-0.96,64.38c-3.29,32.35-10.36,59.79-17.53,81.16c18.69-41.9,37.38-83.81,56.07-125.71
			c1.22,0.3,2.45,0.57,3.7,0.78c17.33,2.84,35.42-5.22,46.7-18.28c11.28-13.06,16.31-30.42,16.65-47.45
			C1300.15,483.26,1280.93,448.79,1254.63,423.12z"/>
		<path class="st6" d="M1334.03,545.89c-11.68,0-23.37,0-35.05,0C1188.92,381.11,1046.7,277.68,937.73,274.1
			c-62.28-2.05-132.42,13.21-132.42,13.21c-57.65,12.54-103.22,31.7-134.37,47.19c11.11-15.02,31.81-38.76,65.24-57.57
			c47.28-26.6,92.74-27.97,112.95-27.37c30.38-19.83,88.82-51.87,167.48-57.57c9.38-0.68,217.84-12.58,301.85,137.78
			C1370.43,422.81,1342.42,520.04,1334.03,545.89z"/>
		<g>
			<g>
				<path d="M903.92,240.46c8.89-14.5,22.04-26.09,37.38-33.4c1.74-0.83,0.22-3.42-1.51-2.59c-12.29,5.85-23.3,14.46-31.83,25.08
					c-2.4,2.99-4.62,6.12-6.63,9.4C900.32,240.59,902.91,242.1,903.92,240.46L903.92,240.46z"/>
			</g>
		</g>
		<g>
			<g>
				<path d="M1192.64,228.25c10.42,11.5,19.77,23.93,27.93,37.12c8.09,13.06,15.04,26.84,20.72,41.11
					c5.66,14.23,10.1,28.94,13.25,43.93c3.15,15.02,4.97,30.3,5.42,45.64c0.44,15.25-0.47,30.56-2.83,45.64
					c-0.3,1.9-0.62,3.79-0.96,5.68c-0.34,1.89,2.55,2.7,2.89,0.8c2.76-15.29,4.1-30.83,4-46.37c-0.1-15.47-1.61-30.93-4.43-46.14
					c-2.84-15.31-7.03-30.38-12.5-44.96c-5.46-14.56-12.16-28.66-20.07-42.05c-7.97-13.51-17.16-26.3-27.43-38.16
					c-1.27-1.47-2.56-2.92-3.87-4.36C1193.46,224.7,1191.35,226.83,1192.64,228.25L1192.64,228.25z"/>
			</g>
		</g>
		<g>
			<g>
				<path d="M754.73,267.31c4.48-0.57,8.54-3.05,12.91-4.18c4.89-1.26,9.82-2.3,14.7-3.63c10.45-2.86,21.25-4.84,31.9-6.8
					c21.33-3.91,42.88-6.56,64.52-7.85c43.31-2.57,86.81,0.45,129.47,8.29c20.94,3.85,41.87,8.76,62.15,15.24
					c10.11,3.23,20.17,6.62,30.09,10.39c5.21,1.98,10.38,4.06,15.5,6.28c2.32,1.01,4.62,2.04,6.92,3.1c2.1,0.97,4.31,2.44,6.59,2.88
					c0.88,0.17,1.8,0.03,2.67,0.22c1.46,0.33,3.11,1.34,4.48,1.97c2.39,1.1,4.76,2.23,7.13,3.38c4.51,2.19,8.98,4.46,13.43,6.76
					c9.09,4.7,18.12,9.5,26.97,14.64c16.65,9.68,32.78,20.25,48.29,31.67c30.59,22.55,58.66,48.48,83.61,77.15
					c3.14,3.61,6.22,7.26,9.27,10.95c1.23,1.49,3.34-0.64,2.12-2.12c-24.35-29.52-51.86-56.38-82.06-79.9
					c-31.18-24.29-65.02-44.75-100.58-61.96c-2.37-1.15-4.75-2.27-7.15-3.37c-1.87-0.86-3.82-2.02-5.9-2.22
					c-2.88-0.28-5.23-1.64-7.85-2.85c-2.46-1.13-4.93-2.23-7.41-3.3c-9.58-4.12-19.33-7.8-29.19-11.2
					c-10.05-3.47-20.2-7.04-30.48-9.79c-10.3-2.75-20.79-5.22-31.2-7.51c-42.44-9.33-86.29-13.55-129.72-12.41
					c-21.3,0.56-42.56,2.45-63.64,5.57c-21.44,3.17-42.4,8.07-63.46,13.07c-2.39,0.57-4.79,1.16-7.08,2.05c-2.3,0.9-4.51,2.18-7,2.5
					C752.84,264.55,752.82,267.55,754.73,267.31L754.73,267.31z"/>
			</g>
		</g>
		<g>
			<g>
				<path d="M903.41,245.95c17.7-2.54,35.4,1.74,52.01,7.59c16.36,5.76,32.39,12.63,48.35,19.41
					c31.24,13.26,62.07,27.77,91.07,45.49c29.27,17.89,55.77,39.5,80.68,63.02c12.42,11.73,24.48,23.84,36.45,36.02
					c11.61,11.81,23.25,23.6,34.6,35.66c22.36,23.74,43.74,48.82,59.78,77.36c1.98,3.53,3.88,7.1,5.69,10.72
					c0.86,1.73,3.45,0.21,2.59-1.51c-14.74-29.48-35.42-55.44-57.57-79.67c-11.23-12.29-22.89-24.19-34.54-36.08
					c-12.13-12.38-24.26-24.75-36.72-36.8c-24.79-24-50.95-46.61-79.99-65.36c-28.95-18.69-59.99-33.88-91.56-47.58
					c-15.81-6.86-31.75-13.5-47.82-19.76c-16.36-6.37-33.49-12.03-51.22-12.26c-4.23-0.05-8.43,0.26-12.62,0.86
					C900.71,243.33,901.52,246.22,903.41,245.95L903.41,245.95z"/>
			</g>
		</g>
		<g>
			<g>
				<g>
					<path d="M884.13,643.4c-1.28,18.61-17.06,31.73-32.73,39.23c-4.89,2.34-9.96,4.29-15.07,6.09c-0.94,0.33-1.63,1.75-0.66,2.51
						c10.58,8.27,21.81,15.67,33.61,22.09c1.7,0.92,3.21-1.67,1.51-2.59c-11.57-6.29-22.63-13.51-33.01-21.62
						c-0.22,0.84-0.44,1.67-0.66,2.51c18.05-6.34,37.14-15.57,45.99-33.61c2.25-4.59,3.66-9.5,4.01-14.61
						C887.26,641.48,884.26,641.48,884.13,643.4L884.13,643.4z"/>
				</g>
			</g>
			<g>
				<g>
					<path d="M892.65,710.57c8.51-1.95,17.22-2.69,25.94-2.24c1.93,0.1,1.92-2.9,0-3c-8.97-0.46-17.97,0.34-26.73,2.35
						C889.97,708.11,890.77,711,892.65,710.57L892.65,710.57z"/>
				</g>
			</g>
		</g>
		<g>
			<g>
				<path d="M841.88,769.53c20.92-5.35,42.51-7.84,64.1-7.54c21.51,0.3,42.96,3.37,63.67,9.17c11.63,3.26,23.03,7.37,34.03,12.35
					c1.75,0.79,3.27-1.8,1.51-2.59c-19.87-8.98-40.91-15.27-62.44-18.72c-21.59-3.46-43.6-4.17-65.36-1.97
					c-12.24,1.24-24.39,3.37-36.32,6.42C839.21,767.12,840.01,770.01,841.88,769.53L841.88,769.53z"/>
			</g>
		</g>
		<g>
			<g>
				<path d="M898.51,812.87c10.44-0.56,20.88-1.11,31.31-1.67c1.92-0.1,1.93-3.1,0-3c-10.44,0.56-20.88,1.11-31.31,1.67
					C896.59,809.97,896.58,812.98,898.51,812.87L898.51,812.87z"/>
			</g>
		</g>
		<g>
			<path class="st7" d="M978.46,869.57c-29.99,6.6-50.22,21.53-54.9,24.95c-10.15,7.41-25.69,21.21-38.27,45.58
				c10.26-3.41,20.52-6.82,30.77-10.22c2.74-0.91,5.8-1.81,8.44-0.65c2.07,0.91,3.38,2.89,4.57,4.77
				c8.06,12.73,16.13,25.47,24.19,38.2c16.41-15.84,34.06-30.48,52.74-43.75c2-1.42,4.3-2.9,6.76-2.53
				c2.05,0.31,3.64,1.85,5.08,3.31c7.28,7.39,14.57,14.78,21.85,22.17c19.98-17.1,39.04-35.21,57.08-54.23
				c1.57-1.66,3.19-3.43,3.68-5.62c0.89-3.98-1.79-7.62-3.02-9.28c-11.4-15.46-35.08-19.28-35.08-19.28
				c-10.2-1.65-15.55-0.47-36.03,1.89C986.8,869.43,990.55,866.91,978.46,869.57z"/>
		</g>
		<path class="st2" d="M1020.5,901.67c-21.75,18.87-43.49,37.75-65.24,56.62c6.49-42.78,12.98-85.56,19.47-128.35
			c23.37-1.89,46.74-3.77,70.11-5.66C1036.73,850.08,1028.61,875.88,1020.5,901.67z"/>
	</g>
	<g>
		<rect x="616.54" y="98.28" class="st8" width="62.31" height="890.92"/>
		<rect x="863.77" y="74.6" class="st8" width="62.31" height="914.6"/>
		<rect x="1111" y="86.44" class="st8" width="62.31" height="902.76"/>
		<rect x="1358.23" y="86.44" class="st8" width="62.31" height="902.76"/>
		<path class="st9" d="M422,45v996h1187V45H422z M1558.09,986.98H472.91V99.02h1085.17V986.98z"/>
	</g>
</g>
</svg>
