<?xml version="1.0" encoding="utf-8"?>
<!-- Generator: Adobe Illustrator 23.0.5, SVG Export Plug-In . SVG Version: 6.00 Build 0)  -->
<svg version="1.1" id="圖層_1" xmlns="http://www.w3.org/2000/svg" xmlns:xlink="http://www.w3.org/1999/xlink" x="0px" y="0px"
	 viewBox="0 0 1920 1080" style="enable-background:new 0 0 1920 1080;" xml:space="preserve">
<style type="text/css">
	.st0{opacity:0.41;}
	.st1{fill:#EB7602;}
	.st2{fill:#FF9C1E;}
	.st3{fill:url(#SVGID_1_);}
	.st4{opacity:0.47;fill:#FFFC8A;}
	.st5{fill:#FFFFFF;}
	.st6{opacity:0.38;}
	.st7{stroke:#000000;stroke-miterlimit:10;}
	.st8{fill:#FFFFFF;stroke:#EB7602;stroke-miterlimit:10;}
</style>
<g>
	<g class="st0">
		<path d="M598.27,952c-77.46,0-153.6-44.61-214.39-125.62C330.91,755.8,298,667.3,298,595.41c0-186.15,93.03-292.91,255.23-292.91
			h947.53c162.21,0,255.23,106.76,255.23,292.91c0,71.88-32.91,160.39-85.88,230.97c-60.79,81-136.94,125.62-214.4,125.62H598.27z"
			/>
	</g>
	<g>
		<path class="st1" d="M598.27,948c-77.46,0-153.6-44.61-214.39-125.62C330.91,751.8,298,663.3,298,591.41
			c0-186.15,93.03-292.91,255.23-292.91h947.53c162.21,0,255.23,106.76,255.23,292.91c0,71.88-32.91,160.39-85.88,230.97
			c-60.79,81-136.94,125.62-214.4,125.62H598.27z"/>
	</g>
</g>
<path class="st2" d="M598.27,913.5c-77.46,0-153.6-44.61-214.39-125.62C330.91,717.3,298,628.79,298,556.91
	C298,370.76,391.03,264,553.23,264h947.53C1662.97,264,1756,370.76,1756,556.91c0,71.88-32.91,160.39-85.88,230.97
	c-60.79,81-136.94,125.62-214.4,125.62H598.27z"/>
<path class="st1" d="M598.27,870.87c-71.94,0-142.94-39.98-199.92-112.58c-49.56-63.14-80.34-141.33-80.34-204.05
	c0-164.91,83.54-255.74,235.22-255.74h947.53c151.68,0,235.22,90.82,235.22,255.74c0,62.72-30.78,140.9-80.34,204.05
	c-56.98,72.6-127.98,112.58-199.92,112.58H598.27z"/>
<linearGradient id="SVGID_1_" gradientUnits="userSpaceOnUse" x1="1026.942" y1="845.1926" x2="1027.0468" y2="319.2114">
	<stop  offset="0" style="stop-color:#E9A43C"/>
	<stop  offset="0.2289" style="stop-color:#EFB244"/>
	<stop  offset="0.704" style="stop-color:#FAC952"/>
	<stop  offset="1" style="stop-color:#FED257"/>
</linearGradient>
<path class="st3" d="M1500.77,310.68h-462.09h-23.35H553.23c-124.38,0-225.21,62.92-225.21,243.56
	c0,115.76,116.77,304.45,270.25,304.45h417.05h23.35h417.05c153.47,0,270.25-188.69,270.25-304.45
	C1725.97,373.6,1625.14,310.68,1500.77,310.68z"/>
<path class="st4" d="M553.23,343.16h462.09h23.35h462.09c119.72,0,217.58,58.35,224.74,223.83c0.3-4.33,0.46-8.59,0.46-12.74
	c0-180.64-100.83-243.56-225.21-243.56h-462.09h-23.35H553.23c-124.38,0-225.21,62.92-225.21,243.56c0,4.15,0.17,8.41,0.46,12.74
	C335.65,401.51,433.51,343.16,553.23,343.16z"/>
<path class="st5" d="M502.54,399.19c6.11,12.83-34.02,18.93-66.44,41.8c-32.42,22.87-44.85,53.85-50.96,41.02
	c-6.11-12.83,7.77-51.72,40.19-74.59S496.43,386.36,502.54,399.19z"/>
<ellipse transform="matrix(0.9988 -0.0492 0.0492 0.9988 -18.5144 27.5289)" class="st5" cx="550.43" cy="390.18" rx="24.18" ry="10.91"/>
<g>
	<g class="st6">
		<path class="st7" d="M704.18,628.67h-46.23v81c0,11.58-2.38,20.37-7.14,26.35C646.05,742,640.05,745,632.8,745
			c-7.59,0-13.71-2.96-18.35-8.88c-4.65-5.92-6.97-14.61-6.97-26.06V489.51c0-12.75,2.55-21.86,7.65-27.33s13.2-8.2,24.3-8.2h64.76
			c19.15,0,33.88,1.69,44.19,5.07c10.2,3.25,19.01,8.66,26.43,16.2c7.42,7.55,13.06,16.79,16.91,27.72
			c3.85,10.93,5.78,23.23,5.78,36.89c0,29.15-7.82,51.24-23.46,66.26C758.4,621.16,735.12,628.67,704.18,628.67z M691.94,497.51
			h-33.99v87.44h33.99c11.9,0,21.84-1.43,29.83-4.29c7.99-2.86,14.08-7.55,18.27-14.05c4.19-6.51,6.29-15.03,6.29-25.57
			c0-12.62-3.23-22.9-9.69-30.84C729.39,501.74,714.49,497.51,691.94,497.51z"/>
		<path class="st7" d="M889.1,484.24v208.26h102.32c8.16,0,14.42,2.28,18.79,6.83c4.36,4.55,6.54,10.28,6.54,17.17
			c0,7.03-2.16,12.72-6.46,17.08c-4.31,4.36-10.6,6.54-18.87,6.54H869.56c-10.99,0-18.89-2.79-23.71-8.39
			c-4.82-5.59-7.22-14.64-7.22-27.13V484.24c0-11.71,2.3-20.49,6.88-26.35c4.59-5.86,10.62-8.78,18.1-8.78
			c7.59,0,13.74,2.9,18.44,8.69C886.75,463.58,889.1,472.4,889.1,484.24z"/>
		<path class="st7" d="M1204.73,707.72l-11.9-35.91h-101.3l-11.9,36.69c-4.65,14.31-8.61,23.98-11.9,28.98
			c-3.29,5.01-8.67,7.52-16.14,7.52c-6.35,0-11.96-2.67-16.83-8c-4.87-5.33-7.31-11.39-7.31-18.15c0-3.9,0.57-7.93,1.7-12.1
			c1.13-4.16,3-9.95,5.61-17.37l63.74-185.81c1.81-5.33,3.99-11.74,6.55-19.23c2.55-7.48,5.27-13.69,8.16-18.64
			c2.89-4.94,6.68-8.94,11.39-12c4.7-3.05,10.51-4.59,17.42-4.59c7.02,0,12.89,1.53,17.59,4.59c4.7,3.06,8.5,7,11.39,11.81
			c2.89,4.81,5.32,9.99,7.31,15.52c1.98,5.53,4.51,12.92,7.57,22.15l65.1,184.64c5.1,14.05,7.65,24.27,7.65,30.64
			c0,6.64-2.41,12.72-7.22,18.25c-4.82,5.53-10.62,8.3-17.42,8.3c-3.97,0-7.37-0.82-10.2-2.44c-2.83-1.63-5.21-3.83-7.14-6.64
			c-1.93-2.79-3.99-7.09-6.21-12.88C1208.21,717.25,1206.32,712.14,1204.73,707.72z M1104.79,628.28h74.44l-37.56-118.08
			L1104.79,628.28z"/>
		<path class="st7" d="M1329.32,709.67v-90.76l-60.85-108.32c-5.33-9.76-9.09-17.37-11.3-22.84c-2.21-5.47-3.31-10.21-3.31-14.25
			c0-6.64,2.24-12.36,6.72-17.17c4.47-4.81,10-7.22,16.57-7.22c6.91,0,12.15,2.25,15.72,6.73c3.57,4.49,8.92,13.44,16.06,26.84
			l46.57,86.86l47.08-86.86c2.83-5.33,5.21-9.82,7.14-13.47c1.93-3.64,4.05-7.06,6.37-10.25c2.32-3.19,4.9-5.63,7.73-7.32
			c2.83-1.69,6.29-2.54,10.37-2.54c6.34,0,11.64,2.38,15.89,7.12c4.25,4.75,6.38,10.25,6.38,16.49c0,5.07-1.08,10.15-3.23,15.22
			s-5.84,12.1-11.05,21.08l-62.38,109.89v90.76c0,11.84-2.38,20.69-7.14,26.54c-4.76,5.86-10.82,8.78-18.19,8.78
			c-7.48,0-13.54-2.9-18.19-8.69C1331.64,730.52,1329.32,721.64,1329.32,709.67z"/>
	</g>
	<g>
		<g>
			<path class="st8" d="M704.18,624.67h-46.23v81c0,11.58-2.38,20.37-7.14,26.35C646.05,738,640.05,741,632.8,741
				c-7.59,0-13.71-2.96-18.35-8.88c-4.65-5.92-6.97-14.61-6.97-26.06V485.51c0-12.75,2.55-21.86,7.65-27.33s13.2-8.2,24.3-8.2h64.76
				c19.15,0,33.88,1.69,44.19,5.07c10.2,3.25,19.01,8.66,26.43,16.2c7.42,7.55,13.06,16.79,16.91,27.72
				c3.85,10.93,5.78,23.23,5.78,36.89c0,29.15-7.82,51.24-23.46,66.26C758.4,617.16,735.12,624.67,704.18,624.67z M691.94,493.51
				h-33.99v87.44h33.99c11.9,0,21.84-1.43,29.83-4.29c7.99-2.86,14.08-7.55,18.27-14.05c4.19-6.51,6.29-15.03,6.29-25.57
				c0-12.62-3.23-22.9-9.69-30.84C729.39,497.74,714.49,493.51,691.94,493.51z"/>
			<path class="st8" d="M889.1,480.24v208.26h102.32c8.16,0,14.42,2.28,18.79,6.83c4.36,4.55,6.54,10.28,6.54,17.17
				c0,7.03-2.16,12.72-6.46,17.08c-4.31,4.36-10.6,6.54-18.87,6.54H869.56c-10.99,0-18.89-2.79-23.71-8.39
				c-4.82-5.59-7.22-14.64-7.22-27.13V480.24c0-11.71,2.3-20.49,6.88-26.35c4.59-5.86,10.62-8.78,18.1-8.78
				c7.59,0,13.74,2.9,18.44,8.69C886.75,459.58,889.1,468.4,889.1,480.24z"/>
			<path class="st8" d="M1204.73,703.72l-11.9-35.91h-101.3l-11.9,36.69c-4.65,14.31-8.61,23.98-11.9,28.98
				c-3.29,5.01-8.67,7.52-16.14,7.52c-6.35,0-11.96-2.67-16.83-8c-4.87-5.33-7.31-11.39-7.31-18.15c0-3.9,0.57-7.93,1.7-12.1
				c1.13-4.16,3-9.95,5.61-17.37l63.74-185.81c1.81-5.33,3.99-11.74,6.55-19.23c2.55-7.48,5.27-13.69,8.16-18.64
				c2.89-4.94,6.68-8.94,11.39-12c4.7-3.05,10.51-4.59,17.42-4.59c7.02,0,12.89,1.53,17.59,4.59c4.7,3.06,8.5,7,11.39,11.81
				c2.89,4.81,5.32,9.99,7.31,15.52c1.98,5.53,4.51,12.92,7.57,22.15l65.1,184.64c5.1,14.05,7.65,24.27,7.65,30.64
				c0,6.64-2.41,12.72-7.22,18.25c-4.82,5.53-10.62,8.3-17.42,8.3c-3.97,0-7.37-0.82-10.2-2.44c-2.83-1.63-5.21-3.83-7.14-6.64
				c-1.93-2.79-3.99-7.09-6.21-12.88C1208.21,713.25,1206.32,708.14,1204.73,703.72z M1104.79,624.28h74.44l-37.56-118.08
				L1104.79,624.28z"/>
			<path class="st8" d="M1329.32,705.67v-90.76l-60.85-108.32c-5.33-9.76-9.09-17.37-11.3-22.84c-2.21-5.47-3.31-10.21-3.31-14.25
				c0-6.64,2.24-12.36,6.72-17.17c4.47-4.81,10-7.22,16.57-7.22c6.91,0,12.15,2.25,15.72,6.73c3.57,4.49,8.92,13.44,16.06,26.84
				l46.57,86.86l47.08-86.86c2.83-5.33,5.21-9.82,7.14-13.47c1.93-3.64,4.05-7.06,6.37-10.25c2.32-3.19,4.9-5.63,7.73-7.32
				c2.83-1.69,6.29-2.54,10.37-2.54c6.34,0,11.64,2.38,15.89,7.12c4.25,4.75,6.38,10.25,6.38,16.49c0,5.07-1.08,10.15-3.23,15.22
				s-5.84,12.1-11.05,21.08l-62.38,109.89v90.76c0,11.84-2.38,20.69-7.14,26.54c-4.76,5.86-10.82,8.78-18.19,8.78
				c-7.48,0-13.54-2.9-18.19-8.69C1331.64,726.52,1329.32,717.64,1329.32,705.67z"/>
		</g>
	</g>
</g>
</svg>
