<?xml version="1.0" encoding="utf-8"?>
<!-- Generator: Adobe Illustrator 23.0.5, SVG Export Plug-In . SVG Version: 6.00 Build 0)  -->
<svg version="1.1" id="圖層_1" xmlns="http://www.w3.org/2000/svg" xmlns:xlink="http://www.w3.org/1999/xlink" x="0px" y="0px"
	 viewBox="0 0 435 190" style="enable-background:new 0 0 435 190;" xml:space="preserve">
<style type="text/css">
	.st0{fill:#F98B30;stroke:#FFFFFF;stroke-width:7;stroke-miterlimit:10;}
	.st1{fill:#FFFFFF;stroke:#A67C52;stroke-width:4;stroke-miterlimit:10;}
</style>
<g>
	<path class="st0" d="M369.56,184.5H64.44c-32.97,0-59.94-26.97-59.94-59.94V64.44C4.5,31.47,31.47,4.5,64.44,4.5h305.11
		c32.97,0,59.94,26.97,59.94,59.94v60.11C429.5,157.53,402.53,184.5,369.56,184.5z"/>
	<g>
		<path class="st1" d="M78.14,162.26c-2.53,0-4.74-0.84-6.57-2.48c-1.89-1.7-2.85-3.77-2.85-6.13V45.99c0-3.95,1.56-7.36,4.65-10.14
			c3.02-2.72,6.71-4.1,10.95-4.1h32.19c4.24,0,7.92,1.38,10.95,4.1c3.08,2.78,4.65,6.19,4.65,10.14v24.63
			c0,3.95-1.56,7.37-4.65,10.14c-3.02,2.72-6.71,4.1-10.95,4.1H87.41l0,68.78c0,2.35-0.92,4.4-2.74,6.11
			C82.88,161.41,80.68,162.26,78.14,162.26z M114.19,71.01l0-6.41H87.41l0,6.41H114.19z M114.19,51.31l0-5.71H87.41l0,5.71H114.19z
			 M178.69,161.83c-2.54,0-4.9-0.86-7.03-2.55c-1.91-1.4-3.35-3.26-4.21-5.49c-0.3-0.8-0.45-1.61-0.45-2.41
			c0-1.37,0.45-2.67,1.33-3.86c1.25-1.88,3.23-2.92,5.67-2.92c3.4,0.09,7.09,0.14,11.02,0.14c0.75-0.06,1.12-0.18,1.27-0.24
			c0.04-0.12,0.09-0.37,0.09-0.85V85.14h-30.34c-4.24,0-7.93-1.38-10.95-4.1c-3.08-2.78-4.65-6.19-4.65-10.14V45.99
			c0-3.95,1.56-7.36,4.65-10.14c3.02-2.72,6.71-4.1,10.95-4.1h33.44c4.24,0,7.92,1.38,10.95,4.1c3.08,2.78,4.65,6.19,4.65,10.14
			v97.8c0,4.09-0.55,7.23-1.68,9.59c-1.2,2.5-3.36,4.44-6.4,5.76c-3.82,1.62-9.74,2.5-18.09,2.7c-0.02,0-0.03,0-0.05,0H178.69z
			 M186.37,71.29l0-6.7h-27.72l0,6.7H186.37z M186.37,51.31l0-5.71h-27.72l0,5.71H186.37z M151.89,159.58c-2.31,0-4.33-0.73-6-2.18
			c-1.73-1.49-2.64-3.48-2.64-5.73v-23.05h-15.59c-1.98,12.02-7.46,21.82-16.29,29.1c-1.67,1.26-3.44,1.86-5.33,1.86h-0.78
			c-0.07,0-0.14,0-0.21-0.01c-2.14-0.23-4.11-1.03-5.85-2.38c-0.04-0.03-0.08-0.06-0.12-0.1c-1.58-1.42-2.38-3.23-2.3-5.22
			c0.07-1.97,0.95-3.7,2.53-4.99c5.81-4.64,9.6-10.78,11.28-18.26h-9.71c-2.17,0-4.07-0.72-5.64-2.13c-1.61-1.44-2.46-3.3-2.46-5.36
			c0-2.07,0.82-3.88,2.43-5.4c1.57-1.48,3.48-2.23,5.67-2.23h10.66l0-9.65h-8c-2.17,0-4.04-0.69-5.56-2.06
			c-1.55-1.4-2.38-3.2-2.38-5.21c0-2.02,0.79-3.79,2.35-5.26c1.52-1.43,3.4-2.16,5.59-2.16h65.78c2.18,0,4.06,0.73,5.59,2.16
			c1.56,1.47,2.35,3.24,2.35,5.26c0,2.01-0.82,3.81-2.38,5.21c-1.52,1.37-3.39,2.06-5.56,2.06h-8.78l0,9.65h11.75
			c2.18,0,4.09,0.75,5.67,2.23c1.61,1.52,2.43,3.33,2.43,5.4c0,2.06-0.85,3.91-2.46,5.36c-1.57,1.42-3.47,2.13-5.64,2.13h-11.75
			l0,23.05c0,2.25-0.91,4.24-2.64,5.73C156.21,158.85,154.2,159.58,151.89,159.58z M143.25,113.51l0-9.65h-15.06l0,9.65H143.25z"/>
		<path class="st1" d="M130.09,70.62c0,3.38-1.33,6.26-3.98,8.65c-2.66,2.39-5.86,3.59-9.61,3.59H86.97c-1.04,0-1.56,0.47-1.56,1.41
			v69.38c0,1.78-0.7,3.33-2.11,4.64c-1.41,1.31-3.13,1.97-5.16,1.97s-3.78-0.66-5.23-1.97c-1.46-1.32-2.19-2.86-2.19-4.64V45.99
			c0-3.38,1.33-6.26,3.98-8.65c2.66-2.39,5.86-3.59,9.61-3.59h32.19c3.75,0,6.95,1.2,9.61,3.59c2.66,2.39,3.98,5.28,3.98,8.65V70.62
			z M116.19,45c0-0.94-0.52-1.41-1.56-1.41H86.97c-1.04,0-1.56,0.47-1.56,1.41v6.9c0,0.94,0.52,1.41,1.56,1.41h27.66
			c1.04,0,1.56-0.47,1.56-1.41V45z M85.41,71.6c0,0.94,0.52,1.41,1.56,1.41h27.66c1.04,0,1.56-0.47,1.56-1.41V64
			c0-0.94-0.52-1.41-1.56-1.41H86.97c-1.04,0-1.56,0.47-1.56,1.41V71.6z M176.58,117.19c1.2,1.13,1.8,2.44,1.8,3.94
			c0,1.5-0.6,2.79-1.8,3.87c-1.2,1.08-2.63,1.62-4.3,1.62h-12.19c-1.04,0-1.56,0.47-1.56,1.41v23.64c0,1.69-0.65,3.1-1.95,4.22
			c-1.3,1.13-2.87,1.69-4.69,1.69c-1.82,0-3.39-0.56-4.69-1.69c-1.3-1.13-1.95-2.53-1.95-4.22v-23.64c0-0.94-0.52-1.41-1.56-1.41
			h-16.25c-0.94,0-1.51,0.47-1.72,1.41c-1.88,11.73-7.08,21.11-15.63,28.14c-1.25,0.94-2.6,1.41-4.06,1.41c-0.31,0-0.57,0-0.78,0
			c-1.77-0.19-3.39-0.84-4.84-1.97c-1.15-1.03-1.69-2.25-1.64-3.66c0.05-1.41,0.65-2.58,1.8-3.52c6.46-5.16,10.52-11.96,12.19-20.41
			c0.1-0.37,0-0.7-0.31-0.99c-0.31-0.28-0.68-0.42-1.09-0.42h-10.47c-1.67,0-3.1-0.54-4.3-1.62c-1.2-1.08-1.8-2.37-1.8-3.87
			c0-1.5,0.6-2.81,1.8-3.94c1.2-1.13,2.63-1.69,4.3-1.69h11.09c1.04,0,1.56-0.47,1.56-1.41v-10.84c0-0.94-0.52-1.41-1.56-1.41h-8.44
			c-1.67,0-3.07-0.51-4.22-1.55c-1.15-1.03-1.72-2.27-1.72-3.73c0-1.45,0.57-2.72,1.72-3.8c1.15-1.08,2.55-1.62,4.22-1.62h65.78
			c1.67,0,3.07,0.54,4.22,1.62c1.15,1.08,1.72,2.35,1.72,3.8c0,1.46-0.57,2.7-1.72,3.73c-1.15,1.03-2.55,1.55-4.22,1.55h-9.22
			c-1.04,0-1.56,0.47-1.56,1.41v10.84c0,0.94,0.52,1.41,1.56,1.41h12.19C173.95,115.51,175.38,116.07,176.58,117.19z M126.19,114.1
			c0,0.94,0.52,1.41,1.56,1.41h15.94c1.04,0,1.56-0.47,1.56-1.41v-10.84c0-0.94-0.52-1.41-1.56-1.41h-15.94
			c-1.04,0-1.56,0.47-1.56,1.41V114.1z M189.47,33.75c3.75,0,6.95,1.2,9.61,3.59c2.66,2.39,3.98,5.28,3.98,8.65v97.8
			c0,3.75-0.5,6.66-1.48,8.73c-0.99,2.06-2.79,3.66-5.39,4.78c-3.54,1.5-9.32,2.34-17.34,2.53h-0.16c-2.08,0-4.01-0.7-5.78-2.11
			c-1.67-1.22-2.87-2.77-3.59-4.64c-0.21-0.56-0.31-1.13-0.31-1.69c0-0.94,0.31-1.83,0.94-2.67c0.94-1.41,2.29-2.11,4.06-2.11
			c3.44,0.09,7.13,0.14,11.09,0.14c1.25-0.09,2.11-0.35,2.58-0.77s0.7-1.2,0.7-2.32v-59.1c0-0.94-0.52-1.41-1.56-1.41h-30.78
			c-3.75,0-6.95-1.2-9.61-3.59c-2.66-2.39-3.98-5.28-3.98-8.65V45.99c0-3.38,1.33-6.26,3.98-8.65c2.66-2.39,5.86-3.59,9.61-3.59
			H189.47z M188.37,45c0-0.94-0.52-1.41-1.56-1.41h-28.59c-1.04,0-1.56,0.47-1.56,1.41v6.9c0,0.94,0.52,1.41,1.56,1.41h28.59
			c1.04,0,1.56-0.47,1.56-1.41V45z M156.66,71.88c0,0.94,0.52,1.41,1.56,1.41h28.59c1.04,0,1.56-0.47,1.56-1.41V64
			c0-0.94-0.52-1.41-1.56-1.41h-28.59c-1.04,0-1.56,0.47-1.56,1.41V71.88z"/>
		<path class="st1" d="M301.81,162.26c-2.48,0-4.61-0.79-6.34-2.34c-1.79-1.61-2.69-3.63-2.69-5.99v-40.11
			c0-3.95,1.56-7.37,4.65-10.14c3.02-2.72,6.71-4.1,10.95-4.1h41.41c4.24,0,7.93,1.38,10.95,4.1c3.08,2.78,4.65,6.19,4.65,10.14
			v39.26c0,2.36-0.96,4.42-2.85,6.13c-1.83,1.65-4.02,2.49-6.5,2.49h-1.88c-2.08,0-3.86-0.68-5.28-2.03
			c-1.05-0.99-1.74-2.17-2.03-3.46H310.7c-0.31,1.48-1.09,2.81-2.31,3.92c-1.58,1.42-3.47,2.13-5.64,2.13H301.81z M346.69,140.1
			l0-24.29h-35.84l0,24.29H346.69z M236.03,160.15c-0.62,0-1.27-0.06-1.91-0.17c-0.04-0.01-0.08-0.01-0.11-0.02
			c-2.37-0.56-4.4-1.76-6.02-3.56c-1.29-1.55-1.92-3.21-1.92-5c0-0.44,0.07-0.92,0.21-1.44c0.43-2.2,1.62-3.94,3.52-5.17
			c7.63-4.82,14.23-11.44,19.62-19.7c-2.94-2.07-6.22-4.24-9.78-6.46c-0.73,1.06-1.8,1.86-3.14,2.35c-0.89,0.33-1.79,0.49-2.69,0.49
			c-0.98,0-1.96-0.2-2.91-0.59c-0.14-0.06-0.28-0.13-0.4-0.22l-0.62-0.45c-2.22-1.04-3.8-2.62-4.7-4.69
			c-0.62-1.24-0.94-2.51-0.97-3.79c-0.12-0.89-0.04-1.83,0.23-2.8c3.32-10.95,6.82-23.53,10.42-37.43h-3.96
			c-2.38,0-4.46-0.79-6.18-2.34c-1.78-1.6-2.69-3.57-2.69-5.85c0-2.27,0.91-4.24,2.69-5.85c1.73-1.55,3.81-2.34,6.18-2.34h7.92
			c1.76-7.9,3.32-15.06,4.65-21.35c0.53-2.3,1.8-4.16,3.76-5.57c0.04-0.03,0.07-0.05,0.11-0.07c1.67-1.04,3.55-1.57,5.59-1.57h0.94
			c0.07,0,0.13,0,0.2,0.01c2.4,0.24,4.36,1.28,5.85,3.08c1.21,1.35,1.9,2.87,2.04,4.51c0,0.06,0.01,0.11,0.01,0.17
			c0,0.61-0.13,1.23-0.41,1.89c-1.47,6.18-2.99,12.48-4.55,18.9h15.19c0.16-0.06,0.35-0.11,0.51-0.13c0.74-0.08,1.48-0.13,2.2-0.13
			c1.09,0,2.17,0.1,3.22,0.28l2.09,0.27c0.06,0.01,0.12,0.02,0.18,0.03c1.69,0.38,3.06,1.2,4.08,2.44c1.05,1.29,1.53,2.84,1.38,4.47
			c-0.48,5.62-1.1,11.02-1.86,16.2c0.32-0.6,0.73-1.17,1.22-1.7c0.02-0.03,0.05-0.05,0.07-0.08c1.7-1.66,3.77-2.55,6.14-2.67
			c0,0,4.38-0.28,4.39-0.28c5.57-12.55,10.3-25.72,14.09-39.21c0.78-2.58,2.34-4.57,4.65-5.96c1.79-1.04,3.65-1.55,5.56-1.55
			c0.77,0,1.55,0.11,2.32,0.33c2.81,0.49,4.86,1.83,6.09,3.98c0.93,1.35,1.4,2.8,1.4,4.3c0,1.01-0.21,2.03-0.62,3.02
			c-5.06,13.22-9.83,24.67-14.18,34.01l29.69-1.5c-2.23-3.37-4.55-6.62-6.91-9.69c-1.42-1.79-1.87-3.86-1.28-5.98
			c0.57-2.06,1.98-3.63,4.06-4.52c1.4-0.68,2.84-1.02,4.27-1.02c0.71,0,1.44,0.05,2.17,0.16c0.07,0.01,0.13,0.02,0.19,0.04
			c2.27,0.57,4.13,1.68,5.55,3.3c8.12,9.97,14.4,19.32,18.72,27.85c0.02,0.03,0.03,0.06,0.04,0.09c0.53,1.2,0.8,2.41,0.8,3.62
			c0,1.08-0.2,2.17-0.59,3.23c-0.95,2.33-2.61,4.01-4.96,5.07c-1.14,0.57-2.44,0.88-3.79,0.88c-0.88,0-1.82-0.11-2.79-0.33
			c-0.08-0.02-0.17-0.04-0.25-0.07c-2.28-0.84-3.92-2.33-4.88-4.42c-0.36-0.8-0.71-1.63-1.06-2.49c-8.24,0.56-19.6,1.3-33.79,2.18
			c-14.55,0.91-23.41,1.48-27.08,1.76c-0.05,0-0.1,0.01-0.15,0.01h-0.63c-2.21,0-4.2-0.66-5.9-1.96c-1.91-1.51-3.02-3.34-3.34-5.47
			c-2.38,14.08-5.86,26.36-10.39,36.69c4.67,3.55,8.57,6.74,11.6,9.46c2.01,1.93,3.01,4.26,3.01,6.97c0,2.37-0.8,4.48-2.38,6.25
			c-1.36,1.67-3.26,2.63-5.49,2.77c-0.27,0.1-0.56,0.16-0.85,0.16c-2.3,0-4.3-0.81-5.93-2.4c-2.43-2.37-5.34-4.9-8.64-7.54
			c-6.28,9.17-14,16.8-22.93,22.7C239.63,159.6,237.89,160.15,236.03,160.15z M244.6,102.55c5.2,2.95,9.49,5.46,12.78,7.48
			c4.53-11.06,7.73-24,9.54-38.54h-13.97c-1.86,7.26-4.68,17.7-8.38,31.04C244.57,102.53,244.58,102.54,244.6,102.55z"/>
		<path class="st1" d="M272.9,56.96c1.67-0.19,3.28-0.14,4.84,0.14l2.19,0.28c1.25,0.28,2.24,0.87,2.97,1.76
			c0.73,0.89,1.04,1.9,0.94,3.03c-1.98,23.17-6.3,42.31-12.97,57.42c-0.42,0.84-0.21,1.55,0.63,2.11c4.69,3.57,8.54,6.71,11.56,9.43
			c1.56,1.5,2.34,3.33,2.34,5.49c0,1.88-0.63,3.52-1.88,4.93c-1.15,1.41-2.66,2.11-4.53,2.11c-0.1,0.09-0.21,0.14-0.31,0.14
			c-1.77,0-3.28-0.61-4.53-1.83c-2.6-2.53-5.68-5.21-9.22-8.02c-0.83-0.66-1.51-0.61-2.03,0.14c-6.25,9.29-13.85,16.89-22.81,22.8
			c-1.25,0.84-2.6,1.27-4.06,1.27c-0.52,0-1.04-0.05-1.56-0.14c-1.98-0.47-3.65-1.46-5-2.96c-0.94-1.13-1.41-2.35-1.41-3.66
			c0-0.28,0.05-0.61,0.16-0.99c0.31-1.69,1.2-3,2.66-3.94c8.02-5.07,14.84-11.96,20.47-20.69c0.52-0.84,0.36-1.55-0.47-2.11
			c-3.44-2.44-7.29-4.97-11.56-7.6c-0.42-0.28-0.68-0.19-0.78,0.28c-0.42,1.31-1.33,2.23-2.73,2.74c-1.41,0.52-2.79,0.49-4.14-0.07
			l-0.78-0.56c-1.88-0.84-3.18-2.11-3.91-3.8c-0.52-1.03-0.78-2.06-0.78-3.1c-0.1-0.66-0.05-1.36,0.16-2.11
			c3.44-11.35,7.03-24.3,10.78-38.84c0.1-0.28,0.05-0.54-0.16-0.77c-0.21-0.23-0.52-0.35-0.94-0.35h-5.16
			c-1.88,0-3.49-0.61-4.84-1.83c-1.35-1.22-2.03-2.67-2.03-4.36s0.68-3.14,2.03-4.36c1.35-1.22,2.97-1.83,4.84-1.83h7.97
			c1.04,0,1.67-0.47,1.88-1.41c1.77-7.97,3.33-15.15,4.69-21.53c0.42-1.78,1.41-3.24,2.97-4.36c1.35-0.84,2.86-1.27,4.53-1.27
			c0.31,0,0.63,0,0.94,0c1.88,0.19,3.38,0.99,4.53,2.39c0.94,1.03,1.46,2.16,1.56,3.38c0,0.38-0.1,0.8-0.31,1.27
			c-1.56,6.57-3.18,13.28-4.84,20.12c-0.1,0.38-0.03,0.7,0.23,0.99c0.26,0.28,0.6,0.42,1.02,0.42h16.41
			C272.54,57.11,272.69,57.06,272.9,56.96z M269,70.9c0-0.37-0.13-0.7-0.39-0.98c-0.26-0.28-0.6-0.42-1.02-0.42h-14.69
			c-1.04,0-1.67,0.47-1.88,1.41c-1.88,7.32-4.69,17.73-8.44,31.24c-0.21,0.84,0.1,1.55,0.94,2.11c5.63,3.19,10.1,5.82,13.44,7.88
			c0.31,0.19,0.68,0.24,1.09,0.14c0.42-0.09,0.68-0.28,0.78-0.56C263.74,100.08,267.12,86.47,269,70.9z M293.06,88.91
			c-0.21,0-0.42,0-0.63,0c-1.77,0-3.33-0.51-4.69-1.55c-1.77-1.41-2.66-3.14-2.66-5.21c0-1.5,0.52-2.81,1.56-3.94
			c1.35-1.31,2.97-2.02,4.84-2.11l4.38-0.28c0.83,0,1.41-0.37,1.72-1.13c5.63-12.67,10.36-25.84,14.22-39.54
			c0.63-2.06,1.88-3.66,3.75-4.79c1.46-0.84,2.97-1.27,4.53-1.27c0.63,0,1.25,0.09,1.88,0.28c2.29,0.38,3.91,1.41,4.84,3.1
			c0.73,1.03,1.09,2.11,1.09,3.24c0,0.75-0.16,1.5-0.47,2.25c-5.42,14.17-10.42,26.08-15,35.74c-0.1,0.28-0.05,0.54,0.16,0.77
			c0.21,0.24,0.47,0.35,0.78,0.35l33.44-1.69c0.31,0,0.57-0.14,0.78-0.42c0.21-0.28,0.21-0.56,0-0.84
			c-2.6-4.03-5.31-7.88-8.13-11.54c-1.04-1.31-1.35-2.72-0.94-4.22c0.42-1.5,1.41-2.58,2.97-3.24c1.15-0.56,2.29-0.84,3.44-0.84
			c0.63,0,1.25,0.05,1.88,0.14c1.88,0.47,3.38,1.36,4.53,2.67c8.02,9.85,14.16,19,18.44,27.44c0.42,0.94,0.63,1.88,0.63,2.81
			c0,0.84-0.16,1.69-0.47,2.53c-0.73,1.78-2.03,3.1-3.91,3.94c-0.94,0.47-1.93,0.7-2.97,0.7c-0.73,0-1.51-0.09-2.34-0.28
			c-1.77-0.66-3.02-1.78-3.75-3.38c-0.42-0.94-0.83-1.92-1.25-2.96c-0.31-0.66-0.89-0.89-1.72-0.7c-8.23,0.56-19.51,1.29-33.83,2.18
			C305.85,88.04,296.81,88.63,293.06,88.91z M301.81,160.26c-1.98,0-3.65-0.61-5-1.83c-1.35-1.22-2.03-2.72-2.03-4.5v-40.11
			c0-3.38,1.33-6.26,3.98-8.65c2.66-2.39,5.86-3.59,9.61-3.59h41.41c3.75,0,6.95,1.2,9.61,3.59c2.66,2.39,3.98,5.28,3.98,8.65v39.26
			c0,1.78-0.73,3.33-2.19,4.64c-1.46,1.31-3.18,1.97-5.16,1.97h-1.88c-1.56,0-2.87-0.49-3.91-1.48c-1.04-0.99-1.56-2.14-1.56-3.45
			c0-0.38-0.21-0.56-0.63-0.56h-38.59c-0.42,0-0.63,0.19-0.63,0.56c0,1.5-0.6,2.79-1.8,3.87c-1.2,1.08-2.63,1.62-4.3,1.62H301.81z
			 M348.69,115.22c0-0.94-0.52-1.41-1.56-1.41H310.4c-1.04,0-1.56,0.47-1.56,1.41v25.47c0,0.94,0.52,1.41,1.56,1.41h36.72
			c1.04,0,1.56-0.47,1.56-1.41V115.22z"/>
	</g>
</g>
</svg>
