<?xml version="1.0" encoding="utf-8"?>
<!-- Generator: Adobe Illustrator 23.0.5, SVG Export Plug-In . SVG Version: 6.00 Build 0)  -->
<svg version="1.1" id="圖層_1" xmlns="http://www.w3.org/2000/svg" xmlns:xlink="http://www.w3.org/1999/xlink" x="0px" y="0px"
	 viewBox="0 0 1920 1080" style="enable-background:new 0 0 1920 1080;" xml:space="preserve">
<style type="text/css">
	.st0{fill:#FBE375;}
	.st1{fill:#A7EAFB;}
	.st2{fill:#FFFEFF;stroke:#808080;stroke-width:0.75;stroke-miterlimit:10;}
	.st3{fill:#BED972;}
	.st4{fill:#D89753;}
	.st5{fill:#98C149;}
	.st6{fill:#B3D864;}
	.st7{fill:#824A25;}
	.st8{fill:#F6EEDD;}
	.st9{fill:#FBA4A1;}
	.st10{fill:#AFC940;}
	.st11{fill:#4D9413;}
	.st12{fill:#FDB201;}
	.st13{fill:#FFDD31;}
	.st14{fill:#4C1B01;}
	.st15{fill:none;stroke:#FBB03B;stroke-width:19;stroke-linejoin:round;stroke-miterlimit:10;}
	.st16{fill:#FCEE21;}
	.st17{fill:#BACEEF;}
	.st18{fill:#999999;}
	.st19{fill:#BAAD66;}
	.st20{fill:#D1C998;}
	.st21{fill:#70AF78;}
</style>
<rect x="1" y="-1" class="st0" width="1919" height="1080"/>
<path class="st1" d="M1922,562c-320.33-14.68-640.66-22.02-961-22c-319.66,0.02-639.33,7.35-959,22C2,374.33,2,186.67,2-1h1920V562z
	"/>
<path class="st2" d="M287,100c-4.18,0-8.19,0.4-11.89,1.13C272.56,90.06,264.74,82,255.5,82c-2.03,0-3.98,0.39-5.83,1.12
	C240.58,68.77,222.65,59,202,59c-17.97,0-33.89,7.41-43.7,18.79C154.11,76.63,149.64,76,145,76c-17.69,0-32.88,9.07-39.48,22.04
	c-0.67-0.02-1.34-0.04-2.02-0.04C85,98,70,106.06,70,116c0,9.94,15,18,33.5,18c2.22,0,4.38-0.12,6.47-0.34
	c7.8,9.28,20.57,15.34,35.03,15.34c9.71,0,18.66-2.73,25.86-7.34c7.17,4.28,15.64,7.11,24.81,8.02c6.08,1.48,13,2.32,20.34,2.32
	c21.31,0,39.08-7.06,43.13-16.43c0.56-0.13,1.11-0.3,1.65-0.49c3.14,0.59,6.59,0.92,10.22,0.92c2.73,0,5.36-0.19,7.83-0.53
	c2.62,0.34,5.35,0.53,8.17,0.53c18.78,0,34-8.06,34-18C321,108.06,305.78,100,287,100z"/>
<path class="st2" d="M1709.68,86.28c-2.5,0-4.89,0.2-7.1,0.56c-1.53-5.48-6.2-9.46-11.72-9.46c-1.21,0-2.38,0.19-3.49,0.55
	c-5.43-7.1-16.15-11.93-28.49-11.93c-10.74,0-20.25,3.66-26.12,9.29c-2.5-0.57-5.17-0.88-7.95-0.88c-10.57,0-19.65,4.49-23.6,10.9
	c-0.4-0.01-0.8-0.02-1.2-0.02c-11.06,0-20.02,3.99-20.02,8.9c0,4.92,8.96,8.9,20.02,8.9c1.32,0,2.62-0.06,3.87-0.17
	c4.66,4.59,12.29,7.59,20.93,7.59c5.8,0,11.15-1.35,15.45-3.63c4.29,2.12,9.34,3.52,14.82,3.97c3.64,0.73,7.77,1.15,12.15,1.15
	c12.73,0,23.35-3.49,25.77-8.13c0.33-0.07,0.66-0.15,0.99-0.24c1.87,0.29,3.94,0.46,6.11,0.46c1.63,0,3.2-0.09,4.68-0.26
	c1.56,0.17,3.2,0.26,4.88,0.26c11.22,0,20.32-3.99,20.32-8.9C1730,90.27,1720.9,86.28,1709.68,86.28z"/>
<path class="st2" d="M1511.82,364.32c-3.47,0-6.78,0.41-9.85,1.17c-2.12-11.43-8.59-19.75-16.25-19.75c-1.68,0-3.3,0.41-4.83,1.15
	c-7.53-14.81-22.39-24.89-39.5-24.89c-14.9,0-28.08,7.65-36.22,19.39c-3.47-1.19-7.17-1.85-11.02-1.85
	c-14.66,0-27.25,9.37-32.72,22.75c-0.55-0.02-1.11-0.04-1.67-0.04c-15.33,0-27.76,8.32-27.76,18.58c0,10.26,12.43,18.58,27.76,18.58
	c1.84,0,3.63-0.12,5.37-0.35c6.46,9.58,17.05,15.83,29.02,15.83c8.04,0,15.47-2.82,21.43-7.58c5.95,4.41,12.96,7.34,20.56,8.28
	c5.04,1.53,10.77,2.4,16.85,2.4c17.66,0,32.38-7.29,35.74-16.96c0.46-0.14,0.92-0.31,1.37-0.51c2.6,0.61,5.46,0.95,8.47,0.95
	c2.26,0,4.44-0.19,6.49-0.55c2.17,0.35,4.43,0.55,6.77,0.55c15.56,0,28.18-8.32,28.18-18.58
	C1540,372.64,1527.39,364.32,1511.82,364.32z"/>
<path class="st2" d="M89.68,367.28c-2.5,0-4.89,0.2-7.1,0.56c-1.53-5.48-6.2-9.46-11.72-9.46c-1.21,0-2.38,0.19-3.49,0.55
	C61.94,351.83,51.22,347,38.88,347c-10.74,0-20.25,3.66-26.12,9.29c-2.5-0.57-5.17-0.88-7.95-0.88c-10.57,0-19.65,4.49-23.6,10.9
	c-0.4-0.01-0.8-0.02-1.2-0.02c-11.06,0-20.02,3.99-20.02,8.9s8.96,8.9,20.02,8.9c1.32,0,2.62-0.06,3.87-0.17
	c4.66,4.59,12.29,7.59,20.93,7.59c5.8,0,11.15-1.35,15.45-3.63c4.29,2.12,9.34,3.52,14.82,3.97c3.64,0.73,7.77,1.15,12.15,1.15
	c12.73,0,23.35-3.49,25.77-8.13c0.33-0.07,0.66-0.15,0.99-0.24c1.87,0.29,3.94,0.46,6.11,0.46c1.63,0,3.2-0.09,4.68-0.26
	c1.56,0.17,3.2,0.26,4.88,0.26c11.22,0,20.32-3.99,20.32-8.9C110,371.27,100.9,367.28,89.68,367.28z"/>
<path class="st3" d="M1922,1079H3V712.02c313.98-17.04,627.98-25.71,942-26.02c325.66-0.32,651.33,8.35,977,26.02
	C1922,834.35,1922,956.67,1922,1079z"/>
<path class="st4" d="M1737,657l-33,25c4,15.33,8,30.67,12,46c14,0,28,0,42,0c4-15.33,8-30.67,12-46L1737,657z"/>
<path class="st4" d="M1820,661l-33,25c4,15.33,8,30.67,12,46c14,0,28,0,42,0c4-15.33,8-30.67,12-46L1820,661z"/>
<path class="st4" d="M1898,663l-33,25c4,15.33,8,30.67,12,46c14,0,28,0,42,0c4-15.33,8-30.67,12-46L1898,663z"/>
<path class="st4" d="M1651,652l-33,25c4,15.33,8,30.67,12,46c14,0,28,0,42,0c4-15.33,8-30.67,12-46L1651,652z"/>
<path class="st4" d="M1564,647l-33,25c4,15.33,8,30.67,12,46c14,0,28,0,42,0c4-15.33,8-30.67,12-46L1564,647z"/>
<path class="st4" d="M1478,647l-33,25c4,15.33,8,30.67,12,46c14,0,28,0,42,0c4-15.33,8-30.67,12-46L1478,647z"/>
<path class="st4" d="M1392,647l-33,25c4,15.33,8,30.67,12,46c14,0,28,0,42,0c4-15.33,8-30.67,12-46L1392,647z"/>
<path class="st4" d="M1306,647l-33,25c4,15.33,8,30.67,12,46c14,0,28,0,42,0c4-15.33,8-30.67,12-46L1306,647z"/>
<path class="st4" d="M1220,647l-33,25c4,15.33,8,30.67,12,46c14,0,28,0,42,0c4-15.33,8-30.67,12-46L1220,647z"/>
<path class="st4" d="M1134,647l-33,25c4,15.33,8,30.67,12,46c14,0,28,0,42,0c4-15.33,8-30.67,12-46L1134,647z"/>
<path class="st4" d="M1048,647l-33,25c4,15.33,8,30.67,12,46c14,0,28,0,42,0c4-15.33,8-30.67,12-46L1048,647z"/>
<path class="st4" d="M962,647l-33,25c4,15.33,8,30.67,12,46c14,0,28,0,42,0c4-15.33,8-30.67,12-46L962,647z"/>
<path class="st4" d="M876,647l-33,25c4,15.33,8,30.67,12,46c14,0,28,0,42,0c4-15.33,8-30.67,12-46L876,647z"/>
<path class="st4" d="M790,647l-33,25c4,15.33,8,30.67,12,46c14,0,28,0,42,0c4-15.33,8-30.67,12-46L790,647z"/>
<path class="st4" d="M704,647l-33,25c4,15.33,8,30.67,12,46c14,0,28,0,42,0c4-15.33,8-30.67,12-46L704,647z"/>
<path class="st4" d="M618,647l-33,25c4,15.33,8,30.67,12,46c14,0,28,0,42,0c4-15.33,8-30.67,12-46L618,647z"/>
<path class="st4" d="M532,647l-33,25c4,15.33,8,30.67,12,46c14,0,28,0,42,0c4-15.33,8-30.67,12-46L532,647z"/>
<path class="st4" d="M446,647l-33,25c4,15.33,8,30.67,12,46c14,0,28,0,42,0c4-15.33,8-30.67,12-46L446,647z"/>
<path class="st4" d="M360,647l-33,25c4,15.33,8,30.67,12,46c14,0,28,0,42,0c4-15.33,8-30.67,12-46L360,647z"/>
<path class="st4" d="M274,649l-33,25c4,15.33,8,30.67,12,46c14,0,28,0,42,0c4-15.33,8-30.67,12-46L274,649z"/>
<path class="st4" d="M188,649l-33,25c4,15.33,8,30.67,12,46c14,0,28,0,42,0c4-15.33,8-30.67,12-46L188,649z"/>
<path class="st4" d="M102,649l-33,25c4,15.33,8,30.67,12,46c14,0,28,0,42,0c4-15.33,8-30.67,12-46L102,649z"/>
<path class="st4" d="M16,653l-33,25c4,15.33,8,30.67,12,46c14,0,28,0,42,0c4-15.33,8-30.67,12-46L16,653z"/>
<rect x="1840" y="700" class="st4" width="50" height="12"/>
<rect x="1753" y="694" transform="matrix(0.9983 0.0587 -0.0587 0.9983 44.1691 -103.1901)" class="st4" width="50" height="12"/>
<rect x="1666" y="694" class="st4" width="50" height="12"/>
<rect x="1579" y="688" class="st4" width="50" height="12"/>
<rect x="1492" y="688" class="st4" width="50" height="12"/>
<rect x="1405" y="688" class="st4" width="50" height="12"/>
<rect x="1318" y="688" class="st4" width="50" height="12"/>
<rect x="1231" y="688" class="st4" width="50" height="12"/>
<rect x="1144" y="688" class="st4" width="50" height="12"/>
<rect x="1066" y="686" class="st4" width="50" height="12"/>
<rect x="978" y="686" class="st4" width="50" height="12"/>
<rect x="891" y="686" class="st4" width="50" height="12"/>
<rect x="808" y="688" class="st4" width="50" height="12"/>
<rect x="722" y="688" class="st4" width="50" height="12"/>
<rect x="636" y="688" class="st4" width="50" height="12"/>
<rect x="550" y="688" class="st4" width="50" height="12"/>
<rect x="464" y="688" class="st4" width="50" height="12"/>
<rect x="378" y="688" class="st4" width="50" height="12"/>
<rect x="292" y="688" class="st4" width="50" height="12"/>
<rect x="206" y="692" transform="matrix(0.9992 -0.0403 0.0403 0.9992 -27.9622 9.884)" class="st4" width="50" height="12"/>
<rect x="120" y="695" transform="matrix(0.9965 -0.0836 0.0836 0.9965 -58.0897 14.5741)" class="st4" width="50" height="12"/>
<rect x="34" y="701" transform="matrix(0.9965 -0.0836 0.0836 0.9965 -58.8922 7.4062)" class="st4" width="50" height="12"/>
<g>
	<g>
		<path class="st5" d="M1856,337c-5.86,54.86-5.17,57.32-9,67c-3.89,9.83-14.01,35.37-40,49c-22.33,11.71-44.53,8.43-61,6
			c-23.17-3.42-39.33-12.13-50-18c-19.1-10.51-38.43-21.15-49-43c-5.16-10.65-6.47-20.34-9-39c-1.62-11.96-3.37-24.86-2-39
			c3.65-37.66,27.41-63.28,30-66c27.61-28.97,62.24-33.18,73-34c34.84-2.67,60.1,11.63,71,18c13.66,7.99,41.74,24.41,49,54
			C1860.56,298.34,1859.92,300.26,1856,337z"/>
		
			<ellipse transform="matrix(0.8047 -0.5937 0.5937 0.8047 183.1818 1043.0511)" class="st5" cx="1676.83" cy="243.12" rx="3.81" ry="8.6"/>
		
			<ellipse transform="matrix(0.314 -0.9494 0.9494 0.314 910.3896 1758.1932)" class="st5" cx="1671.83" cy="249.12" rx="3.81" ry="8.6"/>
		
			<ellipse transform="matrix(0.8047 -0.5937 0.5937 0.8047 196.963 1056.9407)" class="st5" cx="1704.83" cy="229.12" rx="3.81" ry="8.6"/>
		
			<ellipse transform="matrix(0.3337 -0.9427 0.9427 0.3337 949.6807 1783.9119)" class="st5" cx="1736.83" cy="220.12" rx="8.6" ry="3.81"/>
		
			<ellipse transform="matrix(0.4474 -0.8943 0.8943 0.4474 786.562 1749.2625)" class="st5" cx="1808.83" cy="238.12" rx="8.6" ry="3.81"/>
		
			<ellipse transform="matrix(0.9218 -0.3877 0.3877 0.9218 39.0447 737.7661)" class="st5" cx="1847.83" cy="272.12" rx="8.6" ry="3.81"/>
		
			<ellipse transform="matrix(0.8047 -0.5937 0.5937 0.8047 156.7296 1034.6462)" class="st5" cx="1650.83" cy="279.12" rx="3.81" ry="8.6"/>
		
			<ellipse transform="matrix(0.3473 -0.9378 0.9378 0.3473 785.8074 1737.2163)" class="st5" cx="1640.83" cy="304.12" rx="3.81" ry="8.6"/>
		
			<ellipse transform="matrix(0.8976 -0.4409 0.4409 0.8976 30.6099 753.9879)" class="st5" cx="1637.83" cy="311.12" rx="8.6" ry="3.81"/>
		
			<ellipse transform="matrix(0.985 -0.1727 0.1727 0.985 -37.4082 288.1748)" class="st5" cx="1637.83" cy="359.12" rx="8.6" ry="3.81"/>
		
			<ellipse transform="matrix(0.6726 -0.74 0.74 0.6726 238.0317 1364.267)" class="st5" cx="1660.83" cy="413.12" rx="8.6" ry="3.81"/>
		
			<ellipse transform="matrix(0.8067 -0.591 0.591 0.8067 68.3557 1085.201)" class="st5" cx="1692.83" cy="438.12" rx="8.6" ry="3.81"/>
		
			<ellipse transform="matrix(0.8958 -0.4445 0.4445 0.8958 46.6597 859.2642)" class="st5" cx="1855.83" cy="330.12" rx="8.6" ry="3.81"/>
		
			<ellipse transform="matrix(0.0715 -0.9974 0.9974 0.0715 1390.5743 2168.0867)" class="st5" cx="1859.83" cy="337.12" rx="3.81" ry="8.6"/>
		
			<ellipse transform="matrix(0.6997 -0.7144 0.7144 0.6997 232.2059 1434.7107)" class="st5" cx="1822.83" cy="441.12" rx="3.81" ry="8.6"/>
		
			<ellipse transform="matrix(0.8958 -0.4445 0.4445 0.8958 49.839 838.8248)" class="st6" cx="1813.83" cy="313.12" rx="8.6" ry="3.81"/>
		
			<ellipse transform="matrix(0.528 -0.8493 0.8493 0.528 505.3249 1735.4199)" class="st6" cx="1813.83" cy="413.12" rx="8.6" ry="3.81"/>
		
			<ellipse transform="matrix(0.5147 -0.8574 0.8574 0.5147 612.2389 1603.8519)" class="st6" cx="1722.83" cy="261.12" rx="8.6" ry="3.81"/>
		
			<ellipse transform="matrix(0.7233 -0.6906 0.6906 0.7233 271.1579 1248.8969)" class="st6" cx="1693.83" cy="286.12" rx="3.81" ry="8.6"/>
		
			<ellipse transform="matrix(0.9597 -0.2809 0.2809 0.9597 -21.7629 488.4195)" class="st6" cx="1692.83" cy="320.12" rx="8.6" ry="3.81"/>
		
			<ellipse transform="matrix(0.5244 -0.8515 0.8515 0.5244 502.7335 1582.3225)" class="st6" cx="1667.83" cy="341.12" rx="3.81" ry="8.6"/>
		
			<ellipse transform="matrix(0.8958 -0.4445 0.4445 0.8958 1.9573 796.5959)" class="st6" cx="1699.83" cy="394.12" rx="8.6" ry="3.81"/>
	</g>
	<path class="st7" d="M1823,390c-0.33-0.67-0.67-1.33-1-2c-22.71,12.24-45.42,24.49-68.13,36.73c-1.39-18.02-2.78-36.03-4.17-54.05
		c15.86-12.09,31.72-24.17,47.58-36.26c-0.52-0.54-1.05-1.08-1.57-1.62c-15.64,8.74-31.27,17.49-46.91,26.23
		c-1.93-25.01-3.86-50.02-5.79-75.03c-1,0-2,0-3,0c-1.1,14.92-2.19,29.84-3.29,44.76c-10.24-5.25-20.47-10.51-30.71-15.76
		c-0.33,0.67-0.67,1.33-1,2c10.17,8.48,20.35,16.96,30.52,25.44l0.37-0.56c-1.44,19.62-2.89,39.24-4.33,58.87
		c-18.32-9.58-36.63-19.17-54.95-28.75c-0.25,0.71-0.51,1.42-0.76,2.13c18.17,12.79,36.34,25.58,54.51,38.37l0.38-0.62
		c-3.58,48.71-7.16,97.41-10.74,146.12c14.67,0,29.33,0,44,0c-2.71-35.08-5.42-70.16-8.12-105.24
		C1778.25,430.51,1800.63,410.25,1823,390z"/>
</g>
<g>
	<g>
		<path class="st5" d="M351.11,429.96c-3.25,29.82-2.87,31.16-4.99,36.42c-2.16,5.34-7.77,19.22-22.19,26.64
			c-12.39,6.37-24.71,4.58-33.85,3.26c-12.85-1.86-21.82-6.59-27.74-9.78c-10.6-5.71-21.32-11.5-27.19-23.37
			c-2.86-5.79-3.59-11.06-4.99-21.2c-0.9-6.5-1.87-13.51-1.11-21.2c2.03-20.47,15.21-34.4,16.65-35.88
			c15.32-15.75,34.54-18.03,40.5-18.48c19.33-1.45,33.35,6.32,39.39,9.78c7.58,4.34,23.16,13.27,27.19,29.35
			C353.64,408.94,353.29,409.98,351.11,429.96z"/>
		
			<ellipse transform="matrix(0.7959 -0.6055 0.6055 0.7959 -178.049 229.7511)" class="st5" cx="251.7" cy="378.93" rx="2.1" ry="4.71"/>
		
			<ellipse transform="matrix(0.3055 -0.9522 0.9522 0.3055 -191.0335 502.4636)" class="st5" cx="248.93" cy="382.19" rx="2.07" ry="4.76"/>
		
			<ellipse transform="matrix(0.7959 -0.6055 0.6055 0.7959 -170.2697 237.6043)" class="st5" cx="267.24" cy="371.32" rx="2.1" ry="4.71"/>
		
			<ellipse transform="matrix(0.343 -0.9394 0.9394 0.343 -156.9469 508.4658)" class="st5" cx="284.99" cy="366.42" rx="4.69" ry="2.11"/>
		
			<ellipse transform="matrix(0.4585 -0.8887 0.8887 0.4585 -158.3741 492.5041)" class="st5" cx="324.94" cy="376.21" rx="4.7" ry="2.1"/>
		
			<ellipse transform="matrix(0.9259 -0.3778 0.3778 0.9259 -123.432 160.199)" class="st5" cx="346.58" cy="394.69" rx="4.76" ry="2.08"/>
		
			<ellipse transform="matrix(0.7959 -0.6055 0.6055 0.7959 -192.8425 225.0111)" class="st5" cx="237.27" cy="398.49" rx="2.1" ry="4.71"/>
		
			<ellipse transform="matrix(0.3381 -0.9411 0.9411 0.3381 -234.4372 490.8378)" class="st5" cx="231.73" cy="412.08" rx="2.08" ry="4.76"/>
		
			<ellipse transform="matrix(0.9027 -0.4302 0.4302 0.9027 -156.5295 139.412)" class="st5" cx="230.06" cy="415.89" rx="4.75" ry="2.08"/>
		
			<ellipse transform="matrix(0.9858 -0.1676 0.1676 0.9858 -70.8411 44.8246)" class="st5" cx="230.06" cy="441.98" rx="4.77" ry="2.07"/>
		
			<ellipse transform="matrix(0.6838 -0.7297 0.7297 0.6838 -267.1371 326.2133)" class="st5" cx="242.82" cy="471.33" rx="4.72" ry="2.09"/>
		
			<ellipse transform="matrix(0.8151 -0.5793 0.5793 0.8151 -232.7375 240.6045)" class="st5" cx="260.58" cy="484.92" rx="4.74" ry="2.09"/>
		
			<ellipse transform="matrix(0.9011 -0.4337 0.4337 0.9011 -150.1191 194.4076)" class="st5" cx="351.02" cy="426.22" rx="4.75" ry="2.08"/>
		
			<ellipse transform="matrix(0.0694 -0.9976 0.9976 0.0694 -100.2563 752.5729)" class="st5" cx="353.24" cy="430.02" rx="2.07" ry="4.77"/>
		
			<ellipse transform="matrix(0.6887 -0.725 0.725 0.6887 -249.1969 392.6606)" class="st5" cx="332.71" cy="486.56" rx="2.09" ry="4.73"/>
		
			<ellipse transform="matrix(0.9011 -0.4337 0.4337 0.9011 -148.4171 183.3864)" class="st6" cx="327.72" cy="416.98" rx="4.75" ry="2.08"/>
		
			<ellipse transform="matrix(0.5397 -0.8419 0.8419 0.5397 -245.9483 492.8607)" class="st6" cx="327.72" cy="471.33" rx="4.7" ry="2.1"/>
		
			<ellipse transform="matrix(0.5263 -0.8503 0.8503 0.5263 -199.1993 419.8441)" class="st6" cx="277.22" cy="388.71" rx="4.7" ry="2.1"/>
		
			<ellipse transform="matrix(0.7126 -0.7015 0.7015 0.7126 -207.187 298.8026)" class="st6" cx="261.13" cy="402.3" rx="2.09" ry="4.72"/>
		
			<ellipse transform="matrix(0.962 -0.2731 0.2731 0.962 -105.0267 87.1783)" class="st6" cx="260.58" cy="420.78" rx="4.76" ry="2.07"/>
		
			<ellipse transform="matrix(0.5129 -0.8585 0.8585 0.5129 -250.8478 422.3179)" class="st6" cx="246.71" cy="432.2" rx="2.08" ry="4.75"/>
		
			<ellipse transform="matrix(0.9011 -0.4337 0.4337 0.9011 -173.7714 160.3097)" class="st6" cx="264.46" cy="461.01" rx="4.75" ry="2.08"/>
	</g>
	<path class="st7" d="M332.8,458.77c-0.18-0.36-0.37-0.72-0.55-1.09c-12.6,6.66-25.2,13.31-37.81,19.97
		c-0.77-9.79-1.54-19.59-2.32-29.38c8.8-6.57,17.6-13.14,26.4-19.71c-0.29-0.29-0.58-0.59-0.87-0.88
		c-8.68,4.75-17.35,9.51-26.03,14.26c-1.07-13.6-2.14-27.19-3.21-40.79c-0.55,0-1.11,0-1.66,0c-0.61,8.11-1.22,16.22-1.83,24.33
		c-5.68-2.86-11.36-5.71-17.04-8.57c-0.18,0.36-0.37,0.72-0.55,1.09c5.64,4.61,11.29,9.22,16.93,13.83l0.21-0.3
		c-0.8,10.67-1.6,21.33-2.4,32c-10.16-5.21-20.33-10.42-30.49-15.63c-0.14,0.39-0.28,0.77-0.42,1.16
		c10.08,6.95,20.16,13.91,30.25,20.86l0.21-0.34c-1.99,26.48-3.97,52.95-5.96,79.43c8.14,0,16.28,0,24.41,0
		c-1.5-19.07-3.01-38.14-4.51-57.21C307.97,480.78,320.39,469.77,332.8,458.77z"/>
</g>
<g>
	<ellipse transform="matrix(0.9992 -0.0393 0.0393 0.9992 -39.0983 6.452)" class="st8" cx="144.45" cy="997.06" rx="5.51" ry="6"/>
	
		<ellipse transform="matrix(0.4567 -0.8896 0.8896 0.4567 -805.6055 676.9675)" class="st8" cx="151.45" cy="998.06" rx="6" ry="5.51"/>
	
		<ellipse transform="matrix(0.9999 -0.0145 0.0145 0.9999 -14.5197 2.3726)" class="st8" cx="156.45" cy="1003.06" rx="6" ry="5.51"/>
	
		<ellipse transform="matrix(0.0468 -0.9989 0.9989 0.0468 -869.4463 1112.9728)" class="st8" cx="148.45" cy="1012.06" rx="6" ry="5.51"/>
	
		<ellipse transform="matrix(0.6275 -0.7786 0.7786 0.6275 -735.2535 485.1531)" class="st8" cx="139.45" cy="1011.06" rx="6" ry="5.51"/>
	
		<ellipse transform="matrix(0.4981 -0.8671 0.8671 0.4981 -797.4736 640.423)" class="st8" cx="154.45" cy="1009.06" rx="5.51" ry="6"/>
	<ellipse transform="matrix(0.604 -0.797 0.797 0.604 -740.9792 504.7305)" class="st8" cx="137.45" cy="998.06" rx="5.51" ry="6"/>
	
		<ellipse transform="matrix(0.9979 -0.0648 0.0648 0.9979 -64.7531 10.7521)" class="st8" cx="133.45" cy="1004.06" rx="6" ry="5.51"/>
	<ellipse class="st9" cx="145.5" cy="1005" rx="8.5" ry="5"/>
</g>
<g>
	
		<ellipse transform="matrix(0.9992 -0.0393 0.0393 0.9992 -33.1105 10.8584)" class="st8" cx="259.45" cy="847.06" rx="5.51" ry="6"/>
	
		<ellipse transform="matrix(0.4567 -0.8896 0.8896 0.4567 -609.6852 697.7799)" class="st8" cx="266.45" cy="848.06" rx="6" ry="5.51"/>
	
		<ellipse transform="matrix(0.9999 -0.0145 0.0145 0.9999 -12.3339 4.0234)" class="st8" cx="271.45" cy="853.06" rx="6" ry="5.51"/>
	
		<ellipse transform="matrix(0.0468 -0.9989 0.9989 0.0468 -609.9939 1084.8683)" class="st8" cx="263.45" cy="862.06" rx="6" ry="5.51"/>
	
		<ellipse transform="matrix(0.6275 -0.7786 0.7786 0.6275 -575.6332 518.8214)" class="st8" cx="254.45" cy="861.06" rx="6" ry="5.51"/>
	
		<ellipse transform="matrix(0.4981 -0.8671 0.8671 0.4981 -609.6784 664.853)" class="st8" cx="269.45" cy="859.06" rx="5.51" ry="6"/>
	<ellipse transform="matrix(0.604 -0.797 0.797 0.604 -575.9015 536.9865)" class="st8" cx="252.45" cy="848.06" rx="5.51" ry="6"/>
	
		<ellipse transform="matrix(0.9979 -0.0648 0.0648 0.9979 -54.7961 17.8857)" class="st8" cx="248.45" cy="854.06" rx="6" ry="5.51"/>
	<ellipse class="st9" cx="260.5" cy="855" rx="8.5" ry="5"/>
</g>
<g>
	<ellipse transform="matrix(0.9992 -0.0393 0.0393 0.9992 -31.829 22.006)" class="st8" cx="543.45" cy="820.06" rx="5.51" ry="6"/>
	
		<ellipse transform="matrix(0.4567 -0.8896 0.8896 0.4567 -431.3717 935.7617)" class="st8" cx="550.45" cy="821.06" rx="6" ry="5.51"/>
	
		<ellipse transform="matrix(0.9999 -0.0145 0.0145 0.9999 -11.9128 8.1363)" class="st8" cx="555.45" cy="826.06" rx="6" ry="5.51"/>
	
		<ellipse transform="matrix(0.0468 -0.9989 0.9989 0.0468 -312.3177 1342.8208)" class="st8" cx="547.45" cy="835.06" rx="6" ry="5.51"/>
	
		<ellipse transform="matrix(0.6275 -0.7786 0.7786 0.6275 -448.833 729.8828)" class="st8" cx="538.45" cy="834.06" rx="6" ry="5.51"/>
	
		<ellipse transform="matrix(0.4981 -0.8671 0.8671 0.4981 -443.7134 897.5697)" class="st8" cx="553.45" cy="832.06" rx="5.51" ry="6"/>
	<ellipse transform="matrix(0.604 -0.797 0.797 0.604 -441.9321 752.6298)" class="st8" cx="536.45" cy="821.06" rx="5.51" ry="6"/>
	
		<ellipse transform="matrix(0.9979 -0.0648 0.0648 0.9979 -52.4509 36.2238)" class="st8" cx="532.45" cy="827.06" rx="6" ry="5.51"/>
	<ellipse class="st9" cx="544.5" cy="828" rx="8.5" ry="5"/>
</g>
<g>
	
		<ellipse transform="matrix(0.9992 -0.0393 0.0393 0.9992 -38.2351 24.3351)" class="st8" cx="599.45" cy="984.06" rx="5.51" ry="6"/>
	
		<ellipse transform="matrix(0.4567 -0.8896 0.8896 0.4567 -546.8444 1074.6794)" class="st8" cx="606.45" cy="985.06" rx="6" ry="5.51"/>
	<ellipse transform="matrix(0.9999 -0.0145 0.0145 0.9999 -14.2835 8.965)" class="st8" cx="611.45" cy="990.06" rx="6" ry="5.51"/>
	
		<ellipse transform="matrix(0.0468 -0.9989 0.9989 0.0468 -422.7593 1555.0825)" class="st8" cx="603.45" cy="999.06" rx="6" ry="5.51"/>
	
		<ellipse transform="matrix(0.6275 -0.7786 0.7786 0.6275 -555.663 834.5667)" class="st8" cx="594.45" cy="998.06" rx="6" ry="5.51"/>
	
		<ellipse transform="matrix(0.4981 -0.8671 0.8671 0.4981 -557.8163 1028.4486)" class="st8" cx="609.45" cy="996.06" rx="5.51" ry="6"/>
	<ellipse transform="matrix(0.604 -0.797 0.797 0.604 -550.4586 862.196)" class="st8" cx="592.45" cy="985.06" rx="5.51" ry="6"/>
	
		<ellipse transform="matrix(0.9979 -0.0648 0.0648 0.9979 -62.9557 40.1953)" class="st8" cx="588.45" cy="991.06" rx="6" ry="5.51"/>
	<ellipse class="st9" cx="600.5" cy="992" rx="8.5" ry="5"/>
</g>
<g>
	
		<ellipse transform="matrix(0.9992 -0.0393 0.0393 0.9992 -35.9809 16.934)" class="st8" cx="412.45" cy="923.06" rx="5.51" ry="6"/>
	
		<ellipse transform="matrix(0.4567 -0.8896 0.8896 0.4567 -594.1728 875.1808)" class="st8" cx="419.45" cy="924.06" rx="6" ry="5.51"/>
	
		<ellipse transform="matrix(0.9999 -0.0145 0.0145 0.9999 -13.4192 6.2486)" class="st8" cx="424.45" cy="929.06" rx="6" ry="5.51"/>
	
		<ellipse transform="matrix(0.0468 -0.9989 0.9989 0.0468 -540.0726 1310.1429)" class="st8" cx="416.45" cy="938.06" rx="6" ry="5.51"/>
	
		<ellipse transform="matrix(0.6275 -0.7786 0.7786 0.6275 -577.8193 666.2516)" class="st8" cx="407.45" cy="937.06" rx="6" ry="5.51"/>
	
		<ellipse transform="matrix(0.4981 -0.8671 0.8671 0.4981 -598.784 835.674)" class="st8" cx="422.45" cy="935.06" rx="5.51" ry="6"/>
	<ellipse transform="matrix(0.604 -0.797 0.797 0.604 -575.8884 689.0127)" class="st8" cx="405.45" cy="924.06" rx="5.51" ry="6"/>
	
		<ellipse transform="matrix(0.9979 -0.0648 0.0648 0.9979 -59.3974 27.9552)" class="st8" cx="401.45" cy="930.06" rx="6" ry="5.51"/>
	<ellipse class="st9" cx="413.5" cy="931" rx="8.5" ry="5"/>
</g>
<g>
	
		<ellipse transform="matrix(0.9992 -0.0393 0.0393 0.9992 -31.1042 34.8562)" class="st8" cx="870.45" cy="808.06" rx="5.51" ry="6"/>
	
		<ellipse transform="matrix(0.4567 -0.8896 0.8896 0.4567 -243.041 1220.1462)" class="st8" cx="877.45" cy="809.06" rx="6" ry="5.51"/>
	
		<ellipse transform="matrix(0.9999 -0.0145 0.0145 0.9999 -11.7045 12.8738)" class="st8" cx="882.45" cy="814.06" rx="6" ry="5.51"/>
	
		<ellipse transform="matrix(0.0468 -0.9989 0.9989 0.0468 11.3621 1658.024)" class="st8" cx="874.45" cy="823.06" rx="6" ry="5.51"/>
	
		<ellipse transform="matrix(0.6275 -0.7786 0.7786 0.6275 -317.6958 980.0101)" class="st8" cx="865.45" cy="822.06" rx="6" ry="5.51"/>
	
		<ellipse transform="matrix(0.4981 -0.8671 0.8671 0.4981 -269.172 1175.1028)" class="st8" cx="880.45" cy="820.06" rx="5.51" ry="6"/>
	
		<ellipse transform="matrix(0.604 -0.797 0.797 0.604 -302.8908 1008.4815)" class="st8" cx="863.45" cy="809.06" rx="5.51" ry="6"/>
	
		<ellipse transform="matrix(0.9979 -0.0648 0.0648 0.9979 -50.987 57.3786)" class="st8" cx="859.45" cy="815.06" rx="6" ry="5.51"/>
	<ellipse class="st9" cx="871.5" cy="816" rx="8.5" ry="5"/>
</g>
<g>
	
		<ellipse transform="matrix(0.9992 -0.0393 0.0393 0.9992 -37.7329 39.8649)" class="st8" cx="994.45" cy="979.06" rx="5.51" ry="6"/>
	
		<ellipse transform="matrix(0.4567 -0.8896 0.8896 0.4567 -327.7974 1423.3608)" class="st8" cx="1001.45" cy="980.06" rx="6" ry="5.51"/>
	
		<ellipse transform="matrix(0.9999 -0.0145 0.0145 0.9999 -14.1696 14.6888)" class="st8" cx="1006.45" cy="985.06" rx="6" ry="5.51"/>
	
		<ellipse transform="matrix(0.0468 -0.9989 0.9989 0.0468 -41.2549 1944.8835)" class="st8" cx="998.45" cy="994.06" rx="6" ry="5.51"/>
	
		<ellipse transform="matrix(0.6275 -0.7786 0.7786 0.6275 -404.6487 1140.245)" class="st8" cx="989.45" cy="993.06" rx="6" ry="5.51"/>
	
		<ellipse transform="matrix(0.4981 -0.8671 0.8671 0.4981 -355.2127 1368.4611)" class="st8" cx="1004.45" cy="991.06" rx="5.51" ry="6"/>
	
		<ellipse transform="matrix(0.604 -0.797 0.797 0.604 -390.0709 1175.0121)" class="st8" cx="987.45" cy="980.06" rx="5.51" ry="6"/>
	
		<ellipse transform="matrix(0.9979 -0.0648 0.0648 0.9979 -61.8024 65.7692)" class="st8" cx="983.45" cy="986.06" rx="6" ry="5.51"/>
	<ellipse class="st9" cx="995.5" cy="987" rx="8.5" ry="5"/>
</g>
<g>
	
		<ellipse transform="matrix(0.9992 -0.0393 0.0393 0.9992 -31.5825 42.5371)" class="st8" cx="1065.45" cy="824.06" rx="5.51" ry="6"/>
	
		<ellipse transform="matrix(0.4567 -0.8896 0.8896 0.4567 -151.3336 1402.3137)" class="st8" cx="1072.45" cy="825.06" rx="6" ry="5.51"/>
	
		<ellipse transform="matrix(0.9999 -0.0145 0.0145 0.9999 -11.9159 15.7014)" class="st8" cx="1077.45" cy="830.06" rx="6" ry="5.51"/>
	
		<ellipse transform="matrix(0.0468 -0.9989 0.9989 0.0468 181.2516 1868.0614)" class="st8" cx="1069.45" cy="839.06" rx="6" ry="5.51"/>
	
		<ellipse transform="matrix(0.6275 -0.7786 0.7786 0.6275 -257.5236 1137.7932)" class="st8" cx="1060.45" cy="838.06" rx="6" ry="5.51"/>
	
		<ellipse transform="matrix(0.4981 -0.8671 0.8671 0.4981 -185.1673 1352.2271)" class="st8" cx="1075.45" cy="836.06" rx="5.51" ry="6"/>
	
		<ellipse transform="matrix(0.604 -0.797 0.797 0.604 -238.4305 1170.2223)" class="st8" cx="1058.45" cy="825.06" rx="5.51" ry="6"/>
	
		<ellipse transform="matrix(0.9979 -0.0648 0.0648 0.9979 -51.6139 70.0424)" class="st8" cx="1054.45" cy="831.06" rx="6" ry="5.51"/>
	<ellipse class="st9" cx="1066.5" cy="832" rx="8.5" ry="5"/>
</g>
<g>
	
		<ellipse transform="matrix(0.9992 -0.0393 0.0393 0.9992 -36.2387 49.8281)" class="st8" cx="1248.45" cy="946.06" rx="5.51" ry="6"/>
	
		<ellipse transform="matrix(0.4567 -0.8896 0.8896 0.4567 -160.4449 1631.3944)" class="st8" cx="1255.45" cy="947.06" rx="6" ry="5.51"/>
	
		<ellipse transform="matrix(0.9999 -0.0145 0.0145 0.9999 -13.6647 18.3662)" class="st8" cx="1260.45" cy="952.06" rx="6" ry="5.51"/>
	
		<ellipse transform="matrix(0.0468 -0.9989 0.9989 0.0468 233.819 2167.1499)" class="st8" cx="1252.45" cy="961.06" rx="6" ry="5.51"/>
	
		<ellipse transform="matrix(0.6275 -0.7786 0.7786 0.6275 -284.3508 1325.7141)" class="st8" cx="1243.45" cy="960.06" rx="6" ry="5.51"/>
	
		<ellipse transform="matrix(0.4981 -0.8671 0.8671 0.4981 -199.1032 1572.1517)" class="st8" cx="1258.45" cy="958.06" rx="5.51" ry="6"/>
	
		<ellipse transform="matrix(0.604 -0.797 0.797 0.604 -263.1985 1364.3712)" class="st8" cx="1241.45" cy="947.06" rx="5.51" ry="6"/>
	
		<ellipse transform="matrix(0.9979 -0.0648 0.0648 0.9979 -59.1316 82.1516)" class="st8" cx="1237.45" cy="953.06" rx="6" ry="5.51"/>
	<ellipse class="st9" cx="1249.5" cy="954" rx="8.5" ry="5"/>
</g>
<g>
	
		<ellipse transform="matrix(0.9992 -0.0393 0.0393 0.9992 -30.0059 62.688)" class="st8" cx="1578.45" cy="794.06" rx="5.51" ry="6"/>
	
		<ellipse transform="matrix(0.4567 -0.8896 0.8896 0.4567 154.0617 1842.3875)" class="st8" cx="1585.45" cy="795.06" rx="6" ry="5.51"/>
	
		<ellipse transform="matrix(0.9999 -0.0145 0.0145 0.9999 -11.4273 23.1326)" class="st8" cx="1590.45" cy="800.06" rx="6" ry="5.51"/>
	
		<ellipse transform="matrix(0.0468 -0.9989 0.9989 0.0468 700.2049 2351.9033)" class="st8" cx="1582.45" cy="809.06" rx="6" ry="5.51"/>
	
		<ellipse transform="matrix(0.6275 -0.7786 0.7786 0.6275 -43.0945 1526.033)" class="st8" cx="1573.45" cy="808.06" rx="6" ry="5.51"/>
	
		<ellipse transform="matrix(0.4981 -0.8671 0.8671 0.4981 98.3443 1782.014)" class="st8" cx="1588.45" cy="806.06" rx="5.51" ry="6"/>
	
		<ellipse transform="matrix(0.604 -0.797 0.797 0.604 -11.3962 1567.1798)" class="st8" cx="1571.45" cy="795.06" rx="5.51" ry="6"/>
	
		<ellipse transform="matrix(0.9979 -0.0648 0.0648 0.9979 -48.5936 103.2067)" class="st8" cx="1567.45" cy="801.06" rx="6" ry="5.51"/>
	<ellipse class="st9" cx="1579.5" cy="802" rx="8.5" ry="5"/>
</g>
<g>
	
		<ellipse transform="matrix(0.9992 -0.0393 0.0393 0.9992 -34.8851 30.6425)" class="st8" cx="761.45" cy="902.06" rx="5.51" ry="6"/>
	
		<ellipse transform="matrix(0.4567 -0.8896 0.8896 0.4567 -385.8832 1174.2473)" class="st8" cx="768.45" cy="903.06" rx="6" ry="5.51"/>
	
		<ellipse transform="matrix(0.9999 -0.0145 0.0145 0.9999 -13.0782 11.3041)" class="st8" cx="773.45" cy="908.06" rx="6" ry="5.51"/>
	
		<ellipse transform="matrix(0.0468 -0.9989 0.9989 0.0468 -186.4325 1638.7434)" class="st8" cx="765.45" cy="917.06" rx="6" ry="5.51"/>
	
		<ellipse transform="matrix(0.6275 -0.7786 0.7786 0.6275 -431.4807 930.1556)" class="st8" cx="756.45" cy="916.06" rx="6" ry="5.51"/>
	
		<ellipse transform="matrix(0.4981 -0.8671 0.8671 0.4981 -405.3955 1127.7667)" class="st8" cx="771.45" cy="914.06" rx="5.51" ry="6"/>
	<ellipse transform="matrix(0.604 -0.797 0.797 0.604 -420.9636 958.8337)" class="st8" cx="754.45" cy="903.06" rx="5.51" ry="6"/>
	
		<ellipse transform="matrix(0.9979 -0.0648 0.0648 0.9979 -57.3043 50.516)" class="st8" cx="750.45" cy="909.06" rx="6" ry="5.51"/>
	<ellipse class="st9" cx="762.5" cy="910" rx="8.5" ry="5"/>
</g>
<g>
	
		<ellipse transform="matrix(0.9992 -0.0393 0.0393 0.9992 -30.4831 52.4294)" class="st8" cx="1317.45" cy="801.06" rx="5.51" ry="6"/>
	
		<ellipse transform="matrix(0.4567 -0.8896 0.8896 0.4567 6.0362 1614.0011)" class="st8" cx="1324.45" cy="802.06" rx="6" ry="5.51"/>
	
		<ellipse transform="matrix(0.9999 -0.0145 0.0145 0.9999 -11.5561 19.3509)" class="st8" cx="1329.45" cy="807.06" rx="6" ry="5.51"/>
	
		<ellipse transform="matrix(0.0468 -0.9989 0.9989 0.0468 444.4301 2097.8618)" class="st8" cx="1321.45" cy="816.06" rx="6" ry="5.51"/>
	
		<ellipse transform="matrix(0.6275 -0.7786 0.7786 0.6275 -145.7564 1325.4298)" class="st8" cx="1312.45" cy="815.06" rx="6" ry="5.51"/>
	
		<ellipse transform="matrix(0.4981 -0.8671 0.8671 0.4981 -38.7331 1559.2029)" class="st8" cx="1327.45" cy="813.06" rx="5.51" ry="6"/>
	
		<ellipse transform="matrix(0.604 -0.797 0.797 0.604 -120.3195 1361.9471)" class="st8" cx="1310.45" cy="802.06" rx="5.51" ry="6"/>
	
		<ellipse transform="matrix(0.9979 -0.0648 0.0648 0.9979 -49.595 86.3163)" class="st8" cx="1306.45" cy="808.06" rx="6" ry="5.51"/>
	<ellipse class="st9" cx="1318.5" cy="809" rx="8.5" ry="5"/>
</g>
<g>
	
		<ellipse transform="matrix(0.9992 -0.0393 0.0393 0.9992 -36.681 67.3436)" class="st8" cx="1693.45" cy="966.06" rx="5.51" ry="6"/>
	
		<ellipse transform="matrix(0.4567 -0.8896 0.8896 0.4567 63.5261 2038.1388)" class="st8" cx="1700.45" cy="967.06" rx="6" ry="5.51"/>
	
		<ellipse transform="matrix(0.9999 -0.0145 0.0145 0.9999 -13.9078 24.8172)" class="st8" cx="1705.45" cy="972.06" rx="6" ry="5.51"/>
	
		<ellipse transform="matrix(0.0468 -0.9989 0.9989 0.0468 638.0103 2630.7258)" class="st8" cx="1697.45" cy="981.06" rx="6" ry="5.51"/>
	
		<ellipse transform="matrix(0.6275 -0.7786 0.7786 0.6275 -134.1781 1679.6331)" class="st8" cx="1688.45" cy="980.06" rx="6" ry="5.51"/>
	
		<ellipse transform="matrix(0.4981 -0.8671 0.8671 0.4981 6.9189 1968.0701)" class="st8" cx="1703.45" cy="978.06" rx="5.51" ry="6"/>
	
		<ellipse transform="matrix(0.604 -0.797 0.797 0.604 -102.9368 1726.9337)" class="st8" cx="1686.45" cy="967.06" rx="5.51" ry="6"/>
	
		<ellipse transform="matrix(0.9979 -0.0648 0.0648 0.9979 -59.4926 111.0164)" class="st8" cx="1682.45" cy="973.06" rx="6" ry="5.51"/>
	<ellipse class="st9" cx="1694.5" cy="974" rx="8.5" ry="5"/>
</g>
<polygon class="st10" points="765.47,712.72 765,711.9 765,708 762.75,708 749.5,685.05 739,703.24 728.5,685.05 719.5,700.64 
	710.5,685.05 699,704.97 687.5,685.05 675.5,705.84 663.5,685.05 650.25,708 648,708 648,711.9 647.53,712.72 648,712.72 648,727 
	765,727 765,712.72 "/>
<polygon class="st10" points="706.47,712.72 706,711.9 706,708 703.75,708 690.5,685.05 680,703.24 669.5,685.05 660.5,700.64 
	651.5,685.05 640,704.97 628.5,685.05 616.5,705.84 604.5,685.05 591.25,708 589,708 589,711.9 588.53,712.72 589,712.72 589,727 
	706,727 706,712.72 "/>
<polygon class="st10" points="624.47,712.72 624,711.9 624,708 621.75,708 608.5,685.05 598,703.24 587.5,685.05 578.5,700.64 
	569.5,685.05 558,704.97 546.5,685.05 534.5,705.84 522.5,685.05 509.25,708 507,708 507,711.9 506.53,712.72 507,712.72 507,727 
	624,727 624,712.72 "/>
<polygon class="st10" points="870.47,709.72 870,708.9 870,705 867.75,705 854.5,682.05 844,700.24 833.5,682.05 824.5,697.64 
	815.5,682.05 804,701.97 792.5,682.05 780.5,702.84 768.5,682.05 755.25,705 753,705 753,708.9 752.53,709.72 753,709.72 753,724 
	870,724 870,709.72 "/>
<polygon class="st10" points="974.47,709.72 974,708.9 974,705 971.75,705 958.5,682.05 948,700.24 937.5,682.05 928.5,697.64 
	919.5,682.05 908,701.97 896.5,682.05 884.5,702.84 872.5,682.05 859.25,705 857,705 857,708.9 856.53,709.72 857,709.72 857,724 
	974,724 974,709.72 "/>
<polygon class="st10" points="1070.47,712.72 1070,711.9 1070,708 1067.75,708 1054.5,685.05 1044,703.24 1033.5,685.05 
	1024.5,700.64 1015.5,685.05 1004,704.97 992.5,685.05 980.5,705.84 968.5,685.05 955.25,708 953,708 953,711.9 952.53,712.72 
	953,712.72 953,727 1070,727 1070,712.72 "/>
<polygon class="st10" points="1156.47,712.72 1156,711.9 1156,708 1153.75,708 1140.5,685.05 1130,703.24 1119.5,685.05 
	1110.5,700.64 1101.5,685.05 1090,704.97 1078.5,685.05 1066.5,705.84 1054.5,685.05 1041.25,708 1039,708 1039,711.9 
	1038.53,712.72 1039,712.72 1039,727 1156,727 1156,712.72 "/>
<polygon class="st10" points="1253.47,714.72 1253,713.9 1253,710 1250.75,710 1237.5,687.05 1227,705.24 1216.5,687.05 
	1207.5,702.64 1198.5,687.05 1187,706.97 1175.5,687.05 1163.5,707.84 1151.5,687.05 1138.25,710 1136,710 1136,713.9 
	1135.53,714.72 1136,714.72 1136,729 1253,729 1253,714.72 "/>
<polygon class="st10" points="1352.47,715.72 1352,714.9 1352,711 1349.75,711 1336.5,688.05 1326,706.24 1315.5,688.05 
	1306.5,703.64 1297.5,688.05 1286,707.97 1274.5,688.05 1262.5,708.84 1250.5,688.05 1237.25,711 1235,711 1235,714.9 
	1234.53,715.72 1235,715.72 1235,730 1352,730 1352,715.72 "/>
<g>
	<path class="st11" d="M501.85,649.63c-8.21,2.9-10.14,3.92-11.91,5.17c-3.32,2.35-5.53,5.1-6.96,7.3v-49.13h-6.09v65.36
		c-1.34-2.33-3.75-5.84-7.83-8.71c-1.78-1.26-3.71-2.27-11.91-5.17c-7.09-2.5-10.63-3.75-32.15-1.91
		c5.59,9.15,11.85,15.1,16.13,18.59c6.07,4.96,13.5,11.04,24.45,12.02c4.76,0.42,8.73-0.25,11.31-0.87V728h6.09v-50.35
		c2.56,0.56,6.18,1.05,10.44,0.67c10.95-0.98,18.38-7.06,24.45-12.01c4.28-3.5,10.54-9.44,16.13-18.59
		C512.49,645.87,508.94,647.12,501.85,649.63z"/>
	<path class="st12" d="M470.17,612.88l11.44,4.18c-0.6,3.43-1.96,8.88-5.37,14.73c-3.75,6.45-8.27,10.48-11.09,12.64l0,0
		c-0.95-3.06-2.57-9.72-0.85-17.99C465.63,620.06,468.39,615.43,470.17,612.88z"/>
	<path class="st12" d="M462.18,605.02l6.47,10.34c-2.58,2.34-6.99,5.8-13.27,8.33c-6.91,2.78-12.95,3.19-16.5,3.16l0,0
		c1.12-3,3.93-9.26,10.35-14.73C454.2,607.9,459.21,605.94,462.18,605.02z"/>
	<path class="st12" d="M459.36,588.69l0.88,12.17c-3.37,0.86-8.89,1.85-15.62,1.14c-7.4-0.78-12.94-3.26-16.06-4.95l0,0
		c2.39-2.12,7.8-6.34,16.03-8.16C450.97,587.48,456.32,588.1,459.36,588.69z"/>
	<path class="st12" d="M468.74,579.05l-7.58,9.55c-3.06-1.66-7.79-4.67-12.25-9.76c-4.92-5.6-7.31-11.18-8.46-14.54l0,0
		c3.19,0.06,10.02,0.63,17.31,4.88C463.38,572.47,466.89,576.55,468.74,579.05z"/>
	<path class="st12" d="M481.33,575.92l-11.36,4.39c-1.8-2.98-4.35-7.98-5.64-14.63c-1.41-7.32-0.66-13.35,0.04-16.83l0,0
		c2.72,1.67,8.32,5.62,12.46,12.98C480.03,567.53,480.99,572.83,481.33,575.92z"/>
	<path class="st12" d="M492.23,580.08l-11.67-3.49c0.39-3.46,1.43-8.98,4.48-15.03c3.36-6.66,7.64-10.96,10.32-13.28l0,0
		c1.13,2.99,3.15,9.55,1.92,17.91C496.33,572.65,493.85,577.44,492.23,580.08z"/>
	<path class="st12" d="M501.09,589.56l-7.2-9.84c2.4-2.52,6.55-6.3,12.62-9.28c6.69-3.28,12.69-4.13,16.22-4.36l0,0
		c-0.9,3.07-3.24,9.52-9.25,15.45C508.84,586.11,503.98,588.43,501.09,589.56z"/>
	<path class="st12" d="M500.47,601.62l0.54-12.19c3.45-0.46,9.04-0.79,15.64,0.7c7.26,1.64,12.47,4.75,15.37,6.79l0,0
		c-2.62,1.83-8.48,5.38-16.87,6.22C508.66,603.8,503.43,602.56,500.47,601.62z"/>
	<path class="st12" d="M495.03,610.59l8.53-8.71c2.87,1.96,7.26,5.46,11.18,10.98c4.31,6.08,6.11,11.88,6.91,15.34l0,0
		c-3.17-0.39-9.9-1.67-16.71-6.65C499.68,617.7,496.61,613.27,495.03,610.59z"/>
	<path class="st12" d="M481.76,616.41l11.61-3.67c1.61,3.09,3.84,8.24,4.71,14.96c0.95,7.4-0.18,13.36-1.1,16.79l0,0
		c-2.61-1.84-7.95-6.14-11.62-13.74C482.53,624.87,481.9,619.51,481.76,616.41z"/>
	<g>
		<path class="st13" d="M487.33,576.37h-12.18c-0.61-3.43-1.19-9.01,0-15.69c1.31-7.34,4.18-12.69,6.09-15.69l0,0
			c1.94,2.54,5.74,8.25,6.96,16.61C489.14,568.07,488.13,573.37,487.33,576.37z"/>
		<path class="st13" d="M498.78,584.65l-9.86-7.16c1.51-3.14,4.31-8,9.19-12.7c5.36-5.17,10.82-7.81,14.12-9.12l0,0
			c0.08,3.2-0.18,10.06-4.09,17.54C505.11,578.99,501.19,582.69,498.78,584.65z"/>
		<path class="st13" d="M501.88,597.46l-3.22-11.77c3.14-1.5,8.36-3.54,15.1-4.15c7.42-0.67,13.32,0.69,16.71,1.74l0,0
			c-1.94,2.55-6.42,7.73-14.15,11.11C510.34,597.02,504.98,597.44,501.88,597.46z"/>
		<path class="st13" d="M497.02,609.43l3.67-11.63c3.45,0.45,8.94,1.58,14.93,4.73c6.59,3.47,10.81,7.83,13.09,10.55l0,0
			c-3.01,1.08-9.58,3-17.9,1.64C504.37,613.67,499.64,611.1,497.02,609.43z"/>
		<path class="st13" d="M487.35,615.29l10.24-6.6c2.37,2.55,5.87,6.93,8.47,13.19c2.86,6.89,3.33,12.94,3.35,16.49l0,0
			c-3-1.09-9.28-3.83-14.82-10.2C490.31,623.25,488.3,618.25,487.35,615.29z"/>
		<path class="st13" d="M475.13,615.59l12.18,0.19c0.56,3.44,1.06,9.03-0.24,15.68c-1.43,7.32-4.38,12.62-6.33,15.59l0,0
			c-1.9-2.57-5.62-8.34-6.7-16.71C473.2,623.86,474.29,618.58,475.13,615.59z"/>
		<path class="st13" d="M464.76,609.27l9.65,7.44c-1.6,3.09-4.54,7.88-9.54,12.44c-5.51,5.02-11.04,7.5-14.37,8.72l0,0
			c0.01-3.2,0.47-10.05,4.59-17.42C458.28,614.75,462.3,611.17,464.76,609.27z"/>
		<path class="st13" d="M460.23,597.04l3.35,11.73c-3.12,1.53-8.32,3.63-15.05,4.32c-7.41,0.76-13.33-0.53-16.73-1.54l0,0
			c1.91-2.57,6.33-7.8,14.02-11.28C451.77,597.58,457.13,597.1,460.23,597.04z"/>
		<path class="st13" d="M463.48,583.6L459.13,595c-3.42-0.65-8.83-2.11-14.62-5.61c-6.37-3.86-10.33-8.45-12.44-11.31l0,0
			c3.06-0.9,9.74-2.42,17.97-0.57C456.39,578.94,460.97,581.78,463.48,583.6z"/>
		<path class="st13" d="M474.12,576.4l-9.53,7.59c-2.61-2.3-6.53-6.31-9.74-12.28c-3.53-6.57-4.6-12.54-4.97-16.08l0,0
			c3.1,0.78,9.62,2.88,15.76,8.67C470.38,568.78,472.88,573.55,474.12,576.4z"/>
	</g>
	<ellipse class="st14" cx="481.24" cy="596.41" rx="21.75" ry="21.79"/>
</g>
<g>
	<path class="st11" d="M1373.85,636.63c-8.21,2.9-10.14,3.92-11.91,5.17c-3.32,2.35-5.53,5.1-6.96,7.3v-49.13h-6.09v65.36
		c-1.34-2.33-3.75-5.84-7.83-8.71c-1.78-1.26-3.71-2.27-11.91-5.17c-7.09-2.5-10.63-3.75-32.15-1.91
		c5.59,9.15,11.85,15.1,16.13,18.59c6.07,4.96,13.5,11.04,24.45,12.02c4.76,0.42,8.73-0.25,11.31-0.87V715h6.09v-50.35
		c2.56,0.56,6.18,1.05,10.44,0.67c10.95-0.98,18.38-7.06,24.45-12.01c4.28-3.5,10.54-9.44,16.13-18.59
		C1384.49,632.87,1380.94,634.12,1373.85,636.63z"/>
	<path class="st12" d="M1342.17,599.88l11.44,4.18c-0.6,3.43-1.96,8.88-5.37,14.73c-3.75,6.45-8.27,10.48-11.09,12.64l0,0
		c-0.95-3.06-2.57-9.72-0.85-17.99C1337.63,607.06,1340.39,602.43,1342.17,599.88z"/>
	<path class="st12" d="M1334.18,592.02l6.47,10.34c-2.58,2.34-6.99,5.8-13.27,8.33c-6.91,2.78-12.95,3.19-16.5,3.16l0,0
		c1.12-3,3.93-9.26,10.35-14.73C1326.2,594.9,1331.21,592.94,1334.18,592.02z"/>
	<path class="st12" d="M1331.36,575.69l0.88,12.17c-3.37,0.86-8.89,1.85-15.62,1.14c-7.4-0.78-12.94-3.26-16.06-4.95l0,0
		c2.39-2.12,7.8-6.34,16.03-8.16C1322.97,574.48,1328.32,575.1,1331.36,575.69z"/>
	<path class="st12" d="M1340.74,566.05l-7.58,9.55c-3.06-1.66-7.79-4.67-12.25-9.76c-4.92-5.6-7.31-11.18-8.46-14.54l0,0
		c3.19,0.06,10.02,0.63,17.31,4.88C1335.38,559.47,1338.89,563.55,1340.74,566.05z"/>
	<path class="st12" d="M1353.33,562.92l-11.36,4.39c-1.8-2.98-4.35-7.98-5.64-14.63c-1.41-7.32-0.66-13.35,0.04-16.83l0,0
		c2.72,1.67,8.32,5.62,12.46,12.98C1352.03,554.53,1352.99,559.83,1353.33,562.92z"/>
	<path class="st12" d="M1364.23,567.08l-11.67-3.49c0.39-3.46,1.43-8.98,4.48-15.03c3.36-6.66,7.64-10.96,10.32-13.28l0,0
		c1.13,2.99,3.15,9.55,1.92,17.91C1368.33,559.65,1365.85,564.44,1364.23,567.08z"/>
	<path class="st12" d="M1373.09,576.56l-7.2-9.84c2.4-2.52,6.55-6.3,12.62-9.28c6.69-3.28,12.69-4.13,16.22-4.36l0,0
		c-0.9,3.07-3.24,9.52-9.25,15.45C1380.84,573.11,1375.98,575.43,1373.09,576.56z"/>
	<path class="st12" d="M1372.47,588.62l0.54-12.19c3.45-0.46,9.04-0.79,15.64,0.7c7.26,1.64,12.47,4.75,15.37,6.79l0,0
		c-2.62,1.83-8.48,5.38-16.87,6.22C1380.66,590.8,1375.43,589.56,1372.47,588.62z"/>
	<path class="st12" d="M1367.03,597.59l8.53-8.71c2.87,1.96,7.26,5.46,11.18,10.98c4.31,6.08,6.11,11.88,6.91,15.34l0,0
		c-3.17-0.39-9.9-1.67-16.71-6.65C1371.68,604.7,1368.61,600.27,1367.03,597.59z"/>
	<path class="st12" d="M1353.76,603.41l11.61-3.67c1.61,3.09,3.84,8.24,4.71,14.96c0.95,7.4-0.18,13.36-1.1,16.79l0,0
		c-2.61-1.84-7.95-6.14-11.62-13.74C1354.53,611.87,1353.9,606.51,1353.76,603.41z"/>
	<g>
		<path class="st13" d="M1359.33,563.37h-12.18c-0.61-3.43-1.19-9.01,0-15.69c1.31-7.34,4.18-12.69,6.09-15.69l0,0
			c1.94,2.54,5.74,8.25,6.96,16.61C1361.14,555.07,1360.13,560.37,1359.33,563.37z"/>
		<path class="st13" d="M1370.78,571.65l-9.86-7.16c1.51-3.14,4.31-8,9.19-12.7c5.36-5.17,10.82-7.81,14.12-9.12l0,0
			c0.08,3.2-0.18,10.06-4.09,17.54C1377.11,565.99,1373.19,569.69,1370.78,571.65z"/>
		<path class="st13" d="M1373.88,584.46l-3.22-11.77c3.14-1.5,8.36-3.54,15.1-4.15c7.42-0.67,13.32,0.69,16.71,1.74l0,0
			c-1.94,2.55-6.42,7.73-14.15,11.11C1382.34,584.02,1376.98,584.44,1373.88,584.46z"/>
		<path class="st13" d="M1369.02,596.43l3.67-11.63c3.45,0.45,8.94,1.58,14.93,4.73c6.59,3.47,10.81,7.83,13.09,10.55l0,0
			c-3.01,1.08-9.58,3-17.9,1.64C1376.37,600.67,1371.64,598.1,1369.02,596.43z"/>
		<path class="st13" d="M1359.35,602.29l10.24-6.6c2.37,2.55,5.87,6.93,8.47,13.19c2.86,6.89,3.33,12.94,3.35,16.49l0,0
			c-3-1.09-9.28-3.83-14.82-10.2C1362.31,610.25,1360.3,605.25,1359.35,602.29z"/>
		<path class="st13" d="M1347.13,602.59l12.18,0.19c0.56,3.44,1.06,9.03-0.24,15.68c-1.43,7.32-4.38,12.62-6.33,15.59l0,0
			c-1.9-2.57-5.62-8.34-6.7-16.71C1345.2,610.86,1346.29,605.58,1347.13,602.59z"/>
		<path class="st13" d="M1336.76,596.27l9.65,7.44c-1.6,3.09-4.54,7.88-9.54,12.44c-5.51,5.02-11.04,7.5-14.37,8.72l0,0
			c0.01-3.2,0.47-10.05,4.59-17.42C1330.28,601.75,1334.3,598.17,1336.76,596.27z"/>
		<path class="st13" d="M1332.23,584.04l3.35,11.73c-3.12,1.53-8.32,3.63-15.05,4.32c-7.41,0.76-13.33-0.53-16.73-1.54l0,0
			c1.91-2.57,6.33-7.8,14.02-11.28C1323.77,584.58,1329.13,584.1,1332.23,584.04z"/>
		<path class="st13" d="M1335.48,570.6l-4.35,11.39c-3.42-0.65-8.83-2.11-14.62-5.61c-6.37-3.86-10.33-8.45-12.44-11.31l0,0
			c3.06-0.9,9.74-2.42,17.97-0.57C1328.39,565.94,1332.97,568.78,1335.48,570.6z"/>
		<path class="st13" d="M1346.12,563.4l-9.53,7.59c-2.61-2.3-6.53-6.31-9.74-12.28c-3.53-6.57-4.6-12.54-4.97-16.08l0,0
			c3.1,0.78,9.62,2.88,15.76,8.67C1342.38,555.78,1344.88,560.55,1346.12,563.4z"/>
	</g>
	<ellipse class="st14" cx="1353.24" cy="583.41" rx="21.75" ry="21.79"/>
</g>
<g>
	<path class="st11" d="M1636.85,639.63c-8.21,2.9-10.14,3.92-11.91,5.17c-3.32,2.35-5.53,5.1-6.96,7.3v-49.13h-6.09v65.36
		c-1.34-2.33-3.75-5.84-7.83-8.71c-1.78-1.26-3.71-2.27-11.91-5.17c-7.09-2.5-10.63-3.75-32.15-1.91
		c5.59,9.15,11.85,15.1,16.13,18.59c6.07,4.96,13.5,11.04,24.45,12.02c4.76,0.42,8.73-0.25,11.31-0.87V718h6.09v-50.35
		c2.56,0.56,6.18,1.05,10.44,0.67c10.95-0.98,18.38-7.06,24.45-12.01c4.28-3.5,10.54-9.44,16.13-18.59
		C1647.49,635.87,1643.94,637.12,1636.85,639.63z"/>
	<path class="st12" d="M1605.17,602.88l11.44,4.18c-0.6,3.43-1.96,8.88-5.37,14.73c-3.75,6.45-8.27,10.48-11.09,12.64l0,0
		c-0.95-3.06-2.57-9.72-0.85-17.99C1600.63,610.06,1603.39,605.43,1605.17,602.88z"/>
	<path class="st12" d="M1597.18,595.02l6.47,10.34c-2.58,2.34-6.99,5.8-13.27,8.33c-6.91,2.78-12.95,3.19-16.5,3.16l0,0
		c1.12-3,3.93-9.26,10.35-14.73C1589.2,597.9,1594.21,595.94,1597.18,595.02z"/>
	<path class="st12" d="M1594.36,578.69l0.88,12.17c-3.37,0.86-8.89,1.85-15.62,1.14c-7.4-0.78-12.94-3.26-16.06-4.95l0,0
		c2.39-2.12,7.8-6.34,16.03-8.16C1585.97,577.48,1591.32,578.1,1594.36,578.69z"/>
	<path class="st12" d="M1603.74,569.05l-7.58,9.55c-3.06-1.66-7.79-4.67-12.25-9.76c-4.92-5.6-7.31-11.18-8.46-14.54l0,0
		c3.19,0.06,10.02,0.63,17.31,4.88C1598.38,562.47,1601.89,566.55,1603.74,569.05z"/>
	<path class="st12" d="M1616.33,565.92l-11.36,4.39c-1.8-2.98-4.35-7.98-5.64-14.63c-1.41-7.32-0.66-13.35,0.04-16.83l0,0
		c2.72,1.67,8.32,5.62,12.46,12.98C1615.03,557.53,1615.99,562.83,1616.33,565.92z"/>
	<path class="st12" d="M1627.23,570.08l-11.67-3.49c0.39-3.46,1.43-8.98,4.48-15.03c3.36-6.66,7.64-10.96,10.32-13.28l0,0
		c1.13,2.99,3.15,9.55,1.92,17.91C1631.33,562.65,1628.85,567.44,1627.23,570.08z"/>
	<path class="st12" d="M1636.09,579.56l-7.2-9.84c2.4-2.52,6.55-6.3,12.62-9.28c6.69-3.28,12.69-4.13,16.22-4.36l0,0
		c-0.9,3.07-3.24,9.52-9.25,15.45C1643.84,576.11,1638.98,578.43,1636.09,579.56z"/>
	<path class="st12" d="M1635.47,591.62l0.54-12.19c3.45-0.46,9.04-0.79,15.64,0.7c7.26,1.64,12.47,4.75,15.37,6.79l0,0
		c-2.62,1.83-8.48,5.38-16.87,6.22C1643.66,593.8,1638.43,592.56,1635.47,591.62z"/>
	<path class="st12" d="M1630.03,600.59l8.53-8.71c2.87,1.96,7.26,5.46,11.18,10.98c4.31,6.08,6.11,11.88,6.91,15.34l0,0
		c-3.17-0.39-9.9-1.67-16.71-6.65C1634.68,607.7,1631.61,603.27,1630.03,600.59z"/>
	<path class="st12" d="M1616.76,606.41l11.61-3.67c1.61,3.09,3.84,8.24,4.71,14.96c0.95,7.4-0.18,13.36-1.1,16.79l0,0
		c-2.61-1.84-7.95-6.14-11.62-13.74C1617.53,614.87,1616.9,609.51,1616.76,606.41z"/>
	<g>
		<path class="st13" d="M1622.33,566.37h-12.18c-0.61-3.43-1.19-9.01,0-15.69c1.31-7.34,4.18-12.69,6.09-15.69l0,0
			c1.94,2.54,5.74,8.25,6.96,16.61C1624.14,558.07,1623.13,563.37,1622.33,566.37z"/>
		<path class="st13" d="M1633.78,574.65l-9.86-7.16c1.51-3.14,4.31-8,9.19-12.7c5.36-5.17,10.82-7.81,14.12-9.12l0,0
			c0.08,3.2-0.18,10.06-4.09,17.54C1640.11,568.99,1636.19,572.69,1633.78,574.65z"/>
		<path class="st13" d="M1636.88,587.46l-3.22-11.77c3.14-1.5,8.36-3.54,15.1-4.15c7.42-0.67,13.32,0.69,16.71,1.74l0,0
			c-1.94,2.55-6.42,7.73-14.15,11.11C1645.34,587.02,1639.98,587.44,1636.88,587.46z"/>
		<path class="st13" d="M1632.02,599.43l3.67-11.63c3.45,0.45,8.94,1.58,14.93,4.73c6.59,3.47,10.81,7.83,13.09,10.55l0,0
			c-3.01,1.08-9.58,3-17.9,1.64C1639.37,603.67,1634.64,601.1,1632.02,599.43z"/>
		<path class="st13" d="M1622.35,605.29l10.24-6.6c2.37,2.55,5.87,6.93,8.47,13.19c2.86,6.89,3.33,12.94,3.35,16.49l0,0
			c-3-1.09-9.28-3.83-14.82-10.2C1625.31,613.25,1623.3,608.25,1622.35,605.29z"/>
		<path class="st13" d="M1610.13,605.59l12.18,0.19c0.56,3.44,1.06,9.03-0.24,15.68c-1.43,7.32-4.38,12.62-6.33,15.59l0,0
			c-1.9-2.57-5.62-8.34-6.7-16.71C1608.2,613.86,1609.29,608.58,1610.13,605.59z"/>
		<path class="st13" d="M1599.76,599.27l9.65,7.44c-1.6,3.09-4.54,7.88-9.54,12.44c-5.51,5.02-11.04,7.5-14.37,8.72l0,0
			c0.01-3.2,0.47-10.05,4.59-17.42C1593.28,604.75,1597.3,601.17,1599.76,599.27z"/>
		<path class="st13" d="M1595.23,587.04l3.35,11.73c-3.12,1.53-8.32,3.63-15.05,4.32c-7.41,0.76-13.33-0.53-16.73-1.54l0,0
			c1.91-2.57,6.33-7.8,14.02-11.28C1586.77,587.58,1592.13,587.1,1595.23,587.04z"/>
		<path class="st13" d="M1598.48,573.6l-4.35,11.39c-3.42-0.65-8.83-2.11-14.62-5.61c-6.37-3.86-10.33-8.45-12.44-11.31l0,0
			c3.06-0.9,9.74-2.42,17.97-0.57C1591.39,568.94,1595.97,571.78,1598.48,573.6z"/>
		<path class="st13" d="M1609.12,566.4l-9.53,7.59c-2.61-2.3-6.53-6.31-9.74-12.28c-3.53-6.57-4.6-12.54-4.97-16.08l0,0
			c3.1,0.78,9.62,2.88,15.76,8.67C1605.38,558.78,1607.88,563.55,1609.12,566.4z"/>
	</g>
	<ellipse class="st14" cx="1616.24" cy="586.41" rx="21.75" ry="21.79"/>
</g>
<g>
	<path class="st11" d="M331.85,639.63c-8.21,2.9-10.14,3.92-11.91,5.17c-3.32,2.35-5.53,5.1-6.96,7.3v-49.13h-6.09v65.36
		c-1.34-2.33-3.75-5.84-7.83-8.71c-1.78-1.26-3.71-2.27-11.91-5.17c-7.09-2.5-10.63-3.75-32.15-1.91
		c5.59,9.15,11.85,15.1,16.13,18.59c6.07,4.96,13.5,11.04,24.45,12.02c4.76,0.42,8.73-0.25,11.31-0.87V718h6.09v-50.35
		c2.56,0.56,6.18,1.05,10.44,0.67c10.95-0.98,18.38-7.06,24.45-12.01c4.28-3.5,10.54-9.44,16.13-18.59
		C342.49,635.87,338.94,637.12,331.85,639.63z"/>
	<path class="st12" d="M300.17,602.88l11.44,4.18c-0.6,3.43-1.96,8.88-5.37,14.73c-3.75,6.45-8.27,10.48-11.09,12.64l0,0
		c-0.95-3.06-2.57-9.72-0.85-17.99C295.63,610.06,298.39,605.43,300.17,602.88z"/>
	<path class="st12" d="M292.18,595.02l6.47,10.34c-2.58,2.34-6.99,5.8-13.27,8.33c-6.91,2.78-12.95,3.19-16.5,3.16l0,0
		c1.12-3,3.93-9.26,10.35-14.73C284.2,597.9,289.21,595.94,292.18,595.02z"/>
	<path class="st12" d="M289.36,578.69l0.88,12.17c-3.37,0.86-8.89,1.85-15.62,1.14c-7.4-0.78-12.94-3.26-16.06-4.95l0,0
		c2.39-2.12,7.8-6.34,16.03-8.16C280.97,577.48,286.32,578.1,289.36,578.69z"/>
	<path class="st12" d="M298.74,569.05l-7.58,9.55c-3.06-1.66-7.79-4.67-12.25-9.76c-4.92-5.6-7.31-11.18-8.46-14.54l0,0
		c3.19,0.06,10.02,0.63,17.31,4.88C293.38,562.47,296.89,566.55,298.74,569.05z"/>
	<path class="st12" d="M311.33,565.92l-11.36,4.39c-1.8-2.98-4.35-7.98-5.64-14.63c-1.41-7.32-0.66-13.35,0.04-16.83l0,0
		c2.72,1.67,8.32,5.62,12.46,12.98C310.03,557.53,310.99,562.83,311.33,565.92z"/>
	<path class="st12" d="M322.23,570.08l-11.67-3.49c0.39-3.46,1.43-8.98,4.48-15.03c3.36-6.66,7.64-10.96,10.32-13.28l0,0
		c1.13,2.99,3.15,9.55,1.92,17.91C326.33,562.65,323.85,567.44,322.23,570.08z"/>
	<path class="st12" d="M331.09,579.56l-7.2-9.84c2.4-2.52,6.55-6.3,12.62-9.28c6.69-3.28,12.69-4.13,16.22-4.36l0,0
		c-0.9,3.07-3.24,9.52-9.25,15.45C338.84,576.11,333.98,578.43,331.09,579.56z"/>
	<path class="st12" d="M330.47,591.62l0.54-12.19c3.45-0.46,9.04-0.79,15.64,0.7c7.26,1.64,12.47,4.75,15.37,6.79l0,0
		c-2.62,1.83-8.48,5.38-16.87,6.22C338.66,593.8,333.43,592.56,330.47,591.62z"/>
	<path class="st12" d="M325.03,600.59l8.53-8.71c2.87,1.96,7.26,5.46,11.18,10.98c4.31,6.08,6.11,11.88,6.91,15.34l0,0
		c-3.17-0.39-9.9-1.67-16.71-6.65C329.68,607.7,326.61,603.27,325.03,600.59z"/>
	<path class="st12" d="M311.76,606.41l11.61-3.67c1.61,3.09,3.84,8.24,4.71,14.96c0.95,7.4-0.18,13.36-1.1,16.79l0,0
		c-2.61-1.84-7.95-6.14-11.62-13.74C312.53,614.87,311.9,609.51,311.76,606.41z"/>
	<g>
		<path class="st13" d="M317.33,566.37h-12.18c-0.61-3.43-1.19-9.01,0-15.69c1.31-7.34,4.18-12.69,6.09-15.69l0,0
			c1.94,2.54,5.74,8.25,6.96,16.61C319.14,558.07,318.13,563.37,317.33,566.37z"/>
		<path class="st13" d="M328.78,574.65l-9.86-7.16c1.51-3.14,4.31-8,9.19-12.7c5.36-5.17,10.82-7.81,14.12-9.12l0,0
			c0.08,3.2-0.18,10.06-4.09,17.54C335.11,568.99,331.19,572.69,328.78,574.65z"/>
		<path class="st13" d="M331.88,587.46l-3.22-11.77c3.14-1.5,8.36-3.54,15.1-4.15c7.42-0.67,13.32,0.69,16.71,1.74l0,0
			c-1.94,2.55-6.42,7.73-14.15,11.11C340.34,587.02,334.98,587.44,331.88,587.46z"/>
		<path class="st13" d="M327.02,599.43l3.67-11.63c3.45,0.45,8.94,1.58,14.93,4.73c6.59,3.47,10.81,7.83,13.09,10.55l0,0
			c-3.01,1.08-9.58,3-17.9,1.64C334.37,603.67,329.64,601.1,327.02,599.43z"/>
		<path class="st13" d="M317.35,605.29l10.24-6.6c2.37,2.55,5.87,6.93,8.47,13.19c2.86,6.89,3.33,12.94,3.35,16.49l0,0
			c-3-1.09-9.28-3.83-14.82-10.2C320.31,613.25,318.3,608.25,317.35,605.29z"/>
		<path class="st13" d="M305.13,605.59l12.18,0.19c0.56,3.44,1.06,9.03-0.24,15.68c-1.43,7.32-4.38,12.62-6.33,15.59l0,0
			c-1.9-2.57-5.62-8.34-6.7-16.71C303.2,613.86,304.29,608.58,305.13,605.59z"/>
		<path class="st13" d="M294.76,599.27l9.65,7.44c-1.6,3.09-4.54,7.88-9.54,12.44c-5.51,5.02-11.04,7.5-14.37,8.72l0,0
			c0.01-3.2,0.47-10.05,4.59-17.42C288.28,604.75,292.3,601.17,294.76,599.27z"/>
		<path class="st13" d="M290.23,587.04l3.35,11.73c-3.12,1.53-8.32,3.63-15.05,4.32c-7.41,0.76-13.33-0.53-16.73-1.54l0,0
			c1.91-2.57,6.33-7.8,14.02-11.28C281.77,587.58,287.13,587.1,290.23,587.04z"/>
		<path class="st13" d="M293.48,573.6L289.13,585c-3.42-0.65-8.83-2.11-14.62-5.61c-6.37-3.86-10.33-8.45-12.44-11.31l0,0
			c3.06-0.9,9.74-2.42,17.97-0.57C286.39,568.94,290.97,571.78,293.48,573.6z"/>
		<path class="st13" d="M304.12,566.4l-9.53,7.59c-2.61-2.3-6.53-6.31-9.74-12.28c-3.53-6.57-4.6-12.54-4.97-16.08l0,0
			c3.1,0.78,9.62,2.88,15.76,8.67C300.38,558.78,302.88,563.55,304.12,566.4z"/>
	</g>
	<ellipse class="st14" cx="311.24" cy="586.41" rx="21.75" ry="21.79"/>
</g>
<g>
	<path class="st11" d="M136.85,641.63c-8.21,2.9-10.14,3.92-11.91,5.17c-3.32,2.35-5.53,5.1-6.96,7.3v-49.13h-6.09v65.36
		c-1.34-2.33-3.75-5.84-7.83-8.71c-1.78-1.26-3.71-2.27-11.91-5.17c-7.09-2.5-10.63-3.75-32.15-1.91
		c5.59,9.15,11.85,15.1,16.13,18.59c6.07,4.96,13.5,11.04,24.45,12.02c4.76,0.42,8.73-0.25,11.31-0.87V720h6.09v-50.35
		c2.56,0.56,6.18,1.05,10.44,0.67c10.95-0.98,18.38-7.06,24.45-12.01c4.28-3.5,10.54-9.44,16.13-18.59
		C147.49,637.87,143.94,639.12,136.85,641.63z"/>
	<path class="st12" d="M105.17,604.88l11.44,4.18c-0.6,3.43-1.96,8.88-5.37,14.73c-3.75,6.45-8.27,10.48-11.09,12.64l0,0
		c-0.95-3.06-2.57-9.72-0.85-17.99C100.63,612.06,103.39,607.43,105.17,604.88z"/>
	<path class="st12" d="M97.18,597.02l6.47,10.34c-2.58,2.34-6.99,5.8-13.27,8.33c-6.91,2.78-12.95,3.19-16.5,3.16l0,0
		c1.12-3,3.93-9.26,10.35-14.73C89.2,599.9,94.21,597.94,97.18,597.02z"/>
	<path class="st12" d="M94.36,580.69l0.88,12.17c-3.37,0.86-8.89,1.85-15.62,1.14c-7.41-0.78-12.94-3.26-16.06-4.95l0,0
		c2.39-2.12,7.8-6.34,16.03-8.16C85.97,579.48,91.32,580.1,94.36,580.69z"/>
	<path class="st12" d="M103.74,571.05l-7.58,9.55c-3.06-1.66-7.79-4.67-12.25-9.76c-4.92-5.6-7.31-11.18-8.46-14.54l0,0
		c3.19,0.06,10.02,0.63,17.31,4.88C98.38,564.47,101.89,568.55,103.74,571.05z"/>
	<path class="st12" d="M116.33,567.92l-11.36,4.39c-1.8-2.98-4.35-7.98-5.64-14.63c-1.41-7.32-0.66-13.35,0.04-16.83l0,0
		c2.72,1.67,8.32,5.62,12.46,12.98C115.03,559.53,115.99,564.83,116.33,567.92z"/>
	<path class="st12" d="M127.23,572.08l-11.67-3.49c0.39-3.46,1.43-8.98,4.48-15.03c3.36-6.66,7.64-10.96,10.32-13.28l0,0
		c1.13,2.99,3.15,9.55,1.92,17.91C131.33,564.65,128.85,569.44,127.23,572.08z"/>
	<path class="st12" d="M136.09,581.56l-7.2-9.84c2.4-2.52,6.55-6.3,12.62-9.28c6.69-3.28,12.69-4.13,16.22-4.36l0,0
		c-0.9,3.07-3.24,9.52-9.25,15.45C143.84,578.11,138.98,580.43,136.09,581.56z"/>
	<path class="st12" d="M135.47,593.62l0.54-12.19c3.45-0.46,9.04-0.79,15.64,0.7c7.26,1.64,12.47,4.75,15.37,6.79l0,0
		c-2.62,1.83-8.48,5.38-16.87,6.22C143.66,595.8,138.43,594.56,135.47,593.62z"/>
	<path class="st12" d="M130.03,602.59l8.53-8.71c2.87,1.96,7.26,5.46,11.18,10.98c4.31,6.08,6.11,11.88,6.91,15.34l0,0
		c-3.17-0.39-9.9-1.67-16.71-6.65C134.68,609.7,131.61,605.27,130.03,602.59z"/>
	<path class="st12" d="M116.76,608.41l11.61-3.67c1.61,3.09,3.84,8.24,4.71,14.96c0.95,7.4-0.18,13.36-1.1,16.79l0,0
		c-2.61-1.84-7.95-6.14-11.62-13.74C117.53,616.87,116.9,611.51,116.76,608.41z"/>
	<g>
		<path class="st13" d="M122.33,568.37h-12.18c-0.61-3.43-1.19-9.01,0-15.69c1.31-7.34,4.18-12.69,6.09-15.69l0,0
			c1.94,2.54,5.74,8.25,6.96,16.61C124.14,560.07,123.13,565.37,122.33,568.37z"/>
		<path class="st13" d="M133.78,576.65l-9.86-7.16c1.51-3.14,4.31-8,9.19-12.7c5.36-5.17,10.82-7.81,14.12-9.12l0,0
			c0.08,3.2-0.18,10.06-4.09,17.54C140.11,570.99,136.19,574.69,133.78,576.65z"/>
		<path class="st13" d="M136.88,589.46l-3.22-11.77c3.14-1.5,8.36-3.54,15.1-4.15c7.42-0.67,13.32,0.69,16.71,1.74l0,0
			c-1.94,2.55-6.42,7.73-14.15,11.11C145.34,589.02,139.98,589.44,136.88,589.46z"/>
		<path class="st13" d="M132.02,601.43l3.67-11.63c3.45,0.45,8.94,1.58,14.93,4.73c6.59,3.47,10.81,7.83,13.09,10.55l0,0
			c-3.01,1.08-9.58,3-17.9,1.64C139.37,605.67,134.64,603.1,132.02,601.43z"/>
		<path class="st13" d="M122.35,607.29l10.24-6.6c2.37,2.55,5.87,6.93,8.47,13.19c2.86,6.89,3.33,12.94,3.35,16.49l0,0
			c-3-1.09-9.28-3.83-14.82-10.2C125.31,615.25,123.3,610.25,122.35,607.29z"/>
		<path class="st13" d="M110.13,607.59l12.18,0.19c0.56,3.44,1.06,9.03-0.24,15.68c-1.43,7.32-4.38,12.62-6.33,15.59l0,0
			c-1.9-2.57-5.62-8.34-6.7-16.71C108.2,615.86,109.29,610.58,110.13,607.59z"/>
		<path class="st13" d="M99.76,601.27l9.65,7.44c-1.6,3.09-4.54,7.88-9.54,12.44c-5.51,5.02-11.04,7.5-14.37,8.72l0,0
			c0.01-3.2,0.47-10.05,4.59-17.42C93.28,606.75,97.3,603.17,99.76,601.27z"/>
		<path class="st13" d="M95.23,589.04l3.35,11.73c-3.12,1.53-8.32,3.63-15.05,4.32c-7.41,0.76-13.33-0.53-16.73-1.54l0,0
			c1.91-2.57,6.33-7.8,14.02-11.28C86.77,589.58,92.13,589.1,95.23,589.04z"/>
		<path class="st13" d="M98.48,575.6L94.13,587c-3.42-0.65-8.83-2.11-14.62-5.61c-6.37-3.86-10.33-8.45-12.44-11.31l0,0
			c3.06-0.9,9.74-2.42,17.97-0.57C91.39,570.94,95.97,573.78,98.48,575.6z"/>
		<path class="st13" d="M109.12,568.4l-9.53,7.59c-2.61-2.3-6.53-6.31-9.74-12.28c-3.53-6.57-4.6-12.54-4.97-16.08l0,0
			c3.1,0.78,9.62,2.88,15.76,8.67C105.38,560.78,107.88,565.55,109.12,568.4z"/>
	</g>
	<ellipse class="st14" cx="116.24" cy="588.41" rx="21.75" ry="21.79"/>
</g>
<polygon class="st10" points="522,712.9 522,709 519.75,709 506.5,686.05 496,704.24 485.5,686.05 476.5,701.64 467.5,686.05 
	456,705.97 444.5,686.05 432.5,706.84 420.5,686.05 411.71,701.28 403.5,687.05 393,705.24 382.5,687.05 373.5,702.64 364.5,687.05 
	353,706.97 341.5,687.05 329.5,707.84 317.5,687.05 306.71,705.74 296.5,688.05 286,706.24 275.5,688.05 266.5,703.64 257.5,688.05 
	246,707.97 234.5,688.05 222.5,708.84 210.5,688.05 204,699.31 197.5,688.05 187,706.24 176.5,688.05 167.5,703.64 158.5,688.05 
	147,707.97 135.5,688.05 123.5,708.84 111.5,688.05 101.5,705.38 91.5,688.05 81,706.24 70.5,688.05 61.5,703.64 52.5,688.05 
	41,707.97 29.5,688.05 17.5,708.84 5.5,688.05 -7.75,711 -10,711 -10,714.9 -10.47,715.72 -10,715.72 -10,730 96,730 107,730 
	195,730 213,730 312,730 312,729 419,729 419,728 522,728 522,713.72 522.47,713.72 "/>
<polygon class="st10" points="1932,729.9 1932,726 1929.75,726 1916.5,703.05 1906,721.24 1895.5,703.05 1886.5,718.64 
	1877.5,703.05 1866,722.97 1854.5,703.05 1849,712.58 1843.5,703.05 1837,714.31 1830.5,703.05 1826.5,709.98 1822.5,703.05 
	1813.5,718.64 1804.5,703.05 1793,722.97 1781.5,703.05 1773.37,717.14 1763.5,700.05 1759.63,706.75 1757.5,703.05 1750.87,714.54 
	1742.5,700.05 1733.5,715.64 1724.5,700.05 1713,719.97 1701.5,700.05 1689.5,720.84 1677.5,700.05 1670.37,712.41 1661.5,697.05 
	1651,715.24 1640.5,697.05 1631.5,712.64 1622.5,697.05 1611,716.97 1599.5,697.05 1587.5,717.84 1575.5,697.05 1567.42,711.04 
	1560.5,699.05 1550,717.24 1539.5,699.05 1530.5,714.64 1521.5,699.05 1510,718.97 1498.5,699.05 1486.5,719.84 1474.5,699.05 
	1468.71,709.08 1463.5,700.05 1453,718.24 1442.5,700.05 1433.5,715.64 1424.5,700.05 1413.56,719 1412.44,719 1401.5,700.05 
	1401.15,700.65 1398.5,696.05 1388,714.24 1377.5,696.05 1368.5,711.64 1359.5,696.05 1348,715.97 1336.5,696.05 1324.5,716.84 
	1312.5,696.05 1299.25,719 1297,719 1297,722.9 1296.53,723.72 1297,723.72 1297,738 1362,738 1362,742 1479,742 1479,741 1576,741 
	1576,739 1662,739 1662,742 1742,742 1742,745 1815,745 1859,745 1932,745 1932,730.72 1932.47,730.72 "/>
<g>
	<g>
		<path class="st15" d="M-1188.93,372.57c3.74-4.46,7.49-5.2,11.29-1.85c-1.13,19.03-5.4,36.84-12.98,52.35
			c-6.36,3.97-10.19,3.49-11.45-1.07C-1194.45,404.15-1190.14,387.18-1188.93,372.57z M-1165.69,251.93
			c6.05-6.87,9.73-7.56,11.05-1.76c-9.54,25.27-18.62,44.76-27.16,59.38c8-3.15,16.03-6.25,24.07-9.32
			c6.09-9.25,11.54-20.68,16.31-34.43c6.12-5.54,9.85-5.84,11.2-0.73c-14.38,35.2-30.27,62.14-47.6,81.88
			c12.45-4.28,24.93-8.6,37.44-12.93c-3.21-4.74-6.42-9.36-9.61-13.86c-0.07-5.28,3-8.28,9.26-8.88
			c8.92,10.67,16.69,22.48,23.25,35.02c-2.4,7.25-6.17,8.89-11.28,5.28c-1.94-3.01-3.89-5.98-5.82-8.91
			c-18.81,5.8-37.56,11.58-56.27,17.29c-9.99,2.95-12.47,1.22-7.49-5.49c14.91-14.62,26.59-29.33,35.15-43.22
			c-9.29,3.28-18.56,6.61-27.8,9.99c-8.64,2.68-10.47,0.59-5.56-6.72C-1185.54,299.45-1175.22,278.89-1165.69,251.93z
			 M-1168.24,367.69c2.45-5.46,6.2-6.71,11.29-3.37c4.01,19.21,6.77,35.98,8.24,49.7c-3.73,6.53-7.55,7.05-11.43,2.05
			C-1161.59,401.67-1164.3,385.35-1168.24,367.69z M-1145.68,359.31c2.43-5.74,6.19-7.03,11.3-3.48
			c6.57,16.53,10.67,33.04,12.23,48.67c-3.71,5.82-7.53,6.48-11.41,2.31C-1136.35,391.61-1140.41,375.61-1145.68,359.31z
			 M-1027.48,279.36c13.34-2.68,26.73-5.19,40.15-7.54c5.2,3.25,5.29,7.45,0.28,12.41c-21.72,3.5-43.36,7.41-64.9,11.73
			c0.16,6.98,0.32,13.97,0.47,20.95c18.69,38.84,42.42,69.84,71.02,91.28c2.73,8.26,0.26,11.77-7.43,10.5
			c-26-20.22-47.04-46.07-63.03-77.02c0.57,25.4,1.15,50.8,1.72,76.2c1.57,12.86-13.74,14.35-45.8,6.39
			c-3.94-5.83-2.74-9.33,3.61-10.75c21.8,6.49,32.03,6.55,30.59-1c-0.85-38.08-1.69-76.16-2.54-114.23
			c-20.87,4.32-41.64,9.03-62.3,14.11c-6.32-1.8-6.37-5.03-0.17-10.06c28.75-7.68,57.74-14.56,86.92-20.63
			c1.79-5.57,3.57-11.18,5.35-16.83c-22.21,5.01-44.3,10.53-66.24,16.56c-15.02,5.26-20.1,1.75-15.31-11.22
			c8.45-17.63,14.42-33.39,17.91-46.64c7.41-6.38,11.19-6.58,11.31-0.53c-1.2,2.86-2.4,5.71-3.6,8.54
			c18.76-6.54,37.66-12.59,56.67-18.15c17.74-5.22,24.33,1.36,19.6,18.72C-1017.98,248.15-1022.73,263.88-1027.48,279.36z
			 M-1075.47,354.26c7.53-4.67,10.75-2.61,9.68,6.24c-11.02,19.91-25.9,38.08-44.72,53.68c-7.64,0.26-10.24-2.44-7.79-8.2
			C-1100.76,391.47-1086.49,374.06-1075.47,354.26z M-1112.27,321.25c-0.11-5.71,2.99-8.18,9.33-7.25
			c9.03,9.76,16.26,21.72,21.64,35.54c-1.12,7.46-4.9,9.09-11.32,5.17C-1096.63,344.56-1103.21,333.14-1112.27,321.25z
			 M-1034.45,225.74c-19.64,5.47-39.17,11.43-58.56,17.89c-3,7-6.01,13.91-9.02,20.74c-2.39,6.62-0.47,8.38,5.78,5.37
			c21.93-6.39,44.02-12.24,66.24-17.53c1.77-6.35,3.54-12.75,5.31-19.18C-1023.59,226.11-1026.84,223.62-1034.45,225.74z
			 M-1007.93,295.83c6.27-5.09,10.15-3.71,11.62,4.29c-4.81,14.42-12.16,29-22.04,43.41c-6.32,3.36-9.55,1.08-9.73-6.77
			C-1019.42,325.16-1012.71,311.49-1007.93,295.83z"/>
		<path class="st15" d="M-924.22,173.99c21.32-4.3,42.74-7.98,64.23-11.04c13.02-1.85,19,5.19,17.9,20.73
			c0.4,30.79,0.81,61.59,1.21,92.38c1.55,19.98-6.08,29.63-22.84,29.24c-7.73,0.55-15.46,1.13-23.18,1.76
			c0.18,10.5,0.35,21.01,0.53,31.51c14.13-0.86,28.27-1.62,42.42-2.28c3.92,4.43,3.98,9.07,0.19,13.83
			c-14.14,0.57-28.26,1.22-42.38,1.96c0.25,15.01,0.51,30.01,0.76,45.02c22.93-6.56,38.25-11.53,45.9-14.79
			c6.44,2.93,7.14,7.56,2.1,13.82c-38.25,13-72.59,21.61-103.16,26.2c-6.45-2.83-7.18-7.06-2.18-12.91
			c11.47-1.69,26.75-4.9,45.86-9.81c-0.28-15.64-0.55-31.27-0.83-46.91c-14.11,0.78-28.21,1.65-42.29,2.6
			c-6.49-3.89-6.58-8.14-0.26-12.97c14.09-1.11,28.2-2.12,42.32-3.04c-0.18-10.42-0.37-20.85-0.55-31.27
			c-8.36,0.72-16.71,1.48-25.06,2.3c-12.82,2.7-20.01-3.77-21.61-19.38c-0.57-28-1.15-56.01-1.72-84.01
			C-947.25,188.34-939.73,177.18-924.22,173.99z M-900.69,182.95c-7.12,1.22-14.24,2.5-21.35,3.85
			c-9.05,1.74-13.45,7.76-13.25,17.88c0.22,10.88,0.43,21.76,0.65,32.63c11.58-1.88,23.19-3.63,34.81-5.23
			C-900.11,215.71-900.4,199.33-900.69,182.95z M-899.58,245.49c-11.62,1.49-23.21,3.12-34.79,4.88
			c0.22,10.88,0.43,21.75,0.65,32.63c0.23,11.6,4.81,16.17,13.79,13.76c7.07-0.75,14.14-1.46,21.22-2.13
			C-899,278.25-899.29,261.87-899.58,245.49z M-863.69,177.23c-8.45,1.17-16.9,2.43-25.33,3.79c0.28,16.51,0.56,33.01,0.83,49.52
			c11.64-1.51,23.3-2.87,34.97-4.1c-0.17-12.25-0.35-24.49-0.52-36.74C-852.57,180.35-855.89,176.15-863.69,177.23z M-853.03,240.22
			c-11.66,1.14-23.31,2.42-34.93,3.82c0.28,16.51,0.56,33.01,0.83,49.52c7.73-0.69,15.46-1.34,23.2-1.95
			c9.05,0.84,12.85-4.01,11.42-14.65C-852.68,264.71-852.85,252.46-853.03,240.22z M-826.73,158.73c20.9-2.34,41.85-4.09,62.83-5.26
			c24.92-1.32,34.12,8.21,27.64,27.36c-6.48,17.63-22.75,41.93-48.47,73.08c2.65,6.16,5.29,12.34,7.93,18.54
			c10.37-0.41,20.74-0.74,31.12-0.98c16.87,1.22,22.72,11.54,17.59,30.64c-3.84,14.33-12.19,33.49-24.93,57.4
			c-6.42,3.25-9.64,0.93-9.69-6.98c11.45-22.3,19.13-39.89,22.96-52.64c2.55-7.95-1.35-12.67-11.71-14.03
			c-9.07,0.22-18.13,0.49-27.19,0.83c0.27,35.42,0.53,70.84,0.8,106.27c2.78,34.71-14.96,43.95-53.47,28.56
			c-5.2-6.16-4.62-10.77,1.75-13.93c29.57,13.68,42.93,9.08,40.19-14.5c-0.3-35.31-0.61-70.62-0.91-105.93
			c-12.94,0.55-25.87,1.22-38.79,2.02c-5.23-4.32-5.3-8.93-0.17-13.93c12.94-0.87,25.88-1.61,38.84-2.21
			c-7.95-20.03-18.55-41.36-31.82-63.5c-1.4-7.62,1.84-10.28,9.69-7.84c7.96,13.37,15.25,26.98,21.87,40.74
			c21.85-27.91,35.49-48.27,40.67-61.14c2.56-9.6-0.73-14.26-9.89-13.81c-22.26,1.1-44.5,2.83-66.68,5.19
			C-830.51,170.01-830.57,165.39-826.73,158.73z"/>
		<path class="st15" d="M-634.61,151.33c3.97-6.07,7.91-5.01,11.78,3.13c-4.11,23.34-11.5,49.7-22.07,79.37
			c-0.36,64.85-0.71,129.69-1.07,194.54c-3.87,6.32-7.69,6.33-11.5-0.01c0.25-57.05,0.5-114.1,0.75-171.14
			c-6.57,15.69-15.05,29.83-25.41,42.44c-7.76,1.54-10.35-2.44-7.75-11.97C-661.33,241.72-642.77,196.62-634.61,151.33z
			 M-534.68,166.38c-1.19,78.27-2.38,156.55-3.57,234.82c14.72,0.27,29.43,0.57,44.14,0.9c10.19,1.69,14.76-2.58,13.68-12.84
			c1.02-52.62,2.03-105.24,3.05-157.87c3.98-5.23,7.85-4.54,11.59,1.89c-1.07,53.58-2.14,107.15-3.21,160.73
			c0.95,15.92-6.86,23.05-23.43,21.4c-35.78-0.47-71.58-0.82-107.39-1.05c-12.81,1.49-19.13-6.4-18.99-23.69
			c0.48-59.73,0.97-119.46,1.45-179.2c3.95-4.48,7.86-4.21,11.72,0.75c-0.53,57.96-1.06,115.93-1.59,173.89
			c-0.1,10.97,3.7,15.7,11.4,14.23c15.37,0.18,30.73,0.4,46.09,0.65c1.12-78.76,2.25-157.53,3.37-236.29
			C-542.41,159.13-538.49,159.72-534.68,166.38z"/>
		<path class="st15" d="M-352.81,398.82c-21.93,10.35-46.42,19.87-73.41,28.03c-6.36-1.43-7.54-5.68-3.56-12.58
			c3.22-1.33,6.45-2.65,9.67-3.96c0.74-33.15,1.47-66.31,2.21-99.46c5.23-4.84,9.06-4.25,11.49,1.54
			c-0.71,31.37-1.41,62.74-2.12,94.11c6.43-1.85,12.86-3.66,19.28-5.4c0.87-38,1.73-76,2.6-114c-5.73-1.04-11.47-2.04-17.21-3.02
			c-8.97-0.12-13.29-7.72-12.95-22.95c0.32-14.5,0.64-29.01,0.96-43.51c0.33-15.21,6.9-21.24,19.65-17.72
			c8.28,2.27,16.54,4.64,24.78,7.1c12.67,3.84,18.18,12.72,16.6,26.37c-0.32,14.08-0.64,28.17-0.96,42.25
			c0.97,13.06-4.22,17.78-15.62,14.32c-1.27-0.24-2.54-0.48-3.81-0.72c-0.3,13.14-0.6,26.28-0.9,39.42
			c6.36,0.87,12.72,1.76,19.07,2.68c4.99,4.58,4.9,8.34-0.26,11.52c-6.36-0.81-12.72-1.61-19.08-2.37
			c-0.44,19.05-0.87,38.11-1.31,57.16c7.11-3.62,14.21-7.12,21.3-10.49C-347.49,389.04-346.31,392.82-352.81,398.82z
			 M-373.57,218.26c-6.34-1.78-12.7-3.51-19.07-5.19c-7.64-2.02-11.57,1.12-11.75,9.31c-0.28,12.28-0.55,24.55-0.83,36.83
			c-0.22,9.57,2.24,14.11,7.38,13.7c7.65,1.44,15.29,2.94,22.91,4.49c6.31,2.6,8.94-0.75,7.89-10.14
			c0.27-11.71,0.53-23.42,0.8-35.12C-364.79,224.68-367.24,220.05-373.57,218.26z M-322.16,219.23c3.84-2.33,7.56,0.33,11.18,7.64
			c-7.97,20.01-19.08,36.35-33.35,49.46c-6.36-0.2-8.82-3.96-7.37-11.32C-337.39,250.58-327.57,235.72-322.16,219.23z
			 M-319.45,269.61c5.13-3.45,8.87-1.69,11.27,4.93c-1.39,5.6-5.36,14.62-11.96,27.76c-0.89,41.78-1.78,83.56-2.68,125.35
			c-1.39,4.81-5.22,4.87-11.49-0.1c0.8-36.4,1.6-72.79,2.39-109.19c-2.67,5.71-7.23,10.54-13.68,14.62
			c-5.11,0.52-7.59-2.38-7.44-8.77C-337.4,308.79-326.23,290.89-319.45,269.61z M-259.92,316.64c3.81-3.35,7.54-2.26,11.22,2.92
			c-0.09,7.36-0.19,14.72-0.28,22.08c12.51,2.65,24.99,5.42,37.43,8.29c4.96,4.02,4.96,6.77-0.03,8.6
			c-12.47-2.58-24.98-5.06-37.52-7.43c-0.27,21.03-0.54,42.06-0.81,63.08c8.87,2.48,19.04,3.85,30.48,4.29
			c5.09,0.2,10.17,0.39,15.25,0.6c5.07,3.01,5.08,5.7-0.01,8.42c-5.1-0.08-10.2-0.16-15.3-0.24c-31.91,1.66-54.75-9.33-68.19-36.85
			c-2.75,11.17-7.42,22.36-14.02,33.95c-6.45,3.42-9.6,1.65-9.46-5.49c11.87-18.76,17.35-40.47,16.6-67.21
			c0.28-14.44,0.56-28.89,0.84-43.33c3.86-3.73,7.61-2.73,11.29,2.7c-0.39,21.48-0.78,42.96-1.16,64.44
			c4.85,11.89,12.29,22.59,22.33,31.77C-260.82,377.03-260.37,346.83-259.92,316.64z M-279.17,233.76c5-1.37,8.68,1.37,11.06,7.87
			c-1.33,5-3.91,11.18-7.79,18.79c7.31,10.48,12.15,19.21,14.54,26.5c1.16,5.8-1.36,7.19-7.56,4.23
			c-2.41-6.24-6.04-12.96-10.92-20.22c-3.87,6.67-8.39,12.75-13.53,18.33c-5.07,0.96-8.17-1.58-9.3-7.82
			C-292.36,271.25-284.55,255.38-279.17,233.76z M-240.4,248.73c3.71-2.47,7.35-0.15,10.96,6.55c-1.3,7.47-3.2,14.75-5.73,21.94
			c13.37,17.5,22.53,29.81,27.44,38.1c-0.01,4.72-3.1,5.17-9.25,1.29c-4.91-7.4-12.25-17.23-22-30.03
			c-3.8,7.92-8.24,15.39-13.33,22.45c-6.25,0.38-9.35-2.06-9.26-7.5C-251.39,289.23-244.35,271.84-240.4,248.73z"/>
	</g>
	<g>
		<path class="st16" d="M-1189.93,371.57c3.74-4.46,7.49-5.2,11.29-1.85c-1.13,19.03-5.4,36.84-12.98,52.35
			c-6.36,3.97-10.19,3.49-11.45-1.07C-1195.45,403.15-1191.14,386.18-1189.93,371.57z M-1166.69,250.93
			c6.05-6.87,9.73-7.56,11.05-1.76c-9.54,25.27-18.62,44.76-27.16,59.38c8-3.15,16.03-6.25,24.07-9.32
			c6.09-9.25,11.54-20.68,16.31-34.43c6.12-5.54,9.85-5.84,11.2-0.73c-14.38,35.2-30.27,62.14-47.6,81.88
			c12.45-4.28,24.93-8.6,37.44-12.93c-3.21-4.74-6.42-9.36-9.61-13.86c-0.07-5.28,3-8.28,9.26-8.88
			c8.92,10.67,16.69,22.48,23.25,35.02c-2.4,7.25-6.17,8.89-11.28,5.28c-1.94-3.01-3.89-5.98-5.82-8.91
			c-18.81,5.8-37.56,11.58-56.27,17.29c-9.99,2.95-12.47,1.22-7.49-5.49c14.91-14.62,26.59-29.33,35.15-43.22
			c-9.29,3.28-18.56,6.61-27.8,9.99c-8.64,2.68-10.47,0.59-5.56-6.72C-1186.54,298.45-1176.22,277.89-1166.69,250.93z
			 M-1169.24,366.69c2.45-5.46,6.2-6.71,11.29-3.37c4.01,19.21,6.77,35.98,8.24,49.7c-3.73,6.53-7.55,7.05-11.43,2.05
			C-1162.59,400.67-1165.3,384.35-1169.24,366.69z M-1146.68,358.31c2.43-5.74,6.19-7.03,11.3-3.48
			c6.57,16.53,10.67,33.04,12.23,48.67c-3.71,5.82-7.53,6.48-11.41,2.31C-1137.35,390.61-1141.41,374.61-1146.68,358.31z
			 M-1028.48,278.36c13.34-2.68,26.73-5.19,40.15-7.54c5.2,3.25,5.29,7.45,0.28,12.41c-21.72,3.5-43.36,7.41-64.9,11.73
			c0.16,6.98,0.32,13.97,0.47,20.95c18.69,38.84,42.42,69.84,71.02,91.28c2.73,8.26,0.26,11.77-7.43,10.5
			c-26-20.22-47.04-46.07-63.03-77.02c0.57,25.4,1.15,50.8,1.72,76.2c1.57,12.86-13.74,14.35-45.8,6.39
			c-3.94-5.83-2.74-9.33,3.61-10.75c21.8,6.49,32.03,6.55,30.59-1c-0.85-38.08-1.69-76.16-2.54-114.23
			c-20.87,4.32-41.64,9.03-62.3,14.11c-6.32-1.8-6.37-5.03-0.17-10.06c28.75-7.68,57.74-14.56,86.92-20.63
			c1.79-5.57,3.57-11.18,5.35-16.83c-22.21,5.01-44.3,10.53-66.24,16.56c-15.02,5.26-20.1,1.75-15.31-11.22
			c8.45-17.63,14.42-33.39,17.91-46.64c7.41-6.38,11.19-6.58,11.31-0.53c-1.2,2.86-2.4,5.71-3.6,8.54
			c18.76-6.54,37.66-12.59,56.67-18.15c17.74-5.22,24.33,1.36,19.6,18.72C-1018.98,247.15-1023.73,262.88-1028.48,278.36z
			 M-1076.47,353.26c7.53-4.67,10.75-2.61,9.68,6.24c-11.02,19.91-25.9,38.08-44.72,53.68c-7.64,0.26-10.24-2.44-7.79-8.2
			C-1101.76,390.47-1087.49,373.06-1076.47,353.26z M-1113.27,320.25c-0.11-5.71,2.99-8.18,9.33-7.25
			c9.03,9.76,16.26,21.72,21.64,35.54c-1.12,7.46-4.9,9.09-11.32,5.17C-1097.63,343.56-1104.21,332.14-1113.27,320.25z
			 M-1035.45,224.74c-19.64,5.47-39.17,11.43-58.56,17.89c-3,7-6.01,13.91-9.02,20.74c-2.39,6.62-0.47,8.38,5.78,5.37
			c21.93-6.39,44.02-12.24,66.24-17.53c1.77-6.35,3.54-12.75,5.31-19.18C-1024.59,225.11-1027.84,222.62-1035.45,224.74z
			 M-1008.93,294.83c6.27-5.09,10.15-3.71,11.62,4.29c-4.81,14.42-12.16,29-22.04,43.41c-6.32,3.36-9.55,1.08-9.73-6.77
			C-1020.42,324.16-1013.71,310.49-1008.93,294.83z"/>
		<path class="st16" d="M-925.22,172.99c21.32-4.3,42.74-7.98,64.23-11.04c13.02-1.85,19,5.19,17.9,20.73
			c0.4,30.79,0.81,61.59,1.21,92.38c1.55,19.98-6.08,29.63-22.84,29.24c-7.73,0.55-15.46,1.13-23.18,1.76
			c0.18,10.5,0.35,21.01,0.53,31.51c14.13-0.86,28.27-1.62,42.42-2.28c3.92,4.43,3.98,9.07,0.19,13.83
			c-14.14,0.57-28.26,1.22-42.38,1.96c0.25,15.01,0.51,30.01,0.76,45.02c22.93-6.56,38.25-11.53,45.9-14.79
			c6.44,2.93,7.14,7.56,2.1,13.82c-38.25,13-72.59,21.61-103.16,26.2c-6.45-2.83-7.18-7.06-2.18-12.91
			c11.47-1.69,26.75-4.9,45.86-9.81c-0.28-15.64-0.55-31.27-0.83-46.91c-14.11,0.78-28.21,1.65-42.29,2.6
			c-6.49-3.89-6.58-8.14-0.26-12.97c14.09-1.11,28.2-2.12,42.32-3.04c-0.18-10.42-0.37-20.85-0.55-31.27
			c-8.36,0.72-16.71,1.48-25.06,2.3c-12.82,2.7-20.01-3.77-21.61-19.38c-0.57-28-1.15-56.01-1.72-84.01
			C-948.25,187.34-940.73,176.18-925.22,172.99z M-901.69,181.95c-7.12,1.22-14.24,2.5-21.35,3.85
			c-9.05,1.74-13.45,7.76-13.25,17.88c0.22,10.88,0.43,21.76,0.65,32.63c11.58-1.88,23.19-3.63,34.81-5.23
			C-901.11,214.71-901.4,198.33-901.69,181.95z M-900.58,244.49c-11.62,1.49-23.21,3.12-34.79,4.88
			c0.22,10.88,0.43,21.75,0.65,32.63c0.23,11.6,4.81,16.17,13.79,13.76c7.07-0.75,14.14-1.46,21.22-2.13
			C-900,277.25-900.29,260.87-900.58,244.49z M-864.69,176.23c-8.45,1.17-16.9,2.43-25.33,3.79c0.28,16.51,0.56,33.01,0.83,49.52
			c11.64-1.51,23.3-2.87,34.97-4.1c-0.17-12.25-0.35-24.49-0.52-36.74C-853.57,179.35-856.89,175.15-864.69,176.23z M-854.03,239.22
			c-11.66,1.14-23.31,2.42-34.93,3.82c0.28,16.51,0.56,33.01,0.83,49.52c7.73-0.69,15.46-1.34,23.2-1.95
			c9.05,0.84,12.85-4.01,11.42-14.65C-853.68,263.71-853.85,251.46-854.03,239.22z M-827.73,157.73c20.9-2.34,41.85-4.09,62.83-5.26
			c24.92-1.32,34.12,8.21,27.64,27.36c-6.48,17.63-22.75,41.93-48.47,73.08c2.65,6.16,5.29,12.34,7.93,18.54
			c10.37-0.41,20.74-0.74,31.12-0.98c16.87,1.22,22.72,11.54,17.59,30.64c-3.84,14.33-12.19,33.49-24.93,57.4
			c-6.42,3.25-9.64,0.93-9.69-6.98c11.45-22.3,19.13-39.89,22.96-52.64c2.55-7.95-1.35-12.67-11.71-14.03
			c-9.07,0.22-18.13,0.49-27.19,0.83c0.27,35.42,0.53,70.84,0.8,106.27c2.78,34.71-14.96,43.95-53.47,28.56
			c-5.2-6.16-4.62-10.77,1.75-13.93c29.57,13.68,42.93,9.08,40.19-14.5c-0.3-35.31-0.61-70.62-0.91-105.93
			c-12.94,0.55-25.87,1.22-38.79,2.02c-5.23-4.32-5.3-8.93-0.17-13.93c12.94-0.87,25.88-1.61,38.84-2.21
			c-7.95-20.03-18.55-41.36-31.82-63.5c-1.4-7.62,1.84-10.28,9.69-7.84c7.96,13.37,15.25,26.98,21.87,40.74
			c21.85-27.91,35.49-48.27,40.67-61.14c2.56-9.6-0.73-14.26-9.89-13.81c-22.26,1.1-44.5,2.83-66.68,5.19
			C-831.51,169.01-831.57,164.39-827.73,157.73z"/>
		<path class="st16" d="M-635.61,150.33c3.97-6.07,7.91-5.01,11.78,3.13c-4.11,23.34-11.5,49.7-22.07,79.37
			c-0.36,64.85-0.71,129.69-1.07,194.54c-3.87,6.32-7.69,6.33-11.5-0.01c0.25-57.05,0.5-114.1,0.75-171.14
			c-6.57,15.69-15.05,29.83-25.41,42.44c-7.76,1.54-10.35-2.44-7.75-11.97C-662.33,240.72-643.77,195.62-635.61,150.33z
			 M-535.68,165.38c-1.19,78.27-2.38,156.55-3.57,234.82c14.72,0.27,29.43,0.57,44.14,0.9c10.19,1.69,14.76-2.58,13.68-12.84
			c1.02-52.62,2.03-105.24,3.05-157.87c3.98-5.23,7.85-4.54,11.59,1.89c-1.07,53.58-2.14,107.15-3.21,160.73
			c0.95,15.92-6.86,23.05-23.43,21.4c-35.78-0.47-71.58-0.82-107.39-1.05c-12.81,1.49-19.13-6.4-18.99-23.69
			c0.48-59.73,0.97-119.46,1.45-179.2c3.95-4.48,7.86-4.21,11.72,0.75c-0.53,57.96-1.06,115.93-1.59,173.89
			c-0.1,10.97,3.7,15.7,11.4,14.23c15.37,0.18,30.73,0.4,46.09,0.65c1.12-78.76,2.25-157.53,3.37-236.29
			C-543.41,158.13-539.49,158.72-535.68,165.38z"/>
		<path class="st16" d="M-353.81,397.82c-21.93,10.35-46.42,19.87-73.41,28.03c-6.36-1.43-7.54-5.68-3.56-12.58
			c3.22-1.33,6.45-2.65,9.67-3.96c0.74-33.15,1.47-66.31,2.21-99.46c5.23-4.84,9.06-4.25,11.49,1.54
			c-0.71,31.37-1.41,62.74-2.12,94.11c6.43-1.85,12.86-3.66,19.28-5.4c0.87-38,1.73-76,2.6-114c-5.73-1.04-11.47-2.04-17.21-3.02
			c-8.97-0.12-13.29-7.72-12.95-22.95c0.32-14.5,0.64-29.01,0.96-43.51c0.33-15.21,6.9-21.24,19.65-17.72
			c8.28,2.27,16.54,4.64,24.78,7.1c12.67,3.84,18.18,12.72,16.6,26.37c-0.32,14.08-0.64,28.17-0.96,42.25
			c0.97,13.06-4.22,17.78-15.62,14.32c-1.27-0.24-2.54-0.48-3.81-0.72c-0.3,13.14-0.6,26.28-0.9,39.42
			c6.36,0.87,12.72,1.76,19.07,2.68c4.99,4.58,4.9,8.34-0.26,11.52c-6.36-0.81-12.72-1.61-19.08-2.37
			c-0.44,19.05-0.87,38.11-1.31,57.16c7.11-3.62,14.21-7.12,21.3-10.49C-348.49,388.04-347.31,391.82-353.81,397.82z
			 M-374.57,217.26c-6.34-1.78-12.7-3.51-19.07-5.19c-7.64-2.02-11.57,1.12-11.75,9.31c-0.28,12.28-0.55,24.55-0.83,36.83
			c-0.22,9.57,2.24,14.11,7.38,13.7c7.65,1.44,15.29,2.94,22.91,4.49c6.31,2.6,8.94-0.75,7.89-10.14
			c0.27-11.71,0.53-23.42,0.8-35.12C-365.79,223.68-368.24,219.05-374.57,217.26z M-323.16,218.23c3.84-2.33,7.56,0.33,11.18,7.64
			c-7.97,20.01-19.08,36.35-33.35,49.46c-6.36-0.2-8.82-3.96-7.37-11.32C-338.39,249.58-328.57,234.72-323.16,218.23z
			 M-320.45,268.61c5.13-3.45,8.87-1.69,11.27,4.93c-1.39,5.6-5.36,14.62-11.96,27.76c-0.89,41.78-1.78,83.56-2.68,125.35
			c-1.39,4.81-5.22,4.87-11.49-0.1c0.8-36.4,1.6-72.79,2.39-109.19c-2.67,5.71-7.23,10.54-13.68,14.62
			c-5.11,0.52-7.59-2.38-7.44-8.77C-338.4,307.79-327.23,289.89-320.45,268.61z M-260.92,315.64c3.81-3.35,7.54-2.26,11.22,2.92
			c-0.09,7.36-0.19,14.72-0.28,22.08c12.51,2.65,24.99,5.42,37.43,8.29c4.96,4.02,4.96,6.77-0.03,8.6
			c-12.47-2.58-24.98-5.06-37.52-7.43c-0.27,21.03-0.54,42.06-0.81,63.08c8.87,2.48,19.04,3.85,30.48,4.29
			c5.09,0.2,10.17,0.39,15.25,0.6c5.07,3.01,5.08,5.7-0.01,8.42c-5.1-0.08-10.2-0.16-15.3-0.24c-31.91,1.66-54.75-9.33-68.19-36.85
			c-2.75,11.17-7.42,22.36-14.02,33.95c-6.45,3.42-9.6,1.65-9.46-5.49c11.87-18.76,17.35-40.47,16.6-67.21
			c0.28-14.44,0.56-28.89,0.84-43.33c3.86-3.73,7.61-2.73,11.29,2.7c-0.39,21.48-0.78,42.96-1.16,64.44
			c4.85,11.89,12.29,22.59,22.33,31.77C-261.82,376.03-261.37,345.83-260.92,315.64z M-280.17,232.76c5-1.37,8.68,1.37,11.06,7.87
			c-1.33,5-3.91,11.18-7.79,18.79c7.31,10.48,12.15,19.21,14.54,26.5c1.16,5.8-1.36,7.19-7.56,4.23
			c-2.41-6.24-6.04-12.96-10.92-20.22c-3.87,6.67-8.39,12.75-13.53,18.33c-5.07,0.96-8.17-1.58-9.3-7.82
			C-293.36,270.25-285.55,254.38-280.17,232.76z M-241.4,247.73c3.71-2.47,7.35-0.15,10.96,6.55c-1.3,7.47-3.2,14.75-5.73,21.94
			c13.37,17.5,22.53,29.81,27.44,38.1c-0.01,4.72-3.1,5.17-9.25,1.29c-4.91-7.4-12.25-17.23-22-30.03
			c-3.8,7.92-8.24,15.39-13.33,22.45c-6.25,0.38-9.35-2.06-9.26-7.5C-252.39,288.23-245.35,270.84-241.4,247.73z"/>
	</g>
</g>
<g>
	<path class="st17" d="M1324.33,1079.11c-5.61-16.34-0.58-35.8,12.26-47.36c17.64-15.88,44.68-15.35,65.24-27.21
		c18.15-10.46,29.76-29.69,47.4-40.98c24.71-15.82,56.48-13.5,84.87-20.92c45.71-11.94,82.32-49.16,128.78-57.69
		c11.22-2.06,22.98-2.44,33.35-7.18c17.35-7.93,27.62-26.54,44.29-35.81c17.79-9.9,39.64-7.61,59.47-12.19
		c21.57-4.98,40.26-17.96,60.01-27.98c19.75-10.01,42.98-17.22,63.82-9.74c21.15,7.59,34.46,28.24,44.61,48.29
		c13.37,26.42,24.06,54.2,31.84,82.77c7.76,28.48,12.58,59.01,4.15,87.3c-4.24,14.25-11.69,27.34-19.99,39.68
		c-26.73,39.73-64.53,73.79-110.49,87.23c-23.45,6.86-48.13,8.18-72.56,8.94c-39.75,1.24-79.53,1.14-119.3,0.88
		c-99.69-0.66-199.73-2.35-298.28-17.37c-14.56-2.22-29.6-4.93-41.69-13.34c-12.09-8.4-20.37-24.11-15.67-38.06"/>
</g>
<g>
	<path class="st18" d="M1375.63,993.4c2.3-13.68,20.44-21.78,32.16-14.36c5.63,3.56,9.59,9.76,15.9,11.87
		c6.4,2.14,13.85-0.48,19.96,2.38c6.73,3.15,9.09,12.27,6.44,19.21c-2.65,6.94-9.07,11.82-15.87,14.81
		c-6.8,2.99-14.17,4.44-21.21,6.83c-5.22,1.77-10.37,4.07-15.86,4.41c-15.43,0.97-28.03-14.56-29.02-29.99
		c-0.48-7.55,2.64-16.78,10.1-18.02"/>
</g>
<g>
	<path class="st18" d="M1290.53,1034.9c12.39-18.5,37.29-22.8,59.39-25.47c10.8-1.3,22.43-2.46,31.96,2.8
		c11.89,6.57,16.92,22.26,13.34,35.36c-3.58,13.1-14.36,23.41-26.74,29c-12.38,5.59-26.25,7-39.83,6.98
		c-6.18-0.01-12.49-0.33-18.24-2.59c-10.76-4.22-18.16-15.09-19.68-26.55c-1.52-11.45,2.33-23.22,9.04-32.62"/>
</g>
<g>
	<path class="st19" d="M1890,768c-8.56-9.85-18.51-20.34-30-31c-12.15-11.28-24-20.88-35-29c0-1.33,0-2.67,0-4
		c11.75,9.36,23.78,19.35,36,30c11.61,10.12,22.6,20.14,33,30C1892.67,765.33,1891.33,766.67,1890,768z"/>
	<path class="st20" d="M1823,711c-6.07,4.1-15.4-2.11-18.53-4.2c-4.48-2.98-9.57-6.37-9.47-11.8c0.09-4.5,3.71-9.04,8-10
		c3.42-0.77,6.66,1.48,13,6c7.19,5.12,10.81,7.7,11,12C1827.14,706.04,1825.52,709.29,1823,711z"/>
	<g>
		<g>
			<path class="st20" d="M1788.47,689.23c0.19,0.01,0.37,0.03,0.55,0.04c0.06,0.01,0.63,0.08,0.29,0.03
				c0.32,0.05,0.64,0.1,0.96,0.17c0.7,0.15,1.4,0.34,2.07,0.59c0.15,0.05,0.3,0.11,0.46,0.17c0.09,0.03,0.17,0.07,0.26,0.1
				c-0.14-0.06-0.14-0.06,0.02,0.01c0.31,0.15,0.63,0.3,0.94,0.46c0.64,0.34,1.24,0.72,1.83,1.14c0.64,0.46,1.7,0.13,2.05-0.54
				c0.41-0.78,0.14-1.56-0.54-2.05c-2.6-1.88-5.71-2.93-8.89-3.13c-0.78-0.05-1.53,0.73-1.5,1.5
				C1787.01,688.58,1787.63,689.17,1788.47,689.23L1788.47,689.23z"/>
		</g>
	</g>
	<path class="st19" d="M1893.31,742.15c-6.14-16.5-13.48-33.99-22.31-52.15c-4.6-9.45-9.28-18.45-14-27c1.33-0.67,2.67-1.33,4-2
		c4.39,7.9,8.74,16.23,13,25c9.28,19.12,16.72,37.47,22.71,54.61C1895.57,741.12,1894.44,741.64,1893.31,742.15z"/>
	<path class="st20" d="M1856.22,666.25c-7.28,0.83-12.68-9-14.49-12.29c-2.59-4.72-5.54-10.08-2.94-14.84
		c2.16-3.95,7.47-6.3,11.72-5.17c3.38,0.9,5.22,4.39,8.75,11.33c4,7.87,6.02,11.83,4.2,15.73
		C1862.18,663.77,1859.24,665.91,1856.22,666.25z"/>
	<g>
		<g>
			<path class="st20" d="M1834.49,632.09c0.84,0.84,1.65,1.71,2.44,2.61c0.38,0.44,0.75,0.88,1.12,1.33
				c0.19,0.24,0.39,0.48,0.58,0.72c0.08,0.11,0.16,0.22,0.25,0.32c-0.11-0.12-0.14-0.18-0.02-0.02c0.05,0.07,0.1,0.14,0.15,0.2
				c0.25,0.32,0.49,0.58,0.9,0.69c0.36,0.1,0.84,0.05,1.16-0.15c0.32-0.21,0.6-0.51,0.69-0.9c0.08-0.37,0.09-0.84-0.15-1.16
				c-1.54-2.03-3.19-3.96-4.99-5.76c-0.55-0.56-1.57-0.6-2.12,0C1833.94,630.56,1833.9,631.49,1834.49,632.09L1834.49,632.09z"/>
		</g>
	</g>
	<path class="st21" d="M1882,657c5.86,8.58,12.34,19.59,18,33c4.81,11.41,7.93,21.98,10,31c3.41,12.16,6.58,25.88,9,41
		c2.12,13.28,3.36,25.68,4,37c-0.67,2-1.33,4-2,6c-6.67-28.67-13.33-57.33-20-86C1894.67,698.33,1888.33,677.67,1882,657z"/>
	<g>
		<path class="st21" d="M1920.69,804.56c-7.89-3.75-15.87-7.32-23.93-10.7c-1.82-0.76-3.67-1.53-5.26-2.7
			c-1.33-0.98-2.44-2.21-3.56-3.43c-15.76-17.18-33.71-32.35-53.27-45.03c-12.37-8.02-25.77-15.41-34.28-27.44
			c5.95,0.09,11.29,3.43,16.29,6.65c13.5,8.7,27,17.4,40.51,26.1c8.67,5.59,17.4,11.21,24.9,18.29c4.76,4.48,8.98,9.5,13.19,14.51
			c-0.46-5.86-3.08-11.31-5.81-16.52c-8.55-16.34-18.63-31.88-30.05-46.35c-9.12-11.55-19.13-22.48-26.78-35.05
			c20.86,13.68,38.44,32.32,50.87,53.95c6.01,10.45,10.82,21.54,15.61,32.61c-4.42-17.39-9.24-35.24-14.53-53.49
			c-5.38-18.59-10.94-36.58-16.6-53.94l0,0c8.52,16.19,17.03,34.2,25,54C1905.91,748.07,1914.66,778.07,1920.69,804.56z"/>
	</g>
</g>
<g>
	<path class="st18" d="M1819.53,801.9c12.39-18.5,37.29-22.8,59.39-25.47c10.8-1.3,22.43-2.46,31.96,2.8
		c11.89,6.57,16.92,22.26,13.34,35.36c-3.58,13.1-14.36,23.41-26.74,29c-12.38,5.59-26.25,7-39.83,6.98
		c-6.18-0.01-12.49-0.33-18.24-2.59c-10.76-4.22-18.16-15.09-19.68-26.55c-1.52-11.45,2.33-23.22,9.04-32.62"/>
</g>
</svg>
