<?xml version="1.0" encoding="utf-8"?>
<!-- Generator: Adobe Illustrator 23.0.5, SVG Export Plug-In . SVG Version: 6.00 Build 0)  -->
<svg version="1.1" id="圖層_1" xmlns="http://www.w3.org/2000/svg" xmlns:xlink="http://www.w3.org/1999/xlink" x="0px" y="0px"
	 viewBox="0 0 1920 1080" style="enable-background:new 0 0 1920 1080;" xml:space="preserve">
<style type="text/css">
	.st0{fill:#FBE375;}
	.st1{fill:#A7EAFB;}
	.st2{fill:#FFFEFF;stroke:#808080;stroke-width:0.75;stroke-miterlimit:10;}
	.st3{fill:#BED972;}
	.st4{fill:#D89753;}
	.st5{fill:#98C149;}
	.st6{fill:#B3D864;}
	.st7{fill:#824A25;}
	.st8{fill:#F6EEDD;}
	.st9{fill:#FBA4A1;}
	.st10{fill:#AFC940;}
	.st11{fill:#4D9413;}
	.st12{fill:#FDB201;}
	.st13{fill:#FFDD31;}
	.st14{fill:#4C1B01;}
	.st15{fill:none;}
	.st16{fill:#BACEEF;}
	.st17{fill:#999999;}
	.st18{fill:#BAAD66;}
	.st19{fill:#D1C998;}
	.st20{fill:#70AF78;}
	.st21{fill:#F7E500;stroke:#000000;stroke-width:8;stroke-miterlimit:10;}
	.st22{font-family:'Mainstay';}
	.st23{font-size:250px;}
	.st24{letter-spacing:2;}
	.st25{fill:#F7E500;stroke:#020202;stroke-width:2;stroke-miterlimit:10;}
</style>
<rect class="st0" width="1919" height="1080"/>
<path class="st1" d="M1921,563c-320.33-14.68-640.66-22.02-961-22c-319.66,0.02-639.33,7.35-959,22C1,375.33,1,187.67,1,0h1920V563z
	"/>
<path class="st2" d="M286,101c-4.18,0-8.19,0.4-11.89,1.13C271.56,91.06,263.74,83,254.5,83c-2.03,0-3.98,0.39-5.83,1.12
	C239.58,69.77,221.65,60,201,60c-17.97,0-33.89,7.41-43.7,18.79C153.11,77.63,148.64,77,144,77c-17.69,0-32.88,9.07-39.48,22.04
	c-0.67-0.02-1.34-0.04-2.02-0.04C84,99,69,107.06,69,117s15,18,33.5,18c2.22,0,4.38-0.12,6.47-0.34
	c7.8,9.28,20.57,15.34,35.03,15.34c9.71,0,18.66-2.73,25.86-7.34c7.17,4.28,15.64,7.11,24.81,8.02c6.08,1.48,13,2.32,20.34,2.32
	c21.31,0,39.08-7.06,43.13-16.43c0.56-0.13,1.11-0.3,1.65-0.49c3.14,0.59,6.59,0.92,10.22,0.92c2.73,0,5.36-0.19,7.83-0.53
	c2.62,0.34,5.35,0.53,8.17,0.53c18.78,0,34-8.06,34-18C320,109.06,304.78,101,286,101z"/>
<path class="st2" d="M1708.68,87.28c-2.5,0-4.89,0.2-7.1,0.56c-1.53-5.48-6.2-9.46-11.72-9.46c-1.21,0-2.38,0.19-3.49,0.55
	c-5.43-7.1-16.15-11.93-28.49-11.93c-10.74,0-20.25,3.66-26.12,9.29c-2.5-0.57-5.17-0.88-7.95-0.88c-10.57,0-19.65,4.49-23.6,10.9
	c-0.4-0.01-0.8-0.02-1.2-0.02c-11.06,0-20.02,3.99-20.02,8.9c0,4.92,8.96,8.9,20.02,8.9c1.32,0,2.62-0.06,3.87-0.17
	c4.66,4.59,12.29,7.59,20.93,7.59c5.8,0,11.15-1.35,15.45-3.63c4.29,2.12,9.34,3.52,14.82,3.97c3.64,0.73,7.77,1.15,12.15,1.15
	c12.73,0,23.35-3.49,25.77-8.13c0.33-0.07,0.66-0.15,0.99-0.24c1.87,0.29,3.94,0.46,6.11,0.46c1.63,0,3.2-0.09,4.68-0.26
	c1.56,0.17,3.2,0.26,4.88,0.26c11.22,0,20.32-3.99,20.32-8.9C1729,91.27,1719.9,87.28,1708.68,87.28z"/>
<path class="st2" d="M1510.82,365.32c-3.47,0-6.78,0.41-9.85,1.17c-2.12-11.43-8.59-19.75-16.25-19.75c-1.68,0-3.3,0.41-4.83,1.15
	c-7.53-14.81-22.39-24.89-39.5-24.89c-14.9,0-28.08,7.65-36.22,19.39c-3.47-1.19-7.17-1.85-11.02-1.85
	c-14.66,0-27.25,9.37-32.72,22.75c-0.55-0.02-1.11-0.04-1.67-0.04c-15.33,0-27.76,8.32-27.76,18.58c0,10.26,12.43,18.58,27.76,18.58
	c1.84,0,3.63-0.12,5.37-0.35c6.46,9.58,17.05,15.83,29.02,15.83c8.04,0,15.47-2.82,21.43-7.58c5.95,4.41,12.96,7.34,20.56,8.28
	c5.04,1.53,10.77,2.4,16.85,2.4c17.66,0,32.38-7.29,35.74-16.96c0.46-0.14,0.92-0.31,1.37-0.51c2.6,0.61,5.46,0.95,8.47,0.95
	c2.26,0,4.44-0.19,6.49-0.55c2.17,0.35,4.43,0.55,6.77,0.55c15.56,0,28.18-8.32,28.18-18.58
	C1539,373.64,1526.39,365.32,1510.82,365.32z"/>
<path class="st2" d="M88.68,368.28c-2.5,0-4.89,0.2-7.1,0.56c-1.53-5.48-6.2-9.46-11.72-9.46c-1.21,0-2.38,0.19-3.49,0.55
	C60.94,352.83,50.22,348,37.88,348c-10.74,0-20.25,3.66-26.12,9.29c-2.5-0.57-5.17-0.88-7.95-0.88c-10.57,0-19.65,4.49-23.6,10.9
	c-0.4-0.01-0.8-0.02-1.2-0.02c-11.06,0-20.02,3.99-20.02,8.9s8.96,8.9,20.02,8.9c1.32,0,2.62-0.06,3.87-0.17
	c4.66,4.59,12.29,7.59,20.93,7.59c5.8,0,11.15-1.35,15.45-3.63c4.29,2.12,9.34,3.52,14.82,3.97c3.64,0.73,7.77,1.15,12.15,1.15
	c12.73,0,23.35-3.49,25.77-8.13c0.33-0.07,0.66-0.15,0.99-0.24c1.87,0.29,3.94,0.46,6.11,0.46c1.63,0,3.2-0.09,4.68-0.26
	c1.56,0.17,3.2,0.26,4.88,0.26c11.22,0,20.32-3.99,20.32-8.9C109,372.27,99.9,368.28,88.68,368.28z"/>
<path class="st3" d="M1921,1080H2V713.02c313.98-17.04,627.98-25.71,942-26.02c325.66-0.32,651.33,8.35,977,26.02
	C1921,835.35,1921,957.67,1921,1080z"/>
<path class="st4" d="M1736,658l-33,25c4,15.33,8,30.67,12,46c14,0,28,0,42,0c4-15.33,8-30.67,12-46L1736,658z"/>
<path class="st4" d="M1819,662l-33,25c4,15.33,8,30.67,12,46c14,0,28,0,42,0c4-15.33,8-30.67,12-46L1819,662z"/>
<path class="st4" d="M1897,664l-33,25c4,15.33,8,30.67,12,46c14,0,28,0,42,0c4-15.33,8-30.67,12-46L1897,664z"/>
<path class="st4" d="M1650,653l-33,25c4,15.33,8,30.67,12,46c14,0,28,0,42,0c4-15.33,8-30.67,12-46L1650,653z"/>
<path class="st4" d="M1563,648l-33,25c4,15.33,8,30.67,12,46c14,0,28,0,42,0c4-15.33,8-30.67,12-46L1563,648z"/>
<path class="st4" d="M1477,648l-33,25c4,15.33,8,30.67,12,46c14,0,28,0,42,0c4-15.33,8-30.67,12-46L1477,648z"/>
<path class="st4" d="M1391,648l-33,25c4,15.33,8,30.67,12,46c14,0,28,0,42,0c4-15.33,8-30.67,12-46L1391,648z"/>
<path class="st4" d="M1305,648l-33,25c4,15.33,8,30.67,12,46c14,0,28,0,42,0c4-15.33,8-30.67,12-46L1305,648z"/>
<path class="st4" d="M1219,648l-33,25c4,15.33,8,30.67,12,46c14,0,28,0,42,0c4-15.33,8-30.67,12-46L1219,648z"/>
<path class="st4" d="M1133,648l-33,25c4,15.33,8,30.67,12,46c14,0,28,0,42,0c4-15.33,8-30.67,12-46L1133,648z"/>
<path class="st4" d="M1047,648l-33,25c4,15.33,8,30.67,12,46c14,0,28,0,42,0c4-15.33,8-30.67,12-46L1047,648z"/>
<path class="st4" d="M961,648l-33,25c4,15.33,8,30.67,12,46c14,0,28,0,42,0c4-15.33,8-30.67,12-46L961,648z"/>
<path class="st4" d="M875,648l-33,25c4,15.33,8,30.67,12,46c14,0,28,0,42,0c4-15.33,8-30.67,12-46L875,648z"/>
<path class="st4" d="M789,648l-33,25c4,15.33,8,30.67,12,46c14,0,28,0,42,0c4-15.33,8-30.67,12-46L789,648z"/>
<path class="st4" d="M703,648l-33,25c4,15.33,8,30.67,12,46c14,0,28,0,42,0c4-15.33,8-30.67,12-46L703,648z"/>
<path class="st4" d="M617,648l-33,25c4,15.33,8,30.67,12,46c14,0,28,0,42,0c4-15.33,8-30.67,12-46L617,648z"/>
<path class="st4" d="M531,648l-33,25c4,15.33,8,30.67,12,46c14,0,28,0,42,0c4-15.33,8-30.67,12-46L531,648z"/>
<path class="st4" d="M445,648l-33,25c4,15.33,8,30.67,12,46c14,0,28,0,42,0c4-15.33,8-30.67,12-46L445,648z"/>
<path class="st4" d="M359,648l-33,25c4,15.33,8,30.67,12,46c14,0,28,0,42,0c4-15.33,8-30.67,12-46L359,648z"/>
<path class="st4" d="M273,650l-33,25c4,15.33,8,30.67,12,46c14,0,28,0,42,0c4-15.33,8-30.67,12-46L273,650z"/>
<path class="st4" d="M187,650l-33,25c4,15.33,8,30.67,12,46c14,0,28,0,42,0c4-15.33,8-30.67,12-46L187,650z"/>
<path class="st4" d="M101,650l-33,25c4,15.33,8,30.67,12,46c14,0,28,0,42,0c4-15.33,8-30.67,12-46L101,650z"/>
<path class="st4" d="M15,654l-33,25c4,15.33,8,30.67,12,46c14,0,28,0,42,0c4-15.33,8-30.67,12-46L15,654z"/>
<rect x="1839" y="701" class="st4" width="50" height="12"/>
<rect x="1771.06" y="675.99" transform="matrix(0.0587 -0.9983 0.9983 0.0587 972.966 2433.834)" class="st4" width="12" height="50"/>
<rect x="1665" y="695" class="st4" width="50" height="12"/>
<rect x="1578" y="689" class="st4" width="50" height="12"/>
<rect x="1491" y="689" class="st4" width="50" height="12"/>
<rect x="1404" y="689" class="st4" width="50" height="12"/>
<rect x="1317" y="689" class="st4" width="50" height="12"/>
<rect x="1230" y="689" class="st4" width="50" height="12"/>
<rect x="1143" y="689" class="st4" width="50" height="12"/>
<rect x="1065" y="687" class="st4" width="50" height="12"/>
<rect x="977" y="687" class="st4" width="50" height="12"/>
<rect x="890" y="687" class="st4" width="50" height="12"/>
<rect x="807" y="689" class="st4" width="50" height="12"/>
<rect x="721" y="689" class="st4" width="50" height="12"/>
<rect x="635" y="689" class="st4" width="50" height="12"/>
<rect x="549" y="689" class="st4" width="50" height="12"/>
<rect x="463" y="689" class="st4" width="50" height="12"/>
<rect x="377" y="689" class="st4" width="50" height="12"/>
<rect x="291" y="689" class="st4" width="50" height="12"/>
<rect x="204.98" y="693.02" transform="matrix(0.9992 -0.0403 0.0403 0.9992 -27.9832 9.836)" class="st4" width="50" height="12"/>
<rect x="119.01" y="696" transform="matrix(0.9965 -0.0836 0.0836 0.9965 -58.1829 14.4963)" class="st4" width="50" height="12"/>
<rect x="33.01" y="702" transform="matrix(0.9965 -0.0836 0.0836 0.9965 -58.9857 7.3278)" class="st4" width="50" height="12"/>
<rect x="-932" y="634" class="st3" width="0" height="1"/>
<g>
	<g>
		<path class="st5" d="M1855,338c-5.86,54.86-5.17,57.32-9,67c-3.89,9.83-14.01,35.37-40,49c-22.33,11.71-44.53,8.43-61,6
			c-23.17-3.42-39.33-12.13-50-18c-19.1-10.51-38.43-21.15-49-43c-5.16-10.65-6.47-20.34-9-39c-1.62-11.96-3.37-24.86-2-39
			c3.65-37.66,27.41-63.28,30-66c27.61-28.97,62.24-33.18,73-34c34.84-2.67,60.1,11.63,71,18c13.66,7.99,41.74,24.41,49,54
			C1859.56,299.34,1858.92,301.26,1855,338z"/>
		
			<ellipse transform="matrix(0.8047 -0.5937 0.5937 0.8047 182.3578 1042.6373)" class="st5" cx="1675.87" cy="244.16" rx="3.81" ry="8.6"/>
		
			<ellipse transform="matrix(0.314 -0.9494 0.9494 0.314 908.67 1757.9708)" class="st5" cx="1670.86" cy="250.18" rx="3.81" ry="8.6"/>
		
			<ellipse transform="matrix(0.8047 -0.5937 0.5937 0.8047 196.1383 1056.527)" class="st5" cx="1703.87" cy="230.16" rx="3.81" ry="8.6"/>
		
			<ellipse transform="matrix(0.3337 -0.9427 0.9427 0.3337 948.168 1783.5679)" class="st5" cx="1735.77" cy="221.06" rx="8.6" ry="3.81"/>
		
			<ellipse transform="matrix(0.4474 -0.8943 0.8943 0.4474 785.0685 1748.9066)" class="st5" cx="1807.78" cy="239.16" rx="8.6" ry="3.81"/>
		
			<ellipse transform="matrix(0.9218 -0.3877 0.3877 0.9218 38.5289 737.3918)" class="st5" cx="1846.88" cy="273.2" rx="8.6" ry="3.81"/>
		
			<ellipse transform="matrix(0.8047 -0.5937 0.5937 0.8047 155.9063 1034.2317)" class="st5" cx="1649.87" cy="280.16" rx="3.81" ry="8.6"/>
		
			<ellipse transform="matrix(0.3473 -0.9378 0.9378 0.3473 784.2891 1736.9269)" class="st5" cx="1639.87" cy="305.07" rx="3.81" ry="8.6"/>
		
			<ellipse transform="matrix(0.8976 -0.4409 0.4409 0.8976 30.0634 753.6534)" class="st5" cx="1636.9" cy="312.13" rx="8.6" ry="3.81"/>
		
			<ellipse transform="matrix(0.985 -0.1727 0.1727 0.985 -37.5863 288.0908)" class="st5" cx="1636.87" cy="360.05" rx="8.6" ry="3.81"/>
		
			<ellipse transform="matrix(0.6726 -0.74 0.74 0.6726 236.97 1363.8494)" class="st5" cx="1659.81" cy="414.12" rx="8.6" ry="3.81"/>
		
			<ellipse transform="matrix(0.8067 -0.591 0.591 0.8067 67.5303 1084.7841)" class="st5" cx="1691.89" cy="439.17" rx="8.6" ry="3.81"/>
		
			<ellipse transform="matrix(0.8958 -0.4445 0.4445 0.8958 46.1494 858.9684)" class="st5" cx="1854.85" cy="331.07" rx="8.6" ry="3.81"/>
		
			<ellipse transform="matrix(0.0715 -0.9974 0.9974 0.0715 1388.5555 2168.0522)" class="st5" cx="1858.8" cy="338.2" rx="3.81" ry="8.6"/>
		
			<ellipse transform="matrix(0.6997 -0.7144 0.7144 0.6997 231.178 1434.2754)" class="st5" cx="1821.78" cy="442.13" rx="3.81" ry="8.6"/>
		
			<ellipse transform="matrix(0.8958 -0.4445 0.4445 0.8958 49.3281 838.5279)" class="st6" cx="1812.85" cy="314.07" rx="8.6" ry="3.81"/>
		
			<ellipse transform="matrix(0.528 -0.8493 0.8493 0.528 504.0835 1735.062)" class="st6" cx="1812.89" cy="414.06" rx="8.6" ry="3.81"/>
		
			<ellipse transform="matrix(0.5147 -0.8574 0.8574 0.5147 610.9276 1603.4871)" class="st6" cx="1721.86" cy="262.1" rx="8.6" ry="3.81"/>
		
			<ellipse transform="matrix(0.7233 -0.6906 0.6906 0.7233 270.2269 1248.5099)" class="st6" cx="1692.9" cy="287.09" rx="3.81" ry="8.6"/>
		
			<ellipse transform="matrix(0.9597 -0.2809 0.2809 0.9597 -22.0861 488.1647)" class="st6" cx="1691.77" cy="321.12" rx="8.6" ry="3.81"/>
		
			<ellipse transform="matrix(0.5244 -0.8515 0.8515 0.5244 501.5067 1581.9352)" class="st6" cx="1666.81" cy="342.05" rx="3.81" ry="8.6"/>
		
			<ellipse transform="matrix(0.8958 -0.4445 0.4445 0.8958 1.442 796.2986)" class="st6" cx="1698.85" cy="395.07" rx="8.6" ry="3.81"/>
	</g>
	<path class="st7" d="M1822,391c-0.33-0.67-0.67-1.33-1-2c-22.71,12.24-45.42,24.49-68.13,36.73c-1.39-18.02-2.78-36.03-4.17-54.05
		c15.86-12.09,31.72-24.17,47.58-36.26c-0.52-0.54-1.05-1.08-1.57-1.62c-15.64,8.74-31.27,17.49-46.91,26.23
		c-1.93-25.01-3.86-50.02-5.79-75.03c-1,0-2,0-3,0c-1.1,14.92-2.19,29.84-3.29,44.76c-10.24-5.25-20.47-10.51-30.71-15.76
		c-0.33,0.67-0.67,1.33-1,2c10.17,8.48,20.35,16.96,30.52,25.44l0.37-0.56c-1.44,19.62-2.89,39.24-4.33,58.87
		c-18.32-9.58-36.63-19.17-54.95-28.75c-0.25,0.71-0.51,1.42-0.76,2.13c18.17,12.79,36.34,25.58,54.51,38.37l0.38-0.62
		c-3.58,48.71-7.16,97.41-10.74,146.12c14.67,0,29.33,0,44,0c-2.71-35.08-5.42-70.16-8.12-105.24
		C1777.25,431.51,1799.63,411.25,1822,391z"/>
</g>
<g>
	<g>
		<path class="st5" d="M350.11,430.96c-3.25,29.82-2.87,31.16-4.99,36.42c-2.16,5.34-7.77,19.22-22.19,26.64
			c-12.39,6.37-24.71,4.58-33.85,3.26c-12.85-1.86-21.82-6.59-27.74-9.78c-10.6-5.71-21.32-11.5-27.19-23.37
			c-2.86-5.79-3.59-11.06-4.99-21.2c-0.9-6.5-1.87-13.51-1.11-21.2c2.03-20.47,15.21-34.4,16.65-35.88
			c15.32-15.75,34.54-18.03,40.5-18.48c19.33-1.45,33.35,6.32,39.39,9.78c7.58,4.34,23.16,13.27,27.19,29.35
			C352.64,409.94,352.29,410.98,350.11,430.96z"/>
		
			<ellipse transform="matrix(0.7959 -0.6055 0.6055 0.7959 -178.8611 229.3634)" class="st5" cx="250.72" cy="379.94" rx="2.1" ry="4.71"/>
		
			<ellipse transform="matrix(0.3055 -0.9522 0.9522 0.3055 -192.6801 502.2102)" class="st5" cx="247.94" cy="383.19" rx="2.07" ry="4.76"/>
		
			<ellipse transform="matrix(0.7959 -0.6055 0.6055 0.7959 -171.0793 237.2182)" class="st5" cx="266.26" cy="372.32" rx="2.1" ry="4.71"/>
		
			<ellipse transform="matrix(0.343 -0.9393 0.9393 0.343 -158.5345 508.1999)" class="st5" cx="284.02" cy="367.43" rx="4.69" ry="2.11"/>
		
			<ellipse transform="matrix(0.4585 -0.8887 0.8887 0.4585 -159.8168 492.1584)" class="st5" cx="323.95" cy="377.22" rx="4.7" ry="2.1"/>
		
			<ellipse transform="matrix(0.9259 -0.3778 0.3778 0.9259 -123.8841 159.8847)" class="st5" cx="345.58" cy="395.7" rx="4.76" ry="2.08"/>
		
			<ellipse transform="matrix(0.7959 -0.6055 0.6055 0.7959 -193.6539 224.6174)" class="st5" cx="236.29" cy="399.5" rx="2.1" ry="4.71"/>
		
			<ellipse transform="matrix(0.3381 -0.9411 0.9411 0.3381 -236.042 490.5487)" class="st5" cx="230.72" cy="413.08" rx="2.08" ry="4.76"/>
		
			<ellipse transform="matrix(0.9027 -0.4302 0.4302 0.9027 -157.059 139.0948)" class="st5" cx="229.06" cy="416.86" rx="4.75" ry="2.08"/>
		
			<ellipse transform="matrix(0.9859 -0.1676 0.1676 0.9859 -71.0059 44.6536)" class="st5" cx="229.03" cy="442.97" rx="4.77" ry="2.07"/>
		
			<ellipse transform="matrix(0.6838 -0.7297 0.7297 0.6838 -268.1753 325.8173)" class="st5" cx="241.83" cy="472.32" rx="4.72" ry="2.09"/>
		
			<ellipse transform="matrix(0.8151 -0.5793 0.5793 0.8151 -233.4974 240.214)" class="st5" cx="259.58" cy="485.91" rx="4.74" ry="2.09"/>
		
			<ellipse transform="matrix(0.9011 -0.4337 0.4337 0.9011 -150.6549 194.0736)" class="st5" cx="350.04" cy="427.24" rx="4.75" ry="2.08"/>
		
			<ellipse transform="matrix(0.0694 -0.9976 0.9976 0.0694 -102.184 752.5085)" class="st5" cx="352.25" cy="431.02" rx="2.07" ry="4.77"/>
		
			<ellipse transform="matrix(0.6887 -0.725 0.725 0.6887 -250.2287 392.2479)" class="st5" cx="331.7" cy="487.54" rx="2.09" ry="4.73"/>
		
			<ellipse transform="matrix(0.9011 -0.4337 0.4337 0.9011 -148.952 183.054)" class="st6" cx="326.74" cy="417.99" rx="4.75" ry="2.08"/>
		
			<ellipse transform="matrix(0.5397 -0.8419 0.8419 0.5397 -247.2381 492.4909)" class="st6" cx="326.73" cy="472.33" rx="4.7" ry="2.1"/>
		
			<ellipse transform="matrix(0.5263 -0.8503 0.8503 0.5263 -200.517 419.4731)" class="st6" cx="276.22" cy="389.7" rx="4.7" ry="2.1"/>
		
			<ellipse transform="matrix(0.7126 -0.7015 0.7015 0.7126 -208.1824 298.3684)" class="st6" cx="260.11" cy="403.3" rx="2.09" ry="4.72"/>
		
			<ellipse transform="matrix(0.962 -0.2731 0.2731 0.962 -105.326 86.9205)" class="st6" cx="259.57" cy="421.8" rx="4.76" ry="2.07"/>
		
			<ellipse transform="matrix(0.5129 -0.8585 0.8585 0.5129 -252.1772 421.971)" class="st6" cx="245.73" cy="433.19" rx="2.08" ry="4.75"/>
		
			<ellipse transform="matrix(0.9011 -0.4337 0.4337 0.9011 -174.3079 159.9748)" class="st6" cx="263.47" cy="462.03" rx="4.75" ry="2.08"/>
	</g>
	<path class="st7" d="M331.8,459.77c-0.18-0.36-0.37-0.72-0.55-1.09c-12.6,6.66-25.2,13.31-37.81,19.97
		c-0.77-9.79-1.54-19.59-2.32-29.38c8.8-6.57,17.6-13.14,26.4-19.71c-0.29-0.29-0.58-0.59-0.87-0.88
		c-8.68,4.75-17.35,9.51-26.03,14.26c-1.07-13.6-2.14-27.19-3.21-40.79c-0.55,0-1.11,0-1.66,0c-0.61,8.11-1.22,16.22-1.83,24.33
		c-5.68-2.86-11.36-5.71-17.04-8.57c-0.18,0.36-0.37,0.72-0.55,1.09c5.64,4.61,11.29,9.22,16.93,13.83l0.21-0.3
		c-0.8,10.67-1.6,21.33-2.4,32c-10.16-5.21-20.33-10.42-30.49-15.63c-0.14,0.39-0.28,0.77-0.42,1.16
		c10.08,6.95,20.16,13.91,30.25,20.86l0.21-0.34c-1.99,26.48-3.97,52.95-5.96,79.43c8.14,0,16.28,0,24.41,0
		c-1.5-19.07-3.01-38.14-4.51-57.21C306.97,481.78,319.39,470.77,331.8,459.77z"/>
</g>
<g>
	
		<ellipse transform="matrix(0.9992 -0.0393 0.0393 0.9992 -39.1131 6.4077)" class="st8" cx="143.42" cy="998.04" rx="5.51" ry="6"/>
	
		<ellipse transform="matrix(0.4567 -0.8896 0.8896 0.4567 -807.0421 676.6063)" class="st8" cx="150.44" cy="999.05" rx="6" ry="5.51"/>
	
		<ellipse transform="matrix(0.9999 -0.0145 0.0145 0.9999 -14.5425 2.3597)" class="st8" cx="155.46" cy="1004.06" rx="6" ry="5.51"/>
	
		<ellipse transform="matrix(0.0468 -0.9989 0.9989 0.0468 -871.3931 1112.9258)" class="st8" cx="147.45" cy="1013.05" rx="6" ry="5.51"/>
	
		<ellipse transform="matrix(0.6275 -0.7786 0.7786 0.6275 -736.3907 484.7767)" class="st8" cx="138.46" cy="1012.02" rx="6" ry="5.51"/>
	
		<ellipse transform="matrix(0.4981 -0.8671 0.8671 0.4981 -798.8861 639.994)" class="st8" cx="153.41" cy="1010.11" rx="5.51" ry="6"/>
	<ellipse transform="matrix(0.604 -0.797 0.797 0.604 -742.149 504.4007)" class="st8" cx="136.49" cy="999.01" rx="5.51" ry="6"/>
	
		<ellipse transform="matrix(0.9979 -0.0648 0.0648 0.9979 -64.8491 10.697)" class="st8" cx="132.48" cy="1005.06" rx="6" ry="5.51"/>
	<ellipse class="st9" cx="144.5" cy="1006" rx="8.5" ry="5"/>
</g>
<g>
	
		<ellipse transform="matrix(0.9992 -0.0393 0.0393 0.9992 -33.1328 10.8126)" class="st8" cx="258.42" cy="848.04" rx="5.51" ry="6"/>
	
		<ellipse transform="matrix(0.4567 -0.8896 0.8896 0.4567 -611.1237 697.4212)" class="st8" cx="265.44" cy="849.05" rx="6" ry="5.51"/>
	
		<ellipse transform="matrix(0.9999 -0.0145 0.0145 0.9999 -12.3554 4.0114)" class="st8" cx="270.46" cy="854.06" rx="6" ry="5.51"/>
	
		<ellipse transform="matrix(0.0468 -0.9989 0.9989 0.0468 -611.942 1084.8212)" class="st8" cx="262.45" cy="863.05" rx="6" ry="5.51"/>
	
		<ellipse transform="matrix(0.6275 -0.7786 0.7786 0.6275 -576.7673 518.4361)" class="st8" cx="253.46" cy="862.02" rx="6" ry="5.51"/>
	
		<ellipse transform="matrix(0.4981 -0.8671 0.8671 0.4981 -611.0942 664.438)" class="st8" cx="268.43" cy="860.11" rx="5.51" ry="6"/>
	<ellipse transform="matrix(0.604 -0.797 0.797 0.604 -577.0652 536.6439)" class="st8" cx="251.48" cy="849.01" rx="5.51" ry="6"/>
	
		<ellipse transform="matrix(0.9979 -0.0648 0.0648 0.9979 -54.8872 17.8335)" class="st8" cx="247.48" cy="855.05" rx="6" ry="5.51"/>
	<ellipse class="st9" cx="259.5" cy="856" rx="8.5" ry="5"/>
</g>
<g>
	
		<ellipse transform="matrix(0.9992 -0.0393 0.0393 0.9992 -31.8492 21.9518)" class="st8" cx="542.41" cy="821.05" rx="5.51" ry="6"/>
	
		<ellipse transform="matrix(0.4567 -0.8896 0.8896 0.4567 -432.8149 935.4033)" class="st8" cx="549.43" cy="822.06" rx="6" ry="5.51"/>
	<ellipse transform="matrix(0.9999 -0.0145 0.0145 0.9999 -11.934 8.1266)" class="st8" cx="554.46" cy="827.06" rx="6" ry="5.51"/>
	
		<ellipse transform="matrix(0.0468 -0.9989 0.9989 0.0468 -314.2671 1342.772)" class="st8" cx="546.44" cy="836.05" rx="6" ry="5.51"/>
	
		<ellipse transform="matrix(0.6275 -0.7786 0.7786 0.6275 -449.9602 729.4965)" class="st8" cx="537.44" cy="835.02" rx="6" ry="5.51"/>
	
		<ellipse transform="matrix(0.4981 -0.8671 0.8671 0.4981 -445.1481 897.1652)" class="st8" cx="552.44" cy="833.12" rx="5.51" ry="6"/>
	<ellipse transform="matrix(0.604 -0.797 0.797 0.604 -443.0757 752.2811)" class="st8" cx="535.47" cy="822" rx="5.51" ry="6"/>
	
		<ellipse transform="matrix(0.9979 -0.0648 0.0648 0.9979 -52.5402 36.1798)" class="st8" cx="531.47" cy="828.04" rx="6" ry="5.51"/>
	<ellipse class="st9" cx="543.5" cy="829" rx="8.5" ry="5"/>
</g>
<g>
	
		<ellipse transform="matrix(0.9992 -0.0393 0.0393 0.9992 -38.2512 24.2792)" class="st8" cx="598.41" cy="985.05" rx="5.51" ry="6"/>
	
		<ellipse transform="matrix(0.4567 -0.8896 0.8896 0.4567 -548.2884 1074.3182)" class="st8" cx="605.43" cy="986.06" rx="6" ry="5.51"/>
	
		<ellipse transform="matrix(0.9999 -0.0145 0.0145 0.9999 -14.3061 8.9558)" class="st8" cx="610.46" cy="991.06" rx="6" ry="5.51"/>
	
		<ellipse transform="matrix(0.0468 -0.9989 0.9989 0.0468 -424.7077 1555.0327)" class="st8" cx="602.44" cy="1000.05" rx="6" ry="5.51"/>
	
		<ellipse transform="matrix(0.6275 -0.7786 0.7786 0.6275 -556.7866 834.1848)" class="st8" cx="593.44" cy="999.01" rx="6" ry="5.51"/>
	
		<ellipse transform="matrix(0.4981 -0.8671 0.8671 0.4981 -559.2598 1028.0344)" class="st8" cx="608.43" cy="997.13" rx="5.51" ry="6"/>
	<ellipse transform="matrix(0.604 -0.797 0.797 0.604 -551.5956 861.8583)" class="st8" cx="591.47" cy="985.99" rx="5.51" ry="6"/>
	
		<ellipse transform="matrix(0.9979 -0.0648 0.0648 0.9979 -63.0495 40.1536)" class="st8" cx="587.48" cy="992.04" rx="6" ry="5.51"/>
	<ellipse class="st9" cx="599.5" cy="993" rx="8.5" ry="5"/>
</g>
<g>
	
		<ellipse transform="matrix(0.9992 -0.0393 0.0393 0.9992 -35.9982 16.883)" class="st8" cx="411.42" cy="924.05" rx="5.51" ry="6"/>
	
		<ellipse transform="matrix(0.4567 -0.8896 0.8896 0.4567 -595.6137 874.8208)" class="st8" cx="418.43" cy="925.06" rx="6" ry="5.51"/>
	
		<ellipse transform="matrix(0.9999 -0.0145 0.0145 0.9999 -13.4413 6.2379)" class="st8" cx="423.46" cy="930.06" rx="6" ry="5.51"/>
	
		<ellipse transform="matrix(0.0468 -0.9989 0.9989 0.0468 -542.0209 1310.0946)" class="st8" cx="415.45" cy="939.05" rx="6" ry="5.51"/>
	
		<ellipse transform="matrix(0.6275 -0.7786 0.7786 0.6275 -578.9493 665.8699)" class="st8" cx="406.45" cy="938.02" rx="6" ry="5.51"/>
	
		<ellipse transform="matrix(0.4981 -0.8671 0.8671 0.4981 -600.2127 835.2583)" class="st8" cx="421.43" cy="936.12" rx="5.51" ry="6"/>
	<ellipse transform="matrix(0.604 -0.797 0.797 0.604 -577.04 688.6734)" class="st8" cx="404.48" cy="925" rx="5.51" ry="6"/>
	
		<ellipse transform="matrix(0.9979 -0.0648 0.0648 0.9979 -59.4901 27.9077)" class="st8" cx="400.48" cy="931.05" rx="6" ry="5.51"/>
	<ellipse class="st9" cx="412.5" cy="932" rx="8.5" ry="5"/>
</g>
<g>
	
		<ellipse transform="matrix(0.9992 -0.0393 0.0393 0.9992 -31.1253 34.7937)" class="st8" cx="869.41" cy="809.06" rx="5.51" ry="6"/>
	
		<ellipse transform="matrix(0.4567 -0.8896 0.8896 0.4567 -244.4895 1219.7878)" class="st8" cx="876.43" cy="810.06" rx="6" ry="5.51"/>
	
		<ellipse transform="matrix(0.9999 -0.0145 0.0145 0.9999 -11.7256 12.8668)" class="st8" cx="881.46" cy="815.06" rx="6" ry="5.51"/>
	
		<ellipse transform="matrix(0.0468 -0.9989 0.9989 0.0468 9.4115 1657.9731)" class="st8" cx="873.44" cy="824.06" rx="6" ry="5.51"/>
	
		<ellipse transform="matrix(0.6275 -0.7786 0.7786 0.6275 -318.8133 979.6197)" class="st8" cx="864.43" cy="823.01" rx="6" ry="5.51"/>
	
		<ellipse transform="matrix(0.4981 -0.8671 0.8671 0.4981 -270.6289 1174.709)" class="st8" cx="879.45" cy="821.14" rx="5.51" ry="6"/>
	<ellipse transform="matrix(0.604 -0.797 0.797 0.604 -304.011 1008.127)" class="st8" cx="862.45" cy="809.98" rx="5.51" ry="6"/>
	
		<ellipse transform="matrix(0.9979 -0.0648 0.0648 0.9979 -51.0747 57.3441)" class="st8" cx="858.47" cy="816.03" rx="6" ry="5.51"/>
	<ellipse class="st9" cx="870.5" cy="817" rx="8.5" ry="5"/>
</g>
<g>
	
		<ellipse transform="matrix(0.9992 -0.0393 0.0393 0.9992 -37.7499 39.7988)" class="st8" cx="993.4" cy="980.06" rx="5.51" ry="6"/>
	
		<ellipse transform="matrix(0.4567 -0.8896 0.8896 0.4567 -329.2478 1422.9995)" class="st8" cx="1000.43" cy="981.06" rx="6" ry="5.51"/>
	
		<ellipse transform="matrix(0.9999 -0.0145 0.0145 0.9999 -14.192 14.6828)" class="st8" cx="1005.46" cy="986.06" rx="6" ry="5.51"/>
	
		<ellipse transform="matrix(0.0468 -0.9989 0.9989 0.0468 -43.2048 1944.8313)" class="st8" cx="997.44" cy="995.05" rx="6" ry="5.51"/>
	
		<ellipse transform="matrix(0.6275 -0.7786 0.7786 0.6275 -405.7604 1139.8584)" class="st8" cx="988.43" cy="994" rx="6" ry="5.51"/>
	
		<ellipse transform="matrix(0.4981 -0.8671 0.8671 0.4981 -356.6835 1368.0593)" class="st8" cx="1003.45" cy="992.15" rx="5.51" ry="6"/>
	
		<ellipse transform="matrix(0.604 -0.797 0.797 0.604 -391.1795 1174.6681)" class="st8" cx="986.46" cy="980.97" rx="5.51" ry="6"/>
	
		<ellipse transform="matrix(0.9979 -0.0648 0.0648 0.9979 -61.8946 65.739)" class="st8" cx="982.48" cy="987.03" rx="6" ry="5.51"/>
	<ellipse class="st9" cx="994.5" cy="988" rx="8.5" ry="5"/>
</g>
<g>
	
		<ellipse transform="matrix(0.9992 -0.0393 0.0393 0.9992 -31.6036 42.4695)" class="st8" cx="1064.4" cy="825.07" rx="5.51" ry="6"/>
	
		<ellipse transform="matrix(0.4567 -0.8896 0.8896 0.4567 -152.7853 1401.955)" class="st8" cx="1071.43" cy="826.07" rx="6" ry="5.51"/>
	
		<ellipse transform="matrix(0.9999 -0.0145 0.0145 0.9999 -11.9371 15.696)" class="st8" cx="1076.46" cy="831.06" rx="6" ry="5.51"/>
	
		<ellipse transform="matrix(0.0468 -0.9989 0.9989 0.0468 179.3004 1868.0092)" class="st8" cx="1068.44" cy="840.06" rx="6" ry="5.51"/>
	
		<ellipse transform="matrix(0.6275 -0.7786 0.7786 0.6275 -258.6351 1137.4011)" class="st8" cx="1059.42" cy="839.01" rx="6" ry="5.51"/>
	
		<ellipse transform="matrix(0.4981 -0.8671 0.8671 0.4981 -186.6382 1351.8381)" class="st8" cx="1074.46" cy="837.15" rx="5.51" ry="6"/>
	
		<ellipse transform="matrix(0.604 -0.797 0.797 0.604 -239.5363 1169.866)" class="st8" cx="1057.45" cy="825.97" rx="5.51" ry="6"/>
	
		<ellipse transform="matrix(0.9979 -0.0648 0.0648 0.9979 -51.7013 70.0137)" class="st8" cx="1053.47" cy="832.03" rx="6" ry="5.51"/>
	<ellipse class="st9" cx="1065.5" cy="833" rx="8.5" ry="5"/>
</g>
<g>
	
		<ellipse transform="matrix(0.9992 -0.0393 0.0393 0.9992 -36.257 49.7556)" class="st8" cx="1247.39" cy="947.07" rx="5.51" ry="6"/>
	
		<ellipse transform="matrix(0.4567 -0.8896 0.8896 0.4567 -161.8995 1631.0334)" class="st8" cx="1254.42" cy="948.07" rx="6" ry="5.51"/>
	
		<ellipse transform="matrix(0.9999 -0.0145 0.0145 0.9999 -13.6868 18.3623)" class="st8" cx="1259.46" cy="953.05" rx="6" ry="5.51"/>
	
		<ellipse transform="matrix(0.0468 -0.9989 0.9989 0.0468 231.8679 2167.0962)" class="st8" cx="1251.44" cy="962.06" rx="6" ry="5.51"/>
	
		<ellipse transform="matrix(0.6275 -0.7786 0.7786 0.6275 -285.4553 1325.3235)" class="st8" cx="1242.42" cy="961" rx="6" ry="5.51"/>
	
		<ellipse transform="matrix(0.4981 -0.8671 0.8671 0.4981 -200.5905 1571.7599)" class="st8" cx="1257.46" cy="959.16" rx="5.51" ry="6"/>
	
		<ellipse transform="matrix(0.604 -0.797 0.797 0.604 -264.2893 1364.0209)" class="st8" cx="1240.44" cy="947.96" rx="5.51" ry="6"/>
	
		<ellipse transform="matrix(0.9979 -0.0648 0.0648 0.9979 -59.2219 82.1287)" class="st8" cx="1236.48" cy="954.02" rx="6" ry="5.51"/>
	<ellipse class="st9" cx="1248.5" cy="955" rx="8.5" ry="5"/>
</g>
<g>
	
		<ellipse transform="matrix(0.9992 -0.0393 0.0393 0.9992 -30.0288 62.6073)" class="st8" cx="1577.39" cy="795.08" rx="5.51" ry="6"/>
	
		<ellipse transform="matrix(0.4567 -0.8896 0.8896 0.4567 152.6016 1842.0288)" class="st8" cx="1584.42" cy="796.08" rx="6" ry="5.51"/>
	
		<ellipse transform="matrix(0.9999 -0.0145 0.0145 0.9999 -11.4481 23.1313)" class="st8" cx="1589.46" cy="801.05" rx="6" ry="5.51"/>
	
		<ellipse transform="matrix(0.0468 -0.9989 0.9989 0.0468 698.2516 2351.8479)" class="st8" cx="1581.43" cy="810.06" rx="6" ry="5.51"/>
	<ellipse transform="matrix(0.6275 -0.7786 0.7786 0.6275 -44.1908 1525.634)" class="st8" cx="1572.4" cy="809" rx="6" ry="5.51"/>
	
		<ellipse transform="matrix(0.4981 -0.8671 0.8671 0.4981 96.8388 1781.6428)" class="st8" cx="1587.49" cy="807.17" rx="5.51" ry="6"/>
	
		<ellipse transform="matrix(0.604 -0.797 0.797 0.604 -12.4654 1566.8135)" class="st8" cx="1570.42" cy="795.95" rx="5.51" ry="6"/>
	
		<ellipse transform="matrix(0.9979 -0.0648 0.0648 0.9979 -48.6781 103.1929)" class="st8" cx="1566.47" cy="802.01" rx="6" ry="5.51"/>
	<ellipse class="st9" cx="1578.5" cy="803" rx="8.5" ry="5"/>
</g>
<g>
	
		<ellipse transform="matrix(0.9992 -0.0393 0.0393 0.9992 -34.9036 30.5825)" class="st8" cx="760.41" cy="903.06" rx="5.51" ry="6"/>
	
		<ellipse transform="matrix(0.4567 -0.8896 0.8896 0.4567 -387.3299 1173.8875)" class="st8" cx="767.43" cy="904.06" rx="6" ry="5.51"/>
	
		<ellipse transform="matrix(0.9999 -0.0145 0.0145 0.9999 -13.1001 11.2962)" class="st8" cx="772.46" cy="909.06" rx="6" ry="5.51"/>
	
		<ellipse transform="matrix(0.0468 -0.9989 0.9989 0.0468 -188.382 1638.6927)" class="st8" cx="764.44" cy="918.05" rx="6" ry="5.51"/>
	
		<ellipse transform="matrix(0.6275 -0.7786 0.7786 0.6275 -432.6004 929.7693)" class="st8" cx="755.44" cy="917.01" rx="6" ry="5.51"/>
	
		<ellipse transform="matrix(0.4981 -0.8671 0.8671 0.4981 -406.8477 1127.3632)" class="st8" cx="770.45" cy="915.14" rx="5.51" ry="6"/>
	<ellipse transform="matrix(0.604 -0.797 0.797 0.604 -422.0901 958.4876)" class="st8" cx="753.46" cy="903.99" rx="5.51" ry="6"/>
	
		<ellipse transform="matrix(0.9979 -0.0648 0.0648 0.9979 -57.3952 50.4787)" class="st8" cx="749.48" cy="910.04" rx="6" ry="5.51"/>
	<ellipse class="st9" cx="761.5" cy="911" rx="8.5" ry="5"/>
</g>
<g>
	
		<ellipse transform="matrix(0.9992 -0.0393 0.0393 0.9992 -30.5053 52.3554)" class="st8" cx="1316.39" cy="802.07" rx="5.51" ry="6"/>
	
		<ellipse transform="matrix(0.4567 -0.8896 0.8896 0.4567 4.5803 1613.6425)" class="st8" cx="1323.43" cy="803.07" rx="6" ry="5.51"/>
	
		<ellipse transform="matrix(0.9999 -0.0145 0.0145 0.9999 -11.5771 19.3476)" class="st8" cx="1328.46" cy="808.05" rx="6" ry="5.51"/>
	
		<ellipse transform="matrix(0.0468 -0.9989 0.9989 0.0468 442.4778 2097.8081)" class="st8" cx="1320.44" cy="817.06" rx="6" ry="5.51"/>
	
		<ellipse transform="matrix(0.6275 -0.7786 0.7786 0.6275 -146.8606 1325.0341)" class="st8" cx="1311.41" cy="816.01" rx="6" ry="5.51"/>
	
		<ellipse transform="matrix(0.4981 -0.8671 0.8671 0.4981 -40.2208 1558.8232)" class="st8" cx="1326.47" cy="814.16" rx="5.51" ry="6"/>
	
		<ellipse transform="matrix(0.604 -0.797 0.797 0.604 -121.4075 1361.5853)" class="st8" cx="1309.43" cy="802.96" rx="5.51" ry="6"/>
	
		<ellipse transform="matrix(0.9979 -0.0648 0.0648 0.9979 -49.6808 86.2949)" class="st8" cx="1305.47" cy="809.02" rx="6" ry="5.51"/>
	<ellipse class="st9" cx="1317.5" cy="810" rx="8.5" ry="5"/>
</g>
<g>
	
		<ellipse transform="matrix(0.9992 -0.0393 0.0393 0.9992 -36.6997 67.2595)" class="st8" cx="1692.38" cy="967.08" rx="5.51" ry="6"/>
	
		<ellipse transform="matrix(0.4567 -0.8896 0.8896 0.4567 62.0642 2037.7772)" class="st8" cx="1699.42" cy="968.07" rx="6" ry="5.51"/>
	
		<ellipse transform="matrix(0.9999 -0.0145 0.0145 0.9999 -13.93 24.8169)" class="st8" cx="1704.47" cy="973.05" rx="6" ry="5.51"/>
	
		<ellipse transform="matrix(0.0468 -0.9989 0.9989 0.0468 636.0578 2630.6692)" class="st8" cx="1696.43" cy="982.06" rx="6" ry="5.51"/>
	
		<ellipse transform="matrix(0.6275 -0.7786 0.7786 0.6275 -135.269 1679.2379)" class="st8" cx="1687.4" cy="980.99" rx="6" ry="5.51"/>
	
		<ellipse transform="matrix(0.4981 -0.8671 0.8671 0.4981 5.4002 1967.6906)" class="st8" cx="1702.48" cy="979.18" rx="5.51" ry="6"/>
	
		<ellipse transform="matrix(0.604 -0.797 0.797 0.604 -103.995 1726.5781)" class="st8" cx="1685.43" cy="967.94" rx="5.51" ry="6"/>
	
		<ellipse transform="matrix(0.9979 -0.0648 0.0648 0.9979 -59.5818 111.0067)" class="st8" cx="1681.48" cy="974.01" rx="6" ry="5.51"/>
	<ellipse class="st9" cx="1693.5" cy="975" rx="8.5" ry="5"/>
</g>
<polygon class="st10" points="764.47,713.72 764,712.9 764,709 761.75,709 748.5,686.05 738,704.24 727.5,686.05 718.5,701.64 
	709.5,686.05 698,705.97 686.5,686.05 674.5,706.84 662.5,686.05 649.25,709 647,709 647,712.9 646.53,713.72 647,713.72 647,728 
	764,728 764,713.72 "/>
<polygon class="st10" points="705.47,713.72 705,712.9 705,709 702.75,709 689.5,686.05 679,704.24 668.5,686.05 659.5,701.64 
	650.5,686.05 639,705.97 627.5,686.05 615.5,706.84 603.5,686.05 590.25,709 588,709 588,712.9 587.53,713.72 588,713.72 588,728 
	705,728 705,713.72 "/>
<polygon class="st10" points="623.47,713.72 623,712.9 623,709 620.75,709 607.5,686.05 597,704.24 586.5,686.05 577.5,701.64 
	568.5,686.05 557,705.97 545.5,686.05 533.5,706.84 521.5,686.05 508.25,709 506,709 506,712.9 505.53,713.72 506,713.72 506,728 
	623,728 623,713.72 "/>
<polygon class="st10" points="869.47,710.72 869,709.9 869,706 866.75,706 853.5,683.05 843,701.24 832.5,683.05 823.5,698.64 
	814.5,683.05 803,702.97 791.5,683.05 779.5,703.84 767.5,683.05 754.25,706 752,706 752,709.9 751.53,710.72 752,710.72 752,725 
	869,725 869,710.72 "/>
<polygon class="st10" points="973.47,710.72 973,709.9 973,706 970.75,706 957.5,683.05 947,701.24 936.5,683.05 927.5,698.64 
	918.5,683.05 907,702.97 895.5,683.05 883.5,703.84 871.5,683.05 858.25,706 856,706 856,709.9 855.53,710.72 856,710.72 856,725 
	973,725 973,710.72 "/>
<polygon class="st10" points="1069.47,713.72 1069,712.9 1069,709 1066.75,709 1053.5,686.05 1043,704.24 1032.5,686.05 
	1023.5,701.64 1014.5,686.05 1003,705.97 991.5,686.05 979.5,706.84 967.5,686.05 954.25,709 952,709 952,712.9 951.53,713.72 
	952,713.72 952,728 1069,728 1069,713.72 "/>
<polygon class="st10" points="1155.47,713.72 1155,712.9 1155,709 1152.75,709 1139.5,686.05 1129,704.24 1118.5,686.05 
	1109.5,701.64 1100.5,686.05 1089,705.97 1077.5,686.05 1065.5,706.84 1053.5,686.05 1040.25,709 1038,709 1038,712.9 
	1037.53,713.72 1038,713.72 1038,728 1155,728 1155,713.72 "/>
<polygon class="st10" points="1252.47,715.72 1252,714.9 1252,711 1249.75,711 1236.5,688.05 1226,706.24 1215.5,688.05 
	1206.5,703.64 1197.5,688.05 1186,707.97 1174.5,688.05 1162.5,708.84 1150.5,688.05 1137.25,711 1135,711 1135,714.9 
	1134.53,715.72 1135,715.72 1135,730 1252,730 1252,715.72 "/>
<polygon class="st10" points="1351.47,716.72 1351,715.9 1351,712 1348.75,712 1335.5,689.05 1325,707.24 1314.5,689.05 
	1305.5,704.64 1296.5,689.05 1285,708.97 1273.5,689.05 1261.5,709.84 1249.5,689.05 1236.25,712 1234,712 1234,715.9 
	1233.53,716.72 1234,716.72 1234,731 1351,731 1351,716.72 "/>
<g>
	<path class="st11" d="M500.85,650.63c-8.21,2.9-10.14,3.92-11.91,5.17c-3.32,2.35-5.53,5.1-6.96,7.3v-49.13h-6.09v65.36
		c-1.34-2.33-3.75-5.84-7.83-8.71c-1.78-1.26-3.71-2.27-11.91-5.17c-7.09-2.5-10.63-3.75-32.15-1.91
		c5.59,9.15,11.85,15.1,16.13,18.59c6.07,4.96,13.5,11.04,24.45,12.02c4.76,0.42,8.73-0.25,11.31-0.87V729h6.09v-50.35
		c2.56,0.56,6.18,1.05,10.44,0.67c10.95-0.98,18.38-7.06,24.45-12.01c4.28-3.5,10.54-9.44,16.13-18.59
		C511.49,646.87,507.94,648.12,500.85,650.63z"/>
	<path class="st12" d="M469.17,613.88l11.44,4.18c-0.6,3.43-1.96,8.88-5.37,14.73c-3.75,6.45-8.27,10.48-11.09,12.64l0,0
		c-0.95-3.06-2.57-9.72-0.85-17.99C464.63,621.06,467.39,616.43,469.17,613.88z"/>
	<path class="st12" d="M461.18,606.02l6.47,10.34c-2.58,2.34-6.99,5.8-13.27,8.33c-6.91,2.78-12.95,3.19-16.5,3.16l0,0
		c1.12-3,3.93-9.26,10.35-14.73C453.2,608.9,458.21,606.94,461.18,606.02z"/>
	<path class="st12" d="M458.36,589.69l0.88,12.17c-3.37,0.86-8.89,1.85-15.62,1.14c-7.4-0.78-12.94-3.26-16.06-4.95l0,0
		c2.39-2.12,7.8-6.34,16.03-8.16C449.97,588.48,455.32,589.1,458.36,589.69z"/>
	<path class="st12" d="M467.74,580.05l-7.58,9.55c-3.06-1.66-7.79-4.67-12.25-9.76c-4.92-5.6-7.31-11.18-8.46-14.54l0,0
		c3.19,0.06,10.02,0.63,17.31,4.88C462.38,573.47,465.89,577.55,467.74,580.05z"/>
	<path class="st12" d="M480.33,576.92l-11.36,4.39c-1.8-2.98-4.35-7.98-5.64-14.63c-1.41-7.32-0.66-13.35,0.04-16.83l0,0
		c2.72,1.67,8.32,5.62,12.46,12.98C479.03,568.53,479.99,573.83,480.33,576.92z"/>
	<path class="st12" d="M491.23,581.08l-11.67-3.49c0.39-3.46,1.43-8.98,4.48-15.03c3.36-6.66,7.64-10.96,10.32-13.28l0,0
		c1.13,2.99,3.15,9.55,1.92,17.91C495.33,573.65,492.85,578.44,491.23,581.08z"/>
	<path class="st12" d="M500.09,590.56l-7.2-9.84c2.4-2.52,6.55-6.3,12.62-9.28c6.69-3.28,12.69-4.13,16.22-4.36l0,0
		c-0.9,3.07-3.24,9.52-9.25,15.45C507.84,587.11,502.98,589.43,500.09,590.56z"/>
	<path class="st12" d="M499.47,602.62l0.54-12.19c3.45-0.46,9.04-0.79,15.64,0.7c7.26,1.64,12.47,4.75,15.37,6.79l0,0
		c-2.62,1.83-8.48,5.38-16.87,6.22C507.66,604.8,502.43,603.56,499.47,602.62z"/>
	<path class="st12" d="M494.03,611.59l8.53-8.71c2.87,1.96,7.26,5.46,11.18,10.98c4.31,6.08,6.11,11.88,6.91,15.34l0,0
		c-3.17-0.39-9.9-1.67-16.71-6.65C498.68,618.7,495.61,614.27,494.03,611.59z"/>
	<path class="st12" d="M480.76,617.41l11.61-3.67c1.61,3.09,3.84,8.24,4.71,14.96c0.95,7.4-0.18,13.36-1.1,16.79l0,0
		c-2.61-1.84-7.95-6.14-11.62-13.74C481.53,625.87,480.9,620.51,480.76,617.41z"/>
	<g>
		<path class="st13" d="M486.33,577.37h-12.18c-0.61-3.43-1.19-9.01,0-15.69c1.31-7.34,4.18-12.69,6.09-15.69l0,0
			c1.94,2.54,5.74,8.25,6.96,16.61C488.14,569.07,487.13,574.37,486.33,577.37z"/>
		<path class="st13" d="M497.78,585.65l-9.86-7.16c1.51-3.14,4.31-8,9.19-12.7c5.36-5.17,10.82-7.81,14.12-9.12l0,0
			c0.08,3.2-0.18,10.06-4.09,17.54C504.11,579.99,500.19,583.69,497.78,585.65z"/>
		<path class="st13" d="M500.88,598.46l-3.22-11.77c3.14-1.5,8.36-3.54,15.1-4.15c7.42-0.67,13.32,0.69,16.71,1.74l0,0
			c-1.94,2.55-6.42,7.73-14.15,11.11C509.34,598.02,503.98,598.44,500.88,598.46z"/>
		<path class="st13" d="M496.02,610.43l3.67-11.63c3.45,0.45,8.94,1.58,14.93,4.73c6.59,3.47,10.81,7.83,13.09,10.55l0,0
			c-3.01,1.08-9.58,3-17.9,1.64C503.37,614.67,498.64,612.1,496.02,610.43z"/>
		<path class="st13" d="M486.35,616.29l10.24-6.6c2.37,2.55,5.87,6.93,8.47,13.19c2.86,6.89,3.33,12.94,3.35,16.49l0,0
			c-3-1.09-9.28-3.83-14.82-10.2C489.31,624.25,487.3,619.25,486.35,616.29z"/>
		<path class="st13" d="M474.13,616.59l12.18,0.19c0.56,3.44,1.06,9.03-0.24,15.68c-1.43,7.32-4.38,12.62-6.33,15.59l0,0
			c-1.9-2.57-5.62-8.34-6.7-16.71C472.2,624.86,473.29,619.58,474.13,616.59z"/>
		<path class="st13" d="M463.76,610.27l9.65,7.44c-1.6,3.09-4.54,7.88-9.54,12.44c-5.51,5.02-11.04,7.5-14.37,8.72l0,0
			c0.01-3.2,0.47-10.05,4.59-17.42C457.28,615.75,461.3,612.17,463.76,610.27z"/>
		<path class="st13" d="M459.23,598.04l3.35,11.73c-3.12,1.53-8.32,3.63-15.05,4.32c-7.41,0.76-13.33-0.53-16.73-1.54l0,0
			c1.91-2.57,6.33-7.8,14.02-11.28C450.77,598.58,456.13,598.1,459.23,598.04z"/>
		<path class="st13" d="M462.48,584.6l-4.35,11.4c-3.42-0.65-8.83-2.11-14.62-5.61c-6.37-3.86-10.33-8.45-12.44-11.31l0,0
			c3.06-0.9,9.74-2.42,17.97-0.57C455.39,579.94,459.97,582.78,462.48,584.6z"/>
		<path class="st13" d="M473.12,577.4l-9.53,7.59c-2.61-2.3-6.53-6.31-9.74-12.28c-3.53-6.57-4.6-12.54-4.97-16.08l0,0
			c3.1,0.78,9.62,2.88,15.76,8.67C469.38,569.78,471.88,574.55,473.12,577.4z"/>
	</g>
	<ellipse class="st14" cx="480.24" cy="597.41" rx="21.75" ry="21.79"/>
</g>
<g>
	<path class="st11" d="M1372.85,637.63c-8.21,2.9-10.14,3.92-11.91,5.17c-3.32,2.35-5.53,5.1-6.96,7.3v-49.13h-6.09v65.36
		c-1.34-2.33-3.75-5.84-7.83-8.71c-1.78-1.26-3.71-2.27-11.91-5.17c-7.09-2.5-10.63-3.75-32.15-1.91
		c5.59,9.15,11.85,15.1,16.13,18.59c6.07,4.96,13.5,11.04,24.45,12.02c4.76,0.42,8.73-0.25,11.31-0.87V716h6.09v-50.35
		c2.56,0.56,6.18,1.05,10.44,0.67c10.95-0.98,18.38-7.06,24.45-12.01c4.28-3.5,10.54-9.44,16.13-18.59
		C1383.49,633.87,1379.94,635.12,1372.85,637.63z"/>
	<path class="st12" d="M1341.17,600.88l11.44,4.18c-0.6,3.43-1.96,8.88-5.37,14.73c-3.75,6.45-8.27,10.48-11.09,12.64l0,0
		c-0.95-3.06-2.57-9.72-0.85-17.99C1336.63,608.06,1339.39,603.43,1341.17,600.88z"/>
	<path class="st12" d="M1333.18,593.02l6.47,10.34c-2.58,2.34-6.99,5.8-13.27,8.33c-6.91,2.78-12.95,3.19-16.5,3.16l0,0
		c1.12-3,3.93-9.26,10.35-14.73C1325.2,595.9,1330.21,593.94,1333.18,593.02z"/>
	<path class="st12" d="M1330.36,576.69l0.88,12.17c-3.37,0.86-8.89,1.85-15.62,1.14c-7.4-0.78-12.94-3.26-16.06-4.95l0,0
		c2.39-2.12,7.8-6.34,16.03-8.16C1321.97,575.48,1327.32,576.1,1330.36,576.69z"/>
	<path class="st12" d="M1339.74,567.05l-7.58,9.55c-3.06-1.66-7.79-4.67-12.25-9.76c-4.92-5.6-7.31-11.18-8.46-14.54l0,0
		c3.19,0.06,10.02,0.63,17.31,4.88C1334.38,560.47,1337.89,564.55,1339.74,567.05z"/>
	<path class="st12" d="M1352.33,563.92l-11.36,4.39c-1.8-2.98-4.35-7.98-5.64-14.63c-1.41-7.32-0.66-13.35,0.04-16.83l0,0
		c2.72,1.67,8.32,5.62,12.46,12.98C1351.03,555.53,1351.99,560.83,1352.33,563.92z"/>
	<path class="st12" d="M1363.23,568.08l-11.67-3.49c0.39-3.46,1.43-8.98,4.48-15.03c3.36-6.66,7.64-10.96,10.32-13.28l0,0
		c1.13,2.99,3.15,9.55,1.92,17.91C1367.33,560.65,1364.85,565.44,1363.23,568.08z"/>
	<path class="st12" d="M1372.09,577.56l-7.2-9.84c2.4-2.52,6.55-6.3,12.62-9.28c6.69-3.28,12.69-4.13,16.22-4.36l0,0
		c-0.9,3.07-3.24,9.52-9.25,15.45C1379.84,574.11,1374.98,576.43,1372.09,577.56z"/>
	<path class="st12" d="M1371.47,589.62l0.54-12.19c3.45-0.46,9.04-0.79,15.64,0.7c7.26,1.64,12.47,4.75,15.37,6.79l0,0
		c-2.62,1.83-8.48,5.38-16.87,6.22C1379.66,591.8,1374.43,590.56,1371.47,589.62z"/>
	<path class="st12" d="M1366.03,598.59l8.53-8.71c2.87,1.96,7.26,5.46,11.18,10.98c4.31,6.08,6.11,11.88,6.91,15.34l0,0
		c-3.17-0.39-9.9-1.67-16.71-6.65C1370.68,605.7,1367.61,601.27,1366.03,598.59z"/>
	<path class="st12" d="M1352.76,604.41l11.61-3.67c1.61,3.09,3.84,8.24,4.71,14.96c0.95,7.4-0.18,13.36-1.1,16.79l0,0
		c-2.61-1.84-7.95-6.14-11.62-13.74C1353.53,612.87,1352.9,607.51,1352.76,604.41z"/>
	<g>
		<path class="st13" d="M1358.33,564.37h-12.18c-0.61-3.43-1.19-9.01,0-15.69c1.31-7.34,4.18-12.69,6.09-15.69l0,0
			c1.94,2.54,5.74,8.25,6.96,16.61C1360.14,556.07,1359.13,561.37,1358.33,564.37z"/>
		<path class="st13" d="M1369.78,572.65l-9.86-7.16c1.51-3.14,4.31-8,9.19-12.7c5.36-5.17,10.82-7.81,14.12-9.12l0,0
			c0.08,3.2-0.18,10.06-4.09,17.54C1376.11,566.99,1372.19,570.69,1369.78,572.65z"/>
		<path class="st13" d="M1372.88,585.46l-3.22-11.77c3.14-1.5,8.36-3.54,15.1-4.15c7.42-0.67,13.32,0.69,16.71,1.74l0,0
			c-1.94,2.55-6.42,7.73-14.15,11.11C1381.34,585.02,1375.98,585.44,1372.88,585.46z"/>
		<path class="st13" d="M1368.02,597.43l3.67-11.63c3.45,0.45,8.94,1.58,14.93,4.73c6.59,3.47,10.81,7.83,13.09,10.55l0,0
			c-3.01,1.08-9.58,3-17.9,1.64C1375.37,601.67,1370.64,599.1,1368.02,597.43z"/>
		<path class="st13" d="M1358.35,603.29l10.24-6.6c2.37,2.55,5.87,6.93,8.47,13.19c2.86,6.89,3.33,12.94,3.35,16.49l0,0
			c-3-1.09-9.28-3.83-14.82-10.2C1361.31,611.25,1359.3,606.25,1358.35,603.29z"/>
		<path class="st13" d="M1346.13,603.59l12.18,0.19c0.56,3.44,1.06,9.03-0.24,15.68c-1.43,7.32-4.38,12.62-6.33,15.59l0,0
			c-1.9-2.57-5.62-8.34-6.7-16.71C1344.2,611.86,1345.29,606.58,1346.13,603.59z"/>
		<path class="st13" d="M1335.76,597.27l9.65,7.44c-1.6,3.09-4.54,7.88-9.54,12.44c-5.51,5.02-11.04,7.5-14.37,8.72l0,0
			c0.01-3.2,0.47-10.05,4.59-17.42C1329.28,602.75,1333.3,599.17,1335.76,597.27z"/>
		<path class="st13" d="M1331.23,585.04l3.35,11.73c-3.12,1.53-8.32,3.63-15.05,4.32c-7.41,0.76-13.33-0.53-16.73-1.54l0,0
			c1.91-2.57,6.33-7.8,14.02-11.28C1322.77,585.58,1328.13,585.1,1331.23,585.04z"/>
		<path class="st13" d="M1334.48,571.6l-4.35,11.39c-3.42-0.65-8.83-2.11-14.62-5.61c-6.37-3.86-10.33-8.45-12.44-11.31l0,0
			c3.06-0.9,9.74-2.42,17.97-0.57C1327.39,566.94,1331.97,569.78,1334.48,571.6z"/>
		<path class="st13" d="M1345.12,564.4l-9.53,7.59c-2.61-2.3-6.53-6.31-9.74-12.28c-3.53-6.57-4.6-12.54-4.97-16.08l0,0
			c3.1,0.78,9.62,2.88,15.76,8.67C1341.38,556.78,1343.88,561.55,1345.12,564.4z"/>
	</g>
	<ellipse class="st14" cx="1352.24" cy="584.41" rx="21.75" ry="21.79"/>
</g>
<g>
	<path class="st11" d="M1635.85,640.63c-8.21,2.9-10.14,3.92-11.91,5.17c-3.32,2.35-5.53,5.1-6.96,7.3v-49.13h-6.09v65.36
		c-1.34-2.33-3.75-5.84-7.83-8.71c-1.78-1.26-3.71-2.27-11.91-5.17c-7.09-2.5-10.63-3.75-32.15-1.91
		c5.59,9.15,11.85,15.1,16.13,18.59c6.07,4.96,13.5,11.04,24.45,12.02c4.76,0.42,8.73-0.25,11.31-0.87V719h6.09v-50.35
		c2.56,0.56,6.18,1.05,10.44,0.67c10.95-0.98,18.38-7.06,24.45-12.01c4.28-3.5,10.54-9.44,16.13-18.59
		C1646.49,636.87,1642.94,638.12,1635.85,640.63z"/>
	<path class="st12" d="M1604.17,603.88l11.44,4.18c-0.6,3.43-1.96,8.88-5.37,14.73c-3.75,6.45-8.27,10.48-11.09,12.64l0,0
		c-0.95-3.06-2.57-9.72-0.85-17.99C1599.63,611.06,1602.39,606.43,1604.17,603.88z"/>
	<path class="st12" d="M1596.18,596.02l6.47,10.34c-2.58,2.34-6.99,5.8-13.27,8.33c-6.91,2.78-12.95,3.19-16.5,3.16l0,0
		c1.12-3,3.93-9.26,10.35-14.73C1588.2,598.9,1593.21,596.94,1596.18,596.02z"/>
	<path class="st12" d="M1593.36,579.69l0.88,12.17c-3.37,0.86-8.89,1.85-15.62,1.14c-7.4-0.78-12.94-3.26-16.06-4.95l0,0
		c2.39-2.12,7.8-6.34,16.03-8.16C1584.97,578.48,1590.32,579.1,1593.36,579.69z"/>
	<path class="st12" d="M1602.74,570.05l-7.58,9.55c-3.06-1.66-7.79-4.67-12.25-9.76c-4.92-5.6-7.31-11.18-8.46-14.54l0,0
		c3.19,0.06,10.02,0.63,17.31,4.88C1597.38,563.47,1600.89,567.55,1602.74,570.05z"/>
	<path class="st12" d="M1615.33,566.92l-11.36,4.39c-1.8-2.98-4.35-7.98-5.64-14.63c-1.41-7.32-0.66-13.35,0.04-16.83l0,0
		c2.72,1.67,8.32,5.62,12.46,12.98C1614.03,558.53,1614.99,563.83,1615.33,566.92z"/>
	<path class="st12" d="M1626.23,571.08l-11.67-3.49c0.39-3.46,1.43-8.98,4.48-15.03c3.36-6.66,7.64-10.96,10.32-13.28l0,0
		c1.13,2.99,3.15,9.55,1.92,17.91C1630.33,563.65,1627.85,568.44,1626.23,571.08z"/>
	<path class="st12" d="M1635.09,580.56l-7.2-9.84c2.4-2.52,6.55-6.3,12.62-9.28c6.69-3.28,12.69-4.13,16.22-4.36l0,0
		c-0.9,3.07-3.24,9.52-9.25,15.45C1642.84,577.11,1637.98,579.43,1635.09,580.56z"/>
	<path class="st12" d="M1634.47,592.62l0.54-12.19c3.45-0.46,9.04-0.79,15.64,0.7c7.26,1.64,12.47,4.75,15.37,6.79l0,0
		c-2.62,1.83-8.48,5.38-16.87,6.22C1642.66,594.8,1637.43,593.56,1634.47,592.62z"/>
	<path class="st12" d="M1629.03,601.59l8.53-8.71c2.87,1.96,7.26,5.46,11.18,10.98c4.31,6.08,6.11,11.88,6.91,15.34l0,0
		c-3.17-0.39-9.9-1.67-16.71-6.65C1633.68,608.7,1630.61,604.27,1629.03,601.59z"/>
	<path class="st12" d="M1615.76,607.41l11.61-3.67c1.61,3.09,3.84,8.24,4.71,14.96c0.95,7.4-0.18,13.36-1.1,16.79l0,0
		c-2.61-1.84-7.95-6.14-11.62-13.74C1616.53,615.87,1615.9,610.51,1615.76,607.41z"/>
	<g>
		<path class="st13" d="M1621.33,567.37h-12.18c-0.61-3.43-1.19-9.01,0-15.69c1.31-7.34,4.18-12.69,6.09-15.69l0,0
			c1.94,2.54,5.74,8.25,6.96,16.61C1623.14,559.07,1622.13,564.37,1621.33,567.37z"/>
		<path class="st13" d="M1632.78,575.65l-9.86-7.16c1.51-3.14,4.31-8,9.19-12.7c5.36-5.17,10.82-7.81,14.12-9.12l0,0
			c0.08,3.2-0.18,10.06-4.09,17.54C1639.11,569.99,1635.19,573.69,1632.78,575.65z"/>
		<path class="st13" d="M1635.88,588.46l-3.22-11.77c3.14-1.5,8.36-3.54,15.1-4.15c7.42-0.67,13.32,0.69,16.71,1.74l0,0
			c-1.94,2.55-6.42,7.73-14.15,11.11C1644.34,588.02,1638.98,588.44,1635.88,588.46z"/>
		<path class="st13" d="M1631.02,600.43l3.67-11.63c3.45,0.45,8.94,1.58,14.93,4.73c6.59,3.47,10.81,7.83,13.09,10.55l0,0
			c-3.01,1.08-9.58,3-17.9,1.64C1638.37,604.67,1633.64,602.1,1631.02,600.43z"/>
		<path class="st13" d="M1621.35,606.29l10.24-6.6c2.37,2.55,5.87,6.93,8.47,13.19c2.86,6.89,3.33,12.94,3.35,16.49l0,0
			c-3-1.09-9.28-3.83-14.82-10.2C1624.31,614.25,1622.3,609.25,1621.35,606.29z"/>
		<path class="st13" d="M1609.13,606.59l12.18,0.19c0.56,3.44,1.06,9.03-0.24,15.68c-1.43,7.32-4.38,12.62-6.33,15.59l0,0
			c-1.9-2.57-5.62-8.34-6.7-16.71C1607.2,614.86,1608.29,609.58,1609.13,606.59z"/>
		<path class="st13" d="M1598.76,600.27l9.65,7.44c-1.6,3.09-4.54,7.88-9.54,12.44c-5.51,5.02-11.04,7.5-14.37,8.72l0,0
			c0.01-3.2,0.47-10.05,4.59-17.42C1592.28,605.75,1596.3,602.17,1598.76,600.27z"/>
		<path class="st13" d="M1594.23,588.04l3.35,11.73c-3.12,1.53-8.32,3.63-15.05,4.32c-7.41,0.76-13.33-0.53-16.73-1.54l0,0
			c1.91-2.57,6.33-7.8,14.02-11.28C1585.77,588.58,1591.13,588.1,1594.23,588.04z"/>
		<path class="st13" d="M1597.48,574.6l-4.35,11.39c-3.42-0.65-8.83-2.11-14.62-5.61c-6.37-3.86-10.33-8.45-12.44-11.31l0,0
			c3.06-0.9,9.74-2.42,17.97-0.57C1590.39,569.94,1594.97,572.78,1597.48,574.6z"/>
		<path class="st13" d="M1608.12,567.4l-9.53,7.59c-2.61-2.3-6.53-6.31-9.74-12.28c-3.53-6.57-4.6-12.54-4.97-16.08l0,0
			c3.1,0.78,9.62,2.88,15.76,8.67C1604.38,559.78,1606.88,564.55,1608.12,567.4z"/>
	</g>
	<ellipse class="st14" cx="1615.24" cy="587.41" rx="21.75" ry="21.79"/>
</g>
<g>
	<path class="st11" d="M330.85,640.63c-8.21,2.9-10.14,3.92-11.91,5.17c-3.32,2.35-5.53,5.1-6.96,7.3v-49.13h-6.09v65.36
		c-1.34-2.33-3.75-5.84-7.83-8.71c-1.78-1.26-3.71-2.27-11.91-5.17c-7.09-2.5-10.63-3.75-32.15-1.91
		c5.59,9.15,11.85,15.1,16.13,18.59c6.07,4.96,13.5,11.04,24.45,12.02c4.76,0.42,8.73-0.25,11.31-0.87V719h6.09v-50.35
		c2.56,0.56,6.18,1.05,10.44,0.67c10.95-0.98,18.38-7.06,24.45-12.01c4.28-3.5,10.54-9.44,16.13-18.59
		C341.49,636.87,337.94,638.12,330.85,640.63z"/>
	<path class="st12" d="M299.17,603.88l11.44,4.18c-0.6,3.43-1.96,8.88-5.37,14.73c-3.75,6.45-8.27,10.48-11.09,12.64l0,0
		c-0.95-3.06-2.57-9.72-0.85-17.99C294.63,611.06,297.39,606.43,299.17,603.88z"/>
	<path class="st12" d="M291.18,596.02l6.47,10.34c-2.58,2.34-6.99,5.8-13.27,8.33c-6.91,2.78-12.95,3.19-16.5,3.16l0,0
		c1.12-3,3.93-9.26,10.35-14.73C283.2,598.9,288.21,596.94,291.18,596.02z"/>
	<path class="st12" d="M288.36,579.69l0.88,12.17c-3.37,0.86-8.89,1.85-15.62,1.14c-7.4-0.78-12.94-3.26-16.06-4.95l0,0
		c2.39-2.12,7.8-6.34,16.03-8.16C279.97,578.48,285.32,579.1,288.36,579.69z"/>
	<path class="st12" d="M297.74,570.05l-7.58,9.55c-3.06-1.66-7.79-4.67-12.25-9.76c-4.92-5.6-7.31-11.18-8.46-14.54l0,0
		c3.19,0.06,10.02,0.63,17.31,4.88C292.38,563.47,295.89,567.55,297.74,570.05z"/>
	<path class="st12" d="M310.33,566.92l-11.36,4.39c-1.8-2.98-4.35-7.98-5.64-14.63c-1.41-7.32-0.66-13.35,0.04-16.83l0,0
		c2.72,1.67,8.32,5.62,12.46,12.98C309.03,558.53,309.99,563.83,310.33,566.92z"/>
	<path class="st12" d="M321.23,571.08l-11.67-3.49c0.39-3.46,1.43-8.98,4.48-15.03c3.36-6.66,7.64-10.96,10.32-13.28l0,0
		c1.13,2.99,3.15,9.55,1.92,17.91C325.33,563.65,322.85,568.44,321.23,571.08z"/>
	<path class="st12" d="M330.09,580.56l-7.2-9.84c2.4-2.52,6.55-6.3,12.62-9.28c6.69-3.28,12.69-4.13,16.22-4.36l0,0
		c-0.9,3.07-3.24,9.52-9.25,15.45C337.84,577.11,332.98,579.43,330.09,580.56z"/>
	<path class="st12" d="M329.47,592.62l0.54-12.19c3.45-0.46,9.04-0.79,15.64,0.7c7.26,1.64,12.47,4.75,15.37,6.79l0,0
		c-2.62,1.83-8.48,5.38-16.87,6.22C337.66,594.8,332.43,593.56,329.47,592.62z"/>
	<path class="st12" d="M324.03,601.59l8.53-8.71c2.87,1.96,7.26,5.46,11.18,10.98c4.31,6.08,6.11,11.88,6.91,15.34l0,0
		c-3.17-0.39-9.9-1.67-16.71-6.65C328.68,608.7,325.61,604.27,324.03,601.59z"/>
	<path class="st12" d="M310.76,607.41l11.61-3.67c1.61,3.09,3.84,8.24,4.71,14.96c0.95,7.4-0.18,13.36-1.1,16.79l0,0
		c-2.61-1.84-7.95-6.14-11.62-13.74C311.53,615.87,310.9,610.51,310.76,607.41z"/>
	<g>
		<path class="st13" d="M316.33,567.37h-12.18c-0.61-3.43-1.19-9.01,0-15.69c1.31-7.34,4.18-12.69,6.09-15.69l0,0
			c1.94,2.54,5.74,8.25,6.96,16.61C318.14,559.07,317.13,564.37,316.33,567.37z"/>
		<path class="st13" d="M327.78,575.65l-9.86-7.16c1.51-3.14,4.31-8,9.19-12.7c5.36-5.17,10.82-7.81,14.12-9.12l0,0
			c0.08,3.2-0.18,10.06-4.09,17.54C334.11,569.99,330.19,573.69,327.78,575.65z"/>
		<path class="st13" d="M330.88,588.46l-3.22-11.77c3.14-1.5,8.36-3.54,15.1-4.15c7.42-0.67,13.32,0.69,16.71,1.74l0,0
			c-1.94,2.55-6.42,7.73-14.15,11.11C339.34,588.02,333.98,588.44,330.88,588.46z"/>
		<path class="st13" d="M326.02,600.43l3.67-11.63c3.45,0.45,8.94,1.58,14.93,4.73c6.59,3.47,10.81,7.83,13.09,10.55l0,0
			c-3.01,1.08-9.58,3-17.9,1.64C333.37,604.67,328.64,602.1,326.02,600.43z"/>
		<path class="st13" d="M316.35,606.29l10.24-6.6c2.37,2.55,5.87,6.93,8.47,13.19c2.86,6.89,3.33,12.94,3.35,16.49l0,0
			c-3-1.09-9.28-3.83-14.82-10.2C319.31,614.25,317.3,609.25,316.35,606.29z"/>
		<path class="st13" d="M304.13,606.59l12.18,0.19c0.56,3.44,1.06,9.03-0.24,15.68c-1.43,7.32-4.38,12.62-6.33,15.59l0,0
			c-1.9-2.57-5.62-8.34-6.7-16.71C302.2,614.86,303.29,609.58,304.13,606.59z"/>
		<path class="st13" d="M293.76,600.27l9.65,7.44c-1.6,3.09-4.54,7.88-9.54,12.44c-5.51,5.02-11.04,7.5-14.37,8.72l0,0
			c0.01-3.2,0.47-10.05,4.59-17.42C287.28,605.75,291.3,602.17,293.76,600.27z"/>
		<path class="st13" d="M289.23,588.04l3.35,11.73c-3.12,1.53-8.32,3.63-15.05,4.32c-7.41,0.76-13.33-0.53-16.73-1.54l0,0
			c1.91-2.57,6.33-7.8,14.02-11.28C280.77,588.58,286.13,588.1,289.23,588.04z"/>
		<path class="st13" d="M292.48,574.6l-4.35,11.4c-3.42-0.65-8.83-2.11-14.62-5.61c-6.37-3.86-10.33-8.45-12.44-11.31l0,0
			c3.06-0.9,9.74-2.42,17.97-0.57C285.39,569.94,289.97,572.78,292.48,574.6z"/>
		<path class="st13" d="M303.12,567.4l-9.53,7.59c-2.61-2.3-6.53-6.31-9.74-12.28c-3.53-6.57-4.6-12.54-4.97-16.08l0,0
			c3.1,0.78,9.62,2.88,15.76,8.67C299.38,559.78,301.88,564.55,303.12,567.4z"/>
	</g>
	<ellipse class="st14" cx="310.24" cy="587.41" rx="21.75" ry="21.79"/>
</g>
<g>
	<path class="st11" d="M135.85,642.63c-8.21,2.9-10.14,3.92-11.91,5.17c-3.32,2.35-5.53,5.1-6.96,7.3v-49.13h-6.09v65.36
		c-1.34-2.33-3.75-5.84-7.83-8.71c-1.78-1.26-3.71-2.27-11.91-5.17c-7.09-2.5-10.63-3.75-32.15-1.91
		c5.59,9.15,11.85,15.1,16.13,18.59c6.07,4.96,13.5,11.04,24.45,12.02c4.76,0.42,8.73-0.25,11.31-0.87V721h6.09v-50.35
		c2.56,0.56,6.18,1.05,10.44,0.67c10.95-0.98,18.38-7.06,24.45-12.01c4.28-3.5,10.54-9.44,16.13-18.59
		C146.49,638.87,142.94,640.12,135.85,642.63z"/>
	<path class="st12" d="M104.17,605.88l11.44,4.18c-0.6,3.43-1.96,8.88-5.37,14.73c-3.75,6.45-8.27,10.48-11.09,12.64l0,0
		c-0.95-3.06-2.57-9.72-0.85-17.99C99.63,613.06,102.39,608.43,104.17,605.88z"/>
	<path class="st12" d="M96.18,598.02l6.47,10.34c-2.58,2.34-6.99,5.8-13.27,8.33c-6.91,2.78-12.95,3.19-16.5,3.16l0,0
		c1.12-3,3.93-9.26,10.35-14.73C88.2,600.9,93.21,598.94,96.18,598.02z"/>
	<path class="st12" d="M93.36,581.69l0.88,12.17c-3.37,0.86-8.89,1.85-15.62,1.14c-7.41-0.78-12.94-3.26-16.06-4.95l0,0
		c2.39-2.12,7.8-6.34,16.03-8.16C84.97,580.48,90.32,581.1,93.36,581.69z"/>
	<path class="st12" d="M102.74,572.05l-7.58,9.55c-3.06-1.66-7.79-4.67-12.25-9.76c-4.92-5.6-7.31-11.18-8.46-14.54l0,0
		c3.19,0.06,10.02,0.63,17.31,4.88C97.38,565.47,100.89,569.55,102.74,572.05z"/>
	<path class="st12" d="M115.33,568.92l-11.36,4.39c-1.8-2.98-4.35-7.98-5.64-14.63c-1.41-7.32-0.66-13.35,0.04-16.83l0,0
		c2.72,1.67,8.32,5.62,12.46,12.98C114.03,560.53,114.99,565.83,115.33,568.92z"/>
	<path class="st12" d="M126.23,573.08l-11.67-3.49c0.39-3.46,1.43-8.98,4.48-15.03c3.36-6.66,7.64-10.96,10.32-13.28l0,0
		c1.13,2.99,3.15,9.55,1.92,17.91C130.33,565.65,127.85,570.44,126.23,573.08z"/>
	<path class="st12" d="M135.09,582.56l-7.2-9.84c2.4-2.52,6.55-6.3,12.62-9.28c6.69-3.28,12.69-4.13,16.22-4.36l0,0
		c-0.9,3.07-3.24,9.52-9.25,15.45C142.84,579.11,137.98,581.43,135.09,582.56z"/>
	<path class="st12" d="M134.47,594.62l0.54-12.19c3.45-0.46,9.04-0.79,15.64,0.7c7.26,1.64,12.47,4.75,15.37,6.79l0,0
		c-2.62,1.83-8.48,5.38-16.87,6.22C142.66,596.8,137.43,595.56,134.47,594.62z"/>
	<path class="st12" d="M129.03,603.59l8.53-8.71c2.87,1.96,7.26,5.46,11.18,10.98c4.31,6.08,6.11,11.88,6.91,15.34l0,0
		c-3.17-0.39-9.9-1.67-16.71-6.65C133.68,610.7,130.61,606.27,129.03,603.59z"/>
	<path class="st12" d="M115.76,609.41l11.61-3.67c1.61,3.09,3.84,8.24,4.71,14.96c0.95,7.4-0.18,13.36-1.1,16.79l0,0
		c-2.61-1.84-7.95-6.14-11.62-13.74C116.53,617.87,115.9,612.51,115.76,609.41z"/>
	<g>
		<path class="st13" d="M121.33,569.37h-12.18c-0.61-3.43-1.19-9.01,0-15.69c1.31-7.34,4.18-12.69,6.09-15.69l0,0
			c1.94,2.54,5.74,8.25,6.96,16.61C123.14,561.07,122.13,566.37,121.33,569.37z"/>
		<path class="st13" d="M132.78,577.65l-9.86-7.16c1.51-3.14,4.31-8,9.19-12.7c5.36-5.17,10.82-7.81,14.12-9.12l0,0
			c0.08,3.2-0.18,10.06-4.09,17.54C139.11,571.99,135.19,575.69,132.78,577.65z"/>
		<path class="st13" d="M135.88,590.46l-3.22-11.77c3.14-1.5,8.36-3.54,15.1-4.15c7.42-0.67,13.32,0.69,16.71,1.74l0,0
			c-1.94,2.55-6.42,7.73-14.15,11.11C144.34,590.02,138.98,590.44,135.88,590.46z"/>
		<path class="st13" d="M131.02,602.43l3.67-11.63c3.45,0.45,8.94,1.58,14.93,4.73c6.59,3.47,10.81,7.83,13.09,10.55l0,0
			c-3.01,1.08-9.58,3-17.9,1.64C138.37,606.67,133.64,604.1,131.02,602.43z"/>
		<path class="st13" d="M121.35,608.29l10.24-6.6c2.37,2.55,5.87,6.93,8.47,13.19c2.86,6.89,3.33,12.94,3.35,16.49l0,0
			c-3-1.09-9.28-3.83-14.82-10.2C124.31,616.25,122.3,611.25,121.35,608.29z"/>
		<path class="st13" d="M109.13,608.59l12.18,0.19c0.56,3.44,1.06,9.03-0.24,15.68c-1.43,7.32-4.38,12.62-6.33,15.59l0,0
			c-1.9-2.57-5.62-8.34-6.7-16.71C107.2,616.86,108.29,611.58,109.13,608.59z"/>
		<path class="st13" d="M98.76,602.27l9.65,7.44c-1.6,3.09-4.54,7.88-9.54,12.44c-5.51,5.02-11.04,7.5-14.37,8.72l0,0
			c0.01-3.2,0.47-10.05,4.59-17.42C92.28,607.75,96.3,604.17,98.76,602.27z"/>
		<path class="st13" d="M94.23,590.04l3.35,11.73c-3.12,1.53-8.32,3.63-15.05,4.32c-7.41,0.76-13.33-0.53-16.73-1.54l0,0
			c1.91-2.57,6.33-7.8,14.02-11.28C85.77,590.58,91.13,590.1,94.23,590.04z"/>
		<path class="st13" d="M97.48,576.6L93.13,588c-3.42-0.65-8.83-2.11-14.62-5.61c-6.37-3.86-10.33-8.45-12.44-11.31l0,0
			c3.06-0.9,9.74-2.42,17.97-0.57C90.39,571.94,94.97,574.78,97.48,576.6z"/>
		<path class="st13" d="M108.12,569.4l-9.53,7.59c-2.61-2.3-6.53-6.31-9.74-12.28c-3.53-6.57-4.6-12.54-4.97-16.08l0,0
			c3.1,0.78,9.62,2.88,15.76,8.67C104.38,561.78,106.88,566.55,108.12,569.4z"/>
	</g>
	<ellipse class="st14" cx="115.24" cy="589.41" rx="21.75" ry="21.79"/>
</g>
<polygon class="st10" points="521,713.9 521,710 518.75,710 505.5,687.05 495,705.24 484.5,687.05 475.5,702.64 466.5,687.05 
	455,706.97 443.5,687.05 431.5,707.84 419.5,687.05 410.71,702.28 402.5,688.05 392,706.24 381.5,688.05 372.5,703.64 363.5,688.05 
	352,707.97 340.5,688.05 328.5,708.84 316.5,688.05 305.71,706.74 295.5,689.05 285,707.24 274.5,689.05 265.5,704.64 256.5,689.05 
	245,708.97 233.5,689.05 221.5,709.84 209.5,689.05 203,700.31 196.5,689.05 186,707.24 175.5,689.05 166.5,704.64 157.5,689.05 
	146,708.97 134.5,689.05 122.5,709.84 110.5,689.05 100.5,706.38 90.5,689.05 80,707.24 69.5,689.05 60.5,704.64 51.5,689.05 
	40,708.97 28.5,689.05 16.5,709.84 4.5,689.05 -8.75,712 -11,712 -11,715.9 -11.47,716.72 -11,716.72 -11,731 95,731 106,731 
	194,731 212,731 311,731 311,730 418,730 418,729 521,729 521,714.72 521.47,714.72 "/>
<polygon class="st10" points="1931,730.9 1931,727 1928.75,727 1915.5,704.05 1905,722.24 1894.5,704.05 1885.5,719.64 
	1876.5,704.05 1865,723.97 1853.5,704.05 1848,713.58 1842.5,704.05 1836,715.31 1829.5,704.05 1825.5,710.98 1821.5,704.05 
	1812.5,719.64 1803.5,704.05 1792,723.97 1780.5,704.05 1772.37,718.14 1762.5,701.05 1758.63,707.75 1756.5,704.05 1749.87,715.54 
	1741.5,701.05 1732.5,716.64 1723.5,701.05 1712,720.97 1700.5,701.05 1688.5,721.84 1676.5,701.05 1669.37,713.41 1660.5,698.05 
	1650,716.24 1639.5,698.05 1630.5,713.64 1621.5,698.05 1610,717.97 1598.5,698.05 1586.5,718.84 1574.5,698.05 1566.42,712.04 
	1559.5,700.05 1549,718.24 1538.5,700.05 1529.5,715.64 1520.5,700.05 1509,719.97 1497.5,700.05 1485.5,720.84 1473.5,700.05 
	1467.71,710.08 1462.5,701.05 1452,719.24 1441.5,701.05 1432.5,716.64 1423.5,701.05 1412.56,720 1411.44,720 1400.5,701.05 
	1400.15,701.65 1397.5,697.05 1387,715.24 1376.5,697.05 1367.5,712.64 1358.5,697.05 1347,716.97 1335.5,697.05 1323.5,717.84 
	1311.5,697.05 1298.25,720 1296,720 1296,723.9 1295.53,724.72 1296,724.72 1296,739 1361,739 1361,743 1478,743 1478,742 1575,742 
	1575,740 1661,740 1661,743 1741,743 1741,746 1814,746 1858,746 1931,746 1931,731.72 1931.47,731.72 "/>
<polygon class="st15" points="1116.96,1223.04 1107.57,1223.04 1107.57,1223.04 "/>
<g>
	<path class="st16" d="M1323.33,1080.11c-5.61-16.34-0.58-35.8,12.26-47.36c17.64-15.88,44.68-15.35,65.24-27.21
		c18.15-10.46,29.76-29.69,47.4-40.98c24.71-15.82,56.48-13.5,84.87-20.92c45.71-11.94,82.32-49.16,128.78-57.69
		c11.22-2.06,22.98-2.44,33.35-7.18c17.35-7.93,27.62-26.54,44.29-35.81c17.79-9.9,39.64-7.61,59.47-12.19
		c21.57-4.98,40.26-17.96,60.01-27.98c19.75-10.01,42.98-17.22,63.82-9.74c21.15,7.59,34.46,28.24,44.61,48.29
		c13.37,26.42,24.06,54.2,31.84,82.77c7.76,28.48,12.58,59.01,4.15,87.3c-4.24,14.25-11.69,27.34-19.99,39.68
		c-26.73,39.73-64.53,73.79-110.49,87.23c-23.45,6.86-48.13,8.18-72.56,8.94c-39.75,1.24-79.53,1.14-119.3,0.88
		c-99.69-0.66-199.73-2.35-298.28-17.37c-14.56-2.22-29.6-4.93-41.69-13.34c-12.09-8.4-20.37-24.11-15.67-38.06"/>
</g>
<g>
	<path class="st17" d="M1374.63,994.4c2.3-13.68,20.44-21.78,32.16-14.36c5.63,3.56,9.59,9.76,15.9,11.87
		c6.4,2.14,13.85-0.48,19.96,2.38c6.73,3.15,9.09,12.27,6.44,19.21s-9.07,11.82-15.87,14.81s-14.17,4.44-21.21,6.83
		c-5.22,1.77-10.37,4.07-15.86,4.41c-15.43,0.97-28.03-14.56-29.02-29.99c-0.48-7.55,2.64-16.78,10.1-18.02"/>
</g>
<g>
	<path class="st17" d="M1289.53,1035.9c12.39-18.5,37.29-22.8,59.39-25.47c10.8-1.3,22.43-2.46,31.96,2.8
		c11.89,6.57,16.92,22.26,13.34,35.36c-3.58,13.1-14.36,23.41-26.74,29s-26.25,7-39.83,6.98c-6.18-0.01-12.49-0.33-18.24-2.59
		c-10.76-4.22-18.16-15.09-19.68-26.55c-1.52-11.45,2.33-23.22,9.04-32.62"/>
</g>
<g>
	<path class="st18" d="M1889,769c-8.56-9.85-18.51-20.34-30-31c-12.15-11.28-24-20.88-35-29c0-1.33,0-2.67,0-4
		c11.75,9.36,23.78,19.35,36,30c11.61,10.12,22.6,20.14,33,30C1891.67,766.33,1890.33,767.67,1889,769z"/>
	<path class="st19" d="M1822,712c-6.07,4.1-15.4-2.11-18.53-4.2c-4.48-2.98-9.57-6.37-9.47-11.8c0.09-4.5,3.71-9.04,8-10
		c3.42-0.77,6.66,1.48,13,6c7.19,5.12,10.81,7.7,11,12C1826.14,707.04,1824.52,710.29,1822,712z"/>
	<g>
		<g>
			<path class="st19" d="M1787.47,690.23c0.19,0.01,0.37,0.03,0.55,0.04c0.06,0.01,0.63,0.08,0.29,0.03
				c0.32,0.05,0.64,0.1,0.96,0.17c0.7,0.15,1.4,0.34,2.07,0.59c0.15,0.05,0.3,0.11,0.46,0.17c0.09,0.03,0.17,0.07,0.26,0.1
				c-0.14-0.06-0.14-0.06,0.02,0.01c0.31,0.15,0.63,0.3,0.94,0.46c0.64,0.34,1.24,0.72,1.83,1.14c0.64,0.46,1.7,0.13,2.05-0.54
				c0.41-0.78,0.14-1.56-0.54-2.05c-2.6-1.88-5.71-2.93-8.89-3.13c-0.78-0.05-1.53,0.73-1.5,1.5
				C1786.01,689.58,1786.63,690.17,1787.47,690.23L1787.47,690.23z"/>
		</g>
	</g>
	<path class="st18" d="M1892.31,743.15c-6.14-16.5-13.48-33.99-22.31-52.15c-4.6-9.45-9.28-18.45-14-27c1.33-0.67,2.67-1.33,4-2
		c4.39,7.9,8.74,16.23,13,25c9.28,19.12,16.72,37.47,22.71,54.61C1894.57,742.12,1893.44,742.64,1892.31,743.15z"/>
	<path class="st19" d="M1855.22,667.25c-7.28,0.83-12.68-9-14.49-12.29c-2.59-4.72-5.54-10.08-2.94-14.84
		c2.16-3.95,7.47-6.3,11.72-5.17c3.38,0.9,5.22,4.39,8.75,11.33c4,7.87,6.02,11.83,4.2,15.73
		C1861.18,664.77,1858.24,666.91,1855.22,667.25z"/>
	<g>
		<g>
			<path class="st19" d="M1833.49,633.09c0.84,0.84,1.65,1.71,2.44,2.61c0.38,0.44,0.75,0.88,1.12,1.33
				c0.19,0.24,0.39,0.48,0.58,0.72c0.08,0.11,0.16,0.22,0.25,0.32c-0.11-0.12-0.14-0.18-0.02-0.02c0.05,0.07,0.1,0.14,0.15,0.2
				c0.25,0.32,0.49,0.58,0.9,0.69c0.36,0.1,0.84,0.05,1.16-0.15c0.32-0.21,0.6-0.51,0.69-0.9c0.08-0.37,0.09-0.84-0.15-1.16
				c-1.54-2.03-3.19-3.96-4.99-5.76c-0.55-0.56-1.57-0.6-2.12,0C1832.94,631.56,1832.9,632.49,1833.49,633.09L1833.49,633.09z"/>
		</g>
	</g>
	<path class="st20" d="M1881,658c5.86,8.58,12.34,19.59,18,33c4.81,11.41,7.93,21.98,10,31c3.41,12.16,6.58,25.88,9,41
		c2.12,13.28,3.36,25.68,4,37c-0.67,2-1.33,4-2,6c-6.67-28.67-13.33-57.33-20-86C1893.67,699.33,1887.33,678.67,1881,658z"/>
	<g>
		<path class="st20" d="M1919.69,805.56c-7.89-3.75-15.87-7.32-23.93-10.7c-1.82-0.76-3.67-1.53-5.26-2.7
			c-1.33-0.98-2.44-2.21-3.56-3.43c-15.76-17.18-33.71-32.35-53.27-45.03c-12.37-8.02-25.77-15.41-34.28-27.44
			c5.95,0.09,11.29,3.43,16.29,6.65c13.5,8.7,27,17.4,40.51,26.1c8.67,5.59,17.4,11.21,24.9,18.29c4.76,4.48,8.98,9.5,13.19,14.51
			c-0.46-5.86-3.08-11.31-5.81-16.52c-8.55-16.34-18.63-31.88-30.05-46.35c-9.12-11.55-19.13-22.48-26.78-35.05
			c20.86,13.68,38.44,32.32,50.87,53.95c6.01,10.45,10.82,21.54,15.61,32.61c-4.42-17.39-9.24-35.24-14.53-53.49
			c-5.38-18.59-10.94-36.58-16.6-53.94l0,0c8.52,16.19,17.03,34.2,25,54C1904.91,749.07,1913.66,779.07,1919.69,805.56z"/>
	</g>
</g>
<g>
	<path class="st17" d="M1818.53,802.9c12.39-18.5,37.29-22.8,59.39-25.47c10.8-1.3,22.43-2.46,31.96,2.8
		c11.89,6.57,16.92,22.26,13.34,35.36c-3.58,13.1-14.36,23.41-26.74,29s-26.25,7-39.83,6.98c-6.18-0.01-12.49-0.33-18.24-2.59
		c-10.76-4.22-18.16-15.09-19.68-26.55c-1.52-11.45,2.33-23.22,9.04-32.62"/>
</g>
<g>
	<g>
		<g>
			<rect x="419.6" y="140.02" class="st15" width="1297.66" height="361.89"/>
			<text transform="matrix(1 0 0 1 419.5955 346.2686)" class="st21 st22 st23 st24">EasyJava</text>
		</g>
		<g>
			<rect x="417.6" y="139.02" class="st15" width="1297.66" height="361.89"/>
			<text transform="matrix(1 0 0 1 417.5955 345.2686)" class="st21 st22 st23 st24">EasyJava</text>
		</g>
		<g>
			<rect x="415.6" y="138.02" class="st15" width="1297.66" height="361.89"/>
			<text transform="matrix(1 0 0 1 415.5955 344.2686)" class="st21 st22 st23 st24">EasyJava</text>
		</g>
		<g>
			<rect x="413.6" y="137.02" class="st15" width="1297.66" height="361.89"/>
			<text transform="matrix(1 0 0 1 413.5955 343.2686)" class="st21 st22 st23 st24">EasyJava</text>
		</g>
		<g>
			<rect x="411.6" y="136.02" class="st15" width="1297.66" height="361.89"/>
			<text transform="matrix(1 0 0 1 411.5955 342.2686)" class="st21 st22 st23 st24">EasyJava</text>
		</g>
		<g>
			<rect x="409.6" y="135.02" class="st15" width="1297.66" height="361.89"/>
			<text transform="matrix(1 0 0 1 409.5955 341.2686)" class="st21 st22 st23 st24">EasyJava</text>
		</g>
		<g>
			<rect x="407.6" y="134.02" class="st15" width="1297.66" height="361.89"/>
			<text transform="matrix(1 0 0 1 407.5955 340.2686)" class="st21 st22 st23 st24">EasyJava</text>
		</g>
		<g>
			<rect x="405.6" y="133.02" class="st15" width="1297.66" height="361.89"/>
			<text transform="matrix(1 0 0 1 405.5955 339.2686)" class="st21 st22 st23 st24">EasyJava</text>
		</g>
		<g>
			<rect x="403.6" y="132.02" class="st15" width="1297.66" height="361.89"/>
			<text transform="matrix(1 0 0 1 403.5955 338.2686)" class="st21 st22 st23 st24">EasyJava</text>
		</g>
		<g>
			<rect x="401.6" y="131.02" class="st15" width="1297.66" height="361.89"/>
			<text transform="matrix(1 0 0 1 401.5955 337.2686)" class="st21 st22 st23 st24">EasyJava</text>
		</g>
		<g>
			<rect x="399.6" y="130.02" class="st15" width="1297.66" height="361.89"/>
			<text transform="matrix(1 0 0 1 399.5955 336.2686)" class="st21 st22 st23 st24">EasyJava</text>
		</g>
		<g>
			<rect x="397.6" y="129.02" class="st15" width="1297.66" height="361.89"/>
			<text transform="matrix(1 0 0 1 397.5955 335.2686)" class="st21 st22 st23 st24">EasyJava</text>
		</g>
		<g>
			<rect x="395.6" y="128.02" class="st15" width="1297.66" height="361.89"/>
			<text transform="matrix(1 0 0 1 395.5955 334.2686)" class="st21 st22 st23 st24">EasyJava</text>
		</g>
		<g>
			<rect x="393.6" y="127.02" class="st15" width="1297.66" height="361.89"/>
			<text transform="matrix(1 0 0 1 393.5955 333.2686)" class="st21 st22 st23 st24">EasyJava</text>
		</g>
		<g>
			<rect x="391.6" y="126.02" class="st15" width="1297.66" height="361.89"/>
			<text transform="matrix(1 0 0 1 391.5955 332.2686)" class="st21 st22 st23 st24">EasyJava</text>
		</g>
		<g>
			<rect x="389.6" y="125.02" class="st15" width="1297.66" height="361.89"/>
			<text transform="matrix(1 0 0 1 389.5955 331.2686)" class="st21 st22 st23 st24">EasyJava</text>
		</g>
		<g>
			<rect x="387.6" y="124.02" class="st15" width="1297.66" height="361.89"/>
			<text transform="matrix(1 0 0 1 387.5955 330.2686)" class="st21 st22 st23 st24">EasyJava</text>
		</g>
		<g>
			<rect x="385.6" y="123.02" class="st15" width="1297.66" height="361.89"/>
			<text transform="matrix(1 0 0 1 385.5955 329.2686)" class="st21 st22 st23 st24">EasyJava</text>
		</g>
		<g>
			<rect x="383.6" y="122.02" class="st15" width="1297.66" height="361.89"/>
			<text transform="matrix(1 0 0 1 383.5955 328.2686)" class="st21 st22 st23 st24">EasyJava</text>
		</g>
		<g>
			<rect x="381.6" y="121.02" class="st15" width="1297.66" height="361.89"/>
			<text transform="matrix(1 0 0 1 381.5955 327.2686)" class="st21 st22 st23 st24">EasyJava</text>
		</g>
		<g>
			<rect x="379.6" y="120.02" class="st15" width="1297.66" height="361.89"/>
			<text transform="matrix(1 0 0 1 379.5955 326.2686)" class="st21 st22 st23 st24">EasyJava</text>
		</g>
		<g>
			<rect x="377.6" y="119.02" class="st15" width="1297.66" height="361.89"/>
			<text transform="matrix(1 0 0 1 377.5955 325.2686)" class="st21 st22 st23 st24">EasyJava</text>
		</g>
		<g>
			<rect x="375.6" y="118.02" class="st15" width="1297.66" height="361.89"/>
			<text transform="matrix(1 0 0 1 375.5955 324.2686)" class="st21 st22 st23 st24">EasyJava</text>
		</g>
		<g>
			<rect x="373.6" y="117.02" class="st15" width="1297.66" height="361.89"/>
			<text transform="matrix(1 0 0 1 373.5955 323.2686)" class="st21 st22 st23 st24">EasyJava</text>
		</g>
		<g>
			<rect x="371.6" y="116.02" class="st15" width="1297.66" height="361.89"/>
			<text transform="matrix(1 0 0 1 371.5955 322.2686)" class="st21 st22 st23 st24">EasyJava</text>
		</g>
		<g>
			<rect x="369.6" y="115.02" class="st15" width="1297.66" height="361.89"/>
			<text transform="matrix(1 0 0 1 369.5955 321.2686)" class="st21 st22 st23 st24">EasyJava</text>
		</g>
		<g>
			<rect x="367.6" y="114.02" class="st15" width="1297.66" height="361.89"/>
			<text transform="matrix(1 0 0 1 367.5955 320.2686)" class="st21 st22 st23 st24">EasyJava</text>
		</g>
		<g>
			<rect x="365.6" y="113.02" class="st15" width="1297.66" height="361.89"/>
			<text transform="matrix(1 0 0 1 365.5955 319.2686)" class="st21 st22 st23 st24">EasyJava</text>
		</g>
		<g>
			<rect x="363.6" y="112.02" class="st15" width="1297.66" height="361.89"/>
			<text transform="matrix(1 0 0 1 363.5955 318.2686)" class="st21 st22 st23 st24">EasyJava</text>
		</g>
		<g>
			<rect x="361.6" y="111.02" class="st15" width="1297.66" height="361.89"/>
			<text transform="matrix(1 0 0 1 361.5955 317.2686)" class="st21 st22 st23 st24">EasyJava</text>
		</g>
		<g>
			<rect x="359.6" y="110.02" class="st15" width="1297.66" height="361.89"/>
			<text transform="matrix(1 0 0 1 359.5955 316.2686)" class="st21 st22 st23 st24">EasyJava</text>
		</g>
		<g>
			<rect x="357.6" y="109.02" class="st15" width="1297.66" height="361.89"/>
			<text transform="matrix(1 0 0 1 357.5955 315.2686)" class="st21 st22 st23 st24">EasyJava</text>
		</g>
		<g>
			<rect x="355.6" y="108.02" class="st15" width="1297.66" height="361.89"/>
			<text transform="matrix(1 0 0 1 355.5955 314.2686)" class="st21 st22 st23 st24">EasyJava</text>
		</g>
		<g>
			<rect x="353.6" y="107.02" class="st15" width="1297.66" height="361.89"/>
			<text transform="matrix(1 0 0 1 353.5955 313.2686)" class="st21 st22 st23 st24">EasyJava</text>
		</g>
		<g>
			<rect x="351.6" y="106.02" class="st15" width="1297.66" height="361.89"/>
			<text transform="matrix(1 0 0 1 351.5955 312.2686)" class="st21 st22 st23 st24">EasyJava</text>
		</g>
		<g>
			<rect x="349.6" y="105.02" class="st15" width="1297.66" height="361.89"/>
			<text transform="matrix(1 0 0 1 349.5955 311.2686)" class="st21 st22 st23 st24">EasyJava</text>
		</g>
		<g>
			<rect x="347.6" y="104.02" class="st15" width="1297.66" height="361.89"/>
			<text transform="matrix(1 0 0 1 347.5955 310.2686)" class="st21 st22 st23 st24">EasyJava</text>
		</g>
		<g>
			<rect x="345.6" y="103.02" class="st15" width="1297.66" height="361.89"/>
			<text transform="matrix(1 0 0 1 345.5955 309.2686)" class="st21 st22 st23 st24">EasyJava</text>
		</g>
		<g>
			<rect x="343.6" y="102.02" class="st15" width="1297.66" height="361.89"/>
			<text transform="matrix(1 0 0 1 343.5955 308.2686)" class="st21 st22 st23 st24">EasyJava</text>
		</g>
		<g>
			<rect x="341.6" y="101.02" class="st15" width="1297.66" height="361.89"/>
			<text transform="matrix(1 0 0 1 341.5955 307.2686)" class="st21 st22 st23 st24">EasyJava</text>
		</g>
		<g>
			<rect x="339.6" y="100.02" class="st15" width="1297.66" height="361.89"/>
			<text transform="matrix(1 0 0 1 339.5955 306.2686)" class="st21 st22 st23 st24">EasyJava</text>
		</g>
	</g>
	<g>
		<g>
			<path class="st25" d="M676.97,173.2c-1.77,0-3.35-0.67-4.57-1.93c-1.21-1.26-1.83-2.76-1.83-4.46v-44.97
				c-0.88,1.07-1.76,2.12-2.65,3.13c-1.12,1.22-2.54,1.85-4.14,1.85h-0.74l-0.16-0.02c-1.85-0.29-3.32-1.35-4.27-3.06
				c-0.75-1.33-1.13-2.81-1.13-4.39c0-0.37,0.04-0.77,0.12-1.2c0.26-1.94,1.04-3.65,2.34-5.11c7.71-8.35,14.09-18.34,18.99-29.73
				c0.73-1.65,1.93-2.85,3.56-3.58c0.85-0.43,1.84-0.66,2.86-0.66c0.61,0,1.27,0.09,1.95,0.25l0.15,0.04
				c1.68,0.56,2.96,1.7,3.72,3.29c0.39,0.89,0.58,1.75,0.58,2.61c0,0.8-0.19,1.63-0.56,2.47c-2.16,4.92-4.73,9.98-7.61,15.03
				c-0.17,0.27-0.22,0.49-0.22,0.77v63.28c0,1.7-0.62,3.2-1.83,4.46C680.31,172.53,678.74,173.2,676.97,173.2z M695.18,171.05
				c-1.73,0-3.25-0.62-4.51-1.83c-1.26-1.22-1.93-2.8-1.93-4.57v-54.3c0-1.69,0.66-3.24,1.9-4.49c1.25-1.25,2.81-1.9,4.54-1.9
				s3.29,0.66,4.54,1.9c1.25,1.25,1.9,2.8,1.9,4.49v39.99h10.36V87.41c0-1.84,0.68-3.46,1.98-4.71c1.29-1.25,2.86-1.88,4.66-1.88
				c1.79,0,3.39,0.66,4.64,1.9c1.25,1.25,1.9,2.87,1.9,4.69v62.94h11.14v-39.8c0-1.83,0.62-3.4,1.83-4.66
				c1.21-1.26,2.83-1.93,4.66-1.93c1.82,0,3.44,0.66,4.69,1.9c1.25,1.25,1.9,2.87,1.9,4.69v53.61c0,1.76-0.66,3.34-1.9,4.59
				c-1.25,1.25-2.87,1.9-4.69,1.9c-1.84,0-3.45-0.67-4.66-1.93c-1.2-1.24-1.83-2.82-1.83-4.56v-1.13h-34.67v1.61
				c0,1.77-0.67,3.35-1.93,4.57C698.45,170.42,696.89,171.05,695.18,171.05z"/>
			<path class="st25" d="M801.77,173.3c-1.56,0-2.98-0.59-4.1-1.71c-1.12-1.12-1.71-2.54-1.71-4.1v-31.98
				c-0.78,0.64-1.74,0.98-2.8,0.98c-0.12,0-0.25,0-0.37-0.01c-0.45-0.03-0.88-0.11-1.28-0.24c-0.16,0.22-0.34,0.43-0.54,0.63
				c-0.96,0.96-2.19,1.46-3.56,1.46h-3.66v11.41l3.96-0.99c0.43-0.11,0.89-0.17,1.34-0.17c1.08,0,2.12,0.34,3.08,1.02
				c1.31,0.92,2.08,2.21,2.24,3.75c0.08,0.31,0.12,0.59,0.12,0.86c0,1.31-0.38,2.54-1.12,3.65c-0.95,1.33-2.2,2.21-3.74,2.67
				c-7.99,2.16-16.12,4.3-24.19,6.37l-0.09,0.02l-0.09,0.01c-0.51,0.08-0.97,0.12-1.4,0.12c-1.12,0-2.19-0.28-3.2-0.83l-0.08-0.04
				l-0.07-0.05c-1.42-0.95-2.33-2.32-2.62-3.95l-0.1-0.77c-0.08-0.37-0.13-0.76-0.13-1.14c0-1.05,0.31-2.05,0.92-2.96
				c0.55-0.9,1.34-1.59,2.3-2.03v-28.31c0-1.48,0.53-2.82,1.53-3.87c1.02-1.08,2.37-1.65,3.89-1.65c1.52,0,2.86,0.57,3.89,1.65
				c1,1.05,1.53,2.39,1.53,3.87v25.71l0.69-0.17v-35.35h-0.54c-2.88,0-5.38-1.04-7.42-3.08s-3.08-4.54-3.08-7.42V92.19
				c0-2.88,1.04-5.38,3.08-7.42s4.54-3.08,7.42-3.08h9.38c2.88,0,5.38,1.04,7.42,3.08s3.08,4.54,3.08,7.42v3.07
				c2.88-3.77,5.4-8,7.51-12.6c0.63-1.44,1.7-2.56,3.17-3.3c0.93-0.41,1.83-0.6,2.75-0.6c0.57,0,1.18,0.09,1.82,0.27
				c1.58,0.4,2.81,1.43,3.48,2.98c0.65,1.5,0.62,3.08-0.07,4.57c-3.25,6.77-7.05,12.85-11.29,18.09c-1.3,1.58-3.01,2.4-4.97,2.4
				h-0.2c-0.78-0.03-1.52-0.17-2.2-0.42v1.35c0,2.49-0.9,4.66-2.69,6.44c-1.51,1.51-3.3,2.39-5.32,2.62v9.44h5.1
				c4.68-6.32,8.51-13.66,11.42-21.82c0.58-1.55,1.57-2.68,2.97-3.4c0.85-0.44,1.74-0.66,2.65-0.66c0.6,0,1.21,0.1,1.81,0.29
				c1.52,0.49,2.69,1.51,3.38,2.94c0.25,0.51,0.41,1.03,0.5,1.55c2.4-5.66,4.17-12.99,5.29-21.88c0.19-1.56,0.97-2.9,2.23-3.87
				c1.03-0.85,2.25-1.29,3.56-1.29c0.27,0,0.55,0.04,0.86,0.12c1.51,0.16,2.8,0.89,3.75,2.12c0.96,1.26,1.37,2.77,1.18,4.38
				c-0.46,3.44-1.03,6.77-1.69,9.94c0,0,0,0,0,0c0.52,0.59,1.38,1.61,2.61,3.1c0.79,0.9,1.36,1.93,1.7,3.06
				c1.84-4.79,3.16-10.69,3.95-17.64c0.19-1.56,0.91-2.88,2.07-3.85c1.09-0.9,2.34-1.34,3.72-1.34h0.36l0.06,0
				c1.6,0.1,2.97,0.81,3.97,2.06c0.97,1.22,1.41,2.58,1.31,4.07l-0.01,0.13c-0.53,4.02-1.23,7.93-2.09,11.62
				c-0.01,0.04,0,0.04,0.04,0.11c3.22,4.34,5.92,8.38,8.04,12.01c0.63,1.09,0.96,2.28,0.96,3.55v0.85l-0.03,0.16
				c-0.26,1.56-0.92,2.92-1.97,4.06c-0.9,0.99-2.06,1.52-3.35,1.52c-0.28,0-0.56-0.02-0.85-0.07c-1.48-0.25-2.7-1.04-3.52-2.28
				l-0.08-0.13c-1.14-2.04-2.39-4.16-3.75-6.35c-1.14,2.45-2.46,4.68-3.94,6.67c-0.23,0.33-0.48,0.62-0.76,0.87
				c0.41,0.25,0.8,0.56,1.16,0.91c1.15,1.15,1.76,2.62,1.76,4.25v10.11h7.28c1.63,0,3.1,0.61,4.25,1.76s1.76,2.6,1.76,4.2
				s-0.61,3.05-1.76,4.2s-2.62,1.76-4.25,1.76h-7.28v15.92c0.73,0.06,1.45,0.1,2.2,0.1c1.63,0,4.21-0.03,7.68-0.1
				c0.02,0,0.13-0.01,0.24-0.01c1.55,0,2.86,0.71,3.78,2.04c0.61,0.81,0.94,1.77,0.94,2.8c0,0.54-0.1,1.08-0.3,1.61
				c-0.44,1.52-1.29,2.81-2.53,3.84c-1.31,1.08-2.81,1.63-4.45,1.63h-6.15c-5.14,0-9.58-1.02-13.18-3.04
				c-2.77-1.55-5.21-4.04-7.3-7.45c-1.04,2.96-2.24,5.59-3.58,7.85c-0.87,1.41-2.17,2.22-3.77,2.38c-0.19,0.02-0.39,0.03-0.57,0.03
				c-1.31,0-2.52-0.47-3.51-1.37c-0.24-0.2-0.46-0.42-0.67-0.65c-0.27,0.61-0.65,1.17-1.13,1.68
				C804.76,172.69,803.35,173.3,801.77,173.3z M807.68,116.29c-0.13,0.28-0.2,0.63-0.2,1v43.15c2.91-6.71,4.55-16.82,4.89-30.11
				c0-1.53,0.62-2.96,1.79-4.08c1.12-1.07,2.51-1.63,4.04-1.63l0.19,0c1.61,0.05,3.02,0.7,4.1,1.87c1.08,1.18,1.6,2.63,1.5,4.21
				c-0.19,4-0.43,7.48-0.69,10.32c-0.05,0.47-0.02,0.92,0.07,1.37c0.75,3.45,1.68,6.39,2.78,8.81v-28.92c0-1.63,0.61-3.1,1.76-4.25
				c0.26-0.26,0.53-0.49,0.82-0.69c-0.29-0.2-0.56-0.43-0.82-0.68c-1.09-1.19-1.66-2.54-1.75-4.08c-0.06-0.96,0.07-1.86,0.38-2.71
				c-0.01,0-0.21,0-0.21,0c-1.46-0.05-2.65-0.68-3.41-1.8c-1.32,3.54-2.86,6.73-4.58,9.5c-0.86,1.4-2.22,2.2-3.92,2.31
				c-0.13,0.01-0.25,0.01-0.38,0.01c-1.46,0-2.77-0.54-3.79-1.57c-0.97-0.89-1.61-2.06-1.87-3.45
				C808.13,115.34,807.9,115.82,807.68,116.29z M780.24,105.14V93.8h-7.62v11.33H780.24z"/>
			<path class="st25" d="M863.49,171.15c-1.38,0-2.61-0.54-3.57-1.57c-1.08-1.02-1.84-2.25-2.26-3.68l-0.03-0.12l-0.02-0.12
				c-0.08-0.5-0.13-1.03-0.13-1.6c0-0.9,0.18-1.81,0.53-2.7c3.08-7.43,4.64-17.62,4.64-30.31c0-0.98-0.03-2.02-0.09-3.11l0-0.12
				c0-1.58,0.6-2.99,1.74-4.08c1.05-1.01,2.37-1.54,3.81-1.54c0.1,0,0.21,0,0.32,0.01c1.62,0.02,3.07,0.65,4.21,1.83
				c1.13,1.18,1.73,2.66,1.73,4.27v2.15c0,1.74-0.03,3.57-0.1,5.44c0,0.37,0.06,0.77,0.19,1.15c0.62,1.99,1.31,3.81,2.06,5.45
				v-23.33h-11.57c-1.63,0-3.12-0.63-4.3-1.81c-1.18-1.18-1.81-2.68-1.81-4.34c0-1.68,0.64-3.17,1.84-4.32
				c1.18-1.13,2.65-1.73,4.27-1.73h9.91v-6.25h-7.57c-1.63,0-3.1-0.61-4.25-1.76s-1.76-2.62-1.76-4.25s0.61-3.1,1.76-4.25
				s2.62-1.76,4.25-1.76h7.57V83.8c0-1.63,0.62-3.11,1.81-4.29c1.18-1.18,2.68-1.81,4.34-1.81c1.66,0,3.16,0.62,4.34,1.81
				c1.18,1.19,1.81,2.67,1.81,4.3v4.93h5.75c0.25-1.79,1.05-3.38,2.41-4.74c1.65-1.65,3.69-2.49,6.05-2.49h36.82
				c1.63,0,3.1,0.61,4.25,1.76s1.76,2.62,1.76,4.25s-0.61,3.1-1.76,4.25s-2.62,1.76-4.25,1.76h-11.77v3.91h16.75
				c2.22,0,3.96,0.18,5.32,0.56l0.11,0.03l0.1,0.04c1.03,0.41,1.87,1.09,2.48,2.02c0.64,0.97,0.92,2.08,0.82,3.32
				c-1.45,13.9-4.05,25.67-7.75,35.04l-0.02,0.04c2.04,3.4,4.26,6.27,6.58,8.53c1.17,1.17,1.78,2.64,1.78,4.27
				c0,1.45-0.48,2.77-1.44,3.92c-1.06,1.25-2.4,1.98-3.98,2.17c-0.23,0.03-0.47,0.04-0.69,0.04c-1.41,0-2.7-0.55-3.74-1.59
				c-1.64-1.69-3.18-3.57-4.61-5.62c-1.09,1.59-2.18,3.06-3.27,4.39c-1.03,1.21-2.34,1.84-3.81,1.84c-0.22,0-0.44-0.01-0.67-0.04
				c-1.58-0.19-2.93-0.95-3.9-2.19c-0.02-0.02-0.04-0.05-0.06-0.07v0.28c0,1.32-0.42,2.53-1.22,3.55
				c9.53-0.03,16.79-0.09,21.64-0.18c0,0,0,0,0,0c1.82,0,3.33,0.84,4.27,2.36c0.93,1.5,1.05,3.12,0.35,4.7
				c-0.66,1.76-1.73,3.21-3.19,4.31c-1.52,1.14-3.24,1.72-5.11,1.72h-31.84c-10.92,0-19.67-1.16-26.02-3.44
				c-5.43-1.95-10.02-5.41-13.67-10.3c-1.02,4.14-2.37,7.97-4.02,11.43c-0.66,1.44-1.94,2.36-3.59,2.58l-0.13,0.02H863.49z
				 M888.63,154.81c4.78,2.09,12.42,3.16,22.71,3.16c1.63,0,3.22,0,4.76,0c-0.78-1.02-1.2-2.24-1.2-3.56v-6.15
				c-1.38,0.31-2.83,0.65-4.31,1.01c-1.99,0.49-4.14,1.01-6.46,1.57c-2.27,0.54-4.01,0.98-5.15,1.3c-0.53,0.13-1.01,0.19-1.48,0.19
				c-1.08,0-2.11-0.31-3.07-0.93c-1.35-0.87-2.25-2.17-2.58-3.76c-0.34-1.58-0.06-3.12,0.81-4.47c0.88-1.37,2.18-2.25,3.76-2.55
				l1.49-0.31v-4.54c-0.2,0.29-0.43,0.56-0.69,0.81c-1.15,1.15-2.65,1.76-4.34,1.76h-4.25V154.81z M926.43,145.67
				c1.91-2.22,3.59-4.75,5.01-7.52l0.06-0.11c-1.91-4.33-3.61-9.22-5.06-14.6V145.67z M909.34,138.07c1.52-0.33,3.37-0.74,5.57-1.23
				v-8.17h-5.57V138.07z M892.88,126.33c1.69,0,3.19,0.61,4.34,1.76c0.26,0.26,0.49,0.53,0.69,0.81v-11.42
				c-1.13,1.12-2.6,1.71-4.25,1.71h-5.03v7.13H892.88z M932.25,108.94c1.21,0.74,2.01,1.85,2.33,3.21
				c0.75,3.56,1.63,6.95,2.63,10.15c1.01-4.08,1.83-8.59,2.46-13.46h-7.58C932.14,108.87,932.2,108.91,932.25,108.94z
				 M914.91,117.44v-6.55h-5.57v6.55H914.91z M926.43,109.2c0.18-0.13,0.36-0.25,0.56-0.35h-0.56V109.2z M893.67,106.99
				c1.65,0,3.11,0.58,4.25,1.67V93.52c-0.26,1.82-1.09,3.41-2.46,4.75c-1.68,1.64-3.7,2.47-5.99,2.47h-2.3v6.25H893.67z
				 M914.91,99.57v-6.06h-5.57v6.06H914.91z"/>
		</g>
	</g>
</g>
</svg>
