<?xml version="1.0" encoding="utf-8"?>
<!-- Generator: Adobe Illustrator 23.0.5, SVG Export Plug-In . SVG Version: 6.00 Build 0)  -->
<svg version="1.1" id="圖層_1" xmlns="http://www.w3.org/2000/svg" xmlns:xlink="http://www.w3.org/1999/xlink" x="0px" y="0px"
	 viewBox="0 0 1920 1080" style="enable-background:new 0 0 1920 1080;" xml:space="preserve">
<style type="text/css">
	.st0{fill:#BDF984;}
	.st1{fill:#7F9049;}
	.st2{fill:#59D3EF;}
	.st3{fill:#34A8D0;}
	.st4{fill:#FFFFFF;}
	.st5{fill:#99AE5E;}
</style>
<g>
	<rect y="17" class="st0" width="1920" height="1079"/>
</g>
<ellipse class="st1" cx="1455.5" cy="489.5" rx="9.5" ry="4.5"/>
<ellipse class="st1" cx="1521.5" cy="500.5" rx="9.5" ry="4.5"/>
<path class="st2" d="M1920-16H0c0,85.9,0,171.7,0,257.6c36.7-12.9,90-30.1,157.3-46.6c99.8-24.4,293.3-64.8,547-56.5
	c489.9,16,717.4,195.6,857.7,61.1c45-43.2,66.8-105,137-118.9c94.4-18.7,220,60.5,220,60.5s0.3,3,1,8.7V-16z"/>
<g>
	<path class="st3" d="M607.6,77.8c-0.4-0.7-4.4-7-11.6-7.4c-6.4-0.4-10.6,4.2-11.3,5c0.1-1,0.2-2.1,0.3-3.1c0.9-1,4.4-4.9,9.9-5.1
		c7.9-0.4,12.6,7,12.9,7.6C607.8,75.8,607.7,76.8,607.6,77.8z"/>
	<path class="st3" d="M629,68.5c-0.7-0.4-6.7-4.1-13.3-0.7c-5.9,3-7.8,9.2-8.1,10.2c-0.3-1-0.7-1.9-1-2.9c0.4-1.3,2-6.6,6.8-9.7
		c6.9-4.4,14-0.2,14.5,0.2C628.3,66.6,628.7,67.5,629,68.5z"/>
</g>
<g>
	<path class="st3" d="M107.6,177.8c-0.4-0.7-4.4-7-11.6-7.4c-6.4-0.4-10.6,4.2-11.3,5c0.1-1,0.2-2.1,0.3-3.1c0.9-1,4.4-4.9,9.9-5.1
		c7.9-0.4,12.6,7,12.9,7.6C107.8,175.8,107.7,176.8,107.6,177.8z"/>
	<path class="st3" d="M129,168.5c-0.7-0.4-6.7-4.1-13.3-0.7c-5.9,3-7.8,9.2-8.1,10.2c-0.3-1-0.7-1.9-1-2.9c0.4-1.3,2-6.6,6.8-9.7
		c6.9-4.4,14-0.2,14.5,0.2C128.3,166.6,128.7,167.5,129,168.5z"/>
</g>
<g>
	<path class="st3" d="M454.6,134.8c-0.4-0.7-4.4-7-11.6-7.4c-6.4-0.4-10.6,4.2-11.3,5c0.1-1,0.2-2.1,0.3-3.1c0.9-1,4.4-4.9,9.9-5.1
		c7.9-0.4,12.6,7,12.9,7.6C454.8,132.8,454.7,133.8,454.6,134.8z"/>
	<path class="st3" d="M476,125.5c-0.7-0.4-6.7-4.1-13.3-0.7c-5.9,3-7.8,9.2-8.1,10.2c-0.3-1-0.7-1.9-1-2.9c0.4-1.3,2-6.6,6.8-9.7
		c6.9-4.4,14-0.2,14.5,0.2C475.3,123.6,475.7,124.5,476,125.5z"/>
</g>
<g>
	<path class="st3" d="M1096.6,109.8c-0.4-0.7-4.4-7-11.6-7.4c-6.4-0.4-10.6,4.2-11.3,5c0.1-1,0.2-2.1,0.3-3.1c0.9-1,4.4-4.9,9.9-5.1
		c7.9-0.4,12.6,7,12.9,7.6C1096.8,107.8,1096.7,108.8,1096.6,109.8z"/>
	<path class="st3" d="M1118,100.5c-0.7-0.4-6.7-4.1-13.3-0.7c-5.9,3-7.8,9.2-8.1,10.2c-0.3-1-0.7-1.9-1-2.9c0.4-1.3,2-6.6,6.8-9.7
		c6.9-4.4,14-0.2,14.5,0.2C1117.3,98.6,1117.7,99.5,1118,100.5z"/>
</g>
<path class="st4" d="M387.3,112c3-3.5,4.7-7.4,4.7-11.5c0-13.4-17.9-24.4-40.6-25.4C340.8,58.1,313.3,46,281,46
	c-35.9,0-65.8,14.9-73.2,34.9C204,80.3,200.1,80,196,80c-24.3,0-44,11.2-44,25c0,2.4,0.6,4.8,1.8,7H387.3z"/>
<path class="st4" d="M1526,193c-0.4-26-31.6-47-70-47c-7.8,0-15.3,0.9-22.3,2.5c-10.7-22.6-36.3-38.5-66.2-38.5
	c-39.5,0-71.5,27.8-71.5,62c0,7.4,1.5,14.4,4.2,21H1526z"/>
<path class="st4" d="M744,131.5c0.4-23,28.9-41.4,64-41.3c7.1,0,14,0.8,20.4,2.2c9.8-19.9,33.2-33.9,60.5-33.8
	c36,0.1,65.2,24.7,65.1,54.9c0,6.5-1.4,12.8-3.9,18.5L744,131.5z"/>
<path class="st5" d="M1920,342.29c-31.11-11.92-70.04-20.27-111.5-11.79c-74.8,15.3-86.64,70.84-162,113
	c-100.41,56.18-143.62-6.48-285,34c-128.85,36.9-113.71,94.89-241,129c-127.29,34.11-151.94-21.34-272,20
	c-101.57,34.97-107.64,82.81-202,97c-90.85,13.66-102.09-28.15-183-10c-97.22,21.81-98.66,86.13-200,105
	c-65.44,12.18-86.05-10.42-146,9c-55.16,17.87-93.04,55.61-117,86l0.46,112.54c55.99-88.79,113.3-119.97,156.54-131.54
	c75.42-20.19,104.74,20.15,174-10c71.16-30.98,89.48-95.01,151-92c6.72,0.33,24.75,3.6,60.81,10.14
	c35.25,6.39,49.54,9.12,72.97,10.84c12.97,0.95,28.15,0.7,47.22-1.98c128.99-18.09,134-99.65,258-115c84.03-10.4,98.78,25.78,195,6
	c63.41-13.04,113.41-40.34,138-54c75-41.65,73.82-63.09,122-88c103.05-53.28,152.06,22.28,264-17
	c106.97-37.54,125.46-128.74,213-126c26.22,0.82,48.8,9.76,66.5,19.9V342.29z"/>
<ellipse transform="matrix(0.9829 -0.1841 0.1841 0.9829 -163.834 24.9918)" class="st1" cx="52.67" cy="894.8" rx="8.5" ry="4"/>
<ellipse transform="matrix(0.9829 -0.1841 0.1841 0.9829 -161.2501 36.8217)" class="st1" cx="117.67" cy="886.8" rx="8.5" ry="4"/>
<ellipse transform="matrix(0.9829 -0.1841 0.1841 0.9829 -152.5988 44.003)" class="st1" cx="160.67" cy="843.8" rx="8.5" ry="4"/>
<ellipse transform="matrix(0.9829 -0.1841 0.1841 0.9829 -156.2363 58.8244)" class="st1" cx="238.67" cy="870.8" rx="8.5" ry="4"/>
<ellipse transform="matrix(0.9829 -0.1841 0.1841 0.9829 -147.8428 71.229)" class="st1" cx="309.67" cy="831.8" rx="8.5" ry="4"/>
<ellipse transform="matrix(0.9829 -0.1841 0.1841 0.9829 -144.0991 85.5508)" class="st1" cx="388.67" cy="818.8" rx="8.5" ry="4"/>
<ellipse transform="matrix(0.9829 -0.1841 0.1841 0.9829 -133.0755 90.2837)" class="st1" cx="419.67" cy="761.8" rx="8.5" ry="4"/>
<ellipse transform="matrix(0.9829 -0.1841 0.1841 0.9829 -133.3176 103.6757)" class="st1" cx="491.67" cy="769.8" rx="8.5" ry="4"/>
<ellipse transform="matrix(0.9829 -0.1841 0.1841 0.9829 -127.0727 112.9374)" class="st1" cx="544.67" cy="740.8" rx="8.5" ry="4"/>
<ellipse transform="matrix(0.9829 -0.1841 0.1841 0.9829 -133.6124 124.5002)" class="st1" cx="603.67" cy="781.8" rx="8.5" ry="4"/>
<ellipse transform="matrix(0.9829 -0.1841 0.1841 0.9829 -125.6897 135.8343)" class="st1" cx="668.67" cy="744.8" rx="8.5" ry="4"/>
<ellipse transform="matrix(0.9829 -0.1841 0.1841 0.9829 -127.7254 147.9074)" class="st1" cx="732.67" cy="761.8" rx="8.5" ry="4"/>
<ellipse transform="matrix(0.9829 -0.1841 0.1841 0.9829 -116.9543 151.9209)" class="st1" cx="759.67" cy="705.8" rx="8.5" ry="4"/>
<ellipse transform="matrix(0.9829 -0.1841 0.1841 0.9829 -115.0214 164.7397)" class="st1" cx="829.67" cy="701.8" rx="8.5" ry="4"/>
<ellipse transform="matrix(0.9829 -0.1841 0.1841 0.9829 -106.3095 168.573)" class="st1" cx="854.67" cy="656.8" rx="8.5" ry="4"/>
<ellipse transform="matrix(0.9829 -0.1841 0.1841 0.9829 -108.9318 180.3292)" class="st1" cx="916.67" cy="676.8" rx="8.5" ry="4"/>
<ellipse transform="matrix(0.9829 -0.1841 0.1841 0.9829 -100.6999 186.9924)" class="st1" cx="956.67" cy="635.8" rx="8.5" ry="4"/>
<ellipse transform="matrix(0.9829 -0.1841 0.1841 0.9829 -106.9319 201.869)" class="st1" cx="1033.67" cy="676.8" rx="8.5" ry="4"/>
<ellipse transform="matrix(0.9829 -0.1841 0.1841 0.9829 -98.9237 214.1237)" class="st1" cx="1103.67" cy="639.8" rx="8.5" ry="4"/>
<ellipse transform="matrix(0.9829 -0.1841 0.1841 0.9829 -100.1547 226.8648)" class="st1" cx="1171.67" cy="652.8" rx="8.5" ry="4"/>
<ellipse transform="matrix(0.9829 -0.1841 0.1841 0.9829 -88.8063 235.0956)" class="st1" cx="1221.67" cy="595.8" rx="8.5" ry="4"/>
<ellipse transform="matrix(0.9829 -0.1841 0.1841 0.9829 -86.1199 248.03)" class="st1" cx="1292.67" cy="587.8" rx="8.5" ry="4"/>
<ellipse transform="matrix(0.9829 -0.1841 0.1841 0.9829 -72.3098 256.775)" class="st1" cx="1346.67" cy="517.8" rx="8.5" ry="4"/>
<ellipse transform="matrix(0.9829 -0.1841 0.1841 0.9829 -71.8497 269.7305)" class="st1" cx="1416.67" cy="521.8" rx="8.5" ry="4"/>
<ellipse transform="matrix(0.9829 -0.1841 0.1841 0.9829 -64.7107 282.6229)" class="st1" cx="1489.67" cy="489.8" rx="8.5" ry="4"/>
<ellipse transform="matrix(0.9829 -0.1841 0.1841 0.9829 -70.0051 297.5981)" class="st1" cx="1567.67" cy="525.8" rx="8.5" ry="4"/>
<ellipse transform="matrix(0.9829 -0.1841 0.1841 0.9829 -60.6266 308.6115)" class="st1" cx="1631.67" cy="480.8" rx="8.5" ry="4"/>
<ellipse transform="matrix(0.9829 -0.1841 0.1841 0.9829 -60.1836 321.3828)" class="st1" cx="1700.67" cy="484.8" rx="8.5" ry="4"/>
<ellipse transform="matrix(0.9829 -0.1841 0.1841 0.9829 -48.7102 324.9598)" class="st1" cx="1725.67" cy="424.8" rx="8.5" ry="4"/>
<ellipse transform="matrix(0.9829 -0.1841 0.1841 0.9829 -42.8296 336.2979)" class="st1" cx="1789.67" cy="398.8" rx="8.5" ry="4"/>
<ellipse transform="matrix(0.9829 -0.1841 0.1841 0.9829 -35.0778 345.791)" class="st1" cx="1844.67" cy="361.8" rx="8.5" ry="4"/>
<ellipse transform="matrix(0.9829 -0.1841 0.1841 0.9829 -41.1204 354.708)" class="st1" cx="1889.67" cy="398.8" rx="8.5" ry="4"/>
</svg>
