<?xml version="1.0" encoding="utf-8"?>
<!-- Generator: Adobe Illustrator 23.0.5, SVG Export Plug-In . SVG Version: 6.00 Build 0)  -->
<svg version="1.1" id="圖層_1" xmlns="http://www.w3.org/2000/svg" xmlns:xlink="http://www.w3.org/1999/xlink" x="0px" y="0px"
	 viewBox="0 0 1600 900" style="enable-background:new 0 0 1600 900;" xml:space="preserve">
<style type="text/css">
	.st0{fill:#BDF984;}
	.st1{fill:#70BAFC;}
	.st2{fill:#59D3EF;}
	.st3{fill:#34A8D0;}
	.st4{fill:#FFFFFF;}
	.st5{fill:#758F52;}
	.st6{fill:#5C9261;}
	.st7{fill:#A9DCA7;}
	.st8{fill:#4CB101;}
	.st9{fill:#EF326B;}
	.st10{fill:#F0FE8D;}
	.st11{fill:#EFFE8B;}
	.st12{fill:#FCCE02;}
	.st13{fill:#73A486;}
	.st14{fill:#6C9C82;}
	.st15{fill:#FE5C84;}
	.st16{fill:#DEDD3B;}
	.st17{fill:#A0F9A6;}
	.st18{fill:#BEBEBF;}
	.st19{fill:#52CC52;}
	.st20{fill:#B1B1B1;}
	.st21{fill:#60E863;}
	.st22{fill:#967D2C;}
	.st23{fill:#3D9E15;}
</style>
<rect x="0" y="2" class="st0" width="1598.17" height="899"/>
<ellipse class="st1" cx="844.45" cy="811.02" rx="121.94" ry="74.99"/>
<path class="st2" d="M1599,3.67H0.83c0,71.55,0,143.09,0,214.64c30.54-10.76,74.88-25.1,130.93-38.8
	c83.07-20.3,244.15-53.96,455.29-47.06c407.76,13.33,597.12,162.99,713.94,50.87c37.46-35.95,55.64-87.48,114.04-99.06
	c78.56-15.58,183.12,50.37,183.12,50.37s0.28,2.46,0.83,7.26L1599,3.67L1599,3.67z"/>
<g>
	<path class="st3" d="M505.76,53.53c-0.37-0.62-3.66-5.87-9.66-6.2c-5.34-0.29-8.81,3.53-9.37,4.17c0.07-0.86,0.14-1.71,0.21-2.57
		c0.72-0.83,3.66-4.07,8.25-4.29c6.57-0.32,10.49,5.86,10.77,6.32C505.89,51.82,505.83,52.67,505.76,53.53z"/>
	<path class="st3" d="M523.57,45.73c-0.57-0.37-5.57-3.37-11.05-0.6c-4.89,2.47-6.5,7.67-6.75,8.53c-0.27-0.8-0.54-1.6-0.82-2.4
		c0.32-1.11,1.69-5.52,5.7-8.07c5.75-3.65,11.67-0.14,12.1,0.13C523.03,44.13,523.29,44.93,523.57,45.73z"/>
</g>
<g>
	<path class="st3" d="M89.57,136.85c-0.37-0.62-3.66-5.87-9.66-6.2c-5.34-0.29-8.81,3.53-9.37,4.17c0.07-0.86,0.14-1.71,0.21-2.57
		c0.72-0.83,3.66-4.07,8.25-4.29c6.57-0.32,10.49,5.86,10.77,6.32C89.71,135.14,89.64,135.99,89.57,136.85z"/>
	<path class="st3" d="M107.38,129.04c-0.57-0.37-5.57-3.37-11.05-0.6c-4.89,2.47-6.5,7.67-6.75,8.53c-0.27-0.8-0.54-1.6-0.82-2.4
		c0.32-1.11,1.69-5.52,5.7-8.07c5.75-3.65,11.67-0.14,12.1,0.13C106.84,127.44,107.1,128.24,107.38,129.04z"/>
</g>
<g>
	<path class="st3" d="M378.41,101.02c-0.37-0.62-3.66-5.87-9.66-6.2c-5.34-0.29-8.81,3.53-9.37,4.17c0.07-0.86,0.14-1.71,0.21-2.57
		c0.72-0.83,3.66-4.07,8.25-4.29c6.57-0.32,10.49,5.86,10.77,6.32C378.54,99.32,378.47,100.17,378.41,101.02z"/>
	<path class="st3" d="M396.21,93.22c-0.57-0.37-5.57-3.37-11.05-0.6c-4.89,2.47-6.5,7.67-6.75,8.53c-0.27-0.8-0.54-1.6-0.82-2.4
		c0.32-1.11,1.69-5.52,5.7-8.07c5.75-3.65,11.67-0.14,12.1,0.13C395.67,91.62,395.94,92.42,396.21,93.22z"/>
</g>
<g>
	<path class="st3" d="M912.8,80.19c-0.37-0.62-3.66-5.87-9.66-6.2c-5.34-0.29-8.81,3.53-9.37,4.17c0.07-0.86,0.14-1.71,0.21-2.57
		c0.72-0.83,3.66-4.07,8.25-4.29c6.57-0.32,10.49,5.86,10.77,6.32C912.93,78.49,912.86,79.34,912.8,80.19z"/>
	<path class="st3" d="M930.6,72.39c-0.57-0.37-5.57-3.37-11.05-0.6c-4.89,2.47-6.5,7.67-6.75,8.53c-0.27-0.8-0.54-1.6-0.82-2.4
		c0.32-1.11,1.69-5.52,5.7-8.07c5.75-3.65,11.67-0.14,12.1,0.13C930.06,70.79,930.33,71.59,930.6,72.39z"/>
</g>
<path class="st4" d="M322.36,81.99c2.51-2.88,3.94-6.13,3.94-9.58c0-11.19-14.91-20.35-33.82-21.18C283.67,37.09,260.78,27,233.9,27
	c-29.86,0-54.8,12.46-60.96,29.09c-3.12-0.49-6.4-0.76-9.8-0.76c-20.23,0-36.62,9.32-36.62,20.83c0,2.02,0.52,3.98,1.46,5.83H322.36
	z"/>
<path class="st4" d="M1270.19,149.47c-0.33-21.66-26.28-39.16-58.25-39.16c-6.5,0-12.75,0.73-18.6,2.07
	c-8.89-18.8-30.19-32.06-55.07-32.06c-32.87,0-59.52,23.13-59.52,51.66c0,6.14,1.24,12.03,3.5,17.5H1270.19z"/>
<path class="st4" d="M619.29,124.86c0.35-19.14,24.07-34.53,53.26-34.45c5.93,0.02,11.64,0.68,16.96,1.87
	c8.16-16.6,27.64-28.25,50.34-28.19c30,0.07,54.27,20.57,54.2,45.77c-0.02,5.42-1.17,10.62-3.25,15.45L619.29,124.86z"/>
<g>
	<rect x="317.88" y="509.74" class="st5" width="5.18" height="29.66"/>
	<path class="st6" d="M334.55,493.49c2.52-1.64,4.05-3.72,4.05-6c0-3.89-4.44-7.24-10.81-8.72c3.4-1.33,5.63-3.57,5.63-6.12
		c0-4.1-5.79-7.42-12.95-7.42c-7.16,0-12.95,3.32-12.95,7.42c0,2.54,2.23,4.77,5.63,6.12c-6.37,1.48-10.81,4.82-10.81,8.72
		c0,2.27,1.51,4.36,4.05,6c-5.59,2.52-9.22,6.48-9.22,10.96c0,7.61,10.44,13.77,23.31,13.77c12.87,0,23.31-6.17,23.31-13.77
		C343.77,499.97,340.14,496.01,334.55,493.49z"/>
</g>
<g>
	<path class="st4" d="M393.83,604.34c1.73-0.23,3.86-0.42,6.31-0.42c2.76-0.01,5.13,0.21,7.01,0.47c0-1.11,0.01-2.22,0.01-3.32
		c-1.86-0.19-4.04-0.33-6.46-0.35c-2.59-0.02-4.89,0.12-6.86,0.31C393.84,602.11,393.83,603.23,393.83,604.34z"/>
	<path class="st4" d="M379.68,604.34c1.73-0.23,3.86-0.42,6.31-0.42c2.76-0.01,5.13,0.21,7.01,0.47c0-1.11,0.01-2.22,0.01-3.32
		c-1.86-0.19-4.04-0.33-6.46-0.35c-2.59-0.02-4.89,0.12-6.86,0.31C379.69,602.11,379.68,603.23,379.68,604.34z"/>
	<g>
		<ellipse class="st7" cx="398.29" cy="649.38" rx="86.15" ry="39.99"/>
		<path class="st4" d="M316.85,636.88h-1.08c-1.54,0-2.79-1.25-2.79-2.79v-16.91c0-1.54,1.25-2.79,2.79-2.79h1.08
			c1.54,0,2.79,1.25,2.79,2.79v16.91C319.63,635.63,318.38,636.88,316.85,636.88z"/>
		<path class="st4" d="M326.83,631.05h-1.08c-1.54,0-2.79-1.25-2.79-2.79v-16.91c0-1.54,1.25-2.79,2.79-2.79h1.08
			c1.54,0,2.79,1.25,2.79,2.79v16.91C329.62,629.8,328.37,631.05,326.83,631.05z"/>
		<path class="st4" d="M340.15,623.55h-1.08c-1.54,0-2.79-1.25-2.79-2.79v-16.91c0-1.54,1.25-2.79,2.79-2.79h1.08
			c1.54,0,2.79,1.25,2.79,2.79v16.91C342.94,622.3,341.69,623.55,340.15,623.55z"/>
		<path class="st4" d="M352.64,617.72h-1.08c-1.54,0-2.79-1.25-2.79-2.79v-16.91c0-1.54,1.25-2.79,2.79-2.79h1.08
			c1.54,0,2.79,1.25,2.79,2.79v16.91C355.43,616.47,354.18,617.72,352.64,617.72z"/>
		<path class="st4" d="M365.96,616.05h-1.08c-1.54,0-2.79-1.25-2.79-2.79v-16.91c0-1.54,1.25-2.79,2.79-2.79h1.08
			c1.54,0,2.79,1.25,2.79,2.79v16.91C368.74,614.8,367.5,616.05,365.96,616.05z"/>
		<path class="st4" d="M380.11,614.39h-1.08c-1.54,0-2.79-1.25-2.79-2.79v-16.91c0-1.54,1.25-2.79,2.79-2.79h1.08
			c1.54,0,2.79,1.25,2.79,2.79v16.91C382.89,613.14,381.65,614.39,380.11,614.39z"/>
		<path class="st4" d="M394.26,613.55h-1.08c-1.54,0-2.79-1.25-2.79-2.79v-16.91c0-1.54,1.25-2.79,2.79-2.79h1.08
			c1.54,0,2.79,1.25,2.79,2.79v16.91C397.04,612.3,395.8,613.55,394.26,613.55z"/>
		<path class="st4" d="M409.24,614.39h-1.08c-1.54,0-2.79-1.25-2.79-2.79v-16.91c0-1.54,1.25-2.79,2.79-2.79h1.08
			c1.54,0,2.79,1.25,2.79,2.79v16.91C412.03,613.14,410.78,614.39,409.24,614.39z"/>
		<path class="st4" d="M422.56,616.89h-1.08c-1.54,0-2.79-1.25-2.79-2.79v-16.91c0-1.54,1.25-2.79,2.79-2.79h1.08
			c1.54,0,2.79,1.25,2.79,2.79v16.91C425.35,615.64,424.1,616.89,422.56,616.89z"/>
		<path class="st4" d="M436.71,620.22h-1.08c-1.54,0-2.79-1.25-2.79-2.79v-16.91c0-1.54,1.25-2.79,2.79-2.79h1.08
			c1.54,0,2.79,1.25,2.79,2.79v16.91C439.5,618.97,438.25,620.22,436.71,620.22z"/>
		<path class="st4" d="M449.19,624.38h-1.08c-1.54,0-2.79-1.25-2.79-2.79v-16.91c0-1.54,1.25-2.79,2.79-2.79h1.08
			c1.54,0,2.79,1.25,2.79,2.79v16.91C451.98,623.13,450.73,624.38,449.19,624.38z"/>
		<path class="st4" d="M461.68,628.55h-1.08c-1.54,0-2.79-1.25-2.79-2.79v-16.91c0-1.54,1.25-2.79,2.79-2.79h1.08
			c1.54,0,2.79,1.25,2.79,2.79v16.91C464.47,627.3,463.22,628.55,461.68,628.55z"/>
		<path class="st4" d="M473.33,631.88h-1.08c-1.54,0-2.79-1.25-2.79-2.79v-16.91c0-1.54,1.25-2.79,2.79-2.79h1.08
			c1.54,0,2.79,1.25,2.79,2.79v16.91C476.12,630.63,474.87,631.88,473.33,631.88z"/>
		<path class="st4" d="M408.41,691.04h-1.08c-1.54,0-2.79-1.25-2.79-2.79v-16.91c0-1.54,1.25-2.79,2.79-2.79h1.08
			c1.54,0,2.79,1.25,2.79,2.79v16.91C411.2,689.79,409.95,691.04,408.41,691.04z"/>
		<path class="st4" d="M481.66,641.88h-1.08c-1.54,0-2.79-1.25-2.79-2.79v-13.58c0-1.54,1.25-2.79,2.79-2.79h1.08
			c1.54,0,2.79,1.25,2.79,2.79v13.58C484.44,640.63,483.2,641.88,481.66,641.88z"/>
		<path class="st4" d="M477.93,634.62c1.33,1.13,2.9,2.59,4.54,4.4c1.85,2.04,3.28,3.95,4.35,5.52c0.82-0.74,1.65-1.48,2.47-2.22
			c-1.11-1.52-2.46-3.22-4.07-5.04c-1.72-1.93-3.36-3.56-4.83-4.89C479.58,633.13,478.75,633.87,477.93,634.62z"/>
		<path class="st4" d="M470.75,623.92c1.49,0.91,3.27,2.1,5.18,3.62c2.15,1.72,3.86,3.38,5.17,4.77c0.7-0.86,1.4-1.72,2.09-2.58
			c-1.33-1.32-2.94-2.8-4.81-4.33c-2.01-1.63-3.89-2.97-5.54-4.07C472.14,622.19,471.45,623.05,470.75,623.92z"/>
		<path class="st4" d="M459.56,616.65c1.62,0.65,3.57,1.54,5.7,2.73c2.4,1.34,4.36,2.71,5.88,3.86c0.55-0.97,1.1-1.92,1.65-2.89
			c-1.53-1.08-3.35-2.28-5.45-3.49c-2.24-1.28-4.32-2.31-6.13-3.11C460.66,614.72,460.11,615.69,459.56,616.65z"/>
		<path class="st4" d="M446.87,612.27c1.72,0.3,3.81,0.75,6.15,1.47c2.63,0.81,4.84,1.72,6.55,2.53c0.33-1.06,0.67-2.12,1-3.17
			c-1.72-0.74-3.75-1.52-6.06-2.26c-2.46-0.78-4.71-1.34-6.64-1.75C447.54,610.15,447.2,611.21,446.87,612.27z"/>
		<path class="st4" d="M434.39,608.94c1.72,0.3,3.81,0.75,6.15,1.47c2.63,0.81,4.84,1.72,6.55,2.53c0.33-1.06,0.67-2.12,1-3.17
			c-1.72-0.74-3.75-1.52-6.06-2.26c-2.46-0.78-4.71-1.34-6.64-1.75C435.05,606.82,434.72,607.88,434.39,608.94z"/>
		<path class="st4" d="M421.92,606.52c1.75,0.07,3.88,0.24,6.29,0.64c2.71,0.45,5.02,1.07,6.83,1.64c0.19-1.09,0.38-2.18,0.57-3.28
			c-1.81-0.5-3.93-1.01-6.31-1.43c-2.55-0.45-4.84-0.71-6.81-0.85C422.3,604.34,422.12,605.43,421.92,606.52z"/>
		<path class="st4" d="M408.66,604.42c1.75-0.03,3.89,0.02,6.32,0.27c2.74,0.29,5.08,0.77,6.92,1.24c0.12-1.1,0.25-2.21,0.37-3.31
			c-1.83-0.4-3.98-0.78-6.38-1.07c-2.56-0.3-4.88-0.42-6.85-0.45C408.91,602.21,408.78,603.32,408.66,604.42z"/>
		<path class="st4" d="M365.53,605.17c1.73-0.23,3.86-0.42,6.31-0.42c2.76-0.01,5.13,0.21,7.01,0.47c0-1.11,0.01-2.22,0.01-3.32
			c-1.86-0.19-4.04-0.33-6.46-0.35c-2.59-0.02-4.89,0.12-6.86,0.31C365.54,602.95,365.53,604.06,365.53,605.17z"/>
		<path class="st4" d="M351.03,608.11c1.66-0.57,3.7-1.17,6.1-1.66c2.7-0.55,5.07-0.81,6.97-0.92c-0.22-1.09-0.43-2.17-0.64-3.27
			c-1.86,0.17-4.03,0.47-6.4,0.93c-2.54,0.49-4.78,1.08-6.66,1.66C350.61,605.94,350.82,607.03,351.03,608.11z"/>
		<path class="st4" d="M339.74,613.74c1.59-0.73,3.57-1.55,5.9-2.28c2.62-0.82,4.96-1.32,6.83-1.63c-0.32-1.06-0.65-2.12-0.97-3.18
			c-1.84,0.37-3.95,0.87-6.28,1.58c-2.47,0.75-4.64,1.57-6.46,2.33C339.08,611.61,339.4,612.67,339.74,613.74z"/>
		<path class="st4" d="M326.25,622.12c1.45-0.97,3.28-2.1,5.46-3.19c2.46-1.23,4.69-2.1,6.48-2.71c-0.49-0.99-0.98-1.99-1.47-2.98
			c-1.76,0.66-3.77,1.5-5.94,2.57c-2.32,1.14-4.33,2.29-6,3.33C325.27,620.13,325.76,621.12,326.25,622.12z"/>
		<path class="st4" d="M317.78,629.45c1.3-1.17,2.95-2.53,4.96-3.92c2.26-1.57,4.35-2.73,6.05-3.57c-0.62-0.92-1.25-1.83-1.87-2.75
			c-1.65,0.9-3.52,2.01-5.53,3.37c-2.14,1.45-3.97,2.87-5.49,4.13C316.53,627.62,317.15,628.53,317.78,629.45z"/>
		<path class="st4" d="M314.83,643.6c0.22-1.73,0.57-3.85,1.17-6.22c0.68-2.67,1.49-4.92,2.21-6.67c-1.07-0.28-2.14-0.57-3.21-0.85
			c-0.66,1.76-1.34,3.82-1.96,6.17c-0.67,2.5-1.12,4.77-1.42,6.72C312.69,643.03,313.77,643.31,314.83,643.6z"/>
		<g>
			
				<ellipse transform="matrix(0.6409 -0.7676 0.7676 0.6409 -366.8893 482.7375)" class="st8" cx="332.53" cy="633.52" rx="2.08" ry="4.16"/>
			
				<ellipse transform="matrix(0.5493 -0.8356 0.8356 0.5493 -387.6051 566.8328)" class="st8" cx="331.66" cy="642.73" rx="2.67" ry="5.65"/>
			
				<ellipse transform="matrix(0.8356 -0.5493 0.5493 0.8356 -297.0483 292.8496)" class="st8" cx="340.8" cy="642.77" rx="5.65" ry="2.67"/>
			<g>
				<rect x="335.45" y="623.55" class="st8" width="1.66" height="22.5"/>
				
					<ellipse transform="matrix(0.7676 -0.6409 0.6409 0.7676 -327.0541 365.1494)" class="st8" cx="340" cy="633.57" rx="4.16" ry="2.08"/>
				<g>
					<path class="st9" d="M342.07,612.25l0.64,0.06c3.12,0.27,4.69,4.02,2.64,6.31l-0.64,0.72c-0.79,0.88-1.1,2.12-0.82,3.31
						l0.25,1.06c0.72,3.02-2.28,5.45-5.12,4.15l-0.8-0.37c-1.15-0.52-2.46-0.46-3.5,0.18l-0.59,0.36c-2.65,1.62-6.09-0.62-5.78-3.74
						l0.07-0.7c0.12-1.23-0.37-2.47-1.32-3.31l-0.67-0.58c-2.36-2.07-1.46-5.86,1.52-6.47l1.04-0.22c1.17-0.24,2.14-1.04,2.6-2.15
						l0.37-0.89c1.17-2.86,5.16-3,6.73-0.23l0.32,0.57C339.66,611.4,340.81,612.14,342.07,612.25z"/>
					<ellipse class="st10" cx="335.77" cy="618.68" rx="2.68" ry="2.73"/>
				</g>
			</g>
		</g>
		<g>
			
				<ellipse transform="matrix(0.6409 -0.7676 0.7676 0.6409 -346.1474 510.4134)" class="st8" cx="372.48" cy="625.19" rx="2.08" ry="4.16"/>
			
				<ellipse transform="matrix(0.5493 -0.8356 0.8356 0.5493 -362.6357 596.4636)" class="st8" cx="371.61" cy="634.4" rx="2.67" ry="5.65"/>
			
				<ellipse transform="matrix(0.8356 -0.5493 0.5493 0.8356 -285.9053 313.4269)" class="st8" cx="380.76" cy="634.44" rx="5.65" ry="2.67"/>
			<g>
				<rect x="375.4" y="615.22" class="st8" width="1.66" height="22.5"/>
				
					<ellipse transform="matrix(0.7676 -0.6409 0.6409 0.7676 -312.43 388.8214)" class="st8" cx="379.96" cy="625.24" rx="4.16" ry="2.08"/>
				<g>
					<path class="st9" d="M382.03,603.92l0.64,0.06c3.12,0.27,4.69,4.02,2.64,6.31l-0.64,0.72c-0.79,0.88-1.1,2.12-0.82,3.31
						l0.25,1.06c0.72,3.02-2.28,5.45-5.12,4.15l-0.8-0.37c-1.15-0.52-2.46-0.46-3.5,0.18l-0.59,0.36c-2.65,1.62-6.09-0.62-5.78-3.74
						l0.07-0.7c0.12-1.23-0.37-2.47-1.32-3.31l-0.67-0.58c-2.36-2.07-1.46-5.86,1.52-6.47l1.04-0.22c1.17-0.24,2.14-1.04,2.6-2.15
						l0.37-0.89c1.17-2.86,5.16-3,6.73-0.23l0.32,0.57C379.61,603.06,380.76,603.81,382.03,603.92z"/>
					<ellipse class="st10" cx="375.72" cy="610.35" rx="2.68" ry="2.73"/>
				</g>
			</g>
		</g>
		<g>
			
				<ellipse transform="matrix(0.6409 -0.7676 0.7676 0.6409 -330.1678 562.9005)" class="st8" cx="436.57" cy="634.35" rx="2.08" ry="4.16"/>
			
				<ellipse transform="matrix(0.5493 -0.8356 0.8356 0.5493 -341.4072 654.1506)" class="st8" cx="435.7" cy="643.56" rx="2.67" ry="5.65"/>
			
				<ellipse transform="matrix(0.8356 -0.5493 0.5493 0.8356 -280.406 350.1393)" class="st8" cx="444.85" cy="643.61" rx="5.65" ry="2.67"/>
			<g>
				<rect x="439.5" y="624.38" class="st8" width="1.66" height="22.5"/>
				
					<ellipse transform="matrix(0.7676 -0.6409 0.6409 0.7676 -303.4112 432.0306)" class="st8" cx="444.05" cy="634.41" rx="4.16" ry="2.08"/>
				<g>
					<path class="st9" d="M446.12,613.09l0.64,0.06c3.12,0.27,4.69,4.02,2.64,6.31l-0.64,0.72c-0.79,0.88-1.1,2.12-0.82,3.31
						l0.25,1.06c0.72,3.02-2.28,5.45-5.12,4.15l-0.8-0.37c-1.15-0.52-2.46-0.46-3.5,0.18l-0.59,0.36c-2.65,1.62-6.09-0.62-5.78-3.74
						l0.07-0.7c0.12-1.23-0.37-2.47-1.32-3.31l-0.67-0.58c-2.36-2.07-1.46-5.86,1.52-6.47l1.04-0.22c1.17-0.24,2.14-1.04,2.6-2.15
						l0.37-0.89c1.17-2.86,5.16-3,6.73-0.23l0.32,0.57C443.71,612.23,444.86,612.97,446.12,613.09z"/>
					<ellipse class="st10" cx="439.81" cy="619.51" rx="2.68" ry="2.73"/>
				</g>
			</g>
		</g>
		<g>
			
				<ellipse transform="matrix(0.6409 -0.7676 0.7676 0.6409 -335.8533 539.0833)" class="st8" cx="408.27" cy="628.52" rx="2.08" ry="4.16"/>
			
				<ellipse transform="matrix(0.5493 -0.8356 0.8356 0.5493 -349.2889 627.8737)" class="st8" cx="407.4" cy="637.73" rx="2.67" ry="5.65"/>
			
				<ellipse transform="matrix(0.8356 -0.5493 0.5493 0.8356 -281.8536 333.6352)" class="st8" cx="416.55" cy="637.77" rx="5.65" ry="2.67"/>
			<rect x="411.2" y="618.55" class="st8" width="1.66" height="22.5"/>
			
				<ellipse transform="matrix(0.7676 -0.6409 0.6409 0.7676 -306.2492 412.5364)" class="st8" cx="415.75" cy="628.58" rx="4.16" ry="2.08"/>
			<path class="st11" d="M417.82,607.25l0.64,0.06c3.12,0.27,4.69,4.02,2.64,6.31l-0.64,0.72c-0.79,0.88-1.1,2.12-0.82,3.31
				l0.25,1.06c0.72,3.02-2.28,5.45-5.12,4.15l-0.8-0.37c-1.15-0.52-2.46-0.46-3.5,0.18l-0.59,0.36c-2.65,1.62-6.09-0.62-5.78-3.74
				l0.07-0.7c0.12-1.23-0.37-2.47-1.32-3.31l-0.67-0.58c-2.36-2.07-1.46-5.86,1.52-6.47l1.04-0.22c1.17-0.24,2.14-1.04,2.6-2.15
				l0.37-0.89c1.17-2.86,5.16-3,6.73-0.23l0.32,0.57C415.41,606.4,416.56,607.14,417.82,607.25z"/>
			<ellipse class="st12" cx="411.51" cy="613.68" rx="2.68" ry="2.73"/>
		</g>
		<g>
			
				<ellipse transform="matrix(0.6409 -0.7676 0.7676 0.6409 -328.2778 586.9357)" class="st8" cx="463.21" cy="644.35" rx="2.08" ry="4.16"/>
			
				<ellipse transform="matrix(0.5493 -0.8356 0.8356 0.5493 -337.7568 680.914)" class="st8" cx="462.34" cy="653.56" rx="2.67" ry="5.65"/>
			
				<ellipse transform="matrix(0.8356 -0.5493 0.5493 0.8356 -281.5203 366.4136)" class="st8" cx="471.49" cy="653.61" rx="5.65" ry="2.67"/>
			<rect x="466.13" y="634.38" class="st8" width="1.66" height="22.5"/>
			
				<ellipse transform="matrix(0.7676 -0.6409 0.6409 0.7676 -303.6301 451.4258)" class="st8" cx="470.69" cy="644.41" rx="4.16" ry="2.08"/>
			<path class="st11" d="M472.76,623.08l0.64,0.06c3.12,0.27,4.69,4.02,2.64,6.31l-0.64,0.72c-0.79,0.88-1.1,2.12-0.82,3.31
				l0.25,1.06c0.72,3.02-2.28,5.45-5.12,4.15l-0.8-0.37c-1.15-0.52-2.46-0.46-3.5,0.18l-0.59,0.36c-2.65,1.62-6.09-0.62-5.78-3.74
				l0.07-0.7c0.12-1.23-0.37-2.47-1.32-3.31l-0.67-0.58c-2.36-2.07-1.46-5.86,1.52-6.47l1.04-0.22c1.17-0.24,2.14-1.04,2.6-2.15
				l0.37-0.89c1.17-2.86,5.16-3,6.73-0.23l0.32,0.57C470.34,622.23,471.49,622.97,472.76,623.08z"/>
			<ellipse class="st12" cx="466.45" cy="629.51" rx="2.68" ry="2.73"/>
		</g>
		<g>
			
				<ellipse transform="matrix(0.6409 -0.7676 0.7676 0.6409 -376.3854 507.4269)" class="st8" cx="354.17" cy="656.01" rx="2.08" ry="4.16"/>
			
				<ellipse transform="matrix(0.5493 -0.8356 0.8356 0.5493 -396.6487 595.0556)" class="st8" cx="353.3" cy="665.23" rx="2.67" ry="5.65"/>
			
				<ellipse transform="matrix(0.8356 -0.5493 0.5493 0.8356 -305.8484 308.4345)" class="st8" cx="362.45" cy="665.27" rx="5.65" ry="2.67"/>
			<g>
				<rect x="357.09" y="646.05" class="st8" width="1.66" height="22.5"/>
				
					<ellipse transform="matrix(0.7676 -0.6409 0.6409 0.7676 -336.4437 384.2477)" class="st8" cx="361.64" cy="656.07" rx="4.16" ry="2.08"/>
				<g>
					<path class="st9" d="M363.72,634.75l0.64,0.06c3.12,0.27,4.69,4.02,2.64,6.31l-0.64,0.72c-0.79,0.88-1.1,2.12-0.82,3.31
						l0.25,1.06c0.72,3.02-2.28,5.45-5.12,4.15l-0.8-0.37c-1.15-0.52-2.46-0.46-3.5,0.18l-0.59,0.36c-2.65,1.62-6.09-0.62-5.78-3.74
						l0.07-0.7c0.12-1.23-0.37-2.47-1.32-3.31l-0.67-0.58c-2.36-2.07-1.46-5.86,1.52-6.47l1.04-0.22c1.17-0.24,2.14-1.04,2.6-2.15
						l0.37-0.89c1.17-2.86,5.16-3,6.73-0.23l0.32,0.57C361.3,633.89,362.45,634.63,363.72,634.75z"/>
					<ellipse class="st10" cx="357.41" cy="641.17" rx="2.68" ry="2.73"/>
				</g>
			</g>
		</g>
		<g>
			
				<ellipse transform="matrix(0.6409 -0.7676 0.7676 0.6409 -365.4518 535.7976)" class="st8" cx="389.96" cy="658.51" rx="2.08" ry="4.16"/>
			
				<ellipse transform="matrix(0.5493 -0.8356 0.8356 0.5493 -382.6057 626.0904)" class="st8" cx="389.09" cy="667.73" rx="2.67" ry="5.65"/>
			
				<ellipse transform="matrix(0.8356 -0.5493 0.5493 0.8356 -301.339 328.5059)" class="st8" cx="398.24" cy="667.77" rx="5.65" ry="2.67"/>
			<rect x="392.88" y="648.55" class="st8" width="1.66" height="22.5"/>
			
				<ellipse transform="matrix(0.7676 -0.6409 0.6409 0.7676 -329.7288 407.769)" class="st8" cx="397.44" cy="658.57" rx="4.16" ry="2.08"/>
			<path class="st11" d="M399.51,637.25l0.64,0.06c3.12,0.27,4.69,4.02,2.64,6.31l-0.64,0.72c-0.79,0.88-1.1,2.12-0.82,3.31
				l0.25,1.06c0.72,3.02-2.28,5.45-5.12,4.15l-0.8-0.37c-1.15-0.52-2.46-0.46-3.5,0.18l-0.59,0.36c-2.65,1.62-6.09-0.62-5.78-3.74
				l0.07-0.7c0.12-1.23-0.37-2.47-1.32-3.31l-0.67-0.58c-2.36-2.07-1.46-5.86,1.52-6.47l1.04-0.22c1.17-0.24,2.14-1.04,2.6-2.15
				l0.37-0.89c1.17-2.86,5.16-3,6.73-0.23l0.32,0.57C397.09,636.39,398.24,637.13,399.51,637.25z"/>
			<ellipse class="st12" cx="393.2" cy="643.67" rx="2.68" ry="2.73"/>
		</g>
		<g>
			
				<ellipse transform="matrix(0.6409 -0.7676 0.7676 0.6409 -352.0436 566.1255)" class="st8" cx="429.08" cy="659.34" rx="2.08" ry="4.16"/>
			
				<ellipse transform="matrix(0.5493 -0.8356 0.8356 0.5493 -365.6698 659.1561)" class="st8" cx="428.21" cy="668.56" rx="2.67" ry="5.65"/>
			
				<ellipse transform="matrix(0.8356 -0.5493 0.5493 0.8356 -295.367 350.1322)" class="st8" cx="437.36" cy="668.6" rx="5.65" ry="2.67"/>
			<g>
				<rect x="432" y="649.38" class="st8" width="1.66" height="22.5"/>
				
					<ellipse transform="matrix(0.7676 -0.6409 0.6409 0.7676 -321.1724 433.0371)" class="st8" cx="436.56" cy="659.41" rx="4.16" ry="2.08"/>
				<g>
					<path class="st9" d="M438.63,638.08l0.64,0.06c3.12,0.27,4.69,4.02,2.64,6.31l-0.64,0.72c-0.79,0.88-1.1,2.12-0.82,3.31
						l0.25,1.06c0.72,3.02-2.28,5.45-5.12,4.15l-0.8-0.37c-1.15-0.52-2.46-0.46-3.5,0.18l-0.59,0.36c-2.65,1.62-6.09-0.62-5.78-3.74
						l0.07-0.7c0.12-1.23-0.37-2.47-1.32-3.31l-0.67-0.58c-2.36-2.07-1.46-5.86,1.52-6.47l1.04-0.22c1.17-0.24,2.14-1.04,2.6-2.15
						l0.37-0.89c1.17-2.86,5.16-3,6.73-0.23l0.32,0.57C436.22,637.22,437.37,637.97,438.63,638.08z"/>
					<ellipse class="st10" cx="432.32" cy="644.51" rx="2.68" ry="2.73"/>
				</g>
			</g>
		</g>
		<g>
			<path class="st4" d="M392.59,691.04h-1.08c-1.54,0-2.79-1.25-2.79-2.79v-16.91c0-1.54,1.25-2.79,2.79-2.79h1.08
				c1.54,0,2.79,1.25,2.79,2.79v16.91C395.38,689.79,394.13,691.04,392.59,691.04z"/>
			<path class="st4" d="M377.61,690.21h-1.08c-1.54,0-2.79-1.25-2.79-2.79V670.5c0-1.54,1.25-2.79,2.79-2.79h1.08
				c1.54,0,2.79,1.25,2.79,2.79v16.91C380.4,688.96,379.15,690.21,377.61,690.21z"/>
			<path class="st4" d="M363.46,687.71h-1.08c-1.54,0-2.79-1.25-2.79-2.79V668c0-1.54,1.25-2.79,2.79-2.79h1.08
				c1.54,0,2.79,1.25,2.79,2.79v16.91C366.25,686.46,365,687.71,363.46,687.71z"/>
			<path class="st4" d="M349.31,685.21h-1.08c-1.54,0-2.79-1.25-2.79-2.79V665.5c0-1.54,1.25-2.79,2.79-2.79h1.08
				c1.54,0,2.79,1.25,2.79,2.79v16.91C352.1,683.96,350.85,685.21,349.31,685.21z"/>
			<path class="st4" d="M335.99,680.21h-1.08c-1.54,0-2.79-1.25-2.79-2.79V660.5c0-1.54,1.25-2.79,2.79-2.79h1.08
				c1.54,0,2.79,1.25,2.79,2.79v16.91C338.78,678.96,337.53,680.21,335.99,680.21z"/>
			<path class="st4" d="M324.34,673.54h-1.08c-1.54,0-2.79-1.25-2.79-2.79v-16.91c0-1.54,1.25-2.79,2.79-2.79h1.08
				c1.54,0,2.79,1.25,2.79,2.79v16.91C327.12,672.29,325.88,673.54,324.34,673.54z"/>
			<path class="st4" d="M315.18,661.04h-1.08c-1.54,0-2.79-1.25-2.79-2.79v-16.91c0-1.54,1.25-2.79,2.79-2.79h1.08
				c1.54,0,2.79,1.25,2.79,2.79v16.91C317.97,659.79,316.72,661.04,315.18,661.04z"/>
			<path class="st4" d="M450.86,684.37h-1.08c-1.54,0-2.79-1.25-2.79-2.79v-16.91c0-1.54,1.25-2.79,2.79-2.79h1.08
				c1.54,0,2.79,1.25,2.79,2.79v16.91C453.65,683.12,452.4,684.37,450.86,684.37z"/>
			<path class="st4" d="M464.18,679.37h-1.08c-1.54,0-2.79-1.25-2.79-2.79v-16.91c0-1.54,1.25-2.79,2.79-2.79h1.08
				c1.54,0,2.79,1.25,2.79,2.79v16.91C466.96,678.12,465.72,679.37,464.18,679.37z"/>
			<path class="st4" d="M475.83,671.88h-1.08c-1.54,0-2.79-1.25-2.79-2.79v-16.91c0-1.54,1.25-2.79,2.79-2.79h1.08
				c1.54,0,2.79,1.25,2.79,2.79v16.91C478.62,670.63,477.37,671.88,475.83,671.88z"/>
			<path class="st4" d="M486.65,660.21h-1.08c-1.54,0-2.79-1.25-2.79-2.79v-16.91c0-1.54,1.25-2.79,2.79-2.79h1.08
				c1.54,0,2.79,1.25,2.79,2.79v16.91C489.44,658.96,488.19,660.21,486.65,660.21z"/>
			<path class="st4" d="M313.92,652.3c1.23,1.24,2.81,2.69,4.74,4.19c2.17,1.69,4.19,2.97,5.83,3.92c-0.67,0.88-1.35,1.76-2.02,2.64
				c-1.6-0.99-3.4-2.2-5.33-3.67c-2.06-1.57-3.8-3.08-5.24-4.44C312.57,654.06,313.24,653.18,313.92,652.3z"/>
			<path class="st4" d="M325.15,661.81c1.32,1.14,3,2.47,5.04,3.81c2.3,1.52,4.4,2.63,6.13,3.45c-0.6,0.93-1.21,1.86-1.81,2.79
				c-1.66-0.86-3.56-1.93-5.6-3.24c-2.17-1.4-4.03-2.78-5.57-4.02C323.95,663.67,324.55,662.74,325.15,661.81z"/>
			<path class="st4" d="M336.39,669.12c1.59,0.72,3.57,1.53,5.91,2.26c2.63,0.82,4.96,1.31,6.84,1.61
				c-0.32,1.06-0.64,2.12-0.97,3.18c-1.84-0.37-3.96-0.87-6.28-1.56c-2.47-0.74-4.64-1.55-6.47-2.31
				C335.75,671.24,336.06,670.18,336.39,669.12z"/>
			<path class="st4" d="M349.97,674.39c1.7,0.43,3.79,0.87,6.22,1.17c2.73,0.33,5.12,0.4,7.02,0.36c-0.12,1.1-0.25,2.21-0.38,3.31
				c-1.87-0.02-4.05-0.14-6.46-0.41c-2.57-0.29-4.84-0.69-6.78-1.11C349.72,676.59,349.85,675.49,349.97,674.39z"/>
			<path class="st4" d="M364.74,676.67c1.73,0.27,3.85,0.5,6.3,0.57c2.75,0.08,5.14-0.09,7.02-0.31c-0.02,1.11-0.04,2.22-0.07,3.32
				c-1.87,0.15-4.05,0.25-6.47,0.21c-2.58-0.04-4.89-0.22-6.85-0.47C364.7,678.9,364.72,677.78,364.74,676.67z"/>
			<path class="st4" d="M378.89,677.51c1.73,0.27,3.85,0.5,6.3,0.57c2.75,0.08,5.14-0.09,7.02-0.31c-0.02,1.11-0.04,2.22-0.07,3.32
				c-1.87,0.15-4.05,0.25-6.47,0.21c-2.58-0.04-4.89-0.22-6.85-0.47C378.85,679.73,378.87,678.62,378.89,677.51z"/>
			<path class="st4" d="M393.87,677.51c1.73,0.27,3.85,0.5,6.3,0.57c2.75,0.08,5.14-0.09,7.02-0.31c-0.02,1.11-0.04,2.22-0.07,3.32
				c-1.87,0.15-4.05,0.25-6.47,0.21c-2.58-0.04-4.89-0.22-6.85-0.47C393.83,679.73,393.86,678.62,393.87,677.51z"/>
			<path class="st4" d="M408.86,676.67c1.73,0.27,3.85,0.5,6.3,0.57c2.75,0.08,5.14-0.09,7.02-0.31c-0.02,1.11-0.04,2.22-0.07,3.32
				c-1.87,0.15-4.05,0.25-6.47,0.21c-2.58-0.04-4.89-0.22-6.85-0.47C408.81,678.9,408.84,677.78,408.86,676.67z"/>
			<path class="st4" d="M423.74,675.39c1.74,0.17,3.88,0.28,6.32,0.21c2.75-0.08,5.12-0.38,6.99-0.71c0.04,1.11,0.08,2.22,0.12,3.32
				c-1.86,0.26-4.03,0.47-6.44,0.57c-2.58,0.1-4.89,0.05-6.87-0.08C423.82,677.61,423.78,676.5,423.74,675.39z"/>
			<path class="st4" d="M436.9,673.93c1.75-0.09,3.88-0.31,6.28-0.75c2.71-0.5,5-1.15,6.8-1.76c0.21,1.09,0.42,2.17,0.62,3.27
				c-1.8,0.53-3.9,1.08-6.28,1.54c-2.54,0.49-4.83,0.79-6.8,0.97C437.32,676.11,437.11,675.02,436.9,673.93z"/>
			<path class="st4" d="M450.2,669.68c1.72-0.28,3.82-0.72,6.16-1.43c2.64-0.79,4.84-1.69,6.57-2.49c0.32,1.06,0.65,2.12,0.97,3.18
				c-1.73,0.72-3.76,1.5-6.08,2.22c-2.47,0.77-4.72,1.31-6.65,1.7C450.85,671.8,450.53,670.74,450.2,669.68z"/>
			<path class="st4" d="M463.56,664.46c1.69-0.43,3.74-1.06,6.01-1.97c2.56-1.02,4.68-2.12,6.33-3.06c0.42,1.02,0.83,2.06,1.26,3.08
				c-1.66,0.87-3.62,1.82-5.86,2.75c-2.39,0.98-4.59,1.72-6.48,2.28C464.39,666.51,463.98,665.49,463.56,664.46z"/>
			<path class="st4" d="M475.24,656.3c1.68-0.48,3.71-1.16,5.96-2.12c2.53-1.08,4.62-2.23,6.24-3.22c0.44,1.02,0.89,2.03,1.33,3.05
				c-1.64,0.92-3.57,1.92-5.79,2.9c-2.36,1.04-4.54,1.84-6.42,2.45C476.13,658.34,475.68,657.32,475.24,656.3z"/>
		</g>
		<path class="st4" d="M436.71,687.71h-1.08c-1.54,0-2.79-1.25-2.79-2.79V668c0-1.54,1.25-2.79,2.79-2.79h1.08
			c1.54,0,2.79,1.25,2.79,2.79v16.91C439.5,686.46,438.25,687.71,436.71,687.71z"/>
		<path class="st4" d="M422.56,689.37h-1.08c-1.54,0-2.79-1.25-2.79-2.79v-16.91c0-1.54,1.25-2.79,2.79-2.79h1.08
			c1.54,0,2.79,1.25,2.79,2.79v16.91C425.35,688.12,424.1,689.37,422.56,689.37z"/>
	</g>
</g>
<g>
	<path class="st4" d="M159.1,722.65c1.73-0.23,3.86-0.42,6.31-0.42c2.76-0.01,5.13,0.21,7.01,0.47c0-1.11,0.01-2.22,0.01-3.32
		c-1.86-0.19-4.04-0.33-6.46-0.35c-2.59-0.02-4.89,0.12-6.86,0.31C159.11,720.43,159.1,721.54,159.1,722.65z"/>
	<path class="st4" d="M144.95,722.65c1.73-0.23,3.86-0.42,6.31-0.42c2.76-0.01,5.13,0.21,7.01,0.47c0-1.11,0.01-2.22,0.01-3.32
		c-1.86-0.19-4.04-0.33-6.46-0.35c-2.59-0.02-4.89,0.12-6.86,0.31C144.96,720.43,144.95,721.54,144.95,722.65z"/>
	<ellipse class="st7" cx="163.56" cy="767.69" rx="86.15" ry="39.99"/>
	<path class="st4" d="M82.11,755.19h-1.08c-1.54,0-2.79-1.25-2.79-2.79v-16.91c0-1.54,1.25-2.79,2.79-2.79h1.08
		c1.54,0,2.79,1.25,2.79,2.79v16.91C84.9,753.94,83.65,755.19,82.11,755.19z"/>
	<path class="st4" d="M92.1,749.36h-1.08c-1.54,0-2.79-1.25-2.79-2.79v-16.91c0-1.54,1.25-2.79,2.79-2.79h1.08
		c1.54,0,2.79,1.25,2.79,2.79v16.91C94.89,748.11,93.64,749.36,92.1,749.36z"/>
	<path class="st4" d="M105.42,741.86h-1.08c-1.54,0-2.79-1.25-2.79-2.79v-16.91c0-1.54,1.25-2.79,2.79-2.79h1.08
		c1.54,0,2.79,1.25,2.79,2.79v16.91C108.21,740.61,106.96,741.86,105.42,741.86z"/>
	<path class="st4" d="M117.91,736.03h-1.08c-1.54,0-2.79-1.25-2.79-2.79v-16.91c0-1.54,1.25-2.79,2.79-2.79h1.08
		c1.54,0,2.79,1.25,2.79,2.79v16.91C120.69,734.78,119.45,736.03,117.91,736.03z"/>
	<path class="st4" d="M131.22,734.36h-1.08c-1.54,0-2.79-1.25-2.79-2.79v-16.91c0-1.54,1.25-2.79,2.79-2.79h1.08
		c1.54,0,2.79,1.25,2.79,2.79v16.91C134.01,733.11,132.76,734.36,131.22,734.36z"/>
	<path class="st4" d="M145.37,732.7h-1.08c-1.54,0-2.79-1.25-2.79-2.79v-16.91c0-1.54,1.25-2.79,2.79-2.79h1.08
		c1.54,0,2.79,1.25,2.79,2.79v16.91C148.16,731.45,146.91,732.7,145.37,732.7z"/>
	<path class="st4" d="M159.53,731.86h-1.08c-1.54,0-2.79-1.25-2.79-2.79v-16.91c0-1.54,1.25-2.79,2.79-2.79h1.08
		c1.54,0,2.79,1.25,2.79,2.79v16.91C162.31,730.61,161.07,731.86,159.53,731.86z"/>
	<path class="st4" d="M174.51,732.7h-1.08c-1.54,0-2.79-1.25-2.79-2.79v-16.91c0-1.54,1.25-2.79,2.79-2.79h1.08
		c1.54,0,2.79,1.25,2.79,2.79v16.91C177.3,731.45,176.05,732.7,174.51,732.7z"/>
	<path class="st4" d="M187.83,735.2h-1.08c-1.54,0-2.79-1.25-2.79-2.79v-16.91c0-1.54,1.25-2.79,2.79-2.79h1.08
		c1.54,0,2.79,1.25,2.79,2.79v16.91C190.61,733.95,189.37,735.2,187.83,735.2z"/>
	<path class="st4" d="M201.98,738.53h-1.08c-1.54,0-2.79-1.25-2.79-2.79v-16.91c0-1.54,1.25-2.79,2.79-2.79h1.08
		c1.54,0,2.79,1.25,2.79,2.79v16.91C204.77,737.28,203.52,738.53,201.98,738.53z"/>
	<path class="st4" d="M214.46,742.7h-1.08c-1.54,0-2.79-1.25-2.79-2.79v-16.91c0-1.54,1.25-2.79,2.79-2.79h1.08
		c1.54,0,2.79,1.25,2.79,2.79v16.91C217.25,741.45,216,742.7,214.46,742.7z"/>
	<path class="st4" d="M226.95,746.86h-1.08c-1.54,0-2.79-1.25-2.79-2.79v-16.91c0-1.54,1.25-2.79,2.79-2.79h1.08
		c1.54,0,2.79,1.25,2.79,2.79v16.91C229.74,745.61,228.49,746.86,226.95,746.86z"/>
	<path class="st4" d="M238.6,750.19h-1.08c-1.54,0-2.79-1.25-2.79-2.79v-16.91c0-1.54,1.25-2.79,2.79-2.79h1.08
		c1.54,0,2.79,1.25,2.79,2.79v16.91C241.39,748.94,240.14,750.19,238.6,750.19z"/>
	<path class="st4" d="M173.68,809.35h-1.08c-1.54,0-2.79-1.25-2.79-2.79v-16.91c0-1.54,1.25-2.79,2.79-2.79h1.08
		c1.54,0,2.79,1.25,2.79,2.79v16.91C176.46,808.1,175.22,809.35,173.68,809.35z"/>
	<path class="st4" d="M246.93,760.19h-1.08c-1.54,0-2.79-1.25-2.79-2.79v-13.58c0-1.54,1.25-2.79,2.79-2.79h1.08
		c1.54,0,2.79,1.25,2.79,2.79v13.58C249.71,758.94,248.47,760.19,246.93,760.19z"/>
	<path class="st4" d="M243.2,752.93c1.33,1.13,2.9,2.59,4.54,4.4c1.85,2.04,3.28,3.95,4.35,5.52c0.82-0.74,1.65-1.48,2.47-2.22
		c-1.11-1.52-2.46-3.22-4.07-5.04c-1.72-1.93-3.36-3.56-4.83-4.89C244.84,751.44,244.02,752.19,243.2,752.93z"/>
	<path class="st4" d="M236.02,742.23c1.49,0.91,3.27,2.1,5.18,3.62c2.15,1.72,3.86,3.38,5.17,4.77c0.7-0.86,1.4-1.72,2.09-2.58
		c-1.33-1.32-2.94-2.8-4.81-4.33c-2.01-1.63-3.89-2.97-5.54-4.07C237.41,740.5,236.72,741.36,236.02,742.23z"/>
	<path class="st4" d="M224.83,734.96c1.62,0.65,3.57,1.54,5.7,2.73c2.4,1.34,4.36,2.71,5.88,3.86c0.55-0.97,1.1-1.92,1.65-2.89
		c-1.53-1.08-3.35-2.28-5.45-3.49c-2.24-1.28-4.32-2.31-6.13-3.11C225.93,733.03,225.38,734,224.83,734.96z"/>
	<path class="st4" d="M212.14,730.58c1.72,0.3,3.81,0.75,6.15,1.47c2.63,0.81,4.84,1.72,6.55,2.53c0.33-1.06,0.67-2.12,1-3.17
		c-1.72-0.74-3.75-1.52-6.06-2.26c-2.46-0.78-4.71-1.34-6.64-1.75C212.81,728.47,212.47,729.52,212.14,730.58z"/>
	<path class="st4" d="M199.65,727.25c1.72,0.3,3.81,0.75,6.15,1.47c2.63,0.81,4.84,1.72,6.55,2.53c0.33-1.06,0.67-2.12,1-3.17
		c-1.72-0.74-3.75-1.52-6.06-2.26c-2.46-0.78-4.71-1.34-6.64-1.75C200.32,725.13,199.99,726.19,199.65,727.25z"/>
	<path class="st4" d="M187.19,724.83c1.75,0.07,3.88,0.24,6.29,0.64c2.71,0.45,5.02,1.07,6.83,1.64c0.19-1.09,0.38-2.18,0.57-3.28
		c-1.81-0.5-3.93-1.01-6.31-1.43c-2.55-0.45-4.84-0.71-6.81-0.85C187.57,722.65,187.39,723.74,187.19,724.83z"/>
	<path class="st4" d="M173.93,722.73c1.75-0.03,3.89,0.02,6.32,0.27c2.74,0.29,5.08,0.77,6.92,1.24c0.12-1.1,0.25-2.21,0.37-3.31
		c-1.83-0.4-3.98-0.78-6.38-1.07c-2.56-0.3-4.88-0.42-6.85-0.45C174.18,720.53,174.05,721.63,173.93,722.73z"/>
	<path class="st4" d="M130.8,723.48c1.73-0.23,3.86-0.42,6.31-0.42c2.76-0.01,5.13,0.21,7.01,0.47c0-1.11,0.01-2.22,0.01-3.32
		c-1.86-0.19-4.04-0.33-6.46-0.35c-2.59-0.02-4.89,0.12-6.86,0.31C130.81,721.26,130.8,722.37,130.8,723.48z"/>
	<path class="st4" d="M116.3,726.42c1.66-0.57,3.7-1.17,6.1-1.66c2.7-0.55,5.07-0.81,6.97-0.92c-0.22-1.09-0.43-2.17-0.64-3.27
		c-1.86,0.17-4.03,0.47-6.4,0.93c-2.54,0.49-4.78,1.08-6.66,1.66C115.88,724.25,116.09,725.34,116.3,726.42z"/>
	<path class="st4" d="M105,732.05c1.59-0.73,3.57-1.55,5.9-2.28c2.62-0.82,4.96-1.32,6.83-1.63c-0.32-1.06-0.65-2.12-0.97-3.18
		c-1.84,0.37-3.95,0.87-6.28,1.58c-2.47,0.75-4.64,1.57-6.46,2.33C104.35,729.92,104.67,730.98,105,732.05z"/>
	<path class="st4" d="M91.52,740.43c1.45-0.97,3.28-2.1,5.46-3.19c2.46-1.23,4.69-2.1,6.48-2.71c-0.49-0.99-0.98-1.99-1.47-2.98
		c-1.76,0.66-3.77,1.5-5.94,2.57c-2.32,1.14-4.33,2.29-6,3.33C90.54,738.44,91.03,739.43,91.52,740.43z"/>
	<path class="st4" d="M83.05,747.76c1.3-1.17,2.95-2.53,4.96-3.92c2.26-1.57,4.35-2.73,6.05-3.57c-0.62-0.92-1.25-1.83-1.87-2.75
		c-1.65,0.9-3.52,2.01-5.53,3.37c-2.14,1.45-3.97,2.87-5.49,4.13C81.8,745.93,82.42,746.85,83.05,747.76z"/>
	<path class="st4" d="M80.1,761.91c0.22-1.73,0.57-3.85,1.17-6.22c0.68-2.67,1.49-4.92,2.21-6.67c-1.07-0.28-2.14-0.57-3.21-0.85
		c-0.66,1.76-1.34,3.82-1.96,6.17c-0.67,2.5-1.12,4.77-1.42,6.72C77.96,761.34,79.03,761.63,80.1,761.91z"/>
	<path class="st4" d="M201.98,806.02h-1.08c-1.54,0-2.79-1.25-2.79-2.79v-16.91c0-1.54,1.25-2.79,2.79-2.79h1.08
		c1.54,0,2.79,1.25,2.79,2.79v16.91C204.77,804.77,203.52,806.02,201.98,806.02z"/>
	<path class="st4" d="M187.83,807.68h-1.08c-1.54,0-2.79-1.25-2.79-2.79v-16.91c0-1.54,1.25-2.79,2.79-2.79h1.08
		c1.54,0,2.79,1.25,2.79,2.79v16.91C190.61,806.43,189.37,807.68,187.83,807.68z"/>
	<g>
		<rect x="106.54" y="735.2" class="st13" width="1.66" height="28.33"/>
		
			<ellipse transform="matrix(0.5839 -0.8118 0.8118 0.5839 -567.1602 406.271)" class="st14" cx="112.76" cy="756.44" rx="8.75" ry="1.25"/>
		
			<ellipse transform="matrix(0.8118 -0.5839 0.5839 0.8118 -422.5125 201.8918)" class="st14" cx="101.95" cy="756.42" rx="1.25" ry="8.75"/>
		<g>
			<path class="st15" d="M113.89,725.17l-4.74,0.03l-1.87-2.15l-1.87,2.15l-4.97-0.03l0.72,5.09l0.09-0.11
				c-0.02,0.15-0.02,0.3-0.02,0.46c0,2.99,2.76,5.42,6.16,5.42s6.16-2.42,6.16-5.42c0-0.48-0.08-0.96-0.22-1.4L113.89,725.17z"/>
			<g>
				<rect x="104.88" y="722.7" class="st16" width="0.83" height="2.5"/>
				<circle class="st16" cx="105.3" cy="722.28" r="1.25"/>
			</g>
			<g>
				<rect x="109.04" y="722.7" class="st16" width="0.83" height="2.5"/>
				<circle class="st16" cx="109.46" cy="722.28" r="1.25"/>
			</g>
		</g>
	</g>
	<g>
		<rect x="140.67" y="720.2" class="st13" width="1.66" height="28.33"/>
		
			<ellipse transform="matrix(0.5839 -0.8118 0.8118 0.5839 -540.787 427.7365)" class="st14" cx="146.89" cy="741.44" rx="8.75" ry="1.25"/>
		
			<ellipse transform="matrix(0.8118 -0.5839 0.5839 0.8118 -407.333 218.9973)" class="st14" cx="136.08" cy="741.43" rx="1.25" ry="8.75"/>
		<g>
			<path class="st15" d="M148.02,710.17l-4.74,0.03l-1.87-2.15l-1.87,2.15l-4.97-0.03l0.72,5.09l0.09-0.11
				c-0.02,0.15-0.02,0.3-0.02,0.46c0,2.99,2.76,5.42,6.16,5.42c3.4,0,6.16-2.42,6.16-5.42c0-0.48-0.08-0.96-0.22-1.4L148.02,710.17z
				"/>
			<g>
				<rect x="139.01" y="707.7" class="st16" width="0.83" height="2.5"/>
				<circle class="st16" cx="139.42" cy="707.29" r="1.25"/>
			</g>
			<g>
				<rect x="143.17" y="707.7" class="st16" width="0.83" height="2.5"/>
				<circle class="st16" cx="143.59" cy="707.29" r="1.25"/>
			</g>
		</g>
	</g>
	<g>
		<rect x="179.79" y="721.03" class="st13" width="1.66" height="28.33"/>
		
			<ellipse transform="matrix(0.5839 -0.8118 0.8118 0.5839 -525.1871 459.8423)" class="st14" cx="186.01" cy="742.28" rx="8.75" ry="1.25"/>
		
			<ellipse transform="matrix(0.8118 -0.5839 0.5839 0.8118 -400.4574 241.998)" class="st14" cx="175.2" cy="742.26" rx="1.25" ry="8.75"/>
		<g>
			<path class="st15" d="M187.14,711l-4.74,0.03l-1.87-2.15l-1.87,2.15l-4.97-0.03l0.72,5.09l0.09-0.11
				c-0.02,0.15-0.02,0.3-0.02,0.46c0,2.99,2.76,5.42,6.16,5.42c3.4,0,6.16-2.42,6.16-5.42c0-0.48-0.08-0.96-0.22-1.4L187.14,711z"/>
			<g>
				<rect x="178.13" y="708.54" class="st16" width="0.83" height="2.5"/>
				<circle class="st16" cx="178.55" cy="708.12" r="1.25"/>
			</g>
			<g>
				<rect x="182.29" y="708.54" class="st16" width="0.83" height="2.5"/>
				<circle class="st16" cx="182.71" cy="708.12" r="1.25"/>
			</g>
		</g>
	</g>
	<g>
		<rect x="218.08" y="737.7" class="st13" width="1.66" height="28.33"/>
		
			<ellipse transform="matrix(0.5839 -0.8118 0.8118 0.5839 -522.7849 497.8586)" class="st14" cx="224.3" cy="758.94" rx="8.75" ry="1.25"/>
		
			<ellipse transform="matrix(0.8118 -0.5839 0.5839 0.8118 -402.9821 267.4917)" class="st14" cx="213.49" cy="758.92" rx="1.25" ry="8.75"/>
		<g>
			<path class="st15" d="M225.43,727.67l-4.74,0.03l-1.87-2.15l-1.87,2.15l-4.97-0.03l0.72,5.09l0.09-0.11
				c-0.02,0.15-0.02,0.3-0.02,0.46c0,2.99,2.76,5.42,6.16,5.42c3.4,0,6.16-2.42,6.16-5.42c0-0.48-0.08-0.96-0.22-1.4L225.43,727.67z
				"/>
			<g>
				<rect x="216.42" y="725.2" class="st16" width="0.83" height="2.5"/>
				<circle class="st16" cx="216.83" cy="724.78" r="1.25"/>
			</g>
			<g>
				<rect x="220.58" y="725.2" class="st16" width="0.83" height="2.5"/>
				<circle class="st16" cx="221" cy="724.78" r="1.25"/>
			</g>
		</g>
	</g>
	<g>
		<rect x="193.11" y="751.86" class="st13" width="1.66" height="28.33"/>
		
			<ellipse transform="matrix(0.5839 -0.8118 0.8118 0.5839 -544.6723 483.4795)" class="st14" cx="199.33" cy="773.1" rx="8.75" ry="1.25"/>
		
			<ellipse transform="matrix(0.8118 -0.5839 0.5839 0.8118 -415.952 255.5759)" class="st14" cx="188.52" cy="773.09" rx="1.25" ry="8.75"/>
		<g>
			<path class="st15" d="M200.46,741.83l-4.74,0.03l-1.87-2.15l-1.87,2.15l-4.97-0.03l0.72,5.09l0.09-0.11
				c-0.02,0.15-0.02,0.3-0.02,0.46c0,2.99,2.76,5.42,6.16,5.42c3.4,0,6.16-2.42,6.16-5.42c0-0.48-0.08-0.96-0.22-1.4L200.46,741.83z
				"/>
			<g>
				<rect x="191.45" y="739.36" class="st16" width="0.83" height="2.5"/>
				<circle class="st16" cx="191.86" cy="738.95" r="1.25"/>
			</g>
			<g>
				<rect x="195.61" y="739.36" class="st16" width="0.83" height="2.5"/>
				<circle class="st16" cx="196.03" cy="738.95" r="1.25"/>
			</g>
		</g>
	</g>
	<g>
		<rect x="157.32" y="752.69" class="st13" width="1.66" height="28.33"/>
		
			<ellipse transform="matrix(0.5839 -0.8118 0.8118 0.5839 -560.2397 454.7698)" class="st14" cx="163.54" cy="773.94" rx="8.75" ry="1.25"/>
		
			<ellipse transform="matrix(0.8118 -0.5839 0.5839 0.8118 -423.174 234.8329)" class="st14" cx="152.73" cy="773.92" rx="1.25" ry="8.75"/>
		<g>
			<path class="st15" d="M164.67,742.66l-4.74,0.03l-1.87-2.15l-1.87,2.15l-4.97-0.03l0.72,5.09l0.09-0.11
				c-0.02,0.15-0.02,0.3-0.02,0.46c0,2.99,2.76,5.42,6.16,5.42c3.4,0,6.16-2.42,6.16-5.42c0-0.48-0.08-0.96-0.22-1.4L164.67,742.66z
				"/>
			<g>
				<rect x="155.65" y="740.2" class="st16" width="0.83" height="2.5"/>
				<circle class="st16" cx="156.07" cy="739.78" r="1.25"/>
			</g>
			<g>
				<rect x="159.82" y="740.2" class="st16" width="0.83" height="2.5"/>
				<circle class="st16" cx="160.23" cy="739.78" r="1.25"/>
			</g>
		</g>
	</g>
	<g>
		<rect x="128.19" y="760.19" class="st13" width="1.66" height="28.33"/>
		
			<ellipse transform="matrix(0.5839 -0.8118 0.8118 0.5839 -578.4476 434.239)" class="st14" cx="134.41" cy="781.43" rx="8.75" ry="1.25"/>
		
			<ellipse transform="matrix(0.8118 -0.5839 0.5839 0.8118 -433.035 219.2327)" class="st14" cx="123.6" cy="781.42" rx="1.25" ry="8.75"/>
		<g>
			<path class="st15" d="M135.54,750.16l-4.74,0.03l-1.87-2.15l-1.87,2.15l-4.97-0.03l0.72,5.09l0.09-0.11
				c-0.02,0.15-0.02,0.3-0.02,0.46c0,2.99,2.76,5.42,6.16,5.42c3.4,0,6.16-2.42,6.16-5.42c0-0.48-0.08-0.96-0.22-1.4L135.54,750.16z
				"/>
			<g>
				<rect x="126.52" y="747.7" class="st16" width="0.83" height="2.5"/>
				<circle class="st16" cx="126.94" cy="747.28" r="1.25"/>
			</g>
			<g>
				<rect x="130.68" y="747.7" class="st16" width="0.83" height="2.5"/>
				<circle class="st16" cx="131.1" cy="747.28" r="1.25"/>
			</g>
		</g>
	</g>
	<g>
		<path class="st4" d="M157.86,809.35h-1.08c-1.54,0-2.79-1.25-2.79-2.79v-16.91c0-1.54,1.25-2.79,2.79-2.79h1.08
			c1.54,0,2.79,1.25,2.79,2.79v16.91C160.65,808.1,159.4,809.35,157.86,809.35z"/>
		<path class="st4" d="M142.88,808.52h-1.08c-1.54,0-2.79-1.25-2.79-2.79v-16.91c0-1.54,1.25-2.79,2.79-2.79h1.08
			c1.54,0,2.79,1.25,2.79,2.79v16.91C145.67,807.27,144.42,808.52,142.88,808.52z"/>
		<path class="st4" d="M128.73,806.02h-1.08c-1.54,0-2.79-1.25-2.79-2.79v-16.91c0-1.54,1.25-2.79,2.79-2.79h1.08
			c1.54,0,2.79,1.25,2.79,2.79v16.91C131.52,804.77,130.27,806.02,128.73,806.02z"/>
		<path class="st4" d="M114.58,803.52h-1.08c-1.54,0-2.79-1.25-2.79-2.79v-16.91c0-1.54,1.25-2.79,2.79-2.79h1.08
			c1.54,0,2.79,1.25,2.79,2.79v16.91C117.37,802.27,116.12,803.52,114.58,803.52z"/>
		<path class="st4" d="M101.26,798.52h-1.08c-1.54,0-2.79-1.25-2.79-2.79v-16.91c0-1.54,1.25-2.79,2.79-2.79h1.08
			c1.54,0,2.79,1.25,2.79,2.79v16.91C104.05,797.27,102.8,798.52,101.26,798.52z"/>
		<path class="st4" d="M89.61,791.85h-1.08c-1.54,0-2.79-1.25-2.79-2.79v-16.91c0-1.54,1.25-2.79,2.79-2.79h1.08
			c1.54,0,2.79,1.25,2.79,2.79v16.91C92.39,790.6,91.15,791.85,89.61,791.85z"/>
		<path class="st4" d="M80.45,779.36h-1.08c-1.54,0-2.79-1.25-2.79-2.79v-16.91c0-1.54,1.25-2.79,2.79-2.79h1.08
			c1.54,0,2.79,1.25,2.79,2.79v16.91C83.24,778.11,81.99,779.36,80.45,779.36z"/>
		<path class="st4" d="M216.13,802.68h-1.08c-1.54,0-2.79-1.25-2.79-2.79v-16.91c0-1.54,1.25-2.79,2.79-2.79h1.08
			c1.54,0,2.79,1.25,2.79,2.79v16.91C218.92,801.44,217.67,802.68,216.13,802.68z"/>
		<path class="st4" d="M229.45,797.69h-1.08c-1.54,0-2.79-1.25-2.79-2.79v-16.91c0-1.54,1.25-2.79,2.79-2.79h1.08
			c1.54,0,2.79,1.25,2.79,2.79v16.91C232.23,796.44,230.99,797.69,229.45,797.69z"/>
		<path class="st4" d="M241.1,790.19h-1.08c-1.54,0-2.79-1.25-2.79-2.79v-16.91c0-1.54,1.25-2.79,2.79-2.79h1.08
			c1.54,0,2.79,1.25,2.79,2.79v16.91C243.89,788.94,242.64,790.19,241.1,790.19z"/>
		<path class="st4" d="M251.92,778.52h-1.08c-1.54,0-2.79-1.25-2.79-2.79v-16.91c0-1.54,1.25-2.79,2.79-2.79h1.08
			c1.54,0,2.79,1.25,2.79,2.79v16.91C254.71,777.27,253.46,778.52,251.92,778.52z"/>
		<path class="st4" d="M79.18,770.61c1.23,1.24,2.81,2.69,4.74,4.19c2.17,1.69,4.19,2.97,5.83,3.92c-0.67,0.88-1.35,1.76-2.02,2.64
			c-1.6-0.99-3.4-2.2-5.33-3.67c-2.06-1.57-3.8-3.08-5.24-4.44C77.84,772.37,78.51,771.49,79.18,770.61z"/>
		<path class="st4" d="M90.42,780.12c1.32,1.14,3,2.47,5.04,3.81c2.3,1.52,4.4,2.63,6.13,3.45c-0.6,0.93-1.21,1.86-1.81,2.79
			c-1.66-0.86-3.56-1.93-5.6-3.24c-2.17-1.4-4.03-2.78-5.57-4.02C89.21,781.98,89.82,781.05,90.42,780.12z"/>
		<path class="st4" d="M101.66,787.43c1.59,0.72,3.57,1.53,5.91,2.26c2.63,0.82,4.96,1.31,6.84,1.61c-0.32,1.06-0.64,2.12-0.97,3.18
			c-1.84-0.37-3.96-0.87-6.28-1.56c-2.47-0.74-4.64-1.55-6.47-2.31C101.02,789.55,101.33,788.49,101.66,787.43z"/>
		<path class="st4" d="M115.24,792.7c1.7,0.43,3.79,0.87,6.22,1.17c2.73,0.33,5.12,0.4,7.02,0.36c-0.12,1.1-0.25,2.21-0.38,3.31
			c-1.87-0.02-4.05-0.14-6.46-0.41c-2.57-0.29-4.84-0.69-6.78-1.11C114.99,794.9,115.12,793.8,115.24,792.7z"/>
		<path class="st4" d="M130.01,794.99c1.73,0.27,3.85,0.5,6.3,0.57c2.75,0.08,5.14-0.09,7.02-0.31c-0.02,1.11-0.04,2.22-0.07,3.32
			c-1.87,0.15-4.05,0.25-6.47,0.21c-2.58-0.04-4.89-0.22-6.85-0.47C129.97,797.21,129.99,796.09,130.01,794.99z"/>
		<path class="st4" d="M144.16,795.82c1.73,0.27,3.85,0.5,6.3,0.57c2.75,0.08,5.14-0.09,7.02-0.31c-0.02,1.11-0.04,2.22-0.07,3.32
			c-1.87,0.15-4.05,0.25-6.47,0.21c-2.58-0.04-4.89-0.22-6.85-0.47C144.12,798.04,144.14,796.93,144.16,795.82z"/>
		<path class="st4" d="M159.14,795.82c1.73,0.27,3.85,0.5,6.3,0.57c2.75,0.08,5.14-0.09,7.02-0.31c-0.02,1.11-0.04,2.22-0.07,3.32
			c-1.87,0.15-4.05,0.25-6.47,0.21c-2.58-0.04-4.89-0.22-6.85-0.47C159.1,798.04,159.13,796.93,159.14,795.82z"/>
		<path class="st4" d="M174.13,794.99c1.73,0.27,3.85,0.5,6.3,0.57c2.75,0.08,5.14-0.09,7.02-0.31c-0.02,1.11-0.04,2.22-0.07,3.32
			c-1.87,0.15-4.05,0.25-6.47,0.21c-2.58-0.04-4.89-0.22-6.85-0.47C174.08,797.21,174.11,796.09,174.13,794.99z"/>
		<path class="st4" d="M189.01,793.7c1.74,0.17,3.88,0.28,6.32,0.21c2.75-0.08,5.12-0.38,6.99-0.71c0.04,1.11,0.08,2.22,0.12,3.32
			c-1.86,0.26-4.03,0.47-6.44,0.57c-2.58,0.1-4.89,0.05-6.87-0.08C189.09,795.92,189.05,794.81,189.01,793.7z"/>
		<path class="st4" d="M202.17,792.24c1.75-0.09,3.88-0.31,6.28-0.75c2.71-0.5,5-1.15,6.8-1.76c0.21,1.09,0.42,2.17,0.62,3.27
			c-1.8,0.53-3.9,1.08-6.28,1.54c-2.54,0.49-4.83,0.79-6.8,0.97C202.58,794.42,202.38,793.33,202.17,792.24z"/>
		<path class="st4" d="M215.47,788c1.72-0.28,3.82-0.72,6.16-1.43c2.64-0.79,4.84-1.69,6.57-2.49c0.32,1.06,0.65,2.12,0.97,3.18
			c-1.73,0.72-3.77,1.5-6.08,2.22c-2.47,0.77-4.72,1.31-6.65,1.7C216.12,790.11,215.79,789.05,215.47,788z"/>
		<path class="st4" d="M228.83,782.77c1.69-0.43,3.74-1.06,6.01-1.97c2.56-1.02,4.68-2.12,6.33-3.06c0.42,1.02,0.83,2.06,1.26,3.08
			c-1.66,0.87-3.62,1.82-5.86,2.75c-2.39,0.98-4.59,1.72-6.48,2.28C229.66,784.82,229.25,783.8,228.83,782.77z"/>
		<path class="st4" d="M240.51,774.62c1.68-0.48,3.71-1.16,5.96-2.12c2.53-1.08,4.62-2.23,6.24-3.22c0.44,1.02,0.89,2.03,1.33,3.05
			c-1.64,0.92-3.57,1.92-5.79,2.9c-2.36,1.04-4.54,1.84-6.42,2.45C241.4,776.65,240.95,775.63,240.51,774.62z"/>
	</g>
</g>
<g>
	<rect x="1173.87" y="747.03" class="st17" width="40.53" height="59.29"/>
	<polygon class="st18" points="1194.31,689.18 1168.44,747.03 1220.19,747.03 	"/>
	<polygon class="st19" points="1207.16,798.51 1207.16,806.31 1201.37,806.31 1201.37,798.51 1191.24,798.51 1191.24,806.31 
		1185.45,806.31 1185.45,798.51 1175.32,798.51 1175.32,806.31 1169.53,806.31 1169.53,798.51 1159.4,798.51 1159.4,806.31 
		1152.15,806.31 1152.15,798.51 1142.02,798.51 1142.02,806.31 1142.02,871.84 1217.3,871.84 1217.3,806.31 1217.3,798.51 	"/>
	<path class="st17" d="M1228.87,670.58h-36.18v-10.92h36.18c-6.29,0.73-10.29,4.02-10.13,6.24
		C1218.89,668.07,1223.06,670.52,1228.87,670.58z"/>
	<rect x="1192.68" y="659.66" class="st18" width="2.9" height="34.33"/>
	<path class="st18" d="M1201.37,781.35h-13.03v-16.53c0-2.07,1.67-3.75,3.75-3.75h5.54c2.07,0,3.75,1.67,3.75,3.75V781.35z"/>
	<rect x="1453.23" y="739.23" class="st17" width="40.53" height="132.61"/>
	<path class="st17" d="M1508.24,664.34h-36.18v-10.92h36.18c-6.29,0.73-10.29,4.02-10.13,6.24
		C1498.26,661.83,1502.42,664.28,1508.24,664.34z"/>
	<rect x="1472.05" y="653.42" class="st18" width="2.9" height="26.52"/>
	<path class="st18" d="M1480.74,771.99h-13.03v-16.53c0-2.07,1.67-3.75,3.75-3.75h5.54c2.07,0,3.75,1.67,3.75,3.75V771.99z"/>
	<path class="st18" d="M1480.74,806.31h-13.03v-16.53c0-2.07,1.67-3.75,3.75-3.75h5.54c2.07,0,3.75,1.67,3.75,3.75V806.31z"/>
	<path class="st18" d="M1480.74,840.64h-13.03v-16.53c0-2.07,1.67-3.75,3.75-3.75h5.54c2.07,0,3.75,1.67,3.75,3.75V840.64z"/>
	<rect x="1499.56" y="747.03" class="st17" width="40.53" height="59.29"/>
	<polygon class="st18" points="1520,689.18 1494.12,747.03 1545.88,747.03 	"/>
	<path class="st17" d="M1554.56,670.58h-36.18v-10.92h36.18c-6.29,0.73-10.29,4.02-10.13,6.24
		C1544.58,668.07,1548.74,670.52,1554.56,670.58z"/>
	<rect x="1518.38" y="659.66" class="st18" width="2.9" height="34.33"/>
	<path class="st18" d="M1527.06,781.35h-13.03v-16.53c0-2.07,1.67-3.75,3.75-3.75h5.54c2.07,0,3.75,1.67,3.75,3.75V781.35z"/>
	<polygon class="st19" points="1558.9,798.51 1558.9,806.31 1553.11,806.31 1553.11,798.51 1542.98,798.51 1542.98,806.31 
		1537.19,806.31 1537.19,798.51 1527.06,798.51 1527.06,806.31 1521.26,806.31 1521.26,798.51 1511.13,798.51 1511.13,806.31 
		1503.9,806.31 1503.9,798.51 1493.76,798.51 1493.76,806.31 1493.76,871.84 1569.03,871.84 1569.03,806.31 1569.03,798.51 	"/>
	<rect x="1327.3" y="606.61" class="st17" width="60.8" height="74.89"/>
	<path class="st18" d="M1367.83,659.66h-18.82v-27.34c0-2.99,2.42-5.42,5.41-5.42h8c2.99,0,5.41,2.42,5.41,5.42V659.66z"/>
	<polygon class="st18" points="1356.25,530.17 1321.51,609.74 1391,609.74 	"/>
	<rect x="1354.8" y="480.24" class="st18" width="2.9" height="53.05"/>
	<path class="st17" d="M1408.36,495.85h-50.66v-15.61h50.66c-8.81,1.05-14.4,5.73-14.18,8.92
		C1394.38,492.25,1400.22,495.76,1408.36,495.85z"/>
	<g>
		<rect x="1312.83" y="679.94" class="st17" width="107.11" height="106.09"/>
		<rect x="1312.83" y="672.14" class="st17" width="11.58" height="7.8"/>
		<rect x="1335.98" y="672.14" class="st17" width="11.58" height="7.8"/>
		<rect x="1359.15" y="672.14" class="st17" width="11.58" height="7.8"/>
		<rect x="1380.86" y="672.14" class="st17" width="11.58" height="7.8"/>
		<rect x="1408.36" y="672.14" class="st17" width="11.58" height="7.8"/>
	</g>
	<path class="st18" d="M1338.88,714.27h-13.03v-16.53c0-2.07,1.67-3.75,3.75-3.75h5.54c2.07,0,3.75,1.67,3.75,3.75V714.27z"/>
	<path class="st18" d="M1369.28,714.27h-13.03v-16.53c0-2.07,1.67-3.75,3.75-3.75h5.54c2.07,0,3.75,1.67,3.75,3.75V714.27z"/>
	<path class="st18" d="M1399.68,714.27h-13.03v-16.53c0-2.07,1.67-3.75,3.75-3.75h5.54c2.07,0,3.75,1.67,3.75,3.75V714.27z"/>
	<rect x="1259.27" y="620.66" class="st17" width="41.98" height="166.94"/>
	<path class="st18" d="M1286.77,736.11h-14.48v-18.1c0-2.07,1.67-3.75,3.75-3.75h6.98c2.07,0,3.75,1.67,3.75,3.75V736.11z"/>
	<path class="st18" d="M1286.77,695.55h-14.48v-18.1c0-2.07,1.67-3.75,3.75-3.75h6.98c2.07,0,3.75,1.67,3.75,3.75V695.55z"/>
	<path class="st20" d="M1286.77,653.42h-14.48v-18.1c0-2.07,1.67-3.75,3.75-3.75h6.98c2.07,0,3.75,1.67,3.75,3.75V653.42z"/>
	<g>
		<rect x="1254.93" y="695.55" class="st19" width="50.66" height="12.48"/>
		<rect x="1254.93" y="690.86" class="st19" width="5.79" height="4.68"/>
		<rect x="1265.06" y="690.86" class="st19" width="5.79" height="4.68"/>
		<rect x="1276.64" y="690.86" class="st19" width="5.79" height="4.68"/>
		<rect x="1289.67" y="690.86" class="st19" width="5.79" height="4.68"/>
		<rect x="1299.8" y="690.86" class="st19" width="5.79" height="4.68"/>
	</g>
	<g>
		<rect x="1254.93" y="651.86" class="st19" width="50.66" height="12.48"/>
		<rect x="1254.93" y="647.18" class="st19" width="5.79" height="4.68"/>
		<rect x="1265.06" y="647.18" class="st19" width="5.79" height="4.68"/>
		<rect x="1276.64" y="647.18" class="st19" width="5.79" height="4.68"/>
		<rect x="1289.67" y="647.18" class="st19" width="5.79" height="4.68"/>
		<rect x="1299.8" y="647.18" class="st19" width="5.79" height="4.68"/>
	</g>
	<rect x="1217.3" y="739.23" class="st17" width="40.53" height="132.61"/>
	<polygon class="st18" points="1237.65,675.26 1213.13,739.23 1262.17,739.23 	"/>
	<path class="st18" d="M1244.8,771.99h-13.03v-16.53c0-2.07,1.67-3.75,3.75-3.75h5.54c2.07,0,3.75,1.67,3.75,3.75V771.99z"/>
	<path class="st18" d="M1244.8,806.31h-13.03v-16.53c0-2.07,1.67-3.75,3.75-3.75h5.54c2.07,0,3.75,1.67,3.75,3.75V806.31z"/>
	<path class="st18" d="M1244.8,840.64h-13.03v-16.53c0-2.07,1.67-3.75,3.75-3.75h5.54c2.07,0,3.75,1.67,3.75,3.75V840.64z"/>
	<path class="st17" d="M1272.3,664.34h-36.18v-10.92h36.18c-6.29,0.73-10.29,4.02-10.13,6.24
		C1262.32,661.83,1266.48,664.28,1272.3,664.34z"/>
	<rect x="1236.11" y="653.42" class="st18" width="2.9" height="26.52"/>
	<polygon class="st18" points="1281.05,578.08 1252.16,620.66 1309.93,620.66 	"/>
	<path class="st17" d="M1315.72,566.05h-36.18v-10.92h36.18c-6.29,0.73-10.29,4.02-10.13,6.24
		C1305.74,563.54,1309.91,565.99,1315.72,566.05z"/>
	<rect x="1279.53" y="555.13" class="st18" width="2.9" height="26.52"/>
	<rect x="1412.71" y="617.54" class="st17" width="41.98" height="166.94"/>
	<path class="st18" d="M1440.21,732.99h-14.48v-18.1c0-2.07,1.67-3.75,3.75-3.75h6.98c2.07,0,3.75,1.67,3.75,3.75V732.99z"/>
	<path class="st18" d="M1440.21,692.42h-14.48v-18.1c0-2.07,1.67-3.75,3.75-3.75h6.98c2.07,0,3.75,1.67,3.75,3.75V692.42z"/>
	<path class="st18" d="M1440.21,650.3h-14.48v-18.1c0-2.07,1.67-3.75,3.75-3.75h6.98c2.07,0,3.75,1.67,3.75,3.75V650.3z"/>
	<g>
		<rect x="1408.36" y="692.42" class="st19" width="50.66" height="12.48"/>
		<rect x="1408.36" y="687.74" class="st19" width="5.79" height="4.68"/>
		<rect x="1418.5" y="687.74" class="st19" width="5.79" height="4.68"/>
		<rect x="1430.08" y="687.74" class="st19" width="5.79" height="4.68"/>
		<rect x="1443.1" y="687.74" class="st19" width="5.79" height="4.68"/>
		<rect x="1453.23" y="687.74" class="st19" width="5.79" height="4.68"/>
	</g>
	<g>
		<rect x="1408.36" y="648.74" class="st19" width="50.66" height="12.48"/>
		<rect x="1408.36" y="644.06" class="st19" width="5.79" height="4.68"/>
		<rect x="1418.5" y="644.06" class="st19" width="5.79" height="4.68"/>
		<rect x="1430.08" y="644.06" class="st19" width="5.79" height="4.68"/>
		<rect x="1443.1" y="644.06" class="st19" width="5.79" height="4.68"/>
		<rect x="1453.23" y="644.06" class="st19" width="5.79" height="4.68"/>
	</g>
	<polygon class="st18" points="1434.48,574.96 1405.59,617.54 1463.36,617.54 	"/>
	<path class="st17" d="M1469.16,562.93h-36.18v-10.92h36.18c-6.29,0.73-10.29,4.02-10.13,6.24
		C1459.18,560.42,1463.34,562.87,1469.16,562.93z"/>
	<rect x="1432.97" y="552.01" class="st18" width="2.9" height="26.52"/>
	<g>
		<rect x="1283.88" y="734.55" class="st21" width="69.48" height="49.92"/>
		<rect x="1283.88" y="728.31" class="st21" width="10.13" height="6.24"/>
		<rect x="1304.15" y="728.31" class="st21" width="10.13" height="6.24"/>
		<rect x="1322.96" y="728.31" class="st21" width="10.13" height="6.24"/>
		<rect x="1343.23" y="728.31" class="st21" width="10.13" height="6.24"/>
	</g>
	<g>
		<rect x="1362.05" y="734.55" class="st21" width="69.48" height="49.92"/>
		<rect x="1362.05" y="728.31" class="st21" width="10.13" height="6.24"/>
		<rect x="1382.31" y="728.31" class="st21" width="10.13" height="6.24"/>
		<rect x="1401.13" y="728.31" class="st21" width="10.13" height="6.24"/>
		<rect x="1421.39" y="728.31" class="st21" width="10.13" height="6.24"/>
	</g>
	<polygon class="st19" points="1440.21,773.55 1440.21,784.47 1427.18,784.47 1427.18,773.55 1409.81,773.55 1409.81,784.47 
		1396.78,784.47 1396.78,773.55 1379.41,773.55 1379.41,784.47 1366.38,784.47 1366.38,773.55 1349.01,773.55 1349.01,784.47 
		1335.98,784.47 1335.98,773.55 1318.62,773.55 1318.62,784.47 1305.59,784.47 1305.59,773.55 1288.22,773.55 1288.22,784.47 
		1270.85,784.47 1270.85,773.55 1257.82,773.55 1257.82,784.47 1257.82,871.84 1453.23,871.84 1453.23,784.47 1453.23,773.55 	"/>
	<path class="st18" d="M1379.41,871.84h-44.87v-58.86c0-7.13,5.78-12.91,12.9-12.91h19.07c7.13,0,12.9,5.78,12.9,12.91V871.84z"/>
	<path class="st18" d="M1304.15,761.07h-8.68v-13.11c0-1.38,1.12-2.5,2.5-2.5h3.69c1.38,0,2.5,1.12,2.5,2.5V761.07z"/>
	<path class="st18" d="M1341.78,761.07h-8.68v-13.11c0-1.38,1.12-2.5,2.5-2.5h3.69c1.38,0,2.5,1.12,2.5,2.5V761.07z"/>
	<path class="st18" d="M1382.31,761.07h-8.68v-13.11c0-1.38,1.12-2.5,2.5-2.5h3.69c1.38,0,2.5,1.12,2.5,2.5V761.07z"/>
	<path class="st18" d="M1422.84,761.07h-8.68v-13.11c0-1.38,1.12-2.5,2.5-2.5h3.69c1.38,0,2.5,1.12,2.5,2.5V761.07z"/>
	<polygon class="st18" points="1473.59,675.26 1449.07,739.23 1498.11,739.23 	"/>
</g>
<g>
	<rect x="724.88" y="795.49" class="st22" width="10.89" height="50.1"/>
	<polygon class="st23" points="730.67,761.94 685.26,796.48 776.09,796.48 	"/>
	<polygon class="st23" points="732.03,740.47 686.61,775.01 777.44,775.01 	"/>
	<polygon class="st23" points="730.67,717.7 685.26,752.24 776.09,752.24 	"/>
</g>
</svg>
