<?xml version="1.0" encoding="utf-8"?>
<!-- Generator: Adobe Illustrator 23.0.5, SVG Export Plug-In . SVG Version: 6.00 Build 0)  -->
<svg version="1.1" id="圖層_1" xmlns="http://www.w3.org/2000/svg" xmlns:xlink="http://www.w3.org/1999/xlink" x="0px" y="0px"
	 viewBox="0 0 1600 900" style="enable-background:new 0 0 1600 900;" xml:space="preserve">
<style type="text/css">
	.st0{fill:#BDF984;}
	.st1{fill:#59D3EF;}
	.st2{fill:#34A8D0;}
	.st3{fill:#FFFFFF;}
</style>
<rect y="2" class="st0" width="1598.17" height="899"/>
<path class="st1" d="M1599,3.67H0.83c0,71.55,0,143.09,0,214.64c30.54-10.76,74.88-25.1,130.93-38.8
	c83.07-20.3,244.15-53.96,455.29-47.06c407.76,13.33,597.12,162.99,713.94,50.87c37.46-35.95,55.64-87.48,114.04-99.06
	c78.56-15.58,183.12,50.37,183.12,50.37s0.28,2.46,0.83,7.26L1599,3.67L1599,3.67z"/>
<g>
	<path class="st2" d="M505.76,53.53c-0.37-0.62-3.66-5.87-9.66-6.2c-5.34-0.29-8.81,3.53-9.37,4.17c0.07-0.86,0.14-1.71,0.21-2.57
		c0.72-0.83,3.66-4.07,8.25-4.29c6.57-0.32,10.49,5.86,10.77,6.32C505.89,51.82,505.83,52.67,505.76,53.53z"/>
	<path class="st2" d="M523.57,45.73c-0.57-0.37-5.57-3.37-11.05-0.6c-4.89,2.47-6.5,7.67-6.75,8.53c-0.27-0.8-0.54-1.6-0.82-2.4
		c0.32-1.11,1.69-5.52,5.7-8.07c5.75-3.65,11.67-0.14,12.1,0.13C523.03,44.13,523.29,44.93,523.57,45.73z"/>
</g>
<g>
	<path class="st2" d="M89.57,136.85c-0.37-0.62-3.66-5.87-9.66-6.2c-5.34-0.29-8.81,3.53-9.37,4.17c0.07-0.86,0.14-1.71,0.21-2.57
		c0.72-0.83,3.66-4.07,8.25-4.29c6.57-0.32,10.49,5.86,10.77,6.32C89.71,135.14,89.64,135.99,89.57,136.85z"/>
	<path class="st2" d="M107.38,129.04c-0.57-0.37-5.57-3.37-11.05-0.6c-4.89,2.47-6.5,7.67-6.75,8.53c-0.27-0.8-0.54-1.6-0.82-2.4
		c0.32-1.11,1.69-5.52,5.7-8.07c5.75-3.65,11.67-0.14,12.1,0.13C106.84,127.44,107.1,128.24,107.38,129.04z"/>
</g>
<g>
	<path class="st2" d="M378.41,101.02c-0.37-0.62-3.66-5.87-9.66-6.2c-5.34-0.29-8.81,3.53-9.37,4.17c0.07-0.86,0.14-1.71,0.21-2.57
		c0.72-0.83,3.66-4.07,8.25-4.29c6.57-0.32,10.49,5.86,10.77,6.32C378.54,99.32,378.47,100.17,378.41,101.02z"/>
	<path class="st2" d="M396.21,93.22c-0.57-0.37-5.57-3.37-11.05-0.6c-4.89,2.47-6.5,7.67-6.75,8.53c-0.27-0.8-0.54-1.6-0.82-2.4
		c0.32-1.11,1.69-5.52,5.7-8.07c5.75-3.65,11.67-0.14,12.1,0.13C395.67,91.62,395.94,92.42,396.21,93.22z"/>
</g>
<g>
	<path class="st2" d="M912.8,80.19c-0.37-0.62-3.66-5.87-9.66-6.2c-5.34-0.29-8.81,3.53-9.37,4.17c0.07-0.86,0.14-1.71,0.21-2.57
		c0.72-0.83,3.66-4.07,8.25-4.29c6.57-0.32,10.49,5.86,10.77,6.32C912.93,78.49,912.86,79.34,912.8,80.19z"/>
	<path class="st2" d="M930.6,72.39c-0.57-0.37-5.57-3.37-11.05-0.6c-4.89,2.47-6.5,7.67-6.75,8.53c-0.27-0.8-0.54-1.6-0.82-2.4
		c0.32-1.11,1.69-5.52,5.7-8.07c5.75-3.65,11.67-0.14,12.1,0.13C930.06,70.79,930.33,71.59,930.6,72.39z"/>
</g>
<path class="st3" d="M322.36,81.99c2.51-2.88,3.94-6.13,3.94-9.58c0-11.19-14.91-20.35-33.82-21.18C283.67,37.09,260.78,27,233.9,27
	c-29.86,0-54.8,12.46-60.96,29.09c-3.12-0.49-6.4-0.76-9.8-0.76c-20.23,0-36.62,9.32-36.62,20.83c0,2.02,0.52,3.98,1.46,5.83
	C127.98,81.99,322.36,81.99,322.36,81.99z"/>
<path class="st3" d="M1270.19,149.47c-0.33-21.66-26.28-39.16-58.25-39.16c-6.5,0-12.75,0.73-18.6,2.07
	c-8.89-18.8-30.19-32.06-55.07-32.06c-32.87,0-59.52,23.13-59.52,51.66c0,6.14,1.24,12.03,3.5,17.5L1270.19,149.47L1270.19,149.47z"
	/>
<path class="st3" d="M619.29,124.86c0.35-19.14,24.07-34.53,53.26-34.45c5.93,0.02,11.64,0.68,16.96,1.87
	c8.16-16.6,27.64-28.25,50.34-28.19c30,0.07,54.27,20.57,54.2,45.77c-0.02,5.42-1.17,10.62-3.25,15.45L619.29,124.86z"/>
</svg>
