<?xml version="1.0" encoding="utf-8"?>
<!-- Generator: Adobe Illustrator 23.0.5, SVG Export Plug-In . SVG Version: 6.00 Build 0)  -->
<svg version="1.1" id="圖層_1" xmlns="http://www.w3.org/2000/svg" xmlns:xlink="http://www.w3.org/1999/xlink" x="0px" y="0px"
	 viewBox="0 0 1920 1080" style="enable-background:new 0 0 1920 1080;" xml:space="preserve">
<style type="text/css">
	.st0{fill:#876312;stroke:#000000;stroke-miterlimit:10;}
	.st1{fill:#6B6959;stroke:#000000;stroke-miterlimit:10;}
</style>
<g>
	<rect x="963.84" y="155.8" class="st0" width="44.27" height="597.3"/>
	<path class="st1" d="M852.7,17c2.85,85.65,61.1,154.03,132.56,154.03S1114.96,102.65,1117.81,17H852.7z M986.18,141.11
		c-52.22,0-94.8-42.06-96.88-94.75h193.76C1080.98,99.05,1038.4,141.11,986.18,141.11z"/>
	<path class="st1" d="M1121,916.7c-9.97,22.31-26.94,53.17-55.78,84.76c-25.8,28.26-52.55,47.75-73.16,60.54
		c-21.62-12.05-49.43-30.36-76.8-57.24c-32.99-32.4-52.69-64.84-64.27-88.06c0-61.64,0-123.29,0-184.93h270V916.7z"/>
</g>
</svg>
