<?xml version="1.0" encoding="utf-8"?>
<!-- Generator: Adobe Illustrator 23.0.5, SVG Export Plug-In . SVG Version: 6.00 Build 0)  -->
<svg version="1.1" id="圖層_1" xmlns="http://www.w3.org/2000/svg" xmlns:xlink="http://www.w3.org/1999/xlink" x="0px" y="0px"
	 viewBox="0 0 1920 1080" style="enable-background:new 0 0 1920 1080;" xml:space="preserve">
<style type="text/css">
	.st0{fill:#876312;stroke:#000000;stroke-miterlimit:10;}
	.st1{fill:#B5B396;stroke:#000000;stroke-miterlimit:10;}
	.st2{fill:#634710;stroke:#000000;stroke-miterlimit:10;}
	.st3{fill:#777064;stroke:#000000;stroke-miterlimit:10;}
	.st4{fill:none;stroke:#4C370C;stroke-width:9;stroke-miterlimit:10;}
	.st5{fill:none;stroke:#2D2008;stroke-width:9;stroke-miterlimit:10;}
</style>
<g>
	<polygon class="st0" points="1503.43,838.7 883.54,950.59 831.69,598.78 1451.57,486.9 	"/>
	<path class="st1" d="M1424.91,943.25c-164.59,29.14-329.18,58.28-493.77,87.42c-6.58-31.08-13.17-62.17-19.75-93.25
		c166.78-34.48,333.57-68.96,500.35-103.45C1416.13,870.4,1420.52,906.82,1424.91,943.25z"/>
	<path class="st1" d="M931.8,948.35c-17.64,7.34-52.59,18.77-95.58,11.66c-21.6-3.57-39.14-10.81-51.89-17.48
		c6.37-101.5,12.74-203.01,19.12-304.51c41.42-5.83,82.84-11.66,124.26-17.48C929.07,729.79,930.43,839.07,931.8,948.35z"/>
	<path class="st1" d="M1523.66,833.97c-37.31,0-74.61,0-111.92,0c-3.5-103.69-7.01-207.38-10.51-311.07
		c41.42-5.83,82.84-11.66,124.26-17.48C1524.88,614.93,1524.27,724.45,1523.66,833.97z"/>
	<rect x="484.77" y="538.2" class="st2" width="298.9" height="396.31"/>
	<path class="st3" d="M750.48,1012.45c-82.65-31.08-165.29-62.17-247.94-93.25c2.33-30.6,4.67-61.19,7-91.79
		c85.45,30.6,170.89,61.19,256.34,91.79C760.75,950.29,755.62,981.37,750.48,1012.45z"/>
	<rect x="434.73" y="506.14" class="st3" width="79" height="311.8"/>
	<path class="st3" d="M807.37,947.62c-21.07-0.49-42.14-0.97-63.2-1.46c1.76-111.22,3.51-222.44,5.27-333.65
		c21.51,5.83,43.01,11.66,64.52,17.48C811.76,735.87,809.56,841.74,807.37,947.62z"/>
	<path class="st0" d="M1501.94,415.08c-233.06,39.34-466.12,78.68-699.18,118.02c-133.43-44.68-266.86-89.36-400.28-134.04
		c21.06-28.19,52.57-67.31,94.8-109.28c46.74-46.45,122.73-120.65,238.33-170.47c95.8-41.29,175.63-47.23,233.06-51
		c92.26-6.04,185.7-12.16,280.46,32.05C1411.31,176.05,1481.02,354.25,1501.94,415.08z"/>
	<path class="st1" d="M802.76,533.1c-129.92-45.17-259.83-90.33-389.75-135.5c-0.12-24.88,2.37-103.83,53.99-177.75
		c14.63-20.95,55.27-73.1,126.41-97.62c18.96-6.53,76-25.27,142.21-2.91c87.77,29.64,130.35,110.92,150.11,148.61
		c54.09,103.22,48.03,206.42,43.45,247.69C887.03,521.44,844.89,527.27,802.76,533.1z"/>
	<path class="st3" d="M802.76,533.1c-131.67-44.68-263.34-89.36-395.02-134.04c7.09-129.79,71.27-227.25,148.79-243.32
		c67.36-13.96,125.01,37.63,144.84,55.37C820.24,317.46,805.07,508.35,802.76,533.1z"/>
	<path class="st2" d="M727.71,506.87c-80.76-26.23-161.52-52.45-242.28-78.68c-1.24-12.51-5.01-63.66,26.33-110.73
		c6.93-10.41,37.86-56.9,81.64-58.28c67.16-2.12,118.85,101.83,131.67,177.75C729.96,465.86,729.16,490.52,727.71,506.87z"/>
	<path class="st1" d="M1529.59,413.62c-42.57,7.29-85.15,14.57-127.72,21.86c0.11-31.34-2.94-142.11-77.69-240.41
		C1228.77,69.6,1092.53,64.37,1071.37,63.94c114.81-55.6,246.97-37.14,341.03,48.08C1536.61,224.56,1530.51,395.65,1529.59,413.62z"
		/>
	<path class="st1" d="M802.76,651.12c-132.11-46.62-264.22-93.25-396.33-139.87c-3.38-3.72-24.66-27.91-22.38-64.11
		c1.6-25.45,13.92-42.42,18.43-48.08c133.43,44.68,266.86,89.36,400.28,134.04c242.28-39.82,484.55-79.65,726.83-119.47
		c2.72,1.58,26.76,16.08,31.6,48.08c4.66,30.8-12.27,52.61-14.48,55.37C1298.72,561.75,1050.74,606.43,802.76,651.12z"/>
	<path class="st3" d="M482.31,944.32c-19.57-6.6-39.13-13.2-58.7-19.8c-16.19-5.46-27.37-22.07-27.58-40.99l-0.55-49.26
		c-0.29-26.06,19.94-46.35,43.05-43.16c20.59,2.84,41.18,5.68,61.77,8.52c20.07,2.77,34.9,22.44,33.96,45.05
		c-0.84,20.18-1.68,40.36-2.52,60.54C530.57,933.2,506.29,952.41,482.31,944.32z"/>
	<path class="st3" d="M818.26,1021.07c0.72,17.17-11.91,31.52-27.44,30.91c-9.33-0.37-19.68-1.58-30.76-4.18
		c-9.72-2.28-18.47-5.27-26.19-8.5c-11.5-4.81-18.44-17.81-16.89-31.31c2.68-23.36,5.37-46.73,8.05-70.09
		c2.07-18.04,18.23-29.74,34-24.63c12.39,4.02,24.78,8.03,37.18,12.05c10.94,3.55,18.65,14.39,19.17,27L818.26,1021.07z"/>
	<path class="st1" d="M909.77,1040.69c-19.28,2.09-38.56,4.17-57.84,6.26c-20.35,2.2-37.98-15.49-37.98-38.12v-43.98
		c0-19.08,12.7-35.25,29.77-37.92c18.26-2.85,36.52-5.7,54.78-8.56c17.38-2.71,33.89,9.37,38.31,28.16
		c1.45,6.17,2.68,12.85,3.55,20.01c1.79,14.87,1.59,28.44,0.46,40.16C939.07,1024.75,926.08,1038.93,909.77,1040.69z"/>
	<path class="st1" d="M1514.3,940.15c-22.76,2.09-45.51,4.18-68.27,6.27c-24.02,2.21-44.83-15.52-44.83-38.19v-44.06
		c0-19.12,14.99-35.32,35.14-38c21.55-2.86,43.1-5.72,64.65-8.57c20.51-2.72,40,9.39,45.22,28.22c1.71,6.18,3.17,12.88,4.19,20.05
		c2.12,14.9,1.88,28.5,0.54,40.24C1548.88,924.17,1533.56,938.38,1514.3,940.15z"/>
	<line class="st4" x1="892.95" y1="283.22" x2="1323.52" y2="194.35"/>
	<line class="st4" x1="804.73" y1="166.66" x2="1182.63" y2="87.98"/>
	<line class="st4" x1="932.46" y1="409.98" x2="1378.83" y2="318.19"/>
	<line class="st4" x1="932.46" y1="721.78" x2="1405.16" y2="624.16"/>
	<line class="st4" x1="932.46" y1="842.71" x2="1402.53" y2="746.55"/>
	<line class="st5" x1="494.65" y1="353.89" x2="716.51" y2="423.1"/>
	<line class="st5" x1="514.4" y1="635.09" x2="748.11" y2="707.21"/>
	<line class="st5" x1="514.4" y1="731.25" x2="746.8" y2="803.37"/>
	<path class="st1" d="M1309.04,546.94c-2.86,79.29-72.2,135.08-138.26,128.22c-53.23-5.53-102.32-51.54-110.6-112.19
		c-10.22-74.83,44.45-151.56,117.19-155.9C1248,402.85,1311.88,468.29,1309.04,546.94z"/>
	<path d="M1223.34,507.68c-0.96-22.1-19.71-39.06-41.86-37.88s-39.33,20.06-38.37,42.16c0.72,16.51,11.36,30.15,25.94,35.5
		l2.9,66.53l35.51-1.9l-2.99-68.48C1216.34,536.09,1223.99,522.63,1223.34,507.68z"/>
</g>
</svg>
