<?xml version="1.0" encoding="utf-8"?>
<!-- Generator: Adobe Illustrator 23.0.5, SVG Export Plug-In . SVG Version: 6.00 Build 0)  -->
<svg version="1.1" id="圖層_1" xmlns="http://www.w3.org/2000/svg" xmlns:xlink="http://www.w3.org/1999/xlink" x="0px" y="0px"
	 viewBox="0 0 1920 1080" style="enable-background:new 0 0 1920 1080;" xml:space="preserve">
<style type="text/css">
	.st0{fill:#F9F9F5;}
	.st1{fill:#190F17;}
	.st2{fill:#556D55;}
	.st3{fill:#2A4C33;}
	.st4{fill:#406309;}
	.st5{fill:#2C663D;}
	.st6{fill:#58A56C;}
	.st7{fill:#2D222E;}
	.st8{fill:#719E38;}
	.st9{fill:#D4CF99;}
	.st10{fill:#020202;}
	.st11{fill:#CAC16B;}
	.st12{fill:#342D35;}
	.st13{fill:#10050F;}
	.st14{fill:#8E3C07;}
	.st15{fill:#477A1A;}
	.st16{fill:#7AB640;}
	.st17{fill:#5C8431;}
	.st18{fill:#B77D35;}
	.st19{fill:#0F0E0E;}
	.st20{fill:#2C262D;}
	.st21{fill:#97D0AC;}
	.st22{fill:#120B12;}
	.st23{fill:#312537;}
	.st24{fill:#0F070F;}
	.st25{fill:#7FBCD2;}
</style>
<g>
	<g>
		<path class="st0" d="M529.8,348.12c52.2,0,52.2-81,0-81C477.78,267.12,477.78,348.12,529.8,348.12L529.8,348.12z"/>
	</g>
</g>
<g>
	<path class="st1" d="M761.82,688.14c19.62-3.78,30.96-24.48,48.6-34.02c12.24-6.48,26.1-7.02,39.96-7.56c27-0.9,54-1.8,81-2.7
		c10.26-0.36,21.06-0.54,30.78,2.7c7.02,2.52,13.5,6.48,19.62,10.8c16.74,11.34,32.76,23.76,48.24,36.72
		c-32.4,37.62-75.06,64.8-117.72,90.18c-14.04,8.46-30.24,17.1-46.26,12.96c-9-2.52-16.38-8.28-23.4-14.58
		c-30.6-27.36-57.24-58.86-79.2-93.42"/>
</g>
<path class="st2" d="M1176,1080H744c-178.2,0-324-145.8-324-324V324C420,145.8,565.8,0,744,0h432c178.2,0,324,145.8,324,324v432
	C1500,934.2,1354.2,1080,1176,1080z"/>
<g>
	<path class="st3" d="M1037.22,446.04c14.94,36.9,27,75.06,38.88,113.22c7.02,22.32,14.4,45.36,16.2,68.76
		c1.08,14.04,0.36,28.26-5.76,41.04c-5.94,12.6-16.38,22.68-27.9,30.78c-8.64,6.48-18.18,11.88-28.08,15.66
		c-16.56,6.12-34.56,7.38-52.2,8.28c-54.36,3.24-108.54,6.84-162.9,7.38c-15.3,0.36-31.14,0.36-46.26-2.52
		c-28.08-5.22-54.36-19.62-72.54-41.4c-18.36-21.96-28.08-50.76-25.92-78.84c2.52-29.16,16.74-55.8,34.38-79.38
		c8.28-10.98,17.28-21.78,23.94-34.02c11.34-20.88,15.48-44.46,21.24-67.5c5.94-22.86,14.58-46.44,32.04-62.1
		c13.86-12.42,31.86-18.72,50.04-22.86c39.42-9.72,80.46-11.52,120.6-5.94c12.96,1.98,25.56,4.5,37.26,10.8
		c17.82,9.72,30.24,27,37.62,45.9c7.38,18.9,9.72,39.06,10.98,59.04"/>
</g>
<g>
	<path class="st4" d="M862.62,610.38c-0.9,18.54-13.86,37.26-24.12,46.26c-9.72,8.1-26.64,12.24-49.32,24.3
		c-2.7,1.62-5.76,3.24-7.38,5.94c-2.7,4.5-0.54,10.8,2.88,14.58c9,10.26,24.12,10.8,37.62,10.8c36.36,0,72.9,0,109.26-0.36
		c19.26,0,40.86-1.44,52.92-16.2c3.78-4.86,6.12-11.7,3.78-17.28c-3.24-7.56-12.6-9.36-20.52-11.52c-28.08-8.1-49.86-34.02-53.46-63
		c-19.98-5.94-43.74-10.62-50.22-1.08C862.62,605.34,862.8,608.04,862.62,610.38z"/>
</g>
<g>
	<path class="st5" d="M806.1,701.1c51.48-0.9,103.14-1.08,154.98-1.26c-14.76,15.3-29.52,30.96-44.28,46.44
		c-13.14,14.04-27,28.08-43.74,37.44c-1.62,0.9-3.42,1.98-5.04,1.44c-1.62-0.36-2.7-1.62-3.78-2.7
		c-22.86-24.3-42.66-51.3-58.68-80.64"/>
</g>
<g>
	<g>
		<path class="st6" d="M810.6,721.26c48.24-1.08,96.3-2.16,144.72-3.24c12.96-0.36,12.96-20.52,0-20.34
			c-48.24,1.08-96.48,2.16-144.72,3.24C797.64,701.1,797.46,721.44,810.6,721.26L810.6,721.26z"/>
	</g>
</g>
<g>
	<g>
		<path class="st7" d="M806.64,670.32c14.4-3.78,27.9-10.8,38.88-20.52c1.08-0.9,1.26-2.7,1.08-3.96c-1.08-3.24-3.78-4.86-7.02-4.68
			c-3.24,0.36-6.12,1.8-9.18,3.24c-6.48,2.88-13.14,5.94-19.62,9c-1.8,0.9-2.52,3.78-1.26,5.76c1.08,2.16,3.42,2.52,5.76,1.44
			c5.04-2.16,10.26-4.68,15.12-6.84c2.52-1.08,4.86-2.16,7.38-3.24c0.9-0.36,1.62-0.9,2.7-1.08c-0.54,0,0.9,0,0.54,0
			c-0.54,0.54-1.62-1.08-1.62-1.26c0.36-1.44,0.9-2.7,1.08-4.14c-10.26,9-22.32,15.12-35.28,18.36
			C799.26,664.02,801.6,671.76,806.64,670.32L806.64,670.32z"/>
	</g>
</g>
<g>
	<path class="st8" d="M996.72,337.14c5.94,6.48,5.94,10.98,12.06,36.9c5.76,24.12,24.48,85.86,26.64,133.02
		c0.36,6.84,0.54,13.86-1.8,19.98c-3.24,9.54-11.34,16.2-18.9,22.14c-36.36,28.62-77.22,51.3-120.6,67.14
		c-3.42,1.44-7.02,2.52-10.8,1.98c-3.24-0.54-5.94-2.52-8.64-4.14c-37.26-24.48-74.52-49.14-112.14-73.62
		c-9.72-6.48-19.98-13.5-24.3-24.3s-1.62-23.04,1.08-34.38c12.42-51.12,25.92-103.14,55.26-146.34c1.8-2.7,3.78-5.4,6.84-7.02
		c4.32-2.52,8.82-1.8,10.26-1.62c7.74,0.9-37.62-7.74,94.14-3.24C981.24,326.7,989.7,329.22,996.72,337.14z"/>
</g>
<g>
	<path class="st9" d="M878.46,466.38c-0.36,4.86-0.54,9.36-0.9,14.4c-0.36,2.52-0.36,5.22-1.26,7.56c-1.08,2.52-3.24,4.32-5.4,6.12
		c-4.68,3.78-9.18,7.74-13.86,11.7c-0.9,0.54-1.62,1.26-1.62,2.52s1.08,2.52,2.16,2.88c9.18,7.02,18.18,14.04,27.36,21.06
		c1.08,0.9,1.8,1.62,3.24,1.98c2.16,0.54,4.14-0.36,5.94-1.08c10.8-4.86,21.6-10.26,32.04-15.66c0.9-0.54,1.98-1.08,1.98-1.8
		s-0.9-1.62-1.44-2.16c-4.5-3.78-9.36-7.56-14.04-10.98c-1.8-1.62-3.96-3.24-4.86-5.4c-1.08-2.16-1.08-4.5-1.08-7.02
		c0-6.84,0.36-13.86,0.36-20.52c0-1.08,0-2.52-0.9-3.24c-0.9-0.9-2.16-1.08-3.42-1.08c-7.74,0-15.66,0-23.22,0"/>
</g>
<g>
	<path class="st0" d="M917.7,448.02c6.48-7.38,12.96-14.76,20.88-20.88c7.92-5.94,17.28-9.9,27.36-9.72
		c11.34,0.36,21.6,6.12,31.32,11.88c3.78,2.16,7.74,4.5,9.36,8.64c2.16,5.04-0.54,11.34-4.32,15.3c-5.76,6.84-14.04,10.8-22.68,12.6
		c-8.64,1.8-17.64,2.16-26.1,1.8c-10.26-0.36-21.24-1.08-29.88-6.84c-3.24-2.16-5.94-4.86-7.38-8.28c-1.08-3.6,0-8.1,3.24-9.9"/>
</g>
<g>
	<g>
		<path class="st10" d="M960.9,453.78c23.4,0,23.4-36.36,0-36.36C937.32,417.42,937.32,453.78,960.9,453.78L960.9,453.78z"/>
	</g>
</g>
<g>
	<g>
		<path class="st10" d="M919.5,448.02c10.98-10.44,23.4-24.3,39.6-25.02c15.66-0.9,31.68,3.6,45.72,10.62
			c4.5,2.52,8.64-4.68,3.96-7.02c-15.3-7.74-33.84-12.6-51.3-11.7c-18.18,1.44-31.32,15.48-44.1,27.36
			C909.78,445.86,915.72,451.44,919.5,448.02L919.5,448.02z"/>
	</g>
</g>
<g>
	<path class="st0" d="M855.24,448.02c-6.48-7.38-12.96-14.76-20.88-20.88c-7.92-5.94-17.28-9.9-27.36-9.72
		c-11.34,0.36-21.6,6.12-31.32,11.88c-3.78,2.16-7.74,4.5-9.54,8.64c-2.16,5.04,0.54,11.34,4.32,15.3
		c5.76,6.84,14.04,10.8,22.68,12.6c8.64,1.8,17.64,2.16,26.1,1.8c10.26-0.36,21.24-1.08,30.06-6.84c3.24-2.16,5.94-4.86,7.38-8.28
		c1.08-3.6,0-8.1-3.24-9.9"/>
</g>
<g>
	<g>
		<path class="st10" d="M811.86,453.78c23.4,0,23.4-36.36,0-36.36S788.28,453.78,811.86,453.78L811.86,453.78z"/>
	</g>
</g>
<g>
	<g>
		<path class="st10" d="M859.02,441.9c-12.42-11.88-25.74-25.92-44.1-27.36c-17.64-1.44-35.64,3.78-51.3,11.52
			c-4.68,2.52-0.54,9.54,4.14,7.02c14.04-7.02,29.88-10.98,45.54-10.44c16.56,0.9,28.62,14.4,39.6,25.02
			C857.22,451.44,862.8,445.86,859.02,441.9L859.02,441.9z"/>
	</g>
</g>
<circle class="st11" cx="987" cy="499.5" r="20.34"/>
<circle class="st11" cx="784.5" cy="499.5" r="20.34"/>
<g>
	<g>
		<path class="st10" d="M850.38,579.96c26.46-10.8,54.9-14.76,83.16-11.88c5.22,0.54,5.22-7.56,0-8.1
			c-28.8-2.88-58.32,1.26-85.32,12.24C843.72,574.02,845.52,581.76,850.38,579.96L850.38,579.96z"/>
	</g>
</g>
<g>
	<path class="st7" d="M853.62,643.86c-5.94,0.36-19.62,2.16-32.4,11.88c-3.78,3.06-11.52,9.18-14.58,18.18
		c-5.04,14.58,3.06,30.78,18.36,50.76c17.82,22.86,35.64,45.9,53.64,68.94c-45.9-17.1-85.86-50.04-111.24-91.8
		c-3.6-5.76-6.84-12.06-5.76-18.54c1.26-6.84,7.02-11.52,12.06-16.2c17.1-13.86,25.38-20.88,36.36-24.48
		c18.72-5.94,34.74-2.88,42.66-1.08"/>
</g>
<g>
	<path class="st7" d="M970.26,661.5c5.04-10.62,20.52-12.24,30.78-6.48s16.2,16.74,21.78,27c1.62,2.88,3.06,6.12,1.62,9.18
		c-0.9,1.62-2.16,2.7-3.6,3.78c-48.24,37.26-99.72,70.74-153.18,100.26c21.24-24.12,42.48-48.24,63.72-72.36
		c16.38-18.72,33.84-39.24,35.64-64.08"/>
</g>
<g>
	<path class="st12" d="M727.98,699.12c5.4-9.9,15.12-21.96,25.92-18c3.78,1.26,6.48,4.32,9.18,7.02
		c32.94,34.56,68.76,66.06,107.46,94.5c2.16,1.62,4.32,3.24,7.02,3.42c3.24,0.54,6.12-0.9,9.18-2.16
		c52.38-23.4,101.34-55.62,143.28-94.86c4.68,4.68,9.54,8.82,14.04,13.5c1.98,1.62,3.78,3.78,4.14,6.12
		c0.36,3.78-3.24,6.48-6.48,8.64c-50.22,31.86-102.6,59.94-156.96,84.06c-4.32,1.8-8.64,3.78-13.14,2.88
		c-4.14-0.54-7.56-2.88-10.8-5.4c-44.82-32.94-89.28-66.6-133.74-100.62"/>
</g>
<g>
	<path class="st13" d="M1139.28,853.74c19.62-3.24,39.96-3.78,59.76-1.98c1.62,0.36,3.24,0.54,4.68,1.62
		c1.26,1.44,1.26,3.6,1.26,5.4c0,46.26,0,92.34-0.36,138.24c-55.08,1.26-110.52,0.9-165.42-1.44c-3.06,0-6.12-0.36-9-2.16
		c-2.16-1.62-3.24-4.32-4.32-7.02c-22.14-55.26-37.8-113.4-46.26-172.44c57.6,19.44,117.36,31.86,178.2,36.72"/>
</g>
<g>
	<g>
		<path class="st7" d="M900.6,780.48c44.28-24.84,86.22-53.46,125.82-84.78c4.14-3.24-1.62-8.82-5.76-5.76
			c-39.06,31.14-80.64,59.04-124.2,83.7C891.96,776.34,896.1,783.36,900.6,780.48L900.6,780.48z"/>
	</g>
</g>
<g>
	<path class="st14" d="M1369.86,447.66c10.44-1.26,21.24,1.08,30.42,6.12c1.44,0.9,2.7,1.62,3.24,3.24c0.9,2.52-1.08,4.86-3.06,7.02
		c-5.94,6.84-10.26,14.58-14.58,22.32c-29.88,56.88-51.12,117.9-71.1,179.1c-17.82,54.9-35.1,109.98-51.48,165.24
		c-5.22,17.64-10.26,35.1-16.74,52.2c-11.88,31.86-28.26,62.1-39.42,94.14c-2.7,8.1-5.4,16.38-11.88,21.78s-18.18,5.76-22.14-1.8
		c36.9-69.12,61.74-144,86.4-218.16c7.38-22.14,14.58-44.64,22.14-66.6c5.76-16.74,10.98-33.84,16.2-50.76
		c21.24-71.82,33.12-147.6,71.64-211.86"/>
</g>
<g>
	<g>
		<path class="st15" d="M1196.34,837c11.34-5.4,23.4-10.98,36.18-9.9c4.86,0.54,9.72,1.98,12.96,5.76
			c4.32,4.86,4.86,12.42,1.98,18.36s-8.64,9.9-14.94,12.24c-6.12,2.16-12.96,2.52-19.44,2.7c-5.4,0-10.44,0-16.02-0.54
			c-0.9,0-1.62-0.36-2.16-0.9s-0.54-1.08-0.54-1.62c-0.54-8.28-0.36-17.1,1.26-25.38"/>
	</g>
	<g>
		<g>
			<path class="st16" d="M1219.02,823.14c-1.26-2.52-0.36-5.76,1.62-7.56s4.5-2.88,7.38-3.24c11.52-2.16,23.22,2.7,33.48,8.1
				c9.72,4.86,20.52,12.06,21.6,22.86c0,1.44,0,3.06-1.08,3.78c-0.9,0.54-1.62,0.9-2.52,1.26c-1.62,1.26-0.9,4.14-0.36,6.48
				c0.9,5.22-3.42,10.26-8.28,10.62c-2.7,0.36-5.94-0.36-7.02,2.16c-0.54,1.08-0.36,2.16,0,3.42c0.36,4.68-3.78,9-8.28,8.64
				c0.54,5.94,0.9,12.42-3.6,16.38c-5.4,5.22-14.04,2.88-21.06,0.36c-3.96-1.62-8.64-3.24-10.98-7.02
				c-2.16-3.6-2.16-7.74-1.62-11.88c2.52-15.3,11.7-28.62,19.26-42.12c0.54-0.9,0.9-1.62,0.54-2.7c-0.36-0.9-1.08-1.08-1.62-1.44
				c-3.78-1.26-7.74-1.8-11.7-3.24c-3.78-1.44-7.38-4.86-7.02-9"/>
		</g>
		<g>
			<g>
				<path class="st17" d="M1229.46,851.76c11.88,3.24,22.86,8.64,32.4,16.56c1.8,1.62,4.86-1.44,2.88-3.06
					c-9.9-8.1-21.6-14.04-34.38-17.28C1228.2,847.26,1227.12,851.04,1229.46,851.76L1229.46,851.76z"/>
			</g>
		</g>
		<g>
			<g>
				<path class="st17" d="M1237.38,836.1c13.86,0.54,26.1,7.74,37.8,14.58c2.16,1.44,4.32-2.16,2.16-3.42
					c-12.42-7.38-25.2-14.58-39.96-15.12C1234.86,831.78,1234.86,835.92,1237.38,836.1L1237.38,836.1z"/>
			</g>
		</g>
		<g>
			<g>
				<path class="st17" d="M1237.56,880.2c5.76,1.62,11.34,3.6,17.28,5.04c2.52,0.9,3.6-3.24,1.08-3.78
					c-5.76-1.62-11.34-3.6-17.28-5.22C1236.12,875.7,1235.22,879.3,1237.56,880.2L1237.56,880.2z"/>
			</g>
		</g>
	</g>
</g>
<g>
	<g>
		<path class="st18" d="M1490.28,373.32c-41.4,31.14-79.02,66.6-112.5,105.84L1490.28,373.32L1490.28,373.32z"/>
	</g>
	<g>
		<g>
			<path class="st18" d="M1391.46,483.84c24.48-46.44,58.14-86.76,93.24-125.64c8.64-9.72-5.76-23.94-14.4-14.4
				c-36.18,39.96-71.1,81.9-96.48,129.6C1367.88,484.92,1385.52,495.18,1391.46,483.84L1391.46,483.84z"/>
		</g>
	</g>
	<g>
		<g>
			<path class="st18" d="M1388.4,479.34c21.6-54.54,52.92-105.12,91.8-148.5c8.64-9.72-5.76-24.12-14.4-14.4
				c-41.58,46.44-74.34,99.72-97.02,157.32C1364.1,486,1383.9,491.22,1388.4,479.34L1388.4,479.34z"/>
		</g>
	</g>
	<g>
		<g>
			<path class="st18" d="M1387.32,478.98c7.56-31.86,13.5-64.98,24.3-96.3c10.98-32.22,29.52-62.64,44.46-92.88
				c5.94-11.7-11.52-21.78-17.46-10.26c-15.66,31.14-33.48,61.74-45.36,94.5c-11.7,31.86-17.64,66.42-25.38,99.54
				C1365,486.36,1384.44,491.76,1387.32,478.98L1387.32,478.98z"/>
		</g>
	</g>
	<g>
		<g>
			<path class="st18" d="M1398.12,448.74c6.84-45.36,31.68-85.14,60.12-120.06c3.6-4.32,4.14-10.26,0-14.4
				c-3.6-3.6-10.8-4.32-14.4,0c-30.78,37.44-58.14,80.1-65.7,129.06c-0.9,5.4,1.44,10.8,7.02,12.42
				C1390.74,457.2,1397.4,454.14,1398.12,448.74L1398.12,448.74z"/>
		</g>
	</g>
	<g>
		<g>
			<path class="st18" d="M1384.26,477.9c7.56-52.74,23.94-103.5,48.6-150.48c5.94-11.52-11.34-21.96-17.64-10.26
				c-25.38,48.6-42.66,100.98-50.4,155.34c-0.9,5.4,1.26,10.8,7.02,12.42C1376.7,486.54,1383.36,483.3,1384.26,477.9L1384.26,477.9z
				"/>
		</g>
	</g>
	<g>
		<g>
			<path class="st18" d="M1382.28,473.58c7.02-49.68,17.82-98.82,32.04-147.06c3.78-12.42-16.02-17.82-19.44-5.4
				c-14.4,48.24-25.02,97.38-32.04,147.06c-0.9,5.4,1.44,10.8,7.02,12.42C1374.36,482.22,1381.38,478.98,1382.28,473.58
				L1382.28,473.58z"/>
		</g>
	</g>
	<g>
		<g>
			<path class="st18" d="M1360.14,292.68c-1.62,60.84,0.9,121.5,7.02,181.62c1.44,12.96,21.6,12.96,20.34,0
				c-6.48-60.48-8.82-120.96-7.02-181.62C1380.66,279.72,1360.32,279.72,1360.14,292.68L1360.14,292.68z"/>
		</g>
	</g>
	<g>
		<g>
			<path class="st18" d="M1378.86,468.36c-0.9-52.92,0.54-105.84,4.32-158.4c0.9-12.96-19.44-12.96-20.34,0
				c-3.6,52.92-5.22,105.48-4.32,158.4C1358.88,481.32,1379.04,481.68,1378.86,468.36L1378.86,468.36z"/>
		</g>
	</g>
	<g>
		<g>
			<path class="st18" d="M1386.06,417.6c1.08-20.52,3.6-39.24,7.56-59.22c1.08-5.04-1.26-10.98-7.02-12.42
				c-5.22-1.08-11.34,1.62-12.42,7.02c-4.32,21.24-7.02,43.02-8.28,64.62c-0.36,5.4,4.86,10.26,10.26,10.26
				C1381.74,427.32,1385.88,423.36,1386.06,417.6L1386.06,417.6z"/>
		</g>
	</g>
	<g>
		<g>
			<path class="st18" d="M1376.7,474.3c2.52-52.02,1.26-104.22-3.78-156.06c-1.26-12.96-21.6-12.96-20.34,0
				c5.22,51.84,6.48,104.04,3.78,156.06C1355.82,487.62,1375.98,487.26,1376.7,474.3L1376.7,474.3z"/>
		</g>
	</g>
	<g>
		<g>
			<path class="st18" d="M1372.74,470.34c-4.5-20.34-3.42-41.94-4.32-62.64c-0.9-21.6-1.98-43.2-2.7-64.98
				c-0.54-12.96-20.88-12.96-20.34,0c1.08,22.32,1.8,45,2.88,67.5c0.9,21.6,0.36,43.92,5.04,65.34
				C1356.18,488.52,1375.8,483.12,1372.74,470.34L1372.74,470.34z"/>
		</g>
	</g>
	<g>
		<path class="st18" d="M1344.12,352.8c-2.16,43.02,9.18,85.32,20.34,126.9"/>
	</g>
	<g>
		<g>
			<path class="st18" d="M1402.98,378.9c-0.54-7.02,2.16-13.14,4.86-19.62c3.24-7.38,6.48-14.58,9.72-21.78
				c6.84-15.12,13.5-30.24,19.98-45.36c2.16-5.22,1.26-10.8-3.6-13.86c-4.32-2.52-11.52-1.26-13.86,3.6
				c-7.38,16.2-14.4,32.4-21.6,48.6c-3.42,7.74-7.02,15.3-10.26,23.22c-3.6,8.1-6.48,16.2-5.76,25.2
				c0.54,5.4,4.32,10.26,10.26,10.26C1397.94,388.98,1403.7,384.12,1402.98,378.9L1402.98,378.9z"/>
		</g>
	</g>
	<g>
		<g>
			<path class="st18" d="M1409.1,342.72c2.16-12.6,4.86-25.74,7.74-37.98c1.26-5.22,2.7-10.26,4.5-15.12
				c0.54-1.08,0.54-1.44,0.36-0.9c0.36-0.9,0.54-1.44,1.08-2.16c0.54-1.08,1.08-1.98,1.62-2.88c1.62-2.88,2.52-3.78,4.32-5.94
				c3.78-4.14,3.96-10.26,0-14.4c-3.78-3.78-10.62-4.14-14.4,0c-9,9.36-13.5,21.24-16.56,33.48c-3.42,13.14-6.12,26.64-8.64,40.14
				c-0.9,5.4,1.26,10.8,7.02,12.42C1401.36,351,1408.02,348.12,1409.1,342.72L1409.1,342.72z"/>
		</g>
	</g>
</g>
<g>
	<g>
		<path class="st19" d="M1355.1,486.54c2.16-0.36,4.5-0.36,6.84-0.36c2.16,0.36,4.14,0.54,6.48,1.08c4.5,1.08,8.1,3.06,12.06,5.76
			c1.98,1.26,4.68,0.36,5.76-1.26c1.08-2.16,0.36-4.32-1.26-5.76c-8.46-5.94-19.26-8.64-29.52-7.56c-2.16,0.36-4.14,1.62-4.14,4.14
			C1350.96,484.74,1352.76,486.9,1355.1,486.54L1355.1,486.54z"/>
	</g>
</g>
<g>
	<path class="st20" d="M732.66,699.84c-9.36,91.98-58.5,174.96-87.12,262.98c-3.78,11.52-7.02,23.94-3.24,35.64
		c136.8-13.5,275.76,11.7,412.56-1.08c-14.94-54.9-29.7-109.62-44.64-164.7c54.36,44.64,111.06,86.4,171,122.94
		c4.5-42.48,10.62-84.6,18-126.36c-57.78,5.4-117.36-29.7-140.4-83.16c-6.48-14.94-10.62-31.32-21.96-42.66
		c-41.58,38.34-87.84,76.5-143.28,86.76c-8.28,1.62-17.28,2.52-25.74-0.36c-6.84-2.52-12.6-7.02-18-11.7
		c-35.1-28.8-70.02-57.42-105.12-86.4c-4.32-3.6-11.7-6.48-14.4-1.98c-0.9,1.44-0.9,3.24-0.9,4.86c0,6.12,0,12.24,0,18.36"/>
</g>
<g>
	<g>
		<path d="M774.6,769.86c-24.84,69.12-39.96,141.12-44.82,214.74c-0.36,5.04,7.74,5.04,8.1,0c4.68-72.72,19.98-144,44.64-212.58
			C783.96,766.8,776.22,764.82,774.6,769.86L774.6,769.86z"/>
	</g>
</g>
<g>
	<path d="M881.52,845.1c13.86,47.88,19.62,98.1,17.82,147.6c0,1.44-0.36,2.7-1.08,3.6c-1.08,0.9-2.52,0.9-3.78,0.9
		c-8.64-0.54-17.28-1.44-26.1-1.98c-1.08,0-2.52-0.36-3.24-0.9c-1.98-1.62-1.44-4.5-0.54-6.84c16.02-47.34,2.88-99.9,15.12-148.5
		c1.8,6.84,3.78,13.86,5.76,20.52"/>
</g>
<g>
	<path d="M997.8,856.44c5.76,44.64,1.62,90.18,8.1,134.64c0.36,1.8,0.54,3.78,2.16,4.86c1.26,0.9,2.88,0.9,4.32,0.9
		c9.72-0.54,19.44-1.08,29.16-1.44c-10.26-46.98-24.3-93.06-42.3-137.88"/>
</g>
<g>
	<path class="st21" d="M803.4,371.52c39.6-17.1,128.52,10.8,145.26,10.98c1.44,0,4.86,0,7.74-2.52c2.7-2.52,2.88-6.48,4.14-9.9
		c4.14-14.04,25.2-19.44,35.64-8.82c3.78,3.78,5.94,8.64,8.1,13.86c28.62,66.6,51.84,135.54,70.02,205.74
		c4.32,16.56,8.1,33.84,3.96,50.22c-3.96,16.38-15.66,29.88-25.02,44.28c-9.36,14.04-17.64,31.14-13.5,47.88
		c4.32,17.82,22.5,30.06,40.86,31.14c18.36,1.26,36.18-6.84,50.76-17.82c-15.66-4.32-31.14-9.9-45.9-17.28
		c-2.52-1.08-5.04-2.7-5.4-5.4s2.16-5.22,4.5-6.84c10.98-7.38,24.48-9.18,36.72-14.4c38.88-16.02,60.12-65.34,45.36-104.58
		c-7.74-20.52-23.22-36.72-36.9-53.64c-34.02-41.76-58.86-90.9-72.9-143.1c-3.96-15.3-7.56-31.68-15.3-45.72
		c-18.9-34.02-59.22-48.78-97.02-57.96c-40.14-9.72-82.62-16.02-122.58-5.76s-77.22,40.86-84.78,81.36
		c-2.7,13.5-1.8,27.36-4.32,41.04c-3.78,22.14-15.66,42.3-28.08,61.02c-22.86,34.02-49.32,65.88-78.84,94.5
		c-11.88,11.7-24.3,22.68-31.86,37.62c-7.56,14.58-9,33.84,1.08,46.62c4.86,6.12,11.52,10.62,18.36,14.58
		c21.6,13.14,43.02,26.46,64.62,39.6c5.22,3.24,10.62,6.48,13.86,11.52s3.78,12.6-0.54,17.1c-2.88,2.88-7.38,3.78-10.98,4.32
		c-14.76,2.52-29.7,3.78-44.46,4.32c14.76,16.38,37.44,25.56,59.76,24.48c14.94-0.9,31.86-9.36,32.04-24.3
		c0-6.48-3.42-9.54-1.62-15.66c3.24-10.62,17.1-10.26,18.72-17.64c1.8-8.64-16.2-17.82-27-27c-13.14-11.34-27-33.48-27-81
		c25.38-19.62,38.34-39.6,45.36-54c22.86-46.62,4.5-78.84,33.84-127.44C783.42,388.8,790.62,376.92,803.4,371.52z"/>
</g>
<g>
	<g>
		<path class="st22" d="M779.64,274.32c6.12,10.44,48.24-25.38,105.12-19.26c4.32,0.54,85.86,10.26,107.1,12.96
			c2.88,0.36,6.48,0.54,8.28-1.62c1.26-1.44,1.62-3.24,1.8-5.22c1.44-9.18,2.52-18.36,3.24-27.54c0.54-5.76,0.9-11.88-1.44-17.1
			c-2.16-4.86-6.48-8.64-10.26-12.42c-27.54-27.36-38.34-66.96-59.22-99.9c-2.52-3.78-5.04-7.56-8.82-10.26
			c-6.48-4.32-14.76-4.32-22.68-4.32C861.9,89.28,821.4,81,784.14,64.8c-7.74-3.24-17.82-6.84-23.94-0.9
			c-3.24,3.24-4.14,8.28-4.86,12.96c-10.98,68.76-72.72,124.2-72.9,193.86c21.24-24.12,43.2-47.52,67.86-68.4
			c24.12-20.34,35.1-13.5,38.34-11.7c13.14,7.74,8.28,37.8,7.74,40.14C792.6,258.12,775.86,267.84,779.64,274.32z"/>
	</g>
	<g>
		<path class="st23" d="M773.52,271.62c7.02-8.1,13.5-13.14,15.48-14.4c23.76-14.04,61.74-3.96,170.1-2.7
			c10.8,0.36,33.48-0.36,49.86,18.54c10.26,11.52,14.94,28.98,19.26,45c1.08,4.14,1.8,9.54-0.9,12.24c-1.8,1.8-5.22,1.62-5.76,1.62
			c-7.56-0.54-116.64,10.26-277.02,27C743.64,341.64,745.8,302.94,773.52,271.62z"/>
	</g>
	<g>
		<path class="st24" d="M642.48,341.1c233.64-8.64,252.18-33.12,414.72-11.34c59.94,8.1,120.6,20.52,173.52,50.4
			c27,15.48,52.74,36.18,64.8,64.62c2.52,5.94,4.5,12.06,3.42,18.36c-2.16,12.6-15.12,19.98-26.64,25.38
			c-47.52,21.24-97.74,36.18-149.4,44.28c-28.08-34.74-49.32-75.6-62.1-118.62c-4.14-13.5-7.74-28.26-19.44-36.36
			c-7.56-5.4-17.28-6.48-26.46-7.56c-70.2-7.56-141.12-10.08-211.68-7.02c-43.02,1.62-53.46,7.56-61.74,16.74
			c-19.62,21.6-1.08,45.72-24.48,79.2c-10.26,14.76-16.02,12.96-41.94,43.74c-6.48,7.56-9.9,12.06-16.74,15.66
			c-15.12,8.1-33.84,3.24-49.68-2.52c-35.46-12.96-69.48-29.7-101.88-48.96c-31.32-18.54-36.18-27.9-37.26-36.72
			c-0.54-6.12,0.36-19.44,23.22-38.88C548.34,344.34,638.88,341.1,642.48,341.1z"/>
	</g>
</g>
<g>
	<path class="st25" d="M779.82,386.28c-0.9-3.42,8.46-8.82,13.14-10.98c3.06-1.44,7.38-2.88,17.28-2.7c16.02,0,31.86,3.6,44.82,12.6
		c1.08,0.9,2.52,1.8,2.7,3.24c0.54,2.16-1.08,3.78-2.7,5.4c-2.16,2.16-7.02,7.56-13.86,7.02c-4.32-0.36-7.56-3.24-8.64-3.96
		C817.98,383.76,781.8,393.12,779.82,386.28z"/>
</g>
<g>
	<path class="st25" d="M923.82,400.68c-1.08-5.94,12.06-17.46,24.3-22.86c8.1-3.6,15.48-3.6,30.06-3.06
		c5.94,0,12.42,0.54,17.28,5.22c3.24,3.24,5.76,8.1,7.74,12.96c-36.9-8.28-51.84-3.24-58.14,3.78c-1.62,1.62-8.28,9.9-15.66,8.1
		C928.32,404.46,924.36,403.74,923.82,400.68z"/>
</g>
</svg>
