<?xml version="1.0" encoding="utf-8"?>
<!-- Generator: Adobe Illustrator 23.0.5, SVG Export Plug-In . SVG Version: 6.00 Build 0)  -->
<svg version="1.1" id="圖層_1" xmlns="http://www.w3.org/2000/svg" xmlns:xlink="http://www.w3.org/1999/xlink" x="0px" y="0px"
	 viewBox="0 0 1920 1080" style="enable-background:new 0 0 1920 1080;" xml:space="preserve">
<style type="text/css">
	.st0{fill:#D3D3D3;}
	.st1{fill:#87593A;}
	.st2{fill:#7F8E92;}
	.st3{fill:#F9B622;}
	.st4{fill:#DDEFF4;}
	.st5{fill:#788C8E;}
	.st6{fill:#474143;}
	.st7{fill:#C21824;}
	.st8{fill:#280811;}
	.st9{fill:#A1A9AC;}
	.st10{fill:#26080B;}
	.st11{fill:#889398;}
	.st12{fill:#2C0A0E;}
	.st13{fill:#FDFDFD;}
	.st14{fill:url(#SVGID_1_);}
	.st15{fill:#2A0914;}
	.st16{fill:#FDFBFC;}
	.st17{fill:#290C14;}
	.st18{fill:#2B0C14;}
	.st19{fill:#FCFCFC;}
	.st20{fill:#280E14;}
	.st21{fill:#FFFFFF;}
	.st22{fill:#B2B2B1;}
	.st23{fill:#EEF8FB;}
	.st24{fill:#FAFBFA;}
</style>
<g>
	<path class="st0" d="M1156.35,1078.45h-432c-178.2,0-324-145.8-324-324v-432c0-178.2,145.8-324,324-324h432
		c178.2,0,324,145.8,324,324v432C1480.35,932.65,1334.55,1078.45,1156.35,1078.45z"/>
</g>
<g>
	<g>
		<path class="st1" d="M626.61,426.94c66.96,182.25,102.06,374.22,155.52,560.52c0.81,2.7,1.62,5.4,4.05,6.75
			c1.89,1.08,4.05,1.08,6.21,1.08c14.58,0,28.89,0.27,43.47,0.27c1.62,0,3.24,0,4.32-1.08c1.35-1.08,1.35-2.97,1.35-4.59
			c-0.27-15.66-5.94-30.51-11.61-45.09c-24.3-61.83-51.3-122.85-69.66-186.57c-14.85-51.57-24.03-104.76-35.37-157.41
			c-16.47-75.33-38.07-149.58-64.26-221.94c-13.5,3.78-26.46,9.45-38.34,17.01c-3.51,2.16-7.02,4.86-8.64,8.64
			c-4.32,11.61,12.96,19.98,15.66,32.13"/>
	</g>
	<g>
		<path class="st2" d="M548.85,284.38c1.89-4.05,8.37-3.51,11.88-0.54c3.51,2.97,5.4,7.56,8.64,10.53c4.05,3.51,9.72,4.86,15.12,5.4
			c22.95,2.97,46.98,0,67.5-9.72s38.07-27,46.44-48.06c14.04,54.54,28.35,108.81,42.39,163.35c-14.04-10.8-33.21-14.58-51.03-12.15
			c-17.82,2.43-34.56,10.26-49.41,20.25c-23.22,15.66-42.12,36.45-58.86,58.86c-27.81-50.76-33.75-110.16-38.88-167.67
			c-0.54-5.13-0.81-10.53,0.54-15.66c1.62-5.13,5.67-9.72,11.07-10.26"/>
	</g>
	<g>
		<path class="st3" d="M820.74,696.94c-21.87-15.12-49.95-30.78-73.71-18.63c-15.12,7.83-22.68,24.57-28.89,39.96
			c-36.18,89.91-67.5,181.44-93.42,274.59c222.21,5.94,444.42,5.67,666.63-0.27c-4.05-41.04-17.01-81-29.7-120.15
			c-8.37-25.92-17.01-51.84-25.38-77.76c-5.13-15.39-9.99-30.78-17.82-45.09c-21.87-39.69-64.53-66.15-109.89-73.98
			c-17.55-2.97-37.26-2.97-51.84,7.29c-5.13,3.78-9.45,8.37-14.58,12.15c-8.37,6.21-18.63,9.18-28.62,11.88
			c-32.13,8.64-65.07,16.2-98.28,16.2c-33.48,0-67.5-8.37-93.96-28.35"/>
	</g>
	<g>
		<path class="st4" d="M823.17,772.54c47.25,30.24,90.72,65.88,129.33,106.11c24.84-15.39,45.36-36.72,66.96-56.43
			c21.6-19.71,45.63-38.07,73.98-45.9c2.7-0.81,5.94-1.35,8.37,0.27c2.97,1.89,3.24,5.94,3.24,9.45c0,14.85-1.62,29.7-0.27,44.55
			c2.43,26.73,13.77,51.57,18.36,78.03c4.59,26.73,2.16,54-0.27,81c-0.27,1.62-0.54,3.51-1.89,4.32c-0.81,0.54-1.89,0.54-2.97,0.54
			c-88.83,3.51-177.93,4.05-266.76,1.62c-1.35,0-4.59,0-8.37-1.35c-11.07-3.78-19.98-16.74-27.54-58.32
			c-4.05-21.33-4.59-34.29-6.21-52.92c-5.94-71.28-17.01-99.09-2.43-108.81c2.97-1.89,8.37-4.05,18.63-2.16"/>
	</g>
	<g>
		<path class="st5" d="M958.98,894.85c21.87-19.17,44.82-38.61,69.39-58.32c24.57-19.71,48.6-38.07,72.09-55.35
			c11.61,55.35,19.71,99.63,25.38,129.06c0,0,1.89,9.18-1.08,62.64c-0.27,2.43-0.54,8.1-4.59,11.88
			c-4.32,4.32-11.07,4.59-17.28,4.32c-48.6-0.54-97.47-1.08-146.07-1.62c-1.62,0-3.78,0-4.86-1.35c-1.35-1.35-1.08-3.24-1.08-3.78
			c0.27-4.05,0.27-32.4,0.54-72.09C953.58,905.11,956.28,899.98,958.98,894.85z"/>
	</g>
	<g>
		<g>
			<path class="st6" d="M998.4,881.35c-0.54,0.81-1.35,1.89-1.89,2.7c-0.27,0.54-0.54,1.08-0.54,1.62c0,0.54,0,1.08,0,1.62
				c0,0.54,0.27,1.08,0.81,1.35c0.27,0.54,0.54,0.81,1.08,1.08c0.81,0.54,2.16,0.81,3.24,0.54c0.27-0.27,0.54-0.27,1.08-0.54
				c0.54-0.27,1.08-0.81,1.35-1.35c0.54-0.81,1.35-1.89,1.89-2.7c0.27-0.54,0.54-1.08,0.54-1.62c0-0.54,0-1.08,0-1.62
				c0-0.54-0.27-1.08-0.81-1.35c-0.27-0.54-0.54-0.81-1.08-1.08c-0.81-0.54-2.16-0.81-3.24-0.54c-0.27,0.27-0.54,0.27-1.08,0.54
				C999.21,880.27,998.67,880.81,998.4,881.35L998.4,881.35z"/>
		</g>
	</g>
	<g>
		<g>
			<path class="st6" d="M1014.06,979.36c14.58-3.51,28.89-8.91,42.39-15.93c4.59-2.43,0.54-9.45-4.05-7.02
				c-12.69,6.75-26.46,11.61-40.5,15.12C1007.04,972.88,1009.2,980.71,1014.06,979.36L1014.06,979.36z"/>
		</g>
	</g>
	<g>
		<g>
			<path class="st6" d="M815.61,790.09c5.13,0,5.13-8.1,0-8.1C810.48,781.99,810.48,790.09,815.61,790.09L815.61,790.09z"/>
		</g>
	</g>
	<g>
		<g>
			<path class="st6" d="M1092.9,801.16c5.13,0,5.13-8.1,0-8.1C1087.77,793.06,1087.77,801.16,1092.9,801.16L1092.9,801.16z"/>
		</g>
	</g>
	<g>
		<path class="st7" d="M841.8,654.55c-18.36,9.72-35.37,22.41-50.22,36.99c42.93,49.41,103.41,81.27,149.31,127.98
			c1.35,1.35,2.7,2.7,4.59,3.24c2.43,0.54,4.86-0.54,7.02-1.62c58.59-29.97,108.27-73.71,157.41-116.91c2.7-2.43,5.4-5.4,4.59-8.64
			c-0.27-1.35-1.35-2.43-2.16-3.51c-11.88-14.31-23.76-28.62-35.64-42.66c-1.89-2.16-3.78-4.59-6.48-5.67
			c-3.24-1.62-7.02-1.35-10.53-1.35c-37.26,2.43-73.44,12.15-110.43,15.93c-35.1,3.51-70.47,1.08-104.76-7.02"/>
	</g>
	<g>
		<path class="st8" d="M833.16,657.52c-0.54,8.91-1.08,17.82-1.89,26.73c-0.27,2.97-0.27,6.21,0.54,9.18
			c1.08,2.97,3.51,5.67,5.67,7.83c32.67,33.48,70.74,62.1,112.32,84.24c4.32,2.43,8.91,4.59,13.77,5.13
			c8.37,0.81,16.2-4.05,23.22-8.64c32.67-21.06,66.42-43.47,84.78-77.22c5.4-10.26,9.45-21.6,9.18-33.21
			c0-4.86-1.08-9.72-4.59-12.96c-3.78-3.51-9.72-3.78-14.85-4.05c-28.08-1.08-56.7-1.89-84.24,3.78
			c-10.53,2.16-21.06,5.4-31.86,7.29c-36.72,6.48-73.98-2.7-110.16-11.61"/>
	</g>
	<g>
		<path class="st9" d="M1139.07,432.07c9.99-1.89,20.25,4.86,24.84,13.77c4.59,8.91,5.13,19.17,4.59,29.16
			c-0.27,5.4-0.81,10.8-2.97,15.66c-2.43,4.86-6.75,8.91-12.15,9.45c-2.97,0.27-6.48-0.81-7.83-3.51c-0.54-1.35-0.54-2.7-0.54-4.05
			c0-14.58,0-29.16,0-43.74c0-4.32,0-8.64-1.62-12.69"/>
		<g>
			<path class="st10" d="M1139.61,433.96c12.96-2.16,22.68,9.45,25.38,20.79c1.62,6.21,1.62,12.69,1.35,18.9
				c-0.27,5.94-0.54,12.69-4.05,17.82c-2.43,3.78-10.53,9.99-14.85,4.86c-1.89-2.43-0.81-7.83-0.81-10.53c0-3.51,0-7.02,0-10.53
				c0-7.02,0-14.04,0-21.06c0-6.21,0.54-12.69-1.62-18.63c-0.81-2.43-4.86-1.35-3.78,1.08c2.16,6.48,1.62,13.5,1.62,20.25
				c0,7.02,0,14.04,0,21.06c0,3.24,0,6.75,0,9.99c0,2.97-0.54,6.21,0.54,9.18c1.62,4.05,6.21,5.4,9.99,5.13
				c10.8-1.08,15.66-12.15,16.74-21.33c1.35-11.34,1.35-24.3-3.78-34.83c-5.13-10.26-15.93-17.55-27.54-15.66
				C1135.83,430.45,1136.91,434.5,1139.61,433.96L1139.61,433.96z"/>
		</g>
	</g>
	<g>
		<path class="st9" d="M1114.23,419.65c5.67-6.21,12.96-12.96,21.6-11.88c6.48,0.81,11.61,6.21,13.77,12.15
			c2.16,5.94,2.43,12.42,2.43,18.9c0,17.28,0.27,34.83,0.27,52.11c0,2.97,0,5.94-0.81,8.91c-1.62,5.67-7.02,10.26-12.96,11.34
			s-12.42-1.89-15.93-6.75c-2.43-3.78-3.24-8.1-4.05-12.42c-3.78-23.76-5.94-47.52-6.21-71.55"/>
		<g>
			<path class="st10" d="M1115.85,421c5.94-6.48,15.12-15.39,24.57-9.72c8.91,5.13,9.72,16.2,9.72,25.38c0,9.99,0,19.98,0.27,29.97
				c0,9.72,1.08,19.71,0,29.16c-1.08,9.99-11.61,16.2-21.06,11.34c-8.91-4.59-8.91-17.28-10.26-26.19
				c-2.97-20.25-4.32-40.77-4.59-61.02c0-2.7-4.05-2.7-4.05,0c0.27,20.52,1.89,41.04,4.59,61.29c1.08,8.1,1.35,18.36,6.75,25.11
				c4.05,5.13,10.8,7.56,17.28,6.48c18.36-3.24,15.39-24.3,15.39-38.07c0-10.8,0-21.33-0.27-32.13c0-8.1,0.27-16.74-2.97-24.57
				c-2.97-6.75-9.18-12.42-17.01-12.42c-8.91,0-15.93,6.75-21.33,12.69C1111.26,419.92,1113.96,422.89,1115.85,421L1115.85,421z"/>
		</g>
	</g>
	<g>
		<path class="st9" d="M1086.15,436.12c5.4-9.45,15.66-15.12,25.38-20.25c1.62-0.81,2.97-1.62,4.86-1.62
			c3.51-0.27,6.48,2.43,7.83,5.4c1.35,2.97,1.08,6.48,1.08,9.99c-0.81,24.03-1.62,48.06-2.7,71.82c0,0.81,0,1.35-0.27,2.16
			c-0.81,1.62-2.97,2.43-4.86,1.89c-1.89-0.54-3.24-1.89-4.59-3.24c-17.55-17.55-27.81-41.31-28.62-65.88"/>
		<g>
			<path class="st10" d="M1087.77,437.2c4.05-7.02,10.53-11.61,17.55-15.66c2.7-1.62,5.67-3.24,8.37-4.59
				c7.02-3.24,9.45,4.32,9.45,9.72c0.27,18.09-1.35,36.18-1.89,54c-0.27,4.59-0.27,8.91-0.54,13.5c0,1.62,0.54,5.67-0.27,7.29
				c-2.43,4.32-5.4,0.27-7.29-1.62c-5.4-5.4-9.99-11.61-13.77-18.36c-8.1-13.77-12.42-29.16-12.96-44.82c0-2.7-4.05-2.7-4.05,0
				c0.54,15.39,4.59,30.24,11.88,43.74c3.51,6.75,7.83,12.96,12.69,18.63c3.24,3.78,8.91,11.34,14.85,8.1
				c1.89-1.08,2.7-2.7,2.7-4.86c0.54-4.86,0.27-9.99,0.54-14.85c0.27-9.72,0.81-19.17,1.08-28.89c0.27-9.72,0.81-19.17,1.08-28.89
				c0.27-6.21-0.27-13.5-6.75-16.47c-6.21-2.97-14.04,3.24-19.17,6.21c-6.75,4.05-12.96,9.18-17.01,15.93
				C1082.91,437.47,1086.42,439.36,1087.77,437.2L1087.77,437.2z"/>
		</g>
	</g>
	<g>
		<path class="st11" d="M963.57,158.29c33.48,71.82,81.81,136.89,141.21,190.62c-49.95,0.27-99.9,0.81-149.85,1.08
			c-1.35,0-3.24,0-4.05-1.08c-0.81-0.81-0.81-2.43-0.81-3.51c0.27-7.29,0.27-14.31,0.54-21.6c1.35-52.65,2.43-105.03,3.78-157.68
			c0-1.08,0-2.16,0.81-2.7c1.35-1.35,3.78,0,5.13,1.62c5.4,5.94,10.53,12.42,14.58,19.17"/>
	</g>
	<g>
		<path class="st12" d="M799.68,360.79c15.12,0.54,30.24,0.81,45.09,1.35c0.81,0,1.62,0,2.16,0.54c1.35,1.08,0.27,3.24-1.08,4.59
			c-2.97,3.24-5.94,6.21-8.91,9.45c-1.62,1.62-3.24,3.24-5.13,4.05s-3.78,0.81-5.67,0.81c-6.75,0-13.5,0-20.25,0
			c-0.81,0-1.89,0-2.7-0.54c-0.81-0.54-1.08-1.89-1.35-2.97c-0.81-5.13-1.62-10.53-2.16-15.66"/>
	</g>
	<path class="st13" d="M801.57,622.42"/>
	<g>
		
			<linearGradient id="SVGID_1_" gradientUnits="userSpaceOnUse" x1="823.3838" y1="453.8271" x2="1164.2456" y2="762.1263" gradientTransform="matrix(1 0 0 -1 0 1080)">
			<stop  offset="0" style="stop-color:#D4ECEF"/>
			<stop  offset="0.0614" style="stop-color:#CFE6E9"/>
			<stop  offset="0.6958" style="stop-color:#9AAFAF"/>
			<stop  offset="1" style="stop-color:#859A98"/>
		</linearGradient>
		<path class="st14" d="M809.13,371.05c-0.54,86.94-0.81,173.88-1.35,260.82c0,4.32,0,8.91,1.62,12.69
			c1.62,4.05,5.13,7.29,8.37,10.26c39.42,36.45,81.54,70.47,125.55,101.79c3.51,2.43,7.02,4.86,11.34,4.86
			c3.78,0,7.02-2.43,10.26-4.59c46.44-33.75,90.45-71.01,131.76-110.7c1.62-1.62,3.24-3.24,4.05-5.4c0.81-1.89,0.81-3.78,0.54-5.94
			c-0.54-36.18-1.08-72.63-1.89-108.81c-0.81-51.57-1.62-103.14-10.8-153.9c-92.34-9.72-186.3,16.47-278.37,2.43"/>
	</g>
	<g>
		<path class="st15" d="M974.64,426.94c3.51-8.1,11.34-13.5,19.98-16.2s17.55-2.97,26.46-2.97c7.02,0,14.58,0.54,19.71,5.4
			c2.16,2.16,3.78,4.86,5.4,7.56c2.16,4.05,4.59,8.1,6.75,12.15c-12.69-10.26-30.51-13.77-46.17-8.91
			c-8.1,2.43-15.12,6.75-22.68,9.99c-1.35,0.54-2.7,1.08-4.32,0.81c-2.16-0.54-3.51-2.97-3.51-5.4c0-2.16,1.35-4.32,2.43-6.21"/>
	</g>
	<g>
		<path class="st15" d="M843.69,425.05c6.21-9.99,16.2-17.55,27.27-21.06c9.18-2.7,19.44-2.97,28.35,0.54
			c8.91,3.51,16.47,10.8,18.9,19.98c0.54,2.16,0.81,4.86-0.54,6.75c-2.16,2.43-6.21,1.62-8.64-0.27s-4.05-4.86-6.21-7.02
			c-4.86-4.59-12.42-5.4-19.44-5.67c-11.88,0-24.84,1.62-32.94,9.72c-1.35,1.35-2.7,2.97-4.59,2.97c-1.62,0.27-3.51-1.08-4.05-2.7
			s0.54-3.51,2.16-4.32"/>
	</g>
	<g>
		<path class="st16" d="M869.07,445.57c-8.64,8.91-13.5,21.06-13.23,33.21c0,2.7,0.27,5.13,1.08,7.56c1.08,2.43,2.7,4.59,4.59,6.48
			c5.4,5.94,12.42,10.8,20.52,11.34c10.26,0.54,19.44-7.29,22.95-16.47s2.7-19.71-0.27-29.16c-1.89-6.75-5.67-14.04-12.42-16.74
			c-3.24-1.08-6.48-1.35-9.99-1.35c-4.86,0-11.07,0.54-12.69,5.13"/>
	</g>
	<g>
		<path class="st16" d="M996.24,446.38c-3.78,1.08-4.86,5.67-4.86,9.72c-0.27,7.29,0.54,14.31,2.16,21.33s4.59,14.04,9.45,19.17
			c4.86,5.4,12.42,8.91,19.71,7.83c9.45-1.08,16.74-9.45,19.98-18.36c4.59-13.23,1.35-29.16-9.45-38.61
			c-10.8-9.18-28.62-10.26-39.15-0.81"/>
	</g>
	<g>
		<path class="st17" d="M936.03,486.88c-4.86,17.55-12.96,34.56-24.03,49.14c7.29,4.32,14.58,8.91,22.14,13.23
			c2.97,1.89,6.21,3.78,9.72,4.05c5.67,0.81,10.8-2.16,15.66-4.86c10.26-5.67,20.79-10.26,31.86-14.04
			c2.16-0.81,4.59-1.62,6.75-0.54c4.05,1.62,4.05,7.29,2.97,11.61c-2.97,11.61-8.1,23.22-17.01,31.59
			c-8.91,8.37-21.6,13.23-33.75,10.53c-12.96-2.7-22.68-13.5-30.78-23.76c-6.75-8.37-13.77-18.9-10.26-29.16"/>
	</g>
	<g>
		<g>
			<path class="st18" d="M1018.38,523.6c12.96-4.59,25.92-9.45,38.88-14.04c2.43-0.81,1.35-4.86-1.08-3.78
				c-12.96,4.59-25.92,9.45-38.88,14.04C1014.87,520.36,1015.68,524.41,1018.38,523.6L1018.38,523.6z"/>
		</g>
	</g>
	<g>
		<g>
			<path class="st18" d="M834.51,510.64c11.34,0,22.95,1.08,34.29,3.24c2.43,0.54,3.51-3.51,1.08-3.78
				c-11.61-2.16-23.49-3.51-35.37-3.24C831.81,506.59,831.81,510.64,834.51,510.64L834.51,510.64z"/>
		</g>
	</g>
	<g>
		<path class="st19" d="M884.19,587.86c42.93,7.56,87.21,7.83,130.41,1.35c-15.66,19.17-40.77,30.51-65.88,29.97
			c-25.11-0.54-49.68-12.96-64.53-32.94"/>
		<g>
			<path class="st17" d="M883.65,590.02c43.47,7.29,87.75,7.83,131.49,1.35c-0.54-1.08-1.35-2.16-1.89-3.51
				c-33.21,39.42-95.85,38.61-127.17-2.43c-1.62-2.16-5.13,0-3.51,2.16c15.66,20.25,39.69,32.94,65.07,33.75
				c25.92,0.81,51.57-10.8,68.31-30.51c1.35-1.62,0-3.78-1.89-3.51c-42.93,6.48-86.67,5.94-129.33-1.35
				C882.03,585.43,880.95,589.48,883.65,590.02L883.65,590.02z"/>
		</g>
	</g>
	<g>
		<path class="st18" d="M920.1,635.11c19.98-0.27,39.96-0.81,59.67-1.08c-8.37,5.94-17.01,11.88-25.38,17.82
			c-1.35,0.81-2.7,1.89-4.05,1.89c-1.62,0-2.97-0.54-4.32-1.35c-9.45-5.13-18.63-10.53-27.54-16.2"/>
	</g>
	<g>
		<path class="st20" d="M883.65,441.79c-1.62,11.61,0.81,23.76,6.21,34.29c0.54,1.08,1.08,2.16,2.16,2.97
			c3.24,2.43,7.83-1.08,9.99-4.59c3.78-6.75,4.86-14.85,1.62-21.87s-10.8-12.15-18.63-11.34"/>
	</g>
	<g>
		<g>
			<path class="st16" d="M894.72,456.91c5.13,0,5.13-8.1,0-8.1C889.32,448.81,889.32,456.91,894.72,456.91L894.72,456.91z"/>
		</g>
	</g>
	<g>
		<path class="st20" d="M993,452.05c1.89-2.7,3.51-5.4,6.21-7.02s6.48-2.16,9.18-0.27c1.62,1.35,2.43,2.97,2.97,4.86
			c1.08,2.43,1.89,4.86,2.97,7.29c1.35,3.24,2.7,6.48,2.7,9.99c0.27,3.51-1.08,7.29-3.78,9.18c-5.13,3.78-12.96,0-16.2-5.4
			s-3.51-11.88-5.13-17.82"/>
		<g>
			<path class="st20" d="M994.35,452.86c1.62-2.16,2.97-4.59,5.4-6.21c1.89-1.35,5.13-2.16,7.29-0.81c2.43,1.35,3.24,4.86,4.05,7.29
				c1.08,2.97,2.43,5.94,3.51,8.91c1.35,4.59,1.62,11.61-3.78,13.5c-4.32,1.35-9.18-1.35-11.61-4.86
				c-3.78-5.13-4.05-12.42-5.67-18.36c-0.54-1.89-3.51-1.08-3.24,0.81c1.62,6.75,2.16,14.31,6.48,19.98
				c3.24,4.05,9.18,7.29,14.58,5.4c6.48-2.16,8.1-9.72,6.48-15.66c-0.81-3.78-2.7-7.29-4.05-11.07c-1.08-2.97-2.16-6.48-4.86-8.64
				c-2.97-2.16-6.75-1.89-9.99-0.27c-3.51,1.62-5.67,5.13-7.83,8.1C990.3,453.13,993.27,454.75,994.35,452.86L994.35,452.86z"/>
		</g>
	</g>
	<g>
		<g>
			<path class="st21" d="M1001.91,459.61c5.13,0,5.13-8.1,0-8.1C996.51,451.51,996.51,459.61,1001.91,459.61L1001.91,459.61z"/>
		</g>
	</g>
	<g>
		<path class="st11" d="M954.93,334.33c-0.27,18.09-0.81,36.45-1.08,54.54c54-1.08,108-2.16,162-3.24c2.16,0,4.86-0.27,6.21-1.89
			c1.35-1.62,1.08-3.78,0.81-5.67c-1.08-10.26-2.16-20.25-3.24-30.51c-54.27-2.43-108.81-4.86-163.08-7.29"/>
	</g>
	<g>
		<path class="st13" d="M792.66,347.56c20.52,4.59,41.58-2.7,62.64-5.94c9.99-1.62,19.98-2.16,29.97-2.7
			c22.95-1.35,46.17-2.97,69.12-1.62c-0.81,15.39-1.62,30.78-2.43,46.17c0,1.62-0.27,3.51-1.35,4.86c-1.62,1.62-4.05,1.89-6.48,1.62
			c-49.68-1.08-99.36-2.16-149.04-3.24c-1.35,0-2.7,0-3.51-1.08c-0.81-0.81-0.81-2.16-0.81-3.51c0-11.07,0-22.41,0-33.48"/>
	</g>
	<g>
		<path class="st13" d="M948.18,169.63c-49.41,59.94-98.28,120.15-146.34,180.63c46.98-0.27,93.69-0.81,140.67-1.08
			c1.62,0,3.24,0,4.32-1.08s1.35-2.7,1.35-4.32c4.05-59.94,5.94-120.15,5.67-180.36c-6.48,4.05-10.8,11.07-11.88,18.63"/>
	</g>
	<g>
		<path class="st10" d="M1047,342.7c7.29-0.54,14.58-1.08,21.6-1.62c-24.57-34.56-47.79-69.93-71.01-105.3
			c-4.59-7.02-9.18-13.77-13.5-20.79c21.33,42.66,42.12,85.59,62.91,128.52"/>
	</g>
	<g>
		<path class="st10" d="M977.88,197.17c6.21,11.88,8.64,25.38,11.34,38.61c7.02,36.18,14.31,72.63,21.33,108.81"/>
	</g>
	<g>
		<path class="st10" d="M816.69,346.48c35.1-43.2,70.2-86.4,105.3-129.6c-19.44,44.28-50.22,82.89-80.46,120.69
			c-5.4,7.02-14.04,14.85-22.14,11.34"/>
	</g>
	<g>
		<path class="st10" d="M882.84,346.48c5.94-10.8,9.45-22.68,12.96-34.56c11.61-38.61,23.22-77.22,34.83-116.1"/>
	</g>
	<g>
		<path class="st22" d="M957.09,136.42c-7.83,9.18-15.93,18.09-23.76,27.27c-0.81,0.81-1.62,1.89-1.35,2.97
			c0.27,0.81,0.81,1.62,1.35,2.16c5.67,5.67,11.61,11.07,17.28,16.74c0.54,0.54,1.35,1.35,2.16,1.35s1.62-0.54,2.16-1.08
			c9.72-7.56,18.63-15.93,26.73-24.84c0.54-0.54,1.08-1.35,1.08-1.89c0-0.81-0.81-1.35-1.35-1.89
			c-8.37-6.75-18.09-12.15-23.22-21.33"/>
	</g>
	<g>
		<path class="st9" d="M804,503.35c0.27-26.73,0.54-53.19,0.81-79.92c0-3.78,0-7.56-1.89-10.8c-2.7-4.32-8.1-5.94-13.23-6.21
			c-16.2-0.81-31.59,9.18-39.96,22.68s-10.53,29.97-9.45,45.9c0.27,5.13,1.08,10.53,2.7,15.39c4.32,11.61,15.66,20.52,28.08,22.95
			c12.42,2.43,25.92-1.62,35.64-9.72"/>
		<g>
			<path class="st10" d="M806.16,503.35c0.27-25.92,0.54-51.84,0.81-77.76c0-8.1-0.54-15.93-9.18-19.44
				c-8.1-3.24-18.09-1.89-26.19,1.62c-18.63,7.83-29.43,25.65-32.67,45.09c-2.97,18.63-2.43,41.31,13.23,54.27
				c16.47,13.5,39.69,11.34,55.62-1.62c1.89-1.62-0.81-4.59-2.97-2.97c-13.5,11.07-33.21,13.5-47.79,3.24
				c-15.66-11.07-16.74-31.32-14.85-48.87c2.16-17.55,10.53-34.56,26.46-43.47c7.29-4.05,17.01-6.48,25.38-4.05
				c11.07,3.24,8.37,16.74,8.37,25.65c-0.27,22.68-0.54,45.63-0.54,68.31C802.11,506.05,806.16,506.05,806.16,503.35L806.16,503.35z
				"/>
		</g>
	</g>
	<g>
		<g>
			<path class="st10" d="M777.81,409.66c0,34.56,0,69.12,0,103.68c0,2.7,4.05,2.7,4.05,0c0-34.56,0-69.12,0-103.68
				C781.86,406.96,777.81,406.96,777.81,409.66L777.81,409.66z"/>
		</g>
	</g>
	<g>
		<path class="st23" d="M1132.59,677.77c18.36,0,36.72,1.89,54.81,5.13c2.97,0.54,6.75,1.62,7.56,4.59
			c0.54,1.89-0.27,3.78-1.08,5.67c-21.6,47.25-46.71,93.15-75.33,136.62c7.02-28.08,10.26-56.97,9.72-86.13
			c-0.27-22.95-2.97-45.9-1.35-68.58"/>
	</g>
	
		<ellipse transform="matrix(0.2245 -0.9745 0.9745 0.2245 -47.5516 1759.5632)" class="st24" cx="1081.73" cy="909.66" rx="21.6" ry="14.58"/>
</g>
</svg>
