<?xml version="1.0" encoding="utf-8"?>
<!-- Generator: Adobe Illustrator 23.0.5, SVG Export Plug-In . SVG Version: 6.00 Build 0)  -->
<svg version="1.1" xmlns="http://www.w3.org/2000/svg" xmlns:xlink="http://www.w3.org/1999/xlink" x="0px" y="0px"
	 viewBox="0 0 1920 1080" style="enable-background:new 0 0 1920 1080;" xml:space="preserve">
<style type="text/css">
	.st0{fill:#A38964;}
	.st1{fill:#F1BB5B;}
	.st2{fill:#FDF3E7;}
	.st3{fill:#E68330;}
	.st4{fill:#FBF4E5;}
	.st5{fill:#5E2720;}
	.st6{fill:none;stroke:#FFFFFF;stroke-width:4;stroke-miterlimit:10;}
	.st7{fill:#F7B753;}
	.st8{fill:#F8B753;}
	.st9{fill:#FEF3D2;}
	.st10{fill:#010100;}
	.st11{fill:#FDFDFB;stroke:#000000;stroke-miterlimit:10;}
	.st12{fill:#F09F47;}
	.st13{fill:#050405;}
	.st14{fill:none;stroke:#000000;stroke-width:4;stroke-miterlimit:10;}
</style>
<g id="圖層_1">
</g>
<g id="圖層_2">
	<path class="st0" d="M1176,1080H744c-178.2,0-324-145.8-324-324V324C420,145.8,565.8,0,744,0h432c178.2,0,324,145.8,324,324v432
		C1500,934.2,1354.2,1080,1176,1080z"/>
	<g>
		<path class="st1" d="M1138.63,952.29c17.85,0,35.7,0,53.55,0c73.28-101.11,106.2-190.54,78.18-220.81
			c-8.17-8.83-29.55-21.29-54.62-19.39c-24.86,1.89-41.51,17.02-47.12,22.62C1158.62,807.24,1148.62,879.77,1138.63,952.29z"/>
		<path class="st1" d="M766.24,952.29c-17.85,0-35.7,0-53.55,0c-73.28-101.11-106.2-190.54-78.18-220.81
			c8.17-8.83,29.55-21.29,54.62-19.39c24.86,1.89,41.51,17.02,47.12,22.62C746.25,807.24,756.24,879.77,766.24,952.29z"/>
		<g>
			<path class="st2" d="M1126.18,1003.01c50.24,0.33,100.48,0.66,150.73,0.99c2.15-3.78,4.69-9.66,4.43-16.81
				c-0.59-16.37-15.46-27.26-25.49-34.61c-8.97-6.57-31.46-23.04-65.39-21.75c-36.85,1.4-59.14,22.7-63.17,26.7
				c-1.83,2.27-14.66,18.7-7.76,35.6C1121.19,997.19,1123.66,1000.46,1126.18,1003.01z"/>
			<g>
				<g>
					<path d="M1201.12,1000.92c0.57-8.75,0.94-17.52,1.1-26.28c0.07-3.73,0.32-7.63-0.71-11.26c-0.9-3.19-2.88-5.86-5.72-7.56
						c-5.57-3.32-12.84-2.86-18.37,0.28c-6.23,3.54-10.05,9.87-12.07,16.58c-1.32,4.38-2.01,8.94-2.82,13.43
						c-0.87,4.82-1.74,9.64-2.61,14.46c-0.34,1.89,2.55,2.7,2.89,0.8c1.39-7.7,2.59-15.46,4.23-23.11
						c1.41-6.61,3.78-13.12,9.08-17.61c4.49-3.8,10.79-5.29,16.37-3.12c2.81,1.09,5.01,3.18,5.96,6.07
						c1.06,3.22,0.84,6.71,0.79,10.05c-0.15,9.1-0.52,18.2-1.12,27.28C1197.99,1002.84,1200.99,1002.84,1201.12,1000.92
						L1201.12,1000.92z"/>
				</g>
			</g>
			<g>
				<g>
					<path d="M1233.19,1001.4c0.47-5.71,0.76-11.43,0.86-17.16c0.09-5.12,0.18-10.36-1.01-15.38c-1.03-4.37-3.12-8.84-6.97-11.4
						c-4.03-2.68-9.24-2.05-13.29,0.23c-2.38,1.34-4.39,3.25-6.23,5.24c-2.15,2.32-4.23,4.7-6.34,7.05
						c-1.29,1.43,0.83,3.56,2.12,2.12c3.12-3.48,6.1-7.41,9.77-10.34c3.29-2.62,8.07-4.3,11.98-2.01c3.6,2.11,5.31,6.46,6.17,10.33
						c1,4.54,0.89,9.28,0.81,13.9c-0.1,5.81-0.39,11.61-0.86,17.41C1230.03,1003.32,1233.03,1003.31,1233.19,1001.4L1233.19,1001.4z
						"/>
				</g>
			</g>
			<g>
				<g>
					<path d="M1259.1,1003.41c0.55-14.79,0.53-30.4-9.12-42.59c-1.2-1.51-3.31,0.62-2.12,2.12c9.07,11.46,8.75,26.64,8.24,40.47
						C1256.03,1005.34,1259.03,1005.34,1259.1,1003.41L1259.1,1003.41z"/>
				</g>
			</g>
		</g>
		<g>
			<path class="st2" d="M777.86,1002.02c-44.34,0.3-88.67,0.6-133.01,0.9c-1.89-3.45-4.14-8.81-3.91-15.33
				c0.52-14.93,13.64-24.85,22.49-31.55c7.91-5.99,27.76-21.01,57.7-19.83c32.52,1.28,52.19,20.7,55.75,24.34
				c1.62,2.07,12.94,17.05,6.85,32.46C782.26,996.71,780.08,999.69,777.86,1002.02z"/>
			<g>
				<g>
					<path d="M714.55,1000.11c-0.46-7.32-0.78-14.65-0.93-21.98c-0.11-5.38-1.27-13.1,4.03-16.53c4.44-2.87,10.24-2.15,14.48,0.7
						c5.03,3.39,7.58,9.12,8.98,14.82c0.93,3.78,1.5,7.65,2.17,11.48c0.7,3.99,1.39,7.97,2.09,11.96c0.33,1.9,3.22,1.09,2.89-0.8
						c-1.34-7.65-2.36-15.44-4.15-22.99c-1.49-6.3-4.27-12.41-9.56-16.41c-4.74-3.59-11.12-4.71-16.64-2.29
						c-2.58,1.13-4.72,3.07-5.91,5.65c-1.35,2.91-1.48,6.16-1.45,9.32c0.07,9.03,0.44,18.06,1.01,27.08
						C711.67,1002.03,714.67,1002.04,714.55,1000.11L714.55,1000.11z"/>
				</g>
			</g>
			<g>
				<g>
					<path d="M686.25,1000.55c-0.36-4.57-0.6-9.14-0.72-13.72c-0.11-4.35-0.29-8.81,0.37-13.13c0.56-3.64,1.73-7.61,4.54-10.16
						c2.97-2.7,7.14-1.99,10.26,0.07c1.85,1.23,3.37,2.9,4.83,4.56c1.68,1.92,3.35,3.85,5.02,5.78c1.27,1.46,3.38-0.67,2.12-2.12
						c-5.14-5.92-12.36-16.37-21.63-12.22c-3.72,1.66-5.89,5.49-7.08,9.21c-1.46,4.53-1.53,9.39-1.49,14.1
						c0.05,5.89,0.32,11.78,0.78,17.65C683.4,1002.46,686.4,1002.48,686.25,1000.55L686.25,1000.55z"/>
				</g>
			</g>
			<g>
				<g>
					<path d="M663.38,1002.39c-0.46-12.76-0.7-26.45,7.45-37.11c1.17-1.53-1.43-3.03-2.59-1.51c-8.46,11.05-8.33,25.38-7.86,38.62
						C660.45,1004.31,663.45,1004.32,663.38,1002.39L663.38,1002.39z"/>
				</g>
			</g>
		</g>
		<g>
			<path class="st3" d="M1126.07,1009.03c-116.73-0.71-233.46-1.42-350.19-2.13c-18.84-48.6-39.22-115.57-48.19-197.15
				c-8.62-78.41-4-145.73,3.21-196.09c148.86-2.13,297.72-4.26,446.58-6.39c3.82,53.62,4.23,118.65-4.28,191.82
				C1163.49,882.39,1144.89,953.25,1126.07,1009.03z"/>
			<path class="st1" d="M1103.08,1009.03c-102.94-0.71-205.88-1.42-308.82-2.13c-16.61-48.6-34.59-115.57-42.5-197.15
				c-7.6-78.41-3.52-145.73,2.83-196.09c131.27-2.13,262.54-4.26,393.81-6.39c3.37,53.62,3.73,118.65-3.78,191.82
				C1136.08,882.39,1119.68,953.25,1103.08,1009.03z"/>
			<rect x="903.32" y="696.78" class="st4" width="84.6" height="311.18"/>
		</g>
		<path class="st5" d="M1284.57,402.96c-1.68,13.69-10.42,77.34-55.69,143.26c-51.06,74.34-146.65,148.75-271.48,152.95
			c-115.66,3.89-241.73-52.99-305.75-171.26c-61.79-114.15-51.51-259.08,27.84-357.6C766.46,62.33,898.85,56.73,938.66,55.05
			c43.19-1.83,164.25-6.94,258.09,86.17C1301.51,245.16,1286.6,386.39,1284.57,402.96z"/>
		<line class="st6" x1="1058.6" y1="195.08" x2="1119.64" y2="89.52"/>
		<line class="st6" x1="1001.84" y1="177.84" x2="1025.4" y2="60.44"/>
		<line class="st6" x1="890.46" y1="180" x2="864.76" y2="59.36"/>
		<line class="st6" x1="829.42" y1="190.77" x2="769.45" y2="90.6"/>
		<line class="st6" x1="743.75" y1="177.84" x2="706.26" y2="130.45"/>
		<line class="st6" x1="700.91" y1="206.93" x2="663.43" y2="188.61"/>
		<line class="st6" x1="743.75" y1="308.17" x2="623.8" y2="269.4"/>
		<line class="st6" x1="736.25" y1="345.87" x2="619.52" y2="331.87"/>
		<line class="st6" x1="736.25" y1="384.65" x2="614.16" y2="393.27"/>
		<line class="st6" x1="745.89" y1="437.43" x2="625.95" y2="464.36"/>
		<line class="st6" x1="767.31" y1="478.36" x2="650.58" y2="522.52"/>
		<line class="st6" x1="786.58" y1="522.52" x2="709.48" y2="596.84"/>
		<line class="st6" x1="817.64" y1="576.38" x2="775.88" y2="653.93"/>
		<line class="st6" x1="885.11" y1="615.15" x2="871.19" y2="692.71"/>
		<line class="st6" x1="1003.98" y1="617.31" x2="1025.4" y2="698.09"/>
		<line class="st6" x1="1074.66" y1="579.61" x2="1117.5" y2="653.93"/>
		<line class="st6" x1="1102.51" y1="517.14" x2="1190.32" y2="605.46"/>
		<line class="st6" x1="1123.93" y1="482.67" x2="1252.44" y2="527.91"/>
		<line class="st6" x1="1141.06" y1="438.51" x2="1271.72" y2="469.74"/>
		<line class="st6" x1="1153.91" y1="382.5" x2="1288.85" y2="392.19"/>
		<line class="st6" x1="1153.91" y1="344.8" x2="1276" y2="329.72"/>
		<line class="st6" x1="1146.42" y1="308.17" x2="1268.5" y2="269.4"/>
		<line class="st6" x1="1198.89" y1="205.85" x2="1233.16" y2="186.46"/>
		<line class="st6" x1="1151.77" y1="174.61" x2="1186.04" y2="129.37"/>
		<g>
			<path class="st7" d="M1088.59,523.6c-66.44,64.85-177.74,83.06-260.24,30.16c-98.48-63.14-93.9-187.83-93.17-201.42
				c1.19-22.3,4.82-90.17,56.76-135.72c45.39-39.8,101.09-39.24,147.79-38.78c48.8,0.49,115.78,1.15,161.71,45.24
				C1170.83,289.68,1175.2,439.06,1088.59,523.6z"/>
			<path class="st8" d="M752.31,275.86c-1.69,0.36-30.47,6.08-49.26-14c-17.36-18.55-16.3-48.56-1.07-67.86
				c17.71-22.44,49.76-23.86,70.68-11.85c15.93,9.14,22.49,24.38,24.63,30.16C782.3,233.49,767.31,254.68,752.31,275.86z"/>
			<path class="st8" d="M1139.01,275.86c1.69,0.36,30.47,6.08,49.26-14c17.36-18.55,16.3-48.56,1.07-67.86
				c-17.53-22.21-49.45-24.65-70.68-11.85c-17.82,10.74-23.38,29.37-24.73,34.47C1108.97,236.37,1123.99,256.11,1139.01,275.86z"/>
		</g>
		<path class="st4" d="M1097.15,526.83c-2.96,41.98-52.45,70.21-65.33,77.55c-37.43,21.35-73.02,21.62-87.82,21.54
			c-40.43-0.2-71.1-13.43-86.75-21.54c-7.08-3.34-47.83-23.32-59.97-67.86c-1.32-4.85-6.07-23.8-1.07-47.39
			c6.55-30.93,25.61-49.87,36.41-60.32c43.46-42.04,99.89-44.02,107.09-44.16c76.22-1.53,127.39,53.12,140.29,75.4
			c6.65,11.49,10.71,23.7,10.71,23.7C1096.07,499.83,1097.9,516.3,1097.15,526.83z"/>
		<path class="st9" d="M757.67,260.78c-21.72-2.3-38.05-13.35-40.7-26.93c-0.31-1.6-2.1-11.81,4.28-19.39
			c5.37-6.38,13.39-7.17,17.13-7.54c21.24-2.1,37.99,17.25,40.7,20.47C771.95,238.52,764.81,249.65,757.67,260.78z"/>
		<path class="st9" d="M1129.89,260.78c21.72-2.3,38.05-13.35,40.7-26.93c0.31-1.6,2.1-11.81-4.28-19.39
			c-5.37-6.38-13.39-7.17-17.13-7.54c-21.24-2.1-37.99,17.25-40.7,20.47C1115.61,238.52,1122.75,249.65,1129.89,260.78z"/>
		<path class="st10" d="M1067.17,274.78c-7-5.87-19.55-14.9-37.48-20.47c-18.14-5.63-33.74-5.23-42.84-4.31
			c-0.29-5.15-0.58-10.29-0.87-15.44c10.76-0.49,28.1,0.05,47.99,6.82c18.91,6.44,32.51,15.92,40.7,22.62
			C1072.17,267.6,1069.67,271.19,1067.17,274.78z"/>
		<path class="st10" d="M823.2,274.78c7-5.87,19.55-14.9,37.48-20.47c18.14-5.63,33.74-5.23,42.84-4.31
			c0.29-5.15,0.58-10.29,0.87-15.44c-10.76-0.49-28.1,0.05-47.99,6.82c-18.91,6.44-32.51,15.92-40.7,22.62
			C818.2,267.6,820.7,271.19,823.2,274.78z"/>
		<ellipse class="st11" cx="1025.94" cy="319.48" rx="40.16" ry="36.08"/>
		<ellipse class="st10" cx="1026.47" cy="321.1" rx="12.85" ry="12.93"/>
		<ellipse class="st11" cx="861.01" cy="319.48" rx="40.16" ry="36.08"/>
		<ellipse class="st10" cx="861.55" cy="321.1" rx="12.85" ry="12.93"/>
		<path class="st12" d="M1009.34,418.04c-43.55,0.36-87.1,0.72-130.65,1.08c10.35-46.68,20.7-93.35,31.06-140.03h69.61
			C989.35,325.41,999.34,371.72,1009.34,418.04z"/>
		<path class="st13" d="M952.47,466.66l56.87-48.62c-43.55,0.36-87.1,0.72-130.65,1.08c19.62,15.91,39.23,31.82,58.85,47.73
			C941.91,470.4,948.18,470.32,952.47,466.66z"/>
		<line class="st14" x1="946.15" y1="469.72" x2="946.15" y2="513.93"/>
		<g>
			<g>
				<path d="M945.98,513.1c-4.1,8.63-11.44,15.1-19.85,19.41c-9.89,5.07-21.08,7.01-32.03,8.15c-6.41,0.67-13.1,1.52-19.46,0.01
					c-1.88-0.45-2.68,2.45-0.8,2.89c5.91,1.41,11.98,0.9,17.96,0.33c5.94-0.57,11.88-1.3,17.72-2.55
					c10.52-2.25,20.75-6.37,28.91-13.52c4.2-3.68,7.74-8.14,10.14-13.2C949.39,512.88,946.8,511.36,945.98,513.1L945.98,513.1z"/>
			</g>
		</g>
		<g>
			<g>
				<path d="M945.77,514.62c4.29,9.04,12.12,15.97,20.93,20.49c10.39,5.33,22.04,7.36,33.55,8.56c6.71,0.7,13.61,1.48,20.25-0.1
					c1.88-0.45,1.08-3.34-0.8-2.89c-5.63,1.34-11.47,0.76-17.16,0.22c-5.68-0.54-11.34-1.25-16.92-2.45
					c-9.99-2.14-19.81-5.94-27.59-12.75c-4.03-3.53-7.36-7.74-9.67-12.59C947.53,511.36,944.94,512.88,945.77,514.62L945.77,514.62z
					"/>
			</g>
		</g>
		<line class="st14" x1="1020.05" y1="466.51" x2="1177.47" y2="418.04"/>
		<line class="st14" x1="1030.76" y1="475.13" x2="1167.84" y2="465.43"/>
		<line class="st14" x1="1043.61" y1="485.9" x2="1123.93" y2="482.67"/>
		<line class="st14" x1="1020.05" y1="508.52" x2="1171.05" y2="513.9"/>
		<line class="st14" x1="878.68" y1="466.51" x2="721.26" y2="418.04"/>
		<line class="st14" x1="867.98" y1="475.13" x2="730.9" y2="465.43"/>
		<line class="st14" x1="855.12" y1="485.9" x2="774.8" y2="482.67"/>
		<line class="st14" x1="878.68" y1="508.52" x2="727.68" y2="513.9"/>
		<g>
			<path class="st2" d="M900.1,1030.92c-48.55,0.36-97.1,0.72-145.65,1.08c-2.07-4.12-4.53-10.53-4.28-18.31
				c0.57-17.83,14.94-29.69,24.63-37.7c8.67-7.15,30.4-25.1,63.18-23.7c35.61,1.53,57.14,24.73,61.04,29.08
				c1.77,2.47,14.17,20.37,7.5,38.78C904.92,1024.59,902.53,1028.15,900.1,1030.92z"/>
			<g>
				<g>
					<path d="M830.64,1028.65c-0.5-8.54-0.83-17.09-1.01-25.65c-0.08-3.86-0.31-7.8,0.05-11.65c0.31-3.26,1.39-6.54,4.01-8.66
						c4.85-3.93,11.88-2.94,16.58,0.65c5.7,4.36,8.33,11.39,9.82,18.16c0.98,4.46,1.6,9,2.32,13.51c0.75,4.7,1.5,9.39,2.25,14.09
						c0.3,1.9,3.2,1.09,2.89-0.8c-1.41-8.81-2.56-17.72-4.34-26.47c-1.51-7.44-4.27-15.1-10.24-20.14c-5.21-4.4-12.4-5.99-18.69-2.9
						c-3.03,1.49-5.23,4.05-6.44,7.18c-1.41,3.64-1.34,7.71-1.29,11.55c0.13,10.38,0.5,20.76,1.1,31.13
						C827.75,1030.56,830.75,1030.58,830.64,1028.65L830.64,1028.65z"/>
				</g>
			</g>
			<g>
				<g>
					<path d="M799.65,1029.17c-0.39-5.41-0.66-10.83-0.78-16.25c-0.12-5.06-0.28-10.18,0.31-15.22c0.51-4.36,1.69-9.33,4.78-12.64
						c3.28-3.52,8-2.98,11.67-0.33c2.07,1.49,3.75,3.51,5.34,5.48c1.86,2.3,3.69,4.63,5.53,6.94c1.2,1.51,3.31-0.62,2.12-2.12
						c-1.8-2.26-3.59-4.53-5.39-6.78c-1.59-1.99-3.25-3.93-5.27-5.51c-3.8-2.99-9.13-4.51-13.56-1.89
						c-4.15,2.45-6.27,7.38-7.36,11.87c-1.29,5.3-1.29,10.82-1.24,16.24c0.07,6.74,0.36,13.47,0.85,20.19
						C796.79,1031.08,799.79,1031.1,799.65,1029.17L799.65,1029.17z"/>
				</g>
			</g>
			<g>
				<g>
					<path d="M774.61,1031.37c-0.5-15.11-0.92-31.53,8.18-44.48c1.11-1.58-1.49-3.08-2.59-1.51c-9.39,13.37-9.1,30.38-8.59,46
						C771.67,1033.29,774.67,1033.3,774.61,1031.37L774.61,1031.37z"/>
				</g>
			</g>
		</g>
		<g>
			<path class="st2" d="M998.42,1030.92c48.55,0.36,97.1,0.72,145.65,1.08c2.07-4.12,4.53-10.53,4.28-18.31
				c-0.57-17.83-14.94-29.69-24.63-37.7c-8.67-7.15-30.4-25.1-63.18-23.7c-35.61,1.53-57.14,24.73-61.04,29.08
				c-1.77,2.47-14.17,20.37-7.5,38.78C993.61,1024.59,996,1028.15,998.42,1030.92z"/>
			<g>
				<g>
					<path d="M1070.89,1028.65c0.53-9.2,0.89-18.42,1.05-27.64c0.13-7.27,0.88-16.1-5.68-20.99c-5.43-4.05-13.11-3.56-18.59,0.08
						c-6.37,4.23-9.83,11.38-11.64,18.59c-1.19,4.7-1.84,9.53-2.6,14.31c-0.82,5.1-1.63,10.2-2.45,15.3c-0.3,1.89,2.59,2.7,2.89,0.8
						c1.31-8.22,2.48-16.47,3.99-24.66c1.3-7.03,3.34-14.3,8.57-19.48c4.33-4.29,10.94-6.41,16.62-3.43
						c6.69,3.51,6.02,11.78,5.92,18.23c-0.15,9.63-0.51,19.27-1.07,28.88C1067.78,1030.57,1070.78,1030.57,1070.89,1028.65
						L1070.89,1028.65z"/>
				</g>
			</g>
			<g>
				<g>
					<path d="M1101.88,1029.17c0.43-5.98,0.71-11.98,0.82-17.97c0.1-5.51,0.2-11.08-0.79-16.52c-0.85-4.64-2.62-9.79-6.42-12.85
						c-3.96-3.19-9.25-2.79-13.41-0.14c-2.38,1.51-4.32,3.59-6.09,5.76c-2.06,2.51-4.05,5.07-6.07,7.61
						c-1.19,1.5,0.92,3.63,2.12,2.12c3.03-3.81,5.89-8.07,9.53-11.34c3.23-2.9,8.14-4.76,11.94-1.77c3.48,2.75,4.87,7.68,5.59,11.85
						c0.85,4.94,0.7,10.05,0.61,15.04c-0.1,6.08-0.38,12.16-0.82,18.22C1098.74,1031.09,1101.74,1031.09,1101.88,1029.17
						L1101.88,1029.17z"/>
				</g>
			</g>
			<g>
				<g>
					<path d="M1126.92,1031.37c0.51-15.62,0.81-32.62-8.59-46c-1.1-1.57-3.7-0.07-2.59,1.51c9.1,12.95,8.67,29.37,8.18,44.48
						C1123.86,1033.3,1126.86,1033.29,1126.92,1031.37L1126.92,1031.37z"/>
				</g>
			</g>
		</g>
		<g>
			<path class="st1" d="M1342.29,563.79c-9.26,4.02-9.48,33.67-2.04,58.91c1.6,5.42,6.8,16.97,17.13,39.85
				c6.57,14.53,11.12,24.31,12.07,26.39c26.81,58.6,12.38,109.55,12.38,109.55c-9.84,36.27-35.4,68.43-69.5,83.83
				c-32.57,14.71-69.91,13.72-105.35,9.31c-1.55-0.19-3.27-0.35-4.51,0.59c-1.14,0.86-1.53,2.39-1.84,3.79
				c-1.25,5.62-2.51,11.25-3.76,16.87c54.93,11.9,114.9-2.5,158.56-38.07c26.9-21.91,47.83-51.93,55.97-85.77
				c7.89-32.83-6.38-67.1-17.45-99.73c-6.02-17.75-13-33.23-13-33.23c-10.68-23.68-12.29-20.22-16.06-32.31
				c-0.65-2.08-9.94-32.14-11.28-50.59c-0.13-1.78-0.44-7.03-3.89-9.15C1347.18,562.46,1343.81,563.13,1342.29,563.79z"/>
		</g>
		<path class="st5" d="M1392.73,549.45c11.42-3.59,22.85-7.18,34.27-10.77c-1.4,6.94-6.58,27.88-25.7,44.16
			c-26.43,22.5-58.26,18.01-63.18,17.23c-3.96-2.58-27.09-18.22-32.13-48.47c-3.69-22.18,4.46-39.47,7.5-45.24
			c13.37,19.69,17.84,23.38,19.28,22.62c2.14-1.13-3.46-11.59-2.14-25.85c0.94-10.14,5.01-18.21,8.57-23.7
			c3.57,6.46,7.14,12.93,10.71,19.39c3.98-5.39,10.52-12.86,20.35-19.39c14.08-9.35,27.77-12.03,35.34-12.93
			c2.55,10.37,5.81,29.84,0,52.78C1402.31,532.2,1397.15,542.33,1392.73,549.45z"/>
	</g>
</g>
</svg>
