<?xml version="1.0" encoding="utf-8"?>
<!-- Generator: Adobe Illustrator 23.0.5, SVG Export Plug-In . SVG Version: 6.00 Build 0)  -->
<svg version="1.1" xmlns="http://www.w3.org/2000/svg" xmlns:xlink="http://www.w3.org/1999/xlink" x="0px" y="0px"
	 viewBox="0 0 1920 1080" style="enable-background:new 0 0 1920 1080;" xml:space="preserve">
<style type="text/css">
	.st0{fill:#BF8E84;}
	.st1{fill:#F2623A;stroke:#000000;stroke-width:6;stroke-miterlimit:10;}
	.st2{fill:#F2623A;}
	.st3{fill:#FDFDEE;}
	.st4{fill:#F8C041;}
	.st5{fill:#F1F0F1;}
	.st6{fill:#2E0334;}
	.st7{fill:none;stroke:#2E072F;stroke-width:7;stroke-miterlimit:10;}
	.st8{fill:#79D0CE;}
	.st9{fill:#2D0534;}
	.st10{fill:#FC8468;}
	.st11{fill:#FCFEED;}
	.st12{fill:#F4763F;}
	.st13{fill:#FBFDEC;}
	.st14{fill:#FCFFE5;}
	.st15{fill:#2E072F;}
	.st16{fill:#3E0B3C;}
</style>
<g id="圖層_1">
</g>
<g id="圖層_2">
	<path class="st0" d="M1176,1080H744c-178.2,0-324-145.8-324-324V324C420,145.8,565.8,0,744,0h432c178.2,0,324,145.8,324,324v432
		C1500,934.2,1354.2,1080,1176,1080z"/>
	<g>
		<path class="st1" d="M1185.92,907.61c5.44,2.3,13.71,6.27,22.89,12.78c14.86,10.54,17.63,17.49,27.71,19.17
			c11.82,1.97,16.44-6.18,24.09-2.56c9.42,4.46,6.15,18.53,13.25,29.39c13.8,21.11,61.46,20.56,93.97,0
			c23.38-14.79,34.72-37.28,39.75-49.84c7.28-67.53,15.28-225.83-66.26-392.3c-45.98-93.88-104.5-157.8-146.97-196.79
			c-4.65,32.77-8.7,66.43-12.05,100.95C1165.35,603.48,1170.14,764.74,1185.92,907.61z"/>
		<path class="st1" d="M748.29,921.66c-5.44,2.3-13.71,6.27-22.89,12.78c-14.86,10.54-17.63,17.49-27.71,19.17
			c-11.82,1.97-16.44-6.18-24.09-2.56c-9.42,4.46-6.15,18.53-13.25,29.39c-13.8,21.11-61.46,20.56-93.97,0
			c-23.38-14.79-34.72-37.28-39.75-49.84c-7.28-67.53-15.28-225.83,66.26-392.3c45.98-93.88,104.5-157.8,146.97-196.79
			c4.65,32.77,8.7,66.43,12.05,100.95C768.86,617.53,764.07,778.79,748.29,921.66z"/>
		<rect x="737.45" y="349.18" class="st2" width="460.19" height="656.82"/>
		<g>
			<path class="st3" d="M791.44,224.82c-13.87-2.34-28.09-2.33-41.95,0.02c-9.46,1.61-19.21,4.57-25.98,11.76
				c-13.3,14.12-6.92,42.43,10.96,48.65c-11.13,9.32-23.41,21.31-22.06,36.29c1.53,16.92,19.88,26.26,35.89,27.02
				c-9.43,10.83-9.82,29.19-0.86,40.46c8.95,11.27,26.08,13.97,37.74,5.96c-5.94,16.78,1.25,37.61,15.99,46.37s35.24,4.35,45.62-9.8
				c-3.84,16.27,7.82,33.9,23.1,38.21c15.28,4.31,32.15-3.1,42.41-15.87c5.92,22.2,31.54,35.83,51.86,27.59
				c3.39-1.37,6.99-3.28,10.46-2.18c2.21,0.7,3.92,2.51,5.8,3.93c8.29,6.3,20.29,4.84,28.65-1.35c8.36-6.18,13.56-16.18,16.82-26.43
				c12.83,11.08,30.47,15.62,46.66,11.99c8.73-1.96,17.22-6.35,22.91-13.65c5.69-7.29,8.18-17.71,5.05-26.58
				c10.5,5.14,21.56,9.67,33.11,10.11s23.8-3.82,30.87-13.52c7.08-9.7,7.25-25.23-1.36-33.41c11.52-0.19,23.94-2.28,32.07-10.95
				c8.12-8.67,8.71-25.69-1.38-31.62c14.76-3.58,32.32-10.09,35.13-25.87c2.39-13.47-8.03-25.8-19.19-32.71
				c8.73-14.16,26.95-24.83,24.61-41.57c-2.13-15.21-19.69-20.96-34.05-23.02c-137.57-19.63-276.98,1.4-415.68,7.19
				c-0.81-1.92-1.62-3.84-2.43-5.76"/>
		</g>
		<path class="st4" d="M1162.7,285.29c-8.79,81.71-110.52,135.83-192.75,136.73c-82.28,0.9-188.1-51.01-197.57-136.73
			c-9.93-89.94,90.44-178.86,186.73-182.73C1063.77,98.35,1172.49,194.26,1162.7,285.29z"/>
		<path class="st5" d="M888.28,257.18c-3.27,0.3-18.67,1.38-29.97-8.94c-12.92-11.8-15.32-33.78-3.91-52.39
			c20.85,9.37,41.7,18.74,62.55,28.11C907.39,235.03,897.83,246.1,888.28,257.18z"/>
		<ellipse class="st6" cx="881.41" cy="220.76" rx="11.44" ry="12.14"/>
		<path class="st5" d="M1046.59,257.18c3.38,0.3,19.31,1.38,31.01-8.94c13.36-11.8,15.85-33.78,4.04-52.39
			c-21.57,9.37-43.14,18.74-64.71,28.11C1026.82,235.03,1036.71,246.1,1046.59,257.18z"/>
		<ellipse class="st6" cx="1052.47" cy="222.04" rx="11.44" ry="12.14"/>
		<g>
			<path class="st7" d="M827.8,240.57c-0.47,5.3-1.26,21.68,8.43,38.34c9,15.45,21.77,22.1,26.5,24.28"/>
			<path class="st7" d="M806.72,207.98c-2.67,5.93-18.76,43.3-2.41,85.62c15.33,39.7,48.03,54.79,54.21,57.5"/>
		</g>
		<g>
			<path class="st7" d="M1112.7,240.57c0.47,5.3,1.26,21.68-8.43,38.34c-9,15.45-21.77,22.1-26.5,24.28"/>
			<path class="st7" d="M1133.78,207.98c2.67,5.93,18.76,43.3,2.41,85.62c-15.33,39.7-48.03,54.79-54.21,57.5"/>
		</g>
		<path class="st8" d="M1051.87,419.07c-20.39,5.44-47.02,10.37-78.3,10.61c-33.49,0.26-61.84-4.93-83.12-10.61
			c-11.45-12.22-17.89-24.45-21.68-34.48c-18.47-48.81,0.4-112.24,44.57-164.46c35.74,0,71.48,0,107.22,0
			c8,9.75,69,86.23,46.98,164.46C1064.64,394.87,1059.88,406.71,1051.87,419.07z"/>
		<path class="st9" d="M1020.55,275.41c-7.36,22.74-26.03,38.29-46.98,39.27c-22.9,1.07-44.19-15.46-51.8-40.62
			c0-16.7,0-33.4,0-50.1c32.53,0,65.05,0,97.58,0C1019.75,241.11,1020.15,258.26,1020.55,275.41z"/>
		<ellipse class="st10" cx="968.75" cy="236.73" rx="42.16" ry="16.61"/>
		<line class="st7" x1="971.76" y1="318.52" x2="971.76" y2="351.74"/>
		<path class="st7" d="M933.81,358.13c11.39-2.15,25.22-3.83,40.96-3.83c11.57,0,25.46,0.91,40.96,3.83"/>
		<ellipse class="st11" cx="919.35" cy="355.57" rx="14.46" ry="28.11"/>
		<ellipse class="st11" cx="1024.16" cy="358.13" rx="13.25" ry="28.11"/>
		<path class="st7" d="M892.25,158.15c12.17-7.36,40.7-22.32,79.51-21.72c37.6,0.57,65.03,15.44,77.1,23"/>
		<path class="st7" d="M918.75,190.09c7.52-4.76,27.41-15.88,54.21-14.06c19.95,1.36,34.68,9.28,42.16,14.06"/>
		<path class="st7" d="M842.26,189.45c21.74,11.87,65.71,31.97,124.08,31.95c65.35-0.03,113.49-25.27,134.92-38.34"/>
		<path class="st12" d="M1172.34,131.95c-0.68,25.5-18.75,47.68-43.37,52.39c-21.68-17.89-43.37-35.78-65.05-53.67
			c6.35-36.96,38.05-59.58,66.26-53.67C1152.02,81.58,1173.1,103.55,1172.34,131.95z"/>
		<path class="st13" d="M1137.39,132.28c-0.3,11.66-8.33,21.8-19.27,23.95c-9.64-8.18-19.27-16.36-28.91-24.53
			c2.82-16.89,16.91-27.24,29.44-24.53C1128.36,109.26,1137.73,119.3,1137.39,132.28z"/>
		<path class="st12" d="M771.2,128.12c0.68,25.5,18.75,47.68,43.37,52.39c21.68-17.89,43.37-35.78,65.05-53.67
			c-6.35-36.96-38.05-59.58-66.26-53.67C791.52,77.75,770.44,99.72,771.2,128.12z"/>
		<path class="st13" d="M806.14,128.45c0.3,11.66,8.33,21.8,19.27,23.95c9.64-8.18,19.27-16.36,28.91-24.53
			c-2.82-16.89-16.91-27.24-29.44-24.53C815.17,105.42,805.81,115.47,806.14,128.45z"/>
		<path class="st14" d="M1237.39,74.45c20.41,38.02,6.72,87.92-20.48,116.28c-24.58,25.63-55.58,28.83-66.26,29.39
			c-7.23-11.93-14.46-23.85-21.68-35.78c6.43-1.78,42.52-12.47,62.64-51.11c24.05-46.18,4.52-92.36,2.41-97.12
			C1203.16,39.92,1224.5,50.42,1237.39,74.45z"/>
		<path class="st14" d="M702.68,69.34c-20.41,38.02-6.72,87.92,20.48,116.28c24.58,25.63,55.58,28.83,66.26,29.39
			c7.23-11.93,14.46-23.85,21.68-35.78c-6.43-1.78-42.52-12.47-62.64-51.11c-24.05-46.18-4.52-92.36-2.41-97.12
			C736.91,34.81,715.57,45.31,702.68,69.34z"/>
		<line class="st7" x1="738.65" y1="487.19" x2="739.86" y2="929.33"/>
		<g>
			<g>
				<path class="st15" d="M618.43,959.48c-1.72,8.83,0.87,17.98,6.63,24.84c5.82,6.93,14.87,10.09,23.68,7.73
					c9.12-2.44,16.64-9.86,20.63-18.23c4.74-9.93,5.72-21.1,5.52-31.97c-0.24-13.12-2.28-26.4-0.19-39.47
					c0.26-1.6-0.41-3.23-2.1-3.69c-1.43-0.39-3.43,0.49-3.69,2.1c-1.79,11.21-0.89,22.46-0.3,33.73c0.52,9.98,0.72,20.21-2.06,29.9
					c-2.36,8.24-7.21,15.85-14.82,20c-3.43,1.87-7.06,2.74-11,2.36c-1.08-0.11-3.49-0.78-4.41-1.21c-0.78-0.36-1.53-0.77-2.25-1.23
					c-0.9-0.57-1.29-0.85-1.99-1.46c-3.05-2.62-5.37-6.04-6.67-9.63c-0.39-1.07-0.71-2.16-0.97-3.27c-0.11-0.5-0.21-1-0.3-1.51
					c-0.09-0.52-0.1-0.57-0.16-1.23c-0.1-1.08-0.13-2.16-0.09-3.24c0.05-1.24,0.14-1.91,0.34-2.93c0.31-1.59-0.45-3.24-2.1-3.69
					C620.65,956.98,618.74,957.88,618.43,959.48L618.43,959.48z"/>
			</g>
		</g>
		<g>
			<g>
				<path class="st15" d="M570.21,962.74c1.01,10.4,6.45,19.9,14.62,26.39c9.01,7.16,20.38,10.12,31.8,9.35
					c6.98-0.47,13.82-2.12,20.33-4.64c1.51-0.59,2.56-2.02,2.1-3.69c-0.4-1.44-2.17-2.68-3.69-2.1c-10.23,3.97-21.6,5.99-32.43,3.4
					c-8.78-2.1-16.7-7.38-21.68-14.97c-2.74-4.16-4.58-8.94-5.05-13.75c-0.16-1.61-1.27-3-3-3
					C571.71,959.74,570.06,961.11,570.21,962.74L570.21,962.74z"/>
			</g>
		</g>
		<g>
			<g>
				<path class="st15" d="M1317.22,948.3c0.18,0.94,0.25,1.36,0.31,2.42c0.06,0.97,0.06,1.93,0,2.9c-0.1,1.83-0.41,3.44-1.01,5.41
					c-1.01,3.32-2.84,6.63-5.16,9.15c-2.44,2.65-5.22,4.52-8.53,5.41c-3.5,0.94-7.15,0.57-10.74-0.8
					c-7.47-2.84-13.25-10.08-16.05-17.63c-3.48-9.38-3.77-19.51-3.4-29.4c0.47-12.61,1.89-25.18-0.12-37.74
					c-0.26-1.6-2.25-2.49-3.69-2.1c-1.7,0.47-2.35,2.08-2.1,3.69c3.57,22.35-4.65,45.77,3.67,67.54c3.47,9.08,9.94,17.18,19.07,21
					c4.34,1.82,9.07,2.4,13.71,1.51c4.15-0.8,7.96-3.01,11.04-5.85c7.33-6.75,10.68-17.38,8.79-27.11c-0.31-1.59-2.21-2.5-3.69-2.1
					C1317.65,945.06,1316.91,946.7,1317.22,948.3L1317.22,948.3z"/>
			</g>
		</g>
		<g>
			<g>
				<path class="st15" d="M1365.22,949.96c-0.84,8.66-5.9,16.7-12.86,22.15c-7.8,6.11-17.98,8.31-28,7.56
					c-6.28-0.47-12.44-2.13-18.3-4.4c-1.51-0.59-3.29,0.65-3.69,2.1c-0.47,1.7,0.58,3.1,2.1,3.69c11.5,4.45,24.4,6.35,36.48,3.18
					c10.07-2.64,18.97-9.05,24.61-17.81c3.2-4.97,5.1-10.6,5.67-16.47c0.16-1.61-1.49-3-3-3
					C1366.47,946.96,1365.38,948.34,1365.22,949.96L1365.22,949.96z"/>
			</g>
		</g>
		<g>
			<g>
				<path class="st15" d="M676.66,956.03c8.43,3.1,17.88,2.1,26.06-1.3c8.51-3.53,15.7-9.34,22.12-15.86
					c3.66-3.72,7.09-7.65,10.51-11.59c1.06-1.22,1.2-3.04,0-4.24c-1.09-1.09-3.18-1.23-4.24,0c-10.58,12.17-22.64,26.39-39.66,28.62
					c-4.48,0.59-8.95,0.14-13.19-1.42c-1.52-0.56-3.29,0.63-3.69,2.1C674.11,954.01,675.13,955.47,676.66,956.03L676.66,956.03z"/>
			</g>
		</g>
		<path class="st16" d="M657.82,622.2l-76.78-47.02l19.27-35.41l76.78,47.02c3.41,7.72,2.17,17.86-3.03,25.41
			C667.74,621.37,658.75,622.14,657.82,622.2z"/>
		<path class="st16" d="M686.93,539.01l-66.14-40.5l19.27-35.41l66.14,40.5c2.62,7.23,0.94,17.1-4.16,24.72
			C695.87,537.57,687.77,538.9,686.93,539.01z"/>
		<path class="st16" d="M706.74,461.33l-42.37-36.63l18.6-24.21l42.37,36.63c0.94,5.61-1.59,12.73-6.27,17.84
			C713.38,461.17,707.36,461.32,706.74,461.33z"/>
		<path class="st16" d="M644.51,703.48l-95.38-41.66L563.81,624l95.38,41.66c5.35,7.61,5.94,18.07,1.58,26.23
			C655.48,701.79,645.55,703.34,644.51,703.48z"/>
		<path class="st16" d="M622.83,789.09l-95.38-41.66l14.68-37.81l95.38,41.66c5.35,7.61,5.94,18.07,1.58,26.23
			C633.8,787.41,623.86,788.95,622.83,789.09z"/>
		<path class="st16" d="M592.05,851.1l-67.3,1.07l-0.58-40.89l67.3-1.07c5.07,4.79,8.02,14.19,7.43,23.5
			C598.19,845.01,592.64,850.54,592.05,851.1z"/>
		<line class="st7" x1="1195.56" y1="473.14" x2="1194.35" y2="915.27"/>
		<path class="st16" d="M1276.39,608.15l76.78-47.02l-19.28-35.41l-76.78,47.02c-3.42,7.72-2.17,17.86,3.03,25.41
			C1266.47,607.31,1275.46,608.09,1276.39,608.15z"/>
		<path class="st16" d="M1247.28,524.96l66.14-40.5l-19.27-35.41l-66.14,40.5c-2.62,7.23-0.94,17.1,4.16,24.72
			C1238.34,523.52,1246.44,524.84,1247.28,524.96z"/>
		<path class="st16" d="M1227.47,447.27l42.37-36.63l-18.6-24.21l-42.37,36.63c-0.94,5.61,1.59,12.73,6.27,17.84
			C1220.83,447.11,1226.85,447.27,1227.47,447.27z"/>
		<path class="st16" d="M1289.7,689.42l95.38-41.66l-14.68-37.81l-95.38,41.66c-5.35,7.61-5.94,18.07-1.58,26.23
			C1278.72,687.74,1288.66,689.28,1289.7,689.42z"/>
		<path class="st16" d="M1311.38,775.04l95.38-41.66l-14.68-37.81l-95.38,41.66c-5.35,7.61-5.94,18.07-1.58,26.23
			C1300.41,773.35,1310.35,774.9,1311.38,775.04z"/>
		<path class="st16" d="M1342.15,837.04l67.3,1.07l0.58-40.89l-67.3-1.07c-5.07,4.79-8.02,14.19-7.43,23.5
			C1336.02,830.95,1341.57,836.48,1342.15,837.04z"/>
		<ellipse class="st8" cx="965.13" cy="722.32" rx="169.86" ry="207.01"/>
	</g>
</g>
</svg>
