<?xml version="1.0" encoding="utf-8"?>
<!-- Generator: Adobe Illustrator 23.0.5, SVG Export Plug-In . SVG Version: 6.00 Build 0)  -->
<svg version="1.1" id="圖層_1" xmlns="http://www.w3.org/2000/svg" xmlns:xlink="http://www.w3.org/1999/xlink" x="0px" y="0px"
	 viewBox="0 0 1920 1080" style="enable-background:new 0 0 1920 1080;" xml:space="preserve">
<style type="text/css">
	.st0{fill:#FFFFFF;}
	.st1{fill:#F9F9F9;}
	.st2{fill:#3C3F3F;}
</style>
<g>
	<path class="st0" d="M485,997.5c-57.06,0-103.5-46.44-103.5-103.5V30c0-57.06,46.44-103.5,103.5-103.5h864
		c57.06,0,103.5,46.44,103.5,103.5v864c0,57.06-46.44,103.5-103.5,103.5H485z"/>
	<path class="st1" d="M1349-69c54.63,0,99,44.37,99,99v864c0,54.63-44.37,99-99,99H485c-54.63,0-99-44.37-99-99V30
		c0-54.63,44.37-99,99-99H1349 M1349-78H485c-59.4,0-108,48.6-108,108v864c0,59.4,48.6,108,108,108h864c59.4,0,108-48.6,108-108V30
		C1457-29.4,1408.4-78,1349-78L1349-78z"/>
</g>
<g>
	<path class="st2" d="M1007.09,495.12c81.54-34.92,138.6-115.74,138.6-209.88c0-126.09-102.42-228.33-228.69-228.33
		S688.31,159.15,688.31,285.24c0,94.14,57.15,174.96,138.6,209.88c-81.54,65.79-138.6,217.98-138.6,395.37
		c0,38.61,2.7,75.96,7.83,111.51h441.72c5.04-35.55,7.83-72.9,7.83-111.51C1145.69,713.19,1088.54,560.91,1007.09,495.12z"/>
</g>
<g>
	<path class="st0" d="M910.79,280.47c1.26,1.26,1.89,2.7,1.89,4.41s-0.63,3.15-1.89,4.41c-1.26,1.26-2.7,1.89-4.41,1.89h-67.86
		c-0.99,0-1.62,0.54-1.8,1.53c-0.54,3.15-1.08,6.12-1.62,8.82c-0.09,0.36-0.09,0.72,0.18,1.08c0.18,0.27,0.45,0.45,0.72,0.45h44.55
		c3.51,0,6.39,1.26,8.82,3.87c1.89,2.16,2.88,4.68,2.88,7.47c0,0.54,0,0.99,0,1.53c-1.8,14.94-4.5,24.12-8.19,27.45
		c-2.88,2.7-7.2,4.14-12.87,4.5c-1.71,0.09-3.87,0.18-6.39,0.18c-2.88,0-6.21-0.09-9.99-0.18c-1.89-0.09-3.6-0.81-5.04-1.98
		c-1.44-1.26-2.52-2.79-3.24-4.68c-0.36-1.44-0.18-2.7,0.54-3.78c0.72-1.17,1.8-1.71,3.24-1.71c4.5,0.27,9.54,0.45,15.12,0.45
		c3.33,0,5.4-0.36,6.3-1.17c2.25-1.89,4.14-8.01,5.49-18.27c0-0.36-0.09-0.72-0.36-1.08c-0.27-0.27-0.54-0.45-0.99-0.45h-43.74
		c-0.99,0-1.71,0.45-2.25,1.35c-3.51,6.75-8.37,12.6-14.67,17.55s-14.58,9-24.93,12.33c-0.81,0.27-1.62,0.45-2.43,0.45
		c-1.17,0-2.34-0.27-3.42-0.72c-1.98-0.9-3.6-2.25-4.77-4.14c-0.99-1.44-1.26-2.88-0.63-4.59c0.54-1.62,1.62-2.7,3.24-3.06
		c7.11-1.98,13.05-4.41,17.82-7.2c4.86-2.79,8.64-6.03,11.52-9.72c2.88-3.69,5.04-7.38,6.57-11.25c1.53-3.78,2.79-8.28,3.69-13.41
		c0-0.36-0.09-0.72-0.36-1.08c-0.27-0.27-0.54-0.45-0.99-0.45H782.9c-1.71,0-3.15-0.63-4.41-1.89c-1.26-1.26-1.89-2.7-1.89-4.41
		s0.63-3.15,1.89-4.41c1.26-1.26,2.7-1.89,4.41-1.89h53.01c0.9,0,1.35-0.45,1.35-1.35v-4.5c0-1.98,0.72-3.69,2.07-5.13
		c1.35-1.44,3.15-2.16,5.13-2.16c2.07,0,3.78,0.72,5.22,2.16c1.44,1.44,2.16,3.15,2.16,5.13v4.5c0,0.9,0.45,1.35,1.35,1.35h53.37
		C908.09,278.67,909.53,279.21,910.79,280.47z M795.68,260.58c-0.99,0-1.53,0.54-1.53,1.53v5.49c0,1.89-0.63,3.51-1.89,4.77
		c-1.26,1.26-2.88,1.98-4.77,1.98s-3.6-0.63-4.86-1.98c-1.26-1.26-1.98-2.88-1.98-4.77v-6.3c0-3.6,1.26-6.66,3.78-9.18
		s5.58-3.78,9.18-3.78h17.37c0.36,0,0.72-0.18,0.9-0.45c0.18-0.27,0.27-0.63,0.18-0.9c-0.99-2.88-2.07-5.49-3.33-7.92
		c-0.63-1.26-0.63-2.61,0-3.96s1.62-2.16,2.97-2.43v-0.18h-24.84c-1.71,0-3.15-0.63-4.41-1.89c-1.26-1.26-1.89-2.7-1.89-4.5
		c0-1.71,0.63-3.24,1.89-4.41s2.7-1.8,4.41-1.8h48.42c0.9,0,1.35-0.45,1.35-1.35v-3.42c0-2.16,0.72-3.96,2.16-5.4
		c1.44-1.35,3.15-2.07,5.22-2.07c2.07,0,3.78,0.72,5.22,2.16c1.44,1.44,2.16,3.24,2.16,5.31v3.42c0,0.9,0.45,1.35,1.35,1.35h49.05
		c1.71,0,3.15,0.63,4.41,1.8s1.89,2.7,1.89,4.41s-0.63,3.24-1.89,4.5s-2.7,1.89-4.41,1.89h-18.27c0.36,0.09,0.72,0.36,0.99,0.81
		c0.27,0.45,0.18,0.9-0.09,1.26c-2.25,4.5-4.59,8.64-6.84,12.51c-0.18,0.27-0.18,0.54,0,0.81s0.45,0.36,0.72,0.36h16.74
		c3.6,0,6.66,1.26,9.18,3.78s3.78,5.58,3.78,9.18v6.12c0,1.89-0.63,3.51-1.98,4.86s-2.97,1.98-4.95,1.98s-3.6-0.63-4.95-1.98
		s-1.98-2.97-1.98-4.86v-5.4c0-0.99-0.54-1.53-1.53-1.53h-96.93V260.58z M868.31,233.76c0.09-0.27,0.09-0.63-0.18-0.9
		c-0.18-0.27-0.54-0.45-0.9-0.45h-45.54c-0.27,0-0.54,0.18-0.63,0.45s-0.18,0.54-0.09,0.72c2.52,4.41,4.41,8.82,5.85,13.32
		c0.18,0.9,0.81,1.35,1.98,1.35h32.13c0.99,0,1.71-0.45,2.07-1.35C865.16,242.4,866.96,237.99,868.31,233.76z"/>
	<path class="st0" d="M997.82,226.29c-0.09,0.27-0.09,0.63,0.18,0.9c0.18,0.27,0.45,0.45,0.72,0.45h42.57c3.6,0,6.66,1.26,9.18,3.78
		s3.78,5.58,3.78,9.18v95.94c0,1.98-0.72,3.78-2.25,5.22s-3.24,2.25-5.31,2.25c-2.07,0-3.78-0.72-5.31-2.25s-2.25-3.24-2.25-5.22
		v-1.62c0-0.72-0.36-1.08-1.08-1.08h-79.38c-0.72,0-1.08,0.36-1.08,1.08v2.52c0,1.98-0.72,3.69-2.07,5.04
		c-1.44,1.35-3.06,2.07-5.04,2.07s-3.69-0.72-5.04-2.07c-1.44-1.44-2.07-3.06-2.07-5.04V240.6c0-3.6,1.26-6.66,3.78-9.18
		s5.58-3.78,9.18-3.78h23.13c0.99,0,1.71-0.45,2.07-1.35c1.8-4.86,3.33-9.45,4.59-13.77c0.72-2.52,2.16-4.5,4.32-5.94
		c1.71-1.08,3.51-1.62,5.4-1.62c0.63,0,1.17,0,1.62,0c2.25,0.36,4.05,1.62,5.22,3.78c0.63,1.08,0.9,2.16,0.9,3.24
		s-0.18,2.07-0.63,3.06C1001.24,219.45,999.44,223.23,997.82,226.29z M1039.22,243.39c0-0.99-0.54-1.53-1.53-1.53h-78.48
		c-0.99,0-1.53,0.54-1.53,1.53v28.35c0,0.99,0.54,1.53,1.53,1.53h78.48c0.99,0,1.53-0.54,1.53-1.53V243.39z M957.77,318.18
		c0,0.99,0.54,1.53,1.53,1.53h78.48c0.99,0,1.53-0.54,1.53-1.53v-29.43c0-0.99-0.54-1.53-1.53-1.53H959.3
		c-0.99,0-1.53,0.54-1.53,1.53V318.18z"/>
</g>
</svg>
