<?xml version="1.0" encoding="utf-8"?>
<!-- Generator: Adobe Illustrator 23.0.5, SVG Export Plug-In . SVG Version: 6.00 Build 0)  -->
<svg version="1.1" id="圖層_1" xmlns="http://www.w3.org/2000/svg" xmlns:xlink="http://www.w3.org/1999/xlink" x="0px" y="0px"
	 viewBox="0 0 1920 1080" style="enable-background:new 0 0 1920 1080;" xml:space="preserve">
<style type="text/css">
	.st0{fill:#F6E9D9;}
	.st1{fill:#8F6A4C;}
	.st2{fill:#DA742E;}
	.st3{fill:#F2CB89;}
	.st4{fill:#0F0617;}
	.st5{fill:#FCFCFC;}
	.st6{fill:#FFAA2D;}
	.st7{fill:#FE8525;}
	.st8{fill:#0F0613;}
	.st9{fill:#0F0615;}
	.st10{fill:#DC9D56;}
	.st11{fill:#7C6662;}
	.st12{fill:#94CCCE;}
	.st13{fill:#969493;}
</style>
<g>
	<path class="st0" d="M1284,1075.94H636c-118.8,0-216-96.67-216-214.85V217.98C420,99.79,517.2,3.13,636,3.13h648
		c118.8,0,216,96.67,216,214.85v643.11C1500,979.18,1402.8,1075.94,1284,1075.94z"/>
</g>
<g>
	<path class="st1" d="M771,324.91c19.98-25.92,29.7-49.41,34.92-65.53c9.72-30.42,12.24-60.31,12.24-60.31
		c2.34-22.59,6.3-45.09,11.7-67.15c0.9-3.96,2.16-8.1,5.04-10.71c2.88-2.7,7.2-3.24,11.16-3.78c41.4-4.5,82.98,4.68,124.56,5.76
		c52.56,1.44,105.3-9.99,157.68-3.96c3.96,0.54,8.28,1.26,10.8,4.14c2.16,2.34,2.7,5.76,3.24,8.91c3.96,24.48,7.74,49.23,11.7,73.72
		c1.44,9.45,3.06,18.99,6.66,27.72c3.78,9.27,9.9,17.55,15.3,25.92c10.8,16.47,19.98,34.02,27.18,52.12
		c3.96,10.17,7.02,23.13-0.72,30.78c-5.58,5.58-14.4,5.94-22.32,5.04c-19.44-1.98-38.34-8.28-57.06-13.41
		c-6.12-1.62-12.24-3.24-18.36-4.86c-20.88-5.76-79.56-13.41-219.96-23.49"/>
</g>
<g>
	<path class="st2" d="M761.82,330.76c-0.36-34.74,161.46-62.65,174.6-64.81c29.7-5.04,44.46-7.38,61.56-7.92
		c76.68-2.88,153.72,26.28,215.1,81.46c7.2,6.48,14.22,13.23,19.26,22.05c11.7,20.07,11.7,46.17,11.16,70.57
		c-5.22-1.98-13.32-5.04-23.4-8.1c-88.92-27.18-131.58-3.78-206.1-20.61c-41.22-9.27-31.68-17.37-90.54-36.9
		c-64.62-21.51-120.24-26.46-158.04-27.18C762.36,335.62,762,332.56,761.82,330.76z"/>
</g>
<g>
	<path class="st1" d="M703.86,712.48c21.96-11.43-13.86-78.94,12.96-171.2c8.64-29.88,19.08-45.45,27.18-55.36
		c8.82-10.71,30.6-33.66,81.72-49.23c14.58-4.5,53.28-14.85,161.28-4.5c99.72,9.63,150.66,26.64,179.82,38.34
		c44.28,17.55,58.86,30.6,68.58,40.95c35.64,37.8,35.1,88.48,35.28,111.7c0.72,62.83-26.46,109.72-40.68,130.87
		c60.3-28.08,99.18-63.55,121.68-87.58c28.8-30.78,49.86-57.43,60.12-98.83c9.36-37.8,2.34-80.92-24.66-109.18
		c-11.7-12.15-26.46-21.15-41.58-28.98c-77.04-40.5-166.14-57.79-252.9-49.41c-36.36,3.6-73.62,11.43-109.08,2.52
		c-26.82-6.84-50.4-22.95-76.32-32.76c-23.76-9.09-49.5-12.69-74.88-14.67c-34.02-2.7-100.62-8.73-164.7,26.1
		c-15.66,8.55-106.02,57.79-112.86,151.3c-5.58,78.04,51.12,132.31,81,160.94C652.74,689.71,686.22,721.58,703.86,712.48z"/>
</g>
<path class="st3" d="M1257,700.33c-7.2,26.82-24.48,87.58-81,134.11c-69.66,57.25-151.38,54.82-189,53.73
	c-37.8-1.08-203.4-6.12-270-134.11c-59.94-115.3-10.26-273.72,81-321.87c28.44-14.85,82.26-10.17,189,0
	c141.3,13.41,212.58,20.97,243,53.73C1295.7,556.68,1262.76,678.64,1257,700.33z"/>
<g>
	<ellipse class="st4" cx="865.5" cy="619.87" rx="47.34" ry="53.73"/>
	<g>
		<g>
			<path class="st5" d="M830.22,616.54c10.44,0,10.44-16.11,0-16.11C819.78,600.42,819.78,616.54,830.22,616.54L830.22,616.54z"/>
		</g>
	</g>
</g>
<g>
	<ellipse class="st4" cx="1108.5" cy="619.87" rx="47.34" ry="53.73"/>
	<g>
		<g>
			<path class="st5" d="M1076.1,616.54c10.44,0,10.44-16.11,0-16.11C1065.66,600.42,1065.66,616.54,1076.1,616.54L1076.1,616.54z"/>
		</g>
	</g>
</g>
<path class="st6" d="M1041,727.16c-18,17.91-36,35.82-54,53.73c-18-17.91-36-35.82-54-53.73c18-26.82,36-53.73,54-80.38
	C1005,673.6,1023,700.33,1041,727.16z"/>
<ellipse class="st7" cx="798" cy="727.16" rx="54" ry="53.73"/>
<ellipse class="st7" cx="1149" cy="740.57" rx="54" ry="53.73"/>
<path class="st8" d="M1162.5,753.98c1.08,1.62-74.52,73.54-162,80.38c-75.96,5.94-142.38-38.52-189-80.38
	c15.48,9.27,33.48,18.63,54,26.82c52.38,20.97,100.26,26.1,135,26.82c26.82-2.88,65.16-9.45,108-26.82
	C1143.42,766.67,1161.96,753.26,1162.5,753.98z"/>
<g>
	<path class="st9" d="M1105.08,541.65c3.78-6.66,13.5-7.02,20.34-3.42s11.52,9.81,17.46,14.49c-13.14-1.62-25.92-5.22-37.8-10.71"/>
</g>
<g>
	<path class="st9" d="M846.06,534.18c-1.26-5.58,3.6-10.71,8.64-13.41c8.82-4.5,20.88-4.32,27.18,3.24c0.36,0.54,0.9,1.26,0.72,1.8
		c-0.18,0.72-0.72,1.08-1.26,1.44c-10.8,6.84-24.66,8.73-37.08,5.4"/>
</g>
<g>
	<path class="st9" d="M974.04,831.57c4.32,11.43,7.92,23.31,10.8,35.28c1.26-7.38,2.34-14.67,3.6-22.05
		c0.54-3.6,1.08-7.74-0.9-10.89c-1.98-3.24-7.92-3.6-9,0"/>
</g>
<g>
	<g>
		<path class="st9" d="M1054.86,784.76c9.54,14.13,15.84,30.42,18,47.43c0.18,1.62,2.88,1.8,2.7,0
			c-2.34-17.37-8.46-34.2-18.36-48.69C1056.3,782.15,1053.96,783.32,1054.86,784.76L1054.86,784.76z"/>
	</g>
</g>
<g>
	<g>
		<path class="st9" d="M893.58,775.31c-11.34,11.43-17.82,27-17.64,43.11c0,1.8,2.7,1.8,2.7,0c0-15.39,6.12-30.24,16.92-41.13
			C896.82,776.03,894.84,774.23,893.58,775.31L893.58,775.31z"/>
	</g>
</g>
<g>
	<g>
		<path class="st9" d="M918.6,782.69c-0.54,5.22-2.34,10.17-5.22,14.67c-0.9,1.44,1.44,2.88,2.34,1.44
			c3.24-4.86,5.04-10.35,5.58-16.11c0-0.72-0.72-1.44-1.44-1.44S918.6,781.79,918.6,782.69L918.6,782.69z"/>
	</g>
</g>
<g>
	<g>
		<path class="st9" d="M1113.54,766.04c2.88,5.22,5.58,10.35,8.46,15.39c0.9,1.44,3.24,0.18,2.34-1.44
			c-2.88-5.22-5.58-10.35-8.46-15.39C1115.16,763.16,1112.82,764.42,1113.54,766.04L1113.54,766.04z"/>
	</g>
</g>
<path class="st10" d="M1203,888.09c-144,0-288,0-432,0c-34.2,59.41-68.4,118.9-102.6,178.49c24.3,5.94,49.5,9.27,75.6,9.27h432
	c35.28,0,69.12-5.94,100.98-16.29C1252.32,1002.31,1227.66,945.25,1203,888.09z"/>
<rect x="1095" y="914.91" class="st11" width="54" height="107.2"/>
<rect x="825" y="914.91" class="st11" width="54" height="107.2"/>
<path class="st12" d="M1203,903.3c-10.8,21.69-36,21.15-108,45.99c-92.7,31.86-97.02,48.51-135,45.99
	c-21.42-1.44-16.74-6.66-108-45.99c-56.88-24.48-73.08-28.8-81-45.99c-12.24-26.28,4.5-63.73,27-68.95c14.4-3.42,21.6,8.73,54,22.95
	c37.8,16.65,72.54,19.71,108,22.95c26.1,2.34,49.68,4.5,81,0c41.94-6.12,76.14-20.79,81-22.95c34.2-15.03,40.68-25.92,54-22.95
	C1198.14,839.22,1215.96,877.38,1203,903.3z"/>
<g>
	<path class="st11" d="M1081.14,1026.53c26.28-0.18,52.56-0.36,78.66-0.36c1.8,0,3.6,0,4.86,1.08c3.42,2.88-0.54,8.1-0.9,12.51
		c-0.18,1.62,0.36,3.42-0.54,4.86c-1.26,2.16-4.32,2.34-6.66,2.16c-22.14-1.26-44.46-2.34-66.6-3.6c-3.24-0.18-6.84-0.36-9.36-2.52
		c-2.52-2.16-3.42-6.12-1.98-9.09c1.44-3.06,5.04-4.86,8.28-4.32"/>
	<g>
		<path class="st11" d="M1081.14,1029.14c16.56-0.18,33.12-0.18,49.68-0.36c7.92,0,16.02,0,23.94-0.18c1.8,0,4.86-0.54,6.48,0
			c3.06,1.08,2.16,2.52,1.62,4.5c-0.9,2.88-1.26,5.4-1.62,8.19c-0.36,2.34-1.26,2.34-3.42,2.52c-1.98,0.18-4.14-0.18-6.3-0.36
			c-3.96-0.18-7.92-0.36-11.88-0.72c-7.92-0.36-16.02-0.9-23.94-1.26c-7.92-0.36-16.02-0.9-23.94-1.26
			c-3.24-0.18-8.1,0.18-10.26-3.06c-2.88-4.14,1.26-8.1,5.4-7.74c3.42,0.36,3.42-5.04,0-5.4c-12.42-1.26-16.02,15.93-4.32,20.25
			c2.88,1.08,6.12,1.08,9.18,1.26c4.86,0.18,9.72,0.54,14.58,0.72c8.82,0.54,17.64,0.9,26.46,1.44c8.64,0.54,17.64,1.8,26.1,1.26
			c2.16-0.18,4.5-0.72,5.94-2.52c2.16-2.34,1.26-5.22,1.8-8.1c0.9-4.86,4.5-11.07-1.26-14.49c-2.7-1.62-6.12-1.26-9.18-1.26
			c-4.5,0-9.18,0-13.68,0c-20.52,0.18-41.04,0.18-61.56,0.36C1077.72,1023.82,1077.72,1029.14,1081.14,1029.14L1081.14,1029.14z"/>
	</g>
</g>
<g>
	<path class="st11" d="M811.14,1026.53c26.28-0.18,52.56-0.36,78.66-0.36c1.8,0,3.6,0,4.86,1.08c3.42,2.88-0.54,8.1-0.9,12.51
		c-0.18,1.62,0.36,3.42-0.54,4.86c-1.26,2.16-4.32,2.34-6.66,2.16c-22.14-1.26-44.46-2.34-66.6-3.6c-3.24-0.18-6.84-0.36-9.36-2.52
		c-2.52-2.16-3.42-6.12-1.98-9.09c1.44-3.06,5.04-4.86,8.28-4.32"/>
	<g>
		<path class="st11" d="M811.14,1029.14c16.56-0.18,33.12-0.18,49.68-0.36c7.92,0,16.02,0,23.94-0.18c1.8,0,4.86-0.54,6.48,0
			c3.06,1.08,2.16,2.52,1.62,4.5c-0.9,2.88-1.26,5.4-1.62,8.19c-0.36,2.34-1.26,2.34-3.42,2.52c-1.98,0.18-4.14-0.18-6.3-0.36
			c-3.96-0.18-7.92-0.36-11.88-0.72c-7.92-0.36-16.02-0.9-23.94-1.26c-7.92-0.36-16.02-0.9-23.94-1.26
			c-3.24-0.18-8.1,0.18-10.26-3.06c-2.88-4.14,1.26-8.1,5.4-7.74c3.42,0.36,3.42-5.04,0-5.4c-12.42-1.26-16.02,15.93-4.32,20.25
			c2.88,1.08,6.12,1.08,9.18,1.26c4.86,0.18,9.72,0.54,14.58,0.72c8.82,0.54,17.64,0.9,26.46,1.44c8.64,0.54,17.64,1.8,26.1,1.26
			c2.16-0.18,4.5-0.72,5.94-2.52c2.16-2.34,1.26-5.22,1.8-8.1c0.9-4.86,4.5-11.07-1.26-14.49c-2.7-1.62-6.12-1.26-9.18-1.26
			c-4.5,0-9.18,0-13.68,0c-20.52,0.18-41.04,0.18-61.56,0.36C807.72,1023.82,807.72,1029.14,811.14,1029.14L811.14,1029.14z"/>
	</g>
</g>
<g>
	<g>
		<path class="st13" d="M1099.14,1076.3c3.96-5.4,7.92-10.71,12.42-15.75c3.78-4.32,8.46-8.91,14.4-10.17
			c6.12-1.26,10.44,3.24,14.22,7.56c4.32,5.04,8.28,10.53,11.7,16.29c1.8,3.06,6.48,0.18,4.68-2.7c-3.96-6.66-8.46-12.69-13.5-18.45
			c-4.5-5.04-9.9-8.91-16.92-7.92c-6.66,0.9-12.24,5.4-16.74,9.99c-5.4,5.76-10.26,12.15-14.76,18.45
			C1092.3,1076.48,1096.98,1079.09,1099.14,1076.3L1099.14,1076.3z"/>
	</g>
</g>
<g>
	<g>
		<path class="st13" d="M827.7,1079.09c5.22-6.3,10.26-12.51,15.66-18.81c3.78-4.5,8.82-9.99,15.12-10.35
			c6.84-0.54,11.34,5.76,14.4,11.07c3.24,5.76,5.94,11.79,11.16,15.93c2.7,2.16,6.48-1.62,3.78-3.78
			c-10.62-8.1-12.6-29.52-29.52-28.62c-7.02,0.36-12.6,5.04-17.1,9.99c-6.12,6.66-11.7,13.77-17.46,20.79
			C821.76,1078.01,825.54,1081.79,827.7,1079.09L827.7,1079.09z"/>
	</g>
</g>
<g>
	<path class="st1" d="M836.16,128.87c-2.52-3.42-1.26-8.1,0.18-11.79c16.2-42.21,51.48-74.62,88.56-100.99
		c6.84-4.86,14.04-9.63,22.32-11.61c5.76-1.26,11.88-1.08,17.82-0.9c54.9,1.98,109.8,4.14,164.7,6.48
		c-16.02,41.31-11.7,90.01,11.34,127.99c-21.24,3.06-43.02,2.34-64.44,1.62c-63.9-2.16-127.8-4.32-191.52-6.48
		c-17.64-0.54-36.72-1.8-49.68-13.59"/>
	<g>
		<path class="st1" d="M838.68,128.15c-4.68-12.51,11.16-33.66,18-43.65c7.2-10.35,15.66-20.07,24.66-28.98
			c10.26-10.17,21.42-19.53,32.94-28.26c10.08-7.56,20.88-17.19,33.48-20.07c13.14-3.06,28.26-0.54,41.58,0
			c16.2,0.54,32.58,1.26,48.78,1.8c30.6,1.26,61.02,2.52,91.62,3.78c-0.9-1.08-1.8-2.34-2.52-3.42
			c-15.84,43.11-11.52,90.37,11.7,129.97c0.72-1.44,1.62-2.7,2.34-4.14c-50.58,6.3-103.5,0.18-154.26-1.44
			c-25.92-0.9-51.84-1.8-77.76-2.7c-23.58-0.72-52.38,2.16-71.64-13.59c-2.7-2.16-6.48,1.62-3.78,3.78
			c14.94,12.15,32.94,13.77,51.48,14.49c27.9,1.08,55.8,1.8,83.88,2.88c27.9,0.9,55.8,1.8,83.88,2.88
			c29.52,1.08,59.04,2.88,88.38-0.72c1.98-0.18,3.42-2.16,2.34-4.14c-22.5-38.52-26.46-83.98-11.16-125.83
			c0.72-1.8-0.9-3.42-2.52-3.42c-37.62-1.62-75.24-3.24-112.86-4.68c-29.34-1.08-63.36-8.73-89.28,8.19
			c-23.22,15.21-45.36,34.02-63.36,55.18c-9,10.53-17.1,22.05-23.4,34.38c-4.5,8.73-11.16,19.35-7.38,29.34
			C834.72,132.74,839.94,131.3,838.68,128.15L838.68,128.15z"/>
	</g>
</g>
</svg>
