<?xml version="1.0" encoding="utf-8"?>
<!-- Generator: Adobe Illustrator 23.0.5, SVG Export Plug-In . SVG Version: 6.00 Build 0)  -->
<svg version="1.1" xmlns="http://www.w3.org/2000/svg" xmlns:xlink="http://www.w3.org/1999/xlink" x="0px" y="0px"
	 viewBox="0 0 1920 1080" style="enable-background:new 0 0 1920 1080;" xml:space="preserve">
<style type="text/css">
	.st0{fill:#77C5DB;}
	.st1{fill:#F7F7F7;}
	.st2{fill:#478237;}
	.st3{fill:#F8C923;}
	.st4{fill:#F6D32D;}
	.st5{fill:#693A25;}
	.st6{fill:#A2AF2A;}
	.st7{fill:#F4E984;}
	.st8{fill:#755714;}
	.st9{fill:#559936;}
	.st10{fill:#572E25;}
	.st11{fill:#2B95D6;}
	.st12{fill:#1089D3;}
	.st13{fill:#CB904C;}
	.st14{fill:#F2AA45;}
	.st15{fill:#DC9B4B;}
	.st16{fill:#F5C759;}
	.st17{fill:#F9BE61;}
	.st18{fill:#FBCD7D;}
	.st19{fill:#D59333;}
</style>
<g id="圖層_1">
</g>
<g id="圖層_2">
	<rect y="-1" class="st0" width="1918" height="512"/>
	<path class="st1" d="M599.2,124.22c-6.46,0-12.67,1.03-18.46,2.93c-1.41-15.17-6.5-27.27-17.53-36.66
		c-2.17-1.85-20.11-16.7-42.23-14.15c-14.22,1.64-25.57,9.95-34.55,21.07c-16.25-22.62-49.08-38.59-77.87-32.5
		c-30.97,6.55-45.63,36.16-52.6,61.61c-6.4-0.17-12.53,0.14-18.18,0.97c-15.4,2.27-24.14,8.01-27.36,10.34
		c-21.2,15.32-21.43,40.32-21.41,42.17c0.17,19.89,12.51,36.87,27.96,45.98c16.32,9.62,33.56,8.95,48.19,6.9
		c3.13,4.46,6.86,8.74,11.3,12.69c5.39,4.79,18.91,16.81,38.66,17.41c17.5,0.54,30.42-8.17,37.47-13.06
		c3.54-2.46,6.77-5.1,9.73-7.89c1.95,2.62,4.24,5.08,6.93,7.35c16.73,14.11,40.38,13.69,43.12,13.6
		c4.88-0.15,24.57-1.27,40.15-14.69c7.68-6.61,12.16-14.33,15.4-24.74c8.97,5.66,19.73,8.96,31.3,8.96
		c31.37,0,56.8-24.24,56.8-54.14S630.57,124.22,599.2,124.22z"/>
	<path class="st1" d="M1143.2,133.22c-6.46,0-12.67,1.03-18.46,2.93c-1.41-15.17-6.5-27.27-17.53-36.66
		c-2.17-1.85-20.11-16.7-42.23-14.15c-14.22,1.64-25.57,9.95-34.55,21.07c-16.25-22.62-49.08-38.59-77.87-32.5
		c-30.97,6.55-45.63,36.16-52.6,61.61c-6.4-0.17-12.53,0.14-18.18,0.97c-15.4,2.27-24.14,8.01-27.36,10.34
		c-21.2,15.32-21.43,40.32-21.41,42.17c0.17,19.89,12.51,36.87,27.96,45.98c16.32,9.62,33.56,8.95,48.19,6.9
		c3.13,4.46,6.86,8.74,11.3,12.69c5.39,4.79,18.91,16.81,38.66,17.41c17.5,0.54,30.42-8.17,37.47-13.06
		c3.54-2.46,6.77-5.1,9.73-7.89c1.95,2.62,4.24,5.08,6.93,7.35c16.73,14.11,40.38,13.69,43.12,13.6
		c4.88-0.15,24.57-1.27,40.15-14.69c7.68-6.61,12.16-14.33,15.4-24.74c8.97,5.66,19.73,8.96,31.3,8.96
		c31.37,0,56.8-24.24,56.8-54.14S1174.57,133.22,1143.2,133.22z"/>
	<path class="st1" d="M1668.2,129.22c-6.46,0-12.67,1.03-18.46,2.93c-1.41-15.17-6.5-27.27-17.53-36.66
		c-2.17-1.85-20.11-16.7-42.23-14.15c-14.22,1.64-25.57,9.95-34.55,21.07c-16.25-22.62-49.08-38.59-77.87-32.5
		c-30.97,6.55-45.63,36.16-52.6,61.61c-6.4-0.17-12.53,0.14-18.18,0.97c-15.4,2.27-24.14,8.01-27.36,10.34
		c-21.2,15.32-21.43,40.32-21.41,42.17c0.17,19.89,12.51,36.87,27.96,45.98c16.32,9.62,33.56,8.95,48.19,6.9
		c3.13,4.46,6.86,8.74,11.3,12.69c5.39,4.79,18.91,16.81,38.66,17.41c17.5,0.54,30.42-8.17,37.47-13.06
		c3.54-2.46,6.77-5.1,9.73-7.89c1.95,2.62,4.24,5.08,6.93,7.35c16.73,14.11,40.38,13.69,43.12,13.6
		c4.88-0.15,24.57-1.27,40.15-14.69c7.68-6.61,12.16-14.33,15.4-24.74c8.97,5.66,19.73,8.96,31.3,8.96
		c31.37,0,56.8-24.24,56.8-54.14S1699.57,129.22,1668.2,129.22z"/>
	<path class="st2" d="M1919,686H-1c0.33-86.33,0.67-172.67,1-259c63.45-18.28,115.15-21,151-20c73.08,2.03,90.67,19.8,161,16
		c68.68-3.71,71.13-21.7,133-22c69.57-0.34,77.35,22.35,145,28c85.24,7.12,104.74-26.23,196-32c75.28-4.76,108.42,15.01,184,30
		c131.71,26.13,226.39,4.86,318-6c122.58-14.53,317.41-19.66,629,26C1917.67,526.67,1918.33,606.33,1919,686z"/>
	<path class="st3" d="M1920,1073H-1V480c17.44-5.11,45.34-12.79,80-20c206.94-43.06,350.13-6.22,629,19
		c81.18,7.34,162.67,10.6,244,16c199.35,13.23,518.33,24.17,968,0C1920,687.67,1920,880.33,1920,1073z"/>
	<path class="st4" d="M1930,1074H604c-8-181-16-362-24-543c92.57-15.32,213.21-33.69,355-51c160.99-19.66,281.46-34.37,448-41
		c166.47-6.63,304.35-2.22,370,0c66.59,2.25,122.73,5.36,164,8C1921.33,656,1925.67,865,1930,1074z"/>
	<g>
		<path class="st5" d="M98.8,416.91l-16.6-12.14c27.17-29.55,54.33-59.1,81.5-88.64l0,0C142.07,349.72,120.43,383.32,98.8,416.91z"
			/>
		<g>
			
				<rect x="66.71" y="224.56" transform="matrix(0.9994 0.0349 -0.0349 0.9994 14.8881 -2.8196)" class="st5" width="43" height="401"/>
			<path class="st5" d="M94.71,414.76l-13.08,15.87C53.7,401.8,25.77,372.97-2.16,344.15l0,0
				C30.13,367.68,62.42,391.22,94.71,414.76z"/>
			<g>
				<path class="st6" d="M-17.88,75.82c5.57-17.61,19.59-32.34,36.9-38.78S56.58,32.6,72.3,42.3c15.56,9.6,26.93,26.2,44.4,31.61
					c14.54,4.51,34.56,2.72,40.33,16.8c1.21,2.96,1.5,6.25,2.87,9.14c6.62,13.97,28.05,7.03,42.55,12.37
					c17.01,6.26,19.32,34.32,3.56,43.28c8.72,0.01,17.42,2.05,25.23,5.93c3,1.49,6.07,3.29,9.41,3.15c5.41-0.23,9.12-5.25,13.2-8.81
					c17.28-15.1,43.95-5.15,64.34,5.38c10.12,5.22,20.23,10.45,30.35,15.67c9.44,4.88,19.8,10.83,22.65,21.07
					c1.02,3.67,0.95,7.57,1.98,11.23c4.27,15.18,26.37,25.23,21.2,40.13c-3.39,9.79-17.31,13.15-19.86,23.18
					c-1.26,4.95,0.69,10.38-0.99,15.2c-1.8,5.18-7.17,8.1-12.13,10.45c-27.43,12.98-57.67,23.59-87.64,18.85
					c-8.58-1.36-17.08-3.97-25.76-3.62c-18.4,0.73-33.44,14.25-46.65,27.07c-3.37,3.27-6.86,6.63-11.22,8.36
					c-5.35,2.13-11.35,1.56-17.08,0.96c-9.99-1.05-20.35-2.22-28.9-7.49c-8.55-5.27-14.67-15.92-11.45-25.43
					c2.71-7.99,11.3-13.87,11.16-22.31c-0.13-7.62-7.38-12.98-14.15-16.47c-35.38-18.2-79.22-18.98-115.22-2.03
					c-6.5,3.06-13.23,6.76-20.39,6.12c-8.37-0.75-15.02-7.26-20.03-14c-19.35-26-24.95-59.49-28.75-91.68
					c-3.55-30.09-5.86-61.58,5.2-89.78s39.37-51.89,69.4-47.83"/>
			</g>
			<g>
				<path class="st6" d="M-41.1,309.22c7.85-1.92,15.34-5.32,21.97-9.96c2.48-1.74,5.14-3.74,8.16-3.5
					c5.27,0.43,7.55,7.03,12.13,9.66c5.85,3.36,14.15-0.43,19.6,3.55c3.88,2.83,4.72,8.6,8.63,11.4c3.68,2.63,8.68,1.74,13.16,1.13
					c10.63-1.46,21.55-0.73,31.88,2.13c6.86,1.9,13.69,4.9,18.35,10.28c4.66,5.38,6.61,13.56,3.16,19.79
					c-4.69,8.47-16.15,9.69-25.84,9.88c-34.15,0.69-68.29,1.38-102.44,2.07c-1.46,0.03-3.01,0.03-4.24-0.75
					c-2.03-1.29-2.35-4.08-2.45-6.48c-0.7-16.71-1.41-33.41-2.11-50.12"/>
			</g>
		</g>
	</g>
	<path class="st7" d="M1919,1075H-1c0-184,0-368,0-552c21.07-1.92,54.28-4.69,95-7c187.34-10.62,301.41,1.86,472,7
		c50.47,1.52,17.26-0.27,294,0c601.34,0.59,531.84,8.83,644,3c50.9-2.65,148.69-8.68,281,1c67.87,4.97,123.17,12.48,159,18
		C1935.67,721.67,1927.33,898.33,1919,1075z"/>
	<g>
		<g>
			<path class="st8" d="M1780,185v321.77l-63.38-74.11c21.13,32.94,42.26,65.88,63.38,98.82V704h54V185H1780z"/>
			<path class="st8" d="M1715.07,430.85l1.55,1.81c-0.44-0.69-0.88-1.37-1.32-2.06C1715.22,430.68,1715.15,430.77,1715.07,430.85z"
				/>
		</g>
		<g>
			<path class="st9" d="M1966.94,82.53c-1.46-23.66-7.43-48.85-24.77-64.2c-7.8-6.9-17.34-11.27-26.93-14.95
				c-76.66-29.32-161.18-18.46-242.81-20.81c-18.27-0.53-36.77-1.71-54.62,2.37c-17.85,4.09-35.36,14.36-43.79,31.25
				c-2.07,4.14-3.56,8.61-6.06,12.49c-5.86,9.1-16.29,13.67-23.89,21.25c-7.6,7.58-11.35,22.25-2.77,28.58
				c3.99,2.94,9.68,3.19,12.84,7.07c5.42,6.64-1.37,16.8-8.89,20.58s-16.87,5.8-20.97,13.39c-3.36,6.22-2.28,14.92-7.41,19.64
				c-3.14,2.89-7.65,3.28-11.82,3.77c-37.23,4.36-71.87,28.24-90.31,62.24c-1.17,2.16-2.32,4.55-2.01,7.01
				c0.44,3.47,3.68,6.16,3.69,9.67c0.02,7.72-14.63,10.32-12.1,17.58c1.16,3.33,5.25,4.03,8.41,5.34s5.56,9.67,2.78,11.71l6.45,2.56
				l-6.68-2.59c2.02,6.8,4.03,13.6,6.05,20.4c0.47,1.59,0.97,3.23,2.06,4.47c4.06,4.6,12.54,0.61,17.36,4.4
				c4.65,3.66,2.37,11.16,4.37,16.72c1.82,5.06,7.24,8.43,8.19,13.72c0.71,3.97-1.3,8.27,0.28,11.99
				c2.42,5.71,10.83,5.25,16.31,2.36c5.48-2.89,10.86-7.37,17.01-6.58c5.32,0.69,10.96,5.23,15.38,2.17
				c1.8-1.25,2.66-3.43,3.66-5.38c3.31-6.5,9.23-11.62,16.14-13.97c2.18-0.74,4.97-1.05,6.43,0.73c1.02,1.25,1.01,3.16,2.18,4.27
				c2.21,2.11,6.56-0.32,8.66,1.9c1.7,1.8,0.1,4.88-2.05,6.12c-2.15,1.24-4.79,1.63-6.62,3.3c-5.78,5.28,2.24,14.97,0.06,22.5
				c-1.41,4.87-7.12,8.75-5.74,13.63c0.55,1.96,2.17,3.4,3.74,4.69c16.31,13.38,35.96,22.64,56.66,26.71
				c1.94,0.38,3.96,0.75,5.55,1.92c4.83,3.57,2.69,11.66,6.25,16.5c2.94,3.98,8.63,4.42,13.58,4.51c6.54,0.11,13.57,0.06,18.89-3.74
				c2.01-1.44,3.68-3.37,5.91-4.43c6.75-3.22,14.41,3.06,17.56,9.85c0.84,1.81,1.57,3.74,3.02,5.1c5.34,4.99,13.88-1.65,21.12-0.62
				c5.38,0.77,9.05,5.6,13.05,9.29c4,3.69,10.56,6.36,14.56,2.68c2.07-1.9,2.71-4.97,4.67-6.98c6.48-6.67,17.94,3.57,26.72,0.51
				c6.99-2.43,11.48-12.96,18.44-10.46c3.17-4.8-5.75-12.97-0.79-15.87c1.11-0.65,2.49-0.55,3.73-0.9c2.79-0.78,4.39-4.21,3.47-6.9
				c8.34-14.53,25.25-21.76,41.37-25.11c16.94-3.52,34.44-4.06,51.55-1.59c18.25,2.64,38.69,8.17,53.72-2.94
				c14.01-10.36,16.66-30.45,19.26-48.16C1938.4,235.73,1971.77,160.82,1966.94,82.53z"/>
		</g>
	</g>
	<g>
		<g>
			<path class="st10" d="M443.91,774.3c2.05-5.95,1.02-12.17-3.41-17.3c-4.09-4.87-12.27-6.76-16.02-11.62
				c-1.02,1.89-2.05,4.06-3.07,5.95c9.89-1.62,19.77,0.27,28.29,4.87c2.05,1.08,5.8,0.54,7.16-1.35c2.73-4.87,7.5-8.38,13.98-10
				c-2.05-0.81-4.09-1.89-6.14-2.7c2.73,6.22,3.41,12.71,2.73,19.19c-0.34,3.51,5.8,5.41,8.86,2.97
				c10.23-8.38,25.23-12.71,39.54-10.81c-0.34-2.43-0.68-4.87-1.36-7.3c-12.61,6.49-21.82,16.22-25.91,27.57
				c-1.7,5.14,8.18,7.3,9.89,2.16c3.41-9.46,10.91-17.57,21.14-22.98c3.41-1.62,3.41-6.76-1.36-7.3
				c-18.07-2.43-36.82,2.16-49.77,12.98c3.07,1.08,5.8,1.89,8.86,2.97c0.68-7.3-0.34-14.33-3.41-21.36
				c-0.68-1.89-3.41-3.51-6.14-2.7c-8.86,2.43-16.02,7.3-20.11,13.79c2.39-0.54,4.77-1.08,7.16-1.35
				c-10.91-5.68-23.52-7.57-36.13-5.68c-3.41,0.54-4.77,3.78-3.07,5.95c3.41,4.33,8.86,6.49,13.64,9.73
				c4.77,3.24,6.48,8.38,5.11,12.98C432.32,777,442.21,779.16,443.91,774.3L443.91,774.3z"/>
		</g>
	</g>
	<g>
		<g>
			<path class="st10" d="M770.91,656.3c2.05-5.95,1.02-12.17-3.41-17.3c-4.09-4.87-12.27-6.76-16.02-11.62
				c-1.02,1.89-2.05,4.06-3.07,5.95c9.89-1.62,19.77,0.27,28.29,4.87c2.05,1.08,5.8,0.54,7.16-1.35c2.73-4.87,7.5-8.38,13.98-10
				c-2.05-0.81-4.09-1.89-6.14-2.7c2.73,6.22,3.41,12.71,2.73,19.19c-0.34,3.51,5.8,5.41,8.86,2.97
				c10.23-8.38,25.23-12.71,39.54-10.81c-0.34-2.43-0.68-4.87-1.36-7.3c-12.61,6.49-21.82,16.22-25.91,27.57
				c-1.7,5.14,8.18,7.3,9.89,2.16c3.41-9.46,10.91-17.57,21.14-22.98c3.41-1.62,3.41-6.76-1.36-7.3
				c-18.07-2.43-36.82,2.16-49.77,12.98c3.07,1.08,5.8,1.89,8.86,2.97c0.68-7.3-0.34-14.33-3.41-21.36
				c-0.68-1.89-3.41-3.51-6.14-2.7c-8.86,2.43-16.02,7.3-20.11,13.79c2.39-0.54,4.77-1.08,7.16-1.35
				c-10.91-5.68-23.52-7.57-36.14-5.68c-3.41,0.54-4.77,3.78-3.07,5.95c3.41,4.33,8.86,6.49,13.64,9.73
				c4.77,3.24,6.48,8.38,5.11,12.98C759.32,659,769.21,661.16,770.91,656.3L770.91,656.3z"/>
		</g>
	</g>
	<g>
		<g>
			<path class="st10" d="M980.91,807.3c2.05-5.95,1.02-12.17-3.41-17.3c-4.09-4.87-12.27-6.76-16.02-11.62
				c-1.02,1.89-2.05,4.06-3.07,5.95c9.89-1.62,19.77,0.27,28.29,4.87c2.05,1.08,5.8,0.54,7.16-1.35c2.73-4.87,7.5-8.38,13.98-10
				c-2.05-0.81-4.09-1.89-6.14-2.7c2.73,6.22,3.41,12.71,2.73,19.19c-0.34,3.51,5.8,5.41,8.86,2.97
				c10.23-8.38,25.23-12.71,39.54-10.81c-0.34-2.43-0.68-4.87-1.36-7.3c-12.61,6.49-21.82,16.22-25.91,27.57
				c-1.7,5.14,8.18,7.3,9.89,2.16c3.41-9.46,10.91-17.57,21.14-22.98c3.41-1.62,3.41-6.76-1.36-7.3
				c-18.07-2.43-36.82,2.16-49.77,12.98c3.07,1.08,5.8,1.89,8.86,2.97c0.68-7.3-0.34-14.33-3.41-21.36
				c-0.68-1.89-3.41-3.51-6.14-2.7c-8.86,2.43-16.02,7.3-20.11,13.79c2.39-0.54,4.77-1.08,7.16-1.35
				c-10.91-5.68-23.52-7.57-36.14-5.68c-3.41,0.54-4.77,3.78-3.07,5.95c3.41,4.33,8.86,6.49,13.64,9.73
				c4.77,3.24,6.48,8.38,5.11,12.98C969.32,810,979.21,812.16,980.91,807.3L980.91,807.3z"/>
		</g>
	</g>
	<g>
		<g>
			<path class="st10" d="M1441.91,795.3c2.05-5.95,1.02-12.17-3.41-17.3c-4.09-4.87-12.27-6.76-16.02-11.62
				c-1.02,1.89-2.05,4.06-3.07,5.95c9.89-1.62,19.77,0.27,28.29,4.87c2.05,1.08,5.8,0.54,7.16-1.35c2.73-4.87,7.5-8.38,13.98-10
				c-2.05-0.81-4.09-1.89-6.14-2.7c2.73,6.22,3.41,12.71,2.73,19.19c-0.34,3.51,5.8,5.41,8.86,2.97
				c10.23-8.38,25.23-12.71,39.54-10.81c-0.34-2.43-0.68-4.87-1.36-7.3c-12.61,6.49-21.82,16.22-25.91,27.57
				c-1.7,5.14,8.18,7.3,9.89,2.16c3.41-9.46,10.91-17.57,21.14-22.98c3.41-1.62,3.41-6.76-1.36-7.3
				c-18.07-2.43-36.82,2.16-49.77,12.98c3.07,1.08,5.8,1.89,8.86,2.97c0.68-7.3-0.34-14.33-3.41-21.36
				c-0.68-1.89-3.41-3.51-6.14-2.7c-8.86,2.43-16.02,7.3-20.11,13.79c2.39-0.54,4.77-1.08,7.16-1.35
				c-10.91-5.68-23.52-7.57-36.14-5.68c-3.41,0.54-4.77,3.78-3.07,5.95c3.41,4.33,8.86,6.49,13.64,9.73
				c4.77,3.24,6.48,8.38,5.11,12.98C1430.32,798,1440.21,800.16,1441.91,795.3L1441.91,795.3z"/>
		</g>
	</g>
	<g>
		<g>
			<path class="st10" d="M61.91,666.3c2.05-5.95,1.02-12.17-3.41-17.3c-4.09-4.87-12.27-6.76-16.02-11.62
				c-1.02,1.89-2.05,4.06-3.07,5.95c9.89-1.62,19.77,0.27,28.29,4.87c2.05,1.08,5.8,0.54,7.16-1.35c2.73-4.87,7.5-8.38,13.98-10
				c-2.05-0.81-4.09-1.89-6.14-2.7c2.73,6.22,3.41,12.71,2.73,19.19c-0.34,3.51,5.8,5.41,8.86,2.97
				c10.23-8.38,25.23-12.71,39.54-10.81c-0.34-2.43-0.68-4.87-1.36-7.3c-12.61,6.49-21.82,16.22-25.91,27.57
				c-1.7,5.14,8.18,7.3,9.89,2.16c3.41-9.46,10.91-17.57,21.14-22.98c3.41-1.62,3.41-6.76-1.36-7.3
				c-18.07-2.43-36.82,2.16-49.77,12.98c3.07,1.08,5.8,1.89,8.86,2.97c0.68-7.3-0.34-14.33-3.41-21.36
				c-0.68-1.89-3.41-3.51-6.14-2.7c-8.86,2.43-16.02,7.3-20.11,13.79c2.39-0.54,4.77-1.08,7.16-1.35
				c-10.91-5.68-23.52-7.57-36.13-5.68c-3.41,0.54-4.77,3.78-3.07,5.95c3.41,4.33,8.86,6.49,13.64,9.73
				c4.77,3.24,6.48,8.38,5.11,12.98C50.32,669,60.21,671.16,61.91,666.3L61.91,666.3z"/>
		</g>
	</g>
	<g>
		<path class="st11" d="M1920,1016c-322.74-22.72-645.41-33.05-968-31c-321.42,2.04-642.75,16.38-964,43c1-20,2-40,3-60
			c319.64-18.08,639.3-27.75,959-29c323.3-1.27,646.63,6.06,970,22C1920,979.33,1920,997.67,1920,1016z"/>
		<polygon class="st12" points="137,587 93.7,662 94,662 94,1077 180,1077 180,662 180.3,662 		"/>
		<path class="st11" d="M344,598c-9.33,29.67-18.67,59.33-28,89v382h80V687C378.67,657.33,361.33,627.67,344,598z"/>
		<path class="st11" d="M579,1068c-25.67,0.33-51.33,0.67-77,1c-10-54.67-20-109.33-30-164c24-6,48-12,72-18
			C555.67,947.33,567.33,1007.67,579,1068z"/>
		<path class="st11" d="M762,818c-20,25-40,50-60,75v176h65V893C765.33,868,763.67,843,762,818z"/>
		<path class="st11" d="M1150.9,851c-19.97-19.33-39.93-38.67-59.9-58c-0.77,19.33-1.53,38.67-2.3,58c0.1,0,0.2,0.01,0.3,0.01V1069
			h65V851H1150.9z"/>
		<polygon class="st11" points="1290.67,654 1242.1,579.5 1193.52,654 1193,654 1193,1069 1291,1069 1291,654 		"/>
		<polygon class="st11" points="1437.71,664 1395.1,589.5 1352.48,664 1352,664 1352,1071 1438,1071 1438,664 		"/>
		<path class="st11" d="M1584.59,672c-12.2-28.33-24.39-56.67-36.59-85c-16.5,28.33-33.01,56.67-49.51,85H1497v397h88V672H1584.59z"
			/>
		<polygon class="st11" points="1723.8,659.5 1723,658.11 1723,657 1722.36,657 1680.5,584.5 1638.64,657 1637,657 1637,1069 
			1723,1069 1723,659.5 		"/>
		<polygon class="st11" points="1870.71,668 1823.6,587 1776.49,668 1776,668 1776,1071 1871,1071 1871,668 		"/>
		<path class="st11" d="M1694.73,976.37c-145.56-71.19-291.11-142.38-436.67-213.57c-1.02-19.6-2.04-39.2-3.06-58.8
			c67.84,34.91,135.68,69.81,203.52,104.72c85.12,43.8,170.24,87.6,255.36,131.39C1707.49,952.2,1701.11,964.29,1694.73,976.37z"/>
		
			<rect x="1836" y="777" transform="matrix(0.8443 -0.5359 0.5359 0.8443 -130.9589 1135.3419)" class="st11" width="104" height="32"/>
	</g>
	<g>
		<g>
			<path class="st13" d="M1776.96,959.03c-2.08-0.37-4.16-0.74-6.24-1.11c-0.71-13.42-0.98-27.44-0.69-42.01
				c0.59-29.9,3.47-57.64,7.62-82.91c2.19,22.42,3.34,46.83,2.77,72.96C1780.01,924.64,1778.77,942.36,1776.96,959.03z"/>
			<path class="st14" d="M1771.6,988.08l-10.33,0.91c-4.4-15.46-8.25-34.54-9.26-56.49c-1.02-22.22,1.12-41.68,4.16-57.49
				c0.23-0.92,0.46-1.84,0.69-2.76c3.39,26.61,4.5,46.19,4.85,59.7c0.18,7,0.34,19.7,4.16,36.48
				C1767.75,976.71,1769.95,983.47,1771.6,988.08z"/>
			<path class="st15" d="M1752.01,1054.1L1752.01,1054.1c11.97-25.07,18.45-45.99,22.18-60.8c4.42-17.56,5.76-29.62,13.86-50.3
				c1.93-4.92,6.19-15.33,16.63-34.27c9.69-17.58,23.95-41.16,44.35-68.54c-14.86,12.89-34.65,32.66-51.28,59.7
				c-5.53,8.98-11.95,20.79-19.4,39.8C1768.58,964.59,1756.61,1002.95,1752.01,1054.1z"/>
			<path class="st16" d="M1743,1074c1.78-9.88,6.27-25.13,18.71-40.9c23.45-29.72,59.07-40.87,71.38-44.22
				c-15.19,8.78-34.14,21.52-52.67,39.25C1762.92,1044.86,1751.02,1061.05,1743,1074z"/>
			<path class="st16" d="M1901,939.13c-0.01-0.2-35.78-5.4-72.76,7.74c-30.38,10.79-48.69,29.38-58.45,41.61
				c0.34,0.25,0.67,0.5,1.01,0.76c11.73-14.3,29.88-31.18,57.44-41.26C1864.74,934.62,1901.01,939.33,1901,939.13z"/>
			<path class="st16" d="M1834.47,927.52c-0.1-0.09-22.53,3.91-37.02,16.48c-11.9,10.33-13.38,22.07-13.08,29.38
				c0.31,0.06,0.61,0.11,0.92,0.17c-0.18-8.61,2.02-19.54,12.68-29.04C1812.09,931.92,1834.57,927.61,1834.47,927.52z"/>
			
				<ellipse transform="matrix(0.954 -0.2999 0.2999 0.954 -210.1388 579.9985)" class="st17" cx="1784.57" cy="974.63" rx="5.38" ry="2.85"/>
			
				<ellipse transform="matrix(0.8778 -0.479 0.479 0.8778 -246.1094 976.2162)" class="st18" cx="1790.51" cy="970.53" rx="5.15" ry="2.98"/>
			
				<ellipse transform="matrix(0.3114 -0.9503 0.9503 0.3114 318.0432 2369.5842)" class="st17" cx="1794.01" cy="965.35" rx="4.48" ry="3.42"/>
			
				<ellipse transform="matrix(0.3114 -0.9503 0.9503 0.3114 383.4856 2403.5129)" class="st17" cx="1850.14" cy="937.15" rx="4.48" ry="3.42"/>
			
				<ellipse transform="matrix(0.6189 -0.7854 0.7854 0.6189 -38.4133 1801.7664)" class="st17" cx="1837.67" cy="940.47" rx="4.69" ry="3.27"/>
			
				<ellipse transform="matrix(0.6189 -0.7854 0.7854 0.6189 -24.2071 1821.0983)" class="st17" cx="1864.7" cy="935.5" rx="4.69" ry="3.27"/>
			
				<ellipse transform="matrix(0.3114 -0.9503 0.9503 0.3114 325.2134 2370.9399)" class="st18" cx="1798.53" cy="961.08" rx="4.48" ry="3.42"/>
			
				<ellipse transform="matrix(0.8549 -0.5188 0.5188 0.8549 -237.1119 1067.8363)" class="st18" cx="1790.22" cy="957.76" rx="5.09" ry="3.01"/>
			
				<ellipse transform="matrix(0.9994 -0.0339 0.0339 0.9994 -30.9907 62.947)" class="st18" cx="1840.11" cy="945.05" rx="5.54" ry="2.76"/>
			
				<ellipse transform="matrix(0.9994 -0.0339 0.0339 0.9994 -30.8906 63.3214)" class="st18" cx="1851.2" cy="942.28" rx="5.54" ry="2.76"/>
			
				<ellipse transform="matrix(0.7794 -0.6265 0.6265 0.7794 -202.1975 1343.1122)" class="st19" cx="1806.12" cy="958.68" rx="6.2" ry="3.08"/>
			
				<ellipse transform="matrix(0.7585 -0.6517 0.6517 0.7585 -192.4865 1393.506)" class="st19" cx="1783.94" cy="956.46" rx="3.21" ry="5.95"/>
			
				<ellipse transform="matrix(0.9419 -0.336 0.336 0.9419 -211.1725 670.4576)" class="st19" cx="1832" cy="945.51" rx="5.34" ry="2.87"/>
			
				<ellipse transform="matrix(0.9419 -0.336 0.336 0.9419 -209.1878 674.1907)" class="st19" cx="1843.78" cy="941.64" rx="5.34" ry="2.87"/>
			
				<ellipse transform="matrix(0.9782 -0.2077 0.2077 0.9782 -157.8341 393.8998)" class="st19" cx="1797.32" cy="948.75" rx="5.46" ry="2.73"/>
			
				<ellipse transform="matrix(0.2261 -0.9741 0.9741 0.2261 530.5229 2545.5347)" class="st19" cx="1867.34" cy="938.87" rx="2.81" ry="5.45"/>
			
				<ellipse transform="matrix(0.3114 -0.9503 0.9503 0.3114 353.3733 2359.8667)" class="st19" cx="1804.97" cy="936.11" rx="4.48" ry="3.42"/>
			
				<ellipse transform="matrix(0.954 -0.2999 0.2999 0.954 -203.3176 588.3768)" class="st17" cx="1815.28" cy="956.6" rx="5.38" ry="2.85"/>
			
				<ellipse transform="matrix(0.0587 -0.9983 0.9983 0.0587 772.4731 2720.9561)" class="st17" cx="1829.01" cy="950.88" rx="2.77" ry="5.54"/>
			
				<ellipse transform="matrix(0.9452 -0.3264 0.3264 0.9452 -210.612 646.0657)" class="st17" cx="1819.96" cy="950.65" rx="6.48" ry="2.86"/>
			
				<ellipse transform="matrix(0.7514 -0.6598 0.6598 0.7514 -183.0089 1417.7222)" class="st17" cx="1790.16" cy="951.76" rx="5.94" ry="3.12"/>
			
				<ellipse transform="matrix(0.9803 -0.1976 0.1976 0.9803 -148.8809 385.7181)" class="st17" cx="1858.77" cy="939.05" rx="6.62" ry="2.8"/>
			
				<ellipse transform="matrix(0.8541 -0.52 0.52 0.8541 -227.1372 1074.8905)" class="st17" cx="1802.64" cy="942.36" rx="6.19" ry="2.99"/>
			
				<ellipse transform="matrix(0.6189 -0.7854 0.7854 0.6189 -58.0674 1786.0498)" class="st18" cx="1811.65" cy="952.87" rx="4.69" ry="3.27"/>
			
				<ellipse transform="matrix(0.6189 -0.7854 0.7854 0.6189 -46.1877 1794.9413)" class="st18" cx="1826.75" cy="945.07" rx="4.69" ry="3.27"/>
			
				<ellipse transform="matrix(0.9789 -0.2043 0.2043 0.9789 -153.6638 389.635)" class="st18" cx="1810.12" cy="938.99" rx="5.46" ry="2.8"/>
			
				<ellipse transform="matrix(0.3114 -0.9503 0.9503 0.3114 338.904 2356.7178)" class="st18" cx="1795.57" cy="944.52" rx="4.48" ry="3.42"/>
			
				<ellipse transform="matrix(0.9613 -0.2756 0.2756 0.9613 -196.9777 533.3643)" class="st19" cx="1799.22" cy="967.53" rx="5.4" ry="2.84"/>
			
				<ellipse transform="matrix(0.9834 -0.1815 0.1815 0.9834 -144.9417 343.4492)" class="st17" cx="1804.43" cy="963.81" rx="5.48" ry="2.8"/>
		</g>
		<g>
			<path class="st13" d="M366.04,956.03c2.08-0.37,4.16-0.74,6.24-1.11c0.71-13.42,0.98-27.44,0.69-42.01
				c-0.59-29.9-3.47-57.64-7.62-82.91c-2.19,22.42-3.34,46.83-2.77,72.96C362.99,921.64,364.23,939.36,366.04,956.03z"/>
			<path class="st14" d="M371.4,985.08l10.33,0.91c4.4-15.46,8.25-34.54,9.26-56.49c1.02-22.22-1.12-41.68-4.16-57.49
				c-0.23-0.92-0.46-1.84-0.69-2.76c-3.39,26.61-4.5,46.19-4.85,59.7c-0.18,7-0.34,19.7-4.16,36.48
				C375.25,973.71,373.05,980.47,371.4,985.08z"/>
			<path class="st15" d="M390.99,1051.1L390.99,1051.1c-11.97-25.07-18.45-45.99-22.18-60.8c-4.42-17.56-5.76-29.62-13.86-50.3
				c-1.93-4.92-6.19-15.33-16.63-34.27c-9.69-17.58-23.95-41.16-44.35-68.54c14.86,12.89,34.65,32.66,51.28,59.7
				c5.53,8.98,11.95,20.79,19.4,39.8C374.42,961.59,386.39,999.95,390.99,1051.1z"/>
			<path class="st16" d="M400,1071c-1.78-9.88-6.27-25.13-18.71-40.9c-23.45-29.72-59.07-40.87-71.38-44.22
				c15.19,8.78,34.14,21.52,52.67,39.25C380.08,1041.86,391.98,1058.05,400,1071z"/>
			<path class="st16" d="M242,936.13c0.01-0.2,35.78-5.4,72.76,7.74c30.38,10.79,48.69,29.38,58.45,41.61
				c-0.34,0.25-0.67,0.5-1.01,0.76c-11.73-14.3-29.88-31.18-57.44-41.26C278.25,931.62,241.99,936.33,242,936.13z"/>
			<path class="st16" d="M308.53,924.52c0.1-0.09,22.53,3.91,37.02,16.48c11.9,10.33,13.38,22.07,13.08,29.38
				c-0.31,0.06-0.61,0.11-0.92,0.17c0.18-8.61-2.02-19.54-12.68-29.04C330.91,928.92,308.43,924.61,308.53,924.52z"/>
			
				<ellipse transform="matrix(0.2999 -0.954 0.954 0.2999 -675.9716 1022.2006)" class="st17" cx="358.43" cy="971.63" rx="2.85" ry="5.38"/>
			
				<ellipse transform="matrix(0.479 -0.8778 0.8778 0.479 -665.6636 813.5151)" class="st18" cx="352.49" cy="967.53" rx="2.98" ry="5.15"/>
			
				<ellipse transform="matrix(0.9503 -0.3114 0.3114 0.9503 -282.3033 156.5085)" class="st17" cx="348.99" cy="962.35" rx="3.42" ry="4.48"/>
			
				<ellipse transform="matrix(0.9503 -0.3114 0.3114 0.9503 -276.316 137.6289)" class="st17" cx="292.86" cy="934.15" rx="3.42" ry="4.48"/>
			
				<ellipse transform="matrix(0.7854 -0.6189 0.6189 0.7854 -514.7228 390.1201)" class="st17" cx="305.33" cy="937.47" rx="3.27" ry="4.69"/>
			
				<ellipse transform="matrix(0.7854 -0.6189 0.6189 0.7854 -517.4424 372.3252)" class="st17" cx="278.3" cy="932.5" rx="3.27" ry="4.69"/>
			
				<ellipse transform="matrix(0.9503 -0.3114 0.3114 0.9503 -281.1986 154.8887)" class="st18" cx="344.47" cy="958.08" rx="3.42" ry="4.48"/>
			
				<ellipse transform="matrix(0.5188 -0.8549 0.8549 0.5188 -646.4514 760.9747)" class="st18" cx="352.78" cy="954.76" rx="3.01" ry="5.09"/>
			
				<ellipse transform="matrix(0.0339 -0.9994 0.9994 0.0339 -648.8882 1212.8119)" class="st18" cx="302.89" cy="942.05" rx="2.76" ry="5.54"/>
			
				<ellipse transform="matrix(0.0339 -0.9994 0.9994 0.0339 -656.8378 1199.0604)" class="st18" cx="291.8" cy="939.28" rx="2.76" ry="5.54"/>
			
				<ellipse transform="matrix(0.6265 -0.7794 0.7794 0.6265 -619.0286 619.4637)" class="st19" cx="336.88" cy="955.68" rx="3.08" ry="6.2"/>
			
				<ellipse transform="matrix(0.6517 -0.7585 0.7585 0.6517 -598.1378 604.4767)" class="st19" cx="359.06" cy="953.46" rx="5.95" ry="3.21"/>
			
				<ellipse transform="matrix(0.336 -0.9419 0.9419 0.336 -681.2067 918.7747)" class="st19" cx="311" cy="942.51" rx="2.87" ry="5.34"/>
			
				<ellipse transform="matrix(0.336 -0.9419 0.9419 0.336 -685.385 905.1095)" class="st19" cx="299.22" cy="938.64" rx="2.87" ry="5.34"/>
			
				<ellipse transform="matrix(0.2077 -0.9782 0.9782 0.2077 -651.2387 1087.507)" class="st19" cx="345.68" cy="945.75" rx="2.73" ry="5.46"/>
			
				<ellipse transform="matrix(0.9741 -0.2261 0.2261 0.9741 -204.4903 86.5774)" class="st19" cx="275.66" cy="935.87" rx="5.45" ry="2.81"/>
			
				<ellipse transform="matrix(0.9503 -0.3114 0.3114 0.9503 -273.7446 151.6424)" class="st19" cx="338.03" cy="933.11" rx="3.42" ry="4.48"/>
			
				<ellipse transform="matrix(0.2999 -0.954 0.954 0.2999 -680.2661 980.2803)" class="st17" cx="327.72" cy="953.6" rx="2.85" ry="5.38"/>
			
				<ellipse transform="matrix(0.9983 -0.0587 0.0587 0.9983 -55.0671 20.0528)" class="st17" cx="313.99" cy="947.88" rx="5.54" ry="2.77"/>
			
				<ellipse transform="matrix(0.3264 -0.9452 0.9452 0.3264 -678.1535 943.7034)" class="st17" cx="323.04" cy="947.65" rx="2.86" ry="6.48"/>
			
				<ellipse transform="matrix(0.6598 -0.7514 0.7514 0.6598 -592.9008 587.9019)" class="st17" cx="352.84" cy="948.76" rx="3.12" ry="5.94"/>
			
				<ellipse transform="matrix(0.1976 -0.9803 0.9803 0.1976 -689.5179 1029.7543)" class="st17" cx="284.23" cy="936.05" rx="2.8" ry="6.62"/>
			
				<ellipse transform="matrix(0.52 -0.8541 0.8541 0.52 -638.9884 741.5768)" class="st17" cx="340.36" cy="939.36" rx="2.99" ry="6.19"/>
			
				<ellipse transform="matrix(0.7854 -0.6189 0.6189 0.7854 -516.812 408.8873)" class="st18" cx="331.35" cy="949.87" rx="3.27" ry="4.69"/>
			
				<ellipse transform="matrix(0.7854 -0.6189 0.6189 0.7854 -515.2264 397.8664)" class="st18" cx="316.25" cy="942.07" rx="3.27" ry="4.69"/>
			
				<ellipse transform="matrix(0.2043 -0.9789 0.9789 0.2043 -651.3768 1070.6171)" class="st18" cx="332.88" cy="935.99" rx="2.8" ry="5.46"/>
			
				<ellipse transform="matrix(0.9503 -0.3114 0.3114 0.9503 -275.8954 154.9896)" class="st18" cx="347.43" cy="941.52" rx="3.42" ry="4.48"/>
			
				<ellipse transform="matrix(0.2756 -0.9613 0.9613 0.2756 -678.139 1029.1569)" class="st19" cx="343.78" cy="964.53" rx="2.84" ry="5.4"/>
			
				<ellipse transform="matrix(0.1815 -0.9834 0.9834 0.1815 -667.7291 1119.4016)" class="st17" cx="338.57" cy="960.81" rx="2.8" ry="5.48"/>
		</g>
		<g>
			<path class="st13" d="M74.96,972.03c-2.08-0.37-4.16-0.74-6.24-1.11c-0.71-13.42-0.98-27.44-0.69-42.01
				c0.59-29.9,3.47-57.64,7.62-82.91c2.19,22.42,3.34,46.83,2.77,72.96C78.01,937.64,76.77,955.36,74.96,972.03z"/>
			<path class="st14" d="M69.6,1001.08l-10.33,0.91c-4.4-15.46-8.25-34.54-9.26-56.49c-1.02-22.22,1.12-41.68,4.16-57.49
				c0.23-0.92,0.46-1.84,0.69-2.76c3.39,26.61,4.5,46.19,4.85,59.7c0.18,7,0.34,19.7,4.16,36.48
				C65.75,989.71,67.95,996.47,69.6,1001.08z"/>
			<path class="st15" d="M50.01,1067.1L50.01,1067.1c11.97-25.07,18.45-45.99,22.18-60.8c4.42-17.56,5.76-29.62,13.86-50.3
				c1.93-4.92,6.19-15.33,16.63-34.27c9.69-17.58,23.95-41.16,44.35-68.54c-14.86,12.89-34.65,32.66-51.28,59.7
				c-5.53,8.98-11.95,20.79-19.4,39.8C66.58,977.59,54.61,1015.95,50.01,1067.1z"/>
			<path class="st16" d="M41,1087c1.78-9.88,6.27-25.13,18.71-40.9c23.45-29.72,59.07-40.87,71.38-44.22
				c-15.19,8.78-34.14,21.52-52.67,39.25C60.92,1057.86,49.02,1074.05,41,1087z"/>
			<path class="st16" d="M199,952.13c-0.01-0.2-35.78-5.4-72.76,7.74c-30.38,10.79-48.69,29.38-58.45,41.61
				c0.34,0.25,0.67,0.5,1.01,0.76c11.73-14.3,29.88-31.18,57.44-41.26C162.75,947.62,199.01,952.33,199,952.13z"/>
			<path class="st16" d="M132.47,940.52c-0.1-0.09-22.53,3.91-37.02,16.48c-11.9,10.33-13.38,22.07-13.08,29.38
				c0.31,0.06,0.61,0.11,0.92,0.17c-0.18-8.61,2.02-19.54,12.68-29.04C110.09,944.92,132.57,940.61,132.47,940.52z"/>
			
				<ellipse transform="matrix(0.954 -0.2999 0.2999 0.954 -292.3648 70.2125)" class="st17" cx="82.57" cy="987.63" rx="5.38" ry="2.85"/>
			
				<ellipse transform="matrix(0.8778 -0.479 0.479 0.8778 -460.2868 162.5621)" class="st18" cx="88.51" cy="983.53" rx="5.15" ry="2.98"/>
			
				<ellipse transform="matrix(0.3114 -0.9503 0.9503 0.3114 -866.3459 761.1492)" class="st17" cx="92.01" cy="978.35" rx="4.48" ry="3.42"/>
			
				<ellipse transform="matrix(0.3114 -0.9503 0.9503 0.3114 -800.9035 795.0778)" class="st17" cx="148.14" cy="950.15" rx="4.48" ry="3.42"/>
			
				<ellipse transform="matrix(0.6189 -0.7854 0.7854 0.6189 -697.1976 469.8968)" class="st17" cx="135.67" cy="953.47" rx="4.69" ry="3.27"/>
			
				<ellipse transform="matrix(0.6189 -0.7854 0.7854 0.6189 -682.9915 489.2287)" class="st17" cx="162.7" cy="948.5" rx="4.69" ry="3.27"/>
			
				<ellipse transform="matrix(0.3114 -0.9503 0.9503 0.3114 -859.1757 762.5048)" class="st18" cx="96.53" cy="974.08" rx="4.48" ry="3.42"/>
			
				<ellipse transform="matrix(0.8549 -0.5188 0.5188 0.8549 -490.8663 186.6562)" class="st18" cx="88.22" cy="970.76" rx="5.09" ry="3.01"/>
			
				<ellipse transform="matrix(0.9994 -0.0339 0.0339 0.9994 -32.4106 5.2349)" class="st18" cx="138.11" cy="958.05" rx="5.54" ry="2.76"/>
			
				<ellipse transform="matrix(0.9994 -0.0339 0.0339 0.9994 -32.3105 5.6093)" class="st18" cx="149.2" cy="955.28" rx="5.54" ry="2.76"/>
			
				<ellipse transform="matrix(0.7794 -0.6265 0.6265 0.7794 -585.8295 279.5999)" class="st19" cx="104.12" cy="971.68" rx="6.2" ry="3.08"/>
			
				<ellipse transform="matrix(0.7585 -0.6517 0.6517 0.7585 -611.9763 287.5151)" class="st19" cx="81.94" cy="969.46" rx="3.21" ry="5.95"/>
			
				<ellipse transform="matrix(0.9419 -0.336 0.336 0.9419 -314.4731 99.3915)" class="st19" cx="130" cy="958.51" rx="5.34" ry="2.87"/>
			
				<ellipse transform="matrix(0.9419 -0.336 0.336 0.9419 -312.4884 103.1245)" class="st19" cx="141.78" cy="954.64" rx="5.34" ry="2.87"/>
			
				<ellipse transform="matrix(0.9782 -0.2077 0.2077 0.9782 -197.6329 40.7575)" class="st19" cx="95.32" cy="961.75" rx="5.46" ry="2.73"/>
			
				<ellipse transform="matrix(0.2261 -0.9741 0.9741 0.2261 -799.2637 897.6824)" class="st19" cx="165.34" cy="951.87" rx="2.81" ry="5.45"/>
			
				<ellipse transform="matrix(0.3114 -0.9503 0.9503 0.3114 -831.0158 751.4315)" class="st19" cx="102.97" cy="949.11" rx="4.48" ry="3.42"/>
			
				<ellipse transform="matrix(0.954 -0.2999 0.2999 0.954 -285.5436 78.5908)" class="st17" cx="113.28" cy="969.6" rx="5.38" ry="2.85"/>
			
				<ellipse transform="matrix(0.0587 -0.9983 0.9983 0.0587 -842.6554 1034.1248)" class="st17" cx="127.01" cy="963.88" rx="2.77" ry="5.54"/>
			
				<ellipse transform="matrix(0.9452 -0.3264 0.3264 0.9452 -308.0609 91.2728)" class="st17" cx="117.96" cy="963.65" rx="6.48" ry="2.86"/>
			
				<ellipse transform="matrix(0.7514 -0.6598 0.6598 0.7514 -614.6359 297.9709)" class="st17" cx="88.16" cy="964.76" rx="5.94" ry="3.12"/>
			
				<ellipse transform="matrix(0.9803 -0.1976 0.1976 0.9803 -184.9928 49.7339)" class="st17" cx="156.77" cy="952.05" rx="6.62" ry="2.8"/>
			
				<ellipse transform="matrix(0.8541 -0.52 0.52 0.8541 -482.1465 191.6814)" class="st17" cx="100.64" cy="955.36" rx="6.19" ry="2.99"/>
			
				<ellipse transform="matrix(0.6189 -0.7854 0.7854 0.6189 -716.8517 454.1803)" class="st18" cx="109.65" cy="965.87" rx="4.69" ry="3.27"/>
			
				<ellipse transform="matrix(0.6189 -0.7854 0.7854 0.6189 -704.972 463.0717)" class="st18" cx="124.75" cy="958.07" rx="4.69" ry="3.27"/>
			
				<ellipse transform="matrix(0.9789 -0.2043 0.2043 0.9789 -192.2219 42.1712)" class="st18" cx="108.12" cy="951.99" rx="5.46" ry="2.8"/>
			
				<ellipse transform="matrix(0.3114 -0.9503 0.9503 0.3114 -845.4851 748.2827)" class="st18" cx="93.57" cy="957.52" rx="4.48" ry="3.42"/>
			
				<ellipse transform="matrix(0.9613 -0.2756 0.2756 0.9613 -266.4821 64.7721)" class="st19" cx="97.22" cy="980.53" rx="5.4" ry="2.84"/>
			
				<ellipse transform="matrix(0.9834 -0.1815 0.1815 0.9834 -175.5594 34.8062)" class="st17" cx="102.43" cy="976.81" rx="5.48" ry="2.8"/>
		</g>
		<g>
			<path class="st13" d="M876.96,962.03c-2.08-0.37-4.16-0.74-6.24-1.11c-0.71-13.42-0.98-27.44-0.69-42.01
				c0.59-29.9,3.47-57.64,7.62-82.91c2.19,22.42,3.34,46.83,2.77,72.96C880.01,927.64,878.77,945.36,876.96,962.03z"/>
			<path class="st14" d="M871.6,991.08l-10.33,0.91c-4.4-15.46-8.25-34.54-9.26-56.49c-1.02-22.22,1.12-41.68,4.16-57.49
				c0.23-0.92,0.46-1.84,0.69-2.76c3.39,26.61,4.5,46.19,4.85,59.7c0.18,7,0.34,19.7,4.16,36.48
				C867.75,979.71,869.95,986.47,871.6,991.08z"/>
			<path class="st15" d="M852.01,1057.1L852.01,1057.1c11.97-25.07,18.45-45.99,22.18-60.8c4.42-17.56,5.76-29.62,13.86-50.3
				c1.93-4.92,6.19-15.33,16.63-34.27c9.69-17.58,23.95-41.16,44.35-68.54c-14.86,12.89-34.65,32.66-51.28,59.7
				c-5.53,8.98-11.95,20.79-19.4,39.8C868.58,967.59,856.61,1005.95,852.01,1057.1z"/>
			<path class="st16" d="M843,1077c1.78-9.88,6.27-25.13,18.71-40.9c23.45-29.72,59.07-40.87,71.38-44.22
				c-15.19,8.78-34.14,21.52-52.67,39.25C862.92,1047.86,851.02,1064.05,843,1077z"/>
			<path class="st16" d="M1001,942.13c-0.01-0.2-35.78-5.4-72.76,7.74c-30.38,10.79-48.69,29.38-58.45,41.61
				c0.34,0.25,0.67,0.5,1.01,0.76c11.73-14.3,29.88-31.18,57.44-41.26C964.75,937.62,1001.01,942.33,1001,942.13z"/>
			<path class="st16" d="M934.47,930.52c-0.1-0.09-22.53,3.91-37.02,16.48c-11.9,10.33-13.38,22.07-13.08,29.38
				c0.31,0.06,0.61,0.11,0.92,0.17c-0.18-8.61,2.02-19.54,12.68-29.04C912.09,934.92,934.57,930.61,934.47,930.52z"/>
			
				<ellipse transform="matrix(0.954 -0.2999 0.2999 0.954 -252.4572 310.2506)" class="st17" cx="884.57" cy="977.63" rx="5.38" ry="2.85"/>
			
				<ellipse transform="matrix(0.8778 -0.479 0.479 0.8778 -357.5085 545.491)" class="st18" cx="890.51" cy="973.53" rx="5.15" ry="2.98"/>
			
				<ellipse transform="matrix(0.3114 -0.9503 0.9503 0.3114 -304.5679 1516.3926)" class="st17" cx="894.01" cy="968.35" rx="4.48" ry="3.42"/>
			
				<ellipse transform="matrix(0.3114 -0.9503 0.9503 0.3114 -239.1255 1550.3212)" class="st17" cx="950.14" cy="940.15" rx="4.48" ry="3.42"/>
			
				<ellipse transform="matrix(0.6189 -0.7854 0.7854 0.6189 -383.7286 1096.0111)" class="st17" cx="937.67" cy="943.47" rx="4.69" ry="3.27"/>
			
				<ellipse transform="matrix(0.6189 -0.7854 0.7854 0.6189 -369.5224 1115.343)" class="st17" cx="964.7" cy="938.5" rx="4.69" ry="3.27"/>
			
				<ellipse transform="matrix(0.3114 -0.9503 0.9503 0.3114 -297.3976 1517.7482)" class="st18" cx="898.53" cy="964.08" rx="4.48" ry="3.42"/>
			
				<ellipse transform="matrix(0.8549 -0.5188 0.5188 0.8549 -369.2845 601.3151)" class="st18" cx="890.22" cy="960.76" rx="5.09" ry="3.01"/>
			
				<ellipse transform="matrix(0.9994 -0.0339 0.0339 0.9994 -31.6101 32.4272)" class="st18" cx="940.11" cy="948.05" rx="5.54" ry="2.76"/>
			
				<ellipse transform="matrix(0.9994 -0.0339 0.0339 0.9994 -31.51 32.8016)" class="st18" cx="951.2" cy="945.28" rx="5.54" ry="2.76"/>
			
				<ellipse transform="matrix(0.7794 -0.6265 0.6265 0.7794 -402.6307 779.8832)" class="st19" cx="906.12" cy="961.68" rx="6.2" ry="3.08"/>
			
				<ellipse transform="matrix(0.7585 -0.6517 0.6517 0.7585 -411.7837 807.7339)" class="st19" cx="883.94" cy="959.46" rx="3.21" ry="5.95"/>
			
				<ellipse transform="matrix(0.9419 -0.336 0.336 0.9419 -264.4952 368.2585)" class="st19" cx="932" cy="948.51" rx="5.34" ry="2.87"/>
			
				<ellipse transform="matrix(0.9419 -0.336 0.336 0.9419 -262.5105 371.9916)" class="st19" cx="943.78" cy="944.64" rx="5.34" ry="2.87"/>
			
				<ellipse transform="matrix(0.9782 -0.2077 0.2077 0.9782 -178.0748 207.0774)" class="st19" cx="897.32" cy="951.75" rx="5.46" ry="2.73"/>
			
				<ellipse transform="matrix(0.2261 -0.9741 0.9741 0.2261 -168.8806 1671.1692)" class="st19" cx="967.34" cy="941.87" rx="2.81" ry="5.45"/>
			
				<ellipse transform="matrix(0.3114 -0.9503 0.9503 0.3114 -269.2378 1506.6749)" class="st19" cx="904.97" cy="939.11" rx="4.48" ry="3.42"/>
			
				<ellipse transform="matrix(0.954 -0.2999 0.2999 0.954 -245.6361 318.6289)" class="st17" cx="915.28" cy="959.6" rx="5.38" ry="2.85"/>
			
				<ellipse transform="matrix(0.0587 -0.9983 0.9983 0.0587 -77.7226 1825.3302)" class="st17" cx="929.01" cy="953.88" rx="2.77" ry="5.54"/>
			
				<ellipse transform="matrix(0.9452 -0.3264 0.3264 0.9452 -260.8774 352.4848)" class="st17" cx="919.96" cy="953.65" rx="6.48" ry="2.86"/>
			
				<ellipse transform="matrix(0.7514 -0.6598 0.6598 0.7514 -408.6926 824.6463)" class="st17" cx="890.16" cy="954.76" rx="5.94" ry="3.12"/>
			
				<ellipse transform="matrix(0.9803 -0.1976 0.1976 0.9803 -167.2111 207.9768)" class="st17" cx="958.77" cy="942.05" rx="6.62" ry="2.8"/>
			
				<ellipse transform="matrix(0.8541 -0.52 0.52 0.8541 -359.9688 607.2936)" class="st17" cx="902.64" cy="945.36" rx="6.19" ry="2.99"/>
			
				<ellipse transform="matrix(0.6189 -0.7854 0.7854 0.6189 -403.3828 1080.2947)" class="st18" cx="911.65" cy="955.87" rx="4.69" ry="3.27"/>
			
				<ellipse transform="matrix(0.6189 -0.7854 0.7854 0.6189 -391.503 1089.186)" class="st18" cx="926.75" cy="948.07" rx="4.69" ry="3.27"/>
			
				<ellipse transform="matrix(0.9789 -0.2043 0.2043 0.9789 -173.2614 205.818)" class="st18" cx="910.12" cy="941.99" rx="5.46" ry="2.8"/>
			
				<ellipse transform="matrix(0.3114 -0.9503 0.9503 0.3114 -283.707 1503.5261)" class="st18" cx="895.57" cy="947.52" rx="4.48" ry="3.42"/>
			
				<ellipse transform="matrix(0.9613 -0.2756 0.2756 0.9613 -232.6631 285.4275)" class="st19" cx="899.22" cy="970.53" rx="5.4" ry="2.84"/>
			
				<ellipse transform="matrix(0.9834 -0.1815 0.1815 0.9834 -160.429 180.1777)" class="st17" cx="904.43" cy="966.81" rx="5.48" ry="2.8"/>
		</g>
		<g>
			<path class="st13" d="M490.96,968.03c-2.08-0.37-4.16-0.74-6.24-1.11c-0.71-13.42-0.98-27.44-0.69-42.01
				c0.59-29.9,3.47-57.64,7.62-82.91c2.19,22.42,3.34,46.83,2.77,72.96C494.01,933.64,492.77,951.36,490.96,968.03z"/>
			<path class="st14" d="M485.6,997.08l-10.33,0.91c-4.4-15.46-8.25-34.54-9.26-56.49c-1.02-22.22,1.12-41.68,4.16-57.49
				c0.23-0.92,0.46-1.84,0.69-2.76c3.39,26.61,4.5,46.19,4.85,59.7c0.18,7,0.34,19.7,4.16,36.48
				C481.75,985.71,483.95,992.47,485.6,997.08z"/>
			<path class="st15" d="M466.01,1063.1L466.01,1063.1c11.97-25.07,18.45-45.99,22.18-60.8c4.42-17.56,5.76-29.62,13.86-50.3
				c1.93-4.92,6.19-15.33,16.63-34.27c9.69-17.58,23.95-41.16,44.35-68.54c-14.86,12.89-34.65,32.66-51.28,59.7
				c-5.53,8.98-11.95,20.79-19.4,39.8C482.58,973.59,470.61,1011.95,466.01,1063.1z"/>
			<path class="st16" d="M457,1083c1.78-9.88,6.27-25.13,18.71-40.9c23.45-29.72,59.07-40.87,71.38-44.22
				c-15.19,8.78-34.14,21.52-52.67,39.25C476.92,1053.86,465.02,1070.05,457,1083z"/>
			<path class="st16" d="M615,948.13c-0.01-0.2-35.78-5.4-72.76,7.74c-30.38,10.79-48.69,29.38-58.45,41.61
				c0.34,0.25,0.67,0.5,1.01,0.76c11.73-14.3,29.88-31.18,57.44-41.26C578.75,943.62,615.01,948.33,615,948.13z"/>
			<path class="st16" d="M548.47,936.52c-0.1-0.09-22.53,3.91-37.02,16.48c-11.9,10.33-13.38,22.07-13.08,29.38
				c0.31,0.06,0.61,0.11,0.92,0.17c-0.18-8.61,2.02-19.54,12.68-29.04C526.09,940.92,548.57,936.61,548.47,936.52z"/>
			
				<ellipse transform="matrix(0.954 -0.2999 0.2999 0.954 -272.0206 194.7757)" class="st17" cx="498.57" cy="983.63" rx="5.38" ry="2.85"/>
			
				<ellipse transform="matrix(0.8778 -0.479 0.479 0.8778 -407.5439 361.3336)" class="st18" cx="504.51" cy="979.53" rx="5.15" ry="2.98"/>
			
				<ellipse transform="matrix(0.3114 -0.9503 0.9503 0.3114 -576.0778 1153.7137)" class="st17" cx="508.01" cy="974.35" rx="4.48" ry="3.42"/>
			
				<ellipse transform="matrix(0.3114 -0.9503 0.9503 0.3114 -510.6354 1187.6423)" class="st17" cx="564.14" cy="946.15" rx="4.48" ry="3.42"/>
			
				<ellipse transform="matrix(0.6189 -0.7854 0.7854 0.6189 -535.5326 795.1167)" class="st17" cx="551.67" cy="949.47" rx="4.69" ry="3.27"/>
			
				<ellipse transform="matrix(0.6189 -0.7854 0.7854 0.6189 -521.3264 814.4486)" class="st17" cx="578.7" cy="944.5" rx="4.69" ry="3.27"/>
			
				<ellipse transform="matrix(0.3114 -0.9503 0.9503 0.3114 -568.9076 1155.0695)" class="st18" cx="512.53" cy="970.08" rx="4.48" ry="3.42"/>
			
				<ellipse transform="matrix(0.8549 -0.5188 0.5188 0.8549 -428.4173 401.9134)" class="st18" cx="504.22" cy="966.76" rx="5.09" ry="3.01"/>
			
				<ellipse transform="matrix(0.9994 -0.0339 0.0339 0.9994 -32.0356 19.3403)" class="st18" cx="554.11" cy="954.05" rx="5.54" ry="2.76"/>
			
				<ellipse transform="matrix(0.9994 -0.0339 0.0339 0.9994 -31.9355 19.7147)" class="st18" cx="565.2" cy="951.28" rx="5.54" ry="2.76"/>
			
				<ellipse transform="matrix(0.7794 -0.6265 0.6265 0.7794 -491.5474 539.3604)" class="st19" cx="520.12" cy="967.68" rx="6.2" ry="3.08"/>
			
				<ellipse transform="matrix(0.7585 -0.6517 0.6517 0.7585 -508.9093 557.6409)" class="st19" cx="497.94" cy="965.46" rx="3.21" ry="5.95"/>
			
				<ellipse transform="matrix(0.9419 -0.336 0.336 0.9419 -288.9482 238.9227)" class="st19" cx="546" cy="954.51" rx="5.34" ry="2.87"/>
			
				<ellipse transform="matrix(0.9419 -0.336 0.336 0.9419 -286.9635 242.6557)" class="st19" cx="557.78" cy="950.64" rx="5.34" ry="2.87"/>
			
				<ellipse transform="matrix(0.9782 -0.2077 0.2077 0.9782 -187.7346 127.054)" class="st19" cx="511.32" cy="957.75" rx="5.46" ry="2.73"/>
			
				<ellipse transform="matrix(0.2261 -0.9741 0.9741 0.2261 -473.4382 1299.8112)" class="st19" cx="581.34" cy="947.87" rx="2.81" ry="5.45"/>
			
				<ellipse transform="matrix(0.3114 -0.9503 0.9503 0.3114 -540.7477 1143.9961)" class="st19" cx="518.97" cy="945.11" rx="4.48" ry="3.42"/>
			
				<ellipse transform="matrix(0.954 -0.2999 0.2999 0.954 -265.1994 203.154)" class="st17" cx="529.28" cy="965.6" rx="5.38" ry="2.85"/>
			
				<ellipse transform="matrix(0.0587 -0.9983 0.9983 0.0587 -447.0673 1445.6429)" class="st17" cx="543.01" cy="959.88" rx="2.77" ry="5.54"/>
			
				<ellipse transform="matrix(0.9452 -0.3264 0.3264 0.9452 -283.9741 226.8293)" class="st17" cx="533.96" cy="959.65" rx="6.48" ry="2.86"/>
			
				<ellipse transform="matrix(0.7514 -0.6598 0.6598 0.7514 -508.5957 571.4542)" class="st17" cx="504.16" cy="960.76" rx="5.94" ry="3.12"/>
			
				<ellipse transform="matrix(0.9803 -0.1976 0.1976 0.9803 -176.0039 131.8384)" class="st17" cx="572.77" cy="948.05" rx="6.62" ry="2.8"/>
			
				<ellipse transform="matrix(0.8541 -0.52 0.52 0.8541 -419.3898 407.4339)" class="st17" cx="516.64" cy="951.36" rx="6.19" ry="2.99"/>
			
				<ellipse transform="matrix(0.6189 -0.7854 0.7854 0.6189 -555.1867 779.4001)" class="st18" cx="525.65" cy="961.87" rx="4.69" ry="3.27"/>
			
				<ellipse transform="matrix(0.6189 -0.7854 0.7854 0.6189 -543.3069 788.2916)" class="st18" cx="540.75" cy="954.07" rx="4.69" ry="3.27"/>
			
				<ellipse transform="matrix(0.9789 -0.2043 0.2043 0.9789 -182.6296 127.0803)" class="st18" cx="524.12" cy="947.99" rx="5.46" ry="2.8"/>
			
				<ellipse transform="matrix(0.3114 -0.9503 0.9503 0.3114 -555.217 1140.8473)" class="st18" cx="509.57" cy="953.52" rx="4.48" ry="3.42"/>
			
				<ellipse transform="matrix(0.9613 -0.2756 0.2756 0.9613 -249.2672 179.2728)" class="st19" cx="513.22" cy="976.53" rx="5.4" ry="2.84"/>
			
				<ellipse transform="matrix(0.9834 -0.1815 0.1815 0.9834 -167.9266 110.2306)" class="st17" cx="518.43" cy="972.81" rx="5.48" ry="2.8"/>
		</g>
		<g>
			<path class="st13" d="M1134.96,961.03c-2.08-0.37-4.16-0.74-6.24-1.11c-0.71-13.42-0.98-27.44-0.69-42.01
				c0.59-29.9,3.47-57.64,7.62-82.91c2.19,22.42,3.34,46.83,2.77,72.96C1138.01,926.64,1136.77,944.36,1134.96,961.03z"/>
			<path class="st14" d="M1129.6,990.08l-10.33,0.91c-4.4-15.46-8.25-34.54-9.26-56.49c-1.02-22.22,1.12-41.68,4.16-57.49
				c0.23-0.92,0.46-1.84,0.69-2.76c3.39,26.61,4.5,46.19,4.85,59.7c0.18,7,0.34,19.7,4.16,36.48
				C1125.75,978.71,1127.95,985.47,1129.6,990.08z"/>
			<path class="st15" d="M1110.01,1056.1L1110.01,1056.1c11.97-25.07,18.45-45.99,22.18-60.8c4.42-17.56,5.76-29.62,13.86-50.3
				c1.93-4.92,6.19-15.33,16.63-34.27c9.69-17.58,23.95-41.16,44.35-68.54c-14.86,12.89-34.65,32.66-51.28,59.7
				c-5.53,8.98-11.95,20.79-19.4,39.8C1126.58,966.59,1114.61,1004.95,1110.01,1056.1z"/>
			<path class="st16" d="M1101,1076c1.78-9.88,6.27-25.13,18.71-40.9c23.45-29.72,59.07-40.87,71.38-44.22
				c-15.19,8.78-34.14,21.52-52.67,39.25C1120.92,1046.86,1109.02,1063.05,1101,1076z"/>
			<path class="st16" d="M1259,941.13c-0.01-0.2-35.78-5.4-72.76,7.74c-30.38,10.79-48.69,29.38-58.45,41.61
				c0.34,0.25,0.67,0.5,1.01,0.76c11.73-14.3,29.88-31.18,57.44-41.26C1222.74,936.62,1259.01,941.33,1259,941.13z"/>
			<path class="st16" d="M1192.47,929.52c-0.1-0.09-22.53,3.91-37.02,16.48c-11.9,10.33-13.38,22.07-13.08,29.38
				c0.31,0.06,0.61,0.11,0.92,0.17c-0.18-8.61,2.02-19.54,12.68-29.04C1170.09,933.92,1192.57,929.61,1192.47,929.52z"/>
			
				<ellipse transform="matrix(0.954 -0.2999 0.2999 0.954 -240.284 387.5719)" class="st17" cx="1142.57" cy="976.63" rx="5.38" ry="2.85"/>
			
				<ellipse transform="matrix(0.8778 -0.479 0.479 0.8778 -325.507 668.9484)" class="st18" cx="1148.51" cy="972.53" rx="5.15" ry="2.98"/>
			
				<ellipse transform="matrix(0.3114 -0.9503 0.9503 0.3114 -125.953 1760.8778)" class="st17" cx="1152.01" cy="967.35" rx="4.48" ry="3.42"/>
			
				<ellipse transform="matrix(0.3114 -0.9503 0.9503 0.3114 -60.5106 1794.8064)" class="st17" cx="1208.14" cy="939.15" rx="4.48" ry="3.42"/>
			
				<ellipse transform="matrix(0.6189 -0.7854 0.7854 0.6189 -284.6283 1298.2743)" class="st17" cx="1195.67" cy="942.47" rx="4.69" ry="3.27"/>
			
				<ellipse transform="matrix(0.6189 -0.7854 0.7854 0.6189 -270.4221 1317.6062)" class="st17" cx="1222.7" cy="937.5" rx="4.69" ry="3.27"/>
			
				<ellipse transform="matrix(0.3114 -0.9503 0.9503 0.3114 -118.7827 1762.2334)" class="st18" cx="1156.53" cy="963.08" rx="4.48" ry="3.42"/>
			
				<ellipse transform="matrix(0.8549 -0.5188 0.5188 0.8549 -331.3224 735.0308)" class="st18" cx="1148.22" cy="959.76" rx="5.09" ry="3.01"/>
			
				<ellipse transform="matrix(0.9994 -0.0339 0.0339 0.9994 -31.4278 41.1761)" class="st18" cx="1198.11" cy="947.05" rx="5.54" ry="2.76"/>
			
				<ellipse transform="matrix(0.9994 -0.0339 0.0339 0.9994 -31.3277 41.5505)" class="st18" cx="1209.2" cy="944.28" rx="5.54" ry="2.76"/>
			
				<ellipse transform="matrix(0.7794 -0.6265 0.6265 0.7794 -345.0855 941.3113)" class="st19" cx="1164.12" cy="960.68" rx="6.2" ry="3.08"/>
			
				<ellipse transform="matrix(0.7585 -0.6517 0.6517 0.7585 -348.8273 975.6214)" class="st19" cx="1141.94" cy="958.46" rx="3.21" ry="5.95"/>
			
				<ellipse transform="matrix(0.9419 -0.336 0.336 0.9419 -249.1623 454.8808)" class="st19" cx="1190" cy="947.51" rx="5.34" ry="2.87"/>
			
				<ellipse transform="matrix(0.9419 -0.336 0.336 0.9419 -247.1776 458.6138)" class="st19" cx="1201.78" cy="943.64" rx="5.34" ry="2.87"/>
			
				<ellipse transform="matrix(0.9782 -0.2077 0.2077 0.9782 -172.2434 260.6301)" class="st19" cx="1155.32" cy="950.75" rx="5.46" ry="2.73"/>
			
				<ellipse transform="matrix(0.2261 -0.9741 0.9741 0.2261 31.7515 1921.7123)" class="st19" cx="1225.34" cy="940.87" rx="2.81" ry="5.45"/>
			
				<ellipse transform="matrix(0.3114 -0.9503 0.9503 0.3114 -90.6229 1751.1602)" class="st19" cx="1162.97" cy="938.11" rx="4.48" ry="3.42"/>
			
				<ellipse transform="matrix(0.954 -0.2999 0.2999 0.954 -233.4628 395.9502)" class="st17" cx="1173.28" cy="958.6" rx="5.38" ry="2.85"/>
			
				<ellipse transform="matrix(0.0587 -0.9983 0.9983 0.0587 166.1399 2081.9446)" class="st17" cx="1187.01" cy="952.88" rx="2.77" ry="5.54"/>
			
				<ellipse transform="matrix(0.9452 -0.3264 0.3264 0.9452 -246.4223 436.637)" class="st17" cx="1177.96" cy="952.65" rx="6.48" ry="2.86"/>
			
				<ellipse transform="matrix(0.7514 -0.6598 0.6598 0.7514 -343.9042 994.6266)" class="st17" cx="1148.16" cy="953.76" rx="5.94" ry="3.12"/>
			
				<ellipse transform="matrix(0.9803 -0.1976 0.1976 0.9803 -161.9288 258.9265)" class="st17" cx="1216.77" cy="941.05" rx="6.62" ry="2.8"/>
			
				<ellipse transform="matrix(0.8541 -0.52 0.52 0.8541 -321.8176 741.3176)" class="st17" cx="1160.64" cy="944.36" rx="6.19" ry="2.99"/>
			
				<ellipse transform="matrix(0.6189 -0.7854 0.7854 0.6189 -304.2824 1282.5577)" class="st18" cx="1169.65" cy="954.87" rx="4.69" ry="3.27"/>
			
				<ellipse transform="matrix(0.6189 -0.7854 0.7854 0.6189 -292.4026 1291.4492)" class="st18" cx="1184.75" cy="947.07" rx="4.69" ry="3.27"/>
			
				<ellipse transform="matrix(0.9789 -0.2043 0.2043 0.9789 -167.6148 258.5092)" class="st18" cx="1168.12" cy="940.99" rx="5.46" ry="2.8"/>
			
				<ellipse transform="matrix(0.3114 -0.9503 0.9503 0.3114 -105.0922 1748.0114)" class="st18" cx="1153.57" cy="946.52" rx="4.48" ry="3.42"/>
			
				<ellipse transform="matrix(0.9613 -0.2756 0.2756 0.9613 -222.3947 356.4973)" class="st19" cx="1157.22" cy="969.53" rx="5.4" ry="2.84"/>
			
				<ellipse transform="matrix(0.9834 -0.1815 0.1815 0.9834 -155.9639 226.9798)" class="st17" cx="1162.43" cy="965.81" rx="5.48" ry="2.8"/>
		</g>
		<g>
			<path class="st13" d="M1492.04,967.03c2.08-0.37,4.16-0.74,6.24-1.11c0.71-13.42,0.98-27.44,0.69-42.01
				c-0.59-29.9-3.47-57.64-7.62-82.91c-2.19,22.42-3.34,46.83-2.77,72.96C1488.99,932.64,1490.23,950.36,1492.04,967.03z"/>
			<path class="st14" d="M1497.4,996.08l10.33,0.91c4.4-15.46,8.25-34.54,9.26-56.49c1.02-22.22-1.12-41.68-4.16-57.49
				c-0.23-0.92-0.46-1.84-0.69-2.76c-3.39,26.61-4.5,46.19-4.85,59.7c-0.18,7-0.34,19.7-4.16,36.48
				C1501.25,984.71,1499.05,991.47,1497.4,996.08z"/>
			<path class="st15" d="M1516.99,1062.1L1516.99,1062.1c-11.97-25.07-18.45-45.99-22.18-60.8c-4.42-17.56-5.76-29.62-13.86-50.3
				c-1.93-4.92-6.19-15.33-16.63-34.27c-9.69-17.58-23.95-41.16-44.35-68.54c14.86,12.89,34.65,32.66,51.28,59.7
				c5.53,8.98,11.95,20.79,19.4,39.8C1500.42,972.59,1512.39,1010.95,1516.99,1062.1z"/>
			<path class="st16" d="M1526,1082c-1.78-9.88-6.27-25.13-18.71-40.9c-23.45-29.72-59.07-40.87-71.38-44.22
				c15.19,8.78,34.14,21.52,52.67,39.25C1506.08,1052.86,1517.98,1069.05,1526,1082z"/>
			<path class="st16" d="M1368,947.13c0.01-0.2,35.78-5.4,72.76,7.74c30.38,10.79,48.69,29.38,58.45,41.61
				c-0.34,0.25-0.67,0.5-1.01,0.76c-11.73-14.3-29.88-31.18-57.44-41.26C1404.26,942.62,1367.99,947.33,1368,947.13z"/>
			<path class="st16" d="M1434.53,935.52c0.1-0.09,22.53,3.91,37.02,16.48c11.9,10.33,13.38,22.07,13.08,29.38
				c-0.31,0.06-0.61,0.11-0.92,0.17c0.18-8.61-2.02-19.54-12.68-29.04C1456.91,939.92,1434.43,935.61,1434.53,935.52z"/>
			
				<ellipse transform="matrix(0.2999 -0.954 0.954 0.2999 101.8773 2104.0823)" class="st17" cx="1484.43" cy="982.63" rx="2.85" ry="5.38"/>
			
				<ellipse transform="matrix(0.479 -0.8778 0.8778 0.479 -88.6633 1807.6714)" class="st18" cx="1478.49" cy="978.53" rx="2.98" ry="5.15"/>
			
				<ellipse transform="matrix(0.9503 -0.3114 0.3114 0.9503 -229.7508 507.6665)" class="st17" cx="1474.99" cy="973.35" rx="3.42" ry="4.48"/>
			
				<ellipse transform="matrix(0.9503 -0.3114 0.3114 0.9503 -223.7635 488.7869)" class="st17" cx="1418.86" cy="945.15" rx="3.42" ry="4.48"/>
			
				<ellipse transform="matrix(0.7854 -0.6189 0.6189 0.7854 -279.9395 1089.4004)" class="st17" cx="1431.33" cy="948.47" rx="3.27" ry="4.69"/>
			
				<ellipse transform="matrix(0.7854 -0.6189 0.6189 0.7854 -282.6591 1071.6056)" class="st17" cx="1404.3" cy="943.5" rx="3.27" ry="4.69"/>
			
				<ellipse transform="matrix(0.9503 -0.3114 0.3114 0.9503 -228.6461 506.0467)" class="st18" cx="1470.47" cy="969.08" rx="3.42" ry="4.48"/>
			
				<ellipse transform="matrix(0.5188 -0.8549 0.8549 0.5188 -114.0695 1728.8523)" class="st18" cx="1478.78" cy="965.76" rx="3.01" ry="5.09"/>
			
				<ellipse transform="matrix(0.0339 -0.9994 0.9994 0.0339 427.9323 2348.791)" class="st18" cx="1428.89" cy="953.05" rx="2.76" ry="5.54"/>
			
				<ellipse transform="matrix(0.0339 -0.9994 0.9994 0.0339 419.9828 2335.0398)" class="st18" cx="1417.8" cy="950.28" rx="2.76" ry="5.54"/>
			
				<ellipse transform="matrix(0.6265 -0.7794 0.7794 0.6265 -207.092 1501.1592)" class="st19" cx="1462.88" cy="966.68" rx="3.08" ry="6.2"/>
			
				<ellipse transform="matrix(0.6517 -0.7585 0.7585 0.6517 -214.2538 1462.3893)" class="st19" cx="1485.06" cy="964.46" rx="5.95" ry="3.21"/>
			
				<ellipse transform="matrix(0.336 -0.9419 0.9419 0.336 56.13 1986.6274)" class="st19" cx="1437" cy="953.51" rx="2.87" ry="5.34"/>
			
				<ellipse transform="matrix(0.336 -0.9419 0.9419 0.336 51.9516 1972.9623)" class="st19" cx="1425.22" cy="949.64" rx="2.87" ry="5.34"/>
			
				<ellipse transform="matrix(0.2077 -0.9782 0.9782 0.2077 230.1836 2197.6787)" class="st19" cx="1471.68" cy="956.75" rx="2.73" ry="5.46"/>
			
				<ellipse transform="matrix(0.9741 -0.2261 0.2261 0.9741 -177.8106 341.487)" class="st19" cx="1401.66" cy="946.87" rx="5.45" ry="2.81"/>
			
				<ellipse transform="matrix(0.9503 -0.3114 0.3114 0.9503 -221.1921 502.8004)" class="st19" cx="1464.03" cy="944.11" rx="3.42" ry="4.48"/>
			
				<ellipse transform="matrix(0.2999 -0.954 0.954 0.2999 97.5829 2062.1621)" class="st17" cx="1453.72" cy="964.6" rx="2.85" ry="5.38"/>
			
				<ellipse transform="matrix(0.9983 -0.0587 0.0587 0.9983 -53.7731 86.1294)" class="st17" cx="1439.99" cy="958.88" rx="5.54" ry="2.77"/>
			
				<ellipse transform="matrix(0.3264 -0.9452 0.9452 0.3264 69.941 2015.4504)" class="st17" cx="1449.04" cy="958.65" rx="2.86" ry="6.48"/>
			
				<ellipse transform="matrix(0.6598 -0.7514 0.7514 0.6598 -218.1034 1437.7653)" class="st17" cx="1478.84" cy="959.76" rx="3.12" ry="5.94"/>
			
				<ellipse transform="matrix(0.1976 -0.9803 0.9803 0.1976 203.2507 2142.3894)" class="st17" cx="1410.23" cy="947.05" rx="2.8" ry="6.62"/>
			
				<ellipse transform="matrix(0.52 -0.8541 0.8541 0.52 -107.9472 1708.6212)" class="st17" cx="1466.36" cy="950.36" rx="2.99" ry="6.19"/>
			
				<ellipse transform="matrix(0.7854 -0.6189 0.6189 0.7854 -282.0287 1108.1676)" class="st18" cx="1457.35" cy="960.87" rx="3.27" ry="4.69"/>
			
				<ellipse transform="matrix(0.7854 -0.6189 0.6189 0.7854 -280.4431 1097.1467)" class="st18" cx="1442.25" cy="953.07" rx="3.27" ry="4.69"/>
			
				<ellipse transform="matrix(0.2043 -0.9789 0.9789 0.2043 233.8006 2181.6177)" class="st18" cx="1458.88" cy="946.99" rx="2.8" ry="5.46"/>
			
				<ellipse transform="matrix(0.9503 -0.3114 0.3114 0.9503 -223.3429 506.1476)" class="st18" cx="1473.43" cy="952.52" rx="3.42" ry="4.48"/>
			
				<ellipse transform="matrix(0.2756 -0.9613 0.9613 0.2756 126.9453 2119.5132)" class="st19" cx="1469.78" cy="975.53" rx="2.84" ry="5.4"/>
			
				<ellipse transform="matrix(0.1815 -0.9834 0.9834 0.1815 243.1204 2235.7102)" class="st17" cx="1464.57" cy="971.81" rx="2.8" ry="5.48"/>
		</g>
	</g>
</g>
</svg>
