<?xml version="1.0" encoding="utf-8"?>
<!-- Generator: Adobe Illustrator 23.0.5, SVG Export Plug-In . SVG Version: 6.00 Build 0)  -->
<svg version="1.1" id="圖層_1" xmlns="http://www.w3.org/2000/svg" xmlns:xlink="http://www.w3.org/1999/xlink" x="0px" y="0px"
	 viewBox="0 0 1920 1080" style="enable-background:new 0 0 1920 1080;" xml:space="preserve">
<style type="text/css">
	.st0{fill:#9B5D39;}
	.st1{fill:#D4B474;}
	.st2{fill:#42403E;}
	.st3{fill:#FEF8ED;}
	.st4{opacity:0.24;fill:#FEF8ED;enable-background:new    ;}
	.st5{enable-background:new    ;}
	.st6{fill:#F3F74F;}
	.st7{fill:#FFFFFF;stroke:#000000;stroke-width:3;stroke-miterlimit:10;}
	.st8{fill:#FFFFFF;stroke:#000000;stroke-width:6;stroke-miterlimit:10;}
</style>
<g>
	<rect x="49.44" y="81" class="st0" width="1822" height="984"/>
	<rect x="90.06" y="129" class="st1" width="1740.75" height="888"/>
	<g>
		<ellipse class="st2" cx="258" cy="107.83" rx="59" ry="18.5"/>
		<ellipse class="st3" cx="258.5" cy="108.33" rx="43.5" ry="10"/>
		<path class="st4" d="M352,241.33c-62.67,0-125.33,0-188,0c17-44.33,34-88.67,51-133c29,0,58,0,87,0
			C318.67,152.67,335.33,197,352,241.33z"/>
	</g>
	<g>
		<ellipse class="st2" cx="723.67" cy="106.17" rx="59" ry="18.5"/>
		<ellipse class="st3" cx="724.17" cy="106.67" rx="43.5" ry="10"/>
		<path class="st4" d="M817.67,239.67c-62.67,0-125.33,0-188,0c17-44.33,34-88.67,51-133c29,0,58,0,87,0
			C784.33,151,801,195.33,817.67,239.67z"/>
	</g>
	<g>
		<ellipse class="st2" cx="1189.33" cy="103.5" rx="59" ry="18.5"/>
		<ellipse class="st3" cx="1189.83" cy="104" rx="43.5" ry="10"/>
		<path class="st4" d="M1283.33,237c-62.67,0-125.33,0-188,0c17-44.33,34-88.67,51-133c29,0,58,0,87,0
			C1250,148.33,1266.67,192.67,1283.33,237z"/>
	</g>
	<g>
		<ellipse class="st2" cx="1655" cy="104.5" rx="59" ry="18.5"/>
		<ellipse class="st3" cx="1655.5" cy="105" rx="43.5" ry="10"/>
		<path class="st4" d="M1749,238c-62.67,0-125.33,0-188,0c17-44.33,34-88.67,51-133c29,0,58,0,87,0
			C1715.67,149.33,1732.33,193.67,1749,238z"/>
	</g>
</g>
<g>
	<g class="st5">
		<path class="st6" d="M914.49,204.55c0.56,0.56,0.84,1.25,0.84,2.07c0,0.82-0.28,1.52-0.84,2.11c-0.56,0.59-1.27,0.88-2.11,0.88
			h-17.23c-0.09,0-0.17,0.06-0.21,0.18c-0.05,0.12-0.02,0.22,0.07,0.32c2.58,2.44,5.7,4.69,9.35,6.75
			c3.66,2.06,7.48,3.73,11.46,4.99c0.84,0.28,1.38,0.84,1.62,1.69c0.09,0.24,0.14,0.49,0.14,0.77c0,0.56-0.19,1.08-0.56,1.55
			c-0.7,0.94-1.59,1.57-2.67,1.9c-0.52,0.19-1.01,0.28-1.48,0.28c-0.61,0-1.2-0.12-1.76-0.35c-8.16-3.33-15.02-7.99-20.6-13.99
			c-0.09-0.09-0.2-0.12-0.32-0.07c-0.12,0.05-0.18,0.14-0.18,0.28v13.29c0,0.89-0.33,1.66-0.98,2.32c-0.66,0.66-1.44,0.98-2.36,0.98
			s-1.69-0.33-2.32-0.98c-0.63-0.66-0.95-1.43-0.95-2.32v-12.8c0-0.09-0.06-0.15-0.18-0.18c-0.12-0.02-0.22,0.01-0.32,0.11
			c-5.72,5.91-12.75,10.36-21.09,13.36c-0.47,0.19-0.94,0.28-1.41,0.28c-0.52,0-1.03-0.09-1.55-0.28c-1.03-0.38-1.85-1.01-2.46-1.9
			c-0.33-0.42-0.49-0.89-0.49-1.41c0-0.23,0.02-0.47,0.07-0.7c0.23-0.8,0.75-1.31,1.55-1.55c4.17-1.27,8.11-2.94,11.81-5.03
			c3.7-2.08,6.87-4.42,9.49-7c0.09-0.09,0.12-0.2,0.07-0.32c-0.05-0.12-0.14-0.18-0.28-0.18h-16.38c-0.84,0-1.55-0.29-2.11-0.88
			c-0.56-0.59-0.84-1.29-0.84-2.11c0-0.82,0.28-1.51,0.84-2.07s1.27-0.84,2.11-0.84h20.46c0.47,0,0.7-0.23,0.7-0.7v-2.53
			c0-0.94,0.32-1.72,0.95-2.36s1.41-0.95,2.32-0.95s1.7,0.32,2.36,0.95c0.66,0.63,0.98,1.42,0.98,2.36v2.53c0,0.47,0.23,0.7,0.7,0.7
			h21.66C913.23,203.71,913.93,203.99,914.49,204.55z M860.35,170.52c0.28-0.61,0.7-1.05,1.27-1.34s1.15-0.33,1.76-0.14
			c0.61,0.24,1.05,0.63,1.34,1.2s0.3,1.15,0.07,1.76c-0.94,2.53-2.13,4.57-3.59,6.12c-0.52,0.52-1.14,0.79-1.86,0.81
			c-0.73,0.02-1.4-0.18-2-0.6c-0.47-0.33-0.72-0.78-0.74-1.37c-0.02-0.59,0.18-1.11,0.6-1.58
			C858.45,174.02,859.51,172.4,860.35,170.52z M857.05,190.21c0-0.38,0.16-0.56,0.49-0.56h0.07c-0.09-0.14-0.17-0.3-0.21-0.49
			c-0.38-0.56-0.56-1.17-0.56-1.83c0-0.38,0.07-0.77,0.21-1.2c0.33-1.08,1.01-1.8,2.04-2.18c3.66-1.45,6.19-3.41,7.59-5.87
			s2.27-5.99,2.6-10.58c0.05-0.84,0.37-1.55,0.98-2.11c0.61-0.56,1.31-0.84,2.11-0.84c0.8,0,1.46,0.28,2,0.84
			c0.54,0.56,0.81,1.2,0.81,1.9c0,2.86-0.47,5.93-1.41,9.21c-0.09,0.42,0.05,0.75,0.42,0.98c3.05,1.88,5.53,3.49,7.45,4.85
			c0.7,0.47,1.05,1.15,1.05,2.04c0,0.7-0.26,1.31-0.77,1.83c-0.61,0.61-1.36,0.91-2.25,0.91c-0.05,0-0.09,0-0.14,0
			c-0.8,0-1.52-0.23-2.18-0.7c-1.45-1.13-3.3-2.46-5.55-4.01c-0.38-0.23-0.7-0.16-0.98,0.21c-2.25,2.95-5.74,5.23-10.48,6.82
			c-0.05,0.05-0.06,0.09-0.04,0.14c0.02,0.05,0.06,0.07,0.11,0.07h51.75c0.09,0,0.16-0.05,0.21-0.14c0.05-0.09,0.02-0.19-0.07-0.28
			c-1.92-1.5-5.39-3.91-10.41-7.24c-0.38-0.23-0.7-0.16-0.98,0.21c-2.06,2.67-5.16,4.81-9.28,6.4c-0.38,0.14-0.77,0.21-1.2,0.21
			s-0.84-0.07-1.27-0.21c-0.8-0.33-1.45-0.87-1.97-1.62c-0.42-0.56-0.54-1.18-0.35-1.86c0.19-0.68,0.61-1.14,1.27-1.37
			c3.98-1.41,6.75-3.33,8.3-5.77c1.55-2.44,2.48-5.91,2.81-10.41c0.05-0.84,0.39-1.56,1.02-2.14c0.63-0.59,1.37-0.88,2.21-0.88
			s1.55,0.31,2.11,0.91c0.52,0.52,0.77,1.15,0.77,1.9c0,2.67-0.47,5.53-1.41,8.58c-0.14,0.47-0.02,0.82,0.35,1.05
			c4.17,2.58,7.43,4.64,9.77,6.19c1.03,0.66,1.59,1.62,1.69,2.88c0.05,0.14,0.07,0.28,0.07,0.42c0,1.08-0.4,2.02-1.2,2.81
			l-0.14,0.14c-0.05,0.05-0.06,0.09-0.04,0.14c0.02,0.05,0.06,0.07,0.11,0.07c0.75,0,1.37,0.26,1.86,0.77
			c0.49,0.52,0.74,1.13,0.74,1.83v6.05c0,0.89-0.33,1.66-0.98,2.32c-0.66,0.66-1.44,0.98-2.36,0.98s-1.7-0.33-2.36-0.98
			c-0.66-0.66-0.98-1.43-0.98-2.32v-2.18c0-0.42-0.21-0.63-0.63-0.63h-45.7c-0.42,0-0.63,0.21-0.63,0.63v2.25
			c0,0.89-0.32,1.65-0.95,2.29s-1.4,0.95-2.29,0.95c-0.89,0-1.65-0.32-2.29-0.95s-0.95-1.39-0.95-2.29V190.21z M879.69,170.88
			c0.42-0.75,1.01-1.27,1.76-1.55c0.42-0.19,0.83-0.28,1.23-0.28c0.4,0,0.76,0.07,1.09,0.21c0.7,0.24,1.16,0.7,1.37,1.41
			s0.08,1.34-0.39,1.9c-1.22,1.55-2.23,2.81-3.02,3.8c-0.47,0.47-1.02,0.79-1.65,0.95c-0.63,0.17-1.25,0.13-1.86-0.11
			c-0.56-0.23-0.91-0.62-1.05-1.16c-0.14-0.54-0.07-1.04,0.21-1.51C878.16,173.36,878.94,172.14,879.69,170.88z M891.08,177.84
			c-0.52,0.52-1.15,0.8-1.9,0.84c-0.75,0.05-1.41-0.14-1.97-0.56c-0.52-0.33-0.79-0.78-0.81-1.37c-0.02-0.59,0.18-1.09,0.6-1.51
			c1.31-1.36,2.39-3.02,3.23-4.99c0.23-0.61,0.64-1.07,1.23-1.37c0.59-0.3,1.18-0.34,1.79-0.11c0.61,0.19,1.07,0.57,1.37,1.16
			c0.3,0.59,0.34,1.18,0.11,1.79C893.75,174.25,892.53,176.29,891.08,177.84z M910.91,170.73c0.47-0.75,1.1-1.29,1.9-1.62
			c0.47-0.19,0.91-0.28,1.34-0.28c0.37,0,0.75,0.07,1.13,0.21c0.75,0.28,1.23,0.77,1.44,1.48s0.06,1.36-0.46,1.97
			c-1.17,1.45-2.37,2.81-3.59,4.08c-0.61,0.66-1.34,0.98-2.18,0.98c-0.42,0-0.89-0.09-1.41-0.28c-0.52-0.23-0.84-0.63-0.98-1.2
			s-0.05-1.08,0.28-1.55C909.26,173.27,910.11,172,910.91,170.73z"/>
		<path class="st6" d="M990.57,186.34c0.47,0.47,0.7,1.03,0.7,1.69c0,0.66-0.24,1.21-0.7,1.65c-0.47,0.45-1.03,0.67-1.69,0.67H975.8
			c-0.09,0-0.18,0.07-0.25,0.21s-0.06,0.26,0.04,0.35c3.61,3.56,8.13,6.33,13.57,8.3c0.7,0.24,1.16,0.71,1.37,1.44
			c0.21,0.73,0.06,1.4-0.46,2c-0.61,0.75-1.36,1.27-2.25,1.55c-0.38,0.14-0.75,0.21-1.13,0.21c-0.52,0-1.03-0.12-1.55-0.35
			c-1.22-0.56-2.42-1.17-3.59-1.83c-0.09-0.05-0.14-0.02-0.14,0.07c0,0.24-0.08,0.43-0.25,0.6c-0.17,0.17-0.34,0.25-0.53,0.25H937.7
			c-0.24,0-0.43-0.08-0.6-0.25c-0.17-0.16-0.25-0.36-0.25-0.6c0-0.09-0.05-0.12-0.14-0.07c-1.31,0.84-2.7,1.64-4.15,2.39
			c-0.47,0.19-0.96,0.28-1.48,0.28c-0.33,0-0.68-0.05-1.05-0.14c-0.84-0.23-1.57-0.73-2.18-1.48c-0.47-0.56-0.62-1.2-0.46-1.9
			c0.16-0.7,0.57-1.2,1.23-1.48c5.25-2.3,9.66-5.3,13.22-9c0.09-0.09,0.11-0.21,0.04-0.35s-0.18-0.21-0.32-0.21h-12.45
			c-0.66,0-1.22-0.22-1.69-0.67c-0.47-0.45-0.7-1-0.7-1.65c0-0.66,0.23-1.22,0.7-1.69c0.47-0.47,1.03-0.7,1.69-0.7h5.34
			c0.19,0,0.35-0.07,0.49-0.21s0.21-0.3,0.21-0.49l-0.7-13.5c-0.05-1.03,0.3-1.87,1.05-2.53c0.61-0.52,1.27-0.77,1.97-0.77
			c0.23,0,0.49,0.05,0.77,0.14c0.28,0.05,0.59,0.02,0.91-0.07c1.78-0.75,3.73-1.66,5.84-2.74c0.56-0.33,1.17-0.43,1.83-0.32
			c0.66,0.12,1.2,0.41,1.62,0.88c0.37,0.42,0.54,0.9,0.49,1.44c-0.05,0.54-0.33,0.93-0.84,1.16c-1.88,0.89-4.24,1.8-7.1,2.74
			c-0.42,0.14-0.63,0.45-0.63,0.91v0.49c0.05,0.47,0.3,0.7,0.77,0.7h6.19c0.47,0,0.87,0.17,1.2,0.49c0.33,0.33,0.49,0.71,0.49,1.16
			c0,0.45-0.17,0.83-0.49,1.16c-0.33,0.33-0.73,0.49-1.2,0.49h-6.05c-0.19,0-0.35,0.07-0.49,0.21s-0.21,0.31-0.21,0.49l0.07,1.41
			c0.05,0.47,0.3,0.7,0.77,0.7h6.05c0.47,0,0.87,0.17,1.2,0.49c0.33,0.33,0.49,0.71,0.49,1.16c0,0.45-0.17,0.83-0.49,1.16
			c-0.33,0.33-0.73,0.49-1.2,0.49h-5.91c-0.19,0-0.35,0.07-0.49,0.21s-0.21,0.31-0.21,0.49l0.07,1.34c0.05,0.47,0.3,0.7,0.77,0.7
			h9.49c0.42,0,0.63-0.21,0.63-0.63v-3.16c0-0.66,0.22-1.22,0.67-1.69c0.44-0.47,1-0.7,1.65-0.7c0.66,0,1.22,0.24,1.69,0.7
			c0.47,0.47,0.7,1.03,0.7,1.69v3.16c0,0.42,0.21,0.63,0.63,0.63h3.38c0.47,0,0.68-0.23,0.63-0.7v-6.54c0-0.47-0.21-0.68-0.63-0.63
			h-2.39c-1.69,0-3.13-0.6-4.32-1.79s-1.79-2.64-1.79-4.32v-4.5c0-0.7,0.25-1.3,0.74-1.79s1.09-0.74,1.79-0.74s1.3,0.25,1.79,0.74
			s0.74,1.09,0.74,1.79v0.42c0,0.24,0.12,0.35,0.35,0.35h7.73c0.47,0,0.88,0.18,1.23,0.53s0.53,0.76,0.53,1.23
			c0,0.47-0.18,0.88-0.53,1.23s-0.76,0.53-1.23,0.53h-7.38c-0.47,0-0.7,0.24-0.7,0.7v1.48c0,0.47,0.23,0.7,0.7,0.7h2.32
			c1.69,0,3.13,0.6,4.32,1.79s1.79,2.64,1.79,4.32v4.5c0,0.47,0.23,0.7,0.7,0.7h9.28c0.47,0,0.73-0.23,0.77-0.7l0.07-1.34
			c0.05-0.19,0-0.35-0.14-0.49s-0.31-0.21-0.49-0.21h-5.63c-0.47,0-0.87-0.16-1.2-0.49c-0.33-0.33-0.49-0.71-0.49-1.16
			c0-0.45,0.16-0.83,0.49-1.16c0.33-0.33,0.73-0.49,1.2-0.49h5.84c0.47,0,0.73-0.23,0.77-0.7l0.07-1.41c0-0.19-0.07-0.35-0.21-0.49
			s-0.31-0.21-0.49-0.21h-5.77c-0.47,0-0.87-0.16-1.2-0.49c-0.33-0.33-0.49-0.71-0.49-1.16c0-0.45,0.16-0.83,0.49-1.16
			c0.33-0.33,0.73-0.49,1.2-0.49h5.91c0.47,0,0.7-0.23,0.7-0.7l0.07-1.27c0-0.19-0.07-0.35-0.21-0.49s-0.31-0.21-0.49-0.21h-6.12
			c-0.47,0-0.89-0.18-1.27-0.53c-0.38-0.35-0.56-0.78-0.56-1.3c0-0.52,0.19-0.95,0.56-1.3c0.38-0.35,0.8-0.53,1.27-0.53h6.75
			c1.69,0,3.12,0.59,4.29,1.76c1.13,1.17,1.69,2.53,1.69,4.08c0,3.05-0.24,7.03-0.7,11.95c0,0.19,0.06,0.35,0.18,0.49
			c0.12,0.14,0.27,0.21,0.46,0.21h5.34C989.54,185.64,990.1,185.88,990.57,186.34z M941.63,230.64c-0.84,0-1.58-0.31-2.21-0.91
			c-0.63-0.61-0.95-1.36-0.95-2.25v-3.8c0-1.73,0.6-3.19,1.79-4.36c1.2-1.17,2.64-1.76,4.32-1.76h28.9c1.69,0,3.13,0.59,4.32,1.76
			c1.2,1.17,1.79,2.63,1.79,4.36v3.59c0,0.94-0.32,1.72-0.95,2.36s-1.42,0.95-2.36,0.95h-1.62c-0.47,0-0.86-0.17-1.16-0.49
			c-0.31-0.33-0.46-0.7-0.46-1.13c0-0.14-0.07-0.21-0.21-0.21h-27.84c-0.14,0-0.21,0.07-0.21,0.21c0,0.47-0.17,0.87-0.49,1.2
			c-0.33,0.33-0.73,0.49-1.2,0.49H941.63z M976.72,205.61c0.47,0,0.87,0.17,1.2,0.49c0.33,0.33,0.49,0.73,0.49,1.2
			c0,0.47-0.17,0.88-0.49,1.23c-0.33,0.35-0.73,0.53-1.2,0.53h-35.37c-0.47,0-0.87-0.18-1.2-0.53c-0.33-0.35-0.49-0.76-0.49-1.23
			c0-0.47,0.16-0.87,0.49-1.2c0.33-0.33,0.73-0.49,1.2-0.49H976.72z M941.35,215.1c-0.47,0-0.87-0.18-1.2-0.53
			c-0.33-0.35-0.49-0.76-0.49-1.23c0-0.47,0.16-0.87,0.49-1.2c0.33-0.33,0.73-0.49,1.2-0.49h35.37c0.47,0,0.87,0.17,1.2,0.49
			c0.33,0.33,0.49,0.73,0.49,1.2c0,0.47-0.17,0.88-0.49,1.23c-0.33,0.35-0.73,0.53-1.2,0.53H941.35z M941.35,198.93
			c-0.09,0.09-0.13,0.19-0.11,0.28c0.02,0.09,0.11,0.14,0.25,0.14h35.16c0.14,0,0.22-0.05,0.25-0.14c0.02-0.09-0.01-0.19-0.11-0.28
			c-2.95-2.34-5.48-4.99-7.59-7.95c-0.28-0.42-0.66-0.63-1.13-0.63h-18c-0.47,0-0.84,0.21-1.13,0.63c-0.42,0.61-0.94,1.27-1.55,1.97
			c-0.05,0.09-0.05,0.21,0,0.35c0.05,0.14,0.14,0.21,0.28,0.21h21.59c0.52,0,0.94,0.17,1.27,0.49c0.33,0.33,0.49,0.73,0.49,1.2
			c0,0.47-0.17,0.88-0.49,1.23c-0.33,0.35-0.75,0.53-1.27,0.53H949.3c-0.75,0-1.38-0.27-1.9-0.81c-0.52-0.54-0.77-1.18-0.77-1.93
			c0-0.05-0.02-0.08-0.07-0.11c-0.05-0.02-0.09-0.01-0.14,0.04C944.77,195.98,943.08,197.57,941.35,198.93z M973.06,221.85
			c0-0.47-0.24-0.7-0.7-0.7h-26.93c-0.47,0-0.68,0.24-0.63,0.7v2.67c-0.05,0.47,0.16,0.7,0.63,0.7h26.93c0.47,0,0.7-0.24,0.7-0.7
			V221.85z"/>
		<path class="st6" d="M1011.95,184.87c0.47,0,0.7-0.23,0.7-0.7V167.5c0-0.8,0.29-1.49,0.88-2.07c0.59-0.59,1.29-0.88,2.11-0.88
			c0.82,0,1.52,0.29,2.11,0.88c0.59,0.59,0.88,1.28,0.88,2.07v60.05c0,0.84-0.29,1.56-0.88,2.14c-0.59,0.59-1.29,0.88-2.11,0.88
			c-0.82,0-1.52-0.29-2.11-0.88c-0.59-0.59-0.88-1.3-0.88-2.14v-20.88c0-0.47-0.24-0.7-0.7-0.7h-4.15c-0.47,0-0.7,0.24-0.7,0.7v0.35
			c0,8.34-1.1,15.3-3.3,20.88c-0.24,0.75-0.74,1.23-1.51,1.44s-1.49,0.15-2.14-0.18c-0.7-0.33-1.2-0.86-1.48-1.58
			c-0.28-0.73-0.28-1.44,0-2.14c1.78-4.73,2.67-10.94,2.67-18.63v-0.49c0-0.23-0.12-0.35-0.35-0.35h-0.14
			c-0.8,0-1.48-0.29-2.04-0.88c-0.56-0.59-0.84-1.28-0.84-2.07c0-0.8,0.28-1.48,0.84-2.04s1.24-0.84,2.04-0.84h11.11
			c0.47,0,0.7-0.21,0.7-0.63v-7.88c0-0.47-0.24-0.7-0.7-0.7h-4.99c-1.69,0-3.13-0.6-4.32-1.79s-1.79-2.64-1.79-4.32v-13.92
			c0-0.75,0.27-1.41,0.81-1.97c0.54-0.56,1.21-0.84,2-0.84c0.8,0,1.48,0.28,2.04,0.84s0.84,1.22,0.84,1.97v13.29
			c0,0.47,0.23,0.7,0.7,0.7H1011.95z M1044.85,191.41c0,0.47,0.23,0.7,0.7,0.7h15.89c0.7,0,1.31,0.26,1.83,0.77
			c0.52,0.52,0.77,1.14,0.77,1.86c0,0.73-0.25,1.35-0.74,1.86c-0.49,0.52-1.11,0.77-1.86,0.77h-38.39c-0.75,0-1.38-0.26-1.9-0.77
			c-0.52-0.52-0.77-1.14-0.77-1.86c0-0.73,0.26-1.35,0.77-1.86c0.52-0.52,1.15-0.77,1.9-0.77h14.91c0.47,0,0.7-0.23,0.7-0.7v-14.63
			c0-0.47-0.24-0.7-0.7-0.7h-13.29c-0.7,0-1.31-0.26-1.83-0.77c-0.52-0.52-0.77-1.14-0.77-1.86c0-0.73,0.26-1.35,0.77-1.86
			c0.52-0.52,1.13-0.77,1.83-0.77h13.29c0.47,0,0.7-0.21,0.7-0.63v-2.53c0-0.84,0.29-1.57,0.88-2.18c0.59-0.61,1.31-0.91,2.18-0.91
			c0.87,0,1.61,0.31,2.21,0.91c0.61,0.61,0.91,1.34,0.91,2.18v2.53c0,0.42,0.21,0.63,0.63,0.63h13.64c0.7,0,1.31,0.26,1.83,0.77
			c0.52,0.52,0.77,1.14,0.77,1.86c0,0.73-0.26,1.35-0.77,1.86c-0.52,0.52-1.13,0.77-1.83,0.77h-13.57c-0.47,0-0.7,0.24-0.7,0.7
			V191.41z M1027.63,178.96c0.28-0.7,0.74-1.23,1.37-1.58s1.28-0.46,1.93-0.32c0.7,0.09,1.23,0.43,1.58,1.02
			c0.35,0.59,0.41,1.18,0.18,1.79c-0.28,0.7-0.56,1.38-0.84,2.04c-0.19,0.33-0.14,0.61,0.14,0.84c1.5,1.13,2.88,2.32,4.15,3.59
			c0.42,0.47,0.62,1.03,0.6,1.69c-0.02,0.66-0.27,1.2-0.74,1.62c-0.47,0.42-1.02,0.61-1.65,0.56c-0.63-0.05-1.16-0.3-1.58-0.77
			c-0.8-0.84-1.73-1.76-2.81-2.74c-0.33-0.33-0.63-0.3-0.91,0.07c-0.8,1.13-1.62,2.16-2.46,3.09c-0.47,0.56-1.09,0.86-1.86,0.88
			c-0.77,0.02-1.49-0.18-2.14-0.6c-0.52-0.38-0.8-0.88-0.84-1.51c-0.05-0.63,0.16-1.16,0.63-1.58
			C1024.6,184.8,1026.36,182.1,1027.63,178.96z M1026.64,230.5c-0.75,0-1.4-0.27-1.93-0.81c-0.54-0.54-0.81-1.21-0.81-2V207.3
			c0-1.69,0.6-3.13,1.79-4.32s2.64-1.79,4.32-1.79h25.03c1.69,0,3.13,0.6,4.32,1.79s1.79,2.64,1.79,4.32v20.18
			c0,0.84-0.27,1.55-0.81,2.11c-0.54,0.56-1.23,0.84-2.07,0.84h-0.84c-0.56,0-1.05-0.21-1.48-0.63s-0.63-0.91-0.63-1.48
			c0-0.19-0.07-0.28-0.21-0.28h-25.45c-0.19,0-0.28,0.09-0.28,0.28c0,0.61-0.21,1.13-0.63,1.55s-0.94,0.63-1.55,0.63H1026.64z
			 M1055.33,206.31c0-0.47-0.24-0.7-0.7-0.7h-24.54c-0.47,0-0.7,0.24-0.7,0.7v16.38c0,0.47,0.23,0.7,0.7,0.7h24.54
			c0.47,0,0.7-0.23,0.7-0.7V206.31z M1044.71,208.7c1.64,0,3.03,0.56,4.18,1.69c1.15,1.13,1.72,2.51,1.72,4.15
			c0,1.64-0.57,3.02-1.72,4.15c-1.15,1.13-2.54,1.69-4.18,1.69h-4.99c-1.59,0-2.96-0.56-4.11-1.69c-1.15-1.13-1.72-2.51-1.72-4.15
			c0-1.64,0.57-3.02,1.72-4.15c1.15-1.13,2.52-1.69,4.11-1.69H1044.71z M1045.34,216.79c0.47,0,0.7-0.23,0.7-0.7v-3.02
			c0-0.47-0.24-0.7-0.7-0.7h-6.33c-0.47,0-0.7,0.24-0.7,0.7v3.02c0,0.47,0.23,0.7,0.7,0.7H1045.34z M1052.02,179.03
			c0.28-0.7,0.73-1.25,1.34-1.65c0.61-0.4,1.29-0.53,2.04-0.39c0.7,0.14,1.24,0.5,1.62,1.09c0.38,0.59,0.45,1.21,0.21,1.86
			c-0.19,0.56-0.45,1.13-0.77,1.69c-0.09,0.33,0,0.59,0.28,0.77c1.83,1.41,3.47,2.81,4.92,4.22c0.47,0.42,0.69,0.96,0.67,1.62
			c-0.02,0.66-0.27,1.2-0.74,1.62c-0.52,0.42-1.09,0.63-1.72,0.63s-1.18-0.26-1.65-0.77c-1.03-1.03-2.18-2.11-3.45-3.23
			c-0.33-0.33-0.63-0.3-0.91,0.07c-0.8,1.17-1.69,2.27-2.67,3.3c-0.52,0.52-1.17,0.79-1.97,0.81c-0.8,0.02-1.5-0.2-2.11-0.67
			c-0.52-0.38-0.79-0.88-0.81-1.51c-0.02-0.63,0.2-1.16,0.67-1.58C1049.21,184.75,1050.9,182.13,1052.02,179.03z"/>
	</g>
</g>
<g>
	<g>
		<path class="st7" d="M973.58,1039.18c-0.9,0-1.82-0.14-2.71-0.41c-2.33-0.54-4.43-1.75-6.24-3.58l-0.07-0.07l-0.06-0.07
			c-1.14-1.38-1.71-2.95-1.71-4.66v-1.2l0.03-0.18c0.43-2.33,1.74-4.06,3.8-5.01c7.34-3.52,14.09-7.67,20.02-12.3
			c2.04-1.68,4.35-2.68,6.83-2.95l0.11-0.01h1.05c2.16,0,4.22,0.62,6.11,1.85c2.34,1.49,3.58,3.83,3.58,6.76
			c0,2.28-0.96,4.28-2.76,5.78c-6.9,5.72-14.74,10.77-23.32,15C976.66,1038.84,975.12,1039.18,973.58,1039.18z M1043.05,1038.51
			l-0.11-0.01c-2.52-0.27-4.76-1.31-6.65-3.07c-4.42-4.1-9.64-8.39-15.53-12.73c-1.79-1.45-2.7-3.33-2.7-5.51
			c0-2.47,1.02-4.46,2.94-5.73c2.07-1.45,4.42-2.2,6.92-2.2c2.39,0,4.68,0.75,6.8,2.22c5.89,4.09,11.29,8.3,16.05,12.52
			c1.76,1.46,2.71,3.51,2.71,5.9c0,2.8-1.17,5.07-3.39,6.57c-1.87,1.34-3.95,2.04-6.15,2.04H1043.05z M914.09,1031.73l-0.13-0.02
			c-2.25-0.29-4.24-1.35-5.92-3.17c-1.73-2-2.58-4.32-2.58-6.95c0-2.37,0.72-4.5,2.15-6.32c5.13-6.51,8.81-14.65,10.93-24.2
			c2.11-9.51,3.56-21.09,4.3-34.43h-3.92c-1.91,0-3.61-0.75-4.92-2.17l-0.07-0.08c-0.82-0.99-1.4-2.08-1.73-3.28
			c-0.41-0.16-0.87-0.46-1.28-0.99c-1.1-1.29-2.54-2.84-4.26-4.6c-1.74-1.74-2.78-3.97-3.06-6.62c-0.12-0.46-0.19-0.93-0.19-1.39
			c0-2.2,0.64-4.22,1.9-6.02c6.1-10,10.59-23.77,13.36-40.91c0.38-2.61,1.56-4.73,3.51-6.3c1.62-1.44,3.48-2.17,5.53-2.17H928
			l0.26,0.07c0.4,0.11,0.76,0.22,1.08,0.33c2.43,0.45,4.39,1.68,5.82,3.64c1.2,1.73,1.8,3.59,1.8,5.58c0,0.58-0.07,1.16-0.19,1.75
			c-3.03,17.64-7.73,32.73-13.97,44.9h34.92c-5.03-12.08-9.17-27.35-12.31-45.4c-0.13-0.57-0.2-1.16-0.2-1.75
			c0-1.73,0.52-3.39,1.55-4.95c1.21-2.14,3-3.53,5.3-4.11c0.74-0.16,1.41-0.23,2.06-0.23c1.54,0,3.01,0.45,4.38,1.34
			c1.98,1.37,3.15,3.3,3.56,5.76c2.56,12.73,5.85,23.89,9.76,33.1c1.26,3.08,1.89,6.3,1.89,9.59c0,1.12-0.11,2.25-0.34,3.38
			c-0.57,4.34-2.16,8.44-4.73,12.16c-0.4,0.57-0.59,1.2-0.59,1.92c-0.31,17.93-0.63,31.65-0.94,40.83
			c-0.31,9.22-0.82,16.64-1.51,22.05c-0.73,5.73-1.78,9.58-3.22,11.78c-2.25,3.84-5.9,6.1-10.78,6.65c-2.22,0.46-5.18,0.7-8.8,0.7
			h-0.94c-2.42,0-4.56-0.91-6.36-2.7c-1.68-1.68-2.84-3.86-3.44-6.47c-0.55-2.08-0.2-4.13,1.03-5.85c1.26-1.77,3.1-2.7,5.32-2.7
			h0.14c1.61,0.11,3.52,0.16,5.68,0.16c1.96,0,2.59-0.76,2.92-1.43l0.05-0.1l0.06-0.09c0.26-0.41,1.18-2.61,1.81-13.61
			c0.46-8.13,0.86-22.19,1.17-41.78h-9.98c-0.85,16.23-2.68,30.37-5.46,42.02c-2.83,11.87-7.64,22.12-14.28,30.44l-0.1,0.11
			c-1.54,1.66-3.41,2.5-5.55,2.5h-0.78V1031.73z M992.27,1008c-4.33,0-8.07-1.67-11.13-4.96c-3.01-3.25-4.54-7.21-4.54-11.78v-60.51
			c0-4.57,1.53-8.53,4.54-11.78c3.05-3.29,6.79-4.96,11.13-4.96h5.87c0-0.02,0.01-0.04,0.01-0.06c0.78-3.81,1.43-7.45,1.94-10.85
			h-20.23c-2.35,0-4.38-0.9-6.02-2.68c-1.6-1.73-2.42-3.81-2.42-6.19s0.81-4.46,2.42-6.19c1.64-1.77,3.67-2.67,6.02-2.67h64.7
			c2.35,0,4.38,0.9,6.02,2.68c1.6,1.73,2.42,3.81,2.42,6.19s-0.81,4.46-2.42,6.19c-1.64,1.77-3.67,2.67-6.02,2.67h-23.87
			c-0.04,0-0.07,0-0.09,0c-0.01,0.03-0.03,0.06-0.04,0.11c-1.14,4-2.16,7.62-3.05,10.8h15.43c4.33,0,8.07,1.67,11.13,4.96
			c3.01,3.25,4.54,7.21,4.54,11.78v60.51c0,4.57-1.53,8.53-4.54,11.78c-3.05,3.29-6.79,4.96-11.13,4.96H992.27z M1030.32,992.13
			v-10.57h-36.05v10.57H1030.32z M994.28,981.09L994.28,981.09z M1030.32,966.03v-10.4h-36.05v10.4H1030.32z M994.28,955.16
			L994.28,955.16z M994.29,940.9L994.29,940.9z M1030.32,940.44v-10.4h-36.05v10.4H1030.32z"/>
		<path class="st7" d="M1077.39,1040.37c-1.79,0-3.59-0.48-5.35-1.43c-2.36-1.14-4.33-2.93-5.78-5.29c-0.73-1.25-1.08-2.5-1.08-3.76
			c0-0.95,0.21-1.9,0.63-2.82c0.88-2.17,2.51-3.57,4.72-4.05c23.8-4.08,40.36-10.21,49.36-18.25h-46.43c-2.25,0-4.22-0.9-5.86-2.68
			c-1.6-1.73-2.42-3.81-2.42-6.19c0-2.39,0.82-4.46,2.45-6.14c1.65-1.7,3.61-2.56,5.83-2.56h55.01v-6.64c0-2.77,0.89-5.14,2.65-7.04
			c1.8-1.94,4.04-2.93,6.65-2.93c2.6,0,4.85,0.98,6.7,2.9c1.83,1.91,2.76,4.28,2.76,7.06v6.64h20.16c-0.33-0.12-0.66-0.23-0.99-0.35
			c-2.87-0.98-4.82-3-5.63-5.83c-0.38-0.99-0.57-2-0.57-3.01c0-1.33,0.27-2.61,0.82-3.8c-0.87-0.66-1.51-1.67-1.85-2.98
			c-0.52-2.07-1.21-4.2-2.03-6.36c-2.03,1.16-4.18,1.75-6.4,1.75c-0.9,0-1.8-0.13-2.68-0.39c-3.42-0.66-6.41-2.41-8.87-5.2
			l-1.54-1.66c-1.81-1.95-2.73-4.35-2.73-7.12c0-2.01,0.46-3.79,1.34-5.29h-10.17c-2.01,0-3.82-0.81-5.24-2.34
			c-1.4-1.5-2.1-3.33-2.1-5.43c0-2.09,0.71-3.92,2.1-5.43c1.31-1.41,2.95-2.21,4.78-2.32c-0.76-0.77-1.4-1.66-1.94-2.67
			c-0.91-1.79-0.98-3.67-0.23-5.44c0.8-1.91,2.28-3.06,4.16-3.25c4.91-0.67,9.75-1.58,14.35-2.71c-2.52-2.42-5.43-4.94-8.65-7.52
			l-1.04,0.42l-1.35,0.49l-0.08,0.02c-1,0.27-2.02,0.41-3.04,0.41c-2.93,0-5.63-1.51-8-4.48c-1.13-1.56-1.46-3.33-1.01-5.19
			c0.49-2,1.83-3.39,3.78-3.92c14.55-3.98,26.21-9.18,34.67-15.44c3.18-2.29,6.43-3.44,9.67-3.44c1.07,0,2.22,0.13,3.4,0.38
			l0.1,0.03c1.97,0.53,3.31,2,3.79,4.12c0.2,0.91,0.2,1.78,0.01,2.59h20.91c0.55-0.11,1.11-0.17,1.65-0.17
			c1.26,0,2.47,0.31,3.6,0.92l2.1,1.22c1.48,0.8,2.53,2.18,2.98,3.95c0.44,1.76,0.2,3.46-0.71,4.93
			c-10.42,16.23-29.56,27.88-56.98,34.75h26.58v-2.41c0-2.66,0.87-4.94,2.58-6.78c1.75-1.89,3.91-2.84,6.41-2.84
			c2.49,0,4.67,0.95,6.47,2.82c1.78,1.85,2.68,4.14,2.68,6.81v2.41h15.28c2.01,0,3.82,0.81,5.23,2.33c1.4,1.51,2.11,3.34,2.11,5.43
			c0,2.09-0.71,3.92-2.1,5.43c-1.42,1.53-3.23,2.33-5.24,2.33h-15.28v12.07c0,3.98-0.51,6.89-1.56,8.89
			c-1.1,2.09-3.07,3.81-5.87,5.12l-0.09,0.04l-0.1,0.03c-1.7,0.59-3.89,1.05-6.6,1.38c5.1,1.66,9.92,3.4,14.39,5.22
			c1.85,0.84,3.1,2.33,3.68,4.35c0.3,1.07,0.36,2.12,0.18,3.13h8.1c2.23,0,4.19,0.86,5.83,2.56c1.63,1.68,2.45,3.75,2.45,6.14
			c0,2.38-0.81,4.46-2.42,6.19c-1.64,1.77-3.62,2.67-5.86,2.67h-46.91c2.76,2.95,6.12,5.5,10.01,7.6c4.85,2.62,10.5,4.69,16.78,6.17
			c6.36,1.5,13.86,2.53,22.29,3.09c2.42,0.17,4.28,1.53,5.25,3.86c0.92,2.21,0.74,4.5-0.52,6.62c-1.38,2.49-3.29,4.55-5.66,6.08
			c-2.12,1.34-4.33,2.02-6.58,2.02c-0.45,0-0.93-0.07-1.47-0.2c-14.43-1.72-26.52-4.88-35.91-9.41
			c-9.16-4.41-16.66-10.76-22.3-18.88c-9.69,13.41-29.89,22.98-60.1,28.45C1078.87,1040.3,1078.15,1040.37,1077.39,1040.37z
			 M1147.88,946.98c4.11,3.86,7.61,7.67,10.42,11.37c0.34,0.49,0.59,0.57,0.92,0.57c3.45,0.11,6.34,0.17,8.64,0.17
			c2.65,0,4.54-0.05,5.61-0.16l0.1-0.01h0.1c0.32,0,0.53-0.03,0.67-0.05c0-0.04,0-0.09,0-0.15v-11.73L1147.88,946.98z
			 M1155.93,913.24c0.17,0.15,0.32,0.24,0.41,0.24c0.04,0,0.09-0.01,0.16-0.03c1.38-0.53,3.03-1.16,4.96-1.91
			c-3.06-2.74-6.81-5.51-11.16-8.25c-0.24-0.16-0.35-0.16-0.38-0.16c-0.09,0-0.22,0.04-0.36,0.1l-0.09,0.04l-0.09,0.03
			c-0.09,0.03-0.56,0.23-2.87,1.28C1150.29,907.56,1153.44,910.46,1155.93,913.24z M1165.97,899.19c2.9,2.02,5.5,4.02,7.75,5.98
			c0.12,0.11,0.19,0.17,0.23,0.19c0.02-0.01,0.05-0.03,0.09-0.05c2.97-1.93,5.69-3.98,8.09-6.12H1165.97z M1075.2,980.71
			c-2.04,0-3.94-0.52-5.66-1.56c-1.93-1.16-3.11-2.95-3.39-5.19c-0.28-2.14,0.27-4.19,1.61-6.08c4.19-5.68,6.33-12.82,6.38-21.24
			h-2.55c-2.15,0-4.01-0.84-5.55-2.51c-1.5-1.61-2.26-3.58-2.26-5.85c0-2.26,0.76-4.23,2.26-5.85c1.54-1.66,3.41-2.5,5.55-2.5h27.84
			v-7.01h-12.13c-4.33,0-8.07-1.67-11.13-4.96c-3.01-3.25-4.54-7.21-4.54-11.78v-14.75c0-2.45,0.82-4.54,2.45-6.22
			c1.64-1.7,3.63-2.56,5.91-2.56s4.27,0.86,5.91,2.56c1.62,1.68,2.45,3.77,2.45,6.22v14.78h11.08v-19.36c0-2.56,0.88-4.76,2.6-6.56
			c1.75-1.81,3.84-2.73,6.23-2.73c2.4,0,4.48,0.93,6.18,2.76c1.66,1.79,2.5,3.99,2.5,6.53v82.54c0,2.54-0.84,4.74-2.5,6.53
			c-1.7,1.83-3.78,2.76-6.18,2.76c-2.39,0-4.49-0.92-6.23-2.73c-1.72-1.79-2.6-3.99-2.6-6.56v-22.74h-8.09v0.2
			c0,12.13-2.98,22.34-8.87,30.34c-1.44,1.97-3.49,3.13-5.94,3.33C1076.09,980.65,1075.64,980.71,1075.2,980.71z"/>
	</g>
</g>
<path class="st8" d="M816.15,1048.89h-74.22c-28.48,0-51.56-23.09-51.56-51.56V923.1c0-28.48,23.09-51.56,51.56-51.56h74.22
	c28.48,0,51.56,23.09,51.56,51.56v74.22C867.71,1025.8,844.62,1048.89,816.15,1048.89z"/>
</svg>
