<?xml version="1.0" encoding="utf-8"?>
<!-- Generator: Adobe Illustrator 23.0.5, SVG Export Plug-In . SVG Version: 6.00 Build 0)  -->
<svg version="1.1" id="圖層_1" xmlns="http://www.w3.org/2000/svg" xmlns:xlink="http://www.w3.org/1999/xlink" x="0px" y="0px"
	 viewBox="0 0 1920 1080" style="enable-background:new 0 0 1920 1080;" xml:space="preserve">
<style type="text/css">
	.st0{fill:#EB7976;}
	.st1{fill:#280A0C;}
	.st2{fill:#F5E9DB;stroke:#42210B;stroke-miterlimit:10;}
	.st3{fill:#7C4F86;}
	.st4{fill:#EDD0A9;}
	.st5{fill:none;stroke:#C88F60;stroke-width:2;stroke-miterlimit:10;}
	.st6{fill:#E8B05D;}
	.st7{fill:none;stroke:#42210B;stroke-miterlimit:10;}
	.st8{fill:none;}
	.st9{fill:#FFFFFF;stroke:#000000;stroke-width:3;stroke-miterlimit:10;}
	.st10{fill:#FFFFFF;stroke:#000000;stroke-width:6;stroke-miterlimit:10;}
</style>
<g>
	<path class="st0" d="M1717.22,967.14c-1.75,20.66-19.82,35.97-40.36,34.2c-77.2-6.65-180.27-14.9-301.4-22.83
		c-334.69-21.92-528.25-33.98-771.73-19.94c-89.42,5.15-213.8,15.45-363.02,38.24c-21.41,3.27-41.1-12.39-42.82-34.11
		c-18.34-231.06-36.68-462.11-55.02-693.17c-1.58-19.86,12.54-37.49,32.16-40.17c80.8-11.06,191.81-21.8,323.47-21.02
		c215.91,1.28,249.84,32.16,459.07,33.75c189.02,1.44,221.52-23.31,471.27-32.22c128.7-4.59,236.77-2.18,313.48,1.17
		c21.19,0.93,37.34,19.42,35.54,40.68C1757.65,490.2,1737.43,728.67,1717.22,967.14z"/>
	<path class="st1" d="M1041.45,986.18H873.68v-39.89c11.79-8.28,44.77-29.11,91.51-29.15c40.3-0.03,69.76,15.41,82.36,23.01
		C1045.52,955.5,1043.48,970.84,1041.45,986.18z"/>
	<path class="st2" d="M1722.95,277.24c-0.14-7.99-1.69-16.25,0.92-23.8c-14.14-5.71-17.11-25.82-30.31-33.47
		c-2.35-1.36-5.14-2.45-6.36-4.9c-1.07-2.15-0.58-4.74-1.04-7.1c-2.13-10.99-22.03-11.57-22.54-22.76
		c-0.13-2.75,1.09-5.75-0.27-8.14c-1.75-3.1-6.21-2.77-9.48-4.14c-8.26-3.44-6.8-15.74-11.36-23.47c-3.03-5.14-9.27-8.17-15.16-7.37
		c-4.37,0.6-8.36,3.28-10.76,6.98l0.07-0.16c-14.95,18.48-20.91,43.01-21.08,66.84c-0.09,12.62,1.33,25.14,3.43,37.59
		c-433.41,1.74-866.83,3.48-1300.24,5.23c-0.33-26.04-2.62-51.96-8.77-77.21c-1.52-6.23-3.39-12.64-7.67-17.4
		s-11.63-7.31-17.22-4.23c-5.38,2.97-7.24,9.68-8.6,15.7c-4.67-0.28-8.82,3.46-10.64,7.8s-1.85,9.19-2.01,13.89
		c-0.04,1.17-0.14,2.47-0.96,3.3c-1.04,1.05-2.71,0.92-4.17,1.1c-7.8,1.01-9.74,11.12-12.68,18.46c-2.28,5.7-6.26,10.7-11.29,14.18
		c-7.21-0.5-11.76,8.3-11.14,15.54c0.41,4.82,2.16,9.4,3.45,14.07c-5.82,4.57-9.4,11.86-8.84,19.89
		c15.13,214.94,30.25,429.87,45.38,644.81c0.92,13.08,12.44,22.79,25.41,21.39c86.25-9.32,183.26-19.28,291.99-29.64
		c50.67-4.83,106.57-9.93,181.49-6.14c55.71,2.82,101.85,9.55,134.21,15.34c11.66-6.98,28.08-14.98,48.8-19.94
		c5.22-1.25,23.32-5.32,47.28-4.6c11.58,0.35,24.79,0.75,41.18,6.14c15.95,5.25,27.72,12.86,35.08,18.41
		c24.07-3.51,61.22-8.19,106.76-10.74c79.17-4.43,145.86-0.31,362.99,24.55c35.57,4.07,80.05,9.26,131.52,15.49
		c13.07,1.58,24.81-8.17,25.72-21.39c14.84-215.51,29.68-431.02,44.52-646.53C1722.4,286.69,1723.03,281.79,1722.95,277.24z
		 M207.27,260.34c0.16,0.96,0.34,1.92,0.51,2.88c-0.06,0.04-0.11,0.09-0.17,0.13L207.27,260.34z"/>
	<path class="st3" d="M1592.67,793.79c-1.12,20.21-19.76,34.7-39.5,30.75c-111.56-22.28-278.37-35.05-452.24,34.3
		c-34.51,13.77-65.99,29.45-94.56,46.03c-8.71-2.12-19.54-4.01-32.03-4.6c-12.37-0.58-23.22,0.27-32.03,1.53
		c-40.6-20.83-87.39-40.75-140.31-56.77c-169.36-51.27-322.5-38.71-426.09-18.48c-19.28,3.77-37.53-10.21-39.16-29.9
		c-18.44-222.17-36.89-444.34-55.33-666.51c-1.45-17.47,10.83-33.09,28.06-35.66c88.36-13.21,162.96-15.68,217.99-15.02
		c116.24,1.4,238.7,4.22,367.56,72.11c34.44,18.14,60.88,36.48,77.78,49.09c30.87-23.82,77.89-55.6,140.31-81.31
		c123.09-50.7,234.29-48.27,337.06-46.03c39.51,0.86,91.07,3.82,151.46,12.3c17,2.39,29.32,17.54,28.36,34.78
		C1617.56,344.87,1605.11,569.33,1592.67,793.79z"/>
	<path class="st4" d="M951.01,833.29c0.2,9.1-8.88,15.45-17.28,12.08c-56.53-22.73-131.5-46.42-221.72-58.63
		c-105.23-14.24-194.91-7.94-259.28,1.53c-1.4-6.3-7.22-29.01-28.98-46.03c-21.94-17.15-45.49-17.1-51.86-16.88
		c-13.22-174.39-26.44-348.78-39.65-523.16c7.3-1.75,24.75-7,39.65-23.01c20-21.5,21.23-47.17,21.35-53.7
		c59.75-8.93,145.62-15.84,247.08-3.07c135.74,17.09,228.77,22.88,282.15,88.98c41.47,51.35,33.44,105.03,28.98,282.29
		C949.34,578.22,947.94,693.86,951.01,833.29z"/>
	<path class="st4" d="M987.68,833.29c-0.2,9.1,8.88,15.45,17.28,12.08c56.53-22.73,131.5-46.42,221.72-58.63
		c105.23-14.24,194.91-7.94,259.28,1.53c1.4-6.3,7.22-29.01,28.98-46.03c21.94-17.15,45.49-17.1,51.86-16.88
		c13.22-174.39,26.44-348.78,39.65-523.16c-7.3-1.75-24.75-7-39.65-23.01c-20-21.5-21.23-47.17-21.35-53.7
		c-59.75-8.93-145.62-15.84-247.08-3.07c-135.74,17.09-228.77,22.88-282.15,88.98c-41.47,51.35-33.44,105.03-28.98,282.29
		C989.35,578.22,990.75,693.86,987.68,833.29z"/>
	<path class="st5" d="M381.06,357.16c65.57-15.14,161.88-29.65,277.58-19.94c109.83,9.22,198.43,37.01,259.28,61.37"/>
	<path class="st5" d="M396.31,573.48c68.52-15.3,166-29.15,282.15-19.94c97.99,7.76,179.36,29.55,239.45,50.63"/>
	<path class="st5" d="M1550.85,347.95c-65.57-15.14-161.88-29.65-277.58-19.94c-109.83,9.22-198.43,37.01-259.28,61.37"/>
	<path class="st5" d="M1535.6,564.27c-68.52-15.3-166-29.15-282.15-19.94c-97.99,7.76-179.36,29.55-239.45,50.63"/>
	<g>
		<path class="st6" d="M332.03,169.42c-2.55-0.86-2.59-5.01-0.37-6.53s5.41-0.73,7.39,1.1c4.51,4.14,3.28,12.45-1.75,15.93
			c-5.03,3.48-12.34,2.32-16.89-1.76c-4.55-4.09-6.56-10.49-6.44-16.63c0.05-2.77,0.56-5.67,2.32-7.81c4.5-5.45,14.03-2.9,19.3-7.6
			c-4.03-4.05-8.06-8.09-12.09-12.14c-2.06-2.07-4.17-4.22-5.24-6.94s-0.82-6.19,1.38-8.11c1.38-1.21,3.28-1.62,5.1-1.88
			c7.2-1,14.64-0.19,21.47,2.33c0.12,1.4-1.48,2.35-2.88,2.39c-1.4,0.04-2.79-0.46-4.17-0.25c-3.25,0.48-4.78,4.67-3.85,7.84
			c0.92,3.17,3.43,5.57,5.62,8.04c3.36,3.8,6.23,8.15,10.37,11.07c4.14,2.92,10.16,4,14.1,0.82c3.73-3.01,4.21-8.53,3.7-13.31
			c-0.3-2.82-1.35-6.17-4.1-6.79c-1.37-0.31-2.85,0.19-4.2-0.19c-2.85-0.8-3.25-5.15-1.25-7.35c2-2.2,5.23-2.68,8.19-2.7
			c2.25-0.02,4.57,0.17,6.58,1.17c3.41,1.69,5.35,5.37,6.7,8.94c3.74,9.88,4.44,21.76-1.61,30.4s-20.3,11.37-27.13,3.34
			c-1.31-1.54-2.29-3.36-3.74-4.77c-2.94-2.85-7.33-3.56-11.42-3.55c-2.95,0.01-6,0.35-8.53,1.87c-2.53,1.52-4.38,4.49-3.85,7.4
			c0.53,2.92,4.04,5.11,6.63,3.7c1.37-0.75,2.3-2.3,3.83-2.64c3.22-0.71,4.55,4.01,4.37,7.32"/>
	</g>
	<g>
		<path class="st6" d="M379.31,744.41c-2.55,0.86-2.59,5.01-0.37,6.53c2.22,1.52,5.41,0.73,7.39-1.1
			c4.51-4.14,3.28-12.45-1.75-15.93s-12.34-2.32-16.89,1.76s-6.56,10.49-6.44,16.63c0.05,2.77,0.56,5.67,2.32,7.81
			c4.5,5.45,14.03,2.9,19.3,7.59c-4.03,4.05-8.06,8.09-12.09,12.14c-2.06,2.07-4.17,4.22-5.24,6.94c-1.07,2.72-0.82,6.19,1.38,8.11
			c1.38,1.21,3.28,1.62,5.1,1.88c7.2,1,14.64,0.19,21.47-2.33c0.12-1.4-1.48-2.35-2.88-2.39s-2.79,0.46-4.17,0.25
			c-3.25-0.48-4.78-4.67-3.85-7.84c0.92-3.17,3.43-5.57,5.62-8.04c3.36-3.8,6.23-8.15,10.37-11.07c4.14-2.92,10.16-4,14.1-0.82
			c3.73,3.01,4.21,8.53,3.7,13.31c-0.3,2.82-1.35,6.17-4.1,6.79c-1.37,0.31-2.85-0.19-4.2,0.19c-2.85,0.8-3.25,5.15-1.25,7.35
			c2,2.2,5.23,2.68,8.19,2.7c2.25,0.02,4.57-0.17,6.58-1.17c3.41-1.69,5.35-5.37,6.7-8.94c3.74-9.88,4.44-21.76-1.61-30.4
			c-6.05-8.64-20.3-11.37-27.13-3.34c-1.31,1.54-2.29,3.36-3.74,4.77c-2.94,2.85-7.33,3.56-11.42,3.55c-2.95-0.01-6-0.35-8.53-1.87
			c-2.53-1.52-4.38-4.49-3.85-7.4s4.04-5.11,6.63-3.7c1.37,0.75,2.3,2.3,3.83,2.64c3.22,0.71,4.55-4.01,4.37-7.32"/>
	</g>
	<g>
		<path class="st6" d="M1605.6,166.81c2.39-0.72,2.43-4.21,0.35-5.49c-2.08-1.28-5.07-0.61-6.93,0.92
			c-4.23,3.48-3.08,10.47,1.64,13.4c4.71,2.93,11.57,1.96,15.84-1.48c4.27-3.44,6.15-8.82,6.04-13.98
			c-0.05-2.33-0.53-4.77-2.18-6.56c-4.22-4.59-13.15-2.44-18.1-6.39c3.78-3.4,7.55-6.81,11.33-10.21c1.93-1.74,3.91-3.55,4.91-5.83
			c1-2.29,0.77-5.21-1.29-6.82c-1.3-1.02-3.08-1.37-4.78-1.58c-6.75-0.84-13.73-0.16-20.13,1.96c-0.12,1.18,1.39,1.98,2.7,2.01
			s2.61-0.38,3.91-0.21c3.05,0.4,4.48,3.93,3.61,6.59c-0.87,2.67-3.22,4.69-5.27,6.76c-3.15,3.19-5.84,6.85-9.72,9.31
			c-3.88,2.45-9.53,3.37-13.22,0.69c-3.5-2.53-3.95-7.17-3.47-11.19c0.28-2.37,1.26-5.19,3.84-5.71c1.29-0.26,2.67,0.16,3.94-0.16
			c2.67-0.67,3.05-4.33,1.18-6.18c-1.87-1.85-4.91-2.25-7.68-2.27c-2.11-0.01-4.28,0.14-6.17,0.98c-3.2,1.42-5.01,4.51-6.28,7.52
			c-3.51,8.3-4.16,18.3,1.51,25.57c5.67,7.27,19.03,9.56,25.43,2.81c1.23-1.3,2.15-2.83,3.51-4.01c2.76-2.4,6.88-2.99,10.71-2.98
			c2.76,0.01,5.63,0.29,8,1.57c2.37,1.28,4.11,3.77,3.61,6.22c-0.5,2.45-3.79,4.3-6.22,3.11c-1.29-0.63-2.16-1.93-3.59-2.22
			c-3.02-0.6-4.26,3.37-4.1,6.16"/>
	</g>
	<g>
		<path class="st6" d="M1550.69,757.4c2.39,0.72,2.43,4.21,0.35,5.49c-2.08,1.28-5.07,0.61-6.93-0.92
			c-4.23-3.48-3.08-10.47,1.64-13.4c4.71-2.93,11.57-1.96,15.84,1.48c4.27,3.44,6.15,8.82,6.04,13.98
			c-0.05,2.33-0.53,4.77-2.18,6.56c-4.22,4.59-13.15,2.44-18.1,6.39c3.78,3.4,7.55,6.81,11.33,10.21c1.93,1.74,3.91,3.55,4.91,5.83
			c1,2.29,0.77,5.21-1.29,6.82c-1.3,1.02-3.08,1.37-4.78,1.58c-6.75,0.84-13.73,0.16-20.13-1.96c-0.12-1.18,1.39-1.98,2.7-2.01
			c1.31-0.03,2.61,0.38,3.91,0.21c3.05-0.4,4.48-3.93,3.61-6.59c-0.87-2.67-3.22-4.69-5.27-6.76c-3.15-3.19-5.84-6.85-9.72-9.31
			c-3.88-2.45-9.53-3.37-13.22-0.69c-3.5,2.53-3.95,7.17-3.47,11.19c0.28,2.37,1.26,5.19,3.84,5.71c1.29,0.26,2.67-0.16,3.94,0.16
			c2.67,0.67,3.05,4.33,1.18,6.18c-1.87,1.85-4.91,2.25-7.68,2.27c-2.11,0.01-4.28-0.14-6.17-0.98c-3.2-1.42-5.01-4.51-6.28-7.52
			c-3.51-8.3-4.16-18.3,1.51-25.57c5.67-7.27,19.03-9.56,25.43-2.81c1.23,1.3,2.15,2.83,3.51,4.01c2.76,2.4,6.88,2.99,10.71,2.98
			c2.76-0.01,5.63-0.29,8-1.57c2.37-1.28,4.11-3.77,3.61-6.22c-0.5-2.45-3.79-4.3-6.22-3.11c-1.29,0.63-2.16,1.93-3.59,2.22
			c-3.02,0.6-4.26-3.37-4.1-6.16"/>
	</g>
	<line class="st7" x1="206.43" y1="256.67" x2="261.33" y2="922.51"/>
	<path class="st7" d="M261.33,922.51c2,5.09,5.95,12.79,13.73,16.88c13.11,6.89,29.3-0.55,35.08-3.07
		c14.65-6.4,65.18-15.51,166.24-33.75c14.16-2.56,36.31-6.2,64.06-9.21"/>
	<line class="st7" x1="222.44" y1="252.83" x2="286.5" y2="912.54"/>
	<line class="st7" x1="245.32" y1="226.75" x2="293.36" y2="716.93"/>
	<line class="st7" x1="300.99" y1="603.4" x2="329.96" y2="893.36"/>
	<line class="st7" x1="267.43" y1="221.38" x2="296.41" y2="511.34"/>
	<path class="st7" d="M400.88,854.24c66.79-9.05,152.03-14.56,250.13-6.14c91.75,7.88,170.09,25.84,231.82,44.49"/>
	<path class="st7" d="M405.46,877.25c53.47-7.01,115.85-11.53,185.34-9.85c56.84,1.38,108.5,6.67,154,13.68"/>
	<line class="st7" x1="1706.42" y1="242.86" x2="1651.51" y2="908.7"/>
	<line class="st7" x1="1690.4" y1="239.02" x2="1626.35" y2="898.73"/>
	<line class="st7" x1="1663.74" y1="212.6" x2="1623.27" y2="703.47"/>
	<path class="st7" d="M1568.39,854.24c-66.79-9.05-152.03-14.56-250.13-6.14c-91.75,7.88-170.09,25.84-231.82,44.49"/>
	<path class="st7" d="M1507.38,895.66c-53.47-7.01-115.85-11.53-185.34-9.85c-56.84,1.38-108.5,6.67-154,13.68"/>
	<path class="st0" d="M1061.28,980.04c-14.51,8.8-55.35,30.95-111.34,27.62c-56.73-3.38-95.03-30.92-108.29-41.42
		c-11.66-13.25-9.41-29.97-1.53-35.29c5.63-3.8,15-2.36,22.88,3.07c3.89,5.7,33.95,48.16,88.46,52.16
		c43.59,3.2,86.01-19.43,109.81-58.3c9.77-4.49,13.72-2.66,15.25-1.53c7.37,5.42,1.69,26.02-4.58,38.36
		C1068.4,971.69,1064.27,976.79,1061.28,980.04z"/>
</g>
<g>
	<path d="M1044.12,638.63c2.38-1.64,5.09-4.29,5.09-7.79c-0.58,0.32-1.11,0.53-1.75,0.53c-2.33,0-3.82-1.7-3.82-3.5
		c0-2.07,1.27-3.82,3.82-3.82c2.07,0,4.56,1.33,4.56,5.3c0,4.24-2.97,7.58-7.1,10.39L1044.12,638.63z"/>
	<path d="M1090.34,651.53c-4.37,0-7.83-1.36-10.4-4.08c-2.57-2.72-3.86-5.9-3.86-9.56c0-3.93,1.34-7.21,4.02-9.83
		c2.68-2.62,6.17-3.93,10.47-3.93c4.33,0,7.81,1.29,10.44,3.88s3.95,5.83,3.95,9.73c0,3.93-1.33,7.22-4,9.85
		C1098.3,650.21,1094.75,651.53,1090.34,651.53z M1090.49,645.26c1.6,0,2.58-0.83,2.94-2.5c0.35-1.67,0.53-3.4,0.53-5.21
		c0-2.47-0.25-4.24-0.75-5.33s-1.4-1.63-2.69-1.63c-1.19,0-2.06,0.56-2.61,1.68c-0.55,1.12-0.83,2.97-0.83,5.54
		c0,3.02,0.28,5.02,0.85,5.99S1089.36,645.26,1090.49,645.26z"/>
	<path d="M1125.12,624.66v6.7h-5.25v9.71c0,1.33,0.25,2.12,0.75,2.37c0.5,0.25,1.02,0.38,1.55,0.38c0.83,0,1.81-0.15,2.95-0.44v7.35
		c-2.04,0.4-4.04,0.6-6,0.6c-3.17,0-5.51-0.68-7-2.04c-1.49-1.36-2.24-3.54-2.24-6.52l0.03-3.08v-8.31h-3.93v-6.7h3.93l0.16-8.57
		l9.81-0.16v8.72H1125.12z"/>
	<path d="M1154.15,650.98h-10.33v-16.56c0-1.36-0.21-2.23-0.63-2.61c-0.42-0.38-0.95-0.57-1.59-0.57c-1.88,0-2.82,1.31-2.82,3.93
		v15.81h-10.33v-26.32h9.58v3.73c1.42-2.85,3.94-4.27,7.58-4.27c1.91,0,3.53,0.37,4.85,1.1c1.32,0.73,2.26,1.68,2.83,2.85
		s0.85,3.19,0.85,6.07V650.98z"/>
	<path d="M1169.8,614.54v8.18h-10.33v-8.18H1169.8z M1169.8,624.66v26.32h-10.33v-26.32H1169.8z"/>
	<path d="M1204.53,624.66v6.7h-5.25v9.71c0,1.33,0.25,2.12,0.75,2.37c0.5,0.25,1.02,0.38,1.55,0.38c0.83,0,1.81-0.15,2.95-0.44v7.35
		c-2.04,0.4-4.04,0.6-6,0.6c-3.17,0-5.51-0.68-7-2.04c-1.49-1.36-2.24-3.54-2.24-6.52l0.03-3.08v-8.31h-3.93v-6.7h3.93l0.16-8.57
		l9.81-0.16v8.72H1204.53z"/>
	<path d="M1218.99,631.37v19.62h-9.73v-19.62h-3.93v-6.7h3.93c0-2.17,0.09-3.78,0.28-4.83c0.19-1.04,0.66-2.04,1.42-3
		c0.76-0.96,1.78-1.69,3.05-2.2c1.28-0.51,2.99-0.76,5.15-0.76c2.31,0,4.53,0.18,6.65,0.54v6.75c-1.64-0.22-2.86-0.34-3.67-0.34
		s-1.55,0.16-2.23,0.49c-0.67,0.33-1.01,1.13-1.01,2.41v0.93h6.73v6.7H1218.99z"/>
	<path d="M1255.07,650.98h-9.83c-0.24-1.12-0.36-2.35-0.36-3.68c-1.86,2.81-4.68,4.22-8.46,4.22c-3.11,0-5.43-0.79-6.97-2.38
		c-1.54-1.59-2.32-3.41-2.32-5.46c0-2.78,1.26-5.02,3.79-6.74s7.01-2.75,13.44-3.09v-0.59c0-1.16-0.26-1.92-0.79-2.3
		c-0.53-0.38-1.3-0.57-2.32-0.57c-2.38,0-3.71,0.96-3.98,2.87l-9.42-0.88c1.35-5.5,5.93-8.26,13.74-8.26c2.12,0,4.07,0.21,5.85,0.63
		s3.18,1.08,4.22,1.98s1.73,1.85,2.08,2.85c0.35,1,0.53,2.92,0.53,5.77v10.51C1254.26,647.86,1254.53,649.57,1255.07,650.98z
		 M1244.35,638.66c-4.4,0.46-6.6,1.87-6.6,4.22c0,1.59,0.87,2.38,2.61,2.38c1.1,0,2.04-0.33,2.82-0.98c0.78-0.66,1.16-2.1,1.16-4.35
		V638.66z"/>
	<path d="M1285.37,650.98h-10.33v-15.84c0-1.45-0.16-2.45-0.48-2.99c-0.32-0.54-0.93-0.81-1.84-0.81c-0.7,0-1.32,0.21-1.84,0.63
		c-0.52,0.42-0.83,0.86-0.91,1.31c-0.09,0.45-0.13,1.39-0.13,2.82v14.88h-10.33v-35.33h10.33v12.11c1.86-2.43,4.3-3.65,7.3-3.65
		c1.52,0,2.85,0.26,4,0.79c1.15,0.53,2.03,1.2,2.65,2.03s1.04,1.63,1.26,2.41c0.21,0.78,0.32,2.28,0.32,4.5V650.98z"/>
	<path d="M1288.39,643.53l8.15-1.11c0.47,1.9,2.31,2.85,5.54,2.85c2.67,0,4.01-0.52,4.01-1.55c0-0.45-0.26-0.8-0.78-1.05
		s-1.74-0.5-3.68-0.76c-5.35-0.74-8.69-1.9-10.01-3.48c-1.33-1.58-1.99-3.33-1.99-5.27c0-2.69,1.12-4.87,3.37-6.53
		c2.24-1.67,5.18-2.5,8.82-2.5c6.38,0,10.46,2.3,12.21,6.91l-7.82,1.47c-0.72-1.55-2.25-2.33-4.58-2.33c-1.1,0-1.93,0.15-2.47,0.45
		c-0.54,0.3-0.82,0.6-0.82,0.89c0,0.86,0.83,1.39,2.49,1.57c4.31,0.48,7.24,0.97,8.77,1.47c1.54,0.5,2.85,1.42,3.93,2.75
		c1.09,1.33,1.63,2.93,1.63,4.82c0,2.88-1.2,5.17-3.61,6.86c-2.41,1.69-5.72,2.54-9.95,2.54
		C1294.49,651.53,1290.08,648.86,1288.39,643.53z"/>
	<path d="M1341.72,650.98h-9.89v-26.32h8.59v5.43c0.98-3.95,3.27-5.93,6.86-5.93c0.36,0,0.86,0.03,1.5,0.1v9.19
		c-0.72-0.17-1.37-0.26-1.94-0.26c-3.42,0-5.12,1.91-5.12,5.72V650.98z"/>
	<path d="M1369.33,641.54l9.63,0.65c-0.57,2.59-2.02,4.79-4.36,6.61s-5.5,2.73-9.48,2.73c-4.43,0-7.97-1.28-10.61-3.84
		c-2.64-2.56-3.96-5.74-3.96-9.54c0-3.93,1.3-7.25,3.91-9.96c2.6-2.71,6.08-4.06,10.43-4.06c4.21,0,7.61,1.28,10.21,3.83
		c2.6,2.55,3.89,6.03,3.89,10.43c0,0.36-0.01,0.86-0.03,1.5h-17.62c0.04,1.66,0.33,2.89,0.88,3.69c0.55,0.8,1.6,1.2,3.16,1.2
		C1367.62,644.77,1368.94,643.69,1369.33,641.54z M1368.64,634.7c-0.02-1.78-0.38-2.97-1.07-3.58c-0.7-0.61-1.56-0.92-2.59-0.92
		c-2.44,0-3.66,1.5-3.66,4.5H1368.64z"/>
	<path d="M1408.77,650.98h-10.33v-15.84c0-1.45-0.16-2.45-0.48-2.99c-0.32-0.54-0.93-0.81-1.84-0.81c-0.7,0-1.32,0.21-1.84,0.63
		c-0.52,0.42-0.83,0.86-0.91,1.31c-0.09,0.45-0.13,1.39-0.13,2.82v14.88h-10.33v-35.33h10.33v12.11c1.86-2.43,4.3-3.65,7.3-3.65
		c1.52,0,2.85,0.26,4,0.79c1.15,0.53,2.03,1.2,2.65,2.03s1.04,1.63,1.26,2.41c0.21,0.78,0.32,2.28,0.32,4.5V650.98z"/>
	<path d="M1430.38,624.66v6.7h-5.25v9.71c0,1.33,0.25,2.12,0.75,2.37c0.5,0.25,1.02,0.38,1.55,0.38c0.83,0,1.81-0.15,2.95-0.44v7.35
		c-2.04,0.4-4.04,0.6-6,0.6c-3.18,0-5.51-0.68-7-2.04c-1.49-1.36-2.24-3.54-2.24-6.52l0.03-3.08v-8.31h-3.93v-6.7h3.93l0.15-8.57
		l9.81-0.16v8.72H1430.38z"/>
	<path d="M1446.58,651.53c-4.37,0-7.83-1.36-10.4-4.08c-2.57-2.72-3.86-5.9-3.86-9.56c0-3.93,1.34-7.21,4.02-9.83
		c2.68-2.62,6.17-3.93,10.47-3.93c4.33,0,7.81,1.29,10.44,3.88s3.95,5.83,3.95,9.73c0,3.93-1.33,7.22-4,9.85
		C1454.53,650.21,1450.99,651.53,1446.58,651.53z M1446.73,645.26c1.6,0,2.58-0.83,2.94-2.5c0.35-1.67,0.53-3.4,0.53-5.21
		c0-2.47-0.25-4.24-0.75-5.33c-0.5-1.09-1.4-1.63-2.69-1.63c-1.19,0-2.06,0.56-2.61,1.68s-0.83,2.97-0.83,5.54
		c0,3.02,0.28,5.02,0.85,5.99C1444.74,644.78,1445.59,645.26,1446.73,645.26z"/>
	<path d="M1041.97,705.14l9.63,0.65c-0.57,2.59-2.02,4.79-4.36,6.61s-5.5,2.73-9.48,2.73c-4.43,0-7.97-1.28-10.61-3.84
		c-2.64-2.56-3.96-5.74-3.96-9.54c0-3.93,1.3-7.25,3.91-9.96c2.6-2.71,6.08-4.06,10.43-4.06c4.21,0,7.61,1.28,10.21,3.83
		s3.89,6.03,3.89,10.43c0,0.36-0.01,0.86-0.03,1.5h-17.62c0.03,1.66,0.33,2.88,0.88,3.69c0.55,0.8,1.6,1.2,3.16,1.2
		C1040.26,708.37,1041.58,707.29,1041.97,705.14z M1041.27,698.3c-0.02-1.78-0.37-2.97-1.07-3.58s-1.56-0.92-2.59-0.92
		c-2.44,0-3.66,1.5-3.66,4.5H1041.27z"/>
	<path d="M1081.41,714.58h-10.33v-15.84c0-1.45-0.16-2.45-0.48-2.99c-0.32-0.54-0.93-0.82-1.84-0.82c-0.71,0-1.32,0.21-1.84,0.63
		s-0.83,0.86-0.91,1.31c-0.09,0.45-0.13,1.39-0.13,2.82v14.88h-10.33v-35.32h10.33v12.11c1.86-2.43,4.3-3.65,7.3-3.65
		c1.52,0,2.85,0.26,4,0.79s2.03,1.2,2.65,2.03s1.04,1.63,1.25,2.41s0.32,2.28,0.32,4.5V714.58z"/>
	<path d="M1103.02,688.26v6.7h-5.25v9.7c0,1.33,0.25,2.12,0.75,2.37c0.5,0.25,1.02,0.38,1.55,0.38c0.83,0,1.81-0.15,2.95-0.44v7.35
		c-2.04,0.4-4.04,0.59-6,0.59c-3.17,0-5.51-0.68-7-2.04c-1.49-1.36-2.24-3.54-2.24-6.52l0.03-3.08v-8.31h-3.93v-6.7h3.93l0.16-8.57
		l9.81-0.16v8.72H1103.02z"/>
	<path d="M1145.19,714.58h-10.33v-16.56c0-1.36-0.21-2.23-0.63-2.61c-0.42-0.38-0.95-0.57-1.59-0.57c-1.88,0-2.82,1.31-2.82,3.93
		v15.81h-10.33v-26.32h9.58v3.73c1.41-2.85,3.94-4.27,7.58-4.27c1.92,0,3.53,0.37,4.85,1.1c1.32,0.73,2.26,1.68,2.83,2.85
		c0.57,1.17,0.85,3.19,0.85,6.07V714.58z"/>
	<path d="M1160.41,714.58h-9.88v-26.32h8.59v5.43c0.98-3.95,3.27-5.93,6.86-5.93c0.36,0,0.86,0.04,1.5,0.1v9.19
		c-0.72-0.17-1.37-0.26-1.94-0.26c-3.42,0-5.13,1.91-5.13,5.72V714.58z"/>
	<path d="M1196.22,688.26v26.32h-9.55v-4.32c-1.4,3.24-4.12,4.87-8.18,4.87c-2.5,0-4.44-0.69-5.81-2.08
		c-1.37-1.39-2.06-3.38-2.06-5.96v-18.81h10.33v16.56c0,1.04,0.14,1.76,0.43,2.19s0.84,0.63,1.67,0.63c0.88,0,1.6-0.31,2.15-0.94
		c0.55-0.63,0.83-1.51,0.83-2.65v-15.79H1196.22z"/>
	<path d="M1217.8,688.26v6.7h-5.25v9.7c0,1.33,0.25,2.12,0.75,2.37c0.5,0.25,1.02,0.38,1.55,0.38c0.83,0,1.81-0.15,2.95-0.44v7.35
		c-2.04,0.4-4.04,0.59-6,0.59c-3.17,0-5.51-0.68-7-2.04c-1.49-1.36-2.24-3.54-2.24-6.52l0.03-3.08v-8.31h-3.93v-6.7h3.93l0.16-8.57
		l9.81-0.16v8.72H1217.8z"/>
	<path d="M1238.53,705.14l9.63,0.65c-0.57,2.59-2.02,4.79-4.36,6.61s-5.5,2.73-9.48,2.73c-4.43,0-7.97-1.28-10.61-3.84
		c-2.64-2.56-3.96-5.74-3.96-9.54c0-3.93,1.3-7.25,3.91-9.96s6.08-4.06,10.43-4.06c4.21,0,7.61,1.28,10.21,3.83
		s3.89,6.03,3.89,10.43c0,0.36-0.01,0.86-0.03,1.5h-17.62c0.03,1.66,0.33,2.88,0.88,3.69c0.55,0.8,1.61,1.2,3.16,1.2
		C1236.81,708.37,1238.13,707.29,1238.53,705.14z M1237.83,698.3c-0.02-1.78-0.37-2.97-1.07-3.58c-0.7-0.61-1.56-0.92-2.59-0.92
		c-2.44,0-3.66,1.5-3.66,4.5H1237.83z"/>
	<path d="M1262,714.58h-9.89v-26.32h8.59v5.43c0.98-3.95,3.27-5.93,6.86-5.93c0.36,0,0.86,0.04,1.5,0.1v9.19
		c-0.72-0.17-1.37-0.26-1.94-0.26c-3.42,0-5.12,1.91-5.12,5.72V714.58z"/>
	<path d="M1295.53,679.26v35.32h-10.17v-35.32H1295.53z"/>
	<path d="M1311.03,679.26v35.32h-10.17v-35.32H1311.03z"/>
	<path d="M1326.69,678.14v8.18h-10.33v-8.18H1326.69z M1326.69,688.26v26.32h-10.33v-26.32H1326.69z"/>
	<path d="M1368.3,688.26l-8.33,26.32h-7.43l-3.45-14.26l-3.6,14.26h-7.35l-8.49-26.32h10.14l3.47,12.89l3.31-12.89h7.64l3.26,12.88
		l3.64-12.88H1368.3z"/>
	<path d="M1401.81,705.14l9.63,0.65c-0.57,2.59-2.02,4.79-4.36,6.61s-5.5,2.73-9.48,2.73c-4.43,0-7.97-1.28-10.61-3.84
		c-2.64-2.56-3.96-5.74-3.96-9.54c0-3.93,1.3-7.25,3.91-9.96c2.6-2.71,6.08-4.06,10.43-4.06c4.21,0,7.61,1.28,10.21,3.83
		c2.6,2.55,3.89,6.03,3.89,10.43c0,0.36-0.01,0.86-0.03,1.5h-17.62c0.04,1.66,0.33,2.88,0.88,3.69c0.55,0.8,1.6,1.2,3.16,1.2
		C1400.09,708.37,1401.41,707.29,1401.81,705.14z M1401.11,698.3c-0.02-1.78-0.38-2.97-1.07-3.58c-0.7-0.61-1.56-0.92-2.59-0.92
		c-2.44,0-3.66,1.5-3.66,4.5H1401.11z"/>
	<path d="M1425.28,714.58h-9.89v-26.32h8.59v5.43c0.98-3.95,3.27-5.93,6.86-5.93c0.36,0,0.86,0.04,1.5,0.1v9.19
		c-0.72-0.17-1.37-0.26-1.94-0.26c-3.42,0-5.12,1.91-5.12,5.72V714.58z"/>
	<path d="M1452.88,705.14l9.63,0.65c-0.57,2.59-2.02,4.79-4.36,6.61s-5.5,2.73-9.48,2.73c-4.43,0-7.97-1.28-10.61-3.84
		c-2.64-2.56-3.96-5.74-3.96-9.54c0-3.93,1.3-7.25,3.91-9.96c2.6-2.71,6.08-4.06,10.43-4.06c4.21,0,7.61,1.28,10.21,3.83
		s3.89,6.03,3.89,10.43c0,0.36-0.01,0.86-0.03,1.5h-17.62c0.03,1.66,0.33,2.88,0.88,3.69c0.55,0.8,1.6,1.2,3.16,1.2
		C1451.17,708.37,1452.49,707.29,1452.88,705.14z M1452.19,698.3c-0.02-1.78-0.37-2.97-1.07-3.58s-1.56-0.92-2.59-0.92
		c-2.44,0-3.66,1.5-3.66,4.5H1452.19z"/>
	<path d="M1492.32,714.58H1482v-15.84c0-1.45-0.16-2.45-0.48-2.99c-0.32-0.54-0.93-0.82-1.84-0.82c-0.71,0-1.32,0.21-1.84,0.63
		s-0.83,0.86-0.91,1.31c-0.09,0.45-0.13,1.39-0.13,2.82v14.88h-10.33v-35.32h10.33v12.11c1.86-2.43,4.3-3.65,7.3-3.65
		c1.52,0,2.85,0.26,4,0.79s2.03,1.2,2.65,2.03s1.04,1.63,1.25,2.41s0.32,2.28,0.32,4.5V714.58z"/>
	<path d="M1512.56,687.72v26.86h-10.27v-26.86h-7.32v-8.46h24.92v8.46H1512.56z"/>
</g>
<g>
	<path d="M1049.13,435.35h-11.19v-29.79h9.73v6.15c1.11-4.47,3.7-6.71,7.76-6.71c0.41,0,0.98,0.04,1.7,0.12v10.4
		c-0.82-0.19-1.55-0.29-2.2-0.29c-3.87,0-5.8,2.16-5.8,6.47V435.35z"/>
	<path d="M1080.51,424.66l10.9,0.73c-0.64,2.93-2.29,5.42-4.94,7.49c-2.65,2.06-6.23,3.09-10.74,3.09c-5.02,0-9.02-1.45-12.01-4.35
		s-4.48-6.5-4.48-10.8c0-4.45,1.47-8.21,4.42-11.28c2.95-3.07,6.88-4.6,11.81-4.6c4.77,0,8.62,1.45,11.56,4.34
		c2.94,2.89,4.41,6.83,4.41,11.81c0,0.41-0.01,0.98-0.03,1.7h-19.95c0.04,1.88,0.37,3.27,1,4.17s1.82,1.36,3.57,1.36
		C1078.57,428.32,1080.06,427.1,1080.51,424.66z M1079.72,416.92c-0.02-2.01-0.42-3.36-1.21-4.06c-0.79-0.69-1.77-1.04-2.93-1.04
		c-2.76,0-4.15,1.7-4.15,5.1H1079.72z"/>
	<path d="M1136.23,405.56l-9.43,29.79h-8.41l-3.9-16.14l-4.07,16.14h-8.32l-9.61-29.79h11.48l3.93,14.59l3.75-14.59h8.65l3.69,14.58
		l4.13-14.58H1136.23z"/>
	<path d="M1153.43,435.97c-4.94,0-8.87-1.54-11.78-4.61s-4.37-6.68-4.37-10.83c0-4.45,1.52-8.16,4.56-11.13
		c3.04-2.97,6.99-4.45,11.85-4.45c4.9,0,8.84,1.46,11.82,4.39c2.98,2.93,4.47,6.6,4.47,11.02c0,4.45-1.51,8.17-4.53,11.15
		C1162.44,434.48,1158.43,435.97,1153.43,435.97z M1153.61,428.88c1.82,0,2.93-0.94,3.33-2.83c0.4-1.88,0.6-3.85,0.6-5.9
		c0-2.79-0.28-4.8-0.85-6.04s-1.58-1.85-3.05-1.85c-1.35,0-2.33,0.63-2.96,1.9c-0.63,1.27-0.94,3.36-0.94,6.27
		c0,3.42,0.32,5.68,0.97,6.78C1151.35,428.33,1152.32,428.88,1153.61,428.88z"/>
	<path d="M1186.21,444.76h-11.69v-39.2h10.75v4.22c1.5-3.22,4.31-4.83,8.41-4.83c3.55,0,6.34,1.38,8.35,4.15
		c2.01,2.76,3.02,6.53,3.02,11.29c0,4.77-1.03,8.55-3.09,11.37c-2.06,2.81-4.78,4.22-8.16,4.22c-3.32,0-5.85-1.27-7.59-3.81V444.76z
		 M1186.21,424.45c0,1.33,0.3,2.36,0.91,3.09s1.36,1.1,2.26,1.1c1.41,0,2.37-0.65,2.9-1.95c0.53-1.3,0.79-3.3,0.79-5.99
		c0-3.11-0.3-5.29-0.91-6.55s-1.51-1.89-2.72-1.89c-0.72,0-1.44,0.28-2.15,0.85c-0.71,0.57-1.07,1.49-1.07,2.78V424.45z"/>
	<path d="M1243.11,405.56v7.59h-5.95v10.99c0,1.5,0.28,2.4,0.85,2.68c0.57,0.28,1.15,0.42,1.76,0.42c0.94,0,2.05-0.17,3.34-0.5v8.32
		c-2.3,0.45-4.57,0.67-6.8,0.67c-3.59,0-6.24-0.77-7.92-2.31c-1.69-1.54-2.54-4-2.54-7.38l0.03-3.49v-9.4h-4.45v-7.59h4.45l0.18-9.7
		l11.1-0.18v9.87H1243.11z"/>
	<path d="M1258.2,435.35H1247v-29.79h9.73v6.15c1.11-4.47,3.7-6.71,7.76-6.71c0.41,0,0.98,0.04,1.7,0.12v10.4
		c-0.82-0.19-1.55-0.29-2.2-0.29c-3.87,0-5.8,2.16-5.8,6.47V435.35z"/>
	<path d="M1298.86,405.56v29.79h-10.81v-4.89c-1.58,3.67-4.67,5.51-9.26,5.51c-2.83,0-5.02-0.79-6.58-2.36
		c-1.55-1.57-2.33-3.82-2.33-6.75v-21.3h11.69v18.75c0,1.17,0.16,2,0.48,2.48c0.32,0.48,0.95,0.72,1.89,0.72
		c1,0,1.81-0.36,2.43-1.07c0.63-0.71,0.94-1.71,0.94-3v-17.87H1298.86z"/>
	<path d="M1324.7,424.66l10.9,0.73c-0.64,2.93-2.29,5.42-4.94,7.49c-2.65,2.06-6.23,3.09-10.74,3.09c-5.02,0-9.02-1.45-12.01-4.35
		s-4.48-6.5-4.48-10.8c0-4.45,1.47-8.21,4.42-11.28c2.95-3.07,6.88-4.6,11.81-4.6c4.77,0,8.62,1.45,11.56,4.34
		c2.94,2.89,4.41,6.83,4.41,11.81c0,0.41-0.01,0.98-0.03,1.7h-19.95c0.04,1.88,0.37,3.27,1,4.17s1.82,1.36,3.57,1.36
		C1322.76,428.32,1324.25,427.1,1324.7,424.66z M1323.91,416.92c-0.02-2.01-0.42-3.36-1.21-4.06c-0.79-0.69-1.77-1.04-2.93-1.04
		c-2.76,0-4.15,1.7-4.15,5.1H1323.91z"/>
	<path d="M1384.46,435.35h-11.69v-17.93c0-1.64-0.18-2.77-0.54-3.38s-1.05-0.92-2.08-0.92c-0.8,0-1.49,0.24-2.08,0.72
		c-0.59,0.48-0.94,0.97-1.04,1.48c-0.1,0.51-0.15,1.57-0.15,3.19v16.85h-11.69v-39.99h11.69v13.71c2.11-2.75,4.86-4.13,8.26-4.13
		c1.72,0,3.23,0.3,4.53,0.89c1.3,0.6,2.3,1.36,3,2.3s1.18,1.85,1.42,2.72c0.24,0.88,0.37,2.58,0.37,5.1V435.35z"/>
	<path d="M1409.04,405.56v7.59h-5.95v10.99c0,1.5,0.28,2.4,0.85,2.68c0.57,0.28,1.15,0.42,1.76,0.42c0.94,0,2.05-0.17,3.34-0.5v8.32
		c-2.3,0.45-4.57,0.67-6.8,0.67c-3.59,0-6.24-0.77-7.92-2.31c-1.69-1.54-2.54-4-2.54-7.38l0.03-3.49v-9.4h-4.45v-7.59h4.45l0.18-9.7
		l11.1-0.18v9.87H1409.04z"/>
	<path d="M1424.63,394.1v9.26h-11.69v-9.26H1424.63z M1424.63,405.56v29.79h-11.69v-29.79H1424.63z"/>
	<path d="M1471.86,405.56l-9.43,29.79h-8.41l-3.9-16.14l-4.07,16.14h-8.32l-9.61-29.79h11.48l3.93,14.59l3.75-14.59h8.65l3.69,14.58
		l4.13-14.58H1471.86z"/>
	<path d="M1068.73,477.56l-9,10.24l10.03,19.56h-12.08l-5.59-11.93l-3.19,3.73v8.2h-10.96v-39.99h10.96v16.14
		c0,0.45-0.03,2.25-0.09,5.39c0.7-1,1.42-1.9,2.14-2.72l7.48-8.61H1068.73z"/>
	<path d="M1083.56,507.35h-11.19v-29.79h9.73v6.15c1.11-4.47,3.7-6.71,7.76-6.71c0.41,0,0.98,0.04,1.7,0.12v10.4
		c-0.82-0.19-1.55-0.29-2.2-0.29c-3.87,0-5.8,2.16-5.8,6.47V507.35z"/>
	<path d="M1109.81,507.97c-4.94,0-8.87-1.54-11.78-4.61s-4.37-6.68-4.37-10.83c0-4.45,1.52-8.16,4.56-11.13
		c3.04-2.97,6.99-4.45,11.85-4.45c4.9,0,8.84,1.46,11.82,4.39c2.98,2.93,4.47,6.6,4.47,11.02c0,4.45-1.51,8.17-4.53,11.15
		C1118.82,506.48,1114.81,507.97,1109.81,507.97z M1109.98,500.88c1.82,0,2.93-0.94,3.33-2.83c0.4-1.88,0.6-3.85,0.6-5.9
		c0-2.79-0.28-4.8-0.85-6.04s-1.58-1.85-3.05-1.85c-1.35,0-2.33,0.63-2.96,1.9c-0.63,1.27-0.94,3.36-0.94,6.27
		c0,3.42,0.32,5.68,0.97,6.78C1107.73,500.33,1108.69,500.88,1109.98,500.88z"/>
	<path d="M1171.13,477.56l-9.43,29.79h-8.41l-3.9-16.14l-4.07,16.14h-8.32l-9.61-29.79h11.48l3.93,14.59l3.75-14.59h8.65l3.69,14.58
		l4.13-14.58H1171.13z"/>
	<path d="M1209.3,496.66l10.9,0.73c-0.64,2.93-2.29,5.42-4.94,7.49c-2.65,2.06-6.23,3.09-10.74,3.09c-5.02,0-9.02-1.45-12.01-4.35
		s-4.48-6.5-4.48-10.8c0-4.45,1.47-8.21,4.42-11.28c2.95-3.07,6.88-4.6,11.81-4.6c4.77,0,8.62,1.45,11.56,4.34
		c2.94,2.89,4.41,6.83,4.41,11.81c0,0.41-0.01,0.98-0.03,1.7h-19.95c0.04,1.88,0.37,3.27,1,4.17s1.82,1.36,3.57,1.36
		C1207.36,500.32,1208.85,499.1,1209.3,496.66z M1208.51,488.92c-0.02-2.01-0.42-3.36-1.21-4.06c-0.79-0.69-1.77-1.04-2.93-1.04
		c-2.76,0-4.15,1.7-4.15,5.1H1208.51z"/>
	<path d="M1253.89,507.35h-11.69V488.6c0-1.54-0.24-2.53-0.72-2.96c-0.48-0.43-1.08-0.64-1.8-0.64c-2.13,0-3.19,1.48-3.19,4.45v17.9
		h-11.69v-29.79h10.84v4.22c1.6-3.22,4.46-4.83,8.58-4.83c2.17,0,4,0.42,5.49,1.25c1.49,0.83,2.56,1.9,3.21,3.22
		s0.97,3.61,0.97,6.87V507.35z"/>
	<path d="M1274.6,507.97c-4.94,0-8.87-1.54-11.78-4.61s-4.37-6.68-4.37-10.83c0-4.45,1.52-8.16,4.56-11.13
		c3.04-2.97,6.99-4.45,11.85-4.45c4.9,0,8.84,1.46,11.82,4.39c2.98,2.93,4.47,6.6,4.47,11.02c0,4.45-1.51,8.17-4.53,11.15
		C1283.61,506.48,1279.6,507.97,1274.6,507.97z M1274.78,500.88c1.82,0,2.93-0.94,3.33-2.83c0.4-1.88,0.6-3.85,0.6-5.9
		c0-2.79-0.28-4.8-0.85-6.04s-1.58-1.85-3.05-1.85c-1.35,0-2.33,0.63-2.96,1.9c-0.63,1.27-0.94,3.36-0.94,6.27
		c0,3.42,0.32,5.68,0.97,6.78C1272.52,500.33,1273.49,500.88,1274.78,500.88z"/>
	<path d="M1324.79,507.35h-10.96v-3.96c-1.62,3.05-4.3,4.57-8.03,4.57c-3.44,0-6.22-1.34-8.36-4.03c-2.14-2.69-3.21-6.59-3.21-11.7
		c0-4.79,1.07-8.58,3.22-11.4s4.99-4.22,8.53-4.22c2.95,0,5.38,1.12,7.29,3.37v-12.63h11.51V507.35z M1313.27,488.19
		c0-2.68-1.1-4.01-3.31-4.01c-1.54,0-2.55,0.85-3.03,2.55c-0.48,1.7-0.72,3.78-0.72,6.24c0,4.82,1.23,7.24,3.69,7.24
		c0.94,0,1.73-0.38,2.39-1.14c0.65-0.76,0.98-1.92,0.98-3.49V488.19z"/>
	<path d="M1365.63,496.66l10.9,0.73c-0.64,2.93-2.29,5.42-4.94,7.49c-2.65,2.06-6.23,3.09-10.74,3.09c-5.02,0-9.02-1.45-12.01-4.35
		s-4.48-6.5-4.48-10.8c0-4.45,1.47-8.21,4.42-11.28c2.95-3.07,6.88-4.6,11.81-4.6c4.77,0,8.62,1.45,11.56,4.34
		c2.94,2.89,4.41,6.83,4.41,11.81c0,0.41-0.01,0.98-0.03,1.7h-19.95c0.04,1.88,0.37,3.27,1,4.17s1.82,1.36,3.57,1.36
		C1363.68,500.32,1365.18,499.1,1365.63,496.66z M1364.84,488.92c-0.02-2.01-0.42-3.36-1.21-4.06c-0.79-0.69-1.77-1.04-2.93-1.04
		c-2.76,0-4.15,1.7-4.15,5.1H1364.84z"/>
	<path d="M1392.32,507.35h-11.19v-29.79h9.73v6.15c1.11-4.47,3.7-6.71,7.76-6.71c0.41,0,0.98,0.04,1.7,0.12v10.4
		c-0.82-0.19-1.55-0.29-2.2-0.29c-3.87,0-5.8,2.16-5.8,6.47V507.35z"/>
	<path d="M1434.04,507.35h-11.13c-0.27-1.27-0.41-2.66-0.41-4.16c-2.11,3.18-5.3,4.78-9.58,4.78c-3.52,0-6.15-0.9-7.89-2.7
		c-1.75-1.8-2.62-3.86-2.62-6.18c0-3.14,1.43-5.69,4.29-7.63c2.86-1.94,7.93-3.11,15.22-3.5v-0.67c0-1.31-0.3-2.18-0.89-2.61
		c-0.6-0.43-1.47-0.64-2.62-0.64c-2.7,0-4.2,1.08-4.51,3.25l-10.66-1c1.52-6.23,6.71-9.35,15.56-9.35c2.4,0,4.61,0.24,6.62,0.72
		c2.01,0.48,3.6,1.23,4.78,2.24c1.17,1.02,1.96,2.09,2.36,3.22c0.4,1.13,0.6,3.31,0.6,6.53v11.89
		C1433.13,503.82,1433.43,505.75,1434.04,507.35z M1421.91,493.41c-4.98,0.53-7.47,2.12-7.47,4.78c0,1.8,0.99,2.7,2.96,2.7
		c1.25,0,2.31-0.37,3.19-1.11c0.88-0.74,1.32-2.38,1.32-4.92V493.41z"/>
</g>
<g>
	<path d="M1099.03,257.35h-11.69V238.6c0-1.54-0.24-2.53-0.72-2.96c-0.48-0.43-1.08-0.64-1.8-0.64c-2.13,0-3.19,1.48-3.19,4.45v17.9
		h-11.69v-29.79h10.84v4.22c1.6-3.22,4.46-4.83,8.58-4.83c2.17,0,4,0.42,5.49,1.25c1.49,0.83,2.56,1.9,3.21,3.22
		s0.97,3.61,0.97,6.87V257.35z"/>
	<path d="M1124.87,246.66l10.9,0.73c-0.64,2.93-2.29,5.42-4.94,7.49c-2.65,2.06-6.23,3.09-10.74,3.09c-5.02,0-9.02-1.45-12.01-4.35
		s-4.48-6.5-4.48-10.8c0-4.45,1.47-8.21,4.42-11.28c2.95-3.07,6.88-4.6,11.81-4.6c4.77,0,8.62,1.45,11.56,4.34
		c2.94,2.89,4.41,6.83,4.41,11.81c0,0.41-0.01,0.98-0.03,1.7h-19.95c0.04,1.88,0.37,3.27,1,4.17s1.82,1.36,3.57,1.36
		C1122.93,250.32,1124.42,249.1,1124.87,246.66z M1124.08,238.92c-0.02-2.01-0.42-3.36-1.21-4.06c-0.79-0.69-1.77-1.04-2.93-1.04
		c-2.76,0-4.15,1.7-4.15,5.1H1124.08z"/>
	<path d="M1169.46,257.35h-10.96v-3.96c-1.62,3.05-4.3,4.57-8.03,4.57c-3.44,0-6.22-1.34-8.36-4.03c-2.14-2.69-3.21-6.59-3.21-11.7
		c0-4.79,1.07-8.58,3.22-11.4s4.99-4.22,8.53-4.22c2.95,0,5.38,1.12,7.29,3.37v-12.63h11.51V257.35z M1157.95,238.19
		c0-2.68-1.1-4.01-3.31-4.01c-1.54,0-2.55,0.85-3.03,2.55c-0.48,1.7-0.72,3.78-0.72,6.24c0,4.82,1.23,7.24,3.69,7.24
		c0.94,0,1.73-0.38,2.39-1.14c0.65-0.76,0.98-1.92,0.98-3.49V238.19z"/>
	<path d="M1204.71,257.35h-10.96v-3.96c-1.62,3.05-4.3,4.57-8.03,4.57c-3.44,0-6.22-1.34-8.36-4.03c-2.14-2.69-3.21-6.59-3.21-11.7
		c0-4.79,1.07-8.58,3.22-11.4s4.99-4.22,8.53-4.22c2.95,0,5.38,1.12,7.29,3.37v-12.63h11.51V257.35z M1193.19,238.19
		c0-2.68-1.1-4.01-3.31-4.01c-1.54,0-2.55,0.85-3.03,2.55c-0.48,1.7-0.72,3.78-0.72,6.24c0,4.82,1.23,7.24,3.69,7.24
		c0.94,0,1.73-0.38,2.39-1.14c0.65-0.76,0.98-1.92,0.98-3.49V238.19z"/>
	<path d="M1222.55,216.1v9.26h-11.69v-9.26H1222.55z M1222.55,227.56v29.79h-11.69v-29.79H1222.55z"/>
	<path d="M1257.97,257.35h-11.69v-17.93c0-1.64-0.18-2.77-0.54-3.38s-1.05-0.92-2.08-0.92c-0.8,0-1.49,0.24-2.08,0.72
		c-0.59,0.48-0.94,0.97-1.04,1.48c-0.1,0.51-0.15,1.57-0.15,3.19v16.85h-11.69v-39.99h11.69v13.71c2.11-2.75,4.86-4.13,8.26-4.13
		c1.72,0,3.23,0.3,4.53,0.89c1.3,0.6,2.3,1.36,3,2.3s1.18,1.85,1.42,2.72c0.24,0.88,0.37,2.58,0.37,5.1V257.35z"/>
	<path d="M1308.24,257.35h-11.69V238.6c0-1.54-0.24-2.53-0.72-2.96c-0.48-0.43-1.08-0.64-1.8-0.64c-2.13,0-3.19,1.48-3.19,4.45v17.9
		h-11.69v-29.79h10.84v4.22c1.6-3.22,4.46-4.83,8.58-4.83c2.17,0,4,0.42,5.49,1.25c1.49,0.83,2.56,1.9,3.21,3.22
		s0.97,3.61,0.97,6.87V257.35z"/>
	<path d="M1326.08,216.1v9.26h-11.69v-9.26H1326.08z M1326.08,227.56v29.79h-11.69v-29.79H1326.08z"/>
	<path d="M1361.5,257.35h-11.69v-17.93c0-1.64-0.18-2.77-0.54-3.38s-1.05-0.92-2.08-0.92c-0.8,0-1.49,0.24-2.08,0.72
		c-0.59,0.48-0.94,0.97-1.04,1.48c-0.1,0.51-0.15,1.57-0.15,3.19v16.85h-11.69v-39.99h11.69v13.71c2.11-2.75,4.86-4.13,8.26-4.13
		c1.72,0,3.23,0.3,4.53,0.89c1.3,0.6,2.3,1.36,3,2.3s1.18,1.85,1.42,2.72c0.24,0.88,0.37,2.58,0.37,5.1V257.35z"/>
	<path d="M1386.08,227.56v7.59h-5.95v10.99c0,1.5,0.28,2.4,0.85,2.68c0.57,0.28,1.15,0.42,1.76,0.42c0.94,0,2.05-0.17,3.34-0.5v8.32
		c-2.3,0.45-4.57,0.67-6.8,0.67c-3.59,0-6.24-0.77-7.92-2.31c-1.69-1.54-2.54-4-2.54-7.38l0.03-3.49v-9.4h-4.45v-7.59h4.45l0.18-9.7
		l11.1-0.18v9.87H1386.08z"/>
	<path d="M1401.67,216.1v9.26h-11.69v-9.26H1401.67z M1401.67,227.56v29.79h-11.69v-29.79H1401.67z"/>
	<path d="M1448.9,227.56l-9.43,29.79h-8.41l-3.9-16.14l-4.07,16.14h-8.32l-9.61-29.79h11.48l3.93,14.59l3.75-14.59h8.65l3.69,14.58
		l4.13-14.58H1448.9z"/>
	<path d="M1464.75,248.91l9.23-1.26c0.53,2.15,2.62,3.22,6.27,3.22c3.03,0,4.54-0.59,4.54-1.76c0-0.51-0.29-0.9-0.88-1.19
		c-0.59-0.28-1.97-0.57-4.16-0.86c-6.05-0.84-9.83-2.15-11.34-3.94s-2.26-3.77-2.26-5.96c0-3.05,1.27-5.51,3.81-7.4
		s5.87-2.83,9.99-2.83c7.23,0,11.84,2.61,13.83,7.82l-8.85,1.67c-0.82-1.76-2.55-2.64-5.19-2.64c-1.25,0-2.18,0.17-2.8,0.51
		c-0.62,0.34-0.92,0.68-0.92,1.01c0,0.98,0.94,1.57,2.81,1.78c4.88,0.54,8.19,1.09,9.93,1.66c1.74,0.57,3.22,1.6,4.45,3.11
		c1.23,1.5,1.84,3.32,1.84,5.45c0,3.26-1.36,5.85-4.09,7.77c-2.72,1.92-6.48,2.87-11.27,2.87
		C1471.65,257.97,1466.66,254.95,1464.75,248.91z"/>
	<path d="M1510.86,216.1v9.26h-11.69v-9.26H1510.86z M1510.86,227.56v29.79h-11.69v-29.79H1510.86z"/>
</g>
<g>
	<path d="M427.46,626.36v39.99h-11.51v-39.99H427.46z"/>
	<path d="M445.12,626.36v39.99h-11.51v-39.99H445.12z"/>
	<path d="M481.3,666.35h-11.13c-0.27-1.27-0.41-2.66-0.41-4.16c-2.11,3.18-5.3,4.78-9.58,4.78c-3.52,0-6.15-0.9-7.9-2.7
		c-1.75-1.8-2.62-3.86-2.62-6.18c0-3.14,1.43-5.69,4.29-7.63c2.86-1.94,7.93-3.11,15.22-3.5v-0.67c0-1.31-0.3-2.18-0.89-2.61
		c-0.6-0.43-1.47-0.64-2.62-0.64c-2.7,0-4.2,1.08-4.51,3.25l-10.66-1c1.52-6.23,6.71-9.35,15.56-9.35c2.4,0,4.61,0.24,6.62,0.72
		c2.01,0.48,3.6,1.23,4.78,2.24c1.17,1.02,1.96,2.09,2.36,3.22c0.4,1.13,0.6,3.31,0.6,6.53v11.89
		C480.4,662.82,480.7,664.75,481.3,666.35z M469.17,652.41c-4.98,0.53-7.47,2.12-7.47,4.78c0,1.8,0.99,2.7,2.96,2.7
		c1.25,0,2.31-0.37,3.19-1.11c0.88-0.74,1.32-2.38,1.32-4.92V652.41z"/>
	<path d="M504.42,654.34l9.96,0.85c-0.47,3.48-1.93,6.31-4.38,8.5c-2.45,2.19-5.71,3.28-9.77,3.28c-4.55,0-8.25-1.43-11.09-4.29
		s-4.26-6.53-4.26-11c0-4.57,1.41-8.33,4.23-11.29c2.82-2.96,6.49-4.44,11-4.44c4,0,7.27,1.12,9.79,3.36s3.96,5.06,4.34,8.48
		l-10.22,0.85c-0.43-3.14-1.62-4.72-3.57-4.72c-1.25,0-2.16,0.57-2.74,1.71c-0.58,1.14-0.86,3.13-0.86,5.96
		c0,2.44,0.29,4.25,0.86,5.42c0.58,1.17,1.58,1.76,3,1.76C502.79,658.76,504.03,657.29,504.42,654.34z"/>
	<path d="M561.93,666.35h-11.69V647.6c0-1.54-0.24-2.53-0.72-2.96c-0.48-0.43-1.08-0.64-1.8-0.64c-2.13,0-3.19,1.48-3.19,4.45v17.9
		h-11.69v-29.79h10.84v4.22c1.6-3.22,4.46-4.83,8.58-4.83c2.17,0,4,0.42,5.49,1.25s2.56,1.9,3.21,3.22s0.97,3.61,0.97,6.87V666.35z"
		/>
	<path d="M598.11,666.35h-11.13c-0.27-1.27-0.41-2.66-0.41-4.16c-2.11,3.18-5.3,4.78-9.58,4.78c-3.52,0-6.15-0.9-7.9-2.7
		c-1.75-1.8-2.62-3.86-2.62-6.18c0-3.14,1.43-5.69,4.29-7.63c2.86-1.94,7.93-3.11,15.22-3.5v-0.67c0-1.31-0.3-2.18-0.89-2.61
		c-0.6-0.43-1.47-0.64-2.62-0.64c-2.7,0-4.2,1.08-4.51,3.25l-10.66-1c1.52-6.23,6.71-9.35,15.56-9.35c2.4,0,4.61,0.24,6.62,0.72
		c2.01,0.48,3.6,1.23,4.78,2.24c1.17,1.02,1.96,2.09,2.36,3.22c0.4,1.13,0.6,3.31,0.6,6.53v11.89
		C597.2,662.82,597.5,664.75,598.11,666.35z M585.98,652.41c-4.98,0.53-7.47,2.12-7.47,4.78c0,1.8,0.99,2.7,2.96,2.7
		c1.25,0,2.31-0.37,3.19-1.11c0.88-0.74,1.32-2.38,1.32-4.92V652.41z"/>
	<path d="M621.23,654.34l9.96,0.85c-0.47,3.48-1.93,6.31-4.38,8.5c-2.45,2.19-5.71,3.28-9.77,3.28c-4.55,0-8.25-1.43-11.09-4.29
		s-4.26-6.53-4.26-11c0-4.57,1.41-8.33,4.23-11.29c2.82-2.96,6.49-4.44,11-4.44c4,0,7.27,1.12,9.79,3.36s3.96,5.06,4.34,8.48
		l-10.22,0.85c-0.43-3.14-1.62-4.72-3.57-4.72c-1.25,0-2.16,0.57-2.74,1.71c-0.58,1.14-0.86,3.13-0.86,5.96
		c0,2.44,0.29,4.25,0.86,5.42c0.58,1.17,1.58,1.76,3,1.76C619.59,658.76,620.83,657.29,621.23,654.34z"/>
	<path d="M678.62,636.56v29.79h-10.81v-4.89c-1.58,3.67-4.67,5.51-9.26,5.51c-2.83,0-5.02-0.79-6.58-2.36s-2.33-3.82-2.33-6.75
		v-21.3h11.69v18.75c0,1.17,0.16,2,0.48,2.48s0.95,0.72,1.89,0.72c1,0,1.81-0.36,2.43-1.07c0.63-0.71,0.94-1.71,0.94-3v-17.87
		H678.62z"/>
	<path d="M699.33,666.97c-4.94,0-8.87-1.54-11.78-4.61c-2.91-3.08-4.37-6.68-4.37-10.83c0-4.45,1.52-8.16,4.56-11.13
		c3.04-2.97,6.99-4.45,11.85-4.45c4.9,0,8.84,1.46,11.82,4.39c2.98,2.93,4.47,6.6,4.47,11.02c0,4.45-1.51,8.17-4.53,11.15
		S704.33,666.97,699.33,666.97z M699.51,659.88c1.82,0,2.92-0.94,3.33-2.83c0.4-1.88,0.6-3.85,0.6-5.9c0-2.79-0.28-4.8-0.85-6.04
		c-0.57-1.23-1.58-1.85-3.05-1.85c-1.35,0-2.33,0.63-2.96,1.9c-0.63,1.27-0.94,3.36-0.94,6.27c0,3.42,0.32,5.68,0.97,6.78
		S698.22,659.88,699.51,659.88z"/>
	<path d="M747.11,636.56l-11.69,32.29c-0.9,2.44-2.19,4.35-3.87,5.73c-1.68,1.38-4.27,2.06-7.76,2.06c-0.84,0-2.79-0.09-5.86-0.26
		v-8.29c1.52,0.23,2.93,0.35,4.22,0.35c3.36,0,5.04-0.74,5.04-2.23c0-0.49-0.17-1.16-0.5-2.02L716,636.56h12.5l4.93,15.9l5.14-15.9
		H747.11z"/>
	<path d="M762.38,657.91l9.23-1.26c0.53,2.15,2.62,3.22,6.27,3.22c3.03,0,4.54-0.59,4.54-1.76c0-0.51-0.29-0.9-0.88-1.19
		s-1.97-0.57-4.16-0.87c-6.05-0.84-9.83-2.15-11.34-3.94c-1.5-1.79-2.26-3.77-2.26-5.96c0-3.05,1.27-5.51,3.81-7.4
		c2.54-1.88,5.87-2.83,9.99-2.83c7.23,0,11.84,2.61,13.83,7.82l-8.85,1.67c-0.82-1.76-2.55-2.64-5.19-2.64
		c-1.25,0-2.18,0.17-2.8,0.51s-0.92,0.68-0.92,1.01c0,0.98,0.94,1.57,2.81,1.78c4.88,0.54,8.19,1.09,9.93,1.66
		c1.74,0.57,3.22,1.6,4.45,3.11c1.23,1.5,1.85,3.32,1.85,5.45c0,3.26-1.36,5.85-4.09,7.77c-2.72,1.92-6.48,2.87-11.26,2.87
		C769.28,666.97,764.29,663.95,762.38,657.91z"/>
	<path d="M826.83,666.35H815.7c-0.27-1.27-0.41-2.66-0.41-4.16c-2.11,3.18-5.3,4.78-9.58,4.78c-3.52,0-6.15-0.9-7.9-2.7
		c-1.75-1.8-2.62-3.86-2.62-6.18c0-3.14,1.43-5.69,4.29-7.63c2.86-1.94,7.93-3.11,15.22-3.5v-0.67c0-1.31-0.3-2.18-0.89-2.61
		c-0.6-0.43-1.47-0.64-2.62-0.64c-2.7,0-4.2,1.08-4.51,3.25l-10.66-1c1.52-6.23,6.71-9.35,15.56-9.35c2.4,0,4.61,0.24,6.62,0.72
		c2.01,0.48,3.6,1.23,4.78,2.24c1.17,1.02,1.96,2.09,2.36,3.22c0.4,1.13,0.6,3.31,0.6,6.53v11.89
		C825.92,662.82,826.23,664.75,826.83,666.35z M814.7,652.41c-4.98,0.53-7.47,2.12-7.47,4.78c0,1.8,0.99,2.7,2.96,2.7
		c1.25,0,2.31-0.37,3.19-1.11c0.88-0.74,1.32-2.38,1.32-4.92V652.41z"/>
</g>
<g>
	<path d="M435.63,246.66l10.9,0.73c-0.64,2.93-2.29,5.42-4.94,7.49c-2.65,2.06-6.23,3.09-10.74,3.09c-5.02,0-9.02-1.45-12.01-4.35
		s-4.48-6.5-4.48-10.8c0-4.45,1.47-8.21,4.42-11.28c2.95-3.07,6.88-4.6,11.81-4.6c4.77,0,8.62,1.45,11.56,4.34
		c2.94,2.89,4.41,6.83,4.41,11.81c0,0.41-0.01,0.98-0.03,1.7h-19.95c0.04,1.88,0.37,3.27,1,4.17c0.63,0.91,1.82,1.36,3.57,1.36
		C433.69,250.32,435.18,249.1,435.63,246.66z M434.84,238.92c-0.02-2.01-0.42-3.36-1.21-4.06c-0.79-0.69-1.77-1.04-2.93-1.04
		c-2.76,0-4.15,1.7-4.15,5.1H434.84z"/>
	<path d="M477.74,227.56l-10.91,29.79h-8.73l-11.16-29.79h12.01l4.27,12.65c0.35,1.04,0.67,2.06,0.94,3.08
		c0.1-0.35,0.24-0.8,0.44-1.35c0.04-0.08,0.17-0.45,0.38-1.11l4.38-13.27H477.74z"/>
	<path d="M492.29,216.1v9.26H480.6v-9.26H492.29z M492.29,227.56v29.79H480.6v-29.79H492.29z"/>
	<path d="M529.5,220.79l-0.29,8l-0.56-0.03c-1.05-0.06-1.81-0.09-2.26-0.09c-1.82,0-2.91,0.36-3.28,1.08
		c2.23,1.84,3.34,4.05,3.34,6.65c0,3.05-1.21,5.34-3.62,6.87c-2.41,1.53-5.69,2.3-9.83,2.3c-0.1,0-0.61-0.02-1.52-0.06
		c-0.86-0.04-1.31-0.06-1.35-0.06c-1.89,0-2.84,0.49-2.84,1.46c0,0.86,0.84,1.32,2.52,1.38l9.58,0.41c3.5,0.16,6.06,1.13,7.69,2.93
		c1.63,1.8,2.45,3.9,2.45,6.3c0,2.85-1.22,5.18-3.65,6.99c-2.43,1.81-7.16,2.71-14.19,2.71c-10.84,0-16.26-2.49-16.26-7.47
		c0-2.71,1.44-4.61,4.31-5.68c-1.86-1.31-2.78-2.86-2.78-4.66c0-2.93,1.9-5.14,5.71-6.62c-3.18-1.39-4.78-3.69-4.78-6.91
		c0-2.95,1.29-5.24,3.87-6.88s6.11-2.46,10.61-2.46c2.05,0,3.92,0.21,5.6,0.62c0.68-4.67,3.15-7,7.41-7
		C526.34,220.56,527.72,220.63,529.5,220.79z M509.4,256.97c-0.43-0.02-0.86-0.03-1.29-0.03c-2.01,0-3.02,0.63-3.02,1.88
		c0,1.15,0.77,1.9,2.3,2.23c1.53,0.33,3.58,0.5,6.14,0.5c2.42,0,3.98-0.21,4.67-0.61c0.69-0.41,1.04-0.98,1.04-1.7
		c0-0.51-0.16-0.93-0.47-1.27c-0.31-0.34-1.05-0.54-2.23-0.6L509.4,256.97z M512.39,240.04c2.27,0,3.4-1.2,3.4-3.6
		c0-2.46-1.16-3.69-3.49-3.69c-2.3,0-3.46,1.25-3.46,3.75C508.84,238.86,510.02,240.04,512.39,240.04z"/>
	<path d="M567.29,246.66l10.9,0.73c-0.64,2.93-2.29,5.42-4.94,7.49c-2.65,2.06-6.23,3.09-10.74,3.09c-5.02,0-9.02-1.45-12.01-4.35
		s-4.48-6.5-4.48-10.8c0-4.45,1.47-8.21,4.42-11.28c2.95-3.07,6.88-4.6,11.81-4.6c4.77,0,8.62,1.45,11.56,4.34
		c2.94,2.89,4.41,6.83,4.41,11.81c0,0.41-0.01,0.98-0.03,1.7h-19.95c0.04,1.88,0.37,3.27,1,4.17c0.63,0.91,1.82,1.36,3.57,1.36
		C565.35,250.32,566.84,249.1,567.29,246.66z M566.5,238.92c-0.02-2.01-0.42-3.36-1.21-4.06c-0.79-0.69-1.77-1.04-2.93-1.04
		c-2.76,0-4.15,1.7-4.15,5.1H566.5z"/>
	<path d="M627.93,257.35H616.6v-18.63c0-1.25-0.18-2.12-0.54-2.62c-0.36-0.5-1-0.75-1.92-0.75c-2.19,0-3.28,1.59-3.28,4.78v17.23
		h-11.22v-18.63c0-2.38-0.92-3.57-2.75-3.57c-1.89,0-2.84,1.19-2.84,3.57v18.63h-11.25v-29.79h10.49v4.01
		c1.88-3.09,4.6-4.63,8.17-4.63c3.85,0,6.64,1.54,8.38,4.63c1.93-3.09,4.9-4.63,8.91-4.63c1.91,0,3.6,0.4,5.05,1.2
		c1.45,0.8,2.51,1.83,3.16,3.09c0.65,1.26,0.98,3.21,0.98,5.84V257.35z"/>
	<path d="M660.31,257.35h-11.19v-29.79h9.73v6.15c1.11-4.47,3.7-6.71,7.76-6.71c0.41,0,0.98,0.04,1.7,0.12v10.4
		c-0.82-0.19-1.55-0.29-2.2-0.29c-3.87,0-5.8,2.16-5.8,6.47V257.35z"/>
	<path d="M691.68,246.66l10.9,0.73c-0.64,2.93-2.29,5.42-4.94,7.49c-2.65,2.06-6.23,3.09-10.74,3.09c-5.02,0-9.02-1.45-12.01-4.35
		s-4.48-6.5-4.48-10.8c0-4.45,1.47-8.21,4.42-11.28c2.95-3.07,6.88-4.6,11.81-4.6c4.77,0,8.62,1.45,11.56,4.34
		c2.94,2.89,4.41,6.83,4.41,11.81c0,0.41-0.01,0.98-0.03,1.7h-19.95c0.04,1.88,0.37,3.27,1,4.17c0.63,0.91,1.82,1.36,3.57,1.36
		C689.74,250.32,691.23,249.1,691.68,246.66z M690.89,238.92c-0.02-2.01-0.42-3.36-1.21-4.06c-0.79-0.69-1.77-1.04-2.93-1.04
		c-2.76,0-4.15,1.7-4.15,5.1H690.89z"/>
	<path d="M747.41,227.56l-9.43,29.79h-8.41l-3.9-16.14l-4.07,16.14h-8.32l-9.61-29.79h11.48l3.93,14.59l3.75-14.59h8.65l3.69,14.58
		l4.12-14.58H747.41z"/>
	<path d="M764.6,257.97c-4.94,0-8.87-1.54-11.78-4.61c-2.91-3.08-4.37-6.68-4.37-10.83c0-4.45,1.52-8.16,4.56-11.13
		c3.04-2.97,6.99-4.45,11.85-4.45c4.9,0,8.84,1.46,11.82,4.39c2.98,2.93,4.47,6.6,4.47,11.02c0,4.45-1.51,8.17-4.53,11.15
		C773.61,256.48,769.6,257.97,764.6,257.97z M764.78,250.88c1.82,0,2.92-0.94,3.33-2.83c0.4-1.88,0.6-3.85,0.6-5.9
		c0-2.79-0.28-4.8-0.85-6.04c-0.57-1.23-1.58-1.85-3.05-1.85c-1.35,0-2.33,0.63-2.96,1.9c-0.63,1.27-0.94,3.36-0.94,6.27
		c0,3.42,0.32,5.68,0.97,6.78C762.52,250.33,763.49,250.88,764.78,250.88z"/>
	<path d="M797.39,266.76H785.7v-39.2h10.75v4.22c1.5-3.22,4.31-4.83,8.41-4.83c3.55,0,6.34,1.38,8.35,4.15
		c2.01,2.76,3.02,6.53,3.02,11.29c0,4.77-1.03,8.55-3.09,11.37c-2.06,2.81-4.78,4.22-8.16,4.22c-3.32,0-5.85-1.27-7.59-3.81V266.76z
		 M797.39,246.45c0,1.33,0.3,2.36,0.91,3.09c0.6,0.73,1.36,1.1,2.26,1.1c1.41,0,2.37-0.65,2.9-1.95c0.53-1.3,0.79-3.3,0.79-5.99
		c0-3.11-0.3-5.29-0.91-6.55c-0.61-1.26-1.51-1.89-2.72-1.89c-0.72,0-1.44,0.28-2.15,0.85c-0.71,0.57-1.07,1.49-1.07,2.78V246.45z"
		/>
	<path d="M831.61,246.72v9.81l-6.42,11.1h-4.6l4.6-10.28h-4.72v-10.63H831.61z"/>
</g>
<g>
	<path d="M427.82,487.79c-4.94,0-8.87-1.54-11.78-4.61c-2.91-3.08-4.37-6.68-4.37-10.83c0-4.45,1.52-8.16,4.56-11.13
		c3.04-2.97,6.99-4.45,11.85-4.45c4.9,0,8.84,1.46,11.82,4.39c2.98,2.93,4.47,6.6,4.47,11.02c0,4.45-1.51,8.17-4.53,11.15
		S432.82,487.79,427.82,487.79z M428,480.7c1.82,0,2.92-0.94,3.33-2.83c0.4-1.88,0.6-3.85,0.6-5.9c0-2.79-0.28-4.8-0.85-6.04
		c-0.57-1.23-1.58-1.85-3.05-1.85c-1.35,0-2.33,0.63-2.96,1.9c-0.63,1.27-0.94,3.36-0.94,6.27c0,3.42,0.32,5.68,0.97,6.78
		S426.71,480.7,428,480.7z"/>
	<path d="M467.31,457.38v7.59h-5.95v10.99c0,1.5,0.28,2.4,0.85,2.68c0.57,0.28,1.15,0.42,1.76,0.42c0.94,0,2.05-0.17,3.34-0.5v8.32
		c-2.3,0.45-4.57,0.67-6.8,0.67c-3.59,0-6.24-0.77-7.92-2.31c-1.69-1.54-2.53-4-2.53-7.38l0.03-3.49v-9.4h-4.45v-7.59h4.45l0.18-9.7
		l11.1-0.18v9.87H467.31z"/>
	<path d="M483.57,478.73l9.23-1.26c0.53,2.15,2.62,3.22,6.27,3.22c3.03,0,4.54-0.59,4.54-1.76c0-0.51-0.29-0.9-0.88-1.19
		s-1.97-0.57-4.16-0.87c-6.05-0.84-9.83-2.15-11.34-3.94c-1.5-1.79-2.26-3.77-2.26-5.96c0-3.05,1.27-5.51,3.81-7.4
		c2.54-1.88,5.87-2.83,9.99-2.83c7.23,0,11.84,2.61,13.83,7.82l-8.85,1.67c-0.82-1.76-2.55-2.64-5.19-2.64
		c-1.25,0-2.18,0.17-2.8,0.51s-0.92,0.68-0.92,1.01c0,0.98,0.94,1.57,2.81,1.78c4.88,0.54,8.19,1.09,9.93,1.66
		c1.74,0.57,3.22,1.6,4.45,3.11c1.23,1.5,1.85,3.32,1.85,5.45c0,3.26-1.36,5.85-4.09,7.77s-6.48,2.87-11.26,2.87
		C490.48,487.79,485.49,484.77,483.57,478.73z"/>
	<path d="M529.51,447.18v39.99H518v-39.99H529.51z"/>
	<path d="M547.35,445.92v9.26h-11.69v-9.26H547.35z M547.35,457.38v29.79h-11.69v-29.79H547.35z"/>
	<path d="M583.53,487.17H572.4c-0.27-1.27-0.41-2.66-0.41-4.16c-2.11,3.18-5.3,4.78-9.58,4.78c-3.52,0-6.15-0.9-7.9-2.7
		c-1.75-1.8-2.62-3.86-2.62-6.18c0-3.14,1.43-5.69,4.29-7.63c2.86-1.94,7.93-3.11,15.22-3.5v-0.67c0-1.31-0.3-2.18-0.89-2.61
		c-0.6-0.43-1.47-0.64-2.62-0.64c-2.7,0-4.2,1.08-4.51,3.25l-10.66-1c1.52-6.23,6.71-9.35,15.56-9.35c2.4,0,4.61,0.24,6.62,0.72
		c2.01,0.48,3.6,1.23,4.78,2.24s1.96,2.09,2.36,3.22c0.4,1.13,0.6,3.31,0.6,6.53v11.89C582.63,483.64,582.93,485.57,583.53,487.17z
		 M571.4,473.23c-4.98,0.53-7.47,2.12-7.47,4.78c0,1.8,0.99,2.7,2.96,2.7c1.25,0,2.31-0.37,3.19-1.11s1.32-2.38,1.32-4.92V473.23z"
		/>
	<path d="M599.88,487.17h-11.19v-29.79h9.73v6.15c1.11-4.47,3.7-6.71,7.76-6.71c0.41,0,0.98,0.04,1.7,0.12v10.4
		c-0.82-0.2-1.55-0.29-2.2-0.29c-3.87,0-5.8,2.16-5.8,6.47V487.17z"/>
	<path d="M631.17,457.38v7.59h-5.95v10.99c0,1.5,0.28,2.4,0.85,2.68c0.57,0.28,1.15,0.42,1.76,0.42c0.94,0,2.05-0.17,3.34-0.5v8.32
		c-2.3,0.45-4.57,0.67-6.8,0.67c-3.59,0-6.24-0.77-7.92-2.31c-1.69-1.54-2.53-4-2.53-7.38l0.03-3.49v-9.4h-4.45v-7.59h4.45l0.18-9.7
		l11.1-0.18v9.87H631.17z"/>
	<path d="M668.46,457.38v7.59h-5.95v10.99c0,1.5,0.28,2.4,0.85,2.68c0.57,0.28,1.15,0.42,1.76,0.42c0.94,0,2.05-0.17,3.34-0.5v8.32
		c-2.3,0.45-4.57,0.67-6.8,0.67c-3.59,0-6.24-0.77-7.92-2.31c-1.69-1.54-2.53-4-2.53-7.38l0.03-3.49v-9.4h-4.45v-7.59h4.45l0.18-9.7
		l11.1-0.18v9.87H668.46z"/>
	<path d="M692.05,476.48l10.9,0.73c-0.64,2.93-2.29,5.42-4.94,7.49c-2.65,2.06-6.23,3.09-10.74,3.09c-5.02,0-9.02-1.45-12.01-4.35
		s-4.48-6.5-4.48-10.8c0-4.45,1.47-8.21,4.42-11.28c2.95-3.07,6.88-4.6,11.81-4.6c4.77,0,8.62,1.45,11.56,4.34
		c2.94,2.89,4.41,6.83,4.41,11.81c0,0.41-0.01,0.98-0.03,1.7H683c0.04,1.88,0.37,3.27,1,4.17c0.63,0.91,1.82,1.36,3.57,1.36
		C690.1,480.14,691.6,478.92,692.05,476.48z M691.26,468.74c-0.02-2.01-0.42-3.36-1.21-4.06c-0.79-0.69-1.77-1.04-2.93-1.04
		c-2.76,0-4.15,1.7-4.15,5.1H691.26z"/>
	<path d="M718.74,487.17h-11.19v-29.79h9.73v6.15c1.11-4.47,3.7-6.71,7.76-6.71c0.41,0,0.98,0.04,1.7,0.12v10.4
		c-0.82-0.2-1.55-0.29-2.2-0.29c-3.87,0-5.8,2.16-5.8,6.47V487.17z"/>
	<path d="M748.39,475.16l9.96,0.85c-0.47,3.48-1.93,6.31-4.38,8.5c-2.45,2.19-5.71,3.28-9.77,3.28c-4.55,0-8.25-1.43-11.09-4.29
		s-4.26-6.53-4.26-11c0-4.57,1.41-8.33,4.23-11.29c2.82-2.96,6.49-4.44,11-4.44c4,0,7.27,1.12,9.79,3.35s3.96,5.06,4.34,8.48
		l-10.22,0.85c-0.43-3.14-1.62-4.72-3.57-4.72c-1.25,0-2.16,0.57-2.74,1.71c-0.58,1.14-0.86,3.13-0.86,5.96
		c0,2.44,0.29,4.25,0.86,5.42c0.58,1.17,1.58,1.76,3,1.76C746.76,479.58,748,478.11,748.39,475.16z"/>
	<path d="M781.49,476.48l10.9,0.73c-0.64,2.93-2.29,5.42-4.94,7.49c-2.65,2.06-6.23,3.09-10.74,3.09c-5.02,0-9.02-1.45-12.01-4.35
		s-4.48-6.5-4.48-10.8c0-4.45,1.47-8.21,4.42-11.28c2.95-3.07,6.88-4.6,11.81-4.6c4.77,0,8.62,1.45,11.56,4.34
		c2.94,2.89,4.41,6.83,4.41,11.81c0,0.41-0.01,0.98-0.03,1.7h-19.95c0.04,1.88,0.37,3.27,1,4.17c0.63,0.91,1.82,1.36,3.57,1.36
		C779.55,480.14,781.04,478.92,781.49,476.48z M780.7,468.74c-0.02-2.01-0.42-3.36-1.21-4.06c-0.79-0.69-1.77-1.04-2.93-1.04
		c-2.76,0-4.15,1.7-4.15,5.1H780.7z"/>
	<path d="M794.35,478.73l9.23-1.26c0.53,2.15,2.62,3.22,6.27,3.22c3.03,0,4.54-0.59,4.54-1.76c0-0.51-0.29-0.9-0.88-1.19
		s-1.97-0.57-4.16-0.87c-6.05-0.84-9.83-2.15-11.34-3.94c-1.5-1.79-2.26-3.77-2.26-5.96c0-3.05,1.27-5.51,3.81-7.4
		c2.54-1.88,5.87-2.83,9.99-2.83c7.23,0,11.84,2.61,13.83,7.82l-8.85,1.67c-0.82-1.76-2.55-2.64-5.19-2.64
		c-1.25,0-2.18,0.17-2.8,0.51s-0.92,0.68-0.92,1.01c0,0.98,0.94,1.57,2.81,1.78c4.88,0.54,8.19,1.09,9.93,1.66
		c1.74,0.57,3.22,1.6,4.45,3.11c1.23,1.5,1.85,3.32,1.85,5.45c0,3.26-1.36,5.85-4.09,7.77s-6.48,2.87-11.26,2.87
		C801.26,487.79,796.27,484.77,794.35,478.73z"/>
</g>
<rect x="408.18" y="392.16" class="st8" width="520.13" height="191.66"/>
<g>
	<g>
		<path class="st9" d="M832.21,1009.18c-1.15,0-2.36-0.2-3.6-0.61c-15.88-5.14-29.78-12.62-41.34-22.23l-0.08-0.07
			c-11.19,8.87-24.23,16.13-38.77,21.59c-1.25,0.41-2.38,0.66-3.45,0.79l-0.12,0.01h-0.12c-1.5,0-2.96-0.27-4.34-0.82
			c-2.79-1.23-4.85-3.12-6.22-5.66c-0.63-1.09-1.04-2.33-1.17-3.63c-0.13-1.28-0.03-2.49,0.31-3.59c0.35-1.13,0.97-2.19,1.86-3.14
			c0.88-0.95,1.89-1.66,3-2.1l0.1-0.04c12.83-4.36,24.37-10.3,34.31-17.67c-11.39-13.3-20.76-30.27-27.86-50.45
			c-0.11-0.3-0.22-0.4-0.22-0.4l-5.01,0.04c-1.17,34.27-6.9,61.54-17.02,81.12c-1.36,2.49-3.48,4.01-6.17,4.45l-0.16,0.03h-1.42
			c-2.01,0-3.89-0.65-5.6-1.92c-2.14-1.49-3.51-3.65-4.04-6.38c-0.25-0.83-0.37-1.67-0.37-2.51c0-1.69,0.45-3.38,1.34-5.02
			c3.15-5.93,5.8-12.62,7.84-19.85c2.06-7.27,3.57-14.89,4.49-22.66c0.93-7.83,1.56-14.89,1.87-20.97
			c0.31-6.09,0.47-12.98,0.47-20.49v-32.54c0-4.57,1.53-8.53,4.54-11.78c3.05-3.29,6.79-4.96,11.13-4.96h97.53
			c2.56,0,4.79,1.01,6.65,3.01c1.81,1.96,2.73,4.33,2.73,7.04c0,2.73-0.93,5.07-2.76,6.98c-1.85,1.93-4.08,2.9-6.63,2.9h-94.27
			v23.97h80.15c0.78-0.11,1.52-0.17,2.19-0.17c1.25,0,2.51,0.2,3.76,0.61l0.13,0.04l2.88,1.38c1.92,0.77,3.37,2.18,4.31,4.21
			c0.92,2,1.13,4.1,0.6,6.23c-6.4,22.89-16.84,42.41-31.04,58.1c10.45,7.68,22.96,13.73,37.21,17.98c2.51,0.75,4.27,2.49,5.1,5.02
			c0.28,0.9,0.41,1.78,0.41,2.66c0,1.64-0.53,3.21-1.59,4.66c-1.69,2.83-3.97,4.8-6.78,5.85
			C835.45,1008.85,833.82,1009.18,832.21,1009.18z M764.73,921.22c5.54,14.55,13.18,27.08,22.72,37.27
			c9.84-10.4,17.58-22.93,23.03-37.27H764.73z"/>
		<path class="st9" d="M968.84,1011.39c-2.36,0-4.49-0.79-6.32-2.34c-1.73-1.47-3.04-3.41-3.89-5.76l-0.04-0.13
			c-0.57-2-0.32-3.95,0.74-5.79c1.15-1.98,2.92-3.03,5.11-3.03c3.4,0.11,6.99,0.17,10.72,0.17c0.51-0.06,0.78-0.15,0.89-0.2
			c0.02-0.08,0.05-0.24,0.05-0.51v-20.88l-23.05,0c2.93,3.2,5.62,6.59,8.01,10.09c0.97,1.5,1.45,3.12,1.45,4.86v1.74l-0.05,0.21
			c-0.53,2.43-1.87,4.39-3.98,5.81c-1.33,0.92-2.79,1.4-4.31,1.4c-0.67,0-1.36-0.09-2.04-0.28c-2.2-0.59-3.94-2-5.15-4.18
			c-1.39-2.36-2.93-4.63-4.54-6.69c-1.54-2.08-2.31-4.42-2.31-6.99v-1.51l0.02-0.15c0.25-1.63,0.76-3.07,1.53-4.31h-10.32
			c-0.22,2.5-1.15,4.63-2.78,6.33c-1.9,1.98-4.26,2.99-7.02,2.99h-16.22v19.53c0,2.54-0.84,4.74-2.49,6.53
			c-1.7,1.83-3.78,2.76-6.18,2.76c-2.4,0-4.48-0.93-6.18-2.76c-1.66-1.79-2.5-3.98-2.5-6.53v-19.52l-18.57,0
			c-2.35,0-4.41-0.93-6.1-2.76c-1.65-1.78-2.5-3.98-2.5-6.53c0-2.56,0.85-4.74,2.53-6.48c1.69-1.75,3.73-2.64,6.07-2.64H888v-8.2
			l-5.85,0c-4.33,0-8.07-1.67-11.13-4.96c-3.01-3.25-4.54-7.21-4.54-11.78v-31.36c0-4.57,1.53-8.53,4.54-11.78
			c3.05-3.29,6.79-4.96,11.13-4.96H888v-7.35l-16.37,0c-2.34,0-4.38-0.89-6.07-2.65c-1.67-1.73-2.52-3.85-2.52-6.3
			c0-2.43,0.84-4.57,2.5-6.36c1.7-1.83,3.75-2.76,6.1-2.76H888v-8.51c0-2.43,0.84-4.57,2.5-6.36c1.7-1.83,3.77-2.76,6.18-2.76
			c2.4,0,4.48,0.93,6.18,2.76c1.66,1.79,2.5,3.93,2.5,6.36v8.51l15.43,0c2.35,0,4.4,0.93,6.1,2.76c1.66,1.79,2.5,3.93,2.5,6.36
			c0,2.45-0.85,4.57-2.52,6.3c-1.7,1.76-3.74,2.65-6.07,2.65h-15.43v7.35l6.64,0c4.33,0,8.07,1.67,11.13,4.96
			c3.01,3.25,4.54,7.21,4.54,11.78v31.36c0,4.57-1.53,8.53-4.54,11.78c-3.05,3.29-6.79,4.96-11.13,4.96h-6.64v8.2l21.67,0
			c0.22-1.73,0.94-3.29,2.16-4.67c1.52-1.71,3.5-2.62,5.74-2.62h41.25c0.22-2.06,1.04-3.86,2.44-5.38c0.22-0.24,0.45-0.46,0.68-0.67
			c-26.36,0.71-41.41,1.13-43.82,1.23c0,0,0,0-0.01,0c-2.16,0-3.99-0.72-5.52-2.15c-1.53-1.43-2.38-3.27-2.52-5.49
			c-0.14-2.1,0.47-3.97,1.8-5.56c1.35-1.61,3.05-2.5,5.07-2.66l0.12-0.01c6.75-0.11,15.54-0.22,26.15-0.33v-5.83l-13.08,0
			c-4.45,0-8.22-1.67-11.22-4.98c-2.95-3.24-4.45-7.2-4.45-11.77v-16.1c0-4.56,1.5-8.52,4.45-11.77c3-3.3,6.77-4.98,11.22-4.98
			h13.08v-4.13l-24.38,0c-2.11,0-4.01-0.84-5.47-2.42c-1.45-1.56-2.18-3.44-2.18-5.6s0.73-4.03,2.18-5.6
			c1.47-1.58,3.36-2.42,5.47-2.42h24.38l0-3.25c0-2.43,0.81-4.54,2.42-6.28c1.64-1.77,3.67-2.67,6.02-2.67
			c2.35,0,4.38,0.9,6.02,2.67c1.6,1.73,2.42,3.84,2.42,6.28v3.25h25.64c2.11,0,4,0.84,5.47,2.42c1.45,1.56,2.18,3.44,2.18,5.6
			s-0.73,4.03-2.18,5.6c-1.47,1.58-3.36,2.42-5.47,2.42h-25.64v4.13l14.18,0c4.33,0,8.07,1.67,11.13,4.96
			c3.01,3.25,4.54,7.21,4.54,11.78v22.03c0,2.98-0.94,5.54-2.79,7.6c-1.17,1.31-2.54,2.22-4.08,2.73c3.64,4.13,6.89,8.37,9.68,12.64
			c1.25,1.96,1.6,4.08,1.05,6.32c-0.55,2.22-1.8,3.94-3.72,5.12l-0.1,0.06c-1.22,0.66-2.51,1-3.81,1c-0.74,0-1.5-0.11-2.25-0.33
			c-2.02-0.58-3.65-1.86-4.84-3.8c-0.05-0.06-0.09-0.12-0.13-0.18c-2.01,0.05-3.98,0.11-5.9,0.16c0.36,0.29,0.71,0.61,1.04,0.97
			c1.4,1.51,2.22,3.32,2.44,5.38h11.25c2.14,0,3.98,0.81,5.47,2.42c1.45,1.56,2.18,3.47,2.18,5.68c0,2.19-0.72,4.12-2.15,5.73
			c-1.47,1.66-3.37,2.54-5.5,2.54h-11.19v21.39c0,4.07-0.53,7.13-1.62,9.35c-1.16,2.36-3.19,4.16-6.04,5.37
			c-3.4,1.47-9.1,2.24-17.4,2.36h-0.01H968.84z M912.5,939.93v-9.22l-8.72,0v9.22L912.5,939.93z M889.57,939.93v-9.22l-8.41,0v9.22
			L889.57,939.93z M977.43,935.17l7.98-0.12c-0.77-1.36-1.05-2.88-0.81-4.45c0.05-0.31,0.12-0.62,0.2-0.91h-7.38V935.17z
			 M990.71,916.2v-4.98l-13.28,0v4.98L990.71,916.2z M960.56,916.2v-4.98l-12.8,0v4.98L960.56,916.2z M912.5,915.35v-9.05l-8.72,0
			v9.05L912.5,915.35z M889.57,915.35v-9.05l-8.41,0v9.05L889.57,915.35z M990.71,898.24v-4.64l-13.28,0v4.64L990.71,898.24z
			 M960.56,898.24v-4.64l-12.8,0v4.64L960.56,898.24z"/>
		<path class="st9" d="M1036.37,1008.84c-1.15,0-2.36-0.2-3.6-0.61l-0.12-0.04c-2.39-0.95-4.35-2.65-5.83-5.04
			c-0.91-1.54-1.42-3.08-1.55-4.61l-0.01-0.08v-0.08c0-0.75,0.13-1.57,0.39-2.41c0.68-2.58,2.26-4.49,4.57-5.52
			c5.43-2.5,10.01-5.31,13.57-8.34c3.49-2.97,6.09-6.17,7.75-9.53c1.69-3.44,2.85-6.7,3.44-9.67c0.6-3.02,0.9-6.54,0.9-10.46v-9.83
			c0-4.57,1.53-8.53,4.54-11.78c3.05-3.29,6.79-4.96,11.13-4.96h48.68c4.33,0,8.07,1.67,11.13,4.96c3.01,3.25,4.54,7.21,4.54,11.78
			v42.71c0,2.93,0.39,3.69,0.44,3.77c0,0,0,0,0,0c0.04,0,0.67,0.33,2.74,0.33h12.72c0.79,0,1.67-0.17,2.24-2.18
			c0.44-1.56,1.04-5.55,1.42-15.72c0.15-2.4,1.27-4.27,3.25-5.45c1.1-0.66,2.26-0.99,3.46-0.99c0.94,0,1.89,0.21,2.84,0.62
			c2.49,1.21,4.45,2.93,5.91,5.15l0.06,0.09c1.22,2.11,1.84,4.33,1.84,6.59v0.93l-0.01,0.09c-0.98,11.26-2.74,18.82-5.4,23.09
			c-2.84,4.56-7.61,6.88-14.18,6.88h-16.49c-7.6,0-12.72-1.7-15.67-5.21c-2.85-3.4-4.24-9.28-4.24-17.98v-40.54l-41.86,0v8.17
			c0,5.31-0.49,10.35-1.46,14.98c-0.97,4.65-2.66,9.51-5.02,14.44c-2.41,5.02-6.05,9.76-10.83,14.09
			c-4.61,4.28-10.38,8.1-17.13,11.34l-0.07,0.03l-0.07,0.03c-1.31,0.51-2.59,0.84-3.81,0.97l-0.11,0.01H1036.37z M1049.4,913.42
			c-4.33,0-8.08-1.67-11.13-4.96c-3.01-3.25-4.54-7.21-4.54-11.78v-22.71c0-4.57,1.53-8.53,4.54-11.78
			c3.05-3.29,6.79-4.96,11.13-4.96h26.23c4.33,0,8.08,1.67,11.13,4.96c3.01,3.25,4.54,7.21,4.54,11.78v22.71
			c0,4.57-1.53,8.53-4.54,11.78c-3.05,3.29-6.8,4.96-11.13,4.96H1049.4z M1051.42,895.82L1051.42,895.82z M1072.84,895.35v-20.06
			l-21.44,0v20.06L1072.84,895.35z M1118.66,913.25c-4.33,0-8.07-1.67-11.13-4.96c-3.01-3.25-4.54-7.21-4.54-11.78v-22.54
			c0-4.57,1.53-8.53,4.54-11.78c3.05-3.29,6.79-4.96,11.13-4.96h27.8c4.33,0,8.07,1.67,11.13,4.96c3.01,3.25,4.54,7.21,4.54,11.78
			v22.54c0,4.57-1.53,8.53-4.54,11.78c-3.05,3.29-6.79,4.96-11.13,4.96H1118.66z M1143.52,895.02v-19.73l-22.7,0v19.73
			L1143.52,895.02z"/>
		<path class="st9" d="M1261.58,1010.88c-2.46,0-4.61-0.99-6.41-2.93c-1.76-1.9-2.65-4.15-2.65-6.7v-40.51
			c0-4.57,1.53-8.53,4.54-11.78c3.05-3.29,6.79-4.96,11.13-4.96h41.3c4.33,0,8.08,1.67,11.13,4.96c3.01,3.25,4.54,7.21,4.54,11.78
			v39.49c0,2.65-0.92,4.99-2.73,6.95c-1.86,2-4.1,3.01-6.65,3.01h-1.88c-2.04,0-3.83-0.81-5.31-2.42c-1.14-1.22-1.83-2.63-2.08-4.19
			h-35.77c-0.25,1.77-1,3.35-2.25,4.7c-1.6,1.72-3.54,2.59-5.79,2.59H1261.58z M1306.38,985.18v-22.61l-35.58,0v22.61
			L1306.38,985.18z M1270.81,962.11L1270.81,962.11z M1198.29,1010.88c-2.35,0-4.38-0.9-6.02-2.67c-1.6-1.73-2.42-3.84-2.42-6.27
			v-36.61c0-4.57,1.53-8.53,4.54-11.78c3.05-3.29,6.79-4.96,11.13-4.96h19.32c4.33,0,8.07,1.67,11.13,4.96
			c3.01,3.25,4.54,7.21,4.54,11.78v21.36c0,4.57-1.53,8.53-4.54,11.78c-3.05,3.29-6.79,4.96-11.13,4.96h-18.18
			c-0.24,1.87-0.99,3.5-2.25,4.87c-1.6,1.72-3.6,2.59-5.95,2.59H1198.29z M1223.45,986.54v-20.91l-16.73,0v20.91L1223.45,986.54z
			 M1223.44,965.16L1223.44,965.16z M1197.97,941.05c-2.13,0-3.98-0.8-5.52-2.39c-1.52-1.56-2.29-3.52-2.29-5.8
			c0-2.26,0.76-4.23,2.26-5.85c1.54-1.66,3.41-2.5,5.55-2.5h33.77c2.14,0,4.01,0.84,5.55,2.5c1.5,1.63,2.26,3.59,2.26,5.85
			c0,2.28-0.77,4.23-2.29,5.8c-1.54,1.58-3.4,2.39-5.52,2.39H1197.97z M1249.8,936.81c-2.47,0-4.56-0.94-6.21-2.79
			c-1.58-1.78-2.39-3.94-2.39-6.41c0-2.49,0.81-4.63,2.42-6.36c1.65-1.78,3.73-2.68,6.18-2.68h12l0.01-0.04
			c1.01-5.67,2.03-11.72,3.04-17.99h-7.66c-2.25,0-4.22-0.9-5.86-2.67c-1.6-1.73-2.42-3.84-2.42-6.27c0-2.45,0.82-4.54,2.45-6.22
			c1.65-1.7,3.61-2.56,5.84-2.56h10.27c0.22-1.65,0.53-3.83,0.94-6.6c0.42-2.84,0.56-4.1,0.59-4.66h-14.16
			c-2.36,0-4.41-0.93-6.1-2.76c-1.65-1.78-2.49-3.92-2.49-6.36c0-2.45,0.85-4.57,2.52-6.31c1.69-1.75,3.74-2.64,6.07-2.64h66.27
			c2.35,0,4.38,0.9,6.02,2.67c1.6,1.73,2.42,3.84,2.42,6.28c0,2.42-0.8,4.55-2.39,6.33c-1.64,1.85-3.68,2.79-6.05,2.79h-33.36
			l-0.01,0.06c-0.2,1.07-0.49,2.95-0.85,5.58c-0.32,2.32-0.58,4.19-0.78,5.61h19.3c4.33,0,8.07,1.67,11.13,4.96
			c3.01,3.25,4.54,7.21,4.54,11.78v19.02h5.38c2.46,0,4.53,0.9,6.18,2.67c1.6,1.73,2.42,3.87,2.42,6.36c0,2.47-0.8,4.63-2.39,6.42
			c-1.64,1.85-3.73,2.79-6.21,2.79H1249.8z M1302.76,918.57v-18.03l-19.29,0c-0.71,4.18-1.72,10.19-3.01,18.03H1302.76z
			 M1197.97,917.49c-2.15,0-4.01-0.84-5.55-2.51c-1.5-1.61-2.26-3.55-2.26-5.76c0-2.21,0.76-4.15,2.26-5.77
			c1.54-1.66,3.41-2.5,5.55-2.5h33.77c2.14,0,4.01,0.84,5.55,2.5c1.5,1.62,2.26,3.56,2.26,5.77c0,2.21-0.76,4.15-2.26,5.77
			c-1.54,1.66-3.41,2.5-5.55,2.5H1197.97z M1190.59,893.76c-2.23,0-4.22-0.91-5.74-2.62c-1.48-1.66-2.23-3.65-2.23-5.9
			c0-2.26,0.76-4.23,2.26-5.85c1.54-1.66,3.46-2.5,5.71-2.5h46.64c2.24,0,4.16,0.84,5.71,2.5c1.5,1.62,2.26,3.59,2.26,5.85
			c0,2.25-0.75,4.23-2.23,5.9c-1.52,1.72-3.51,2.62-5.74,2.62H1190.59z M1199.07,870.03c-2.23,0-4.14-0.8-5.68-2.39
			c-1.52-1.56-2.29-3.52-2.29-5.8c0-2.26,0.76-4.23,2.26-5.85c1.54-1.66,3.46-2.5,5.71-2.5h32.51c2.24,0,4.16,0.84,5.71,2.5
			c1.5,1.62,2.26,3.59,2.26,5.85c0,2.28-0.77,4.23-2.29,5.8c-1.54,1.58-3.45,2.39-5.68,2.39H1199.07z"/>
	</g>
</g>
<path class="st10" d="M618.15,1017.89h-74.22c-28.48,0-51.56-23.09-51.56-51.56V892.1c0-28.48,23.09-51.56,51.56-51.56h74.22
	c28.48,0,51.56,23.09,51.56,51.56v74.22C669.71,994.8,646.62,1017.89,618.15,1017.89z"/>
</svg>
