<?xml version="1.0" encoding="utf-8"?>
<!-- Generator: Adobe Illustrator 23.0.5, SVG Export Plug-In . SVG Version: 6.00 Build 0)  -->
<svg version="1.1" id="圖層_1" xmlns="http://www.w3.org/2000/svg" xmlns:xlink="http://www.w3.org/1999/xlink" x="0px" y="0px"
	 viewBox="0 0 1920 1080" style="enable-background:new 0 0 1920 1080;" xml:space="preserve">
<style type="text/css">
	.st0{fill:#F8C548;stroke:#000000;stroke-miterlimit:10;}
	.st1{fill:#1F1F1F;}
	.st2{fill:#D39C20;stroke:#000000;stroke-miterlimit:10;}
	.st3{fill:#FFFFFF;stroke:#000000;stroke-width:3;stroke-miterlimit:10;}
	.st4{fill:#FFFFFF;stroke:#000000;stroke-width:6;stroke-miterlimit:10;}
</style>
<g>
	<g>
		<path d="M1055.54,181.78c-2.78-3.9-30.5-41.33-83.5-44.56c-39.18-2.39-77.13,14.83-98.58,44.56c-2.71,20.93-5.41,41.86-8.12,62.79
			c66.11-1.02,132.21-2.02,198.32-3.04C1060.95,221.62,1058.25,201.7,1055.54,181.78z M1013.79,213.12h-98.58v-44.56h98.58V213.12z"
			/>
		<path class="st0" d="M1184.35,997.09c-154.22-2.43-308.44-4.86-462.67-7.29c-50.79-0.8-91.44-37.09-91.2-81.45
			c0.72-136.85,5.18-255.56,10.45-352.42c7.56-139.01,15.37-206.08,75.38-260.27c79.52-71.81,198.39-74.11,241.23-74.94
			c40.31-0.78,174.48-3.38,259.78,73.93c51.88,47.02,66.69,106.17,69.58,299.77c1.32,88.01,0.11,198.23-8.16,326.22
			C1275.94,964.12,1234.22,997.87,1184.35,997.09z"/>
		<path d="M828.23,1005.07c-3.1,17.72-21.1,30.38-40.59,29.37c-17.9-0.92-33.18-13.16-35.95-29.37c0-29.37,0-58.74,0-88.11h76.54
			L828.23,1005.07L828.23,1005.07z"/>
		<path d="M1173.26,1005.58c-3.1,17.72-21.1,30.38-40.59,29.37c-17.9-0.92-33.18-13.16-35.95-29.37c0-29.37,0-58.74,0-88.11h76.54
			L1173.26,1005.58L1173.26,1005.58z"/>
		<path class="st1" d="M634.08,917.25c-10.02-2.14-23.4-6.41-35.05-15.8c-18.94-15.28-24.69-37.11-22.51-108.52
			c3.73-122.53,23.19-141.58,38.07-150.38c10.43-6.16,21.01-8.69,28.46-9.85C640.07,727.55,637.08,822.4,634.08,917.25z"/>
		<path class="st1" d="M1276.59,916.96c10.13-1.67,23.75-5.33,35.95-14.18c19.83-14.39,26.88-35.93,28.99-107.35
			c3.63-122.53-14.66-142.45-28.99-151.91c-10.05-6.63-20.46-9.63-27.83-11.14C1282,727.25,1279.29,822.1,1276.59,916.96z"/>
		<path class="st2" d="M1141.69,878.48H776.88c-23.52,0-42.58-16.55-42.58-36.96V671.37c0-20.41,19.07-36.96,42.58-36.96h364.82
			c23.52,0,42.58,16.55,42.58,36.96v170.15C1184.27,861.93,1165.21,878.48,1141.69,878.48z"/>
		<rect x="936.09" y="452.13" class="st1" width="59.15" height="106.34"/>
		<path class="st2" d="M760.39,263.61c0.37,121.79,92.65,220.41,206.44,220.41s206.07-98.61,206.44-220.41
			c-44.95-19.17-122.73-45.18-221.42-42.33C868.63,223.68,802.42,245.66,760.39,263.61z"/>
	</g>
</g>
<g>
	<g>
		<path class="st3" d="M793.9,1040.88c-2.51,0-4.67-0.96-6.41-2.84c-1.71-1.84-2.57-4.07-2.57-6.61v-47.2l-15.44,5.03
			c-0.94,0.29-1.88,0.44-2.82,0.44c-1.46,0-2.92-0.35-4.34-1.05l-0.1-0.05l-0.09-0.06c-2.22-1.4-3.67-3.4-4.32-5.94
			c-0.25-0.93-0.38-1.84-0.38-2.7c0-1.71,0.46-3.36,1.38-4.91c1.27-2.34,3.21-3.92,5.73-4.64c6.38-1.81,13.23-3.85,20.37-6.09
			l0.01,0c0-0.03,0-0.08,0-0.12v-32.74l-9.21,0c0,0.02-0.01,0.04-0.01,0.06c-1.27,5.85-2.66,11.26-4.14,16.15
			c-0.73,2.2-2.2,3.75-4.28,4.52c-0.76,0.28-1.54,0.43-2.31,0.43c-1.37,0-2.72-0.45-4-1.34c-1.9-1.23-3.22-2.99-3.89-5.22
			c-0.49-1.22-0.74-2.41-0.74-3.54c0-1.12,0.2-2.26,0.58-3.37c3.06-10.25,5.46-24.66,7.12-42.75c0.27-2.36,1.29-4.3,3.03-5.82
			c1.43-1.25,3.06-1.88,4.87-1.88c0.5,0,1.01,0.05,1.53,0.15c2.3,0.44,4.12,1.59,5.42,3.44c1.23,1.76,1.86,3.65,1.86,5.64
			c0,0.36-0.06,0.77-0.18,1.33c-0.5,5.1-1.04,9.45-1.63,12.94h5.97v-24.95c0-2.54,0.87-4.77,2.57-6.61
			c1.75-1.89,3.91-2.84,6.41-2.84c2.52,0,4.66,0.97,6.36,2.87c1.64,1.84,2.47,4.06,2.47,6.59v24.95l5.85,0
			c2.54,0,4.74,0.95,6.54,2.82c1.78,1.85,2.68,4.11,2.68,6.73c0,2.6-0.89,4.88-2.65,6.78c-1.8,1.94-4.01,2.93-6.57,2.93h-5.85v27.14
			l7.94-2.41c0.72-0.24,1.51-0.38,2.28-0.38c1.48,0,2.91,0.48,4.24,1.42c1.96,1.39,3.11,3.28,3.41,5.62
			c0.12,0.57,0.18,1.14,0.18,1.69c0,1.95-0.52,3.79-1.55,5.46c-1.25,2.16-3.02,3.71-5.23,4.55c-2.82,0.94-6.53,2.14-11.1,3.6
			c-0.09,0.03-0.14,0.05-0.18,0.07c0,0.01,0,53.27,0,53.27c0,2.53-0.83,4.74-2.47,6.58C798.56,1039.91,796.42,1040.88,793.9,1040.88
			z M869.52,1039.35c-2.62,0-4.97-0.99-6.97-2.94c-1.88-1.83-3.2-4.14-3.91-6.85c-0.55-2.24-0.22-4.42,0.99-6.51
			c1.5-2.61,3.65-3.16,5.19-3.16c0.26,0,0.52,0.02,0.8,0.05c2.23,0.11,4.87,0.16,7.84,0.16c1.82,0,3.13-0.73,4.12-2.29l0.06-0.1
			l0.08-0.09c1.48-1.8,3.68-7.61,5.76-24.99c1.71-14.22,3.25-37.1,4.6-68.01h-0.72c0,0.02-0.01,0.04-0.01,0.06
			c-4.09,21.84-10.1,42.45-17.86,61.25c-7.81,18.9-17.24,34.22-28.04,45.53c-1.94,2.09-4.36,3.16-7.18,3.16
			c-2.72,0-5.18-0.89-7.32-2.66c-2.01-1.59-3.08-3.89-3.08-6.63c0-2.27,0.91-4.25,2.69-5.88c10.3-9.8,19.29-23.27,26.69-40.01
			c7.33-16.6,13.04-35.04,16.97-54.82h-6.76c-3.38,13.67-7.99,26.94-13.71,39.5c-5.76,12.66-12.34,23.26-19.55,31.51
			c-1.56,1.97-3.79,3.06-6.37,3.06h-0.16c-2.44,0-4.66-0.77-6.58-2.3c-1.89-1.45-2.98-3.52-3.11-5.95
			c-0.14-2.45,0.64-4.53,2.32-6.19c6.27-6.77,12.16-15.65,17.44-26.33c5.16-10.44,9.48-21.64,12.85-33.3h-7.05
			c-0.12,0-0.19,0.02-0.2,0.03c0,0-0.07,0.05-0.15,0.26c-3.9,9.45-8.14,17.72-12.58,24.57c-1.47,2.17-3.47,3.42-5.95,3.75
			c-0.45,0.14-0.92,0.21-1.38,0.21c-2.05,0-3.96-0.73-5.68-2.16c-1.85-1.57-2.98-3.63-3.37-6.15l-0.02-0.15v-1.17
			c0-2.13,0.61-4.02,1.82-5.61c8.77-12.65,15.8-30.1,20.85-51.79c0.66-2.43,1.97-4.34,3.92-5.75c1.6-1.15,3.31-1.73,5.1-1.73
			c0.56,0,1.15,0.07,1.83,0.21c2.3,0.44,4.18,1.77,5.53,3.96c0.94,1.59,1.4,3.19,1.4,4.78c0,0.77-0.13,1.57-0.4,2.45
			c-1.09,4.29-2.51,9.49-4.19,15.38h45.15c4.33,0,8.04,1.64,11.05,4.88c2.76,3.11,4.15,6.81,4.15,11.02
			c0,22.11-1.8,48.53-5.35,78.54c-1.84,15.86-4.32,25.76-7.59,30.26c-1.83,2.71-3.71,4.62-5.71,5.8c-1.9,1.12-4.35,2-7.28,2.61
			c-2.31,0.38-5.29,0.55-9.2,0.55H869.52z"/>
		<path class="st3" d="M936.42,1039.69c-1.34,0-2.69-0.2-4.02-0.59c-2.64-0.78-5.01-2.28-7.03-4.46c-1.19-1.28-1.79-2.76-1.79-4.41
			c0-0.64,0.07-1.2,0.23-1.72c0.61-2.38,2.18-3.98,4.55-4.62c12.51-3.12,23.22-6.79,31.86-10.89c0.07-0.03,0.14-0.06,0.21-0.09
			h-5.16c-4.33,0-8.07-1.67-11.13-4.96c-3.01-3.25-4.54-7.21-4.54-11.78v-40.34c0-4.57,1.53-8.53,4.54-11.78
			c3.05-3.29,6.79-4.96,11.13-4.96H971c-0.31-1-0.46-2.03-0.46-3.08c0-1.21,0.19-2.44,0.56-3.64l0.04-0.12
			c1.17-3.08,3.33-5.09,6.26-5.81c7.89-2.16,13.93-5.03,17.92-8.54c3.71-3.27,6.45-7.45,8.15-12.43h-10.36
			c-0.33,0-0.58,0.08-0.87,0.5l-0.07,0.1c-2.46,3.12-5.06,5.99-7.73,8.52c-1.97,1.71-4.12,2.61-6.44,2.75l-0.12,0
			c-2.3,0-4.49-0.75-6.49-2.23c-1.85-1.24-2.9-3.05-3.04-5.23c-0.14-2.15,0.61-4.1,2.17-5.63l0.08-0.07
			c6.07-5.35,11.1-11.67,14.95-18.77c1.22-2.25,2.91-3.99,5.01-5.19c1.65-0.96,3.42-1.45,5.23-1.45c0.53,0,1.11,0.07,1.76,0.2
			c2.31,0.34,4.09,1.68,5.15,3.9c1.05,2.2,1.01,4.5-0.12,6.63l-0.24,0.45h47.49l0.44-0.11c0.74-0.18,1.49-0.28,2.23-0.28
			c0.99,0,1.99,0.16,2.97,0.49l2.9,0.82c1.83,0.49,3.22,1.75,3.98,3.63c0.74,1.83,0.66,3.72-0.23,5.47
			c-2.97,5.83-6.09,11.05-9.26,15.51c-1.42,1.95-3.29,3.22-5.57,3.8c-1.03,0.4-2.08,0.6-3.12,0.6c-1.17,0-2.35-0.21-3.5-0.63
			c-2.01-0.83-3.33-2.33-3.92-4.39c-0.57-2-0.28-4.02,0.85-5.84l0.07-0.11c0.72-1.01,1.49-2.16,2.32-3.45h-16.04
			c2.02,5.3,5.54,9.9,10.45,13.71c5.27,4.08,13.81,7.26,25.38,9.45c2.18,0.5,3.76,1.92,4.63,4.11l0.03,0.08l0.02,0.08
			c0.27,0.87,0.4,1.69,0.4,2.45c0,1.19-0.27,2.38-0.81,3.55l-0.05,0.11l-0.06,0.1c-1.43,2.31-3.2,4.08-5.26,5.26l-0.1,0.05
			c-1.63,0.81-3.25,1.23-4.82,1.23c-0.75,0-1.51-0.07-2.24-0.2l-0.12-0.03l-2.86-0.71v51.48c0,4.57-1.53,8.53-4.54,11.78
			c-3.05,3.29-6.79,4.96-11.13,4.96H1026c11.57,4.41,22.08,8.77,31.23,12.96c2.26,0.97,3.52,3.01,3.52,5.72
			c0,2.73-1.34,4.77-3.76,5.75c-2.69,1.21-5.56,1.84-8.45,1.84c-3.34,0-6.76-0.87-10.17-2.59c-8.28-4.13-17.63-8.27-27.79-12.3
			c-2.35-1.02-3.62-2.99-3.62-5.59c0-1.33,0.45-3.23,2.6-4.7c0.61-0.41,1.22-0.77,1.83-1.1h-35.65c1.37,0.71,3,2.19,3.18,5.16
			c0.15,2.44-0.87,4.42-2.88,5.58c-10.35,5.81-22.3,11-35.55,15.42C939.11,1039.49,937.75,1039.69,936.42,1039.69z M1029.59,998.74
			v-6.17l-71.38,0v6.17L1029.59,998.74z M1029.59,978.74v-6l-71.38,0v6L1029.59,978.74z M1029.59,959.08v-5.66l-71.38,0v5.66
			L1029.59,959.08z M1033.74,939.08c-8.35-4.18-14.82-9.78-19.31-16.72c-4.98,7-12.62,12.59-22.81,16.72H1033.74z M930.45,941.39
			c-1.46,0-2.92-0.35-4.34-1.05c-2.32-1.11-4.02-2.94-5.05-5.44c-0.42-1.04-0.62-2.15-0.62-3.3c0-1.17,0.26-2.39,0.78-3.64
			l0.06-0.12c1.1-2.23,2.86-3.67,5.23-4.27c6.78-1.69,17.7-4.7,32.45-8.97l0.14-0.03c0.68-0.14,1.27-0.21,1.83-0.21
			c1.48,0,2.83,0.47,4.01,1.4c1.81,1.24,2.85,3.08,3.01,5.33c0.24,2.21-0.18,4.31-1.27,6.24c-1.14,2.02-2.8,3.41-4.95,4.14
			c-4.36,1.57-13.62,4.68-28.28,9.5l-0.1,0.03C932.33,941.25,931.36,941.39,930.45,941.39z M958.25,907.83
			c-1.38,0-2.76-0.37-4.09-1.09c-6.42-3.07-13.69-6.07-21.55-8.86c-2.06-0.79-3.5-2.29-4.21-4.37c-0.72-2.08-0.49-4.16,0.66-6.02
			c1.27-2.05,2.96-3.52,5.03-4.36c1.23-0.44,2.41-0.65,3.58-0.65c0.82,0,1.66,0.06,2.5,0.19l0.16,0.02l0.15,0.05
			c7.78,2.5,15.2,5.32,22.04,8.38c2.17,0.88,3.72,2.69,4.41,5.2c0.25,0.81,0.39,1.69,0.39,2.56c0,1.5-0.41,2.87-1.23,4.08
			c-1.19,2.23-2.94,3.72-5.19,4.43C959.97,907.69,959.08,907.83,958.25,907.83z"/>
		<path class="st3" d="M1166.18,1041.05c-2.47,0-4.71-0.85-6.65-2.52c-1.84-1.59-3.2-3.65-4.04-6.12c-0.71-2.31-0.49-4.42,0.65-6.33
			c1.2-2.02,3.04-3.1,5.33-3.1h14.21c0.86-0.08,1.28-0.2,1.47-0.27c0.03-0.12,0.07-0.37,0.07-0.78v-17.32l-47.85,0
			c3.57,2.81,6.74,5.58,9.48,8.27c1.73,1.58,2.64,3.68,2.64,6.17c0,2.8-0.94,5.16-2.78,7.01l-0.06,0.06l-0.06,0.05
			c-1.83,1.55-3.85,2.34-6,2.34h-0.53l-0.06,0c-2.38-0.14-4.5-1.14-6.32-2.96c-3.59-3.54-7.81-7.19-12.53-10.85
			c-2.19-1.77-3.29-4.12-3.29-7c0-1.1,0.19-2.13,0.58-3.08h-22.77c-2.25,0-4.22-0.9-5.86-2.67c-1.6-1.73-2.42-3.82-2.42-6.19
			c0-2.39,0.82-4.46,2.45-6.13c1.65-1.7,3.61-2.56,5.84-2.56h89.56v-5.66l-7.27,0c-4.33,0-8.08-1.67-11.13-4.96
			c-3.01-3.25-4.54-7.21-4.54-11.78v-6.78c0-4.57,1.53-8.53,4.54-11.78c3.05-3.29,6.79-4.96,11.13-4.96h33.92
			c4.33,0,8.08,1.67,11.13,4.96c3.01,3.25,4.54,7.21,4.54,11.78v6.78c0,4.57-1.53,8.53-4.54,11.78c-3.05,3.29-6.79,4.96-11.13,4.96
			h-7.89v5.66l24.07,0c2.23,0,4.19,0.86,5.83,2.56c1.62,1.68,2.45,3.74,2.45,6.14c0,2.38-0.81,4.46-2.42,6.19
			c-1.64,1.77-3.62,2.67-5.86,2.67h-24.07v17.83c0,4.4-0.58,7.76-1.76,10.26c-1.27,2.68-3.55,4.65-6.76,5.85
			c-4.01,1.56-10.91,2.38-21.09,2.5h-0.01H1166.18z M1195.99,1004.14L1195.99,1004.14z M1200.62,966.54V955.8l-28.35,0v10.74
			L1200.62,966.54z M1091.02,984.96c-1.93,0-3.68-0.73-5.21-2.17c-1.6-1.51-2.54-3.37-2.81-5.53l-0.01-0.12
			c-0.14-2.18,0.48-4.18,1.83-5.92c1.42-1.84,3.32-2.81,5.51-2.81c6.8-0.33,12.61-0.66,17.16-0.99v-10.94l-14.96,0
			c-2.01,0-3.82-0.81-5.24-2.34c-1.39-1.5-2.1-3.33-2.1-5.43c0-2.11,0.72-3.92,2.14-5.38c1.43-1.47,3.18-2.21,5.2-2.21h48.68
			c2.02,0,3.77,0.74,5.2,2.21c1.42,1.46,2.14,3.27,2.14,5.38c0,2.09-0.71,3.92-2.1,5.43c-1.42,1.53-3.23,2.34-5.24,2.34h-15.75v9.88
			c8.63-0.55,14.81-1,18.39-1.33c0.22-0.02,0.39-0.02,0.57-0.02c1.85,0,3.52,0.75,4.85,2.18c1.4,1.51,2.11,3.34,2.11,5.43
			c0,2.06-0.69,3.92-2.04,5.53c-1.4,1.67-3.14,2.59-5.15,2.74c-14.63,1.23-32.33,2.6-52.62,4.07
			C1091.38,984.96,1091.2,984.96,1091.02,984.96z M1103.99,937.66c-1.91,0-3.64-0.78-5-2.25c-1.34-1.45-2.02-3.21-2.02-5.26
			c0-2.04,0.68-3.81,2.03-5.26c1.37-1.47,3.09-2.25,5-2.25h84.85V918l-80.14,0c-1.8,0-3.45-0.75-4.76-2.17
			c-1.29-1.39-1.95-3.11-1.95-5.09c0-1.98,0.66-3.69,1.95-5.09c1.31-1.42,2.96-2.17,4.77-2.17h80.14v-4.64l-84.06,0
			c-1.91,0-3.64-0.78-5-2.25c-1.34-1.44-2.02-3.18-2.02-5.17c0-1.98,0.68-3.72,2.03-5.17c1.37-1.47,3.09-2.25,5-2.25h87
			c4.33,0,8.07,1.67,11.13,4.96c3.01,3.25,4.54,7.21,4.54,11.78v20.17c0,4.57-1.53,8.53-4.54,11.78c-3.05,3.29-6.8,4.96-11.13,4.96
			H1103.99z"/>
		<path class="st3" d="M1370.08,1040.03l-0.1-0.01c-13.53-1.4-24.54-10.61-32.74-27.37c-7.78,7.08-15.88,13.16-24.13,18.11
			c-1.9,1.09-3.82,1.64-5.74,1.64c-0.83,0-1.64-0.07-2.39-0.2l-0.11-0.02c-2.79-0.66-5.25-2.11-7.29-4.32
			c-1.5-1.62-2.26-3.5-2.26-5.6v-1l0.02-0.15c0.41-2.64,1.79-4.66,4.01-5.86c10.68-5.65,20.83-13.18,30.17-22.38l0.07-0.07
			l0.07-0.06c0.16-0.13,0.24-0.19,0.12-0.62c-3.66-12.84-6.78-29.62-9.29-49.85l-13.49,1.49h-0.9c-2.18,0-4.11-0.74-5.74-2.21
			c-1.94-1.67-3.06-3.88-3.32-6.55l-0.01-0.1v-0.94c0-2.25,0.67-4.26,1.99-5.97c1.57-2.12,3.67-3.35,6.22-3.65l13.61-1.32
			c-1.35-17.69-2.03-29.4-2.03-34.83c0-2.51,0.79-4.72,2.36-6.55c1.91-2.06,4.2-3.07,6.86-3.07c2.65,0,4.96,1,6.86,2.99
			c1.86,1.94,2.86,4.31,2.99,7.05c0.41,12.55,1.03,23.4,1.85,32.29l39.24-4.33c0.45-0.13,0.91-0.2,1.36-0.2
			c2.08,0,4.01,0.8,5.75,2.39c1.83,1.7,2.89,3.83,3.15,6.36l0.01,0.1v0.95c0,2.25-0.67,4.26-1.99,5.97
			c-1.57,2.12-3.62,3.35-6.06,3.65l-39.52,4.35c1.52,12.97,3.5,24.68,5.9,34.86c6.34-8.57,11.62-17.18,15.73-25.63
			c1.04-2.4,2.84-4.03,5.31-4.77l0.11-0.03l0.12-0.02c0.76-0.13,1.44-0.2,2.08-0.2c1.54,0,3.01,0.45,4.38,1.34
			c2.21,1.4,3.66,3.46,4.31,6.12c0.24,0.92,0.37,1.89,0.37,2.85c0,1.5-0.32,3.02-0.94,4.5c-6.26,13.06-14.49,25.69-24.5,37.63
			c-0.24,0.27-0.29,0.34-0.16,0.66c4.98,11.92,10.8,18.46,17.3,19.44h0.17c0.32,0,1.16-0.67,2.04-3.23
			c1.1-3.03,2.02-7.78,2.73-14.15c0.3-2.42,1.55-4.17,3.62-5.08c0.83-0.36,1.68-0.55,2.52-0.55c1.22,0,2.42,0.38,3.55,1.14
			c2.29,1.56,4.05,3.59,5.25,6.04c0.87,1.88,1.3,3.82,1.3,5.79c0,0.84-0.13,1.63-0.37,2.37c-1.95,11.39-4.52,19.2-7.85,23.88
			c-3.2,4.6-7.02,6.94-11.37,6.94H1370.08z M1255.86,1039.52c-2.37,0-4.55-0.85-6.49-2.52c-1.84-1.59-3.2-3.65-4.04-6.12
			c-0.71-2.28-0.42-4.52,0.82-6.53c1.31-2.12,3.25-3.24,5.63-3.24c2.72,0.11,5.56,0.17,8.54,0.17c0.65-0.07,0.89-0.21,0.94-0.24
			c-0.01-0.02,0.14-0.37,0.14-1.32v-38.25l-9.63,2.86c-0.82,0.29-1.72,0.44-2.66,0.44c-1.64,0-3.21-0.5-4.68-1.49
			c-2.23-1.3-3.69-3.3-4.33-5.97c-0.24-0.91-0.37-1.82-0.37-2.68c0-1.66,0.39-3.28,1.16-4.8l0.05-0.1c1.31-2.26,3.24-3.77,5.74-4.48
			c6.04-1.46,10.94-2.75,14.67-3.87c0.03-0.03,0.06-0.13,0.06-0.31v-30.37l-12.45,0c-2.46,0-4.59-0.96-6.34-2.85
			c-1.71-1.84-2.57-4.09-2.57-6.7c0-2.61,0.88-4.85,2.6-6.64c1.75-1.81,3.87-2.73,6.31-2.73h12.45v-24.1c0-2.67,0.93-4.99,2.76-6.9
			c1.85-1.92,4.08-2.9,6.62-2.9c2.54,0,4.77,0.98,6.62,2.9c1.83,1.9,2.76,4.22,2.76,6.9v24.1l9.46,0c2.56,0,4.71,0.93,6.41,2.76
			c1.66,1.79,2.5,4.02,2.5,6.62c0,2.59-0.83,4.83-2.47,6.67c-1.7,1.91-3.86,2.87-6.44,2.87h-9.46v25.3c0.65-0.17,1.7-0.47,3.38-0.99
			c2.4-0.73,4.24-1.26,5.61-1.6c0.73-0.29,1.52-0.43,2.35-0.43c1.46,0,2.91,0.52,4.29,1.55c2.03,1.34,3.24,3.41,3.51,6.01l0.01,0.1
			v1.29c0,1.93-0.51,3.8-1.52,5.57c-1.3,2.24-3.2,3.8-5.65,4.63c-5.8,1.82-9.77,3.06-11.98,3.74c0.01,0.01-0.02,0.11-0.02,0.3v43.73
			c0,4.61-0.51,8.05-1.57,10.53c-1.12,2.63-3.07,4.64-5.78,5.99c-3.35,1.85-8.78,2.87-16.57,3.11l-0.03,0H1255.86z M1365.47,915.63
			c-0.66,0-1.28-0.07-1.84-0.21c-2.46-0.44-4.5-1.73-6.05-3.82c-3.18-4.21-7.15-9-11.79-14.23c-1.63-1.64-2.39-3.79-2.19-6.2
			c0.21-2.45,1.34-4.45,3.29-5.8c1.8-1.25,3.76-1.88,5.85-1.88l0.9,0c2.51,0.14,4.66,1.16,6.38,3.01c4.57,4.71,8.77,9.3,12.46,13.62
			l0.06,0.08c1.32,1.71,1.99,3.72,1.99,5.97v1.16l-0.02,0.14c-0.39,2.68-1.66,4.83-3.77,6.4
			C1369.13,915.04,1367.36,915.63,1365.47,915.63z"/>
	</g>
</g>
<path class="st4" d="M670.15,1048.89h-74.22c-28.48,0-51.56-23.09-51.56-51.56V923.1c0-28.48,23.09-51.56,51.56-51.56h74.22
	c28.48,0,51.56,23.09,51.56,51.56v74.22C721.71,1025.8,698.62,1048.89,670.15,1048.89z"/>
</svg>
