<?xml version="1.0" encoding="utf-8"?>
<!-- Generator: Adobe Illustrator 23.0.5, SVG Export Plug-In . SVG Version: 6.00 Build 0)  -->
<svg version="1.1" id="圖層_1" xmlns="http://www.w3.org/2000/svg" xmlns:xlink="http://www.w3.org/1999/xlink" x="0px" y="0px"
	 viewBox="0 0 1920 1080" style="enable-background:new 0 0 1920 1080;" xml:space="preserve">
<style type="text/css">
	.st0{fill:#593B26;}
	.st1{fill:#774F31;}
	.st2{fill:#AA7244;stroke:#050505;stroke-width:4;stroke-miterlimit:10;}
	.st3{fill:#B5C4BD;stroke:#020202;stroke-width:4;stroke-miterlimit:10;}
	.st4{fill:#C5D1CA;stroke:#020202;stroke-width:4;stroke-miterlimit:10;}
	.st5{fill:#FEF367;stroke:#050505;stroke-width:4;stroke-miterlimit:10;}
	.st6{fill:#FFFFFF;}
	.st7{fill:#FFFFFF;stroke:#000000;stroke-width:3;stroke-miterlimit:10;}
	.st8{fill:#FFFFFF;stroke:#000000;stroke-width:6;stroke-miterlimit:10;}
</style>
<g>
	<g>
		<path class="st0" d="M1231.81,1034H702.78c36.37-42.83,72.74-85.66,109.1-128.49c98.96,0.15,197.91,0.3,296.87,0.45
			C1149.77,948.64,1190.79,991.32,1231.81,1034z"/>
		<rect x="930.7" y="187.48" class="st1" width="55.18" height="752.58"/>
		<path class="st2" d="M1065.06,682.01c-26.91,6.03-62.44,11.6-104.37,11.88c-40.16,0.27-74.44-4.4-100.77-9.72
			c3.2-28.43,6.4-56.87,9.6-85.3c57.18,0.72,114.36,1.44,171.55,2.16C1049.06,628.02,1057.06,655.01,1065.06,682.01z"/>
		<path class="st3" d="M868.32,684.16c-14.8,4.11-28.32,1.64-43.19-1.08c-20.7-3.78-63.69-11.64-74.38-38.87
			c-9.33-23.79,8.01-57.26,44.39-77.74c43.19,12.96,86.37,25.91,129.56,38.87C924.33,608.03,914.52,671.35,868.32,684.16z"/>
		<path class="st4" d="M873.12,661.49c-9.75,5.95-21.76,3.68-43.19-1.08c-5.86-1.3-75.45-17.19-74.38-38.87
			c0.19-3.9,2.78-10.09,16.79-17.28h106.77C887.86,642.84,881.34,656.47,873.12,661.49z"/>
		<path class="st4" d="M888.72,631.26c-9.75,5.95-21.76,3.68-43.19-1.08c-5.86-1.3-75.45-17.19-74.38-38.87
			c0.19-3.9,2.78-10.09,16.79-17.28h106.77C903.46,612.6,896.93,626.24,888.72,631.26z"/>
		<path class="st3" d="M1060.17,680.93c14.8,4.11,28.32,1.64,43.19-1.08c20.7-3.78,63.69-11.64,74.38-38.87
			c9.33-23.79-8.01-57.26-44.39-77.74c-43.19,12.96-86.37,25.91-129.56,38.87C1004.17,604.79,1013.97,668.11,1060.17,680.93z"/>
		<path class="st4" d="M1055.37,658.25c9.75,5.95,21.76,3.68,43.19-1.08c5.86-1.3,75.45-17.19,74.38-38.87
			c-0.19-3.9-2.78-10.09-16.79-17.28h-106.77C1040.63,639.6,1047.16,653.24,1055.37,658.25z"/>
		<path class="st4" d="M1039.78,628.02c9.75,5.95,21.76,3.68,43.19-1.08c5.86-1.3,75.45-17.19,74.38-38.87
			c-0.19-3.9-2.78-10.09-16.79-17.28h-106.77C1025.04,609.37,1031.56,623,1039.78,628.02z"/>
		<path class="st3" d="M929.5,574.56c-23.97,7.79-48.44-2.7-71.98-12.79c-25.24-10.82-42.58-24.69-52.78-34.12
			c19.19-27.01,38.39-54.02,57.58-81.03c45.19,9.6,90.37,19.19,135.56,28.79c-3.7,12.68-10.34,30.96-22.79,51.18
			C959.46,551.95,949.54,568.06,929.5,574.56z"/>
		<path class="st3" d="M1090.25,575.11c-40.04,34.22-96.78,34.42-131.96,34.55c-33.69,0.12-86.38,0.31-125.96-30.23
			c-48.46-37.39-61.61-108.77-35.99-179.24h320.3C1144.86,466.88,1135.45,536.48,1090.25,575.11z"/>
		<path class="st5" d="M912.24,609.63c-33.6-9.61-67.2-19.21-100.8-28.82c-11.46-3.28-17.2-12.92-12.7-21.33
			c0.05-0.1,0.11-0.2,0.16-0.3c4.25-7.94,16.13-11.9,27.04-9.02c33.86,8.95,67.71,17.9,101.57,26.85
			c11.11,2.94,17.23,11.9,13.82,20.24c-0.31,0.76-0.62,1.51-0.93,2.27C936.77,608.35,923.91,612.97,912.24,609.63z"/>
		<path class="st5" d="M1004.78,607.47c33.6-9.61,67.2-19.21,100.8-28.82c11.46-3.28,17.2-12.92,12.7-21.33
			c-0.05-0.1-0.11-0.2-0.16-0.3c-4.25-7.94-16.13-11.9-27.04-9.02c-33.86,8.95-67.71,17.9-101.57,26.85
			c-11.11,2.94-17.23,11.9-13.82,20.24c0.31,0.76,0.62,1.51,0.93,2.27C980.25,606.19,993.11,610.81,1004.78,607.47z"/>
		<ellipse class="st2" cx="961.89" cy="598.87" rx="27.59" ry="22.67"/>
		<path class="st3" d="M1164.71,639.9c6.49,4.13,27.72,16.13,51.58,10.8c0,0,14.32-3.2,25.19-12.96
			c22.98-20.61,2.87-89.53-44.39-169.52c-29.19,5.76-58.38,11.52-87.57,17.28c4.31,38.49,12.28,69.62,19.19,91.78
			C1141.92,619.57,1152.11,631.86,1164.71,639.9z"/>
		<path class="st4" d="M1133.49,570.43l104.16-38.04c7.15-2.61,10.6-9.95,7.69-16.38l-1.22-2.7c-2.9-6.44-11.05-9.54-18.2-6.92
			l-104.16,38.04c-7.15,2.61-10.6,9.95-7.69,16.38l1.22,2.7C1118.19,569.94,1126.34,573.04,1133.49,570.43z"/>
		<path class="st3" d="M754.36,643.13c-6.49,4.13-27.72,16.13-51.58,10.8c0,0-14.32-3.2-25.19-12.96
			c-22.98-20.61-2.87-89.53,44.39-169.52c29.19,5.76,58.38,11.52,87.57,17.28c-4.31,38.49-12.28,69.62-19.19,91.78
			C777.15,622.81,766.96,635.1,754.36,643.13z"/>
		<path class="st3" d="M879.12,446.08c-14.11,39.34-51.73,59.47-83.97,62.04c-36.78,2.93-80.9-15.84-97.17-56.98
			c-12.23-30.91-3.2-60.46,0-69.64c59.98-1.69,119.96-3.38,179.94-5.06C881.16,385.34,890.49,414.37,879.12,446.08z"/>
		<ellipse class="st3" cx="785.55" cy="411.53" rx="71.98" ry="67.48"/>
		<path class="st3" d="M1042.27,446.08c14.11,39.34,51.73,59.47,83.97,62.04c36.78,2.93,80.9-15.84,97.17-56.98
			c12.23-30.91,3.2-60.46,0-69.64c-59.98-1.69-119.96-3.38-179.94-5.06C1040.23,385.34,1030.89,414.37,1042.27,446.08z"/>
		<ellipse class="st3" cx="1135.84" cy="411.53" rx="71.98" ry="67.48"/>
		<path class="st3" d="M755.56,269.55c-10.44-1.59-24.85-5.61-35.99-16.2c-26.74-25.42-21.15-75.87,8.4-93.94
			c9.62-5.88,20.3-7.43,28.79-7.56C756.36,191.08,755.96,230.31,755.56,269.55z"/>
		<path class="st3" d="M1166.59,269.55c10.44-1.59,24.85-5.61,35.99-16.2c26.74-25.42,21.15-75.87-8.4-93.94
			c-9.62-5.88-20.3-7.43-28.79-7.56C1165.79,191.08,1166.19,230.31,1166.59,269.55z"/>
		<path class="st3" d="M1180.22,223.66c-1.51,20.35-7.08,81.15-62.38,130.11c-56.82,50.3-126.91,53.37-147.55,53.99
			c-16.68,0.49-106.09,1.5-169.15-58.31c-77.35-73.36-74.47-199.74-3.6-275.33c60.67-64.7,149.27-68.85,157.15-69.1
			c100.08-3.24,162.49,58.72,171.55,68.02C1185.58,134,1181.55,205.8,1180.22,223.66z"/>
		<path d="M1132.24,250.11c-23.78,13.6-85.57,44.92-171.55,44.27c-81.54-0.62-140.31-29.66-164.35-43.19
			c-16.05-5.92-25.51-17.64-23.99-28.07c0.32-2.17,1.4-6.31,6-10.8c16.96-13.9,43.97-32.82,81.57-47.51
			c40.62-15.87,77.05-20.35,100.77-21.59c27.9,2.17,66,8.02,107.97,23.75c26.72,10.02,48.71,21.68,65.98,32.39
			c11.13,4.04,18.67,13.38,19.19,23.75C1154.43,235.07,1145.61,246.3,1132.24,250.11z"/>
		<ellipse class="st6" cx="818.54" cy="88.69" rx="15" ry="13.5"/>
		<path class="st6" d="M935.43,25.04c3.95,6.16-0.03,13.95-7.78,15.32c-12.21,2.16-27.74,6.51-43.73,15.4
			c-13.08,7.28-22.89,15.6-29.98,22.94c-5.15,5.33-14.63,4.43-18.55-1.68c-0.04-0.07-0.09-0.14-0.13-0.21
			c-2.69-4.19-1.78-9.48,2.15-12.77c7.85-6.56,17.3-13.51,28.52-20.16c20.45-12.12,40.16-19.35,56.09-23.77
			c5.1-1.42,10.61,0.56,13.28,4.73C935.34,24.9,935.38,24.97,935.43,25.04z"/>
		<ellipse class="st6" cx="758.56" cy="385.62" rx="19.79" ry="17.82"/>
		<ellipse class="st6" cx="1172.43" cy="385.62" rx="19.79" ry="17.82"/>
		<path class="st4" d="M785.58,573.67l-104.16-38.04c-7.15-2.61-10.6-9.95-7.69-16.38l1.22-2.7c2.9-6.44,11.05-9.54,18.2-6.92
			l104.16,38.04c7.15,2.61,10.6,9.95,7.69,16.38l-1.22,2.7C800.88,573.18,792.73,576.28,785.58,573.67z"/>
		<rect x="930.7" y="108.66" class="st1" width="55.18" height="205.15"/>
		<path class="st3" d="M1167.03,183.17c-24.53-16.02-55.69-33.71-93.57-49.67c-43.13-18.17-82.85-28.99-115.16-35.63
			C925.51,106,887,117.9,845.53,135.66c-38.4,16.44-70.78,34.24-97.17,50.75c2.8,30.23,5.6,60.47,8.4,90.7
			C786.08,354.4,864.71,407.71,953.5,411c95.04,3.52,183.09-50.97,214.73-133.89C1167.83,245.79,1167.43,214.48,1167.03,183.17z
			 M1131.04,251.19c-23.78,13.6-85.57,44.92-171.55,44.27c-81.54-0.62-140.31-29.66-164.35-43.19
			c-16.05-5.92-25.51-17.64-23.99-28.07c0.32-2.17,1.4-6.31,6-10.8c16.96-13.9,43.97-32.82,81.57-47.51
			c40.62-15.87,77.05-20.35,100.77-21.59c27.9,2.17,66,8.02,107.97,23.75c26.72,10.02,48.71,21.68,65.98,32.39
			c11.13,4.04,18.67,13.38,19.19,23.75C1153.23,236.15,1144.41,247.38,1131.04,251.19z"/>
		<path d="M844.32,351.84L844.32,351.84c-6.59,0.65-12.51-3.62-13.24-9.55l-4.44-36.37c-0.72-5.93,4.03-11.26,10.61-11.91l0,0
			c6.59-0.65,12.51,3.62,13.24,9.55l4.44,36.37C855.66,345.86,850.91,351.19,844.32,351.84z"/>
		<path d="M881.51,363.72L881.51,363.72c-6.59,0.65-12.51-3.62-13.24-9.55l-4.44-36.37c-0.72-5.93,4.03-11.26,10.61-11.91l0,0
			c6.59-0.65,12.51,3.62,13.24,9.55l4.44,36.37C892.85,357.74,888.1,363.07,881.51,363.72z"/>
		<path d="M918.09,371.41L918.09,371.41c-6.62,0.32-12.27-4.25-12.62-10.21l-2.17-36.53c-0.35-5.95,4.72-11.04,11.34-11.36l0,0
			c6.62-0.32,12.27,4.25,12.62,10.21l2.17,36.53C929.78,366.01,924.7,371.09,918.09,371.41z"/>
		<path d="M1074.84,354L1074.84,354c6.59,0.65,12.51-3.62,13.24-9.55l4.44-36.37c0.72-5.93-4.03-11.26-10.61-11.91l0,0
			c-6.59-0.65-12.51,3.62-13.24,9.55l-4.44,36.37C1063.5,348.02,1068.25,353.35,1074.84,354z"/>
		<path d="M1037.65,365.88L1037.65,365.88c6.59,0.65,12.51-3.62,13.24-9.55l4.44-36.37c0.72-5.93-4.03-11.26-10.61-11.91l0,0
			c-6.59-0.65-12.51,3.62-13.24,9.55l-4.44,36.37C1026.31,359.89,1031.07,365.23,1037.65,365.88z"/>
		<path d="M1001.08,373.57L1001.08,373.57c6.62,0.32,12.27-4.25,12.62-10.21l2.17-36.53c0.35-5.95-4.72-11.04-11.34-11.36l0,0
			c-6.62-0.32-12.27,4.25-12.62,10.21l-2.17,36.53C989.38,368.17,994.46,373.25,1001.08,373.57z"/>
		<path d="M960.35,380.76h-3.99c-5.52,0-10-4.48-10-10v-46.41c0-5.52,4.48-10,10-10h3.99c5.52,0,10,4.48,10,10v46.41
			C970.35,376.28,965.87,380.76,960.35,380.76z"/>
		<path class="st1" d="M1218.61,1019.96H718.37c34.39-42.83,68.78-85.66,103.17-128.49c93.57,0.15,187.14,0.3,280.71,0.45
			C1141.04,934.6,1179.82,977.28,1218.61,1019.96z"/>
	</g>
</g>
<g>
	<g>
		<path class="st7" d="M735.52,1050.05c-2.35,0-4.4-0.93-6.1-2.76c-1.66-1.79-2.5-3.93-2.5-6.36V910.76c0-4.57,1.53-8.53,4.54-11.78
			c3.05-3.29,6.79-4.96,11.13-4.96h21.76c0.52-0.11,1.05-0.17,1.55-0.17c1.22,0,2.38,0.32,3.46,0.95l3.21,2.08
			c1.73,1.15,2.99,2.75,3.76,4.78c0.79,2.06,0.86,4.18,0.2,6.31c-5.32,16.9-9.66,29.98-12.91,38.91c-0.19,0.46-0.16,0.71,0.08,1.06
			c2.95,3.83,5.4,7.8,7.33,11.89c-0.14-0.88-0.12-1.81,0.05-2.78c0.42-2.42,1.77-4.27,3.9-5.34c10.13-5.37,19.18-11.67,26.94-18.76
			h-20.54c-2.35,0-4.38-0.9-6.02-2.67c-1.6-1.73-2.42-3.84-2.42-6.27s0.81-4.54,2.42-6.28c1.65-1.77,3.67-2.67,6.02-2.67h11.49
			c-1.3-4.32-3.19-9.08-5.6-14.08c-1.07-2.01-1.24-4.2-0.48-6.43c0.76-2.25,2.3-3.86,4.43-4.63c1.16-0.42,2.31-0.63,3.43-0.63
			c1.12,0,2.27,0.21,3.43,0.63c2.28,0.87,4.01,2.44,5.18,4.68c2.66,5.05,4.81,9.99,6.4,14.69c0.58,1.89,0.44,3.74-0.39,5.55
			c-0.03,0.07-0.07,0.14-0.1,0.21h22.5c-0.06-0.14-0.12-0.29-0.18-0.44c-0.72-1.94-0.57-3.94,0.43-5.8
			c2.23-4.5,4.16-8.93,5.69-13.12c1.04-2.54,2.72-4.41,5.01-5.65c1.39-0.82,2.9-1.26,4.4-1.26c0.92,0,1.86,0.14,2.79,0.43
			c2.45,0.74,4.25,2.37,5.33,4.84l0.06,0.15c0.39,1.11,0.58,2.25,0.58,3.37c0,1.34-0.34,2.62-1.01,3.8
			c-2.49,5.26-4.81,9.86-6.92,13.69h14.09c2.35,0,4.38,0.9,6.02,2.67c1.6,1.73,2.42,3.84,2.42,6.28s-0.81,4.54-2.42,6.27
			c-1.65,1.77-3.67,2.67-6.02,2.67h-26.03c1.55,8.85,3.52,17.58,5.86,25.97c4.63-4.46,8.79-8.77,12.38-12.85
			c1.6-1.87,3.6-2.9,5.93-3.05l0.44,0c2.35,0,4.38,0.9,6.02,2.67c1.69,1.68,2.57,3.87,2.57,6.44c0,2.57-0.94,4.82-2.78,6.67
			c-5.58,5.45-11.97,11.14-18.99,16.91c-0.05,0.04-0.08,0.07-0.1,0.09c0.01,0.02,0.03,0.07,0.06,0.14
			c5.56,14.77,12.34,26.47,20.18,34.82c1.91,1.92,2.9,4.34,2.9,7.13c0,2.52-0.85,4.78-2.52,6.73c-1.66,2.06-3.8,3.28-6.32,3.56
			l-0.11,0.01h-0.9c-2.25,0-4.22-0.9-5.86-2.67c-7.87-8.82-14.65-20.55-20.32-35.09c0.72,3.39,1.21,6.73,1.48,10
			c0.21,3.12,0.32,6.13,0.32,8.98c0,5.53-0.49,10.84-1.45,15.8c-1.42,7.67-3.98,13.38-7.59,16.94c-4.44,4.89-10.39,7.49-17.71,7.73
			c-0.01,0-0.02,0-0.04,0c-1.31,0-2.7-0.06-4.19-0.17c-2.53-0.02-4.74-1.04-6.57-3.01c-1.7-1.83-2.87-4.08-3.47-6.67
			c-0.55-2.08-0.18-4.17,1.09-6c1.57-2.26,3.54-2.74,4.92-2.74c0.16,0,0.32,0.01,0.48,0.02c1.79,0.11,3.5,0.16,5.03,0.16
			c3.07,0,5.29-1.14,6.8-3.49l0.08-0.13l0.1-0.11c1.62-1.85,2.84-5.16,3.61-9.85c0.51-2.73,0.76-5.75,0.76-9
			c0-1.73-0.05-3.5-0.14-5.31c-11.45,11.83-24.01,21.83-37.35,29.74l-0.1,0.06l-0.1,0.05c-1.51,0.68-3.05,1.02-4.59,1.02
			c-0.85,0-1.66-0.07-2.4-0.2l-0.11-0.02l-0.11-0.03c-2.27-0.68-4.24-2.04-5.86-4.05c-1.41-1.82-1.92-3.95-1.51-6.19
			c0.42-2.28,1.7-4.05,3.69-5.12c8.19-3.92,16.33-9.06,24.29-15.32c7.93-6.24,14.54-12.69,19.65-19.19c0.25-0.38,0.3-0.69,0.17-1.11
			c-0.62-1.9-1.45-4.07-2.47-6.43c-6.7,6.28-14.02,12.26-21.78,17.81c-1.93,1.25-3.89,1.93-5.9,2.06l-0.13,0
			c-0.94,0-1.88-0.14-2.79-0.43c-1.76-0.5-3.37-1.34-4.81-2.53c-1.13,5.82-3.35,9.99-6.6,12.4c-2.77,2-6.01,3.25-9.64,3.75
			c-1.17,0.25-2.52,0.37-4.11,0.37h-0.31c-2.22,0-4.23-0.88-5.97-2.62c-1.7-1.57-2.9-3.67-3.52-6.2c-0.44-2.19-0.08-4.13,1.05-5.88
			c1.21-1.87,2.98-2.86,5.14-2.86c0.25,0,0.51-0.06,0.78-0.17l0.38-0.17h0.41c1.45,0,2.65-0.37,3.67-1.13
			c0.82-0.61,2.18-2.6,2.18-9.25c0-6.66-1.62-13.25-4.81-19.61c-3.27-6.46-4.92-12.75-4.92-18.69c0-3,0.4-5.92,1.17-8.68
			c1.92-6.46,4.01-13.97,6.22-22.37h-12.66v128.34c0,2.43-0.84,4.57-2.5,6.36C739.92,1049.12,737.87,1050.05,735.52,1050.05z
			 M772.56,963.32c2.4,6.08,3.71,12.41,3.89,18.92c9.93-5.48,18.86-12.07,26.56-19.63l-0.01-0.02c-1.26-1.78-2.68-3.53-4.22-5.21
			c-4.06,3.03-8.46,6-13.04,8.81c-1.4,0.88-2.87,1.33-4.34,1.33c-0.19,0-0.37-0.01-0.56-0.02h-2.09l-0.28-0.08
			c-2.27-0.68-4.24-2.04-5.85-4.05C772.58,963.35,772.57,963.34,772.56,963.32z M811.85,946.61c6.48,6.66,11.79,14.55,15.81,23.49
			c-2.73-9.82-5.07-20.57-7.03-32.24C817.96,940.79,815.01,943.74,811.85,946.61z"/>
		<path class="st7" d="M911.1,1049.88c-2.56,0-4.77-0.99-6.57-2.93c-1.76-1.9-2.65-4.21-2.65-6.87v-81.76
			c-2.36,3.46-4.74,6.73-7.1,9.77c-1.42,1.83-3.32,2.81-5.51,2.81c-0.49,0-0.97-0.08-1.44-0.23c-2.53-0.48-4.5-2.02-5.69-4.45
			c-1.07-2.19-1.62-4.54-1.62-6.98v-1.64l0.01-0.11c0.36-3.21,1.51-6.01,3.43-8.34c11.73-14.55,21.67-32.39,29.51-53
			c0.88-2.45,2.45-4.35,4.65-5.6l0.11-0.06c1.42-0.7,2.88-1.05,4.33-1.05c0.93,0,1.86,0.14,2.79,0.43c2.48,0.89,4.24,2.55,5.3,4.95
			c0.65,1.28,0.98,2.6,0.98,3.91c0,1.12-0.2,2.26-0.58,3.37c-3.08,7.9-6.48,15.7-10.14,23.26c-0.4,0.78-0.59,1.53-0.59,2.35v112.37
			c0,2.66-0.89,4.97-2.65,6.87C915.87,1048.89,913.66,1049.88,911.1,1049.88z M934.03,1043.1c-2.46,0-4.59-0.96-6.33-2.84
			c-1.71-1.84-2.58-4.1-2.58-6.7s0.87-4.85,2.58-6.7c1.75-1.89,3.88-2.84,6.33-2.84h12.47c0-0.02,0.01-0.04,0.01-0.06
			c2.27-11.81,5.04-29.03,8.23-51.19h-13.48c-2.46,0-4.59-0.96-6.34-2.84c-1.71-1.84-2.57-4.09-2.57-6.7c0-2.6,0.87-4.85,2.57-6.7
			c1.75-1.89,3.88-2.84,6.34-2.84h16.24c0-0.01,0-0.01,0-0.02c2.04-15.28,3.54-26.87,4.48-34.45h-20.56c-2.58,0-4.77-1-6.52-2.96
			c-1.69-1.89-2.55-4.17-2.55-6.75c0-2.6,0.87-4.85,2.57-6.7c1.75-1.89,3.93-2.84,6.49-2.84h75.85c2.56,0,4.74,0.96,6.49,2.84
			c1.71,1.85,2.58,4.1,2.58,6.7c0,2.58-0.86,4.86-2.55,6.75c-1.75,1.96-3.95,2.96-6.52,2.96h-36.03
			c-1.24,10.25-2.79,21.83-4.62,34.47h26.36c4.33,0,8.07,1.67,11.13,4.96c3.01,3.25,4.54,7.21,4.54,11.78v53.59l6.17,0
			c2.45,0,4.58,0.96,6.33,2.84c1.71,1.85,2.58,4.1,2.58,6.7s-0.87,4.85-2.57,6.7c-1.75,1.89-3.89,2.84-6.34,2.84H934.03z
			 M999.56,1024.01v-51.25l-25.55,0c-3.17,20.99-5.94,38.23-8.22,51.25H999.56z M974.04,972.3L974.04,972.3z"/>
		<path class="st7" d="M1108.9,1049.71c-2.52,0-4.66-0.97-6.36-2.87c-1.64-1.84-2.47-4.05-2.47-6.59v-64.41
			c0-4.57,1.53-8.53,4.54-11.78c3.05-3.29,6.79-4.96,11.13-4.96h50.25c4.33,0,8.08,1.67,11.13,4.96c3.01,3.25,4.54,7.21,4.54,11.78
			v55.25c0,4.16-0.52,7.36-1.58,9.79c-1.14,2.6-3.17,4.54-6.02,5.76c-3.25,1.6-9.01,2.44-17.61,2.55h-0.18
			c-2.4,0-4.55-0.92-6.38-2.73c-1.72-1.48-2.96-3.43-3.7-5.8c-0.69-2.07-0.49-4.16,0.57-6c1.15-1.98,2.97-3.03,5.26-3.03
			c2.34,0.11,4.32,0.17,5.97,0.17c2.01,0,3.46-0.05,4.31-0.15c0.64-0.06,0.99-0.16,1.15-0.22c0.03-0.14,0.08-0.4,0.08-0.85v-11.9
			l-45.63,0v21.56c0,2.54-0.87,4.77-2.57,6.61C1113.56,1048.75,1111.4,1049.71,1108.9,1049.71z M1163.52,1003.51v-6.84l-45.63,0
			v6.84L1163.52,1003.51z M1163.52,981.81v-6.5l-45.63,0v6.5L1163.52,981.81z M1058.88,1043.95c-1.91,0-3.69-0.65-5.3-1.93
			c-2.29-1.67-3.71-4.03-4.21-7.02c-0.12-0.64-0.18-1.34-0.18-2.03c0-2.05,0.57-4.05,1.69-5.94c7.24-12.84,14.19-26.58,20.63-40.82
			c1.1-2.36,2.97-3.92,5.44-4.51c0.54-0.15,1.14-0.23,1.72-0.23c1.89,0,3.58,0.7,5,2.09c1.91,1.68,3.23,3.91,3.85,6.58l0.02,0.1
			l0.01,0.1c0.12,0.89,0.17,1.78,0.17,2.63c0,1.73-0.37,3.48-1.1,5.19c-6.5,14.48-13.12,28.21-19.7,40.81
			c-1.33,2.57-3.37,4.18-6.06,4.76C1060.2,1043.87,1059.53,1043.95,1058.88,1043.95z M1070.82,965.13c-2.01,0-3.89-0.65-5.6-1.92
			c-4.71-3.53-10.22-6.95-16.37-10.17c-2.05-1.03-3.46-2.76-4.14-5.12l-0.03-0.09l-0.02-0.09c-0.13-0.68-0.19-1.37-0.19-2.06
			c0-1.63,0.48-3.19,1.42-4.65c1.55-2.23,3.5-3.69,5.81-4.39c1.06-0.29,2.03-0.42,2.93-0.42c1.39,0,2.8,0.27,4.18,0.82l0.15,0.06
			c6.31,3.06,12.03,6.24,17.01,9.44c2.28,1.59,3.67,3.79,4.18,6.57c0.13,0.7,0.19,1.39,0.19,2.06c0,1.97-0.58,3.87-1.73,5.66
			c-1.45,2.27-3.51,3.65-6.13,4.1C1071.94,965.06,1071.38,965.13,1070.82,965.13z M1093.12,954.63c-2.03,0-3.85-0.85-5.27-2.46
			c-1.37-1.56-2.07-3.43-2.07-5.56c0-2.15,0.71-4,2.1-5.51c1.42-1.53,3.23-2.33,5.24-2.33h36.16v-5.83l-27.05,0
			c-2.03,0-3.83-0.82-5.19-2.37c-1.32-1.49-1.99-3.28-1.99-5.3c0-2.02,0.67-3.8,1.99-5.3c1.37-1.55,3.16-2.37,5.19-2.37h27.05v-4.98
			l-30.98,0c-2.12,0-3.98-0.81-5.39-2.34c-1.39-1.5-2.1-3.35-2.1-5.51c0-2.15,0.71-4.01,2.1-5.51c1.42-1.53,3.28-2.34,5.39-2.34
			h30.98v-0.2c0-2.79,0.93-5.16,2.76-7.06c1.85-1.92,4.1-2.9,6.7-2.9c2.62,0,4.87,1.02,6.67,3.04c1.75,1.96,2.63,4.28,2.63,6.93v0.2
			h33.18c2.01,0,3.82,0.81,5.23,2.33c1.4,1.51,2.11,3.37,2.11,5.51c0,2.15-0.71,4.01-2.1,5.51c-1.42,1.53-3.23,2.33-5.24,2.33
			h-33.18v4.98l29.25,0c2.01,0,3.82,0.81,5.24,2.33c1.4,1.51,2.1,3.31,2.1,5.34c0,2.04-0.71,3.84-2.1,5.34
			c-1.42,1.53-3.23,2.33-5.24,2.33h-29.25v5.83l38.2,0c2.11,0,3.97,0.81,5.39,2.33c1.4,1.51,2.11,3.37,2.11,5.51
			c0,2.13-0.7,4-2.07,5.56c-1.42,1.61-3.3,2.46-5.43,2.46H1093.12z M1078.67,919.37c-2.15,0-4.11-0.73-5.83-2.16
			c-4.55-3.49-10.03-7.09-16.21-10.65c-1.96-1.21-3.24-2.98-3.84-5.3c-0.62-2.37-0.16-4.71,1.34-6.77c1.37-2.02,3.26-3.43,5.59-4.13
			c0.91-0.28,1.85-0.42,2.78-0.42c1.45,0,2.91,0.35,4.33,1.05c6.37,3.21,12.12,6.69,17.11,10.35c2.1,1.56,3.37,3.75,3.77,6.51
			c0.13,0.58,0.19,1.08,0.19,1.54c0,2.22-0.65,4.27-1.94,6.08c-1.43,2.1-3.42,3.34-5.9,3.68
			C1079.6,919.3,1079.13,919.37,1078.67,919.37z"/>
		<path class="st7" d="M1257.23,1044.46c-2.46,0-4.56-0.93-6.26-2.76c-1.66-1.79-2.5-3.98-2.5-6.53c0-2.53,0.83-4.75,2.47-6.58
			c1.7-1.91,3.81-2.87,6.28-2.87h37.89v-16.67l-26.11,0c-2.46,0-4.56-0.93-6.26-2.76c-1.65-1.78-2.5-3.98-2.5-6.53
			c0-2.54,0.84-4.74,2.5-6.53c1.7-1.83,3.8-2.76,6.26-2.76h26.11v-13.79l-17.79,0c-4.33,0-8.07-1.67-11.13-4.96
			c-3.01-3.25-4.54-7.21-4.54-11.78v-48.64c0-4.57,1.53-8.53,4.54-11.78c3.05-3.29,6.79-4.96,11.13-4.96h54.97
			c4.33,0,8.07,1.67,11.13,4.96c3.01,3.25,4.54,7.21,4.54,11.78v48.64c0,4.57-1.53,8.53-4.54,11.78c-3.05,3.29-6.79,4.96-11.13,4.96
			h-17.95v13.79l26.9,0c2.45,0,4.56,0.93,6.26,2.76c1.66,1.79,2.5,3.99,2.5,6.53c0,2.54-0.84,4.74-2.5,6.53
			c-1.7,1.83-3.8,2.76-6.26,2.76h-26.9v16.67l32.08,0c2.47,0,4.58,0.97,6.28,2.87c1.64,1.84,2.47,4.06,2.47,6.59
			c0,2.54-0.84,4.74-2.49,6.53c-1.7,1.83-3.81,2.76-6.26,2.76H1257.23z M1279.35,959.4L1279.35,959.4z M1296.37,959.39
			L1296.37,959.39z M1329.66,959.39L1329.66,959.39z M1296.38,958.93v-15.15l-17.04,0v15.15L1296.38,958.93z M1329.67,958.93v-15.15
			l-16.57,0v15.15L1329.67,958.93z M1279.35,927.36L1279.35,927.36z M1296.37,927.36L1296.37,927.36z M1329.66,927.36
			L1329.66,927.36z M1296.38,926.9v-14.64l-17.04,0v14.64L1296.38,926.9z M1329.67,926.9v-14.64l-16.57,0v14.64L1329.67,926.9z
			 M1212.63,1030.9c-1.54,0-3.06-0.5-4.52-1.49c-2.24-1.3-3.7-3.37-4.34-6.16l-0.03-0.14c-0.12-0.77-0.18-1.56-0.18-2.34
			c0-1.91,0.45-3.71,1.34-5.36c1.42-2.51,3.44-4.18,6.01-5.02c4.31-1.36,8.16-2.61,11.44-3.72c0.12-0.04,0.18-0.07,0.2-0.08
			c0-0.01,0.01-0.08,0.01-0.22v-40.37h-8.52c-2.46,0-4.59-0.96-6.34-2.84c-1.71-1.84-2.57-4.07-2.57-6.61
			c0-2.54,0.87-4.77,2.57-6.61c1.75-1.89,3.88-2.84,6.34-2.84h8.52v-30.57l-10.09,0c-2.44,0-4.57-0.92-6.31-2.73
			c-1.72-1.79-2.6-4.02-2.6-6.64c0-2.6,0.87-4.85,2.58-6.7c1.75-1.89,3.88-2.84,6.33-2.84h37.38c2.45,0,4.58,0.96,6.33,2.84
			c1.71,1.85,2.58,4.1,2.58,6.7c0,2.62-0.88,4.85-2.6,6.64c-1.74,1.81-3.87,2.73-6.31,2.73h-8.99v30.57l6.32,0
			c2.57,0,4.74,0.97,6.44,2.87c1.64,1.84,2.47,4.06,2.47,6.59c0,2.53-0.83,4.75-2.47,6.58c-1.7,1.91-3.87,2.87-6.44,2.87h-6.32
			l0,34.47c0.59-0.22,1.43-0.51,2.63-0.91c1.98-0.66,3.48-1.21,4.47-1.63l0.1-0.04l0.11-0.03c0.92-0.28,1.81-0.43,2.63-0.43
			c1.43,0,2.86,0.45,4.23,1.34c2.15,1.3,3.47,3.31,3.87,5.95c0.12,0.64,0.18,1.33,0.18,2c0,1.92-0.51,3.74-1.51,5.39
			c-1.28,2.45-3.12,4.12-5.46,4.97c-12.69,4.72-25.02,9.17-36.61,13.23C1214.49,1030.68,1213.53,1030.9,1212.63,1030.9z
			 M1240.87,947.53L1240.87,947.53z"/>
	</g>
</g>
<path class="st8" d="M638.15,1056.89h-74.22c-28.48,0-51.56-23.09-51.56-51.56V931.1c0-28.48,23.09-51.56,51.56-51.56h74.22
	c28.48,0,51.56,23.09,51.56,51.56v74.22C689.71,1033.8,666.62,1056.89,638.15,1056.89z"/>
</svg>
