<?xml version="1.0" encoding="utf-8"?>
<!-- Generator: Adobe Illustrator 23.0.5, SVG Export Plug-In . SVG Version: 6.00 Build 0)  -->
<svg version="1.1" id="圖層_1" xmlns="http://www.w3.org/2000/svg" xmlns:xlink="http://www.w3.org/1999/xlink" x="0px" y="0px"
	 viewBox="0 0 1920 1080" style="enable-background:new 0 0 1920 1080;" xml:space="preserve">
<style type="text/css">
	.st0{fill:url(#SVGID_1_);}
	.st1{fill:#D6CBAF;}
	.st2{fill:#5C5A4F;}
	.st3{fill:#393F44;}
	.st4{fill:#475259;}
</style>
<radialGradient id="SVGID_1_" cx="961" cy="540" r="1201.6798" fx="962.1398" fy="474.8598" gradientTransform="matrix(1 0 0 -1 0 1080)" gradientUnits="userSpaceOnUse">
	<stop  offset="0" style="stop-color:#84907D"/>
	<stop  offset="0.6542" style="stop-color:#747E6F"/>
	<stop  offset="1" style="stop-color:#3C4441"/>
</radialGradient>
<rect x="1" class="st0" width="1920" height="1080"/>
<rect x="0" y="699.5" class="st1" width="1059" height="49"/>
<rect x="1011" y="366.16" class="st1" width="910" height="54"/>
<rect x="0" y="391.83" class="st1" width="1059" height="49"/>
<rect x="1011" y="657.5" class="st1" width="514" height="49"/>
<rect x="1522" y="724" class="st1" width="399" height="49"/>
<rect x="1011" y="4" class="st1" width="49" height="1076"/>
<rect x="1488" y="4" class="st1" width="49" height="1076"/>
<rect x="453" y="2" class="st1" width="49" height="1076"/>
<g>
	<rect x="1866.87" y="269.35" class="st2" width="21.27" height="51.65"/>
	<path class="st3" d="M1905.28,253.3c4.74,0.04,9.49,0.07,14.23,0.11c-6.52-6.07-13.04-12.14-19.56-18.21
		c2.91-0.03,5.81-0.06,8.72-0.08c-10.62-13.04-21.23-26.08-31.85-39.11c-11.29,13.25-22.59,26.5-33.88,39.74
		c3.3-0.03,6.59-0.06,9.89-0.09c-6.23,5.71-12.46,11.42-18.69,17.13c5.95,0.04,11.9,0.09,17.84,0.13
		c-8.66,5.84-17.32,11.69-25.98,17.53c7.64,4.38,26.02,13.61,51.5,13.88c25.26,0.27,43.74-8.42,51.5-12.62
		C1921.09,265.57,1913.19,259.44,1905.28,253.3z"/>
</g>
<g>
	<rect x="1075.87" y="80.35" class="st2" width="21.27" height="51.65"/>
	<path class="st3" d="M1114.28,64.3c4.74,0.04,9.49,0.07,14.23,0.11c-6.52-6.07-13.04-12.14-19.56-18.21
		c2.91-0.03,5.81-0.06,8.72-0.08c-10.62-13.04-21.23-26.08-31.85-39.11c-11.29,13.25-22.59,26.5-33.88,39.74
		c3.3-0.03,6.59-0.06,9.89-0.09c-6.23,5.71-12.46,11.42-18.69,17.13c5.95,0.04,11.9,0.09,17.84,0.13
		c-8.66,5.84-17.32,11.69-25.98,17.53c7.64,4.38,26.02,13.61,51.5,13.88c25.26,0.27,43.74-8.42,51.5-12.62
		C1130.09,76.57,1122.19,70.44,1114.28,64.3z"/>
</g>
<g>
	<rect x="948.87" y="629.35" class="st2" width="21.27" height="51.65"/>
	<path class="st3" d="M987.28,613.3c4.74,0.04,9.49,0.07,14.23,0.11c-6.52-6.07-13.04-12.14-19.56-18.21
		c2.91-0.03,5.81-0.06,8.72-0.08c-10.62-13.04-21.23-26.08-31.85-39.11c-11.29,13.25-22.59,26.5-33.88,39.74
		c3.3-0.03,6.59-0.06,9.89-0.09c-6.23,5.71-12.46,11.42-18.69,17.13c5.95,0.04,11.9,0.09,17.84,0.13
		c-8.66,5.84-17.32,11.69-25.98,17.53c7.64,4.38,26.02,13.61,51.5,13.88c25.26,0.27,43.74-8.42,51.5-12.62
		C1003.09,625.57,995.19,619.44,987.28,613.3z"/>
</g>
<g>
	<rect x="1107.87" y="1010.35" class="st2" width="21.27" height="51.65"/>
	<path class="st4" d="M1146.28,994.3c4.74,0.04,9.49,0.07,14.23,0.11c-6.52-6.07-13.04-12.14-19.56-18.21
		c2.91-0.03,5.81-0.06,8.72-0.08c-10.62-13.04-21.23-26.08-31.85-39.11c-11.29,13.25-22.59,26.5-33.88,39.74
		c3.3-0.03,6.59-0.06,9.89-0.09c-6.23,5.71-12.46,11.42-18.69,17.13c5.95,0.04,11.9,0.09,17.84,0.13
		c-8.66,5.84-17.32,11.69-25.98,17.53c7.64,4.38,26.02,13.61,51.5,13.88c25.26,0.27,43.74-8.42,51.5-12.62
		C1162.09,1006.57,1154.19,1000.44,1146.28,994.3z"/>
</g>
<g>
	<rect x="52.87" y="422.35" class="st2" width="21.27" height="51.65"/>
	<path class="st4" d="M91.28,406.3c4.74,0.04,9.49,0.07,14.23,0.11c-6.52-6.07-13.04-12.14-19.56-18.21
		c2.91-0.03,5.81-0.06,8.72-0.08C84.05,375.08,73.44,362.04,62.82,349c-11.29,13.25-22.59,26.5-33.88,39.74
		c3.3-0.03,6.59-0.06,9.89-0.09c-6.23,5.71-12.46,11.42-18.69,17.13c5.95,0.04,11.9,0.09,17.84,0.13
		c-8.66,5.84-17.32,11.69-25.98,17.53c7.64,4.38,26.02,13.61,51.5,13.88c25.26,0.27,43.74-8.42,51.5-12.62
		C107.09,418.57,99.19,412.44,91.28,406.3z"/>
</g>
<g>
	<rect x="542.87" y="630.35" class="st2" width="21.27" height="51.65"/>
	<path class="st3" d="M581.28,614.3c4.74,0.04,9.49,0.07,14.23,0.11c-6.52-6.07-13.04-12.14-19.56-18.21
		c2.91-0.03,5.81-0.06,8.72-0.08c-10.62-13.04-21.23-26.08-31.85-39.11c-11.29,13.25-22.59,26.5-33.88,39.74
		c3.3-0.03,6.59-0.06,9.89-0.09c-6.23,5.71-12.46,11.42-18.69,17.13c5.95,0.04,11.9,0.09,17.84,0.13
		c-8.66,5.84-17.32,11.69-25.98,17.53c7.64,4.38,26.02,13.61,51.5,13.88c25.26,0.27,43.74-8.42,51.5-12.62
		C597.09,626.57,589.19,620.44,581.28,614.3z"/>
</g>
</svg>
