<?xml version="1.0" encoding="utf-8"?>
<!-- Generator: Adobe Illustrator 23.0.5, SVG Export Plug-In . SVG Version: 6.00 Build 0)  -->
<svg version="1.1" id="圖層_1" xmlns="http://www.w3.org/2000/svg" xmlns:xlink="http://www.w3.org/1999/xlink" x="0px" y="0px"
	 viewBox="0 0 1920 1080" style="enable-background:new 0 0 1920 1080;" xml:space="preserve">
<style type="text/css">
	.st0{fill:#FFFFFF;}
	.st1{fill:#F2623A;stroke:#000000;stroke-width:6;stroke-miterlimit:10;}
	.st2{fill:#F2623A;}
	.st3{fill:#FDFDEE;}
	.st4{fill:#F8C041;}
	.st5{fill:#F1F0F1;}
	.st6{fill:#2E0334;}
	.st7{fill:none;stroke:#2E072F;stroke-width:7;stroke-miterlimit:10;}
	.st8{fill:#79D0CE;}
	.st9{fill:#2D0534;}
	.st10{fill:#FC8468;}
	.st11{fill:#FCFEED;}
	.st12{fill:#F4763F;}
	.st13{fill:#FBFDEC;}
	.st14{fill:#FCFFE5;}
	.st15{fill:#2E072F;}
	.st16{fill:#3E0B3C;}
	.st17{fill:#EACA96;}
	.st18{fill:#52CC2F;}
	.st19{font-family:'BerlinSansFBDemi-Bold';}
	.st20{font-size:176.3158px;}
	.st21{letter-spacing:8.54;}
	.st22{font-size:81.0496px;}
	.st23{fill:#FFFFFF;stroke:#000000;stroke-width:3;stroke-miterlimit:10;}
	.st24{fill:#FFFFFF;stroke:#000000;stroke-width:6;stroke-miterlimit:10;}
</style>
<g>
	<rect x="667" y="222" class="st0" width="589" height="424"/>
	<g>
		<path class="st1" d="M1086.58,659.19c3.04,1.05,7.67,2.86,12.81,5.82c8.31,4.8,9.87,7.96,15.5,8.73c6.61,0.9,9.2-2.82,13.48-1.16
			c5.27,2.03,3.44,8.44,7.41,13.38c7.72,9.61,34.39,9.36,52.57,0c13.08-6.73,19.42-16.97,22.24-22.69
			c4.07-30.75,8.55-102.84-37.07-178.65c-25.73-42.75-58.46-71.86-82.22-89.61c-2.6,14.92-4.87,30.25-6.74,45.97
			C1075.07,520.7,1077.75,594.13,1086.58,659.19z"/>
		<path class="st1" d="M841.74,665.59c-3.04,1.05-7.67,2.86-12.81,5.82c-8.31,4.8-9.87,7.96-15.5,8.73
			c-6.61,0.9-9.2-2.82-13.48-1.16c-5.27,2.03-3.44,8.44-7.41,13.38c-7.72,9.61-34.39,9.36-52.57,0
			c-13.08-6.73-19.42-16.97-22.24-22.69c-4.07-30.75-8.55-102.84,37.07-178.65c25.73-42.75,58.46-71.86,82.22-89.61
			c2.6,14.92,4.87,30.25,6.74,45.97C853.24,527.1,850.57,600.53,841.74,665.59z"/>
		<rect x="835.67" y="404.9" class="st2" width="257.46" height="299.1"/>
		<g>
			<path class="st3" d="M865.88,348.26c-7.76-1.07-15.71-1.06-23.47,0.01c-5.29,0.73-10.75,2.08-14.54,5.36
				c-7.44,6.43-3.87,19.32,6.13,22.15c-6.23,4.25-13.1,9.7-12.34,16.52c0.86,7.71,11.12,11.96,20.08,12.3
				c-5.27,4.93-5.49,13.29-0.48,18.42c5.01,5.13,14.59,6.36,21.11,2.71c-3.32,7.64,0.7,17.13,8.95,21.12
				c8.25,3.99,19.72,1.98,25.52-4.46c-2.15,7.41,4.38,15.44,12.92,17.4c8.55,1.96,17.99-1.41,23.73-7.23
				c3.31,10.11,17.65,16.32,29.01,12.56c1.9-0.63,3.91-1.5,5.85-0.99c1.24,0.32,2.19,1.14,3.24,1.79c4.64,2.87,11.35,2.2,16.03-0.61
				s7.59-7.37,9.41-12.04c7.18,5.05,17.05,7.11,26.1,5.46c4.89-0.89,9.63-2.89,12.82-6.21c3.19-3.32,4.58-8.07,2.82-12.1
				c5.87,2.34,12.06,4.4,18.53,4.6s13.31-1.74,17.27-6.16s4.06-11.49-0.76-15.21c6.45-0.09,13.4-1.04,17.94-4.99
				c4.55-3.95,4.87-11.7-0.77-14.4c8.26-1.63,18.08-4.6,19.65-11.78c1.34-6.13-4.49-11.75-10.73-14.9
				c4.89-6.45,15.08-11.31,13.77-18.93c-1.19-6.93-11.01-9.55-19.05-10.48c-76.96-8.94-154.96,0.64-232.56,3.28
				c-0.45-0.87-0.91-1.75-1.36-2.62"/>
		</g>
		<path class="st4" d="M1073.59,375.8c-4.92,37.21-61.83,61.86-107.84,62.26c-46.03,0.41-105.24-23.23-110.53-62.26
			c-5.56-40.96,50.6-81.45,104.47-83.21C1018.24,290.67,1079.06,334.35,1073.59,375.8z"/>
		<path class="st5" d="M920.06,363c-1.83,0.14-10.44,0.63-16.77-4.07c-7.23-5.37-8.57-15.38-2.19-23.86
			c11.66,4.27,23.33,8.53,34.99,12.8C930.75,352.91,925.4,357.96,920.06,363z"/>
		<ellipse class="st6" cx="916.21" cy="346.41" rx="6.4" ry="5.53"/>
		<path class="st5" d="M1008.63,363c1.89,0.14,10.8,0.63,17.35-4.07c7.47-5.37,8.87-15.38,2.26-23.86
			c-12.07,4.27-24.13,8.53-36.2,12.8C997.57,352.91,1003.1,357.96,1008.63,363z"/>
		<ellipse class="st6" cx="1011.92" cy="347" rx="6.4" ry="5.53"/>
		<g>
			<path class="st7" d="M886.22,355.43c-0.26,2.41-0.71,9.87,4.72,17.46c5.03,7.04,12.18,10.07,14.83,11.06"/>
			<path class="st7" d="M874.43,340.6c-1.49,2.7-10.49,19.72-1.35,38.99c8.58,18.08,26.87,24.95,30.33,26.19"/>
		</g>
		<g>
			<path class="st7" d="M1045.61,355.43c0.26,2.41,0.71,9.87-4.72,17.46c-5.03,7.04-12.18,10.07-14.83,11.06"/>
			<path class="st7" d="M1057.41,340.6c1.49,2.7,10.49,19.72,1.35,38.99c-8.58,18.08-26.87,24.95-30.33,26.19"/>
		</g>
		<path class="st8" d="M1011.58,436.72c-11.41,2.48-26.3,4.72-43.81,4.83c-18.74,0.12-34.6-2.25-46.5-4.83
			c-6.4-5.57-10.01-11.13-12.13-15.7c-10.34-22.23,0.23-51.11,24.94-74.89c19.99,0,39.99,0,59.98,0
			c4.48,4.44,38.6,39.27,26.28,74.89C1018.72,425.7,1016.06,431.09,1011.58,436.72z"/>
		<path class="st9" d="M994.06,371.3c-4.12,10.35-14.56,17.44-26.28,17.88c-12.81,0.49-24.72-7.04-28.98-18.5
			c0-7.61,0-15.21,0-22.82c18.2,0,36.39,0,54.59,0C993.61,355.68,993.83,363.49,994.06,371.3z"/>
		<ellipse class="st10" cx="965.08" cy="353.69" rx="23.59" ry="7.56"/>
		<line class="st7" x1="966.76" y1="390.93" x2="966.76" y2="406.06"/>
		<path class="st7" d="M945.53,408.97c6.37-0.98,14.11-1.75,22.92-1.75c6.47,0,14.25,0.41,22.92,1.75"/>
		<ellipse class="st11" cx="937.44" cy="407.81" rx="8.09" ry="12.8"/>
		<ellipse class="st11" cx="996.08" cy="408.97" rx="7.41" ry="12.8"/>
		<path class="st7" d="M922.28,317.9c6.81-3.35,22.77-10.16,44.48-9.89c21.04,0.26,36.38,7.03,43.13,10.47"/>
		<path class="st7" d="M937.11,332.45c4.21-2.17,15.34-7.23,30.33-6.4c11.16,0.62,19.4,4.23,23.59,6.4"/>
		<path class="st7" d="M894.31,332.16c12.16,5.41,36.76,14.56,69.42,14.55c36.56-0.01,63.49-11.51,75.48-17.46"/>
		<path class="st12" d="M1078.98,305.97c-0.38,11.61-10.49,21.71-24.26,23.86c-12.13-8.15-24.26-16.29-36.39-24.44
			c3.55-16.83,21.29-27.13,37.07-24.44C1067.61,283.03,1079.4,293.04,1078.98,305.97z"/>
		<path class="st13" d="M1059.43,306.12c-0.17,5.31-4.66,9.93-10.78,10.91c-5.39-3.72-10.78-7.45-16.17-11.17
			c1.58-7.69,9.46-12.4,16.47-11.17C1054.37,295.64,1059.62,300.21,1059.43,306.12z"/>
		<path class="st12" d="M854.56,304.23c0.38,11.61,10.49,21.71,24.26,23.86c12.13-8.15,24.26-16.29,36.39-24.44
			c-3.55-16.83-21.29-27.13-37.07-24.44C865.93,281.29,854.13,291.29,854.56,304.23z"/>
		<path class="st13" d="M874.11,304.38c0.17,5.31,4.66,9.93,10.78,10.91c5.39-3.72,10.78-7.45,16.17-11.17
			c-1.58-7.69-9.46-12.4-16.47-11.17C879.16,293.89,873.92,298.46,874.11,304.38z"/>
		<path class="st14" d="M1115.37,279.79c11.42,17.32,3.76,40.04-11.46,52.95c-13.75,11.67-31.1,13.13-37.07,13.38
			c-4.04-5.43-8.09-10.86-12.13-16.29c3.6-0.81,23.79-5.68,35.05-23.28c13.46-21.03,2.53-42.06,1.35-44.23
			C1096.22,264.06,1108.16,268.85,1115.37,279.79z"/>
		<path class="st14" d="M816.22,277.46c-11.42,17.32-3.76,40.04,11.46,52.95c13.75,11.67,31.1,13.13,37.07,13.38
			c4.04-5.43,8.09-10.86,12.13-16.29c-3.6-0.81-23.79-5.68-35.05-23.28c-13.46-21.03-2.53-42.06-1.35-44.23
			C835.37,261.73,823.43,266.52,816.22,277.46z"/>
		<line class="st7" x1="836.35" y1="467.74" x2="837.02" y2="669.09"/>
		<g>
			<g>
				<path class="st15" d="M767.81,682.38c-1.05,4.56,0.5,9.19,3.7,12.55c3.36,3.54,8.29,5.19,13.11,4.58
					c5.19-0.65,9.81-3.51,12.96-7.65c3.31-4.35,4.36-9.96,4.43-15.31c0.08-6.41-1.38-12.93-0.16-19.29c0.3-1.59-0.44-3.24-2.1-3.69
					c-1.47-0.4-3.39,0.5-3.69,2.1c-1.01,5.27-0.55,10.51-0.21,15.82c0.29,4.54,0.4,9.23-1.25,13.55c-1.33,3.47-4.03,6.28-7.49,7.72
					c-3.33,1.38-6.87,1.21-9.77-0.7c-0.59-0.39-1.27-1.01-1.91-1.72c-0.43-0.48-0.92-1.26-1.33-2.09c-0.58-1.2-0.78-3.01-0.49-4.25
					c0.36-1.58-0.49-3.25-2.1-3.69C769.99,679.87,768.18,680.8,767.81,682.38L767.81,682.38z"/>
			</g>
		</g>
		<g>
			<g>
				<path class="st15" d="M740.79,684.3c0.97,7.71,6.83,13.17,13.79,15.95c7.95,3.18,17.23,2.29,25.23-0.21
					c3.67-1.15,2.1-6.94-1.6-5.79c-6.75,2.11-14.16,2.95-20.96,0.61c-2.62-0.9-5.08-2.4-7.03-4.34c-0.98-0.98-1.6-1.76-2.28-2.99
					c-0.38-0.68-0.46-0.83-0.67-1.43c-0.13-0.37-0.24-0.74-0.33-1.12c-0.03-0.11-0.2-1.04-0.16-0.68c-0.2-1.61-1.23-3-3-3
					C742.33,681.3,740.59,682.68,740.79,684.3L740.79,684.3z"/>
			</g>
		</g>
		<g>
			<g>
				<path class="st15" d="M1158.76,678.16c0.05,0.2,0.1,0.41,0.13,0.61c-0.07-0.45,0,0.06,0,0.13c0.02,0.42,0.02,0.83,0,1.24
					c0,0.07-0.07,0.58,0,0.13c-0.03,0.21-0.08,0.41-0.12,0.61c-0.1,0.41-0.22,0.81-0.36,1.21c-0.22,0.58-0.12,0.29-0.06,0.17
					c-0.09,0.19-0.19,0.39-0.29,0.57c-0.2,0.38-0.43,0.75-0.67,1.11c-0.27,0.4-0.99,1.19-1.61,1.73c-0.43,0.38-1.04,0.78-1.75,1.16
					c-0.7,0.37-1.42,0.62-2.37,0.83c-1.6,0.35-3.58,0.17-5.32-0.37c-3.47-1.08-6.34-3.64-7.97-6.82c-2.03-3.96-2.13-8.63-1.93-12.98
					c0.27-5.93,1.01-11.76-0.11-17.66c-0.3-1.59-2.22-2.5-3.69-2.1c-1.67,0.46-2.4,2.09-2.1,3.69c1.08,5.65,0.02,11.45-0.14,17.14
					c-0.16,5.47,0.48,11.24,3.39,16c5.33,8.73,17.53,12.43,25.86,5.66c4.01-3.26,6.09-8.6,4.92-13.68c-0.36-1.58-2.18-2.51-3.69-2.1
					C1159.23,674.91,1158.39,676.57,1158.76,678.16L1158.76,678.16z"/>
			</g>
		</g>
		<g>
			<g>
				<path class="st15" d="M1185.57,678.48c0.05-0.43-0.1,0.44-0.12,0.52c-0.09,0.38-0.19,0.75-0.32,1.13
					c-0.23,0.7-0.29,0.8-0.64,1.44c-0.7,1.29-1.35,2.13-2.36,3.13c-1.94,1.94-4.41,3.44-7.03,4.34c-6.81,2.34-14.22,1.5-20.96-0.61
					c-3.69-1.16-5.27,4.63-1.59,5.79c8,2.51,17.28,3.39,25.23,0.21c6.96-2.78,12.82-8.25,13.79-15.95c0.2-1.61-1.52-3-3-3
					C1186.78,675.48,1185.77,676.86,1185.57,678.48L1185.57,678.48z"/>
			</g>
		</g>
		<g>
			<g>
				<path class="st15" d="M801.31,682.82c6.33,1.85,13.07,0.67,18.95-2.08c5.78-2.7,10.56-7.11,15.17-11.43
					c2.82-2.64-1.42-6.88-4.24-4.24c-7.52,7.04-17.15,15.23-28.28,11.96C799.2,675.95,797.61,681.74,801.31,682.82L801.31,682.82z"
					/>
			</g>
		</g>
		<path class="st16" d="M791.12,529.22l-42.96-21.41l10.78-16.13l42.96,21.41c1.91,3.51,1.22,8.13-1.7,11.57
			C796.68,528.84,791.64,529.2,791.12,529.22z"/>
		<path class="st16" d="M807.41,491.34l-37-18.45l10.78-16.13l37,18.45c1.47,3.29,0.52,7.79-2.33,11.26
			C812.41,490.69,807.88,491.29,807.41,491.34z"/>
		<path class="st16" d="M818.49,455.96l-23.7-16.68l10.41-11.02l23.7,16.68c0.52,2.55-0.89,5.8-3.51,8.13
			C822.21,455.89,818.84,455.96,818.49,455.96z"/>
		<path class="st16" d="M783.68,566.24l-53.36-18.97l8.21-17.22l53.36,18.97c2.99,3.46,3.32,8.23,0.89,11.95
			C789.82,565.47,784.26,566.17,783.68,566.24z"/>
		<path class="st16" d="M771.55,605.22l-53.36-18.97l8.21-17.22l53.36,18.97c2.99,3.46,3.32,8.23,0.89,11.95
			C777.69,604.46,772.13,605.16,771.55,605.22z"/>
		<path class="st16" d="M754.33,633.46l-37.65,0.49l-0.32-18.62l37.65-0.49c2.84,2.18,4.49,6.46,4.16,10.7
			C757.77,630.69,754.66,633.21,754.33,633.46z"/>
		<line class="st7" x1="1091.97" y1="461.34" x2="1091.29" y2="662.68"/>
		<path class="st16" d="M1137.19,522.82l42.96-21.41l-10.78-16.13l-42.96,21.41c-1.91,3.51-1.22,8.13,1.7,11.57
			C1131.64,522.44,1136.67,522.8,1137.19,522.82z"/>
		<path class="st16" d="M1120.9,484.94l37-18.45l-10.78-16.13l-37,18.45c-1.47,3.29-0.52,7.79,2.33,11.26
			C1115.9,484.29,1120.44,484.89,1120.9,484.94z"/>
		<path class="st16" d="M1109.82,449.56l23.7-16.68l-10.41-11.02l-23.7,16.68c-0.52,2.55,0.89,5.8,3.51,8.13
			C1106.11,449.49,1109.48,449.56,1109.82,449.56z"/>
		<path class="st16" d="M1144.63,559.83l53.36-18.97l-8.21-17.22l-53.36,18.97c-2.99,3.46-3.32,8.23-0.89,11.95
			C1138.5,559.07,1144.06,559.77,1144.63,559.83z"/>
		<path class="st16" d="M1156.77,598.82l53.36-18.97l-8.21-17.22l-53.36,18.97c-2.99,3.46-3.32,8.23-0.89,11.95
			C1150.63,598.06,1156.19,598.76,1156.77,598.82z"/>
		<path class="st16" d="M1173.98,627.06l37.65,0.49l0.32-18.62l-37.65-0.49c-2.84,2.18-4.49,6.46-4.16,10.7
			C1170.55,624.29,1173.66,626.8,1173.98,627.06z"/>
		<ellipse class="st8" cx="963.05" cy="574.82" rx="95.03" ry="94.27"/>
	</g>
	<g>
		<path class="st17" d="M556,20v968h812V20H556z M1256.5,644h-589V220h589V644z"/>
	</g>
	<text transform="matrix(0.7025 0 0 1 794.8135 183.9277)"><tspan x="0" y="0" class="st18 st19 st20 st21">SAFE</tspan><tspan x="429.3" y="0" class="st18 st19 st20">!</tspan></text>
	<text transform="matrix(0.7199 0 0 1 674.4644 766.1582)"><tspan x="0" y="0" class="st19 st22">There are no monsters </tspan><tspan x="0" y="97.26" class="st19 st22">in the forest.</tspan></text>
</g>
<g>
	<g>
		<path class="st23" d="M752.01,1049.88c-2.55,0-4.78-0.98-6.63-2.9c-1.83-1.9-2.76-4.28-2.76-7.06v-50.85
			c0-4.56,1.5-8.52,4.45-11.77c3-3.3,6.77-4.98,11.22-4.98h38.46c-0.79-1.6-1.19-3.32-1.19-5.12c0-0.69,0.06-1.38,0.19-2.06
			c0.49-3.31,2.15-5.99,4.92-7.89c5.81-3.78,10.37-8.36,13.62-13.64h-11.54c-2.13,0-4.01-0.83-5.6-2.47
			c-1.57-1.62-2.37-3.63-2.37-5.97c0-2.32,0.79-4.34,2.34-6.02c1.59-1.72,3.49-2.59,5.63-2.59h17.34c0.39-2.64,0.59-5.56,0.6-8.71
			l-15.12,0c-2.23,0-4.19-0.88-5.66-2.54c-1.43-1.61-2.15-3.57-2.15-5.82c0-2.24,0.72-4.2,2.15-5.82c1.47-1.66,3.43-2.54,5.66-2.54
			h15.12v-4.78c0-2.54,0.89-4.8,2.65-6.7c1.8-1.94,3.99-2.93,6.49-2.93c2.52,0,4.71,1.02,6.52,3.04c1.74,1.95,2.63,4.17,2.63,6.59
			v4.78l17,0c2.24,0,4.16,0.84,5.71,2.5c1.5,1.62,2.26,3.59,2.26,5.85c0,2.26-0.76,4.23-2.26,5.85c-1.54,1.66-3.46,2.5-5.71,2.5h-17
			c-0.01,3.16-0.15,6.09-0.41,8.71H861c2.24,0,4.19,0.87,5.78,2.59c1.55,1.68,2.34,3.7,2.34,6.02c0,2.34-0.8,4.34-2.37,5.97
			c-1.59,1.64-3.52,2.47-5.76,2.47h-15.38c5.21,7.89,11.83,14.22,19.69,18.82c1.99,1.23,3.2,3.04,3.62,5.4
			c0.13,0.59,0.2,1.11,0.2,1.58c0,1.79-0.56,3.44-1.65,4.92c-1.78,2.19-3.86,3.62-6.24,4.29l-0.09,0.03l-0.1,0.02
			c-0.74,0.13-1.49,0.2-2.24,0.2c-1.64,0-3.26-0.5-4.84-1.5c-9.36-6.25-17.14-14.95-23.2-25.9c-4.57,8.08-11.31,15.08-20.1,20.85
			h23.16c4.33,0,8.07,1.67,11.13,4.96c3.01,3.25,4.54,7.21,4.54,11.78v50c0,2.78-0.95,5.18-2.83,7.15
			c-1.91,1.98-4.16,2.99-6.71,2.99h-3.3c-1.68,0-3.23-0.68-4.49-1.95c-0.92-0.94-1.51-2.04-1.76-3.3h-69.12
			c-0.24,1.45-0.9,2.72-1.95,3.8c-1.38,1.41-3.05,2.13-4.96,2.13H752.01z M830.26,1026.22v-10.4l-68.87,0v10.4L830.26,1026.22z
			 M830.26,999.61v-9.56l-68.87,0v9.56L830.26,999.61z M734.26,980.39c-0.56,0-1.18-0.07-1.84-0.21c-2.31-0.55-4.34-1.78-6.07-3.65
			c-1.56-1.83-2.22-3.9-2.02-6.2c0.21-2.34,1.24-4.21,3.07-5.58l0.1-0.07c8.71-5.68,15.13-12.76,19.09-21.07h-15.17
			c-2.23,0-4.17-0.83-5.76-2.48c-1.57-1.62-2.37-3.62-2.37-5.96c0-2.32,0.79-4.35,2.34-6.02c1.59-1.72,3.54-2.59,5.79-2.59h19.85
			c0.39-2.53,0.64-5.46,0.75-8.71H736.3c-2.25,0-4.17-0.84-5.71-2.51c-1.5-1.61-2.26-3.58-2.26-5.85c0-2.26,0.76-4.23,2.26-5.85
			c1.54-1.66,3.46-2.5,5.71-2.5h15.75v-4.78c0-2.53,0.86-4.78,2.55-6.67c1.75-1.96,3.94-2.96,6.52-2.96c2.57,0,4.79,1.02,6.6,3.04
			c1.75,1.96,2.63,4.17,2.63,6.59v4.78l12.29,0c2.24,0,4.16,0.84,5.71,2.5c1.5,1.62,2.26,3.59,2.26,5.85c0,2.26-0.76,4.23-2.26,5.85
			c-1.54,1.66-3.46,2.5-5.71,2.5h-12.3c-0.11,2.74-0.34,5.65-0.7,8.71h15.52c2.23,0,4.21,0.91,5.74,2.62
			c1.48,1.67,2.23,3.69,2.23,5.99c0,2.32-0.76,4.32-2.26,5.94c-1.54,1.66-3.46,2.5-5.71,2.5h-13.04c4.78,3.56,9.32,7.15,13.54,10.71
			c2.04,1.76,3.07,4.04,3.07,6.79c0,2.32-0.81,4.37-2.42,6.1c-1.72,1.86-3.81,2.87-6.22,3.01l-0.43,0c-2.39,0-4.49-0.8-6.22-2.39
			c-3.52-3.15-8.04-6.93-13.43-11.25c-4.92,8.45-11.81,15.87-20.49,22.08C737.92,979.8,736.15,980.39,734.26,980.39z"/>
		<path class="st23" d="M896.34,1049.88c-2.37,0-4.55-0.85-6.49-2.52c-1.87-1.61-3.19-3.77-3.92-6.4c-0.56-2.41-0.22-4.6,1.01-6.59
			c1.24-2.01,3.07-3.08,5.29-3.08c0.13,0,0.26,0,0.4,0.01h1.82c3.01,0,4.25-0.08,4.76-0.15l0.13-0.02h0.14
			c0.46,0,0.74-0.04,0.91-0.07c0.04-0.17,0.08-0.48,0.08-0.98v-41.14c-5.99,2-7.36,2.49-7.66,2.6l-0.09,0.05l-0.18,0.06
			c-0.92,0.28-1.8,0.43-2.63,0.43c-1.51,0-3.01-0.44-4.47-1.29c-2.16-1.31-3.58-3.32-4.23-6l-0.02-0.08l-0.01-0.08
			c-0.12-0.77-0.18-1.5-0.18-2.17c0-1.8,0.45-3.55,1.34-5.19c1.31-2.4,3.25-3.98,5.77-4.7c2.4-0.68,6.5-1.92,12.2-3.71
			c0.09-0.03,0.14-0.06,0.16-0.07c0-0.01,0.01-0.08,0.01-0.22v-29.18l-9.78,0c-2.46,0-4.59-0.96-6.34-2.85
			c-1.71-1.84-2.57-4.09-2.57-6.7c0-2.61,0.88-4.85,2.6-6.64c1.75-1.81,3.87-2.73,6.31-2.73h9.78v-24.27c0-2.54,0.84-4.74,2.5-6.53
			c1.7-1.83,3.8-2.76,6.26-2.76c2.44,0,4.56,0.92,6.31,2.73c1.73,1.8,2.6,4,2.6,6.56v24.27l9.62,0c1.8,0,3.39,0.69,4.61,1.99
			c0.42,0.46,0.77,0.96,1.05,1.49c8.59-8.12,15.47-18,20.47-29.41c0.98-2.38,2.57-4.24,4.71-5.48c1.67-1.1,3.51-1.65,5.45-1.65
			c0.55,0,1.15,0.07,1.83,0.21c2.32,0.44,4.16,1.85,5.27,4.06c0.68,1.19,1.02,2.39,1.02,3.57c0,1.07-0.2,2.17-0.58,3.28l-0.05,0.15
			l-0.07,0.14c-0.11,0.21-0.21,0.41-0.32,0.62h20.03l0.1-0.06l0.33-0.08c0.41-0.08,0.83-0.12,1.25-0.12c1.22,0,2.43,0.35,3.61,1.04
			l0.13,0.09l3.14,2.2c1.74,1.16,2.92,2.87,3.46,5.05c0.53,2.14,0.33,4.24-0.6,6.24c-2.06,4.44-4.39,8.89-6.96,13.26h14.09
			c4.33,0,8.07,1.67,11.13,4.96c3.01,3.25,4.54,7.21,4.54,11.78v34.75c0,2.43-0.81,4.54-2.42,6.27c-1.64,1.77-3.7,2.67-6.1,2.67
			c-2.4,0-4.45-0.9-6.1-2.67c-1.6-1.73-2.42-3.84-2.42-6.27v-7.15l-11.03,0c-5.88,0-9.75-1.1-11.83-3.35
			c-2.05-2.21-3.04-6.2-3.04-12.21v-11.73l-5.13,0c-0.65,6.25-1.94,11.59-3.84,15.92c-1.95,4.45-4.96,8.4-8.95,11.75l-0.12,0.09
			c-1.6,1.15-3.31,1.73-5.1,1.73c-0.85,0-1.66-0.15-2.39-0.45c-1.2-0.35-2.36-0.9-3.46-1.64v7.71c0,2.45-0.82,4.55-2.45,6.22
			c-1.64,1.7-3.63,2.56-5.91,2.56c-2.28,0-4.27-0.86-5.91-2.56c-1.62-1.67-2.45-3.77-2.45-6.22v-36.86
			c-0.42-0.22-0.86-0.59-1.24-1.19c-0.73-1.05-1.59-2.11-2.56-3.17c-0.79,0.89-1.83,1.36-3,1.36h-11.82v23.83l5.52-1.84l0.15-0.03
			c0.76-0.13,1.44-0.2,2.08-0.2c1.57,0,3.02,0.47,4.31,1.39c1.95,1.26,3.18,3.25,3.48,5.7c0.12,0.57,0.18,1.13,0.18,1.69
			c0,2.04-0.51,3.92-1.53,5.58c-1.29,2.35-3.14,3.9-5.5,4.63c-4.43,1.59-7.26,2.59-8.64,3.05c0,0,0,0,0,0
			c-0.01,0-0.04,0.09-0.04,0.31v46.61c0,4.37-0.51,7.75-1.56,10.33c-1.1,2.7-2.85,4.81-5.19,6.28c-3.18,1.91-7.96,2.94-14.65,3.19
			l-0.04,0H896.34z M953.46,961.29c2.53-1.68,4.46-3.71,5.75-6.06c1.53-2.81,2.57-6.54,3.09-11.11h-8.83V961.29z M997.65,957.01
			c0.23,0.03,0.57,0.06,1.08,0.06h8.95c0.28,0,0.5-0.01,0.66-0.02c0-0.05,0-0.11,0-0.18v-12.74l-10.76,0v11.73
			C997.59,956.4,997.62,956.77,997.65,957.01z M975.8,927.07c0.33,0,0.46-0.07,0.63-0.36c1.48-2.6,3.26-6.15,5.28-10.56h-18.94
			c-0.2,0-0.35,0-0.58,0.44l-0.05,0.09l-0.06,0.09c-2.28,3.5-4.8,6.95-7.51,10.3H975.8z M936.23,1048.86
			c-1.48,0-2.91-0.37-4.25-1.09c-2.08-1.06-3.78-2.69-5.02-4.83c-0.7-1.21-1.05-2.51-1.05-3.88c0-0.69,0.06-1.38,0.19-2.06
			l0.02-0.13l0.04-0.13c0.74-2.25,2.28-3.7,4.43-4.2c9.87-2.72,17.69-6.28,23.17-10.56c5.05-3.95,8.91-8.87,11.5-14.64H936.7
			c-2.25,0-4.2-0.87-5.79-2.59c-1.55-1.67-2.34-3.73-2.34-6.1c0-2.38,0.79-4.43,2.34-6.1c1.59-1.72,3.54-2.59,5.79-2.59h33.08
			c0.28-1.65,0.54-3.54,0.74-5.57c0.25-2.55,1.27-4.72,3.01-6.47c1.8-1.79,3.94-2.71,6.36-2.71c2.45,0,4.61,1,6.23,2.9
			c1.37,1.62,2.05,3.54,2.05,5.71c0,0.56-0.07,1.78-0.56,6.14h35.15c2.35,0,4.35,0.87,5.94,2.59c1.55,1.68,2.34,3.73,2.34,6.11
			c0,2.38-0.79,4.43-2.34,6.11c-1.59,1.72-3.59,2.59-5.94,2.59h-28.73c3.01,5.43,6.93,10.04,11.66,13.71
			c5.17,4.01,11.57,7.14,19.04,9.32c2.25,0.65,3.78,2.28,4.43,4.71c0.62,2.31,0.3,4.47-0.95,6.43c-1.43,2.31-3.33,4.1-5.64,5.28
			l-0.09,0.04c-1.51,0.68-3,1.02-4.43,1.02c-1.07,0-2.15-0.21-3.21-0.63c-15.54-5.31-27.25-15.16-34.83-29.29
			c-3.43,6.85-8.22,12.75-14.27,17.54c-6.65,5.27-15.69,9.63-26.85,12.96C938.06,1048.71,937.16,1048.86,936.23,1048.86z"/>
		<path class="st23" d="M1157.19,1049.88c-2.8,0-5.3-0.97-7.45-2.88c-2.14-1.8-3.68-4.18-4.52-7.03c-0.26-0.83-0.39-1.72-0.39-2.6
			v-0.08l0.01-0.08c0.13-1.56,0.65-3.01,1.56-4.3c1.3-2.27,3.29-3.47,5.77-3.47h0.16c3.77,0.11,7.03,0.17,9.74,0.17h5.73
			c1.34-0.11,1.66-0.45,1.68-0.46c0.01-0.01,0.33-0.37,0.33-1.78V913.61l-55.79,0c-2.46,0-4.59-0.96-6.34-2.84
			c-1.71-1.84-2.57-4.07-2.57-6.61c0-2.54,0.87-4.77,2.58-6.61c1.75-1.89,3.88-2.84,6.33-2.84h58.58c4.33,0,8.07,1.67,11.13,4.96
			c3.01,3.25,4.54,7.21,4.54,11.78v116.1c0,5.17-0.59,9.11-1.8,12.04c-1.29,3.11-3.6,5.49-6.87,7.06
			c-4.19,1.95-11.49,3.01-22.34,3.25h-0.02H1157.19z M1057.47,1047.84c-2.35,0-4.38-0.9-6.02-2.68c-1.6-1.73-2.42-3.84-2.42-6.27
			v-36.61c0-4.69,1.53-8.69,4.55-11.88c3.05-3.23,6.79-4.86,11.11-4.86h20.1c4.32,0,8.06,1.64,11.11,4.86
			c3.02,3.2,4.55,7.2,4.55,11.88v21.52c0,4.57-1.53,8.53-4.54,11.78c-3.05,3.29-6.79,4.96-11.13,4.96h-18.98
			c-0.25,1.77-1,3.35-2.25,4.7c-1.6,1.72-3.54,2.59-5.79,2.59H1057.47z M1083.58,1023.51v-21.08l-17.67,0v21.08L1083.58,1023.51z
			 M1083.57,1001.96L1083.57,1001.96z M1117.15,1021.57c-2.47,0-4.54-0.91-6.13-2.71c-1.53-1.72-2.31-3.88-2.31-6.41v-43.9
			c0-4.57,1.53-8.53,4.54-11.78c3.05-3.29,6.79-4.96,11.13-4.96h19c4.33,0,8.07,1.67,11.13,4.96c3.01,3.25,4.54,7.21,4.54,11.78
			v26.1c0,4.58-1.53,8.52-4.55,11.71c-3.05,3.23-6.79,4.86-11.11,4.86h-17.63v1.22c0,2.54-0.81,4.71-2.42,6.44
			C1121.68,1020.67,1119.6,1021.57,1117.15,1021.57z M1141.69,993.34v-23.62l-15.94,0v23.62L1141.69,993.34z M1125.75,969.25
			L1125.75,969.25z M1057,978.69c-2.15,0-4.01-0.84-5.55-2.51c-1.5-1.61-2.26-3.58-2.26-5.85c0-2.26,0.76-4.23,2.26-5.85
			c1.54-1.66,3.41-2.5,5.55-2.5h35.49c2.14,0,4.01,0.84,5.55,2.5c1.5,1.62,2.26,3.59,2.26,5.85c0,2.26-0.76,4.23-2.26,5.85
			c-1.54,1.66-3.41,2.5-5.55,2.5H1057z M1057,955.47c-2.15,0-4.01-0.84-5.55-2.51c-1.5-1.61-2.26-3.55-2.26-5.76
			c0-2.21,0.76-4.15,2.26-5.77c1.54-1.66,3.41-2.5,5.55-2.5h35.49c2.14,0,4,0.84,5.55,2.5c1.5,1.63,2.26,3.56,2.26,5.77
			c0,2.21-0.76,4.15-2.26,5.77c-1.54,1.66-3.41,2.5-5.55,2.5H1057z M1113.85,942.42c-2.35,0-4.38-0.9-6.02-2.67
			c-1.6-1.73-2.42-3.84-2.42-6.27c0-2.43,0.81-4.54,2.42-6.27c1.64-1.77,3.67-2.67,6.02-2.67h41.62c2.35,0,4.38,0.9,6.02,2.68
			c1.6,1.73,2.42,3.84,2.42,6.27c0,2.43-0.81,4.54-2.42,6.27c-1.64,1.77-3.67,2.67-6.02,2.67H1113.85z M1049.77,932.25
			c-2.24,0-4.22-0.91-5.74-2.62c-1.48-1.66-2.23-3.65-2.23-5.9c0-2.26,0.76-4.23,2.26-5.85c1.54-1.66,3.46-2.5,5.71-2.5h47.27
			c2.24,0,4.16,0.84,5.71,2.5c1.5,1.63,2.26,3.59,2.26,5.85c0,2.25-0.75,4.23-2.23,5.9c-1.52,1.72-3.51,2.62-5.74,2.62H1049.77z
			 M1057.78,909.03c-2.23,0-4.14-0.8-5.67-2.39c-1.52-1.57-2.29-3.52-2.29-5.8c0-2.26,0.76-4.23,2.26-5.85
			c1.54-1.66,3.46-2.5,5.71-2.5h34.39c2.14,0,4.01,0.84,5.55,2.5c1.5,1.62,2.26,3.59,2.26,5.85c0,2.28-0.77,4.23-2.29,5.8
			c-1.54,1.58-3.4,2.39-5.52,2.39H1057.78z"/>
		<path class="st23" d="M1281.58,1049.88c-2.46,0-4.61-0.99-6.41-2.93c-1.76-1.9-2.65-4.15-2.65-6.7v-40.51
			c0-4.57,1.53-8.53,4.54-11.78c3.05-3.29,6.79-4.96,11.13-4.96h41.3c4.33,0,8.08,1.67,11.13,4.96c3.01,3.25,4.54,7.21,4.54,11.78
			v39.49c0,2.65-0.92,4.99-2.73,6.95c-1.86,2-4.1,3.01-6.65,3.01h-1.88c-2.04,0-3.83-0.81-5.31-2.42c-1.14-1.22-1.83-2.63-2.08-4.19
			h-35.77c-0.25,1.77-1,3.35-2.25,4.7c-1.6,1.72-3.54,2.59-5.79,2.59H1281.58z M1326.38,1024.18v-22.61l-35.58,0v22.61
			L1326.38,1024.18z M1290.81,1001.11L1290.81,1001.11z M1218.29,1049.88c-2.35,0-4.38-0.9-6.02-2.67c-1.6-1.73-2.42-3.84-2.42-6.27
			v-36.61c0-4.57,1.53-8.53,4.54-11.78c3.05-3.29,6.79-4.96,11.13-4.96h19.32c4.33,0,8.07,1.67,11.13,4.96
			c3.01,3.25,4.54,7.21,4.54,11.78v21.36c0,4.57-1.53,8.53-4.54,11.78c-3.05,3.29-6.79,4.96-11.13,4.96h-18.18
			c-0.24,1.87-0.99,3.5-2.25,4.87c-1.6,1.72-3.6,2.59-5.95,2.59H1218.29z M1243.45,1025.54v-20.91l-16.73,0v20.91L1243.45,1025.54z
			 M1243.44,1004.16L1243.44,1004.16z M1217.97,980.05c-2.13,0-3.98-0.8-5.52-2.39c-1.52-1.56-2.29-3.52-2.29-5.8
			c0-2.26,0.76-4.23,2.26-5.85c1.54-1.66,3.41-2.5,5.55-2.5h33.77c2.14,0,4.01,0.84,5.55,2.5c1.5,1.63,2.26,3.59,2.26,5.85
			c0,2.28-0.77,4.23-2.29,5.8c-1.54,1.58-3.4,2.39-5.52,2.39H1217.97z M1269.8,975.81c-2.47,0-4.56-0.94-6.21-2.79
			c-1.58-1.78-2.39-3.94-2.39-6.41c0-2.49,0.81-4.63,2.42-6.36c1.65-1.78,3.73-2.68,6.18-2.68h12l0.01-0.04
			c1.01-5.67,2.03-11.72,3.04-17.99h-7.66c-2.25,0-4.22-0.9-5.86-2.67c-1.6-1.73-2.42-3.84-2.42-6.27c0-2.45,0.82-4.54,2.45-6.22
			c1.65-1.7,3.61-2.56,5.84-2.56h10.27c0.22-1.65,0.53-3.83,0.94-6.6c0.42-2.84,0.56-4.1,0.59-4.66h-14.16
			c-2.36,0-4.41-0.93-6.1-2.76c-1.65-1.78-2.49-3.92-2.49-6.36c0-2.45,0.85-4.57,2.52-6.31c1.69-1.75,3.74-2.64,6.07-2.64h66.27
			c2.35,0,4.38,0.9,6.02,2.67c1.6,1.73,2.42,3.84,2.42,6.28c0,2.42-0.8,4.55-2.39,6.33c-1.64,1.85-3.68,2.79-6.05,2.79h-33.36
			l-0.01,0.06c-0.2,1.07-0.49,2.95-0.85,5.58c-0.32,2.32-0.58,4.19-0.78,5.61h19.3c4.33,0,8.07,1.67,11.13,4.96
			c3.01,3.25,4.54,7.21,4.54,11.78v19.02h5.38c2.46,0,4.53,0.9,6.18,2.67c1.6,1.73,2.42,3.87,2.42,6.36c0,2.47-0.8,4.63-2.39,6.42
			c-1.64,1.85-3.73,2.79-6.21,2.79H1269.8z M1322.76,957.57v-18.03l-19.29,0c-0.71,4.18-1.72,10.19-3.01,18.03H1322.76z
			 M1217.97,956.49c-2.15,0-4.01-0.84-5.55-2.51c-1.5-1.61-2.26-3.55-2.26-5.76c0-2.21,0.76-4.15,2.26-5.77
			c1.54-1.66,3.41-2.5,5.55-2.5h33.77c2.14,0,4.01,0.84,5.55,2.5c1.5,1.62,2.26,3.56,2.26,5.77c0,2.21-0.76,4.15-2.26,5.77
			c-1.54,1.66-3.41,2.5-5.55,2.5H1217.97z M1210.59,932.76c-2.23,0-4.22-0.91-5.74-2.62c-1.48-1.66-2.23-3.65-2.23-5.9
			c0-2.26,0.76-4.23,2.26-5.85c1.54-1.66,3.46-2.5,5.71-2.5h46.64c2.24,0,4.16,0.84,5.71,2.5c1.5,1.62,2.26,3.59,2.26,5.85
			c0,2.25-0.75,4.23-2.23,5.9c-1.52,1.72-3.51,2.62-5.74,2.62H1210.59z M1219.07,909.03c-2.23,0-4.14-0.8-5.68-2.39
			c-1.52-1.56-2.29-3.52-2.29-5.8c0-2.26,0.76-4.23,2.26-5.85c1.54-1.66,3.46-2.5,5.71-2.5h32.51c2.24,0,4.16,0.84,5.71,2.5
			c1.5,1.62,2.26,3.59,2.26,5.85c0,2.28-0.77,4.23-2.29,5.8c-1.54,1.58-3.45,2.39-5.68,2.39H1219.07z"/>
	</g>
</g>
<path class="st24" d="M638.15,1056.89h-74.22c-28.48,0-51.56-23.09-51.56-51.56V931.1c0-28.48,23.09-51.56,51.56-51.56h74.22
	c28.48,0,51.56,23.09,51.56,51.56v74.22C689.71,1033.8,666.62,1056.89,638.15,1056.89z"/>
</svg>
