<?xml version="1.0" encoding="utf-8"?>
<!-- Generator: Adobe Illustrator 23.0.5, SVG Export Plug-In . SVG Version: 6.00 Build 0)  -->
<svg version="1.1" id="圖層_1" xmlns="http://www.w3.org/2000/svg" xmlns:xlink="http://www.w3.org/1999/xlink" x="0px" y="0px"
	 viewBox="0 0 1920 1080" style="enable-background:new 0 0 1920 1080;" xml:space="preserve">
<style type="text/css">
	.st0{fill:#A86E49;stroke:#000000;stroke-miterlimit:10;}
	.st1{fill:#E2AB65;stroke:#020100;stroke-miterlimit:10;}
	.st2{fill:#885138;stroke:#020202;stroke-miterlimit:10;}
	.st3{fill:#FFFFFF;}
	.st4{fill:#FFFFFF;stroke:#000000;stroke-width:3;stroke-miterlimit:10;}
	.st5{fill:#FFFFFF;stroke:#000000;stroke-width:6;stroke-miterlimit:10;}
</style>
<g>
	<path class="st0" d="M1416.38,768.11c-153.74,87.3-307.48,174.6-461.21,261.89V654.93c156-82.47,312.01-164.95,468.01-247.42
		C1420.91,527.71,1418.65,647.91,1416.38,768.11z"/>
	<path class="st1" d="M957.44,658.87c-87.26-30.27-174.51-60.54-261.77-90.81c84.99-41.46,169.99-82.91,254.98-124.37
		c122.38,60.76,244.76,121.52,367.14,182.27C1197.67,636.94,1077.55,647.91,957.44,658.87z"/>
	<path class="st2" d="M1255.47,614.13c-101.61-56.59-203.22-113.18-304.83-169.77c2.64-90.81,5.29-181.61,7.93-272.42
		c154.87,78.52,309.74,157.05,464.61,235.57C1367.28,476.38,1311.37,545.25,1255.47,614.13z"/>
	<path class="st0" d="M958.57,1030c-143.16-75.45-286.32-150.91-429.48-226.36c-6.42-123.71-12.84-247.42-19.26-371.13
		c149.2,75.45,298.41,150.91,447.61,226.36C957.81,782.58,958.19,906.29,958.57,1030z"/>
	<path class="st3" d="M564.78,389.74"/>
	<path class="st1" d="M1423.75,406.85c-156-77.21-312.01-154.42-468.01-231.62c34-46.94,67.99-93.88,101.99-140.82
		c162.43,73.7,324.85,147.4,487.28,221.1C1504.58,305.95,1464.17,356.4,1423.75,406.85z"/>
	<path class="st1" d="M1533.1,545.69c-154.12,85.54-308.23,171.09-462.35,256.63c-37.8-49.37-75.59-98.74-113.39-148.11
		c155.27-82.24,310.54-164.47,465.81-246.71C1459.82,453.57,1496.46,499.63,1533.1,545.69z"/>
	<path class="st1" d="M958.57,171.94c-154.12,85.54-308.23,171.09-462.35,256.63c-37.8-49.37-75.59-98.74-113.39-148.11
		c155.27-82.24,310.54-164.47,465.81-246.71C885.29,79.81,921.93,125.87,958.57,171.94z"/>
	<path class="st1" d="M489.42,420.67c155.86,79.21,311.71,158.43,467.57,237.64c-37.25,45.37-74.5,90.74-111.75,136.12
		c-142.41-74.14-284.81-148.28-427.22-222.41C441.83,521.57,465.63,471.12,489.42,420.67z"/>
	<path class="st2" d="M951.2,445.02c-70.26,34.22-140.52,68.43-210.78,102.65C659.21,508.19,578,468.7,496.79,429.22
		c154.12-85.54,308.23-171.09,462.35-256.63C956.49,263.4,953.85,354.21,951.2,445.02z"/>
</g>
<g>
	<g>
		<path class="st4" d="M786.35,1010.2c-2.9-0.14-5.33-1.22-7.31-3.22c-1.83-1.85-3.23-4.19-4.17-6.96
			c-0.71-2.44-0.43-4.67,0.82-6.69c1.24-2.01,3.12-3.08,5.43-3.08c0.16,0,0.32,0,0.48,0.02c5.18,0.33,10.05,0.5,14.48,0.5
			c2.55,0,4.32-0.61,5.4-1.85c0.94-1.01,2.64-4.29,4-15.46c1.08-8.81,2.05-22.91,2.88-41.91h-33.38c0,0,0,0.01,0,0.01
			c-0.84,6.69-1.91,12.83-3.17,18.27c-1.27,5.5-3.13,11.25-5.52,17.08c-2.4,5.88-5.39,11.27-8.88,16.02
			c-3.48,4.74-7.89,9.38-13.12,13.82c-5.24,4.44-11.36,8.33-18.19,11.55c-1.4,0.69-2.86,1.04-4.31,1.04c-1.3,0-2.56-0.28-3.74-0.82
			c-2.69-0.95-4.8-2.7-6.28-5.2c-1.04-1.56-1.56-3.23-1.56-4.96c0-0.69,0.06-1.39,0.19-2.06l0.03-0.13
			c0.67-2.61,2.25-4.53,4.58-5.57c5.56-2.62,10.61-5.68,14.97-9.07c4.34-3.38,7.91-6.93,10.62-10.55c2.72-3.65,5.1-7.79,7.07-12.31
			c1.98-4.55,3.51-9.01,4.52-13.23c0.99-4.11,1.85-8.78,2.55-13.89h-16.79c-3.61,0-6.73-1.42-9.26-4.22
			c-1.72-1.9-2.86-4.08-3.39-6.5c-1.64,1.7-3.31,3.34-4.99,4.92c-1.93,1.83-4.2,2.76-6.74,2.76c-0.16,0-0.33,0-0.49-0.01h-0.74
			c-3.01-0.14-5.57-1.31-7.71-3.48c-1.85-2-2.77-4.39-2.77-7.17c0-3.07,1.12-5.63,3.34-7.6c15.43-13.21,27.78-30.08,36.72-50.17
			c1.22-2.91,3.2-5.03,5.86-6.26c1.53-0.69,3.13-1.03,4.77-1.03c1,0,2.02,0.14,3.03,0.41c2.9,0.85,4.92,2.71,5.88,5.38
			c0.62,1.26,0.94,2.58,0.94,3.92c0,1.36-0.33,2.76-0.97,4.15c-7.42,16.56-16.89,31.73-28.16,45.12h88.39
			c-11.34-13.81-21.27-28.88-29.58-44.87c-0.74-1.33-1.19-2.79-1.32-4.32l-0.01-0.08v-0.08c0-1.18,0.26-2.3,0.79-3.33
			c0.93-2.62,2.61-4.46,4.99-5.46c1.28-0.55,2.6-0.83,3.92-0.83c1.27,0,2.5,0.21,3.66,0.63l0.12,0.05c2.49,1.08,4.45,2.85,5.81,5.26
			c4.56,8.5,10.15,17.07,16.65,25.53c6.5,8.46,13.24,15.96,20.04,22.3c2.3,2.21,3.46,4.98,3.46,8.24c0,3-0.97,5.56-2.89,7.63
			c-2.09,2.38-4.64,3.75-7.56,4.02l-0.09,0.01h-0.88c-2.62,0-5.04-1.04-7.19-3.09l-0.09-0.09c-1.11-1.2-2.21-2.43-3.29-3.66v1.63
			c-1.05,26.66-2.26,45.96-3.63,57.44c-1.41,11.91-3.55,19.52-6.52,23.26c-2,2.78-4.05,4.62-6.27,5.62
			c-2.05,0.92-4.72,1.66-8.17,2.26l-0.16,0.02c-2.46,0.23-5.85,0.35-10.08,0.35H786.35z"/>
		<path class="st4" d="M874.84,1010.37c-2.19,0-4.09-0.84-5.63-2.5c-1.5-1.62-2.26-3.62-2.26-5.94v-99.32
			c0-4.57,1.53-8.53,4.54-11.78c3.05-3.29,6.79-4.96,11.13-4.96h3.18v-13.29l-13.86,0c-2.35,0-4.41-0.93-6.1-2.76
			c-1.65-1.78-2.49-3.95-2.49-6.44c0-2.51,0.85-4.66,2.52-6.39c1.69-1.75,3.74-2.64,6.07-2.64h58.89c2.33,0,4.37,0.89,6.07,2.64
			c1.68,1.74,2.52,3.89,2.52,6.39c0,2.49-0.84,4.66-2.5,6.44c-1.7,1.83-3.75,2.76-6.1,2.76h-12.29v13.29l1.93,0
			c4.33,0,8.07,1.67,11.13,4.96c3.01,3.25,4.54,7.21,4.54,11.78v96.78c0,2.33-0.8,4.34-2.37,5.97c-1.59,1.64-3.53,2.47-5.76,2.47
			c-2.25,0-4.17-0.84-5.71-2.51c-1.5-1.62-2.26-3.62-2.26-5.94v-0.54h-37.3l0,3.08c0,2.32-0.76,4.31-2.26,5.93
			C878.93,1009.53,877.04,1010.37,874.84,1010.37z M920.04,981.96v-11.25l-37.3,0v11.25L920.04,981.96z M920.03,955.18l0-10.07
			h-6.32c-4.02,0-6.76-0.96-8.38-2.94c-1.54-1.87-2.26-5.13-2.26-10.25v-28.5l-3.54,0v11.73c0,12.8-2.88,23.23-8.55,31.01
			l-0.06,0.08c-1.11,1.37-2.6,2.1-4.3,2.1c-1.43,0-2.77-0.48-3.89-1.39v8.24H920.03z M882.73,936.66c3.5-5.51,5.27-12.78,5.27-21.67
			v-11.56l-5.27,0V936.66z M918.9,932.47c0.55,0,0.85-0.03,1-0.05c0,0,0.13-0.07,0.14-0.08v-28.92l-5.42,0v28.34
			c0,0.29,0.01,0.53,0.02,0.71H918.9z M904.02,885.86v-13.29l-4.01,0v13.29L904.02,885.86z M965.7,1009.01
			c-8.72,0-14.6-1.76-17.96-5.39c-3.32-3.58-4.93-10.01-4.93-19.66v-58.47c0-4.57,1.53-8.53,4.54-11.78
			c3.05-3.29,6.79-4.96,11.13-4.96h30.82v-33.62l-37.73,0c-2.56,0-4.77-0.99-6.57-2.93c-1.76-1.9-2.65-4.18-2.65-6.78
			s0.89-4.88,2.65-6.78c1.8-1.94,4.01-2.93,6.57-2.93h40.52c4.33,0,8.08,1.67,11.13,4.96c3.01,3.25,4.54,7.21,4.54,11.78v57.29
			c0,2.66-0.89,4.97-2.65,6.87c-1.8,1.94-4.01,2.93-6.57,2.93c-2.56,0-4.77-0.99-6.57-2.93c-1.76-1.9-2.65-4.21-2.65-6.87V928
			h-27.72v55.97c0,4.06,0.77,5.05,0.92,5.21c0.15,0.16,1.11,0.92,5.25,0.92h21.83c2.11,0,3.38-0.82,4.11-2.64
			c0.66-1.64,1.58-5.75,2.22-15.99c0.14-2.36,1.3-4.24,3.35-5.42c1.06-0.61,2.16-0.93,3.27-0.93c1.04,0,2.07,0.27,3.07,0.81
			c2.34,1.14,4.3,2.86,5.75,5.07c1.27,2.06,1.9,4.18,1.9,6.35v1.11l-0.01,0.09c-1.09,11.42-3.14,19.11-6.25,23.51
			c-3.26,4.61-8.75,6.95-16.32,6.95H965.7z"/>
		<path class="st4" d="M1059.53,1010.88c-2.51,0-4.67-0.96-6.41-2.84c-1.71-1.84-2.57-4.07-2.57-6.61v-47.2l-15.44,5.03
			c-0.94,0.29-1.88,0.44-2.82,0.44c-1.46,0-2.92-0.35-4.34-1.05l-0.1-0.05l-0.09-0.06c-2.22-1.4-3.67-3.4-4.32-5.94
			c-0.25-0.93-0.38-1.84-0.38-2.7c0-1.71,0.46-3.37,1.38-4.91c1.27-2.34,3.21-3.92,5.73-4.64c6.37-1.8,13.22-3.85,20.37-6.09l0.01,0
			c0-0.03,0-0.08,0-0.12v-32.74l-9.21,0c0,0.02-0.01,0.04-0.01,0.06c-1.27,5.84-2.66,11.25-4.13,16.15
			c-0.73,2.2-2.21,3.75-4.28,4.52c-0.76,0.28-1.54,0.43-2.31,0.43c-1.37,0-2.72-0.45-4-1.34c-1.9-1.23-3.22-2.99-3.89-5.22
			c-0.49-1.22-0.74-2.41-0.74-3.54c0-1.12,0.2-2.26,0.58-3.37c3.06-10.25,5.47-24.66,7.12-42.75c0.27-2.36,1.29-4.3,3.03-5.82
			c1.43-1.25,3.06-1.88,4.87-1.88c0.5,0,1.01,0.05,1.53,0.15c2.3,0.44,4.12,1.59,5.42,3.44c1.23,1.76,1.86,3.65,1.86,5.64
			c0,0.36-0.06,0.77-0.18,1.33c-0.5,5.1-1.04,9.45-1.63,12.94h5.97v-24.95c0-2.54,0.87-4.77,2.58-6.61
			c1.75-1.89,3.91-2.84,6.41-2.84c2.52,0,4.66,0.97,6.36,2.87c1.64,1.84,2.47,4.06,2.47,6.59v24.95l5.85,0
			c2.54,0,4.74,0.95,6.54,2.82c1.78,1.85,2.68,4.11,2.68,6.73c0,2.6-0.89,4.88-2.65,6.78c-1.8,1.94-4.01,2.93-6.57,2.93h-5.85v27.14
			l7.94-2.41c0.72-0.24,1.51-0.38,2.28-0.38c1.48,0,2.9,0.48,4.24,1.42c1.96,1.39,3.11,3.28,3.41,5.62
			c0.12,0.57,0.18,1.14,0.18,1.69c0,1.95-0.52,3.79-1.55,5.46c-1.25,2.16-3.02,3.71-5.23,4.55c-2.83,0.94-6.54,2.14-11.1,3.6
			c-0.09,0.03-0.14,0.05-0.18,0.07c0,0.01,0,53.27,0,53.27c0,2.53-0.83,4.74-2.47,6.58
			C1064.19,1009.91,1062.05,1010.88,1059.53,1010.88z M1135.15,1009.35c-2.62,0-4.97-0.99-6.97-2.94c-1.88-1.83-3.2-4.14-3.92-6.85
			c-0.55-2.24-0.22-4.42,0.99-6.51c1.5-2.61,3.65-3.16,5.19-3.16c0.26,0,0.52,0.02,0.8,0.05c2.23,0.11,4.87,0.16,7.84,0.16
			c1.82,0,3.13-0.73,4.12-2.29l0.06-0.1l0.08-0.09c1.48-1.8,3.68-7.61,5.76-24.99c1.71-14.22,3.25-37.11,4.6-68.01h-0.72
			c0,0.02-0.01,0.04-0.01,0.06c-4.09,21.85-10.1,42.45-17.87,61.25c-7.81,18.9-17.24,34.22-28.04,45.53
			c-1.94,2.09-4.36,3.16-7.18,3.16c-2.72,0-5.18-0.89-7.32-2.66c-2.01-1.59-3.08-3.89-3.08-6.63c0-2.27,0.91-4.25,2.69-5.88
			c10.31-9.8,19.29-23.27,26.69-40.01c7.33-16.6,13.04-35.04,16.97-54.82h-6.76c-3.38,13.67-7.99,26.94-13.71,39.5
			c-5.76,12.66-12.34,23.26-19.55,31.51c-1.56,1.97-3.79,3.06-6.37,3.06h-0.16c-2.44,0-4.66-0.77-6.58-2.3
			c-1.89-1.45-2.98-3.52-3.11-5.95c-0.14-2.45,0.64-4.53,2.32-6.19c6.27-6.77,12.16-15.65,17.44-26.33
			c5.16-10.44,9.48-21.64,12.85-33.3h-7.05c-0.12,0-0.18,0.02-0.2,0.03c0,0-0.07,0.05-0.15,0.26c-3.9,9.45-8.13,17.71-12.58,24.57
			c-1.47,2.17-3.46,3.42-5.95,3.75c-0.45,0.14-0.92,0.21-1.38,0.21c-2.05,0-3.96-0.73-5.68-2.16c-1.85-1.57-2.98-3.63-3.37-6.15
			l-0.02-0.15v-1.17c0-2.13,0.61-4.02,1.82-5.61c8.77-12.65,15.8-30.1,20.85-51.79c0.66-2.44,1.98-4.35,3.92-5.75
			c1.6-1.15,3.31-1.73,5.09-1.73c0.56,0,1.15,0.07,1.83,0.21c2.3,0.44,4.18,1.77,5.53,3.96c0.94,1.59,1.4,3.19,1.4,4.78
			c0,0.77-0.13,1.57-0.4,2.45c-1.09,4.3-2.51,9.5-4.19,15.38h45.15c4.33,0,8.04,1.64,11.05,4.88c2.76,3.11,4.14,6.8,4.14,11.02
			c0,22.11-1.8,48.53-5.35,78.54c-1.84,15.86-4.32,25.76-7.59,30.26c-1.83,2.71-3.71,4.62-5.71,5.8c-1.91,1.12-4.35,2-7.28,2.61
			c-2.31,0.38-5.29,0.55-9.2,0.55H1135.15z"/>
		<path class="st4" d="M1202.05,1009.69c-1.34,0-2.69-0.2-4.02-0.59c-2.64-0.78-5.01-2.28-7.03-4.46c-1.19-1.28-1.79-2.76-1.79-4.41
			c0-0.64,0.08-1.2,0.23-1.72c0.6-2.38,2.18-3.98,4.55-4.62c12.51-3.12,23.22-6.79,31.86-10.89c0.07-0.03,0.14-0.06,0.21-0.09h-5.16
			c-4.33,0-8.07-1.67-11.13-4.96c-3.01-3.25-4.54-7.21-4.54-11.78v-40.34c0-4.57,1.53-8.53,4.54-11.78
			c3.05-3.29,6.79-4.96,11.13-4.96h15.74c-0.31-1-0.46-2.03-0.46-3.08c0-1.21,0.19-2.44,0.56-3.64l0.04-0.12
			c1.17-3.08,3.33-5.09,6.26-5.81c7.89-2.16,13.93-5.03,17.92-8.54c3.71-3.27,6.45-7.45,8.15-12.43h-10.36
			c-0.33,0-0.58,0.08-0.87,0.5l-0.07,0.1c-2.46,3.12-5.06,5.99-7.73,8.52c-1.97,1.71-4.12,2.61-6.44,2.75l-0.12,0
			c-2.3,0-4.49-0.75-6.49-2.23c-1.85-1.25-2.9-3.05-3.04-5.24c-0.14-2.15,0.61-4.09,2.17-5.62l0.08-0.07
			c6.07-5.35,11.1-11.67,14.95-18.77c1.22-2.25,2.91-3.99,5.01-5.19c1.65-0.96,3.42-1.45,5.23-1.45c0.53,0,1.11,0.07,1.76,0.2
			c2.31,0.34,4.09,1.68,5.15,3.9c1.05,2.2,1.01,4.5-0.12,6.63l-0.24,0.45h47.49l0.44-0.11c0.74-0.18,1.49-0.28,2.23-0.28
			c0.99,0,1.99,0.16,2.97,0.49l2.9,0.82c1.83,0.49,3.22,1.75,3.98,3.63c0.74,1.83,0.66,3.72-0.23,5.47
			c-2.97,5.83-6.09,11.05-9.26,15.51c-1.42,1.95-3.29,3.22-5.57,3.8c-1.03,0.4-2.08,0.6-3.12,0.6c-1.17,0-2.35-0.21-3.5-0.63
			c-2.01-0.83-3.33-2.33-3.92-4.39c-0.57-2-0.28-4.02,0.85-5.84l0.07-0.11c0.72-1.01,1.49-2.16,2.32-3.45h-16.04
			c2.02,5.3,5.54,9.9,10.45,13.71c5.27,4.08,13.81,7.26,25.38,9.45c2.18,0.5,3.76,1.92,4.63,4.11l0.03,0.08l0.02,0.08
			c0.27,0.87,0.4,1.69,0.4,2.45c0,1.19-0.27,2.38-0.81,3.55l-0.05,0.11l-0.06,0.1c-1.43,2.31-3.2,4.08-5.26,5.26l-0.1,0.05
			c-1.63,0.81-3.25,1.23-4.82,1.23c-0.75,0-1.51-0.07-2.24-0.2l-0.12-0.03l-2.86-0.71v51.48c0,4.57-1.53,8.53-4.54,11.78
			c-3.05,3.29-6.79,4.96-11.13,4.96h-6.84c11.57,4.41,22.08,8.77,31.23,12.96c2.26,0.97,3.52,3.01,3.52,5.72
			c0,2.73-1.34,4.77-3.76,5.75c-2.69,1.21-5.56,1.84-8.45,1.84c-3.34,0-6.76-0.87-10.17-2.59c-8.28-4.13-17.63-8.27-27.79-12.3
			c-2.35-1.02-3.62-2.99-3.62-5.59c0-1.33,0.45-3.23,2.6-4.7c0.61-0.41,1.22-0.77,1.83-1.1h-35.65c1.37,0.71,3,2.19,3.18,5.16
			c0.15,2.44-0.87,4.42-2.88,5.58c-10.35,5.81-22.3,11-35.55,15.42C1204.74,1009.49,1203.39,1009.69,1202.05,1009.69z
			 M1295.23,968.74v-6.17l-71.38,0v6.17L1295.23,968.74z M1295.23,948.74v-6l-71.38,0v6L1295.23,948.74z M1295.23,929.08v-5.66
			l-71.38,0v5.66L1295.23,929.08z M1299.37,909.08c-8.35-4.18-14.82-9.78-19.31-16.72c-4.98,7-12.62,12.59-22.81,16.72H1299.37z
			 M1196.09,911.39c-1.46,0-2.92-0.35-4.34-1.05c-2.32-1.11-4.02-2.94-5.05-5.44c-0.42-1.04-0.62-2.15-0.62-3.3
			c0-1.17,0.26-2.39,0.78-3.64l0.06-0.12c1.1-2.23,2.86-3.67,5.23-4.27c6.79-1.69,17.7-4.71,32.45-8.97l0.14-0.03
			c0.68-0.14,1.27-0.21,1.83-0.21c1.48,0,2.83,0.47,4.01,1.4c1.81,1.24,2.85,3.08,3.01,5.33c0.24,2.21-0.18,4.31-1.27,6.24
			c-1.14,2.02-2.8,3.41-4.95,4.14c-4.36,1.57-13.62,4.68-28.28,9.5l-0.1,0.03C1197.97,911.25,1197,911.39,1196.09,911.39z
			 M1223.88,877.83c-1.38,0-2.76-0.37-4.09-1.09c-6.42-3.07-13.69-6.07-21.55-8.86c-2.05-0.79-3.49-2.29-4.21-4.37
			c-0.72-2.08-0.49-4.17,0.66-6.02c1.27-2.05,2.96-3.52,5.03-4.36c1.23-0.44,2.41-0.65,3.58-0.65c0.82,0,1.66,0.06,2.5,0.19
			l0.16,0.02l0.15,0.05c7.78,2.5,15.2,5.32,22.04,8.38c2.17,0.88,3.72,2.69,4.41,5.2c0.25,0.81,0.39,1.69,0.39,2.56
			c0,1.5-0.41,2.87-1.23,4.08c-1.19,2.23-2.94,3.72-5.2,4.43C1225.6,877.69,1224.72,877.83,1223.88,877.83z"/>
	</g>
</g>
<path class="st5" d="M618.15,1017.89h-74.22c-28.48,0-51.56-23.09-51.56-51.56V892.1c0-28.48,23.09-51.56,51.56-51.56h74.22
	c28.48,0,51.56,23.09,51.56,51.56v74.22C669.71,994.8,646.62,1017.89,618.15,1017.89z"/>
</svg>
