<?xml version="1.0" encoding="utf-8"?>
<!-- Generator: Adobe Illustrator 23.0.5, SVG Export Plug-In . SVG Version: 6.00 Build 0)  -->
<svg version="1.1" id="圖層_1" xmlns="http://www.w3.org/2000/svg" xmlns:xlink="http://www.w3.org/1999/xlink" x="0px" y="0px"
	 viewBox="0 0 1920 1080" style="enable-background:new 0 0 1920 1080;" xml:space="preserve">
<style type="text/css">
	.st0{fill:#A36335;}
	.st1{fill:#E59941;}
	.st2{fill:#FFF0D9;}
	.st3{fill:#FFFFFF;stroke:#000000;stroke-width:3;stroke-miterlimit:10;}
	.st4{fill:#FFFFFF;stroke:#000000;stroke-width:6;stroke-miterlimit:10;}
	.st5{fill:none;}
</style>
<g>
	<g>
		<path class="st0" d="M479.06,1056.64c-22.37,5.18-53.06,10.05-89.58,9.28c-29.47-0.63-54.66-4.74-74.23-9.28
			c0-344.53,0-689.06,0-1033.59c22.23-3.77,49.48-6.81,80.62-6.89c32.25-0.08,60.39,3.03,83.18,6.89
			C479.06,367.58,479.06,712.11,479.06,1056.64z"/>
		<path class="st0" d="M1616.75,1055.48c-22.37,5.19-53.06,10.05-89.58,9.28c-29.47-0.63-54.66-4.74-74.23-9.28
			c0-344.53,0-689.06,0-1033.59c22.23-3.77,49.48-6.81,80.62-6.89c32.25-0.08,60.39,3.03,83.18,6.89
			C1616.75,366.42,1616.75,710.95,1616.75,1055.48z"/>
		<rect x="154" y="49.8" class="st1" width="1624" height="886.21"/>
		<rect x="224.39" y="78.8" class="st2" width="1483.23" height="807.33"/>
	</g>
	<g>
		<g>
			<path class="st0" d="M803.34,146.14c0.29-0.05,0.61-0.08,0.96-0.08c0.59,0,1.16,0.16,1.75,0.48c0.82,0.48,1.32,1.16,1.48,2.06
				c0.05,0.21,0.09,0.43,0.09,0.64c0,0.74-0.23,1.45-0.7,2.15c-0.59,0.79-1.39,1.35-2.44,1.67l-5.77,1.67
				c-0.59,0.16-0.87,0.5-0.87,1.03v20.77c0,2.01-0.24,3.57-0.74,4.67c-0.5,1.11-1.33,1.93-2.5,2.46c-1.69,0.89-4.22,1.4-7.61,1.51
				c-0.06,0-0.12,0-0.18,0c-1.11,0-2.1-0.31-2.97-0.95c-1-0.68-1.66-1.59-2.01-2.69c-0.29-0.9-0.14-1.72,0.44-2.46
				c0.59-0.74,1.34-1.08,2.28-1.03c1.16,0,2.39,0,3.67,0c0.64,0,1.08-0.1,1.32-0.31c0.23-0.21,0.35-0.6,0.35-1.19v-18.56
				c0-0.21-0.09-0.38-0.27-0.51s-0.38-0.15-0.61-0.03l-4.9,1.35c-0.41,0.1-0.79,0.16-1.14,0.16c-0.64,0-1.28-0.16-1.92-0.48
				c-0.93-0.48-1.55-1.22-1.84-2.22c-0.06-0.31-0.09-0.6-0.09-0.87c0-0.68,0.2-1.35,0.61-1.98c0.59-0.89,1.46-1.48,2.62-1.74
				c0.64-0.16,2.85-0.74,6.65-1.74c0.59-0.16,0.87-0.5,0.87-1.03v-14.51c0-0.53-0.29-0.79-0.87-0.79h-5.61
				c-1.05,0-1.96-0.35-2.71-1.03c-0.76-0.68-1.14-1.52-1.14-2.49c0-0.97,0.38-1.8,1.14-2.46c0.76-0.66,1.66-0.99,2.71-0.99H789
				c0.59,0,0.87-0.27,0.87-0.79v-11.34c0-0.95,0.4-1.79,1.18-2.49s1.71-1.07,2.8-1.07c1.08,0,2.01,0.36,2.8,1.07
				s1.18,1.54,1.18,2.49v11.34c0,0.53,0.29,0.79,0.87,0.79h5.68c1.05,0,1.96,0.34,2.71,0.99c0.76,0.66,1.14,1.48,1.14,2.46
				c0,0.97-0.38,1.81-1.14,2.49c-0.76,0.68-1.66,1.03-2.71,1.03h-5.68c-0.59,0-0.87,0.27-0.87,0.79v12.53
				c0,0.21,0.09,0.37,0.27,0.48c0.18,0.1,0.38,0.13,0.61,0.08L803.34,146.14z M811.75,120.5c-0.76-0.66-1.14-1.46-1.14-2.41
				s0.38-1.75,1.14-2.41c0.76-0.66,1.64-0.99,2.62-0.99h36.31c2.1,0,3.88,0.68,5.34,2.06c1.34,1.26,2.01,2.75,2.01,4.44
				c0,5.19-0.5,10.75-1.48,16.73c-0.59,3.33-1.39,5.58-2.44,6.74c-1.39,1.53-3.38,2.44-5.95,2.69c-1.28,0.1-3.24,0.16-5.86,0.16
				c-0.06,0-0.12,0-0.18,0c-1.11,0-2.11-0.36-3.02-1.07c-0.91-0.72-1.54-1.6-1.88-2.66c-0.23-0.79-0.09-1.53,0.44-2.22
				c0.52-0.68,1.23-1.01,2.1-0.95c1.34,0.06,2.83,0.08,4.47,0.08c1.34,0,2.3-0.31,2.89-0.95c1.28-1.16,2.21-6.98,2.8-17.45
				c0.05-0.21,0-0.39-0.18-0.56c-0.18-0.16-0.38-0.24-0.61-0.24h-15.14c-0.59,0-0.91,0.27-0.96,0.79
				c-0.93,5.87-2.64,10.89-5.12,15.07c-2.48,4.18-6.31,7.64-11.5,10.39c-0.64,0.31-1.28,0.48-1.92,0.48c-0.41,0-0.82-0.05-1.23-0.16
				c-1.11-0.27-2.05-0.85-2.8-1.74c-0.47-0.53-0.7-1.14-0.7-1.82c0-0.21,0.03-0.39,0.09-0.56c0.18-0.89,0.67-1.59,1.48-2.06
				c4.15-2.11,7.2-4.78,9.19-8c1.98-3.22,3.35-7.09,4.11-11.58c0-0.21-0.08-0.39-0.22-0.56c-0.14-0.16-0.33-0.24-0.56-0.24h-9.44
				C813.38,121.48,812.51,121.16,811.75,120.5z M817.25,185.15c-1.11,0-2.06-0.36-2.84-1.07c-0.78-0.71-1.18-1.58-1.18-2.58v-22.84
				c0-1.9,0.74-3.53,2.23-4.87c1.48-1.35,3.28-2.02,5.38-2.02h28.6c2.1,0,3.89,0.67,5.37,2.02c1.48,1.35,2.23,2.97,2.23,4.87v22.36
				c0,1.06-0.41,1.96-1.23,2.69c-0.82,0.74-1.8,1.11-2.97,1.11h-0.87c-0.87,0-1.64-0.29-2.28-0.87c-0.64-0.58-0.96-1.3-0.96-2.15
				c-0.06-0.21-0.23-0.31-0.52-0.31h-26.5c-0.29,0-0.44,0.13-0.44,0.39c0,0.89-0.35,1.67-1.05,2.3c-0.7,0.63-1.55,0.95-2.53,0.95
				H817.25z M848.75,159.31c0-0.53-0.29-0.79-0.87-0.79h-25.63c-0.59,0-0.91,0.27-0.96,0.79v14.59c0,0.53,0.32,0.79,0.96,0.79h25.63
				c0.59,0,0.87-0.27,0.87-0.79V159.31z"/>
			<path class="st0" d="M948.57,153.52c0.64,0.58,0.96,1.26,0.96,2.06c0,0.8-0.32,1.5-0.96,2.1c-0.64,0.6-1.43,0.92-2.37,0.92h-13.3
				c-0.12,0-0.2,0.07-0.27,0.2c-0.06,0.13-0.03,0.22,0.09,0.28c4.2,2.75,9.3,5.02,15.31,6.82c0.87,0.27,1.43,0.79,1.66,1.59
				c0.05,0.27,0.09,0.5,0.09,0.72c0,0.58-0.2,1.11-0.61,1.59c-0.82,0.9-1.8,1.53-2.97,1.9c-0.52,0.16-1.05,0.24-1.57,0.24
				c-0.64,0-1.28-0.1-1.92-0.31c-2.44-0.95-4.84-2.03-7.18-3.25c-0.18-0.1-0.35-0.12-0.52-0.03c-0.18,0.08-0.27,0.22-0.27,0.44
				c-0.82,7.67-2.07,12.32-3.76,13.95c-1.52,1.22-3.53,1.9-6.04,2.06c-1.05,0.05-2.48,0.08-4.29,0.08c-0.82,0-1.71,0-2.71,0
				c-1,0-1.88-0.3-2.66-0.92c-0.79-0.6-1.33-1.39-1.61-2.34c-0.23-0.68-0.12-1.32,0.35-1.9c0.46-0.58,1.08-0.85,1.84-0.79
				c2.16,0.1,4.06,0.16,5.68,0.16c1.28,0,2.24-0.21,2.89-0.64c0.87-0.79,1.55-3.1,2.01-6.9c0.05-0.21,0-0.39-0.18-0.56
				c-0.18-0.16-0.38-0.24-0.61-0.24h-16.01c-0.59,0-1.02,0.24-1.32,0.72c-1.87,3.22-4.59,5.92-8.18,8.08
				c-3.58,2.17-8.47,3.93-14.65,5.31c-0.35,0.1-0.7,0.16-1.05,0.16c-0.7,0-1.37-0.16-2.01-0.48c-1-0.43-1.8-1.08-2.44-1.98
				c-0.47-0.64-0.55-1.32-0.27-2.06c0.29-0.74,0.87-1.19,1.75-1.35c8.46-1.64,14.35-4.26,17.67-7.85c0.12-0.1,0.13-0.22,0.04-0.36
				c-0.09-0.13-0.22-0.2-0.4-0.2h-12.52c-0.76,0-1.42-0.26-1.97-0.75c-0.55-0.5-0.83-1.13-0.83-1.87c0-0.16-0.09-0.19-0.27-0.08
				c-1.98,0.9-4.22,1.82-6.73,2.77c-0.59,0.21-1.14,0.31-1.66,0.31c-0.47,0-0.96-0.08-1.48-0.24c-1-0.31-1.84-0.87-2.53-1.67
				c-0.41-0.48-0.61-0.97-0.61-1.51c0-0.16,0.03-0.35,0.09-0.56c0.18-0.79,0.67-1.32,1.48-1.59c5.54-1.84,10.24-4.01,14.09-6.51
				c0.12-0.05,0.14-0.15,0.09-0.28c-0.06-0.13-0.18-0.2-0.35-0.2h-11.9c-0.93,0-1.71-0.3-2.37-0.92c-0.64-0.6-0.96-1.31-0.96-2.1
				c0-0.79,0.32-1.48,0.96-2.06c0.64-0.58,1.43-0.87,2.37-0.87h19.07c0.59,0,1.05-0.21,1.39-0.64c0.7-0.85,1.34-1.69,1.92-2.54
				c0.05-0.16,0.04-0.31-0.04-0.48s-0.24-0.24-0.49-0.24h-7.44c-2.1,0-3.89-0.67-5.37-2.02c-1.48-1.35-2.23-2.97-2.23-4.87v-8.64
				c0-1.9,0.74-3.53,2.23-4.87c1.48-1.35,3.28-2.02,5.37-2.02h44.09c2.1,0,3.89,0.67,5.37,2.02s2.23,2.97,2.23,4.87v8.64
				c0,1.9-0.74,3.53-2.23,4.87s-3.28,2.02-5.37,2.02H906.2c-0.59,0-1.02,0.24-1.32,0.72c-0.59,1.01-1.11,1.86-1.57,2.54
				c-0.12,0.16-0.13,0.3-0.04,0.44c0.09,0.13,0.22,0.2,0.4,0.2h42.51C947.14,152.65,947.93,152.94,948.57,153.52z M894.42,125.21
				c-0.93,0-1.75-0.31-2.44-0.95s-1.05-1.37-1.05-2.22c0-0.27-0.14-0.39-0.44-0.39h-15.57c-0.93,0-1.71-0.29-2.37-0.87
				c-0.64-0.58-0.96-1.28-0.96-2.1c0-0.82,0.32-1.53,0.96-2.15c0.64-0.6,1.43-0.92,2.37-0.92h15.4c0.41,0,0.61-0.16,0.61-0.48v-0.79
				c0-1.01,0.4-1.87,1.18-2.58s1.74-1.07,2.84-1.07c1.11,0,2.06,0.37,2.84,1.11c0.79,0.74,1.18,1.59,1.18,2.54v0.79
				c0,0.31,0.2,0.48,0.61,0.48h20.3c0.41,0,0.61-0.16,0.61-0.48v-0.72c0-1.06,0.4-1.94,1.18-2.66c0.78-0.72,1.75-1.07,2.89-1.07
				c1.14,0,2.11,0.37,2.93,1.11c0.82,0.74,1.23,1.61,1.23,2.62v0.72c0,0.31,0.18,0.48,0.52,0.48h15.66c0.93,0,1.71,0.3,2.37,0.92
				c0.64,0.6,0.96,1.32,0.96,2.15c0,0.82-0.32,1.52-0.96,2.1c-0.64,0.58-1.43,0.87-2.37,0.87h-15.74c-0.29,0-0.44,0.13-0.44,0.39
				c0,0.85-0.35,1.59-1.05,2.22c-0.7,0.63-1.52,0.95-2.44,0.95h-1.23c-0.93,0-1.75-0.31-2.44-0.95c-0.69-0.64-1.05-1.37-1.05-2.22
				c0-0.27-0.14-0.39-0.44-0.39h-20.64c-0.29,0-0.44,0.13-0.44,0.39c0,0.85-0.37,1.59-1.09,2.22c-0.73,0.64-1.54,0.95-2.41,0.95
				h-1.09V125.21z M889.43,131.08c-0.59,0-0.91,0.27-0.96,0.79v2.69c0,0.53,0.32,0.79,0.96,0.79h41.21c0.59,0,0.87-0.27,0.87-0.79
				v-2.69c0-0.53-0.29-0.79-0.87-0.79H889.43z M889.43,139.72c-0.59,0-0.91,0.27-0.96,0.79v2.85c0,0.53,0.32,0.79,0.96,0.79h41.21
				c0.59,0,0.87-0.27,0.87-0.79v-2.85c0-0.53-0.29-0.79-0.87-0.79H889.43z M910.96,164.54c-0.12,0.37,0.03,0.56,0.44,0.56h17.85
				c0.18,0,0.28-0.05,0.31-0.16c0.03-0.1-0.01-0.21-0.13-0.31c-2.21-1.48-4.4-3.31-6.57-5.47c-0.41-0.37-0.91-0.56-1.48-0.56h-23.1
				c-0.59,0-1.08,0.19-1.48,0.56c-2.51,2.17-4.95,3.99-7.35,5.47c-0.12,0.1-0.14,0.21-0.09,0.31c0.05,0.1,0.12,0.16,0.18,0.16h12.43
				c0.41,0,0.67-0.17,0.79-0.51c0.12-0.35,0.2-0.7,0.27-1.07c0.29-1.06,0.88-1.91,1.79-2.58c0.91-0.66,1.91-0.99,3.02-0.99
				c1.11,0,2.01,0.37,2.71,1.11c0.52,0.58,0.79,1.19,0.79,1.82c0,0.21-0.03,0.43-0.09,0.64
				C911.1,163.88,911.01,164.23,910.96,164.54z"/>
			<path class="st0" d="M1032.64,138.14c0.7-0.68,1.55-1.06,2.53-1.11c0.05,0,0.12,0,0.18,0c1,0,1.84,0.31,2.53,0.95
				c0.76,0.64,1.14,1.43,1.14,2.38s-0.41,1.77-1.23,2.46c-3.1,2.54-6.59,5.15-10.49,7.85c-0.47,0.31-0.59,0.72-0.35,1.19
				c3.15,7.03,6.97,12.55,11.47,16.58c0.87,0.74,1.32,1.64,1.32,2.69c0,0.95-0.38,1.8-1.14,2.54c-0.76,0.79-1.69,1.24-2.8,1.35
				c-0.12,0-0.27,0-0.44,0c-0.93,0-1.75-0.31-2.44-0.95c-8.87-8.35-15.16-22.22-18.9-41.63c-0.05-0.16-0.18-0.27-0.35-0.31
				c-0.18-0.05-0.32-0.02-0.44,0.08c-1.75,1.69-3.7,3.35-5.86,5c-0.47,0.37-0.5,0.74-0.09,1.11c3.85,3.28,6.91,7.18,9.19,11.69
				c2.28,4.51,3.62,8.87,4.02,13.05c0.12,1.43,0.18,2.81,0.18,4.12c0,2.54-0.27,4.94-0.79,7.21c-0.76,3.43-2.07,5.92-3.94,7.46
				c-2.28,2.11-5.31,3.22-9.1,3.33c-0.7,0-1.46-0.02-2.28-0.08c-1.11,0-2.07-0.37-2.89-1.11c-0.82-0.74-1.37-1.64-1.66-2.69
				c-0.23-0.74-0.09-1.43,0.44-2.06c0.52-0.64,1.19-0.93,2.01-0.87c1.05,0.06,2.01,0.08,2.89,0.08c2.1,0,3.67-0.68,4.72-2.06
				c1.05-1.01,1.8-2.69,2.28-5.08c0.29-1.32,0.44-2.77,0.44-4.36c0-1.22-0.05-2.46-0.18-3.72c-0.05-0.16-0.18-0.27-0.35-0.31
				c-0.18-0.05-0.35-0.02-0.52,0.08c-6.59,5.87-13.77,10.73-21.53,14.59c-0.7,0.27-1.39,0.39-2.1,0.39c-0.41,0-0.79-0.02-1.14-0.08
				c-1.05-0.27-1.96-0.79-2.71-1.59c-0.59-0.64-0.79-1.35-0.61-2.15s0.67-1.37,1.48-1.74c4.61-1.84,9.18-4.27,13.69-7.25
				c4.52-2.98,8.24-6.04,11.15-9.16c0.35-0.42,0.44-0.87,0.27-1.35c-0.41-1.06-0.96-2.25-1.66-3.57c-0.12-0.21-0.28-0.32-0.49-0.36
				c-0.2-0.02-0.4,0.01-0.58,0.12c-3.85,3.06-8.02,5.95-12.52,8.64c-0.87,0.48-1.78,0.74-2.71,0.79c-0.41,0-0.82-0.05-1.23-0.16
				c-1.34-0.31-2.48-0.97-3.42-1.98c-0.05-0.1-0.14-0.13-0.27-0.08c-0.12,0.06-0.18,0.13-0.18,0.24c-0.47,3.22-1.64,5.42-3.49,6.58
				c-1.39,0.85-3.03,1.38-4.9,1.59c-0.59,0.1-1.28,0.16-2.1,0.16c-0.05,0-0.12,0-0.18,0c-0.93,0-1.78-0.31-2.53-0.95
				c-0.82-0.64-1.37-1.45-1.66-2.46c-0.18-0.74-0.03-1.42,0.44-2.02c0.47-0.6,1.11-0.92,1.92-0.92c0.29,0,0.59-0.05,0.87-0.16
				c1.05,0,1.96-0.24,2.71-0.72c1.11-0.68,1.66-2.38,1.66-5.08c0-3.28-0.93-6.47-2.8-9.59c-1.75-2.91-2.62-5.68-2.62-8.33
				c0-1.32,0.2-2.59,0.61-3.8c1.11-3.12,2.3-6.74,3.58-10.87c0.05-0.21,0.01-0.39-0.13-0.56c-0.15-0.16-0.31-0.24-0.49-0.24h-7.87
				c-0.59,0-0.87,0.27-0.87,0.79v60.18c0,0.89-0.37,1.68-1.09,2.34c-0.73,0.66-1.59,0.99-2.59,0.99s-1.86-0.34-2.59-0.99
				c-0.73-0.66-1.09-1.44-1.09-2.34v-60.9c0-1.9,0.74-3.53,2.23-4.87c1.48-1.35,3.28-2.02,5.37-2.02h11.99c0.05,0,0.14,0,0.27,0
				c0.76-0.16,1.46-0.08,2.1,0.24l1.75,0.95c0.76,0.43,1.32,1.02,1.66,1.79c0.35,0.77,0.38,1.54,0.09,2.34
				c-2.97,7.93-5.36,13.98-7.18,18.15c-0.23,0.48-0.18,0.93,0.18,1.35c4.61,5.02,6.91,10.44,6.91,16.25c0,0.21,0.09,0.36,0.27,0.44
				c0.18,0.08,0.35,0.09,0.52,0.03c6-2.69,11.31-5.95,15.92-9.76c0.47-0.37,0.5-0.77,0.09-1.19c-0.76-0.89-1.6-1.77-2.53-2.62
				c-0.35-0.37-0.79-0.39-1.32-0.08c-2.28,1.43-4.7,2.81-7.26,4.12c-0.7,0.37-1.39,0.53-2.1,0.48c-0.35,0-0.7,0-1.05,0
				c-1.05-0.27-1.96-0.79-2.71-1.59c-0.59-0.64-0.79-1.37-0.61-2.22s0.7-1.45,1.57-1.82c6.41-2.85,11.99-6.21,16.71-10.07
				c0.12-0.05,0.14-0.15,0.09-0.28c-0.05-0.13-0.14-0.2-0.27-0.2h-13.48c-1,0-1.84-0.31-2.53-0.95c-0.69-0.64-1.05-1.4-1.05-2.3
				c0-0.89,0.35-1.67,1.05-2.3c0.7-0.63,1.55-0.95,2.53-0.95h7c0.23,0,0.41-0.08,0.52-0.24c0.12-0.16,0.14-0.35,0.09-0.56
				c-0.76-2.22-1.87-4.59-3.33-7.13c-0.47-0.74-0.54-1.51-0.22-2.3s0.92-1.32,1.79-1.59c0.52-0.16,1.04-0.24,1.54-0.24
				c0.5,0,1.01,0.08,1.54,0.24c1,0.31,1.75,0.9,2.28,1.74c1.46,2.33,2.62,4.57,3.49,6.74c0.23,0.64,0.18,1.26-0.18,1.9
				c-0.36,0.64-0.87,1.08-1.57,1.35c-0.05,0-0.09,0.01-0.09,0.03c0,0.02,0.03,0.03,0.09,0.03h17.58c0.05,0,0.09-0.01,0.09-0.03
				c0-0.02-0.03-0.03-0.09-0.03c-0.76-0.27-1.28-0.73-1.57-1.39c-0.29-0.66-0.23-1.31,0.18-1.94c1.28-2.17,2.37-4.26,3.24-6.26
				c0.47-0.95,1.23-1.67,2.28-2.15c0.64-0.31,1.28-0.48,1.92-0.48c0.41,0,0.82,0.06,1.23,0.16c1.05,0.27,1.8,0.85,2.28,1.74
				c0.18,0.43,0.27,0.85,0.27,1.26c0,0.48-0.14,0.93-0.44,1.35c-1.57,2.81-3.01,5.15-4.29,7.05c-0.05,0.16-0.04,0.31,0.05,0.48
				s0.22,0.24,0.4,0.24h8.83c1,0,1.84,0.31,2.53,0.95s1.05,1.4,1.05,2.3c0,0.9-0.35,1.67-1.05,2.3s-1.55,0.95-2.53,0.95h-14.87
				c-0.23,0-0.42,0.08-0.56,0.24c-0.15,0.16-0.22,0.35-0.22,0.56c0.93,4.55,2.12,8.95,3.58,13.25c0.05,0.21,0.19,0.35,0.4,0.39
				c0.2,0.06,0.36,0.02,0.49-0.08C1027.86,142.47,1030.42,140.25,1032.64,138.14z"/>
			<path class="st0" d="M1121.26,164.7c0,1.9-0.74,3.53-2.23,4.87c-1.48,1.35-3.28,2.02-5.39,2.02h-8.66c-0.05,0-0.1,0.02-0.13,0.08
				s0.01,0.1,0.13,0.16c7.05,1.9,14.12,4.09,21.17,6.58c1,0.37,1.57,1.03,1.75,1.98c0,0.1,0,0.24,0,0.39c0,0.74-0.35,1.37-1.05,1.9
				c-1.11,0.79-2.39,1.26-3.85,1.43c-0.35,0.05-0.7,0.08-1.05,0.08c-1.05,0-2.07-0.19-3.06-0.56c-5.48-2.06-11.15-3.97-16.97-5.71
				c-1.39-0.42-2.24-1.32-2.53-2.69c0-0.21,0-0.42,0-0.64c0-1.06,0.5-1.9,1.48-2.54c0.05-0.05,0.05-0.15,0-0.28s-0.12-0.2-0.18-0.2
				h-24.32c-0.12,0-0.19,0.06-0.22,0.16c-0.03,0.1,0.01,0.19,0.13,0.24c1.28,0.74,1.89,1.74,1.84,3.02c0,1.53-0.73,2.62-2.19,3.25
				c-5.48,2.32-11.34,4.3-17.58,5.95c-0.7,0.21-1.39,0.31-2.1,0.31c-1.87,0-3.58-0.72-5.16-2.15c-0.47-0.43-0.7-0.93-0.7-1.51
				c0-0.16,0.03-0.35,0.09-0.56c0.18-0.79,0.7-1.3,1.57-1.51c8.16-2.01,14.82-4.28,19.95-6.82c0.12-0.05,0.17-0.13,0.13-0.24
				c-0.03-0.1-0.1-0.16-0.22-0.16h-7.18c-2.1,0-3.88-0.67-5.34-2.02c-1.46-1.35-2.19-2.97-2.19-4.87V143.2
				c0-1.9,0.74-3.51,2.23-4.84c1.48-1.32,3.25-1.98,5.29-1.98h48.9c2.1,0,3.88,0.66,5.34,1.98c1.52,1.32,2.28,2.93,2.28,4.84v21.51
				H1121.26z M1110.15,113.55c2.1,0,3.89,0.67,5.39,2.02c1.5,1.35,2.23,2.97,2.23,4.87v5.15c0,1.9-0.73,3.53-2.19,4.87
				c-1.46,1.35-3.26,2.02-5.43,2.02h-41.37c-2.16,0-3.97-0.67-5.43-2.02c-1.46-1.35-2.19-2.97-2.19-4.87v-5.15
				c0-1.9,0.73-3.53,2.19-4.87c1.46-1.35,3.26-2.02,5.43-2.02H1110.15z M1066.41,141.86c-0.59,0-0.87,0.27-0.87,0.79v3.02
				c0,0.53,0.29,0.79,0.87,0.79h45.23c0.59,0,0.87-0.27,0.87-0.79v-3.02c0-0.53-0.29-0.79-0.87-0.79H1066.41z M1066.41,151.62
				c-0.59,0-0.87,0.27-0.87,0.79v3.1c0,0.53,0.29,0.79,0.87,0.79h45.23c0.59,0,0.87-0.27,0.87-0.79v-3.1c0-0.53-0.29-0.79-0.87-0.79
				H1066.41z M1066.41,161.38c-0.59,0-0.87,0.27-0.87,0.79v3.17c0,0.53,0.29,0.79,0.87,0.79h45.23c0.59,0,0.87-0.27,0.87-0.79v-3.17
				c0-0.53-0.29-0.79-0.87-0.79H1066.41z M1108.05,126.56c0.59,0,0.87-0.27,0.87-0.79v-5.47c0-0.53-0.29-0.79-0.87-0.79h-37.7
				c-0.59,0-0.87,0.27-0.87,0.79v5.47c0,0.53,0.29,0.79,0.87,0.79H1108.05z"/>
		</g>
	</g>
</g>
<g>
	<g>
		<path class="st3" d="M679.74,1008l-0.11-0.01c-2.5-0.27-4.77-1.29-6.76-3.03l-0.09-0.09c-1.75-1.74-2.63-3.93-2.63-6.5
			c0-2.72,0.96-4.98,2.84-6.72c5.14-4.89,9.6-10.88,13.25-17.77c0.2-0.39,0.14-0.55-0.03-0.81c-4.92-7.49-9.11-16.37-12.5-26.43
			c-0.68-2.35-0.55-4.55,0.38-6.63c0.94-2.1,2.45-3.61,4.49-4.49l0.12-0.05c0.87-0.31,1.76-0.47,2.64-0.47c1.23,0,2.45,0.3,3.65,0.9
			c2.03,1.02,3.47,2.65,4.28,4.82c1.56,4.51,3.32,8.69,5.26,12.48c2.52-8.57,4.5-18.06,5.88-28.26h-11.91
			c-0.93,1.77-2.29,3.07-4.03,3.88c-1.14,0.53-2.33,0.8-3.54,0.8c-0.8,0-1.61-0.12-2.41-0.35l-1.33-0.32
			c-2.31-0.62-4.02-2.18-4.98-4.54c-0.53-1.15-0.79-2.27-0.79-3.34c0-1.23,0.34-2.45,1.01-3.63c5.45-11.77,11.49-25.67,17.95-41.32
			h-14.13c-2.46,0-4.53-0.9-6.18-2.67c-1.6-1.73-2.42-3.84-2.42-6.27c0-2.42,0.8-4.54,2.39-6.33c1.65-1.85,3.74-2.79,6.21-2.79
			h24.06c0.81-0.22,1.59-0.34,2.33-0.34c0.93,0,1.81,0.14,2.63,0.43l3.07,0.83c1.92,0.48,3.41,1.78,4.29,3.75
			c0.85,1.91,0.91,3.82,0.2,5.68c-3.88,9.92-9.3,22.85-16.12,38.47h9.96c0.8-0.17,1.61-0.25,2.42-0.25c0.88,0,1.77,0.1,2.65,0.31
			l0.14,0.04l2.09,0.65c1.75,0.35,3.18,1.35,4.25,2.96c1.05,1.59,1.45,3.33,1.18,5.16c-2.1,21.64-6,40.04-11.58,54.7
			c-0.08,0.22-0.08,0.33-0.08,0.36c0.01,0,0.03,0.04,0.09,0.09l0.08,0.07c4.71,4.22,10.32,7.6,16.66,10.05
			c6.42,2.47,12.92,4.14,19.32,4.97c6.48,0.83,14.27,1.25,23.15,1.25c19.66,0,34.18-0.06,43.16-0.17c2.51,0,4.52,1.16,5.83,3.35
			c0.71,1.24,1.07,2.54,1.07,3.91c0,0.91-0.2,1.88-0.59,2.89c-0.96,2.83-2.53,5.1-4.66,6.74c-2.19,1.68-4.68,2.54-7.43,2.54H766.7
			c-15.06,0-28.16-1.33-38.95-3.96c-10.68-2.6-20.15-7.36-28.18-14.14c-3.75,6.61-7.99,12.37-12.63,17.15l-0.07,0.07l-0.07,0.06
			c-1.83,1.55-3.96,2.34-6.32,2.34H679.74z M763.16,985.46c-2.61,0-4.85-0.99-6.65-2.93c-1.76-1.9-2.65-4.21-2.65-6.87v-6.47
			l-32.24,0c-2.25,0-4.17-0.84-5.71-2.51c-1.5-1.61-2.26-3.61-2.26-5.93c0-2.3,0.75-4.32,2.23-5.99c1.52-1.71,3.5-2.62,5.74-2.62
			h32.24v-7.01l-25.48,0c-2.11,0-4-0.84-5.47-2.42c-1.45-1.56-2.18-3.47-2.18-5.68s0.73-4.12,2.18-5.68
			c1.47-1.58,3.36-2.42,5.47-2.42h25.48v-6.34l-24.38,0c-2.15,0-4.01-0.84-5.55-2.51c-1.5-1.61-2.26-3.58-2.26-5.85
			c0-2.26,0.76-4.23,2.26-5.85c1.54-1.66,3.41-2.5,5.55-2.5h24.38v-6.51l-34.44,0c-2.25,0-4.14-0.81-5.63-2.42
			c-1.45-1.56-2.18-3.5-2.18-5.77c0-2.24,0.72-4.2,2.15-5.82c1.47-1.66,3.43-2.54,5.66-2.54h34.44v-6l-23.28,0
			c-2.25,0-4.17-0.84-5.71-2.51c-1.5-1.61-2.26-3.58-2.26-5.85c0-2.28,0.77-4.24,2.29-5.8c1.53-1.58,3.44-2.39,5.67-2.39h23.28
			l0-1.22c0-2.77,0.89-5.14,2.65-7.04c1.8-1.94,4.04-2.93,6.65-2.93c2.61,0,4.85,0.99,6.65,2.93c1.76,1.9,2.65,4.27,2.65,7.04v1.22
			h18.57c4.33,0,8.07,1.67,11.13,4.96c3.01,3.25,4.54,7.21,4.54,11.78v5.8h4.28c2.14,0,4.01,0.84,5.55,2.5
			c1.5,1.62,2.26,3.59,2.26,5.85c0,2.28-0.77,4.23-2.29,5.8c-1.54,1.58-3.4,2.39-5.52,2.39h-4.28l0,6.47
			c0,4.57-1.53,8.53-4.54,11.78c-3.05,3.29-6.79,4.96-11.13,4.96h-18.57v6.34l28.15,0c2.04,0,3.83,0.81,5.31,2.42
			c1.45,1.56,2.18,3.47,2.18,5.68s-0.73,4.12-2.18,5.68c-1.49,1.61-3.28,2.42-5.31,2.42h-28.15v7.01l34.75,0
			c2.23,0,4.21,0.91,5.74,2.62c1.48,1.67,2.23,3.69,2.23,5.99c0,2.32-0.76,4.32-2.26,5.94c-1.54,1.66-3.46,2.51-5.71,2.51h-34.75
			v6.47c0,2.66-0.89,4.97-2.65,6.87C768.01,984.47,765.77,985.46,763.16,985.46z M772.48,968.72L772.48,968.72z M772.48,944.65
			L772.48,944.65z M772.48,929.38L772.48,929.38z M772.48,922.11L772.48,922.11z M788.1,905.86v-6.51l-15.63,0v6.51L788.1,905.86z
			 M772.48,898.89L772.48,898.89z M788.1,882.81v-6l-15.63,0v6L788.1,882.81z"/>
		<path class="st3" d="M839.88,1000.03c-2.66,0-4.95-1.01-6.81-3.01c-1.81-1.95-2.73-4.32-2.73-7.04c0-2.71,0.92-5.08,2.73-7.04
			c1.85-2,4.14-3.01,6.81-3.01h71.14c0.14,0,0.19-0.02,0.19-0.03c0,0,0.06-0.04,0.14-0.22c3.52-10.29,7.09-22.75,10.6-37.05
			c2.91-11.68,5.33-22.75,7.2-32.93c0.63-3.12,2.16-5.58,4.55-7.35c1.79-1.38,3.78-2.09,5.9-2.09c0.75,0,1.47,0.07,2.14,0.21
			c2.99,0.7,5.27,2.39,6.81,5.01c1.11,1.72,1.69,3.68,1.69,5.76c0,0.85-0.13,1.76-0.38,2.71c-5.83,24.72-12.06,46.92-18.51,65.96
			h37.3c2.56,0,4.79,1.01,6.65,3.01c1.81,1.96,2.73,4.33,2.73,7.04c0,2.71-0.92,5.08-2.73,7.04c-1.86,2-4.09,3.01-6.65,3.01H839.88z
			 M878.83,974.95c-1.82,0-3.5-0.6-5.01-1.79c-2.09-1.69-3.34-3.88-3.73-6.54c-0.73-7.45-2.05-15.77-3.91-24.8
			c-1.96-9.92-4.32-19.29-7-27.87c-0.39-1-0.58-2.08-0.58-3.21c0-1.42,0.33-2.84,0.97-4.23c1.24-2.38,3.07-3.91,5.48-4.63
			c0.91-0.28,1.85-0.42,2.78-0.42c1.61,0,3.17,0.44,4.63,1.29c2.3,1.24,3.89,3.24,4.67,5.91c2.92,8.67,5.53,18.09,7.73,27.92
			c1.99,9.05,3.47,17.46,4.42,25.01c0.12,0.57,0.18,1.14,0.18,1.7c0,2.31-0.64,4.45-1.9,6.36c-1.62,2.42-3.81,4.05-6.54,4.87
			C880.2,974.8,879.48,974.95,878.83,974.95z M844.91,895.96c-2.56,0-4.8-1.01-6.65-3.01c-1.81-1.95-2.73-4.32-2.73-7.04
			c0-2.71,0.92-5.08,2.73-7.04c1.85-2,4.09-3.01,6.65-3.01h48.88v-21.39c0-3,0.95-5.53,2.81-7.55c1.9-2.05,4.25-3.1,6.96-3.1
			c2.72,0,5.08,1.07,7.04,3.18c1.83,2.11,2.73,4.61,2.73,7.46v21.39l50.3,0c2.66,0,4.95,1.01,6.81,3.01
			c1.81,1.96,2.73,4.33,2.73,7.04c0,2.71-0.92,5.08-2.73,7.04c-1.85,2-4.14,3.01-6.81,3.01H844.91z M913.35,876.33L913.35,876.33z"
			/>
		<path class="st3" d="M1088.8,1010.88c-2.55,0-4.78-0.98-6.63-2.9c-1.83-1.9-2.76-4.28-2.76-7.06v-30.49
			c-8.24,12.31-18.06,22.31-29.24,29.78c-1.62,1.02-3.3,1.52-5.04,1.52c-0.82,0-1.64-0.14-2.44-0.42c-2.38-0.57-4.46-1.93-6.18-4.05
			l-0.05-0.07l-0.05-0.07c-1.06-1.57-1.6-3.26-1.6-5.02v-1.35l0.03-0.16c0.41-2.49,1.66-4.43,3.71-5.76
			c12.32-7.24,22.6-17.27,30.63-29.88h-20.43c-2.35,0-4.41-0.93-6.1-2.76c-1.65-1.78-2.49-3.95-2.49-6.44c0-2.49,0.84-4.66,2.5-6.44
			c1.7-1.83,3.75-2.76,6.1-2.76h30.67v-8.17c0-2.67,0.93-4.99,2.76-6.9c1.85-1.92,4.08-2.9,6.62-2.9c2.54,0,4.77,0.98,6.62,2.9
			c1.83,1.91,2.76,4.23,2.76,6.9v8.17l31.77,0c2.45,0,4.56,0.93,6.26,2.76c1.66,1.79,2.5,3.96,2.5,6.45c0,2.49-0.84,4.66-2.5,6.44
			c-1.7,1.83-3.8,2.76-6.26,2.76h-21.51c7.3,11.24,16.45,20.73,27.21,28.22c1.96,1.27,3.19,3.29,3.5,5.83
			c0.13,0.47,0.19,0.94,0.19,1.41c0,2.02-0.67,3.92-1.99,5.63c-1.81,2.23-4.02,3.56-6.6,3.97c-0.57,0.12-1.24,0.19-1.89,0.19
			c-1.9,0-3.73-0.65-5.44-1.92c-9.31-7.41-17.77-16.81-25.23-28.02v30.66c0,2.78-0.93,5.16-2.76,7.06
			C1093.57,1009.9,1091.35,1010.88,1088.8,1010.88z M1004.15,1010.88c-2.37,0-4.55-0.85-6.49-2.52c-1.87-1.61-3.19-3.77-3.92-6.4
			c-0.56-2.42-0.22-4.6,1.01-6.59c1.24-2.01,3.07-3.08,5.29-3.08c0.13,0,0.26,0,0.4,0.01h1.82c3.01,0,4.25-0.08,4.76-0.15l0.13-0.02
			h0.14c0.46,0,0.74-0.04,0.91-0.07c0.04-0.17,0.08-0.48,0.08-0.98v-41.14c-5.99,2-7.36,2.49-7.66,2.6l-0.09,0.05l-0.18,0.06
			c-0.92,0.28-1.8,0.43-2.63,0.43c-1.51,0-3.01-0.44-4.47-1.29c-2.16-1.31-3.57-3.32-4.23-5.99l-0.03-0.17
			c-0.12-0.77-0.18-1.5-0.18-2.17c0-1.8,0.45-3.55,1.34-5.19c1.31-2.4,3.25-3.98,5.77-4.7c2.4-0.68,6.5-1.92,12.2-3.71
			c0.09-0.03,0.14-0.06,0.16-0.07c0-0.01,0.01-0.08,0.01-0.22v-29.18l-9.78,0c-2.46,0-4.59-0.96-6.34-2.85
			c-1.71-1.84-2.57-4.09-2.57-6.7c0-2.61,0.88-4.85,2.6-6.64c1.75-1.81,3.87-2.73,6.31-2.73h9.78v-24.27c0-2.54,0.84-4.74,2.5-6.53
			c1.7-1.83,3.8-2.76,6.26-2.76c2.44,0,4.56,0.92,6.31,2.73c1.73,1.8,2.6,4,2.6,6.56v24.27l7.11,0c2.56,0,4.71,0.93,6.41,2.76
			c1.66,1.79,2.5,4.02,2.5,6.62c0,2.59-0.83,4.83-2.47,6.67c-1.7,1.91-3.87,2.87-6.44,2.87h-7.11v23.83l5.52-1.84l0.14-0.03
			c0.76-0.13,1.44-0.2,2.08-0.2c1.57,0,3.02,0.47,4.31,1.39c1.95,1.26,3.18,3.25,3.48,5.7c0.12,0.57,0.18,1.13,0.18,1.69
			c0,2.04-0.51,3.92-1.53,5.58c-1.29,2.35-3.14,3.9-5.5,4.63c-4.43,1.59-7.26,2.59-8.64,3.05c0,0,0,0,0,0
			c-0.01,0-0.04,0.09-0.04,0.31v46.61c0,4.37-0.51,7.75-1.56,10.33c-1.1,2.7-2.84,4.81-5.19,6.28c-3.18,1.91-7.96,2.94-14.65,3.19
			l-0.04,0H1004.15z M1052.05,926.98c-1.24,0-2.48-0.29-3.69-0.88c-2.12-1.07-3.85-2.61-5.19-4.58c-1.18-1.91-1.47-3.9-0.9-5.97
			c0.6-2.19,2.04-3.69,4.17-4.35c6.71-2.42,11.59-5.68,14.43-9.67c2.87-4.05,4.74-9.69,5.53-16.78c0.25-2.58,1.26-4.78,3.01-6.53
			c1.8-1.79,3.96-2.71,6.44-2.71c2.5,0,4.68,1,6.31,2.9c1.37,1.63,2.05,3.54,2.05,5.71c0,9.61-2.7,18.65-8.02,26.85
			c-4.2,6.55-11.29,11.73-21.08,15.36C1054.08,926.76,1053.04,926.98,1052.05,926.98z M1110,924.44c-6.95,0-11.55-1.39-14.06-4.24
			c-2.45-2.77-3.64-7.64-3.64-14.88v-20.85c0-2.56,0.88-4.76,2.6-6.56c1.75-1.81,3.87-2.73,6.31-2.73c2.45,0,4.56,0.93,6.26,2.76
			c1.66,1.79,2.5,3.99,2.5,6.53v20.68c0,1.32,0.12,1.96,0.2,2.23c0.24,0.07,0.79,0.18,1.88,0.18h10.84c0.57,0,0.68-0.18,0.78-0.36
			c0.13-0.22,0.57-1.24,0.83-4.9c0.15-2.24,1.23-4,3.14-5.07c1.11-0.62,2.27-0.94,3.44-0.94c0.72,0,1.45,0.12,2.17,0.36l0.15,0.06
			c2.27,0.95,4.06,2.47,5.32,4.52c1.03,1.67,1.56,3.45,1.56,5.29c0,0.47-0.06,0.99-0.19,1.57c-1.02,6.09-2.66,10.22-5.01,12.62
			c-2.42,2.48-6.05,3.74-10.78,3.74H1110z M1050.72,893.25c-2.3,0-4.3-0.9-5.94-2.67c-1.6-1.73-2.42-3.84-2.42-6.27v-11.02
			c0-4.57,1.53-8.53,4.54-11.78c3.05-3.29,6.79-4.96,11.13-4.96h64.08c4.33,0,8.07,1.67,11.13,4.96c3.01,3.25,4.54,7.21,4.54,11.78
			v9.83c0,2.53-0.83,4.75-2.47,6.58c-1.7,1.91-3.81,2.87-6.28,2.87c-2.47,0-4.56-0.94-6.21-2.79c-1.58-1.78-2.39-4.02-2.39-6.67
			v-8.84l-61.33,0v10.03c0,2.43-0.81,4.54-2.42,6.27C1055.02,892.35,1053.02,893.25,1050.72,893.25z"/>
		<path class="st3" d="M1164.97,1011.05c-2.35,0-4.4-0.93-6.1-2.76c-1.66-1.79-2.5-3.93-2.5-6.36V871.76
			c0-4.57,1.53-8.53,4.54-11.78c3.05-3.29,6.79-4.96,11.13-4.96h20.28c0.43-0.11,0.9-0.17,1.39-0.17c1.27,0,2.48,0.31,3.61,0.92
			l0.07,0.04l3.21,2.08c1.73,1.15,2.99,2.75,3.76,4.78c0.79,2.06,0.86,4.18,0.2,6.31c-5,17.09-9.08,30.18-12.12,38.88
			c-0.11,0.36-0.05,0.68,0.22,1.08c7.94,11.01,11.98,23.09,11.98,35.89c0,11.27-2.36,18.56-7.22,22.27
			c-2.58,1.9-5.72,3.16-9.36,3.77c-1.05,0.13-2.17,0.25-3.45,0.36l-0.09,0.01h-0.4c-2.22,0-4.23-0.88-5.97-2.62
			c-1.72-1.59-2.87-3.66-3.37-6.1c-0.54-2.19-0.21-4.24,1.02-6.02c1.18-1.73,2.88-2.69,4.93-2.81l0.33-0.35h0.87
			c1.44,0,2.52-0.3,3.32-0.93c0.82-0.66,2.22-2.76,2.22-9.44c-0.2-6.76-1.73-13.34-4.53-19.51c-3.14-6.65-4.73-13.1-4.73-19.13
			c0-2.88,0.4-5.75,1.17-8.51c1.62-5.92,3.56-13.39,5.76-22.2h-11.57v128.34c0,2.43-0.84,4.57-2.49,6.36
			C1169.37,1010.12,1167.32,1011.05,1164.97,1011.05z M1205.27,1008.34l-0.06,0c-2.38-0.14-4.51-1.14-6.32-2.96
			c-1.55-1.67-2.31-3.67-2.31-5.99c0-2.61,0.91-4.76,2.69-6.39c7.97-7.51,14.03-17.22,17.99-28.83c0.89-2.48,2.32-4.35,4.26-5.61
			c1.6-1.01,3.28-1.51,5.01-1.51h1.51l0.24,0.06c2.31,0.59,4.11,1.96,5.32,4.08c1.22,2.12,1.49,4.38,0.82,6.72l-0.04,0.12
			l-1.57,4.41c-0.01,0.03-0.02,0.06-0.03,0.08c3.79,3.31,7.17,6.66,10.02,9.97c1.45,1.57,2.21,3.57,2.21,5.88
			c0,2.54-0.87,4.77-2.57,6.61c-1.42,1.54-3.26,2.35-5.3,2.35c-0.18,0-0.36-0.01-0.54-0.02c-2.23-0.15-4.15-1.18-5.53-2.98
			c-1.59-1.91-3.46-4.03-5.51-6.27c-3.87,6.68-8.44,12.66-13.64,17.83c-1.8,1.64-3.79,2.45-5.96,2.45H1205.27z M1251.23,1008
			l-0.12-0.01c-2.33-0.28-4.42-1.33-6.2-3.11c-1.55-1.67-2.31-3.61-2.31-5.82c0-2.44,0.87-4.6,2.58-6.45
			c7.3-7.23,12.52-16.73,15.55-28.3c0.63-2.46,1.93-4.42,3.86-5.83c1.6-1.28,3.39-1.94,5.3-1.94c0.45,0,0.94,0.07,1.49,0.2
			c2.31,0.33,4.23,1.64,5.56,3.79c0.92,1.42,1.4,2.99,1.4,4.61c0,0.67-0.06,1.36-0.19,2.05l-0.02,0.08l-0.02,0.08
			c-0.54,1.97-1.13,3.94-1.76,5.86c-0.08,0.26-0.06,0.32,0.04,0.42c7.44,6.11,13.98,12.08,19.44,17.74c1.74,1.88,2.6,4.04,2.6,6.47
			c0,2.68-0.94,4.98-2.78,6.84c-1.59,1.72-3.57,2.62-5.81,2.62h-0.38l-0.06,0c-2.3-0.15-4.28-1.1-5.89-2.84
			c-4.18-4.72-8.98-9.6-14.31-14.54c-3.33,6.14-7.21,11.44-11.54,15.78l-0.08,0.08c-1.63,1.46-3.51,2.21-5.58,2.21H1251.23z
			 M1266.74,956.3c-4.33,0-8.08-1.67-11.13-4.96c-3.01-3.25-4.54-7.21-4.54-11.78v-12.54c0-4.69,1.53-8.69,4.55-11.88
			c3.05-3.23,6.79-4.86,11.11-4.86h10.21c4.32,0,8.06,1.64,11.11,4.86c3.02,3.2,4.55,7.2,4.55,11.88v12.54
			c0,4.57-1.56,8.54-4.63,11.8c-3.11,3.28-6.82,4.95-11.03,4.95H1266.74z M1276.67,941.12v-16.17l-10.29,0v16.17L1276.67,941.12z
			 M1222.14,956.3c-4.33,0-8.08-1.67-11.13-4.96c-3.01-3.25-4.54-7.21-4.54-11.78v-12.54c0-4.69,1.53-8.69,4.55-11.88
			c3.05-3.23,6.79-4.86,11.11-4.86h9.11c4.32,0,8.06,1.64,11.11,4.86c3.02,3.2,4.55,7.2,4.55,11.88v12.54
			c0,4.57-1.53,8.53-4.54,11.78c-3.05,3.29-6.79,4.96-11.13,4.96H1222.14z M1231.29,941.12v-16.17l-9.82,0v16.17L1231.29,941.12z
			 M1207.22,906.3c-0.97,0-1.88-0.15-2.72-0.46c-2.33-0.84-4.17-2.39-5.45-4.61l-0.05-0.1c-0.77-1.52-1.16-3.13-1.16-4.8
			c0-0.67,0.06-1.4,0.18-2.17l0.02-0.1l0.02-0.09c0.65-2.53,1.99-4.46,3.99-5.76c6.45-4.09,12.65-9.1,18.44-14.9
			c5.79-5.81,10.75-11.89,14.73-18.06c3.23-4.78,7.46-7.19,12.6-7.19c5.11,0,9.38,2.33,12.69,6.93
			c9.83,13.26,21.47,23.92,34.57,31.65c2.22,1.27,3.7,3.27,4.37,5.94c0.26,0.85,0.38,1.71,0.38,2.57c0,1.71-0.46,3.36-1.38,4.91
			c-1.39,2.45-3.4,4.12-5.98,4.96c-0.77,0.28-1.69,0.44-2.66,0.44c-1.77,0-3.42-0.52-4.9-1.54c-3.45-2.38-7.12-5.16-10.96-8.28
			c-0.42,1.42-1.16,2.73-2.2,3.9c-1.8,2.02-4.07,3.04-6.75,3.04h-32.82c-2.56,0-4.77-0.99-6.57-2.93c-1.03-1.11-1.76-2.36-2.19-3.74
			c-3.77,3.24-7.72,6.27-11.78,9.04C1210.23,905.85,1208.75,906.3,1207.22,906.3z M1263.44,886.2c-6.12-5.97-11.2-11.96-15.14-17.86
			c-3.87,5.94-8.74,11.93-14.52,17.86H1263.44z"/>
		<path class="st3" d="M1325.79,1011.05c-2.35,0-4.4-0.93-6.1-2.76c-1.66-1.79-2.5-3.93-2.5-6.36V871.76
			c0-4.57,1.53-8.53,4.54-11.78c3.05-3.29,6.79-4.96,11.13-4.96h21.76c0.52-0.11,1.04-0.17,1.55-0.17c1.22,0,2.38,0.32,3.46,0.95
			l3.21,2.08c1.73,1.15,2.99,2.75,3.76,4.77c0.79,2.06,0.86,4.18,0.2,6.31c-5.32,16.88-9.66,29.97-12.91,38.91
			c-0.19,0.46-0.16,0.71,0.08,1.06c2.95,3.83,5.4,7.8,7.33,11.89c-0.14-0.88-0.12-1.81,0.05-2.78c0.42-2.42,1.77-4.27,3.9-5.34
			c10.13-5.37,19.18-11.67,26.94-18.76h-20.54c-2.35,0-4.38-0.9-6.02-2.67c-1.6-1.73-2.42-3.84-2.42-6.27
			c0-2.43,0.81-4.54,2.42-6.28c1.64-1.77,3.67-2.67,6.02-2.67h11.49c-1.3-4.32-3.18-9.08-5.6-14.08c-1.07-2.01-1.24-4.2-0.48-6.43
			c0.76-2.25,2.3-3.86,4.43-4.63c1.16-0.42,2.31-0.63,3.43-0.63s2.27,0.21,3.42,0.63c2.28,0.87,4.01,2.44,5.18,4.68
			c2.66,5.05,4.81,9.99,6.4,14.69c0.58,1.89,0.44,3.74-0.39,5.55c-0.03,0.07-0.07,0.14-0.1,0.21h22.5
			c-0.06-0.14-0.12-0.29-0.18-0.44c-0.72-1.94-0.57-3.94,0.43-5.8c2.23-4.5,4.16-8.93,5.69-13.12c1.04-2.54,2.72-4.41,5.01-5.65
			c1.39-0.82,2.9-1.26,4.41-1.26c0.92,0,1.86,0.14,2.79,0.43c2.45,0.74,4.25,2.37,5.33,4.84l0.06,0.14
			c0.39,1.11,0.58,2.24,0.58,3.37c0,1.34-0.34,2.62-1.01,3.81c-2.48,5.26-4.8,9.85-6.92,13.69h14.09c2.35,0,4.38,0.9,6.02,2.67
			c1.6,1.73,2.42,3.84,2.42,6.28s-0.81,4.54-2.42,6.27c-1.65,1.78-3.67,2.67-6.02,2.67h-26.03c1.54,8.85,3.51,17.57,5.86,25.97
			c4.63-4.46,8.79-8.78,12.38-12.85c1.6-1.87,3.6-2.9,5.93-3.05l0.44,0c2.35,0,4.38,0.9,6.02,2.67c1.69,1.68,2.58,3.87,2.58,6.44
			c0,2.58-0.94,4.82-2.78,6.67c-5.58,5.45-11.96,11.14-18.99,16.91c-0.05,0.04-0.08,0.07-0.1,0.09c0.01,0.02,0.03,0.07,0.05,0.14
			c5.56,14.77,12.34,26.47,20.18,34.82c1.91,1.93,2.9,4.34,2.9,7.13c0,2.52-0.85,4.78-2.52,6.73c-1.66,2.06-3.8,3.28-6.32,3.56
			l-0.11,0.01h-0.9c-2.25,0-4.22-0.9-5.86-2.67c-7.87-8.83-14.65-20.55-20.32-35.09c0.71,3.39,1.21,6.73,1.48,10
			c0.21,3.12,0.32,6.13,0.32,8.98c0,5.53-0.49,10.85-1.45,15.8c-1.42,7.67-3.98,13.38-7.59,16.94c-4.44,4.89-10.39,7.49-17.71,7.73
			c-0.01,0-0.03,0-0.04,0c-1.31,0-2.7-0.06-4.19-0.17c-2.53-0.02-4.74-1.04-6.57-3.01c-1.7-1.83-2.86-4.08-3.47-6.67
			c-0.55-2.08-0.18-4.17,1.09-6c1.57-2.26,3.54-2.74,4.92-2.74c0.16,0,0.32,0.01,0.48,0.02c1.79,0.11,3.5,0.16,5.03,0.16
			c3.07,0,5.29-1.14,6.8-3.49l0.08-0.13l0.1-0.11c1.62-1.85,2.84-5.16,3.61-9.85c0.51-2.73,0.76-5.75,0.76-9
			c0-1.73-0.05-3.51-0.14-5.31c-11.45,11.84-24.01,21.83-37.35,29.74l-0.1,0.06l-0.1,0.05c-1.51,0.68-3.05,1.02-4.59,1.02
			c-0.85,0-1.66-0.07-2.4-0.2l-0.11-0.02l-0.11-0.03c-2.27-0.68-4.24-2.04-5.86-4.05c-1.41-1.82-1.92-3.95-1.5-6.19
			c0.42-2.28,1.7-4.05,3.69-5.12c8.19-3.92,16.33-9.06,24.29-15.32c7.93-6.24,14.54-12.69,19.65-19.19
			c0.29-0.44,0.28-0.76,0.17-1.11c-0.62-1.9-1.45-4.07-2.47-6.43c-6.7,6.27-14.02,12.26-21.78,17.81c-1.93,1.25-3.89,1.93-5.9,2.06
			l-0.13,0c-0.94,0-1.88-0.14-2.79-0.43c-1.76-0.49-3.37-1.34-4.81-2.53c-1.13,5.82-3.35,9.99-6.6,12.4c-2.78,2-6.01,3.25-9.64,3.75
			c-1.17,0.25-2.52,0.37-4.11,0.37h-0.31c-2.22,0-4.22-0.88-5.97-2.62c-1.7-1.57-2.9-3.67-3.52-6.2c-0.44-2.18-0.08-4.13,1.05-5.88
			c1.21-1.87,2.98-2.86,5.14-2.86c0.25,0,0.5-0.06,0.77-0.17l0.38-0.17h0.42c1.45,0,2.66-0.37,3.67-1.13
			c0.82-0.61,2.18-2.6,2.18-9.25c0-6.66-1.62-13.25-4.81-19.61c-3.27-6.46-4.92-12.75-4.92-18.69c0-3,0.39-5.92,1.17-8.68
			c1.92-6.43,4-13.94,6.22-22.37h-12.66v128.34c0,2.43-0.84,4.57-2.49,6.36C1330.19,1010.12,1328.14,1011.05,1325.79,1011.05z
			 M1362.83,924.33c2.4,6.08,3.71,12.4,3.89,18.92c9.93-5.48,18.86-12.07,26.56-19.63l-0.01-0.02c-1.26-1.78-2.68-3.53-4.22-5.21
			c-4.06,3.03-8.46,6-13.04,8.81c-1.4,0.88-2.87,1.33-4.34,1.33c-0.19,0-0.37-0.01-0.56-0.02H1369l-0.28-0.08
			c-2.27-0.68-4.24-2.04-5.85-4.05C1362.85,924.35,1362.84,924.34,1362.83,924.33z M1402.12,907.61
			c6.48,6.66,11.79,14.55,15.81,23.49c-2.73-9.82-5.07-20.57-7.03-32.24C1408.23,901.8,1405.28,904.74,1402.12,907.61z"/>
	</g>
</g>
<path class="st4" d="M585.15,1017.89h-74.22c-28.48,0-51.56-23.09-51.56-51.56V892.1c0-28.48,23.09-51.56,51.56-51.56h74.22
	c28.48,0,51.56,23.09,51.56,51.56v74.22C636.71,994.8,613.62,1017.89,585.15,1017.89z"/>
<rect x="936.18" y="957.89" class="st5" width="502.82" height="5.63"/>
</svg>
