<?xml version="1.0" encoding="utf-8"?>
<!-- Generator: Adobe Illustrator 23.0.5, SVG Export Plug-In . SVG Version: 6.00 Build 0)  -->
<svg version="1.1" id="圖層_1" xmlns="http://www.w3.org/2000/svg" xmlns:xlink="http://www.w3.org/1999/xlink" x="0px" y="0px"
	 viewBox="0 0 1920 1080" style="enable-background:new 0 0 1920 1080;" xml:space="preserve">
<style type="text/css">
	.st0{fill:#D7B993;stroke:#050505;stroke-miterlimit:10;}
	.st1{fill:#412A1C;}
	.st2{enable-background:new    ;}
	.st3{fill:#603813;}
	.st4{fill:#FFFFFF;stroke:#000000;stroke-width:3;stroke-miterlimit:10;}
	.st5{fill:#FFFFFF;stroke:#000000;stroke-width:6;stroke-miterlimit:10;}
	.st6{fill:none;}
</style>
<g>
	<path class="st0" d="M1223.53,30.28l-20.7,36.22l-20.54-35.93c-50.01,0.32-100.02,0.53-150.03,0.64L998.29,82.5l-33.9-51.19
		c-67.09,0.04-134.18-0.1-201.27-0.43l-28.89,83.62l-29-83.94c-68.25-0.43-136.51-1.04-204.76-1.85L472.71,68l-28.26-40
		c-12.66-0.17-25.32-0.32-37.98-0.5c-76.66-1.1-153.32-2.43-229.97-4v940H1711c0-313.33,0-626.67,0-940
		C1548.49,26.82,1386,29.08,1223.53,30.28z"/>
	<path class="st0" d="M247,972c-17.7-4.4-40.05-8.3-66-9c-19.67-0.53-37.2,0.88-52,3c-7.33-315-14.67-630-22-945
		c11.17-3.36,27.8-6.92,48-6c14.06,0.64,25.94,3.26,35,6C209,338,228,655,247,972z"/>
	<path class="st0" d="M1813,19.85c-17.7,4.4-40.05,8.3-66,9c-19.67,0.53-37.2-0.88-52-3c0.17,317.88,0.33,635.76,0.5,953.65
		c8.81,4.68,30.53,14.68,59,12c19.88-1.87,34.75-9.14,43-14C1802.67,658.28,1807.83,339.07,1813,19.85z"/>
	<path class="st1" d="M243.5,986c-27,2.67-54,5.33-81,8c-1.33-6.33-2.67-12.67-4-19c-9.33-3-18.67-6-28-9
		c14.42-2.08,31.43-3.47,50.5-3c25.99,0.64,48.35,4.57,66,9C245.83,976.67,244.67,981.33,243.5,986z"/>
	<path class="st1" d="M1699,4c27.33-4.03,54.67-8.06,82-12.09c1.33,6.33,2.67,12.67,4,19c9.33,3,18.67,6,28,9
		c-15.72,3.64-34.58,6.81-56,8.09c-23.75,1.42-44.74,0.15-62-2C1696.33,18.67,1697.67,11.33,1699,4z"/>
</g>
<g class="st2">
	<path class="st3" d="M547.19,357.85c0,5.33-0.4,12.45-1.21,21.37c-2.07,23.36-6.05,41.35-11.93,53.95
		c-5.15,11.07-10.94,16.6-17.38,16.6c-8.71,0-15.29-9.74-19.73-29.21c-4.03-17.62-6.04-41.76-6.04-72.4
		c0-24.49,1.38-50.26,4.14-77.32c1.93-18.65,3.89-33.3,5.89-43.96c-6.98,3.28-13.22,14.09-18.74,32.43
		c-0.29,1.33-0.49,1.23-0.59-0.31c-0.51-13.73-1.18-36.07-2.01-67.02c0.02-0.61,0.17-1.13,0.44-1.54
		c19.32,6.87,39.44,10.3,60.35,10.3c0.41,0,0.56,1.08,0.44,3.23c-2.56,42.32-4.14,76.19-4.72,101.6c-1.76-1.13-4.03-3.02-6.81-5.69
		c-1.32-1.84-1.98-4.66-1.98-8.45c0-2.05,0.19-6.63,0.57-13.76c0.38-7.12,0.57-12.42,0.57-15.91c0-5.02-0.38-8.56-1.13-10.61
		c-4.37-12.09-7.83-18.91-10.39-20.44c-4.42,34.95-6.62,73.63-6.62,116.05c0,23.57,0.84,42.94,2.53,58.1
		c1.81,16.5,4.29,24.75,7.47,24.75c2.37,0,4.96-3.94,7.8-11.84c2.63-7.48,3.95-13.53,3.95-18.14c0-1.84-0.15-2.77-0.44-2.77
		c-3.68-2.36-6.84-7.43-9.48-15.22c-3.12-9.12-4.68-20.19-4.68-33.2c0-6.97,1.1-12.71,3.31-17.22c2.21-4.51,5.2-6.76,8.99-6.76
		c1.68,0,3.66,0.61,5.93,1.84C543.34,330.64,547.19,341.15,547.19,357.85z"/>
	<path class="st3" d="M585.03,433.48c-4.95-3.79-10.22-5.69-15.81-5.69c-5.39,0-12.93,3.74-22.62,11.22
		c0.37-7.58,0.78-16.39,1.24-26.44c3.9-1.95,6.45-5.87,7.63-11.76c1.18-5.89,2.18-16.83,2.98-32.82
		c0.78-15.16,1.17-29.97,1.17-44.42c0-15.37-1.55-23.06-4.65-23.06c-0.98,0-1.9,0.46-2.78,1.38c-1.34-12.4-2.01-21.26-2.01-26.59
		c10-0.31,19.35-7.22,28.03-20.75c0.1,0.31,0.15,1.18,0.15,2.61c0,2.25-0.12,6.35-0.37,12.3c-1.56,36.28-2.34,66.46-2.34,90.54
		c0,16.7,0.48,27.62,1.43,32.74c0.59,3.18,1.41,4.77,2.49,4.77c1.22,0,2.61-1.38,4.17-4.15c0.44-0.72,0.7,0.15,0.77,2.61
		C584.78,404.89,584.96,417.39,585.03,433.48z M584.74,215.51c0,6.87-1.88,12.71-5.64,17.52c-3.32,4.3-6.83,6.46-10.54,6.46
		c-3.46,0-6.31-2.71-8.53-8.15c-2.56-6.35-3.84-15.47-3.84-27.36c0-15.37,4.22-23.06,12.66-23.06c4.68,0,8.55,3.64,11.6,10.91
		C583.31,198.6,584.74,206.5,584.74,215.51z"/>
	<path class="st3" d="M643.11,321.73c0,14.35-3.1,24.9-9.3,31.66c-3.59,4-6.83,5.99-9.73,5.99c-5.29,0-7.94-6.04-7.94-18.14
		c0-13.73,1.37-25.36,4.1-34.89c2.17-7.58,4.93-13.07,8.27-16.45c0.29-0.31,0.44-1.18,0.44-2.61c0-2.36-0.61-4.87-1.83-7.53
		c-1.39-2.97-3-4.46-4.83-4.46c-3.32,0-6.23,3.9-8.75,11.68c-3.1,9.63-4.65,23.26-4.65,40.89c0,14.55,1.1,36.74,3.29,66.56
		c0.2,2.56,1.46,4.87,3.81,6.92c2.59,2.15,5.86,3.79,9.81,4.92c-0.34,6.46-0.76,14.24-1.24,23.36c-0.95-0.2-2.35-0.31-4.21-0.31
		c-11.22,0-22.31,5.89-33.27,17.68c-0.73-4.61-1.34-11.89-1.83-21.83c-0.05-1.13,0.09-1.95,0.4-2.46c2.93-5.12,4.42-7.69,4.46-7.69
		c1.29-2.87,1.98-6.3,2.05-10.3c0.32-10.76,0.63-21.47,0.95-32.13c0.56-20.7,0.84-36.74,0.84-48.11c0-12.3-0.33-19.42-0.99-21.37
		c-0.81-2.56-1.98-3.84-3.51-3.84c-0.56,0-1.56,0.51-3,1.54c-0.39,0.31-0.59,0.1-0.59-0.61c0-1.54-0.15-7.09-0.46-16.68
		c-0.31-9.58-0.46-14.93-0.46-16.06c0-1.43,0.21-1.95,0.62-1.54c2.07,2.36,4.17,3.54,6.29,3.54c5.17,0,10.56-7.89,16.18-23.67
		c-0.32,8.1-0.72,18.6-1.21,31.51c3.9-15.37,9.33-23.06,16.29-23.06c9.44,0,15.66,14.91,18.67,44.73
		C642.67,308,643.11,315.58,643.11,321.73z"/>
	<path class="st3" d="M705.18,430.56c-1.15-3.38-3.01-5.07-5.6-5.07c-3.12,0-6.65,2.15-10.58,6.46c-3.93,4.3-7,9.32-9.22,15.06
		c0.85-17.22,1.28-28.69,1.28-34.43c0-1.74-0.07-2.56-0.22-2.46c-0.1,0.1-0.26,0.51-0.48,1.23c-4.1,14.14-8.99,22.75-14.68,25.82
		c-2.71,1.43-5,2.15-6.88,2.15c-5.56,0-9.55-4.97-11.97-14.91c-2.17-8.92-3.26-22.6-3.26-41.04c0-9.63,0.22-20.24,0.66-31.82
		c0.9-22.95,2.85-41.91,5.86-56.87c3.61-17.73,8.23-26.59,13.87-26.59c6.1,0,12.04,11.79,17.82,35.35c0-5.12-0.34-12.35-1.02-21.67
		c-0.76-9.94-1.61-18.03-2.56-24.29c12-7.69,20.3-15.06,24.89-22.13c0.44,6.46,0.66,12.96,0.66,19.52c0,5.33-0.15,8.61-0.44,9.84
		c-3.59,5.13-5.38,9.74-5.38,13.83v0.31c0,3.38,0.04,8.71,0.11,15.99c0.07,7.28,0.11,12.86,0.11,16.75c0,32.89-1,60.05-3,81.47
		c1.61-4.2,3.53-6.3,5.75-6.3c1.17,0,2.26,0.56,3.26,1.69L705.18,430.56z M683.92,344.63c0-4.3-1.02-7.89-3.07-10.76
		c-2.17-3.07-5-4.61-8.49-4.61c-4.56,0-8.95,3.59-13.18,10.76c-4.1,7.07-6.15,14.19-6.15,21.37c0,5.74,1.45,10.35,4.35,13.83
		c2.61,3.07,5.71,4.61,9.3,4.61c4.07,0,8.01-4.1,11.82-12.3C682.11,359.64,683.92,352.01,683.92,344.63z"/>
	<path class="st3" d="M768.2,299.59c0,16.81-3.06,28.13-9.19,33.97c-2.66,2.56-5.11,3.84-7.36,3.84c-5.95,0-8.93-6.81-8.93-20.44
		c0-10.45,1.33-19.57,3.99-27.36c0.9-2.77,2.1-5.38,3.59-7.84c2.02-3.38,3.24-5.53,3.66-6.46c0.56-1.13,0.84-2.36,0.84-3.69
		c0-2.15-0.76-3.23-2.27-3.23c-0.95,0-2.03,0.56-3.22,1.69c-4.29,3.79-8.2,15.17-11.71,34.12c-2.34,12.71-3.98,24.9-4.9,36.58
		c1.1-0.41,1.94-0.61,2.53-0.61c7.34,0,14.33,7.99,20.97,23.98c7.51,17.93,11.44,40.17,11.78,66.71l-26.53-0.61
		c-0.2-2.05-0.29-4.77-0.29-8.15c0-4.4,0.26-6.92,0.77-7.53c2.1-2.56,3.32-4.2,3.66-4.92c1.29-2.36,1.94-5.33,1.94-8.92
		c0-1.02-0.07-2.31-0.22-3.84c-1.12-11.58-3.55-20.29-7.28-26.13c-2.88-4.61-6.03-6.92-9.44-6.92h-1.32
		c0,5.23,0.89,18.45,2.67,39.66c1.56,18.86,2.79,32.18,3.7,39.96c-3.12-6.35-6.82-11.79-11.09-16.29c-4.42-4.61-8.2-6.92-11.35-6.92
		c-2.73,0-4.58,1.84-5.53,5.53l0.22-36.12c0.78-1.23,1.71-1.84,2.78-1.84c1.83,0,3.72,2,5.67,5.99c-1.71-19.88-3.12-46.78-4.25-80.7
		c-1.05-31.05-1.57-58.51-1.57-82.39c0-0.61,0.01-2,0.04-4.15c0.02-2.15,0.04-3.94,0.04-5.38c0-4.51-0.67-8.25-1.99-11.22
		c-1.33-2.97-2.92-4.66-4.78-5.07c-0.39-0.1-0.59-5.58-0.59-16.45c10.1-2.15,20.21-5.69,30.34-10.61
		c-4.25,44.68-6.37,88.33-6.37,130.96c0,10.66,0.12,19.78,0.37,27.36c1.19-15.37,2.68-28.79,4.46-40.27
		c4.27-27.56,9.64-43.35,16.1-47.34c1.73-1.02,3.26-1.54,4.57-1.54c4.12,0,7.45,4.1,9.99,12.3c1.61,5.13,3.07,12.91,4.39,23.36
		C767.84,288.63,768.2,294.27,768.2,299.59z"/>
	<path class="st3" d="M860.29,261.17c0,9.43-0.18,14.71-0.55,15.83c-2-1.74-3.75-2.61-5.23-2.61c-1.98,0-3.05,1.9-3.22,5.69
		c-0.51,10.35-1.01,25.62-1.5,45.81c-0.56,22.34-0.84,40.58-0.84,54.72v6.61c1.37-2.77,2.89-4.15,4.57-4.15
		c1.49,0,2.87,0.92,4.14,2.77l0.51,25.21h-0.81c-3.05,0-7.19,4.56-12.41,13.68c-3.95,6.86-7.75,14.81-11.38,23.83
		c-0.54,1.33-0.83,1.95-0.88,1.84c-0.15-0.21-0.12-2,0.07-5.38c0.95-16.19,1.6-32.13,1.94-47.8c-3.39,16.5-7.11,28.74-11.16,36.74
		c-3.15,6.15-6.15,9.22-9,9.22c-3.51,0-6.39-3.48-8.64-10.45c-2.49-7.79-3.73-18.7-3.73-32.74c0-22.65,1.85-45.34,5.56-68.09
		c2.59-15.78,5.73-29.87,9.44-42.27c-0.34,0-0.88-0.05-1.61-0.15c-0.73-0.1-1.27-0.15-1.61-0.15c-4.27,0-8.65,0.72-13.14,2.15
		c0.29-2.36,1.27-10.66,2.93-24.9c6,1.95,11.3,2.92,15.88,2.92c2.12,0,6.62-0.46,13.5-1.38c-3.12,16.19-5.78,34.38-7.98,54.57
		c-2.32,21.32-3.48,39.04-3.48,53.18c0,8.2,0.45,14.81,1.35,19.83c0.83,4.61,1.85,6.92,3.07,6.92c2.29,0,4.83-13.99,7.61-41.96
		c2.93-29.61,4.73-62.46,5.42-98.53c0.17-8.92,0.27-15.52,0.29-19.83C841.62,244.51,848.58,250.82,860.29,261.17z"/>
	<path class="st3" d="M946.77,320.34c0,29.62-4.43,58.92-13.29,87.92l9.99,6.61c0.51,2.87,1.21,7.38,2.09,13.53
		c-1.9-0.41-5.45-0.62-10.65-0.62c-4.81,0-10.03,0.21-15.66,0.62c1.78-8.71,3.67-23.06,5.67-43.04c2.17-21.72,3.26-38.79,3.26-51.19
		c0-10.45-0.85-15.68-2.56-15.68c-2.78,0-5.75,9.84-8.89,29.51c-2.56,15.99-4.64,34.07-6.22,54.26c0,20.39,0.32,33.2,0.95,38.43
		c1,1.64,2.66,3.54,4.98,5.69c-0.27,1.95-0.74,6.97-1.43,15.06l-19.95-19.21c2.34-19.26,3.51-43.91,3.51-73.94
		c0-13.63-0.06-22.23-0.18-25.82c-0.42-12.4-1.43-18.6-3.04-18.6c-0.61,0-1.4,1.03-2.38,3.07c-4.05,8.51-7,28.13-8.86,58.87
		c0.05,9.74,1.17,28.23,3.37,55.49c-5.27-10.15-10.99-15.22-17.17-15.22c-4.03,0-6.8,2.77-8.31,8.3l0.15-35.66
		c0.78-1.23,1.73-1.84,2.85-1.84c1.85,0,3.67,1.69,5.45,5.07c-2.05-20.7-3.89-56.51-5.53-107.44c-0.24-6.86-1.17-10.91-2.78-12.14
		c-1.49-0.31-2.96-0.67-4.43-1.08c-0.9-0.51-1.35-6.76-1.35-18.75h0.77c2.78,0,12.57-1.9,29.35-5.69
		c-2.59,22.13-3.88,46.88-3.88,74.24c0,5.94,0.07,10.97,0.22,15.06c2.9-40.17,8.45-71.01,16.65-92.53c2.15-5.63,4.01-8.45,5.6-8.45
		c4.56,0,6.84,21.42,6.84,64.25c0,12.6-0.16,23.93-0.48,33.97c2.32-16.7,4.89-31,7.72-42.89c4.9-20.29,9.98-30.43,15.23-30.43
		c3.56,0,6.51,4.69,8.86,14.06S946.77,305.59,946.77,320.34z"/>
	<path class="st3" d="M1005.44,326.34c0,3.9-0.1,8.2-0.29,12.91c-1.05,24.9-3.07,45.65-6.08,62.25
		c-3.46,19.16-7.64,28.74-12.52,28.74c-6,0-10.98-4.92-14.93-14.76c-0.02,0.31-0.04,0.77-0.04,1.38c0,4.2,0.62,13.58,1.87,28.13
		c-5.54-11.07-10.97-16.6-16.29-16.6c-3.32,0-5.71,2.61-7.17,7.84l0.22-35.81c0.78-1.54,1.71-2.31,2.78-2.31c1.78,0,3.65,2,5.6,5.99
		c-3.29-50.72-4.94-114-4.94-189.83c0-7.99-1.07-12.81-3.22-14.45c-0.78-0.51-1.93-1.43-3.44-2.77c-0.61-0.82-0.92-5.02-0.92-12.6
		c0-1.54,0.02-3.07,0.07-4.61s0.07-2.41,0.07-2.61c1.34,1.54,11.47,5.48,30.38,11.84c-4.15,38.53-6.6,78.55-7.36,120.05
		c0.95-5.02,1.9-10.04,2.86-15.06c1.46-7.17,3.1-12.91,4.9-17.22c2.39-5.84,5.2-9.68,8.42-11.53c1.51-0.82,3.01-1.23,4.5-1.23
		c5.78,0,9.99,7.33,12.63,21.98C1004.47,296.83,1005.44,310.25,1005.44,326.34z M997.13,354.01c0-6.46-1.73-12.4-5.2-17.83
		c-3.37-5.23-6.9-7.84-10.61-7.84c-3.68,0-7,1.97-9.94,5.92c-2.94,3.95-4.41,8.48-4.41,13.6c0,5.84,1.73,11.97,5.2,18.37
		c3.46,6.41,6.71,9.61,9.73,9.61c3.54,0,6.84-1.84,9.92-5.53C995.36,366,997.13,360.57,997.13,354.01z"/>
	<path class="st3" d="M1065.09,321.73c0,14.35-3.1,24.9-9.3,31.66c-3.59,4-6.83,5.99-9.74,5.99c-5.29,0-7.94-6.04-7.94-18.14
		c0-13.73,1.37-25.36,4.1-34.89c2.17-7.58,4.93-13.07,8.27-16.45c0.29-0.31,0.44-1.18,0.44-2.61c0-2.36-0.61-4.87-1.83-7.53
		c-1.39-2.97-3-4.46-4.83-4.46c-3.32,0-6.23,3.9-8.75,11.68c-3.1,9.63-4.65,23.26-4.65,40.89c0,14.55,1.1,36.74,3.29,66.56
		c0.19,2.56,1.46,4.87,3.81,6.92c2.59,2.15,5.86,3.79,9.81,4.92c-0.34,6.46-0.76,14.24-1.24,23.36c-0.95-0.2-2.35-0.31-4.21-0.31
		c-11.22,0-22.31,5.89-33.27,17.68c-0.73-4.61-1.34-11.89-1.83-21.83c-0.05-1.13,0.08-1.95,0.4-2.46c2.93-5.12,4.42-7.69,4.46-7.69
		c1.29-2.87,1.98-6.3,2.05-10.3c0.32-10.76,0.63-21.47,0.95-32.13c0.56-20.7,0.84-36.74,0.84-48.11c0-12.3-0.33-19.42-0.99-21.37
		c-0.8-2.56-1.98-3.84-3.51-3.84c-0.56,0-1.56,0.51-3,1.54c-0.39,0.31-0.58,0.1-0.58-0.61c0-1.54-0.15-7.09-0.46-16.68
		c-0.3-9.58-0.46-14.93-0.46-16.06c0-1.43,0.21-1.95,0.62-1.54c2.07,2.36,4.17,3.54,6.29,3.54c5.17,0,10.56-7.89,16.18-23.67
		c-0.32,8.1-0.72,18.6-1.21,31.51c3.9-15.37,9.33-23.06,16.29-23.06c9.44,0,15.67,14.91,18.67,44.73
		C1064.65,308,1065.09,315.58,1065.09,321.73z"/>
	<path class="st3" d="M1127.17,430.56c-1.15-3.38-3.01-5.07-5.6-5.07c-3.12,0-6.65,2.15-10.58,6.46c-3.93,4.3-7,9.32-9.22,15.06
		c0.85-17.22,1.28-28.69,1.28-34.43c0-1.74-0.07-2.56-0.22-2.46c-0.1,0.1-0.26,0.51-0.48,1.23c-4.1,14.14-8.99,22.75-14.68,25.82
		c-2.71,1.43-5,2.15-6.88,2.15c-5.56,0-9.55-4.97-11.97-14.91c-2.17-8.92-3.26-22.6-3.26-41.04c0-9.63,0.22-20.24,0.66-31.82
		c0.9-22.95,2.86-41.91,5.86-56.87c3.61-17.73,8.23-26.59,13.87-26.59c6.1,0,12.04,11.79,17.82,35.35c0-5.12-0.34-12.35-1.03-21.67
		c-0.76-9.94-1.61-18.03-2.56-24.29c12-7.69,20.3-15.06,24.89-22.13c0.44,6.46,0.66,12.96,0.66,19.52c0,5.33-0.15,8.61-0.44,9.84
		c-3.59,5.13-5.38,9.74-5.38,13.83v0.31c0,3.38,0.04,8.71,0.11,15.99c0.07,7.28,0.11,12.86,0.11,16.75c0,32.89-1,60.05-3,81.47
		c1.61-4.2,3.53-6.3,5.75-6.3c1.17,0,2.26,0.56,3.26,1.69L1127.17,430.56z M1105.9,344.63c0-4.3-1.02-7.89-3.07-10.76
		c-2.17-3.07-5-4.61-8.49-4.61c-4.56,0-8.96,3.59-13.18,10.76c-4.1,7.07-6.15,14.19-6.15,21.37c0,5.74,1.45,10.35,4.36,13.83
		c2.61,3.07,5.71,4.61,9.3,4.61c4.07,0,8.01-4.1,11.82-12.3C1104.09,359.64,1105.9,352.01,1105.9,344.63z"/>
	<path class="st3" d="M1210.79,334.64c0,5.23-0.05,11.37-0.15,18.45c0,1.23-0.12,1.69-0.37,1.38c-4.15-3.89-10.94-9.07-20.39-15.52
		c-8.39-5.63-12.79-8.45-13.18-8.45c-0.56,0-0.84,9.63-0.84,28.9c0,24.29,1.27,42.42,3.81,54.41c1.93,9.12,4.4,13.99,7.43,14.6
		c1.71,0.31,3.28-0.77,4.72-3.23c0.56-0.92,0.84-1.84,0.84-2.77c0-0.61-0.15-1.13-0.44-1.54c-3.2-2.46-5.81-7.45-7.83-14.99
		c-2.03-7.53-3.04-16.52-3.04-26.98c0-6.56,0.88-11.86,2.65-15.91c1.77-4.05,4.18-6.07,7.23-6.07c2.1,0,4.32,0.92,6.66,2.77
		c6.29,5.13,9.44,15.73,9.44,31.82c0,4.51-0.29,9.12-0.88,13.83c-1.63,12.91-3.66,22.13-6.08,27.67
		c-3.51,7.99-8.86,11.99-16.03,11.99c-8.25,0-14.83-12.81-19.76-38.43c-4.22-21.83-6.33-46.47-6.33-73.94
		c0-50.73,9.87-76.09,29.61-76.09c11.44,0,18.48,12.04,21.12,36.12C1210.19,303.64,1210.79,317.63,1210.79,334.64z M1196.78,299.29
		c0-5.74-0.89-10.43-2.67-14.06c-1.78-3.64-4.14-5.46-7.06-5.46c-3.42,0-6.38,1.33-8.89,4c-2.95,3.07-4.43,7.22-4.43,12.45
		c0,13.22,5.04,19.83,15.12,19.83C1194.13,316.04,1196.78,310.46,1196.78,299.29z"/>
	<path class="st3" d="M1272.13,429.94c-12.37,6.76-22.64,13.78-30.82,21.06c-0.81-5.74-1.95-14.14-3.44-25.21
		c1.73,0,3.42-0.56,5.05-1.69c2.02-1.54,3.04-3.59,3.04-6.15c0-9.84-2.25-23.36-6.73-40.58c-3.2,11.79-6.84,25.52-10.94,41.19
		c-0.29,1.33-0.44,2.72-0.44,4.15c0,4,0.82,9.12,2.45,15.37c0.24,0.92,0.2,2.1-0.15,3.54c-0.71,2.77-1.66,6.76-2.85,11.99
		c-2.12-3.18-5.49-7.69-10.1-13.53c-1.95-2.46-4.67-5.84-8.16-10.14c2.54-8.2,6.79-21.06,12.77-38.58
		c5.54-16.39,9.77-29.46,12.7-39.2c-7.69-35.45-12.86-55.9-15.52-61.33c-0.51-1.02-1.01-1.13-1.5-0.31
		c-0.88,1.54-2.28,4.56-4.21,9.07c-0.27-7.79-0.68-17.22-1.24-28.28c5.78-2.25,10.8-5.33,15.04-9.22
		c3.61-3.28,8.16-9.53,13.65-18.75c0.51,7.17,1.21,16.5,2.09,27.98h-1.65c-2.59,0-3.88,1.03-3.88,3.07c0,2.05,0.92,8.25,2.75,18.6
		c1.66,9.33,3.13,17.01,4.43,23.06c3.24-11.68,5.34-19.42,6.29-23.21c1.34-5.33,2.42-10.4,3.22-15.22c0.37-2.15,0.55-4.66,0.55-7.53
		c0-5.33-0.53-8.92-1.57-10.76c-0.37-0.61-0.39-2.1-0.07-4.46l1.5-10.61c1.98,2.67,4.89,7.33,8.73,13.99
		c3.84,6.66,6.75,11.32,8.73,13.99c-8.17,21.52-15.72,44.17-22.65,67.94c2.05,8.1,4.48,18.6,7.28,31.51
		c2.34,10.76,4.7,21.52,7.06,32.28c1,4.51,1.79,6.76,2.38,6.76c0.83,0,2.38-1.48,4.65-4.46
		C1270.66,407.91,1271.18,415.8,1272.13,429.94z"/>
	<path class="st3" d="M1323.7,322.34c0,9.63-0.28,21.27-0.84,34.89c-0.98,24.19-3.12,44.37-6.44,60.56
		c-4.29,20.9-10.02,31.36-17.17,31.36c-6.49,0-12.36-8.71-17.6-26.13c-5.54-18.45-8.31-40.58-8.31-66.4
		c0-20.29,2.07-39.55,6.22-57.8c4.71-20.7,10.83-33.05,18.37-37.04c2.42-1.23,5.21-1.84,8.38-1.84c6.34,0,10.89,5.43,13.65,16.29
		C1322.46,286.07,1323.7,301.44,1323.7,322.34z M1317.4,344.63c0-7.89-1.56-14.09-4.68-18.6c-2.83-4-6.47-5.99-10.91-5.99
		c-4.88,0-9.63,5.64-14.24,16.91c-4.34,10.66-6.51,20.75-6.51,30.28c0,6.56,1.39,12.04,4.17,16.45c2.78,4.41,6.16,6.61,10.14,6.61
		c5.03,0,9.96-4.97,14.79-14.91C1314.99,365.43,1317.4,355.19,1317.4,344.63z"/>
	<path class="st3" d="M1383.36,321.73c0,14.35-3.1,24.9-9.3,31.66c-3.59,4-6.83,5.99-9.74,5.99c-5.29,0-7.94-6.04-7.94-18.14
		c0-13.73,1.37-25.36,4.1-34.89c2.17-7.58,4.93-13.07,8.27-16.45c0.29-0.31,0.44-1.18,0.44-2.61c0-2.36-0.61-4.87-1.83-7.53
		c-1.39-2.97-3-4.46-4.83-4.46c-3.32,0-6.23,3.9-8.75,11.68c-3.1,9.63-4.65,23.26-4.65,40.89c0,14.55,1.1,36.74,3.29,66.56
		c0.19,2.56,1.46,4.87,3.81,6.92c2.59,2.15,5.86,3.79,9.81,4.92c-0.34,6.46-0.76,14.24-1.24,23.36c-0.95-0.2-2.35-0.31-4.21-0.31
		c-11.22,0-22.31,5.89-33.27,17.68c-0.73-4.61-1.34-11.89-1.83-21.83c-0.05-1.13,0.08-1.95,0.4-2.46c2.93-5.12,4.42-7.69,4.46-7.69
		c1.29-2.87,1.98-6.3,2.05-10.3c0.32-10.76,0.63-21.47,0.95-32.13c0.56-20.7,0.84-36.74,0.84-48.11c0-12.3-0.33-19.42-0.99-21.37
		c-0.8-2.56-1.98-3.84-3.51-3.84c-0.56,0-1.56,0.51-3,1.54c-0.39,0.31-0.58,0.1-0.58-0.61c0-1.54-0.15-7.09-0.46-16.68
		c-0.3-9.58-0.46-14.93-0.46-16.06c0-1.43,0.21-1.95,0.62-1.54c2.07,2.36,4.17,3.54,6.29,3.54c5.17,0,10.56-7.89,16.18-23.67
		c-0.32,8.1-0.72,18.6-1.21,31.51c3.9-15.37,9.33-23.06,16.29-23.06c9.44,0,15.67,14.91,18.67,44.73
		C1382.92,308,1383.36,315.58,1383.36,321.73z"/>
	<path class="st3" d="M1420.32,433.48c-4.95-3.79-10.22-5.69-15.81-5.69c-5.39,0-12.93,3.74-22.62,11.22
		c0.37-7.58,0.78-16.39,1.25-26.44c3.9-1.95,6.45-5.87,7.63-11.76c1.18-5.89,2.18-16.83,2.98-32.82
		c0.78-15.16,1.17-29.97,1.17-44.42c0-15.37-1.55-23.06-4.65-23.06c-0.98,0-1.9,0.46-2.78,1.38c-1.34-12.4-2.01-21.26-2.01-26.59
		c10-0.31,19.35-7.22,28.04-20.75c0.1,0.31,0.15,1.18,0.15,2.61c0,2.25-0.12,6.35-0.37,12.3c-1.56,36.28-2.34,66.46-2.34,90.54
		c0,16.7,0.48,27.62,1.43,32.74c0.58,3.18,1.42,4.77,2.49,4.77c1.22,0,2.61-1.38,4.17-4.15c0.44-0.72,0.7,0.15,0.77,2.61
		C1420.08,404.89,1420.25,417.39,1420.32,433.48z M1420.03,215.51c0,6.87-1.88,12.71-5.64,17.52c-3.32,4.3-6.83,6.46-10.54,6.46
		c-3.46,0-6.31-2.71-8.53-8.15c-2.56-6.35-3.84-15.47-3.84-27.36c0-15.37,4.22-23.06,12.66-23.06c4.69,0,8.55,3.64,11.6,10.91
		C1418.6,198.6,1420.03,206.5,1420.03,215.51z"/>
	<path class="st3" d="M1482.76,430.56c-1.15-3.38-3.01-5.07-5.6-5.07c-3.12,0-6.65,2.15-10.58,6.46c-3.93,4.3-7,9.32-9.22,15.06
		c0.85-17.22,1.28-28.69,1.28-34.43c0-1.74-0.07-2.56-0.22-2.46c-0.1,0.1-0.26,0.51-0.48,1.23c-4.1,14.14-8.99,22.75-14.68,25.82
		c-2.71,1.43-5,2.15-6.88,2.15c-5.56,0-9.55-4.97-11.97-14.91c-2.17-8.92-3.26-22.6-3.26-41.04c0-9.63,0.22-20.24,0.66-31.82
		c0.9-22.95,2.86-41.91,5.86-56.87c3.61-17.73,8.23-26.59,13.87-26.59c6.1,0,12.04,11.79,17.82,35.35c0-5.12-0.34-12.35-1.03-21.67
		c-0.76-9.94-1.61-18.03-2.56-24.29c12-7.69,20.3-15.06,24.89-22.13c0.44,6.46,0.66,12.96,0.66,19.52c0,5.33-0.15,8.61-0.44,9.84
		c-3.59,5.13-5.38,9.74-5.38,13.83v0.31c0,3.38,0.04,8.71,0.11,15.99c0.07,7.28,0.11,12.86,0.11,16.75c0,32.89-1,60.05-3,81.47
		c1.61-4.2,3.53-6.3,5.75-6.3c1.17,0,2.26,0.56,3.26,1.69L1482.76,430.56z M1461.49,344.63c0-4.3-1.02-7.89-3.07-10.76
		c-2.17-3.07-5-4.61-8.49-4.61c-4.56,0-8.96,3.59-13.18,10.76c-4.1,7.07-6.15,14.19-6.15,21.37c0,5.74,1.45,10.35,4.36,13.83
		c2.61,3.07,5.71,4.61,9.3,4.61c4.07,0,8.01-4.1,11.82-12.3C1459.69,359.64,1461.49,352.01,1461.49,344.63z"/>
</g>
<g class="st2">
	<path class="st3" d="M330.23,699.49c0,14.35-3.1,24.9-9.3,31.66c-3.59,4-6.83,6-9.73,6c-5.29,0-7.94-6.04-7.94-18.14
		c0-13.73,1.37-25.36,4.1-34.89c2.17-7.58,4.93-13.07,8.27-16.45c0.29-0.31,0.44-1.18,0.44-2.61c0-2.36-0.61-4.87-1.83-7.53
		c-1.39-2.97-3-4.46-4.83-4.46c-3.32,0-6.23,3.9-8.75,11.68c-3.1,9.63-4.65,23.26-4.65,40.89c0,14.55,1.1,36.74,3.29,66.56
		c0.2,2.56,1.46,4.87,3.81,6.92c2.59,2.15,5.86,3.79,9.81,4.92c-0.34,6.46-0.76,14.25-1.24,23.36c-0.95-0.2-2.35-0.31-4.21-0.31
		c-11.22,0-22.31,5.89-33.27,17.68c-0.73-4.61-1.34-11.89-1.83-21.83c-0.05-1.13,0.09-1.95,0.4-2.46c2.93-5.12,4.42-7.69,4.46-7.69
		c1.29-2.87,1.98-6.3,2.05-10.3c0.32-10.76,0.63-21.47,0.95-32.13c0.56-20.7,0.84-36.74,0.84-48.11c0-12.3-0.33-19.42-0.99-21.37
		c-0.81-2.56-1.98-3.84-3.51-3.84c-0.56,0-1.56,0.51-3,1.54c-0.39,0.31-0.59,0.1-0.59-0.61c0-1.54-0.15-7.09-0.46-16.68
		c-0.31-9.58-0.46-14.93-0.46-16.06c0-1.43,0.21-1.95,0.62-1.54c2.07,2.36,4.17,3.54,6.29,3.54c5.17,0,10.56-7.89,16.18-23.67
		c-0.32,8.1-0.72,18.6-1.21,31.51c3.9-15.37,9.33-23.06,16.29-23.06c9.44,0,15.66,14.91,18.67,44.73
		C329.79,685.76,330.23,693.34,330.23,699.49z"/>
	<path class="st3" d="M383.3,712.4c0,5.23-0.05,11.37-0.15,18.45c0,1.23-0.12,1.69-0.37,1.38c-4.15-3.89-10.94-9.07-20.39-15.52
		c-8.39-5.63-12.79-8.45-13.18-8.45c-0.56,0-0.84,9.63-0.84,28.9c0,24.29,1.27,42.42,3.81,54.41c1.93,9.12,4.4,13.99,7.43,14.6
		c1.71,0.31,3.28-0.77,4.72-3.23c0.56-0.92,0.84-1.84,0.84-2.77c0-0.61-0.15-1.13-0.44-1.54c-3.2-2.46-5.81-7.46-7.83-14.99
		c-2.03-7.53-3.04-16.52-3.04-26.98c0-6.56,0.88-11.86,2.65-15.91c1.77-4.05,4.18-6.07,7.23-6.07c2.1,0,4.32,0.92,6.66,2.77
		c6.29,5.13,9.44,15.73,9.44,31.82c0,4.51-0.29,9.12-0.88,13.83c-1.63,12.91-3.66,22.13-6.08,27.67
		c-3.51,7.99-8.86,11.99-16.03,11.99c-8.25,0-14.84-12.81-19.76-38.43c-4.22-21.83-6.33-46.47-6.33-73.94
		c0-50.72,9.87-76.09,29.61-76.09c11.44,0,18.48,12.04,21.12,36.12C382.7,681.4,383.3,695.39,383.3,712.4z M369.28,677.04
		c0-5.74-0.89-10.43-2.67-14.06c-1.78-3.64-4.14-5.46-7.06-5.46c-3.42,0-6.38,1.33-8.89,4c-2.95,3.07-4.43,7.22-4.43,12.45
		c0,13.22,5.04,19.83,15.12,19.83C366.63,693.8,369.28,688.22,369.28,677.04z"/>
	<path class="st3" d="M437.21,751.75c0,4.2-0.07,8.35-0.22,12.45c-0.71,19.57-4.16,34.79-10.36,45.65
		c-5.73,10.15-12.97,15.22-21.7,15.22c-5.98,0-10.86-3.49-14.64-10.45c-3.25-5.94-5.22-13.27-5.93-21.98
		c-0.49-6.25-0.73-11.53-0.73-15.83c0-14.86,3.37-24.18,10.1-27.98c2.27-1.23,4.37-1.84,6.3-1.84c3.51,0,6.29,1.84,8.34,5.53
		s3.07,8.76,3.07,15.22c0,6.76-0.74,12.76-2.23,17.98c-1.85,6.56-4.66,10.97-8.42,13.22c-2.25,1.33-3.37,3.33-3.37,6
		c0,2.87,1.98,4.3,5.93,4.3c1.54,0,2.9-0.31,4.1-0.92c3.44-1.74,5.97-4.25,7.58-7.53c2.44-4.82,3.61-12.04,3.51-21.67
		c-0.32-31.25-3.99-46.88-11.02-46.88c-0.71,0-2.14,0.36-4.3,1.08c-2.16,0.72-3.69,1.08-4.59,1.08c-7.37,0-11.05-10.61-11.05-31.82
		c0-5.02,0.11-9.53,0.33-13.53c0.81-16.29,3.01-29.31,6.62-39.04c4.15-11.17,9.76-16.75,16.84-16.75c6.86,0,11.92,2.61,15.19,7.84
		c2.85,4.51,4.76,11.79,5.71,21.83c0.61,6.25,0.92,11.17,0.92,14.76c0,11.58-2.93,18.19-8.78,19.83c-1.1,0.21-2.29,0.31-3.59,0.31
		c-7.76,0-11.64-5.63-11.64-16.91c0-9.84,1.35-17.21,4.06-22.13c0.34-0.62,2.37-2.82,6.08-6.61c0.44-0.41,0.66-1.13,0.66-2.15
		c0-3.59-1.89-5.38-5.67-5.38c-7.2,0-10.8,9.02-10.8,27.05c0,4.2,0.2,8.71,0.59,13.53c0.9,10.86,2.32,18.45,4.25,22.75
		c1.59,3.59,3.77,5.38,6.55,5.38c0.95,0,2.49-0.28,4.61-0.85c2.12-0.56,3.71-0.84,4.76-0.84c4.1,0,7.17,2.61,9.22,7.84
		C435.96,725.72,437.21,736.48,437.21,751.75z"/>
	<path class="st3" d="M501.18,638.92c0,9.43-0.18,14.71-0.55,15.83c-2-1.74-3.75-2.61-5.23-2.61c-1.98,0-3.05,1.9-3.22,5.69
		c-0.51,10.35-1.01,25.62-1.5,45.81c-0.56,22.34-0.84,40.58-0.84,54.72v6.61c1.37-2.77,2.89-4.15,4.57-4.15
		c1.49,0,2.87,0.92,4.14,2.77l0.51,25.21h-0.81c-3.05,0-7.19,4.56-12.41,13.68c-3.95,6.86-7.75,14.81-11.38,23.83
		c-0.54,1.33-0.83,1.95-0.88,1.84c-0.15-0.21-0.12-2,0.07-5.38c0.95-16.19,1.6-32.13,1.94-47.8c-3.39,16.5-7.11,28.74-11.16,36.74
		c-3.15,6.15-6.15,9.22-9,9.22c-3.51,0-6.39-3.48-8.64-10.45c-2.49-7.79-3.73-18.7-3.73-32.74c0-22.65,1.85-45.34,5.56-68.09
		c2.59-15.78,5.73-29.87,9.44-42.27c-0.34,0-0.88-0.05-1.61-0.15c-0.73-0.1-1.27-0.15-1.61-0.15c-4.27,0-8.65,0.72-13.14,2.15
		c0.29-2.36,1.27-10.66,2.93-24.9c6,1.95,11.3,2.92,15.88,2.92c2.12,0,6.62-0.46,13.5-1.38c-3.12,16.19-5.78,34.38-7.98,54.57
		c-2.32,21.32-3.48,39.04-3.48,53.18c0,8.2,0.45,14.81,1.35,19.83c0.83,4.61,1.85,6.92,3.07,6.92c2.29,0,4.83-13.99,7.61-41.96
		c2.93-29.61,4.73-62.46,5.42-98.53c0.17-8.92,0.27-15.53,0.29-19.83C482.52,622.27,489.47,628.58,501.18,638.92z"/>
	<path class="st3" d="M552.2,751.75c0,4.2-0.07,8.35-0.22,12.45c-0.71,19.57-4.16,34.79-10.36,45.65
		c-5.73,10.15-12.97,15.22-21.7,15.22c-5.98,0-10.86-3.49-14.64-10.45c-3.25-5.94-5.22-13.27-5.93-21.98
		c-0.49-6.25-0.73-11.53-0.73-15.83c0-14.86,3.37-24.18,10.1-27.98c2.27-1.23,4.37-1.84,6.3-1.84c3.51,0,6.29,1.84,8.34,5.53
		s3.07,8.76,3.07,15.22c0,6.76-0.74,12.76-2.23,17.98c-1.85,6.56-4.66,10.97-8.42,13.22c-2.25,1.33-3.37,3.33-3.37,6
		c0,2.87,1.98,4.3,5.93,4.3c1.54,0,2.9-0.31,4.1-0.92c3.44-1.74,5.97-4.25,7.58-7.53c2.44-4.82,3.61-12.04,3.51-21.67
		c-0.32-31.25-3.99-46.88-11.02-46.88c-0.71,0-2.14,0.36-4.3,1.08c-2.16,0.72-3.69,1.08-4.59,1.08c-7.37,0-11.05-10.61-11.05-31.82
		c0-5.02,0.11-9.53,0.33-13.53c0.81-16.29,3.01-29.31,6.62-39.04c4.15-11.17,9.76-16.75,16.84-16.75c6.86,0,11.92,2.61,15.19,7.84
		c2.85,4.51,4.76,11.79,5.71,21.83c0.61,6.25,0.92,11.17,0.92,14.76c0,11.58-2.93,18.19-8.78,19.83c-1.1,0.21-2.29,0.31-3.59,0.31
		c-7.76,0-11.64-5.63-11.64-16.91c0-9.84,1.35-17.21,4.06-22.13c0.34-0.62,2.37-2.82,6.08-6.61c0.44-0.41,0.66-1.13,0.66-2.15
		c0-3.59-1.89-5.38-5.67-5.38c-7.2,0-10.8,9.02-10.8,27.05c0,4.2,0.2,8.71,0.59,13.53c0.9,10.86,2.32,18.45,4.25,22.75
		c1.59,3.59,3.77,5.38,6.55,5.38c0.95,0,2.49-0.28,4.61-0.85c2.12-0.56,3.71-0.84,4.76-0.84c4.1,0,7.17,2.61,9.22,7.84
		C550.95,725.72,552.2,736.48,552.2,751.75z"/>
	<path class="st3" d="M609.26,697.8c0,23.57-4.25,35.35-12.74,35.35c-4.25,0-7.76-3.18-10.54-9.53c-2.61-5.94-3.92-12.96-3.92-21.06
		c0-12.81,1.6-22.9,4.79-30.28c2.81-6.46,6.17-9.68,10.1-9.68c0.24,0,0.37-0.2,0.37-0.62c0-1.54-0.9-3.54-2.71-5.99
		c-2.1-2.97-4.26-4.46-6.48-4.46c-9.86,0-14.79,18.6-14.79,55.8c0,4,0.07,8.71,0.22,14.14c0.73,25.93,2.05,43.76,3.95,53.49
		c1.42,7.17,3.45,10.76,6.11,10.76c4.12,0,7.99-3.43,11.6-10.3c3.22-6.05,5.79-13.83,7.72-23.36c0.12-0.1,0.22,0.21,0.29,0.92
		c-2.27,40.27-7.92,62.92-16.95,67.94c-2.27,1.23-4.59,1.84-6.95,1.84c-15.84,0-23.75-30.95-23.75-92.84
		c0-30.13,1.95-52.42,5.86-66.86c3.68-13.63,9.65-22.18,17.9-25.67c2-0.82,3.95-1.23,5.86-1.23c6.88,0,12.59,5.13,17.13,15.37
		c4.03,9.12,6.26,19.93,6.7,32.43C609.18,688.27,609.26,692.88,609.26,697.8z"/>
	<path class="st3" d="M646.51,811.24c-4.95-3.79-10.22-5.69-15.81-5.69c-5.39,0-12.93,3.74-22.62,11.22
		c0.37-7.58,0.78-16.39,1.24-26.44c3.9-1.95,6.45-5.87,7.63-11.76c1.18-5.89,2.18-16.83,2.98-32.82
		c0.78-15.16,1.17-29.97,1.17-44.42c0-15.37-1.55-23.06-4.65-23.06c-0.98,0-1.9,0.46-2.78,1.38c-1.34-12.4-2.01-21.26-2.01-26.59
		c10-0.31,19.35-7.22,28.03-20.75c0.1,0.31,0.15,1.18,0.15,2.61c0,2.25-0.12,6.35-0.37,12.3c-1.56,36.28-2.34,66.46-2.34,90.54
		c0,16.7,0.48,27.62,1.43,32.74c0.59,3.18,1.41,4.76,2.49,4.76c1.22,0,2.61-1.38,4.17-4.15c0.44-0.72,0.7,0.15,0.77,2.61
		C646.27,782.65,646.44,795.15,646.51,811.24z M646.22,593.27c0,6.87-1.88,12.71-5.64,17.52c-3.32,4.3-6.83,6.46-10.54,6.46
		c-3.46,0-6.31-2.71-8.53-8.15c-2.56-6.35-3.84-15.47-3.84-27.36c0-15.37,4.22-23.06,12.66-23.06c4.68,0,8.55,3.64,11.6,10.91
		C644.79,576.36,646.22,584.26,646.22,593.27z"/>
	<path class="st3" d="M703.72,741.6c0,6.46-0.62,14.45-1.87,23.98c-3.78,28.59-12.83,44.32-27.16,47.19
		c-2.07,0.41-3.29,0.62-3.66,0.62c-5.66,0-9.83-4.1-12.52-12.3c-3.29-10.04-4.94-27.57-4.94-52.57c0-26.54,1.87-58.56,5.6-96.07
		c-3.22,0.62-7.32,3.28-12.3,7.99c-0.29,0.21-0.49-0.46-0.59-2c-0.05-0.82-0.07-3.64-0.07-8.45c0-13.73,0.33-24.85,0.99-33.36
		c3.1,5.64,7.14,8.97,12.11,9.99c-0.07-8.3-0.39-17.62-0.95-27.98c-0.56-9.94-0.84-15.06-0.84-15.37c0-0.92,0.04-1.46,0.11-1.61
		c0.07-0.15,0.17-0.23,0.29-0.23c1.61,0,5.4-1.02,11.38-3.07c5.98-2.05,10.5-3.89,13.58-5.53c0.51-0.2,0.78-0.2,0.81,0
		c0,0.51-0.9,6.97-2.71,19.37c-2.12,14.55-3.72,27.21-4.79,37.97c0.78,0,1.61,0,2.49,0c6.22-0.2,9.42-1.41,9.61-3.61
		c0.18-2.2,0.27-4.48,0.27-6.84c0-6.86-0.9-13.12-2.71-18.75c4.47-10.25,7.47-15.63,9-16.14c0.46,3.28,0.7,8.2,0.7,14.76
		c0,2.77-0.04,6.82-0.13,12.14c-0.09,5.33-0.13,9.07-0.13,11.22c0,5.84,0.4,14.58,1.21,26.21c0.81,11.63,1.66,21.34,2.56,29.13
		c-1.02,2.05-2.05,4.05-3.07,5.99c-1.61,2.97-2.81,4.46-3.59,4.46c-0.46,0-0.79-0.41-0.99-1.23c-0.29-0.82-0.96-6.4-2.01-16.75
		c-1-9.63-2.12-14.65-3.37-15.06c-0.63-0.2-4.46-0.31-11.49-0.31c-0.46,1.54-1.06,11.38-1.79,29.51
		c-0.85,20.19-1.28,38.89-1.28,56.1c0,36.48,1.95,54.72,5.86,54.72c2.05,0,4.37-2.36,6.97-7.07c2.6-4.71,3.9-8.76,3.9-12.14
		c0-1.02-0.12-1.84-0.37-2.46c-1.46-1.43-3.94-5.43-7.43-11.99c-3.25-8.09-4.87-19.11-4.87-33.05c0-6.46,0.87-11.73,2.6-15.83
		c1.85-4.3,4.38-6.46,7.58-6.46c2.37,0,5.07,1.33,8.13,4C700.42,716.65,703.72,726.95,703.72,741.6z"/>
	<path class="st3" d="M768.02,808.31c-1.15-3.38-3.01-5.07-5.6-5.07c-3.12,0-6.65,2.15-10.58,6.46c-3.93,4.3-7,9.32-9.22,15.06
		c0.85-17.22,1.28-28.69,1.28-34.43c0-1.74-0.07-2.56-0.22-2.46c-0.1,0.1-0.26,0.51-0.48,1.23c-4.1,14.14-8.99,22.75-14.68,25.82
		c-2.71,1.43-5,2.15-6.88,2.15c-5.56,0-9.55-4.97-11.97-14.91c-2.17-8.92-3.26-22.59-3.26-41.04c0-9.63,0.22-20.24,0.66-31.82
		c0.9-22.95,2.85-41.91,5.86-56.87c3.61-17.73,8.23-26.59,13.87-26.59c6.1,0,12.04,11.79,17.82,35.35c0-5.12-0.34-12.35-1.02-21.67
		c-0.76-9.94-1.61-18.04-2.56-24.29c12-7.69,20.3-15.06,24.89-22.13c0.44,6.46,0.66,12.96,0.66,19.52c0,5.33-0.15,8.61-0.44,9.84
		c-3.59,5.13-5.38,9.74-5.38,13.83v0.31c0,3.38,0.04,8.71,0.11,15.99c0.07,7.28,0.11,12.86,0.11,16.75c0,32.89-1,60.05-3,81.47
		c1.61-4.2,3.53-6.3,5.75-6.3c1.17,0,2.26,0.56,3.26,1.69L768.02,808.31z M746.76,722.39c0-4.3-1.02-7.89-3.07-10.76
		c-2.17-3.07-5-4.61-8.49-4.61c-4.56,0-8.95,3.59-13.18,10.76c-4.1,7.07-6.15,14.19-6.15,21.37c0,5.74,1.45,10.35,4.35,13.83
		c2.61,3.07,5.71,4.61,9.3,4.61c4.07,0,8.01-4.1,11.82-12.3C744.95,737.4,746.76,729.77,746.76,722.39z"/>
	<path class="st3" d="M826.32,699.49c0,14.35-3.1,24.9-9.3,31.66c-3.59,4-6.83,6-9.73,6c-5.29,0-7.94-6.04-7.94-18.14
		c0-13.73,1.37-25.36,4.1-34.89c2.17-7.58,4.93-13.07,8.27-16.45c0.29-0.31,0.44-1.18,0.44-2.61c0-2.36-0.61-4.87-1.83-7.53
		c-1.39-2.97-3-4.46-4.83-4.46c-3.32,0-6.23,3.9-8.75,11.68c-3.1,9.63-4.65,23.26-4.65,40.89c0,14.55,1.1,36.74,3.29,66.56
		c0.2,2.56,1.46,4.87,3.81,6.92c2.59,2.15,5.86,3.79,9.81,4.92c-0.34,6.46-0.76,14.25-1.24,23.36c-0.95-0.2-2.35-0.31-4.21-0.31
		c-11.22,0-22.31,5.89-33.27,17.68c-0.73-4.61-1.34-11.89-1.83-21.83c-0.05-1.13,0.09-1.95,0.4-2.46c2.93-5.12,4.42-7.69,4.46-7.69
		c1.29-2.87,1.98-6.3,2.05-10.3c0.32-10.76,0.63-21.47,0.95-32.13c0.56-20.7,0.84-36.74,0.84-48.11c0-12.3-0.33-19.42-0.99-21.37
		c-0.81-2.56-1.98-3.84-3.51-3.84c-0.56,0-1.56,0.51-3,1.54c-0.39,0.31-0.59,0.1-0.59-0.61c0-1.54-0.15-7.09-0.46-16.68
		c-0.31-9.58-0.46-14.93-0.46-16.06c0-1.43,0.21-1.95,0.62-1.54c2.07,2.36,4.17,3.54,6.29,3.54c5.17,0,10.56-7.89,16.18-23.67
		c-0.32,8.1-0.72,18.6-1.21,31.51c3.9-15.37,9.33-23.06,16.29-23.06c9.44,0,15.66,14.91,18.67,44.73
		C825.88,685.76,826.32,693.34,826.32,699.49z"/>
	<path class="st3" d="M879.39,712.4c0,5.23-0.05,11.37-0.15,18.45c0,1.23-0.12,1.69-0.37,1.38c-4.15-3.89-10.94-9.07-20.39-15.52
		c-8.39-5.63-12.79-8.45-13.18-8.45c-0.56,0-0.84,9.63-0.84,28.9c0,24.29,1.27,42.42,3.81,54.41c1.93,9.12,4.4,13.99,7.43,14.6
		c1.71,0.31,3.28-0.77,4.72-3.23c0.56-0.92,0.84-1.84,0.84-2.77c0-0.61-0.15-1.13-0.44-1.54c-3.2-2.46-5.81-7.46-7.83-14.99
		c-2.03-7.53-3.04-16.52-3.04-26.98c0-6.56,0.88-11.86,2.65-15.91c1.77-4.05,4.18-6.07,7.23-6.07c2.1,0,4.32,0.92,6.66,2.77
		c6.29,5.13,9.44,15.73,9.44,31.82c0,4.51-0.29,9.12-0.88,13.83c-1.63,12.91-3.66,22.13-6.08,27.67
		c-3.51,7.99-8.86,11.99-16.03,11.99c-8.25,0-14.84-12.81-19.76-38.43c-4.22-21.83-6.33-46.47-6.33-73.94
		c0-50.72,9.87-76.09,29.61-76.09c11.44,0,18.48,12.04,21.12,36.12C878.79,681.4,879.39,695.39,879.39,712.4z M865.37,677.04
		c0-5.74-0.89-10.43-2.67-14.06c-1.78-3.64-4.14-5.46-7.06-5.46c-3.42,0-6.38,1.33-8.89,4c-2.95,3.07-4.43,7.22-4.43,12.45
		c0,13.22,5.04,19.83,15.12,19.83C862.73,693.8,865.37,688.22,865.37,677.04z"/>
	<path class="st3" d="M905.34,792.64c0,7.28-0.52,16.09-1.57,26.44c-1.15,10.86-2.34,17.88-3.59,21.06
		c-1.54,2.05-2.61,3.07-3.22,3.07c-0.56,0-0.84-0.51-0.84-1.54c0-0.82,0.08-1.74,0.26-2.77c1.34-9.12,2.01-16.4,2.01-21.83
		c0-5.02-0.85-7.53-2.56-7.53c-0.42,0-1.12,0.38-2.1,1.15s-1.76,1.15-2.32,1.15c-1.73,0-3.18-2.61-4.35-7.84
		c-1.17-5.23-1.76-12.09-1.76-20.6c0-7.69,1.24-13.53,3.73-17.52c1.85-2.97,3.88-4.46,6.08-4.46c3.12,0,5.61,2.95,7.47,8.84
		C904.41,776.17,905.34,783.62,905.34,792.64z"/>
	<path class="st3" d="M1005.8,624.17c-0.24,9.02-0.57,18.14-0.99,27.36c-0.71-1.95-2.63-6.46-5.78-13.53
		c-3.93,11.27-7.15,35.61-9.66,73.01c-1.98,29.72-3.42,65.28-4.32,106.68l-0.11,5.38c-0.05,2.77-0.32,3.94-0.8,3.54
		c-5.73-4.61-11.41-6.92-17.02-6.92h-2.09c-7.64-51.75-12.81-96.22-15.52-133.42c-0.51,1.74-1.71,3.64-3.59,5.69
		c-1.88,2.05-3.37,3.07-4.47,3.07c-0.34,0-0.49-0.72-0.44-2.15c0.24-6.56,0.52-16.24,0.84-29.05c0-1.23,0.15-1.84,0.44-1.84
		c0.07,0,0.47,0.05,1.19,0.15c0.72,0.1,1.27,0.15,1.67,0.15c5.46,0,13.55-5.89,24.26-17.68c-0.05,3.18-0.07,7.69-0.07,13.53
		c0,50.32,3,88.33,9,114.05c5.1-74.4,7.65-121.33,7.65-140.8c0-3.48-0.5-6-1.5-7.53c-1.25-1.84-3.6-2.77-7.06-2.77
		c0.32-4.51,0.7-10.81,1.13-18.91c0.05-1.13,0.2-1.69,0.44-1.69c8.83,7.58,17.46,14.19,25.88,19.83
		C1005.55,620.84,1005.85,622.12,1005.8,624.17z"/>
	<path class="st3" d="M1050.89,712.4c0,5.23-0.05,11.37-0.15,18.45c0,1.23-0.12,1.69-0.37,1.38c-4.15-3.89-10.94-9.07-20.39-15.52
		c-8.39-5.63-12.79-8.45-13.18-8.45c-0.56,0-0.84,9.63-0.84,28.9c0,24.29,1.27,42.42,3.81,54.41c1.93,9.12,4.4,13.99,7.43,14.6
		c1.71,0.31,3.28-0.77,4.72-3.23c0.56-0.92,0.84-1.84,0.84-2.77c0-0.61-0.15-1.13-0.44-1.54c-3.2-2.46-5.81-7.46-7.83-14.99
		c-2.03-7.53-3.04-16.52-3.04-26.98c0-6.56,0.88-11.86,2.65-15.91c1.77-4.05,4.18-6.07,7.23-6.07c2.1,0,4.32,0.92,6.66,2.77
		c6.29,5.13,9.44,15.73,9.44,31.82c0,4.51-0.29,9.12-0.88,13.83c-1.63,12.91-3.66,22.13-6.08,27.67
		c-3.51,7.99-8.86,11.99-16.03,11.99c-8.25,0-14.83-12.81-19.76-38.43c-4.22-21.83-6.33-46.47-6.33-73.94
		c0-50.72,9.87-76.09,29.61-76.09c11.44,0,18.48,12.04,21.12,36.12C1050.29,681.4,1050.89,695.39,1050.89,712.4z M1036.88,677.04
		c0-5.74-0.89-10.43-2.67-14.06c-1.78-3.64-4.14-5.46-7.06-5.46c-3.42,0-6.38,1.33-8.89,4c-2.95,3.07-4.43,7.22-4.43,12.45
		c0,13.22,5.04,19.83,15.12,19.83C1034.23,693.8,1036.88,688.22,1036.88,677.04z"/>
	<path class="st3" d="M1110,825.07c-0.37,4-0.82,9.02-1.35,15.06l-22.51-17.68c2.51-16.8,3.77-42.94,3.77-78.39v-14.14
		c-0.17-16.8-1.22-25.21-3.15-25.21c-0.61,0-1.42,1.08-2.42,3.23c-4.08,8.61-6.97,27.36-8.67,56.26c0.05,9.94,1.17,28.64,3.37,56.11
		c-5.56-10.45-11.14-15.68-16.73-15.68c-3.71,0-6.28,2.72-7.72,8.15l0.07-36.28c0.78-1.43,1.76-2.15,2.93-2.15
		c1.73,0,3.56,1.9,5.49,5.69c-1.37-8.09-2.6-28.18-3.7-60.25c-0.66-19.88-1.11-37.45-1.35-52.72c-0.12-8.2-1.29-13.07-3.51-14.6
		c-0.73-0.31-1.81-1.02-3.22-2.15c-0.66-0.82-0.99-5.33-0.99-13.53c0-2.56,0.05-4.66,0.15-6.3c0.46,1.03,10.11,4.15,28.95,9.38
		c-3.15,20.9-4.72,48.42-4.72,82.54c2.98-38.63,8.39-68.66,16.25-90.08c2.17-5.84,4.07-8.76,5.71-8.76c2.85,0,4.98,8.1,6.37,24.29
		c1.15,13.12,1.72,30.08,1.72,50.88c0,7.99-0.1,15.99-0.29,23.98c-0.71,28.08-1.06,49.7-1.06,64.87c0,14.25,0.33,24.08,0.99,29.51
		C1105.73,819.33,1107.61,822,1110,825.07z"/>
	<path class="st3" d="M1166.29,741.6c0,6.46-0.62,14.45-1.87,23.98c-3.78,28.59-12.83,44.32-27.16,47.19
		c-2.07,0.41-3.29,0.62-3.66,0.62c-5.66,0-9.83-4.1-12.52-12.3c-3.29-10.04-4.94-27.57-4.94-52.57c0-26.54,1.87-58.56,5.6-96.07
		c-3.22,0.62-7.32,3.28-12.3,7.99c-0.29,0.21-0.49-0.46-0.59-2c-0.05-0.82-0.07-3.64-0.07-8.45c0-13.73,0.33-24.85,0.99-33.36
		c3.1,5.64,7.14,8.97,12.11,9.99c-0.07-8.3-0.39-17.62-0.95-27.98c-0.56-9.94-0.84-15.06-0.84-15.37c0-0.92,0.04-1.46,0.11-1.61
		c0.07-0.15,0.17-0.23,0.29-0.23c1.61,0,5.4-1.02,11.38-3.07c5.98-2.05,10.5-3.89,13.58-5.53c0.51-0.2,0.78-0.2,0.8,0
		c0,0.51-0.9,6.97-2.71,19.37c-2.12,14.55-3.72,27.21-4.79,37.97c0.78,0,1.61,0,2.49,0c6.22-0.2,9.42-1.41,9.61-3.61
		c0.18-2.2,0.27-4.48,0.27-6.84c0-6.86-0.9-13.12-2.71-18.75c4.46-10.25,7.47-15.63,9-16.14c0.46,3.28,0.7,8.2,0.7,14.76
		c0,2.77-0.04,6.82-0.13,12.14c-0.09,5.33-0.13,9.07-0.13,11.22c0,5.84,0.4,14.58,1.21,26.21c0.81,11.63,1.66,21.34,2.56,29.13
		c-1.03,2.05-2.05,4.05-3.07,5.99c-1.61,2.97-2.81,4.46-3.59,4.46c-0.46,0-0.79-0.41-0.99-1.23c-0.29-0.82-0.96-6.4-2.01-16.75
		c-1-9.63-2.12-14.65-3.37-15.06c-0.63-0.2-4.46-0.31-11.49-0.31c-0.46,1.54-1.06,11.38-1.79,29.51
		c-0.85,20.19-1.28,38.89-1.28,56.1c0,36.48,1.95,54.72,5.86,54.72c2.05,0,4.37-2.36,6.97-7.07c2.6-4.71,3.9-8.76,3.9-12.14
		c0-1.02-0.12-1.84-0.37-2.46c-1.46-1.43-3.94-5.43-7.43-11.99c-3.25-8.09-4.87-19.11-4.87-33.05c0-6.46,0.87-11.73,2.6-15.83
		c1.85-4.3,4.38-6.46,7.58-6.46c2.37,0,5.07,1.33,8.13,4C1162.99,716.65,1166.29,726.95,1166.29,741.6z"/>
	<path class="st3" d="M1205.49,811.24c-4.95-3.79-10.22-5.69-15.81-5.69c-5.39,0-12.93,3.74-22.62,11.22
		c0.37-7.58,0.78-16.39,1.25-26.44c3.9-1.95,6.45-5.87,7.63-11.76c1.18-5.89,2.18-16.83,2.98-32.82
		c0.78-15.16,1.17-29.97,1.17-44.42c0-15.37-1.55-23.06-4.65-23.06c-0.98,0-1.9,0.46-2.78,1.38c-1.34-12.4-2.01-21.26-2.01-26.59
		c10-0.31,19.35-7.22,28.04-20.75c0.1,0.31,0.15,1.18,0.15,2.61c0,2.25-0.12,6.35-0.37,12.3c-1.56,36.28-2.34,66.46-2.34,90.54
		c0,16.7,0.48,27.62,1.43,32.74c0.58,3.18,1.42,4.76,2.49,4.76c1.22,0,2.61-1.38,4.17-4.15c0.44-0.72,0.7,0.15,0.77,2.61
		C1205.24,782.65,1205.41,795.15,1205.49,811.24z M1205.19,593.27c0,6.87-1.88,12.71-5.64,17.52c-3.32,4.3-6.83,6.46-10.54,6.46
		c-3.46,0-6.31-2.71-8.53-8.15c-2.56-6.35-3.84-15.47-3.84-27.36c0-15.37,4.22-23.06,12.66-23.06c4.69,0,8.55,3.64,11.6,10.91
		C1203.77,576.36,1205.19,584.26,1205.19,593.27z"/>
	<path class="st3" d="M1258.63,751.75c0,4.2-0.07,8.35-0.22,12.45c-0.71,19.57-4.16,34.79-10.36,45.65
		c-5.73,10.15-12.97,15.22-21.7,15.22c-5.98,0-10.86-3.49-14.64-10.45c-3.25-5.94-5.22-13.27-5.93-21.98
		c-0.49-6.25-0.73-11.53-0.73-15.83c0-14.86,3.37-24.18,10.1-27.98c2.27-1.23,4.37-1.84,6.29-1.84c3.51,0,6.29,1.84,8.34,5.53
		c2.05,3.69,3.07,8.76,3.07,15.22c0,6.76-0.75,12.76-2.23,17.98c-1.85,6.56-4.66,10.97-8.42,13.22c-2.25,1.33-3.37,3.33-3.37,6
		c0,2.87,1.98,4.3,5.93,4.3c1.54,0,2.9-0.31,4.1-0.92c3.44-1.74,5.96-4.25,7.58-7.53c2.44-4.82,3.61-12.04,3.51-21.67
		c-0.32-31.25-3.99-46.88-11.02-46.88c-0.71,0-2.14,0.36-4.3,1.08c-2.16,0.72-3.69,1.08-4.59,1.08c-7.37,0-11.05-10.61-11.05-31.82
		c0-5.02,0.11-9.53,0.33-13.53c0.8-16.29,3.01-29.31,6.62-39.04c4.15-11.17,9.76-16.75,16.84-16.75c6.86,0,11.92,2.61,15.19,7.84
		c2.85,4.51,4.76,11.79,5.71,21.83c0.61,6.25,0.92,11.17,0.92,14.76c0,11.58-2.93,18.19-8.78,19.83c-1.1,0.21-2.29,0.31-3.59,0.31
		c-7.76,0-11.64-5.63-11.64-16.91c0-9.84,1.35-17.21,4.06-22.13c0.34-0.62,2.37-2.82,6.08-6.61c0.44-0.41,0.66-1.13,0.66-2.15
		c0-3.59-1.89-5.38-5.67-5.38c-7.2,0-10.8,9.02-10.8,27.05c0,4.2,0.2,8.71,0.59,13.53c0.9,10.86,2.32,18.45,4.25,22.75
		c1.59,3.59,3.77,5.38,6.55,5.38c0.95,0,2.49-0.28,4.61-0.85c2.12-0.56,3.71-0.84,4.76-0.84c4.1,0,7.17,2.61,9.22,7.84
		C1257.38,725.72,1258.63,736.48,1258.63,751.75z"/>
	<path class="st3" d="M1328.57,811.24c-4.95-3.79-10.22-5.69-15.81-5.69c-5.39,0-12.93,3.74-22.62,11.22
		c0.37-7.58,0.78-16.39,1.25-26.44c3.9-1.95,6.45-5.87,7.63-11.76c1.18-5.89,2.18-16.83,2.98-32.82
		c0.78-15.16,1.17-29.97,1.17-44.42c0-15.37-1.55-23.06-4.65-23.06c-0.98,0-1.9,0.46-2.78,1.38c-1.34-12.4-2.01-21.26-2.01-26.59
		c10-0.31,19.35-7.22,28.04-20.75c0.1,0.31,0.15,1.18,0.15,2.61c0,2.25-0.12,6.35-0.37,12.3c-1.56,36.28-2.34,66.46-2.34,90.54
		c0,16.7,0.48,27.62,1.43,32.74c0.58,3.18,1.42,4.76,2.49,4.76c1.22,0,2.61-1.38,4.17-4.15c0.44-0.72,0.7,0.15,0.77,2.61
		C1328.32,782.65,1328.49,795.15,1328.57,811.24z M1328.27,593.27c0,6.87-1.88,12.71-5.64,17.52c-3.32,4.3-6.83,6.46-10.54,6.46
		c-3.46,0-6.31-2.71-8.53-8.15c-2.56-6.35-3.84-15.47-3.84-27.36c0-15.37,4.22-23.06,12.66-23.06c4.69,0,8.55,3.64,11.6,10.91
		C1326.85,576.36,1328.27,584.26,1328.27,593.27z"/>
	<path class="st3" d="M1384.71,648.46l-0.81,34.58c-0.76,1.03-1.44,1.54-2.05,1.54c-1.49,0-3.18-2.2-5.09-6.61
		c4.05,30.13,6.08,62.77,6.08,97.91c0,8.61-0.15,17.01-0.44,25.21c-1.12,30.64-3.46,51.95-7.03,63.94
		c-4.15,14.04-11.22,21.06-21.23,21.06c-8.64,0-15.21-6.36-19.73-19.06c-2.68-7.69-4.43-16.75-5.23-27.21
		c-0.61-7.89-0.92-14.4-0.92-19.52c0-15.58,3.07-25.87,9.22-30.9c2.59-2.05,5.11-3.07,7.58-3.07c3.51,0,6.36,2.1,8.53,6.3
		c2.1,4.2,3.15,9.63,3.15,16.29c0,15.17-2.42,26.18-7.25,33.05c-3.22,4.61-5.12,7.48-5.71,8.61c-1.15,2.25-1.72,4.66-1.72,7.22
		c0,3.79,1.93,5.69,5.78,5.69c4.81,0,8.92-3.59,12.33-10.76c2.85-5.94,4.93-20.39,6.22-43.35c0.85-15.37,1.28-31.97,1.28-49.8
		c0-4.2-0.05-7.38-0.15-9.53c-0.81,7.99-2.78,14.4-5.93,19.21c-2.81,4.2-5.91,6.3-9.3,6.3c-5.12,0-9.17-7.63-12.15-22.9
		c-2.2-11.17-3.61-25.16-4.25-41.96c-0.56-14.45-0.84-25.16-0.84-32.13c0-13.32,0.78-23.11,2.34-29.36
		c1.78-7.27,4.81-10.91,9.08-10.91c2,0,4.53,0.97,7.58,2.92c5.22,3.18,9.11,9.48,11.67,18.91c0.24,0.82,0.37,0.56,0.37-0.77
		c0-3.07-0.48-12.19-1.43-27.36c5.44,13.83,10.64,20.75,15.59,20.75C1382.26,652.76,1383.73,651.33,1384.71,648.46z M1369.48,719.01
		c0-6.66-1.72-13.42-5.16-20.29c-3.07-6.04-6.22-9.07-9.44-9.07c-3.12,0-5.71,1.23-7.76,3.69c-2.32,2.77-3.48,6.66-3.48,11.68
		c0,6.05,1.71,12.02,5.14,17.91c3.43,5.89,7.03,8.84,10.81,8.84c2.98,0,5.37-1.2,7.17-3.61
		C1368.58,725.75,1369.48,722.7,1369.48,719.01z"/>
	<path class="st3" d="M1443.27,825.07c-0.37,4-0.82,9.02-1.35,15.06l-22.51-17.68c2.51-16.8,3.77-42.94,3.77-78.39v-14.14
		c-0.17-16.8-1.22-25.21-3.15-25.21c-0.61,0-1.42,1.08-2.42,3.23c-4.08,8.61-6.97,27.36-8.67,56.26c0.05,9.94,1.17,28.64,3.37,56.11
		c-5.56-10.45-11.14-15.68-16.73-15.68c-3.71,0-6.28,2.72-7.72,8.15l0.07-36.28c0.78-1.43,1.76-2.15,2.93-2.15
		c1.73,0,3.56,1.9,5.49,5.69c-1.37-8.09-2.6-28.18-3.7-60.25c-0.66-19.88-1.11-37.45-1.35-52.72c-0.12-8.2-1.29-13.07-3.51-14.6
		c-0.73-0.31-1.81-1.02-3.22-2.15c-0.66-0.82-0.99-5.33-0.99-13.53c0-2.56,0.05-4.66,0.15-6.3c0.46,1.03,10.11,4.15,28.95,9.38
		c-3.15,20.9-4.72,48.42-4.72,82.54c2.98-38.63,8.39-68.66,16.25-90.08c2.17-5.84,4.07-8.76,5.71-8.76c2.85,0,4.98,8.1,6.37,24.29
		c1.15,13.12,1.72,30.08,1.72,50.88c0,7.99-0.1,15.99-0.29,23.98c-0.71,28.08-1.06,49.7-1.06,64.87c0,14.25,0.33,24.08,0.99,29.51
		C1439,819.33,1440.88,822,1443.27,825.07z"/>
	<path class="st3" d="M1493.55,700.1c0,9.63-0.28,21.26-0.84,34.89c-0.98,24.19-3.12,44.37-6.44,60.56
		c-4.29,20.91-10.02,31.36-17.17,31.36c-6.49,0-12.36-8.71-17.6-26.13c-5.54-18.45-8.31-40.58-8.31-66.4
		c0-20.29,2.07-39.55,6.22-57.8c4.71-20.7,10.83-33.05,18.37-37.04c2.42-1.23,5.21-1.84,8.38-1.84c6.34,0,10.89,5.43,13.65,16.29
		C1492.31,663.83,1493.55,679.2,1493.55,700.1z M1487.26,722.39c0-7.89-1.56-14.09-4.68-18.6c-2.83-4-6.47-5.99-10.91-5.99
		c-4.88,0-9.63,5.64-14.24,16.91c-4.34,10.66-6.51,20.75-6.51,30.28c0,6.56,1.39,12.04,4.17,16.45c2.78,4.41,6.16,6.61,10.14,6.61
		c5.03,0,9.96-4.97,14.79-14.91C1484.84,743.19,1487.26,732.95,1487.26,722.39z"/>
	<path class="st3" d="M1552.33,741.6c0,6.46-0.62,14.45-1.87,23.98c-3.78,28.59-12.83,44.32-27.16,47.19
		c-2.07,0.41-3.29,0.62-3.66,0.62c-5.66,0-9.83-4.1-12.52-12.3c-3.29-10.04-4.94-27.57-4.94-52.57c0-26.54,1.87-58.56,5.6-96.07
		c-3.22,0.62-7.32,3.28-12.3,7.99c-0.29,0.21-0.49-0.46-0.59-2c-0.05-0.82-0.07-3.64-0.07-8.45c0-13.73,0.33-24.85,0.99-33.36
		c3.1,5.64,7.14,8.97,12.11,9.99c-0.07-8.3-0.39-17.62-0.95-27.98c-0.56-9.94-0.84-15.06-0.84-15.37c0-0.92,0.04-1.46,0.11-1.61
		c0.07-0.15,0.17-0.23,0.29-0.23c1.61,0,5.4-1.02,11.38-3.07c5.98-2.05,10.5-3.89,13.58-5.53c0.51-0.2,0.78-0.2,0.8,0
		c0,0.51-0.9,6.97-2.71,19.37c-2.12,14.55-3.72,27.21-4.79,37.97c0.78,0,1.61,0,2.49,0c6.22-0.2,9.42-1.41,9.61-3.61
		c0.18-2.2,0.27-4.48,0.27-6.84c0-6.86-0.9-13.12-2.71-18.75c4.46-10.25,7.47-15.63,9-16.14c0.46,3.28,0.7,8.2,0.7,14.76
		c0,2.77-0.04,6.82-0.13,12.14c-0.09,5.33-0.13,9.07-0.13,11.22c0,5.84,0.4,14.58,1.21,26.21c0.81,11.63,1.66,21.34,2.56,29.13
		c-1.03,2.05-2.05,4.05-3.07,5.99c-1.61,2.97-2.81,4.46-3.59,4.46c-0.46,0-0.79-0.41-0.99-1.23c-0.29-0.82-0.96-6.4-2.01-16.75
		c-1-9.63-2.12-14.65-3.37-15.06c-0.63-0.2-4.46-0.31-11.49-0.31c-0.46,1.54-1.06,11.38-1.79,29.51
		c-0.85,20.19-1.28,38.89-1.28,56.1c0,36.48,1.95,54.72,5.86,54.72c2.05,0,4.37-2.36,6.97-7.07c2.6-4.71,3.9-8.76,3.9-12.14
		c0-1.02-0.12-1.84-0.37-2.46c-1.46-1.43-3.94-5.43-7.43-11.99c-3.25-8.09-4.87-19.11-4.87-33.05c0-6.46,0.87-11.73,2.6-15.83
		c1.85-4.3,4.38-6.46,7.58-6.46c2.37,0,5.07,1.33,8.13,4C1549.04,716.65,1552.33,726.95,1552.33,741.6z"/>
	<path class="st3" d="M1591.53,811.24c-4.95-3.79-10.22-5.69-15.81-5.69c-5.39,0-12.93,3.74-22.62,11.22
		c0.37-7.58,0.78-16.39,1.25-26.44c3.9-1.95,6.45-5.87,7.63-11.76c1.18-5.89,2.18-16.83,2.98-32.82
		c0.78-15.16,1.17-29.97,1.17-44.42c0-15.37-1.55-23.06-4.65-23.06c-0.98,0-1.9,0.46-2.78,1.38c-1.34-12.4-2.01-21.26-2.01-26.59
		c10-0.31,19.35-7.22,28.04-20.75c0.1,0.31,0.15,1.18,0.15,2.61c0,2.25-0.12,6.35-0.37,12.3c-1.56,36.28-2.34,66.46-2.34,90.54
		c0,16.7,0.48,27.62,1.43,32.74c0.58,3.18,1.42,4.76,2.49,4.76c1.22,0,2.61-1.38,4.17-4.15c0.44-0.72,0.7,0.15,0.77,2.61
		C1591.28,782.65,1591.46,795.15,1591.53,811.24z M1591.24,593.27c0,6.87-1.88,12.71-5.64,17.52c-3.32,4.3-6.83,6.46-10.54,6.46
		c-3.46,0-6.31-2.71-8.53-8.15c-2.56-6.35-3.84-15.47-3.84-27.36c0-15.37,4.22-23.06,12.66-23.06c4.69,0,8.55,3.64,11.6,10.91
		C1589.81,576.36,1591.24,584.26,1591.24,593.27z"/>
	<path class="st3" d="M1644.67,751.75c0,4.2-0.07,8.35-0.22,12.45c-0.71,19.57-4.16,34.79-10.36,45.65
		c-5.73,10.15-12.97,15.22-21.7,15.22c-5.98,0-10.86-3.49-14.64-10.45c-3.25-5.94-5.22-13.27-5.93-21.98
		c-0.49-6.25-0.73-11.53-0.73-15.83c0-14.86,3.37-24.18,10.1-27.98c2.27-1.23,4.37-1.84,6.29-1.84c3.51,0,6.29,1.84,8.34,5.53
		c2.05,3.69,3.07,8.76,3.07,15.22c0,6.76-0.75,12.76-2.23,17.98c-1.85,6.56-4.66,10.97-8.42,13.22c-2.25,1.33-3.37,3.33-3.37,6
		c0,2.87,1.98,4.3,5.93,4.3c1.54,0,2.9-0.31,4.1-0.92c3.44-1.74,5.96-4.25,7.58-7.53c2.44-4.82,3.61-12.04,3.51-21.67
		c-0.32-31.25-3.99-46.88-11.02-46.88c-0.71,0-2.14,0.36-4.3,1.08c-2.16,0.72-3.69,1.08-4.59,1.08c-7.37,0-11.05-10.61-11.05-31.82
		c0-5.02,0.11-9.53,0.33-13.53c0.8-16.29,3.01-29.31,6.62-39.04c4.15-11.17,9.76-16.75,16.84-16.75c6.86,0,11.92,2.61,15.19,7.84
		c2.85,4.51,4.76,11.79,5.71,21.83c0.61,6.25,0.92,11.17,0.92,14.76c0,11.58-2.93,18.19-8.78,19.83c-1.1,0.21-2.29,0.31-3.59,0.31
		c-7.76,0-11.64-5.63-11.64-16.91c0-9.84,1.35-17.21,4.06-22.13c0.34-0.62,2.37-2.82,6.08-6.61c0.44-0.41,0.66-1.13,0.66-2.15
		c0-3.59-1.89-5.38-5.67-5.38c-7.2,0-10.8,9.02-10.8,27.05c0,4.2,0.2,8.71,0.59,13.53c0.9,10.86,2.32,18.45,4.25,22.75
		c1.59,3.59,3.77,5.38,6.55,5.38c0.95,0,2.49-0.28,4.61-0.85c2.12-0.56,3.71-0.84,4.76-0.84c4.1,0,7.17,2.61,9.22,7.84
		C1643.42,725.72,1644.67,736.48,1644.67,751.75z"/>
	<path class="st3" d="M1676.4,557.15c-1.71,16.5-3.07,38.12-4.1,64.87c-1.03,26.34-1.54,53.08-1.54,80.24
		c0,14.25,0.21,28.08,0.62,41.5c-1.32,1.54-2.94,3.64-4.87,6.3c-2.1,2.97-3.81,5.84-5.12,8.61c-2.68-22.54-4.81-50.47-6.37-83.77
		c-0.9-19.16-1.35-35.15-1.35-47.96c0-8.09,0.18-14.35,0.55-18.75c-3.32,2.15-5.7,3.9-7.14,5.23c-0.29-3.07-0.44-9.02-0.44-17.83
		c0-2.77,0.05-5.43,0.15-7.99c0-0.61,0.12-0.92,0.37-0.92c0.05,0,0.24,0.05,0.58,0.15c0.34,0.1,0.6,0.15,0.77,0.15
		c3.12,0,7.79-3.54,14.02-10.61c6-6.86,10.53-13.58,13.58-20.14C1676.23,556.23,1676.33,556.54,1676.4,557.15z M1675.27,793.56
		c0,5.84-1.49,11.79-4.46,17.83c-2.51,5.02-5.2,8.61-8.05,10.76c-1.1,0.82-2.1,1.23-3,1.23c-2.34,0-4.25-2.46-5.73-7.38
		c-1.48-4.92-2.21-10.71-2.21-17.37c0-7.69,1.68-14.09,5.05-19.21c2.83-4.2,5.65-6.3,8.45-6.3c3.03,0,5.48,2.15,7.36,6.46
		C1674.4,783.47,1675.27,788.13,1675.27,793.56z"/>
</g>
<g>
	<g>
		<path class="st4" d="M816.03,1009.01c-1.18,0-2.31-0.21-3.37-0.63c-2.72-0.95-4.85-2.65-6.34-5.06c-0.93-1.58-1.4-3.24-1.4-4.95
			c0-0.67,0.06-1.4,0.18-2.17l0.01-0.08l0.02-0.08c0.67-2.75,2.32-4.74,4.78-5.78c14.23-6.58,25.92-15.68,34.69-27.01
			c0.1-0.13,0.15-0.2-0.04-0.57c-5.8-11.57-10.79-25.16-14.84-40.46c-0.38,0.66-0.76,1.3-1.13,1.93c-1.78,3.02-4.38,4.71-7.71,5.02
			c-0.62,0.13-1.24,0.19-1.87,0.19c-1.88,0-3.68-0.48-5.4-1.43c-0.33,0.85-0.81,1.62-1.45,2.32c-1.31,1.42-3.02,2.17-4.92,2.17h-4.4
			c-2.01,0-3.8-0.78-5.16-2.25c-1.05-1.13-1.7-2.48-1.93-4.02h-23.11v37.49c0,3.03,0.6,3.62,0.61,3.63
			c0.04,0.03,0.82,0.64,4.62,0.64h19.79c2.35,0,2.91-0.89,3.1-1.18c0.32-0.51,1.11-2.34,1.5-8.3l0.01-0.11
			c0.28-2.3,1.46-4.12,3.39-5.28c1.1-0.66,2.26-0.99,3.46-0.99c0.94,0,1.89,0.21,2.84,0.62c2.39,1.09,4.27,2.78,5.63,5.04
			c1.12,1.74,1.7,3.7,1.7,5.78v1.49l-0.02,0.13c-1.11,8.41-3.11,14.06-6.09,17.28c-3.05,3.29-7.85,4.96-14.27,4.96h-22.77
			c-8.52,0-14.19-1.65-17.33-5.05c-3.11-3.35-4.62-9.39-4.62-18.48V924.3c0-4.57,1.53-8.53,4.54-11.78
			c3.05-3.29,6.79-4.96,11.13-4.96h25.8v-26.5h-32.55c-2.46,0-4.59-0.96-6.34-2.84c-1.71-1.84-2.57-4.09-2.57-6.7
			c0-2.6,0.87-4.85,2.58-6.7c1.75-1.89,3.88-2.84,6.33-2.84h35.34c4.33,0,8.07,1.67,11.13,4.96c3.01,3.25,4.54,7.21,4.54,11.78
			v30.18c8.03-13.42,14.29-30.63,18.66-51.27c0.64-2.75,2.05-4.96,4.2-6.6c1.87-1.3,3.73-1.93,5.61-1.93c0.65,0,1.32,0.07,1.99,0.21
			c2.86,0.56,5,2.08,6.34,4.51c1.01,1.66,1.53,3.42,1.53,5.24c0,0.85-0.13,1.7-0.38,2.54c-1.28,5.73-2.77,11.44-4.42,16.98h44.41
			c2.56,0,4.77,0.99,6.57,2.93c1.76,1.9,2.65,4.21,2.65,6.87c0,2.67-0.9,4.96-2.68,6.81c-1.8,1.87-4,2.82-6.55,2.82h-3.7
			c-4.1,26.37-10.99,48.26-20.47,65.08c-0.18,0.34-0.12,0.51,0.06,0.76c3.68,5.29,7.79,10.13,12.23,14.36
			c4.41,4.21,9.32,7.85,14.59,10.8c2.31,1.32,3.74,3.46,4.14,6.2c0.12,0.63,0.18,1.25,0.18,1.82c0,2.02-0.61,3.85-1.82,5.44
			c-1.69,2.35-3.89,3.97-6.5,4.77c-1.08,0.29-2.05,0.43-2.95,0.43c-1.71,0-3.42-0.49-5.09-1.46c-10.34-6.42-19.43-15.01-27.07-25.54
			c-9.16,10.94-20.97,20.06-35.11,27.13c-1.38,0.68-2.83,1.08-4.33,1.22l-0.09,0.01h-0.09V1009.01z M842.6,898
			c3.4,17.57,8.02,32.84,13.73,45.49c5.57-11.99,9.81-27.27,12.62-45.49H842.6z"/>
		<path class="st4" d="M1022.71,1010.71c-1.36,0-2.81-0.06-4.32-0.17c-2.48-0.02-4.67-0.92-6.49-2.68
			c-1.71-1.65-2.95-3.74-3.67-6.22c-0.57-2.17-0.27-4.21,0.87-5.97c1.2-1.87,2.98-2.86,5.13-2.86l0.16,0.01
			c2.83,0.22,6.16,0.33,9.9,0.33c2.76,0,3.63-0.62,3.87-0.88c0.75-0.89,2.77-5.35,4.15-25.96h-79.33c-0.59,0-1.09,0.18-1.57,0.57
			c-1.63,1.34-3.1,2.52-4.39,3.52c1.37,0.92,2.48,2.19,3.32,3.79c0.89,1.54,1.35,3.23,1.35,5.03c0,0.85-0.13,1.76-0.38,2.71
			c-2.14,8.56-5.21,15.58-9.12,20.85c-1.44,1.97-3.37,3.14-5.72,3.48c-0.47,0.14-0.99,0.21-1.54,0.21c-1.88,0-3.65-0.58-5.25-1.73
			c-1.78-1.18-2.9-3.02-3.17-5.28c-0.27-2.19,0.21-4.19,1.44-5.96c2.8-3.94,5.13-8.89,6.94-14.75c-1.89,1.16-3.87,2.3-5.92,3.41
			c-1.4,0.82-2.95,1.26-4.56,1.26c-0.94,0-1.88-0.14-2.79-0.43c-2.45-0.83-4.37-2.34-5.77-4.5c-1.07-1.46-1.61-3.04-1.61-4.69
			c0-0.65,0.13-1.36,0.4-2.1c0.57-2.31,1.95-4.07,4-5.11c13.07-6.18,23.61-13.85,31.4-22.85c-3.95-0.22-7.38-1.88-10.22-4.94
			c-3.01-3.25-4.54-7.21-4.54-11.78v-29.66c0-2.82,1.01-5.2,2.99-7.05l0.11-0.09c1.62-1.31,3.41-1.97,5.34-1.97h1.61l0.33,0.12
			c0.1,0.04,0.18,0.05,0.26,0.05s0.17-0.02,0.26-0.05l0.08-0.03l0.08-0.02c7.52-2,14.45-4.36,20.61-7.02
			c1.22-0.48,2.43-0.71,3.66-0.71c0.27,0,0.55,0.01,0.83,0.03c0.7,0,1.44,0.07,2.25,0.19l0.08,0.01l0.08,0.02
			c2.26,0.54,4.24,1.71,5.87,3.47c1.48,1.6,2.03,3.64,1.6,5.89c-0.44,2.32-1.8,3.98-3.92,4.79c-7.46,2.83-15.79,5.25-24.79,7.17
			c0,0.03,0,0.07,0,0.11v5.29h21.56c2,0,3.79,0.78,5.16,2.25c1.35,1.46,2.03,3.23,2.03,5.26c0,2.02-0.67,3.8-1.99,5.3
			c-1.37,1.55-3.17,2.37-5.19,2.37h-21.56v5.49h66.83v-5.49h-21.71c-2.03,0-3.83-0.82-5.19-2.38c-1.32-1.49-1.99-3.28-1.99-5.3
			c0-2.04,0.68-3.81,2.03-5.26c1.36-1.47,3.15-2.25,5.16-2.25h21.71v-5.32h-24.07c-2.03,0-3.83-0.82-5.19-2.38
			c-1.32-1.49-1.99-3.31-1.99-5.39s0.67-3.89,1.99-5.39c1.37-1.55,3.16-2.37,5.19-2.37h26.07c4.33,0,8.08,1.67,11.13,4.96
			c3.01,3.25,4.54,7.21,4.54,11.78V927c0,4.57-1.53,8.53-4.54,11.78c-3.05,3.29-6.79,4.96-11.13,4.96h-49
			c-0.33,0-0.58,0.08-0.87,0.5c-1.14,1.73-2.4,3.46-3.73,5.16h68.21c4.24,0,7.91,1.71,10.92,5.08c2.63,2.97,3.96,6.5,3.96,10.48
			v1.25v0.06c-0.73,11.43-1.64,20.1-2.7,25.75c-1.12,5.99-2.65,10.08-4.67,12.52c-2.99,3.36-7.05,5.23-12.13,5.63
			C1029.42,1010.54,1026.56,1010.71,1022.71,1010.71z M968.7,1004.83c-1.77,0-3.38-0.65-4.81-1.92c-1.66-1.49-2.57-3.38-2.7-5.6
			c-0.51-5.59-1.5-11.6-2.94-17.8c-0.55-2.07-0.26-4.08,0.88-5.91c1.16-1.88,2.87-2.96,4.94-3.14c0.39-0.05,0.77-0.08,1.15-0.08
			c1.72,0,3.34,0.51,4.82,1.51c1.79,1.22,3.03,2.92,3.69,5.05c1.61,6.26,2.74,12.34,3.38,18.17l0.01,0.1
			c0.13,2.3-0.51,4.37-1.91,6.17c-1.4,1.79-3.2,2.92-5.34,3.36l-0.11,0.02C969.4,1004.81,969.04,1004.83,968.7,1004.83z
			 M993.97,999.41c-1.37,0-2.7-0.42-3.93-1.24c-1.78-1.18-2.95-2.83-3.5-4.88c-1.22-4.49-2.98-9.42-5.24-14.63
			c-0.74-1.91-0.74-3.75-0.02-5.53c0.74-1.83,2.14-3.14,4.05-3.78c0.89-0.26,1.7-0.37,2.49-0.37c1.21,0,2.39,0.27,3.53,0.79
			c1.88,0.87,3.31,2.26,4.25,4.14c2.45,4.94,4.39,10.01,5.78,15.06c0.68,2.11,0.47,4.19-0.63,6.2c-1.1,2-2.68,3.31-4.71,3.92
			C995.34,999.31,994.64,999.41,993.97,999.41z M1017.05,990.2c-0.83,0-1.72-0.14-2.63-0.43l-0.12-0.04
			c-1.9-0.73-3.41-2.05-4.48-3.93c-1.52-2.73-3.41-5.55-5.65-8.4c-1.18-1.43-1.63-3.25-1.26-5.24c0.37-2,1.51-3.57,3.29-4.53
			l0.11-0.05c1.24-0.57,2.53-0.86,3.84-0.86c0.65,0,1.32,0.07,1.97,0.21c2,0.43,3.7,1.46,5.03,3.04c2.38,3.04,4.47,5.93,6.27,8.67
			l0.07,0.11c1.11,1.96,1.36,4.02,0.73,6.14s-2.01,3.72-3.98,4.63C1019.08,989.98,1018.04,990.2,1017.05,990.2z M1047.05,897.32
			c-2.56,0-4.75-0.96-6.49-2.85c-1.71-1.84-2.57-4.12-2.57-6.78v-8.84H933.47v9.19c0,2.54-0.84,4.74-2.5,6.53
			c-1.7,1.83-3.8,2.76-6.26,2.76s-4.56-0.93-6.26-2.76c-1.65-1.78-2.5-3.98-2.5-6.53v-10.51c0-4.57,1.53-8.53,4.54-11.78
			c3.05-3.29,6.79-4.96,11.13-4.96h44.8v-3.08c0-2.66,0.92-5,2.73-6.95c1.85-2,4.12-3.01,6.73-3.01s4.87,1.01,6.73,3.01
			c1.81,1.96,2.73,4.3,2.73,6.95v3.08h45.11c4.33,0,8.07,1.67,11.13,4.96c3.01,3.25,4.54,7.21,4.54,11.78v10.17
			c0,2.66-0.87,4.94-2.57,6.78C1051.79,896.36,1049.61,897.32,1047.05,897.32z"/>
		<path class="st4" d="M1177.4,1010.2c-8.71,0-14.44-1.2-17.51-3.66c-3.2-2.57-4.75-7.24-4.75-14.27v-18.5h-9.78
			c-0.04,0-0.07,0-0.09,0c-0.01,0.02-0.02,0.04-0.03,0.07c-2.17,8.86-6.04,16.22-11.48,21.86s-13.59,10.26-24.22,13.73l-0.1,0.03
			c-1.01,0.27-1.97,0.41-2.88,0.41c-1.39,0-2.8-0.27-4.18-0.82l-0.14-0.06c-2.24-1.07-4.05-2.76-5.4-5.01
			c-0.71-1.23-1.07-2.48-1.07-3.74c0-0.77,0.14-1.6,0.41-2.46c0.75-2.28,2.29-3.74,4.44-4.24c7.86-2.15,13.86-4.95,17.76-8.3
			c3.55-3.06,6.2-6.92,7.89-11.48h-1.96c-4.33,0-8.07-1.67-11.13-4.96c-3.01-3.25-4.54-7.21-4.54-11.78v-15.76
			c0-4.56,1.52-8.55,4.52-11.85c3.05-3.36,6.8-5.06,11.14-5.06h18.05c1.51-2.72,2.69-5.1,3.5-7.07c0.22-0.53,0.48-0.96,0.76-1.31
			c-1.89-1.48-4.38-3.28-7.43-5.4v4.59c0,2.21-0.73,4.12-2.18,5.68c-1.47,1.58-3.33,2.42-5.39,2.42c-2.09,0-3.91-0.81-5.39-2.42
			c-1.45-1.56-2.18-3.47-2.18-5.68v-4.78c-3.49,3.54-7.19,6.61-11.03,9.16c-1.32,0.88-2.73,1.32-4.2,1.32
			c-0.55,0-1.11-0.06-1.66-0.19c-1.95-0.43-3.66-1.51-5.09-3.2l-0.08-0.1c-1.15-1.55-1.61-3.36-1.31-5.23
			c0.3-1.97,1.42-3.53,3.22-4.5c4.59-2.48,8.95-5.65,12.98-9.46h-8.42c-1.81,0-3.43-0.72-4.69-2.08c-1.24-1.33-1.87-2.99-1.87-4.92
			s0.63-3.58,1.87-4.92c1.26-1.36,2.88-2.08,4.69-2.08h15.59v-1.39c0-1.6,0.39-3.03,1.15-4.27h-24.79v38.51
			c0,37.27-4.28,66.33-12.72,86.37c-0.98,2.27-2.74,3.72-5.1,4.21c-0.49,0.15-1.03,0.23-1.61,0.23c-1.86,0-3.57-0.68-5.09-2.03
			c-1.89-1.77-3.14-3.86-3.75-6.26c-0.25-0.93-0.38-2.02-0.38-3.21c0-1.51,0.32-3.02,0.94-4.51c6.45-16.59,9.79-41.78,9.89-74.82
			v-39.32c0-4.57,1.53-8.53,4.54-11.78c3.05-3.29,6.79-4.96,11.13-4.96h43.39v-2.92c0-2.76,0.91-5.17,2.71-7.18
			c1.85-2.07,4.18-3.12,6.91-3.12c2.71,0,5.06,1.04,6.96,3.1c1.87,2.02,2.81,4.44,2.81,7.21v2.92h52.02c2.23,0,4.19,0.86,5.83,2.56
			c1.62,1.68,2.45,3.75,2.45,6.14c0,2.38-0.81,4.46-2.42,6.19c-1.64,1.77-3.62,2.67-5.86,2.67h-18.65c0.78,1.28,1.18,2.71,1.18,4.27
			v1.39h17c1.78,0,3.41,0.71,4.72,2.04c1.32,1.34,1.99,3.01,1.99,4.96s-0.67,3.62-1.99,4.96c-1.31,1.33-2.94,2.04-4.72,2.04h-9.34
			c4,3.49,8.52,6.67,13.47,9.48c1.7,1,2.73,2.58,3.03,4.58c0.3,2.01-0.26,3.84-1.61,5.3c-1.38,1.62-3.06,2.7-4.94,3.13
			c-0.59,0.14-1.19,0.2-1.79,0.2c-1.36,0-2.75-0.35-4.12-1.04l-0.13-0.07l-0.12-0.09c-3.87-2.75-7.71-6.01-11.45-9.71v5.2
			c0,2.19-0.7,4.08-2.07,5.64c-1.42,1.61-3.32,2.46-5.51,2.46c-2.19,0-4.06-0.81-5.55-2.42c-1.45-1.56-2.18-3.47-2.18-5.68v-4.45
			c-4.42,4.45-9.15,8.18-14.1,11.09l-0.15,0.08c-0.56,0.27-1.13,0.41-1.71,0.41c-0.33,0-0.71-0.04-1.13-0.18
			c-0.44,0.64-0.97,1.39-1.58,2.24h31.19c4.33,0,8.07,1.67,11.13,4.96c3.01,3.25,4.54,7.27,4.54,11.95v16.78
			c0,4.22-1.42,7.92-4.21,11c-1.12,1.24-2.35,2.23-3.68,2.99c0.61-0.15,1.22-0.23,1.81-0.23c1.68,0,4.11,0.58,6.16,3.35l0.06,0.09
			c2.13,3.22,4.02,6.49,5.62,9.71c0.1,0.17,0.21,0.22,0.25,0.24l0.09,0.04c2.63,1.29,4.75,3.19,6.3,5.64
			c1.04,1.69,1.57,3.47,1.57,5.31c0,0.96-0.13,1.93-0.38,2.88l-0.03,0.1c-1.3,4.07-3.33,6.97-6.04,8.64
			c-2.65,1.63-6.33,2.41-11.25,2.41L1177.4,1010.2L1177.4,1010.2z M1172.02,992.27c0,1.28,0.26,2,0.52,2.14
			c0.19,0.1,1.37,0.61,6.11,0.61H1203c2.22,0,3.02-0.43,3.26-0.61c0.08-0.06,0.25-0.22,0.45-0.59c-0.52-0.1-1.04-0.29-1.53-0.55
			c-1.07-0.58-1.95-1.4-2.63-2.44c-3.17,0.41-7.26,0.83-12.2,1.23c-5.41,0.45-8.94,0.78-10.48,1c-0.3,0.03-0.51,0.04-0.71,0.04
			c-1.46,0-2.81-0.51-4-1.51c-1.31-1.1-2.12-2.53-2.41-4.25l-0.01-0.08l-0.01-0.08c-0.15-1.74,0.28-3.29,1.26-4.59
			c1.01-1.35,2.45-2.14,4.15-2.31l0.1-0.01h0.11c0.64-2.41,1.15-4.58,1.51-6.51h-7.85v18.51H1172.02z M1193.57,973.84
			c-0.24,0.84-0.62,2.02-1.17,3.58c-0.34,0.98-0.62,1.8-0.83,2.46l4.75-0.18c-0.46-1.25-0.5-2.54-0.12-3.84
			c0.34-1.16,0.96-2.09,1.82-2.74c-1.35,0.42-2.78,0.64-4.29,0.64c-0.09,0-0.13,0.01-0.13,0.01
			C1193.61,973.77,1193.59,973.8,1193.57,973.84z M1190.95,959.93v-4.81h-24.27v4.81H1190.95z M1149.33,959.93v-4.81h-23.8v4.81
			H1149.33z M1190.95,942.81v-4.64h-24.27v4.64H1190.95z M1149.33,942.81v-4.64h-23.8v4.64H1149.33z M1158.3,915.88
			c-0.28-1.14-0.3-2.34-0.06-3.57c0.47-2.38,1.67-4.26,3.57-5.58l0.08-0.05l0.08-0.05c4.14-2.32,7.99-5.16,11.47-8.46h-6.25
			c-1.78,0-3.42-0.71-4.73-2.04c-1.32-1.34-1.99-3.01-1.99-4.96s0.67-3.62,1.99-4.96c1.31-1.34,2.94-2.04,4.73-2.04h13.08v-1.39
			c0-1.56,0.41-3,1.22-4.27h-43.44c0.76,1.24,1.15,2.67,1.15,4.27v1.39h14.33c1.78,0,3.41,0.71,4.72,2.04
			c1.32,1.34,1.99,3.01,1.99,4.96s-0.67,3.62-1.99,4.96c-1.31,1.33-2.94,2.04-4.72,2.04h-10.11c2.24,1.13,4.57,2.37,6.99,3.71
			c2.79,1.37,4.53,3.76,4.94,6.87c0.12,0.68,0.18,1.35,0.18,2c0,1.57-0.37,3.07-1.11,4.49L1158.3,915.88z"/>
		<path class="st4" d="M1372.45,1008c-0.99,0-2.04-0.22-3.11-0.66c-2.46-0.98-4.3-2.75-5.46-5.25c-0.75-1.61-1.47-3.24-2.17-4.83
			c-0.07-0.11-0.12-0.14-0.12-0.14l-0.15,0.02c-8.69,0.68-33.5,2.6-74.44,5.76l-0.15,0.01h-0.63c-2.36,0-4.49-0.79-6.32-2.34
			c-2.06-1.81-3.29-4.11-3.67-6.84l-0.02-0.14v-1.32c0-2.11,0.65-4.1,1.94-5.91c1.64-2.22,3.84-3.4,6.55-3.55l3.99-0.17
			c0.03-0.04,0.06-0.1,0.11-0.2c5.88-13.01,11.24-28.03,15.94-44.62h-20.72c-2.46,0-4.61-0.99-6.41-2.93
			c-1.76-1.9-2.65-4.18-2.65-6.78c0-2.61,0.9-4.88,2.68-6.72c1.8-1.87,3.95-2.82,6.39-2.82h34.12v-24.81h-25.96
			c-2.58,0-4.77-1-6.52-2.96c-1.69-1.89-2.55-4.17-2.55-6.75c0-2.6,0.87-4.85,2.57-6.7c1.75-1.89,3.93-2.84,6.49-2.84h25.96v-16.47
			c0-2.77,0.95-5.2,2.81-7.21c1.9-2.06,4.25-3.1,6.96-3.1c2.73,0,5.05,1.05,6.91,3.12c1.8,2.01,2.71,4.43,2.71,7.18v16.47h27.68
			c2.44,0,4.59,0.95,6.39,2.82c1.78,1.85,2.68,4.11,2.68,6.73c0,2.6-0.89,4.88-2.65,6.78c-1.8,1.94-3.96,2.93-6.41,2.93h-27.68
			v24.81h35.22c2.44,0,4.59,0.95,6.39,2.82c1.78,1.85,2.68,4.11,2.68,6.73c0,2.6-0.89,4.88-2.65,6.78c-1.8,1.94-3.96,2.93-6.41,2.93
			h-45.86c-0.12,0-0.18,0.02-0.2,0.03c-0.01,0.01-0.07,0.07-0.13,0.22c-5.43,15.51-11.22,30.11-17.24,43.45
			c10.2-0.63,24.04-1.45,42.19-2.51c-2.84-4.73-5.81-9.29-8.82-13.56c-1.07-1.43-1.62-3.15-1.62-5.05c0-0.57,0.06-1.21,0.19-1.89
			c0.55-2.53,1.91-4.44,4.07-5.75l0.09-0.05c1.55-0.83,3.24-1.26,5.03-1.26c0.73,0,1.48,0.07,2.23,0.2c2.65,0.57,4.74,1.91,6.28,4
			c9.35,12.7,16.86,24.89,22.34,36.25c0.76,1.64,1.14,3.29,1.14,4.94c0,1.12-0.2,2.25-0.58,3.37c-0.85,2.9-2.54,5.12-4.98,6.51
			C1375.46,1007.56,1373.96,1008,1372.45,1008z M1337.56,919.04L1337.56,919.04z M1337.56,893.3L1337.56,893.3z M1337.56,874.97
			L1337.56,874.97z M1249.17,1004.95c-1.91,0-3.69-0.65-5.3-1.93c-2.31-1.68-3.68-4.01-4.07-6.92c-0.11-0.73-0.17-1.46-0.17-2.13
			c0-2.02,0.5-3.99,1.49-5.85c7.4-12.71,14.4-26.28,20.83-40.4c1.09-2.36,2.97-3.91,5.44-4.5c0.54-0.14,1.14-0.22,1.72-0.22
			c1.75,0,3.41,0.68,4.94,2.03c2.01,1.9,3.27,4.18,3.77,6.83c0.24,0.93,0.36,1.88,0.36,2.81c0,1.74-0.37,3.48-1.1,5.19
			c-5.96,13.43-12.59,26.99-19.71,40.32l-0.05,0.09c-1.44,2.4-3.52,3.91-6.16,4.48C1250.49,1004.87,1249.82,1004.95,1249.17,1004.95
			z M1262.36,925.63c-1.84,0-3.58-0.5-5.15-1.49c-5.56-3.67-11.65-6.98-18.12-9.87c-2.13-1.07-3.57-2.76-4.37-5.07l-0.05-0.14
			l-0.03-0.15c-0.13-0.68-0.19-1.43-0.19-2.23c0-1.5,0.42-2.94,1.24-4.27c1.26-2.18,3.16-3.74,5.61-4.57
			c1.12-0.4,2.25-0.62,3.31-0.62c1.25,0,2.51,0.2,3.76,0.61l0.15,0.06c6.88,2.86,13.2,6.04,18.81,9.46c2.21,1.26,3.64,3.32,4.19,6.1
			c0.25,0.74,0.38,1.54,0.38,2.39c0,1.84-0.52,3.62-1.55,5.29c-1.46,2.29-3.46,3.72-5.97,4.29
			C1263.7,925.55,1263.03,925.63,1262.36,925.63z M1271.16,880.03c-2,0-3.82-0.58-5.41-1.73c-5.35-3.88-11.44-7.59-18.12-11.03
			c-2.08-1.05-3.46-2.79-4.08-5.17c-0.62-2.37-0.24-4.62,1.13-6.69l0.06-0.09c1.5-2.02,3.46-3.45,5.83-4.26l0.13-0.04
			c1.01-0.27,1.97-0.41,2.87-0.41c1.42,0,2.79,0.28,4.09,0.84c7.03,3.22,13.36,6.75,18.87,10.53c2.26,1.58,3.6,3.81,3.99,6.63
			c0.12,0.62,0.18,1.17,0.18,1.63c0,2.11-0.65,4.03-1.93,5.73c-1.46,2.25-3.48,3.61-6.01,4.04l-0.17,0.03h-1.43V880.03z"/>
	</g>
</g>
<path class="st5" d="M667.15,1017.89h-74.22c-28.48,0-51.56-23.09-51.56-51.56V892.1c0-28.48,23.09-51.56,51.56-51.56h74.22
	c28.48,0,51.56,23.09,51.56,51.56v74.22C718.71,994.8,695.62,1017.89,667.15,1017.89z"/>
<rect x="936.18" y="957.89" class="st6" width="502.82" height="5.63"/>
</svg>
