<?xml version="1.0" encoding="utf-8"?>
<!-- Generator: Adobe Illustrator 23.0.5, SVG Export Plug-In . SVG Version: 6.00 Build 0)  -->
<svg version="1.1" id="圖層_1" xmlns="http://www.w3.org/2000/svg" xmlns:xlink="http://www.w3.org/1999/xlink" x="0px" y="0px"
	 viewBox="0 0 1920 1080" style="enable-background:new 0 0 1920 1080;" xml:space="preserve">
<style type="text/css">
	.st0{fill:#4F380F;}
	.st1{fill:#AA8B5B;}
	.st2{fill:#935A07;}
	.st3{fill:#C2F5F9;}
	.st4{fill:#8B5C9B;}
	.st5{fill:#EDF76D;}
	.st6{fill:#F41C1C;}
	.st7{fill:#F7AC34;}
	.st8{fill:#33CCFF;}
	.st9{fill:#84CE88;}
	.st10{fill:#0000CC;}
	.st11{fill:#FF69F8;}
	.st12{fill:#06F9F2;}
	.st13{fill:#FFFFFF;stroke:#000000;stroke-width:3;stroke-miterlimit:10;}
	.st14{fill:#FFFFFF;stroke:#000000;stroke-width:6;stroke-miterlimit:10;}
	.st15{fill:none;}
</style>
<rect x="547.75" y="28.75" class="st0" width="825.25" height="982.24"/>
<rect x="590.65" y="60.69" class="st1" width="739.44" height="918.37"/>
<rect x="574.5" y="251.01" class="st0" width="768.04" height="37.7"/>
<rect x="576.62" y="499.19" class="st0" width="768.04" height="37.7"/>
<rect x="576.62" y="747.37" class="st0" width="768.04" height="37.7"/>
<rect x="548.01" y="978.79" class="st0" width="42.37" height="71.21"/>
<rect x="1329.83" y="978.79" class="st0" width="42.37" height="71.21"/>
<g>
	<path class="st2" d="M590.01,114.43l29.44-25.91c4.93,7.71,9.87,15.41,14.8,23.12c-7.68,6.76-15.37,13.53-23.05,20.29
		C604.13,126.09,597.07,120.26,590.01,114.43z"/>
</g>
<polygon class="st3" points="651.42,110.26 607.23,148.39 599.29,139.4 643.48,101.27 "/>
<polygon class="st3" points="651.12,131.26 629.03,150.32 618.63,138.55 640.73,119.48 "/>
<ellipse transform="matrix(0.7168 -0.6973 0.6973 0.7168 61.9395 528.4697)" class="st3" cx="681.55" cy="187.98" rx="59.28" ry="65.99"/>
<path class="st4" d="M626.13,190.78c0.65,1.76,1.35,3.51,2.11,5.26c15.26,34.87,48.82,54.07,74.95,42.89
	c26.13-11.18,34.95-48.5,19.69-83.37c-0.77-1.75-1.58-3.46-2.43-5.12L626.13,190.78z"/>
<g>
	<g>
		<path class="st2" d="M929.27,89.04l39.91-0.34c-1.43,8.03-2.86,16.06-4.29,24.1c-10.42,0.09-20.84,0.18-31.25,0.27
			C932.18,105.06,930.72,97.05,929.27,89.04z"/>
	</g>
	<rect x="919.53" y="111.19" class="st3" width="59.4" height="10.64"/>
	<rect x="934.86" y="121.82" class="st3" width="29.7" height="13.93"/>
	<ellipse class="st3" cx="949.54" cy="191.46" rx="60.36" ry="58.5"/>
	<path class="st5" d="M897.67,177.03c-0.12,1.66-0.18,3.34-0.18,5.04c0,33.86,23.38,61.31,52.21,61.31s52.21-27.45,52.21-61.31
		c0-1.7-0.06-3.38-0.18-5.04H897.67z"/>
</g>
<g>
	<path class="st2" d="M1261.58,167.31l0.57,39.12c-7.55-1.35-15.11-2.71-22.66-4.06c-0.15-10.21-0.3-20.42-0.45-30.63
		C1246.56,170.26,1254.07,168.79,1261.58,167.31z"/>
</g>
<rect x="1206.8" y="182.04" transform="matrix(6.389963e-03 1 -1 6.389963e-03 1415.043 -1050.0447)" class="st3" width="58.23" height="9.99"/>
<rect x="1209.82" y="181.03" transform="matrix(6.389963e-03 1 -1 6.389963e-03 1404.1235 -1037.9719)" class="st3" width="29.11" height="13.08"/>
<ellipse transform="matrix(1 -7.309808e-03 7.309808e-03 1 -1.3416 8.5246)" class="st3" cx="1165.5" cy="187.79" rx="54.95" ry="59.16"/>
<path class="st6" d="M1120.2,176.22c-0.15,1.56-0.26,3.13-0.32,4.72c-1.06,31.75,18.83,58.18,44.43,59.01s47.22-24.23,48.28-55.98
	c0.05-1.59,0.05-3.17,0-4.73L1120.2,176.22z"/>
<g>
	<g>
		<path class="st2" d="M654.86,333.04l37.83-0.35c-1.35,8.29-2.71,16.59-4.06,24.88c-9.87,0.09-19.75,0.18-29.62,0.28
			C657.62,349.58,656.24,341.31,654.86,333.04z"/>
	</g>
	<rect x="645.63" y="355.91" class="st3" width="56.3" height="10.98"/>
	<rect x="660.16" y="366.89" class="st3" width="28.15" height="14.38"/>
	<ellipse class="st3" cx="674.08" cy="438.79" rx="57.21" ry="60.4"/>
	<path class="st7" d="M624.91,423.89c-0.11,1.72-0.17,3.45-0.17,5.21c0,34.96,22.16,63.3,49.49,63.3s49.49-28.34,49.49-63.3
		c0-1.75-0.06-3.49-0.17-5.21H624.91z"/>
</g>
<g>
	<path class="st2" d="M1303.75,352.13l28.1,24.51c-6.32,4.97-12.65,9.94-18.97,14.91c-7.34-6.4-14.67-12.8-22.01-19.2
		C1295.17,365.62,1299.46,358.88,1303.75,352.13z"/>
</g>
<polygon class="st3" points="1316.7,406.85 1275.21,370 1282.27,362.24 1323.75,399.09 "/>
<polygon class="st3" points="1297.43,408.09 1276.68,389.66 1285.92,379.51 1306.66,397.93 "/>
<ellipse transform="matrix(0.825 -0.5652 0.5652 0.825 -29.5482 783.4155)" class="st3" cx="1250.01" cy="439.41" rx="57.74" ry="56.3"/>
<path class="st8" d="M1199.37,430.15c0.13,1.63,0.32,3.27,0.57,4.92c4.91,32.84,30.6,56.3,57.39,52.38
	c26.79-3.91,44.52-33.71,39.62-66.55c-0.25-1.65-0.55-3.27-0.9-4.87L1199.37,430.15z"/>
<g>
	<g>
		<path class="st2" d="M808.46,570.77l39.93-0.37c-1.43,8.81-2.86,17.63-4.29,26.44c-10.42,0.1-20.84,0.2-31.27,0.29
			C811.38,588.35,809.92,579.56,808.46,570.77z"/>
	</g>
	<rect x="798.72" y="595.07" class="st3" width="59.43" height="11.67"/>
	<rect x="814.05" y="606.75" class="st3" width="29.71" height="15.29"/>
	<ellipse class="st3" cx="828.75" cy="683.17" rx="60.38" ry="64.2"/>
	<path class="st9" d="M776.85,667.33c-0.12,1.83-0.18,3.67-0.18,5.53c0,37.16,23.39,67.28,52.24,67.28s52.24-30.12,52.24-67.28
		c0-1.86-0.06-3.71-0.18-5.53H776.85z"/>
</g>
<g>
	<g>
		<path class="st2" d="M1065.89,568.68l39.93-0.38c-1.43,8.87-2.86,17.73-4.29,26.6c-10.42,0.1-20.84,0.2-31.27,0.29
			C1068.81,586.36,1067.35,577.52,1065.89,568.68z"/>
	</g>
	<rect x="1056.14" y="593.12" class="st3" width="59.43" height="11.74"/>
	<rect x="1071.48" y="604.87" class="st3" width="29.71" height="15.38"/>
	<ellipse class="st3" cx="1086.18" cy="681.74" rx="60.38" ry="64.58"/>
	<path class="st10" d="M1034.27,665.81c-0.12,1.84-0.18,3.69-0.18,5.57c0,37.38,23.39,67.68,52.24,67.68s52.24-30.3,52.24-67.68
		c0-1.87-0.06-3.73-0.18-5.57H1034.27z"/>
</g>
<g>
	<path class="st2" d="M862.52,905.6l0.96,35.31c-7.36-1.13-14.71-2.26-22.07-3.39c-0.25-9.21-0.5-18.43-0.75-27.64
		C847.95,908.44,855.24,907.02,862.52,905.6z"/>
</g>
<rect x="811.5" y="918.85" transform="matrix(0.0185 0.9998 -0.9998 0.0185 1745.8481 69.0077)" class="st3" width="52.56" height="9.71"/>
<rect x="813.43" y="917.98" transform="matrix(0.0185 0.9998 -0.9998 0.0185 1735.4758 80.8261)" class="st3" width="26.28" height="12.72"/>
<ellipse transform="matrix(0.514 -0.8578 0.8578 0.514 -419.7521 1109.5841)" class="st3" cx="769.35" cy="925.23" rx="53.4" ry="53.42"/>
<path class="st11" d="M723.49,908.36c-0.24,1.49-0.44,2.99-0.58,4.52c-2.86,30.43,15.66,57.01,41.37,59.37
	c25.7,2.36,48.85-20.4,51.71-50.83c0.14-1.53,0.23-3.04,0.27-4.55L723.49,908.36z"/>
<g>
	<path class="st2" d="M1191.82,891.07l3.03,38.3c-8.89-0.91-17.78-1.82-26.67-2.73c-0.79-10-1.58-19.99-2.37-29.99
		C1174.48,894.79,1183.15,892.93,1191.82,891.07z"/>
</g>
<polygon class="st3" points="1159.23,940.63 1155.27,883.6 1166.92,882.99 1170.87,940.02 "/>
<polygon class="st3" points="1143.02,927.63 1141.04,899.12 1156.29,898.32 1158.27,926.83 "/>
<ellipse transform="matrix(0.0234 -0.9997 0.9997 0.0234 139.5956 1975.733)" class="st3" cx="1081.01" cy="916.42" rx="58.05" ry="64.19"/>
<path class="st12" d="M1032.15,897.91c-0.39,1.51-0.73,3.05-1.02,4.61c-5.7,31.11,12.14,59.99,39.84,64.52
	c27.7,4.52,54.77-17.04,60.47-48.15c0.29-1.56,0.51-3.11,0.68-4.66L1032.15,897.91z"/>
<g>
	<g>
		<path class="st13" d="M735.52,1049.88c-2.37,0-4.55-0.85-6.49-2.52c-1.87-1.61-3.19-3.77-3.92-6.4c-0.56-2.42-0.22-4.6,1.01-6.59
			c1.24-2.01,3.07-3.08,5.29-3.08c0.13,0,0.26,0,0.4,0.01h1.82c3.01,0,4.25-0.08,4.76-0.15l0.13-0.02h0.14
			c0.46,0,0.74-0.04,0.91-0.07c0.04-0.17,0.08-0.48,0.08-0.98v-41.14c-5.99,2-7.36,2.49-7.66,2.6l-0.09,0.05l-0.18,0.06
			c-0.92,0.28-1.8,0.43-2.63,0.43c-1.51,0-3.01-0.44-4.47-1.29c-2.16-1.31-3.58-3.32-4.23-6l-0.02-0.08l-0.01-0.08
			c-0.12-0.77-0.18-1.5-0.18-2.17c0-1.8,0.45-3.55,1.34-5.19c1.31-2.4,3.25-3.98,5.77-4.7c2.4-0.68,6.5-1.92,12.2-3.71
			c0.09-0.03,0.14-0.06,0.16-0.07c0-0.01,0.01-0.08,0.01-0.22v-29.18l-9.78,0c-2.46,0-4.59-0.96-6.34-2.85
			c-1.71-1.84-2.57-4.09-2.57-6.7c0-2.61,0.88-4.85,2.6-6.64c1.75-1.81,3.87-2.73,6.31-2.73h9.78v-24.27c0-2.54,0.84-4.74,2.5-6.53
			c1.7-1.83,3.8-2.76,6.26-2.76c2.44,0,4.56,0.92,6.31,2.73c1.73,1.8,2.6,4,2.6,6.56v24.27l7.11,0c2.56,0,4.71,0.93,6.41,2.76
			c0.32,0.34,0.61,0.71,0.87,1.08c0.11-2.32,0.94-4.33,2.48-6c1.7-1.83,3.8-2.76,6.26-2.76h16.22v-19.86c0-2.43,0.84-4.57,2.5-6.36
			c1.7-1.83,3.77-2.76,6.18-2.76c2.4,0,4.48,0.93,6.18,2.76c1.66,1.79,2.5,3.93,2.5,6.36v65.59c0,9.04-0.29,17.05-0.87,23.81
			c-0.58,6.79-1.76,13.99-3.5,21.39c-1.76,7.5-4.53,14.53-8.23,20.89c-3.7,6.36-8.45,12.22-14.12,17.42l-0.06,0.06l-0.07,0.05
			c-1.82,1.4-3.82,2.11-5.93,2.11h-0.89l-0.11-0.01c-2.55-0.28-4.81-1.38-6.7-3.29c-1.63-1.62-2.47-3.69-2.47-6.15
			c0-2.64,0.98-4.81,2.9-6.44c7.48-6.78,13.11-15.14,16.72-24.85c-3.67,1.53-7.74,3.21-12.16,5.01c-1.08,0.44-2.18,0.66-3.27,0.66
			c-1.35,0-2.64-0.29-3.85-0.88c-2.24-1.13-3.87-2.89-4.89-5.24c-0.52-1.12-0.79-2.31-0.79-3.51c0-1.19,0.27-2.39,0.81-3.55
			c1.08-2.33,2.8-3.88,5.13-4.62c6.27-1.92,14.18-4.53,23.51-7.78c0.11-0.04,0.2-0.07,0.24-0.5c0.61-5.24,1.02-10.59,1.23-15.95
			l-15.1,0c-2.35,0-4.41-0.93-6.1-2.76c-1.65-1.78-2.5-3.95-2.5-6.44c0-2.49,0.84-4.66,2.5-6.44c1.7-1.83,3.75-2.76,6.1-2.76h15.12
			v-17.35l-16.22,0c-2.46,0-4.56-0.93-6.26-2.76c-0.32-0.34-0.6-0.7-0.86-1.07c-0.09,2.39-0.92,4.48-2.46,6.21
			c-1.7,1.91-3.87,2.87-6.44,2.87h-7.11v23.83l5.52-1.84l0.15-0.03c0.76-0.13,1.44-0.2,2.08-0.2c1.57,0,3.02,0.47,4.31,1.39
			c1.95,1.26,3.18,3.25,3.48,5.7c0.12,0.57,0.18,1.13,0.18,1.69c0,2.04-0.51,3.92-1.53,5.58c-1.29,2.35-3.14,3.9-5.5,4.63
			c-4.43,1.59-7.26,2.59-8.64,3.05c0,0,0,0,0,0c-0.01,0-0.04,0.09-0.04,0.31v46.61c0,4.37-0.51,7.75-1.56,10.33
			c-1.1,2.7-2.85,4.81-5.19,6.28c-3.18,1.91-7.96,2.94-14.65,3.19l-0.04,0H735.52z M833.44,1049.71c-2.52,0-4.69-1-6.44-2.96
			c-1.69-1.89-2.55-4.14-2.55-6.67v-143.9c0-2.66,0.87-4.94,2.57-6.78c1.75-1.89,3.91-2.84,6.41-2.84c2.49,0,4.67,0.95,6.47,2.82
			c1.78,1.85,2.68,4.14,2.68,6.81v19.35l17.94,0c2.33,0,4.4,0.92,6.15,2.73c1.73,1.8,2.6,4,2.6,6.56c0,2.56-0.88,4.76-2.6,6.56
			c-1.75,1.81-3.82,2.73-6.15,2.73h-17.94v17.35l16.22,0c2.35,0,4.4,0.93,6.1,2.76c1.66,1.79,2.5,3.96,2.5,6.45
			c0,2.49-0.84,4.66-2.5,6.44c-1.7,1.83-3.75,2.76-6.1,2.76h-16.22v18.88l20.46,0c2.56,0,4.71,0.93,6.41,2.76
			c1.66,1.79,2.5,4.02,2.5,6.62c0,2.6-0.84,4.83-2.5,6.61c-1.7,1.83-3.85,2.76-6.41,2.76h-20.46v32.58c0,2.54-0.89,4.8-2.65,6.7
			C838.13,1048.72,835.95,1049.71,833.44,1049.71z"/>
		<path class="st13" d="M945.96,1050.22c-2.57,0-4.91-0.87-6.94-2.59c-1.96-1.65-3.38-3.81-4.23-6.42c-0.81-2.18-0.59-4.46,0.67-6.5
			c1.24-2.01,3.07-3.08,5.29-3.08c0.15,0,0.31,0.01,0.47,0.02c4.46,0.11,8.3,0.17,11.33,0.17c2.46,0,4.44-0.05,5.9-0.16
			c1.22-0.09,1.71-0.28,1.87-0.35c0.04-0.11,0.13-0.41,0.13-1.04v-38.34l-38.68,0c-2.25,0-4.22-0.9-5.86-2.67
			c-1.6-1.73-2.42-3.81-2.42-6.19s0.81-4.46,2.42-6.19c1.64-1.77,3.62-2.67,5.86-2.67h38.16c-6.02-3.15-12.26-6.24-18.6-9.24
			c-1.89-0.78-3.18-2.4-3.62-4.64c-0.45-2.25,0.18-4.28,1.82-5.88c1.6-1.6,3.56-2.69,5.8-3.23l0.12-0.03c0.75-0.13,1.5-0.2,2.23-0.2
			c1.39,0,2.8,0.27,4.18,0.81l0.1,0.04c4.62,2.11,10.02,4.62,16.05,7.47c0.15,0.07,0.28,0.11,0.37,0.11c0.03,0,0.13,0,0.33-0.13
			c5.25-3.21,10.41-7.04,15.42-11.43h-54.35c-2.15,0-4.04-0.87-5.63-2.59c-1.55-1.67-2.34-3.69-2.34-6.02c0-2.34,0.8-4.34,2.37-5.97
			c1.59-1.64,3.47-2.47,5.6-2.47h72.21l0.12-0.07l0.28-0.06c0.67-0.14,1.33-0.21,1.99-0.21c1.96,0,3.72,0.68,5.25,2.03l2.45,1.98
			c1.7,1.38,2.64,3.29,2.78,5.68c0.14,2.39-0.67,4.45-2.34,5.97c-8.59,8.62-17.77,16.06-27.32,22.14c2.52,1.42,5.21,3.07,8.03,4.91
			c0.49,0.32,0.8,0.68,1,1.03h20.92l0.27-0.08c0.84-0.26,1.69-0.39,2.54-0.39c1.06,0,2.12,0.2,3.16,0.6l0.12,0.05l3.3,1.53
			c1.99,0.92,3.35,2.54,3.92,4.69c0.56,2.13,0.27,4.14-0.86,5.97c-6.91,11.41-13.19,20.71-18.66,27.65c-1.54,1.95-3.56,3.21-6,3.76
			l-1.8,0.39h-0.21c-1.72,0-3.38-0.49-4.94-1.46c-1.95-1.07-3.22-2.88-3.7-5.23c-0.48-2.37,0.06-4.58,1.58-6.39
			c2.96-3.89,6.04-8.38,9.17-13.36h-23.67v38.68c0,4.99-0.64,8.67-1.95,11.25c-1.39,2.73-3.99,4.77-7.72,6.07
			C965.61,1049.45,957.83,1050.22,945.96,1050.22z M892.1,1047c-1.79,0-3.46-0.59-4.96-1.75c-2.16-1.52-3.57-3.62-4.21-6.22
			c-0.25-1.06-0.37-2.07-0.37-3.02c0-1.45,0.25-2.92,0.73-4.37l0.05-0.13c4.3-10.39,7.19-22.15,8.58-34.96
			c1.4-12.92,2.11-27.08,2.11-42.07v-32.54c0-4.57,1.53-8.53,4.54-11.78c3.05-3.29,6.8-4.96,11.13-4.96h42.29v-8
			c0-3.01,0.95-5.53,2.83-7.49c1.9-1.98,4.24-2.99,6.94-2.99c2.71,0,5.06,1.04,6.96,3.1c1.87,2.02,2.81,4.5,2.81,7.38v8l50.77,0
			c2.45,0,4.58,0.96,6.33,2.84c1.71,1.85,2.58,4.1,2.58,6.7c0,2.62-0.88,4.85-2.6,6.64c-1.75,1.81-3.87,2.73-6.31,2.73H912.63v30.54
			c0,37.27-4.44,66.67-13.19,87.39c-0.94,2.47-2.85,4.13-5.48,4.73C893.43,1046.92,892.78,1047,892.1,1047z"/>
		<path class="st13" d="M1117.46,1049.88c-2.69,0-4.95-1.03-6.7-3.07c-1.68-1.95-2.53-4.27-2.53-6.9v-22.33
			c-12.98,11.85-29.07,21.3-47.89,28.11c-1.16,0.42-2.34,0.63-3.51,0.63c-1.29,0-2.64-0.27-4.03-0.82
			c-2.36-0.94-4.35-2.54-5.93-4.78c-1.38-1.78-1.8-3.97-1.16-6.27c0.66-2.37,2.19-3.96,4.43-4.61
			c14.73-4.37,27.81-10.51,38.93-18.28h-35.39c-2.35,0-4.38-0.9-6.02-2.67c-1.6-1.73-2.42-3.84-2.42-6.27s0.81-4.54,2.42-6.27
			c1.64-1.77,3.67-2.67,6.02-2.67h54.54v-5.83l-13.13,0c-0.35,0.72-0.95,1.3-1.77,1.68l-0.12,0.05l-4.47,1.72l-0.08,0.02
			c-0.59,0.17-1.18,0.26-1.76,0.26c-1.09,0-2.13-0.31-3.09-0.91c-1.07-0.67-1.86-1.6-2.32-2.75l-28.58,2.12
			c-0.19,0.02-0.39,0.02-0.59,0.02c-1.76,0-3.41-0.61-4.9-1.82l-0.09-0.08c-1.79-1.63-2.69-3.72-2.69-6.22
			c0-1.83,0.58-3.45,1.71-4.83c1.25-1.65,3.02-2.57,5.07-2.59l2.19-0.17c2.27-3.02,4.46-6.22,6.57-9.57c0.25-0.4,0.18-0.5,0.05-0.68
			c-2.86-4.07-6.81-8.79-11.75-14c-1.38-1.48-2.13-3.23-2.27-5.22c-0.14-2,0.36-3.79,1.49-5.31c1.1-1.64,2.73-2.67,4.66-2.91
			c0.28-0.04,0.55-0.05,0.82-0.05c1.06,0,2.05,0.27,2.94,0.8c1.98-3.99,3.98-8.36,5.96-13.02c0.79-2.15,2.25-3.7,4.3-4.54
			c1.03-0.42,2.08-0.64,3.12-0.64c0.95,0,1.91,0.18,2.83,0.54l0.12,0.05c1.97,0.91,3.35,2.52,3.98,4.63s0.39,4.18-0.73,6.14
			c-4.17,7.54-7.47,13.22-9.79,16.86c-0.03,0.04-0.07,0.1-0.07,0.11l0.08,0.09c0.68,0.82,1.5,1.88,2.52,3.21
			c1.46-2.69,2.88-5.36,4.21-7.94c0.91-1.98,2.44-3.43,4.5-4.25c0.99-0.39,1.98-0.58,2.96-0.58c1.06,0,2.11,0.23,3.12,0.69
			c2.02,0.8,3.39,2.34,3.97,4.45c0.57,2.08,0.28,4.06-0.85,5.9c-5.74,9.45-11.05,17.59-15.8,24.24l6.37-0.4
			c-0.18-0.52-0.37-1.07-0.59-1.65c-0.69-1.64-0.73-3.39-0.07-5.13c0.67-1.76,1.91-3.04,3.57-3.7l0.1-0.04
			c0.8-0.27,1.62-0.4,2.41-0.4c1.01,0,2.01,0.22,2.96,0.65c1.7,0.77,2.99,2.07,3.82,3.86c0.65,1.44,1.27,2.88,1.84,4.31v-26.01
			c0-4.58,1.56-8.53,4.64-11.73c3.1-3.22,6.81-4.85,11.02-4.85c0.04,0,0.07,0,0.09,0c0.01-0.03,0.03-0.06,0.04-0.11
			c0.51-1.65,0.97-3.37,1.38-5.11l0.03-0.11c0.76-2.58,2.23-4.66,4.39-6.16c1.58-1.13,3.34-1.72,5.23-1.72
			c0.56,0,1.15,0.07,1.83,0.21c2.53,0.61,4.35,2.05,5.46,4.29l0.06,0.13c0.52,1.26,0.78,2.48,0.78,3.64c0,1.13-0.2,2.26-0.58,3.37
			l-0.03,0.09l-0.69,1.49h5.43c3.9,0,7.32,1.52,10.17,4.52c1.86,1.97,3.11,4.23,3.75,6.76c1.1-1.14,2.48-1.83,4.05-2.03
			c0.28-0.04,0.55-0.05,0.82-0.05c1.03,0,2,0.24,2.89,0.73c2.32-4.17,4.39-8.46,6.15-12.75c0.95-2.21,2.46-3.75,4.51-4.64
			c1.03-0.45,2.09-0.67,3.15-0.67s2.12,0.23,3.15,0.67c1.95,0.75,3.39,2.33,4.1,4.53c0.7,2.19,0.48,4.3-0.64,6.26
			c-3.78,6.57-7.19,12.04-10.15,16.26c-0.01,0.01-0.01,0.02-0.02,0.03c0,0,0,0,0,0.01c1.26,1.36,2.28,2.5,3.06,3.42
			c1.74-2.89,3.43-5.85,5.02-8.77c1.06-2.01,2.64-3.41,4.69-4.15c0.93-0.33,1.88-0.5,2.82-0.5c1.13,0,2.26,0.24,3.36,0.72
			c2.03,0.94,3.39,2.53,3.96,4.61c0.57,2.08,0.28,4.06-0.86,5.9c-3.09,4.69-6.05,9.06-8.88,13.07c0.36-0.3,0.76-0.56,1.2-0.8
			c1.01-0.54,2.07-0.82,3.16-0.82c0.8,0,1.62,0.15,2.42,0.45c1.84,0.69,3.21,1.9,4.07,3.6c2.67,5.53,4.76,10.81,6.25,15.75
			c0.26,0.86,0.4,1.74,0.4,2.61c0,1.2-0.28,2.35-0.82,3.4c-0.8,1.83-2.07,3.26-3.79,4.26l-0.37,0.2c-0.89,0.44-1.74,0.64-2.59,0.64
			c-0.94,0-1.86-0.25-2.76-0.73c-1.29-0.69-2.25-1.72-2.82-3c-5.8,0.46-15.54,1.23-29.21,2.3c-0.21,0.01-0.41,0.02-0.6,0.02
			c-1.9,0-3.58-0.67-5-2c-1.49-1.39-2.39-3.13-2.66-5.18c-0.15-1.13-0.07-2.21,0.24-3.22c-0.65,1.14-1.43,2.21-2.36,3.21
			c-3.05,3.29-6.79,4.96-11.13,4.96H1127v5.83l55.17,0c2.35,0,4.38,0.9,6.02,2.68l2.42,2.61v3.67c0,2.43-0.81,4.54-2.42,6.27
			c-1.64,1.77-3.67,2.67-6.02,2.67h-37.83c11.2,7.61,24.84,13.51,40.64,17.58c2.4,0.51,4.02,2.05,4.69,4.46
			c0.63,2.26,0.31,4.4-0.95,6.36c-1.62,2.29-3.65,3.95-6.07,4.99c-1.45,0.57-2.86,0.84-4.25,0.84c-1.11,0-2.19-0.14-3.19-0.41
			l-0.11-0.03c-19.03-6.27-35.2-15.49-48.1-27.42v21.96c0,2.65-0.92,4.99-2.73,6.95
			C1122.41,1048.87,1120.12,1049.88,1117.46,1049.88z M1144.43,971.1c0,2.36-0.41,4.57-1.22,6.59c0.13-0.19,0.26-0.37,0.41-0.55
			c1.35-1.69,3.06-2.62,5.1-2.78l0.2-0.01c2.51-3.15,4.89-6.39,7.1-9.63c0.05-0.07,0.08-0.12,0.1-0.16l-0.05-0.07
			c-3.17-4.27-7.07-8.73-11.63-13.28V971.1z M1173.02,965.16c-2.1,2.92-4.12,5.64-6.06,8.15l7.08-0.51
			c-0.24-0.61-0.5-1.23-0.77-1.88c-0.84-1.7-0.97-3.49-0.41-5.32C1172.92,965.45,1172.97,965.3,1173.02,965.16z M1127.24,972.83
			v-7.69l-19.56,0v7.69L1127.24,972.83z M1127.24,950.63v-7.18l-19.56,0v7.18L1127.24,950.63z M1144.94,927
			c-2.67,0-4.96-1.01-6.81-3.02c-1.81-1.95-2.73-4.35-2.73-7.12v-2.24h-35.89l0,2.41c0,2.66-0.92,5-2.73,6.95
			c-1.85,2-4.12,3.01-6.73,3.01c-2.63,0-4.87-1.02-6.67-3.04c-1.74-1.95-2.63-4.28-2.63-6.92v-2.41h-27.52
			c-2.23,0-4.2-0.86-5.84-2.56c-1.62-1.67-2.45-3.74-2.45-6.13c0-2.38,0.81-4.46,2.42-6.19c1.64-1.77,3.62-2.67,5.86-2.67h27.52
			v-0.37c0-2.77,0.89-5.14,2.65-7.04c1.8-1.94,4.04-2.93,6.65-2.93c2.61,0,4.87,1.01,6.73,3.01c1.81,1.96,2.73,4.3,2.73,6.95v0.37
			h35.89v-0.2c0-2.77,0.92-5.17,2.73-7.12c1.85-2,4.14-3.01,6.81-3.01c2.66,0,4.95,1.01,6.81,3.01c1.81,1.96,2.73,4.36,2.73,7.12
			v0.2h28.31c2.25,0,4.22,0.9,5.86,2.67c1.6,1.73,2.42,3.82,2.42,6.19c0,2.39-0.82,4.46-2.45,6.14c-1.64,1.7-3.6,2.56-5.83,2.56
			h-28.31l0,2.24c0,2.77-0.92,5.17-2.73,7.12C1149.9,925.99,1147.61,927,1144.94,927z"/>
		<path class="st13" d="M1256.6,1045.98c-2.88,0-5.48-0.96-7.72-2.84c-2.27-1.93-3.89-4.45-4.84-7.48c-0.39-1-0.58-2.02-0.58-3.04
			c0-1.63,0.48-3.19,1.42-4.65c1.38-2.25,3.55-3.45,6.23-3.45h6.51l0.07,0c1.61,0.11,3.04,0.17,4.26,0.17c3.01,0,4.05-0.09,4.4-0.15
			l0.15-0.02h0.16c2.16,0,2.55-0.75,2.55-2.24V893.47c0-3.01,0.95-5.52,2.83-7.49c1.9-1.98,4.26-2.99,7.02-2.99
			c2.77,0,5.13,1.04,7.04,3.1c1.87,2.02,2.81,4.5,2.81,7.38v20.68c0,0.94,0.13,1.9,0.4,2.85c2.6,10.68,6.19,21.61,10.7,32.56
			c10.86-10.52,20.29-21.06,28.02-31.36c1.78-2.34,4.1-3.73,6.9-4.16c0.65-0.13,1.23-0.2,1.77-0.2c2.2,0,4.28,0.7,6.19,2.07
			c2.37,1.71,3.7,4.13,3.97,7.22l0.01,0.08v0.93c0,2.52-0.85,4.78-2.52,6.73c-12.9,14.71-25.02,26.82-36.04,36
			c0,0-0.01,0.01-0.01,0.01c0.01,0.02,0.02,0.05,0.04,0.08c10.74,19.44,23.82,34.02,38.85,43.28c2.28,1.45,3.69,3.6,4.21,6.42
			l0.03,0.18v1.54c0,2.22-0.65,4.27-1.94,6.08c-1.99,2.55-4.4,4.21-7.21,5c-0.87,0.27-1.8,0.41-2.74,0.41
			c-1.96,0-3.91-0.62-5.8-1.85c-18.23-12.87-33.27-32.9-44.81-59.66v53.91c0,5.54-0.67,9.74-2.06,12.85
			c-1.44,3.24-3.87,5.74-7.21,7.42c-4.45,1.97-11.84,3.08-22.66,3.43l-0.03,0H1256.6z M1216.87,1026.66c-0.46,0-0.92-0.07-1.37-0.2
			c-2.7-0.32-5.12-1.61-7.17-3.83c-1.79-1.79-2.73-4.09-2.73-6.78c0-3.11,1.09-5.57,3.25-7.32c6.98-6.11,13.34-13.82,18.87-22.88
			c6.96-11.32,12.31-24.55,15.91-39.33h-28.49c-2.67,0-4.96-1.01-6.81-3.01c-1.81-1.95-2.73-4.35-2.73-7.12
			c0-2.77,0.92-5.17,2.73-7.12c1.85-2,4.14-3.01,6.81-3.01h36.58c0.73-0.22,1.47-0.34,2.21-0.34c1.28,0,2.57,0.27,3.84,0.8
			l2.64,0.84l0.06,0.02c1.94,0.75,3.41,2.1,4.37,4.02c0.93,1.87,1.2,3.89,0.81,6c-3.79,20.22-9.72,38.2-17.62,53.44
			c-7.09,13.48-15.31,24.66-24.43,33.25C1221.58,1025.81,1219.34,1026.66,1216.87,1026.66z"/>
	</g>
</g>
<path class="st14" d="M638.15,1056.89h-74.22c-28.48,0-51.56-23.09-51.56-51.56V931.1c0-28.48,23.09-51.56,51.56-51.56h74.22
	c28.48,0,51.56,23.09,51.56,51.56v74.22C689.71,1033.8,666.62,1056.89,638.15,1056.89z"/>
<rect x="936.18" y="957.89" class="st15" width="502.82" height="5.63"/>
</svg>
