<?xml version="1.0" encoding="utf-8"?>
<!-- Generator: Adobe Illustrator 23.0.5, SVG Export Plug-In . SVG Version: 6.00 Build 0)  -->
<svg version="1.1" id="圖層_1" xmlns="http://www.w3.org/2000/svg" xmlns:xlink="http://www.w3.org/1999/xlink" x="0px" y="0px"
	 viewBox="0 0 1920 1080" style="enable-background:new 0 0 1920 1080;" xml:space="preserve">
<style type="text/css">
	.st0{fill:#783E8A;}
	.st1{fill:#2B040C;}
	.st2{fill:#878786;stroke:#000000;stroke-miterlimit:10;}
	.st3{fill:#9E9E9E;stroke:#000000;stroke-miterlimit:10;}
	.st4{fill:#AFAFAF;stroke:#000000;stroke-miterlimit:10;}
	.st5{fill:#C1C1C1;stroke:#000000;stroke-miterlimit:10;}
	.st6{fill:#D3D3D1;stroke:#000000;stroke-miterlimit:10;}
	.st7{fill:#E4E3DF;stroke:#000000;stroke-miterlimit:10;}
	.st8{fill:#F7F6D7;}
	.st9{fill:#FFFFFF;stroke:#000000;stroke-width:3;stroke-miterlimit:10;}
	.st10{fill:#FFFFFF;stroke:#000000;stroke-width:6;stroke-miterlimit:10;}
</style>
<path class="st0" d="M871.27,975.47c-125.29,5.56-250.61,9.83-375.96,12.8c-132.58,3.15-265.16,4.84-397.78,5.1
	c-7.98,0.01-13.06-9.95-9.22-18.1c62.82-133.46,125.65-266.94,188.47-400.41c1.88-3.99,5.52-6.44,9.42-6.34
	c15.47,0.4,30.93,0.77,46.4,1.11c177.67,3.99,355.39,4.85,533.16,2.56c37.8,105,79.78,271.29,13.19,390.47
	C876.55,967,873.98,971.27,871.27,975.47z"/>
<path class="st0" d="M1027.73,981.87c125.29,5.56,250.61,9.83,375.96,12.8c132.58,3.15,265.16,4.84,397.78,5.1
	c7.98,0.01,13.06-9.95,9.22-18.1c-62.82-133.46-125.65-266.94-188.47-400.41c-1.88-3.99-5.52-6.44-9.42-6.34
	c-15.47,0.4-30.93,0.77-46.4,1.11c-177.67,3.99-355.39,4.85-533.16,2.56c-37.8,105-79.78,271.29-13.19,390.47
	C1022.45,973.4,1025.02,977.67,1027.73,981.87z"/>
<path class="st0" d="M1025.17,1019c-51.67-0.42-103.33-0.86-155-1.28c-3.64-1.84-12.13-6.84-18.69-17.92
	c-6.26-10.55-7.42-20.98-7.7-25.6c34.2-2.7,70.94-4.2,109.93-3.84c36.12,0.33,70.28,2.2,102.23,5.12
	c-1.56,5.58-4.21,12.89-8.79,20.48C1039.66,1008.36,1030.68,1015.39,1025.17,1019z"/>
<path class="st1" d="M1036.16,994.68c-57.53-0.42-115.06-0.86-172.59-1.28c2.79-9.67,6.66-20.56,12.09-32.01
	c11.47-24.18,25.38-41.29,36.28-52.49c11.03-1.04,22.39-1.91,34.08-2.56c12.06-0.68,23.79-1.09,35.18-1.28
	c11.53,9.7,28.49,26.82,41.77,53.77C1029.39,971.87,1033.49,984.24,1036.16,994.68z"/>
<path class="st2" d="M874.57,965.23c-247.7-3.42-495.42-6.82-743.12-10.24c52.77-104.98,105.53-209.96,158.3-314.94
	c197.14-14.51,394.28-29.02,591.42-43.53c15.77,44.48,88.24,257.88,8.79,353.34C885.39,955.36,880.28,960.51,874.57,965.23z"/>
<path class="st3" d="M889.96,949.87c-132.83-53.5-238.09-58.22-310-52.49c-81.71,6.52-136.09,28.25-267.13,38.41
	c-75.36,5.84-137.6,5.3-179.19,3.84c52.03-114.36,104.07-228.74,156.1-343.1h590.32c12.14,27.72,101.67,237.62,28.58,334.14
	C903.42,937.56,897.26,944.03,889.96,949.87z"/>
<path class="st4" d="M917.44,920.42c-1.57,3.02-4.32,7.31-8.79,10.24c-21.65,14.16-54.01-22.9-97.84-46.09
	c-25.7-13.61-47.18-17.18-90.14-24.32c-49.18-8.18-91.86-5.68-161.6,5.12c-147.5,22.86-183.42,48.52-293.51,56.33
	c-45.99,3.26-84.14,3.19-109.93,2.56c56.8-124.18,113.59-248.37,170.39-372.55c197.14,3.42,394.28,6.82,591.42,10.24V920.42z"/>
<path class="st5" d="M917.44,920.42c-33.14-32.08-87.14-74.88-160.5-93.46c-61.16-15.49-110.13-6.7-205.57,11.52
	c-118.54,22.63-149.58,47.1-259.43,61.45c-51.4,6.72-93.54,7.75-119.82,7.68c59-125.04,117.99-250.07,176.99-375.11
	c189.82-0.42,379.62-0.86,569.44-1.28c10.88,39.84,89.86,335.27,18.69,382.79C931.83,917.62,925.33,919.96,917.44,920.42z"/>
<path class="st6" d="M937.23,914.02c-29.36-33.03-78.49-79.34-148.4-107.54c-82.67-33.35-153.55-24.93-223.16-16.64
	c-91.43,10.87-115.68,32.56-264.93,60.17c-40.28,7.45-73.56,12.35-95.64,15.36c55.7-118.64,111.39-237.27,167.09-355.9
	c189.82-0.42,379.62-0.86,569.44-1.28C940.16,643.47,938.69,778.74,937.23,914.02z"/>
<path class="st7" d="M941.62,914.02c-18.28-28.83-48.33-69.57-93.44-104.98c-122.08-95.83-262.54-80.48-378.16-67.85
	c-56.02,6.12-135.18,20.33-227.55,56.33c64.12-136.13,128.25-272.27,192.38-408.39c92.8-10.24,170.9-8.35,228.65-3.84
	c167.3,13.06,221.01,52.49,250.64,81.93c19.11,18.99,32.36,37.95,40.67,51.21C950.42,650.29,946.02,782.16,941.62,914.02z"/>
<path class="st2" d="M1024.43,971.63c247.7-3.42,495.42-6.82,743.12-10.24c-52.77-104.98-105.53-209.96-158.3-314.94
	c-197.14-14.51-394.28-29.02-591.42-43.53c-15.77,44.48-88.24,257.88-8.79,353.34C1013.61,961.76,1018.72,966.91,1024.43,971.63z"/>
<path class="st3" d="M1009.04,956.27c132.83-53.5,238.09-58.22,310-52.49c81.71,6.52,136.09,28.25,267.13,38.41
	c75.36,5.84,137.6,5.3,179.19,3.84c-52.03-114.36-104.07-228.74-156.1-343.1h-590.32c-12.14,27.72-101.67,237.62-28.58,334.14
	C995.58,943.97,1001.74,950.43,1009.04,956.27z"/>
<path class="st4" d="M981.56,926.82c1.57,3.02,4.32,7.31,8.79,10.24c21.65,14.16,54.01-22.9,97.84-46.09
	c25.7-13.61,47.18-17.18,90.14-24.32c49.18-8.18,91.86-5.68,161.6,5.12c147.5,22.86,183.42,48.52,293.51,56.33
	c45.99,3.26,84.14,3.19,109.93,2.56c-56.8-124.18-113.59-248.37-170.39-372.55c-197.14,3.42-394.28,6.82-591.42,10.24L981.56,926.82
	L981.56,926.82z"/>
<path class="st5" d="M981.56,926.82c33.14-32.08,87.14-74.88,160.5-93.46c61.16-15.49,110.13-6.7,205.57,11.52
	c118.54,22.63,149.58,47.1,259.43,61.45c51.4,6.72,93.54,7.75,119.82,7.68c-59-125.04-117.99-250.07-176.99-375.11
	c-189.82-0.42-379.62-0.86-569.44-1.28c45.79,150.66,32.07,234.12,9.53,282.93c-10.87,23.54-42.89,80.45-28.22,99.86
	C966.6,926.81,975.14,927.35,981.56,926.82z"/>
<path class="st6" d="M941.62,914.02c4.49,2.79,11.34,6.13,19.79,6.4c28.65,0.9,45.19-34.62,75.85-64.01
	c18.77-17.99,36.82-26.5,72.92-43.53c78.41-36.99,157.29-24.48,223.16-16.64c91.43,10.87,115.68,32.56,264.93,60.17
	c40.28,7.45,73.56,12.35,95.64,15.36c-55.7-118.64-111.39-237.27-167.09-355.9c-189.82-0.42-379.62-0.86-569.44-1.28
	C952.12,647.73,946.88,780.88,941.62,914.02z"/>
<path class="st7" d="M941.62,914.02c22.15-26.59,58.25-64.98,109.19-98.58c138.89-91.6,281.73-78.39,378.16-67.85
	c56.02,6.12,135.18,20.33,227.55,56.33c-64.12-136.13-128.26-272.27-192.38-408.39c-92.8-10.24-170.9-8.35-228.65-3.84
	c-167.3,13.06-221.01,52.49-250.64,81.93c-19.11,18.99-32.36,37.95-40.67,51.21C943.33,654.56,942.48,784.29,941.62,914.02z"/>
<g>
	<g>
		<path class="st8" d="M1026.6,183.66c0.43,1.87-0.11,3.05-1.6,3.51l-27.53,8.6c-1.51,0.47-2.5-0.35-2.99-2.47
			c-1.41-6.09-3.32-15.3-5.74-27.63c-2.42-12.32-4.33-21.52-5.74-27.63c-0.41-1.75-0.85-2.61-1.34-2.59
			c-0.48,0.54-1.81,10.96-3.98,31.24c-1.25,11.92-2.52,23.8-3.79,35.65c-0.2,1.55-0.66,2.57-1.39,3.05
			c-0.24,0.14-1.28,0.5-3.09,1.06c-2.69,0.84-4.44,0.74-5.24-0.31c-4.33-5.76-10.23-14.27-17.72-25.53
			c-7.96-11.88-13.85-20.43-17.67-25.64c-0.18-0.27-0.48-0.52-0.93-0.78c-0.24,0.65-0.22,1.59,0.07,2.79
			c1.36,5.91,3.54,14.75,6.52,26.5c2.99,11.75,5.16,20.59,6.52,26.5c0.48,2.11,0,3.39-1.45,3.85l-25.98,8.12
			c-1.03,0.32-1.71,0.33-2.04,0.01c-0.32-0.32-0.59-0.96-0.82-1.93c-1.52-6.58-3.52-16.55-6.01-29.92
			c-2.5-13.37-4.5-23.34-6.01-29.92c-1.62-7-4.9-20.05-9.85-39.15c-1.21-4.99-3.15-12.38-5.85-22.15l-0.43-1.51
			c-0.33-1.19,0.62-2.14,2.85-2.83c2.85-0.9,7.1-2.33,12.76-4.33c5.65-2,9.9-3.43,12.76-4.33c0.57-0.18,1.66,0.84,3.29,3.05
			l36.08,50.95c2.51,3.42,4.31,4.97,5.4,4.62c0.57-0.18,1.26-2.83,2.09-7.94c2.32-14.31,5.66-35.85,10.05-64.59
			c0.34-2.62,1.02-4.11,2.07-4.43c1.51-0.47,3.79-1.09,6.87-1.86c3.08-0.77,5.39-1.4,6.95-1.88c1.3-0.41,3.24-1.18,5.85-2.32
			c2.61-1.14,4.55-1.91,5.85-2.32c1.55-0.49,2.5,0,2.84,1.45c1.64,7.13,3.87,17.83,6.69,32.13s5.06,25,6.69,32.13
			c1.52,6.58,4.02,16.37,7.52,29.39C1022.6,167.36,1025.1,177.13,1026.6,183.66z"/>
	</g>
</g>
<g>
	<g>
		<path class="st8" d="M1495.46,313.82c-0.27,1.08-1.1,1.61-2.5,1.59c-1.67-0.05-6.52-1.43-14.55-4.17
			c-7.37-2.51-12.05-4.37-14.04-5.56c-1.65-1.01-2.42-2.74-2.31-5.18c0.42-9.23,0.21-14.33-0.62-15.26
			c-0.71-0.7-7.57-3.26-20.56-7.68c-8.76-2.98-13.49-4.3-14.19-3.96c-1.12,0.67-2.9,3.55-5.35,8.63c-2.23,4.65-4.09,6.94-5.58,6.89
			c-1.87-0.12-7.8-1.88-17.8-5.27c-7.88-2.69-11.61-4.89-11.17-6.63c0.4-1.56,11.03-18.74,31.9-51.57
			c22.6-35.49,34.95-55.02,37.02-58.61c1.19-2.07,2.2-2.97,3.02-2.69c1.4,0.47,3.51,1.36,6.34,2.65c2.84,1.29,4.98,2.18,6.42,2.68
			c1.4,0.47,3.46,1.06,6.22,1.78c2.76,0.72,4.8,1.29,6.15,1.75c0.98,0.33,1.63,1.63,1.96,3.89c0.95,7.16,2.89,31.26,5.84,72.32
			C1494.6,290.74,1495.87,312.2,1495.46,313.82z M1461.25,213.18c-1.75,2.28-5.01,7.37-9.81,15.32c-5.13,8.41-7.9,13.43-8.31,15.06
			c-0.27,1.08,1.12,2.2,4.19,3.38c1.56,0.67,4.18,1.61,7.84,2.87c3.4,1.15,5.4,1.32,6,0.49c0.18-0.27,0.34-0.67,0.47-1.2
			c0.49-1.98,0.68-7.85,0.56-17.59C1462.04,222.04,1461.72,215.95,1461.25,213.18z"/>
	</g>
</g>
<g>
	<g>
		<path class="st8" d="M429.79,245.44c0.96,1.28,0.78,2.47-0.51,3.6c-0.81,0.72-3.53,2.21-8.12,4.49c-4.6,2.29-7.48,3.62-8.64,4.01
			c-6.35,11.93-13.65,21.48-21.91,28.66c-13.29,11.56-27.49,15.9-42.63,12.99c-14.95-2.83-27.41-12.01-37.37-27.52
			c-10.19-15.87-14.55-32.59-13.1-50.17c1.48-18.15,8.96-33.08,22.41-44.8c6.53-5.68,13.62-9.59,21.24-11.7
			c8.29-2.21,16.08-1.98,23.38,0.72c1.51,0.56,2.42,1.1,2.74,1.6c1.03,1.6,1.41,6.87,1.14,15.8c-0.26,8.94-0.96,13.89-2.08,14.86
			c-0.25,0.23-1.9,0.06-4.95-0.5c-3.68-0.61-7.06-0.65-10.11-0.09c-4.58,0.79-8.86,2.91-12.81,6.35
			c-6.45,5.61-9.76,12.88-9.95,21.78c-0.22,8.23,2.15,16.19,7.1,23.9c5.24,8.17,11.21,13.03,17.92,14.61
			c6.94,1.61,13.86-0.59,20.78-6.62c4.39-3.82,8.46-9.36,12.25-16.63c-1.19-1.54-4.28-5.42-9.26-11.61
			c-3.9-4.72-6.88-8.68-8.94-11.89c-0.6-0.95-0.7-1.77-0.27-2.46c0.15-0.28,0.46-0.64,0.93-1.05c1.24-1.09,3.22-2.59,5.9-4.49
			c2.69-1.91,4.68-3.43,5.97-4.56c1.37-1.2,3.36-3.11,5.97-5.72c2.61-2.62,4.6-4.53,5.97-5.72c1.08-0.93,2.14-0.58,3.2,1.08
			c1.54,2.41,3.75,6.13,6.64,11.2c2.88,5.07,5.09,8.8,6.64,11.2c4.14,6.47,10.75,15.77,19.83,27.92L429.79,245.44z"/>
	</g>
</g>
<g>
	<g>
		<path class="st8" d="M1233.01,219.44c0,7.37,0.16,18.47,0.48,33.29c0.32,14.81,0.48,25.91,0.48,33.29c0,1.25-0.24,2.04-0.73,2.34
			c-0.11,0.06-0.8,0.19-2.09,0.37c-3.48,0.5-8.16,0.76-14.01,0.76c-7.84,0-12.83-0.26-14.97-0.76c-1.56-0.37-2.33-1.34-2.33-2.91
			c0,1,0.24-4.51,0.73-16.5c0.97-25.32,1.45-41.94,1.45-49.88c0-6.68-0.19-16.72-0.56-30.1c-0.37-13.38-0.56-23.42-0.56-30.1
			c0-1.37,0.62-2.06,1.85-2.06c1.66,0,4.18,0.09,7.53,0.28c3.35,0.19,5.86,0.28,7.53,0.28c1.66,0,4.12-0.09,7.37-0.28
			c3.24-0.19,5.71-0.28,7.37-0.28c1.56,0,2.33,0.69,2.33,2.06c0,6.7-0.31,16.72-0.92,30.1
			C1233.32,202.72,1233.01,212.76,1233.01,219.44z"/>
	</g>
</g>
<g>
	<g>
		<path class="st8" d="M642.51,161.13c-0.41,0.88-1.44,1.72-3.1,2.52c-14.29,6.53-28.64,5.24-43.02-3.88
			c-14.71-9.32-23.91-22.74-27.58-40.22c-3.63-16.96-1.41-34.05,6.65-51.3c7.8-16.69,18.78-28.09,32.95-34.21
			c14.8-6.43,29.22-5.18,43.27,3.73c15.28,9.68,24.7,22.74,28.26,39.16c0.37,1.81,0.35,3.17-0.09,4.11
			c-0.48,1.05-3.94,3.88-10.34,8.5c-6.41,4.62-10.22,7.08-11.47,7.36c-0.58,0.2-1.15,0.12-1.73-0.24c-0.24-0.15-0.9-2-2-5.53
			c-1.32-4.25-2.85-7.89-4.61-10.93c-2.7-4.56-6.06-8.1-10.06-10.65c-6.93-4.39-13.88-4.89-20.85-1.47
			c-6.43,3.17-11.58,8.88-15.42,17.13c-3.9,8.35-5.27,16.55-4.09,24.63c1.28,8.78,5.38,15.36,12.31,19.75
			c4.1,2.6,8.48,4.02,13.14,4.26c3.05,0.15,6.4-0.22,10.05-1.1c3.05-0.77,4.69-1.09,4.92-0.93c0.47,0.29,0.8,0.9,0.99,1.81
			c0.3,1.46,0.74,6.2,1.34,14.2C642.63,156.07,642.79,160.51,642.51,161.13z"/>
	</g>
</g>
<g>
	<g>
		<path class="st9" d="M771.95,1049.71c-2.37,0-4.5-0.85-6.33-2.51c-1.83-1.47-3.19-3.41-4.04-5.76c-0.72-2.17-0.49-4.29,0.63-6.19
			c1.44-2.43,3.43-2.94,4.86-2.94c0.13,0,0.26,0,0.39,0.01h9.55c0.74-0.09,0.98-0.27,1-0.29c0,0,0.1-0.21,0.1-0.76v-26.3l-31.98,0
			c-1.49,15.48-4.61,28.32-9.28,38.18c-0.98,2.11-2.7,3.52-4.96,4.06c-0.62,0.15-1.23,0.22-1.83,0.22c-1.55,0-3-0.49-4.31-1.44
			c-1.87-1.18-3.09-2.93-3.63-5.2c-0.25-0.84-0.38-1.7-0.38-2.56c0-1.28,0.26-2.56,0.78-3.81c5.85-12.74,8.8-31.73,8.8-56.52v-24.42
			c-0.68-0.08-1.57-0.39-2.45-1.34c-1.17-1.15-2.41-2.33-3.64-3.43c-1.78-1.5-2.85-3.54-3.14-6.01c-0.13-0.46-0.19-0.94-0.19-1.41
			c0-1.99,0.6-3.86,1.77-5.55c7.48-10.72,13.46-24.31,17.77-40.39c0.64-2.49,2.02-4.48,4.11-5.88c1.47-1.01,3.12-1.53,4.89-1.53
			c0.74,0,1.47,0.15,2.2,0.43c2.36,0.61,4.17,2.01,5.36,4.15c0.79,1.43,1.19,2.95,1.19,4.53c0,0.87-0.14,1.75-0.4,2.62
			c-0.26,0.91-0.53,1.81-0.8,2.67h14.12c0.55-0.16,1.1-0.25,1.64-0.25c1.16,0,2.26,0.37,3.26,1.1l2.66,1.69l0.05,0.04
			c1.61,1.16,2.73,2.74,3.33,4.68c0.6,1.94,0.56,3.87-0.11,5.75c-1.95,5.05-4.13,10.12-6.51,15.13H782c3.51,0,6.49,1.33,8.87,3.96
			c1.91,2.12,3.04,4.59,3.39,7.37c5.42-3.07,9.63-6.91,12.52-11.43c3.14-4.91,5.46-10.82,6.88-17.6h-11.4
			c-2.25,0-4.2-0.87-5.79-2.59c-1.55-1.67-2.34-3.72-2.34-6.1c0-2.38,0.79-4.43,2.34-6.11c1.59-1.72,3.54-2.59,5.79-2.59h50.1
			c4.35,0,8.07,1.71,11.07,5.08c2.73,3.08,4.12,6.72,4.12,10.82v0.85c-0.53,10.97-1.22,19.17-2.07,24.47
			c-0.9,5.66-2.17,9.44-3.88,11.54c-2.25,3.08-5.82,5-10.55,5.64c-1.88,0.24-4.48,0.36-7.96,0.36h-2.04c-0.18,0-0.36-0.01-0.54-0.02
			c0.01,0.01,0.01,0.01,0.02,0.02c1.78,1.85,2.68,4.14,2.68,6.81v6.98l17.79,0c2.35,0,4.38,0.9,6.02,2.67
			c1.6,1.73,2.42,3.84,2.42,6.27c0,2.43-0.81,4.54-2.42,6.27c-1.64,1.77-3.67,2.67-6.02,2.67h-17.79v14.81l20.77,0
			c2.35,0,4.38,0.9,6.02,2.67c1.6,1.73,2.42,3.84,2.42,6.27c0,2.42-0.8,4.55-2.39,6.33c-1.64,1.85-3.68,2.79-6.05,2.79h-20.77v20.88
			c0,2.54-0.89,4.8-2.65,6.7c-1.8,1.94-3.98,2.93-6.49,2.93c-2.52,0-4.69-1-6.44-2.96c-1.69-1.89-2.55-4.14-2.55-6.67v-20.88
			l-23.44,0c-2.37,0-4.4-0.94-6.05-2.79c-0.48-0.54-0.88-1.1-1.22-1.7v17.23c0,7.84-2.18,13.1-6.49,15.62l-0.08,0.05l-0.09,0.04
			c-3.2,1.48-8.29,2.32-15.54,2.56l-0.03,0H771.95z M794.37,1004.98c0.34-0.6,0.76-1.16,1.24-1.68c1.64-1.77,3.67-2.67,6.02-2.67
			h23.44v-14.81l-12.29,0c-0.12,0-0.18,0.02-0.2,0.03c0,0-0.07,0.05-0.15,0.26c-1.05,2.84-2.31,5.61-3.71,8.17
			c-1.06,2.15-2.76,3.59-5,4.19l-0.16,0.04c-0.74,0.13-1.44,0.2-2.08,0.2c-1.49,0-2.92-0.37-4.25-1.09l-0.1-0.06
			c-1.17-0.72-2.1-1.65-2.76-2.76V1004.98z M755.51,988.59v-13.45l-8.25,0v13.46H755.51z M778.12,988.59v-13.45l-8.09,0v13.45
			L778.12,988.59z M794.37,985.5c3.53-6.83,6.43-15.13,8.61-24.68c0.53-2.3,1.76-4.13,3.64-5.43c1.39-0.96,2.89-1.45,4.47-1.45
			c0.6,0,1.22,0.07,1.84,0.22c2.21,0.52,3.94,1.79,5.17,3.78c1.22,1.97,1.57,4.21,1.04,6.64c-0.23,1.06-0.49,2.18-0.78,3.34h6.72
			v-6.98c0-2.66,0.87-4.94,2.57-6.78c1.75-1.89,3.91-2.84,6.41-2.84c0.2,0,0.41,0.01,0.61,0.02c-1.57-1.58-2.66-3.54-3.25-5.83
			c-0.45-2.08-0.09-3.98,1.04-5.74c1.14-1.77,2.8-2.71,4.79-2.71c0.16,0,0.33,0.01,0.49,0.02c1.89,0.11,4.07,0.16,6.44,0.16l0.11,0
			c0.15,0.01,0.3,0.01,0.45,0.01l0,0c1.12,0,1.87-0.25,2.23-0.73c0.55-0.67,2.21-4.13,3.2-23.76h-18.62c0,0.02-0.01,0.04-0.01,0.06
			c-1.49,8.72-3.93,16.44-7.25,22.92c-3.37,6.56-8.2,12.32-14.37,17.11l-0.07,0.06l-0.08,0.05c-1.94,1.23-3.93,1.85-5.92,1.85
			c-0.19,0-0.37,0-0.55-0.02c-1.03-0.01-2.11-0.21-3.22-0.6c-2.03-0.6-3.94-1.62-5.71-3.04V985.5z M755.51,959.1v-12.44l-8.25,0
			v12.44L755.51,959.1z M778.12,959.1v-12.44l-8.09,0v12.44L778.12,959.1z M758.92,930.46c0.14,0,0.19-0.02,0.19-0.02
			c0,0,0.07-0.05,0.15-0.26c1.33-3.18,2.77-6.97,4.28-11.31h-11.22c-0.12,0-0.18,0.02-0.2,0.03c0,0-0.07,0.05-0.15,0.26
			c-1.65,4.24-3.25,8.05-4.76,11.31H758.92z"/>
		<path class="st9" d="M909.69,1050.05c-2.68,0-4.95-1.02-6.75-3.04c-1.74-1.95-2.63-4.28-2.63-6.93v-34.58
			c0-2.64,0.88-4.97,2.63-6.92c1.8-2.02,4.05-3.04,6.67-3.04c2.61,0,4.87,1.01,6.73,3.01c1.81,1.96,2.73,4.3,2.73,6.95v18.51
			l28.04,0v-27.49c0-2.77,0.92-5.17,2.73-7.12c0.49-0.53,1.02-1,1.57-1.39h-3.72c-7.36,0-12.6-0.72-16.03-2.2
			c-0.27-0.11-0.5-0.17-0.7-0.17c-0.14,0-0.26,0.03-0.39,0.1l-0.11,0.05c-9.76,4.53-20.3,8.67-31.31,12.29l-0.16,0.04
			c-1.08,0.26-2.14,0.39-3.14,0.39c-1.4,0-2.81-0.27-4.19-0.82c-2.51-1.08-4.5-2.76-5.97-5c-0.85-1.38-1.27-2.81-1.27-4.32
			c0-0.78,0.14-1.56,0.41-2.32c0.73-2.44,2.34-4.06,4.68-4.69c11.99-3.35,23.2-7.36,33.31-11.92c0.14-0.07,0.24-0.11,0.24-0.55
			v-25.76c0-2.42,0.83-4.58,2.47-6.42c1.7-1.91,3.81-2.87,6.28-2.87c2.47,0,4.58,0.97,6.28,2.87c1.64,1.84,2.47,4,2.47,6.42v17.38
			c15.31-8.69,27.73-18.99,36.95-30.65c1.63-2.03,3.66-3.39,6.05-4.07c0.88-0.27,1.82-0.42,2.75-0.42c1.55,0,3.06,0.35,4.49,1.05
			c2.2,1.04,3.67,2.93,4.22,5.44c0.54,2.49,0.03,4.82-1.48,6.75c-9.44,11.95-21.72,22.93-36.57,32.7h19.77
			c2.98,0,4.09-0.65,4.49-1.04c0.35-0.34,1.2-1.53,1.69-5.35c0.29-2.16,1.38-3.91,3.17-5.07c1.05-0.68,2.17-1.03,3.34-1.03
			c0.89,0,1.79,0.2,2.68,0.61c2.13,0.83,3.91,2.27,5.28,4.28l0.07,0.11c0.91,1.55,1.38,3.26,1.38,5.08v1.53l-0.03,0.17
			c-1.14,6.65-3.19,11.12-6.27,13.66c-3.07,2.53-7.77,3.76-14.39,3.76h-16.28c0.55,0.39,1.08,0.85,1.57,1.39
			c1.81,1.96,2.73,4.36,2.73,7.12v27.49l29.92,0v-18.34c0-2.77,0.92-5.17,2.73-7.12c1.85-2,4.12-3.01,6.73-3.01
			c2.61,0,4.87,1.01,6.73,3.01c1.81,1.96,2.73,4.36,2.73,7.12v33.9c0,2.77-0.92,5.16-2.73,7.12c-1.86,2-4.09,3.01-6.65,3.01h-1.88
			c-2.14,0-3.98-0.81-5.47-2.42c-1.15-1.24-1.85-2.7-2.09-4.36h-77.22c-0.24,1.76-0.97,3.31-2.17,4.61
			c-1.55,1.66-3.47,2.51-5.71,2.51H909.69z M1021.5,978.69c-0.57,0-1.18-0.07-1.84-0.22c-2.39-0.57-4.31-1.86-5.75-3.83
			c-4.76-7.04-10.81-14.3-18.03-21.64c-1.52-1.48-2.3-3.33-2.3-5.47c0-2.68,1.11-4.83,3.21-6.22c1.7-1.25,3.67-1.88,5.86-1.88
			l0.59,0c2.48,0.14,4.61,1.08,6.32,2.78c7.67,7.37,14.09,14.59,19.05,21.43c1.1,1.63,1.64,3.44,1.64,5.41
			c0,0.57-0.06,1.15-0.19,1.73c-0.4,2.51-1.6,4.56-3.55,6.11C1024.85,978.11,1023.19,978.69,1021.5,978.69z M895.86,976.15
			c-2.53,0-4.83-0.81-6.84-2.42c-1.87-1.28-2.85-3.24-2.85-5.68c0-2.35,0.83-4.37,2.48-6c5.15-4.8,9.33-10.9,12.45-18.18
			c0.91-2.24,2.46-3.91,4.6-4.92c1.21-0.58,2.37-0.87,3.45-0.87c1.04,0,2.11,0.22,3.18,0.65c2.19,0.89,3.77,2.51,4.72,4.83
			c0.5,1.09,0.78,2.28,0.78,3.46c0,1.12-0.2,2.26-0.58,3.37c-3.89,9.68-8.69,17.33-14.31,22.81c-1.8,1.81-4.09,2.8-6.79,2.94
			l-0.05,0H895.86z M958.64,944.17c-1.83,0-3.51-0.63-5.01-1.88c-5.06-3.82-10.89-7.52-17.26-10.96c-1.87-0.93-3.09-2.58-3.46-4.73
			c-0.35-2.04,0.05-3.93,1.18-5.61l0.06-0.09l0.07-0.08c0.53-0.62,1.1-1.16,1.71-1.62l-30.07,0v10.37c0,2.66-0.89,4.97-2.65,6.87
			c-1.8,1.94-4.04,2.93-6.65,2.93c-2.63,0-4.87-1.02-6.67-3.04c-1.74-1.95-2.63-4.22-2.63-6.76v-12.2c0-4.57,1.53-8.53,4.54-11.78
			c3.05-3.29,6.8-4.96,11.13-4.96h44.02v-3.59c0-3.01,0.93-5.5,2.76-7.4c1.85-1.92,4.16-2.9,6.86-2.9c2.71,0,5.03,1.01,6.88,3.01
			c1.81,1.96,2.73,4.41,2.73,7.29v3.59l45.11,0c4.33,0,8.07,1.67,11.13,4.96c3.01,3.25,4.54,7.21,4.54,11.78v11.69
			c0,2.75-0.88,5.15-2.61,7.16c-1.8,2.09-4.13,3.15-6.93,3.15c-2.78,0-5.13-1.05-6.99-3.13c-1.8-2-2.71-4.42-2.71-7.18v-9.86
			l-60.46,0c6.22,3.15,11.71,6.43,16.35,9.76c1.92,1.33,3.05,3.3,3.26,5.69c0.2,2.29-0.37,4.39-1.7,6.25
			c-1.42,1.84-3.24,2.9-5.45,3.2C959.37,944.15,959,944.17,958.64,944.17z"/>
		<path class="st9" d="M1056.37,1047.84c-1.15,0-2.36-0.2-3.6-0.61l-0.12-0.04c-2.39-0.95-4.35-2.65-5.83-5.04
			c-0.91-1.54-1.42-3.08-1.55-4.61l-0.01-0.08v-0.08c0-0.75,0.13-1.57,0.39-2.41c0.68-2.58,2.26-4.49,4.57-5.52
			c5.43-2.5,10.01-5.31,13.57-8.34c3.49-2.97,6.09-6.17,7.75-9.53c1.69-3.44,2.85-6.7,3.44-9.67c0.6-3.02,0.9-6.54,0.9-10.46v-9.83
			c0-4.57,1.53-8.53,4.54-11.78c3.05-3.29,6.79-4.96,11.13-4.96h48.68c4.33,0,8.07,1.67,11.13,4.96c3.01,3.25,4.54,7.21,4.54,11.78
			v42.71c0,2.93,0.39,3.69,0.44,3.77c0,0,0,0,0,0c0.04,0,0.67,0.33,2.74,0.33h12.72c0.79,0,1.67-0.17,2.24-2.18
			c0.44-1.56,1.04-5.55,1.42-15.72c0.15-2.4,1.27-4.27,3.25-5.45c1.1-0.66,2.26-0.99,3.46-0.99c0.94,0,1.89,0.21,2.84,0.62
			c2.49,1.21,4.45,2.93,5.91,5.15l0.06,0.09c1.22,2.11,1.84,4.33,1.84,6.59v0.93l-0.01,0.09c-0.98,11.26-2.74,18.82-5.4,23.09
			c-2.84,4.56-7.61,6.88-14.18,6.88h-16.49c-7.6,0-12.72-1.7-15.67-5.21c-2.85-3.4-4.24-9.28-4.24-17.98v-40.54l-41.86,0v8.17
			c0,5.31-0.49,10.35-1.46,14.98c-0.97,4.65-2.66,9.51-5.02,14.44c-2.41,5.02-6.05,9.76-10.83,14.09
			c-4.61,4.28-10.38,8.1-17.13,11.34l-0.07,0.03l-0.07,0.03c-1.31,0.51-2.59,0.84-3.81,0.97l-0.11,0.01H1056.37z M1069.4,952.42
			c-4.33,0-8.08-1.67-11.13-4.96c-3.01-3.25-4.54-7.21-4.54-11.78v-22.71c0-4.57,1.53-8.53,4.54-11.78
			c3.05-3.29,6.79-4.96,11.13-4.96h26.23c4.33,0,8.08,1.67,11.13,4.96c3.01,3.25,4.54,7.21,4.54,11.78v22.71
			c0,4.57-1.53,8.53-4.54,11.78c-3.05,3.29-6.8,4.96-11.13,4.96H1069.4z M1071.42,934.82L1071.42,934.82z M1092.84,934.35v-20.06
			l-21.44,0v20.06L1092.84,934.35z M1138.66,952.25c-4.33,0-8.07-1.67-11.13-4.96c-3.01-3.25-4.54-7.21-4.54-11.78v-22.54
			c0-4.57,1.53-8.53,4.54-11.78c3.05-3.29,6.79-4.96,11.13-4.96h27.8c4.33,0,8.07,1.67,11.13,4.96c3.01,3.25,4.54,7.21,4.54,11.78
			v22.54c0,4.57-1.53,8.53-4.54,11.78c-3.05,3.29-6.79,4.96-11.13,4.96H1138.66z M1163.52,934.02v-19.73l-22.7,0v19.73
			L1163.52,934.02z"/>
		<path class="st9" d="M1281.58,1049.88c-2.46,0-4.61-0.99-6.41-2.93c-1.76-1.9-2.65-4.15-2.65-6.7v-40.51
			c0-4.57,1.53-8.53,4.54-11.78c3.05-3.29,6.79-4.96,11.13-4.96h41.3c4.33,0,8.08,1.67,11.13,4.96c3.01,3.25,4.54,7.21,4.54,11.78
			v39.49c0,2.65-0.92,4.99-2.73,6.95c-1.86,2-4.1,3.01-6.65,3.01h-1.88c-2.04,0-3.83-0.81-5.31-2.42c-1.14-1.22-1.83-2.63-2.08-4.19
			h-35.77c-0.25,1.77-1,3.35-2.25,4.7c-1.6,1.72-3.54,2.59-5.79,2.59H1281.58z M1326.38,1024.18v-22.61l-35.58,0v22.61
			L1326.38,1024.18z M1290.81,1001.11L1290.81,1001.11z M1218.29,1049.88c-2.35,0-4.38-0.9-6.02-2.67c-1.6-1.73-2.42-3.84-2.42-6.27
			v-36.61c0-4.57,1.53-8.53,4.54-11.78c3.05-3.29,6.79-4.96,11.13-4.96h19.32c4.33,0,8.07,1.67,11.13,4.96
			c3.01,3.25,4.54,7.21,4.54,11.78v21.36c0,4.57-1.53,8.53-4.54,11.78c-3.05,3.29-6.79,4.96-11.13,4.96h-18.18
			c-0.24,1.87-0.99,3.5-2.25,4.87c-1.6,1.72-3.6,2.59-5.95,2.59H1218.29z M1243.45,1025.54v-20.91l-16.73,0v20.91L1243.45,1025.54z
			 M1243.44,1004.16L1243.44,1004.16z M1217.97,980.05c-2.13,0-3.98-0.8-5.52-2.39c-1.52-1.56-2.29-3.52-2.29-5.8
			c0-2.26,0.76-4.23,2.26-5.85c1.54-1.66,3.41-2.5,5.55-2.5h33.77c2.14,0,4.01,0.84,5.55,2.5c1.5,1.63,2.26,3.59,2.26,5.85
			c0,2.28-0.77,4.23-2.29,5.8c-1.54,1.58-3.4,2.39-5.52,2.39H1217.97z M1269.8,975.81c-2.47,0-4.56-0.94-6.21-2.79
			c-1.58-1.78-2.39-3.94-2.39-6.41c0-2.49,0.81-4.63,2.42-6.36c1.65-1.78,3.73-2.68,6.18-2.68h12l0.01-0.04
			c1.01-5.67,2.03-11.72,3.04-17.99h-7.66c-2.25,0-4.22-0.9-5.86-2.67c-1.6-1.73-2.42-3.84-2.42-6.27c0-2.45,0.82-4.54,2.45-6.22
			c1.65-1.7,3.61-2.56,5.84-2.56h10.27c0.22-1.65,0.53-3.83,0.94-6.6c0.42-2.84,0.56-4.1,0.59-4.66h-14.16
			c-2.36,0-4.41-0.93-6.1-2.76c-1.65-1.78-2.49-3.92-2.49-6.36c0-2.45,0.85-4.57,2.52-6.31c1.69-1.75,3.74-2.64,6.07-2.64h66.27
			c2.35,0,4.38,0.9,6.02,2.67c1.6,1.73,2.42,3.84,2.42,6.28c0,2.42-0.8,4.55-2.39,6.33c-1.64,1.85-3.68,2.79-6.05,2.79h-33.36
			l-0.01,0.06c-0.2,1.07-0.49,2.95-0.85,5.58c-0.32,2.32-0.58,4.19-0.78,5.61h19.3c4.33,0,8.07,1.67,11.13,4.96
			c3.01,3.25,4.54,7.21,4.54,11.78v19.02h5.38c2.46,0,4.53,0.9,6.18,2.67c1.6,1.73,2.42,3.87,2.42,6.36c0,2.47-0.8,4.63-2.39,6.42
			c-1.64,1.85-3.73,2.79-6.21,2.79H1269.8z M1322.76,957.57v-18.03l-19.29,0c-0.71,4.18-1.72,10.19-3.01,18.03H1322.76z
			 M1217.97,956.49c-2.15,0-4.01-0.84-5.55-2.51c-1.5-1.61-2.26-3.55-2.26-5.76c0-2.21,0.76-4.15,2.26-5.77
			c1.54-1.66,3.41-2.5,5.55-2.5h33.77c2.14,0,4.01,0.84,5.55,2.5c1.5,1.62,2.26,3.56,2.26,5.77c0,2.21-0.76,4.15-2.26,5.77
			c-1.54,1.66-3.41,2.5-5.55,2.5H1217.97z M1210.59,932.76c-2.23,0-4.22-0.91-5.74-2.62c-1.48-1.66-2.23-3.65-2.23-5.9
			c0-2.26,0.76-4.23,2.26-5.85c1.54-1.66,3.46-2.5,5.71-2.5h46.64c2.24,0,4.16,0.84,5.71,2.5c1.5,1.62,2.26,3.59,2.26,5.85
			c0,2.25-0.75,4.23-2.23,5.9c-1.52,1.72-3.51,2.62-5.74,2.62H1210.59z M1219.07,909.03c-2.23,0-4.14-0.8-5.68-2.39
			c-1.52-1.56-2.29-3.52-2.29-5.8c0-2.26,0.76-4.23,2.26-5.85c1.54-1.66,3.46-2.5,5.71-2.5h32.51c2.24,0,4.16,0.84,5.71,2.5
			c1.5,1.62,2.26,3.59,2.26,5.85c0,2.28-0.77,4.23-2.29,5.8c-1.54,1.58-3.45,2.39-5.68,2.39H1219.07z"/>
	</g>
</g>
<path class="st10" d="M638.15,1056.89h-74.22c-28.48,0-51.56-23.09-51.56-51.56V931.1c0-28.48,23.09-51.56,51.56-51.56h74.22
	c28.48,0,51.56,23.09,51.56,51.56v74.22C689.71,1033.8,666.62,1056.89,638.15,1056.89z"/>
</svg>
