<?xml version="1.0" encoding="utf-8"?>
<!-- Generator: Adobe Illustrator 23.0.5, SVG Export Plug-In . SVG Version: 6.00 Build 0)  -->
<svg version="1.1" id="圖層_1" xmlns="http://www.w3.org/2000/svg" xmlns:xlink="http://www.w3.org/1999/xlink" x="0px" y="0px"
	 viewBox="0 0 1920 1080" style="enable-background:new 0 0 1920 1080;" xml:space="preserve">
<style type="text/css">
	.st0{fill:#87888C;}
	.st1{fill:#403C3D;}
	.st2{fill:#FFFFFF;stroke:#000000;stroke-width:3;stroke-miterlimit:10;}
	.st3{fill:#FFFFFF;stroke:#000000;stroke-width:6;stroke-miterlimit:10;}
</style>
<g>
	<rect x="561.54" y="95.28" class="st0" width="62.31" height="890.92"/>
	<rect x="808.77" y="71.6" class="st0" width="62.31" height="914.6"/>
	<rect x="1056" y="83.44" class="st0" width="62.31" height="902.76"/>
	<rect x="1303.23" y="83.44" class="st0" width="62.31" height="902.76"/>
	<path class="st1" d="M367,42v996h1187V42H367z M1503.09,983.98H417.91V96.02h1085.17V983.98z"/>
</g>
<g>
	<g>
		<path class="st2" d="M925.63,1010.03l-0.1-0.01c-13.53-1.4-24.54-10.61-32.74-27.36c-7.78,7.08-15.88,13.16-24.13,18.11
			c-1.9,1.09-3.82,1.64-5.74,1.64c-0.84,0-1.64-0.07-2.39-0.2l-0.11-0.02c-2.79-0.66-5.25-2.11-7.29-4.32
			c-1.5-1.62-2.26-3.5-2.26-5.6v-1l0.02-0.15c0.41-2.64,1.79-4.66,4.01-5.86c10.68-5.65,20.83-13.18,30.17-22.38l0.07-0.07
			l0.08-0.06c0.16-0.13,0.24-0.19,0.12-0.62c-3.65-12.84-6.78-29.61-9.29-49.85l-13.49,1.49h-0.9c-2.18,0-4.11-0.74-5.74-2.21
			c-1.94-1.67-3.06-3.88-3.32-6.55l-0.01-0.1v-0.94c0-2.25,0.67-4.26,1.99-5.97c1.57-2.12,3.67-3.35,6.22-3.65l13.61-1.32
			c-1.35-17.69-2.03-29.39-2.03-34.83c0-2.51,0.8-4.72,2.36-6.55c1.91-2.06,4.2-3.07,6.86-3.07c2.65,0,4.96,1,6.86,2.99
			c1.86,1.94,2.86,4.31,2.99,7.05c0.41,12.54,1.03,23.39,1.85,32.29l39.24-4.33c0.45-0.13,0.91-0.2,1.36-0.2
			c2.08,0,4.01,0.8,5.74,2.39c1.83,1.7,2.89,3.83,3.15,6.36l0.01,0.1v0.95c0,2.25-0.67,4.26-1.99,5.97
			c-1.57,2.12-3.62,3.36-6.06,3.65l-39.52,4.35c1.52,12.98,3.5,24.69,5.9,34.86c6.34-8.57,11.62-17.18,15.73-25.63
			c1.04-2.4,2.84-4.03,5.31-4.77l0.11-0.03l0.11-0.02c0.76-0.13,1.44-0.2,2.08-0.2c1.54,0,3.01,0.45,4.38,1.34
			c2.21,1.4,3.66,3.46,4.31,6.12c0.24,0.92,0.37,1.89,0.37,2.85c0,1.5-0.32,3.02-0.94,4.5c-6.26,13.06-14.49,25.69-24.5,37.63
			c-0.24,0.27-0.29,0.34-0.16,0.66c4.99,11.92,10.81,18.46,17.3,19.44h0.17c0.32,0,1.16-0.67,2.03-3.23
			c1.1-3.03,2.02-7.78,2.73-14.15c0.3-2.42,1.55-4.17,3.62-5.08c0.83-0.36,1.68-0.55,2.52-0.55c1.22,0,2.42,0.38,3.55,1.14
			c2.29,1.56,4.05,3.59,5.25,6.04c0.87,1.88,1.3,3.82,1.3,5.79c0,0.84-0.12,1.63-0.37,2.37c-1.95,11.39-4.52,19.2-7.85,23.88
			c-3.2,4.6-7.02,6.94-11.37,6.94H925.63z M893.36,891.4L893.36,891.4z M811.4,1009.52c-2.37,0-4.55-0.85-6.49-2.52
			c-1.84-1.58-3.2-3.65-4.04-6.12c-0.71-2.28-0.42-4.52,0.82-6.53c1.31-2.12,3.25-3.24,5.63-3.24c2.72,0.11,5.56,0.17,8.53,0.17
			c0.65-0.07,0.9-0.21,0.94-0.24c-0.01-0.02,0.14-0.37,0.14-1.32v-38.25l-9.63,2.86c-0.82,0.29-1.72,0.44-2.66,0.44
			c-1.64,0-3.21-0.5-4.68-1.49c-2.23-1.3-3.69-3.3-4.33-5.97c-0.24-0.91-0.37-1.82-0.37-2.68c0-1.66,0.39-3.28,1.16-4.8l0.05-0.1
			c1.31-2.26,3.24-3.77,5.74-4.48c6.03-1.46,10.94-2.75,14.67-3.87c0.03-0.03,0.06-0.13,0.06-0.31v-30.37l-12.45,0
			c-2.46,0-4.59-0.96-6.34-2.85c-1.71-1.84-2.57-4.09-2.57-6.7c0-2.61,0.88-4.85,2.6-6.64c1.75-1.81,3.87-2.73,6.31-2.73h12.45
			v-24.1c0-2.67,0.93-4.99,2.76-6.9c1.85-1.92,4.08-2.9,6.62-2.9c2.54,0,4.77,0.98,6.62,2.9c1.83,1.91,2.76,4.23,2.76,6.9v24.1
			l9.46,0c2.56,0,4.71,0.93,6.41,2.76c1.66,1.79,2.5,4.02,2.5,6.62c0,2.59-0.83,4.83-2.47,6.67c-1.7,1.91-3.87,2.87-6.44,2.87h-9.46
			v25.3c0.65-0.17,1.7-0.47,3.38-0.99c2.4-0.73,4.24-1.26,5.61-1.6c0.73-0.29,1.52-0.43,2.35-0.43c1.46,0,2.9,0.52,4.29,1.55
			c2.03,1.34,3.24,3.42,3.51,6.01l0.01,0.1v1.29c0,1.93-0.51,3.8-1.52,5.57c-1.3,2.24-3.2,3.8-5.65,4.63
			c-5.8,1.82-9.77,3.06-11.98,3.74c0.01,0.01-0.02,0.11-0.02,0.3v43.73c0,4.61-0.52,8.05-1.57,10.53c-1.12,2.63-3.07,4.64-5.78,5.99
			c-3.35,1.85-8.78,2.87-16.57,3.11l-0.03,0H811.4z M921.02,885.63c-0.66,0-1.28-0.07-1.84-0.21c-2.46-0.44-4.5-1.73-6.05-3.82
			c-3.18-4.21-7.15-9-11.78-14.23c-1.63-1.64-2.39-3.79-2.19-6.2c0.21-2.45,1.34-4.45,3.29-5.8c1.8-1.25,3.77-1.88,5.85-1.88l0.9,0
			c2.51,0.14,4.66,1.16,6.38,3.01c4.57,4.71,8.77,9.3,12.46,13.62c1.38,1.79,2.05,3.79,2.05,6.04v1.16l-0.02,0.14
			c-0.39,2.68-1.66,4.84-3.77,6.4C924.68,885.04,922.91,885.63,921.02,885.63z"/>
		<path class="st2" d="M972.46,1011.05c-2.61,0-4.88-1.01-6.73-3.01c-1.81-1.96-2.73-4.29-2.73-6.95V871.42
			c0-4.57,1.53-8.53,4.54-11.78c3.05-3.29,6.79-4.96,11.13-4.96h32.04c4.33,0,8.07,1.67,11.13,4.96c3.01,3.25,4.54,7.21,4.54,11.78
			v30.85c0,4.57-1.53,8.53-4.54,11.78c-3.05,3.29-6.79,4.96-11.13,4.96h-28.94v82.07c0,2.64-0.88,4.97-2.63,6.92
			C977.33,1010.03,975.08,1011.05,972.46,1011.05z M1008.23,903.15v-8.88l-26.47,0v8.88L1008.23,903.15z M1008.22,893.81
			L1008.22,893.81z M1008.23,878.75v-7.86l-26.47,0v7.86L1008.23,878.75z M1008.22,870.42L1008.22,870.42z M1075.24,1010.71
			c-4.03,0-7.74-1.41-11.03-4.2c-3.37-2.79-6-6.48-7.79-10.95l-0.14-0.36v-0.05c0,0,0,0,0,0c0,0-0.05-0.02-0.2-0.02h-39.8
			c-0.17,2.2-1.02,4.15-2.54,5.8c-1.75,1.89-3.88,2.84-6.34,2.84c-2.46,0-4.59-0.96-6.33-2.84c-1.71-1.84-2.58-4.07-2.58-6.61
			v-50.51c0-4.57,1.53-8.53,4.54-11.78c3.05-3.29,6.85-4.96,11.28-4.96h32.82c4.44,0,8.21,1.67,11.22,4.98
			c2.95,3.25,4.45,7.21,4.45,11.77v46.83c2.25,0.1,7.67,0.15,16.14,0.15c1.25-0.1,1.59-0.37,1.6-0.38l0,0c0,0,0.25-0.37,0.25-1.68
			v-69.35h-30.04c-4.33,0-8.07-1.67-11.13-4.96c-3.01-3.25-4.54-7.21-4.54-11.78v-31.19c0-4.57,1.53-8.53,4.54-11.78
			c3.05-3.29,6.79-4.96,11.13-4.96h33.45c4.33,0,8.07,1.67,11.13,4.96c3.01,3.25,4.54,7.21,4.54,11.78v117.46
			c0,5.04-0.56,8.93-1.7,11.91c-1.25,3.22-3.62,5.6-7.05,7.05c-3.23,1.56-8.15,2.51-14.97,2.87l-0.05,0H1075.24z M1044.82,978.91
			v-10.4l-28.51,0v10.4L1044.82,978.91z M1044.82,952.64v-9.39l-28.51,0v9.39L1044.82,952.64z M1053.38,903.96L1053.38,903.96z
			 M1080.78,903.49v-9.22h-27.41v9.22L1080.78,903.49z M1053.38,879.21L1053.38,879.21z M1080.78,878.75v-7.86h-27.41v7.86
			L1080.78,878.75z"/>
		<path class="st2" d="M1220.75,1010.88c-2.51,0-4.69-0.99-6.49-2.93c-1.76-1.9-2.65-4.15-2.65-6.7v-25.3
			c-7.21,10.24-15.52,18.87-24.76,25.72c-1.62,1.17-3.28,1.75-4.96,1.75c-0.64,0-1.32-0.07-2.08-0.2c-2.53-0.57-4.59-1.89-6.24-3.94
			c-1.22-1.47-1.85-3.21-1.85-5.15v-1.36l0.03-0.17c0.41-2.37,1.66-4.25,3.71-5.57c9.64-6.14,18.21-14.3,25.5-24.29h-18.28
			c-2.35,0-4.35-0.87-5.94-2.59c-1.55-1.67-2.34-3.73-2.34-6.1c0-2.36,0.78-4.43,2.31-6.16c1.59-1.79,3.6-2.71,5.97-2.71h28.94
			v-10.57l-12.61,0c-4.33,0-8.07-1.67-11.13-4.96c-3.01-3.25-4.54-7.21-4.54-11.78v-30.71h-2.87c-2.06,0-3.87-0.73-5.38-2.18
			c-0.05,2.15-0.8,4.05-2.23,5.66c-1.52,1.71-3.5,2.62-5.74,2.62h-43.34c-2.24,0-4.22-0.91-5.74-2.62c-1.48-1.66-2.23-3.65-2.23-5.9
			c0-2.26,0.76-4.23,2.26-5.85c1.54-1.66,3.46-2.5,5.71-2.5h43.34c2.02,0,3.77,0.68,5.23,2.02c0.03-2.26,0.82-4.24,2.34-5.87
			c1.59-1.72,3.54-2.59,5.79-2.59h2.87l0-9.19c0-2.42,0.8-4.54,2.39-6.33c1.65-1.85,3.71-2.79,6.13-2.79c2.42,0,4.48,0.94,6.13,2.79
			c1.59,1.79,2.39,3.92,2.39,6.33v9.18l9.66,0v-13.25c0-2.43,0.81-4.54,2.42-6.28c1.64-1.77,3.7-2.67,6.1-2.67
			c2.4,0,4.45,0.9,6.1,2.67c1.6,1.73,2.42,3.84,2.42,6.28v13.25l10.45,0v-9.86c0-2.55,0.84-4.74,2.5-6.53
			c1.7-1.83,3.8-2.76,6.26-2.76c2.45,0,4.56,0.93,6.26,2.76c1.66,1.79,2.5,3.99,2.5,6.53v9.86h3.97c2.24,0,4.19,0.87,5.79,2.59
			c1.55,1.68,2.34,3.71,2.34,6.02c0,2.32-0.79,4.34-2.34,6.02c-1.59,1.72-3.54,2.59-5.79,2.59h-3.97l0,7.49
			c0,4.57-1.53,8.53-4.54,11.78c-3.05,3.29-6.79,4.96-11.13,4.96h-13.66c-4.33,0-8.07-1.67-11.13-4.96
			c-3.01-3.25-4.54-7.21-4.54-11.78v-7.49l-9.66,0v30.4l56.42,0c2.23,0,4.16,0.83,5.75,2.47c1.57,1.63,2.37,3.66,2.37,6.05
			c0,2.39-0.8,4.43-2.37,6.05c-1.59,1.64-3.52,2.47-5.75,2.47h-27.05v10.57l28.15,0c2.25,0,4.22,0.9,5.86,2.67
			c1.6,1.73,2.42,3.81,2.42,6.19c0,2.39-0.82,4.46-2.45,6.14c-1.64,1.7-3.6,2.56-5.83,2.56h-17.72
			c6.49,9.39,14.07,17.36,22.53,23.69c2.17,1.61,3.31,3.98,3.31,6.86c0,2.17-0.69,4.08-2.04,5.69c-1.62,2.01-3.68,3.33-6.11,3.88
			l-0.22,0.05h-1.48c-1.93,0-3.73-0.66-5.34-1.97l-0.08-0.07c-7.61-6.83-14.66-15.33-21.01-25.32v25.69c0,2.53-0.86,4.77-2.55,6.67
			C1225.44,1009.88,1223.27,1010.88,1220.75,1010.88z M1237.52,896.03v-8.88l-10.45,0v8.88L1237.52,896.03z M1130.6,1008.84
			c-2.28,0-4.29-0.91-5.82-2.62c-1.48-1.67-2.23-3.68-2.23-5.99v-36.95c0-4.69,1.53-8.69,4.55-11.88c3.05-3.23,6.79-4.86,11.11-4.86
			h16.8c4.33,0,8.04,1.64,11.05,4.88c2.96,3.2,4.46,7.19,4.46,11.87v21.36c0,4.58-1.53,8.52-4.55,11.71
			c-3.05,3.23-6.74,4.86-10.96,4.86h-16.27c-0.19,1.91-0.96,3.6-2.29,5.04C1134.87,1007.97,1132.9,1008.84,1130.6,1008.84z
			 M1154.12,984.51v-21.08l-15.32,0v21.08L1154.12,984.51z M1130.53,939.69c-2.15,0-4.01-0.84-5.55-2.51
			c-1.5-1.61-2.26-3.58-2.26-5.85c0-2.24,0.72-4.2,2.15-5.82c1.47-1.66,3.43-2.54,5.66-2.54h31.88c2.23,0,4.19,0.88,5.66,2.54
			c1.43,1.62,2.15,3.57,2.15,5.82c0,2.25-0.72,4.21-2.15,5.82c-1.47,1.66-3.42,2.54-5.66,2.54H1130.53z M1130.53,916.47
			c-2.15,0-4.01-0.84-5.55-2.51c-1.5-1.61-2.26-3.55-2.26-5.76c0-2.19,0.72-4.12,2.15-5.73c1.47-1.66,3.43-2.54,5.66-2.54h32.04
			c2.13,0,4.03,0.88,5.5,2.54c1.43,1.62,2.15,3.54,2.15,5.73c0,2.19-0.72,4.12-2.15,5.73c-1.46,1.66-3.37,2.54-5.5,2.54H1130.53z
			 M1131.62,870.03c-2.23,0-4.14-0.8-5.67-2.39c-1.52-1.57-2.29-3.52-2.29-5.8c0-2.26,0.76-4.23,2.26-5.85
			c1.54-1.66,3.46-2.5,5.71-2.5h30.31c2.23,0,4.19,0.88,5.66,2.54c1.43,1.61,2.15,3.57,2.15,5.82c0,2.26-0.73,4.21-2.18,5.77
			c-1.49,1.61-3.38,2.42-5.63,2.42H1131.62z"/>
	</g>
</g>
<path class="st3" d="M712.15,1017.89h-74.22c-28.48,0-51.56-23.09-51.56-51.56V892.1c0-28.48,23.09-51.56,51.56-51.56h74.22
	c28.48,0,51.56,23.09,51.56,51.56v74.22C763.71,994.8,740.62,1017.89,712.15,1017.89z"/>
</svg>
