<?xml version="1.0" encoding="utf-8"?>
<!-- Generator: Adobe Illustrator 23.0.5, SVG Export Plug-In . SVG Version: 6.00 Build 0)  -->
<svg version="1.1" id="圖層_1" xmlns="http://www.w3.org/2000/svg" xmlns:xlink="http://www.w3.org/1999/xlink" x="0px" y="0px"
	 viewBox="0 0 1920 1080" style="enable-background:new 0 0 1920 1080;" xml:space="preserve">
<style type="text/css">
	.st0{fill:#876312;stroke:#000000;stroke-miterlimit:10;}
	.st1{fill:#6B6959;stroke:#000000;stroke-miterlimit:10;}
	.st2{fill:#FFFFFF;stroke:#000000;stroke-width:6;stroke-miterlimit:10;}
	.st3{fill:#FFFFFF;}
	.st4{fill:none;stroke:#000000;stroke-width:3;stroke-miterlimit:10;}
</style>
<g>
	<rect x="992.73" y="224.59" class="st0" width="41.48" height="536.14"/>
	<path class="st1" d="M888.59,100c2.67,76.88,57.25,138.26,124.21,138.26s121.54-61.38,124.21-138.26H888.59z M1013.67,211.41
		c-48.94,0-88.83-37.76-90.78-85.05h181.56C1102.5,173.65,1062.6,211.41,1013.67,211.41z"/>
	<path class="st1" d="M1140,907.58c-9.34,20.03-25.25,47.73-52.27,76.08c-24.17,25.37-49.24,42.86-68.55,54.34
		c-20.26-10.82-46.31-27.25-71.96-51.38c-30.91-29.09-49.37-58.2-60.22-79.05c0-55.33,0-110.66,0-166h253V907.58z"/>
</g>
<path class="st2" d="M495.15,1048.89h-74.22c-28.48,0-51.56-23.09-51.56-51.56V923.1c0-28.48,23.09-51.56,51.56-51.56h74.22
	c28.48,0,51.56,23.09,51.56,51.56v74.22C546.71,1025.8,523.62,1048.89,495.15,1048.89z"/>
<g>
	<g>
		<g>
			<path class="st3" d="M588.26,1043.54c-3.87,0-7.3-1.88-10.2-5.58c-0.91-1.21-1.36-2.52-1.36-3.91c0-0.72,0.15-1.43,0.43-2.11
				c0.63-2.04,2.03-3.39,4.04-3.92c9.72-2.07,18.52-4.5,26.33-7.26c-3.47-0.48-6.54-2.18-9.13-5.07c-3.04-3.39-4.59-7.53-4.59-12.3
				v-27.98c0-4.76,1.51-8.89,4.5-12.28c3.05-3.47,6.85-5.22,11.3-5.22h76.02c4.34,0,8.09,1.76,11.14,5.23
				c2.98,3.39,4.5,7.52,4.5,12.28v27.98c0,4.76-1.51,8.89-4.5,12.28c-2.36,2.68-5.13,4.34-8.27,4.95c7.31,2.4,14.3,4.83,20.87,7.27
				c2.58,1.03,3.97,3.28,3.97,6.33c0,2.01-0.85,3.78-2.45,5.1c-2.89,2.32-6,3.49-9.27,3.49c-2.15,0-4.32-0.48-6.45-1.42
				c-9.7-4.11-20.82-8.23-33.04-12.23c-1.55-0.47-3.59-1.71-4.24-4.89c-0.25-1.21-0.22-2.35,0.09-3.39h-24.73
				c0.43,1.09,0.58,2.31,0.45,3.64c-0.36,3.55-2.39,5.13-4.03,5.83c-11.08,5.23-24.07,9.53-38.54,12.76
				C590.11,1043.4,589.15,1043.54,588.26,1043.54z M682.19,1007.46v-3.48l-69.67,0v3.48L682.19,1007.46z M682.19,990.88v-3.31
				l-69.67,0v3.31L682.19,990.88z M682.19,974.48v-3.13l-69.67,0v3.13L682.19,974.48z M586.73,957.47c-1.8,0-3.43-0.67-4.84-1.98
				c-1.52-1.41-2.36-3.21-2.51-5.37c-0.26-2.05,0.24-3.93,1.49-5.59c1.28-1.69,3.02-2.67,5.04-2.84l0.08-0.01h0.08
				c2.04,0,5.37-0.15,9.9-0.44c4.51-0.29,7.85-0.49,10.2-0.61v-3.86l-12.26,0c-1.62,0-3.08-0.7-4.24-2.01
				c-1.11-1.26-1.67-2.82-1.67-4.62s0.56-3.36,1.67-4.62c1.16-1.32,2.63-2.02,4.25-2.02h12.26v-3.13l-13.83,0
				c-1.85,0-3.47-0.77-4.68-2.24c-0.82-0.99-1.35-2.11-1.58-3.33c-2.61-0.23-4.91-1.47-6.84-3.67c-2.01-2.42-3-5.25-3-8.45v-3.03
				c0-4.04,1.3-7.6,3.85-10.57c2.63-3.06,5.91-4.62,9.75-4.62h46.9v-1.03c0-2.75,0.91-5.17,2.69-7.2c1.85-2.11,4.12-3.17,6.75-3.17
				c2.64,0,4.92,1.11,6.77,3.29c1.77,2.09,2.67,4.48,2.67,7.09v1.03h47.06c3.83,0,7.11,1.55,9.74,4.62
				c2.56,2.98,3.85,6.53,3.85,10.57v0.71c0,3.93-1.25,7.34-3.71,10.14c-2.38,2.71-5.28,4.16-8.63,4.32
				c-0.22,1.3-0.76,2.47-1.59,3.48c-1.21,1.46-2.83,2.24-4.67,2.24h-12.89v2.42l22.14,0c1.13,0,2.79,0.37,4.32,2.1
				c1.16,1.33,1.75,2.88,1.75,4.62c0,1.74-0.59,3.3-1.75,4.62c-1.53,1.74-3.19,2.1-4.32,2.1h-1.76c0.23,0.21,0.46,0.44,0.68,0.69
				c1.42,1.62,2.14,3.53,2.14,5.69v2.67c0,2.87-0.93,5.38-2.77,7.47c-1.9,2.17-4.28,3.26-7.07,3.26h-42.32
				c-2.9,0-5.32-1.11-7.17-3.29c-1.77-2.08-2.67-4.59-2.67-7.44v-2.85c0-2.16,0.69-4.04,2.07-5.6c0.19-0.21,0.38-0.42,0.59-0.6
				h-1.28c-1.75,0-3.29-0.75-4.44-2.16c-1.08-1.31-1.63-2.85-1.63-4.57c0-1.72,0.55-3.25,1.63-4.57c0.56-0.68,1.21-1.21,1.92-1.57
				c-0.53-1-0.86-2.14-0.96-3.42c-0.2-2.45,0.46-4.57,1.98-6.3c2.16-2.58,4.09-5.45,5.68-8.52c0.81-1.43,1.68-2.51,2.58-3.31
				l-60.4,0v4.02l42.04,0c1.82,0,3.45,0.76,4.71,2.19c1.22,1.39,1.83,3.06,1.83,4.98c0,1.92-0.62,3.59-1.83,4.98
				c-1.26,1.43-2.89,2.19-4.71,2.19h-13.2v3.13l11.79,0c1.72,0,3.24,0.7,4.4,2.02c1.11,1.26,1.67,2.82,1.67,4.62
				s-0.56,3.35-1.67,4.62c-1.16,1.32-2.68,2.02-4.4,2.02h-11.79v2.93l13.89-0.69c0.11-0.01,0.31-0.02,0.51-0.02
				c1.61,0,3.1,0.64,4.3,1.86c1.32,1.34,1.99,3.07,1.99,5.15c0,1.9-0.63,3.62-1.87,5.11c-1.29,1.55-2.91,2.42-4.81,2.58
				c-15.87,1.3-32.43,2.56-49.25,3.75C587.13,957.46,586.93,957.47,586.73,957.47z M668.39,942.93v-6.51l-10.25,0
				c0.2,0.19,0.4,0.39,0.58,0.6c1.37,1.56,2.07,3.45,2.07,5.6v0.32H668.39z M692.85,942.93v-0.14c0-2.16,0.72-4.07,2.14-5.69
				c0.22-0.25,0.44-0.48,0.68-0.69h-10.89v6.51L692.85,942.93z M668.39,922.97v-2.42l-8.66,0c-0.44,0-0.77,0.15-1.11,0.51
				c-0.46,0.63-0.94,1.27-1.45,1.91H668.39z M698.17,907.1v-5.09l-33.19,0c0.29,0.38,0.56,0.83,0.8,1.35
				c0.57,1.25,0.79,2.5,0.66,3.74H698.17z"/>
			<path class="st4" d="M588.26,1043.54c-3.87,0-7.3-1.88-10.2-5.58c-0.91-1.21-1.36-2.52-1.36-3.91c0-0.72,0.15-1.43,0.43-2.11
				c0.63-2.04,2.03-3.39,4.04-3.92c9.72-2.07,18.52-4.5,26.33-7.26c-3.47-0.48-6.54-2.18-9.13-5.07c-3.04-3.39-4.59-7.53-4.59-12.3
				v-27.98c0-4.76,1.51-8.89,4.5-12.28c3.05-3.47,6.85-5.22,11.3-5.22h76.02c4.34,0,8.09,1.76,11.14,5.23
				c2.98,3.39,4.5,7.52,4.5,12.28v27.98c0,4.76-1.51,8.89-4.5,12.28c-2.36,2.68-5.13,4.34-8.27,4.95c7.31,2.4,14.3,4.83,20.87,7.27
				c2.58,1.03,3.97,3.28,3.97,6.33c0,2.01-0.85,3.78-2.45,5.1c-2.89,2.32-6,3.49-9.27,3.49c-2.15,0-4.32-0.48-6.45-1.42
				c-9.7-4.11-20.82-8.23-33.04-12.23c-1.55-0.47-3.59-1.71-4.24-4.89c-0.25-1.21-0.22-2.35,0.09-3.39h-24.73
				c0.43,1.09,0.58,2.31,0.45,3.64c-0.36,3.55-2.39,5.13-4.03,5.83c-11.08,5.23-24.07,9.53-38.54,12.76
				C590.11,1043.4,589.15,1043.54,588.26,1043.54z M682.19,1007.46v-3.48l-69.67,0v3.48L682.19,1007.46z M682.19,990.88v-3.31
				l-69.67,0v3.31L682.19,990.88z M682.19,974.48v-3.13l-69.67,0v3.13L682.19,974.48z M586.73,957.47c-1.8,0-3.43-0.67-4.84-1.98
				c-1.52-1.41-2.36-3.21-2.51-5.37c-0.26-2.05,0.24-3.93,1.49-5.59c1.28-1.69,3.02-2.67,5.04-2.84l0.08-0.01h0.08
				c2.04,0,5.37-0.15,9.9-0.44c4.51-0.29,7.85-0.49,10.2-0.61v-3.86l-12.26,0c-1.62,0-3.08-0.7-4.24-2.01
				c-1.11-1.26-1.67-2.82-1.67-4.62s0.56-3.36,1.67-4.62c1.16-1.32,2.63-2.02,4.25-2.02h12.26v-3.13l-13.83,0
				c-1.85,0-3.47-0.77-4.68-2.24c-0.82-0.99-1.35-2.11-1.58-3.33c-2.61-0.23-4.91-1.47-6.84-3.67c-2.01-2.42-3-5.25-3-8.45v-3.03
				c0-4.04,1.3-7.6,3.85-10.57c2.63-3.06,5.91-4.62,9.75-4.62h46.9v-1.03c0-2.75,0.91-5.17,2.69-7.2c1.85-2.11,4.12-3.17,6.75-3.17
				c2.64,0,4.92,1.11,6.77,3.29c1.77,2.09,2.67,4.48,2.67,7.09v1.03h47.06c3.83,0,7.11,1.55,9.74,4.62
				c2.56,2.98,3.85,6.53,3.85,10.57v0.71c0,3.93-1.25,7.34-3.71,10.14c-2.38,2.71-5.28,4.16-8.63,4.32
				c-0.22,1.3-0.76,2.47-1.59,3.48c-1.21,1.46-2.83,2.24-4.67,2.24h-12.89v2.42l22.14,0c1.13,0,2.79,0.37,4.32,2.1
				c1.16,1.33,1.75,2.88,1.75,4.62c0,1.74-0.59,3.3-1.75,4.62c-1.53,1.74-3.19,2.1-4.32,2.1h-1.76c0.23,0.21,0.46,0.44,0.68,0.69
				c1.42,1.62,2.14,3.53,2.14,5.69v2.67c0,2.87-0.93,5.38-2.77,7.47c-1.9,2.17-4.28,3.26-7.07,3.26h-42.32
				c-2.9,0-5.32-1.11-7.17-3.29c-1.77-2.08-2.67-4.59-2.67-7.44v-2.85c0-2.16,0.69-4.04,2.07-5.6c0.19-0.21,0.38-0.42,0.59-0.6
				h-1.28c-1.75,0-3.29-0.75-4.44-2.16c-1.08-1.31-1.63-2.85-1.63-4.57c0-1.72,0.55-3.25,1.63-4.57c0.56-0.68,1.21-1.21,1.92-1.57
				c-0.53-1-0.86-2.14-0.96-3.42c-0.2-2.45,0.46-4.57,1.98-6.3c2.16-2.58,4.09-5.45,5.68-8.52c0.81-1.43,1.68-2.51,2.58-3.31
				l-60.4,0v4.02l42.04,0c1.82,0,3.45,0.76,4.71,2.19c1.22,1.39,1.83,3.06,1.83,4.98c0,1.92-0.62,3.59-1.83,4.98
				c-1.26,1.43-2.89,2.19-4.71,2.19h-13.2v3.13l11.79,0c1.72,0,3.24,0.7,4.4,2.02c1.11,1.26,1.67,2.82,1.67,4.62
				s-0.56,3.35-1.67,4.62c-1.16,1.32-2.68,2.02-4.4,2.02h-11.79v2.93l13.89-0.69c0.11-0.01,0.31-0.02,0.51-0.02
				c1.61,0,3.1,0.64,4.3,1.86c1.32,1.34,1.99,3.07,1.99,5.15c0,1.9-0.63,3.62-1.87,5.11c-1.29,1.55-2.91,2.42-4.81,2.58
				c-15.87,1.3-32.43,2.56-49.25,3.75C587.13,957.46,586.93,957.47,586.73,957.47z M668.39,942.93v-6.51l-10.25,0
				c0.2,0.19,0.4,0.39,0.58,0.6c1.37,1.56,2.07,3.45,2.07,5.6v0.32H668.39z M692.85,942.93v-0.14c0-2.16,0.72-4.07,2.14-5.69
				c0.22-0.25,0.44-0.48,0.68-0.69h-10.89v6.51L692.85,942.93z M668.39,922.97v-2.42l-8.66,0c-0.44,0-0.77,0.15-1.11,0.51
				c-0.46,0.63-0.94,1.27-1.45,1.91H668.39z M698.17,907.1v-5.09l-33.19,0c0.29,0.38,0.56,0.83,0.8,1.35
				c0.57,1.25,0.79,2.5,0.66,3.74H698.17z"/>
		</g>
		<g>
			<path class="st3" d="M865.22,1044.97c-8.63,0-15.8-6.92-21.33-20.57c-3.78,5.25-7.86,10.27-12.15,14.93l-0.08,0.08
				c-1.84,1.8-4.05,2.71-6.57,2.71l-0.43,0c-2.58-0.15-4.86-1.18-6.77-3.07c-1.76-1.69-2.63-3.85-2.56-6.38
				c0.07-2.51,0.99-4.58,2.76-6.14c0.7-0.68,1.39-1.37,2.07-2.06h-25.36v2.28c0,2.14-0.68,4.04-2.03,5.65
				c-1.42,1.69-3.28,2.59-5.37,2.59c-2.08,0-3.95-0.88-5.42-2.55c-1.42-1.62-2.14-3.53-2.14-5.69v-68.27
				c0-4.76,1.51-8.89,4.49-12.28c3.05-3.47,6.8-5.22,11.14-5.22h28.21c1.92,0,3.64,0.79,4.95,2.28c0.72,0.82,1.24,1.75,1.56,2.78
				c-0.24-3.42-0.45-6.92-0.65-10.5l-52.6,0v35.25c0,28.5-2.83,50.85-8.42,66.45c-0.86,2.28-2.51,3.81-4.78,4.46
				c-0.76,0.21-1.52,0.32-2.27,0.32c-1.41,0-2.78-0.39-4.08-1.15c-1.95-1.15-3.31-2.91-4.03-5.23c-0.71-2.27-0.62-4.61,0.28-6.93
				c3.22-9.28,5.34-21.39,6.27-35.96h-5.54v4.77c0,17.26-2.93,31.21-8.72,41.45l-0.06,0.1c-1.14,1.78-2.87,2.89-4.99,3.21
				l-0.14,0.02c-0.22,0.02-0.43,0.03-0.64,0.03c-1.74,0-3.33-0.58-4.72-1.73c-1.53-1.26-2.47-2.93-2.81-4.95
				c-0.33-1.97-0.03-3.89,0.9-5.7c4.11-8.22,6.21-19.25,6.21-32.78v-4.42h-0.04c-2.24,0-4.25-0.94-5.81-2.73
				c-1.52-1.73-2.3-3.83-2.3-6.22c0-2.39,0.77-4.49,2.3-6.22c1.57-1.79,3.58-2.73,5.81-2.73h21.04v-9.37l-7.26,0
				c-0.23,1.2-0.76,2.24-1.59,3.12c-1.15,1.23-2.61,1.87-4.2,1.87h-1.72c-2.13,0-4.03-0.88-5.5-2.55c-1.42-1.62-2.14-3.59-2.14-5.87
				v-35.11c0-2.26,0.68-4.22,2.03-5.83c1.41-1.69,3.33-2.59,5.53-2.59c2.18,0,4.11,0.88,5.58,2.55c1.42,1.62,2.14,3.59,2.14,5.87
				v20.99l7.13,0v-13.33c0-4.76,1.51-8.89,4.5-12.28c3.05-3.47,6.8-5.23,11.14-5.23h52.7v-2.41c-1.3-0.31-2.48-1.01-3.46-2.07
				c-1.34-1.44-2.02-3.22-2.02-5.28v-4.06h-33.46l0,0.85c0,2.73-0.87,5.15-2.59,7.18c-1.8,2.12-4.05,3.2-6.7,3.2
				c-2.63,0-4.9-1.07-6.75-3.18c-1.79-2.03-2.69-4.45-2.69-7.2v-0.85h-28.25c-2.24,0-4.25-0.94-5.81-2.73
				c-1.52-1.73-2.3-3.85-2.3-6.31c0-2.44,0.76-4.58,2.27-6.37c1.57-1.86,3.59-2.85,5.84-2.85h28.25v-1.39
				c0-2.88,0.91-5.34,2.72-7.32c1.85-2.03,4.11-3.06,6.73-3.06c2.64,0,4.89,1.08,6.7,3.2c1.72,2.03,2.59,4.45,2.59,7.18V885h33.46
				v-1.39c0-2.75,0.91-5.17,2.69-7.2c1.85-2.11,4.13-3.17,6.75-3.17c2.63,0,4.9,1.07,6.75,3.17c1.79,2.04,2.69,4.46,2.69,7.21V885
				h28.88c2.26,0,4.25,0.95,5.89,2.82c1.58,1.79,2.38,3.95,2.38,6.4c0,2.47-0.81,4.6-2.41,6.34c-1.64,1.79-3.61,2.7-5.86,2.7h-6.04
				c0.07,0.06,0.15,0.11,0.22,0.17c2.78,2.19,5.18,4.36,7.12,6.45c1.3,1.31,1.93,3.11,1.79,5.16c-0.05,0.76-0.2,1.47-0.44,2.14
				c1.83,0.27,3.43,1.14,4.78,2.61c1.6,1.74,2.41,3.91,2.41,6.43c0,2.51-0.8,4.69-2.38,6.49c-1.65,1.87-3.68,2.82-6.05,2.82h-26.04
				c0.68,14.09,1.72,26.71,3.09,37.56c2.22-7.29,4.21-15.07,5.95-23.22c0.5-2.45,1.73-4.51,3.65-6.11c1.68-1.27,3.4-1.89,5.2-1.89
				c0.57,0,1.14,0.08,1.72,0.23c2.32,0.49,4.16,1.88,5.49,4.14c0.9,1.47,1.37,3.14,1.37,4.93c0,0.7-0.06,1.41-0.19,2.12
				c-4,19.17-9.7,36.35-16.95,51.16c-0.3,0.62-0.36,1.18-0.19,1.77c4.88,17.85,9.05,19.77,10.62,19.77c0.04-0.03,2.13-1.07,3.02-14
				c0.15-2.14,1.23-3.78,3.03-4.62c0.75-0.35,1.53-0.53,2.29-0.53c1.04,0,2.04,0.32,2.97,0.96l0.07,0.04l0.06,0.05
				c3.72,3,5.6,6.46,5.6,10.29c0,0.57-0.06,1.16-0.18,1.73c-0.99,9.67-2.76,16.06-5.4,19.53
				C874.83,1043.11,870.66,1044.97,865.22,1044.97z M826.19,1009.42c1.61,0,3.05,0.67,4.16,1.93c0.15,0.17,0.29,0.35,0.42,0.54
				c2.3-3.14,4.33-6.25,6.06-9.29c0.29-0.53,0.37-1.13,0.24-1.87c-2.88-13.58-5.1-30.69-6.62-50.96c-0.21,1.52-0.82,2.85-1.82,3.99
				c-1.31,1.49-3.03,2.28-4.95,2.28h-7.56v7.06c4.08,0.13,7.56,1.82,10.39,5.04c2.88,3.28,4.34,7.29,4.34,11.93v4.63
				c0,4.64-1.46,8.65-4.34,11.93c-2.84,3.23-6.34,4.93-10.4,5.04v7.77L826.19,1009.42z M802.09,1009.42v-7.76l-7.29,0v7.76
				L802.09,1009.42z M816.35,987.14v-9.55h-21.55v9.54L816.35,987.14z M802.09,963.07v-7.05l-7.29,0v7.05L802.09,963.07z
				 M856.71,917.08c-0.97-0.91-1.97-1.83-3-2.74c-1.47-1.34-2.25-3.07-2.32-5.17c-0.07-2.15,0.74-4.01,2.37-5.35
				c0.25-0.2,0.51-0.39,0.77-0.56h-12.38v2.88c0.84,0.3,1.6,0.82,2.24,1.55c1.01,1.15,1.52,2.46,1.52,3.91v5.49H856.71z"/>
			<path class="st4" d="M865.22,1044.97c-8.63,0-15.8-6.92-21.33-20.57c-3.78,5.25-7.86,10.27-12.15,14.93l-0.08,0.08
				c-1.84,1.8-4.05,2.71-6.57,2.71l-0.43,0c-2.58-0.15-4.86-1.18-6.77-3.07c-1.76-1.69-2.63-3.85-2.56-6.38
				c0.07-2.51,0.99-4.58,2.76-6.14c0.7-0.68,1.39-1.37,2.07-2.06h-25.36v2.28c0,2.14-0.68,4.04-2.03,5.65
				c-1.42,1.69-3.28,2.59-5.37,2.59c-2.08,0-3.95-0.88-5.42-2.55c-1.42-1.62-2.14-3.53-2.14-5.69v-68.27
				c0-4.76,1.51-8.89,4.49-12.28c3.05-3.47,6.8-5.22,11.14-5.22h28.21c1.92,0,3.64,0.79,4.95,2.28c0.72,0.82,1.24,1.75,1.56,2.78
				c-0.24-3.42-0.45-6.92-0.65-10.5l-52.6,0v35.25c0,28.5-2.83,50.85-8.42,66.45c-0.86,2.28-2.51,3.81-4.78,4.46
				c-0.76,0.21-1.52,0.32-2.27,0.32c-1.41,0-2.78-0.39-4.08-1.15c-1.95-1.15-3.31-2.91-4.03-5.23c-0.71-2.27-0.62-4.61,0.28-6.93
				c3.22-9.28,5.34-21.39,6.27-35.96h-5.54v4.77c0,17.26-2.93,31.21-8.72,41.45l-0.06,0.1c-1.14,1.78-2.87,2.89-4.99,3.21
				l-0.14,0.02c-0.22,0.02-0.43,0.03-0.64,0.03c-1.74,0-3.33-0.58-4.72-1.73c-1.53-1.26-2.47-2.93-2.81-4.95
				c-0.33-1.97-0.03-3.89,0.9-5.7c4.11-8.22,6.21-19.25,6.21-32.78v-4.42h-0.04c-2.24,0-4.25-0.94-5.81-2.73
				c-1.52-1.73-2.3-3.83-2.3-6.22c0-2.39,0.77-4.49,2.3-6.22c1.57-1.79,3.58-2.73,5.81-2.73h21.04v-9.37l-7.26,0
				c-0.23,1.2-0.76,2.24-1.59,3.12c-1.15,1.23-2.61,1.87-4.2,1.87h-1.72c-2.13,0-4.03-0.88-5.5-2.55c-1.42-1.62-2.14-3.59-2.14-5.87
				v-35.11c0-2.26,0.68-4.22,2.03-5.83c1.41-1.69,3.33-2.59,5.53-2.59c2.18,0,4.11,0.88,5.58,2.55c1.42,1.62,2.14,3.59,2.14,5.87
				v20.99l7.13,0v-13.33c0-4.76,1.51-8.89,4.5-12.28c3.05-3.47,6.8-5.23,11.14-5.23h52.7v-2.41c-1.3-0.31-2.48-1.01-3.46-2.07
				c-1.34-1.44-2.02-3.22-2.02-5.28v-4.06h-33.46l0,0.85c0,2.73-0.87,5.15-2.59,7.18c-1.8,2.12-4.05,3.2-6.7,3.2
				c-2.63,0-4.9-1.07-6.75-3.18c-1.79-2.03-2.69-4.45-2.69-7.2v-0.85h-28.25c-2.24,0-4.25-0.94-5.81-2.73
				c-1.52-1.73-2.3-3.85-2.3-6.31c0-2.44,0.76-4.58,2.27-6.37c1.57-1.86,3.59-2.85,5.84-2.85h28.25v-1.39
				c0-2.88,0.91-5.34,2.72-7.32c1.85-2.03,4.11-3.06,6.73-3.06c2.64,0,4.89,1.08,6.7,3.2c1.72,2.03,2.59,4.45,2.59,7.18V885h33.46
				v-1.39c0-2.75,0.91-5.17,2.69-7.2c1.85-2.11,4.13-3.17,6.75-3.17c2.63,0,4.9,1.07,6.75,3.17c1.79,2.04,2.69,4.46,2.69,7.21V885
				h28.88c2.26,0,4.25,0.95,5.89,2.82c1.58,1.79,2.38,3.95,2.38,6.4c0,2.47-0.81,4.6-2.41,6.34c-1.64,1.79-3.61,2.7-5.86,2.7h-6.04
				c0.07,0.06,0.15,0.11,0.22,0.17c2.78,2.19,5.18,4.36,7.12,6.45c1.3,1.31,1.93,3.11,1.79,5.16c-0.05,0.76-0.2,1.47-0.44,2.14
				c1.83,0.27,3.43,1.14,4.78,2.61c1.6,1.74,2.41,3.91,2.41,6.43c0,2.51-0.8,4.69-2.38,6.49c-1.65,1.87-3.68,2.82-6.05,2.82h-26.04
				c0.68,14.09,1.72,26.71,3.09,37.56c2.22-7.29,4.21-15.07,5.95-23.22c0.5-2.45,1.73-4.51,3.65-6.11c1.68-1.27,3.4-1.89,5.2-1.89
				c0.57,0,1.14,0.08,1.72,0.23c2.32,0.49,4.16,1.88,5.49,4.14c0.9,1.47,1.37,3.14,1.37,4.93c0,0.7-0.06,1.41-0.19,2.12
				c-4,19.17-9.7,36.35-16.95,51.16c-0.3,0.62-0.36,1.18-0.19,1.77c4.88,17.85,9.05,19.77,10.62,19.77c0.04-0.03,2.13-1.07,3.02-14
				c0.15-2.14,1.23-3.78,3.03-4.62c0.75-0.35,1.53-0.53,2.29-0.53c1.04,0,2.04,0.32,2.97,0.96l0.07,0.04l0.06,0.05
				c3.72,3,5.6,6.46,5.6,10.29c0,0.57-0.06,1.16-0.18,1.73c-0.99,9.67-2.76,16.06-5.4,19.53
				C874.83,1043.11,870.66,1044.97,865.22,1044.97z M826.19,1009.42c1.61,0,3.05,0.67,4.16,1.93c0.15,0.17,0.29,0.35,0.42,0.54
				c2.3-3.14,4.33-6.25,6.06-9.29c0.29-0.53,0.37-1.13,0.24-1.87c-2.88-13.58-5.1-30.69-6.62-50.96c-0.21,1.52-0.82,2.85-1.82,3.99
				c-1.31,1.49-3.03,2.28-4.95,2.28h-7.56v7.06c4.08,0.13,7.56,1.82,10.39,5.04c2.88,3.28,4.34,7.29,4.34,11.93v4.63
				c0,4.64-1.46,8.65-4.34,11.93c-2.84,3.23-6.34,4.93-10.4,5.04v7.77L826.19,1009.42z M802.09,1009.42v-7.76l-7.29,0v7.76
				L802.09,1009.42z M816.35,987.14v-9.55h-21.55v9.54L816.35,987.14z M802.09,963.07v-7.05l-7.29,0v7.05L802.09,963.07z
				 M856.71,917.08c-0.97-0.91-1.97-1.83-3-2.74c-1.47-1.34-2.25-3.07-2.32-5.17c-0.07-2.15,0.74-4.01,2.37-5.35
				c0.25-0.2,0.51-0.39,0.77-0.56h-12.38v2.88c0.84,0.3,1.6,0.82,2.24,1.55c1.01,1.15,1.52,2.46,1.52,3.91v5.49H856.71z"/>
		</g>
		<g>
			<path class="st3" d="M921.49,1044.25c-2.59,0-4.79-1.05-6.54-3.11c-1.67-1.97-2.51-4.29-2.51-6.91v-86.34
				c-2.1,3.02-4.16,5.84-6.13,8.42l-0.09,0.1c-1.64,1.87-3.57,2.82-5.73,2.82h-1.28l-0.18-0.03c-2.61-0.47-4.66-2.12-5.92-4.76
				c-1.12-2.33-1.68-4.75-1.68-7.19c0-0.69,0.06-1.38,0.18-2.07c0.36-3.21,1.57-6.06,3.58-8.48c12.33-15.08,22.61-33.3,30.55-54.15
				c1.02-2.62,2.71-4.53,5.04-5.71c1.26-0.72,2.7-1.11,4.19-1.11c0.91,0,1.88,0.15,2.89,0.43l0.08,0.02l0.08,0.03
				c2.41,0.91,4.16,2.66,5.21,5.2c0.52,1.34,0.78,2.67,0.78,3.98c0,1.14-0.19,2.35-0.55,3.59l-0.02,0.08l-0.03,0.08
				c-3.56,9.18-7.7,18.41-12.31,27.46c-0.39,0.71-0.57,1.45-0.57,2.3v115.32c0,2.61-0.84,4.94-2.51,6.91
				C926.28,1043.21,924.08,1044.25,921.49,1044.25z M944.68,1036.59c-2.59,0-4.79-1.05-6.54-3.12c-1.67-1.96-2.51-4.32-2.51-6.99
				c0-2.69,0.85-5.02,2.54-6.94c1.75-1.99,3.94-3,6.52-3h45.3c0.03-0.05,0.06-0.15,0.1-0.29c6.23-21.5,11.59-45.94,15.95-72.71
				c0.5-3.12,1.91-5.59,4.21-7.33c1.68-1.33,3.63-2.01,5.75-2.01h1.79l0.22,0.05c2.63,0.6,4.74,2.22,6.27,4.81
				c1.14,1.74,1.71,3.66,1.71,5.69c0,0.87-0.12,1.75-0.37,2.61c-5.45,27.1-11.17,50.37-17.02,69.18h26.05c2.57,0,4.77,1.01,6.52,3
				c1.68,1.92,2.54,4.25,2.54,6.94c0,2.67-0.84,5.03-2.51,7c-1.75,2.07-3.95,3.11-6.54,3.11H944.68z M970.08,1011.81
				c-1.85,0-3.55-0.7-5.06-2.08c-2.1-1.67-3.24-3.95-3.36-6.78c-1.65-17.8-4.59-36.73-8.74-56.18l-0.02-0.12
				c-0.12-0.8-0.18-1.56-0.18-2.25c0-1.65,0.45-3.29,1.35-4.9l0.05-0.09c1.33-2.12,3.17-3.43,5.46-3.91
				c0.58-0.15,1.21-0.23,1.87-0.23c1.75,0,3.44,0.53,5.02,1.58c2.15,1.53,3.48,3.63,3.99,6.28c4.58,20.01,7.86,38.79,9.74,55.78
				l0.01,0.11v1.36c0,2.42-0.64,4.59-1.91,6.47c-1.48,2.38-3.55,3.99-6.13,4.72l-0.1,0.03
				C971.43,1011.74,970.75,1011.81,970.08,1011.81z M948.13,927.5c-2.58,0-4.77-1.01-6.52-3c-1.68-1.91-2.53-4.24-2.53-6.93
				c0-2.68,0.85-5.03,2.51-7c1.75-2.07,3.95-3.11,6.54-3.11h30.6v-21.53c0-2.87,0.91-5.35,2.69-7.38c1.85-2.11,4.15-3.18,6.83-3.18
				c2.68,0,4.97,1.07,6.83,3.17c1.79,2.04,2.69,4.52,2.69,7.38v21.53h33.27c2.47,0,4.64,1.04,6.44,3.08
				c1.74,1.97,2.62,4.34,2.62,7.03c0,2.71-0.89,5.05-2.64,6.96c-1.8,1.97-3.96,2.97-6.41,2.97H948.13z"/>
			<path class="st4" d="M921.49,1044.25c-2.59,0-4.79-1.05-6.54-3.11c-1.67-1.97-2.51-4.29-2.51-6.91v-86.34
				c-2.1,3.02-4.16,5.84-6.13,8.42l-0.09,0.1c-1.64,1.87-3.57,2.82-5.73,2.82h-1.28l-0.18-0.03c-2.61-0.47-4.66-2.12-5.92-4.76
				c-1.12-2.33-1.68-4.75-1.68-7.19c0-0.69,0.06-1.38,0.18-2.07c0.36-3.21,1.57-6.06,3.58-8.48c12.33-15.08,22.61-33.3,30.55-54.15
				c1.02-2.62,2.71-4.53,5.04-5.71c1.26-0.72,2.7-1.11,4.19-1.11c0.91,0,1.88,0.15,2.89,0.43l0.08,0.02l0.08,0.03
				c2.41,0.91,4.16,2.66,5.21,5.2c0.52,1.34,0.78,2.67,0.78,3.98c0,1.14-0.19,2.35-0.55,3.59l-0.02,0.08l-0.03,0.08
				c-3.56,9.18-7.7,18.41-12.31,27.46c-0.39,0.71-0.57,1.45-0.57,2.3v115.32c0,2.61-0.84,4.94-2.51,6.91
				C926.28,1043.21,924.08,1044.25,921.49,1044.25z M944.68,1036.59c-2.59,0-4.79-1.05-6.54-3.12c-1.67-1.96-2.51-4.32-2.51-6.99
				c0-2.69,0.85-5.02,2.54-6.94c1.75-1.99,3.94-3,6.52-3h45.3c0.03-0.05,0.06-0.15,0.1-0.29c6.23-21.5,11.59-45.94,15.95-72.71
				c0.5-3.12,1.91-5.59,4.21-7.33c1.68-1.33,3.63-2.01,5.75-2.01h1.79l0.22,0.05c2.63,0.6,4.74,2.22,6.27,4.81
				c1.14,1.74,1.71,3.66,1.71,5.69c0,0.87-0.12,1.75-0.37,2.61c-5.45,27.1-11.17,50.37-17.02,69.18h26.05c2.57,0,4.77,1.01,6.52,3
				c1.68,1.92,2.54,4.25,2.54,6.94c0,2.67-0.84,5.03-2.51,7c-1.75,2.07-3.95,3.11-6.54,3.11H944.68z M970.08,1011.81
				c-1.85,0-3.55-0.7-5.06-2.08c-2.1-1.67-3.24-3.95-3.36-6.78c-1.65-17.8-4.59-36.73-8.74-56.18l-0.02-0.12
				c-0.12-0.8-0.18-1.56-0.18-2.25c0-1.65,0.45-3.29,1.35-4.9l0.05-0.09c1.33-2.12,3.17-3.43,5.46-3.91
				c0.58-0.15,1.21-0.23,1.87-0.23c1.75,0,3.44,0.53,5.02,1.58c2.15,1.53,3.48,3.63,3.99,6.28c4.58,20.01,7.86,38.79,9.74,55.78
				l0.01,0.11v1.36c0,2.42-0.64,4.59-1.91,6.47c-1.48,2.38-3.55,3.99-6.13,4.72l-0.1,0.03
				C971.43,1011.74,970.75,1011.81,970.08,1011.81z M948.13,927.5c-2.58,0-4.77-1.01-6.52-3c-1.68-1.91-2.53-4.24-2.53-6.93
				c0-2.68,0.85-5.03,2.51-7c1.75-2.07,3.95-3.11,6.54-3.11h30.6v-21.53c0-2.87,0.91-5.35,2.69-7.38c1.85-2.11,4.15-3.18,6.83-3.18
				c2.68,0,4.97,1.07,6.83,3.17c1.79,2.04,2.69,4.52,2.69,7.38v21.53h33.27c2.47,0,4.64,1.04,6.44,3.08
				c1.74,1.97,2.62,4.34,2.62,7.03c0,2.71-0.89,5.05-2.64,6.96c-1.8,1.97-3.96,2.97-6.41,2.97H948.13z"/>
		</g>
		<g>
			<path class="st3" d="M1074.78,1044.79c-2.68,0-4.98-1.07-6.83-3.17c-1.79-2.03-2.69-4.51-2.69-7.38v-72.55
				c0-2.87,0.91-5.35,2.69-7.38c1.85-2.11,4.15-3.17,6.83-3.17c2.68,0,4.97,1.07,6.83,3.17c1.79,2.04,2.69,4.52,2.69,7.38v58.78
				l110.69,0c2.16,0,4.03,0.89,5.58,2.64c1.48,1.68,2.22,3.72,2.22,6.05c0,2.33-0.75,4.36-2.22,6.04c-1.54,1.75-3.42,2.64-5.58,2.64
				h-110.78c-0.22,1.62-0.87,3.08-1.95,4.36c-1.42,1.69-3.31,2.59-5.45,2.59H1074.78z M1109.73,1015.73
				c-4.34,0-8.09-1.76-11.14-5.22c-2.98-3.39-4.49-7.52-4.49-12.28v-31.91c0-4.76,1.51-8.89,4.49-12.28
				c3.05-3.47,6.8-5.22,11.14-5.22h6.79l0-0.06l0.02-0.1c0.35-1.81,0.63-3.47,0.83-4.93h-52.95c-2.15,0-4.06-0.93-5.53-2.68
				c-1.4-1.67-2.11-3.66-2.11-5.92c0-2.27,0.72-4.25,2.14-5.87c1.47-1.67,3.37-2.55,5.5-2.55h54.91c0.19-1.92,0.33-3.49,0.43-4.73
				h-40.14c-4.34,0-8.09-1.76-11.14-5.22c-2.98-3.39-4.5-7.52-4.5-12.28v-6.42c0-4.76,1.51-8.89,4.5-12.28
				c3.05-3.47,6.8-5.22,11.14-5.22h97.18c4.35,0,8.09,1.76,11.14,5.22c2.98,3.39,4.5,7.52,4.5,12.28v6.42
				c0,4.76-1.51,8.89-4.5,12.28c-3.05,3.47-6.8,5.22-11.14,5.22h-37.82l-0.01,0.1c-0.19,1.2-0.43,2.74-0.71,4.63h53.12
				c2.15,0,4.03,0.89,5.45,2.59c1.35,1.62,2.04,3.58,2.04,5.83c0,2.26-0.71,4.25-2.11,5.92c-1.47,1.75-3.32,2.67-5.37,2.67h-55.56
				c-0.27,1.84-0.51,3.56-0.7,5.09h35.73c4.46,0,8.24,1.76,11.23,5.24c2.92,3.39,4.4,7.52,4.4,12.27v31.91
				c0,4.75-1.48,8.88-4.4,12.27c-3,3.48-6.78,5.24-11.23,5.24H1109.73z M1168.07,1002.29v-4.73l-56.19,0v4.73L1168.07,1002.29z
				 M1168.07,984.28v-4.55l-56.19,0v4.55L1168.07,984.28z M1168.07,966.64v-4.38l-56.19,0v4.38L1168.07,966.64z M1173.56,906.03
				v-9.72l-19.04,0v9.72L1173.56,906.03z M1136.88,906.03v-9.72l-18.88,0v9.72L1136.88,906.03z M1100.21,906.03v-9.72l-17.94,0v9.72
				L1100.21,906.03z"/>
			<path class="st4" d="M1074.78,1044.79c-2.68,0-4.98-1.07-6.83-3.17c-1.79-2.03-2.69-4.51-2.69-7.38v-72.55
				c0-2.87,0.91-5.35,2.69-7.38c1.85-2.11,4.15-3.17,6.83-3.17c2.68,0,4.97,1.07,6.83,3.17c1.79,2.04,2.69,4.52,2.69,7.38v58.78
				l110.69,0c2.16,0,4.03,0.89,5.58,2.64c1.48,1.68,2.22,3.72,2.22,6.05c0,2.33-0.75,4.36-2.22,6.04c-1.54,1.75-3.42,2.64-5.58,2.64
				h-110.78c-0.22,1.62-0.87,3.08-1.95,4.36c-1.42,1.69-3.31,2.59-5.45,2.59H1074.78z M1109.73,1015.73
				c-4.34,0-8.09-1.76-11.14-5.22c-2.98-3.39-4.49-7.52-4.49-12.28v-31.91c0-4.76,1.51-8.89,4.49-12.28
				c3.05-3.47,6.8-5.22,11.14-5.22h6.79l0-0.06l0.02-0.1c0.35-1.81,0.63-3.47,0.83-4.93h-52.95c-2.15,0-4.06-0.93-5.53-2.68
				c-1.4-1.67-2.11-3.66-2.11-5.92c0-2.27,0.72-4.25,2.14-5.87c1.47-1.67,3.37-2.55,5.5-2.55h54.91c0.19-1.92,0.33-3.49,0.43-4.73
				h-40.14c-4.34,0-8.09-1.76-11.14-5.22c-2.98-3.39-4.5-7.52-4.5-12.28v-6.42c0-4.76,1.51-8.89,4.5-12.28
				c3.05-3.47,6.8-5.22,11.14-5.22h97.18c4.35,0,8.09,1.76,11.14,5.22c2.98,3.39,4.5,7.52,4.5,12.28v6.42
				c0,4.76-1.51,8.89-4.5,12.28c-3.05,3.47-6.8,5.22-11.14,5.22h-37.82l-0.01,0.1c-0.19,1.2-0.43,2.74-0.71,4.63h53.12
				c2.15,0,4.03,0.89,5.45,2.59c1.35,1.62,2.04,3.58,2.04,5.83c0,2.26-0.71,4.25-2.11,5.92c-1.47,1.75-3.32,2.67-5.37,2.67h-55.56
				c-0.27,1.84-0.51,3.56-0.7,5.09h35.73c4.46,0,8.24,1.76,11.23,5.24c2.92,3.39,4.4,7.52,4.4,12.27v31.91
				c0,4.75-1.48,8.88-4.4,12.27c-3,3.48-6.78,5.24-11.23,5.24H1109.73z M1168.07,1002.29v-4.73l-56.19,0v4.73L1168.07,1002.29z
				 M1168.07,984.28v-4.55l-56.19,0v4.55L1168.07,984.28z M1168.07,966.64v-4.38l-56.19,0v4.38L1168.07,966.64z M1173.56,906.03
				v-9.72l-19.04,0v9.72L1173.56,906.03z M1136.88,906.03v-9.72l-18.88,0v9.72L1136.88,906.03z M1100.21,906.03v-9.72l-17.94,0v9.72
				L1100.21,906.03z"/>
		</g>
		<g>
			<path class="st3" d="M1227.75,1044.61c-2.39,0-4.58-0.89-6.52-2.66c-1.85-1.68-3.16-3.93-3.88-6.67
				c-0.55-2.48-0.21-4.73,0.99-6.78c1.57-2.67,3.75-3.23,5.31-3.23c0.13,0,0.27,0,0.4,0.01h1.82c3,0,4.23-0.09,4.73-0.16l0.14-0.02
				h0.14c0.45,0,0.73-0.04,0.88-0.08c0.04-0.19,0.09-0.53,0.09-1.13v-43.36c-5.78,2.04-7.27,2.59-7.6,2.72l-0.09,0.05l-0.18,0.06
				c-0.92,0.3-1.82,0.46-2.66,0.46c-1.52,0-3.04-0.46-4.5-1.37c-2.15-1.37-3.55-3.47-4.19-6.24l-0.03-0.16
				c-0.12-0.8-0.18-1.56-0.18-2.25c0-1.86,0.44-3.67,1.32-5.37c1.3-2.51,3.23-4.17,5.75-4.92c2.42-0.72,6.51-2.03,12.17-3.9
				c0.1-0.04,0.15-0.07,0.15-0.08c0,0,0.04-0.09,0.04-0.34V928.4l-9.75,0c-2.47,0-4.62-1.01-6.36-3c-1.68-1.91-2.53-4.24-2.53-6.93
				c0-2.7,0.86-5.01,2.56-6.88c1.75-1.91,3.88-2.88,6.34-2.88h9.75v-25.63c0-2.63,0.83-4.9,2.46-6.76c1.7-1.93,3.81-2.91,6.28-2.91
				c2.45,0,4.58,0.97,6.33,2.88c1.7,1.87,2.56,4.15,2.56,6.79v25.63l7.09,0c2.57,0,4.74,0.98,6.44,2.91c0.3,0.34,0.57,0.7,0.82,1.07
				c0.1-2.41,0.92-4.51,2.45-6.24c1.7-1.93,3.81-2.91,6.28-2.91h16.18v-20.99c0-2.51,0.83-4.73,2.46-6.58
				c1.7-1.93,3.78-2.91,6.2-2.91c2.42,0,4.5,0.98,6.2,2.91c1.63,1.86,2.46,4.07,2.46,6.58v68.98c0,9.5-0.29,17.92-0.87,25.03
				c-0.58,7.13-1.75,14.69-3.49,22.46c-1.76,7.88-4.52,15.25-8.19,21.92c-3.68,6.68-8.42,12.83-14.08,18.3l-0.06,0.06l-0.07,0.05
				c-1.83,1.48-3.83,2.23-5.96,2.23h-0.9l-0.11-0.01c-2.56-0.29-4.82-1.46-6.71-3.47c-1.61-1.68-2.43-3.82-2.43-6.36
				c0-2.72,0.96-4.96,2.86-6.66c7.52-7.18,13.17-16.05,16.78-26.37c-3.65,1.61-7.72,3.38-12.15,5.27c-1.09,0.46-2.2,0.7-3.3,0.7
				c-1.36,0-2.66-0.31-3.88-0.93c-2.23-1.19-3.85-3.03-4.87-5.48c-0.51-1.16-0.78-2.39-0.78-3.62c0-1.23,0.27-2.46,0.8-3.66
				c1.07-2.43,2.79-4.05,5.11-4.83c6.25-2.01,14.14-4.76,23.46-8.18c0.08-0.03,0.22-0.08,0.26-0.62c0.61-5.56,1.03-11.23,1.24-16.9
				h-15.07c-2.37,0-4.43-0.98-6.13-2.91c-1.63-1.85-2.46-4.09-2.46-6.67c0-2.57,0.83-4.81,2.46-6.67c1.7-1.93,3.76-2.91,6.13-2.91
				h15.08v-18.46l-16.18,0c-2.47,0-4.59-0.98-6.28-2.91c-0.3-0.34-0.57-0.69-0.81-1.06c-0.08,2.49-0.9,4.66-2.43,6.47
				c-1.7,2.01-3.87,3.03-6.46,3.03h-7.09v25.26l5.47-1.93l0.15-0.03c0.77-0.14,1.45-0.21,2.09-0.21c1.57,0,3.02,0.49,4.3,1.45
				c2.01,1.39,3.18,3.39,3.47,5.94c0.12,0.59,0.18,1.17,0.18,1.74c0,2.11-0.5,4.06-1.5,5.78c-1.28,2.46-3.13,4.09-5.48,4.85
				c-4.42,1.68-7.25,2.73-8.62,3.21l0,0c-0.01,0-0.07,0.11-0.07,0.43v49.02c0,4.57-0.51,8.1-1.54,10.79
				c-1.09,2.82-2.82,5.03-5.15,6.57c-3.18,2.01-7.97,3.1-14.66,3.36l-0.04,0H1227.75z M1325.48,1044.43c-2.54,0-4.72-1.05-6.46-3.12
				c-1.67-1.96-2.51-4.29-2.51-6.91V883.08c0-2.75,0.85-5.11,2.54-7.02c1.75-1.99,3.91-3,6.44-3c2.51,0,4.69,1,6.49,2.97
				c1.75,1.92,2.64,4.29,2.64,7.05v20.46l17.91,0c2.35,0,4.43,0.97,6.18,2.88c1.7,1.87,2.56,4.15,2.56,6.79
				c0,2.64-0.86,4.93-2.56,6.79c-1.75,1.91-3.83,2.88-6.18,2.88h-17.91v18.46l16.18,0c2.37,0,4.43,0.98,6.13,2.91
				c1.63,1.86,2.46,4.1,2.46,6.67c0,2.57-0.83,4.81-2.46,6.67c-1.7,1.93-3.76,2.91-6.13,2.91h-16.18v20.06l20.41,0
				c2.57,0,4.74,0.98,6.44,2.91c1.63,1.86,2.46,4.16,2.46,6.85c0,2.69-0.83,4.99-2.46,6.85c-1.7,1.93-3.86,2.91-6.44,2.91h-20.41
				v34.36c0,2.63-0.88,4.96-2.61,6.93C1330.19,1043.39,1328,1044.43,1325.48,1044.43z M1334.63,980.98L1334.63,980.98z"/>
			<path class="st4" d="M1227.75,1044.61c-2.39,0-4.58-0.89-6.52-2.66c-1.85-1.68-3.16-3.93-3.88-6.67
				c-0.55-2.48-0.21-4.73,0.99-6.78c1.57-2.67,3.75-3.23,5.31-3.23c0.13,0,0.27,0,0.4,0.01h1.82c3,0,4.23-0.09,4.73-0.16l0.14-0.02
				h0.14c0.45,0,0.73-0.04,0.88-0.08c0.04-0.19,0.09-0.53,0.09-1.13v-43.36c-5.78,2.04-7.27,2.59-7.6,2.72l-0.09,0.05l-0.18,0.06
				c-0.92,0.3-1.82,0.46-2.66,0.46c-1.52,0-3.04-0.46-4.5-1.37c-2.15-1.37-3.55-3.47-4.19-6.24l-0.03-0.16
				c-0.12-0.8-0.18-1.56-0.18-2.25c0-1.86,0.44-3.67,1.32-5.37c1.3-2.51,3.23-4.17,5.75-4.92c2.42-0.72,6.51-2.03,12.17-3.9
				c0.1-0.04,0.15-0.07,0.15-0.08c0,0,0.04-0.09,0.04-0.34V928.4l-9.75,0c-2.47,0-4.62-1.01-6.36-3c-1.68-1.91-2.53-4.24-2.53-6.93
				c0-2.7,0.86-5.01,2.56-6.88c1.75-1.91,3.88-2.88,6.34-2.88h9.75v-25.63c0-2.63,0.83-4.9,2.46-6.76c1.7-1.93,3.81-2.91,6.28-2.91
				c2.45,0,4.58,0.97,6.33,2.88c1.7,1.87,2.56,4.15,2.56,6.79v25.63l7.09,0c2.57,0,4.74,0.98,6.44,2.91c0.3,0.34,0.57,0.7,0.82,1.07
				c0.1-2.41,0.92-4.51,2.45-6.24c1.7-1.93,3.81-2.91,6.28-2.91h16.18v-20.99c0-2.51,0.83-4.73,2.46-6.58
				c1.7-1.93,3.78-2.91,6.2-2.91c2.42,0,4.5,0.98,6.2,2.91c1.63,1.86,2.46,4.07,2.46,6.58v68.98c0,9.5-0.29,17.92-0.87,25.03
				c-0.58,7.13-1.75,14.69-3.49,22.46c-1.76,7.88-4.52,15.25-8.19,21.92c-3.68,6.68-8.42,12.83-14.08,18.3l-0.06,0.06l-0.07,0.05
				c-1.83,1.48-3.83,2.23-5.96,2.23h-0.9l-0.11-0.01c-2.56-0.29-4.82-1.46-6.71-3.47c-1.61-1.68-2.43-3.82-2.43-6.36
				c0-2.72,0.96-4.96,2.86-6.66c7.52-7.18,13.17-16.05,16.78-26.37c-3.65,1.61-7.72,3.38-12.15,5.27c-1.09,0.46-2.2,0.7-3.3,0.7
				c-1.36,0-2.66-0.31-3.88-0.93c-2.23-1.19-3.85-3.03-4.87-5.48c-0.51-1.16-0.78-2.39-0.78-3.62c0-1.23,0.27-2.46,0.8-3.66
				c1.07-2.43,2.79-4.05,5.11-4.83c6.25-2.01,14.14-4.76,23.46-8.18c0.08-0.03,0.22-0.08,0.26-0.62c0.61-5.56,1.03-11.23,1.24-16.9
				h-15.07c-2.37,0-4.43-0.98-6.13-2.91c-1.63-1.85-2.46-4.09-2.46-6.67c0-2.57,0.83-4.81,2.46-6.67c1.7-1.93,3.76-2.91,6.13-2.91
				h15.08v-18.46l-16.18,0c-2.47,0-4.59-0.98-6.28-2.91c-0.3-0.34-0.57-0.69-0.81-1.06c-0.08,2.49-0.9,4.66-2.43,6.47
				c-1.7,2.01-3.87,3.03-6.46,3.03h-7.09v25.26l5.47-1.93l0.15-0.03c0.77-0.14,1.45-0.21,2.09-0.21c1.57,0,3.02,0.49,4.3,1.45
				c2.01,1.39,3.18,3.39,3.47,5.94c0.12,0.59,0.18,1.17,0.18,1.74c0,2.11-0.5,4.06-1.5,5.78c-1.28,2.46-3.13,4.09-5.48,4.85
				c-4.42,1.68-7.25,2.73-8.62,3.21l0,0c-0.01,0-0.07,0.11-0.07,0.43v49.02c0,4.57-0.51,8.1-1.54,10.79
				c-1.09,2.82-2.82,5.03-5.15,6.57c-3.18,2.01-7.97,3.1-14.66,3.36l-0.04,0H1227.75z M1325.48,1044.43c-2.54,0-4.72-1.05-6.46-3.12
				c-1.67-1.96-2.51-4.29-2.51-6.91V883.08c0-2.75,0.85-5.11,2.54-7.02c1.75-1.99,3.91-3,6.44-3c2.51,0,4.69,1,6.49,2.97
				c1.75,1.92,2.64,4.29,2.64,7.05v20.46l17.91,0c2.35,0,4.43,0.97,6.18,2.88c1.7,1.87,2.56,4.15,2.56,6.79
				c0,2.64-0.86,4.93-2.56,6.79c-1.75,1.91-3.83,2.88-6.18,2.88h-17.91v18.46l16.18,0c2.37,0,4.43,0.98,6.13,2.91
				c1.63,1.86,2.46,4.1,2.46,6.67c0,2.57-0.83,4.81-2.46,6.67c-1.7,1.93-3.76,2.91-6.13,2.91h-16.18v20.06l20.41,0
				c2.57,0,4.74,0.98,6.44,2.91c1.63,1.86,2.46,4.16,2.46,6.85c0,2.69-0.83,4.99-2.46,6.85c-1.7,1.93-3.86,2.91-6.44,2.91h-20.41
				v34.36c0,2.63-0.88,4.96-2.61,6.93C1330.19,1043.39,1328,1044.43,1325.48,1044.43z M1334.63,980.98L1334.63,980.98z"/>
		</g>
		<g>
			<path class="st3" d="M1437.78,1044.97c-2.58,0-4.93-0.92-6.97-2.73c-1.95-1.73-3.35-3.99-4.19-6.7
				c-0.79-2.25-0.57-4.58,0.66-6.68c1.57-2.67,3.75-3.23,5.31-3.23c0.16,0,0.32,0,0.48,0.02c4.41,0.11,8.24,0.17,11.3,0.17
				c2.46,0,4.44-0.06,5.88-0.17c1.34-0.1,1.79-0.34,1.87-0.38c-0.01-0.02,0.13-0.34,0.13-1.19v-40.42l-38.59,0
				c-2.26,0-4.25-0.95-5.89-2.82c-1.58-1.79-2.38-3.95-2.38-6.4s0.8-4.61,2.38-6.4c1.64-1.87,3.63-2.82,5.89-2.82h38.44
				c-6.12-3.38-12.46-6.7-18.92-9.92c-1.36-0.61-3.08-1.94-3.62-4.83c-0.43-2.3,0.18-4.38,1.78-6.04c1.6-1.68,3.56-2.83,5.81-3.4
				l0.12-0.03c0.75-0.14,1.51-0.21,2.25-0.21c1.4,0,2.82,0.29,4.21,0.86l0.11,0.05c4.63,2.23,10.02,4.87,16.01,7.86
				c0.19,0.09,0.29,0.11,0.33,0.11c0.09,0,0.2-0.07,0.28-0.13c5.33-3.44,10.56-7.53,15.62-12.24h-54.43c-2.16,0-4.07-0.92-5.66-2.73
				c-1.53-1.73-2.3-3.82-2.3-6.22c0-2.41,0.78-4.48,2.33-6.17c1.59-1.73,3.48-2.61,5.63-2.61h72.04l0.11-0.06l0.29-0.07
				c0.67-0.15,1.34-0.23,2.01-0.23c1.98,0,3.75,0.72,5.28,2.14l2.44,2.08c1.68,1.43,2.6,3.41,2.74,5.87
				c0.13,2.46-0.66,4.58-2.3,6.16c-8.62,9.12-17.85,16.98-27.44,23.4c2.56,1.52,5.31,3.28,8.19,5.27c0.49,0.34,0.8,0.71,0.99,1.07
				h20.83l0.25-0.08c0.85-0.27,1.71-0.41,2.57-0.41c1.07,0,2.14,0.21,3.19,0.64l0.13,0.06l3.29,1.6c1.98,0.97,3.33,2.65,3.88,4.88
				c0.55,2.18,0.26,4.25-0.84,6.13c-6.89,12-13.16,21.78-18.62,29.06c-1.54,2.04-3.55,3.37-5.99,3.96l-1.81,0.41h-0.22
				c-1.73,0-3.4-0.52-4.97-1.54c-1.95-1.13-3.18-2.96-3.66-5.43c-0.47-2.44,0.06-4.71,1.55-6.58c2.99-4.14,6.1-8.93,9.28-14.26
				h-23.71v40.78c0,5.22-0.63,9.06-1.92,11.74c-1.38,2.85-3.97,4.99-7.69,6.35C1457.41,1044.16,1449.63,1044.97,1437.78,1044.97z
				 M1384.02,1041.58c-1.81,0-3.49-0.62-4.99-1.85c-2.14-1.59-3.54-3.77-4.17-6.47c-0.24-1.1-0.37-2.15-0.37-3.13
				c0-1.51,0.24-3.03,0.72-4.53l0.04-0.12c4.3-10.95,7.19-23.33,8.57-36.82c1.4-13.59,2.11-28.48,2.11-44.27v-34.22
				c0-4.76,1.51-8.89,4.5-12.28c3.05-3.47,6.8-5.22,11.14-5.22h42.2v-8.52c0-3.11,0.94-5.73,2.79-7.76c1.9-2.09,4.25-3.15,6.97-3.15
				c2.73,0,5.08,1.1,6.99,3.26c1.84,2.09,2.77,4.67,2.77,7.65v8.51l50.66,0c2.47,0,4.61,1.01,6.36,3c1.68,1.92,2.54,4.25,2.54,6.94
				c0,2.7-0.86,5.02-2.56,6.88c-1.75,1.91-3.88,2.88-6.33,2.88h-109.44v32.22c0,39.17-4.42,70.06-13.15,91.83
				c-0.94,2.58-2.83,4.31-5.46,4.94C1385.37,1041.49,1384.71,1041.58,1384.02,1041.58z"/>
			<path class="st4" d="M1437.78,1044.97c-2.58,0-4.93-0.92-6.97-2.73c-1.95-1.73-3.35-3.99-4.19-6.7
				c-0.79-2.25-0.57-4.58,0.66-6.68c1.57-2.67,3.75-3.23,5.31-3.23c0.16,0,0.32,0,0.48,0.02c4.41,0.11,8.24,0.17,11.3,0.17
				c2.46,0,4.44-0.06,5.88-0.17c1.34-0.1,1.79-0.34,1.87-0.38c-0.01-0.02,0.13-0.34,0.13-1.19v-40.42l-38.59,0
				c-2.26,0-4.25-0.95-5.89-2.82c-1.58-1.79-2.38-3.95-2.38-6.4s0.8-4.61,2.38-6.4c1.64-1.87,3.63-2.82,5.89-2.82h38.44
				c-6.12-3.38-12.46-6.7-18.92-9.92c-1.36-0.61-3.08-1.94-3.62-4.83c-0.43-2.3,0.18-4.38,1.78-6.04c1.6-1.68,3.56-2.83,5.81-3.4
				l0.12-0.03c0.75-0.14,1.51-0.21,2.25-0.21c1.4,0,2.82,0.29,4.21,0.86l0.11,0.05c4.63,2.23,10.02,4.87,16.01,7.86
				c0.19,0.09,0.29,0.11,0.33,0.11c0.09,0,0.2-0.07,0.28-0.13c5.33-3.44,10.56-7.53,15.62-12.24h-54.43c-2.16,0-4.07-0.92-5.66-2.73
				c-1.53-1.73-2.3-3.82-2.3-6.22c0-2.41,0.78-4.48,2.33-6.17c1.59-1.73,3.48-2.61,5.63-2.61h72.04l0.11-0.06l0.29-0.07
				c0.67-0.15,1.34-0.23,2.01-0.23c1.98,0,3.75,0.72,5.28,2.14l2.44,2.08c1.68,1.43,2.6,3.41,2.74,5.87
				c0.13,2.46-0.66,4.58-2.3,6.16c-8.62,9.12-17.85,16.98-27.44,23.4c2.56,1.52,5.31,3.28,8.19,5.27c0.49,0.34,0.8,0.71,0.99,1.07
				h20.83l0.25-0.08c0.85-0.27,1.71-0.41,2.57-0.41c1.07,0,2.14,0.21,3.19,0.64l0.13,0.06l3.29,1.6c1.98,0.97,3.33,2.65,3.88,4.88
				c0.55,2.18,0.26,4.25-0.84,6.13c-6.89,12-13.16,21.78-18.62,29.06c-1.54,2.04-3.55,3.37-5.99,3.96l-1.81,0.41h-0.22
				c-1.73,0-3.4-0.52-4.97-1.54c-1.95-1.13-3.18-2.96-3.66-5.43c-0.47-2.44,0.06-4.71,1.55-6.58c2.99-4.14,6.1-8.93,9.28-14.26
				h-23.71v40.78c0,5.22-0.63,9.06-1.92,11.74c-1.38,2.85-3.97,4.99-7.69,6.35C1457.41,1044.16,1449.63,1044.97,1437.78,1044.97z
				 M1384.02,1041.58c-1.81,0-3.49-0.62-4.99-1.85c-2.14-1.59-3.54-3.77-4.17-6.47c-0.24-1.1-0.37-2.15-0.37-3.13
				c0-1.51,0.24-3.03,0.72-4.53l0.04-0.12c4.3-10.95,7.19-23.33,8.57-36.82c1.4-13.59,2.11-28.48,2.11-44.27v-34.22
				c0-4.76,1.51-8.89,4.5-12.28c3.05-3.47,6.8-5.22,11.14-5.22h42.2v-8.52c0-3.11,0.94-5.73,2.79-7.76c1.9-2.09,4.25-3.15,6.97-3.15
				c2.73,0,5.08,1.1,6.99,3.26c1.84,2.09,2.77,4.67,2.77,7.65v8.51l50.66,0c2.47,0,4.61,1.01,6.36,3c1.68,1.92,2.54,4.25,2.54,6.94
				c0,2.7-0.86,5.02-2.56,6.88c-1.75,1.91-3.88,2.88-6.33,2.88h-109.44v32.22c0,39.17-4.42,70.06-13.15,91.83
				c-0.94,2.58-2.83,4.31-5.46,4.94C1385.37,1041.49,1384.71,1041.58,1384.02,1041.58z"/>
		</g>
	</g>
</g>
</svg>
