<?xml version="1.0" encoding="utf-8"?>
<!-- Generator: Adobe Illustrator 23.0.5, SVG Export Plug-In . SVG Version: 6.00 Build 0)  -->
<svg version="1.1" id="圖層_1" xmlns="http://www.w3.org/2000/svg" xmlns:xlink="http://www.w3.org/1999/xlink" x="0px" y="0px"
	 viewBox="0 0 1920 1080" style="enable-background:new 0 0 1920 1080;" xml:space="preserve">
<style type="text/css">
	.st0{fill:#FFFFFF;stroke:#FBFDE6;stroke-width:0.75;stroke-miterlimit:10;}
	.st1{fill:#393940;stroke:#000000;stroke-miterlimit:10;}
	.st2{fill:#3F3D3D;stroke:#000000;stroke-miterlimit:10;}
	.st3{fill:#706B6B;stroke:#000000;stroke-miterlimit:10;}
	.st4{fill:#09C609;}
</style>
<path class="st0" d="M991.7,214.4c-9.4-1.4-19-2.8-28.7-4.1c-11.1-1.5-22-2.9-32.8-4.1c5.8-20.1,11.6-47.7,12.3-80.7
	c0.8-35.8-4.7-65.7-10.2-86.9c21.2,0,42.3,0,63.5,0c4.5,21.7,8.3,49.1,8.2,80.7C1003.9,157.6,998,190,991.7,214.4z"/>
<path class="st1" d="M1143.3,314.7c-35.2-12.3-98.3-30.1-180.3-31.1c-75.4-0.9-134.9,12.9-170,23.3c7.5-31.1,15-62.2,22.5-93.3
	c38.9-9.9,92.6-19.3,156.7-17.9c60.5,1.3,111.2,11.8,148.5,22.5C1128.3,250.4,1135.8,282.6,1143.3,314.7z"/>
<ellipse class="st1" cx="969.2" cy="652" rx="413.8" ry="389"/>
<rect x="714.7" y="592.3" class="st2" width="509.1" height="183.9"/>
<rect x="748.8" y="620.6" class="st3" width="133.2" height="127.2"/>
<g>
	<path class="st4" d="M807.4,669.8h-20.4c0.3-6.3,3-10.9,8-13.9c5-3,11.2-4.5,18.9-4.5c8,0,14.3,1.5,19.1,4.6
		c4.8,3.1,7.1,7.2,7.1,12.4c0,7.8-5.1,13.4-15.2,16.8v7.1h-19.7v-13.9c4.8-0.1,8.3-0.8,10.5-2.1c2.1-1.3,3.2-3.6,3.2-6.8
		c0-4.4-1.8-6.6-5.5-6.6C809.5,662.8,807.5,665.2,807.4,669.8z M804.7,702.3c0-1.8,1.1-3.4,3.2-4.7c2.1-1.3,4.7-2,7.6-2
		c3.1,0,5.7,0.6,7.7,1.9c2,1.3,3.1,2.9,3.1,4.8c0,1.9-1,3.4-3.1,4.8c-2.1,1.3-4.6,2-7.6,2c-2.9,0-5.5-0.7-7.6-2
		C805.8,705.7,804.7,704.1,804.7,702.3z"/>
</g>
<rect x="907.9" y="620.6" class="st3" width="133.2" height="127.2"/>
<g>
	<path class="st4" d="M966.4,669.8H946c0.3-6.3,3-10.9,8-13.9c5-3,11.2-4.5,18.9-4.5c8,0,14.3,1.5,19.1,4.6
		c4.8,3.1,7.1,7.2,7.1,12.4c0,7.8-5.1,13.4-15.2,16.8v7.1h-19.7v-13.9c4.8-0.1,8.3-0.8,10.5-2.1c2.1-1.3,3.2-3.6,3.2-6.8
		c0-4.4-1.8-6.6-5.5-6.6C968.6,662.8,966.6,665.2,966.4,669.8z M963.8,702.3c0-1.8,1.1-3.4,3.2-4.7c2.1-1.3,4.7-2,7.6-2
		c3.1,0,5.7,0.6,7.7,1.9c2,1.3,3.1,2.9,3.1,4.8c0,1.9-1,3.4-3.1,4.8c-2.1,1.3-4.6,2-7.6,2c-2.9,0-5.5-0.7-7.6-2
		C964.8,705.7,963.8,704.1,963.8,702.3z"/>
</g>
<rect x="1067" y="620.6" class="st3" width="133.2" height="127.2"/>
<g>
	<path class="st4" d="M1125.5,669.8h-20.4c0.3-6.3,3-10.9,8-13.9c5-3,11.2-4.5,18.9-4.5c8,0,14.3,1.5,19.1,4.6
		c4.8,3.1,7.1,7.2,7.1,12.4c0,7.8-5.1,13.4-15.2,16.8v7.1h-19.7v-13.9c4.8-0.1,8.3-0.8,10.5-2.1c2.1-1.3,3.2-3.6,3.2-6.8
		c0-4.4-1.8-6.6-5.5-6.6C1127.6,662.8,1125.7,665.2,1125.5,669.8z M1122.9,702.3c0-1.8,1.1-3.4,3.2-4.7c2.1-1.3,4.7-2,7.6-2
		c3.1,0,5.7,0.6,7.7,1.9c2,1.3,3.1,2.9,3.1,4.8c0,1.9-1,3.4-3.1,4.8c-2.1,1.3-4.6,2-7.6,2c-2.9,0-5.5-0.7-7.6-2
		C1123.9,705.7,1122.9,704.1,1122.9,702.3z"/>
</g>
</svg>
