<?xml version="1.0" encoding="utf-8"?>
<!-- Generator: Adobe Illustrator 23.0.5, SVG Export Plug-In . SVG Version: 6.00 Build 0)  -->
<svg version="1.1" id="圖層_1" xmlns="http://www.w3.org/2000/svg" xmlns:xlink="http://www.w3.org/1999/xlink" x="0px" y="0px"
	 viewBox="0 0 1920 1080" style="enable-background:new 0 0 1920 1080;" xml:space="preserve">
<style type="text/css">
	.st0{fill:#FFFFFF;stroke:#FBFDE6;stroke-width:0.75;stroke-miterlimit:10;}
	.st1{fill:#393940;stroke:#000000;stroke-miterlimit:10;}
	.st2{fill:#3F3D3D;stroke:#000000;stroke-miterlimit:10;}
	.st3{fill:#706B6B;stroke:#000000;stroke-miterlimit:10;}
	.st4{fill:#09C609;}
	.st5{fill:#FFFFFF;}
	.st6{fill:none;stroke:#000000;stroke-width:2;stroke-miterlimit:10;}
</style>
<path class="st0" d="M991.7,214.4c-9.4-1.4-19-2.8-28.7-4.1c-11.1-1.5-22-2.9-32.8-4.1c5.8-20.1,11.6-47.7,12.3-80.7
	c0.8-35.8-4.7-65.7-10.2-86.9c21.2,0,42.3,0,63.5,0c4.5,21.7,8.3,49.1,8.2,80.7C1003.9,157.6,998,190,991.7,214.4z"/>
<path class="st1" d="M1143.3,314.7c-35.2-12.3-98.3-30.1-180.3-31.1c-75.4-0.9-134.9,12.9-170,23.3c7.5-31.1,15-62.2,22.5-93.3
	c38.9-9.9,92.6-19.3,156.7-17.9c60.5,1.3,111.2,11.8,148.5,22.5C1128.3,250.4,1135.8,282.6,1143.3,314.7z"/>
<ellipse class="st1" cx="969.2" cy="652" rx="413.8" ry="389"/>
<rect x="714.7" y="592.3" class="st2" width="509.1" height="183.9"/>
<rect x="748.8" y="620.6" class="st3" width="133.2" height="127.2"/>
<g>
	<path class="st4" d="M807.4,669.8H787c0.3-6.3,3-10.9,8-13.9s11.2-4.5,18.9-4.5c8,0,14.3,1.5,19.1,4.6s7.1,7.2,7.1,12.4
		c0,7.8-5.1,13.4-15.2,16.8v7.1h-19.7v-13.9c4.8-0.1,8.3-0.8,10.5-2.1c2.1-1.3,3.2-3.6,3.2-6.8c0-4.4-1.8-6.6-5.5-6.6
		C809.5,662.8,807.5,665.2,807.4,669.8z M804.7,702.3c0-1.8,1.1-3.4,3.2-4.7c2.1-1.3,4.7-2,7.6-2c3.1,0,5.7,0.6,7.7,1.9
		c2,1.3,3.1,2.9,3.1,4.8c0,1.9-1,3.4-3.1,4.8c-2.1,1.3-4.6,2-7.6,2c-2.9,0-5.5-0.7-7.6-2C805.8,705.7,804.7,704.1,804.7,702.3z"/>
</g>
<rect x="907.9" y="620.6" class="st3" width="133.2" height="127.2"/>
<g>
	<path class="st4" d="M966.4,669.8H946c0.3-6.3,3-10.9,8-13.9s11.2-4.5,18.9-4.5c8,0,14.3,1.5,19.1,4.6s7.1,7.2,7.1,12.4
		c0,7.8-5.1,13.4-15.2,16.8v7.1h-19.7v-13.9c4.8-0.1,8.3-0.8,10.5-2.1c2.1-1.3,3.2-3.6,3.2-6.8c0-4.4-1.8-6.6-5.5-6.6
		C968.6,662.8,966.6,665.2,966.4,669.8z M963.8,702.3c0-1.8,1.1-3.4,3.2-4.7c2.1-1.3,4.7-2,7.6-2c3.1,0,5.7,0.6,7.7,1.9
		c2,1.3,3.1,2.9,3.1,4.8c0,1.9-1,3.4-3.1,4.8c-2.1,1.3-4.6,2-7.6,2c-2.9,0-5.5-0.7-7.6-2C964.8,705.7,963.8,704.1,963.8,702.3z"/>
</g>
<rect x="1067" y="620.6" class="st3" width="133.2" height="127.2"/>
<g>
	<path class="st4" d="M1125.5,669.8h-20.4c0.3-6.3,3-10.9,8-13.9s11.2-4.5,18.9-4.5c8,0,14.3,1.5,19.1,4.6c4.8,3.1,7.1,7.2,7.1,12.4
		c0,7.8-5.1,13.4-15.2,16.8v7.1h-19.7v-13.9c4.8-0.1,8.3-0.8,10.5-2.1c2.1-1.3,3.2-3.6,3.2-6.8c0-4.4-1.8-6.6-5.5-6.6
		C1127.6,662.8,1125.7,665.2,1125.5,669.8z M1122.9,702.3c0-1.8,1.1-3.4,3.2-4.7s4.7-2,7.6-2c3.1,0,5.7,0.6,7.7,1.9
		c2,1.3,3.1,2.9,3.1,4.8c0,1.9-1,3.4-3.1,4.8c-2.1,1.3-4.6,2-7.6,2c-2.9,0-5.5-0.7-7.6-2C1123.9,705.7,1122.9,704.1,1122.9,702.3z"
		/>
</g>
<g>
	<g>
		<g>
			<path class="st5" d="M613.99,1042.98c-3.16,0-5.84-1.13-7.98-3.35c-2.12-2.2-3.2-4.84-3.2-7.83v-39.84c0-3,1.08-5.63,3.2-7.83
				c2.14-2.22,4.8-3.35,7.89-3.35c3.07,0,5.75,1.12,7.96,3.32c2.21,2.21,3.32,4.85,3.32,7.86v21.63h35.84V981.6
				c0-3.14,1.12-5.85,3.32-8.05c0.85-0.85,1.77-1.53,2.76-2.05h-5.83c-9.06,0-15.5-0.81-19.69-2.49c-0.41-0.16-0.78-0.25-1.11-0.25
				l0,0c-0.27,0-0.53,0.06-0.77,0.18l-0.1,0.05c-12.12,5.21-25.2,9.97-38.88,14.14l-0.07,0.02l-0.07,0.02
				c-1.3,0.29-2.56,0.44-3.76,0.44c-1.67,0-3.34-0.3-4.98-0.9c-3.01-1.2-5.42-3.08-7.2-5.61c-1.03-1.54-1.54-3.17-1.54-4.86
				c0-0.88,0.17-1.76,0.51-2.62c0.87-2.7,2.77-4.49,5.5-5.18c14.94-3.86,28.91-8.5,41.51-13.77c0.36-0.16,0.53-0.33,0.53-0.89
				v-29.69c0-2.74,1.01-5.18,3-7.25c2.01-2.09,4.5-3.15,7.4-3.15c2.89,0,5.38,1.06,7.4,3.15c1.99,2.08,3,4.51,3,7.25v20.67
				c19.45-10.13,35.22-22.18,46.87-35.84c1.96-2.26,4.4-3.79,7.26-4.54c1.05-0.3,2.16-0.46,3.24-0.46c1.84,0,3.62,0.39,5.32,1.15
				c2.62,1.15,4.37,3.25,5.03,6.05c0.66,2.82,0.04,5.45-1.79,7.61c-11.88,13.95-27.42,26.75-46.24,38.11h25.77
				c3.72,0,5.31-0.73,5.98-1.34c0.57-0.51,1.6-2.01,2.19-6.31c0.34-2.42,1.65-4.36,3.79-5.64c1.21-0.73,2.5-1.1,3.83-1.1
				c1.02,0,2.06,0.22,3.1,0.66c2.56,0.92,4.7,2.53,6.35,4.78l0.08,0.11c1.11,1.76,1.68,3.69,1.68,5.76v1.75l-0.03,0.18
				c-1.41,7.61-3.92,12.7-7.69,15.58c-3.71,2.84-9.45,4.22-17.52,4.22h-21.46c0.99,0.52,1.91,1.21,2.76,2.05
				c2.21,2.21,3.32,4.92,3.32,8.06v31.98h38.19v-21.44c0-3.14,1.12-5.85,3.32-8.05c2.2-2.2,4.88-3.32,7.96-3.32
				c3.07,0,5.75,1.12,7.96,3.32c2.21,2.21,3.32,4.92,3.32,8.06v39.06c0,3.14-1.12,5.85-3.32,8.05c-2.21,2.21-4.85,3.32-7.86,3.32
				h-2.34c-2.49,0-4.65-0.89-6.39-2.64c-1.46-1.46-2.32-3.19-2.56-5.18H625.1c-0.25,2.1-1.14,3.94-2.66,5.47
				c-1.82,1.82-4.07,2.74-6.69,2.74H613.99z M753.05,960.75c-0.66,0-1.39-0.08-2.16-0.24c-2.83-0.63-5.12-2.05-6.84-4.24
				c-5.93-8.12-13.47-16.5-22.45-24.97c-1.83-1.66-2.78-3.74-2.78-6.14c0-3.02,1.33-5.42,3.84-6.95c2.01-1.38,4.35-2.08,6.95-2.08
				l0.69,0c2.94,0.16,5.46,1.19,7.5,3.07c9.53,8.49,17.5,16.79,23.66,24.65c1.33,1.84,1.99,3.88,1.99,6.12
				c0,0.65-0.08,1.31-0.23,1.97c-0.49,2.83-1.94,5.15-4.29,6.87C756.96,960.11,755.01,960.75,753.05,960.75z M596.8,957.82
				c-3.01,0-5.75-0.91-8.16-2.69c-2.23-1.41-3.41-3.6-3.41-6.34c0-2.65,1.01-4.92,2.99-6.75c6.44-5.55,11.65-12.62,15.55-21.05
				c1.1-2.51,2.95-4.37,5.5-5.48c1.42-0.63,2.78-0.95,4.02-0.95c1.21,0,2.46,0.24,3.73,0.71c2.6,0.97,4.49,2.78,5.62,5.37
				c0.62,1.24,0.95,2.59,0.95,3.93c0,1.28-0.24,2.57-0.71,3.83c-4.82,11.11-10.76,19.88-17.72,26.17c-2.15,2-4.88,3.1-8.08,3.25
				l-0.05,0H596.8z M674.87,920.98c-2.13,0-4.09-0.69-5.85-2.04c-6.33-4.43-13.61-8.71-21.55-12.69c-2.22-1.02-3.66-2.84-4.1-5.24
				c-0.43-2.31,0.05-4.44,1.42-6.32l0.07-0.09l0.08-0.08c0.87-0.95,1.83-1.72,2.87-2.31h-39.04v12.26c0,3.01-1.08,5.62-3.22,7.76
				c-2.14,2.14-4.78,3.22-7.86,3.22c-3.09,0-5.75-1.13-7.89-3.35c-2.12-2.2-3.2-4.77-3.2-7.64v-14.06c0-5.21,1.87-9.73,5.57-13.43
				c3.69-3.69,8.21-5.57,13.43-5.57h55.23v-4.45c0-3.42,1.13-6.24,3.35-8.37c2.2-2.12,4.93-3.2,8.13-3.2c3.2,0,5.94,1.12,8.15,3.32
				c2.21,2.21,3.32,4.98,3.32,8.25v4.45h56.59c5.22,0,9.73,1.87,13.43,5.57c3.69,3.69,5.57,8.21,5.57,13.43v13.48
				c0,3.12-1.07,5.84-3.17,8.1c-2.14,2.3-4.9,3.47-8.2,3.47c-3.29,0-6.07-1.16-8.28-3.44c-2.19-2.26-3.29-4.99-3.29-8.13V892.2
				h-77.13c8.2,3.78,15.41,7.74,21.45,11.77c2.3,1.48,3.66,3.68,3.91,6.36c0.24,2.59-0.45,4.97-2.07,7.07
				c-1.68,2.02-3.83,3.18-6.42,3.5C675.72,920.95,675.29,920.98,674.87,920.98z"/>
			<path class="st6" d="M613.99,1042.98c-3.16,0-5.84-1.13-7.98-3.35c-2.12-2.2-3.2-4.84-3.2-7.83v-39.84c0-3,1.08-5.63,3.2-7.83
				c2.14-2.22,4.8-3.35,7.89-3.35c3.07,0,5.75,1.12,7.96,3.32c2.21,2.21,3.32,4.85,3.32,7.86v21.63h35.84V981.6
				c0-3.14,1.12-5.85,3.32-8.05c0.85-0.85,1.77-1.53,2.76-2.05h-5.83c-9.06,0-15.5-0.81-19.69-2.49c-0.41-0.16-0.78-0.25-1.11-0.25
				l0,0c-0.27,0-0.53,0.06-0.77,0.18l-0.1,0.05c-12.12,5.21-25.2,9.97-38.88,14.14l-0.07,0.02l-0.07,0.02
				c-1.3,0.29-2.56,0.44-3.76,0.44c-1.67,0-3.34-0.3-4.98-0.9c-3.01-1.2-5.42-3.08-7.2-5.61c-1.03-1.54-1.54-3.17-1.54-4.86
				c0-0.88,0.17-1.76,0.51-2.62c0.87-2.7,2.77-4.49,5.5-5.18c14.94-3.86,28.91-8.5,41.51-13.77c0.36-0.16,0.53-0.33,0.53-0.89
				v-29.69c0-2.74,1.01-5.18,3-7.25c2.01-2.09,4.5-3.15,7.4-3.15c2.89,0,5.38,1.06,7.4,3.15c1.99,2.08,3,4.51,3,7.25v20.67
				c19.45-10.13,35.22-22.18,46.87-35.84c1.96-2.26,4.4-3.79,7.26-4.54c1.05-0.3,2.16-0.46,3.24-0.46c1.84,0,3.62,0.39,5.32,1.15
				c2.62,1.15,4.37,3.25,5.03,6.05c0.66,2.82,0.04,5.45-1.79,7.61c-11.88,13.95-27.42,26.75-46.24,38.11h25.77
				c3.72,0,5.31-0.73,5.98-1.34c0.57-0.51,1.6-2.01,2.19-6.31c0.34-2.42,1.65-4.36,3.79-5.64c1.21-0.73,2.5-1.1,3.83-1.1
				c1.02,0,2.06,0.22,3.1,0.66c2.56,0.92,4.7,2.53,6.35,4.78l0.08,0.11c1.11,1.76,1.68,3.69,1.68,5.76v1.75l-0.03,0.18
				c-1.41,7.61-3.92,12.7-7.69,15.58c-3.71,2.84-9.45,4.22-17.52,4.22h-21.46c0.99,0.52,1.91,1.21,2.76,2.05
				c2.21,2.21,3.32,4.92,3.32,8.06v31.98h38.19v-21.44c0-3.14,1.12-5.85,3.32-8.05c2.2-2.2,4.88-3.32,7.96-3.32
				c3.07,0,5.75,1.12,7.96,3.32c2.21,2.21,3.32,4.92,3.32,8.06v39.06c0,3.14-1.12,5.85-3.32,8.05c-2.21,2.21-4.85,3.32-7.86,3.32
				h-2.34c-2.49,0-4.65-0.89-6.39-2.64c-1.46-1.46-2.32-3.19-2.56-5.18H625.1c-0.25,2.1-1.14,3.94-2.66,5.47
				c-1.82,1.82-4.07,2.74-6.69,2.74H613.99z M753.05,960.75c-0.66,0-1.39-0.08-2.16-0.24c-2.83-0.63-5.12-2.05-6.84-4.24
				c-5.93-8.12-13.47-16.5-22.45-24.97c-1.83-1.66-2.78-3.74-2.78-6.14c0-3.02,1.33-5.42,3.84-6.95c2.01-1.38,4.35-2.08,6.95-2.08
				l0.69,0c2.94,0.16,5.46,1.19,7.5,3.07c9.53,8.49,17.5,16.79,23.66,24.65c1.33,1.84,1.99,3.88,1.99,6.12
				c0,0.65-0.08,1.31-0.23,1.97c-0.49,2.83-1.94,5.15-4.29,6.87C756.96,960.11,755.01,960.75,753.05,960.75z M596.8,957.82
				c-3.01,0-5.75-0.91-8.16-2.69c-2.23-1.41-3.41-3.6-3.41-6.34c0-2.65,1.01-4.92,2.99-6.75c6.44-5.55,11.65-12.62,15.55-21.05
				c1.1-2.51,2.95-4.37,5.5-5.48c1.42-0.63,2.78-0.95,4.02-0.95c1.21,0,2.46,0.24,3.73,0.71c2.6,0.97,4.49,2.78,5.62,5.37
				c0.62,1.24,0.95,2.59,0.95,3.93c0,1.28-0.24,2.57-0.71,3.83c-4.82,11.11-10.76,19.88-17.72,26.17c-2.15,2-4.88,3.1-8.08,3.25
				l-0.05,0H596.8z M674.87,920.98c-2.13,0-4.09-0.69-5.85-2.04c-6.33-4.43-13.61-8.71-21.55-12.69c-2.22-1.02-3.66-2.84-4.1-5.24
				c-0.43-2.31,0.05-4.44,1.42-6.32l0.07-0.09l0.08-0.08c0.87-0.95,1.83-1.72,2.87-2.31h-39.04v12.26c0,3.01-1.08,5.62-3.22,7.76
				c-2.14,2.14-4.78,3.22-7.86,3.22c-3.09,0-5.75-1.13-7.89-3.35c-2.12-2.2-3.2-4.77-3.2-7.64v-14.06c0-5.21,1.87-9.73,5.57-13.43
				c3.69-3.69,8.21-5.57,13.43-5.57h55.23v-4.45c0-3.42,1.13-6.24,3.35-8.37c2.2-2.12,4.93-3.2,8.13-3.2c3.2,0,5.94,1.12,8.15,3.32
				c2.21,2.21,3.32,4.98,3.32,8.25v4.45h56.59c5.22,0,9.73,1.87,13.43,5.57c3.69,3.69,5.57,8.21,5.57,13.43v13.48
				c0,3.12-1.07,5.84-3.17,8.1c-2.14,2.3-4.9,3.47-8.2,3.47c-3.29,0-6.07-1.16-8.28-3.44c-2.19-2.26-3.29-4.99-3.29-8.13V892.2
				h-77.13c8.2,3.78,15.41,7.74,21.45,11.77c2.3,1.48,3.66,3.68,3.91,6.36c0.24,2.59-0.45,4.97-2.07,7.07
				c-1.68,2.02-3.83,3.18-6.42,3.5C675.72,920.95,675.29,920.98,674.87,920.98z"/>
		</g>
		<g>
			<path class="st5" d="M925.9,1043.17c-2.72,0-5.18-1-7.32-2.97c-2.01-1.86-3.47-4.22-4.36-7.02l-0.03-0.09l-0.02-0.09
				c-0.5-2.36-0.11-4.54,1.16-6.49c1.27-1.94,3.21-2.97,5.61-2.97c0.19,0,0.39,0.01,0.6,0.02c4.05,0.13,7.29,0.19,9.83,0.19
				c2.22,0,3.74-0.48,4.51-1.41c0.89-1.12,2.57-4.81,4-16.66c-0.63,0.13-1.25,0.2-1.86,0.2c-1.28,0-2.57-0.24-3.83-0.71
				c-2.72-1.12-4.71-2.95-5.97-5.47c-1.81-3.87-3.81-7.61-5.98-11.18c-0.94-1.5-1.15-3.28-0.6-5.13c0.56-1.85,1.75-3.23,3.45-3.99
				c1.09-0.49,2.23-0.75,3.38-0.75c0.8,0,1.61,0.12,2.41,0.37c1.95,0.6,3.46,1.69,4.5,3.25c2.12,3.18,4.06,6.46,5.78,9.8
				c0.41-5.3,0.71-10.81,0.9-16.46h-61.08c-5.22,0-9.73-1.87-13.43-5.57c-3.69-3.69-5.57-8.21-5.57-13.43v-74.41
				c0-5.21,1.87-9.73,5.57-13.43c3.69-3.69,8.21-5.57,13.43-5.57h68.55c2.88,0,5.33,0.99,7.27,2.93c1.94,1.94,2.93,4.36,2.93,7.18
				c0,2.8-0.98,5.24-2.9,7.25c-1.94,2.03-4.4,3.06-7.3,3.06h-25.93v10.84h21.83c2.6,0,4.84,0.88,6.65,2.6
				c1.84,1.75,2.77,3.95,2.77,6.53c0,2.56-0.92,4.78-2.73,6.59c-1.81,1.81-4.06,2.73-6.69,2.73h-21.83v11.63h21.83
				c2.47,0,4.68,0.91,6.56,2.7c1.9,1.82,2.86,4.08,2.86,6.72c0,2.64-0.96,4.9-2.86,6.72c-1.87,1.79-4.08,2.7-6.56,2.7h-21.83v12.02
				h21.24c5.1,0,9.53,1.92,13.16,5.69c3.34,3.34,5.05,7.5,5.05,12.32c0,13.06-1.19,27.81-3.54,43.84c-1.37,9.3-3.23,15.3-5.7,18.35
				c-3.64,4.07-8.39,6.46-14.2,7.17c-3.25,0.27-7.25,0.41-11.96,0.41H925.9z M903.01,955.39v-12.02h-20.02v12.02H903.01z
				 M903.01,924.53V912.9h-20.02v11.63H903.01z M903.01,894.45V883.6h-20.02v10.84H903.01z M804.22,1034
				c-2.75,0-5.13-0.99-7.08-2.93c-1.94-1.94-2.93-4.33-2.93-7.08v-43.92c-1.37,1.31-3.13,1.99-5.18,1.99
				c-0.18,0-0.36-0.01-0.55-0.02c-3.01-0.17-5.33-1.59-6.7-4.13c-1.99-3.28-3-6.63-3-9.98c0-2.92,0.8-5.93,2.38-8.94
				c9.45-17.5,16.53-42.47,21.03-74.22h-10.86c-2.89,0-5.4-1.05-7.47-3.13c-2.07-2.07-3.12-4.58-3.12-7.47c0-2.9,1.06-5.39,3.15-7.4
				c2.07-1.99,4.57-3,7.44-3h56.84c2.88,0,5.36,1.02,7.37,3.03c2.01,2.01,3.03,4.49,3.03,7.37c0,2.87-1.01,5.37-3,7.44
				c-2.01,2.09-4.5,3.15-7.4,3.15h-23.83c-0.22,0-0.3,0.04-0.3,0.04h0c0.01,0-0.04,0.1-0.08,0.31c-2.28,14.83-5.05,28.64-8.23,40.97
				h17.01c5.22,0,9.73,1.87,13.43,5.57c3.69,3.69,5.57,8.21,5.57,13.43v54.1c0,5.21-1.87,9.73-5.57,13.43
				c-3.69,3.69-8.21,5.57-13.43,5.57h-18.5l0,5.81c0,2.75-0.99,5.13-2.93,7.08C809.36,1033.01,806.98,1034,804.22,1034z
				 M831.33,997.77V946.3h-17.09v51.47H831.33z M857.85,1031.5c-1.78,0-3.47-0.5-5.04-1.49c-2.16-1.19-3.57-3.13-4.07-5.63
				c-0.15-0.58-0.23-1.33-0.23-2.15c0-1.64,0.41-3.22,1.23-4.68c3.9-7.05,6.85-16.88,8.76-29.22c0.33-2.34,1.49-4.26,3.42-5.7
				c1.46-1.08,3.06-1.62,4.78-1.62c0.59,0,1.2,0.07,1.81,0.2c2.62,0.66,4.66,2.04,6.11,4.14c1.46,2.1,2.03,4.48,1.71,7.05
				c-2.11,14.8-5.48,26.33-10.01,34.33c-1.33,2.32-3.36,3.82-6.05,4.47C859.45,1031.4,858.64,1031.5,857.85,1031.5z M888.78,1026.13
				c-1.74,0-3.32-0.66-4.68-1.96c-1.71-1.62-2.57-3.52-2.57-5.65c-0.26-7.52-0.91-15.48-1.94-23.58c-0.34-2.19,0.18-4.24,1.57-6.05
				c1.33-1.74,3.09-2.88,5.24-3.37l0.15-0.03c0.42-0.06,0.84-0.1,1.25-0.1c1.78,0,3.43,0.6,4.9,1.79c1.72,1.39,2.84,3.18,3.33,5.3
				l0.02,0.13c1.31,7.99,2.11,15.9,2.37,23.5c0.16,2.41-0.55,4.63-2.12,6.52c-1.54,1.87-3.55,2.99-5.97,3.33
				C889.8,1026.07,889.28,1026.13,888.78,1026.13z M914.05,1018.26c-1.35,0-2.67-0.39-3.94-1.16c-1.97-1.2-3.2-3.01-3.56-5.25
				c-1.28-6.12-2.96-12.34-5.01-18.48c-0.7-1.91-0.57-3.88,0.4-5.82c0.96-1.92,2.5-3.24,4.57-3.93l0.09-0.03l0.09-0.02
				c0.71-0.16,1.42-0.25,2.11-0.25c1.41,0,2.77,0.34,4.05,1.01c1.92,1,3.31,2.52,4.14,4.52l0.04,0.12
				c2.22,6.4,4.08,12.57,5.52,18.33c0.51,2.38,0.17,4.57-0.99,6.57c-1.18,2.02-2.96,3.38-5.28,4.04
				C915.61,1018.13,914.83,1018.26,914.05,1018.26z"/>
			<path class="st6" d="M925.9,1043.17c-2.72,0-5.18-1-7.32-2.97c-2.01-1.86-3.47-4.22-4.36-7.02l-0.03-0.09l-0.02-0.09
				c-0.5-2.36-0.11-4.54,1.16-6.49c1.27-1.94,3.21-2.97,5.61-2.97c0.19,0,0.39,0.01,0.6,0.02c4.05,0.13,7.29,0.19,9.83,0.19
				c2.22,0,3.74-0.48,4.51-1.41c0.89-1.12,2.57-4.81,4-16.66c-0.63,0.13-1.25,0.2-1.86,0.2c-1.28,0-2.57-0.24-3.83-0.71
				c-2.72-1.12-4.71-2.95-5.97-5.47c-1.81-3.87-3.81-7.61-5.98-11.18c-0.94-1.5-1.15-3.28-0.6-5.13c0.56-1.85,1.75-3.23,3.45-3.99
				c1.09-0.49,2.23-0.75,3.38-0.75c0.8,0,1.61,0.12,2.41,0.37c1.95,0.6,3.46,1.69,4.5,3.25c2.12,3.18,4.06,6.46,5.78,9.8
				c0.41-5.3,0.71-10.81,0.9-16.46h-61.08c-5.22,0-9.73-1.87-13.43-5.57c-3.69-3.69-5.57-8.21-5.57-13.43v-74.41
				c0-5.21,1.87-9.73,5.57-13.43c3.69-3.69,8.21-5.57,13.43-5.57h68.55c2.88,0,5.33,0.99,7.27,2.93c1.94,1.94,2.93,4.36,2.93,7.18
				c0,2.8-0.98,5.24-2.9,7.25c-1.94,2.03-4.4,3.06-7.3,3.06h-25.93v10.84h21.83c2.6,0,4.84,0.88,6.65,2.6
				c1.84,1.75,2.77,3.95,2.77,6.53c0,2.56-0.92,4.78-2.73,6.59c-1.81,1.81-4.06,2.73-6.69,2.73h-21.83v11.63h21.83
				c2.47,0,4.68,0.91,6.56,2.7c1.9,1.82,2.86,4.08,2.86,6.72c0,2.64-0.96,4.9-2.86,6.72c-1.87,1.79-4.08,2.7-6.56,2.7h-21.83v12.02
				h21.24c5.1,0,9.53,1.92,13.16,5.69c3.34,3.34,5.05,7.5,5.05,12.32c0,13.06-1.19,27.81-3.54,43.84c-1.37,9.3-3.23,15.3-5.7,18.35
				c-3.64,4.07-8.39,6.46-14.2,7.17c-3.25,0.27-7.25,0.41-11.96,0.41H925.9z M903.01,955.39v-12.02h-20.02v12.02H903.01z
				 M903.01,924.53V912.9h-20.02v11.63H903.01z M903.01,894.45V883.6h-20.02v10.84H903.01z M804.22,1034
				c-2.75,0-5.13-0.99-7.08-2.93c-1.94-1.94-2.93-4.33-2.93-7.08v-43.92c-1.37,1.31-3.13,1.99-5.18,1.99
				c-0.18,0-0.36-0.01-0.55-0.02c-3.01-0.17-5.33-1.59-6.7-4.13c-1.99-3.28-3-6.63-3-9.98c0-2.92,0.8-5.93,2.38-8.94
				c9.45-17.5,16.53-42.47,21.03-74.22h-10.86c-2.89,0-5.4-1.05-7.47-3.13c-2.07-2.07-3.12-4.58-3.12-7.47c0-2.9,1.06-5.39,3.15-7.4
				c2.07-1.99,4.57-3,7.44-3h56.84c2.88,0,5.36,1.02,7.37,3.03c2.01,2.01,3.03,4.49,3.03,7.37c0,2.87-1.01,5.37-3,7.44
				c-2.01,2.09-4.5,3.15-7.4,3.15h-23.83c-0.22,0-0.3,0.04-0.3,0.04h0c0.01,0-0.04,0.1-0.08,0.31c-2.28,14.83-5.05,28.64-8.23,40.97
				h17.01c5.22,0,9.73,1.87,13.43,5.57c3.69,3.69,5.57,8.21,5.57,13.43v54.1c0,5.21-1.87,9.73-5.57,13.43
				c-3.69,3.69-8.21,5.57-13.43,5.57h-18.5l0,5.81c0,2.75-0.99,5.13-2.93,7.08C809.36,1033.01,806.98,1034,804.22,1034z
				 M831.33,997.77V946.3h-17.09v51.47H831.33z M857.85,1031.5c-1.78,0-3.47-0.5-5.04-1.49c-2.16-1.19-3.57-3.13-4.07-5.63
				c-0.15-0.58-0.23-1.33-0.23-2.15c0-1.64,0.41-3.22,1.23-4.68c3.9-7.05,6.85-16.88,8.76-29.22c0.33-2.34,1.49-4.26,3.42-5.7
				c1.46-1.08,3.06-1.62,4.78-1.62c0.59,0,1.2,0.07,1.81,0.2c2.62,0.66,4.66,2.04,6.11,4.14c1.46,2.1,2.03,4.48,1.71,7.05
				c-2.11,14.8-5.48,26.33-10.01,34.33c-1.33,2.32-3.36,3.82-6.05,4.47C859.45,1031.4,858.64,1031.5,857.85,1031.5z M888.78,1026.13
				c-1.74,0-3.32-0.66-4.68-1.96c-1.71-1.62-2.57-3.52-2.57-5.65c-0.26-7.52-0.91-15.48-1.94-23.58c-0.34-2.19,0.18-4.24,1.57-6.05
				c1.33-1.74,3.09-2.88,5.24-3.37l0.15-0.03c0.42-0.06,0.84-0.1,1.25-0.1c1.78,0,3.43,0.6,4.9,1.79c1.72,1.39,2.84,3.18,3.33,5.3
				l0.02,0.13c1.31,7.99,2.11,15.9,2.37,23.5c0.16,2.41-0.55,4.63-2.12,6.52c-1.54,1.87-3.55,2.99-5.97,3.33
				C889.8,1026.07,889.28,1026.13,888.78,1026.13z M914.05,1018.26c-1.35,0-2.67-0.39-3.94-1.16c-1.97-1.2-3.2-3.01-3.56-5.25
				c-1.28-6.12-2.96-12.34-5.01-18.48c-0.7-1.91-0.57-3.88,0.4-5.82c0.96-1.92,2.5-3.24,4.57-3.93l0.09-0.03l0.09-0.02
				c0.71-0.16,1.42-0.25,2.11-0.25c1.41,0,2.77,0.34,4.05,1.01c1.92,1,3.31,2.52,4.14,4.52l0.04,0.12
				c2.22,6.4,4.08,12.57,5.52,18.33c0.51,2.38,0.17,4.57-0.99,6.57c-1.18,2.02-2.96,3.38-5.28,4.04
				C915.61,1018.13,914.83,1018.26,914.05,1018.26z"/>
		</g>
		<g>
			<path class="st5" d="M1042.7,1042.59c-2.8,0-5.32-0.93-7.49-2.78c-2.23-1.66-3.88-3.84-4.92-6.51c-0.88-2.45-0.6-4.84,0.77-6.98
				c1.33-2.08,3.26-3.18,5.59-3.18c0.15,0,0.3,0,0.46,0.01h11.94c1.17-0.13,1.54-0.41,1.6-0.47c0.06-0.05,0.21-0.34,0.21-1.05
				v-30.62h-40.38c-0.22,0-0.3,0.04-0.3,0.04c0,0,0,0,0,0c0.01,0-0.03,0.08-0.07,0.23c-1.85,17.83-5.73,32.62-11.53,43.96
				c-1.17,2.33-3.19,3.88-5.84,4.46c-0.72,0.16-1.44,0.24-2.13,0.24c-1.8,0-3.49-0.53-5.03-1.57c-2.24-1.31-3.71-3.26-4.37-5.82
				c-0.31-0.95-0.47-1.93-0.47-2.9c0-1.45,0.32-2.91,0.95-4.33c7.28-14.7,10.96-36.61,10.96-65.2V931.7c-0.01,0-0.03,0-0.04,0
				c-1.1,0-2.14-0.48-3.08-1.42c-1.47-1.34-3.02-2.7-4.55-3.98c-2.16-1.69-3.45-3.98-3.81-6.78c-0.15-0.52-0.23-1.06-0.23-1.59
				c0-2.26,0.73-4.37,2.16-6.28c9.32-12.38,16.77-28.07,22.14-46.62c0.78-2.81,2.45-5.04,4.96-6.61c1.74-1.11,3.68-1.67,5.75-1.67
				c0.84,0,1.7,0.16,2.54,0.47c2.82,0.66,4.97,2.21,6.4,4.6c0.97,1.61,1.46,3.34,1.46,5.13c0,0.99-0.17,1.99-0.49,2.97
				c-0.36,1.17-0.73,2.32-1.12,3.42h18.25c0.66-0.19,1.31-0.28,1.95-0.28c1.32,0,2.57,0.4,3.72,1.18l3.31,1.95l0.05,0.03
				c1.93,1.29,3.28,3.05,4.01,5.23c0.73,2.2,0.69,4.4-0.13,6.53c-2.47,5.93-5.25,11.9-8.28,17.79h7.58c4.19,0,7.76,1.48,10.61,4.41
				c2.47,2.54,3.89,5.55,4.21,8.95c7.15-3.63,12.68-8.23,16.45-13.67c3.98-5.76,6.9-12.72,8.67-20.69h-14.74
				c-2.63,0-4.91-0.95-6.79-2.83c-1.88-1.87-2.83-4.19-2.83-6.88c0-2.69,0.95-5,2.83-6.88c1.88-1.88,4.16-2.83,6.79-2.83h62.3
				c5.23,0,9.72,1.92,13.36,5.69c3.35,3.5,5.05,7.64,5.05,12.32l0,1.08c-0.66,12.53-1.52,21.98-2.57,28.07
				c-1.12,6.49-2.68,10.8-4.76,13.19c-2.74,3.46-7.06,5.62-12.78,6.33c-2.31,0.27-5.52,0.41-9.82,0.41h-2.54
				c-0.59,0-1.16-0.04-1.73-0.13c0.23,0.19,0.45,0.39,0.67,0.6c2.16,2.08,3.25,4.67,3.25,7.69v8.35h22.61
				c2.75,0,5.13,0.99,7.08,2.93c1.94,1.94,2.93,4.33,2.93,7.08s-0.99,5.13-2.93,7.08c-1.94,1.94-4.33,2.93-7.08,2.93h-22.61v17.68
				h26.32c2.75,0,5.13,0.99,7.08,2.93c1.94,1.94,2.93,4.33,2.93,7.08c0,2.74-0.98,5.14-2.9,7.15c-1.94,2.03-4.33,3.06-7.11,3.06
				h-26.32v24.37c0,2.88-1.08,5.43-3.22,7.57c-2.14,2.14-4.72,3.22-7.66,3.22c-2.96,0-5.52-1.09-7.59-3.25
				c-2.05-2.13-3.1-4.67-3.1-7.54v-24.37h-29.64c-2.77,0-5.16-1.03-7.11-3.06c-1.14-1.19-1.95-2.51-2.42-3.97v22.02
				c0,8.95-2.65,14.93-7.88,17.77l-0.08,0.04l-0.08,0.04c-3.91,1.68-10.15,2.62-19.09,2.9l-0.03,0H1042.7z M1070.09,993.48
				c0.47-1.45,1.29-2.76,2.45-3.92c1.94-1.94,4.33-2.93,7.08-2.93h29.64v-17.68h-15.77c-0.56,0-0.73,0.17-0.91,0.57
				c-1.3,3.26-2.86,6.44-4.6,9.39c-1.28,2.39-3.28,3.98-5.93,4.63l-0.15,0.03c-0.88,0.15-1.71,0.22-2.48,0.22
				c-1.75,0-3.43-0.4-5-1.19l-0.09-0.05c-2.07-1.18-3.49-2.86-4.24-4.99V993.48z M1050.86,972.77v-16.12h-11.04v16.12H1050.86z
				 M1022.73,972.77v-16.12h-11.23v16.12H1022.73z M1070.09,970.83c0.16-0.38,0.34-0.76,0.55-1.14c4.58-8.02,8.33-17.84,11.13-29.19
				c0.64-2.59,2.12-4.64,4.38-6.09c1.63-1.05,3.39-1.58,5.22-1.58c0.7,0,1.42,0.08,2.14,0.24c2.6,0.57,4.66,1.97,6.12,4.17
				c1.48,2.23,1.91,4.76,1.26,7.52c-0.3,1.32-0.66,2.72-1.06,4.18h9.42v-8.35c0-3.01,1.05-5.59,3.12-7.66
				c2.07-2.07,4.62-3.13,7.57-3.13c0.63,0,1.23,0.05,1.83,0.14c-0.14-0.12-0.28-0.24-0.42-0.36c-2.04-1.82-3.46-4.11-4.21-6.82
				c-0.54-2.34-0.11-4.49,1.26-6.46c1.33-1.91,3.24-2.92,5.51-2.92c0.18,0,0.37,0.01,0.56,0.02c2.36,0.13,5.08,0.19,8.06,0.19l0.1,0
				c0.2,0.01,0.4,0.02,0.6,0.02h0c1.58,0,2.66-0.35,3.21-1.03l0.07-0.08c0.8-0.9,2.78-5.41,3.98-27.77l-23.78,0.05
				c-0.22,0-0.3,0.04-0.3,0.04c0,0,0,0,0,0c0.01,0-0.04,0.1-0.08,0.31c-1.85,10.04-4.88,18.91-9,26.36
				c-4.16,7.52-10.14,14.11-17.77,19.6l-0.08,0.05l-0.08,0.05c-2.31,1.36-4.69,2.05-7.05,2.05c-0.22,0-0.45-0.01-0.67-0.02
				c-1.22-0.01-2.51-0.23-3.84-0.67c-2.79-0.76-5.39-2.13-7.78-4.08V970.83z M1050.86,938.78v-14.95h-11.04v14.95H1050.86z
				 M1022.73,938.78v-14.95h-11.23v14.95H1022.73z M1026.49,905.78c0.51,0,0.71-0.12,0.91-0.57c1.7-3.75,3.53-8.25,5.46-13.4h-14.57
				c-0.56,0-0.73,0.17-0.91,0.57c-2.11,5.05-4.17,9.56-6.1,13.4H1026.49z"/>
			<path class="st6" d="M1042.7,1042.59c-2.8,0-5.32-0.93-7.49-2.78c-2.23-1.66-3.88-3.84-4.92-6.51c-0.88-2.45-0.6-4.84,0.77-6.98
				c1.33-2.08,3.26-3.18,5.59-3.18c0.15,0,0.3,0,0.46,0.01h11.94c1.17-0.13,1.54-0.41,1.6-0.47c0.06-0.05,0.21-0.34,0.21-1.05
				v-30.62h-40.38c-0.22,0-0.3,0.04-0.3,0.04c0,0,0,0,0,0c0.01,0-0.03,0.08-0.07,0.23c-1.85,17.83-5.73,32.62-11.53,43.96
				c-1.17,2.33-3.19,3.88-5.84,4.46c-0.72,0.16-1.44,0.24-2.13,0.24c-1.8,0-3.49-0.53-5.03-1.57c-2.24-1.31-3.71-3.26-4.37-5.82
				c-0.31-0.95-0.47-1.93-0.47-2.9c0-1.45,0.32-2.91,0.95-4.33c7.28-14.7,10.96-36.61,10.96-65.2V931.7c-0.01,0-0.03,0-0.04,0
				c-1.1,0-2.14-0.48-3.08-1.42c-1.47-1.34-3.02-2.7-4.55-3.98c-2.16-1.69-3.45-3.98-3.81-6.78c-0.15-0.52-0.23-1.06-0.23-1.59
				c0-2.26,0.73-4.37,2.16-6.28c9.32-12.38,16.77-28.07,22.14-46.62c0.78-2.81,2.45-5.04,4.96-6.61c1.74-1.11,3.68-1.67,5.75-1.67
				c0.84,0,1.7,0.16,2.54,0.47c2.82,0.66,4.97,2.21,6.4,4.6c0.97,1.61,1.46,3.34,1.46,5.13c0,0.99-0.17,1.99-0.49,2.97
				c-0.36,1.17-0.73,2.32-1.12,3.42h18.25c0.66-0.19,1.31-0.28,1.95-0.28c1.32,0,2.57,0.4,3.72,1.18l3.31,1.95l0.05,0.03
				c1.93,1.29,3.28,3.05,4.01,5.23c0.73,2.2,0.69,4.4-0.13,6.53c-2.47,5.93-5.25,11.9-8.28,17.79h7.58c4.19,0,7.76,1.48,10.61,4.41
				c2.47,2.54,3.89,5.55,4.21,8.95c7.15-3.63,12.68-8.23,16.45-13.67c3.98-5.76,6.9-12.72,8.67-20.69h-14.74
				c-2.63,0-4.91-0.95-6.79-2.83c-1.88-1.87-2.83-4.19-2.83-6.88c0-2.69,0.95-5,2.83-6.88c1.88-1.88,4.16-2.83,6.79-2.83h62.3
				c5.23,0,9.72,1.92,13.36,5.69c3.35,3.5,5.05,7.64,5.05,12.32l0,1.08c-0.66,12.53-1.52,21.98-2.57,28.07
				c-1.12,6.49-2.68,10.8-4.76,13.19c-2.74,3.46-7.06,5.62-12.78,6.33c-2.31,0.27-5.52,0.41-9.82,0.41h-2.54
				c-0.59,0-1.16-0.04-1.73-0.13c0.23,0.19,0.45,0.39,0.67,0.6c2.16,2.08,3.25,4.67,3.25,7.69v8.35h22.61
				c2.75,0,5.13,0.99,7.08,2.93c1.94,1.94,2.93,4.33,2.93,7.08s-0.99,5.13-2.93,7.08c-1.94,1.94-4.33,2.93-7.08,2.93h-22.61v17.68
				h26.32c2.75,0,5.13,0.99,7.08,2.93c1.94,1.94,2.93,4.33,2.93,7.08c0,2.74-0.98,5.14-2.9,7.15c-1.94,2.03-4.33,3.06-7.11,3.06
				h-26.32v24.37c0,2.88-1.08,5.43-3.22,7.57c-2.14,2.14-4.72,3.22-7.66,3.22c-2.96,0-5.52-1.09-7.59-3.25
				c-2.05-2.13-3.1-4.67-3.1-7.54v-24.37h-29.64c-2.77,0-5.16-1.03-7.11-3.06c-1.14-1.19-1.95-2.51-2.42-3.97v22.02
				c0,8.95-2.65,14.93-7.88,17.77l-0.08,0.04l-0.08,0.04c-3.91,1.68-10.15,2.62-19.09,2.9l-0.03,0H1042.7z M1070.09,993.48
				c0.47-1.45,1.29-2.76,2.45-3.92c1.94-1.94,4.33-2.93,7.08-2.93h29.64v-17.68h-15.77c-0.56,0-0.73,0.17-0.91,0.57
				c-1.3,3.26-2.86,6.44-4.6,9.39c-1.28,2.39-3.28,3.98-5.93,4.63l-0.15,0.03c-0.88,0.15-1.71,0.22-2.48,0.22
				c-1.75,0-3.43-0.4-5-1.19l-0.09-0.05c-2.07-1.18-3.49-2.86-4.24-4.99V993.48z M1050.86,972.77v-16.12h-11.04v16.12H1050.86z
				 M1022.73,972.77v-16.12h-11.23v16.12H1022.73z M1070.09,970.83c0.16-0.38,0.34-0.76,0.55-1.14c4.58-8.02,8.33-17.84,11.13-29.19
				c0.64-2.59,2.12-4.64,4.38-6.09c1.63-1.05,3.39-1.58,5.22-1.58c0.7,0,1.42,0.08,2.14,0.24c2.6,0.57,4.66,1.97,6.12,4.17
				c1.48,2.23,1.91,4.76,1.26,7.52c-0.3,1.32-0.66,2.72-1.06,4.18h9.42v-8.35c0-3.01,1.05-5.59,3.12-7.66
				c2.07-2.07,4.62-3.13,7.57-3.13c0.63,0,1.23,0.05,1.83,0.14c-0.14-0.12-0.28-0.24-0.42-0.36c-2.04-1.82-3.46-4.11-4.21-6.82
				c-0.54-2.34-0.11-4.49,1.26-6.46c1.33-1.91,3.24-2.92,5.51-2.92c0.18,0,0.37,0.01,0.56,0.02c2.36,0.13,5.08,0.19,8.06,0.19l0.1,0
				c0.2,0.01,0.4,0.02,0.6,0.02h0c1.58,0,2.66-0.35,3.21-1.03l0.07-0.08c0.8-0.9,2.78-5.41,3.98-27.77l-23.78,0.05
				c-0.22,0-0.3,0.04-0.3,0.04c0,0,0,0,0,0c0.01,0-0.04,0.1-0.08,0.31c-1.85,10.04-4.88,18.91-9,26.36
				c-4.16,7.52-10.14,14.11-17.77,19.6l-0.08,0.05l-0.08,0.05c-2.31,1.36-4.69,2.05-7.05,2.05c-0.22,0-0.45-0.01-0.67-0.02
				c-1.22-0.01-2.51-0.23-3.84-0.67c-2.79-0.76-5.39-2.13-7.78-4.08V970.83z M1050.86,938.78v-14.95h-11.04v14.95H1050.86z
				 M1022.73,938.78v-14.95h-11.23v14.95H1022.73z M1026.49,905.78c0.51,0,0.71-0.12,0.91-0.57c1.7-3.75,3.53-8.25,5.46-13.4h-14.57
				c-0.56,0-0.73,0.17-0.91,0.57c-2.11,5.05-4.17,9.56-6.1,13.4H1026.49z"/>
		</g>
		<g>
			<path class="st5" d="M1325.9,1043.17c-2.72,0-5.18-1-7.32-2.97c-2.01-1.86-3.47-4.22-4.36-7.02l-0.03-0.09l-0.02-0.09
				c-0.5-2.36-0.11-4.54,1.16-6.49c1.27-1.94,3.21-2.97,5.61-2.97c0.19,0,0.39,0.01,0.59,0.02c4.05,0.13,7.29,0.19,9.83,0.19
				c2.22,0,3.74-0.48,4.51-1.41c0.89-1.12,2.57-4.81,4-16.66c-0.63,0.13-1.25,0.2-1.86,0.2c-1.28,0-2.57-0.24-3.83-0.71
				c-2.72-1.12-4.71-2.95-5.97-5.47c-1.81-3.87-3.81-7.62-5.98-11.18c-0.94-1.49-1.15-3.28-0.6-5.13c0.56-1.85,1.75-3.23,3.45-3.99
				c1.09-0.49,2.23-0.75,3.38-0.75c0.8,0,1.61,0.12,2.41,0.37c1.95,0.6,3.46,1.69,4.5,3.25c2.12,3.18,4.06,6.46,5.78,9.8
				c0.4-5.29,0.71-10.81,0.9-16.46h-61.08c-5.21,0-9.73-1.87-13.43-5.57s-5.57-8.21-5.57-13.43v-74.41c0-5.21,1.87-9.73,5.57-13.43
				s8.21-5.57,13.43-5.57h68.55c2.88,0,5.33,0.99,7.27,2.93c1.94,1.94,2.93,4.36,2.93,7.18c0,2.8-0.98,5.24-2.9,7.25
				c-1.94,2.03-4.4,3.06-7.3,3.06h-25.93v10.84h21.83c2.6,0,4.84,0.88,6.65,2.6c1.84,1.75,2.77,3.95,2.77,6.53
				c0,2.56-0.92,4.78-2.73,6.59s-4.06,2.73-6.69,2.73h-21.83v11.63h21.83c2.47,0,4.68,0.91,6.56,2.7c1.9,1.83,2.87,4.08,2.87,6.72
				c0,2.64-0.96,4.9-2.86,6.72c-1.87,1.79-4.08,2.7-6.56,2.7h-21.83v12.02h21.24c5.1,0,9.53,1.92,13.16,5.69
				c3.34,3.35,5.05,7.5,5.05,12.32c0,13.06-1.19,27.81-3.54,43.84c-1.37,9.3-3.23,15.3-5.7,18.35c-3.64,4.07-8.39,6.46-14.2,7.17
				c-3.25,0.27-7.25,0.41-11.96,0.41H1325.9z M1303,955.39v-12.02h-20.02v12.02H1303z M1303,924.53V912.9h-20.02v11.63H1303z
				 M1303,894.45V883.6h-20.02v10.84H1303z M1204.22,1034c-2.75,0-5.13-0.99-7.08-2.93c-1.94-1.94-2.93-4.33-2.93-7.08v-43.92
				c-1.38,1.31-3.13,1.99-5.18,1.99c-0.18,0-0.36-0.01-0.55-0.02c-3.01-0.17-5.33-1.59-6.7-4.13c-1.99-3.28-3-6.64-3-9.98
				c0-2.92,0.8-5.93,2.38-8.94c9.45-17.5,16.53-42.46,21.03-74.22h-10.86c-2.89,0-5.4-1.05-7.47-3.13
				c-2.07-2.07-3.12-4.58-3.12-7.47c0-2.9,1.06-5.38,3.15-7.4c2.07-1.99,4.57-3,7.44-3h56.84c2.88,0,5.36,1.02,7.37,3.03
				c2.01,2.01,3.03,4.49,3.03,7.37c0,2.87-1.01,5.37-3,7.44c-2.01,2.09-4.5,3.15-7.4,3.15h-23.83c-0.22,0-0.3,0.04-0.3,0.04
				c0,0,0,0,0,0c0.01,0-0.04,0.1-0.08,0.31c-2.28,14.82-5.05,28.63-8.23,40.97h17.01c5.21,0,9.73,1.87,13.43,5.57
				s5.57,8.21,5.57,13.43v54.1c0,5.21-1.87,9.73-5.57,13.43s-8.21,5.57-13.43,5.57h-18.5l0,5.81c0,2.75-0.99,5.13-2.93,7.08
				C1209.36,1033.01,1206.98,1034,1204.22,1034z M1231.33,997.77V946.3h-17.09v51.47H1231.33z M1257.85,1031.5
				c-1.78,0-3.47-0.5-5.04-1.49c-2.16-1.19-3.57-3.13-4.07-5.63c-0.15-0.58-0.23-1.33-0.23-2.15c0-1.64,0.41-3.22,1.23-4.68
				c3.9-7.05,6.85-16.88,8.75-29.21c0.33-2.34,1.49-4.26,3.42-5.7c1.45-1.08,3.06-1.62,4.78-1.62c0.59,0,1.2,0.07,1.81,0.2
				c2.63,0.66,4.66,2.04,6.11,4.14c1.46,2.1,2.03,4.48,1.71,7.05c-2.11,14.79-5.48,26.33-10.01,34.33
				c-1.33,2.32-3.36,3.82-6.05,4.47C1259.45,1031.4,1258.64,1031.5,1257.85,1031.5z M1288.78,1026.13c-1.74,0-3.32-0.66-4.68-1.96
				c-1.71-1.62-2.57-3.52-2.57-5.65c-0.26-7.54-0.91-15.49-1.94-23.58c-0.34-2.19,0.18-4.24,1.57-6.06
				c1.33-1.74,3.09-2.88,5.24-3.37l0.15-0.03c0.42-0.06,0.84-0.1,1.25-0.1c1.79,0,3.43,0.6,4.9,1.79c1.72,1.39,2.84,3.18,3.33,5.3
				l0.03,0.13c1.31,7.99,2.1,15.9,2.37,23.5c0.16,2.41-0.55,4.63-2.12,6.52c-1.55,1.87-3.55,2.99-5.97,3.33
				C1289.8,1026.07,1289.28,1026.13,1288.78,1026.13z M1314.05,1018.26c-1.35,0-2.67-0.39-3.94-1.16c-1.97-1.2-3.2-3.01-3.56-5.25
				c-1.28-6.12-2.96-12.33-5.01-18.48c-0.7-1.91-0.57-3.88,0.4-5.82c0.96-1.91,2.49-3.24,4.57-3.93l0.09-0.03l0.09-0.02
				c0.71-0.16,1.42-0.25,2.11-0.25c1.41,0,2.77,0.34,4.05,1.01c1.91,1,3.31,2.52,4.14,4.52l0.04,0.12
				c2.22,6.39,4.07,12.56,5.52,18.33c0.51,2.38,0.17,4.57-0.99,6.57c-1.18,2.02-2.96,3.38-5.28,4.04
				C1315.61,1018.13,1314.83,1018.26,1314.05,1018.26z"/>
			<path class="st6" d="M1325.9,1043.17c-2.72,0-5.18-1-7.32-2.97c-2.01-1.86-3.47-4.22-4.36-7.02l-0.03-0.09l-0.02-0.09
				c-0.5-2.36-0.11-4.54,1.16-6.49c1.27-1.94,3.21-2.97,5.61-2.97c0.19,0,0.39,0.01,0.59,0.02c4.05,0.13,7.29,0.19,9.83,0.19
				c2.22,0,3.74-0.48,4.51-1.41c0.89-1.12,2.57-4.81,4-16.66c-0.63,0.13-1.25,0.2-1.86,0.2c-1.28,0-2.57-0.24-3.83-0.71
				c-2.72-1.12-4.71-2.95-5.97-5.47c-1.81-3.87-3.81-7.62-5.98-11.18c-0.94-1.49-1.15-3.28-0.6-5.13c0.56-1.85,1.75-3.23,3.45-3.99
				c1.09-0.49,2.23-0.75,3.38-0.75c0.8,0,1.61,0.12,2.41,0.37c1.95,0.6,3.46,1.69,4.5,3.25c2.12,3.18,4.06,6.46,5.78,9.8
				c0.4-5.29,0.71-10.81,0.9-16.46h-61.08c-5.21,0-9.73-1.87-13.43-5.57s-5.57-8.21-5.57-13.43v-74.41c0-5.21,1.87-9.73,5.57-13.43
				s8.21-5.57,13.43-5.57h68.55c2.88,0,5.33,0.99,7.27,2.93c1.94,1.94,2.93,4.36,2.93,7.18c0,2.8-0.98,5.24-2.9,7.25
				c-1.94,2.03-4.4,3.06-7.3,3.06h-25.93v10.84h21.83c2.6,0,4.84,0.88,6.65,2.6c1.84,1.75,2.77,3.95,2.77,6.53
				c0,2.56-0.92,4.78-2.73,6.59s-4.06,2.73-6.69,2.73h-21.83v11.63h21.83c2.47,0,4.68,0.91,6.56,2.7c1.9,1.83,2.87,4.08,2.87,6.72
				c0,2.64-0.96,4.9-2.86,6.72c-1.87,1.79-4.08,2.7-6.56,2.7h-21.83v12.02h21.24c5.1,0,9.53,1.92,13.16,5.69
				c3.34,3.35,5.05,7.5,5.05,12.32c0,13.06-1.19,27.81-3.54,43.84c-1.37,9.3-3.23,15.3-5.7,18.35c-3.64,4.07-8.39,6.46-14.2,7.17
				c-3.25,0.27-7.25,0.41-11.96,0.41H1325.9z M1303,955.39v-12.02h-20.02v12.02H1303z M1303,924.53V912.9h-20.02v11.63H1303z
				 M1303,894.45V883.6h-20.02v10.84H1303z M1204.22,1034c-2.75,0-5.13-0.99-7.08-2.93c-1.94-1.94-2.93-4.33-2.93-7.08v-43.92
				c-1.38,1.31-3.13,1.99-5.18,1.99c-0.18,0-0.36-0.01-0.55-0.02c-3.01-0.17-5.33-1.59-6.7-4.13c-1.99-3.28-3-6.64-3-9.98
				c0-2.92,0.8-5.93,2.38-8.94c9.45-17.5,16.53-42.46,21.03-74.22h-10.86c-2.89,0-5.4-1.05-7.47-3.13
				c-2.07-2.07-3.12-4.58-3.12-7.47c0-2.9,1.06-5.38,3.15-7.4c2.07-1.99,4.57-3,7.44-3h56.84c2.88,0,5.36,1.02,7.37,3.03
				c2.01,2.01,3.03,4.49,3.03,7.37c0,2.87-1.01,5.37-3,7.44c-2.01,2.09-4.5,3.15-7.4,3.15h-23.83c-0.22,0-0.3,0.04-0.3,0.04
				c0,0,0,0,0,0c0.01,0-0.04,0.1-0.08,0.31c-2.28,14.82-5.05,28.63-8.23,40.97h17.01c5.21,0,9.73,1.87,13.43,5.57
				s5.57,8.21,5.57,13.43v54.1c0,5.21-1.87,9.73-5.57,13.43s-8.21,5.57-13.43,5.57h-18.5l0,5.81c0,2.75-0.99,5.13-2.93,7.08
				C1209.36,1033.01,1206.98,1034,1204.22,1034z M1231.33,997.77V946.3h-17.09v51.47H1231.33z M1257.85,1031.5
				c-1.78,0-3.47-0.5-5.04-1.49c-2.16-1.19-3.57-3.13-4.07-5.63c-0.15-0.58-0.23-1.33-0.23-2.15c0-1.64,0.41-3.22,1.23-4.68
				c3.9-7.05,6.85-16.88,8.75-29.21c0.33-2.34,1.49-4.26,3.42-5.7c1.45-1.08,3.06-1.62,4.78-1.62c0.59,0,1.2,0.07,1.81,0.2
				c2.63,0.66,4.66,2.04,6.11,4.14c1.46,2.1,2.03,4.48,1.71,7.05c-2.11,14.79-5.48,26.33-10.01,34.33
				c-1.33,2.32-3.36,3.82-6.05,4.47C1259.45,1031.4,1258.64,1031.5,1257.85,1031.5z M1288.78,1026.13c-1.74,0-3.32-0.66-4.68-1.96
				c-1.71-1.62-2.57-3.52-2.57-5.65c-0.26-7.54-0.91-15.49-1.94-23.58c-0.34-2.19,0.18-4.24,1.57-6.06
				c1.33-1.74,3.09-2.88,5.24-3.37l0.15-0.03c0.42-0.06,0.84-0.1,1.25-0.1c1.79,0,3.43,0.6,4.9,1.79c1.72,1.39,2.84,3.18,3.33,5.3
				l0.03,0.13c1.31,7.99,2.1,15.9,2.37,23.5c0.16,2.41-0.55,4.63-2.12,6.52c-1.55,1.87-3.55,2.99-5.97,3.33
				C1289.8,1026.07,1289.28,1026.13,1288.78,1026.13z M1314.05,1018.26c-1.35,0-2.67-0.39-3.94-1.16c-1.97-1.2-3.2-3.01-3.56-5.25
				c-1.28-6.12-2.96-12.33-5.01-18.48c-0.7-1.91-0.57-3.88,0.4-5.82c0.96-1.91,2.49-3.24,4.57-3.93l0.09-0.03l0.09-0.02
				c0.71-0.16,1.42-0.25,2.11-0.25c1.41,0,2.77,0.34,4.05,1.01c1.91,1,3.31,2.52,4.14,4.52l0.04,0.12
				c2.22,6.39,4.07,12.56,5.52,18.33c0.51,2.38,0.17,4.57-0.99,6.57c-1.18,2.02-2.96,3.38-5.28,4.04
				C1315.61,1018.13,1314.83,1018.26,1314.05,1018.26z"/>
		</g>
	</g>
</g>
</svg>
