<?xml version="1.0" encoding="utf-8"?>
<!-- Generator: Adobe Illustrator 23.0.5, SVG Export Plug-In . SVG Version: 6.00 Build 0)  -->
<svg version="1.1" id="圖層_1" xmlns="http://www.w3.org/2000/svg" xmlns:xlink="http://www.w3.org/1999/xlink" x="0px" y="0px"
	 viewBox="0 0 1920 1080" style="enable-background:new 0 0 1920 1080;" xml:space="preserve">
<style type="text/css">
	.st0{fill:#32B4B4;}
	.st1{fill:#2C1940;}
	.st2{fill:#D64C46;}
	.st3{fill:#F4A755;}
	.st4{fill:#8C2627;}
	.st5{fill:#F66A56;}
	.st6{fill:#F68B66;}
	.st7{fill:#5B3124;}
	.st8{fill:#FFFF00;}
	.st9{font-family:'FranklinGothic-Heavy';}
	.st10{font-size:205.0564px;}
</style>
<g>
	<g>
		<g>
			<path class="st0" d="M588.85,934.95c-162.86,3.68-325.72,7.36-488.57,11.05c0-170.03,0-340.07,0-510.1
				c17.33-113.88,113.43-199.62,224.37-206.85c126.7-8.26,246.39,87.58,260.01,219.91C586.06,610.95,587.45,772.95,588.85,934.95z"
				/>
			<path class="st1" d="M100.28,946c-16.43-1.34-32.85-2.68-49.28-4.02c5.47-202.68,8.48-354.58,6.29-444.83
				c-0.35-14.41-1.44-52.32,14.68-97.4c7.66-21.42,29.57-79.98,92.26-122.5c49.54-33.6,99.93-40.48,124.76-42.17
				c-23.6,6.47-65.34,21.3-104.84,56.23c-10.36,9.16-55.15,50.29-74.44,118.49c-11.31,39.99-9.11,72.5-8.39,84.35
				C106.09,572.62,105.2,725.32,100.28,946z"/>
			<g>
				<path class="st2" d="M542.72,937.97c-119.87,2.68-239.74,5.36-359.62,8.03c2.8-175.05,5.59-350.11,8.39-525.16
					c32.81-76.42,112.1-122.69,191.87-114.47c64.91,6.69,121.75,48.6,148.88,108.45C535.73,589.2,539.22,763.58,542.72,937.97z"/>
				<path class="st3" d="M542.72,937.97c-116.38,2.68-232.75,5.36-349.13,8.03c2.71-175.05,5.43-350.11,8.14-525.16
					C233.58,344.42,310.56,298.15,388,306.37c63.02,6.69,118.2,48.6,144.54,108.45C535.93,589.2,539.33,763.58,542.72,937.97z"/>
			</g>
			<g>
				<rect x="251.25" y="441.92" class="st4" width="249.53" height="498.05"/>
				<rect x="251.25" y="448.95" class="st5" width="240.09" height="491.02"/>
				<rect x="296.34" y="491.13" class="st6" width="150.98" height="275.13"/>
			</g>
			<rect x="296.34" y="800.4" class="st6" width="150.98" height="107.44"/>
			<ellipse class="st7" cx="467.23" cy="745.68" rx="13.63" ry="20.58"/>
		</g>
		<text transform="matrix(0.7142 0 0 1 329.5527 683.2988)" class="st8 st9 st10">?</text>
	</g>
	<g>
		<path class="st1" d="M1215.82,923.91c-162.86,3.68-325.72,7.36-488.57,11.05c0-170.03,0-340.07,0-510.1
			C744.58,310.97,840.68,225.24,951.61,218c126.7-8.26,246.39,87.58,260.01,219.91C1213.02,599.91,1214.42,761.91,1215.82,923.91z"
			/>
		<path class="st0" d="M1215.82,934.95c-162.86,3.68-325.72,7.36-488.57,11.05c0-170.03,0-340.07,0-510.1
			c17.33-113.88,113.43-199.62,224.37-206.85c126.7-8.26,246.39,87.58,260.01,219.91C1213.02,610.95,1214.42,772.95,1215.82,934.95z
			"/>
		<path class="st2" d="M1151.87,926.92c-116.38,2.68-232.75,5.36-349.13,8.03c2.71-175.05,5.43-350.11,8.14-525.16
			c31.85-76.42,108.83-122.69,186.27-114.47c63.02,6.69,118.2,48.6,144.54,108.45C1145.08,578.15,1148.47,752.54,1151.87,926.92z"/>
		<path class="st3" d="M1151.87,937.97c-116.38,2.68-232.75,5.36-349.13,8.03c2.71-175.05,5.43-350.11,8.14-525.16
			c31.85-76.42,108.83-122.69,186.27-114.47c63.02,6.69,118.2,48.6,144.54,108.45C1145.08,589.2,1148.47,763.58,1151.87,937.97z"/>
		<g>
			<rect x="860.4" y="437.91" class="st4" width="240.09" height="491.02"/>
			<rect x="860.4" y="448.95" class="st5" width="240.09" height="491.02"/>
			<rect x="905.48" y="491.13" class="st6" width="150.98" height="275.13"/>
			<rect x="905.48" y="796.38" class="st6" width="150.98" height="107.44"/>
			<ellipse class="st7" cx="1076.38" cy="745.68" rx="13.63" ry="20.58"/>
		</g>
		<text transform="matrix(0.7142 0 0 1 942.8926 683.2988)" class="st8 st9 st10">?</text>
	</g>
	<g>
		<g>
			<path class="st0" d="M1842.79,934.95c-162.86,3.68-325.72,7.36-488.57,11.05c0-170.03,0-340.07,0-510.1
				c17.33-113.88,113.43-199.62,224.37-206.85c126.7-8.26,246.39,87.58,260.01,219.91C1839.99,610.95,1841.39,772.95,1842.79,934.95
				z"/>
			<path class="st1" d="M1819.72,936.96c16.43-1.34,32.85-2.68,49.28-4.02c-5.47-202.68-8.48-354.58-6.29-444.83
				c0.35-14.41,1.44-52.32-14.68-97.4c-8.54-23.87-30.15-81.94-92.26-122.5c-53.93-35.22-109.28-38.26-133.15-38.16
				c23.24,4.17,69.83,15.83,113.23,52.22c52.79,44.26,68.7,98.2,74.44,118.49c11.31,39.99,9.11,72.5,8.39,84.35
				C1813.91,563.58,1814.8,716.28,1819.72,936.96z"/>
			<path class="st2" d="M1769.4,937.97c-119.87,2.68-239.74,5.36-359.62,8.03c2.8-175.05,5.59-350.11,8.39-525.16
				c32.81-76.42,112.1-122.69,191.86-114.47c64.91,6.69,121.75,48.6,148.88,108.45C1762.41,589.2,1765.9,763.58,1769.4,937.97z"/>
			<path class="st3" d="M1757.87,937.97c-116.38,2.68-232.75,5.36-349.13,8.03c2.71-175.05,5.43-350.11,8.14-525.16
				c31.85-76.42,108.83-122.69,186.27-114.47c63.02,6.69,118.2,48.6,144.54,108.45C1751.08,589.2,1754.47,763.58,1757.87,937.97z"/>
			<rect x="1452.77" y="445.94" class="st4" width="249.53" height="498.05"/>
			<rect x="1463.25" y="451.97" class="st5" width="240.09" height="491.02"/>
			<rect x="1508.34" y="495.14" class="st6" width="150.98" height="275.13"/>
			<rect x="1507.29" y="796.38" class="st6" width="150.98" height="107.44"/>
			<ellipse class="st7" cx="1486.32" cy="745.68" rx="13.63" ry="20.58"/>
		</g>
		<text transform="matrix(0.7142 0 0 1 1540.5039 671.248)" class="st8 st9 st10">?</text>
	</g>
</g>
</svg>
