<?xml version="1.0" encoding="utf-8"?>
<!-- Generator: Adobe Illustrator 23.0.5, SVG Export Plug-In . SVG Version: 6.00 Build 0)  -->
<svg version="1.1" id="圖層_1" xmlns="http://www.w3.org/2000/svg" xmlns:xlink="http://www.w3.org/1999/xlink" x="0px" y="0px"
	 viewBox="0 0 1920 1080" style="enable-background:new 0 0 1920 1080;" xml:space="preserve">
<style type="text/css">
	.st0{fill:#F4B54B;}
	.st1{fill:#535655;}
	.st2{fill:#834F31;}
	.st3{fill:#FFFFFF;}
	.st4{fill:none;stroke:#663D28;stroke-width:2;stroke-miterlimit:10;}
	.st5{fill:#96873C;}
	.st6{fill:#895237;}
	.st7{fill:#F8D183;}
	.st8{fill:#857D75;}
	.st9{fill:#D4C9B6;}
	.st10{fill:#FCCB4F;}
	.st11{fill:#3B190C;}
	.st12{fill:#9FA09C;}
	.st13{fill:#523D52;}
	.st14{fill:#B96922;}
	.st15{fill:#C29869;}
	.st16{fill:#A4A796;}
	.st17{fill:#654B4B;}
	.st18{fill:#B1B4A1;}
	.st19{fill:#704A48;}
	.st20{fill:#4A3D50;}
	.st21{fill:#ACAF9F;}
	.st22{fill:#4C3E54;}
	.st23{fill:#848889;}
	.st24{fill:#C48C3B;}
	.st25{fill:none;stroke:#000000;stroke-width:2;stroke-miterlimit:10;}
</style>
<g>
	<path class="st0" d="M1870,823.12c0,64.59-225.04,114.23-478.24,170.08c-153.1,33.77-361.93,78.32-627.1,62.5
		C445.25,1036.65,47.66,930.19,51,834.4c3.44-98.73,431.75-157.24,525.75-170.08C1213.49,577.33,1870,712.81,1870,823.12z"/>
	<g>
		<g>
			<path class="st1" d="M443.61,749.35H216.75c25.51-31.17,51.02-62.35,76.53-93.52c29.15,0,58.31,0,87.46,0
				C401.7,687.01,422.65,718.18,443.61,749.35z"/>
			<path class="st1" d="M1460.38,740.45h-226.86c25.51-31.17,51.02-62.35,76.53-93.52c29.15,0,58.31,0,87.46,0
				C1418.47,678.1,1439.43,709.27,1460.38,740.45z"/>
			<rect x="328.81" y="368.6" class="st2" width="1060.51" height="325.09"/>
			<path class="st1" d="M1424.85,319.61c-42.82,0-85.64,0-128.46,0v2.48c-336.19,0.66-672.38,1.32-1008.57,1.98
				c0,0.74,0,1.48,0,2.23c0,26.72,0,53.44,0,80.16v302.82h103.86V399.75c52.3-3.36,105.15-6.33,158.53-8.88
				c258.77-12.36,507.83-13.75,746.18-6.72V711.5h109.33c5.26-107.63,10.51-215.26,15.76-322.89c0.21,0.01,0.42,0.02,0.64,0.03
				c0.91-22.27,1.82-44.53,2.73-66.8c-0.04,0-0.07,0-0.11,0C1424.78,321.1,1424.81,320.35,1424.85,319.61z"/>
			<ellipse class="st3" cx="352.04" cy="414.24" rx="15.03" ry="12.25"/>
			<ellipse class="st3" cx="352.04" cy="521.12" rx="15.03" ry="12.25"/>
			<ellipse class="st3" cx="352.04" cy="648.04" rx="15.03" ry="12.25"/>
			<ellipse class="st3" cx="1333.29" cy="403.11" rx="15.03" ry="12.25"/>
			<ellipse class="st3" cx="1333.29" cy="509.99" rx="15.03" ry="12.25"/>
			<ellipse class="st3" cx="1333.29" cy="636.91" rx="15.03" ry="12.25"/>
			<path class="st3" d="M517.74,370.82H339.41c-1.32,0-2.4-1.08-2.4-2.4V346.5c0-1.32,1.08-2.4,2.4-2.4h178.33
				c1.32,0,2.4,1.08,2.4,2.4v21.92C520.14,369.74,519.06,370.82,517.74,370.82z"/>
			<line class="st4" x1="391.68" y1="485.43" x2="1299.12" y2="485.43"/>
			<line class="st4" x1="391.68" y1="583.21" x2="1296.39" y2="583.21"/>
			<path class="st5" d="M947.47,501.05c-26.45,4.1-60.58,7.71-100.47,7.83c-41.64,0.12-77.14-3.62-104.34-7.83
				c-1.29-53.06-2.58-106.11-3.86-159.17c74.71,0.87,149.42,1.74,224.13,2.61C957.78,396.67,952.62,448.86,947.47,501.05z"/>
		</g>
		<path class="st6" d="M1421.65,326.72c-379.77,0.6-759.53,1.2-1139.3,1.8c1.11-35.06,7.58-82.63,30.05-136.55
			c22.03-52.85,52.21-94.49,77.62-123.97c308.82,0,617.64,0,926.46,0c25.31,26.13,57.82,65.94,80.13,118.58
			C1420.85,243.79,1423.49,293.61,1421.65,326.72z"/>
		<g>
			<rect x="293.71" y="259.49" class="st7" width="1131.13" height="62.35"/>
			<rect x="282.35" y="255.04" class="st8" width="119.37" height="69.03"/>
			<rect x="1305.48" y="257.27" class="st8" width="119.37" height="69.03"/>
			<path class="st9" d="M1197.85,332.97h-23.47c-1.36,0-2.48-1.11-2.48-2.48v-79.66c0-1.36,1.11-2.48,2.48-2.48h23.47
				c1.36,0,2.48,1.11,2.48,2.48v79.66C1200.33,331.86,1199.21,332.97,1197.85,332.97z"/>
			<path class="st10" d="M859.28,230.55h-14.21c-18.76,0-34.1,12.02-34.1,26.72v82.39c0,14.7,15.35,26.72,34.1,26.72h14.21
				c18.76,0,34.1-12.02,34.1-26.72v-82.39C893.39,242.57,878.04,230.55,859.28,230.55z M873.49,279.53
				c0,9.8-10.23,17.81-22.74,17.81s-22.74-8.02-22.74-17.81v-17.81c0-9.8,10.23-17.81,22.74-17.81s22.74,8.02,22.74,17.81V279.53z"
				/>
			<ellipse class="st11" cx="850.76" cy="321.84" rx="17.05" ry="13.36"/>
			<path class="st9" d="M598.18,332.97h-23.47c-1.36,0-2.48-1.11-2.48-2.48v-79.66c0-1.36,1.11-2.48,2.48-2.48h23.47
				c1.36,0,2.48,1.11,2.48,2.48v79.66C600.66,331.86,599.54,332.97,598.18,332.97z"/>
		</g>
		<path class="st4" d="M356.14,122.48c333.46,0.39,666.92,0.79,1000.37,1.18"/>
		<path class="st4" d="M304.21,212.73c367.17,0.74,734.34,1.48,1101.5,2.23"/>
	</g>
	<g>
		<path class="st12" d="M288.54,988.08c-8.8-0.68-17.6-1.37-26.39-2.05c-1.52-3.22-5-11.7-3.17-22.54
			c2.14-12.67,10.13-20.3,12.67-22.54c2.99-3.2,9.21-8.97,19-12.3c14.22-4.84,26.58-1.33,30.62,0
			C310.36,948.47,299.45,968.28,288.54,988.08z"/>
		<path class="st13" d="M366.66,979.89c-25.69,2.73-51.38,5.46-77.07,8.2c10.56-19.81,21.11-39.62,31.67-59.43
			c6.11,2.14,17.27,6.96,27.45,17.42C361.46,959.17,365.36,973.6,366.66,979.89z"/>
	</g>
	<g>
		<g>
			<path class="st14" d="M402.72,940.04c10.16-4.27,21.62-5.56,32.52-3.68c5.81,1,11.42,2.88,17.01,4.75c2.38,0.8,5.08,1.9,5.8,4.24
				c0.99,3.19-2.49,6.1-5.82,6.89c-7.46,1.78-14.98-1.9-22.26-4.29c-6.67-2.18-13.7-3.32-20.73-3.35c-1.42-0.01-2.9,0.02-4.18-0.58
				c-1.28-0.6-2.27-2.05-1.79-3.35"/>
		</g>
		<g>
			<path class="st14" d="M373.22,928.72c7.58-2.36,16.64,1.1,20.52,7.85c0.25,0.43,0.48,0.9,0.42,1.39
				c-0.13,1.01-1.38,1.46-2.43,1.57c-4.92,0.52-9.71-1.5-14.22-3.48c-1.67-0.73-3.41-1.52-4.51-2.95s-1.27-3.69,0.13-4.84"/>
		</g>
		<g>
			<path class="st14" d="M390.44,990.04c9.59-0.69,19.37,1.35,27.81,5.82c-6.67,3.1-14.12,4.6-21.5,4.33
				c-3.4-0.13-7.2-0.86-9.11-3.6c-1.9-2.74,0.22-7.62,3.55-6.93"/>
		</g>
		<g>
			<path class="st14" d="M428.33,899.15c6.61-1.87,13.56-2.6,20.43-2.14c3.51,0.23,7.72,1.38,8.56,4.69
				c0.65,2.59-1.33,5.26-3.82,6.39c-2.49,1.13-5.35,1.09-8.1,1.04c-4.01-0.08-8.01-0.17-12.02-0.25c-3.09-0.06-6.98-0.69-7.77-3.6
				c-0.7-2.56,1.62-4.88,3.71-6.57"/>
		</g>
		<g>
			<path class="st14" d="M238.38,904.92c5.03-0.86,10.19-1.03,15.28-0.51c3.04,0.31,6.53,1.23,7.69,3.98
				c1.07,2.55-0.53,5.54-2.82,7.15c-3.56,2.5-8.46,2.55-12.63,1.19c-4.16-1.37-7.76-3.97-11.27-6.52c-0.41-0.3-0.85-0.66-0.88-1.15
				c-0.03-0.61,0.57-1.05,1.1-1.37c1.47-0.88,2.93-1.76,4.4-2.64"/>
		</g>
		<g>
			<path class="st14" d="M104.51,814.08c6.28-0.59,12.6-0.69,18.89-0.3c1.41,0.09,2.91,0.24,3.99,1.11c2.08,1.69,1.3,5.2-0.81,6.85
				c-2.11,1.64-4.99,1.93-7.69,2.15c-4.25,0.35-8.51,0.7-12.76,1.05c-1.67,0.14-3.48,0.25-4.9-0.63c-2.2-1.37-2.38-4.61-1.07-6.81
				s3.65-3.59,5.89-4.89"/>
		</g>
		<g>
			<path class="st14" d="M669.6,993.45c2.69-0.37,5.19-1.85,6.76-4.01c0.64-0.89,1.15-1.89,2.01-2.59c1.06-0.86,2.5-1.11,3.88-1.28
				c5.12-0.61,10.62-0.34,14.95,2.38c4.33,2.72,6.91,8.47,4.63,12.96c-1.65,3.22-5.38,5.07-9.06,5.43
				c-3.69,0.36-7.38-0.55-10.92-1.59c-4.35-1.28-8.85-2.93-11.71-6.36c-1.36-1.63-1.68-4.83,0.45-5.15"/>
		</g>
		<g>
			<path class="st14" d="M839.31,904.39c3.48-6.13,10.57-10.2,17.79-10.11s14.24,4.37,17.36,10.68c0.8,1.62,1.37,3.41,1.13,5.19
				c-0.7,5.2-7.29,7.24-12.67,7.73c-5.33,0.49-10.9,0.58-15.8-1.52c-4.9-2.1-8.92-6.9-8.45-12.07"/>
		</g>
	</g>
	<path class="st15" d="M629.53,1020.87c-19.35-1.71-38.71-3.42-58.06-5.12c-0.34-0.26-7.5-5.84-6.33-14.34
		c0.84-6.12,5.4-9.57,6.33-10.25c19.35,0,38.71,0,58.06,0c1.48,2.16,3.41,5.64,4.22,10.25
		C635.46,1011.07,630.96,1018.65,629.53,1020.87z"/>
	<g>
		<path class="st16" d="M375.11,769.85c-83.75-1.71-167.51-3.42-251.26-5.12c2.32-5.48,6.26-13.65,12.67-22.54
			c15.84-21.97,27.73-21.95,44.34-42.01c17.84-21.54,11.27-30.19,25.34-37.91c14.42-7.92,24.23-0.44,45.4-10.25
			c13.06-6.05,13.93-11.04,22.17-14.34c11.85-4.76,32.29-3.39,69.68,26.64c8.12,3.76,18.22,10.03,26.39,20.49
			C396.9,719.49,376.5,766.74,375.11,769.85z"/>
		<path class="st17" d="M374.05,769.85c-36.95-0.68-73.9-1.37-110.85-2.05c0.35-5.93,1.55-14.27,5.28-23.57
			c4.93-12.29,12.07-20.75,16.89-25.61c9.22-5.53,22.51-11.38,38.01-10.25c17.43,1.27,26.88,10.58,35.89,6.15
			c5.05-2.48,10.34-9.45,10.56-29.71c4.73,7.31,16.39,27.58,13.72,54.3C382.22,752.49,377.73,763.01,374.05,769.85z"/>
	</g>
	<g>
		<path class="st17" d="M509.18,819.03c-9.69,3.27-23.42,6.71-40.12,7.17c-24.94,0.69-44.61-5.62-55.95-10.25
			c-10.91-23.22-21.82-46.45-32.73-69.67c46.8,4.78,93.61,9.56,140.41,14.34c4.54,6.26,10.71,15.91,15.84,28.69
			c4.86,12.12,7.6,19.22,4.22,24.59C536.51,820.82,523.54,822.42,509.18,819.03z"/>
		<path class="st18" d="M413.11,815.95c-9.44-7.62-23.1-16.87-41.17-23.57c-24.25-8.98-38.51-6.7-42.23-14.34
			c-3.56-7.32,3.22-22.33,44.34-55.33c10.94-5.26,21.03-7.92,29.56-9.22c60.38-9.24,109.19,38.99,117.18,47.13
			c-8.01-1-19.22-2.21-32.73-3.07c-19.52-1.25-23.65-0.48-27.45,1.02c-8.44,3.35-12.08,9.08-23.23,24.59
			C432.02,790.64,423.78,801.96,413.11,815.95z"/>
	</g>
	<g>
		<path class="st19" d="M769.94,862.06c-28.15-0.68-56.3-1.37-84.46-2.05c-1.76-14.69-3.52-29.37-5.28-44.06
			c10.74-5.05,38.53-16.26,70.73-8.2c9.22,2.31,16.97,5.73,23.23,9.22c-1.87,7.15-3.53,15.78-4.22,25.61
			C769.44,849.75,769.54,856.29,769.94,862.06z"/>
		<path class="st18" d="M702.38,862.06c-20.96-2-37.36-6.47-48.56-10.25c-14.3-4.83-33.7-11.37-33.78-20.49
			c-0.04-4.59,4.83-8.05,9.5-11.27c15.71-10.83,33.99-11.08,44.34-10.25c2.69-3.04,18.86-20.71,45.4-21.52
			c34.33-1.05,53.84,27.11,54.9,28.69c-5.69-2.74-13.92-5.5-22.17-3.07c-10.48,3.08-13.98,12.48-26.39,26.64
			C720.61,846.24,713.07,853.97,702.38,862.06z"/>
	</g>
	<g>
		<path class="st20" d="M1287.24,709.4c-10.9,9.42-27.71,21.93-50.67,31.76c-6.71,2.88-25.38,11.62-70.73,16.39
			c-23.48,2.47-54.67,4.85-91.85,5.12c-1.15-5.37-2.22-13.26-1.06-22.54c1.97-15.71,9.18-26.16,12.91-32.6
			c6.86-11.87,13.63-30.47,12.43-59.61c21.47-10.59,42.93-21.17,64.4-31.76C1204.2,647.24,1245.72,678.32,1287.24,709.4z"/>
		<path class="st21" d="M1073.99,762.67c-20.32-1.66-46.91-6.08-76.01-17.42c-14.63-5.7-27.3-12.14-38.01-18.44
			c3.61-3.78,9.59-9.55,17.95-15.37c15.24-10.62,21.38-9.56,29.56-18.44c7.97-8.66,5.66-13.49,13.72-25.61
			c7.04-10.59,15.76-17.38,22.17-21.52c17.41-13.64,33.73-21.78,45.4-26.64c18.48-7.7,35-14.33,54.9-10.25
			c8.29,1.7,14.74,4.76,19,7.17c-12.2,3.5-29.16,10.5-36.95,25.61c-9.13,17.73,3.5,28.82-5.28,48.16
			c-9.3,20.48-28.45,19-40.12,42.01C1074.41,743.59,1073.72,755.04,1073.99,762.67z"/>
	</g>
	<g>
		<path class="st22" d="M1403.37,772.92c-1.35,4.89-7.8,11.62-64.4,17.42c-29.24,3-53.62,3.87-70.73,4.1
			c-5.11-11.09-14.41-35.25-11.61-66.6c2.98-33.39,18.05-56.7,25.34-66.6c7.82,2.18,20.23,6.7,32.73,16.39
			c9.72,7.54,16.1,15.59,20.06,21.52c11.71,10.06,28.35,24.91,47.51,44.06C1400.78,761.71,1404.88,767.47,1403.37,772.92z"/>
		<path class="st21" d="M1268.24,794.44c-10.55-0.81-23.11-2.57-36.95-6.15c-16.63-4.3-30.45-10.03-41.17-15.37
			c3.21-13.85,8.59-31.26,17.95-50.21c8.85-17.92,18.78-32.23,27.45-43.03c4.17-4.32,13.25-12.5,27.45-16.39
			c7.51-2.06,14.17-2.29,19-2.05c3.08,7.47,5.95,18.08,1.06,26.64c-4.01,7.02-10.32,7.54-15.84,14.34
			c-6.74,8.33-6.25,18.59-5.28,31.76C1263.23,751.82,1265.21,772.08,1268.24,794.44z"/>
	</g>
	<g>
		<path class="st23" d="M1772.91,321.34l-49.82-22.04c-4.06-1.8-5.46-5.81-3.12-8.92l3.55-4.71c2.34-3.11,7.58-4.19,11.64-2.39
			l49.82,22.04c4.06,1.8,5.46,5.81,3.12,8.92l-3.55,4.71C1782.21,322.06,1776.97,323.13,1772.91,321.34z"/>
		<g>
			<path class="st23" d="M1706.46,291.16c4.26-4.35,5.74-6.2,11.26-9.92c5.21-3.51,14.36-5.54,18.31-1.17
				c2.73,3.03,1.02,7.14-0.78,10.55c-8.05,15.31-16.1,30.62-24.15,45.93c-3.22,6.12-6.48,12.39-6.92,18.98
				c-0.44,6.59,2.44,13.69,9.41,17.57c9.24,5.14,22.84,2.98,31.65-2.6c8.81-5.57,13.95-13.76,18.82-21.67
				c7.44-12.08,14.87-24.16,22.31-36.23c2.05-3.33,4.92-7.12,9.7-7.45c4.4-0.31,8.23,2.77,9.18,6.08c0.95,3.31-0.23,6.73-1.49,9.98
				c-7.57,19.5-18.05,38.34-31.18,56.03c-5.17,6.96-10.99,13.95-19.65,18.44c-11.64,6.03-26.52,6.64-40.56,7.04
				c-7.79,0.22-17.66-0.6-20.08-6.27c-1.4-3.3,0.56-6.93-0.2-10.36c-0.79-3.57-4.35-6.33-6.95-9.35c-7.49-8.73-7.1-20.05-5.01-30.37
				c3.93-19.43,12.95-38.25,26.36-55.01"/>
		</g>
		<path class="st24" d="M1527.65,732.91l27.32,7.23c59.47-114.42,118.93-228.84,178.4-343.26c-13.26-3.66-26.52-7.31-39.78-10.97
			C1638.27,501.57,1582.96,617.24,1527.65,732.91z"/>
	</g>
	<path class="st23" d="M1490.84,694.12c-37.44,74.97-40.58,147.87-6.32,164.87c34.25,16.99,93.3-28.17,134-101.52L1490.84,694.12z"
		/>
	<g>
		<path class="st0" d="M1429.57,763.03c6.38,16.11,25.5,24.01,43.21,25.48c17.72,1.47,35.65-1.7,53.29,0.46
			c18.63,2.28,36.4,10.67,49.76,23.47c8.07,7.74,14.5,16.96,22.66,24.61c8.16,7.65,18.79,13.83,30.11,13.22
			c-11.71,15.09-23.42,30.18-35.14,45.27c-5.6,7.22-12.01,14.95-21.13,16.74c-5.2,1.02-10.57-0.08-15.75-1.21
			c-47.39-10.36-94.1-23.67-139.74-39.81c-6.78-2.4-14.34-5.63-16.62-12.28c-1.61-4.69-0.07-9.79,1.48-14.5
			c8.5-25.82,17.39-51.53,26.65-77.1"/>
	</g>
</g>
<g>
	<g>
		<g>
			<path class="st3" d="M531.29,1010.95c-2.8,0-5.32-0.93-7.49-2.78c-2.23-1.66-3.88-3.84-4.92-6.51c-0.88-2.45-0.6-4.84,0.77-6.98
				c1.33-2.08,3.26-3.18,5.58-3.18c0.15,0,0.3,0,0.46,0.01h11.94c1.17-0.13,1.54-0.41,1.61-0.47c0.06-0.05,0.21-0.34,0.21-1.04
				v-30.62h-40.38c-0.22,0-0.3,0.04-0.3,0.04c0,0,0,0,0,0c0.01,0-0.03,0.08-0.06,0.23c-1.85,17.83-5.72,32.62-11.53,43.96
				c-1.17,2.33-3.19,3.88-5.84,4.46c-0.72,0.16-1.44,0.24-2.13,0.24c-1.8,0-3.49-0.53-5.03-1.57c-2.24-1.31-3.71-3.26-4.37-5.82
				c-0.31-0.95-0.47-1.93-0.47-2.9c0-1.45,0.32-2.91,0.95-4.33c7.28-14.7,10.96-36.61,10.96-65.2v-28.42c-0.02,0-0.03,0-0.04,0
				c-1.1,0-2.14-0.48-3.08-1.42c-1.47-1.34-3.02-2.7-4.55-3.98c-2.16-1.69-3.45-3.98-3.81-6.78c-0.15-0.52-0.23-1.06-0.23-1.59
				c0-2.26,0.73-4.37,2.16-6.28c9.32-12.38,16.77-28.07,22.14-46.62c0.78-2.81,2.45-5.04,4.96-6.61c1.74-1.11,3.68-1.67,5.75-1.67
				c0.85,0,1.7,0.16,2.54,0.47c2.82,0.66,4.97,2.21,6.4,4.6c0.97,1.61,1.46,3.34,1.46,5.13c0,0.99-0.17,1.99-0.49,2.97
				c-0.36,1.17-0.74,2.33-1.12,3.42h18.25c0.66-0.19,1.31-0.28,1.95-0.28c1.32,0,2.57,0.4,3.72,1.18l3.31,1.95l0.05,0.03
				c1.93,1.29,3.28,3.05,4.01,5.23c0.73,2.2,0.69,4.4-0.13,6.53c-2.47,5.93-5.25,11.9-8.28,17.79h7.58c4.19,0,7.76,1.48,10.61,4.41
				c2.48,2.54,3.89,5.55,4.21,8.95c7.15-3.63,12.68-8.23,16.45-13.67c3.98-5.76,6.9-12.72,8.67-20.69h-14.74
				c-2.63,0-4.91-0.95-6.79-2.83c-1.88-1.87-2.83-4.19-2.83-6.88c0-2.69,0.95-5,2.83-6.88c1.88-1.88,4.16-2.83,6.79-2.83h62.3
				c5.23,0,9.72,1.92,13.36,5.69c3.35,3.5,5.05,7.65,5.05,12.32l0,1.08c-0.65,12.53-1.52,21.97-2.56,28.07
				c-1.12,6.49-2.68,10.8-4.76,13.19c-2.74,3.46-7.06,5.62-12.78,6.33c-2.31,0.27-5.52,0.41-9.82,0.41h-2.54
				c-0.59,0-1.16-0.04-1.73-0.13c0.23,0.19,0.45,0.39,0.67,0.6c2.16,2.08,3.25,4.67,3.25,7.69v8.35h22.61
				c2.75,0,5.13,0.99,7.08,2.93c1.94,1.94,2.93,4.33,2.93,7.08s-0.99,5.13-2.93,7.08c-1.94,1.94-4.33,2.93-7.08,2.93h-22.61v17.68
				h26.32c2.75,0,5.13,0.99,7.08,2.93c1.94,1.94,2.93,4.33,2.93,7.08c0,2.74-0.98,5.14-2.9,7.15c-1.94,2.03-4.33,3.06-7.11,3.06
				h-26.32v24.37c0,2.88-1.08,5.43-3.22,7.57c-2.14,2.14-4.72,3.22-7.66,3.22c-2.96,0-5.52-1.09-7.59-3.25
				c-2.06-2.13-3.1-4.67-3.1-7.54v-24.37H568.2c-2.77,0-5.16-1.03-7.11-3.06c-1.14-1.19-1.95-2.51-2.42-3.97v22.02
				c0,8.95-2.65,14.93-7.88,17.77l-0.08,0.04l-0.09,0.04c-3.91,1.67-10.15,2.62-19.09,2.89l-0.03,0H531.29z M558.68,961.84
				c0.47-1.45,1.29-2.76,2.45-3.92c1.94-1.94,4.33-2.93,7.08-2.93h29.64v-17.68h-15.77c-0.56,0-0.73,0.17-0.91,0.57
				c-1.31,3.27-2.86,6.45-4.6,9.39c-1.28,2.39-3.28,3.98-5.93,4.63l-0.08,0.02l-0.08,0.01c-0.88,0.15-1.72,0.22-2.48,0.22
				c-1.75,0-3.43-0.4-5-1.19l-0.09-0.05c-2.07-1.18-3.49-2.86-4.24-4.99V961.84z M539.44,941.13v-16.12H528.4v16.12H539.44z
				 M511.32,941.13v-16.12h-11.23v16.12H511.32z M558.68,939.19c0.16-0.38,0.34-0.76,0.55-1.14c4.58-8.02,8.33-17.84,11.13-29.19
				c0.65-2.59,2.12-4.63,4.38-6.08c1.63-1.05,3.39-1.58,5.22-1.58c0.7,0,1.43,0.08,2.15,0.24c2.6,0.57,4.66,1.97,6.12,4.17
				c1.48,2.23,1.91,4.76,1.26,7.52c-0.3,1.32-0.66,2.72-1.06,4.18h9.42v-8.35c0-3.01,1.05-5.59,3.13-7.66
				c2.07-2.07,4.62-3.13,7.57-3.13c0.63,0,1.23,0.05,1.83,0.14c-0.14-0.12-0.28-0.24-0.42-0.36c-2.04-1.82-3.46-4.11-4.21-6.82
				c-0.54-2.34-0.11-4.49,1.26-6.46c1.33-1.91,3.24-2.92,5.51-2.92c0.19,0,0.37,0.01,0.56,0.02c2.38,0.13,5.1,0.19,8.06,0.19l0.1,0
				c0.2,0.01,0.4,0.01,0.59,0.01c1.59,0,2.67-0.34,3.21-1.03l0.06-0.08c0.8-0.9,2.78-5.41,3.98-27.77l-23.78,0.05
				c-0.22,0-0.3,0.04-0.3,0.04c0,0,0,0,0,0c0.01,0-0.04,0.1-0.08,0.31c-1.85,10.03-4.88,18.91-9,26.36
				c-4.16,7.52-10.14,14.11-17.77,19.6l-0.07,0.05l-0.08,0.05c-2.32,1.36-4.69,2.05-7.05,2.05c-0.22,0-0.44-0.01-0.67-0.02
				c-1.22-0.01-2.51-0.23-3.84-0.67c-2.79-0.76-5.39-2.13-7.78-4.08V939.19z M539.44,907.14V892.2H528.4v14.95H539.44z
				 M511.32,907.14V892.2h-11.23v14.95H511.32z M515.08,874.13c0.51,0,0.71-0.12,0.91-0.57c1.69-3.75,3.53-8.25,5.46-13.4h-14.57
				c-0.56,0-0.73,0.17-0.91,0.57c-2.11,5.05-4.17,9.56-6.1,13.4H515.08z"/>
			<path class="st25" d="M531.29,1010.95c-2.8,0-5.32-0.93-7.49-2.78c-2.23-1.66-3.88-3.84-4.92-6.51c-0.88-2.45-0.6-4.84,0.77-6.98
				c1.33-2.08,3.26-3.18,5.58-3.18c0.15,0,0.3,0,0.46,0.01h11.94c1.17-0.13,1.54-0.41,1.61-0.47c0.06-0.05,0.21-0.34,0.21-1.04
				v-30.62h-40.38c-0.22,0-0.3,0.04-0.3,0.04c0,0,0,0,0,0c0.01,0-0.03,0.08-0.06,0.23c-1.85,17.83-5.72,32.62-11.53,43.96
				c-1.17,2.33-3.19,3.88-5.84,4.46c-0.72,0.16-1.44,0.24-2.13,0.24c-1.8,0-3.49-0.53-5.03-1.57c-2.24-1.31-3.71-3.26-4.37-5.82
				c-0.31-0.95-0.47-1.93-0.47-2.9c0-1.45,0.32-2.91,0.95-4.33c7.28-14.7,10.96-36.61,10.96-65.2v-28.42c-0.02,0-0.03,0-0.04,0
				c-1.1,0-2.14-0.48-3.08-1.42c-1.47-1.34-3.02-2.7-4.55-3.98c-2.16-1.69-3.45-3.98-3.81-6.78c-0.15-0.52-0.23-1.06-0.23-1.59
				c0-2.26,0.73-4.37,2.16-6.28c9.32-12.38,16.77-28.07,22.14-46.62c0.78-2.81,2.45-5.04,4.96-6.61c1.74-1.11,3.68-1.67,5.75-1.67
				c0.85,0,1.7,0.16,2.54,0.47c2.82,0.66,4.97,2.21,6.4,4.6c0.97,1.61,1.46,3.34,1.46,5.13c0,0.99-0.17,1.99-0.49,2.97
				c-0.36,1.17-0.74,2.33-1.12,3.42h18.25c0.66-0.19,1.31-0.28,1.95-0.28c1.32,0,2.57,0.4,3.72,1.18l3.31,1.95l0.05,0.03
				c1.93,1.29,3.28,3.05,4.01,5.23c0.73,2.2,0.69,4.4-0.13,6.53c-2.47,5.93-5.25,11.9-8.28,17.79h7.58c4.19,0,7.76,1.48,10.61,4.41
				c2.48,2.54,3.89,5.55,4.21,8.95c7.15-3.63,12.68-8.23,16.45-13.67c3.98-5.76,6.9-12.72,8.67-20.69h-14.74
				c-2.63,0-4.91-0.95-6.79-2.83c-1.88-1.87-2.83-4.19-2.83-6.88c0-2.69,0.95-5,2.83-6.88c1.88-1.88,4.16-2.83,6.79-2.83h62.3
				c5.23,0,9.72,1.92,13.36,5.69c3.35,3.5,5.05,7.65,5.05,12.32l0,1.08c-0.65,12.53-1.52,21.97-2.56,28.07
				c-1.12,6.49-2.68,10.8-4.76,13.19c-2.74,3.46-7.06,5.62-12.78,6.33c-2.31,0.27-5.52,0.41-9.82,0.41h-2.54
				c-0.59,0-1.16-0.04-1.73-0.13c0.23,0.19,0.45,0.39,0.67,0.6c2.16,2.08,3.25,4.67,3.25,7.69v8.35h22.61
				c2.75,0,5.13,0.99,7.08,2.93c1.94,1.94,2.93,4.33,2.93,7.08s-0.99,5.13-2.93,7.08c-1.94,1.94-4.33,2.93-7.08,2.93h-22.61v17.68
				h26.32c2.75,0,5.13,0.99,7.08,2.93c1.94,1.94,2.93,4.33,2.93,7.08c0,2.74-0.98,5.14-2.9,7.15c-1.94,2.03-4.33,3.06-7.11,3.06
				h-26.32v24.37c0,2.88-1.08,5.43-3.22,7.57c-2.14,2.14-4.72,3.22-7.66,3.22c-2.96,0-5.52-1.09-7.59-3.25
				c-2.06-2.13-3.1-4.67-3.1-7.54v-24.37H568.2c-2.77,0-5.16-1.03-7.11-3.06c-1.14-1.19-1.95-2.51-2.42-3.97v22.02
				c0,8.95-2.65,14.93-7.88,17.77l-0.08,0.04l-0.09,0.04c-3.91,1.67-10.15,2.62-19.09,2.89l-0.03,0H531.29z M558.68,961.84
				c0.47-1.45,1.29-2.76,2.45-3.92c1.94-1.94,4.33-2.93,7.08-2.93h29.64v-17.68h-15.77c-0.56,0-0.73,0.17-0.91,0.57
				c-1.31,3.27-2.86,6.45-4.6,9.39c-1.28,2.39-3.28,3.98-5.93,4.63l-0.08,0.02l-0.08,0.01c-0.88,0.15-1.72,0.22-2.48,0.22
				c-1.75,0-3.43-0.4-5-1.19l-0.09-0.05c-2.07-1.18-3.49-2.86-4.24-4.99V961.84z M539.44,941.13v-16.12H528.4v16.12H539.44z
				 M511.32,941.13v-16.12h-11.23v16.12H511.32z M558.68,939.19c0.16-0.38,0.34-0.76,0.55-1.14c4.58-8.02,8.33-17.84,11.13-29.19
				c0.65-2.59,2.12-4.63,4.38-6.08c1.63-1.05,3.39-1.58,5.22-1.58c0.7,0,1.43,0.08,2.15,0.24c2.6,0.57,4.66,1.97,6.12,4.17
				c1.48,2.23,1.91,4.76,1.26,7.52c-0.3,1.32-0.66,2.72-1.06,4.18h9.42v-8.35c0-3.01,1.05-5.59,3.13-7.66
				c2.07-2.07,4.62-3.13,7.57-3.13c0.63,0,1.23,0.05,1.83,0.14c-0.14-0.12-0.28-0.24-0.42-0.36c-2.04-1.82-3.46-4.11-4.21-6.82
				c-0.54-2.34-0.11-4.49,1.26-6.46c1.33-1.91,3.24-2.92,5.51-2.92c0.19,0,0.37,0.01,0.56,0.02c2.38,0.13,5.1,0.19,8.06,0.19l0.1,0
				c0.2,0.01,0.4,0.01,0.59,0.01c1.59,0,2.67-0.34,3.21-1.03l0.06-0.08c0.8-0.9,2.78-5.41,3.98-27.77l-23.78,0.05
				c-0.22,0-0.3,0.04-0.3,0.04c0,0,0,0,0,0c0.01,0-0.04,0.1-0.08,0.31c-1.85,10.03-4.88,18.91-9,26.36
				c-4.16,7.52-10.14,14.11-17.77,19.6l-0.07,0.05l-0.08,0.05c-2.32,1.36-4.69,2.05-7.05,2.05c-0.22,0-0.44-0.01-0.67-0.02
				c-1.22-0.01-2.51-0.23-3.84-0.67c-2.79-0.76-5.39-2.13-7.78-4.08V939.19z M539.44,907.14V892.2H528.4v14.95H539.44z
				 M511.32,907.14V892.2h-11.23v14.95H511.32z M515.08,874.13c0.51,0,0.71-0.12,0.91-0.57c1.69-3.75,3.53-8.25,5.46-13.4h-14.57
				c-0.56,0-0.73,0.17-0.91,0.57c-2.11,5.05-4.17,9.56-6.1,13.4H515.08z"/>
		</g>
		<g>
			<path class="st3" d="M749.25,1008.99c-0.96,0-1.92-0.16-2.88-0.46c-2.72-0.63-5.09-2.08-7.03-4.33
				c-1.35-1.52-2.05-3.28-2.05-5.21c0-0.71,0.09-1.28,0.27-1.77c0.45-2.12,1.5-3.83,3.14-5.09c-14.99,3.33-34.17,7.34-57.07,11.95
				c-0.81,0.16-1.51,0.23-2.15,0.23c-2.07,0-4.01-0.56-5.76-1.68c-2.54-1.58-4.15-3.85-4.79-6.73c-0.16-0.81-0.24-1.6-0.24-2.38
				c0-1.94,0.56-3.81,1.68-5.57c1.63-2.46,3.92-3.93,6.83-4.42c7.27-1.17,14.28-2.41,20.84-3.7l0.09-0.02c0,0,0.2-0.02,0.24-0.03
				c0-0.04,0.01-0.08,0.01-0.14v-52.69h-19.09c-2.76,0-5.17-1.02-7.18-3.03c-2.01-2-3.03-4.42-3.03-7.17c0-2.77,1.03-5.16,3.06-7.11
				c2-1.92,4.41-2.9,7.15-2.9h19.09v-14.16h-9.33c-2.77,0-5.13-1-7.01-2.96c-1.2-1.25-2.02-2.69-2.45-4.28
				c-1.16,0.55-2.41,0.82-3.76,0.82c-0.22,0-0.45-0.01-0.67-0.02c-2.52-0.16-4.7-1.22-6.48-3.14c-0.13-0.13-0.26-0.26-0.39-0.39
				c-1.93-1.93-2.91-4.31-2.91-7.06c0-2.78,1.01-5.12,2.99-6.94c10.67-10.42,19.54-22.72,26.31-36.52c1.18-2.52,2.97-4.57,5.3-6.07
				c2.34-1.51,4.91-2.27,7.63-2.27c5.99,0.14,11.1,2.16,15.23,6c8.59,7.68,16.01,15.1,22.02,22.03c2.01,2.32,3.03,5.06,3.03,8.15
				c0,3.35-1.15,6.36-3.43,8.94c-1.8,2.12-4.09,3.22-6.77,3.22l-0.69,0c-2.96-0.16-5.37-1.49-7.17-3.94
				c-6-7.87-12.47-15.19-19.23-21.75c-5.91,9.72-12.2,18.56-18.74,26.38h39.19c2.73,0,5.1,0.94,7.05,2.8
				c1.97,1.88,2.96,4.24,2.96,7.01c0,2.75-0.99,5.13-2.93,7.08c-1.94,1.94-4.33,2.93-7.08,2.93h-12.45v14.16h16.95
				c2.75,0,5.13,0.99,7.08,2.93c1.94,1.94,2.93,4.33,2.93,7.08c0,2.74-0.98,5.14-2.9,7.15c-1.94,2.03-4.33,3.06-7.11,3.06h-16.95
				v49.09c2.43-0.39,5.96-1.06,10.49-1.98c4.78-0.97,7.45-1.52,7.92-1.64l0.12-0.03c0.6-0.11,1.2-0.17,1.78-0.17
				c1.98,0,3.82,0.64,5.47,1.92c2.28,1.63,3.52,4.15,3.52,7.25c0,2.39-0.73,4.56-2.16,6.47c-0.17,0.22-0.34,0.43-0.52,0.63
				c7.63-4.24,14.5-8.77,20.53-13.55c2.39-1.94,5.15-3.01,8.17-3.16l1.08,0c2.57,0,5.02,0.69,7.28,2.04l0.11,0.07
				c2.61,1.8,3.99,4.46,3.99,7.7c0,2.69-1.15,4.99-3.32,6.66c-8.77,6.93-19,13.44-30.38,19.33
				C752.98,1008.52,751.15,1008.99,749.25,1008.99z M839.73,1007.82l-0.15-0.02c-3-0.45-5.66-1.74-7.9-3.84
				c-5.57-5.57-12.02-11.3-19.22-17.09c-2-1.5-3.09-3.67-3.09-6.25c0-2.73,1.18-4.99,3.4-6.53c2.25-1.65,4.88-2.5,7.78-2.5
				c2.92,0,5.5,0.87,7.68,2.58c8.05,5.97,15.33,11.93,21.6,17.68c1.93,1.6,2.99,3.83,2.99,6.36c0,3.58-1.57,6.35-4.54,8
				c-2.18,1.09-4.39,1.62-6.64,1.62H839.73z M688.52,974c-1.61,0-3.12-0.51-4.51-1.52c-1.89-1.38-2.99-3.3-3.16-5.57
				c-0.89-7.07-2.45-14.93-4.63-23.28c-0.17-0.69-0.26-1.38-0.26-2.07c0-1.39,0.41-2.77,1.23-4.11c1.05-2.04,2.78-3.38,5.01-3.9
				c0.68-0.16,1.36-0.24,2.03-0.24c1.46,0,2.89,0.37,4.25,1.11c2.03,1.1,3.4,2.78,4.08,4.98c2.37,8.28,4.09,16.25,5.15,23.75
				c0.33,2.32-0.21,4.53-1.6,6.58c-1.38,2.03-3.31,3.39-5.73,4.03C689.72,973.93,689.11,974,688.52,974z M772.5,971.1
				c-5.22,0-9.73-1.87-13.43-5.57c-3.69-3.69-5.57-8.21-5.57-13.43V890c0-5.36,1.92-9.92,5.69-13.55c3.76-3.61,8.23-5.44,13.3-5.44
				h15.19v-36.67c0-2.88,1.05-5.4,3.13-7.47c2.07-2.07,4.62-3.13,7.57-3.13c2.96,0,5.48,1.06,7.49,3.15c1.99,2.08,3,4.58,3,7.44
				v36.67h17.53c5.21,0,9.72,1.83,13.41,5.45c3.7,3.63,5.58,8.19,5.58,13.54v62.11c0,5.21-1.87,9.73-5.57,13.43
				c-3.69,3.69-8.21,5.57-13.43,5.57H772.5z M823.43,953.24v-10.26H774.5v10.26H823.43z M823.43,926.09v-10.26H774.5v10.26H823.43z
				 M823.43,898.74v-9.87H774.5v9.87H823.43z M731.09,970.52c-0.68,0-1.37-0.09-2.05-0.25c-2.21-0.51-3.94-1.87-4.99-3.92
				c-0.68-1.2-1.02-2.5-1.02-3.88c0-0.69,0.09-1.38,0.26-2.05c1.94-6.97,3.56-14.2,4.85-21.54c0.51-2.54,1.92-4.49,4.09-5.68
				c1.35-0.83,2.87-1.25,4.52-1.25c0.67,0,1.35,0.08,2.04,0.25c2.51,0.67,4.4,2.1,5.65,4.26c1.24,2.16,1.54,4.51,0.88,6.98
				c-3.22,11.32-5.32,18.42-6.26,21.14c-0.54,2.21-1.91,3.91-3.96,4.94C733.79,970.18,732.44,970.52,731.09,970.52z M827.18,868.96
				c-1.38,0-2.78-0.23-4.15-0.69l-0.11-0.04c-2.53-1.01-4.23-2.84-5.07-5.44c-0.81-2.5-0.65-5,0.48-7.42
				c2.99-5.73,5.8-11.66,8.37-17.71c1.07-2.75,3.04-4.82,5.83-6.09c1.45-0.79,2.99-1.19,4.6-1.19c1.27,0,2.56,0.24,3.83,0.71
				c2.89,1.12,4.91,3.07,6.03,5.8c0.5,1.33,0.74,2.61,0.74,3.89c0,1.44-0.32,2.9-0.95,4.33l-0.05,0.1
				c-3.02,5.9-6.32,12.03-9.8,18.23c-1.44,2.4-3.5,4.07-6.16,5.01l-0.11,0.04C829.59,868.8,828.42,868.96,827.18,868.96z
				 M768.98,868.56c-1.28,0-2.57-0.24-3.83-0.71l-0.1-0.04l-0.09-0.05c-2.51-1.25-4.33-3.16-5.43-5.68
				c-2.21-5.83-4.99-11.72-8.31-17.59c-1.34-2.33-1.55-4.83-0.63-7.41c0.91-2.57,2.64-4.39,5.15-5.39c1.36-0.6,2.78-0.92,4.16-0.92
				c1.34,0,2.66,0.24,3.92,0.71c2.65,0.94,4.66,2.63,5.95,5.03c3.51,6.11,6.5,12.03,8.86,17.54c0.51,1.35,0.75,2.67,0.75,4.01
				c0,1.34-0.24,2.66-0.71,3.92l-0.06,0.15c-1.26,2.67-3.25,4.58-5.93,5.68C771.54,868.31,770.29,868.56,768.98,868.56z"/>
			<path class="st25" d="M749.25,1008.99c-0.96,0-1.92-0.16-2.88-0.46c-2.72-0.63-5.09-2.08-7.03-4.33
				c-1.35-1.52-2.05-3.28-2.05-5.21c0-0.71,0.09-1.28,0.27-1.77c0.45-2.12,1.5-3.83,3.14-5.09c-14.99,3.33-34.17,7.34-57.07,11.95
				c-0.81,0.16-1.51,0.23-2.15,0.23c-2.07,0-4.01-0.56-5.76-1.68c-2.54-1.58-4.15-3.85-4.79-6.73c-0.16-0.81-0.24-1.6-0.24-2.38
				c0-1.94,0.56-3.81,1.68-5.57c1.63-2.46,3.92-3.93,6.83-4.42c7.27-1.17,14.28-2.41,20.84-3.7l0.09-0.02c0,0,0.2-0.02,0.24-0.03
				c0-0.04,0.01-0.08,0.01-0.14v-52.69h-19.09c-2.76,0-5.17-1.02-7.18-3.03c-2.01-2-3.03-4.42-3.03-7.17c0-2.77,1.03-5.16,3.06-7.11
				c2-1.92,4.41-2.9,7.15-2.9h19.09v-14.16h-9.33c-2.77,0-5.13-1-7.01-2.96c-1.2-1.25-2.02-2.69-2.45-4.28
				c-1.16,0.55-2.41,0.82-3.76,0.82c-0.22,0-0.45-0.01-0.67-0.02c-2.52-0.16-4.7-1.22-6.48-3.14c-0.13-0.13-0.26-0.26-0.39-0.39
				c-1.93-1.93-2.91-4.31-2.91-7.06c0-2.78,1.01-5.12,2.99-6.94c10.67-10.42,19.54-22.72,26.31-36.52c1.18-2.52,2.97-4.57,5.3-6.07
				c2.34-1.51,4.91-2.27,7.63-2.27c5.99,0.14,11.1,2.16,15.23,6c8.59,7.68,16.01,15.1,22.02,22.03c2.01,2.32,3.03,5.06,3.03,8.15
				c0,3.35-1.15,6.36-3.43,8.94c-1.8,2.12-4.09,3.22-6.77,3.22l-0.69,0c-2.96-0.16-5.37-1.49-7.17-3.94
				c-6-7.87-12.47-15.19-19.23-21.75c-5.91,9.72-12.2,18.56-18.74,26.38h39.19c2.73,0,5.1,0.94,7.05,2.8
				c1.97,1.88,2.96,4.24,2.96,7.01c0,2.75-0.99,5.13-2.93,7.08c-1.94,1.94-4.33,2.93-7.08,2.93h-12.45v14.16h16.95
				c2.75,0,5.13,0.99,7.08,2.93c1.94,1.94,2.93,4.33,2.93,7.08c0,2.74-0.98,5.14-2.9,7.15c-1.94,2.03-4.33,3.06-7.11,3.06h-16.95
				v49.09c2.43-0.39,5.96-1.06,10.49-1.98c4.78-0.97,7.45-1.52,7.92-1.64l0.12-0.03c0.6-0.11,1.2-0.17,1.78-0.17
				c1.98,0,3.82,0.64,5.47,1.92c2.28,1.63,3.52,4.15,3.52,7.25c0,2.39-0.73,4.56-2.16,6.47c-0.17,0.22-0.34,0.43-0.52,0.63
				c7.63-4.24,14.5-8.77,20.53-13.55c2.39-1.94,5.15-3.01,8.17-3.16l1.08,0c2.57,0,5.02,0.69,7.28,2.04l0.11,0.07
				c2.61,1.8,3.99,4.46,3.99,7.7c0,2.69-1.15,4.99-3.32,6.66c-8.77,6.93-19,13.44-30.38,19.33
				C752.98,1008.52,751.15,1008.99,749.25,1008.99z M839.73,1007.82l-0.15-0.02c-3-0.45-5.66-1.74-7.9-3.84
				c-5.57-5.57-12.02-11.3-19.22-17.09c-2-1.5-3.09-3.67-3.09-6.25c0-2.73,1.18-4.99,3.4-6.53c2.25-1.65,4.88-2.5,7.78-2.5
				c2.92,0,5.5,0.87,7.68,2.58c8.05,5.97,15.33,11.93,21.6,17.68c1.93,1.6,2.99,3.83,2.99,6.36c0,3.58-1.57,6.35-4.54,8
				c-2.18,1.09-4.39,1.62-6.64,1.62H839.73z M688.52,974c-1.61,0-3.12-0.51-4.51-1.52c-1.89-1.38-2.99-3.3-3.16-5.57
				c-0.89-7.07-2.45-14.93-4.63-23.28c-0.17-0.69-0.26-1.38-0.26-2.07c0-1.39,0.41-2.77,1.23-4.11c1.05-2.04,2.78-3.38,5.01-3.9
				c0.68-0.16,1.36-0.24,2.03-0.24c1.46,0,2.89,0.37,4.25,1.11c2.03,1.1,3.4,2.78,4.08,4.98c2.37,8.28,4.09,16.25,5.15,23.75
				c0.33,2.32-0.21,4.53-1.6,6.58c-1.38,2.03-3.31,3.39-5.73,4.03C689.72,973.93,689.11,974,688.52,974z M772.5,971.1
				c-5.22,0-9.73-1.87-13.43-5.57c-3.69-3.69-5.57-8.21-5.57-13.43V890c0-5.36,1.92-9.92,5.69-13.55c3.76-3.61,8.23-5.44,13.3-5.44
				h15.19v-36.67c0-2.88,1.05-5.4,3.13-7.47c2.07-2.07,4.62-3.13,7.57-3.13c2.96,0,5.48,1.06,7.49,3.15c1.99,2.08,3,4.58,3,7.44
				v36.67h17.53c5.21,0,9.72,1.83,13.41,5.45c3.7,3.63,5.58,8.19,5.58,13.54v62.11c0,5.21-1.87,9.73-5.57,13.43
				c-3.69,3.69-8.21,5.57-13.43,5.57H772.5z M823.43,953.24v-10.26H774.5v10.26H823.43z M823.43,926.09v-10.26H774.5v10.26H823.43z
				 M823.43,898.74v-9.87H774.5v9.87H823.43z M731.09,970.52c-0.68,0-1.37-0.09-2.05-0.25c-2.21-0.51-3.94-1.87-4.99-3.92
				c-0.68-1.2-1.02-2.5-1.02-3.88c0-0.69,0.09-1.38,0.26-2.05c1.94-6.97,3.56-14.2,4.85-21.54c0.51-2.54,1.92-4.49,4.09-5.68
				c1.35-0.83,2.87-1.25,4.52-1.25c0.67,0,1.35,0.08,2.04,0.25c2.51,0.67,4.4,2.1,5.65,4.26c1.24,2.16,1.54,4.51,0.88,6.98
				c-3.22,11.32-5.32,18.42-6.26,21.14c-0.54,2.21-1.91,3.91-3.96,4.94C733.79,970.18,732.44,970.52,731.09,970.52z M827.18,868.96
				c-1.38,0-2.78-0.23-4.15-0.69l-0.11-0.04c-2.53-1.01-4.23-2.84-5.07-5.44c-0.81-2.5-0.65-5,0.48-7.42
				c2.99-5.73,5.8-11.66,8.37-17.71c1.07-2.75,3.04-4.82,5.83-6.09c1.45-0.79,2.99-1.19,4.6-1.19c1.27,0,2.56,0.24,3.83,0.71
				c2.89,1.12,4.91,3.07,6.03,5.8c0.5,1.33,0.74,2.61,0.74,3.89c0,1.44-0.32,2.9-0.95,4.33l-0.05,0.1
				c-3.02,5.9-6.32,12.03-9.8,18.23c-1.44,2.4-3.5,4.07-6.16,5.01l-0.11,0.04C829.59,868.8,828.42,868.96,827.18,868.96z
				 M768.98,868.56c-1.28,0-2.57-0.24-3.83-0.71l-0.1-0.04l-0.09-0.05c-2.51-1.25-4.33-3.16-5.43-5.68
				c-2.21-5.83-4.99-11.72-8.31-17.59c-1.34-2.33-1.55-4.83-0.63-7.41c0.91-2.57,2.64-4.39,5.15-5.39c1.36-0.6,2.78-0.92,4.16-0.92
				c1.34,0,2.66,0.24,3.92,0.71c2.65,0.94,4.66,2.63,5.95,5.03c3.51,6.11,6.5,12.03,8.86,17.54c0.51,1.35,0.75,2.67,0.75,4.01
				c0,1.34-0.24,2.66-0.71,3.92l-0.06,0.15c-1.26,2.67-3.25,4.58-5.93,5.68C771.54,868.31,770.29,868.56,768.98,868.56z"/>
		</g>
		<g>
			<path class="st3" d="M889.1,1009.97c-4.61,0-8.73-2-12.24-5.94c-1.12-1.31-1.68-2.73-1.68-4.26c0-0.79,0.18-1.58,0.54-2.33
				c0.76-2.15,2.39-3.57,4.72-4.11c12.45-2.33,23.72-5.09,33.67-8.22c-4.56-0.34-8.58-2.18-11.96-5.5
				c-3.77-3.69-5.68-8.21-5.68-13.44v-30.66c0-5.21,1.87-9.73,5.57-13.43c3.69-3.69,8.28-5.57,13.62-5.57h94.73
				c5.21,0,9.73,1.87,13.43,5.57s5.57,8.21,5.57,13.43v30.66c0,5.21-1.87,9.73-5.57,13.43c-3.07,3.07-6.7,4.88-10.83,5.4
				c9.39,2.7,18.34,5.44,26.73,8.17c3.05,1.08,4.7,3.48,4.7,6.78c0,2.2-1.03,4.11-2.97,5.52c-3.48,2.46-7.22,3.7-11.14,3.7
				c-2.58,0-5.18-0.51-7.75-1.5c-12.11-4.51-25.99-9.03-41.24-13.42c-2.64-0.7-4.38-2.49-5.01-5.18c-0.33-1.41-0.27-2.73,0.17-3.92
				h-31.93c0.6,1.24,0.82,2.64,0.64,4.18c-0.35,3.03-2.01,5.19-4.8,6.24c-13.79,5.72-29.93,10.43-47.93,13.95
				C891.28,1009.82,890.15,1009.97,889.1,1009.97z M1006.63,970.81v-4.2h-87.8v4.2H1006.63z M1006.63,952.65v-4.01h-87.8v4.01
				H1006.63z M1006.63,934.68v-3.81h-87.8v3.81H1006.63z M887.19,915.65c-2.07,0-3.96-0.68-5.61-2.03
				c-1.85-1.51-2.88-3.47-3.07-5.82c-0.32-2.22,0.31-4.34,1.84-6.11c1.53-1.78,3.5-2.77,5.87-2.94l0.14,0
				c2.56,0,6.73-0.16,12.39-0.49c5.92-0.33,10.21-0.56,13.11-0.68c0.01,0,0.03,0,0.04,0v-4.59h-15.77c-1.85,0-3.47-0.69-4.83-2.05
				c-1.36-1.36-2.05-3.05-2.05-5.03s0.69-3.67,2.05-5.03c1.36-1.36,2.99-2.05,4.83-2.05h15.77v-3.81h-17.73
				c-2.1,0-3.96-0.79-5.36-2.29c-1.05-1.12-1.72-2.38-1.98-3.78c-3.24-0.16-6.11-1.47-8.53-3.89c-2.48-2.63-3.71-5.72-3.71-9.23
				v-3.32c0-4.43,1.6-8.32,4.77-11.55c3.18-3.25,7.11-4.9,11.68-4.9h58.94v-1.32c0-3.01,1.12-5.66,3.32-7.86
				c2.2-2.2,4.88-3.32,7.96-3.32c3.09,0,5.77,1.16,7.98,3.44c2.19,2.27,3.3,4.87,3.3,7.74v1.32l59.13,0c4.57,0,8.5,1.65,11.68,4.9
				c3.17,3.24,4.77,7.13,4.77,11.55v0.78c0,4.31-1.54,8.04-4.59,11.08c-2.97,2.97-6.59,4.51-10.76,4.59
				c-0.25,1.5-0.92,2.83-1.99,3.96c-1.43,1.52-3.23,2.29-5.36,2.29h-16.55v3.03h28.08c1.84,0,3.5,0.72,4.93,2.15
				c1.43,1.43,2.15,3.12,2.15,5.03c0,1.91-0.72,3.6-2.15,5.03c-1.42,1.43-3.08,2.15-4.93,2.15H1034c0.4,0.29,0.78,0.62,1.14,0.98
				c1.75,1.75,2.64,3.83,2.64,6.2v2.93c0,3.14-1.15,5.89-3.42,8.15c-2.27,2.27-5.08,3.42-8.35,3.42h-52.73
				c-3.42,0-6.27-1.16-8.47-3.44c-2.19-2.26-3.29-4.99-3.29-8.13v-3.13c0-2.36,0.85-4.42,2.54-6.1c0.33-0.33,0.67-0.62,1.02-0.88
				h-2.34c-1.98,0-3.73-0.76-5.07-2.2c-1.33-1.42-2-3.09-2-4.98c0-1.88,0.67-3.56,2-4.98c0.71-0.76,1.53-1.33,2.44-1.7
				c-0.68-1.1-1.08-2.36-1.22-3.78c-0.25-2.69,0.57-5.01,2.43-6.87c2.71-2.84,5.12-6,7.12-9.37c1.02-1.6,2.17-2.87,3.45-3.82H895.4
				v4.79h52.88c2.1,0,3.92,0.75,5.42,2.24c1.49,1.5,2.25,3.32,2.25,5.42c0,2.11-0.76,3.93-2.25,5.42c-1.49,1.49-3.31,2.25-5.42,2.25
				h-16.95v3.81h15.19c1.98,0,3.67,0.69,5.03,2.05c1.36,1.36,2.05,3.05,2.05,5.03s-0.69,3.67-2.05,5.03
				c-1.36,1.36-3.05,2.05-5.03,2.05h-15.19v3.58l17.83-0.74c0.15-0.01,0.37-0.02,0.59-0.02c1.85,0,3.51,0.64,4.92,1.89
				c1.59,1.42,2.43,3.35,2.43,5.6c0,2.08-0.78,3.96-2.31,5.58c-1.52,1.6-3.4,2.5-5.6,2.67c-19.84,1.43-40.48,2.81-61.36,4.1
				C887.64,915.65,887.41,915.65,887.19,915.65z M1019.91,900.11v-0.34c0-2.36,0.89-4.45,2.64-6.2c0.36-0.36,0.74-0.69,1.14-0.98
				h-14.82v7.52H1019.91z M989.44,900.11v-7.52h-14.01c0.35,0.26,0.69,0.56,1.02,0.88c1.69,1.69,2.54,3.74,2.54,6.1v0.54H989.44z
				 M989.44,878.24v-3.03h-11.28c-0.74,0-1.33,0.23-1.84,0.72c-0.63,0.76-1.3,1.54-2.01,2.31H989.44z M1026.55,860.85v-5.96h-42.51
				c0.45,0.48,0.84,1.04,1.16,1.66c0.74,1.41,1,2.87,0.79,4.3H1026.55z"/>
			<path class="st25" d="M889.1,1009.97c-4.61,0-8.73-2-12.24-5.94c-1.12-1.31-1.68-2.73-1.68-4.26c0-0.79,0.18-1.58,0.54-2.33
				c0.76-2.15,2.39-3.57,4.72-4.11c12.45-2.33,23.72-5.09,33.67-8.22c-4.56-0.34-8.58-2.18-11.96-5.5
				c-3.77-3.69-5.68-8.21-5.68-13.44v-30.66c0-5.21,1.87-9.73,5.57-13.43c3.69-3.69,8.28-5.57,13.62-5.57h94.73
				c5.21,0,9.73,1.87,13.43,5.57s5.57,8.21,5.57,13.43v30.66c0,5.21-1.87,9.73-5.57,13.43c-3.07,3.07-6.7,4.88-10.83,5.4
				c9.39,2.7,18.34,5.44,26.73,8.17c3.05,1.08,4.7,3.48,4.7,6.78c0,2.2-1.03,4.11-2.97,5.52c-3.48,2.46-7.22,3.7-11.14,3.7
				c-2.58,0-5.18-0.51-7.75-1.5c-12.11-4.51-25.99-9.03-41.24-13.42c-2.64-0.7-4.38-2.49-5.01-5.18c-0.33-1.41-0.27-2.73,0.17-3.92
				h-31.93c0.6,1.24,0.82,2.64,0.64,4.18c-0.35,3.03-2.01,5.19-4.8,6.24c-13.79,5.72-29.93,10.43-47.93,13.95
				C891.28,1009.82,890.15,1009.97,889.1,1009.97z M1006.63,970.81v-4.2h-87.8v4.2H1006.63z M1006.63,952.65v-4.01h-87.8v4.01
				H1006.63z M1006.63,934.68v-3.81h-87.8v3.81H1006.63z M887.19,915.65c-2.07,0-3.96-0.68-5.61-2.03
				c-1.85-1.51-2.88-3.47-3.07-5.82c-0.32-2.22,0.31-4.34,1.84-6.11c1.53-1.78,3.5-2.77,5.87-2.94l0.14,0
				c2.56,0,6.73-0.16,12.39-0.49c5.92-0.33,10.21-0.56,13.11-0.68c0.01,0,0.03,0,0.04,0v-4.59h-15.77c-1.85,0-3.47-0.69-4.83-2.05
				c-1.36-1.36-2.05-3.05-2.05-5.03s0.69-3.67,2.05-5.03c1.36-1.36,2.99-2.05,4.83-2.05h15.77v-3.81h-17.73
				c-2.1,0-3.96-0.79-5.36-2.29c-1.05-1.12-1.72-2.38-1.98-3.78c-3.24-0.16-6.11-1.47-8.53-3.89c-2.48-2.63-3.71-5.72-3.71-9.23
				v-3.32c0-4.43,1.6-8.32,4.77-11.55c3.18-3.25,7.11-4.9,11.68-4.9h58.94v-1.32c0-3.01,1.12-5.66,3.32-7.86
				c2.2-2.2,4.88-3.32,7.96-3.32c3.09,0,5.77,1.16,7.98,3.44c2.19,2.27,3.3,4.87,3.3,7.74v1.32l59.13,0c4.57,0,8.5,1.65,11.68,4.9
				c3.17,3.24,4.77,7.13,4.77,11.55v0.78c0,4.31-1.54,8.04-4.59,11.08c-2.97,2.97-6.59,4.51-10.76,4.59
				c-0.25,1.5-0.92,2.83-1.99,3.96c-1.43,1.52-3.23,2.29-5.36,2.29h-16.55v3.03h28.08c1.84,0,3.5,0.72,4.93,2.15
				c1.43,1.43,2.15,3.12,2.15,5.03c0,1.91-0.72,3.6-2.15,5.03c-1.42,1.43-3.08,2.15-4.93,2.15H1034c0.4,0.29,0.78,0.62,1.14,0.98
				c1.75,1.75,2.64,3.83,2.64,6.2v2.93c0,3.14-1.15,5.89-3.42,8.15c-2.27,2.27-5.08,3.42-8.35,3.42h-52.73
				c-3.42,0-6.27-1.16-8.47-3.44c-2.19-2.26-3.29-4.99-3.29-8.13v-3.13c0-2.36,0.85-4.42,2.54-6.1c0.33-0.33,0.67-0.62,1.02-0.88
				h-2.34c-1.98,0-3.73-0.76-5.07-2.2c-1.33-1.42-2-3.09-2-4.98c0-1.88,0.67-3.56,2-4.98c0.71-0.76,1.53-1.33,2.44-1.7
				c-0.68-1.1-1.08-2.36-1.22-3.78c-0.25-2.69,0.57-5.01,2.43-6.87c2.71-2.84,5.12-6,7.12-9.37c1.02-1.6,2.17-2.87,3.45-3.82H895.4
				v4.79h52.88c2.1,0,3.92,0.75,5.42,2.24c1.49,1.5,2.25,3.32,2.25,5.42c0,2.11-0.76,3.93-2.25,5.42c-1.49,1.49-3.31,2.25-5.42,2.25
				h-16.95v3.81h15.19c1.98,0,3.67,0.69,5.03,2.05c1.36,1.36,2.05,3.05,2.05,5.03s-0.69,3.67-2.05,5.03
				c-1.36,1.36-3.05,2.05-5.03,2.05h-15.19v3.58l17.83-0.74c0.15-0.01,0.37-0.02,0.59-0.02c1.85,0,3.51,0.64,4.92,1.89
				c1.59,1.42,2.43,3.35,2.43,5.6c0,2.08-0.78,3.96-2.31,5.58c-1.52,1.6-3.4,2.5-5.6,2.67c-19.84,1.43-40.48,2.81-61.36,4.1
				C887.64,915.65,887.41,915.65,887.19,915.65z M1019.91,900.11v-0.34c0-2.36,0.89-4.45,2.64-6.2c0.36-0.36,0.74-0.69,1.14-0.98
				h-14.82v7.52H1019.91z M989.44,900.11v-7.52h-14.01c0.35,0.26,0.69,0.56,1.02,0.88c1.69,1.69,2.54,3.74,2.54,6.1v0.54H989.44z
				 M989.44,878.24v-3.03h-11.28c-0.74,0-1.33,0.23-1.84,0.72c-0.63,0.76-1.3,1.54-2.01,2.31H989.44z M1026.55,860.85v-5.96h-42.51
				c0.45,0.48,0.84,1.04,1.16,1.66c0.74,1.41,1,2.87,0.79,4.3H1026.55z"/>
		</g>
		<g>
			<path class="st3" d="M1116.64,1011.53c-3.03,0-5.62-1.09-7.69-3.25c-2.05-2.13-3.1-4.74-3.1-7.73v-44.24
				c-5.94,10.03-12.1,18.89-18.34,26.38c-1.84,2.17-4.12,3.26-6.81,3.26c-0.34,0-0.69-0.07-1.08-0.23c-2.73-0.24-5.05-1.45-6.88-3.6
				c-1.89-2.36-2.82-5.01-2.82-7.94c0-3.12,1.1-5.88,3.27-8.2c10.89-11.89,20.27-26.46,27.87-43.31h-18.4
				c-2.89,0-5.37-1.02-7.37-3.03c-2.01-2-3.03-4.48-3.03-7.37c0-2.87,1.01-5.37,3-7.44c2.01-2.09,4.5-3.15,7.4-3.15h23.2v-9.91
				c0-3,1.04-5.6,3.1-7.74c1.68-1.75,3.7-2.8,6.03-3.13c-2.44-6.73-5.09-12.86-7.92-18.29l-0.05-0.11c-0.2-0.45-0.39-0.57-0.91-0.57
				h-1.37c-0.49,0-0.84,0.12-1.18,0.73c-3.94,6.96-7.93,13.14-11.87,18.39c-1.88,2.5-4.4,3.94-7.51,4.29
				c-0.63,0.15-1.19,0.22-1.71,0.22c-2.5,0-4.86-0.78-7.02-2.33c-2.35-1.56-3.75-3.82-4.12-6.68c-0.15-0.54-0.23-1.14-0.23-1.78
				c0-2.3,0.82-4.38,2.43-6.18c8.02-10.07,14.81-22.16,20.17-35.95c1.08-2.78,3.02-4.96,5.78-6.49c1.74-0.95,3.57-1.42,5.46-1.42
				c1.08,0,2.12,0.16,3.07,0.46c2.88,0.67,5.07,2.38,6.51,5.1c0.8,1.43,1.21,3.01,1.21,4.65c0,1.15-0.24,2.37-0.71,3.63
				c-0.49,1.26-0.97,2.45-1.44,3.55h37.46c2.75,0,5.13,0.99,7.08,2.93c1.94,1.94,2.93,4.29,2.93,6.98c0,1.71-0.4,3.28-1.19,4.7
				c4.63-7.06,8.65-14.99,11.97-23.67c1.23-3.07,3.24-5.32,6-6.71c1.85-1.07,3.81-1.61,5.83-1.61c0.94,0,1.96,0.15,3.02,0.45
				c3.02,0.66,5.28,2.42,6.72,5.24c0.95,1.47,1.44,3.06,1.44,4.71c0,1.28-0.24,2.57-0.71,3.83l-0.05,0.13
				c-0.47,1.03-0.94,2.11-1.42,3.23H1243c2.6,0,4.91,0.94,6.85,2.8c1.96,1.88,2.96,4.24,2.96,7.01c0,2.77-1,5.13-2.96,7.01
				c-1.94,1.86-4.24,2.8-6.85,2.8h-28.04c2.04,2.8,3.9,5.66,5.56,8.52c0.83,1.5,1.24,3.07,1.24,4.71c0,1.03-0.24,2.13-0.72,3.27
				c-0.98,2.73-2.86,4.69-5.6,5.81c-1.32,0.5-2.64,0.74-3.98,0.74c-1.32,0-2.68-0.23-4.05-0.69l-0.13-0.05
				c-2.65-1.09-4.7-2.97-6.09-5.6c-2.79-4.81-6.3-10.21-10.41-15.99l-0.06-0.1c-0.24-0.39-0.53-0.63-1.24-0.63h-5.86
				c-0.22,0-0.69,0-1.27,0.87c-3.76,6.23-7.63,11.82-11.43,16.55c-1.82,2.43-4.39,3.88-7.6,4.23c-0.52,0.15-1.05,0.23-1.57,0.23
				c-2.77,0-5.27-0.85-7.42-2.53c-2.38-1.61-3.83-3.88-4.31-6.76l-0.03-0.16v-1.34c0-2.46,0.83-4.62,2.47-6.42
				c2.28-2.69,4.45-5.55,6.5-8.58c-0.27,0.34-0.56,0.67-0.88,0.98c-1.94,1.94-4.33,2.93-7.08,2.93h-21.23
				c1.23,2.31,2.41,4.78,3.53,7.36l0.04,0.08l0.03,0.08c0.46,1.37,0.69,2.77,0.69,4.15c0,1.44-0.32,2.9-0.95,4.33
				c-1.02,2.63-2.88,4.63-5.49,5.91v17.85h19.09c2.89,0,5.38,1.06,7.4,3.15c1.99,2.07,3,4.58,3,7.44c0,2.88-1.02,5.36-3.03,7.37
				s-4.49,3.03-7.37,3.03h-19.09c0,0.04,0,0.09,0,0.15v1.76c0,0.92,0.36,1.34,0.67,1.61c5.47,4.82,13.24,11.93,23.11,21.15
				c2.61,2.3,3.96,5.37,3.96,9.08c0,2.82-0.95,5.37-2.83,7.55c-1.95,2.28-4.37,3.43-7.18,3.43h-0.2c-3.09,0-5.68-1.3-7.47-3.75
				c-2.67-3.3-6.06-7.3-10.06-11.87v48.77c0,3.01-1.08,5.62-3.22,7.76C1122.26,1010.45,1119.65,1011.53,1116.64,1011.53z
				 M1169.57,1010.95c-2.88,0-5.43-1.08-7.57-3.22c-2.14-2.14-3.22-4.75-3.22-7.76V906.8c0-5.21,1.87-9.73,5.57-13.43
				s8.21-5.57,13.43-5.57h49.41c5.21,0,9.73,1.87,13.43,5.57s5.57,8.21,5.57,13.43v91.6c0,3.14-1.12,5.85-3.32,8.05
				c-2.21,2.21-4.92,3.32-8.06,3.32h-3.13c-2.23,0-4.19-0.82-5.81-2.44c-1.32-1.32-2.11-2.86-2.36-4.59h-43.03
				c-0.25,2.1-1.14,3.94-2.66,5.47c-1.82,1.82-4.07,2.74-6.69,2.74H1169.57z M1223.43,983.51v-13.38h-42.88v13.38H1223.43z
				 M1223.43,951.87v-12.99h-42.88v12.99H1223.43z M1223.43,920.81v-12.6h-42.88v12.6H1223.43z"/>
			<path class="st25" d="M1116.64,1011.53c-3.03,0-5.62-1.09-7.69-3.25c-2.05-2.13-3.1-4.74-3.1-7.73v-44.24
				c-5.94,10.03-12.1,18.89-18.34,26.38c-1.84,2.17-4.12,3.26-6.81,3.26c-0.34,0-0.69-0.07-1.08-0.23c-2.73-0.24-5.05-1.45-6.88-3.6
				c-1.89-2.36-2.82-5.01-2.82-7.94c0-3.12,1.1-5.88,3.27-8.2c10.89-11.89,20.27-26.46,27.87-43.31h-18.4
				c-2.89,0-5.37-1.02-7.37-3.03c-2.01-2-3.03-4.48-3.03-7.37c0-2.87,1.01-5.37,3-7.44c2.01-2.09,4.5-3.15,7.4-3.15h23.2v-9.91
				c0-3,1.04-5.6,3.1-7.74c1.68-1.75,3.7-2.8,6.03-3.13c-2.44-6.73-5.09-12.86-7.92-18.29l-0.05-0.11c-0.2-0.45-0.39-0.57-0.91-0.57
				h-1.37c-0.49,0-0.84,0.12-1.18,0.73c-3.94,6.96-7.93,13.14-11.87,18.39c-1.88,2.5-4.4,3.94-7.51,4.29
				c-0.63,0.15-1.19,0.22-1.71,0.22c-2.5,0-4.86-0.78-7.02-2.33c-2.35-1.56-3.75-3.82-4.12-6.68c-0.15-0.54-0.23-1.14-0.23-1.78
				c0-2.3,0.82-4.38,2.43-6.18c8.02-10.07,14.81-22.16,20.17-35.95c1.08-2.78,3.02-4.96,5.78-6.49c1.74-0.95,3.57-1.42,5.46-1.42
				c1.08,0,2.12,0.16,3.07,0.46c2.88,0.67,5.07,2.38,6.51,5.1c0.8,1.43,1.21,3.01,1.21,4.65c0,1.15-0.24,2.37-0.71,3.63
				c-0.49,1.26-0.97,2.45-1.44,3.55h37.46c2.75,0,5.13,0.99,7.08,2.93c1.94,1.94,2.93,4.29,2.93,6.98c0,1.71-0.4,3.28-1.19,4.7
				c4.63-7.06,8.65-14.99,11.97-23.67c1.23-3.07,3.24-5.32,6-6.71c1.85-1.07,3.81-1.61,5.83-1.61c0.94,0,1.96,0.15,3.02,0.45
				c3.02,0.66,5.28,2.42,6.72,5.24c0.95,1.47,1.44,3.06,1.44,4.71c0,1.28-0.24,2.57-0.71,3.83l-0.05,0.13
				c-0.47,1.03-0.94,2.11-1.42,3.23H1243c2.6,0,4.91,0.94,6.85,2.8c1.96,1.88,2.96,4.24,2.96,7.01c0,2.77-1,5.13-2.96,7.01
				c-1.94,1.86-4.24,2.8-6.85,2.8h-28.04c2.04,2.8,3.9,5.66,5.56,8.52c0.83,1.5,1.24,3.07,1.24,4.71c0,1.03-0.24,2.13-0.72,3.27
				c-0.98,2.73-2.86,4.69-5.6,5.81c-1.32,0.5-2.64,0.74-3.98,0.74c-1.32,0-2.68-0.23-4.05-0.69l-0.13-0.05
				c-2.65-1.09-4.7-2.97-6.09-5.6c-2.79-4.81-6.3-10.21-10.41-15.99l-0.06-0.1c-0.24-0.39-0.53-0.63-1.24-0.63h-5.86
				c-0.22,0-0.69,0-1.27,0.87c-3.76,6.23-7.63,11.82-11.43,16.55c-1.82,2.43-4.39,3.88-7.6,4.23c-0.52,0.15-1.05,0.23-1.57,0.23
				c-2.77,0-5.27-0.85-7.42-2.53c-2.38-1.61-3.83-3.88-4.31-6.76l-0.03-0.16v-1.34c0-2.46,0.83-4.62,2.47-6.42
				c2.28-2.69,4.45-5.55,6.5-8.58c-0.27,0.34-0.56,0.67-0.88,0.98c-1.94,1.94-4.33,2.93-7.08,2.93h-21.23
				c1.23,2.31,2.41,4.78,3.53,7.36l0.04,0.08l0.03,0.08c0.46,1.37,0.69,2.77,0.69,4.15c0,1.44-0.32,2.9-0.95,4.33
				c-1.02,2.63-2.88,4.63-5.49,5.91v17.85h19.09c2.89,0,5.38,1.06,7.4,3.15c1.99,2.07,3,4.58,3,7.44c0,2.88-1.02,5.36-3.03,7.37
				s-4.49,3.03-7.37,3.03h-19.09c0,0.04,0,0.09,0,0.15v1.76c0,0.92,0.36,1.34,0.67,1.61c5.47,4.82,13.24,11.93,23.11,21.15
				c2.61,2.3,3.96,5.37,3.96,9.08c0,2.82-0.95,5.37-2.83,7.55c-1.95,2.28-4.37,3.43-7.18,3.43h-0.2c-3.09,0-5.68-1.3-7.47-3.75
				c-2.67-3.3-6.06-7.3-10.06-11.87v48.77c0,3.01-1.08,5.62-3.22,7.76C1122.26,1010.45,1119.65,1011.53,1116.64,1011.53z
				 M1169.57,1010.95c-2.88,0-5.43-1.08-7.57-3.22c-2.14-2.14-3.22-4.75-3.22-7.76V906.8c0-5.21,1.87-9.73,5.57-13.43
				s8.21-5.57,13.43-5.57h49.41c5.21,0,9.73,1.87,13.43,5.57s5.57,8.21,5.57,13.43v91.6c0,3.14-1.12,5.85-3.32,8.05
				c-2.21,2.21-4.92,3.32-8.06,3.32h-3.13c-2.23,0-4.19-0.82-5.81-2.44c-1.32-1.32-2.11-2.86-2.36-4.59h-43.03
				c-0.25,2.1-1.14,3.94-2.66,5.47c-1.82,1.82-4.07,2.74-6.69,2.74H1169.57z M1223.43,983.51v-13.38h-42.88v13.38H1223.43z
				 M1223.43,951.87v-12.99h-42.88v12.99H1223.43z M1223.43,920.81v-12.6h-42.88v12.6H1223.43z"/>
		</g>
	</g>
</g>
</svg>
