<?xml version="1.0" encoding="utf-8"?>
<!-- Generator: Adobe Illustrator 23.0.5, SVG Export Plug-In . SVG Version: 6.00 Build 0)  -->
<svg version="1.1" id="圖層_1" xmlns="http://www.w3.org/2000/svg" xmlns:xlink="http://www.w3.org/1999/xlink" x="0px" y="0px"
	 viewBox="0 0 1920 1080" style="enable-background:new 0 0 1920 1080;" xml:space="preserve">
<style type="text/css">
	.st0{fill:#F4B54B;}
	.st1{fill:#535655;}
	.st2{fill:#834F31;}
	.st3{fill:#FFFFFF;}
	.st4{fill:none;stroke:#663D28;stroke-width:2;stroke-miterlimit:10;}
	.st5{fill:#96873C;}
	.st6{fill:#895237;}
	.st7{fill:#F8D183;}
	.st8{fill:#857D75;}
	.st9{fill:#D4C9B6;}
	.st10{fill:#FCCB4F;}
	.st11{fill:#3B190C;}
	.st12{fill:#9FA09C;}
	.st13{fill:#523D52;}
	.st14{fill:#B96922;}
	.st15{fill:#C29869;}
	.st16{fill:#A4A796;}
	.st17{fill:#654B4B;}
	.st18{fill:#B1B4A1;}
	.st19{fill:#704A48;}
	.st20{fill:#4A3D50;}
	.st21{fill:#ACAF9F;}
	.st22{fill:#4C3E54;}
	.st23{fill:#848889;}
	.st24{fill:#C48C3B;}
</style>
<g>
	<path class="st0" d="M1870,823.12c0,64.59-225.04,114.23-478.24,170.08c-153.1,33.77-361.93,78.32-627.1,62.5
		C445.25,1036.65,47.66,930.19,51,834.4c3.44-98.73,431.75-157.24,525.75-170.08C1213.49,577.33,1870,712.81,1870,823.12z"/>
	<g>
		<g>
			<path class="st1" d="M443.61,749.35H216.75c25.51-31.17,51.02-62.35,76.53-93.52c29.15,0,58.31,0,87.46,0
				C401.7,687.01,422.65,718.18,443.61,749.35z"/>
			<path class="st1" d="M1460.38,740.45h-226.86c25.51-31.17,51.02-62.35,76.53-93.52c29.15,0,58.31,0,87.46,0
				C1418.47,678.1,1439.43,709.27,1460.38,740.45z"/>
			<rect x="328.81" y="368.6" class="st2" width="1060.51" height="325.09"/>
			<path class="st1" d="M1424.85,319.61c-42.82,0-85.64,0-128.46,0v2.48c-336.19,0.66-672.38,1.32-1008.57,1.98
				c0,0.74,0,1.48,0,2.23c0,26.72,0,53.44,0,80.16v302.82h103.86V399.75c52.3-3.36,105.15-6.33,158.53-8.88
				c258.77-12.36,507.83-13.75,746.18-6.72V711.5h109.33c5.26-107.63,10.51-215.26,15.76-322.89c0.21,0.01,0.42,0.02,0.64,0.03
				c0.91-22.27,1.82-44.53,2.73-66.8c-0.04,0-0.07,0-0.11,0C1424.78,321.1,1424.81,320.35,1424.85,319.61z"/>
			<ellipse class="st3" cx="352.04" cy="414.24" rx="15.03" ry="12.25"/>
			<ellipse class="st3" cx="352.04" cy="521.12" rx="15.03" ry="12.25"/>
			<ellipse class="st3" cx="352.04" cy="648.04" rx="15.03" ry="12.25"/>
			<ellipse class="st3" cx="1333.29" cy="403.11" rx="15.03" ry="12.25"/>
			<ellipse class="st3" cx="1333.29" cy="509.99" rx="15.03" ry="12.25"/>
			<ellipse class="st3" cx="1333.29" cy="636.91" rx="15.03" ry="12.25"/>
			<path class="st3" d="M517.74,370.82H339.41c-1.32,0-2.4-1.08-2.4-2.4V346.5c0-1.32,1.08-2.4,2.4-2.4h178.33
				c1.32,0,2.4,1.08,2.4,2.4v21.92C520.14,369.74,519.06,370.82,517.74,370.82z"/>
			<line class="st4" x1="391.68" y1="485.43" x2="1299.12" y2="485.43"/>
			<line class="st4" x1="391.68" y1="583.21" x2="1296.39" y2="583.21"/>
			<path class="st5" d="M947.47,501.05c-26.45,4.1-60.58,7.71-100.47,7.83c-41.64,0.12-77.14-3.62-104.34-7.83
				c-1.29-53.06-2.58-106.11-3.86-159.17c74.71,0.87,149.42,1.74,224.13,2.61C957.78,396.67,952.62,448.86,947.47,501.05z"/>
		</g>
		<path class="st6" d="M1421.65,326.72c-379.77,0.6-759.53,1.2-1139.3,1.8c1.11-35.06,7.58-82.63,30.05-136.55
			c22.03-52.85,52.21-94.49,77.62-123.97c308.82,0,617.64,0,926.46,0c25.31,26.13,57.82,65.94,80.13,118.58
			C1420.85,243.79,1423.49,293.61,1421.65,326.72z"/>
		<g>
			<rect x="293.71" y="259.49" class="st7" width="1131.13" height="62.35"/>
			<rect x="282.35" y="255.04" class="st8" width="119.37" height="69.03"/>
			<rect x="1305.48" y="257.27" class="st8" width="119.37" height="69.03"/>
			<path class="st9" d="M1197.85,332.97h-23.47c-1.36,0-2.48-1.11-2.48-2.48v-79.66c0-1.36,1.11-2.48,2.48-2.48h23.47
				c1.36,0,2.48,1.11,2.48,2.48v79.66C1200.33,331.86,1199.21,332.97,1197.85,332.97z"/>
			<path class="st10" d="M859.28,230.55h-14.21c-18.76,0-34.1,12.02-34.1,26.72v82.39c0,14.7,15.35,26.72,34.1,26.72h14.21
				c18.76,0,34.1-12.02,34.1-26.72v-82.39C893.39,242.57,878.04,230.55,859.28,230.55z M873.49,279.53
				c0,9.8-10.23,17.81-22.74,17.81s-22.74-8.02-22.74-17.81v-17.81c0-9.8,10.23-17.81,22.74-17.81s22.74,8.02,22.74,17.81V279.53z"
				/>
			<ellipse class="st11" cx="850.76" cy="321.84" rx="17.05" ry="13.36"/>
			<path class="st9" d="M598.18,332.97h-23.47c-1.36,0-2.48-1.11-2.48-2.48v-79.66c0-1.36,1.11-2.48,2.48-2.48h23.47
				c1.36,0,2.48,1.11,2.48,2.48v79.66C600.66,331.86,599.54,332.97,598.18,332.97z"/>
		</g>
		<path class="st4" d="M356.14,122.48c333.46,0.39,666.92,0.79,1000.37,1.18"/>
		<path class="st4" d="M304.21,212.73c367.17,0.74,734.34,1.48,1101.5,2.23"/>
	</g>
	<g>
		<path class="st12" d="M288.54,988.08c-8.8-0.68-17.6-1.37-26.39-2.05c-1.52-3.22-5-11.7-3.17-22.54
			c2.14-12.67,10.13-20.3,12.67-22.54c2.99-3.2,9.21-8.97,19-12.3c14.22-4.84,26.58-1.33,30.62,0
			C310.36,948.47,299.45,968.28,288.54,988.08z"/>
		<path class="st13" d="M366.66,979.89c-25.69,2.73-51.38,5.46-77.07,8.2c10.56-19.81,21.11-39.62,31.67-59.43
			c6.11,2.14,17.27,6.96,27.45,17.42C361.46,959.17,365.36,973.6,366.66,979.89z"/>
	</g>
	<g>
		<g>
			<path class="st14" d="M402.72,940.04c10.16-4.27,21.62-5.56,32.52-3.68c5.81,1,11.42,2.88,17.01,4.75c2.38,0.8,5.08,1.9,5.8,4.24
				c0.99,3.19-2.49,6.1-5.82,6.89c-7.46,1.78-14.98-1.9-22.26-4.29c-6.67-2.18-13.7-3.32-20.73-3.35c-1.42-0.01-2.9,0.02-4.18-0.58
				c-1.28-0.6-2.27-2.05-1.79-3.35"/>
		</g>
		<g>
			<path class="st14" d="M373.22,928.72c7.58-2.36,16.64,1.1,20.52,7.85c0.25,0.43,0.48,0.9,0.42,1.39
				c-0.13,1.01-1.38,1.46-2.43,1.57c-4.92,0.52-9.71-1.5-14.22-3.48c-1.67-0.73-3.41-1.52-4.51-2.95s-1.27-3.69,0.13-4.84"/>
		</g>
		<g>
			<path class="st14" d="M390.44,990.04c9.59-0.69,19.37,1.35,27.81,5.82c-6.67,3.1-14.12,4.6-21.5,4.33
				c-3.4-0.13-7.2-0.86-9.11-3.6c-1.9-2.74,0.22-7.62,3.55-6.93"/>
		</g>
		<g>
			<path class="st14" d="M428.33,899.15c6.61-1.87,13.56-2.6,20.43-2.14c3.51,0.23,7.72,1.38,8.56,4.69
				c0.65,2.59-1.33,5.26-3.82,6.39c-2.49,1.13-5.35,1.09-8.1,1.04c-4.01-0.08-8.01-0.17-12.02-0.25c-3.09-0.06-6.98-0.69-7.77-3.6
				c-0.7-2.56,1.62-4.88,3.71-6.57"/>
		</g>
		<g>
			<path class="st14" d="M238.38,904.92c5.03-0.86,10.19-1.03,15.28-0.51c3.04,0.31,6.53,1.23,7.69,3.98
				c1.07,2.55-0.53,5.54-2.82,7.15c-3.56,2.5-8.46,2.55-12.63,1.19c-4.16-1.37-7.76-3.97-11.27-6.52c-0.41-0.3-0.85-0.66-0.88-1.15
				c-0.03-0.61,0.57-1.05,1.1-1.37c1.47-0.88,2.93-1.76,4.4-2.64"/>
		</g>
		<g>
			<path class="st14" d="M104.51,814.08c6.28-0.59,12.6-0.69,18.89-0.3c1.41,0.09,2.91,0.24,3.99,1.11c2.08,1.69,1.3,5.2-0.81,6.85
				c-2.11,1.64-4.99,1.93-7.69,2.15c-4.25,0.35-8.51,0.7-12.76,1.05c-1.67,0.14-3.48,0.25-4.9-0.63c-2.2-1.37-2.38-4.61-1.07-6.81
				c1.31-2.2,3.65-3.59,5.89-4.89"/>
		</g>
		<g>
			<path class="st14" d="M669.6,993.45c2.69-0.37,5.19-1.85,6.76-4.01c0.64-0.89,1.15-1.89,2.01-2.59c1.06-0.86,2.5-1.11,3.88-1.28
				c5.12-0.61,10.62-0.34,14.95,2.38c4.33,2.72,6.91,8.47,4.63,12.96c-1.65,3.22-5.38,5.07-9.06,5.43
				c-3.69,0.36-7.38-0.55-10.92-1.59c-4.35-1.28-8.85-2.93-11.71-6.36c-1.36-1.63-1.68-4.83,0.45-5.15"/>
		</g>
		<g>
			<path class="st14" d="M839.31,904.39c3.48-6.13,10.57-10.2,17.79-10.11c7.22,0.09,14.24,4.37,17.36,10.68
				c0.8,1.62,1.37,3.41,1.13,5.19c-0.7,5.2-7.29,7.24-12.67,7.73c-5.33,0.49-10.9,0.58-15.8-1.52c-4.9-2.1-8.92-6.9-8.45-12.07"/>
		</g>
	</g>
	<path class="st15" d="M629.53,1020.87c-19.35-1.71-38.71-3.42-58.06-5.12c-0.34-0.26-7.5-5.84-6.33-14.34
		c0.84-6.12,5.4-9.57,6.33-10.25c19.35,0,38.71,0,58.06,0c1.48,2.16,3.41,5.64,4.22,10.25
		C635.46,1011.07,630.96,1018.65,629.53,1020.87z"/>
	<g>
		<path class="st16" d="M375.11,769.85c-83.75-1.71-167.51-3.42-251.26-5.12c2.32-5.48,6.26-13.65,12.67-22.54
			c15.84-21.97,27.73-21.95,44.34-42.01c17.84-21.54,11.27-30.19,25.34-37.91c14.42-7.92,24.23-0.44,45.4-10.25
			c13.06-6.05,13.93-11.04,22.17-14.34c11.85-4.76,32.29-3.39,69.68,26.64c8.12,3.76,18.22,10.03,26.39,20.49
			C396.9,719.49,376.5,766.74,375.11,769.85z"/>
		<path class="st17" d="M374.05,769.85c-36.95-0.68-73.9-1.37-110.85-2.05c0.35-5.93,1.55-14.27,5.28-23.57
			c4.93-12.29,12.07-20.75,16.89-25.61c9.22-5.53,22.51-11.38,38.01-10.25c17.43,1.27,26.88,10.58,35.89,6.15
			c5.05-2.48,10.34-9.45,10.56-29.71c4.73,7.31,16.39,27.58,13.72,54.3C382.22,752.49,377.73,763.01,374.05,769.85z"/>
	</g>
	<g>
		<path class="st17" d="M509.18,819.03c-9.69,3.27-23.42,6.71-40.12,7.17c-24.94,0.69-44.61-5.62-55.95-10.25
			c-10.91-23.22-21.82-46.45-32.73-69.67c46.8,4.78,93.61,9.56,140.41,14.34c4.54,6.26,10.71,15.91,15.84,28.69
			c4.86,12.12,7.6,19.22,4.22,24.59C536.51,820.82,523.54,822.42,509.18,819.03z"/>
		<path class="st18" d="M413.11,815.95c-9.44-7.62-23.1-16.87-41.17-23.57c-24.25-8.98-38.51-6.7-42.23-14.34
			c-3.56-7.32,3.22-22.33,44.34-55.33c10.94-5.26,21.03-7.92,29.56-9.22c60.38-9.24,109.19,38.99,117.18,47.13
			c-8.01-1-19.22-2.21-32.73-3.07c-19.52-1.25-23.65-0.48-27.45,1.02c-8.44,3.35-12.08,9.08-23.23,24.59
			C432.02,790.64,423.78,801.96,413.11,815.95z"/>
	</g>
	<g>
		<path class="st19" d="M769.94,862.06c-28.15-0.68-56.3-1.37-84.46-2.05c-1.76-14.69-3.52-29.37-5.28-44.06
			c10.74-5.05,38.53-16.26,70.73-8.2c9.22,2.31,16.97,5.73,23.23,9.22c-1.87,7.15-3.53,15.78-4.22,25.61
			C769.44,849.75,769.54,856.29,769.94,862.06z"/>
		<path class="st18" d="M702.38,862.06c-20.96-2-37.36-6.47-48.56-10.25c-14.3-4.83-33.7-11.37-33.78-20.49
			c-0.04-4.59,4.83-8.05,9.5-11.27c15.71-10.83,33.99-11.08,44.34-10.25c2.69-3.04,18.86-20.71,45.4-21.52
			c34.33-1.05,53.84,27.11,54.9,28.69c-5.69-2.74-13.92-5.5-22.17-3.07c-10.48,3.08-13.98,12.48-26.39,26.64
			C720.61,846.24,713.07,853.97,702.38,862.06z"/>
	</g>
	<g>
		<path class="st20" d="M1287.24,709.4c-10.9,9.42-27.71,21.93-50.67,31.76c-6.71,2.88-25.38,11.62-70.73,16.39
			c-23.48,2.47-54.67,4.85-91.85,5.12c-1.15-5.37-2.22-13.26-1.06-22.54c1.97-15.71,9.18-26.16,12.91-32.6
			c6.86-11.87,13.63-30.47,12.43-59.61c21.47-10.59,42.93-21.17,64.4-31.76C1204.2,647.24,1245.72,678.32,1287.24,709.4z"/>
		<path class="st21" d="M1073.99,762.67c-20.32-1.66-46.91-6.08-76.01-17.42c-14.63-5.7-27.3-12.14-38.01-18.44
			c3.61-3.78,9.59-9.55,17.95-15.37c15.24-10.62,21.38-9.56,29.56-18.44c7.97-8.66,5.66-13.49,13.72-25.61
			c7.04-10.59,15.76-17.38,22.17-21.52c17.41-13.64,33.73-21.78,45.4-26.64c18.48-7.7,35-14.33,54.9-10.25
			c8.29,1.7,14.74,4.76,19,7.17c-12.2,3.5-29.16,10.5-36.95,25.61c-9.13,17.73,3.5,28.82-5.28,48.16
			c-9.3,20.48-28.45,19-40.12,42.01C1074.41,743.59,1073.72,755.04,1073.99,762.67z"/>
	</g>
	<g>
		<path class="st22" d="M1403.37,772.92c-1.35,4.89-7.8,11.62-64.4,17.42c-29.24,3-53.62,3.87-70.73,4.1
			c-5.11-11.09-14.41-35.25-11.61-66.6c2.98-33.39,18.05-56.7,25.34-66.6c7.82,2.18,20.23,6.7,32.73,16.39
			c9.72,7.54,16.1,15.59,20.06,21.52c11.71,10.06,28.35,24.91,47.51,44.06C1400.78,761.71,1404.88,767.47,1403.37,772.92z"/>
		<path class="st21" d="M1268.24,794.44c-10.55-0.81-23.11-2.57-36.95-6.15c-16.63-4.3-30.45-10.03-41.17-15.37
			c3.21-13.85,8.59-31.26,17.95-50.21c8.85-17.92,18.78-32.23,27.45-43.03c4.17-4.32,13.25-12.5,27.45-16.39
			c7.51-2.06,14.17-2.29,19-2.05c3.08,7.47,5.95,18.08,1.06,26.64c-4.01,7.02-10.32,7.54-15.84,14.34
			c-6.74,8.33-6.25,18.59-5.28,31.76C1263.23,751.82,1265.21,772.08,1268.24,794.44z"/>
	</g>
	<g>
		<path class="st23" d="M1772.91,321.34l-49.82-22.04c-4.06-1.8-5.46-5.81-3.12-8.92l3.55-4.71c2.34-3.11,7.58-4.19,11.64-2.39
			l49.82,22.04c4.06,1.8,5.46,5.81,3.12,8.92l-3.55,4.71C1782.21,322.06,1776.97,323.13,1772.91,321.34z"/>
		<g>
			<path class="st23" d="M1706.46,291.16c4.26-4.35,5.74-6.2,11.26-9.92c5.21-3.51,14.36-5.54,18.31-1.17
				c2.73,3.03,1.02,7.14-0.78,10.55c-8.05,15.31-16.1,30.62-24.15,45.93c-3.22,6.12-6.48,12.39-6.92,18.98
				c-0.44,6.59,2.44,13.69,9.41,17.57c9.24,5.14,22.84,2.98,31.65-2.6c8.81-5.57,13.95-13.76,18.82-21.67
				c7.44-12.08,14.87-24.16,22.31-36.23c2.05-3.33,4.92-7.12,9.7-7.45c4.4-0.31,8.23,2.77,9.18,6.08c0.95,3.31-0.23,6.73-1.49,9.98
				c-7.57,19.5-18.05,38.34-31.18,56.03c-5.17,6.96-10.99,13.95-19.65,18.44c-11.64,6.03-26.52,6.64-40.56,7.04
				c-7.79,0.22-17.66-0.6-20.08-6.27c-1.4-3.3,0.56-6.93-0.2-10.36c-0.79-3.57-4.35-6.33-6.95-9.35c-7.49-8.73-7.1-20.05-5.01-30.37
				c3.93-19.43,12.95-38.25,26.36-55.01"/>
		</g>
		<path class="st24" d="M1527.65,732.91l27.32,7.23c59.47-114.42,118.93-228.84,178.4-343.26c-13.26-3.66-26.52-7.31-39.78-10.97
			C1638.27,501.57,1582.96,617.24,1527.65,732.91z"/>
	</g>
	<path class="st23" d="M1490.84,694.12c-37.44,74.97-40.58,147.87-6.32,164.87c34.25,16.99,93.3-28.17,134-101.52L1490.84,694.12z"
		/>
	<g>
		<path class="st0" d="M1429.57,763.03c6.38,16.11,25.5,24.01,43.21,25.48c17.72,1.47,35.65-1.7,53.29,0.46
			c18.63,2.28,36.4,10.67,49.76,23.47c8.07,7.74,14.5,16.96,22.66,24.61c8.16,7.65,18.79,13.83,30.11,13.22
			c-11.71,15.09-23.42,30.18-35.14,45.27c-5.6,7.22-12.01,14.95-21.13,16.74c-5.2,1.02-10.57-0.08-15.75-1.21
			c-47.39-10.36-94.1-23.67-139.74-39.81c-6.78-2.4-14.34-5.63-16.62-12.28c-1.61-4.69-0.07-9.79,1.48-14.5
			c8.5-25.82,17.39-51.53,26.65-77.1"/>
	</g>
</g>
</svg>
