<?xml version="1.0" encoding="utf-8"?>
<!-- Generator: Adobe Illustrator 23.0.5, SVG Export Plug-In . SVG Version: 6.00 Build 0)  -->
<svg version="1.1" id="圖層_1" xmlns="http://www.w3.org/2000/svg" xmlns:xlink="http://www.w3.org/1999/xlink" x="0px" y="0px"
	 viewBox="0 0 1920 1080" style="enable-background:new 0 0 1920 1080;" xml:space="preserve">
<style type="text/css">
	.st0{fill:#9A7042;}
	.st1{fill:#74B238;}
	.st2{fill:#585862;}
	.st3{fill:#4E4357;}
	.st4{fill:#3D2E4D;}
	.st5{fill:#F9F9BC;}
	.st6{fill:#759A9E;}
	.st7{fill:#E9A660;}
	.st8{fill:#E4A150;stroke:#522011;stroke-width:3;stroke-miterlimit:10;}
	.st9{fill:#AE7154;stroke:#371C0A;stroke-width:3;stroke-miterlimit:10;}
	.st10{fill:#6A5443;}
	.st11{fill:#62FAFC;}
</style>
<g>
	<g>
		<rect x="615.66" y="292.77" class="st0" width="37.14" height="219.91"/>
		<g>
			<path class="st1" d="M612.36,361.95c-10.65,4.76-23.38,0.86-32.47-6.67c-9.09-7.53-15.3-18.15-21.31-28.54
				c-4.54-7.85-9.2-16.03-10.12-25.16c-0.92-9.13,3.04-19.5,11.24-22.69c-19.87-16.89-22.09-52.09-4.5-71.57
				c8.9-9.86,24.89-15.08,34.6-6.09c7.53-12.65,19.39-23.81,33.56-24.74c14.17-0.93,29.13,12.49,26.34,27.11
				c13.71-9.01,32.22-12.29,45.9-3.21s17.61,32.86,4.72,43.12c7.84,0.8,15.97,1.69,22.75,5.91s11.79,12.78,9.62,20.73
				c-3.44,12.61-21.16,15.39-25.56,27.66c5.4,2.3,10.8,4.59,16.21,6.89c-5.84,12.9-17.18,22.93-30.28,26.77
				c7.84,4.37,6.07,17.88-1.09,23.38c-7.16,5.5-16.79,5.33-25.66,4.93c-20.21-0.91-40.42-1.82-60.63-2.74"/>
		</g>
	</g>
	<g>
		<rect x="1034.38" y="182.82" class="st0" width="37.14" height="219.91"/>
		<g>
			<path class="st1" d="M1031.08,251.99c-10.65,4.76-23.38,0.86-32.47-6.67c-9.09-7.53-15.3-18.15-21.31-28.54
				c-4.54-7.85-9.2-16.03-10.12-25.16c-0.92-9.13,3.04-19.5,11.24-22.69c-19.87-16.89-22.09-52.09-4.5-71.57
				c8.9-9.86,24.89-15.08,34.6-6.09c7.53-12.65,19.39-23.81,33.56-24.74c14.17-0.93,29.13,12.49,26.34,27.11
				c13.71-9.01,32.22-12.29,45.9-3.21c13.68,9.07,17.61,32.86,4.72,43.12c7.84,0.8,15.97,1.69,22.75,5.91s11.79,12.78,9.62,20.73
				c-3.44,12.61-21.16,15.39-25.56,27.66c5.4,2.3,10.8,4.59,16.21,6.89c-5.84,12.9-17.18,22.93-30.28,26.77
				c7.84,4.37,6.07,17.88-1.09,23.38c-7.16,5.5-16.79,5.33-25.66,4.93c-20.21-0.91-40.42-1.82-60.63-2.74"/>
		</g>
	</g>
	<g>
		<rect x="1264" y="200.55" class="st0" width="37.14" height="219.91"/>
		<g>
			<path class="st1" d="M1260.7,269.73c-10.65,4.76-23.38,0.86-32.47-6.67c-9.09-7.53-15.3-18.15-21.31-28.54
				c-4.54-7.85-9.2-16.03-10.12-25.16c-0.92-9.13,3.04-19.5,11.24-22.69c-19.87-16.89-22.09-52.09-4.5-71.57
				c8.9-9.86,24.89-15.08,34.6-6.09c7.53-12.65,19.39-23.81,33.56-24.74c14.17-0.93,29.13,12.49,26.34,27.11
				c13.71-9.01,32.22-12.29,45.9-3.21c13.68,9.07,17.61,32.86,4.72,43.12c7.84,0.8,15.97,1.69,22.75,5.91s11.79,12.78,9.62,20.73
				c-3.44,12.61-21.16,15.39-25.56,27.66c5.4,2.3,10.8,4.59,16.21,6.89c-5.84,12.9-17.18,22.93-30.28,26.77
				c7.84,4.37,6.07,17.88-1.09,23.38c-7.16,5.5-16.79,5.33-25.66,4.93c-20.21-0.91-40.42-1.82-60.63-2.74"/>
		</g>
	</g>
	<g>
		<rect x="848.65" y="310.51" class="st0" width="37.14" height="219.91"/>
		<g>
			<path class="st1" d="M845.36,379.68c-10.65,4.76-23.38,0.86-32.47-6.67c-9.09-7.53-15.3-18.15-21.31-28.54
				c-4.54-7.85-9.2-16.03-10.12-25.16c-0.92-9.13,3.04-19.5,11.24-22.69c-19.87-16.89-22.09-52.09-4.5-71.57
				c8.9-9.86,24.89-15.08,34.6-6.09c7.53-12.65,19.39-23.81,33.56-24.74c14.17-0.93,29.13,12.49,26.34,27.11
				c13.71-9.01,32.22-12.29,45.9-3.21c13.68,9.07,17.61,32.86,4.72,43.12c7.84,0.8,15.97,1.69,22.75,5.91
				c6.78,4.22,11.79,12.78,9.62,20.73c-3.44,12.61-21.16,15.39-25.56,27.66c5.4,2.3,10.8,4.59,16.21,6.89
				c-5.84,12.9-17.18,22.93-30.28,26.77c7.84,4.37,6.07,17.88-1.09,23.38c-7.16,5.5-16.79,5.33-25.66,4.93
				c-20.21-0.91-40.42-1.82-60.63-2.74"/>
		</g>
	</g>
	<g>
		<rect x="413.05" y="161.54" class="st0" width="37.14" height="219.91"/>
		<g>
			<path class="st1" d="M409.75,230.71c-10.65,4.76-23.38,0.86-32.47-6.67s-15.3-18.15-21.31-28.54
				c-4.54-7.85-9.2-16.03-10.12-25.16c-0.92-9.13,3.04-19.5,11.24-22.69c-19.87-16.89-22.09-52.09-4.5-71.57
				c8.9-9.86,24.89-15.08,34.6-6.09c7.53-12.65,19.39-23.81,33.56-24.74s29.13,12.49,26.34,27.11c13.71-9.01,32.22-12.29,45.9-3.21
				c13.68,9.07,17.61,32.86,4.72,43.12c7.84,0.8,15.97,1.69,22.75,5.91s11.79,12.78,9.62,20.73c-3.44,12.61-21.16,15.39-25.56,27.66
				c5.4,2.3,10.8,4.59,16.21,6.89c-5.84,12.9-17.18,22.93-30.28,26.77c7.84,4.37,6.07,17.88-1.09,23.38
				c-7.16,5.5-16.79,5.33-25.66,4.93c-20.21-0.91-40.42-1.82-60.63-2.74"/>
		</g>
	</g>
	<g>
		<rect x="1358.55" y="395.63" class="st0" width="37.14" height="219.91"/>
		<g>
			<path class="st1" d="M1355.25,464.81c-10.65,4.76-23.38,0.86-32.47-6.67c-9.09-7.53-15.3-18.15-21.31-28.54
				c-4.54-7.85-9.2-16.03-10.12-25.16c-0.92-9.13,3.04-19.5,11.24-22.69c-19.87-16.89-22.09-52.09-4.5-71.57
				c8.9-9.86,24.89-15.08,34.6-6.09c7.53-12.65,19.39-23.81,33.56-24.74s29.13,12.49,26.34,27.11c13.71-9.01,32.22-12.29,45.9-3.21
				c13.68,9.07,17.61,32.86,4.72,43.12c7.84,0.8,15.97,1.69,22.75,5.91s11.79,12.78,9.62,20.73c-3.44,12.61-21.16,15.39-25.56,27.66
				c5.4,2.3,10.8,4.59,16.21,6.89c-5.84,12.9-17.18,22.93-30.28,26.77c7.84,4.37,6.07,17.88-1.09,23.38s-16.79,5.33-25.66,4.93
				c-20.21-0.91-40.42-1.82-60.63-2.74"/>
		</g>
	</g>
	<g>
		<rect x="1497" y="328.24" class="st0" width="37.14" height="219.91"/>
		<g>
			<path class="st1" d="M1493.7,397.42c-10.65,4.76-23.38,0.86-32.47-6.67c-9.09-7.53-15.3-18.15-21.31-28.54
				c-4.54-7.85-9.2-16.03-10.12-25.16s3.04-19.5,11.24-22.69c-19.87-16.89-22.09-52.09-4.5-71.57c8.9-9.86,24.89-15.08,34.6-6.09
				c7.53-12.65,19.39-23.81,33.56-24.74c14.17-0.93,29.13,12.49,26.34,27.11c13.71-9.01,32.22-12.29,45.9-3.21
				c13.68,9.07,17.61,32.86,4.72,43.12c7.84,0.8,15.97,1.69,22.75,5.91s11.79,12.78,9.62,20.73c-3.44,12.61-21.16,15.39-25.56,27.66
				c5.4,2.3,10.8,4.59,16.21,6.89c-5.84,12.9-17.18,22.93-30.28,26.77c7.84,4.37,6.07,17.88-1.09,23.38
				c-7.16,5.5-16.79,5.33-25.66,4.93c-20.21-0.91-40.42-1.82-60.63-2.74"/>
		</g>
	</g>
	<g>
		<rect x="1581.42" y="200.55" class="st0" width="37.14" height="219.91"/>
		<g>
			<path class="st1" d="M1578.12,269.73c-10.65,4.76-23.38,0.86-32.47-6.67c-9.09-7.53-15.3-18.15-21.31-28.54
				c-4.54-7.85-9.2-16.03-10.12-25.16c-0.92-9.13,3.04-19.5,11.24-22.69c-19.87-16.89-22.09-52.09-4.5-71.57
				c8.9-9.86,24.89-15.08,34.6-6.09c7.53-12.65,19.39-23.81,33.56-24.74c14.17-0.93,29.13,12.49,26.34,27.11
				c13.71-9.01,32.22-12.29,45.9-3.21s17.61,32.86,4.72,43.12c7.84,0.8,15.97,1.69,22.75,5.91s11.79,12.78,9.62,20.73
				c-3.44,12.61-21.16,15.39-25.56,27.66c5.4,2.3,10.8,4.59,16.21,6.89c-5.84,12.9-17.18,22.93-30.28,26.77
				c7.84,4.37,6.07,17.88-1.09,23.38c-7.16,5.5-16.79,5.33-25.66,4.93c-20.21-0.91-40.42-1.82-60.63-2.74"/>
		</g>
	</g>
	<g>
		<rect x="1662.46" y="420.46" class="st0" width="37.14" height="219.91"/>
		<g>
			<path class="st1" d="M1659.16,489.64c-10.65,4.76-23.38,0.86-32.47-6.67c-9.09-7.53-15.3-18.15-21.31-28.54
				c-4.54-7.85-9.2-16.03-10.12-25.16c-0.92-9.13,3.04-19.5,11.24-22.69c-19.87-16.89-22.09-52.09-4.5-71.57
				c8.9-9.86,24.89-15.08,34.6-6.09c7.53-12.65,19.39-23.81,33.56-24.74c14.17-0.93,29.13,12.49,26.34,27.11
				c13.71-9.01,32.22-12.29,45.9-3.21c13.68,9.07,17.61,32.86,4.72,43.12c7.84,0.8,15.97,1.69,22.75,5.91
				c6.78,4.22,11.79,12.78,9.62,20.73c-3.44,12.61-21.16,15.39-25.56,27.66c5.4,2.3,10.8,4.59,16.21,6.89
				c-5.84,12.9-17.18,22.93-30.28,26.77c7.84,4.37,6.07,17.88-1.09,23.38c-7.16,5.5-16.79,5.33-25.66,4.93
				c-20.21-0.91-40.42-1.82-60.63-2.74"/>
		</g>
	</g>
	<g>
		<rect x="507.6" y="494.95" class="st0" width="37.14" height="219.91"/>
		<g>
			<path class="st1" d="M504.3,564.12c-10.65,4.76-23.38,0.86-32.47-6.67c-9.09-7.53-15.3-18.15-21.31-28.54
				c-4.54-7.85-9.2-16.03-10.12-25.16c-0.92-9.13,3.04-19.5,11.24-22.69c-19.87-16.89-22.09-52.09-4.5-71.57
				c8.9-9.86,24.89-15.08,34.6-6.09c7.53-12.65,19.39-23.81,33.56-24.74c14.17-0.93,29.13,12.49,26.34,27.11
				c13.71-9.01,32.22-12.29,45.9-3.21s17.61,32.86,4.72,43.12c7.84,0.8,15.97,1.69,22.75,5.91s11.79,12.78,9.62,20.73
				c-3.44,12.61-21.16,15.39-25.56,27.66c5.4,2.3,10.8,4.59,16.21,6.89c-5.84,12.9-17.18,22.93-30.28,26.77
				c7.84,4.37,6.07,17.88-1.09,23.38c-7.16,5.5-16.79,5.33-25.66,4.93c-20.21-0.91-40.42-1.82-60.63-2.74"/>
		</g>
	</g>
	<g>
		<rect x="362.4" y="612" class="st0" width="37.14" height="219.91"/>
		<g>
			<path class="st1" d="M359.1,681.17c-10.65,4.76-23.38,0.86-32.47-6.67c-9.09-7.53-15.3-18.15-21.31-28.54
				c-4.54-7.85-9.2-16.03-10.12-25.16c-0.92-9.13,3.04-19.5,11.24-22.69c-19.87-16.89-22.09-52.09-4.5-71.57
				c8.9-9.86,24.89-15.08,34.6-6.09c7.53-12.65,19.39-23.81,33.56-24.74c14.17-0.93,29.13,12.49,26.34,27.11
				c13.71-9.01,32.22-12.29,45.9-3.21c13.68,9.07,17.61,32.86,4.72,43.12c7.84,0.8,15.97,1.69,22.75,5.91
				c6.78,4.22,11.79,12.78,9.62,20.73c-3.44,12.61-21.16,15.39-25.56,27.66c5.4,2.3,10.8,4.59,16.21,6.89
				c-5.84,12.9-17.18,22.93-30.28,26.77c7.84,4.37,6.07,17.88-1.09,23.38c-7.16,5.5-16.79,5.33-25.66,4.93
				c-20.21-0.91-40.42-1.82-60.63-2.74"/>
		</g>
	</g>
	<g>
		<rect x="257.72" y="420.46" class="st0" width="37.14" height="219.91"/>
		<g>
			<path class="st1" d="M254.42,489.64c-10.65,4.76-23.38,0.86-32.47-6.67c-9.09-7.53-15.3-18.15-21.31-28.54
				c-4.54-7.85-9.2-16.03-10.12-25.16c-0.92-9.13,3.04-19.5,11.24-22.69c-19.87-16.89-22.09-52.09-4.5-71.57
				c8.9-9.86,24.89-15.08,34.6-6.09c7.53-12.65,19.39-23.81,33.56-24.74c14.17-0.93,29.13,12.49,26.34,27.11
				c13.71-9.01,32.22-12.29,45.9-3.21c13.68,9.07,17.61,32.86,4.72,43.12c7.84,0.8,15.97,1.69,22.75,5.91
				c6.78,4.22,11.79,12.78,9.62,20.73c-3.44,12.61-21.16,15.39-25.56,27.66c5.4,2.3,10.8,4.59,16.21,6.89
				c-5.84,12.9-17.18,22.93-30.28,26.77c7.84,4.37,6.07,17.88-1.09,23.38c-7.16,5.5-16.79,5.33-25.66,4.93
				c-20.21-0.91-40.42-1.82-60.63-2.74"/>
		</g>
	</g>
	<g>
		<rect x="196.93" y="750.33" class="st0" width="37.14" height="219.91"/>
		<g>
			<path class="st1" d="M193.64,819.5c-10.65,4.76-23.38,0.86-32.47-6.67s-15.3-18.15-21.31-28.54c-4.54-7.85-9.2-16.03-10.12-25.16
				c-0.92-9.13,3.04-19.5,11.24-22.69c-19.87-16.89-22.09-52.09-4.5-71.57c8.9-9.86,24.89-15.08,34.6-6.09
				c7.53-12.65,19.39-23.81,33.56-24.74c14.17-0.93,29.13,12.49,26.34,27.11c13.71-9.01,32.22-12.29,45.9-3.21
				c13.68,9.07,17.61,32.86,4.72,43.12c7.84,0.8,15.97,1.69,22.75,5.91s11.79,12.78,9.62,20.73c-3.44,12.61-21.16,15.39-25.56,27.66
				c5.4,2.3,10.8,4.59,16.21,6.89c-5.84,12.9-17.18,22.93-30.28,26.77c7.84,4.37,6.07,17.88-1.09,23.38s-16.79,5.33-25.66,4.93
				c-20.21-0.91-40.42-1.82-60.63-2.74"/>
		</g>
	</g>
	<g>
		<rect x="1497" y="612" class="st0" width="37.14" height="219.91"/>
		<g>
			<path class="st1" d="M1493.7,681.17c-10.65,4.76-23.38,0.86-32.47-6.67s-15.3-18.15-21.31-28.54
				c-4.54-7.85-9.2-16.03-10.12-25.16c-0.92-9.13,3.04-19.5,11.24-22.69c-19.87-16.89-22.09-52.09-4.5-71.57
				c8.9-9.86,24.89-15.08,34.6-6.09c7.53-12.65,19.39-23.81,33.56-24.74s29.13,12.49,26.34,27.11c13.71-9.01,32.22-12.29,45.9-3.21
				c13.68,9.07,17.61,32.86,4.72,43.12c7.84,0.8,15.97,1.69,22.75,5.91s11.79,12.78,9.62,20.73c-3.44,12.61-21.16,15.39-25.56,27.66
				c5.4,2.3,10.8,4.59,16.21,6.89c-5.84,12.9-17.18,22.93-30.28,26.77c7.84,4.37,6.07,17.88-1.09,23.38
				c-7.16,5.5-16.79,5.33-25.66,4.93c-20.21-0.91-40.42-1.82-60.63-2.74"/>
		</g>
	</g>
	<g>
		<rect x="1591.55" y="704.22" class="st0" width="37.14" height="219.91"/>
		<g>
			<path class="st1" d="M1588.25,773.39c-10.65,4.76-23.38,0.86-32.47-6.67s-15.3-18.15-21.31-28.54
				c-4.54-7.85-9.2-16.03-10.12-25.16s3.04-19.5,11.24-22.69c-19.87-16.89-22.09-52.09-4.5-71.57c8.9-9.86,24.89-15.08,34.6-6.09
				c7.53-12.65,19.39-23.81,33.56-24.74s29.13,12.49,26.34,27.11c13.71-9.01,32.22-12.29,45.9-3.21
				c13.68,9.07,17.61,32.86,4.72,43.12c7.84,0.8,15.97,1.69,22.75,5.91s11.79,12.78,9.62,20.73c-3.44,12.61-21.16,15.39-25.56,27.66
				c5.4,2.3,10.8,4.59,16.21,6.89c-5.84,12.9-17.18,22.93-30.28,26.77c7.84,4.37,6.07,17.88-1.09,23.38s-16.79,5.33-25.66,4.93
				c-20.21-0.91-40.42-1.82-60.63-2.74"/>
		</g>
	</g>
	<g>
		<rect x="1567.91" y="846.09" class="st0" width="37.14" height="219.91"/>
		<g>
			<path class="st1" d="M1564.61,915.27c-10.65,4.76-23.38,0.86-32.47-6.67c-9.09-7.53-15.3-18.15-21.31-28.54
				c-4.54-7.85-9.2-16.03-10.12-25.16c-0.92-9.13,3.04-19.5,11.24-22.69c-19.87-16.89-22.09-52.09-4.5-71.57
				c8.9-9.86,24.89-15.08,34.6-6.09c7.53-12.65,19.39-23.81,33.56-24.74c14.17-0.93,29.13,12.49,26.34,27.11
				c13.71-9.01,32.22-12.29,45.9-3.21c13.68,9.07,17.61,32.86,4.72,43.12c7.84,0.8,15.97,1.69,22.75,5.91s11.79,12.78,9.62,20.73
				c-3.44,12.61-21.16,15.39-25.56,27.66c5.4,2.3,10.8,4.59,16.21,6.89c-5.84,12.9-17.18,22.93-30.28,26.77
				c7.84,4.37,6.07,17.88-1.09,23.38c-7.16,5.5-16.79,5.33-25.66,4.93c-20.21-0.91-40.42-1.82-60.63-2.74"/>
		</g>
	</g>
	<g>
		<path class="st2" d="M925.24,952.5c-337.16,40.39-414.42,27.69-418.4,7.04c-2.1-10.93,16.82-21.39,50.84-59.53
			c42.13-47.24,68.78-93.6,84.73-125.47c-15.78-20.48-31.56-40.97-47.33-61.45c-9.15-41.18-18.31-82.36-27.46-123.55
			c7.42-9.03,18.72-22.98,32.14-40.33c79.98-103.43,94.16-145.67,136.74-154.27c19.93-4.03,41.49,0.25,59.6,3.84
			c34.6,6.86,39.71,16.36,66.62,16.64c29.23,0.31,31.97-10.82,53.76-5.12c19.02,4.97,27.38,16.17,43.83,12.16
			c4.81-1.17,3.72-2.04,21.62-10.24c13.85-6.35,17.04-6.99,26.88-11.52c19.88-9.15,20.33-12.71,30.39-16.64
			c14.94-5.84,27.39-3.23,52.01,1.92c30.45,6.37,51.19,18.54,55.51,21.12c19.23,11.52,28.84,17.27,35.06,26.89
			c2.99,4.62,6.25,11.09,11.69,11.52c5.96,0.48,9.08-6.71,15.78-11.52c10.23-7.34,22.71-4.76,33.31-2.56
			c24.2,5.01,79.82,31.01,129.73,101.78c14.07,19.95,13.38,23.18,25.13,36.49c28.32,32.08,51.71,35.28,56.1,59.53
			c1.09,6.04,3.7,20.45-2.92,32.65c-3.09,5.7-7.36,9.37-8.77,17.28c0,0-1.35,7.58,1.75,16.64c9.09,26.52,67.33,57.54,76.55,98.58
			c1.67,7.45,0.2,8.43-18.11,78.74c-11.55,44.35-15.22,60.26-16.36,64.01C1464.13,1007.68,1056.92,966.99,925.24,952.5z"/>
		<path class="st3" d="M1215.67,921.13H854.53V564.57c49.18-13.15,127.82-26.36,220.89-7.68c45.43,9.12,83.91,23.75,114.53,38.41
			C1198.52,703.91,1207.09,812.52,1215.67,921.13z"/>
		<g>
			<path class="st4" d="M570.98,589.96c8.46-10.37,33.25,9.59,65.44,8.9c26.2-0.56,47.36-14.57,61.32-26.58
				c-10.09,10.48-20.18,20.96-30.27,31.44c-6.03,6.27-12.28,12.9-14.92,21.53c-4.16,13.61,1.65,28.26,7.7,41
				c14.9,31.36,32.06,61.44,51.26,89.86c1.81,2.68,3.7,5.5,4.13,8.8c0.57,4.36-1.51,8.57-3.68,12.28
				c-20.69,35.41-55.35,59.18-74.84,95.39c-15.59,28.95-20.73,64.55-40.89,89.89c-3.01,3.78-7.96,9.51-15.86,13.64
				c-18.74,9.8-38.52,2.36-53.94-3.45c-11.16-4.2-17.93-6.86-19.28-12.8c-2.17-9.54,11.2-20.49,19.28-27.53
				c43.15-37.56,74.36-84.27,84.73-102.42c10.63-18.59,17.45-38.82,27.46-48.01c0.94-0.86,3.78-3.34,4.09-7.04
				c0.61-7.19-8.78-13.47-12.27-16c-10.63-7.71-17.8-19.01-32.14-41.61c-14.59-22.99-5.63-27.88-23.96-97.3
				C569.71,602.42,567.04,594.79,570.98,589.96z"/>
		</g>
		<g>
			<g>
				<path class="st4" d="M788.52,530.94c0.5-0.46,1-0.91,1.52-1.34c0.21-0.17,0.42-0.34,0.62-0.51c1-0.85-0.7,0.5,0.35-0.28
					c1.07-0.79,2.15-1.54,3.28-2.24c1.01-0.62,2.03-1.2,3.08-1.75c0.58-0.3,1.17-0.59,1.76-0.87c0.3-0.14,0.59-0.27,0.89-0.41
					c0.18-0.08,0.36-0.16,0.54-0.24c-0.41,0.17-0.47,0.2-0.17,0.07c4.88-1.88,9.86-3.18,15.03-3.95c0.88-0.13,0.16-0.02-0.02,0
					c0.33-0.04,0.66-0.08,0.98-0.12c0.59-0.07,1.18-0.13,1.77-0.19c1.38-0.13,2.76-0.24,4.14-0.31c2.78-0.15,5.56-0.17,8.34-0.13
					c6.46,0.1,12.91,0.56,19.37,0.85c7.25,0.33,14.53,0.44,21.76-0.37c2.33-0.26,4.62-1.88,4.5-4.5c-0.1-2.21-1.99-4.78-4.5-4.5
					c-24.22,2.72-49.4-4.88-72.86,4.19c-6.2,2.4-11.85,5.72-16.76,10.23c-1.74,1.6-1.74,4.77,0,6.36
					C784.01,532.65,786.66,532.65,788.52,530.94L788.52,530.94z"/>
			</g>
		</g>
		<path class="st5" d="M1180.02,974.27c-41.89-3.97-85.15-7.22-129.73-9.6c-61.76-3.3-121.24-4.66-178.23-4.48
			c0-13.02,0-26.03,0-39.05c102.85,0.43,205.69,0.85,308.54,1.28C1180.41,939.7,1180.21,956.98,1180.02,974.27z"/>
		<g>
			<path class="st6" d="M714.35,641.05c12.14-19.6,29.96-34.92,50.23-43.17c-3.05,11.25,8.41,20.45,18.34,24.83
				c9.94,4.38,22.07,10.75,22.07,22.48c29.8-45.57,58.82-92.69,75.74-145.59c5.79-18.11,10.3-37.17,20.62-52.68
				s28.47-26.79,45.26-21.3c13.37,4.37,22.86,18.14,36.24,22.47c14.56,4.71,29.77-2.72,44.75-5.37c14.98-2.65,34.52,3.58,36.24,20.1
				c9.36-13.53,26.9-19.49,41.61-14.14c14.71,5.35,25.51,21.62,25.62,38.6c8.2-14.23,29.27-11.84,40.09,0.1s14.33,29.4,18.13,45.7
				c8.63,37.05,21.14,73.02,37.2,106.97c2.12-17.82,15.02-31.53,27.61-43.04c23.76-21.72,49.21-41.2,75.99-58.18
				c7.31,27.11,2.87,57.74-11.75,81.03c-2.33,3.72-4.99,7.48-5.51,11.96c-0.57,4.95,1.59,9.72,3,14.47
				c9.2,30.81-12.35,61.74-17.34,93.7c-5.17,33.11,7.89,66.36,23.77,95.1c15.88,28.74,35.12,55.91,44.43,87.92
				c0.24,0.81,0.5,5.44,1.27,13.5c2.56,26.67,2.79,26.52,2.54,27.51c-4.5,18.11-68.12,15.06-137.32,12.16
				c-28.47-1.19-51.16-2.08-63.69-2.56c-0.5-8.87-0.06-20.26,3.35-32.75c0.89-3.23,1.89-6.24,2.95-9.02
				c-12.16-6.75-19.73-22.3-18.06-37.12c1.65-14.66,11-26.6,17.96-39.25c16.56-30.09,20.24-67.11,15.82-101.91
				c-4.42-34.8-16.39-67.88-29.43-99.99c-8.76-21.56-18.31-43.3-33.41-60.13c-15.1-16.83-36.86-28.17-58.08-24.13
				c-15.06,2.87-28.8,13.12-44.09,12.9c-12.96-0.18-24.68-7.85-36.91-12.57c-22.54-8.7-49.27-6.73-68.33,9.08
				c-16.08,13.34-24.97,34.42-32.49,54.93c-18.88,51.51-33.18,105.89-33.58,161.4c-0.4,55.5,14.15,112.51,47.38,154.41
				c-14.44,10.09-31.29,12.27-47.77,7.19"/>
		</g>
		<g>
			<path class="st6" d="M713.91,640.72c9.88,13.82,17.52,29.54,22.47,46.23c2.88,9.72,4.88,19.82,8.92,29.04
				c4.98,11.35,12.88,20.92,21.74,28.95c7.86,7.13,17.41,14.92,17.5,26.1c0.06,8.22-5.2,15.19-10.17,21.35
				c-11.18,13.84-22.49,27.82-36.33,38.39c-4.27,3.26-8.89,6.33-11.67,11.15c-3.29,5.71-3.44,12.92-5.8,19.16
				c-3.09,8.15-9.71,14.03-13.88,21.59c-3.29,5.97-4.95,12.83-7.59,19.18c-7.55,18.19-22.87,31.8-28.94,50.64
				c-0.56,1.73,0.93,4.14,0.78,7.92c-0.4,9.67-5.54,13.52-4.55,16.41c1.97,5.78,26,0.42,43.83-2.56c27.71-4.64,20.88-0.28,71.88-6.4
				c23.02-2.76,40.88-5.63,49.55-7.08c9.27-1.54,17.17-2.98,23.2-4.13"/>
		</g>
		<g>
			<path class="st7" d="M1138.53,915.37c-69.93,1.92-139.86,3.84-209.78,5.76c-0.78-74.26-1.56-148.51-2.34-222.77
				c21.63-52.16,67.37-85.03,115.12-83.22c49.96,1.89,81.06,40.96,86.48,48.01c2.95,4.5,7.24,11.86,10.52,21.76
				c0,0,3.72,11.25,4.67,24.33C1144.56,727.86,1143.09,807.35,1138.53,915.37z"/>
			<g>
				<path class="st8" d="M1111.94,918.25H959.42V697.4c13.22-31.01,40.97-51.55,71.88-53.13c32.51-1.67,63.2,17.89,78.3,49.93
					C1110.38,768.89,1111.16,843.57,1111.94,918.25z"/>
				<line class="st8" x1="1040.07" y1="643.95" x2="1040.07" y2="879.52"/>
				<line class="st8" x1="995.66" y1="655.47" x2="995.66" y2="880.16"/>
				<line class="st8" x1="1085.09" y1="663.16" x2="1085.09" y2="879.52"/>
				<rect x="960.89" y="879.52" class="st9" width="150.18" height="38.41"/>
				<rect x="1075.42" y="767.5" class="st10" width="19.28" height="60.81"/>
				<ellipse class="st11" cx="1085.35" cy="754.7" rx="7.6" ry="8.32"/>
			</g>
		</g>
		<g>
			<g>
				<path class="st4" d="M831.59,710.11c13.96-6.14,27.91-12.28,41.87-18.42c2.16-0.95,2.83-4.28,1.61-6.16
					c-1.44-2.24-3.84-2.63-6.16-1.61c-13.96,6.14-27.91,12.28-41.87,18.42c-2.16,0.95-2.83,4.28-1.61,6.16
					C826.87,710.73,829.27,711.13,831.59,710.11L831.59,710.11z"/>
			</g>
		</g>
		<g>
			<g>
				<path class="st4" d="M1219.82,976.99c10.02-16.52,16.95-34.97,20.48-53.95c1.8-9.71,2.8-19.59,2.87-29.47
					c0.07-10.36-0.84-20.69-1.3-31.03c-0.25-5.77-0.37-11.55-0.08-17.32c0.14-2.82,0.36-5.64,0.74-8.43
					c-0.09,0.68,0.02-0.1,0.03-0.2c0.07-0.46,0.14-0.93,0.21-1.39c0.11-0.7,0.24-1.39,0.37-2.08c0.28-1.47,0.6-2.93,0.95-4.38
					c0.56-2.28-0.73-4.99-3.14-5.54c-2.32-0.53-4.94,0.7-5.54,3.14c-5.01,20.4-1.73,41.32-1.29,62c0.11,4.93,0.02,9.86-0.31,14.78
					c-0.16,2.36-0.37,4.73-0.63,7.08c-0.07,0.59-0.13,1.18-0.21,1.76c-0.04,0.29-0.07,0.59-0.11,0.88
					c-0.02,0.13-0.12,0.88-0.01,0.12c-0.16,1.17-0.33,2.34-0.52,3.51c-1.5,9.46-3.84,18.79-7,27.83c-0.87,2.49-1.8,4.96-2.79,7.4
					c-0.11,0.27-0.22,0.54-0.33,0.81c0.01-0.03-0.45,1.09-0.28,0.68c0.19-0.46-0.16,0.38-0.2,0.47c-0.14,0.34-0.29,0.67-0.44,1
					c-0.53,1.2-1.07,2.4-1.63,3.58c-2.28,4.86-4.83,9.59-7.61,14.18c-1.22,2.01-0.51,5.03,1.61,6.16
					C1215.85,979.76,1218.52,979.14,1219.82,976.99L1219.82,976.99z"/>
			</g>
		</g>
		<g>
			<g>
				<path class="st4" d="M1302.69,978.24c-0.08-1.84-0.08-3.69,0.01-5.53c0.04-0.92,0.11-1.84,0.19-2.76
					c0.04-0.46,0.09-0.92,0.14-1.37c0.03-0.31,0.2-1.45,0.07-0.56c0.58-3.7,1.38-7.33,2.55-10.89c0.26-0.81,0.54-1.61,0.84-2.4
					c0.16-0.43,0.32-0.85,0.49-1.28c0.1-0.24,0.2-0.48,0.29-0.72c0.25-0.64-0.28,0.63,0,0c0.75-1.65,1.51-3.29,2.37-4.89
					c0.89-1.64,1.84-3.24,2.88-4.79c0.46-0.69,0.93-1.37,1.42-2.04c0.26-0.36,0.53-0.72,0.8-1.07c-0.04,0.05-0.44,0.55-0.12,0.16
					c0.2-0.24,0.39-0.5,0.6-0.74c1.24-1.51,2.55-2.96,3.94-4.34c0.71-0.7,1.44-1.39,2.2-2.05c0.37-0.33,0.75-0.65,1.14-0.97
					c0.14-0.12,0.29-0.24,0.43-0.36c0.09-0.08,1.08-0.85,0.26-0.22c1.86-1.43,3.05-3.94,1.61-6.16c-1.18-1.84-4.16-3.15-6.16-1.61
					c-12.77,9.83-21.31,24.54-23.99,40.43c-0.79,4.69-1.17,9.43-0.97,14.18c0.1,2.35,2,4.61,4.5,4.5
					C1300.54,982.63,1302.79,980.76,1302.69,978.24L1302.69,978.24z"/>
			</g>
		</g>
		<g>
			<path class="st4" d="M1455.73,699.36c-9.14-0.59-18.63,7.07-22.88,17.07c-4.2,9.87-3.15,19.09-1.84,39.73
				c0.85,13.36,1.34,27.58-3.21,39.38c-20.64-32.97-47.25-58.58-76.64-73.76c-6.44,31.41-3.74,54.71-1.42,67.17
				c3.87,20.7,11.6,37.54,18.76,53.13c6.94,15.11,12.11,21.4,19.68,40.97c2.93,7.58,6.14,16.85,8.92,28.49
				c3.6,15.07,5.4,22.61,4.58,32.01c-1.47,16.78-9.58,24.33-7.09,29.77c1.89,4.12,7.92,2.59,15.56,1.28
				c25.07-4.3,37.61-6.46,41.18-7.68c20.46-7.02,30.67-10.62,37.06-19.84c5.18-7.47,4.37-11.22,11.67-45.77
				c6.03-28.56,10.03-58.08,17.84-85.78c0.99-3.51,3.28-11.35,2.29-21.12c-0.75-7.44-3.13-13.32-6.86-20.48
				c-8.09-15.53-16.42-25.38-18.76-28.17C1467.02,712.88,1467.1,700.09,1455.73,699.36z"/>
		</g>
	</g>
	<g>
		<rect x="1412.58" y="803.53" class="st0" width="37.14" height="219.91"/>
		<g>
			<path class="st1" d="M1409.28,872.7c-10.65,4.76-23.38,0.86-32.47-6.67s-15.3-18.15-21.31-28.54
				c-4.54-7.85-9.2-16.03-10.12-25.16s3.04-19.5,11.24-22.69c-19.87-16.89-22.09-52.09-4.5-71.57c8.9-9.86,24.89-15.08,34.6-6.09
				c7.53-12.65,19.39-23.81,33.56-24.74s29.13,12.49,26.34,27.11c13.71-9.01,32.22-12.29,45.9-3.21
				c13.68,9.07,17.61,32.86,4.72,43.12c7.84,0.8,15.97,1.69,22.75,5.91s11.79,12.78,9.62,20.73c-3.44,12.61-21.16,15.39-25.56,27.66
				c5.4,2.3,10.8,4.59,16.21,6.89c-5.84,12.9-17.18,22.93-30.28,26.77c7.84,4.37,6.07,17.88-1.09,23.38s-16.79,5.33-25.66,4.93
				c-20.21-0.91-40.42-1.82-60.63-2.74"/>
		</g>
	</g>
	<g>
		<rect x="531.24" y="785.79" class="st0" width="37.14" height="219.91"/>
		<g>
			<path class="st1" d="M527.94,854.97c-10.65,4.76-23.38,0.86-32.47-6.67s-15.3-18.15-21.31-28.54
				c-4.54-7.85-9.2-16.03-10.12-25.16c-0.92-9.13,3.04-19.5,11.24-22.69c-19.87-16.89-22.09-52.09-4.5-71.57
				c8.9-9.86,24.89-15.08,34.6-6.09c7.53-12.65,19.39-23.81,33.56-24.74c14.17-0.93,29.13,12.49,26.34,27.11
				c13.71-9.01,32.22-12.29,45.9-3.21c13.68,9.07,17.61,32.86,4.72,43.12c7.84,0.8,15.97,1.69,22.75,5.91s11.79,12.78,9.62,20.73
				c-3.44,12.61-21.16,15.39-25.56,27.66c5.4,2.3,10.8,4.59,16.21,6.89c-5.84,12.9-17.18,22.93-30.28,26.77
				c7.84,4.37,6.07,17.88-1.09,23.38c-7.16,5.5-16.79,5.33-25.66,4.93c-20.21-0.91-40.42-1.82-60.63-2.74"/>
		</g>
	</g>
	<g>
		<rect x="375.9" y="821.26" class="st0" width="37.14" height="219.91"/>
		<g>
			<path class="st1" d="M372.61,890.44c-10.65,4.76-23.38,0.86-32.47-6.67c-9.09-7.53-15.3-18.15-21.31-28.54
				c-4.54-7.85-9.2-16.03-10.12-25.16c-0.92-9.13,3.04-19.5,11.24-22.69c-19.87-16.89-22.09-52.09-4.5-71.57
				c8.9-9.86,24.89-15.08,34.6-6.09c7.53-12.65,19.39-23.81,33.56-24.74c14.17-0.93,29.13,12.49,26.34,27.11
				c13.71-9.01,32.22-12.29,45.9-3.21c13.68,9.07,17.61,32.86,4.72,43.12c7.84,0.8,15.97,1.69,22.75,5.91
				c6.78,4.22,11.79,12.78,9.62,20.73c-3.44,12.61-21.16,15.39-25.56,27.66c5.4,2.3,10.8,4.59,16.21,6.89
				c-5.84,12.9-17.18,22.93-30.28,26.77c7.84,4.37,6.07,17.88-1.09,23.38c-7.16,5.5-16.79,5.33-25.66,4.93
				c-20.21-0.91-40.42-1.82-60.63-2.74"/>
		</g>
	</g>
</g>
</svg>
