<?xml version="1.0" encoding="utf-8"?>
<!-- Generator: Adobe Illustrator 23.0.5, SVG Export Plug-In . SVG Version: 6.00 Build 0)  -->
<svg version="1.1" id="圖層_1" xmlns="http://www.w3.org/2000/svg" xmlns:xlink="http://www.w3.org/1999/xlink" x="0px" y="0px"
	 viewBox="0 0 1920 1080" style="enable-background:new 0 0 1920 1080;" xml:space="preserve">
<style type="text/css">
	.st0{fill:#9A7042;}
	.st1{fill:#74B238;}
	.st2{fill:#585862;}
	.st3{fill:#4E4357;}
	.st4{fill:#3D2E4D;}
	.st5{fill:#F9F9BC;}
	.st6{fill:#759A9E;}
	.st7{fill:#E9A660;}
	.st8{fill:#E4A150;stroke:#522011;stroke-width:3;stroke-miterlimit:10;}
	.st9{fill:none;stroke:#522011;stroke-width:3;stroke-miterlimit:10;}
	.st10{fill:#AE7154;stroke:#371C0A;stroke-width:3;stroke-miterlimit:10;}
	.st11{fill:#6A5443;}
	.st12{fill:#62FAFC;}
	.st13{fill:#FFFFFF;stroke:#000000;stroke-width:2;stroke-miterlimit:10;}
</style>
<g>
	<g>
		<rect x="615.66" y="292.77" class="st0" width="37.14" height="219.91"/>
		<g>
			<path class="st1" d="M612.36,361.95c-10.65,4.76-23.38,0.86-32.47-6.67c-9.09-7.53-15.3-18.15-21.31-28.54
				c-4.54-7.85-9.2-16.03-10.12-25.16s3.04-19.5,11.24-22.69c-19.87-16.89-22.09-52.09-4.5-71.57c8.9-9.86,24.89-15.08,34.6-6.09
				c7.53-12.65,19.39-23.81,33.56-24.74c14.17-0.93,29.13,12.49,26.34,27.11c13.71-9.01,32.22-12.29,45.9-3.21
				s17.61,32.86,4.72,43.12c7.84,0.8,15.97,1.69,22.75,5.91s11.79,12.78,9.62,20.73c-3.44,12.61-21.16,15.39-25.56,27.66
				c5.4,2.3,10.8,4.59,16.21,6.89c-5.84,12.9-17.18,22.93-30.28,26.77c7.84,4.37,6.07,17.88-1.09,23.38
				c-7.16,5.5-16.79,5.33-25.66,4.93c-20.21-0.91-40.42-1.82-60.63-2.74"/>
		</g>
	</g>
	<g>
		<rect x="1034.38" y="182.82" class="st0" width="37.14" height="219.91"/>
		<g>
			<path class="st1" d="M1031.08,251.99c-10.65,4.76-23.38,0.86-32.47-6.67c-9.09-7.53-15.3-18.15-21.31-28.54
				c-4.54-7.85-9.2-16.03-10.12-25.16s3.04-19.5,11.24-22.69c-19.87-16.89-22.09-52.09-4.5-71.57c8.9-9.86,24.89-15.08,34.6-6.09
				c7.53-12.65,19.39-23.81,33.56-24.74s29.13,12.49,26.34,27.11c13.71-9.01,32.22-12.29,45.9-3.21
				c13.68,9.07,17.61,32.86,4.72,43.12c7.84,0.8,15.97,1.69,22.75,5.91s11.79,12.78,9.62,20.73c-3.44,12.61-21.16,15.39-25.56,27.66
				c5.4,2.3,10.8,4.59,16.21,6.89c-5.84,12.9-17.18,22.93-30.28,26.77c7.84,4.37,6.07,17.88-1.09,23.38
				c-7.16,5.5-16.79,5.33-25.66,4.93c-20.21-0.91-40.42-1.82-60.63-2.74"/>
		</g>
	</g>
	<g>
		<rect x="1264" y="200.55" class="st0" width="37.14" height="219.91"/>
		<g>
			<path class="st1" d="M1260.7,269.73c-10.65,4.76-23.38,0.86-32.47-6.67s-15.3-18.15-21.31-28.54
				c-4.54-7.85-9.2-16.03-10.12-25.16s3.04-19.5,11.24-22.69c-19.87-16.89-22.09-52.09-4.5-71.57c8.9-9.86,24.89-15.08,34.6-6.09
				c7.53-12.65,19.39-23.81,33.56-24.74s29.13,12.49,26.34,27.11c13.71-9.01,32.22-12.29,45.9-3.21
				c13.68,9.07,17.61,32.86,4.72,43.12c7.84,0.8,15.97,1.69,22.75,5.91s11.79,12.78,9.62,20.73c-3.44,12.61-21.16,15.39-25.56,27.66
				c5.4,2.3,10.8,4.59,16.21,6.89c-5.84,12.9-17.18,22.93-30.28,26.77c7.84,4.37,6.07,17.88-1.09,23.38
				c-7.16,5.5-16.79,5.33-25.66,4.93c-20.21-0.91-40.42-1.82-60.63-2.74"/>
		</g>
	</g>
	<g>
		<rect x="848.65" y="310.51" class="st0" width="37.14" height="219.91"/>
		<g>
			<path class="st1" d="M845.36,379.68c-10.65,4.76-23.38,0.86-32.47-6.67c-9.09-7.53-15.3-18.15-21.31-28.54
				c-4.54-7.85-9.2-16.03-10.12-25.16s3.04-19.5,11.24-22.69c-19.87-16.89-22.09-52.09-4.5-71.57c8.9-9.86,24.89-15.08,34.6-6.09
				c7.53-12.65,19.39-23.81,33.56-24.74c14.17-0.93,29.13,12.49,26.34,27.11c13.71-9.01,32.22-12.29,45.9-3.21
				c13.68,9.07,17.61,32.86,4.72,43.12c7.84,0.8,15.97,1.69,22.75,5.91s11.79,12.78,9.62,20.73c-3.44,12.61-21.16,15.39-25.56,27.66
				c5.4,2.3,10.8,4.59,16.21,6.89c-5.84,12.9-17.18,22.93-30.28,26.77c7.84,4.37,6.07,17.88-1.09,23.38
				c-7.16,5.5-16.79,5.33-25.66,4.93c-20.21-0.91-40.42-1.82-60.63-2.74"/>
		</g>
	</g>
	<g>
		<rect x="413.05" y="161.54" class="st0" width="37.14" height="219.91"/>
		<g>
			<path class="st1" d="M409.75,230.71c-10.65,4.76-23.38,0.86-32.47-6.67s-15.3-18.15-21.31-28.54
				c-4.54-7.85-9.2-16.03-10.12-25.16c-0.92-9.13,3.04-19.5,11.24-22.69c-19.87-16.89-22.09-52.09-4.5-71.57
				c8.9-9.86,24.89-15.08,34.6-6.09c7.53-12.65,19.39-23.81,33.56-24.74s29.13,12.49,26.34,27.11c13.71-9.01,32.22-12.29,45.9-3.21
				c13.68,9.07,17.61,32.86,4.72,43.12c7.84,0.8,15.97,1.69,22.75,5.91s11.79,12.78,9.62,20.73c-3.44,12.61-21.16,15.39-25.56,27.66
				c5.4,2.3,10.8,4.59,16.21,6.89c-5.84,12.9-17.18,22.93-30.28,26.77c7.84,4.37,6.07,17.88-1.09,23.38s-16.79,5.33-25.66,4.93
				c-20.21-0.91-40.42-1.82-60.63-2.74"/>
		</g>
	</g>
	<g>
		<rect x="1358.55" y="395.63" class="st0" width="37.14" height="219.91"/>
		<g>
			<path class="st1" d="M1355.25,464.81c-10.65,4.76-23.38,0.86-32.47-6.67s-15.3-18.15-21.31-28.54
				c-4.54-7.85-9.2-16.03-10.12-25.16s3.04-19.5,11.24-22.69c-19.87-16.89-22.09-52.09-4.5-71.57c8.9-9.86,24.89-15.08,34.6-6.09
				c7.53-12.65,19.39-23.81,33.56-24.74s29.13,12.49,26.34,27.11c13.71-9.01,32.22-12.29,45.9-3.21
				c13.68,9.07,17.61,32.86,4.72,43.12c7.84,0.8,15.97,1.69,22.75,5.91s11.79,12.78,9.62,20.73c-3.44,12.61-21.16,15.39-25.56,27.66
				c5.4,2.3,10.8,4.59,16.21,6.89c-5.84,12.9-17.18,22.93-30.28,26.77c7.84,4.37,6.07,17.88-1.09,23.38s-16.79,5.33-25.66,4.93
				c-20.21-0.91-40.42-1.82-60.63-2.74"/>
		</g>
	</g>
	<g>
		<rect x="1497" y="328.24" class="st0" width="37.14" height="219.91"/>
		<g>
			<path class="st1" d="M1493.7,397.42c-10.65,4.76-23.38,0.86-32.47-6.67s-15.3-18.15-21.31-28.54
				c-4.54-7.85-9.2-16.03-10.12-25.16s3.04-19.5,11.24-22.69c-19.87-16.89-22.09-52.09-4.5-71.57c8.9-9.86,24.89-15.08,34.6-6.09
				c7.53-12.65,19.39-23.81,33.56-24.74c14.17-0.93,29.13,12.49,26.34,27.11c13.71-9.01,32.22-12.29,45.9-3.21
				c13.68,9.07,17.61,32.86,4.72,43.12c7.84,0.8,15.97,1.69,22.75,5.91s11.79,12.78,9.62,20.73c-3.44,12.61-21.16,15.39-25.56,27.66
				c5.4,2.3,10.8,4.59,16.21,6.89c-5.84,12.9-17.18,22.93-30.28,26.77c7.84,4.37,6.07,17.88-1.09,23.38
				c-7.16,5.5-16.79,5.33-25.66,4.93c-20.21-0.91-40.42-1.82-60.63-2.74"/>
		</g>
	</g>
	<g>
		<rect x="1581.42" y="200.55" class="st0" width="37.14" height="219.91"/>
		<g>
			<path class="st1" d="M1578.12,269.73c-10.65,4.76-23.38,0.86-32.47-6.67s-15.3-18.15-21.31-28.54
				c-4.54-7.85-9.2-16.03-10.12-25.16s3.04-19.5,11.24-22.69c-19.87-16.89-22.09-52.09-4.5-71.57c8.9-9.86,24.89-15.08,34.6-6.09
				c7.53-12.65,19.39-23.81,33.56-24.74s29.13,12.49,26.34,27.11c13.71-9.01,32.22-12.29,45.9-3.21s17.61,32.86,4.72,43.12
				c7.84,0.8,15.97,1.69,22.75,5.91s11.79,12.78,9.62,20.73c-3.44,12.61-21.16,15.39-25.56,27.66c5.4,2.3,10.8,4.59,16.21,6.89
				c-5.84,12.9-17.18,22.93-30.28,26.77c7.84,4.37,6.07,17.88-1.09,23.38c-7.16,5.5-16.79,5.33-25.66,4.93
				c-20.21-0.91-40.42-1.82-60.63-2.74"/>
		</g>
	</g>
	<g>
		<rect x="1662.46" y="420.46" class="st0" width="37.14" height="219.91"/>
		<g>
			<path class="st1" d="M1659.16,489.64c-10.65,4.76-23.38,0.86-32.47-6.67s-15.3-18.15-21.31-28.54
				c-4.54-7.85-9.2-16.03-10.12-25.16s3.04-19.5,11.24-22.69c-19.87-16.89-22.09-52.09-4.5-71.57c8.9-9.86,24.89-15.08,34.6-6.09
				c7.53-12.65,19.39-23.81,33.56-24.74s29.13,12.49,26.34,27.11c13.71-9.01,32.22-12.29,45.9-3.21
				c13.68,9.07,17.61,32.86,4.72,43.12c7.84,0.8,15.97,1.69,22.75,5.91s11.79,12.78,9.62,20.73c-3.44,12.61-21.16,15.39-25.56,27.66
				c5.4,2.3,10.8,4.59,16.21,6.89c-5.84,12.9-17.18,22.93-30.28,26.77c7.84,4.37,6.07,17.88-1.09,23.38
				c-7.16,5.5-16.79,5.33-25.66,4.93c-20.21-0.91-40.42-1.82-60.63-2.74"/>
		</g>
	</g>
	<g>
		<rect x="507.6" y="494.95" class="st0" width="37.14" height="219.91"/>
		<g>
			<path class="st1" d="M504.3,564.12c-10.65,4.76-23.38,0.86-32.47-6.67c-9.09-7.53-15.3-18.15-21.31-28.54
				c-4.54-7.85-9.2-16.03-10.12-25.16c-0.92-9.13,3.04-19.5,11.24-22.69c-19.87-16.89-22.09-52.09-4.5-71.57
				c8.9-9.86,24.89-15.08,34.6-6.09c7.53-12.65,19.39-23.81,33.56-24.74s29.13,12.49,26.34,27.11c13.71-9.01,32.22-12.29,45.9-3.21
				s17.61,32.86,4.72,43.12c7.84,0.8,15.97,1.69,22.75,5.91s11.79,12.78,9.62,20.73c-3.44,12.61-21.16,15.39-25.56,27.66
				c5.4,2.3,10.8,4.59,16.21,6.89c-5.84,12.9-17.18,22.93-30.28,26.77c7.84,4.37,6.07,17.88-1.09,23.38
				c-7.16,5.5-16.79,5.33-25.66,4.93c-20.21-0.91-40.42-1.82-60.63-2.74"/>
		</g>
	</g>
	<g>
		<rect x="362.4" y="612" class="st0" width="37.14" height="219.91"/>
		<g>
			<path class="st1" d="M359.1,681.17c-10.65,4.76-23.38,0.86-32.47-6.67c-9.09-7.53-15.3-18.15-21.31-28.54
				c-4.54-7.85-9.2-16.03-10.12-25.16c-0.92-9.13,3.04-19.5,11.24-22.69c-19.87-16.89-22.09-52.09-4.5-71.57
				c8.9-9.86,24.89-15.08,34.6-6.09c7.53-12.65,19.39-23.81,33.56-24.74s29.13,12.49,26.34,27.11c13.71-9.01,32.22-12.29,45.9-3.21
				c13.68,9.07,17.61,32.86,4.72,43.12c7.84,0.8,15.97,1.69,22.75,5.91s11.79,12.78,9.62,20.73c-3.44,12.61-21.16,15.39-25.56,27.66
				c5.4,2.3,10.8,4.59,16.21,6.89c-5.84,12.9-17.18,22.93-30.28,26.77c7.84,4.37,6.07,17.88-1.09,23.38s-16.79,5.33-25.66,4.93
				c-20.21-0.91-40.42-1.82-60.63-2.74"/>
		</g>
	</g>
	<g>
		<rect x="257.72" y="420.46" class="st0" width="37.14" height="219.91"/>
		<g>
			<path class="st1" d="M254.42,489.64c-10.65,4.76-23.38,0.86-32.47-6.67s-15.3-18.15-21.31-28.54
				c-4.54-7.85-9.2-16.03-10.12-25.16s3.04-19.5,11.24-22.69c-19.87-16.89-22.09-52.09-4.5-71.57c8.9-9.86,24.89-15.08,34.6-6.09
				c7.53-12.65,19.39-23.81,33.56-24.74c14.17-0.93,29.13,12.49,26.34,27.11c13.71-9.01,32.22-12.29,45.9-3.21
				c13.68,9.07,17.61,32.86,4.72,43.12c7.84,0.8,15.97,1.69,22.75,5.91s11.79,12.78,9.62,20.73c-3.44,12.61-21.16,15.39-25.56,27.66
				c5.4,2.3,10.8,4.59,16.21,6.89c-5.84,12.9-17.18,22.93-30.28,26.77c7.84,4.37,6.07,17.88-1.09,23.38s-16.79,5.33-25.66,4.93
				c-20.21-0.91-40.42-1.82-60.63-2.74"/>
		</g>
	</g>
	<g>
		<rect x="196.93" y="750.33" class="st0" width="37.14" height="219.91"/>
		<g>
			<path class="st1" d="M193.64,819.5c-10.65,4.76-23.38,0.86-32.47-6.67s-15.3-18.15-21.31-28.54c-4.54-7.85-9.2-16.03-10.12-25.16
				c-0.92-9.13,3.04-19.5,11.24-22.69c-19.87-16.89-22.09-52.09-4.5-71.57c8.9-9.86,24.89-15.08,34.6-6.09
				c7.53-12.65,19.39-23.81,33.56-24.74s29.13,12.49,26.34,27.11c13.71-9.01,32.22-12.29,45.9-3.21
				c13.68,9.07,17.61,32.86,4.72,43.12c7.84,0.8,15.97,1.69,22.75,5.91s11.79,12.78,9.62,20.73c-3.44,12.61-21.16,15.39-25.56,27.66
				c5.4,2.3,10.8,4.59,16.21,6.89c-5.84,12.9-17.18,22.93-30.28,26.77c7.84,4.37,6.07,17.88-1.09,23.38s-16.79,5.33-25.66,4.93
				c-20.21-0.91-40.42-1.82-60.63-2.74"/>
		</g>
	</g>
	<g>
		<rect x="1497" y="612" class="st0" width="37.14" height="219.91"/>
		<g>
			<path class="st1" d="M1493.7,681.17c-10.65,4.76-23.38,0.86-32.47-6.67s-15.3-18.15-21.31-28.54
				c-4.54-7.85-9.2-16.03-10.12-25.16c-0.92-9.13,3.04-19.5,11.24-22.69c-19.87-16.89-22.09-52.09-4.5-71.57
				c8.9-9.86,24.89-15.08,34.6-6.09c7.53-12.65,19.39-23.81,33.56-24.74s29.13,12.49,26.34,27.11c13.71-9.01,32.22-12.29,45.9-3.21
				c13.68,9.07,17.61,32.86,4.72,43.12c7.84,0.8,15.97,1.69,22.75,5.91s11.79,12.78,9.62,20.73c-3.44,12.61-21.16,15.39-25.56,27.66
				c5.4,2.3,10.8,4.59,16.21,6.89c-5.84,12.9-17.18,22.93-30.28,26.77c7.84,4.37,6.07,17.88-1.09,23.38
				c-7.16,5.5-16.79,5.33-25.66,4.93c-20.21-0.91-40.42-1.82-60.63-2.74"/>
		</g>
	</g>
	<g>
		<rect x="1591.55" y="704.22" class="st0" width="37.14" height="219.91"/>
		<g>
			<path class="st1" d="M1588.25,773.39c-10.65,4.76-23.38,0.86-32.47-6.67s-15.3-18.15-21.31-28.54
				c-4.54-7.85-9.2-16.03-10.12-25.16s3.04-19.5,11.24-22.69c-19.87-16.89-22.09-52.09-4.5-71.57c8.9-9.86,24.89-15.08,34.6-6.09
				c7.53-12.65,19.39-23.81,33.56-24.74s29.13,12.49,26.34,27.11c13.71-9.01,32.22-12.29,45.9-3.21
				c13.68,9.07,17.61,32.86,4.72,43.12c7.84,0.8,15.97,1.69,22.75,5.91s11.79,12.78,9.62,20.73c-3.44,12.61-21.16,15.39-25.56,27.66
				c5.4,2.3,10.8,4.59,16.21,6.89c-5.84,12.9-17.18,22.93-30.28,26.77c7.84,4.37,6.07,17.88-1.09,23.38s-16.79,5.33-25.66,4.93
				c-20.21-0.91-40.42-1.82-60.63-2.74"/>
		</g>
	</g>
	<g>
		<rect x="1567.91" y="846.09" class="st0" width="37.14" height="219.91"/>
		<g>
			<path class="st1" d="M1564.61,915.27c-10.65,4.76-23.38,0.86-32.47-6.67c-9.09-7.53-15.3-18.15-21.31-28.54
				c-4.54-7.85-9.2-16.03-10.12-25.16c-0.92-9.13,3.04-19.5,11.24-22.69c-19.87-16.89-22.09-52.09-4.5-71.57
				c8.9-9.86,24.89-15.08,34.6-6.09c7.53-12.65,19.39-23.81,33.56-24.74s29.13,12.49,26.34,27.11c13.71-9.01,32.22-12.29,45.9-3.21
				c13.68,9.07,17.61,32.86,4.72,43.12c7.84,0.8,15.97,1.69,22.75,5.91s11.79,12.78,9.62,20.73c-3.44,12.61-21.16,15.39-25.56,27.66
				c5.4,2.3,10.8,4.59,16.21,6.89c-5.84,12.9-17.18,22.93-30.28,26.77c7.84,4.37,6.07,17.88-1.09,23.38
				c-7.16,5.5-16.79,5.33-25.66,4.93c-20.21-0.91-40.42-1.82-60.63-2.74"/>
		</g>
	</g>
	<g>
		<path class="st2" d="M925.24,952.5c-337.16,40.39-414.42,27.69-418.4,7.04c-2.1-10.93,16.82-21.39,50.84-59.53
			c42.13-47.24,68.78-93.6,84.73-125.47c-15.78-20.48-31.56-40.97-47.33-61.45c-9.15-41.18-18.31-82.36-27.46-123.55
			c7.42-9.03,18.72-22.98,32.14-40.33c79.98-103.43,94.16-145.67,136.74-154.27c19.93-4.03,41.49,0.25,59.6,3.84
			c34.6,6.86,39.71,16.36,66.62,16.64c29.23,0.31,31.97-10.82,53.76-5.12c19.02,4.97,27.38,16.17,43.83,12.16
			c4.81-1.17,3.72-2.04,21.62-10.24c13.85-6.35,17.04-6.99,26.88-11.52c19.88-9.15,20.33-12.71,30.39-16.64
			c14.94-5.84,27.39-3.23,52.01,1.92c30.45,6.37,51.19,18.54,55.51,21.12c19.23,11.52,28.84,17.27,35.06,26.89
			c2.99,4.62,6.25,11.09,11.69,11.52c5.96,0.48,9.08-6.71,15.78-11.52c10.23-7.34,22.71-4.76,33.31-2.56
			c24.2,5.01,79.82,31.01,129.73,101.78c14.07,19.95,13.38,23.18,25.13,36.49c28.32,32.08,51.71,35.28,56.1,59.53
			c1.09,6.04,3.7,20.45-2.92,32.65c-3.09,5.7-7.36,9.37-8.77,17.28c0,0-1.35,7.58,1.75,16.64c9.09,26.52,67.33,57.54,76.55,98.58
			c1.67,7.45,0.2,8.43-18.11,78.74c-11.55,44.35-15.22,60.26-16.36,64.01C1464.13,1007.68,1056.92,966.99,925.24,952.5z"/>
		<path class="st3" d="M1215.67,921.13H854.53V564.57c49.18-13.15,127.82-26.36,220.89-7.68c45.43,9.12,83.91,23.75,114.53,38.41
			C1198.52,703.91,1207.09,812.52,1215.67,921.13z"/>
		<g>
			<path class="st4" d="M570.98,589.96c8.46-10.37,33.25,9.59,65.44,8.9c26.2-0.56,47.36-14.57,61.32-26.58
				c-10.09,10.48-20.18,20.96-30.27,31.44c-6.03,6.27-12.28,12.9-14.92,21.53c-4.16,13.61,1.65,28.26,7.7,41
				c14.9,31.36,32.06,61.44,51.26,89.86c1.81,2.68,3.7,5.5,4.13,8.8c0.57,4.36-1.51,8.57-3.68,12.28
				c-20.69,35.41-55.35,59.18-74.84,95.39c-15.59,28.95-20.73,64.55-40.89,89.89c-3.01,3.78-7.96,9.51-15.86,13.64
				c-18.74,9.8-38.52,2.36-53.94-3.45c-11.16-4.2-17.93-6.86-19.28-12.8c-2.17-9.54,11.2-20.49,19.28-27.53
				c43.15-37.56,74.36-84.27,84.73-102.42c10.63-18.59,17.45-38.82,27.46-48.01c0.94-0.86,3.78-3.34,4.09-7.04
				c0.61-7.19-8.78-13.47-12.27-16c-10.63-7.71-17.8-19.01-32.14-41.61c-14.59-22.99-5.63-27.88-23.96-97.3
				C569.71,602.42,567.04,594.79,570.98,589.96z"/>
		</g>
		<g>
			<g>
				<path class="st4" d="M788.52,530.94c0.5-0.46,1-0.91,1.52-1.34c0.21-0.17,0.42-0.34,0.62-0.51c1-0.85-0.7,0.5,0.35-0.28
					c1.07-0.79,2.15-1.54,3.28-2.24c1.01-0.62,2.03-1.2,3.08-1.75c0.58-0.3,1.17-0.59,1.76-0.87c0.3-0.14,0.59-0.27,0.89-0.41
					c0.18-0.08,0.36-0.16,0.54-0.24c-0.41,0.17-0.47,0.2-0.17,0.07c4.88-1.88,9.86-3.18,15.03-3.95c0.88-0.13,0.16-0.02-0.02,0
					c0.33-0.04,0.66-0.08,0.98-0.12c0.59-0.07,1.18-0.13,1.77-0.19c1.38-0.13,2.76-0.24,4.14-0.31c2.78-0.15,5.56-0.17,8.34-0.13
					c6.46,0.1,12.91,0.56,19.37,0.85c7.25,0.33,14.53,0.44,21.76-0.37c2.33-0.26,4.62-1.88,4.5-4.5c-0.1-2.21-1.99-4.78-4.5-4.5
					c-24.22,2.72-49.4-4.88-72.86,4.19c-6.2,2.4-11.85,5.72-16.76,10.23c-1.74,1.6-1.74,4.77,0,6.36
					C784.01,532.65,786.66,532.65,788.52,530.94L788.52,530.94z"/>
			</g>
		</g>
		<path class="st5" d="M1180.02,974.27c-41.89-3.97-85.15-7.22-129.73-9.6c-61.76-3.3-121.24-4.66-178.23-4.48
			c0-13.02,0-26.03,0-39.05c102.85,0.43,205.69,0.85,308.54,1.28C1180.41,939.7,1180.21,956.98,1180.02,974.27z"/>
		<g>
			<path class="st6" d="M714.35,641.05c12.14-19.6,29.96-34.92,50.23-43.17c-3.05,11.25,8.41,20.45,18.34,24.83
				c9.94,4.38,22.07,10.75,22.07,22.48c29.8-45.57,58.82-92.69,75.74-145.59c5.79-18.11,10.3-37.17,20.62-52.68
				s28.47-26.79,45.26-21.3c13.37,4.37,22.86,18.14,36.24,22.47c14.56,4.71,29.77-2.72,44.75-5.37s34.52,3.58,36.24,20.1
				c9.36-13.53,26.9-19.49,41.61-14.14c14.71,5.35,25.51,21.62,25.62,38.6c8.2-14.23,29.27-11.84,40.09,0.1s14.33,29.4,18.13,45.7
				c8.63,37.05,21.14,73.02,37.2,106.97c2.12-17.82,15.02-31.53,27.61-43.04c23.76-21.72,49.21-41.2,75.99-58.18
				c7.31,27.11,2.87,57.74-11.75,81.03c-2.33,3.72-4.99,7.48-5.51,11.96c-0.57,4.95,1.59,9.72,3,14.47
				c9.2,30.81-12.35,61.74-17.34,93.7c-5.17,33.11,7.89,66.36,23.77,95.1s35.12,55.91,44.43,87.92c0.24,0.81,0.5,5.44,1.27,13.5
				c2.56,26.67,2.79,26.52,2.54,27.51c-4.5,18.11-68.12,15.06-137.32,12.16c-28.47-1.19-51.16-2.08-63.69-2.56
				c-0.5-8.87-0.06-20.26,3.35-32.75c0.89-3.23,1.89-6.24,2.95-9.02c-12.16-6.75-19.73-22.3-18.06-37.12
				c1.65-14.66,11-26.6,17.96-39.25c16.56-30.09,20.24-67.11,15.82-101.91s-16.39-67.88-29.43-99.99
				c-8.76-21.56-18.31-43.3-33.41-60.13s-36.86-28.17-58.08-24.13c-15.06,2.87-28.8,13.12-44.09,12.9
				c-12.96-0.18-24.68-7.85-36.91-12.57c-22.54-8.7-49.27-6.73-68.33,9.08c-16.08,13.34-24.97,34.42-32.49,54.93
				c-18.88,51.51-33.18,105.89-33.58,161.4c-0.4,55.5,14.15,112.51,47.38,154.41c-14.44,10.09-31.29,12.27-47.77,7.19"/>
		</g>
		<g>
			<path class="st6" d="M713.91,640.72c9.88,13.82,17.52,29.54,22.47,46.23c2.88,9.72,4.88,19.82,8.92,29.04
				c4.98,11.35,12.88,20.92,21.74,28.95c7.86,7.13,17.41,14.92,17.5,26.1c0.06,8.22-5.2,15.19-10.17,21.35
				c-11.18,13.84-22.49,27.82-36.33,38.39c-4.27,3.26-8.89,6.33-11.67,11.15c-3.29,5.71-3.44,12.92-5.8,19.16
				c-3.09,8.15-9.71,14.03-13.88,21.59c-3.29,5.97-4.95,12.83-7.59,19.18c-7.55,18.19-22.87,31.8-28.94,50.64
				c-0.56,1.73,0.93,4.14,0.78,7.92c-0.4,9.67-5.54,13.52-4.55,16.41c1.97,5.78,26,0.42,43.83-2.56c27.71-4.64,20.88-0.28,71.88-6.4
				c23.02-2.76,40.88-5.63,49.55-7.08c9.27-1.54,17.17-2.98,23.2-4.13"/>
		</g>
		<g>
			<path class="st7" d="M1138.53,915.37c-69.93,1.92-139.86,3.84-209.78,5.76c-0.78-74.26-1.56-148.51-2.34-222.77
				c21.63-52.16,67.37-85.03,115.12-83.22c49.96,1.89,81.06,40.96,86.48,48.01c2.95,4.5,7.24,11.86,10.52,21.76
				c0,0,3.72,11.25,4.67,24.33C1144.56,727.86,1143.09,807.35,1138.53,915.37z"/>
			<g>
				<path class="st8" d="M1111.94,918.25H959.42V697.4c13.22-31.01,40.97-51.55,71.88-53.13c32.51-1.67,63.2,17.89,78.3,49.93
					C1110.38,768.89,1111.16,843.57,1111.94,918.25z"/>
				<line class="st9" x1="1040.07" y1="643.95" x2="1040.07" y2="879.52"/>
				<line class="st9" x1="995.66" y1="655.47" x2="995.66" y2="880.16"/>
				<line class="st9" x1="1085.09" y1="663.16" x2="1085.09" y2="879.52"/>
				<rect x="960.89" y="879.52" class="st10" width="150.18" height="38.41"/>
				<rect x="1075.42" y="767.5" class="st11" width="19.28" height="60.81"/>
				<ellipse class="st12" cx="1085.35" cy="754.7" rx="7.6" ry="8.32"/>
			</g>
		</g>
		<g>
			<g>
				<path class="st4" d="M831.59,710.11c13.96-6.14,27.91-12.28,41.87-18.42c2.16-0.95,2.83-4.28,1.61-6.16
					c-1.44-2.24-3.84-2.63-6.16-1.61c-13.96,6.14-27.91,12.28-41.87,18.42c-2.16,0.95-2.83,4.28-1.61,6.16
					C826.87,710.73,829.27,711.13,831.59,710.11L831.59,710.11z"/>
			</g>
		</g>
		<g>
			<g>
				<path class="st4" d="M1219.82,976.99c10.02-16.52,16.95-34.97,20.48-53.95c1.8-9.71,2.8-19.59,2.87-29.47
					c0.07-10.36-0.84-20.69-1.3-31.03c-0.25-5.77-0.37-11.55-0.08-17.32c0.14-2.82,0.36-5.64,0.74-8.43
					c-0.09,0.68,0.02-0.1,0.03-0.2c0.07-0.46,0.14-0.93,0.21-1.39c0.11-0.7,0.24-1.39,0.37-2.08c0.28-1.47,0.6-2.93,0.95-4.38
					c0.56-2.28-0.73-4.99-3.14-5.54c-2.32-0.53-4.94,0.7-5.54,3.14c-5.01,20.4-1.73,41.32-1.29,62c0.11,4.93,0.02,9.86-0.31,14.78
					c-0.16,2.36-0.37,4.73-0.63,7.08c-0.07,0.59-0.13,1.18-0.21,1.76c-0.04,0.29-0.07,0.59-0.11,0.88
					c-0.02,0.13-0.12,0.88-0.01,0.12c-0.16,1.17-0.33,2.34-0.52,3.51c-1.5,9.46-3.84,18.79-7,27.83c-0.87,2.49-1.8,4.96-2.79,7.4
					c-0.11,0.27-0.22,0.54-0.33,0.81c0.01-0.03-0.45,1.09-0.28,0.68c0.19-0.46-0.16,0.38-0.2,0.47c-0.14,0.34-0.29,0.67-0.44,1
					c-0.53,1.2-1.07,2.4-1.63,3.58c-2.28,4.86-4.83,9.59-7.61,14.18c-1.22,2.01-0.51,5.03,1.61,6.16
					C1215.85,979.76,1218.52,979.14,1219.82,976.99L1219.82,976.99z"/>
			</g>
		</g>
		<g>
			<g>
				<path class="st4" d="M1302.69,978.24c-0.08-1.84-0.08-3.69,0.01-5.53c0.04-0.92,0.11-1.84,0.19-2.76
					c0.04-0.46,0.09-0.92,0.14-1.37c0.03-0.31,0.2-1.45,0.07-0.56c0.58-3.7,1.38-7.33,2.55-10.89c0.26-0.81,0.54-1.61,0.84-2.4
					c0.16-0.43,0.32-0.85,0.49-1.28c0.1-0.24,0.2-0.48,0.29-0.72c0.25-0.64-0.28,0.63,0,0c0.75-1.65,1.51-3.29,2.37-4.89
					c0.89-1.64,1.84-3.24,2.88-4.79c0.46-0.69,0.93-1.37,1.42-2.04c0.26-0.36,0.53-0.72,0.8-1.07c-0.04,0.05-0.44,0.55-0.12,0.16
					c0.2-0.24,0.39-0.5,0.6-0.74c1.24-1.51,2.55-2.96,3.94-4.34c0.71-0.7,1.44-1.39,2.2-2.05c0.37-0.33,0.75-0.65,1.14-0.97
					c0.14-0.12,0.29-0.24,0.43-0.36c0.09-0.08,1.08-0.85,0.26-0.22c1.86-1.43,3.05-3.94,1.61-6.16c-1.18-1.84-4.16-3.15-6.16-1.61
					c-12.77,9.83-21.31,24.54-23.99,40.43c-0.79,4.69-1.17,9.43-0.97,14.18c0.1,2.35,2,4.61,4.5,4.5
					C1300.54,982.63,1302.79,980.76,1302.69,978.24L1302.69,978.24z"/>
			</g>
		</g>
		<g>
			<path class="st4" d="M1455.73,699.36c-9.14-0.59-18.63,7.07-22.88,17.07c-4.2,9.87-3.15,19.09-1.84,39.73
				c0.85,13.36,1.34,27.58-3.21,39.38c-20.64-32.97-47.25-58.58-76.64-73.76c-6.44,31.41-3.74,54.71-1.42,67.17
				c3.87,20.7,11.6,37.54,18.76,53.13c6.94,15.11,12.11,21.4,19.68,40.97c2.93,7.58,6.14,16.85,8.92,28.49
				c3.6,15.07,5.4,22.61,4.58,32.01c-1.47,16.78-9.58,24.33-7.09,29.77c1.89,4.12,7.92,2.59,15.56,1.28
				c25.07-4.3,37.61-6.46,41.18-7.68c20.46-7.02,30.67-10.62,37.06-19.84c5.18-7.47,4.37-11.22,11.67-45.77
				c6.03-28.56,10.03-58.08,17.84-85.78c0.99-3.51,3.28-11.35,2.29-21.12c-0.75-7.44-3.13-13.32-6.86-20.48
				c-8.09-15.53-16.42-25.38-18.76-28.17C1467.02,712.88,1467.1,700.09,1455.73,699.36z"/>
		</g>
	</g>
	<g>
		<rect x="1412.58" y="803.53" class="st0" width="37.14" height="219.91"/>
		<g>
			<path class="st1" d="M1409.28,872.7c-10.65,4.76-23.38,0.86-32.47-6.67s-15.3-18.15-21.31-28.54
				c-4.54-7.85-9.2-16.03-10.12-25.16s3.04-19.5,11.24-22.69c-19.87-16.89-22.09-52.09-4.5-71.57c8.9-9.86,24.89-15.08,34.6-6.09
				c7.53-12.65,19.39-23.81,33.56-24.74s29.13,12.49,26.34,27.11c13.71-9.01,32.22-12.29,45.9-3.21
				c13.68,9.07,17.61,32.86,4.72,43.12c7.84,0.8,15.97,1.69,22.75,5.91s11.79,12.78,9.62,20.73c-3.44,12.61-21.16,15.39-25.56,27.66
				c5.4,2.3,10.8,4.59,16.21,6.89c-5.84,12.9-17.18,22.93-30.28,26.77c7.84,4.37,6.07,17.88-1.09,23.38s-16.79,5.33-25.66,4.93
				c-20.21-0.91-40.42-1.82-60.63-2.74"/>
		</g>
	</g>
	<g>
		<rect x="531.24" y="785.79" class="st0" width="37.14" height="219.91"/>
		<g>
			<path class="st1" d="M527.94,854.97c-10.65,4.76-23.38,0.86-32.47-6.67s-15.3-18.15-21.31-28.54
				c-4.54-7.85-9.2-16.03-10.12-25.16c-0.92-9.13,3.04-19.5,11.24-22.69c-19.87-16.89-22.09-52.09-4.5-71.57
				c8.9-9.86,24.89-15.08,34.6-6.09c7.53-12.65,19.39-23.81,33.56-24.74s29.13,12.49,26.34,27.11c13.71-9.01,32.22-12.29,45.9-3.21
				c13.68,9.07,17.61,32.86,4.72,43.12c7.84,0.8,15.97,1.69,22.75,5.91s11.79,12.78,9.62,20.73c-3.44,12.61-21.16,15.39-25.56,27.66
				c5.4,2.3,10.8,4.59,16.21,6.89c-5.84,12.9-17.18,22.93-30.28,26.77c7.84,4.37,6.07,17.88-1.09,23.38
				c-7.16,5.5-16.79,5.33-25.66,4.93c-20.21-0.91-40.42-1.82-60.63-2.74"/>
		</g>
	</g>
	<g>
		<rect x="375.9" y="821.26" class="st0" width="37.14" height="219.91"/>
		<g>
			<path class="st1" d="M372.61,890.44c-10.65,4.76-23.38,0.86-32.47-6.67c-9.09-7.53-15.3-18.15-21.31-28.54
				c-4.54-7.85-9.2-16.03-10.12-25.16c-0.92-9.13,3.04-19.5,11.24-22.69c-19.87-16.89-22.09-52.09-4.5-71.57
				c8.9-9.86,24.89-15.08,34.6-6.09c7.53-12.65,19.39-23.81,33.56-24.74c14.17-0.93,29.13,12.49,26.34,27.11
				c13.71-9.01,32.22-12.29,45.9-3.21c13.68,9.07,17.61,32.86,4.72,43.12c7.84,0.8,15.97,1.69,22.75,5.91s11.79,12.78,9.62,20.73
				c-3.44,12.61-21.16,15.39-25.56,27.66c5.4,2.3,10.8,4.59,16.21,6.89c-5.84,12.9-17.18,22.93-30.28,26.77
				c7.84,4.37,6.07,17.88-1.09,23.38s-16.79,5.33-25.66,4.93c-20.21-0.91-40.42-1.82-60.63-2.74"/>
		</g>
	</g>
</g>
<g>
	<g>
		<path class="st13" d="M763.23,1022.54c-10.69,0-17.7-1.34-21.41-4.11c-3.84-2.86-5.79-8.33-5.79-16.25v-21.63h-12.65
			c-0.48,0-0.54,0.08-0.62,0.33c-2.69,10.18-7.47,18.62-14.2,25.09c-6.71,6.44-16.78,11.73-29.91,15.71l-0.1,0.03
			c-1.2,0.3-2.35,0.45-3.41,0.45c-1.65,0-3.33-0.3-4.98-0.9l-0.13-0.05c-2.69-1.2-4.89-3.09-6.53-5.62c-0.87-1.38-1.3-2.79-1.3-4.21
			c0-0.87,0.17-1.81,0.5-2.79c0.89-2.51,2.68-4.1,5.19-4.64c9.88-2.5,17.42-5.76,22.32-9.67c4.57-3.64,7.95-8.26,10.06-13.72h-3.05
			c-5.22,0-9.73-1.87-13.43-5.57c-3.69-3.69-5.57-8.21-5.57-13.43V943.4c0-5.21,1.87-9.75,5.55-13.51c3.7-3.77,8.22-5.68,13.44-5.68
			h22.66c0.11,0,0.16-0.02,0.16-0.02l0.03-0.07l0.05-0.12c1.89-3.15,3.36-5.9,4.38-8.18c0.31-0.67,0.67-1.2,1.05-1.61
			c-2.55-1.86-6-4.18-10.31-6.92v6.02c0,2.49-0.89,4.65-2.64,6.39c-1.75,1.75-3.87,2.64-6.3,2.64s-4.55-0.89-6.3-2.64
			c-1.75-1.75-2.64-3.9-2.64-6.39v-6.51c-4.58,4.42-9.46,8.22-14.53,11.34c-1.54,0.95-3.19,1.43-4.89,1.43
			c-0.63,0-1.28-0.07-1.93-0.2c-2.3-0.48-4.34-1.67-6.05-3.54l-0.08-0.1c-1.39-1.73-1.94-3.77-1.58-5.88
			c0.36-2.19,1.68-3.91,3.81-4.97c5.95-2.98,11.59-6.82,16.79-11.45h-11.4c-2.11,0-3.93-0.76-5.42-2.25
			c-1.49-1.48-2.24-3.34-2.24-5.51c0-2.17,0.76-4.03,2.25-5.52c1.49-1.49,3.31-2.25,5.42-2.25h19.88v-1.91
			c0-1.99,0.57-3.74,1.68-5.23h-32.06v44.68c0,42.92-5.32,76.39-15.8,99.46c-1.17,2.51-3.25,4.11-6.03,4.63
			c-0.56,0.17-1.18,0.25-1.85,0.25c-2.16,0-4.16-0.74-5.95-2.21c-2.29-1.99-3.81-4.35-4.57-7.07c-0.31-1.06-0.46-2.3-0.46-3.66
			c0-1.72,0.39-3.44,1.16-5.13c8.04-19.14,12.19-48.19,12.32-86.29v-45.31c0-5.21,1.87-9.73,5.57-13.43
			c3.69-3.69,8.21-5.57,13.43-5.57h54.45v-3.66c0-3.13,1.11-5.87,3.3-8.13c2.21-2.28,4.96-3.44,8.18-3.44c3.2,0,5.98,1.15,8.25,3.42
			c2.27,2.27,3.42,5.02,3.42,8.15v3.66h65.19c2.6,0,4.91,0.94,6.85,2.8c1.97,1.88,2.96,4.21,2.96,6.91c0,2.69-0.99,5.04-2.93,6.98
			c-1.94,1.94-4.26,2.93-6.88,2.93h-23.93c1.14,1.54,1.71,3.29,1.71,5.23v1.91h21.63c2.08,0,3.92,0.74,5.47,2.21
			c1.58,1.5,2.39,3.37,2.39,5.56c0,2.2-0.8,4.06-2.39,5.56c-1.55,1.46-3.39,2.21-5.47,2.21h-12.59c5.14,4.24,10.99,8.09,17.43,11.46
			c1.99,1.09,3.22,2.83,3.58,5.07c0.36,2.26-0.31,4.31-1.93,5.93c-1.65,1.81-3.65,2.99-5.88,3.47c-0.68,0.15-1.38,0.22-2.08,0.22
			c-1.59,0-3.22-0.38-4.85-1.14l-0.13-0.06l-0.12-0.08c-5.1-3.36-10.16-7.38-15.06-11.97v6.98c0,2.47-0.84,4.61-2.5,6.36
			c-1.69,1.77-3.85,2.67-6.43,2.67c-2.56,0-4.74-0.89-6.49-2.64c-1.75-1.75-2.64-3.9-2.64-6.39v-6.13
			c-5.72,5.48-11.88,10.03-18.33,13.55l-0.15,0.07c-0.62,0.27-1.24,0.41-1.86,0.41c-0.46,0-1.01-0.08-1.61-0.33
			c-0.67,0.9-1.51,2.01-2.52,3.32h39.55c5.22,0,9.73,1.87,13.43,5.57c3.69,3.69,5.57,8.28,5.57,13.62v19.34
			c0,4.82-1.74,9.03-5.16,12.53c-3.44,3.51-7.7,5.29-12.66,5.29c-0.36,0-0.52,0.07-0.68,0.33c-0.29,0.97-0.77,2.33-1.45,4.14
			c-0.5,1.32-0.89,2.4-1.16,3.22l7.14-0.26c-0.68-1.49-0.78-3.09-0.29-4.66c0.58-1.85,1.84-3.14,3.62-3.74
			c1.19-0.45,2.41-0.69,3.56-0.69c2.84,0,5.27,1.24,7.23,3.68l0.07,0.09c2.64,3.7,4.99,7.45,6.97,11.15
			c0.16,0.27,0.38,0.39,0.54,0.45c3.27,1.49,5.85,3.63,7.75,6.39c1.27,1.91,1.91,3.93,1.91,6.01c0,1.09-0.16,2.19-0.47,3.28
			l-0.03,0.11c-1.59,4.62-4.06,7.91-7.35,9.78c-3.21,1.82-7.68,2.7-13.69,2.7H763.23z M756.05,1002.18c0,0.85,0.11,2.33,0.85,2.7
			c0.46,0.23,2.15,0.76,7.89,0.76h30.27c2.85,0,3.99-0.5,4.41-0.81c0.21-0.15,0.52-0.46,0.85-1.1c-0.77-0.07-1.52-0.29-2.25-0.65
			c-1.35-0.67-2.44-1.65-3.26-2.92c-3.98,0.49-9.2,0.98-15.51,1.46c-6.77,0.52-11.16,0.91-13.07,1.16c-0.32,0.03-0.56,0.04-0.8,0.04
			c-1.67,0-3.22-0.54-4.6-1.62c-1.57-1.22-2.54-2.81-2.89-4.74l-0.02-0.09l-0.01-0.09c-0.18-1.96,0.33-3.7,1.51-5.16
			c1.19-1.47,2.8-2.31,4.79-2.49l0.09-0.01h0.51c0.88-3.03,1.55-5.74,2.02-8.11h-10.8V1002.18z M780.56,965.22v-6.16h-31.16v6.16
			H780.56z M728.81,965.22v-6.16h-30.57v6.16H728.81z M780.56,945.5v-5.96h-31.16v5.96H780.56z M728.81,945.5v-5.96h-30.57v5.96
			H728.81z M740.09,914.57c-0.46-1.41-0.54-2.93-0.2-4.5c0.57-2.68,2.01-4.78,4.29-6.25l0.08-0.05l0.08-0.04
			c5.4-2.81,10.4-6.26,14.9-10.29h-8.7c-2.08,0-3.93-0.74-5.48-2.21c-1.58-1.49-2.38-3.36-2.38-5.56c0-2.19,0.8-4.06,2.38-5.56
			c1.55-1.46,3.4-2.21,5.48-2.21h16.75l0-1.91c0-1.94,0.6-3.69,1.78-5.23h-55.52c1.12,1.48,1.68,3.23,1.68,5.23v1.91h18.31
			c2.08,0,3.92,0.74,5.47,2.21c1.58,1.5,2.39,3.37,2.39,5.56c0,2.2-0.8,4.06-2.39,5.56c-1.55,1.46-3.39,2.21-5.47,2.21h-14.03
			c3.13,1.45,6.43,3.06,9.86,4.81c3.37,1.53,5.45,4.21,5.94,7.7c0.15,0.77,0.22,1.54,0.22,2.28c0,1.89-0.51,3.69-1.53,5.38
			L740.09,914.57z"/>
		<path class="st13" d="M967.04,1023.13c-3.08,0-5.75-1.12-7.96-3.32c-2.2-2.21-3.32-4.92-3.32-8.06V941
			c-8.28,18.22-17.58,33.56-27.72,45.67c-1.69,2.03-3.85,3.06-6.42,3.06h-1.34l-0.16-0.03c-2.89-0.48-5.24-2.01-6.98-4.55
			c-1.54-2.46-2.3-5.12-2.3-7.97c0-3.72,1.21-7.05,3.6-9.88c7.71-8.73,14.91-19.26,21.45-31.31c6.43-11.85,11.76-24.13,15.85-36.5
			h-19.56c-3.01,0-5.59-1.05-7.67-3.13c-2.07-2.07-3.12-4.65-3.12-7.66c0-3.01,1.05-5.59,3.13-7.66c2.07-2.07,4.65-3.13,7.66-3.13
			h23.59v-31.01c0-3.01,1.12-5.66,3.32-7.86c2.2-2.2,4.88-3.32,7.96-3.32c3.09,0,5.77,1.16,7.98,3.44c2.19,2.27,3.3,4.87,3.3,7.74
			v31.01h25.73c2.99,0,5.6,1.04,7.73,3.1l3.25,3.13v4.56c0,3.03-1.09,5.62-3.25,7.69c-2.13,2.05-4.74,3.1-7.73,3.1H983.5
			c8.33,26.72,18.74,48.78,30.95,65.57c1.69,2.3,2.48,4.89,2.34,7.67v1.01l-0.01,0.09c-0.3,3.33-1.62,6.18-3.9,8.46
			c-2.03,2.19-4.62,3.32-7.66,3.32h-0.2c-3.34-0.16-5.92-1.63-7.56-4.26c-6.69-10.59-13.12-24.04-19.16-40.07v70.45
			c0,3.14-1.12,5.85-3.32,8.05C972.79,1022.01,970.11,1023.13,967.04,1023.13z M879.44,1023.13c-3,0-5.63-1.08-7.83-3.2
			c-2.22-2.14-3.35-4.83-3.35-7.98v-69.61c-6.1,14.65-12.54,26.99-19.2,36.75c-1.55,2.24-3.74,3.41-6.34,3.41h-0.89l-0.11-0.01
			c-2.97-0.33-5.32-1.89-6.8-4.52c-1.47-2.64-2.21-5.46-2.21-8.4v-1.06l0.01-0.08c0.29-3.45,1.32-6.53,3.06-9.15l0.06-0.08
			c5.89-7.94,11.47-17.39,16.6-28.09c5.04-10.52,9.15-21.16,12.21-31.61h-19.39c-2.87,0-5.41-1.04-7.54-3.1
			c-2.16-2.07-3.25-4.66-3.25-7.69c0-3.03,1.09-5.61,3.25-7.69c2.14-2.06,4.67-3.1,7.54-3.1h23v-31.2c0-3.03,1.13-5.65,3.35-7.79
			c2.2-2.12,4.83-3.2,7.83-3.2c3,0,5.63,1.08,7.83,3.2c2.22,2.14,3.35,4.76,3.35,7.79v31.2h16.36c2.87,0,5.4,1.04,7.54,3.1
			c2.16,2.08,3.25,4.67,3.25,7.69c0,3.03-1.09,5.62-3.25,7.69c-2.13,2.05-4.67,3.1-7.54,3.1h-16.36c0.01,0.78,0.28,1.45,0.83,2.11
			c4.83,4.84,12.8,13.66,23.68,26.23c2.28,2.73,3.42,5.92,3.42,9.51c0,3.3-0.99,6.21-2.95,8.64c-1.67,2.3-4.04,3.52-6.86,3.52
			l-0.5,0c-2.95-0.16-5.38-1.55-7.02-4.01c-3.18-4.66-6.73-9.77-10.59-15.23v81.7c0,3.16-1.13,5.84-3.35,7.98
			C885.07,1022.05,882.44,1023.13,879.44,1023.13z"/>
		<path class="st13" d="M1095.06,1023.13c-2.8,0-5.32-0.93-7.49-2.78c-2.23-1.66-3.88-3.84-4.92-6.51c-0.88-2.45-0.6-4.84,0.77-6.98
			c1.33-2.08,3.26-3.18,5.58-3.18c0.15,0,0.3,0,0.46,0.01h11.94c1.17-0.13,1.54-0.41,1.61-0.47c0.06-0.05,0.21-0.34,0.21-1.04
			v-30.62h-40.38c-0.22,0-0.3,0.04-0.3,0.04c0,0,0,0,0,0c0.01,0-0.03,0.08-0.07,0.23c-1.85,17.83-5.73,32.62-11.53,43.96
			c-1.17,2.33-3.19,3.88-5.84,4.46c-0.72,0.16-1.44,0.24-2.13,0.24c-1.8,0-3.5-0.53-5.03-1.57c-2.24-1.31-3.71-3.26-4.37-5.82
			c-0.31-0.95-0.47-1.93-0.47-2.9c0-1.45,0.32-2.91,0.95-4.33c7.28-14.7,10.96-36.61,10.96-65.2v-28.42c-0.01,0-0.03,0-0.04,0
			c-1.1,0-2.14-0.48-3.08-1.42c-1.47-1.34-3.02-2.7-4.55-3.98c-2.16-1.69-3.45-3.98-3.81-6.78c-0.15-0.52-0.23-1.06-0.23-1.59
			c0-2.26,0.73-4.37,2.16-6.28c9.32-12.38,16.76-28.07,22.14-46.62c0.78-2.81,2.45-5.04,4.96-6.61c1.74-1.11,3.68-1.67,5.75-1.67
			c0.85,0,1.7,0.16,2.54,0.47c2.82,0.66,4.97,2.21,6.4,4.6c0.97,1.61,1.46,3.34,1.46,5.13c0,0.99-0.17,1.99-0.49,2.97
			c-0.36,1.17-0.73,2.32-1.12,3.42h18.25c0.66-0.19,1.31-0.28,1.95-0.28c1.32,0,2.57,0.4,3.72,1.18l3.31,1.95l0.05,0.03
			c1.93,1.29,3.28,3.05,4.01,5.23c0.73,2.2,0.69,4.4-0.13,6.53c-2.47,5.93-5.25,11.9-8.28,17.79h7.58c4.19,0,7.76,1.48,10.61,4.41
			c2.47,2.54,3.89,5.55,4.21,8.95c7.15-3.63,12.68-8.23,16.45-13.67c3.98-5.76,6.9-12.72,8.67-20.69h-14.74
			c-2.63,0-4.91-0.95-6.79-2.83c-1.88-1.87-2.83-4.19-2.83-6.88c0-2.69,0.95-5,2.83-6.88s4.16-2.83,6.79-2.83h62.3
			c5.23,0,9.72,1.92,13.36,5.69c3.35,3.5,5.05,7.64,5.05,12.32l0,1.08c-0.66,12.53-1.52,21.98-2.57,28.07
			c-1.12,6.49-2.68,10.8-4.76,13.19c-2.74,3.46-7.06,5.62-12.78,6.33c-2.31,0.27-5.52,0.41-9.82,0.41H1181
			c-0.59,0-1.16-0.04-1.73-0.13c0.23,0.19,0.45,0.39,0.67,0.6c2.16,2.08,3.25,4.67,3.25,7.69v8.35h22.61c2.75,0,5.13,0.99,7.08,2.93
			c1.94,1.94,2.93,4.33,2.93,7.08s-0.99,5.13-2.93,7.08c-1.94,1.94-4.33,2.93-7.08,2.93h-22.61v17.68h26.32
			c2.75,0,5.13,0.99,7.08,2.93c1.94,1.94,2.93,4.33,2.93,7.08c0,2.74-0.98,5.14-2.9,7.15c-1.94,2.03-4.33,3.06-7.11,3.06h-26.32
			v24.37c0,2.88-1.08,5.43-3.22,7.57c-2.14,2.14-4.72,3.22-7.66,3.22c-2.96,0-5.52-1.09-7.59-3.25c-2.05-2.13-3.1-4.67-3.1-7.54
			v-24.37h-29.64c-2.77,0-5.16-1.03-7.11-3.06c-1.14-1.19-1.95-2.51-2.42-3.97v22.02c0,8.95-2.65,14.93-7.88,17.77l-0.08,0.04
			l-0.08,0.04c-3.91,1.68-10.15,2.62-19.09,2.9l-0.03,0H1095.06z M1122.45,974.02c0.47-1.45,1.29-2.76,2.45-3.92
			c1.94-1.94,4.33-2.93,7.08-2.93h29.64V949.5h-15.77c-0.56,0-0.73,0.17-0.91,0.57c-1.31,3.26-2.86,6.45-4.6,9.39
			c-1.28,2.39-3.28,3.98-5.93,4.63l-0.08,0.02l-0.08,0.01c-0.88,0.15-1.72,0.22-2.48,0.22c-1.75,0-3.43-0.4-5-1.19l-0.09-0.05
			c-2.07-1.18-3.49-2.86-4.24-4.99V974.02z M1103.22,953.31v-16.12h-11.04v16.12H1103.22z M1075.09,953.31v-16.12h-11.23v16.12
			H1075.09z M1122.45,951.37c0.16-0.38,0.34-0.76,0.55-1.14c4.58-8.02,8.33-17.84,11.13-29.19c0.64-2.59,2.12-4.64,4.38-6.09
			c1.63-1.05,3.39-1.58,5.22-1.58c0.7,0,1.43,0.08,2.15,0.24c2.6,0.57,4.66,1.97,6.12,4.17c1.48,2.23,1.91,4.76,1.26,7.52
			c-0.3,1.32-0.66,2.72-1.06,4.18h9.42v-8.35c0-3.01,1.05-5.59,3.13-7.66s4.62-3.13,7.57-3.13c0.63,0,1.23,0.05,1.83,0.14
			c-0.14-0.12-0.28-0.24-0.42-0.36c-2.04-1.82-3.46-4.11-4.21-6.82c-0.54-2.34-0.11-4.49,1.26-6.46c1.33-1.91,3.24-2.92,5.51-2.92
			c0.18,0,0.37,0.01,0.56,0.02c2.38,0.13,5.1,0.19,8.06,0.19l0.1,0c0.2,0.01,0.4,0.01,0.59,0.01c1.59,0,2.67-0.34,3.21-1.03
			l0.07-0.08c0.8-0.9,2.78-5.41,3.98-27.77l-23.78,0.05c-0.22,0-0.3,0.04-0.3,0.04c0,0,0,0,0,0c0.01,0-0.04,0.1-0.08,0.31
			c-1.85,10.03-4.88,18.91-9,26.36c-4.16,7.52-10.14,14.11-17.77,19.6l-0.08,0.05l-0.08,0.05c-2.32,1.36-4.69,2.05-7.05,2.05
			c-0.22,0-0.44-0.01-0.67-0.02c-1.22-0.01-2.51-0.23-3.84-0.67c-2.79-0.76-5.39-2.13-7.78-4.08V951.37z M1103.22,919.33v-14.95
			h-11.04v14.95H1103.22z M1075.09,919.33v-14.95h-11.23v14.95H1075.09z M1078.85,886.32c0.51,0,0.71-0.12,0.91-0.57
			c1.69-3.75,3.53-8.25,5.46-13.4h-14.57c-0.56,0-0.73,0.17-0.91,0.57c-2.11,5.05-4.17,9.56-6.1,13.4H1078.85z"/>
		<path class="st13" d="M1266.35,1023.52c-3.15,0-5.84-1.13-7.98-3.35c-2.12-2.2-3.2-4.84-3.2-7.83V972.5c0-3,1.08-5.63,3.2-7.83
			c2.14-2.22,4.79-3.35,7.89-3.35c3.07,0,5.75,1.12,7.96,3.32c2.21,2.21,3.32,4.85,3.32,7.86v21.63h35.84v-31.98
			c0-3.14,1.12-5.85,3.32-8.05c0.84-0.85,1.77-1.53,2.76-2.05h-5.83c-9.06,0-15.5-0.81-19.69-2.49c-0.41-0.16-0.78-0.25-1.11-0.25
			c-0.27,0-0.53,0.06-0.77,0.18l-0.1,0.05c-12.12,5.21-25.2,9.97-38.88,14.14l-0.07,0.02l-0.07,0.02c-1.3,0.29-2.56,0.44-3.76,0.44
			c-1.66,0-3.34-0.3-4.98-0.9c-3.02-1.2-5.42-3.08-7.2-5.61c-1.03-1.54-1.54-3.17-1.54-4.86c0-0.88,0.17-1.76,0.5-2.62
			c0.87-2.7,2.77-4.49,5.5-5.18c14.94-3.86,28.91-8.5,41.51-13.77c0.36-0.16,0.53-0.33,0.53-0.89v-29.69c0-2.74,1.01-5.18,3-7.25
			c2.01-2.09,4.5-3.15,7.4-3.15c2.89,0,5.38,1.06,7.4,3.15c1.99,2.07,3,4.51,3,7.25v20.67c19.45-10.13,35.22-22.18,46.87-35.84
			c1.96-2.26,4.4-3.79,7.26-4.54c1.05-0.3,2.15-0.46,3.25-0.46c1.84,0,3.63,0.39,5.32,1.16c2.62,1.15,4.37,3.24,5.03,6.05
			c0.66,2.82,0.04,5.45-1.79,7.61c-11.88,13.94-27.42,26.75-46.24,38.11h25.77c3.72,0,5.31-0.73,5.98-1.34
			c0.57-0.51,1.6-2.01,2.19-6.31c0.34-2.42,1.65-4.36,3.79-5.64c1.21-0.73,2.5-1.1,3.83-1.1c1.02,0,2.06,0.22,3.1,0.66
			c2.56,0.92,4.7,2.53,6.36,4.78l0.08,0.11c1.11,1.76,1.68,3.69,1.68,5.76v1.75l-0.03,0.18c-1.41,7.61-3.92,12.7-7.69,15.58
			c-3.71,2.84-9.45,4.22-17.52,4.22h-21.46c0.99,0.52,1.91,1.21,2.76,2.05c2.21,2.21,3.32,4.92,3.32,8.06v31.98h38.19v-21.44
			c0-3.14,1.12-5.85,3.32-8.05s4.88-3.32,7.96-3.32c3.07,0,5.75,1.12,7.96,3.32c2.21,2.21,3.32,4.92,3.32,8.06v39.06
			c0,3.14-1.12,5.85-3.32,8.05c-2.21,2.21-4.85,3.32-7.86,3.32h-2.34c-2.49,0-4.65-0.89-6.39-2.64c-1.46-1.46-2.32-3.19-2.56-5.18
			h-96.92c-0.25,2.1-1.14,3.94-2.66,5.47c-1.82,1.82-4.07,2.74-6.69,2.74H1266.35z M1405.42,941.29c-0.65,0-1.38-0.08-2.15-0.23
			c-2.83-0.63-5.13-2.05-6.84-4.24c-5.93-8.12-13.47-16.5-22.46-24.97c-1.83-1.66-2.78-3.74-2.78-6.14c0-3.02,1.33-5.42,3.84-6.95
			c2.01-1.38,4.35-2.08,6.95-2.08l0.69,0c2.94,0.16,5.46,1.19,7.5,3.07c9.53,8.49,17.49,16.79,23.66,24.65
			c1.33,1.84,1.99,3.87,1.99,6.12c0,0.65-0.08,1.31-0.24,1.97c-0.49,2.83-1.93,5.14-4.29,6.87
			C1409.33,940.66,1407.38,941.29,1405.42,941.29z M1249.17,938.36c-3.01,0-5.75-0.91-8.16-2.69c-2.23-1.41-3.41-3.6-3.41-6.34
			c0-2.65,1.01-4.92,2.99-6.75c6.44-5.55,11.66-12.62,15.55-21.05c1.1-2.51,2.95-4.37,5.51-5.48c1.42-0.63,2.78-0.95,4.02-0.95
			c1.21,0,2.46,0.24,3.73,0.71c2.6,0.98,4.49,2.78,5.62,5.37c0.62,1.24,0.95,2.59,0.95,3.93c0,1.28-0.24,2.57-0.71,3.83l-0.04,0.09
			c-4.78,11.02-10.73,19.79-17.68,26.08c-2.16,2-4.88,3.1-8.08,3.25l-0.05,0H1249.17z M1327.24,901.52c-2.13,0-4.09-0.69-5.85-2.04
			c-6.33-4.43-13.61-8.71-21.55-12.69c-2.22-1.02-3.66-2.84-4.1-5.24c-0.43-2.31,0.05-4.44,1.42-6.32l0.07-0.09l0.08-0.08
			c0.87-0.95,1.83-1.72,2.87-2.31h-39.04V885c0,3.01-1.08,5.62-3.22,7.76c-2.14,2.14-4.78,3.22-7.86,3.22
			c-3.09,0-5.75-1.13-7.89-3.35c-2.12-2.2-3.2-4.77-3.2-7.64v-14.06c0-5.21,1.87-9.73,5.57-13.43s8.21-5.57,13.43-5.57h55.23v-4.45
			c0-3.42,1.13-6.24,3.35-8.37c2.2-2.12,4.93-3.2,8.13-3.2c3.2,0,5.95,1.12,8.15,3.32c2.21,2.21,3.32,4.98,3.32,8.25v4.45h56.59
			c5.21,0,9.73,1.87,13.43,5.57s5.57,8.21,5.57,13.43v13.48c0,3.12-1.07,5.84-3.17,8.1c-2.14,2.3-4.9,3.47-8.2,3.47
			c-3.29,0-6.07-1.16-8.28-3.44c-2.19-2.26-3.29-4.99-3.29-8.13v-11.67h-77.13c8.21,3.79,15.41,7.74,21.46,11.77
			c2.3,1.48,3.66,3.68,3.91,6.36c0.24,2.59-0.45,4.97-2.07,7.07c-1.68,2.02-3.82,3.18-6.42,3.5
			C1328.09,901.49,1327.66,901.52,1327.24,901.52z"/>
	</g>
</g>
</svg>
