<?xml version="1.0" encoding="utf-8"?>
<!-- Generator: Adobe Illustrator 23.0.5, SVG Export Plug-In . SVG Version: 6.00 Build 0)  -->
<svg version="1.1" id="圖層_1" xmlns="http://www.w3.org/2000/svg" xmlns:xlink="http://www.w3.org/1999/xlink" x="0px" y="0px"
	 viewBox="0 0 1920 1080" style="enable-background:new 0 0 1920 1080;" xml:space="preserve">
<style type="text/css">
	.st0{fill:#87593A;}
	.st1{fill:#7F8E92;}
	.st2{fill:#F9B622;}
	.st3{fill:#DDEFF4;}
	.st4{fill:#788C8E;}
	.st5{fill:#474143;}
	.st6{fill:#C21824;}
	.st7{fill:#280811;}
	.st8{fill:#A1A9AC;}
	.st9{fill:#26080B;}
	.st10{fill:#889398;}
	.st11{fill:#2C0A0E;}
	.st12{fill:#FDFDFD;}
	.st13{fill:url(#SVGID_1_);}
	.st14{fill:#2A0914;}
	.st15{fill:#290C14;}
	.st16{fill:#2B0C14;}
	.st17{fill:#FDFBFC;}
	.st18{fill:#FFFFFF;}
	.st19{fill:#EEF8FB;}
	.st20{fill:#FAFBFA;}
	.st21{fill:#FE6671;}
	.st22{fill:#FF6C3E;}
	.st23{fill:#FFBE3E;}
	.st24{fill:none;stroke:#000000;stroke-width:2;stroke-miterlimit:10;}
	.st25{fill:#FFFFFF;stroke:#000000;stroke-width:6;stroke-miterlimit:10;}
</style>
<g>
	<path class="st0" d="M664.75,321.22C733.07,520.08,768.62,729.36,823.2,932.8c0.75,2.8,1.68,5.86,4.03,7.43
		c1.81,1.2,4.09,1.25,6.24,1.26c14.75,0.09,29.52,0.19,44.27,0.28c1.54,0.01,3.24-0.04,4.39-1.11c1.29-1.19,1.42-3.23,1.4-5.03
		c-0.21-16.97-5.98-33.25-11.8-49.08c-24.81-67.37-52.22-133.9-70.88-203.41c-15.14-56.39-24.39-114.31-36.11-171.6
		c-16.8-82.1-38.72-163.04-65.56-242.16c-13.78,4.03-26.98,10.28-38.96,18.45c-3.59,2.45-7.26,5.32-8.73,9.54
		c-4.4,12.68,13.26,21.93,16.04,35.1"/>
</g>
<g>
	<path class="st1" d="M585.58,165.72c1.9-4.52,8.59-3.91,12.13-0.64c3.54,3.29,5.43,8.15,8.94,11.48c4.12,3.91,9.91,5.18,15.42,5.95
		c23.35,3.25,47.73,0.13,68.9-10.66c21.17-10.8,38.89-29.53,47.31-52.52c14.38,59.41,28.76,118.82,43.14,178.23
		c-14.44-11.87-33.92-15.79-52.11-13.21c-18.2,2.59-35.21,11.2-50.29,22.15c-23.57,17.11-42.89,39.89-59.85,64.09
		c-28.45-55.45-34.34-120.1-39.69-182.77c-0.48-5.72-0.96-11.61,0.64-17.11c1.61-5.49,5.82-10.56,11.27-11.23"/>
</g>
<g>
	<path class="st2" d="M862.49,615.91c-22.28-16.47-50.94-33.56-75.09-20.26c-15.39,8.47-23.03,26.7-29.4,43.62
		c-36.87,97.98-68.68,198.06-95.25,299.62c226.36,6.34,452.88,6.27,679.24-0.22c-4.07-44.89-17.22-88.25-30.29-131.22
		c-8.61-28.3-17.22-56.61-25.83-84.92c-5.09-16.73-10.22-33.58-18.17-49.05c-22.19-43.19-65.71-72.22-111.89-80.67
		c-17.98-3.3-37.95-3.27-52.75,7.93c-5.27,3.99-9.61,9.21-14.84,13.28c-8.54,6.64-19.02,9.87-29.28,12.84
		c-32.76,9.47-66.26,17.65-100.25,17.56S889.85,635.4,863,613.6"/>
</g>
<g>
	<path class="st3" d="M865.01,698.12c48.07,33.05,92.41,72,131.83,115.8c25.34-16.9,46.09-40.14,68.1-61.54s46.4-41.59,75.31-50.15
		c2.83-0.84,6.09-1.51,8.57,0.15c3.03,2.02,3.41,6.42,3.4,10.18c-0.05,16.18-1.53,32.39-0.17,48.5
		c2.47,29.02,14.04,56.34,18.72,85.05c4.74,29.11,2.29,58.91-0.17,88.33c-0.15,1.76-0.43,3.77-1.85,4.74
		c-0.84,0.57-1.9,0.64-2.9,0.68c-90.55,3.88-181.23,4.51-271.83,1.87c-1.49-0.04-4.7,0-8.48-1.45
		c-11.18-4.26-20.31-18.36-28.03-63.47c-4-23.34-4.76-37.4-6.34-57.77c-6.06-77.89-17.36-108.07-2.55-118.67
		c2.93-2.1,8.46-4.55,18.9-2.25"/>
</g>
<g>
	<path class="st4" d="M1003.29,831.69c22.23-20.95,45.78-42.27,70.68-63.74c24.92-21.5,49.41-41.63,73.32-60.47
		c11.78,60.35,19.95,108.7,25.86,140.87c0,0,1.81,9.9-1.13,68.34c-0.14,2.75-0.57,8.73-4.6,13.08c-4.33,4.69-11.37,4.92-17.63,4.84
		c-49.61-0.64-99.22-1.27-148.82-1.91c-1.78-0.03-3.78-0.14-4.96-1.52c-1.26-1.48-1.17-3.57-1.14-4.26
		c0.19-4.53,0.32-35.41,0.49-78.63C998.02,842.76,1000.65,837.22,1003.29,831.69z"/>
</g>
<g>
	<g>
		<path class="st5" d="M1046.92,819.24c-0.64,1-1.28,2-1.91,3c-0.09,0.14,0.13,0.28,0.22,0.13c0.64-1,1.28-2,1.91-3
			C1047.23,819.24,1047.01,819.1,1046.92,819.24L1046.92,819.24z"/>
	</g>
</g>
<g>
	<g>
		<path class="st5" d="M1058.54,919.76c14.62-3.83,28.8-9.55,42.17-17.01c0.14-0.08,0.02-0.31-0.13-0.23
			c-13.36,7.45-27.51,13.15-42.12,16.99C1058.31,919.54,1058.38,919.8,1058.54,919.76L1058.54,919.76z"/>
	</g>
</g>
<g>
	<g>
		<path class="st5" d="M857.36,713.26c0.16,0,0.16-0.27,0-0.27S857.2,713.26,857.36,713.26L857.36,713.26z"/>
	</g>
</g>
<g>
	<g>
		<path class="st5" d="M1139.94,725.28c0.16,0,0.16-0.27,0-0.27C1139.78,725.01,1139.78,725.28,1139.94,725.28L1139.94,725.28z"/>
	</g>
</g>
<g>
	<path class="st6" d="M884.03,569.57c-18.77,10.71-36.03,24.31-51.05,40.22c43.79,53.75,105.23,88.64,152,139.58
		c1.37,1.5,2.83,3.05,4.74,3.57c2.44,0.65,4.93-0.6,7.16-1.82c59.58-32.8,110.35-80.33,160.34-127.49c2.68-2.53,5.61-5.87,4.71-9.52
		c-0.35-1.44-1.28-2.65-2.17-3.81c-12.05-15.54-24.12-31.09-36.17-46.64c-1.87-2.42-3.82-4.89-6.47-6.3
		c-3.23-1.71-7.03-1.59-10.64-1.33c-37.84,2.53-74.77,13.37-112.5,17.27c-35.63,3.69-71.83,1.11-106.66-7.58"/>
</g>
<g>
	<path class="st7" d="M875.35,572.85c-0.61,9.73-1.23,19.46-1.84,29.18c-0.21,3.33-0.41,6.76,0.63,9.94
		c1.1,3.38,3.49,6.08,5.84,8.66c33.3,36.52,72.07,67.61,114.45,91.75c4.45,2.54,9.09,5.04,14.14,5.5
		c8.59,0.79,16.53-4.41,23.72-9.39c33.19-23.01,67.72-47.53,86.34-84.34c5.63-11.14,9.7-23.48,9.48-36.09
		c-0.09-5.16-1.1-10.71-4.7-14.24c-3.93-3.84-9.82-4.26-15.21-4.46c-28.69-1.08-57.71-2.03-85.79,4.23
		c-10.83,2.42-21.44,5.9-32.33,7.96c-37.3,7.05-75.42-2.82-112.15-12.62"/>
</g>
<g>
	<path class="st8" d="M1186.84,326.79c10.19-2.1,20.51,5.33,25.26,14.99c4.76,9.66,5.1,20.99,4.61,31.85
		c-0.26,5.82-0.76,11.78-3.13,17.07s-6.96,9.82-12.51,10.44c-3.11,0.35-6.7-0.9-7.92-3.91c-0.54-1.34-0.55-2.86-0.55-4.33
		c0.03-15.89,0.06-31.77,0.09-47.66c0.01-4.7,0-9.54-1.61-13.93"/>
	<g>
		<path class="st9" d="M1186.86,326.85c9.69-1.9,19.23,4.52,24.26,13.21c5.73,9.9,6.04,22.25,5.54,33.56
			c-0.27,5.98-0.78,12.23-3.39,17.61c-2.15,4.43-5.83,8.22-10.38,9.47c-2.32,0.65-4.91,0.57-7.06-0.67
			c-0.95-0.55-1.8-1.33-2.34-2.35c-0.85-1.59-0.79-3.49-0.79-5.27c0.01-6.44,0.03-12.88,0.03-19.33c0.02-7.35,0.03-14.68,0.04-22.03
			c0.02-6.53,0.61-13.57-1.61-19.8c-0.03-0.08-0.15-0.04-0.12,0.04c2.21,6.21,1.61,13.24,1.6,19.76
			c-0.02,7.04-0.03,14.09-0.04,21.12c-0.02,7.03-0.08,14.06-0.04,21.08c0.01,2.43,0.38,4.7,2.27,6.24c1.61,1.31,3.72,1.81,5.7,1.71
			c4.43-0.21,8.41-3.17,11.05-6.88c3.24-4.56,4.42-10.34,4.92-15.96c0.54-6.15,0.69-12.45,0.2-18.61c-0.46-5.85-1.62-11.7-4.03-17
			c-4.62-10.17-15.03-18.19-25.83-16.07C1186.74,326.73,1186.77,326.87,1186.86,326.85L1186.86,326.85z"/>
	</g>
</g>
<g>
	<path class="st8" d="M1161.68,313.13c5.84-6.85,13.22-14.24,21.94-13.09c6.56,0.87,11.76,6.67,14.12,13.13s2.42,13.56,2.45,20.49
		c0.08,18.98,0.17,37.97,0.24,56.95c0.02,3.25,0.03,6.55-0.84,9.68c-1.71,6.26-7.11,11.24-13.27,12.26c-6.15,1-12.75-2.02-16.2-7.44
		c-2.53-3.98-3.37-8.85-4.09-13.57c-3.91-25.82-5.99-51.93-6.24-78.07"/>
	<g>
		<path class="st9" d="M1161.72,313.19c4.73-5.55,10.42-11.71,17.61-12.96c7.36-1.28,13.87,3.65,17.25,10.47
			c3.94,7.92,3.5,17.42,3.54,26.14c0.04,9.65,0.08,19.28,0.13,28.93c0.02,4.82,0.04,9.65,0.06,14.46c0.02,4.73,0.19,9.49,0.01,14.22
			c-0.17,4.31-1.15,8.35-3.74,11.7c-2.19,2.84-5.19,4.95-8.49,5.92c-6.97,2.05-14.92-1.37-18.58-8.13
			c-1.96-3.61-2.71-7.79-3.34-11.87c-0.73-4.73-1.38-9.47-1.98-14.24c-2.39-18.98-3.81-38.11-4.23-57.25
			c-0.05-2.38-0.09-4.75-0.12-7.13c0-0.09-0.13-0.09-0.13,0c0.2,20.35,1.5,40.69,3.91,60.87c0.59,4.86,1.23,9.73,1.94,14.58
			c0.62,4.24,1.15,8.58,2.68,12.58c2.67,6.97,9.07,11.49,16.06,11.32c6.4-0.15,12.51-4.67,14.91-11.12
			c1.6-4.34,1.29-9.19,1.26-13.76c-0.03-5.12-0.04-10.24-0.07-15.36c-0.04-10.24-0.09-20.49-0.13-30.74
			c-0.03-4.95,0.06-9.93-0.15-14.88c-0.18-4.47-0.69-8.97-2.13-13.19c-2.27-6.6-7.36-12.66-14.06-13.71
			c-7.13-1.12-13.46,3.66-18.37,8.71c-1.36,1.41-2.66,2.86-3.93,4.35C1161.58,313.15,1161.66,313.25,1161.72,313.19L1161.72,313.19z
			"/>
	</g>
</g>
<g>
	<path class="st8" d="M1132.94,331.3c5.51-10.37,16-16.54,25.97-22.19c1.55-0.88,3.14-1.76,4.9-1.9c3.47-0.26,6.59,2.62,7.89,6
		s1.2,7.14,1.08,10.78c-0.89,26.16-1.77,52.33-2.66,78.49c-0.03,0.78-0.06,1.59-0.35,2.3c-0.76,1.85-3.08,2.51-4.92,1.95
		c-1.84-0.56-3.3-2-4.64-3.44c-17.76-19.04-28.36-45.17-29.13-71.75"/>
	<g>
		<path class="st9" d="M1132.99,331.34c3.3-6.14,8.32-10.81,13.75-14.67c2.66-1.88,5.43-3.58,8.23-5.22
			c1.43-0.83,2.86-1.66,4.31-2.47c1.78-0.99,3.68-1.94,5.73-1.67c3.44,0.44,6.02,3.64,7.02,7.05c1.15,3.94,0.74,8.26,0.6,12.33
			c-0.29,8.65-0.59,17.29-0.88,25.94c-0.29,8.73-0.59,17.44-0.89,26.16c-0.14,4.29-0.29,8.56-0.43,12.86
			c-0.08,2.18-0.15,4.36-0.22,6.54c-0.03,1.05-0.08,2.11-0.11,3.15c-0.04,1.19,0.06,2.57-0.5,3.65c-0.88,1.68-2.98,2.11-4.6,1.7
			c-1.79-0.47-3.23-1.85-4.51-3.21c-2.33-2.46-4.53-5.08-6.61-7.79c-4.29-5.58-8.05-11.65-11.21-18.05
			c-6.23-12.6-10.14-26.56-11.25-40.82c-0.13-1.76-0.23-3.53-0.28-5.29c0-0.09-0.13-0.09-0.13,0c0.45,14.94,3.96,29.68,10.07,43.08
			c3.07,6.74,6.8,13.13,11.09,19.04c2.19,3.01,4.54,5.9,7.02,8.64c2,2.2,4.43,5.07,7.58,4.66c1.03-0.13,2.07-0.62,2.71-1.53
			c0.98-1.4,0.72-3.56,0.77-5.2c0.16-4.66,0.32-9.32,0.48-13.98c0.32-9.32,0.63-18.64,0.94-27.97c0.32-9.32,0.63-18.64,0.94-27.97
			c0.15-4.35,0.62-8.88,0.08-13.21c-0.4-3.23-1.64-6.32-4.1-8.3c-2.62-2.11-5.53-1.94-8.38-0.47c-3.11,1.6-6.14,3.45-9.12,5.31
			c-5.75,3.59-11.39,7.78-15.57,13.45c-0.98,1.33-1.86,2.72-2.65,4.19C1132.84,331.34,1132.95,331.41,1132.99,331.34L1132.99,331.34
			z"/>
	</g>
</g>
<g>
	<path class="st10" d="M1008.08,28.25c34.23,78.33,83.39,149.47,143.75,208.06c-50.85,0.39-101.7,0.81-152.56,1.2
		c-1.5,0.01-3.2-0.06-4.19-1.24c-0.86-1.02-0.88-2.54-0.85-3.9c0.17-7.84,0.34-15.67,0.51-23.51c1.25-57.32,2.49-114.64,3.74-171.96
		c0.03-1.08,0.1-2.28,0.84-3.02c1.48-1.47,3.83,0.13,5.21,1.7c5.63,6.42,10.59,13.48,14.79,21"/>
</g>
<g>
	<path class="st11" d="M841.09,249.05c15.34,0.44,30.68,0.89,46.03,1.33c0.79,0.03,1.63,0.07,2.23,0.61
		c1.41,1.26,0.16,3.64-1.1,5.06c-3.04,3.41-6.08,6.83-9.12,10.23c-1.56,1.76-3.2,3.57-5.32,4.44c-1.85,0.77-3.9,0.77-5.89,0.75
		c-6.87-0.04-13.74-0.09-20.61-0.13c-0.94-0.01-1.96-0.04-2.71-0.65c-0.89-0.72-1.1-2-1.25-3.15c-0.76-5.72-1.51-11.47-2.27-17.19"
		/>
</g>
<path class="st12" d="M842.99,534.49"/>
<g>
	
		<linearGradient id="SVGID_1_" gradientUnits="userSpaceOnUse" x1="861.5375" y1="546.9463" x2="1220.5627" y2="871.6748" gradientTransform="matrix(1 0 0 -1 0 1082)">
		<stop  offset="0" style="stop-color:#D4ECEF"/>
		<stop  offset="0.0614" style="stop-color:#CFE6E9"/>
		<stop  offset="0.6958" style="stop-color:#9AAFAF"/>
		<stop  offset="1" style="stop-color:#859A98"/>
	</linearGradient>
	<path class="st13" d="M850.78,260.34c-0.46,94.87-0.93,189.74-1.39,284.62c-0.03,4.71-0.02,9.59,1.73,13.92
		c1.77,4.4,5.16,7.83,8.47,11.1c40.28,39.88,83.08,77.01,128.01,111.04c3.46,2.62,7.28,5.34,11.54,5.18
		c3.9-0.14,7.29-2.67,10.41-5.11c47.36-36.95,92.23-77.38,134.18-120.89c1.65-1.71,3.34-3.49,4.15-5.75
		c0.74-2.02,0.71-4.26,0.68-6.41c-0.6-39.57-1.21-79.13-1.81-118.7c-0.86-56.13-1.74-112.53-10.93-167.85
		c-94.14-10.72-189.94,17.85-283.5,2.62"/>
</g>
<g>
	<path class="st14" d="M1019.42,321.15c3.64-8.7,11.64-14.75,20.25-17.76c8.6-3,17.84-3.32,26.92-3.23
		c7.16,0.08,14.99,0.68,20.2,5.81c2.32,2.28,3.87,5.25,5.39,8.16c2.32,4.45,4.63,8.9,6.95,13.35
		c-12.86-11.12-31.16-14.95-47.12-9.85c-8.12,2.6-15.47,7.26-23.23,10.84c-1.38,0.64-2.88,1.25-4.36,0.93
		c-2.33-0.51-3.69-3.27-3.58-5.76c0.12-2.49,1.35-4.76,2.53-6.93"/>
</g>
<g>
	<path class="st14" d="M885.91,319.32c6.28-10.8,16.38-19.08,27.9-22.88c9.34-3.07,19.7-3.2,28.77,0.65s16.65,11.85,19.34,21.69
		c0.68,2.47,0.95,5.41-0.64,7.36c-2.11,2.56-6.24,1.79-8.75-0.34s-4.09-5.24-6.4-7.6c-5.04-5.14-12.72-6-19.76-6.07
		c-12.06-0.12-25.19,1.77-33.67,10.75c-1.35,1.42-2.72,3.09-4.61,3.35c-1.77,0.23-3.61-1.07-4.05-2.88
		c-0.45-1.81,0.55-3.88,2.21-4.58"/>
</g>
<g>
	<path class="st15" d="M979.88,386.52c-4.93,19.26-13.27,37.57-24.49,53.7c7.48,4.86,14.96,9.72,22.44,14.58
		c3.05,1.98,6.23,4.01,9.8,4.5c5.66,0.76,11.01-2.5,15.98-5.43c10.34-6.09,21.18-11.26,32.36-15.44c2.23-0.83,4.71-1.63,6.91-0.72
		c4.26,1.77,4.2,8.05,3.13,12.71c-2.95,12.73-8.23,25.21-17.2,34.35c-8.98,9.13-22.07,14.45-34.3,11.61
		c-13.29-3.08-23.04-14.67-31.43-25.9c-6.88-9.2-13.9-20.6-10.58-31.75"/>
</g>
<g>
	<g>
		<path class="st16" d="M1063.25,424.47c13.17-5.12,26.34-10.24,39.51-15.37c0.08-0.03,0.04-0.16-0.03-0.13
			c-13.17,5.12-26.34,10.24-39.51,15.37C1063.14,424.37,1063.18,424.5,1063.25,424.47L1063.25,424.47z"/>
	</g>
</g>
<g>
	<g>
		<path class="st16" d="M876.52,410.53c11.86-0.04,23.7,1.16,35.34,3.57c0.08,0.02,0.11-0.12,0.03-0.13
			c-11.66-2.42-23.51-3.62-35.38-3.58C876.43,410.4,876.43,410.53,876.52,410.53L876.52,410.53z"/>
	</g>
</g>
<g>
	<path class="st16" d="M970.96,599.34c20.3-0.37,40.59-0.74,60.88-1.11c-8.66,6.49-17.32,13-25.98,19.5
		c-1.29,0.97-2.68,1.97-4.26,2.06c-1.52,0.08-2.95-0.7-4.29-1.46c-9.6-5.48-18.99-11.35-28.16-17.56"/>
</g>
<g>
	<g>
		<path class="st17" d="M937.83,349.63c0.16,0,0.16-0.27,0-0.27C937.67,349.35,937.66,349.63,937.83,349.63L937.83,349.63z"/>
	</g>
</g>
<g>
	<g>
		<path class="st18" d="M1047.03,352.63c0.16,0,0.16-0.27,0-0.27S1046.87,352.63,1047.03,352.63L1047.03,352.63z"/>
	</g>
</g>
<g>
	<path class="st10" d="M999.35,220.28c-0.4,19.86-0.8,39.73-1.2,59.59c55.06-1.21,110.1-2.44,165.16-3.65
		c2.26-0.05,4.82-0.24,6.25-2.07c1.31-1.68,1.17-4.09,0.96-6.24c-1.09-11.05-2.17-22.11-3.25-33.17
		c-55.41-2.61-110.81-5.21-166.21-7.83"/>
</g>
<g>
	<path class="st12" d="M833.82,234.64c20.97,4.95,42.5-2.87,63.74-6.37c10.09-1.67,20.31-2.35,30.5-3.03
		c23.45-1.58,46.96-3.14,70.42-1.79c-0.87,16.83-1.74,33.66-2.6,50.48c-0.09,1.85-0.24,3.83-1.4,5.24c-1.54,1.85-4.2,1.94-6.54,1.88
		c-50.57-1.15-101.16-2.3-151.73-3.46c-1.31-0.03-2.78-0.13-3.69-1.11c-0.89-0.98-0.94-2.47-0.94-3.83
		c0.03-12.2,0.06-24.42,0.09-36.62"/>
</g>
<g>
	<path class="st12" d="M992.41,40.57C942.13,105.8,892.4,171.53,843.23,237.69c47.72-0.4,95.45-0.82,143.17-1.23
		c1.6-0.02,3.35-0.09,4.53-1.22c1.2-1.16,1.4-3.05,1.5-4.77c4.08-65.46,6.03-131.06,5.84-196.66c-6.56,4.53-11.13,12.09-12.23,20.24
		"/>
</g>
<g>
	<path class="st9" d="M1092.99,229.35c7.36-0.56,14.73-1.11,22.09-1.68c-25.03-37.68-48.7-76.31-72.37-114.95
		c-4.61-7.53-9.23-15.07-13.84-22.59c21.65,46.57,42.99,93.3,64.02,140.19"/>
</g>
<g>
	<path class="st9" d="M1022.69,70.63c6.2,13.08,8.89,27.64,11.53,41.97c7.26,39.61,14.51,79.21,21.78,118.81"/>
</g>
<g>
	<path class="st9" d="M858.44,233.6c35.74-47.17,71.47-94.33,107.2-141.49c-19.89,48.22-51.03,90.29-81.84,131.77
		c-5.63,7.58-14.2,16.06-22.62,12.24"/>
</g>
<g>
	<path class="st9" d="M925.79,233.55c6.06-11.78,9.69-24.73,13.27-37.58c11.79-42.19,23.57-84.35,35.37-126.54"/>
</g>
<g>
	<path class="st8" d="M845.63,404.58c0.26-29.05,0.52-58.11,0.78-87.16c0.03-4.01,0.01-8.28-1.98-11.71
		c-2.72-4.67-8.34-6.52-13.56-6.85c-16.51-1.02-32.28,10-40.79,24.83s-10.67,32.82-9.69,50.1c0.33,5.66,0.97,11.38,2.82,16.71
		c4.41,12.81,15.83,22.5,28.61,25.11c12.78,2.61,26.52-1.68,36.35-10.61"/>
	<g>
		<path class="st9" d="M845.69,404.58c0.23-25.59,0.45-51.19,0.69-76.78c0.03-3.15,0.06-6.32,0.08-9.48
			c0.03-2.64,0.08-5.32-0.36-7.93c-0.79-4.58-3.44-7.92-7.36-9.75c-3.94-1.84-8.41-2.14-12.64-1.83c-4.41,0.33-8.75,1.5-12.84,3.32
			c-8.03,3.57-15.09,9.63-20.38,17.06c-5.95,8.36-9.53,18.48-11.3,28.8c-1.81,10.59-2.01,21.76-0.67,32.43
			c0.65,5.17,1.91,10.24,4.26,14.83c2,3.91,4.67,7.43,7.77,10.39c6.44,6.15,14.66,9.92,23.21,10.64c9.27,0.79,18.72-1.83,26.65-7.04
			c1.91-1.25,3.71-2.66,5.43-4.21c0.06-0.05-0.03-0.15-0.09-0.1c-14.13,12.73-35.15,15.37-50.75,4.21
			c-7.32-5.24-12.87-13.03-15.16-22.25c-1.34-5.39-1.74-11.03-1.91-16.59c-0.17-5.21-0.03-10.45,0.5-15.63
			c1.06-10.49,3.77-20.86,8.78-29.98c4.49-8.17,10.96-15.09,18.62-19.76c7.58-4.62,16.74-7.21,25.44-5.72
			c4.21,0.73,8.67,2.65,10.93,6.83c1.3,2.4,1.66,5.2,1.76,7.93c0.11,2.87,0.01,5.74-0.02,8.62c-0.22,24.31-0.43,48.63-0.65,72.94
			c-0.03,3.01-0.05,6.02-0.08,9.03C845.56,404.67,845.69,404.67,845.69,404.58L845.69,404.58z"/>
	</g>
</g>
<g>
	<g>
		<path class="st9" d="M820.89,302.41c0,29.46,0,58.93,0,88.39c0,8.27,0,16.54,0,24.8c0,0.09,0.13,0.09,0.13,0
			c0-29.46,0-58.93,0-88.39c0-8.27,0-16.54,0-24.8C821.02,302.32,820.89,302.32,820.89,302.41L820.89,302.41z"/>
	</g>
</g>
<g>
	<path class="st19" d="M1180.19,594.77c18.74,0.05,37.48,1.96,55.87,5.71c3.13,0.64,6.8,1.84,7.67,5.04
		c0.55,2.04-0.28,4.18-1.1,6.13c-21.94,51.6-47.58,101.48-76.66,149.07c7.08-30.67,10.45-62.29,9.99-93.85
		c-0.37-24.99-3.12-50.01-1.28-74.93"/>
</g>
<ellipse transform="matrix(0.19 -0.9818 0.9818 0.19 81.0208 1794.7712)" class="st20" cx="1128.21" cy="848.28" rx="23.5" ry="15.03"/>
<g>
	<g>
		<path class="st15" d="M906.01,340.93c13.37,9.33,26.73,18.65,40.09,27.98c0-0.78,0-1.57,0-2.35c-12.39,8.4-25.87,14.8-40.08,18.58
			c-1.56,0.41-0.9,3.03,0.67,2.62c14.4-3.83,28.13-10.33,40.69-18.86c0.82-0.56,0.8-1.78,0-2.35
			c-13.37-9.33-26.73-18.65-40.09-27.98C905.91,337.64,904.66,339.99,906.01,340.93L906.01,340.93z"/>
	</g>
</g>
<g>
	<g>
		<path class="st15" d="M1082.6,340.58c-13.27,9-26.52,18.02-39.79,27.02c-0.8,0.55-0.82,1.8,0,2.35
			c12.51,8.25,26.12,14.52,40.38,18.21c1.57,0.4,2.24-2.2,0.67-2.62c-14.06-3.64-27.44-9.8-39.78-17.94c0,0.78,0,1.57,0,2.35
			c13.27-9,26.52-18.02,39.79-27.02C1085.23,341.99,1083.97,339.64,1082.6,340.58L1082.6,340.58z"/>
	</g>
</g>
<path d="M1048.81,576.94c-3.71,12.17-22.98,11.09-61.53,8.92c-27.33-1.54-34.83-6.58-38.19-14.86c-5.3-13.05,1.25-30.41,2.12-32.7
	c8.27-21.89,28.06-30.32,42.43-29.73C1026.17,509.87,1054.52,558.2,1048.81,576.94z"/>
<path class="st21" d="M1017.99,587.22c-6.47,0.04-13.19-0.05-20.15-0.34c-5.58-0.23-11-0.57-16.26-0.99
	c2.03-9.09,9.03-15.63,16.99-16.14C1007.66,569.15,1016.2,576.56,1017.99,587.22z"/>
<g>
	<g>
		<path class="st18" d="M1130.28,892.92c5.02,0.94,10.04,1.88,15.07,2.82c3.17,0.59,6.48-0.83,7.38-3.75c0.82-2.67-1-6.01-4.19-6.61
			c-5.02-0.94-10.04-1.88-15.07-2.82c-3.17-0.59-6.48,0.83-7.38,3.75C1125.27,888.98,1127.09,892.32,1130.28,892.92L1130.28,892.92z
			"/>
	</g>
</g>
<ellipse transform="matrix(0.29 -0.957 0.957 0.29 165.8891 1737.1798)" class="st7" cx="1253.75" cy="756.79" rx="28.72" ry="39.64"/>
<g>
	<path class="st22" d="M1298.29,754.46c-16.48,16.71-39.51,15.17-53.31,7.88c-11.66-6.15-24.95-20.75-22.72-40.22
		c1.12-9.75,5.74-17.32,8.6-21.32c0.27,10.05,1.44,12.49,2.57,12.54c3.51,0.18,5.45-22.54,18.85-29.65
		c4.52-2.4,8.31-1.94,11.51-6.18c4.02-5.34,2.57-12.11,3.98-12.43c1.3-0.3,3.52,5.2,3.82,11.38c0.29,6.06-1.43,9.27-0.56,9.66
		c1.71,0.76,11.44-10.55,15.44-25.23c2.35-8.64,1.43-13.67,3.34-14.33c2.75-0.95,9.3,7.82,8.53,17.35
		c-0.36,4.47-2.14,6.77-2.41,13.88c-0.08,2.22-0.32,8.46,1.3,8.74c1.09,0.2,3.31-2.21,8.34-14.02c1.66,3.01,6.47,12.69,4.53,26.49
		c-1.79,12.74-8.3,21.53-10.77,24.59c1.81-0.72,4.24-1.92,6.84-3.9c3.3-2.53,5.5-5.29,6.82-7.2
		C1313.2,715.01,1314.58,737.94,1298.29,754.46z"/>
	<path class="st23" d="M1282.14,749.1c-9.45,9.51-22.71,8.57-30.67,4.39c-6.73-3.54-14.41-11.91-13.17-23.01
		c0.62-5.56,3.26-9.88,4.9-12.17c0.18,5.74,0.86,7.13,1.51,7.17c2.02,0.11,3.09-12.86,10.78-16.9c2.6-1.36,4.78-1.09,6.61-3.51
		c2.3-3.04,1.45-6.92,2.26-7.1c0.74-0.16,2.04,2.97,2.22,6.51c0.18,3.46-0.8,5.29-0.3,5.52c0.99,0.44,6.56-6,8.83-14.38
		c1.33-4.93,0.79-7.8,1.89-8.18c1.58-0.54,5.37,4.49,4.95,9.93c-0.2,2.55-1.22,3.86-1.35,7.92c-0.04,1.27-0.17,4.83,0.77,5
		c0.63,0.12,1.9-1.26,4.77-7.99c0.96,1.73,3.76,7.27,2.67,15.14c-1,7.27-4.72,12.28-6.14,14.02c1.04-0.41,2.44-1.08,3.93-2.21
		c1.9-1.43,3.16-3.01,3.91-4.1C1290.63,726.59,1291.48,739.69,1282.14,749.1z"/>
</g>
<ellipse transform="matrix(0.29 -0.957 0.957 0.29 301.5063 1420.2496)" class="st7" cx="1107.96" cy="506.92" rx="28.72" ry="39.64"/>
<g>
	<path class="st22" d="M1152.47,504.62c-16.48,16.71-39.51,15.17-53.31,7.88c-11.66-6.15-24.95-20.75-22.72-40.22
		c1.12-9.75,5.74-17.32,8.6-21.32c0.27,10.05,1.44,12.49,2.57,12.54c3.51,0.18,5.45-22.54,18.85-29.65
		c4.52-2.4,8.31-1.94,11.51-6.18c4.02-5.34,2.57-12.11,3.98-12.43c1.3-0.3,3.52,5.2,3.82,11.38c0.29,6.06-1.43,9.27-0.56,9.66
		c1.71,0.76,11.44-10.55,15.44-25.23c2.35-8.64,1.43-13.67,3.34-14.33c2.75-0.95,9.3,7.82,8.53,17.35
		c-0.36,4.47-2.14,6.77-2.41,13.88c-0.08,2.22-0.32,8.46,1.3,8.74c1.09,0.2,3.31-2.21,8.34-14.02c1.66,3.01,6.47,12.69,4.53,26.49
		c-1.79,12.74-8.3,21.53-10.77,24.59c1.81-0.72,4.24-1.92,6.84-3.9c3.3-2.53,5.5-5.29,6.82-7.2
		C1167.38,465.17,1168.76,488.1,1152.47,504.62z"/>
	<path class="st23" d="M1136.33,499.25c-9.45,9.51-22.71,8.57-30.67,4.39c-6.73-3.54-14.41-11.91-13.17-23.01
		c0.62-5.56,3.26-9.88,4.9-12.17c0.18,5.74,0.86,7.13,1.51,7.17c2.02,0.11,3.09-12.86,10.78-16.9c2.6-1.36,4.78-1.09,6.61-3.51
		c2.3-3.04,1.45-6.92,2.26-7.1c0.74-0.16,2.04,2.97,2.22,6.5c0.18,3.46-0.8,5.29-0.3,5.52c0.99,0.44,6.56-6,8.83-14.38
		c1.33-4.93,0.79-7.8,1.89-8.18c1.58-0.54,5.37,4.49,4.95,9.93c-0.2,2.55-1.22,3.86-1.35,7.92c-0.04,1.27-0.17,4.83,0.77,5
		c0.63,0.12,1.9-1.26,4.77-7.99c0.96,1.73,3.76,7.27,2.67,15.14c-1,7.27-4.72,12.28-6.14,14.02c1.04-0.41,2.44-1.08,3.93-2.21
		c1.9-1.43,3.16-3.01,3.91-4.1C1144.82,476.75,1145.67,489.85,1136.33,499.25z"/>
</g>
<g>
	<path class="st22" d="M1118.16,183.68c-16.48,16.71-39.51,15.17-53.31,7.88c-11.66-6.15-24.95-20.75-22.72-40.22
		c1.12-9.75,5.74-17.32,8.6-21.32c0.27,10.05,1.44,12.49,2.57,12.54c3.51,0.18,5.45-22.54,18.85-29.65
		c4.52-2.4,8.31-1.94,11.51-6.18c4.02-5.34,2.57-12.11,3.98-12.43c1.3-0.3,3.52,5.2,3.82,11.38c0.29,6.06-1.43,9.27-0.56,9.66
		c1.71,0.76,11.44-10.55,15.44-25.23c2.35-8.64,1.43-13.67,3.34-14.33c2.75-0.95,9.3,7.82,8.53,17.35
		c-0.36,4.47-2.14,6.77-2.41,13.88c-0.08,2.22-0.32,8.46,1.3,8.74c1.09,0.2,3.31-2.21,8.34-14.02c1.66,3.01,6.47,12.69,4.53,26.49
		c-1.79,12.74-8.3,21.53-10.77,24.59c1.81-0.72,4.24-1.92,6.84-3.9c3.3-2.53,5.5-5.29,6.82-7.2
		C1133.07,144.23,1134.45,167.16,1118.16,183.68z"/>
	<path class="st23" d="M1102.02,178.32c-9.45,9.51-22.71,8.57-30.67,4.39c-6.73-3.54-14.41-11.91-13.17-23.01
		c0.62-5.56,3.26-9.88,4.9-12.17c0.18,5.74,0.86,7.13,1.51,7.17c2.02,0.11,3.09-12.86,10.78-16.9c2.6-1.36,4.78-1.09,6.61-3.51
		c2.3-3.04,1.45-6.92,2.26-7.1c0.74-0.16,2.04,2.97,2.22,6.5c0.18,3.46-0.8,5.29-0.3,5.52c0.99,0.44,6.56-6,8.83-14.38
		c1.33-4.93,0.79-7.8,1.89-8.18c1.58-0.54,5.37,4.49,4.95,9.93c-0.2,2.55-1.22,3.86-1.35,7.92c-0.04,1.27-0.17,4.83,0.77,5
		c0.63,0.12,1.9-1.26,4.77-7.99c0.96,1.73,3.76,7.27,2.67,15.14c-1,7.27-4.72,12.28-6.14,14.02c1.04-0.41,2.44-1.08,3.93-2.21
		c1.9-1.43,3.16-3.01,3.91-4.1C1110.51,155.81,1111.36,168.91,1102.02,178.32z"/>
</g>
<g>
	<path class="st22" d="M940.96,209.85c-0.81,22.85-19.23,36.04-34.68,39.15c-13.06,2.63-33.2-0.09-45.04-16.14
		c-5.93-8.04-7.7-16.63-8.33-21.42c7.19,7.4,9.75,8.5,10.65,7.84c2.77-2.06-11.54-20.37-6.39-34.08c1.74-4.63,4.91-6.64,4.37-11.83
		c-0.68-6.52-6.48-10.72-5.64-11.84c0.77-1.03,6.26,1.73,10.78,6.2c4.43,4.38,5.37,7.87,6.28,7.63c1.82-0.49,1.29-15.08-5.88-28.62
		c-4.22-7.97-8.42-11.19-7.43-12.88c1.41-2.43,12.43,0.1,18.48,7.76c2.83,3.59,3.09,6.43,7.82,11.95c1.48,1.73,5.63,6.58,7.05,5.78
		c0.95-0.53,0.95-3.74-3.45-15.76c3.35,1.24,13.69,5.54,21.81,17.13c7.5,10.71,8.7,21.38,8.97,25.24c0.86-1.67,1.87-4.09,2.44-7.2
		c0.73-3.96,0.47-7.42,0.14-9.68C924.8,170.84,941.77,187.26,940.96,209.85z"/>
	<path class="st23" d="M925.08,215.86c-0.51,13.05-11.15,20.6-20.05,22.41c-7.53,1.52-19.12,0.01-25.9-9.14
		c-3.4-4.58-4.4-9.48-4.75-12.22c4.12,4.21,5.6,4.84,6.12,4.46c1.6-1.18-6.61-11.61-3.61-19.44c1.01-2.64,2.84-3.8,2.54-6.76
		c-0.38-3.73-3.71-6.11-3.22-6.75c0.45-0.59,3.6,0.98,6.19,3.52c2.54,2.49,3.07,4.49,3.6,4.34c1.05-0.29,0.78-8.61-3.33-16.33
		c-2.41-4.54-4.82-6.37-4.26-7.34c0.82-1.39,7.16,0.04,10.62,4.39c1.62,2.04,1.77,3.66,4.48,6.81c0.85,0.99,3.23,3.74,4.05,3.29
		c0.55-0.3,0.56-2.13-1.96-8.99c1.92,0.7,7.87,3.14,12.52,9.74c4.3,6.1,4.97,12.19,5.11,14.39c0.5-0.96,1.08-2.34,1.42-4.11
		c0.43-2.27,0.29-4.24,0.1-5.53C915.85,193.63,925.58,202.96,925.08,215.86z"/>
</g>
<path class="st7" d="M833.98,652.1c3.63,3.06,8.69,7.45,8.76,13.45c0.1,9.36-12.02,18.52-23.59,20.31
	c-11.25,1.75-14.53-4.62-23.59-2.03c-11.94,3.42-11.5,16-21.44,18.28c-9.92,2.28-23.95-7.15-27.34-18.18
	c-5.11-16.6,14.1-35.92,32.76-42.58C801.19,633.63,822.84,642.71,833.98,652.1z"/>
<g>
	<path class="st22" d="M823.02,638.44c-0.81,22.85-19.23,36.04-34.68,39.15c-13.06,2.63-33.2-0.09-45.04-16.14
		c-5.93-8.04-7.7-16.63-8.33-21.42c7.19,7.4,9.75,8.5,10.65,7.84c2.77-2.06-11.54-20.37-6.39-34.08c1.74-4.63,4.91-6.64,4.37-11.83
		c-0.68-6.52-6.48-10.72-5.64-11.84c0.77-1.03,6.26,1.73,10.78,6.2c4.43,4.38,5.37,7.87,6.28,7.63c1.82-0.49,1.29-15.08-5.88-28.62
		c-4.22-7.97-8.42-11.19-7.43-12.88c1.41-2.43,12.43,0.1,18.48,7.76c2.83,3.59,3.09,6.43,7.82,11.95c1.48,1.73,5.63,6.58,7.05,5.78
		c0.95-0.53,0.95-3.74-3.45-15.76c3.35,1.24,13.69,5.54,21.81,17.13c7.5,10.71,8.7,21.38,8.97,25.24c0.86-1.67,1.87-4.09,2.44-7.2
		c0.73-3.96,0.47-7.42,0.14-9.68C806.86,599.44,823.83,615.85,823.02,638.44z"/>
	<path class="st23" d="M807.14,644.46c-0.51,13.05-11.15,20.6-20.05,22.41c-7.53,1.52-19.12,0.01-25.9-9.14
		c-3.4-4.58-4.4-9.48-4.75-12.22c4.12,4.21,5.6,4.84,6.12,4.46c1.6-1.18-6.61-11.61-3.61-19.44c1.01-2.64,2.84-3.8,2.54-6.76
		c-0.38-3.73-3.71-6.11-3.22-6.75c0.45-0.59,3.6,0.98,6.19,3.52c2.54,2.49,3.07,4.49,3.6,4.34c1.05-0.29,0.78-8.61-3.33-16.33
		c-2.41-4.54-4.82-6.37-4.26-7.34c0.82-1.39,7.16,0.04,10.62,4.39c1.62,2.04,1.77,3.66,4.48,6.81c0.85,0.99,3.23,3.74,4.05,3.29
		c0.55-0.3,0.56-2.13-1.96-8.99c1.92,0.7,7.87,3.14,12.52,9.74c4.3,6.1,4.97,12.19,5.11,14.39c0.5-0.96,1.08-2.34,1.42-4.11
		c0.43-2.27,0.29-4.24,0.1-5.53C797.91,622.23,807.64,631.56,807.14,644.46z"/>
</g>
<path class="st7" d="M806.1,857.26c1.18,1.08,15.05,13.99,10.9,23.61c-3.34,7.74-16.85,9.78-19.3,10.16
	c-11.92,1.81-19.34-2.88-25.73,2.03c-2.44,1.88-2.84,3.7-4.29,6.09c-8.65,14.23-37.68,20.2-45.03,12.18
	c-4.31-4.7,1.73-11.06-3.76-22.24c-3.14-6.4-6.17-6.46-6.97-10.26c-2.24-10.7,18.3-27.06,39.72-32.32
	C768.8,842.3,791.55,843.99,806.1,857.26z"/>
<g>
	<path class="st22" d="M795.15,843.6c-0.81,22.85-19.23,36.04-34.68,39.15c-13.06,2.63-33.2-0.09-45.04-16.14
		c-5.93-8.04-7.7-16.63-8.33-21.42c7.19,7.4,9.75,8.5,10.65,7.84c2.77-2.06-11.54-20.37-6.39-34.08c1.74-4.63,4.91-6.64,4.37-11.83
		c-0.68-6.52-6.48-10.72-5.64-11.84c0.77-1.03,6.26,1.73,10.78,6.2c4.43,4.38,5.37,7.87,6.28,7.63c1.82-0.49,1.29-15.08-5.88-28.62
		c-4.22-7.97-8.42-11.19-7.43-12.88c1.41-2.43,12.43,0.1,18.48,7.76c2.83,3.59,3.09,6.43,7.82,11.95c1.48,1.73,5.63,6.58,7.05,5.78
		c0.95-0.53,0.95-3.74-3.45-15.76c3.35,1.24,13.69,5.54,21.81,17.13c7.5,10.71,8.7,21.38,8.97,25.24c0.86-1.67,1.87-4.09,2.44-7.2
		c0.73-3.96,0.47-7.42,0.14-9.68C778.99,804.6,795.95,821.01,795.15,843.6z"/>
	<path class="st23" d="M779.26,849.61c-0.51,13.05-11.15,20.6-20.05,22.41c-7.53,1.52-19.12,0.01-25.9-9.14
		c-3.4-4.58-4.4-9.48-4.75-12.22c4.12,4.21,5.6,4.84,6.12,4.46c1.6-1.18-6.61-11.61-3.61-19.44c1.01-2.64,2.84-3.8,2.54-6.76
		c-0.38-3.73-3.71-6.11-3.22-6.75c0.45-0.59,3.6,0.98,6.19,3.52c2.54,2.49,3.07,4.49,3.6,4.34c1.05-0.29,0.78-8.61-3.33-16.33
		c-2.41-4.54-4.82-6.37-4.26-7.34c0.82-1.39,7.16,0.04,10.62,4.39c1.62,2.04,1.77,3.66,4.48,6.81c0.85,0.99,3.23,3.74,4.05,3.29
		c0.55-0.3,0.56-2.13-1.96-8.99c1.92,0.7,7.87,3.14,12.52,9.74c4.3,6.1,4.97,12.19,5.11,14.39c0.5-0.96,1.08-2.34,1.42-4.11
		c0.43-2.27,0.29-4.24,0.1-5.53C770.03,827.38,779.77,836.71,779.26,849.61z"/>
</g>
<path class="st7" d="M804.14,689.93"/>
<g>
	<g>
		<g>
			<path class="st18" d="M772.25,1027.71c-10.75-0.28-19.64-9.39-26.49-27.11c-5.91,7.34-12.53,14-19.71,19.82
				c-1.91,1.59-4.18,2.4-6.73,2.4h-0.89c-2.81-0.16-5.33-1.26-7.5-3.27c-1.99-1.82-2.95-4.2-2.78-6.87
				c0.16-2.64,1.26-4.82,3.25-6.49l0.09-0.07c10.44-7.77,19.55-17.39,27.07-28.61c0.34-0.55,0.45-1.21,0.29-2.01
				c-2.12-10.24-3.96-22.31-5.49-36.14c-0.1,0.52-0.26,1.04-0.47,1.55c-2.67,7.12-5.11,13.38-7.22,18.54
				c-0.89,1.96-2.26,3.32-4.09,4.11c-0.97,0.42-1.97,0.63-2.96,0.63c-0.89,0-1.77-0.17-2.64-0.5c-1.67-0.63-2.96-1.75-3.84-3.31
				c-0.17,1.6-0.37,3.16-0.59,4.67c-0.06,0.6,0.11,1.1,0.57,1.57c3.39,3,7.6,7.02,12.54,11.95c2.09,2.26,3.13,4.88,3.13,7.86
				c0,2.54-0.8,4.83-2.39,6.82c-1.62,2.03-3.8,3.1-6.3,3.1c-0.1,0-0.2,0-0.31,0c-2.6-0.08-4.79-1.2-6.32-3.24
				c-1.48-2.05-3.47-4.71-5.93-7.93c-3.92,9.68-9.85,18.26-17.67,25.57c-1.65,1.49-3.53,2.24-5.62,2.24c-0.31,0-0.62-0.02-0.93-0.05
				c-2.35-0.24-4.44-1.26-6.19-3.02c-1.68-1.68-2.54-3.73-2.54-6.1c0-2.41,0.88-4.42,2.62-5.98c3.97-3.84,7.37-8.08,10.08-12.54
				c2.68-4.42,4.64-9.07,5.83-13.8c1.21-4.83,2.04-9.37,2.49-13.5c0.45-4.15,0.67-8.91,0.67-14.14v-2.34
				c-1.1,10.1-3.53,18.38-7.21,24.64c-1.09,1.81-2.78,2.95-4.91,3.3c-0.45,0.08-0.91,0.12-1.35,0.12c-1.58,0-3.07-0.48-4.42-1.43
				c-1.04-0.73-1.84-1.63-2.37-2.68c-2.52,22.12-7.41,40.3-14.62,54.3c-1.38,2.41-3.47,3.86-6.25,4.36
				c-0.66,0.16-1.33,0.24-1.97,0.24c-1.99,0-3.89-0.65-5.67-1.94c-2.29-1.53-3.81-3.68-4.46-6.34c-0.31-0.95-0.47-1.92-0.47-2.89
				c0-1.77,0.48-3.47,1.42-5.06c5.45-10.93,9.12-23.28,10.91-36.71c1.8-13.59,2.72-28.52,2.72-44.37v-36.91
				c0-5.35,1.88-9.91,5.58-13.54c3.69-3.62,8.21-5.46,13.41-5.46h53.07c-0.52-10.81-0.78-17.03-0.78-18.51
				c0-2.75,0.99-5.13,2.93-7.08c1.9-2.05,4.36-3.13,7.27-3.13c2.88,0,5.36,1.02,7.37,3.03c1.98,1.98,3.06,4.43,3.22,7.26
				c0.13,7.18,0.33,13.34,0.59,18.37v0.06h21.97c-4.06-4.1-9.4-8.51-15.95-13.17c-2.02-1.34-3.2-3.32-3.37-5.68
				c-0.18-2.37,0.66-4.38,2.41-5.83c1.73-1.7,3.83-2.72,6.26-3.03c0.49-0.06,0.97-0.09,1.44-0.09c1.93,0,3.76,0.52,5.43,1.54
				l0.09,0.06c4.21,2.89,8.11,5.74,11.62,8.47c3.13,2.66,4.68,5.93,4.68,9.78c0,3.14-0.87,5.91-2.59,8.26
				c1.71,0.42,3.25,1.29,4.61,2.6c2.03,1.95,3.06,4.37,3.06,7.21c0,2.82-1.02,5.27-3.03,7.27c-2.01,2.01-4.42,3.03-7.18,3.03h-28.45
				c1.27,20.8,2.92,38.9,4.91,53.9c3.9-10.14,7.22-21.19,9.87-32.91c0.64-2.59,2.09-4.68,4.3-6.26c1.76-1.28,3.67-1.93,5.65-1.93
				c0.65,0,1.32,0.08,1.98,0.24c2.6,0.5,4.66,1.87,6.12,4.07c1.49,2.24,1.91,4.71,1.25,7.35c-5.61,23.62-13.37,44.17-23.06,61.06
				c-0.34,0.62-0.37,1.23-0.07,1.97l0.06,0.14l0.03,0.15c1.78,7.49,3.75,13.35,5.88,17.4c1.78,3.4,3.58,5.28,5.06,5.28
				c0.18-0.11,2.66-1.74,4.46-19.68l0.02-0.13c0.37-2.23,1.69-3.9,3.81-4.83c0.83-0.36,1.66-0.54,2.48-0.54
				c1.34,0,2.6,0.47,3.76,1.4c4.37,3.2,6.61,7.1,6.61,11.52v2.31l-0.03,0.16c-2.15,12.9-4.94,21.78-8.51,27.15
				c-3.48,5.5-7.66,8.31-12.41,8.31L772.25,1027.71L772.25,1027.71z M676.99,927.08c0,10.58-0.39,20.54-1.17,29.87
				c2.72-5.2,4.54-12.17,5.38-20.69c0.18-1.82,1-3.38,2.43-4.63c1.18-1.03,2.56-1.56,4.1-1.56c0.42,0,0.85,0.04,1.28,0.12
				c1.91,0.35,3.52,1.3,4.79,2.84c0.68,0.81,1.16,1.7,1.44,2.65V920.1h-8.74c-2.36,0-4.45-0.89-6.2-2.64s-2.64-3.87-2.64-6.3
				s0.89-4.55,2.64-6.3s3.83-2.64,6.2-2.64h34.57c2.49,0,4.65,0.89,6.39,2.64c1.75,1.75,2.64,3.87,2.64,6.3s-0.89,4.55-2.64,6.3
				s-3.9,2.64-6.39,2.64h-8.16v24.17c0,2.23-0.04,4.41-0.12,6.53c1.92-5.35,3.59-10.46,4.97-15.24c0.53-2.22,1.8-3.92,3.78-5.04
				c1.08-0.61,2.22-0.92,3.4-0.92c1.02,0,2.07,0.24,3.11,0.7c2.04,0.71,3.58,2.13,4.58,4.22c0.09,0.19,0.17,0.38,0.25,0.57
				c-1.35-13.04-2.44-27.55-3.27-43.45c0-0.02-0.01-0.03-0.01-0.05c-0.04,0-0.08-0.01-0.14-0.01h-52.49v35.5H676.99L676.99,927.08z
				 M619.71,1020.68c-1.77,0-3.53-0.48-5.26-1.42c-2.82-1.57-4.71-3.93-5.64-7.04c-0.44-1.31-0.67-2.64-0.67-3.9
				c0-1.74,0.47-3.49,1.38-5.19c7.09-15.35,13.76-31.83,19.83-48.99c1.01-2.69,2.93-4.53,5.71-5.52c1.02-0.34,2.02-0.5,3.01-0.5
				c1.7,0,3.32,0.51,4.82,1.51c2.55,1.65,4.39,3.96,5.45,6.83c0.48,1.43,0.71,2.89,0.71,4.4c0,1.36-0.23,2.81-0.67,4.29
				c-6,17.49-12.33,33.96-18.83,49.04c-1.28,2.86-3.43,4.86-6.42,5.97l-0.07,0.03l-0.07,0.02
				C621.9,1020.53,620.8,1020.68,619.71,1020.68z M635.92,928.89c-2.36,0-4.58-0.71-6.61-2.11c-5.36-3.7-11.26-7.2-17.54-10.41
				c-2.46-1.31-4.03-3.27-4.71-5.85c-0.32-0.84-0.48-1.7-0.48-2.57c0-1.89,0.67-3.62,1.98-5.14c1.7-2.42,4.03-4.04,6.93-4.8
				c1.05-0.3,2.22-0.46,3.44-0.46c1.71,0,3.43,0.39,5.12,1.15c6.83,3.15,12.96,6.49,18.23,9.91c2.65,1.56,4.28,3.98,4.78,7.15
				c0.15,0.66,0.23,1.31,0.23,1.95c0,2.52-0.8,4.84-2.37,6.88c-1.73,2.35-4.21,3.8-7.34,4.27l-0.15,0.02L635.92,928.89
				L635.92,928.89z M644.32,877.13c-2.4,0-4.65-0.8-6.69-2.37c-5.08-3.81-11.11-7.63-17.9-11.35c-2.47-1.32-4.03-3.38-4.61-6.13
				c-0.58-2.71,0.06-5.27,1.85-7.41c1.7-2.29,4.02-3.84,6.92-4.6l0.09-0.02l0.09-0.02c0.9-0.15,1.86-0.22,2.86-0.22
				c1.71,0,3.43,0.39,5.12,1.15c7.13,3.44,13.41,7.04,18.68,10.73c2.68,1.73,4.23,4.27,4.55,7.49l0.01,0.1v1.47
				c0,2.49-0.71,4.78-2.11,6.8c-1.77,2.41-4.21,3.79-7.29,4.15C645.39,877.05,644.85,877.13,644.32,877.13z"/>
			<path class="st24" d="M772.25,1027.71c-10.75-0.28-19.64-9.39-26.49-27.11c-5.91,7.34-12.53,14-19.71,19.82
				c-1.91,1.59-4.18,2.4-6.73,2.4h-0.89c-2.81-0.16-5.33-1.26-7.5-3.27c-1.99-1.82-2.95-4.2-2.78-6.87
				c0.16-2.64,1.26-4.82,3.25-6.49l0.09-0.07c10.44-7.77,19.55-17.39,27.07-28.61c0.34-0.55,0.45-1.21,0.29-2.01
				c-2.12-10.24-3.96-22.31-5.49-36.14c-0.1,0.52-0.26,1.04-0.47,1.55c-2.67,7.12-5.11,13.38-7.22,18.54
				c-0.89,1.96-2.26,3.32-4.09,4.11c-0.97,0.42-1.97,0.63-2.96,0.63c-0.89,0-1.77-0.17-2.64-0.5c-1.67-0.63-2.96-1.75-3.84-3.31
				c-0.17,1.6-0.37,3.16-0.59,4.67c-0.06,0.6,0.11,1.1,0.57,1.57c3.39,3,7.6,7.02,12.54,11.95c2.09,2.26,3.13,4.88,3.13,7.86
				c0,2.54-0.8,4.83-2.39,6.82c-1.62,2.03-3.8,3.1-6.3,3.1c-0.1,0-0.2,0-0.31,0c-2.6-0.08-4.79-1.2-6.32-3.24
				c-1.48-2.05-3.47-4.71-5.93-7.93c-3.92,9.68-9.85,18.26-17.67,25.57c-1.65,1.49-3.53,2.24-5.62,2.24c-0.31,0-0.62-0.02-0.93-0.05
				c-2.35-0.24-4.44-1.26-6.19-3.02c-1.68-1.68-2.54-3.73-2.54-6.1c0-2.41,0.88-4.42,2.62-5.98c3.97-3.84,7.37-8.08,10.08-12.54
				c2.68-4.42,4.64-9.07,5.83-13.8c1.21-4.83,2.04-9.37,2.49-13.5c0.45-4.15,0.67-8.91,0.67-14.14v-2.34
				c-1.1,10.1-3.53,18.38-7.21,24.64c-1.09,1.81-2.78,2.95-4.91,3.3c-0.45,0.08-0.91,0.12-1.35,0.12c-1.58,0-3.07-0.48-4.42-1.43
				c-1.04-0.73-1.84-1.63-2.37-2.68c-2.52,22.12-7.41,40.3-14.62,54.3c-1.38,2.41-3.47,3.86-6.25,4.36
				c-0.66,0.16-1.33,0.24-1.97,0.24c-1.99,0-3.89-0.65-5.67-1.94c-2.29-1.53-3.81-3.68-4.46-6.34c-0.31-0.95-0.47-1.92-0.47-2.89
				c0-1.77,0.48-3.47,1.42-5.06c5.45-10.93,9.12-23.28,10.91-36.71c1.8-13.59,2.72-28.52,2.72-44.37v-36.91
				c0-5.35,1.88-9.91,5.58-13.54c3.69-3.62,8.21-5.46,13.41-5.46h53.07c-0.52-10.81-0.78-17.03-0.78-18.51
				c0-2.75,0.99-5.13,2.93-7.08c1.9-2.05,4.36-3.13,7.27-3.13c2.88,0,5.36,1.02,7.37,3.03c1.98,1.98,3.06,4.43,3.22,7.26
				c0.13,7.18,0.33,13.34,0.59,18.37v0.06h21.97c-4.06-4.1-9.4-8.51-15.95-13.17c-2.02-1.34-3.2-3.32-3.37-5.68
				c-0.18-2.37,0.66-4.38,2.41-5.83c1.73-1.7,3.83-2.72,6.26-3.03c0.49-0.06,0.97-0.09,1.44-0.09c1.93,0,3.76,0.52,5.43,1.54
				l0.09,0.06c4.21,2.89,8.11,5.74,11.62,8.47c3.13,2.66,4.68,5.93,4.68,9.78c0,3.14-0.87,5.91-2.59,8.26
				c1.71,0.42,3.25,1.29,4.61,2.6c2.03,1.95,3.06,4.37,3.06,7.21c0,2.82-1.02,5.27-3.03,7.27c-2.01,2.01-4.42,3.03-7.18,3.03h-28.45
				c1.27,20.8,2.92,38.9,4.91,53.9c3.9-10.14,7.22-21.19,9.87-32.91c0.64-2.59,2.09-4.68,4.3-6.26c1.76-1.28,3.67-1.93,5.65-1.93
				c0.65,0,1.32,0.08,1.98,0.24c2.6,0.5,4.66,1.87,6.12,4.07c1.49,2.24,1.91,4.71,1.25,7.35c-5.61,23.62-13.37,44.17-23.06,61.06
				c-0.34,0.62-0.37,1.23-0.07,1.97l0.06,0.14l0.03,0.15c1.78,7.49,3.75,13.35,5.88,17.4c1.78,3.4,3.58,5.28,5.06,5.28
				c0.18-0.11,2.66-1.74,4.46-19.68l0.02-0.13c0.37-2.23,1.69-3.9,3.81-4.83c0.83-0.36,1.66-0.54,2.48-0.54
				c1.34,0,2.6,0.47,3.76,1.4c4.37,3.2,6.61,7.1,6.61,11.52v2.31l-0.03,0.16c-2.15,12.9-4.94,21.78-8.51,27.15
				c-3.48,5.5-7.66,8.31-12.41,8.31L772.25,1027.71L772.25,1027.71z M676.99,927.08c0,10.58-0.39,20.54-1.17,29.87
				c2.72-5.2,4.54-12.17,5.38-20.69c0.18-1.82,1-3.38,2.43-4.63c1.18-1.03,2.56-1.56,4.1-1.56c0.42,0,0.85,0.04,1.28,0.12
				c1.91,0.35,3.52,1.3,4.79,2.84c0.68,0.81,1.16,1.7,1.44,2.65V920.1h-8.74c-2.36,0-4.45-0.89-6.2-2.64s-2.64-3.87-2.64-6.3
				s0.89-4.55,2.64-6.3s3.83-2.64,6.2-2.64h34.57c2.49,0,4.65,0.89,6.39,2.64c1.75,1.75,2.64,3.87,2.64,6.3s-0.89,4.55-2.64,6.3
				s-3.9,2.64-6.39,2.64h-8.16v24.17c0,2.23-0.04,4.41-0.12,6.53c1.92-5.35,3.59-10.46,4.97-15.24c0.53-2.22,1.8-3.92,3.78-5.04
				c1.08-0.61,2.22-0.92,3.4-0.92c1.02,0,2.07,0.24,3.11,0.7c2.04,0.71,3.58,2.13,4.58,4.22c0.09,0.19,0.17,0.38,0.25,0.57
				c-1.35-13.04-2.44-27.55-3.27-43.45c0-0.02-0.01-0.03-0.01-0.05c-0.04,0-0.08-0.01-0.14-0.01h-52.49v35.5H676.99L676.99,927.08z
				 M619.71,1020.68c-1.77,0-3.53-0.48-5.26-1.42c-2.82-1.57-4.71-3.93-5.64-7.04c-0.44-1.31-0.67-2.64-0.67-3.9
				c0-1.74,0.47-3.49,1.38-5.19c7.09-15.35,13.76-31.83,19.83-48.99c1.01-2.69,2.93-4.53,5.71-5.52c1.02-0.34,2.02-0.5,3.01-0.5
				c1.7,0,3.32,0.51,4.82,1.51c2.55,1.65,4.39,3.96,5.45,6.83c0.48,1.43,0.71,2.89,0.71,4.4c0,1.36-0.23,2.81-0.67,4.29
				c-6,17.49-12.33,33.96-18.83,49.04c-1.28,2.86-3.43,4.86-6.42,5.97l-0.07,0.03l-0.07,0.02
				C621.9,1020.53,620.8,1020.68,619.71,1020.68z M635.92,928.89c-2.36,0-4.58-0.71-6.61-2.11c-5.36-3.7-11.26-7.2-17.54-10.41
				c-2.46-1.31-4.03-3.27-4.71-5.85c-0.32-0.84-0.48-1.7-0.48-2.57c0-1.89,0.67-3.62,1.98-5.14c1.7-2.42,4.03-4.04,6.93-4.8
				c1.05-0.3,2.22-0.46,3.44-0.46c1.71,0,3.43,0.39,5.12,1.15c6.83,3.15,12.96,6.49,18.23,9.91c2.65,1.56,4.28,3.98,4.78,7.15
				c0.15,0.66,0.23,1.31,0.23,1.95c0,2.52-0.8,4.84-2.37,6.88c-1.73,2.35-4.21,3.8-7.34,4.27l-0.15,0.02L635.92,928.89
				L635.92,928.89z M644.32,877.13c-2.4,0-4.65-0.8-6.69-2.37c-5.08-3.81-11.11-7.63-17.9-11.35c-2.47-1.32-4.03-3.38-4.61-6.13
				c-0.58-2.71,0.06-5.27,1.85-7.41c1.7-2.29,4.02-3.84,6.92-4.6l0.09-0.02l0.09-0.02c0.9-0.15,1.86-0.22,2.86-0.22
				c1.71,0,3.43,0.39,5.12,1.15c7.13,3.44,13.41,7.04,18.68,10.73c2.68,1.73,4.23,4.27,4.55,7.49l0.01,0.1v1.47
				c0,2.49-0.71,4.78-2.11,6.8c-1.77,2.41-4.21,3.79-7.29,4.15C645.39,877.05,644.85,877.13,644.32,877.13z"/>
		</g>
		<g>
			<path class="st18" d="M970.1,1020.49c-1.85,0-3.77-0.46-5.72-1.36c-6.47-3.04-12.68-6.65-18.48-10.73
				c-8.66-5.9-15.93-11.98-21.6-18.04c-5.65-6.04-10.74-12.47-15.15-19.11c-4.41-6.65-7.73-12.65-9.85-17.83
				c-1.16-2.62-2.17-5.17-3.02-7.61c-1.33,3.86-3.02,7.88-5.05,12.03c-3.15,6.69-7.68,14.19-13.45,22.26
				c-5.82,8.13-13.77,16.19-23.63,23.94c-7.22,5.78-15.3,10.85-24,15.07c-1.99,0.92-3.91,1.37-5.76,1.37c-1.32,0-2.6-0.15-3.8-0.45
				l-0.13-0.04c-3.25-1.03-5.94-2.91-8-5.56c-1.44-1.76-2.18-3.76-2.18-5.92v-1.78l0.05-0.21c0.65-2.95,2.4-5.12,5.06-6.28
				c8.41-3.82,16.17-8.35,23.05-13.45c9.46-6.9,17.04-14,22.56-21.1c5.54-7.13,10.2-14.73,13.83-22.56s6.15-14.99,7.48-21.25
				c1.33-6.28,2.01-12.28,2.01-17.85v-53.32c0-3.41,1.19-6.29,3.54-8.57c2.33-2.25,5.17-3.39,8.42-3.39c3.27,0,6.11,1.18,8.45,3.52
				c2.33,2.33,3.52,5.17,3.52,8.45v53.13c0,5.56,0.68,11.57,2.01,17.85c1.33,6.26,3.9,13.37,7.66,21.13
				c3.75,7.76,8.56,15.21,14.29,22.16c5.72,6.92,13.53,13.87,23.23,20.63c7.13,4.84,15.04,9.19,23.49,12.9
				c2.93,1.3,4.81,3.69,5.45,6.91c0.16,0.79,0.23,1.58,0.23,2.35c0,2.11-0.65,4.08-1.94,5.86c-2.2,2.93-4.94,4.94-8.17,5.98
				C972.97,1020.19,971.5,1020.49,970.1,1020.49z M826.55,942.36c-2.99,0-5.72-0.83-8.12-2.47c-2.9-1.79-4.43-4.6-4.43-8.12
				c0-2.72,0.97-5.15,2.87-7.21c7.63-8.76,13.06-21.45,16.11-37.68c0.45-2.88,1.86-5.39,4.17-7.39l0.1-0.08l0.11-0.07
				c1.72-1.14,3.6-1.72,5.59-1.72c0.22,0,0.44,0.01,0.67,0.02c0.62,0.01,1.3,0.08,2.07,0.23c3.38,0.62,5.92,2.28,7.53,4.94
				c1.52,2.02,2.29,4.3,2.29,6.79c0,0.65-0.08,1.32-0.24,1.97c-3.56,20.28-9.88,35.95-18.78,46.58c-2.2,2.51-5.15,3.92-8.79,4.22
				l-0.08,0.01h-1.07L826.55,942.36L826.55,942.36z M943.74,939.43c-1.88,0-3.62-0.4-5.19-1.19c-2.71-1.27-4.45-3.34-5.13-6.12
				c-0.31-0.95-0.47-1.85-0.47-2.7c0-1.79,0.49-3.52,1.46-5.13c6.82-11.2,13.15-23.79,18.81-37.43c1.37-3.35,3.7-5.75,6.92-7.13
				c1.82-0.76,3.59-1.14,5.28-1.14c1.52,0,3.13,0.3,4.78,0.9l0.14,0.06c3.07,1.38,5.26,3.71,6.5,6.92c0.62,1.41,0.93,2.78,0.93,4.08
				c0,1.91-0.55,3.83-1.64,5.69c-8.16,15.03-15.68,27.76-22.33,37.79c-1.55,2.48-3.85,4.15-6.82,4.93
				C945.94,939.28,944.84,939.43,943.74,939.43z"/>
			<path class="st24" d="M970.1,1020.49c-1.85,0-3.77-0.46-5.72-1.36c-6.47-3.04-12.68-6.65-18.48-10.73
				c-8.66-5.9-15.93-11.98-21.6-18.04c-5.65-6.04-10.74-12.47-15.15-19.11c-4.41-6.65-7.73-12.65-9.85-17.83
				c-1.16-2.62-2.17-5.17-3.02-7.61c-1.33,3.86-3.02,7.88-5.05,12.03c-3.15,6.69-7.68,14.19-13.45,22.26
				c-5.82,8.13-13.77,16.19-23.63,23.94c-7.22,5.78-15.3,10.85-24,15.07c-1.99,0.92-3.91,1.37-5.76,1.37c-1.32,0-2.6-0.15-3.8-0.45
				l-0.13-0.04c-3.25-1.03-5.94-2.91-8-5.56c-1.44-1.76-2.18-3.76-2.18-5.92v-1.78l0.05-0.21c0.65-2.95,2.4-5.12,5.06-6.28
				c8.41-3.82,16.17-8.35,23.05-13.45c9.46-6.9,17.04-14,22.56-21.1c5.54-7.13,10.2-14.73,13.83-22.56s6.15-14.99,7.48-21.25
				c1.33-6.28,2.01-12.28,2.01-17.85v-53.32c0-3.41,1.19-6.29,3.54-8.57c2.33-2.25,5.17-3.39,8.42-3.39c3.27,0,6.11,1.18,8.45,3.52
				c2.33,2.33,3.52,5.17,3.52,8.45v53.13c0,5.56,0.68,11.57,2.01,17.85c1.33,6.26,3.9,13.37,7.66,21.13
				c3.75,7.76,8.56,15.21,14.29,22.16c5.72,6.92,13.53,13.87,23.23,20.63c7.13,4.84,15.04,9.19,23.49,12.9
				c2.93,1.3,4.81,3.69,5.45,6.91c0.16,0.79,0.23,1.58,0.23,2.35c0,2.11-0.65,4.08-1.94,5.86c-2.2,2.93-4.94,4.94-8.17,5.98
				C972.97,1020.19,971.5,1020.49,970.1,1020.49z M826.55,942.36c-2.99,0-5.72-0.83-8.12-2.47c-2.9-1.79-4.43-4.6-4.43-8.12
				c0-2.72,0.97-5.15,2.87-7.21c7.63-8.76,13.06-21.45,16.11-37.68c0.45-2.88,1.86-5.39,4.17-7.39l0.1-0.08l0.11-0.07
				c1.72-1.14,3.6-1.72,5.59-1.72c0.22,0,0.44,0.01,0.67,0.02c0.62,0.01,1.3,0.08,2.07,0.23c3.38,0.62,5.92,2.28,7.53,4.94
				c1.52,2.02,2.29,4.3,2.29,6.79c0,0.65-0.08,1.32-0.24,1.97c-3.56,20.28-9.88,35.95-18.78,46.58c-2.2,2.51-5.15,3.92-8.79,4.22
				l-0.08,0.01h-1.07L826.55,942.36L826.55,942.36z M943.74,939.43c-1.88,0-3.62-0.4-5.19-1.19c-2.71-1.27-4.45-3.34-5.13-6.12
				c-0.31-0.95-0.47-1.85-0.47-2.7c0-1.79,0.49-3.52,1.46-5.13c6.82-11.2,13.15-23.79,18.81-37.43c1.37-3.35,3.7-5.75,6.92-7.13
				c1.82-0.76,3.59-1.14,5.28-1.14c1.52,0,3.13,0.3,4.78,0.9l0.14,0.06c3.07,1.38,5.26,3.71,6.5,6.92c0.62,1.41,0.93,2.78,0.93,4.08
				c0,1.91-0.55,3.83-1.64,5.69c-8.16,15.03-15.68,27.76-22.33,37.79c-1.55,2.48-3.85,4.15-6.82,4.93
				C945.94,939.28,944.84,939.43,943.74,939.43z"/>
		</g>
		<g>
			<path class="st18" d="M1042.86,1027.91c-3.08,0-5.75-1.12-7.96-3.32c-2.2-2.2-3.32-4.85-3.32-7.86v-93.21
				c-3.03,3.75-6.12,7.36-9.22,10.77c-1.83,1.99-4.1,3-6.75,3h-1.5l-0.13-0.02c-3.48-0.47-6.08-2.31-7.54-5.32
				c-1.58-2.62-2.39-5.31-2.39-7.99c0-0.63,0.07-1.26,0.21-1.88c0.33-3.66,1.76-6.79,4.28-9.3c16-17.02,29.54-37.8,40.21-61.71
				c1.22-2.89,3.32-5.08,6.24-6.46c1.72-0.78,3.51-1.17,5.35-1.17c1.06,0,2.21,0.15,3.41,0.45l0.12,0.03c3,0.95,5.24,2.87,6.66,5.7
				c0.67,1.51,0.99,2.97,0.99,4.41s-0.32,2.9-0.95,4.33c-4.57,10.44-9.86,20.96-15.72,31.24c-0.48,0.86-0.71,1.75-0.71,2.72v124.41
				c0,3.01-1.12,5.65-3.32,7.86C1048.61,1026.79,1045.93,1027.91,1042.86,1027.91z M1076.55,1020.68c-3,0-5.63-1.08-7.83-3.2
				c-2.22-2.14-3.35-4.76-3.35-7.79c0-3.02,1.09-5.61,3.25-7.69c2.14-2.06,4.81-3.1,7.93-3.1h37.84v-52.64h-45.46
				c-3.01,0-5.62-1.08-7.76-3.22c-2.14-2.14-3.22-4.75-3.22-7.76s1.08-5.62,3.22-7.76s4.75-3.22,7.76-3.22h45.46v-44.4
				c-10.38,1.66-21.91,3.29-34.28,4.83l-0.12,0.02h-1.3c-2.39,0-4.56-0.73-6.47-2.16c-2.34-1.6-4.06-3.72-5.06-6.24
				c-1.07-2.72-0.88-5.37,0.56-7.66c1.41-2.24,3.56-3.61,6.23-3.95c34.08-4.65,62.3-10.34,83.85-16.92
				c1.72-0.57,3.48-0.87,5.17-0.87c1.67,0,3.32,0.22,4.92,0.66c3.54,1.03,6.43,2.89,8.63,5.53c1.46,1.62,2.22,3.51,2.22,5.58
				c0,0.77-0.08,1.55-0.23,2.34l-0.02,0.11l-0.03,0.11c-0.98,3.11-3.08,5.19-6.06,6.01c-10,2.86-21.74,5.69-34.89,8.43
				c-0.07,0.02-0.12,0.04-0.14,0.05c0.01,0.02-0.02,0.12-0.02,0.34v48.2h42.34c3.01,0,5.62,1.08,7.76,3.22
				c2.14,2.14,3.22,4.75,3.22,7.76s-1.08,5.62-3.22,7.76s-4.75,3.22-7.76,3.22h-42.34v52.64h39.6c3,0,5.6,1.04,7.73,3.1
				c2.16,2.08,3.25,4.67,3.25,7.69c0,3.01-1.08,5.62-3.22,7.76s-4.75,3.22-7.76,3.22L1076.55,1020.68L1076.55,1020.68z"/>
			<path class="st24" d="M1042.86,1027.91c-3.08,0-5.75-1.12-7.96-3.32c-2.2-2.2-3.32-4.85-3.32-7.86v-93.21
				c-3.03,3.75-6.12,7.36-9.22,10.77c-1.83,1.99-4.1,3-6.75,3h-1.5l-0.13-0.02c-3.48-0.47-6.08-2.31-7.54-5.32
				c-1.58-2.62-2.39-5.31-2.39-7.99c0-0.63,0.07-1.26,0.21-1.88c0.33-3.66,1.76-6.79,4.28-9.3c16-17.02,29.54-37.8,40.21-61.71
				c1.22-2.89,3.32-5.08,6.24-6.46c1.72-0.78,3.51-1.17,5.35-1.17c1.06,0,2.21,0.15,3.41,0.45l0.12,0.03c3,0.95,5.24,2.87,6.66,5.7
				c0.67,1.51,0.99,2.97,0.99,4.41s-0.32,2.9-0.95,4.33c-4.57,10.44-9.86,20.96-15.72,31.24c-0.48,0.86-0.71,1.75-0.71,2.72v124.41
				c0,3.01-1.12,5.65-3.32,7.86C1048.61,1026.79,1045.93,1027.91,1042.86,1027.91z M1076.55,1020.68c-3,0-5.63-1.08-7.83-3.2
				c-2.22-2.14-3.35-4.76-3.35-7.79c0-3.02,1.09-5.61,3.25-7.69c2.14-2.06,4.81-3.1,7.93-3.1h37.84v-52.64h-45.46
				c-3.01,0-5.62-1.08-7.76-3.22c-2.14-2.14-3.22-4.75-3.22-7.76s1.08-5.62,3.22-7.76s4.75-3.22,7.76-3.22h45.46v-44.4
				c-10.38,1.66-21.91,3.29-34.28,4.83l-0.12,0.02h-1.3c-2.39,0-4.56-0.73-6.47-2.16c-2.34-1.6-4.06-3.72-5.06-6.24
				c-1.07-2.72-0.88-5.37,0.56-7.66c1.41-2.24,3.56-3.61,6.23-3.95c34.08-4.65,62.3-10.34,83.85-16.92
				c1.72-0.57,3.48-0.87,5.17-0.87c1.67,0,3.32,0.22,4.92,0.66c3.54,1.03,6.43,2.89,8.63,5.53c1.46,1.62,2.22,3.51,2.22,5.58
				c0,0.77-0.08,1.55-0.23,2.34l-0.02,0.11l-0.03,0.11c-0.98,3.11-3.08,5.19-6.06,6.01c-10,2.86-21.74,5.69-34.89,8.43
				c-0.07,0.02-0.12,0.04-0.14,0.05c0.01,0.02-0.02,0.12-0.02,0.34v48.2h42.34c3.01,0,5.62,1.08,7.76,3.22
				c2.14,2.14,3.22,4.75,3.22,7.76s-1.08,5.62-3.22,7.76s-4.75,3.22-7.76,3.22h-42.34v52.64h39.6c3,0,5.6,1.04,7.73,3.1
				c2.16,2.08,3.25,4.67,3.25,7.69c0,3.01-1.08,5.62-3.22,7.76s-4.75,3.22-7.76,3.22L1076.55,1020.68L1076.55,1020.68z"/>
		</g>
		<g>
			<path class="st18" d="M1233.38,1027.13c-2.95,0-5.63-1.02-7.95-3.03c-2.33-1.9-4-4.32-4.9-7.16c-0.83-2.67-0.44-5.26,1.15-7.52
				c1.6-2.28,3.89-3.48,6.62-3.48h9.08c0.61-0.07,0.97-0.15,1.16-0.21c0.03-0.16,0.07-0.45,0.07-0.91v-44.94
				c-5.27,10.97-10.9,20.31-16.74,27.8c-1.52,2.03-3.63,3.11-6.07,3.11c-0.56,0-1.11-0.08-1.65-0.25c-2.87-0.52-5.1-2.15-6.46-4.72
				c-1.25-2.36-1.89-4.84-1.89-7.38c0-0.62,0.07-1.31,0.21-2.04c0.32-3.24,1.59-6.15,3.8-8.65c8.46-9.96,15.9-22.58,22.09-37.5
				h-16.68c-2.88,0-5.33-0.99-7.27-2.93c-1.94-1.94-2.93-4.33-2.93-7.08c0-2.73,0.98-5.14,2.9-7.15c1.95-2.03,4.41-3.06,7.3-3.06
				h36.43c-8.31-5.47-18.27-10.95-29.66-16.31c-2.4-1.2-3.92-3.17-4.43-5.71c-0.52-2.6,0.21-4.98,2.11-6.88
				c1.9-2.05,4.33-3.43,7.18-4.04c1.06-0.3,2.08-0.45,3.02-0.45c1.82,0,3.65,0.38,5.46,1.13c3.02,1.31,5.88,2.64,8.52,3.96
				c0.31,0.17,0.52,0.24,0.7,0.24c0.22,0,0.46-0.09,0.74-0.26c4.2-3.44,8.32-7.47,12.27-12.01h-40.19c-2.75,0-5.13-0.99-7.08-2.93
				c-1.94-1.94-2.93-4.29-2.93-6.98s0.99-5.04,2.93-6.98c1.94-1.94,4.33-2.93,7.08-2.93h58c0.61-0.12,1.21-0.18,1.8-0.18
				c1.57,0,3.08,0.41,4.48,1.23l0.1,0.06l3.52,2.34c2.09,1.29,3.47,3.18,4.06,5.59c0.59,2.46,0.1,4.82-1.42,6.85
				c-6.91,9.21-15.42,17.98-25.31,26.06c1.42,0.79,2.85,1.62,4.25,2.48l0.08,0.05c2.92,2,4.58,4.85,4.94,8.48
				c0.15,0.51,0.22,0.96,0.22,1.37c0,2.11-0.5,4.05-1.5,5.81h8.14c0.95-0.32,1.92-0.49,2.89-0.49c1.07,0,2.14,0.2,3.19,0.6
				l3.16,0.99l0.09,0.04c1.97,0.82,3.51,2.2,4.58,4.08c0.86,1.53,1.23,3.1,1.11,4.7c9-2.64,17.26-5.97,24.61-9.93
				c-5.63-5.45-10.58-11.27-14.71-17.31c-1.13,1.22-2.27,2.41-3.42,3.56c-2.31,2.31-5.12,3.56-8.35,3.71h-0.48
				c-3.04,0-5.8-0.99-8.22-2.93c-2.45-1.66-3.74-4.18-3.74-7.27c0-2.69,1.03-4.92,3.06-6.61c10.66-9.39,19.51-20.7,26.27-33.57
				c1.51-2.73,3.64-4.78,6.34-6.13c1.76-0.8,3.48-1.19,5.19-1.19c1.06,0,2.21,0.15,3.41,0.45c2.84,0.84,4.89,2.56,6.19,5.15
				l0.05,0.1l0.04,0.1c0.47,1.26,0.71,2.55,0.71,3.83c0,1.31-0.32,2.7-0.95,4.13l-0.07,0.13c-0.85,1.58-1.7,3.15-2.55,4.67h51.76
				c2.62,0,4.94,0.99,6.88,2.93c1.94,1.94,2.93,4.29,2.93,6.98c0,2.71-1,5.03-2.96,6.91c-1.94,1.86-4.24,2.8-6.85,2.8h-4.69
				c0-0.01,0-0.01-0.01-0.01c-0.02,0-0.06,0.05-0.11,0.17c-4.95,11.08-11.71,20.98-20.1,29.48c8.38,4.55,17.85,8.3,28.17,11.16
				c2.69,0.67,4.59,2.47,5.46,5.18c0.99,2.68,0.63,5.33-1.04,7.67c-2.1,2.7-4.69,4.62-7.75,5.79c-1.73,0.73-3.51,1.11-5.2,1.11
				c-1.38,0-2.78-0.23-4.15-0.69c-11.96-3.94-23.02-9.21-32.88-15.65l-0.1-0.07c-0.17-0.12-0.31-0.19-0.41-0.19
				c-0.14,0-0.36,0.09-0.6,0.25c-9.12,5.69-20.09,10.81-32.67,15.26c-1.23,0.46-2.58,0.7-3.99,0.7c-1.43,0-2.93-0.31-4.46-0.93
				c-1.77-0.69-3.36-1.68-4.75-2.97c-2.59,8.65-5.11,16.09-7.48,22.16c-0.86,2.22-2.49,3.82-4.84,4.75
				c-1.03,0.41-2.08,0.61-3.1,0.61c-1.32,0-2.62-0.34-3.85-1.01c-2.22-1.11-3.83-2.88-4.73-5.25c-0.88-2.32-0.92-4.71-0.12-7.1
				c1.76-5.28,3.67-12.21,5.69-20.61h-10.97v74.76c0,5.1-0.52,8.98-1.59,11.83c-1.16,3.09-3.5,5.5-6.97,7.16
				c-3.95,1.83-9.76,2.85-17.79,3.13h-0.03L1233.38,1027.13L1233.38,1027.13z M1335.4,897.77c0.06,0.04,0.11,0.07,0.14,0.09
				c0.03-0.03,0.08-0.06,0.14-0.12c5.39-5.03,9.9-10.83,13.46-17.29h-29.85C1323.46,886.47,1328.87,892.29,1335.4,897.77z
				 M1342.95,1026.35c-2.99,0-5.65-1.07-7.91-3.17c-2.15-2-3.62-4.5-4.37-7.45c-0.83-2.55-0.41-5.01,1.21-7.14
				c1.52-1.99,3.58-3.05,5.95-3.05c0.18,0,0.37,0.01,0.55,0.02c3.56,0.26,6.76,0.39,9.54,0.39c2.23,0,3.83-0.55,4.87-1.7l0.07-0.08
				l0.08-0.07c1.68-1.48,4.93-7.75,7.9-33.03h-24.93c-0.13,0-0.18,0.02-0.18,0.02c-0.03,0.02-0.14,0.15-0.25,0.5
				c-3.44,11.65-8.72,21.97-15.69,30.66c-6.99,8.72-16.72,16.1-28.92,21.94c-1.73,0.78-3.39,1.17-4.96,1.17h-0.13l-0.13-0.02
				c-1.2-0.15-2.4-0.45-3.58-0.89c-2.61-0.87-4.94-2.45-6.86-4.67l-0.07-0.09c-1.67-2.17-2.22-4.66-1.64-7.4s2.21-4.81,4.72-5.98
				c16.43-7.53,27.85-19.39,33.97-35.25h-17.3c-2.76,0-5.11-0.95-6.98-2.83c-1.88-1.87-2.83-4.19-2.83-6.88
				c0-2.67,0.94-5.01,2.8-6.95c1.88-1.96,4.24-2.96,7.01-2.96h22.27c0.06,0,0.1,0,0.14-0.01c0.01-0.04,0.02-0.09,0.02-0.15
				c0.4-2.65,0.75-5.26,1.08-7.86c0.38-3.08,1.75-5.7,4.06-7.78c2.32-2.09,5.07-3.15,8.17-3.15c3.04,0,5.63,1.13,7.71,3.37
				l0.07,0.08c1.6,1.93,2.42,4.13,2.42,6.55v1.27l-0.01,0.1c-0.25,2.51-0.63,5.05-1.11,7.57h26.27c5.24,0,9.61,1.92,12.98,5.71
				c3.23,3.25,4.79,7.09,4.64,11.4c0,0.67-0.07,1.43-0.21,2.18c-2.94,27.2-6.88,43.13-12.03,48.72c-3.47,3.47-8.38,5.7-14.64,6.67
				l-0.1,0.02h-0.1c-2.54,0.13-5.73,0.2-9.48,0.2h-4.09L1342.95,1026.35L1342.95,1026.35z"/>
			<path class="st24" d="M1233.38,1027.13c-2.95,0-5.63-1.02-7.95-3.03c-2.33-1.9-4-4.32-4.9-7.16c-0.83-2.67-0.44-5.26,1.15-7.52
				c1.6-2.28,3.89-3.48,6.62-3.48h9.08c0.61-0.07,0.97-0.15,1.16-0.21c0.03-0.16,0.07-0.45,0.07-0.91v-44.94
				c-5.27,10.97-10.9,20.31-16.74,27.8c-1.52,2.03-3.63,3.11-6.07,3.11c-0.56,0-1.11-0.08-1.65-0.25c-2.87-0.52-5.1-2.15-6.46-4.72
				c-1.25-2.36-1.89-4.84-1.89-7.38c0-0.62,0.07-1.31,0.21-2.04c0.32-3.24,1.59-6.15,3.8-8.65c8.46-9.96,15.9-22.58,22.09-37.5
				h-16.68c-2.88,0-5.33-0.99-7.27-2.93c-1.94-1.94-2.93-4.33-2.93-7.08c0-2.73,0.98-5.14,2.9-7.15c1.95-2.03,4.41-3.06,7.3-3.06
				h36.43c-8.31-5.47-18.27-10.95-29.66-16.31c-2.4-1.2-3.92-3.17-4.43-5.71c-0.52-2.6,0.21-4.98,2.11-6.88
				c1.9-2.05,4.33-3.43,7.18-4.04c1.06-0.3,2.08-0.45,3.02-0.45c1.82,0,3.65,0.38,5.46,1.13c3.02,1.31,5.88,2.64,8.52,3.96
				c0.31,0.17,0.52,0.24,0.7,0.24c0.22,0,0.46-0.09,0.74-0.26c4.2-3.44,8.32-7.47,12.27-12.01h-40.19c-2.75,0-5.13-0.99-7.08-2.93
				c-1.94-1.94-2.93-4.29-2.93-6.98s0.99-5.04,2.93-6.98c1.94-1.94,4.33-2.93,7.08-2.93h58c0.61-0.12,1.21-0.18,1.8-0.18
				c1.57,0,3.08,0.41,4.48,1.23l0.1,0.06l3.52,2.34c2.09,1.29,3.47,3.18,4.06,5.59c0.59,2.46,0.1,4.82-1.42,6.85
				c-6.91,9.21-15.42,17.98-25.31,26.06c1.42,0.79,2.85,1.62,4.25,2.48l0.08,0.05c2.92,2,4.58,4.85,4.94,8.48
				c0.15,0.51,0.22,0.96,0.22,1.37c0,2.11-0.5,4.05-1.5,5.81h8.14c0.95-0.32,1.92-0.49,2.89-0.49c1.07,0,2.14,0.2,3.19,0.6
				l3.16,0.99l0.09,0.04c1.97,0.82,3.51,2.2,4.58,4.08c0.86,1.53,1.23,3.1,1.11,4.7c9-2.64,17.26-5.97,24.61-9.93
				c-5.63-5.45-10.58-11.27-14.71-17.31c-1.13,1.22-2.27,2.41-3.42,3.56c-2.31,2.31-5.12,3.56-8.35,3.71h-0.48
				c-3.04,0-5.8-0.99-8.22-2.93c-2.45-1.66-3.74-4.18-3.74-7.27c0-2.69,1.03-4.92,3.06-6.61c10.66-9.39,19.51-20.7,26.27-33.57
				c1.51-2.73,3.64-4.78,6.34-6.13c1.76-0.8,3.48-1.19,5.19-1.19c1.06,0,2.21,0.15,3.41,0.45c2.84,0.84,4.89,2.56,6.19,5.15
				l0.05,0.1l0.04,0.1c0.47,1.26,0.71,2.55,0.71,3.83c0,1.31-0.32,2.7-0.95,4.13l-0.07,0.13c-0.85,1.58-1.7,3.15-2.55,4.67h51.76
				c2.62,0,4.94,0.99,6.88,2.93c1.94,1.94,2.93,4.29,2.93,6.98c0,2.71-1,5.03-2.96,6.91c-1.94,1.86-4.24,2.8-6.85,2.8h-4.69
				c0-0.01,0-0.01-0.01-0.01c-0.02,0-0.06,0.05-0.11,0.17c-4.95,11.08-11.71,20.98-20.1,29.48c8.38,4.55,17.85,8.3,28.17,11.16
				c2.69,0.67,4.59,2.47,5.46,5.18c0.99,2.68,0.63,5.33-1.04,7.67c-2.1,2.7-4.69,4.62-7.75,5.79c-1.73,0.73-3.51,1.11-5.2,1.11
				c-1.38,0-2.78-0.23-4.15-0.69c-11.96-3.94-23.02-9.21-32.88-15.65l-0.1-0.07c-0.17-0.12-0.31-0.19-0.41-0.19
				c-0.14,0-0.36,0.09-0.6,0.25c-9.12,5.69-20.09,10.81-32.67,15.26c-1.23,0.46-2.58,0.7-3.99,0.7c-1.43,0-2.93-0.31-4.46-0.93
				c-1.77-0.69-3.36-1.68-4.75-2.97c-2.59,8.65-5.11,16.09-7.48,22.16c-0.86,2.22-2.49,3.82-4.84,4.75
				c-1.03,0.41-2.08,0.61-3.1,0.61c-1.32,0-2.62-0.34-3.85-1.01c-2.22-1.11-3.83-2.88-4.73-5.25c-0.88-2.32-0.92-4.71-0.12-7.1
				c1.76-5.28,3.67-12.21,5.69-20.61h-10.97v74.76c0,5.1-0.52,8.98-1.59,11.83c-1.16,3.09-3.5,5.5-6.97,7.16
				c-3.95,1.83-9.76,2.85-17.79,3.13h-0.03L1233.38,1027.13L1233.38,1027.13z M1335.4,897.77c0.06,0.04,0.11,0.07,0.14,0.09
				c0.03-0.03,0.08-0.06,0.14-0.12c5.39-5.03,9.9-10.83,13.46-17.29h-29.85C1323.46,886.47,1328.87,892.29,1335.4,897.77z
				 M1342.95,1026.35c-2.99,0-5.65-1.07-7.91-3.17c-2.15-2-3.62-4.5-4.37-7.45c-0.83-2.55-0.41-5.01,1.21-7.14
				c1.52-1.99,3.58-3.05,5.95-3.05c0.18,0,0.37,0.01,0.55,0.02c3.56,0.26,6.76,0.39,9.54,0.39c2.23,0,3.83-0.55,4.87-1.7l0.07-0.08
				l0.08-0.07c1.68-1.48,4.93-7.75,7.9-33.03h-24.93c-0.13,0-0.18,0.02-0.18,0.02c-0.03,0.02-0.14,0.15-0.25,0.5
				c-3.44,11.65-8.72,21.97-15.69,30.66c-6.99,8.72-16.72,16.1-28.92,21.94c-1.73,0.78-3.39,1.17-4.96,1.17h-0.13l-0.13-0.02
				c-1.2-0.15-2.4-0.45-3.58-0.89c-2.61-0.87-4.94-2.45-6.86-4.67l-0.07-0.09c-1.67-2.17-2.22-4.66-1.64-7.4s2.21-4.81,4.72-5.98
				c16.43-7.53,27.85-19.39,33.97-35.25h-17.3c-2.76,0-5.11-0.95-6.98-2.83c-1.88-1.87-2.83-4.19-2.83-6.88
				c0-2.67,0.94-5.01,2.8-6.95c1.88-1.96,4.24-2.96,7.01-2.96h22.27c0.06,0,0.1,0,0.14-0.01c0.01-0.04,0.02-0.09,0.02-0.15
				c0.4-2.65,0.75-5.26,1.08-7.86c0.38-3.08,1.75-5.7,4.06-7.78c2.32-2.09,5.07-3.15,8.17-3.15c3.04,0,5.63,1.13,7.71,3.37
				l0.07,0.08c1.6,1.93,2.42,4.13,2.42,6.55v1.27l-0.01,0.1c-0.25,2.51-0.63,5.05-1.11,7.57h26.27c5.24,0,9.61,1.92,12.98,5.71
				c3.23,3.25,4.79,7.09,4.64,11.4c0,0.67-0.07,1.43-0.21,2.18c-2.94,27.2-6.88,43.13-12.03,48.72c-3.47,3.47-8.38,5.7-14.64,6.67
				l-0.1,0.02h-0.1c-2.54,0.13-5.73,0.2-9.48,0.2h-4.09L1342.95,1026.35L1342.95,1026.35z"/>
		</g>
	</g>
</g>
<path class="st25" d="M517.03,1021.16h-74.22c-28.48,0-51.56-23.09-51.56-51.56v-74.22c0-28.48,23.09-51.56,51.56-51.56h74.22
	c28.48,0,51.56,23.09,51.56,51.56v74.22C568.59,998.08,545.51,1021.16,517.03,1021.16z"/>
</svg>
