<?xml version="1.0" encoding="utf-8"?>
<!-- Generator: Adobe Illustrator 23.0.5, SVG Export Plug-In . SVG Version: 6.00 Build 0)  -->
<svg version="1.1" id="圖層_1" xmlns="http://www.w3.org/2000/svg" xmlns:xlink="http://www.w3.org/1999/xlink" x="0px" y="0px"
	 viewBox="0 0 1920 1080" style="enable-background:new 0 0 1920 1080;" xml:space="preserve">
<style type="text/css">
	.st0{fill:#87593A;}
	.st1{fill:#7F8E92;}
	.st2{fill:#F9B622;}
	.st3{fill:#DDEFF4;}
	.st4{fill:#788C8E;}
	.st5{fill:#474143;}
	.st6{fill:#C21824;}
	.st7{fill:#280811;}
	.st8{fill:#A1A9AC;}
	.st9{fill:#26080B;}
	.st10{fill:#889398;}
	.st11{fill:#2C0A0E;}
	.st12{fill:#FDFDFD;}
	.st13{fill:url(#SVGID_1_);}
	.st14{fill:#2A0914;}
	.st15{fill:#290C14;}
	.st16{fill:#2B0C14;}
	.st17{fill:#FDFBFC;}
	.st18{fill:#FFFFFF;}
	.st19{fill:#EEF8FB;}
	.st20{fill:#FAFBFA;}
	.st21{fill:#FE6671;}
	.st22{fill:#FF6C3E;}
	.st23{fill:#FFBE3E;}
</style>
<g>
	<path class="st0" d="M664.75,355.28c68.32,221.97,103.87,455.58,158.45,682.67c0.75,3.13,1.68,6.54,4.03,8.29
		c1.81,1.34,4.09,1.4,6.24,1.41c14.75,0.1,29.52,0.21,44.27,0.31c1.54,0.01,3.24-0.04,4.39-1.24c1.29-1.33,1.42-3.6,1.4-5.62
		c-0.21-18.94-5.98-37.12-11.8-54.79c-24.81-75.2-52.22-149.46-70.88-227.06c-15.14-62.95-24.39-127.6-36.11-191.55
		c-16.8-91.64-38.72-181.99-65.56-270.31c-13.78,4.5-26.98,11.48-38.96,20.6c-3.59,2.73-7.26,5.94-8.73,10.65
		c-4.4,14.15,13.26,24.48,16.04,39.18"/>
</g>
<g>
	<path class="st1" d="M585.58,181.7c1.9-5.05,8.59-4.37,12.13-0.71c3.54,3.67,5.43,9.1,8.94,12.81c4.12,4.36,9.91,5.78,15.42,6.64
		c23.35,3.63,47.73,0.15,68.9-11.9c21.17-12.05,38.89-32.96,47.31-58.63c14.38,66.32,28.76,132.63,43.14,198.95
		c-14.44-13.25-33.92-17.62-52.11-14.74c-18.2,2.89-35.21,12.5-50.29,24.73c-23.57,19.1-42.89,44.53-59.85,71.54
		c-28.45-61.9-34.34-134.06-39.69-204.02c-0.48-6.38-0.96-12.96,0.64-19.1c1.61-6.13,5.82-11.79,11.27-12.53"/>
</g>
<g>
	<path class="st2" d="M862.49,684.22c-22.28-18.39-50.94-37.46-75.09-22.61c-15.39,9.46-23.03,29.8-29.4,48.69
		c-36.87,109.37-68.68,221.08-95.25,334.45c226.36,7.08,452.88,7,679.24-0.24c-4.07-50.11-17.22-98.51-30.29-146.47
		c-8.61-31.59-17.22-63.19-25.83-94.79c-5.09-18.67-10.22-37.48-18.17-54.75c-22.19-48.21-65.71-80.62-111.89-90.05
		c-17.98-3.68-37.95-3.65-52.75,8.85c-5.27,4.45-9.61,10.28-14.84,14.82c-8.54,7.41-19.02,11.02-29.28,14.33
		c-32.76,10.57-66.26,19.7-100.25,19.6s-68.84-10.08-95.69-34.41"/>
</g>
<g>
	<path class="st3" d="M865.01,775.99c48.07,36.89,92.41,80.37,131.83,129.26c25.34-18.86,46.09-44.81,68.1-68.69
		c22.01-23.88,46.4-46.42,75.31-55.98c2.83-0.94,6.09-1.69,8.57,0.17c3.03,2.26,3.41,7.17,3.4,11.36
		c-0.05,18.06-1.53,36.15-0.17,54.14c2.47,32.39,14.04,62.89,18.72,94.94c4.74,32.49,2.29,65.76-0.17,98.6
		c-0.15,1.97-0.43,4.21-1.85,5.29c-0.84,0.64-1.9,0.71-2.9,0.76c-90.55,4.33-181.23,5.03-271.83,2.09c-1.49-0.05-4.7,0-8.48-1.62
		c-11.18-4.75-20.31-20.49-28.03-70.85c-4-26.05-4.76-41.75-6.34-64.48c-6.06-86.94-17.36-120.63-2.55-132.46
		c2.93-2.34,8.46-5.08,18.9-2.51"/>
</g>
<g>
	<path class="st4" d="M1003.29,925.08c22.23-23.39,45.78-47.18,70.68-71.15c24.92-24,49.41-46.47,73.32-67.5
		c11.78,67.37,19.95,121.34,25.86,157.25c0,0,1.81,11.05-1.13,76.28c-0.14,3.07-0.57,9.75-4.6,14.6c-4.33,5.23-11.37,5.49-17.63,5.4
		c-49.61-0.71-99.22-1.42-148.82-2.13c-1.78-0.03-3.78-0.16-4.96-1.7c-1.26-1.65-1.17-3.99-1.14-4.76
		c0.19-5.06,0.32-39.53,0.49-87.77C998.02,937.44,1000.65,931.26,1003.29,925.08z"/>
</g>
<g>
	<g>
		<path class="st5" d="M1046.92,911.18c-0.64,1.12-1.28,2.23-1.91,3.35c-0.09,0.16,0.13,0.31,0.22,0.15
			c0.64-1.12,1.28-2.23,1.91-3.35C1047.23,911.18,1047.01,911.03,1046.92,911.18L1046.92,911.18z"/>
	</g>
</g>
<g>
	<g>
		<path class="st5" d="M1058.54,1023.39c14.62-4.28,28.8-10.66,42.17-18.99c0.14-0.09,0.02-0.35-0.13-0.26
			c-13.36,8.32-27.51,14.68-42.12,18.96C1058.31,1023.14,1058.38,1023.43,1058.54,1023.39L1058.54,1023.39z"/>
	</g>
</g>
<g>
	<g>
		<path class="st5" d="M857.36,792.89c0.16,0,0.16-0.3,0-0.3C857.2,792.58,857.2,792.89,857.36,792.89L857.36,792.89z"/>
	</g>
</g>
<g>
	<g>
		<path class="st5" d="M1139.94,806.3c0.16,0,0.16-0.3,0-0.3C1139.78,806,1139.78,806.3,1139.94,806.3L1139.94,806.3z"/>
	</g>
</g>
<g>
	<path class="st6" d="M884.03,632.49c-18.77,11.96-36.03,27.14-51.05,44.89c43.79,60,105.23,98.94,152,155.8
		c1.37,1.67,2.83,3.41,4.74,3.98c2.44,0.72,4.93-0.67,7.16-2.03c59.58-36.61,110.35-89.67,160.34-142.31
		c2.68-2.82,5.61-6.55,4.71-10.63c-0.35-1.61-1.28-2.96-2.17-4.25c-12.05-17.35-24.12-34.7-36.17-52.06
		c-1.87-2.7-3.82-5.46-6.47-7.03c-3.23-1.91-7.03-1.77-10.64-1.49c-37.84,2.82-74.77,14.92-112.5,19.28
		c-35.63,4.12-71.83,1.24-106.66-8.46"/>
</g>
<g>
	<path class="st7" d="M875.35,636.16c-0.61,10.86-1.23,21.72-1.84,32.57c-0.21,3.72-0.41,7.55,0.63,11.09
		c1.1,3.77,3.49,6.79,5.84,9.67c33.3,40.77,72.07,75.47,114.45,102.42c4.45,2.83,9.09,5.63,14.14,6.14
		c8.59,0.88,16.53-4.92,23.72-10.48c33.19-25.68,67.72-53.06,86.34-94.14c5.63-12.44,9.7-26.21,9.48-40.28
		c-0.09-5.76-1.1-11.96-4.7-15.9c-3.93-4.29-9.82-4.76-15.21-4.98c-28.69-1.2-57.71-2.27-85.79,4.72
		c-10.83,2.7-21.44,6.59-32.33,8.88c-37.3,7.87-75.42-3.15-112.15-14.09"/>
</g>
<g>
	<path class="st8" d="M1186.84,361.49c10.19-2.34,20.51,5.95,25.26,16.73c4.76,10.78,5.1,23.43,4.61,35.55
		c-0.26,6.5-0.76,13.15-3.13,19.05s-6.96,10.96-12.51,11.65c-3.11,0.39-6.7-1.01-7.92-4.37c-0.54-1.5-0.55-3.19-0.55-4.83
		c0.03-17.74,0.06-35.46,0.09-53.2c0.01-5.25,0-10.65-1.61-15.55"/>
	<g>
		<path class="st9" d="M1186.86,361.56c9.69-2.12,19.23,5.04,24.26,14.74c5.73,11.05,6.04,24.84,5.54,37.46
			c-0.27,6.68-0.78,13.65-3.39,19.66c-2.15,4.94-5.83,9.18-10.38,10.57c-2.32,0.72-4.91,0.64-7.06-0.75
			c-0.95-0.61-1.8-1.48-2.34-2.62c-0.85-1.78-0.79-3.9-0.79-5.88c0.01-7.19,0.03-14.38,0.03-21.58c0.02-8.2,0.03-16.39,0.04-24.59
			c0.02-7.29,0.61-15.15-1.61-22.1c-0.03-0.09-0.15-0.05-0.12,0.04c2.21,6.93,1.61,14.78,1.6,22.06
			c-0.02,7.86-0.03,15.73-0.04,23.58c-0.02,7.85-0.08,15.69-0.04,23.53c0.01,2.71,0.38,5.25,2.27,6.97c1.61,1.46,3.72,2.02,5.7,1.91
			c4.43-0.23,8.41-3.54,11.05-7.68c3.24-5.09,4.42-11.54,4.92-17.82c0.54-6.87,0.69-13.9,0.2-20.77
			c-0.46-6.53-1.62-13.06-4.03-18.98c-4.62-11.35-15.03-20.3-25.83-17.94C1186.74,361.43,1186.77,361.58,1186.86,361.56
			L1186.86,361.56z"/>
	</g>
</g>
<g>
	<path class="st8" d="M1161.68,346.25c5.84-7.65,13.22-15.89,21.94-14.61c6.56,0.97,11.76,7.44,14.12,14.66
		c2.36,7.22,2.42,15.14,2.45,22.87c0.08,21.19,0.17,42.38,0.24,63.57c0.02,3.63,0.03,7.31-0.84,10.8
		c-1.71,6.99-7.11,12.55-13.27,13.68c-6.15,1.12-12.75-2.26-16.2-8.31c-2.53-4.44-3.37-9.88-4.09-15.15
		c-3.91-28.82-5.99-57.97-6.24-87.15"/>
	<g>
		<path class="st9" d="M1161.72,346.31c4.73-6.19,10.42-13.07,17.61-14.47c7.36-1.43,13.87,4.07,17.25,11.69
			c3.94,8.84,3.5,19.45,3.54,29.18c0.04,10.77,0.08,21.52,0.13,32.29c0.02,5.38,0.04,10.77,0.06,16.14
			c0.02,5.28,0.19,10.59,0.01,15.87c-0.17,4.81-1.15,9.32-3.74,13.06c-2.19,3.17-5.19,5.52-8.49,6.61
			c-6.97,2.29-14.92-1.53-18.58-9.08c-1.96-4.03-2.71-8.7-3.34-13.25c-0.73-5.28-1.38-10.57-1.98-15.89
			c-2.39-21.19-3.81-42.54-4.23-63.91c-0.05-2.66-0.09-5.3-0.12-7.96c0-0.1-0.13-0.1-0.13,0c0.2,22.71,1.5,45.42,3.91,67.94
			c0.59,5.43,1.23,10.86,1.94,16.27c0.62,4.73,1.15,9.58,2.68,14.04c2.67,7.78,9.07,12.83,16.06,12.64
			c6.4-0.17,12.51-5.21,14.91-12.41c1.6-4.84,1.29-10.26,1.26-15.36c-0.03-5.72-0.04-11.43-0.07-17.15
			c-0.04-11.43-0.09-22.87-0.13-34.31c-0.03-5.53,0.06-11.08-0.15-16.61c-0.18-4.99-0.69-10.01-2.13-14.72
			c-2.27-7.37-7.36-14.13-14.06-15.3c-7.13-1.25-13.46,4.08-18.37,9.72c-1.36,1.57-2.66,3.19-3.93,4.86
			C1161.58,346.27,1161.66,346.38,1161.72,346.31L1161.72,346.31z"/>
	</g>
</g>
<g>
	<path class="st8" d="M1132.94,366.53c5.51-11.57,16-18.46,25.97-24.77c1.55-0.98,3.14-1.97,4.9-2.12c3.47-0.29,6.59,2.93,7.89,6.7
		c1.3,3.77,1.2,7.97,1.08,12.03c-0.89,29.2-1.77,58.41-2.66,87.61c-0.03,0.87-0.06,1.77-0.35,2.57c-0.76,2.06-3.08,2.8-4.92,2.18
		c-1.84-0.62-3.3-2.23-4.64-3.84c-17.76-21.25-28.36-50.42-29.13-80.09"/>
	<g>
		<path class="st9" d="M1132.99,366.57c3.3-6.85,8.32-12.07,13.75-16.37c2.66-2.1,5.43-4,8.23-5.83c1.43-0.93,2.86-1.85,4.31-2.76
			c1.78-1.11,3.68-2.16,5.73-1.86c3.44,0.49,6.02,4.06,7.02,7.87c1.15,4.4,0.74,9.22,0.6,13.76c-0.29,9.65-0.59,19.3-0.88,28.95
			c-0.29,9.74-0.59,19.47-0.89,29.2c-0.14,4.79-0.29,9.56-0.43,14.35c-0.08,2.43-0.15,4.87-0.22,7.3c-0.03,1.17-0.08,2.35-0.11,3.52
			c-0.04,1.33,0.06,2.87-0.5,4.07c-0.88,1.87-2.98,2.36-4.6,1.9c-1.79-0.52-3.23-2.06-4.51-3.58c-2.33-2.75-4.53-5.67-6.61-8.69
			c-4.29-6.23-8.05-13-11.21-20.15c-6.23-14.07-10.14-29.65-11.25-45.57c-0.13-1.97-0.23-3.94-0.28-5.91c0-0.1-0.13-0.1-0.13,0
			c0.45,16.68,3.96,33.13,10.07,48.09c3.07,7.52,6.8,14.66,11.09,21.25c2.19,3.36,4.54,6.59,7.02,9.64c2,2.46,4.43,5.66,7.58,5.2
			c1.03-0.15,2.07-0.69,2.71-1.71c0.98-1.56,0.72-3.97,0.77-5.8c0.16-5.2,0.32-10.4,0.48-15.6c0.32-10.4,0.63-20.81,0.94-31.22
			c0.32-10.4,0.63-20.81,0.94-31.22c0.15-4.86,0.62-9.91,0.08-14.75c-0.4-3.61-1.64-7.06-4.1-9.27c-2.62-2.35-5.53-2.17-8.38-0.53
			c-3.11,1.79-6.14,3.85-9.12,5.93c-5.75,4.01-11.39,8.68-15.57,15.01c-0.98,1.48-1.86,3.04-2.65,4.68
			C1132.84,366.57,1132.95,366.65,1132.99,366.57L1132.99,366.57z"/>
	</g>
</g>
<g>
	<path class="st10" d="M1008.08,28.25c34.23,87.43,83.39,166.85,143.75,232.25c-50.85,0.44-101.7,0.9-152.56,1.34
		c-1.5,0.01-3.2-0.07-4.19-1.38c-0.86-1.14-0.88-2.83-0.85-4.35c0.17-8.75,0.34-17.49,0.51-26.24
		c1.25-63.98,2.49-127.97,3.74-191.95c0.03-1.2,0.1-2.55,0.84-3.37c1.48-1.64,3.83,0.15,5.21,1.9c5.63,7.17,10.59,15.05,14.79,23.44
		"/>
</g>
<g>
	<path class="st11" d="M841.09,274.72c15.34,0.49,30.68,0.99,46.03,1.48c0.79,0.03,1.63,0.08,2.23,0.68
		c1.41,1.41,0.16,4.06-1.1,5.65c-3.04,3.81-6.08,7.62-9.12,11.42c-1.56,1.96-3.2,3.98-5.32,4.96c-1.85,0.86-3.9,0.86-5.89,0.84
		c-6.87-0.05-13.74-0.1-20.61-0.15c-0.94-0.01-1.96-0.04-2.71-0.72c-0.89-0.8-1.1-2.23-1.25-3.52c-0.76-6.39-1.51-12.8-2.27-19.19"
		/>
</g>
<path class="st12" d="M842.99,593.33"/>
<g>
	
		<linearGradient id="SVGID_1_" gradientUnits="userSpaceOnUse" x1="855.9575" y1="492.576" x2="1235.7891" y2="836.1234" gradientTransform="matrix(1 0 0 -1 0 1082)">
		<stop  offset="0" style="stop-color:#D4ECEF"/>
		<stop  offset="0.0614" style="stop-color:#CFE6E9"/>
		<stop  offset="0.6958" style="stop-color:#9AAFAF"/>
		<stop  offset="1" style="stop-color:#859A98"/>
	</linearGradient>
	<path class="st13" d="M850.78,287.32c-0.46,105.9-0.93,211.8-1.39,317.7c-0.03,5.26-0.02,10.7,1.73,15.54
		c1.77,4.91,5.16,8.74,8.47,12.39c40.28,44.52,83.08,85.96,128.01,123.95c3.46,2.92,7.28,5.96,11.54,5.78
		c3.9-0.16,7.29-2.98,10.41-5.7c47.36-41.24,92.23-86.37,134.18-134.94c1.65-1.91,3.34-3.9,4.15-6.42c0.74-2.26,0.71-4.75,0.68-7.16
		c-0.6-44.17-1.21-88.33-1.81-132.5c-0.86-62.66-1.74-125.61-10.93-187.36c-94.14-11.97-189.94,19.93-283.5,2.92"/>
</g>
<g>
	<path class="st14" d="M1019.42,355.2c3.64-9.71,11.64-16.47,20.25-19.83c8.6-3.35,17.84-3.71,26.92-3.6
		c7.16,0.09,14.99,0.76,20.2,6.48c2.32,2.55,3.87,5.86,5.39,9.11c2.32,4.97,4.63,9.93,6.95,14.9
		c-12.86-12.41-31.16-16.69-47.12-10.99c-8.12,2.9-15.47,8.1-23.23,12.1c-1.38,0.71-2.88,1.39-4.36,1.04
		c-2.33-0.57-3.69-3.65-3.58-6.43c0.12-2.78,1.35-5.31,2.53-7.73"/>
</g>
<g>
	<path class="st14" d="M885.91,353.15c6.28-12.05,16.38-21.3,27.9-25.54c9.34-3.43,19.7-3.57,28.77,0.72
		c9.07,4.29,16.65,13.23,19.34,24.21c0.68,2.76,0.95,6.04-0.64,8.21c-2.11,2.86-6.24,2-8.75-0.38c-2.51-2.38-4.09-5.85-6.4-8.48
		c-5.04-5.74-12.72-6.7-19.76-6.78c-12.06-0.13-25.19,1.98-33.67,12c-1.35,1.59-2.72,3.45-4.61,3.74c-1.77,0.26-3.61-1.19-4.05-3.21
		c-0.45-2.02,0.55-4.33,2.21-5.11"/>
</g>
<g>
	<path class="st15" d="M979.88,428.17c-4.93,21.5-13.27,41.94-24.49,59.94c7.48,5.42,14.96,10.85,22.44,16.27
		c3.05,2.21,6.23,4.48,9.8,5.02c5.66,0.85,11.01-2.79,15.98-6.06c10.34-6.8,21.18-12.57,32.36-17.24c2.23-0.93,4.71-1.82,6.91-0.8
		c4.26,1.98,4.2,8.99,3.13,14.19c-2.95,14.21-8.23,28.14-17.2,38.34c-8.98,10.19-22.07,16.13-34.3,12.96
		c-13.29-3.44-23.04-16.38-31.43-28.91c-6.88-10.27-13.9-22.99-10.58-35.44"/>
</g>
<g>
	<g>
		<path class="st16" d="M1063.25,470.53c13.17-5.72,26.34-11.43,39.51-17.16c0.08-0.03,0.04-0.18-0.03-0.14
			c-13.17,5.72-26.34,11.43-39.51,17.16C1063.14,470.42,1063.18,470.56,1063.25,470.53L1063.25,470.53z"/>
	</g>
</g>
<g>
	<g>
		<path class="st16" d="M876.52,454.97c11.86-0.04,23.7,1.29,35.34,3.99c0.08,0.02,0.11-0.13,0.03-0.14
			c-11.66-2.7-23.51-4.04-35.38-4C876.43,454.82,876.43,454.97,876.52,454.97L876.52,454.97z"/>
	</g>
</g>
<g>
	<path class="st16" d="M970.96,665.72c20.3-0.41,40.59-0.83,60.88-1.24c-8.66,7.25-17.32,14.51-25.98,21.77
		c-1.29,1.08-2.68,2.2-4.26,2.3c-1.52,0.09-2.95-0.78-4.29-1.63c-9.6-6.12-18.99-12.67-28.16-19.6"/>
</g>
<g>
	<g>
		<path class="st17" d="M937.83,386.99c0.16,0,0.16-0.3,0-0.3C937.67,386.68,937.66,386.99,937.83,386.99L937.83,386.99z"/>
	</g>
</g>
<g>
	<g>
		<path class="st18" d="M1047.03,390.34c0.16,0,0.16-0.3,0-0.3S1046.87,390.34,1047.03,390.34L1047.03,390.34z"/>
	</g>
</g>
<g>
	<path class="st10" d="M999.35,242.6c-0.4,22.17-0.8,44.35-1.2,66.52c55.06-1.35,110.1-2.72,165.16-4.07
		c2.26-0.06,4.82-0.27,6.25-2.31c1.31-1.87,1.17-4.56,0.96-6.96c-1.09-12.34-2.17-24.68-3.25-37.03
		c-55.41-2.91-110.81-5.82-166.21-8.74"/>
</g>
<g>
	<path class="st12" d="M833.82,258.63c20.97,5.53,42.5-3.2,63.74-7.11c10.09-1.86,20.31-2.62,30.5-3.38
		c23.45-1.76,46.96-3.5,70.42-2c-0.87,18.79-1.74,37.57-2.6,56.35c-0.09,2.06-0.24,4.28-1.4,5.85c-1.54,2.06-4.2,2.16-6.54,2.1
		c-50.57-1.28-101.16-2.57-151.73-3.86c-1.31-0.03-2.78-0.14-3.69-1.24c-0.89-1.09-0.94-2.76-0.94-4.27
		c0.03-13.62,0.06-27.26,0.09-40.88"/>
</g>
<g>
	<path class="st12" d="M992.41,42c-50.28,72.82-100.01,146.18-149.18,220.04c47.72-0.45,95.45-0.92,143.17-1.37
		c1.6-0.02,3.35-0.1,4.53-1.36c1.2-1.3,1.4-3.41,1.5-5.33c4.08-73.07,6.03-146.3,5.84-219.52c-6.56,5.06-11.13,13.5-12.23,22.59"/>
</g>
<g>
	<path class="st9" d="M1092.99,252.73c7.36-0.63,14.73-1.24,22.09-1.87c-25.03-42.06-48.7-85.18-72.37-128.31
		c-4.61-8.4-9.23-16.82-13.84-25.22c21.65,51.98,42.99,104.15,64.02,156.49"/>
</g>
<g>
	<path class="st9" d="M1022.69,75.56c6.2,14.6,8.89,30.85,11.53,46.85c7.26,44.21,14.51,88.42,21.78,132.62"/>
</g>
<g>
	<path class="st9" d="M858.44,257.47c35.74-52.65,71.47-105.29,107.2-157.94c-19.89,53.83-51.03,100.79-81.84,147.09
		c-5.63,8.46-14.2,17.93-22.62,13.66"/>
</g>
<g>
	<path class="st9" d="M925.79,257.41c6.06-13.15,9.69-27.61,13.27-41.95c11.79-47.09,23.57-94.16,35.37-141.25"/>
</g>
<g>
	<path class="st8" d="M845.63,448.33c0.26-32.43,0.52-64.86,0.78-97.29c0.03-4.48,0.01-9.24-1.98-13.07
		c-2.72-5.21-8.34-7.28-13.56-7.65c-16.51-1.14-32.28,11.16-40.79,27.72c-8.51,16.55-10.67,36.64-9.69,55.92
		c0.33,6.32,0.97,12.7,2.82,18.65c4.41,14.3,15.83,25.12,28.61,28.03c12.78,2.91,26.52-1.87,36.35-11.84"/>
	<g>
		<path class="st9" d="M845.69,448.33c0.23-28.56,0.45-57.14,0.69-85.7c0.03-3.52,0.06-7.06,0.08-10.58
			c0.03-2.95,0.08-5.94-0.36-8.85c-0.79-5.11-3.44-8.84-7.36-10.88c-3.94-2.05-8.41-2.39-12.64-2.04
			c-4.41,0.37-8.75,1.67-12.84,3.71c-8.03,3.99-15.09,10.75-20.38,19.04c-5.95,9.33-9.53,20.63-11.3,32.15
			c-1.81,11.82-2.01,24.29-0.67,36.2c0.65,5.77,1.91,11.43,4.26,16.55c2,4.37,4.67,8.29,7.77,11.6
			c6.44,6.87,14.66,11.07,23.21,11.88c9.27,0.88,18.72-2.04,26.65-7.86c1.91-1.39,3.71-2.97,5.43-4.7c0.06-0.06-0.03-0.17-0.09-0.11
			c-14.13,14.21-35.15,17.16-50.75,4.7c-7.32-5.85-12.87-14.54-15.16-24.84c-1.34-6.02-1.74-12.31-1.91-18.52
			c-0.17-5.82-0.03-11.67,0.5-17.45c1.06-11.71,3.77-23.29,8.78-33.46c4.49-9.12,10.96-16.84,18.62-22.06
			c7.58-5.16,16.74-8.05,25.44-6.38c4.21,0.81,8.67,2.96,10.93,7.62c1.3,2.68,1.66,5.81,1.76,8.85c0.11,3.2,0.01,6.41-0.02,9.62
			c-0.22,27.14-0.43,54.28-0.65,81.42c-0.03,3.36-0.05,6.72-0.08,10.08C845.56,448.42,845.69,448.42,845.69,448.33L845.69,448.33z"
			/>
	</g>
</g>
<g>
	<g>
		<path class="st9" d="M820.89,334.28c0,32.89,0,65.78,0,98.67c0,9.23,0,18.46,0,27.68c0,0.1,0.13,0.1,0.13,0
			c0-32.89,0-65.78,0-98.67c0-9.23,0-18.46,0-27.68C821.02,334.18,820.89,334.18,820.89,334.28L820.89,334.28z"/>
	</g>
</g>
<g>
	<path class="st19" d="M1180.19,660.62c18.74,0.06,37.48,2.19,55.87,6.37c3.13,0.71,6.8,2.05,7.67,5.63
		c0.55,2.28-0.28,4.67-1.1,6.84c-21.94,57.6-47.58,113.28-76.66,166.4c7.08-34.24,10.45-69.53,9.99-104.76
		c-0.37-27.9-3.12-55.82-1.28-83.64"/>
</g>
<ellipse transform="matrix(0.1506 -0.9886 0.9886 0.1506 25.415 1916.8326)" class="st20" cx="1128.13" cy="943.63" rx="26.15" ry="15.08"/>
<g>
	<g>
		<path class="st15" d="M906.01,377.28c13.37,10.41,26.73,20.82,40.09,31.23c0-0.87,0-1.75,0-2.62
			c-12.39,9.38-25.87,16.52-40.08,20.74c-1.56,0.46-0.9,3.38,0.67,2.92c14.4-4.27,28.13-11.53,40.69-21.05
			c0.82-0.62,0.8-1.99,0-2.62c-13.37-10.41-26.73-20.82-40.09-31.23C905.91,373.6,904.66,376.23,906.01,377.28L906.01,377.28z"/>
	</g>
</g>
<g>
	<g>
		<path class="st15" d="M1082.6,376.88c-13.27,10.05-26.52,20.11-39.79,30.16c-0.8,0.61-0.82,2.01,0,2.62
			c12.51,9.21,26.12,16.21,40.38,20.33c1.57,0.45,2.24-2.46,0.67-2.92c-14.06-4.06-27.44-10.94-39.78-20.02c0,0.87,0,1.75,0,2.62
			c13.27-10.05,26.52-20.11,39.79-30.16C1085.23,378.46,1083.97,375.84,1082.6,376.88L1082.6,376.88z"/>
	</g>
</g>
<path d="M1048.81,640.72c-3.71,13.59-22.98,12.38-61.53,9.96c-27.33-1.72-34.83-7.35-38.19-16.59c-5.3-14.57,1.25-33.94,2.12-36.5
	c8.27-24.44,28.06-33.84,42.43-33.19C1026.17,565.85,1054.52,619.8,1048.81,640.72z"/>
<path class="st21" d="M1017.99,652.19c-6.47,0.05-13.19-0.06-20.15-0.38c-5.58-0.26-11-0.64-16.26-1.11
	c2.03-10.15,9.03-17.45,16.99-18.02C1007.66,632.03,1016.2,640.3,1017.99,652.19z"/>
<g>
	<g>
		<path class="st18" d="M1130.28,993.43c5.02,1.05,10.04,2.1,15.07,3.15c3.17,0.66,6.48-0.93,7.38-4.19c0.82-2.98-1-6.71-4.19-7.38
			c-5.02-1.05-10.04-2.1-15.07-3.15c-3.17-0.66-6.48,0.93-7.38,4.19C1125.27,989.03,1127.09,992.76,1130.28,993.43L1130.28,993.43z"
			/>
	</g>
</g>
<ellipse transform="matrix(0.4145 -0.91 0.91 0.4145 -31.5111 1633.6315)" class="st7" cx="1253.85" cy="841.31" rx="31.64" ry="40.17"/>
<g>
	<path class="st22" d="M1298.29,838.88c-16.48,18.65-39.51,16.93-53.31,8.8c-11.66-6.87-24.95-23.16-22.72-44.89
		c1.12-10.88,5.74-19.33,8.6-23.8c0.27,11.22,1.44,13.94,2.57,14c3.51,0.2,5.45-25.16,18.85-33.1c4.52-2.68,8.31-2.17,11.51-6.9
		c4.02-5.96,2.57-13.52,3.98-13.88c1.3-0.33,3.52,5.8,3.82,12.7c0.29,6.76-1.43,10.35-0.56,10.78c1.71,0.85,11.44-11.78,15.44-28.16
		c2.35-9.64,1.43-15.26,3.34-16c2.75-1.06,9.3,8.73,8.53,19.37c-0.36,4.99-2.14,7.56-2.41,15.49c-0.08,2.48-0.32,9.44,1.3,9.76
		c1.09,0.22,3.31-2.47,8.34-15.65c1.66,3.36,6.47,14.17,4.53,29.57c-1.79,14.22-8.3,24.03-10.77,27.45c1.81-0.8,4.24-2.14,6.84-4.35
		c3.3-2.82,5.5-5.91,6.82-8.04C1313.2,794.84,1314.58,820.44,1298.29,838.88z"/>
	<path class="st23" d="M1282.14,832.89c-9.45,10.62-22.71,9.57-30.67,4.9c-6.73-3.95-14.41-13.29-13.17-25.69
		c0.62-6.21,3.26-11.03,4.9-13.58c0.18,6.41,0.86,7.96,1.51,8c2.02,0.12,3.09-14.36,10.78-18.86c2.6-1.52,4.78-1.22,6.61-3.92
		c2.3-3.39,1.45-7.72,2.26-7.92c0.74-0.18,2.04,3.32,2.22,7.27c0.18,3.86-0.8,5.91-0.3,6.16c0.99,0.49,6.56-6.7,8.83-16.05
		c1.33-5.5,0.79-8.71,1.89-9.13c1.58-0.6,5.37,5.01,4.95,11.08c-0.2,2.85-1.22,4.31-1.35,8.84c-0.04,1.42-0.17,5.39,0.77,5.58
		c0.63,0.13,1.9-1.41,4.77-8.92c0.96,1.93,3.76,8.11,2.67,16.9c-1,8.12-4.72,13.71-6.14,15.65c1.04-0.46,2.44-1.21,3.93-2.47
		c1.9-1.6,3.16-3.36,3.91-4.58C1290.63,807.77,1291.48,822.39,1282.14,832.89z"/>
</g>
<ellipse transform="matrix(0.4145 -0.91 0.91 0.4145 136.9142 1337.6467)" class="st7" cx="1108.03" cy="562.42" rx="31.64" ry="40.17"/>
<g>
	<path class="st22" d="M1152.47,559.99c-16.48,18.65-39.51,16.93-53.31,8.8c-11.66-6.87-24.95-23.16-22.72-44.89
		c1.12-10.88,5.74-19.33,8.6-23.8c0.27,11.22,1.44,13.94,2.57,14c3.51,0.2,5.45-25.16,18.85-33.1c4.52-2.68,8.31-2.17,11.51-6.9
		c4.02-5.96,2.57-13.52,3.98-13.88c1.3-0.33,3.52,5.8,3.82,12.7c0.29,6.76-1.43,10.35-0.56,10.78c1.71,0.85,11.44-11.78,15.44-28.16
		c2.35-9.64,1.43-15.26,3.34-16c2.75-1.06,9.3,8.73,8.53,19.37c-0.36,4.99-2.14,7.56-2.41,15.49c-0.08,2.48-0.32,9.44,1.3,9.76
		c1.09,0.22,3.31-2.47,8.34-15.65c1.66,3.36,6.47,14.17,4.53,29.57c-1.79,14.22-8.3,24.03-10.77,27.45c1.81-0.8,4.24-2.14,6.84-4.35
		c3.3-2.82,5.5-5.91,6.82-8.04C1167.38,515.96,1168.76,541.55,1152.47,559.99z"/>
	<path class="st23" d="M1136.33,554c-9.45,10.62-22.71,9.57-30.67,4.9c-6.73-3.95-14.41-13.29-13.17-25.69
		c0.62-6.21,3.26-11.03,4.9-13.58c0.18,6.41,0.86,7.96,1.51,8c2.02,0.12,3.09-14.36,10.78-18.86c2.6-1.52,4.78-1.22,6.61-3.92
		c2.3-3.39,1.45-7.72,2.26-7.92c0.74-0.18,2.04,3.32,2.22,7.26c0.18,3.86-0.8,5.91-0.3,6.16c0.99,0.49,6.56-6.7,8.83-16.05
		c1.33-5.5,0.79-8.71,1.89-9.13c1.58-0.6,5.37,5.01,4.95,11.08c-0.2,2.85-1.22,4.31-1.35,8.84c-0.04,1.42-0.17,5.39,0.77,5.58
		c0.63,0.13,1.9-1.41,4.77-8.92c0.96,1.93,3.76,8.11,2.67,16.9c-1,8.12-4.72,13.71-6.14,15.65c1.04-0.46,2.44-1.21,3.93-2.47
		c1.9-1.6,3.16-3.36,3.91-4.58C1144.82,528.88,1145.67,543.51,1136.33,554z"/>
</g>
<g>
	<path class="st22" d="M1118.16,201.75c-16.48,18.65-39.51,16.93-53.31,8.8c-11.66-6.87-24.95-23.16-22.72-44.89
		c1.12-10.88,5.74-19.33,8.6-23.8c0.27,11.22,1.44,13.94,2.57,14c3.51,0.2,5.45-25.16,18.85-33.1c4.52-2.68,8.31-2.17,11.51-6.9
		c4.02-5.96,2.57-13.52,3.98-13.88c1.3-0.33,3.52,5.8,3.82,12.7c0.29,6.76-1.43,10.35-0.56,10.78c1.71,0.85,11.44-11.78,15.44-28.16
		c2.35-9.64,1.43-15.26,3.34-16c2.75-1.06,9.3,8.73,8.53,19.37c-0.36,4.99-2.14,7.56-2.41,15.49c-0.08,2.48-0.32,9.44,1.3,9.76
		c1.09,0.22,3.31-2.47,8.34-15.65c1.66,3.36,6.47,14.17,4.53,29.57c-1.79,14.22-8.3,24.03-10.77,27.45c1.81-0.8,4.24-2.14,6.84-4.35
		c3.3-2.82,5.5-5.91,6.82-8.04C1133.07,157.71,1134.45,183.31,1118.16,201.75z"/>
	<path class="st23" d="M1102.02,195.76c-9.45,10.62-22.71,9.57-30.67,4.9c-6.73-3.95-14.41-13.29-13.17-25.69
		c0.62-6.21,3.26-11.03,4.9-13.58c0.18,6.41,0.86,7.96,1.51,8c2.02,0.12,3.09-14.36,10.78-18.86c2.6-1.52,4.78-1.22,6.61-3.92
		c2.3-3.39,1.45-7.72,2.26-7.92c0.74-0.18,2.04,3.32,2.22,7.26c0.18,3.86-0.8,5.91-0.3,6.16c0.99,0.49,6.56-6.7,8.83-16.05
		c1.33-5.5,0.79-8.71,1.89-9.13c1.58-0.6,5.37,5.01,4.95,11.08c-0.2,2.85-1.22,4.31-1.35,8.84c-0.04,1.42-0.17,5.39,0.77,5.58
		c0.63,0.13,1.9-1.41,4.77-8.92c0.96,1.93,3.76,8.11,2.67,16.9c-1,8.12-4.72,13.71-6.14,15.65c1.04-0.46,2.44-1.21,3.93-2.47
		c1.9-1.6,3.16-3.36,3.91-4.58C1110.51,170.64,1111.36,185.26,1102.02,195.76z"/>
</g>
<g>
	<path class="st22" d="M940.96,230.96c-0.81,25.51-19.23,40.23-34.68,43.7c-13.06,2.94-33.2-0.1-45.04-18.02
		c-5.93-8.97-7.7-18.56-8.33-23.91c7.19,8.26,9.75,9.49,10.65,8.75c2.77-2.3-11.54-22.74-6.39-38.04c1.74-5.17,4.91-7.41,4.37-13.2
		c-0.68-7.28-6.48-11.97-5.64-13.22c0.77-1.15,6.26,1.93,10.78,6.92c4.43,4.89,5.37,8.79,6.28,8.52c1.82-0.55,1.29-16.83-5.88-31.95
		c-4.22-8.9-8.42-12.49-7.43-14.38c1.41-2.71,12.43,0.11,18.48,8.66c2.83,4.01,3.09,7.18,7.82,13.34c1.48,1.93,5.63,7.34,7.05,6.45
		c0.95-0.59,0.95-4.17-3.45-17.59c3.35,1.38,13.69,6.18,21.81,19.12c7.5,11.96,8.7,23.87,8.97,28.17c0.86-1.86,1.87-4.56,2.44-8.04
		c0.73-4.42,0.47-8.28,0.14-10.8C924.8,187.42,941.77,205.74,940.96,230.96z"/>
	<path class="st23" d="M925.08,237.67c-0.51,14.57-11.15,23-20.05,25.02c-7.53,1.7-19.12,0.01-25.9-10.2
		c-3.4-5.11-4.4-10.58-4.75-13.64c4.12,4.7,5.6,5.4,6.12,4.98c1.6-1.32-6.61-12.96-3.61-21.7c1.01-2.95,2.84-4.24,2.54-7.55
		c-0.38-4.16-3.71-6.82-3.22-7.54c0.45-0.66,3.6,1.09,6.19,3.93c2.54,2.78,3.07,5.01,3.6,4.85c1.05-0.32,0.78-9.61-3.33-18.23
		c-2.41-5.07-4.82-7.11-4.26-8.19c0.82-1.55,7.16,0.04,10.62,4.9c1.62,2.28,1.77,4.09,4.48,7.6c0.85,1.1,3.23,4.18,4.05,3.67
		c0.55-0.34,0.56-2.38-1.96-10.03c1.92,0.78,7.87,3.5,12.52,10.87c4.3,6.81,4.97,13.61,5.11,16.06c0.5-1.07,1.08-2.61,1.42-4.59
		c0.43-2.53,0.29-4.73,0.1-6.17C915.85,212.85,925.58,223.27,925.08,237.67z"/>
</g>
<path class="st7" d="M833.98,724.62c3.63,3.42,8.69,8.32,8.76,15.01c0.1,10.45-12.02,20.67-23.59,22.67
	c-11.25,1.95-14.53-5.16-23.59-2.27c-11.94,3.82-11.5,17.86-21.44,20.41c-9.92,2.54-23.95-7.98-27.34-20.29
	c-5.11-18.53,14.1-40.1,32.76-47.53C801.19,704,822.84,714.13,833.98,724.62z"/>
<g>
	<path class="st22" d="M823.02,709.37c-0.81,25.51-19.23,40.23-34.68,43.7c-13.06,2.94-33.2-0.1-45.04-18.02
		c-5.93-8.97-7.7-18.56-8.33-23.91c7.19,8.26,9.75,9.49,10.65,8.75c2.77-2.3-11.54-22.74-6.39-38.04c1.74-5.17,4.91-7.41,4.37-13.2
		c-0.68-7.28-6.48-11.97-5.64-13.22c0.77-1.15,6.26,1.93,10.78,6.92c4.43,4.89,5.37,8.79,6.28,8.52c1.82-0.55,1.29-16.83-5.88-31.95
		c-4.22-8.9-8.42-12.49-7.43-14.38c1.41-2.71,12.43,0.11,18.48,8.66c2.83,4.01,3.09,7.18,7.82,13.34c1.48,1.93,5.63,7.34,7.05,6.45
		c0.95-0.59,0.95-4.17-3.45-17.59c3.35,1.38,13.69,6.18,21.81,19.12c7.5,11.96,8.7,23.87,8.97,28.17c0.86-1.86,1.87-4.56,2.44-8.04
		c0.73-4.42,0.47-8.28,0.14-10.8C806.86,665.84,823.83,684.15,823.02,709.37z"/>
	<path class="st23" d="M807.14,716.09c-0.51,14.57-11.15,23-20.05,25.02c-7.53,1.7-19.12,0.01-25.9-10.2
		c-3.4-5.11-4.4-10.58-4.75-13.64c4.12,4.7,5.6,5.4,6.12,4.98c1.6-1.32-6.61-12.96-3.61-21.7c1.01-2.95,2.84-4.24,2.54-7.55
		c-0.38-4.16-3.71-6.82-3.22-7.54c0.45-0.66,3.6,1.09,6.19,3.93c2.54,2.78,3.07,5.01,3.6,4.85c1.05-0.32,0.78-9.61-3.33-18.23
		c-2.41-5.07-4.82-7.11-4.26-8.19c0.82-1.55,7.16,0.04,10.62,4.9c1.62,2.28,1.77,4.09,4.48,7.6c0.85,1.1,3.23,4.18,4.05,3.67
		c0.55-0.34,0.56-2.38-1.96-10.03c1.92,0.78,7.87,3.5,12.52,10.87c4.3,6.81,4.97,13.61,5.11,16.06c0.5-1.07,1.08-2.61,1.42-4.59
		c0.43-2.53,0.29-4.73,0.1-6.17C797.91,691.27,807.64,701.69,807.14,716.09z"/>
</g>
<path class="st7" d="M806.1,953.63c1.18,1.2,15.05,15.62,10.9,26.35c-3.34,8.64-16.85,10.92-19.3,11.34
	c-11.92,2.02-19.34-3.22-25.73,2.27c-2.44,2.1-2.84,4.13-4.29,6.8c-8.65,15.88-37.68,22.55-45.03,13.6
	c-4.31-5.25,1.73-12.35-3.76-24.83c-3.14-7.14-6.17-7.21-6.97-11.45c-2.24-11.94,18.3-30.21,39.72-36.08
	C768.8,936.93,791.55,938.81,806.1,953.63z"/>
<g>
	<path class="st22" d="M795.15,938.38c-0.81,25.51-19.23,40.23-34.68,43.7c-13.06,2.94-33.2-0.1-45.04-18.02
		c-5.93-8.97-7.7-18.56-8.33-23.91c7.19,8.26,9.75,9.49,10.65,8.75c2.77-2.3-11.54-22.74-6.39-38.04c1.74-5.17,4.91-7.41,4.37-13.2
		c-0.68-7.28-6.48-11.97-5.64-13.22c0.77-1.15,6.26,1.93,10.78,6.92c4.43,4.89,5.37,8.79,6.28,8.52c1.82-0.55,1.29-16.83-5.88-31.95
		c-4.22-8.9-8.42-12.49-7.43-14.38c1.41-2.71,12.43,0.11,18.48,8.66c2.83,4.01,3.09,7.18,7.82,13.34c1.48,1.93,5.63,7.34,7.05,6.45
		c0.95-0.59,0.95-4.17-3.45-17.59c3.35,1.38,13.69,6.18,21.81,19.12c7.5,11.96,8.7,23.87,8.97,28.17c0.86-1.86,1.87-4.56,2.44-8.04
		c0.73-4.42,0.47-8.28,0.14-10.8C778.99,894.84,795.95,913.16,795.15,938.38z"/>
	<path class="st23" d="M779.26,945.09c-0.51,14.57-11.15,23-20.05,25.02c-7.53,1.7-19.12,0.01-25.9-10.2
		c-3.4-5.11-4.4-10.58-4.75-13.64c4.12,4.7,5.6,5.4,6.12,4.98c1.6-1.32-6.61-12.96-3.61-21.7c1.01-2.95,2.84-4.24,2.54-7.55
		c-0.38-4.16-3.71-6.82-3.22-7.54c0.45-0.66,3.6,1.09,6.19,3.93c2.54,2.78,3.07,5.01,3.6,4.85c1.05-0.32,0.78-9.61-3.33-18.23
		c-2.41-5.07-4.82-7.11-4.26-8.19c0.82-1.55,7.16,0.04,10.62,4.9c1.62,2.28,1.77,4.09,4.48,7.6c0.85,1.1,3.23,4.18,4.05,3.67
		c0.55-0.34,0.56-2.38-1.96-10.03c1.92,0.78,7.87,3.5,12.52,10.87c4.3,6.81,4.97,13.61,5.11,16.06c0.5-1.07,1.08-2.61,1.42-4.59
		c0.43-2.53,0.29-4.73,0.1-6.17C770.03,920.27,779.77,930.69,779.26,945.09z"/>
</g>
<path class="st7" d="M804.14,766.84"/>
</svg>
