<?xml version="1.0" encoding="utf-8"?>
<!-- Generator: Adobe Illustrator 23.0.5, SVG Export Plug-In . SVG Version: 6.00 Build 0)  -->
<svg version="1.1" id="圖層_1" xmlns="http://www.w3.org/2000/svg" xmlns:xlink="http://www.w3.org/1999/xlink" x="0px" y="0px"
	 viewBox="0 0 1920 1080" style="enable-background:new 0 0 1920 1080;" xml:space="preserve">
<style type="text/css">
	.st0{fill:#20192D;}
	.st1{fill:#191627;}
	.st2{fill:#42414F;}
	.st3{fill:#45DBE3;}
	.st4{fill:#3886C9;}
	.st5{fill:#FD972A;}
	.st6{fill:#FEF6B3;}
	.st7{fill:#F69730;}
	.st8{fill:#FB8C2E;}
	.st9{fill:#F9F7C1;}
	.st10{fill:#252638;}
	.st11{fill:#232436;}
	.st12{fill:#191629;}
	.st13{fill:#1F1C2F;}
</style>
<path class="st0" d="M1252.12,415.9c-201.79,0-403.59,0-605.38,0c-13.76-13.17-31.31-33.84-43.8-63.55
	c-3.55-8.45-6.25-16.59-8.33-24.21c228.88,1.01,457.76,2.02,686.64,3.03c-0.35,8.73-1.48,19.01-4.16,30.27
	C1271.12,386.43,1260.22,404.7,1252.12,415.9z"/>
<ellipse class="st1" cx="931.69" cy="298.64" rx="317.65" ry="74.9"/>
<path class="st2" d="M621.87,299.4c-0.59-1.75-0.9-3.52-0.9-5.29c0-38.02,138.18-68.84,308.64-68.84s308.64,30.82,308.64,68.84
	c0,1.78-0.3,3.55-0.9,5.29h72.73c-7.5-52.98-171.85-95.32-373.54-95.32S570.51,246.41,563,299.4H621.87z"/>
<g>
	<path class="st3" d="M698.19,314.09c3.73-6.96,7.58-14.07,13.28-19.21c5.7-5.14,13.73-7.98,20.63-5.11
		c2.88,1.19,5.55,3.34,8.64,3.35c5.17,0.02,8.6-5.69,13.15-8.35c13-7.59,27.84,11.4,42.26,8.05c10.31-2.4,15.99-15.23,25.9-19.11
		c5.44-2.13,11.42-1.28,17.2-1.62c22.86-1.33,42.8-24.52,42.55-49.49c-0.07-7.11-1.56-14.16-1.41-21.28
		c0.14-7.11,2.35-14.77,7.81-18.65c6.43-4.57,15.4-2.31,21.3,3.02c5.91,5.33,9.45,13.08,12.83,20.59c4.45,9.9,8.91,19.8,13.36,29.7
		c6.72,14.94,14.74,31.19,29.09,36.85c6.56,2.59,13.73,2.58,20.7,2.02c17.43-1.41,37.33-8.67,42.89-26.75
		c2.29-7.46,1.7-15.68,3.99-23.14c2.77-9.03,9.49-16,16.77-21.25c5.24-3.78,11.32-6.96,17.56-6.22c8.17,0.97,14.6,8.64,17.3,17.11
		c2.7,8.46,2.41,17.66,2.07,26.61c-0.49,13.34-0.98,26.7-1.47,40.04c3.69,0.91,7.39,1.83,11.08,2.74
		c-9.3,9.35-19.24,20.14-19.96,33.92c-0.52,10.09,3.79,21.69-2.13,29.45c-5.7,7.46-16.98,5.29-24.26-0.3
		c-7.28-5.59-12.83-13.82-20.81-18.14c-13.69-7.41-30.2-1.26-43.6,6.76c-13.39,8.02-26.69,18.17-41.95,18.88
		c-14.96,0.7-29.85-7.92-44.47-4.38c-4.18,1.01-8.48,3.01-12.58,1.65c-4.47-1.49-7.04-6.4-9.68-10.62
		c-11.8-18.85-33.49-29.74-54.3-27.24c-20.8,2.5-39.8,18.29-47.54,39.49c-2.58,7.08-4.77,15.62-11.27,18.41
		c-2.41,1.03-5.07,1.06-7.66,0.9c-28.3-1.78-53.8-27.43-57.72-58.06"/>
</g>
<g>
	<path class="st4" d="M873.15,357.91c9.36-15.31,25.04-25.82,41.78-28.02c15.15-1.99,31.65,2.27,45.04-5.72
		c15.22-9.09,23.72-32.57,41.07-32.66c16.06-0.07,26.63,20.99,42.64,22.52c3.58,0.34,7.24-0.34,10.74,0.52
		c3.43,0.85,6.42,3.1,9.8,4.16c3.37,1.05,7.73,0.38,9.27-3.05c1.85-4.12-1.41-8.58-3.27-12.69c-3.91-8.69-0.73-20.39,6.9-25.34
		c3.78-2.44,8.21-3.29,12.54-4.09c9.07-1.67,18.15-3.35,27.22-5.02c10.12-1.87,22.21-3.02,28.95,5.42
		c3.31,4.15,4.51,9.88,4.58,15.38c0.34,27-22.9,47.41-46.08,56.89c-22.21,9.08-46.02,12.25-69.57,15.35
		c-47.49,6.25-95.09,12.52-142.92,13.39c-5.27,0.1-10.92,0.01-15.28-3.22c-4.37-3.24-6.34-10.86-2.48-14.78"/>
</g>
<g>
	<g>
		<path class="st5" d="M1011.74,362.68c5.41-15.28,21.28-23.67,36.29-24.06c15.01-0.39,29.47,5.61,43.47,11.52
			c-3.24-6.57,3.3-14.24,9.94-16.1c6.63-1.85,13.97-0.83,20.08-4.21c7.62-4.2,11.02-13.78,15.83-21.47
			c11.14-17.83,32.99-26.77,52.13-21.34c14.46,4.1,27.82,18.67,25.58,34.79c-2.59,18.51-22.3,26.99-39.11,30.8
			c-44.98,10.18-91.14,12.27-137.04,14.33c-9.09,0.4-18.25,0.81-27.26-0.55"/>
	</g>
	<ellipse class="st6" cx="1180.68" cy="309.23" rx="10.41" ry="11.35"/>
</g>
<g>
	<path class="st7" d="M644.65,294.5c-5.22-6.36-5.86-16.05-3.48-24.19c2.39-8.14,7.34-15.05,12.43-21.55
		c6.3-8.05,14.44-16.44,24.1-15.45c8.31,0.85,14.77,8.71,17.76,17.21c2.99,8.49,3.35,17.78,4.74,26.75
		c1.39,8.97,4.15,18.29,10.57,24.1c5.53,5.01,12.89,6.65,19.72,9.11c7.01,2.53,13.72,6.07,19.89,10.5
		c5.42,3.9,10.98,10.05,9.62,16.98c-0.9,4.56-4.62,7.81-8.47,9.84c-9.19,4.84-19.86,4.72-30.05,4.11
		c-12.34-0.74-24.64-2.07-36.87-3.97c-17.47-2.72-35.21-6.8-50.22-16.93c-4.46-3.01-8.94-7.06-9.84-12.69
		c-0.84-5.29,1.85-10.66,5.61-14.12c3.77-3.46,8.5-5.35,13.13-7.2"/>
</g>
<g>
	<g>
		<path class="st8" d="M766.92,366.51c-5.57-6.39-6.74-15.29-4.73-23.23s6.84-15.05,12.31-21.52c5.74-6.78,12.37-13.11,20.47-17.49
			c20.06-10.84,46.96-7.75,66.14,4.33c19.17,12.08,31.25,31.77,37.11,52.23c0.4,1.39,0.84,2.89,2.08,3.79
			c1.31,0.96,3.15,0.97,4.82,1.19c6.87,0.93,12.53,6.73,12.69,13.01c-1.94,3.28-6.89,3.63-11,3.57
			c-32.18-0.49-64.35-0.98-96.52-1.47c-9.58-0.14-19.31-0.31-28.48-2.83s-17.87-7.75-21.97-15.59"/>
	</g>
	<ellipse class="st9" cx="829.89" cy="326.64" rx="15.05" ry="13.61"/>
</g>
<path class="st10" d="M691.71,972.73c-23.05,7.82-60.65,5.92-69.36-15.13c-7.47-18.07,7.01-48.6,22.2-51.44
	c10.78-2.02,18.44,10.56,26.36,6.05c4.27-2.44,5.5-8.07,8.33-25.72c3.42-21.39,5.13-32.08,5.55-37.83c1.15-15.75,1.88-37.84,0-65.07
	c26.81,17.15,53.64,34.3,80.45,51.44C764.82,839.97,754.23,951.51,691.71,972.73z"/>
<path class="st11" d="M1189.05,966.68c23.05,7.82,60.65,5.92,69.36-15.13c7.47-18.07-7.01-48.6-22.2-51.44
	c-10.78-2.02-18.44,10.56-26.36,6.05c-4.27-2.44-5.5-8.07-8.33-25.72c-3.42-21.39-5.13-32.08-5.55-37.83
	c-1.15-15.75-1.88-37.84,0-65.07c-26.81,17.15-53.64,34.3-80.45,51.44C1115.95,833.91,1126.54,945.46,1189.05,966.68z"/>
<path class="st12" d="M962.2,910.7c-6.95,1.66-15.91,3.09-26.36,3.03c-9.82-0.06-18.29-1.43-24.97-3.03
	c-3.27-5.65-7.17-13.78-9.71-24.21c-3.91-16.08-2.69-29.83-1.39-37.83c23.58-1.01,47.16-2.02,70.74-3.03
	c0.83,9.87,1,22.89-1.39,37.83C967.44,894.15,964.82,903.3,962.2,910.7z"/>
<path class="st2" d="M1232.69,769.98c-153.04,139.7-433.64,146.2-577.05-10.59c-21.27-23.26-99.44-108.72-91.55-228.48
	c4.66-70.67,37.24-122.16,55.48-146.77c88.18,20.56,200.71,38.14,331.53,37.83c127.72-0.31,237.8-17.59,324.59-37.83
	c14.96,19.04,71.16,95,62.43,196.71C1329.45,681.66,1262.56,742.72,1232.69,769.98z"/>
<path class="st2" d="M562.71,533.93c-38.34,19.21-79.01,10.32-97.1-16.64c-17.3-25.78-8.58-60.1-6.94-66.58
	c1.72-6.75,10.74-39.22,38.84-54.47c29.72-16.14,69.4-6.87,97.1,24.21C583.98,458.28,573.34,496.1,562.71,533.93z"/>
<path class="st2" d="M1442.16,529.39c-22.96,33.47-69.27,43.59-106.81,19.67c-13.41-43.88-26.81-87.76-40.23-131.64
	c45.93-40.12,106.5-36.17,137.33,0C1454.74,443.58,1467.04,493.11,1442.16,529.39z"/>
<path class="st13" d="M1299.28,648.92c-46.64,126.19-178.73,168.27-224.72,183.08c-11.39,3.67-273.17,83.21-425.85-102.89
	c-60.31-73.52-78.32-157.67-84.61-202.76c1.72-6.62,6.23-20.62,18.03-33.29c10.52-11.29,21.8-16.12,27.74-18.16
	c68.14,180.08,215.26,295.09,364.82,289c95.15-3.87,209.71-57.51,263.56-157.36c51.22-94.99,28.97-197.45,41.61-198.22
	C1294.05,407.48,1341.29,535.28,1299.28,648.92z"/>
<path class="st2" d="M1236.82,297.89c-1.82,37.67-139.28,68.09-308.59,68.09s-306.78-30.42-308.59-68.09h-56.98
	c-0.86,2.74-1.32,5.52-1.32,8.32c0,54.74,167.37,99.11,373.84,99.11s373.84-44.37,373.84-99.11c0-2.8-0.46-5.58-1.32-8.32H1236.82
	L1236.82,297.89z"/>
</svg>
