<?xml version="1.0" encoding="utf-8"?>
<!-- Generator: Adobe Illustrator 23.0.5, SVG Export Plug-In . SVG Version: 6.00 Build 0)  -->
<svg version="1.1" id="圖層_1" xmlns="http://www.w3.org/2000/svg" xmlns:xlink="http://www.w3.org/1999/xlink" x="0px" y="0px"
	 viewBox="0 0 1920 1080" style="enable-background:new 0 0 1920 1080;" xml:space="preserve">
<style type="text/css">
	.st0{fill:#20192D;}
	.st1{fill:#191627;}
	.st2{fill:#42414F;}
	.st3{fill:#45DBE3;}
	.st4{fill:#3886C9;}
	.st5{fill:#FD972A;}
	.st6{fill:#FEF6B3;}
	.st7{fill:#F69730;}
	.st8{fill:#FB8C2E;}
	.st9{fill:#F9F7C1;}
	.st10{fill:#252638;}
	.st11{fill:#232436;}
	.st12{fill:#191629;}
	.st13{fill:#1F1C2F;}
	.st14{fill:#FFFFFF;}
	.st15{fill:none;stroke:#000000;stroke-width:2;stroke-miterlimit:10;}
	.st16{fill:#FFFFFF;stroke:#000000;stroke-width:6;stroke-miterlimit:10;}
</style>
<path class="st0" d="M1252.12,415.9c-201.79,0-403.59,0-605.38,0c-13.76-13.17-31.31-33.84-43.8-63.55
	c-3.55-8.45-6.25-16.59-8.33-24.21c228.88,1.01,457.76,2.02,686.64,3.03c-0.35,8.73-1.48,19.01-4.16,30.27
	C1271.12,386.43,1260.22,404.7,1252.12,415.9z"/>
<ellipse class="st1" cx="931.69" cy="298.64" rx="317.65" ry="74.9"/>
<path class="st2" d="M621.87,299.4c-0.59-1.75-0.9-3.52-0.9-5.29c0-38.02,138.18-68.84,308.64-68.84s308.64,30.82,308.64,68.84
	c0,1.78-0.3,3.55-0.9,5.29h72.73c-7.5-52.98-171.85-95.32-373.54-95.32S570.51,246.41,563,299.4H621.87z"/>
<g>
	<path class="st3" d="M698.19,314.09c3.73-6.96,7.58-14.07,13.28-19.21c5.7-5.14,13.73-7.98,20.63-5.11
		c2.88,1.19,5.55,3.34,8.64,3.35c5.17,0.02,8.6-5.69,13.15-8.35c13-7.59,27.84,11.4,42.26,8.05c10.31-2.4,15.99-15.23,25.9-19.11
		c5.44-2.13,11.42-1.28,17.2-1.62c22.86-1.33,42.8-24.52,42.55-49.49c-0.07-7.11-1.56-14.16-1.41-21.28
		c0.14-7.11,2.35-14.77,7.81-18.65c6.43-4.57,15.4-2.31,21.3,3.02c5.91,5.33,9.45,13.08,12.83,20.59c4.45,9.9,8.91,19.8,13.36,29.7
		c6.72,14.94,14.74,31.19,29.09,36.85c6.56,2.59,13.73,2.58,20.7,2.02c17.43-1.41,37.33-8.67,42.89-26.75
		c2.29-7.46,1.7-15.68,3.99-23.14c2.77-9.03,9.49-16,16.77-21.25c5.24-3.78,11.32-6.96,17.56-6.22c8.17,0.97,14.6,8.64,17.3,17.11
		c2.7,8.46,2.41,17.66,2.07,26.61c-0.49,13.34-0.98,26.7-1.47,40.04c3.69,0.91,7.39,1.83,11.08,2.74
		c-9.3,9.35-19.24,20.14-19.96,33.92c-0.52,10.09,3.79,21.69-2.13,29.45c-5.7,7.46-16.98,5.29-24.26-0.3s-12.83-13.82-20.81-18.14
		c-13.69-7.41-30.2-1.26-43.6,6.76c-13.39,8.02-26.69,18.17-41.95,18.88c-14.96,0.7-29.85-7.92-44.47-4.38
		c-4.18,1.01-8.48,3.01-12.58,1.65c-4.47-1.49-7.04-6.4-9.68-10.62c-11.8-18.85-33.49-29.74-54.3-27.24
		c-20.8,2.5-39.8,18.29-47.54,39.49c-2.58,7.08-4.77,15.62-11.27,18.41c-2.41,1.03-5.07,1.06-7.66,0.9
		c-28.3-1.78-53.8-27.43-57.72-58.06"/>
</g>
<g>
	<path class="st4" d="M873.15,357.91c9.36-15.31,25.04-25.82,41.78-28.02c15.15-1.99,31.65,2.27,45.04-5.72
		c15.22-9.09,23.72-32.57,41.07-32.66c16.06-0.07,26.63,20.99,42.64,22.52c3.58,0.34,7.24-0.34,10.74,0.52
		c3.43,0.85,6.42,3.1,9.8,4.16c3.37,1.05,7.73,0.38,9.27-3.05c1.85-4.12-1.41-8.58-3.27-12.69c-3.91-8.69-0.73-20.39,6.9-25.34
		c3.78-2.44,8.21-3.29,12.54-4.09c9.07-1.67,18.15-3.35,27.22-5.02c10.12-1.87,22.21-3.02,28.95,5.42
		c3.31,4.15,4.51,9.88,4.58,15.38c0.34,27-22.9,47.41-46.08,56.89c-22.21,9.08-46.02,12.25-69.57,15.35
		c-47.49,6.25-95.09,12.52-142.92,13.39c-5.27,0.1-10.92,0.01-15.28-3.22c-4.37-3.24-6.34-10.86-2.48-14.78"/>
</g>
<g>
	<g>
		<path class="st5" d="M1011.74,362.68c5.41-15.28,21.28-23.67,36.29-24.06c15.01-0.39,29.47,5.61,43.47,11.52
			c-3.24-6.57,3.3-14.24,9.94-16.1c6.63-1.85,13.97-0.83,20.08-4.21c7.62-4.2,11.02-13.78,15.83-21.47
			c11.14-17.83,32.99-26.77,52.13-21.34c14.46,4.1,27.82,18.67,25.58,34.79c-2.59,18.51-22.3,26.99-39.11,30.8
			c-44.98,10.18-91.14,12.27-137.04,14.33c-9.09,0.4-18.25,0.81-27.26-0.55"/>
	</g>
	<ellipse class="st6" cx="1180.68" cy="309.23" rx="10.41" ry="11.35"/>
</g>
<g>
	<path class="st7" d="M644.65,294.5c-5.22-6.36-5.86-16.05-3.48-24.19c2.39-8.14,7.34-15.05,12.43-21.55
		c6.3-8.05,14.44-16.44,24.1-15.45c8.31,0.85,14.77,8.71,17.76,17.21c2.99,8.49,3.35,17.78,4.74,26.75s4.15,18.29,10.57,24.1
		c5.53,5.01,12.89,6.65,19.72,9.11c7.01,2.53,13.72,6.07,19.89,10.5c5.42,3.9,10.98,10.05,9.62,16.98c-0.9,4.56-4.62,7.81-8.47,9.84
		c-9.19,4.84-19.86,4.72-30.05,4.11c-12.34-0.74-24.64-2.07-36.87-3.97c-17.47-2.72-35.21-6.8-50.22-16.93
		c-4.46-3.01-8.94-7.06-9.84-12.69c-0.84-5.29,1.85-10.66,5.61-14.12c3.77-3.46,8.5-5.35,13.13-7.2"/>
</g>
<g>
	<g>
		<path class="st8" d="M766.92,366.51c-5.57-6.39-6.74-15.29-4.73-23.23s6.84-15.05,12.31-21.52c5.74-6.78,12.37-13.11,20.47-17.49
			c20.06-10.84,46.96-7.75,66.14,4.33c19.17,12.08,31.25,31.77,37.11,52.23c0.4,1.39,0.84,2.89,2.08,3.79
			c1.31,0.96,3.15,0.97,4.82,1.19c6.87,0.93,12.53,6.73,12.69,13.01c-1.94,3.28-6.89,3.63-11,3.57
			c-32.18-0.49-64.35-0.98-96.52-1.47c-9.58-0.14-19.31-0.31-28.48-2.83s-17.87-7.75-21.97-15.59"/>
	</g>
	<ellipse class="st9" cx="829.89" cy="326.64" rx="15.05" ry="13.61"/>
</g>
<path class="st10" d="M691.71,972.73c-23.05,7.82-60.65,5.92-69.36-15.13c-7.47-18.07,7.01-48.6,22.2-51.44
	c10.78-2.02,18.44,10.56,26.36,6.05c4.27-2.44,5.5-8.07,8.33-25.72c3.42-21.39,5.13-32.08,5.55-37.83c1.15-15.75,1.88-37.84,0-65.07
	c26.81,17.15,53.64,34.3,80.45,51.44C764.82,839.97,754.23,951.51,691.71,972.73z"/>
<path class="st11" d="M1189.05,966.68c23.05,7.82,60.65,5.92,69.36-15.13c7.47-18.07-7.01-48.6-22.2-51.44
	c-10.78-2.02-18.44,10.56-26.36,6.05c-4.27-2.44-5.5-8.07-8.33-25.72c-3.42-21.39-5.13-32.08-5.55-37.83
	c-1.15-15.75-1.88-37.84,0-65.07c-26.81,17.15-53.64,34.3-80.45,51.44C1115.95,833.91,1126.54,945.46,1189.05,966.68z"/>
<path class="st12" d="M962.2,910.7c-6.95,1.66-15.91,3.09-26.36,3.03c-9.82-0.06-18.29-1.43-24.97-3.03
	c-3.27-5.65-7.17-13.78-9.71-24.21c-3.91-16.08-2.69-29.83-1.39-37.83c23.58-1.01,47.16-2.02,70.74-3.03
	c0.83,9.87,1,22.89-1.39,37.83C967.44,894.15,964.82,903.3,962.2,910.7z"/>
<path class="st2" d="M1232.69,769.98c-153.04,139.7-433.64,146.2-577.05-10.59c-21.27-23.26-99.44-108.72-91.55-228.48
	c4.66-70.67,37.24-122.16,55.48-146.77c88.18,20.56,200.71,38.14,331.53,37.83c127.72-0.31,237.8-17.59,324.59-37.83
	c14.96,19.04,71.16,95,62.43,196.71C1329.45,681.66,1262.56,742.72,1232.69,769.98z"/>
<path class="st2" d="M562.71,533.93c-38.34,19.21-79.01,10.32-97.1-16.64c-17.3-25.78-8.58-60.1-6.94-66.58
	c1.72-6.75,10.74-39.22,38.84-54.47c29.72-16.14,69.4-6.87,97.1,24.21C583.98,458.28,573.34,496.1,562.71,533.93z"/>
<path class="st2" d="M1442.16,529.39c-22.96,33.47-69.27,43.59-106.81,19.67c-13.41-43.88-26.81-87.76-40.23-131.64
	c45.93-40.12,106.5-36.17,137.33,0C1454.74,443.58,1467.04,493.11,1442.16,529.39z"/>
<path class="st13" d="M1299.28,648.92c-46.64,126.19-178.73,168.27-224.72,183.08c-11.39,3.67-273.17,83.21-425.85-102.89
	c-60.31-73.52-78.32-157.67-84.61-202.76c1.72-6.62,6.23-20.62,18.03-33.29c10.52-11.29,21.8-16.12,27.74-18.16
	c68.14,180.08,215.26,295.09,364.82,289c95.15-3.87,209.71-57.51,263.56-157.36c51.22-94.99,28.97-197.45,41.61-198.22
	C1294.05,407.48,1341.29,535.28,1299.28,648.92z"/>
<path class="st2" d="M1236.82,297.89c-1.82,37.67-139.28,68.09-308.59,68.09s-306.78-30.42-308.59-68.09h-56.98
	c-0.86,2.74-1.32,5.52-1.32,8.32c0,54.74,167.37,99.11,373.84,99.11s373.84-44.37,373.84-99.11c0-2.8-0.46-5.58-1.32-8.32H1236.82
	L1236.82,297.89z"/>
<g>
	<g>
		<g>
			<path class="st14" d="M738.83,944.12c-3.06,0-5.79-1-8.1-2.99c-2.53-1.95-4.26-4.52-5.15-7.64l-0.04-0.16
				c-0.16-0.77-0.23-1.56-0.23-2.35c0-1.85,0.58-3.62,1.73-5.25c1.59-2.23,3.83-3.4,6.48-3.4c0.16,0,0.32,0,0.48,0.01h5.02
				c3.22,0,5.8-0.06,7.68-0.19h0.13c1.28,0,1.61-0.29,1.61-0.29c0.08-0.08,0.29-0.53,0.29-1.61v-135.5h-29.28
				c0.8,0.43,1.54,0.98,2.23,1.66c1.82,1.82,2.74,4.07,2.74,6.69v6h9.91c2.49,0,4.65,0.89,6.39,2.64c1.75,1.75,2.64,3.9,2.64,6.39
				s-0.89,4.65-2.64,6.39c-1.75,1.75-3.9,2.64-6.39,2.64h-9.91v12.6h12.26c2.36,0,4.45,0.89,6.2,2.64s2.64,3.87,2.64,6.3
				s-0.89,4.55-2.64,6.3s-3.83,2.64-6.2,2.64h-41.8c-2.49,0-4.65-0.89-6.39-2.64c-1.75-1.75-2.64-3.87-2.64-6.3s0.89-4.55,2.64-6.3
				s3.9-2.64,6.39-2.64h10.7v-12.6h-9.13c-2.49,0-4.65-0.89-6.39-2.64c-1.75-1.75-2.64-3.9-2.64-6.39s0.89-4.65,2.64-6.39
				c1.75-1.75,3.9-2.64,6.39-2.64h9.13v-6.01c0-2.62,0.92-4.87,2.73-6.69c0.68-0.68,1.42-1.24,2.22-1.66h-27.91V839
				c0,42.52-4.85,75.25-14.42,97.28c-1.19,2.71-3.33,4.33-6.21,4.7c-0.59,0.12-1.12,0.23-1.58,0.35l-0.24,0.06h-0.25
				c-2.1,0-4-0.58-5.64-1.73c-1.98-1.36-3.83-2.58-5.5-3.61c-1.09-0.57-1.81-1.36-2.14-2.34c-0.06-0.17-0.1-0.35-0.13-0.53h-31.88
				c-0.15,2.23-1.09,4.23-2.81,5.96c-1.89,1.88-4.13,2.83-6.69,2.83c-2.57,0-4.8-0.96-6.62-2.86c-1.79-1.87-2.7-4.08-2.7-6.56
				v-42.77c0-5.35,1.88-9.91,5.58-13.54c3.69-3.62,8.21-5.46,13.41-5.46h17.58c5.21,0,9.72,1.83,13.41,5.45
				c3.7,3.63,5.58,8.19,5.58,13.54v30.83c3.82-9.76,6.45-20.6,7.83-32.33c1.74-14.76,2.62-31.34,2.62-49.28v-55.27
				c0-5.21,1.87-9.73,5.57-13.43c3.69-3.69,8.21-5.57,13.43-5.57h70.12c5.22,0,9.73,1.87,13.43,5.57c3.69,3.69,5.57,8.21,5.57,13.43
				v136.52c0,5.38-0.62,9.56-1.9,12.75c-1.36,3.39-3.79,5.95-7.24,7.6c-4.03,2.08-11.08,3.24-21.52,3.52h-0.03h-0.42V944.12z
				 M632.34,914.53v-24.91h-17.68v24.91H632.34z M697.03,919.9c-2.5,0-4.62-0.85-6.3-2.54c-1.68-1.68-2.54-3.8-2.54-6.29v-35.35
				c0-5.21,1.87-9.73,5.57-13.43c3.69-3.69,8.21-5.57,13.43-5.57h16.21c5.22,0,9.73,1.87,13.43,5.57c3.69,3.69,5.57,8.21,5.57,13.43
				v17.77c0,5.21-1.87,9.73-5.57,13.43c-3.69,3.69-8.21,5.57-13.43,5.57h-17.61c-0.25,1.86-1.07,3.5-2.46,4.88
				c-1.68,1.68-3.74,2.54-6.1,2.54h-0.2V919.9z M724.52,894.61V874.2h-18.66v20.41H724.52z M605.43,862.28
				c-2.5,0-4.68-0.92-6.49-2.74c-1.81-1.81-2.73-4.02-2.73-6.59c0-2.56,0.92-4.78,2.73-6.59s4-2.73,6.49-2.73h36.91
				c2.49,0,4.67,0.92,6.49,2.73c1.82,1.82,2.74,4.04,2.74,6.59c0,2.56-0.92,4.78-2.73,6.59s-4,2.73-6.49,2.73h-36.92V862.28z
				 M605.43,835.53c-2.5,0-4.68-0.92-6.49-2.74c-1.81-1.81-2.73-3.99-2.73-6.49c0-2.49,0.92-4.68,2.73-6.49s4-2.73,6.49-2.73h36.91
				c2.64,0,4.87,0.93,6.62,2.77c1.73,1.81,2.6,3.99,2.6,6.46c0,2.48-0.88,4.65-2.6,6.46c-1.75,1.83-3.98,2.77-6.62,2.77h-36.91
				V835.53z M597.42,808.77c-2.64,0-4.91-0.96-6.72-2.87c-1.79-1.87-2.7-4.11-2.7-6.65c0-2.56,0.92-4.78,2.73-6.59
				s4.06-2.73,6.69-2.73h50c2.62,0,4.87,0.92,6.69,2.73c1.82,1.82,2.74,4.04,2.74,6.59c0,2.54-0.91,4.78-2.7,6.66
				c-1.82,1.9-4.08,2.86-6.72,2.86L597.42,808.77L597.42,808.77z M606.6,782.01c-2.48,0-4.65-0.88-6.46-2.6
				c-1.84-1.75-2.77-3.95-2.77-6.52c0-2.56,0.92-4.78,2.73-6.59s4-2.73,6.49-2.73h35.35c2.49,0,4.67,0.92,6.49,2.73
				c1.82,1.82,2.74,4.04,2.74,6.59c0,2.58-0.93,4.77-2.77,6.52c-1.81,1.73-3.99,2.6-6.46,2.6H606.6z"/>
			<path class="st15" d="M738.83,944.12c-3.06,0-5.79-1-8.1-2.99c-2.53-1.95-4.26-4.52-5.15-7.64l-0.04-0.16
				c-0.16-0.77-0.23-1.56-0.23-2.35c0-1.85,0.58-3.62,1.73-5.25c1.59-2.23,3.83-3.4,6.48-3.4c0.16,0,0.32,0,0.48,0.01h5.02
				c3.22,0,5.8-0.06,7.68-0.19h0.13c1.28,0,1.61-0.29,1.61-0.29c0.08-0.08,0.29-0.53,0.29-1.61v-135.5h-29.28
				c0.8,0.43,1.54,0.98,2.23,1.66c1.82,1.82,2.74,4.07,2.74,6.69v6h9.91c2.49,0,4.65,0.89,6.39,2.64c1.75,1.75,2.64,3.9,2.64,6.39
				s-0.89,4.65-2.64,6.39c-1.75,1.75-3.9,2.64-6.39,2.64h-9.91v12.6h12.26c2.36,0,4.45,0.89,6.2,2.64s2.64,3.87,2.64,6.3
				s-0.89,4.55-2.64,6.3s-3.83,2.64-6.2,2.64h-41.8c-2.49,0-4.65-0.89-6.39-2.64c-1.75-1.75-2.64-3.87-2.64-6.3s0.89-4.55,2.64-6.3
				s3.9-2.64,6.39-2.64h10.7v-12.6h-9.13c-2.49,0-4.65-0.89-6.39-2.64c-1.75-1.75-2.64-3.9-2.64-6.39s0.89-4.65,2.64-6.39
				c1.75-1.75,3.9-2.64,6.39-2.64h9.13v-6.01c0-2.62,0.92-4.87,2.73-6.69c0.68-0.68,1.42-1.24,2.22-1.66h-27.91V839
				c0,42.52-4.85,75.25-14.42,97.28c-1.19,2.71-3.33,4.33-6.21,4.7c-0.59,0.12-1.12,0.23-1.58,0.35l-0.24,0.06h-0.25
				c-2.1,0-4-0.58-5.64-1.73c-1.98-1.36-3.83-2.58-5.5-3.61c-1.09-0.57-1.81-1.36-2.14-2.34c-0.06-0.17-0.1-0.35-0.13-0.53h-31.88
				c-0.15,2.23-1.09,4.23-2.81,5.96c-1.89,1.88-4.13,2.83-6.69,2.83c-2.57,0-4.8-0.96-6.62-2.86c-1.79-1.87-2.7-4.08-2.7-6.56
				v-42.77c0-5.35,1.88-9.91,5.58-13.54c3.69-3.62,8.21-5.46,13.41-5.46h17.58c5.21,0,9.72,1.83,13.41,5.45
				c3.7,3.63,5.58,8.19,5.58,13.54v30.83c3.82-9.76,6.45-20.6,7.83-32.33c1.74-14.76,2.62-31.34,2.62-49.28v-55.27
				c0-5.21,1.87-9.73,5.57-13.43c3.69-3.69,8.21-5.57,13.43-5.57h70.12c5.22,0,9.73,1.87,13.43,5.57c3.69,3.69,5.57,8.21,5.57,13.43
				v136.52c0,5.38-0.62,9.56-1.9,12.75c-1.36,3.39-3.79,5.95-7.24,7.6c-4.03,2.08-11.08,3.24-21.52,3.52h-0.03h-0.42V944.12z
				 M632.34,914.53v-24.91h-17.68v24.91H632.34z M697.03,919.9c-2.5,0-4.62-0.85-6.3-2.54c-1.68-1.68-2.54-3.8-2.54-6.29v-35.35
				c0-5.21,1.87-9.73,5.57-13.43c3.69-3.69,8.21-5.57,13.43-5.57h16.21c5.22,0,9.73,1.87,13.43,5.57c3.69,3.69,5.57,8.21,5.57,13.43
				v17.77c0,5.21-1.87,9.73-5.57,13.43c-3.69,3.69-8.21,5.57-13.43,5.57h-17.61c-0.25,1.86-1.07,3.5-2.46,4.88
				c-1.68,1.68-3.74,2.54-6.1,2.54h-0.2V919.9z M724.52,894.61V874.2h-18.66v20.41H724.52z M605.43,862.28
				c-2.5,0-4.68-0.92-6.49-2.74c-1.81-1.81-2.73-4.02-2.73-6.59c0-2.56,0.92-4.78,2.73-6.59s4-2.73,6.49-2.73h36.91
				c2.49,0,4.67,0.92,6.49,2.73c1.82,1.82,2.74,4.04,2.74,6.59c0,2.56-0.92,4.78-2.73,6.59s-4,2.73-6.49,2.73h-36.92V862.28z
				 M605.43,835.53c-2.5,0-4.68-0.92-6.49-2.74c-1.81-1.81-2.73-3.99-2.73-6.49c0-2.49,0.92-4.68,2.73-6.49s4-2.73,6.49-2.73h36.91
				c2.64,0,4.87,0.93,6.62,2.77c1.73,1.81,2.6,3.99,2.6,6.46c0,2.48-0.88,4.65-2.6,6.46c-1.75,1.83-3.98,2.77-6.62,2.77h-36.91
				V835.53z M597.42,808.77c-2.64,0-4.91-0.96-6.72-2.87c-1.79-1.87-2.7-4.11-2.7-6.65c0-2.56,0.92-4.78,2.73-6.59
				s4.06-2.73,6.69-2.73h50c2.62,0,4.87,0.92,6.69,2.73c1.82,1.82,2.74,4.04,2.74,6.59c0,2.54-0.91,4.78-2.7,6.66
				c-1.82,1.9-4.08,2.86-6.72,2.86L597.42,808.77L597.42,808.77z M606.6,782.01c-2.48,0-4.65-0.88-6.46-2.6
				c-1.84-1.75-2.77-3.95-2.77-6.52c0-2.56,0.92-4.78,2.73-6.59s4-2.73,6.49-2.73h35.35c2.49,0,4.67,0.92,6.49,2.73
				c1.82,1.82,2.74,4.04,2.74,6.59c0,2.58-0.93,4.77-2.77,6.52c-1.81,1.73-3.99,2.6-6.46,2.6H606.6z"/>
		</g>
		<g>
			<path class="st14" d="M804.75,943.73c-2.56,0-4.78-0.92-6.59-2.73c-1.81-1.82-2.73-4.07-2.73-6.69V819.85
				c0-5.21,1.87-9.73,5.57-13.43c3.69-3.69,8.21-5.57,13.43-5.57h4.45v-15.92h-17.73c-2.76,0-5.17-1.02-7.18-3.03
				c-2.01-2-3.03-4.45-3.03-7.27c0-2.84,1.03-5.26,3.06-7.21c2-1.92,4.41-2.9,7.15-2.9h73.24c2.74,0,5.14,0.98,7.15,2.9
				c2.03,1.95,3.06,4.37,3.06,7.21c0,2.82-1.02,5.27-3.03,7.27c-2.01,2.01-4.42,3.03-7.18,3.03H858.6v15.92h2.88
				c5.22,0,9.73,1.87,13.43,5.57c3.69,3.69,5.57,8.21,5.57,13.43v111.52c0,2.64-0.96,4.9-2.86,6.72c-1.88,1.8-4.15,2.71-6.76,2.71
				c-2.62,0-4.87-0.92-6.69-2.73c-1.81-1.82-2.73-4.07-2.73-6.69v-0.93h-47.37v3.86c0,2.62-0.92,4.87-2.73,6.69
				C809.52,942.81,807.3,943.73,804.75,943.73z M861.44,911.6v-13.58h-47.37v13.58H861.44z M861.44,880.75v-12.21h-8.35
				c-4.82,0-8.08-1.05-10-3.21c-1.85-2.08-2.75-5.91-2.75-11.68v-33.16h-5.38v13.82c0,14.71-3.56,26.7-10.58,35.61l-0.06,0.08
				c-1.28,1.47-2.99,2.25-4.92,2.25c-1.86,0-3.52-0.63-4.93-1.86l-0.09-0.09c-0.1-0.1-0.2-0.21-0.3-0.31v10.77h47.36V880.75z
				 M814.07,860.48c5-6.52,7.52-15.37,7.52-26.37v-13.63h-7.52V860.48z M854.06,854.57h5.47c0.82,0,1.25-0.05,1.44-0.08l0.21-0.11
				c0.08-0.04,0.17-0.08,0.25-0.11v-33.79h-7.72v32.96c0,0.52,0.02,0.87,0.05,1.12C853.85,854.57,853.95,854.57,854.06,854.57z
				 M841.52,800.86v-15.92h-5.96v15.92H841.52z M917.73,942.17c-10.68,0-17.85-1.98-21.92-6.05s-6.05-11.44-6.05-22.51v-67.38
				c0-5.21,1.87-9.73,5.57-13.43c3.69-3.69,8.21-5.57,13.43-5.57h38.82v-39.36h-47.41c-3.01,0-5.62-1.08-7.76-3.22
				c-2.14-2.14-3.22-4.72-3.22-7.66s1.08-5.53,3.22-7.66c2.14-2.14,4.75-3.22,7.76-3.22h50.39c5.22,0,9.73,1.87,13.43,5.57
				s5.57,8.21,5.57,13.43v66.02c0,3.01-1.08,5.62-3.22,7.76c-2.14,2.14-4.75,3.22-7.76,3.22s-5.62-1.08-7.76-3.22
				c-2.14-2.14-3.22-4.75-3.22-7.76v-2.3h-35.45v64.8c0,4.51,0.86,5.81,1.23,6.16c0.3,0.29,1.68,1.21,6.93,1.21h27.15
				c2.84,0,4.61-1.04,5.59-3.29c0.83-1.9,1.98-6.65,2.77-18.48c0.17-2.64,1.55-4.72,3.98-6.03c1.23-0.66,2.5-0.99,3.77-0.99
				c1.19,0,2.38,0.29,3.54,0.87c2.85,1.28,5.23,3.21,6.99,5.71c1.55,2.33,2.32,4.74,2.32,7.21v1.27l-0.01,0.1
				c-1.35,13.13-3.88,21.95-7.72,26.99c-3.96,5.19-10.64,7.82-19.85,7.82h-31.11V942.17z"/>
			<path class="st15" d="M804.75,943.73c-2.56,0-4.78-0.92-6.59-2.73c-1.81-1.82-2.73-4.07-2.73-6.69V819.85
				c0-5.21,1.87-9.73,5.57-13.43c3.69-3.69,8.21-5.57,13.43-5.57h4.45v-15.92h-17.73c-2.76,0-5.17-1.02-7.18-3.03
				c-2.01-2-3.03-4.45-3.03-7.27c0-2.84,1.03-5.26,3.06-7.21c2-1.92,4.41-2.9,7.15-2.9h73.24c2.74,0,5.14,0.98,7.15,2.9
				c2.03,1.95,3.06,4.37,3.06,7.21c0,2.82-1.02,5.27-3.03,7.27c-2.01,2.01-4.42,3.03-7.18,3.03H858.6v15.92h2.88
				c5.22,0,9.73,1.87,13.43,5.57c3.69,3.69,5.57,8.21,5.57,13.43v111.52c0,2.64-0.96,4.9-2.86,6.72c-1.88,1.8-4.15,2.71-6.76,2.71
				c-2.62,0-4.87-0.92-6.69-2.73c-1.81-1.82-2.73-4.07-2.73-6.69v-0.93h-47.37v3.86c0,2.62-0.92,4.87-2.73,6.69
				C809.52,942.81,807.3,943.73,804.75,943.73z M861.44,911.6v-13.58h-47.37v13.58H861.44z M861.44,880.75v-12.21h-8.35
				c-4.82,0-8.08-1.05-10-3.21c-1.85-2.08-2.75-5.91-2.75-11.68v-33.16h-5.38v13.82c0,14.71-3.56,26.7-10.58,35.61l-0.06,0.08
				c-1.28,1.47-2.99,2.25-4.92,2.25c-1.86,0-3.52-0.63-4.93-1.86l-0.09-0.09c-0.1-0.1-0.2-0.21-0.3-0.31v10.77h47.36V880.75z
				 M814.07,860.48c5-6.52,7.52-15.37,7.52-26.37v-13.63h-7.52V860.48z M854.06,854.57h5.47c0.82,0,1.25-0.05,1.44-0.08l0.21-0.11
				c0.08-0.04,0.17-0.08,0.25-0.11v-33.79h-7.72v32.96c0,0.52,0.02,0.87,0.05,1.12C853.85,854.57,853.95,854.57,854.06,854.57z
				 M841.52,800.86v-15.92h-5.96v15.92H841.52z M917.73,942.17c-10.68,0-17.85-1.98-21.92-6.05s-6.05-11.44-6.05-22.51v-67.38
				c0-5.21,1.87-9.73,5.57-13.43c3.69-3.69,8.21-5.57,13.43-5.57h38.82v-39.36h-47.41c-3.01,0-5.62-1.08-7.76-3.22
				c-2.14-2.14-3.22-4.72-3.22-7.66s1.08-5.53,3.22-7.66c2.14-2.14,4.75-3.22,7.76-3.22h50.39c5.22,0,9.73,1.87,13.43,5.57
				s5.57,8.21,5.57,13.43v66.02c0,3.01-1.08,5.62-3.22,7.76c-2.14,2.14-4.75,3.22-7.76,3.22s-5.62-1.08-7.76-3.22
				c-2.14-2.14-3.22-4.75-3.22-7.76v-2.3h-35.45v64.8c0,4.51,0.86,5.81,1.23,6.16c0.3,0.29,1.68,1.21,6.93,1.21h27.15
				c2.84,0,4.61-1.04,5.59-3.29c0.83-1.9,1.98-6.65,2.77-18.48c0.17-2.64,1.55-4.72,3.98-6.03c1.23-0.66,2.5-0.99,3.77-0.99
				c1.19,0,2.38,0.29,3.54,0.87c2.85,1.28,5.23,3.21,6.99,5.71c1.55,2.33,2.32,4.74,2.32,7.21v1.27l-0.01,0.1
				c-1.35,13.13-3.88,21.95-7.72,26.99c-3.96,5.19-10.64,7.82-19.85,7.82h-31.11V942.17z"/>
		</g>
		<g>
			<path class="st14" d="M1081.6,944.32c-3.17,0-5.83-1.13-7.91-3.37c-2.04-2.2-3.07-4.82-3.07-7.81v-26.65
				c-16.24,13.97-36.5,25.08-60.25,33.04c-1.37,0.46-2.77,0.69-4.15,0.69c-1.52,0-3.13-0.3-4.78-0.9c-2.84-1.05-5.24-2.85-7.16-5.35
				c-1.68-2.01-2.18-4.47-1.4-7.06c0.78-2.61,2.58-4.37,5.21-5.07c18.73-5.15,35.32-12.43,49.37-21.65h-45.14
				c-2.75,0-5.13-0.99-7.08-2.93c-1.94-1.94-2.93-4.33-2.93-7.08s0.99-5.13,2.93-7.08c1.94-1.94,4.33-2.93,7.08-2.93h68.31v-7.33
				h-17.18c-0.38,0.86-1.1,1.55-2.1,1.99l-0.12,0.05l-5.54,1.98l-0.07,0.02c-0.68,0.18-1.35,0.28-2.01,0.28
				c-1.23,0-2.42-0.33-3.52-0.97c-1.34-0.77-2.3-1.89-2.84-3.28l-35.96,2.47c-0.23,0.02-0.46,0.02-0.69,0.02
				c-2.05,0-3.98-0.67-5.73-1.98l-0.09-0.07c-2.16-1.82-3.25-4.17-3.25-7c0-2.06,0.7-3.89,2.07-5.43c1.47-1.8,3.53-2.8,5.91-2.82
				l2.74-0.2h0.07c0.15,0,0.21-0.02,0.22-0.02c2.82-3.5,5.61-7.26,8.28-11.21c0.38-0.57,0.25-0.74,0.05-1
				c-3.56-4.71-8.49-10.15-14.64-16.18c-1.66-1.66-2.58-3.63-2.74-5.87c-0.17-2.27,0.44-4.28,1.8-5.99
				c1.32-1.82,3.17-2.92,5.43-3.18c0.32-0.04,0.63-0.06,0.94-0.06c1.43,0,2.73,0.39,3.87,1.15c2.55-4.73,5.12-9.93,7.67-15.47
				c0.96-2.39,2.69-4.12,5.11-5.04c1.21-0.46,2.44-0.69,3.65-0.69c1.11,0,2.22,0.2,3.3,0.58l0.12,0.05
				c2.37,1.02,3.96,2.74,4.73,5.13c0.77,2.4,0.47,4.73-0.88,6.93c-5.18,8.68-9.28,15.22-12.16,19.42c-0.09,0.12-0.13,0.2-0.16,0.25
				c0.02,0.03,0.06,0.08,0.12,0.14l0.08,0.09c0.94,1.06,2.13,2.47,3.64,4.31c1.95-3.31,3.84-6.61,5.62-9.81
				c1.1-2.2,2.91-3.82,5.36-4.71c1.15-0.42,2.31-0.64,3.45-0.64c1.23,0,2.46,0.25,3.64,0.75c2.38,0.87,4.01,2.57,4.7,4.91
				c0.68,2.32,0.33,4.62-1.03,6.66c-7.28,11.1-14.01,20.64-20,28.39l9.32-0.55c-0.25-0.71-0.54-1.44-0.85-2.23
				c-0.85-1.85-0.89-3.83-0.09-5.79c0.8-1.94,2.25-3.34,4.19-4.05l0.1-0.03c0.94-0.29,1.88-0.43,2.8-0.43
				c1.17,0,2.33,0.23,3.43,0.69c2.02,0.84,3.54,2.28,4.54,4.27c1.19,2.43,2.27,4.85,3.24,7.25v-32.33c0-5.23,1.92-9.72,5.69-13.36
				c3.76-3.61,8.23-5.44,13.3-5.44c0.51,0,0.55-0.11,0.64-0.39c0.63-1.9,1.21-3.89,1.71-5.91l0.03-0.12
				c0.92-2.92,2.71-5.25,5.31-6.94c1.87-1.25,3.95-1.88,6.17-1.88c0.64,0,1.34,0.08,2.14,0.23c2.98,0.66,5.13,2.25,6.46,4.73
				l0.07,0.13c0.63,1.43,0.95,2.82,0.95,4.13c0,1.28-0.24,2.57-0.71,3.83l-0.04,0.1l-1.04,2.08h7.41c4.69,0,8.8,1.7,12.24,5.06
				c2.5,2.45,4.1,5.3,4.79,8.53c1.4-1.71,3.2-2.68,5.39-2.94c0.32-0.04,0.63-0.05,0.94-0.05c1.37,0,2.64,0.35,3.8,1.04
				c3-4.95,5.67-10.05,7.92-15.14c1.14-2.46,2.95-4.18,5.38-5.15c1.21-0.48,2.45-0.73,3.67-0.73s2.46,0.25,3.67,0.73
				c2.31,0.83,4.01,2.57,4.86,5.01c0.84,2.44,0.57,4.89-0.77,7.07c-4.69,7.56-8.93,13.86-12.61,18.71
				c-0.05,0.07-0.09,0.13-0.11,0.17c0.03,0.03,0.06,0.08,0.12,0.14c1.84,1.84,3.29,3.34,4.3,4.47c2.32-3.56,4.55-7.16,6.63-10.71
				c1.28-2.23,3.16-3.79,5.58-4.6c1.09-0.36,2.2-0.55,3.3-0.55c1.32,0,2.64,0.26,3.94,0.78c2.4,1.03,4,2.78,4.69,5.1
				c0.68,2.32,0.33,4.62-1.03,6.66c-7.89,11.12-15.14,20.64-21.61,28.36l10.26-0.68c-0.34-0.81-0.71-1.65-1.1-2.5
				c-1.01-1.89-1.18-3.96-0.5-6.01c0.69-2.07,2.08-3.65,4.13-4.67c1.17-0.58,2.39-0.88,3.64-0.88c0.92,0,1.86,0.16,2.79,0.49
				c2.17,0.75,3.79,2.08,4.81,3.96c3.31,6.35,5.91,12.43,7.76,18.11c0.32,0.97,0.49,1.97,0.49,2.96c0,1.36-0.34,2.65-1,3.84
				c-0.96,2.05-2.49,3.65-4.54,4.75l-0.44,0.22c-1.01,0.46-1.97,0.68-2.94,0.68c-1.06,0-2.12-0.26-3.15-0.78
				c-1.61-0.8-2.78-2.01-3.44-3.54c-7.16,0.53-19.4,1.42-36.73,2.68c-0.24,0.02-0.47,0.02-0.7,0.02c-2.21,0-4.17-0.73-5.83-2.17
				c-1.8-1.55-2.88-3.51-3.21-5.82c-0.35-2.41,0.3-4.59,1.93-6.47c1.59-1.84,3.6-2.86,5.96-3.03h0.14h0.34
				c3.17-3.69,6.2-7.49,8.99-11.29c0.13-0.17,0.18-0.28,0.19-0.32c-0.01-0.01-0.04-0.06-0.1-0.13c-4.19-5.24-9.36-10.67-15.43-16.2
				v23.89c0,5.21-1.87,9.73-5.57,13.43s-8.21,5.57-13.43,5.57h-2.69v7.33h69.09c2.75,0,5.13,0.99,7.08,2.93l2.93,2.93v4.15
				c0,2.75-0.99,5.13-2.93,7.08c-1.94,1.94-4.33,2.93-7.08,2.93h-48.19c14.15,9.06,31.47,16.07,51.59,20.86
				c2.73,0.51,4.65,2.21,5.46,4.89c0.76,2.52,0.36,5-1.15,7.18c-1.96,2.57-4.41,4.43-7.35,5.6c-1.72,0.62-3.39,0.92-5.04,0.92
				c-1.33,0-2.61-0.15-3.8-0.45l-0.1-0.03c-24.02-7.33-44.36-18.18-60.5-32.25v26.23c0,3.01-1.12,5.65-3.32,7.86
				C1087.45,943.2,1084.74,944.32,1081.6,944.32z M1094.25,856.14v-9.48h-25.3v9.48H1094.25z M1094.25,830.55v-8.89h-25.3v8.89
				H1094.25z M1115.78,802.71c-3.15,0-5.86-1.12-8.06-3.32c-2.2-2.2-3.32-4.91-3.32-8.05v-2.88h-45.61v3.08
				c0,3.01-1.12,5.66-3.32,7.86s-4.88,3.32-7.96,3.32c-3.09,0-5.75-1.13-7.89-3.35c-2.12-2.2-3.2-4.83-3.2-7.83v-3.07h-34.72
				c-2.61,0-4.92-0.94-6.85-2.8c-1.96-1.88-2.96-4.2-2.96-6.91c0-2.69,0.99-5.04,2.93-6.98s4.26-2.93,6.88-2.93h34.72v-0.73
				c0-3.14,1.08-5.82,3.22-7.96s4.78-3.22,7.86-3.22c3.07,0,5.75,1.12,7.96,3.32c2.21,2.21,3.32,4.85,3.32,7.86v0.73h45.61v-0.54
				c0-3.14,1.12-5.85,3.32-8.05s4.91-3.32,8.05-3.32s5.85,1.12,8.05,3.32c2.21,2.21,3.32,4.92,3.32,8.06v0.54h35.7
				c2.62,0,4.94,0.99,6.88,2.93c1.94,1.94,2.93,4.29,2.93,6.98c0,2.71-1,5.03-2.96,6.91c-1.94,1.86-4.24,2.8-6.85,2.8h-35.69v2.88
				c0,3.14-1.12,5.85-3.32,8.06S1118.92,802.71,1115.78,802.71z"/>
			<path class="st15" d="M1081.6,944.32c-3.17,0-5.83-1.13-7.91-3.37c-2.04-2.2-3.07-4.82-3.07-7.81v-26.65
				c-16.24,13.97-36.5,25.08-60.25,33.04c-1.37,0.46-2.77,0.69-4.15,0.69c-1.52,0-3.13-0.3-4.78-0.9c-2.84-1.05-5.24-2.85-7.16-5.35
				c-1.68-2.01-2.18-4.47-1.4-7.06c0.78-2.61,2.58-4.37,5.21-5.07c18.73-5.15,35.32-12.43,49.37-21.65h-45.14
				c-2.75,0-5.13-0.99-7.08-2.93c-1.94-1.94-2.93-4.33-2.93-7.08s0.99-5.13,2.93-7.08c1.94-1.94,4.33-2.93,7.08-2.93h68.31v-7.33
				h-17.18c-0.38,0.86-1.1,1.55-2.1,1.99l-0.12,0.05l-5.54,1.98l-0.07,0.02c-0.68,0.18-1.35,0.28-2.01,0.28
				c-1.23,0-2.42-0.33-3.52-0.97c-1.34-0.77-2.3-1.89-2.84-3.28l-35.96,2.47c-0.23,0.02-0.46,0.02-0.69,0.02
				c-2.05,0-3.98-0.67-5.73-1.98l-0.09-0.07c-2.16-1.82-3.25-4.17-3.25-7c0-2.06,0.7-3.89,2.07-5.43c1.47-1.8,3.53-2.8,5.91-2.82
				l2.74-0.2h0.07c0.15,0,0.21-0.02,0.22-0.02c2.82-3.5,5.61-7.26,8.28-11.21c0.38-0.57,0.25-0.74,0.05-1
				c-3.56-4.71-8.49-10.15-14.64-16.18c-1.66-1.66-2.58-3.63-2.74-5.87c-0.17-2.27,0.44-4.28,1.8-5.99
				c1.32-1.82,3.17-2.92,5.43-3.18c0.32-0.04,0.63-0.06,0.94-0.06c1.43,0,2.73,0.39,3.87,1.15c2.55-4.73,5.12-9.93,7.67-15.47
				c0.96-2.39,2.69-4.12,5.11-5.04c1.21-0.46,2.44-0.69,3.65-0.69c1.11,0,2.22,0.2,3.3,0.58l0.12,0.05
				c2.37,1.02,3.96,2.74,4.73,5.13c0.77,2.4,0.47,4.73-0.88,6.93c-5.18,8.68-9.28,15.22-12.16,19.42c-0.09,0.12-0.13,0.2-0.16,0.25
				c0.02,0.03,0.06,0.08,0.12,0.14l0.08,0.09c0.94,1.06,2.13,2.47,3.64,4.31c1.95-3.31,3.84-6.61,5.62-9.81
				c1.1-2.2,2.91-3.82,5.36-4.71c1.15-0.42,2.31-0.64,3.45-0.64c1.23,0,2.46,0.25,3.64,0.75c2.38,0.87,4.01,2.57,4.7,4.91
				c0.68,2.32,0.33,4.62-1.03,6.66c-7.28,11.1-14.01,20.64-20,28.39l9.32-0.55c-0.25-0.71-0.54-1.44-0.85-2.23
				c-0.85-1.85-0.89-3.83-0.09-5.79c0.8-1.94,2.25-3.34,4.19-4.05l0.1-0.03c0.94-0.29,1.88-0.43,2.8-0.43
				c1.17,0,2.33,0.23,3.43,0.69c2.02,0.84,3.54,2.28,4.54,4.27c1.19,2.43,2.27,4.85,3.24,7.25v-32.33c0-5.23,1.92-9.72,5.69-13.36
				c3.76-3.61,8.23-5.44,13.3-5.44c0.51,0,0.55-0.11,0.64-0.39c0.63-1.9,1.21-3.89,1.71-5.91l0.03-0.12
				c0.92-2.92,2.71-5.25,5.31-6.94c1.87-1.25,3.95-1.88,6.17-1.88c0.64,0,1.34,0.08,2.14,0.23c2.98,0.66,5.13,2.25,6.46,4.73
				l0.07,0.13c0.63,1.43,0.95,2.82,0.95,4.13c0,1.28-0.24,2.57-0.71,3.83l-0.04,0.1l-1.04,2.08h7.41c4.69,0,8.8,1.7,12.24,5.06
				c2.5,2.45,4.1,5.3,4.79,8.53c1.4-1.71,3.2-2.68,5.39-2.94c0.32-0.04,0.63-0.05,0.94-0.05c1.37,0,2.64,0.35,3.8,1.04
				c3-4.95,5.67-10.05,7.92-15.14c1.14-2.46,2.95-4.18,5.38-5.15c1.21-0.48,2.45-0.73,3.67-0.73s2.46,0.25,3.67,0.73
				c2.31,0.83,4.01,2.57,4.86,5.01c0.84,2.44,0.57,4.89-0.77,7.07c-4.69,7.56-8.93,13.86-12.61,18.71
				c-0.05,0.07-0.09,0.13-0.11,0.17c0.03,0.03,0.06,0.08,0.12,0.14c1.84,1.84,3.29,3.34,4.3,4.47c2.32-3.56,4.55-7.16,6.63-10.71
				c1.28-2.23,3.16-3.79,5.58-4.6c1.09-0.36,2.2-0.55,3.3-0.55c1.32,0,2.64,0.26,3.94,0.78c2.4,1.03,4,2.78,4.69,5.1
				c0.68,2.32,0.33,4.62-1.03,6.66c-7.89,11.12-15.14,20.64-21.61,28.36l10.26-0.68c-0.34-0.81-0.71-1.65-1.1-2.5
				c-1.01-1.89-1.18-3.96-0.5-6.01c0.69-2.07,2.08-3.65,4.13-4.67c1.17-0.58,2.39-0.88,3.64-0.88c0.92,0,1.86,0.16,2.79,0.49
				c2.17,0.75,3.79,2.08,4.81,3.96c3.31,6.35,5.91,12.43,7.76,18.11c0.32,0.97,0.49,1.97,0.49,2.96c0,1.36-0.34,2.65-1,3.84
				c-0.96,2.05-2.49,3.65-4.54,4.75l-0.44,0.22c-1.01,0.46-1.97,0.68-2.94,0.68c-1.06,0-2.12-0.26-3.15-0.78
				c-1.61-0.8-2.78-2.01-3.44-3.54c-7.16,0.53-19.4,1.42-36.73,2.68c-0.24,0.02-0.47,0.02-0.7,0.02c-2.21,0-4.17-0.73-5.83-2.17
				c-1.8-1.55-2.88-3.51-3.21-5.82c-0.35-2.41,0.3-4.59,1.93-6.47c1.59-1.84,3.6-2.86,5.96-3.03h0.14h0.34
				c3.17-3.69,6.2-7.49,8.99-11.29c0.13-0.17,0.18-0.28,0.19-0.32c-0.01-0.01-0.04-0.06-0.1-0.13c-4.19-5.24-9.36-10.67-15.43-16.2
				v23.89c0,5.21-1.87,9.73-5.57,13.43s-8.21,5.57-13.43,5.57h-2.69v7.33h69.09c2.75,0,5.13,0.99,7.08,2.93l2.93,2.93v4.15
				c0,2.75-0.99,5.13-2.93,7.08c-1.94,1.94-4.33,2.93-7.08,2.93h-48.19c14.15,9.06,31.47,16.07,51.59,20.86
				c2.73,0.51,4.65,2.21,5.46,4.89c0.76,2.52,0.36,5-1.15,7.18c-1.96,2.57-4.41,4.43-7.35,5.6c-1.72,0.62-3.39,0.92-5.04,0.92
				c-1.33,0-2.61-0.15-3.8-0.45l-0.1-0.03c-24.02-7.33-44.36-18.18-60.5-32.25v26.23c0,3.01-1.12,5.65-3.32,7.86
				C1087.45,943.2,1084.74,944.32,1081.6,944.32z M1094.25,856.14v-9.48h-25.3v9.48H1094.25z M1094.25,830.55v-8.89h-25.3v8.89
				H1094.25z M1115.78,802.71c-3.15,0-5.86-1.12-8.06-3.32c-2.2-2.2-3.32-4.91-3.32-8.05v-2.88h-45.61v3.08
				c0,3.01-1.12,5.66-3.32,7.86s-4.88,3.32-7.96,3.32c-3.09,0-5.75-1.13-7.89-3.35c-2.12-2.2-3.2-4.83-3.2-7.83v-3.07h-34.72
				c-2.61,0-4.92-0.94-6.85-2.8c-1.96-1.88-2.96-4.2-2.96-6.91c0-2.69,0.99-5.04,2.93-6.98s4.26-2.93,6.88-2.93h34.72v-0.73
				c0-3.14,1.08-5.82,3.22-7.96s4.78-3.22,7.86-3.22c3.07,0,5.75,1.12,7.96,3.32c2.21,2.21,3.32,4.85,3.32,7.86v0.73h45.61v-0.54
				c0-3.14,1.12-5.85,3.32-8.05s4.91-3.32,8.05-3.32s5.85,1.12,8.05,3.32c2.21,2.21,3.32,4.92,3.32,8.06v0.54h35.7
				c2.62,0,4.94,0.99,6.88,2.93c1.94,1.94,2.93,4.29,2.93,6.98c0,2.71-1,5.03-2.96,6.91c-1.94,1.86-4.24,2.8-6.85,2.8h-35.69v2.88
				c0,3.14-1.12,5.85-3.32,8.06S1118.92,802.71,1115.78,802.71z"/>
		</g>
		<g>
			<path class="st14" d="M1254.65,939.82c-3.44,0-6.54-1.06-9.24-3.16c-2.77-2.18-4.75-5.03-5.92-8.49
				c-0.47-1.13-0.71-2.29-0.71-3.44c0-1.84,0.58-3.61,1.73-5.25c1.64-2.46,4.17-3.78,7.3-3.78h8.07h0.06c2,0.13,3.8,0.19,5.34,0.19
				c3.61,0,5.02-0.09,5.57-0.17l0.14-0.02h0.14c3.38,0,3.66-1.42,3.66-2.88V764.39c0-3.41,1.16-6.26,3.44-8.47
				c2.26-2.19,5.06-3.3,8.32-3.3c3.27,0,6.08,1.15,8.35,3.42c2.27,2.27,3.42,5.08,3.42,8.35v23.83c0,1.1,0.17,2.22,0.5,3.33
				c3.29,12.52,7.85,25.33,13.59,38.17c13.78-12.31,25.71-24.66,35.48-36.71c2.14-2.6,4.92-4.15,8.26-4.62
				c0.77-0.15,1.46-0.22,2.09-0.22c2.6,0,5.08,0.77,7.36,2.29c2.86,1.91,4.47,4.64,4.79,8.12l0.01,0.09v1.07
				c0,2.85-1.03,5.41-3.07,7.61c-16.02,16.93-31.08,30.87-44.78,41.43c-0.08,0.06-0.13,0.11-0.17,0.14
				c0.02,0.05,0.05,0.13,0.11,0.23c13.4,22.46,29.71,39.3,48.46,50.02c2.74,1.61,4.43,4.03,5.07,7.2l0.04,0.19v1.76
				c0,2.52-0.8,4.84-2.37,6.88c-2.4,2.85-5.31,4.71-8.7,5.6c-1.03,0.3-2.14,0.46-3.24,0.46c-2.31,0-4.63-0.69-6.89-2.04
				c-23.1-15.11-42.08-38.85-56.54-70.68v64.27c0,6.35-0.83,11.17-2.54,14.73c-1.76,3.67-4.71,6.48-8.77,8.37
				c-5.44,2.23-14.55,3.5-27.93,3.9h-0.03L1254.65,939.82L1254.65,939.82z M1205.23,917.56c-0.53,0-1.06-0.08-1.57-0.22
				c-3.24-0.34-6.15-1.78-8.63-4.27c-2.18-2.02-3.32-4.62-3.32-7.66c0-3.52,1.32-6.29,3.92-8.24c8.72-7.08,16.67-16,23.55-26.45
				c8.73-13.15,15.42-28.53,19.91-45.73h-36.01c-3.15,0-5.86-1.12-8.06-3.32c-2.2-2.2-3.32-4.91-3.32-8.05s1.12-5.85,3.32-8.05
				s4.91-3.32,8.05-3.32h45.59c0.88-0.26,1.77-0.39,2.65-0.39c1.51,0,3.05,0.3,4.56,0.89l3.29,0.97l0.05,0.02
				c2.29,0.82,4.04,2.32,5.19,4.45c1.13,2.11,1.46,4.4,0.98,6.81c-4.71,23.28-12.07,43.98-21.9,61.52
				c-8.8,15.5-19,28.36-30.31,38.23C1210.82,916.62,1208.16,917.56,1205.23,917.56z"/>
			<path class="st15" d="M1254.65,939.82c-3.44,0-6.54-1.06-9.24-3.16c-2.77-2.18-4.75-5.03-5.92-8.49
				c-0.47-1.13-0.71-2.29-0.71-3.44c0-1.84,0.58-3.61,1.73-5.25c1.64-2.46,4.17-3.78,7.3-3.78h8.07h0.06c2,0.13,3.8,0.19,5.34,0.19
				c3.61,0,5.02-0.09,5.57-0.17l0.14-0.02h0.14c3.38,0,3.66-1.42,3.66-2.88V764.39c0-3.41,1.16-6.26,3.44-8.47
				c2.26-2.19,5.06-3.3,8.32-3.3c3.27,0,6.08,1.15,8.35,3.42c2.27,2.27,3.42,5.08,3.42,8.35v23.83c0,1.1,0.17,2.22,0.5,3.33
				c3.29,12.52,7.85,25.33,13.59,38.17c13.78-12.31,25.71-24.66,35.48-36.71c2.14-2.6,4.92-4.15,8.26-4.62
				c0.77-0.15,1.46-0.22,2.09-0.22c2.6,0,5.08,0.77,7.36,2.29c2.86,1.91,4.47,4.64,4.79,8.12l0.01,0.09v1.07
				c0,2.85-1.03,5.41-3.07,7.61c-16.02,16.93-31.08,30.87-44.78,41.43c-0.08,0.06-0.13,0.11-0.17,0.14
				c0.02,0.05,0.05,0.13,0.11,0.23c13.4,22.46,29.71,39.3,48.46,50.02c2.74,1.61,4.43,4.03,5.07,7.2l0.04,0.19v1.76
				c0,2.52-0.8,4.84-2.37,6.88c-2.4,2.85-5.31,4.71-8.7,5.6c-1.03,0.3-2.14,0.46-3.24,0.46c-2.31,0-4.63-0.69-6.89-2.04
				c-23.1-15.11-42.08-38.85-56.54-70.68v64.27c0,6.35-0.83,11.17-2.54,14.73c-1.76,3.67-4.71,6.48-8.77,8.37
				c-5.44,2.23-14.55,3.5-27.93,3.9h-0.03L1254.65,939.82L1254.65,939.82z M1205.23,917.56c-0.53,0-1.06-0.08-1.57-0.22
				c-3.24-0.34-6.15-1.78-8.63-4.27c-2.18-2.02-3.32-4.62-3.32-7.66c0-3.52,1.32-6.29,3.92-8.24c8.72-7.08,16.67-16,23.55-26.45
				c8.73-13.15,15.42-28.53,19.91-45.73h-36.01c-3.15,0-5.86-1.12-8.06-3.32c-2.2-2.2-3.32-4.91-3.32-8.05s1.12-5.85,3.32-8.05
				s4.91-3.32,8.05-3.32h45.59c0.88-0.26,1.77-0.39,2.65-0.39c1.51,0,3.05,0.3,4.56,0.89l3.29,0.97l0.05,0.02
				c2.29,0.82,4.04,2.32,5.19,4.45c1.13,2.11,1.46,4.4,0.98,6.81c-4.71,23.28-12.07,43.98-21.9,61.52
				c-8.8,15.5-19,28.36-30.31,38.23C1210.82,916.62,1208.16,917.56,1205.23,917.56z"/>
		</g>
	</g>
</g>
<path class="st16" d="M509.78,940.3h-74.22c-28.48,0-51.56-23.09-51.56-51.56v-74.22c0-28.48,23.09-51.56,51.56-51.56h74.22
	c28.48,0,51.56,23.09,51.56,51.56v74.22C561.34,917.22,538.25,940.3,509.78,940.3z"/>
</svg>
