<?xml version="1.0" encoding="utf-8"?>
<!-- Generator: Adobe Illustrator 23.0.5, SVG Export Plug-In . SVG Version: 6.00 Build 0)  -->
<svg version="1.1" id="圖層_1" xmlns="http://www.w3.org/2000/svg" xmlns:xlink="http://www.w3.org/1999/xlink" x="0px" y="0px"
	 viewBox="0 0 1920 1080" style="enable-background:new 0 0 1920 1080;" xml:space="preserve">
<style type="text/css">
	.st0{fill:#4F3550;}
	.st1{fill:#650B82;}
	.st2{fill:#D137F7;}
	.st3{fill:#E44DFD;}
	.st4{fill:#FFFFFF;}
	.st5{fill:#AC0D4C;}
	.st6{fill:#FE7BB1;}
	.st7{fill:#2A8201;}
	.st8{fill:#5DF034;}
	.st9{fill:#023981;}
	.st10{fill:#30AEFE;}
	.st11{fill:#286677;}
	.st12{fill:#32F9F3;}
	.st13{fill:#277C51;}
	.st14{fill:#32F94E;}
	.st15{fill:#7C7C04;}
	.st16{fill:#E9FC32;}
	.st17{fill:#7A1B05;}
	.st18{fill:#F95C32;}
	.st19{fill:#6D4122;}
	.st20{fill:#6D665B;}
</style>
<g>
	<rect x="602.78" y="75.22" class="st0" width="551.93" height="881.04"/>
	<g>
		<path class="st1" d="M1008.11,281.17c-26.66-20.97-53.33-41.93-79.99-62.9c24.52-17.62,49.04-35.25,73.56-52.87
			c27.08,22.62,54.15,45.24,81.23,67.86C1057.98,249.23,1033.04,265.2,1008.11,281.17z"/>
		<path class="st2" d="M1045.47,220.25c-11.61-4.52-17.73-10.19-27.46-19.43c-11.04-10.47-12.36-14.78-12.77-16.44
			c-0.95-3.83-0.19-6.86,0.6-8.81c25.32,20.87,44.24,36.63,52.6,43.66c1.5,1.26,4.53,3.91,3.29,4.76
			C1060.03,225.14,1051.13,222.46,1045.47,220.25z"/>
		<path class="st2" d="M1000.72,184.94c-1.77,6.74-8.43,10.52-19.39,16.54c-12.42,6.83-19.23,7.85-21.9,8.19
			c-6.16,0.78-11.84,0.57-15.65,0.26c23.02-15.45,40.52-27,48.36-32.11c1.4-0.91,4.42-2.78,6.55-2.14
			C1001.59,176.53,1001.59,181.65,1000.72,184.94z"/>
		<path class="st2" d="M1008.21,262.71c1.87-7.61,9.29-11.91,21.49-18.77c13.83-7.77,21.46-8.97,24.45-9.37
			c6.9-0.92,13.29-0.71,17.57-0.38c-25.59,17.56-45.03,30.69-53.75,36.5c-1.56,1.04-4.92,3.16-7.32,2.46
			C1007.39,272.19,1007.3,266.42,1008.21,262.71z"/>
		<path class="st2" d="M955.59,223.15c13.5,4.58,21.14,10.76,33.32,20.82c13.81,11.41,15.96,16.27,16.67,18.15
			c1.65,4.33,1.29,7.84,0.73,10.1c-31.2-22.58-54.53-39.63-64.85-47.25c-1.85-1.36-5.61-4.24-4.37-5.27
			C938.78,218.3,949.01,220.92,955.59,223.15z"/>
		<path class="st3" d="M1007.24,252.72c-13.55-11.05-27.09-22.11-40.64-33.16c12.16-8.05,24.32-16.1,36.48-24.15
			c13.26,11.02,26.52,22.04,39.77,33.06C1030.99,236.56,1019.12,244.64,1007.24,252.72z"/>
		<path class="st4" d="M1012.92,244.26l-0.11-0.05c-1-0.49-1.27-1.27-0.62-1.73l21.7-15.26c0.66-0.46,2.01-0.44,3,0.05l0.11,0.05
			c1,0.49,1.27,1.27,0.62,1.73l-21.7,15.26C1015.26,244.77,1013.91,244.75,1012.92,244.26z"/>
	</g>
	<g>
		<path class="st5" d="M649.13,232.13c26.2-19.54,52.39-39.09,78.59-58.63c30.65,18.7,61.29,37.41,91.94,56.11
			c-28.57,19.82-57.14,39.64-85.72,59.46C705.68,270.09,677.4,251.11,649.13,232.13z"/>
		<path class="st6" d="M746.35,261.3c4.57-8.6,11.86-13.07,23.76-20.17c13.5-8.05,19.65-8.96,22.04-9.24
			c5.5-0.64,10.15,0,13.18,0.63c-26.3,18.54-46.19,32.39-55.08,38.51c-1.59,1.1-4.96,3.31-6.45,2.37
			C741.78,272.1,744.13,265.49,746.35,261.3z"/>
		<path class="st6" d="M790.51,228.51c-10.32-1.46-17.15-6.52-28.1-14.84c-12.41-9.43-15.18-14.55-16.18-16.55
			c-2.3-4.63-3.02-8.87-3.26-11.72c27.15,17.54,47.5,30.86,56.52,36.84c1.61,1.07,4.93,3.37,4.38,4.94
			C803.14,229.32,795.54,229.22,790.51,228.51z"/>
		<path class="st6" d="M676.54,232.57c11.64,1.55,19.38,7.19,31.78,16.46c14.07,10.51,17.25,16.24,18.39,18.49
			c2.63,5.19,3.49,9.96,3.8,13.16c-30.75-19.5-53.79-34.32-64.01-40.96c-1.83-1.19-5.59-3.74-4.99-5.53
			C662.32,231.76,670.87,231.81,676.54,232.57z"/>
		<path class="st6" d="M725.53,193.96c-4.31,10.01-12.07,15.61-24.75,24.53c-14.38,10.11-21.2,11.62-23.85,12.12
			c-6.11,1.15-11.38,0.81-14.85,0.35c27.75-22.91,48.76-40.03,58.16-47.61c1.68-1.36,5.26-4.12,7.01-3.17
			C729.63,181.47,727.63,189.08,725.53,193.96z"/>
		<path class="st6" d="M691.17,232.04c13.91-9.92,27.81-19.84,41.72-29.76c14.17,9.26,28.35,18.52,42.52,27.79
			c-13.91,9.71-27.82,19.41-41.73,29.12C719.51,250.14,705.34,241.09,691.17,232.04z"/>
		<path class="st4" d="M704.76,236.46l0.06-0.08c0.54-0.74,1.65-0.93,2.45-0.43l26.63,16.55c0.8,0.5,1.02,1.51,0.47,2.25l-0.06,0.08
			c-0.54,0.74-1.65,0.93-2.45,0.43l-26.63-16.55C704.43,238.2,704.22,237.19,704.76,236.46z"/>
	</g>
	<g>
		<path class="st7" d="M722.55,479.09c-30.56-23.91-61.11-47.83-91.67-71.74c34.11-13.97,68.22-27.94,102.33-41.92
			c30.81,25.58,61.63,51.16,92.44,76.74C791.28,454.47,756.91,466.78,722.55,479.09z"/>
		<path class="st8" d="M780.06,424.6c-14.05-5.92-20.92-12.25-31.82-22.52c-12.35-11.64-13.34-16.02-13.6-17.69
			c-0.59-3.85,0.88-6.71,2.2-8.51c28.86,23.64,50.39,41.47,59.9,49.41c1.7,1.42,5.14,4.4,3.41,5.06
			C797.81,431.26,786.91,427.48,780.06,424.6z"/>
		<path class="st8" d="M728.81,384.34c-3.36,6.34-12.46,9.15-27.4,13.59c-16.94,5.03-25.78,5.14-29.23,5.12
			c-7.97-0.04-15.18-0.99-19.97-1.79c31.85-12.05,56.01-21.02,66.84-24.98c1.94-0.71,6.09-2.13,8.69-1.23
			C731.28,376.26,730.44,381.25,728.81,384.34z"/>
		<path class="st8" d="M725.68,461.1c3.62-7.17,13.77-10.4,30.43-15.48c18.89-5.77,28.8-5.94,32.68-5.93
			c8.95,0,17.05,1.05,22.45,1.92c-35.46,13.77-62.36,24.03-74.42,28.55c-2.16,0.81-6.78,2.43-9.72,1.44
			C723.09,470.24,723.92,464.6,725.68,461.1z"/>
		<path class="st8" d="M665.08,415.69c16.45,6.22,25.18,13.24,39.07,24.64c15.74,12.92,17.68,17.94,18.29,19.86
			c1.4,4.43,0.37,7.8-0.71,9.94c-36.07-26.08-63.01-45.74-74.93-54.51c-2.13-1.57-6.46-4.86-4.72-5.71
			C644.45,408.77,657.06,412.66,665.08,415.69z"/>
		<path class="st8" d="M726.08,451.25c-15.46-12.54-30.92-25.08-46.38-37.62c16.8-6.26,33.6-12.51,50.41-18.77
			c15.1,12.47,30.19,24.94,45.29,37.41C758.96,438.59,742.52,444.92,726.08,451.25z"/>
		<path class="st4" d="M734.68,443.74l-0.13-0.07c-1.19-0.61-1.42-1.4-0.51-1.77l30.13-12.04c0.91-0.36,2.63-0.16,3.82,0.44
			l0.13,0.07c1.19,0.61,1.42,1.4,0.51,1.77l-30.13,12.04C737.59,444.55,735.87,444.35,734.68,443.74z"/>
	</g>
	<g>
		<path class="st9" d="M1006.04,470.64c-28.99-25.79-57.98-51.57-86.97-77.36c32.36-15.07,64.72-30.13,97.08-45.2
			c29.23,27.58,58.47,55.16,87.7,82.74C1071.25,444.1,1038.64,457.37,1006.04,470.64z"/>
		<path class="st10" d="M1060.6,411.89c-13.33-6.38-19.85-13.21-30.19-24.28c-11.72-12.55-12.66-17.27-12.9-19.07
			c-0.56-4.16,0.84-7.24,2.09-9.18c27.39,25.5,47.81,44.72,56.83,53.28c1.61,1.53,4.87,4.74,3.24,5.46
			C1077.45,419.07,1067.1,415,1060.6,411.89z"/>
		<path class="st10" d="M1011.98,368.48c-3.18,6.83-11.82,9.87-25.99,14.65c-16.07,5.42-24.46,5.54-27.73,5.53
			c-7.57-0.04-14.4-1.07-18.95-1.93c30.22-13,53.14-22.67,63.41-26.94c1.84-0.76,5.77-2.3,8.25-1.33
			C1014.32,359.77,1013.53,365.15,1011.98,368.48z"/>
		<path class="st10" d="M1009.01,451.25c3.44-7.74,13.07-11.21,28.87-16.69c17.92-6.22,27.33-6.4,31-6.4
			c8.49,0.01,16.17,1.13,21.3,2.07c-33.64,14.85-59.17,25.91-70.61,30.78c-2.05,0.87-6.43,2.63-9.22,1.55
			C1006.55,461.11,1007.34,455.02,1009.01,451.25z"/>
		<path class="st10" d="M951.52,402.28c15.61,6.71,23.89,14.28,37.06,26.57c14.93,13.93,16.78,19.35,17.35,21.42
			c1.33,4.78,0.35,8.42-0.68,10.72c-34.22-28.12-59.78-49.33-71.09-58.78c-2.02-1.69-6.13-5.24-4.47-6.15
			C931.94,394.82,943.91,399.01,951.52,402.28z"/>
		<path class="st10" d="M1009.39,440.63c-14.67-13.52-29.33-27.05-44-40.57c15.94-6.75,31.88-13.49,47.82-20.24
			c14.32,13.45,28.65,26.89,42.97,40.34C1040.58,426.98,1024.98,433.8,1009.39,440.63z"/>
		<path class="st4" d="M1017.55,432.53l-0.13-0.07c-1.13-0.66-1.34-1.51-0.48-1.9l28.59-12.98c0.86-0.39,2.49-0.18,3.62,0.48
			l0.13,0.07c1.13,0.66,1.34,1.51,0.48,1.9l-28.59,12.98C1020.31,433.4,1018.68,433.19,1017.55,432.53z"/>
	</g>
	<g>
		<path class="st11" d="M1021.09,928.47c-35.7-34.01-71.39-68.03-107.09-102.04c39.85-19.87,79.69-39.75,119.54-59.62
			c36,36.38,71.99,72.76,107.99,109.15C1101.39,893.46,1061.24,910.97,1021.09,928.47z"/>
		<path class="st12" d="M1088.28,850.97c-16.41-8.42-24.44-17.42-37.18-32.03c-14.43-16.56-15.59-22.79-15.89-25.16
			c-0.69-5.48,1.03-9.55,2.57-12.1c33.72,33.63,58.87,58.98,69.98,70.28c1.99,2.02,6,6.26,3.99,7.2
			C1109.02,860.45,1096.28,855.07,1088.28,850.97z"/>
		<path class="st12" d="M1028.41,793.71c-3.92,9.01-14.55,13.01-32.01,19.32c-19.79,7.15-30.12,7.31-34.15,7.29
			c-9.32-0.06-17.73-1.41-23.33-2.54c37.21-17.14,65.43-29.9,78.08-35.53c2.26-1.01,7.11-3.03,10.15-1.76
			C1031.29,782.22,1030.32,789.31,1028.41,793.71z"/>
		<path class="st12" d="M1024.76,902.9c4.23-10.21,16.09-14.79,35.55-22.02c22.07-8.2,33.65-8.44,38.17-8.44
			c10.45,0.01,19.91,1.49,26.22,2.73c-41.42,19.59-72.85,34.17-86.94,40.61c-2.52,1.15-7.92,3.46-11.36,2.04
			C1021.73,915.89,1022.69,907.87,1024.76,902.9z"/>
		<path class="st12" d="M953.96,838.3c19.22,8.85,29.42,18.84,45.64,35.05c18.39,18.38,20.66,25.52,21.36,28.25
			c1.64,6.3,0.43,11.1-0.83,14.14c-42.14-37.09-73.61-65.06-87.53-77.54c-2.49-2.23-7.54-6.92-5.51-8.12
			C929.86,828.45,944.59,833.98,953.96,838.3z"/>
		<path class="st12" d="M1025.22,888.88c-18.06-17.84-36.12-35.68-54.18-53.52c19.63-8.9,39.26-17.8,58.89-26.7
			c17.64,17.74,35.27,35.48,52.91,53.21C1063.63,870.88,1044.42,879.88,1025.22,888.88z"/>
		<path class="st4" d="M1035.27,878.2l-0.16-0.1c-1.39-0.86-1.66-2-0.59-2.51l35.2-17.12c1.06-0.52,3.07-0.23,4.46,0.63l0.16,0.1
			c1.39,0.86,1.66,2,0.59,2.51l-35.2,17.12C1038.66,879.35,1036.66,879.07,1035.27,878.2z"/>
	</g>
	<g>
		<path class="st13" d="M721.47,930c-34.25-34.67-68.5-69.34-102.75-104.01c38.23-20.26,76.46-40.51,114.69-60.77
			c34.54,37.08,69.07,74.17,103.61,111.25C798.51,894.32,759.99,912.16,721.47,930z"/>
		<path class="st14" d="M785.93,851.01c-15.75-8.58-23.45-17.76-35.67-32.65c-13.85-16.88-14.96-23.23-15.24-25.65
			c-0.66-5.59,0.99-9.73,2.47-12.34c32.35,34.28,56.48,60.12,67.14,71.64c1.91,2.06,5.76,6.38,3.83,7.34
			C805.83,860.67,793.61,855.19,785.93,851.01z"/>
		<path class="st14" d="M728.49,792.64c-3.76,9.19-13.96,13.26-30.71,19.7c-18.99,7.29-28.89,7.45-32.77,7.43
			c-8.94-0.06-17.01-1.44-22.39-2.59c35.7-17.47,62.78-30.48,74.91-36.22c2.17-1.03,6.82-3.09,9.74-1.79
			C731.26,780.93,730.32,788.16,728.49,792.64z"/>
		<path class="st14" d="M724.99,903.94c4.06-10.4,15.44-15.07,34.11-22.45c21.17-8.36,32.28-8.61,36.63-8.6
			c10.03,0.01,19.11,1.52,25.16,2.79c-39.74,19.96-69.9,34.83-83.41,41.39c-2.42,1.17-7.6,3.53-10.9,2.08
			C722.08,917.18,723.01,909,724.99,903.94z"/>
		<path class="st14" d="M657.06,838.09c18.44,9.02,28.22,19.2,43.79,35.72c17.64,18.74,19.82,26.01,20.5,28.8
			c1.57,6.43,0.41,11.32-0.8,14.42c-40.43-37.81-70.63-66.32-83.98-79.03c-2.39-2.27-7.24-7.05-5.29-8.27
			C633.94,828.05,648.08,833.69,657.06,838.09z"/>
		<path class="st14" d="M725.43,889.65c-17.33-18.18-34.65-36.37-51.98-54.55c18.83-9.07,37.66-18.14,56.5-27.21
			c16.92,18.08,33.84,36.16,50.76,54.24C762.28,871.3,743.85,880.47,725.43,889.65z"/>
		<path class="st4" d="M735.07,878.76l-0.15-0.1c-1.33-0.88-1.59-2.03-0.57-2.56l33.77-17.46c1.02-0.53,2.94-0.24,4.28,0.64
			l0.15,0.1c1.33,0.88,1.59,2.03,0.57,2.56l-33.77,17.46C738.33,879.94,736.41,879.65,735.07,878.76z"/>
	</g>
	<g>
		<path class="st15" d="M1026.98,674.14c-28.99-25.79-57.98-51.57-86.97-77.36c32.36-15.07,64.72-30.13,97.08-45.2
			c29.23,27.58,58.47,55.16,87.7,82.74C1092.19,647.59,1059.58,660.87,1026.98,674.14z"/>
		<path class="st16" d="M1081.55,615.38c-13.33-6.38-19.85-13.21-30.19-24.28c-11.72-12.55-12.66-17.27-12.9-19.07
			c-0.56-4.16,0.84-7.24,2.09-9.18c27.39,25.5,47.81,44.72,56.83,53.28c1.61,1.53,4.87,4.74,3.24,5.46
			C1098.39,622.57,1088.04,618.49,1081.55,615.38z"/>
		<path class="st16" d="M1032.92,571.97c-3.18,6.83-11.82,9.87-25.99,14.65c-16.07,5.42-24.46,5.54-27.73,5.53
			c-7.57-0.04-14.4-1.07-18.95-1.93c30.22-12.99,53.14-22.67,63.41-26.94c1.84-0.76,5.77-2.3,8.25-1.33
			C1035.26,563.26,1034.47,568.64,1032.92,571.97z"/>
		<path class="st16" d="M1029.95,654.75c3.44-7.74,13.07-11.21,28.87-16.69c17.92-6.22,27.33-6.4,31-6.4
			c8.49,0.01,16.17,1.13,21.3,2.07c-33.64,14.85-59.17,25.91-70.61,30.78c-2.05,0.87-6.43,2.63-9.22,1.55
			C1027.49,664.6,1028.28,658.52,1029.95,654.75z"/>
		<path class="st16" d="M972.46,605.78c15.61,6.71,23.89,14.28,37.06,26.57c14.93,13.93,16.78,19.35,17.35,21.42
			c1.33,4.78,0.35,8.42-0.68,10.72c-34.22-28.12-59.78-49.33-71.09-58.78c-2.02-1.69-6.13-5.24-4.47-6.15
			C952.88,598.31,964.85,602.51,972.46,605.78z"/>
		<path class="st16" d="M1030.33,644.12c-14.67-13.52-29.33-27.05-44-40.57c15.94-6.75,31.88-13.49,47.82-20.24
			c14.32,13.45,28.65,26.89,42.97,40.34C1061.52,630.48,1045.93,637.3,1030.33,644.12z"/>
		<path class="st4" d="M1038.49,636.03l-0.13-0.07c-1.13-0.66-1.34-1.51-0.48-1.9l28.59-12.98c0.86-0.39,2.49-0.18,3.62,0.48
			l0.13,0.07c1.13,0.66,1.34,1.51,0.48,1.9l-28.59,12.98C1041.25,636.9,1039.62,636.68,1038.49,636.03z"/>
	</g>
	<g>
		<path class="st17" d="M729.33,683.39c-28.99-25.79-57.98-51.57-86.97-77.36c32.36-15.07,64.72-30.13,97.08-45.2
			c29.23,27.58,58.47,55.16,87.7,82.74C794.54,656.84,761.93,670.12,729.33,683.39z"/>
		<path class="st18" d="M783.89,624.63c-13.33-6.38-19.85-13.21-30.19-24.28c-11.72-12.55-12.66-17.27-12.9-19.07
			c-0.56-4.16,0.84-7.24,2.09-9.18c27.39,25.5,47.81,44.72,56.83,53.28c1.61,1.53,4.87,4.74,3.24,5.46
			C800.74,631.82,790.39,627.74,783.89,624.63z"/>
		<path class="st18" d="M735.26,581.22c-3.18,6.83-11.82,9.87-25.99,14.65c-16.07,5.42-24.46,5.54-27.73,5.53
			c-7.57-0.04-14.4-1.07-18.95-1.93c30.22-12.99,53.14-22.67,63.41-26.94c1.84-0.76,5.77-2.3,8.25-1.33
			C737.61,572.51,736.82,577.89,735.26,581.22z"/>
		<path class="st18" d="M732.3,664c3.44-7.74,13.07-11.21,28.87-16.69c17.92-6.22,27.33-6.4,31-6.4c8.49,0.01,16.17,1.13,21.3,2.07
			c-33.64,14.85-59.17,25.91-70.61,30.78c-2.05,0.87-6.43,2.63-9.22,1.55C729.84,673.85,730.62,667.77,732.3,664z"/>
		<path class="st18" d="M674.8,615.03c15.61,6.71,23.89,14.28,37.06,26.57c14.93,13.93,16.78,19.35,17.35,21.42
			c1.33,4.78,0.35,8.42-0.68,10.72c-34.22-28.12-59.78-49.33-71.09-58.78c-2.02-1.69-6.13-5.24-4.47-6.15
			C655.23,607.56,667.2,611.76,674.8,615.03z"/>
		<path class="st18" d="M732.67,653.37c-14.67-13.52-29.33-27.05-44-40.57c15.94-6.75,31.88-13.49,47.82-20.24
			c14.32,13.45,28.65,26.89,42.97,40.34C763.87,639.72,748.27,646.55,732.67,653.37z"/>
		<path class="st4" d="M740.84,645.28l-0.13-0.07c-1.13-0.66-1.34-1.51-0.48-1.9l28.59-12.98c0.86-0.39,2.49-0.18,3.62,0.48
			l0.13,0.07c1.13,0.66,1.34,1.51,0.48,1.9l-28.59,12.98C743.6,646.15,741.97,645.93,740.84,645.28z"/>
	</g>
	<path class="st19" d="M1224.6,75.22H528.4c-1.87,0-3.4-1.53-3.4-3.4V47.4c0-1.87,1.53-3.4,3.4-3.4h696.2c1.87,0,3.4,1.53,3.4,3.4
		v24.41C1228,73.69,1226.47,75.22,1224.6,75.22z"/>
	<rect x="1148.73" y="75.22" class="st19" width="53.85" height="875.25"/>
	<rect x="550.43" y="75.22" class="st19" width="52.35" height="875.25"/>
	<rect x="602.78" y="284.49" class="st19" width="545.95" height="31.22"/>
	<rect x="602.78" y="481.05" class="st19" width="551.93" height="31.22"/>
	<rect x="595.3" y="698.42" class="st19" width="559.41" height="28.91"/>
	<rect x="535.47" y="950.47" class="st19" width="692.53" height="55.5"/>
	<ellipse class="st20" cx="598.29" cy="1030.25" rx="52.35" ry="27.75"/>
	<ellipse class="st20" cx="1147.23" cy="1030.25" rx="47.86" ry="27.75"/>
	<rect x="860.05" y="44" class="st19" width="38.89" height="934.22"/>
</g>
</svg>
