<?xml version="1.0" encoding="utf-8"?>
<!-- Generator: Adobe Illustrator 23.0.5, SVG Export Plug-In . SVG Version: 6.00 Build 0)  -->
<svg version="1.1" id="圖層_1" xmlns="http://www.w3.org/2000/svg" xmlns:xlink="http://www.w3.org/1999/xlink" x="0px" y="0px"
	 viewBox="0 0 1920 1080" style="enable-background:new 0 0 1920 1080;" xml:space="preserve">
<style type="text/css">
	.st0{fill:#31343F;}
	.st1{fill:#63636D;}
	.st2{fill:#CCBEB6;}
	.st3{fill:#488298;}
	.st4{fill:#EBDBCE;}
	.st5{fill:#F06C53;stroke:#A8412D;stroke-miterlimit:10;}
	.st6{fill:#F57B57;}
	.st7{fill:#322E2E;}
	.st8{fill:#CABDAF;}
	.st9{fill:#67B4CC;}
	.st10{fill:#83C5CE;}
	.st11{fill:#B5B5B5;}
	.st12{fill:#F47D63;}
	.st13{fill:#FAB68F;}
	.st14{fill:#939190;}
	.st15{fill:#EFDA5E;}
	.st16{fill:#F99B76;}
	.st17{fill:#4A707C;}
	.st18{fill:#E7E1DE;}
	.st19{fill:#382C28;}
	.st20{fill:#F2623B;}
	.st21{fill:#E3D2C7;}
	.st22{fill:#F5F4EF;}
	.st23{fill:#E6D9C9;}
	.st24{fill:#658388;}
	.st25{fill:#223C53;}
	.st26{fill:#473A44;}
	.st27{fill:#5C838A;}
	.st28{fill:#9A373E;}
	.st29{fill:#CFD9DB;}
	.st30{fill:#FFFFFF;}
	.st31{fill:#F1775F;}
</style>
<g>
	<path class="st0" d="M1575.06,390.82c-116.5-22.89-233.01-45.78-349.51-68.67c3.08-11.1,6.17-22.2,9.25-33.29
		c71.66,8.1,147.98,19.23,228.21,34.33c86.11,16.21,166.43,35.06,240.54,55.14C1660.72,382.49,1617.89,386.66,1575.06,390.82z"/>
	<path class="st1" d="M1509.27,1065c-82.92-3.12-165.85-6.24-248.77-9.36c3.08-242.07,6.17-484.13,9.25-726.2
		c81.55,14.57,163.1,29.13,244.66,43.7C1512.69,603.75,1510.98,834.38,1509.27,1065z"/>
	<rect x="1216.3" y="132.8" class="st2" width="9.25" height="52.02"/>
	<rect x="1042.57" y="143.2" class="st2" width="9.25" height="52.02"/>
	<path class="st0" d="M1234.8,286.78c-368.01,27.4-736.02,54.79-1104.04,82.19c48.31,4.16,96.63,8.32,144.94,12.48
		c317.3-21.85,634.6-43.7,951.9-65.55C1230,306.2,1232.4,296.49,1234.8,286.78z"/>
	<path class="st2" d="M1184.43,1055.64H334.3V381.45c283.07-22.54,566.13-45.08,849.2-67.63
		C1183.81,561.1,1184.12,808.37,1184.43,1055.64z"/>
	<path class="st3" d="M554.28,796.58H341.5V476.13c70.24-4.86,140.49-9.71,210.73-14.57C552.91,573.24,553.6,684.91,554.28,796.58z"
		/>
	<rect x="346.64" y="831.95" class="st3" width="203.54" height="183.11"/>
	<rect x="982.95" y="434.52" class="st3" width="119.24" height="350.62"/>
	<rect x="982.95" y="826.75" class="st3" width="113.08" height="199.76"/>
	<g>
		<path class="st4" d="M923.33,1046.27c-99.19-2.06-198.37-4.12-297.56-6.18c-2.24-189.03-4.48-378.06-6.72-567.08
			c100.79-7.28,201.57-14.57,302.36-21.85C922.05,649.53,922.69,847.9,923.33,1046.27z"/>
		<g>
			<path class="st3" d="M883.23,785.13H660.17c-0.34-92.94-0.69-185.89-1.03-278.83c75.38-4.16,150.77-8.32,226.15-12.48
				C884.6,590.92,883.92,688.03,883.23,785.13z"/>
			<rect x="659.14" y="783.05" class="st5" width="226.15" height="26.01"/>
			<rect x="659.14" y="808.02" class="st6" width="226.15" height="206"/>
		</g>
	</g>
	<g>
		<path class="st7" d="M1288.25,147.36c-108.96,2.43-217.93,4.86-326.89,7.28c-0.69-31.91-1.37-63.81-2.06-95.72
			c108.28-7.98,216.56-15.95,324.84-23.93C1285.51,72.45,1286.88,109.91,1288.25,147.36z"/>
		<path class="st8" d="M1279,141.12c-103.82,3.12-207.65,6.24-311.47,9.36c0-29.13,0-58.26,0-87.39
			c102.8-7.28,205.59-14.57,308.39-21.85C1276.95,74.54,1277.97,107.83,1279,141.12z"/>
	</g>
	<path class="st9" d="M755.72,432.61c-18.78,0.25-37.56,0.5-56.34,0.75c-4.97,0.07-9.39-3.18-10.87-7.98
		c-4.59-14.87-9.19-29.75-13.78-44.62c-2.18-7.05,2.76-14.3,10.05-14.75c20.38-1.24,40.75-2.48,61.13-3.73
		c5.64-0.34,10.65,3.6,11.71,9.22c3,15.87,5.99,31.73,8.99,47.6C767.93,426.06,762.71,432.52,755.72,432.61z"/>
	<path class="st10" d="M739.14,423.38c-11.54-0.31-23.09-0.62-34.63-0.93c-9.1-0.25-16.82-6.83-18.61-15.86
		c-0.97-4.88-1.93-9.77-2.9-14.65c-2.3-11.64,6-22.69,17.7-23.56c10.74-0.8,21.49-1.6,32.23-2.4c9.13-0.68,17.51,5.16,20.12,14.05
		c1.77,6,3.53,11.99,5.3,17.99C762.15,410.88,752.41,423.74,739.14,423.38z"/>
	<rect x="1118.64" y="505.26" class="st11" width="62.71" height="123.81"/>
	<rect x="1123.78" y="511.51" class="st9" width="51.4" height="19.77"/>
	<rect x="1123.78" y="540.64" class="st9" width="51.4" height="80.11"/>
	<rect x="1123.78" y="646.76" class="st12" width="57.57" height="101.96"/>
	<rect x="1123.78" y="677.97" class="st13" width="57.57" height="28.09"/>
	<rect x="1115.56" y="451.16" class="st14" width="65.79" height="42.66"/>
	<rect x="1123.78" y="434.52" class="st15" width="42.15" height="16.65"/>
	<path class="st16" d="M1232.74,208.75C843.83,242.73,454.91,276.72,66,310.71c6.85,19.77,13.71,39.54,20.56,59.3
		c383.43-27.74,766.86-55.49,1150.3-83.23C1235.48,260.77,1234.11,234.76,1232.74,208.75z"/>
	<path class="st17" d="M1229.66,177.54c-306.33,25.66-612.67,51.33-919,76.99C229.1,273.25,147.55,291.98,66,310.71
		c389.6-30.87,779.2-61.73,1168.8-92.6C1233.09,204.59,1231.37,191.06,1229.66,177.54z"/>
	<rect x="500.83" y="164.01" class="st2" width="19.53" height="80.11"/>
	<path class="st18" d="M506.4,168.89c-2.51-0.14-5.03-0.28-7.54-0.42c-2.91-0.16-5.18-2.63-5.14-5.58c0.3-19.98,0.6-39.96,0.9-59.94
		c0.03-2.1,1.24-4,3.12-4.9c2.22-1.06,4.43-2.11,6.65-3.17c3.61-1.72,7.76,0.95,7.76,4.98v63.53
		C512.14,166.55,509.51,169.06,506.4,168.89z"/>
	<path class="st19" d="M549.07,168.92c-10.65-0.5-21.31-1-31.96-1.5c-3.37-0.16-6.04-2.95-6.09-6.36
		c-0.27-19.1-0.55-38.21-0.82-57.31c-0.06-4.24,3.87-7.39,7.93-6.36l36.11,9.14c3,0.76,5.03,3.58,4.82,6.71
		c-1.11,16.56-2.22,33.12-3.33,49.68C555.5,166.41,552.54,169.08,549.07,168.92z"/>
	<path class="st20" d="M549.14,164.01c-10.62-1.04-21.24-2.08-31.87-3.12v-53.06c11.99,1.73,23.99,3.47,35.98,5.2
		C551.89,130.02,550.52,147.02,549.14,164.01z"/>
	<rect x="279.82" y="383.54" class="st21" width="32.89" height="664.82"/>
	<rect x="312.71" y="383.54" class="st22" width="21.59" height="664.82"/>
	<rect x="1181.34" y="313.83" class="st23" width="37.01" height="741.81"/>
	<path class="st24" d="M1260.5,1055.64c-14.05,0-28.1,0-42.15,0c0-247.27,0-494.54,0-741.81c17.13,5.2,34.27,10.4,51.4,15.61
		C1266.67,571.5,1263.58,813.57,1260.5,1055.64z"/>
	<path class="st25" d="M1509.27,790.33c-79.84-3.47-159.68-6.94-239.52-10.4c1.71-127.28,3.43-254.55,5.14-381.83
		c79.84,13.18,159.68,26.36,239.52,39.54C1512.69,555.2,1510.98,672.77,1509.27,790.33z"/>
	<path class="st26" d="M1538.05,1061.88c-9.59,1.04-19.19,2.08-28.78,3.12c1.71-231.66,3.43-463.33,5.14-694.99h23.64V1061.88z"/>
	<path class="st27" d="M1575.06,1065h-38.03c0-231.66,0-463.33,0-694.99c10.62,5.9,21.24,11.79,31.87,17.69
		C1570.94,613.46,1573,839.23,1575.06,1065z"/>
	<path class="st28" d="M1703.55,378.33c-77.06-20.79-160.11-40.3-248.77-57.22c-76.06-14.52-148.88-25.74-217.93-34.33
		c-1.37-28.44-2.74-56.88-4.11-85.31c86.89,22.46,157.77,35.72,206.62,43.7c55.91,9.13,93.62,13.07,149.06,29.13
		c57.66,16.71,102.7,37.32,131.58,52.02C1714.52,343.65,1709.04,360.99,1703.55,378.33z"/>
	<path class="st17" d="M1588.42,274.29c-118.56-24.28-237.12-48.55-355.68-72.83c-1.03-7.98-2.06-15.95-3.08-23.93
		c55.17,12.14,110.34,24.28,165.5,36.41c30.77,6.43,64.23,14.87,99.71,26.01C1529.07,250.7,1560.31,262.43,1588.42,274.29z"/>
	<ellipse class="st29" cx="880.15" cy="791.37" rx="27.76" ry="28.09"/>
	<path class="st30" d="M803.29,631.15h-76.54c-4.41,0-7.99-3.58-7.99-7.99v-56.85c0-4.41,3.58-7.99,7.99-7.99h76.54
		c4.41,0,7.99,3.58,7.99,7.99v56.85C811.28,627.57,807.7,631.15,803.29,631.15z"/>
	<path class="st31" d="M802.48,628.55h-73.9c-4.1,0-7.42-3.32-7.42-7.42v-52.79c0-4.1,3.32-7.42,7.42-7.42h73.9
		c4.1,0,7.42,3.32,7.42,7.42v52.79C809.9,625.23,806.58,628.55,802.48,628.55z"/>
</g>
</svg>
