<?xml version="1.0" encoding="utf-8"?>
<!-- Generator: Adobe Illustrator 23.0.5, SVG Export Plug-In . SVG Version: 6.00 Build 0)  -->
<svg version="1.1" id="圖層_1" xmlns="http://www.w3.org/2000/svg" xmlns:xlink="http://www.w3.org/1999/xlink" x="0px" y="0px"
	 viewBox="0 0 1920 1080" style="enable-background:new 0 0 1920 1080;" xml:space="preserve">
<style type="text/css">
	.st0{fill:#ED5B4B;}
	.st1{fill:#FFFFFF;}
	.st2{fill:#770101;}
	.st3{fill:#14152B;}
	.st4{fill:#F2F5F0;}
	.st5{fill:#FBEDAF;}
	.st6{fill:#717077;}
</style>
<g>
	<g>
		<path class="st0" d="M687.14,922.73c6.28,12.19,12.63,28.77,6.24,40.84c-3.15,5.95-8.55,8.67-13.64,11.08
			c-18.88,8.95-37.76,17.89-56.64,26.84c-6.04,2.86-12.22,5.83-17.2,11.3c-4.98,5.48-8.62,14.05-7.74,22.7
			c55.31,11.41,111.81,11.95,167.23,1.61c10.56-1.97,21.76-4.78,29.5-14.76c2.9-3.74,5.25-8.66,5.4-14.1
			c0.3-10.69-7.33-18.06-13.54-24.6c-12.14-12.78-21.76-29.99-27.57-49.36c-0.98-3.25-2.02-6.84-4.31-8.47
			c-1.49-1.06-3.24-1.08-4.92-1.07c-18.79,0.07-37.58,0.15-56.37,0.22"/>
	</g>
	<g>
		<path class="st0" d="M1130.52,932.27c-6.28,12.19-12.63,28.77-6.24,40.84c3.15,5.95,8.55,8.67,13.64,11.08
			c18.88,8.95,37.76,17.89,56.64,26.84c6.04,2.86,12.22,5.83,17.2,11.3s8.62,14.05,7.74,22.7c-55.31,11.41-111.81,11.95-167.23,1.61
			c-10.56-1.97-21.76-4.78-29.5-14.76c-2.9-3.74-5.25-8.66-5.4-14.1c-0.3-10.69,7.33-18.06,13.54-24.6
			c12.14-12.78,21.76-29.99,27.57-49.36c0.98-3.25,2.02-6.84,4.31-8.47c1.49-1.06,3.24-1.08,4.92-1.07
			c18.79,0.07,37.58,0.15,56.37,0.22"/>
	</g>
	<path class="st0" d="M1129.15,944.61c-67.66,12.81-147.1,21.44-235.87,19.07c-74.55-1.99-142-11.37-200.93-23.84
		c-42.25-79.56-53.81-152.73-57.66-190.73c-8.83-87.29,5.3-164.71,10.48-193.11c5.51-30.17,8.89-37.56,19.22-92.98
		c10.94-58.72,12.11-77.08,20.97-116.82c5.27-23.65,13.89-57.64,27.96-97.75c45.18-19.34,113.54-40.79,197.43-38.15
		c75.58,2.38,137.36,23.48,179.96,42.91c11.26,28.82,27.85,72.17,47.17,126.36c15.13,42.41,18.94,55,20.97,61.99
		c14.2,48.84,20.21,94.1,24.46,154.96c11.48,164.31,17.42,249.29-22.71,312.31C1149.1,926.9,1136.97,938.22,1129.15,944.61z"/>
	<g>
		
			<ellipse transform="matrix(0.7928 -0.6095 0.6095 0.7928 -82.1579 569.9529)" class="st1" cx="797.18" cy="405.81" rx="48.58" ry="56.59"/>
		<ellipse cx="798.93" cy="410.58" rx="12.23" ry="16.69"/>
	</g>
	<g>
		
			<ellipse transform="matrix(0.6095 -0.7928 0.7928 0.6095 79.6507 973.3218)" class="st1" cx="1027.81" cy="405.81" rx="56.59" ry="48.58"/>
		<ellipse cx="1026.06" cy="410.58" rx="12.23" ry="16.69"/>
	</g>
	<polygon class="st2" points="852.59,381.02 757.66,348.69 762.73,320.94 857.67,353.26 	"/>
	<polygon class="st2" points="974.15,383.4 1069.08,351.08 1064,323.32 969.07,355.64 	"/>
	<path class="st3" d="M1074.99,701.44c-111.24,1.59-222.48,3.18-333.72,4.77c-10.58-10.63-27.64-31.14-38.44-64.37
		c-24.35-74.92,4.79-147.84,8.74-157.35c132.79,2.38,265.58,4.77,398.36,7.15c4.63,19.66,19.37,90.49-6.99,159.73
		C1094.6,673.29,1084.18,689.68,1074.99,701.44z"/>
	<path class="st4" d="M769.22,591.77c11.28-37.13,22.56-74.26,33.83-111.39l-101.15,4.81C724.35,520.72,746.78,556.24,769.22,591.77
		z"/>
	<path class="st4" d="M846.1,539.32c18.27-18.85,36.53-37.7,54.8-56.55l-101.15,4.81C815.2,504.82,830.65,522.07,846.1,539.32z"/>
	<path class="st4" d="M978.89,546.47c13.61-18.85,27.21-37.7,40.82-56.55c-29.33-0.22-58.66-0.44-88-0.67
		C947.44,508.33,963.16,527.4,978.89,546.47z"/>
	<path class="st4" d="M1045.28,587c20.6-34.74,41.19-69.49,61.79-104.23c-25.26,4.55-50.51,9.09-75.77,13.64
		C1035.96,526.6,1040.62,556.8,1045.28,587z"/>
	<path class="st4" d="M797.18,644.22c-2.99-0.31-23.05-1.96-38.44,19.07c-12.36,16.89-13.74,37.53-13.98,42.91
		c19.22-0.79,38.44-1.59,57.66-2.38C800.67,683.95,798.93,664.09,797.18,644.22z"/>
	<path class="st4" d="M849.6,639.45c-4.41,3.97-12.98,12.85-19.22,28.61c-6.82,17.22-7.16,33.29-6.99,40.53
		c12.23-1.59,24.46-3.18,36.69-4.77C856.58,682.36,853.09,660.91,849.6,639.45z"/>
	<path class="st4" d="M996.36,644.22c-6.81-0.76-16.29,22.62-20.97,57.22c11.65,0.79,23.3,1.59,34.94,2.38
		C1009.58,669.73,1003.11,644.97,996.36,644.22z"/>
	<path class="st4" d="M1020.82,629.91c-0.56,25.21-1.12,50.42-1.68,75.63c17.45-1.37,34.9-2.74,52.35-4.11
		c-3.26-10.5-9.48-26.93-20.97-42.91C1039.57,643.28,1028.26,634.62,1020.82,629.91z"/>
	<path class="st5" d="M1125.65,43.43c10.78-14.97,140.15,81.94,127.55,171.65c-5.43,38.69-35.8,65.8-66.39,92.98
		c-28.27,25.11-54.9,38.19-73.38,45.3c-9.32-34.17-18.64-68.34-27.96-102.52c37.21-6.69,73.6-21.91,83.87-57.22
		C1186.8,133.57,1117.08,55.34,1125.65,43.43z"/>
	<path class="st5" d="M691.46,33.89c-10.78-14.97-140.15,81.94-127.55,171.65c5.43,38.69,35.8,65.8,66.39,92.98
		c28.27,25.11,54.9,38.19,73.38,45.3c9.32-34.17,18.64-68.34,27.96-102.52c-37.21-6.69-73.6-21.91-83.87-57.22
		C630.31,124.04,700.03,45.8,691.46,33.89z"/>
	<path class="st5" d="M1080.23,951.76c-3.76,9.84-35.76,10.67-99.59,11.92c-40.48,0.79-70.18,0.04-71.64,0
		c-148.15-3.96-155.52-5.03-159-14.3c-14.7-39.16,58.13-176.05,152.01-183.57C1007.51,757.35,1093.93,915.92,1080.23,951.76z"/>
	<path class="st6" d="M939.59,489.25h-68.17c-2.39,0-4.35-1.96-4.35-4.35v-41.36c0-2.39,1.96-4.35,4.35-4.35h68.17
		c2.39,0,4.35,1.96,4.35,4.35v41.36C943.94,487.29,941.99,489.25,939.59,489.25z"/>
	<g>
		<path class="st0" d="M458.22,854.02c-3.41-3.81-8.61-10.74-12.23-21.46c-6.93-20.51-2.99-39.9-1.75-45.3
			c24.15-131.33,64.34-191.34,97.84-221.72c19.11-17.32,47.02-34.95,80.37-78.67c26.31-34.49,43.58-68.92,54.16-92.98
			c-5.82,47.68-11.65,95.36-17.47,143.04c-18.68,16.33-33.98,31.24-45.43,42.91c-34.2,34.87-47.31,54.38-55.91,78.67
			c-7.75,21.9-6.5,32.62-5.24,38.15c3.15,13.85,11.94,19.62,27.96,33.38c29.25,25.12,44.84,38.51,43.68,47.68
			c-1.59,12.52-33.48,10.02-68.14,19.07C513.58,807.9,480.71,832.76,458.22,854.02z"/>
		<g>
			<path class="st0" d="M454.7,840.86c23.62,38.86,35.43,58.28,46.02,66.15c2.42,1.79,39.65,23.99,64.74,11.86
				c5.14-2.48,10.91-8.18,9.69-15.43c-0.91-5.4-5.24-8.11-9.05-10.04c-7.4-3.76-14.79-7.51-22.19-11.27c-3-1.52-6.59-4.25-6.27-8.6
				c0.31-4.18,3.99-5.98,6-9.17c5.89-9.34-4.51-23.14-2.8-35.24c1.08-7.67,6.8-12.43,12.3-14.61c9.83-3.89,20.72-2.54,29.86,3.71
				c10.98,7.51,20.85,22.14,33.01,19.83c10.94-2.08,18.16-18.94,16.48-33.84c-1.68-14.9-10.32-26.99-20.28-33.5
				c-9.97-6.51-21.19-8.3-32.19-9.62c-24.16-2.88-49.62-3.53-71.33,11.23c-9.48,6.45-5.51,6.67-24.09,22.18
				c-20.31,16.95-33.4,23.65-33.51,35.43C451.05,834.75,453.19,838.37,454.7,840.86z"/>
			<g>
				<path class="st0" d="M453.41,841.62c6.91,11.36,13.78,22.76,20.9,33.98c4.74,7.47,9.57,14.92,15.05,21.87
					c3.19,4.05,6.73,8.32,11.09,11.17c5.16,3.38,10.94,6,16.64,8.33c9.22,3.78,19.07,6.59,29.07,6.97
					c9.93,0.38,21.96-1.83,28.04-10.52c3.33-4.77,3.57-11.21-0.09-15.87c-1.63-2.08-3.84-3.61-6.15-4.86
					c-3.28-1.78-6.65-3.4-9.97-5.08c-3.55-1.8-7.1-3.61-10.65-5.41c-2.49-1.26-5.32-2.41-7.03-4.73c-1.65-2.23-1.43-4.98,0.19-7.14
					c1.57-2.09,3.69-3.66,4.92-6.02c2.51-4.84,1.5-10.47,0.22-15.51c-1.41-5.53-3.49-11.08-3.48-16.85
					c0.01-5.83,2.92-10.95,7.8-14.1c5-3.23,11.3-4.4,17.17-3.9c6.54,0.55,12.56,3.42,17.67,7.45c4.54,3.59,8.58,7.75,13.08,11.38
					c4.11,3.32,8.72,6.4,14.11,6.95c4.8,0.49,9.31-1.51,12.69-4.84c3.86-3.79,6.33-8.91,7.83-14.05c1.64-5.63,2.15-11.63,1.4-17.45
					c-1.53-11.91-7.56-23.24-16.83-30.93c-10.55-8.75-24.02-11.31-37.26-12.89c-13.08-1.55-26.34-2.41-39.44-0.59
					c-12.38,1.71-24.44,6.05-34.53,13.53c-4.32,3.2-7.55,7.45-11.37,11.19c-9.05,8.87-19.3,16.39-29.18,24.29
					c-6.17,4.93-14.02,10.84-15.44,19.17C448.96,832.4,450.72,837.2,453.41,841.62c1,1.65,3.6,0.14,2.59-1.51
					c-2.51-4.14-4.26-8.74-2.93-13.6c0.93-3.36,3.13-6.18,5.52-8.65c3.44-3.55,7.37-6.61,11.25-9.66c5.3-4.17,10.64-8.3,15.82-12.62
					c4.12-3.44,8.19-6.96,11.97-10.78c1.86-1.88,3.58-3.88,5.39-5.81c1.64-1.75,3.41-3.24,5.32-4.59
					c5.04-3.57,10.56-6.46,16.37-8.55c12.14-4.37,25.15-5.3,37.95-4.73c6.37,0.28,12.72,0.92,19.05,1.7
					c6.69,0.83,13.4,1.97,19.77,4.26c11.32,4.08,20.38,12.27,25.52,23.16c5.02,10.62,5.77,23.28,1.05,34.16
					c-1.91,4.39-4.81,8.79-9.15,11.08c-4.19,2.21-8.96,1.38-12.98-0.78c-10.18-5.46-16.76-15.85-27.38-20.71
					c-10.49-4.8-24.52-4.44-33.31,3.76c-4.26,3.97-6.31,9.5-6.06,15.28c0.25,5.69,2.17,11.11,3.57,16.58
					c1.19,4.66,2.33,10.19-0.66,14.43c-1.47,2.08-3.63,3.6-4.86,5.86c-1.32,2.42-1.43,5.33-0.25,7.83c1.1,2.31,3.2,4.04,5.38,5.28
					c3.14,1.78,6.46,3.3,9.68,4.94c3.4,1.73,6.81,3.46,10.21,5.19c2.6,1.32,5.41,2.53,7.67,4.41c4.48,3.72,4.98,9.67,1.69,14.37
					c-2.92,4.16-7.72,6.44-12.5,7.73c-9.64,2.6-19.99,1.18-29.46-1.48c-7.96-2.24-15.66-5.45-22.94-9.36
					c-1.69-0.91-3.42-1.82-5-2.91c-1.57-1.08-3.36-2.78-4.87-4.34c-4.81-4.96-8.83-10.68-12.7-16.38
					c-6.06-8.95-11.72-18.17-17.37-27.38c-3.6-5.88-7.18-11.77-10.76-17.67C455,838.46,452.4,839.96,453.41,841.62z"/>
			</g>
		</g>
	</g>
	<g>
		<path class="st0" d="M1362.78,854.02c3.41-3.81,8.61-10.74,12.23-21.46c6.93-20.51,2.99-39.9,1.75-45.3
			c-24.16-131.33-64.34-191.34-97.84-221.72c-19.11-17.32-47.02-34.95-80.37-78.67c-26.31-34.49-43.58-68.92-54.16-92.98
			c5.82,47.68,11.65,95.36,17.47,143.04c18.68,16.33,33.98,31.24,45.43,42.91c34.2,34.87,47.31,54.38,55.91,78.67
			c7.75,21.9,6.5,32.62,5.24,38.15c-3.15,13.85-11.94,19.62-27.96,33.38c-29.25,25.12-44.84,38.51-43.68,47.68
			c1.59,12.52,33.48,10.02,68.14,19.07C1307.42,807.9,1340.29,832.76,1362.78,854.02z"/>
		<g>
			<path class="st0" d="M1366.3,840.86c-23.62,38.86-35.43,58.28-46.02,66.15c-2.42,1.79-39.65,23.99-64.74,11.86
				c-5.14-2.48-10.91-8.18-9.69-15.43c0.91-5.4,5.24-8.11,9.05-10.04c7.4-3.76,14.79-7.51,22.19-11.27c3-1.52,6.59-4.25,6.27-8.6
				c-0.31-4.18-3.99-5.98-6-9.17c-5.89-9.34,4.51-23.14,2.8-35.24c-1.08-7.67-6.8-12.43-12.3-14.61
				c-9.83-3.89-20.72-2.54-29.86,3.71c-10.98,7.51-20.85,22.14-33.01,19.83c-10.94-2.08-18.16-18.94-16.48-33.84
				c1.68-14.9,10.32-26.99,20.28-33.5c9.97-6.51,21.19-8.3,32.19-9.62c24.16-2.88,49.62-3.53,71.33,11.23
				c9.48,6.45,5.51,6.67,24.09,22.18c20.31,16.95,33.4,23.65,33.51,35.43C1369.95,834.75,1367.81,838.37,1366.3,840.86z"/>
			<g>
				<path class="st0" d="M1365,840.1c-6.76,11.12-13.48,22.26-20.44,33.26c-4.63,7.31-9.32,14.63-14.64,21.47
					c-1.86,2.39-3.81,4.73-5.94,6.9c-1.49,1.52-3.23,3.16-4.78,4.21c-4.63,3.13-9.92,5.54-15.05,7.71
					c-8.87,3.74-18.36,6.64-28.01,7.23c-4.89,0.3-9.82-0.01-14.55-1.33c-4.89-1.37-9.78-3.81-12.58-8.23
					c-3.07-4.86-2.03-10.7,2.55-14.16c2.32-1.76,5.07-2.95,7.65-4.26c3.48-1.77,6.95-3.53,10.43-5.3c3.17-1.61,6.53-3.06,9.56-4.92
					c2.19-1.35,4.18-3.18,5.13-5.62c0.98-2.53,0.6-5.44-0.86-7.71c-1.36-2.11-3.47-3.61-4.81-5.73c-2.79-4.41-1.44-10.03-0.21-14.72
					c1.43-5.44,3.32-10.9,3.4-16.59c0.08-5.65-2.12-10.99-6.33-14.79c-4.28-3.86-9.92-5.84-15.59-6.48
					c-6.25-0.71-12.61,0.57-18.24,3.31c-5.28,2.58-9.69,6.57-14.02,10.48c-6.59,5.97-16.41,15.95-26.07,10.38
					c-4.2-2.43-7.04-6.87-8.85-11.26c-2.18-5.27-3.17-11.05-2.97-16.75c0.41-11.79,6.02-23.32,14.7-31.24
					c9.66-8.82,22.62-11.64,35.23-13.19c12.73-1.57,25.68-2.56,38.47-1.09c12.48,1.44,24.57,5.6,34.82,12.96
					c4.01,2.88,7.09,6.88,10.62,10.41c8.61,8.62,18.43,15.97,27.98,23.5c3.87,3.05,7.79,6.12,11.18,9.7
					c2.34,2.48,4.44,5.31,5.26,8.68C1369.19,831.65,1367.43,836.1,1365,840.1c-1,1.65,1.59,3.16,2.59,1.51
					c2.75-4.54,4.54-9.52,3.47-14.88c-0.72-3.64-2.8-6.82-5.21-9.57c-3.17-3.61-6.97-6.64-10.71-9.63
					c-5.26-4.18-10.6-8.26-15.79-12.53c-4.53-3.73-9.01-7.54-13.19-11.67c-2.01-1.99-3.87-4.11-5.79-6.19
					c-5.79-6.28-13.86-10.59-21.72-13.63c-12.27-4.73-25.6-5.93-38.66-5.49c-6.5,0.22-12.98,0.84-19.43,1.61
					c-6.81,0.82-13.65,1.82-20.2,3.96c-11.81,3.87-21.65,11.61-27.66,22.55c-5.9,10.75-7.65,23.59-3.99,35.37
					c2.88,9.29,9.98,19.61,21.01,18.1c5.33-0.73,9.91-3.98,13.96-7.32c4.45-3.67,8.49-7.84,13.07-11.35
					c5.2-3.99,11.33-6.7,17.93-7.09c5.84-0.34,12.06,0.97,16.92,4.33c4.83,3.33,7.41,8.61,7.24,14.45
					c-0.17,5.77-2.29,11.28-3.65,16.83c-1.23,5.01-2.07,10.69,0.7,15.36c1.34,2.27,3.56,3.8,4.97,6c1.44,2.24,1.27,4.95-0.46,6.98
					c-1.96,2.31-4.99,3.47-7.63,4.81c-3.55,1.8-7.1,3.61-10.65,5.41c-3.21,1.63-6.51,3.16-9.64,4.94c-2.22,1.26-4.29,2.8-5.83,4.85
					c-3.64,4.86-2.98,11.44,0.56,16.14c3.24,4.29,8.03,6.84,13.11,8.33c9.94,2.92,20.73,1.69,30.59-0.93
					c8.4-2.23,16.54-5.58,24.21-9.64c1.87-0.99,3.77-2,5.53-3.18c1.89-1.27,3.6-2.86,5.2-4.47c4.99-5.03,9.14-10.9,13.13-16.74
					c6.17-9.04,11.9-18.39,17.62-27.72c3.68-6,7.33-12.01,10.98-18.02C1368.6,839.96,1366,838.46,1365,840.1z"/>
			</g>
		</g>
	</g>
	<path class="st5" d="M645.85,840.59l-26.04-60.88c-0.98-2.29-4.17-2.43-5.35-0.24l-21.97,40.82c-0.89,1.65-0.05,3.69,1.73,4.24
		L645.85,840.59z"/>
	<path class="st5" d="M1174.3,840.59l26.04-60.88c0.98-2.29,4.17-2.43,5.35-0.24l21.97,40.82c0.89,1.65,0.05,3.69-1.73,4.24
		L1174.3,840.59z"/>
	<path class="st5" d="M571.85,1029.98l43.25,5.23c1.38,0.17,2.54-1.03,2.33-2.4l-4.42-29.3c-0.24-1.56-2.05-2.32-3.32-1.38
		L571.85,1029.98z"/>
	<path class="st5" d="M1240.87,1041.9l-43.25,5.23c-1.38,0.17-2.54-1.03-2.33-2.4l4.42-29.3c0.24-1.56,2.05-2.32,3.32-1.38
		L1240.87,1041.9z"/>
</g>
</svg>
