<?xml version="1.0" encoding="utf-8"?>
<!-- Generator: Adobe Illustrator 23.0.5, SVG Export Plug-In . SVG Version: 6.00 Build 0)  -->
<svg version="1.1" id="圖層_1" xmlns="http://www.w3.org/2000/svg" xmlns:xlink="http://www.w3.org/1999/xlink" x="0px" y="0px"
	 viewBox="0 0 1920 1080" style="enable-background:new 0 0 1920 1080;" xml:space="preserve">
<style type="text/css">
	.st0{fill:#2B2135;}
	.st1{fill:#010101;stroke:#3D3D3B;stroke-miterlimit:10;}
	.st2{fill:#84B866;}
	.st3{fill:#5D7F46;}
	.st4{fill:#010101;}
	.st5{fill:#372D31;}
	.st6{fill:#87B761;}
	.st7{fill:#1A2915;}
	.st8{fill:#F5FEED;stroke:#0D180B;stroke-miterlimit:10;}
	.st9{fill:#000200;}
	.st10{fill:#DBEF91;}
	.st11{fill:#0E6B3B;}
	.st12{fill:#001A09;}
	.st13{fill:#0D180B;}
	.st14{fill:#343635;}
	.st15{fill:#34302F;}
	.st16{fill:#D9A251;}
	.st17{fill:#BB8A55;}
	.st18{fill:#F4EE31;stroke:#47361E;stroke-miterlimit:10;}
	.st19{fill:#C17237;stroke:#47361E;stroke-miterlimit:10;}
	.st20{fill:#874D26;stroke:#47361E;stroke-miterlimit:10;}
	.st21{fill:#C17237;}
	.st22{fill:#47361E;}
	.st23{fill:#F4EE31;stroke:#47361E;stroke-width:2;stroke-miterlimit:10;}
	.st24{fill:#030003;}
	.st25{fill:#050003;}
	.st26{fill:#311E33;}
	.st27{fill:#060006;}
	.st28{fill:#6D4C63;}
	.st29{fill:#311E33;stroke:#2E1D2D;stroke-width:3;stroke-miterlimit:10;}
	.st30{fill:#000100;}
	.st31{fill:#FFFFFF;}
	.st32{fill:#2E1D2D;}
	.st33{fill:#4EBBB4;}
	.st34{fill:#46B4AF;}
	.st35{fill:#201733;}
	.st36{fill:#272032;}
	.st37{fill:#F8F5E6;}
	.st38{fill:#F55C50;}
	.st39{fill:#F6F6EA;}
	.st40{fill:#211C2E;}
	.st41{fill:#45B8B3;}
	.st42{fill:#47B7B3;}
	.st43{fill:#39989F;}
	.st44{fill:#EE453C;}
	.st45{fill:#F8F5E7;}
	.st46{fill:#2C1E2D;}
	.st47{fill:#F3F1E4;}
	.st48{fill:#48BCB8;}
	.st49{fill:#22324C;}
	.st50{fill:none;stroke:#000000;stroke-width:2;stroke-miterlimit:10;}
</style>
<path class="st0" d="M106.09,665.81c-5.92,6.37,0.08,33.72,16.22,64.47c10.28-10.74,20.55-21.49,30.82-32.23
	C132.14,671.84,112.03,659.42,106.09,665.81z"/>
<path class="st0" d="M67.73,764.4c-3.99,8.47,8.57,31.87,31.6,54.3c7.02-14.42,14.03-28.85,21.05-43.27
	C93.91,759.31,71.75,755.89,67.73,764.4z"/>
<g>
	<g>
		<polygon class="st1" points="928.88,354.84 914.56,355.76 912.75,329.89 927.06,328.97 		"/>
		<polygon class="st1" points="755.44,355.29 745.5,352.48 755.41,320.29 765.35,323.09 		"/>
		<g>
			<path class="st2" d="M1050.85,665.1c8.01,5.87,12.66,15.71,11.96,25.34c-0.1,1.48-0.35,3.02-1.17,4.29
				c-0.82,1.27-2.34,2.22-3.89,2.01c-0.54-0.07-1.07-0.29-1.45-0.66c-0.75-0.73-0.8-1.86-0.88-2.87
				c-0.71-9.09-7.46-16.64-14.46-22.82c-1.48-1.31-3.05-2.68-3.71-4.51c-0.65-1.83,0.02-4.25,1.92-4.89
				c0.72-0.23,1.49-0.19,2.24-0.11c4.69,0.52,9.17,2.73,12.32,6.1"/>
			<g>
				<path class="st3" d="M1050.55,665.6c4.91,3.64,8.56,8.8,10.4,14.54c0.91,2.85,1.38,5.82,1.33,8.81c-0.02,1.57-0.1,3.24-0.74,4.7
					c-0.64,1.45-2.2,2.9-3.95,2.46c-1.82-0.44-1.51-2.81-1.71-4.22c-0.2-1.44-0.54-2.85-1.02-4.23c-0.98-2.83-2.48-5.47-4.25-7.9
					c-1.83-2.5-3.92-4.81-6.15-6.97c-1.11-1.08-2.26-2.12-3.42-3.14s-2.37-2.11-3.03-3.52c-0.63-1.34-0.57-3.25,0.69-4.23
					c1.39-1.09,3.87-0.35,5.41,0.05c3.53,0.93,6.73,2.81,9.21,5.42c0.53,0.56,1.37-0.27,0.84-0.82c-2.41-2.53-5.45-4.41-8.82-5.46
					c-2.69-0.84-6.95-1.92-8.47,1.25c-1.43,2.99,0.68,5.74,2.84,7.71c2.7,2.46,5.4,4.89,7.77,7.66c2.42,2.82,4.55,5.95,5.9,9.39
					c0.65,1.66,1.12,3.4,1.35,5.17c0.18,1.41,0.02,3.12,1.14,4.21c1.08,1.06,2.83,1.04,4.14,0.42c1.46-0.69,2.4-2.01,2.89-3.49
					c1.03-3.09,0.69-6.84,0.11-9.98c-1.36-7.47-5.68-14.28-11.86-18.86C1050.53,664.14,1049.94,665.16,1050.55,665.6L1050.55,665.6z
					"/>
			</g>
		</g>
		<g>
			<path class="st2" d="M619.37,666.62c-8.01,5.87-12.66,15.71-11.96,25.34c0.1,1.48,0.35,3.02,1.17,4.29s2.34,2.22,3.89,2.01
				c0.54-0.07,1.07-0.29,1.45-0.66c0.75-0.73,0.8-1.86,0.88-2.87c0.71-9.09,7.46-16.64,14.46-22.82c1.48-1.31,3.05-2.68,3.71-4.51
				c0.65-1.83-0.02-4.25-1.92-4.89c-0.72-0.23-1.49-0.19-2.25-0.11c-4.69,0.52-9.17,2.73-12.32,6.1"/>
			<g>
				<path class="st3" d="M619.08,666.12c-5.49,4.07-9.5,9.88-11.29,16.38c-0.88,3.22-1.25,6.62-0.93,9.95
					c0.28,2.9,1.84,6.7,5.48,6.42c1.68-0.12,2.69-1.28,2.93-2.84c0.28-1.7,0.34-3.38,0.8-5.06c0.94-3.45,2.73-6.6,4.86-9.46
					c2.21-2.96,4.83-5.61,7.56-8.11c2.23-2.04,5.5-4.32,5.31-7.69c-0.08-1.38-0.73-2.81-2.01-3.51c-1.58-0.86-3.72-0.37-5.37,0.01
					c-3.96,0.9-7.6,2.98-10.37,5.87c-0.53,0.56,0.32,1.38,0.84,0.82c2.23-2.33,5.02-4.11,8.14-5.11c1.48-0.48,3.16-0.91,4.73-0.88
					c1.62,0.03,2.65,1.08,2.81,2.62c0.33,3.13-3.14,5.36-5.18,7.24c-2.3,2.11-4.49,4.34-6.44,6.75c-1.87,2.32-3.53,4.81-4.75,7.53
					c-1.22,2.72-1.75,5.44-2.07,8.37c-0.1,0.9-0.33,1.75-1.28,2.12c-0.85,0.34-1.82,0.08-2.56-0.4c-1.55-0.99-2.06-2.85-2.25-4.56
					c-0.31-2.92-0.06-5.92,0.61-8.77c1.56-6.6,5.48-12.61,11-16.71C620.28,666.68,619.69,665.66,619.08,666.12L619.08,666.12z"/>
			</g>
		</g>
		<g>
			<path class="st2" d="M637.08,647.97c-14.09,0.77-26.22,9.81-35.57,19.94c-4.5,4.86-8.7,10.31-10,16.68
				c-0.25,1.23-0.14,2.88,1.12,3.25c0.57,0.17,1.19-0.02,1.72-0.27c2.59-1.22,4.06-3.83,5.72-6.09c6.27-8.56,17.57-13.48,28.43-12.4
				c-2.96,3.27-5.05,7.25-6.02,11.47c-0.73,3.14-0.82,6.54,0.49,9.51c1.32,2.97,4.26,5.42,7.63,5.57c0.31,0.02,0.64,0.01,0.92-0.12
				c1.09-0.51,0.57-2.07,0.09-3.12c-2.18-4.84,0.2-10.6,3.97-14.45c3.77-3.84,8.74-6.37,13.16-9.53c4.42-3.16,8.5-7.4,9.16-12.64
				c0.2-1.61,0.05-3.29-0.64-4.76c-1.57-3.41-5.6-5.16-9.44-5.8c-7.09-1.17-14.63,0.54-20.42,4.62"/>
			<g>
				<path class="st3" d="M637.08,647.39c-15.22,0.9-28,10.95-37.56,21.83c-2.5,2.85-4.84,5.89-6.51,9.29
					c-0.84,1.69-1.51,3.45-1.94,5.28c-0.29,1.25-0.54,2.82,0.34,3.9c2.19,2.69,6.06-1.66,7.29-3.29c1.06-1.41,2-2.9,3.16-4.23
					c1.12-1.31,2.38-2.51,3.72-3.6c6.33-5.14,14.73-7.68,22.92-6.91c-0.14-0.34-0.28-0.66-0.42-1c-2.93,3.28-5.06,7.18-6.1,11.41
					c-1.02,4.16-0.98,8.9,1.8,12.44c1.08,1.37,2.52,2.49,4.17,3.14c1.28,0.49,3.8,1.2,4.61-0.36c0.77-1.48-0.61-3.31-0.94-4.74
					c-0.48-2.01-0.22-4.11,0.46-6.04c3.08-8.83,13.16-12.06,19.76-17.81c2.98-2.6,5.63-5.87,6.46-9.77c0.85-3.99-0.47-7.77-4-10.03
					c-3.83-2.46-8.94-2.95-13.41-2.55c-4.95,0.44-9.73,2.13-13.79,4.95c-0.62,0.43-0.02,1.45,0.61,1.02
					c6.44-4.48,15.44-6.38,23.04-3.79c3.79,1.29,6.74,4.04,6.63,8.2c-0.1,3.84-2.34,7.25-5.01,9.89c-5.64,5.58-13.8,8.3-18.71,14.65
					c-2.13,2.76-3.64,6.22-3.45,9.74c0.05,0.82,0.18,1.65,0.42,2.45c0.24,0.78,0.65,1.49,0.85,2.28c0.13,0.49,0.22,0.94-0.27,1.22
					c-0.45,0.26-1.09,0.1-1.58,0.01c-0.88-0.17-1.71-0.51-2.48-0.97c-4.26-2.55-5.11-7.76-4.3-12.23c0.82-4.53,2.99-8.77,6.08-12.24
					c0.36-0.4,0.1-0.95-0.42-1c-6.54-0.62-13.22,0.85-18.94,3.99c-2.83,1.55-5.44,3.53-7.65,5.87c-2.22,2.33-3.67,5.36-6.07,7.52
					c-0.62,0.56-1.39,1.11-2.21,1.35c-1.23,0.36-1.63-0.67-1.63-1.67c0.02-1.67,0.74-3.45,1.37-4.98c1.43-3.45,3.63-6.54,6.03-9.4
					c4.54-5.4,9.77-10.41,15.62-14.43c6.53-4.5,14.02-7.72,22.06-8.2C637.85,648.51,637.86,647.34,637.08,647.39L637.08,647.39z"/>
			</g>
		</g>
		<g>
			<path class="st4" d="M793.74,612.98c-20.88,13.08-35.12,33.9-45.95,55.42c-10.83,21.51-18.87,44.28-30.73,65.29
				c-20.36,36.03-52,66.14-89.77,85.41c20.17,1.19,40.67-8.05,52.57-23.68c-0.49,6.1-0.98,12.22-1.47,18.32
				c8.41-2.9,15.88-8.23,21.15-15.13c-0.37,5.37-0.73,10.74-1.11,16.11c8.75-3.07,16.28-9.22,20.84-17
				c1,16.43-2.22,33.08-9.32,48.08c8.82-5.8,20.82-8.1,30.38-3.5c9.56,4.6,14.76,17.24,8.99,25.87c8.76-6.79,17.52-13.6,26.28-20.4
				c3.54,7.19,4.87,15.37,3.77,23.26c5.09-3.19,10.19-6.39,15.29-9.58c2.61,4.94,5.22,9.88,7.83,14.81
				c6.67-7.28,13.66-14.29,20.95-21.02c2.45-2.26,5.08-4.57,8.35-5.49c6.55-1.85,13.57,2.67,16.61,8.52
				c3.03,5.86,3.05,12.66,3.02,19.2c1.83-4.21,3.67-8.42,5.51-12.62c3.15,5.42,7.02,10.47,11.5,14.96
				c4.97-6.37,9.96-12.74,14.93-19.11c1.37-1.75,2.89-3.61,5.09-4.23c2.18-0.62,4.5,0.14,6.63,0.88c9.35,3.27,18.7,6.53,28.05,9.81
				c1.16-6.03,1.57-12.19,1.23-18.32c3.99,0.54,7.81,2.13,10.95,4.53c0.56-3.07,1.12-6.15,1.68-9.22
				c11.27,12.54,24.27,23.67,38.55,32.98c-2.3-13.35-6.2-26.42-11.61-38.92c5.62,3.61,11.24,7.23,16.86,10.84
				c0.76-4.89,1.51-9.79,2.28-14.68c18.81,15.11,41.56,25.68,65.59,30.49c-7.38-10.47-18.84-17.5-28.89-25.7
				c-29.32-23.89-47.03-58.04-63.02-91.56c-12.85-26.94-25.12-54.13-36.78-81.56c-6.72-15.8-13.7-32.31-27.17-43.49
				c-12.98-10.77-30.64-15.23-47.82-15.53c-17.18-0.29-34.15,3.22-50.93,6.72"/>
		</g>
		<path class="st5" d="M883.75,615.82c-13.57,2.59-30.59,4.69-50.21,4.58c-18.23-0.11-34.13-2.13-47.03-4.58
			c2.02-2.09,6.19-6.99,7.97-14.49c1.84-7.76,0.12-14.07-0.8-16.78c26.57,0,53.14,0,79.71,0c-0.68,3.07-1.89,10.59,1.59,19.07
			C877.51,609.76,881.4,613.76,883.75,615.82z"/>
		<g>
			<path class="st4" d="M779.76,276.92c0.01-9.28,2.43-18.54,6.99-26.73c2.38-4.28,5.28-9.76,2.03-13.49
				c-1.14-1.32-2.94-2.16-3.54-3.77c-0.75-2.03,0.77-4.11,2.07-5.87c1.96-2.66,3.6-5.52,4.88-8.52c0.25-0.58,0.49-1.22,0.3-1.83
				c-0.17-0.57-0.67-0.98-1.15-1.36c-3.86-3.05-7.72-6.08-11.57-9.13c-2.18-1.72-4.54-3.52-7.34-3.79c-2.09-0.2-4.14,0.46-6.13,1.11
				c-5.56,1.84-11.13,3.67-16.69,5.51c-0.54,0.18-1.11,0.36-1.53,0.75c-0.65,0.58-0.84,1.48-0.99,2.33
				c-1.97,10.6-5.1,21.02-9.34,30.99c-2.19-13.39-3.18-26.95-2.96-40.51c0.07-4.21,0.33-8.66,2.72-12.2
				c1.76-2.61,4.5-4.44,7.17-6.21c8.65-5.73,17.35-11.49,26.87-15.79c6.4-2.89,13.14-5.09,20.05-6.55
				c5.09-1.08,10.35-1.75,15.53-1.18c8.83,0.97,16.89,5.55,23.36,11.37c6.48,5.82,11.57,12.89,16.62,19.89
				c4.93,6.84,9.85,13.68,14.77,20.51c2.19,3.05,4.38,6.1,6.45,9.22c11.28,17.11,18.44,36.37,25.51,55.44
				c-6.19,1.5-12.64,1.63-19.03,1.74c-29.1,0.55-58.19,1.09-87.29,1.63c-2.1,0.04-4.34,0.04-6.15-0.97
				c-1.82-1.02-2.93-3.47-1.72-5.12"/>
		</g>
		<g>
			<path class="st4" d="M758.28,311.79c3.71,13.57-4.89,24.99-21.57,63.8c-6.09,14.17-6.54,16.33-6.71,18.86
				c-0.97,13.94,10.19,25.6,15.65,38.56c7.01,16.64,4.49,35.5,8.44,53.04c1.22,5.41,3.16,10.87,7.08,14.94
				c3.21,3.34,7.54,5.53,11.97,7.14c8.84,3.22,18.32,4.39,27.7,5.55c11.11,1.37,22.27,2.74,33.46,2.46
				c19.28-0.48,38.03-5.8,56.51-11.08c3.33-0.95,6.7-1.92,9.72-3.57c9.82-5.36,14.11-16.89,14.97-27.67
				c0.86-10.79-0.89-21.69,0.49-32.42c0.26-2.01,0.66-4.09,1.9-5.73c1.95-2.6,5.47-3.52,8.48-4.91c9.6-4.45,14.98-14.94,15.46-25.14
				c0.47-10.2-3.21-20.17-7.78-29.39s-10.07-18.07-13.64-27.69c-5.8-15.67-7.36-34.66-21.42-44.44c-9.24-6.43-21.46-6.91-32.87-7.13
				c-15.17-0.3-38.6-3.6-71.4-1.44c-23.62,1.55-34.72,4.1-36.83,10.38C757.1,308.17,757.82,310.13,758.28,311.79z"/>
		</g>
		<path class="st6" d="M836.72,462.51c-26.96,1.15-45.07-24.89-48.62-29.75c-16.32-22.29-15.18-46.45-14.35-54.91
			c0.26-19.58,0.53-39.16,0.8-58.73c39.06,0.5,78.11,1.02,117.17,1.53c6.61,23.6,6.64,43.42,5.58,56.44
			c-1.41,17.39-2.99,36.76-16.74,55.68C874.17,441.55,859.65,461.52,836.72,462.51z"/>
		<g>
			<path class="st7" d="M823.12,350.16c-4.72,0.21-9.62,0.4-14-1.33c-2.53-1-4.77-2.6-7.36-3.41c-3.83-1.2-8.11-0.53-11.71,1.19
				c-3.6,1.72-6.61,4.42-9.24,7.32c3.07-3.12,7.59-4.86,12.05-4.65c3.71,0.17,7.22,1.61,10.65,2.99c3.43,1.39,6.96,2.78,10.68,2.85
				s7.71-1.46,9.42-4.62"/>
		</g>
		<g>
			<path class="st7" d="M846.66,350.16c4.72,0.21,9.62,0.4,14-1.33c2.53-1,4.77-2.6,7.36-3.41c3.83-1.2,8.11-0.53,11.71,1.19
				c3.6,1.72,6.61,4.42,9.24,7.32c-3.07-3.12-7.59-4.86-12.05-4.65c-3.71,0.17-7.22,1.61-10.65,2.99
				c-3.43,1.39-6.96,2.78-10.68,2.85s-7.71-1.46-9.42-4.62"/>
		</g>
		<g>
			<path class="st8" d="M824.77,370.2c2.45,8.74-9.08,22.63-22.32,22.12c-10.94-0.42-17.73-10.48-19.93-17.16
				c-0.77-2.33-3.19-9.69,0.8-14.11c3.86-4.28,11.37-3.18,17.54-2.29C807.9,359.79,822.44,361.91,824.77,370.2z"/>
			<path class="st9" d="M816.8,362.58c1.67,3.45-4.16,11.77-11.56,12.2c-4.46,0.27-7.68-2.44-8.37-3.06
				c-4.26-3.76-5.75-10.65-3.19-12.97c1.02-0.93,2.26-0.74,11.16,0.76C815.22,361.28,816.28,361.5,816.8,362.58z"/>
			
				<ellipse transform="matrix(0.1455 -0.9894 0.9894 0.1455 327.873 1106.292)" class="st10" cx="804.39" cy="363.33" rx="2.67" ry="3.19"/>
		</g>
		<g>
			<path class="st8" d="M844.39,370.2c-2.45,8.74,9.08,22.63,22.32,22.12c10.94-0.42,17.73-10.48,19.93-17.16
				c0.77-2.33,3.19-9.69-0.8-14.11c-3.86-4.28-11.37-3.18-17.54-2.29C861.26,359.79,846.72,361.91,844.39,370.2z"/>
			<path class="st9" d="M852.36,362.58c-1.67,3.45,4.16,11.77,11.56,12.2c4.46,0.27,7.68-2.44,8.37-3.06
				c4.26-3.76,5.75-10.65,3.19-12.97c-1.02-0.93-2.26-0.74-11.16,0.76C853.94,361.28,852.88,361.5,852.36,362.58z"/>
			
				<ellipse transform="matrix(0.9894 -0.1455 0.1455 0.9894 -43.6772 129.7103)" class="st10" cx="864.69" cy="363.38" rx="3.19" ry="2.67"/>
		</g>
		<path class="st11" d="M860.24,429.7c-0.53,4.95-14.71,7.92-25.51,7.63c-9.99-0.27-23.55-3.49-23.91-8.39
			c-0.1-1.29,0.58-4.54,11.96-9.16c8.23,0,16.48,0,24.71,0C859.63,424.96,860.39,428.3,860.24,429.7z"/>
		<g>
			<g>
				<path class="st12" d="M820.59,429.88c4.55-3.29,9.6,0.06,14.4,0.67c2.66,0.34,5.18-0.35,7.74-1c2.21-0.56,4.92-1.13,7.02,0.06
					c1.33,0.75,2.53-1.26,1.2-2.01c-5.14-2.92-10.65,1.42-15.97,0.61c-2.65-0.42-5.12-1.57-7.78-1.96c-2.7-0.4-5.58,0.01-7.82,1.62
					C818.16,428.74,819.35,430.77,820.59,429.88L820.59,429.88z"/>
			</g>
		</g>
		<g>
			<g>
				<path class="st13" d="M823,399.58c-1.65,0.6-2.96,1.8-3.52,3.45c-0.51,1.5-0.3,3.35,1,4.4c1.47,1.19,3.37,0.95,5.13,0.82
					c0.88-0.06,1.72-0.07,2.49,0.41c0.64,0.39,1.16,0.95,1.69,1.47c1.24,1.17,2.58,2.08,4.38,2.07c1.66,0,3.65-0.42,5.01-1.4
					c0.8-0.57,1.16-1.45,1.88-2.05c0.52-0.42,1.2-0.5,1.85-0.52c1.5-0.03,2.99,0.27,4.49,0.01c4.2-0.72,4.37-5.35,2.51-8.3
					c-0.81-1.28-2.88-0.11-2.06,1.17c1.16,1.83,1.47,4.71-1.39,4.89c-2.37,0.16-5-0.72-6.98,1.02c-0.53,0.45-0.83,1.08-1.3,1.56
					c-0.47,0.49-1.11,0.75-1.75,0.93c-1.35,0.36-2.81,0.63-4.01-0.23c-0.96-0.69-1.71-1.65-2.68-2.35c-1.16-0.84-2.5-1.11-3.94-1.02
					c-1.06,0.07-3.54,0.68-4.1-0.67c-0.56-1.34,0.69-2.95,1.93-3.39C825.07,401.32,824.45,399.05,823,399.58L823,399.58z"/>
			</g>
		</g>
		<path class="st1" d="M757.02,323.67c-3.45,9.92-6.91,19.83-10.36,29.75c-19.92-3.31-36.39-7.32-48.62-10.68
			c-23.32-6.4-32.18-13.54-43.04-20.59c-6.38-4.15-9.81-11.28-8.77-18.3c1.23-8.23,8.4-14.9,17.54-16.02
			c20.75-3.98,37.41-3.45,48.62-2.29c11.57,1.2,23.73,3.75,70.14,20.59c18.58,6.74,33.91,12.61,44.64,16.78
			C803.78,323.17,780.39,323.43,757.02,323.67z"/>
		<path d="M1003.31,333.59c-12.91,6.11-29.21,12.39-48.62,16.78c-9.99,2.26-19.36,3.7-27.9,4.58c-5.58-19.83-11.16-39.66-16.74-59.5
			c8.87-0.45,18.48-0.51,28.69,0c23.79,1.21,44.49,5.27,61.37,9.92c7.14,0.71,12.82,6.16,13.55,12.97
			C1014.39,325.08,1010.06,331.46,1003.31,333.59z"/>
		<path d="M927.59,333.59c-22.9,1.4-55.44,0.72-92.46-9.16c-21.59-5.76-39.74-13.33-54.2-20.59c45.97-1.27,91.92-2.54,137.89-3.82
			C921.74,311.22,924.66,322.41,927.59,333.59z"/>
		<g>
			<path class="st14" d="M829.06,321.99c28.25,7.27,57.39,11.38,86.62,12.2"/>
		</g>
		<path class="st15" d="M911.65,302.97c-50.48,0.29-100.96,0.58-151.44,0.87c3.45-10.17,6.91-20.34,10.36-30.51h132.31
			C905.8,283.21,908.72,293.09,911.65,302.97z"/>
		<rect x="813.61" y="269.52" class="st16" width="41.45" height="32.79"/>
		<rect x="820.78" y="274.86" class="st15" width="27.9" height="21.36"/>
		<rect x="819.19" y="284.01" class="st16" width="12.75" height="4.58"/>
		<rect x="819.98" y="593.7" class="st16" width="23.91" height="26.7"/>
		<rect x="823.97" y="599.05" class="st5" width="15.94" height="7.63"/>
		<rect x="823.97" y="609.72" class="st5" width="15.94" height="6.1"/>
		<rect x="804.84" y="849.24" class="st4" width="16.74" height="30.51"/>
		<g>
			<path class="st4" d="M821.58,917.88c-6.11,0.26-12.22,0.5-18.33,0.76c-0.26-3.56-0.53-7.12-0.8-10.68
				c-30.14,15.65-59.29,19.3-73.33,7.63c-1.75-1.46-9.29-7.71-10.36-17.54c-0.79-7.23,1.82-17.32,8.77-19.83
				c5.47-1.97,12.08,1.31,11.96,2.29c-0.1,0.85-5.22-0.48-7.97,2.29c-3.08,3.09-2.16,10.28,1.59,14.49
				c4.36,4.89,11.62,4.7,16.74,4.58c13.13-0.32,23.2-6.51,28.69-10.68c-0.26-5.34-0.53-10.68-0.8-16.02h45.43
				C822.64,889.41,822.11,903.64,821.58,917.88z"/>
			<rect x="782.52" y="877.46" class="st17" width="17.54" height="13.73"/>
			<rect x="784.91" y="878.99" class="st4" width="12.75" height="10.68"/>
		</g>
		<g>
			<path class="st4" d="M846.15,917.88c6.11,0.26,12.22,0.5,18.33,0.76c0.26-3.56,0.53-7.12,0.8-10.68
				c30.14,15.65,59.29,19.3,73.33,7.63c1.75-1.46,9.29-7.71,10.36-17.54c0.79-7.23-1.82-17.32-8.77-19.83
				c-5.47-1.97-12.08,1.31-11.96,2.29c0.1,0.85,5.22-0.48,7.97,2.29c3.08,3.09,2.16,10.28-1.59,14.49
				c-4.36,4.89-11.62,4.7-16.74,4.58c-13.13-0.32-23.2-6.51-28.69-10.68c0.26-5.34,0.53-10.68,0.8-16.02h-45.43
				C845.09,889.41,845.62,903.64,846.15,917.88z"/>
			<rect x="867.67" y="877.46" class="st17" width="17.54" height="13.73"/>
			<rect x="870.06" y="878.98" class="st4" width="12.75" height="10.68"/>
		</g>
		<path class="st18" d="M1067.21,752.59c-4.77-2.31-12.6-5.36-22.68-6.17c-10.06-0.81-18.22,0.95-23.28,2.46c0-5.15,0-10.29,0-15.44
			c4.55-2.07,12.98-5.18,23.88-4.95c9.62,0.21,17.11,2.94,21.49,4.95C1066.81,739.83,1067.01,746.21,1067.21,752.59z"/>
		<path class="st19" d="M1056.71,724.98c-2.73-0.75-6.36-1.42-10.63-1.36c-4.85,0.07-8.9,1.06-11.81,2.05
			c-3.15-122.87-6.3-245.75-9.45-368.63c1.39-4.83,5.22-8.13,9.45-8.19c4.73-0.07,9.02,3.91,10.03,9.55
			C1048.44,480.6,1052.57,602.79,1056.71,724.98z"/>
		<path class="st20" d="M1066.9,740.54c-3.86-2.47-10.85-6.22-20.29-7.41c-12.66-1.6-22.53,2.3-26.86,4.32
			c-0.35-1.74-2.39-12.61,4.18-20.38c6.77-8,17.68-6.84,23.88-6.17c6.48,0.69,14.67,1.56,19.1,8.65
			C1072.51,728.49,1067.31,739.71,1066.9,740.54z"/>
		<g>
			<path class="st21" d="M1019.62,746.88c-5.5,3.98-7.67,8.67-11.07,14.99c-15.27,28.36-25.3,26.16-35.21,50.71
				c-7.86,19.46-13.31,39.93-22.04,58.98c-8.72,19.06-21.35,37.15-39.42,46.89c1.39,7.39,7.3,13.19,13.96,16.25
				c6.66,3.06,14.04,3.84,21.3,4.58c-1.53,8.78,6.9,15.65,14.28,20.27c11.94,7.47,24.9,15.22,38.82,14.13
				c2.2-0.17,4.49-0.56,6.56,0.22c1.92,0.72,3.36,2.33,4.92,3.7c8.15,7.19,21,7.89,29.83,1.62c3.45-2.45,6.63-5.95,10.81-6.19
				c2.48-0.14,4.85,0.93,7.26,1.52c7.94,1.95,16.88-1.71,21.36-8.76c1.13-1.78,2.09-3.84,3.87-4.91c2.47-1.49,5.57-0.58,8.39-0.06
				c5.88,1.1,12.08,0.29,17.52-2.28c1.83-0.87,3.63-1.94,5.63-2.17c2.86-0.33,5.59,1.13,8.3,2.15c7.82,2.94,16.83,2.31,24.19-1.73
				c1.92-1.05,3.8-2.35,5.95-2.69c2.53-0.41,5.06,0.57,7.56,1.16c8.85,2.1,18.66-0.83,25.06-7.49
				c-14.68-5.79-23.55-20.95-31.16-35.17c-11.49-21.45-16.72-34.36-42.44-93.78c-2.94-6.79-7.09-16.28-14.39-27.59
				c-5.32-8.24-10.58-14.77-19.1-25.32c-8.11-10.06-12.17-15.09-14.32-16.68C1052.74,739.42,1032.29,737.71,1019.62,746.88z"/>
			<g>
				<path class="st22" d="M1019.32,746.37c-5.37,3.96-8.22,9.51-11.29,15.19c-3.3,6.11-7.01,12.03-11.37,17.48
					c-5.85,7.29-13.01,13.51-17.97,21.47c-3.53,5.66-5.99,11.85-8.32,18.05c-2.88,7.61-5.47,15.33-8.13,23.01
					c-5.07,14.66-10.37,29.36-18.24,42.84c-7.87,13.47-18.36,25.9-32.41,33.53c-0.25,0.13-0.33,0.41-0.27,0.66
					c1.34,6.68,6.15,12.16,12.09,15.5c7.18,4.05,15.65,4.93,23.74,5.76c-0.19-0.25-0.38-0.49-0.57-0.74
					c-1.26,7.97,4.88,14.15,10.94,18.52c3.79,2.72,7.87,5.12,11.92,7.45c4.22,2.43,8.58,4.66,13.18,6.36
					c4.44,1.64,9.12,2.75,13.88,2.9c2.46,0.08,4.88-0.34,7.33-0.34c2.95,0,4.79,1.53,6.83,3.39c5.89,5.4,14.06,7.71,22,6.19
					c3.99-0.76,7.53-2.54,10.7-5c1.81-1.41,3.55-2.95,5.61-4c2.52-1.28,4.97-1.1,7.62-0.33c4.07,1.17,7.84,1.8,12.03,0.83
					c3.79-0.88,7.33-2.84,10.07-5.55c1.42-1.4,2.53-2.99,3.55-4.69c1.32-2.19,2.73-4.11,5.56-4.24c2.32-0.11,4.61,0.69,6.88,0.98
					c2.57,0.34,5.16,0.32,7.73-0.03c2.3-0.31,4.57-0.88,6.73-1.74c2.3-0.9,4.49-2.46,6.96-2.88c2.62-0.45,5.17,0.79,7.53,1.73
					c2.31,0.93,4.69,1.59,7.17,1.93c4.54,0.62,9.22,0.19,13.56-1.26c2.13-0.71,4.11-1.69,6.06-2.79c2.63-1.5,4.97-2.38,8.05-1.73
					c2.27,0.48,4.45,1.21,6.77,1.48c2.12,0.24,4.26,0.22,6.37-0.05c4.09-0.53,8.04-1.96,11.49-4.18c1.75-1.13,3.34-2.46,4.79-3.92
					c0.33-0.34,0.14-0.81-0.26-0.97c-10.69-4.28-18.12-13.49-23.96-22.88c-4.07-6.53-7.63-13.36-11.13-20.19
					c-5.25-10.27-10-20.78-14.63-31.33c-8.36-19-16.4-38.15-24.76-57.15c-4.56-10.36-9.95-20.34-16.47-29.66
					c-6.72-9.61-14.32-18.66-21.74-27.75c-2.31-2.84-4.58-5.78-7.21-8.34c-2.96-2.88-7.03-4.86-10.86-6.38
					c-9.71-3.84-21.23-4.57-31.05-0.64C1023.48,743.77,1021.32,744.94,1019.32,746.37c-0.61,0.43-0.02,1.46,0.61,1.02
					c8.82-6.3,20.6-7.19,30.95-4.57c5.25,1.33,10.56,3.58,14.83,6.89c2.23,1.74,4.02,4.12,5.81,6.26
					c7.52,9.03,15.05,18.16,21.97,27.64c6.74,9.23,12.45,19.12,17.17,29.47c4.87,10.68,9.37,21.55,14.03,32.33
					c3.62,8.38,7.24,16.77,10.9,25.13c4.72,10.78,9.51,21.54,14.81,32.06c2.99,5.94,6.07,11.83,9.38,17.59
					c5.28,9.21,11.53,18.52,20.63,24.53c2.15,1.42,4.45,2.61,6.85,3.58c-0.09-0.33-0.18-0.65-0.26-0.97
					c-6,6.14-15.07,9.26-23.67,7.52c-2.34-0.47-4.6-1.39-7.01-1.45c-2.26-0.06-4.22,0.85-6.13,1.93c-4.29,2.43-8.74,4.09-13.73,4.36
					c-4.93,0.27-9.39-0.87-13.92-2.66c-2.01-0.8-4.14-1.53-6.35-1.25c-2.26,0.29-4.18,1.53-6.21,2.44
					c-4.61,2.08-9.81,2.88-14.86,2.29c-3.99-0.47-8.67-2.46-11.92,0.91c-1.34,1.38-2.12,3.17-3.2,4.73
					c-1.21,1.74-2.74,3.28-4.47,4.52c-3.27,2.36-7.26,3.76-11.33,3.82c-2.21,0.04-4.27-0.42-6.37-1.04
					c-2.1-0.63-4.26-1.25-6.47-0.88c-4.18,0.71-7.13,4.12-10.46,6.39c-6.82,4.66-16.13,5.2-23.59,1.65
					c-1.88-0.89-3.63-2.04-5.19-3.4c-1.58-1.39-3.03-2.99-5.04-3.79c-2.04-0.8-4.26-0.52-6.39-0.34c-2.34,0.2-4.7,0.19-7.04-0.07
					c-9.8-1.08-18.75-5.89-27-10.88c-6.82-4.12-15.61-8.87-18.4-16.75c-0.68-1.92-0.86-3.91-0.55-5.91
					c0.06-0.41-0.16-0.69-0.57-0.74c-7.75-0.8-15.86-1.62-22.79-5.41c-5.85-3.2-10.58-8.46-11.89-15c-0.09,0.22-0.18,0.43-0.27,0.66
					c25.9-14.07,38.81-42.36,48.17-68.43c2.81-7.82,5.42-15.71,8.2-23.53c2.53-7.12,5.01-14.36,8.46-21.1
					c2.29-4.46,5.09-8.62,8.37-12.44c2.97-3.45,6.19-6.66,9.18-10.08c4.54-5.19,8.51-10.8,11.98-16.72
					c3.95-6.74,6.81-14.43,13.37-19.26C1020.53,746.93,1019.93,745.91,1019.32,746.37z"/>
			</g>
		</g>
		<g>
			<g>
				<path class="st22" d="M1065.8,822.39c5.19,14.96,9.35,30.26,12.45,45.76c3.11,15.57,5.15,31.33,6.1,47.17
					c0.54,8.96,0.73,17.93,0.57,26.91c-0.02,1.5,2.37,1.5,2.39,0c0.27-15.98-0.55-31.96-2.46-47.84
					c-1.91-15.82-4.88-31.52-8.93-46.95c-2.27-8.65-4.88-17.22-7.81-25.67C1067.62,820.36,1065.31,820.96,1065.8,822.39
					L1065.8,822.39z"/>
			</g>
		</g>
		<g>
			<g>
				<path class="st22" d="M1102.06,890.31c8.28,15.98,13.28,33.58,14.74,51.43c0.41,5.04,0.53,10.09,0.39,15.14
					c-0.04,1.5,2.35,1.5,2.39,0c0.52-18.26-2.57-36.63-9.16-53.74c-1.84-4.78-3.95-9.46-6.3-14.01
					C1103.43,887.79,1101.37,888.97,1102.06,890.31L1102.06,890.31z"/>
			</g>
		</g>
		<g>
			<g>
				<path class="st22" d="M1097.07,816.94c5.24,18.42,11.28,36.63,18.1,54.56c6.75,17.73,14.27,35.19,22.53,52.3
					c4.67,9.68,9.59,19.25,14.74,28.7c0.73,1.33,2.79,0.15,2.06-1.17c-9.09-16.69-17.45-33.75-25.05-51.12
					c-7.64-17.46-14.5-35.25-20.58-53.28c-3.41-10.12-6.58-20.32-9.5-30.59C1098.96,814.87,1096.65,815.49,1097.07,816.94
					L1097.07,816.94z"/>
			</g>
		</g>
		<g>
			<g>
				<path class="st22" d="M1040.36,823.48c0.37,9.81,2.63,19.4,4.68,28.97c2.06,9.58,3.59,19.24,4.52,28.98
					c1.88,19.67,1.66,39.48,0.69,59.19c-0.54,11.09-1.32,22.16-2.11,33.23c-0.1,1.5,2.29,1.49,2.39,0
					c1.4-19.74,2.8-39.51,2.85-59.31c0.05-19.66-1.26-39.38-5.18-58.7c-2.18-10.72-5.01-21.38-5.44-32.36
					C1042.7,821.98,1040.31,821.98,1040.36,823.48L1040.36,823.48z"/>
			</g>
		</g>
		<g>
			<g>
				<path class="st22" d="M1009.99,867.27c2.69,17.42-0.88,35.01-5.6,51.78c-1.35,4.82-2.82,9.63-4.3,14.43
					c-0.45,1.44,1.87,2.06,2.3,0.63c5.25-17.09,10.53-34.52,10.89-52.49c0.1-5.01-0.22-10.01-0.99-14.96
					C1012.07,865.17,1009.76,865.8,1009.99,867.27L1009.99,867.27z"/>
			</g>
		</g>
		<path class="st23" d="M1108.99,808.48c-7.85,4.06-14.71,6.52-19.7,8.03c-19.16,5.8-36,5.35-47.75,4.95
			c-6.09-0.21-6.07-0.51-20.29-1.24c-14.24-0.72-16.68-0.55-22.09-1.24c-6.06-0.77-14.71-2.5-25.07-6.79
			c0.98-3.18,2.46-7.03,4.77-11.12c3.33-5.9,7.15-10.14,10.15-12.97c11.9,3.58,30.42,7.55,53.12,6.17
			c21.66-1.32,38.9-7.01,50.14-11.73c2.97,3.22,6.31,7.31,9.55,12.35C1104.98,799.82,1107.29,804.48,1108.99,808.48z"/>
		<g>
			<path class="st2" d="M1033.14,646.45c14.09,0.77,26.22,9.81,35.57,19.94c4.5,4.86,8.7,10.31,10,16.68
				c0.25,1.23,0.14,2.88-1.12,3.25c-0.57,0.17-1.19-0.02-1.72-0.27c-2.59-1.22-4.07-3.83-5.72-6.09
				c-6.27-8.56-17.57-13.48-28.43-12.4c2.96,3.27,5.05,7.25,6.02,11.47c0.73,3.14,0.82,6.54-0.49,9.51
				c-1.32,2.97-4.26,5.42-7.63,5.57c-0.31,0.02-0.64,0.01-0.92-0.12c-1.09-0.51-0.57-2.07-0.09-3.12c2.18-4.84-0.2-10.6-3.97-14.45
				c-3.77-3.84-8.74-6.37-13.16-9.53s-8.5-7.4-9.16-12.64c-0.2-1.61-0.05-3.29,0.64-4.76c1.57-3.41,5.6-5.16,9.44-5.8
				c7.09-1.17,14.63,0.54,20.42,4.62"/>
			<g>
				<path class="st3" d="M1033.14,647.03c14.47,0.86,26.58,10.3,35.83,20.5c2.53,2.79,4.89,5.74,6.69,9.03
					c0.61,1.12,4.56,9.72,1.16,9.19c-1.67-0.27-3.12-1.98-4.08-3.22c-0.96-1.25-1.79-2.57-2.77-3.8c-1.99-2.51-4.42-4.67-7.12-6.45
					c-6.15-4.05-13.73-6.01-21.11-5.31c-0.53,0.04-0.78,0.6-0.42,1c2.75,3.08,4.75,6.77,5.75,10.73c1.01,4,1.03,8.73-1.91,12.01
					c-1.19,1.33-2.76,2.33-4.54,2.69c-0.39,0.08-0.89,0.2-1.29,0.12c-0.77-0.15-0.7-0.65-0.58-1.22c0.18-0.83,0.63-1.59,0.88-2.4
					c1.01-3.31,0.16-6.89-1.5-9.86c-3.95-7.1-12.1-10.11-18.16-15.08c-2.87-2.36-5.52-5.28-6.61-8.86c-0.6-1.99-0.74-4.21,0.06-6.16
					c0.69-1.67,2.05-2.94,3.61-3.84c3.71-2.14,8.45-2.49,12.66-2.07c4.62,0.46,9.07,2.13,12.86,4.76c0.63,0.43,1.23-0.57,0.61-1.02
					c-6.85-4.76-16.79-6.78-24.78-3.61c-3.63,1.44-6.42,4.18-6.68,8.15c-0.26,4.03,1.82,7.79,4.49,10.71
					c6.03,6.58,15.89,9.28,20.6,17.08c1.08,1.8,1.87,3.82,2.04,5.91c0.09,1.01,0.03,2.03-0.21,3.02c-0.22,0.95-0.71,1.79-0.97,2.72
					c-0.45,1.57,0.12,2.99,1.98,2.94c1.77-0.05,3.5-0.77,4.89-1.81c3.99-2.99,4.85-8.04,4.08-12.64c-0.81-4.86-3.15-9.4-6.45-13.09
					c-0.14,0.34-0.28,0.66-0.42,1c7.25-0.69,14.61,1.23,20.64,5.23c2.97,1.98,5.56,4.47,7.63,7.36c0.99,1.39,1.92,2.84,3.14,4.05
					c1.04,1.02,2.61,2.29,4.19,2.17c3.56-0.26,1.66-5.68,0.99-7.46c-1.32-3.52-3.42-6.7-5.78-9.63
					c-4.65-5.79-10.19-11.08-16.32-15.37c-6.8-4.76-14.64-8.13-23.06-8.63C1032.37,645.81,1032.38,646.98,1033.14,647.03
					L1033.14,647.03z"/>
			</g>
		</g>
		<g>
			<path class="st4" d="M811.07,499.86c-12.78-4.09-14.2-12.91-24.33-12.24c-10.91,0.73-19.14,11.39-22.94,17.46
				c-5.16,8.27-8.05,17.61-11.61,26.62c-21.43,54.23-69.82,98.05-127.59,115.53c8.45,1.8,17.14,2.56,25.79,2.27
				c-1.28,7.74-2.57,15.47-3.86,23.21c3.4,1.27,7.12,1.76,10.74,1.41c-3.16,21.08-5.81,44.47,6.89,61.94
				c-1.87-16.22,1.37-32.94,9.17-47.46c-2.34,11.03-1.52,22.67,2.32,33.31c2.8-8.32,3.87-17.16,3.12-25.88
				c4.34,14.32,8.7,28.65,13.04,42.97c3.94-6.5,5.13-14.48,3.26-21.77c2.08,7.36,4.16,14.72,6.24,22.08
				c2.82-7.14,4.95-14.52,6.36-22.03c3.97,4.28,6.87,9.47,8.39,15c8.06-6.77,11.33-17.43,12.1-27.67
				c0.77-10.23-0.57-20.52,0.12-30.76c1.04-15.57,10.03-38.76,13.19-45.7c15.97-34.93,30.73-64.44,41.46-85.18
				c3.87,17.69,8.72,30.63,11.96,35.85c2.85,4.6,6.38,7.63,6.38,7.63s2.5,2.15,5.58,3.82c11.62,6.27,35.63,2.1,53.94-0.21
				c1.21-0.16,4.04-0.52,6.93-2.32c2.44-1.53,4.1-3.93,5.59-6.33c5.68-9.21,9.76-19.34,12-29.81c7.83,14.67,15.66,29.34,23.49,44.01
				c12.81,24,25.82,48.56,29.84,75.25c3.52,23.27,0.73,49.28,15.73,67.9c2.8-5.58,4.97-11.46,6.44-17.49
				c1.82,3.97,3.64,7.92,5.46,11.89c2.45-6.79,4.02-13.88,4.68-21.03c1.85,5.8,4.64,11.33,8.24,16.32
				c0.64-4.82,1.28-9.65,1.91-14.48c4.81-7.28,8.31-15.35,10.3-23.76c3.44,14.79,3.69,30.24,0.72,45.12
				c3.17-11.33,6.34-22.69,9.52-34.02c5.67,6.73,9.21,15.07,10.06,23.68c2.92-16.39,4-33.08,3.24-49.69
				c2.62,5.67,6.43,10.82,11.15,15.07c-0.12-12.56-1.87-25.12-5.18-37.26c8.19-0.02,16.37-0.03,24.56-0.04
				c-14.6-13.3-36.35-15.75-54.48-24.18c-23.63-10.99-40.59-32.03-52.65-54.37s-20.05-46.48-31.16-69.26
				c-1.24-2.54-3.36-9.09-9.73-13.18c-7.23-4.65-15.68-3.74-32.5-0.56C826.05,498.81,821.75,503.27,811.07,499.86z"/>
		</g>
		<path class="st6" d="M833.53,543.36L833.53,543.36c-3.29-6.71-7.96-15.41-14.35-25.18c-8.31-12.69-14.66-19.73-11.96-24.41
			c2.59-4.5,10.73-2.01,15.14-8.39c1.71-2.47,1.94-4.96,2.39-9.92c0.55-6.07-0.11-11.11-0.8-14.49c7.44,0,14.88,0,22.32,0
			c0.06,2.87,0.25,7.09,0.8,12.2c0.59,5.43,0.88,8.15,1.59,9.92c3.56,8.79,13.3,7.83,15.14,13.73c1.85,5.95-6.65,11.37-16.74,24.41
			C840.48,529.77,836.22,537.68,833.53,543.36z"/>
	</g>
	<path class="st24" d="M1466.89,578.14c2.16-2.95,0.14-7.08-3.55-7.28c-7.04-0.35-16.81,0.25-27.5,4.36
		c-11.31,4.36-19.18,10.95-24.09,16.08c-2.34,2.46-1.31,6.48,1.93,7.54c9.21,2.96,18.42,5.92,27.63,8.89
		c1.92,0.62,4.03-0.06,5.21-1.68C1453.32,596.73,1460.1,587.43,1466.89,578.14z"/>
	<path class="st24" d="M1530.42,584.15c2.16-2.95,0.14-7.08-3.55-7.28c-7.04-0.35-16.81,0.25-27.5,4.36
		c-11.31,4.36-19.18,10.95-24.09,16.08c-2.34,2.46-1.31,6.48,1.93,7.54c9.21,2.96,18.42,5.92,27.63,8.89
		c1.92,0.62,4.03-0.06,5.21-1.68C1516.84,602.75,1523.62,593.46,1530.42,584.15z"/>
	<path class="st24" d="M1591.32,597.91c2.16-2.95,0.14-7.08-3.55-7.28c-7.04-0.35-16.81,0.25-27.5,4.36
		c-11.31,4.36-19.18,10.95-24.09,16.08c-2.34,2.46-1.31,6.48,1.93,7.54c9.21,2.96,18.42,5.92,27.63,8.89
		c1.92,0.62,4.03-0.06,5.21-1.68C1577.76,616.5,1584.54,607.2,1591.32,597.91z"/>
	<path class="st24" d="M1645.28,616.81c2.16-2.95,0.14-7.08-3.55-7.28c-7.04-0.35-16.81,0.25-27.5,4.36
		c-11.31,4.36-19.18,10.95-24.09,16.08c-2.34,2.46-1.31,6.48,1.93,7.54c9.21,2.96,18.42,5.92,27.63,8.89
		c1.92,0.62,4.03-0.06,5.21-1.68C1631.71,635.42,1638.5,626.11,1645.28,616.81z"/>
	<path class="st24" d="M1695.42,638.37c2.44-2.75,0.82-7.04-2.83-7.57c-6.97-1.02-16.77-1.33-27.79,1.77
		c-11.67,3.28-20.14,9.09-25.52,13.75c-2.58,2.23-1.93,6.33,1.2,7.68c8.88,3.82,17.77,7.62,26.65,11.44
		c1.86,0.8,4.01,0.32,5.34-1.18C1680.12,655.6,1687.77,646.99,1695.42,638.37z"/>
	<path class="st24" d="M1741.26,673.18c3.24-1.75,3.23-6.33-0.02-8.07c-6.19-3.32-15.28-6.95-26.71-7.79
		c-12.1-0.9-22.08,1.69-28.75,4.22c-3.19,1.21-4.02,5.28-1.55,7.61c7.01,6.61,14.02,13.2,21.03,19.81c1.46,1.38,3.66,1.66,5.44,0.71
		C1720.89,684.16,1731.07,678.67,1741.26,673.18z"/>
	<path class="st24" d="M1784.57,715.21c3.55-1.01,4.55-5.49,1.77-7.88c-5.31-4.58-13.37-10.09-24.33-13.38
		c-11.61-3.49-21.92-3.14-28.99-2.09c-3.38,0.49-5.1,4.28-3.2,7.1c5.38,7.96,10.75,15.91,16.13,23.87c1.12,1.66,3.2,2.41,5.14,1.86
		C1762.26,721.51,1773.41,718.36,1784.57,715.21z"/>
	<path class="st24" d="M1808.04,793.14c3.5,1.17,6.9-1.95,6-5.49c-1.72-6.75-5.17-15.81-12.28-24.69
		c-7.53-9.4-16.21-14.91-22.62-18.03c-3.06-1.5-6.66,0.65-6.72,4.03c-0.17,9.57-0.33,19.13-0.5,28.69c-0.04,2,1.24,3.79,3.16,4.43
		C1786.06,785.77,1797.05,789.46,1808.04,793.14z"/>
	<path class="st24" d="M1796.99,841.74c2.65,2.54,7.08,1.16,7.8-2.41c1.38-6.83,2.19-16.48-0.39-27.51
		c-2.73-11.69-8.18-20.33-12.62-25.87c-2.12-2.65-6.3-2.23-7.82,0.8c-4.3,8.58-8.6,17.15-12.89,25.72c-0.9,1.78-0.52,3.94,0.93,5.34
		C1780.32,825.78,1788.65,833.76,1796.99,841.74z"/>
	<path class="st25" d="M1274.02,230.65c-16.95-1.27-33.89-2.54-50.83-3.82c-3.17-0.24-5.1,3.38-3.11,5.83
		c7.08,8.68,14.15,17.38,21.23,26.06c1.24,1.52,3.47,1.78,5.04,0.6c9.87-7.41,19.73-14.83,29.6-22.24
		C1278.6,235.09,1277.35,230.91,1274.02,230.65z"/>
	<path class="st25" d="M1295.77,264.18c-16.95-1.27-33.89-2.54-50.83-3.82c-3.17-0.24-5.1,3.38-3.11,5.83
		c7.08,8.68,14.15,17.38,21.23,26.06c1.24,1.52,3.47,1.78,5.04,0.6c9.87-7.41,19.73-14.83,29.6-22.24
		C1300.36,268.62,1299.11,264.42,1295.77,264.18z"/>
	<path class="st25" d="M1298.29,321.71c-11.78-12.09-23.56-24.2-35.35-36.29c-2.2-2.26-6.09-0.84-6.25,2.31
		c-0.58,11.13-1.15,22.27-1.73,33.41c-0.1,1.94,1.38,3.61,3.35,3.76c12.36,0.96,24.72,1.92,37.08,2.88
		C1298.72,328.04,1300.61,324.08,1298.29,321.71z"/>
	<path class="st25" d="M1286.87,419.32c-8.2-14.7-16.4-29.41-24.59-44.11c-1.54-2.76-5.66-2.37-6.64,0.63
		c-3.49,10.61-6.97,21.21-10.46,31.82c-0.61,1.85,0.39,3.84,2.24,4.5c11.68,4.1,23.37,8.2,35.05,12.3
		C1285.62,425.55,1288.48,422.21,1286.87,419.32z"/>
	<path class="st25" d="M1279.03,469.18c-8.2-14.7-16.4-29.41-24.59-44.11c-1.54-2.76-5.66-2.37-6.64,0.63
		c-3.49,10.61-6.97,21.21-10.46,31.82c-0.61,1.85,0.39,3.84,2.24,4.5c11.68,4.1,23.37,8.2,35.05,12.3
		C1277.78,475.4,1280.65,472.07,1279.03,469.18z"/>
	<path class="st25" d="M1274.69,513.01c-8.2-14.7-16.4-29.41-24.59-44.11c-1.54-2.76-5.66-2.37-6.64,0.63
		c-3.49,10.61-6.97,21.21-10.46,31.82c-0.61,1.85,0.39,3.84,2.24,4.5c11.68,4.1,23.37,8.2,35.05,12.3
		C1273.44,519.24,1276.3,515.91,1274.69,513.01z"/>
	<path class="st25" d="M1182.61,233.09c-14.8,2.01-29.58,4.01-44.38,6.02c9.01-11.17,22.32-25.33,40.9-38.68
		c20.63-14.84,40.35-23.37,54.82-28.37c3.77-0.28,7.54-0.57,11.32-0.86c-13.81,5.93-24.26,12.35-31.32,17.19
		c-8.98,6.16-14.63,10.1-20.02,17.19C1186.1,215.9,1183.56,226.65,1182.61,233.09z"/>
	<path class="st25" d="M1309.66,178.94c-12.72,3.17-34.33,10.34-55.7,27.51c-15.38,12.36-25.28,25.6-31.32,35.25
		c-15.08-5.73-30.16-11.46-45.25-17.19c20.29-10.46,43.23-21.05,68.74-30.95c22.78-8.83,44.4-15.86,64.4-21.49
		c2,0.18,3.47,1.78,3.48,3.45C1314.03,177.43,1312.04,179.25,1309.66,178.94z"/>
	<g>
		<path class="st26" d="M1545.3,937.22c-22.31,2.74-34.77-0.48-62.99-2.94c-14.68-1.28-36.26-2.59-63.03-2.05
			c2.11,3.57,4.22,7.16,6.33,10.72c-20.14,3.41-39.35,12.01-55.22,24.74c18.68,1.17,37.37,2.34,56.04,3.51
			c1.72,0.11,3.59,0.27,4.86,1.41c1.28,1.15,1.35,3.64-0.25,4.28c22.74,0.72,40.24-19.39,61.75-26.7
			c13.39-4.55,17.38-1.76,36.23-5.47c33.85-6.66,58.24-17.47,58.06-18.05C1586.93,926.22,1570.19,934.17,1545.3,937.22z"/>
	</g>
	<path class="st26" d="M1788.28,840.85c-21.12,39.91-58.3,56.49-91.37,70.49c-78.3,33.14-154.99,32.38-205.37,26.64
		c22.81-0.68,57-3.16,97.46-12.03c69.23-15.19,132.58-28.83,159.25-78.23c6.37-11.8,20.53-43.92,5.22-98
		c16.24,4.58,32.49,9.17,48.74,13.75C1803.89,780.38,1804.3,810.58,1788.28,840.85z"/>
	<path class="st27" d="M1443.67,906.19c-57.06,7.5-72.83,3.52-74.84-2.58c-1.88-5.72,7.28-16.48,18.28-19.77
		c10.37-3.1,19.43,1.34,21.76,2.58c-1.23-7.96-2.08-17.54-1.74-28.37c0.43-13.99,2.72-25.95,5.22-35.25
		c-6.77-1.57-15.64-4.35-25.24-9.46c-11.06-5.89-19.07-12.76-24.36-18.06c-1.74-14.61-3.48-29.23-5.22-43.84
		c18.74-0.12,38.19,0.13,58.3,0.86c24.22,0.87,47.45,2.36,69.62,4.3C1471.52,806.46,1457.59,856.33,1443.67,906.19z"/>
	<path class="st26" d="M1554.19,793.57c-35.59-2.07-71.19-4.13-106.78-6.2c-6.16-0.35-10.65-5.93-9.61-11.94
		c3.12-18.01,6.24-36.03,9.36-54.06c46.41-3.15,92.82-6.3,139.23-9.46C1575.65,739.13,1564.93,766.35,1554.19,793.57z"/>
	<path class="st26" d="M1534.62,737.7c-50.78,4.31-76.16,6.48-103.56,13.75c-13.9,3.69-30.65,9.01-55.7,11.18
		c-21.43,1.86-39.31,0.58-51.34-0.86c0.15-23.07,0.29-46.13,0.43-69.2c0-20.63,0-41.26,0-61.89c6.91-8.67,25.6-29.6,57-37.39
		c12.92-3.21,24.43-3.31,33.07-2.58c24.06-0.9,54.96-0.43,90.5,4.3c16.4,2.18,57.85,8.48,109.64,26.64
		c49.21,17.26,83.79,29.38,119.22,59.32c18.45,15.59,47.03,44.36,68.74,91.98c-64.26-27.91-118.45-36.13-154.03-38.68
		C1608.68,731.41,1573.71,734.38,1534.62,737.7z"/>
	<path class="st28" d="M1763.04,833.12c0.11-10.64-1.18-37.92-20.88-60.18c-12.85-14.51-27.94-20.57-40.9-25.79
		c-21.27-8.54-38.86-9.8-60.92-11.18c-17.05-1.07-40.95-1.3-69.62,2.58c3.48-17.19,6.96-34.39,10.44-51.57
		c18.55-2.39,61.11-5.27,107.04,16.33c28.59,13.45,47.87,31.4,59.18,43.84c4.98,5.29,17.22,19.69,20.88,42.12
		C1771.66,810.03,1765.87,826.37,1763.04,833.12z"/>
	<path class="st28" d="M1442.81,754.03c-16.17,3.12-34.88,5.72-55.7,6.87c-21.72,1.21-41.34,0.58-58.3-0.86
		c1.16-22.92,2.32-45.85,3.48-68.77c19.39,0.02,40.36-0.72,62.66-2.58c20.15-1.68,39.04-4.06,56.56-6.87
		C1448.61,705.89,1445.71,729.96,1442.81,754.03z"/>
	<path class="st27" d="M1227.86,907.05c-48.46,4.43-62.11,0.84-63.52-4.3c-1.45-5.26,9.57-13.33,11.32-14.61
		c9.45-6.93,19.48-6.98,22.62-6.87c-19.44-68.77-38.87-137.54-58.3-206.31c39.16,32.09,78.32,64.19,117.48,96.28
		C1247.59,816.5,1237.72,861.77,1227.86,907.05z"/>
	<path class="st29" d="M1263.76,543.42c3.55,6.59,7.1,13.18,10.66,19.77c-13.61,64.47-27.23,128.95-40.85,193.42
		c-20.49-8.38-71.89-32.69-96.79-85.96c-28.1-60.11-6.9-123.84-1.78-139.26c12.05-36.24,45.28-102.62,55.05-144.42
		c1.17-4.98,3.06-14.15,1.78-25.79c-2.06-18.67-11.08-32.8-17.76-41.26c14.7-3.45,32.66-6.55,53.28-7.74
		c21.14-1.21,39.78-0.12,55.05,1.71c0.39,11.37,0.57,28.75-0.89,49.86c-3.23,46.73-11.64,67.47-15.99,111.75
		C1264.04,490.83,1262.5,514.22,1263.76,543.42z"/>
	<path class="st30" d="M1234.82,362.9c-13.06,4.87-26.1,9.74-39.16,14.61c1.11-5.46,3.4-20.59-4.35-36.96
		c-5.28-11.18-12.95-18.06-17.4-21.49c22.62-1.71,45.25-3.45,67.88-5.16C1239.46,330.23,1237.14,346.56,1234.82,362.9z"/>
	<path class="st26" d="M1282.69,313.04c-32.49-0.22-69.04,1.33-108.78,6.02c-47.28,5.57-89.33,14.41-125.31,24.07
		c-4.15-9.04-8.41-22.42-5.22-36.96c6.05-27.59,34.84-40.79,80.93-61.89c38.7-17.73,62.61-28.19,91.37-20.63
		c3.75,0.98,18.9,5.26,33.94,18.06C1280.03,267.57,1282.37,304.87,1282.69,313.04z"/>
	
		<ellipse transform="matrix(0.8587 -0.5125 0.5125 0.8587 17.2175 627.7435)" class="st31" cx="1147.02" cy="282.65" rx="13.01" ry="11.2"/>
	
		<ellipse transform="matrix(0.8533 -0.5214 0.5214 0.8533 21.0267 638.0382)" class="st30" cx="1144.49" cy="281.65" rx="9.3" ry="7.58"/>
	<path class="st30" d="M1166.95,265.76c-3.88-1.05-11.76-2.59-20.88,0c-16.97,4.82-24.13,19.92-25.24,22.35c0,2.58,0,5.16,0,7.74
		c2.65-3.94,9.12-12.41,20.88-18.06c10.71-5.13,20.47-5.36,25.24-5.16c0.17-0.13,1.74-1.33,1.74-3.45
		C1168.69,268.98,1168.66,267.02,1166.95,265.76z"/>
	<g>
		<g>
			<path class="st30" d="M1067.07,316.96c0.69-1.17,1.73-2.03,2.81-2.83c1.25-0.94,2.54-1.82,3.85-2.66
				c2.6-1.65,5.31-3.11,8.11-4.37c0.57-0.26,0.7-1.09,0.42-1.58c-0.33-0.59-1.02-0.67-1.59-0.42c-2.97,1.34-5.84,2.9-8.58,4.68
				c-1.33,0.87-2.64,1.78-3.89,2.75c-1.22,0.94-2.35,1.94-3.13,3.28C1064.31,317.07,1066.32,318.25,1067.07,316.96L1067.07,316.96z"
				/>
		</g>
	</g>
	<g>
		<g>
			<path class="st30" d="M1068.96,316.42c-0.08-0.84-0.65,1.39-0.27,0.85c0.25-0.35-0.58,0.64-0.09,0.09
				c0.22-0.25,0.44-0.49,0.67-0.73c0.45-0.49,0.91-0.96,1.39-1.42c1.01-0.98,2.07-1.89,3.16-2.77c0.36-0.28-0.55,0.41-0.18,0.14
				c0.15-0.11,0.29-0.22,0.44-0.34c0.27-0.2,0.53-0.4,0.81-0.58c0.57-0.41,1.16-0.79,1.76-1.17c1.19-0.74,2.42-1.42,3.69-2.04
				c1.64-0.8,2.22-3.26,1.25-4.76c-1.08-1.68-3.01-2.11-4.76-1.25c-2.97,1.46-5.7,3.28-8.27,5.35c-1.18,0.95-2.3,1.96-3.36,3.04
				c-1.48,1.5-3.4,3.3-3.19,5.6c0.16,1.81,1.49,3.57,3.48,3.48C1067.23,319.82,1069.13,318.36,1068.96,316.42L1068.96,316.42z"/>
		</g>
	</g>
	<path class="st28" d="M1200.02,573.51c-4.36,37.01-2.86,97.63,35.68,183.97c-20.16-6.94-65.1-25.89-91.37-71.35
		c-31.11-53.82-17.27-112.33-11.32-137.54c7.7-32.58,16.72-38.22,40.03-102.3c11.51-31.64,19.44-58.1,24.36-75.65
		c9-14.9,17.98-29.8,26.98-44.7c4.93,0.57,9.86,1.15,14.8,1.71c-3.19,23.78-6.38,47.56-9.58,71.35
		c-2.27,12.12-5.65,30.31-9.58,52.44C1217.22,467.31,1203.23,546.28,1200.02,573.51z"/>
	<g>
		<g>
			<path class="st32" d="M1185.71,415.24c13.81-4.8,27.25-10.64,40.17-17.48c1.32-0.7,0.15-2.69-1.17-2.01
				c-12.74,6.75-25.99,12.52-39.61,17.24C1183.69,413.49,1184.29,415.73,1185.71,415.24L1185.71,415.24z"/>
		</g>
	</g>
	<g>
		<g>
			<path class="st32" d="M1159.48,477.15c12.71-4.52,25.42-9.05,38.12-13.58c3.63-1.29,7.26-2.58,10.89-3.88
				c1.4-0.49,0.8-2.74-0.62-2.24c-12.71,4.52-25.42,9.05-38.12,13.58c-3.63,1.29-7.26,2.58-10.89,3.88
				C1157.46,475.41,1158.07,477.64,1159.48,477.15L1159.48,477.15z"/>
		</g>
	</g>
	<g>
		<g>
			<path class="st32" d="M1135.77,547.66c16.68-7.01,33.54-13.57,50.58-19.65c4.85-1.73,9.72-3.42,14.6-5.07
				c1.41-0.48,0.8-2.72-0.62-2.24c-17.13,5.8-34.11,12.08-50.89,18.83c-4.78,1.93-9.54,3.88-14.29,5.87
				c-0.58,0.25-0.98,0.77-0.81,1.43C1134.48,547.39,1135.19,547.9,1135.77,547.66L1135.77,547.66z"/>
		</g>
	</g>
	<g>
		<g>
			<path class="st32" d="M1127,612.02c16.83-9.53,34.24-18.06,52.12-25.44c5.06-2.08,10.16-4.09,15.28-6.01
				c1.38-0.52,0.79-2.76-0.62-2.24c-18.32,6.85-36.21,14.8-53.55,23.84c-4.85,2.53-9.65,5.14-14.4,7.84
				C1124.54,610.75,1125.71,612.77,1127,612.02L1127,612.02z"/>
		</g>
	</g>
	<g>
		<g>
			<path class="st32" d="M1140.76,675.92c14.53-9.89,29.07-19.81,43.6-29.7c4.14-2.82,8.28-5.64,12.41-8.45
				c1.23-0.84,0.07-2.84-1.17-2.01c-14.53,9.89-29.07,19.81-43.6,29.7c-4.14,2.82-8.28,5.64-12.41,8.45
				C1138.37,674.75,1139.53,676.77,1140.76,675.92L1140.76,675.92z"/>
		</g>
	</g>
	<g>
		<g>
			<path class="st32" d="M1182.69,724.74c10.75-9.34,21.51-18.68,32.26-28c1.13-0.98-0.52-2.61-1.64-1.64
				c-10.75,9.34-21.51,18.68-32.26,28C1179.92,724.08,1181.57,725.71,1182.69,724.74L1182.69,724.74z"/>
		</g>
	</g>
	<g>
		<g>
			<path class="st28" d="M1263.99,612.65c1.49,0,1.49-2.32,0-2.32S1262.5,612.65,1263.99,612.65L1263.99,612.65z"/>
		</g>
	</g>
	<path class="st26" d="M1307.92,908.77c-49.72,3.75-61.44-0.47-62.66-5.16c-1.35-5.18,9.44-13.54,16.54-17.19
		c8.02-4.13,15.5-4.4,19.14-4.3c-6.91-12.79-14.12-28.61-20.02-47.28c-8.26-26.19-11.27-49.66-12.18-67.92
		c27.26-1.71,54.54-3.45,81.8-5.16c0.54,21.75-0.49,48-5.22,77.37C1320.99,866.04,1314.55,889.43,1307.92,908.77z"/>
	<g>
		<path class="st26" d="M1330.55,761.77c-4.76,3.52-23.23,16.29-49.6,14.61c-24.63-1.57-40.61-14.78-45.25-18.91
			c11.32-67.92,22.62-135.82,33.94-203.74c7.77,10.19,17.25,21.32,28.72,32.67c14.01,13.86,27.77,24.89,40.03,33.53
			C1335.77,667.21,1333.16,714.49,1330.55,761.77z"/>
		<g>
			<g>
				<path class="st28" d="M1263.33,617.13c3.64,0,7.13-3.2,6.96-6.96c-0.17-3.77-3.06-6.96-6.96-6.96c-3.64,0-7.13,3.2-6.96,6.96
					C1256.54,613.94,1259.43,617.13,1263.33,617.13L1263.33,617.13z"/>
			</g>
		</g>
		<g>
			<g>
				<path class="st28" d="M1278.66,632.93c3.64,0,7.13-3.2,6.96-6.96c-0.17-3.77-3.06-6.96-6.96-6.96c-3.64,0-7.13,3.2-6.96,6.96
					C1271.86,629.75,1274.76,632.93,1278.66,632.93L1278.66,632.93z"/>
			</g>
		</g>
		<g>
			<g>
				<path class="st28" d="M1263.99,644.78c3.64,0,7.13-3.2,6.96-6.96c-0.17-3.77-3.06-6.96-6.96-6.96c-3.64,0-7.13,3.2-6.96,6.96
					C1257.2,641.6,1260.09,644.78,1263.99,644.78L1263.99,644.78z"/>
			</g>
		</g>
		<g>
			<g>
				<path class="st28" d="M1241.33,631.62c3.64,0,7.13-3.2,6.96-6.96c-0.17-3.77-3.06-6.96-6.96-6.96c-3.64,0-7.13,3.2-6.96,6.96
					C1234.54,628.43,1237.43,631.62,1241.33,631.62L1241.33,631.62z"/>
			</g>
		</g>
	</g>
	<path class="st27" d="M1738.68,284.67c-27.07,1.9-49.11,4.99-65.26,7.74c-10.76,1.83-19.11,3.53-27.84,9.46
		c-13.88,9.42-19.94,23.52-22.62,31.8c-32.74,1.74-71.75,6.26-114.87,16.33c-37.48,8.75-70.13,19.86-97.46,30.95
		c0.89,8.4,2.36,21.97,4.35,38.68c6.01,50.32,7.94,55.19,5.22,65.34c-5.28,19.66-21.58,31.15-53.96,53.3
		c-17.08,11.69-42.31,26.94-75.71,40.41c-5.22-6.02-10.44-12.03-15.66-18.06c11.91-3.64,29.45-10.37,47.86-23.22
		c12.28-8.56,23.92-16.67,33.07-30.95c18.48-28.82,13.24-61.58,10.44-79.09c-1.97-12.33-6.64-31.7-19.14-53.3
		c38.34-22.79,90.58-48.59,155.77-67.05C1599.39,279.67,1683.45,279.96,1738.68,284.67z"/>
	<path class="st26" d="M1884,373.21c-6.18-0.83-127.5-16.26-147.06,21.49c-6,11.58-4.35,22.35-4.35,22.35
		c2.47,16.07,17.24,25.42,33.07,36.1c44.67,30.16,64.27,48.32,64.4,48.15c0.16-0.23-31.94-31.51-80.06-43.84
		c-41.21-10.56-70.79-1.23-79.19,1.71c-14.3,5.03-34.8,12.23-42.64,30.09c-10.53,23.97,9.42,49.6,2.61,54.16
		c-7.02,4.69-24.87-24.81-55.7-36.96c-44.23-17.45-93.58,9.36-117.48,22.35c-54.87,29.81-82.42,75.88-93.98,98.86
		c-10.87-1.06-24.36-3.44-39.16-8.6c-25.4-8.86-43.62-22.11-54.82-31.8c44.35-19.62,78.17-40.41,101.82-56.73
		c27.88-19.25,38.62-30.2,42.64-45.56c3.82-14.6-0.81-24.09-4.35-57.59c-2.11-19.95-2.56-36.4-2.61-47.28
		c48.4-19.81,124.73-44.28,221.03-48.15C1741.75,327.4,1831.75,353.6,1884,373.21z"/>
	<g>
		<g>
			<path class="st32" d="M1408.83,689.84c0.13,18.2-3.96,36.38-11.86,52.78c-2.26,4.68-4.83,9.21-7.67,13.58
				c-0.82,1.25,1.19,2.42,2,1.17c10.16-15.56,16.64-33.39,18.94-51.83c0.65-5.2,0.95-10.45,0.91-15.69
				C1411.13,688.35,1408.81,688.34,1408.83,689.84L1408.83,689.84z"/>
		</g>
	</g>
	<g>
		<g>
			<path class="st32" d="M1365.63,693.51c-4.12,18.31-11.38,35.86-21.37,51.74c-2.81,4.45-5.82,8.78-9.04,12.95
				c-0.39,0.5-0.48,1.15,0,1.64c0.39,0.41,1.26,0.49,1.64,0c11.67-15.1,20.76-32.12,26.74-50.26c1.68-5.08,3.09-10.25,4.27-15.46
				C1368.19,692.67,1365.96,692.04,1365.63,693.51L1365.63,693.51z"/>
		</g>
	</g>
	<path class="st26" d="M1519.5,906.44c-59.22,7.84-74.74,4.25-76.28-1.35c-1.49-5.42,9.34-15.65,20.18-19.62
		c8.78-3.22,16.51-1.95,20.03-1.13c-1.58-8.83-2.78-19.68-2.61-32.09c0.22-15.51,2.53-28.75,5.07-38.96
		c-8.48-3.07-17.04-6.25-25.67-9.52c-4.9-1.86-9.77-3.73-14.6-5.6c-6.01-2.33-9.36-8.83-7.87-15.28c1.55-6.73,3.09-13.45,4.64-20.18
		c33.87,5.27,67.74,10.53,101.61,15.8c7.22,1.12,11.72,8.51,9.54,15.67L1519.5,906.44z"/>
	<g>
		<g>
			<path class="st32" d="M1697.31,742.26c5.59-7.43,11.19-14.86,16.78-22.3c0.9-1.19-1.11-2.35-2-1.17
				c-5.59,7.43-11.19,14.86-16.78,22.3C1694.41,742.27,1696.42,743.44,1697.31,742.26L1697.31,742.26z"/>
		</g>
	</g>
	<g>
		<g>
			<path class="st32" d="M1647.07,731.99c5.92-10.5,10.53-21.72,13.71-33.35c0.39-1.45-1.85-2.06-2.24-0.62
				c-3.12,11.44-7.64,22.46-13.47,32.8C1644.33,732.12,1646.33,733.3,1647.07,731.99L1647.07,731.99z"/>
		</g>
	</g>
	<g>
		<g>
			<path class="st32" d="M1603.07,685.86c-1.4,15.03-5.27,29.81-11.39,43.6c-0.6,1.35,1.4,2.54,2,1.17
				c4.9-11.02,8.42-22.62,10.39-34.52c0.56-3.4,1-6.82,1.32-10.26C1605.53,684.38,1603.21,684.38,1603.07,685.86L1603.07,685.86z"/>
		</g>
	</g>
	<path class="st0" d="M198.83,433.67c-1.72,8.52,15.96,23.68,43.32,34.27c3.12-14.59,6.24-29.2,9.36-43.78
		C222.43,420.09,200.56,425.11,198.83,433.67z"/>
	<path class="st0" d="M548.07,306.99c-6.37-4.95-25.31,8.09-44.08,33c10.84,8.66,21.67,17.31,32.51,25.97
		C550.54,336.84,554.46,311.96,548.07,306.99z"/>
	<path class="st0" d="M576.67,385.53c-4.68-6.96-26.27-1.32-51.01,15.65c7.88,12.08,15.77,24.14,23.65,36.22
		C570.73,414.74,581.37,392.52,576.67,385.53z"/>
	<path class="st0" d="M218.07,344.27c-4.53,7.08,6.48,28.87,27.98,50.77c7.92-12.04,15.85-24.08,23.77-36.12
		C244.48,342.27,222.61,337.17,218.07,344.27z"/>
	<path class="st0" d="M260.16,270.99c-5.81,5.77,3.11,33.42,23.25,65.35c10.11-9.72,20.22-19.43,30.33-29.15
		C288.77,279.33,265.99,265.19,260.16,270.99z"/>
	<path class="st0" d="M365.59,219.85c-7.58,1.7-12.12,30.67-8.84,69.74c13.05-2.66,26.1-5.33,39.15-7.98
		C386.65,243.33,373.21,218.15,365.59,219.85z"/>
	<path class="st0" d="M483.27,241.15c-7.5-2.14-22.53,21.86-34.31,58.77c12.8,3.91,25.61,7.83,38.41,11.74
		C493.45,272.57,490.79,243.3,483.27,241.15z"/>
	<path class="st33" d="M385.11,276.62c-65.72,4.77-123.37,56.24-144.38,129.52v356.42v36.74v97.38h102.2v-97.37h105.44v101.96h102.2
		V799.31c0-10.72,0-21.43,0-32.16c0-120.34,0-240.67,0-361.01C526.81,324.45,457.96,271.33,385.11,276.62z"/>
	<g>
		<path class="st34" d="M346.99,916.14H235.06c-0.31-6.42,0.01-18.22,6.49-28.47c11.02-17.44,31.97-17.97,47.86-18.37
			c15.78-0.4,32.17-0.81,44.61,12.86C344.74,893.94,346.58,909.69,346.99,916.14z"/>
		<path class="st35" d="M256.14,916.14h-19.47v-15.62c1.65-1,4.77-2.57,8.92-2.76c5.06-0.23,8.85,1.74,10.55,2.76
			C256.14,905.72,256.14,910.92,256.14,916.14z"/>
		<path class="st35" d="M286.97,916.14H267.5v-15.62c1.65-1,4.77-2.57,8.92-2.76c5.06-0.23,8.85,1.74,10.55,2.76
			C286.97,905.72,286.97,910.92,286.97,916.14z"/>
		<path class="st35" d="M317.79,916.14h-19.47v-15.62c1.65-1,4.77-2.57,8.92-2.76c5.06-0.23,8.85,1.74,10.55,2.76
			C317.79,905.72,317.79,910.92,317.79,916.14z"/>
	</g>
	<g>
		<path class="st34" d="M441.81,916.14h111.94c0.31-6.42-0.01-18.22-6.49-28.47c-11.02-17.44-31.97-17.97-47.86-18.37
			c-15.78-0.4-32.17-0.81-44.61,12.86C444.06,893.94,442.23,909.69,441.81,916.14z"/>
		<path class="st35" d="M532.66,916.14h19.47v-15.62c-1.65-1-4.77-2.57-8.92-2.76c-5.06-0.23-8.85,1.74-10.55,2.76
			C532.66,905.72,532.66,910.92,532.66,916.14z"/>
		<path class="st35" d="M501.83,916.14h19.47v-15.62c-1.65-1-4.77-2.57-8.92-2.76c-5.06-0.23-8.85,1.74-10.55,2.76
			C501.83,905.72,501.83,910.92,501.83,916.14z"/>
		<path class="st35" d="M471.01,916.14h19.47v-15.62c-1.65-1-4.77-2.57-8.92-2.76c-5.06-0.23-8.85,1.74-10.55,2.76
			C471.01,905.72,471.01,910.92,471.01,916.14z"/>
	</g>
	<g>
		<path class="st36" d="M527.87,644.07c-25.49,59.44-105.16,57.65-136.27,56.95c-32.92-0.74-106.01-2.38-128.97-58.79
			c-15.28-37.54-5.47-92.23,21.9-112.07c25.29-18.33,44.8,8.14,108.69,9.19c68.12,1.11,90.02-28.25,115.99-8.27
			C536,551.7,543.82,606.87,527.87,644.07z"/>
		<path class="st37" d="M403.77,581.6c15.09,0.67,32.88-19.27,30.02-45.93c-7.79,1.78-17.07,3.26-27.58,3.67
			c-11.48,0.46-21.62-0.48-30.01-1.84C374.22,562.13,389.64,580.97,403.77,581.6z"/>
		<path class="st37" d="M301.36,545.77c4.51,0.2,8.13-4.38,8.87-5.34c4.91-6.36,3.7-14.55,3.5-15.79
			c-2.84-0.81-7.42-1.71-12.98-0.92c-4.59,0.65-8.22,2.22-10.64,3.53C289.31,537.6,295.6,545.5,301.36,545.77z"/>
		<path class="st37" d="M498.17,548.53c-4.51,0.2-8.13-4.38-8.87-5.34c-4.91-6.36-3.7-14.55-3.5-15.79
			c2.84-0.81,7.42-1.71,12.98-0.92c4.59,0.65,8.22,2.22,10.64,3.53C510.22,540.35,503.93,548.26,498.17,548.53z"/>
		<path class="st37" d="M342.71,581.29c4.42,1.1,9.75-6.92,12.42-10.92c8.42-12.63,8.35-26.75,8.09-31.94
			c-4.33-1.22-8.65-2.45-12.98-3.67c-5.41-1.53-10.82-3.07-16.22-4.59C333.98,570.25,338.39,580.22,342.71,581.29z"/>
		<path class="st37" d="M465.72,577.62c-4.42,1.1-9.75-6.92-12.42-10.92c-8.42-12.63-8.35-26.75-8.09-31.94
			c4.33-1.22,8.65-2.45,12.98-3.67c5.41-1.53,10.82-3.07,16.22-4.59C474.44,566.57,470.03,576.56,465.72,577.62z"/>
		<path class="st37" d="M306.85,661.55c4.35,1.37,6.56,7,7,8.16c2.96,7.77-0.42,15.14-0.93,16.24c-2.93-0.2-7.53-0.95-12.6-3.63
			c-4.19-2.21-7.23-4.96-9.18-7.05C293.16,665.14,301.29,659.79,306.85,661.55z"/>
		<path class="st37" d="M496.38,656.45c-4.16,1.96-5.74,7.86-6.06,9.08c-2.08,8.11,2.06,14.96,2.71,15.98
			c2.88-0.62,7.36-2,12.11-5.36c3.92-2.78,6.62-5.95,8.34-8.29C510.35,658.1,501.71,653.93,496.38,656.45z"/>
		<path class="st38" d="M467.04,692.75c-2.49,3.7-11.71,4.57-30.01,6.43c-10.39,1.06-26.72,2.29-48.26,1.84
			c-7.59-0.16-15.2-0.72-30.42-1.84c-21.04-1.54-22.76-1.77-24.33-3.67c-11.97-14.49,16.57-78.98,38.94-77.16
			c11.23,0.9,14.94,18.06,27.58,17.46c12.2-0.58,14.63-16.84,25.14-18.37C446.95,614.31,479.16,674.73,467.04,692.75z"/>
		<path class="st37" d="M403.77,653.88c14.49-0.7,32.37,18.9,30.02,45.93c-9.68,0.59-19.69,1.01-30.02,1.21
			c-9.17,0.17-18.1,0.16-26.77,0C373.61,674.91,389.6,654.57,403.77,653.88z"/>
		<path class="st37" d="M457.89,646.84c4.42-1.1,9.75,6.92,12.42,10.92c8.42,12.63,8.35,26.75,8.09,31.94
			c-4.33,1.22-8.65,2.45-12.98,3.67c-5.41,1.53-10.82,3.07-16.22,4.59C449.16,657.87,453.57,647.91,457.89,646.84z"/>
		<path class="st37" d="M345.67,646.84c-4.35-1.07-9.49,6.56-12.42,10.92c-9.16,13.6-9.25,28.94-8.98,35
			c3.25,1.37,7.05,2.69,11.36,3.67c7.25,1.65,13.68,1.85,18.73,1.55C354.4,657.87,349.99,647.91,345.67,646.84z"/>
	</g>
	<g>
		<path class="st39" d="M287.21,424.01c-4.08,27.7,5.63,53.53,24.62,61.41s41.13-4.76,53.81-28.89L287.21,424.01z"/>
		<ellipse class="st40" cx="333.2" cy="464.94" rx="17.03" ry="19.28"/>
	</g>
	<g>
		<path class="st39" d="M503.29,425.86c4.08,27.7-5.63,53.53-24.62,61.41c-18.98,7.87-41.13-4.76-53.81-28.89L503.29,425.86z"/>
		<ellipse class="st40" cx="457.3" cy="466.78" rx="17.03" ry="19.28"/>
	</g>
	<path class="st0" d="M157.18,510.87c-5.92,5.63,0.08,29.79,16.22,56.95c10.28-9.49,20.55-18.98,30.82-28.47
		C183.24,516.19,163.13,505.22,157.18,510.87z"/>
	<g>
		<path class="st41" d="M215.59,832.38c-43.8-2.45-87.6-4.9-131.4-7.34c-2.21-22.37-11.91-140.75,61.64-234.24
			c34-43.22,72.9-64.73,97.33-75.33c-0.27,39.5-0.54,79-0.81,118.5c-2.38,1.29-6.27,3.78-9.73,8.27c-5.49,7.11-6.78,15.15-7.3,18.37
			C223.1,674.39,219.02,741.1,215.59,832.38z"/>
		<g>
			<path class="st42" d="M85.78,821.41c0.64,4.06,1.29,8.14,2.39,12.08c2.64,9.36,8.34,18,16.39,21.68
				c8.05,3.67,18.44,1.22,23.25-6.94c4.19,8.28,12.06,14.02,20.44,14.91c8.39,0.9,17.07-3.08,22.54-10.33
				c5.9,7.13,15.19,10.4,23.61,8.3c8.42-2.09,15.66-9.45,18.4-18.72c1.61-5.44,1.72-11.26,1.81-17c0.01-0.89,0.03-1.79-0.26-2.62
				c-0.8-2.37-3.45-2.97-5.67-3.22c-35.99-4.08-72.09-8.18-108.24-7.08c-5.55,0.17-11.19,0.48-16.44,2.54
				c0.37,2.45,1.11,4.81,2.18,6.98"/>
		</g>
		<rect x="123.93" y="817.68" class="st40" width="4.87" height="29.4"/>
		<rect x="166.11" y="825.95" class="st40" width="4.06" height="23.89"/>
	</g>
	<path class="st43" d="M712.81,597.22c-23.39,59.82-68.14,98.06-113.55,96.45c-21.23-0.75-38.72-10.07-51.1-19.28
		c0.54-51.75,1.08-103.5,1.62-155.25c6.05,4.07,12.03,7.39,17.84,10.11c59.13,27.54,120.46,0.69,147.63-13.78
		C714.43,542.71,713.62,569.97,712.81,597.22z"/>
	<g>
		<path class="st44" d="M656.84,643.15c-16.76,0.92-33.52,1.84-50.29,2.76c-12.35-91.43-24.71-182.86-37.06-274.3
			c20.46-2.57,40.93-5.13,61.39-7.71C639.54,456.98,648.19,550.06,656.84,643.15z"/>
		<path class="st45" d="M639,452.99c-19.47,1.53-38.94,3.07-58.4,4.59c-0.54-5.21-1.08-10.41-1.62-15.62
			c19.74-2.15,39.48-4.28,59.21-6.43C638.46,441.36,638.73,447.18,639,452.99z"/>
		<path class="st45" d="M651.97,606.41c-16.84,1.53-33.67,3.07-50.51,4.59c-0.47-5.21-0.93-10.41-1.4-15.62
			c17.07-2.15,34.14-4.28,51.21-6.43C651.5,594.76,651.74,600.58,651.97,606.41z"/>
		<path class="st46" d="M660.08,657.85c-6.59-1.61-15.15-2.97-25.14-2.76c-11.2,0.24-20.61,2.38-27.58,4.59
			c-1.08-4.28-2.17-8.58-3.25-12.86c18.12-2.45,36.23-4.9,54.35-7.34C659,645.59,659.54,651.72,660.08,657.85z"/>
		<ellipse class="st46" cx="637.37" cy="696.88" rx="46.24" ry="49.15"/>
		<path class="st46" d="M676.31,227.02c-0.36-21.06-0.81-47.77-16.22-74.4c-16.09-27.82-48.36-55.34-89.22-52.36
			c-39.53,2.88-68.25,32.93-81.11,61.55c-9.65,21.45-10.13,41.53-10.55,58.79c-0.5,20.8-1.2,49.88,13.79,78.08
			c13.87,26.1,37.97,45.45,65.16,52.83c0.45,8.42,0.9,16.84,1.35,25.27c10.32-3.06,22.59-5.83,36.5-7.34
			c12.34-1.34,23.54-1.44,33.25-0.92c-0.71-8.27-1.41-16.53-2.12-24.79c8.15-4.41,16.47-10.59,24.02-19.3
			C677.44,294.03,676.75,253.27,676.31,227.02z"/>
		<path class="st47" d="M654.05,129.89c-0.49,3.49-1.47,8.16-3.53,13.31c-1.28,3.22-3.31,7.45-6.48,11.8
			c-3.97,0.21-11.41,0.01-19.74-4.05c-9.16-4.46-14.69-11.28-17.22-14.85c0.53-3.87,1.67-9.2,4.19-14.99
			c1.86-4.27,3.98-7.62,5.82-10.12c3.68-2.61,10.62-6.76,20.06-7.89c6.9-0.83,12.62,0.26,16.38,1.32c0.94,2.71,2.08,6.93,2.24,12.24
			C655.95,122.41,654.91,127.02,654.05,129.89z"/>
		<path class="st47" d="M655.44,290.01c-3.03-0.83-7.07-2.3-11.45-5.02c-2.73-1.7-6.29-4.32-9.88-8.24
			c0.12-4.5,0.89-12.88,5.11-21.98c4.64-9.99,11.08-15.7,14.42-18.28c3.37,0.9,7.97,2.6,12.87,5.91c3.61,2.44,6.4,5.09,8.46,7.36
			c2.01,4.36,5.11,12.51,5.38,23.26c0.19,7.85-1.21,14.23-2.44,18.39c-2.46,0.85-6.27,1.8-10.94,1.57
			C661.88,292.73,657.9,291.19,655.44,290.01z"/>
		<path class="st47" d="M683.25,196.95c-0.49,3.49-1.47,8.16-3.53,13.31c-1.28,3.22-3.31,7.45-6.48,11.8
			c-3.97,0.21-11.41,0.01-19.74-4.05c-9.16-4.46-14.69-11.28-17.22-14.85c0.53-3.87,1.67-9.2,4.19-14.99
			c1.86-4.27,3.98-7.62,5.82-10.12c3.68-2.61,10.62-6.76,20.06-7.89c6.9-0.83,12.62,0.26,16.38,1.32c0.94,2.71,2.08,6.93,2.24,12.24
			C685.15,189.47,684.11,194.08,683.25,196.95z"/>
		<path class="st47" d="M614.23,191.68c0.68,2.17,1.4,5.2,1.6,8.87c0.12,2.29,0.08,5.42-0.62,9.03c-2.35,1.5-6.91,3.96-13.09,4.51
			c-6.8,0.61-12.06-1.4-14.59-2.57c-0.76-2.41-1.57-5.86-1.66-10.06c-0.07-3.09,0.27-5.75,0.69-7.84c1.49-2.77,4.53-7.55,9.93-11.47
			c3.94-2.86,7.72-4.22,10.29-4.91c1.33,1.23,3.2,3.27,4.79,6.25C613.29,186.72,613.95,189.73,614.23,191.68z"/>
		<path class="st47" d="M620.73,253.22c0.68,2.17,1.4,5.2,1.6,8.87c0.12,2.29,0.08,5.42-0.62,9.03c-2.35,1.5-6.91,3.96-13.09,4.51
			c-6.8,0.61-12.06-1.4-14.59-2.57c-0.76-2.41-1.57-5.86-1.66-10.06c-0.07-3.09,0.27-5.75,0.69-7.84c1.49-2.77,4.53-7.55,9.93-11.47
			c3.94-2.86,7.72-4.22,10.29-4.91c1.33,1.23,3.2,3.27,4.79,6.25C619.78,248.27,620.44,251.28,620.73,253.22z"/>
		<path class="st47" d="M552.74,182.7c1.33,1.75,2.96,4.28,4.32,7.61c0.85,2.08,1.81,5.02,2.3,8.67c-1.71,2.36-5.18,6.51-10.77,9.56
			c-6.15,3.35-11.69,3.63-14.42,3.57c-1.48-1.94-3.33-4.81-4.75-8.71c-1.05-2.85-1.58-5.48-1.86-7.58c0.51-3.2,1.82-8.9,5.6-14.76
			c2.77-4.28,5.85-7.1,8.03-8.79c1.63,0.6,4.03,1.74,6.46,3.87C550.28,178.47,551.86,181,552.74,182.7z"/>
		<path class="st47" d="M562.48,248.83c1.33,1.75,2.96,4.28,4.32,7.61c0.85,2.08,1.81,5.02,2.3,8.67
			c-1.71,2.36-5.18,6.51-10.77,9.56c-6.15,3.35-11.69,3.63-14.42,3.57c-1.48-1.94-3.33-4.81-4.75-8.71
			c-1.05-2.85-1.58-5.48-1.86-7.58c0.51-3.2,1.82-8.9,5.6-14.76c2.77-4.28,5.85-7.1,8.03-8.79c1.63,0.6,4.03,1.74,6.46,3.87
			C560.01,244.6,561.6,247.14,562.48,248.83z"/>
		<path class="st47" d="M577.96,104.59c1.15,3.29,2.41,7.86,2.97,13.49c0.35,3.52,0.51,8.3-0.26,13.9c-3.32,2.48-9.81,6.6-18.8,7.93
			c-9.89,1.46-17.72-1.21-21.5-2.81c-1.29-3.64-2.71-8.87-3.15-15.32c-0.32-4.74-0.01-8.85,0.44-12.08
			c1.99-4.38,6.08-11.94,13.69-18.37c5.56-4.7,10.97-7.08,14.69-8.34c2.03,1.79,4.91,4.77,7.44,9.22
			C576.21,97.06,577.4,101.64,577.96,104.59z"/>
		<path class="st47" d="M514.4,121.98c2.33,2.34,5.29,5.79,8.03,10.5c1.71,2.95,3.77,7.16,5.32,12.53
			c-1.97,3.91-6.11,10.92-13.61,16.71c-8.24,6.37-16.28,7.99-20.3,8.5c-2.6-2.59-5.96-6.52-8.92-12.05
			c-2.18-4.06-3.55-7.89-4.43-10.99c0.03-4.91,0.66-13.77,4.87-23.39c3.08-7.03,6.96-11.93,9.77-14.95
			c2.53,0.56,6.28,1.74,10.32,4.42C509.84,116.15,512.72,119.62,514.4,121.98z"/>
		<path class="st47" d="M491.59,188.64c2.84,1.47,6.55,3.78,10.39,7.4c2.39,2.26,5.45,5.6,8.31,10.23
			c-0.88,4.39-3.04,12.46-8.71,20.47c-6.24,8.82-13.52,13.03-17.23,14.83c-3.16-1.62-7.38-4.28-11.63-8.58
			c-3.13-3.17-5.43-6.38-7.07-9.05c-1.25-4.71-2.91-13.39-1.36-23.99c1.14-7.76,3.58-13.71,5.49-17.53
			c2.56-0.3,6.46-0.42,11.01,0.81C485.72,184.59,489.38,186.95,491.59,188.64z"/>
		<path class="st47" d="M488.4,264.98c2.42-2.23,5.9-4.96,10.47-7.25c2.85-1.42,6.84-3.04,11.79-3.9
			c3.09,2.84,8.51,8.61,12.33,17.93c4.2,10.25,4.3,19.5,4.08,24.07c-2.68,2.48-6.66,5.59-11.95,7.99c-3.9,1.77-7.45,2.68-10.3,3.15
			c-4.28-0.83-11.89-2.99-19.59-9.27c-5.63-4.59-9.26-9.73-11.43-13.36c0.9-2.73,2.54-6.74,5.54-10.81
			C482.58,269.13,486.08,266.47,488.4,264.98z"/>
	</g>
	<g>
		<path class="st48" d="M717.67,537.05c-5.14,39.09-43.99,58.28-71.78,59.25c-35.34,1.24-74.4-26.22-77.46-60.63
			c-1.72-19.27,8.38-34.89,11.36-39.5c16.08-24.89,42.85-29.15,61.64-32.15c17.11-2.73,28.51-4.55,41.37,1.84
			C705.16,476.97,721.53,507.74,717.67,537.05z"/>
		<g>
			<g>
				<path class="st49" d="M614.79,478.95c0.91,0.27,1.79,0.59,2.67,0.98c0.16,0.06,0.32,0.14,0.48,0.21
					c0.11,0.05,0.89,0.43,0.19,0.08c0.46,0.24,0.93,0.48,1.38,0.75c1.59,0.92,3.07,2.04,4.52,3.25c0.66,0.56-0.32-0.32,0.07,0.05
					c0.17,0.16,0.33,0.31,0.49,0.47c0.33,0.31,0.64,0.64,0.96,0.96c0.69,0.72,1.34,1.48,1.97,2.27c0.28,0.36,0.56,0.72,0.83,1.1
					c0.16,0.22,0.32,0.46,0.48,0.68c0.52,0.72-0.25-0.41,0.05,0.06c0.54,0.87,1.07,1.74,1.54,2.66c0.46,0.87,0.87,1.76,1.25,2.68
					c0.18,0.43,0.35,0.87,0.52,1.32c-0.28-0.74-0.05-0.13,0.01,0.06c0.1,0.32,0.21,0.63,0.3,0.95c0.28,0.91,0.52,1.84,0.72,2.77
					c0.1,0.48,0.19,0.96,0.28,1.45c0.05,0.29,0.1,0.59,0.14,0.89c0.02,0.13,0.12,1.14,0.03,0.22c0.2,2.16,0.26,4.3,0.1,6.47
					c-0.02,0.26-0.04,0.49-0.06,0.75c0,0.02-0.12,1-0.04,0.41c0.08-0.58-0.06,0.39-0.06,0.41c-0.04,0.3-0.09,0.59-0.14,0.89
					c-0.18,1.09-0.41,2.16-0.69,3.22c-0.25,0.97-0.55,1.92-0.86,2.85c0.24-0.72,0.03-0.08-0.04,0.1c-0.09,0.23-0.17,0.47-0.27,0.69
					c-0.22,0.55-0.45,1.1-0.7,1.63c-0.41,0.9-0.85,1.76-1.33,2.61c-0.24,0.42-0.48,0.84-0.74,1.25c-0.06,0.1-0.6,0.89-0.15,0.23
					c-0.17,0.24-0.33,0.48-0.49,0.71c-0.59,0.82-1.2,1.61-1.86,2.36c-0.35,0.39-0.7,0.78-1.06,1.15c-0.13,0.14-0.26,0.26-0.4,0.4
					c-0.1,0.1-0.98,0.9-0.39,0.39c-1.47,1.3-3.05,2.43-4.71,3.37c-0.2,0.11-0.39,0.22-0.6,0.33c-0.15,0.08-0.7,0.36-0.1,0.06
					c-0.41,0.2-0.82,0.39-1.23,0.57c-0.91,0.39-1.84,0.73-2.78,1.02c-0.9,0.27-1.81,0.5-2.73,0.69c-0.22,0.04-0.44,0.08-0.66,0.12
					c0.68-0.12,0.08-0.02-0.1,0.01c-0.53,0.07-1.06,0.13-1.59,0.16c-1.91,0.14-3.81,0.04-5.71-0.2c0.65,0.08,0.17,0.04,0.04,0
					c-0.26-0.05-0.53-0.1-0.79-0.16c-0.44-0.09-0.87-0.19-1.3-0.31c-0.95-0.26-1.88-0.57-2.8-0.93c-0.51-0.2-1-0.42-1.49-0.65
					c-0.83-0.38,0.55,0.32-0.25-0.13c-0.24-0.14-0.49-0.27-0.73-0.4c-0.97-0.55-1.91-1.16-2.82-1.83c-0.46-0.34-0.9-0.68-1.34-1.03
					c-0.18-0.15-0.37-0.3-0.55-0.46c-0.11-0.09-0.87-0.79-0.33-0.27c-0.84-0.79-1.65-1.61-2.42-2.47c-0.77-0.87-1.51-1.78-2.21-2.73
					c-0.35-0.48-0.69-0.96-1.02-1.45c-0.08-0.11-0.35-0.56,0,0c-0.21-0.34-0.42-0.67-0.63-1.01c-1.23-2.04-2.3-4.19-3.23-6.44
					c-0.71-1.73-2.92-2.33-4.26-1.32c-1.51,1.14-1.88,3.17-1.11,5.02c3.65,8.85,9.82,16.68,17.51,20.73
					c7.92,4.18,17.18,4.59,25.34,0.95c4.08-1.83,7.84-4.49,10.97-8.09c3.09-3.56,5.41-7.86,7.03-12.55
					c3.17-9.13,2.86-19.48-0.79-28.32c-3.99-9.66-11.85-17.01-20.64-19.7c-1.58-0.48-3.45,0.61-3.83,2.56
					C612.24,476.35,613.1,478.43,614.79,478.95L614.79,478.95z"/>
			</g>
		</g>
		<g>
			<g>
				<path class="st49" d="M637.3,512.01c13.69-0.54,27.37-1.08,41.06-1.62c1.63-0.06,3.19-1.63,3.11-3.67
					c-0.08-1.93-1.37-3.74-3.11-3.67c-13.69,0.54-27.37,1.08-41.06,1.62c-1.63,0.06-3.19,1.63-3.11,3.67
					C634.26,510.27,635.56,512.09,637.3,512.01L637.3,512.01z"/>
			</g>
		</g>
		<g>
			<g>
				<path class="st49" d="M624.7,554.51c15.29-2.13,30.58-4.41,45.85-6.83c4.32-0.69,8.63-1.38,12.94-2.08
					c1.62-0.27,2.64-2.8,2.17-4.51c-0.57-2.09-2.1-2.84-3.83-2.56c-7.65,1.25-14.44,2.33-21.99,3.5c-7.5,1.16-15,2.27-22.51,3.36
					c-4.21,0.61-8.42,1.21-12.63,1.79c-1.61,0.23-3.2,1.53-3.11,3.67C621.66,552.64,622.97,554.76,624.7,554.51L624.7,554.51z"/>
			</g>
		</g>
	</g>
</g>
<g>
	<g>
		<g>
			<path class="st31" d="M618.27,1037.99c-3.03,0-5.62-1.09-7.69-3.25c-2.06-2.13-3.1-4.74-3.1-7.73v-75
				c0-5.21,1.87-9.73,5.57-13.43c3.69-3.69,8.21-5.57,13.43-5.57h36.33c5.22,0,9.73,1.87,13.43,5.57c3.69,3.69,5.57,8.21,5.57,13.43
				v43.75c0,4.88-0.6,8.62-1.83,11.44c-1.3,2.98-3.7,5.33-7.12,6.96c-4.11,1.85-11.15,2.8-21.54,2.93h-0.22
				c-2.93,0-5.58-0.94-7.89-2.78c-2.26-1.81-3.86-4.17-4.76-7.01l-0.03-0.12c-0.67-2.67-0.23-5.1,1.29-7.22
				c1.54-2.14,3.79-3.27,6.51-3.27h6.45c2.54,0,4.44-0.06,5.66-0.19l0.1-0.01h0.1c0.98,0,1.35-0.16,1.42-0.19
				c-0.01-0.02,0.1-0.28,0.1-0.93v-41.95h-30.77v73.59c0,3.01-1.08,5.62-3.22,7.76C623.9,1036.91,621.29,1037.99,618.27,1037.99z
				 M539.56,1022.76c-2.87,0-5.37-1.01-7.44-3c-2.09-2.01-3.15-4.5-3.15-7.4v-60.35c0-5.21,1.87-9.73,5.57-13.43
				c3.69-3.69,8.21-5.57,13.43-5.57h29.3c5.22,0,9.73,1.87,13.43,5.57c3.69,3.69,5.57,8.21,5.57,13.43v35.16
				c0,5.21-1.87,9.73-5.57,13.43c-3.69,3.69-8.21,5.57-13.43,5.57h-27.3v6.2c0,2.88-1.02,5.36-3.03,7.37
				C544.92,1021.74,542.44,1022.76,539.56,1022.76z M575.45,985.94v-32.72h-25.49v32.72H575.45z M524.13,930.57
				c-1.23,0-2.41-0.16-3.48-0.47c-3.03-0.91-5.54-2.66-7.48-5.2c-1.32-1.8-1.97-3.78-1.97-5.9c0-0.82,0.09-1.57,0.26-2.25
				c0.64-2.89,2.31-5.06,4.95-6.38c13.5-6.68,26.53-14.79,38.74-24.12c12.19-9.3,22.33-18.82,30.14-28.3
				c4.69-5.54,10.46-8.34,17.17-8.34c6.79,0,12.73,2.64,17.66,7.85c9.5,10.28,20.67,19.98,33.2,28.84
				c12.53,8.87,25.46,16.3,38.43,22.07c2.91,1.3,4.79,3.61,5.44,6.69c0.16,0.82,0.24,1.6,0.24,2.37c0,2.12-0.65,4.09-1.94,5.86
				c-1.93,2.82-4.6,4.73-7.93,5.64c-1.23,0.31-2.44,0.46-3.65,0.46c-1.98,0-3.97-0.46-5.92-1.36l-0.1-0.05
				c-10.58-5.66-21.07-11.98-31.2-18.82c-0.45,3.09-1.83,5.81-4.14,8.11c-2.85,2.85-6.35,4.3-10.4,4.3h-55.08
				c-4.05,0-7.58-1.48-10.5-4.39c-2.34-2.34-3.75-5.07-4.22-8.15c-10.42,7.44-21.44,14.2-32.8,20.13
				C527.86,930.09,526.02,930.57,524.13,930.57z M634.93,900.79c-12.95-9.83-23.53-19.34-31.49-28.33
				c-7.82,9.31-17.86,18.82-29.88,28.33H634.93z"/>
			<path class="st50" d="M618.27,1037.99c-3.03,0-5.62-1.09-7.69-3.25c-2.06-2.13-3.1-4.74-3.1-7.73v-75
				c0-5.21,1.87-9.73,5.57-13.43c3.69-3.69,8.21-5.57,13.43-5.57h36.33c5.22,0,9.73,1.87,13.43,5.57c3.69,3.69,5.57,8.21,5.57,13.43
				v43.75c0,4.88-0.6,8.62-1.83,11.44c-1.3,2.98-3.7,5.33-7.12,6.96c-4.11,1.85-11.15,2.8-21.54,2.93h-0.22
				c-2.93,0-5.58-0.94-7.89-2.78c-2.26-1.81-3.86-4.17-4.76-7.01l-0.03-0.12c-0.67-2.67-0.23-5.1,1.29-7.22
				c1.54-2.14,3.79-3.27,6.51-3.27h6.45c2.54,0,4.44-0.06,5.66-0.19l0.1-0.01h0.1c0.98,0,1.35-0.16,1.42-0.19
				c-0.01-0.02,0.1-0.28,0.1-0.93v-41.95h-30.77v73.59c0,3.01-1.08,5.62-3.22,7.76C623.9,1036.91,621.29,1037.99,618.27,1037.99z
				 M539.56,1022.76c-2.87,0-5.37-1.01-7.44-3c-2.09-2.01-3.15-4.5-3.15-7.4v-60.35c0-5.21,1.87-9.73,5.57-13.43
				c3.69-3.69,8.21-5.57,13.43-5.57h29.3c5.22,0,9.73,1.87,13.43,5.57c3.69,3.69,5.57,8.21,5.57,13.43v35.16
				c0,5.21-1.87,9.73-5.57,13.43c-3.69,3.69-8.21,5.57-13.43,5.57h-27.3v6.2c0,2.88-1.02,5.36-3.03,7.37
				C544.92,1021.74,542.44,1022.76,539.56,1022.76z M575.45,985.94v-32.72h-25.49v32.72H575.45z M524.13,930.57
				c-1.23,0-2.41-0.16-3.48-0.47c-3.03-0.91-5.54-2.66-7.48-5.2c-1.32-1.8-1.97-3.78-1.97-5.9c0-0.82,0.09-1.57,0.26-2.25
				c0.64-2.89,2.31-5.06,4.95-6.38c13.5-6.68,26.53-14.79,38.74-24.12c12.19-9.3,22.33-18.82,30.14-28.3
				c4.69-5.54,10.46-8.34,17.17-8.34c6.79,0,12.73,2.64,17.66,7.85c9.5,10.28,20.67,19.98,33.2,28.84
				c12.53,8.87,25.46,16.3,38.43,22.07c2.91,1.3,4.79,3.61,5.44,6.69c0.16,0.82,0.24,1.6,0.24,2.37c0,2.12-0.65,4.09-1.94,5.86
				c-1.93,2.82-4.6,4.73-7.93,5.64c-1.23,0.31-2.44,0.46-3.65,0.46c-1.98,0-3.97-0.46-5.92-1.36l-0.1-0.05
				c-10.58-5.66-21.07-11.98-31.2-18.82c-0.45,3.09-1.83,5.81-4.14,8.11c-2.85,2.85-6.35,4.3-10.4,4.3h-55.08
				c-4.05,0-7.58-1.48-10.5-4.39c-2.34-2.34-3.75-5.07-4.22-8.15c-10.42,7.44-21.44,14.2-32.8,20.13
				C527.86,930.09,526.02,930.57,524.13,930.57z M634.93,900.79c-12.95-9.83-23.53-19.34-31.49-28.33
				c-7.82,9.31-17.86,18.82-29.88,28.33H634.93z"/>
		</g>
		<g>
			<path class="st31" d="M834.68,1034.47c-11.69,0-22.69-0.2-32.7-0.59c-12.4-0.4-23.14-2.38-31.92-5.9
				c-8.79-3.53-16.29-8.95-22.31-16.11c-5.36,5.1-11.4,10.67-17.98,16.62c-1.81,1.64-3.97,2.47-6.42,2.47
				c-0.67,0-1.36-0.08-2.04-0.25c-3.12-0.62-5.49-2.35-6.95-5.11l-0.05-0.1c-0.9-1.95-1.36-4.01-1.36-6.11
				c0-1.21,0.15-2.42,0.45-3.61c0.91-3.34,2.74-6.01,5.45-7.97c5.5-4.09,10.96-8.45,16.21-12.93c0.5-0.52,0.73-1.11,0.73-1.86
				v-44.29h-13.43c-2.89,0-5.4-1.05-7.47-3.13c-2.07-2.07-3.12-4.58-3.12-7.47c0-2.88,1.05-5.39,3.12-7.47
				c2.07-2.07,4.59-3.13,7.47-3.13h16.21c5.22,0,9.73,1.87,13.43,5.57c3.69,3.69,5.57,8.21,5.57,13.43v45.12
				c0,0.87,0.25,1.62,0.77,2.31c7.84,11.45,22.62,17.66,43.99,18.54c9.68,0.52,20.16,0.78,31.17,0.78c16.46,0,34.43-0.52,53.41-1.56
				c0.18-0.01,0.36-0.02,0.54-0.02c2.65,0,4.82,1.17,6.28,3.39c1.15,1.51,1.73,3.15,1.73,4.87c0,0.86-0.17,1.8-0.49,2.78
				c-1.02,3.21-2.82,5.87-5.34,7.87c-2.57,2.04-5.48,3.07-8.67,3.07C864.35,1034.21,848.75,1034.47,834.68,1034.47z M827.94,1011.62
				c-3.09,0-5.75-1.13-7.89-3.35c-2.12-2.2-3.2-4.83-3.2-7.83v-5.23H771.2c-2.49,0-4.65-0.89-6.39-2.64
				c-1.75-1.75-2.64-3.9-2.64-6.39s0.89-4.65,2.64-6.39c1.75-1.75,3.9-2.64,6.39-2.64h45.66v-5.77h-22.8
				c-5.22,0-9.73-1.87-13.43-5.57c-3.69-3.69-5.57-8.21-5.57-13.43v-23.24c0-5.21,1.87-9.73,5.57-13.43
				c3.69-3.69,8.21-5.57,13.43-5.57h22.8v-5.96h-38.63c-2.37,0-4.42-0.85-6.1-2.54c-1.68-1.68-2.54-3.77-2.54-6.2
				c0-2.43,0.85-4.51,2.54-6.2c1.15-1.15,2.48-1.92,3.96-2.28c-0.29,0.02-0.58,0.03-0.88,0.03c-2.84,0-5.26-1.03-7.21-3.06
				c-1.92-2-2.9-4.41-2.9-7.15v-5.08c0-4.18,1.48-7.78,4.39-10.69c2.92-2.92,6.51-4.39,10.69-4.39h97.07
				c4.18,0,7.78,1.48,10.69,4.39c2.92,2.92,4.39,6.51,4.39,10.69v4.69c0,2.87-1.01,5.37-3,7.44c-2.01,2.09-4.53,3.15-7.5,3.15
				c-2.95,0-5.5-1.05-7.57-3.13c-2.07-2.07-3.12-4.58-3.12-7.47v-2.1h-85.65l0,2.49c0,2.75-1.02,5.17-3.03,7.18
				c-1.41,1.41-3.04,2.33-4.86,2.76c0.2-0.01,0.41-0.02,0.61-0.02h38.63v-1.32c0-3.01,1.08-5.62,3.22-7.76
				c2.14-2.14,4.78-3.22,7.86-3.22c3.08,0,5.72,1.08,7.86,3.22c2.14,2.14,3.22,4.75,3.22,7.76v1.32h39.21c2.49,0,4.61,0.85,6.3,2.54
				c1.69,1.69,2.54,3.78,2.54,6.2c0,2.43-0.85,4.52-2.54,6.2c-1.68,1.68-3.8,2.54-6.3,2.54h-39.21v5.96h24.17
				c5.22,0,9.73,1.87,13.43,5.57c3.69,3.69,5.57,8.21,5.57,13.43v23.24c0,5.21-1.87,9.73-5.57,13.43
				c-3.69,3.69-8.21,5.57-13.43,5.57h-24.17v5.77h47.41c2.49,0,4.65,0.89,6.39,2.64c1.75,1.75,2.64,3.9,2.64,6.39
				s-0.89,4.65-2.64,6.39c-1.75,1.75-3.9,2.64-6.39,2.64h-47.41l0,5.23c0,3-1.08,5.64-3.2,7.83
				C833.69,1010.5,831.03,1011.62,827.94,1011.62z M861.58,955.47v-7.33h-22.56v7.33H861.58z M816.86,955.47v-7.33h-21.78v7.33
				H816.86z M861.58,933.01v-6.74h-22.56v6.74H861.58z M816.86,933.01v-6.74h-21.78v6.74H816.86z M748.35,898.73
				c-0.66,0-1.32-0.08-1.96-0.23c-2.96-0.49-5.4-1.99-7.25-4.47c-4.95-6.22-11.19-12.78-18.5-19.45c-2.1-1.77-3.19-4.06-3.19-6.75
				c0-2.96,1.29-5.48,3.75-7.28c2.3-1.68,4.93-2.54,7.82-2.54h0.39c3.08,0,5.82,1.02,8.15,3.03c7.72,6.54,14.23,12.93,19.36,18.97
				c1.63,2.12,2.43,4.44,2.43,6.96v1.5l-0.02,0.13c-0.47,3.42-2.06,6.12-4.73,8C752.72,898.01,750.61,898.73,748.35,898.73z"/>
			<path class="st50" d="M834.68,1034.47c-11.69,0-22.69-0.2-32.7-0.59c-12.4-0.4-23.14-2.38-31.92-5.9
				c-8.79-3.53-16.29-8.95-22.31-16.11c-5.36,5.1-11.4,10.67-17.98,16.62c-1.81,1.64-3.97,2.47-6.42,2.47
				c-0.67,0-1.36-0.08-2.04-0.25c-3.12-0.62-5.49-2.35-6.95-5.11l-0.05-0.1c-0.9-1.95-1.36-4.01-1.36-6.11
				c0-1.21,0.15-2.42,0.45-3.61c0.91-3.34,2.74-6.01,5.45-7.97c5.5-4.09,10.96-8.45,16.21-12.93c0.5-0.52,0.73-1.11,0.73-1.86
				v-44.29h-13.43c-2.89,0-5.4-1.05-7.47-3.13c-2.07-2.07-3.12-4.58-3.12-7.47c0-2.88,1.05-5.39,3.12-7.47
				c2.07-2.07,4.59-3.13,7.47-3.13h16.21c5.22,0,9.73,1.87,13.43,5.57c3.69,3.69,5.57,8.21,5.57,13.43v45.12
				c0,0.87,0.25,1.62,0.77,2.31c7.84,11.45,22.62,17.66,43.99,18.54c9.68,0.52,20.16,0.78,31.17,0.78c16.46,0,34.43-0.52,53.41-1.56
				c0.18-0.01,0.36-0.02,0.54-0.02c2.65,0,4.82,1.17,6.28,3.39c1.15,1.51,1.73,3.15,1.73,4.87c0,0.86-0.17,1.8-0.49,2.78
				c-1.02,3.21-2.82,5.87-5.34,7.87c-2.57,2.04-5.48,3.07-8.67,3.07C864.35,1034.21,848.75,1034.47,834.68,1034.47z M827.94,1011.62
				c-3.09,0-5.75-1.13-7.89-3.35c-2.12-2.2-3.2-4.83-3.2-7.83v-5.23H771.2c-2.49,0-4.65-0.89-6.39-2.64
				c-1.75-1.75-2.64-3.9-2.64-6.39s0.89-4.65,2.64-6.39c1.75-1.75,3.9-2.64,6.39-2.64h45.66v-5.77h-22.8
				c-5.22,0-9.73-1.87-13.43-5.57c-3.69-3.69-5.57-8.21-5.57-13.43v-23.24c0-5.21,1.87-9.73,5.57-13.43
				c3.69-3.69,8.21-5.57,13.43-5.57h22.8v-5.96h-38.63c-2.37,0-4.42-0.85-6.1-2.54c-1.68-1.68-2.54-3.77-2.54-6.2
				c0-2.43,0.85-4.51,2.54-6.2c1.15-1.15,2.48-1.92,3.96-2.28c-0.29,0.02-0.58,0.03-0.88,0.03c-2.84,0-5.26-1.03-7.21-3.06
				c-1.92-2-2.9-4.41-2.9-7.15v-5.08c0-4.18,1.48-7.78,4.39-10.69c2.92-2.92,6.51-4.39,10.69-4.39h97.07
				c4.18,0,7.78,1.48,10.69,4.39c2.92,2.92,4.39,6.51,4.39,10.69v4.69c0,2.87-1.01,5.37-3,7.44c-2.01,2.09-4.53,3.15-7.5,3.15
				c-2.95,0-5.5-1.05-7.57-3.13c-2.07-2.07-3.12-4.58-3.12-7.47v-2.1h-85.65l0,2.49c0,2.75-1.02,5.17-3.03,7.18
				c-1.41,1.41-3.04,2.33-4.86,2.76c0.2-0.01,0.41-0.02,0.61-0.02h38.63v-1.32c0-3.01,1.08-5.62,3.22-7.76
				c2.14-2.14,4.78-3.22,7.86-3.22c3.08,0,5.72,1.08,7.86,3.22c2.14,2.14,3.22,4.75,3.22,7.76v1.32h39.21c2.49,0,4.61,0.85,6.3,2.54
				c1.69,1.69,2.54,3.78,2.54,6.2c0,2.43-0.85,4.52-2.54,6.2c-1.68,1.68-3.8,2.54-6.3,2.54h-39.21v5.96h24.17
				c5.22,0,9.73,1.87,13.43,5.57c3.69,3.69,5.57,8.21,5.57,13.43v23.24c0,5.21-1.87,9.73-5.57,13.43
				c-3.69,3.69-8.21,5.57-13.43,5.57h-24.17v5.77h47.41c2.49,0,4.65,0.89,6.39,2.64c1.75,1.75,2.64,3.9,2.64,6.39
				s-0.89,4.65-2.64,6.39c-1.75,1.75-3.9,2.64-6.39,2.64h-47.41l0,5.23c0,3-1.08,5.64-3.2,7.83
				C833.69,1010.5,831.03,1011.62,827.94,1011.62z M861.58,955.47v-7.33h-22.56v7.33H861.58z M816.86,955.47v-7.33h-21.78v7.33
				H816.86z M861.58,933.01v-6.74h-22.56v6.74H861.58z M816.86,933.01v-6.74h-21.78v6.74H816.86z M748.35,898.73
				c-0.66,0-1.32-0.08-1.96-0.23c-2.96-0.49-5.4-1.99-7.25-4.47c-4.95-6.22-11.19-12.78-18.5-19.45c-2.1-1.77-3.19-4.06-3.19-6.75
				c0-2.96,1.29-5.48,3.75-7.28c2.3-1.68,4.93-2.54,7.82-2.54h0.39c3.08,0,5.82,1.02,8.15,3.03c7.72,6.54,14.23,12.93,19.36,18.97
				c1.63,2.12,2.43,4.44,2.43,6.96v1.5l-0.02,0.13c-0.47,3.42-2.06,6.12-4.73,8C752.72,898.01,750.61,898.73,748.35,898.73z"/>
		</g>
		<g>
			<path class="st31" d="M1079.6,1037.6c-5.42-0.15-10.12-2.44-14-6.83c-3.67-4.15-6.79-9.79-9.27-16.77
				c-2.44-6.85-4.48-15.82-6.05-26.65c-1.56-10.75-2.75-22.4-3.53-34.63c-0.78-12.27-1.44-26.75-1.96-43.03c0-0.01,0-0.01,0-0.02
				h-49.95c-2.9,0-5.39-1.06-7.4-3.15c-1.99-2.06-3-4.57-3-7.44c0-2.87,1.01-5.37,3-7.44c2.01-2.09,4.5-3.15,7.4-3.15h49.56
				c-0.26-13.72-0.39-23.04-0.39-27.69c0-3.02,1.09-5.61,3.25-7.69c2.14-2.06,4.71-3.1,7.64-3.1s5.5,1.04,7.64,3.1
				c2.16,2.08,3.25,4.67,3.25,7.69l-0.2,10.97c0,5.61,0.06,11.25,0.19,16.71h19.88c2.88,0,5.39,1.05,7.47,3.12
				c2.08,2.08,3.13,4.59,3.13,7.47c0,2.88-1.05,5.4-3.13,7.47c-2.07,2.07-4.58,3.13-7.47,3.13h-19.68
				c0.51,20.6,1.43,38.65,2.73,53.59c1.29,14.87,3.04,26.75,5.22,35.33c2.83,10.28,5.45,11.79,6.45,11.95
				c0.44-0.49,1.99-2.99,3.1-14.77c0.18-2.42,1.54-4.25,3.83-5.1c0.78-0.29,1.57-0.44,2.34-0.44c1.4,0,2.72,0.48,3.91,1.44
				c2.44,1.87,4.29,4.16,5.46,6.8l0.04,0.1c0.74,1.92,1.11,3.87,1.11,5.79c0,0.87-0.07,1.77-0.22,2.67
				c-4.04,20.6-10.56,30.58-19.94,30.58H1079.6z M928.62,1035.06c-2.77,0-5.13-1-7.01-2.96c-1.86-1.94-2.8-4.24-2.8-6.85v-42.38
				c0-5.35,1.88-9.91,5.58-13.54c3.69-3.62,8.21-5.46,13.41-5.46h23.44c5.21,0,9.72,1.83,13.41,5.45c3.7,3.63,5.58,8.19,5.58,13.54
				v24.8c0,5.21-1.87,9.73-5.57,13.43s-8.21,5.57-13.43,5.57h-22.88c-0.25,2.11-1.18,3.98-2.76,5.57c-1.88,1.88-4.17,2.83-6.79,2.83
				H928.62z M960.41,1007.62v-24.91h-21.98v24.91H960.41z M993.86,1023.54c-2.07,0-4.01-0.56-5.76-1.68
				c-2.54-1.58-4.15-3.85-4.79-6.73c-0.16-0.81-0.24-1.6-0.24-2.38c0-1.94,0.57-3.81,1.68-5.57c1.63-2.46,3.92-3.93,6.83-4.42
				c3.34-0.51,7.53-1.23,12.47-2.14c0.04-0.01,0.08-0.03,0.1-0.04c-0.01-0.01,0.02-0.12,0.02-0.34v-49.56h-9.13
				c-2.75,0-5.13-0.99-7.08-2.93c-1.94-1.94-2.93-4.29-2.93-6.98c0-2.71,1.03-5.07,3.06-7.01c2-1.92,4.34-2.9,6.95-2.9h38.67
				c2.62,0,4.94,0.99,6.88,2.93c1.94,1.94,2.93,4.29,2.93,6.98s-0.99,5.04-2.93,6.98c-1.94,1.94-4.26,2.93-6.88,2.93h-8.35v45.75
				l13.03-2.64c0.63-0.12,1.22-0.17,1.79-0.17c1.98,0,3.78,0.66,5.35,1.96c2.28,1.79,3.46,4.23,3.46,7.2c0,2.39-0.73,4.56-2.16,6.47
				c-1.55,2.18-3.65,3.62-6.19,4.26c-17.98,4.04-32.9,7.33-44.4,9.78C995.41,1023.46,994.62,1023.54,993.86,1023.54z M928.23,955.37
				c-2.5,0-4.68-0.92-6.49-2.74c-1.81-1.81-2.73-4.03-2.73-6.59c0-2.56,0.92-4.78,2.73-6.59c1.82-1.81,4-2.73,6.49-2.73h43.16
				c2.49,0,4.67,0.92,6.49,2.73c1.82,1.82,2.74,4.04,2.74,6.59c0,2.56-0.92,4.78-2.73,6.59s-4,2.73-6.49,2.73H928.23z
				 M928.23,928.62c-2.5,0-4.68-0.92-6.49-2.74c-1.81-1.81-2.73-3.99-2.73-6.49c0-2.49,0.92-4.68,2.73-6.49
				c1.82-1.81,4-2.73,6.49-2.73h43.16c2.49,0,4.67,0.92,6.49,2.73c1.82,1.82,2.74,4,2.74,6.49c0,2.5-0.92,4.68-2.73,6.49
				s-4,2.73-6.49,2.73H928.23z M919.64,901.86c-2.64,0-4.9-0.96-6.72-2.87c-1.79-1.87-2.7-4.11-2.7-6.65c0-2.56,0.92-4.78,2.73-6.59
				c1.82-1.81,4.07-2.73,6.69-2.73h56.25c2.49,0,4.67,0.92,6.49,2.73c1.82,1.82,2.74,4.04,2.74,6.59c0,2.54-0.91,4.78-2.7,6.66
				c-1.82,1.9-4.01,2.86-6.52,2.86H919.64z M1086.46,885.27c-0.87,0-1.75-0.13-2.63-0.38c-2.49-0.72-4.48-2.22-5.91-4.45
				c-2.8-4.2-6.12-8.68-9.84-13.3c-1.54-1.88-2.08-4.15-1.57-6.56c0.52-2.4,1.9-4.23,3.99-5.28c1.66-0.89,3.45-1.35,5.26-1.35
				c0.68,0,1.37,0.06,2.06,0.19c2.51,0.47,4.65,1.66,6.38,3.54c3.94,4.34,7.48,8.74,10.52,13.1c1.54,2.4,1.88,4.94,1.05,7.6
				c-0.65,2.28-2.17,4.15-4.51,5.52C1089.72,884.81,1088.1,885.27,1086.46,885.27z M929.01,875.1c-2.48,0-4.65-0.88-6.46-2.6
				c-1.84-1.75-2.77-3.95-2.77-6.52c0-2.56,0.92-4.78,2.73-6.59c1.82-1.81,4-2.73,6.49-2.73h41.02c2.62,0,4.87,0.92,6.69,2.73
				c1.82,1.82,2.74,4.04,2.74,6.59c0,2.58-0.93,4.77-2.77,6.52c-1.81,1.73-4.05,2.6-6.65,2.6H929.01z"/>
			<path class="st50" d="M1079.6,1037.6c-5.42-0.15-10.12-2.44-14-6.83c-3.67-4.15-6.79-9.79-9.27-16.77
				c-2.44-6.85-4.48-15.82-6.05-26.65c-1.56-10.75-2.75-22.4-3.53-34.63c-0.78-12.27-1.44-26.75-1.96-43.03c0-0.01,0-0.01,0-0.02
				h-49.95c-2.9,0-5.39-1.06-7.4-3.15c-1.99-2.06-3-4.57-3-7.44c0-2.87,1.01-5.37,3-7.44c2.01-2.09,4.5-3.15,7.4-3.15h49.56
				c-0.26-13.72-0.39-23.04-0.39-27.69c0-3.02,1.09-5.61,3.25-7.69c2.14-2.06,4.71-3.1,7.64-3.1s5.5,1.04,7.64,3.1
				c2.16,2.08,3.25,4.67,3.25,7.69l-0.2,10.97c0,5.61,0.06,11.25,0.19,16.71h19.88c2.88,0,5.39,1.05,7.47,3.12
				c2.08,2.08,3.13,4.59,3.13,7.47c0,2.88-1.05,5.4-3.13,7.47c-2.07,2.07-4.58,3.13-7.47,3.13h-19.68
				c0.51,20.6,1.43,38.65,2.73,53.59c1.29,14.87,3.04,26.75,5.22,35.33c2.83,10.28,5.45,11.79,6.45,11.95
				c0.44-0.49,1.99-2.99,3.1-14.77c0.18-2.42,1.54-4.25,3.83-5.1c0.78-0.29,1.57-0.44,2.34-0.44c1.4,0,2.72,0.48,3.91,1.44
				c2.44,1.87,4.29,4.16,5.46,6.8l0.04,0.1c0.74,1.92,1.11,3.87,1.11,5.79c0,0.87-0.07,1.77-0.22,2.67
				c-4.04,20.6-10.56,30.58-19.94,30.58H1079.6z M928.62,1035.06c-2.77,0-5.13-1-7.01-2.96c-1.86-1.94-2.8-4.24-2.8-6.85v-42.38
				c0-5.35,1.88-9.91,5.58-13.54c3.69-3.62,8.21-5.46,13.41-5.46h23.44c5.21,0,9.72,1.83,13.41,5.45c3.7,3.63,5.58,8.19,5.58,13.54
				v24.8c0,5.21-1.87,9.73-5.57,13.43s-8.21,5.57-13.43,5.57h-22.88c-0.25,2.11-1.18,3.98-2.76,5.57c-1.88,1.88-4.17,2.83-6.79,2.83
				H928.62z M960.41,1007.62v-24.91h-21.98v24.91H960.41z M993.86,1023.54c-2.07,0-4.01-0.56-5.76-1.68
				c-2.54-1.58-4.15-3.85-4.79-6.73c-0.16-0.81-0.24-1.6-0.24-2.38c0-1.94,0.57-3.81,1.68-5.57c1.63-2.46,3.92-3.93,6.83-4.42
				c3.34-0.51,7.53-1.23,12.47-2.14c0.04-0.01,0.08-0.03,0.1-0.04c-0.01-0.01,0.02-0.12,0.02-0.34v-49.56h-9.13
				c-2.75,0-5.13-0.99-7.08-2.93c-1.94-1.94-2.93-4.29-2.93-6.98c0-2.71,1.03-5.07,3.06-7.01c2-1.92,4.34-2.9,6.95-2.9h38.67
				c2.62,0,4.94,0.99,6.88,2.93c1.94,1.94,2.93,4.29,2.93,6.98s-0.99,5.04-2.93,6.98c-1.94,1.94-4.26,2.93-6.88,2.93h-8.35v45.75
				l13.03-2.64c0.63-0.12,1.22-0.17,1.79-0.17c1.98,0,3.78,0.66,5.35,1.96c2.28,1.79,3.46,4.23,3.46,7.2c0,2.39-0.73,4.56-2.16,6.47
				c-1.55,2.18-3.65,3.62-6.19,4.26c-17.98,4.04-32.9,7.33-44.4,9.78C995.41,1023.46,994.62,1023.54,993.86,1023.54z M928.23,955.37
				c-2.5,0-4.68-0.92-6.49-2.74c-1.81-1.81-2.73-4.03-2.73-6.59c0-2.56,0.92-4.78,2.73-6.59c1.82-1.81,4-2.73,6.49-2.73h43.16
				c2.49,0,4.67,0.92,6.49,2.73c1.82,1.82,2.74,4.04,2.74,6.59c0,2.56-0.92,4.78-2.73,6.59s-4,2.73-6.49,2.73H928.23z
				 M928.23,928.62c-2.5,0-4.68-0.92-6.49-2.74c-1.81-1.81-2.73-3.99-2.73-6.49c0-2.49,0.92-4.68,2.73-6.49
				c1.82-1.81,4-2.73,6.49-2.73h43.16c2.49,0,4.67,0.92,6.49,2.73c1.82,1.82,2.74,4,2.74,6.49c0,2.5-0.92,4.68-2.73,6.49
				s-4,2.73-6.49,2.73H928.23z M919.64,901.86c-2.64,0-4.9-0.96-6.72-2.87c-1.79-1.87-2.7-4.11-2.7-6.65c0-2.56,0.92-4.78,2.73-6.59
				c1.82-1.81,4.07-2.73,6.69-2.73h56.25c2.49,0,4.67,0.92,6.49,2.73c1.82,1.82,2.74,4.04,2.74,6.59c0,2.54-0.91,4.78-2.7,6.66
				c-1.82,1.9-4.01,2.86-6.52,2.86H919.64z M1086.46,885.27c-0.87,0-1.75-0.13-2.63-0.38c-2.49-0.72-4.48-2.22-5.91-4.45
				c-2.8-4.2-6.12-8.68-9.84-13.3c-1.54-1.88-2.08-4.15-1.57-6.56c0.52-2.4,1.9-4.23,3.99-5.28c1.66-0.89,3.45-1.35,5.26-1.35
				c0.68,0,1.37,0.06,2.06,0.19c2.51,0.47,4.65,1.66,6.38,3.54c3.94,4.34,7.48,8.74,10.52,13.1c1.54,2.4,1.88,4.94,1.05,7.6
				c-0.65,2.28-2.17,4.15-4.51,5.52C1089.72,884.81,1088.1,885.27,1086.46,885.27z M929.01,875.1c-2.48,0-4.65-0.88-6.46-2.6
				c-1.84-1.75-2.77-3.95-2.77-6.52c0-2.56,0.92-4.78,2.73-6.59c1.82-1.81,4-2.73,6.49-2.73h41.02c2.62,0,4.87,0.92,6.69,2.73
				c1.82,1.82,2.74,4.04,2.74,6.59c0,2.58-0.93,4.77-2.77,6.52c-1.81,1.73-4.05,2.6-6.65,2.6H929.01z"/>
		</g>
		<g>
			<path class="st31" d="M1237.51,1037.6c-2.95,0-5.53-1.08-7.66-3.22c-2.14-2.14-3.22-4.75-3.22-7.76v-33.08
				c-9.56,13.08-20.63,24.35-32.94,33.52c-2.08,1.44-4.31,2.15-6.66,2.15h-1.76l-0.19-0.04c-3.04-0.61-5.59-2.08-7.57-4.36
				c-1.61-1.77-2.44-3.93-2.44-6.39v-1.14l0.03-0.16c0.48-2.88,1.87-5.15,4.13-6.77c14.43-9.33,27.04-21.23,37.57-35.43h-11.8
				c-5.21,0-9.73-1.87-13.43-5.57s-5.57-8.21-5.57-13.43v-33.98c0-5.21,1.87-9.73,5.57-13.43s8.21-5.57,13.43-5.57h21.63v-12.41
				h-36.48c-1.32,0-2.55-0.22-3.69-0.65c0.65,0.8,1.2,1.72,1.63,2.77c0.5,1.33,0.74,2.55,0.74,3.69c0,1.46-0.33,2.86-0.97,4.16
				c-5.42,12.41-8.8,20.02-10.36,23.26c-1.53,3.36-4.05,5.57-7.47,6.52c-1.35,0.45-2.73,0.67-4.1,0.67c-1.27,0-2.58-0.22-3.9-0.64
				c-0.3,12.52-1.08,23.37-2.32,32.32l-0.02,0.12c-0.15,0.74,0.06,0.99,0.32,1.21l0.07,0.06l0.07,0.07
				c4.09,4.23,11.27,12.07,21.34,23.3c2.02,2.18,3.05,4.8,3.05,7.78c0,3.14-1.12,5.85-3.32,8.06c-1.94,1.94-4.19,2.93-6.69,2.93
				h-0.89l-0.11-0.01c-2.93-0.32-5.24-1.65-6.88-3.95c-3.44-4.62-7.48-9.81-12-15.4c-4.81,16.65-12.8,31.27-23.75,43.5
				c-1.84,2-4.11,3.01-6.76,3.01h-0.7l-0.11-0.01c-2.82-0.32-5.21-1.51-7.11-3.56c-2.16-2.32-3.27-5.08-3.27-8.19
				c0-2.66,0.87-5.12,2.58-7.29c5.52-6.42,10.09-13.37,13.64-20.73c3.55-7.37,6.2-15.32,7.85-23.64c1.67-8.43,2.81-16.34,3.39-23.5
				c0.58-7.2,0.87-15.63,0.87-25.04v-58.4c0-2.88,1.02-5.36,3.03-7.37c2.01-2.01,4.49-3.03,7.37-3.03c2.88,0,5.36,1.02,7.37,3.03
				c2.01,2.01,3.03,4.49,3.03,7.37v53.08c2.63-6.92,5.18-14.49,7.61-22.6c0.8-2.72,2.44-4.77,4.88-6.07l0.13-0.07
				c1.43-0.63,2.88-0.95,4.33-0.95c1.15,0,2.3,0.24,3.43,0.71c-1.53-1.76-2.31-3.88-2.31-6.33c0-2.75,0.99-5.13,2.93-7.08
				c1.94-1.94,4.33-2.93,7.08-2.93h36.48v-9.72c0-3.01,1.08-5.62,3.22-7.76c2.14-2.14,4.75-3.22,7.76-3.22
				c3.02,0,5.64,1.13,7.79,3.35c2.12,2.2,3.2,4.77,3.2,7.64v9.72h37.45c2.75,0,5.13,0.99,7.08,2.93c1.94,1.94,2.93,4.33,2.93,7.08
				c0,2.77-1,5.13-2.96,7.01c-1.94,1.86-4.31,2.8-7.05,2.8h-37.45v12.41h24.56c5.21,0,9.73,1.87,13.43,5.57s5.57,8.21,5.57,13.43
				v33.98c0,5.21-1.87,9.73-5.57,13.43s-8.21,5.57-13.43,5.57h-15.17c9.52,13.48,20.86,25.15,33.74,34.67
				c2.58,1.94,3.94,4.65,3.94,7.86c0,2.6-0.9,4.83-2.68,6.64c-1.97,2.25-4.43,3.57-7.31,3.92c-0.53,0.15-1.06,0.23-1.58,0.23
				c-2.55,0-4.82-0.81-6.75-2.42c-10.44-9.12-20.16-20.27-28.95-33.2v34c0,3.01-1.08,5.62-3.22,7.76
				C1243.04,1036.52,1240.46,1037.6,1237.51,1037.6z M1272.13,956.45v-35.06h-25.88v35.06H1272.13z M1228.97,956.45v-35.06h-23.73
				v35.06H1228.97z M1255.14,954c-1.02,0-2.03-0.26-2.99-0.79c-1.6-0.73-2.78-1.98-3.41-3.61c-0.67-1.71-0.54-3.44,0.39-4.99
				c2.3-4.98,4.43-10.03,6.35-15.01c0.67-2.01,2.01-3.53,3.97-4.42c1.02-0.46,2.04-0.69,3.06-0.69c0.93,0,1.86,0.19,2.75,0.58
				c1.83,0.78,3.19,2.14,4.06,4.03c0.9,1.98,0.82,4.13-0.23,6.22c-4.21,8.14-6.69,12.93-7.83,15.08l-0.07,0.13
				c-0.89,1.42-2.18,2.45-3.84,3.06C1256.61,953.86,1255.87,954,1255.14,954z M1219.52,953.82c-1.23,0-2.42-0.33-3.52-0.97
				c-1.71-0.99-2.82-2.55-3.2-4.52c-1.27-4.93-2.94-9.95-4.97-14.91c-0.74-1.84-0.68-3.69,0.16-5.36c0.85-1.7,2.23-2.81,3.99-3.21
				c0.62-0.17,1.33-0.27,2.03-0.27c1.18,0,2.34,0.27,3.46,0.8c1.83,0.88,3.12,2.22,3.83,3.99c2.22,5.37,4.02,10.43,5.34,15.04
				c0.54,1.97,0.31,3.85-0.66,5.61c-0.98,1.79-2.48,2.97-4.45,3.51C1220.86,953.73,1220.18,953.82,1219.52,953.82z M1120.58,947.19
				c-1.37,0-2.69-0.33-3.93-0.98c-2.18-0.88-3.76-2.63-4.58-5.09c-0.33-0.97-0.49-1.91-0.49-2.78c0-1.35,0.33-2.63,0.98-3.81
				c3.64-8.71,5.94-20.4,6.83-34.74c0.02-2.4,1.03-4.45,2.93-5.91c1.64-1.26,3.45-1.9,5.39-1.9c0.22,0,0.45,0.01,0.67,0.03
				l0.12,0.01c2.47,0.33,4.52,1.5,6.09,3.47c1.52,1.92,2.29,4.05,2.29,6.32c-0.79,16.28-3.48,29.72-7.98,40.06
				c-1.01,2.35-2.79,3.98-5.3,4.81C1122.58,947.02,1121.57,947.19,1120.58,947.19z"/>
			<path class="st50" d="M1237.51,1037.6c-2.95,0-5.53-1.08-7.66-3.22c-2.14-2.14-3.22-4.75-3.22-7.76v-33.08
				c-9.56,13.08-20.63,24.35-32.94,33.52c-2.08,1.44-4.31,2.15-6.66,2.15h-1.76l-0.19-0.04c-3.04-0.61-5.59-2.08-7.57-4.36
				c-1.61-1.77-2.44-3.93-2.44-6.39v-1.14l0.03-0.16c0.48-2.88,1.87-5.15,4.13-6.77c14.43-9.33,27.04-21.23,37.57-35.43h-11.8
				c-5.21,0-9.73-1.87-13.43-5.57s-5.57-8.21-5.57-13.43v-33.98c0-5.21,1.87-9.73,5.57-13.43s8.21-5.57,13.43-5.57h21.63v-12.41
				h-36.48c-1.32,0-2.55-0.22-3.69-0.65c0.65,0.8,1.2,1.72,1.63,2.77c0.5,1.33,0.74,2.55,0.74,3.69c0,1.46-0.33,2.86-0.97,4.16
				c-5.42,12.41-8.8,20.02-10.36,23.26c-1.53,3.36-4.05,5.57-7.47,6.52c-1.35,0.45-2.73,0.67-4.1,0.67c-1.27,0-2.58-0.22-3.9-0.64
				c-0.3,12.52-1.08,23.37-2.32,32.32l-0.02,0.12c-0.15,0.74,0.06,0.99,0.32,1.21l0.07,0.06l0.07,0.07
				c4.09,4.23,11.27,12.07,21.34,23.3c2.02,2.18,3.05,4.8,3.05,7.78c0,3.14-1.12,5.85-3.32,8.06c-1.94,1.94-4.19,2.93-6.69,2.93
				h-0.89l-0.11-0.01c-2.93-0.32-5.24-1.65-6.88-3.95c-3.44-4.62-7.48-9.81-12-15.4c-4.81,16.65-12.8,31.27-23.75,43.5
				c-1.84,2-4.11,3.01-6.76,3.01h-0.7l-0.11-0.01c-2.82-0.32-5.21-1.51-7.11-3.56c-2.16-2.32-3.27-5.08-3.27-8.19
				c0-2.66,0.87-5.12,2.58-7.29c5.52-6.42,10.09-13.37,13.64-20.73c3.55-7.37,6.2-15.32,7.85-23.64c1.67-8.43,2.81-16.34,3.39-23.5
				c0.58-7.2,0.87-15.63,0.87-25.04v-58.4c0-2.88,1.02-5.36,3.03-7.37c2.01-2.01,4.49-3.03,7.37-3.03c2.88,0,5.36,1.02,7.37,3.03
				c2.01,2.01,3.03,4.49,3.03,7.37v53.08c2.63-6.92,5.18-14.49,7.61-22.6c0.8-2.72,2.44-4.77,4.88-6.07l0.13-0.07
				c1.43-0.63,2.88-0.95,4.33-0.95c1.15,0,2.3,0.24,3.43,0.71c-1.53-1.76-2.31-3.88-2.31-6.33c0-2.75,0.99-5.13,2.93-7.08
				c1.94-1.94,4.33-2.93,7.08-2.93h36.48v-9.72c0-3.01,1.08-5.62,3.22-7.76c2.14-2.14,4.75-3.22,7.76-3.22
				c3.02,0,5.64,1.13,7.79,3.35c2.12,2.2,3.2,4.77,3.2,7.64v9.72h37.45c2.75,0,5.13,0.99,7.08,2.93c1.94,1.94,2.93,4.33,2.93,7.08
				c0,2.77-1,5.13-2.96,7.01c-1.94,1.86-4.31,2.8-7.05,2.8h-37.45v12.41h24.56c5.21,0,9.73,1.87,13.43,5.57s5.57,8.21,5.57,13.43
				v33.98c0,5.21-1.87,9.73-5.57,13.43s-8.21,5.57-13.43,5.57h-15.17c9.52,13.48,20.86,25.15,33.74,34.67
				c2.58,1.94,3.94,4.65,3.94,7.86c0,2.6-0.9,4.83-2.68,6.64c-1.97,2.25-4.43,3.57-7.31,3.92c-0.53,0.15-1.06,0.23-1.58,0.23
				c-2.55,0-4.82-0.81-6.75-2.42c-10.44-9.12-20.16-20.27-28.95-33.2v34c0,3.01-1.08,5.62-3.22,7.76
				C1243.04,1036.52,1240.46,1037.6,1237.51,1037.6z M1272.13,956.45v-35.06h-25.88v35.06H1272.13z M1228.97,956.45v-35.06h-23.73
				v35.06H1228.97z M1255.14,954c-1.02,0-2.03-0.26-2.99-0.79c-1.6-0.73-2.78-1.98-3.41-3.61c-0.67-1.71-0.54-3.44,0.39-4.99
				c2.3-4.98,4.43-10.03,6.35-15.01c0.67-2.01,2.01-3.53,3.97-4.42c1.02-0.46,2.04-0.69,3.06-0.69c0.93,0,1.86,0.19,2.75,0.58
				c1.83,0.78,3.19,2.14,4.06,4.03c0.9,1.98,0.82,4.13-0.23,6.22c-4.21,8.14-6.69,12.93-7.83,15.08l-0.07,0.13
				c-0.89,1.42-2.18,2.45-3.84,3.06C1256.61,953.86,1255.87,954,1255.14,954z M1219.52,953.82c-1.23,0-2.42-0.33-3.52-0.97
				c-1.71-0.99-2.82-2.55-3.2-4.52c-1.27-4.93-2.94-9.95-4.97-14.91c-0.74-1.84-0.68-3.69,0.16-5.36c0.85-1.7,2.23-2.81,3.99-3.21
				c0.62-0.17,1.33-0.27,2.03-0.27c1.18,0,2.34,0.27,3.46,0.8c1.83,0.88,3.12,2.22,3.83,3.99c2.22,5.37,4.02,10.43,5.34,15.04
				c0.54,1.97,0.31,3.85-0.66,5.61c-0.98,1.79-2.48,2.97-4.45,3.51C1220.86,953.73,1220.18,953.82,1219.52,953.82z M1120.58,947.19
				c-1.37,0-2.69-0.33-3.93-0.98c-2.18-0.88-3.76-2.63-4.58-5.09c-0.33-0.97-0.49-1.91-0.49-2.78c0-1.35,0.33-2.63,0.98-3.81
				c3.64-8.71,5.94-20.4,6.83-34.74c0.02-2.4,1.03-4.45,2.93-5.91c1.64-1.26,3.45-1.9,5.39-1.9c0.22,0,0.45,0.01,0.67,0.03
				l0.12,0.01c2.47,0.33,4.52,1.5,6.09,3.47c1.52,1.92,2.29,4.05,2.29,6.32c-0.79,16.28-3.48,29.72-7.98,40.06
				c-1.01,2.35-2.79,3.98-5.3,4.81C1122.58,947.02,1121.57,947.19,1120.58,947.19z"/>
		</g>
	</g>
</g>
</svg>
