<?xml version="1.0" encoding="utf-8"?>
<!-- Generator: Adobe Illustrator 23.0.5, SVG Export Plug-In . SVG Version: 6.00 Build 0)  -->
<svg version="1.1" id="圖層_1" xmlns="http://www.w3.org/2000/svg" xmlns:xlink="http://www.w3.org/1999/xlink" x="0px" y="0px"
	 viewBox="0 0 1920 1080" style="enable-background:new 0 0 1920 1080;" xml:space="preserve">
<style type="text/css">
	.st0{fill:#010101;stroke:#3D3D3B;stroke-miterlimit:10;}
	.st1{fill:#84B866;}
	.st2{fill:#5D7F46;}
	.st3{fill:#010101;}
	.st4{fill:#372D31;}
	.st5{fill:#87B761;}
	.st6{fill:#1A2915;}
	.st7{fill:#F5FEED;stroke:#0D180B;stroke-miterlimit:10;}
	.st8{fill:#000200;}
	.st9{fill:#DBEF91;}
	.st10{fill:#0E6B3B;}
	.st11{fill:#001A09;}
	.st12{fill:#0D180B;}
	.st13{fill:#343635;}
	.st14{fill:#34302F;}
	.st15{fill:#D9A251;}
	.st16{fill:#BB8A55;}
	.st17{fill:#F4EE31;stroke:#47361E;stroke-miterlimit:10;}
	.st18{fill:#C17237;stroke:#47361E;stroke-miterlimit:10;}
	.st19{fill:#874D26;stroke:#47361E;stroke-miterlimit:10;}
	.st20{fill:#C17237;}
	.st21{fill:#47361E;}
	.st22{fill:#F4EE31;stroke:#47361E;stroke-width:2;stroke-miterlimit:10;}
	.st23{fill:#030003;}
	.st24{fill:#050003;}
	.st25{fill:#311E33;}
	.st26{fill:#060006;}
	.st27{fill:#6D4C63;}
	.st28{fill:#311E33;stroke:#2E1D2D;stroke-width:3;stroke-miterlimit:10;}
	.st29{fill:#000100;}
	.st30{fill:#FFFFFF;}
	.st31{fill:#2E1D2D;}
	.st32{fill:#2B2135;}
	.st33{fill:#4EBBB4;}
	.st34{fill:#46B4AF;}
	.st35{fill:#201733;}
	.st36{fill:#272032;}
	.st37{fill:#F8F5E6;}
	.st38{fill:#F55C50;}
	.st39{fill:#F6F6EA;}
	.st40{fill:#211C2E;}
	.st41{fill:#45B8B3;}
	.st42{fill:#47B7B3;}
	.st43{fill:#39989F;}
	.st44{fill:#EE453C;}
	.st45{fill:#F8F5E7;}
	.st46{fill:#2C1E2D;}
	.st47{fill:#F3F1E4;}
	.st48{fill:#48BCB8;}
	.st49{fill:#22324C;}
</style>
<g>
	<polygon class="st0" points="928.88,346.72 914.56,347.76 912.75,318.48 927.06,317.44 	"/>
	<polygon class="st0" points="755.44,347.23 745.5,344.05 755.41,307.61 765.35,310.78 	"/>
	<g>
		<path class="st1" d="M1050.85,697.93c8.01,6.65,12.66,17.78,11.96,28.68c-0.1,1.68-0.35,3.42-1.17,4.86
			c-0.82,1.44-2.34,2.51-3.89,2.28c-0.54-0.08-1.07-0.33-1.45-0.75c-0.75-0.83-0.8-2.1-0.88-3.25
			c-0.71-10.29-7.46-18.84-14.46-25.83c-1.48-1.48-3.05-3.03-3.71-5.1c-0.65-2.07,0.02-4.81,1.92-5.54
			c0.72-0.26,1.49-0.22,2.24-0.13c4.69,0.59,9.17,3.09,12.32,6.91"/>
		<g>
			<path class="st2" d="M1050.55,698.5c4.91,4.12,8.56,9.96,10.4,16.46c0.91,3.23,1.38,6.59,1.33,9.97
				c-0.02,1.78-0.1,3.67-0.74,5.32c-0.64,1.64-2.2,3.28-3.95,2.79c-1.82-0.5-1.51-3.18-1.71-4.78c-0.2-1.63-0.54-3.23-1.02-4.79
				c-0.98-3.2-2.48-6.19-4.25-8.94c-1.83-2.83-3.92-5.44-6.15-7.89c-1.11-1.22-2.26-2.4-3.42-3.56s-2.37-2.39-3.03-3.98
				c-0.63-1.52-0.57-3.68,0.69-4.79c1.39-1.23,3.87-0.4,5.41,0.06c3.53,1.05,6.73,3.18,9.21,6.14c0.53,0.63,1.37-0.31,0.84-0.93
				c-2.41-2.86-5.45-4.99-8.82-6.18c-2.69-0.95-6.95-2.17-8.47,1.41c-1.43,3.38,0.68,6.5,2.84,8.73c2.7,2.79,5.4,5.54,7.77,8.67
				c2.42,3.19,4.55,6.73,5.9,10.63c0.65,1.88,1.12,3.85,1.35,5.85c0.18,1.6,0.02,3.53,1.14,4.77c1.08,1.2,2.83,1.18,4.14,0.48
				c1.46-0.78,2.4-2.28,2.89-3.95c1.03-3.5,0.69-7.74,0.11-11.3c-1.36-8.46-5.68-16.16-11.86-21.35
				C1050.53,696.84,1049.94,698,1050.55,698.5L1050.55,698.5z"/>
		</g>
	</g>
	<g>
		<path class="st1" d="M619.37,699.65c-8.01,6.65-12.66,17.78-11.96,28.68c0.1,1.68,0.35,3.42,1.17,4.86
			c0.82,1.44,2.34,2.51,3.89,2.28c0.54-0.08,1.07-0.33,1.45-0.75c0.75-0.83,0.8-2.1,0.88-3.25c0.71-10.29,7.46-18.84,14.46-25.83
			c1.48-1.48,3.05-3.03,3.71-5.1c0.65-2.07-0.02-4.81-1.92-5.54c-0.72-0.26-1.49-0.22-2.25-0.13c-4.69,0.59-9.17,3.09-12.32,6.91"/>
		<g>
			<path class="st2" d="M619.08,699.09c-5.49,4.61-9.5,11.18-11.29,18.54c-0.88,3.64-1.25,7.49-0.93,11.26
				c0.28,3.28,1.84,7.58,5.48,7.27c1.68-0.14,2.69-1.45,2.93-3.22c0.28-1.93,0.34-3.83,0.8-5.73c0.94-3.9,2.73-7.47,4.86-10.71
				c2.21-3.35,4.83-6.35,7.56-9.18c2.23-2.31,5.5-4.89,5.31-8.7c-0.08-1.56-0.73-3.18-2.01-3.97c-1.58-0.97-3.72-0.42-5.37,0.01
				c-3.96,1.02-7.6,3.37-10.37,6.65c-0.53,0.63,0.32,1.56,0.84,0.93c2.23-2.64,5.02-4.65,8.14-5.78c1.48-0.54,3.16-1.03,4.73-1
				c1.62,0.03,2.65,1.22,2.81,2.97c0.33,3.54-3.14,6.07-5.18,8.2c-2.3,2.39-4.49,4.91-6.44,7.64c-1.87,2.63-3.53,5.45-4.75,8.52
				c-1.22,3.08-1.75,6.16-2.07,9.48c-0.1,1.02-0.33,1.98-1.28,2.4c-0.85,0.38-1.82,0.09-2.56-0.45c-1.55-1.12-2.06-3.23-2.25-5.16
				c-0.31-3.31-0.06-6.7,0.61-9.93c1.56-7.47,5.48-14.27,11-18.91C620.28,699.72,619.69,698.57,619.08,699.09L619.08,699.09z"/>
		</g>
	</g>
	<g>
		<path class="st1" d="M637.08,678.54c-14.09,0.87-26.22,11.11-35.57,22.57c-4.5,5.5-8.7,11.67-10,18.88
			c-0.25,1.39-0.14,3.26,1.12,3.68c0.57,0.19,1.19-0.02,1.72-0.3c2.59-1.38,4.06-4.33,5.72-6.89c6.27-9.69,17.57-15.26,28.43-14.04
			c-2.96,3.7-5.05,8.21-6.02,12.98c-0.73,3.56-0.82,7.4,0.49,10.76c1.32,3.36,4.26,6.13,7.63,6.3c0.31,0.02,0.64,0.01,0.92-0.14
			c1.09-0.58,0.57-2.34,0.09-3.53c-2.18-5.48,0.2-12,3.97-16.36c3.77-4.35,8.74-7.21,13.16-10.79c4.42-3.58,8.5-8.38,9.16-14.31
			c0.2-1.82,0.05-3.72-0.64-5.39c-1.57-3.86-5.6-5.84-9.44-6.57c-7.09-1.33-14.63,0.61-20.42,5.23"/>
		<g>
			<path class="st2" d="M637.08,677.88c-15.22,1.02-28,12.39-37.56,24.71c-2.5,3.23-4.84,6.67-6.51,10.52
				c-0.84,1.91-1.51,3.91-1.94,5.98c-0.29,1.41-0.54,3.19,0.34,4.42c2.19,3.05,6.06-1.88,7.29-3.72c1.06-1.6,2-3.28,3.16-4.79
				c1.12-1.48,2.38-2.84,3.72-4.07c6.33-5.82,14.73-8.69,22.92-7.82c-0.14-0.38-0.28-0.75-0.42-1.13c-2.93,3.71-5.06,8.13-6.1,12.92
				c-1.02,4.71-0.98,10.08,1.8,14.08c1.08,1.55,2.52,2.82,4.17,3.55c1.28,0.56,3.8,1.36,4.61-0.41c0.77-1.68-0.61-3.75-0.94-5.37
				c-0.48-2.27-0.22-4.65,0.46-6.84c3.08-10,13.16-13.65,19.76-20.16c2.98-2.94,5.63-6.65,6.46-11.06c0.85-4.52-0.47-8.8-4-11.35
				c-3.83-2.79-8.94-3.34-13.41-2.89c-4.95,0.5-9.73,2.41-13.79,5.6c-0.62,0.49-0.02,1.64,0.61,1.15
				c6.44-5.07,15.44-7.22,23.04-4.29c3.79,1.46,6.74,4.57,6.63,9.28c-0.1,4.35-2.34,8.21-5.01,11.2
				c-5.64,6.32-13.8,9.39-18.71,16.58c-2.13,3.12-3.64,7.04-3.45,11.02c0.05,0.93,0.18,1.87,0.42,2.77
				c0.24,0.88,0.65,1.69,0.85,2.58c0.13,0.56,0.22,1.06-0.27,1.38c-0.45,0.29-1.09,0.11-1.58,0.01c-0.88-0.19-1.71-0.58-2.48-1.1
				c-4.26-2.89-5.11-8.78-4.3-13.84c0.82-5.13,2.99-9.93,6.08-13.85c0.36-0.45,0.1-1.08-0.42-1.13c-6.54-0.7-13.22,0.96-18.94,4.52
				c-2.83,1.76-5.44,4-7.65,6.64c-2.22,2.64-3.67,6.07-6.07,8.51c-0.62,0.63-1.39,1.26-2.21,1.53c-1.23,0.41-1.63-0.76-1.63-1.89
				c0.02-1.89,0.74-3.91,1.37-5.64c1.43-3.9,3.63-7.4,6.03-10.64c4.54-6.11,9.77-11.78,15.62-16.33c6.53-5.09,14.02-8.74,22.06-9.28
				C637.85,679.15,637.86,677.83,637.08,677.88L637.08,677.88z"/>
		</g>
	</g>
	<g>
		<path class="st3" d="M793.74,638.93c-20.88,14.81-35.12,38.38-45.95,62.74c-10.83,24.35-18.87,50.13-30.73,73.91
			c-20.36,40.79-52,74.87-89.77,96.68c20.17,1.35,40.67-9.11,52.57-26.8c-0.49,6.91-0.98,13.83-1.47,20.74
			c8.41-3.28,15.88-9.32,21.15-17.13c-0.37,6.08-0.73,12.16-1.11,18.24c8.75-3.48,16.28-10.44,20.84-19.24
			c1,18.6-2.22,37.45-9.32,54.43c8.82-6.57,20.82-9.17,30.38-3.96s14.76,19.51,8.99,29.28c8.76-7.69,17.52-15.39,26.28-23.09
			c3.54,8.14,4.87,17.4,3.77,26.33c5.09-3.61,10.19-7.23,15.29-10.84c2.61,5.59,5.22,11.18,7.83,16.76
			c6.67-8.24,13.66-16.18,20.95-23.79c2.45-2.56,5.08-5.17,8.35-6.22c6.55-2.09,13.57,3.02,16.61,9.64
			c3.03,6.63,3.05,14.33,3.02,21.73c1.83-4.76,3.67-9.53,5.51-14.29c3.15,6.14,7.02,11.85,11.5,16.93
			c4.97-7.21,9.96-14.42,14.93-21.63c1.37-1.98,2.89-4.09,5.09-4.79c2.18-0.7,4.5,0.16,6.63,1c9.35,3.7,18.7,7.39,28.05,11.1
			c1.16-6.83,1.57-13.8,1.23-20.74c3.99,0.61,7.81,2.41,10.95,5.13c0.56-3.48,1.12-6.96,1.68-10.44
			c11.27,14.2,24.27,26.79,38.55,37.33c-2.3-15.11-6.2-29.91-11.61-44.06c5.62,4.09,11.24,8.18,16.86,12.27
			c0.76-5.54,1.51-11.08,2.28-16.62c18.81,17.1,41.56,29.07,65.59,34.51c-7.38-11.85-18.84-19.81-28.89-29.09
			c-29.32-27.04-47.03-65.7-63.02-103.65c-12.85-30.5-25.12-61.27-36.78-92.33c-6.72-17.88-13.7-36.58-27.17-49.23
			c-12.98-12.19-30.64-17.24-47.82-17.58c-17.18-0.33-34.15,3.65-50.93,7.61"/>
	</g>
	<path class="st4" d="M883.75,642.15c-13.57,2.93-30.59,5.31-50.21,5.18c-18.23-0.12-34.13-2.41-47.03-5.18
		c2.02-2.37,6.19-7.91,7.97-16.4c1.84-8.78,0.12-15.93-0.8-18.99c26.57,0,53.14,0,79.71,0c-0.68,3.47-1.89,11.99,1.59,21.59
		C877.51,635.29,881.4,639.81,883.75,642.15z"/>
	<g>
		<path class="st3" d="M779.76,258.52c0.01-10.5,2.43-20.99,6.99-30.26c2.38-4.84,5.28-11.05,2.03-15.27
			c-1.14-1.49-2.94-2.45-3.54-4.27c-0.75-2.3,0.77-4.65,2.07-6.64c1.96-3.01,3.6-6.25,4.88-9.65c0.25-0.66,0.49-1.38,0.3-2.07
			c-0.17-0.64-0.67-1.11-1.15-1.54c-3.86-3.45-7.72-6.88-11.57-10.33c-2.18-1.95-4.54-3.98-7.34-4.29
			c-2.09-0.23-4.14,0.52-6.13,1.26c-5.56,2.08-11.13,4.16-16.69,6.24c-0.54,0.2-1.11,0.41-1.53,0.85c-0.65,0.66-0.84,1.68-0.99,2.64
			c-1.97,12-5.1,23.79-9.34,35.08c-2.19-15.16-3.18-30.51-2.96-45.86c0.07-4.77,0.33-9.8,2.72-13.81c1.76-2.95,4.5-5.03,7.17-7.03
			c8.65-6.49,17.35-13.01,26.87-17.87c6.4-3.27,13.14-5.76,20.05-7.41c5.09-1.22,10.35-1.98,15.53-1.34
			c8.83,1.1,16.89,6.28,23.36,12.87c6.48,6.59,11.57,14.59,16.62,22.52c4.93,7.74,9.85,15.49,14.77,23.22
			c2.19,3.45,4.38,6.9,6.45,10.44c11.28,19.37,18.44,41.17,25.51,62.76c-6.19,1.7-12.64,1.84-19.03,1.97
			c-29.1,0.62-58.19,1.23-87.29,1.84c-2.1,0.04-4.34,0.05-6.15-1.1c-1.82-1.15-2.93-3.93-1.72-5.8"/>
	</g>
	<g>
		<path class="st3" d="M758.28,297.99c3.71,15.36-4.89,28.29-21.57,72.22c-6.09,16.04-6.54,18.48-6.71,21.35
			c-0.97,15.78,10.19,28.98,15.65,43.65c7.01,18.84,4.49,40.18,8.44,60.04c1.22,6.12,3.16,12.3,7.08,16.91
			c3.21,3.78,7.54,6.26,11.97,8.08c8.84,3.64,18.32,4.97,27.7,6.28c11.11,1.55,22.27,3.1,33.46,2.79
			c19.28-0.54,38.03-6.57,56.51-12.54c3.33-1.08,6.7-2.17,9.72-4.04c9.82-6.07,14.11-19.12,14.97-31.32
			c0.86-12.21-0.89-24.55,0.49-36.7c0.26-2.27,0.66-4.63,1.9-6.49c1.95-2.94,5.47-3.98,8.48-5.56c9.6-5.04,14.98-16.91,15.46-28.46
			c0.47-11.55-3.21-22.83-7.78-33.27c-4.57-10.44-10.07-20.45-13.64-31.34c-5.8-17.74-7.36-39.23-21.42-50.3
			c-9.24-7.28-21.46-7.82-32.87-8.07c-15.17-0.34-38.6-4.08-71.4-1.63c-23.62,1.76-34.72,4.64-36.83,11.75
			C757.1,293.89,757.82,296.11,758.28,297.99z"/>
	</g>
	<path class="st5" d="M836.72,468.6c-26.96,1.3-45.07-28.18-48.62-33.68c-16.32-25.23-15.18-52.58-14.35-62.16
		c0.26-22.16,0.53-44.33,0.8-66.48c39.06,0.57,78.11,1.15,117.17,1.73c6.61,26.72,6.64,49.15,5.58,63.89
		c-1.41,19.68-2.99,41.61-16.74,63.03C874.17,444.87,859.65,467.48,836.72,468.6z"/>
	<g>
		<path class="st6" d="M823.12,341.42c-4.72,0.24-9.62,0.45-14-1.5c-2.53-1.13-4.77-2.94-7.36-3.86c-3.83-1.36-8.11-0.6-11.71,1.35
			s-6.61,5-9.24,8.29c3.07-3.53,7.59-5.5,12.05-5.26c3.71,0.19,7.22,1.82,10.65,3.39c3.43,1.57,6.96,3.15,10.68,3.23
			c3.72,0.08,7.71-1.65,9.42-5.23"/>
	</g>
	<g>
		<path class="st6" d="M846.66,341.42c4.72,0.24,9.62,0.45,14-1.5c2.53-1.13,4.77-2.94,7.36-3.86c3.83-1.36,8.11-0.6,11.71,1.35
			s6.61,5,9.24,8.29c-3.07-3.53-7.59-5.5-12.05-5.26c-3.71,0.19-7.22,1.82-10.65,3.39c-3.43,1.57-6.96,3.15-10.68,3.23
			c-3.72,0.08-7.71-1.65-9.42-5.23"/>
	</g>
	<g>
		<path class="st7" d="M824.77,364.11c2.45,9.89-9.08,25.62-22.32,25.04c-10.94-0.48-17.73-11.86-19.93-19.43
			c-0.77-2.64-3.19-10.97,0.8-15.97c3.86-4.84,11.37-3.6,17.54-2.59C807.9,352.32,822.44,354.72,824.77,364.11z"/>
		<path class="st8" d="M816.8,355.48c1.67,3.9-4.16,13.32-11.56,13.81c-4.46,0.3-7.68-2.76-8.37-3.46
			c-4.26-4.26-5.75-12.05-3.19-14.68c1.02-1.05,2.26-0.84,11.16,0.86C815.22,354.01,816.28,354.26,816.8,355.48z"/>
		
			<ellipse transform="matrix(0.4133 -0.9106 0.9106 0.4133 147.4514 941.5461)" class="st9" cx="804.4" cy="356.34" rx="3" ry="3.21"/>
	</g>
	<g>
		<path class="st7" d="M844.39,364.11c-2.45,9.89,9.08,25.62,22.32,25.04c10.94-0.48,17.73-11.86,19.93-19.43
			c0.77-2.64,3.19-10.97-0.8-15.97c-3.86-4.84-11.37-3.6-17.54-2.59C861.26,352.32,846.72,354.72,844.39,364.11z"/>
		<path class="st8" d="M852.36,355.48c-1.67,3.9,4.16,13.32,11.56,13.81c4.46,0.3,7.68-2.76,8.37-3.46
			c4.26-4.26,5.75-12.05,3.19-14.68c-1.02-1.05-2.26-0.84-11.16,0.86C853.94,354.01,852.88,354.26,852.36,355.48z"/>
		
			<ellipse transform="matrix(0.9106 -0.4133 0.4133 0.9106 -69.9812 389.2491)" class="st9" cx="864.69" cy="356.37" rx="3.21" ry="3"/>
	</g>
	<path class="st10" d="M860.24,431.46c-0.53,5.6-14.71,8.96-25.51,8.64c-9.99-0.3-23.55-3.95-23.91-9.5
		c-0.1-1.46,0.58-5.14,11.96-10.37c8.23,0,16.48,0,24.71,0C859.63,426.09,860.39,429.88,860.24,431.46z"/>
	<g>
		<g>
			<path class="st11" d="M820.59,431.66c4.55-3.72,9.6,0.07,14.4,0.76c2.66,0.38,5.18-0.4,7.74-1.13c2.21-0.63,4.92-1.28,7.02,0.07
				c1.33,0.85,2.53-1.43,1.2-2.28c-5.14-3.31-10.65,1.61-15.97,0.69c-2.65-0.47-5.12-1.78-7.78-2.22c-2.7-0.45-5.58,0.01-7.82,1.83
				C818.16,430.38,819.35,432.67,820.59,431.66L820.59,431.66z"/>
		</g>
	</g>
	<g>
		<g>
			<path class="st12" d="M823,397.37c-1.65,0.68-2.96,2.04-3.52,3.9c-0.51,1.7-0.3,3.79,1,4.98c1.47,1.35,3.37,1.07,5.13,0.93
				c0.88-0.07,1.72-0.08,2.49,0.46c0.64,0.44,1.16,1.08,1.69,1.66c1.24,1.33,2.58,2.35,4.38,2.34c1.66,0,3.65-0.48,5.01-1.58
				c0.8-0.64,1.16-1.64,1.88-2.32c0.52-0.48,1.2-0.57,1.85-0.59c1.5-0.03,2.99,0.3,4.49,0.01c4.2-0.81,4.37-6.06,2.51-9.4
				c-0.81-1.45-2.88-0.12-2.06,1.33c1.16,2.07,1.47,5.33-1.39,5.54c-2.37,0.18-5-0.81-6.98,1.15c-0.53,0.51-0.83,1.22-1.3,1.77
				c-0.47,0.56-1.11,0.85-1.75,1.05c-1.35,0.41-2.81,0.71-4.01-0.26c-0.96-0.78-1.71-1.87-2.68-2.66c-1.16-0.95-2.5-1.26-3.94-1.15
				c-1.06,0.08-3.54,0.77-4.1-0.76c-0.56-1.52,0.69-3.34,1.93-3.84C825.07,399.33,824.45,396.77,823,397.37L823,397.37z"/>
		</g>
	</g>
	<path class="st0" d="M757.02,311.44c-3.45,11.23-6.91,22.45-10.36,33.68c-19.92-3.75-36.39-8.29-48.62-12.09
		c-23.32-7.25-32.18-15.33-43.04-23.31c-6.38-4.7-9.81-12.77-8.77-20.72c1.23-9.32,8.4-16.87,17.54-18.13
		c20.75-4.5,37.41-3.9,48.62-2.59c11.57,1.36,23.73,4.25,70.14,23.31c18.58,7.63,33.91,14.27,44.64,18.99
		C803.78,310.87,780.39,311.16,757.02,311.44z"/>
	<path d="M1003.31,322.67c-12.91,6.92-29.21,14.02-48.62,18.99c-9.99,2.56-19.36,4.19-27.9,5.18c-5.58-22.45-11.16-44.9-16.74-67.35
		c8.87-0.51,18.48-0.58,28.69,0c23.79,1.37,44.49,5.96,61.37,11.23c7.14,0.8,12.82,6.97,13.55,14.68
		C1014.39,313.03,1010.06,320.26,1003.31,322.67z"/>
	<path d="M927.59,322.67c-22.9,1.58-55.44,0.82-92.46-10.37c-21.59-6.52-39.74-15.09-54.2-23.31c45.97-1.44,91.92-2.88,137.89-4.32
		C921.74,297.34,924.66,310.01,927.59,322.67z"/>
	<g>
		<path class="st13" d="M829.06,309.53c28.25,8.23,57.39,12.88,86.62,13.81"/>
	</g>
	<path class="st14" d="M911.65,288.01c-50.48,0.33-100.96,0.66-151.44,0.99c3.45-11.51,6.91-23.02,10.36-34.54h132.31
		C905.8,265.64,908.72,276.82,911.65,288.01z"/>
	<rect x="813.61" y="250.14" class="st15" width="41.45" height="37.12"/>
	<rect x="820.78" y="256.18" class="st14" width="27.9" height="24.18"/>
	<rect x="819.19" y="266.54" class="st15" width="12.75" height="5.18"/>
	<rect x="819.98" y="617.11" class="st15" width="23.91" height="30.22"/>
	<rect x="823.97" y="623.16" class="st4" width="15.94" height="8.64"/>
	<rect x="823.97" y="635.24" class="st4" width="15.94" height="6.91"/>
	<rect x="804.84" y="906.37" class="st3" width="16.74" height="34.54"/>
	<g>
		<path class="st3" d="M821.58,984.08c-6.11,0.29-12.22,0.57-18.33,0.86c-0.26-4.03-0.53-8.06-0.8-12.09
			c-30.14,17.72-59.29,21.85-73.33,8.64c-1.75-1.65-9.29-8.73-10.36-19.86c-0.79-8.18,1.82-19.61,8.77-22.45
			c5.47-2.23,12.08,1.48,11.96,2.59c-0.1,0.96-5.22-0.54-7.97,2.59c-3.08,3.5-2.16,11.64,1.59,16.4c4.36,5.53,11.62,5.32,16.74,5.18
			c13.13-0.36,23.2-7.37,28.69-12.09c-0.26-6.05-0.53-12.09-0.8-18.13h45.43C822.64,951.85,822.11,967.96,821.58,984.08z"/>
		<rect x="782.52" y="938.32" class="st16" width="17.54" height="15.54"/>
		<rect x="784.91" y="940.05" class="st3" width="12.75" height="12.09"/>
	</g>
	<g>
		<path class="st3" d="M846.15,984.08c6.11,0.29,12.22,0.57,18.33,0.86c0.26-4.03,0.53-8.06,0.8-12.09
			c30.14,17.72,59.29,21.85,73.33,8.64c1.75-1.65,9.29-8.73,10.36-19.86c0.79-8.18-1.82-19.61-8.77-22.45
			c-5.47-2.23-12.08,1.48-11.96,2.59c0.1,0.96,5.22-0.54,7.97,2.59c3.08,3.5,2.16,11.64-1.59,16.4c-4.36,5.53-11.62,5.32-16.74,5.18
			c-13.13-0.36-23.2-7.37-28.69-12.09c0.26-6.05,0.53-12.09,0.8-18.13h-45.43C845.09,951.85,845.62,967.96,846.15,984.08z"/>
		<rect x="867.67" y="938.32" class="st16" width="17.54" height="15.54"/>
		<rect x="870.06" y="940.04" class="st3" width="12.75" height="12.09"/>
	</g>
	<path class="st17" d="M1067.21,796.97c-4.77-2.62-12.6-6.07-22.68-6.99c-10.06-0.92-18.22,1.08-23.28,2.79c0-5.83,0-11.65,0-17.48
		c4.55-2.34,12.98-5.86,23.88-5.6c9.62,0.24,17.11,3.33,21.49,5.6C1066.81,782.52,1067.01,789.75,1067.21,796.97z"/>
	<path class="st18" d="M1056.71,765.71c-2.73-0.85-6.36-1.61-10.63-1.54c-4.85,0.08-8.9,1.2-11.81,2.32
		c-3.15-139.09-6.3-278.19-9.45-417.28c1.39-5.47,5.22-9.2,9.45-9.27c4.73-0.08,9.02,4.43,10.03,10.81
		C1048.44,489.08,1052.57,627.4,1056.71,765.71z"/>
	<path class="st19" d="M1066.9,783.33c-3.86-2.8-10.85-7.04-20.29-8.39c-12.66-1.81-22.53,2.6-26.86,4.89
		c-0.35-1.97-2.39-14.28,4.18-23.07c6.77-9.06,17.68-7.74,23.88-6.99c6.48,0.78,14.67,1.77,19.1,9.79
		C1072.51,769.69,1067.31,782.39,1066.9,783.33z"/>
	<g>
		<path class="st20" d="M1019.62,790.5c-5.5,4.51-7.67,9.81-11.07,16.97c-15.27,32.1-25.3,29.61-35.21,57.4
			c-7.86,22.03-13.31,45.2-22.04,66.77c-8.72,21.58-21.35,42.05-39.42,53.08c1.39,8.37,7.3,14.93,13.96,18.39
			c6.66,3.46,14.04,4.35,21.3,5.18c-1.53,9.94,6.9,17.72,14.28,22.94c11.94,8.46,24.9,17.23,38.82,15.99
			c2.2-0.19,4.49-0.63,6.56,0.25c1.92,0.81,3.36,2.64,4.92,4.19c8.15,8.14,21,8.93,29.83,1.83c3.45-2.77,6.63-6.73,10.81-7.01
			c2.48-0.16,4.85,1.05,7.26,1.72c7.94,2.21,16.88-1.94,21.36-9.92c1.13-2.02,2.09-4.35,3.87-5.56c2.47-1.69,5.57-0.66,8.39-0.07
			c5.88,1.25,12.08,0.33,17.52-2.58c1.83-0.98,3.63-2.2,5.63-2.46c2.86-0.37,5.59,1.28,8.3,2.43c7.82,3.33,16.83,2.61,24.19-1.96
			c1.92-1.19,3.8-2.66,5.95-3.05c2.53-0.46,5.06,0.64,7.56,1.31c8.85,2.38,18.66-0.94,25.06-8.48
			c-14.68-6.55-23.55-23.71-31.16-39.81c-11.49-24.28-16.72-38.9-42.44-106.16c-2.94-7.69-7.09-18.43-14.39-31.23
			c-5.32-9.33-10.58-16.72-19.1-28.66c-8.11-11.39-12.17-17.08-14.32-18.88C1052.74,782.06,1032.29,780.12,1019.62,790.5z"/>
		<g>
			<path class="st21" d="M1019.32,789.93c-5.37,4.48-8.22,10.77-11.29,17.2c-3.3,6.92-7.01,13.62-11.37,19.79
				c-5.85,8.25-13.01,15.29-17.97,24.3c-3.53,6.41-5.99,13.41-8.32,20.43c-2.88,8.62-5.47,17.35-8.13,26.05
				c-5.07,16.59-10.37,33.23-18.24,48.49c-7.87,15.25-18.36,29.32-32.41,37.95c-0.25,0.15-0.33,0.46-0.27,0.75
				c1.34,7.56,6.15,13.76,12.09,17.55c7.18,4.59,15.65,5.58,23.74,6.52c-0.19-0.28-0.38-0.56-0.57-0.84
				c-1.26,9.02,4.88,16.02,10.94,20.96c3.79,3.08,7.87,5.8,11.92,8.43c4.22,2.75,8.58,5.28,13.18,7.2
				c4.44,1.86,9.12,3.11,13.88,3.28c2.46,0.09,4.88-0.38,7.33-0.38c2.95,0,4.79,1.73,6.83,3.84c5.89,6.11,14.06,8.73,22,7.01
				c3.99-0.86,7.53-2.87,10.7-5.66c1.81-1.6,3.55-3.34,5.61-4.53c2.52-1.45,4.97-1.24,7.62-0.37c4.07,1.32,7.84,2.04,12.03,0.94
				c3.79-1,7.33-3.22,10.07-6.28c1.42-1.59,2.53-3.39,3.55-5.31c1.32-2.48,2.73-4.65,5.56-4.8c2.32-0.12,4.61,0.78,6.88,1.11
				c2.57,0.38,5.16,0.36,7.73-0.03c2.3-0.35,4.57-1,6.73-1.97c2.3-1.02,4.49-2.78,6.96-3.26c2.62-0.51,5.17,0.89,7.53,1.96
				c2.31,1.05,4.69,1.8,7.17,2.18c4.54,0.7,9.22,0.21,13.56-1.43c2.13-0.8,4.11-1.91,6.06-3.16c2.63-1.7,4.97-2.69,8.05-1.96
				c2.27,0.54,4.45,1.37,6.77,1.67c2.12,0.27,4.26,0.25,6.37-0.06c4.09-0.6,8.04-2.22,11.49-4.73c1.75-1.28,3.34-2.78,4.79-4.44
				c0.33-0.39,0.14-0.92-0.26-1.1c-10.69-4.85-18.12-15.27-23.96-25.9c-4.07-7.39-7.63-15.12-11.13-22.86
				c-5.25-11.63-10-23.52-14.63-35.46c-8.36-21.51-16.4-43.18-24.76-64.69c-4.56-11.73-9.95-23.02-16.47-33.58
				c-6.72-10.88-14.32-21.12-21.74-31.41c-2.31-3.21-4.58-6.54-7.21-9.44c-2.96-3.26-7.03-5.5-10.86-7.22
				c-9.71-4.35-21.23-5.17-31.05-0.73C1023.48,786.98,1021.32,788.31,1019.32,789.93c-0.61,0.49-0.02,1.65,0.61,1.15
				c8.82-7.13,20.6-8.14,30.95-5.17c5.25,1.5,10.56,4.05,14.83,7.8c2.23,1.97,4.02,4.66,5.81,7.09
				c7.52,10.22,15.05,20.56,21.97,31.29c6.74,10.45,12.45,21.64,17.17,33.36c4.87,12.09,9.37,24.39,14.03,36.6
				c3.62,9.49,7.24,18.98,10.9,28.45c4.72,12.2,9.51,24.38,14.81,36.29c2.99,6.72,6.07,13.39,9.38,19.91
				c5.28,10.43,11.53,20.96,20.63,27.77c2.15,1.61,4.45,2.95,6.85,4.05c-0.09-0.37-0.18-0.74-0.26-1.1
				c-6,6.95-15.07,10.48-23.67,8.51c-2.34-0.53-4.6-1.57-7.01-1.64c-2.26-0.07-4.22,0.96-6.13,2.19c-4.29,2.75-8.74,4.63-13.73,4.94
				c-4.93,0.31-9.39-0.99-13.92-3.01c-2.01-0.91-4.14-1.73-6.35-1.41c-2.26,0.33-4.18,1.73-6.21,2.76
				c-4.61,2.35-9.81,3.26-14.86,2.59c-3.99-0.53-8.67-2.78-11.92,1.03c-1.34,1.56-2.12,3.59-3.2,5.35
				c-1.21,1.97-2.74,3.71-4.47,5.12c-3.27,2.67-7.26,4.26-11.33,4.32c-2.21,0.04-4.27-0.47-6.37-1.18c-2.1-0.71-4.26-1.42-6.47-1
				c-4.18,0.8-7.13,4.66-10.46,7.23c-6.82,5.27-16.13,5.89-23.59,1.87c-1.88-1.01-3.63-2.31-5.19-3.85
				c-1.58-1.57-3.03-3.39-5.04-4.29c-2.04-0.91-4.26-0.59-6.39-0.38c-2.34,0.23-4.7,0.21-7.04-0.08c-9.8-1.22-18.75-6.67-27-12.32
				c-6.82-4.66-15.61-10.04-18.4-18.96c-0.68-2.17-0.86-4.43-0.55-6.69c0.06-0.46-0.16-0.78-0.57-0.84
				c-7.75-0.9-15.86-1.83-22.79-6.12c-5.85-3.62-10.58-9.58-11.89-16.98c-0.09,0.25-0.18,0.49-0.27,0.75
				c25.9-15.93,38.81-47.95,48.17-77.46c2.81-8.85,5.42-17.78,8.2-26.64c2.53-8.06,5.01-16.25,8.46-23.89
				c2.29-5.05,5.09-9.76,8.37-14.08c2.97-3.9,6.19-7.54,9.18-11.41c4.54-5.87,8.51-12.22,11.98-18.93
				c3.95-7.63,6.81-16.33,13.37-21.8C1020.53,790.56,1019.93,789.41,1019.32,789.93z"/>
		</g>
	</g>
	<g>
		<g>
			<path class="st21" d="M1065.8,875.98c5.19,16.93,9.35,34.25,12.45,51.8c3.11,17.62,5.15,35.47,6.1,53.4
				c0.54,10.14,0.73,20.3,0.57,30.46c-0.02,1.7,2.37,1.7,2.39,0c0.27-18.09-0.55-36.18-2.46-54.15
				c-1.91-17.91-4.88-35.68-8.93-53.15c-2.27-9.79-4.88-19.49-7.81-29.06C1067.62,873.68,1065.31,874.36,1065.8,875.98
				L1065.8,875.98z"/>
		</g>
	</g>
	<g>
		<g>
			<path class="st21" d="M1102.06,952.87c8.28,18.09,13.28,38.01,14.74,58.22c0.41,5.7,0.53,11.42,0.39,17.14
				c-0.04,1.7,2.35,1.7,2.39,0c0.52-20.67-2.57-41.47-9.16-60.83c-1.84-5.41-3.95-10.71-6.3-15.86
				C1103.43,950.01,1101.37,951.35,1102.06,952.87L1102.06,952.87z"/>
		</g>
	</g>
	<g>
		<g>
			<path class="st21" d="M1097.07,869.81c5.24,20.85,11.28,41.47,18.1,61.76c6.75,20.07,14.27,39.83,22.53,59.2
				c4.67,10.96,9.59,21.79,14.74,32.49c0.73,1.5,2.79,0.17,2.06-1.33c-9.09-18.89-17.45-38.2-25.05-57.87
				c-7.64-19.77-14.5-39.9-20.58-60.31c-3.41-11.46-6.58-23-9.5-34.63C1098.96,867.47,1096.65,868.17,1097.07,869.81L1097.07,869.81
				z"/>
		</g>
	</g>
	<g>
		<g>
			<path class="st21" d="M1040.36,877.22c0.37,11.11,2.63,21.96,4.68,32.79c2.06,10.85,3.59,21.78,4.52,32.81
				c1.88,22.27,1.66,44.69,0.69,67c-0.54,12.55-1.32,25.08-2.11,37.62c-0.1,1.7,2.29,1.69,2.39,0c1.4-22.35,2.8-44.73,2.85-67.14
				c0.05-22.26-1.26-44.58-5.18-66.45c-2.18-12.14-5.01-24.2-5.44-36.63C1042.7,875.52,1040.31,875.52,1040.36,877.22
				L1040.36,877.22z"/>
		</g>
	</g>
	<g>
		<g>
			<path class="st21" d="M1009.99,926.79c2.69,19.72-0.88,39.63-5.6,58.61c-1.35,5.46-2.82,10.9-4.3,16.33
				c-0.45,1.63,1.87,2.33,2.3,0.71c5.25-19.34,10.53-39.08,10.89-59.42c0.1-5.67-0.22-11.33-0.99-16.93
				C1012.07,924.41,1009.76,925.12,1009.99,926.79L1009.99,926.79z"/>
		</g>
	</g>
	<path class="st22" d="M1108.99,860.24c-7.85,4.6-14.71,7.38-19.7,9.09c-19.16,6.57-36,6.06-47.75,5.6
		c-6.09-0.24-6.07-0.58-20.29-1.4c-14.24-0.82-16.68-0.62-22.09-1.4c-6.06-0.87-14.71-2.83-25.07-7.69
		c0.98-3.6,2.46-7.96,4.77-12.59c3.33-6.68,7.15-11.48,10.15-14.68c11.9,4.05,30.42,8.55,53.12,6.99
		c21.66-1.49,38.9-7.93,50.14-13.28c2.97,3.64,6.31,8.27,9.55,13.98C1104.98,850.43,1107.29,855.71,1108.99,860.24z"/>
	<g>
		<path class="st1" d="M1033.14,676.82c14.09,0.87,26.22,11.11,35.57,22.57c4.5,5.5,8.7,11.67,10,18.88
			c0.25,1.39,0.14,3.26-1.12,3.68c-0.57,0.19-1.19-0.02-1.72-0.3c-2.59-1.38-4.07-4.33-5.72-6.89
			c-6.27-9.69-17.57-15.26-28.43-14.04c2.96,3.7,5.05,8.21,6.02,12.98c0.73,3.56,0.82,7.4-0.49,10.76c-1.32,3.36-4.26,6.13-7.63,6.3
			c-0.31,0.02-0.64,0.01-0.92-0.14c-1.09-0.58-0.57-2.34-0.09-3.53c2.18-5.48-0.2-12-3.97-16.36c-3.77-4.35-8.74-7.21-13.16-10.79
			c-4.42-3.58-8.5-8.38-9.16-14.31c-0.2-1.82-0.05-3.72,0.64-5.39c1.57-3.86,5.6-5.84,9.44-6.57c7.09-1.33,14.63,0.61,20.42,5.23"/>
		<g>
			<path class="st2" d="M1033.14,677.48c14.47,0.97,26.58,11.66,35.83,23.21c2.53,3.16,4.89,6.5,6.69,10.22
				c0.61,1.27,4.56,11,1.16,10.4c-1.67-0.3-3.12-2.24-4.08-3.64c-0.96-1.41-1.79-2.91-2.77-4.3c-1.99-2.84-4.42-5.29-7.12-7.3
				c-6.15-4.58-13.73-6.8-21.11-6.01c-0.53,0.05-0.78,0.68-0.42,1.13c2.75,3.49,4.75,7.66,5.75,12.15
				c1.01,4.53,1.03,9.88-1.91,13.59c-1.19,1.5-2.76,2.64-4.54,3.04c-0.39,0.09-0.89,0.23-1.29,0.14c-0.77-0.17-0.7-0.74-0.58-1.38
				c0.18-0.94,0.63-1.8,0.88-2.72c1.01-3.75,0.16-7.8-1.5-11.16c-3.95-8.04-12.1-11.44-18.16-17.07c-2.87-2.67-5.52-5.98-6.61-10.03
				c-0.6-2.25-0.74-4.77,0.06-6.97c0.69-1.89,2.05-3.33,3.61-4.35c3.71-2.42,8.45-2.82,12.66-2.34c4.62,0.52,9.07,2.41,12.86,5.39
				c0.63,0.49,1.23-0.65,0.61-1.15c-6.85-5.39-16.79-7.68-24.78-4.09c-3.63,1.63-6.42,4.73-6.68,9.23
				c-0.26,4.56,1.82,8.82,4.49,12.12c6.03,7.45,15.89,10.5,20.6,19.33c1.08,2.04,1.87,4.32,2.04,6.69c0.09,1.14,0.03,2.3-0.21,3.42
				c-0.22,1.07-0.71,2.03-0.97,3.08c-0.45,1.78,0.12,3.39,1.98,3.33c1.77-0.06,3.5-0.87,4.89-2.05c3.99-3.38,4.85-9.1,4.08-14.31
				c-0.81-5.5-3.15-10.64-6.45-14.82c-0.14,0.38-0.28,0.75-0.42,1.13c7.25-0.78,14.61,1.39,20.64,5.92
				c2.97,2.24,5.56,5.06,7.63,8.33c0.99,1.57,1.92,3.21,3.14,4.58c1.04,1.16,2.61,2.59,4.19,2.46c3.56-0.29,1.66-6.43,0.99-8.44
				c-1.32-3.98-3.42-7.58-5.78-10.9c-4.65-6.55-10.19-12.54-16.32-17.4c-6.8-5.39-14.64-9.2-23.06-9.77
				C1032.37,676.1,1032.38,677.42,1033.14,677.48L1033.14,677.48z"/>
		</g>
	</g>
	<g>
		<path class="st3" d="M811.07,510.88c-12.78-4.63-14.2-14.61-24.33-13.85c-10.91,0.83-19.14,12.89-22.94,19.77
			c-5.16,9.36-8.05,19.93-11.61,30.13c-21.43,61.39-69.82,110.99-127.59,130.78c8.45,2.04,17.14,2.9,25.79,2.57
			c-1.28,8.76-2.57,17.51-3.86,26.27c3.4,1.44,7.12,1.99,10.74,1.6c-3.16,23.86-5.81,50.34,6.89,70.12
			c-1.87-18.36,1.37-37.29,9.17-53.72c-2.34,12.49-1.52,25.66,2.32,37.71c2.8-9.42,3.87-19.43,3.12-29.3
			c4.34,16.21,8.7,32.43,13.04,48.64c3.94-7.36,5.13-16.39,3.26-24.64c2.08,8.33,4.16,16.66,6.24,24.99
			c2.82-8.08,4.95-16.44,6.36-24.94c3.97,4.85,6.87,10.72,8.39,16.98c8.06-7.66,11.33-19.73,12.1-31.32
			c0.77-11.58-0.57-23.23,0.12-34.82c1.04-17.63,10.03-43.88,13.19-51.73c15.97-39.54,30.73-72.94,41.46-96.42
			c3.87,20.03,8.72,34.67,11.96,40.58c2.85,5.21,6.38,8.64,6.38,8.64s2.5,2.43,5.58,4.32c11.62,7.1,35.63,2.38,53.94-0.24
			c1.21-0.18,4.04-0.59,6.93-2.63c2.44-1.73,4.1-4.45,5.59-7.17c5.68-10.43,9.76-21.89,12-33.75c7.83,16.61,15.66,33.21,23.49,49.82
			c12.81,27.17,25.82,54.97,29.84,85.18c3.52,26.34,0.73,55.78,15.73,76.86c2.8-6.32,4.97-12.97,6.44-19.8
			c1.82,4.49,3.64,8.97,5.46,13.46c2.45-7.69,4.02-15.71,4.68-23.81c1.85,6.57,4.64,12.82,8.24,18.47
			c0.64-5.46,1.28-10.92,1.91-16.39c4.81-8.24,8.31-17.38,10.3-26.9c3.44,16.74,3.69,34.23,0.72,51.08
			c3.17-12.83,6.34-25.68,9.52-38.51c5.67,7.62,9.21,17.06,10.06,26.8c2.92-18.55,4-37.45,3.24-56.25
			c2.62,6.42,6.43,12.25,11.15,17.06c-0.12-14.22-1.87-28.43-5.18-42.18c8.19-0.02,16.37-0.03,24.56-0.04
			c-14.6-15.05-36.35-17.83-54.48-27.37c-23.63-12.44-40.59-36.26-52.65-61.55s-20.05-52.61-31.16-78.4
			c-1.24-2.87-3.36-10.29-9.73-14.92c-7.23-5.26-15.68-4.23-32.5-0.63C826.05,509.69,821.75,514.74,811.07,510.88z"/>
	</g>
	<path class="st5" d="M833.53,560.12L833.53,560.12c-3.29-7.59-7.96-17.44-14.35-28.5c-8.31-14.37-14.66-22.33-11.96-27.63
		c2.59-5.09,10.73-2.28,15.14-9.5c1.71-2.8,1.94-5.61,2.39-11.23c0.55-6.87-0.11-12.58-0.8-16.4c7.44,0,14.88,0,22.32,0
		c0.06,3.25,0.25,8.03,0.8,13.81c0.59,6.15,0.88,9.23,1.59,11.23c3.56,9.95,13.3,8.86,15.14,15.54c1.85,6.73-6.65,12.87-16.74,27.63
		C840.48,544.74,836.22,553.69,833.53,560.12z"/>
</g>
<path class="st23" d="M1466.89,599.49c2.16-3.34,0.14-8.02-3.55-8.24c-7.04-0.4-16.81,0.28-27.5,4.94
	c-11.31,4.94-19.18,12.39-24.09,18.2c-2.34,2.78-1.31,7.34,1.93,8.53c9.21,3.35,18.42,6.7,27.63,10.06c1.92,0.7,4.03-0.07,5.21-1.9
	C1453.32,620.54,1460.1,610.01,1466.89,599.49z"/>
<path class="st23" d="M1530.42,606.3c2.16-3.34,0.14-8.02-3.55-8.24c-7.04-0.4-16.81,0.28-27.5,4.94
	c-11.31,4.94-19.18,12.39-24.09,18.2c-2.34,2.78-1.31,7.34,1.93,8.53c9.21,3.35,18.42,6.7,27.63,10.06c1.92,0.7,4.03-0.07,5.21-1.9
	C1516.84,627.35,1523.62,616.83,1530.42,606.3z"/>
<path class="st23" d="M1591.32,621.87c2.16-3.34,0.14-8.02-3.55-8.24c-7.04-0.4-16.81,0.28-27.5,4.94
	c-11.31,4.94-19.18,12.39-24.09,18.2c-2.34,2.78-1.31,7.34,1.93,8.53c9.21,3.35,18.42,6.7,27.63,10.06c1.92,0.7,4.03-0.07,5.21-1.9
	C1577.76,642.92,1584.54,632.39,1591.32,621.87z"/>
<path class="st23" d="M1645.28,643.27c2.16-3.34,0.14-8.02-3.55-8.24c-7.04-0.4-16.81,0.28-27.5,4.94
	c-11.31,4.94-19.18,12.39-24.09,18.2c-2.34,2.78-1.31,7.34,1.93,8.53c9.21,3.35,18.42,6.7,27.63,10.06c1.92,0.7,4.03-0.07,5.21-1.9
	C1631.71,664.33,1638.5,653.8,1645.28,643.27z"/>
<path class="st23" d="M1695.42,667.67c2.44-3.11,0.82-7.97-2.83-8.57c-6.97-1.15-16.77-1.51-27.79,2
	c-11.67,3.71-20.14,10.29-25.52,15.56c-2.58,2.52-1.93,7.17,1.2,8.69c8.88,4.32,17.77,8.63,26.65,12.95
	c1.86,0.9,4.01,0.36,5.34-1.34C1680.12,687.18,1687.77,677.43,1695.42,667.67z"/>
<path class="st23" d="M1741.26,707.08c3.24-1.98,3.23-7.17-0.02-9.14c-6.19-3.76-15.28-7.87-26.71-8.82
	c-12.1-1.02-22.08,1.91-28.75,4.78c-3.19,1.37-4.02,5.98-1.55,8.62c7.01,7.48,14.02,14.94,21.03,22.42c1.46,1.56,3.66,1.88,5.44,0.8
	C1720.89,719.51,1731.07,713.29,1741.26,707.08z"/>
<path class="st23" d="M1784.57,754.65c3.55-1.14,4.55-6.21,1.77-8.92c-5.31-5.19-13.37-11.42-24.33-15.15
	c-11.61-3.95-21.92-3.55-28.99-2.37c-3.38,0.56-5.1,4.85-3.2,8.04c5.38,9.01,10.75,18.01,16.13,27.02c1.12,1.88,3.2,2.73,5.14,2.11
	C1762.26,761.79,1773.41,758.22,1784.57,754.65z"/>
<path class="st23" d="M1808.04,842.87c3.5,1.33,6.9-2.21,6-6.21c-1.72-7.64-5.17-17.9-12.28-27.95
	c-7.53-10.64-16.21-16.88-22.62-20.41c-3.06-1.7-6.66,0.74-6.72,4.56c-0.17,10.83-0.33,21.66-0.5,32.48
	c-0.04,2.26,1.24,4.29,3.16,5.02C1786.06,834.53,1797.05,838.7,1808.04,842.87z"/>
<path class="st23" d="M1796.99,897.89c2.65,2.87,7.08,1.31,7.8-2.73c1.38-7.73,2.19-18.65-0.39-31.14
	c-2.73-13.23-8.18-23.01-12.62-29.28c-2.12-3-6.3-2.52-7.82,0.9c-4.3,9.71-8.6,19.41-12.89,29.11c-0.9,2.02-0.52,4.46,0.93,6.04
	C1780.32,879.82,1788.65,888.85,1796.99,897.89z"/>
<path class="st24" d="M1274.02,206.14c-16.95-1.44-33.89-2.88-50.83-4.32c-3.17-0.27-5.1,3.83-3.11,6.6
	c7.08,9.83,14.15,19.67,21.23,29.5c1.24,1.72,3.47,2.02,5.04,0.68c9.87-8.39,19.73-16.79,29.6-25.18
	C1278.6,211.17,1277.35,206.43,1274.02,206.14z"/>
<path class="st24" d="M1295.77,244.09c-16.95-1.44-33.89-2.88-50.83-4.32c-3.17-0.27-5.1,3.83-3.11,6.6
	c7.08,9.83,14.15,19.67,21.23,29.5c1.24,1.72,3.47,2.02,5.04,0.68c9.87-8.39,19.73-16.79,29.6-25.18
	C1300.36,249.12,1299.11,244.37,1295.77,244.09z"/>
<path class="st24" d="M1298.29,309.22c-11.78-13.69-23.56-27.39-35.35-41.08c-2.2-2.56-6.09-0.95-6.25,2.61
	c-0.58,12.6-1.15,25.21-1.73,37.82c-0.1,2.2,1.38,4.09,3.35,4.26c12.36,1.09,24.72,2.17,37.08,3.26
	C1298.72,316.38,1300.61,311.9,1298.29,309.22z"/>
<path class="st24" d="M1286.87,419.71c-8.2-16.64-16.4-33.29-24.59-49.93c-1.54-3.12-5.66-2.68-6.64,0.71
	c-3.49,12.01-6.97,24.01-10.46,36.02c-0.61,2.09,0.39,4.35,2.24,5.09c11.68,4.64,23.37,9.28,35.05,13.92
	C1285.62,426.76,1288.48,422.98,1286.87,419.71z"/>
<path class="st24" d="M1279.03,476.15c-8.2-16.64-16.4-33.29-24.59-49.93c-1.54-3.12-5.66-2.68-6.64,0.71
	c-3.49,12.01-6.97,24.01-10.46,36.02c-0.61,2.09,0.39,4.35,2.24,5.09c11.68,4.64,23.37,9.28,35.05,13.92
	C1277.78,483.19,1280.65,479.42,1279.03,476.15z"/>
<path class="st24" d="M1274.69,525.77c-8.2-16.64-16.4-33.29-24.59-49.93c-1.54-3.12-5.66-2.68-6.64,0.71
	c-3.49,12.01-6.97,24.01-10.46,36.02c-0.61,2.09,0.39,4.35,2.24,5.09c11.68,4.64,23.37,9.28,35.05,13.92
	C1273.44,532.82,1276.3,529.05,1274.69,525.77z"/>
<path class="st24" d="M1182.61,208.9c-14.8,2.27-29.58,4.54-44.38,6.81c9.01-12.64,22.32-28.67,40.9-43.79
	c20.63-16.8,40.35-26.46,54.82-32.12c3.77-0.32,7.54-0.65,11.32-0.97c-13.81,6.71-24.26,13.98-31.32,19.46
	c-8.98,6.97-14.63,11.43-20.02,19.46C1186.1,189.44,1183.56,201.61,1182.61,208.9z"/>
<path class="st24" d="M1309.66,147.6c-12.72,3.59-34.33,11.7-55.7,31.14c-15.38,13.99-25.28,28.98-31.32,39.9
	c-15.08-6.49-30.16-12.97-45.25-19.46c20.29-11.84,43.23-23.83,68.74-35.03c22.78-10,44.4-17.95,64.4-24.33
	c2,0.2,3.47,2.01,3.48,3.9C1314.03,145.9,1312.04,147.96,1309.66,147.6z"/>
<g>
	<path class="st25" d="M1545.3,1005.97c-22.31,3.1-34.77-0.54-62.99-3.33c-14.68-1.45-36.26-2.93-63.03-2.32
		c2.11,4.04,4.22,8.1,6.33,12.14c-20.14,3.86-39.35,13.6-55.22,28.01c18.68,1.32,37.37,2.65,56.04,3.97
		c1.72,0.12,3.59,0.31,4.86,1.6c1.28,1.3,1.35,4.12-0.25,4.84c22.74,0.81,40.24-21.95,61.75-30.22c13.39-5.15,17.38-1.99,36.23-6.19
		c33.85-7.54,58.24-19.78,58.06-20.43C1586.93,993.52,1570.19,1002.52,1545.3,1005.97z"/>
</g>
<path class="st25" d="M1788.28,896.88c-21.12,45.18-58.3,63.95-91.37,79.79c-78.3,37.51-154.99,36.65-205.37,30.16
	c22.81-0.77,57-3.58,97.46-13.62c69.23-17.19,132.58-32.63,159.25-88.56c6.37-13.36,20.53-49.72,5.22-110.94
	c16.24,5.19,32.49,10.38,48.74,15.57C1803.89,828.43,1804.3,862.61,1788.28,896.88z"/>
<path class="st26" d="M1443.67,970.84c-57.06,8.49-72.83,3.99-74.84-2.92c-1.88-6.48,7.28-18.66,18.28-22.38
	c10.37-3.51,19.43,1.52,21.76,2.92c-1.23-9.01-2.08-19.85-1.74-32.12c0.43-15.84,2.72-29.38,5.22-39.9
	c-6.77-1.78-15.64-4.92-25.24-10.71c-11.06-6.67-19.07-14.44-24.36-20.44c-1.74-16.54-3.48-33.09-5.22-49.63
	c18.74-0.14,38.19,0.15,58.3,0.97c24.22,0.99,47.45,2.67,69.62,4.87C1471.52,857.95,1457.59,914.4,1443.67,970.84z"/>
<path class="st25" d="M1554.19,843.36c-35.59-2.34-71.19-4.68-106.78-7.02c-6.16-0.4-10.65-6.71-9.61-13.52
	c3.12-20.39,6.24-40.79,9.36-61.19c46.41-3.57,92.82-7.13,139.23-10.71C1575.65,781.73,1564.93,812.54,1554.19,843.36z"/>
<path class="st25" d="M1534.62,780.11c-50.78,4.88-76.16,7.33-103.56,15.57c-13.9,4.18-30.65,10.2-55.7,12.65
	c-21.43,2.1-39.31,0.66-51.34-0.97c0.15-26.11,0.29-52.22,0.43-78.33c0-23.35,0-46.71,0-70.06c6.91-9.81,25.6-33.51,57-42.33
	c12.92-3.63,24.43-3.75,33.07-2.92c24.06-1.02,54.96-0.49,90.5,4.87c16.4,2.47,57.85,9.6,109.64,30.16
	c49.21,19.54,83.79,33.26,119.22,67.15c18.45,17.65,47.03,50.22,68.74,104.12c-64.26-31.59-118.45-40.9-154.03-43.79
	C1608.68,772.99,1573.71,776.35,1534.62,780.11z"/>
<path class="st27" d="M1763.04,888.13c0.11-12.04-1.18-42.92-20.88-68.12c-12.85-16.43-27.94-23.29-40.9-29.19
	c-21.27-9.67-38.86-11.09-60.92-12.65c-17.05-1.21-40.95-1.47-69.62,2.92c3.48-19.46,6.96-38.93,10.44-58.38
	c18.55-2.7,61.11-5.97,107.04,18.49c28.59,15.22,47.87,35.54,59.18,49.63c4.98,5.99,17.22,22.29,20.88,47.68
	C1771.66,861.99,1765.87,880.49,1763.04,888.13z"/>
<path class="st27" d="M1442.81,798.6c-16.17,3.53-34.88,6.48-55.7,7.78c-21.72,1.37-41.34,0.66-58.3-0.97
	c1.16-25.95,2.32-51.9,3.48-77.85c19.39,0.02,40.36-0.82,62.66-2.92c20.15-1.9,39.04-4.6,56.56-7.78
	C1448.61,744.1,1445.71,771.35,1442.81,798.6z"/>
<path class="st26" d="M1227.86,971.81c-48.46,5.01-62.11,0.95-63.52-4.87c-1.45-5.95,9.57-15.09,11.32-16.54
	c9.45-7.84,19.48-7.9,22.62-7.78c-19.44-77.85-38.87-155.69-58.3-233.54c39.16,36.33,78.32,72.66,117.48,108.99
	C1247.59,869.31,1237.72,920.56,1227.86,971.81z"/>
<path class="st28" d="M1263.76,560.19c3.55,7.46,7.1,14.92,10.66,22.38c-13.61,72.98-27.23,145.97-40.85,218.95
	c-20.49-9.49-71.89-37.01-96.79-97.31c-28.1-68.04-6.9-140.19-1.78-157.64c12.05-41.02,45.28-116.17,55.05-163.48
	c1.17-5.64,3.06-16.02,1.78-29.19c-2.06-21.13-11.08-37.13-17.76-46.71c14.7-3.91,32.66-7.41,53.28-8.76
	c21.14-1.37,39.78-0.14,55.05,1.94c0.39,12.87,0.57,32.54-0.89,56.44c-3.23,52.9-11.64,76.37-15.99,126.5
	C1264.04,500.66,1262.5,527.14,1263.76,560.19z"/>
<path class="st29" d="M1234.82,355.84c-13.06,5.51-26.1,11.03-39.16,16.54c1.11-6.18,3.4-23.31-4.35-41.84
	c-5.28-12.65-12.95-20.44-17.4-24.33c22.62-1.94,45.25-3.9,67.88-5.84C1239.46,318.86,1237.14,337.35,1234.82,355.84z"/>
<path class="st25" d="M1282.69,299.4c-32.49-0.25-69.04,1.51-108.78,6.81c-47.28,6.3-89.33,16.31-125.31,27.25
	c-4.15-10.23-8.41-25.38-5.22-41.84c6.05-31.23,34.84-46.17,80.93-70.06c38.7-20.07,62.61-31.91,91.37-23.35
	c3.75,1.11,18.9,5.95,33.94,20.44C1280.03,247.93,1282.37,290.15,1282.69,299.4z"/>
<ellipse transform="matrix(0.5585 -0.8295 0.8295 0.5585 286.5778 1068.4534)" class="st30" cx="1147.03" cy="265.01" rx="13.79" ry="11.96"/>
<ellipse transform="matrix(0.6439 -0.7651 0.7651 0.6439 205.6938 969.6316)" class="st29" cx="1144.49" cy="263.84" rx="9.8" ry="8.14"/>
<path class="st29" d="M1166.95,245.88c-3.88-1.19-11.76-2.93-20.88,0c-16.97,5.46-24.13,22.55-25.24,25.3c0,2.92,0,5.84,0,8.76
	c2.65-4.46,9.12-14.05,20.88-20.44c10.71-5.81,20.47-6.07,25.24-5.84c0.17-0.15,1.74-1.51,1.74-3.9
	C1168.69,249.53,1168.66,247.31,1166.95,245.88z"/>
<g>
	<g>
		<path class="st29" d="M1067.07,303.84c0.69-1.32,1.73-2.3,2.81-3.2c1.25-1.06,2.54-2.06,3.85-3.01c2.6-1.87,5.31-3.52,8.11-4.95
			c0.57-0.3,0.7-1.23,0.42-1.79c-0.33-0.67-1.02-0.76-1.59-0.47c-2.97,1.52-5.84,3.28-8.58,5.3c-1.33,0.98-2.64,2.01-3.89,3.11
			c-1.22,1.06-2.35,2.2-3.13,3.71C1064.31,303.97,1066.32,305.3,1067.07,303.84L1067.07,303.84z"/>
	</g>
</g>
<g>
	<g>
		<path class="st29" d="M1068.96,303.23c-0.08-0.95-0.65,1.57-0.27,0.96c0.25-0.4-0.58,0.73-0.09,0.1c0.22-0.28,0.44-0.56,0.67-0.83
			c0.45-0.55,0.91-1.09,1.39-1.61c1.01-1.11,2.07-2.14,3.16-3.13c0.36-0.32-0.55,0.46-0.18,0.16c0.15-0.12,0.29-0.25,0.44-0.38
			c0.27-0.23,0.53-0.45,0.81-0.66c0.57-0.46,1.16-0.89,1.76-1.32c1.19-0.84,2.42-1.61,3.69-2.31c1.64-0.91,2.22-3.69,1.25-5.39
			c-1.08-1.9-3.01-2.39-4.76-1.41c-2.97,1.65-5.7,3.71-8.27,6.06c-1.18,1.08-2.3,2.22-3.36,3.44c-1.48,1.7-3.4,3.74-3.19,6.34
			c0.16,2.05,1.49,4.04,3.48,3.94C1067.23,307.08,1069.13,305.43,1068.96,303.23L1068.96,303.23z"/>
	</g>
</g>
<path class="st27" d="M1200.02,594.25c-4.36,41.9-2.86,110.52,35.68,208.25c-20.16-7.86-65.1-29.31-91.37-80.77
	c-31.11-60.92-17.27-127.16-11.32-155.69c7.7-36.88,16.72-43.27,40.03-115.8c11.51-35.82,19.44-65.77,24.36-85.63
	c9-16.87,17.98-33.73,26.98-50.6c4.93,0.65,9.86,1.3,14.8,1.94c-3.19,26.92-6.38,53.84-9.58,80.77
	c-2.27,13.72-5.65,34.31-9.58,59.36C1217.22,474.04,1203.23,563.43,1200.02,594.25z"/>
<g>
	<g>
		<path class="st31" d="M1185.71,415.09c13.81-5.43,27.25-12.04,40.17-19.79c1.32-0.79,0.15-3.05-1.17-2.27
			c-12.74,7.64-25.99,14.17-39.61,19.52C1183.69,413.11,1184.29,415.65,1185.71,415.09L1185.71,415.09z"/>
	</g>
</g>
<g>
	<g>
		<path class="st31" d="M1159.48,485.17c12.71-5.12,25.42-10.25,38.12-15.37c3.63-1.46,7.26-2.92,10.89-4.39
			c1.4-0.56,0.8-3.1-0.62-2.53c-12.71,5.12-25.42,10.25-38.12,15.37c-3.63,1.46-7.26,2.92-10.89,4.39
			C1157.46,483.2,1158.07,485.73,1159.48,485.17L1159.48,485.17z"/>
	</g>
</g>
<g>
	<g>
		<path class="st31" d="M1135.77,564.99c16.68-7.94,33.54-15.36,50.58-22.24c4.85-1.96,9.72-3.87,14.6-5.74
			c1.41-0.54,0.8-3.08-0.62-2.53c-17.13,6.57-34.11,13.68-50.89,21.32c-4.78,2.18-9.54,4.39-14.29,6.65
			c-0.58,0.28-0.98,0.87-0.81,1.62C1134.48,564.68,1135.19,565.26,1135.77,564.99L1135.77,564.99z"/>
	</g>
</g>
<g>
	<g>
		<path class="st31" d="M1127,637.85c16.83-10.79,34.24-20.44,52.12-28.8c5.06-2.36,10.16-4.63,15.28-6.8
			c1.38-0.59,0.79-3.12-0.62-2.53c-18.32,7.75-36.21,16.75-53.55,26.99c-4.85,2.86-9.65,5.82-14.4,8.88
			C1124.54,636.41,1125.71,638.69,1127,637.85L1127,637.85z"/>
	</g>
</g>
<g>
	<g>
		<path class="st31" d="M1140.76,710.18c14.53-11.2,29.07-22.42,43.6-33.62c4.14-3.19,8.28-6.38,12.41-9.57
			c1.23-0.95,0.07-3.22-1.17-2.27c-14.53,11.2-29.07,22.42-43.6,33.62c-4.14,3.19-8.28,6.38-12.41,9.57
			C1138.37,708.86,1139.53,711.14,1140.76,710.18L1140.76,710.18z"/>
	</g>
</g>
<g>
	<g>
		<path class="st31" d="M1182.69,765.44c10.75-10.57,21.51-21.14,32.26-31.7c1.13-1.11-0.52-2.96-1.64-1.86
			c-10.75,10.57-21.51,21.14-32.26,31.7C1179.92,764.7,1181.57,766.54,1182.69,765.44L1182.69,765.44z"/>
	</g>
</g>
<g>
	<g>
		<path class="st27" d="M1263.99,638.56c1.49,0,1.49-2.63,0-2.63C1262.5,635.93,1262.5,638.56,1263.99,638.56L1263.99,638.56z"/>
	</g>
</g>
<path class="st25" d="M1307.92,973.76c-49.72,4.25-61.44-0.53-62.66-5.84c-1.35-5.86,9.44-15.33,16.54-19.46
	c8.02-4.67,15.5-4.98,19.14-4.87c-6.91-14.48-14.12-32.39-20.02-53.52c-8.26-29.65-11.27-56.22-12.18-76.88
	c27.26-1.94,54.54-3.9,81.8-5.84c0.54,24.62-0.49,54.34-5.22,87.58C1320.99,925.39,1314.55,951.87,1307.92,973.76z"/>
<g>
	<path class="st25" d="M1330.55,807.36c-4.76,3.98-23.23,18.44-49.6,16.54c-24.63-1.78-40.61-16.73-45.25-21.41
		c11.32-76.88,22.62-153.75,33.94-230.63c7.77,11.53,17.25,24.13,28.72,36.98c14.01,15.69,27.77,28.17,40.03,37.95
		C1335.77,700.32,1333.16,753.84,1330.55,807.36z"/>
	<g>
		<g>
			<path class="st27" d="M1263.33,643.63c3.64,0,7.13-3.62,6.96-7.88c-0.17-4.27-3.06-7.88-6.96-7.88c-3.64,0-7.13,3.62-6.96,7.88
				C1256.54,640.02,1259.43,643.63,1263.33,643.63L1263.33,643.63z"/>
		</g>
	</g>
	<g>
		<g>
			<path class="st27" d="M1278.66,661.52c3.64,0,7.13-3.62,6.96-7.88c-0.17-4.27-3.06-7.88-6.96-7.88c-3.64,0-7.13,3.62-6.96,7.88
				C1271.86,657.91,1274.76,661.52,1278.66,661.52L1278.66,661.52z"/>
		</g>
	</g>
	<g>
		<g>
			<path class="st27" d="M1263.99,674.93c3.64,0,7.13-3.62,6.96-7.88c-0.17-4.27-3.06-7.88-6.96-7.88c-3.64,0-7.13,3.62-6.96,7.88
				C1257.2,671.33,1260.09,674.93,1263.99,674.93L1263.99,674.93z"/>
		</g>
	</g>
	<g>
		<g>
			<path class="st27" d="M1241.33,660.03c3.64,0,7.13-3.62,6.96-7.88c-0.17-4.27-3.06-7.88-6.96-7.88c-3.64,0-7.13,3.62-6.96,7.88
				C1234.54,656.42,1237.43,660.03,1241.33,660.03L1241.33,660.03z"/>
		</g>
	</g>
</g>
<path class="st26" d="M1738.68,267.29c-27.07,2.15-49.11,5.65-65.26,8.76c-10.76,2.07-19.11,4-27.84,10.71
	c-13.88,10.66-19.94,26.63-22.62,36c-32.74,1.97-71.75,7.09-114.87,18.49c-37.48,9.91-70.13,22.48-97.46,35.03
	c0.89,9.51,2.36,24.87,4.35,43.79c6.01,56.96,7.94,62.48,5.22,73.96c-5.28,22.26-21.58,35.26-53.96,60.34
	c-17.08,13.23-42.31,30.5-75.71,45.74c-5.22-6.81-10.44-13.62-15.66-20.44c11.91-4.12,29.45-11.74,47.86-26.28
	c12.28-9.69,23.92-18.87,33.07-35.03c18.48-32.62,13.24-69.71,10.44-89.53c-1.97-13.96-6.64-35.88-19.14-60.34
	c38.34-25.8,90.58-55,155.77-75.9C1599.39,261.63,1683.45,261.96,1738.68,267.29z"/>
<path class="st25" d="M1884,367.51c-6.18-0.94-127.5-18.41-147.06,24.33c-6,13.11-4.35,25.3-4.35,25.3
	c2.47,18.19,17.24,28.78,33.07,40.87c44.67,34.14,64.27,54.7,64.4,54.5c0.16-0.26-31.94-35.67-80.06-49.63
	c-41.21-11.95-70.79-1.39-79.19,1.94c-14.3,5.69-34.8,13.84-42.64,34.06c-10.53,27.13,9.42,56.15,2.61,61.31
	c-7.02,5.31-24.87-28.08-55.7-41.84c-44.23-19.75-93.58,10.6-117.48,25.3c-54.87,33.74-82.42,85.89-93.98,111.91
	c-10.87-1.2-24.36-3.89-39.16-9.73c-25.4-10.03-43.62-25.03-54.82-36c44.35-22.21,78.17-45.74,101.82-64.22
	c27.88-21.79,38.62-34.19,42.64-51.57c3.82-16.53-0.81-27.27-4.35-65.19c-2.11-22.58-2.56-41.21-2.61-53.52
	c48.4-22.42,124.73-50.13,221.03-54.5C1741.75,315.66,1831.75,345.32,1884,367.51z"/>
<g>
	<g>
		<path class="st31" d="M1408.83,725.94c0.13,20.6-3.96,41.18-11.86,59.75c-2.26,5.3-4.83,10.43-7.67,15.37
			c-0.82,1.42,1.19,2.74,2,1.32c10.16-17.61,16.64-37.8,18.94-58.67c0.65-5.89,0.95-11.83,0.91-17.76
			C1411.13,724.25,1408.81,724.24,1408.83,725.94L1408.83,725.94z"/>
	</g>
</g>
<g>
	<g>
		<path class="st31" d="M1365.63,730.09c-4.12,20.73-11.38,40.59-21.37,58.57c-2.81,5.04-5.82,9.94-9.04,14.66
			c-0.39,0.57-0.48,1.3,0,1.86c0.39,0.46,1.26,0.56,1.64,0c11.67-17.09,20.76-36.36,26.74-56.89c1.68-5.75,3.09-11.6,4.27-17.5
			C1368.19,729.14,1365.96,728.43,1365.63,730.09L1365.63,730.09z"/>
	</g>
</g>
<path class="st25" d="M1519.5,971.12c-59.22,8.88-74.74,4.81-76.28-1.53c-1.49-6.14,9.34-17.71,20.18-22.21
	c8.78-3.64,16.51-2.21,20.03-1.28c-1.58-10-2.78-22.28-2.61-36.32c0.22-17.56,2.53-32.55,5.07-44.1
	c-8.48-3.48-17.04-7.08-25.67-10.78c-4.9-2.1-9.77-4.22-14.6-6.34c-6.01-2.64-9.36-10-7.87-17.3c1.55-7.62,3.09-15.22,4.64-22.84
	c33.87,5.96,67.74,11.92,101.61,17.88c7.22,1.27,11.72,9.63,9.54,17.74L1519.5,971.12z"/>
<g>
	<g>
		<path class="st31" d="M1697.31,785.27c5.59-8.41,11.19-16.82,16.78-25.24c0.9-1.35-1.11-2.66-2-1.32
			c-5.59,8.41-11.19,16.82-16.78,25.24C1694.41,785.29,1696.42,786.61,1697.31,785.27L1697.31,785.27z"/>
	</g>
</g>
<g>
	<g>
		<path class="st31" d="M1647.07,773.65c5.92-11.89,10.53-24.59,13.71-37.75c0.39-1.64-1.85-2.33-2.24-0.7
			c-3.12,12.95-7.64,25.43-13.47,37.13C1644.33,773.8,1646.33,775.13,1647.07,773.65L1647.07,773.65z"/>
	</g>
</g>
<g>
	<g>
		<path class="st31" d="M1603.07,721.43c-1.4,17.01-5.27,33.75-11.39,49.36c-0.6,1.53,1.4,2.87,2,1.32
			c4.9-12.47,8.42-25.61,10.39-39.08c0.56-3.85,1-7.72,1.32-11.61C1605.53,719.75,1603.21,719.76,1603.07,721.43L1603.07,721.43z"/>
	</g>
</g>
<path class="st32" d="M198.83,435.96c-1.72,9.65,15.96,26.8,43.32,38.79c3.12-16.52,6.24-33.05,9.36-49.56
	C222.43,420.58,200.56,426.27,198.83,435.96z"/>
<path class="st32" d="M548.07,292.56c-6.37-5.6-25.31,9.16-44.08,37.35c10.84,9.8,21.67,19.6,32.51,29.4
	C550.54,326.34,554.46,298.18,548.07,292.56z"/>
<path class="st32" d="M576.67,381.46c-4.68-7.88-26.27-1.49-51.01,17.71c7.88,13.67,15.77,27.33,23.65,41
	C570.73,414.53,581.37,389.37,576.67,381.46z"/>
<path class="st32" d="M218.07,334.76c-4.53,8.02,6.48,32.68,27.98,57.47c7.92-13.63,15.85-27.26,23.77-40.89
	C244.48,332.49,222.61,326.72,218.07,334.76z"/>
<path class="st32" d="M260.16,251.8c-5.81,6.53,3.11,37.83,23.25,73.98c10.11-11,20.22-22,30.33-33
	C288.77,261.24,265.99,245.24,260.16,251.8z"/>
<path class="st32" d="M365.59,193.91c-7.58,1.92-12.12,34.72-8.84,78.95c13.05-3.01,26.1-6.03,39.15-9.03
	C386.65,220.49,373.21,191.99,365.59,193.91z"/>
<path class="st32" d="M483.27,218.03c-7.5-2.42-22.53,24.75-34.31,66.53c12.8,4.43,25.61,8.86,38.41,13.29
	C493.45,253.59,490.79,220.46,483.27,218.03z"/>
<path class="st33" d="M385.11,258.18c-65.72,5.4-123.37,63.66-144.38,146.61v403.46v41.59v110.23h102.2V849.85h105.44v115.42h102.2
	V849.85c0-12.13,0-24.26,0-36.4c0-136.22,0-272.44,0-408.66C526.81,312.32,457.96,252.19,385.11,258.18z"/>
<g>
	<path class="st34" d="M346.99,982.1H235.06c-0.31-7.27,0.01-20.62,6.49-32.23c11.02-19.74,31.97-20.34,47.86-20.8
		c15.78-0.45,32.17-0.92,44.61,14.56C344.74,956.98,346.58,974.8,346.99,982.1z"/>
	<path class="st35" d="M256.14,982.1h-19.47v-17.68c1.65-1.13,4.77-2.91,8.92-3.12c5.06-0.26,8.85,1.97,10.55,3.12
		C256.14,970.31,256.14,976.2,256.14,982.1z"/>
	<path class="st35" d="M286.97,982.1H267.5v-17.68c1.65-1.13,4.77-2.91,8.92-3.12c5.06-0.26,8.85,1.97,10.55,3.12
		C286.97,970.31,286.97,976.2,286.97,982.1z"/>
	<path class="st35" d="M317.79,982.1h-19.47v-17.68c1.65-1.13,4.77-2.91,8.92-3.12c5.06-0.26,8.85,1.97,10.55,3.12
		C317.79,970.31,317.79,976.2,317.79,982.1z"/>
</g>
<g>
	<path class="st34" d="M441.81,982.1h111.94c0.31-7.27-0.01-20.62-6.49-32.23c-11.02-19.74-31.97-20.34-47.86-20.8
		c-15.78-0.45-32.17-0.92-44.61,14.56C444.06,956.98,442.23,974.8,441.81,982.1z"/>
	<path class="st35" d="M532.66,982.1h19.47v-17.68c-1.65-1.13-4.77-2.91-8.92-3.12c-5.06-0.26-8.85,1.97-10.55,3.12
		C532.66,970.31,532.66,976.2,532.66,982.1z"/>
	<path class="st35" d="M501.83,982.1h19.47v-17.68c-1.65-1.13-4.77-2.91-8.92-3.12c-5.06-0.26-8.85,1.97-10.55,3.12
		C501.83,970.31,501.83,976.2,501.83,982.1z"/>
	<path class="st35" d="M471.01,982.1h19.47v-17.68c-1.65-1.13-4.77-2.91-8.92-3.12c-5.06-0.26-8.85,1.97-10.55,3.12
		C471.01,970.31,471.01,976.2,471.01,982.1z"/>
</g>
<g>
	<path class="st36" d="M527.87,674.12c-25.49,67.29-105.16,65.26-136.27,64.47c-32.92-0.84-106.01-2.69-128.97-66.55
		c-15.28-42.49-5.47-104.4,21.9-126.86c25.29-20.75,44.8,9.21,108.69,10.4c68.12,1.26,90.02-31.98,115.99-9.36
		C536,569.56,543.82,632.02,527.87,674.12z"/>
	<path class="st37" d="M403.77,603.41c15.09,0.76,32.88-21.81,30.02-51.99c-7.79,2.01-17.07,3.69-27.58,4.16
		c-11.48,0.52-21.62-0.54-30.01-2.08C374.22,581.37,389.64,602.7,403.77,603.41z"/>
	<path class="st37" d="M301.36,562.85c4.51,0.23,8.13-4.96,8.87-6.04c4.91-7.2,3.7-16.47,3.5-17.87c-2.84-0.92-7.42-1.94-12.98-1.04
		c-4.59,0.74-8.22,2.51-10.64,4C289.31,553.6,295.6,562.55,301.36,562.85z"/>
	<path class="st37" d="M498.17,565.97c-4.51,0.23-8.13-4.96-8.87-6.04c-4.91-7.2-3.7-16.47-3.5-17.87
		c2.84-0.92,7.42-1.94,12.98-1.04c4.59,0.74,8.22,2.51,10.64,4C510.22,556.72,503.93,565.67,498.17,565.97z"/>
	<path class="st37" d="M342.71,603.06c4.42,1.24,9.75-7.83,12.42-12.36c8.42-14.3,8.35-30.28,8.09-36.16
		c-4.33-1.38-8.65-2.77-12.98-4.16c-5.41-1.73-10.82-3.47-16.22-5.2C333.98,590.56,338.39,601.85,342.71,603.06z"/>
	<path class="st37" d="M465.72,598.9c-4.42,1.24-9.75-7.83-12.42-12.36c-8.42-14.3-8.35-30.28-8.09-36.16
		c4.33-1.38,8.65-2.77,12.98-4.16c5.41-1.73,10.82-3.47,16.22-5.2C474.44,586.4,470.03,597.7,465.72,598.9z"/>
	<path class="st37" d="M306.85,693.91c4.35,1.55,6.56,7.92,7,9.24c2.96,8.79-0.42,17.14-0.93,18.38c-2.93-0.23-7.53-1.07-12.6-4.11
		c-4.19-2.5-7.23-5.62-9.18-7.98C293.16,697.98,301.29,691.92,306.85,693.91z"/>
	<path class="st37" d="M496.38,688.14c-4.16,2.22-5.74,8.9-6.06,10.28c-2.08,9.18,2.06,16.93,2.71,18.09
		c2.88-0.7,7.36-2.26,12.11-6.07c3.92-3.15,6.62-6.73,8.34-9.38C510.35,690.01,501.71,685.29,496.38,688.14z"/>
	<path class="st38" d="M467.04,729.23c-2.49,4.19-11.71,5.17-30.01,7.28c-10.39,1.2-26.72,2.59-48.26,2.08
		c-7.59-0.18-15.2-0.81-30.42-2.08c-21.04-1.74-22.76-2-24.33-4.16c-11.97-16.4,16.57-89.4,38.94-87.34
		c11.23,1.02,14.94,20.44,27.58,19.76c12.2-0.66,14.63-19.06,25.14-20.8C446.95,640.44,479.16,708.83,467.04,729.23z"/>
	<path class="st37" d="M403.77,685.23c14.49-0.79,32.37,21.4,30.02,51.99c-9.68,0.67-19.69,1.14-30.02,1.37
		c-9.17,0.19-18.1,0.18-26.77,0C373.61,709.03,389.6,686.01,403.77,685.23z"/>
	<path class="st37" d="M457.89,677.26c4.42-1.24,9.75,7.83,12.42,12.36c8.42,14.3,8.35,30.28,8.09,36.16
		c-4.33,1.38-8.65,2.77-12.98,4.16c-5.41,1.73-10.82,3.47-16.22,5.2C449.16,689.75,453.57,678.47,457.89,677.26z"/>
	<path class="st37" d="M345.67,677.26c-4.35-1.21-9.49,7.43-12.42,12.36c-9.16,15.4-9.25,32.76-8.98,39.62
		c3.25,1.55,7.05,3.05,11.36,4.16c7.25,1.87,13.68,2.09,18.73,1.75C354.4,689.75,349.99,678.47,345.67,677.26z"/>
</g>
<g>
	<path class="st39" d="M287.21,425.02c-4.08,31.36,5.63,60.6,24.62,69.51c18.99,8.91,41.13-5.39,53.81-32.7L287.21,425.02z"/>
	<ellipse class="st40" cx="333.2" cy="471.35" rx="17.03" ry="21.83"/>
</g>
<g>
	<path class="st39" d="M503.29,427.11c4.08,31.36-5.63,60.6-24.62,69.51c-18.98,8.91-41.13-5.39-53.81-32.7L503.29,427.11z"/>
	<ellipse class="st40" cx="457.3" cy="473.43" rx="17.03" ry="21.83"/>
</g>
<path class="st32" d="M157.18,523.34c-5.92,6.37,0.08,33.72,16.22,64.47c10.28-10.74,20.55-21.49,30.82-32.23
	C183.24,529.37,163.13,516.95,157.18,523.34z"/>
<path class="st32" d="M106.09,613.81c-5.92,6.37,0.08,33.72,16.22,64.47c10.28-10.74,20.55-21.49,30.82-32.23
	C132.14,619.84,112.03,607.42,106.09,613.81z"/>
<path class="st32" d="M67.73,712.4c-3.99,8.47,8.57,31.87,31.6,54.3c7.02-14.42,14.03-28.85,21.05-43.27
	C93.91,707.31,71.75,703.89,67.73,712.4z"/>
<g>
	<path class="st41" d="M215.59,887.29c-43.8-2.77-87.6-5.55-131.4-8.31c-2.21-25.32-11.91-159.33,61.64-265.16
		c34-48.93,72.9-73.27,97.33-85.27c-0.27,44.71-0.54,89.43-0.81,134.14c-2.38,1.46-6.27,4.28-9.73,9.36
		c-5.49,8.05-6.78,17.15-7.3,20.8C223.1,708.45,219.02,783.96,215.59,887.29z"/>
	<g>
		<path class="st42" d="M85.78,874.87c0.64,4.6,1.29,9.22,2.39,13.67c2.64,10.59,8.34,20.38,16.39,24.54
			c8.05,4.15,18.44,1.38,23.25-7.86c4.19,9.37,12.06,15.87,20.44,16.88c8.39,1.02,17.07-3.49,22.54-11.69
			c5.9,8.07,15.19,11.77,23.61,9.4s15.66-10.7,18.4-21.19c1.61-6.16,1.72-12.75,1.81-19.24c0.01-1.01,0.03-2.03-0.26-2.97
			c-0.8-2.68-3.45-3.36-5.67-3.65c-35.99-4.62-72.09-9.26-108.24-8.02c-5.55,0.19-11.19,0.54-16.44,2.87
			c0.37,2.77,1.11,5.45,2.18,7.9"/>
	</g>
	<rect x="123.93" y="870.65" class="st40" width="4.87" height="33.28"/>
	<rect x="166.11" y="880.01" class="st40" width="4.06" height="27.04"/>
</g>
<path class="st43" d="M712.81,621.09c-23.39,67.71-68.14,111-113.55,109.18c-21.23-0.85-38.72-11.4-51.1-21.83
	c0.54-58.58,1.08-117.16,1.62-175.74c6.05,4.61,12.03,8.37,17.84,11.44c59.13,31.18,120.46,0.78,147.63-15.6
	C714.43,559.39,713.62,590.24,712.81,621.09z"/>
<g>
	<path class="st44" d="M656.84,673.08c-16.76,1.04-33.52,2.08-50.29,3.12c-12.35-103.5-24.71-207-37.06-310.5
		c20.46-2.91,40.93-5.81,61.39-8.73C639.54,462.34,648.19,567.71,656.84,673.08z"/>
	<path class="st45" d="M639,457.83c-19.47,1.73-38.94,3.47-58.4,5.2c-0.54-5.9-1.08-11.78-1.62-17.68
		c19.74-2.43,39.48-4.85,59.21-7.28C638.46,444.66,638.73,451.25,639,457.83z"/>
	<path class="st45" d="M651.97,631.49c-16.84,1.73-33.67,3.47-50.51,5.2c-0.47-5.9-0.93-11.78-1.4-17.68
		c17.07-2.43,34.14-4.85,51.21-7.28C651.5,618.31,651.74,624.9,651.97,631.49z"/>
	<path class="st46" d="M660.08,689.72c-6.59-1.82-15.15-3.36-25.14-3.12c-11.2,0.27-20.61,2.69-27.58,5.2
		c-1.08-4.85-2.17-9.71-3.25-14.56c18.12-2.77,36.23-5.55,54.35-8.31C659,675.85,659.54,682.79,660.08,689.72z"/>
	<ellipse class="st46" cx="637.37" cy="733.91" rx="46.24" ry="55.64"/>
	<path class="st46" d="M676.31,202.03c-0.36-23.84-0.81-54.07-16.22-84.22c-16.09-31.49-48.36-62.64-89.22-59.27
		c-39.53,3.26-68.25,37.28-81.11,69.67c-9.65,24.28-10.13,47.01-10.55,66.55c-0.5,23.54-1.2,56.46,13.79,88.39
		c13.87,29.55,37.97,51.45,65.16,59.8c0.45,9.53,0.9,19.06,1.35,28.6c10.32-3.46,22.59-6.6,36.5-8.31
		c12.34-1.52,23.54-1.63,33.25-1.04c-0.71-9.36-1.41-18.71-2.12-28.06c8.15-4.99,16.47-11.99,24.02-21.85
		C677.44,277.88,676.75,231.75,676.31,202.03z"/>
	<path class="st47" d="M654.05,92.08c-0.49,3.95-1.47,9.24-3.53,15.07c-1.28,3.65-3.31,8.43-6.48,13.36
		c-3.97,0.24-11.41,0.01-19.74-4.59c-9.16-5.05-14.69-12.77-17.22-16.81c0.53-4.38,1.67-10.41,4.19-16.97
		c1.86-4.83,3.98-8.63,5.82-11.46c3.68-2.96,10.62-7.65,20.06-8.93c6.9-0.94,12.62,0.29,16.38,1.49c0.94,3.07,2.08,7.85,2.24,13.85
		C655.95,83.61,654.91,88.83,654.05,92.08z"/>
	<path class="st47" d="M655.44,273.33c-3.03-0.94-7.07-2.6-11.45-5.68c-2.73-1.93-6.29-4.89-9.88-9.33
		c0.12-5.09,0.89-14.58,5.11-24.88c4.64-11.31,11.08-17.77,14.42-20.69c3.37,1.02,7.97,2.94,12.87,6.69
		c3.61,2.76,6.4,5.76,8.46,8.33c2.01,4.94,5.11,14.16,5.38,26.33c0.19,8.89-1.21,16.11-2.44,20.82c-2.46,0.96-6.27,2.04-10.94,1.78
		C661.88,276.41,657.9,274.67,655.44,273.33z"/>
	<path class="st47" d="M683.25,167.99c-0.49,3.95-1.47,9.24-3.53,15.07c-1.28,3.65-3.31,8.43-6.48,13.36
		c-3.97,0.24-11.41,0.01-19.74-4.59c-9.16-5.05-14.69-12.77-17.22-16.81c0.53-4.38,1.67-10.41,4.19-16.97
		c1.86-4.83,3.98-8.63,5.82-11.46c3.68-2.96,10.62-7.65,20.06-8.93c6.9-0.94,12.62,0.29,16.38,1.49c0.94,3.07,2.08,7.85,2.24,13.85
		C685.15,159.52,684.11,164.74,683.25,167.99z"/>
	<path class="st47" d="M614.23,162.02c0.68,2.46,1.4,5.89,1.6,10.04c0.12,2.59,0.08,6.14-0.62,10.22c-2.35,1.7-6.91,4.48-13.09,5.1
		c-6.8,0.69-12.06-1.58-14.59-2.91c-0.76-2.73-1.57-6.63-1.66-11.39c-0.07-3.5,0.27-6.51,0.69-8.87c1.49-3.14,4.53-8.55,9.93-12.98
		c3.94-3.24,7.72-4.78,10.29-5.56c1.33,1.39,3.2,3.7,4.79,7.08C613.29,156.41,613.95,159.82,614.23,162.02z"/>
	<path class="st47" d="M620.73,231.69c0.68,2.46,1.4,5.89,1.6,10.04c0.12,2.59,0.08,6.14-0.62,10.22c-2.35,1.7-6.91,4.48-13.09,5.1
		c-6.8,0.69-12.06-1.58-14.59-2.91c-0.76-2.73-1.57-6.63-1.66-11.39c-0.07-3.5,0.27-6.51,0.69-8.87c1.49-3.14,4.53-8.55,9.93-12.98
		c3.94-3.24,7.72-4.78,10.29-5.56c1.33,1.39,3.2,3.7,4.79,7.08C619.78,226.08,620.44,229.49,620.73,231.69z"/>
	<path class="st47" d="M552.74,151.86c1.33,1.98,2.96,4.84,4.32,8.62c0.85,2.36,1.81,5.68,2.3,9.81
		c-1.71,2.67-5.18,7.37-10.77,10.82c-6.15,3.79-11.69,4.11-14.42,4.04c-1.48-2.2-3.33-5.45-4.75-9.86c-1.05-3.23-1.58-6.2-1.86-8.58
		c0.51-3.62,1.82-10.08,5.6-16.71c2.77-4.84,5.85-8.04,8.03-9.95c1.63,0.68,4.03,1.97,6.46,4.38
		C550.28,147.07,551.86,149.94,552.74,151.86z"/>
	<path class="st47" d="M562.48,226.72c1.33,1.98,2.96,4.84,4.32,8.62c0.85,2.36,1.81,5.68,2.3,9.81
		c-1.71,2.67-5.18,7.37-10.77,10.82c-6.15,3.79-11.69,4.11-14.42,4.04c-1.48-2.2-3.33-5.45-4.75-9.86c-1.05-3.23-1.58-6.2-1.86-8.58
		c0.51-3.62,1.82-10.08,5.6-16.71c2.77-4.84,5.85-8.04,8.03-9.95c1.63,0.68,4.03,1.97,6.46,4.38
		C560.01,221.93,561.6,224.8,562.48,226.72z"/>
	<path class="st47" d="M577.96,63.44c1.15,3.72,2.41,8.9,2.97,15.27c0.35,3.98,0.51,9.4-0.26,15.73c-3.32,2.81-9.81,7.47-18.8,8.98
		c-9.89,1.65-17.72-1.37-21.5-3.18c-1.29-4.12-2.71-10.04-3.15-17.34c-0.32-5.37-0.01-10.02,0.44-13.67
		c1.99-4.96,6.08-13.52,13.69-20.8c5.56-5.32,10.97-8.02,14.69-9.44c2.03,2.03,4.91,5.4,7.44,10.44
		C576.21,54.92,577.4,60.1,577.96,63.44z"/>
	<path class="st47" d="M514.4,83.13c2.33,2.65,5.29,6.55,8.03,11.89c1.71,3.34,3.77,8.1,5.32,14.18
		c-1.97,4.43-6.11,12.36-13.61,18.91c-8.24,7.21-16.28,9.05-20.3,9.62c-2.6-2.93-5.96-7.38-8.92-13.64
		c-2.18-4.6-3.55-8.93-4.43-12.44c0.03-5.56,0.66-15.59,4.87-26.48c3.08-7.96,6.96-13.51,9.77-16.92c2.53,0.63,6.28,1.97,10.32,5
		C509.84,76.53,512.72,80.46,514.4,83.13z"/>
	<path class="st47" d="M491.59,158.59c2.84,1.66,6.55,4.28,10.39,8.38c2.39,2.56,5.45,6.34,8.31,11.58
		c-0.88,4.97-3.04,14.1-8.71,23.17c-6.24,9.98-13.52,14.75-17.23,16.79c-3.16-1.83-7.38-4.84-11.63-9.71
		c-3.13-3.59-5.43-7.22-7.07-10.24c-1.25-5.33-2.91-15.16-1.36-27.16c1.14-8.78,3.58-15.52,5.49-19.84
		c2.56-0.34,6.46-0.47,11.01,0.92C485.72,154,489.38,156.67,491.59,158.59z"/>
	<path class="st47" d="M488.4,245c2.42-2.52,5.9-5.62,10.47-8.21c2.85-1.61,6.84-3.44,11.79-4.41c3.09,3.22,8.51,9.75,12.33,20.3
		c4.2,11.6,4.3,22.07,4.08,27.25c-2.68,2.81-6.66,6.33-11.95,9.05c-3.9,2-7.45,3.03-10.3,3.57c-4.28-0.94-11.89-3.38-19.59-10.49
		c-5.63-5.2-9.26-11.01-11.43-15.12c0.9-3.09,2.54-7.63,5.54-12.24C482.58,249.7,486.08,246.69,488.4,245z"/>
</g>
<g>
	<path class="st48" d="M717.67,552.98c-5.14,44.25-43.99,65.97-71.78,67.07c-35.34,1.4-74.4-29.68-77.46-68.63
		c-1.72-21.81,8.38-39.5,11.36-44.71c16.08-28.17,42.85-33,61.64-36.39c17.11-3.09,28.51-5.15,41.37,2.08
		C705.16,484.97,721.53,519.8,717.67,552.98z"/>
	<g>
		<g>
			<path class="st49" d="M614.79,487.21c0.91,0.31,1.79,0.67,2.67,1.11c0.16,0.07,0.32,0.16,0.48,0.24
				c0.11,0.06,0.89,0.49,0.19,0.09c0.46,0.27,0.93,0.54,1.38,0.85c1.59,1.04,3.07,2.31,4.52,3.68c0.66,0.63-0.32-0.36,0.07,0.06
				c0.17,0.18,0.33,0.35,0.49,0.53c0.33,0.35,0.64,0.72,0.96,1.09c0.69,0.82,1.34,1.68,1.97,2.57c0.28,0.41,0.56,0.82,0.83,1.25
				c0.16,0.25,0.32,0.52,0.48,0.77c0.52,0.82-0.25-0.46,0.05,0.07c0.54,0.98,1.07,1.97,1.54,3.01c0.46,0.99,0.87,1.99,1.25,3.03
				c0.18,0.49,0.35,0.99,0.52,1.49c-0.28-0.84-0.05-0.15,0.01,0.07c0.1,0.36,0.21,0.71,0.3,1.08c0.28,1.03,0.52,2.08,0.72,3.14
				c0.1,0.54,0.19,1.09,0.28,1.64c0.05,0.33,0.1,0.67,0.14,1.01c0.02,0.15,0.12,1.29,0.03,0.25c0.2,2.44,0.26,4.87,0.1,7.32
				c-0.02,0.29-0.04,0.56-0.06,0.85c0,0.02-0.12,1.13-0.04,0.46c0.08-0.66-0.06,0.44-0.06,0.46c-0.04,0.34-0.09,0.67-0.14,1.01
				c-0.18,1.23-0.41,2.45-0.69,3.65c-0.25,1.1-0.55,2.17-0.86,3.23c0.24-0.82,0.03-0.09-0.04,0.11c-0.09,0.26-0.17,0.53-0.27,0.78
				c-0.22,0.62-0.45,1.24-0.7,1.85c-0.41,1.02-0.85,1.99-1.33,2.95c-0.24,0.48-0.48,0.95-0.74,1.41c-0.06,0.11-0.6,1.01-0.15,0.26
				c-0.17,0.27-0.33,0.54-0.49,0.8c-0.59,0.93-1.2,1.82-1.86,2.67c-0.35,0.44-0.7,0.88-1.06,1.3c-0.13,0.16-0.26,0.3-0.4,0.45
				c-0.1,0.11-0.98,1.02-0.39,0.44c-1.47,1.47-3.05,2.75-4.71,3.82c-0.2,0.13-0.39,0.25-0.6,0.37c-0.15,0.09-0.7,0.41-0.1,0.07
				c-0.41,0.23-0.82,0.44-1.23,0.64c-0.91,0.44-1.84,0.83-2.78,1.15c-0.9,0.31-1.81,0.57-2.73,0.78c-0.22,0.05-0.44,0.09-0.66,0.14
				c0.68-0.14,0.08-0.02-0.1,0.01c-0.53,0.08-1.06,0.15-1.59,0.18c-1.91,0.16-3.81,0.05-5.71-0.23c0.65,0.09,0.17,0.04,0.04,0
				c-0.26-0.06-0.53-0.11-0.79-0.18c-0.44-0.1-0.87-0.22-1.3-0.35c-0.95-0.29-1.88-0.64-2.8-1.05c-0.51-0.23-1-0.48-1.49-0.74
				c-0.83-0.43,0.55,0.36-0.25-0.15c-0.24-0.16-0.49-0.3-0.73-0.45c-0.97-0.62-1.91-1.31-2.82-2.07c-0.46-0.38-0.9-0.77-1.34-1.17
				c-0.18-0.17-0.37-0.34-0.55-0.52c-0.11-0.1-0.87-0.89-0.33-0.31c-0.84-0.89-1.65-1.82-2.42-2.8c-0.77-0.99-1.51-2.01-2.21-3.09
				c-0.35-0.54-0.69-1.09-1.02-1.64c-0.08-0.12-0.35-0.63,0,0c-0.21-0.38-0.42-0.76-0.63-1.14c-1.23-2.31-2.3-4.74-3.23-7.29
				c-0.71-1.96-2.92-2.64-4.26-1.49c-1.51,1.29-1.88,3.59-1.11,5.68c3.65,10.02,9.82,18.88,17.51,23.47
				c7.92,4.73,17.18,5.2,25.34,1.07c4.08-2.07,7.84-5.08,10.97-9.16c3.09-4.03,5.41-8.9,7.03-14.21
				c3.17-10.33,2.86-22.05-0.79-32.06c-3.99-10.94-11.85-19.26-20.64-22.3c-1.58-0.54-3.45,0.69-3.83,2.9
				C612.24,484.27,613.1,486.62,614.79,487.21L614.79,487.21z"/>
		</g>
	</g>
	<g>
		<g>
			<path class="st49" d="M637.3,524.64c13.69-0.61,27.37-1.22,41.06-1.83c1.63-0.07,3.19-1.85,3.11-4.15
				c-0.08-2.19-1.37-4.23-3.11-4.15c-13.69,0.61-27.37,1.22-41.06,1.83c-1.63,0.07-3.19,1.85-3.11,4.15
				C634.26,522.67,635.56,524.72,637.3,524.64L637.3,524.64z"/>
		</g>
	</g>
	<g>
		<g>
			<path class="st49" d="M624.7,572.75c15.29-2.41,30.58-4.99,45.85-7.73c4.32-0.78,8.63-1.56,12.94-2.36
				c1.62-0.3,2.64-3.17,2.17-5.11c-0.57-2.37-2.1-3.22-3.83-2.9c-7.65,1.42-14.44,2.64-21.99,3.96c-7.5,1.31-15,2.57-22.51,3.8
				c-4.21,0.69-8.42,1.37-12.63,2.03c-1.61,0.26-3.2,1.73-3.11,4.15C621.66,570.63,622.97,573.03,624.7,572.75L624.7,572.75z"/>
		</g>
	</g>
</g>
</svg>
