<?xml version="1.0" encoding="utf-8"?>
<!-- Generator: Adobe Illustrator 23.0.5, SVG Export Plug-In . SVG Version: 6.00 Build 0)  -->
<svg version="1.1" id="圖層_1" xmlns="http://www.w3.org/2000/svg" xmlns:xlink="http://www.w3.org/1999/xlink" x="0px" y="0px"
	 viewBox="0 0 1920 1080" style="enable-background:new 0 0 1920 1080;" xml:space="preserve">
<style type="text/css">
	.st0{fill:#403F45;}
	.st1{fill:#522E1B;}
	.st2{fill:#585862;}
	.st3{fill:#9B806D;}
	.st4{fill:#282F3B;}
	.st5{fill:#504C54;}
	.st6{fill:#413F45;}
	.st7{fill:#442F2E;}
	.st8{fill:#6C7887;}
	.st9{fill:#3A404D;}
	.st10{fill:#626064;}
	.st11{fill:#A49581;}
	.st12{fill:#F9D99C;}
	.st13{fill:#B7A694;}
	.st14{fill:#393844;}
	.st15{fill:#F0D3AC;}
	.st16{fill:#666A76;}
	.st17{fill:#7F695B;}
	.st18{fill:#543C3A;}
	.st19{fill:#493E42;}
	.st20{fill:#65544E;}
	.st21{fill:#7779A0;}
	.st22{fill:#3E3E68;}
	.st23{fill:#5BC44D;}
	.st24{fill:#313331;}
</style>
<g>
	<g>
		<path class="st0" d="M221.2,1063.8c-22.2-0.7-55.1-1.3-95.4,0c-41.3,1.3-57.5,3.5-67-7.3c-19.2-21.8,7.4-75.5,15.2-90.5
			c49.1,1.7,98.1,3.5,147.1,5.2V1063.8z"/>
		<rect x="365.3" y="244.1" class="st1" width="91.3" height="822.9"/>
		<path class="st2" d="M370.4,263.8c-14.2-7.3-28.4-14.6-42.6-21.9v-22.9c18.9,7.6,37.9,15.3,56.8,22.9
			C379.8,249.3,375.1,256.5,370.4,263.8z"/>
		<path class="st3" d="M343,961.9c-81.2-0.3-162.4-0.7-243.6-1c-3-227.5-6.1-455-9.1-682.5c86.6,2.1,173.2,4.2,259.8,6.2
			C347.7,510.4,345.4,736.1,343,961.9z"/>
		<path class="st4" d="M365.7,1068c-48.2-1.4-96.4-2.8-144.5-4.2c1.1-34,2.2-68,3.3-102h141.2c3.5,16.1,6.3,36.6,5.6,60.3
			C370.8,1039.6,368.5,1055.1,365.7,1068z"/>
		<path class="st5" d="M353.1,1068c-44-1.4-88-2.8-131.9-4.2c1-34,2-68,3-102h128.9c3.2,16.1,5.7,36.6,5.1,60.3
			C357.7,1039.6,355.7,1055.1,353.1,1068z"/>
		<path class="st6" d="M336.9,284.6c-80.5-2.1-161-4.2-241.5-6.2c-9.5-13.2-18.9-26.4-28.4-39.5c89,0.4,177.9,0.7,266.9,1
			C334.8,254.8,335.9,269.7,336.9,284.6z"/>
		<path class="st7" d="M362.2,287.8c-8.1-1-16.2-2.1-24.4-3.1c-0.7-12.1-1.4-24.3-2-36.4c9.8,4.5,19.6,9,29.4,13.5
			C364.3,270.4,363.3,279.1,362.2,287.8z"/>
		<path class="st8" d="M333.8,239.9c-91.7,0-183.3,0-275,0c-0.3-0.5-3.4-5.6-1-11.4c2.2-5.6,7.5-7.1,8.1-7.3c87.9,0,175.9,0,263.8,0
			C331.1,227.4,332.5,233.7,333.8,239.9z"/>
		<path class="st9" d="M282.1,169.2c-41.3-1.4-82.5-2.8-123.8-4.2c3.4-10.1,6.8-20.1,10.1-30.2c32.1,0.7,64.3,1.4,96.4,2.1
			C270.6,147.7,276.3,158.4,282.1,169.2z"/>
		<path class="st10" d="M278,139c-43.6-0.7-87.3-1.4-130.9-2.1c-0.4-5.6-0.5-11.9,0-18.7c1-14.2,4-26.2,7.1-35.4
			c40.6,0,81.2,0,121.8,0C276.7,101.5,277.3,120.3,278,139z"/>
		<path class="st11" d="M328.8,166c-17.9-8.3-35.9-16.6-53.8-25c-0.3-20.1-0.7-40.2-1-60.3c24.7,17.7,49.4,35.4,74.1,53.1
			c0.7,3.1,1.4,6.2,2,9.4C343,150.8,335.9,158.4,328.8,166z"/>
		<path class="st12" d="M350.1,143.1c-25.4-20.8-50.7-41.6-76.1-62.4c5.4-8.3,10.8-16.7,16.2-25c22.3,22.5,44.6,45.1,67,67.6
			C354.8,130,352.4,136.6,350.1,143.1z"/>
		<path class="st13" d="M276,82.8c-40.6,0-81.2,0-121.8,0c8.1-9,16.2-18,24.4-27c37.2,0,74.4,0,111.6,0c0.3,2.6,0.5,6.8-1,11.4
			C286,77,278.1,81.7,276,82.8z"/>
		<path class="st14" d="M321,183.7c-13-4.5-26-9-39-13.5c-4.7-10.4-9.4-20.8-14.1-31.2c21.3,9.4,42.6,18.7,63.9,28.1
			C328.2,172.6,324.6,178.2,321,183.7z"/>
		<path class="st15" d="M384.6,242c-18.3-7.3-36.5-14.6-54.8-21.9c-15.9-17-31.8-34-47.7-51c12.9,4.5,25.7,9,38.6,13.5
			C342,202.4,363.3,222.2,384.6,242z"/>
		<path class="st16" d="M327.7,219.1c-87.9,0-175.9,0-263.8,0c7.7-7.4,16.4-15.2,26.4-22.9c17.7-13.6,34.7-23.7,49.7-31.2
			c47,1.4,94,2.8,141,4.2c8.5,4.7,21.1,13,32.5,27.1C320.2,204.4,324.7,212.5,327.7,219.1z"/>
		<path class="st17" d="M360.2,961.9c-8.1,0-16.2,0-24.4,0c0.3-225.8,0.7-451.5,1-677.3c8.5,1,16.9,2.1,25.4,3.1
			C361.6,512.5,360.9,737.2,360.2,961.9z"/>
		<rect x="369.3" y="245.1" class="st18" width="77.1" height="67.6"/>
		<rect x="369.3" y="312.7" class="st19" width="77.1" height="749"/>
		<path class="st2" d="M221.2,1063.8H98.4c1.5-10.8,2.7-28.3-2-48.9c-5.3-23.2-15.7-39.8-22.3-48.9c50.1-1.4,100.1-2.8,150.2-4.2
			C223.2,995.9,222.2,1029.8,221.2,1063.8z"/>
	</g>
	<g>
		<path class="st0" d="M1689.8,1044.1c22.2-0.7,55.1-1.3,95.4,0c41.3,1.3,57.5,3.5,67-7.3c19.2-21.8-7.4-75.5-15.2-90.5
			c-49.1,1.7-98.1,3.5-147.1,5.2V1044.1z"/>
		<rect x="1454.4" y="224.3" class="st1" width="91.3" height="822.9"/>
		<path class="st2" d="M1540.6,244.1c14.2-7.3,28.4-14.6,42.6-21.9v-22.9c-18.9,7.6-37.9,15.3-56.8,22.9
			C1531.2,229.5,1535.9,236.8,1540.6,244.1z"/>
		<path class="st3" d="M1568,942.1c81.2-0.3,162.4-0.7,243.6-1c3-227.5,6.1-455,9.1-682.5c-86.6,2.1-173.2,4.2-259.8,6.2
			C1563.3,490.6,1565.7,716.4,1568,942.1z"/>
		<path class="st4" d="M1545.3,1048.2c48.2-1.4,96.3-2.8,144.5-4.2c-1.1-34-2.2-68-3.3-102h-141.2c-3.5,16.1-6.3,36.6-5.6,60.3
			C1540.2,1019.9,1542.5,1035.3,1545.3,1048.2z"/>
		<path class="st5" d="M1557.9,1048.2c44-1.4,87.9-2.8,131.9-4.2c-1-34-2-68-3-102h-128.9c-3.2,16.1-5.7,36.6-5.1,60.3
			C1553.3,1019.9,1555.3,1035.3,1557.9,1048.2z"/>
		<path class="st6" d="M1574.1,264.9c80.5-2.1,161-4.2,241.5-6.2c9.5-13.2,18.9-26.4,28.4-39.5c-89,0.4-177.9,0.7-266.9,1
			C1576.2,235.1,1575.1,250,1574.1,264.9z"/>
		<path class="st7" d="M1548.8,268c8.1-1,16.2-2.1,24.3-3.1c0.7-12.1,1.3-24.3,2-36.4c-9.8,4.5-19.6,9-29.4,13.5
			C1546.7,250.6,1547.7,259.3,1548.8,268z"/>
		<path class="st8" d="M1577.2,220.1c91.7,0,183.3,0,275,0c0.3-0.5,3.4-5.6,1-11.4c-2.2-5.6-7.5-7.1-8.1-7.3
			c-87.9,0-175.9,0-263.8,0C1579.9,207.6,1578.5,213.9,1577.2,220.1z"/>
		<path class="st9" d="M1628.9,149.4c41.3-1.4,82.5-2.8,123.8-4.2c-3.4-10.1-6.8-20.1-10.2-30.2c-32.1,0.7-64.3,1.4-96.4,2.1
			C1640.4,127.9,1634.7,138.6,1628.9,149.4z"/>
		<path class="st10" d="M1633,119.2c43.6-0.7,87.3-1.4,130.9-2.1c0.4-5.6,0.5-11.9,0-18.7c-1-14.2-4-26.2-7.1-35.4
			c-40.6,0-81.2,0-121.8,0C1634.3,81.8,1633.7,100.5,1633,119.2z"/>
		<path class="st11" d="M1582.3,146.3c17.9-8.3,35.8-16.6,53.8-25c0.3-20.1,0.7-40.2,1-60.3c-24.7,17.7-49.4,35.4-74.1,53.1
			c-0.7,3.1-1.3,6.2-2,9.4C1568,131,1575.1,138.6,1582.3,146.3z"/>
		<path class="st12" d="M1560.9,123.4c25.4-20.8,50.7-41.6,76.1-62.4c-5.4-8.3-10.8-16.7-16.2-25c-22.3,22.5-44.7,45.1-67,67.6
			C1556.2,110.2,1558.6,116.8,1560.9,123.4z"/>
		<path class="st13" d="M1635,63c40.6,0,81.2,0,121.8,0c-8.1-9-16.2-18-24.3-27c-37.2,0-74.4,0-111.6,0c-0.3,2.6-0.5,6.8,1,11.4
			C1624.9,57.3,1632.9,61.9,1635,63z"/>
		<path class="st14" d="M1590,164c13-4.5,26-9,39-13.5c4.7-10.4,9.4-20.8,14.1-31.2c-21.3,9.4-42.6,18.7-63.9,28.1
			C1582.8,152.9,1586.4,158.4,1590,164z"/>
		<path class="st15" d="M1526.4,222.2c18.3-7.3,36.5-14.6,54.8-21.9c15.9-17,31.8-34,47.7-51c-12.8,4.5-25.7,9-38.6,13.5
			C1569.1,182.7,1547.7,202.4,1526.4,222.2z"/>
		<path class="st16" d="M1583.3,199.3c87.9,0,175.9,0,263.8,0c-7.7-7.4-16.4-15.2-26.4-22.9c-17.7-13.6-34.7-23.7-49.7-31.2
			c-47,1.4-94,2.8-141.1,4.2c-8.5,4.7-21.1,13-32.5,27.1C1590.8,184.7,1586.3,192.7,1583.3,199.3z"/>
		<path class="st17" d="M1550.8,942.1c8.1,0,16.2,0,24.3,0c-0.3-225.8-0.7-451.5-1-677.3c-8.5,1-16.9,2.1-25.4,3.1
			C1549.4,492.7,1550.1,717.4,1550.8,942.1z"/>
		<rect x="1464.5" y="225.3" class="st18" width="77.1" height="67.6"/>
		<rect x="1464.5" y="293" class="st19" width="77.1" height="749"/>
		<path class="st2" d="M1689.8,1044.1h122.8c-1.5-10.8-2.7-28.3,2-48.9c5.3-23.2,15.7-39.8,22.3-48.9c-50.1-1.4-100.1-2.8-150.2-4.2
			C1687.8,976.1,1688.8,1010.1,1689.8,1044.1z"/>
	</g>
	<g>
		<rect x="465.8" y="263.8" class="st20" width="32.5" height="771.9"/>
		<path class="st20" d="M920.3,168.1c-58.3,5.3-135.7,18.2-222.2,49.9c-85.1,31.2-151.9,70.7-199.9,104c0-16.3,0-32.6,0-48.9
			c47.3-31.4,110.4-66.9,188.7-95.7c90.6-33.3,171.9-46.7,233.4-52C920.3,139.7,920.3,153.9,920.3,168.1z"/>
		<rect x="914.3" y="110.9" class="st20" width="31.5" height="937.3"/>
		<rect x="498.2" y="888" class="st20" width="422.1" height="30.2"/>
		<rect x="498.2" y="978.5" class="st20" width="422.1" height="22.9"/>
		<path class="st20" d="M914.3,296.1c-69.5,9.4-158.4,28.7-255.7,69.7c-63.1,26.6-116.6,56.7-160.3,85.3c-0.7-28.8-1.4-57.6-2-86.4
			c19.1-6,48.8-16,84.2-31.2c55.7-23.9,67.8-35.9,117.7-55.1c13.4-5.2,49.7-18.6,98.4-29.1c46.4-10,86.8-13.5,117.7-14.6
			C914.3,255.2,914.3,275.6,914.3,296.1z"/>
		<rect x="849.3" y="169.2" class="st20" width="15.2" height="820.8"/>
		<rect x="783.4" y="169.2" class="st20" width="15.2" height="820.8"/>
		<rect x="702.2" y="173.3" class="st20" width="15.2" height="820.8"/>
		<rect x="640.3" y="221.2" class="st20" width="15.2" height="773"/>
		<rect x="567.2" y="248.2" class="st20" width="15.2" height="751.1"/>
	</g>
	<g>
		<rect x="1411.5" y="263.8" class="st20" width="32.5" height="771.9"/>
		<path class="st20" d="M989.4,168.1c58.3,5.3,135.7,18.2,222.2,49.9c85.1,31.2,151.9,70.7,199.9,104c0-16.3,0-32.6,0-48.9
			c-47.3-31.4-110.4-66.9-188.7-95.7c-90.6-33.3-171.9-46.7-233.4-52C989.4,139.7,989.4,153.9,989.4,168.1z"/>
		<rect x="964" y="110.9" class="st20" width="31.5" height="937.3"/>
		<rect x="989.4" y="888" class="st20" width="422.1" height="30.2"/>
		<rect x="989.4" y="978.5" class="st20" width="422.1" height="22.9"/>
		<path class="st20" d="M995.5,296.1c69.5,9.4,158.4,28.7,255.7,69.7c63.1,26.6,116.6,56.7,160.3,85.3c0.7-28.8,1.3-57.6,2-86.4
			c-19.1-6-48.8-16-84.2-31.2c-55.7-23.9-67.8-35.9-117.7-55.1c-13.4-5.2-49.7-18.6-98.4-29.1c-46.4-10-86.8-13.5-117.7-14.6
			C995.5,255.2,995.5,275.6,995.5,296.1z"/>
		<rect x="1045.2" y="169.2" class="st20" width="15.2" height="820.8"/>
		<rect x="1111.1" y="169.2" class="st20" width="15.2" height="820.8"/>
		<rect x="1192.3" y="173.3" class="st20" width="15.2" height="820.8"/>
		<rect x="1254.2" y="221.2" class="st20" width="15.2" height="773"/>
		<rect x="1327.3" y="248.2" class="st20" width="15.2" height="751.1"/>
	</g>
	<rect x="1629.7" y="327.3" class="st21" width="138" height="247.6"/>
	<g>
		<rect x="1656.6" y="402.3" class="st22" width="23.3" height="16.9"/>
		<rect x="1686.3" y="402.3" class="st22" width="23.3" height="16.9"/>
		<rect x="1717.9" y="402.3" class="st22" width="23.3" height="16.9"/>
		<rect x="1717.9" y="425.5" class="st22" width="23.3" height="16.9"/>
		<rect x="1686.3" y="425.5" class="st22" width="23.3" height="16.9"/>
		<rect x="1656.6" y="425.5" class="st22" width="23.3" height="16.9"/>
		<rect x="1656.6" y="448.6" class="st22" width="23.3" height="16.9"/>
		<rect x="1687.2" y="448.6" class="st22" width="23.3" height="16.9"/>
		<rect x="1717.9" y="448.6" class="st22" width="23.3" height="16.9"/>
		<rect x="1717.9" y="471.3" class="st22" width="23.3" height="16.9"/>
		<rect x="1687.2" y="471.3" class="st22" width="23.3" height="16.9"/>
		<rect x="1656.6" y="471.3" class="st22" width="23.3" height="16.9"/>
	</g>
	<rect x="1650.2" y="341.8" class="st23" width="97.3" height="48.6"/>
	<rect x="1650.2" y="514.1" class="st24" width="35.6" height="25.8"/>
	<rect x="1711.9" y="514.1" class="st24" width="35.6" height="25.8"/>
</g>
</svg>
