<?xml version="1.0" encoding="utf-8"?>
<!-- Generator: Adobe Illustrator 23.0.5, SVG Export Plug-In . SVG Version: 6.00 Build 0)  -->
<svg version="1.1" id="圖層_1" xmlns="http://www.w3.org/2000/svg" xmlns:xlink="http://www.w3.org/1999/xlink" x="0px" y="0px"
	 viewBox="0 0 1920 1080" style="enable-background:new 0 0 1920 1080;" xml:space="preserve">
<style type="text/css">
	.st0{fill:#403F45;}
	.st1{fill:#522E1B;}
	.st2{fill:#585862;}
	.st3{fill:#9B806D;}
	.st4{fill:#282F3B;}
	.st5{fill:#504C54;}
	.st6{fill:#413F45;}
	.st7{fill:#442F2E;}
	.st8{fill:#6C7887;}
	.st9{fill:#3A404D;}
	.st10{fill:#626064;}
	.st11{fill:#A49581;}
	.st12{fill:#F9D99C;}
	.st13{fill:#B7A694;}
	.st14{fill:#393844;}
	.st15{fill:#F0D3AC;}
	.st16{fill:#666A76;}
	.st17{fill:#7F695B;}
	.st18{fill:#543C3A;}
	.st19{fill:#493E42;}
	.st20{fill:#65544E;}
	.st21{fill:#7779A0;}
	.st22{fill:#3E3E68;}
	.st23{fill:#5BC44D;}
	.st24{fill:#313331;}
	.st25{fill:#F2E1C2;}
	.st26{fill:#BCB8B7;}
	.st27{fill:#1DB8BF;}
	.st28{fill:#FFFFFF;}
	.st29{font-family:'irohamaru-Medium';}
	.st30{font-size:19px;}
	.st31{fill:#1EBC38;}
	.st32{font-family:'AdobeMingStd-Light-B5pc-H';}
</style>
<g>
	<g>
		<g>
			<g>
				<path class="st0" d="M201.82,1040.87c-22.11-0.71-54.98-1.26-95.18,0c-41.19,1.29-57.34,3.46-66.83-7.23
					c-19.17-21.6,7.38-74.92,15.19-89.81c48.94,1.72,97.88,3.44,146.81,5.16V1040.87z"/>
				<rect x="345.59" y="227.45" class="st1" width="91.13" height="816.52"/>
				<path class="st2" d="M350.65,247.06c-14.18-7.23-28.35-14.45-42.53-21.68v-22.71c18.9,7.57,37.8,15.14,56.7,22.71
					C360.1,232.61,355.38,239.84,350.65,247.06z"/>
				<path class="st3" d="M323.34,939.71c-81.02-0.34-162.04-0.69-243.06-1.03c-3.03-225.72-6.05-451.44-9.08-677.16
					c86.4,2.06,172.8,4.13,259.2,6.19C328.05,491.71,325.7,715.71,323.34,939.71z"/>
				<path class="st4" d="M346.02,1045c-48.07-1.38-96.13-2.75-144.2-4.13c1.11-33.72,2.22-67.44,3.33-101.16h140.87
					c3.47,16.01,6.23,36.35,5.55,59.87C351.06,1016.85,348.8,1032.15,346.02,1045z"/>
				<path class="st5" d="M333.44,1045c-43.88-1.38-87.75-2.75-131.63-4.13c1.01-33.72,2.03-67.44,3.04-101.16h128.59
					c3.16,16.01,5.69,36.35,5.06,59.87C338.05,1016.85,335.98,1032.15,333.44,1045z"/>
				<path class="st6" d="M317.24,267.71c-80.33-2.06-160.65-4.13-240.98-6.19c-9.45-13.08-18.9-26.15-28.35-39.23
					c88.76,0.34,177.53,0.69,266.29,1.03C315.22,238.12,316.23,252.91,317.24,267.71z"/>
				<path class="st7" d="M342.55,270.81c-8.1-1.03-16.2-2.06-24.3-3.1c-0.67-12.04-1.35-24.09-2.03-36.13
					c9.79,4.47,19.58,8.95,29.36,13.42C344.58,253.6,343.57,262.2,342.55,270.81z"/>
				<path class="st8" d="M314.2,223.32c-91.46,0-182.93,0-274.39,0c-0.29-0.47-3.35-5.55-1.01-11.35c2.23-5.53,7.5-7.06,8.1-7.23
					c87.75,0,175.5,0,263.25,0C311.5,210.94,312.85,217.13,314.2,223.32z"/>
				<path class="st9" d="M262.57,153.13c-41.18-1.38-82.35-2.75-123.53-4.13c3.38-9.98,6.75-19.96,10.13-29.94
					c32.06,0.69,64.13,1.38,96.19,2.06C251.09,131.8,256.83,142.46,262.57,153.13z"/>
				<path class="st10" d="M258.52,123.19c-43.54-0.69-87.08-1.38-130.61-2.06c-0.38-5.58-0.46-11.81,0-18.58
					c0.96-14.06,3.96-25.94,7.09-35.1c40.5,0,81,0,121.5,0C257.17,86.03,257.84,104.61,258.52,123.19z"/>
				<path class="st11" d="M309.14,150.03c-17.89-8.26-35.78-16.52-53.66-24.77c-0.34-19.96-0.67-39.91-1.01-59.87
					c24.64,17.55,49.28,35.1,73.91,52.65c0.67,3.1,1.35,6.19,2.02,9.29C323.32,134.89,316.23,142.46,309.14,150.03z"/>
				<path class="st12" d="M330.4,127.32c-25.31-20.65-50.63-41.29-75.94-61.94c5.4-8.26,10.8-16.52,16.2-24.77
					c22.28,22.37,44.55,44.73,66.83,67.1C335.13,114.25,332.77,120.78,330.4,127.32z"/>
				<path class="st13" d="M256.49,67.45c-40.5,0-81,0-121.5,0c8.1-8.95,16.2-17.89,24.3-26.84c37.13,0,74.25,0,111.38,0
					c0.32,2.59,0.47,6.71-1.01,11.35C266.53,61.72,258.57,66.33,256.49,67.45z"/>
				<path class="st14" d="M301.37,167.58c-12.97-4.47-25.95-8.95-38.92-13.42c-4.68-10.32-9.37-20.65-14.05-30.97
					c21.26,9.29,42.53,18.58,63.79,27.87C308.58,156.57,304.97,162.08,301.37,167.58z"/>
				<path class="st15" d="M364.83,225.39c-18.23-7.23-36.45-14.45-54.68-21.68c-15.86-16.86-31.73-33.72-47.59-50.58
					c12.83,4.47,25.65,8.95,38.48,13.42C322.3,186.16,343.57,205.77,364.83,225.39z"/>
				<path class="st16" d="M308.13,202.68c-87.75,0-175.5,0-263.25,0c7.64-7.39,16.38-15.08,26.33-22.71
					c17.62-13.52,34.67-23.54,49.61-30.97c46.91,1.38,93.83,2.75,140.74,4.13c8.52,4.62,21.05,12.86,32.4,26.84
					C300.57,188.12,305.07,196.1,308.13,202.68z"/>
				<path class="st17" d="M340.53,939.71c-8.1,0-16.2,0-24.3,0c0.34-224,0.67-448,1.01-672c8.44,1.03,16.88,2.06,25.31,3.1
					C341.88,493.77,341.2,716.74,340.53,939.71z"/>
				<rect x="349.64" y="228.48" class="st18" width="76.95" height="67.1"/>
				<rect x="349.64" y="295.58" class="st19" width="76.95" height="743.23"/>
				<path class="st2" d="M201.82,1040.87H79.3c1.53-10.73,2.68-28.07-2.03-48.52c-5.3-23.06-15.61-39.48-22.28-48.52
					c49.95-1.38,99.9-2.75,149.85-4.13C203.84,973.43,202.83,1007.15,201.82,1040.87z"/>
			</g>
			<g>
				<path class="st0" d="M1667.18,1021.26c22.11-0.71,54.98-1.26,95.18,0c41.19,1.29,57.34,3.46,66.83-7.23
					c19.17-21.6-7.38-74.92-15.19-89.81c-48.94,1.72-97.88,3.44-146.81,5.16V1021.26z"/>
				
					<rect x="1432.28" y="207.84" transform="matrix(-1 -4.581148e-11 4.581148e-11 -1 2955.6899 1232.1936)" class="st1" width="91.13" height="816.52"/>
				<path class="st2" d="M1518.35,227.45c14.18-7.23,28.35-14.45,42.53-21.68v-22.71c-18.9,7.57-37.8,15.14-56.7,22.71
					C1508.9,213,1513.62,220.23,1518.35,227.45z"/>
				<path class="st3" d="M1545.66,920.1c81.02-0.34,162.04-0.69,243.06-1.03c3.03-225.72,6.05-451.44,9.08-677.16
					c-86.4,2.06-172.8,4.13-259.2,6.19C1540.95,472.1,1543.3,696.1,1545.66,920.1z"/>
				<path class="st4" d="M1522.98,1025.39c48.07-1.38,96.13-2.75,144.2-4.13c-1.11-33.72-2.22-67.44-3.33-101.16h-140.87
					c-3.47,16.01-6.23,36.35-5.55,59.87C1517.94,997.24,1520.2,1012.53,1522.98,1025.39z"/>
				<path class="st5" d="M1535.56,1025.39c43.88-1.38,87.75-2.75,131.63-4.13c-1.01-33.72-2.03-67.44-3.04-101.16h-128.59
					c-3.16,16.01-5.69,36.35-5.06,59.87C1530.95,997.24,1533.02,1012.53,1535.56,1025.39z"/>
				<path class="st6" d="M1551.76,248.1c80.33-2.06,160.65-4.13,240.98-6.19c9.45-13.08,18.9-26.15,28.35-39.23
					c-88.76,0.34-177.53,0.69-266.29,1.03C1553.78,218.51,1552.77,233.3,1551.76,248.1z"/>
				<path class="st7" d="M1526.45,251.19c8.1-1.03,16.2-2.06,24.3-3.1c0.67-12.04,1.35-24.09,2.03-36.13
					c-9.79,4.47-19.58,8.95-29.36,13.42C1524.42,233.99,1525.43,242.59,1526.45,251.19z"/>
				<path class="st8" d="M1554.8,203.71c91.46,0,182.93,0,274.39,0c0.29-0.47,3.35-5.55,1.01-11.35c-2.23-5.53-7.5-7.06-8.1-7.23
					c-87.75,0-175.5,0-263.25,0C1557.5,191.32,1556.15,197.52,1554.8,203.71z"/>
				<path class="st9" d="M1606.43,133.52c41.18-1.38,82.35-2.75,123.53-4.13c-3.38-9.98-6.75-19.96-10.13-29.94
					c-32.06,0.69-64.13,1.38-96.19,2.06C1617.91,112.18,1612.17,122.85,1606.43,133.52z"/>
				<path class="st10" d="M1610.48,103.58c43.54-0.69,87.08-1.38,130.61-2.06c0.38-5.58,0.46-11.81,0-18.58
					c-0.96-14.06-3.96-25.94-7.09-35.1c-40.5,0-81,0-121.5,0C1611.83,66.42,1611.16,85,1610.48,103.58z"/>
				<path class="st11" d="M1559.86,130.42c17.89-8.26,35.78-16.52,53.66-24.77c0.34-19.96,0.68-39.91,1.01-59.87
					c-24.64,17.55-49.28,35.1-73.91,52.65c-0.67,3.1-1.35,6.19-2.03,9.29C1545.68,115.28,1552.77,122.85,1559.86,130.42z"/>
				<path class="st12" d="M1538.6,107.71c25.31-20.65,50.63-41.29,75.94-61.94c-5.4-8.26-10.8-16.52-16.2-24.77
					c-22.28,22.37-44.55,44.73-66.83,67.1C1533.87,94.63,1536.23,101.17,1538.6,107.71z"/>
				<path class="st13" d="M1612.51,47.84c40.5,0,81,0,121.5,0c-8.1-8.95-16.2-17.89-24.3-26.84c-37.13,0-74.25,0-111.38,0
					c-0.32,2.59-0.47,6.71,1.01,11.35C1602.47,42.11,1610.43,46.72,1612.51,47.84z"/>
				<path class="st14" d="M1567.63,147.97c12.97-4.47,25.95-8.95,38.92-13.42c4.69-10.32,9.37-20.65,14.05-30.97
					c-21.26,9.29-42.53,18.58-63.79,27.87C1560.42,136.96,1564.03,142.46,1567.63,147.97z"/>
				<path class="st15" d="M1504.17,205.77c18.23-7.23,36.45-14.45,54.68-21.68c15.86-16.86,31.73-33.72,47.59-50.58
					c-12.83,4.47-25.65,8.95-38.48,13.42C1546.7,166.55,1525.43,186.16,1504.17,205.77z"/>
				<path class="st16" d="M1560.87,183.06c87.75,0,175.5,0,263.25,0c-7.64-7.39-16.38-15.08-26.33-22.71
					c-17.62-13.52-34.67-23.54-49.61-30.97c-46.91,1.38-93.83,2.75-140.74,4.13c-8.52,4.62-21.05,12.86-32.4,26.84
					C1568.43,168.5,1563.93,176.49,1560.87,183.06z"/>
				<path class="st17" d="M1528.47,920.1c8.1,0,16.2,0,24.3,0c-0.34-224-0.68-448-1.01-672c-8.44,1.03-16.88,2.06-25.31,3.1
					C1527.12,474.16,1527.8,697.13,1528.47,920.1z"/>
				
					<rect x="1442.41" y="208.87" transform="matrix(-1 -4.563428e-11 4.563428e-11 -1 2961.7649 484.8387)" class="st18" width="76.95" height="67.1"/>
				
					<rect x="1442.41" y="275.97" transform="matrix(-1 -4.578794e-11 4.578794e-11 -1 2961.7649 1295.1613)" class="st19" width="76.95" height="743.23"/>
				<path class="st2" d="M1667.18,1021.26h122.51c-1.53-10.73-2.68-28.07,2.03-48.52c5.3-23.06,15.61-39.48,22.28-48.52
					c-49.95-1.38-99.9-2.75-149.85-4.13C1665.16,953.82,1666.17,987.54,1667.18,1021.26z"/>
			</g>
			<g>
				<rect x="445.83" y="247.06" class="st20" width="32.4" height="765.94"/>
				<path class="st20" d="M899.43,152.1c-58.18,5.23-135.4,18.05-221.74,49.55c-84.87,30.97-151.61,70.15-199.46,103.23
					c0-16.17,0-32.34,0-48.52c47.22-31.13,110.2-66.39,188.33-94.97c90.41-33.07,171.49-46.35,232.88-51.61
					C899.43,123.88,899.43,137.99,899.43,152.1z"/>
				<rect x="893.36" y="95.32" class="st20" width="31.39" height="930.06"/>
				<rect x="478.23" y="866.42" class="st20" width="421.2" height="29.94"/>
				<rect x="478.23" y="956.23" class="st20" width="421.2" height="22.71"/>
				<path class="st20" d="M893.36,279.06c-69.39,9.29-158.05,28.48-255.15,69.16c-62.97,26.38-116.32,56.29-159.98,84.65
					c-0.67-28.56-1.35-57.12-2.03-85.68c19.02-5.92,48.67-15.87,84.04-30.97c55.58-23.73,67.67-35.61,117.45-54.71
					c13.36-5.13,49.59-18.51,98.21-28.9c46.33-9.9,86.63-13.4,117.45-14.45C893.36,238.46,893.36,258.76,893.36,279.06z"/>
				<rect x="828.56" y="153.13" class="st20" width="15.19" height="814.45"/>
				<rect x="762.74" y="153.13" class="st20" width="15.19" height="814.45"/>
				<rect x="681.74" y="157.26" class="st20" width="15.19" height="814.45"/>
				<rect x="619.98" y="204.74" class="st20" width="15.19" height="766.97"/>
				<rect x="547.08" y="231.58" class="st20" width="15.19" height="745.29"/>
			</g>
			<g>
				
					<rect x="1389.49" y="247.06" transform="matrix(-1 -4.553081e-11 4.553081e-11 -1 2811.3706 1260.0646)" class="st20" width="32.4" height="765.94"/>
				<path class="st20" d="M968.28,152.1c58.18,5.23,135.4,18.05,221.74,49.55c84.87,30.97,151.61,70.15,199.46,103.23
					c0-16.17,0-32.34,0-48.52c-47.22-31.13-110.2-66.39-188.33-94.97c-90.41-33.07-171.49-46.35-232.88-51.61
					C968.28,123.88,968.28,137.99,968.28,152.1z"/>
				
					<rect x="942.97" y="95.32" transform="matrix(-1 -4.601442e-11 4.601442e-11 -1 1917.3285 1120.7097)" class="st20" width="31.39" height="930.06"/>
				
					<rect x="968.28" y="866.42" transform="matrix(-1 -4.577240e-11 4.577240e-11 -1 2357.7683 1762.7742)" class="st20" width="421.2" height="29.94"/>
				
					<rect x="968.28" y="956.23" transform="matrix(-1 -4.576396e-11 4.576396e-11 -1 2357.7683 1935.1613)" class="st20" width="421.2" height="22.71"/>
				<path class="st20" d="M974.36,279.06c69.39,9.29,158.05,28.48,255.15,69.16c62.97,26.38,116.32,56.29,159.98,84.65
					c0.67-28.56,1.35-57.12,2.03-85.68c-19.02-5.92-48.67-15.87-84.04-30.97c-55.58-23.73-67.67-35.61-117.45-54.71
					c-13.36-5.13-49.59-18.51-98.21-28.9c-46.33-9.9-86.63-13.4-117.45-14.45C974.36,238.46,974.36,258.76,974.36,279.06z"/>
				
					<rect x="1023.97" y="153.13" transform="matrix(-1 -4.623070e-11 4.623070e-11 -1 2063.1292 1120.7097)" class="st20" width="15.19" height="814.45"/>
				
					<rect x="1089.78" y="153.13" transform="matrix(-1 -4.563162e-11 4.563162e-11 -1 2194.7549 1120.7097)" class="st20" width="15.19" height="814.45"/>
				
					<rect x="1170.78" y="157.26" transform="matrix(-1 -4.623070e-11 4.623070e-11 -1 2356.7556 1128.9678)" class="st20" width="15.19" height="814.45"/>
				
					<rect x="1232.55" y="204.74" transform="matrix(-1 -4.623070e-11 4.623070e-11 -1 2480.2813 1176.4517)" class="st20" width="15.19" height="766.97"/>
				
					<rect x="1305.45" y="231.58" transform="matrix(-1 -4.623070e-11 4.623070e-11 -1 2626.082 1208.4517)" class="st20" width="15.19" height="745.29"/>
			</g>
			<rect x="1607.17" y="310.03" class="st21" width="137.7" height="245.68"/>
			<g>
				<rect x="1634.08" y="384.49" class="st22" width="23.25" height="16.73"/>
				<rect x="1663.71" y="384.49" class="st22" width="23.25" height="16.73"/>
				<rect x="1695.17" y="384.49" class="st22" width="23.25" height="16.73"/>
				<rect x="1695.17" y="407.45" class="st22" width="23.25" height="16.73"/>
				<rect x="1663.71" y="407.45" class="st22" width="23.25" height="16.73"/>
				<rect x="1634.08" y="407.45" class="st22" width="23.25" height="16.73"/>
				<rect x="1634.08" y="430.41" class="st22" width="23.25" height="16.73"/>
				<rect x="1664.63" y="430.41" class="st22" width="23.25" height="16.73"/>
				<rect x="1695.17" y="430.41" class="st22" width="23.25" height="16.73"/>
				<rect x="1695.17" y="452.88" class="st22" width="23.25" height="16.73"/>
				<rect x="1664.63" y="452.88" class="st22" width="23.25" height="16.73"/>
				<rect x="1634.08" y="452.88" class="st22" width="23.25" height="16.73"/>
			</g>
			<rect x="1627.69" y="324.46" class="st23" width="97.12" height="48.22"/>
			<rect x="1627.69" y="495.36" class="st24" width="35.57" height="25.58"/>
			<rect x="1689.25" y="495.36" class="st24" width="35.57" height="25.58"/>
		</g>
		<rect x="117.62" y="437.54" class="st25" width="151.24" height="103.68"/>
		<rect x="183.11" y="424.62" class="st26" width="20.27" height="25.85"/>
		<path d="M133.13,477.86c-0.28,0.26-0.61,0.38-0.99,0.38s-0.72-0.13-0.99-0.38c-0.28-0.26-0.41-0.56-0.41-0.91v-13.31
			c0-0.53,0.2-0.97,0.6-1.35c0.4-0.37,0.88-0.56,1.45-0.56h3.35c4.51,0,6.77,1.66,6.77,4.99c0,1.74-0.61,3.05-1.83,3.93
			c-1.22,0.88-2.83,1.32-4.84,1.32h-2.45c-0.16,0-0.24,0.07-0.24,0.22v4.75C133.54,477.3,133.4,477.61,133.13,477.86z
			 M133.54,469.68c0,0.15,0.08,0.22,0.24,0.22h2.19c1.41,0,2.47-0.26,3.16-0.78c0.69-0.52,1.04-1.32,1.04-2.4
			c0-1.07-0.35-1.81-1.05-2.24s-1.79-0.65-3.27-0.65h-2.07c-0.16,0-0.24,0.07-0.24,0.22V469.68z"/>
		<path d="M156.31,478.24c-0.44,0-0.84-0.12-1.19-0.37c-0.35-0.25-0.59-0.56-0.72-0.94l-1.01-3.18c-0.05-0.15-0.15-0.22-0.31-0.22
			h-5.7c-0.16,0-0.26,0.07-0.31,0.22l-1.04,3.22c-0.13,0.38-0.36,0.69-0.7,0.92c-0.34,0.23-0.72,0.35-1.14,0.35
			c-0.35,0-0.62-0.13-0.83-0.39c-0.13-0.18-0.19-0.36-0.19-0.55c0-0.1,0.02-0.2,0.05-0.31l4.93-13.84c0.16-0.42,0.43-0.77,0.83-1.03
			c0.39-0.26,0.83-0.39,1.31-0.39c0.48,0,0.92,0.13,1.31,0.39c0.39,0.26,0.67,0.61,0.83,1.03l4.9,13.77
			c0.05,0.12,0.07,0.23,0.07,0.33c0,0.2-0.07,0.39-0.21,0.57C156.97,478.11,156.67,478.24,156.31,478.24z M147.87,471.28
			c-0.02,0.06-0.01,0.11,0.02,0.15c0.03,0.04,0.08,0.07,0.14,0.07h4.39c0.06,0,0.11-0.02,0.14-0.07c0.03-0.04,0.04-0.09,0.02-0.15
			l-0.64-2.01c-0.3-0.89-0.86-2.7-1.67-5.43c-0.02-0.03-0.04-0.04-0.07-0.04c-0.03,0-0.05,0.01-0.05,0.04
			c-0.44,1.62-0.98,3.43-1.63,5.43L147.87,471.28z"/>
		<path d="M165.15,478.53c-2,0-3.78-0.55-5.35-1.64c-0.31-0.2-0.47-0.5-0.47-0.88c0-0.32,0.11-0.58,0.33-0.79
			c0.22-0.25,0.5-0.38,0.85-0.39c0.03,0,0.06,0,0.09,0c0.31,0,0.6,0.08,0.85,0.24c1.19,0.8,2.44,1.2,3.75,1.2
			c1.07,0,1.9-0.21,2.49-0.64c0.59-0.42,0.88-0.99,0.88-1.71c0-0.29-0.06-0.55-0.17-0.79c-0.11-0.23-0.23-0.43-0.35-0.58
			c-0.13-0.15-0.34-0.32-0.65-0.49c-0.31-0.18-0.55-0.3-0.74-0.38c-0.19-0.08-0.5-0.21-0.94-0.38l-2.48-0.99
			c-2.4-0.95-3.61-2.39-3.61-4.34c0-1.3,0.55-2.38,1.65-3.25c1.1-0.87,2.5-1.3,4.2-1.3c1.65,0,3.15,0.46,4.5,1.38
			c0.28,0.19,0.42,0.46,0.42,0.81c0,0.28-0.09,0.52-0.28,0.72c-0.2,0.22-0.46,0.34-0.78,0.37c-0.05,0.01-0.09,0.02-0.14,0.02
			c-0.27,0-0.51-0.07-0.73-0.22c-0.93-0.55-1.93-0.83-2.99-0.83c-0.91,0-1.64,0.19-2.18,0.58c-0.54,0.39-0.81,0.91-0.81,1.57
			c0,0.26,0.06,0.51,0.18,0.74s0.25,0.43,0.39,0.58c0.14,0.15,0.37,0.31,0.67,0.46c0.31,0.15,0.56,0.27,0.75,0.36
			c0.2,0.09,0.49,0.2,0.88,0.33l2.43,0.96c1.16,0.47,2.06,1.05,2.69,1.74c0.63,0.69,0.94,1.6,0.94,2.73c0,1.37-0.57,2.51-1.71,3.43
			S167.06,478.53,165.15,478.53z"/>
		<path d="M179.42,478.53c-2,0-3.78-0.55-5.35-1.64c-0.31-0.2-0.47-0.5-0.47-0.88c0-0.32,0.11-0.58,0.33-0.79
			c0.22-0.25,0.5-0.38,0.85-0.39c0.03,0,0.06,0,0.09,0c0.31,0,0.6,0.08,0.85,0.24c1.19,0.8,2.44,1.2,3.75,1.2
			c1.07,0,1.9-0.21,2.49-0.64c0.59-0.42,0.88-0.99,0.88-1.71c0-0.29-0.06-0.55-0.17-0.79c-0.11-0.23-0.23-0.43-0.35-0.58
			s-0.34-0.32-0.65-0.49c-0.31-0.18-0.55-0.3-0.74-0.38c-0.19-0.08-0.5-0.21-0.94-0.38l-2.48-0.99c-2.4-0.95-3.61-2.39-3.61-4.34
			c0-1.3,0.55-2.38,1.65-3.25c1.1-0.87,2.5-1.3,4.2-1.3c1.65,0,3.15,0.46,4.5,1.38c0.28,0.19,0.42,0.46,0.42,0.81
			c0,0.28-0.09,0.52-0.28,0.72c-0.2,0.22-0.46,0.34-0.78,0.37c-0.05,0.01-0.09,0.02-0.14,0.02c-0.27,0-0.51-0.07-0.73-0.22
			c-0.93-0.55-1.93-0.83-2.99-0.83c-0.91,0-1.64,0.19-2.18,0.58c-0.54,0.39-0.81,0.91-0.81,1.57c0,0.26,0.06,0.51,0.18,0.74
			s0.25,0.43,0.39,0.58c0.14,0.15,0.37,0.31,0.67,0.46c0.31,0.15,0.56,0.27,0.75,0.36s0.49,0.2,0.88,0.33l2.43,0.96
			c1.16,0.47,2.06,1.05,2.69,1.74c0.63,0.69,0.94,1.6,0.94,2.73c0,1.37-0.57,2.51-1.71,3.43S181.32,478.53,179.42,478.53z"/>
		<path d="M192.52,478.24c-0.49,0-0.92-0.15-1.31-0.44c-0.39-0.29-0.62-0.66-0.72-1.09l-3.02-13.64c-0.02-0.1-0.02-0.19-0.02-0.26
			c0-0.25,0.09-0.47,0.26-0.66c0.24-0.28,0.54-0.42,0.92-0.42c0.42,0,0.8,0.13,1.12,0.38s0.51,0.57,0.58,0.95l1.41,7.27l0.94,5.23
			c0,0.03,0.02,0.04,0.05,0.04c0.03,0,0.06-0.01,0.07-0.04c0.3-1.37,0.69-3.12,1.18-5.23l2-7.49c0.09-0.32,0.28-0.59,0.57-0.8
			c0.28-0.21,0.6-0.32,0.97-0.32c0.36,0,0.68,0.11,0.97,0.32c0.28,0.21,0.47,0.48,0.57,0.8l2,7.49c0.17,0.67,0.41,1.67,0.71,3
			c0.3,1.33,0.46,2.07,0.5,2.23c0.02,0.03,0.04,0.04,0.08,0.04c0.04,0,0.06-0.01,0.06-0.04c0.11-0.7,0.28-1.68,0.5-2.93
			c0.22-1.26,0.35-2.02,0.4-2.3l1.44-7.38c0.06-0.35,0.24-0.64,0.54-0.88c0.3-0.23,0.64-0.35,1.04-0.35c0.35,0,0.63,0.12,0.85,0.37
			c0.17,0.19,0.26,0.4,0.26,0.64c0,0.07-0.01,0.15-0.02,0.22l-2.9,13.71c-0.11,0.45-0.36,0.83-0.74,1.13
			c-0.39,0.3-0.83,0.45-1.33,0.45c-0.5,0-0.95-0.15-1.36-0.44c-0.4-0.29-0.66-0.66-0.77-1.12l-1.98-7.62
			c-0.3-1.24-0.57-2.48-0.83-3.72c0-0.04-0.02-0.07-0.06-0.07c-0.04,0-0.07,0.02-0.08,0.07c-0.09,0.48-0.36,1.72-0.8,3.72
			l-1.96,7.64c-0.11,0.45-0.36,0.82-0.75,1.11C193.45,478.1,193.01,478.24,192.52,478.24z"/>
		<path d="M222.83,476.2c-1.42,1.55-3.29,2.33-5.61,2.33c-2.32,0-4.19-0.78-5.61-2.33c-1.42-1.55-2.13-3.65-2.13-6.27
			c0-2.63,0.71-4.7,2.13-6.22c1.42-1.52,3.29-2.28,5.61-2.28c2.32,0,4.19,0.76,5.61,2.29c1.42,1.53,2.13,3.59,2.13,6.21
			C224.96,472.55,224.25,474.64,222.83,476.2z M213.67,474.55c0.88,1.15,2.06,1.72,3.54,1.72c1.48,0,2.66-0.57,3.55-1.72
			c0.89-1.15,1.33-2.69,1.33-4.63c0-1.93-0.44-3.45-1.33-4.57c-0.89-1.12-2.07-1.68-3.55-1.68c-1.48,0-2.66,0.56-3.54,1.68
			c-0.88,1.12-1.32,2.64-1.32,4.57C212.35,471.86,212.79,473.41,213.67,474.55z"/>
		<path d="M240.71,476.97c0.08,0.15,0.12,0.29,0.12,0.43c0,0.14-0.04,0.28-0.12,0.43c-0.19,0.28-0.46,0.42-0.8,0.42
			c-0.49,0-0.94-0.11-1.37-0.34c-0.42-0.23-0.75-0.54-0.99-0.93l-3.13-5.19c-0.08-0.13-0.2-0.2-0.35-0.2h-2.4
			c-0.16,0-0.24,0.07-0.24,0.22v5.15c0,0.35-0.14,0.65-0.41,0.91c-0.28,0.26-0.61,0.38-0.99,0.38s-0.72-0.13-0.99-0.38
			c-0.28-0.26-0.41-0.56-0.41-0.91v-13.31c0-0.53,0.2-0.97,0.6-1.35c0.4-0.37,0.88-0.56,1.45-0.56h3.77c4.28,0,6.41,1.59,6.41,4.77
			c0,1.2-0.31,2.19-0.92,2.97c-0.61,0.78-1.47,1.35-2.57,1.7c-0.14,0.06-0.17,0.15-0.09,0.26L240.71,476.97z M231.66,463.84
			c-0.16,0-0.24,0.07-0.24,0.22v5.23c0,0.15,0.08,0.22,0.24,0.22h2.45c2.66,0,3.98-1,3.98-3c0-0.96-0.33-1.65-0.99-2.06
			c-0.66-0.41-1.66-0.61-2.99-0.61H231.66z"/>
		<path d="M246.44,478.24c-0.57,0-1.05-0.19-1.45-0.56c-0.4-0.37-0.6-0.82-0.6-1.35v-12.7c0-0.53,0.2-0.97,0.6-1.35
			c0.4-0.37,0.88-0.56,1.45-0.56h2.57c2.75,0,4.86,0.7,6.34,2.09c1.48,1.39,2.22,3.43,2.22,6.1c0,2.67-0.73,4.73-2.2,6.16
			c-1.47,1.44-3.54,2.16-6.21,2.16H246.44z M247.19,475.92c0,0.15,0.08,0.21,0.24,0.2h1.39c1.92,0,3.38-0.52,4.37-1.57
			c1-1.04,1.5-2.59,1.5-4.63c0-4.06-1.96-6.08-5.87-6.07h-1.39c-0.16,0-0.24,0.07-0.24,0.22V475.92z"/>
	</g>
	<rect x="1611.89" y="583.98" class="st27" width="135" height="49"/>
	<text transform="matrix(1 0 0 1 1632.8872 613.6111)" class="st28 st29 st30">程式密碼鎖</text>
	<rect x="126" y="564" class="st31" width="135" height="49"/>
	<text transform="matrix(1 0 0 1 164 594.6304)" class="st28 st32 st30">密碼紙</text>
</g>
</svg>
