<?xml version="1.0" encoding="utf-8"?>
<!-- Generator: Adobe Illustrator 23.0.5, SVG Export Plug-In . SVG Version: 6.00 Build 0)  -->
<svg version="1.1" id="圖層_1" xmlns="http://www.w3.org/2000/svg" xmlns:xlink="http://www.w3.org/1999/xlink" x="0px" y="0px"
	 viewBox="0 0 1920 1080" style="enable-background:new 0 0 1920 1080;" xml:space="preserve">
<style type="text/css">
	.st0{fill:#403F45;}
	.st1{fill:#522E1B;}
	.st2{fill:#585862;}
	.st3{fill:#9B806D;}
	.st4{fill:#282F3B;}
	.st5{fill:#504C54;}
	.st6{fill:#413F45;}
	.st7{fill:#442F2E;}
	.st8{fill:#6C7887;}
	.st9{fill:#3A404D;}
	.st10{fill:#626064;}
	.st11{fill:#A49581;}
	.st12{fill:#F9D99C;}
	.st13{fill:#B7A694;}
	.st14{fill:#393844;}
	.st15{fill:#F0D3AC;}
	.st16{fill:#666A76;}
	.st17{fill:#7F695B;}
	.st18{fill:#543C3A;}
	.st19{fill:#493E42;}
	.st20{fill:#65544E;}
	.st21{fill:#7779A0;}
	.st22{fill:#3E3E68;}
	.st23{fill:#5BC44D;}
	.st24{fill:#313331;}
	.st25{fill:#FFFFFF;}
	.st26{fill:none;stroke:#000000;stroke-width:2;stroke-miterlimit:10;}
</style>
<g>
	<g>
		<path class="st0" d="M221.2,938.17c-22.2-0.64-55.1-1.19-95.4,0c-41.3,1.19-57.5,3.19-67-6.66c-19.2-19.9,7.4-68.92,15.2-82.61
			c49.1,1.55,98.1,3.19,147.1,4.75v84.52H221.2z"/>
		<rect x="365.3" y="189.95" class="st1" width="91.3" height="751.14"/>
		<path class="st2" d="M370.4,207.93c-14.2-6.66-28.4-13.33-42.6-19.99v-20.9c18.9,6.94,37.9,13.97,56.8,20.9
			C379.8,194.7,375.1,201.27,370.4,207.93z"/>
		<path class="st3" d="M343,845.15c-81.2-0.27-162.4-0.64-243.6-0.91c-3-207.66-6.1-415.32-9.1-622.98
			c86.6,1.92,173.2,3.83,259.8,5.66C347.7,433.03,345.4,639.04,343,845.15z"/>
		<path class="st4" d="M365.7,942c-48.2-1.28-96.4-2.56-144.5-3.83c1.1-31.03,2.2-62.07,3.3-93.1h141.2
			c3.5,14.7,6.3,33.41,5.6,55.04C370.8,916.08,368.5,930.22,365.7,942z"/>
		<path class="st5" d="M353.1,942c-44-1.28-88-2.56-131.9-3.83c1-31.03,2-62.07,3-93.1h128.9c3.2,14.7,5.7,33.41,5.1,55.04
			C357.7,916.08,355.7,930.22,353.1,942z"/>
		<path class="st6" d="M336.9,226.92c-80.5-1.92-161-3.83-241.5-5.66c-9.5-12.05-18.9-24.1-28.4-36.06
			c89,0.37,177.9,0.64,266.9,0.91C334.8,199.72,335.9,213.32,336.9,226.92z"/>
		<path class="st7" d="M362.2,229.84c-8.1-0.91-16.2-1.92-24.4-2.83c-0.7-11.04-1.4-22.18-2-33.23c9.8,4.11,19.6,8.22,29.4,12.32
			C364.3,213.96,363.3,221.9,362.2,229.84z"/>
		<path class="st8" d="M333.8,186.12c-91.7,0-183.3,0-275,0c-0.3-0.46-3.4-5.11-1-10.41c2.2-5.11,7.5-6.48,8.1-6.66
			c87.9,0,175.9,0,263.8,0C331.1,174.71,332.5,180.46,333.8,186.12z"/>
		<path class="st9" d="M282.1,121.58c-41.3-1.28-82.5-2.56-123.8-3.83c3.4-9.22,6.8-18.35,10.1-27.57c32.1,0.64,64.3,1.28,96.4,1.92
			C270.6,101.96,276.3,111.73,282.1,121.58z"/>
		<path class="st10" d="M278,94.02c-43.6-0.64-87.3-1.28-130.9-1.92c-0.4-5.11-0.5-10.86,0-17.07c1-12.96,4-23.92,7.1-32.31
			c40.6,0,81.2,0,121.8,0C276.7,59.79,277.3,76.95,278,94.02z"/>
		<path class="st11" d="M328.8,118.66c-17.9-7.58-35.9-15.15-53.8-22.82c-0.3-18.35-0.7-36.69-1-55.04
			c24.7,16.16,49.4,32.31,74.1,48.47c0.7,2.83,1.4,5.66,2,8.58C343,104.79,335.9,111.73,328.8,118.66z"/>
		<path class="st12" d="M350.1,97.76C324.7,78.77,299.4,59.79,274,40.8c5.4-7.58,10.8-15.24,16.2-22.82
			c22.3,20.54,44.6,41.17,67,61.7C354.8,85.8,352.4,91.83,350.1,97.76z"/>
		<path class="st13" d="M276,42.72c-40.6,0-81.2,0-121.8,0c8.1-8.22,16.2-16.43,24.4-24.65c37.2,0,74.4,0,111.6,0
			c0.3,2.37,0.5,6.21-1,10.41C286,37.42,278.1,41.71,276,42.72z"/>
		<path class="st14" d="M321,134.82c-13-4.11-26-8.22-39-12.32c-4.7-9.49-9.4-18.99-14.1-28.48c21.3,8.58,42.6,17.07,63.9,25.65
			C328.2,124.69,324.6,129.8,321,134.82z"/>
		<path class="st15" d="M384.6,188.03c-18.3-6.66-36.5-13.33-54.8-19.99c-15.9-15.52-31.8-31.03-47.7-46.55
			c12.9,4.11,25.7,8.22,38.6,12.32C342,151.89,363.3,169.96,384.6,188.03z"/>
		<path class="st16" d="M327.7,167.13c-87.9,0-175.9,0-263.8,0c7.7-6.75,16.4-13.87,26.4-20.9C108,133.82,125,124.6,140,117.75
			c47,1.28,94,2.56,141,3.83c8.5,4.29,21.1,11.87,32.5,24.74C320.2,153.71,324.7,161.11,327.7,167.13z"/>
		<path class="st17" d="M360.2,845.15c-8.1,0-16.2,0-24.4,0c0.3-206.11,0.7-412.13,1-618.23c8.5,0.91,16.9,1.92,25.4,2.83
			C361.6,434.94,360.9,640.05,360.2,845.15z"/>
		<rect x="369.3" y="190.86" class="st18" width="77.1" height="61.7"/>
		<rect x="369.3" y="252.57" class="st19" width="77.1" height="683.68"/>
		<path class="st2" d="M221.2,938.17H98.4c1.5-9.86,2.7-25.83-2-44.64c-5.3-21.18-15.7-36.33-22.3-44.64
			c50.1-1.28,100.1-2.56,150.2-3.83C223.2,876.19,222.2,907.13,221.2,938.17z"/>
	</g>
	<g>
		<path class="st0" d="M1689.8,920.18c22.2-0.64,55.1-1.19,95.4,0c41.3,1.19,57.5,3.19,67-6.66c19.2-19.9-7.4-68.92-15.2-82.61
			c-49.1,1.55-98.1,3.19-147.1,4.75v84.52H1689.8z"/>
		<rect x="1454.4" y="171.88" class="st1" width="91.3" height="751.14"/>
		<path class="st2" d="M1540.6,189.95c14.2-6.66,28.4-13.33,42.6-19.99v-20.9c-18.9,6.94-37.9,13.97-56.8,20.9
			C1531.2,176.63,1535.9,183.29,1540.6,189.95z"/>
		<path class="st3" d="M1568,827.08c81.2-0.27,162.4-0.64,243.6-0.91c3-207.66,6.1-415.32,9.1-622.98
			c-86.6,1.92-173.2,3.83-259.8,5.66C1563.3,414.95,1565.7,621.06,1568,827.08z"/>
		<path class="st4" d="M1545.3,923.93c48.2-1.28,96.3-2.56,144.5-3.83c-1.1-31.03-2.2-62.07-3.3-93.1h-141.2
			c-3.5,14.7-6.3,33.41-5.6,55.04C1540.2,898.09,1542.5,912.15,1545.3,923.93z"/>
		<path class="st5" d="M1557.9,923.93c44-1.28,87.9-2.56,131.9-3.83c-1-31.03-2-62.07-3-93.1h-128.9c-3.2,14.7-5.7,33.41-5.1,55.04
			C1553.3,898.09,1555.3,912.15,1557.9,923.93z"/>
		<path class="st6" d="M1574.1,208.94c80.5-1.92,161-3.83,241.5-5.66c9.5-12.05,18.9-24.1,28.4-36.06
			c-89,0.37-177.9,0.64-266.9,0.91C1576.2,181.74,1575.1,195.34,1574.1,208.94z"/>
		<path class="st7" d="M1548.8,211.77c8.1-0.91,16.2-1.92,24.3-2.83c0.7-11.04,1.3-22.18,2-33.23c-9.8,4.11-19.6,8.22-29.4,12.32
			C1546.7,195.88,1547.7,203.83,1548.8,211.77z"/>
		<path class="st8" d="M1577.2,168.04c91.7,0,183.3,0,275,0c0.3-0.46,3.4-5.11,1-10.41c-2.2-5.11-7.5-6.48-8.1-6.66
			c-87.9,0-175.9,0-263.8,0C1579.9,156.63,1578.5,162.39,1577.2,168.04z"/>
		<path class="st9" d="M1628.9,103.51c41.3-1.28,82.5-2.56,123.8-3.83c-3.4-9.22-6.8-18.35-10.2-27.57
			c-32.1,0.64-64.3,1.28-96.4,1.92C1640.4,83.89,1634.7,93.65,1628.9,103.51z"/>
		<path class="st10" d="M1633,75.94c43.6-0.64,87.3-1.28,130.9-1.92c0.4-5.11,0.5-10.86,0-17.07c-1-12.96-4-23.92-7.1-32.31
			c-40.6,0-81.2,0-121.8,0C1634.3,41.81,1633.7,58.88,1633,75.94z"/>
		<path class="st11" d="M1582.3,100.68c17.9-7.58,35.8-15.15,53.8-22.82c0.3-18.35,0.7-36.69,1-55.04
			c-24.7,16.16-49.4,32.31-74.1,48.47c-0.7,2.83-1.3,5.66-2,8.58C1568,86.72,1575.1,93.65,1582.3,100.68z"/>
		<path class="st12" d="M1560.9,79.78c25.4-18.99,50.7-37.97,76.1-56.96c-5.4-7.58-10.8-15.24-16.2-22.82
			c-22.3,20.54-44.7,41.17-67,61.7C1556.2,67.73,1558.6,73.75,1560.9,79.78z"/>
		<path class="st13" d="M1635,24.65c40.6,0,81.2,0,121.8,0c-8.1-8.22-16.2-16.43-24.3-24.65c-37.2,0-74.4,0-111.6,0
			c-0.3,2.37-0.5,6.21,1,10.41C1624.9,19.44,1632.9,23.64,1635,24.65z"/>
		<path class="st14" d="M1590,116.84c13-4.11,26-8.22,39-12.32c4.7-9.49,9.4-18.99,14.1-28.48c-21.3,8.58-42.6,17.07-63.9,25.65
			C1582.8,106.71,1586.4,111.73,1590,116.84z"/>
		<path class="st15" d="M1526.4,169.96c18.3-6.66,36.5-13.33,54.8-19.99c15.9-15.52,31.8-31.03,47.7-46.55
			c-12.8,4.11-25.7,8.22-38.6,12.32C1569.1,133.91,1547.7,151.89,1526.4,169.96z"/>
		<path class="st16" d="M1583.3,149.06c87.9,0,175.9,0,263.8,0c-7.7-6.75-16.4-13.87-26.4-20.9c-17.7-12.41-34.7-21.63-49.7-28.48
			c-47,1.28-94,2.56-141.1,3.83c-8.5,4.29-21.1,11.87-32.5,24.74C1590.8,135.73,1586.3,143.03,1583.3,149.06z"/>
		<path class="st17" d="M1550.8,827.08c8.1,0,16.2,0,24.3,0c-0.3-206.11-0.7-412.13-1-618.23c-8.5,0.91-16.9,1.92-25.4,2.83
			C1549.4,416.87,1550.1,621.98,1550.8,827.08z"/>
		<rect x="1464.5" y="172.79" class="st18" width="77.1" height="61.7"/>
		<rect x="1464.5" y="234.59" class="st19" width="77.1" height="683.68"/>
		<path class="st2" d="M1689.8,920.18h122.8c-1.5-9.86-2.7-25.83,2-44.64c5.3-21.18,15.7-36.33,22.3-44.64
			c-50.1-1.28-100.1-2.56-150.2-3.83C1687.8,858.11,1688.8,889.15,1689.8,920.18z"/>
	</g>
	<g>
		<rect x="465.8" y="207.93" class="st20" width="32.5" height="704.58"/>
		<path class="st20" d="M920.3,120.58c-58.3,4.84-135.7,16.61-222.2,45.55c-85.1,28.48-151.9,64.53-199.9,94.93
			c0-14.88,0-29.76,0-44.64c47.3-28.66,110.4-61.07,188.7-87.35c90.6-30.4,171.9-42.63,233.4-47.47
			C920.3,94.66,920.3,107.62,920.3,120.58z"/>
		<rect x="914.3" y="68.37" class="st20" width="31.5" height="855.56"/>
		<rect x="498.2" y="777.7" class="st20" width="422.1" height="27.57"/>
		<rect x="498.2" y="860.31" class="st20" width="422.1" height="20.9"/>
		<path class="st20" d="M914.3,237.42c-69.5,8.58-158.4,26.2-255.7,63.62c-63.1,24.28-116.6,51.76-160.3,77.86
			c-0.7-26.29-1.4-52.58-2-78.87c19.1-5.48,48.8-14.6,84.2-28.48c55.7-21.82,67.8-32.77,117.7-50.29
			c13.4-4.75,49.7-16.98,98.4-26.56c46.4-9.13,86.8-12.32,117.7-13.33C914.3,200.08,914.3,218.7,914.3,237.42z"/>
		<rect x="849.3" y="121.58" class="st20" width="15.2" height="749.22"/>
		<rect x="783.4" y="121.58" class="st20" width="15.2" height="749.22"/>
		<rect x="702.2" y="125.33" class="st20" width="15.2" height="749.22"/>
		<rect x="640.3" y="169.05" class="st20" width="15.2" height="705.59"/>
		<rect x="567.2" y="193.69" class="st20" width="15.2" height="685.6"/>
	</g>
	<g>
		<rect x="1411.5" y="207.93" class="st20" width="32.5" height="704.58"/>
		<path class="st20" d="M989.4,120.58c58.3,4.84,135.7,16.61,222.2,45.55c85.1,28.48,151.9,64.53,199.9,94.93
			c0-14.88,0-29.76,0-44.64c-47.3-28.66-110.4-61.07-188.7-87.35c-90.6-30.4-171.9-42.63-233.4-47.47
			C989.4,94.66,989.4,107.62,989.4,120.58z"/>
		<rect x="964" y="68.37" class="st20" width="31.5" height="855.56"/>
		<rect x="989.4" y="777.7" class="st20" width="422.1" height="27.57"/>
		<rect x="989.4" y="860.31" class="st20" width="422.1" height="20.9"/>
		<path class="st20" d="M995.5,237.42c69.5,8.58,158.4,26.2,255.7,63.62c63.1,24.28,116.6,51.76,160.3,77.86
			c0.7-26.29,1.3-52.58,2-78.87c-19.1-5.48-48.8-14.6-84.2-28.48c-55.7-21.82-67.8-32.77-117.7-50.29
			c-13.4-4.75-49.7-16.98-98.4-26.56c-46.4-9.13-86.8-12.32-117.7-13.33C995.5,200.08,995.5,218.7,995.5,237.42z"/>
		<rect x="1045.2" y="121.58" class="st20" width="15.2" height="749.22"/>
		<rect x="1111.1" y="121.58" class="st20" width="15.2" height="749.22"/>
		<rect x="1192.3" y="125.33" class="st20" width="15.2" height="749.22"/>
		<rect x="1254.2" y="169.05" class="st20" width="15.2" height="705.59"/>
		<rect x="1327.3" y="193.69" class="st20" width="15.2" height="685.6"/>
	</g>
	<rect x="1629.7" y="265.9" class="st21" width="138" height="226.01"/>
	<g>
		<rect x="1656.6" y="334.36" class="st22" width="23.3" height="15.43"/>
		<rect x="1686.3" y="334.36" class="st22" width="23.3" height="15.43"/>
		<rect x="1717.9" y="334.36" class="st22" width="23.3" height="15.43"/>
		<rect x="1717.9" y="355.53" class="st22" width="23.3" height="15.43"/>
		<rect x="1686.3" y="355.53" class="st22" width="23.3" height="15.43"/>
		<rect x="1656.6" y="355.53" class="st22" width="23.3" height="15.43"/>
		<rect x="1656.6" y="376.62" class="st22" width="23.3" height="15.43"/>
		<rect x="1687.2" y="376.62" class="st22" width="23.3" height="15.43"/>
		<rect x="1717.9" y="376.62" class="st22" width="23.3" height="15.43"/>
		<rect x="1717.9" y="397.34" class="st22" width="23.3" height="15.43"/>
		<rect x="1687.2" y="397.34" class="st22" width="23.3" height="15.43"/>
		<rect x="1656.6" y="397.34" class="st22" width="23.3" height="15.43"/>
	</g>
	<rect x="1650.2" y="279.13" class="st23" width="97.3" height="44.36"/>
	<rect x="1650.2" y="436.41" class="st24" width="35.6" height="23.55"/>
	<rect x="1711.9" y="436.41" class="st24" width="35.6" height="23.55"/>
</g>
<g>
	<g>
		<g>
			<path class="st25" d="M685.17,1026.16c-11.56,0-22.5-0.2-32.5-0.59c-12.4-0.4-23.11-2.38-31.82-5.91
				c-8.76-3.55-16.33-9-22.49-16.21c0,0-0.01-0.01-0.01-0.01c-7.35,6.32-14.53,12.18-21.33,17.41c-1.75,1.43-3.82,2.17-6.1,2.17
				c-0.77,0-1.55-0.08-2.34-0.23l-0.1-0.02c-3.18-0.8-5.53-2.66-6.97-5.54l-0.04-0.09l-0.03-0.09c-0.74-1.91-1.11-3.79-1.11-5.6
				c0-1.19,0.15-2.46,0.44-3.76c0.94-3.44,2.87-6.07,5.77-7.89c6.78-4.48,13.31-9.18,19.36-13.94c0.58-0.44,0.8-0.88,0.8-1.55v-43.9
				h-16.75c-2.89,0-5.4-1.05-7.47-3.13c-2.07-2.07-3.12-4.58-3.12-7.47c0-2.88,1.05-5.39,3.12-7.47c2.07-2.07,4.59-3.13,7.47-3.13
				h19.53c5.22,0,9.73,1.87,13.43,5.57c3.69,3.69,5.57,8.21,5.57,13.43v45.12c0,0.87,0.25,1.62,0.77,2.31
				c7.84,11.45,22.56,17.66,43.8,18.54c9.68,0.52,20.09,0.78,30.97,0.78c16.33,0,34.24-0.52,53.21-1.56
				c0.18-0.01,0.36-0.02,0.54-0.02c2.65,0,4.88,1.17,6.47,3.39c1.04,1.56,1.55,3.18,1.55,4.88c0,0.75-0.07,1.56-0.22,2.47
				l-0.02,0.14l-0.04,0.14c-1.03,3.24-2.83,5.89-5.35,7.89c-2.57,2.04-5.55,3.07-8.86,3.07
				C714.78,1025.9,699.25,1026.16,685.17,1026.16z M709.78,998.23c-2.7,0-5.1-0.88-7.15-2.62c-2.06-1.61-3.59-3.76-4.5-6.33
				c-0.71-2.31-0.4-4.57,0.87-6.61c1.27-2.03,3.17-3.1,5.49-3.1c0.16,0,0.31,0,0.47,0.01h4.52c1.1,0,2.25-0.03,3.41-0.09
				c1.29-0.07,2.14-0.1,2.55-0.1c0.47,0,0.71-0.06,0.81-0.1c0.04-0.12,0.12-0.42,0.12-1.03V966.2h-25.88v20.46
				c0,2.88-1.02,5.36-3.03,7.37c-2.01,2.01-4.49,3.03-7.37,3.03c-2.89,0-5.37-1.02-7.37-3.03c-2.01-2-3.03-4.48-3.03-7.37V966.2
				h-24.71v20.85c0,2.88-1.05,5.4-3.13,7.47c-2.07,2.07-4.62,3.13-7.57,3.13c-2.94,0-5.47-1.01-7.54-3
				c-2.09-2.01-3.15-4.56-3.15-7.59v-76.76c0-5.21,1.87-9.73,5.57-13.43c3.69-3.69,8.21-5.57,13.43-5.57h25.36
				c-5.74-2.66-11.61-5.23-17.53-7.67c-2.2-0.91-3.59-2.68-4.04-5.1c-0.46-2.48,0.35-4.67,2.36-6.3c2.97-2.38,6.15-3.58,9.47-3.58
				c1.93,0,3.87,0.37,5.79,1.11c5.63,2.1,11.24,4.34,16.67,6.67c0.37,0.15,0.74,0.23,1.07,0.23c0.27,0,0.52-0.06,0.77-0.18
				c5-2.6,9.92-5.52,14.67-8.71h-63.58c-2.5,0-4.68-0.92-6.49-2.74c-1.81-1.81-2.73-4.02-2.73-6.59c0-2.56,0.92-4.78,2.73-6.59
				c1.81-1.81,4-2.73,6.49-2.73h86.83l0.21-0.1l0.27-0.05c0.79-0.16,1.57-0.23,2.34-0.23c2.02,0,3.88,0.67,5.54,2l2.74,2.35
				c2.02,1.54,3.09,3.66,3.09,6.15c0,2.47-1,4.59-2.88,6.14c-9.18,7.81-19.16,14.79-29.66,20.74c3.01,1.45,5.87,2.96,8.5,4.5
				c0.84,0.47,1.74,0.7,2.7,0.7h5.66c5.22,0,9.73,1.87,13.43,5.57c3.69,3.69,5.57,8.21,5.57,13.43v68.16
				c0,4.75-0.53,8.28-1.64,10.77c-1.18,2.67-3.45,4.78-6.76,6.29c-3.97,1.7-10.35,2.58-19.55,2.72h-0.01H709.78z M716.38,948.33
				v-11.04h-25.88v11.04H716.38z M669.7,948.33v-11.04h-24.71v11.04H669.7z M716.38,919.62v-10.65h-25.88v10.65H716.38z
				 M669.7,919.62v-10.65h-24.71v10.65H669.7z M597.96,890.22c-3.06-0.16-5.58-1.46-7.51-3.87c-5.7-6.58-12.58-13.26-20.38-19.79
				c-2.42-1.79-3.69-4.36-3.69-7.43c0-2.69,1.09-4.98,3.25-6.8c2.1-1.95,4.76-3.05,7.83-3.21l0.69,0c2.79,0,5.3,0.87,7.48,2.57
				c8.35,6.26,15.53,12.58,21.32,18.76c2.06,2.38,3.08,4.99,3.08,7.81c0,3.56-1.33,6.61-3.95,9.07c-2.08,1.92-4.44,2.89-7.03,2.89
				L597.96,890.22z"/>
			<path class="st26" d="M685.17,1026.16c-11.56,0-22.5-0.2-32.5-0.59c-12.4-0.4-23.11-2.38-31.82-5.91
				c-8.76-3.55-16.33-9-22.49-16.21c0,0-0.01-0.01-0.01-0.01c-7.35,6.32-14.53,12.18-21.33,17.41c-1.75,1.43-3.82,2.17-6.1,2.17
				c-0.77,0-1.55-0.08-2.34-0.23l-0.1-0.02c-3.18-0.8-5.53-2.66-6.97-5.54l-0.04-0.09l-0.03-0.09c-0.74-1.91-1.11-3.79-1.11-5.6
				c0-1.19,0.15-2.46,0.44-3.76c0.94-3.44,2.87-6.07,5.77-7.89c6.78-4.48,13.31-9.18,19.36-13.94c0.58-0.44,0.8-0.88,0.8-1.55v-43.9
				h-16.75c-2.89,0-5.4-1.05-7.47-3.13c-2.07-2.07-3.12-4.58-3.12-7.47c0-2.88,1.05-5.39,3.12-7.47c2.07-2.07,4.59-3.13,7.47-3.13
				h19.53c5.22,0,9.73,1.87,13.43,5.57c3.69,3.69,5.57,8.21,5.57,13.43v45.12c0,0.87,0.25,1.62,0.77,2.31
				c7.84,11.45,22.56,17.66,43.8,18.54c9.68,0.52,20.09,0.78,30.97,0.78c16.33,0,34.24-0.52,53.21-1.56
				c0.18-0.01,0.36-0.02,0.54-0.02c2.65,0,4.88,1.17,6.47,3.39c1.04,1.56,1.55,3.18,1.55,4.88c0,0.75-0.07,1.56-0.22,2.47
				l-0.02,0.14l-0.04,0.14c-1.03,3.24-2.83,5.89-5.35,7.89c-2.57,2.04-5.55,3.07-8.86,3.07
				C714.78,1025.9,699.25,1026.16,685.17,1026.16z M709.78,998.23c-2.7,0-5.1-0.88-7.15-2.62c-2.06-1.61-3.59-3.76-4.5-6.33
				c-0.71-2.31-0.4-4.57,0.87-6.61c1.27-2.03,3.17-3.1,5.49-3.1c0.16,0,0.31,0,0.47,0.01h4.52c1.1,0,2.25-0.03,3.41-0.09
				c1.29-0.07,2.14-0.1,2.55-0.1c0.47,0,0.71-0.06,0.81-0.1c0.04-0.12,0.12-0.42,0.12-1.03V966.2h-25.88v20.46
				c0,2.88-1.02,5.36-3.03,7.37c-2.01,2.01-4.49,3.03-7.37,3.03c-2.89,0-5.37-1.02-7.37-3.03c-2.01-2-3.03-4.48-3.03-7.37V966.2
				h-24.71v20.85c0,2.88-1.05,5.4-3.13,7.47c-2.07,2.07-4.62,3.13-7.57,3.13c-2.94,0-5.47-1.01-7.54-3
				c-2.09-2.01-3.15-4.56-3.15-7.59v-76.76c0-5.21,1.87-9.73,5.57-13.43c3.69-3.69,8.21-5.57,13.43-5.57h25.36
				c-5.74-2.66-11.61-5.23-17.53-7.67c-2.2-0.91-3.59-2.68-4.04-5.1c-0.46-2.48,0.35-4.67,2.36-6.3c2.97-2.38,6.15-3.58,9.47-3.58
				c1.93,0,3.87,0.37,5.79,1.11c5.63,2.1,11.24,4.34,16.67,6.67c0.37,0.15,0.74,0.23,1.07,0.23c0.27,0,0.52-0.06,0.77-0.18
				c5-2.6,9.92-5.52,14.67-8.71h-63.58c-2.5,0-4.68-0.92-6.49-2.74c-1.81-1.81-2.73-4.02-2.73-6.59c0-2.56,0.92-4.78,2.73-6.59
				c1.81-1.81,4-2.73,6.49-2.73h86.83l0.21-0.1l0.27-0.05c0.79-0.16,1.57-0.23,2.34-0.23c2.02,0,3.88,0.67,5.54,2l2.74,2.35
				c2.02,1.54,3.09,3.66,3.09,6.15c0,2.47-1,4.59-2.88,6.14c-9.18,7.81-19.16,14.79-29.66,20.74c3.01,1.45,5.87,2.96,8.5,4.5
				c0.84,0.47,1.74,0.7,2.7,0.7h5.66c5.22,0,9.73,1.87,13.43,5.57c3.69,3.69,5.57,8.21,5.57,13.43v68.16
				c0,4.75-0.53,8.28-1.64,10.77c-1.18,2.67-3.45,4.78-6.76,6.29c-3.97,1.7-10.35,2.58-19.55,2.72h-0.01H709.78z M716.38,948.33
				v-11.04h-25.88v11.04H716.38z M669.7,948.33v-11.04h-24.71v11.04H669.7z M716.38,919.62v-10.65h-25.88v10.65H716.38z
				 M669.7,919.62v-10.65h-24.71v10.65H669.7z M597.96,890.22c-3.06-0.16-5.58-1.46-7.51-3.87c-5.7-6.58-12.58-13.26-20.38-19.79
				c-2.42-1.79-3.69-4.36-3.69-7.43c0-2.69,1.09-4.98,3.25-6.8c2.1-1.95,4.76-3.05,7.83-3.21l0.69,0c2.79,0,5.3,0.87,7.48,2.57
				c8.35,6.26,15.53,12.58,21.32,18.76c2.06,2.38,3.08,4.99,3.08,7.81c0,3.56-1.33,6.61-3.95,9.07c-2.08,1.92-4.44,2.89-7.03,2.89
				L597.96,890.22z"/>
		</g>
		<g>
			<path class="st25" d="M779.31,1029.29c-3.01,0-5.62-1.08-7.76-3.22c-2.14-2.14-3.22-4.75-3.22-7.76V868.69
				c0-5.21,1.87-9.73,5.57-13.43c3.69-3.69,8.21-5.57,13.43-5.57h40.43c5.22,0,9.73,1.87,13.43,5.57c3.69,3.69,5.57,8.21,5.57,13.43
				v32.42c0,4.19-1.48,7.76-4.41,10.61c-2.27,2.22-4.88,3.58-7.77,4.07c0.01,0.02,0.01,0.04,0.02,0.06c0.4,1.62,0.09,3.2-0.9,4.58
				l-0.06,0.08c-4.55,5.72-8.33,10.23-11.22,13.39c-0.04,0.05-0.07,0.09-0.1,0.13c0.01,0.01,0.02,0.02,0.04,0.04
				c1.34,1.35,2.39,2.44,3.18,3.34c2.72-3.11,5.11-5.99,7.1-8.61c1.33-1.66,2.98-2.77,4.93-3.34c0.83-0.24,1.65-0.36,2.46-0.36
				c1.17,0,2.32,0.25,3.42,0.75c1.93,0.97,3.1,2.5,3.48,4.47c0.38,2-0.13,3.79-1.48,5.16c-2.86,3.21-5.57,6.18-8.11,8.9
				c0.05-0.02,0.11-0.04,0.17-0.06c0.99-0.33,1.99-0.49,2.98-0.49c2.74,0,5.08,1.32,6.74,3.82c1.9,2.94,3.59,5.87,5.05,8.77
				c1.11-1.21,2.56-1.84,4.23-1.84h0.69c0.06-0.02,0.09-0.04,0.09-0.04c0.67-0.58,2.26-2.07,6.4-6.21c0,0,0.15-0.14,0.17-0.16
				c-3.54-4.16-7.83-8.37-12.74-12.53c-1.47-1.28-2.28-2.95-2.37-4.85c-0.09-1.92,0.55-3.62,1.85-4.92l0.09-0.08
				c1.52-1.35,3.25-2.07,5.14-2.16c0.13-0.01,0.25-0.01,0.37-0.01c1.67,0,3.21,0.5,4.59,1.5c2.55-3.68,4.63-6.81,6.2-9.36
				c-2.01-0.43-3.81-1.43-5.35-2.97c-2.14-2.14-3.22-4.75-3.22-7.76v-36.33c0-5.21,1.87-9.73,5.57-13.43
				c3.69-3.69,8.21-5.57,13.43-5.57h41.8c5.22,0,9.73,1.87,13.43,5.57c3.69,3.69,5.57,8.21,5.57,13.43v136.33
				c0,5.37-0.55,9.44-1.69,12.43c-1.22,3.2-3.52,5.67-6.83,7.33c-3.91,2.09-10.07,3.26-18.8,3.53l-0.45,0
				c-2.95,0-5.63-1.02-7.95-3.03c-2.48-2.04-4.21-4.6-5.1-7.58l-0.03-0.09l-0.02-0.09c-0.16-0.78-0.23-1.57-0.23-2.35
				c0-1.85,0.58-3.61,1.73-5.25c1.68-2.35,4.06-3.59,6.91-3.59c2.85,0.13,5.87,0.19,9.08,0.2c1.12-0.12,1.41-0.38,1.42-0.39l0,0
				c0,0,0.2-0.3,0.2-1.32V916h-32.22c0.23,1.4-0.09,2.69-0.93,3.74c-4.56,5.73-8.59,10.56-11.99,14.34
				c-0.05,0.06-0.08,0.1-0.11,0.14c0.01,0.01,1.97,1.97,3.2,3.2c3.12-3.5,5.5-6.33,7.11-8.43l0.09-0.11
				c1.29-1.46,2.96-2.48,4.96-3.04c0.78-0.22,1.55-0.33,2.3-0.33c1.28,0,2.52,0.31,3.69,0.93c1.88,0.79,3.07,2.26,3.45,4.27
				c0.37,1.97-0.12,3.81-1.44,5.31c-5.84,6.41-11.54,12.28-17,17.53c1.19-0.07,2.51-0.15,3.95-0.23c2.22-0.13,4.11-0.21,5.62-0.26
				c-0.22-0.39-0.44-0.74-0.63-1.03c-0.72-1.15-1.35-2.97-0.39-5.37c0.78-1.75,2.07-2.87,3.77-3.31c1.11-0.46,2.08-0.68,2.97-0.68
				c2.89,0,5.3,1.41,6.97,4.06c3.28,5,5.91,9.84,7.77,14.36c0.74,2.03,0.65,3.96-0.24,5.82c-0.89,1.86-2.38,3.15-4.44,3.85
				c-0.8,0.31-1.61,0.47-2.43,0.47c-1.03,0-2.07-0.25-3.07-0.76c-1.63-0.81-2.82-2.03-3.55-3.63c-4.87,0.38-11.54,0.85-19.84,1.4
				c-2.05,0.13-3.95,0.26-5.72,0.38c0.76,0.4,1.47,0.93,2.12,1.58c1.69,1.69,2.54,3.74,2.54,6.1v12.45h12.21v-9.72
				c0-2.21,0.78-4.15,2.3-5.77c1.56-1.65,3.5-2.48,5.75-2.48c2.23,0,4.18,0.82,5.81,2.44c1.62,1.63,2.44,3.58,2.44,5.81v8.2
				c0,4.58-1.65,8.51-4.9,11.68c-3.24,3.16-7.12,4.77-11.55,4.77h-12.06v13.23c0,2.38-0.87,4.41-2.57,6.04
				c-1.68,1.6-3.72,2.41-6.07,2.41c-2.36,0-4.38-0.82-6-2.44c-1.62-1.62-2.44-3.64-2.44-6v-40.63c0-2.34,0.81-4.38,2.41-6.06
				c0.36-0.38,0.75-0.72,1.15-1.02c-1.59,0.11-2.95,0.2-4.07,0.28c-0.19,0.03-0.37,0.04-0.54,0.04c-0.76,0-1.44-0.24-1.99-0.67
				l-4.53,1.65c0.04,0.23,0.06,0.46,0.06,0.71v16.8c0,4-0.27,7.56-0.81,10.6c-0.55,3.08-1.58,6.33-3.07,9.65
				c-1.55,3.45-4.02,6.64-7.36,9.49c-3.26,2.78-7.29,5.28-11.99,7.43c-1.33,0.57-2.65,0.85-3.96,0.85c-0.99,0-1.98-0.16-2.96-0.47
				c-2.19-0.7-4.08-2.06-5.62-4.05c-1.45-1.66-1.92-3.66-1.37-5.78c0.55-2.11,1.84-3.63,3.73-4.38c4.98-2.07,8.85-4.65,11.51-7.67
				h-6.48c-4.43,0-8.32-1.6-11.56-4.77c-3.25-3.17-4.9-7.1-4.9-11.68v-8.4c0-2.23,0.79-4.16,2.34-5.71
				c1.56-1.56,3.48-2.34,5.71-2.34s4.16,0.79,5.71,2.34c1.56,1.55,2.34,3.48,2.34,5.71v9.91h11.82v-9.52c0-3.42,1.13-6.23,3.35-8.37
				c1.84-1.78,4.04-2.82,6.54-3.11c-0.06-0.16-0.21-0.55-0.21-0.55l-0.02-0.08c-0.06-0.21-0.13-0.31-0.15-0.34c0,0,0,0,0,0
				c-0.01,0-0.06-0.01-0.13-0.01c-0.05,0-0.09,0-0.14,0.01c-8.13,0.79-20.04,1.64-35.43,2.54c-0.17,0.02-0.39,0.03-0.62,0.03
				c-1.71,0-3.28-0.59-4.68-1.76c-1.57-1.31-2.46-3.02-2.66-5.08c-0.34-1.99,0.2-3.85,1.56-5.39c1.32-1.5,2.98-2.35,4.93-2.52
				l0.11-0.01l5.13-0.19c0.31-0.07,0.56-0.19,0.76-0.4c1.94-1.81,3.87-3.68,5.81-5.61c0.09-0.1,0.14-0.18,0.17-0.24
				c-0.01-0.01-0.02-0.02-0.03-0.03c-3.56-4.32-7.73-8.36-12.41-12.03l-0.08-0.07c-1.43-1.25-2.25-2.81-2.43-4.63
				c-0.19-1.89,0.41-3.6,1.75-4.93c1.37-1.37,3-2.16,4.84-2.34c0.26-0.02,0.52-0.04,0.77-0.04c1.41,0,2.75,0.38,3.99,1.12
				c2.48-3.41,4.58-6.48,6.31-9.2h-28.3v102.3c0,3-1.04,5.6-3.1,7.73C784.93,1028.19,782.34,1029.29,779.31,1029.29z M833.61,948.29
				c-1.77,1.84-3.44,3.53-5.02,5.08l5.69-0.39l-0.07-0.12C833.37,951.36,833.16,949.79,833.61,948.29z M916.38,899.11V891h-36.43
				v8.11H916.38z M825.36,899.11V891H790.1v8.11H825.36z M916.38,875.29v-8.5h-36.43v8.5H916.38z M825.36,875.29v-8.5H790.1v8.5
				H825.36z"/>
			<path class="st26" d="M779.31,1029.29c-3.01,0-5.62-1.08-7.76-3.22c-2.14-2.14-3.22-4.75-3.22-7.76V868.69
				c0-5.21,1.87-9.73,5.57-13.43c3.69-3.69,8.21-5.57,13.43-5.57h40.43c5.22,0,9.73,1.87,13.43,5.57c3.69,3.69,5.57,8.21,5.57,13.43
				v32.42c0,4.19-1.48,7.76-4.41,10.61c-2.27,2.22-4.88,3.58-7.77,4.07c0.01,0.02,0.01,0.04,0.02,0.06c0.4,1.62,0.09,3.2-0.9,4.58
				l-0.06,0.08c-4.55,5.72-8.33,10.23-11.22,13.39c-0.04,0.05-0.07,0.09-0.1,0.13c0.01,0.01,0.02,0.02,0.04,0.04
				c1.34,1.35,2.39,2.44,3.18,3.34c2.72-3.11,5.11-5.99,7.1-8.61c1.33-1.66,2.98-2.77,4.93-3.34c0.83-0.24,1.65-0.36,2.46-0.36
				c1.17,0,2.32,0.25,3.42,0.75c1.93,0.97,3.1,2.5,3.48,4.47c0.38,2-0.13,3.79-1.48,5.16c-2.86,3.21-5.57,6.18-8.11,8.9
				c0.05-0.02,0.11-0.04,0.17-0.06c0.99-0.33,1.99-0.49,2.98-0.49c2.74,0,5.08,1.32,6.74,3.82c1.9,2.94,3.59,5.87,5.05,8.77
				c1.11-1.21,2.56-1.84,4.23-1.84h0.69c0.06-0.02,0.09-0.04,0.09-0.04c0.67-0.58,2.26-2.07,6.4-6.21c0,0,0.15-0.14,0.17-0.16
				c-3.54-4.16-7.83-8.37-12.74-12.53c-1.47-1.28-2.28-2.95-2.37-4.85c-0.09-1.92,0.55-3.62,1.85-4.92l0.09-0.08
				c1.52-1.35,3.25-2.07,5.14-2.16c0.13-0.01,0.25-0.01,0.37-0.01c1.67,0,3.21,0.5,4.59,1.5c2.55-3.68,4.63-6.81,6.2-9.36
				c-2.01-0.43-3.81-1.43-5.35-2.97c-2.14-2.14-3.22-4.75-3.22-7.76v-36.33c0-5.21,1.87-9.73,5.57-13.43
				c3.69-3.69,8.21-5.57,13.43-5.57h41.8c5.22,0,9.73,1.87,13.43,5.57c3.69,3.69,5.57,8.21,5.57,13.43v136.33
				c0,5.37-0.55,9.44-1.69,12.43c-1.22,3.2-3.52,5.67-6.83,7.33c-3.91,2.09-10.07,3.26-18.8,3.53l-0.45,0
				c-2.95,0-5.63-1.02-7.95-3.03c-2.48-2.04-4.21-4.6-5.1-7.58l-0.03-0.09l-0.02-0.09c-0.16-0.78-0.23-1.57-0.23-2.35
				c0-1.85,0.58-3.61,1.73-5.25c1.68-2.35,4.06-3.59,6.91-3.59c2.85,0.13,5.87,0.19,9.08,0.2c1.12-0.12,1.41-0.38,1.42-0.39l0,0
				c0,0,0.2-0.3,0.2-1.32V916h-32.22c0.23,1.4-0.09,2.69-0.93,3.74c-4.56,5.73-8.59,10.56-11.99,14.34
				c-0.05,0.06-0.08,0.1-0.11,0.14c0.01,0.01,1.97,1.97,3.2,3.2c3.12-3.5,5.5-6.33,7.11-8.43l0.09-0.11
				c1.29-1.46,2.96-2.48,4.96-3.04c0.78-0.22,1.55-0.33,2.3-0.33c1.28,0,2.52,0.31,3.69,0.93c1.88,0.79,3.07,2.26,3.45,4.27
				c0.37,1.97-0.12,3.81-1.44,5.31c-5.84,6.41-11.54,12.28-17,17.53c1.19-0.07,2.51-0.15,3.95-0.23c2.22-0.13,4.11-0.21,5.62-0.26
				c-0.22-0.39-0.44-0.74-0.63-1.03c-0.72-1.15-1.35-2.97-0.39-5.37c0.78-1.75,2.07-2.87,3.77-3.31c1.11-0.46,2.08-0.68,2.97-0.68
				c2.89,0,5.3,1.41,6.97,4.06c3.28,5,5.91,9.84,7.77,14.36c0.74,2.03,0.65,3.96-0.24,5.82c-0.89,1.86-2.38,3.15-4.44,3.85
				c-0.8,0.31-1.61,0.47-2.43,0.47c-1.03,0-2.07-0.25-3.07-0.76c-1.63-0.81-2.82-2.03-3.55-3.63c-4.87,0.38-11.54,0.85-19.84,1.4
				c-2.05,0.13-3.95,0.26-5.72,0.38c0.76,0.4,1.47,0.93,2.12,1.58c1.69,1.69,2.54,3.74,2.54,6.1v12.45h12.21v-9.72
				c0-2.21,0.78-4.15,2.3-5.77c1.56-1.65,3.5-2.48,5.75-2.48c2.23,0,4.18,0.82,5.81,2.44c1.62,1.63,2.44,3.58,2.44,5.81v8.2
				c0,4.58-1.65,8.51-4.9,11.68c-3.24,3.16-7.12,4.77-11.55,4.77h-12.06v13.23c0,2.38-0.87,4.41-2.57,6.04
				c-1.68,1.6-3.72,2.41-6.07,2.41c-2.36,0-4.38-0.82-6-2.44c-1.62-1.62-2.44-3.64-2.44-6v-40.63c0-2.34,0.81-4.38,2.41-6.06
				c0.36-0.38,0.75-0.72,1.15-1.02c-1.59,0.11-2.95,0.2-4.07,0.28c-0.19,0.03-0.37,0.04-0.54,0.04c-0.76,0-1.44-0.24-1.99-0.67
				l-4.53,1.65c0.04,0.23,0.06,0.46,0.06,0.71v16.8c0,4-0.27,7.56-0.81,10.6c-0.55,3.08-1.58,6.33-3.07,9.65
				c-1.55,3.45-4.02,6.64-7.36,9.49c-3.26,2.78-7.29,5.28-11.99,7.43c-1.33,0.57-2.65,0.85-3.96,0.85c-0.99,0-1.98-0.16-2.96-0.47
				c-2.19-0.7-4.08-2.06-5.62-4.05c-1.45-1.66-1.92-3.66-1.37-5.78c0.55-2.11,1.84-3.63,3.73-4.38c4.98-2.07,8.85-4.65,11.51-7.67
				h-6.48c-4.43,0-8.32-1.6-11.56-4.77c-3.25-3.17-4.9-7.1-4.9-11.68v-8.4c0-2.23,0.79-4.16,2.34-5.71
				c1.56-1.56,3.48-2.34,5.71-2.34s4.16,0.79,5.71,2.34c1.56,1.55,2.34,3.48,2.34,5.71v9.91h11.82v-9.52c0-3.42,1.13-6.23,3.35-8.37
				c1.84-1.78,4.04-2.82,6.54-3.11c-0.06-0.16-0.21-0.55-0.21-0.55l-0.02-0.08c-0.06-0.21-0.13-0.31-0.15-0.34c0,0,0,0,0,0
				c-0.01,0-0.06-0.01-0.13-0.01c-0.05,0-0.09,0-0.14,0.01c-8.13,0.79-20.04,1.64-35.43,2.54c-0.17,0.02-0.39,0.03-0.62,0.03
				c-1.71,0-3.28-0.59-4.68-1.76c-1.57-1.31-2.46-3.02-2.66-5.08c-0.34-1.99,0.2-3.85,1.56-5.39c1.32-1.5,2.98-2.35,4.93-2.52
				l0.11-0.01l5.13-0.19c0.31-0.07,0.56-0.19,0.76-0.4c1.94-1.81,3.87-3.68,5.81-5.61c0.09-0.1,0.14-0.18,0.17-0.24
				c-0.01-0.01-0.02-0.02-0.03-0.03c-3.56-4.32-7.73-8.36-12.41-12.03l-0.08-0.07c-1.43-1.25-2.25-2.81-2.43-4.63
				c-0.19-1.89,0.41-3.6,1.75-4.93c1.37-1.37,3-2.16,4.84-2.34c0.26-0.02,0.52-0.04,0.77-0.04c1.41,0,2.75,0.38,3.99,1.12
				c2.48-3.41,4.58-6.48,6.31-9.2h-28.3v102.3c0,3-1.04,5.6-3.1,7.73C784.93,1028.19,782.34,1029.29,779.31,1029.29z M833.61,948.29
				c-1.77,1.84-3.44,3.53-5.02,5.08l5.69-0.39l-0.07-0.12C833.37,951.36,833.16,949.79,833.61,948.29z M916.38,899.11V891h-36.43
				v8.11H916.38z M825.36,899.11V891H790.1v8.11H825.36z M916.38,875.29v-8.5h-36.43v8.5H916.38z M825.36,875.29v-8.5H790.1v8.5
				H825.36z"/>
		</g>
		<g>
			<path class="st25" d="M993.96,1029.29c-3.16,0-5.84-1.13-7.98-3.35c-2.12-2.2-3.2-4.84-3.2-7.83v-39.84c0-3,1.08-5.63,3.2-7.83
				c2.14-2.22,4.8-3.35,7.89-3.35c3.07,0,5.75,1.12,7.96,3.32c2.21,2.21,3.32,4.85,3.32,7.86v21.63h35.84v-31.98
				c0-3.14,1.12-5.85,3.32-8.05c0.85-0.85,1.77-1.53,2.76-2.05h-5.83c-9.06,0-15.5-0.81-19.69-2.49c-0.41-0.16-0.78-0.25-1.11-0.25
				c-0.27,0-0.53,0.06-0.77,0.18l-0.1,0.05c-12.12,5.21-25.2,9.97-38.88,14.14l-0.07,0.02l-0.07,0.02c-1.3,0.29-2.56,0.44-3.76,0.44
				c-1.67,0-3.34-0.3-4.98-0.9c-3.01-1.2-5.42-3.08-7.2-5.61c-1.03-1.54-1.54-3.17-1.54-4.86c0-0.88,0.17-1.76,0.5-2.62
				c0.87-2.7,2.77-4.49,5.5-5.18c14.94-3.86,28.91-8.5,41.51-13.77c0.36-0.16,0.53-0.33,0.53-0.89v-29.69c0-2.74,1.01-5.18,3-7.25
				c2.01-2.09,4.5-3.15,7.4-3.15c2.89,0,5.38,1.06,7.4,3.15c1.99,2.08,3,4.51,3,7.25v20.67c19.45-10.13,35.22-22.18,46.87-35.84
				c1.96-2.26,4.4-3.79,7.26-4.54c1.05-0.3,2.16-0.46,3.25-0.46c1.84,0,3.63,0.39,5.32,1.15c2.62,1.15,4.37,3.25,5.03,6.05
				c0.66,2.82,0.04,5.45-1.79,7.61c-11.88,13.95-27.42,26.75-46.24,38.11h25.77c3.72,0,5.31-0.73,5.98-1.34
				c0.57-0.51,1.6-2.01,2.19-6.31c0.34-2.42,1.65-4.36,3.79-5.64c1.21-0.73,2.5-1.1,3.83-1.1c1.02,0,2.06,0.22,3.1,0.66
				c2.56,0.92,4.7,2.53,6.36,4.78l0.08,0.11c1.11,1.76,1.68,3.69,1.68,5.76v1.75l-0.03,0.18c-1.41,7.61-3.92,12.7-7.69,15.58
				c-3.71,2.84-9.45,4.22-17.52,4.22h-21.46c0.99,0.52,1.91,1.21,2.76,2.05c2.21,2.21,3.32,4.92,3.32,8.06v31.98h38.19v-21.44
				c0-3.14,1.12-5.85,3.32-8.05c2.2-2.2,4.88-3.32,7.96-3.32c3.07,0,5.75,1.12,7.96,3.32c2.21,2.21,3.32,4.92,3.32,8.06v39.06
				c0,3.14-1.12,5.85-3.32,8.05c-2.21,2.21-4.85,3.32-7.86,3.32h-2.34c-2.49,0-4.65-0.89-6.39-2.64c-1.46-1.46-2.32-3.19-2.56-5.18
				h-96.92c-0.25,2.1-1.14,3.94-2.66,5.47c-1.82,1.82-4.07,2.74-6.69,2.74H993.96z M1133.02,947.06c-0.66,0-1.38-0.08-2.16-0.24
				c-2.83-0.63-5.12-2.05-6.84-4.24c-5.93-8.12-13.47-16.5-22.46-24.97c-1.83-1.66-2.78-3.74-2.78-6.14c0-3.02,1.33-5.42,3.84-6.95
				c2.01-1.38,4.35-2.08,6.95-2.08l0.69,0c2.94,0.16,5.46,1.19,7.5,3.07c9.53,8.49,17.49,16.79,23.66,24.65
				c1.33,1.84,1.99,3.87,1.99,6.12c0,0.65-0.08,1.31-0.24,1.97c-0.49,2.83-1.93,5.15-4.29,6.87
				C1136.94,946.42,1134.98,947.06,1133.02,947.06z M976.77,944.13c-3.01,0-5.75-0.91-8.16-2.69c-2.23-1.41-3.41-3.6-3.41-6.34
				c0-2.65,1.01-4.92,2.99-6.75c6.44-5.55,11.65-12.62,15.55-21.05c1.1-2.51,2.95-4.37,5.5-5.48c1.42-0.63,2.78-0.95,4.03-0.95
				c1.21,0,2.46,0.24,3.73,0.71c2.6,0.98,4.49,2.78,5.62,5.37c0.62,1.24,0.95,2.59,0.95,3.93c0,1.28-0.24,2.57-0.71,3.83
				c-4.82,11.11-10.76,19.88-17.72,26.17c-2.15,2-4.88,3.1-8.08,3.25l-0.05,0H976.77z M1054.84,907.28c-2.13,0-4.09-0.69-5.85-2.04
				c-6.33-4.43-13.61-8.71-21.55-12.69c-2.22-1.02-3.66-2.84-4.1-5.24c-0.43-2.31,0.05-4.44,1.42-6.32l0.07-0.09l0.08-0.08
				c0.87-0.95,1.83-1.72,2.87-2.31h-39.04v12.26c0,3.01-1.08,5.62-3.22,7.76c-2.14,2.14-4.78,3.22-7.86,3.22
				c-3.09,0-5.75-1.13-7.89-3.35c-2.12-2.2-3.2-4.77-3.2-7.64V876.7c0-5.21,1.87-9.73,5.57-13.43s8.21-5.57,13.43-5.57h55.23v-4.45
				c0-3.42,1.13-6.24,3.35-8.37c2.2-2.12,4.93-3.2,8.13-3.2c3.2,0,5.94,1.12,8.15,3.32c2.21,2.21,3.32,4.98,3.32,8.25v4.45h56.59
				c5.21,0,9.73,1.87,13.43,5.57s5.57,8.21,5.57,13.43v13.48c0,3.12-1.07,5.84-3.17,8.1c-2.14,2.3-4.9,3.47-8.2,3.47
				c-3.29,0-6.07-1.16-8.28-3.44c-2.19-2.26-3.29-4.99-3.29-8.13V878.5h-77.13c8.2,3.78,15.41,7.74,21.46,11.77
				c2.3,1.48,3.66,3.68,3.91,6.36c0.24,2.59-0.45,4.97-2.07,7.07c-1.68,2.02-3.83,3.18-6.42,3.5
				C1055.7,907.25,1055.26,907.28,1054.84,907.28z"/>
			<path class="st26" d="M993.96,1029.29c-3.16,0-5.84-1.13-7.98-3.35c-2.12-2.2-3.2-4.84-3.2-7.83v-39.84c0-3,1.08-5.63,3.2-7.83
				c2.14-2.22,4.8-3.35,7.89-3.35c3.07,0,5.75,1.12,7.96,3.32c2.21,2.21,3.32,4.85,3.32,7.86v21.63h35.84v-31.98
				c0-3.14,1.12-5.85,3.32-8.05c0.85-0.85,1.77-1.53,2.76-2.05h-5.83c-9.06,0-15.5-0.81-19.69-2.49c-0.41-0.16-0.78-0.25-1.11-0.25
				c-0.27,0-0.53,0.06-0.77,0.18l-0.1,0.05c-12.12,5.21-25.2,9.97-38.88,14.14l-0.07,0.02l-0.07,0.02c-1.3,0.29-2.56,0.44-3.76,0.44
				c-1.67,0-3.34-0.3-4.98-0.9c-3.01-1.2-5.42-3.08-7.2-5.61c-1.03-1.54-1.54-3.17-1.54-4.86c0-0.88,0.17-1.76,0.5-2.62
				c0.87-2.7,2.77-4.49,5.5-5.18c14.94-3.86,28.91-8.5,41.51-13.77c0.36-0.16,0.53-0.33,0.53-0.89v-29.69c0-2.74,1.01-5.18,3-7.25
				c2.01-2.09,4.5-3.15,7.4-3.15c2.89,0,5.38,1.06,7.4,3.15c1.99,2.08,3,4.51,3,7.25v20.67c19.45-10.13,35.22-22.18,46.87-35.84
				c1.96-2.26,4.4-3.79,7.26-4.54c1.05-0.3,2.16-0.46,3.25-0.46c1.84,0,3.63,0.39,5.32,1.15c2.62,1.15,4.37,3.25,5.03,6.05
				c0.66,2.82,0.04,5.45-1.79,7.61c-11.88,13.95-27.42,26.75-46.24,38.11h25.77c3.72,0,5.31-0.73,5.98-1.34
				c0.57-0.51,1.6-2.01,2.19-6.31c0.34-2.42,1.65-4.36,3.79-5.64c1.21-0.73,2.5-1.1,3.83-1.1c1.02,0,2.06,0.22,3.1,0.66
				c2.56,0.92,4.7,2.53,6.36,4.78l0.08,0.11c1.11,1.76,1.68,3.69,1.68,5.76v1.75l-0.03,0.18c-1.41,7.61-3.92,12.7-7.69,15.58
				c-3.71,2.84-9.45,4.22-17.52,4.22h-21.46c0.99,0.52,1.91,1.21,2.76,2.05c2.21,2.21,3.32,4.92,3.32,8.06v31.98h38.19v-21.44
				c0-3.14,1.12-5.85,3.32-8.05c2.2-2.2,4.88-3.32,7.96-3.32c3.07,0,5.75,1.12,7.96,3.32c2.21,2.21,3.32,4.92,3.32,8.06v39.06
				c0,3.14-1.12,5.85-3.32,8.05c-2.21,2.21-4.85,3.32-7.86,3.32h-2.34c-2.49,0-4.65-0.89-6.39-2.64c-1.46-1.46-2.32-3.19-2.56-5.18
				h-96.92c-0.25,2.1-1.14,3.94-2.66,5.47c-1.82,1.82-4.07,2.74-6.69,2.74H993.96z M1133.02,947.06c-0.66,0-1.38-0.08-2.16-0.24
				c-2.83-0.63-5.12-2.05-6.84-4.24c-5.93-8.12-13.47-16.5-22.46-24.97c-1.83-1.66-2.78-3.74-2.78-6.14c0-3.02,1.33-5.42,3.84-6.95
				c2.01-1.38,4.35-2.08,6.95-2.08l0.69,0c2.94,0.16,5.46,1.19,7.5,3.07c9.53,8.49,17.49,16.79,23.66,24.65
				c1.33,1.84,1.99,3.87,1.99,6.12c0,0.65-0.08,1.31-0.24,1.97c-0.49,2.83-1.93,5.15-4.29,6.87
				C1136.94,946.42,1134.98,947.06,1133.02,947.06z M976.77,944.13c-3.01,0-5.75-0.91-8.16-2.69c-2.23-1.41-3.41-3.6-3.41-6.34
				c0-2.65,1.01-4.92,2.99-6.75c6.44-5.55,11.65-12.62,15.55-21.05c1.1-2.51,2.95-4.37,5.5-5.48c1.42-0.63,2.78-0.95,4.03-0.95
				c1.21,0,2.46,0.24,3.73,0.71c2.6,0.98,4.49,2.78,5.62,5.37c0.62,1.24,0.95,2.59,0.95,3.93c0,1.28-0.24,2.57-0.71,3.83
				c-4.82,11.11-10.76,19.88-17.72,26.17c-2.15,2-4.88,3.1-8.08,3.25l-0.05,0H976.77z M1054.84,907.28c-2.13,0-4.09-0.69-5.85-2.04
				c-6.33-4.43-13.61-8.71-21.55-12.69c-2.22-1.02-3.66-2.84-4.1-5.24c-0.43-2.31,0.05-4.44,1.42-6.32l0.07-0.09l0.08-0.08
				c0.87-0.95,1.83-1.72,2.87-2.31h-39.04v12.26c0,3.01-1.08,5.62-3.22,7.76c-2.14,2.14-4.78,3.22-7.86,3.22
				c-3.09,0-5.75-1.13-7.89-3.35c-2.12-2.2-3.2-4.77-3.2-7.64V876.7c0-5.21,1.87-9.73,5.57-13.43s8.21-5.57,13.43-5.57h55.23v-4.45
				c0-3.42,1.13-6.24,3.35-8.37c2.2-2.12,4.93-3.2,8.13-3.2c3.2,0,5.94,1.12,8.15,3.32c2.21,2.21,3.32,4.98,3.32,8.25v4.45h56.59
				c5.21,0,9.73,1.87,13.43,5.57s5.57,8.21,5.57,13.43v13.48c0,3.12-1.07,5.84-3.17,8.1c-2.14,2.3-4.9,3.47-8.2,3.47
				c-3.29,0-6.07-1.16-8.28-3.44c-2.19-2.26-3.29-4.99-3.29-8.13V878.5h-77.13c8.2,3.78,15.41,7.74,21.46,11.77
				c2.3,1.48,3.66,3.68,3.91,6.36c0.24,2.59-0.45,4.97-2.07,7.07c-1.68,2.02-3.83,3.18-6.42,3.5
				C1055.7,907.25,1055.26,907.28,1054.84,907.28z"/>
		</g>
		<g>
			<path class="st25" d="M1305.88,1029.48c-2.72,0-5.18-1-7.32-2.97c-2.01-1.86-3.47-4.22-4.36-7.02l-0.03-0.09l-0.02-0.09
				c-0.5-2.36-0.11-4.54,1.16-6.49c1.27-1.94,3.21-2.97,5.61-2.97c0.19,0,0.39,0.01,0.59,0.02c4.05,0.13,7.29,0.19,9.83,0.19
				c2.22,0,3.74-0.48,4.51-1.41c0.89-1.12,2.57-4.81,4-16.66c-0.63,0.13-1.25,0.2-1.86,0.2c-1.28,0-2.57-0.24-3.83-0.71
				c-2.72-1.12-4.71-2.95-5.97-5.47c-1.81-3.87-3.81-7.62-5.98-11.18c-0.94-1.49-1.15-3.28-0.6-5.13c0.56-1.85,1.75-3.23,3.45-3.99
				c1.09-0.49,2.23-0.75,3.38-0.75c0.8,0,1.61,0.12,2.41,0.37c1.95,0.6,3.46,1.69,4.5,3.25c2.12,3.18,4.06,6.46,5.78,9.8
				c0.4-5.29,0.71-10.81,0.9-16.46h-61.08c-5.21,0-9.73-1.87-13.43-5.57s-5.57-8.21-5.57-13.43V868.5c0-5.21,1.87-9.73,5.57-13.43
				s8.21-5.57,13.43-5.57h68.55c2.88,0,5.33,0.99,7.27,2.93c1.94,1.94,2.93,4.36,2.93,7.18c0,2.8-0.98,5.24-2.9,7.25
				c-1.94,2.03-4.4,3.06-7.3,3.06h-25.93v10.84h21.83c2.6,0,4.84,0.88,6.65,2.6c1.84,1.75,2.77,3.95,2.77,6.53
				c0,2.56-0.92,4.78-2.73,6.59s-4.06,2.73-6.69,2.73h-21.83v11.63h21.83c2.47,0,4.68,0.91,6.56,2.7c1.9,1.83,2.87,4.08,2.87,6.72
				c0,2.64-0.96,4.9-2.86,6.72c-1.87,1.79-4.08,2.7-6.56,2.7h-21.83v12.02h21.24c5.1,0,9.53,1.92,13.16,5.69
				c3.34,3.35,5.05,7.5,5.05,12.32c0,13.06-1.19,27.81-3.54,43.84c-1.37,9.3-3.23,15.3-5.7,18.35c-3.64,4.07-8.39,6.46-14.2,7.17
				c-3.25,0.27-7.25,0.41-11.96,0.41H1305.88z M1282.98,941.69v-12.02h-20.02v12.02H1282.98z M1282.98,910.83v-11.63h-20.02v11.63
				H1282.98z M1282.98,880.75v-10.84h-20.02v10.84H1282.98z M1184.2,1020.3c-2.75,0-5.13-0.99-7.08-2.93
				c-1.94-1.94-2.93-4.33-2.93-7.08v-43.92c-1.38,1.31-3.13,1.99-5.18,1.99c-0.18,0-0.36-0.01-0.55-0.02
				c-3.01-0.17-5.33-1.59-6.7-4.13c-1.99-3.28-3-6.64-3-9.98c0-2.92,0.8-5.93,2.38-8.94c9.45-17.5,16.53-42.46,21.03-74.22h-10.86
				c-2.89,0-5.4-1.05-7.47-3.13c-2.07-2.07-3.12-4.58-3.12-7.47c0-2.9,1.06-5.38,3.15-7.4c2.07-1.99,4.57-3,7.44-3h56.84
				c2.88,0,5.36,1.02,7.37,3.03c2.01,2.01,3.03,4.49,3.03,7.37c0,2.87-1.01,5.37-3,7.44c-2.01,2.09-4.5,3.15-7.4,3.15h-23.83
				c-0.22,0-0.3,0.04-0.3,0.04c0,0,0,0,0,0c0.01,0-0.04,0.1-0.08,0.31c-2.28,14.82-5.05,28.63-8.23,40.97h17.01
				c5.21,0,9.73,1.87,13.43,5.57s5.57,8.21,5.57,13.43v54.1c0,5.21-1.87,9.73-5.57,13.43s-8.21,5.57-13.43,5.57h-18.5l0,5.81
				c0,2.75-0.99,5.13-2.93,7.08C1189.33,1019.32,1186.95,1020.3,1184.2,1020.3z M1211.3,984.08v-51.47h-17.09v51.47H1211.3z
				 M1237.83,1017.81c-1.78,0-3.47-0.5-5.04-1.49c-2.16-1.19-3.57-3.13-4.07-5.63c-0.15-0.58-0.23-1.33-0.23-2.15
				c0-1.64,0.41-3.22,1.23-4.68c3.9-7.05,6.85-16.88,8.75-29.21c0.33-2.34,1.49-4.26,3.42-5.7c1.45-1.08,3.06-1.62,4.78-1.62
				c0.59,0,1.2,0.07,1.81,0.2c2.63,0.66,4.66,2.04,6.11,4.14c1.46,2.1,2.03,4.48,1.71,7.05c-2.11,14.79-5.48,26.33-10.01,34.33
				c-1.33,2.32-3.36,3.82-6.05,4.47C1239.42,1017.71,1238.61,1017.81,1237.83,1017.81z M1268.75,1012.43
				c-1.74,0-3.32-0.66-4.68-1.96c-1.71-1.62-2.57-3.52-2.57-5.65c-0.26-7.54-0.91-15.49-1.94-23.58c-0.34-2.19,0.18-4.24,1.57-6.06
				c1.33-1.74,3.09-2.88,5.24-3.37l0.15-0.03c0.42-0.06,0.84-0.1,1.25-0.1c1.79,0,3.43,0.6,4.9,1.79c1.72,1.39,2.84,3.18,3.33,5.3
				l0.03,0.13c1.31,7.99,2.1,15.9,2.37,23.5c0.16,2.41-0.55,4.63-2.12,6.52c-1.55,1.87-3.55,2.99-5.97,3.33
				C1269.77,1012.38,1269.25,1012.43,1268.75,1012.43z M1294.03,1004.57c-1.35,0-2.67-0.39-3.94-1.16c-1.97-1.2-3.2-3.01-3.56-5.25
				c-1.28-6.12-2.96-12.33-5.01-18.48c-0.7-1.91-0.57-3.88,0.4-5.82c0.96-1.91,2.49-3.24,4.57-3.93l0.09-0.03l0.09-0.02
				c0.71-0.16,1.42-0.25,2.11-0.25c1.41,0,2.77,0.34,4.05,1.01c1.91,1,3.31,2.52,4.14,4.52l0.04,0.12
				c2.22,6.39,4.07,12.56,5.52,18.33c0.51,2.38,0.17,4.57-0.99,6.57c-1.18,2.02-2.96,3.38-5.28,4.04
				C1295.58,1004.44,1294.8,1004.57,1294.03,1004.57z"/>
			<path class="st26" d="M1305.88,1029.48c-2.72,0-5.18-1-7.32-2.97c-2.01-1.86-3.47-4.22-4.36-7.02l-0.03-0.09l-0.02-0.09
				c-0.5-2.36-0.11-4.54,1.16-6.49c1.27-1.94,3.21-2.97,5.61-2.97c0.19,0,0.39,0.01,0.59,0.02c4.05,0.13,7.29,0.19,9.83,0.19
				c2.22,0,3.74-0.48,4.51-1.41c0.89-1.12,2.57-4.81,4-16.66c-0.63,0.13-1.25,0.2-1.86,0.2c-1.28,0-2.57-0.24-3.83-0.71
				c-2.72-1.12-4.71-2.95-5.97-5.47c-1.81-3.87-3.81-7.62-5.98-11.18c-0.94-1.49-1.15-3.28-0.6-5.13c0.56-1.85,1.75-3.23,3.45-3.99
				c1.09-0.49,2.23-0.75,3.38-0.75c0.8,0,1.61,0.12,2.41,0.37c1.95,0.6,3.46,1.69,4.5,3.25c2.12,3.18,4.06,6.46,5.78,9.8
				c0.4-5.29,0.71-10.81,0.9-16.46h-61.08c-5.21,0-9.73-1.87-13.43-5.57s-5.57-8.21-5.57-13.43V868.5c0-5.21,1.87-9.73,5.57-13.43
				s8.21-5.57,13.43-5.57h68.55c2.88,0,5.33,0.99,7.27,2.93c1.94,1.94,2.93,4.36,2.93,7.18c0,2.8-0.98,5.24-2.9,7.25
				c-1.94,2.03-4.4,3.06-7.3,3.06h-25.93v10.84h21.83c2.6,0,4.84,0.88,6.65,2.6c1.84,1.75,2.77,3.95,2.77,6.53
				c0,2.56-0.92,4.78-2.73,6.59s-4.06,2.73-6.69,2.73h-21.83v11.63h21.83c2.47,0,4.68,0.91,6.56,2.7c1.9,1.83,2.87,4.08,2.87,6.72
				c0,2.64-0.96,4.9-2.86,6.72c-1.87,1.79-4.08,2.7-6.56,2.7h-21.83v12.02h21.24c5.1,0,9.53,1.92,13.16,5.69
				c3.34,3.35,5.05,7.5,5.05,12.32c0,13.06-1.19,27.81-3.54,43.84c-1.37,9.3-3.23,15.3-5.7,18.35c-3.64,4.07-8.39,6.46-14.2,7.17
				c-3.25,0.27-7.25,0.41-11.96,0.41H1305.88z M1282.98,941.69v-12.02h-20.02v12.02H1282.98z M1282.98,910.83v-11.63h-20.02v11.63
				H1282.98z M1282.98,880.75v-10.84h-20.02v10.84H1282.98z M1184.2,1020.3c-2.75,0-5.13-0.99-7.08-2.93
				c-1.94-1.94-2.93-4.33-2.93-7.08v-43.92c-1.38,1.31-3.13,1.99-5.18,1.99c-0.18,0-0.36-0.01-0.55-0.02
				c-3.01-0.17-5.33-1.59-6.7-4.13c-1.99-3.28-3-6.64-3-9.98c0-2.92,0.8-5.93,2.38-8.94c9.45-17.5,16.53-42.46,21.03-74.22h-10.86
				c-2.89,0-5.4-1.05-7.47-3.13c-2.07-2.07-3.12-4.58-3.12-7.47c0-2.9,1.06-5.38,3.15-7.4c2.07-1.99,4.57-3,7.44-3h56.84
				c2.88,0,5.36,1.02,7.37,3.03c2.01,2.01,3.03,4.49,3.03,7.37c0,2.87-1.01,5.37-3,7.44c-2.01,2.09-4.5,3.15-7.4,3.15h-23.83
				c-0.22,0-0.3,0.04-0.3,0.04c0,0,0,0,0,0c0.01,0-0.04,0.1-0.08,0.31c-2.28,14.82-5.05,28.63-8.23,40.97h17.01
				c5.21,0,9.73,1.87,13.43,5.57s5.57,8.21,5.57,13.43v54.1c0,5.21-1.87,9.73-5.57,13.43s-8.21,5.57-13.43,5.57h-18.5l0,5.81
				c0,2.75-0.99,5.13-2.93,7.08C1189.33,1019.32,1186.95,1020.3,1184.2,1020.3z M1211.3,984.08v-51.47h-17.09v51.47H1211.3z
				 M1237.83,1017.81c-1.78,0-3.47-0.5-5.04-1.49c-2.16-1.19-3.57-3.13-4.07-5.63c-0.15-0.58-0.23-1.33-0.23-2.15
				c0-1.64,0.41-3.22,1.23-4.68c3.9-7.05,6.85-16.88,8.75-29.21c0.33-2.34,1.49-4.26,3.42-5.7c1.45-1.08,3.06-1.62,4.78-1.62
				c0.59,0,1.2,0.07,1.81,0.2c2.63,0.66,4.66,2.04,6.11,4.14c1.46,2.1,2.03,4.48,1.71,7.05c-2.11,14.79-5.48,26.33-10.01,34.33
				c-1.33,2.32-3.36,3.82-6.05,4.47C1239.42,1017.71,1238.61,1017.81,1237.83,1017.81z M1268.75,1012.43
				c-1.74,0-3.32-0.66-4.68-1.96c-1.71-1.62-2.57-3.52-2.57-5.65c-0.26-7.54-0.91-15.49-1.94-23.58c-0.34-2.19,0.18-4.24,1.57-6.06
				c1.33-1.74,3.09-2.88,5.24-3.37l0.15-0.03c0.42-0.06,0.84-0.1,1.25-0.1c1.79,0,3.43,0.6,4.9,1.79c1.72,1.39,2.84,3.18,3.33,5.3
				l0.03,0.13c1.31,7.99,2.1,15.9,2.37,23.5c0.16,2.41-0.55,4.63-2.12,6.52c-1.55,1.87-3.55,2.99-5.97,3.33
				C1269.77,1012.38,1269.25,1012.43,1268.75,1012.43z M1294.03,1004.57c-1.35,0-2.67-0.39-3.94-1.16c-1.97-1.2-3.2-3.01-3.56-5.25
				c-1.28-6.12-2.96-12.33-5.01-18.48c-0.7-1.91-0.57-3.88,0.4-5.82c0.96-1.91,2.49-3.24,4.57-3.93l0.09-0.03l0.09-0.02
				c0.71-0.16,1.42-0.25,2.11-0.25c1.41,0,2.77,0.34,4.05,1.01c1.91,1,3.31,2.52,4.14,4.52l0.04,0.12
				c2.22,6.39,4.07,12.56,5.52,18.33c0.51,2.38,0.17,4.57-0.99,6.57c-1.18,2.02-2.96,3.38-5.28,4.04
				C1295.58,1004.44,1294.8,1004.57,1294.03,1004.57z"/>
		</g>
	</g>
</g>
</svg>
