<?xml version="1.0" encoding="utf-8"?>
<!-- Generator: Adobe Illustrator 23.0.5, SVG Export Plug-In . SVG Version: 6.00 Build 0)  -->
<svg version="1.1" id="圖層_1" xmlns="http://www.w3.org/2000/svg" xmlns:xlink="http://www.w3.org/1999/xlink" x="0px" y="0px"
	 viewBox="0 0 1920 1080" style="enable-background:new 0 0 1920 1080;" xml:space="preserve">
<style type="text/css">
	.st0{fill:#C2F14B;}
	.st1{fill:#90F283;}
	.st2{fill:#78DB32;}
	.st3{fill:#71B82A;}
	.st4{fill:#3A1C02;}
	.st5{fill:#F1CB7A;}
	.st6{fill:#639FF7;}
	.st7{fill:#6F726D;}
	.st8{fill:#373836;}
	.st9{fill:#4A78AF;}
	.st10{fill:#55BC04;}
	.st11{fill:#CDDAC3;stroke:#3A1C02;stroke-width:2;stroke-miterlimit:10;}
</style>
<rect y="0.25" class="st0" width="1920" height="1078.49"/>
<path class="st1" d="M1920,1087.8c-324.33-1.68-648.67-3.36-973-5.03c36.63-25.06,88.6-64.45,143-120.84
	c80.9-83.87,184.23-190.99,196-324.25c14.3-161.93-119.82-212.63-110-368.56c7.38-117.23,90.74-208.55,163-268.87
	c193.67,0,387.33,0,581,0V1087.8z"/>
<rect x="83" y="76.78" class="st2" width="451" height="342.38"/>
<g>
	<path class="st3" d="M144.29,151.42c-1.04-5.83-0.01-12,2.85-17.17c1.37,1.85,2.73,3.7,4.1,5.55c0.18,0.25,0.38,0.51,0.67,0.62
		c0.87,0.34,1.51-0.84,1.8-1.73c0.86-2.66,2.56-5.03,4.78-6.71c0.58-0.44,1.28-0.84,1.99-0.7c0.73,0.15,1.2,0.83,1.61,1.45
		c2.07,3.19,4.14,6.37,6.21,9.56c-0.02-3.01,4.04-4.78,6.67-3.33c2.63,1.45,3.63,4.87,3.22,7.85c-0.3,2.21-1.3,4.39-3.04,5.79
		c-2.55,2.05-6.12,2.07-9.38,1.99c-5-0.12-10.01-0.24-15.01-0.36c-1.77-0.04-3.62-0.11-5.14-1.02s-2.53-2.96-1.68-4.52"/>
	<g>
		<path class="st4" d="M145.74,151.02c-0.93-5.47,0.06-11.14,2.7-16.01c-0.86,0-1.73,0-2.59,0c0.98,1.32,1.95,2.64,2.93,3.97
			c0.73,0.99,1.48,2.49,2.74,2.9c2.87,0.93,3.58-3.08,4.53-4.8c0.65-1.18,1.47-2.22,2.45-3.14c0.37-0.34,1.19-1.24,1.7-1.09
			c0.53,0.15,1,1.27,1.28,1.69c1.84,2.84,3.69,5.68,5.53,8.52c0.81,1.25,2.74,0.76,2.8-0.76c0.09-2.53,3.69-2.85,5.2-1.47
			c2.29,2.09,2.18,6.06,0.82,8.61c-1.73,3.25-5.32,3.69-8.67,3.68c-4.09-0.01-8.19-0.18-12.28-0.28c-2.16-0.05-4.44,0.1-6.58-0.26
			c-1.27-0.21-3.88-1.35-3.07-3.12c0.8-1.74-1.79-3.27-2.59-1.51c-0.91,1.99-0.43,4.17,1.13,5.72c1.73,1.72,4.27,1.99,6.59,2.06
			c5.66,0.18,11.34,0.4,17,0.39c4.86-0.01,9.56-1.37,11.55-6.23c1.61-3.92,1.08-9.25-2.6-11.84c-3.56-2.51-9.34-0.33-9.5,4.26
			c0.93-0.25,1.86-0.5,2.8-0.76c-1.84-2.84-3.69-5.68-5.53-8.52c-0.72-1.11-1.4-2.42-2.66-2.99c-1.42-0.65-2.83,0.01-3.97,0.89
			c-2.11,1.62-3.73,3.8-4.75,6.25c-0.19,0.46-0.63,1.19-0.67,1.68c-0.25,0.24-0.19,0.3,0.17,0.18c0.41,0.04,0.43-0.09,0.07-0.38
			c-0.11-0.34-0.52-0.71-0.73-0.99c-1.02-1.39-2.05-2.78-3.07-4.17c-0.63-0.86-2.01-1.08-2.59,0c-3.05,5.63-4.07,12.02-3,18.33
			C143.17,153.71,146.06,152.91,145.74,151.02L145.74,151.02z"/>
	</g>
</g>
<g>
	<path class="st3" d="M414.01,369.72c-2.14-7.74-0.03-15.94,5.87-22.81c2.81,2.46,5.62,4.92,8.44,7.38
		c0.38,0.33,0.79,0.68,1.38,0.82c1.8,0.45,3.11-1.11,3.71-2.3c1.78-3.53,5.27-6.69,9.85-8.91c1.19-0.58,2.64-1.12,4.1-0.92
		c1.49,0.2,2.48,1.1,3.31,1.93c4.26,4.23,8.52,8.47,12.78,12.7c-0.05-4,8.32-6.35,13.73-4.42c5.41,1.92,7.48,6.47,6.64,10.43
		c-0.63,2.94-2.68,5.84-6.26,7.69c-5.26,2.72-12.6,2.75-19.32,2.64c-10.31-0.16-20.61-0.32-30.92-0.47
		c-3.64-0.06-7.46-0.14-10.6-1.35c-3.13-1.2-5.2-3.93-3.47-6.01"/>
	<g>
		<path class="st4" d="M415.45,369.32c-2.05-7.67,0.45-15.4,5.49-21.35c-0.71,0-1.41,0-2.12,0c1.59,1.39,3.18,2.78,4.77,4.17
			c1.48,1.29,2.92,2.87,4.58,3.92c1.32,0.83,3,0.8,4.32-0.01c1.32-0.81,1.93-2.1,2.7-3.38c1.75-2.93,4.52-5.14,7.48-6.78
			c1.5-0.83,3.46-1.95,5.21-1.23c1.61,0.67,2.94,2.51,4.14,3.71c3.46,3.43,6.91,6.86,10.37,10.3c0.94,0.93,2.53,0.23,2.56-1.06
			c0.05-1.93,3-2.83,4.48-3.2c2.57-0.64,5.44-0.62,7.91,0.43c2.48,1.05,4.54,3.08,5.06,5.78c0.5,2.62-0.69,5.29-2.51,7.14
			c-4.92,5.01-13.44,4.76-19.92,4.7c-8.31-0.08-16.61-0.25-24.92-0.38c-4.46-0.07-9,0.1-13.43-0.38c-1.95-0.21-4.03-0.61-5.71-1.67
			c-1.13-0.71-2.32-1.89-1.36-3.17c1.16-1.54-1.44-3.04-2.59-1.51c-2.43,3.23,0.88,6.72,3.81,7.98c4.05,1.74,8.72,1.59,13.04,1.65
			c10.09,0.15,20.19,0.33,30.28,0.46c7.73,0.1,17.86,0.3,23.41-6.11c2.21-2.55,3.41-5.87,2.83-9.24c-0.57-3.28-2.89-6.03-5.81-7.54
			c-3.43-1.77-7.5-1.98-11.2-0.98c-2.89,0.78-6.29,2.63-6.37,6.01c0.85-0.35,1.71-0.71,2.56-1.06c-3.05-3.03-6.1-6.06-9.16-9.1
			c-2.43-2.41-5.06-6.16-8.88-6.01c-3.5,0.14-7.09,2.68-9.67,4.85c-1.25,1.05-2.35,2.24-3.32,3.55c-0.78,1.06-1.3,2.73-2.37,3.53
			c-0.73,0.55-1.3,0.23-1.92-0.31c-0.86-0.75-1.71-1.5-2.57-2.25c-1.9-1.66-3.79-3.31-5.69-4.97c-0.57-0.5-1.57-0.65-2.12,0
			c-5.74,6.77-8.6,15.51-6.26,24.27C413.06,371.98,415.95,371.19,415.45,369.32L415.45,369.32z"/>
	</g>
</g>
<g>
	<path class="st3" d="M363.01,234.79c-2.14-7.74-0.03-15.94,5.87-22.81c2.81,2.46,5.62,4.92,8.44,7.38
		c0.38,0.33,0.79,0.68,1.38,0.82c1.8,0.45,3.11-1.11,3.71-2.3c1.78-3.53,5.27-6.69,9.85-8.91c1.19-0.58,2.64-1.12,4.1-0.92
		c1.49,0.2,2.48,1.1,3.31,1.93c4.26,4.23,8.52,8.47,12.78,12.7c-0.05-4,8.32-6.35,13.73-4.42c5.41,1.92,7.48,6.47,6.64,10.43
		c-0.63,2.94-2.68,5.84-6.26,7.69c-5.26,2.72-12.6,2.75-19.32,2.64c-10.31-0.16-20.61-0.32-30.92-0.47
		c-3.64-0.06-7.46-0.14-10.6-1.35c-3.13-1.2-5.2-3.93-3.47-6.01"/>
	<g>
		<path class="st4" d="M364.45,234.39c-2.05-7.67,0.45-15.4,5.49-21.35c-0.71,0-1.41,0-2.12,0c1.59,1.39,3.18,2.78,4.77,4.17
			c1.48,1.29,2.92,2.87,4.58,3.92c1.32,0.83,3,0.8,4.32-0.01c1.32-0.81,1.93-2.1,2.7-3.38c1.75-2.93,4.52-5.14,7.48-6.78
			c1.5-0.83,3.46-1.95,5.21-1.23c1.61,0.67,2.94,2.51,4.14,3.71c3.46,3.43,6.91,6.86,10.37,10.3c0.94,0.93,2.53,0.23,2.56-1.06
			c0.05-1.93,3-2.83,4.48-3.2c2.57-0.64,5.44-0.62,7.91,0.43c2.48,1.05,4.54,3.08,5.06,5.78c0.5,2.62-0.69,5.29-2.51,7.14
			c-4.92,5.01-13.44,4.75-19.92,4.7c-8.31-0.08-16.61-0.25-24.92-0.38c-4.46-0.07-9,0.1-13.43-0.38c-1.95-0.21-4.03-0.61-5.71-1.67
			c-1.13-0.71-2.32-1.89-1.36-3.17c1.16-1.54-1.44-3.04-2.59-1.51c-2.43,3.23,0.88,6.72,3.81,7.98c4.05,1.74,8.72,1.59,13.04,1.65
			c10.09,0.15,20.19,0.33,30.28,0.46c7.73,0.1,17.86,0.3,23.41-6.11c2.21-2.55,3.41-5.87,2.83-9.24c-0.57-3.28-2.89-6.03-5.81-7.54
			c-3.43-1.77-7.5-1.98-11.2-0.98c-2.89,0.78-6.29,2.63-6.37,6.01c0.85-0.35,1.71-0.71,2.56-1.06c-3.05-3.03-6.1-6.06-9.16-9.1
			c-2.43-2.41-5.06-6.16-8.88-6.01c-3.5,0.14-7.09,2.68-9.67,4.85c-1.25,1.05-2.35,2.24-3.32,3.55c-0.78,1.06-1.3,2.73-2.37,3.53
			c-0.73,0.55-1.3,0.23-1.92-0.31c-0.86-0.75-1.71-1.5-2.57-2.25c-1.9-1.66-3.79-3.31-5.69-4.97c-0.57-0.5-1.57-0.65-2.12,0
			c-5.74,6.77-8.6,15.51-6.26,24.27C362.06,237.05,364.95,236.26,364.45,234.39L364.45,234.39z"/>
	</g>
</g>
<g>
	<path class="st3" d="M114.79,365.27c-1.81-8.31-0.02-17.11,4.97-24.48c2.38,2.64,4.76,5.28,7.14,7.92
		c0.32,0.35,0.67,0.73,1.17,0.88c1.52,0.48,2.63-1.19,3.14-2.47c1.51-3.79,4.46-7.18,8.33-9.56c1.01-0.62,2.23-1.2,3.46-0.99
		c1.26,0.22,2.1,1.18,2.8,2.07c3.6,4.54,7.21,9.09,10.81,13.63c-0.04-4.3,7.04-6.81,11.62-4.75c4.57,2.06,6.33,6.94,5.61,11.2
		c-0.53,3.16-2.27,6.27-5.3,8.25c-4.45,2.92-10.66,2.95-16.34,2.84c-8.72-0.17-17.44-0.34-26.15-0.51
		c-3.08-0.06-6.31-0.15-8.96-1.45s-4.4-4.22-2.93-6.45"/>
	<g>
		<path class="st4" d="M116.24,364.87c-1.71-8.14,0.23-16.46,4.82-23.33c-0.79,0.1-1.57,0.2-2.36,0.3c1.73,1.92,3.46,3.84,5.19,5.76
			c1.37,1.52,2.84,3.89,5.2,3.51c1.87-0.3,2.87-2.01,3.56-3.6c0.78-1.81,1.83-3.47,3.15-4.94c1.39-1.54,3.02-2.92,4.83-3.93
			c0.95-0.53,1.97-0.93,2.94-0.22c0.84,0.61,1.46,1.64,2.1,2.44c3.3,4.15,6.59,8.31,9.89,12.46c0.85,1.08,2.53,0.12,2.56-1.06
			c0.05-1.99,2.16-3.12,3.84-3.6c2.24-0.65,4.62-0.49,6.63,0.74c4.56,2.8,4.85,9.09,2.15,13.28c-3.4,5.29-10.4,5.67-16.07,5.65
			c-7.23-0.02-14.48-0.26-21.71-0.41c-3.89-0.08-7.95,0.16-11.8-0.43c-1.69-0.26-3.51-0.74-4.79-1.95
			c-0.94-0.89-1.64-2.17-0.92-3.39c0.98-1.67-1.61-3.18-2.59-1.51c-1.79,3.04,0.11,6.45,2.83,8.14c3.38,2.11,7.77,1.96,11.6,2.03
			c8.99,0.17,17.98,0.46,26.97,0.51c7.08,0.05,15.25-0.76,19.27-7.45c3.31-5.51,2.42-13.18-3.13-16.88
			c-2.82-1.88-6.49-2.17-9.67-1.09c-2.87,0.97-5.53,3.11-5.61,6.36c0.85-0.35,1.71-0.71,2.56-1.06c-3.3-4.15-6.59-8.31-9.89-12.46
			c-1.29-1.62-2.56-3.43-4.79-3.68c-2.14-0.24-4.1,1.01-5.75,2.23c-3.39,2.48-5.71,5.56-7.46,9.35c-0.22,0.47-0.68,1.59-1.31,1.5
			c-0.35-0.05-0.94-0.97-1.16-1.21c-0.43-0.48-0.86-0.96-1.3-1.44c-1.73-1.92-3.46-3.84-5.19-5.76c-0.68-0.76-1.85-0.46-2.36,0.3
			c-5.04,7.54-6.99,16.73-5.12,25.64C113.75,367.55,116.64,366.76,116.24,364.87L116.24,364.87z"/>
	</g>
</g>
<g>
	<path class="st3" d="M423.79,137.69c-1.81-8.31-0.02-17.11,4.97-24.48c2.38,2.64,4.76,5.28,7.14,7.92
		c0.32,0.35,0.67,0.73,1.17,0.88c1.52,0.48,2.63-1.19,3.14-2.47c1.51-3.79,4.46-7.18,8.33-9.56c1.01-0.62,2.23-1.2,3.46-0.99
		c1.26,0.22,2.1,1.18,2.8,2.07c3.6,4.54,7.21,9.09,10.81,13.63c-0.04-4.3,7.04-6.81,11.62-4.75c4.57,2.06,6.33,6.94,5.61,11.2
		c-0.53,3.16-2.27,6.27-5.3,8.25c-4.45,2.92-10.66,2.95-16.34,2.84c-8.72-0.17-17.44-0.34-26.15-0.51
		c-3.08-0.06-6.31-0.15-8.96-1.45c-2.65-1.29-4.4-4.22-2.93-6.45"/>
	<g>
		<path class="st4" d="M425.24,137.29c-1.71-8.14,0.23-16.46,4.82-23.33c-0.79,0.1-1.57,0.2-2.36,0.3c1.73,1.92,3.46,3.84,5.19,5.76
			c1.37,1.52,2.84,3.89,5.2,3.51c1.87-0.3,2.87-2.01,3.56-3.6c0.78-1.81,1.83-3.47,3.15-4.94c1.39-1.54,3.02-2.92,4.83-3.93
			c0.95-0.53,1.97-0.93,2.94-0.22c0.84,0.61,1.46,1.64,2.1,2.44c3.3,4.15,6.59,8.31,9.89,12.46c0.85,1.08,2.53,0.12,2.56-1.06
			c0.05-1.99,2.16-3.12,3.84-3.6c2.24-0.65,4.62-0.49,6.63,0.74c4.56,2.8,4.85,9.09,2.15,13.28c-3.4,5.29-10.4,5.67-16.07,5.65
			c-7.23-0.02-14.48-0.26-21.71-0.41c-3.89-0.08-7.95,0.16-11.8-0.43c-1.69-0.26-3.51-0.74-4.79-1.95
			c-0.94-0.89-1.64-2.17-0.92-3.39c0.98-1.67-1.61-3.18-2.59-1.51c-1.79,3.04,0.11,6.45,2.83,8.14c3.38,2.11,7.77,1.96,11.6,2.03
			c8.99,0.17,17.98,0.46,26.97,0.51c7.08,0.05,15.25-0.76,19.27-7.45c3.31-5.51,2.42-13.18-3.13-16.88
			c-2.82-1.88-6.49-2.17-9.67-1.09c-2.87,0.97-5.53,3.11-5.61,6.36c0.85-0.35,1.71-0.71,2.56-1.06c-3.3-4.15-6.59-8.31-9.89-12.46
			c-1.29-1.62-2.56-3.43-4.79-3.68c-2.14-0.24-4.1,1.01-5.75,2.23c-3.39,2.48-5.71,5.56-7.46,9.35c-0.22,0.47-0.68,1.59-1.31,1.5
			c-0.35-0.05-0.94-0.97-1.16-1.21c-0.43-0.48-0.86-0.96-1.3-1.44c-1.73-1.92-3.46-3.84-5.19-5.76c-0.68-0.76-1.85-0.46-2.36,0.3
			c-5.04,7.54-6.99,16.73-5.12,25.64C422.75,139.97,425.64,139.18,425.24,137.29L425.24,137.29z"/>
	</g>
</g>
<g>
	<path class="st3" d="M153.02,246.4c-1.57-8.45-0.02-17.41,4.3-24.91c2.06,2.69,4.12,5.37,6.18,8.06c0.28,0.36,0.58,0.74,1.01,0.9
		c1.32,0.49,2.28-1.21,2.72-2.51c1.3-3.85,3.86-7.3,7.21-9.73c0.87-0.63,1.93-1.22,3-1.01c1.09,0.22,1.82,1.2,2.43,2.11
		c3.12,4.62,6.24,9.25,9.36,13.87c-0.04-4.37,6.1-6.93,10.06-4.83c3.96,2.1,5.48,7.06,4.86,11.39c-0.46,3.21-1.96,6.38-4.58,8.4
		c-3.85,2.97-9.23,3-14.15,2.89c-7.55-0.17-15.09-0.35-22.64-0.52c-2.67-0.06-5.47-0.16-7.76-1.47c-2.29-1.32-3.81-4.29-2.54-6.56"
		/>
	<g>
		<path class="st4" d="M154.46,246c-1.45-8.13,0.08-16.59,4.15-23.75c-0.86,0-1.73,0-2.59,0c1.47,1.92,2.94,3.84,4.41,5.75
			c1.09,1.43,2.31,3.91,4.37,4.02c1.84,0.1,3-1.56,3.62-3.07c0.75-1.82,1.44-3.54,2.58-5.18c1.13-1.62,2.58-3.12,4.18-4.28
			c0.73-0.52,1.59-1.17,2.44-0.57c0.87,0.61,1.45,1.91,2.03,2.76c2.75,4.08,5.51,8.16,8.26,12.24c0.82,1.21,2.76,0.78,2.8-0.76
			c0.09-4.08,5.97-4.97,8.67-3c3.91,2.85,4.1,8.87,2.23,12.93c-2.47,5.34-8.04,6.41-13.39,6.45c-6.52,0.06-13.05-0.26-19.56-0.41
			c-3.44-0.08-7.18,0.23-10.56-0.54c-2.16-0.49-5.74-2.61-4.35-5.37c0.86-1.72-1.73-3.24-2.59-1.51c-1.39,2.79-0.29,5.98,2.06,7.89
			c2.79,2.27,6.6,2.33,10.03,2.41c8.18,0.19,16.39,0.55,24.57,0.54c3.31-0.01,6.72-0.26,9.79-1.58c3.11-1.33,5.49-3.79,6.83-6.9
			c2.34-5.43,1.67-12.72-3.41-16.39c-4.67-3.38-13.17-0.92-13.32,5.49c0.93-0.25,1.86-0.5,2.8-0.76c-2.75-4.08-5.51-8.16-8.26-12.24
			c-1.06-1.57-2.13-3.71-4.07-4.33c-2.06-0.66-3.9,0.55-5.45,1.78c-3.12,2.48-5.45,5.8-6.83,9.54c-0.15,0.41-0.52,1.82-1.05,1.89
			c0.27-0.04-0.52-0.86-0.66-1.03c-0.39-0.51-0.78-1.02-1.18-1.53c-1.47-1.92-2.94-3.84-4.41-5.75c-0.65-0.85-1.98-1.07-2.59,0
			c-4.49,7.91-6.05,17.12-4.45,26.07C151.91,248.69,154.8,247.89,154.46,246L154.46,246z"/>
	</g>
</g>
<path class="st5" d="M1923,0.25h-413.66C1465.5,48.69,1439,111.66,1439,180.5c0,152.94,130.73,276.92,292,276.92
	c73.51,0,140.67-25.77,192-68.29V0.25z"/>
<g>
	<g>
		<path class="st6" d="M1619.78,94.85c-0.15-11.84,14.8-14.33,23.89-14.25c5.85,0.05,11.54,1.49,17.37,1.82
			c5.79,0.33,11.92,0.05,17.42-1.96c5.68-2.08,10.2-6.22,11.27-12.36c0.33-1.89-2.56-2.7-2.89-0.8
			c-2.09,11.99-17.28,12.75-26.9,12.05c-5.83-0.42-11.48-1.82-17.35-1.75c-5.76,0.07-11.77,0.97-16.95,3.61
			c-5.32,2.7-8.93,7.54-8.85,13.65C1616.8,96.77,1619.8,96.78,1619.78,94.85L1619.78,94.85z"/>
	</g>
</g>
<path class="st7" d="M1428,930.71h-76v-67.73c0-20.99,17.01-38,38-38l0,0c20.99,0,38,17.01,38,38V930.71z"/>
<path class="st7" d="M1364,1055.58h-76v-67.73c0-20.99,17.01-38,38-38l0,0c20.99,0,38,17.01,38,38V1055.58z"/>
<path class="st7" d="M1551,877.34h-76v-67.73c0-20.99,17.01-38,38-38l0,0c20.99,0,38,17.01,38,38V877.34z"/>
<path class="st7" d="M1612,1035.44h-76v-67.73c0-20.99,17.01-38,38-38l0,0c20.99,0,38,17.01,38,38V1035.44z"/>
<path class="st7" d="M1803,1046.52h-76v-67.73c0-20.99,17.01-38,38-38l0,0c20.99,0,38,17.01,38,38V1046.52z"/>
<path class="st7" d="M1879,880.36h-76v-67.73c0-20.99,17.01-38,38-38l0,0c20.99,0,38,17.01,38,38V880.36z"/>
<polygon class="st8" points="1404,855.01 1394.34,855.01 1394.34,845.62 1386.41,845.62 1386.41,855.01 1376.75,855.01 
	1376.75,862.52 1386.41,862.52 1386.41,880.36 1394.34,880.36 1394.34,862.52 1404,862.52 "/>
<polygon class="st8" points="1527,801.64 1517.34,801.64 1517.34,792.25 1509.41,792.25 1509.41,801.64 1499.75,801.64 
	1499.75,809.15 1509.41,809.15 1509.41,826.99 1517.34,826.99 1517.34,809.15 1527,809.15 "/>
<polygon class="st8" points="1340,979.88 1330.34,979.88 1330.34,970.49 1322.41,970.49 1322.41,979.88 1312.75,979.88 
	1312.75,987.39 1322.41,987.39 1322.41,1005.23 1330.34,1005.23 1330.34,987.39 1340,987.39 "/>
<polygon class="st8" points="1586,962.76 1576.34,962.76 1576.34,953.37 1568.41,953.37 1568.41,962.76 1558.75,962.76 
	1558.75,970.27 1568.41,970.27 1568.41,988.11 1576.34,988.11 1576.34,970.27 1586,970.27 "/>
<g>
	<path class="st7" d="M1720,925.68h-76v-67.73c0-20.99,17.01-38,38-38l0,0c20.99,0,38,17.01,38,38V925.68z"/>
	<polygon class="st8" points="1695,848.97 1685.34,848.97 1685.34,839.58 1677.41,839.58 1677.41,848.97 1667.75,848.97 
		1667.75,856.48 1677.41,856.48 1677.41,874.32 1685.34,874.32 1685.34,856.48 1695,856.48 	"/>
</g>
<g>
	<path class="st7" d="M1466,663.86h-76v-67.73c0-20.99,17.01-38,38-38l0,0c20.99,0,38,17.01,38,38V663.86z"/>
	<polygon class="st8" points="1441,587.15 1431.34,587.15 1431.34,577.76 1423.41,577.76 1423.41,587.15 1413.75,587.15 
		1413.75,594.66 1423.41,594.66 1423.41,612.5 1431.34,612.5 1431.34,594.66 1441,594.66 	"/>
</g>
<g>
	<path class="st7" d="M1796,662.85h-76v-67.73c0-20.99,17.01-38,38-38l0,0c20.99,0,38,17.01,38,38V662.85z"/>
	<polygon class="st8" points="1771,586.14 1761.34,586.14 1761.34,576.76 1753.41,576.76 1753.41,586.14 1743.75,586.14 
		1743.75,593.66 1753.41,593.66 1753.41,611.5 1761.34,611.5 1761.34,593.66 1771,593.66 	"/>
</g>
<polygon class="st8" points="1855,801.64 1845.34,801.64 1845.34,792.25 1837.41,792.25 1837.41,801.64 1827.75,801.64 
	1827.75,809.15 1837.41,809.15 1837.41,826.99 1845.34,826.99 1845.34,809.15 1855,809.15 "/>
<polygon class="st8" points="1779,968.8 1769.34,968.8 1769.34,959.41 1761.41,959.41 1761.41,968.8 1751.75,968.8 1751.75,976.31 
	1761.41,976.31 1761.41,994.15 1769.34,994.15 1769.34,976.31 1779,976.31 "/>
<path class="st5" d="M1877.25,202.16c-29.19,2.89-54.46,20.53-72.77,47.47c-25.81-38.54-62.71-61.39-101.35-57.56
	c-16.04,1.59-30.9,7.64-44.07,17.24c-9.67-14.03-20.82-25.89-33-35.04c5.54-23.42,7.41-49.31,4.77-76.23
	c-3.65-37.36-15.41-71.08-32.38-97.79h-184.84c-12.39,23.11-20.3,51.29-22.3,82.01c-17.1,32.56-25.38,74.93-20.96,120.2
	c6.91,70.66,42.81,128.32,88.1,150.09c14.18,86.22,71.87,149.07,134.01,142.91c16.04-1.59,30.9-7.64,44.07-17.24
	c25.74,37.34,62.04,59.34,100,55.58c29.19-2.89,54.46-20.53,72.77-47.47c25.81,38.54,62.72,61.39,101.35,57.56
	c3.16-0.31,6.28-0.8,9.35-1.46V208.75C1906.34,203.11,1891.92,200.71,1877.25,202.16z"/>
<g>
	<path class="st6" d="M1921-4.28h-335.33C1555.54,34.77,1538,81.47,1538,131.66c0,137.09,130.73,248.22,292,248.22
		c31.78,0,62.36-4.33,91-12.31V-4.28z"/>
	<g>
		<g>
			<path class="st9" d="M1815.15,306.98c-0.15-3.72,0.78-7.87,4-10.14c1.41-0.99,3.19-1.6,4.92-1.36c2.03,0.28,3.79,1.62,5.59,2.49
				c7.08,3.38,15.43,3.23,22.42-0.29c1.72-0.87,0.21-3.46-1.51-2.59c-3.72,1.87-7.89,2.62-12.03,2.27c-2.05-0.17-4.09-0.66-6.01-1.4
				c-2.05-0.78-3.86-2.06-5.89-2.86c-3.71-1.46-7.84-0.27-10.62,2.48c-2.99,2.95-4.03,7.32-3.86,11.4
				C1812.23,308.91,1815.23,308.92,1815.15,306.98L1815.15,306.98z"/>
		</g>
	</g>
	<g>
		<g>
			<path class="st9" d="M1709.66,228.84c-0.28-3.92,2.75-7.28,6.36-8.44c4.75-1.52,9.83-0.01,14.33,1.65
				c4.39,1.62,8.69,3.49,13.38,4c4.05,0.44,8.25-0.1,12.08-1.48c4.35-1.56,8.28-4.13,11.37-7.57c1.29-1.43-0.83-3.56-2.12-2.12
				c-5.62,6.26-14.47,9.52-22.8,7.94c-9.31-1.77-18.89-9.14-28.57-4.72c-4.11,1.88-7.36,6.07-7.03,10.73
				C1706.8,230.76,1709.8,230.77,1709.66,228.84L1709.66,228.84z"/>
		</g>
	</g>
	<g>
		<g>
			<path class="st9" d="M1692.6,56.94c3.56-4.18,8.3-7.15,13.6-8.55c5.79-1.53,11.42-0.77,17.02,1.14c5.83,2,11.37,4.36,17.56,4.95
				c5.5,0.53,11.14-0.09,16.42-1.71c6.05-1.86,11.64-5.04,16.29-9.33c1.42-1.31-0.7-3.43-2.12-2.12
				c-8.18,7.54-19.53,11.23-30.59,10.17c-6.2-0.59-11.77-3.21-17.62-5.13c-5.57-1.83-11.28-2.39-17.02-1.04
				c-6.05,1.42-11.64,4.77-15.66,9.5C1689.23,56.28,1691.34,58.41,1692.6,56.94L1692.6,56.94z"/>
		</g>
	</g>
	<g>
		<g>
			<path class="st9" d="M1800.88,129.15c3.06-8.77,13.25-12.09,21.63-12.92c5.75-0.57,11.55-0.48,17.28-1.25
				c5.06-0.69,9.91-2.19,14.37-4.69c4.86-2.72,9.03-6.46,12.36-10.91c1.16-1.55-1.44-3.04-2.59-1.51
				c-6.25,8.34-15.72,13.22-25.99,14.34c-10.35,1.12-21.2,0.05-30.58,5.39c-4.28,2.44-7.74,6.06-9.38,10.76
				C1797.35,130.17,1800.25,130.96,1800.88,129.15L1800.88,129.15z"/>
		</g>
	</g>
	<g>
		<g>
			<path class="st9" d="M1609.89,136.54c6.41-5.5,14.38-9.07,22.73-10.28c8.33-1.21,16.46,0.99,24.78,0.94
				c4.5-0.03,9-0.91,12.77-3.47c1.59-1.08,0.09-3.68-1.51-2.59c-7.03,4.76-16.06,2.8-23.94,2.04c-8.51-0.83-16.87,0.2-24.75,3.6
				c-4.44,1.91-8.53,4.5-12.2,7.65C1606.3,135.68,1608.43,137.79,1609.89,136.54L1609.89,136.54z"/>
		</g>
	</g>
</g>
<g>
	<path class="st10" d="M143.48,541.9c-1.03-5.12,0.52-11.04,4.84-13.93s11.31-1.3,12.97,3.65c1.96-4.53,7.49-7.14,12.2-5.76
		c1.82,0.53,3.49,1.57,5.37,1.79c1.95,0.23,3.89-0.46,5.85-0.53c4.47-0.17,8.81,3.24,9.72,7.65c0.91,4.41-1.71,9.29-5.87,10.93
		c-2,0.79-4.23,0.89-6.19,1.78c-4.26,1.95-7.13,7.54-11.78,7.03c-2.63-0.29-4.71-2.58-7.34-2.91c-2.31-0.3-4.51,0.97-6.81,1.35
		c-5.28,0.86-10.72-3.99-10.51-9.38"/>
</g>
<g>
	<path class="st10" d="M569.48,498.6c-1.03-5.12,0.52-11.04,4.84-13.93c4.32-2.89,11.31-1.3,12.97,3.65
		c1.96-4.53,7.49-7.14,12.2-5.76c1.82,0.53,3.49,1.57,5.37,1.79c1.95,0.23,3.89-0.46,5.85-0.53c4.47-0.17,8.81,3.24,9.72,7.65
		c0.91,4.41-1.71,9.29-5.87,10.93c-2,0.79-4.23,0.89-6.19,1.78c-4.26,1.95-7.13,7.54-11.78,7.03c-2.63-0.29-4.71-2.58-7.34-2.91
		c-2.31-0.3-4.51,0.97-6.81,1.35c-5.28,0.86-10.72-3.99-10.51-9.38"/>
</g>
<g>
	<path class="st10" d="M619.48,778.55c-1.03-5.12,0.52-11.04,4.84-13.93c4.32-2.89,11.31-1.3,12.97,3.65
		c1.96-4.53,7.49-7.14,12.2-5.76c1.82,0.53,3.49,1.57,5.37,1.79c1.95,0.23,3.89-0.46,5.85-0.53c4.47-0.17,8.81,3.24,9.72,7.65
		s-1.71,9.29-5.87,10.93c-2,0.79-4.23,0.89-6.19,1.78c-4.26,1.95-7.13,7.54-11.78,7.03c-2.63-0.29-4.71-2.58-7.34-2.91
		c-2.31-0.3-4.51,0.97-6.81,1.35c-5.28,0.86-10.72-3.99-10.51-9.38"/>
</g>
<g>
	<path class="st10" d="M550.48,936.64c-1.03-5.12,0.52-11.04,4.84-13.93c4.32-2.89,11.31-1.3,12.97,3.65
		c1.96-4.53,7.49-7.14,12.2-5.76c1.82,0.53,3.49,1.57,5.37,1.79c1.95,0.23,3.89-0.46,5.85-0.53c4.47-0.17,8.81,3.24,9.72,7.65
		s-1.71,9.29-5.87,10.93c-2,0.79-4.23,0.89-6.19,1.78c-4.26,1.95-7.13,7.54-11.78,7.03c-2.63-0.29-4.71-2.58-7.34-2.91
		c-2.31-0.3-4.51,0.97-6.81,1.35c-5.28,0.86-10.72-3.99-10.51-9.38"/>
</g>
<g>
	<path class="st10" d="M1241.48,696.98c-1.03-5.12,0.52-11.04,4.84-13.93c4.32-2.89,11.31-1.3,12.97,3.65
		c1.96-4.53,7.49-7.14,12.2-5.76c1.82,0.53,3.49,1.57,5.37,1.79c1.95,0.23,3.89-0.46,5.85-0.53c4.47-0.17,8.81,3.24,9.72,7.65
		c0.91,4.41-1.71,9.29-5.87,10.93c-2,0.79-4.23,0.89-6.19,1.78c-4.26,1.95-7.13,7.54-11.78,7.03c-2.63-0.29-4.71-2.58-7.34-2.91
		c-2.31-0.3-4.51,0.97-6.81,1.35c-5.28,0.86-10.72-3.99-10.51-9.38"/>
</g>
<g>
	<path class="st10" d="M1304.48,309.29c-1.03-5.12,0.52-11.04,4.84-13.93c4.32-2.89,11.31-1.3,12.97,3.65
		c1.96-4.53,7.49-7.14,12.2-5.76c1.82,0.53,3.49,1.57,5.37,1.79c1.95,0.23,3.89-0.46,5.85-0.53c4.47-0.17,8.81,3.24,9.72,7.65
		c0.91,4.41-1.71,9.29-5.87,10.93c-2,0.79-4.23,0.89-6.19,1.78c-4.26,1.95-7.13,7.54-11.78,7.03c-2.63-0.29-4.71-2.58-7.34-2.91
		c-2.31-0.3-4.51,0.97-6.81,1.35c-5.28,0.86-10.72-3.99-10.51-9.38"/>
</g>
<path class="st11" d="M1254,704.14V595.38v-115.8V305.37h170c6.6,0,12-5.44,12-12.08V281.2c0-2.45-0.74-4.74-2-6.65v-61.83
	c0-6.65-5.4-12.08-12-12.08h-12c-6.6,0-12,5.44-12,12.08v56.39h-144V0h-36v269.12H634V0h-36v276.4c-0.64,1.47-1,3.1-1,4.8v12.08
	c0,1.71,0.36,3.33,1,4.8v202.74c-0.76,0.87-1.4,1.85-1.89,2.92H0V540h595v245.71H12c-6.6,0-12,5.44-12,12.08v16.11
	c0,6.65,5.4,12.08,12,12.08h583v115.8l-116,0c-6.6,0-12,5.44-12,12.08v12.08c0,6.65,5.4,12.08,12,12.08l116,0V1083h40V823.97h583
	V1083h36V740.39h666v-36.25H1254z M1218,479.58v115.8v192.34H635V508.78c0-1.71-0.36-3.33-1-4.8V305.37h584V479.58z"/>
</svg>
