<?xml version="1.0" encoding="utf-8"?>
<!-- Generator: Adobe Illustrator 23.0.5, SVG Export Plug-In . SVG Version: 6.00 Build 0)  -->
<svg version="1.1" id="圖層_1" xmlns="http://www.w3.org/2000/svg" xmlns:xlink="http://www.w3.org/1999/xlink" x="0px" y="0px"
	 viewBox="0 0 1920 1080" style="enable-background:new 0 0 1920 1080;" xml:space="preserve">
<style type="text/css">
	.st0{fill:#C2F14B;}
	.st1{fill:#90F283;}
	.st2{fill:#78DB32;}
	.st3{fill:#F1CB7A;}
	.st4{fill:#639FF7;}
	.st5{fill:#6F726D;}
	.st6{fill:#373836;}
	.st7{fill:#4A78AF;}
	.st8{fill:#55BC04;}
	.st9{fill:#CDDAC3;stroke:#3A1C02;stroke-width:2;stroke-miterlimit:10;}
</style>
<rect y="0.25" class="st0" width="1920" height="1078.49"/>
<path class="st1" d="M1920,1087.8c-324.33-1.68-648.67-3.36-973-5.03c36.63-25.06,88.6-64.45,143-120.84
	c80.9-83.87,184.23-190.99,196-324.25c14.3-161.93-119.82-212.63-110-368.56c7.38-117.23,90.74-208.55,163-268.87
	c193.67,0,387.33,0,581,0V1087.8z"/>
<rect x="83" y="76.78" class="st2" width="451" height="342.38"/>
<path class="st3" d="M1923,0.25h-413.66C1465.5,48.69,1439,111.66,1439,180.5c0,152.94,130.73,276.92,292,276.92
	c73.51,0,140.67-25.77,192-68.29V0.25z"/>
<g>
	<g>
		<path class="st4" d="M1619.78,94.85c-0.15-11.84,14.8-14.33,23.89-14.25c5.85,0.05,11.54,1.49,17.37,1.82
			c5.79,0.33,11.92,0.05,17.42-1.96c5.68-2.08,10.2-6.22,11.27-12.36c0.33-1.89-2.56-2.7-2.89-0.8
			c-2.09,11.99-17.28,12.75-26.9,12.05c-5.83-0.42-11.48-1.82-17.35-1.75c-5.76,0.07-11.77,0.97-16.95,3.61
			c-5.32,2.7-8.93,7.54-8.85,13.65C1616.8,96.77,1619.8,96.78,1619.78,94.85L1619.78,94.85z"/>
	</g>
</g>
<path class="st5" d="M1428,930.71h-76v-67.73c0-20.99,17.01-38,38-38l0,0c20.99,0,38,17.01,38,38V930.71z"/>
<path class="st5" d="M1364,1055.58h-76v-67.73c0-20.99,17.01-38,38-38l0,0c20.99,0,38,17.01,38,38V1055.58z"/>
<path class="st5" d="M1612,1035.44h-76v-67.73c0-20.99,17.01-38,38-38l0,0c20.99,0,38,17.01,38,38V1035.44z"/>
<path class="st5" d="M1803,1046.52h-76v-67.73c0-20.99,17.01-38,38-38l0,0c20.99,0,38,17.01,38,38V1046.52z"/>
<path class="st5" d="M1879,880.36h-76v-67.73c0-20.99,17.01-38,38-38l0,0c20.99,0,38,17.01,38,38V880.36z"/>
<polygon class="st6" points="1404,855.01 1394.34,855.01 1394.34,845.62 1386.41,845.62 1386.41,855.01 1376.75,855.01 
	1376.75,862.52 1386.41,862.52 1386.41,880.36 1394.34,880.36 1394.34,862.52 1404,862.52 "/>
<polygon class="st6" points="1340,979.88 1330.34,979.88 1330.34,970.49 1322.41,970.49 1322.41,979.88 1312.75,979.88 
	1312.75,987.39 1322.41,987.39 1322.41,1005.23 1330.34,1005.23 1330.34,987.39 1340,987.39 "/>
<polygon class="st6" points="1586,962.76 1576.34,962.76 1576.34,953.37 1568.41,953.37 1568.41,962.76 1558.75,962.76 
	1558.75,970.27 1568.41,970.27 1568.41,988.11 1576.34,988.11 1576.34,970.27 1586,970.27 "/>
<polygon class="st6" points="1855,801.64 1845.34,801.64 1845.34,792.25 1837.41,792.25 1837.41,801.64 1827.75,801.64 
	1827.75,809.15 1837.41,809.15 1837.41,826.99 1845.34,826.99 1845.34,809.15 1855,809.15 "/>
<polygon class="st6" points="1779,968.8 1769.34,968.8 1769.34,959.41 1761.41,959.41 1761.41,968.8 1751.75,968.8 1751.75,976.31 
	1761.41,976.31 1761.41,994.15 1769.34,994.15 1769.34,976.31 1779,976.31 "/>
<path class="st3" d="M1877.25,202.16c-29.19,2.89-54.46,20.53-72.77,47.47c-25.81-38.54-62.71-61.39-101.35-57.56
	c-16.04,1.59-30.9,7.64-44.07,17.24c-9.67-14.03-20.82-25.89-33-35.04c5.54-23.42,7.41-49.31,4.77-76.23
	c-3.65-37.36-15.41-71.08-32.38-97.79h-184.84c-12.39,23.11-20.3,51.29-22.3,82.01c-17.1,32.56-25.38,74.93-20.96,120.2
	c6.91,70.66,42.81,128.32,88.1,150.09c14.18,86.22,71.87,149.07,134.01,142.91c16.04-1.59,30.9-7.64,44.07-17.24
	c25.74,37.34,62.04,59.34,100,55.58c29.19-2.89,54.46-20.53,72.77-47.47c25.81,38.54,62.72,61.39,101.35,57.56
	c3.16-0.31,6.28-0.8,9.35-1.46V208.75C1906.34,203.11,1891.92,200.71,1877.25,202.16z"/>
<g>
	<path class="st4" d="M1921-4.28h-335.33C1555.54,34.77,1538,81.47,1538,131.66c0,137.09,130.73,248.22,292,248.22
		c31.78,0,62.36-4.33,91-12.31V-4.28z"/>
	<g>
		<g>
			<path class="st7" d="M1815.15,306.98c-0.15-3.72,0.78-7.87,4-10.14c1.41-0.99,3.19-1.6,4.92-1.36c2.03,0.28,3.79,1.62,5.59,2.49
				c7.08,3.38,15.43,3.23,22.42-0.29c1.72-0.87,0.21-3.46-1.51-2.59c-3.72,1.87-7.89,2.62-12.03,2.27c-2.05-0.17-4.09-0.66-6.01-1.4
				c-2.05-0.78-3.86-2.06-5.89-2.86c-3.71-1.46-7.84-0.27-10.62,2.48c-2.99,2.95-4.03,7.32-3.86,11.4
				C1812.23,308.91,1815.23,308.92,1815.15,306.98L1815.15,306.98z"/>
		</g>
	</g>
	<g>
		<g>
			<path class="st7" d="M1709.66,228.84c-0.28-3.92,2.75-7.28,6.36-8.44c4.75-1.52,9.83-0.01,14.33,1.65
				c4.39,1.62,8.69,3.49,13.38,4c4.05,0.44,8.25-0.1,12.08-1.48c4.35-1.56,8.28-4.13,11.37-7.57c1.29-1.43-0.83-3.56-2.12-2.12
				c-5.62,6.26-14.47,9.52-22.8,7.94c-9.31-1.77-18.89-9.14-28.57-4.72c-4.11,1.88-7.36,6.07-7.03,10.73
				C1706.8,230.76,1709.8,230.77,1709.66,228.84L1709.66,228.84z"/>
		</g>
	</g>
	<g>
		<g>
			<path class="st7" d="M1692.6,56.94c3.56-4.18,8.3-7.15,13.6-8.55c5.79-1.53,11.42-0.77,17.02,1.14c5.83,2,11.37,4.36,17.56,4.95
				c5.5,0.53,11.14-0.09,16.42-1.71c6.05-1.86,11.64-5.04,16.29-9.33c1.42-1.31-0.7-3.43-2.12-2.12
				c-8.18,7.54-19.53,11.23-30.59,10.17c-6.2-0.59-11.77-3.21-17.62-5.13c-5.57-1.83-11.28-2.39-17.02-1.04
				c-6.05,1.42-11.64,4.77-15.66,9.5C1689.23,56.28,1691.34,58.41,1692.6,56.94L1692.6,56.94z"/>
		</g>
	</g>
	<g>
		<g>
			<path class="st7" d="M1800.88,129.15c3.06-8.77,13.25-12.09,21.63-12.92c5.75-0.57,11.55-0.48,17.28-1.25
				c5.06-0.69,9.91-2.19,14.37-4.69c4.86-2.72,9.03-6.46,12.36-10.91c1.16-1.55-1.44-3.04-2.59-1.51
				c-6.25,8.34-15.72,13.22-25.99,14.34c-10.35,1.12-21.2,0.05-30.58,5.39c-4.28,2.44-7.74,6.06-9.38,10.76
				C1797.35,130.17,1800.25,130.96,1800.88,129.15L1800.88,129.15z"/>
		</g>
	</g>
	<g>
		<g>
			<path class="st7" d="M1609.89,136.54c6.41-5.5,14.38-9.07,22.73-10.28c8.33-1.21,16.46,0.99,24.78,0.94
				c4.5-0.03,9-0.91,12.77-3.47c1.59-1.08,0.09-3.68-1.51-2.59c-7.03,4.76-16.06,2.8-23.94,2.04c-8.51-0.83-16.87,0.2-24.75,3.6
				c-4.44,1.91-8.53,4.5-12.2,7.65C1606.3,135.68,1608.43,137.79,1609.89,136.54L1609.89,136.54z"/>
		</g>
	</g>
</g>
<g>
	<path class="st8" d="M143.48,498.6c-1.03-5.12,0.52-11.04,4.84-13.93s11.31-1.3,12.97,3.65c1.96-4.53,7.49-7.14,12.2-5.76
		c1.82,0.53,3.49,1.57,5.37,1.79c1.95,0.23,3.89-0.46,5.85-0.53c4.47-0.17,8.81,3.24,9.72,7.65c0.91,4.41-1.71,9.29-5.87,10.93
		c-2,0.79-4.23,0.89-6.19,1.78c-4.26,1.95-7.13,7.54-11.78,7.03c-2.63-0.29-4.71-2.58-7.34-2.91c-2.31-0.3-4.51,0.97-6.81,1.35
		c-5.28,0.86-10.72-3.99-10.51-9.38"/>
</g>
<g>
	<path class="st8" d="M569.48,498.6c-1.03-5.12,0.52-11.04,4.84-13.93c4.32-2.89,11.31-1.3,12.97,3.65
		c1.96-4.53,7.49-7.14,12.2-5.76c1.82,0.53,3.49,1.57,5.37,1.79c1.95,0.23,3.89-0.46,5.85-0.53c4.47-0.17,8.81,3.24,9.72,7.65
		s-1.71,9.29-5.87,10.93c-2,0.79-4.23,0.89-6.19,1.78c-4.26,1.95-7.13,7.54-11.78,7.03c-2.63-0.29-4.71-2.58-7.34-2.91
		c-2.31-0.3-4.51,0.97-6.81,1.35c-5.28,0.86-10.72-3.99-10.51-9.38"/>
</g>
<g>
	<path class="st8" d="M619.48,778.55c-1.03-5.12,0.52-11.04,4.84-13.93s11.31-1.3,12.97,3.65c1.96-4.53,7.49-7.14,12.2-5.76
		c1.82,0.53,3.49,1.57,5.37,1.79c1.95,0.23,3.89-0.46,5.85-0.53c4.47-0.17,8.81,3.24,9.72,7.65s-1.71,9.29-5.87,10.93
		c-2,0.79-4.23,0.89-6.19,1.78c-4.26,1.95-7.13,7.54-11.78,7.03c-2.63-0.29-4.71-2.58-7.34-2.91c-2.31-0.3-4.51,0.97-6.81,1.35
		c-5.28,0.86-10.72-3.99-10.51-9.38"/>
</g>
<g>
	<path class="st8" d="M550.48,936.64c-1.03-5.12,0.52-11.04,4.84-13.93s11.31-1.3,12.97,3.65c1.96-4.53,7.49-7.14,12.2-5.76
		c1.82,0.53,3.49,1.57,5.37,1.79c1.95,0.23,3.89-0.46,5.85-0.53c4.47-0.17,8.81,3.24,9.72,7.65s-1.71,9.29-5.87,10.93
		c-2,0.79-4.23,0.89-6.19,1.78c-4.26,1.95-7.13,7.54-11.78,7.03c-2.63-0.29-4.71-2.58-7.34-2.91c-2.31-0.3-4.51,0.97-6.81,1.35
		c-5.28,0.86-10.72-3.99-10.51-9.38"/>
</g>
<g>
	<path class="st8" d="M1241.48,696.98c-1.03-5.12,0.52-11.04,4.84-13.93s11.31-1.3,12.97,3.65c1.96-4.53,7.49-7.14,12.2-5.76
		c1.82,0.53,3.49,1.57,5.37,1.79c1.95,0.23,3.89-0.46,5.85-0.53c4.47-0.17,8.81,3.24,9.72,7.65c0.91,4.41-1.71,9.29-5.87,10.93
		c-2,0.79-4.23,0.89-6.19,1.78c-4.26,1.95-7.13,7.54-11.78,7.03c-2.63-0.29-4.71-2.58-7.34-2.91c-2.31-0.3-4.51,0.97-6.81,1.35
		c-5.28,0.86-10.72-3.99-10.51-9.38"/>
</g>
<g>
	<path class="st8" d="M1241.48,358.96c-1.03-5.12,0.52-11.04,4.84-13.93c4.32-2.89,11.31-1.3,12.97,3.65
		c1.96-4.53,7.49-7.14,12.2-5.76c1.82,0.53,3.49,1.57,5.37,1.79c1.95,0.23,3.89-0.46,5.85-0.53c4.47-0.17,8.81,3.24,9.72,7.65
		c0.91,4.41-1.71,9.29-5.87,10.93c-2,0.79-4.23,0.89-6.19,1.78c-4.26,1.95-7.13,7.54-11.78,7.03c-2.63-0.29-4.71-2.58-7.34-2.91
		c-2.31-0.3-4.51,0.97-6.81,1.35c-5.28,0.86-10.72-3.99-10.51-9.38"/>
</g>
<path class="st9" d="M1923,701.1h-669V397.7h185V364h-185V0h-36v364H633.36V1.18h-37V364v33.7v106.04H0v35.76h596.36v248.22H0v37.26
	h596.36v120.49H471.87v32.73h124.49v101.72h37V824.98H1218V1083h36V824.98v-37.26v-47h669V701.1z M1218,787.72H633.36V397.7H1218
	V701.1v39.63V787.72z"/>
</svg>
