<?xml version="1.0" encoding="utf-8"?>
<!-- Generator: Adobe Illustrator 23.0.5, SVG Export Plug-In . SVG Version: 6.00 Build 0)  -->
<svg version="1.1" id="圖層_1" xmlns="http://www.w3.org/2000/svg" xmlns:xlink="http://www.w3.org/1999/xlink" x="0px" y="0px"
	 viewBox="0 0 1920 1080" style="enable-background:new 0 0 1920 1080;" xml:space="preserve">
<style type="text/css">
	.st0{fill:#283940;}
	.st1{fill:#445254;}
	.st2{fill:#C3C6C1;}
	.st3{fill:#899293;}
	.st4{fill:#5E7073;}
	.st5{fill:#82968E;}
	.st6{fill:#FFFFFF;}
	.st7{fill:none;stroke:#000000;stroke-width:2;stroke-miterlimit:10;}
</style>
<g>
	<rect x="1350.7" y="966.24" class="st0" width="21.85" height="104.76"/>
	<path class="st1" d="M1356.95,417.95l-157.53,548.17c-0.86,2.98,1.46,5.94,4.66,5.94h315.07c3.2,0,5.53-2.96,4.66-5.94
		l-157.53-548.17C1364.96,413.38,1358.28,413.38,1356.95,417.95z"/>
	<rect x="548.05" y="966.24" class="st0" width="21.85" height="104.76"/>
	<path class="st1" d="M554.31,417.95L396.78,966.11c-0.86,2.98,1.46,5.94,4.66,5.94h315.07c3.2,0,5.53-2.96,4.66-5.94L563.64,417.95
		C562.32,413.38,555.63,413.38,554.31,417.95z"/>
	<g>
		<rect x="746.64" y="167.55" class="st2" width="281.48" height="894.09"/>
		<rect x="1028.12" y="164.54" class="st3" width="132.34" height="897.1"/>
		<path class="st4" d="M960.91,1063.15H820.18v-93.12c0-24.22,20.27-43.86,45.27-43.86h50.2c25,0,45.27,19.64,45.27,43.86v93.12
			H960.91z"/>
		<path class="st4" d="M925.2,759.09h-69.32v-68.13c0-9.77,8.16-17.67,18.24-17.67h32.84c10.08,0,18.24,7.91,18.24,17.67V759.09z"/>
		<path class="st4" d="M925.2,567.93h-69.32V499.8c0-9.77,8.16-17.67,18.24-17.67h32.84c10.08,0,18.24,7.91,18.24,17.67V567.93z"/>
		<path class="st4" d="M921,376.78h-69.32v-68.13c0-9.77,8.16-17.67,18.24-17.67h32.84c10.08,0,18.24,7.91,18.24,17.67V376.78z"/>
		<path class="st4" d="M1128.95,759.09h-56.71v-68.13c0-9.77,8.16-17.67,18.24-17.67h20.23c10.08,0,18.24,7.91,18.24,17.67V759.09z"
			/>
		<path class="st4" d="M1128.95,567.93h-56.71V499.8c0-9.77,8.16-17.67,18.24-17.67h20.23c10.08,0,18.24,7.91,18.24,17.67V567.93z"
			/>
		<path class="st4" d="M1124.75,376.78h-56.71v-68.13c0-9.77,8.16-17.67,18.24-17.67h20.23c10.08,0,18.24,7.91,18.24,17.67V376.78z"
			/>
		<rect x="721.44" y="78.74" class="st2" width="308.79" height="88.81"/>
		<rect x="1028.12" y="78.74" class="st3" width="155.45" height="88.81"/>
		<g>
			<rect x="782.36" y="8" class="st3" width="75.62" height="70.74"/>
			<rect x="763.45" y="8" class="st2" width="75.62" height="70.74"/>
		</g>
		<g>
			<rect x="933.6" y="8" class="st3" width="75.62" height="70.74"/>
			<rect x="914.7" y="8" class="st2" width="75.62" height="70.74"/>
		</g>
		<rect x="1055.43" y="8" class="st3" width="75.62" height="70.74"/>
	</g>
	<g>
		<rect x="697.12" y="1000.31" class="st0" width="10.81" height="70.69"/>
		<path class="st5" d="M697.78,641.87L622.64,998.6c-0.61,2.91,1.68,5.63,4.74,5.63h150.29c3.07,0,5.35-2.72,4.74-5.63
			l-75.14-356.73C706.21,636.87,698.84,636.87,697.78,641.87z"/>
	</g>
	<g>
		<rect x="1199.79" y="1000.31" class="st0" width="10.81" height="70.69"/>
		<path class="st5" d="M1200.45,641.87l-75.14,356.73c-0.61,2.91,1.68,5.63,4.74,5.63h150.29c3.07,0,5.35-2.72,4.74-5.63
			l-75.14-356.73C1208.88,636.87,1201.5,636.87,1200.45,641.87z"/>
	</g>
</g>
<g>
	<g>
		<g>
			<path class="st6" d="M710.94,1053.08c-2.38,0-4.42-0.87-6.04-2.58c-1.3-1.36-2.08-2.92-2.32-4.65h-53.01
				c-0.26,1.74-1.08,3.31-2.45,4.69c-1.69,1.69-3.68,2.54-5.91,2.54h-2.34c-2.88,0-5.4-1.05-7.47-3.13
				c-2.07-2.07-3.12-4.65-3.12-7.66v-39.65c0-5.21,1.87-9.73,5.57-13.43c3.69-3.69,8.21-5.57,13.43-5.57h58.4
				c5.22,0,9.73,1.87,13.43,5.57c3.69,3.69,5.57,8.21,5.57,13.43v39.26c0,3.14-1.08,5.82-3.22,7.96c-2.14,2.14-4.82,3.22-7.96,3.22
				H710.94z M702.5,1026.23v-23.15h-52.84v23.15H702.5z M567.19,1018.51c-1.56,0-3.12-0.31-4.65-0.93
				c-3.04-1.28-5.12-3.52-6.22-6.67c-0.46-1.22-0.7-2.57-0.7-3.98c0-1.59,0.39-3.24,1.16-4.93c1.42-2.99,3.71-5.05,6.82-6.14
				c3.97-1.41,8.94-3.3,14.76-5.63l0.11-0.04c0.29-0.1,0.39-0.13,0.39-0.64v-54.45h-11.28c-2.88,0-5.43-1.08-7.57-3.22
				c-2.14-2.14-3.22-4.72-3.22-7.66c0-2.96,1.09-5.51,3.25-7.59c2.14-2.06,4.68-3.1,7.54-3.1h11.28v-34.91
				c0-2.88,1.05-5.39,3.12-7.47c2.08-2.07,4.59-3.13,7.47-3.13c2.88,0,5.39,1.05,7.47,3.12c2.08,2.08,3.13,4.59,3.13,7.47v34.91
				h8.94c3.01,0,5.59,1.05,7.66,3.12c2.08,2.08,3.13,4.63,3.13,7.57c0,2.93-1.04,5.5-3.1,7.64c-2.08,2.16-4.67,3.25-7.69,3.25h-8.94
				v46.33l12.63-5.09c-1.07-2.52-1.59-5.02-1.59-7.5c0-1.59,0.22-3.26,0.65-4.98c1.18-4.44,3.79-7.87,7.76-10.22
				c16.23-9.71,29.64-21.43,39.86-34.84c4.02-5.32,9.13-8.01,15.17-8.01c5.96,0,11.22,2.45,15.64,7.29
				c13.18,14.85,28.47,26.45,45.47,34.5c2.59,1.3,4.37,3.32,5.33,6.02l0.07,0.19l0.03,0.2c0.14,1.03,0.21,1.95,0.21,2.82
				c0,1.8-0.49,3.52-1.46,5.13c-1.69,2.77-4.04,4.64-6.97,5.56c-1.13,0.33-2.3,0.48-3.53,0.48c-1.76,0-3.53-0.48-5.25-1.42
				c-5.12-2.79-10.09-5.83-14.8-9.03c-0.45,2.84-1.77,5.36-3.92,7.52c-2.72,2.72-6.02,4.1-9.81,4.1h-38.67c-3.66,0-6.87-1.35-9.52-4
				c-2.06-2.06-3.34-4.46-3.8-7.14c-7.92,5.83-15.94,10.82-23.86,14.84c-0.01,0-0.01,0.01-0.02,0.01c0.01,0.03,0.08,0.26,0.08,0.26
				c0.43,1.71,0.65,3.39,0.65,4.98c0,3.18-0.73,6.19-2.18,8.94c-2.13,4.4-5.55,7.68-10.15,9.69c-12.19,5.45-24.49,10.78-36.55,15.83
				C570.1,1018.19,568.64,1018.51,567.19,1018.51z M698.78,954.94c-9.21-7.27-17.12-14.93-23.56-22.8
				c-5.58,7.71-12.82,15.38-21.54,22.8H698.78z M702.83,923.2c-2.95,0-5.5-1.05-7.57-3.13c-2.07-2.07-3.12-4.58-3.12-7.47v-8.16
				h-33.7v8.35c0,2.88-1.02,5.36-3.03,7.37c-2.01,2.01-4.52,3.03-7.47,3.03c-2.95,0-5.47-1.02-7.47-3.03
				c-2.01-2-3.03-4.48-3.03-7.37v-8.35h-16.95c-2.75,0-5.13-0.99-7.08-2.93c-1.94-1.94-2.93-4.33-2.93-7.08s0.99-5.13,2.93-7.08
				c1.94-1.94,4.33-2.93,7.08-2.93h16.95v-7.38c0-2.88,1.02-5.36,3.03-7.37c2.01-2.01,4.52-3.03,7.47-3.03
				c2.94,0,5.45,1.02,7.47,3.03c2.01,2.02,3.03,4.5,3.03,7.37v7.38h33.7v-6.98c0-3.01,1.05-5.59,3.12-7.66
				c2.08-2.07,4.62-3.13,7.57-3.13c2.94,0,5.49,1.05,7.56,3.12c2.08,2.08,3.13,4.66,3.13,7.67v6.98h17.14
				c2.75,0,5.13,0.99,7.08,2.93c1.94,1.94,2.93,4.33,2.93,7.08s-0.99,5.13-2.93,7.08c-1.94,1.94-4.33,2.93-7.08,2.93h-17.14v8.16
				c0,2.88-1.05,5.4-3.13,7.47C708.33,922.15,705.78,923.2,702.83,923.2z"/>
			<path class="st7" d="M710.94,1053.08c-2.38,0-4.42-0.87-6.04-2.58c-1.3-1.36-2.08-2.92-2.32-4.65h-53.01
				c-0.26,1.74-1.08,3.31-2.45,4.69c-1.69,1.69-3.68,2.54-5.91,2.54h-2.34c-2.88,0-5.4-1.05-7.47-3.13
				c-2.07-2.07-3.12-4.65-3.12-7.66v-39.65c0-5.21,1.87-9.73,5.57-13.43c3.69-3.69,8.21-5.57,13.43-5.57h58.4
				c5.22,0,9.73,1.87,13.43,5.57c3.69,3.69,5.57,8.21,5.57,13.43v39.26c0,3.14-1.08,5.82-3.22,7.96c-2.14,2.14-4.82,3.22-7.96,3.22
				H710.94z M702.5,1026.23v-23.15h-52.84v23.15H702.5z M567.19,1018.51c-1.56,0-3.12-0.31-4.65-0.93
				c-3.04-1.28-5.12-3.52-6.22-6.67c-0.46-1.22-0.7-2.57-0.7-3.98c0-1.59,0.39-3.24,1.16-4.93c1.42-2.99,3.71-5.05,6.82-6.14
				c3.97-1.41,8.94-3.3,14.76-5.63l0.11-0.04c0.29-0.1,0.39-0.13,0.39-0.64v-54.45h-11.28c-2.88,0-5.43-1.08-7.57-3.22
				c-2.14-2.14-3.22-4.72-3.22-7.66c0-2.96,1.09-5.51,3.25-7.59c2.14-2.06,4.68-3.1,7.54-3.1h11.28v-34.91
				c0-2.88,1.05-5.39,3.12-7.47c2.08-2.07,4.59-3.13,7.47-3.13c2.88,0,5.39,1.05,7.47,3.12c2.08,2.08,3.13,4.59,3.13,7.47v34.91
				h8.94c3.01,0,5.59,1.05,7.66,3.12c2.08,2.08,3.13,4.63,3.13,7.57c0,2.93-1.04,5.5-3.1,7.64c-2.08,2.16-4.67,3.25-7.69,3.25h-8.94
				v46.33l12.63-5.09c-1.07-2.52-1.59-5.02-1.59-7.5c0-1.59,0.22-3.26,0.65-4.98c1.18-4.44,3.79-7.87,7.76-10.22
				c16.23-9.71,29.64-21.43,39.86-34.84c4.02-5.32,9.13-8.01,15.17-8.01c5.96,0,11.22,2.45,15.64,7.29
				c13.18,14.85,28.47,26.45,45.47,34.5c2.59,1.3,4.37,3.32,5.33,6.02l0.07,0.19l0.03,0.2c0.14,1.03,0.21,1.95,0.21,2.82
				c0,1.8-0.49,3.52-1.46,5.13c-1.69,2.77-4.04,4.64-6.97,5.56c-1.13,0.33-2.3,0.48-3.53,0.48c-1.76,0-3.53-0.48-5.25-1.42
				c-5.12-2.79-10.09-5.83-14.8-9.03c-0.45,2.84-1.77,5.36-3.92,7.52c-2.72,2.72-6.02,4.1-9.81,4.1h-38.67c-3.66,0-6.87-1.35-9.52-4
				c-2.06-2.06-3.34-4.46-3.8-7.14c-7.92,5.83-15.94,10.82-23.86,14.84c-0.01,0-0.01,0.01-0.02,0.01c0.01,0.03,0.08,0.26,0.08,0.26
				c0.43,1.71,0.65,3.39,0.65,4.98c0,3.18-0.73,6.19-2.18,8.94c-2.13,4.4-5.55,7.68-10.15,9.69c-12.19,5.45-24.49,10.78-36.55,15.83
				C570.1,1018.19,568.64,1018.51,567.19,1018.51z M698.78,954.94c-9.21-7.27-17.12-14.93-23.56-22.8
				c-5.58,7.71-12.82,15.38-21.54,22.8H698.78z M702.83,923.2c-2.95,0-5.5-1.05-7.57-3.13c-2.07-2.07-3.12-4.58-3.12-7.47v-8.16
				h-33.7v8.35c0,2.88-1.02,5.36-3.03,7.37c-2.01,2.01-4.52,3.03-7.47,3.03c-2.95,0-5.47-1.02-7.47-3.03
				c-2.01-2-3.03-4.48-3.03-7.37v-8.35h-16.95c-2.75,0-5.13-0.99-7.08-2.93c-1.94-1.94-2.93-4.33-2.93-7.08s0.99-5.13,2.93-7.08
				c1.94-1.94,4.33-2.93,7.08-2.93h16.95v-7.38c0-2.88,1.02-5.36,3.03-7.37c2.01-2.01,4.52-3.03,7.47-3.03
				c2.94,0,5.45,1.02,7.47,3.03c2.01,2.02,3.03,4.5,3.03,7.37v7.38h33.7v-6.98c0-3.01,1.05-5.59,3.12-7.66
				c2.08-2.07,4.62-3.13,7.57-3.13c2.94,0,5.49,1.05,7.56,3.12c2.08,2.08,3.13,4.66,3.13,7.67v6.98h17.14
				c2.75,0,5.13,0.99,7.08,2.93c1.94,1.94,2.93,4.33,2.93,7.08s-0.99,5.13-2.93,7.08c-1.94,1.94-4.33,2.93-7.08,2.93h-17.14v8.16
				c0,2.88-1.05,5.4-3.13,7.47C708.33,922.15,705.78,923.2,702.83,923.2z"/>
		</g>
		<g>
			<path class="st6" d="M847.56,1053.28c-3.21,0-5.98-1.15-8.25-3.42c-2.27-2.27-3.42-5.08-3.42-8.35v-51.91h-47.76v0.54
				c0,3.14-1.12,5.85-3.32,8.06c-2.2,2.2-4.91,3.32-8.05,3.32c-3.15,0-5.86-1.12-8.06-3.32c-2.2-2.2-3.32-4.91-3.32-8.05v-70.31
				c0-5.21,1.87-9.73,5.57-13.43c3.69-3.69,8.21-5.57,13.43-5.57h51.52v-23c0-3.41,1.16-6.26,3.44-8.47c2.27-2.19,5.03-3.3,8.23-3.3
				c3.2,0,5.98,1.15,8.25,3.42c2.27,2.27,3.42,5.08,3.42,8.35v23h52.49c5.22,0,9.73,1.87,13.43,5.57c3.69,3.69,5.57,8.21,5.57,13.43
				v68.95c0,3.13-1.14,5.89-3.39,8.23c-2.27,2.35-5.09,3.54-8.37,3.54c-3.29,0-6.1-1.19-8.37-3.54c-2.05-2.12-3.18-4.61-3.37-7.4
				h-47.98v51.91c0,3.41-1.16,6.26-3.44,8.47C853.52,1052.17,850.75,1053.28,847.56,1053.28z M907.18,967.44v-44.44h-47.95v44.44
				H907.18z M835.89,967.44v-44.44h-47.76v44.44H835.89z"/>
			<path class="st7" d="M847.56,1053.28c-3.21,0-5.98-1.15-8.25-3.42c-2.27-2.27-3.42-5.08-3.42-8.35v-51.91h-47.76v0.54
				c0,3.14-1.12,5.85-3.32,8.06c-2.2,2.2-4.91,3.32-8.05,3.32c-3.15,0-5.86-1.12-8.06-3.32c-2.2-2.2-3.32-4.91-3.32-8.05v-70.31
				c0-5.21,1.87-9.73,5.57-13.43c3.69-3.69,8.21-5.57,13.43-5.57h51.52v-23c0-3.41,1.16-6.26,3.44-8.47c2.27-2.19,5.03-3.3,8.23-3.3
				c3.2,0,5.98,1.15,8.25,3.42c2.27,2.27,3.42,5.08,3.42,8.35v23h52.49c5.22,0,9.73,1.87,13.43,5.57c3.69,3.69,5.57,8.21,5.57,13.43
				v68.95c0,3.13-1.14,5.89-3.39,8.23c-2.27,2.35-5.09,3.54-8.37,3.54c-3.29,0-6.1-1.19-8.37-3.54c-2.05-2.12-3.18-4.61-3.37-7.4
				h-47.98v51.91c0,3.41-1.16,6.26-3.44,8.47C853.52,1052.17,850.75,1053.28,847.56,1053.28z M907.18,967.44v-44.44h-47.95v44.44
				H907.18z M835.89,967.44v-44.44h-47.76v44.44H835.89z"/>
		</g>
		<g>
			<path class="st6" d="M1063.48,1053.47c-2.93,0-5.58-0.94-7.89-2.78c-2.24-1.79-3.89-4.12-4.92-6.93
				c-0.86-2.57-0.58-5.02,0.78-7.14c1.41-2.2,3.54-3.36,6.18-3.36h17.7c1.67-0.13,2.18-0.4,2.26-0.45
				c-0.01-0.01,0.12-0.29,0.12-1.06v-20.27h-61.04c4.71,3.4,8.88,6.75,12.44,10c2.1,1.78,3.19,4.13,3.19,6.95
				c0,3.17-1.14,5.84-3.38,7.91l-0.13,0.11c-2.18,1.71-4.56,2.58-7.09,2.58l-0.7,0c-2.81-0.16-5.33-1.26-7.5-3.27
				c-4.48-4.09-9.74-8.31-15.63-12.54c-2.64-1.98-3.96-4.62-3.96-7.88c0-1.4,0.3-2.69,0.88-3.86h-28.96c-2.62,0-4.94-0.99-6.88-2.93
				c-1.94-1.94-2.93-4.29-2.93-6.98c0-2.7,1-5.03,2.96-6.91c1.95-1.86,4.25-2.8,6.85-2.8h111.87v-7.13h-9.52
				c-5.21,0-9.73-1.87-13.43-5.57s-5.57-8.21-5.57-13.43v-7.81c0-5.21,1.87-9.73,5.57-13.43s8.21-5.57,13.43-5.57h42.19
				c5.21,0,9.73,1.87,13.43,5.57s5.57,8.21,5.57,13.43v7.81c0,5.21-1.87,9.73-5.57,13.43s-8.21,5.57-13.43,5.57h-10.3v7.13h30.42
				c2.6,0,4.91,0.94,6.85,2.8c1.97,1.89,2.96,4.21,2.96,6.91c0,2.69-0.99,5.04-2.93,6.98c-1.94,1.94-4.26,2.93-6.88,2.93h-30.42
				v20.85c0,5.05-0.71,8.9-2.17,11.75c-1.54,3-4.29,5.2-8.16,6.54c-4.92,1.78-13.44,2.71-26.02,2.84h-0.01H1063.48z M1106.79,968.22
				v-12.99h-36.23v12.99H1106.79z M970,988.84c-2.24,0-4.29-0.8-6.08-2.37c-1.93-1.69-3.08-3.78-3.4-6.22l-0.01-0.13
				c-0.17-2.47,0.58-4.72,2.22-6.69c1.67-2,3.89-3.06,6.42-3.06c8.7-0.39,16.05-0.78,21.74-1.17c0.03,0,0.06-0.01,0.08-0.01
				c0-0.04,0.01-0.08,0.01-0.14v-13.04h-19.09c-2.37,0-4.42-0.85-6.1-2.54c-1.68-1.68-2.54-3.73-2.54-6.1
				c0-2.38,0.87-4.41,2.57-6.04c1.68-1.6,3.72-2.41,6.07-2.41h60.55c2.34,0,4.38,0.81,6.06,2.4c1.71,1.63,2.58,3.66,2.58,6.04
				c0,2.37-0.85,4.42-2.54,6.1c-1.68,1.68-3.74,2.54-6.1,2.54h-20.07v12.02c0.01,0,0.02-0.01,0.04-0.01c0.02,0,0.04,0,0.06,0
				c10.9-0.64,18.74-1.16,23.31-1.55c0.24-0.02,0.45-0.02,0.65-0.02c2.16,0,4.05,0.79,5.62,2.36c1.69,1.69,2.54,3.74,2.54,6.1
				c0,2.33-0.83,4.42-2.47,6.23c-1.65,1.82-3.68,2.83-6.03,2.99c-18.26,1.43-40.28,3.01-65.43,4.69
				C970.43,988.84,970.21,988.84,970,988.84z M986.14,934.33c-2.24,0-4.19-0.82-5.81-2.44c-1.62-1.61-2.44-3.6-2.44-5.9
				c0-2.3,0.82-4.29,2.44-5.91c1.62-1.62,3.58-2.44,5.81-2.44h106.01v-5.96H992c-2.1,0-3.96-0.79-5.52-2.34
				c-1.56-1.55-2.34-3.48-2.34-5.71s0.79-4.16,2.34-5.71c1.55-1.56,3.41-2.34,5.52-2.34h100.15v-5.96H987.11
				c-2.24,0-4.19-0.82-5.81-2.44c-1.62-1.61-2.44-3.57-2.44-5.81c0-2.23,0.82-4.19,2.44-5.81c1.62-1.62,3.58-2.44,5.81-2.44h108.2
				c5.21,0,9.73,1.87,13.43,5.57s5.57,8.21,5.57,13.43v23.24c0,5.21-1.87,9.73-5.57,13.43s-8.21,5.57-13.43,5.57H986.14z"/>
			<path class="st7" d="M1063.48,1053.47c-2.93,0-5.58-0.94-7.89-2.78c-2.24-1.79-3.89-4.12-4.92-6.93
				c-0.86-2.57-0.58-5.02,0.78-7.14c1.41-2.2,3.54-3.36,6.18-3.36h17.7c1.67-0.13,2.18-0.4,2.26-0.45
				c-0.01-0.01,0.12-0.29,0.12-1.06v-20.27h-61.04c4.71,3.4,8.88,6.75,12.44,10c2.1,1.78,3.19,4.13,3.19,6.95
				c0,3.17-1.14,5.84-3.38,7.91l-0.13,0.11c-2.18,1.71-4.56,2.58-7.09,2.58l-0.7,0c-2.81-0.16-5.33-1.26-7.5-3.27
				c-4.48-4.09-9.74-8.31-15.63-12.54c-2.64-1.98-3.96-4.62-3.96-7.88c0-1.4,0.3-2.69,0.88-3.86h-28.96c-2.62,0-4.94-0.99-6.88-2.93
				c-1.94-1.94-2.93-4.29-2.93-6.98c0-2.7,1-5.03,2.96-6.91c1.95-1.86,4.25-2.8,6.85-2.8h111.87v-7.13h-9.52
				c-5.21,0-9.73-1.87-13.43-5.57s-5.57-8.21-5.57-13.43v-7.81c0-5.21,1.87-9.73,5.57-13.43s8.21-5.57,13.43-5.57h42.19
				c5.21,0,9.73,1.87,13.43,5.57s5.57,8.21,5.57,13.43v7.81c0,5.21-1.87,9.73-5.57,13.43s-8.21,5.57-13.43,5.57h-10.3v7.13h30.42
				c2.6,0,4.91,0.94,6.85,2.8c1.97,1.89,2.96,4.21,2.96,6.91c0,2.69-0.99,5.04-2.93,6.98c-1.94,1.94-4.26,2.93-6.88,2.93h-30.42
				v20.85c0,5.05-0.71,8.9-2.17,11.75c-1.54,3-4.29,5.2-8.16,6.54c-4.92,1.78-13.44,2.71-26.02,2.84h-0.01H1063.48z M1106.79,968.22
				v-12.99h-36.23v12.99H1106.79z M970,988.84c-2.24,0-4.29-0.8-6.08-2.37c-1.93-1.69-3.08-3.78-3.4-6.22l-0.01-0.13
				c-0.17-2.47,0.58-4.72,2.22-6.69c1.67-2,3.89-3.06,6.42-3.06c8.7-0.39,16.05-0.78,21.74-1.17c0.03,0,0.06-0.01,0.08-0.01
				c0-0.04,0.01-0.08,0.01-0.14v-13.04h-19.09c-2.37,0-4.42-0.85-6.1-2.54c-1.68-1.68-2.54-3.73-2.54-6.1
				c0-2.38,0.87-4.41,2.57-6.04c1.68-1.6,3.72-2.41,6.07-2.41h60.55c2.34,0,4.38,0.81,6.06,2.4c1.71,1.63,2.58,3.66,2.58,6.04
				c0,2.37-0.85,4.42-2.54,6.1c-1.68,1.68-3.74,2.54-6.1,2.54h-20.07v12.02c0.01,0,0.02-0.01,0.04-0.01c0.02,0,0.04,0,0.06,0
				c10.9-0.64,18.74-1.16,23.31-1.55c0.24-0.02,0.45-0.02,0.65-0.02c2.16,0,4.05,0.79,5.62,2.36c1.69,1.69,2.54,3.74,2.54,6.1
				c0,2.33-0.83,4.42-2.47,6.23c-1.65,1.82-3.68,2.83-6.03,2.99c-18.26,1.43-40.28,3.01-65.43,4.69
				C970.43,988.84,970.21,988.84,970,988.84z M986.14,934.33c-2.24,0-4.19-0.82-5.81-2.44c-1.62-1.61-2.44-3.6-2.44-5.9
				c0-2.3,0.82-4.29,2.44-5.91c1.62-1.62,3.58-2.44,5.81-2.44h106.01v-5.96H992c-2.1,0-3.96-0.79-5.52-2.34
				c-1.56-1.55-2.34-3.48-2.34-5.71s0.79-4.16,2.34-5.71c1.55-1.56,3.41-2.34,5.52-2.34h100.15v-5.96H987.11
				c-2.24,0-4.19-0.82-5.81-2.44c-1.62-1.61-2.44-3.57-2.44-5.81c0-2.23,0.82-4.19,2.44-5.81c1.62-1.62,3.58-2.44,5.81-2.44h108.2
				c5.21,0,9.73,1.87,13.43,5.57s5.57,8.21,5.57,13.43v23.24c0,5.21-1.87,9.73-5.57,13.43s-8.21,5.57-13.43,5.57H986.14z"/>
		</g>
		<g>
			<path class="st6" d="M1229.59,1052.69c-2.95,0-5.49-1.05-7.57-3.13c-2.07-2.07-3.12-4.65-3.12-7.66V926.08
				c0-5.21,1.87-9.73,5.57-13.43s8.21-5.57,13.43-5.57h26.71v-29.64c0-3.16,1.13-5.84,3.35-7.98c2.2-2.12,4.83-3.2,7.83-3.2
				c3.01,0,5.62,1.08,7.76,3.22c2.14,2.14,3.22,4.82,3.22,7.96v29.64h28.66c5.21,0,9.73,1.87,13.43,5.57s5.57,8.21,5.57,13.43
				v114.45c0,2.99-1.04,5.6-3.1,7.73c-2.08,2.16-4.7,3.25-7.79,3.25c-3.08,0-5.72-1.08-7.86-3.22c-2.08-2.08-3.16-4.61-3.22-7.52
				h-72.17l0,1.13c0,3.01-1.05,5.59-3.12,7.66C1235.08,1051.64,1232.54,1052.69,1229.59,1052.69z M1312.46,1019.01v-34.67h-25.69
				v34.67H1312.46z M1264.6,1019.01v-34.67h-24.32v34.67H1264.6z M1312.46,962.37v-33.5h-25.69v33.5H1312.46z M1264.6,962.37v-33.5
				h-24.32v33.5H1264.6z M1177.35,1046.25c-2.36,0-4.58-0.71-6.61-2.11c-2.68-2.05-4.32-4.69-4.93-7.91
				c-0.15-0.75-0.23-1.54-0.23-2.33c0-2.46,0.7-4.79,2.07-6.94c7.11-11.25,14.64-24.54,22.37-39.49c1.5-2.66,3.66-4.24,6.44-4.75
				c0.66-0.16,1.33-0.24,1.97-0.24c2.16,0,4.16,0.74,5.95,2.21c2.3,2,3.83,4.51,4.58,7.51l0.03,0.1l0.01,0.11
				c0.14,1.03,0.21,1.95,0.21,2.82c0,1.98-0.46,3.97-1.36,5.92c-6.77,13.93-13.89,27.32-21.18,39.82c-1.58,2.84-4.08,4.56-7.4,5.06
				C1178.64,1046.17,1177.99,1046.25,1177.35,1046.25z M1193.17,958.46c-0.39,0-0.78-0.03-1.17-0.1c-2.1-0.03-4.09-0.58-5.89-1.64
				c-6.5-4.03-14.03-8.34-22.4-12.86c-2.42-1.29-3.99-3.25-4.67-5.83c-0.28-0.72-0.5-1.46-0.64-2.19l-0.04-0.19v-0.19
				c0-1.9,0.74-3.71,2.2-5.36c1.69-2.27,3.93-3.8,6.68-4.57c1.08-0.31,2.18-0.46,3.27-0.46c1.71,0,3.43,0.39,5.12,1.15
				c8.79,4.2,16.47,8.24,22.85,12.01c2.74,1.61,4.38,3.99,4.86,7.07c0.14,0.72,0.22,1.5,0.22,2.27c0,2.21-0.64,4.3-1.9,6.19
				c-1.77,2.57-4.19,4.1-7.21,4.58C1194.08,958.41,1193.62,958.46,1193.17,958.46z M1203.52,905.04c-2.36,0-4.52-0.71-6.41-2.11
				c-6.83-4.37-14.57-8.8-23.02-13.15c-2.5-1.33-4.09-3.42-4.74-6.21c-0.16-0.64-0.25-1.39-0.25-2.21c0-1.81,0.57-3.62,1.68-5.37
				l0.06-0.09l0.07-0.08c1.85-2.31,4.27-3.8,7.2-4.42l0.14-0.02c0.91-0.13,2.87-0.41,2.87-0.41h0.14c1.84,0,3.63,0.39,5.32,1.15
				c8.79,4.2,16.6,8.37,23.26,12.42c2.72,1.76,4.39,4.16,5.02,7.16l0.04,0.2v1.97c0,2.19-0.63,4.32-1.86,6.32l-0.05,0.08l-0.05,0.07
				c-1.88,2.5-4.35,4.01-7.34,4.49C1204.9,904.96,1204.17,905.04,1203.52,905.04z"/>
			<path class="st7" d="M1229.59,1052.69c-2.95,0-5.49-1.05-7.57-3.13c-2.07-2.07-3.12-4.65-3.12-7.66V926.08
				c0-5.21,1.87-9.73,5.57-13.43s8.21-5.57,13.43-5.57h26.71v-29.64c0-3.16,1.13-5.84,3.35-7.98c2.2-2.12,4.83-3.2,7.83-3.2
				c3.01,0,5.62,1.08,7.76,3.22c2.14,2.14,3.22,4.82,3.22,7.96v29.64h28.66c5.21,0,9.73,1.87,13.43,5.57s5.57,8.21,5.57,13.43
				v114.45c0,2.99-1.04,5.6-3.1,7.73c-2.08,2.16-4.7,3.25-7.79,3.25c-3.08,0-5.72-1.08-7.86-3.22c-2.08-2.08-3.16-4.61-3.22-7.52
				h-72.17l0,1.13c0,3.01-1.05,5.59-3.12,7.66C1235.08,1051.64,1232.54,1052.69,1229.59,1052.69z M1312.46,1019.01v-34.67h-25.69
				v34.67H1312.46z M1264.6,1019.01v-34.67h-24.32v34.67H1264.6z M1312.46,962.37v-33.5h-25.69v33.5H1312.46z M1264.6,962.37v-33.5
				h-24.32v33.5H1264.6z M1177.35,1046.25c-2.36,0-4.58-0.71-6.61-2.11c-2.68-2.05-4.32-4.69-4.93-7.91
				c-0.15-0.75-0.23-1.54-0.23-2.33c0-2.46,0.7-4.79,2.07-6.94c7.11-11.25,14.64-24.54,22.37-39.49c1.5-2.66,3.66-4.24,6.44-4.75
				c0.66-0.16,1.33-0.24,1.97-0.24c2.16,0,4.16,0.74,5.95,2.21c2.3,2,3.83,4.51,4.58,7.51l0.03,0.1l0.01,0.11
				c0.14,1.03,0.21,1.95,0.21,2.82c0,1.98-0.46,3.97-1.36,5.92c-6.77,13.93-13.89,27.32-21.18,39.82c-1.58,2.84-4.08,4.56-7.4,5.06
				C1178.64,1046.17,1177.99,1046.25,1177.35,1046.25z M1193.17,958.46c-0.39,0-0.78-0.03-1.17-0.1c-2.1-0.03-4.09-0.58-5.89-1.64
				c-6.5-4.03-14.03-8.34-22.4-12.86c-2.42-1.29-3.99-3.25-4.67-5.83c-0.28-0.72-0.5-1.46-0.64-2.19l-0.04-0.19v-0.19
				c0-1.9,0.74-3.71,2.2-5.36c1.69-2.27,3.93-3.8,6.68-4.57c1.08-0.31,2.18-0.46,3.27-0.46c1.71,0,3.43,0.39,5.12,1.15
				c8.79,4.2,16.47,8.24,22.85,12.01c2.74,1.61,4.38,3.99,4.86,7.07c0.14,0.72,0.22,1.5,0.22,2.27c0,2.21-0.64,4.3-1.9,6.19
				c-1.77,2.57-4.19,4.1-7.21,4.58C1194.08,958.41,1193.62,958.46,1193.17,958.46z M1203.52,905.04c-2.36,0-4.52-0.71-6.41-2.11
				c-6.83-4.37-14.57-8.8-23.02-13.15c-2.5-1.33-4.09-3.42-4.74-6.21c-0.16-0.64-0.25-1.39-0.25-2.21c0-1.81,0.57-3.62,1.68-5.37
				l0.06-0.09l0.07-0.08c1.85-2.31,4.27-3.8,7.2-4.42l0.14-0.02c0.91-0.13,2.87-0.41,2.87-0.41h0.14c1.84,0,3.63,0.39,5.32,1.15
				c8.79,4.2,16.6,8.37,23.26,12.42c2.72,1.76,4.39,4.16,5.02,7.16l0.04,0.2v1.97c0,2.19-0.63,4.32-1.86,6.32l-0.05,0.08l-0.05,0.07
				c-1.88,2.5-4.35,4.01-7.34,4.49C1204.9,904.96,1204.17,905.04,1203.52,905.04z"/>
		</g>
	</g>
</g>
</svg>
