<?xml version="1.0" encoding="utf-8"?>
<!-- Generator: Adobe Illustrator 23.0.5, SVG Export Plug-In . SVG Version: 6.00 Build 0)  -->
<svg version="1.1" id="圖層_1" xmlns="http://www.w3.org/2000/svg" xmlns:xlink="http://www.w3.org/1999/xlink" x="0px" y="0px"
	 viewBox="0 0 1920 1080" style="enable-background:new 0 0 1920 1080;" xml:space="preserve">
<style type="text/css">
	.st0{fill:#DDDAD7;}
	.st1{fill:#DDDAD7;stroke:#5A1F14;stroke-width:3;stroke-miterlimit:10;}
	.st2{fill:#583646;stroke:#5A1F14;stroke-width:3;stroke-miterlimit:10;}
	.st3{fill:#FCB852;stroke:#5A1F14;stroke-width:3;stroke-miterlimit:10;}
	.st4{fill:none;stroke:#6D6B69;stroke-width:3;stroke-miterlimit:10;}
	.st5{fill:#80938D;}
	.st6{fill:#2E373C;}
</style>
<g>
	<g>
		<path class="st0" d="M955.77,244.71"/>
		<path class="st1" d="M1003.26,683.89c-16.18,17.89-32.35,35.78-48.53,53.66c-15.14-17.73-30.27-35.46-45.41-53.19
			c0.81-147.65,1.62-295.3,2.43-442.95c30.27,0.63,60.54,1.26,90.81,1.88C1002.8,390.16,1003.03,537.03,1003.26,683.89z"/>
		<g>
			<path class="st2" d="M982.46,199.04c-17.56,0.63-35.12,1.26-52.69,1.88c3.09-10.86,6.32-25.55,7.63-43.31
				c0.3-4.15-0.07-14.5-0.75-25.67c-0.91-14.98-2.35-31.44-3.41-36.46c15.25,0.31,30.5,0.63,45.75,0.94
				c-1.51,9.77-2.86,22.01-3.17,36.16c-0.15,6.97-0.06,14.39,0.4,22.21C977.24,172.32,979.79,187.28,982.46,199.04z"/>
			<line class="st2" x1="936.36" y1="128.98" x2="975.87" y2="128.98"/>
			<line class="st2" x1="937.75" y1="152.91" x2="977.26" y2="152.91"/>
			<line class="st2" x1="934.28" y1="177.47" x2="978.65" y2="177.47"/>
		</g>
		<path class="st3" d="M932.89,100.66c-5.08-9.1-10.17-18.2-15.25-27.3c13.63-8.79,27.27-17.57,40.9-26.36
			c12.94,9.41,25.88,18.83,38.82,28.24c-5.08,8.16-10.17,16.32-15.25,24.48C965.71,100.04,949.3,100.35,932.89,100.66z"/>
		<rect x="928.39" y="200.93" class="st3" width="55.46" height="12.24"/>
		<path class="st3" d="M1054.56,277.19c-16.33-12.35-52.1-35.5-100.52-35.78c-46.94-0.27-81.97,21.1-98.44,32.95
			c-2.77-14.44-5.55-28.87-8.32-43.31c4.78,1.53,12.61,3.44,22.18,2.82c22.2-1.42,28.12-14.77,52.69-19.77
			c6.81-1.39,15.86-1.24,33.97-0.94c17.11,0.28,25.67,0.42,32.58,1.88c26.08,5.52,32.71,19.19,54.07,18.83
			c8.96-0.15,16.23-2.7,20.8-4.71C1060.56,245.18,1057.56,261.18,1054.56,277.19z"/>
		<line class="st4" x1="955.77" y1="244.71" x2="955.77" y2="538.44"/>
	</g>
	<g>
		<path class="st5" d="M1297.27,1011.05c-21.86,53.56-126.49,23.4-335.64,25.09c-187.04,1.51-263.85,26.94-288.96-22.58
			c-17.49-34.48,0.94-84.04,37.79-183.17c24.46-65.79,36.68-98.69,66.68-127.97c42.77-41.75,90.58-47.23,160.04-55.2
			c78.23-8.97,156.96-18,206.72,35.13c22.12,23.62,9.11,28.13,48.9,95.35c39.5,66.73,59.97,75.23,82.24,127.97
			C1293.31,948.9,1308.22,984.22,1297.27,1011.05z"/>
		<g>
			<path class="st6" d="M901.61,1031.12c-0.92-6.8,23.6-16.37,26.67-17.56c26.68-10.4,42.87-4.31,72.91-8.06
				c21.22-2.64,36.57-8.7,47.51-12.84c39.87-15.08,72.76-47.2,102.39-80.87c19.93-22.65,39.97-48.99,41.88-80.85
				c7.12-2.3,17.56-4.27,28.73-0.56c9.49,3.16,19.18,10.32,42.23,52.69c19.67,36.16,29.58,54.76,33.34,80.29
				c2.66,18.06,5.43,36.88-3.67,52.57c-12.16,20.95-38.3,23.92-51.9,25.21c-75.92,7.2-145.01-1.87-191.16-5.02
				C963.27,1030.19,903.04,1041.64,901.61,1031.12z"/>
		</g>
		<g>
			<path class="st6" d="M934.96,1031.12c33.21-23.25,14.29-74.88,51.21-124.41c4.25-5.7,26.98-32.9,62.02-45.58
				c7.29-2.64,23.52-9.35,90.84-13.38c56.23-3.37,89.51-1.65,91.56-12.34c0.38-1.99-2.7-6.37-8.89-15.06
				c-12.17-17.09-16.99-20.17-24.45-32.62c-2.16-3.61-1.7-3.25-8.89-17.56c-6.48-12.9-11.93-23.28-15.56-30.11
				c2.05,13.95,5.75,49.84-12.93,68.72c-2.17,2.19-3.85,7.05-25.66,11.77c-29.46,6.37-58.92,12.73-88.38,19.1
				c-2.65,0.57-5.7,1.04-7.77-0.92c-1.53-1.45-2.04-3.83-2.46-6.04c-1.52-7.93-3.04-15.86-4.56-23.8c-0.72-3.76-2.79-8.56-6.1-7.64
				c-1.98,0.55-2.99,2.97-3.66,5.14c-4.24,13.69-5.64,28.76-12.66,40.91c-3.84,6.66-9.16,12.03-14.41,17.32
				c-14.17,14.27-28.5,28.66-45.14,38.99c-4.78,2.97-9.93,5.76-13.17,10.72c-1.92,2.94-3.03,6.44-4.09,9.89
				c-8.25,26.89-16.76,56.81-38.48,71.25c-8.06,5.35-17.26,8.01-26.38,10.37c-66.24,17.11-102.72-7.66-138.69,19.56
				c-3.68,2.79-9.48,7.71-15.58,15.77c11.79,0.61,27.94,1.28,47.14,1.55c49.14,0.7,82.4-1.7,126.57-5.01
				C915.63,1035.51,930.35,1034.35,934.96,1031.12z"/>
		</g>
	</g>
</g>
</svg>
