<?xml version="1.0" encoding="utf-8"?>
<!-- Generator: Adobe Illustrator 23.0.5, SVG Export Plug-In . SVG Version: 6.00 Build 0)  -->
<svg version="1.1" id="圖層_1" xmlns="http://www.w3.org/2000/svg" xmlns:xlink="http://www.w3.org/1999/xlink" x="0px" y="0px"
	 viewBox="0 0 1920 1080" style="enable-background:new 0 0 1920 1080;" xml:space="preserve">
<style type="text/css">
	.st0{fill:#A3B26F;}
	.st1{fill:#6C8146;}
	.st2{fill:#EA0004;}
	.st3{fill:#603813;}
	.st4{fill:#5A382A;}
	.st5{fill:#FFFFFF;}
	.st6{fill:#050505;}
</style>
<g>
	<path class="st0" d="M1175.75,1079.35h-432c-178.2,0-324-145.8-324-324v-432c0-178.2,145.8-324,324-324h432
		c178.2,0,324,145.8,324,324v432C1499.75,933.55,1353.95,1079.35,1175.75,1079.35z"/>
	<g>
		<path class="st1" d="M742.67,645.46c-19.17,21.87-48.87,34.29-78.03,32.67c-15.39-0.81-30.78-5.67-46.17-4.86
			c-11.61,0.54-22.95,4.05-34.56,4.59c-11.61,0.27-24.57-3.51-30.24-13.5c-6.21-11.07-2.43-27-12.15-35.1
			c-3.24-2.7-7.29-4.05-10.53-6.48c-4.59-3.51-7.02-9.18-8.37-14.85c-4.32-18.36,1.62-38.88,15.12-52.11
			c9.18-8.64,21.6-15.12,25.65-27c1.89-5.67,1.35-11.88,2.7-17.82c5.13-21.87,31.86-29.43,54.27-31.32
			c40.77-3.78,86.94,0.27,114.75,30.24c17.01,18.63,24.57,44.82,23.49,69.93c-0.81,25.11-9.45,49.68-20.79,72.09"/>
	</g>
	<g>
		<path class="st1" d="M1136.33,649.51c4.05,31.86,76.41,59.94,110.7,40.77c4.59-2.43,10.26-6.48,20.79-10.26
			c12.69-4.59,26.46-3.78,39.96-3.24c26.19,1.08,54.54,0.54,75.06-15.93c18.63-14.85,26.19-39.15,31.59-62.37
			c0.81-4.05,1.89-8.1,0.81-12.15c-1.35-6.21-6.48-10.53-9.18-16.2c-3.24-5.94-3.51-12.96-5.13-19.71
			c-8.37-36.18-46.98-55.62-81.27-69.93c-24.57-10.26-49.41-20.79-75.87-23.76c-26.46-2.97-55.08,2.7-74.52,21.06
			c-2.97,2.97-14.31,13.5-20.79,31.59c-15.39,42.93,16.47,68.04,0.54,110.97C1142.27,637.9,1134.98,639.25,1136.33,649.51z"/>
	</g>
	<g>
		<path class="st1" d="M871.46,534.22c-36.72,2.7-79.92,18.9-106.11,2.16c-4.59-2.97-16.74-12.69-35.1-15.39
			c-8.37-1.35-16.74,0-24.84-1.89c-14.04-3.51-24.3-16.2-37.53-22.41c-23.49-11.07-51.3,0.27-76.95-3.24
			c-33.75-4.86-61.02-39.42-58.59-74.52c1.35-19.17,9.99-37.8,8.1-56.97c-1.62-17.28-12.15-33.48-11.07-50.76
			c2.16-27.54,31.32-43.2,56.97-51.3c6.48-2.16,13.5-4.32,18.09-9.18c4.86-5.13,6.75-12.42,7.83-19.44
			c2.43-18.09-0.27-36.72,1.62-54.81s10.8-37.53,27.54-43.47c6.75-2.43,14.85-2.43,20.52-7.02c5.13-4.32,7.29-11.34,9.45-17.82
			c9.45-28.08,28.35-52.92,53.73-67.23c25.38-14.04,56.97-16.47,82.89-4.05c4.59,2.16,8.91,4.59,13.77,5.67
			c7.29,1.35,14.58-0.81,21.6-2.7c43.47-11.88,89.1-15.93,133.92-12.15c23.22,1.89,47.25,6.48,66.15,20.25
			c19.44,14.04,31.59,36.72,38.61,59.94c1.35,4.32,2.7,9.18,6.75,11.07c2.7,1.35,5.94,1.08,8.91,0.54
			c26.73-4.05,54.27-10.26,79.92-1.35c25.38,8.91,45.9,40.5,32.94,64.8c32.13-8.91,69.12,7.02,85.59,36.99
			c16.47,29.97,11.34,71.01-12.15,95.31c-2.7,2.7-5.67,5.67-6.48,9.45c-1.62,7.56,5.67,13.5,11.34,18.63
			c19.44,17.28,27.27,47.52,18.9,72.36c-2.16,5.94-4.86,12.15-4.05,18.36c0.54,4.05,2.97,7.83,4.32,11.88
			c6.21,17.82-6.21,36.45-18.36,50.76c-17.01,20.25-35.1,39.96-53.73,58.86c-13.23,13.23-27,26.46-44.01,33.75
			c-15.93,6.75-29.7,7.83-44.01,8.37c-59.4,2.16-99.63-7.02-99.63-7.02C928.43,564.19,931.13,529.9,871.46,534.22z"/>
	</g>
	<g>
		<g>
			<g>
				<path class="st2" d="M710.54,505.87c52.11,0,52.11-81,0-81S658.16,505.87,710.54,505.87L710.54,505.87z"/>
			</g>
		</g>
		<g>
			<g>
				<path class="st3" d="M692.72,440.26c11.07,3.24,22.95,3.24,34.02-0.54c2.43-0.81,1.35-4.59-1.08-3.78
					c-10.26,3.24-21.33,3.51-31.86,0.54C691.1,435.67,690.02,439.72,692.72,440.26L692.72,440.26z"/>
			</g>
		</g>
		<g>
			<g>
				<path class="st3" d="M711.89,439.45c-0.54-10.8,1.89-21.33,7.02-30.78c1.35-2.16-2.16-4.32-3.51-2.16
					c-5.4,9.99-8.1,21.33-7.56,32.67C707.84,441.88,711.89,441.88,711.89,439.45L711.89,439.45z"/>
			</g>
		</g>
	</g>
	<g>
		<g>
			<g>
				<path class="st2" d="M791.54,235.87c52.11,0,52.11-81,0-81S739.16,235.87,791.54,235.87L791.54,235.87z"/>
			</g>
		</g>
		<g>
			<g>
				<path class="st3" d="M773.72,170.26c11.07,3.24,22.95,3.24,34.02-0.54c2.43-0.81,1.35-4.59-1.08-3.78
					c-10.26,3.24-21.33,3.51-31.86,0.54C772.1,165.67,771.02,169.72,773.72,170.26L773.72,170.26z"/>
			</g>
		</g>
		<g>
			<g>
				<path class="st3" d="M792.89,169.45c-0.54-10.8,1.89-21.33,7.02-30.78c1.35-2.16-2.16-4.32-3.51-2.16
					c-5.4,9.99-8.1,21.33-7.56,32.67C788.84,171.88,792.89,171.88,792.89,169.45L792.89,169.45z"/>
			</g>
		</g>
	</g>
	<g>
		<g>
			<g>
				<path class="st2" d="M1169.54,316.87c52.11,0,52.11-81,0-81S1117.16,316.87,1169.54,316.87L1169.54,316.87z"/>
			</g>
		</g>
		<g>
			<g>
				<path class="st3" d="M1151.72,251.26c11.07,3.24,22.95,3.24,34.02-0.54c2.43-0.81,1.35-4.59-1.08-3.78
					c-10.26,3.24-21.33,3.51-31.86,0.54C1150.1,246.67,1149.02,250.72,1151.72,251.26L1151.72,251.26z"/>
			</g>
		</g>
		<g>
			<g>
				<path class="st3" d="M1170.89,250.45c-0.54-10.8,1.89-21.33,7.02-30.78c1.35-2.16-2.16-4.32-3.51-2.16
					c-5.4,9.99-8.1,21.33-7.56,32.67C1166.84,252.88,1170.89,252.88,1170.89,250.45L1170.89,250.45z"/>
			</g>
		</g>
	</g>
</g>
<g>
	<g>
		<g>
			<g>
				<path class="st4" d="M1062.89,305.53c1.35-0.27,2.7-0.54,3.78-0.81C1065.32,304.72,1064.24,305.26,1062.89,305.53z"/>
			</g>
			<g>
				<path class="st4" d="M1074.77,302.56c-2.7,0.54-5.13,1.35-7.83,1.89c3.51-0.54,7.02-1.08,10.53-1.08L1074.77,302.56z"/>
			</g>
			<g>
				<path class="st4" d="M1406.06,983.77c-38.61-9.18-75.33-27-106.38-51.84c-8.64-7.02-17.28-14.58-27.81-18.63
					c-19.17-7.56-40.5-1.89-61.02-3.24c-39.42-2.43-71.82-30.51-100.98-56.7c-9.45-8.37-18.9-17.01-25.38-27.54
					c-5.13-8.37-8.64-17.55-11.88-26.73c-13.5-36.99-27.27-74.52-35.37-112.86c5.13,0.27,10.26-1.89,11.88-6.75l-11.88,5.67
					c0,0,0,0,0-0.27c30.24-23.49,68.58-33.21,106.38-39.15c52.11-8.37,105.03-11.34,157.68-8.91c13.5,0.54,27.54,1.62,40.5-2.7
					c12.96-4.32,24.84-14.85,25.92-28.62c-32.94,16.47-71.28,17.82-108.27,15.93c-36.72-1.89-73.98-6.21-110.43,0
					c13.5-17.01,36.18-22.41,56.16-30.24c20.25-8.1,38.61-19.98,56.97-31.59c19.98-12.69,39.96-25.38,60.21-38.07
					c-43.74,7.56-81.27,42.39-125.55,39.96c19.17-24.57,31.59-54.27,36.18-85.05c-22.14,15.66-31.05,44.01-48.33,65.07
					c-11.61,14.04-26.73,24.57-42.39,34.02c-35.64,21.87-73.44,39.69-112.86,53.73c-1.62-26.46-1.62-52.92-4.32-79.11
					c6.48-3.51,5.4-25.38,24.3-52.38c9.72-14.04,23.49-30.24,43.74-38.34c12.96-5.4,27.54-6.75,40.77-11.61
					c9.18-3.51,17.55-8.37,26.46-11.88c19.44-7.56,41.58-7.83,59.4-18.63c-31.86-1.08-63.72-0.54-95.58,2.16
					c4.86-13.23,12.96-25.11,19.71-37.53s12.15-26.46,10.53-40.5c-8.64,11.34-18.36,23.22-29.43,34.83
					c-38.88,41.58-80.46,69.93-117.18,89.64c-1.35-5.94-2.7-11.88-4.05-17.82c-5.94-30.51-7.83-62.91,3.78-91.53
					c9.72-24.3,30.51-45.09,55.35-51.03c-12.42,2.97-24.84,5.94-37.26,8.91c15.12-23.49,28.62-48.06,40.5-73.44
					c-45.09,8.1-86.67,33.75-114.48,70.47c-17.82-29.16-44.82-52.92-76.14-66.42c15.66,30.51,25.38,63.99,28.35,98.01
					c-19.17-27.54-52.65-44.55-86.13-43.74c22.68,19.17,46.98,40.5,54,69.39c4.32,17.55,1.62,35.91-0.81,53.73
					c-2.16,15.66-4.59,31.32-6.75,46.98c-1.89-0.27-4.05-0.54-5.94-0.81l5.67,2.97c0,0.27,0,0.54,0,0.81
					c-54-23.76-106.11-52.11-155.25-84.78c0.27,8.91,2.43,17.55,5.94,25.65c-23.76-5.94-47.25-12.15-71.01-18.09
					c6.21,7.29,15.66,11.61,24.57,15.39c24.57,10.26,49.68,19.17,75.33,26.73c13.77,4.05,28.08,8.1,38.88,17.01
					c8.64,7.02,14.31,16.74,20.79,25.92c14.31,21.06,31.86,39.69,51.57,55.89c-4.32,30.51-8.91,61.29-13.23,91.8
					c-4.32-0.54-8.91-1.08-13.23-1.62c-39.96-11.07-79.11-27-109.08-55.08c-18.09-17.28-32.13-38.07-46.17-58.86
					c-5.13,9.18-2.7,20.79,2.43,29.97c5.13,9.18,12.42,17.01,17.55,26.19c-33.48-13.77-66.69-27.27-100.17-41.04
					c24.84,30.24,57.78,53.73,94.23,67.77c17.55,6.75,36.72,11.61,50.49,24.57c-15.12,2.97-30.51,0.81-45.9-0.54
					c-34.02-2.7-68.58-0.81-102.33,5.94c36.45,16.74,77.76,17.01,117.72,19.17c14.31,0.81,28.62,1.89,42.93,3.24
					c29.7,2.97,61.02,8.37,84.51,26.46c-4.32,29.43-8.37,58.59-12.69,88.02c-2.7,19.17-5.67,38.88-15.66,55.35
					c-12.42,20.25-33.75,33.21-54,45.09c-27.54,16.2-55.08,32.4-85.59,41.31c-16.47,4.86-33.48,7.56-49.68,12.69
					c-36.72,11.61-68.58,35.37-99.36,58.86c28.08,7.02,55.35-11.88,80.19-26.73s59.4-25.92,80.73-6.48
					c-22.95,11.61-46.17,22.95-69.12,34.56c40.23-2.43,80.19-12.96,116.37-30.78c-13.23,9.18-26.46,18.09-39.69,27.27
					c1.62,7.56,12.15,7.29,19.44,5.4c37.8-10.26,74.79-23.76,110.16-40.5c-12.96,13.5-25.65,27.27-38.61,40.77
					c36.99-10.8,70.74-32.4,96.39-61.29c2.16,29.97,1.35,60.21-2.16,90.18c29.16-18.9,50.22-50.49,56.43-84.78
					c2.16-12.15,7.02-28.89,19.44-27.27c8.64,1.08,12.96,10.53,16.47,18.63c14.04,32.67,42.39,58.86,75.87,70.74
					c-11.61-14.58-20.79-30.78-27-48.33c44.82,17.28,89.64,34.83,134.19,52.11c-12.42-13.5-24.84-27.27-37.53-40.77
					c44.01,11.34,88.02,22.95,131.76,34.29c-9.72-15.39-19.44-30.51-29.16-45.9C1273.76,963.52,1339.1,991.06,1406.06,983.77z"/>
			</g>
		</g>
		<g>
			<path class="st5" d="M860.66,569.59c-1.08,3.24-2.16,6.75-2.16,10.26c0,18.63,15.12,33.75,33.75,33.75
				c16.74,0,29.97-12.42,32.67-28.35L860.66,569.59z"/>
			<g>
				<g>
					<path class="st6" d="M902.24,605.23c10.53,0,10.53-16.2,0-16.2C891.98,589.03,891.98,605.23,902.24,605.23L902.24,605.23z"/>
				</g>
			</g>
		</g>
		<g>
			<path class="st5" d="M1003.76,569.59c1.08,3.24,2.16,6.75,2.16,10.26c0,18.63-15.12,33.75-33.75,33.75
				c-16.74,0-29.97-12.42-32.67-28.35L1003.76,569.59z"/>
			<g>
				<g>
					<path class="st6" d="M962.18,605.23c10.53,0,10.53-16.2,0-16.2S951.65,605.23,962.18,605.23L962.18,605.23z"/>
				</g>
			</g>
		</g>
		<g>
			<g>
				<path class="st5" d="M862.82,682.72c-1.35-2.97-2.43-5.94-2.97-9.18s0-6.75,2.16-9.18c2.43-2.97,6.21-3.78,9.72-4.59
					c9.45-1.89,18.9-3.78,28.35-3.51s19.17,2.7,27,8.64c5.94,4.59,10.53,10.8,15.66,16.47c7.83,8.1,17.28,14.58,27.81,18.36
					c3.24,1.08,6.75,2.16,9.72,0.81c2.97-1.08,4.86-4.05,5.67-7.02c1.08-2.97,1.08-6.48,0.81-9.72
					c-0.54-11.61-2.97-24.03-11.34-31.59c-4.32-4.05-9.45-6.21-14.85-7.83c-14.31-4.32-29.7-4.32-44.28-1.35
					c-14.58,2.97-28.62,8.64-42.12,15.66"/>
				<g>
					<path class="st6" d="M864.71,681.64c-3.24-7.29-5.13-16.47,4.86-19.17c5.94-1.62,12.42-2.7,18.63-3.24
						c11.61-1.35,24.03-0.81,34.29,5.4c9.72,5.94,15.66,16.2,24.03,23.49c7.02,6.21,15.39,11.34,24.3,14.04
						c20.79,6.75,19.17-20.52,15.93-33.21c-5.13-20.52-22.95-27.81-42.39-29.7c-25.11-2.16-49.41,6.48-71.28,17.55
						c-2.43,1.08-0.27,4.59,2.16,3.51c19.98-10.26,41.85-18.36,64.53-17.28c11.34,0.54,25.65,2.7,34.29,10.8
						c7.29,7.02,9.72,17.55,10.53,27.27c0.54,6.21,1.08,14.58-5.67,17.01c-5.94,2.16-12.69-1.89-17.82-4.86
						c-9.18-5.13-16.2-12.42-23.22-20.25c-5.67-6.75-11.88-12.15-20.25-15.39c-8.91-3.51-18.63-3.78-28.35-2.7
						c-5.4,0.54-10.53,1.62-15.93,2.43c-4.05,0.81-8.37,1.35-11.61,4.32c-6.75,5.94-3.51,15.12-0.81,22.14
						C862.01,686.23,865.52,684.07,864.71,681.64L864.71,681.64z"/>
				</g>
			</g>
			<g>
				<g>
					<path class="st6" d="M866.06,635.74c-0.54,8.64-1.08,17.28-1.62,25.92c-0.27,2.7,3.78,2.7,4.05,0
						c0.54-8.64,1.08-17.28,1.62-25.92C870.38,633.04,866.33,633.04,866.06,635.74L866.06,635.74z"/>
				</g>
			</g>
			<g>
				<g>
					<path class="st6" d="M884.96,678.67c0.27-4.05,3.51-6.75,7.02-7.83c2.16-0.54,4.32-0.81,6.21-1.08c1.62,0,3.78,0,5.13,1.08
						c0.81,0.81,2.16,0.81,2.97,0c0.81-0.81,0.81-2.16,0-2.97c-2.16-1.89-4.59-2.43-7.29-2.43c-2.7,0-5.67,0.27-8.37,1.35
						c-5.13,1.89-9.45,5.94-9.72,11.61C880.91,681.1,884.96,681.1,884.96,678.67L884.96,678.67z"/>
				</g>
			</g>
			<g>
				<g>
					<path class="st6" d="M955.43,643.84c-0.27,15.93-0.27,31.86-2.16,47.79c-0.27,2.7,3.78,2.43,4.05,0
						c2.16-15.66,1.89-31.86,2.16-47.79C959.48,641.14,955.43,641.14,955.43,643.84L955.43,643.84z"/>
				</g>
			</g>
			<g>
				<g>
					<path class="st6" d="M953.54,671.38c0.54,0.27,0.81,0.27,1.35,0.54c0.27,0,0.54,0.27,0.54,0.27h0.27c-0.27,0-0.27,0,0,0
						c0.81,0.27,1.62,0.81,2.16,1.08c0.81,0.27,1.35,0.81,2.16,1.35c0.27,0.27,0.81,0.54,1.08,0.81c0.27,0,0.27,0.27,0.54,0.27
						c0.27,0.27,0.27,0,0,0l0.27,0.27c0.54,0.27,0.81,0.54,1.35,0.54c0.54,0,1.08-0.27,1.35-0.54c0.54-0.81,0.81-2.16,0-2.97
						c-2.97-2.43-6.48-4.32-10.26-5.67c-1.08-0.27-2.16,0.27-2.43,1.35C951.92,670.03,952.46,670.84,953.54,671.38L953.54,671.38z"
						/>
				</g>
			</g>
			<g>
				<g>
					<path class="st6" d="M925.46,641.41c0.27,7.29,0.27,14.85,0.27,22.14c0,2.7,4.05,2.7,4.05,0c0-7.29,0-14.85-0.27-22.14
						C929.24,638.98,925.19,638.98,925.46,641.41L925.46,641.41z"/>
				</g>
			</g>
		</g>
	</g>
</g>
</svg>
