<?xml version="1.0" encoding="utf-8"?>
<!-- Generator: Adobe Illustrator 23.0.5, SVG Export Plug-In . SVG Version: 6.00 Build 0)  -->
<svg version="1.1" id="圖層_1" xmlns="http://www.w3.org/2000/svg" xmlns:xlink="http://www.w3.org/1999/xlink" x="0px" y="0px"
	 viewBox="0 0 1920 1080" style="enable-background:new 0 0 1920 1080;" xml:space="preserve">
<style type="text/css">
	.st0{fill:#D3D1B2;}
	.st1{fill:#865F19;}
	.st2{fill:#583009;}
	.st3{fill:#0A2B14;}
	.st4{fill:#60441D;}
	.st5{fill:#DA9F1B;}
	.st6{fill:#BB8115;}
	.st7{fill:#78C850;}
	.st8{fill:#E18A83;}
	.st9{fill:#C46136;}
	.st10{fill:#FFFFFF;}
	.st11{fill:#050505;}
	.st12{fill:#FFC09C;}
	.st13{fill:#F1BF27;}
	.st14{fill:#996914;}
	.st15{fill:url(#SVGID_1_);}
	.st16{fill:#D4E2CD;}
	.st17{fill:url(#SVGID_2_);}
</style>
<g>
	<path class="st0" d="M1199.81,1080h-432c-178.2,0-324-145.8-324-324V324c0-178.2,145.8-324,324-324h432c178.2,0,324,145.8,324,324
		v432C1523.81,934.2,1378.01,1080,1199.81,1080z"/>
</g>
<g>
	<g>
		<g>
			<path class="st1" d="M1109.63,933.66c-5.67,21.87-11.61,43.74-17.28,65.61c-0.27,1.08-0.54,2.16-0.27,3.24
				c0.54,1.62,2.43,2.43,4.32,2.97c22.68,8.37,44.01,20.25,62.64,35.37c3.51,2.7,6.75,7.83,3.51,10.8c-1.35,1.08-3.51,1.08-5.4,1.08
				c-35.91-0.54-71.82-2.16-107.46-5.13c-1.35,0-2.97-0.27-4.05-1.08c-2.16-1.62-2.16-4.59-1.89-7.02
				c2.16-25.92,5.13-51.57,8.91-77.22c0.27-2.16,0.81-4.59,1.89-6.48c1.35-2.16,3.78-3.51,5.94-4.86
				c14.04-7.83,28.62-14.58,44.01-19.71"/>
		</g>
		<g>
			<path class="st1" d="M871.76,933.66c5.67,21.87,11.61,43.74,17.28,65.61c0.27,1.08,0.54,2.16,0.27,3.24
				c-0.54,1.62-2.43,2.43-4.32,2.97c-22.68,8.37-44.01,20.25-62.64,35.37c-3.51,2.7-6.75,7.83-3.51,10.8
				c1.35,1.08,3.51,1.08,5.4,1.08c35.91-0.54,71.82-2.16,107.46-5.13c1.35,0,2.97-0.27,4.05-1.08c2.16-1.62,2.16-4.59,1.89-7.02
				c-2.16-25.92-5.13-51.57-8.91-77.22c-0.27-2.16-0.81-4.59-1.89-6.48c-1.35-2.16-3.78-3.51-5.94-4.86
				c-14.04-7.83-28.62-14.58-44.01-19.71"/>
		</g>
		<g>
			<g>
				<path class="st2" d="M752.69,786.51c18.63,0,38.34,2.16,53.73,11.34c15.39,9.18,24.57,27.54,16.47,41.85
					c-4.05,7.29-12.15,14.04-10.26,22.14c1.35,5.67,7.56,9.45,10.8,14.58c4.86,7.29,2.97,16.74-2.16,23.76
					c-11.88,15.93-40.23,18.9-58.86,8.64s-27.54-30.24-26.46-49.14c1.08-18.9,10.8-37.26,10.26-56.16
					c-0.27-3.51-0.54-7.29,0.54-10.8c1.35-3.51,4.86-6.75,9.18-6.21"/>
			</g>
			<g>
				<path class="st2" d="M1146.08,853.47c-2.16-5.67,3.24-11.07,8.37-14.58c15.39-10.8,31.86-19.98,49.41-27.27
					c2.7-1.08,5.94-2.16,8.64-1.08c1.62,0.81,2.97,2.16,4.05,3.51c5.94,8.37,6.21,19.17,6.21,29.16c0,9.72,0,19.44,0,29.43
					c0,3.78,0,7.83-1.62,11.61c-2.43,5.13-8.1,8.37-13.23,11.07c-5.13,2.7-10.53,5.4-16.2,6.48c-5.67,1.08-12.15,0.27-16.74-3.24
					c-2.43-1.89-3.78-4.59-5.4-7.02c-7.56-12.42-15.39-24.84-22.95-36.99"/>
			</g>
			<g>
				<path class="st3" d="M855.83,699.57c-42.66,23.76-78.57,55.35-105.03,91.8c28.62-1.89,58.05,11.07,72.09,31.59
					c12.69-9.99,25.11-19.98,37.8-29.97c2.16-1.62,4.59-3.51,7.56-3.24c5.13,0.27,6.48,5.94,6.75,9.99
					c0.54,23.22,1.35,46.44,1.89,69.66c-15.12,13.77-15.12,34.56-14.04,53.19c0.27,8.64,0.81,17.55,5.94,25.11
					c8.37,12.42,26.73,17.55,43.74,21.06c18.09,3.78,36.18,6.75,54.81,8.91c15.93,1.89,32.4,3.51,48.33,1.08
					c14.85-2.16,28.89-7.29,42.93-12.15c28.89-10.53,57.51-21.06,86.4-31.59c-3.24-11.61-15.93-19.44-23.76-29.16
					c-18.09-22.14-11.61-51.3-4.59-77.22c0.81-2.97,1.89-6.21,5.13-7.56c5.13-2.16,10.8,2.43,13.77,6.48
					c6.21,8.64,10.53,18.09,12.96,28.08c18.63-14.31,41.31-24.57,65.88-29.97c3.51-0.81,7.83-1.89,8.91-4.59
					c0.81-1.89,0-4.32-0.81-6.21c-9.18-20.25-24.84-38.07-39.96-55.35c-20.25-22.95-40.5-45.9-60.48-68.85
					c-1.35-1.62-3.24-3.51-5.4-4.05c-2.16-0.54-4.59,0-7.02,0.81c-22.95,7.29-43.2,19.17-66.15,26.46
					c-57.78,18.63-123.66,5.94-179.55-16.2"/>
			</g>
			<g>
				<path class="st4" d="M891.2,834.3c21.06-1.08,42.12,0.54,62.64,4.86c5.67,1.08,11.61,2.43,17.01,1.08
					c5.67-1.62,9.99-5.67,14.04-9.72c16.47-16.2,32.94-32.13,49.14-48.33c8.1-7.83,16.2-15.66,26.46-20.52
					c10.26-4.86,22.95-6.21,32.67-0.54c15.12,8.64,16.74,28.89,16.47,45.9c-0.27,19.71-0.54,39.15-0.81,58.86
					c0,1.62,0,2.97-0.81,4.32c-1.62,2.7-5.13,2.97-8.37,2.97c-58.86,1.08-117.45,2.43-176.31,3.51c-4.05,0-8.64,0.27-12.15,2.16
					c-4.59,2.16-7.56,6.75-10.26,11.07c-10.8,17.55-21.6,35.1-32.4,52.65c-0.81-10.8-1.35-21.6-1.08-32.4
					c0.27-8.64,0.81-17.55,4.32-25.65c3.24-7.56,8.64-14.04,12.42-21.33c3.78-7.29,5.67-16.47,1.08-23.22"/>
			</g>
			<g>
				<path class="st5" d="M1088.57,696.6c18.9-10.53,38.07-20.52,57.78-29.97c1.08-0.54,2.43-1.08,3.78-0.54
					c0.81,0.27,1.62,1.08,2.16,1.89c20.79,28.89,41.58,57.78,62.37,86.67c1.35,1.89,2.7,4.05,1.89,5.94
					c-0.81,1.62-2.7,2.43-4.59,3.24c-25.92,8.64-52.38,16.74-78.84,24.3c-2.7,0.81-5.67,1.62-8.1,0.27
					c-2.43-1.08-3.78-3.78-4.86-6.21c-11.34-24.57-21.87-49.41-31.32-74.79c-2.16-5.4-3.24-12.69,1.89-15.66"/>
			</g>
			<g>
				<path class="st6" d="M1062.65,737.64c6.21-4.05,13.23-7.29,20.25-9.45c2.97-1.08,5.94-1.89,8.91-0.81
					c5.4,1.62,7.56,8.37,8.37,13.77c5.13,28.62,8.37,57.78,9.45,86.94c0,3.51,0,7.56-1.89,10.53c-1.89,2.43-4.86,3.78-7.83,4.59
					c-11.61,2.97-24.3-2.16-32.4-11.07c-7.83-8.91-11.34-21.06-12.15-32.94s1.35-23.76,3.24-35.37c1.62-9.18,2.97-18.36,4.59-27.54"
					/>
			</g>
			<g>
				<path class="st7" d="M1023.5,260.82c22.68,7.83,49.68-2.7,61.83-24.3c-5.4,0-10.53,0-15.93,0.27c-7.29,0-15.39-0.27-20.25-5.67
					c-2.97-3.51-4.32-8.37-5.13-12.96c-5.67-26.73-11.61-53.46-17.28-80.19c-3.51,10.53-7.29,21.33-10.8,31.86
					c-6.48,18.63-12.96,37.8-24.84,53.19c-7.83,10.26-18.36,20.79-16.74,33.75c1.08,8.1,7.56,14.85,15.12,17.28
					c7.56,2.16,15.93,0,22.41-4.59c3.78-2.7,7.83-6.75,12.42-6.48"/>
			</g>
			<g>
				<path class="st8" d="M1158.5,399.87c16.74-0.54,27.54-18.36,38.07-32.13c9.72-12.42,21.87-23.49,36.45-28.62
					c14.58-5.13,31.59-3.51,43.74,6.48c1.89,1.62,3.51,3.24,4.05,5.67c1.08,5.4-4.59,9.18-9.18,11.88
					c-21.6,12.96-35.91,38.61-35.91,64.8c0,8.1,1.08,16.2,0.27,24.03c-1.62,13.77-8.91,25.92-17.01,36.99
					c-8.37,11.34-17.28,22.14-27.27,32.13c-1.35,1.35-3.24,2.97-5.13,2.7c-2.7-0.54-3.78-3.78-4.32-6.48
					c-8.1-39.96-16.2-79.92-24.3-119.88"/>
			</g>
			<g>
				<path class="st8" d="M861.77,395.55c-16.2,3.24-31.86-8.64-42.39-22.14s-19.17-29.16-32.94-38.61
					c-12.42-8.37-28.62-10.8-42.66-5.94c-11.61,4.05-22.95,17.55-17.01,28.89c1.89,3.78,5.4,6.21,8.64,8.64
					c13.5,10.8,25.38,24.84,31.05,41.85c5.4,16.2,4.59,34.29,10.26,50.49c4.05,11.34,11.07,21.06,18.09,30.78
					c9.45,13.23,19.17,26.46,28.62,39.69c16.47-42.93,28.89-87.48,36.99-132.84"/>
			</g>
			<g>
				<g>
					<path class="st9" d="M737.57,362.61c9.45-8.91,20.79,3.51,25.38,11.34c5.94,10.53,11.07,21.6,16.74,32.4
						c11.88,22.41,24.84,44.28,38.34,65.88c2.7,4.32,9.72,0.27,7.02-4.05c-16.2-25.65-31.32-51.84-45.36-78.84
						c-5.67-10.8-10.53-24.3-20.52-32.13c-8.1-6.48-19.71-7.29-27.54,0C727.85,360.45,733.79,366.39,737.57,362.61L737.57,362.61z"
						/>
				</g>
			</g>
			<g>
				<g>
					<path class="st9" d="M1173.89,461.7c10.26-22.41,24.3-42.93,40.5-61.56c7.83-9.18,16.2-18.09,25.11-26.46
						c7.83-7.56,18.9-21.33,31.05-18.9c5.13,1.08,7.29-6.75,2.16-7.83c-12.42-2.43-22.14,5.4-30.78,13.23
						c-10.26,9.45-20.25,19.44-29.43,29.97c-18.09,20.25-34.02,42.66-45.36,67.23C1164.71,462.24,1171.46,466.56,1173.89,461.7
						L1173.89,461.7z"/>
				</g>
			</g>
			<g>
				<path class="st7" d="M849.08,400.14c8.37-22.41,18.09-48.87,40.23-77.49c15.39-19.71,47.79-60.75,97.2-65.34
					c15.39-1.35,31.05,1.62,45.9,6.48c31.59,10.26,61.29,27.81,83.97,53.19c17.82,19.98,24.84,44.82,40.5,92.88
					c9.72,29.97,3.78,27,12.15,52.65c12.15,37.8,24.84,52.11,27.27,86.13c0.54,8.37,0.54,15.12,0,28.62
					c-0.81,24.84-1.35,41.04-6.75,56.43c-5.94,17.01-15.93,27.54-27.27,38.88c-47.25,46.98-95.31,94.77-153.36,125.55
					c-4.59,2.43-9.72,4.86-14.85,4.32c-4.32-0.54-8.1-2.97-11.88-5.4c-69.39-46.44-140.67-99.36-175.77-177.66
					c-2.97-6.75-8.64-18.09-8.1-32.67c0.54-17.01,8.64-29.43,11.34-34.02C833.42,514.08,821.81,473.58,849.08,400.14z"/>
			</g>
			<g>
				<g>
					<path class="st9" d="M826.94,486c-0.27-0.27-0.54-0.54-0.81-0.81s-0.27-0.27,0,0c-0.27-0.54-0.81-1.08-1.08-1.62
						c-0.27-0.27-0.27-0.54-0.27-0.81c0.27,0.54,0,0.27,0-0.27c-0.27-0.54-0.27-1.35-0.54-1.89c0-0.27,0-0.54,0-0.81
						c0.27,0.81,0-0.27,0-0.27c0-0.54,0-1.08,0-1.62c0-0.27,0-0.54,0-0.81c0-0.54-0.27,0.54,0,0s0.27-1.35,0.54-1.89
						c0-0.27,0.54-0.81,0-0.27c0.27-0.27,0.27-0.54,0.27-0.81c0.27-0.54,0.54-1.08,0.81-1.35c0.27-0.27-0.27,0.54,0,0
						c0.27-0.27,0.54-0.54,0.81-0.81s0.54-0.27,0.54-0.54c0.27,0,0.81-0.54,0,0c0.54-0.27,0.81-0.54,1.35-0.81
						c0.27-0.27,0.54-0.27,0.81-0.27c0.54-0.27-0.54,0.27,0,0s1.08-0.27,1.89-0.54c0.27,0,1.08,0,0,0c0.27,0,0.54,0,1.08,0
						c2.16,0,4.05-1.89,4.05-4.05s-1.89-4.05-4.05-4.05c-7.02,0.27-13.23,4.86-15.66,11.61c-2.43,6.48-0.54,14.04,4.05,18.9
						c1.35,1.62,4.32,1.62,5.67,0C828.56,490.05,828.56,487.62,826.94,486L826.94,486z"/>
				</g>
			</g>
			<g>
				<path class="st10" d="M879.59,391.5c32.4,6.48,63.45,18.63,94.23,31.05c1.89,0.81,4.05,1.62,5.4,3.51
					c1.62,2.7,1.08,6.21,0.54,9.18c-2.16,9.72-4.05,19.44-6.21,28.89c-0.27,1.62-0.81,3.24-1.89,4.05s-2.7,0.54-4.05,0
					c-35.64-9.18-71.01-18.36-106.65-27.54c-1.89-0.54-4.05-1.35-4.59-3.24c-0.27-1.35,0.27-2.7,0.81-3.78
					c6.21-14.04,13.23-27.81,21.06-41.04"/>
			</g>
			<g>
				<path class="st10" d="M1023.77,428.22c0,11.88,0,23.76-0.27,35.64c0,1.35,0,2.97,1.08,4.05c1.08,1.08,2.97,0.81,4.32,0.81
					c38.61-6.21,76.41-16.74,112.86-31.32c1.89-0.81,4.05-1.62,4.86-3.51c1.08-2.16,0-4.86-0.81-7.29
					c-4.59-11.07-9.18-21.87-14.04-32.94c-1.35-2.97-2.7-6.21-5.67-7.56c-2.7-1.08-5.67-0.27-8.37,0.54
					c-27.54,8.37-54.81,18.36-82.08,28.35c-4.05,1.62-8.37,3.24-11.34,6.48s-4.05,8.91-1.08,12.42"/>
			</g>
			<ellipse class="st10" cx="936.56" cy="476.82" rx="20.52" ry="21.6"/>
			<g>
				<g>
					<path class="st11" d="M938.18,488.43c12.96,0,12.96-20.25,0-20.25C924.95,468.18,924.95,488.43,938.18,488.43L938.18,488.43z"
						/>
				</g>
			</g>
			<ellipse class="st10" cx="1073.45" cy="476.82" rx="20.52" ry="21.6"/>
			<g>
				<g>
					<path class="st11" d="M1070.48,488.43c12.96,0,12.96-20.25,0-20.25C1057.52,468.18,1057.52,488.43,1070.48,488.43
						L1070.48,488.43z"/>
				</g>
			</g>
			<g>
				<path class="st12" d="M940.88,603.99c7.56,5.4,12.42,0.54,25.11,5.4c12.69,4.86,11.34,9.99,22.41,15.12
					c12.69,5.67,28.08,3.78,39.15-4.59c3.51-2.7,6.48-5.94,10.26-8.1c4.32-2.43,9.45-3.24,14.04-5.13
					c8.1-3.51,14.31-11.61,15.93-20.79c1.62-9.18-1.35-19.17-7.83-25.38c-6.75-6.75-16.2-9.45-24.84-13.23
					c-9.45-4.32-18.36-10.53-28.35-12.96c-20.52-4.86-38.88,6.48-50.49,13.23c-13.77,8.1-23.22,13.77-25.92,25.65
					C927.92,584.01,932.24,597.78,940.88,603.99z"/>
			</g>
			<g>
				<g>
					<path class="st11" d="M890.39,692.82c70.74-25.11,147.69-26.73,219.51-4.32c4.86,1.62,7.02-6.21,2.16-7.83
						c-72.9-22.95-151.74-21.33-223.83,4.32C883.37,686.61,885.53,694.44,890.39,692.82L890.39,692.82z"/>
				</g>
			</g>
			<g>
				<g>
					<path class="st4" d="M882.83,844.83c3.24-0.81,6.48-1.89,9.45-2.7c1.08-0.27,1.89-1.08,2.43-1.89s0.81-2.16,0.54-3.24
						c-0.54-2.16-2.7-3.51-4.86-2.7c-3.24,0.81-6.48,1.89-9.45,2.7c-1.08,0.27-1.89,1.08-2.43,1.89s-0.81,2.16-0.54,3.24
						C878.51,844.29,880.67,845.64,882.83,844.83L882.83,844.83z"/>
				</g>
			</g>
			<g>
				<g>
					<path class="st4" d="M878.78,844.56c2.43,15.12-6.75,29.43-11.61,43.2c-5.67,15.66-5.13,32.4-4.05,48.87
						c0.27,5.13,8.37,5.13,8.1,0c-1.08-17.55-1.08-34.29,5.4-51.03c5.67-14.04,12.69-27.54,9.99-43.2
						C885.53,837.27,877.7,839.43,878.78,844.56L878.78,844.56z"/>
				</g>
			</g>
			<g>
				<g>
					<path class="st4" d="M896.33,860.22c0.81-4.59,0.54-9.45-0.81-14.04c-0.27-1.35-1.35-2.43-2.7-2.7c-0.81-0.27-1.35-0.27-2.16,0
						s-1.35,0.54-1.89,1.08c-1.35,1.08-2.43,2.97-2.97,4.86c-0.27,0.81-0.27,1.89-0.27,2.7c0.27,1.35,0.54,2.43,1.08,3.78
						c0.27,0.81,1.62,1.62,2.43,1.89c1.08,0.27,2.16,0.27,3.24-0.54c0.81-0.54,1.62-1.35,1.89-2.43s0-2.16-0.54-3.24c0,0,0,0,0-0.27
						c0.27,0.27,0.27,0.54,0.54,1.08c-0.27-0.27-0.27-0.81-0.27-1.35c0,0.27,0,0.81,0.27,1.08c0-0.54,0-1.08,0-1.35
						c0,0.27,0,0.81-0.27,1.08c0-0.54,0.27-0.81,0.27-1.35c-0.27,0.27-0.27,0.54-0.54,1.08c0.27-0.54,0.54-0.81,0.81-1.35
						c-0.27,0.27-0.54,0.54-0.54,0.81c0.27-0.27,0.54-0.54,0.81-0.81c-2.16-0.54-4.59-1.08-6.75-1.89c0.27,1.35,0.81,2.7,0.81,4.05
						c0-0.27,0-0.81-0.27-1.08c0.27,2.43,0.27,4.59,0,7.02c0-0.27,0-0.81,0.27-1.08c0,0.27,0,0.54,0,0.54
						c-0.27,1.08-0.27,2.16,0.54,3.24c0.54,0.81,1.35,1.62,2.43,1.89c1.08,0.27,2.16,0.27,3.24-0.54
						C895.25,862.11,896.06,861.03,896.33,860.22L896.33,860.22z"/>
				</g>
			</g>
			<g>
				<g>
					<path class="st4" d="M876.08,840.78c0,4.86,0,9.72,0,14.31c0,2.16,1.89,4.05,4.05,4.05s4.05-1.89,4.05-4.05
						c0-4.86,0-9.72,0-14.31c0-2.16-1.89-4.05-4.05-4.05C877.97,836.73,876.08,838.35,876.08,840.78L876.08,840.78z"/>
				</g>
			</g>
			<g>
				<g>
					<path class="st13" d="M957.89,841.59c13.23-17.28,38.88-24.57,59.94-17.28c8.64,2.97,16.74,8.37,21.6,15.66
						c6.75,10.26,7.02,23.49,7.29,35.64c0,6.21,0,12.69-3.24,18.09c-3.24,5.94-9.72,9.45-15.93,12.42
						c-11.07,5.4-22.95,9.99-35.1,10.26s-25.38-3.78-32.94-13.5c-2.43-3.24-4.32-6.75-5.67-10.53c-7.02-19.44-3.24-42.12,9.72-58.59
						"/>
				</g>
				<g>
					<path class="st4" d="M972.74,861.03c4.86-5.4,9.99-10.8,16.47-14.04s14.85-4.05,21.06-0.27c7.29,4.59,9.72,13.77,10.8,22.14
						c0.81,5.94,1.08,12.69-2.7,17.28c-3.51,4.05-9.45,5.4-14.85,6.21c-5.67,0.81-11.61,1.35-17.01,0
						c-7.29-1.89-13.5-7.56-15.66-14.58s-0.27-15.12,4.86-20.52"/>
				</g>
			</g>
			<g>
				<path class="st14" d="M1059.14,876.96c17.55,19.71,19.44,47.79,18.63,73.44c0,1.08,0,2.43,0.81,3.51
					c1.35,1.62,4.05,1.08,6.21,0.54c17.55-5.67,34.83-11.07,52.38-16.74c2.97-1.08,6.48-2.43,6.75-5.67s-3.51-5.4-6.48-7.02
					c-8.1-4.86-13.5-12.96-16.74-21.33c-3.51-8.37-5.13-17.55-7.56-26.19c-0.54-1.62-1.08-3.24-2.43-4.32
					c-1.62-1.08-3.78-1.08-5.94-0.81c-15.39,1.08-30.78,2.16-46.17,3.24"/>
				<g>
					<path class="st14" d="M1057.79,878.31c12.69,14.31,17.01,33.48,17.82,52.11c0.27,4.32,0.27,8.91,0.27,13.23
						c0,3.24-1.35,8.37,0.81,11.07c1.62,2.43,4.86,2.43,7.56,1.62c5.67-1.35,11.34-3.51,17.01-5.4
						c10.53-3.51,21.06-6.75,31.86-10.26c4.86-1.62,15.66-4.05,12.69-11.61c-1.08-2.97-4.32-4.59-7.02-6.21
						c-4.59-2.97-8.37-6.75-11.34-11.34c-5.67-8.64-8.1-18.9-10.53-28.89c-1.08-3.78-1.35-9.45-5.13-11.88
						c-4.05-2.7-10.8-0.81-15.12-0.54c-12.69,0.81-25.11,1.89-37.8,2.7c-2.7,0.27-2.7,4.32,0,4.05c9.99-0.81,19.71-1.35,29.7-2.16
						c4.32-0.27,8.91-0.54,13.23-1.08c1.62,0,4.05-0.81,5.67-0.27c4.05,0.81,4.32,5.4,5.13,8.64c4.05,15.12,7.56,31.86,20.79,41.85
						c2.16,1.62,11.07,5.4,7.56,9.18c-1.35,1.35-3.78,1.89-5.67,2.43c-2.7,0.81-5.4,1.62-7.83,2.43c-8.91,2.97-18.09,5.67-27,8.64
						c-4.86,1.62-9.45,2.97-14.31,4.59c-2.7,0.81-5.13,2.43-5.94-1.62c-0.54-1.89,0.27-4.59,0.27-6.48c0-7.56,0-15.12-1.08-22.68
						c-1.89-16.74-7.02-32.94-18.36-45.63C1058.87,873.72,1055.9,876.42,1057.79,878.31L1057.79,878.31z"/>
				</g>
			</g>
			<g>
				
					<linearGradient id="SVGID_1_" gradientUnits="userSpaceOnUse" x1="732.7603" y1="753.9783" x2="796.1207" y2="76.3054" gradientTransform="matrix(1 0 0 -1 0 1080)">
					<stop  offset="0" style="stop-color:#FFFFFF"/>
					<stop  offset="9.692743e-04" style="stop-color:#F9F7F4"/>
					<stop  offset="4.716451e-03" style="stop-color:#E3DCD0"/>
					<stop  offset="8.934713e-03" style="stop-color:#D0C4B0"/>
					<stop  offset="0.0136" style="stop-color:#C0B094"/>
					<stop  offset="0.0189" style="stop-color:#B3A07E"/>
					<stop  offset="0.025" style="stop-color:#A9936D"/>
					<stop  offset="0.0326" style="stop-color:#A28A62"/>
					<stop  offset="0.0433" style="stop-color:#9E855B"/>
					<stop  offset="0.0729" style="stop-color:#9D8459"/>
					<stop  offset="0.2763" style="stop-color:#997F52"/>
					<stop  offset="0.5732" style="stop-color:#8D703E"/>
					<stop  offset="0.926" style="stop-color:#7A581F"/>
					<stop  offset="1" style="stop-color:#755217"/>
				</linearGradient>
				<path class="st15" d="M749.45,367.47c12.42,51.84,17.28,105.03,22.14,158.22c9.99,110.7,20.25,221.4,30.24,332.37
					c5.67,62.1,11.61,125.01,34.83,183.33c-24.84,0.81-49.68,0-74.25-2.43c9.45-113.4-4.86-227.34-18.9-340.2
					c-4.59-36.72-9.18-73.44-13.77-110.16c-5.94-48.33-12.15-96.93-19.98-144.99c-5.4-31.86-9.99-68.85,12.96-92.61
					c1.08-1.08,2.16-2.16,3.51-2.16c2.43-0.27,4.32,1.62,5.94,3.51c6.75,8.1,13.23,16.2,19.98,24.57"/>
			</g>
			<g>
				<path class="st16" d="M672.5,421.74c16.47-12.69,32.94-25.38,49.68-38.07c1.35-1.08,2.97-2.16,4.86-2.16
					c1.35,0,2.7,1.08,3.78,1.89c14.04,10.8,27.81,21.6,41.85,32.4c0.54-9.99,0.81-19.71,1.35-29.7c0-2.7,0.54-5.94,2.43-7.83
					c1.35-1.08,2.97-1.62,4.59-2.16c6.21-2.7,9.45-9.18,10.26-15.66s-0.81-12.96-2.43-19.17c-22.68-95.85-38.34-193.05-46.71-291.06
					c-22.68,33.75-48.87,74.79-76.95,122.58c0,0-27,45.9-44.28,136.08c-0.27,1.89-1.08,5.94,1.35,9.18
					c2.97,4.05,8.91,4.32,12.42,4.86c15.66,2.7,25.92,19.44,28.89,24.57c5.67,9.45,5.94,18.9,6.75,37.53
					c0.54,14.58-0.27,26.73-1.35,35.1"/>
			</g>
			<g>
				
					<linearGradient id="SVGID_2_" gradientUnits="userSpaceOnUse" x1="647.8123" y1="671.8447" x2="642.3477" y2="767.4166" gradientTransform="matrix(1 0 0 -1 0 1080)">
					<stop  offset="0.2591" style="stop-color:#BDB77A"/>
					<stop  offset="0.4024" style="stop-color:#BAB576"/>
					<stop  offset="0.5324" style="stop-color:#B3AD6B"/>
					<stop  offset="0.6571" style="stop-color:#A5A159"/>
					<stop  offset="0.7787" style="stop-color:#93903F"/>
					<stop  offset="0.8968" style="stop-color:#7B7A1E"/>
					<stop  offset="0.9849" style="stop-color:#666600"/>
				</linearGradient>
				<path class="st17" d="M648.47,417.69c5.4,1.08,10.53,2.43,15.93,3.51c0.54,0,1.08-0.27,1.62-0.27c1.62-0.27,3.51-0.54,4.59-1.62
					s1.08-2.43,1.35-3.78c1.89-22.68,1.62-45.9-7.83-67.23c-8.1-18.09-24.84-33.21-45.63-39.42c-0.54,3.24-1.08,6.48-1.89,9.72
					c21.6,28.89,33.75,62.91,32.13,97.47C648.47,416.61,648.47,417.15,648.47,417.69z"/>
			</g>
		</g>
	</g>
</g>
</svg>
