<?xml version="1.0" encoding="utf-8"?>
<!-- Generator: Adobe Illustrator 23.0.5, SVG Export Plug-In . SVG Version: 6.00 Build 0)  -->
<svg version="1.1" id="圖層_1" xmlns="http://www.w3.org/2000/svg" xmlns:xlink="http://www.w3.org/1999/xlink" x="0px" y="0px"
	 viewBox="0 0 1920 1080" style="enable-background:new 0 0 1920 1080;" xml:space="preserve">
<style type="text/css">
	.st0{fill:#9BC0B9;}
	.st1{fill:#E2EFF5;}
	.st2{fill:#F4EED4;}
	.st3{fill:#A6B66D;}
	.st4{fill:#5D834A;}
	.st5{fill:#EB915F;}
	.st6{fill:#A15F45;}
</style>
<rect y="-3" class="st0" width="1919" height="1079"/>
<g>
	<path class="st1" d="M175.57,243.38c-8.59-5.51-8.56-17.84-7.56-27.99c1.26-12.73,2.94-26.41,11.58-35.84
		c11.6-12.65,31.13-12.99,48.25-11.86c8.84,0.58,17.76,1.33,26.19,4.05c26.07,8.44,43.65,37.52,39,64.53
		c31.33,1.58,64.83,3.92,89.67,23.09c3.54,2.73,7.11,6.35,7.08,10.82c-0.03,4.17-3.36,7.73-7.2,9.34s-8.13,1.67-12.29,1.71
		c-86.38,0.78-172.95,1.55-258.92-6.87c-4.9-0.48-10.79-1.75-12.34-6.42c-0.71-2.13-0.25-4.5,0.64-6.56
		c4.93-11.39,19.97-13.35,32.38-13.64c15.54-0.37,31.08-0.74,46.63-1.1"/>
</g>
<path class="st2" d="M1928,971H2c0.68-114.33,1.35-228.67,2.03-343c110.16-29.01,203.35-37.8,270.51-40
	c35.99-1.18,180.28-5.9,316.1,25c14.92,3.39,44.96,10.68,87.13,15c70.24,7.19,122.34,0.85,149.95-2
	c54.03-5.57,211.87-21.85,372.84,9c67.81,13,85.81,24.7,140.83,24c83.76-1.07,89.43-28.8,173.25-28c70.02,0.67,99.06,20.33,151.97,0
	c31.53-12.11,36.56-24.99,61.8-38c35.85-18.48,95.73-28.59,199.59,15C1928,729,1928,850,1928,971z"/>
<g>
	<path class="st3" d="M1928,1081H-8V893c162.89-7.8,248.29-4.62,296.45,0c11.96,1.15,49.66,5.08,100.83,5
		c48.32-0.07,83.97-3.68,97.81-5c234.72-22.39,429.55-5,429.55-5c29.07,2.6,63.17,6.47,115.96,8c25.13,0.73,77.7,1.6,147.22-3
		c67.53-4.47,110.96-11.45,139.15-15c102.48-12.9,153.61,0.72,366.03,20c56.57,5.14,138.99,11.98,239.98,18
		C1925.98,971,1926.99,1026,1928,1081z"/>
	<path class="st4" d="M859.17,1041c-1.35,30.15-366.02,37.43-444.68,39c-175.37,3.5-320.88-1.04-422.49-6c0-57.67,0-115.33,0-173
		c254.94-6.18,461.4-4.38,612.06-1c66.72,1.5,121.93,3.29,122.01,7c0.27,12.53-630.5,32.25-630.21,44c0.06,2.39,26.27,2.5,100.83,7
		c90.58,5.47,116.82,9.25,248.05,20c54.57,4.47,132.09,10.54,226.87,17C826.1,1017.37,859.58,1031.77,859.17,1041z"/>
	<path class="st4" d="M1928,1081c-166.38,0-332.75,0-499.13,0c-106.85-28.2-178.96-66-175.45-93c3.3-25.39,73.63-42.37,162.34-47
		c65.5-7.34,140.75-11.61,223.85-9c110.99,3.48,208.26,18.35,288.38,36C1928,1005.67,1928,1043.33,1928,1081z"/>
</g>
<g>
	<path class="st5" d="M673,1022c-5.41,15.65-49.22,13.71-88,12c-39.32-1.74-66.78-2.95-74-19c-8.76-19.49,14.74-55.51,44-66
		C609.35,929.51,680.93,999.06,673,1022z"/>
	<path class="st6" d="M673,1023c0.23,1.2-1.07,3.27-9,7c-6.24,1.96-15.53,4.47-27,6c-12.04,1.61-18.36,1.05-52-1
		c-28.76-1.75-38.55-2.23-53-7c-16.98-5.61-20.11-10.45-21-12c-6.52-11.34,0.81-30.47,18-49c4.07,10.87,11.77,26.44,27,38
		C599.04,1037.67,671.48,1014.92,673,1023z"/>
</g>
<g>
	<path class="st5" d="M1281.27,954.36c-6.53,13.18-59.48,11.55-106.35,10.11c-47.52-1.46-80.71-2.49-89.43-16
		c-10.59-16.42,17.81-46.75,53.17-55.59C1204.35,876.45,1290.85,935.03,1281.27,954.36z"/>
	<path class="st6" d="M1281.27,955.2c0.27,1.01-1.3,2.76-10.88,5.9c-7.54,1.65-18.77,3.76-32.63,5.05
		c-14.56,1.35-22.18,0.89-62.84-0.84c-34.76-1.48-46.58-1.87-64.05-5.9c-20.52-4.72-24.3-8.8-25.38-10.11
		c-7.88-9.55,0.98-25.66,21.75-41.27c4.92,9.16,14.23,22.27,32.63,32.01C1191.89,967.55,1279.43,948.39,1281.27,955.2z"/>
</g>
<g>
	<path class="st5" d="M1670.22,1000.61c-6.96,18.15-63.36,15.9-113.28,13.92c-50.61-2.01-85.97-3.42-95.26-22.04
		c-11.28-22.6,18.97-64.38,56.64-76.55C1588.29,893.34,1680.42,974.01,1670.22,1000.61z"/>
	<path class="st6" d="M1670.22,1001.77c0.29,1.39-1.38,3.8-11.59,8.12c-8.03,2.27-19.99,5.18-34.76,6.96
		c-15.51,1.86-23.63,1.22-66.94-1.16c-37.03-2.03-49.62-2.58-68.23-8.12c-21.86-6.5-25.88-12.12-27.03-13.92
		c-8.4-13.15,1.05-35.34,23.17-56.83c5.24,12.61,15.16,30.67,34.76,44.07C1575.02,1018.79,1668.26,992.41,1670.22,1001.77z"/>
</g>
<g>
	<path class="st1" d="M668.57,158.38c-8.59-5.51-8.56-17.84-7.56-27.99c1.26-12.73,2.94-26.41,11.58-35.84
		c11.6-12.65,31.13-12.99,48.25-11.86c8.84,0.58,17.76,1.33,26.19,4.05c26.07,8.44,43.65,37.52,39,64.53
		c31.33,1.58,64.83,3.92,89.67,23.09c3.54,2.73,7.11,6.35,7.08,10.82c-0.03,4.17-3.36,7.73-7.2,9.34
		c-3.84,1.61-8.13,1.67-12.29,1.71c-86.38,0.78-172.95,1.55-258.92-6.87c-4.9-0.48-10.79-1.75-12.34-6.42
		c-0.71-2.13-0.25-4.5,0.64-6.56c4.93-11.39,19.97-13.35,32.38-13.64c15.54-0.37,31.08-0.74,46.63-1.1"/>
</g>
<g>
	<path class="st1" d="M1076.57,249.22c-5.35-3.56-5.33-11.54-4.71-18.1c0.79-8.23,1.83-17.08,7.21-23.18
		c7.22-8.18,19.39-8.4,30.06-7.67c5.51,0.38,11.06,0.86,16.31,2.62c16.24,5.46,27.19,24.27,24.29,41.74
		c19.52,1.02,40.38,2.54,55.85,14.93c2.21,1.77,4.43,4.1,4.41,7c-0.02,2.69-2.09,5-4.48,6.04s-5.06,1.08-7.66,1.11
		c-53.8,0.5-107.73,1-161.28-4.44c-3.05-0.31-6.72-1.13-7.69-4.15c-0.44-1.38-0.16-2.91,0.4-4.24c3.07-7.37,12.44-8.63,20.17-8.82
		c9.68-0.24,19.36-0.48,29.04-0.71"/>
</g>
<g>
	<path class="st1" d="M1489.65,103.17c-9.15-5.15-9.13-16.68-8.06-26.17c1.35-11.9,3.13-24.7,12.34-33.52
		c12.36-11.83,33.18-12.15,51.44-11.09c9.42,0.54,18.94,1.24,27.92,3.79c27.8,7.89,46.53,35.09,41.57,60.35
		c33.4,1.48,69.11,3.67,95.59,21.59c3.77,2.56,7.58,5.93,7.55,10.12c-0.03,3.9-3.58,7.23-7.68,8.74c-4.09,1.51-8.67,1.57-13.11,1.6
		c-92.08,0.73-184.37,1.45-276.02-6.43c-5.22-0.45-11.5-1.63-13.16-6c-0.76-1.99-0.27-4.21,0.68-6.13
		c5.26-10.65,21.29-12.49,34.51-12.76c16.57-0.34,33.14-0.69,49.7-1.03"/>
</g>
</svg>
