<?xml version="1.0" encoding="utf-8"?>
<!-- Generator: Adobe Illustrator 23.0.5, SVG Export Plug-In . SVG Version: 6.00 Build 0)  -->
<svg version="1.1" xmlns="http://www.w3.org/2000/svg" xmlns:xlink="http://www.w3.org/1999/xlink" x="0px" y="0px"
	 viewBox="0 0 1920 1080" style="enable-background:new 0 0 1920 1080;" xml:space="preserve">
<style type="text/css">
	.st0{fill:#FFFEE7;}
	.st1{fill:#161849;}
	.st2{fill:#88ADC4;}
	.st3{fill:#FE3E2D;}
	.st4{fill:#FFFFFF;}
	.st5{fill:#C8392F;}
	.st6{fill:#122056;}
	.st7{fill:#99AEBB;}
	.st8{fill:#FEFDE4;}
</style>
<g id="圖層_1">
</g>
<g id="圖層_2">
	<g>
		<g>
			<path class="st0" d="M894.51,275.07c51-6.62,100.4-26.82,142.5-58.25c13.65-10.19,27.05-22.26,33.31-38.74
				c4.34-11.44,4.87-24.05,6.48-36.27c4-30.25,15.33-59.78,34.47-82.49s46.4-38.14,75-39.54c41.57-2.03,82.7,28.21,95.75,70.37
				c1.66,5.35,3.62,11.67,8.67,13.3c3.3,1.06,6.79-0.33,10.05-1.49c37.13-13.1,82,8.67,97.16,47.14c1.38,3.49,2.75,7.36,5.83,9.25
				c3.19,1.95,7.16,1.13,10.78,0.42c18.59-3.64,38.39-2.61,55.53,5.91c23.97,11.92,40.2,37.25,48.33,64.11
				c8.14,26.85,9.23,55.47,10.25,83.67c0.7,19.19,1.26,39.18-6.12,56.69c-7.06,16.74-20.68,29.35-35.17,39.24
				c-32.22,21.99-70.87,33.08-109.07,31.3c-4.64-0.22-9.67-0.51-13.54,2.23c-4.06,2.88-5.69,8.27-7.19,13.22
				c-8.28,27.46-21.09,54.51-42.43,72.22c-12.91,10.72-28.35,17.5-44.13,22.11c-29.01,8.48-60.22,9.86-89.08,0.8
				s-55.12-29.05-70.06-56.91c-12.58-23.46-16.81-51.24-29.66-74.54c-26.22-47.57-81.02-65.93-130.92-80.43
				c-22.15-6.44-44.31-12.88-66.46-19.33c-2.93-0.85-6.09-1.86-7.9-4.46c-1.5-2.14-1.78-4.95-2.02-7.62
				c-0.9-10.15-1.79-20.29-2.69-30.44c5.94-4.34,13.69-5.74,20.63-3.72"/>
		</g>
		<g>
			<g>
				<path class="st1" d="M1036.53,274.75c17.97-4.03,35.79-8.69,53.43-13.98c5.06-1.52,10.1-3.09,15.13-4.7
					c1.54-0.5,2.54-2.08,2.1-3.69c-0.42-1.51-2.14-2.59-3.69-2.1c-17.54,5.64-35.27,10.68-53.17,15.07
					c-5.12,1.26-10.25,2.46-15.39,3.61c-1.58,0.36-2.51,2.18-2.1,3.69C1033.29,274.28,1034.95,275.1,1036.53,274.75L1036.53,274.75z
					"/>
			</g>
		</g>
		<g>
			<g>
				<path class="st1" d="M1037.08,310.8c20.94,0,41.88,0,62.82,0c3.86,0,3.87-6,0-6c-20.94,0-41.88,0-62.82,0
					C1033.22,304.8,1033.21,310.8,1037.08,310.8L1037.08,310.8z"/>
			</g>
		</g>
		<g>
			<g>
				<path class="st1" d="M1153.71,191.55c-5.15,15.33-0.94,32.61,8.45,45.41c4.8,6.54,10.83,12.06,17.97,15.94
					c8.16,4.43,17.2,6.81,26.43,7.56c9.1,0.74,18.33-0.21,27.21-2.25c8.73-2,17.83-4.9,25.12-10.26
					c14.62-10.76,17.98-29.24,19.03-46.28c0.54-8.7,0.84-17.51,0.11-26.2c-0.73-8.68-2.53-17.43-6.89-25.06
					c-1.08-1.9-2.34-3.66-3.69-5.37c-1.01-1.27-3.19-1.05-4.24,0c-1.26,1.26-1.01,2.97,0,4.24c4.83,6.12,7.14,13.8,8.28,21.42
					c1.22,8.08,1.05,16.4,0.74,24.56c-0.3,7.97-0.79,15.92-2.56,23.69c-1.67,7.35-4.49,14.57-9.66,20.09
					c-5.75,6.14-13.68,9.41-21.59,11.75c-8.14,2.41-16.55,3.85-25.05,3.92c-8.39,0.07-16.73-1.25-24.56-4.32
					c-7.12-2.8-13.23-7.02-18.32-12.62c-4.76-5.24-8.53-11.67-10.72-18.38c-2.21-6.78-2.99-14.03-1.69-20.87
					c0.35-1.82,0.82-3.61,1.41-5.37c0.52-1.54-0.59-3.28-2.1-3.69C1155.76,189.01,1154.22,190.01,1153.71,191.55L1153.71,191.55z"/>
			</g>
		</g>
		<g>
			<g>
				<path class="st1" d="M1121.96,384.99c4.84,12.43,12.84,23.36,23.47,31.45c11.4,8.67,25.34,12.94,39.41,14.62
					c14.03,1.68,29.25,1.35,41.87-5.75c11.09-6.24,19.13-16.87,23.81-28.54c6.19-15.46,6.03-32.98,2.18-48.99
					c-0.9-3.75-6.69-2.16-5.79,1.6c3.26,13.54,3.6,27.98-0.59,41.36c-3.35,10.68-9.96,20.85-19.19,27.24
					c-11.01,7.62-24.52,8.57-37.49,7.56c-13.12-1.02-26.28-4.35-37.4-11.6c-11.09-7.23-19.7-18.24-24.5-30.54
					c-0.59-1.51-2.01-2.56-3.69-2.1C1122.62,381.69,1121.37,383.47,1121.96,384.99L1121.96,384.99z"/>
			</g>
		</g>
	</g>
	<rect x="629.22" y="266.62" class="st2" width="200.66" height="64.09"/>
	<path class="st3" d="M817.15,1067H605.34c-26.44,0-47.88-22.88-47.88-51.1V451.09c22.4-66.71,79.17-112.97,143.54-117.24
		c71.31-4.73,138.77,42.94,164.04,117.24c0,188.27,0,376.54,0,564.81C865.03,1044.12,843.59,1067,817.15,1067z"/>
	<g>
		<rect x="601.39" y="554.26" class="st4" width="221.16" height="218.85"/>
		<g>
			<rect x="636.55" y="585.91" class="st5" width="24.9" height="26.58"/>
			<rect x="681.95" y="592.95" class="st6" width="118.64" height="12.51"/>
		</g>
		<g>
			<rect x="636.55" y="625" class="st5" width="24.9" height="26.58"/>
			<rect x="681.95" y="632.03" class="st6" width="118.64" height="12.51"/>
		</g>
		<g>
			<rect x="636.55" y="664.08" class="st5" width="24.9" height="26.58"/>
			<rect x="681.95" y="671.11" class="st6" width="118.64" height="12.51"/>
		</g>
		<g>
			<rect x="635.08" y="703.16" class="st5" width="24.9" height="26.58"/>
			<rect x="680.49" y="710.19" class="st6" width="118.64" height="12.51"/>
		</g>
	</g>
	<path class="st3" d="M758.11,388.56H655.59V285.37c0-26.53,13.13-51.07,34.53-64.56c62.99-39.7,177.23-105.56,211.53-82.37
		c1.98,1.34,6.31,4.27,7.32,9.38c4.88,24.67-74.92,63.65-150.86,95.36V388.56z"/>
	<ellipse class="st2" cx="711.24" cy="299.45" rx="36.62" ry="39.08"/>
	<rect x="826.95" y="246.3" class="st2" width="77.63" height="104.74"/>
	<path class="st2" d="M531.09,698.08c-13.67,0.52-27.34,1.04-41.01,1.56c-2.6-35.33-5.46-85.93-5.86-146.94
		c-1.02-156.03,15.28-188.05,26.36-204.78c12.24-18.47,43.62-56.8,118.64-73.47c0.49,16.67,0.98,33.35,1.46,50.02
		c-16.42,0.6-39.07,4.42-58.59,20.32c-27.81,22.66-37.36,60.19-42.47,146.94C526.52,544.5,525.1,614.68,531.09,698.08z"/>
	<rect x="462.25" y="690.26" class="st3" width="87.88" height="51.59"/>
	<path class="st7" d="M558.92,912.24c-35.64-0.52-71.28-1.04-106.92-1.56c4.39-56.8,8.79-113.6,13.18-170.39h82.02
		C551.11,797.6,555.01,854.92,558.92,912.24z"/>
	<ellipse class="st8" cx="1300.76" cy="29.79" rx="24.17" ry="25.79"/>
	<ellipse class="st8" cx="1379.85" cy="56.37" rx="24.17" ry="25.79"/>
	<ellipse class="st8" cx="1379.85" cy="509.71" rx="24.17" ry="25.79"/>
	<ellipse class="st8" cx="1168.95" cy="630.08" rx="24.17" ry="25.79"/>
	<ellipse class="st8" cx="985.86" cy="497.2" rx="24.17" ry="25.79"/>
	<ellipse class="st8" cx="1442.83" cy="103.27" rx="24.17" ry="25.79"/>
</g>
</svg>
