<?xml version="1.0" encoding="utf-8"?>
<!-- Generator: Adobe Illustrator 23.0.5, SVG Export Plug-In . SVG Version: 6.00 Build 0)  -->
<svg version="1.1" id="圖層_1" xmlns="http://www.w3.org/2000/svg" xmlns:xlink="http://www.w3.org/1999/xlink" x="0px" y="0px"
	 viewBox="0 0 1920 1080" style="enable-background:new 0 0 1920 1080;" xml:space="preserve">
<style type="text/css">
	.st0{fill:#87593A;}
	.st1{fill:#7F8E92;}
	.st2{fill:#F9B622;}
	.st3{fill:#DDEFF4;}
	.st4{fill:#788C8E;}
	.st5{fill:#474143;}
	.st6{fill:#C21824;}
	.st7{fill:#280811;}
	.st8{fill:#A1A9AC;}
	.st9{fill:#26080B;}
	.st10{fill:#889398;}
	.st11{fill:#2C0A0E;}
	.st12{fill:#FDFDFD;}
	.st13{fill:url(#SVGID_1_);}
	.st14{fill:#2A0914;}
	.st15{fill:#FDFBFC;}
	.st16{fill:#290C14;}
	.st17{fill:#2B0C14;}
	.st18{fill:#FCFCFC;}
	.st19{fill:#280E14;}
	.st20{fill:#FFFFFF;}
	.st21{fill:#EEF8FB;}
	.st22{fill:#FAFBFA;}
</style>
<g>
	<g>
		<path class="st0" d="M664.76,355.29c68.32,221.96,103.87,455.58,158.45,682.66c0.75,3.13,1.68,6.54,4.03,8.29
			c1.81,1.35,4.09,1.4,6.23,1.42c14.76,0.1,29.51,0.21,44.27,0.31c1.54,0.01,3.24-0.04,4.39-1.24c1.29-1.34,1.42-3.6,1.4-5.61
			c-0.21-18.94-5.98-37.12-11.81-54.79c-24.81-75.2-52.22-149.46-70.88-227.05c-15.14-62.96-24.39-127.6-36.11-191.54
			c-16.8-91.64-38.72-181.99-65.56-270.31c-13.78,4.51-26.97,11.48-38.96,20.61c-3.59,2.73-7.27,5.94-8.73,10.65
			c-4.4,14.15,13.26,24.48,16.04,39.18"/>
	</g>
	<g>
		<path class="st1" d="M585.59,181.71c1.9-5.05,8.6-4.37,12.13-0.71c3.54,3.66,5.43,9.1,8.93,12.8c4.12,4.37,9.91,5.78,15.42,6.63
			c23.35,3.62,47.73,0.15,68.9-11.9c21.17-12.05,38.89-32.96,47.31-58.63c14.38,66.31,28.76,132.63,43.14,198.94
			c-14.44-13.25-33.92-17.63-52.11-14.74s-35.21,12.51-50.29,24.73c-23.56,19.1-42.89,44.53-59.85,71.54
			c-28.45-61.9-34.34-134.05-39.69-204.02c-0.49-6.39-0.96-12.96,0.64-19.1c1.61-6.13,5.82-11.79,11.27-12.54"/>
	</g>
	<g>
		<path class="st2" d="M862.5,684.22c-22.28-18.39-50.94-37.46-75.08-22.61c-15.39,9.47-23.03,29.79-29.4,48.69
			c-36.87,109.38-68.68,221.08-95.24,334.45c226.35,7.08,452.87,7,679.22-0.24c-4.07-50.1-17.22-98.51-30.29-146.47
			c-8.61-31.59-17.22-63.19-25.83-94.79c-5.09-18.68-10.23-37.48-18.18-54.75c-22.19-48.21-65.71-80.62-111.89-90.05
			c-17.98-3.67-37.95-3.64-52.75,8.85c-5.28,4.45-9.61,10.28-14.84,14.81c-8.54,7.41-19.02,11.02-29.28,14.33
			c-32.76,10.58-66.25,19.7-100.24,19.61c-33.99-0.09-68.84-10.08-95.69-34.41"/>
	</g>
	<g>
		<path class="st3" d="M865.01,775.99c48.07,36.88,92.41,80.36,131.83,129.26c25.34-18.86,46.08-44.81,68.1-68.69
			s46.4-46.42,75.31-55.98c2.84-0.94,6.08-1.68,8.56,0.17c3.03,2.26,3.41,7.17,3.4,11.36c-0.05,18.05-1.53,36.15-0.17,54.13
			c2.46,32.39,14.04,62.89,18.71,94.94c4.74,32.49,2.29,65.76-0.17,98.59c-0.15,1.97-0.43,4.21-1.85,5.29
			c-0.84,0.64-1.9,0.71-2.9,0.75c-90.55,4.33-181.23,5.03-271.82,2.1c-1.49-0.05-4.7,0-8.49-1.61
			c-11.17-4.75-20.3-20.49-28.03-70.86c-4-26.05-4.75-41.75-6.34-64.47c-6.06-86.94-17.36-120.63-2.55-132.46
			c2.93-2.34,8.46-5.08,18.9-2.51"/>
	</g>
	<g>
		<path class="st4" d="M1003.29,925.08c22.22-23.39,45.77-47.17,70.68-71.16c24.92-23.99,49.41-46.47,73.32-67.5
			c11.78,67.37,19.95,121.34,25.86,157.25c0,0,1.82,11.04-1.13,76.27c-0.14,3.07-0.57,9.74-4.6,14.61
			c-4.33,5.23-11.37,5.49-17.63,5.4c-49.61-0.71-99.22-1.42-148.82-2.13c-1.78-0.03-3.78-0.16-4.95-1.7
			c-1.26-1.65-1.17-3.98-1.14-4.76c0.19-5.06,0.32-39.53,0.5-87.77C998.02,937.43,1000.65,931.26,1003.29,925.08z"/>
	</g>
	<g>
		<g>
			<path class="st5" d="M1046.9,911.18c-0.64,1.12-1.28,2.24-1.92,3.35c-0.1,0.17,0.16,0.32,0.26,0.15
				c0.64-1.12,1.28-2.24,1.92-3.35C1047.25,911.16,1046.99,911.01,1046.9,911.18L1046.9,911.18z"/>
		</g>
	</g>
	<g>
		<g>
			<path class="st5" d="M1058.54,1023.38c14.86-4.36,29.04-10.8,42.18-18.99c0.16-0.1,0.01-0.36-0.15-0.26
				c-13.12,8.17-27.27,14.61-42.1,18.95C1058.28,1023.15,1058.35,1023.44,1058.54,1023.38L1058.54,1023.38z"/>
		</g>
	</g>
	<g>
		<g>
			<path class="st5" d="M857.36,792.88c0.19,0,0.19-0.3,0-0.3C857.17,792.58,857.17,792.88,857.36,792.88L857.36,792.88z"/>
		</g>
	</g>
	<g>
		<g>
			<path class="st5" d="M1139.94,806.3c0.19,0,0.19-0.3,0-0.3C1139.75,806,1139.75,806.3,1139.94,806.3L1139.94,806.3z"/>
		</g>
	</g>
	<g>
		<path class="st6" d="M884.04,632.49c-18.77,11.96-36.02,27.14-51.05,44.9c43.78,60.01,105.23,98.94,151.99,155.8
			c1.37,1.66,2.83,3.42,4.74,3.98c2.44,0.72,4.93-0.66,7.16-2.03c59.57-36.61,110.34-89.67,160.33-142.31
			c2.68-2.82,5.61-6.55,4.71-10.63c-0.35-1.61-1.28-2.96-2.17-4.25c-12.06-17.35-24.11-34.7-36.17-52.05
			c-1.87-2.69-3.82-5.46-6.47-7.03c-3.23-1.91-7.03-1.77-10.64-1.5c-37.84,2.81-74.76,14.92-112.5,19.28
			c-35.62,4.12-71.83,1.24-106.65-8.47"/>
	</g>
	<g>
		<path class="st7" d="M875.35,636.17c-0.61,10.86-1.23,21.71-1.84,32.57c-0.21,3.72-0.41,7.56,0.63,11.09
			c1.1,3.76,3.49,6.79,5.84,9.67c33.31,40.78,72.07,75.46,114.45,102.42c4.45,2.83,9.09,5.63,14.13,6.14
			c8.59,0.88,16.52-4.92,23.71-10.48c33.19-25.68,67.72-53.05,86.33-94.14c5.64-12.44,9.69-26.21,9.48-40.28
			c-0.09-5.76-1.09-11.96-4.7-15.9c-3.93-4.29-9.82-4.76-15.2-4.98c-28.69-1.2-57.71-2.28-85.79,4.72
			c-10.83,2.7-21.44,6.58-32.34,8.88c-37.3,7.87-75.42-3.15-112.14-14.09"/>
	</g>
	<g>
		<path class="st8" d="M1186.83,361.49c10.19-2.34,20.5,5.95,25.26,16.73c4.76,10.78,5.1,23.44,4.62,35.55
			c-0.26,6.5-0.76,13.15-3.13,19.05c-2.37,5.89-6.96,10.95-12.51,11.65c-3.11,0.39-6.7-1.01-7.92-4.37
			c-0.55-1.51-0.55-3.19-0.55-4.83c0.03-17.73,0.06-35.46,0.09-53.19c0.01-5.25,0-10.65-1.61-15.55"/>
		<g>
			<path class="st9" d="M1186.85,361.57c11.09-2.42,20.78,7.01,25.02,16.33c5.19,11.41,5.27,24.49,4.73,36.78
				c-0.28,6.46-0.82,13.21-3.54,19.17c-2.18,4.78-6.18,9.64-11.66,10.49c-2.62,0.41-5.49-0.4-7.18-2.52
				c-2.07-2.61-1.53-6.43-1.53-9.54c0.01-6.96,0.02-13.92,0.04-20.88c0.01-7.79,0.03-15.58,0.04-23.37
				c0.01-7.13,0.59-14.64-1.6-21.54c-0.03-0.09-0.17-0.05-0.14,0.04c2.23,7.03,1.61,14.72,1.6,22c-0.01,7.46-0.03,14.91-0.04,22.37
				c-0.01,7.46-0.03,14.91-0.04,22.37c-0.01,2.88-0.36,6.22,1.55,8.64c1.23,1.56,3.14,2.44,5.09,2.64c5,0.52,9.41-3.22,12.03-7.1
				c3.53-5.21,4.7-11.62,5.23-17.78c0.57-6.69,0.71-13.5,0.32-20.2c-0.37-6.41-1.36-12.85-3.62-18.89
				c-3.9-10.42-13.98-21.87-26.33-19.17C1186.72,361.44,1186.76,361.59,1186.85,361.57L1186.85,361.57z"/>
		</g>
	</g>
	<g>
		<path class="st8" d="M1161.67,346.26c5.84-7.65,13.23-15.89,21.93-14.61c6.57,0.97,11.76,7.44,14.12,14.66s2.42,15.14,2.45,22.86
			c0.08,21.19,0.16,42.38,0.25,63.57c0.01,3.63,0.02,7.31-0.83,10.79c-1.72,6.99-7.11,12.55-13.27,13.67
			c-6.16,1.12-12.75-2.26-16.2-8.32c-2.54-4.44-3.37-9.88-4.08-15.15c-3.91-28.82-6-57.97-6.24-87.15"/>
		<g>
			<path class="st9" d="M1161.74,346.3c4.74-6.2,11.15-14.45,19.72-14.7c8.5-0.25,14.18,8.13,16.4,15.38
				c2.89,9.42,2.23,19.66,2.27,29.39c0.04,10.18,0.08,20.36,0.12,30.54c0.02,5.13,0.04,10.26,0.06,15.39
				c0.02,5.05,0.2,10.13-0.02,15.17c-0.19,4.59-1.18,9.03-3.88,12.82c-2.25,3.15-5.49,5.71-9.29,6.65
				c-3.86,0.96-7.96,0.04-11.27-2.09c-3.81-2.45-6.24-6.27-7.62-10.52c-1.47-4.53-1.96-9.33-2.58-14.03
				c-0.66-5.05-1.26-10.12-1.81-15.18c-2.18-20.22-3.47-40.54-3.87-60.88c-0.05-2.55-0.08-5.11-0.11-7.66c0-0.1-0.15-0.1-0.15,0
				c0.19,21.74,1.39,43.48,3.62,65.11c0.56,5.4,1.17,10.79,1.86,16.17c0.62,4.88,1.09,9.86,2.35,14.63
				c1.09,4.14,2.94,8.08,6.2,10.95c2.67,2.35,6.09,3.88,9.66,4.03c7.54,0.31,13.73-5.81,15.9-12.63c1.51-4.76,1.21-9.91,1.19-14.84
				c-0.02-5.46-0.04-10.93-0.06-16.39c-0.04-10.93-0.08-21.85-0.13-32.78c-0.02-5.36,0-10.73-0.08-16.09
				c-0.08-4.93-0.33-9.9-1.4-14.73c-1.6-7.25-5.74-15.67-13.39-18.04c-7.94-2.46-14.99,3.77-19.82,9.3c-1.39,1.59-2.71,3.26-4,4.94
				C1161.55,346.3,1161.68,346.37,1161.74,346.3L1161.74,346.3z"/>
		</g>
	</g>
	<g>
		<path class="st8" d="M1132.93,366.53c5.51-11.57,16-18.46,25.97-24.77c1.54-0.98,3.15-1.97,4.9-2.12c3.47-0.3,6.59,2.93,7.9,6.7
			c1.31,3.77,1.2,7.97,1.08,12.03c-0.89,29.2-1.77,58.4-2.66,87.6c-0.03,0.87-0.06,1.76-0.35,2.56c-0.76,2.06-3.08,2.8-4.92,2.18
			c-1.84-0.62-3.3-2.23-4.64-3.83c-17.75-21.25-28.37-50.42-29.13-80.09"/>
		<g>
			<path class="st9" d="M1133,366.57c3.23-6.69,8.31-12.13,14.13-16.67c2.87-2.24,5.89-4.27,8.94-6.24c3.11-2,6.89-5.26,10.74-3.32
				c3.85,1.94,5.35,6.56,5.77,10.55c0.45,4.28,0.08,8.66-0.05,12.95c-0.28,9.21-0.56,18.42-0.84,27.63
				c-0.28,9.13-0.55,18.25-0.83,27.38c-0.28,9.18-0.34,18.39-0.84,27.56c-0.13,2.4-1.32,4.48-3.97,4.44
				c-2.11-0.03-3.81-1.75-5.11-3.22c-2.52-2.87-4.82-5.96-6.99-9.11c-4.31-6.25-8.01-12.92-11.1-19.86
				c-6.45-14.46-10.31-30.1-11.42-45.89c-0.14-1.99-0.23-3.99-0.29-5.98c0-0.1-0.15-0.1-0.15,0c0.46,16.74,3.96,33.4,10.4,48.87
				c3.09,7.42,6.85,14.56,11.29,21.25c2.16,3.25,4.48,6.39,6.95,9.4c1.84,2.24,4.47,5.55,7.8,4.48c1.18-0.38,2.08-1.26,2.46-2.45
				c0.64-2.03,0.36-4.51,0.42-6.61c0.15-4.89,0.3-9.79,0.45-14.68c0.3-9.96,0.6-19.91,0.91-29.87c0.3-9.87,0.6-19.74,0.9-29.62
				c0.14-4.72,0.47-9.48,0.33-14.2c-0.12-3.77-0.74-7.74-3.16-10.76c-1.97-2.47-4.88-3.78-7.94-2.54c-1.78,0.72-3.4,1.91-5.01,2.94
				c-1.61,1.03-3.21,2.07-4.78,3.15c-6.11,4.18-11.94,8.97-16.15,15.13c-1.13,1.65-2.12,3.39-3,5.2
				C1132.83,366.58,1132.96,366.66,1133,366.57L1133,366.57z"/>
		</g>
	</g>
	<g>
		<path class="st10" d="M1008.08,28.25c34.23,87.43,83.39,166.85,143.75,232.25c-50.85,0.45-101.7,0.89-152.55,1.34
			c-1.5,0.01-3.2-0.07-4.19-1.39c-0.86-1.14-0.88-2.83-0.85-4.35c0.17-8.75,0.34-17.49,0.51-26.24
			c1.25-63.98,2.49-127.97,3.74-191.95c0.02-1.21,0.1-2.55,0.85-3.38c1.48-1.63,3.83,0.15,5.2,1.9
			c5.62,7.17,10.59,15.05,14.79,23.45"/>
	</g>
	<g>
		<path class="st11" d="M841.09,274.72c15.34,0.5,30.68,0.99,46.02,1.49c0.78,0.03,1.63,0.08,2.23,0.67
			c1.42,1.41,0.16,4.06-1.11,5.65c-3.04,3.81-6.08,7.62-9.12,11.43c-1.56,1.96-3.2,3.97-5.33,4.96c-1.85,0.86-3.9,0.86-5.89,0.84
			c-6.87-0.05-13.74-0.1-20.62-0.16c-0.94-0.01-1.96-0.04-2.71-0.72c-0.89-0.8-1.1-2.23-1.26-3.53c-0.76-6.4-1.51-12.79-2.27-19.19"
			/>
	</g>
	<path class="st12" d="M843,593.33"/>
	<g>
		<linearGradient id="SVGID_1_" gradientUnits="userSpaceOnUse" x1="855.9611" y1="589.4269" x2="1235.7883" y2="245.8835">
			<stop  offset="0" style="stop-color:#D4ECEF"/>
			<stop  offset="0.0614" style="stop-color:#CFE6E9"/>
			<stop  offset="0.6958" style="stop-color:#9AAFAF"/>
			<stop  offset="1" style="stop-color:#859A98"/>
		</linearGradient>
		<path class="st13" d="M850.79,287.33c-0.46,105.9-0.93,211.79-1.39,317.69c-0.02,5.26-0.02,10.69,1.73,15.54
			c1.77,4.91,5.15,8.73,8.47,12.39c40.28,44.53,83.08,85.96,128.01,123.95c3.46,2.92,7.28,5.96,11.54,5.78
			c3.89-0.16,7.29-2.98,10.41-5.7c47.35-41.24,92.23-86.37,134.17-134.94c1.65-1.9,3.33-3.9,4.15-6.42
			c0.74-2.26,0.71-4.75,0.68-7.17c-0.61-44.17-1.21-88.33-1.82-132.5c-0.86-62.66-1.74-125.61-10.93-187.35
			c-94.14-11.97-189.93,19.92-283.5,2.92"/>
	</g>
	<g>
		<path class="st14" d="M1019.42,355.21c3.64-9.7,11.64-16.47,20.25-19.82c8.61-3.35,17.84-3.7,26.91-3.59
			c7.16,0.09,14.99,0.76,20.2,6.49c2.31,2.54,3.87,5.86,5.39,9.11c2.32,4.96,4.63,9.93,6.95,14.89
			c-12.86-12.41-31.16-16.68-47.12-10.99c-8.12,2.89-15.46,8.1-23.23,12.1c-1.38,0.71-2.88,1.4-4.36,1.04
			c-2.33-0.57-3.7-3.65-3.58-6.43c0.12-2.78,1.34-5.31,2.53-7.72"/>
	</g>
	<g>
		<path class="st14" d="M885.91,353.15c6.28-12.05,16.38-21.3,27.9-25.54c9.33-3.44,19.7-3.57,28.77,0.72s16.65,13.23,19.34,24.21
			c0.68,2.76,0.96,6.04-0.65,8.21c-2.11,2.86-6.24,2-8.75-0.38s-4.08-5.85-6.4-8.48c-5.04-5.74-12.72-6.7-19.76-6.78
			c-12.06-0.13-25.19,1.98-33.67,12c-1.34,1.59-2.72,3.46-4.62,3.74c-1.77,0.26-3.61-1.19-4.06-3.21c-0.45-2.02,0.55-4.33,2.21-5.11
			"/>
	</g>
	<g>
		<path class="st15" d="M911.92,377.87c-8.7,10.85-13.67,25.67-13.59,40.53c0.02,3.14,0.26,6.32,1.23,9.24
			c1,3.01,2.73,5.62,4.57,8.03c5.45,7.15,12.66,13.31,20.85,13.7c10.35,0.5,19.76-8.78,23.48-20.06
			c3.72-11.28,2.67-24.01-0.21-35.62c-2.06-8.31-5.69-17.1-12.6-20.24c-3.19-1.45-6.71-1.49-10.14-1.51
			c-4.99-0.03-11.15,0.82-12.96,6.24"/>
	</g>
	<g>
		<path class="st15" d="M1041.24,378.82c-3.83,1.41-4.92,7.06-5.08,11.74c-0.3,8.75,0.45,17.55,2.2,26.06
			c1.76,8.54,4.64,16.99,9.71,23.47s12.62,10.76,20.08,9.64c9.71-1.46,17.08-11.55,20.23-22.38c4.7-16.13,1.36-35.62-9.55-46.93
			c-10.91-11.32-29.19-12.34-39.95-0.83"/>
	</g>
	<g>
		<path class="st16" d="M979.88,428.18c-4.93,21.51-13.27,41.94-24.49,59.94c7.48,5.42,14.96,10.85,22.43,16.27
			c3.05,2.22,6.23,4.48,9.8,5.02c5.66,0.84,11.01-2.79,15.98-6.06c10.34-6.8,21.18-12.58,32.36-17.24c2.23-0.93,4.71-1.82,6.92-0.79
			c4.26,1.98,4.2,8.99,3.13,14.19c-2.95,14.21-8.23,28.14-17.2,38.34c-8.98,10.2-22.07,16.13-34.3,12.96
			c-13.29-3.45-23.04-16.38-31.43-28.9c-6.88-10.27-13.9-22.99-10.58-35.44"/>
	</g>
	<g>
		<g>
			<path class="st17" d="M1063.27,470.53c13.17-5.72,26.34-11.44,39.51-17.16c0.09-0.04,0.01-0.17-0.08-0.13
				c-13.17,5.72-26.34,11.44-39.51,17.16C1063.11,470.44,1063.19,470.57,1063.27,470.53L1063.27,470.53z"/>
		</g>
	</g>
	<g>
		<g>
			<path class="st17" d="M876.52,454.97c11.89-0.04,23.75,1.31,35.34,3.99c0.09,0.02,0.13-0.12,0.04-0.14
				c-11.6-2.68-23.47-4.04-35.38-4C876.43,454.82,876.42,454.97,876.52,454.97L876.52,454.97z"/>
		</g>
	</g>
	<g>
		<path class="st18" d="M927.08,551.35c43.8,9.06,88.88,9.61,132.84,1.61c-16.01,23.31-41.58,37.22-67.17,36.55
			c-25.58-0.68-50.59-15.93-65.68-40.06"/>
		<g>
			<path class="st16" d="M927.06,551.42c21.13,4.35,42.64,6.77,64.21,7.17c21.54,0.4,43.12-1.21,64.37-4.8
				c0.64-0.11,1.28-0.22,1.91-0.33c0.25-0.04,1.79-0.47,1.91-0.34c0.28,0.29-0.31,0.81-0.54,1.14c-0.39,0.55-0.79,1.1-1.2,1.64
				c-1.4,1.87-2.88,3.69-4.42,5.45c-2.91,3.32-6.07,6.42-9.45,9.26c-6.77,5.7-14.44,10.37-22.67,13.64
				c-15.72,6.23-33.03,6.85-49.09,1.48c-16.59-5.55-30.99-16.78-41.26-30.85c-1.3-1.78-2.53-3.61-3.7-5.47
				c-0.05-0.08-0.18-0.01-0.13,0.08c11.11,17.68,28.29,31.76,48.54,37.46c19.85,5.59,40.95,1.83,58.38-8.95
				c10.33-6.39,19.17-15.01,26.06-24.99c0.04-0.06-0.03-0.12-0.08-0.11c-17.15,3.11-34.53,4.95-51.95,5.46
				c-17.17,0.51-34.37-0.26-51.42-2.29c-9.87-1.17-19.69-2.78-29.42-4.79C927.01,551.26,926.97,551.4,927.06,551.42L927.06,551.42z"
				/>
		</g>
	</g>
	<g>
		<path class="st17" d="M963.68,608.68c20.29-0.41,40.59-0.83,60.88-1.24c-8.66,7.26-17.32,14.51-25.98,21.77
			c-1.29,1.08-2.68,2.2-4.26,2.3c-1.52,0.09-2.95-0.78-4.29-1.63c-9.59-6.12-18.99-12.66-28.16-19.6"/>
	</g>
	<g>
		<path class="st19" d="M926.68,373.32c-1.52,14.2,0.71,28.91,6.3,41.64c0.57,1.29,1.2,2.61,2.2,3.46c3.43,2.92,8.08-1.27,10.16-5.6
			c3.86-8.07,4.95-18.21,1.78-26.68c-3.17-8.47-10.99-14.65-18.86-13.68"/>
	</g>
	<g>
		<g>
			<path class="st15" d="M937.83,386.99c0.19,0,0.19-0.3,0-0.3C937.63,386.69,937.63,386.99,937.83,386.99L937.83,386.99z"/>
		</g>
	</g>
	<g>
		<path class="st19" d="M1038.02,385.99c1.81-3.2,3.69-6.5,6.46-8.57c2.76-2.07,6.67-2.59,9.22-0.17c1.56,1.48,2.36,3.76,3.1,5.95
			c0.99,2.91,1.97,5.81,2.96,8.72c1.33,3.92,2.67,7.92,2.85,12.13c0.17,4.21-1.03,8.73-3.94,11.23c-5.25,4.5-13.11,0.1-16.41-6.45
			c-3.3-6.56-3.66-14.49-5.28-21.85"/>
		<g>
			<path class="st19" d="M1038.07,386.02c1.68-2.98,3.41-6.15,6.13-8.32c2.78-2.22,7.04-2.97,9.71-0.15
				c1.18,1.25,1.85,2.9,2.42,4.49c0.63,1.75,1.2,3.53,1.8,5.29c1.21,3.56,2.54,7.12,3.47,10.77c1.48,5.83,1.86,14.97-4.57,18.17
				c-5.58,2.78-11.79-2.2-14.4-6.87c-3.79-6.78-4-15.02-5.61-22.46c-0.02-0.08-0.13-0.04-0.12,0.03c1.63,7.5,1.81,15.84,5.71,22.64
				c2.55,4.44,8.18,9.03,13.63,7.12c6.39-2.25,7.02-10.82,5.97-16.41c-0.79-4.22-2.36-8.28-3.74-12.34
				c-0.7-2.06-1.36-4.13-2.11-6.17c-0.54-1.49-1.18-3.01-2.25-4.21c-2.22-2.5-5.82-2.49-8.6-0.95c-3.55,1.96-5.64,5.89-7.56,9.29
				C1037.93,386.03,1038.03,386.09,1038.07,386.02L1038.07,386.02z"/>
		</g>
	</g>
	<g>
		<g>
			<path class="st20" d="M1047.03,390.34c0.19,0,0.19-0.3,0-0.3C1046.83,390.04,1046.83,390.34,1047.03,390.34L1047.03,390.34z"/>
		</g>
	</g>
	<g>
		<path class="st10" d="M999.36,242.6c-0.4,22.17-0.81,44.35-1.21,66.52c55.05-1.36,110.1-2.71,165.16-4.07
			c2.26-0.06,4.82-0.27,6.26-2.31c1.31-1.87,1.17-4.55,0.96-6.95c-1.08-12.34-2.17-24.68-3.25-37.03
			c-55.4-2.91-110.8-5.82-166.2-8.73"/>
	</g>
	<g>
		<path class="st12" d="M833.83,258.63c20.98,5.53,42.49-3.2,63.74-7.11c10.09-1.86,20.3-2.62,30.5-3.38
			c23.45-1.75,46.96-3.51,70.42-2c-0.87,18.78-1.73,37.57-2.6,56.35c-0.1,2.06-0.25,4.29-1.41,5.84c-1.54,2.06-4.2,2.16-6.54,2.1
			c-50.58-1.29-101.15-2.57-151.73-3.85c-1.32-0.03-2.78-0.14-3.69-1.25c-0.9-1.09-0.95-2.76-0.94-4.27
			c0.03-13.63,0.06-27.26,0.09-40.89"/>
	</g>
	<g>
		<path class="st12" d="M992.42,42c-50.28,72.83-100.01,146.17-149.18,220.04c47.72-0.46,95.45-0.92,143.17-1.38
			c1.6-0.02,3.35-0.1,4.53-1.37c1.21-1.3,1.39-3.41,1.5-5.33c4.08-73.07,6.03-146.3,5.84-219.52c-6.56,5.06-11.13,13.5-12.23,22.6"
			/>
	</g>
	<g>
		<path class="st9" d="M1092.99,252.73c7.36-0.62,14.73-1.24,22.09-1.86c-25.03-42.06-48.7-85.19-72.36-128.31
			c-4.61-8.41-9.23-16.81-13.84-25.22c21.65,51.99,42.99,104.15,64.02,156.49"/>
	</g>
	<g>
		<path class="st9" d="M1022.69,75.56c6.2,14.6,8.9,30.84,11.53,46.85c7.26,44.21,14.52,88.42,21.77,132.62"/>
	</g>
	<g>
		<path class="st9" d="M858.44,257.47c35.73-52.65,71.46-105.3,107.2-157.94c-19.89,53.84-51.03,100.78-81.84,147.09
			c-5.63,8.46-14.2,17.92-22.62,13.65"/>
	</g>
	<g>
		<path class="st9" d="M925.79,257.42c6.06-13.15,9.69-27.61,13.28-41.94c11.79-47.08,23.58-94.17,35.37-141.25"/>
	</g>
	<g>
		<path class="st8" d="M845.63,448.33c0.26-32.43,0.52-64.86,0.78-97.29c0.04-4.49,0.01-9.24-1.98-13.07
			c-2.71-5.21-8.35-7.28-13.56-7.64c-16.51-1.14-32.28,11.16-40.79,27.72c-8.51,16.56-10.67,36.65-9.68,55.92
			c0.32,6.32,0.97,12.69,2.81,18.65c4.41,14.3,15.83,25.12,28.61,28.02s26.52-1.87,36.35-11.83"/>
		<g>
			<path class="st9" d="M845.71,448.33c0.21-26.78,0.43-53.55,0.64-80.33c0.05-6.53,0.22-13.06,0.14-19.59
				c-0.07-5.06-0.77-10.44-4.73-14.02c-6.65-6.01-17.59-4.84-25.3-1.83c-20.03,7.84-30.57,29.17-34.3,49.15
				c-2.15,11.54-2.48,23.41-1.67,35.1c0.41,5.97,1.23,11.99,3.26,17.66c1.63,4.55,4.01,8.82,7.03,12.59
				c5.8,7.23,14.05,12.65,23.29,14.09c9.96,1.55,20.15-1.46,28.27-7.26c2.1-1.5,4.06-3.19,5.88-5.03c0.07-0.07-0.04-0.17-0.11-0.11
				c-7.35,7.38-17.24,12.35-27.75,12.64c-9.63,0.27-18.75-3.69-25.68-10.3c-7.62-7.27-11.82-16.9-13.32-27.22
				c-1.66-11.46-1.55-23.48-0.16-34.96c2.5-20.64,10.96-42.69,29.84-53.58c7.71-4.44,18.21-7.08,26.73-3.32
				c2.27,1,4.3,2.53,5.73,4.57c1.67,2.38,2.37,5.25,2.65,8.1c0.28,2.85,0.19,5.73,0.17,8.59c-0.03,3.16-0.05,6.32-0.08,9.48
				c-0.2,25.36-0.4,50.73-0.61,76.09c-0.03,3.16-0.05,6.32-0.08,9.48C845.56,448.43,845.71,448.43,845.71,448.33L845.71,448.33z"/>
		</g>
	</g>
	<g>
		<g>
			<path class="st9" d="M820.89,334.29c0,32.79,0,65.59,0,98.38c0,9.32,0,18.64,0,27.97c0,0.1,0.15,0.1,0.15,0
				c0-32.79,0-65.59,0-98.38c0-9.32,0-18.64,0-27.97C821.04,334.19,820.89,334.19,820.89,334.29L820.89,334.29z"/>
		</g>
	</g>
	<g>
		<path class="st21" d="M1180.18,660.62c18.74,0.06,37.47,2.19,55.87,6.37c3.13,0.71,6.8,2.05,7.67,5.63
			c0.55,2.28-0.28,4.67-1.11,6.83c-21.94,57.6-47.58,113.28-76.65,166.4c7.08-34.24,10.45-69.53,9.99-104.76
			c-0.36-27.9-3.11-55.82-1.28-83.64"/>
	</g>
	
		<ellipse transform="matrix(0.1505 -0.9886 0.9886 0.1505 25.3627 1916.882)" class="st22" cx="1128.13" cy="943.68" rx="26.15" ry="15.08"/>
</g>
</svg>
