<?xml version="1.0" encoding="utf-8"?>
<!-- Generator: Adobe Illustrator 23.0.5, SVG Export Plug-In . SVG Version: 6.00 Build 0)  -->
<svg version="1.1" id="圖層_1" xmlns="http://www.w3.org/2000/svg" xmlns:xlink="http://www.w3.org/1999/xlink" x="0px" y="0px"
	 viewBox="0 0 1920 1080" style="enable-background:new 0 0 1920 1080;" xml:space="preserve">
<style type="text/css">
	.st0{fill:#A3B0DC;}
	.st1{fill:#E1B262;}
	.st2{fill:#333444;}
</style>
<g>
	<path class="st0" d="M468.05,166.71c19.98-2.67,35.49-17.38,55.38-20.49c25.82-4.04,49.4,12.16,68.87,27.28
		c6.01-15.14,16.31-29.02,29.76-40.08c5.78-4.75,13.08-9.25,21.02-8.44c15.39,1.56,18.67,20.29,12.75,32.59
		c-5.92,12.3-16.9,23.86-15.37,37.1c1.14,9.83,9.09,18.03,17.42,24.84c45.91,37.52,112.45,52.74,156.15,92.16
		c11.33,10.22,20.88,21.88,32.89,31.52c38.2,30.68,95.19,36.75,138.47,61.96c8.56,4.99,16.82,11.01,21.04,19.12
		c5.42,10.43,3.34,22.47,1.15,33.74c-4.51,23.21-9.02,46.42-13.53,69.63c-1.77,9.08-3.46,18.77,0.81,27.22
		c2.9,5.75,8.27,10.27,13.54,14.6c46,37.84,94.49,73.44,145.17,106.58c-39.56,0.43-76.09-22.95-115.54-20.38
		c-14.77,0.96-28.89,5.55-43.52,7.57c-28.3,3.91-57.34-1.98-83.96-11.11c-92.34-31.7-159.91-99.79-223.58-165.4
		C620.38,418.1,553.8,349.5,487.21,280.9c-17.97-18.51-36.6-38.22-41.34-61.98s10.37-52.25,38.06-56.2"/>
</g>
<path class="st1" d="M539.95,1009.3c-66.29-5.91-95.27-45.87-211.2-156.9C146.18,677.53,87.5,651.59,89.02,582.73
	c1.2-54.26,38.75-88.76,85.62-139.74C250.63,360.33,348.16,237.58,440.06,63c81.59,103.89,183.91,219.54,311.09,338.31
	c145.26,135.66,289.08,243.79,416.69,328.51c-211.82,78.56-357.07,157.6-453.79,218.19C666.35,977.9,610.79,1015.61,539.95,1009.3z"
	/>
<path class="st2" d="M1030.85,783.76c-55.11-7.91-279.77-45.72-442.37-223.09C392.14,346.5,443.1,99.93,451.48,63
	c-9.51,9.81-19.03,19.61-28.54,29.42c-8.05,37.83-52.92,270.45,131.28,478.05c159.46,179.72,383.26,219.72,436.67,227.99
	C1004.21,793.56,1017.53,788.66,1030.85,783.76z"/>
<g>
	<path class="st0" d="M792.22,334.3c44.78-6.45,89.56-12.9,134.34-19.36c31.82-4.58,63.97-9.25,93.74-19.92
		c29.78-10.67,57.41-28.06,72.55-52.54c7.84-12.68,12.15-26.9,21.18-38.97c11.91-15.91,30.95-26.71,49.82-36.45
		c31.81-16.42,64.78-31.19,98.66-44.2c4.27-1.64,9.3-3.25,13.44-1.38c8.77,3.96,2.17,15.39-5.03,21.24
		c-15.09,12.27-30.18,24.54-45.27,36.81c-19.68,16.01-41.15,38.57-30.28,59.9c10.01,19.62,41.27,23.17,65.44,17.87
		c51.56-11.31,94.31-48.67,147.51-49.53c45.05-0.73,84.35,25.05,127.81,35.26c22.34,5.25,45.68,6.34,68.81,7.4
		c61.35,2.81,122.92,5.61,184.15,1.27c17.25-1.22,40.33,0.39,43.92,14.93c-43.47,0.08-86.72,14.25-119.2,39.06
		c-15.61,11.92-29.02,26.31-47.12,35.27c-19.82,9.8-43.82,12.31-62.98,23.03c-23.03,12.88-36.5,36.18-60.52,47.65
		c-41.42,19.78-92.02-3.25-139.4-3.97c-17.54-0.27-35.82,2.53-52.13-3.01c-16.47-5.6-28.12-18.86-44.49-24.68
		c-27.06-9.62-56.99,3.43-83.55,14.02c-37.9,15.11-78.23,25.74-119.48,31.48c-26.76,3.72-55.3,5.86-77.16,19.63
		c-5.99,3.78-11.61,8.87-12.51,15.2c-2.1,14.83,20.13,22.13,37.34,24.24c62.98,7.71,131.09,14.68,186.86-11.6
		c23.37-11.01,44.73-27.86,71.33-29.48c28.11-1.71,53.88,14.3,82,15.89c30.6,1.73,64.69-13.12,90.05,1.7
		c-1.74,12.37-13.68,22.09-26.76,27.48c-13.08,5.4-27.62,7.52-41.36,11.52c-51.02,14.82-86.77,53.5-130.85,80.08
		c-34.21,20.62-74.4,34.15-116,37.61c-32.34,2.69-65.11-0.66-96.56-7.65c-22.42-4.98-44.56-11.92-63.52-23.34
		c-26.49-15.95-45.14-39.53-63.2-62.59c-21.8-27.83-43.6-55.67-65.4-83.5c-21.13-26.97-42.61-54.3-71.34-75.47
		c-11.3-8.33-25.02-20.79-17.33-31.75"/>
</g>
<g>
	<path class="st0" d="M1419.16,153.58c9.3-7.67,26.2-6.04,33.9-14.91c2.21-2.55,3.35-5.69,5.59-8.21c3.55-3.99,9.34-5.93,14.89-7.51
		c22.02-6.28,45.03-9.97,68.21-10.92c9.06-0.37,19.89,0.49,24.33,7.28c3.36,5.14,1.27,12-3.51,16.23
		c-4.78,4.23-11.67,6.23-18.47,7.1c-28.03,3.58-58.11-9.51-84.13,0.11c-6.99,2.58-13.09,6.66-19.98,9.43
		c-6.89,2.77-15.25,4.12-21.96,1.03"/>
</g>
<g>
	<path class="st0" d="M1689.49,377.91c6.77,10.42,17.34,18.99,29.84,24.21c2.01,0.84,4.36,1.6,6.42,0.84
		c3.21-1.18,3.39-5.05,2.54-7.96c-3.71-12.72-17.81-22.65-33.06-23.29"/>
</g>
<g>
	<path class="st0" d="M1565.94,496.44c5.99-7.36,15.29-15.69,25.06-12.49c5.06,1.66,8.12,5.98,12.04,9.2
		c5.26,4.32,12.25,6.72,17.98,10.57c5.73,3.85,10.34,10.3,7.84,16.17c-2.41,5.68-10.73,8.18-17.59,6.83
		c-6.86-1.35-12.42-5.59-17.19-10.02c-4.49-4.17-9.05-8.92-15.51-10.15c-3.75-0.71-7.8-0.14-11.36-1.37
		c-3.56-1.23-5.96-5.73-2.94-7.76"/>
</g>
<g>
	<path class="st0" d="M1349.13,630.36c12.69,2.25,25.37,4.49,38.06,6.74c3.07,0.54,6.34,1.19,8.46,3.17
		c3.15,2.95,2.36,7.87-0.49,11.05c-2.85,3.17-7.21,5.01-11.42,6.74c-9.22,3.8-21.4,7.24-28.62,1.02c-2.87-2.47-4.14-5.95-5.27-9.29
		c-2.53-7.54-4.8-15.14-6.79-22.79"/>
</g>
<g>
	<path class="st0" d="M772.38,297.96c16.76-6.86,27.95-20.92,43.57-29.54c12.59-6.95,27.46-10.05,42.02-13.04
		c5.46-1.12,11.09-2.25,16.65-1.54c5.56,0.71,11.1,3.71,12.63,8.35c2.19,6.62-4.42,13.08-11.5,16.31
		c-20.47,9.34-48.01,4.61-65.77,17.41c-5.22,3.77-9.21,8.85-15.14,11.75c-5.93,2.9-15.13,2.33-17.68-3.1
		c-2.11-4.49,1.42-9.36,4.77-13.26"/>
</g>
<g>
	<path class="st0" d="M1034.09,141.33c8.91-7.94,21.86-12.41,34.69-11.97c6.23,0.21,13.81,2.91,13.93,8.27
		c0.04,1.7-0.74,3.33-1.62,4.86c-6.36,10.97-21.6,19.26-34.94,14.92c-9.84-3.2-15.89-13.23-13.28-21.98"/>
</g>
</svg>
