<?xml version="1.0" encoding="utf-8"?>
<!-- Generator: Adobe Illustrator 23.0.5, SVG Export Plug-In . SVG Version: 6.00 Build 0)  -->
<svg version="1.1" id="圖層_1" xmlns="http://www.w3.org/2000/svg" xmlns:xlink="http://www.w3.org/1999/xlink" x="0px" y="0px"
	 viewBox="0 0 1920 1080" style="enable-background:new 0 0 1920 1080;" xml:space="preserve">
<style type="text/css">
	.st0{fill:#783E8A;}
	.st1{fill:#2B040C;}
	.st2{fill:#878786;}
	.st3{fill:#9E9E9E;}
	.st4{fill:#AFAFAF;}
	.st5{fill:#C1C1C1;}
	.st6{fill:#D3D3D1;}
	.st7{fill:#E4E3DF;}
	.st8{fill:#F7F6D7;}
</style>
<g>
	<path class="st0" d="M889,812.2c-113.97,4.34-227.97,7.68-342,10c-120.6,2.46-241.21,3.78-361.85,3.98
		c-7.26,0.01-11.88-7.77-8.39-14.14c57.15-104.25,114.3-208.51,171.45-312.76c1.71-3.12,5.02-5.03,8.57-4.95
		c14.07,0.31,28.14,0.6,42.21,0.87c161.62,3.12,323.29,3.79,485,2c34.39,82.02,72.57,211.91,12,305
		C893.8,805.58,891.47,808.92,889,812.2z"/>
	<path class="st0" d="M1031.33,817.2c113.97,4.34,227.97,7.68,342,10c120.6,2.46,241.21,3.78,361.85,3.98
		c7.26,0.01,11.88-7.77,8.39-14.14c-57.15-104.25-114.3-208.51-171.45-312.76c-1.71-3.12-5.02-5.03-8.57-4.95
		c-14.07,0.31-28.14,0.6-42.21,0.87c-161.62,3.12-323.29,3.79-485,2c-34.39,82.02-72.57,211.91-12,305
		C1026.53,810.58,1028.86,813.92,1031.33,817.2z"/>
	<path class="st0" d="M1029,846.2c-47-0.33-94-0.67-141-1c-3.31-1.44-11.03-5.34-17-14c-5.69-8.24-6.75-16.39-7-20
		c31.11-2.11,64.53-3.28,100-3c32.86,0.26,63.93,1.72,93,4c-1.42,4.36-3.83,10.07-8,16C1042.18,837.89,1034.01,843.39,1029,846.2z"
		/>
	<path class="st1" d="M1039,827.2c-52.33-0.33-104.67-0.67-157-1c2.54-7.55,6.06-16.06,11-25c10.43-18.89,23.09-32.25,33-41
		c10.03-0.81,20.37-1.49,31-2c10.97-0.53,21.64-0.85,32-1c10.49,7.58,25.92,20.95,38,42C1032.84,809.39,1036.57,819.05,1039,827.2z"
		/>
	<path class="st2" d="M892,804.2c-225.33-2.67-450.67-5.33-676-8c48-82,96-164,144-246c179.33-11.33,358.67-22.67,538-34
		c14.35,34.74,80.27,201.43,8,276C901.85,796.49,897.2,800.51,892,804.2z"/>
	<path class="st3" d="M906,792.2c-120.83-41.79-216.58-45.48-282-41c-74.33,5.09-123.8,22.07-243,30c-68.55,4.56-125.17,4.14-163,3
		c47.33-89.33,94.67-178.67,142-268h537c11.04,21.65,92.49,185.61,26,261C918.25,782.59,912.64,787.64,906,792.2z"/>
	<path class="st4" d="M931,769.2c-1.43,2.36-3.93,5.71-8,8c-19.69,11.06-49.13-17.89-89-36c-23.38-10.63-42.92-13.42-82-19
		c-44.74-6.39-83.56-4.44-147,4c-134.18,17.86-166.85,37.9-267,44c-41.84,2.55-76.54,2.49-100,2c51.67-97,103.33-194,155-291
		c179.33,2.67,358.67,5.33,538,8V769.2z"/>
	<path class="st5" d="M931,769.2c-30.15-25.06-79.27-58.49-146-73c-55.64-12.1-100.18-5.23-187,9c-107.83,17.68-136.07,36.79-236,48
		c-46.76,5.25-85.09,6.05-109,6c53.67-97.67,107.33-195.33,161-293c172.67-0.33,345.33-0.67,518-1c9.9,31.12,81.74,261.88,17,299
		C944.09,767.02,938.18,768.84,931,769.2z"/>
	<path class="st6" d="M949,764.2c-26.71-25.8-71.4-61.97-135-84c-75.2-26.05-139.68-19.47-203-13c-83.17,8.49-105.23,25.43-241,47
		c-36.64,5.82-66.92,9.65-87,12c50.67-92.67,101.33-185.33,152-278c172.67-0.33,345.33-0.67,518-1
		C951.67,552.87,950.33,658.54,949,764.2z"/>
	<path class="st7" d="M953,764.2c-16.63-22.52-43.96-54.34-85-82c-111.05-74.85-238.83-62.86-344-53
		c-50.96,4.78-122.97,15.88-207,44c58.33-106.33,116.67-212.67,175-319c84.42-8,155.46-6.52,208-3c152.19,10.2,201.05,41,228,64
		c17.38,14.83,29.44,29.64,37,40C961,558.2,957,661.2,953,764.2z"/>
	<path class="st2" d="M1028.33,809.2c225.33-2.67,450.67-5.33,676-8c-48-82-96-164-144-246c-179.33-11.33-358.67-22.67-538-34
		c-14.35,34.74-80.27,201.43-8,276C1018.48,801.49,1023.13,805.51,1028.33,809.2z"/>
	<path class="st3" d="M1014.33,797.2c120.83-41.79,216.58-45.48,282-41c74.33,5.09,123.8,22.07,243,30c68.55,4.56,125.17,4.14,163,3
		c-47.33-89.33-94.67-178.67-142-268h-537c-11.04,21.65-92.49,185.61-26,261C1002.08,787.59,1007.69,792.64,1014.33,797.2z"/>
	<path class="st4" d="M989.33,774.2c1.43,2.36,3.93,5.71,8,8c19.69,11.06,49.13-17.89,89-36c23.38-10.63,42.92-13.42,82-19
		c44.74-6.39,83.56-4.44,147,4c134.18,17.86,166.85,37.9,267,44c41.84,2.55,76.54,2.49,100,2c-51.67-97-103.33-194-155-291
		c-179.33,2.67-358.67,5.33-538,8V774.2z"/>
	<path class="st5" d="M989.33,774.2c30.15-25.06,79.27-58.49,146-73c55.64-12.1,100.18-5.23,187,9c107.83,17.68,136.07,36.79,236,48
		c46.76,5.25,85.09,6.05,109,6c-53.67-97.67-107.33-195.33-161-293c-172.67-0.33-345.33-0.67-518-1
		c41.65,117.68,29.17,182.87,8.67,221c-9.89,18.39-39.02,62.84-25.67,78C975.72,774.19,983.49,774.62,989.33,774.2z"/>
	<path class="st6" d="M953,764.2c4.08,2.18,10.32,4.79,18,5c26.06,0.7,41.11-27.04,69-50c17.07-14.05,33.49-20.7,66.33-34
		c71.33-28.89,143.08-19.12,203-13c83.17,8.49,105.23,25.43,241,47c36.64,5.82,66.92,9.65,87,12c-50.67-92.67-101.33-185.33-152-278
		c-172.67-0.33-345.33-0.67-518-1C962.55,556.2,957.78,660.2,953,764.2z"/>
	<path class="st7" d="M953,764.2c20.15-20.77,52.99-50.76,99.33-77c126.34-71.55,256.28-61.23,344-53
		c50.96,4.78,122.97,15.88,207,44c-58.33-106.33-116.67-212.67-175-319c-84.42-8-155.46-6.52-208-3c-152.19,10.2-201.05,41-228,64
		c-17.38,14.83-29.44,29.64-37,40C954.55,561.54,953.78,662.87,953,764.2z"/>
	<g>
		<g>
			<path class="st8" d="M601.54,269.52c0,1.51-0.71,2.27-2.12,2.27h-25.93c-1.42,0-2.12-0.85-2.12-2.56
				c0-4.93,0.18-12.33,0.55-22.19c0.37-9.86,0.55-17.26,0.55-22.19c0-1.42-0.22-2.17-0.66-2.27c-0.54,0.29-3.81,7.84-9.81,22.63
				c-3.52,8.69-7.03,17.36-10.55,26c-0.49,1.12-1.1,1.78-1.83,1.98c-0.25,0.05-1.22,0.07-2.93,0.07c-2.54,0-4.05-0.49-4.54-1.46
				c-2.64-5.37-6.1-13.18-10.4-23.44c-4.59-10.84-8.03-18.68-10.33-23.51c-0.1-0.24-0.32-0.51-0.66-0.81
				c-0.34,0.44-0.51,1.15-0.51,2.12c0,4.79,0.12,11.96,0.37,21.53c0.24,9.57,0.37,16.75,0.37,21.53c0,1.71-0.68,2.56-2.05,2.56
				h-24.46c-0.98,0-1.57-0.16-1.79-0.48c-0.22-0.32-0.33-0.87-0.33-1.65c0-5.32,0.26-13.32,0.77-23.99
				c0.51-10.67,0.77-18.66,0.77-23.99c0-5.66-0.25-16.28-0.73-31.86c-0.05-4.05-0.27-10.08-0.66-18.09l-0.07-1.25
				c-0.05-0.98,0.98-1.46,3.08-1.46c2.68,0,6.71-0.08,12.08-0.26c5.37-0.17,9.4-0.26,12.08-0.26c0.54,0,1.29,1.03,2.27,3.08
				l21.39,46.95c1.51,3.17,2.78,4.76,3.81,4.76c0.54,0,1.68-1.83,3.44-5.49c4.93-10.25,12.23-25.71,21.9-46.36
				c0.83-1.9,1.73-2.86,2.71-2.86c1.42,0,3.55,0.07,6.41,0.22s5.02,0.22,6.48,0.22c1.22,0,3.09-0.12,5.6-0.37
				c2.51-0.24,4.38-0.37,5.6-0.37c1.46,0,2.2,0.59,2.2,1.76c0,5.76-0.21,14.37-0.62,25.82c-0.42,11.45-0.62,20.06-0.62,25.82
				c0,5.32,0.22,13.31,0.66,23.95C601.32,256.29,601.54,264.25,601.54,269.52z"/>
		</g>
	</g>
	<g>
		<g>
			<path class="st8" d="M806.94,269.96c0,0.88-0.61,1.49-1.83,1.83c-1.46,0.39-6.01,0.59-13.62,0.59c-6.98,0-11.48-0.2-13.48-0.59
				c-1.66-0.34-2.71-1.44-3.15-3.3c-1.66-7.03-2.96-10.79-3.88-11.28c-0.78-0.34-7.32-0.51-19.63-0.51c-8.3,0-12.72,0.22-13.26,0.66
				c-0.83,0.78-1.76,3.39-2.78,7.84c-0.93,4.05-2.05,6.25-3.37,6.59c-1.66,0.39-7.23,0.59-16.7,0.59c-7.47,0-11.21-0.71-11.21-2.12
				c0-1.27,5.52-16.87,16.55-46.8c11.96-32.37,18.46-50.17,19.48-53.39c0.59-1.85,1.27-2.78,2.05-2.78c1.32,0,3.36,0.12,6.12,0.37
				c2.76,0.25,4.82,0.37,6.19,0.37c1.32,0,3.26-0.08,5.82-0.26c2.56-0.17,4.48-0.26,5.75-0.26c0.93,0,1.78,0.81,2.56,2.42
				c2.39,5.13,9.38,22.71,20.95,52.73C801.13,252.87,806.94,268.64,806.94,269.96z M755.01,203.24c-1.03,2.15-2.76,6.81-5.2,13.99
				c-2.64,7.62-3.96,12.08-3.96,13.4c0,0.88,1.46,1.37,4.39,1.46c1.51,0.1,4,0.15,7.47,0.15c3.22,0,5-0.39,5.35-1.17
				c0.1-0.24,0.15-0.59,0.15-1.03c0-1.61-1.12-6.05-3.37-13.33C757.65,209.68,756.04,205.19,755.01,203.24z"/>
		</g>
	</g>
	<g>
		<g>
			<path class="st8" d="M1030.72,273.45c0.1,1.32-0.59,1.98-2.05,1.98c-0.93,0-3.6-0.54-8.02-1.61c-4.42-1.07-7.14-1.81-8.17-2.2
				c-10.21,4-20,6.01-29.37,6.01c-15.09,0-27.47-5.03-37.13-15.09c-9.57-9.91-14.36-22.44-14.36-37.57
				c0-15.48,4.64-28.32,13.92-38.53c9.57-10.55,22-15.82,37.28-15.82c7.42,0,14.4,1.42,20.95,4.25c7.08,3.13,12.65,7.52,16.7,13.18
				c0.83,1.17,1.25,2,1.25,2.49c0,1.56-2.19,5.07-6.56,10.51c-4.37,5.45-7.19,8.17-8.46,8.17c-0.29,0-1.42-1-3.37-3
				c-2.39-2.39-4.83-4.25-7.32-5.57c-3.71-2-7.81-3-12.3-3c-7.32,0-13.14,2.74-17.43,8.2c-4,5.03-6.01,11.3-6.01,18.82
				c0,7.96,2.07,14.26,6.23,18.9c4.3,4.79,10.38,7.18,18.24,7.18c4.98,0,10.55-1.25,16.7-3.74c-0.15-1.61-0.59-5.71-1.32-12.3
				c-0.63-5.08-0.95-9.18-0.95-12.3c0-0.93,0.32-1.49,0.95-1.68c0.24-0.1,0.63-0.15,1.17-0.15c1.42,0,3.55,0.14,6.41,0.4
				c2.86,0.27,5.02,0.4,6.48,0.4c1.56,0,3.91-0.11,7.03-0.33c3.12-0.22,5.47-0.33,7.03-0.33c1.22,0,1.83,0.81,1.83,2.42
				c0,2.34-0.14,5.88-0.4,10.62c-0.27,4.74-0.4,8.28-0.4,10.62c0,6.3,0.46,15.72,1.39,28.27L1030.72,273.45z"/>
		</g>
	</g>
	<g>
		<g>
			<path class="st8" d="M1202.07,221.67c0,5.76,0.15,14.43,0.44,26c0.29,11.57,0.44,20.24,0.44,26c0,0.98-0.22,1.59-0.66,1.83
				c-0.1,0.05-0.73,0.15-1.9,0.29c-3.17,0.39-7.42,0.59-12.74,0.59c-7.13,0-11.67-0.2-13.62-0.59c-1.42-0.29-2.12-1.05-2.12-2.27
				c0,0.78,0.22-3.52,0.66-12.89c0.88-19.78,1.32-32.76,1.32-38.96c0-5.22-0.17-13.06-0.51-23.51c-0.34-10.45-0.51-18.29-0.51-23.51
				c0-1.07,0.56-1.61,1.68-1.61c1.51,0,3.8,0.07,6.85,0.22c3.05,0.15,5.33,0.22,6.85,0.22c1.51,0,3.75-0.07,6.7-0.22
				c2.95-0.15,5.19-0.22,6.7-0.22c1.42,0,2.12,0.54,2.12,1.61c0,5.23-0.28,13.06-0.84,23.51
				C1202.35,208.61,1202.07,216.44,1202.07,221.67z"/>
		</g>
	</g>
	<g>
		<g>
			<path class="st8" d="M1424.88,259.24c0,0.78-0.51,1.81-1.54,3.08c-8.99,10.69-20.92,16.04-35.82,16.04
				c-15.23,0-27.59-5.2-37.06-15.6c-9.23-10.06-13.84-22.75-13.84-38.09c0-14.84,4.52-27.44,13.55-37.79
				c9.42-10.84,21.41-16.26,35.96-16.26c15.82,0,28.22,4.86,37.21,14.58c0.98,1.07,1.46,2.03,1.46,2.86c0,0.93-1.7,4.37-5.09,10.33
				c-3.39,5.96-5.53,9.3-6.41,10.03c-0.39,0.39-0.88,0.59-1.46,0.59c-0.25,0-1.46-0.98-3.66-2.93c-2.64-2.34-5.23-4.17-7.76-5.49
				c-3.86-1.95-7.86-2.93-12.01-2.93c-7.18,0-12.92,2.69-17.21,8.06c-3.96,4.98-5.93,11.13-5.93,18.46c0,7.42,1.98,13.65,5.93,18.68
				c4.3,5.47,10.03,8.2,17.21,8.2c4.25,0,8.28-0.93,12.08-2.78c2.49-1.22,5.03-2.93,7.62-5.13c2.15-1.85,3.34-2.78,3.59-2.78
				c0.49,0,0.98,0.27,1.46,0.81c0.78,0.88,2.9,3.93,6.37,9.16C1423.1,255.73,1424.88,258.7,1424.88,259.24z"/>
		</g>
	</g>
</g>
</svg>
