<?xml version="1.0" encoding="utf-8"?>
<!-- Generator: Adobe Illustrator 23.0.5, SVG Export Plug-In . SVG Version: 6.00 Build 0)  -->
<svg version="1.1" id="圖層_1" xmlns="http://www.w3.org/2000/svg" xmlns:xlink="http://www.w3.org/1999/xlink" x="0px" y="0px"
	 viewBox="0 0 1920 1080" style="enable-background:new 0 0 1920 1080;" xml:space="preserve">
<style type="text/css">
	.st0{fill:#783E8A;}
	.st1{fill:#2B040C;}
	.st2{fill:#878786;}
	.st3{fill:#9E9E9E;}
	.st4{fill:#AFAFAF;}
	.st5{fill:#C1C1C1;}
	.st6{fill:#D3D3D1;}
	.st7{fill:#E4E3DF;}
	.st8{fill:#F7F6D7;}
</style>
<path class="st0" d="M889,859c-113.97,4.34-227.97,7.68-342,10c-120.6,2.46-241.21,3.78-361.85,3.98
	c-7.26,0.01-11.88-7.77-8.39-14.14c57.15-104.25,114.3-208.51,171.45-312.76c1.71-3.12,5.02-5.03,8.57-4.95
	c14.07,0.31,28.14,0.6,42.21,0.87c161.62,3.12,323.29,3.79,485,2c34.39,82.02,72.57,211.91,12,305
	C893.8,852.38,891.47,855.72,889,859z"/>
<path class="st0" d="M1031.33,864c113.97,4.34,227.97,7.68,342,10c120.6,2.46,241.21,3.78,361.85,3.98
	c7.26,0.01,11.88-7.77,8.39-14.14c-57.15-104.25-114.3-208.51-171.45-312.76c-1.71-3.12-5.02-5.03-8.57-4.95
	c-14.07,0.31-28.14,0.6-42.21,0.87c-161.62,3.12-323.29,3.79-485,2c-34.39,82.02-72.57,211.91-12,305
	C1026.53,857.38,1028.86,860.72,1031.33,864z"/>
<path class="st0" d="M1029,893c-47-0.33-94-0.67-141-1c-3.31-1.44-11.03-5.34-17-14c-5.69-8.24-6.75-16.39-7-20
	c31.11-2.11,64.53-3.28,100-3c32.86,0.26,63.93,1.72,93,4c-1.42,4.36-3.83,10.07-8,16C1042.18,884.69,1034.01,890.18,1029,893z"/>
<path class="st1" d="M1039,874c-52.33-0.33-104.67-0.67-157-1c2.54-7.55,6.06-16.06,11-25c10.43-18.89,23.09-32.25,33-41
	c10.03-0.81,20.37-1.49,31-2c10.97-0.53,21.64-0.85,32-1c10.49,7.58,25.92,20.95,38,42C1032.84,856.19,1036.57,865.85,1039,874z"/>
<path class="st2" d="M892,851c-225.33-2.67-450.67-5.33-676-8c48-82,96-164,144-246c179.33-11.33,358.67-22.67,538-34
	c14.35,34.74,80.27,201.43,8,276C901.85,843.29,897.2,847.31,892,851z"/>
<path class="st3" d="M906,839c-120.83-41.79-216.58-45.48-282-41c-74.33,5.09-123.8,22.07-243,30c-68.55,4.56-125.17,4.14-163,3
	c47.33-89.33,94.67-178.67,142-268h537c11.04,21.65,92.49,185.61,26,261C918.25,829.39,912.64,834.44,906,839z"/>
<path class="st4" d="M931,816c-1.43,2.36-3.93,5.71-8,8c-19.69,11.06-49.13-17.89-89-36c-23.38-10.63-42.92-13.42-82-19
	c-44.74-6.39-83.56-4.44-147,4c-134.18,17.86-166.85,37.9-267,44c-41.84,2.55-76.54,2.49-100,2c51.67-97,103.33-194,155-291
	c179.33,2.67,358.67,5.33,538,8V816z"/>
<path class="st5" d="M931,816c-30.15-25.06-79.27-58.49-146-73c-55.64-12.1-100.18-5.23-187,9c-107.83,17.68-136.07,36.79-236,48
	c-46.76,5.25-85.09,6.05-109,6c53.67-97.67,107.33-195.33,161-293c172.67-0.33,345.33-0.67,518-1c9.9,31.12,81.74,261.88,17,299
	C944.09,813.81,938.18,815.64,931,816z"/>
<path class="st6" d="M949,811c-26.71-25.8-71.4-61.97-135-84c-75.2-26.05-139.68-19.47-203-13c-83.17,8.49-105.23,25.43-241,47
	c-36.64,5.82-66.92,9.65-87,12c50.67-92.67,101.33-185.33,152-278c172.67-0.33,345.33-0.67,518-1
	C951.67,599.67,950.33,705.33,949,811z"/>
<path class="st7" d="M953,811c-16.63-22.52-43.96-54.34-85-82c-111.05-74.85-238.83-62.86-344-53c-50.96,4.78-122.97,15.88-207,44
	c58.33-106.33,116.67-212.67,175-319c84.42-8,155.46-6.52,208-3c152.19,10.2,201.05,41,228,64c17.38,14.83,29.44,29.64,37,40
	C961,605,957,708,953,811z"/>
<path class="st2" d="M1028.33,856c225.33-2.67,450.67-5.33,676-8c-48-82-96-164-144-246c-179.33-11.33-358.67-22.67-538-34
	c-14.35,34.74-80.27,201.43-8,276C1018.48,848.29,1023.13,852.31,1028.33,856z"/>
<path class="st3" d="M1014.33,844c120.83-41.79,216.58-45.48,282-41c74.33,5.09,123.8,22.07,243,30c68.55,4.56,125.17,4.14,163,3
	c-47.33-89.33-94.67-178.67-142-268h-537c-11.04,21.65-92.49,185.61-26,261C1002.08,834.39,1007.69,839.44,1014.33,844z"/>
<path class="st4" d="M989.33,821c1.43,2.36,3.93,5.71,8,8c19.69,11.06,49.13-17.89,89-36c23.38-10.63,42.92-13.42,82-19
	c44.74-6.39,83.56-4.44,147,4c134.18,17.86,166.85,37.9,267,44c41.84,2.55,76.54,2.49,100,2c-51.67-97-103.33-194-155-291
	c-179.33,2.67-358.67,5.33-538,8V821z"/>
<path class="st5" d="M989.33,821c30.15-25.06,79.27-58.49,146-73c55.64-12.1,100.18-5.23,187,9c107.83,17.68,136.07,36.79,236,48
	c46.76,5.25,85.09,6.05,109,6c-53.67-97.67-107.33-195.33-161-293c-172.67-0.33-345.33-0.67-518-1
	c41.65,117.68,29.17,182.87,8.67,221c-9.89,18.39-39.02,62.84-25.67,78C975.72,820.99,983.49,821.41,989.33,821z"/>
<path class="st6" d="M953,811c4.08,2.18,10.32,4.79,18,5c26.06,0.7,41.11-27.04,69-50c17.07-14.05,33.49-20.7,66.33-34
	c71.33-28.89,143.08-19.12,203-13c83.17,8.49,105.23,25.43,241,47c36.64,5.82,66.92,9.65,87,12c-50.67-92.67-101.33-185.33-152-278
	c-172.67-0.33-345.33-0.67-518-1C962.55,603,957.78,707,953,811z"/>
<path class="st7" d="M953,811c20.15-20.77,52.99-50.76,99.33-77c126.34-71.55,256.28-61.23,344-53c50.96,4.78,122.97,15.88,207,44
	c-58.33-106.33-116.67-212.67-175-319c-84.42-8-155.46-6.52-208-3c-152.19,10.2-201.05,41-228,64c-17.38,14.83-29.44,29.64-37,40
	C954.55,608.33,953.78,709.67,953,811z"/>
<g>
	<g>
		<path class="st8" d="M1030.3,240.51c0.39,1.46-0.1,2.38-1.46,2.74l-25.04,6.72c-1.37,0.37-2.27-0.27-2.72-1.93
			c-1.28-4.76-3.02-11.95-5.22-21.58c-2.2-9.62-3.94-16.81-5.22-21.58c-0.37-1.37-0.77-2.04-1.22-2.02
			c-0.44,0.42-1.65,8.56-3.62,24.4c-1.14,9.31-2.29,18.59-3.45,27.85c-0.18,1.21-0.6,2.01-1.26,2.38c-0.22,0.11-1.16,0.39-2.81,0.83
			c-2.45,0.66-4.04,0.58-4.77-0.24c-3.94-4.5-9.31-11.15-16.12-19.94c-7.24-9.28-12.6-15.96-16.07-20.03
			c-0.16-0.21-0.44-0.41-0.85-0.61c-0.22,0.51-0.2,1.24,0.06,2.18c1.24,4.62,3.22,11.52,5.93,20.7c2.72,9.18,4.69,16.08,5.93,20.7
			c0.44,1.65,0,2.65-1.32,3.01l-23.63,6.34c-0.94,0.25-1.56,0.26-1.86,0.01c-0.29-0.25-0.54-0.75-0.75-1.51
			c-1.38-5.14-3.2-12.93-5.47-23.37c-2.27-10.44-4.09-18.23-5.47-23.37c-1.47-5.47-4.46-15.66-8.96-30.58
			c-1.1-3.9-2.87-9.67-5.32-17.3l-0.39-1.18c-0.3-0.93,0.56-1.67,2.59-2.21c2.59-0.7,6.46-1.82,11.61-3.38
			c5.14-1.56,9.01-2.68,11.61-3.38c0.52-0.14,1.51,0.66,2.99,2.38l32.82,39.8c2.28,2.67,3.92,3.88,4.91,3.61
			c0.52-0.14,1.15-2.21,1.9-6.2c2.11-11.18,5.15-28,9.14-50.45c0.31-2.05,0.93-3.21,1.88-3.46c1.37-0.37,3.45-0.85,6.25-1.45
			c2.8-0.6,4.9-1.09,6.32-1.47c1.18-0.32,2.95-0.92,5.32-1.81c2.37-0.89,4.14-1.49,5.32-1.81c1.41-0.38,2.27,0,2.58,1.13
			c1.49,5.57,3.52,13.93,6.09,25.1c2.57,11.17,4.6,19.53,6.09,25.1c1.38,5.14,3.66,12.79,6.84,22.96
			C1026.66,227.78,1028.94,235.41,1030.3,240.51z"/>
	</g>
</g>
<g>
	<g>
		<path class="st8" d="M1456.81,342.18c-0.25,0.84-1,1.26-2.27,1.24c-1.52-0.04-5.93-1.12-13.24-3.26
			c-6.7-1.96-10.96-3.41-12.77-4.34c-1.5-0.79-2.2-2.14-2.1-4.05c0.38-7.21,0.19-11.19-0.56-11.92c-0.65-0.55-6.89-2.55-18.7-6
			c-7.97-2.33-12.27-3.36-12.91-3.09c-1.02,0.52-2.64,2.77-4.87,6.74c-2.03,3.63-3.72,5.42-5.08,5.38c-1.7-0.09-7.1-1.47-16.19-4.12
			c-7.17-2.1-10.56-3.82-10.16-5.18c0.36-1.22,10.03-14.64,29.02-40.28c20.56-27.72,31.79-42.98,33.68-45.78
			c1.08-1.62,2-2.32,2.75-2.1c1.27,0.37,3.19,1.06,5.77,2.07c2.58,1.01,4.53,1.7,5.84,2.09c1.27,0.37,3.15,0.83,5.66,1.39
			c2.51,0.56,4.37,1.01,5.59,1.37c0.89,0.26,1.48,1.27,1.78,3.04c0.86,5.59,2.63,24.42,5.31,56.49
			C1456.03,324.15,1457.18,340.91,1456.81,342.18z M1425.69,263.57c-1.59,1.78-4.56,5.76-8.92,11.97
			c-4.67,6.57-7.19,10.49-7.56,11.76c-0.25,0.84,1.02,1.72,3.81,2.64c1.42,0.52,3.8,1.26,7.13,2.24c3.09,0.9,4.91,1.03,5.46,0.38
			c0.16-0.21,0.31-0.52,0.43-0.94c0.45-1.55,0.62-6.13,0.51-13.74C1426.41,270.49,1426.12,265.73,1425.69,263.57z"/>
	</g>
</g>
<g>
	<g>
		<path class="st8" d="M487.4,288.77c0.87,1,0.71,1.93-0.46,2.81c-0.74,0.56-3.21,1.73-7.39,3.51c-4.18,1.79-6.8,2.83-7.86,3.13
			c-5.78,9.32-12.42,16.78-19.93,22.39c-12.09,9.03-25.01,12.42-38.78,10.15c-13.6-2.21-24.93-9.38-33.99-21.5
			c-9.27-12.4-13.24-25.46-11.92-39.19c1.35-14.18,8.15-25.84,20.39-34.99c5.94-4.44,12.39-7.49,19.32-9.14
			c7.54-1.73,14.63-1.55,21.27,0.56c1.37,0.44,2.2,0.86,2.49,1.25c0.94,1.25,1.28,5.37,1.04,12.34c-0.24,6.98-0.87,10.85-1.89,11.61
			c-0.23,0.18-1.73,0.05-4.5-0.39c-3.35-0.48-6.42-0.51-9.2-0.07c-4.17,0.62-8.06,2.27-11.65,4.96c-5.87,4.38-8.88,10.06-9.05,17.01
			c-0.2,6.43,1.96,12.65,6.46,18.67c4.77,6.38,10.2,10.18,16.3,11.41c6.31,1.26,12.61-0.46,18.9-5.17
			c3.99-2.98,7.7-7.31,11.14-12.99c-1.08-1.2-3.89-4.23-8.42-9.07c-3.55-3.69-6.26-6.78-8.13-9.29c-0.55-0.74-0.64-1.38-0.25-1.92
			c0.14-0.22,0.42-0.5,0.85-0.82c1.13-0.85,2.93-2.02,5.37-3.51c2.45-1.49,4.26-2.68,5.43-3.56c1.25-0.94,3.06-2.43,5.43-4.47
			c2.37-2.05,4.18-3.54,5.43-4.47c0.98-0.73,1.95-0.45,2.91,0.84c1.4,1.88,3.41,4.79,6.04,8.75c2.62,3.96,4.63,6.87,6.04,8.75
			c3.77,5.05,9.78,12.32,18.04,21.81L487.4,288.77z"/>
	</g>
</g>
<g>
	<g>
		<path class="st8" d="M1218.07,268.46c0,5.76,0.15,14.43,0.44,26s0.44,20.24,0.44,26c0,0.98-0.22,1.59-0.66,1.83
			c-0.1,0.05-0.73,0.15-1.9,0.29c-3.17,0.39-7.42,0.59-12.74,0.59c-7.13,0-11.67-0.2-13.62-0.59c-1.42-0.29-2.12-1.05-2.12-2.27
			c0,0.78,0.22-3.52,0.66-12.89c0.88-19.78,1.32-32.76,1.32-38.96c0-5.22-0.17-13.06-0.51-23.51c-0.34-10.45-0.51-18.29-0.51-23.51
			c0-1.07,0.56-1.61,1.68-1.61c1.51,0,3.8,0.07,6.85,0.22c3.05,0.15,5.33,0.22,6.85,0.22c1.51,0,3.75-0.07,6.7-0.22
			c2.95-0.15,5.19-0.22,6.7-0.22c1.42,0,2.12,0.54,2.12,1.61c0,5.23-0.28,13.06-0.84,23.51
			C1218.35,255.4,1218.07,263.24,1218.07,268.46z"/>
	</g>
</g>
<g>
	<g>
		<path class="st8" d="M680.9,222.91c-0.37,0.69-1.31,1.34-2.82,1.97c-13,5.1-26.05,4.09-39.13-3.03
			c-13.38-7.28-21.75-17.76-25.09-31.42c-3.3-13.25-1.28-26.6,6.05-40.07c7.1-13.04,17.08-21.94,29.97-26.72
			c13.46-5.02,26.58-4.05,39.36,2.91c13.9,7.56,22.47,17.76,25.71,30.59c0.34,1.41,0.32,2.48-0.08,3.21
			c-0.44,0.82-3.58,3.03-9.41,6.64c-5.83,3.61-9.3,5.53-10.43,5.75c-0.53,0.16-1.05,0.09-1.57-0.19c-0.22-0.12-0.82-1.56-1.82-4.32
			c-1.2-3.32-2.59-6.16-4.19-8.54c-2.46-3.56-5.51-6.33-9.15-8.32c-6.3-3.43-12.63-3.82-18.97-1.15
			c-5.85,2.48-10.53,6.94-14.03,13.38c-3.55,6.52-4.79,12.93-3.72,19.24c1.16,6.86,4.89,12,11.2,15.43
			c3.73,2.03,7.71,3.14,11.95,3.33c2.77,0.12,5.82-0.17,9.14-0.86c2.77-0.6,4.27-0.85,4.48-0.73c0.43,0.23,0.73,0.7,0.9,1.41
			c0.27,1.14,0.67,4.84,1.22,11.09C681.01,218.96,681.16,222.43,680.9,222.91z"/>
	</g>
</g>
</svg>
