<?xml version="1.0" encoding="utf-8"?>
<!-- Generator: Adobe Illustrator 23.0.5, SVG Export Plug-In . SVG Version: 6.00 Build 0)  -->
<svg version="1.1" id="圖層_1" xmlns="http://www.w3.org/2000/svg" xmlns:xlink="http://www.w3.org/1999/xlink" x="0px" y="0px"
	 viewBox="0 0 1920 1080" style="enable-background:new 0 0 1920 1080;" xml:space="preserve">
<style type="text/css">
	.st0{fill:#F9F9F5;}
	.st1{fill:#190F17;}
	.st2{fill:#556D55;}
	.st3{fill:#2A4C33;}
	.st4{fill:#406309;}
	.st5{fill:#2C663D;}
	.st6{fill:#58A56C;}
	.st7{fill:#2D222E;}
	.st8{fill:#719E38;}
	.st9{fill:#D4CF99;}
	.st10{fill:#020202;}
	.st11{fill:#CAC16B;}
	.st12{fill:#342D35;}
	.st13{fill:#10050F;}
	.st14{fill:#8E3C07;}
	.st15{fill:#477A1A;}
	.st16{fill:#7AB640;}
	.st17{fill:#5C8431;}
	.st18{fill:#B77D35;}
	.st19{fill:#0F0E0E;}
	.st20{fill:#2C262D;}
	.st21{fill:#97D0AC;}
	.st22{fill:#120B12;}
	.st23{fill:#312537;}
	.st24{fill:#0F070F;}
	.st25{fill:#7FBCD2;}
</style>
<g>
	<g>
		<path class="st0" d="M936.1,529.34c2.9,0,2.9-4.5,0-4.5C933.21,524.84,933.21,529.34,936.1,529.34L936.1,529.34z"/>
	</g>
</g>
<g>
	<path class="st1" d="M948.99,548.23c1.09-0.21,1.72-1.36,2.7-1.89c0.68-0.36,1.45-0.39,2.22-0.42c1.5-0.05,3-0.1,4.5-0.15
		c0.57-0.02,1.17-0.03,1.71,0.15c0.39,0.14,0.75,0.36,1.09,0.6c0.93,0.63,1.82,1.32,2.68,2.04c-1.8,2.09-4.17,3.6-6.54,5.01
		c-0.78,0.47-1.68,0.95-2.57,0.72c-0.5-0.14-0.91-0.46-1.3-0.81c-1.7-1.52-3.18-3.27-4.4-5.19"/>
</g>
<path class="st2" d="M972,570h-24c-9.9,0-18-8.1-18-18v-24c0-9.9,8.1-18,18-18h24c9.9,0,18,8.1,18,18v24
	C990,561.9,981.9,570,972,570z"/>
<g>
	<path class="st3" d="M964.29,534.78c0.83,2.05,1.5,4.17,2.16,6.29c0.39,1.24,0.8,2.52,0.9,3.82c0.06,0.78,0.02,1.57-0.32,2.28
		c-0.33,0.7-0.91,1.26-1.55,1.71c-0.48,0.36-1.01,0.66-1.56,0.87c-0.92,0.34-1.92,0.41-2.9,0.46c-3.02,0.18-6.03,0.38-9.05,0.41
		c-0.85,0.02-1.73,0.02-2.57-0.14c-1.56-0.29-3.02-1.09-4.03-2.3c-1.02-1.22-1.56-2.82-1.44-4.38c0.14-1.62,0.93-3.1,1.91-4.41
		c0.46-0.61,0.96-1.21,1.33-1.89c0.63-1.16,0.86-2.47,1.18-3.75c0.33-1.27,0.81-2.58,1.78-3.45c0.77-0.69,1.77-1.04,2.78-1.27
		c2.19-0.54,4.47-0.64,6.7-0.33c0.72,0.11,1.42,0.25,2.07,0.6c0.99,0.54,1.68,1.5,2.09,2.55c0.41,1.05,0.54,2.17,0.61,3.28"/>
</g>
<g>
	<path class="st4" d="M954.59,543.91c-0.05,1.03-0.77,2.07-1.34,2.57c-0.54,0.45-1.48,0.68-2.74,1.35
		c-0.15,0.09-0.32,0.18-0.41,0.33c-0.15,0.25-0.03,0.6,0.16,0.81c0.5,0.57,1.34,0.6,2.09,0.6c2.02,0,4.05,0,6.07-0.02
		c1.07,0,2.27-0.08,2.94-0.9c0.21-0.27,0.34-0.65,0.21-0.96c-0.18-0.42-0.7-0.52-1.14-0.64c-1.56-0.45-2.77-1.89-2.97-3.5
		c-1.11-0.33-2.43-0.59-2.79-0.06C954.59,543.63,954.6,543.78,954.59,543.91z"/>
</g>
<g>
	<path class="st5" d="M951.45,548.95c2.86-0.05,5.73-0.06,8.61-0.07c-0.82,0.85-1.64,1.72-2.46,2.58c-0.73,0.78-1.5,1.56-2.43,2.08
		c-0.09,0.05-0.19,0.11-0.28,0.08c-0.09-0.02-0.15-0.09-0.21-0.15c-1.27-1.35-2.37-2.85-3.26-4.48"/>
</g>
<g>
	<g>
		<path class="st6" d="M951.7,550.07c2.68-0.06,5.35-0.12,8.04-0.18c0.72-0.02,0.72-1.14,0-1.13c-2.68,0.06-5.36,0.12-8.04,0.18
			C950.98,548.95,950.97,550.08,951.7,550.07L951.7,550.07z"/>
	</g>
</g>
<g>
	<g>
		<path class="st7" d="M951.48,547.24c0.8-0.21,1.55-0.6,2.16-1.14c0.06-0.05,0.07-0.15,0.06-0.22c-0.06-0.18-0.21-0.27-0.39-0.26
			c-0.18,0.02-0.34,0.1-0.51,0.18c-0.36,0.16-0.73,0.33-1.09,0.5c-0.1,0.05-0.14,0.21-0.07,0.32c0.06,0.12,0.19,0.14,0.32,0.08
			c0.28-0.12,0.57-0.26,0.84-0.38c0.14-0.06,0.27-0.12,0.41-0.18c0.05-0.02,0.09-0.05,0.15-0.06c-0.03,0,0.05,0,0.03,0
			c-0.03,0.03-0.09-0.06-0.09-0.07c0.02-0.08,0.05-0.15,0.06-0.23c-0.57,0.5-1.24,0.84-1.96,1.02
			C951.07,546.89,951.2,547.32,951.48,547.24L951.48,547.24z"/>
	</g>
</g>
<g>
	<path class="st8" d="M962.04,528.73c0.33,0.36,0.33,0.61,0.67,2.05c0.32,1.34,1.36,4.77,1.48,7.39c0.02,0.38,0.03,0.77-0.1,1.11
		c-0.18,0.53-0.63,0.9-1.05,1.23c-2.02,1.59-4.29,2.85-6.7,3.73c-0.19,0.08-0.39,0.14-0.6,0.11c-0.18-0.03-0.33-0.14-0.48-0.23
		c-2.07-1.36-4.14-2.73-6.23-4.09c-0.54-0.36-1.11-0.75-1.35-1.35c-0.24-0.6-0.09-1.28,0.06-1.91c0.69-2.84,1.44-5.73,3.07-8.13
		c0.1-0.15,0.21-0.3,0.38-0.39c0.24-0.14,0.49-0.1,0.57-0.09c0.43,0.05-2.09-0.43,5.23-0.18
		C961.18,528.15,961.65,528.29,962.04,528.73z"/>
</g>
<g>
	<path class="st9" d="M955.47,535.91c-0.02,0.27-0.03,0.52-0.05,0.8c-0.02,0.14-0.02,0.29-0.07,0.42c-0.06,0.14-0.18,0.24-0.3,0.34
		c-0.26,0.21-0.51,0.43-0.77,0.65c-0.05,0.03-0.09,0.07-0.09,0.14c0,0.07,0.06,0.14,0.12,0.16c0.51,0.39,1.01,0.78,1.52,1.17
		c0.06,0.05,0.1,0.09,0.18,0.11c0.12,0.03,0.23-0.02,0.33-0.06c0.6-0.27,1.2-0.57,1.78-0.87c0.05-0.03,0.11-0.06,0.11-0.1
		s-0.05-0.09-0.08-0.12c-0.25-0.21-0.52-0.42-0.78-0.61c-0.1-0.09-0.22-0.18-0.27-0.3c-0.06-0.12-0.06-0.25-0.06-0.39
		c0-0.38,0.02-0.77,0.02-1.14c0-0.06,0-0.14-0.05-0.18c-0.05-0.05-0.12-0.06-0.19-0.06c-0.43,0-0.87,0-1.29,0"/>
</g>
<g>
	<path class="st0" d="M957.65,534.89c0.36-0.41,0.72-0.82,1.16-1.16c0.44-0.33,0.96-0.55,1.52-0.54c0.63,0.02,1.2,0.34,1.74,0.66
		c0.21,0.12,0.43,0.25,0.52,0.48c0.12,0.28-0.03,0.63-0.24,0.85c-0.32,0.38-0.78,0.6-1.26,0.7c-0.48,0.1-0.98,0.12-1.45,0.1
		c-0.57-0.02-1.18-0.06-1.66-0.38c-0.18-0.12-0.33-0.27-0.41-0.46c-0.06-0.2,0-0.45,0.18-0.55"/>
</g>
<g>
	<g>
		<path class="st10" d="M960.05,535.21c1.3,0,1.3-2.02,0-2.02C958.74,533.19,958.74,535.21,960.05,535.21L960.05,535.21z"/>
	</g>
</g>
<g>
	<g>
		<path class="st10" d="M957.75,534.89c0.61-0.58,1.3-1.35,2.2-1.39c0.87-0.05,1.76,0.2,2.54,0.59c0.25,0.14,0.48-0.26,0.22-0.39
			c-0.85-0.43-1.88-0.7-2.85-0.65c-1.01,0.08-1.74,0.86-2.45,1.52C957.21,534.77,957.54,535.08,957.75,534.89L957.75,534.89z"/>
	</g>
</g>
<g>
	<path class="st0" d="M954.18,534.89c-0.36-0.41-0.72-0.82-1.16-1.16c-0.44-0.33-0.96-0.55-1.52-0.54c-0.63,0.02-1.2,0.34-1.74,0.66
		c-0.21,0.12-0.43,0.25-0.53,0.48c-0.12,0.28,0.03,0.63,0.24,0.85c0.32,0.38,0.78,0.6,1.26,0.7c0.48,0.1,0.98,0.12,1.45,0.1
		c0.57-0.02,1.18-0.06,1.67-0.38c0.18-0.12,0.33-0.27,0.41-0.46c0.06-0.2,0-0.45-0.18-0.55"/>
</g>
<g>
	<g>
		<path class="st10" d="M951.77,535.21c1.3,0,1.3-2.02,0-2.02S950.46,535.21,951.77,535.21L951.77,535.21z"/>
	</g>
</g>
<g>
	<g>
		<path class="st10" d="M954.39,534.55c-0.69-0.66-1.43-1.44-2.45-1.52c-0.98-0.08-1.98,0.21-2.85,0.64
			c-0.26,0.14-0.03,0.53,0.23,0.39c0.78-0.39,1.66-0.61,2.53-0.58c0.92,0.05,1.59,0.8,2.2,1.39
			C954.29,535.08,954.6,534.77,954.39,534.55L954.39,534.55z"/>
	</g>
</g>
<circle class="st11" cx="961.5" cy="537.75" r="1.13"/>
<circle class="st11" cx="950.25" cy="537.75" r="1.13"/>
<g>
	<g>
		<path class="st10" d="M953.91,542.22c1.47-0.6,3.05-0.82,4.62-0.66c0.29,0.03,0.29-0.42,0-0.45c-1.6-0.16-3.24,0.07-4.74,0.68
			C953.54,541.89,953.64,542.32,953.91,542.22L953.91,542.22z"/>
	</g>
</g>
<g>
	<path class="st7" d="M954.09,545.77c-0.33,0.02-1.09,0.12-1.8,0.66c-0.21,0.17-0.64,0.51-0.81,1.01c-0.28,0.81,0.17,1.71,1.02,2.82
		c0.99,1.27,1.98,2.55,2.98,3.83c-2.55-0.95-4.77-2.78-6.18-5.1c-0.2-0.32-0.38-0.67-0.32-1.03c0.07-0.38,0.39-0.64,0.67-0.9
		c0.95-0.77,1.41-1.16,2.02-1.36c1.04-0.33,1.93-0.16,2.37-0.06"/>
</g>
<g>
	<path class="st7" d="M960.57,546.75c0.28-0.59,1.14-0.68,1.71-0.36s0.9,0.93,1.21,1.5c0.09,0.16,0.17,0.34,0.09,0.51
		c-0.05,0.09-0.12,0.15-0.2,0.21c-2.68,2.07-5.54,3.93-8.51,5.57c1.18-1.34,2.36-2.68,3.54-4.02c0.91-1.04,1.88-2.18,1.98-3.56"/>
</g>
<g>
	<path class="st12" d="M947.11,548.84c0.3-0.55,0.84-1.22,1.44-1c0.21,0.07,0.36,0.24,0.51,0.39c1.83,1.92,3.82,3.67,5.97,5.25
		c0.12,0.09,0.24,0.18,0.39,0.19c0.18,0.03,0.34-0.05,0.51-0.12c2.91-1.3,5.63-3.09,7.96-5.27c0.26,0.26,0.53,0.49,0.78,0.75
		c0.11,0.09,0.21,0.21,0.23,0.34c0.02,0.21-0.18,0.36-0.36,0.48c-2.79,1.77-5.7,3.33-8.72,4.67c-0.24,0.1-0.48,0.21-0.73,0.16
		c-0.23-0.03-0.42-0.16-0.6-0.3c-2.49-1.83-4.96-3.7-7.43-5.59"/>
</g>
<g>
	<path class="st13" d="M969.96,557.43c1.09-0.18,2.22-0.21,3.32-0.11c0.09,0.02,0.18,0.03,0.26,0.09c0.07,0.08,0.07,0.2,0.07,0.3
		c0,2.57,0,5.13-0.02,7.68c-3.06,0.07-6.14,0.05-9.19-0.08c-0.17,0-0.34-0.02-0.5-0.12c-0.12-0.09-0.18-0.24-0.24-0.39
		c-1.23-3.07-2.1-6.3-2.57-9.58c3.2,1.08,6.52,1.77,9.9,2.04"/>
</g>
<g>
	<g>
		<path class="st7" d="M956.7,553.36c2.46-1.38,4.79-2.97,6.99-4.71c0.23-0.18-0.09-0.49-0.32-0.32c-2.17,1.73-4.48,3.28-6.9,4.65
			C956.22,553.13,956.45,553.52,956.7,553.36L956.7,553.36z"/>
	</g>
</g>
<g>
	<path class="st14" d="M982.77,534.87c0.58-0.07,1.18,0.06,1.69,0.34c0.08,0.05,0.15,0.09,0.18,0.18c0.05,0.14-0.06,0.27-0.17,0.39
		c-0.33,0.38-0.57,0.81-0.81,1.24c-1.66,3.16-2.84,6.55-3.95,9.95c-0.99,3.05-1.95,6.11-2.86,9.18c-0.29,0.98-0.57,1.95-0.93,2.9
		c-0.66,1.77-1.57,3.45-2.19,5.23c-0.15,0.45-0.3,0.91-0.66,1.21s-1.01,0.32-1.23-0.1c2.05-3.84,3.43-8,4.8-12.12
		c0.41-1.23,0.81-2.48,1.23-3.7c0.32-0.93,0.61-1.88,0.9-2.82c1.18-3.99,1.84-8.2,3.98-11.77"/>
</g>
<g>
	<g>
		<path class="st15" d="M973.13,556.5c0.63-0.3,1.3-0.61,2.01-0.55c0.27,0.03,0.54,0.11,0.72,0.32c0.24,0.27,0.27,0.69,0.11,1.02
			s-0.48,0.55-0.83,0.68c-0.34,0.12-0.72,0.14-1.08,0.15c-0.3,0-0.58,0-0.89-0.03c-0.05,0-0.09-0.02-0.12-0.05s-0.03-0.06-0.03-0.09
			c-0.03-0.46-0.02-0.95,0.07-1.41"/>
	</g>
	<g>
		<g>
			<path class="st16" d="M974.39,555.73c-0.07-0.14-0.02-0.32,0.09-0.42s0.25-0.16,0.41-0.18c0.64-0.12,1.29,0.15,1.86,0.45
				c0.54,0.27,1.14,0.67,1.2,1.27c0,0.08,0,0.17-0.06,0.21c-0.05,0.03-0.09,0.05-0.14,0.07c-0.09,0.07-0.05,0.23-0.02,0.36
				c0.05,0.29-0.19,0.57-0.46,0.59c-0.15,0.02-0.33-0.02-0.39,0.12c-0.03,0.06-0.02,0.12,0,0.19c0.02,0.26-0.21,0.5-0.46,0.48
				c0.03,0.33,0.05,0.69-0.2,0.91c-0.3,0.29-0.78,0.16-1.17,0.02c-0.22-0.09-0.48-0.18-0.61-0.39c-0.12-0.2-0.12-0.43-0.09-0.66
				c0.14-0.85,0.65-1.59,1.07-2.34c0.03-0.05,0.05-0.09,0.03-0.15c-0.02-0.05-0.06-0.06-0.09-0.08c-0.21-0.07-0.43-0.1-0.65-0.18
				c-0.21-0.08-0.41-0.27-0.39-0.5"/>
		</g>
		<g>
			<g>
				<path class="st17" d="M974.97,557.32c0.66,0.18,1.27,0.48,1.8,0.92c0.1,0.09,0.27-0.08,0.16-0.17c-0.55-0.45-1.2-0.78-1.91-0.96
					C974.9,557.07,974.84,557.28,974.97,557.32L974.97,557.32z"/>
			</g>
		</g>
		<g>
			<g>
				<path class="st17" d="M975.41,556.45c0.77,0.03,1.45,0.43,2.1,0.81c0.12,0.08,0.24-0.12,0.12-0.19
					c-0.69-0.41-1.4-0.81-2.22-0.84C975.27,556.21,975.27,556.44,975.41,556.45L975.41,556.45z"/>
			</g>
		</g>
		<g>
			<g>
				<path class="st17" d="M975.42,558.9c0.32,0.09,0.63,0.2,0.96,0.28c0.14,0.05,0.2-0.18,0.06-0.21c-0.32-0.09-0.63-0.2-0.96-0.29
					C975.34,558.65,975.29,558.85,975.42,558.9L975.42,558.9z"/>
			</g>
		</g>
	</g>
</g>
<g>
	<g>
		<path class="st18" d="M989.46,530.74c-2.3,1.73-4.39,3.7-6.25,5.88L989.46,530.74L989.46,530.74z"/>
	</g>
	<g>
		<g>
			<path class="st18" d="M983.97,536.88c1.36-2.58,3.23-4.82,5.18-6.98c0.48-0.54-0.32-1.33-0.8-0.8c-2.01,2.22-3.95,4.55-5.36,7.2
				C982.66,536.94,983.64,537.51,983.97,536.88L983.97,536.88z"/>
		</g>
	</g>
	<g>
		<g>
			<path class="st18" d="M983.8,536.63c1.2-3.03,2.94-5.84,5.1-8.25c0.48-0.54-0.32-1.34-0.8-0.8c-2.31,2.58-4.13,5.54-5.39,8.74
				C982.45,537,983.55,537.29,983.8,536.63L983.8,536.63z"/>
		</g>
	</g>
	<g>
		<g>
			<path class="st18" d="M983.74,536.61c0.42-1.77,0.75-3.61,1.35-5.35c0.61-1.79,1.64-3.48,2.47-5.16
				c0.33-0.65-0.64-1.21-0.97-0.57c-0.87,1.73-1.86,3.43-2.52,5.25c-0.65,1.77-0.98,3.69-1.41,5.53
				C982.5,537.02,983.58,537.32,983.74,536.61L983.74,536.61z"/>
		</g>
	</g>
	<g>
		<g>
			<path class="st18" d="M984.34,534.93c0.38-2.52,1.76-4.73,3.34-6.67c0.2-0.24,0.23-0.57,0-0.8c-0.2-0.2-0.6-0.24-0.8,0
				c-1.71,2.08-3.23,4.45-3.65,7.17c-0.05,0.3,0.08,0.6,0.39,0.69C983.93,535.4,984.3,535.23,984.34,534.93L984.34,534.93z"/>
		</g>
	</g>
	<g>
		<g>
			<path class="st18" d="M983.57,536.55c0.42-2.93,1.33-5.75,2.7-8.36c0.33-0.64-0.63-1.22-0.98-0.57c-1.41,2.7-2.37,5.61-2.8,8.63
				c-0.05,0.3,0.07,0.6,0.39,0.69C983.15,537.03,983.52,536.85,983.57,536.55L983.57,536.55z"/>
		</g>
	</g>
	<g>
		<g>
			<path class="st18" d="M983.46,536.31c0.39-2.76,0.99-5.49,1.78-8.17c0.21-0.69-0.89-0.99-1.08-0.3c-0.8,2.68-1.39,5.41-1.78,8.17
				c-0.05,0.3,0.08,0.6,0.39,0.69C983.02,536.79,983.41,536.61,983.46,536.31L983.46,536.31z"/>
		</g>
	</g>
	<g>
		<g>
			<path class="st18" d="M982.23,526.26c-0.09,3.38,0.05,6.75,0.39,10.09c0.08,0.72,1.2,0.72,1.13,0
				c-0.36-3.36-0.49-6.72-0.39-10.09C983.37,525.54,982.24,525.54,982.23,526.26L982.23,526.26z"/>
		</g>
	</g>
	<g>
		<g>
			<path class="st18" d="M983.27,536.02c-0.05-2.94,0.03-5.88,0.24-8.8c0.05-0.72-1.08-0.72-1.13,0c-0.2,2.94-0.29,5.86-0.24,8.8
				C982.16,536.74,983.28,536.76,983.27,536.02L983.27,536.02z"/>
		</g>
	</g>
	<g>
		<g>
			<path class="st18" d="M983.67,533.2c0.06-1.14,0.2-2.18,0.42-3.29c0.06-0.28-0.07-0.61-0.39-0.69c-0.29-0.06-0.63,0.09-0.69,0.39
				c-0.24,1.18-0.39,2.39-0.46,3.59c-0.02,0.3,0.27,0.57,0.57,0.57C983.43,533.74,983.66,533.52,983.67,533.2L983.67,533.2z"/>
		</g>
	</g>
	<g>
		<g>
			<path class="st18" d="M983.15,536.35c0.14-2.89,0.07-5.79-0.21-8.67c-0.07-0.72-1.2-0.72-1.13,0c0.29,2.88,0.36,5.78,0.21,8.67
				C981.99,537.09,983.11,537.07,983.15,536.35L983.15,536.35z"/>
		</g>
	</g>
	<g>
		<g>
			<path class="st18" d="M982.93,536.13c-0.25-1.13-0.19-2.33-0.24-3.48c-0.05-1.2-0.11-2.4-0.15-3.61c-0.03-0.72-1.16-0.72-1.13,0
				c0.06,1.24,0.1,2.5,0.16,3.75c0.05,1.2,0.02,2.44,0.28,3.63C982.01,537.14,983.1,536.84,982.93,536.13L982.93,536.13z"/>
		</g>
	</g>
	<g>
		<path class="st18" d="M981.34,529.6c-0.12,2.39,0.51,4.74,1.13,7.05"/>
	</g>
	<g>
		<g>
			<path class="st18" d="M984.61,531.05c-0.03-0.39,0.12-0.73,0.27-1.09c0.18-0.41,0.36-0.81,0.54-1.21
				c0.38-0.84,0.75-1.68,1.11-2.52c0.12-0.29,0.07-0.6-0.2-0.77c-0.24-0.14-0.64-0.07-0.77,0.2c-0.41,0.9-0.8,1.8-1.2,2.7
				c-0.19,0.43-0.39,0.85-0.57,1.29c-0.2,0.45-0.36,0.9-0.32,1.4c0.03,0.3,0.24,0.57,0.57,0.57
				C984.33,531.61,984.65,531.34,984.61,531.05L984.61,531.05z"/>
		</g>
	</g>
	<g>
		<g>
			<path class="st18" d="M984.95,529.04c0.12-0.7,0.27-1.43,0.43-2.11c0.07-0.29,0.15-0.57,0.25-0.84c0.03-0.06,0.03-0.08,0.02-0.05
				c0.02-0.05,0.03-0.08,0.06-0.12c0.03-0.06,0.06-0.11,0.09-0.16c0.09-0.16,0.14-0.21,0.24-0.33c0.21-0.23,0.22-0.57,0-0.8
				c-0.21-0.21-0.59-0.23-0.8,0c-0.5,0.52-0.75,1.18-0.92,1.86c-0.19,0.73-0.34,1.48-0.48,2.23c-0.05,0.3,0.07,0.6,0.39,0.69
				C984.52,529.5,984.89,529.34,984.95,529.04L984.95,529.04z"/>
		</g>
	</g>
</g>
<g>
	<g>
		<path class="st19" d="M981.95,537.03c0.12-0.02,0.25-0.02,0.38-0.02c0.12,0.02,0.23,0.03,0.36,0.06c0.25,0.06,0.45,0.17,0.67,0.32
			c0.11,0.07,0.26,0.02,0.32-0.07c0.06-0.12,0.02-0.24-0.07-0.32c-0.47-0.33-1.07-0.48-1.64-0.42c-0.12,0.02-0.23,0.09-0.23,0.23
			C981.72,536.93,981.82,537.05,981.95,537.03L981.95,537.03z"/>
	</g>
</g>
<g>
	<path class="st20" d="M947.37,548.88c-0.52,5.11-3.25,9.72-4.84,14.61c-0.21,0.64-0.39,1.33-0.18,1.98
		c7.6-0.75,15.32,0.65,22.92-0.06c-0.83-3.05-1.65-6.09-2.48-9.15c3.02,2.48,6.17,4.8,9.5,6.83c0.25-2.36,0.59-4.7,1-7.02
		c-3.21,0.3-6.52-1.65-7.8-4.62c-0.36-0.83-0.59-1.74-1.22-2.37c-2.31,2.13-4.88,4.25-7.96,4.82c-0.46,0.09-0.96,0.14-1.43-0.02
		c-0.38-0.14-0.7-0.39-1-0.65c-1.95-1.6-3.89-3.19-5.84-4.8c-0.24-0.2-0.65-0.36-0.8-0.11c-0.05,0.08-0.05,0.18-0.05,0.27
		c0,0.34,0,0.68,0,1.02"/>
</g>
<g>
	<g>
		<path d="M949.7,552.77c-1.38,3.84-2.22,7.84-2.49,11.93c-0.02,0.28,0.43,0.28,0.45,0c0.26-4.04,1.11-8,2.48-11.81
			C950.22,552.6,949.79,552.49,949.7,552.77L949.7,552.77z"/>
	</g>
</g>
<g>
	<path d="M955.64,556.95c0.77,2.66,1.09,5.45,0.99,8.2c0,0.08-0.02,0.15-0.06,0.2c-0.06,0.05-0.14,0.05-0.21,0.05
		c-0.48-0.03-0.96-0.08-1.45-0.11c-0.06,0-0.14-0.02-0.18-0.05c-0.11-0.09-0.08-0.25-0.03-0.38c0.89-2.63,0.16-5.55,0.84-8.25
		c0.1,0.38,0.21,0.77,0.32,1.14"/>
</g>
<g>
	<path d="M962.1,557.58c0.32,2.48,0.09,5.01,0.45,7.48c0.02,0.1,0.03,0.21,0.12,0.27c0.07,0.05,0.16,0.05,0.24,0.05
		c0.54-0.03,1.08-0.06,1.62-0.08c-0.57-2.61-1.35-5.17-2.35-7.66"/>
</g>
<g>
	<path class="st21" d="M951.3,530.64c2.2-0.95,7.14,0.6,8.07,0.61c0.08,0,0.27,0,0.43-0.14c0.15-0.14,0.16-0.36,0.23-0.55
		c0.23-0.78,1.4-1.08,1.98-0.49c0.21,0.21,0.33,0.48,0.45,0.77c1.59,3.7,2.88,7.53,3.89,11.43c0.24,0.92,0.45,1.88,0.22,2.79
		c-0.22,0.91-0.87,1.66-1.39,2.46c-0.52,0.78-0.98,1.73-0.75,2.66c0.24,0.99,1.25,1.67,2.27,1.73c1.02,0.07,2.01-0.38,2.82-0.99
		c-0.87-0.24-1.73-0.55-2.55-0.96c-0.14-0.06-0.28-0.15-0.3-0.3s0.12-0.29,0.25-0.38c0.61-0.41,1.36-0.51,2.04-0.8
		c2.16-0.89,3.34-3.63,2.52-5.81c-0.43-1.14-1.29-2.04-2.05-2.98c-1.89-2.32-3.27-5.05-4.05-7.95c-0.22-0.85-0.42-1.76-0.85-2.54
		c-1.05-1.89-3.29-2.71-5.39-3.22c-2.23-0.54-4.59-0.89-6.81-0.32s-4.29,2.27-4.71,4.52c-0.15,0.75-0.1,1.52-0.24,2.28
		c-0.21,1.23-0.87,2.35-1.56,3.39c-1.27,1.89-2.74,3.66-4.38,5.25c-0.66,0.65-1.35,1.26-1.77,2.09c-0.42,0.81-0.5,1.88,0.06,2.59
		c0.27,0.34,0.64,0.59,1.02,0.81c1.2,0.73,2.39,1.47,3.59,2.2c0.29,0.18,0.59,0.36,0.77,0.64s0.21,0.7-0.03,0.95
		c-0.16,0.16-0.41,0.21-0.61,0.24c-0.82,0.14-1.65,0.21-2.47,0.24c0.82,0.91,2.08,1.42,3.32,1.36c0.83-0.05,1.77-0.52,1.78-1.35
		c0-0.36-0.19-0.53-0.09-0.87c0.18-0.59,0.95-0.57,1.04-0.98c0.1-0.48-0.9-0.99-1.5-1.5c-0.73-0.63-1.5-1.86-1.5-4.5
		c1.41-1.09,2.13-2.2,2.52-3c1.27-2.59,0.25-4.38,1.88-7.08C950.19,531.6,950.59,530.94,951.3,530.64z"/>
</g>
<g>
	<g>
		<path class="st22" d="M949.98,525.24c0.34,0.58,2.68-1.41,5.84-1.07c0.24,0.03,4.77,0.57,5.95,0.72c0.16,0.02,0.36,0.03,0.46-0.09
			c0.07-0.08,0.09-0.18,0.1-0.29c0.08-0.51,0.14-1.02,0.18-1.53c0.03-0.32,0.05-0.66-0.08-0.95c-0.12-0.27-0.36-0.48-0.57-0.69
			c-1.53-1.52-2.13-3.72-3.29-5.55c-0.14-0.21-0.28-0.42-0.49-0.57c-0.36-0.24-0.82-0.24-1.26-0.24c-2.27-0.02-4.52-0.48-6.59-1.38
			c-0.43-0.18-0.99-0.38-1.33-0.05c-0.18,0.18-0.23,0.46-0.27,0.72c-0.61,3.82-4.04,6.9-4.05,10.77c1.18-1.34,2.4-2.64,3.77-3.8
			c1.34-1.13,1.95-0.75,2.13-0.65c0.73,0.43,0.46,2.1,0.43,2.23C950.7,524.34,949.77,524.88,949.98,525.24z"/>
	</g>
	<g>
		<path class="st23" d="M949.64,525.09c0.39-0.45,0.75-0.73,0.86-0.8c1.32-0.78,3.43-0.22,9.45-0.15c0.6,0.02,1.86-0.02,2.77,1.03
			c0.57,0.64,0.83,1.61,1.07,2.5c0.06,0.23,0.1,0.53-0.05,0.68c-0.1,0.1-0.29,0.09-0.32,0.09c-0.42-0.03-6.48,0.57-15.39,1.5
			C947.98,528.98,948.1,526.83,949.64,525.09z"/>
	</g>
	<g>
		<path class="st24" d="M942.36,528.95c12.98-0.48,14.01-1.84,23.04-0.63c3.33,0.45,6.7,1.14,9.64,2.8c1.5,0.86,2.93,2.01,3.6,3.59
			c0.14,0.33,0.25,0.67,0.19,1.02c-0.12,0.7-0.84,1.11-1.48,1.41c-2.64,1.18-5.43,2.01-8.3,2.46c-1.56-1.93-2.74-4.2-3.45-6.59
			c-0.23-0.75-0.43-1.57-1.08-2.02c-0.42-0.3-0.96-0.36-1.47-0.42c-3.9-0.42-7.84-0.56-11.76-0.39c-2.39,0.09-2.97,0.42-3.43,0.93
			c-1.09,1.2-0.06,2.54-1.36,4.4c-0.57,0.82-0.89,0.72-2.33,2.43c-0.36,0.42-0.55,0.67-0.93,0.87c-0.84,0.45-1.88,0.18-2.76-0.14
			c-1.97-0.72-3.86-1.65-5.66-2.72c-1.74-1.03-2.01-1.55-2.07-2.04c-0.03-0.34,0.02-1.08,1.29-2.16
			C937.13,529.13,942.16,528.95,942.36,528.95z"/>
	</g>
</g>
<g>
	<path class="st25" d="M949.99,531.46c-0.05-0.19,0.47-0.49,0.73-0.61c0.17-0.08,0.41-0.16,0.96-0.15c0.89,0,1.77,0.2,2.49,0.7
		c0.06,0.05,0.14,0.1,0.15,0.18c0.03,0.12-0.06,0.21-0.15,0.3c-0.12,0.12-0.39,0.42-0.77,0.39c-0.24-0.02-0.42-0.18-0.48-0.22
		C952.11,531.32,950.1,531.84,949.99,531.46z"/>
</g>
<g>
	<path class="st25" d="M957.99,532.26c-0.06-0.33,0.67-0.97,1.35-1.27c0.45-0.2,0.86-0.2,1.67-0.17c0.33,0,0.69,0.03,0.96,0.29
		c0.18,0.18,0.32,0.45,0.43,0.72c-2.05-0.46-2.88-0.18-3.23,0.21c-0.09,0.09-0.46,0.55-0.87,0.45
		C958.24,532.47,958.02,532.43,957.99,532.26z"/>
</g>
</svg>
