<?xml version="1.0" encoding="utf-8"?>
<!-- Generator: Adobe Illustrator 23.0.5, SVG Export Plug-In . SVG Version: 6.00 Build 0)  -->
<svg version="1.1" id="圖層_1" xmlns="http://www.w3.org/2000/svg" xmlns:xlink="http://www.w3.org/1999/xlink" x="0px" y="0px"
	 viewBox="0 0 1920 1080" style="enable-background:new 0 0 1920 1080;" xml:space="preserve">
<style type="text/css">
	.st0{fill:#F2DAE7;}
	.st1{fill:#F8C6B3;}
	.st2{fill:#AB5E58;}
	.st3{fill:#FFFFFF;}
	.st4{fill:#DC93A3;}
	.st5{fill:#070707;}
	.st6{fill:#24160E;}
	.st7{fill:#ECE1D7;}
	.st8{fill:#E0A689;}
	.st9{fill:#F49898;}
	.st10{fill:#F2E2E2;}
	.st11{fill:#D8AC9E;}
	.st12{fill:#0F0C0C;}
</style>
<path class="st0" d="M972,570h-24c-9.9,0-18-8.1-18-18v-24c0-9.9,8.1-18,18-18h24c9.9,0,18,8.1,18,18v24
	C990,561.9,981.9,570,972,570z"/>
<g>
	<g>
		<path class="st1" d="M948.42,559.79c1.01-1.13,1.84-2.39,2.48-3.77c0.08-0.15,0.14-0.32,0.21-0.48s0.16-0.34,0.2-0.52
			c0.03-0.3-0.2-0.48-0.47-0.46c-0.34,0.02-0.7,0.24-1,0.38c-0.41,0.16-0.81,0.34-1.2,0.52c-0.32,0.15-0.49,0.29-0.45,0.66
			c0.06,0.41,0.09,0.81,0.07,1.23c-0.02,0.21-0.03,0.41-0.06,0.61c-0.03,0.16-0.06,0.33,0,0.48c0.1,0.26,0.42,0.34,0.63,0.17
			c0.28-0.24,0.54-0.57,0.78-0.86c0.24-0.28,0.46-0.6,0.67-0.9c0.28-0.43,1.03-1.3,0.47-1.79c-0.26-0.21-0.6-0.12-0.75,0.17
			c-0.06,0.14-0.08,0.27-0.11,0.42c-0.03,0.21-0.09,0.41-0.2,0.58c-0.21,0.41-0.48,0.78-0.73,1.17c-0.27,0.41-0.52,0.81-0.8,1.23
			c0.14,0.08,0.26,0.15,0.39,0.23c0.41-0.72,0.84-1.43,1.34-2.1c0.14-0.18,0.25-0.34,0.39-0.52c0.09-0.12,0.23-0.26,0.25-0.42
			c0.06-0.36-0.3-0.46-0.57-0.36c-0.41,0.16-0.81,0.33-1.2,0.49c-0.32,0.14-0.45,0.34-0.45,0.69c-0.02,0.89-0.1,1.76-0.32,2.63
			c-0.06,0.24,0.28,0.41,0.41,0.18c0.21-0.41,0.41-0.83,0.55-1.26c0.14-0.38,0.32-0.78,0.32-1.18c0.02-0.33-0.2-0.65-0.54-0.66
			c-0.45-0.02-0.66,0.36-0.97,0.6c-0.23,0.16-0.02,0.55,0.22,0.39c0.2-0.14,0.42-0.51,0.68-0.53c0.32-0.03,0.12,0.48,0.07,0.65
			c-0.18,0.61-0.42,1.2-0.72,1.77c0.14,0.06,0.27,0.12,0.41,0.18c0.17-0.66,0.27-1.33,0.32-2.01c0.02-0.16,0.02-0.34,0.02-0.51
			c0-0.15-0.05-0.33,0.07-0.45c0.09-0.09,0.3-0.14,0.42-0.18c0.18-0.07,0.34-0.15,0.53-0.21c0.07-0.03,0.15-0.06,0.22-0.09
			c0.09-0.03,0.23-0.03,0.14-0.12c-0.09-0.07-0.11,0.03-0.16,0.1c-0.05,0.06-0.09,0.12-0.15,0.18c-0.2,0.25-0.39,0.52-0.57,0.8
			c-0.39,0.55-0.75,1.14-1.08,1.74c-0.14,0.25,0.23,0.47,0.39,0.23c0.34-0.54,0.7-1.08,1.05-1.62c0.3-0.47,0.63-0.93,0.72-1.48
			c0.02-0.09,0.02-0.2,0.05-0.29c0.07-0.15,0.14-0.02,0.12,0.09c-0.03,0.27-0.3,0.59-0.45,0.81c-0.32,0.5-0.66,0.96-1.05,1.39
			c-0.09,0.11-0.2,0.21-0.29,0.32c-0.05,0.05-0.07,0.07-0.12,0.12c-0.12,0.15,0,0.02,0.02-0.03c0.05-0.1,0.05-0.25,0.05-0.38
			c0.02-0.18,0.03-0.36,0.05-0.54c0.02-0.3,0-0.6-0.05-0.9c-0.02-0.1-0.07-0.27-0.05-0.38c0.05-0.1,0.29-0.16,0.41-0.22
			c0.29-0.12,0.57-0.26,0.85-0.38c0.29-0.12,0.57-0.27,0.87-0.36c0.03,0,0.15,0,0.11-0.05c0,0.02-0.06,0.16-0.06,0.15
			c-0.06,0.14-0.11,0.27-0.16,0.41c-0.1,0.26-0.23,0.51-0.36,0.75c-0.59,1.16-1.3,2.22-2.18,3.18
			C947.91,559.68,948.23,560.01,948.42,559.79L948.42,559.79z"/>
	</g>
</g>
<g>
	<path class="st2" d="M965.76,523.44c1.08,0.14,2.04,0.78,2.75,1.62c0.69,0.84,1.16,1.84,1.55,2.85c0.73,1.89,1.26,3.87,1.58,5.88
		c1.23-0.38,2.64,0.24,3.36,1.31c0.73,1.05,0.85,2.46,0.51,3.7c-0.33,1.24-1.08,2.34-1.96,3.28c1.66,0.42,2.95,2,3.05,3.7
		c0.02,0.33-0.02,0.67-0.2,0.95c-0.55,0.84-1.86,0.38-2.8,0.7c-0.26,1.01-1.4,1.45-2.42,1.66c-1.55,0.32-3.12,0.42-4.69,0.32
		c-0.7-0.05-1.44-0.15-2.04-0.55c-0.57-0.39-0.93-0.99-1.27-1.59c-0.5-0.86-0.99-1.7-1.48-2.55c-0.14-0.23-0.26-0.45-0.45-0.61
		c-0.6-0.52-1.56-0.32-2.16,0.2c-0.61,0.5-0.99,1.22-1.5,1.82c-1.29,1.55-3.43,2.33-5.42,1.98c-0.73-0.14-1.53-0.41-2.2-0.08
		c-1.53,0.73-0.84,3.6-2.41,4.25c-1.01,0.41-2.07-0.51-2.55-1.48c-0.95-1.92-0.68-4.53,1.02-5.8c-2.68-1.64-3.69-5.51-2.15-8.25
		c0.21-0.38,0.46-0.72,0.61-1.13c0.14-0.34,0.21-0.7,0.34-1.05c0.57-1.45,2.47-2.2,3.89-1.53c0.21-2.01,0.73-3.97,1.55-5.82
		c0.39-0.9,0.85-1.77,1.53-2.48c0.82-0.85,1.91-1.41,3.02-1.82c4.02-1.47,8.68-1.14,12.41,0.96"/>
</g>
<g>
	<g>
		<path class="st3" d="M951.2,525.45c0.33-0.66,1.3-1,1.95-1.3c0.67-0.32,1.38-0.57,2.08-0.78c1.4-0.42,2.85-0.66,4.32-0.72
			c1.45-0.06,2.92,0.06,4.36,0.38c1.5,0.33,3.2,0.8,4.38,1.82c0.23,0.18,0.54-0.14,0.32-0.32c-1.18-1.01-2.82-1.52-4.3-1.86
			c-1.65-0.39-3.36-0.54-5.04-0.45c-1.65,0.09-3.27,0.41-4.83,0.95c-0.73,0.26-1.47,0.57-2.16,0.91c-0.57,0.28-1.17,0.55-1.47,1.14
			C950.67,525.48,951.06,525.7,951.2,525.45L951.2,525.45z"/>
	</g>
</g>
<g>
	<path class="st3" d="M968.04,522.07c-0.16-0.39-0.14-0.84-0.02-1.23s0.36-0.77,0.59-1.11c0.24-0.38,0.48-0.77,0.72-1.14
		c0.09,0.99,0.07,1.99-0.06,2.97c-0.02,0.09-0.03,0.18-0.08,0.26c-0.08,0.12-0.21,0.18-0.33,0.24c-0.27,0.12-0.61,0.23-0.84,0.02"/>
</g>
<g>
	<path class="st3" d="M964.45,520.55c-0.03-0.41,0.15-0.78,0.34-1.13c0.15-0.29,0.3-0.55,0.45-0.84c0.03-0.05,0.06-0.11,0.12-0.11
		c0.05,0,0.09,0.06,0.11,0.11c0.28,0.57,0.41,1.2,0.34,1.83c-0.02,0.09-0.03,0.18-0.09,0.24s-0.14,0.08-0.21,0.09
		c-0.36,0.06-0.73-0.02-1.05-0.18"/>
</g>
<g>
	<path class="st3" d="M953.98,520.79c0.02-0.72,0.09-1.43,0.2-2.13c0.54,0.57,0.96,1.27,1.22,2.02c0.02,0.06,0.03,0.12,0.02,0.16
		c-0.05,0.12-0.21,0.14-0.33,0.12c-0.34-0.05-0.7-0.07-1.05-0.12"/>
</g>
<g>
	<path class="st3" d="M950.74,521.98c-0.3-1.24-0.58-2.54-0.42-3.8c0.48,0.3,0.83,0.78,1.05,1.29s0.38,1.07,0.51,1.62
		c0.02,0.05,0.03,0.1,0,0.16c-0.02,0.05-0.05,0.08-0.07,0.11c-0.32,0.27-0.65,0.52-0.99,0.75"/>
</g>
<g>
	<g>
		<path class="st3" d="M968.1,521.71c-0.33,0.86-0.42,1.79-0.25,2.68c0.02,0.12,0.16,0.18,0.27,0.15c0.12-0.03,0.18-0.15,0.15-0.27
			c-0.15-0.82-0.05-1.66,0.26-2.44c0.05-0.12-0.05-0.24-0.15-0.27C968.25,521.52,968.15,521.61,968.1,521.71L968.1,521.71z"/>
	</g>
</g>
<g>
	<g>
		<path class="st3" d="M964.71,520.48c-0.18,0.75-0.24,1.55-0.15,2.31c0.02,0.12,0.09,0.23,0.23,0.23c0.11,0,0.24-0.11,0.23-0.23
			c-0.07-0.73-0.03-1.47,0.14-2.19C965.2,520.32,964.77,520.2,964.71,520.48L964.71,520.48z"/>
	</g>
</g>
<g>
	<g>
		<path class="st3" d="M954.55,520.45c0.11,0.9,0.24,1.8,0.41,2.68c0.03,0.12,0.16,0.18,0.27,0.15c0.12-0.03,0.18-0.15,0.15-0.27
			c-0.17-0.85-0.29-1.71-0.39-2.57c-0.02-0.12-0.09-0.22-0.23-0.22C954.68,520.23,954.55,520.34,954.55,520.45L954.55,520.45z"/>
	</g>
</g>
<g>
	<g>
		<path class="st3" d="M951.21,521.37c0.27,1.14,0.5,2.28,0.64,3.43c0.02,0.12,0.09,0.23,0.23,0.23c0.1,0,0.24-0.1,0.22-0.23
			c-0.15-1.2-0.38-2.39-0.66-3.55C951.57,520.96,951.14,521.09,951.21,521.37L951.21,521.37z"/>
	</g>
</g>
<g>
	<path class="st1" d="M962.74,540.85c-0.09,2.33-0.14,3.48,0.42,4.38c0.36,0.59,0.81,0.87,1.53,1.29c0.95,0.55,2,1,3.09,0.98
		c0.9-0.02,1.84-0.36,2.67-0.02c0.7,0.29,1.14,0.99,1.44,1.68c0.45,1.03,0.68,2.17,0.69,3.3c-2.3,0.6-4.86-0.15-7.02,0.84
		c-1.42,0.66-2.4,1.97-3.51,3.09c-0.32,0.33-0.66,0.64-1.09,0.78c-0.57,0.19-1.2,0.05-1.77-0.18c-1.5-0.6-2.74-1.69-4.11-2.57
		c-2.3-1.47-5.01-2.28-7.74-2.37c-0.24-0.46,0.06-1.02,0.34-1.47c0.43-0.66,0.87-1.32,1.3-1.98c0.21-0.33,0.43-0.66,0.75-0.87
		c0.69-0.47,1.62-0.29,2.45-0.26c1.53,0.06,3.06-0.49,4.22-1.5c0.28-0.26,0.57-0.54,0.73-0.9c0.21-0.42,0.25-0.9,0.28-1.36
		c0.09-1.05,0.18-2.09,0.27-3.14c0.02-0.12,0.03-0.25,0.12-0.33c0.12-0.12,0.32-0.09,0.38-0.09c0.36,0.03,2.13,0.09,4.58,0.18
		C962.76,540.46,962.74,540.65,962.74,540.85z"/>
</g>
<g>
	<path class="st1" d="M954.03,530.51c-0.52,1.41,0.18,1.32-0.02,5.08c-0.03,0.6-0.06,1.29,0.26,2.13c0.25,0.66,0.72,1.2,1.26,1.65
		c0.85,0.72,1.88,1.23,2.88,1.73c0.69,0.34,1.42,0.7,2.2,0.68c0.63-0.02,1.23-0.29,1.8-0.6c1.18-0.64,2.27-1.44,3.23-2.37
		c0.36-0.36,0.72-0.75,0.87-1.24c0.08-0.26,0.09-0.54,0.09-0.81c0.08-2.36,0-4.73-0.2-7.08c-0.03-0.36-0.07-0.73-0.26-1.05
		c-0.25-0.45-0.75-0.72-1.21-0.95c-0.98-0.48-1.98-0.97-3.06-1.03c-0.95-0.06-1.88,0.21-2.82,0.2c-0.38,0-0.9-0.15-1.55,0.05
		c-0.32,0.1-0.6,0.26-0.91,0.48C954.66,528.82,954.03,530.51,954.03,530.51z"/>
</g>
<g>
	<path class="st4" d="M960.34,556.92c0.36,0.09,0.66-0.55,1.41-1.16c0.52-0.42,0.93-0.68,1.32-0.91c1.04-0.64,1.82-1.14,2.93-1.35
		c0.55-0.1,0.99-0.18,1.5,0c0.29,0.1,0.18,0.14,1.35,0.9c0.14,0.09,0.24,0.16,0.3,0.28c0.21,0.39-0.1,0.83-0.34,1.18
		c-0.67,0.99-0.94,2.2-1.44,3.3c-0.42,0.92-0.98,1.76-1.38,2.67c-0.68,1.59-0.8,3.41-0.34,5.06c-4.04,0.02-8.07,0.03-12.09,0.03
		c0.5-1.2,0.41-2.55,0.27-3.84c-0.07-0.73-0.15-1.45-0.36-2.16c-0.64-2.16-2.43-3.95-2.67-6.2c-0.02-0.15-0.03-0.32,0.03-0.46
		c0.14-0.41,0.65-0.52,1.07-0.6c0.89-0.15,1.82-0.28,2.68-0.06c0.29,0.08,0.63,0.24,1.31,0.56c0.84,0.39,0.84,0.45,1.78,0.93
		c1.61,0.81,2.01,0.84,2.34,1.4C960.12,556.7,960.18,556.88,960.34,556.92z"/>
</g>
<g>
	<path class="st3" d="M958.11,522.38c0.33-2.27,0.78-4.45,1.32-6.57c0.39,2.1,0.77,4.2,1.16,6.3c-0.77,0.14-1.53,0.17-2.31,0.09"/>
</g>
<g>
	<path class="st2" d="M961.95,531.21c0.45-0.23,0.92-0.43,1.38-0.63c0.18-0.08,0.38-0.15,0.59-0.18c0.61-0.07,1.17,0.32,1.65,0.69
		c-1.2-0.16-2.43-0.09-3.6,0.23"/>
</g>
<g>
	<path class="st2" d="M955.05,530.93c1.11-0.75,2.7-0.68,3.75,0.15c0.12,0.09,0.24,0.26,0.14,0.38c-0.1,0.12-0.29,0.03-0.42-0.07
		c-0.57-0.42-1.3-0.57-2.01-0.65c-0.51-0.06-1.05-0.07-1.48,0.2"/>
</g>
<g>
	<path class="st3" d="M961.95,532.99c0.89-0.66,2.1-0.85,3.15-0.51c0.24,0.07,0.49,0.23,0.51,0.48c0,0.17-0.1,0.32-0.23,0.43
		c-0.38,0.38-0.84,0.67-1.35,0.8s-1.08,0.05-1.52-0.24c-0.32-0.21-0.59-0.59-0.51-0.96"/>
</g>
<g>
	<path class="st3" d="M955.45,533.27c0.15-0.23,0.41-0.38,0.66-0.46c0.9-0.36,1.98-0.32,2.73,0.27c0.14,0.11,0.26,0.24,0.29,0.39
		c0.02,0.12-0.03,0.25-0.09,0.36c-0.14,0.23-0.38,0.38-0.63,0.45c-0.26,0.07-0.53,0.09-0.78,0.09c-0.33,0-0.68-0.02-0.99-0.15
		c-0.21-0.11-0.39-0.25-0.57-0.41c-0.21-0.18-0.41-0.34-0.61-0.52"/>
</g>
<g>
	<g>
		<path class="st5" d="M962.01,533.16c0.53-0.39,1.16-0.6,1.82-0.61c0.32,0,0.63,0.03,0.93,0.12c0.15,0.05,0.32,0.09,0.45,0.18
			c0.16,0.12,0.07,0.3,0,0.45c-0.12,0.26,0.27,0.49,0.39,0.23c0.09-0.21,0.18-0.43,0.14-0.66c-0.05-0.2-0.2-0.34-0.36-0.43
			c-0.36-0.2-0.8-0.28-1.2-0.32c-0.84-0.06-1.7,0.18-2.37,0.67C961.56,532.95,961.77,533.34,962.01,533.16L962.01,533.16z"/>
	</g>
</g>
<g>
	<g>
		<path class="st5" d="M955.38,533.43c0.82-1.02,2.88-1.32,3.63-0.06c0.15,0.26,0.54,0.03,0.39-0.22c-0.89-1.5-3.32-1.29-4.34-0.03
			C954.89,533.34,955.2,533.66,955.38,533.43L955.38,533.43z"/>
	</g>
</g>
<g>
	<path class="st6" d="M956.07,532.82c0.36-0.12,0.7-0.26,1.08-0.29s0.77,0.05,1.07,0.27c0.24,0.19,0.39,0.48,0.5,0.77
		c0.03,0.07,0.06,0.14,0.05,0.21c-0.02,0.06-0.06,0.12-0.11,0.17c-0.24,0.25-0.61,0.34-0.97,0.39c-0.26,0.03-0.53,0.05-0.77-0.05
		c-0.3-0.11-0.53-0.36-0.66-0.66c-0.14-0.29-0.16-0.61-0.15-0.93"/>
</g>
<g>
	<g>
		<path class="st7" d="M956.41,532.95c-0.02,0.08-0.03,0.14-0.05,0.21c0,0.06-0.02,0.1,0,0.16c0,0.08,0.02,0.14,0.06,0.21
			c0.02,0.03,0.05,0.06,0.06,0.09c0.03,0.05,0.07,0.06,0.14,0.07c0.02,0,0.03,0.02,0.05,0.02s0.03,0,0.06,0
			c0.06,0,0.11-0.02,0.15-0.05c0.06-0.03,0.1-0.09,0.14-0.15c0.05-0.11,0.08-0.21,0.08-0.33c0-0.15-0.06-0.32-0.2-0.39
			c-0.05-0.03-0.12-0.05-0.18-0.03c-0.05,0.02-0.11,0.06-0.14,0.1s-0.05,0.12-0.03,0.18s0.05,0.11,0.11,0.14l0.02,0.02
			c-0.02-0.02-0.03-0.03-0.05-0.03c0.02,0,0.02,0.02,0.03,0.03c-0.02-0.02-0.03-0.03-0.03-0.05c0.02,0.02,0.02,0.02,0.02,0.03
			c-0.02-0.02-0.02-0.03-0.03-0.06c0.02,0.02,0.02,0.05,0.02,0.06c0-0.02,0-0.05-0.02-0.06c0,0.05,0,0.09,0,0.14
			c0-0.02,0-0.05,0.02-0.06c0,0.03-0.02,0.08-0.03,0.11c0.02-0.02,0.02-0.03,0.03-0.06c-0.02,0.02-0.02,0.03-0.03,0.05
			c0.02-0.02,0.03-0.03,0.03-0.05c0,0.02-0.02,0.02-0.03,0.03c0.02-0.02,0.03-0.03,0.05-0.03c0,0-0.02,0.02-0.03,0.02
			c0.02-0.02,0.03-0.02,0.06-0.03h-0.02c0.02,0,0.05,0,0.06-0.02c-0.02,0-0.02,0-0.03,0c0.02,0,0.05,0,0.06,0.02
			c-0.02,0-0.02,0-0.02,0c0.02,0.02,0.03,0.02,0.06,0.03c0,0-0.02,0-0.02-0.02c0.02,0.02,0.03,0.03,0.05,0.03
			c-0.02,0-0.02-0.02-0.02-0.02c0.02,0.02,0.03,0.03,0.03,0.05c-0.02-0.02-0.02-0.03-0.02-0.03c0.02,0.02,0.02,0.03,0.03,0.06
			c-0.02-0.03-0.02-0.05-0.02-0.08c0,0.02,0,0.05,0.02,0.06c0-0.06,0-0.12,0-0.18c0,0.02,0,0.05-0.02,0.06
			c0-0.05,0.02-0.11,0.03-0.15c0.02-0.06,0-0.12-0.03-0.18c-0.03-0.05-0.08-0.09-0.14-0.11
			C956.57,532.77,956.45,532.83,956.41,532.95L956.41,532.95z"/>
	</g>
</g>
<g>
	<path class="st6" d="M962.59,532.73c-0.02,0.2-0.05,0.41-0.06,0.6c-0.02,0.2-0.03,0.42,0.14,0.59c0.1,0.11,0.24,0.16,0.39,0.23
		c0.26,0.1,0.55,0.2,0.81,0.1c0.12-0.05,0.23-0.12,0.32-0.19c0.18-0.17,0.38-0.33,0.46-0.54c0.15-0.28,0.12-0.6,0.11-0.9
		c0-0.05-0.02-0.11-0.05-0.14c-0.05-0.06-0.15-0.09-0.24-0.11c-0.66-0.1-1.38,0.02-1.89,0.33"/>
</g>
<g>
	<g>
		<path class="st7" d="M964.02,532.79c-0.03,0.03-0.06,0.07-0.08,0.1c-0.02,0.05-0.05,0.07-0.05,0.12
			c-0.02,0.03-0.02,0.05-0.02,0.08c0,0.05-0.02,0.09-0.02,0.14c0,0.02,0,0.05,0.02,0.06c0,0.03,0.02,0.06,0.05,0.07
			c0.02,0.02,0.03,0.03,0.05,0.05s0.05,0.03,0.08,0.05c0.03,0,0.05,0.02,0.07,0.02c0.03,0,0.05,0,0.07-0.02
			c0.03,0,0.06-0.02,0.09-0.03s0.05-0.03,0.08-0.06c0.03-0.02,0.05-0.05,0.06-0.07c0.02-0.02,0.02-0.02,0.02-0.03
			c0.02-0.03,0.03-0.06,0.03-0.09s0.02-0.05,0.02-0.08c0-0.02,0-0.03,0-0.05s0-0.03,0-0.05c0-0.03-0.02-0.05-0.03-0.07
			c-0.02-0.03-0.03-0.05-0.06-0.06c-0.02-0.02-0.05-0.03-0.08-0.05c-0.03-0.02-0.06-0.02-0.09,0c-0.03,0-0.06,0.02-0.09,0.03
			c-0.05,0.03-0.09,0.07-0.1,0.14c0,0.02,0,0.05-0.02,0.06c0,0.05,0.02,0.08,0.03,0.12l0,0c-0.02-0.02-0.02-0.03-0.03-0.06
			c0,0.02,0,0.02,0.02,0.03c0-0.02,0-0.05-0.02-0.06c0,0.02,0,0.02,0,0.03c0-0.02,0-0.05,0.02-0.06c0,0.02,0,0.03-0.02,0.03
			c0.02-0.02,0.02-0.03,0.03-0.06c0,0.02-0.02,0.02-0.02,0.03c0.02-0.02,0.03-0.03,0.03-0.05c-0.02,0.02-0.02,0.02-0.03,0.03
			c0.02-0.02,0.03-0.03,0.05-0.03c-0.02,0.02-0.02,0.02-0.03,0.02c0.02-0.02,0.03-0.02,0.06-0.03c-0.02,0-0.02,0-0.03,0.02
			c0.02,0,0.05,0,0.06-0.02c-0.02,0-0.02,0-0.03,0c0.02,0,0.05,0,0.06,0.02l0,0c0.06,0.08,0.11,0.15,0.16,0.21c0-0.03,0-0.05,0-0.07
			c0,0.02,0,0.05-0.02,0.06c0-0.03,0.02-0.07,0.03-0.1c-0.02,0.02-0.02,0.03-0.03,0.06c0.02-0.03,0.03-0.06,0.06-0.09
			c-0.02,0.02-0.03,0.03-0.03,0.05c0,0,0,0,0-0.02c0.02-0.02,0.03-0.05,0.05-0.08c0.02-0.03,0.02-0.06,0.02-0.09s0-0.06-0.02-0.09
			s-0.03-0.05-0.05-0.07c-0.05-0.05-0.1-0.08-0.16-0.06c-0.02,0-0.05,0-0.06,0.02C964.08,532.74,964.05,532.76,964.02,532.79
			L964.02,532.79z"/>
	</g>
</g>
<g>
	<g>
		<path class="st8" d="M960.39,536.11c0,0.02,0.02,0.02,0.02,0.03c0,0,0,0,0,0.02v-0.02c0,0,0,0.02,0.02,0.02
			c0.02,0.03,0.02,0.05,0.02,0.07c0-0.02,0-0.02,0-0.03c0,0.03,0,0.07,0,0.1c0-0.02,0-0.02,0-0.03c0,0.02-0.02,0.05-0.02,0.06v0.02
			c0,0.02,0,0,0,0c0,0.02-0.02,0.03-0.02,0.03c-0.03,0.05-0.02,0.12,0.05,0.15c0.06,0.03,0.12,0.02,0.15-0.05
			c0.09-0.15,0.09-0.34-0.02-0.49c-0.03-0.05-0.11-0.08-0.15-0.05C960.39,535.99,960.36,536.07,960.39,536.11L960.39,536.11z"/>
	</g>
</g>
<g>
	<g>
		<path class="st9" d="M958.82,538.45c0.25,0.18,0.57,0.24,0.87,0.29s0.6,0.07,0.9,0.07c0.59,0,1.16-0.12,1.62-0.49
			c0.12-0.09-0.05-0.26-0.17-0.17c-0.42,0.34-0.97,0.43-1.5,0.42c-0.25,0-0.52-0.03-0.78-0.06c-0.28-0.05-0.57-0.09-0.82-0.26
			C958.8,538.18,958.7,538.38,958.82,538.45L958.82,538.45z"/>
	</g>
</g>
<g>
	<path class="st1" d="M972.72,554.22c0.49,1.48,1.01,2.98,1.5,4.47c0.02,0.06,0.05,0.12,0.1,0.15c0.06,0.03,0.12,0,0.18-0.02
		c1.78-0.73,3.58-1.47,5.37-2.22c0.33-0.14,0.68-0.28,0.95-0.51c0.24-0.19,0.41-0.45,0.63-0.67c1.07-1.13,2.79-1.22,4.34-1.23
		c-0.65,0.26-1.25,0.65-1.76,1.11c0.77-0.07,1.52-0.34,2.16-0.75c0.06,0.14,0.07,0.29,0.03,0.42c0.32,0,0.63,0.02,0.96,0.02
		c0.08,0.24-0.18,0.43-0.39,0.56c-1,0.57-2.05,1.14-3.19,1.33c-0.5,0.09-1.01,0.09-1.47,0.29c-0.78,0.32-1.28,1.05-1.82,1.7
		c-0.93,1.09-2.07,1.97-3.21,2.82c-0.9,0.69-1.88,1.4-3.02,1.48c-0.18,0.02-0.38,0.02-0.52-0.09c-0.12-0.08-0.2-0.2-0.27-0.3
		c-1.72-2.58-2.92-5.52-3.51-8.57c-0.02-0.06-0.03-0.15,0.02-0.19c0.05-0.06,0.14-0.06,0.21-0.06c0.93,0.02,1.88,0.11,2.79,0.27"/>
</g>
<g>
	<g>
		<path class="st1" d="M948.12,558.49c0.34-1.2,1.14-2.2,1.92-3.16c0.18-0.23-0.14-0.54-0.32-0.32c-0.83,1.02-1.66,2.09-2.04,3.36
			C947.59,558.65,948.03,558.77,948.12,558.49L948.12,558.49z"/>
	</g>
</g>
<g>
	<g>
		<path class="st1" d="M948.51,558.09c0.32-0.84,0.77-1.64,1.31-2.35c0.09-0.14-0.02-0.29-0.14-0.33c-0.66-0.27-1.42,0.27-1.48,0.96
			c-0.02,0.25,0.41,0.32,0.43,0.06c0.06-0.38,0.24-0.7,0.55-0.93c0.08-0.06,0.17-0.12,0.26-0.15c0.05-0.02,0.21-0.05,0.23-0.08h0.02
			c-0.03-0.06-0.05-0.05-0.05,0.02c-0.03,0.03-0.03,0.12-0.05,0.15c-0.05,0.1-0.08,0.23-0.12,0.33c-0.34,0.89-0.82,1.71-1.42,2.46
			c-0.18,0.23,0.14,0.54,0.32,0.32c0.39-0.48,0.73-0.99,1.04-1.55c0.14-0.25,0.27-0.52,0.38-0.78c0.12-0.27,0.26-0.57,0.32-0.85
			c0.06-0.29-0.12-0.54-0.42-0.52c-0.23,0-0.48,0.12-0.66,0.24c-0.42,0.29-0.73,0.73-0.81,1.25c0.15,0.02,0.3,0.05,0.43,0.06
			c0.03-0.43,0.54-0.68,0.91-0.53c-0.05-0.1-0.09-0.22-0.14-0.33c-0.55,0.75-1,1.59-1.35,2.46
			C947.97,558.24,948.41,558.34,948.51,558.09L948.51,558.09z"/>
	</g>
</g>
<g>
	<path class="st1" d="M947.11,555.38c0.43-0.03,0.85-0.1,1.26-0.24c0.07,1.02,0.15,2.04,0.21,3.05c0.03,0.43,0.06,0.87-0.08,1.29
		c-0.09,0.27-0.24,0.49-0.41,0.72c-1.03,1.48-2.27,2.83-3.64,4c-0.2,0.16-0.42,0.33-0.66,0.28c-0.18-0.03-0.32-0.16-0.43-0.3
		c-1.42-1.53-2.09-3.59-2.61-5.61c-0.33-1.26-0.61-2.53-0.87-3.83c-0.07-0.41-0.19-0.87-0.57-1.07c-0.33-0.16-0.75-0.03-1.09-0.16
		c-0.53-0.23-0.6-0.93-0.6-1.5c0-0.46,0.02-0.93,0.02-1.4c0-0.34,0.02-0.72,0.18-1.02c0.21-0.38,0.67-0.6,1.11-0.52
		c0.43,0.07,0.8,0.43,0.87,0.87c0.05,0.27-0.02,0.56,0.07,0.81c0.06,0.2,0.2,0.36,0.3,0.54c0.26,0.45,0.27,1.01,0.33,1.53
		c0.33,2.98,2.19,5.57,4.01,7.96c0.69-1.17,1.38-2.34,2.05-3.51c0.34-0.6,0.7-1.24,0.61-1.92"/>
</g>
<g>
	<g>
		<path class="st10" d="M965.13,552.72c1.98-0.95,4.26-0.85,6.45-0.72c0.6,0.05,1.24,0.09,1.71,0.48c0.73,0.59,0.75,1.68,0.7,2.61
			c-0.03,0.48-0.11,1.07-0.55,1.25c-0.36,0.15-0.77-0.06-1.09-0.24c-1.62-0.9-3.33-1.67-5.16-2c-0.6-0.11-1.2-0.16-1.8-0.05
			c-0.61,0.12-1.18,0.42-1.73,0.75c-0.99,0.59-1.92,1.26-2.79,2.01c-0.11,0.09-0.23,0.19-0.36,0.19c-0.14,0-0.25-0.07-0.36-0.15
			c-1.38-0.98-2.91-1.77-4.5-2.31c-0.57-0.2-1.16-0.36-1.75-0.38c-0.8-0.02-1.58,0.25-2.33,0.52c-1.08,0.38-2.16,0.77-3.24,1.14
			c-0.43,0.15-0.87,0.3-1.32,0.32c-0.45,0.02-0.94-0.15-1.21-0.51c-0.21-0.28-0.27-0.66-0.24-1c0.03-0.59,0.26-1.14,0.56-1.65
			c0.27-0.45,0.61-0.89,1.09-1.13c0.38-0.18,0.8-0.22,1.21-0.25c2.02-0.14,4.08,0.06,6.03,0.6c0.66,0.18,1.34,0.41,1.93,0.75
			c0.65,0.38,1.2,0.89,1.77,1.35c0.73,0.61,1.5,1.18,2.3,1.71c1.45-1.52,3.2-2.74,5.13-3.59"/>
	</g>
	
		<rect x="960.07" y="557.12" transform="matrix(0.7565 -0.654 0.654 0.7565 -130.7516 763.9279)" class="st10" width="0.86" height="0.86"/>
</g>
<g>
	<g>
		<path class="st11" d="M939.38,552.39c-0.41-0.27-0.78-0.59-1.13-0.95c-0.1-0.11-0.26,0.06-0.16,0.16
			c0.36,0.36,0.75,0.69,1.17,0.98C939.38,552.66,939.49,552.46,939.38,552.39L939.38,552.39z"/>
	</g>
</g>
<g>
	<g>
		<path class="st11" d="M939.32,550.66c-0.08-0.38-0.02-0.78,0.16-1.13c0.06-0.14-0.14-0.24-0.19-0.12
			c-0.21,0.41-0.27,0.86-0.18,1.31c0.02,0.06,0.09,0.09,0.14,0.07C939.3,550.79,939.32,550.73,939.32,550.66L939.32,550.66z"/>
	</g>
</g>
<g>
	<g>
		<path class="st11" d="M938.02,549.84c0.21,0.3,0.34,0.65,0.39,1.01c0.02,0.06,0.09,0.09,0.14,0.07c0.06-0.02,0.09-0.07,0.07-0.14
			c-0.06-0.38-0.2-0.75-0.42-1.07c-0.03-0.05-0.1-0.07-0.15-0.05C938.02,549.72,937.99,549.8,938.02,549.84L938.02,549.84z"/>
	</g>
</g>
<g>
	<g>
		<path class="st11" d="M939.07,552.57c0,0.02,0,0.02,0,0.03C939.09,552.59,939.09,552.59,939.07,552.57c0,0.02,0,0.03,0,0.06
			c0-0.02,0-0.02,0-0.03c0,0.02-0.02,0.05-0.02,0.06c0-0.02,0.02-0.02,0.02-0.03c-0.02,0.02-0.02,0.05-0.03,0.06
			c0-0.02,0.02-0.02,0.02-0.03c-0.02,0.02-0.03,0.03-0.05,0.05c0.02,0,0.02-0.02,0.03-0.02c-0.02,0.02-0.03,0.03-0.05,0.03
			c0.02,0,0.02-0.02,0.03-0.02c-0.02,0.02-0.05,0.02-0.06,0.02c0.02,0,0.02,0,0.03,0c-0.02,0-0.03,0-0.05,0
			c-0.03,0-0.06,0.02-0.07,0.03s-0.03,0.05-0.03,0.08c0,0.03,0.02,0.06,0.03,0.08c0.03,0.02,0.05,0.03,0.07,0.03
			c0.1,0.02,0.21-0.05,0.29-0.12c0.03-0.05,0.06-0.09,0.07-0.15s0.02-0.12,0-0.16c-0.02-0.06-0.07-0.09-0.14-0.08
			C939.1,552.45,939.06,552.51,939.07,552.57L939.07,552.57z"/>
	</g>
</g>
<g>
	<g>
		<path class="st12" d="M934.36,538.77c0.81,4.07,2.28,7.95,3.75,11.82c0.1,0.27,0.54,0.15,0.43-0.12
			c-1.47-3.87-2.93-7.76-3.75-11.82C934.74,538.38,934.3,538.5,934.36,538.77L934.36,538.77z"/>
	</g>
</g>
<polygon class="st3" points="935.73,539.35 934.77,539.19 934.09,539.9 933.95,538.92 933.07,538.48 933.96,538.07 934.09,537.09 
	934.77,537.8 935.74,537.63 935.28,538.5 "/>
</svg>
