<?xml version="1.0" encoding="utf-8"?>
<!-- Generator: Adobe Illustrator 23.0.5, SVG Export Plug-In . SVG Version: 6.00 Build 0)  -->
<svg version="1.1" id="圖層_1" xmlns="http://www.w3.org/2000/svg" xmlns:xlink="http://www.w3.org/1999/xlink" x="0px" y="0px"
	 viewBox="0 0 1920 1080" style="enable-background:new 0 0 1920 1080;" xml:space="preserve">
<style type="text/css">
	.st0{fill:#F2DAE7;}
	.st1{fill:#F8C6B3;}
	.st2{fill:#AB5E58;}
	.st3{fill:#FFFFFF;}
	.st4{fill:#DC93A3;}
	.st5{fill:#070707;}
	.st6{fill:#24160E;}
	.st7{fill:#ECE1D7;}
	.st8{fill:#E0A689;}
	.st9{fill:#F49898;}
	.st10{fill:#F2E2E2;}
	.st11{fill:#D8AC9E;}
	.st12{fill:#0F0C0C;}
</style>
<path class="st0" d="M1176,1080H744c-178.2,0-324-145.8-324-324V324C420,145.8,565.8,0,744,0h432c178.2,0,324,145.8,324,324v432
	C1500,934.2,1354.2,1080,1176,1080z"/>
<g>
	<g>
		<path class="st1" d="M751.56,896.22c18.18-20.34,33.12-43.02,44.64-67.86c1.44-2.7,2.52-5.76,3.78-8.64s2.88-6.12,3.6-9.36
			c0.54-5.4-3.6-8.64-8.46-8.28c-6.12,0.36-12.6,4.32-18,6.84c-7.38,2.88-14.58,6.12-21.6,9.36c-5.76,2.7-8.82,5.22-8.1,11.88
			c1.08,7.38,1.62,14.58,1.26,22.14c-0.36,3.78-0.54,7.38-1.08,10.98c-0.54,2.88-1.08,5.94,0,8.64c1.8,4.68,7.56,6.12,11.34,3.06
			c5.04-4.32,9.72-10.26,14.04-15.48c4.32-5.04,8.28-10.8,12.06-16.2c5.04-7.74,18.54-23.4,8.46-32.22
			c-4.68-3.78-10.8-2.16-13.5,3.06c-1.08,2.52-1.44,4.86-1.98,7.56c-0.54,3.78-1.62,7.38-3.6,10.44
			c-3.78,7.38-8.64,14.04-13.14,21.06c-4.86,7.38-9.36,14.58-14.4,22.14c2.52,1.44,4.68,2.7,7.02,4.14
			c7.38-12.96,15.12-25.74,24.12-37.8c2.52-3.24,4.5-6.12,7.02-9.36c1.62-2.16,4.14-4.68,4.5-7.56c1.08-6.48-5.4-8.28-10.26-6.48
			c-7.38,2.88-14.58,5.94-21.6,8.82c-5.76,2.52-8.1,6.12-8.1,12.42c-0.36,16.02-1.8,31.68-5.76,47.34
			c-1.08,4.32,5.04,7.38,7.38,3.24c3.78-7.38,7.38-14.94,9.9-22.68c2.52-6.84,5.76-14.04,5.76-21.24c0.36-5.94-3.6-11.7-9.72-11.88
			c-8.1-0.36-11.88,6.48-17.46,10.8c-4.14,2.88-0.36,9.9,3.96,7.02c3.6-2.52,7.56-9.18,12.24-9.54c5.76-0.54,2.16,8.64,1.26,11.7
			c-3.24,10.98-7.56,21.6-12.96,31.86c2.52,1.08,4.86,2.16,7.38,3.24c3.06-11.88,4.86-23.94,5.76-36.18
			c0.36-2.88,0.36-6.12,0.36-9.18c0-2.7-0.9-5.94,1.26-8.1c1.62-1.62,5.4-2.52,7.56-3.24c3.24-1.26,6.12-2.7,9.54-3.78
			c1.26-0.54,2.7-1.08,3.96-1.62c1.62-0.54,4.14-0.54,2.52-2.16c-1.62-1.26-1.98,0.54-2.88,1.8c-0.9,1.08-1.62,2.16-2.7,3.24
			c-3.6,4.5-7.02,9.36-10.26,14.4c-7.02,9.9-13.5,20.52-19.44,31.32c-2.52,4.5,4.14,8.46,7.02,4.14c6.12-9.72,12.6-19.44,18.9-29.16
			c5.4-8.46,11.34-16.74,12.96-26.64c0.36-1.62,0.36-3.6,0.9-5.22c1.26-2.7,2.52-0.36,2.16,1.62c-0.54,4.86-5.4,10.62-8.1,14.58
			c-5.76,9-11.88,17.28-18.9,25.02c-1.62,1.98-3.6,3.78-5.22,5.76c-0.9,0.9-1.26,1.26-2.16,2.16c-2.16,2.7,0,0.36,0.36-0.54
			c0.9-1.8,0.9-4.5,0.9-6.84c0.36-3.24,0.54-6.48,0.9-9.72c0.36-5.4,0-10.8-0.9-16.2c-0.36-1.8-1.26-4.86-0.9-6.84
			c0.9-1.8,5.22-2.88,7.38-3.96c5.22-2.16,10.26-4.68,15.3-6.84c5.22-2.16,10.26-4.86,15.66-6.48c0.54,0,2.7,0,1.98-0.9
			c0,0.36-1.08,2.88-1.08,2.7c-1.08,2.52-1.98,4.86-2.88,7.38c-1.8,4.68-4.14,9.18-6.48,13.5c-10.62,20.88-23.4,39.96-39.24,57.24
			C742.38,894.24,748.14,900.18,751.56,896.22L751.56,896.22z"/>
	</g>
</g>
<g>
	<path class="st2" d="M1063.68,241.92c19.44,2.52,36.72,14.04,49.5,29.16c12.42,15.12,20.88,33.12,27.9,51.3
		c13.14,34.02,22.68,69.66,28.44,105.84c22.14-6.84,47.52,4.32,60.48,23.58c13.14,18.9,15.3,44.28,9.18,66.6
		c-5.94,22.32-19.44,42.12-35.28,59.04c29.88,7.56,53.1,36,54.9,66.6c0.36,5.94-0.36,12.06-3.6,17.1
		c-9.9,15.12-33.48,6.84-50.4,12.6c-4.68,18.18-25.2,26.1-43.56,29.88c-27.9,5.76-56.16,7.56-84.42,5.76
		c-12.6-0.9-25.92-2.7-36.72-9.9c-10.26-7.02-16.74-17.82-22.86-28.62c-9-15.48-17.82-30.6-26.64-45.9
		c-2.52-4.14-4.68-8.1-8.1-10.98c-10.8-9.36-28.08-5.76-38.88,3.6c-10.98,9-17.82,21.96-27,32.76
		c-23.22,27.9-61.74,41.94-97.56,35.64c-13.14-2.52-27.54-7.38-39.6-1.44c-27.54,13.14-15.12,64.8-43.38,76.5
		c-18.18,7.38-37.26-9.18-45.9-26.64c-17.1-34.56-12.24-81.54,18.36-104.4c-48.24-29.52-66.42-99.18-38.7-148.5
		c3.78-6.84,8.28-12.96,10.98-20.34c2.52-6.12,3.78-12.6,6.12-18.9c10.26-26.1,44.46-39.6,70.02-27.54
		c3.78-36.18,13.14-71.46,27.9-104.76c7.02-16.2,15.3-31.86,27.54-44.64c14.76-15.3,34.38-25.38,54.36-32.76
		c72.36-26.46,156.24-20.52,223.38,17.28"/>
</g>
<g>
	<g>
		<path class="st3" d="M801.6,278.1c5.94-11.88,23.4-18,35.1-23.4c12.06-5.76,24.84-10.26,37.44-14.04
			c25.2-7.56,51.3-11.88,77.76-12.96c26.1-1.08,52.56,1.08,78.48,6.84c27,5.94,57.6,14.4,78.84,32.76c4.14,3.24,9.72-2.52,5.76-5.76
			c-21.24-18.18-50.76-27.36-77.4-33.48c-29.7-7.02-60.48-9.72-90.72-8.1c-29.7,1.62-58.86,7.38-86.94,17.1
			c-13.14,4.68-26.46,10.26-38.88,16.38c-10.26,5.04-21.06,9.9-26.46,20.52C792.06,278.64,799.08,282.6,801.6,278.1L801.6,278.1z"/>
	</g>
</g>
<g>
	<path class="st3" d="M1104.72,217.26c-2.88-7.02-2.52-15.12-0.36-22.14s6.48-13.86,10.62-19.98c4.32-6.84,8.64-13.86,12.96-20.52
		c1.62,17.82,1.26,35.82-1.08,53.46c-0.36,1.62-0.54,3.24-1.44,4.68c-1.44,2.16-3.78,3.24-5.94,4.32
		c-4.86,2.16-10.98,4.14-15.12,0.36"/>
</g>
<g>
	<path class="st3" d="M1040.1,189.9c-0.54-7.38,2.7-14.04,6.12-20.34c2.7-5.22,5.4-9.9,8.1-15.12c0.54-0.9,1.08-1.98,2.16-1.98
		c0.9,0,1.62,1.08,1.98,1.98c5.04,10.26,7.38,21.6,6.12,32.94c-0.36,1.62-0.54,3.24-1.62,4.32s-2.52,1.44-3.78,1.62
		c-6.48,1.08-13.14-0.36-18.9-3.24"/>
</g>
<g>
	<path class="st3" d="M851.64,194.22c0.36-12.96,1.62-25.74,3.6-38.34c9.72,10.26,17.28,22.86,21.96,36.36
		c0.36,1.08,0.54,2.16,0.36,2.88c-0.9,2.16-3.78,2.52-5.94,2.16c-6.12-0.9-12.6-1.26-18.9-2.16"/>
</g>
<g>
	<path class="st3" d="M793.32,215.64c-5.4-22.32-10.44-45.72-7.56-68.4c8.64,5.4,14.94,14.04,18.9,23.22s6.84,19.26,9.18,29.16
		c0.36,0.9,0.54,1.8,0,2.88c-0.36,0.9-0.9,1.44-1.26,1.98c-5.76,4.86-11.7,9.36-17.82,13.5"/>
</g>
<g>
	<g>
		<path class="st3" d="M1105.8,210.78c-5.94,15.48-7.56,32.22-4.5,48.24c0.36,2.16,2.88,3.24,4.86,2.7c2.16-0.54,3.24-2.7,2.7-4.86
			c-2.7-14.76-0.9-29.88,4.68-43.92c0.9-2.16-0.9-4.32-2.7-4.86C1108.5,207.36,1106.7,208.98,1105.8,210.78L1105.8,210.78z"/>
	</g>
</g>
<g>
	<g>
		<path class="st3" d="M1044.78,188.64c-3.24,13.5-4.32,27.9-2.7,41.58c0.36,2.16,1.62,4.14,4.14,4.14c1.98,0,4.32-1.98,4.14-4.14
			c-1.26-13.14-0.54-26.46,2.52-39.42C1053.6,185.76,1045.86,183.6,1044.78,188.64L1044.78,188.64z"/>
	</g>
</g>
<g>
	<g>
		<path class="st3" d="M861.9,188.1c1.98,16.2,4.32,32.4,7.38,48.24c0.54,2.16,2.88,3.24,4.86,2.7c2.16-0.54,3.24-2.7,2.7-4.86
			c-3.06-15.3-5.22-30.78-7.02-46.26c-0.36-2.16-1.62-3.96-4.14-3.96C864.24,184.14,861.9,186.12,861.9,188.1L861.9,188.1z"/>
	</g>
</g>
<g>
	<g>
		<path class="st3" d="M801.78,204.66c4.86,20.52,9,41.04,11.52,61.74c0.36,2.16,1.62,4.14,4.14,4.14c1.8,0,4.32-1.8,3.96-4.14
			c-2.7-21.6-6.84-43.02-11.88-63.9C808.26,197.28,800.52,199.62,801.78,204.66L801.78,204.66z"/>
	</g>
</g>
<g>
	<path class="st1" d="M1009.32,555.3c-1.62,41.94-2.52,62.64,7.56,78.84c6.48,10.62,14.58,15.66,27.54,23.22
		c17.1,9.9,36,18,55.62,17.64c16.2-0.36,33.12-6.48,48.06-0.36c12.6,5.22,20.52,17.82,25.92,30.24c8.1,18.54,12.24,39.06,12.42,59.4
		c-41.4,10.8-87.48-2.7-126.36,15.12c-25.56,11.88-43.2,35.46-63.18,55.62c-5.76,5.94-11.88,11.52-19.62,14.04
		c-10.26,3.42-21.6,0.9-31.86-3.24c-27-10.8-49.32-30.42-73.98-46.26c-41.4-26.46-90.18-41.04-139.32-42.66
		c-4.32-8.28,1.08-18.36,6.12-26.46c7.74-11.88,15.66-23.76,23.4-35.64c3.78-5.94,7.74-11.88,13.5-15.66
		c12.42-8.46,29.16-5.22,44.1-4.68c27.54,1.08,55.08-8.82,75.96-27c5.04-4.68,10.26-9.72,13.14-16.2c3.78-7.56,4.5-16.2,5.04-24.48
		c1.62-18.9,3.24-37.62,4.86-56.52c0.36-2.16,0.54-4.5,2.16-5.94c2.16-2.16,5.76-1.62,6.84-1.62c6.48,0.54,38.34,1.62,82.44,3.24
		C1009.68,548.28,1009.32,551.7,1009.32,555.3z"/>
</g>
<g>
	<path class="st1" d="M852.54,369.18c-9.36,25.38,3.24,23.76-0.36,91.44c-0.54,10.8-1.08,23.22,4.68,38.34
		c4.5,11.88,12.96,21.6,22.68,29.7c15.3,12.96,33.84,22.14,51.84,31.14c12.42,6.12,25.56,12.6,39.6,12.24
		c11.34-0.36,22.14-5.22,32.4-10.8c21.24-11.52,40.86-25.92,58.14-42.66c6.48-6.48,12.96-13.5,15.66-22.32
		c1.44-4.68,1.62-9.72,1.62-14.58c1.44-42.48,0-85.14-3.6-127.44c-0.54-6.48-1.26-13.14-4.68-18.9c-4.5-8.1-13.5-12.96-21.78-17.1
		c-17.64-8.64-35.64-17.46-55.08-18.54c-17.1-1.08-33.84,3.78-50.76,3.6c-6.84,0-16.2-2.7-27.9,0.9c-5.76,1.8-10.8,4.68-16.38,8.64
		C863.88,338.76,852.54,369.18,852.54,369.18z"/>
</g>
<g>
	<path class="st4" d="M966.12,844.56c6.48,1.62,11.88-9.9,25.38-20.88c9.36-7.56,16.74-12.24,23.76-16.38
		c18.72-11.52,32.76-20.52,52.74-24.3c9.9-1.8,17.82-3.24,27,0c5.22,1.8,3.24,2.52,24.3,16.2c2.52,1.62,4.32,2.88,5.4,5.04
		c3.78,7.02-1.8,14.94-6.12,21.24c-12.06,17.82-16.92,39.6-25.92,59.4c-7.56,16.56-17.64,31.68-24.84,48.06
		c-12.24,28.62-14.4,61.38-6.12,91.08c-72.72,0.36-145.26,0.54-217.62,0.54c9-21.6,7.38-45.9,4.86-69.12
		c-1.26-13.14-2.7-26.1-6.48-38.88c-11.52-38.88-43.74-71.1-48.06-111.6c-0.36-2.7-0.54-5.76,0.54-8.28
		c2.52-7.38,11.7-9.36,19.26-10.8c16.02-2.7,32.76-5.04,48.24-1.08c5.22,1.44,11.34,4.32,23.58,10.08
		c15.12,7.02,15.12,8.1,32.04,16.74c28.98,14.58,36.18,15.12,42.12,25.2C962.16,840.6,963.24,843.84,966.12,844.56z"/>
</g>
<g>
	<path class="st3" d="M925.98,222.84c5.94-40.86,14.04-80.1,23.76-118.26c7.02,37.8,13.86,75.6,20.88,113.4
		c-13.86,2.52-27.54,3.06-41.58,1.62"/>
</g>
<g>
	<path class="st2" d="M995.1,381.78c8.1-4.14,16.56-7.74,24.84-11.34c3.24-1.44,6.84-2.7,10.62-3.24
		c10.98-1.26,21.06,5.76,29.7,12.42c-21.6-2.88-43.74-1.62-64.8,4.14"/>
</g>
<g>
	<path class="st2" d="M870.9,376.74c19.98-13.5,48.6-12.24,67.5,2.7c2.16,1.62,4.32,4.68,2.52,6.84s-5.22,0.54-7.56-1.26
		c-10.26-7.56-23.4-10.26-36.18-11.7c-9.18-1.08-18.9-1.26-26.64,3.6"/>
</g>
<g>
	<path class="st3" d="M995.1,413.82c16.02-11.88,37.8-15.3,56.7-9.18c4.32,1.26,8.82,4.14,9.18,8.64c0,3.06-1.8,5.76-4.14,7.74
		c-6.84,6.84-15.12,12.06-24.3,14.4s-19.44,0.9-27.36-4.32c-5.76-3.78-10.62-10.62-9.18-17.28"/>
</g>
<g>
	<path class="st3" d="M878.1,418.86c2.7-4.14,7.38-6.84,11.88-8.28c16.2-6.48,35.64-5.76,49.14,4.86c2.52,1.98,4.68,4.32,5.22,7.02
		c0.36,2.16-0.54,4.5-1.62,6.48c-2.52,4.14-6.84,6.84-11.34,8.1c-4.68,1.26-9.54,1.62-14.04,1.62c-5.94,0-12.24-0.36-17.82-2.7
		c-3.78-1.98-7.02-4.5-10.26-7.38c-3.78-3.24-7.38-6.12-10.98-9.36"/>
</g>
<g>
	<g>
		<path class="st5" d="M996.18,416.88c9.54-7.02,20.88-10.8,32.76-10.98c5.76,0,11.34,0.54,16.74,2.16c2.7,0.9,5.76,1.62,8.1,3.24
			c2.88,2.16,1.26,5.4,0,8.1c-2.16,4.68,4.86,8.82,7.02,4.14c1.62-3.78,3.24-7.74,2.52-11.88c-0.9-3.6-3.6-6.12-6.48-7.74
			c-6.48-3.6-14.4-5.04-21.6-5.76c-15.12-1.08-30.6,3.24-42.66,12.06C988.08,413.1,991.86,420.12,996.18,416.88L996.18,416.88z"/>
	</g>
</g>
<g>
	<g>
		<path class="st5" d="M876.84,421.74c14.76-18.36,51.84-23.76,65.34-1.08c2.7,4.68,9.72,0.54,7.02-3.96
			c-16.02-27-59.76-23.22-78.12-0.54C868.02,420.12,873.6,425.88,876.84,421.74L876.84,421.74z"/>
	</g>
</g>
<g>
	<path class="st6" d="M889.26,410.76c6.48-2.16,12.6-4.68,19.44-5.22s13.86,0.9,19.26,4.86c4.32,3.42,7.02,8.64,9,13.86
		c0.54,1.26,1.08,2.52,0.9,3.78c-0.36,1.08-1.08,2.16-1.98,3.06c-4.32,4.5-10.98,6.12-17.46,7.02c-4.68,0.54-9.54,0.9-13.86-0.9
		c-5.4-1.98-9.54-6.48-11.88-11.88c-2.52-5.22-2.88-10.98-2.7-16.74"/>
</g>
<g>
	<g>
		<path class="st7" d="M895.38,413.1c-0.36,1.44-0.54,2.52-0.9,3.78c0,1.08-0.36,1.8,0,2.88c0,1.44,0.36,2.52,1.08,3.78
			c0.36,0.54,0.9,1.08,1.08,1.62c0.54,0.9,1.26,1.08,2.52,1.26c0.36,0,0.54,0.36,0.9,0.36s0.54,0,1.08,0c1.08,0,1.98-0.36,2.7-0.9
			c1.08-0.54,1.8-1.62,2.52-2.7c0.9-1.98,1.44-3.78,1.44-5.94c0-2.7-1.08-5.76-3.6-7.02c-0.9-0.54-2.16-0.9-3.24-0.54
			c-0.9,0.36-1.98,1.08-2.52,1.8s-0.9,2.16-0.54,3.24s0.9,1.98,1.98,2.52l0.36,0.36c-0.36-0.36-0.54-0.54-0.9-0.54
			c0.36,0,0.36,0.36,0.54,0.54c-0.36-0.36-0.54-0.54-0.54-0.9c0.36,0.36,0.36,0.36,0.36,0.54c-0.36-0.36-0.36-0.54-0.54-1.08
			c0.36,0.36,0.36,0.9,0.36,1.08c0-0.36,0-0.9-0.36-1.08c0,0.9,0,1.62,0,2.52c0-0.36,0-0.9,0.36-1.08c0,0.54-0.36,1.44-0.54,1.98
			c0.36-0.36,0.36-0.54,0.54-1.08c-0.36,0.36-0.36,0.54-0.54,0.9c0.36-0.36,0.54-0.54,0.54-0.9c0,0.36-0.36,0.36-0.54,0.54
			c0.36-0.36,0.54-0.54,0.9-0.54c0,0-0.36,0.36-0.54,0.36c0.36-0.36,0.54-0.36,1.08-0.54h-0.36c0.36,0,0.9,0,1.08-0.36
			c-0.36,0-0.36,0-0.54,0c0.36,0,0.9,0,1.08,0.36c-0.36,0-0.36,0-0.36,0c0.36,0.36,0.54,0.36,1.08,0.54c0,0-0.36,0-0.36-0.36
			c0.36,0.36,0.54,0.54,0.9,0.54c-0.36,0-0.36-0.36-0.36-0.36c0.36,0.36,0.54,0.54,0.54,0.9c-0.36-0.36-0.36-0.54-0.36-0.54
			c0.36,0.36,0.36,0.54,0.54,1.08c-0.36-0.54-0.36-0.9-0.36-1.44c0,0.36,0,0.9,0.36,1.08c0-1.08,0-2.16,0-3.24
			c0,0.36,0,0.9-0.36,1.08c0-0.9,0.36-1.98,0.54-2.7c0.36-1.08,0-2.16-0.54-3.24c-0.54-0.9-1.44-1.62-2.52-1.98
			C898.26,409.86,896.1,410.94,895.38,413.1L895.38,413.1z"/>
	</g>
</g>
<g>
	<path class="st6" d="M1006.62,409.14c-0.36,3.6-0.9,7.38-1.08,10.8c-0.36,3.6-0.54,7.56,2.52,10.62c1.8,1.98,4.32,2.88,7.02,4.14
		c4.68,1.8,9.9,3.6,14.58,1.8c2.16-0.9,4.14-2.16,5.76-3.42c3.24-3.06,6.84-5.94,8.28-9.72c2.7-5.04,2.16-10.8,1.98-16.2
		c0-0.9-0.36-1.98-0.9-2.52c-0.9-1.08-2.7-1.62-4.32-1.98c-11.88-1.8-24.84,0.36-34.02,5.94"/>
</g>
<g>
	<g>
		<path class="st7" d="M1032.36,410.22c-0.54,0.54-1.08,1.26-1.44,1.8c-0.36,0.9-0.9,1.26-0.9,2.16c-0.36,0.54-0.36,0.9-0.36,1.44
			c0,0.9-0.36,1.62-0.36,2.52c0,0.36,0,0.9,0.36,1.08c0,0.54,0.36,1.08,0.9,1.26c0.36,0.36,0.54,0.54,0.9,0.9s0.9,0.54,1.44,0.9
			c0.54,0,0.9,0.36,1.26,0.36c0.54,0,0.9,0,1.26-0.36c0.54,0,1.08-0.36,1.62-0.54s0.9-0.54,1.44-1.08c0.54-0.36,0.9-0.9,1.08-1.26
			c0.36-0.36,0.36-0.36,0.36-0.54c0.36-0.54,0.54-1.08,0.54-1.62s0.36-0.9,0.36-1.44c0-0.36,0-0.54,0-0.9s0-0.54,0-0.9
			c0-0.54-0.36-0.9-0.54-1.26c-0.36-0.54-0.54-0.9-1.08-1.08c-0.36-0.36-0.9-0.54-1.44-0.9c-0.54-0.36-1.08-0.36-1.62,0
			c-0.54,0-1.08,0.36-1.62,0.54c-0.9,0.54-1.62,1.26-1.8,2.52c0,0.36,0,0.9-0.36,1.08c0,0.9,0.36,1.44,0.54,2.16l0,0
			c-0.36-0.36-0.36-0.54-0.54-1.08c0,0.36,0,0.36,0.36,0.54c0-0.36,0-0.9-0.36-1.08c0,0.36,0,0.36,0,0.54c0-0.36,0-0.9,0.36-1.08
			c0,0.36,0,0.54-0.36,0.54c0.36-0.36,0.36-0.54,0.54-1.08c0,0.36-0.36,0.36-0.36,0.54c0.36-0.36,0.54-0.54,0.54-0.9
			c-0.36,0.36-0.36,0.36-0.54,0.54c0.36-0.36,0.54-0.54,0.9-0.54c-0.36,0.36-0.36,0.36-0.54,0.36c0.36-0.36,0.54-0.36,1.08-0.54
			c-0.36,0-0.36,0-0.54,0.36c0.36,0,0.9,0,1.08-0.36c-0.36,0-0.36,0-0.54,0c0.36,0,0.9,0,1.08,0.36l0,0
			c1.08,1.44,1.98,2.7,2.88,3.78c0-0.54,0-0.9,0-1.26c0,0.36,0,0.9-0.36,1.08c0-0.54,0.36-1.26,0.54-1.8
			c-0.36,0.36-0.36,0.54-0.54,1.08c0.36-0.54,0.54-1.08,1.08-1.62c-0.36,0.36-0.54,0.54-0.54,0.9c0,0,0,0,0-0.36
			c0.36-0.36,0.54-0.9,0.9-1.44c0.36-0.54,0.36-1.08,0.36-1.62s0-1.08-0.36-1.62s-0.54-0.9-0.9-1.26c-0.9-0.9-1.8-1.44-2.88-1.08
			c-0.36,0-0.9,0-1.08,0.36C1033.44,409.32,1032.9,409.68,1032.36,410.22L1032.36,410.22z"/>
	</g>
</g>
<g>
	<g>
		<path class="st8" d="M967.02,469.98c0,0.36,0.36,0.36,0.36,0.54c0,0,0,0,0,0.36v-0.36c0,0,0,0.36,0.36,0.36
			c0.36,0.54,0.36,0.9,0.36,1.26c0-0.36,0-0.36,0-0.54c0,0.54,0,1.26,0,1.8c0-0.36,0-0.36,0-0.54c0,0.36-0.36,0.9-0.36,1.08v0.36
			c0,0.36,0,0,0,0c0,0.36-0.36,0.54-0.36,0.54c-0.54,0.9-0.36,2.16,0.9,2.7c1.08,0.54,2.16,0.36,2.7-0.9
			c1.62-2.7,1.62-6.12-0.36-8.82c-0.54-0.9-1.98-1.44-2.7-0.9C967.02,467.82,966.48,469.26,967.02,469.98L967.02,469.98z"/>
	</g>
</g>
<g>
	<g>
		<path class="st9" d="M938.76,512.1c4.5,3.24,10.26,4.32,15.66,5.22s10.8,1.26,16.2,1.26c10.62,0,20.88-2.16,29.16-8.82
			c2.16-1.62-0.9-4.68-3.06-3.06c-7.56,6.12-17.46,7.74-27,7.56c-4.5,0-9.36-0.54-14.04-1.08c-5.04-0.9-10.26-1.62-14.76-4.68
			C938.4,507.24,936.6,510.84,938.76,512.1L938.76,512.1z"/>
	</g>
</g>
<g>
	<path class="st1" d="M1188.96,795.96c8.82,26.64,18.18,53.64,27,80.46c0.36,1.08,0.9,2.16,1.8,2.7c1.08,0.54,2.16,0,3.24-0.36
		c32.04-13.14,64.44-26.46,96.66-39.96c5.94-2.52,12.24-5.04,17.1-9.18c4.32-3.42,7.38-8.1,11.34-12.06
		c19.26-20.34,50.22-21.96,78.12-22.14c-11.7,4.68-22.5,11.7-31.68,19.98c13.86-1.26,27.36-6.12,38.88-13.5
		c1.08,2.52,1.26,5.22,0.54,7.56c5.76,0,11.34,0.36,17.28,0.36c1.44,4.32-3.24,7.74-7.02,10.08c-18,10.26-36.9,20.52-57.42,23.94
		c-9,1.62-18.18,1.62-26.46,5.22c-14.04,5.76-23.04,18.9-32.76,30.6c-16.74,19.62-37.26,35.46-57.78,50.76
		c-16.2,12.42-33.84,25.2-54.36,26.64c-3.24,0.36-6.84,0.36-9.36-1.62c-2.16-1.44-3.6-3.6-4.86-5.4
		c-30.96-46.44-52.56-99.36-63.18-154.26c-0.36-1.08-0.54-2.7,0.36-3.42c0.9-1.08,2.52-1.08,3.78-1.08
		c16.74,0.36,33.84,1.98,50.22,4.86"/>
</g>
<g>
	<g>
		<path class="st1" d="M746.16,872.82c6.12-21.6,20.52-39.6,34.56-56.88c3.24-4.14-2.52-9.72-5.76-5.76
			c-14.94,18.36-29.88,37.62-36.72,60.48C736.62,875.7,744.54,877.86,746.16,872.82L746.16,872.82z"/>
	</g>
</g>
<g>
	<g>
		<path class="st1" d="M753.18,865.62c5.76-15.12,13.86-29.52,23.58-42.3c1.62-2.52-0.36-5.22-2.52-5.94
			c-11.88-4.86-25.56,4.86-26.64,17.28c-0.36,4.5,7.38,5.76,7.74,1.08c1.08-6.84,4.32-12.6,9.9-16.74c1.44-1.08,3.06-2.16,4.68-2.7
			c0.9-0.36,3.78-0.9,4.14-1.44h0.36c-0.54-1.08-0.9-0.9-0.9,0.36c-0.54,0.54-0.54,2.16-0.9,2.7c-0.9,1.8-1.44,4.14-2.16,5.94
			c-6.12,16.02-14.76,30.78-25.56,44.28c-3.24,4.14,2.52,9.72,5.76,5.76c7.02-8.64,13.14-17.82,18.72-27.9
			c2.52-4.5,4.86-9.36,6.84-14.04c2.16-4.86,4.68-10.26,5.76-15.3c1.08-5.22-2.16-9.72-7.56-9.36c-4.14,0-8.64,2.16-11.88,4.32
			c-7.56,5.22-13.14,13.14-14.58,22.5c2.7,0.36,5.4,0.9,7.74,1.08c0.54-7.74,9.72-12.24,16.38-9.54c-0.9-1.8-1.62-3.96-2.52-5.94
			c-9.9,13.5-18,28.62-24.3,44.28C743.46,868.32,751.38,870.12,753.18,865.62L753.18,865.62z"/>
	</g>
</g>
<g>
	<path class="st1" d="M727.98,816.84c7.74-0.54,15.3-1.8,22.68-4.32c1.26,18.36,2.7,36.72,3.78,54.9
		c0.54,7.74,1.08,15.66-1.44,23.22c-1.62,4.86-4.32,8.82-7.38,12.96c-18.54,26.64-40.86,50.94-65.52,72
		c-3.6,2.88-7.56,5.94-11.88,5.04c-3.24-0.54-5.76-2.88-7.74-5.4c-25.56-27.54-37.62-64.62-46.98-100.98
		c-5.94-22.68-10.98-45.54-15.66-68.94c-1.26-7.38-3.42-15.66-10.26-19.26c-5.94-2.88-13.5-0.54-19.62-2.88
		c-9.54-4.14-10.8-16.74-10.8-27c0-8.28,0.36-16.74,0.36-25.2c0-6.12,0.36-12.96,3.24-18.36c3.78-6.84,12.06-10.8,19.98-9.36
		c7.74,1.26,14.4,7.74,15.66,15.66c0.9,4.86-0.36,10.08,1.26,14.58c1.08,3.6,3.6,6.48,5.4,9.72c4.68,8.1,4.86,18.18,5.94,27.54
		c5.94,53.64,39.42,100.26,72.18,143.28c12.42-21.06,24.84-42.12,36.9-63.18c6.12-10.8,12.6-22.32,10.98-34.56"/>
</g>
<g>
	<g>
		<path class="st10" d="M1052.34,768.96c35.64-17.1,76.68-15.3,116.1-12.96c10.8,0.9,22.32,1.62,30.78,8.64
			c13.14,10.62,13.5,30.24,12.6,46.98c-0.54,8.64-1.98,19.26-9.9,22.5c-6.48,2.7-13.86-1.08-19.62-4.32
			c-29.16-16.2-59.94-30.06-92.88-36c-10.8-1.98-21.6-2.88-32.4-0.9c-10.98,2.16-21.24,7.56-31.14,13.5
			c-17.82,10.62-34.56,22.68-50.22,36.18c-1.98,1.62-4.14,3.42-6.48,3.42c-2.52,0-4.5-1.26-6.48-2.7
			c-24.84-17.64-52.38-31.86-81-41.58c-10.26-3.6-20.88-6.48-31.5-6.84c-14.4-0.36-28.44,4.5-41.94,9.36
			c-19.44,6.84-38.88,13.86-58.32,20.52c-7.74,2.7-15.66,5.4-23.76,5.76s-16.92-2.7-21.78-9.18c-3.78-5.04-4.86-11.88-4.32-18
			c0.54-10.62,4.68-20.52,10.08-29.7c4.86-8.1,10.98-16.02,19.62-20.34c6.84-3.24,14.4-3.96,21.78-4.5
			c36.36-2.52,73.44,1.08,108.54,10.8c11.88,3.24,24.12,7.38,34.74,13.5c11.7,6.84,21.6,16.02,31.86,24.3
			c13.14,10.98,27,21.24,41.4,30.78c26.1-27.36,57.6-49.32,92.34-64.62"/>
	</g>
	
		<rect x="961.34" y="848.12" transform="matrix(0.7565 -0.654 0.654 0.7565 -323.7534 842.1778)" class="st10" width="15.48" height="15.48"/>
</g>
<g>
	<g>
		<path class="st11" d="M588.84,763.02c-7.38-4.86-14.04-10.62-20.34-17.1c-1.8-1.98-4.68,1.08-2.88,2.88
			c6.48,6.48,13.5,12.42,21.06,17.64C588.84,767.88,590.82,764.28,588.84,763.02L588.84,763.02z"/>
	</g>
</g>
<g>
	<g>
		<path class="st11" d="M587.76,731.88c-1.44-6.84-0.36-14.04,2.88-20.34c1.08-2.52-2.52-4.32-3.42-2.16
			c-3.78,7.38-4.86,15.48-3.24,23.58c0.36,1.08,1.62,1.62,2.52,1.26C587.4,734.22,587.76,733.14,587.76,731.88L587.76,731.88z"/>
	</g>
</g>
<g>
	<g>
		<path class="st11" d="M564.36,717.12c3.78,5.4,6.12,11.7,7.02,18.18c0.36,1.08,1.62,1.62,2.52,1.26c1.08-0.36,1.62-1.26,1.26-2.52
			c-1.08-6.84-3.6-13.5-7.56-19.26c-0.54-0.9-1.8-1.26-2.7-0.9C564.36,714.96,563.82,716.4,564.36,717.12L564.36,717.12z"/>
	</g>
</g>
<g>
	<g>
		<path class="st11" d="M583.26,766.26c0,0.36,0,0.36,0,0.54C583.62,766.62,583.62,766.62,583.26,766.26c0,0.36,0,0.54,0,1.08
			c0-0.36,0-0.36,0-0.54c0,0.36-0.36,0.9-0.36,1.08c0-0.36,0.36-0.36,0.36-0.54c-0.36,0.36-0.36,0.9-0.54,1.08
			c0-0.36,0.36-0.36,0.36-0.54c-0.36,0.36-0.54,0.54-0.9,0.9c0.36,0,0.36-0.36,0.54-0.36c-0.36,0.36-0.54,0.54-0.9,0.54
			c0.36,0,0.36-0.36,0.54-0.36c-0.36,0.36-0.9,0.36-1.08,0.36c0.36,0,0.36,0,0.54,0c-0.36,0-0.54,0-0.9,0
			c-0.54,0-1.08,0.36-1.26,0.54s-0.54,0.9-0.54,1.44s0.36,1.08,0.54,1.44c0.54,0.36,0.9,0.54,1.26,0.54c1.8,0.36,3.78-0.9,5.22-2.16
			c0.54-0.9,1.08-1.62,1.26-2.7s0.36-2.16,0-2.88c-0.36-1.08-1.26-1.62-2.52-1.44C583.8,764.1,583.08,765.18,583.26,766.26
			L583.26,766.26z"/>
	</g>
</g>
<g>
	<g>
		<path class="st12" d="M498.48,517.86c14.58,73.26,41.04,143.1,67.5,212.76c1.8,4.86,9.72,2.7,7.74-2.16
			c-26.46-69.66-52.74-139.68-67.5-212.76C505.32,510.84,497.4,513,498.48,517.86L498.48,517.86z"/>
	</g>
</g>
<polygon class="st3" points="523.14,528.3 505.86,525.42 493.62,538.2 491.1,520.56 475.26,512.64 491.28,505.26 493.62,487.62 
	505.86,500.4 523.32,497.34 515.04,513 "/>
</svg>
