<?xml version="1.0" encoding="utf-8"?>
<!-- Generator: Adobe Illustrator 23.0.5, SVG Export Plug-In . SVG Version: 6.00 Build 0)  -->
<svg version="1.1" xmlns="http://www.w3.org/2000/svg" xmlns:xlink="http://www.w3.org/1999/xlink" x="0px" y="0px"
	 viewBox="0 0 1920 1080" style="enable-background:new 0 0 1920 1080;" xml:space="preserve">
<style type="text/css">
	.st0{fill:url(#SVGID_1_);}
	.st1{fill:#465572;}
	.st2{fill:#487190;}
	.st3{fill:#6C9261;}
	.st4{fill:url(#SVGID_2_);}
	.st5{fill:#121928;}
	.st6{fill:#434444;}
	.st7{fill:#727272;}
	.st8{fill:#2B1E1A;}
	.st9{fill:#F7F4EB;}
	.st10{fill:#291F1D;}
	.st11{fill:#1D1E19;}
	.st12{fill:#A35747;}
	.st13{fill:#4A5D49;}
	.st14{fill:#595061;}
	.st15{fill:#F5A64E;}
	.st16{fill:none;stroke:#B25B1C;stroke-width:3;stroke-miterlimit:10;}
	.st17{fill:#FBD180;}
	.st18{fill:#281218;}
	.st19{fill:#F9B468;}
	.st20{fill:#3F3123;}
	.st21{fill:#B25B1C;}
	.st22{fill:#FAC879;}
	.st23{fill:#F7AA63;}
	.st24{fill:#FDC676;}
	.st25{fill:none;stroke:#AA6D43;stroke-width:2;stroke-miterlimit:10;}
	.st26{fill:#D77332;}
	.st27{fill:#794117;}
	.st28{fill:#638A89;}
	.st29{fill:#D6BF9D;}
	.st30{fill:#B5A288;}
	.st31{fill:#F4C390;}
	.st32{fill:#CEA27C;}
	.st33{fill:#3B6B52;}
	.st34{fill:#24324C;}
	.st35{fill:#7A7332;}
	.st36{fill:#5A4D57;}
	.st37{fill:#0E192B;}
</style>
<g id="圖層_1">
	<linearGradient id="SVGID_1_" gradientUnits="userSpaceOnUse" x1="956.0093" y1="-360.9433" x2="964.218" y2="988.2341">
		<stop  offset="0" style="stop-color:#E1EAF4"/>
		<stop  offset="5.235721e-03" style="stop-color:#DCE6F2"/>
		<stop  offset="0.0117" style="stop-color:#CCDCEE"/>
		<stop  offset="0.0189" style="stop-color:#B3CAE7"/>
		<stop  offset="0.0265" style="stop-color:#90B2DC"/>
		<stop  offset="0.0286" style="stop-color:#85AAD9"/>
		<stop  offset="0.1742" style="stop-color:#83A7D3"/>
		<stop  offset="0.3624" style="stop-color:#7C9DC3"/>
		<stop  offset="0.5732" style="stop-color:#708EA9"/>
		<stop  offset="0.6701" style="stop-color:#6A859A"/>
		<stop  offset="1" style="stop-color:#192B42"/>
	</linearGradient>
	<rect x="3" class="st0" width="1917" height="1083"/>
</g>
<g id="圖層_2">
	<rect x="1480" y="387" class="st1" width="46" height="412"/>
	<rect x="1666" y="357" class="st1" width="46" height="412"/>
	<rect x="441" y="416" class="st1" width="46" height="412"/>
	<g>
		<path class="st2" d="M1502.5,169.5c-20.51,25.78-72.88,95.86-93.39,121.64c14.22,0.78,28.55,1.59,42.44,7.43
			c-29.49,41.6-59.38,82.21-89.65,121.8c19.7,2.16,39.4,4.31,59.1,6.47c-39.47,45.21-78.93,90.43-118.4,135.64
			c39.62,12.38,79.95,13.83,120.1,15.24c78.14,2.76,156.29,5.51,234.43,8.27c-7.34-26.81-22.25-42.57-35.43-59.83
			c-14.2-18.6-27.16-40.53-38.48-65.1c12.08-7.31,24.73-11.32,37.42-11.87c-22.13-45.4-53.23-73.99-73-123.06
			c10.52-2.63,21.04-5.26,31.55-7.88c-29.37-41.57-55.31-91.63-76.62-147.86"/>
	</g>
	<g>
		<path class="st2" d="M1711.5-54c-20.51,33.86-72.88,125.9-93.39,159.76c14.22,1.03,28.55,2.09,42.44,9.76
			c-29.49,54.64-59.38,107.97-89.65,159.96c19.7,2.83,39.4,5.66,59.1,8.5c-39.47,59.38-78.93,118.76-118.4,178.14
			c39.62,16.26,79.95,18.16,120.1,20.02c78.14,3.62,156.29,7.24,234.43,10.86c-7.34-35.21-22.25-55.9-35.43-78.58
			c-14.2-24.43-27.16-53.22-38.48-85.5c12.08-9.6,24.73-14.87,37.42-15.59c-22.13-59.62-53.23-97.17-73-161.62
			c10.52-3.45,21.04-6.9,31.55-10.36c-29.37-54.6-55.31-120.34-76.62-194.19"/>
	</g>
	<g>
		<path class="st2" d="M474.5,139.5c-20.51,25.78-72.88,95.86-93.39,121.64c14.22,0.78,28.55,1.59,42.44,7.43
			c-29.49,41.6-59.38,82.21-89.65,121.8c19.7,2.16,39.4,4.31,59.1,6.47c-39.47,45.21-78.93,90.43-118.4,135.64
			c39.62,12.38,79.95,13.83,120.1,15.24c78.14,2.76,156.29,5.51,234.43,8.27c-7.34-26.81-22.25-42.57-35.43-59.83
			c-14.2-18.6-27.16-40.53-38.48-65.1c12.08-7.31,24.73-11.32,37.42-11.87c-22.13-45.4-53.23-73.99-73-123.06
			c10.52-2.63,21.04-5.26,31.55-7.88c-29.37-41.57-55.31-91.63-76.62-147.86"/>
	</g>
	<path class="st3" d="M1945,1083H3V781c27.79-0.21,87.15-0.73,162-2c689.39-11.71,1013-58.72,1313-36c28.25,2.14,117.72,9.55,239,8
		c97.91-1.25,177.48-7.84,228-13C1945,853,1945,968,1945,1083z"/>
	<linearGradient id="SVGID_2_" gradientUnits="userSpaceOnUse" x1="217.3184" y1="1435.296" x2="1750.6663" y2="453.9134">
		<stop  offset="0" style="stop-color:#536537"/>
		<stop  offset="0.1811" style="stop-color:#677438"/>
		<stop  offset="0.5511" style="stop-color:#9C9C3B"/>
		<stop  offset="0.8703" style="stop-color:#CEC13E"/>
		<stop  offset="0.9765" style="stop-color:#E2D03F"/>
		<stop  offset="1" style="stop-color:#F5DF40"/>
	</linearGradient>
	<path class="st4" d="M1945,1083H3c0-88,0-176,0-264c43.24-4.59,106.51-10.89,183-17c82.34-6.57,392.41-29.88,822-19
		c213.61,5.41,373.94,17.18,424,21c197.86,15.11,370.92,35.79,513,56C1945,934.33,1945,1008.67,1945,1083z"/>
	<path class="st5" d="M219,956c50.9,2.93,96.85,9.3,137,17c-2.67-5-5.33-10-8-15c-38.61-5.36-79.67-9.84-123-13
		c-44.5-3.24-86.89-4.75-126.9-4.98c-1.11-2.34-2.23-4.68-3.34-7.02C66.17,895.67,37.59,858.33,9,821c0,90,0,180,0,270
		c53.33-0.67,106.67-1.33,160-2c-21.16-44.45-42.31-88.9-63.47-133.35C139.91,953.89,177.93,953.64,219,956z"/>
	<path class="st6" d="M731,1012c-122.15-0.76-149.68-6.01-150-11c-0.21-3.36,12.19-7.24,37-15c25.57-8,38.36-12,52-12
		c26.85-0.01,60.62,11.18,63,28C733.55,1005.89,732.33,1009.4,731,1012z"/>
	<path class="st6" d="M913,979c-0.65,3.24-9.67,2.28-70,4c-48.94,1.39-59.08,2.48-60-1c-1.6-6.07,25.57-23.09,56-26
		C877.76,952.3,914.36,972.19,913,979z"/>
	<path class="st6" d="M752,886c-23-0.33-46-0.67-69-1c2.92-3.18,6.85-6.78,12-10c13.14-8.22,26.35-9.07,33-9c6,1.33,12,2.67,18,4
		C748,875.33,750,880.67,752,886z"/>
	<g>
		<path class="st6" d="M1167,1009c-37-2-74-4-111-6l0,0c9.33-6.33,18.67-12.67,28-19c13,0,26,0,39,0c4.72,3.63,10.05,7.36,16,11
			C1149.01,1001.13,1158.56,1005.64,1167,1009z"/>
		<path class="st7" d="M1107.71,995.34l11.64-8.16c1.21-0.85,0.64-2.76-0.84-2.8l-22.79-0.65c-1.48-0.04-2.16,1.83-1,2.75l11.16,8.8
			C1106.4,995.7,1107.15,995.73,1107.71,995.34z"/>
	</g>
	<path class="st7" d="M1280,1022c-2.05,5.1-15.47,1.35-51.17,0.47c-39.14-0.97-59.26,2.64-59.83-0.59c-0.22-1.22,2.51-2.64,44-16.73
		c22.96-7.8,28.2-9.43,36-8.15C1267.05,999.96,1282.48,1015.83,1280,1022z"/>
	<g>
		<path class="st8" d="M1379,853c0.14,1.36-46.88,11-106,11s-106.14-9.64-106-11c0.13-1.28,41.59,5,106,5S1378.87,851.72,1379,853z"
			/>
		<ellipse class="st9" cx="1273" cy="853" rx="106" ry="7"/>
	</g>
	<path class="st10" d="M1497,917c-95.67,0-191.33,0-287,0c-1.3-0.23-5.55-1.15-9-5c-3.65-4.08-3.96-8.73-4-10
		c61.65,4.3,126.75,6.85,195,7c39.11,0.08,77.13-0.63,114-2c-0.03,0.81-0.25,4.21-3,7C1500.66,916.37,1497.91,916.87,1497,917z"/>
	<path class="st9" d="M1506,907c-0.42,4.38-30.31,4.66-47,5c-36.19,0.73-54.28,1.1-235,1c-5.97,0-22.38,0.06-26-8
		c-0.1-0.23-1.66-3.87,0-7c3.49-6.59,18.08-4.34,38-3c13.31,0.89,26.67,0.51,40,1c13.24,0.48,29.16,0.32,61,0
		c33.59-0.34,50.39-0.51,62-1c37.68-1.59,61.02-4.59,92,5C1505.69,904.54,1506.05,906.44,1506,907z"/>
	<g>
		<path class="st9" d="M1583,964c-89,0.33-178,0.67-267,1c17-4.67,34-9.33,51-14c60.33,1,120.67,2,181,3
			C1559.67,957.33,1571.33,960.67,1583,964z"/>
		<rect x="1316" y="965" class="st8" width="267" height="5"/>
	</g>
	<g>
		<g>
			<path class="st11" d="M1621,992c-53.5,3.8-112.07,5.59-175,4c-53.49-1.35-103.63-4.98-150-10c-0.48-0.12-2.86-0.79-4-3
				c-1.27-2.45-0.52-5.8,2-8c107.33,0.33,214.67,0.67,322,1c8.66,0.85,13.57,6.3,13,10C1628.58,988.73,1625.09,991,1621,992z"/>
		</g>
		<path class="st9" d="M1618,990c-49.64,2.57-103.13,3.52-160,2c-58.52-1.56-113.34-5.55-164-11c-0.16-0.09-1.8-1.04-2-3
			c-0.17-1.67,0.83-2.82,1-3c107.67,0.33,215.33,0.67,323,1c8.51,1.68,13.46,6.13,13,9C1628.59,987.52,1623.87,989.6,1618,990z"/>
	</g>
	<path class="st12" d="M1823.36,211c1.15,71.82,1.77,137.94,1.98,197.2c-29.11-27.86-58.21-55.73-87.32-83.59
		c29.13,36.84,58.26,73.68,87.39,110.53c0.13,90.56-0.71,163.4-2.05,213.87c-0.55,20.89-1.81,59.56-14.81,106
		c-14.83,53-37.87,90.83-54.55,114c55.33-2,110.67-4,166-6c0-208.33,0-416.67,0-625C1887.79,229,1855.57,220,1823.36,211z"/>
	<g>
		<path class="st13" d="M1943.17,256.98c-24.92,1.64-50.36-6.49-69.71-22.27c-5.07,13.23-11.24,26.39-21.16,36.5
			c-9.92,10.12-24.21,16.82-38.2,14.6c0.03,14.88,0.05,29.77,0.08,44.65c0.04,23.26-1.49,49.95-19.83,64.27
			c-7.5,5.85-16.97,8.73-26.43,9.69c-19.64,2-39.98-4.1-55.28-16.56c-2.67-2.18-5.39-4.63-8.8-5.18c-2.9-0.47-5.82,0.55-8.6,1.5
			c-22.72,7.74-50.84,10.75-68.04-5.98c-15.81-15.37-15.41-40.85-10.42-62.33c6.36-27.4,18.42-53.47,35.18-76.07
			c1.64-2.21,3.39-4.56,3.63-7.3c0.24-2.83-1.17-5.5-2.3-8.1c-6.21-14.19-4.95-30.78,0.3-45.35s14.18-27.49,23.29-40.01
			c8.43-11.59,17.11-23.01,26.03-34.24c2.06-2.6,4.21-5.36,4.67-8.64c0.5-3.6-1.13-7.11-2.23-10.58
			c-3.8-12.05-1.17-25.11,1.94-37.36c3.78-14.88,8.61-30.18,19.23-41.26c16.39-17.1,42.29-20.11,65.95-21.22
			c40.56-1.91,81.79-1.17,120.91,9.75c16.99,4.74,34.19,11.9,45.39,25.54c6.68,8.13,10.78,18.05,14.17,28.01
			c19.27,56.52,18.25,119.71-2.83,175.58c-5.45,14.46-11.73,27.64-26.59,31.88"/>
	</g>
	<path class="st14" d="M1666,883c0.72-3.72,2.14-9.84,5-17c2.02-5.06,18.68-45.39,48-50c8.61-1.35,13.29,1.16,22-3
		c9.17-4.38,9.11-9.61,17-14c14.69-8.18,33.17-0.22,36,1c15.87,6.84,23.03,20.02,25,24c20.81,33.31,14.6,46.88,12,51
		c-7.42,11.79-26.15,11.32-81,10C1723.37,884.36,1680.92,883.35,1666,883z"/>
	<path class="st10" d="M1612,1064c-89.33,0-178.67,0-268,0c-1.43-1.76-4.79-6.4-5-13c-0.09-2.87,0.44-5.27,1-7
		c92.33,0,184.67,0,277,0c0.21,2.56,0.22,6.47-1,11C1614.93,1058.95,1613.3,1061.98,1612,1064z"/>
	<path class="st9" d="M1614,1059h-270c-0.73-0.64-5.15-4.65-6-12.27c-0.75-6.74,1.6-13.66,6-17.73c90,0,180,0,270,0
		c0.87,1.42,4,6.85,4,15C1618,1045.85,1617.84,1052.75,1614,1059z"/>
	<path class="st15" d="M959,858.5c-115.98,2.5-231.95,5-347.93,7.5c-14.49-48.67-28.98-97.33-43.47-146
		c-8.53-28.67-17.07-57.33-25.6-86c136.42-13.67,272.85-27.33,409.27-41C953.85,681.5,956.42,770,959,858.5z"/>
	<path class="st15" d="M1467,836.25c-173.35,7.58-346.7,15.17-520.05,22.75c-1.65-87.67-3.3-175.33-4.95-263
		c172.94-6,345.87-12,518.81-18C1462.87,664.08,1464.94,750.16,1467,836.25z"/>
	<polyline class="st16" points="554.8,676.99 944,641.43 1462.5,648.38 	"/>
	<polyline class="st16" points="1467,701.5 945.06,701 567.5,720.5 	"/>
	<polyline class="st16" points="1467,768.21 946.25,768.21 585.5,781.5 	"/>
	<polyline class="st16" points="1462.4,810.28 946.87,813.68 601.5,823.5 	"/>
	<path class="st17" d="M1320,205c-43.95,66.27-102.72,143.42-180,222c-69.56,70.73-137.96,126.19-198,169c208.67,3,417.33,6,626,9
		c-39.32-32.59-86.7-78.64-131-141C1366.77,365.14,1335.17,268.76,1320,205z"/>
	<path class="st15" d="M1267,324c-56.67,71.67-113.33,143.33-170,215c110,2.33,220,4.67,330,7c-24.94-41.22-48.7-71.64-66-92
		c-23.39-27.53-46.16-49.81-72-91C1278.93,346.94,1271.62,333.16,1267,324z"/>
	<path class="st18" d="M1355,359c-17.67,5.67-35.33,11.33-53,17c-12.33-14.67-24.67-29.33-37-44c2.1-8.83,6.07-21.04,14-34
		c10.96-17.92,24.41-29,33-35C1326.33,295,1340.67,327,1355,359z"/>
	<path class="st18" d="M1469,546c-14,0-28,0-42,0c-41.67-53.67-83.33-107.33-125-161c18.99-5.87,37.98-11.73,56.96-17.6
		c15.09,28.66,32.03,58.66,51.04,89.6C1429.72,489.1,1449.56,518.75,1469,546z"/>
	<g>
		<path class="st19" d="M1316,546c-34.33-1-68.67-2-103-3c0.33-28.33,0.67-56.67,1-85c19.28-33.78,55.9-45.25,79-33
			c20.48,10.85,24.48,37.22,25,41C1317.33,492.67,1316.67,519.33,1316,546z"/>
		<path class="st20" d="M1299,546c-22.33-0.67-44.67-1.33-67-2c0-24.67,0-49.33,0-74c7.18-14.07,21.93-22.39,37-21
			c20.06,1.86,29.45,19.91,30,21C1299,495.33,1299,520.67,1299,546z"/>
		<rect x="1215" y="491" class="st19" width="101" height="12"/>
		<path class="st19" d="M1272,545h-13v-96c1.61-0.51,4.03-1.07,7-1c2.48,0.06,4.54,0.54,6,1C1272,481,1272,513,1272,545z"/>
	</g>
	<g>
		<g>
			<path class="st21" d="M1136.15,488c0,16.7,0,33.39,0,50.09c0,1.93,3,1.93,3,0c0-16.7,0-33.39,0-50.09
				C1139.15,486.07,1136.15,486.07,1136.15,488L1136.15,488z"/>
		</g>
	</g>
	<g>
		<g>
			<path class="st21" d="M1214.51,392.53c-1.59,18.66-2.9,37.34-3.9,56.04c-1.01,18.7-1.72,37.41-2.13,56.14
				c-0.24,10.6-0.37,21.21-0.42,31.81c-0.01,1.93,2.99,1.93,3,0c0.08-18.73,0.46-37.45,1.13-56.17c0.67-18.71,1.64-37.42,2.9-56.1
				c0.71-10.58,1.53-21.16,2.43-31.72C1217.67,390.61,1214.67,390.62,1214.51,392.53L1214.51,392.53z"/>
		</g>
	</g>
	<line class="st16" x1="1264.5" y1="331.5" x2="1262" y2="421.34"/>
	<line class="st16" x1="1318" y1="405.61" x2="1316" y2="546"/>
	<line class="st16" x1="1363.74" y1="464.53" x2="1363.74" y2="545"/>
	<path class="st22" d="M1359.2,840.89c-51.58,3.06-103.15,6.11-154.73,9.17c-21.04-53.62-18.83-97.59-15.92-120.21
		c4.36-33.82,10-78.36,44.66-98.14c27.15-15.5,62.14-10.73,84.28,1.47C1367.18,660.57,1387.44,744.89,1359.2,840.89z"/>
	<path class="st23" d="M1333.19,841.6l-92.8,6.1c-30.79-99.15-26.49-176.45,8.23-194.96c17.73-9.45,38.37-0.88,41.11,0.3
		C1331.99,671.32,1350.84,747.07,1333.19,841.6z"/>
	<rect x="1071" y="654" class="st24" width="94" height="94"/>
	<rect x="1087" y="670" class="st20" width="63" height="63"/>
	<line class="st25" x1="1241.88" y1="662.56" x2="1259.71" y2="846.76"/>
	<line class="st25" x1="1265.5" y1="648.38" x2="1287.91" y2="846.76"/>
	<line class="st25" x1="1294.5" y1="654.5" x2="1317" y2="843.13"/>
	
		<rect x="1218.55" y="745.9" transform="matrix(0.9978 -0.0656 0.0656 0.9978 -46.9245 85.595)" class="st22" width="123" height="23"/>
	<circle class="st26" cx="1324.96" cy="754.45" r="22.5"/>
	<ellipse transform="matrix(0.9978 -0.0656 0.0656 0.9978 -46.1802 88.4562)" class="st27" cx="1324" cy="747.5" rx="3" ry="6.5"/>
	<rect x="621" y="683" transform="matrix(0.9978 -0.0656 0.0656 0.9978 -45.4791 50.8074)" class="st24" width="260" height="70"/>
	<rect x="640" y="697" transform="matrix(0.9978 -0.0656 0.0656 0.9978 -45.5786 50.7778)" class="st20" width="221" height="45"/>
	<path class="st28" d="M964,600c-149.33,11.33-298.67,22.67-448,34c8.35-14.96,21.53-37,40-62c36.7-49.67,61.72-66.61,80-91
		c22.39-29.87,42.66-80.28,31-170c218.33-37,436.67-74,655-111c-35.1,60.94-82.81,132.38-147,206
		C1101.02,490.84,1026.45,554.14,964,600z"/>
	<g>
		<path class="st29" d="M833,392.38c-19.33,2.21-38.67,4.41-58,6.62c-3.67-59-7.33-118-11-177c22,0,44,0,66,0
			C831,278.79,832,335.59,833,392.38z"/>
		<path class="st30" d="M775,399c-23,1-46,2-69,3c-4.33-53.93-8.67-107.85-13-161.78c23.67-6.07,47.33-12.15,71-18.22
			C767.67,281,771.33,340,775,399z"/>
		<path class="st31" d="M839,222h-80c0.33-10.67,0.67-21.33,1-32c26.33,0,52.67,0,79,0V222z"/>
		<path class="st32" d="M764,222c-25,7.33-50,14.67-75,22c-0.67-10.33-1.33-20.67-2-31c25-7.67,50-15.33,75-23
			C762.67,200.67,763.33,211.33,764,222z"/>
	</g>
	<g>
		<path class="st33" d="M-49.4,598.16c11.35-14.37,26.5-27.01,44.59-29.84s38.92,7.1,43.5,24.83c11.1-17.21,31.88-27.69,52.32-26.36
			s39.7,14.4,48.47,32.9c20.15-10.69,44.92-14.88,65.91-5.97s35.95,33.16,29.71,55.1c20.63,0.13,39.38,18.72,39.69,39.36
			c0.31,20.63-17.88,39.78-38.5,40.53c17.63,9.3,27.25,31.58,21.93,50.79s-25.03,33.36-44.94,32.27
			c-5.87-0.32-11.85-1.81-17.55-0.36c-4.85,1.23-8.91,4.45-13.01,7.33c-30.26,21.34-70.75,27.42-105.94,15.9
			c-5.2-1.7-10.57-3.79-15.98-3c-6.72,0.99-11.91,6.14-17.32,10.25c-28.8,21.9-72.87,15.31-99.55-9.13
			c-26.67-24.44-37.59-62.53-36.39-98.69c1.2-36.16,13.13-71.04,26.07-104.82c7.45-19.45,20.08-42.14,40.9-41.74"/>
	</g>
	<path class="st34" d="M471,1093H8V822c73.33,18,146.67,36,220,54c57.67,18.67,115.33,37.33,173,56
		C424.33,985.67,447.67,1039.33,471,1093z"/>
	<path class="st12" d="M403,517c-2.42-38.27-4.14-82.79-4.07-132.93L558,225l-7.39-7.39l-151.6,151.6
		c0.17-19.7,0.61-40.22,1.39-61.53l99.9-91.7l-7.93-8.64l-91.29,83.79c1.72-38.64,4.57-79.74,8.92-123.13c-46-1.67-92-3.33-138-5
		c0.78,59.42,2.99,108.2,4.88,141.87l-37.81-37.81l-20.51,20.51l60.5,60.5c3.46,75.2,9.38,235.76,1.94,327.94
		c-1.19,14.75-3.34,34.78-13,58c-5.12,12.3-11.54,23.59-43,66c-9.97,13.44-22.78,30.44-38,50c34.51,17.52,63.55,23.08,83,25
		c12.32,1.22,26.38,0.83,54,0c39.33-1.18,59.84-1.79,82-4c28.68-2.86,69.15-9.27,118-25c-21.59-24.48-50.2-61.72-74-112
		C418.35,667.14,408.6,605.54,403,517z"/>
	<g>
		<path class="st35" d="M638.76-30.84c8.26,19.63,16.61,39.62,18.88,60.79c2.27,21.18-2.39,44.11-17.2,59.43
			c4.14,11.92,6.07,24.6,5.67,37.21c-0.31,9.83-2.18,19.97-7.84,28.02c-14.77,20.99-46.42,18.66-69.08,30.72
			c9.85-0.15,19.09,5.99,24.5,14.23s7.42,18.29,7.75,28.14c0.59,17.98-5.04,37.37-19.52,48.05c-12.49,9.21-29.28,10.36-44.64,8.11
			s-30.15-7.51-45.48-9.88c-16.56-2.56-33.64-1.68-49.85,2.56c-6.7,1.75-14.05,4.03-20.27,0.98c-5.44-2.67-8.28-8.61-11.38-13.82
			c-5.26-8.82-12.34-16.54-20.68-22.53c-7.15-5.14-15.18-9.01-22.06-14.51c-15.38-12.3-23.78-31.7-39.14-44.02
			c-11.56-9.28-26.13-13.79-40.31-18.1c-18.43-5.61-36.85-11.22-55.28-16.83c-17.26-5.25-36-11.6-45.57-26.9
			c-4.3-6.88-6.27-14.94-7.65-22.94c-7.22-41.83,2.55-89.53,35.82-115.89c25.54-20.24,59.9-24.64,92.41-26.8
			C402-51.1,496.5-44.96,590.67-38.81c16.58,1.08,33.68,2.3,48.54,9.75"/>
	</g>
	<g>
		<path class="st33" d="M221.63-42.61c13.96,14.7,28.06,29.58,38.15,47.15c10.09,17.58,15.95,38.39,12.04,58.28
			c-3.31,16.88-13.28,31.68-24.22,44.95c21.83,12.74,44.93,26.84,55.51,49.79c5.92,12.84,7.29,27.29,7.69,41.42
			c0.49,17.21-0.32,34.45-2.43,51.53c-2.1,16.98-5.72,34.4-15.75,48.27c-6.49,8.98-15.36,16-24.75,21.87
			c-31.63,19.76-70.71,27.25-107.4,20.59c-13.77-2.5-27.15-6.9-40.96-9.2c-16.6-2.77-33.59-2.48-50.2-5.2
			c-34.57-5.66-66.74-24.86-88.14-52.6c-4.31-5.59-8.26-11.64-10-18.48c-1.3-5.08-1.32-10.38-1.35-15.61
			c-0.12-29.36-0.23-58.73-0.35-88.09c-0.15-37.45-0.28-75.15,6.23-112.03c2.19-12.4,5.22-24.91,11.8-35.65
			C-5.85-6.46,4.07-14.92,14.65-21.98C36.01-36.24,60.73-45.43,86.21-48.6c25.38-3.15,51.19-0.4,76.63-3.07
			c11.13-1.16,22.28-3.37,33.43-2.41s22.7,5.7,28.52,15.26"/>
	</g>
	<g>
		<path class="st36" d="M554,838c11.77,14.37,22.77,28.07,33,41c-41,2-82,4-123,6c-13-29.67-26-59.33-39-89
			c0.64-2.81,3.49-13.7,14-21c14.27-9.91,30.29-4.6,32-4c5.78,1.59,14.84,4.54,25,10C513.84,790.59,524.9,802.47,554,838z"/>
		<path class="st37" d="M464,885c-13.01,0.88-30.02-0.01-48-7c-3.19-1.24-6.19-2.59-9-4c-1.78-4.18-4.45-11.99-4-22
			c0.55-12.24,5.47-21.07,8-25c4.67-10.33,9.33-20.67,14-31C438,825.67,451,855.33,464,885z"/>
		<path class="st37" d="M519.84,880.54l-7.76,1.95c-7.1-12.3-14.99-28.55-21.08-48.49c-5.18-16.96-7.75-32.33-9-45
			c1.67-0.33,3.33-0.67,5-1c2.55,13.37,6.33,28.59,12,45C505.4,851.51,512.77,867.4,519.84,880.54z"/>
	</g>
</g>
</svg>
