<?xml version="1.0" encoding="utf-8"?>
<!-- Generator: Adobe Illustrator 23.0.5, SVG Export Plug-In . SVG Version: 6.00 Build 0)  -->
<svg version="1.1" id="圖層_1" xmlns="http://www.w3.org/2000/svg" xmlns:xlink="http://www.w3.org/1999/xlink" x="0px" y="0px"
	 viewBox="0 0 1920 1080" style="enable-background:new 0 0 1920 1080;" xml:space="preserve">
<style type="text/css">
	.st0{fill:#FFFFFF;}
</style>
<g>
	<path class="st0" d="M1314.87,1076.56h-1056c-6.6,0-12-5.4-12-12V8.56c0-6.6,5.4-12,12-12h1056c6.6,0,12,5.4,12,12v1056
		C1326.87,1071.16,1321.47,1076.56,1314.87,1076.56z"/>
</g>
<g>
	<path d="M724.4,509.85c2.34,2.35,3.52,5.11,3.52,8.3c0,3.19-1.17,5.95-3.52,8.3c-2.35,2.35-5.11,3.52-8.3,3.52H588.42
		c-1.88,0-3,0.94-3.38,2.81c-0.94,6-1.97,11.53-3.09,16.59c-0.19,0.75-0.1,1.41,0.28,1.97c0.37,0.56,0.84,0.84,1.41,0.84h83.81
		c6.56,0,12.09,2.44,16.59,7.31c3.56,4.13,5.34,8.82,5.34,14.06c0,0.94,0,1.88,0,2.81c-3.38,28.12-8.53,45.37-15.47,51.75
		c-5.44,5.06-13.5,7.88-24.19,8.44c-3.19,0.18-7.22,0.28-12.09,0.28c-5.44,0-11.72-0.1-18.84-0.28c-3.56-0.18-6.71-1.45-9.42-3.8
		c-2.72-2.35-4.74-5.3-6.05-8.86c-0.75-2.63-0.42-5.02,0.98-7.17s3.42-3.23,6.05-3.23c8.44,0.56,17.9,0.84,28.41,0.84
		c6.19,0,10.13-0.75,11.81-2.25c4.31-3.56,7.78-14.99,10.41-34.31c0-0.75-0.24-1.4-0.7-1.96c-0.47-0.56-1.08-0.84-1.83-0.84h-82.41
		c-1.88,0-3.28,0.84-4.22,2.53c-6.57,12.75-15.75,23.77-27.56,33.05s-27.47,17.02-46.97,23.2c-1.5,0.56-3,0.84-4.5,0.84
		c-2.25,0-4.41-0.47-6.47-1.41c-3.75-1.69-6.75-4.32-9-7.88c-1.88-2.63-2.3-5.48-1.27-8.58c1.03-3.09,3.05-5.01,6.05-5.77
		c13.31-3.74,24.51-8.24,33.61-13.5c9.09-5.25,16.31-11.34,21.66-18.28c5.34-6.93,9.47-13.96,12.38-21.09
		c2.9-7.12,5.2-15.56,6.89-25.31c0-0.75-0.24-1.41-0.7-1.97c-0.47-0.56-1.08-0.84-1.83-0.84h-70.88c-3.19,0-5.95-1.17-8.3-3.52
		c-2.35-2.34-3.52-5.11-3.52-8.3c0-3.19,1.17-5.95,3.52-8.3c2.34-2.34,5.11-3.52,8.3-3.52h99.84c1.69,0,2.53-0.84,2.53-2.53v-8.44
		c0-3.75,1.31-6.98,3.94-9.7c2.62-2.72,5.86-4.08,9.7-4.08c3.84,0,7.12,1.36,9.84,4.08c2.72,2.72,4.08,5.95,4.08,9.7v8.44
		c0,1.69,0.84,2.53,2.53,2.53H716.1C719.29,506.33,722.05,507.5,724.4,509.85z M507.7,472.3c-1.88,0-2.81,0.94-2.81,2.81v10.41
		c0,3.56-1.17,6.57-3.52,9c-2.35,2.44-5.34,3.66-9,3.66s-6.71-1.22-9.14-3.66c-2.44-2.43-3.66-5.44-3.66-9v-11.81
		c0-6.75,2.39-12.52,7.17-17.3s10.55-7.17,17.3-7.17h32.63c0.75,0,1.31-0.28,1.69-0.84c0.37-0.56,0.47-1.13,0.28-1.69
		c-1.88-5.44-3.94-10.41-6.19-14.91c-1.13-2.43-1.13-4.92,0-7.45s3-4.08,5.63-4.64v-0.28h-46.69c-3.19,0-5.95-1.17-8.3-3.52
		c-2.35-2.34-3.52-5.15-3.52-8.44c0-3.28,1.17-6.05,3.52-8.3c2.34-2.25,5.11-3.38,8.3-3.38h91.13c1.69,0,2.53-0.84,2.53-2.53v-6.47
		c0-4.12,1.36-7.5,4.08-10.13c2.72-2.62,6-3.94,9.84-3.94c3.84,0,7.12,1.36,9.84,4.08c2.72,2.72,4.08,6.05,4.08,9.98v6.47
		c0,1.69,0.84,2.53,2.53,2.53h92.25c3.19,0,5.95,1.13,8.3,3.38c2.34,2.25,3.52,5.02,3.52,8.3c0,3.28-1.17,6.1-3.52,8.44
		c-2.35,2.35-5.11,3.52-8.3,3.52h-34.31c0.75,0.19,1.36,0.7,1.83,1.55c0.47,0.84,0.42,1.64-0.14,2.39
		c-4.32,8.44-8.63,16.31-12.94,23.63c-0.38,0.56-0.38,1.08,0,1.55c0.37,0.47,0.84,0.7,1.41,0.7h31.5c6.75,0,12.52,2.39,17.3,7.17
		s7.17,10.55,7.17,17.3v11.53c0,3.56-1.27,6.61-3.8,9.14s-5.63,3.8-9.28,3.8s-6.75-1.27-9.28-3.8s-3.8-5.58-3.8-9.14v-10.13
		c0-1.87-0.94-2.81-2.81-2.81H507.7z M644.39,421.96c0.18-0.56,0.09-1.13-0.28-1.69c-0.38-0.56-0.94-0.84-1.69-0.84h-85.78
		c-0.56,0-0.98,0.28-1.27,0.84s-0.33,1.03-0.14,1.41c4.68,8.25,8.34,16.59,10.97,25.03c0.37,1.69,1.59,2.53,3.66,2.53h60.47
		c1.87,0,3.19-0.84,3.94-2.53C638.57,438.08,641.95,429.83,644.39,421.96z"/>
	<path d="M972.38,407.89c-0.19,0.56-0.1,1.13,0.28,1.69c0.37,0.56,0.84,0.84,1.41,0.84h80.16c6.75,0,12.52,2.39,17.3,7.17
		s7.17,10.55,7.17,17.3v180.56c0,3.75-1.41,7.03-4.22,9.84s-6.14,4.22-9.98,4.22c-3.85,0-7.17-1.41-9.98-4.22s-4.22-6.09-4.22-9.84
		v-3.09c0-1.31-0.66-1.97-1.97-1.97H898.97c-1.31,0-1.97,0.66-1.97,1.97v4.78c0,3.75-1.31,6.93-3.94,9.56
		c-2.63,2.63-5.81,3.94-9.56,3.94c-3.75,0-6.94-1.31-9.56-3.94c-2.63-2.63-3.94-5.81-3.94-9.56V434.89c0-6.75,2.39-12.52,7.17-17.3
		s10.55-7.17,17.3-7.17h43.59c1.87,0,3.19-0.84,3.94-2.53c3.38-9.18,6.28-17.81,8.72-25.88c1.31-4.68,4.03-8.44,8.16-11.25
		c3.19-2.06,6.56-3.09,10.13-3.09c1.13,0,2.15,0,3.09,0c4.31,0.75,7.59,3.09,9.84,7.03c1.13,2.07,1.69,4.08,1.69,6.05
		s-0.38,3.89-1.13,5.77C978.75,394.96,975.38,402.08,972.38,407.89z M1050.29,439.96c0-1.87-0.94-2.81-2.81-2.81H899.82
		c-1.88,0-2.81,0.94-2.81,2.81v53.44c0,1.88,0.94,2.81,2.81,2.81h147.66c1.87,0,2.81-0.94,2.81-2.81V439.96z M897,580.86
		c0,1.88,0.94,2.81,2.81,2.81h147.66c1.87,0,2.81-0.93,2.81-2.81v-55.4c0-1.87-0.94-2.81-2.81-2.81H899.82
		c-1.88,0-2.81,0.94-2.81,2.81V580.86z"/>
</g>
</svg>
