<?xml version="1.0" encoding="utf-8"?>
<!-- Generator: Adobe Illustrator 23.0.5, SVG Export Plug-In . SVG Version: 6.00 Build 0)  -->
<svg version="1.1" id="圖層_1" xmlns="http://www.w3.org/2000/svg" xmlns:xlink="http://www.w3.org/1999/xlink" x="0px" y="0px"
	 viewBox="0 0 1920 1080" style="enable-background:new 0 0 1920 1080;" xml:space="preserve">
<style type="text/css">
	.st0{fill:#F6E9D9;}
	.st1{fill:#8F6A4C;}
	.st2{fill:#DA742E;}
	.st3{fill:#F2CB89;}
	.st4{fill:#0F0617;}
	.st5{fill:#FCFCFC;}
	.st6{fill:#FFAA2D;}
	.st7{fill:#FE8525;}
	.st8{fill:#0F0613;}
	.st9{fill:#0F0615;}
	.st10{fill:#DC9D56;}
	.st11{fill:#7C6662;}
	.st12{fill:#94CCCE;}
	.st13{fill:#969493;}
</style>
<g>
	<path class="st0" d="M978,569.95h-36c-6.6,0-12-5.4-12-12v-35.92c0-6.6,5.4-12,12-12h36c6.6,0,12,5.4,12,12v35.92
		C990,564.55,984.6,569.95,978,569.95z"/>
</g>
<g>
	<path class="st1" d="M949.5,528c1.11-1.45,1.65-2.76,1.94-3.66c0.54-1.7,0.68-3.37,0.68-3.37c0.13-1.26,0.35-2.52,0.65-3.75
		c0.05-0.22,0.12-0.45,0.28-0.6c0.16-0.15,0.4-0.18,0.62-0.21c2.3-0.25,4.61,0.26,6.92,0.32c2.92,0.08,5.85-0.56,8.76-0.22
		c0.22,0.03,0.46,0.07,0.6,0.23c0.12,0.13,0.15,0.32,0.18,0.5c0.22,1.37,0.43,2.75,0.65,4.12c0.08,0.53,0.17,1.06,0.37,1.55
		c0.21,0.52,0.55,0.98,0.85,1.45c0.6,0.92,1.11,1.9,1.51,2.91c0.22,0.57,0.39,1.29-0.04,1.72c-0.31,0.31-0.8,0.33-1.24,0.28
		c-1.08-0.11-2.13-0.46-3.17-0.75c-0.34-0.09-0.68-0.18-1.02-0.27c-1.16-0.32-4.42-0.75-12.22-1.31"/>
</g>
<g>
	<path class="st2" d="M948.99,528.33c-0.02-1.94,8.97-3.5,9.7-3.62c1.65-0.28,2.47-0.41,3.42-0.44c4.26-0.16,8.54,1.47,11.95,4.55
		c0.4,0.36,0.79,0.74,1.07,1.23c0.65,1.12,0.65,2.58,0.62,3.94c-0.29-0.11-0.74-0.28-1.3-0.45c-4.94-1.52-7.31-0.21-11.45-1.15
		c-2.29-0.52-1.76-0.97-5.03-2.06c-3.59-1.2-6.68-1.48-8.78-1.52C949.02,528.6,949,528.43,948.99,528.33z"/>
</g>
<g>
	<path class="st1" d="M945.77,549.65c1.22-0.64-0.77-4.41,0.72-9.56c0.48-1.67,1.06-2.54,1.51-3.09c0.49-0.6,1.7-1.88,4.54-2.75
		c0.81-0.25,2.96-0.83,8.96-0.25c5.54,0.54,8.37,1.49,9.99,2.14c2.46,0.98,3.27,1.71,3.81,2.29c1.98,2.11,1.95,4.94,1.96,6.24
		c0.04,3.51-1.47,6.13-2.26,7.31c3.35-1.57,5.51-3.55,6.76-4.89c1.6-1.72,2.77-3.21,3.34-5.52c0.52-2.11,0.13-4.52-1.37-6.1
		c-0.65-0.68-1.47-1.18-2.31-1.62c-4.28-2.26-9.23-3.23-14.05-2.76c-2.02,0.2-4.09,0.64-6.06,0.14c-1.49-0.38-2.8-1.28-4.24-1.83
		c-1.32-0.51-2.75-0.71-4.16-0.82c-1.89-0.15-5.59-0.49-9.15,1.46c-0.87,0.48-5.89,3.23-6.27,8.45c-0.31,4.36,2.84,7.39,4.5,8.99
		C942.93,548.38,944.79,550.16,945.77,549.65z"/>
</g>
<path class="st3" d="M976.5,548.97c-0.4,1.5-1.36,4.89-4.5,7.49c-3.87,3.2-8.41,3.06-10.5,3c-2.1-0.06-11.3-0.34-15-7.49
	c-3.33-6.44-0.57-15.29,4.5-17.98c1.58-0.83,4.57-0.57,10.5,0c7.85,0.75,11.81,1.17,13.5,3
	C978.65,540.95,976.82,547.76,976.5,548.97z"/>
<g>
	<ellipse class="st4" cx="954.75" cy="544.48" rx="2.63" ry="3"/>
	<g>
		<g>
			<path class="st5" d="M952.79,544.29c0.58,0,0.58-0.9,0-0.9C952.21,543.39,952.21,544.29,952.79,544.29L952.79,544.29z"/>
		</g>
	</g>
</g>
<g>
	<ellipse class="st4" cx="968.25" cy="544.48" rx="2.63" ry="3"/>
	<g>
		<g>
			<path class="st5" d="M966.45,544.29c0.58,0,0.58-0.9,0-0.9C965.87,543.39,965.87,544.29,966.45,544.29L966.45,544.29z"/>
		</g>
	</g>
</g>
<path class="st6" d="M964.5,550.47c-1,1-2,2-3,3c-1-1-2-2-3-3c1-1.5,2-3,3-4.49C962.5,547.48,963.5,548.97,964.5,550.47z"/>
<ellipse class="st7" cx="951" cy="550.47" rx="3" ry="3"/>
<ellipse class="st7" cx="970.5" cy="551.22" rx="3" ry="3"/>
<path class="st8" d="M971.25,551.97c0.06,0.09-4.14,4.11-9,4.49c-4.22,0.33-7.91-2.15-10.5-4.49c0.86,0.52,1.86,1.04,3,1.5
	c2.91,1.17,5.57,1.46,7.5,1.5c1.49-0.16,3.62-0.53,6-1.5C970.19,552.68,971.22,551.93,971.25,551.97z"/>
<g>
	<path class="st9" d="M968.06,540.11c0.21-0.37,0.75-0.39,1.13-0.19s0.64,0.55,0.97,0.81c-0.73-0.09-1.44-0.29-2.1-0.6"/>
</g>
<g>
	<path class="st9" d="M953.67,539.69c-0.07-0.31,0.2-0.6,0.48-0.75c0.49-0.25,1.16-0.24,1.51,0.18c0.02,0.03,0.05,0.07,0.04,0.1
		c-0.01,0.04-0.04,0.06-0.07,0.08c-0.6,0.38-1.37,0.49-2.06,0.3"/>
</g>
<g>
	<path class="st9" d="M960.78,556.3c0.24,0.64,0.44,1.3,0.6,1.97c0.07-0.41,0.13-0.82,0.2-1.23c0.03-0.2,0.06-0.43-0.05-0.61
		s-0.44-0.2-0.5,0"/>
</g>
<g>
	<g>
		<path class="st9" d="M965.27,553.69c0.53,0.79,0.88,1.7,1,2.65c0.01,0.09,0.16,0.1,0.15,0c-0.13-0.97-0.47-1.91-1.02-2.72
			C965.35,553.54,965.22,553.61,965.27,553.69L965.27,553.69z"/>
	</g>
</g>
<g>
	<g>
		<path class="st9" d="M956.31,553.16c-0.63,0.64-0.99,1.51-0.98,2.41c0,0.1,0.15,0.1,0.15,0c0-0.86,0.34-1.69,0.94-2.3
			C956.49,553.2,956.38,553.1,956.31,553.16L956.31,553.16z"/>
	</g>
</g>
<g>
	<g>
		<path class="st9" d="M957.7,553.57c-0.03,0.29-0.13,0.57-0.29,0.82c-0.05,0.08,0.08,0.16,0.13,0.08c0.18-0.27,0.28-0.58,0.31-0.9
			c0-0.04-0.04-0.08-0.08-0.08C957.73,553.49,957.7,553.52,957.7,553.57L957.7,553.57z"/>
	</g>
</g>
<g>
	<g>
		<path class="st9" d="M968.53,552.64c0.16,0.29,0.31,0.58,0.47,0.86c0.05,0.08,0.18,0.01,0.13-0.08c-0.16-0.29-0.31-0.58-0.47-0.86
			C968.62,552.48,968.49,552.55,968.53,552.64L968.53,552.64z"/>
	</g>
</g>
<path class="st10" d="M973.5,559.46c-8,0-16,0-24,0c-1.9,3.32-3.8,6.64-5.7,9.97c1.35,0.33,2.75,0.52,4.2,0.52h24
	c1.96,0,3.84-0.33,5.61-0.91C976.24,565.84,974.87,562.65,973.5,559.46z"/>
<rect x="967.5" y="560.96" class="st11" width="3" height="5.99"/>
<rect x="952.5" y="560.96" class="st11" width="3" height="5.99"/>
<path class="st12" d="M973.5,560.31c-0.6,1.21-2,1.18-6,2.57c-5.15,1.78-5.39,2.71-7.5,2.57c-1.19-0.08-0.93-0.37-6-2.57
	c-3.16-1.37-4.06-1.61-4.5-2.57c-0.68-1.47,0.25-3.56,1.5-3.85c0.8-0.19,1.2,0.49,3,1.28c2.1,0.93,4.03,1.1,6,1.28
	c1.45,0.13,2.76,0.25,4.5,0c2.33-0.34,4.23-1.16,4.5-1.28c1.9-0.84,2.26-1.45,3-1.28C973.23,556.73,974.22,558.86,973.5,560.31z"/>
<g>
	<path class="st11" d="M966.73,567.19c1.46-0.01,2.92-0.02,4.37-0.02c0.1,0,0.2,0,0.27,0.06c0.19,0.16-0.03,0.45-0.05,0.7
		c-0.01,0.09,0.02,0.19-0.03,0.27c-0.07,0.12-0.24,0.13-0.37,0.12c-1.23-0.07-2.47-0.13-3.7-0.2c-0.18-0.01-0.38-0.02-0.52-0.14
		c-0.14-0.12-0.19-0.34-0.11-0.51c0.08-0.17,0.28-0.27,0.46-0.24"/>
	<g>
		<path class="st11" d="M966.73,567.34c0.92-0.01,1.84-0.01,2.76-0.02c0.44,0,0.89,0,1.33-0.01c0.1,0,0.27-0.03,0.36,0
			c0.17,0.06,0.12,0.14,0.09,0.25c-0.05,0.16-0.07,0.3-0.09,0.46c-0.02,0.13-0.07,0.13-0.19,0.14c-0.11,0.01-0.23-0.01-0.35-0.02
			c-0.22-0.01-0.44-0.02-0.66-0.04c-0.44-0.02-0.89-0.05-1.33-0.07s-0.89-0.05-1.33-0.07c-0.18-0.01-0.45,0.01-0.57-0.17
			c-0.16-0.23,0.07-0.45,0.3-0.43c0.19,0.02,0.19-0.28,0-0.3c-0.69-0.07-0.89,0.89-0.24,1.13c0.16,0.06,0.34,0.06,0.51,0.07
			c0.27,0.01,0.54,0.03,0.81,0.04c0.49,0.03,0.98,0.05,1.47,0.08c0.48,0.03,0.98,0.1,1.45,0.07c0.12-0.01,0.25-0.04,0.33-0.14
			c0.12-0.13,0.07-0.29,0.1-0.45c0.05-0.27,0.25-0.62-0.07-0.81c-0.15-0.09-0.34-0.07-0.51-0.07c-0.25,0-0.51,0-0.76,0
			c-1.14,0.01-2.28,0.01-3.42,0.02C966.54,567.04,966.54,567.34,966.73,567.34L966.73,567.34z"/>
	</g>
</g>
<g>
	<path class="st11" d="M951.73,567.19c1.46-0.01,2.92-0.02,4.37-0.02c0.1,0,0.2,0,0.27,0.06c0.19,0.16-0.03,0.45-0.05,0.7
		c-0.01,0.09,0.02,0.19-0.03,0.27c-0.07,0.12-0.24,0.13-0.37,0.12c-1.23-0.07-2.47-0.13-3.7-0.2c-0.18-0.01-0.38-0.02-0.52-0.14
		c-0.14-0.12-0.19-0.34-0.11-0.51c0.08-0.17,0.28-0.27,0.46-0.24"/>
	<g>
		<path class="st11" d="M951.73,567.34c0.92-0.01,1.84-0.01,2.76-0.02c0.44,0,0.89,0,1.33-0.01c0.1,0,0.27-0.03,0.36,0
			c0.17,0.06,0.12,0.14,0.09,0.25c-0.05,0.16-0.07,0.3-0.09,0.46c-0.02,0.13-0.07,0.13-0.19,0.14c-0.11,0.01-0.23-0.01-0.35-0.02
			c-0.22-0.01-0.44-0.02-0.66-0.04c-0.44-0.02-0.89-0.05-1.33-0.07s-0.89-0.05-1.33-0.07c-0.18-0.01-0.45,0.01-0.57-0.17
			c-0.16-0.23,0.07-0.45,0.3-0.43c0.19,0.02,0.19-0.28,0-0.3c-0.69-0.07-0.89,0.89-0.24,1.13c0.16,0.06,0.34,0.06,0.51,0.07
			c0.27,0.01,0.54,0.03,0.81,0.04c0.49,0.03,0.98,0.05,1.47,0.08c0.48,0.03,0.98,0.1,1.45,0.07c0.12-0.01,0.25-0.04,0.33-0.14
			c0.12-0.13,0.07-0.29,0.1-0.45c0.05-0.27,0.25-0.62-0.07-0.81c-0.15-0.09-0.34-0.07-0.51-0.07c-0.25,0-0.51,0-0.76,0
			c-1.14,0.01-2.28,0.01-3.42,0.02C951.54,567.04,951.54,567.34,951.73,567.34L951.73,567.34z"/>
	</g>
</g>
<g>
	<g>
		<path class="st13" d="M967.73,569.97c0.22-0.3,0.44-0.6,0.69-0.88c0.21-0.24,0.47-0.5,0.8-0.57c0.34-0.07,0.58,0.18,0.79,0.42
			c0.24,0.28,0.46,0.59,0.65,0.91c0.1,0.17,0.36,0.01,0.26-0.15c-0.22-0.37-0.47-0.71-0.75-1.03c-0.25-0.28-0.55-0.5-0.94-0.44
			c-0.37,0.05-0.68,0.3-0.93,0.56c-0.3,0.32-0.57,0.68-0.82,1.03C967.35,569.98,967.61,570.13,967.73,569.97L967.73,569.97z"/>
	</g>
</g>
<g>
	<g>
		<path class="st13" d="M952.65,570.13c0.29-0.35,0.57-0.7,0.87-1.05c0.21-0.25,0.49-0.56,0.84-0.58c0.38-0.03,0.63,0.32,0.8,0.62
			c0.18,0.32,0.33,0.66,0.62,0.89c0.15,0.12,0.36-0.09,0.21-0.21c-0.59-0.45-0.7-1.65-1.64-1.6c-0.39,0.02-0.7,0.28-0.95,0.56
			c-0.34,0.37-0.65,0.77-0.97,1.16C952.32,570.07,952.53,570.28,952.65,570.13L952.65,570.13z"/>
	</g>
</g>
<g>
	<path class="st1" d="M953.12,517.05c-0.14-0.19-0.07-0.45,0.01-0.66c0.9-2.36,2.86-4.17,4.92-5.64c0.38-0.27,0.78-0.54,1.24-0.65
		c0.32-0.07,0.66-0.06,0.99-0.05c3.05,0.11,6.1,0.23,9.15,0.36c-0.89,2.31-0.65,5.03,0.63,7.15c-1.18,0.17-2.39,0.13-3.58,0.09
		c-3.55-0.12-7.1-0.24-10.64-0.36c-0.98-0.03-2.04-0.1-2.76-0.76"/>
	<g>
		<path class="st1" d="M953.26,517.01c-0.26-0.7,0.62-1.88,1-2.44c0.4-0.58,0.87-1.12,1.37-1.62c0.57-0.57,1.19-1.09,1.83-1.58
			c0.56-0.42,1.16-0.96,1.86-1.12c0.73-0.17,1.57-0.03,2.31,0c0.9,0.03,1.81,0.07,2.71,0.1c1.7,0.07,3.39,0.14,5.09,0.21
			c-0.05-0.06-0.1-0.13-0.14-0.19c-0.88,2.41-0.64,5.05,0.65,7.26c0.04-0.08,0.09-0.15,0.13-0.23c-2.81,0.35-5.75,0.01-8.57-0.08
			c-1.44-0.05-2.88-0.1-4.32-0.15c-1.31-0.04-2.91,0.12-3.98-0.76c-0.15-0.12-0.36,0.09-0.21,0.21c0.83,0.68,1.83,0.77,2.86,0.81
			c1.55,0.06,3.1,0.1,4.66,0.16c1.55,0.05,3.1,0.1,4.66,0.16c1.64,0.06,3.28,0.16,4.91-0.04c0.11-0.01,0.19-0.12,0.13-0.23
			c-1.25-2.15-1.47-4.69-0.62-7.03c0.04-0.1-0.05-0.19-0.14-0.19c-2.09-0.09-4.18-0.18-6.27-0.26c-1.63-0.06-3.52-0.49-4.96,0.46
			c-1.29,0.85-2.52,1.9-3.52,3.08c-0.5,0.59-0.95,1.23-1.3,1.92c-0.25,0.49-0.62,1.08-0.41,1.64
			C953.04,517.27,953.33,517.19,953.26,517.01L953.26,517.01z"/>
	</g>
</g>
</svg>
