<?xml version="1.0" encoding="utf-8"?>
<!-- Generator: Adobe Illustrator 23.0.5, SVG Export Plug-In . SVG Version: 6.00 Build 0)  -->
<svg version="1.1" id="圖層_1" xmlns="http://www.w3.org/2000/svg" xmlns:xlink="http://www.w3.org/1999/xlink" x="0px" y="0px"
	 viewBox="0 0 1920 1080" style="enable-background:new 0 0 1920 1080;" xml:space="preserve">
<style type="text/css">
	.st0{fill:#D0ECF4;}
	.st1{fill:#0A0A0A;}
	.st2{fill:#CD3825;}
	.st3{fill:#F8C8A6;}
	.st4{fill:#F8C8A6;stroke:#F8C8A6;stroke-width:0.1;stroke-miterlimit:10;}
	.st5{fill:#85A6B9;}
	.st6{fill:#FFFFFF;}
	.st7{fill:#647F80;}
	.st8{fill:#F9A2B5;}
	.st9{fill:#D34C1A;}
	.st10{fill:#F7F6F5;}
	.st11{fill:#210505;}
	.st12{fill:#3F090B;}
</style>
<path class="st0" d="M1176,1077.44H744c-178.2,0-324-145.74-324-323.86V323.92C420,145.79,565.8,0.05,744,0.05h432
	c178.2,0,324,145.74,324,323.86v429.66C1500,931.7,1354.2,1077.44,1176,1077.44z"/>
<g>
	<g>
		<path d="M960.36,651.02c0,2.88,0,6.3,0,9.18c-0.36,5.76,1.08,10.8,3.6,15.65c1.62,5.22,4.32,9.54,8.46,12.95
			c3.78,4.14,8.1,6.84,12.96,8.46c4.86,2.52,9.9,3.78,15.66,3.6c3.6-0.54,7.38-1.08,10.8-1.44c6.84-1.8,12.6-5.4,17.82-10.62
			c2.16-2.7,4.32-5.4,6.12-8.1c3.78-6.12,5.4-13.13,5.4-20.51c0-2.88,0-6.12,0-9.18c0.36-5.76-1.08-10.8-3.6-15.65
			c-1.62-5.22-4.32-9.36-8.46-12.95c-3.78-4.14-8.1-6.84-12.96-8.46c-4.86-2.52-9.9-3.78-15.66-3.6c-3.6,0.54-7.38,1.08-10.8,1.26
			c-6.84,1.98-12.6,5.4-17.82,10.62c-2.16,2.7-4.32,5.4-6.12,8.1C962.16,636.99,960.36,643.82,960.36,651.02L960.36,651.02z"/>
	</g>
</g>
<g>
	<g>
		<path class="st1" d="M938.22,427.91c3.24,5.4,6.48,10.8,9.72,16.19c1.08,1.8,3.78,2.7,5.76,1.26c1.8-1.08,2.7-3.6,1.26-5.76
			c-3.24-5.4-6.48-10.8-9.72-16.19c-1.08-1.98-3.78-2.7-5.76-1.44C937.86,423.6,937.14,425.93,938.22,427.91L938.22,427.91z"/>
	</g>
</g>
<g>
	<g>
		<path class="st1" d="M938.94,420.9c4.14,9,8.82,17.63,14.4,25.73c1.08,1.98,3.6,2.7,5.76,1.44c1.8-1.08,2.7-3.78,1.26-5.76
			c-5.4-8.1-10.26-16.73-14.4-25.73c-0.9-1.8-3.78-2.52-5.76-1.26C938.4,416.58,938.22,418.92,938.94,420.9L938.94,420.9z"/>
	</g>
</g>
<g>
	<g>
		<path class="st1" d="M1140.18,389.05c-56.7-0.36-113.22,0.9-169.74,3.24c-5.04,0.36-5.04,8.46,0,8.1
			c56.52-2.52,113.04-3.6,169.74-3.24C1145.22,397.15,1145.22,389.05,1140.18,389.05L1140.18,389.05z"/>
	</g>
</g>
<g>
	<path class="st2" d="M758.04,147.95c-41.76,37.6-66.6,92.84-66.96,148.98c0,23.57,3.78,48.4-6.84,69.45
		c-7.38,14.39-20.52,25.37-25.2,40.84c-4.32,14.57-0.36,30.23,5.22,44.62c5.4,14.57,12.24,28.61,19.62,42.1
		c4.32,7.38,9.18,14.93,16.74,18.35c11.34,5.4,24.84,0.9,36.36-3.78c21.24-8.46,43.02-17.09,60.84-31.31
		c21.6-17.27,36.18-41.56,48.06-66.39c18.9-39.76,32.4-83.13,30.24-126.85c-2.16-44.08-22.14-88.34-58.32-113.17
		c-25.2-17.09-61.74-22.49-84.6-2.52"/>
</g>
<path class="st3" d="M825,1058.55c-60.84,23.75-115.56,26.45-135,0c-3.78-5.22-8.1-14.39,0-84.02c7.74-65.85,11.88-98.78,27-112.09
	c35.28-30.77,99.36-3.78,108,0V1058.55z"/>
<path class="st3" d="M1122,1058.55c60.84,23.75,115.56,26.45,135,0c3.78-5.22,8.1-14.39,0-84.02c-7.74-65.85-11.88-98.78-27-112.09
	c-35.28-30.77-99.36-3.78-108,0V1058.55z"/>
<g>
	<path class="st3" d="M1045.86,623.49c-0.36,12.59-0.36,25.37-0.54,38.14c0,3.78,0,7.56,1.08,10.98c1.26,4.14,4.32,7.02,7.02,10.26
		c14.04,18.35,11.88,50.56-1.26,69.99c-13.14,19.43-34.38,27.53-54.54,28.43c-25.92,1.08-52.74-9.36-72.18-31.67
		c-19.44-22.13-30.6-56.5-26.46-89.06c0.36-2.52,0.9-5.22,2.52-6.84c4.32-4.32,11.34,3.6,16.02-0.54c2.16-1.98,2.7-5.22,2.88-8.46
		c2.88-23.21,5.94-46.78,9.18-69.99C957.84,615.21,1003.74,634.29,1045.86,623.49"/>
</g>
<path class="st4" d="M1107.42,632.67c-73.26,28.97-143.1,4.14-154.62,0c-92.88-32.93-154.26-132.78-154.62-251
	c49.86-27.89,111.78-57.58,185.76-83.67c81-28.61,154.98-45.7,216.54-55.96c0,46.42,0,92.84,0,139.26c0,55.96,0,83.67,0,83.67
	c1.62,62.61,5.4,67.47,0,83.67C1182.84,602.98,1117.32,628.89,1107.42,632.67z"/>
<g>
	<path class="st3" d="M833.64,433.49c-5.76-6.84-11.52-13.49-19.26-18.35s-16.74-7.56-25.38-5.22c-8.46,2.52-14.94,9.54-18.18,17.27
		c-3.24,8.1-3.78,16.73-3.6,25.37c1.08,18.71,7.02,37.24,18.54,52.18c11.7,14.93,28.98,25.37,47.52,27.35
		c4.68,0.54,9.72,0.36,13.86-1.98c5.22-2.88,8.1-9,9-14.57c0.9-5.94-0.54-11.87-1.98-17.63c-5.76-24.83-14.04-48.94-24.48-72.15"/>
	<g>
		<path class="st3" d="M836.7,430.61c-8.1-9.18-16.56-18.89-28.08-23.21c-10.26-3.78-21.6-2.88-30.24,4.14
			c-19.26,15.11-16.38,45.34-10.26,66.21c6.84,22.67,22.14,43,44.1,52.9c9.18,4.14,20.88,7.56,31.14,5.76
			c10.98-1.8,17.1-11.87,17.64-22.67c0.36-7.02-1.62-14.03-3.24-21.05c-1.98-8.1-4.32-16.55-6.84-24.65
			c-4.86-15.11-10.62-29.69-17.1-44.08c-2.16-4.86-9.18-0.54-7.02,4.14c9.18,19.97,16.38,40.84,21.78,62.07
			c2.52,9.9,7.56,23.57,1.08,32.93c-5.94,8.64-19.62,5.22-28.08,2.16c-18-6.3-32.4-20.51-40.5-37.6
			c-8.28-17.27-14.04-44.08-4.32-61.89c5.4-10.26,15.66-15.47,27-12.23c11.52,3.24,19.98,13.13,27.54,22.13
			C834.18,440.33,839.76,434.57,836.7,430.61L836.7,430.61z"/>
	</g>
</g>
<g>
	<g>
		<path class="st2" d="M1132.26,151.19c-5.94-12.95-13.86-25.73-25.56-33.83c-10.08-6.84-22.5-9.72-34.38-12.41
			c-47.34-10.8-95.4-20.87-144-21.05s-98.28,9.72-139.14,36.17c-18.9,12.41-35.64,28.61-48.6,47.32
			c8.28,17.27,12.6,36.17,10.98,55.96c-0.36,4.32-0.9,8.82-1.44,13.13c1.98,16.73,1.62,33.83-1.62,50.02
			c-1.62,8.1-3.24,16.19-5.22,24.11c-1.08,4.32-2.7,8.1-3.96,12.23c-3.78,24.83-8.46,49.48-13.14,73.95
			c-0.36,1.26-0.9,2.7-1.08,4.14c5.94,0.54,12.42-2.7,18-0.9c7.38,2.16,10.08,11.7,7.56,18.89c-2.52,7.02-8.64,12.41-14.4,17.27
			l-60.12,50.56c-10.44,9-21.6,18.35-25.92,31.31c-4.14,12.23-1.62,25.37,1.44,37.78c7.38,30.59,18.36,61.89,41.76,82.95
			c19.44,17.27,48.6,29.69,52.38,55.6c2.52,16.19-6.84,31.85-16.56,45.16c21.6,13.85,50.58,3.78,71.64-10.62
			c21.06-14.39,40.14-33.47,64.98-39.4c12.42-2.88,25.56-2.52,36.72-8.28c12.24-6.3,19.98-19.43,22.86-32.75
			c2.88-13.49,1.62-27.53-0.36-41.02c-0.36-2.7-0.9-5.76-2.16-8.1c-2.88-6.12-9.9-9-16.2-11.87c-24.48-11.7-43.74-34.37-51.3-60.27
			c-17.82,2.88-36.9,5.76-53.1-2.16c-15.12-7.38-25.02-23.03-28.62-39.4c-3.6-16.55-2.16-33.47,0.9-50.2
			c1.08-5.94,2.52-12.41,6.48-16.73c9.72-10.26,27.9-3.06,35.64,8.82c7.74,11.7,10.08,26.45,17.28,38.68s24.3,20.87,35.28,12.23
			c1.62-1.44,3.24-3.24,3.6-5.4c0.54-3.6-1.62-6.84-3.6-9.72c-17.1-24.83-23.22-56.68-17.1-85.82c25.02,4.32,51.48,1.44,75.06-9.18
			c11.34-5.04,22.14-11.87,34.38-14.03c11.52-2.16,23.4,0.36,35.46,0.36c48.6,0.36,88.74-36.17,123.66-70.53
			c9.36-9.18,19.26-18.89,23.76-31.31c3.24-8.64,3.78-18.17,3.78-27.53C1148.64,199.23,1142.88,174.04,1132.26,151.19z"/>
	</g>
	<g>
		<path class="st2" d="M1111.74,167.92c33.12,13.49,63.18,34.37,91.62,56.14c11.34,8.64,22.68,17.81,31.68,28.97
			c17.28,21.95,23.94,51.1,20.34,78.63c-3.78,27.53-17.82,53.26-37.62,72.87c-5.04,5.22-10.8,9.9-14.58,16.19
			c-3.78,6.12-5.94,14.03-3.24,20.87c1.62,4.14,4.86,7.38,7.74,10.26c15.3,16.19,28.8,34.55,39.96,53.98
			c5.94,10.8,11.52,21.95,13.86,34.01c4.5,23.21-2.7,47.5-16.02,66.93c-13.14,19.43-32.04,34.55-52.02,46.96
			c-11.88,7.56-24.48,14.39-38.34,17.81c-13.14,3.24-26.64,3.6-40.14,3.6c-18.18,0-35.82-0.54-54-1.8
			c-7.38-0.54-14.58-1.44-20.88-4.86c-6.3-3.42-10.8-10.8-9.36-17.81c2.7-11.87,18.36-13.85,30.6-14.93
			c28.08-3.06,54.36-16.01,76.68-32.93c16.56-12.41,31.86-27.35,40.14-45.88c17.1-37.06,4.32-79.89,1.44-120.37
			c-2.52-33.47,1.98-67.29-0.9-100.94c-2.7-33.47-13.5-68.55-39.96-89.6c-5.94-4.68-12.42-8.64-17.64-14.03
			c-6.48-6.84-10.26-16.01-12.42-25.19c-3.24-13.85-2.88-28.07,0.54-41.56"/>
	</g>
</g>
<g>
	<g>
		<path class="st3" d="M783.24,441.41c0-1.44,0-2.7,0.36-4.14c0-0.54,0-1.26,0.36-1.8c0,0.54,0-0.36,0-0.54
			c0-0.54,0.36-1.08,0.36-1.44c0.36-1.26,0.54-2.52,1.08-3.78c0-0.36,0.36-0.54,0.36-0.9c0.54-1.44-0.36,0.36,0.36-0.36
			c0.36-0.9,0.54-1.44,1.08-2.16c0.36-0.54,0.9-1.08,1.08-1.8c-0.36,0.54,0.54-0.54,0.54-0.54c0.54-0.54,0.9-0.9,1.44-1.44
			c0.54-0.54,0.36-0.36,0,0c0.36-0.36,0.54-0.54,0.9-0.54c0.54-0.36,1.08-0.54,1.62-0.9c0.9-0.36,0.36,0,0,0
			c0.36-0.36,0.9-0.36,1.08-0.36c0.54-0.36,1.08-0.36,1.44-0.36c0,0,1.08-0.36,0.54,0c-0.54,0,0.9,0,0.9,0c0.54,0,1.08,0,1.44,0
			c1.08,0-0.9-0.36,0.36,0c0.36,0,0.54,0,0.9,0.36c0.36,0,0.54,0.36,0.9,0.36c1.08,0.36-0.54-0.36,0.36,0.36
			c0.36,0,0.54,0.36,0.54,0.36c0.9,0.54-0.36-0.54,0.36,0.36c0.36,0.36,0.54,0.54,0.54,0.54c0.54,0.54-0.36-0.9,0.36,0.36
			c0,0.36,0.36,0.54,0.36,0.54c-0.36-0.54,0-0.36,0,0s0.36,1.44,0,0.36c0,0.36,0,0.54,0,0.9c0-1.08,0,0,0,0c0.36-0.54,0.36-0.54,0,0
			c0.36-0.36,0.36-0.36,0,0c0,0-0.9,0.9-0.36,0.36c-0.36,0.36-0.54,0.36-0.9,0.54c-0.36,0.18-0.54,0.36-0.9,0.54
			c0,0-0.9,0.54-0.36,0.36c-1.44,0.54-3.06,1.08-4.68,1.62c-1.26,0.36-2.7,0.9-4.14,1.08c0.9-0.36,0.36,0,0,0s-0.54,0-0.9,0
			s-0.54,0-0.54,0c0.9,0,0.36,0-0.36,0h-0.36c-0.36,0-0.36,0,0,0c0.36,0.36,0.36,0,0,0c0.54,0.36,0.54,0.54,0.36,0.36
			c-0.36-0.54,0.54,0.9,0,0c0.36,0.54,0.36,0.9,0.36,1.26c-0.36,0.9,0,0.36,0,0c-0.36,0.36-0.36,0.54,0,0
			c-0.36,0.36-0.36,0.36-0.36,0c0.36,0,0.54-0.36,0.9-0.54c0.9-0.54-0.54,0,0.36-0.36c3.6-1.08,7.02-2.16,10.26-3.24
			c2.16-0.54,3.6-2.7,2.7-4.86c-0.54-2.16-2.88-3.6-4.86-2.7c-4.14,1.08-8.1,2.16-12.24,3.78c-3.78,1.62-6.48,5.94-4.32,10.08
			c1.62,3.24,5.76,4.14,9,3.78c4.14-0.54,8.1-1.98,11.88-3.6c3.78-1.62,6.84-5.22,6.48-9.54c-0.54-4.14-2.88-7.56-6.84-9.36
			c-6.84-3.24-14.76-1.08-20.34,4.14c-6.12,5.94-7.74,15.47-8.1,23.75c0,2.16,1.8,4.14,4.14,4.14
			C781.26,445.37,783.24,443.57,783.24,441.41L783.24,441.41z"/>
	</g>
</g>
<ellipse class="st2" cx="1095" cy="228.92" rx="108" ry="121.27"/>
<path class="st5" d="M1203,215.42c-7.74-6.3-129.78-101.48-243-53.98c-55.8,23.57-86.76,73.77-108,107.77
	c-39.96,64.23-50.76,126.31-54,161.75c-4.14,1.44-14.58,4.14-27,0c-19.26-6.48-26.1-24.29-27-26.99
	c2.16-31.31,14.76-181.36,135-269.35c22.32-16.55,82.26-60.45,162-53.98c66.24,5.4,151.2,46.42,162,107.77
	C1204.8,199.41,1204.08,208.95,1203,215.42z"/>
<g>
	<path class="st6" d="M906,673.51c-14.76-11.34-54-0.36-131.76,21.95c-4.86,1.44-14.4,4.32-24.12,11.87
		c-9.36,7.38-15.3,17.81-21.24,28.43c-12.96,23.21-26.1,46.42-39.24,69.63c-6.84,11.87-13.5,24.11-14.4,37.6
		c-1.08,17.63,7.74,34.37,20.52,46.42c12.6,11.87,28.8,19.79,45.18,26.27c19.62,8.1,40.14,14.93,60.84,20.33
		c-7.74,45.88-15.66,91.76-23.58,137.64c128.88,5.94,257.58,7.74,386.46,5.4c3.78,0,7.74-0.36,10.8-2.7
		c2.88-2.7,3.6-7.02,3.78-10.98c2.52-39.76-1.98-79.89-12.06-118.21c-0.9-2.7-1.62-5.94,0-8.46c1.26-2.7,4.5-3.6,7.56-4.32
		c35.64-9.72,68.04-30.77,91.8-59.19c4.32-5.22,8.46-10.8,10.08-17.27c3.42-14.57-8.1-26.27-18.9-42.64
		c-14.04-21.59-5.94-18.35-27.36-60.45c-19.44-38.14-29.7-47.86-40.5-53.98c-9.36-5.22-17.64-7.02-23.22-7.74
		c-38.34-6.48-76.86-12.95-115.38-19.43c4.14,4.68,15.12,18.89,12.96,35.98c-2.7,19.97-29.52,36.7-52.02,41.92
		c-28.08,6.12-59.94-2.88-79.2-23.21C911.4,704.46,924.18,687.18,906,673.51z"/>
</g>
<g>
	<g>
		<path class="st5" d="M825,681.79c10.8-3.6,21.78-7.02,32.76-10.26c1.26-0.54,2.88-0.9,4.32-0.36c2.16,0.9,3.24,3.6,4.14,5.94
			c18.72,55.6,30.6,114.43,35.28,173.81c0,0.9,0,1.8-0.36,2.7c-0.54,0.9-1.26,1.26-2.16,1.62c-12.24,4.68-24.3,9.18-36.72,13.31
			c-1.44,0.54-2.88,1.08-4.32,0.36c-1.08-0.54-1.98-1.62-2.7-2.7c-6.48-11.34-4.5-26.27-3.78-39.94c1.8-30.23-3.24-60.45-8.46-90.5
			c-3.24-19.25-6.84-39.22-17.28-54.52"/>
	</g>
	<g>
		<path class="st5" d="M1059.18,678.91c14.04-1.44,28.62-2.52,41.76,2.52c14.76,5.4,26.64,18.35,34.38,33.29
			c7.56,14.57,11.7,31.31,14.58,47.86c5.94,32.21,9.18,65.13,9.18,98.06c-13.14,0.54-26.1,1.44-39.42,1.98c-1.08,0-2.16,0-3.06-0.54
			c-1.08-0.9-1.26-2.52-1.62-4.14c-2.7-32.21-6.12-64.59-14.76-95.54c-8.64-31.13-22.68-60.81-44.1-83.67"/>
	</g>
	<g>
		<path class="st5" d="M900.24,853.26c89.46-1.08,179.1-1.98,268.38-2.88c7.56,74.49,11.34,149.34,10.98,224.37
			c-40.5,5.22-81.36,4.86-122.04,4.68c-92.88-0.54-185.76-1.08-278.64-1.62c-2.16-5.94,0.36-12.41,2.7-18.17
			c9.9-22.67,21.06-45.16,33.84-66.39c32.76-80.25,44.64-113.17,44.64-119.11c0-0.9-0.36-5.4,2.7-9.18c1.26-1.98,3.6-3.24,5.76-4.32
			c9.72-4.86,35.82-8.1,37.44-8.46"/>
	</g>
</g>
<ellipse class="st7" cx="1000.5" cy="767.61" rx="13.5" ry="13.49"/>
<ellipse class="st7" cx="1000.5" cy="821.59" rx="13.5" ry="13.49"/>
<g>
	<g>
		<path class="st3" d="M1043.88,678.01c6.84,9,11.34,19.43,13.14,30.59c0.36,2.16,2.88,3.24,4.86,2.7c2.16-0.54,3.24-2.7,2.7-4.86
			c-1.98-11.7-6.84-23.03-14.04-32.39c-1.44-1.62-3.6-2.7-5.76-1.26C1043.7,673.51,1042.62,676.21,1043.88,678.01L1043.88,678.01z"
			/>
	</g>
</g>
<g>
	<g>
		<path class="st8" d="M976.2,555.48c2.16,6.84,7.56,11.34,13.14,15.11c7.02,4.5,14.58,8.1,22.5,10.26
			c16.02,4.68,33.12,4.14,48.06-2.88c2.52-1.08,0.36-4.68-2.16-3.6c-13.5,6.48-29.52,6.84-43.74,2.88
			c-6.84-1.98-13.14-4.68-19.44-8.1c-5.94-3.6-12.6-7.74-14.76-14.93C979.26,552.06,975.3,553.14,976.2,555.48L976.2,555.48z"/>
	</g>
</g>
<g>
	<g>
		<path class="st3" d="M785.58,442.49c-0.36-0.9-0.54-1.62-0.54-2.52c0-0.54,0,0,0,0c0-0.36,0-0.36,0-0.54c0-0.54,0-0.9,0-1.26
			c0-0.9,0-1.62,0-2.52c0-0.36,0-0.36,0-0.54c0,0,0,0.54,0,0c0-0.54,0.36-1.08,0.36-1.62c0.36-0.9,0.36-1.62,0.54-2.16
			c0.18-0.54,0.36-0.9,0.54-1.26c0,0,0.36-0.54,0-0.36c-0.36,0.18,0.36-0.36,0.36-0.36c0.9-1.62,1.62-3.06,2.7-4.32
			c0.36-0.36,0,0,0,0c0-0.36,0.36-0.36,0.36-0.54c0.36-0.36,0.54-0.9,0.9-1.08c0.54-0.54,1.08-1.08,1.8-1.62
			c0.36,0,1.08-0.9,0.54-0.54c0.36-0.36,0.54-0.54,0.9-0.54c0.9-0.54,1.62-1.08,2.52-1.44c0.36-0.36,0.9-0.36,1.08-0.54
			c-0.54,0.36,0.36,0,0.54-0.36c0.9-0.36,1.62-0.54,2.7-0.9c0.9-0.36-0.36,0,0.54,0c0,0,0.54,0,0.36,0s0,0,0.36,0
			c-0.9-0.54-0.9-0.54-1.08-1.62c0-1.08,0-0.36,0,0c0.36-0.36,0,0-0.36,0.36c-1.44,1.62-3.6,3.6-5.4,4.86
			c-2.16,1.98-4.32,3.78-6.12,5.76c2.52,1.08,4.68,1.98,7.02,2.88c0-2.7,0.36-5.76,0.36-8.46c0-1.8-1.26-3.6-2.88-3.78
			c-1.62-0.54-3.78,0.36-4.5,1.98c-1.08,2.7-2.52,5.4-3.6,8.1c-0.9,1.98-0.54,4.32,1.44,5.76c1.62,1.08,4.5,0.54,5.76-1.26
			c1.08-2.7,2.52-5.4,3.6-8.46c-2.52-0.9-5.22-1.44-7.56-2.16c0,2.7-0.36,5.76-0.36,8.46c0,3.78,4.32,5.22,7.02,2.88
			c2.52-2.16,4.5-4.14,7.02-6.12c2.16-1.98,4.5-3.78,6.12-6.12c1.8-3.24,1.62-7.38-1.62-9.54c-2.52-1.62-5.4-1.26-8.1-0.9
			c-9.18,2.52-16.2,10.08-19.26,18.71c-1.62,4.86-1.98,10.62-0.36,15.47c0.54,2.16,2.88,3.6,4.86,2.7
			C784.86,446.81,786.12,444.29,785.58,442.49L785.58,442.49z"/>
	</g>
</g>
<g>
	<g>
		<path class="st3" d="M802.14,423.6c0.36-0.54,0.54-1.08,1.08-1.62c-0.36,0.54,0.36-0.36,0.36-0.36c0.36-0.36,0.54-0.54,0.54-0.9
			c0.36-0.36,0.54-0.54,0.9-0.54c0.36-0.36-0.36,0.36,0.36-0.36c0.36-0.36,0.54-0.36,0.9-0.54c0.36-0.18,0.54-0.36,0,0h0.36
			c0.36,0,0.54,0,0,0c-0.36,0-0.36,0,0,0s0.36,0-0.36,0c0.9,0.36-0.54-0.36,0,0c0.36,0.36-0.36-0.36-0.36-0.36s0,0.36,0.36,0.36
			c0-0.36-0.36-0.36,0,0c0,0,0.36,1.08,0,0.36c0,0.9,0,1.62,0,2.16c0.36,7.38,0.36,14.57,0.54,21.95c0,2.16,1.8,4.14,3.96,4.14
			s4.14-1.8,4.14-4.14c0-4.68-0.36-9.18-0.36-13.49c0-2.16,0-4.68-0.36-6.84c0-2.16,0-4.32-0.54-6.12
			c-1.44-4.32-5.76-6.84-10.08-5.22c-3.42,1.44-6.48,4.32-8.28,7.56c-1.08,1.8-0.54,4.32,1.26,5.76
			C798.36,425.93,800.88,425.39,802.14,423.6L802.14,423.6z"/>
	</g>
</g>
<g>
	<g>
		<path class="st3" d="M806.1,420.36c5.4,7.56,8.46,16.19,9,25.19c0,2.16,1.98,4.14,4.14,4.14s4.14-1.8,4.14-4.14
			c-0.54-10.62-3.78-20.87-9.9-29.15c-1.26-1.8-3.6-2.7-5.76-1.26C805.74,415.68,804.84,418.38,806.1,420.36L806.1,420.36z"/>
	</g>
</g>
<g>
	<g>
		<path class="st3" d="M799.26,514.28c21.06,13.85,45.36,21.95,70.56,23.75c3.96,0.36,5.4-5.76,2.16-7.56
			c-11.34-5.94-23.76-10.62-36.18-13.49c-6.48-1.62-12.96-2.52-19.62-3.24c-4.68-0.54-11.34,0-10.98,6.48
			c0,5.76,7.38,8.64,11.7,10.8c5.76,2.7,11.52,5.22,17.46,7.02c12.42,3.78,25.38,5.22,37.98,4.32c5.22-0.36,5.22-8.46,0-8.1
			c-9.9,0.54-20.34,0-29.88-2.52c-4.86-1.08-9.9-2.7-14.58-4.68c-2.52-0.9-4.5-1.98-6.84-2.88c-1.8-0.9-4.5-3.24-6.48-3.6
			c-0.54-0.9-1.08-0.9-1.26,0.36c-0.9,0.9-0.9,1.08,0,0.9c0.54,0.36,2.7,0.36,3.24,0.36c2.52,0.36,5.04,0.54,7.56,1.08
			c4.86,0.9,9.9,1.98,14.94,3.24c10.26,2.7,19.98,6.48,29.52,11.34c0.9-2.52,1.26-5.04,2.16-7.56c-23.76-1.98-46.44-9.9-66.42-22.67
			C799.08,504.2,795.12,511.22,799.26,514.28L799.26,514.28z"/>
	</g>
</g>
<g>
	<g>
		<path class="st3" d="M807.36,419.82c10.8,4.14,14.58,19.97,17.1,29.69c3.24,13.49,3.78,27.53,1.8,41.02
			c-0.54,3.24,1.62,5.76,4.86,4.86c7.38-1.44,9.72-9.18,10.62-16.01c0.9-8.46,0.54-16.73-0.54-24.83
			c-2.16-16.01-8.46-31.13-21.96-40.84c-3.24-2.52-7.74,2.52-5.76,5.76c17.64,24.29,29.16,52.36,33.84,82.05
			c0.36,2.16,2.88,3.6,4.86,2.7c8.46-2.7,9.18-11.87,7.38-19.43c-2.7-11.34-9.18-23.03-14.58-33.29
			c-5.76-10.62-11.7-20.87-19.26-30.05c-6.48-8.1-14.58-14.39-25.02-15.47c-5.04-0.54-5.04,7.56,0,8.1
			c8.1,0.9,14.58,7.02,19.44,13.31c5.94,7.38,10.8,15.65,15.48,24.11c4.86,8.64,9.18,17.27,12.6,26.45
			c1.26,3.24,7.74,16.73,1.62,18.71c1.62,0.9,3.24,1.8,4.86,2.7c-4.86-30.23-16.74-59.19-34.56-84.02
			c-1.98,1.98-3.78,3.78-5.76,5.76c10.62,7.56,15.3,19.97,17.64,32.39c1.08,6.48,1.44,12.95,1.08,19.43
			c0,4.32,0.54,13.85-4.86,14.93c1.62,1.62,3.24,3.24,4.86,4.86c2.52-16.19,1.62-32.75-2.7-48.58
			c-3.42-12.41-8.64-27.53-21.78-32.21C804.48,410.1,802.68,417.84,807.36,419.82L807.36,419.82z"/>
	</g>
</g>
<g>
	<path class="st9" d="M1095.9,392.47c18.18-4.32,38.34,3.6,48.6,18.89c-17.28,0.36-34.56,0.36-51.84,0.36c-0.9,0-1.98,0-2.7-0.54
		c-2.16-1.08-2.16-4.14-1.8-6.12c0.9-4.32,2.7-8.46,5.76-11.7"/>
</g>
<g>
	<path class="st9" d="M974.58,392.47c-18-4.32-38.34,3.6-48.6,18.89c17.28,0.36,34.56,0.36,51.84,0.36c0.9,0,1.8,0,2.7-0.54
		c2.16-1.08,2.16-4.14,1.98-6.12c-0.9-4.32-2.7-8.46-5.76-11.7"/>
</g>
<g>
	<path class="st10" d="M921.3,488.37c1.08-9.72,6.84-18.17,12.24-26.27c4.32-6.12,8.82-12.95,16.2-15.47
		c2.88-1.08,6.12-1.08,9.36-1.08c7.38,0,14.76,0,21.78,1.8c7.02,1.98,13.86,5.76,18.18,11.87c5.4,7.74,5.22,18.35,3.6,27.89
		c-0.9,5.04-2.52,10.26-5.94,14.03c-5.4,5.4-13.86,6.12-21.24,5.76c-14.76-0.9-29.52-4.14-43.02-9.72
		c-5.4-2.16-11.34-5.4-12.6-10.98"/>
</g>
<g>
	<path class="st11" d="M948.12,454.36c-2.16,6.84-4.32,13.49-3.96,20.51c0.36,7.02,3.42,14.39,9.72,17.81
		c3.24,1.62,6.84,2.16,10.26,2.7c5.94,0.9,13.14,1.62,17.28-2.88c2.7-2.7,3.6-6.84,4.14-10.62c1.26-8.64,1.62-18.35-3.24-25.73
		c-3.78-5.94-10.44-9.9-17.46-10.26s-14.4,2.88-18.72,8.64"/>
</g>
<g>
	<g>
		<path class="st3" d="M970.8,462.46c2.7,0,2.7-4.14,0-4.14C968.28,458.32,968.28,462.46,970.8,462.46L970.8,462.46z"/>
	</g>
</g>
<g>
	<g>
		<path class="st12" d="M924.18,487.83c1.08-8.1,4.5-15.65,9.18-22.49c4.32-6.12,9.36-12.59,16.2-16.55
			c7.02-4.14,16.02-4.14,23.76-2.7c8.28,1.44,16.2,4.32,23.4,9.18c4.32,2.88,8.46-4.14,4.14-7.02c-15.12-9.72-38.7-15.65-55.26-6.12
			c-7.74,4.32-14.04,11.87-19.26,19.43c-5.4,8.1-9.18,16.73-10.26,26.45C915.18,492.87,923.28,492.87,924.18,487.83L924.18,487.83z"
			/>
	</g>
</g>
<g>
	<path class="st10" d="M1164.12,488.37c-1.08-9.72-6.84-18.17-12.06-26.27c-4.32-6.12-9-12.95-16.2-15.47
		c-2.88-1.08-6.12-1.08-9.36-1.08c-7.38,0-14.94,0-21.96,1.8c-7.02,1.98-13.86,5.76-18,11.87c-5.4,7.74-5.04,18.35-3.6,27.89
		c0.9,5.04,2.52,10.26,5.94,14.03c5.4,5.4,13.86,6.12,21.24,5.76c14.94-0.9,29.52-4.14,43.02-9.72c5.4-2.16,11.34-5.4,12.6-10.98"/>
</g>
<g>
	<path class="st11" d="M1137.12,454.36c2.16,6.84,4.32,13.49,4.14,20.51c-0.36,7.02-3.6,14.39-9.72,17.81
		c-3.24,1.62-6.84,2.16-10.26,2.7c-5.94,0.9-13.14,1.62-17.28-2.88c-2.7-2.7-3.42-6.84-3.96-10.62c-1.44-8.64-1.62-18.35,3.24-25.73
		c3.78-5.94,10.62-9.9,17.64-10.26s14.4,2.88,18.54,8.64"/>
</g>
<g>
	<g>
		<path class="st3" d="M1114.44,462.46c2.7,0,2.7-4.14,0-4.14S1111.74,462.46,1114.44,462.46L1114.44,462.46z"/>
	</g>
</g>
<g>
	<g>
		<path class="st12" d="M1169.52,487.83c-1.08-9.72-4.86-18.35-10.26-26.45c-5.04-7.38-11.34-14.93-19.26-19.43
			c-16.74-9.54-40.14-3.6-55.44,6.12c-4.32,2.7-0.36,9.72,4.14,7.02c7.02-4.68,14.58-7.56,22.68-9c8.1-1.26,17.28-1.26,24.48,2.7
			c6.48,3.78,11.7,10.08,16.02,16.01c4.86,6.84,8.64,14.57,9.72,23.03C1161.96,492.87,1170.06,492.87,1169.52,487.83L1169.52,487.83
			z"/>
	</g>
</g>
</svg>
