<?xml version="1.0" encoding="utf-8"?>
<!-- Generator: Adobe Illustrator 23.0.5, SVG Export Plug-In . SVG Version: 6.00 Build 0)  -->
<svg version="1.1" id="圖層_1" xmlns="http://www.w3.org/2000/svg" xmlns:xlink="http://www.w3.org/1999/xlink" x="0px" y="0px"
	 viewBox="0 0 1920 1080" style="enable-background:new 0 0 1920 1080;" xml:space="preserve">
<style type="text/css">
	.st0{fill:#D0ECF4;}
	.st1{fill:#0A0A0A;}
	.st2{fill:#CD3825;}
	.st3{fill:#F8C8A6;}
	.st4{fill:#F8C8A6;stroke:#F8C8A6;stroke-width:0.1;stroke-miterlimit:10;}
	.st5{fill:#85A6B9;}
	.st6{fill:#FFFFFF;}
	.st7{fill:#647F80;}
	.st8{fill:#F9A2B5;}
	.st9{fill:#D34C1A;}
	.st10{fill:#F7F6F5;}
	.st11{fill:#210505;}
	.st12{fill:#3F090B;}
</style>
<path class="st0" d="M972,569.92h-24c-9.9,0-18-8.1-18-18v-23.88c0-9.9,8.1-18,18-18h24c9.9,0,18,8.1,18,18v23.88
	C990,561.82,981.9,569.92,972,569.92z"/>
<g>
	<g>
		<path d="M960.02,546.22c0,0.16,0,0.35,0,0.51c-0.02,0.32,0.06,0.6,0.2,0.87c0.09,0.29,0.24,0.53,0.47,0.72
			c0.21,0.23,0.45,0.38,0.72,0.47c0.27,0.14,0.55,0.21,0.87,0.2c0.2-0.03,0.41-0.06,0.6-0.08c0.38-0.1,0.7-0.3,0.99-0.59
			c0.12-0.15,0.24-0.3,0.34-0.45c0.21-0.34,0.3-0.73,0.3-1.14c0-0.16,0-0.34,0-0.51c0.02-0.32-0.06-0.6-0.2-0.87
			c-0.09-0.29-0.24-0.52-0.47-0.72c-0.21-0.23-0.45-0.38-0.72-0.47c-0.27-0.14-0.55-0.21-0.87-0.2c-0.2,0.03-0.41,0.06-0.6,0.07
			c-0.38,0.11-0.7,0.3-0.99,0.59c-0.12,0.15-0.24,0.3-0.34,0.45C960.12,545.44,960.02,545.82,960.02,546.22L960.02,546.22z"/>
	</g>
</g>
<g>
	<g>
		<path class="st1" d="M958.79,533.82c0.18,0.3,0.36,0.6,0.54,0.9c0.06,0.1,0.21,0.15,0.32,0.07c0.1-0.06,0.15-0.2,0.07-0.32
			c-0.18-0.3-0.36-0.6-0.54-0.9c-0.06-0.11-0.21-0.15-0.32-0.08C958.77,533.58,958.73,533.71,958.79,533.82L958.79,533.82z"/>
	</g>
</g>
<g>
	<g>
		<path class="st1" d="M958.83,533.43c0.23,0.5,0.49,0.98,0.8,1.43c0.06,0.11,0.2,0.15,0.32,0.08c0.1-0.06,0.15-0.21,0.07-0.32
			c-0.3-0.45-0.57-0.93-0.8-1.43c-0.05-0.1-0.21-0.14-0.32-0.07C958.8,533.19,958.79,533.32,958.83,533.43L958.83,533.43z"/>
	</g>
</g>
<g>
	<g>
		<path class="st1" d="M970.01,531.66c-3.15-0.02-6.29,0.05-9.43,0.18c-0.28,0.02-0.28,0.47,0,0.45c3.14-0.14,6.28-0.2,9.43-0.18
			C970.29,532.11,970.29,531.66,970.01,531.66L970.01,531.66z"/>
	</g>
</g>
<g>
	<path class="st2" d="M948.78,518.26c-2.32,2.09-3.7,5.16-3.72,8.28c0,1.31,0.21,2.69-0.38,3.86c-0.41,0.8-1.14,1.41-1.4,2.27
		c-0.24,0.81-0.02,1.68,0.29,2.48c0.3,0.81,0.68,1.59,1.09,2.34c0.24,0.41,0.51,0.83,0.93,1.02c0.63,0.3,1.38,0.05,2.02-0.21
		c1.18-0.47,2.39-0.95,3.38-1.74c1.2-0.96,2.01-2.31,2.67-3.69c1.05-2.21,1.8-4.62,1.68-7.05c-0.12-2.45-1.23-4.91-3.24-6.29
		c-1.4-0.95-3.43-1.25-4.7-0.14"/>
</g>
<path class="st3" d="M952.5,568.87c-3.38,1.32-6.42,1.47-7.5,0c-0.21-0.29-0.45-0.8,0-4.67c0.43-3.66,0.66-5.49,1.5-6.23
	c1.96-1.71,5.52-0.21,6,0V568.87z"/>
<path class="st3" d="M969,568.87c3.38,1.32,6.42,1.47,7.5,0c0.21-0.29,0.45-0.8,0-4.67c-0.43-3.66-0.66-5.49-1.5-6.23
	c-1.96-1.71-5.52-0.21-6,0V568.87z"/>
<g>
	<path class="st3" d="M964.77,544.69c-0.02,0.7-0.02,1.41-0.03,2.12c0,0.21,0,0.42,0.06,0.61c0.07,0.23,0.24,0.39,0.39,0.57
		c0.78,1.02,0.66,2.81-0.07,3.89c-0.73,1.08-1.91,1.53-3.03,1.58c-1.44,0.06-2.93-0.52-4.01-1.76c-1.08-1.23-1.7-3.14-1.47-4.95
		c0.02-0.14,0.05-0.29,0.14-0.38c0.24-0.24,0.63,0.2,0.89-0.03c0.12-0.11,0.15-0.29,0.16-0.47c0.16-1.29,0.33-2.6,0.51-3.89
		C959.88,544.23,962.43,545.29,964.77,544.69"/>
</g>
<path class="st4" d="M968.19,545.2c-4.07,1.61-7.95,0.23-8.59,0c-5.16-1.83-8.57-7.38-8.59-13.95c2.77-1.55,6.21-3.2,10.32-4.65
	c4.5-1.59,8.61-2.54,12.03-3.11c0,2.58,0,5.16,0,7.74c0,3.11,0,4.65,0,4.65c0.09,3.48,0.3,3.75,0,4.65
	C972.38,543.55,968.74,544.99,968.19,545.2z"/>
<g>
	<path class="st3" d="M952.98,534.13c-0.32-0.38-0.64-0.75-1.07-1.02s-0.93-0.42-1.41-0.29c-0.47,0.14-0.83,0.53-1.01,0.96
		c-0.18,0.45-0.21,0.93-0.2,1.41c0.06,1.04,0.39,2.07,1.03,2.9c0.65,0.83,1.61,1.41,2.64,1.52c0.26,0.03,0.54,0.02,0.77-0.11
		c0.29-0.16,0.45-0.5,0.5-0.81c0.05-0.33-0.03-0.66-0.11-0.98c-0.32-1.38-0.78-2.72-1.36-4.01"/>
	<g>
		<path class="st3" d="M953.15,533.97c-0.45-0.51-0.92-1.05-1.56-1.29c-0.57-0.21-1.2-0.16-1.68,0.23
			c-1.07,0.84-0.91,2.52-0.57,3.68c0.38,1.26,1.23,2.39,2.45,2.94c0.51,0.23,1.16,0.42,1.73,0.32c0.61-0.1,0.95-0.66,0.98-1.26
			c0.02-0.39-0.09-0.78-0.18-1.17c-0.11-0.45-0.24-0.92-0.38-1.37c-0.27-0.84-0.59-1.65-0.95-2.45c-0.12-0.27-0.51-0.03-0.39,0.23
			c0.51,1.11,0.91,2.27,1.21,3.45c0.14,0.55,0.42,1.31,0.06,1.83c-0.33,0.48-1.09,0.29-1.56,0.12c-1-0.35-1.8-1.14-2.25-2.09
			c-0.46-0.96-0.78-2.45-0.24-3.44c0.3-0.57,0.87-0.86,1.5-0.68c0.64,0.18,1.11,0.73,1.53,1.23
			C953.01,534.51,953.32,534.19,953.15,533.97L953.15,533.97z"/>
	</g>
</g>
<g>
	<g>
		<path class="st2" d="M969.57,518.44c-0.33-0.72-0.77-1.43-1.42-1.88c-0.56-0.38-1.25-0.54-1.91-0.69c-2.63-0.6-5.3-1.16-8-1.17
			s-5.46,0.54-7.73,2.01c-1.05,0.69-1.98,1.59-2.7,2.63c0.46,0.96,0.7,2.01,0.61,3.11c-0.02,0.24-0.05,0.49-0.08,0.73
			c0.11,0.93,0.09,1.88-0.09,2.78c-0.09,0.45-0.18,0.9-0.29,1.34c-0.06,0.24-0.15,0.45-0.22,0.68c-0.21,1.38-0.47,2.75-0.73,4.11
			c-0.02,0.07-0.05,0.15-0.06,0.23c0.33,0.03,0.69-0.15,1-0.05c0.41,0.12,0.56,0.65,0.42,1.05c-0.14,0.39-0.48,0.69-0.8,0.96
			l-3.34,2.81c-0.58,0.5-1.2,1.02-1.44,1.74c-0.23,0.68-0.09,1.41,0.08,2.1c0.41,1.7,1.02,3.44,2.32,4.61
			c1.08,0.96,2.7,1.65,2.91,3.09c0.14,0.9-0.38,1.77-0.92,2.51c1.2,0.77,2.81,0.21,3.98-0.59c1.17-0.8,2.23-1.86,3.61-2.19
			c0.69-0.16,1.42-0.14,2.04-0.46c0.68-0.35,1.11-1.08,1.27-1.82c0.16-0.75,0.09-1.53-0.02-2.28c-0.02-0.15-0.05-0.32-0.12-0.45
			c-0.16-0.34-0.55-0.5-0.9-0.66c-1.36-0.65-2.43-1.91-2.85-3.35c-0.99,0.16-2.05,0.32-2.95-0.12c-0.84-0.41-1.39-1.28-1.59-2.19
			c-0.2-0.92-0.12-1.86,0.05-2.79c0.06-0.33,0.14-0.69,0.36-0.93c0.54-0.57,1.55-0.17,1.98,0.49c0.43,0.65,0.56,1.47,0.96,2.15
			s1.35,1.16,1.96,0.68c0.09-0.08,0.18-0.18,0.2-0.3c0.03-0.2-0.09-0.38-0.2-0.54c-0.95-1.38-1.29-3.15-0.95-4.77
			c1.39,0.24,2.86,0.08,4.17-0.51c0.63-0.28,1.23-0.66,1.91-0.78c0.64-0.12,1.3,0.02,1.97,0.02c2.7,0.02,4.93-2.01,6.87-3.92
			c0.52-0.51,1.07-1.05,1.32-1.74c0.18-0.48,0.21-1.01,0.21-1.53C970.48,521.11,970.16,519.71,969.57,518.44z"/>
	</g>
	<g>
		<path class="st2" d="M968.43,519.37c1.84,0.75,3.51,1.91,5.09,3.12c0.63,0.48,1.26,0.99,1.76,1.61c0.96,1.22,1.33,2.84,1.13,4.37
			c-0.21,1.53-0.99,2.96-2.09,4.05c-0.28,0.29-0.6,0.55-0.81,0.9c-0.21,0.34-0.33,0.78-0.18,1.16c0.09,0.23,0.27,0.41,0.43,0.57
			c0.85,0.9,1.6,1.92,2.22,3c0.33,0.6,0.64,1.22,0.77,1.89c0.25,1.29-0.15,2.64-0.89,3.72c-0.73,1.08-1.78,1.92-2.89,2.61
			c-0.66,0.42-1.36,0.8-2.13,0.99c-0.73,0.18-1.48,0.2-2.23,0.2c-1.01,0-1.99-0.03-3-0.1c-0.41-0.03-0.81-0.08-1.16-0.27
			s-0.6-0.6-0.52-0.99c0.15-0.66,1.02-0.77,1.7-0.83c1.56-0.17,3.02-0.89,4.26-1.83c0.92-0.69,1.77-1.52,2.23-2.55
			c0.95-2.06,0.24-4.44,0.08-6.69c-0.14-1.86,0.11-3.74-0.05-5.61c-0.15-1.86-0.75-3.81-2.22-4.98c-0.33-0.26-0.69-0.48-0.98-0.78
			c-0.36-0.38-0.57-0.89-0.69-1.4c-0.18-0.77-0.16-1.56,0.03-2.31"/>
	</g>
</g>
<g>
	<g>
		<path class="st3" d="M950.18,534.57c0-0.08,0-0.15,0.02-0.23c0-0.03,0-0.07,0.02-0.1c0,0.03,0-0.02,0-0.03
			c0-0.03,0.02-0.06,0.02-0.08c0.02-0.07,0.03-0.14,0.06-0.21c0-0.02,0.02-0.03,0.02-0.05c0.03-0.08-0.02,0.02,0.02-0.02
			c0.02-0.05,0.03-0.08,0.06-0.12c0.02-0.03,0.05-0.06,0.06-0.1c-0.02,0.03,0.03-0.03,0.03-0.03c0.03-0.03,0.05-0.05,0.08-0.08
			c0.03-0.03,0.02-0.02,0,0c0.02-0.02,0.03-0.03,0.05-0.03c0.03-0.02,0.06-0.03,0.09-0.05c0.05-0.02,0.02,0,0,0
			c0.02-0.02,0.05-0.02,0.06-0.02c0.03-0.02,0.06-0.02,0.08-0.02c0,0,0.06-0.02,0.03,0c-0.03,0,0.05,0,0.05,0c0.03,0,0.06,0,0.08,0
			c0.06,0-0.05-0.02,0.02,0c0.02,0,0.03,0,0.05,0.02c0.02,0,0.03,0.02,0.05,0.02c0.06,0.02-0.03-0.02,0.02,0.02
			c0.02,0,0.03,0.02,0.03,0.02c0.05,0.03-0.02-0.03,0.02,0.02c0.02,0.02,0.03,0.03,0.03,0.03c0.03,0.03-0.02-0.05,0.02,0.02
			c0,0.02,0.02,0.03,0.02,0.03c-0.02-0.03,0-0.02,0,0s0.02,0.08,0,0.02c0,0.02,0,0.03,0,0.05c0-0.06,0,0,0,0
			c0.02-0.03,0.02-0.03,0,0c0.02-0.02,0.02-0.02,0,0c0,0-0.05,0.05-0.02,0.02c-0.02,0.02-0.03,0.02-0.05,0.03s-0.03,0.02-0.05,0.03
			c0,0-0.05,0.03-0.02,0.02c-0.08,0.03-0.17,0.06-0.26,0.09c-0.07,0.02-0.15,0.05-0.23,0.06c0.05-0.02,0.02,0,0,0s-0.03,0-0.05,0
			s-0.03,0-0.03,0c0.05,0,0.02,0-0.02,0h-0.02c-0.02,0-0.02,0,0,0c0.02,0.02,0.02,0,0,0c0.03,0.02,0.03,0.03,0.02,0.02
			c-0.02-0.03,0.03,0.05,0,0c0.02,0.03,0.02,0.05,0.02,0.07c-0.02,0.05,0,0.02,0,0c-0.02,0.02-0.02,0.03,0,0
			c-0.02,0.02-0.02,0.02-0.02,0c0.02,0,0.03-0.02,0.05-0.03c0.05-0.03-0.03,0,0.02-0.02c0.2-0.06,0.39-0.12,0.57-0.18
			c0.12-0.03,0.2-0.15,0.15-0.27c-0.03-0.12-0.16-0.2-0.27-0.15c-0.23,0.06-0.45,0.12-0.68,0.21c-0.21,0.09-0.36,0.33-0.24,0.56
			c0.09,0.18,0.32,0.23,0.5,0.21c0.23-0.03,0.45-0.11,0.66-0.2c0.21-0.09,0.38-0.29,0.36-0.53c-0.03-0.23-0.16-0.42-0.38-0.52
			c-0.38-0.18-0.82-0.06-1.13,0.23c-0.34,0.33-0.43,0.86-0.45,1.32c0,0.12,0.1,0.23,0.23,0.23
			C950.07,534.79,950.18,534.69,950.18,534.57L950.18,534.57z"/>
	</g>
</g>
<ellipse class="st2" cx="967.5" cy="522.76" rx="6" ry="6.74"/>
<path class="st5" d="M973.5,522.01c-0.43-0.35-7.21-5.64-13.5-3c-3.1,1.31-4.82,4.1-6,5.99c-2.22,3.57-2.82,7.02-3,8.99
	c-0.23,0.08-0.81,0.23-1.5,0c-1.07-0.36-1.45-1.35-1.5-1.5c0.12-1.74,0.82-10.08,7.5-14.97c1.24-0.92,4.57-3.36,9-3
	c3.68,0.3,8.4,2.58,9,5.99C973.6,521.12,973.56,521.65,973.5,522.01z"/>
<g>
	<path class="st6" d="M957,547.47c-0.82-0.63-3-0.02-7.32,1.22c-0.27,0.08-0.8,0.24-1.34,0.66c-0.52,0.41-0.85,0.99-1.18,1.58
		c-0.72,1.29-1.45,2.58-2.18,3.87c-0.38,0.66-0.75,1.34-0.8,2.09c-0.06,0.98,0.43,1.91,1.14,2.58c0.7,0.66,1.6,1.1,2.51,1.46
		c1.09,0.45,2.23,0.83,3.38,1.13c-0.43,2.55-0.87,5.1-1.31,7.65c7.16,0.33,14.31,0.43,21.47,0.3c0.21,0,0.43-0.02,0.6-0.15
		c0.16-0.15,0.2-0.39,0.21-0.61c0.14-2.21-0.11-4.44-0.67-6.57c-0.05-0.15-0.09-0.33,0-0.47c0.07-0.15,0.25-0.2,0.42-0.24
		c1.98-0.54,3.78-1.71,5.1-3.29c0.24-0.29,0.47-0.6,0.56-0.96c0.19-0.81-0.45-1.46-1.05-2.37c-0.78-1.2-0.33-1.02-1.52-3.36
		c-1.08-2.12-1.65-2.66-2.25-3c-0.52-0.29-0.98-0.39-1.29-0.43c-2.13-0.36-4.27-0.72-6.41-1.08c0.23,0.26,0.84,1.05,0.72,2
		c-0.15,1.11-1.64,2.04-2.89,2.33c-1.56,0.34-3.33-0.16-4.4-1.29C957.3,549.19,958.01,548.23,957,547.47z"/>
</g>
<g>
	<g>
		<path class="st5" d="M952.5,547.93c0.6-0.2,1.21-0.39,1.82-0.57c0.07-0.03,0.16-0.05,0.24-0.02c0.12,0.05,0.18,0.2,0.23,0.33
			c1.04,3.09,1.7,6.36,1.96,9.66c0,0.05,0,0.1-0.02,0.15c-0.03,0.05-0.07,0.07-0.12,0.09c-0.68,0.26-1.35,0.51-2.04,0.74
			c-0.08,0.03-0.16,0.06-0.24,0.02c-0.06-0.03-0.11-0.09-0.15-0.15c-0.36-0.63-0.25-1.46-0.21-2.22c0.1-1.68-0.18-3.36-0.47-5.03
			c-0.18-1.07-0.38-2.18-0.96-3.03"/>
	</g>
	<g>
		<path class="st5" d="M965.51,547.77c0.78-0.08,1.59-0.14,2.32,0.14c0.82,0.3,1.48,1.02,1.91,1.85c0.42,0.81,0.65,1.74,0.81,2.66
			c0.33,1.79,0.51,3.62,0.51,5.45c-0.73,0.03-1.45,0.08-2.19,0.11c-0.06,0-0.12,0-0.17-0.03c-0.06-0.05-0.07-0.14-0.09-0.23
			c-0.15-1.79-0.34-3.59-0.82-5.31c-0.48-1.73-1.26-3.38-2.45-4.65"/>
	</g>
	<g>
		<path class="st5" d="M956.68,557.46c4.97-0.06,9.95-0.11,14.91-0.16c0.42,4.14,0.63,8.3,0.61,12.47
			c-2.25,0.29-4.52,0.27-6.78,0.26c-5.16-0.03-10.32-0.06-15.48-0.09c-0.12-0.33,0.02-0.69,0.15-1.01c0.55-1.26,1.17-2.51,1.88-3.69
			c1.82-4.46,2.48-6.29,2.48-6.62c0-0.05-0.02-0.3,0.15-0.51c0.07-0.11,0.2-0.18,0.32-0.24c0.54-0.27,1.99-0.45,2.08-0.47"/>
	</g>
</g>
<circle class="st7" cx="962.25" cy="552.7" r="0.75"/>
<circle class="st7" cx="962.25" cy="555.7" r="0.75"/>
<g>
	<g>
		<path class="st3" d="M964.66,547.72c0.38,0.5,0.63,1.08,0.73,1.7c0.02,0.12,0.16,0.18,0.27,0.15c0.12-0.03,0.18-0.15,0.15-0.27
			c-0.11-0.65-0.38-1.28-0.78-1.8c-0.08-0.09-0.2-0.15-0.32-0.07C964.65,547.47,964.59,547.62,964.66,547.72L964.66,547.72z"/>
	</g>
</g>
<g>
	<g>
		<path class="st8" d="M960.9,540.91c0.12,0.38,0.42,0.63,0.73,0.84c0.39,0.25,0.81,0.45,1.25,0.57c0.89,0.26,1.84,0.23,2.67-0.16
			c0.14-0.06,0.02-0.26-0.12-0.2c-0.75,0.36-1.64,0.38-2.43,0.16c-0.38-0.11-0.73-0.26-1.08-0.45c-0.33-0.2-0.7-0.43-0.82-0.83
			C961.07,540.72,960.85,540.78,960.9,540.91L960.9,540.91z"/>
	</g>
</g>
<g>
	<g>
		<path class="st3" d="M950.31,534.63c-0.02-0.05-0.03-0.09-0.03-0.14c0-0.03,0,0,0,0c0-0.02,0-0.02,0-0.03c0-0.03,0-0.05,0-0.07
			c0-0.05,0-0.09,0-0.14c0-0.02,0-0.02,0-0.03c0,0,0,0.03,0,0s0.02-0.06,0.02-0.09c0.02-0.05,0.02-0.09,0.03-0.12
			s0.02-0.05,0.03-0.07c0,0,0.02-0.03,0-0.02s0.02-0.02,0.02-0.02c0.05-0.09,0.09-0.17,0.15-0.24c0.02-0.02,0,0,0,0
			c0-0.02,0.02-0.02,0.02-0.03c0.02-0.02,0.03-0.05,0.05-0.06c0.03-0.03,0.06-0.06,0.1-0.09c0.02,0,0.06-0.05,0.03-0.03
			c0.02-0.02,0.03-0.03,0.05-0.03c0.05-0.03,0.09-0.06,0.14-0.08c0.02-0.02,0.05-0.02,0.06-0.03c-0.03,0.02,0.02,0,0.03-0.02
			c0.05-0.02,0.09-0.03,0.15-0.05c0.05-0.02-0.02,0,0.03,0c0,0,0.03,0,0.02,0s0,0,0.02,0c-0.05-0.03-0.05-0.03-0.06-0.09
			c0-0.06,0-0.02,0,0c0.02-0.02,0,0-0.02,0.02c-0.08,0.09-0.2,0.2-0.3,0.27c-0.12,0.11-0.24,0.21-0.34,0.32
			c0.14,0.06,0.26,0.11,0.39,0.16c0-0.15,0.02-0.32,0.02-0.47c0-0.1-0.07-0.2-0.16-0.21c-0.09-0.03-0.21,0.02-0.25,0.11
			c-0.06,0.15-0.14,0.3-0.2,0.45c-0.05,0.11-0.03,0.24,0.08,0.32c0.09,0.06,0.25,0.03,0.32-0.07c0.06-0.15,0.14-0.3,0.2-0.47
			c-0.14-0.05-0.29-0.08-0.42-0.12c0,0.15-0.02,0.32-0.02,0.47c0,0.21,0.24,0.29,0.39,0.16c0.14-0.12,0.25-0.23,0.39-0.34
			c0.12-0.11,0.25-0.21,0.34-0.34c0.1-0.18,0.09-0.41-0.09-0.53c-0.14-0.09-0.3-0.07-0.45-0.05c-0.51,0.14-0.9,0.56-1.07,1.04
			c-0.09,0.27-0.11,0.59-0.02,0.86c0.03,0.12,0.16,0.2,0.27,0.15C950.27,534.87,950.34,534.73,950.31,534.63L950.31,534.63z"/>
	</g>
</g>
<g>
	<g>
		<path class="st3" d="M951.23,533.58c0.02-0.03,0.03-0.06,0.06-0.09c-0.02,0.03,0.02-0.02,0.02-0.02c0.02-0.02,0.03-0.03,0.03-0.05
			c0.02-0.02,0.03-0.03,0.05-0.03c0.02-0.02-0.02,0.02,0.02-0.02c0.02-0.02,0.03-0.02,0.05-0.03s0.03-0.02,0,0h0.02
			c0.02,0,0.03,0,0,0c-0.02,0-0.02,0,0,0s0.02,0-0.02,0c0.05,0.02-0.03-0.02,0,0c0.02,0.02-0.02-0.02-0.02-0.02s0,0.02,0.02,0.02
			c0-0.02-0.02-0.02,0,0c0,0,0.02,0.06,0,0.02c0,0.05,0,0.09,0,0.12c0.02,0.41,0.02,0.81,0.03,1.22c0,0.12,0.1,0.23,0.22,0.23
			c0.12,0,0.23-0.1,0.23-0.23c0-0.26-0.02-0.51-0.02-0.75c0-0.12,0-0.26-0.02-0.38c0-0.12,0-0.24-0.03-0.34
			c-0.08-0.24-0.32-0.38-0.56-0.29c-0.19,0.08-0.36,0.24-0.46,0.42c-0.06,0.1-0.03,0.24,0.07,0.32
			C951.02,533.71,951.16,533.68,951.23,533.58L951.23,533.58z"/>
	</g>
</g>
<g>
	<g>
		<path class="st3" d="M951.45,533.4c0.3,0.42,0.47,0.9,0.5,1.4c0,0.12,0.11,0.23,0.23,0.23s0.23-0.1,0.23-0.23
			c-0.03-0.59-0.21-1.16-0.55-1.62c-0.07-0.1-0.2-0.15-0.32-0.07C951.43,533.14,951.38,533.29,951.45,533.4L951.45,533.4z"/>
	</g>
</g>
<g>
	<g>
		<path class="st3" d="M951.07,538.62c1.17,0.77,2.52,1.22,3.92,1.32c0.22,0.02,0.3-0.32,0.12-0.42c-0.63-0.33-1.32-0.59-2.01-0.75
			c-0.36-0.09-0.72-0.14-1.09-0.18c-0.26-0.03-0.63,0-0.61,0.36c0,0.32,0.41,0.48,0.65,0.6c0.32,0.15,0.64,0.29,0.97,0.39
			c0.69,0.21,1.41,0.29,2.11,0.24c0.29-0.02,0.29-0.47,0-0.45c-0.55,0.03-1.13,0-1.66-0.14c-0.27-0.06-0.55-0.15-0.81-0.26
			c-0.14-0.05-0.25-0.11-0.38-0.16c-0.1-0.05-0.25-0.18-0.36-0.2c-0.03-0.05-0.06-0.05-0.07,0.02c-0.05,0.05-0.05,0.06,0,0.05
			c0.03,0.02,0.15,0.02,0.18,0.02c0.14,0.02,0.28,0.03,0.42,0.06c0.27,0.05,0.55,0.11,0.83,0.18c0.57,0.15,1.11,0.36,1.64,0.63
			c0.05-0.14,0.07-0.28,0.12-0.42c-1.32-0.11-2.58-0.55-3.69-1.26C951.06,538.06,950.84,538.45,951.07,538.62L951.07,538.62z"/>
	</g>
</g>
<g>
	<g>
		<path class="st3" d="M951.52,533.37c0.6,0.23,0.81,1.11,0.95,1.65c0.18,0.75,0.21,1.53,0.1,2.28c-0.03,0.18,0.09,0.32,0.27,0.27
			c0.41-0.08,0.54-0.51,0.59-0.89c0.05-0.47,0.03-0.93-0.03-1.38c-0.12-0.89-0.47-1.73-1.22-2.27c-0.18-0.14-0.43,0.14-0.32,0.32
			c0.98,1.35,1.62,2.91,1.88,4.56c0.02,0.12,0.16,0.2,0.27,0.15c0.47-0.15,0.51-0.66,0.41-1.08c-0.15-0.63-0.51-1.28-0.81-1.85
			c-0.32-0.59-0.65-1.16-1.07-1.67c-0.36-0.45-0.81-0.8-1.39-0.86c-0.28-0.03-0.28,0.42,0,0.45c0.45,0.05,0.81,0.39,1.08,0.74
			c0.33,0.41,0.6,0.87,0.86,1.34c0.27,0.48,0.51,0.96,0.7,1.47c0.07,0.18,0.43,0.93,0.09,1.04c0.09,0.05,0.18,0.1,0.27,0.15
			c-0.27-1.68-0.93-3.29-1.92-4.67c-0.11,0.11-0.21,0.21-0.32,0.32c0.59,0.42,0.85,1.11,0.98,1.8c0.06,0.36,0.08,0.72,0.06,1.08
			c0,0.24,0.03,0.77-0.27,0.83c0.09,0.09,0.18,0.18,0.27,0.27c0.14-0.9,0.09-1.82-0.15-2.7c-0.19-0.69-0.48-1.53-1.21-1.79
			C951.36,532.83,951.26,533.26,951.52,533.37L951.52,533.37z"/>
	</g>
</g>
<g>
	<path class="st9" d="M967.55,531.85c1.01-0.24,2.13,0.2,2.7,1.05c-0.96,0.02-1.92,0.02-2.88,0.02c-0.05,0-0.11,0-0.15-0.03
		c-0.12-0.06-0.12-0.23-0.1-0.34c0.05-0.24,0.15-0.47,0.32-0.65"/>
</g>
<g>
	<path class="st9" d="M960.81,531.85c-1-0.24-2.13,0.2-2.7,1.05c0.96,0.02,1.92,0.02,2.88,0.02c0.05,0,0.1,0,0.15-0.03
		c0.12-0.06,0.12-0.23,0.11-0.34c-0.05-0.24-0.15-0.47-0.32-0.65"/>
</g>
<g>
	<path class="st10" d="M957.85,537.18c0.06-0.54,0.38-1.01,0.68-1.46c0.24-0.34,0.49-0.72,0.9-0.86c0.16-0.06,0.34-0.06,0.52-0.06
		c0.41,0,0.82,0,1.21,0.1c0.39,0.11,0.77,0.32,1.01,0.66c0.3,0.43,0.29,1.02,0.2,1.55c-0.05,0.28-0.14,0.57-0.33,0.78
		c-0.3,0.3-0.77,0.34-1.18,0.32c-0.82-0.05-1.64-0.23-2.39-0.54c-0.3-0.12-0.63-0.3-0.7-0.61"/>
</g>
<g>
	<path class="st11" d="M959.34,535.29c-0.12,0.38-0.24,0.75-0.22,1.14c0.02,0.39,0.19,0.8,0.54,0.99c0.18,0.09,0.38,0.12,0.57,0.15
		c0.33,0.05,0.73,0.09,0.96-0.16c0.15-0.15,0.2-0.38,0.23-0.59c0.07-0.48,0.09-1.02-0.18-1.43c-0.21-0.33-0.58-0.55-0.97-0.57
		s-0.8,0.16-1.04,0.48"/>
</g>
<g>
	<g>
		<path class="st3" d="M960.6,535.74c0.15,0,0.15-0.23,0-0.23C960.46,535.51,960.46,535.74,960.6,535.74L960.6,535.74z"/>
	</g>
</g>
<g>
	<g>
		<path class="st12" d="M958.01,537.15c0.06-0.45,0.25-0.87,0.51-1.25c0.24-0.34,0.52-0.7,0.9-0.92c0.39-0.23,0.89-0.23,1.32-0.15
			c0.46,0.08,0.9,0.24,1.3,0.51c0.24,0.16,0.47-0.23,0.23-0.39c-0.84-0.54-2.15-0.87-3.07-0.34c-0.43,0.24-0.78,0.66-1.07,1.08
			c-0.3,0.45-0.51,0.93-0.57,1.47C957.51,537.43,957.96,537.43,958.01,537.15L958.01,537.15z"/>
	</g>
</g>
<g>
	<path class="st10" d="M971.34,537.18c-0.06-0.54-0.38-1.01-0.67-1.46c-0.24-0.34-0.5-0.72-0.9-0.86c-0.16-0.06-0.34-0.06-0.52-0.06
		c-0.41,0-0.83,0-1.22,0.1c-0.39,0.11-0.77,0.32-1,0.66c-0.3,0.43-0.28,1.02-0.2,1.55c0.05,0.28,0.14,0.57,0.33,0.78
		c0.3,0.3,0.77,0.34,1.18,0.32c0.83-0.05,1.64-0.23,2.39-0.54c0.3-0.12,0.63-0.3,0.7-0.61"/>
</g>
<g>
	<path class="st11" d="M969.84,535.29c0.12,0.38,0.24,0.75,0.23,1.14c-0.02,0.39-0.2,0.8-0.54,0.99c-0.18,0.09-0.38,0.12-0.57,0.15
		c-0.33,0.05-0.73,0.09-0.96-0.16c-0.15-0.15-0.19-0.38-0.22-0.59c-0.08-0.48-0.09-1.02,0.18-1.43c0.21-0.33,0.59-0.55,0.98-0.57
		s0.8,0.16,1.03,0.48"/>
</g>
<g>
	<g>
		<path class="st3" d="M968.58,535.74c0.15,0,0.15-0.23,0-0.23C968.43,535.51,968.43,535.74,968.58,535.74L968.58,535.74z"/>
	</g>
</g>
<g>
	<g>
		<path class="st12" d="M971.64,537.15c-0.06-0.54-0.27-1.02-0.57-1.47c-0.28-0.41-0.63-0.83-1.07-1.08
			c-0.93-0.53-2.23-0.2-3.08,0.34c-0.24,0.15-0.02,0.54,0.23,0.39c0.39-0.26,0.81-0.42,1.26-0.5c0.45-0.07,0.96-0.07,1.36,0.15
			c0.36,0.21,0.65,0.56,0.89,0.89c0.27,0.38,0.48,0.81,0.54,1.28C971.22,537.43,971.67,537.43,971.64,537.15L971.64,537.15z"/>
	</g>
</g>
</svg>
