<?xml version="1.0" encoding="utf-8"?>
<!-- Generator: Adobe Illustrator 23.0.5, SVG Export Plug-In . SVG Version: 6.00 Build 0)  -->
<svg version="1.1" xmlns="http://www.w3.org/2000/svg" xmlns:xlink="http://www.w3.org/1999/xlink" x="0px" y="0px"
	 viewBox="0 0 1920 1080" style="enable-background:new 0 0 1920 1080;" xml:space="preserve">
<style type="text/css">
	.st0{fill:#FCAC3B;stroke:#000000;stroke-miterlimit:10;}
	.st1{fill:#717777;stroke:#000000;stroke-miterlimit:10;}
	.st2{fill:#C2C4C3;stroke:#000000;stroke-miterlimit:10;}
</style>
<g id="圖層_1">
</g>
<g id="圖層_2">
	<g>
		<path class="st0" d="M1306.72,1044.15L675.2,94.86c19.15-27.62,38.3-55.24,57.46-82.86l527.65,735.93
			c48.31,59.17,96.63,118.35,144.94,177.52c7.52,9.21,10.47,22.45,7.76,34.91c-4.22,19.38-13.73,47.1-35.44,69.86
			c-12.46,13.06-25.5,20.89-36.57,25.64C1328.66,1061.15,1314.88,1056.43,1306.72,1044.15z"/>
		<path class="st1" d="M856.95,139.8c-33.71,39.74-88.17,114.15-125.46,226.12c-38.6,115.87-40.88,218.12-38.69,275.27
			c-36.29-17.55-117.48-63.73-181.75-168.53C459.7,388.93,442.51,305.85,436,260.59c31.49,2.8,117.47,5.44,206.37-57.58
			c78.58-55.71,117.47-132.94,132.5-167.13c13.26,8.22,32.96,22.89,51.59,47.75C841.97,104.31,851.35,124.85,856.95,139.8z"/>
		<path class="st2" d="M694.21,555.06c-39.5-30.79-86.79-78.3-127.6-150.03C537.4,353.7,518.7,302.6,506.58,258.35
			c-31.38,4.71-56.46,3.5-70.58,2.24c6.51,45.26,23.7,128.34,75.04,212.07c64.27,104.81,145.45,150.98,181.75,168.53
			C691.93,618.79,691.78,589.43,694.21,555.06z"/>
	</g>
</g>
</svg>
