<?xml version="1.0" encoding="utf-8"?>
<!-- Generator: Adobe Illustrator 23.0.5, SVG Export Plug-In . SVG Version: 6.00 Build 0)  -->
<svg version="1.1" xmlns="http://www.w3.org/2000/svg" xmlns:xlink="http://www.w3.org/1999/xlink" x="0px" y="0px"
	 viewBox="0 0 1920 1080" style="enable-background:new 0 0 1920 1080;" xml:space="preserve">
<style type="text/css">
	.st0{fill:#F8C548;stroke:#000000;stroke-miterlimit:10;}
	.st1{fill:#1F1F1F;}
	.st2{fill:#D39C20;stroke:#000000;stroke-miterlimit:10;}
</style>
<g id="圖層_1">
</g>
<g id="圖層_2">
	<g>
		<path d="M1056.54,84.93c-2.78-4.49-30.5-47.62-83.5-51.34c-39.18-2.75-77.13,17.09-98.58,51.34c-2.71,24.11-5.41,48.23-8.12,72.34
			c66.11-1.17,132.21-2.33,198.32-3.5C1061.95,130.83,1059.25,107.88,1056.54,84.93z M1014.79,121.04h-98.58V69.7h98.58V121.04z"/>
		<path class="st0" d="M1185.35,1024.32c-154.22-2.8-308.44-5.6-462.67-8.4c-50.79-0.92-91.44-42.74-91.2-93.85
			c0.72-157.68,5.18-294.45,10.45-406.05c7.56-160.16,15.37-237.44,75.38-299.88c79.52-82.74,198.39-85.39,241.23-86.35
			c40.31-0.9,174.48-3.89,259.78,85.18c51.88,54.17,66.69,122.33,69.58,345.39c1.32,101.4,0.11,228.4-8.16,375.87
			C1276.94,986.33,1235.22,1025.22,1185.35,1024.32z"/>
		<path d="M829.23,1033.51c-3.1,20.42-21.1,35-40.59,33.84c-17.9-1.06-33.18-15.16-35.95-33.84c0-33.84,0-67.68,0-101.52h76.54
			V1033.51z"/>
		<path d="M1174.26,1034.1c-3.1,20.42-21.1,35-40.59,33.84c-17.9-1.06-33.18-15.16-35.95-33.84c0-33.84,0-67.68,0-101.52h76.54
			V1034.1z"/>
		<path class="st1" d="M635.08,932.33c-10.02-2.46-23.4-7.38-35.05-18.21c-18.94-17.6-24.69-42.76-22.51-125.04
			c3.73-141.18,23.19-163.13,38.07-173.26c10.43-7.1,21.01-10.01,28.46-11.35C641.07,713.76,638.08,823.04,635.08,932.33z"/>
		<path class="st1" d="M1277.59,932c10.13-1.92,23.75-6.14,35.95-16.34c19.83-16.58,26.88-41.4,28.99-123.69
			c3.63-141.18-14.66-164.13-28.99-175.03c-10.05-7.64-20.46-11.1-27.83-12.84C1283,713.41,1280.29,822.7,1277.59,932z"/>
		<path class="st2" d="M1142.69,887.66H777.88c-23.52,0-42.58-19.07-42.58-42.58V649.03c0-23.52,19.07-42.58,42.58-42.58h364.82
			c23.52,0,42.58,19.07,42.58,42.58v196.04C1185.27,868.59,1166.21,887.66,1142.69,887.66z"/>
		<rect x="937.09" y="396.42" class="st1" width="59.15" height="122.52"/>
		<path class="st2" d="M761.39,179.22c0.37,140.33,92.65,253.95,206.44,253.95s206.07-113.62,206.44-253.95
			c-44.95-22.09-122.73-52.05-221.42-48.77C869.63,133.21,803.42,158.53,761.39,179.22z"/>
	</g>
</g>
</svg>
