<?xml version="1.0" encoding="utf-8"?>
<!-- Generator: Adobe Illustrator 23.0.5, SVG Export Plug-In . SVG Version: 6.00 Build 0)  -->
<svg version="1.1" xmlns="http://www.w3.org/2000/svg" xmlns:xlink="http://www.w3.org/1999/xlink" x="0px" y="0px"
	 viewBox="0 0 1920 1080" style="enable-background:new 0 0 1920 1080;" xml:space="preserve">
<style type="text/css">
	.st0{fill:#6C3A3D;}
	.st1{fill:#F26348;}
	.st2{fill:#F48D22;}
</style>
<g id="圖層_1">
</g>
<g id="圖層_2">
	<g>
		<path class="st0" d="M1066.35,491.69c-54.28-2.18-108.55-4.36-162.83-6.54c-12.61-27.47-25.22-54.95-37.83-82.42
			c23.45-7.32,60.46-16.27,106.91-17.01c55.13-0.87,98.44,10.22,123.36,18.32C1086.09,433.26,1076.22,462.47,1066.35,491.69z"/>
		<g>
			<g>
				<path class="st1" d="M1172.1,203.14c-17.16,1-34.1,4.2-49.99,9.44c-10.37-38.28-20.89-76.91-41.42-112.49
					c-20.53-35.59-52.19-68.38-95.71-86.69c-0.35,44.29-11.28,88.5-32.03,129.6c-17.24-14.16-37.43-26.05-59.5-35.02
					c-7.4-3.01-17.01-5.52-23.41-1.32c-3.21,2.11-4.68,5.42-5.84,8.6c-9.05,24.89-7.43,52.34-22.32,75.39
					c-7.02,10.88-17.36,20.14-26.03,30.25c-27.43,31.98-37.42,73.09-26.94,110.89c8.6,31.04,30.9,59.48,61.72,79.65
					c29.05-6.54,70.13-13.3,119.95-13.93c67.4-0.86,120.57,9.86,151.77,17.92c3.03-2.97,5.9-6.04,8.62-9.18
					C1180.9,348.46,1181.95,272.8,1172.1,203.14z"/>
			</g>
			<g>
				<path class="st2" d="M1094.62,290.88c-10.44,0.54-20.76,2.29-30.43,5.15c-6.31-20.88-12.72-41.95-25.21-61.36
					c-12.5-19.41-31.77-37.3-58.26-47.28c-0.21,24.15-6.87,48.27-19.5,70.69c-10.49-7.73-22.79-14.21-36.22-19.1
					c-4.5-1.64-10.35-3.01-14.25-0.72c-1.95,1.15-2.85,2.96-3.55,4.69c-5.51,13.58-4.53,28.55-13.59,41.12
					c-4.28,5.93-10.57,10.99-15.85,16.5c-16.7,17.44-22.78,39.86-16.4,60.48c5.23,16.93,18.81,32.44,37.58,43.44
					c17.69-3.57,42.69-7.25,73.03-7.6c41.03-0.47,73.4,5.38,92.39,9.77c1.84-1.62,3.59-3.29,5.25-5.01
					C1099.98,370.14,1100.62,328.87,1094.62,290.88z"/>
			</g>
		</g>
		<path class="st0" d="M1025.23,1066h-90.46c-3.29-196.23-6.58-392.47-9.87-588.7c37.28,0,74.56,0,111.84,0
			C1032.91,673.53,1029.07,869.77,1025.23,1066z"/>
	</g>
</g>
</svg>
