<?xml version="1.0" encoding="utf-8"?>
<!-- Generator: Adobe Illustrator 23.0.5, SVG Export Plug-In . SVG Version: 6.00 Build 0)  -->
<svg version="1.1" xmlns="http://www.w3.org/2000/svg" xmlns:xlink="http://www.w3.org/1999/xlink" x="0px" y="0px"
	 viewBox="0 0 1920 1080" style="enable-background:new 0 0 1920 1080;" xml:space="preserve">
<style type="text/css">
	.st0{fill:#B58A61;stroke:#000000;stroke-miterlimit:10;}
	.st1{fill:#B58A61;}
</style>
<g id="圖層_1">
</g>
<g id="圖層_2">
	<g>
		<path class="st0" d="M1632,431.73c-46.81,173.09-292.06,298.65-577.36,177.62c-24.84-84.35-49.69-168.7-74.53-253.06
			c123.55-286.71,374.41-378.44,521.11-280.39C1601.9,143.21,1665.48,307.91,1632,431.73z"/>
		<g>
			<g>
				<path d="M1048.08,409.39c9.43-34.34,23.94-67.24,43.05-97.3c18.3-28.77,40.79-54.94,66.9-76.89
					c24.89-20.93,53.15-38.04,83.71-49.28c16.11-5.93,32.78-10.1,49.76-12.6c22.69-3.34,45.68-3.95,68.58-3.96
					c34.55-0.01,72.86,2.99,98.3,29.36c26.54,27.51,31.32,70.59,24.13,106.59c-7.8,39.08-28.92,75.04-54.17,105.4
					c-23.69,28.49-52.44,52.58-84.27,71.51c-33.29,19.8-69.72,33.69-107.41,42.4c-42.64,9.86-86.53,13.21-130.21,12.96
					c-10.66-0.06-21.32-0.34-31.98-0.78c-0.97-0.04-0.96,1.46,0,1.5c44.32,1.83,88.92,0.74,132.77-6.39
					c40.39-6.56,80.01-18.36,116.58-36.86c32.96-16.67,63.34-38.54,89.13-65.01c27.24-27.96,50.52-61.49,63.75-98.4
					c12.9-35.99,15.36-77.8-2.31-112.71c-8.11-16.03-20.77-29.17-36.76-37.43c-15.38-7.94-32.65-11.29-49.77-12.7
					c-20.13-1.65-40.59-1.22-60.74-0.28c-21.05,0.99-42.11,3.37-62.54,8.67c-31.38,8.13-60.95,22.58-87.36,41.29
					c-27.75,19.66-52.1,43.96-72.44,71.19c-21.3,28.52-38.2,60.29-50.13,93.82c-2.99,8.39-5.65,16.9-8.01,25.49
					C1046.38,409.92,1047.82,410.32,1048.08,409.39L1048.08,409.39z"/>
			</g>
		</g>
		<g>
			<g>
				<path d="M1051.41,450.56c13.69-19.67,28.98-38.21,45.74-55.34c16.32-16.68,34.03-32.02,52.94-45.7
					c18.31-13.24,37.75-24.94,58.1-34.78c20.02-9.69,40.92-17.56,62.4-23.34c10.65-2.86,21.45-5.21,32.33-7.01
					c13.33-2.2,27.41-3.63,40.42,0.93c10.2,3.58,18.91,11.27,23.71,20.96c5.27,10.63,4.93,22.98,0.14,33.71
					c-4.65,10.41-12.63,19.07-21.35,26.24c-10.03,8.24-21.17,15.27-32.53,21.53c-22.67,12.52-47,21.65-71.52,29.8
					c-26.76,8.89-53.77,17.06-80.91,24.73c-27.65,7.81-55.47,15.04-83.43,21.65c-6.8,1.61-13.61,3.18-20.43,4.72
					c-0.94,0.21-0.54,1.66,0.4,1.45c28.62-6.46,57.1-13.54,85.41-21.25c28.3-7.71,56.42-16.03,84.35-24.97
					c25.07-8.02,50.1-16.5,73.8-28.05c11.95-5.82,23.52-12.42,34.45-20c9.65-6.69,18.9-14.07,26.05-23.47
					c6.89-9.06,11.53-20.02,10.9-31.57c-0.59-10.9-5.94-21.07-14.04-28.28c-19.1-17.01-46.7-11.77-69.48-7.01
					c-22.04,4.6-43.59,11.44-64.32,20.2c-21.15,8.93-41.45,19.86-60.63,32.47c-19.63,12.9-38.11,27.55-55.22,43.64
					c-17.5,16.45-33.58,34.4-48.08,53.54c-3.6,4.75-7.1,9.57-10.5,14.46C1049.56,450.59,1050.86,451.34,1051.41,450.56
					L1051.41,450.56z"/>
			</g>
		</g>
		<path class="st0" d="M314.16,1052.71c141.57,73.93,384.56-57.54,496.72-387.81c-37.35-77.77-74.7-155.54-112.05-233.31
			c-265.05-82.14-490.17,76.7-524.98,270.3C149.96,834.78,212.89,999.83,314.16,1052.71z"/>
		<g>
			<g>
				<path d="M688.32,524.97c-30.43-15.69-63.86-25.1-98-27.64c-34.15-2.53-68.73,1.79-101.29,12.33
					c-33.25,10.77-64.29,27.98-91.19,50.29c-15.51,12.87-29.48,27.47-42.54,42.79c-13.33,15.63-26.02,31.92-38.03,48.58
					c-22.18,30.78-41.83,66.87-37.4,106.12c4.1,36.26,27.14,68.41,58.9,85.81c33.62,18.42,74.59,21.75,112.1,17.4
					c39.24-4.55,77.01-18.32,111.39-37.54c34.67-19.39,65.91-44.46,94.19-72.24c28.7-28.19,54.45-59.25,78.43-91.51
					c5.98-8.05,11.85-16.19,17.64-24.38c0.56-0.79-0.74-1.54-1.3-0.76c-23.09,32.72-47.64,64.49-74.84,93.92
					c-26.37,28.54-55.32,54.97-87.54,76.79c-32.69,22.14-68.95,39.55-107.44,48.77c-36.99,8.86-77.15,10.4-113.94-0.32
					c-18.41-5.37-35.94-14.24-50.21-27.16c-13.26-12-23.64-27.29-29.89-44.05c-6.69-17.92-8.26-37.22-4.72-56.01
					c3.56-18.86,11.76-36.49,21.69-52.79c10.15-16.68,22.11-32.22,34.13-47.58c12.74-16.27,26.03-32.16,40.68-46.76
					c25.19-25.1,54.85-45.47,87.58-59.43c31.21-13.31,64.95-20.7,98.88-21.42c33.67-0.71,67.41,5.19,98.76,17.54
					c7.91,3.12,15.64,6.65,23.2,10.55C688.42,526.71,689.18,525.42,688.32,524.97L688.32,524.97z"/>
			</g>
		</g>
		<g>
			<g>
				<path d="M711.85,555.07c-23.64-1.16-47.37,0.25-70.72,4.08c-23.49,3.85-46.57,10.16-68.81,18.64
					c-22.71,8.66-44.56,19.58-65.17,32.46c-21.06,13.15-40.84,28.34-59.04,45.22c-17.53,16.25-36.77,34.83-40.6,59.57
					c-1.66,10.72-0.68,22.47,4.94,31.96c5.28,8.92,14.3,14.25,24.46,15.59c10.48,1.38,21.15-0.89,31.07-4.18
					c12.42-4.11,24.41-9.47,35.96-15.6c23.87-12.67,45.86-28.56,67.36-44.85c22.72-17.22,45.11-34.89,67.17-52.95
					c22.35-18.3,44.36-37.02,66.02-56.14c5.3-4.68,10.58-9.39,15.84-14.11c0.72-0.65-0.34-1.7-1.06-1.06
					c-21.15,19.01-42.63,37.63-64.46,55.86c-21.63,18.06-43.58,35.74-65.86,53c-21.34,16.54-42.83,33.07-65.76,47.38
					c-11.01,6.87-22.37,13.2-34.18,18.58c-10.9,4.97-22.37,9.62-34.19,11.83c-10.07,1.88-21.23,1.92-30.34-3.36
					c-9.73-5.63-14.75-16.26-15.91-27.13c-1.25-11.79,1.5-23.59,6.99-34.03c5.77-10.98,14.14-20.26,22.85-28.97
					c17.45-17.43,36.51-33.25,56.91-47.12c19.79-13.46,40.84-25.09,62.82-34.58c21.71-9.38,44.35-16.65,67.49-21.57
					c22.71-4.83,45.91-7.36,69.14-7.42c5.69-0.01,11.38,0.12,17.07,0.4C712.81,556.62,712.81,555.12,711.85,555.07L711.85,555.07z"
					/>
			</g>
		</g>
		<g>
			<path class="st1" d="M963.96,399.19c5.71-16.8,15.24-31.79,27.34-43.01c4.4-4.08,9.37-7.78,14.96-8.48
				c12.98-1.64,22.99,12.68,29.76,25.76c46.3,89.41,67.57,196.28,59.79,300.46c-0.89,11.95-2.19,24.01-5.86,35.21
				c-0.88,2.67-2.07,5.51-4.31,6.64c-2.42,1.22-5.19,0.04-7.59-1.21c-51.36-26.82-83.27-90.22-94.11-154.86
				s-3.84-131.32,3.19-196.68"/>
			<g>
				<path d="M964.32,399.29c4.43-12.93,11.14-25.1,20.1-35.45c4.29-4.95,9.13-10.05,14.87-13.3c5.72-3.24,12.06-3.38,17.77-0.08
					c5.29,3.07,9.34,8.04,12.71,13.05c3.6,5.37,6.5,11.16,9.38,16.94c6.32,12.68,12.12,25.62,17.39,38.77
					c10.51,26.22,18.94,53.27,25.35,80.78c6.53,28.03,10.95,56.54,13.25,85.23c2.29,28.62,2.48,57.41,0.48,86.05
					c-0.54,7.74-1.19,15.49-2.5,23.14c-0.62,3.6-1.38,7.17-2.36,10.69c-0.89,3.22-1.75,7.63-4.53,9.79
					c-3.29,2.56-7.71-0.48-10.73-2.15c-2.41-1.34-4.77-2.75-7.08-4.24c-4.93-3.17-9.63-6.68-14.1-10.47
					c-18.22-15.44-32.43-35.21-43.34-56.34c-11.65-22.56-19.72-46.93-24.77-71.78c-6.06-29.81-7.84-60.42-7.46-90.79
					c0.39-31.21,3.13-62.33,6.33-93.35c0.78-7.6,1.6-15.19,2.42-22.78c0.05-0.48-0.7-0.48-0.75,0c-3.45,32.08-6.87,64.2-8.21,96.46
					c-1.33,31.95-0.6,64.1,4.29,95.75c4.02,26,11.17,51.58,22.03,75.58c10.15,22.41,23.64,43.65,41.33,60.88
					c8.29,8.07,17.52,15.22,27.57,20.97c4.3,2.46,10.62,6.68,14.41,1.25c1.86-2.66,2.65-6.16,3.48-9.24
					c0.98-3.64,1.74-7.34,2.35-11.05c2.41-14.72,3.03-29.84,3.48-44.73c0.45-14.96,0.32-29.93-0.4-44.88
					c-1.4-29.4-5.04-58.7-10.86-87.55c-5.8-28.72-13.78-57.01-23.98-84.48c-4.97-13.39-10.46-26.58-16.49-39.52
					c-3.01-6.45-6.14-12.85-9.42-19.17c-2.9-5.58-6.14-11.05-10.22-15.86c-3.5-4.13-7.85-7.99-13.15-9.53
					c-5.58-1.62-11.13-0.01-15.85,3.13c-5.39,3.59-10.04,8.49-14.19,13.43c-4.29,5.11-8.06,10.64-11.29,16.47
					c-3.22,5.81-5.89,11.91-8.04,18.19C963.44,399.54,964.16,399.74,964.32,399.29L964.32,399.29z"/>
			</g>
		</g>
		<g>
			<path class="st1" d="M763.8,322.16c-15.99-23.05-46.23-30.53-68.81-17.04c-24.06,14.38-35.97,46.77-41.67,77.7
				C631.74,499.9,673.16,621.12,730,720.68c21.37,37.43,45.88,73.99,79.09,96.67c15.96,10.9,37.38,17.79,52,4.55
				c18.56-16.81,12.07-50.74,4.38-76.71c-27.51-92.79-47.59-188.61-59.9-285.77c-6.31-49.79-11.76-103.21-39.79-141.37"/>
			<g>
				<path d="M765.1,321.41c-9.53-13.55-24.4-22.77-41.01-24.28c-16.42-1.49-31.7,5.43-42.89,17.25
					c-12.41,13.11-19.7,30.45-24.59,47.6c-5.53,19.4-8.3,39.7-9.7,59.79c-2.98,42.52,1.62,85.34,11.38,126.75
					c9.84,41.75,24.88,82.18,43.24,120.91c9.01,19.01,18.85,37.63,29.38,55.85c10.27,17.77,21.25,35.19,33.93,51.35
					c12.14,15.47,25.97,29.77,42.13,41.07c13.56,9.49,32.81,17.94,48.93,9.62c14.86-7.67,19.07-25.3,18.71-40.72
					c-0.43-18.78-6.29-36.74-11.45-54.62c-12.91-44.79-24.05-90.09-33.42-135.75c-9.44-46-17.08-92.36-22.95-138.95
					c-4.94-39.23-8.95-80.04-25.84-116.31c-3.87-8.32-8.48-16.27-13.89-23.69c-1.13-1.54-3.73-0.05-2.59,1.51
					c22.76,31.2,30.14,70.56,35.38,108.01c2.92,20.88,5.28,41.83,8.27,62.7c3.21,22.38,6.84,44.71,10.88,66.95
					c8.05,44.32,17.75,88.35,29.1,131.94c5.51,21.16,11.86,42.07,17.62,63.16c4.38,16.04,8.24,33.89,4.59,50.45
					c-1.68,7.64-5.32,14.86-11.49,19.84c-7.08,5.72-16.38,6.75-25.07,4.96c-18.17-3.75-33.78-16.99-46.67-29.65
					c-28.39-27.88-48.85-63.41-67.39-98.29c-19.56-36.79-36.26-75.2-48.63-115.02c-12.3-39.59-20.32-80.67-21.81-122.16
					c-0.74-20.6,0.13-41.27,2.84-61.7c2.54-19.09,6.39-38.36,14.02-56.13c6.61-15.41,16.58-30.63,31.78-38.66
					c14.52-7.67,32.25-6.63,46.45,1.26c7.23,4.02,13.4,9.69,18.15,16.45C763.61,324.49,766.21,322.99,765.1,321.41L765.1,321.41z"/>
			</g>
		</g>
		<g>
			<path class="st1" d="M840.47,318.44c17.48-33.73,36.19-68.88,65.47-88.39s72.36-16.62,90.37,16.72
				c9.66,17.9,10.3,40.68,6.98,61.5c-3.31,20.82-10.19,40.61-14.64,61.14c-13.08,60.41-4.6,124.05,4.87,185.37
				c5.93,38.41,13.02,78.69,34.86,108.17c5.9,7.96,12.98,15.35,15.76,25.38c5.51,19.85-8.25,40.2-23.57,50.88
				c-18.98,13.23-41.46,18.53-63.55,18.3c-17.34-0.18-35.53-4.11-48.82-17.14c-8.18-8.02-13.9-18.87-19.47-29.53
				c-16.92-32.36-34.02-65.19-43.23-101.58c-6.43-25.41-8.85-51.94-10.99-78.33c-3.79-46.79-6.77-93.66-8.95-140.59
				c-1.27-27.31-0.7-58.95,17.47-76.13"/>
			<g>
				<path d="M841.12,318.82c9.34-18.01,18.77-36.08,30.5-52.69c10.8-15.3,24.07-30.19,40.83-39.09
					c13.98-7.43,30.65-10.32,46.23-7.11c16.09,3.32,29.76,13.37,37.38,27.97c10,19.17,9.65,42.35,6.01,63.13
					c-4,22.81-11.89,44.71-15.98,67.5c-8.27,46.01-4.83,93.17,1.29,139.21c2.89,21.74,6.03,43.53,10.1,65.08
					c3.73,19.78,8.6,39.58,17.06,57.92c4.15,8.99,9.21,17.45,15.27,25.29c6.24,8.07,12.95,16.13,14.49,26.57
					c3.03,20.59-12.61,39.2-29.1,49.21c-18.11,10.99-39.55,15.55-60.6,14.88c-9.98-0.32-20.07-1.92-29.28-5.89
					c-9.79-4.21-17.74-11.03-23.89-19.69c-6.27-8.83-11.01-18.71-15.99-28.28c-5.08-9.76-10.11-19.56-14.87-29.48
					c-9.78-20.39-18.43-41.41-24.07-63.36c-5.97-23.21-8.52-47.13-10.54-70.96c-2.06-24.35-3.83-48.73-5.41-73.12
					c-1.58-24.31-2.94-48.63-4.09-72.97c-0.88-18.68-1.58-38.24,4.12-56.3c2.6-8.24,6.74-15.9,13-21.93
					c0.7-0.67-0.36-1.73-1.06-1.06c-12.94,12.45-16.66,31.09-17.74,48.33c-0.62,9.96-0.34,19.94,0.13,29.9
					c0.59,12.61,1.24,25.21,1.94,37.81c1.41,25.19,3.06,50.37,4.93,75.53c1.83,24.51,3.44,49.12,7.01,73.45
					c3.46,23.56,9.59,46.36,18.5,68.45c8.51,21.11,18.96,41.37,29.49,61.52c4.98,9.53,9.84,19.31,16.73,27.64
					c6.27,7.6,14.33,13.28,23.52,16.8c18.46,7.08,40.26,6.46,59.26,1.99c19.45-4.58,38.92-14.51,50.64-31.17
					c5.39-7.65,9.15-16.77,9.21-26.24c0.06-10.15-4.59-18.79-10.57-26.68c-6.2-8.17-12.21-16.14-16.93-25.3
					c-4.92-9.55-8.72-19.64-11.8-29.91c-6.2-20.63-9.61-41.98-12.88-63.23c-7.4-48.06-14.08-96.89-10.05-145.6
					c1.01-12.23,2.72-24.4,5.27-36.41c2.49-11.72,5.81-23.23,8.84-34.82c5.56-21.26,10.02-43.28,6.69-65.29
					c-2.68-17.74-11.08-34.61-26.57-44.4c-13-8.21-29-10.44-44.02-7.94c-37.97,6.31-62.24,41.79-79.83,72.91
					c-5.03,8.89-9.75,17.95-14.45,27.01C839.38,318.92,840.67,319.68,841.12,318.82L841.12,318.82z"/>
			</g>
		</g>
		<path class="st0" d="M917.79,761.87c-7.04,11.24-17.43,23.5-31.43,26.05c-50.86,9.3-116.1-115.61-138.69-225.48
			c-16.26-79.08-27.65-234.16,39.36-276.01c24.32-15.19,52.24-11.25,73.31-4.57c-9.65,52.63-18.15,128.08-10.55,217.75
			C859.81,617.61,893.27,707.9,917.79,761.87z"/>
	</g>
</g>
</svg>
