<?xml version="1.0" encoding="utf-8"?>
<!-- Generator: Adobe Illustrator 23.0.5, SVG Export Plug-In . SVG Version: 6.00 Build 0)  -->
<svg version="1.1" id="圖層_1" xmlns="http://www.w3.org/2000/svg" xmlns:xlink="http://www.w3.org/1999/xlink" x="0px" y="0px"
	 viewBox="0 0 1920 1080" style="enable-background:new 0 0 1920 1080;" xml:space="preserve">
<style type="text/css">
	.st0{fill:#B58A61;stroke:#000000;stroke-miterlimit:10;}
	.st1{fill:#B58A61;}
	.st2{fill:#6C3A3D;}
	.st3{fill:#F26348;}
	.st4{fill:#F48D22;}
	.st5{fill:#FCAC3B;stroke:#000000;stroke-miterlimit:10;}
	.st6{fill:#717777;stroke:#000000;stroke-miterlimit:10;}
	.st7{fill:#C2C4C3;stroke:#000000;stroke-miterlimit:10;}
	.st8{fill:#F8C548;stroke:#000000;stroke-miterlimit:10;}
	.st9{fill:#1F1F1F;}
	.st10{fill:#D39C20;stroke:#000000;stroke-miterlimit:10;}
	.st11{fill:#FFFFFF;stroke:#000000;stroke-width:3;stroke-miterlimit:10;}
	.st12{fill:#FFFFFF;stroke:#000000;stroke-width:6;stroke-miterlimit:10;}
	.st13{fill:#7FEF6C;}
</style>
<g>
	<g>
		<path class="st0" d="M1173.51,161.96c-22.54,54.85-97.22,84.8-169.27,31.65c-2.17-28.95-4.35-57.89-6.53-86.84
			c50.03-88.71,124.39-107.26,159.45-68.13C1181.22,65.5,1189.63,122.73,1173.51,161.96z"/>
		<g>
			<g>
				<path d="M1013.53,127.43c4.51-10.87,10.34-21.04,17.29-30.05c6.65-8.63,14.31-16.2,22.74-22.22
					c8.03-5.74,16.79-10.06,25.85-12.34c4.78-1.2,9.61-1.8,14.44-1.84c6.45-0.04,12.83,0.82,19.16,1.89
					c9.54,1.6,19.95,4.38,25.51,14.25c5.8,10.3,4.73,24.71,0.74,36.24c-4.32,12.51-12.15,23.38-20.81,32.2
					c-8.12,8.28-17.4,14.88-27.24,19.64c-10.29,4.97-21.12,7.86-32.01,8.97c-12.32,1.26-24.62,0.33-36.67-1.79
					c-2.94-0.52-5.87-1.1-8.79-1.75c-0.27-0.06-0.35,0.44-0.08,0.49c12.14,2.67,24.51,4.38,37.01,4.07
					c11.52-0.28,23.11-2.33,34.23-6.72c10.03-3.96,19.63-9.75,28.22-17.27c9.07-7.94,17.36-17.91,23.07-29.45
					c5.56-11.26,8.56-24.92,5.62-37.24c-1.35-5.66-4.11-10.58-8.07-14.04c-3.81-3.33-8.39-5.24-13.04-6.5
					c-5.47-1.48-11.14-2.29-16.75-2.92c-5.87-0.65-11.81-0.85-17.75-0.05c-9.12,1.22-18.08,4.6-26.41,9.54
					c-8.75,5.19-16.83,12.06-23.95,20.08c-7.46,8.41-13.89,18.09-19.05,28.58c-1.29,2.63-2.5,5.3-3.63,8.03
					C1013.03,127.52,1013.41,127.72,1013.53,127.43L1013.53,127.43z"/>
			</g>
		</g>
		<g>
			<g>
				<path d="M1012.17,141.15c4.87-5.84,10.12-11.24,15.7-16.1c5.43-4.74,11.17-8.97,17.15-12.59c5.79-3.51,11.81-6.46,17.97-8.75
					c6.07-2.26,12.27-3.88,18.52-4.79c3.1-0.45,6.21-0.72,9.32-0.81c3.8-0.1,7.77,0.08,11.11,2.19c2.62,1.65,4.6,4.59,5.38,8.01
					c0.86,3.75,0.09,7.8-1.83,11.11c-1.86,3.21-4.55,5.7-7.35,7.65c-3.23,2.25-6.69,4.05-10.18,5.58
					c-6.95,3.07-14.18,4.95-21.4,6.49c-7.88,1.68-15.79,3.12-23.71,4.38c-8.07,1.29-16.15,2.37-24.24,3.25
					c-1.97,0.21-3.93,0.41-5.9,0.6c-0.27,0.03-0.24,0.52,0.03,0.5c8.26-0.8,16.52-1.8,24.76-3.03c8.24-1.22,16.47-2.66,24.68-4.3
					c7.37-1.48,14.75-3.1,21.93-5.81c3.62-1.36,7.18-3,10.62-4.99c3.04-1.76,6-3.76,8.5-6.52c2.41-2.66,4.3-6.06,4.76-9.89
					c0.44-3.62-0.47-7.22-2.31-9.97c-4.33-6.49-12.24-6.05-18.79-5.54c-6.34,0.49-12.67,1.74-18.88,3.66
					c-6.34,1.96-12.55,4.61-18.54,7.88c-6.14,3.34-12.05,7.3-17.67,11.81c-5.75,4.61-11.18,9.77-16.25,15.4
					c-1.26,1.4-2.49,2.82-3.7,4.28C1011.65,141.07,1011.97,141.38,1012.17,141.15L1012.17,141.15z"/>
			</g>
		</g>
		<path class="st0" d="M775.17,305.22c34.98,30.95,109.37-1.06,158.68-104.65c-5.99-27.36-11.99-54.72-17.98-82.08
			c-68.62-39.4-139.6,2.46-159.96,64.62C741.94,225.78,750.15,283.09,775.17,305.22z"/>
		<g>
			<g>
				<path d="M907.78,148.77c-7.53-6.59-16.24-11.24-25.52-13.67c-9.29-2.42-19.08-2.61-28.65-0.65c-9.78,2-19.3,6.23-27.97,12.33
					c-5,3.52-9.66,7.68-14.12,12.12c-4.55,4.53-8.96,9.31-13.2,14.24c-7.83,9.11-15.26,20.08-16.22,33.22
					c-0.88,12.14,3.69,23.8,11.5,31.01c8.26,7.63,19.39,10.64,29.98,10.95c11.09,0.33,22.28-2.45,32.84-7.18
					c10.65-4.77,20.67-11.58,30.02-19.42c9.49-7.95,18.32-16.99,26.74-26.5c2.1-2.37,4.17-4.78,6.22-7.21
					c0.2-0.23-0.12-0.54-0.32-0.31c-8.19,9.71-16.73,19.03-25.88,27.46c-8.87,8.18-18.33,15.54-28.43,21.23
					c-10.26,5.77-21.23,9.82-32.37,11.07c-10.71,1.2-21.88-0.16-31.44-5.41c-4.78-2.63-9.13-6.36-12.35-11.28
					c-2.99-4.57-5.01-10.09-5.81-15.9c-0.85-6.22-0.21-12.65,1.81-18.67c2.03-6.05,5.27-11.47,8.92-16.38
					c3.73-5.02,7.89-9.59,12.07-14.09c4.42-4.77,8.97-9.38,13.83-13.51c8.35-7.1,17.67-12.43,27.48-15.5
					c9.36-2.93,19.08-3.8,28.49-2.46c9.34,1.33,18.32,4.85,26.29,10.37c2.01,1.4,3.95,2.92,5.82,4.56
					C907.71,149.34,908,148.95,907.78,148.77L907.78,148.77z"/>
			</g>
		</g>
		<g>
			<g>
				<path d="M912.61,159.78c-6.46-1.48-13.09-2.12-19.75-1.95c-6.7,0.18-13.42,1.18-20.03,2.94c-6.75,1.8-13.39,4.38-19.8,7.66
					c-6.54,3.35-12.85,7.44-18.81,12.15c-5.74,4.54-12.09,9.76-14.52,17.74c-1.05,3.45-1.44,7.37-0.41,10.76
					c0.96,3.18,3.16,5.36,5.89,6.27c2.82,0.94,5.89,0.69,8.81,0.07c3.66-0.78,7.27-1.98,10.79-3.47
					c7.29-3.06,14.25-7.28,21.09-11.64c7.23-4.62,14.39-9.4,21.49-14.32c7.19-4.99,14.3-10.13,21.35-15.42
					c1.72-1.3,3.44-2.6,5.16-3.91c0.23-0.18,0-0.58-0.23-0.4c-6.9,5.28-13.86,10.41-20.9,15.4c-6.97,4.94-14.02,9.75-21.13,14.4
					c-6.81,4.46-13.66,8.9-20.79,12.55c-3.42,1.75-6.91,3.31-10.47,4.53c-3.29,1.13-6.71,2.13-10.1,2.31
					c-2.88,0.15-5.97-0.36-8.19-2.52c-2.37-2.31-3.17-6.04-2.89-9.68c0.31-3.94,1.72-7.7,3.82-10.89c2.2-3.35,5.03-6.02,7.92-8.48
					c5.79-4.93,11.93-9.26,18.33-12.88c6.21-3.51,12.67-6.37,19.26-8.47c6.52-2.08,13.17-3.42,19.83-3.97
					c6.54-0.53,13.08-0.29,19.5,0.77c1.57,0.26,3.14,0.57,4.69,0.93C912.79,160.33,912.87,159.84,912.61,159.78L912.61,159.78z"/>
			</g>
		</g>
		<g>
			<path class="st1" d="M990.87,120.15c2.51-5.27,5.97-9.76,9.94-12.9c1.44-1.14,3.02-2.13,4.6-2.1c3.67,0.06,5.64,5.25,6.79,9.87
				c7.82,31.61,7.76,67.81-0.18,101.77c-0.91,3.9-1.94,7.81-3.57,11.33c-0.39,0.84-0.88,1.72-1.56,1.99
				c-0.74,0.29-1.44-0.23-2.03-0.75c-12.69-11.23-17.98-33.6-17.38-55.4c0.6-21.8,6.23-43.44,11.8-64.65"/>
			<g>
				<path d="M990.97,120.2c1.94-4.05,4.47-7.75,7.52-10.74c1.46-1.43,3.08-2.89,4.84-3.69c1.76-0.8,3.52-0.55,4.91,0.8
					c1.29,1.26,2.13,3.08,2.78,4.89c0.7,1.94,1.17,3.98,1.65,6.02c1.04,4.47,1.92,9,2.65,13.58c1.45,9.13,2.27,18.43,2.51,27.79
					c0.25,9.54-0.12,19.14-1.07,28.7c-0.96,9.54-2.5,19.03-4.65,28.37c-0.58,2.52-1.19,5.05-1.98,7.51
					c-0.37,1.16-0.78,2.3-1.25,3.41c-0.42,1.02-0.91,2.43-1.79,3.01c-1.05,0.69-2.1-0.52-2.84-1.21c-0.59-0.55-1.16-1.13-1.72-1.73
					c-1.19-1.27-2.29-2.65-3.31-4.11c-4.17-5.93-7-13.11-8.84-20.58c-1.96-7.97-2.84-16.38-2.85-24.8
					c-0.02-10.1,1.19-20.27,2.98-30.26c1.84-10.26,4.33-20.39,6.93-30.46c0.64-2.47,1.29-4.93,1.93-7.39
					c0.04-0.16-0.17-0.19-0.21-0.03c-2.73,10.41-5.46,20.83-7.62,31.4c-2.14,10.46-3.73,21.09-4.13,31.75
					c-0.33,8.75,0.22,17.51,1.89,25.93c1.56,7.86,4.1,15.48,8.03,21.98c1.84,3.04,3.99,5.83,6.45,8.19c1.05,1.01,2.56,2.7,3.91,1.08
					c0.66-0.79,1.07-1.91,1.47-2.88c0.47-1.15,0.89-2.34,1.26-3.53c1.48-4.74,2.49-9.69,3.44-14.57c0.95-4.91,1.75-9.85,2.38-14.8
					c1.25-9.75,1.87-19.57,1.86-29.35c-0.01-9.73-0.64-19.42-1.93-28.95c-0.63-4.64-1.41-9.24-2.36-13.79
					c-0.47-2.27-0.98-4.52-1.54-6.75c-0.49-1.97-1.08-3.93-1.94-5.7c-0.74-1.52-1.72-3-3.1-3.75c-1.45-0.79-3.07-0.52-4.55,0.29
					c-1.69,0.93-3.24,2.33-4.66,3.76c-1.47,1.48-2.82,3.13-4.03,4.9c-1.21,1.76-2.29,3.65-3.23,5.62
					C990.71,120.24,990.9,120.34,990.97,120.2L990.97,120.2z"/>
			</g>
		</g>
		<g>
			<path class="st1" d="M939.89,85.46c-3.13-8.34-11.07-12.21-18.05-8.82c-7.44,3.62-12.53,13.74-15.82,23.66
				c-12.46,37.57-7.75,79.43,2.41,114.88c3.82,13.33,8.56,26.51,16.47,35.53c3.8,4.33,9.33,7.6,14.1,3.92
				c6.06-4.67,6.15-16.16,5.47-25.07c-2.44-31.85-2.67-64.35-0.67-96.94c1.02-16.7,2.48-34.55-3.14-48.43"/>
			<g>
				<path d="M940.29,85.27c-1.88-4.91-5.47-8.64-9.97-9.91c-4.45-1.26-9.05,0.31-12.8,3.69c-4.15,3.74-7.13,9.12-9.43,14.54
					c-2.6,6.13-4.5,12.69-6,19.25c-3.18,13.87-4.29,28.19-3.9,42.29c0.4,14.21,2.31,28.23,5.22,41.85
					c1.43,6.68,3.11,13.27,5.01,19.77c1.85,6.33,3.91,12.58,6.52,18.5c2.49,5.66,5.52,11.02,9.35,15.49
					c3.22,3.76,8.06,7.44,12.98,5.45c4.53-1.84,6.67-7.45,7.43-12.55c0.92-6.21,0.3-12.4-0.13-18.53
					c-1.08-15.36-1.64-30.8-1.69-46.28c-0.05-15.59,0.41-31.22,1.38-46.85c0.81-13.15,1.97-26.79-0.68-39.52
					c-0.61-2.92-1.44-5.75-2.52-8.45c-0.23-0.56-1.03-0.19-0.8,0.38c4.55,11.34,4.4,24.65,3.77,37.23
					c-0.35,7.02-0.86,14.03-1.2,21.04c-0.36,7.52-0.59,15.05-0.71,22.56c-0.24,14.98-0.01,29.93,0.71,44.82
					c0.35,7.23,0.94,14.41,1.36,21.63c0.32,5.49,0.39,11.55-1.53,16.83c-0.89,2.44-2.29,4.65-4.27,6c-2.27,1.56-4.9,1.46-7.2,0.47
					c-4.81-2.08-8.38-7.17-11.24-11.94c-6.29-10.51-9.97-23.16-13.15-35.52c-3.36-13.03-5.84-26.46-7.04-40.16
					c-1.2-13.62-1.13-27.52,0.76-41.26c0.94-6.82,2.33-13.59,4.21-20.2c1.76-6.17,3.89-12.34,6.99-17.84
					c2.68-4.77,6.28-9.32,10.92-11.26c4.43-1.85,9.27-0.68,12.76,2.58c1.77,1.66,3.16,3.82,4.1,6.26
					C939.7,86.22,940.51,85.85,940.29,85.27L940.29,85.27z"/>
			</g>
		</g>
		<g>
			<path class="st1" d="M961.26,87.8c6.7-10.3,13.82-21.01,22.98-26.07s20.9-2.11,24.02,9.71c1.67,6.35,0.58,13.88-1.49,20.59
				c-2.07,6.71-5.07,12.91-7.44,19.46c-6.97,19.29-8.16,40.66-8.95,61.3c-0.5,12.93-0.77,26.53,3.62,37.26
				c1.19,2.9,2.73,5.66,2.94,9.1c0.42,6.8-4.51,12.86-9.33,15.67c-5.98,3.48-12.48,4.18-18.56,3.07c-4.78-0.87-9.58-3.01-12.53-7.92
				c-1.81-3.02-2.79-6.86-3.74-10.64c-2.87-11.45-5.77-23.06-6.3-35.48c-0.36-8.67,0.44-17.52,1.32-26.32
				c1.55-15.59,3.33-31.17,5.34-46.74c1.17-9.06,3.08-19.45,9.05-24.27"/>
			<g>
				<path d="M961.42,87.96c3.58-5.5,7.19-11.01,11.35-15.94c3.83-4.54,8.32-8.83,13.44-10.98c4.27-1.8,9.04-1.97,13.16-0.19
					c4.26,1.84,7.47,5.79,8.77,10.95c1.7,6.78,0.31,14.4-1.85,21.08c-2.37,7.33-5.77,14.18-8.16,21.5
					c-4.84,14.77-6.51,30.47-7.37,45.92c-0.41,7.3-0.75,14.62-0.83,21.91c-0.07,6.69,0.18,13.44,1.49,19.88
					c0.65,3.15,1.57,6.18,2.81,9.04c1.27,2.95,2.68,5.92,2.53,9.43c-0.31,6.92-5.66,12.33-10.77,14.86
					c-5.61,2.78-11.78,3.28-17.56,2.08c-2.74-0.57-5.43-1.57-7.76-3.3c-2.47-1.84-4.29-4.46-5.5-7.6c-1.24-3.2-2-6.68-2.84-10.06
					c-0.86-3.45-1.71-6.91-2.47-10.4c-1.57-7.17-2.79-14.5-3.13-21.99c-0.36-7.92,0.26-15.92,1.03-23.87
					c0.78-8.12,1.65-16.23,2.57-24.34c0.91-8.08,1.89-16.16,2.92-24.23c0.79-6.2,1.69-12.67,4.26-18.36
					c1.18-2.59,2.74-4.92,4.81-6.62c0.23-0.19,0-0.59-0.23-0.4c-4.26,3.5-6.33,9.47-7.58,15.1c-0.72,3.25-1.2,6.55-1.62,9.86
					c-0.54,4.18-1.06,8.36-1.56,12.55c-1.01,8.36-1.95,16.74-2.83,25.11c-0.86,8.16-1.78,16.34-2.14,24.53
					c-0.35,7.92,0.07,15.72,1.31,23.41c1.18,7.35,2.94,14.51,4.73,21.64c0.85,3.37,1.64,6.82,3.08,9.88
					c1.31,2.8,3.22,5.04,5.56,6.63c4.7,3.19,10.76,4,16.25,3.41c5.62-0.6,11.55-2.97,15.71-7.91c1.91-2.27,3.46-5.1,4-8.22
					c0.58-3.34-0.22-6.4-1.44-9.28c-1.26-2.98-2.47-5.89-3.27-9.12c-0.83-3.38-1.32-6.88-1.6-10.4c-0.57-7.09-0.32-14.28-0.05-21.43
					c0.63-16.18,1.49-32.58,5.31-48.44c0.96-3.98,2.11-7.91,3.48-11.75c1.34-3.75,2.89-7.38,4.37-11.06
					c2.72-6.75,5.17-13.79,5.47-21.2c0.25-5.97-1.14-11.92-4.87-15.86c-3.13-3.31-7.43-4.79-11.71-4.66
					c-10.83,0.31-19.51,10.87-26.09,20.31c-1.88,2.69-3.69,5.46-5.49,8.23C960.93,87.91,961.25,88.22,961.42,87.96L961.42,87.96z"/>
			</g>
		</g>
		<path class="st0" d="M957.99,237.49c-2.57,3.38-6.12,6.93-10.12,7.12c-14.56,0.7-25.64-43.49-25.77-80.74
			c-0.1-26.81,5.37-78.43,26.19-89.1c7.56-3.87,15.05-1.28,20.49,1.91c-5.59,16.89-12.12,41.35-15,71.25
			C949.99,187.27,954.21,218.57,957.99,237.49z"/>
	</g>
</g>
<g>
	<g>
		<path class="st2" d="M1262.8,319.04c-20.93-21.41-41.86-42.82-62.79-64.24c5.59-16.07,11.18-32.14,16.77-48.21
			c12.25,5.85,30.56,16.16,49.49,33.41c22.46,20.48,35.53,41.41,42.39,54.17C1293.37,302.46,1278.09,310.75,1262.8,319.04z"/>
		<g>
			<g>
				<path class="st3" d="M1417.08,240.3c-7.27-6.07-15.31-11.16-23.72-15.01c10.68-19.67,21.43-39.54,26.99-61.94
					c5.56-22.4,5.57-47.86-4.8-71.84c-17.31,18.09-38.83,32.15-63.09,41.21c-1.43-12.34-4.92-24.87-10.3-36.9
					c-1.8-4.04-4.68-8.7-8.88-9.39c-2.11-0.35-3.98,0.46-5.68,1.33c-13.28,6.82-23.27,18.73-38.18,22.58
					c-7.03,1.82-14.77,1.72-22.17,2.61c-23.4,2.79-43.34,15.93-53.79,35.44c-8.58,16.02-10.66,36.15-6.11,56.1
					c14.19,8.29,33.29,21.04,53.52,39.61c27.37,25.12,44.55,49.63,53.94,64.74c2.37-0.08,4.71-0.25,7.02-0.52
					C1364.28,303.41,1394.03,272.68,1417.08,240.3z"/>
			</g>
			<g>
				<path class="st4" d="M1351.98,247.11c-4.4-3.72-9.22-6.9-14.2-9.38c5.56-10.98,11.16-22.07,13.67-34.77
					c2.51-12.71,1.71-27.36-5.05-41.47c-9.45,9.86-21.47,17.26-35.22,21.71c-1.21-7.15-3.64-14.46-7.13-21.55
					c-1.17-2.38-2.99-5.15-5.44-5.68c-1.23-0.26-2.29,0.14-3.24,0.59c-7.47,3.5-12.88,10.03-21.39,11.78
					c-4.02,0.82-8.5,0.53-12.75,0.8c-13.46,0.86-24.59,7.79-30.02,18.68c-4.46,8.94-5.03,20.46-1.76,32.08
					c8.48,5.22,19.94,13.15,32.25,24.48c16.64,15.32,27.36,29.96,33.28,38.94c1.37,0.03,2.72,0,4.05-0.08
					C1323.41,281.74,1339.67,265.01,1351.98,247.11z"/>
			</g>
		</g>
		<path class="st2" d="M1023.69,539.79l-36.29-34.19c74.74-81.98,149.49-163.96,224.24-245.94c14.96,14.09,29.91,28.18,44.87,42.27
			C1178.9,381.21,1101.29,460.5,1023.69,539.79z"/>
	</g>
</g>
<g>
	<g>
		<path class="st5" d="M882.72,541.66L604.41,175.92c8.44-10.64,16.88-21.28,25.32-31.92l232.53,283.54
			c21.29,22.8,42.58,45.6,63.87,68.39c3.31,3.55,4.61,8.65,3.42,13.45c-1.86,7.47-6.05,18.15-15.62,26.92
			c-5.49,5.03-11.24,8.05-16.12,9.88C892.39,548.21,886.32,546.39,882.72,541.66z"/>
		<path class="st6" d="M684.51,193.24c-14.86,15.31-38.86,43.98-55.29,87.12c-17.01,44.64-18.02,84.04-17.05,106.05
			c-15.99-6.76-51.77-24.55-80.1-64.93c-22.63-32.26-30.21-64.27-33.07-81.71c13.88,1.08,51.77,2.1,90.95-22.18
			c34.63-21.46,51.77-51.22,58.39-64.39c5.84,3.17,14.53,8.82,22.74,18.4C677.91,179.56,682.04,187.48,684.51,193.24z"/>
		<path class="st7" d="M612.79,353.23c-17.41-11.86-38.25-30.17-56.23-57.8c-12.87-19.78-21.11-39.46-26.46-56.51
			c-13.83,1.81-24.88,1.35-31.1,0.86c2.87,17.44,10.44,49.45,33.07,81.71c28.32,40.38,64.1,58.17,80.1,64.93
			C611.79,377.78,611.72,366.47,612.79,353.23z"/>
	</g>
</g>
<g>
	<g>
		<path d="M1055.54,181.78c-2.78-3.9-30.5-41.33-83.5-44.56c-39.18-2.39-77.13,14.83-98.58,44.56c-2.71,20.93-5.41,41.86-8.12,62.79
			c66.11-1.02,132.21-2.02,198.32-3.04C1060.95,221.62,1058.25,201.7,1055.54,181.78z M1013.79,213.12h-98.58v-44.56h98.58V213.12z"
			/>
		<path class="st8" d="M1184.35,997.09c-154.22-2.43-308.44-4.86-462.67-7.29c-50.79-0.8-91.44-37.09-91.2-81.45
			c0.72-136.85,5.18-255.56,10.45-352.42c7.56-139.01,15.37-206.08,75.38-260.27c79.52-71.81,198.39-74.11,241.23-74.94
			c40.31-0.78,174.48-3.38,259.78,73.93c51.88,47.02,66.69,106.17,69.58,299.77c1.32,88.01,0.11,198.23-8.16,326.22
			C1275.94,964.12,1234.22,997.87,1184.35,997.09z"/>
		<path d="M828.23,1005.07c-3.1,17.72-21.1,30.38-40.59,29.37c-17.9-0.92-33.18-13.16-35.95-29.37c0-29.37,0-58.74,0-88.11h76.54
			L828.23,1005.07L828.23,1005.07z"/>
		<path d="M1173.26,1005.58c-3.1,17.72-21.1,30.38-40.59,29.37c-17.9-0.92-33.18-13.16-35.95-29.37c0-29.37,0-58.74,0-88.11h76.54
			L1173.26,1005.58L1173.26,1005.58z"/>
		<path class="st9" d="M634.08,917.25c-10.02-2.14-23.4-6.41-35.05-15.8c-18.94-15.28-24.69-37.11-22.51-108.52
			c3.73-122.53,23.19-141.58,38.07-150.38c10.43-6.16,21.01-8.69,28.46-9.85C640.07,727.55,637.08,822.4,634.08,917.25z"/>
		<path class="st9" d="M1276.59,916.96c10.13-1.67,23.75-5.33,35.95-14.18c19.83-14.39,26.88-35.93,28.99-107.35
			c3.63-122.53-14.66-142.45-28.99-151.91c-10.05-6.63-20.46-9.63-27.83-11.14C1282,727.25,1279.29,822.1,1276.59,916.96z"/>
		<path class="st10" d="M1141.69,878.48H776.88c-23.52,0-42.58-16.55-42.58-36.96V671.37c0-20.41,19.07-36.96,42.58-36.96h364.82
			c23.52,0,42.58,16.55,42.58,36.96v170.15C1184.27,861.93,1165.21,878.48,1141.69,878.48z"/>
		<rect x="936.09" y="452.13" class="st9" width="59.15" height="106.34"/>
		<path class="st10" d="M760.39,263.61c0.37,121.79,92.65,220.41,206.44,220.41s206.07-98.61,206.44-220.41
			c-44.95-19.17-122.73-45.18-221.42-42.33C868.63,223.68,802.42,245.66,760.39,263.61z"/>
	</g>
</g>
<g>
	<g>
		<path class="st11" d="M793.9,1040.88c-2.51,0-4.67-0.96-6.41-2.84c-1.71-1.84-2.57-4.07-2.57-6.61v-47.2l-15.44,5.03
			c-0.94,0.29-1.88,0.44-2.82,0.44c-1.46,0-2.92-0.35-4.34-1.05l-0.1-0.05l-0.09-0.06c-2.22-1.4-3.67-3.4-4.32-5.94
			c-0.25-0.93-0.38-1.84-0.38-2.7c0-1.71,0.46-3.36,1.38-4.91c1.27-2.34,3.21-3.92,5.73-4.64c6.38-1.81,13.23-3.85,20.37-6.09
			l0.01,0c0-0.03,0-0.08,0-0.12v-32.74l-9.21,0c0,0.02-0.01,0.04-0.01,0.06c-1.27,5.85-2.66,11.26-4.14,16.15
			c-0.73,2.2-2.2,3.75-4.28,4.52c-0.76,0.28-1.54,0.43-2.31,0.43c-1.37,0-2.72-0.45-4-1.34c-1.9-1.23-3.22-2.99-3.89-5.22
			c-0.49-1.22-0.74-2.41-0.74-3.54c0-1.12,0.2-2.26,0.58-3.37c3.06-10.25,5.46-24.66,7.12-42.75c0.27-2.36,1.29-4.3,3.03-5.82
			c1.43-1.25,3.06-1.88,4.87-1.88c0.5,0,1.01,0.05,1.53,0.15c2.3,0.44,4.12,1.59,5.42,3.44c1.23,1.76,1.86,3.65,1.86,5.64
			c0,0.36-0.06,0.77-0.18,1.33c-0.5,5.1-1.04,9.45-1.63,12.94h5.97v-24.95c0-2.54,0.87-4.77,2.57-6.61
			c1.75-1.89,3.91-2.84,6.41-2.84c2.52,0,4.66,0.97,6.36,2.87c1.64,1.84,2.47,4.06,2.47,6.59v24.95l5.85,0
			c2.54,0,4.74,0.95,6.54,2.82c1.78,1.85,2.68,4.11,2.68,6.73c0,2.6-0.89,4.88-2.65,6.78c-1.8,1.94-4.01,2.93-6.57,2.93h-5.85v27.14
			l7.94-2.41c0.72-0.24,1.51-0.38,2.28-0.38c1.48,0,2.91,0.48,4.24,1.42c1.96,1.39,3.11,3.28,3.41,5.62
			c0.12,0.57,0.18,1.14,0.18,1.69c0,1.95-0.52,3.79-1.55,5.46c-1.25,2.16-3.02,3.71-5.23,4.55c-2.82,0.94-6.53,2.14-11.1,3.6
			c-0.09,0.03-0.14,0.05-0.18,0.07c0,0.01,0,53.27,0,53.27c0,2.53-0.83,4.74-2.47,6.58C798.56,1039.91,796.42,1040.88,793.9,1040.88
			z M869.52,1039.35c-2.62,0-4.97-0.99-6.97-2.94c-1.88-1.83-3.2-4.14-3.91-6.85c-0.55-2.24-0.22-4.42,0.99-6.51
			c1.5-2.61,3.65-3.16,5.19-3.16c0.26,0,0.52,0.02,0.8,0.05c2.23,0.11,4.87,0.16,7.84,0.16c1.82,0,3.13-0.73,4.12-2.29l0.06-0.1
			l0.08-0.09c1.48-1.8,3.68-7.61,5.76-24.99c1.71-14.22,3.25-37.1,4.6-68.01h-0.72c0,0.02-0.01,0.04-0.01,0.06
			c-4.09,21.84-10.1,42.45-17.86,61.25c-7.81,18.9-17.24,34.22-28.04,45.53c-1.94,2.09-4.36,3.16-7.18,3.16
			c-2.72,0-5.18-0.89-7.32-2.66c-2.01-1.59-3.08-3.89-3.08-6.63c0-2.27,0.91-4.25,2.69-5.88c10.3-9.8,19.29-23.27,26.69-40.01
			c7.33-16.6,13.04-35.04,16.97-54.82h-6.76c-3.38,13.67-7.99,26.94-13.71,39.5c-5.76,12.66-12.34,23.26-19.55,31.51
			c-1.56,1.97-3.79,3.06-6.37,3.06h-0.16c-2.44,0-4.66-0.77-6.58-2.3c-1.89-1.45-2.98-3.52-3.11-5.95
			c-0.14-2.45,0.64-4.53,2.32-6.19c6.27-6.77,12.16-15.65,17.44-26.33c5.16-10.44,9.48-21.64,12.85-33.3h-7.05
			c-0.12,0-0.19,0.02-0.2,0.03c0,0-0.07,0.05-0.15,0.26c-3.9,9.45-8.14,17.72-12.58,24.57c-1.47,2.17-3.47,3.42-5.95,3.75
			c-0.45,0.14-0.92,0.21-1.38,0.21c-2.05,0-3.96-0.73-5.68-2.16c-1.85-1.57-2.98-3.63-3.37-6.15l-0.02-0.15v-1.17
			c0-2.13,0.61-4.02,1.82-5.61c8.77-12.65,15.8-30.1,20.85-51.79c0.66-2.43,1.97-4.34,3.92-5.75c1.6-1.15,3.31-1.73,5.1-1.73
			c0.56,0,1.15,0.07,1.83,0.21c2.3,0.44,4.18,1.77,5.53,3.96c0.94,1.59,1.4,3.19,1.4,4.78c0,0.77-0.13,1.57-0.4,2.45
			c-1.09,4.29-2.51,9.49-4.19,15.38h45.15c4.33,0,8.04,1.64,11.05,4.88c2.76,3.11,4.15,6.81,4.15,11.02
			c0,22.11-1.8,48.53-5.35,78.54c-1.84,15.86-4.32,25.76-7.59,30.26c-1.83,2.71-3.71,4.62-5.71,5.8c-1.9,1.12-4.35,2-7.28,2.61
			c-2.31,0.38-5.29,0.55-9.2,0.55H869.52z"/>
		<path class="st11" d="M936.42,1039.69c-1.34,0-2.69-0.2-4.02-0.59c-2.64-0.78-5.01-2.28-7.03-4.46c-1.19-1.28-1.79-2.76-1.79-4.41
			c0-0.64,0.07-1.2,0.23-1.72c0.61-2.38,2.18-3.98,4.55-4.62c12.51-3.12,23.22-6.79,31.86-10.89c0.07-0.03,0.14-0.06,0.21-0.09
			h-5.16c-4.33,0-8.07-1.67-11.13-4.96c-3.01-3.25-4.54-7.21-4.54-11.78v-40.34c0-4.57,1.53-8.53,4.54-11.78
			c3.05-3.29,6.79-4.96,11.13-4.96H971c-0.31-1-0.46-2.03-0.46-3.08c0-1.21,0.19-2.44,0.56-3.64l0.04-0.12
			c1.17-3.08,3.33-5.09,6.26-5.81c7.89-2.16,13.93-5.03,17.92-8.54c3.71-3.27,6.45-7.45,8.15-12.43h-10.36
			c-0.33,0-0.58,0.08-0.87,0.5l-0.07,0.1c-2.46,3.12-5.06,5.99-7.73,8.52c-1.97,1.71-4.12,2.61-6.44,2.75l-0.12,0
			c-2.3,0-4.49-0.75-6.49-2.23c-1.85-1.24-2.9-3.05-3.04-5.23c-0.14-2.15,0.61-4.1,2.17-5.63l0.08-0.07
			c6.07-5.35,11.1-11.67,14.95-18.77c1.22-2.25,2.91-3.99,5.01-5.19c1.65-0.96,3.42-1.45,5.23-1.45c0.53,0,1.11,0.07,1.76,0.2
			c2.31,0.34,4.09,1.68,5.15,3.9c1.05,2.2,1.01,4.5-0.12,6.63l-0.24,0.45h47.49l0.44-0.11c0.74-0.18,1.49-0.28,2.23-0.28
			c0.99,0,1.99,0.16,2.97,0.49l2.9,0.82c1.83,0.49,3.22,1.75,3.98,3.63c0.74,1.83,0.66,3.72-0.23,5.47
			c-2.97,5.83-6.09,11.05-9.26,15.51c-1.42,1.95-3.29,3.22-5.57,3.8c-1.03,0.4-2.08,0.6-3.12,0.6c-1.17,0-2.35-0.21-3.5-0.63
			c-2.01-0.83-3.33-2.33-3.92-4.39c-0.57-2-0.28-4.02,0.85-5.84l0.07-0.11c0.72-1.01,1.49-2.16,2.32-3.45h-16.04
			c2.02,5.3,5.54,9.9,10.45,13.71c5.27,4.08,13.81,7.26,25.38,9.45c2.18,0.5,3.76,1.92,4.63,4.11l0.03,0.08l0.02,0.08
			c0.27,0.87,0.4,1.69,0.4,2.45c0,1.19-0.27,2.38-0.81,3.55l-0.05,0.11l-0.06,0.1c-1.43,2.31-3.2,4.08-5.26,5.26l-0.1,0.05
			c-1.63,0.81-3.25,1.23-4.82,1.23c-0.75,0-1.51-0.07-2.24-0.2l-0.12-0.03l-2.86-0.71v51.48c0,4.57-1.53,8.53-4.54,11.78
			c-3.05,3.29-6.79,4.96-11.13,4.96H1026c11.57,4.41,22.08,8.77,31.23,12.96c2.26,0.97,3.52,3.01,3.52,5.72
			c0,2.73-1.34,4.77-3.76,5.75c-2.69,1.21-5.56,1.84-8.45,1.84c-3.34,0-6.76-0.87-10.17-2.59c-8.28-4.13-17.63-8.27-27.79-12.3
			c-2.35-1.02-3.62-2.99-3.62-5.59c0-1.33,0.45-3.23,2.6-4.7c0.61-0.41,1.22-0.77,1.83-1.1h-35.65c1.37,0.71,3,2.19,3.18,5.16
			c0.15,2.44-0.87,4.42-2.88,5.58c-10.35,5.81-22.3,11-35.55,15.42C939.11,1039.49,937.75,1039.69,936.42,1039.69z M1029.59,998.74
			v-6.17l-71.38,0v6.17L1029.59,998.74z M1029.59,978.74v-6l-71.38,0v6L1029.59,978.74z M1029.59,959.08v-5.66l-71.38,0v5.66
			L1029.59,959.08z M1033.74,939.08c-8.35-4.18-14.82-9.78-19.31-16.72c-4.98,7-12.62,12.59-22.81,16.72H1033.74z M930.45,941.39
			c-1.46,0-2.92-0.35-4.34-1.05c-2.32-1.11-4.02-2.94-5.05-5.44c-0.42-1.04-0.62-2.15-0.62-3.3c0-1.17,0.26-2.39,0.78-3.64
			l0.06-0.12c1.1-2.23,2.86-3.67,5.23-4.27c6.78-1.69,17.7-4.7,32.45-8.97l0.14-0.03c0.68-0.14,1.27-0.21,1.83-0.21
			c1.48,0,2.83,0.47,4.01,1.4c1.81,1.24,2.85,3.08,3.01,5.33c0.24,2.21-0.18,4.31-1.27,6.24c-1.14,2.02-2.8,3.41-4.95,4.14
			c-4.36,1.57-13.62,4.68-28.28,9.5l-0.1,0.03C932.33,941.25,931.36,941.39,930.45,941.39z M958.25,907.83
			c-1.38,0-2.76-0.37-4.09-1.09c-6.42-3.07-13.69-6.07-21.55-8.86c-2.06-0.79-3.5-2.29-4.21-4.37c-0.72-2.08-0.49-4.16,0.66-6.02
			c1.27-2.05,2.96-3.52,5.03-4.36c1.23-0.44,2.41-0.65,3.58-0.65c0.82,0,1.66,0.06,2.5,0.19l0.16,0.02l0.15,0.05
			c7.78,2.5,15.2,5.32,22.04,8.38c2.17,0.88,3.72,2.69,4.41,5.2c0.25,0.81,0.39,1.69,0.39,2.56c0,1.5-0.41,2.87-1.23,4.08
			c-1.19,2.23-2.94,3.72-5.19,4.43C959.97,907.69,959.08,907.83,958.25,907.83z"/>
		<path class="st11" d="M1166.18,1041.05c-2.47,0-4.71-0.85-6.65-2.52c-1.84-1.59-3.2-3.65-4.04-6.12
			c-0.71-2.31-0.49-4.42,0.65-6.33c1.2-2.02,3.04-3.1,5.33-3.1h14.21c0.86-0.08,1.28-0.2,1.47-0.27c0.03-0.12,0.07-0.37,0.07-0.78
			v-17.32l-47.85,0c3.57,2.81,6.74,5.58,9.48,8.27c1.73,1.58,2.64,3.68,2.64,6.17c0,2.8-0.94,5.16-2.78,7.01l-0.06,0.06l-0.06,0.05
			c-1.83,1.55-3.85,2.34-6,2.34h-0.53l-0.06,0c-2.38-0.14-4.5-1.14-6.32-2.96c-3.59-3.54-7.81-7.19-12.53-10.85
			c-2.19-1.77-3.29-4.12-3.29-7c0-1.1,0.19-2.13,0.58-3.08h-22.77c-2.25,0-4.22-0.9-5.86-2.67c-1.6-1.73-2.42-3.82-2.42-6.19
			c0-2.39,0.82-4.46,2.45-6.13c1.65-1.7,3.61-2.56,5.84-2.56h89.56v-5.66l-7.27,0c-4.33,0-8.08-1.67-11.13-4.96
			c-3.01-3.25-4.54-7.21-4.54-11.78v-6.78c0-4.57,1.53-8.53,4.54-11.78c3.05-3.29,6.79-4.96,11.13-4.96h33.92
			c4.33,0,8.08,1.67,11.13,4.96c3.01,3.25,4.54,7.21,4.54,11.78v6.78c0,4.57-1.53,8.53-4.54,11.78c-3.05,3.29-6.79,4.96-11.13,4.96
			h-7.89v5.66l24.07,0c2.23,0,4.19,0.86,5.83,2.56c1.62,1.68,2.45,3.74,2.45,6.14c0,2.38-0.81,4.46-2.42,6.19
			c-1.64,1.77-3.62,2.67-5.86,2.67h-24.07v17.83c0,4.4-0.58,7.76-1.76,10.26c-1.27,2.68-3.55,4.65-6.76,5.85
			c-4.01,1.56-10.91,2.38-21.09,2.5h-0.01H1166.18z M1195.99,1004.14L1195.99,1004.14z M1200.62,966.54V955.8l-28.35,0v10.74
			L1200.62,966.54z M1091.02,984.96c-1.93,0-3.68-0.73-5.21-2.17c-1.6-1.51-2.54-3.37-2.81-5.53l-0.01-0.12
			c-0.14-2.18,0.48-4.18,1.83-5.92c1.42-1.84,3.32-2.81,5.51-2.81c6.8-0.33,12.61-0.66,17.16-0.99v-10.94l-14.96,0
			c-2.01,0-3.82-0.81-5.24-2.34c-1.39-1.5-2.1-3.33-2.1-5.43c0-2.11,0.72-3.92,2.14-5.38c1.43-1.47,3.18-2.21,5.2-2.21h48.68
			c2.02,0,3.77,0.74,5.2,2.21c1.42,1.46,2.14,3.27,2.14,5.38c0,2.09-0.71,3.92-2.1,5.43c-1.42,1.53-3.23,2.34-5.24,2.34h-15.75v9.88
			c8.63-0.55,14.81-1,18.39-1.33c0.22-0.02,0.39-0.02,0.57-0.02c1.85,0,3.52,0.75,4.85,2.18c1.4,1.51,2.11,3.34,2.11,5.43
			c0,2.06-0.69,3.92-2.04,5.53c-1.4,1.67-3.14,2.59-5.15,2.74c-14.63,1.23-32.33,2.6-52.62,4.07
			C1091.38,984.96,1091.2,984.96,1091.02,984.96z M1103.99,937.66c-1.91,0-3.64-0.78-5-2.25c-1.34-1.45-2.02-3.21-2.02-5.26
			c0-2.04,0.68-3.81,2.03-5.26c1.37-1.47,3.09-2.25,5-2.25h84.85V918l-80.14,0c-1.8,0-3.45-0.75-4.76-2.17
			c-1.29-1.39-1.95-3.11-1.95-5.09c0-1.98,0.66-3.69,1.95-5.09c1.31-1.42,2.96-2.17,4.77-2.17h80.14v-4.64l-84.06,0
			c-1.91,0-3.64-0.78-5-2.25c-1.34-1.44-2.02-3.18-2.02-5.17c0-1.98,0.68-3.72,2.03-5.17c1.37-1.47,3.09-2.25,5-2.25h87
			c4.33,0,8.07,1.67,11.13,4.96c3.01,3.25,4.54,7.21,4.54,11.78v20.17c0,4.57-1.53,8.53-4.54,11.78c-3.05,3.29-6.8,4.96-11.13,4.96
			H1103.99z"/>
		<path class="st11" d="M1370.08,1040.03l-0.1-0.01c-13.53-1.4-24.54-10.61-32.74-27.37c-7.78,7.08-15.88,13.16-24.13,18.11
			c-1.9,1.09-3.82,1.64-5.74,1.64c-0.83,0-1.64-0.07-2.39-0.2l-0.11-0.02c-2.79-0.66-5.25-2.11-7.29-4.32
			c-1.5-1.62-2.26-3.5-2.26-5.6v-1l0.02-0.15c0.41-2.64,1.79-4.66,4.01-5.86c10.68-5.65,20.83-13.18,30.17-22.38l0.07-0.07
			l0.07-0.06c0.16-0.13,0.24-0.19,0.12-0.62c-3.66-12.84-6.78-29.62-9.29-49.85l-13.49,1.49h-0.9c-2.18,0-4.11-0.74-5.74-2.21
			c-1.94-1.67-3.06-3.88-3.32-6.55l-0.01-0.1v-0.94c0-2.25,0.67-4.26,1.99-5.97c1.57-2.12,3.67-3.35,6.22-3.65l13.61-1.32
			c-1.35-17.69-2.03-29.4-2.03-34.83c0-2.51,0.79-4.72,2.36-6.55c1.91-2.06,4.2-3.07,6.86-3.07c2.65,0,4.96,1,6.86,2.99
			c1.86,1.94,2.86,4.31,2.99,7.05c0.41,12.55,1.03,23.4,1.85,32.29l39.24-4.33c0.45-0.13,0.91-0.2,1.36-0.2
			c2.08,0,4.01,0.8,5.75,2.39c1.83,1.7,2.89,3.83,3.15,6.36l0.01,0.1v0.95c0,2.25-0.67,4.26-1.99,5.97
			c-1.57,2.12-3.62,3.35-6.06,3.65l-39.52,4.35c1.52,12.97,3.5,24.68,5.9,34.86c6.34-8.57,11.62-17.18,15.73-25.63
			c1.04-2.4,2.84-4.03,5.31-4.77l0.11-0.03l0.12-0.02c0.76-0.13,1.44-0.2,2.08-0.2c1.54,0,3.01,0.45,4.38,1.34
			c2.21,1.4,3.66,3.46,4.31,6.12c0.24,0.92,0.37,1.89,0.37,2.85c0,1.5-0.32,3.02-0.94,4.5c-6.26,13.06-14.49,25.69-24.5,37.63
			c-0.24,0.27-0.29,0.34-0.16,0.66c4.98,11.92,10.8,18.46,17.3,19.44h0.17c0.32,0,1.16-0.67,2.04-3.23
			c1.1-3.03,2.02-7.78,2.73-14.15c0.3-2.42,1.55-4.17,3.62-5.08c0.83-0.36,1.68-0.55,2.52-0.55c1.22,0,2.42,0.38,3.55,1.14
			c2.29,1.56,4.05,3.59,5.25,6.04c0.87,1.88,1.3,3.82,1.3,5.79c0,0.84-0.13,1.63-0.37,2.37c-1.95,11.39-4.52,19.2-7.85,23.88
			c-3.2,4.6-7.02,6.94-11.37,6.94H1370.08z M1255.86,1039.52c-2.37,0-4.55-0.85-6.49-2.52c-1.84-1.59-3.2-3.65-4.04-6.12
			c-0.71-2.28-0.42-4.52,0.82-6.53c1.31-2.12,3.25-3.24,5.63-3.24c2.72,0.11,5.56,0.17,8.54,0.17c0.65-0.07,0.89-0.21,0.94-0.24
			c-0.01-0.02,0.14-0.37,0.14-1.32v-38.25l-9.63,2.86c-0.82,0.29-1.72,0.44-2.66,0.44c-1.64,0-3.21-0.5-4.68-1.49
			c-2.23-1.3-3.69-3.3-4.33-5.97c-0.24-0.91-0.37-1.82-0.37-2.68c0-1.66,0.39-3.28,1.16-4.8l0.05-0.1c1.31-2.26,3.24-3.77,5.74-4.48
			c6.04-1.46,10.94-2.75,14.67-3.87c0.03-0.03,0.06-0.13,0.06-0.31v-30.37l-12.45,0c-2.46,0-4.59-0.96-6.34-2.85
			c-1.71-1.84-2.57-4.09-2.57-6.7c0-2.61,0.88-4.85,2.6-6.64c1.75-1.81,3.87-2.73,6.31-2.73h12.45v-24.1c0-2.67,0.93-4.99,2.76-6.9
			c1.85-1.92,4.08-2.9,6.62-2.9c2.54,0,4.77,0.98,6.62,2.9c1.83,1.9,2.76,4.22,2.76,6.9v24.1l9.46,0c2.56,0,4.71,0.93,6.41,2.76
			c1.66,1.79,2.5,4.02,2.5,6.62c0,2.59-0.83,4.83-2.47,6.67c-1.7,1.91-3.86,2.87-6.44,2.87h-9.46v25.3c0.65-0.17,1.7-0.47,3.38-0.99
			c2.4-0.73,4.24-1.26,5.61-1.6c0.73-0.29,1.52-0.43,2.35-0.43c1.46,0,2.91,0.52,4.29,1.55c2.03,1.34,3.24,3.41,3.51,6.01l0.01,0.1
			v1.29c0,1.93-0.51,3.8-1.52,5.57c-1.3,2.24-3.2,3.8-5.65,4.63c-5.8,1.82-9.77,3.06-11.98,3.74c0.01,0.01-0.02,0.11-0.02,0.3v43.73
			c0,4.61-0.51,8.05-1.57,10.53c-1.12,2.63-3.07,4.64-5.78,5.99c-3.35,1.85-8.78,2.87-16.57,3.11l-0.03,0H1255.86z M1365.47,915.63
			c-0.66,0-1.28-0.07-1.84-0.21c-2.46-0.44-4.5-1.73-6.05-3.82c-3.18-4.21-7.15-9-11.79-14.23c-1.63-1.64-2.39-3.79-2.19-6.2
			c0.21-2.45,1.34-4.45,3.29-5.8c1.8-1.25,3.76-1.88,5.85-1.88l0.9,0c2.51,0.14,4.66,1.16,6.38,3.01c4.57,4.71,8.77,9.3,12.46,13.62
			l0.06,0.08c1.32,1.71,1.99,3.72,1.99,5.97v1.16l-0.02,0.14c-0.39,2.68-1.66,4.83-3.77,6.4
			C1369.13,915.04,1367.36,915.63,1365.47,915.63z"/>
	</g>
</g>
<path class="st12" d="M670.15,1048.89h-74.22c-28.48,0-51.56-23.09-51.56-51.56V923.1c0-28.48,23.09-51.56,51.56-51.56h74.22
	c28.48,0,51.56,23.09,51.56,51.56v74.22C721.71,1025.8,698.62,1048.89,670.15,1048.89z"/>
<polygon class="st13" points="660.84,986.94 751.61,839.99 725.16,821.45 635.2,967.1 582.05,925.99 564.81,951.11 643.98,1012.35 
	645.41,1010.26 646.12,1010.76 655.61,995.4 661.22,987.23 "/>
</svg>
