<?xml version="1.0" encoding="utf-8"?>
<!-- Generator: Adobe Illustrator 23.0.5, SVG Export Plug-In . SVG Version: 6.00 Build 0)  -->
<svg version="1.1" id="圖層_1" xmlns="http://www.w3.org/2000/svg" xmlns:xlink="http://www.w3.org/1999/xlink" x="0px" y="0px"
	 viewBox="0 0 1920 1080" style="enable-background:new 0 0 1920 1080;" xml:space="preserve">
<style type="text/css">
	.st0{fill:#A36335;}
	.st1{fill:#E59941;}
	.st2{fill:#FFF0D9;}
	.st3{fill:#FFFFFF;stroke:#000000;stroke-width:3;stroke-miterlimit:10;}
	.st4{fill:#FFFFFF;stroke:#000000;stroke-width:6;stroke-miterlimit:10;}
	.st5{fill:none;}
	.st6{fill:#FFC200;}
	.st7{fill:#FFFFFF;}
	.st8{fill:#AE845D;}
	.st9{fill:#E3B36C;}
	.st10{fill:#D18F62;}
	.st11{fill:#322C26;}
	.st12{fill:#FEB487;}
	.st13{fill:#FFFEFF;stroke:#000000;stroke-miterlimit:10;}
	.st14{fill:#7E5C42;}
	.st15{fill:#FDFFFE;}
	.st16{fill:#4B91AA;}
	.st17{fill:#0076AC;}
	.st18{fill:#9B3C0E;}
	.st19{fill:#FC9371;}
	.st20{fill:#2B0D09;}
	.st21{fill:#FDFCF4;stroke:#050505;stroke-miterlimit:10;}
	.st22{fill:#69250B;}
	.st23{fill:#AE5A3A;}
	.st24{fill:#FEFBF5;}
	.st25{fill:#050505;}
	.st26{fill:#491420;}
	.st27{fill:#EB9B80;}
	.st28{fill:#F4E4BD;}
	.st29{fill:#544118;stroke:#000000;stroke-miterlimit:10;}
	.st30{fill:#FFC200;stroke:#FFC200;stroke-width:0.5;stroke-miterlimit:10;}
	.st31{font-family:'irohamaru-Medium';}
	.st32{font-size:21.8562px;}
	.st33{fill:#FFFFFF;stroke:#FCFCFC;stroke-width:0.5;stroke-miterlimit:10;}
	.st34{font-size:21.3443px;}
	.st35{fill:#FFFFFF;stroke:#FFFFFF;stroke-width:0.5;stroke-miterlimit:10;}
	.st36{fill:#5A2A16;}
	.st37{fill:#F9D364;}
	.st38{fill:#FBA364;}
	.st39{fill:#FDFFFE;stroke:#000000;stroke-width:2;stroke-miterlimit:10;}
	.st40{fill:#C26A2B;}
	.st41{fill:#FC5406;stroke:#000000;stroke-width:2;stroke-miterlimit:10;}
	.st42{fill:#D5160C;}
	.st43{fill:#7FEF6C;}
</style>
<g>
	<g>
		<path class="st0" d="M479.06,1056.64c-22.37,5.18-53.06,10.05-89.58,9.28c-29.47-0.63-54.66-4.74-74.23-9.28
			c0-344.53,0-689.06,0-1033.59c22.23-3.77,49.48-6.81,80.62-6.89c32.25-0.08,60.39,3.03,83.18,6.89
			C479.06,367.58,479.06,712.11,479.06,1056.64z"/>
		<path class="st0" d="M1616.75,1055.48c-22.37,5.19-53.06,10.05-89.58,9.28c-29.47-0.63-54.66-4.74-74.23-9.28
			c0-344.53,0-689.06,0-1033.59c22.23-3.77,49.48-6.81,80.62-6.89c32.25-0.08,60.39,3.03,83.18,6.89
			C1616.75,366.42,1616.75,710.95,1616.75,1055.48z"/>
		<rect x="154" y="49.8" class="st1" width="1624" height="886.21"/>
		<rect x="224.39" y="78.8" class="st2" width="1483.23" height="807.33"/>
	</g>
	<g>
		<g>
			<path class="st0" d="M803.34,146.14c0.29-0.05,0.61-0.08,0.96-0.08c0.59,0,1.16,0.16,1.75,0.48c0.82,0.48,1.32,1.16,1.48,2.06
				c0.05,0.21,0.09,0.43,0.09,0.64c0,0.74-0.23,1.45-0.7,2.15c-0.59,0.79-1.39,1.35-2.44,1.67l-5.77,1.67
				c-0.59,0.16-0.87,0.5-0.87,1.03v20.77c0,2.01-0.24,3.57-0.74,4.67c-0.5,1.11-1.33,1.93-2.5,2.46c-1.69,0.89-4.22,1.4-7.61,1.51
				c-0.06,0-0.12,0-0.18,0c-1.11,0-2.1-0.31-2.97-0.95c-1-0.68-1.66-1.59-2.01-2.69c-0.29-0.9-0.14-1.72,0.44-2.46
				c0.59-0.74,1.34-1.08,2.28-1.03c1.16,0,2.39,0,3.67,0c0.64,0,1.08-0.1,1.32-0.31c0.23-0.21,0.35-0.6,0.35-1.19v-18.56
				c0-0.21-0.09-0.38-0.27-0.51s-0.38-0.15-0.61-0.03l-4.9,1.35c-0.41,0.1-0.79,0.16-1.14,0.16c-0.64,0-1.28-0.16-1.92-0.48
				c-0.93-0.48-1.55-1.22-1.84-2.22c-0.06-0.31-0.09-0.6-0.09-0.87c0-0.68,0.2-1.35,0.61-1.98c0.59-0.89,1.46-1.48,2.62-1.74
				c0.64-0.16,2.85-0.74,6.65-1.74c0.59-0.16,0.87-0.5,0.87-1.03v-14.51c0-0.53-0.29-0.79-0.87-0.79h-5.61
				c-1.05,0-1.96-0.35-2.71-1.03c-0.76-0.68-1.14-1.52-1.14-2.49c0-0.97,0.38-1.8,1.14-2.46c0.76-0.66,1.66-0.99,2.71-0.99H789
				c0.59,0,0.87-0.27,0.87-0.79v-11.34c0-0.95,0.4-1.79,1.18-2.49s1.71-1.07,2.8-1.07c1.08,0,2.01,0.36,2.8,1.07
				s1.18,1.54,1.18,2.49v11.34c0,0.53,0.29,0.79,0.87,0.79h5.68c1.05,0,1.96,0.34,2.71,0.99c0.76,0.66,1.14,1.48,1.14,2.46
				c0,0.97-0.38,1.81-1.14,2.49c-0.76,0.68-1.66,1.03-2.71,1.03h-5.68c-0.59,0-0.87,0.27-0.87,0.79v12.53
				c0,0.21,0.09,0.37,0.27,0.48c0.18,0.1,0.38,0.13,0.61,0.08L803.34,146.14z M811.75,120.5c-0.76-0.66-1.14-1.46-1.14-2.41
				s0.38-1.75,1.14-2.41c0.76-0.66,1.64-0.99,2.62-0.99h36.31c2.1,0,3.88,0.68,5.34,2.06c1.34,1.26,2.01,2.75,2.01,4.44
				c0,5.19-0.5,10.75-1.48,16.73c-0.59,3.33-1.39,5.58-2.44,6.74c-1.39,1.53-3.38,2.44-5.95,2.69c-1.28,0.1-3.24,0.16-5.86,0.16
				c-0.06,0-0.12,0-0.18,0c-1.11,0-2.11-0.36-3.02-1.07c-0.91-0.72-1.54-1.6-1.88-2.66c-0.23-0.79-0.09-1.53,0.44-2.22
				c0.52-0.68,1.23-1.01,2.1-0.95c1.34,0.06,2.83,0.08,4.47,0.08c1.34,0,2.3-0.31,2.89-0.95c1.28-1.16,2.21-6.98,2.8-17.45
				c0.05-0.21,0-0.39-0.18-0.56c-0.18-0.16-0.38-0.24-0.61-0.24h-15.14c-0.59,0-0.91,0.27-0.96,0.79
				c-0.93,5.87-2.64,10.89-5.12,15.07c-2.48,4.18-6.31,7.64-11.5,10.39c-0.64,0.31-1.28,0.48-1.92,0.48c-0.41,0-0.82-0.05-1.23-0.16
				c-1.11-0.27-2.05-0.85-2.8-1.74c-0.47-0.53-0.7-1.14-0.7-1.82c0-0.21,0.03-0.39,0.09-0.56c0.18-0.89,0.67-1.59,1.48-2.06
				c4.15-2.11,7.2-4.78,9.19-8c1.98-3.22,3.35-7.09,4.11-11.58c0-0.21-0.08-0.39-0.22-0.56c-0.14-0.16-0.33-0.24-0.56-0.24h-9.44
				C813.38,121.48,812.51,121.16,811.75,120.5z M817.25,185.15c-1.11,0-2.06-0.36-2.84-1.07c-0.78-0.71-1.18-1.58-1.18-2.58v-22.84
				c0-1.9,0.74-3.53,2.23-4.87c1.48-1.35,3.28-2.02,5.38-2.02h28.6c2.1,0,3.89,0.67,5.37,2.02c1.48,1.35,2.23,2.97,2.23,4.87v22.36
				c0,1.06-0.41,1.96-1.23,2.69c-0.82,0.74-1.8,1.11-2.97,1.11h-0.87c-0.87,0-1.64-0.29-2.28-0.87c-0.64-0.58-0.96-1.3-0.96-2.15
				c-0.06-0.21-0.23-0.31-0.52-0.31h-26.5c-0.29,0-0.44,0.13-0.44,0.39c0,0.89-0.35,1.67-1.05,2.3c-0.7,0.63-1.55,0.95-2.53,0.95
				H817.25z M848.75,159.31c0-0.53-0.29-0.79-0.87-0.79h-25.63c-0.59,0-0.91,0.27-0.96,0.79v14.59c0,0.53,0.32,0.79,0.96,0.79h25.63
				c0.59,0,0.87-0.27,0.87-0.79V159.31z"/>
			<path class="st0" d="M948.57,153.52c0.64,0.58,0.96,1.26,0.96,2.06c0,0.8-0.32,1.5-0.96,2.1c-0.64,0.6-1.43,0.92-2.37,0.92h-13.3
				c-0.12,0-0.2,0.07-0.27,0.2c-0.06,0.13-0.03,0.22,0.09,0.28c4.2,2.75,9.3,5.02,15.31,6.82c0.87,0.27,1.43,0.79,1.66,1.59
				c0.05,0.27,0.09,0.5,0.09,0.72c0,0.58-0.2,1.11-0.61,1.59c-0.82,0.9-1.8,1.53-2.97,1.9c-0.52,0.16-1.05,0.24-1.57,0.24
				c-0.64,0-1.28-0.1-1.92-0.31c-2.44-0.95-4.84-2.03-7.18-3.25c-0.18-0.1-0.35-0.12-0.52-0.03c-0.18,0.08-0.27,0.22-0.27,0.44
				c-0.82,7.67-2.07,12.32-3.76,13.95c-1.52,1.22-3.53,1.9-6.04,2.06c-1.05,0.05-2.48,0.08-4.29,0.08c-0.82,0-1.71,0-2.71,0
				c-1,0-1.88-0.3-2.66-0.92c-0.79-0.6-1.33-1.39-1.61-2.34c-0.23-0.68-0.12-1.32,0.35-1.9c0.46-0.58,1.08-0.85,1.84-0.79
				c2.16,0.1,4.06,0.16,5.68,0.16c1.28,0,2.24-0.21,2.89-0.64c0.87-0.79,1.55-3.1,2.01-6.9c0.05-0.21,0-0.39-0.18-0.56
				c-0.18-0.16-0.38-0.24-0.61-0.24h-16.01c-0.59,0-1.02,0.24-1.32,0.72c-1.87,3.22-4.59,5.92-8.18,8.08
				c-3.58,2.17-8.47,3.93-14.65,5.31c-0.35,0.1-0.7,0.16-1.05,0.16c-0.7,0-1.37-0.16-2.01-0.48c-1-0.43-1.8-1.08-2.44-1.98
				c-0.47-0.64-0.55-1.32-0.27-2.06c0.29-0.74,0.87-1.19,1.75-1.35c8.46-1.64,14.35-4.26,17.67-7.85c0.12-0.1,0.13-0.22,0.04-0.36
				c-0.09-0.13-0.22-0.2-0.4-0.2h-12.52c-0.76,0-1.42-0.26-1.97-0.75c-0.55-0.5-0.83-1.13-0.83-1.87c0-0.16-0.09-0.19-0.27-0.08
				c-1.98,0.9-4.22,1.82-6.73,2.77c-0.59,0.21-1.14,0.31-1.66,0.31c-0.47,0-0.96-0.08-1.48-0.24c-1-0.31-1.84-0.87-2.53-1.67
				c-0.41-0.48-0.61-0.97-0.61-1.51c0-0.16,0.03-0.35,0.09-0.56c0.18-0.79,0.67-1.32,1.48-1.59c5.54-1.84,10.24-4.01,14.09-6.51
				c0.12-0.05,0.14-0.15,0.09-0.28c-0.06-0.13-0.18-0.2-0.35-0.2h-11.9c-0.93,0-1.71-0.3-2.37-0.92c-0.64-0.6-0.96-1.31-0.96-2.1
				c0-0.79,0.32-1.48,0.96-2.06c0.64-0.58,1.43-0.87,2.37-0.87h19.07c0.59,0,1.05-0.21,1.39-0.64c0.7-0.85,1.34-1.69,1.92-2.54
				c0.05-0.16,0.04-0.31-0.04-0.48s-0.24-0.24-0.49-0.24h-7.44c-2.1,0-3.89-0.67-5.37-2.02c-1.48-1.35-2.23-2.97-2.23-4.87v-8.64
				c0-1.9,0.74-3.53,2.23-4.87c1.48-1.35,3.28-2.02,5.37-2.02h44.09c2.1,0,3.89,0.67,5.37,2.02s2.23,2.97,2.23,4.87v8.64
				c0,1.9-0.74,3.53-2.23,4.87s-3.28,2.02-5.37,2.02H906.2c-0.59,0-1.02,0.24-1.32,0.72c-0.59,1.01-1.11,1.86-1.57,2.54
				c-0.12,0.16-0.13,0.3-0.04,0.44c0.09,0.13,0.22,0.2,0.4,0.2h42.51C947.14,152.65,947.93,152.94,948.57,153.52z M894.42,125.21
				c-0.93,0-1.75-0.31-2.44-0.95s-1.05-1.37-1.05-2.22c0-0.27-0.14-0.39-0.44-0.39h-15.57c-0.93,0-1.71-0.29-2.37-0.87
				c-0.64-0.58-0.96-1.28-0.96-2.1c0-0.82,0.32-1.53,0.96-2.15c0.64-0.6,1.43-0.92,2.37-0.92h15.4c0.41,0,0.61-0.16,0.61-0.48v-0.79
				c0-1.01,0.4-1.87,1.18-2.58s1.74-1.07,2.84-1.07c1.11,0,2.06,0.37,2.84,1.11c0.79,0.74,1.18,1.59,1.18,2.54v0.79
				c0,0.31,0.2,0.48,0.61,0.48h20.3c0.41,0,0.61-0.16,0.61-0.48v-0.72c0-1.06,0.4-1.94,1.18-2.66c0.78-0.72,1.75-1.07,2.89-1.07
				c1.14,0,2.11,0.37,2.93,1.11c0.82,0.74,1.23,1.61,1.23,2.62v0.72c0,0.31,0.18,0.48,0.52,0.48h15.66c0.93,0,1.71,0.3,2.37,0.92
				c0.64,0.6,0.96,1.32,0.96,2.15c0,0.82-0.32,1.52-0.96,2.1c-0.64,0.58-1.43,0.87-2.37,0.87h-15.74c-0.29,0-0.44,0.13-0.44,0.39
				c0,0.85-0.35,1.59-1.05,2.22c-0.7,0.63-1.52,0.95-2.44,0.95h-1.23c-0.93,0-1.75-0.31-2.44-0.95c-0.69-0.64-1.05-1.37-1.05-2.22
				c0-0.27-0.14-0.39-0.44-0.39h-20.64c-0.29,0-0.44,0.13-0.44,0.39c0,0.85-0.37,1.59-1.09,2.22c-0.73,0.64-1.54,0.95-2.41,0.95
				h-1.09V125.21z M889.43,131.08c-0.59,0-0.91,0.27-0.96,0.79v2.69c0,0.53,0.32,0.79,0.96,0.79h41.21c0.59,0,0.87-0.27,0.87-0.79
				v-2.69c0-0.53-0.29-0.79-0.87-0.79H889.43z M889.43,139.72c-0.59,0-0.91,0.27-0.96,0.79v2.85c0,0.53,0.32,0.79,0.96,0.79h41.21
				c0.59,0,0.87-0.27,0.87-0.79v-2.85c0-0.53-0.29-0.79-0.87-0.79H889.43z M910.96,164.54c-0.12,0.37,0.03,0.56,0.44,0.56h17.85
				c0.18,0,0.28-0.05,0.31-0.16c0.03-0.1-0.01-0.21-0.13-0.31c-2.21-1.48-4.4-3.31-6.57-5.47c-0.41-0.37-0.91-0.56-1.48-0.56h-23.1
				c-0.59,0-1.08,0.19-1.48,0.56c-2.51,2.17-4.95,3.99-7.35,5.47c-0.12,0.1-0.14,0.21-0.09,0.31c0.05,0.1,0.12,0.16,0.18,0.16h12.43
				c0.41,0,0.67-0.17,0.79-0.51c0.12-0.35,0.2-0.7,0.27-1.07c0.29-1.06,0.88-1.91,1.79-2.58c0.91-0.66,1.91-0.99,3.02-0.99
				c1.11,0,2.01,0.37,2.71,1.11c0.52,0.58,0.79,1.19,0.79,1.82c0,0.21-0.03,0.43-0.09,0.64
				C911.1,163.88,911.01,164.23,910.96,164.54z"/>
			<path class="st0" d="M1032.64,138.14c0.7-0.68,1.55-1.06,2.53-1.11c0.05,0,0.12,0,0.18,0c1,0,1.84,0.31,2.53,0.95
				c0.76,0.64,1.14,1.43,1.14,2.38s-0.41,1.77-1.23,2.46c-3.1,2.54-6.59,5.15-10.49,7.85c-0.47,0.31-0.59,0.72-0.35,1.19
				c3.15,7.03,6.97,12.55,11.47,16.58c0.87,0.74,1.32,1.64,1.32,2.69c0,0.95-0.38,1.8-1.14,2.54c-0.76,0.79-1.69,1.24-2.8,1.35
				c-0.12,0-0.27,0-0.44,0c-0.93,0-1.75-0.31-2.44-0.95c-8.87-8.35-15.16-22.22-18.9-41.63c-0.05-0.16-0.18-0.27-0.35-0.31
				c-0.18-0.05-0.32-0.02-0.44,0.08c-1.75,1.69-3.7,3.35-5.86,5c-0.47,0.37-0.5,0.74-0.09,1.11c3.85,3.28,6.91,7.18,9.19,11.69
				c2.28,4.51,3.62,8.87,4.02,13.05c0.12,1.43,0.18,2.81,0.18,4.12c0,2.54-0.27,4.94-0.79,7.21c-0.76,3.43-2.07,5.92-3.94,7.46
				c-2.28,2.11-5.31,3.22-9.1,3.33c-0.7,0-1.46-0.02-2.28-0.08c-1.11,0-2.07-0.37-2.89-1.11c-0.82-0.74-1.37-1.64-1.66-2.69
				c-0.23-0.74-0.09-1.43,0.44-2.06c0.52-0.64,1.19-0.93,2.01-0.87c1.05,0.06,2.01,0.08,2.89,0.08c2.1,0,3.67-0.68,4.72-2.06
				c1.05-1.01,1.8-2.69,2.28-5.08c0.29-1.32,0.44-2.77,0.44-4.36c0-1.22-0.05-2.46-0.18-3.72c-0.05-0.16-0.18-0.27-0.35-0.31
				c-0.18-0.05-0.35-0.02-0.52,0.08c-6.59,5.87-13.77,10.73-21.53,14.59c-0.7,0.27-1.39,0.39-2.1,0.39c-0.41,0-0.79-0.02-1.14-0.08
				c-1.05-0.27-1.96-0.79-2.71-1.59c-0.59-0.64-0.79-1.35-0.61-2.15s0.67-1.37,1.48-1.74c4.61-1.84,9.18-4.27,13.69-7.25
				c4.52-2.98,8.24-6.04,11.15-9.16c0.35-0.42,0.44-0.87,0.27-1.35c-0.41-1.06-0.96-2.25-1.66-3.57c-0.12-0.21-0.28-0.32-0.49-0.36
				c-0.2-0.02-0.4,0.01-0.58,0.12c-3.85,3.06-8.02,5.95-12.52,8.64c-0.87,0.48-1.78,0.74-2.71,0.79c-0.41,0-0.82-0.05-1.23-0.16
				c-1.34-0.31-2.48-0.97-3.42-1.98c-0.05-0.1-0.14-0.13-0.27-0.08c-0.12,0.06-0.18,0.13-0.18,0.24c-0.47,3.22-1.64,5.42-3.49,6.58
				c-1.39,0.85-3.03,1.38-4.9,1.59c-0.59,0.1-1.28,0.16-2.1,0.16c-0.05,0-0.12,0-0.18,0c-0.93,0-1.78-0.31-2.53-0.95
				c-0.82-0.64-1.37-1.45-1.66-2.46c-0.18-0.74-0.03-1.42,0.44-2.02c0.47-0.6,1.11-0.92,1.92-0.92c0.29,0,0.59-0.05,0.87-0.16
				c1.05,0,1.96-0.24,2.71-0.72c1.11-0.68,1.66-2.38,1.66-5.08c0-3.28-0.93-6.47-2.8-9.59c-1.75-2.91-2.62-5.68-2.62-8.33
				c0-1.32,0.2-2.59,0.61-3.8c1.11-3.12,2.3-6.74,3.58-10.87c0.05-0.21,0.01-0.39-0.13-0.56c-0.15-0.16-0.31-0.24-0.49-0.24h-7.87
				c-0.59,0-0.87,0.27-0.87,0.79v60.18c0,0.89-0.37,1.68-1.09,2.34c-0.73,0.66-1.59,0.99-2.59,0.99s-1.86-0.34-2.59-0.99
				c-0.73-0.66-1.09-1.44-1.09-2.34v-60.9c0-1.9,0.74-3.53,2.23-4.87c1.48-1.35,3.28-2.02,5.37-2.02h11.99c0.05,0,0.14,0,0.27,0
				c0.76-0.16,1.46-0.08,2.1,0.24l1.75,0.95c0.76,0.43,1.32,1.02,1.66,1.79c0.35,0.77,0.38,1.54,0.09,2.34
				c-2.97,7.93-5.36,13.98-7.18,18.15c-0.23,0.48-0.18,0.93,0.18,1.35c4.61,5.02,6.91,10.44,6.91,16.25c0,0.21,0.09,0.36,0.27,0.44
				c0.18,0.08,0.35,0.09,0.52,0.03c6-2.69,11.31-5.95,15.92-9.76c0.47-0.37,0.5-0.77,0.09-1.19c-0.76-0.89-1.6-1.77-2.53-2.62
				c-0.35-0.37-0.79-0.39-1.32-0.08c-2.28,1.43-4.7,2.81-7.26,4.12c-0.7,0.37-1.39,0.53-2.1,0.48c-0.35,0-0.7,0-1.05,0
				c-1.05-0.27-1.96-0.79-2.71-1.59c-0.59-0.64-0.79-1.37-0.61-2.22s0.7-1.45,1.57-1.82c6.41-2.85,11.99-6.21,16.71-10.07
				c0.12-0.05,0.14-0.15,0.09-0.28c-0.05-0.13-0.14-0.2-0.27-0.2h-13.48c-1,0-1.84-0.31-2.53-0.95c-0.69-0.64-1.05-1.4-1.05-2.3
				c0-0.89,0.35-1.67,1.05-2.3c0.7-0.63,1.55-0.95,2.53-0.95h7c0.23,0,0.41-0.08,0.52-0.24c0.12-0.16,0.14-0.35,0.09-0.56
				c-0.76-2.22-1.87-4.59-3.33-7.13c-0.47-0.74-0.54-1.51-0.22-2.3s0.92-1.32,1.79-1.59c0.52-0.16,1.04-0.24,1.54-0.24
				c0.5,0,1.01,0.08,1.54,0.24c1,0.31,1.75,0.9,2.28,1.74c1.46,2.33,2.62,4.57,3.49,6.74c0.23,0.64,0.18,1.26-0.18,1.9
				c-0.36,0.64-0.87,1.08-1.57,1.35c-0.05,0-0.09,0.01-0.09,0.03c0,0.02,0.03,0.03,0.09,0.03h17.58c0.05,0,0.09-0.01,0.09-0.03
				c0-0.02-0.03-0.03-0.09-0.03c-0.76-0.27-1.28-0.73-1.57-1.39c-0.29-0.66-0.23-1.31,0.18-1.94c1.28-2.17,2.37-4.26,3.24-6.26
				c0.47-0.95,1.23-1.67,2.28-2.15c0.64-0.31,1.28-0.48,1.92-0.48c0.41,0,0.82,0.06,1.23,0.16c1.05,0.27,1.8,0.85,2.28,1.74
				c0.18,0.43,0.27,0.85,0.27,1.26c0,0.48-0.14,0.93-0.44,1.35c-1.57,2.81-3.01,5.15-4.29,7.05c-0.05,0.16-0.04,0.31,0.05,0.48
				s0.22,0.24,0.4,0.24h8.83c1,0,1.84,0.31,2.53,0.95s1.05,1.4,1.05,2.3c0,0.9-0.35,1.67-1.05,2.3s-1.55,0.95-2.53,0.95h-14.87
				c-0.23,0-0.42,0.08-0.56,0.24c-0.15,0.16-0.22,0.35-0.22,0.56c0.93,4.55,2.12,8.95,3.58,13.25c0.05,0.21,0.19,0.35,0.4,0.39
				c0.2,0.06,0.36,0.02,0.49-0.08C1027.86,142.47,1030.42,140.25,1032.64,138.14z"/>
			<path class="st0" d="M1121.26,164.7c0,1.9-0.74,3.53-2.23,4.87c-1.48,1.35-3.28,2.02-5.39,2.02h-8.66c-0.05,0-0.1,0.02-0.13,0.08
				s0.01,0.1,0.13,0.16c7.05,1.9,14.12,4.09,21.17,6.58c1,0.37,1.57,1.03,1.75,1.98c0,0.1,0,0.24,0,0.39c0,0.74-0.35,1.37-1.05,1.9
				c-1.11,0.79-2.39,1.26-3.85,1.43c-0.35,0.05-0.7,0.08-1.05,0.08c-1.05,0-2.07-0.19-3.06-0.56c-5.48-2.06-11.15-3.97-16.97-5.71
				c-1.39-0.42-2.24-1.32-2.53-2.69c0-0.21,0-0.42,0-0.64c0-1.06,0.5-1.9,1.48-2.54c0.05-0.05,0.05-0.15,0-0.28s-0.12-0.2-0.18-0.2
				h-24.32c-0.12,0-0.19,0.06-0.22,0.16c-0.03,0.1,0.01,0.19,0.13,0.24c1.28,0.74,1.89,1.74,1.84,3.02c0,1.53-0.73,2.62-2.19,3.25
				c-5.48,2.32-11.34,4.3-17.58,5.95c-0.7,0.21-1.39,0.31-2.1,0.31c-1.87,0-3.58-0.72-5.16-2.15c-0.47-0.43-0.7-0.93-0.7-1.51
				c0-0.16,0.03-0.35,0.09-0.56c0.18-0.79,0.7-1.3,1.57-1.51c8.16-2.01,14.82-4.28,19.95-6.82c0.12-0.05,0.17-0.13,0.13-0.24
				c-0.03-0.1-0.1-0.16-0.22-0.16h-7.18c-2.1,0-3.88-0.67-5.34-2.02c-1.46-1.35-2.19-2.97-2.19-4.87V143.2
				c0-1.9,0.74-3.51,2.23-4.84c1.48-1.32,3.25-1.98,5.29-1.98h48.9c2.1,0,3.88,0.66,5.34,1.98c1.52,1.32,2.28,2.93,2.28,4.84v21.51
				H1121.26z M1110.15,113.55c2.1,0,3.89,0.67,5.39,2.02c1.5,1.35,2.23,2.97,2.23,4.87v5.15c0,1.9-0.73,3.53-2.19,4.87
				c-1.46,1.35-3.26,2.02-5.43,2.02h-41.37c-2.16,0-3.97-0.67-5.43-2.02c-1.46-1.35-2.19-2.97-2.19-4.87v-5.15
				c0-1.9,0.73-3.53,2.19-4.87c1.46-1.35,3.26-2.02,5.43-2.02H1110.15z M1066.41,141.86c-0.59,0-0.87,0.27-0.87,0.79v3.02
				c0,0.53,0.29,0.79,0.87,0.79h45.23c0.59,0,0.87-0.27,0.87-0.79v-3.02c0-0.53-0.29-0.79-0.87-0.79H1066.41z M1066.41,151.62
				c-0.59,0-0.87,0.27-0.87,0.79v3.1c0,0.53,0.29,0.79,0.87,0.79h45.23c0.59,0,0.87-0.27,0.87-0.79v-3.1c0-0.53-0.29-0.79-0.87-0.79
				H1066.41z M1066.41,161.38c-0.59,0-0.87,0.27-0.87,0.79v3.17c0,0.53,0.29,0.79,0.87,0.79h45.23c0.59,0,0.87-0.27,0.87-0.79v-3.17
				c0-0.53-0.29-0.79-0.87-0.79H1066.41z M1108.05,126.56c0.59,0,0.87-0.27,0.87-0.79v-5.47c0-0.53-0.29-0.79-0.87-0.79h-37.7
				c-0.59,0-0.87,0.27-0.87,0.79v5.47c0,0.53,0.29,0.79,0.87,0.79H1108.05z"/>
		</g>
	</g>
</g>
<g>
	<g>
		<path class="st3" d="M679.74,1008l-0.11-0.01c-2.5-0.27-4.77-1.29-6.76-3.03l-0.09-0.09c-1.75-1.74-2.63-3.93-2.63-6.5
			c0-2.72,0.96-4.98,2.84-6.72c5.14-4.89,9.6-10.88,13.25-17.77c0.2-0.39,0.14-0.55-0.03-0.81c-4.92-7.49-9.11-16.37-12.5-26.43
			c-0.68-2.35-0.55-4.55,0.38-6.63c0.94-2.1,2.45-3.61,4.49-4.49l0.12-0.05c0.87-0.31,1.76-0.47,2.64-0.47c1.23,0,2.45,0.3,3.65,0.9
			c2.03,1.02,3.47,2.65,4.28,4.82c1.56,4.51,3.32,8.69,5.26,12.48c2.52-8.57,4.5-18.06,5.88-28.26h-11.91
			c-0.93,1.77-2.29,3.07-4.03,3.88c-1.14,0.53-2.33,0.8-3.54,0.8c-0.8,0-1.61-0.12-2.41-0.35l-1.33-0.32
			c-2.31-0.62-4.02-2.18-4.98-4.54c-0.53-1.15-0.79-2.27-0.79-3.34c0-1.23,0.34-2.45,1.01-3.63c5.45-11.77,11.49-25.67,17.95-41.32
			h-14.13c-2.46,0-4.53-0.9-6.18-2.67c-1.6-1.73-2.42-3.84-2.42-6.27c0-2.42,0.8-4.54,2.39-6.33c1.65-1.85,3.74-2.79,6.21-2.79
			h24.06c0.81-0.22,1.59-0.34,2.33-0.34c0.93,0,1.81,0.14,2.63,0.43l3.07,0.83c1.92,0.48,3.41,1.78,4.29,3.75
			c0.85,1.91,0.91,3.82,0.2,5.68c-3.88,9.92-9.3,22.85-16.12,38.47h9.96c0.8-0.17,1.61-0.25,2.42-0.25c0.88,0,1.77,0.1,2.65,0.31
			l0.14,0.04l2.09,0.65c1.75,0.35,3.18,1.35,4.25,2.96c1.05,1.59,1.45,3.33,1.18,5.16c-2.1,21.64-6,40.04-11.58,54.7
			c-0.08,0.22-0.08,0.33-0.08,0.36c0.01,0,0.03,0.04,0.09,0.09l0.08,0.07c4.71,4.22,10.32,7.6,16.66,10.05
			c6.42,2.47,12.92,4.14,19.32,4.97c6.48,0.83,14.27,1.25,23.15,1.25c19.66,0,34.18-0.06,43.16-0.17c2.51,0,4.52,1.16,5.83,3.35
			c0.71,1.24,1.07,2.54,1.07,3.91c0,0.91-0.2,1.88-0.59,2.89c-0.96,2.83-2.53,5.1-4.66,6.74c-2.19,1.68-4.68,2.54-7.43,2.54H766.7
			c-15.06,0-28.16-1.33-38.95-3.96c-10.68-2.6-20.15-7.36-28.18-14.14c-3.75,6.61-7.99,12.37-12.63,17.15l-0.07,0.07l-0.07,0.06
			c-1.83,1.55-3.96,2.34-6.32,2.34H679.74z M763.16,985.46c-2.61,0-4.85-0.99-6.65-2.93c-1.76-1.9-2.65-4.21-2.65-6.87v-6.47
			l-32.24,0c-2.25,0-4.17-0.84-5.71-2.51c-1.5-1.61-2.26-3.61-2.26-5.93c0-2.3,0.75-4.32,2.23-5.99c1.52-1.71,3.5-2.62,5.74-2.62
			h32.24v-7.01l-25.48,0c-2.11,0-4-0.84-5.47-2.42c-1.45-1.56-2.18-3.47-2.18-5.68s0.73-4.12,2.18-5.68
			c1.47-1.58,3.36-2.42,5.47-2.42h25.48v-6.34l-24.38,0c-2.15,0-4.01-0.84-5.55-2.51c-1.5-1.61-2.26-3.58-2.26-5.85
			c0-2.26,0.76-4.23,2.26-5.85c1.54-1.66,3.41-2.5,5.55-2.5h24.38v-6.51l-34.44,0c-2.25,0-4.14-0.81-5.63-2.42
			c-1.45-1.56-2.18-3.5-2.18-5.77c0-2.24,0.72-4.2,2.15-5.82c1.47-1.66,3.43-2.54,5.66-2.54h34.44v-6l-23.28,0
			c-2.25,0-4.17-0.84-5.71-2.51c-1.5-1.61-2.26-3.58-2.26-5.85c0-2.28,0.77-4.24,2.29-5.8c1.53-1.58,3.44-2.39,5.67-2.39h23.28
			l0-1.22c0-2.77,0.89-5.14,2.65-7.04c1.8-1.94,4.04-2.93,6.65-2.93c2.61,0,4.85,0.99,6.65,2.93c1.76,1.9,2.65,4.27,2.65,7.04v1.22
			h18.57c4.33,0,8.07,1.67,11.13,4.96c3.01,3.25,4.54,7.21,4.54,11.78v5.8h4.28c2.14,0,4.01,0.84,5.55,2.5
			c1.5,1.62,2.26,3.59,2.26,5.85c0,2.28-0.77,4.23-2.29,5.8c-1.54,1.58-3.4,2.39-5.52,2.39h-4.28l0,6.47
			c0,4.57-1.53,8.53-4.54,11.78c-3.05,3.29-6.79,4.96-11.13,4.96h-18.57v6.34l28.15,0c2.04,0,3.83,0.81,5.31,2.42
			c1.45,1.56,2.18,3.47,2.18,5.68s-0.73,4.12-2.18,5.68c-1.49,1.61-3.28,2.42-5.31,2.42h-28.15v7.01l34.75,0
			c2.23,0,4.21,0.91,5.74,2.62c1.48,1.67,2.23,3.69,2.23,5.99c0,2.32-0.76,4.32-2.26,5.94c-1.54,1.66-3.46,2.51-5.71,2.51h-34.75
			v6.47c0,2.66-0.89,4.97-2.65,6.87C768.01,984.47,765.77,985.46,763.16,985.46z M772.48,968.72L772.48,968.72z M772.48,944.65
			L772.48,944.65z M772.48,929.38L772.48,929.38z M772.48,922.11L772.48,922.11z M788.1,905.86v-6.51l-15.63,0v6.51L788.1,905.86z
			 M772.48,898.89L772.48,898.89z M788.1,882.81v-6l-15.63,0v6L788.1,882.81z"/>
		<path class="st3" d="M839.88,1000.03c-2.66,0-4.95-1.01-6.81-3.01c-1.81-1.95-2.73-4.32-2.73-7.04c0-2.71,0.92-5.08,2.73-7.04
			c1.85-2,4.14-3.01,6.81-3.01h71.14c0.14,0,0.19-0.02,0.19-0.03c0,0,0.06-0.04,0.14-0.22c3.52-10.29,7.09-22.75,10.6-37.05
			c2.91-11.68,5.33-22.75,7.2-32.93c0.63-3.12,2.16-5.58,4.55-7.35c1.79-1.38,3.78-2.09,5.9-2.09c0.75,0,1.47,0.07,2.14,0.21
			c2.99,0.7,5.27,2.39,6.81,5.01c1.11,1.72,1.69,3.68,1.69,5.76c0,0.85-0.13,1.76-0.38,2.71c-5.83,24.72-12.06,46.92-18.51,65.96
			h37.3c2.56,0,4.79,1.01,6.65,3.01c1.81,1.96,2.73,4.33,2.73,7.04c0,2.71-0.92,5.08-2.73,7.04c-1.86,2-4.09,3.01-6.65,3.01H839.88z
			 M878.83,974.95c-1.82,0-3.5-0.6-5.01-1.79c-2.09-1.69-3.34-3.88-3.73-6.54c-0.73-7.45-2.05-15.77-3.91-24.8
			c-1.96-9.92-4.32-19.29-7-27.87c-0.39-1-0.58-2.08-0.58-3.21c0-1.42,0.33-2.84,0.97-4.23c1.24-2.38,3.07-3.91,5.48-4.63
			c0.91-0.28,1.85-0.42,2.78-0.42c1.61,0,3.17,0.44,4.63,1.29c2.3,1.24,3.89,3.24,4.67,5.91c2.92,8.67,5.53,18.09,7.73,27.92
			c1.99,9.05,3.47,17.46,4.42,25.01c0.12,0.57,0.18,1.14,0.18,1.7c0,2.31-0.64,4.45-1.9,6.36c-1.62,2.42-3.81,4.05-6.54,4.87
			C880.2,974.8,879.48,974.95,878.83,974.95z M844.91,895.96c-2.56,0-4.8-1.01-6.65-3.01c-1.81-1.95-2.73-4.32-2.73-7.04
			c0-2.71,0.92-5.08,2.73-7.04c1.85-2,4.09-3.01,6.65-3.01h48.88v-21.39c0-3,0.95-5.53,2.81-7.55c1.9-2.05,4.25-3.1,6.96-3.1
			c2.72,0,5.08,1.07,7.04,3.18c1.83,2.11,2.73,4.61,2.73,7.46v21.39l50.3,0c2.66,0,4.95,1.01,6.81,3.01
			c1.81,1.96,2.73,4.33,2.73,7.04c0,2.71-0.92,5.08-2.73,7.04c-1.85,2-4.14,3.01-6.81,3.01H844.91z M913.35,876.33L913.35,876.33z"
			/>
		<path class="st3" d="M1088.8,1010.88c-2.55,0-4.78-0.98-6.63-2.9c-1.83-1.9-2.76-4.28-2.76-7.06v-30.49
			c-8.24,12.31-18.06,22.31-29.24,29.78c-1.62,1.02-3.3,1.52-5.04,1.52c-0.82,0-1.64-0.14-2.44-0.42c-2.38-0.57-4.46-1.93-6.18-4.05
			l-0.05-0.07l-0.05-0.07c-1.06-1.57-1.6-3.26-1.6-5.02v-1.35l0.03-0.16c0.41-2.49,1.66-4.43,3.71-5.76
			c12.32-7.24,22.6-17.27,30.63-29.88h-20.43c-2.35,0-4.41-0.93-6.1-2.76c-1.65-1.78-2.49-3.95-2.49-6.44c0-2.49,0.84-4.66,2.5-6.44
			c1.7-1.83,3.75-2.76,6.1-2.76h30.67v-8.17c0-2.67,0.93-4.99,2.76-6.9c1.85-1.92,4.08-2.9,6.62-2.9c2.54,0,4.77,0.98,6.62,2.9
			c1.83,1.91,2.76,4.23,2.76,6.9v8.17l31.77,0c2.45,0,4.56,0.93,6.26,2.76c1.66,1.79,2.5,3.96,2.5,6.45c0,2.49-0.84,4.66-2.5,6.44
			c-1.7,1.83-3.8,2.76-6.26,2.76h-21.51c7.3,11.24,16.45,20.73,27.21,28.22c1.96,1.27,3.19,3.29,3.5,5.83
			c0.13,0.47,0.19,0.94,0.19,1.41c0,2.02-0.67,3.92-1.99,5.63c-1.81,2.23-4.02,3.56-6.6,3.97c-0.57,0.12-1.24,0.19-1.89,0.19
			c-1.9,0-3.73-0.65-5.44-1.92c-9.31-7.41-17.77-16.81-25.23-28.02v30.66c0,2.78-0.93,5.16-2.76,7.06
			C1093.57,1009.9,1091.35,1010.88,1088.8,1010.88z M1004.15,1010.88c-2.37,0-4.55-0.85-6.49-2.52c-1.87-1.61-3.19-3.77-3.92-6.4
			c-0.56-2.42-0.22-4.6,1.01-6.59c1.24-2.01,3.07-3.08,5.29-3.08c0.13,0,0.26,0,0.4,0.01h1.82c3.01,0,4.25-0.08,4.76-0.15l0.13-0.02
			h0.14c0.46,0,0.74-0.04,0.91-0.07c0.04-0.17,0.08-0.48,0.08-0.98v-41.14c-5.99,2-7.36,2.49-7.66,2.6l-0.09,0.05l-0.18,0.06
			c-0.92,0.28-1.8,0.43-2.63,0.43c-1.51,0-3.01-0.44-4.47-1.29c-2.16-1.31-3.57-3.32-4.23-5.99l-0.03-0.17
			c-0.12-0.77-0.18-1.5-0.18-2.17c0-1.8,0.45-3.55,1.34-5.19c1.31-2.4,3.25-3.98,5.77-4.7c2.4-0.68,6.5-1.92,12.2-3.71
			c0.09-0.03,0.14-0.06,0.16-0.07c0-0.01,0.01-0.08,0.01-0.22v-29.18l-9.78,0c-2.46,0-4.59-0.96-6.34-2.85
			c-1.71-1.84-2.57-4.09-2.57-6.7c0-2.61,0.88-4.85,2.6-6.64c1.75-1.81,3.87-2.73,6.31-2.73h9.78v-24.27c0-2.54,0.84-4.74,2.5-6.53
			c1.7-1.83,3.8-2.76,6.26-2.76c2.44,0,4.56,0.92,6.31,2.73c1.73,1.8,2.6,4,2.6,6.56v24.27l7.11,0c2.56,0,4.71,0.93,6.41,2.76
			c1.66,1.79,2.5,4.02,2.5,6.62c0,2.59-0.83,4.83-2.47,6.67c-1.7,1.91-3.87,2.87-6.44,2.87h-7.11v23.83l5.52-1.84l0.14-0.03
			c0.76-0.13,1.44-0.2,2.08-0.2c1.57,0,3.02,0.47,4.31,1.39c1.95,1.26,3.18,3.25,3.48,5.7c0.12,0.57,0.18,1.13,0.18,1.69
			c0,2.04-0.51,3.92-1.53,5.58c-1.29,2.35-3.14,3.9-5.5,4.63c-4.43,1.59-7.26,2.59-8.64,3.05c0,0,0,0,0,0
			c-0.01,0-0.04,0.09-0.04,0.31v46.61c0,4.37-0.51,7.75-1.56,10.33c-1.1,2.7-2.84,4.81-5.19,6.28c-3.18,1.91-7.96,2.94-14.65,3.19
			l-0.04,0H1004.15z M1052.05,926.98c-1.24,0-2.48-0.29-3.69-0.88c-2.12-1.07-3.85-2.61-5.19-4.58c-1.18-1.91-1.47-3.9-0.9-5.97
			c0.6-2.19,2.04-3.69,4.17-4.35c6.71-2.42,11.59-5.68,14.43-9.67c2.87-4.05,4.74-9.69,5.53-16.78c0.25-2.58,1.26-4.78,3.01-6.53
			c1.8-1.79,3.96-2.71,6.44-2.71c2.5,0,4.68,1,6.31,2.9c1.37,1.63,2.05,3.54,2.05,5.71c0,9.61-2.7,18.65-8.02,26.85
			c-4.2,6.55-11.29,11.73-21.08,15.36C1054.08,926.76,1053.04,926.98,1052.05,926.98z M1110,924.44c-6.95,0-11.55-1.39-14.06-4.24
			c-2.45-2.77-3.64-7.64-3.64-14.88v-20.85c0-2.56,0.88-4.76,2.6-6.56c1.75-1.81,3.87-2.73,6.31-2.73c2.45,0,4.56,0.93,6.26,2.76
			c1.66,1.79,2.5,3.99,2.5,6.53v20.68c0,1.32,0.12,1.96,0.2,2.23c0.24,0.07,0.79,0.18,1.88,0.18h10.84c0.57,0,0.68-0.18,0.78-0.36
			c0.13-0.22,0.57-1.24,0.83-4.9c0.15-2.24,1.23-4,3.14-5.07c1.11-0.62,2.27-0.94,3.44-0.94c0.72,0,1.45,0.12,2.17,0.36l0.15,0.06
			c2.27,0.95,4.06,2.47,5.32,4.52c1.03,1.67,1.56,3.45,1.56,5.29c0,0.47-0.06,0.99-0.19,1.57c-1.02,6.09-2.66,10.22-5.01,12.62
			c-2.42,2.48-6.05,3.74-10.78,3.74H1110z M1050.72,893.25c-2.3,0-4.3-0.9-5.94-2.67c-1.6-1.73-2.42-3.84-2.42-6.27v-11.02
			c0-4.57,1.53-8.53,4.54-11.78c3.05-3.29,6.79-4.96,11.13-4.96h64.08c4.33,0,8.07,1.67,11.13,4.96c3.01,3.25,4.54,7.21,4.54,11.78
			v9.83c0,2.53-0.83,4.75-2.47,6.58c-1.7,1.91-3.81,2.87-6.28,2.87c-2.47,0-4.56-0.94-6.21-2.79c-1.58-1.78-2.39-4.02-2.39-6.67
			v-8.84l-61.33,0v10.03c0,2.43-0.81,4.54-2.42,6.27C1055.02,892.35,1053.02,893.25,1050.72,893.25z"/>
		<path class="st3" d="M1164.97,1011.05c-2.35,0-4.4-0.93-6.1-2.76c-1.66-1.79-2.5-3.93-2.5-6.36V871.76
			c0-4.57,1.53-8.53,4.54-11.78c3.05-3.29,6.79-4.96,11.13-4.96h20.28c0.43-0.11,0.9-0.17,1.39-0.17c1.27,0,2.48,0.31,3.61,0.92
			l0.07,0.04l3.21,2.08c1.73,1.15,2.99,2.75,3.76,4.78c0.79,2.06,0.86,4.18,0.2,6.31c-5,17.09-9.08,30.18-12.12,38.88
			c-0.11,0.36-0.05,0.68,0.22,1.08c7.94,11.01,11.98,23.09,11.98,35.89c0,11.27-2.36,18.56-7.22,22.27
			c-2.58,1.9-5.72,3.16-9.36,3.77c-1.05,0.13-2.17,0.25-3.45,0.36l-0.09,0.01h-0.4c-2.22,0-4.23-0.88-5.97-2.62
			c-1.72-1.59-2.87-3.66-3.37-6.1c-0.54-2.19-0.21-4.24,1.02-6.02c1.18-1.73,2.88-2.69,4.93-2.81l0.33-0.35h0.87
			c1.44,0,2.52-0.3,3.32-0.93c0.82-0.66,2.22-2.76,2.22-9.44c-0.2-6.76-1.73-13.34-4.53-19.51c-3.14-6.65-4.73-13.1-4.73-19.13
			c0-2.88,0.4-5.75,1.17-8.51c1.62-5.92,3.56-13.39,5.76-22.2h-11.57v128.34c0,2.43-0.84,4.57-2.49,6.36
			C1169.37,1010.12,1167.32,1011.05,1164.97,1011.05z M1205.27,1008.34l-0.06,0c-2.38-0.14-4.51-1.14-6.32-2.96
			c-1.55-1.67-2.31-3.67-2.31-5.99c0-2.61,0.91-4.76,2.69-6.39c7.97-7.51,14.03-17.22,17.99-28.83c0.89-2.48,2.32-4.35,4.26-5.61
			c1.6-1.01,3.28-1.51,5.01-1.51h1.51l0.24,0.06c2.31,0.59,4.11,1.96,5.32,4.08c1.22,2.12,1.49,4.38,0.82,6.72l-0.04,0.12
			l-1.57,4.41c-0.01,0.03-0.02,0.06-0.03,0.08c3.79,3.31,7.17,6.66,10.02,9.97c1.45,1.57,2.21,3.57,2.21,5.88
			c0,2.54-0.87,4.77-2.57,6.61c-1.42,1.54-3.26,2.35-5.3,2.35c-0.18,0-0.36-0.01-0.54-0.02c-2.23-0.15-4.15-1.18-5.53-2.98
			c-1.59-1.91-3.46-4.03-5.51-6.27c-3.87,6.68-8.44,12.66-13.64,17.83c-1.8,1.64-3.79,2.45-5.96,2.45H1205.27z M1251.23,1008
			l-0.12-0.01c-2.33-0.28-4.42-1.33-6.2-3.11c-1.55-1.67-2.31-3.61-2.31-5.82c0-2.44,0.87-4.6,2.58-6.45
			c7.3-7.23,12.52-16.73,15.55-28.3c0.63-2.46,1.93-4.42,3.86-5.83c1.6-1.28,3.39-1.94,5.3-1.94c0.45,0,0.94,0.07,1.49,0.2
			c2.31,0.33,4.23,1.64,5.56,3.79c0.92,1.42,1.4,2.99,1.4,4.61c0,0.67-0.06,1.36-0.19,2.05l-0.02,0.08l-0.02,0.08
			c-0.54,1.97-1.13,3.94-1.76,5.86c-0.08,0.26-0.06,0.32,0.04,0.42c7.44,6.11,13.98,12.08,19.44,17.74c1.74,1.88,2.6,4.04,2.6,6.47
			c0,2.68-0.94,4.98-2.78,6.84c-1.59,1.72-3.57,2.62-5.81,2.62h-0.38l-0.06,0c-2.3-0.15-4.28-1.1-5.89-2.84
			c-4.18-4.72-8.98-9.6-14.31-14.54c-3.33,6.14-7.21,11.44-11.54,15.78l-0.08,0.08c-1.63,1.46-3.51,2.21-5.58,2.21H1251.23z
			 M1266.74,956.3c-4.33,0-8.08-1.67-11.13-4.96c-3.01-3.25-4.54-7.21-4.54-11.78v-12.54c0-4.69,1.53-8.69,4.55-11.88
			c3.05-3.23,6.79-4.86,11.11-4.86h10.21c4.32,0,8.06,1.64,11.11,4.86c3.02,3.2,4.55,7.2,4.55,11.88v12.54
			c0,4.57-1.56,8.54-4.63,11.8c-3.11,3.28-6.82,4.95-11.03,4.95H1266.74z M1276.67,941.12v-16.17l-10.29,0v16.17L1276.67,941.12z
			 M1222.14,956.3c-4.33,0-8.08-1.67-11.13-4.96c-3.01-3.25-4.54-7.21-4.54-11.78v-12.54c0-4.69,1.53-8.69,4.55-11.88
			c3.05-3.23,6.79-4.86,11.11-4.86h9.11c4.32,0,8.06,1.64,11.11,4.86c3.02,3.2,4.55,7.2,4.55,11.88v12.54
			c0,4.57-1.53,8.53-4.54,11.78c-3.05,3.29-6.79,4.96-11.13,4.96H1222.14z M1231.29,941.12v-16.17l-9.82,0v16.17L1231.29,941.12z
			 M1207.22,906.3c-0.97,0-1.88-0.15-2.72-0.46c-2.33-0.84-4.17-2.39-5.45-4.61l-0.05-0.1c-0.77-1.52-1.16-3.13-1.16-4.8
			c0-0.67,0.06-1.4,0.18-2.17l0.02-0.1l0.02-0.09c0.65-2.53,1.99-4.46,3.99-5.76c6.45-4.09,12.65-9.1,18.44-14.9
			c5.79-5.81,10.75-11.89,14.73-18.06c3.23-4.78,7.46-7.19,12.6-7.19c5.11,0,9.38,2.33,12.69,6.93
			c9.83,13.26,21.47,23.92,34.57,31.65c2.22,1.27,3.7,3.27,4.37,5.94c0.26,0.85,0.38,1.71,0.38,2.57c0,1.71-0.46,3.36-1.38,4.91
			c-1.39,2.45-3.4,4.12-5.98,4.96c-0.77,0.28-1.69,0.44-2.66,0.44c-1.77,0-3.42-0.52-4.9-1.54c-3.45-2.38-7.12-5.16-10.96-8.28
			c-0.42,1.42-1.16,2.73-2.2,3.9c-1.8,2.02-4.07,3.04-6.75,3.04h-32.82c-2.56,0-4.77-0.99-6.57-2.93c-1.03-1.11-1.76-2.36-2.19-3.74
			c-3.77,3.24-7.72,6.27-11.78,9.04C1210.23,905.85,1208.75,906.3,1207.22,906.3z M1263.44,886.2c-6.12-5.97-11.2-11.96-15.14-17.86
			c-3.87,5.94-8.74,11.93-14.52,17.86H1263.44z"/>
		<path class="st3" d="M1325.79,1011.05c-2.35,0-4.4-0.93-6.1-2.76c-1.66-1.79-2.5-3.93-2.5-6.36V871.76
			c0-4.57,1.53-8.53,4.54-11.78c3.05-3.29,6.79-4.96,11.13-4.96h21.76c0.52-0.11,1.04-0.17,1.55-0.17c1.22,0,2.38,0.32,3.46,0.95
			l3.21,2.08c1.73,1.15,2.99,2.75,3.76,4.77c0.79,2.06,0.86,4.18,0.2,6.31c-5.32,16.88-9.66,29.97-12.91,38.91
			c-0.19,0.46-0.16,0.71,0.08,1.06c2.95,3.83,5.4,7.8,7.33,11.89c-0.14-0.88-0.12-1.81,0.05-2.78c0.42-2.42,1.77-4.27,3.9-5.34
			c10.13-5.37,19.18-11.67,26.94-18.76h-20.54c-2.35,0-4.38-0.9-6.02-2.67c-1.6-1.73-2.42-3.84-2.42-6.27
			c0-2.43,0.81-4.54,2.42-6.28c1.64-1.77,3.67-2.67,6.02-2.67h11.49c-1.3-4.32-3.18-9.08-5.6-14.08c-1.07-2.01-1.24-4.2-0.48-6.43
			c0.76-2.25,2.3-3.86,4.43-4.63c1.16-0.42,2.31-0.63,3.43-0.63s2.27,0.21,3.42,0.63c2.28,0.87,4.01,2.44,5.18,4.68
			c2.66,5.05,4.81,9.99,6.4,14.69c0.58,1.89,0.44,3.74-0.39,5.55c-0.03,0.07-0.07,0.14-0.1,0.21h22.5
			c-0.06-0.14-0.12-0.29-0.18-0.44c-0.72-1.94-0.57-3.94,0.43-5.8c2.23-4.5,4.16-8.93,5.69-13.12c1.04-2.54,2.72-4.41,5.01-5.65
			c1.39-0.82,2.9-1.26,4.41-1.26c0.92,0,1.86,0.14,2.79,0.43c2.45,0.74,4.25,2.37,5.33,4.84l0.06,0.14
			c0.39,1.11,0.58,2.24,0.58,3.37c0,1.34-0.34,2.62-1.01,3.81c-2.48,5.26-4.8,9.85-6.92,13.69h14.09c2.35,0,4.38,0.9,6.02,2.67
			c1.6,1.73,2.42,3.84,2.42,6.28s-0.81,4.54-2.42,6.27c-1.65,1.78-3.67,2.67-6.02,2.67h-26.03c1.54,8.85,3.51,17.57,5.86,25.97
			c4.63-4.46,8.79-8.78,12.38-12.85c1.6-1.87,3.6-2.9,5.93-3.05l0.44,0c2.35,0,4.38,0.9,6.02,2.67c1.69,1.68,2.58,3.87,2.58,6.44
			c0,2.58-0.94,4.82-2.78,6.67c-5.58,5.45-11.96,11.14-18.99,16.91c-0.05,0.04-0.08,0.07-0.1,0.09c0.01,0.02,0.03,0.07,0.05,0.14
			c5.56,14.77,12.34,26.47,20.18,34.82c1.91,1.93,2.9,4.34,2.9,7.13c0,2.52-0.85,4.78-2.52,6.73c-1.66,2.06-3.8,3.28-6.32,3.56
			l-0.11,0.01h-0.9c-2.25,0-4.22-0.9-5.86-2.67c-7.87-8.83-14.65-20.55-20.32-35.09c0.71,3.39,1.21,6.73,1.48,10
			c0.21,3.12,0.32,6.13,0.32,8.98c0,5.53-0.49,10.85-1.45,15.8c-1.42,7.67-3.98,13.38-7.59,16.94c-4.44,4.89-10.39,7.49-17.71,7.73
			c-0.01,0-0.03,0-0.04,0c-1.31,0-2.7-0.06-4.19-0.17c-2.53-0.02-4.74-1.04-6.57-3.01c-1.7-1.83-2.86-4.08-3.47-6.67
			c-0.55-2.08-0.18-4.17,1.09-6c1.57-2.26,3.54-2.74,4.92-2.74c0.16,0,0.32,0.01,0.48,0.02c1.79,0.11,3.5,0.16,5.03,0.16
			c3.07,0,5.29-1.14,6.8-3.49l0.08-0.13l0.1-0.11c1.62-1.85,2.84-5.16,3.61-9.85c0.51-2.73,0.76-5.75,0.76-9
			c0-1.73-0.05-3.51-0.14-5.31c-11.45,11.84-24.01,21.83-37.35,29.74l-0.1,0.06l-0.1,0.05c-1.51,0.68-3.05,1.02-4.59,1.02
			c-0.85,0-1.66-0.07-2.4-0.2l-0.11-0.02l-0.11-0.03c-2.27-0.68-4.24-2.04-5.86-4.05c-1.41-1.82-1.92-3.95-1.5-6.19
			c0.42-2.28,1.7-4.05,3.69-5.12c8.19-3.92,16.33-9.06,24.29-15.32c7.93-6.24,14.54-12.69,19.65-19.19
			c0.29-0.44,0.28-0.76,0.17-1.11c-0.62-1.9-1.45-4.07-2.47-6.43c-6.7,6.27-14.02,12.26-21.78,17.81c-1.93,1.25-3.89,1.93-5.9,2.06
			l-0.13,0c-0.94,0-1.88-0.14-2.79-0.43c-1.76-0.49-3.37-1.34-4.81-2.53c-1.13,5.82-3.35,9.99-6.6,12.4c-2.78,2-6.01,3.25-9.64,3.75
			c-1.17,0.25-2.52,0.37-4.11,0.37h-0.31c-2.22,0-4.22-0.88-5.97-2.62c-1.7-1.57-2.9-3.67-3.52-6.2c-0.44-2.18-0.08-4.13,1.05-5.88
			c1.21-1.87,2.98-2.86,5.14-2.86c0.25,0,0.5-0.06,0.77-0.17l0.38-0.17h0.42c1.45,0,2.66-0.37,3.67-1.13
			c0.82-0.61,2.18-2.6,2.18-9.25c0-6.66-1.62-13.25-4.81-19.61c-3.27-6.46-4.92-12.75-4.92-18.69c0-3,0.39-5.92,1.17-8.68
			c1.92-6.43,4-13.94,6.22-22.37h-12.66v128.34c0,2.43-0.84,4.57-2.49,6.36C1330.19,1010.12,1328.14,1011.05,1325.79,1011.05z
			 M1362.83,924.33c2.4,6.08,3.71,12.4,3.89,18.92c9.93-5.48,18.86-12.07,26.56-19.63l-0.01-0.02c-1.26-1.78-2.68-3.53-4.22-5.21
			c-4.06,3.03-8.46,6-13.04,8.81c-1.4,0.88-2.87,1.33-4.34,1.33c-0.19,0-0.37-0.01-0.56-0.02H1369l-0.28-0.08
			c-2.27-0.68-4.24-2.04-5.85-4.05C1362.85,924.35,1362.84,924.34,1362.83,924.33z M1402.12,907.61
			c6.48,6.66,11.79,14.55,15.81,23.49c-2.73-9.82-5.07-20.57-7.03-32.24C1408.23,901.8,1405.28,904.74,1402.12,907.61z"/>
	</g>
</g>
<path class="st4" d="M585.15,1017.89h-74.22c-28.48,0-51.56-23.09-51.56-51.56V892.1c0-28.48,23.09-51.56,51.56-51.56h74.22
	c28.48,0,51.56,23.09,51.56,51.56v74.22C636.71,994.8,613.62,1017.89,585.15,1017.89z"/>
<rect x="936.18" y="957.89" class="st5" width="502.82" height="5.63"/>
<g>
	<rect x="1184.42" y="268.25" class="st6" width="312.81" height="399.54"/>
	<path d="M1496.73,268.75v398.54h-311.81V268.75H1496.73 M1497.73,267.75h-313.81v400.54h313.81V267.75L1497.73,267.75z"/>
</g>
<g>
	<rect x="1232.13" y="345.85" class="st7" width="220.09" height="150.87"/>
	<path d="M1451.72,346.35v149.87h-219.09V346.35H1451.72 M1452.72,345.35h-221.09v151.87h221.09V345.35L1452.72,345.35z"/>
</g>
<path class="st8" d="M1392.62,542.59h-122.36c1.95-18.03,3.9-36.06,5.85-54.09c0.67-2.78,7.72-30.19,31.93-38.38
	c26.02-8.81,63.96,7.25,78.49,42.96C1388.56,509.59,1390.59,526.09,1392.62,542.59z"/>
<g>
	<path class="st9" d="M1308.04,450.11c-3.07,0.07-5.67,2.33-6.69,4.92c-1.02,2.59-0.75,5.44-0.2,8.14c0.9,4.45,2.49,8.76,3.8,13.12
		c4.3,14.4,5.47,29.55,11.3,43.51c7.39-5.33,9.16-15.2,16.6-20.47c3.94,5.51,7.87,11.02,11.81,16.53c1.96-4.31,3.93-8.62,5.89-12.93
		c0.82-1.81,2.5-3.99,4.56-3.34c1.27,0.4,1.81,1.72,2.19,2.87c1.53,4.64,3.06,9.28,4.59,13.92c4.29-3.37,5.18-9.04,4.83-14.14
		c-0.43-6.22-2.26-12.29-4.08-18.3c-0.54-1.78-1.08-3.57-2.02-5.2c-0.82-1.43-1.93-2.71-3.05-3.96
		c-6.5-7.32-13.68-14.35-22.59-19.23c-8.91-4.88-19.81-7.44-29.97-5.27"/>
</g>
<path class="st10" d="M1343.63,512.06c-1.06-1.67-2.11-3.34-3.17-5.02c-0.97-4-1.95-8-2.92-12c-5.3-3.11-13.69-8.93-20.72-18.54
	c-5.43-7.43-8.11-14.48-9.51-19.41c0.73-6.62,1.46-13.23,2.19-19.85c1.14,0.29,2.27,0.58,3.41,0.87c1.61,6.11,6.79,22.05,23.4,34.02
	c7.53,5.43,15.1,8.38,20.72,10.03c-5.47,6.05-7.49,11.06-8.29,14.61c-0.32,1.45-0.77,3.98-1.95,7.63
	C1345.72,507.74,1344.5,510.35,1343.63,512.06z"/>
<g>
	<path class="st11" d="M1303.82,408.98c0.13-6.39,0.26-12.78,0.38-19.18c0.08-3.82-0.29-8.39-4-10.3c2.79-1.93,5.48-3.98,8.03-6.16
		c-1.96-0.15-3.93-0.3-5.89-0.45c3.05-4.33,9.56-5.14,15.21-5.95c0.5-0.07,1.04-0.16,1.41-0.48c0.48-0.41,0.54-1.08,0.6-1.67
		c0.28-2.68,1.46-5.27,3.35-7.37c0.41,1.74,0.72,3.5,0.92,5.26c4.82-4.59,10.95-8.08,17.65-10.03c-0.06,1.24-0.28,2.47-0.66,3.66
		c6.35-0.78,12.46-3.13,17.46-6.72c0.45,1.52,0.89,3.05,1.34,4.57c0.12,0.4,0.25,0.82,0.59,1.09c0.47,0.37,1.16,0.34,1.78,0.27
		c2.92-0.33,5.78-1.08,8.44-2.21c-0.06,1.75-0.52,3.49-1.36,5.07c8.32,0.18,15.72-4.4,22.45-8.79c1.32,4.1,2.06,8.36,2.18,12.63
		c0.02,0.57,0.13,1.27,0.73,1.45c0.35,0.11,0.73-0.02,1.06-0.16c1.91-0.78,3.6-1.97,4.9-3.44c1.28,5.59,2.56,11.37,1.29,16.97
		c-0.63,2.81-1.9,5.49-2.5,8.3c-0.52,2.43-0.53,4.91-0.9,7.36c-0.57,3.77-1.99,7.4-3.4,11c-0.21,0.54-0.43,1.09-0.88,1.5
		c-0.65,0.58-1.62,0.73-2.53,0.83c-3.55,0.37-7.14,0.34-10.71,0.31c-12.48-0.1-24.96-0.2-37.44-0.3c-3.98-0.03-8.3,0.04-11.43,2.24
		c-2.96,2.09-4.12,5.58-6.3,8.33c-2.47,3.13-6.39,5.33-10.62,5.95c-0.87,0.13-1.78,0.19-2.62-0.04c-1.05-0.29-1.88-1-2.61-1.72
		c-3.49-3.44-5.79-7.85-6.49-12.45"/>
</g>
<path class="st12" d="M1374.58,487.2c-4.15,0.59-10.29,1.08-17.55,0.22c-4.37-0.52-29.79-4-40.22-21.59
	c-4.32-7.29-4.21-13.87-3.9-23.99c0.29-9.55,2.28-25.11,11.94-43.4c-0.08-5.09-0.16-10.18-0.24-15.27
	c2.37-2.37,7.27-6.49,14.62-7.85c11.64-2.15,24.55,3.53,32.42,14.39c4.63-1.31,9.26-2.62,13.89-3.93c1.54,2.24,3.57,5.72,4.87,10.25
	c1.28,4.46,0.56,5.44,1.95,11.34c1.52,6.44,2.73,6.76,3.17,11.34c0.3,3.08-0.19,3.5-0.49,9.38c-0.39,7.9,0.46,7.84,0,12.21
	c-0.62,5.89-2.1,5.36-4.63,15.27c-1.67,6.54-1.29,7.82-3.17,12.43c-1.55,3.81-3.3,6.61-4.63,8.72
	C1380.65,479.86,1378.04,483.45,1374.58,487.2z"/>
<path class="st11" d="M1365.81,407.59c-1.88-0.09-4.69-0.3-8.04-0.87c-6.65-1.14-8.74-2.55-12.67-2.62
	c-2.69-0.04-6.51,0.54-11.21,3.49c0.42-1.2,5.11-14.4,11.7-14.39c1.64,0,3.69,1.09,7.8,3.27c3.2,1.7,5.69,3.28,7.31,4.36
	c1.26,0.07,3.23,0.11,5.61-0.22c3.05-0.42,4.43-1.11,4.87-0.65C1371.62,400.43,1371.06,402.06,1365.81,407.59z"/>
<path class="st11" d="M1394.08,415.66c-0.87-1.12-3.63-4.33-8.77-5.89c-4.85-1.47-8.99-0.6-10.48-0.22
	c0.81-1.96,1.63-3.93,2.44-5.89c1.52-0.32,4.48-0.75,8.04,0c3.82,0.81,6.37,2.56,7.56,3.49c0.29,0.21,2.92,2.2,2.68,5.23
	C1395.42,414.02,1394.52,415.17,1394.08,415.66z"/>
<g>
	<path d="M1357.03,419.59c-3.14,0.19-7.25,0.15-11.94-0.65c-3.56-0.61-6.59-1.51-9.02-2.4c-0.06-0.46-0.07-1.18,0.24-1.96
		c0.66-1.64,2.28-2.42,3.17-2.84c2.8-1.3,5.66-0.98,8.29-0.65c2.02,0.25,5.07,0.84,8.53,2.4c0.12,0.08,2.31,1.65,1.95,3.93
		C1358.08,418.52,1357.37,419.27,1357.03,419.59z"/>
	<path class="st13" d="M1357.03,420.24c-3.14,0.19-7.25,0.15-11.94-0.65c-3.56-0.61-6.59-1.51-9.02-2.4
		c-0.06-0.46-0.07-1.18,0.24-1.96c0.66-1.64,2.28-2.42,3.17-2.84c2.8-1.3,5.66-0.98,8.29-0.65c2.02,0.25,5.07,0.84,8.53,2.4
		c0.12,0.08,2.31,1.65,1.95,3.93C1358.08,419.18,1357.37,419.93,1357.03,420.24z"/>
	<ellipse class="st14" cx="1348.01" cy="415.88" rx="4.39" ry="3.93"/>
	<ellipse cx="1348.64" cy="416.21" rx="2.55" ry="2.29"/>
	<ellipse class="st15" cx="1346.72" cy="415.05" rx="1.63" ry="1.13"/>
</g>
<g>
	<path d="M1388.97,422.39c-2.49,0.34-5.78,0.52-9.59,0.02c-2.89-0.37-5.38-1.05-7.39-1.74c-0.08-0.42-0.14-1.08,0.05-1.82
		c0.4-1.54,1.64-2.35,2.32-2.78c2.14-1.35,4.44-1.2,6.57-1.04c1.63,0.12,4.11,0.51,7,1.76c0.1,0.07,1.97,1.4,1.85,3.51
		C1389.72,421.35,1389.22,422.08,1388.97,422.39z"/>
	<path class="st13" d="M1389.02,422.99c-2.49,0.34-5.78,0.52-9.59,0.02c-2.89-0.37-5.38-1.05-7.39-1.74
		c-0.08-0.42-0.14-1.08,0.05-1.82c0.4-1.54,1.64-2.35,2.32-2.78c2.14-1.35,4.44-1.2,6.57-1.04c1.63,0.12,4.11,0.51,7,1.76
		c0.1,0.07,1.97,1.4,1.85,3.51C1389.77,421.96,1389.27,422.68,1389.02,422.99z"/>
	
		<ellipse transform="matrix(0.9539 -0.3002 0.3002 0.9539 -62.1985 434.108)" class="st14" cx="1381.48" cy="419.45" rx="3.51" ry="3.64"/>
	<ellipse transform="matrix(0.962 -0.2731 0.2731 0.962 -62.0885 393.3874)" cx="1382.01" cy="419.72" rx="2.03" ry="2.12"/>
	
		<ellipse transform="matrix(0.9993 -0.0369 0.0369 0.9993 -14.5193 51.2506)" class="st15" cx="1380.39" cy="418.74" rx="1.3" ry="1.04"/>
</g>
<g>
	<g>
		<path d="M1376.7,399.93c-0.32,2.9-0.99,5.55-2.44,8.1c-1.22,2.17-2.62,4.27-3.14,6.74c-1.1,5.25,1.14,10.35,2.88,15.18
			c0.93,2.59,1.8,5.27,1.88,8.05c0.03,1.08-0.02,2.2-0.41,3.21c-0.55,1.45-1.79,2.23-3.19,2.72c-2.3,0.82-4.85,0.86-7.19,0.21
			c-1.1-0.31-2.14-0.76-3.09-1.39c-0.98-0.65-1.83-1.43-2.98-1.77c-1.83-0.54-6.64,0.32-6.24-2.78c0.19-1.49,1.65-2.74,2.81-3.56
			c1.23-0.87,2.59-1.45,4.04-1.83c0.93-0.24,0.54-1.69-0.4-1.45c-2.6,0.68-5.12,2.06-6.81,4.19c-1.39,1.75-1.79,4.5,0.41,5.82
			c2.2,1.32,4.96,0.26,7.13,1.75c2.21,1.51,4.28,2.61,7,2.89c2.5,0.27,5.29-0.13,7.48-1.43c2.36-1.4,3.01-4,2.94-6.59
			c-0.17-6.32-3.93-11.79-4.86-17.95c-0.29-1.9-0.28-3.88,0.27-5.74c0.5-1.72,1.45-3.24,2.34-4.78c1.78-3.06,2.68-6.09,3.07-9.6
			C1378.31,398.97,1376.8,398.97,1376.7,399.93L1376.7,399.93z"/>
	</g>
</g>
<g>
	<g>
		<path d="M1346.95,460.36c8.98,2.86,18.48,3.93,27.88,3.3c0.96-0.06,0.97-1.56,0-1.5c-9.28,0.62-18.62-0.42-27.48-3.25
			C1346.42,458.62,1346.03,460.07,1346.95,460.36L1346.95,460.36z"/>
	</g>
</g>
<ellipse transform="matrix(0.873 -0.4878 0.4878 0.873 -40.6183 690.8789)" class="st12" cx="1306.02" cy="423.42" rx="9.71" ry="18.27"/>
<g>
	<g>
		<g>
			<path d="M1299.74,411.66c1.65,0.88,3.2,1.92,4.61,3.15c1.31,1.14,2.69,2.47,3.35,4.11c0.72,1.79-0.02,3.47-0.58,5.18
				c-0.6,1.82-0.73,3.65-0.43,5.54c0.15,0.95,1.6,0.55,1.45-0.4c-0.36-2.27,0.29-4.18,0.96-6.3c0.56-1.76,0.58-3.45-0.25-5.13
				c-1.62-3.28-5.21-5.77-8.34-7.45C1299.64,409.91,1298.89,411.2,1299.74,411.66L1299.74,411.66z"/>
		</g>
	</g>
	<g>
		<g>
			<path d="M1308.78,418.7c-2.75,0.08-5.69,1.7-6.24,4.6c-0.27,1.44,0.08,2.82,0.97,3.98c0.9,1.17,2.07,2.37,3.36,3.11
				c0.84,0.48,1.6-0.82,0.76-1.3c-1.04-0.6-1.92-1.54-2.71-2.44c-0.72-0.83-1.13-1.84-0.93-2.95c0.39-2.24,2.69-3.43,4.8-3.49
				C1309.75,420.18,1309.75,418.68,1308.78,418.7L1308.78,418.7z"/>
		</g>
	</g>
</g>
<g>
	<g>
		<path d="M1331.79,449.01c6.62-6.93,14.98-11.99,24.09-14.94c0.91-0.3,0.52-1.75-0.4-1.45c-9.34,3.03-17.95,8.21-24.75,15.33
			C1330.06,448.65,1331.12,449.71,1331.79,449.01L1331.79,449.01z"/>
	</g>
</g>
<g>
	<g>
		<path d="M1375.9,435.42c5.33,5.42,8.61,12.66,8.69,20.3c0.01,0.96,1.51,0.97,1.5,0c-0.09-8.03-3.53-15.66-9.13-21.36
			C1376.28,433.67,1375.22,434.73,1375.9,435.42L1375.9,435.42z"/>
	</g>
</g>
<g>
	<rect x="816.53" y="276.72" class="st6" width="312.81" height="399.54"/>
	<path d="M1128.84,277.22v398.54H817.03V277.22H1128.84 M1129.84,276.22H816.03v400.54h313.81V276.22L1129.84,276.22z"/>
</g>
<g>
	<rect x="864.23" y="354.32" class="st7" width="220.09" height="150.87"/>
	<path d="M1083.83,354.82v149.87H864.73V354.82H1083.83 M1084.83,353.82H863.73v151.87h221.09V353.82L1084.83,353.82z"/>
</g>
<path class="st16" d="M1014.98,509.33c-4.02,7.66-8.04,15.32-12.06,22.98c-17.09-0.79-34.17-1.58-51.26-2.37
	c-4.48-8.61-8.95-17.21-13.43-25.82c3.4-2.02,7.31-3.92,11.79-5.45c23.92-8.19,47.36-0.35,55.65,2.84
	C1008.77,504.12,1011.87,506.72,1014.98,509.33z"/>
<g>
	<path class="st17" d="M967.68,493.93c-2.39-0.16-4.79-0.31-7.18-0.47c-0.5-0.03-1.04-0.06-1.47,0.18c-0.41,0.22-0.61,0.63-0.8,1.02
		c-0.78,1.63-1.57,3.38-1.21,5.11c0.19,0.93,0.69,1.79,1.19,2.63c2.75,4.63,5.51,9.27,8.26,13.9c2.05-1.93,4.1-3.87,6.16-5.8
		c3.4,3.39,7.37,6.35,11.74,8.77c2.9-3.4,5.8-6.81,8.69-10.21c0.25-0.3,0.52-0.61,0.91-0.77c0.46-0.19,0.99-0.15,1.5-0.11
		c2.08,0.15,4.19,0.08,6.25-0.23c0.41-0.06,0.85-0.15,1.13-0.42c0.39-0.4,0.26-1,0.08-1.5c-1.49-3.98-4.98-7.13-8.37-10.12
		c-0.57-0.5-1.15-1.01-1.89-1.3c-0.77-0.3-1.65-0.33-2.49-0.35c-8.48-0.21-16.96-0.31-25.45-0.31"/>
</g>
<g>
	<path class="st18" d="M975.29,363.43c15.08-0.39,29.94-5.64,41.01-14.49c4.74,9.71,5.99,20.67,3.53,30.99
		c8.1-0.84,16-3.06,23.13-6.49c1.63,9.27-4.49,18.11-10.35,26c3.21-1.29,6.41-2.59,9.62-3.88c-2.16,5.67-5.74,10.94-10.43,15.33
		c-1.15,1.08-2.4,2.14-3.08,3.48c-0.57,1.12-0.71,2.36-0.84,3.58c-0.61,5.67-1.22,11.34-1.83,17.02c-0.13,1.18-0.28,2.41-1.05,3.38
		c-0.58,0.73-1.45,1.23-2.31,1.71c-22.45,12.44-50.41,14.53-77.08,14.53c-2.62,0-5.36-0.04-7.68-1.1c-3.62-1.66-5.26-5.29-7.84-8.05
		c-2.7-2.88-6.52-4.83-9.51-7.49c-3.41-3.04-5.66-6.91-7.41-10.86c-3.15-7.08-4.86-15.17-1.44-22.16c2.59-5.3,7.77-9.26,12.78-13.04
		c-5.1-0.2-10.25,0.5-15.03,2.05c1.16-3.86,6.81-4.84,10.67-7.03c0.49-0.28,1-0.64,1.07-1.14c0.06-0.41-0.18-0.8-0.41-1.16
		c-1.41-2.16-2.82-4.31-4.23-6.47c4.87,3.04,9.74,6.09,14.61,9.13c1.84-6.32,4.05-12.66,8.14-18.13s10.35-10.02,17.76-11.21
		c-1.21,3.56-1.95,7.25-2.2,10.96c7.79-4.05,15.58-8.1,23.37-12.15c-1.35,2.51-2.71,5.02-4.06,7.53"/>
</g>
<path class="st19" d="M1007.03,495.59c-13.56,5.96-28.38,0.75-43.31-4.5c-9.84-3.46-23.31-8.19-25.22-17.06
	c-1.06-4.93,1.12-12.62,1.64-14.45c1.18-4.14,2.28-5.7,2.74-9.71c0.62-5.38-0.92-6.42-0.82-10.66c0.21-8.84,7.04-10.83,8.22-19.43
	c0.4-2.9,0.24-7.22-2.74-12.79c11.37-0.54,23.07-0.94,35.09-1.18c11.91-0.24,23.52-0.31,34.81-0.24c2.98,5.8,4,10.63,4.39,13.98
	c0.64,5.57-0.27,9.01,1.92,14.92c0.92,2.47,1.19,2.18,3.56,6.87c3.95,7.79,6.27,12.38,6.3,17.29c0.02,2.29-0.46,5.47-5.21,13.03
	C1020.04,484.98,1015.79,491.74,1007.03,495.59z"/>
<ellipse transform="matrix(0.8135 -0.5816 0.5816 0.8135 -91.499 624.6136)" class="st19" cx="928.08" cy="454.96" rx="12.16" ry="16.83"/>
<g>
	<g>
		<g>
			<g>
				<path class="st20" d="M923.13,444.09c5.52,2.56,9.47,7.47,11.46,13.15c0.32,0.91,1.77,0.52,1.45-0.4
					c-2.11-6.03-6.28-11.33-12.15-14.05C923.02,442.39,922.25,443.68,923.13,444.09L923.13,444.09z"/>
			</g>
		</g>
		<g>
			<g>
				<path class="st20" d="M934.43,454.32c-2.48-0.2-5.72-0.29-7.24,2.08c-1.6,2.49-0.29,5.95,1.46,7.97
					c0.63,0.73,1.69-0.33,1.06-1.06c-0.78-0.9-1.33-1.97-1.57-3.13c-0.22-1.03-0.23-2.25,0.43-3.14c0.58-0.78,1.58-1.1,2.51-1.24
					c1.11-0.16,2.25-0.08,3.37,0.01C935.39,455.9,935.38,454.39,934.43,454.32L934.43,454.32z"/>
			</g>
		</g>
	</g>
</g>
<path d="M1018.27,442.76c-5.03,0.47-10.05,0.95-15.08,1.42c-0.5-0.76-3.6-5.72-1.1-10.9c0.19-0.39,3.15-6.3,8.22-6.16
	c4.63,0.13,7.18,5.19,7.68,6.16C1020.15,437.56,1018.73,441.59,1018.27,442.76z"/>
<path class="st21" d="M1018.27,444.18c-5.03,0.47-10.05,0.95-15.08,1.42c-0.5-0.76-3.6-5.72-1.1-10.9c0.19-0.39,3.15-6.3,8.22-6.16
	c4.63,0.13,7.18,5.19,7.68,6.16C1020.15,438.98,1018.73,443.01,1018.27,444.18z"/>
<path class="st22" d="M1020.19,421.21c-0.71-0.74-3-2.91-6.85-3.55c-5.88-0.98-10.23,2.47-10.69,2.84c0-2.53,0-5.05,0-7.58
	c0.52-0.3,4.94-2.75,10.14-1.18c4.04,1.21,5.89,4.05,6.3,4.74C1019.46,418.05,1019.82,419.63,1020.19,421.21z"/>
<path class="st22" d="M984.28,420.97c-1.51-0.32-3.79-0.81-6.58-1.42c-8.05-1.76-9.03-2.07-10.69-2.13
	c-2.68-0.1-6.93,0.45-12.34,4.26c4.21-8.56,8.38-10.79,11.51-11.13c2.78-0.31,4.61,0.88,10.96,1.66c3.9,0.48,7.15,0.52,9.32,0.47
	C985.74,415.44,985.01,418.2,984.28,420.97z"/>
<g>
	<path d="M979.89,447.26c-2.81-1.12-6.41-2.28-10.69-3.08c-3.04-0.57-5.82-0.84-8.22-0.95c-0.43-0.77-2.7-5.03-0.55-9.71
		c1.45-3.15,5.14-7.01,10.42-7.11c7-0.12,10.65,6.5,10.96,7.11C985.36,440.24,980.22,446.85,979.89,447.26z"/>
	<path class="st21" d="M979.89,448.69c-2.81-1.12-6.41-2.28-10.69-3.08c-3.04-0.57-5.82-0.84-8.22-0.95
		c-0.43-0.77-2.7-5.03-0.55-9.71c1.45-3.15,5.14-7.01,10.42-7.11c7-0.12,10.65,6.5,10.96,7.11
		C985.36,441.66,980.22,448.27,979.89,448.69z"/>
</g>
<ellipse class="st23" cx="969.06" cy="439.33" rx="7.26" ry="6.28"/>
<ellipse cx="969.61" cy="440.28" rx="4.8" ry="4.15"/>
<ellipse class="st24" cx="974" cy="437.08" rx="2.33" ry="2.13"/>
<ellipse class="st24" cx="963.03" cy="437.67" rx="1.78" ry="1.54"/>
<ellipse class="st23" cx="1008.13" cy="439.21" rx="7.13" ry="6.16"/>
<ellipse cx="1008.13" cy="438.97" rx="4.11" ry="3.55"/>
<ellipse class="st24" cx="1005.52" cy="437.31" rx="2.06" ry="1.42"/>
<g>
	<g>
		<g>
			<path class="st25" d="M997.32,433.08c-0.77,5.39-0.95,11.11,3.89,14.66c1.13,0.83,2.36,1.5,3.56,2.23
				c1.13,0.69,4.18,2.3,2.87,3.89c-2.12,2.57-4.9,4.79-7.51,6.83c-0.76,0.59,0.31,1.65,1.06,1.06c2.69-2.1,5.63-4.41,7.75-7.11
				c1.94-2.47-1.19-4.58-3.08-5.76c-2.71-1.7-5.69-3.09-6.85-6.31c-1.05-2.9-0.66-6.11-0.23-9.09
				C998.9,432.53,997.45,432.13,997.32,433.08L997.32,433.08z"/>
		</g>
	</g>
	<g>
		<g>
			<path class="st25" d="M990.57,460.13c0.16-0.01,0.31-0.01,0.47-0.01c0.08,0,0.16,0.01,0.23,0.02c0.02,0,0.14,0.02,0.03,0
				c-0.12-0.01,0.03,0.01,0.05,0.01c0.15,0.03,0.3,0.06,0.45,0.11c0.07,0.02,0.15,0.05,0.22,0.07c0.03,0.01,0.06,0.03,0.1,0.04
				c0.09,0.03-0.17-0.08-0.02-0.01c0.13,0.06,0.26,0.12,0.38,0.2c0.06,0.04,0.13,0.08,0.19,0.12c0.03,0.02,0.07,0.05,0.1,0.07
				c0.02,0.01,0.11,0.08,0.02,0.02c-0.1-0.07,0.02,0.02,0.04,0.03c0.02,0.02,0.05,0.04,0.07,0.06c0.05,0.05,0.11,0.1,0.16,0.15
				c0.05,0.05,0.1,0.11,0.14,0.16c0.07,0.07-0.01-0.01-0.03-0.04c0.02,0.04,0.06,0.08,0.08,0.11c0.22,0.32,0.67,0.5,1.03,0.27
				c0.32-0.21,0.51-0.68,0.27-1.03c-0.87-1.27-2.45-1.96-3.98-1.86c-0.39,0.03-0.77,0.33-0.75,0.75
				C989.83,459.76,990.15,460.16,990.57,460.13L990.57,460.13z"/>
		</g>
	</g>
</g>
<path class="st26" d="M1000.45,482.56c-2.32,0.54-11.11,2.34-20.28-1.66c-12.77-5.56-15.13-17.48-15.35-18.71
	c4.57,2.23,12.72,5.52,23.57,6.4c8.57,0.69,15.65-0.38,20.28-1.42C1005.93,472.3,1003.19,477.43,1000.45,482.56z"/>
<path class="st7" d="M1002.64,474.98c-4.8,0.38-11.24,0.45-18.64-0.71c-5.57-0.88-10.27-2.23-13.98-3.55
	c-1.55-2.29-3.11-4.58-4.66-6.87c5.74,2,13.65,4.13,23.3,4.97c6.49,0.57,12.25,0.41,17,0
	C1004.65,470.87,1003.65,472.93,1002.64,474.98z"/>
<path class="st27" d="M996.06,482.56c-1.11,0.4-2.92,0.91-5.21,0.95c-2.91,0.04-5.14-0.71-6.3-1.18c-1.55-0.87-3.11-1.74-4.66-2.61
	c1.89-0.66,5.28-1.59,9.59-1.42c3.63,0.14,6.47,0.99,8.22,1.66C997.16,480.82,996.61,481.69,996.06,482.56z"/>
<path class="st19" d="M983.73,517.62c-3.4-4.15-6.64-7.19-9.05-9.24c-4.51-3.85-6.94-4.98-8.77-8.05c-2.29-3.83-2.01-7.94-1.37-10.9
	c6.49,0.95,12.97,1.9,19.46,2.84C983.91,500.72,983.82,509.17,983.73,517.62z"/>
<g>
	<path class="st28" d="M829.92,663.26V289.73h286.03v373.53H829.92z M863.38,506.49h222.09V353.62H863.38V506.49z"/>
	<path d="M1115.45,290.23v372.53H830.42V290.23H1115.45 M862.88,506.99h1h221.09h1v-1V354.12v-1h-1H863.88h-1v1v151.87V506.99
		 M1116.45,289.23H829.42v374.53h287.03V289.23L1116.45,289.23z M863.88,505.99V354.12h221.09v151.87H863.88L863.88,505.99z"/>
</g>
<path class="st29" d="M1075.44,337.78h-203.8c-10.19,0-18.45-8.26-18.45-18.45v0c0-10.19,8.26-18.45,18.45-18.45h203.8
	c10.19,0,18.45,8.26,18.45,18.45v0C1093.89,329.52,1085.63,337.78,1075.44,337.78z"/>
<g>
	<path class="st29" d="M1070.91,552.58H877.65c-7.85,0-14.22-6.37-14.22-14.22v0c0-7.85,6.37-14.22,14.22-14.22h193.25
		c7.85,0,14.22,6.37,14.22,14.22v0C1085.12,546.21,1078.76,552.58,1070.91,552.58z"/>
	<text transform="matrix(1.0403 0 0 1 869.9639 546.8774)" class="st30 st31 st32">體力</text>
	<polygon class="st30" points="946.89,535.5 942.58,540.26 943.84,546.72 938.23,543.84 932.82,547.11 933.66,540.57 929.06,536.13 
		935.19,534.96 937.75,528.96 940.7,534.77 	"/>
	<polygon class="st30" points="973.19,535.5 968.88,540.26 970.14,546.72 964.53,543.84 959.12,547.11 959.96,540.57 955.36,536.13 
		961.48,534.96 964.05,528.96 966.99,534.77 	"/>
	<polygon class="st30" points="999.49,535.5 995.18,540.26 996.44,546.72 990.83,543.84 985.42,547.11 986.26,540.57 981.66,536.13 
		987.78,534.96 990.35,528.96 993.29,534.77 	"/>
	<polygon class="st30" points="1025.78,535.5 1021.48,540.26 1022.74,546.72 1017.13,543.84 1011.72,547.11 1012.56,540.57 
		1007.95,536.13 1014.08,534.96 1016.65,528.96 1019.59,534.77 	"/>
	<polygon class="st30" points="1052.08,535.5 1047.78,540.26 1049.04,546.72 1043.43,543.84 1038.02,547.11 1038.86,540.57 
		1034.25,536.13 1040.38,534.96 1042.95,528.96 1045.89,534.77 	"/>
</g>
<path class="st29" d="M1070.91,600.68H877.65c-7.85,0-14.22-6.37-14.22-14.22l0,0c0-7.85,6.37-14.22,14.22-14.22h193.25
	c7.85,0,14.22,6.37,14.22,14.22l0,0C1085.12,594.31,1078.76,600.68,1070.91,600.68z"/>
<text transform="matrix(1.0403 0 0 1 869.9639 594.979)" class="st30 st31 st32">智力</text>
<polygon class="st30" points="946.89,583.6 942.58,588.36 943.84,594.82 938.23,591.95 932.82,595.21 933.66,588.68 929.06,584.23 
	935.19,583.07 937.75,577.06 940.7,582.87 "/>
<polygon class="st30" points="973.19,583.6 968.88,588.36 970.14,594.82 964.53,591.95 959.12,595.21 959.96,588.68 955.36,584.23 
	961.48,583.07 964.05,577.06 966.99,582.87 "/>
<polygon class="st30" points="999.49,583.6 995.18,588.36 996.44,594.82 990.83,591.95 985.42,595.21 986.26,588.68 981.66,584.23 
	987.78,583.07 990.35,577.06 993.29,582.87 "/>
<polygon class="st33" points="1025.78,583.6 1021.48,588.36 1022.74,594.82 1017.13,591.95 1011.72,595.21 1012.56,588.68 
	1007.95,584.23 1014.08,583.07 1016.65,577.06 1019.59,582.87 "/>
<polygon class="st33" points="1052.08,583.6 1047.78,588.36 1049.04,594.82 1043.43,591.95 1038.02,595.21 1038.86,588.68 
	1034.25,584.23 1040.38,583.07 1042.95,577.06 1045.89,582.87 "/>
<path class="st29" d="M1070.91,648.78H877.65c-7.85,0-14.22-6.37-14.22-14.22l0,0c0-7.85,6.37-14.22,14.22-14.22h193.25
	c7.85,0,14.22,6.37,14.22,14.22l0,0C1085.12,642.42,1078.76,648.78,1070.91,648.78z"/>
<text transform="matrix(1.0653 0 0 1 869.9639 643.2441)" class="st30 st31 st34">力量</text>
<polygon class="st30" points="946.89,631.7 942.58,636.46 943.84,642.92 938.23,640.05 932.82,643.31 933.66,636.78 929.06,632.33 
	935.19,631.17 937.75,625.16 940.7,630.97 "/>
<polygon class="st30" points="973.19,631.7 968.88,636.46 970.14,642.92 964.53,640.05 959.12,643.31 959.96,636.78 955.36,632.33 
	961.48,631.17 964.05,625.16 966.99,630.97 "/>
<polygon class="st30" points="999.49,631.7 995.18,636.46 996.44,642.92 990.83,640.05 985.42,643.31 986.26,636.78 981.66,632.33 
	987.78,631.17 990.35,625.16 993.29,630.97 "/>
<polygon class="st30" points="1025.78,631.7 1021.48,636.46 1022.74,642.92 1017.13,640.05 1011.72,643.31 1012.56,636.78 
	1007.95,632.33 1014.08,631.17 1016.65,625.16 1019.59,630.97 "/>
<polygon class="st35" points="1052.08,631.7 1047.78,636.46 1049.04,642.92 1043.43,640.05 1038.02,643.31 1038.86,636.78 
	1034.25,632.33 1040.38,631.17 1042.95,625.16 1045.89,630.97 "/>
<g>
	<g>
		<path class="st30" d="M948.76,310.42h8.6c4.75,0,6.56,2.52,6.56,5.12c0,2.26-1.17,3.72-2.5,4.34c1.33,0.51,3.07,1.93,3.07,4.56
			c0,3.43-2.64,5.99-6.83,5.99h-8.89V310.42z M956.87,318.32c2.02,0,2.86-0.92,2.86-2.33c0-1.47-1.09-2.22-2.73-2.22h-4.05v4.55
			H956.87z M952.94,327.1h3.84c2.3,0,3.34-0.98,3.34-2.79c0-1.61-1.02-2.64-3.36-2.64h-3.81V327.1z"/>
		<path class="st30" d="M981.25,322.9c0,4.55-2.67,7.89-7.35,7.89c-4.58,0-7.25-3.33-7.25-7.81c0-4.64,2.76-7.91,7.45-7.91
			C978.44,315.06,981.25,318.18,981.25,322.9z M970.8,322.92c0,2.89,1.22,4.61,3.19,4.61c2,0,3.11-1.72,3.11-4.58
			c0-3.15-1.13-4.63-3.17-4.63C972.04,318.32,970.8,319.75,970.8,322.92z"/>
		<path class="st30" d="M984.06,309.24h4.09V317c0.61-0.97,1.83-1.94,4.23-1.94c4.02,0,6.03,3.38,6.03,7.6
			c0,4.31-2.18,8.13-6.42,8.13c-2.2,0-3.16-0.68-3.88-1.77c0,0.49-0.08,1.04-0.16,1.42h-3.91c0.03-1.63,0.03-3.28,0.03-4.91V309.24z
			 M994.25,322.74c0-2.5-0.92-4.34-3.12-4.34c-2.34,0-3.17,1.55-3.17,4.61c0,2.53,0.74,4.48,3.12,4.48
			C993.16,327.48,994.25,325.58,994.25,322.74z"/>
	</g>
</g>
<g>
	<rect x="441.5" y="280.96" class="st6" width="312.81" height="399.54"/>
	<path d="M753.81,281.46V680H442V281.46H753.81 M754.81,280.46H441V681h313.81V280.46L754.81,280.46z"/>
</g>
<g>
	<rect x="489.21" y="358.55" class="st7" width="220.09" height="150.87"/>
	<path d="M708.8,359.05v149.87H489.7V359.05H708.8 M709.8,358.05H488.7v151.87H709.8V358.05L709.8,358.05z"/>
</g>
<g>
	<path class="st28" d="M454.89,667.49V293.96h286.03v373.53H454.89z M488.35,510.72h222.09V357.86H488.35V510.72z"/>
	<path d="M740.42,294.46v372.53H455.39V294.46H740.42 M487.85,511.22h1h221.09h1v-1V358.36v-1h-1H488.85h-1v1v151.87V511.22
		 M741.42,293.46H454.39v374.53h287.03V293.46L741.42,293.46z M488.85,510.22V358.36h221.09v151.87H488.85L488.85,510.22z"/>
</g>
<path class="st29" d="M700.41,342.02h-203.8c-10.19,0-18.45-8.26-18.45-18.45v0c0-10.19,8.26-18.45,18.45-18.45h203.8
	c10.19,0,18.45,8.26,18.45,18.45v0C718.86,333.76,710.6,342.02,700.41,342.02z"/>
<path class="st29" d="M695.88,556.81H502.63c-7.85,0-14.22-6.37-14.22-14.22l0,0c0-7.85,6.37-14.22,14.22-14.22h193.25
	c7.85,0,14.22,6.37,14.22,14.22l0,0C710.1,550.45,703.73,556.81,695.88,556.81z"/>
<text transform="matrix(1.0403 0 0 1 494.9355 551.1128)" class="st30 st31 st32">體力</text>
<polygon class="st30" points="571.86,539.73 567.55,544.49 568.81,550.95 563.2,548.08 557.79,551.34 558.64,544.81 554.03,540.37 
	560.16,539.2 562.72,533.19 565.67,539 "/>
<polygon class="st30" points="598.16,539.73 593.85,544.49 595.11,550.95 589.5,548.08 584.09,551.34 584.93,544.81 580.33,540.37 
	586.46,539.2 589.02,533.19 591.97,539 "/>
<polygon class="st30" points="624.46,539.73 620.15,544.49 621.41,550.95 615.8,548.08 610.39,551.34 611.23,544.81 606.63,540.37 
	612.76,539.2 615.32,533.19 618.27,539 "/>
<polygon class="st30" points="650.76,539.73 646.45,544.49 647.71,550.95 642.1,548.08 636.69,551.34 637.53,544.81 632.93,540.37 
	639.06,539.2 641.62,533.19 644.57,539 "/>
<polygon class="st35" points="677.06,539.73 672.75,544.49 674.01,550.95 668.4,548.08 662.99,551.34 663.83,544.81 659.23,540.37 
	665.36,539.2 667.92,533.19 670.87,539 "/>
<path class="st29" d="M695.88,604.91H502.63c-7.85,0-14.22-6.37-14.22-14.22l0,0c0-7.85,6.37-14.22,14.22-14.22h193.25
	c7.85,0,14.22,6.37,14.22,14.22l0,0C710.1,598.55,703.73,604.91,695.88,604.91z"/>
<text transform="matrix(1.0403 0 0 1 494.9355 599.2144)" class="st30 st31 st32">智力</text>
<polygon class="st30" points="571.86,587.83 567.55,592.59 568.81,599.05 563.2,596.18 557.79,599.44 558.64,592.91 554.03,588.47 
	560.16,587.3 562.72,581.29 565.67,587.11 "/>
<polygon class="st30" points="598.16,587.83 593.85,592.59 595.11,599.05 589.5,596.18 584.09,599.44 584.93,592.91 580.33,588.47 
	586.46,587.3 589.02,581.29 591.97,587.11 "/>
<polygon class="st30" points="624.46,587.83 620.15,592.59 621.41,599.05 615.8,596.18 610.39,599.44 611.23,592.91 606.63,588.47 
	612.76,587.3 615.32,581.29 618.27,587.11 "/>
<polygon class="st30" points="650.76,587.83 646.45,592.59 647.71,599.05 642.1,596.18 636.69,599.44 637.53,592.91 632.93,588.47 
	639.06,587.3 641.62,581.29 644.57,587.11 "/>
<polygon class="st30" points="677.06,587.83 672.75,592.59 674.01,599.05 668.4,596.18 662.99,599.44 663.83,592.91 659.23,588.47 
	665.36,587.3 667.92,581.29 670.87,587.11 "/>
<path class="st29" d="M695.88,653.02H502.63c-7.85,0-14.22-6.37-14.22-14.22l0,0c0-7.85,6.37-14.22,14.22-14.22h193.25
	c7.85,0,14.22,6.37,14.22,14.22l0,0C710.1,646.65,703.73,653.02,695.88,653.02z"/>
<text transform="matrix(1.0653 0 0 1 494.9365 647.4795)" class="st30 st31 st34">力量</text>
<polygon class="st30" points="571.86,635.94 567.55,640.7 568.81,647.15 563.2,644.28 557.79,647.55 558.64,641.01 554.03,636.57 
	560.16,635.4 562.72,629.39 565.67,635.21 "/>
<polygon class="st30" points="598.16,635.94 593.85,640.7 595.11,647.15 589.5,644.28 584.09,647.55 584.93,641.01 580.33,636.57 
	586.46,635.4 589.02,629.39 591.97,635.21 "/>
<polygon class="st30" points="624.46,635.94 620.15,640.7 621.41,647.15 615.8,644.28 610.39,647.55 611.23,641.01 606.63,636.57 
	612.76,635.4 615.32,629.39 618.27,635.21 "/>
<polygon class="st30" points="650.76,635.94 646.45,640.7 647.71,647.15 642.1,644.28 636.69,647.55 637.53,641.01 632.93,636.57 
	639.06,635.4 641.62,629.39 644.57,635.21 "/>
<polygon class="st35" points="677.06,635.94 672.75,640.7 674.01,647.15 668.4,644.28 662.99,647.55 663.83,641.01 659.23,636.57 
	665.36,635.4 667.92,629.39 670.87,635.21 "/>
<g>
	<g>
		<path class="st30" d="M564.94,330.05l-1.53,4.62h-4.18l6.68-20.02h5.34l6.97,20.02h-4.47l-1.62-4.62H564.94z M571.21,326.5
			c-1.4-4.22-2.29-6.92-2.76-8.72h-0.03c-0.48,1.97-1.47,5.11-2.59,8.72H571.21z"/>
		<path class="st30" d="M580.37,313.48h4.09v3.71h-4.09V313.48z M580.37,319.64h4.09v15.03h-4.09V319.64z"/>
		<path class="st30" d="M588.13,334.67v-21.2h4.09v21.2H588.13z"/>
		<path class="st30" d="M608.68,329.82c-0.51,2.5-2.24,5.21-6.64,5.21c-4.6,0-6.96-3.24-6.96-7.75c0-4.44,2.66-7.97,7.16-7.97
			c4.98,0,6.36,3.64,6.44,5.34h-3.99c-0.25-1.22-0.93-2.08-2.53-2.08c-1.87,0-2.93,1.67-2.93,4.58c0,3.2,1.12,4.66,2.91,4.66
			c1.4,0,2.16-0.84,2.52-1.97H608.68z"/>
		<path class="st30" d="M614.52,328.05c0,1.88,0.93,3.72,2.96,3.72c1.7,0,2.19-0.7,2.58-1.6h4.09c-0.52,1.84-2.14,4.86-6.78,4.86
			c-4.87,0-6.98-3.7-6.98-7.65c0-4.71,2.38-8.08,7.12-8.08c5.07,0,6.8,3.73,6.8,7.49c0,0.51,0,0.84-0.05,1.27H614.52z
			 M620.23,325.49c-0.03-1.75-0.71-3.22-2.71-3.22c-1.96,0-2.75,1.38-2.91,3.22H620.23z"/>
	</g>
</g>
<path class="st36" d="M643.1,442.73c-4.97,0-9.94,0-14.91,0v-18.99c6.44,0.85,12.89,1.7,19.33,2.55
	C646.05,431.77,644.57,437.25,643.1,442.73z"/>
<rect x="578.87" y="380.49" class="st36" width="27.85" height="18.51"/>
<path class="st37" d="M630.32,509.92c-23.32-0.37-46.64-0.74-69.96-1.12c1.98-4.01,6-10.67,13.6-16.12c3.53-2.53,9.5-6.7,18.19-7.34
	c5.85-0.43,10.28,0.94,11.31,1.28c1.73,0.56,5.8,2.08,14.58,10.21C621.36,499.92,625.69,504.26,630.32,509.92z"/>
<path class="st36" d="M639,452.31c-5.57,1.81-11.14,3.62-16.71,5.43c-1.71,3.67-2.41,7.24-2.35,10.33
	c-3.59,1.34-7.17,2.69-10.76,4.03c-1.24,3.74-0.21,7.55,2.46,9.58c1.67,1.26,4.19,1.99,6.23,1.28c2.24-0.79,3.97-3.37,4.58-7
	c0.58,0.69,1.25,1.22,1.98,1.58c4.62,2.25,12.37-2.45,15.56-8.46C644.21,461.11,639.37,452.9,639,452.31z"/>
<path class="st38" d="M646.59,435.34c-3.49-3.4-11.22-1.38-17.26,4.51c-1.94,1.89-3.47,3.96-4.54,6c-0.67-9.87-1.34-19.74-2-29.61
	c-9.7-17.57-29.03-27.12-47.35-23.94c-20.77,3.6-30.4,21.85-31.46,23.94c-2.07,5.67-1.9,9.97-1.31,12.93c0.7,3.5,2.05,5.34,2.79,9.9
	c0.6,3.68,0.42,6.81,0.16,8.94c-1.1,2.55-3.96,10.12-0.66,17.72c1.92,4.41,5.08,6.89,9.5,10.37c4.66,3.67,9.97,7.84,17.53,9.42
	c8.11,1.69,14.38-0.52,25.07-4.31c8.46-3,15.79-5.69,21.95-12.77c3.53-4.05,5.47-8.14,6.55-11.01c0-0.02,0-0.05,0-0.07
	c3.79,2.39,10.81,0.25,16.4-5.19C648,446.26,650.08,438.74,646.59,435.34z"/>
<g>
	<g>
		<path d="M645.67,439.9c-0.58-1.13-1.28-2.46-2.22-3.33c-1.05-0.98-2.17-0.02-3.08,0.66c-2.15,1.61-4.08,3.49-5.85,5.5
			c-0.88,1-1.73,2.03-2.55,3.08c-0.78,0.98-1.72,1.98-2.29,3.11c-0.5,0.98-0.63,2.24,0.13,3.13c0.67,0.78,1.76,0.9,2.68,0.52
			c2.94-1.19,1.82-5.14,1.5-7.5c-0.13-0.95-1.57-0.55-1.45,0.4c0.17,1.29,0.49,2.66,0.42,3.96c-0.05,0.78-0.71,2.28-1.79,1.8
			c-1.19-0.53,0.3-2.35,0.72-2.89c0.74-0.97,1.5-1.94,2.28-2.88c1.53-1.86,3.15-3.64,4.93-5.25c0.89-0.8,1.84-1.68,2.87-2.29
			c0.48-0.28,0.5-0.24,0.83,0.2c0.16,0.22,0.32,0.44,0.48,0.66c0.41,0.6,0.77,1.23,1.1,1.87
			C644.81,441.52,646.11,440.76,645.67,439.9L645.67,439.9z"/>
	</g>
</g>
<g>
	<g>
		<path d="M635.47,443.9c0.17,0.04,0.34,0.09,0.51,0.14c0.07,0.03,0.15,0.05,0.22,0.08c0.04,0.02,0.09,0.03,0.12,0.05
			c-0.07-0.04-0.1-0.04-0.01,0c0.31,0.14,0.61,0.31,0.89,0.5c0.06,0.04,0.13,0.09,0.19,0.14c0.07,0.05-0.11-0.09-0.01,0
			c0.03,0.03,0.07,0.06,0.1,0.08c0.13,0.11,0.25,0.22,0.36,0.34c0.12,0.12,0.24,0.25,0.35,0.39c0.06,0.07,0,0.01-0.02-0.03
			c0.02,0.04,0.05,0.07,0.08,0.1c0.06,0.08,0.11,0.16,0.16,0.24c0.21,0.33,0.67,0.5,1.03,0.27c0.33-0.21,0.5-0.67,0.27-1.03
			c-0.88-1.35-2.27-2.35-3.84-2.72c-0.38-0.09-0.83,0.12-0.92,0.52C634.86,443.36,635.06,443.81,635.47,443.9L635.47,443.9z"/>
	</g>
</g>
<g>
	<path d="M608.03,443.53c-2.6,1.32-6.13,2.8-10.49,3.83c-4.51,1.07-8.47,1.31-11.47,1.28c-0.48-1.24-0.97-2.92-1.15-4.95
		c-0.27-3.09,0.31-5.61,0.82-7.18c0.42-0.92,3.03-6.38,9.01-7.98c5.76-1.54,13.52,0.79,15.24,6.22
		C611.27,438.78,608.64,442.67,608.03,443.53z"/>
	<path class="st39" d="M608.03,445.13c-2.6,1.32-6.13,2.8-10.49,3.83c-4.51,1.07-8.47,1.31-11.47,1.28
		c-0.48-1.24-0.97-2.92-1.15-4.95c-0.27-3.09,0.31-5.61,0.82-7.18c0.42-0.92,3.03-6.38,9.01-7.98c5.76-1.54,13.52,0.79,15.24,6.22
		C611.27,440.38,608.64,444.27,608.03,445.13z"/>
</g>
<ellipse class="st40" cx="598.78" cy="440.1" rx="7.29" ry="7.1"/>
<ellipse cx="598.78" cy="440.1" rx="5" ry="4.87"/>
<ellipse class="st15" cx="595.01" cy="437.62" rx="3.19" ry="2.39"/>
<g>
	<g>
		<g>
			<path d="M605.96,430.17c0.21-0.46,0.41-0.92,0.62-1.38c0.11-0.17,0.17-0.36,0.18-0.56c0.04-0.2,0.04-0.4-0.03-0.6
				c-0.05-0.2-0.14-0.37-0.27-0.51c-0.11-0.16-0.25-0.29-0.42-0.39c-0.12-0.05-0.24-0.1-0.36-0.15c-0.27-0.07-0.53-0.07-0.8,0
				c-0.12,0.05-0.24,0.1-0.36,0.15c-0.23,0.13-0.4,0.31-0.54,0.54c-0.21,0.46-0.41,0.92-0.62,1.38c-0.11,0.17-0.17,0.36-0.18,0.56
				c-0.04,0.2-0.04,0.4,0.03,0.6c0.05,0.2,0.14,0.37,0.27,0.51c0.11,0.16,0.25,0.29,0.42,0.39c0.12,0.05,0.24,0.1,0.36,0.15
				c0.27,0.07,0.53,0.07,0.8,0c0.12-0.05,0.24-0.1,0.36-0.15C605.64,430.57,605.82,430.39,605.96,430.17L605.96,430.17z"/>
		</g>
	</g>
	<g>
		<g>
			<path d="M607.56,432.93c0.42-0.15,0.84-0.32,1.23-0.54c0.39-0.22,0.74-0.48,1.09-0.76c0.6-0.48,1.11-1.08,1.52-1.74
				c0.2-0.32,0.25-0.79,0.15-1.16c-0.1-0.35-0.36-0.73-0.69-0.9c-0.74-0.39-1.61-0.17-2.05,0.54c-0.1,0.16-0.2,0.31-0.31,0.45
				c0.08-0.1,0.16-0.2,0.23-0.3c-0.29,0.38-0.63,0.71-1.01,1.01c0.1-0.08,0.2-0.16,0.3-0.23c-0.39,0.3-0.82,0.55-1.28,0.75
				c0.12-0.05,0.24-0.1,0.36-0.15c-0.11,0.05-0.23,0.09-0.35,0.13c-0.37,0.13-0.69,0.34-0.9,0.69c-0.19,0.32-0.27,0.8-0.15,1.16
				c0.12,0.36,0.34,0.71,0.69,0.9C606.74,432.96,607.18,433.06,607.56,432.93L607.56,432.93z"/>
		</g>
	</g>
	<g>
		<g>
			<path d="M610.7,434.35c0.6-0.33,1.2-0.66,1.8-0.99c0.17-0.09,0.32-0.22,0.42-0.39c0.13-0.14,0.22-0.31,0.27-0.51
				c0.06-0.2,0.07-0.4,0.03-0.6c-0.01-0.2-0.07-0.39-0.18-0.56c-0.21-0.32-0.51-0.6-0.9-0.69c-0.4-0.09-0.79-0.05-1.16,0.15
				c-0.6,0.33-1.2,0.66-1.79,0.99c-0.17,0.09-0.32,0.22-0.42,0.39c-0.13,0.14-0.22,0.31-0.27,0.51c-0.06,0.2-0.07,0.4-0.03,0.6
				c0.01,0.2,0.07,0.39,0.18,0.56c0.21,0.32,0.51,0.6,0.9,0.69C609.94,434.59,610.33,434.55,610.7,434.35L610.7,434.35z"/>
		</g>
	</g>
	<g>
		<g>
			<path d="M611.83,437.91c0.62-0.3,1.23-0.6,1.85-0.9c0.17-0.09,0.32-0.22,0.42-0.39c0.13-0.14,0.22-0.31,0.27-0.51
				c0.06-0.2,0.07-0.4,0.03-0.6c-0.01-0.2-0.07-0.39-0.18-0.56c-0.21-0.32-0.51-0.6-0.9-0.69c-0.13-0.02-0.27-0.04-0.4-0.05
				c-0.27,0-0.52,0.07-0.76,0.2c-0.62,0.3-1.23,0.6-1.85,0.9c-0.17,0.09-0.32,0.22-0.42,0.39c-0.13,0.14-0.22,0.31-0.27,0.51
				c-0.06,0.2-0.07,0.4-0.03,0.6c0.01,0.2,0.07,0.39,0.18,0.56c0.21,0.32,0.51,0.6,0.9,0.69c0.13,0.02,0.27,0.04,0.4,0.05
				C611.34,438.11,611.59,438.04,611.83,437.91L611.83,437.91z"/>
		</g>
	</g>
</g>
<path class="st36" d="M608.36,425.02c-1.07-1.16-3.84-3.85-8.36-4.95c-6.48-1.58-11.69,1.28-12.78,1.92
	c-0.89,0.33-1.87-0.14-2.13-0.96c-0.24-0.75,0.17-1.61,0.98-1.92c1.18-0.89,4.55-3.17,9.18-3.03
	C600.73,416.24,605.77,419.72,608.36,425.02z"/>
<path class="st36" d="M556.59,423.9c-1.03-0.35-2.59-0.71-4.42-0.48c-5.06,0.63-7.69,5.14-8.03,5.75l0,0
	c1.46-5.36,5.36-8.85,9.18-8.78c0.77,0.01,2.39,0.19,4.26,1.6c0.03,0.1,0.2,0.7-0.16,1.28C557.13,423.69,556.72,423.85,556.59,423.9
	z"/>
<g>
	<path d="M566.42,449.27c-2.89-0.09-6.27-0.39-9.99-1.12c-2.95-0.57-5.58-1.31-7.86-2.07c-1.48-5.48-0.52-10.67,2.46-12.45
		c4.25-2.55,12.21,2.11,14.75,8.14C567.02,444.75,566.75,447.59,566.42,449.27z"/>
	<path class="st39" d="M566.42,450.87c-2.89-0.09-6.27-0.39-9.99-1.12c-2.95-0.57-5.58-1.31-7.86-2.07
		c-1.48-5.48-0.52-10.67,2.46-12.45c4.25-2.55,12.21,2.11,14.75,8.14C567.02,446.35,566.75,449.19,566.42,450.87z"/>
</g>
<g>
	<g>
		<path d="M548.11,432.82c0.51,0.67,1.02,1.35,1.53,2.02c0.07,0.13,0.17,0.24,0.29,0.32c0.11,0.1,0.24,0.17,0.38,0.2
			c0.27,0.07,0.63,0.04,0.87-0.11c0.24-0.15,0.45-0.39,0.52-0.67c0.06-0.27,0.06-0.63-0.11-0.87c-0.51-0.67-1.02-1.35-1.53-2.02
			c-0.07-0.13-0.17-0.24-0.29-0.32c-0.11-0.1-0.24-0.17-0.38-0.2c-0.27-0.07-0.63-0.04-0.87,0.11c-0.24,0.15-0.45,0.39-0.52,0.67
			C547.93,432.23,547.93,432.58,548.11,432.82L548.11,432.82z"/>
	</g>
</g>
<g>
	<g>
		<path d="M546.26,436.06c0.08,0.01,0.16,0.02,0.24,0.03c-0.1-0.01-0.2-0.03-0.3-0.04c0.97,0.13,1.92,0.34,2.86,0.62
			c0.56,0.17,1.25-0.2,1.38-0.79c0.14-0.61-0.18-1.2-0.79-1.38c-1.11-0.33-2.24-0.55-3.39-0.69c-0.27-0.03-0.61,0.15-0.8,0.33
			c-0.2,0.2-0.34,0.52-0.33,0.8c0.01,0.29,0.11,0.59,0.33,0.8c0.08,0.06,0.15,0.12,0.23,0.18
			C545.87,436,546.05,436.06,546.26,436.06L546.26,436.06z"/>
	</g>
</g>
<g>
	<g>
		<path d="M545.26,438.57c0.49,0,0.98,0.03,1.47,0.09c-0.1-0.01-0.2-0.03-0.3-0.04c0.43,0.06,0.86,0.15,1.29,0.26
			c0.28,0.08,0.61,0.03,0.87-0.11c0.23-0.14,0.46-0.4,0.52-0.67c0.13-0.59-0.18-1.22-0.79-1.38c-0.99-0.27-2.03-0.4-3.05-0.39
			c-0.29,0-0.59,0.12-0.8,0.33c-0.2,0.2-0.34,0.52-0.33,0.8C544.16,438.05,544.62,438.57,545.26,438.57L545.26,438.57z"/>
	</g>
</g>
<g>
	<g>
		<path d="M545.64,440.75c0.44,0.06,0.89,0.12,1.33,0.18c0.15,0.05,0.3,0.05,0.45,0.02c0.15-0.01,0.29-0.05,0.42-0.13
			c0.13-0.07,0.24-0.17,0.32-0.29c0.1-0.11,0.17-0.24,0.2-0.38c0.07-0.29,0.05-0.61-0.11-0.87c-0.06-0.08-0.12-0.15-0.18-0.23
			c-0.14-0.14-0.31-0.24-0.5-0.29c-0.44-0.06-0.89-0.12-1.33-0.18c-0.15-0.05-0.3-0.05-0.45-0.02c-0.15,0.01-0.29,0.05-0.42,0.13
			c-0.13,0.07-0.24,0.17-0.32,0.29c-0.1,0.11-0.17,0.24-0.2,0.38c-0.07,0.29-0.05,0.61,0.11,0.87c0.06,0.08,0.12,0.15,0.18,0.23
			C545.28,440.6,545.45,440.69,545.64,440.75L545.64,440.75z"/>
	</g>
</g>
<ellipse class="st40" cx="556.92" cy="443.21" rx="6.55" ry="6.38"/>
<ellipse cx="557.82" cy="442.81" rx="4.51" ry="4.39"/>
<ellipse transform="matrix(0.8793 -0.4762 0.4762 0.8793 -142.4103 317.2407)" class="st15" cx="554.77" cy="439.62" rx="2.68" ry="1.72"/>
<path class="st36" d="M632.68,411.44c-4.43-4.34-9.98-7.41-15.52-10.29c-16.55-8.6-34.18-16.18-52.89-17.5
	c-4.02-0.29-7.77-0.37-11.86,0.75c-2.53,0.69-5.17,2.05-10.45,4.77c-5.37,2.77-8.05,4.15-10.03,5.77c-2.83,2.31-3.19,3.46-7.54,8.16
	c-2.83,3.07-5.29,5.42-6.89,6.88c2.44-1.1,4.95-2.06,7.51-2.86c-3.29,8.73-3.2,18.62,0.25,27.29c1.78-3.46,3.61-6.98,6.42-9.7
	c0.42,1.3,1.61,4.41,4.75,7.01c3.37,2.79,6.98,3.36,8.36,3.51c-0.3-5.74-0.6-11.48-0.9-17.22c0.32-0.12,0.64-0.24,0.96-0.36
	c10.39-3.85,20.78-7.71,31.17-11.56c-4.8,5.11-9.62,10.24-13.56,16.01c13.36-6.76,27.23-12.57,41.46-17.34
	c1.03,3.4,2.07,6.8,3.1,10.2c1.11,3.64,2.24,7.33,4.35,10.52c2.76,4.16,6.96,7.14,11.23,9.89c0.22,3.14,0.25,6.81-0.16,10.89
	c-0.55,5.47-1.74,10.11-2.95,13.73c3.14-7.09,6.29-14.17,9.43-21.26c0.21,0.05,0.41,0.1,0.62,0.13c2.92,0.48,5.96-0.88,7.86-3.09
	c1.9-2.21,2.74-5.14,2.8-8.02C640.34,421.61,637.11,415.78,632.68,411.44z"/>
<path class="st41" d="M646.05,432.2c-1.97,0-3.93,0-5.9,0c-18.52-27.87-42.45-45.36-60.79-45.96c-10.48-0.35-22.28,2.23-22.28,2.23
	c-9.7,2.12-17.37,5.36-22.61,7.98c1.87-2.54,5.35-6.55,10.98-9.74c7.96-4.5,15.6-4.73,19.01-4.63c5.11-3.35,14.95-8.77,28.18-9.74
	c1.58-0.11,36.65-2.13,50.79,23.3C652.17,411.38,647.46,427.83,646.05,432.2z"/>
<g>
	<g>
		<path d="M574.1,380.8c1.46-2.38,3.6-4.26,6.11-5.47c0.37-0.18,0.46-0.7,0.27-1.03c-0.22-0.37-0.66-0.44-1.03-0.27
			c-2.74,1.31-5.07,3.42-6.65,6.01C572.3,380.86,573.6,381.62,574.1,380.8L574.1,380.8z"/>
	</g>
</g>
<g>
	<g>
		<path d="M621.9,378.83c8.8,9.83,12.85,23.55,10.56,36.57c-0.17,0.94,1.28,1.35,1.45,0.4c2.38-13.58-1.76-27.77-10.95-38.03
			C622.32,377.05,621.26,378.11,621.9,378.83L621.9,378.83z"/>
	</g>
</g>
<g>
	<g>
		<path d="M548.77,385.56c0.77-0.15,1.47-0.53,2.23-0.73c0.66-0.17,1.32-0.3,1.97-0.47c1.84-0.48,3.7-0.88,5.58-1.23
			c3.65-0.68,7.35-1.14,11.06-1.35c7.38-0.43,14.79,0.12,22.05,1.5c3.47,0.66,6.92,1.51,10.28,2.6c1.58,0.51,3.15,1.05,4.7,1.64
			c1.66,0.63,3.25,1.54,4.93,2.08c3.01,0.97,5.92,2.71,8.66,4.29c2.81,1.62,5.53,3.4,8.15,5.32c5.9,4.33,11.21,9.42,15.86,15.06
			c0.61,0.75,1.67-0.32,1.06-1.06c-17.75-21.56-45.45-33.89-73.34-33.03c-3.99,0.12-7.98,0.53-11.92,1.18
			c-2.06,0.34-4.1,0.75-6.13,1.22c-0.97,0.23-1.93,0.48-2.9,0.72c-0.89,0.21-1.73,0.64-2.62,0.82
			C547.42,384.3,547.82,385.74,548.77,385.56L548.77,385.56z"/>
	</g>
</g>
<g>
	<g>
		<path d="M573.52,381.98c5.82-0.76,11.63,2.32,16.83,4.54c5.23,2.23,10.38,4.68,15.23,7.66c9.67,5.95,17.62,14.39,25.34,22.62
			c4.23,4.51,8.2,9.3,10.99,14.85c0.43,0.86,1.73,0.1,1.3-0.76c-2.51-5-5.99-9.42-9.74-13.54c-3.9-4.29-7.99-8.44-12.14-12.48
			c-4.17-4.05-8.58-7.86-13.46-11.03c-4.96-3.22-10.3-5.82-15.72-8.18c-2.99-1.3-6-2.6-9.07-3.72c-3.07-1.12-6.28-1.91-9.57-1.48
			C572.58,380.6,572.56,382.1,573.52,381.98L573.52,381.98z"/>
	</g>
</g>
<g>
	<g>
		<g>
			<path d="M569.84,448.69c-0.31,3.96-4.39,6.02-7.68,7.19c-0.47,0.17-0.81,0.88-0.33,1.25c1.82,1.42,3.73,2.7,5.76,3.81
				c0.85,0.46,1.6-0.83,0.76-1.3c-1.91-1.05-3.74-2.24-5.45-3.58c-0.11,0.42-0.22,0.84-0.33,1.25c4-1.42,8.41-3.91,8.78-8.63
				C571.42,447.73,569.92,447.73,569.84,448.69L569.84,448.69z"/>
		</g>
	</g>
	<g>
		<g>
			<path d="M571.91,460.53c0.73-0.17,1.34-0.27,2.04-0.33c0.73-0.06,1.46-0.07,2.19-0.03c0.39,0.02,0.77-0.36,0.75-0.75
				c-0.02-0.42-0.33-0.73-0.75-0.75c-1.55-0.08-3.12,0.07-4.63,0.41c-0.38,0.09-0.64,0.55-0.52,0.92
				C571.12,460.4,571.5,460.62,571.91,460.53L571.91,460.53z"/>
		</g>
	</g>
</g>
<g>
	<g>
		<path d="M562.97,471.6c9.33,2.35,19.23,1.47,28-2.46c0.88-0.39,0.12-1.69-0.76-1.3c-8.39,3.76-17.93,4.56-26.84,2.31
			C562.43,469.92,562.03,471.36,562.97,471.6L562.97,471.6z"/>
	</g>
</g>
<g>
	<g>
		<path d="M572.76,477.85c1.76-0.09,3.51-0.19,5.27-0.28c0.4-0.02,0.75-0.33,0.75-0.75c0-0.39-0.34-0.77-0.75-0.75
			c-1.76,0.09-3.51,0.19-5.27,0.28c-0.4,0.02-0.75,0.33-0.75,0.75C572.01,477.48,572.36,477.87,572.76,477.85L572.76,477.85z"/>
	</g>
</g>
<g>
	<path class="st42" d="M586.22,486.94c-5.05,1.12-8.45,3.64-9.24,4.22c-1.71,1.25-4.32,3.59-6.44,7.71
		c1.73-0.58,3.45-1.15,5.18-1.73c0.46-0.15,0.98-0.31,1.42-0.11c0.35,0.15,0.57,0.49,0.77,0.81c1.36,2.15,2.71,4.31,4.07,6.46
		c2.76-2.68,5.73-5.16,8.87-7.4c0.34-0.24,0.72-0.49,1.14-0.43c0.35,0.05,0.61,0.31,0.85,0.56c1.23,1.25,2.45,2.5,3.68,3.75
		c3.36-2.89,6.57-5.95,9.6-9.17c0.26-0.28,0.54-0.58,0.62-0.95c0.15-0.67-0.3-1.29-0.51-1.57c-1.92-2.61-5.9-3.26-5.9-3.26
		c-1.72-0.28-2.62-0.08-6.06,0.32C587.62,486.91,588.25,486.49,586.22,486.94z"/>
</g>
<path class="st38" d="M593.29,492.37c-3.66,3.19-7.32,6.38-10.98,9.58c1.09-7.24,2.18-14.47,3.28-21.71
	c3.93-0.32,7.86-0.64,11.8-0.96C596.02,483.64,594.65,488,593.29,492.37z"/>
<g>
	<path class="st28" d="M1197.81,654.79V281.26h286.03v373.53H1197.81z M1231.28,498.02h222.09V345.15h-222.09V498.02z"/>
	<path d="M1483.34,281.76v372.53h-285.03V281.76H1483.34 M1230.78,498.52h1h221.09h1v-1V345.65v-1h-1h-221.09h-1v1v151.87V498.52
		 M1484.34,280.76h-287.03v374.53h287.03V280.76L1484.34,280.76z M1231.78,497.52V345.65h221.09v151.87H1231.78L1231.78,497.52z"/>
</g>
<path class="st29" d="M1443.33,329.31h-203.8c-10.19,0-18.45-8.26-18.45-18.45v0c0-10.19,8.26-18.45,18.45-18.45h203.8
	c10.19,0,18.45,8.26,18.45,18.45v0C1461.79,321.05,1453.52,329.31,1443.33,329.31z"/>
<g>
	<path class="st29" d="M1438.8,544.11h-193.25c-7.85,0-14.22-6.37-14.22-14.22v0c0-7.85,6.37-14.22,14.22-14.22h193.25
		c7.85,0,14.22,6.37,14.22,14.22v0C1453.02,537.74,1446.65,544.11,1438.8,544.11z"/>
	<text transform="matrix(1.0403 0 0 1 1237.8594 538.4067)" class="st30 st31 st32">體力</text>
	<polygon class="st30" points="1314.78,527.03 1310.47,531.79 1311.74,538.24 1306.13,535.37 1300.72,538.64 1301.56,532.1 
		1296.95,527.66 1303.08,526.49 1305.64,520.49 1308.59,526.3 	"/>
	<polygon class="st30" points="1341.08,527.03 1336.77,531.79 1338.04,538.24 1332.43,535.37 1327.02,538.64 1327.86,532.1 
		1323.25,527.66 1329.38,526.49 1331.94,520.49 1334.89,526.3 	"/>
	<polygon class="st30" points="1367.38,527.03 1363.07,531.79 1364.34,538.24 1358.73,535.37 1353.32,538.64 1354.16,532.1 
		1349.55,527.66 1355.68,526.49 1358.24,520.49 1361.19,526.3 	"/>
	<polygon class="st30" points="1393.68,527.03 1389.37,531.79 1390.64,538.24 1385.03,535.37 1379.62,538.64 1380.46,532.1 
		1375.85,527.66 1381.98,526.49 1384.54,520.49 1387.49,526.3 	"/>
	<polygon class="st30" points="1419.98,527.03 1415.67,531.79 1416.94,538.24 1411.33,535.37 1405.92,538.64 1406.76,532.1 
		1402.15,527.66 1408.28,526.49 1410.84,520.49 1413.79,526.3 	"/>
</g>
<path class="st29" d="M1438.8,592.21h-193.25c-7.85,0-14.22-6.37-14.22-14.22v0c0-7.85,6.37-14.22,14.22-14.22h193.25
	c7.85,0,14.22,6.37,14.22,14.22v0C1453.02,585.84,1446.65,592.21,1438.8,592.21z"/>
<text transform="matrix(1.0403 0 0 1 1237.8594 586.5083)" class="st30 st31 st32">智力</text>
<polygon class="st30" points="1314.78,575.13 1310.47,579.89 1311.74,586.35 1306.13,583.48 1300.72,586.74 1301.56,580.2 
	1296.95,575.76 1303.08,574.6 1305.64,568.59 1308.59,574.4 "/>
<polygon class="st30" points="1341.08,575.13 1336.77,579.89 1338.04,586.35 1332.43,583.48 1327.02,586.74 1327.86,580.2 
	1323.25,575.76 1329.38,574.6 1331.94,568.59 1334.89,574.4 "/>
<polygon class="st30" points="1367.38,575.13 1363.07,579.89 1364.34,586.35 1358.73,583.48 1353.32,586.74 1354.16,580.2 
	1349.55,575.76 1355.68,574.6 1358.24,568.59 1361.19,574.4 "/>
<polygon class="st33" points="1393.68,575.13 1389.37,579.89 1390.64,586.35 1385.03,583.48 1379.62,586.74 1380.46,580.2 
	1375.85,575.76 1381.98,574.6 1384.54,568.59 1387.49,574.4 "/>
<polygon class="st33" points="1419.98,575.13 1415.67,579.89 1416.94,586.35 1411.33,583.48 1405.92,586.74 1406.76,580.2 
	1402.15,575.76 1408.28,574.6 1410.84,568.59 1413.79,574.4 "/>
<path class="st29" d="M1438.8,640.31h-193.25c-7.85,0-14.22-6.37-14.22-14.22l0,0c0-7.85,6.37-14.22,14.22-14.22h193.25
	c7.85,0,14.22,6.37,14.22,14.22l0,0C1453.02,633.94,1446.65,640.31,1438.8,640.31z"/>
<text transform="matrix(1.0653 0 0 1 1237.8594 634.7734)" class="st30 st31 st34">力量</text>
<polygon class="st30" points="1314.78,623.23 1310.47,627.99 1311.74,634.45 1306.13,631.58 1300.72,634.84 1301.56,628.31 
	1296.95,623.86 1303.08,622.7 1305.64,616.69 1308.59,622.5 "/>
<polygon class="st30" points="1341.08,623.23 1336.77,627.99 1338.04,634.45 1332.43,631.58 1327.02,634.84 1327.86,628.31 
	1323.25,623.86 1329.38,622.7 1331.94,616.69 1334.89,622.5 "/>
<polygon class="st30" points="1367.38,623.23 1363.07,627.99 1364.34,634.45 1358.73,631.58 1353.32,634.84 1354.16,628.31 
	1349.55,623.86 1355.68,622.7 1358.24,616.69 1361.19,622.5 "/>
<polygon class="st30" points="1393.68,623.23 1389.37,627.99 1390.64,634.45 1385.03,631.58 1379.62,634.84 1380.46,628.31 
	1375.85,623.86 1381.98,622.7 1384.54,616.69 1387.49,622.5 "/>
<polygon class="st35" points="1419.98,623.23 1415.67,627.99 1416.94,634.45 1411.33,631.58 1405.92,634.84 1406.76,628.31 
	1402.15,623.86 1408.28,622.7 1410.84,616.69 1413.79,622.5 "/>
<g>
	<g>
		<path class="st30" d="M1310.24,317.95l-1.53,4.62h-4.18l6.68-20.02h5.34l6.97,20.02h-4.47l-1.62-4.62H1310.24z M1316.51,314.4
			c-1.4-4.22-2.29-6.92-2.76-8.72h-0.03c-0.49,1.97-1.47,5.11-2.59,8.72H1316.51z"/>
		<path class="st30" d="M1325.67,322.57v-21.2h4.09v21.2H1325.67z"/>
		<path class="st30" d="M1333.43,322.57v-21.2h4.09v21.2H1333.43z"/>
		<path class="st30" d="M1353.44,318.69c0,1.43,0.11,3.52,0.2,3.88h-3.91c-0.11-0.3-0.2-1.09-0.21-1.47
			c-0.54,0.84-1.54,1.82-4.15,1.82c-3.56,0-5.06-2.38-5.06-4.71c0-3.42,2.7-5,7.03-5c0.72,0,1.61,0,2.11,0v-0.92
			c0-1.07-0.38-2.12-2.27-2.12c-1.73,0-2.1,0.75-2.29,1.83H1341c0.22-2.67,1.84-4.83,6.33-4.81c3.96,0.03,6.11,1.6,6.11,5.18V318.69
			z M1349.46,315.73c-0.34,0-1.13,0-1.67,0c-2.46,0-3.38,0.77-3.38,2.21c0,1.09,0.66,2,2.13,2c2.6,0,2.92-1.84,2.92-3.82V315.73z"/>
		<path class="st30" d="M1357.17,311.33c0-1.28,0-2.68-0.03-3.79h3.96c0.08,0.39,0.14,1.43,0.16,1.91c0.5-0.94,1.7-2.26,4.28-2.26
			c2.97,0,4.89,2.04,4.89,5.82v9.56h-4.09v-9.1c0-1.69-0.55-2.91-2.36-2.91c-1.74,0-2.73,0.98-2.73,3.64v8.38h-4.09V311.33z"/>
	</g>
</g>
<polygon class="st43" points="580.84,955.94 671.61,808.99 645.16,790.45 555.2,936.1 502.05,894.99 484.81,920.11 563.98,981.35 
	565.41,979.26 566.12,979.76 575.61,964.4 581.22,956.23 "/>
</svg>
