<?xml version="1.0" encoding="utf-8"?>
<!-- Generator: Adobe Illustrator 23.0.5, SVG Export Plug-In . SVG Version: 6.00 Build 0)  -->
<svg version="1.1" id="圖層_1" xmlns="http://www.w3.org/2000/svg" xmlns:xlink="http://www.w3.org/1999/xlink" x="0px" y="0px"
	 viewBox="0 0 1920 1080" style="enable-background:new 0 0 1920 1080;" xml:space="preserve">
<style type="text/css">
	.st0{fill:#4F380F;}
	.st1{fill:#AA8B5B;}
	.st2{fill:#935A07;}
	.st3{fill:#C2F5F9;}
	.st4{fill:#06F9F2;}
	.st5{fill:#FF69F8;}
	.st6{fill:#8B5C9B;}
	.st7{fill:#0000CC;}
	.st8{fill:#84CE88;}
	.st9{fill:#33CCFF;}
	.st10{fill:#EDF76D;}
	.st11{fill:#F7AC34;}
	.st12{fill:#F41C1C;}
	.st13{fill:#FFFFFF;stroke:#000000;stroke-width:3;stroke-miterlimit:10;}
	.st14{fill:#FFFFFF;stroke:#000000;stroke-width:6;stroke-miterlimit:10;}
	.st15{fill:#7FEF6C;}
</style>
<rect x="562.75" y="25" class="st0" width="794.25" height="989.7"/>
<rect x="604.04" y="57.18" class="st1" width="711.66" height="925.34"/>
<rect x="588.49" y="248.95" class="st0" width="739.19" height="37.98"/>
<rect x="590.53" y="499.01" class="st0" width="739.19" height="37.98"/>
<rect x="590.53" y="749.07" class="st0" width="739.19" height="37.98"/>
<rect x="563" y="982.25" class="st0" width="40.78" height="71.75"/>
<rect x="1315.45" y="982.25" class="st0" width="40.78" height="71.75"/>
<g>
	<g>
		<path class="st2" d="M1033.24,812.92l37.93,0.03c-1.45,8.22-2.9,16.44-4.35,24.65c-9.9-0.01-19.8-0.02-29.7-0.02
			C1035.83,829.36,1034.54,821.14,1033.24,812.92z"/>
	</g>
	<polygon class="st3" points="1080.05,846.99 1023.61,846.42 1023.73,835.52 1080.18,836.09 	"/>
	<polygon class="st3" points="1066.24,861.13 1038.01,860.84 1038.17,846.57 1066.4,846.85 	"/>
	
		<ellipse transform="matrix(0.0261 -0.9997 0.9997 0.0261 106.0755 1945.0432)" class="st3" cx="1051.32" cy="918.08" rx="59.95" ry="57.36"/>
	<path class="st4" d="M1002.3,902.32c-0.13,1.7-0.21,3.43-0.23,5.17c-0.39,34.7,21.51,63.05,48.91,63.32
		c27.4,0.27,49.94-27.64,50.33-62.34c0.02-1.74-0.02-3.46-0.11-5.17L1002.3,902.32z"/>
</g>
<g>
	<g>
		<path class="st2" d="M812,812.92l37.93,0.03c-1.45,8.22-2.9,16.44-4.35,24.65c-9.9-0.01-19.8-0.02-29.7-0.02
			C814.58,829.36,813.29,821.14,812,812.92z"/>
	</g>
	<polygon class="st3" points="858.81,846.99 802.36,846.42 802.48,835.52 858.93,836.09 	"/>
	<polygon class="st3" points="844.99,861.13 816.76,860.84 816.93,846.57 845.15,846.85 	"/>
	
		<ellipse transform="matrix(0.0261 -0.9997 0.9997 0.0261 -109.3893 1723.8707)" class="st3" cx="830.07" cy="918.08" rx="59.95" ry="57.36"/>
	<path class="st5" d="M781.05,902.32c-0.13,1.7-0.21,3.43-0.23,5.17c-0.39,34.7,21.51,63.05,48.91,63.32
		c27.4,0.27,49.94-27.64,50.33-62.34c0.02-1.74-0.02-3.46-0.11-5.17L781.05,902.32z"/>
</g>
<g>
	<g>
		<path class="st2" d="M1177.01,581.85l37.93,0.03c-1.45,8.22-2.9,16.44-4.35,24.65c-9.9-0.01-19.8-0.02-29.7-0.02
			C1179.59,598.29,1178.3,590.07,1177.01,581.85z"/>
	</g>
	<polygon class="st3" points="1223.81,615.92 1167.37,615.35 1167.49,604.45 1223.94,605.02 	"/>
	<polygon class="st3" points="1210,630.06 1181.77,629.77 1181.93,615.5 1210.16,615.78 	"/>
	
		<ellipse transform="matrix(0.0261 -0.9997 0.9997 0.0261 477.069 1863.7244)" class="st3" cx="1195.08" cy="687.01" rx="59.95" ry="57.36"/>
	<path class="st6" d="M1146.06,671.25c-0.13,1.7-0.21,3.43-0.23,5.17c-0.39,34.7,21.51,63.05,48.91,63.32s49.94-27.64,50.33-62.34
		c0.02-1.74-0.02-3.46-0.11-5.17L1146.06,671.25z"/>
</g>
<g>
	<g>
		<path class="st2" d="M717.18,581.85l37.93,0.03c-1.45,8.22-2.9,16.44-4.35,24.65c-9.9-0.01-19.8-0.02-29.7-0.02
			C719.76,598.29,718.47,590.07,717.18,581.85z"/>
	</g>
	<polygon class="st3" points="763.99,615.92 707.54,615.35 707.66,604.45 764.11,605.02 	"/>
	<polygon class="st3" points="750.17,630.06 721.94,629.77 722.1,615.5 750.33,615.78 	"/>
	
		<ellipse transform="matrix(0.0261 -0.9997 0.9997 0.0261 29.2597 1404.0525)" class="st3" cx="735.25" cy="687.01" rx="59.95" ry="57.36"/>
	<path class="st7" d="M686.23,671.25c-0.13,1.7-0.21,3.43-0.23,5.17c-0.39,34.7,21.51,63.05,48.91,63.32
		c27.4,0.27,49.94-27.64,50.33-62.34c0.02-1.74-0.02-3.46-0.11-5.17L686.23,671.25z"/>
</g>
<g>
	<g>
		<path class="st2" d="M830.35,329.68l37.93,0.03c-1.45,8.22-2.9,16.44-4.35,24.65c-9.9-0.01-19.8-0.02-29.7-0.02
			C832.93,346.12,831.64,337.9,830.35,329.68z"/>
	</g>
	<polygon class="st3" points="877.16,363.75 820.71,363.18 820.83,352.28 877.28,352.85 	"/>
	<polygon class="st3" points="863.34,377.88 835.12,377.6 835.28,363.33 863.5,363.61 	"/>
	
		<ellipse transform="matrix(0.0261 -0.9997 0.9997 0.0261 391.5605 1271.6062)" class="st3" cx="848.43" cy="434.84" rx="59.95" ry="57.36"/>
	<path class="st8" d="M799.4,419.08c-0.13,1.7-0.21,3.43-0.23,5.17c-0.39,34.7,21.51,63.05,48.91,63.32
		c27.4,0.27,49.94-27.64,50.33-62.34c0.02-1.74-0.02-3.46-0.11-5.17L799.4,419.08z"/>
</g>
<g>
	<g>
		<path class="st2" d="M1060.77,329.68l37.93,0.03c-1.45,8.22-2.9,16.44-4.35,24.65c-9.9-0.01-19.8-0.02-29.7-0.02
			C1063.36,346.12,1062.07,337.9,1060.77,329.68z"/>
	</g>
	<polygon class="st3" points="1107.58,363.75 1051.13,363.18 1051.26,352.28 1107.71,352.85 	"/>
	<polygon class="st3" points="1093.76,377.88 1065.54,377.6 1065.7,363.33 1093.93,363.61 	"/>
	
		<ellipse transform="matrix(0.0261 -0.9997 0.9997 0.0261 615.9616 1501.9518)" class="st3" cx="1078.85" cy="434.84" rx="59.95" ry="57.36"/>
	<path class="st9" d="M1029.83,419.08c-0.13,1.7-0.21,3.43-0.23,5.17c-0.39,34.7,21.51,63.05,48.91,63.32s49.94-27.64,50.33-62.34
		c0.02-1.74-0.02-3.46-0.11-5.17L1029.83,419.08z"/>
</g>
<g>
	<g>
		<path class="st2" d="M1161.71,83.84l37.93,0.03c-1.45,8.22-2.9,16.44-4.35,24.65c-9.9-0.01-19.8-0.02-29.7-0.02
			C1164.3,100.28,1163,92.06,1161.71,83.84z"/>
	</g>
	<polygon class="st3" points="1208.52,117.91 1152.07,117.34 1152.2,106.44 1208.65,107.01 	"/>
	<polygon class="st3" points="1194.7,132.04 1166.48,131.76 1166.64,117.49 1194.86,117.77 	"/>
	
		<ellipse transform="matrix(0.0261 -0.9997 0.9997 0.0261 960.0188 1363.4398)" class="st3" cx="1179.79" cy="189" rx="59.95" ry="57.36"/>
	<path class="st10" d="M1130.76,173.23c-0.13,1.7-0.21,3.43-0.23,5.17c-0.39,34.7,21.51,63.05,48.91,63.32
		c27.4,0.27,49.94-27.64,50.33-62.34c0.02-1.74-0.02-3.46-0.11-5.17L1130.76,173.23z"/>
</g>
<g>
	<g>
		<path class="st2" d="M937.4,83.84l37.93,0.03c-1.45,8.22-2.9,16.44-4.35,24.65c-9.9-0.01-19.8-0.02-29.7-0.02
			C939.99,100.28,938.7,92.06,937.4,83.84z"/>
	</g>
	<polygon class="st3" points="984.21,117.91 927.77,117.34 927.89,106.44 984.34,107.01 	"/>
	<polygon class="st3" points="970.4,132.04 942.17,131.76 942.33,117.49 970.56,117.77 	"/>
	
		<ellipse transform="matrix(0.0261 -0.9997 0.9997 0.0261 741.5753 1139.2097)" class="st3" cx="955.48" cy="189" rx="59.95" ry="57.36"/>
	<path class="st11" d="M906.46,173.23c-0.13,1.7-0.21,3.43-0.23,5.17c-0.39,34.7,21.51,63.05,48.91,63.32
		c27.4,0.27,49.94-27.64,50.33-62.34c0.02-1.74-0.02-3.46-0.11-5.17L906.46,173.23z"/>
</g>
<g>
	<g>
		<path class="st2" d="M713.1,83.84l37.93,0.03c-1.45,8.22-2.9,16.44-4.35,24.65c-9.9-0.01-19.8-0.02-29.7-0.02
			C715.68,100.28,714.39,92.06,713.1,83.84z"/>
	</g>
	<polygon class="st3" points="759.91,117.91 703.46,117.34 703.58,106.44 760.03,107.01 	"/>
	<polygon class="st3" points="746.09,132.04 717.86,131.76 718.03,117.49 746.25,117.77 	"/>
	
		<ellipse transform="matrix(0.0261 -0.9997 0.9997 0.0261 523.1317 914.9796)" class="st3" cx="731.17" cy="189" rx="59.95" ry="57.36"/>
	<path class="st12" d="M682.15,173.23c-0.13,1.7-0.21,3.43-0.23,5.17c-0.39,34.7,21.51,63.05,48.91,63.32
		c27.4,0.27,49.94-27.64,50.33-62.34c0.02-1.74-0.02-3.46-0.11-5.17L682.15,173.23z"/>
</g>
<g>
	<g>
		<path class="st13" d="M735.52,1049.88c-2.37,0-4.55-0.85-6.49-2.52c-1.87-1.61-3.19-3.77-3.92-6.4c-0.56-2.42-0.22-4.6,1.01-6.59
			c1.24-2.01,3.07-3.08,5.29-3.08c0.13,0,0.26,0,0.4,0.01h1.82c3.01,0,4.25-0.08,4.76-0.15l0.13-0.02h0.14
			c0.46,0,0.74-0.04,0.91-0.07c0.04-0.17,0.08-0.48,0.08-0.98v-41.14c-5.99,2-7.36,2.49-7.66,2.6l-0.09,0.05l-0.18,0.06
			c-0.92,0.28-1.8,0.43-2.63,0.43c-1.51,0-3.01-0.44-4.47-1.29c-2.16-1.31-3.58-3.32-4.23-6l-0.02-0.08l-0.01-0.08
			c-0.12-0.77-0.18-1.5-0.18-2.17c0-1.8,0.45-3.55,1.34-5.19c1.31-2.4,3.25-3.98,5.77-4.7c2.4-0.68,6.5-1.92,12.2-3.71
			c0.09-0.03,0.14-0.06,0.16-0.07c0-0.01,0.01-0.08,0.01-0.22v-29.18l-9.78,0c-2.46,0-4.59-0.96-6.34-2.85
			c-1.71-1.84-2.57-4.09-2.57-6.7c0-2.61,0.88-4.85,2.6-6.64c1.75-1.81,3.87-2.73,6.31-2.73h9.78v-24.27c0-2.54,0.84-4.74,2.5-6.53
			c1.7-1.83,3.8-2.76,6.26-2.76c2.44,0,4.56,0.92,6.31,2.73c1.73,1.8,2.6,4,2.6,6.56v24.27l7.11,0c2.56,0,4.71,0.93,6.41,2.76
			c0.32,0.34,0.61,0.71,0.87,1.08c0.11-2.32,0.94-4.33,2.48-6c1.7-1.83,3.8-2.76,6.26-2.76h16.22v-19.86c0-2.43,0.84-4.57,2.5-6.36
			c1.7-1.83,3.77-2.76,6.18-2.76c2.4,0,4.48,0.93,6.18,2.76c1.66,1.79,2.5,3.93,2.5,6.36v65.59c0,9.04-0.29,17.05-0.87,23.81
			c-0.58,6.79-1.76,13.99-3.5,21.39c-1.76,7.5-4.53,14.53-8.23,20.89c-3.7,6.36-8.45,12.22-14.12,17.42l-0.06,0.06l-0.07,0.05
			c-1.82,1.4-3.82,2.11-5.93,2.11h-0.89l-0.11-0.01c-2.55-0.28-4.81-1.38-6.7-3.29c-1.63-1.62-2.47-3.69-2.47-6.15
			c0-2.64,0.98-4.81,2.9-6.44c7.48-6.78,13.11-15.14,16.72-24.85c-3.67,1.53-7.74,3.21-12.16,5.01c-1.08,0.44-2.18,0.66-3.27,0.66
			c-1.35,0-2.64-0.29-3.85-0.88c-2.24-1.13-3.87-2.89-4.89-5.24c-0.52-1.12-0.79-2.31-0.79-3.51c0-1.19,0.27-2.39,0.81-3.55
			c1.08-2.33,2.8-3.88,5.13-4.62c6.27-1.92,14.18-4.53,23.51-7.78c0.11-0.04,0.2-0.07,0.24-0.5c0.61-5.24,1.02-10.59,1.23-15.95
			l-15.1,0c-2.35,0-4.41-0.93-6.1-2.76c-1.65-1.78-2.5-3.95-2.5-6.44c0-2.49,0.84-4.66,2.5-6.44c1.7-1.83,3.75-2.76,6.1-2.76h15.12
			v-17.35l-16.22,0c-2.46,0-4.56-0.93-6.26-2.76c-0.32-0.34-0.6-0.7-0.86-1.07c-0.09,2.39-0.92,4.48-2.46,6.21
			c-1.7,1.91-3.87,2.87-6.44,2.87h-7.11v23.83l5.52-1.84l0.15-0.03c0.76-0.13,1.44-0.2,2.08-0.2c1.57,0,3.02,0.47,4.31,1.39
			c1.95,1.26,3.18,3.25,3.48,5.7c0.12,0.57,0.18,1.13,0.18,1.69c0,2.04-0.51,3.92-1.53,5.58c-1.29,2.35-3.14,3.9-5.5,4.63
			c-4.43,1.59-7.26,2.59-8.64,3.05c0,0,0,0,0,0c-0.01,0-0.04,0.09-0.04,0.31v46.61c0,4.37-0.51,7.75-1.56,10.33
			c-1.1,2.7-2.85,4.81-5.19,6.28c-3.18,1.91-7.96,2.94-14.65,3.19l-0.04,0H735.52z M833.44,1049.71c-2.52,0-4.69-1-6.44-2.96
			c-1.69-1.89-2.55-4.14-2.55-6.67v-143.9c0-2.66,0.87-4.94,2.57-6.78c1.75-1.89,3.91-2.84,6.41-2.84c2.49,0,4.67,0.95,6.47,2.82
			c1.78,1.85,2.68,4.14,2.68,6.81v19.35l17.94,0c2.33,0,4.4,0.92,6.15,2.73c1.73,1.8,2.6,4,2.6,6.56c0,2.56-0.88,4.76-2.6,6.56
			c-1.75,1.81-3.82,2.73-6.15,2.73h-17.94v17.35l16.22,0c2.35,0,4.4,0.93,6.1,2.76c1.66,1.79,2.5,3.96,2.5,6.45
			c0,2.49-0.84,4.66-2.5,6.44c-1.7,1.83-3.75,2.76-6.1,2.76h-16.22v18.88l20.46,0c2.56,0,4.71,0.93,6.41,2.76
			c1.66,1.79,2.5,4.02,2.5,6.62c0,2.6-0.84,4.83-2.5,6.61c-1.7,1.83-3.85,2.76-6.41,2.76h-20.46v32.58c0,2.54-0.89,4.8-2.65,6.7
			C838.13,1048.72,835.95,1049.71,833.44,1049.71z"/>
		<path class="st13" d="M945.96,1050.22c-2.57,0-4.91-0.87-6.94-2.59c-1.96-1.65-3.38-3.81-4.23-6.42c-0.81-2.18-0.59-4.46,0.67-6.5
			c1.24-2.01,3.07-3.08,5.29-3.08c0.15,0,0.31,0.01,0.47,0.02c4.46,0.11,8.3,0.17,11.33,0.17c2.46,0,4.44-0.05,5.9-0.16
			c1.22-0.09,1.71-0.28,1.87-0.35c0.04-0.11,0.13-0.41,0.13-1.04v-38.34l-38.68,0c-2.25,0-4.22-0.9-5.86-2.67
			c-1.6-1.73-2.42-3.81-2.42-6.19s0.81-4.46,2.42-6.19c1.64-1.77,3.62-2.67,5.86-2.67h38.16c-6.02-3.15-12.26-6.24-18.6-9.24
			c-1.89-0.78-3.18-2.4-3.62-4.64c-0.45-2.25,0.18-4.28,1.82-5.88c1.6-1.6,3.56-2.69,5.8-3.23l0.12-0.03c0.75-0.13,1.5-0.2,2.23-0.2
			c1.39,0,2.8,0.27,4.18,0.81l0.1,0.04c4.62,2.11,10.02,4.62,16.05,7.47c0.15,0.07,0.28,0.11,0.37,0.11c0.03,0,0.13,0,0.33-0.13
			c5.25-3.21,10.41-7.04,15.42-11.43h-54.35c-2.15,0-4.04-0.87-5.63-2.59c-1.55-1.67-2.34-3.69-2.34-6.02c0-2.34,0.8-4.34,2.37-5.97
			c1.59-1.64,3.47-2.47,5.6-2.47h72.21l0.12-0.07l0.28-0.06c0.67-0.14,1.33-0.21,1.99-0.21c1.96,0,3.72,0.68,5.25,2.03l2.45,1.98
			c1.7,1.38,2.64,3.29,2.78,5.68c0.14,2.39-0.67,4.45-2.34,5.97c-8.59,8.62-17.77,16.06-27.32,22.14c2.52,1.42,5.21,3.07,8.03,4.91
			c0.49,0.32,0.8,0.68,1,1.03h20.92l0.27-0.08c0.84-0.26,1.69-0.39,2.54-0.39c1.06,0,2.12,0.2,3.16,0.6l0.12,0.05l3.3,1.53
			c1.99,0.92,3.35,2.54,3.92,4.69c0.56,2.13,0.27,4.14-0.86,5.97c-6.91,11.41-13.19,20.71-18.66,27.65c-1.54,1.95-3.56,3.21-6,3.76
			l-1.8,0.39h-0.21c-1.72,0-3.38-0.49-4.94-1.46c-1.95-1.07-3.22-2.88-3.7-5.23c-0.48-2.37,0.06-4.58,1.58-6.39
			c2.96-3.89,6.04-8.38,9.17-13.36h-23.67v38.68c0,4.99-0.64,8.67-1.95,11.25c-1.39,2.73-3.99,4.77-7.72,6.07
			C965.61,1049.45,957.83,1050.22,945.96,1050.22z M892.1,1047c-1.79,0-3.46-0.59-4.96-1.75c-2.16-1.52-3.57-3.62-4.21-6.22
			c-0.25-1.06-0.37-2.07-0.37-3.02c0-1.45,0.25-2.92,0.73-4.37l0.05-0.13c4.3-10.39,7.19-22.15,8.58-34.96
			c1.4-12.92,2.11-27.08,2.11-42.07v-32.54c0-4.57,1.53-8.53,4.54-11.78c3.05-3.29,6.8-4.96,11.13-4.96h42.29v-8
			c0-3.01,0.95-5.53,2.83-7.49c1.9-1.98,4.24-2.99,6.94-2.99c2.71,0,5.06,1.04,6.96,3.1c1.87,2.02,2.81,4.5,2.81,7.38v8l50.77,0
			c2.45,0,4.58,0.96,6.33,2.84c1.71,1.85,2.58,4.1,2.58,6.7c0,2.62-0.88,4.85-2.6,6.64c-1.75,1.81-3.87,2.73-6.31,2.73H912.63v30.54
			c0,37.27-4.44,66.67-13.19,87.39c-0.94,2.47-2.85,4.13-5.48,4.73C893.43,1046.92,892.78,1047,892.1,1047z"/>
		<path class="st13" d="M1117.46,1049.88c-2.69,0-4.95-1.03-6.7-3.07c-1.68-1.95-2.53-4.27-2.53-6.9v-22.33
			c-12.98,11.85-29.07,21.3-47.89,28.11c-1.16,0.42-2.34,0.63-3.51,0.63c-1.29,0-2.64-0.27-4.03-0.82
			c-2.36-0.94-4.35-2.54-5.93-4.78c-1.38-1.78-1.8-3.97-1.16-6.27c0.66-2.37,2.19-3.96,4.43-4.61
			c14.73-4.37,27.81-10.51,38.93-18.28h-35.39c-2.35,0-4.38-0.9-6.02-2.67c-1.6-1.73-2.42-3.84-2.42-6.27s0.81-4.54,2.42-6.27
			c1.64-1.77,3.67-2.67,6.02-2.67h54.54v-5.83l-13.13,0c-0.35,0.72-0.95,1.3-1.77,1.68l-0.12,0.05l-4.47,1.72l-0.08,0.02
			c-0.59,0.17-1.18,0.26-1.76,0.26c-1.09,0-2.13-0.31-3.09-0.91c-1.07-0.67-1.86-1.6-2.32-2.75l-28.58,2.12
			c-0.19,0.02-0.39,0.02-0.59,0.02c-1.76,0-3.41-0.61-4.9-1.82l-0.09-0.08c-1.79-1.63-2.69-3.72-2.69-6.22
			c0-1.83,0.58-3.45,1.71-4.83c1.25-1.65,3.02-2.57,5.07-2.59l2.19-0.17c2.27-3.02,4.46-6.22,6.57-9.57c0.25-0.4,0.18-0.5,0.05-0.68
			c-2.86-4.07-6.81-8.79-11.75-14c-1.38-1.48-2.13-3.23-2.27-5.22c-0.14-2,0.36-3.79,1.49-5.31c1.1-1.64,2.73-2.67,4.66-2.91
			c0.28-0.04,0.55-0.05,0.82-0.05c1.06,0,2.05,0.27,2.94,0.8c1.98-3.99,3.98-8.36,5.96-13.02c0.79-2.15,2.25-3.7,4.3-4.54
			c1.03-0.42,2.08-0.64,3.12-0.64c0.95,0,1.91,0.18,2.83,0.54l0.12,0.05c1.97,0.91,3.35,2.52,3.98,4.63s0.39,4.18-0.73,6.14
			c-4.17,7.54-7.47,13.22-9.79,16.86c-0.03,0.04-0.07,0.1-0.07,0.11l0.08,0.09c0.68,0.82,1.5,1.88,2.52,3.21
			c1.46-2.69,2.88-5.36,4.21-7.94c0.91-1.98,2.44-3.43,4.5-4.25c0.99-0.39,1.98-0.58,2.96-0.58c1.06,0,2.11,0.23,3.12,0.69
			c2.02,0.8,3.39,2.34,3.97,4.45c0.57,2.08,0.28,4.06-0.85,5.9c-5.74,9.45-11.05,17.59-15.8,24.24l6.37-0.4
			c-0.18-0.52-0.37-1.07-0.59-1.65c-0.69-1.64-0.73-3.39-0.07-5.13c0.67-1.76,1.91-3.04,3.57-3.7l0.1-0.04
			c0.8-0.27,1.62-0.4,2.41-0.4c1.01,0,2.01,0.22,2.96,0.65c1.7,0.77,2.99,2.07,3.82,3.86c0.65,1.44,1.27,2.88,1.84,4.31v-26.01
			c0-4.58,1.56-8.53,4.64-11.73c3.1-3.22,6.81-4.85,11.02-4.85c0.04,0,0.07,0,0.09,0c0.01-0.03,0.03-0.06,0.04-0.11
			c0.51-1.65,0.97-3.37,1.38-5.11l0.03-0.11c0.76-2.58,2.23-4.66,4.39-6.16c1.58-1.13,3.34-1.72,5.23-1.72
			c0.56,0,1.15,0.07,1.83,0.21c2.53,0.61,4.35,2.05,5.46,4.29l0.06,0.13c0.52,1.26,0.78,2.48,0.78,3.64c0,1.13-0.2,2.26-0.58,3.37
			l-0.03,0.09l-0.69,1.49h5.43c3.9,0,7.32,1.52,10.17,4.52c1.86,1.97,3.11,4.23,3.75,6.76c1.1-1.14,2.48-1.83,4.05-2.03
			c0.28-0.04,0.55-0.05,0.82-0.05c1.03,0,2,0.24,2.89,0.73c2.32-4.17,4.39-8.46,6.15-12.75c0.95-2.21,2.46-3.75,4.51-4.64
			c1.03-0.45,2.09-0.67,3.15-0.67s2.12,0.23,3.15,0.67c1.95,0.75,3.39,2.33,4.1,4.53c0.7,2.19,0.48,4.3-0.64,6.26
			c-3.78,6.57-7.19,12.04-10.15,16.26c-0.01,0.01-0.01,0.02-0.02,0.03c0,0,0,0,0,0.01c1.26,1.36,2.28,2.5,3.06,3.42
			c1.74-2.89,3.43-5.85,5.02-8.77c1.06-2.01,2.64-3.41,4.69-4.15c0.93-0.33,1.88-0.5,2.82-0.5c1.13,0,2.26,0.24,3.36,0.72
			c2.03,0.94,3.39,2.53,3.96,4.61c0.57,2.08,0.28,4.06-0.86,5.9c-3.09,4.69-6.05,9.06-8.88,13.07c0.36-0.3,0.76-0.56,1.2-0.8
			c1.01-0.54,2.07-0.82,3.16-0.82c0.8,0,1.62,0.15,2.42,0.45c1.84,0.69,3.21,1.9,4.07,3.6c2.67,5.53,4.76,10.81,6.25,15.75
			c0.26,0.86,0.4,1.74,0.4,2.61c0,1.2-0.28,2.35-0.82,3.4c-0.8,1.83-2.07,3.26-3.79,4.26l-0.37,0.2c-0.89,0.44-1.74,0.64-2.59,0.64
			c-0.94,0-1.86-0.25-2.76-0.73c-1.29-0.69-2.25-1.72-2.82-3c-5.8,0.46-15.54,1.23-29.21,2.3c-0.21,0.01-0.41,0.02-0.6,0.02
			c-1.9,0-3.58-0.67-5-2c-1.49-1.39-2.39-3.13-2.66-5.18c-0.15-1.13-0.07-2.21,0.24-3.22c-0.65,1.14-1.43,2.21-2.36,3.21
			c-3.05,3.29-6.79,4.96-11.13,4.96H1127v5.83l55.17,0c2.35,0,4.38,0.9,6.02,2.68l2.42,2.61v3.67c0,2.43-0.81,4.54-2.42,6.27
			c-1.64,1.77-3.67,2.67-6.02,2.67h-37.83c11.2,7.61,24.84,13.51,40.64,17.58c2.4,0.51,4.02,2.05,4.69,4.46
			c0.63,2.26,0.31,4.4-0.95,6.36c-1.62,2.29-3.65,3.95-6.07,4.99c-1.45,0.57-2.86,0.84-4.25,0.84c-1.11,0-2.19-0.14-3.19-0.41
			l-0.11-0.03c-19.03-6.27-35.2-15.49-48.1-27.42v21.96c0,2.65-0.92,4.99-2.73,6.95
			C1122.41,1048.87,1120.12,1049.88,1117.46,1049.88z M1144.43,971.1c0,2.36-0.41,4.57-1.22,6.59c0.13-0.19,0.26-0.37,0.41-0.55
			c1.35-1.69,3.06-2.62,5.1-2.78l0.2-0.01c2.51-3.15,4.89-6.39,7.1-9.63c0.05-0.07,0.08-0.12,0.1-0.16l-0.05-0.07
			c-3.17-4.27-7.07-8.73-11.63-13.28V971.1z M1173.02,965.16c-2.1,2.92-4.12,5.64-6.06,8.15l7.08-0.51
			c-0.24-0.61-0.5-1.23-0.77-1.88c-0.84-1.7-0.97-3.49-0.41-5.32C1172.92,965.45,1172.97,965.3,1173.02,965.16z M1127.24,972.83
			v-7.69l-19.56,0v7.69L1127.24,972.83z M1127.24,950.63v-7.18l-19.56,0v7.18L1127.24,950.63z M1144.94,927
			c-2.67,0-4.96-1.01-6.81-3.02c-1.81-1.95-2.73-4.35-2.73-7.12v-2.24h-35.89l0,2.41c0,2.66-0.92,5-2.73,6.95
			c-1.85,2-4.12,3.01-6.73,3.01c-2.63,0-4.87-1.02-6.67-3.04c-1.74-1.95-2.63-4.28-2.63-6.92v-2.41h-27.52
			c-2.23,0-4.2-0.86-5.84-2.56c-1.62-1.67-2.45-3.74-2.45-6.13c0-2.38,0.81-4.46,2.42-6.19c1.64-1.77,3.62-2.67,5.86-2.67h27.52
			v-0.37c0-2.77,0.89-5.14,2.65-7.04c1.8-1.94,4.04-2.93,6.65-2.93c2.61,0,4.87,1.01,6.73,3.01c1.81,1.96,2.73,4.3,2.73,6.95v0.37
			h35.89v-0.2c0-2.77,0.92-5.17,2.73-7.12c1.85-2,4.14-3.01,6.81-3.01c2.66,0,4.95,1.01,6.81,3.01c1.81,1.96,2.73,4.36,2.73,7.12
			v0.2h28.31c2.25,0,4.22,0.9,5.86,2.67c1.6,1.73,2.42,3.82,2.42,6.19c0,2.39-0.82,4.46-2.45,6.14c-1.64,1.7-3.6,2.56-5.83,2.56
			h-28.31l0,2.24c0,2.77-0.92,5.17-2.73,7.12C1149.9,925.99,1147.61,927,1144.94,927z"/>
		<path class="st13" d="M1256.6,1045.98c-2.88,0-5.48-0.96-7.72-2.84c-2.27-1.93-3.89-4.45-4.84-7.48c-0.39-1-0.58-2.02-0.58-3.04
			c0-1.63,0.48-3.19,1.42-4.65c1.38-2.25,3.55-3.45,6.23-3.45h6.51l0.07,0c1.61,0.11,3.04,0.17,4.26,0.17c3.01,0,4.05-0.09,4.4-0.15
			l0.15-0.02h0.16c2.16,0,2.55-0.75,2.55-2.24V893.47c0-3.01,0.95-5.52,2.83-7.49c1.9-1.98,4.26-2.99,7.02-2.99
			c2.77,0,5.13,1.04,7.04,3.1c1.87,2.02,2.81,4.5,2.81,7.38v20.68c0,0.94,0.13,1.9,0.4,2.85c2.6,10.68,6.19,21.61,10.7,32.56
			c10.86-10.52,20.29-21.06,28.02-31.36c1.78-2.34,4.1-3.73,6.9-4.16c0.65-0.13,1.23-0.2,1.77-0.2c2.2,0,4.28,0.7,6.19,2.07
			c2.37,1.71,3.7,4.13,3.97,7.22l0.01,0.08v0.93c0,2.52-0.85,4.78-2.52,6.73c-12.9,14.71-25.02,26.82-36.04,36
			c0,0-0.01,0.01-0.01,0.01c0.01,0.02,0.02,0.05,0.04,0.08c10.74,19.44,23.82,34.02,38.85,43.28c2.28,1.45,3.69,3.6,4.21,6.42
			l0.03,0.18v1.54c0,2.22-0.65,4.27-1.94,6.08c-1.99,2.55-4.4,4.21-7.21,5c-0.87,0.27-1.8,0.41-2.74,0.41
			c-1.96,0-3.91-0.62-5.8-1.85c-18.23-12.87-33.27-32.9-44.81-59.66v53.91c0,5.54-0.67,9.74-2.06,12.85
			c-1.44,3.24-3.87,5.74-7.21,7.42c-4.45,1.97-11.84,3.08-22.66,3.43l-0.03,0H1256.6z M1216.87,1026.66c-0.46,0-0.92-0.07-1.37-0.2
			c-2.7-0.32-5.12-1.61-7.17-3.83c-1.79-1.79-2.73-4.09-2.73-6.78c0-3.11,1.09-5.57,3.25-7.32c6.98-6.11,13.34-13.82,18.87-22.88
			c6.96-11.32,12.31-24.55,15.91-39.33h-28.49c-2.67,0-4.96-1.01-6.81-3.01c-1.81-1.95-2.73-4.35-2.73-7.12
			c0-2.77,0.92-5.17,2.73-7.12c1.85-2,4.14-3.01,6.81-3.01h36.58c0.73-0.22,1.47-0.34,2.21-0.34c1.28,0,2.57,0.27,3.84,0.8
			l2.64,0.84l0.06,0.02c1.94,0.75,3.41,2.1,4.37,4.02c0.93,1.87,1.2,3.89,0.81,6c-3.79,20.22-9.72,38.2-17.62,53.44
			c-7.09,13.48-15.31,24.66-24.43,33.25C1221.58,1025.81,1219.34,1026.66,1216.87,1026.66z"/>
	</g>
</g>
<path class="st14" d="M638.15,1056.89h-74.22c-28.48,0-51.56-23.09-51.56-51.56V931.1c0-28.48,23.09-51.56,51.56-51.56h74.22
	c28.48,0,51.56,23.09,51.56,51.56v74.22C689.71,1033.8,666.62,1056.89,638.15,1056.89z"/>
<polygon class="st15" points="626.84,1006.94 717.61,859.99 691.16,841.45 601.2,987.1 548.05,945.99 530.81,971.11 609.98,1032.35 
	611.41,1030.26 612.12,1030.76 621.61,1015.4 627.22,1007.23 "/>
</svg>
