<?xml version="1.0" encoding="utf-8"?>
<!-- Generator: Adobe Illustrator 23.0.5, SVG Export Plug-In . SVG Version: 6.00 Build 0)  -->
<svg version="1.1" id="圖層_1" xmlns="http://www.w3.org/2000/svg" xmlns:xlink="http://www.w3.org/1999/xlink" x="0px" y="0px"
	 viewBox="0 0 1920 1080" style="enable-background:new 0 0 1920 1080;" xml:space="preserve">
<style type="text/css">
	.st0{fill:#F7F6D7;}
	.st1{fill:#783E8A;}
	.st2{fill:#2B040C;}
	.st3{fill:#878786;stroke:#000000;stroke-miterlimit:10;}
	.st4{fill:#9E9E9E;stroke:#000000;stroke-miterlimit:10;}
	.st5{fill:#AFAFAF;stroke:#000000;stroke-miterlimit:10;}
	.st6{fill:#C1C1C1;stroke:#000000;stroke-miterlimit:10;}
	.st7{fill:#D3D3D1;stroke:#000000;stroke-miterlimit:10;}
	.st8{fill:#E4E3DF;stroke:#000000;stroke-miterlimit:10;}
	.st9{fill:#FFFFFF;stroke:#000000;stroke-width:3;stroke-miterlimit:10;}
	.st10{fill:#FFFFFF;stroke:#000000;stroke-width:6;stroke-miterlimit:10;}
	.st11{fill:#7FEF6C;}
</style>
<g>
	<g>
		<path class="st0" d="M1028.03,843.87c0.47,1.75-0.12,2.86-1.76,3.29L996,855.24c-1.66,0.44-2.74-0.32-3.29-2.32
			c-1.55-5.72-3.65-14.36-6.31-25.94c-2.66-11.56-4.76-20.2-6.31-25.94c-0.45-1.65-0.93-2.45-1.47-2.43
			c-0.53,0.5-1.99,10.29-4.37,29.33c-1.38,11.19-2.77,22.34-4.17,33.47c-0.22,1.45-0.73,2.42-1.52,2.86c-0.27,0.13-1.4,0.47-3.4,1
			c-2.96,0.79-4.88,0.7-5.76-0.29c-4.76-5.41-11.25-13.4-19.48-23.97c-8.75-11.15-15.23-19.18-19.42-24.07
			c-0.19-0.25-0.53-0.49-1.03-0.73c-0.27,0.61-0.24,1.49,0.07,2.62c1.5,5.55,3.89,13.85,7.17,24.88
			c3.29,11.03,5.67,19.33,7.17,24.88c0.53,1.98,0,3.18-1.6,3.62l-28.56,7.62c-1.14,0.3-1.89,0.31-2.25,0.01
			c-0.35-0.3-0.65-0.9-0.91-1.81c-1.67-6.18-3.87-15.54-6.61-28.09c-2.74-12.55-4.94-21.91-6.61-28.09
			c-1.78-6.57-5.39-18.82-10.83-36.75c-1.33-4.69-3.47-11.62-6.43-20.79l-0.47-1.42c-0.36-1.12,0.68-2.01,3.13-2.66
			c3.13-0.84,7.81-2.19,14.03-4.06c6.21-1.87,10.89-3.22,14.03-4.06c0.63-0.17,1.82,0.79,3.61,2.86l39.66,47.83
			c2.76,3.21,4.74,4.66,5.93,4.34c0.63-0.17,1.39-2.66,2.3-7.45c2.55-13.44,6.22-33.65,11.05-60.63c0.37-2.46,1.12-3.86,2.27-4.16
			c1.66-0.44,4.17-1.02,7.55-1.74c3.38-0.72,5.92-1.31,7.64-1.77c1.43-0.38,3.56-1.11,6.43-2.18s5-1.79,6.43-2.18
			c1.7-0.46,2.74,0,3.12,1.36c1.8,6.69,4.25,16.74,7.36,30.17c3.11,13.42,5.56,23.47,7.36,30.17c1.67,6.18,4.42,15.37,8.27,27.59
			C1023.63,828.57,1026.38,837.74,1028.03,843.87z"/>
	</g>
</g>
<g>
	<g>
		<path class="st0" d="M1543.44,933.06c-0.3,1.01-1.21,1.51-2.74,1.49c-1.84-0.05-7.17-1.35-16-3.92c-8.1-2.36-13.24-4.1-15.43-5.22
			c-1.81-0.95-2.66-2.57-2.54-4.87c0.46-8.67,0.23-13.45-0.68-14.33c-0.79-0.66-8.33-3.06-22.6-7.21c-9.63-2.8-14.83-4.04-15.6-3.71
			c-1.23,0.63-3.19,3.33-5.89,8.1c-2.45,4.36-4.5,6.51-6.14,6.47c-2.05-0.11-8.58-1.77-19.56-4.95c-8.66-2.52-12.76-4.59-12.28-6.23
			c0.43-1.47,12.12-17.6,35.07-48.41c24.85-33.32,38.42-51.66,40.7-55.02c1.31-1.95,2.42-2.79,3.32-2.52
			c1.53,0.44,3.85,1.27,6.97,2.49c3.12,1.21,5.47,2.04,7.06,2.51c1.53,0.44,3.81,1,6.84,1.67s5.28,1.21,6.76,1.65
			c1.08,0.31,1.79,1.53,2.15,3.65c1.04,6.72,3.18,29.35,6.42,67.89C1542.5,911.39,1543.89,931.54,1543.44,933.06z M1505.84,838.59
			c-1.92,2.14-5.51,6.92-10.78,14.39c-5.64,7.9-8.69,12.61-9.14,14.13c-0.3,1.01,1.23,2.07,4.6,3.17c1.72,0.62,4.59,1.51,8.62,2.69
			c3.73,1.08,5.93,1.24,6.6,0.46c0.19-0.25,0.37-0.62,0.52-1.13c0.54-1.86,0.75-7.37,0.62-16.51
			C1506.71,846.9,1506.35,841.18,1505.84,838.59z"/>
	</g>
</g>
<g>
	<g>
		<path class="st0" d="M371.96,868.87c1.05,1.2,0.86,2.32-0.56,3.38c-0.89,0.67-3.88,2.08-8.93,4.22c-5.05,2.15-8.22,3.4-9.5,3.76
			c-6.98,11.2-15.01,20.17-24.08,26.91c-14.61,10.85-30.22,14.93-46.86,12.2c-16.43-2.66-30.13-11.27-41.08-25.84
			c-11.2-14.9-16-30.6-14.4-47.1c1.63-17.04,9.85-31.06,24.64-42.05c7.18-5.34,14.97-9,23.35-10.99c9.11-2.08,17.68-1.86,25.7,0.67
			c1.66,0.53,2.66,1.03,3.01,1.5c1.14,1.5,1.55,6.45,1.26,14.83c-0.29,8.39-1.05,13.04-2.28,13.95c-0.28,0.22-2.09,0.06-5.44-0.47
			c-4.05-0.58-7.76-0.61-11.12-0.08c-5.04,0.75-9.74,2.73-14.08,5.96c-7.09,5.26-10.73,12.09-10.94,20.44
			c-0.24,7.73,2.37,15.2,7.81,22.44c5.76,7.67,12.33,12.23,19.7,13.71c7.63,1.51,15.24-0.55,22.84-6.21
			c4.82-3.58,9.31-8.79,13.46-15.61c-1.31-1.44-4.7-5.08-10.18-10.9c-4.29-4.43-7.56-8.15-9.82-11.17c-0.66-0.89-0.77-1.66-0.3-2.31
			c0.17-0.26,0.51-0.6,1.03-0.99c1.37-1.02,3.54-2.43,6.49-4.22c2.96-1.79,5.15-3.22,6.56-4.28c1.51-1.13,3.7-2.92,6.56-5.37
			c2.86-2.46,5.05-4.25,6.56-5.37c1.18-0.88,2.36-0.54,3.52,1.01c1.69,2.26,4.12,5.76,7.3,10.52c3.17,4.76,5.6,8.26,7.3,10.52
			c4.56,6.07,11.82,14.81,21.8,26.21L371.96,868.87z"/>
	</g>
</g>
<g>
	<g>
		<path class="st0" d="M1254.94,877.46c0,6.92,0.18,17.34,0.53,31.25s0.53,24.33,0.53,31.25c0,1.18-0.27,1.91-0.8,2.2
			c-0.12,0.06-0.88,0.18-2.3,0.35c-3.83,0.47-8.97,0.71-15.4,0.71c-8.62,0-14.1-0.24-16.46-0.71c-1.72-0.35-2.56-1.26-2.56-2.73
			c0,0.94,0.27-4.23,0.8-15.49c1.06-23.77,1.6-39.37,1.6-46.82c0-6.27-0.21-15.7-0.62-28.26c-0.41-12.56-0.62-21.98-0.62-28.26
			c0-1.29,0.68-1.93,2.03-1.93c1.82,0,4.59,0.08,8.28,0.26c3.69,0.18,6.44,0.26,8.28,0.26c1.82,0,4.53-0.08,8.1-0.26
			c3.56-0.18,6.27-0.26,8.1-0.26c1.72,0,2.56,0.65,2.56,1.93c0,6.29-0.34,15.7-1.02,28.26
			C1255.27,861.77,1254.94,871.19,1254.94,877.46z"/>
	</g>
</g>
<g>
	<g>
		<path class="st0" d="M605.79,822.72c-0.45,0.83-1.58,1.61-3.41,2.37c-15.71,6.13-31.48,4.92-47.29-3.64
			c-16.17-8.75-26.28-21.35-30.32-37.76c-3.99-15.92-1.55-31.97,7.31-48.16c8.58-15.67,20.64-26.37,36.22-32.11
			c16.27-6.03,32.12-4.87,47.56,3.5c16.8,9.09,27.15,21.35,31.07,36.77c0.41,1.69,0.39,2.98-0.1,3.86
			c-0.53,0.99-4.33,3.64-11.37,7.98c-7.05,4.34-11.24,6.65-12.6,6.91c-0.64,0.19-1.27,0.11-1.9-0.23c-0.27-0.14-0.99-1.87-2.2-5.19
			c-1.45-3.99-3.13-7.4-5.06-10.26c-2.97-4.28-6.66-7.61-11.06-10c-7.61-4.12-15.26-4.59-22.92-1.38
			c-7.07,2.98-12.73,8.34-16.95,16.08c-4.29,7.84-5.79,15.54-4.5,23.12c1.4,8.24,5.91,14.42,13.53,18.54
			c4.51,2.44,9.32,3.77,14.44,4c3.35,0.14,7.03-0.2,11.05-1.03c3.35-0.72,5.16-1.02,5.41-0.88c0.52,0.28,0.88,0.84,1.09,1.69
			c0.33,1.37,0.81,5.82,1.47,13.33C605.93,817.97,606.11,822.14,605.79,822.72z"/>
	</g>
</g>
<path class="st1" d="M922.93,980.5c-125.29,4.07-250.61,7.21-375.96,9.39c-132.58,2.31-265.16,3.55-397.78,3.74
	c-7.98,0.01-13.06-7.29-9.22-13.27c62.82-97.87,125.65-195.75,188.47-293.61c1.88-2.93,5.52-4.72,9.42-4.65
	c15.47,0.29,30.93,0.56,46.4,0.82c177.67,2.93,355.39,3.56,533.16,1.88c37.8,77,79.78,198.94,13.19,286.33
	C928.21,974.29,925.65,977.42,922.93,980.5z"/>
<path class="st1" d="M1079.4,985.2c125.29,4.07,250.61,7.21,375.96,9.39c132.58,2.31,265.16,3.55,397.78,3.74
	c7.98,0.01,13.06-7.29,9.22-13.27c-62.82-97.87-125.65-195.75-188.47-293.61c-1.88-2.93-5.52-4.72-9.42-4.65
	c-15.47,0.29-30.93,0.56-46.4,0.82c-177.67,2.93-355.39,3.56-533.16,1.88c-37.8,77-79.78,198.94-13.19,286.33
	C1074.12,978.98,1076.68,982.12,1079.4,985.2z"/>
<path class="st1" d="M1076.84,1012.42c-51.67-0.31-103.33-0.63-155-0.94c-3.64-1.35-12.13-5.01-18.69-13.14
	c-6.26-7.74-7.42-15.39-7.7-18.78c34.2-1.98,70.94-3.08,109.93-2.82c36.12,0.24,70.28,1.61,102.23,3.76
	c-1.56,4.09-4.21,9.45-8.79,15.02C1091.32,1004.62,1082.34,1009.78,1076.84,1012.42z"/>
<path class="st2" d="M1087.83,994.58c-57.53-0.31-115.06-0.63-172.59-0.94c2.79-7.09,6.66-15.08,12.09-23.47
	c11.47-17.73,25.38-30.28,36.28-38.49c11.03-0.76,22.39-1.4,34.08-1.88c12.06-0.5,23.79-0.8,35.18-0.94
	c11.53,7.12,28.49,19.67,41.77,39.43C1081.06,977.86,1085.16,986.93,1087.83,994.58z"/>
<path class="st3" d="M926.23,972.99c-247.7-2.51-495.42-5-743.12-7.51c52.77-76.98,105.53-153.96,158.3-230.94
	c197.14-10.64,394.28-21.28,591.42-31.92c15.77,32.61,88.24,189.1,8.79,259.1C937.06,965.75,931.95,969.53,926.23,972.99z"/>
<path class="st4" d="M941.62,961.73c-132.83-39.23-238.09-42.7-310-38.49c-81.71,4.78-136.09,20.72-267.13,28.16
	c-75.36,4.28-137.6,3.89-179.19,2.82c52.03-83.86,104.07-167.73,156.1-251.59h590.32c12.14,20.32,101.67,174.25,28.58,245.02
	C955.09,952.7,948.92,957.44,941.62,961.73z"/>
<path class="st5" d="M969.1,940.13c-1.57,2.22-4.32,5.36-8.79,7.51c-21.65,10.38-54.01-16.79-97.84-33.8
	c-25.7-9.98-47.18-12.6-90.14-17.84c-49.18-6-91.86-4.17-161.6,3.76c-147.5,16.77-183.42,35.58-293.51,41.31
	c-45.99,2.39-84.14,2.34-109.93,1.88c56.8-91.06,113.59-182.12,170.39-273.19c197.14,2.51,394.28,5,591.42,7.51V940.13z"/>
<path class="st6" d="M969.1,940.13c-33.14-23.53-87.14-54.91-160.5-68.53c-61.16-11.36-110.13-4.91-205.57,8.45
	c-118.54,16.6-149.58,34.54-259.43,45.06c-51.4,4.93-93.54,5.68-119.82,5.63c59-91.69,117.99-183.37,176.99-275.06
	c189.82-0.31,379.62-0.63,569.44-0.94c10.88,29.21,89.86,245.85,18.69,280.7C983.49,938.09,977,939.8,969.1,940.13z"/>
<path class="st7" d="M988.89,935.44c-29.36-24.22-78.49-58.18-148.4-78.86c-82.67-24.46-153.55-18.28-223.16-12.2
	c-91.43,7.97-115.68,23.87-264.93,44.12c-40.28,5.46-73.56,9.06-95.64,11.27c55.7-87,111.39-173.98,167.09-260.98
	c189.82-0.31,379.62-0.63,569.44-0.94C991.83,737.05,990.35,836.25,988.89,935.44z"/>
<path class="st8" d="M993.29,935.44c-18.28-21.14-48.33-51.01-93.44-76.98c-122.08-70.27-262.54-59.01-378.16-49.76
	c-56.02,4.49-135.18,14.91-227.55,41.31c64.12-99.82,128.25-199.65,192.38-299.47c92.8-7.51,170.9-6.12,228.65-2.82
	c167.3,9.58,221.01,38.49,250.64,60.08c19.11,13.92,32.36,27.83,40.67,37.55C1002.08,742.05,997.69,838.74,993.29,935.44z"/>
<path class="st3" d="M1076.1,977.68c247.7-2.51,495.42-5,743.12-7.51c-52.77-76.98-105.53-153.96-158.3-230.94
	c-197.14-10.64-394.28-21.28-591.42-31.92c-15.77,32.61-88.24,189.1-8.79,259.1C1065.27,970.45,1070.38,974.22,1076.1,977.68z"/>
<path class="st4" d="M1060.71,966.42c132.83-39.23,238.09-42.7,310-38.49c81.71,4.78,136.09,20.72,267.13,28.16
	c75.36,4.28,137.6,3.89,179.19,2.82c-52.03-83.86-104.07-167.73-156.1-251.59H1070.6c-12.14,20.32-101.67,174.25-28.58,245.02
	C1047.24,957.4,1053.41,962.14,1060.71,966.42z"/>
<path class="st5" d="M1033.23,944.83c1.57,2.22,4.32,5.36,8.79,7.51c21.65,10.38,54.01-16.79,97.84-33.8
	c25.7-9.98,47.18-12.6,90.14-17.84c49.18-6,91.86-4.17,161.6,3.76c147.5,16.77,183.42,35.58,293.51,41.31
	c45.99,2.39,84.14,2.34,109.93,1.88c-56.8-91.06-113.59-182.12-170.39-273.19c-197.14,2.51-394.28,5-591.42,7.51L1033.23,944.83
	L1033.23,944.83z"/>
<path class="st6" d="M1033.23,944.83c33.14-23.53,87.14-54.91,160.5-68.53c61.16-11.36,110.13-4.91,205.57,8.45
	c118.54,16.6,149.58,34.54,259.43,45.06c51.4,4.93,93.54,5.68,119.82,5.63c-59-91.69-117.99-183.37-176.99-275.06
	c-189.82-0.31-379.62-0.63-569.44-0.94c45.79,110.48,32.07,171.68,9.53,207.47c-10.87,17.26-42.89,58.99-28.22,73.23
	C1018.26,944.82,1026.81,945.22,1033.23,944.83z"/>
<path class="st7" d="M993.29,935.44c4.49,2.05,11.34,4.5,19.79,4.69c28.65,0.66,45.19-25.38,75.85-46.94
	c18.76-13.19,36.82-19.43,72.92-31.92c78.41-27.12,157.29-17.95,223.16-12.2c91.43,7.97,115.68,23.87,264.93,44.12
	c40.28,5.46,73.56,9.06,95.64,11.27c-55.7-87-111.39-173.98-167.09-260.98c-189.82-0.31-379.62-0.63-569.44-0.94
	C1003.79,740.17,998.54,837.81,993.29,935.44z"/>
<path class="st8" d="M993.29,935.44c22.15-19.5,58.25-47.65,109.19-72.29c138.89-67.17,281.73-57.48,378.16-49.76
	c56.02,4.49,135.18,14.91,227.55,41.31c-64.12-99.82-128.25-199.65-192.38-299.47c-92.8-7.51-170.9-6.12-228.65-2.82
	c-167.3,9.58-221.01,38.49-250.64,60.08c-19.11,13.92-32.36,27.83-40.67,37.55C994.99,745.19,994.15,840.31,993.29,935.44z"/>
<g>
	<g>
		<path class="st0" d="M606.93,471.04c0,1.42-0.78,2.13-2.33,2.13h-28.5c-1.56,0-2.33-0.8-2.33-2.4c0-4.63,0.2-11.58,0.6-20.83
			c0.41-9.26,0.6-16.2,0.6-20.83c0-1.33-0.24-2.04-0.73-2.13c-0.59,0.27-4.19,7.36-10.78,21.24c-3.87,8.16-7.73,16.3-11.6,24.41
			c-0.54,1.05-1.21,1.67-2.01,1.86c-0.27,0.05-1.34,0.07-3.22,0.07c-2.79,0-4.45-0.46-4.99-1.37c-2.9-5.04-6.71-12.37-11.43-22.01
			c-5.05-10.18-8.83-17.54-11.36-22.07c-0.11-0.23-0.35-0.48-0.73-0.76c-0.37,0.41-0.56,1.08-0.56,1.99c0,4.5,0.13,11.23,0.41,20.21
			c0.26,8.98,0.41,15.72,0.41,20.21c0,1.61-0.75,2.4-2.25,2.4h-26.89c-1.08,0-1.73-0.15-1.97-0.45c-0.24-0.3-0.36-0.82-0.36-1.55
			c0-4.99,0.29-12.5,0.85-22.52c0.56-10.02,0.85-17.52,0.85-22.52c0-5.31-0.27-15.28-0.8-29.91c-0.05-3.8-0.3-9.46-0.73-16.98
			l-0.08-1.17c-0.05-0.92,1.08-1.37,3.39-1.37c2.95,0,7.38-0.08,13.28-0.24c5.9-0.16,10.33-0.24,13.28-0.24
			c0.59,0,1.42,0.97,2.5,2.89l23.51,44.08c1.66,2.98,3.06,4.47,4.19,4.47c0.59,0,1.85-1.72,3.78-5.15
			c5.42-9.62,13.44-24.14,24.07-43.52c0.91-1.78,1.9-2.68,2.98-2.68c1.56,0,3.9,0.07,7.05,0.21s5.52,0.21,7.12,0.21
			c1.34,0,3.4-0.11,6.16-0.35c2.76-0.23,4.81-0.35,6.16-0.35c1.6,0,2.42,0.55,2.42,1.65c0,5.41-0.23,13.49-0.68,24.24
			c-0.46,10.75-0.68,18.83-0.68,24.24c0,4.99,0.24,12.5,0.73,22.48C606.69,458.62,606.93,466.09,606.93,471.04z"/>
	</g>
</g>
<g>
	<g>
		<path class="st0" d="M832.73,471.45c0,0.83-0.67,1.4-2.01,1.72c-1.61,0.37-6.61,0.55-14.97,0.55c-7.67,0-12.62-0.19-14.82-0.55
			c-1.82-0.32-2.98-1.35-3.46-3.1c-1.82-6.6-3.25-10.13-4.27-10.59c-0.86-0.32-8.05-0.48-21.58-0.48c-9.12,0-13.98,0.21-14.58,0.62
			c-0.91,0.73-1.93,3.18-3.06,7.36c-1.02,3.8-2.25,5.87-3.7,6.19c-1.82,0.37-7.95,0.55-18.36,0.55c-8.21,0-12.32-0.67-12.32-1.99
			c0-1.19,6.07-15.84,18.19-43.94c13.15-30.39,20.29-47.1,21.41-50.12c0.65-1.74,1.4-2.61,2.25-2.61c1.45,0,3.69,0.11,6.73,0.35
			c3.03,0.23,5.3,0.35,6.8,0.35c1.45,0,3.58-0.08,6.4-0.24c2.81-0.16,4.92-0.24,6.32-0.24c1.02,0,1.96,0.76,2.81,2.27
			c2.63,4.82,10.31,21.32,23.03,49.5C826.34,455.41,832.73,470.22,832.73,471.45z M775.64,408.82c-1.13,2.02-3.03,6.39-5.72,13.13
			c-2.9,7.15-4.35,11.34-4.35,12.58c0,0.83,1.6,1.29,4.83,1.37c1.66,0.09,4.4,0.14,8.21,0.14c3.54,0,5.5-0.37,5.88-1.1
			c0.11-0.23,0.16-0.55,0.16-0.97c0-1.51-1.23-5.68-3.7-12.51C778.54,414.87,776.77,410.65,775.64,408.82z"/>
	</g>
</g>
<g>
	<g>
		<path class="st0" d="M1078.73,474.73c0.11,1.24-0.65,1.86-2.25,1.86c-1.02,0-3.96-0.51-8.82-1.51c-4.86-1-7.85-1.7-8.98-2.07
			c-11.22,3.76-21.99,5.64-32.29,5.64c-16.59,0-30.2-4.72-40.82-14.17c-10.52-9.3-15.79-21.07-15.79-35.27
			c0-14.53,5.1-26.59,15.3-36.17c10.52-9.9,24.18-14.85,40.98-14.85c8.16,0,15.83,1.33,23.03,3.99c7.78,2.94,13.91,7.06,18.36,12.37
			c0.91,1.1,1.37,1.88,1.37,2.34c0,1.46-2.41,4.76-7.21,9.87c-4.8,5.12-7.9,7.67-9.3,7.67c-0.32,0-1.56-0.94-3.7-2.82
			c-2.63-2.24-5.31-3.99-8.05-5.23c-4.08-1.88-8.59-2.82-13.52-2.82c-8.05,0-14.44,2.57-19.16,7.7c-4.4,4.72-6.61,10.61-6.61,17.67
			c0,7.47,2.28,13.39,6.85,17.74c4.73,4.5,11.41,6.74,20.05,6.74c5.47,0,11.6-1.17,18.36-3.51c-0.17-1.51-0.65-5.36-1.45-11.55
			c-0.69-4.77-1.04-8.62-1.04-11.55c0-0.87,0.35-1.4,1.04-1.58c0.26-0.09,0.69-0.14,1.29-0.14c1.56,0,3.9,0.13,7.05,0.38
			c3.14,0.25,5.52,0.38,7.12,0.38c1.71,0,4.3-0.1,7.73-0.31c3.43-0.21,6.01-0.31,7.73-0.31c1.34,0,2.01,0.76,2.01,2.27
			c0,2.2-0.15,5.52-0.44,9.97c-0.3,4.45-0.44,7.77-0.44,9.97c0,5.91,0.51,14.76,1.53,26.54L1078.73,474.73z"/>
	</g>
</g>
<g>
	<g>
		<path class="st0" d="M1267.09,426.12c0,5.41,0.16,13.55,0.48,24.41c0.32,10.86,0.48,19,0.48,24.41c0,0.92-0.24,1.49-0.73,1.72
			c-0.11,0.05-0.8,0.14-2.09,0.27c-3.48,0.37-8.16,0.55-14.01,0.55c-7.84,0-12.83-0.19-14.97-0.55c-1.56-0.27-2.33-0.99-2.33-2.13
			c0,0.73,0.24-3.3,0.73-12.1c0.97-18.57,1.45-30.75,1.45-36.58c0-4.9-0.19-12.26-0.56-22.07c-0.37-9.81-0.56-17.17-0.56-22.07
			c0-1,0.62-1.51,1.85-1.51c1.66,0,4.18,0.07,7.53,0.21c3.35,0.14,5.86,0.21,7.53,0.21c1.66,0,4.12-0.07,7.37-0.21
			c3.24-0.14,5.71-0.21,7.37-0.21c1.56,0,2.33,0.51,2.33,1.51c0,4.91-0.31,12.26-0.92,22.07
			C1267.4,413.86,1267.09,421.21,1267.09,426.12z"/>
	</g>
</g>
<g>
	<g>
		<path class="st0" d="M1512.02,461.39c0,0.73-0.56,1.7-1.69,2.89c-9.88,10.04-23,15.06-39.38,15.06
			c-16.74,0-30.33-4.88-40.74-14.65c-10.15-9.44-15.21-21.36-15.21-35.76c0-13.93,4.97-25.76,14.9-35.48
			c10.36-10.18,23.54-15.26,39.53-15.26c17.39,0,31.02,4.56,40.9,13.69c1.08,1,1.6,1.91,1.6,2.68c0,0.87-1.87,4.1-5.6,9.7
			c-3.73,5.6-6.08,8.73-7.05,9.42c-0.43,0.37-0.97,0.55-1.6,0.55c-0.27,0-1.6-0.92-4.02-2.75c-2.9-2.2-5.75-3.91-8.53-5.15
			c-4.24-1.83-8.64-2.75-13.2-2.75c-7.89,0-14.2,2.53-18.92,7.57c-4.35,4.68-6.52,10.45-6.52,17.33c0,6.97,2.18,12.81,6.52,17.54
			c4.73,5.14,11.03,7.7,18.92,7.7c4.67,0,9.1-0.87,13.28-2.61c2.74-1.15,5.53-2.75,8.38-4.82c2.36-1.74,3.67-2.61,3.95-2.61
			c0.54,0,1.08,0.25,1.6,0.76c0.86,0.83,3.19,3.69,7,8.6C1510.07,458.1,1512.02,460.88,1512.02,461.39z"/>
	</g>
</g>
<g>
	<g>
		<path class="st9" d="M775.95,1048.71c-2.37,0-4.5-0.85-6.33-2.51c-1.83-1.47-3.19-3.41-4.04-5.76c-0.72-2.17-0.49-4.29,0.63-6.19
			c1.44-2.43,3.43-2.94,4.86-2.94c0.13,0,0.26,0,0.39,0.01h9.55c0.74-0.09,0.98-0.27,1-0.29c0,0,0.1-0.21,0.1-0.76v-26.3l-31.98,0
			c-1.49,15.48-4.61,28.32-9.28,38.18c-0.98,2.11-2.7,3.52-4.96,4.06c-0.62,0.15-1.23,0.22-1.83,0.22c-1.55,0-3-0.49-4.31-1.44
			c-1.87-1.18-3.09-2.93-3.63-5.2c-0.25-0.84-0.38-1.7-0.38-2.56c0-1.28,0.26-2.56,0.78-3.81c5.85-12.74,8.8-31.73,8.8-56.52v-24.42
			c-0.68-0.08-1.57-0.39-2.45-1.34c-1.17-1.15-2.41-2.33-3.64-3.43c-1.78-1.5-2.85-3.54-3.14-6.01c-0.13-0.46-0.19-0.94-0.19-1.41
			c0-1.99,0.6-3.86,1.77-5.55c7.48-10.72,13.46-24.31,17.77-40.39c0.64-2.49,2.02-4.48,4.11-5.88c1.47-1.01,3.12-1.53,4.89-1.53
			c0.74,0,1.47,0.15,2.2,0.43c2.36,0.61,4.17,2.01,5.36,4.15c0.79,1.43,1.19,2.95,1.19,4.53c0,0.87-0.14,1.75-0.4,2.62
			c-0.26,0.91-0.53,1.81-0.8,2.67h14.12c0.55-0.16,1.1-0.25,1.64-0.25c1.16,0,2.26,0.37,3.26,1.1l2.66,1.69l0.05,0.04
			c1.61,1.16,2.73,2.74,3.33,4.68c0.6,1.94,0.56,3.87-0.11,5.75c-1.95,5.05-4.13,10.12-6.51,15.13H786c3.51,0,6.49,1.33,8.87,3.96
			c1.91,2.12,3.04,4.59,3.39,7.37c5.42-3.07,9.63-6.91,12.52-11.43c3.14-4.91,5.46-10.82,6.88-17.6h-11.4
			c-2.25,0-4.2-0.87-5.79-2.59c-1.55-1.67-2.34-3.72-2.34-6.1c0-2.38,0.79-4.43,2.34-6.11c1.59-1.72,3.54-2.59,5.79-2.59h50.1
			c4.35,0,8.07,1.71,11.07,5.08c2.73,3.08,4.12,6.72,4.12,10.82v0.85c-0.53,10.97-1.22,19.17-2.07,24.47
			c-0.9,5.66-2.17,9.44-3.88,11.54c-2.25,3.08-5.82,5-10.55,5.64c-1.88,0.24-4.48,0.36-7.96,0.36h-2.04c-0.18,0-0.36-0.01-0.54-0.02
			c0.01,0.01,0.01,0.01,0.02,0.02c1.78,1.85,2.68,4.14,2.68,6.81v6.98l17.79,0c2.35,0,4.38,0.9,6.02,2.67
			c1.6,1.73,2.42,3.84,2.42,6.27c0,2.43-0.81,4.54-2.42,6.27c-1.64,1.77-3.67,2.67-6.02,2.67h-17.79v14.81l20.77,0
			c2.35,0,4.38,0.9,6.02,2.67c1.6,1.73,2.42,3.84,2.42,6.27c0,2.42-0.8,4.55-2.39,6.33c-1.64,1.85-3.68,2.79-6.05,2.79h-20.77v20.88
			c0,2.54-0.89,4.8-2.65,6.7c-1.8,1.94-3.98,2.93-6.49,2.93c-2.52,0-4.69-1-6.44-2.96c-1.69-1.89-2.55-4.14-2.55-6.67v-20.88
			l-23.44,0c-2.37,0-4.4-0.94-6.05-2.79c-0.48-0.54-0.88-1.1-1.22-1.7v17.23c0,7.84-2.18,13.1-6.49,15.62l-0.08,0.05l-0.09,0.04
			c-3.2,1.48-8.29,2.32-15.54,2.56l-0.03,0H775.95z M798.37,1003.98c0.34-0.6,0.76-1.16,1.24-1.68c1.64-1.77,3.67-2.67,6.02-2.67
			h23.44v-14.81l-12.29,0c-0.12,0-0.18,0.02-0.2,0.03c0,0-0.07,0.05-0.15,0.26c-1.05,2.84-2.31,5.61-3.71,8.17
			c-1.06,2.15-2.76,3.59-5,4.19l-0.16,0.04c-0.74,0.13-1.44,0.2-2.08,0.2c-1.49,0-2.92-0.37-4.25-1.09l-0.1-0.06
			c-1.17-0.72-2.1-1.65-2.76-2.76V1003.98z M759.51,987.59v-13.45l-8.25,0v13.46H759.51z M782.12,987.59v-13.45l-8.09,0v13.45
			L782.12,987.59z M798.37,984.5c3.53-6.83,6.43-15.13,8.61-24.68c0.53-2.3,1.76-4.13,3.64-5.43c1.39-0.96,2.89-1.45,4.47-1.45
			c0.6,0,1.22,0.07,1.84,0.22c2.21,0.52,3.94,1.79,5.17,3.78c1.22,1.97,1.57,4.21,1.04,6.64c-0.23,1.06-0.49,2.18-0.78,3.34h6.72
			v-6.98c0-2.66,0.87-4.94,2.57-6.78c1.75-1.89,3.91-2.84,6.41-2.84c0.2,0,0.41,0.01,0.61,0.02c-1.57-1.58-2.66-3.54-3.25-5.83
			c-0.45-2.08-0.09-3.98,1.04-5.74c1.14-1.77,2.8-2.71,4.79-2.71c0.16,0,0.33,0.01,0.49,0.02c1.89,0.11,4.07,0.16,6.44,0.16l0.11,0
			c0.15,0.01,0.3,0.01,0.45,0.01l0,0c1.12,0,1.87-0.25,2.23-0.73c0.55-0.67,2.21-4.13,3.2-23.76h-18.62c0,0.02-0.01,0.04-0.01,0.06
			c-1.49,8.72-3.93,16.44-7.25,22.92c-3.37,6.56-8.2,12.32-14.37,17.11l-0.07,0.06l-0.08,0.05c-1.94,1.23-3.93,1.85-5.92,1.85
			c-0.19,0-0.37,0-0.55-0.02c-1.03-0.01-2.11-0.21-3.22-0.6c-2.03-0.6-3.94-1.62-5.71-3.04V984.5z M759.51,958.1v-12.44l-8.25,0
			v12.44L759.51,958.1z M782.12,958.1v-12.44l-8.09,0v12.44L782.12,958.1z M762.92,929.46c0.14,0,0.19-0.02,0.19-0.02
			c0,0,0.07-0.05,0.15-0.26c1.33-3.18,2.77-6.97,4.28-11.31h-11.22c-0.12,0-0.18,0.02-0.2,0.03c0,0-0.07,0.05-0.15,0.26
			c-1.65,4.24-3.25,8.05-4.76,11.31H762.92z"/>
		<path class="st9" d="M913.69,1049.05c-2.68,0-4.95-1.02-6.75-3.04c-1.74-1.95-2.63-4.28-2.63-6.93v-34.58
			c0-2.64,0.88-4.97,2.63-6.92c1.8-2.02,4.05-3.04,6.67-3.04c2.61,0,4.87,1.01,6.73,3.01c1.81,1.96,2.73,4.3,2.73,6.95v18.51
			l28.04,0v-27.49c0-2.77,0.92-5.17,2.73-7.12c0.49-0.53,1.02-1,1.57-1.39h-3.72c-7.36,0-12.6-0.72-16.03-2.2
			c-0.27-0.11-0.5-0.17-0.7-0.17c-0.14,0-0.26,0.03-0.39,0.1l-0.11,0.05c-9.76,4.53-20.3,8.67-31.31,12.29l-0.16,0.04
			c-1.08,0.26-2.14,0.39-3.14,0.39c-1.4,0-2.81-0.27-4.19-0.82c-2.51-1.08-4.5-2.76-5.97-5c-0.85-1.38-1.27-2.81-1.27-4.32
			c0-0.78,0.14-1.56,0.41-2.32c0.73-2.44,2.34-4.06,4.68-4.69c11.99-3.35,23.2-7.36,33.31-11.92c0.14-0.07,0.24-0.11,0.24-0.55
			v-25.76c0-2.42,0.83-4.58,2.47-6.42c1.7-1.91,3.81-2.87,6.28-2.87c2.47,0,4.58,0.97,6.28,2.87c1.64,1.84,2.47,4,2.47,6.42v17.38
			c15.31-8.69,27.73-18.99,36.95-30.65c1.63-2.03,3.66-3.39,6.05-4.07c0.88-0.27,1.82-0.42,2.75-0.42c1.55,0,3.06,0.35,4.49,1.05
			c2.2,1.04,3.67,2.93,4.22,5.44c0.54,2.49,0.03,4.82-1.48,6.75c-9.44,11.95-21.72,22.93-36.57,32.7h19.77
			c2.98,0,4.09-0.65,4.49-1.04c0.35-0.34,1.2-1.53,1.69-5.35c0.29-2.16,1.38-3.91,3.17-5.07c1.05-0.68,2.17-1.03,3.34-1.03
			c0.89,0,1.79,0.2,2.68,0.61c2.13,0.83,3.91,2.27,5.28,4.28l0.07,0.11c0.91,1.55,1.38,3.26,1.38,5.08v1.53l-0.03,0.17
			c-1.14,6.65-3.19,11.12-6.27,13.66c-3.07,2.53-7.77,3.76-14.39,3.76h-16.28c0.55,0.39,1.08,0.85,1.57,1.39
			c1.81,1.96,2.73,4.36,2.73,7.12v27.49l29.92,0v-18.34c0-2.77,0.92-5.17,2.73-7.12c1.85-2,4.12-3.01,6.73-3.01
			c2.61,0,4.87,1.01,6.73,3.01c1.81,1.96,2.73,4.36,2.73,7.12v33.9c0,2.77-0.92,5.16-2.73,7.12c-1.86,2-4.09,3.01-6.65,3.01h-1.88
			c-2.14,0-3.98-0.81-5.47-2.42c-1.15-1.24-1.85-2.7-2.09-4.36h-77.22c-0.24,1.76-0.97,3.31-2.17,4.61
			c-1.55,1.66-3.47,2.51-5.71,2.51H913.69z M1025.5,977.69c-0.57,0-1.18-0.07-1.84-0.22c-2.39-0.57-4.31-1.86-5.75-3.83
			c-4.76-7.04-10.81-14.3-18.03-21.64c-1.52-1.48-2.3-3.33-2.3-5.47c0-2.68,1.11-4.83,3.21-6.22c1.7-1.25,3.67-1.88,5.86-1.88
			l0.59,0c2.48,0.14,4.61,1.08,6.32,2.78c7.67,7.37,14.09,14.59,19.05,21.43c1.1,1.63,1.64,3.44,1.64,5.41
			c0,0.57-0.06,1.15-0.19,1.73c-0.4,2.51-1.6,4.56-3.55,6.11C1028.85,977.11,1027.19,977.69,1025.5,977.69z M899.86,975.15
			c-2.53,0-4.83-0.81-6.84-2.42c-1.87-1.28-2.85-3.24-2.85-5.68c0-2.35,0.83-4.37,2.48-6c5.15-4.8,9.33-10.9,12.45-18.18
			c0.91-2.24,2.46-3.91,4.6-4.92c1.21-0.58,2.37-0.87,3.45-0.87c1.04,0,2.11,0.22,3.18,0.65c2.19,0.89,3.77,2.51,4.72,4.83
			c0.5,1.09,0.78,2.28,0.78,3.46c0,1.12-0.2,2.26-0.58,3.37c-3.89,9.68-8.69,17.33-14.31,22.81c-1.8,1.81-4.09,2.8-6.79,2.94
			l-0.05,0H899.86z M962.64,943.17c-1.83,0-3.51-0.63-5-1.88c-5.06-3.82-10.89-7.52-17.26-10.96c-1.87-0.93-3.09-2.58-3.46-4.73
			c-0.35-2.04,0.05-3.93,1.18-5.61l0.06-0.09l0.07-0.08c0.53-0.62,1.1-1.16,1.71-1.62l-30.07,0v10.37c0,2.66-0.89,4.97-2.65,6.87
			c-1.8,1.94-4.04,2.93-6.65,2.93c-2.63,0-4.87-1.02-6.67-3.04c-1.74-1.95-2.63-4.22-2.63-6.76v-12.2c0-4.57,1.53-8.53,4.54-11.78
			c3.05-3.29,6.8-4.96,11.13-4.96h44.02v-3.59c0-3.01,0.93-5.5,2.76-7.4c1.85-1.92,4.16-2.9,6.86-2.9c2.71,0,5.03,1.01,6.88,3.01
			c1.81,1.96,2.73,4.41,2.73,7.29v3.59l45.11,0c4.33,0,8.07,1.67,11.13,4.96c3.01,3.25,4.54,7.21,4.54,11.78v11.69
			c0,2.75-0.88,5.15-2.61,7.16c-1.8,2.09-4.13,3.15-6.93,3.15c-2.78,0-5.13-1.05-6.99-3.13c-1.8-2-2.71-4.42-2.71-7.18v-9.86
			l-60.46,0c6.22,3.15,11.71,6.43,16.35,9.76c1.92,1.33,3.05,3.3,3.26,5.69c0.2,2.29-0.37,4.39-1.7,6.25
			c-1.42,1.84-3.24,2.9-5.45,3.2C963.37,943.15,963,943.17,962.64,943.17z"/>
		<path class="st9" d="M1060.37,1046.84c-1.15,0-2.36-0.2-3.6-0.61l-0.12-0.04c-2.39-0.95-4.35-2.65-5.83-5.04
			c-0.91-1.54-1.42-3.08-1.55-4.61l-0.01-0.08v-0.08c0-0.75,0.13-1.57,0.39-2.41c0.68-2.58,2.26-4.49,4.57-5.52
			c5.43-2.5,10.01-5.31,13.57-8.34c3.49-2.97,6.09-6.17,7.75-9.53c1.69-3.44,2.85-6.7,3.44-9.67c0.6-3.02,0.9-6.54,0.9-10.46v-9.83
			c0-4.57,1.53-8.53,4.54-11.78c3.05-3.29,6.79-4.96,11.13-4.96h48.68c4.33,0,8.07,1.67,11.13,4.96c3.01,3.25,4.54,7.21,4.54,11.78
			v42.71c0,2.93,0.39,3.69,0.44,3.77c0,0,0,0,0,0c0.04,0,0.67,0.33,2.74,0.33h12.72c0.79,0,1.67-0.17,2.24-2.18
			c0.44-1.56,1.04-5.55,1.42-15.72c0.15-2.4,1.27-4.27,3.25-5.45c1.1-0.66,2.26-0.99,3.46-0.99c0.94,0,1.89,0.21,2.84,0.62
			c2.49,1.21,4.45,2.93,5.91,5.15l0.06,0.09c1.22,2.11,1.84,4.33,1.84,6.59v0.93l-0.01,0.09c-0.98,11.26-2.74,18.82-5.4,23.09
			c-2.84,4.56-7.61,6.88-14.18,6.88h-16.49c-7.6,0-12.72-1.7-15.67-5.21c-2.85-3.4-4.24-9.28-4.24-17.98v-40.54l-41.86,0v8.17
			c0,5.31-0.49,10.35-1.46,14.98c-0.97,4.65-2.66,9.51-5.02,14.44c-2.41,5.02-6.05,9.76-10.83,14.09
			c-4.61,4.28-10.38,8.1-17.13,11.34l-0.07,0.03l-0.07,0.03c-1.31,0.51-2.59,0.84-3.81,0.97l-0.11,0.01H1060.37z M1073.4,951.42
			c-4.33,0-8.08-1.67-11.13-4.96c-3.01-3.25-4.54-7.21-4.54-11.78v-22.71c0-4.57,1.53-8.53,4.54-11.78
			c3.05-3.29,6.79-4.96,11.13-4.96h26.23c4.33,0,8.08,1.67,11.13,4.96c3.01,3.25,4.54,7.21,4.54,11.78v22.71
			c0,4.57-1.53,8.53-4.54,11.78c-3.05,3.29-6.8,4.96-11.13,4.96H1073.4z M1075.42,933.82L1075.42,933.82z M1096.84,933.35v-20.06
			l-21.44,0v20.06L1096.84,933.35z M1142.66,951.25c-4.33,0-8.07-1.67-11.13-4.96c-3.01-3.25-4.54-7.21-4.54-11.78v-22.54
			c0-4.57,1.53-8.53,4.54-11.78c3.05-3.29,6.79-4.96,11.13-4.96h27.8c4.33,0,8.07,1.67,11.13,4.96c3.01,3.25,4.54,7.21,4.54,11.78
			v22.54c0,4.57-1.53,8.53-4.54,11.78c-3.05,3.29-6.79,4.96-11.13,4.96H1142.66z M1167.52,933.02v-19.73l-22.7,0v19.73
			L1167.52,933.02z"/>
		<path class="st9" d="M1285.58,1048.88c-2.46,0-4.61-0.99-6.41-2.93c-1.76-1.9-2.65-4.15-2.65-6.7v-40.51
			c0-4.57,1.53-8.53,4.54-11.78c3.05-3.29,6.79-4.96,11.13-4.96h41.3c4.33,0,8.08,1.67,11.13,4.96c3.01,3.25,4.54,7.21,4.54,11.78
			v39.49c0,2.65-0.92,4.99-2.73,6.95c-1.86,2-4.1,3.01-6.65,3.01h-1.88c-2.04,0-3.83-0.81-5.31-2.42c-1.14-1.22-1.83-2.63-2.08-4.19
			h-35.77c-0.25,1.77-1,3.35-2.25,4.7c-1.6,1.72-3.54,2.59-5.79,2.59H1285.58z M1330.38,1023.18v-22.61l-35.58,0v22.61
			L1330.38,1023.18z M1294.81,1000.11L1294.81,1000.11z M1222.29,1048.88c-2.35,0-4.38-0.9-6.02-2.67c-1.6-1.73-2.42-3.84-2.42-6.27
			v-36.61c0-4.57,1.53-8.53,4.54-11.78c3.05-3.29,6.79-4.96,11.13-4.96h19.32c4.33,0,8.07,1.67,11.13,4.96
			c3.01,3.25,4.54,7.21,4.54,11.78v21.36c0,4.57-1.53,8.53-4.54,11.78c-3.05,3.29-6.79,4.96-11.13,4.96h-18.18
			c-0.24,1.87-0.99,3.5-2.25,4.87c-1.6,1.72-3.6,2.59-5.95,2.59H1222.29z M1247.45,1024.54v-20.91l-16.73,0v20.91L1247.45,1024.54z
			 M1247.44,1003.16L1247.44,1003.16z M1221.97,979.05c-2.13,0-3.98-0.8-5.52-2.39c-1.52-1.56-2.29-3.52-2.29-5.8
			c0-2.26,0.76-4.23,2.26-5.85c1.54-1.66,3.41-2.5,5.55-2.5h33.77c2.14,0,4.01,0.84,5.55,2.5c1.5,1.63,2.26,3.59,2.26,5.85
			c0,2.28-0.77,4.23-2.29,5.8c-1.54,1.58-3.4,2.39-5.52,2.39H1221.97z M1273.8,974.81c-2.47,0-4.56-0.94-6.21-2.79
			c-1.58-1.78-2.39-3.94-2.39-6.41c0-2.49,0.81-4.63,2.42-6.36c1.65-1.78,3.73-2.68,6.18-2.68h12l0.01-0.04
			c1.01-5.67,2.03-11.72,3.04-17.99h-7.66c-2.25,0-4.22-0.9-5.86-2.67c-1.6-1.73-2.42-3.84-2.42-6.27c0-2.45,0.82-4.54,2.45-6.22
			c1.65-1.7,3.61-2.56,5.84-2.56h10.27c0.22-1.65,0.53-3.83,0.94-6.6c0.42-2.84,0.56-4.1,0.59-4.66h-14.16
			c-2.36,0-4.41-0.93-6.1-2.76c-1.65-1.78-2.49-3.92-2.49-6.36c0-2.45,0.85-4.57,2.52-6.31c1.69-1.75,3.74-2.64,6.07-2.64h66.27
			c2.35,0,4.38,0.9,6.02,2.67c1.6,1.73,2.42,3.84,2.42,6.28c0,2.42-0.8,4.55-2.39,6.33c-1.64,1.85-3.68,2.79-6.05,2.79h-33.36
			l-0.01,0.06c-0.2,1.07-0.49,2.95-0.85,5.58c-0.32,2.32-0.58,4.19-0.78,5.61h19.3c4.33,0,8.07,1.67,11.13,4.96
			c3.01,3.25,4.54,7.21,4.54,11.78v19.02h5.38c2.46,0,4.53,0.9,6.18,2.67c1.6,1.73,2.42,3.87,2.42,6.36c0,2.47-0.8,4.63-2.39,6.42
			c-1.64,1.85-3.73,2.79-6.21,2.79H1273.8z M1326.76,956.57v-18.03l-19.29,0c-0.71,4.18-1.72,10.19-3.01,18.03H1326.76z
			 M1221.97,955.49c-2.15,0-4.01-0.84-5.55-2.51c-1.5-1.61-2.26-3.55-2.26-5.76c0-2.21,0.76-4.15,2.26-5.77
			c1.54-1.66,3.41-2.5,5.55-2.5h33.77c2.14,0,4.01,0.84,5.55,2.5c1.5,1.62,2.26,3.56,2.26,5.77c0,2.21-0.76,4.15-2.26,5.77
			c-1.54,1.66-3.41,2.5-5.55,2.5H1221.97z M1214.59,931.76c-2.23,0-4.22-0.91-5.74-2.62c-1.48-1.66-2.23-3.65-2.23-5.9
			c0-2.26,0.76-4.23,2.26-5.85c1.54-1.66,3.46-2.5,5.71-2.5h46.64c2.24,0,4.16,0.84,5.71,2.5c1.5,1.62,2.26,3.59,2.26,5.85
			c0,2.25-0.75,4.23-2.23,5.9c-1.52,1.72-3.51,2.62-5.74,2.62H1214.59z M1223.07,908.03c-2.23,0-4.14-0.8-5.68-2.39
			c-1.52-1.56-2.29-3.52-2.29-5.8c0-2.26,0.76-4.23,2.26-5.85c1.54-1.66,3.46-2.5,5.71-2.5h32.51c2.24,0,4.16,0.84,5.71,2.5
			c1.5,1.62,2.26,3.59,2.26,5.85c0,2.28-0.77,4.23-2.29,5.8c-1.54,1.58-3.45,2.39-5.68,2.39H1223.07z"/>
	</g>
</g>
<path class="st10" d="M638.15,1056.89h-74.22c-28.48,0-51.56-23.09-51.56-51.56V931.1c0-28.48,23.09-51.56,51.56-51.56h74.22
	c28.48,0,51.56,23.09,51.56,51.56v74.22C689.71,1033.8,666.62,1056.89,638.15,1056.89z"/>
<polygon class="st11" points="627.84,998.94 718.61,851.99 692.16,833.45 602.2,979.1 549.05,937.99 531.81,963.11 610.98,1024.35 
	612.41,1022.26 613.12,1022.76 622.61,1007.4 628.22,999.23 "/>
</svg>
