<?xml version="1.0" encoding="utf-8"?>
<!-- Generator: Adobe Illustrator 23.0.5, SVG Export Plug-In . SVG Version: 6.00 Build 0)  -->
<svg version="1.1" id="圖層_1" xmlns="http://www.w3.org/2000/svg" xmlns:xlink="http://www.w3.org/1999/xlink" x="0px" y="0px"
	 viewBox="0 0 1920 1080" style="enable-background:new 0 0 1920 1080;" xml:space="preserve">
<style type="text/css">
	.st0{fill:#AE845D;}
	.st1{fill:#E3B36C;}
	.st2{fill:#D18F62;}
	.st3{fill:#322C26;}
	.st4{fill:#FEB487;}
	.st5{fill:#FFFEFF;stroke:#000000;stroke-miterlimit:10;}
	.st6{fill:#7E5C42;}
	.st7{fill:#FDFFFE;}
	.st8{fill:#87888C;}
	.st9{fill:#403C3D;}
	.st10{fill:#FFFFFF;stroke:#000000;stroke-width:3;stroke-miterlimit:10;}
	.st11{fill:#FFFFFF;stroke:#000000;stroke-width:6;stroke-miterlimit:10;}
	.st12{fill:#7FEF6C;}
</style>
<path class="st0" d="M1239.21,1038c-7.66-60.67-15.33-121.33-22.99-182c-68.35-163.75-246.94-237.39-369.4-197
	c-113.94,37.58-147.14,163.27-150.28,176c-7.51,67.67-15.02,135.33-22.54,203H1239.21z"/>
<g>
	<path class="st1" d="M846.82,658.95c-14.44,0.32-26.68,10.66-31.48,22.54s-3.53,24.94-0.96,37.33
		c4.22,20.4,11.73,40.15,17.87,60.17c20.25,66.03,25.74,135.49,53.19,199.51c34.78-24.43,43.11-69.68,78.12-93.86
		c18.52,25.27,37.04,50.53,55.57,75.8c9.25-19.75,18.5-39.51,27.74-59.26c3.88-8.28,11.78-18.29,21.44-15.29
		c5.98,1.85,8.51,7.87,10.3,13.17c7.2,21.28,14.39,42.55,21.59,63.83c20.2-15.43,24.39-41.44,22.74-64.81
		c-2.02-28.52-10.63-56.33-19.2-83.91c-2.53-8.14-5.09-16.35-9.52-23.85c-3.87-6.55-9.09-12.41-14.35-18.18
		c-30.6-33.54-64.38-65.78-106.31-88.16s-93.22-34.11-141.03-24.14"/>
</g>
<path class="st2" d="M1014.31,943c-4.97-7.67-9.94-15.33-14.91-23c-4.59-18.33-9.18-36.67-13.77-55
	c-24.94-14.28-64.45-40.95-97.51-85c-25.56-34.05-38.18-66.38-44.74-89c3.44-30.33,6.88-60.67,10.32-91
	c5.35,1.33,10.71,2.67,16.06,4c7.56,28.02,31.97,101.11,110.13,156c35.44,24.89,71.08,38.41,97.51,46
	c-25.76,27.76-35.26,50.69-39,67c-1.53,6.65-3.6,18.27-9.18,35C1024.16,923.18,1018.41,935.17,1014.31,943z"/>
<g>
	<path class="st3" d="M826.93,470.34c0.6-29.31,1.21-58.62,1.81-87.92c0.36-17.53-1.37-38.49-18.81-47.23
		c13.15-8.84,25.77-18.27,37.8-28.24c-9.24-0.7-18.48-1.39-27.72-2.09c14.38-19.83,44.99-23.59,71.57-27.3
		c2.37-0.33,4.89-0.74,6.63-2.18c2.28-1.89,2.52-4.93,2.82-7.67c1.33-12.28,6.88-24.18,15.76-33.79c1.95,7.97,3.39,16.03,4.33,24.13
		c22.69-21.06,51.55-37.03,83.07-45.97c-0.26,5.68-1.31,11.33-3.12,16.78c29.9-3.58,58.63-14.35,82.16-30.82
		c2.1,6.99,4.21,13.97,6.31,20.96c0.55,1.82,1.17,3.75,2.8,4.98c2.2,1.68,5.48,1.54,8.38,1.22c13.75-1.51,27.22-4.95,39.73-10.15
		c-0.27,8.03-2.46,16-6.39,23.26c39.18,0.84,74-20.19,105.67-40.31c6.24,18.81,9.7,38.32,10.28,57.9c0.08,2.6,0.59,5.82,3.41,6.67
		c1.64,0.49,3.43-0.09,5.01-0.72c8.97-3.58,16.94-9.04,23.04-15.79c6.01,25.65,12.04,52.15,6.09,77.81
		c-2.99,12.89-8.93,25.15-11.75,38.07c-2.43,11.12-2.5,22.53-4.26,33.75c-2.71,17.31-9.36,33.93-15.98,50.42
		c-0.99,2.46-2.04,5.01-4.14,6.86c-3.04,2.67-7.63,3.36-11.91,3.79c-16.71,1.7-33.58,1.57-50.4,1.44
		c-58.74-0.45-117.49-0.91-176.23-1.36c-18.73-0.14-39.05,0.16-53.78,10.25c-13.95,9.56-19.4,25.57-29.63,38.22
		c-11.63,14.37-30.06,24.42-49.97,27.26c-4.1,0.58-8.38,0.87-12.35-0.2c-4.92-1.33-8.82-4.57-12.29-7.89
		c-16.44-15.79-27.23-35.98-30.53-57.1"/>
</g>
<path class="st4" d="M1160,829c-19.55,2.71-48.43,4.97-82.6,1c-20.56-2.39-140.21-18.33-189.29-99
	c-20.33-33.42-19.82-63.6-18.36-110c1.38-43.8,10.74-115.13,56.21-199c-0.38-23.33-0.76-46.67-1.15-70
	c11.15-10.85,34.23-29.77,68.83-36c54.78-9.86,115.57,16.21,152.58,66c21.8-6,43.59-12,65.39-18c7.23,10.29,16.81,26.22,22.94,47
	c6.03,20.45,2.63,24.94,9.18,52c7.14,29.51,12.84,30.98,14.91,52c1.39,14.11-0.92,16.03-2.29,43c-1.85,36.22,2.16,35.96,0,56
	c-2.91,27.01-9.88,24.59-21.8,70c-7.88,30-6.09,35.86-14.91,57c-7.28,17.46-15.53,30.32-21.8,40
	C1188.58,795.33,1176.27,811.82,1160,829z"/>
<path class="st3" d="M1118.7,464c-8.86-0.4-22.08-1.37-37.86-4c-31.28-5.21-41.13-11.72-59.65-12c-12.64-0.19-30.66,2.49-52.77,16
	c1.96-5.52,24.03-66.01,55.07-66c7.71,0,17.38,5,36.71,15c15.04,7.78,26.76,15.02,34.42,20c5.93,0.34,15.22,0.49,26.39-1
	c14.33-1.92,20.86-5.09,22.94-3C1146.06,431.14,1143.41,438.6,1118.7,464z"/>
<path class="st3" d="M1251.78,501c-4.11-5.12-17.1-19.86-41.3-27c-22.83-6.73-42.3-2.75-49.33-1c3.82-9,7.65-18,11.47-27
	c7.16-1.47,21.09-3.45,37.86,0c17.98,3.69,29.98,11.72,35.56,16c1.37,0.97,13.75,10.08,12.62,24
	C1258.05,493.48,1253.83,498.75,1251.78,501z"/>
<g>
	<path d="M1077.4,519c-14.78,0.85-34.12,0.68-56.21-3c-16.77-2.79-31.04-6.92-42.45-11c-0.26-2.12-0.33-5.4,1.15-9
		c3.08-7.51,10.75-11.11,14.91-13c13.17-5.97,26.62-4.5,39-3c9.49,1.15,23.85,3.86,40.15,11c0.55,0.37,10.86,7.58,9.18,18
		C1082.31,514.11,1079,517.55,1077.4,519z"/>
	<path class="st5" d="M1077.4,522c-14.78,0.85-34.12,0.68-56.21-3c-16.77-2.79-31.04-6.92-42.45-11c-0.26-2.12-0.33-5.4,1.15-9
		c3.08-7.51,10.75-11.11,14.91-13c13.17-5.97,26.62-4.5,39-3c9.49,1.15,23.85,3.86,40.15,11c0.55,0.37,10.86,7.58,9.18,18
		C1082.31,517.11,1079,520.55,1077.4,522z"/>
	<ellipse class="st6" cx="1034.96" cy="502" rx="20.65" ry="18"/>
	<ellipse cx="1037.89" cy="503.5" rx="11.98" ry="10.5"/>
	<ellipse class="st7" cx="1028.85" cy="498.16" rx="7.66" ry="5.16"/>
</g>
<g>
	<path d="M1227.72,531.84c-11.74,1.54-27.21,2.37-45.14,0.11c-13.62-1.72-25.34-4.79-34.76-7.97c-0.37-1.94-0.68-4.96,0.22-8.35
		c1.88-7.08,7.72-10.79,10.91-12.74c10.06-6.17,20.92-5.5,30.93-4.76c7.67,0.57,19.35,2.34,32.93,8.08
		c0.47,0.31,9.26,6.43,8.73,16.12C1231.26,527.08,1228.88,530.42,1227.72,531.84z"/>
	<path class="st5" d="M1227.95,534.61c-11.74,1.54-27.21,2.37-45.14,0.11c-13.62-1.72-25.34-4.79-34.76-7.97
		c-0.37-1.94-0.68-4.96,0.22-8.35c1.88-7.08,7.72-10.79,10.91-12.74c10.06-6.17,20.92-5.5,30.93-4.76
		c7.67,0.57,19.35,2.34,32.93,8.08c0.47,0.31,9.26,6.43,8.73,16.12C1231.49,529.85,1229.11,533.19,1227.95,534.61z"/>
	
		<ellipse transform="matrix(0.7672 -0.6414 0.6414 0.7672 -54.87 885.5369)" class="st6" cx="1192.49" cy="518.36" rx="16.41" ry="16.76"/>
	<ellipse transform="matrix(0.8311 -0.5562 0.5562 0.8311 -87.0912 752.4)" cx="1194.99" cy="519.56" rx="9.54" ry="9.76"/>
	
		<ellipse transform="matrix(0.9995 -0.033 0.033 0.9995 -16.353 39.4615)" class="st7" cx="1187.35" cy="515.16" rx="6.13" ry="4.77"/>
</g>
<g>
	<g>
		<path d="M1171.99,428.83c-0.75,6.79-1.78,13.57-3.69,20.15c-1.8,6.2-4.55,11.93-7.77,17.5c-6.34,10.98-13.53,21.47-15.46,34.28
			c-4.08,27.2,10.57,52.24,18.36,77.34c1.98,6.38,3.6,12.91,4.32,19.56c0.64,5.94,0.8,12.19-0.7,18.02
			c-1.45,5.66-4.64,10.34-9.69,13.36c-4.96,2.96-10.71,4.7-16.38,5.69c-11.12,1.94-22.98,0.66-33.4-3.72
			c-2.57-1.08-5.06-2.38-7.42-3.86c-2.47-1.55-4.72-3.39-7.15-5c-4.78-3.16-10.02-4.16-15.65-4.55c-4.93-0.34-10.09-0.2-14.81-1.87
			c-5.08-1.8-8.2-6.53-7.26-11.95c1-5.84,5.65-10.56,9.99-14.24c4.56-3.87,9.84-6.98,15.39-9.18c2.73-1.08,5.53-1.96,8.38-2.65
			c1.88-0.45,1.08-3.35-0.8-2.89c-11.9,2.88-23.82,9.31-31.43,19.1c-3.59,4.61-6.01,10.66-3.9,16.46c1.87,5.12,6.55,7.96,11.68,9.04
			c5.26,1.1,10.68,0.86,16,1.48c2.7,0.32,5.45,0.9,7.9,2.1c2.85,1.4,5.31,3.43,7.9,5.25c9.52,6.7,21.26,10.03,32.83,10.31
			c5.94,0.15,11.94-0.53,17.68-2.08c5.82-1.57,11.93-3.96,16.37-8.16c9.1-8.6,8.68-23.07,6.96-34.46
			c-4.17-27.63-21.23-51.93-22.78-80.13c-0.38-6.88,0.28-13.78,2.37-20.36c1.99-6.24,5.27-11.97,8.61-17.57
			c3.31-5.55,6.78-11.05,9.41-16.97c2.83-6.37,4.6-13.1,5.76-19.96c0.56-3.34,0.99-6.69,1.36-10.06
			C1175.21,426.92,1172.2,426.93,1171.99,428.83L1171.99,428.83z"/>
	</g>
</g>
<g>
	<g>
		<path d="M1030.61,706.6c16.79-1.67,33.7-2.05,50.56-1.23c17.18,0.84,34.3,2.91,51.19,6.19c9.58,1.86,19.08,4.11,28.48,6.73
			c1.86,0.52,2.66-2.37,0.8-2.89c-16.73-4.67-33.78-8.12-51-10.38c-17.01-2.23-34.19-3.27-51.35-3.03
			c-9.58,0.13-19.15,0.67-28.68,1.62C1028.7,703.79,1028.68,706.79,1030.61,706.6L1030.61,706.6z"/>
	</g>
</g>
<ellipse transform="matrix(0.8629 -0.5054 0.5054 0.8629 -156.3825 496.7491)" class="st4" cx="837.32" cy="536.59" rx="45.43" ry="84.33"/>
<g>
	<g>
		<g>
			<path d="M808.76,480.97c11.77,6.09,23.05,14.1,31.77,24.15c3.97,4.58,7.57,10.13,8.17,16.3c0.66,6.83-2.46,13.26-4.55,19.58
				c-2.53,7.65-3.17,15.65-1.76,23.59c0.34,1.9,3.23,1.09,2.89-0.8c-1.3-7.33-0.61-14.73,1.69-21.78c2.14-6.55,5.29-13.14,4.76-20.2
				c-0.47-6.33-3.6-11.97-7.46-16.86c-4.12-5.21-9.15-9.76-14.34-13.88c-6.13-4.86-12.71-9.1-19.65-12.7
				C808.56,477.49,807.04,480.08,808.76,480.97L808.76,480.97z"/>
		</g>
	</g>
	<g>
		<g>
			<path d="M850.3,516.87c-9.35,0.2-19.27,4.25-24.48,12.35c-2.48,3.87-3.73,8.63-3.25,13.22c0.54,5.07,3.05,9.22,6.45,12.92
				c3.91,4.25,8.19,8.68,13.3,11.46c1.7,0.93,3.21-1.66,1.51-2.59c-4.12-2.25-7.4-5.61-10.68-8.9c-3.21-3.24-6.28-6.69-7.3-11.26
				c-1.89-8.45,3.17-16.39,10.36-20.45c4.29-2.42,9.18-3.65,14.09-3.75C852.23,519.83,852.24,516.83,850.3,516.87L850.3,516.87z"/>
		</g>
	</g>
</g>
<g>
	<g>
		<path d="M957.14,652.53c12.02-12.33,25.31-23.39,39.55-33.07c14.6-9.92,30.16-18.42,46.36-25.43c9.26-4.01,18.73-7.5,28.35-10.51
			c1.84-0.58,1.05-3.47-0.8-2.89c-17.24,5.4-34,12.37-49.94,20.87c-15.59,8.31-30.39,18.08-44.1,29.23
			c-7.55,6.14-14.75,12.71-21.55,19.68C953.67,651.79,955.79,653.91,957.14,652.53L957.14,652.53z"/>
	</g>
</g>
<g>
	<g>
		<path d="M1167.62,590.2c10.05,9.89,18.67,21.17,25.43,33.56c6.5,11.93,11.23,24.82,13.83,38.16c1.46,7.49,2.21,15.1,2.26,22.73
			c0.01,1.93,3.01,1.93,3,0c-0.1-13.77-2.48-27.5-6.9-40.54c-4.55-13.39-11.18-26.07-19.51-37.5c-4.81-6.6-10.16-12.8-15.99-18.53
			C1168.36,586.72,1166.24,588.84,1167.62,590.2L1167.62,590.2z"/>
	</g>
</g>
<g>
	<rect x="561.54" y="95.28" class="st8" width="62.31" height="890.92"/>
	<rect x="808.77" y="71.6" class="st8" width="62.31" height="914.6"/>
	<rect x="1056" y="83.44" class="st8" width="62.31" height="902.76"/>
	<rect x="1303.23" y="83.44" class="st8" width="62.31" height="902.76"/>
	<path class="st9" d="M367,42v996h1187V42H367z M1503.09,983.98H417.91V96.02h1085.17L1503.09,983.98L1503.09,983.98z"/>
</g>
<g>
	<g>
		<path class="st10" d="M925.63,1010.03l-0.1-0.01c-13.53-1.4-24.54-10.61-32.74-27.36c-7.78,7.08-15.88,13.16-24.13,18.11
			c-1.9,1.09-3.82,1.64-5.74,1.64c-0.84,0-1.64-0.07-2.39-0.2l-0.11-0.02c-2.79-0.66-5.25-2.11-7.29-4.32
			c-1.5-1.62-2.26-3.5-2.26-5.6v-1l0.02-0.15c0.41-2.64,1.79-4.66,4.01-5.86c10.68-5.65,20.83-13.18,30.17-22.38l0.07-0.07
			l0.08-0.06c0.16-0.13,0.24-0.19,0.12-0.62c-3.65-12.84-6.78-29.61-9.29-49.85l-13.49,1.49h-0.9c-2.18,0-4.11-0.74-5.74-2.21
			c-1.94-1.67-3.06-3.88-3.32-6.55l-0.01-0.1v-0.94c0-2.25,0.67-4.26,1.99-5.97c1.57-2.12,3.67-3.35,6.22-3.65l13.61-1.32
			c-1.35-17.69-2.03-29.39-2.03-34.83c0-2.51,0.8-4.72,2.36-6.55c1.91-2.06,4.2-3.07,6.86-3.07c2.65,0,4.96,1,6.86,2.99
			c1.86,1.94,2.86,4.31,2.99,7.05c0.41,12.54,1.03,23.39,1.85,32.29l39.24-4.33c0.45-0.13,0.91-0.2,1.36-0.2
			c2.08,0,4.01,0.8,5.74,2.39c1.83,1.7,2.89,3.83,3.15,6.36l0.01,0.1v0.95c0,2.25-0.67,4.26-1.99,5.97
			c-1.57,2.12-3.62,3.36-6.06,3.65l-39.52,4.35c1.52,12.98,3.5,24.69,5.9,34.86c6.34-8.57,11.62-17.18,15.73-25.63
			c1.04-2.4,2.84-4.03,5.31-4.77l0.11-0.03l0.11-0.02c0.76-0.13,1.44-0.2,2.08-0.2c1.54,0,3.01,0.45,4.38,1.34
			c2.21,1.4,3.66,3.46,4.31,6.12c0.24,0.92,0.37,1.89,0.37,2.85c0,1.5-0.32,3.02-0.94,4.5c-6.26,13.06-14.49,25.69-24.5,37.63
			c-0.24,0.27-0.29,0.34-0.16,0.66c4.99,11.92,10.81,18.46,17.3,19.44h0.17c0.32,0,1.16-0.67,2.03-3.23
			c1.1-3.03,2.02-7.78,2.73-14.15c0.3-2.42,1.55-4.17,3.62-5.08c0.83-0.36,1.68-0.55,2.52-0.55c1.22,0,2.42,0.38,3.55,1.14
			c2.29,1.56,4.05,3.59,5.25,6.04c0.87,1.88,1.3,3.82,1.3,5.79c0,0.84-0.12,1.63-0.37,2.37c-1.95,11.39-4.52,19.2-7.85,23.88
			c-3.2,4.6-7.02,6.94-11.37,6.94H925.63z M893.36,891.4L893.36,891.4z M811.4,1009.52c-2.37,0-4.55-0.85-6.49-2.52
			c-1.84-1.58-3.2-3.65-4.04-6.12c-0.71-2.28-0.42-4.52,0.82-6.53c1.31-2.12,3.25-3.24,5.63-3.24c2.72,0.11,5.56,0.17,8.53,0.17
			c0.65-0.07,0.9-0.21,0.94-0.24c-0.01-0.02,0.14-0.37,0.14-1.32v-38.25l-9.63,2.86c-0.82,0.29-1.72,0.44-2.66,0.44
			c-1.64,0-3.21-0.5-4.68-1.49c-2.23-1.3-3.69-3.3-4.33-5.97c-0.24-0.91-0.37-1.82-0.37-2.68c0-1.66,0.39-3.28,1.16-4.8l0.05-0.1
			c1.31-2.26,3.24-3.77,5.74-4.48c6.03-1.46,10.94-2.75,14.67-3.87c0.03-0.03,0.06-0.13,0.06-0.31v-30.37l-12.45,0
			c-2.46,0-4.59-0.96-6.34-2.85c-1.71-1.84-2.57-4.09-2.57-6.7c0-2.61,0.88-4.85,2.6-6.64c1.75-1.81,3.87-2.73,6.31-2.73h12.45
			v-24.1c0-2.67,0.93-4.99,2.76-6.9c1.85-1.92,4.08-2.9,6.62-2.9c2.54,0,4.77,0.98,6.62,2.9c1.83,1.91,2.76,4.23,2.76,6.9v24.1
			l9.46,0c2.56,0,4.71,0.93,6.41,2.76c1.66,1.79,2.5,4.02,2.5,6.62c0,2.59-0.83,4.83-2.47,6.67c-1.7,1.91-3.87,2.87-6.44,2.87h-9.46
			v25.3c0.65-0.17,1.7-0.47,3.38-0.99c2.4-0.73,4.24-1.26,5.61-1.6c0.73-0.29,1.52-0.43,2.35-0.43c1.46,0,2.9,0.52,4.29,1.55
			c2.03,1.34,3.24,3.42,3.51,6.01l0.01,0.1v1.29c0,1.93-0.51,3.8-1.52,5.57c-1.3,2.24-3.2,3.8-5.65,4.63
			c-5.8,1.82-9.77,3.06-11.98,3.74c0.01,0.01-0.02,0.11-0.02,0.3v43.73c0,4.61-0.52,8.05-1.57,10.53c-1.12,2.63-3.07,4.64-5.78,5.99
			c-3.35,1.85-8.78,2.87-16.57,3.11l-0.03,0H811.4z M921.02,885.63c-0.66,0-1.28-0.07-1.84-0.21c-2.46-0.44-4.5-1.73-6.05-3.82
			c-3.18-4.21-7.15-9-11.78-14.23c-1.63-1.64-2.39-3.79-2.19-6.2c0.21-2.45,1.34-4.45,3.29-5.8c1.8-1.25,3.77-1.88,5.85-1.88l0.9,0
			c2.51,0.14,4.66,1.16,6.38,3.01c4.57,4.71,8.77,9.3,12.46,13.62c1.38,1.79,2.05,3.79,2.05,6.04v1.16l-0.02,0.14
			c-0.39,2.68-1.66,4.84-3.77,6.4C924.68,885.04,922.91,885.63,921.02,885.63z"/>
		<path class="st10" d="M972.46,1011.05c-2.61,0-4.88-1.01-6.73-3.01c-1.81-1.96-2.73-4.29-2.73-6.95V871.42
			c0-4.57,1.53-8.53,4.54-11.78c3.05-3.29,6.79-4.96,11.13-4.96h32.04c4.33,0,8.07,1.67,11.13,4.96c3.01,3.25,4.54,7.21,4.54,11.78
			v30.85c0,4.57-1.53,8.53-4.54,11.78c-3.05,3.29-6.79,4.96-11.13,4.96h-28.94v82.07c0,2.64-0.88,4.97-2.63,6.92
			C977.33,1010.03,975.08,1011.05,972.46,1011.05z M1008.23,903.15v-8.88l-26.47,0v8.88L1008.23,903.15z M1008.22,893.81
			L1008.22,893.81z M1008.23,878.75v-7.86l-26.47,0v7.86L1008.23,878.75z M1008.22,870.42L1008.22,870.42z M1075.24,1010.71
			c-4.03,0-7.74-1.41-11.03-4.2c-3.37-2.79-6-6.48-7.79-10.95l-0.14-0.36v-0.05c0,0,0,0,0,0c0,0-0.05-0.02-0.2-0.02h-39.8
			c-0.17,2.2-1.02,4.15-2.54,5.8c-1.75,1.89-3.88,2.84-6.34,2.84c-2.46,0-4.59-0.96-6.33-2.84c-1.71-1.84-2.58-4.07-2.58-6.61
			v-50.51c0-4.57,1.53-8.53,4.54-11.78c3.05-3.29,6.85-4.96,11.28-4.96h32.82c4.44,0,8.21,1.67,11.22,4.98
			c2.95,3.25,4.45,7.21,4.45,11.77v46.83c2.25,0.1,7.67,0.15,16.14,0.15c1.25-0.1,1.59-0.37,1.6-0.38l0,0c0,0,0.25-0.37,0.25-1.68
			v-69.35h-30.04c-4.33,0-8.07-1.67-11.13-4.96c-3.01-3.25-4.54-7.21-4.54-11.78v-31.19c0-4.57,1.53-8.53,4.54-11.78
			c3.05-3.29,6.79-4.96,11.13-4.96h33.45c4.33,0,8.07,1.67,11.13,4.96c3.01,3.25,4.54,7.21,4.54,11.78v117.46
			c0,5.04-0.56,8.93-1.7,11.91c-1.25,3.22-3.62,5.6-7.05,7.05c-3.23,1.56-8.15,2.51-14.97,2.87l-0.05,0H1075.24z M1044.82,978.91
			v-10.4l-28.51,0v10.4L1044.82,978.91z M1044.82,952.64v-9.39l-28.51,0v9.39L1044.82,952.64z M1053.38,903.96L1053.38,903.96z
			 M1080.78,903.49v-9.22h-27.41v9.22L1080.78,903.49z M1053.38,879.21L1053.38,879.21z M1080.78,878.75v-7.86h-27.41v7.86
			L1080.78,878.75z"/>
		<path class="st10" d="M1220.75,1010.88c-2.51,0-4.69-0.99-6.49-2.93c-1.76-1.9-2.65-4.15-2.65-6.7v-25.3
			c-7.21,10.24-15.52,18.87-24.76,25.72c-1.62,1.17-3.28,1.75-4.96,1.75c-0.64,0-1.32-0.07-2.08-0.2c-2.53-0.57-4.59-1.89-6.24-3.94
			c-1.22-1.47-1.85-3.21-1.85-5.15v-1.36l0.03-0.17c0.41-2.37,1.66-4.25,3.71-5.57c9.64-6.14,18.21-14.3,25.5-24.29h-18.28
			c-2.35,0-4.35-0.87-5.94-2.59c-1.55-1.67-2.34-3.73-2.34-6.1c0-2.36,0.78-4.43,2.31-6.16c1.59-1.79,3.6-2.71,5.97-2.71h28.94
			v-10.57l-12.61,0c-4.33,0-8.07-1.67-11.13-4.96c-3.01-3.25-4.54-7.21-4.54-11.78v-30.71h-2.87c-2.06,0-3.87-0.73-5.38-2.18
			c-0.05,2.15-0.8,4.05-2.23,5.66c-1.52,1.71-3.5,2.62-5.74,2.62h-43.34c-2.24,0-4.22-0.91-5.74-2.62c-1.48-1.66-2.23-3.65-2.23-5.9
			c0-2.26,0.76-4.23,2.26-5.85c1.54-1.66,3.46-2.5,5.71-2.5h43.34c2.02,0,3.77,0.68,5.23,2.02c0.03-2.26,0.82-4.24,2.34-5.87
			c1.59-1.72,3.54-2.59,5.79-2.59h2.87l0-9.19c0-2.42,0.8-4.54,2.39-6.33c1.65-1.85,3.71-2.79,6.13-2.79c2.42,0,4.48,0.94,6.13,2.79
			c1.59,1.79,2.39,3.92,2.39,6.33v9.18l9.66,0v-13.25c0-2.43,0.81-4.54,2.42-6.28c1.64-1.77,3.7-2.67,6.1-2.67
			c2.4,0,4.45,0.9,6.1,2.67c1.6,1.73,2.42,3.84,2.42,6.28v13.25l10.45,0v-9.86c0-2.55,0.84-4.74,2.5-6.53
			c1.7-1.83,3.8-2.76,6.26-2.76c2.45,0,4.56,0.93,6.26,2.76c1.66,1.79,2.5,3.99,2.5,6.53v9.86h3.97c2.24,0,4.19,0.87,5.79,2.59
			c1.55,1.68,2.34,3.71,2.34,6.02c0,2.32-0.79,4.34-2.34,6.02c-1.59,1.72-3.54,2.59-5.79,2.59h-3.97l0,7.49
			c0,4.57-1.53,8.53-4.54,11.78c-3.05,3.29-6.79,4.96-11.13,4.96h-13.66c-4.33,0-8.07-1.67-11.13-4.96
			c-3.01-3.25-4.54-7.21-4.54-11.78v-7.49l-9.66,0v30.4l56.42,0c2.23,0,4.16,0.83,5.75,2.47c1.57,1.63,2.37,3.66,2.37,6.05
			c0,2.39-0.8,4.43-2.37,6.05c-1.59,1.64-3.52,2.47-5.75,2.47h-27.05v10.57l28.15,0c2.25,0,4.22,0.9,5.86,2.67
			c1.6,1.73,2.42,3.81,2.42,6.19c0,2.39-0.82,4.46-2.45,6.14c-1.64,1.7-3.6,2.56-5.83,2.56h-17.72
			c6.49,9.39,14.07,17.36,22.53,23.69c2.17,1.61,3.31,3.98,3.31,6.86c0,2.17-0.69,4.08-2.04,5.69c-1.62,2.01-3.68,3.33-6.11,3.88
			l-0.22,0.05h-1.48c-1.93,0-3.73-0.66-5.34-1.97l-0.08-0.07c-7.61-6.83-14.66-15.33-21.01-25.32v25.69c0,2.53-0.86,4.77-2.55,6.67
			C1225.44,1009.88,1223.27,1010.88,1220.75,1010.88z M1237.52,896.03v-8.88l-10.45,0v8.88L1237.52,896.03z M1130.6,1008.84
			c-2.28,0-4.29-0.91-5.82-2.62c-1.48-1.67-2.23-3.68-2.23-5.99v-36.95c0-4.69,1.53-8.69,4.55-11.88c3.05-3.23,6.79-4.86,11.11-4.86
			h16.8c4.33,0,8.04,1.64,11.05,4.88c2.96,3.2,4.46,7.19,4.46,11.87v21.36c0,4.58-1.53,8.52-4.55,11.71
			c-3.05,3.23-6.74,4.86-10.96,4.86h-16.27c-0.19,1.91-0.96,3.6-2.29,5.04C1134.87,1007.97,1132.9,1008.84,1130.6,1008.84z
			 M1154.12,984.51v-21.08l-15.32,0v21.08L1154.12,984.51z M1130.53,939.69c-2.15,0-4.01-0.84-5.55-2.51
			c-1.5-1.61-2.26-3.58-2.26-5.85c0-2.24,0.72-4.2,2.15-5.82c1.47-1.66,3.43-2.54,5.66-2.54h31.88c2.23,0,4.19,0.88,5.66,2.54
			c1.43,1.62,2.15,3.57,2.15,5.82c0,2.25-0.72,4.21-2.15,5.82c-1.47,1.66-3.42,2.54-5.66,2.54H1130.53z M1130.53,916.47
			c-2.15,0-4.01-0.84-5.55-2.51c-1.5-1.61-2.26-3.55-2.26-5.76c0-2.19,0.72-4.12,2.15-5.73c1.47-1.66,3.43-2.54,5.66-2.54h32.04
			c2.13,0,4.03,0.88,5.5,2.54c1.43,1.62,2.15,3.54,2.15,5.73c0,2.19-0.72,4.12-2.15,5.73c-1.46,1.66-3.37,2.54-5.5,2.54H1130.53z
			 M1131.62,870.03c-2.23,0-4.14-0.8-5.67-2.39c-1.52-1.57-2.29-3.52-2.29-5.8c0-2.26,0.76-4.23,2.26-5.85
			c1.54-1.66,3.46-2.5,5.71-2.5h30.31c2.23,0,4.19,0.88,5.66,2.54c1.43,1.61,2.15,3.57,2.15,5.82c0,2.26-0.73,4.21-2.18,5.77
			c-1.49,1.61-3.38,2.42-5.63,2.42H1131.62z"/>
	</g>
</g>
<path class="st11" d="M712.15,1017.89h-74.22c-28.48,0-51.56-23.09-51.56-51.56V892.1c0-28.48,23.09-51.56,51.56-51.56h74.22
	c28.48,0,51.56,23.09,51.56,51.56v74.22C763.71,994.8,740.62,1017.89,712.15,1017.89z"/>
<polygon class="st12" points="698.84,952.94 789.61,805.99 763.16,787.45 673.2,933.1 620.05,891.99 602.81,917.11 681.98,978.35 
	683.41,976.26 684.12,976.76 693.61,961.4 699.22,953.23 "/>
</svg>
