<?xml version="1.0" encoding="utf-8"?>
<!-- Generator: Adobe Illustrator 23.0.5, SVG Export Plug-In . SVG Version: 6.00 Build 0)  -->
<svg version="1.1" id="圖層_1" xmlns="http://www.w3.org/2000/svg" xmlns:xlink="http://www.w3.org/1999/xlink" x="0px" y="0px"
	 viewBox="0 0 1920 1080" style="enable-background:new 0 0 1920 1080;" xml:space="preserve">
<style type="text/css">
	.st0{fill:#876312;stroke:#000000;stroke-miterlimit:10;}
	.st1{fill:#B5B396;stroke:#000000;stroke-miterlimit:10;}
	.st2{fill:#634710;stroke:#000000;stroke-miterlimit:10;}
	.st3{fill:#777064;stroke:#000000;stroke-miterlimit:10;}
	.st4{fill:none;stroke:#4C370C;stroke-width:9;stroke-miterlimit:10;}
	.st5{fill:none;stroke:#2D2008;stroke-width:9;stroke-miterlimit:10;}
	.st6{fill:#FFFFFF;stroke:#000000;stroke-width:3;stroke-miterlimit:10;}
	.st7{fill:#FFFFFF;stroke:#000000;stroke-width:6;stroke-miterlimit:10;}
	.st8{fill:#7FEF6C;}
</style>
<g>
	<polygon class="st0" points="1455.27,802.9 854.85,909.44 804.63,574.45 1405.04,467.92 	"/>
	<path class="st1" d="M1379.22,902.45c-159.42,27.75-318.84,55.49-478.26,83.24c-6.37-29.59-12.76-59.2-19.13-88.79
		c161.54-32.83,323.09-65.66,484.64-98.5C1370.71,833.08,1374.97,867.76,1379.22,902.45z"/>
	<path class="st1" d="M901.59,907.31c-17.09,6.99-50.94,17.87-92.58,11.1c-20.92-3.4-37.91-10.29-50.26-16.64
		c6.17-96.65,12.34-193.3,18.52-289.95c40.12-5.55,80.24-11.1,120.36-16.64C898.95,699.2,900.27,803.25,901.59,907.31z"/>
	<path class="st1" d="M1474.87,798.4c-36.14,0-72.27,0-108.41,0c-3.39-98.73-6.79-197.46-10.18-296.2
		c40.12-5.55,80.24-11.1,120.36-16.64C1476.05,589.83,1475.46,694.11,1474.87,798.4z"/>
	<rect x="468.6" y="516.77" class="st2" width="289.51" height="377.36"/>
	<path class="st3" d="M725.97,968.34c-80.05-29.59-160.1-59.2-240.15-88.79c2.26-29.14,4.52-58.26,6.78-87.4
		c82.77,29.14,165.52,58.26,248.29,87.4C735.91,909.15,730.95,938.75,725.97,968.34z"/>
	<rect x="420.13" y="486.24" class="st3" width="76.52" height="296.89"/>
	<path class="st3" d="M781.07,906.61c-20.41-0.47-40.82-0.92-61.22-1.39c1.7-105.9,3.4-211.8,5.1-317.7
		c20.83,5.55,41.66,11.1,62.49,16.64C785.32,704.99,783.19,805.79,781.07,906.61z"/>
	<path class="st0" d="M1453.83,399.54c-225.74,37.46-451.48,74.92-677.22,112.38c-129.24-42.54-258.48-85.09-387.71-127.63
		c20.4-26.84,50.92-64.09,91.82-104.05C525.99,236,599.59,165.35,711.56,117.91c92.79-39.32,170.11-44.97,225.74-48.56
		c89.36-5.75,179.87-11.58,271.65,30.52C1366.04,171.94,1433.57,341.62,1453.83,399.54z"/>
	<path class="st1" d="M776.61,511.91C650.77,468.9,524.94,425.9,399.1,382.89c-0.12-23.69,2.3-98.87,52.29-169.25
		c14.17-19.95,53.53-69.6,122.44-92.95c18.36-6.22,73.61-24.06,137.74-2.77c85.01,28.22,126.26,105.62,145.4,141.5
		c52.39,98.28,46.52,196.55,42.09,235.85C858.23,500.81,817.41,506.36,776.61,511.91z"/>
	<path class="st3" d="M776.61,511.91c-127.54-42.54-255.07-85.09-382.61-127.63c6.87-123.58,69.03-216.38,144.12-231.68
		c65.24-13.29,121.08,35.83,140.29,52.72C793.54,306.58,778.84,488.35,776.61,511.91z"/>
	<path class="st2" d="M703.91,486.94c-78.22-24.98-156.45-49.94-234.67-74.92c-1.2-11.91-4.85-60.62,25.5-105.44
		c6.71-9.91,36.67-54.18,79.08-55.49c65.05-2.02,115.12,96.96,127.53,169.25C706.09,447.89,705.32,471.37,703.91,486.94z"/>
	<path class="st1" d="M1480.61,398.15c-41.23,6.94-82.48,13.87-123.71,20.81c0.11-29.84-2.85-135.31-75.25-228.91
		C1189.24,70.58,1057.28,65.6,1036.78,65.19c111.2-52.94,239.21-35.36,330.32,45.78C1487.41,218.13,1481.5,381.04,1480.61,398.15z"
		/>
	<path class="st1" d="M776.61,624.29C648.64,579.9,520.68,535.5,392.72,491.11c-3.27-3.54-23.89-26.58-21.68-61.04
		c1.55-24.23,13.48-40.39,17.85-45.78c129.24,42.54,258.48,85.09,387.71,127.63c234.67-37.92,469.33-75.84,704-113.76
		c2.63,1.5,25.92,15.31,30.61,45.78c4.51,29.33-11.88,50.09-14.03,52.72C1256.99,539.19,1016.8,581.74,776.61,624.29z"/>
	<path class="st3" d="M466.22,903.47c-18.96-6.28-37.9-12.57-56.86-18.85c-15.68-5.2-26.51-21.01-26.71-39.03l-0.53-46.9
		c-0.28-24.81,19.31-44.13,41.7-41.1c19.94,2.7,39.89,5.41,59.83,8.11c19.44,2.64,33.8,21.37,32.89,42.9
		c-0.81,19.22-1.63,38.43-2.44,57.65C512.96,892.88,489.45,911.17,466.22,903.47z"/>
	<path class="st3" d="M791.62,976.55c0.7,16.35-11.54,30.01-26.58,29.43c-9.04-0.35-19.06-1.5-29.79-3.98
		c-9.41-2.17-17.89-5.02-25.37-8.09c-11.14-4.58-17.86-16.96-16.36-29.81c2.6-22.24,5.2-44.5,7.8-66.74
		c2.01-17.18,17.66-28.32,32.93-23.45c12,3.83,24,7.65,36.01,11.47c10.6,3.38,18.06,13.7,18.57,25.71L791.62,976.55z"/>
	<path class="st1" d="M880.25,995.23c-18.67,1.99-37.35,3.97-56.02,5.96c-19.71,2.09-36.79-14.75-36.79-36.3v-41.88
		c0-18.17,12.3-33.56,28.84-36.11c17.69-2.71,35.37-5.43,53.06-8.15c16.83-2.58,32.83,8.92,37.11,26.81
		c1.4,5.87,2.6,12.24,3.44,19.05c1.73,14.16,1.54,27.08,0.45,38.24C908.63,980.05,896.05,993.55,880.25,995.23z"/>
	<path class="st1" d="M1465.8,899.5c-22.05,1.99-44.08,3.98-66.13,5.97c-23.27,2.1-43.42-14.78-43.42-36.36v-41.95
		c0-18.21,14.52-33.63,34.04-36.18c20.87-2.72,41.75-5.45,62.62-8.16c19.87-2.59,38.74,8.94,43.8,26.87
		c1.66,5.88,3.07,12.26,4.06,19.09c2.05,14.19,1.82,27.14,0.52,38.32C1499.29,884.28,1484.46,897.81,1465.8,899.5z"/>
	<line class="st4" x1="863.96" y1="273.98" x2="1281.01" y2="189.36"/>
	<line class="st4" x1="778.51" y1="163" x2="1144.55" y2="88.08"/>
	<line class="st4" x1="902.23" y1="394.68" x2="1334.58" y2="307.28"/>
	<line class="st4" x1="902.23" y1="691.57" x2="1360.09" y2="598.62"/>
	<line class="st4" x1="902.23" y1="806.72" x2="1357.54" y2="715.16"/>
	<line class="st5" x1="478.17" y1="341.27" x2="693.06" y2="407.17"/>
	<line class="st5" x1="497.3" y1="609.03" x2="723.67" y2="677.7"/>
	<line class="st5" x1="497.3" y1="700.59" x2="722.4" y2="769.26"/>
	<path class="st1" d="M1266.99,525.09c-2.77,75.5-69.93,128.62-133.92,122.09c-51.56-5.27-99.11-49.08-107.13-106.83
		c-9.9-71.25,43.05-144.31,113.51-148.45C1207.86,387.89,1269.74,450.2,1266.99,525.09z"/>
	<path d="M1183.98,487.71c-0.93-21.04-19.09-37.19-40.55-36.07c-21.45,1.12-38.09,19.1-37.16,40.14c0.7,15.72,11,28.71,25.13,33.8
		l2.81,63.35l34.39-1.81l-2.9-65.21C1177.2,514.76,1184.61,501.94,1183.98,487.71z"/>
</g>
<g>
	<g>
		<path class="st6" d="M599.03,1039.86c-3.86,0-7.28-1.79-10.18-5.3c-0.94-1.18-1.4-2.45-1.4-3.81c0-0.71,0.15-1.4,0.44-2.08
			c0.65-1.96,2.05-3.26,4.06-3.76c9.56-1.94,18.24-4.2,25.96-6.76c-3.3-0.52-6.22-2.12-8.71-4.76c-3.07-3.25-4.63-7.22-4.63-11.8
			v-26.61c0-4.57,1.53-8.53,4.54-11.78c3.05-3.29,6.85-4.96,11.28-4.96h76.17c4.33,0,8.07,1.67,11.13,4.96
			c3.01,3.25,4.54,7.21,4.54,11.78v26.61c0,4.57-1.53,8.53-4.54,11.78c-2.26,2.44-4.9,3.99-7.88,4.63
			c7.19,2.24,14.05,4.52,20.51,6.79c2.6,0.99,4.01,3.16,4.01,6.12c0,1.96-0.86,3.68-2.49,4.96c-2.88,2.2-5.98,3.31-9.25,3.31
			c-2.14,0-4.3-0.45-6.43-1.34c-9.72-3.91-20.87-7.82-33.12-11.63c-2.25-0.65-3.74-2.28-4.27-4.71c-0.24-1.12-0.23-2.19,0.05-3.17
			h-24.69c0.39,1.02,0.52,2.15,0.39,3.38c-0.29,2.72-1.7,4.67-4.06,5.63c-11.1,4.97-24.11,9.06-38.61,12.13
			C600.87,1039.73,599.92,1039.86,599.03,1039.86z M693.15,1005.35v-3.12l-69.81,0v3.12L693.15,1005.35z M693.15,989.59v-2.95
			l-69.81,0v2.95L693.15,989.59z M693.15,974v-2.78l-69.81,0V974L693.15,974z M597.49,958.02c-1.79,0-3.4-0.63-4.81-1.87
			c-1.54-1.36-2.4-3.1-2.55-5.19c-0.26-1.97,0.26-3.85,1.52-5.43c1.28-1.61,3.02-2.54,5.02-2.7l0.15-0.01
			c2.05,0,5.39-0.14,9.93-0.42c4.47-0.27,7.82-0.46,10.21-0.58l0-3.47l-12.29,0c-1.6,0-3.06-0.66-4.22-1.91
			c-1.14-1.23-1.71-2.74-1.71-4.5s0.58-3.27,1.71-4.5c1.16-1.25,2.62-1.91,4.22-1.91h12.29v-2.78l-13.86,0
			c-1.83,0-3.44-0.74-4.65-2.13c-0.83-0.94-1.36-2-1.6-3.16c-2.6-0.22-4.9-1.39-6.84-3.48c-2.03-2.33-3.04-5.05-3.04-8.14v-2.88
			c0-3.89,1.31-7.3,3.89-10.16c2.64-2.91,5.91-4.39,9.73-4.39h47v-0.88c0-2.66,0.92-5,2.73-6.95c1.85-2,4.12-3.01,6.73-3.01
			c2.62,0,4.89,1.05,6.75,3.12c1.8,2.01,2.71,4.31,2.71,6.84v0.88h47.16c3.82,0,7.09,1.48,9.73,4.38c2.58,2.86,3.9,6.27,3.9,10.16
			v0.68c0,3.78-1.26,7.06-3.75,9.75c-2.39,2.58-5.29,3.95-8.63,4.1c-0.23,1.24-0.77,2.35-1.61,3.31c-1.21,1.39-2.82,2.13-4.65,2.13
			h-12.92v2.1l22.19,0c1.59,0,3.08,0.69,4.29,2c1.19,1.29,1.79,2.8,1.79,4.5c0,1.7-0.6,3.21-1.79,4.5c-1.21,1.31-2.7,2-4.29,2h-1.58
			c0.16,0.14,0.31,0.29,0.45,0.45c1.45,1.56,2.18,3.42,2.18,5.51v2.54c0,2.77-0.95,5.19-2.81,7.21c-1.91,2.06-4.27,3.1-7.04,3.1
			h-42.4c-2.89,0-5.29-1.05-7.15-3.12c-1.8-2-2.71-4.42-2.71-7.18v-2.71c0-2.09,0.71-3.92,2.1-5.43c0.12-0.13,0.24-0.25,0.36-0.37
			h-1.1c-1.73,0-3.26-0.71-4.42-2.05c-1.1-1.27-1.67-2.77-1.67-4.45c0-1.67,0.56-3.17,1.67-4.45c0.54-0.62,1.16-1.1,1.83-1.45
			c-0.5-0.94-0.8-1.99-0.9-3.17c-0.21-2.38,0.47-4.44,2.02-6.11c2.16-2.44,4.09-5.17,5.68-8.08c0.74-1.25,1.54-2.22,2.36-2.97
			l-60.33,0v3.62l42.13,0c1.8,0,3.42,0.72,4.68,2.08c1.24,1.34,1.87,2.97,1.87,4.84c0,1.87-0.63,3.5-1.87,4.83
			c-1.26,1.36-2.88,2.08-4.69,2.08h-13.23v2.78l11.82,0c1.7,0,3.21,0.66,4.37,1.91c1.14,1.23,1.71,2.74,1.71,4.5
			s-0.58,3.27-1.71,4.5c-1.16,1.25-2.67,1.91-4.37,1.91h-11.82v2.59l13.93-0.66c0.12-0.01,0.31-0.02,0.5-0.02
			c1.59,0,3.07,0.61,4.27,1.76c1.35,1.3,2.03,2.98,2.03,5c0,1.85-0.64,3.52-1.91,4.96c-1.29,1.47-2.9,2.3-4.79,2.45
			c-15.98,1.24-32.58,2.44-49.34,3.56C597.89,958.01,597.69,958.02,597.49,958.02z M679.32,944v-6l-10.09,0
			c0.12,0.12,0.24,0.24,0.36,0.37c1.4,1.51,2.1,3.34,2.1,5.43v0.2H679.32z M703.82,944v-0.03c0-2.09,0.73-3.95,2.18-5.51
			c0.15-0.16,0.3-0.31,0.45-0.45h-10.73v6L703.82,944z M679.32,925.02v-2.1l-8.68,0c-0.46,0-0.81,0.15-1.14,0.49
			c-0.41,0.54-0.84,1.07-1.29,1.62H679.32z M709.16,909.93v-4.64l-33.14,0c0.25,0.34,0.47,0.71,0.66,1.11
			c0.56,1.16,0.79,2.36,0.69,3.53H709.16z"/>
		<path class="st6" d="M876.54,1041.22c-8.63,0-15.82-6.6-21.37-19.61c-3.8,5.02-7.9,9.81-12.22,14.26l-0.08,0.08
			c-1.84,1.7-4.04,2.57-6.54,2.57l-0.42,0c-2.56-0.14-4.84-1.12-6.75-2.91c-1.79-1.64-2.67-3.72-2.6-6.18
			c0.07-2.4,1.03-4.45,2.8-5.93c0.63-0.58,1.25-1.17,1.86-1.75h-25.24v2.07c0,2.07-0.7,3.92-2.07,5.47
			c-1.42,1.61-3.27,2.46-5.35,2.46c-2.09,0-3.91-0.81-5.39-2.42c-1.45-1.56-2.18-3.42-2.18-5.51v-64.91c0-4.57,1.53-8.53,4.54-11.78
			c3.05-3.29,6.79-4.96,11.13-4.96h28.27c1.91,0,3.61,0.75,4.92,2.17c0.75,0.81,1.28,1.72,1.6,2.74c-0.23-3.21-0.45-6.51-0.65-9.88
			l-52.72-0.01v33.42c0,27.12-2.84,48.4-8.45,63.25c-0.87,2.19-2.53,3.66-4.8,4.27c-0.75,0.2-1.51,0.3-2.24,0.3
			c-1.4,0-2.76-0.37-4.05-1.08c-1.96-1.1-3.33-2.79-4.07-5.02c-0.73-2.21-0.63-4.46,0.28-6.71c3.21-8.78,5.33-20.24,6.27-34.03
			h-5.55V996c0,16.45-2.95,29.74-8.76,39.5l-0.06,0.1c-1.15,1.7-2.87,2.76-4.98,3.06l-0.14,0.01c-0.21,0.02-0.42,0.02-0.63,0.02
			c-1.73,0-3.3-0.55-4.68-1.63c-1.55-1.21-2.51-2.82-2.85-4.78c-0.34-1.92-0.03-3.78,0.92-5.54c4.11-7.79,6.2-18.25,6.2-31.08v-4.1
			h-0.04c-2.25,0-4.2-0.87-5.79-2.59c-1.55-1.67-2.34-3.7-2.34-6.02c0-2.32,0.79-4.34,2.34-6.02c1.59-1.72,3.54-2.59,5.79-2.59
			h21.09v-8.71l-7.31,0c-0.25,1.14-0.79,2.15-1.6,2.97c-1.15,1.16-2.59,1.78-4.17,1.78h-1.73c-2.11,0-4-0.84-5.47-2.42
			c-1.45-1.56-2.18-3.47-2.18-5.68v-33.39c0-2.19,0.7-4.09,2.07-5.65c1.41-1.61,3.32-2.46,5.5-2.46c2.16,0,4.08,0.84,5.55,2.42
			c1.45,1.56,2.18,3.47,2.18,5.68v19.86l7.15,0v-12.58c0-4.57,1.53-8.53,4.54-11.78c3.05-3.29,6.79-4.96,11.13-4.96h52.81v-2.1
			c-1.29-0.29-2.45-0.95-3.44-1.96c-1.37-1.39-2.06-3.12-2.06-5.13v-3.76h-33.53l0,0.71c0,2.64-0.88,4.97-2.63,6.93
			c-1.8,2.02-4.05,3.04-6.67,3.04c-2.61,0-4.88-1.01-6.73-3.01c-1.81-1.95-2.73-4.29-2.73-6.95v-0.71h-28.31
			c-2.25,0-4.2-0.87-5.79-2.59c-1.55-1.67-2.34-3.72-2.34-6.1c0-2.36,0.78-4.43,2.31-6.16c1.59-1.79,3.55-2.71,5.81-2.71h28.31
			v-1.22c0-2.79,0.93-5.16,2.76-7.06c1.85-1.92,4.1-2.9,6.7-2.9c2.63,0,4.87,1.02,6.67,3.04c1.74,1.95,2.63,4.28,2.63,6.93v1.22
			h33.53v-1.22c0-2.66,0.92-5,2.73-6.95c1.85-2,4.12-3.01,6.73-3.01c2.61,0,4.87,1.01,6.73,3.01c1.81,1.96,2.73,4.3,2.73,6.95v1.22
			h28.94c2.25,0,4.22,0.9,5.86,2.67c1.6,1.73,2.42,3.81,2.42,6.19c0,2.39-0.82,4.46-2.45,6.14c-1.64,1.7-3.6,2.56-5.83,2.56h-5.81
			c2.76,2.07,5.15,4.12,7.08,6.09c1.33,1.27,1.97,3.02,1.82,5.02c-0.05,0.68-0.18,1.33-0.4,1.93c1.79,0.26,3.37,1.09,4.71,2.47
			c1.62,1.68,2.45,3.77,2.45,6.22c0,2.43-0.81,4.54-2.42,6.27c-1.65,1.77-3.67,2.67-6.02,2.67h-26.09
			c0.68,13.36,1.72,25.32,3.09,35.61c2.23-6.94,4.23-14.35,5.97-22.11c0.51-2.36,1.76-4.34,3.69-5.88c1.67-1.21,3.39-1.79,5.17-1.79
			c0.56,0,1.13,0.07,1.7,0.22c2.31,0.46,4.16,1.79,5.5,3.95c0.92,1.42,1.4,3.04,1.4,4.78c0,0.68-0.06,1.37-0.19,2.06
			c-4.01,18.24-9.73,34.6-16.99,48.69c-0.29,0.55-0.34,1.03-0.18,1.54c4.88,16.94,9.07,18.76,10.65,18.76
			c0.01,0,2.13-0.86,3.03-13.23c0.16-2.09,1.25-3.68,3.07-4.48c0.75-0.33,1.51-0.5,2.26-0.5c1.02,0,2.01,0.3,2.93,0.9l0.13,0.09
			c3.75,2.88,5.65,6.2,5.65,9.89c0,0.55-0.06,1.12-0.18,1.68c-1,9.22-2.78,15.32-5.44,18.64
			C886.13,1039.46,881.96,1041.22,876.54,1041.22z M837.43,1007.22c1.59,0,3.02,0.63,4.13,1.82c0.17,0.18,0.32,0.37,0.46,0.56
			c2.31-2.99,4.36-5.97,6.1-8.87c0.27-0.46,0.34-1,0.22-1.66c-2.89-12.92-5.12-29.21-6.64-48.52c-0.21,1.5-0.84,2.81-1.87,3.92
			c-1.31,1.42-3.02,2.17-4.92,2.17h-7.58v6.51c4.07,0.12,7.54,1.73,10.38,4.79c2.91,3.14,4.38,6.99,4.38,11.44v4.41
			c0,4.46-1.47,8.31-4.38,11.44c-2.85,3.07-6.34,4.68-10.38,4.79v7.19L837.43,1007.22z M813.29,1007.22v-7.18l-7.31,0v7.18
			L813.29,1007.22z M827.58,986.03v-8.88h-21.6v8.88L827.58,986.03z M813.29,963.15v-6.5l-7.31,0v6.5L813.29,963.15z M867.82,919.42
			c-0.9-0.8-1.83-1.6-2.78-2.4c-1.48-1.28-2.29-3.01-2.36-5.02c-0.08-2.1,0.76-3.9,2.41-5.2c0.15-0.11,0.3-0.22,0.46-0.33h-12.14
			v2.55c0.82,0.28,1.57,0.77,2.21,1.46c1.02,1.1,1.56,2.42,1.56,3.82v5.12H867.82z"/>
		<path class="st6" d="M932.92,1040.54c-2.58,0-4.77-1-6.52-2.96c-1.69-1.89-2.55-4.14-2.55-6.67v-82.05
			c-2.12,2.9-4.19,5.59-6.18,8.06l-0.09,0.1c-1.64,1.78-3.56,2.68-5.71,2.68h-1.27l-0.17-0.03c-2.61-0.44-4.66-2.02-5.93-4.55
			c-1.13-2.24-1.7-4.57-1.7-6.92c0-0.67,0.06-1.34,0.18-1.99c0.37-3.09,1.59-5.83,3.62-8.14c12.35-14.33,22.64-31.64,30.59-51.46
			c1.03-2.51,2.74-4.34,5.07-5.47c1.25-0.68,2.68-1.04,4.16-1.04c0.9,0,1.87,0.14,2.88,0.41l0.08,0.02l0.08,0.03
			c2.41,0.87,4.17,2.54,5.24,4.98c0.53,1.3,0.8,2.58,0.8,3.85c0,1.1-0.19,2.27-0.56,3.47l-0.03,0.08l-0.03,0.08
			c-3.57,8.72-7.72,17.51-12.34,26.12c-0.38,0.66-0.55,1.33-0.55,2.11v109.66c0,2.53-0.86,4.77-2.55,6.67
			C937.68,1039.54,935.49,1040.54,932.92,1040.54z M956.16,1033.25c-2.58,0-4.77-1-6.52-2.96c-1.69-1.89-2.55-4.17-2.55-6.75
			c0-2.6,0.87-4.85,2.58-6.7c1.75-1.89,3.93-2.84,6.49-2.84h45.39c0.01,0,0.02,0,0.03,0c0.02-0.04,0.05-0.12,0.09-0.23
			c6.24-20.44,11.61-43.68,15.97-69.12c0.5-3,1.94-5.38,4.26-7.05c1.68-1.25,3.61-1.9,5.72-1.9h1.78l0.21,0.04
			c2.62,0.57,4.73,2.11,6.28,4.59c1.15,1.68,1.74,3.53,1.74,5.5c0,0.84-0.13,1.69-0.37,2.53c-5.44,25.7-11.16,47.77-17.01,65.64
			h26.06c2.56,0,4.74,0.96,6.49,2.84c1.71,1.85,2.58,4.1,2.58,6.7c0,2.58-0.86,4.86-2.55,6.75c-1.75,1.96-3.94,2.96-6.52,2.96
			H956.16z M981.6,1009.69c-1.83,0-3.52-0.66-5.03-1.97c-2.13-1.61-3.28-3.81-3.41-6.54c-1.65-16.92-4.6-34.91-8.75-53.38
			l-0.03-0.13c-0.12-0.77-0.18-1.5-0.18-2.17c0-1.6,0.46-3.19,1.38-4.74l0.05-0.09c1.34-2.02,3.18-3.28,5.47-3.73
			c0.57-0.14,1.19-0.22,1.86-0.22c1.73,0,3.41,0.5,4.99,1.49c2.17,1.47,3.51,3.48,4.04,6.04c4.59,19.02,7.88,36.89,9.76,53.05
			l0.01,0.12v1.3c0,2.33-0.65,4.44-1.94,6.24c-1.48,2.27-3.56,3.81-6.13,4.5l-0.1,0.02C982.94,1009.62,982.27,1009.69,981.6,1009.69
			z M959.61,929.52c-2.56,0-4.75-0.96-6.49-2.84c-1.71-1.84-2.57-4.09-2.57-6.7c0-2.59,0.86-4.86,2.55-6.75
			c1.75-1.96,3.94-2.96,6.52-2.96h30.67V889.9c0-2.77,0.92-5.17,2.73-7.12c1.85-2,4.14-3.01,6.81-3.01c2.66,0,4.95,1.01,6.81,3.01
			c1.81,1.96,2.73,4.36,2.73,7.12v20.37h33.34c2.46,0,4.61,0.99,6.41,2.93c1.76,1.9,2.65,4.18,2.65,6.78c0,2.62-0.9,4.88-2.68,6.73
			c-1.8,1.87-3.95,2.82-6.39,2.82H959.61z"/>
		<path class="st6" d="M1114.46,1037.49c-2.78,0-5.32-0.96-7.57-2.84c-2.22-1.76-3.95-4.15-5.13-7.06
			c-0.41-1.04-0.62-2.02-0.62-2.95c0-1.34,0.34-2.67,1.01-3.97l0.03-0.07l0.04-0.06c1.41-2.29,3.46-3.49,5.94-3.49
			c5.08,0.11,11.59,0.17,19.41,0.17c1.75-0.12,2.17-0.49,2.18-0.5c0.01,0,0.28-0.31,0.28-1.57v-45.12l-55.48,0
			c-2.67,0-4.96-1.01-6.81-3.01c-1.81-1.95-2.73-4.35-2.73-7.12c0-2.77,0.92-5.17,2.73-7.12c1.85-2,4.14-3.01,6.81-3.01h55.48
			v-17.15c0-2.77,0.95-5.19,2.81-7.21c1.91-2.06,4.22-3.1,6.88-3.1c0.24,0,0.44-0.06,0.64-0.19c8.25-5.04,16.03-10.75,23.2-17
			h-72.53c-2.56,0-4.8-1.01-6.65-3.01c-1.81-1.95-2.73-4.29-2.73-6.95c0-2.66,0.92-5,2.73-6.95c1.85-2,4.09-3.01,6.65-3.01h93.25
			l0.16-0.08l0.31-0.06c0.75-0.13,1.5-0.2,2.23-0.2c1.71,0,3.34,0.6,4.85,1.78l3.17,2.56c2.13,1.72,3.26,4.14,3.26,6.98
			c0,2.32-0.81,4.37-2.42,6.1c-5.73,5.73-12.24,11.49-19.38,17.16c-8.92,7.13-17.81,13.45-26.42,18.78
			c-0.32,0.19-0.47,0.36-0.47,0.84v10.71l55.32,0c2.66,0,4.95,1.01,6.8,3.01c1.81,1.96,2.73,4.36,2.73,7.12
			c0,2.77-0.92,5.17-2.73,7.12c-1.85,2-4.14,3.01-6.81,3.01h-55.32v45.29c0,5.33-0.71,9.36-2.17,12.32
			c-1.53,3.1-4.23,5.45-8.03,6.99c-4.81,1.81-12.9,2.74-24.76,2.86h-0.01H1114.46z"/>
		<path class="st6" d="M1239.79,1040.88c-2.37,0-4.55-0.85-6.49-2.52c-1.87-1.61-3.19-3.77-3.92-6.4c-0.56-2.42-0.22-4.6,1.01-6.59
			c1.24-2.01,3.07-3.08,5.29-3.08c0.13,0,0.26,0,0.4,0.01h1.82c3.01,0,4.25-0.08,4.76-0.15l0.13-0.02h0.14
			c0.46,0,0.74-0.04,0.91-0.07c0.04-0.17,0.08-0.48,0.08-0.98v-41.14c-5.99,2-7.36,2.49-7.66,2.6l-0.09,0.05l-0.18,0.06
			c-0.92,0.28-1.8,0.43-2.63,0.43c-1.51,0-3.01-0.44-4.47-1.29c-2.16-1.31-3.57-3.32-4.23-5.99l-0.03-0.17
			c-0.12-0.77-0.18-1.5-0.18-2.17c0-1.8,0.45-3.55,1.34-5.19c1.31-2.4,3.25-3.98,5.77-4.7c2.4-0.67,6.5-1.92,12.2-3.71
			c0.09-0.03,0.14-0.06,0.16-0.07c0-0.01,0.01-0.08,0.01-0.22v-29.18l-9.78,0c-2.46,0-4.59-0.96-6.34-2.85
			c-1.71-1.84-2.57-4.09-2.57-6.7c0-2.61,0.88-4.85,2.6-6.64c1.75-1.81,3.87-2.73,6.31-2.73h9.78v-24.27c0-2.54,0.84-4.74,2.5-6.53
			c1.7-1.83,3.8-2.76,6.26-2.76c2.44,0,4.56,0.92,6.31,2.73c1.73,1.8,2.6,4,2.6,6.56v24.27l7.11,0c2.56,0,4.71,0.93,6.41,2.76
			c0.32,0.35,0.61,0.71,0.87,1.08c0.11-2.32,0.94-4.33,2.48-6c1.7-1.83,3.8-2.76,6.26-2.76h16.22v-19.86c0-2.43,0.84-4.57,2.5-6.36
			c1.7-1.83,3.77-2.76,6.18-2.76c2.4,0,4.48,0.93,6.18,2.76c1.66,1.79,2.5,3.93,2.5,6.36v65.59c0,9.04-0.29,17.05-0.87,23.81
			c-0.58,6.8-1.76,13.99-3.5,21.39c-1.76,7.5-4.53,14.53-8.23,20.89c-3.7,6.36-8.45,12.22-14.12,17.42l-0.06,0.06l-0.07,0.05
			c-1.82,1.4-3.81,2.11-5.93,2.11h-0.89l-0.11-0.01c-2.55-0.28-4.81-1.38-6.7-3.29c-1.63-1.62-2.47-3.69-2.47-6.15
			c0-2.64,0.98-4.81,2.91-6.44c7.48-6.78,13.11-15.14,16.72-24.85c-3.68,1.54-7.76,3.22-12.16,5.01c-1.08,0.44-2.18,0.66-3.27,0.66
			c-1.34,0-2.64-0.29-3.85-0.88c-2.24-1.13-3.87-2.89-4.89-5.24c-0.52-1.12-0.79-2.31-0.79-3.51c0-1.19,0.27-2.39,0.81-3.55
			c1.08-2.33,2.8-3.88,5.13-4.62c6.27-1.92,14.18-4.53,23.51-7.78c0.11-0.04,0.2-0.07,0.24-0.5c0.61-5.24,1.02-10.59,1.23-15.95
			l-15.11,0c-2.35,0-4.41-0.93-6.1-2.76c-1.66-1.78-2.5-3.95-2.5-6.44c0-2.49,0.84-4.66,2.5-6.44c1.7-1.83,3.75-2.76,6.1-2.76h15.12
			v-17.35l-16.22,0c-2.46,0-4.56-0.93-6.26-2.76c-0.32-0.34-0.6-0.7-0.86-1.07c-0.09,2.39-0.92,4.48-2.46,6.21
			c-1.7,1.91-3.87,2.87-6.44,2.87h-7.11v23.83l5.52-1.84l0.14-0.03c0.76-0.13,1.44-0.2,2.08-0.2c1.57,0,3.02,0.47,4.31,1.39
			c1.95,1.26,3.18,3.25,3.48,5.7c0.12,0.57,0.18,1.13,0.18,1.69c0,2.04-0.51,3.92-1.53,5.58c-1.29,2.35-3.14,3.9-5.5,4.63
			c-4.43,1.59-7.26,2.59-8.64,3.05c0,0,0,0,0,0c-0.01,0-0.04,0.09-0.04,0.31v46.61c0,4.37-0.51,7.75-1.56,10.33
			c-1.1,2.7-2.84,4.81-5.19,6.28c-3.18,1.91-7.96,2.94-14.65,3.19l-0.04,0H1239.79z M1337.71,1040.71c-2.52,0-4.69-1-6.44-2.96
			c-1.69-1.89-2.55-4.14-2.55-6.67v-143.9c0-2.66,0.87-4.94,2.58-6.78c1.75-1.89,3.91-2.84,6.41-2.84c2.49,0,4.66,0.95,6.46,2.82
			c1.78,1.85,2.68,4.14,2.68,6.81v19.35l17.95,0c2.33,0,4.4,0.92,6.15,2.73c1.73,1.8,2.6,4,2.6,6.56c0,2.56-0.88,4.76-2.6,6.56
			c-1.74,1.81-3.81,2.73-6.15,2.73h-17.95v17.35l16.22,0c2.35,0,4.4,0.93,6.1,2.76c1.66,1.79,2.5,3.96,2.5,6.45
			c0,2.49-0.84,4.66-2.5,6.44c-1.7,1.83-3.75,2.76-6.1,2.76h-16.22v18.88l20.46,0c2.56,0,4.71,0.93,6.41,2.76
			c1.66,1.79,2.5,4.02,2.5,6.62c0,2.6-0.84,4.83-2.5,6.61c-1.7,1.83-3.85,2.76-6.41,2.76h-20.46v32.58c0,2.54-0.89,4.8-2.65,6.7
			C1342.4,1039.72,1340.21,1040.71,1337.71,1040.71z"/>
		<path class="st6" d="M1450.23,1041.22c-2.57,0-4.91-0.87-6.94-2.59c-1.96-1.65-3.38-3.81-4.22-6.42c-0.81-2.18-0.59-4.46,0.67-6.5
			c1.24-2.01,3.07-3.08,5.29-3.08c0.15,0,0.31,0.01,0.47,0.02c4.46,0.11,8.3,0.17,11.33,0.17c2.46,0,4.44-0.05,5.9-0.16
			c1.22-0.09,1.71-0.28,1.87-0.35c0.04-0.11,0.13-0.41,0.13-1.04v-38.34l-38.68,0c-2.25,0-4.22-0.9-5.86-2.68
			c-1.6-1.73-2.42-3.81-2.42-6.19s0.81-4.46,2.42-6.19c1.64-1.77,3.62-2.67,5.86-2.67h38.17c-6.02-3.15-12.25-6.24-18.6-9.24
			c-1.89-0.78-3.18-2.4-3.62-4.64c-0.45-2.25,0.18-4.28,1.82-5.88c1.6-1.6,3.56-2.69,5.8-3.23l0.12-0.03c0.75-0.13,1.5-0.2,2.23-0.2
			c1.39,0,2.8,0.27,4.18,0.81l0.1,0.04c4.62,2.11,10.02,4.62,16.05,7.47c0.15,0.07,0.28,0.11,0.37,0.11c0.03,0,0.13,0,0.33-0.13
			c5.25-3.21,10.41-7.04,15.42-11.43h-54.35c-2.15,0-4.04-0.87-5.63-2.59c-1.55-1.67-2.34-3.7-2.34-6.02c0-2.34,0.8-4.34,2.37-5.97
			c1.59-1.64,3.47-2.47,5.6-2.47h72.21l0.12-0.07l0.28-0.06c0.67-0.14,1.33-0.21,1.99-0.21c1.96,0,3.72,0.68,5.25,2.03l2.45,1.98
			c1.7,1.38,2.64,3.29,2.78,5.68c0.14,2.39-0.67,4.45-2.34,5.97c-8.59,8.62-17.77,16.06-27.32,22.14c2.52,1.42,5.21,3.07,8.03,4.91
			c0.49,0.32,0.8,0.68,1,1.03h20.92l0.27-0.08c0.84-0.26,1.69-0.39,2.54-0.39c1.06,0,2.12,0.2,3.16,0.6l0.12,0.05l3.3,1.53
			c1.99,0.92,3.35,2.54,3.92,4.69c0.56,2.13,0.27,4.14-0.86,5.97c-6.91,11.41-13.19,20.71-18.66,27.65c-1.54,1.95-3.56,3.21-6,3.76
			l-1.8,0.39h-0.21c-1.72,0-3.38-0.49-4.94-1.46c-1.95-1.07-3.22-2.88-3.7-5.23c-0.48-2.37,0.06-4.58,1.58-6.39
			c2.96-3.89,6.04-8.38,9.17-13.36h-23.67v38.68c0,4.99-0.64,8.67-1.95,11.25c-1.39,2.73-3.99,4.77-7.72,6.07
			C1469.88,1040.45,1462.1,1041.22,1450.23,1041.22z M1396.37,1038c-1.79,0-3.46-0.59-4.96-1.75c-2.16-1.52-3.57-3.61-4.21-6.22
			c-0.25-1.06-0.37-2.07-0.37-3.02c0-1.46,0.25-2.93,0.73-4.37l0.05-0.13c4.3-10.39,7.19-22.15,8.58-34.96
			c1.4-12.91,2.11-27.07,2.11-42.07v-32.54c0-4.57,1.53-8.53,4.54-11.78c3.05-3.29,6.79-4.96,11.13-4.96h42.29v-8
			c0-3.01,0.95-5.53,2.83-7.49c1.9-1.98,4.24-2.99,6.94-2.99c2.71,0,5.06,1.04,6.96,3.1c1.87,2.02,2.81,4.5,2.81,7.38v8l50.77,0
			c2.45,0,4.58,0.96,6.33,2.84c1.71,1.85,2.58,4.1,2.58,6.7c0,2.62-0.88,4.85-2.6,6.64c-1.75,1.81-3.87,2.73-6.31,2.73H1416.9v30.54
			c0,37.27-4.44,66.67-13.19,87.39c-0.95,2.47-2.85,4.13-5.48,4.73C1397.7,1037.92,1397.05,1038,1396.37,1038z"/>
	</g>
</g>
<path class="st7" d="M495.15,1048.89h-74.22c-28.48,0-51.56-23.09-51.56-51.56V923.1c0-28.48,23.09-51.56,51.56-51.56h74.22
	c28.48,0,51.56,23.09,51.56,51.56v74.22C546.71,1025.8,523.62,1048.89,495.15,1048.89z"/>
<polygon class="st8" points="488.84,990.94 579.61,843.99 553.16,825.45 463.2,971.1 410.05,929.99 392.81,955.11 471.98,1016.35 
	473.41,1014.26 474.12,1014.76 483.61,999.4 489.22,991.23 "/>
</svg>
