<?xml version="1.0" encoding="utf-8"?>
<!-- Generator: Adobe Illustrator 23.0.5, SVG Export Plug-In . SVG Version: 6.00 Build 0)  -->
<svg version="1.1" xmlns="http://www.w3.org/2000/svg" xmlns:xlink="http://www.w3.org/1999/xlink" x="0px" y="0px"
	 viewBox="0 0 1920 1080" style="enable-background:new 0 0 1920 1080;" xml:space="preserve">
<style type="text/css">
	.st0{fill:#4F380F;}
	.st1{fill:#AA8B5B;}
	.st2{fill:#935A07;}
	.st3{fill:#C2F5F9;}
	.st4{fill:#06F9F2;}
	.st5{fill:#FF69F8;}
	.st6{fill:#8B5C9B;}
	.st7{fill:#0000CC;}
	.st8{fill:#84CE88;}
	.st9{fill:#33CCFF;}
	.st10{fill:#EDF76D;}
	.st11{fill:#F7AC34;}
	.st12{fill:#F41C1C;}
</style>
<g id="圖層_1">
</g>
<g id="圖層_2">
	<rect x="625.75" y="36" class="st0" width="794.25" height="989.7"/>
	<rect x="667.04" y="68.18" class="st1" width="711.66" height="925.34"/>
	<rect x="651.49" y="259.95" class="st0" width="739.19" height="37.98"/>
	<rect x="653.53" y="510.01" class="st0" width="739.19" height="37.98"/>
	<rect x="653.53" y="760.07" class="st0" width="739.19" height="37.98"/>
	<rect x="626" y="993.25" class="st0" width="40.78" height="71.75"/>
	<rect x="1378.45" y="993.25" class="st0" width="40.78" height="71.75"/>
	<g>
		<g>
			<path class="st2" d="M1096.24,823.92l37.93,0.03c-1.45,8.22-2.9,16.44-4.35,24.65c-9.9-0.01-19.8-0.02-29.7-0.02
				C1098.83,840.36,1097.54,832.14,1096.24,823.92z"/>
		</g>
		<polygon class="st3" points="1143.05,857.99 1086.61,857.42 1086.73,846.52 1143.18,847.09 		"/>
		<polygon class="st3" points="1129.24,872.13 1101.01,871.84 1101.17,857.57 1129.4,857.85 		"/>
		
			<ellipse transform="matrix(0.0261 -0.9997 0.9997 0.0261 156.4325 2018.7341)" class="st3" cx="1114.32" cy="929.08" rx="59.95" ry="57.36"/>
		<path class="st4" d="M1065.3,913.32c-0.13,1.7-0.21,3.43-0.23,5.17c-0.39,34.7,21.51,63.05,48.91,63.32
			c27.4,0.27,49.94-27.64,50.33-62.34c0.02-1.74-0.02-3.46-0.11-5.17L1065.3,913.32z"/>
	</g>
	<g>
		<g>
			<path class="st2" d="M875,823.92l37.93,0.03c-1.45,8.22-2.9,16.44-4.35,24.65c-9.9-0.01-19.8-0.02-29.7-0.02
				C877.58,840.36,876.29,832.14,875,823.92z"/>
		</g>
		<polygon class="st3" points="921.81,857.99 865.36,857.42 865.48,846.52 921.93,847.09 		"/>
		<polygon class="st3" points="907.99,872.13 879.76,871.84 879.93,857.57 908.15,857.85 		"/>
		
			<ellipse transform="matrix(0.0261 -0.9997 0.9997 0.0261 -59.0323 1797.5616)" class="st3" cx="893.07" cy="929.08" rx="59.95" ry="57.36"/>
		<path class="st5" d="M844.05,913.32c-0.13,1.7-0.21,3.43-0.23,5.17c-0.39,34.7,21.51,63.05,48.91,63.32
			c27.4,0.27,49.94-27.64,50.33-62.34c0.02-1.74-0.02-3.46-0.11-5.17L844.05,913.32z"/>
	</g>
	<g>
		<g>
			<path class="st2" d="M1240.01,592.85l37.93,0.03c-1.45,8.22-2.9,16.44-4.35,24.65c-9.9-0.01-19.8-0.02-29.7-0.02
				C1242.59,609.29,1241.3,601.07,1240.01,592.85z"/>
		</g>
		<polygon class="st3" points="1286.81,626.92 1230.37,626.35 1230.49,615.45 1286.94,616.02 		"/>
		<polygon class="st3" points="1273,641.06 1244.77,640.77 1244.93,626.5 1273.16,626.78 		"/>
		
			<ellipse transform="matrix(0.0261 -0.9997 0.9997 0.0261 527.426 1937.4153)" class="st3" cx="1258.08" cy="698.01" rx="59.95" ry="57.36"/>
		<path class="st6" d="M1209.06,682.25c-0.13,1.7-0.21,3.43-0.23,5.17c-0.39,34.7,21.51,63.05,48.91,63.32s49.94-27.64,50.33-62.34
			c0.02-1.74-0.02-3.46-0.11-5.17L1209.06,682.25z"/>
	</g>
	<g>
		<g>
			<path class="st2" d="M780.18,592.85l37.93,0.03c-1.45,8.22-2.9,16.44-4.35,24.65c-9.9-0.01-19.8-0.02-29.7-0.02
				C782.76,609.29,781.47,601.07,780.18,592.85z"/>
		</g>
		<polygon class="st3" points="826.99,626.92 770.54,626.35 770.66,615.45 827.11,616.02 		"/>
		<polygon class="st3" points="813.17,641.06 784.94,640.77 785.1,626.5 813.33,626.78 		"/>
		
			<ellipse transform="matrix(0.0261 -0.9997 0.9997 0.0261 79.6167 1477.7434)" class="st3" cx="798.25" cy="698.01" rx="59.95" ry="57.36"/>
		<path class="st7" d="M749.23,682.25c-0.13,1.7-0.21,3.43-0.23,5.17c-0.39,34.7,21.51,63.05,48.91,63.32
			c27.4,0.27,49.94-27.64,50.33-62.34c0.02-1.74-0.02-3.46-0.11-5.17L749.23,682.25z"/>
	</g>
	<g>
		<g>
			<path class="st2" d="M893.35,340.68l37.93,0.03c-1.45,8.22-2.9,16.44-4.35,24.65c-9.9-0.01-19.8-0.02-29.7-0.02
				C895.93,357.12,894.64,348.9,893.35,340.68z"/>
		</g>
		<polygon class="st3" points="940.16,374.75 883.71,374.18 883.83,363.28 940.28,363.85 		"/>
		<polygon class="st3" points="926.34,388.88 898.12,388.6 898.28,374.33 926.5,374.61 		"/>
		
			<ellipse transform="matrix(0.0261 -0.9997 0.9997 0.0261 441.9175 1345.2971)" class="st3" cx="911.43" cy="445.84" rx="59.95" ry="57.36"/>
		<path class="st8" d="M862.4,430.08c-0.13,1.7-0.21,3.43-0.23,5.17c-0.39,34.7,21.51,63.05,48.91,63.32
			c27.4,0.27,49.94-27.64,50.33-62.34c0.02-1.74-0.02-3.46-0.11-5.17L862.4,430.08z"/>
	</g>
	<g>
		<g>
			<path class="st2" d="M1123.77,340.68l37.93,0.03c-1.45,8.22-2.9,16.44-4.35,24.65c-9.9-0.01-19.8-0.02-29.7-0.02
				C1126.36,357.12,1125.07,348.9,1123.77,340.68z"/>
		</g>
		<polygon class="st3" points="1170.58,374.75 1114.13,374.18 1114.26,363.28 1170.71,363.85 		"/>
		<polygon class="st3" points="1156.76,388.88 1128.54,388.6 1128.7,374.33 1156.93,374.61 		"/>
		
			<ellipse transform="matrix(0.0261 -0.9997 0.9997 0.0261 666.3186 1575.6427)" class="st3" cx="1141.85" cy="445.84" rx="59.95" ry="57.36"/>
		<path class="st9" d="M1092.83,430.08c-0.13,1.7-0.21,3.43-0.23,5.17c-0.39,34.7,21.51,63.05,48.91,63.32s49.94-27.64,50.33-62.34
			c0.02-1.74-0.02-3.46-0.11-5.17L1092.83,430.08z"/>
	</g>
	<g>
		<g>
			<path class="st2" d="M1224.71,94.84l37.93,0.03c-1.45,8.22-2.9,16.44-4.35,24.65c-9.9-0.01-19.8-0.02-29.7-0.02
				C1227.3,111.28,1226,103.06,1224.71,94.84z"/>
		</g>
		<polygon class="st3" points="1271.52,128.91 1215.07,128.34 1215.2,117.44 1271.65,118.01 		"/>
		<polygon class="st3" points="1257.7,143.04 1229.48,142.76 1229.64,128.49 1257.86,128.77 		"/>
		
			<ellipse transform="matrix(0.0261 -0.9997 0.9997 0.0261 1010.3758 1437.1309)" class="st3" cx="1242.79" cy="200" rx="59.95" ry="57.36"/>
		<path class="st10" d="M1193.76,184.23c-0.13,1.7-0.21,3.43-0.23,5.17c-0.39,34.7,21.51,63.05,48.91,63.32
			c27.4,0.27,49.94-27.64,50.33-62.34c0.02-1.74-0.02-3.46-0.11-5.17L1193.76,184.23z"/>
	</g>
	<g>
		<g>
			<path class="st2" d="M1000.4,94.84l37.93,0.03c-1.45,8.22-2.9,16.44-4.35,24.65c-9.9-0.01-19.8-0.02-29.7-0.02
				C1002.99,111.28,1001.7,103.06,1000.4,94.84z"/>
		</g>
		<polygon class="st3" points="1047.21,128.91 990.77,128.34 990.89,117.44 1047.34,118.01 		"/>
		<polygon class="st3" points="1033.4,143.04 1005.17,142.76 1005.33,128.49 1033.56,128.77 		"/>
		
			<ellipse transform="matrix(0.0261 -0.9997 0.9997 0.0261 791.9322 1212.9006)" class="st3" cx="1018.48" cy="200" rx="59.95" ry="57.36"/>
		<path class="st11" d="M969.46,184.23c-0.13,1.7-0.21,3.43-0.23,5.17c-0.39,34.7,21.51,63.05,48.91,63.32
			c27.4,0.27,49.94-27.64,50.33-62.34c0.02-1.74-0.02-3.46-0.11-5.17L969.46,184.23z"/>
	</g>
	<g>
		<g>
			<path class="st2" d="M776.1,94.84l37.93,0.03c-1.45,8.22-2.9,16.44-4.35,24.65c-9.9-0.01-19.8-0.02-29.7-0.02
				C778.68,111.28,777.39,103.06,776.1,94.84z"/>
		</g>
		<polygon class="st3" points="822.91,128.91 766.46,128.34 766.58,117.44 823.03,118.01 		"/>
		<polygon class="st3" points="809.09,143.04 780.86,142.76 781.03,128.49 809.25,128.77 		"/>
		
			<ellipse transform="matrix(0.0261 -0.9997 0.9997 0.0261 573.4886 988.6705)" class="st3" cx="794.17" cy="200" rx="59.95" ry="57.36"/>
		<path class="st12" d="M745.15,184.23c-0.13,1.7-0.21,3.43-0.23,5.17c-0.39,34.7,21.51,63.05,48.91,63.32
			c27.4,0.27,49.94-27.64,50.33-62.34c0.02-1.74-0.02-3.46-0.11-5.17L745.15,184.23z"/>
	</g>
</g>
</svg>
