<?xml version="1.0" encoding="utf-8"?>
<!-- Generator: Adobe Illustrator 23.0.5, SVG Export Plug-In . SVG Version: 6.00 Build 0)  -->
<svg version="1.1" id="圖層_1" xmlns="http://www.w3.org/2000/svg" xmlns:xlink="http://www.w3.org/1999/xlink" x="0px" y="0px"
	 viewBox="0 0 1920 1080" style="enable-background:new 0 0 1920 1080;" xml:space="preserve">
<style type="text/css">
	.st0{fill:#4F380F;}
	.st1{fill:#AA8B5B;}
	.st2{fill:#935A07;}
	.st3{fill:#C2F5F9;}
	.st4{fill:#8B5C9B;}
	.st5{fill:#EDF76D;}
	.st6{fill:#F41C1C;}
	.st7{fill:#F7AC34;}
	.st8{fill:#33CCFF;}
	.st9{fill:#84CE88;}
	.st10{fill:#0000CC;}
	.st11{fill:#FF69F8;}
	.st12{fill:#06F9F2;}
</style>
<rect x="559.75" y="31.75" class="st0" width="825.25" height="982.24"/>
<rect x="602.65" y="63.69" class="st1" width="739.44" height="918.37"/>
<rect x="586.5" y="254.01" class="st0" width="768.04" height="37.7"/>
<rect x="588.62" y="502.19" class="st0" width="768.04" height="37.7"/>
<rect x="588.62" y="750.37" class="st0" width="768.04" height="37.7"/>
<rect x="560.01" y="981.79" class="st0" width="42.37" height="71.21"/>
<rect x="1341.83" y="981.79" class="st0" width="42.37" height="71.21"/>
<g>
	<path class="st2" d="M602.01,117.43l29.44-25.91c4.93,7.71,9.87,15.41,14.8,23.12c-7.68,6.76-15.37,13.53-23.05,20.29
		C616.13,129.09,609.07,123.26,602.01,117.43z"/>
</g>
<polygon class="st3" points="663.42,113.26 619.23,151.39 611.29,142.4 655.48,104.27 "/>
<polygon class="st3" points="663.12,134.26 641.03,153.32 630.63,141.55 652.73,122.48 "/>
<ellipse transform="matrix(0.7168 -0.6973 0.6973 0.7168 63.2461 537.6866)" class="st3" cx="693.55" cy="190.98" rx="59.28" ry="65.99"/>
<path class="st4" d="M638.13,193.78c0.65,1.76,1.35,3.51,2.11,5.26c15.26,34.87,48.82,54.07,74.95,42.89
	c26.13-11.18,34.95-48.5,19.69-83.37c-0.77-1.75-1.58-3.46-2.43-5.12L638.13,193.78z"/>
<g>
	<g>
		<path class="st2" d="M941.27,92.04l39.91-0.34c-1.43,8.03-2.86,16.06-4.29,24.1c-10.42,0.09-20.84,0.18-31.25,0.27
			C944.18,108.06,942.72,100.05,941.27,92.04z"/>
	</g>
	<rect x="931.53" y="114.19" class="st3" width="59.4" height="10.64"/>
	<rect x="946.86" y="124.82" class="st3" width="29.7" height="13.93"/>
	<ellipse class="st3" cx="961.54" cy="194.46" rx="60.36" ry="58.5"/>
	<path class="st5" d="M909.67,180.03c-0.12,1.66-0.18,3.34-0.18,5.04c0,33.86,23.38,61.31,52.21,61.31s52.21-27.45,52.21-61.31
		c0-1.7-0.06-3.38-0.18-5.04H909.67z"/>
</g>
<g>
	<path class="st2" d="M1273.58,170.31l0.57,39.12c-7.55-1.35-15.11-2.71-22.66-4.06c-0.15-10.21-0.3-20.42-0.45-30.63
		C1258.56,173.26,1266.07,171.79,1273.58,170.31z"/>
</g>
<rect x="1218.8" y="185.04" transform="matrix(6.389963e-03 1 -1 6.389963e-03 1429.9663 -1059.0636)" class="st3" width="58.23" height="9.99"/>
<rect x="1221.82" y="184.03" transform="matrix(6.389963e-03 1 -1 6.389963e-03 1419.0468 -1046.9908)" class="st3" width="29.11" height="13.08"/>
<ellipse transform="matrix(1 -7.309808e-03 7.309808e-03 1 -1.3632 8.6124)" class="st3" cx="1177.5" cy="190.79" rx="54.95" ry="59.16"/>
<path class="st6" d="M1132.2,179.22c-0.15,1.56-0.26,3.13-0.32,4.72c-1.06,31.75,18.83,58.18,44.43,59.01s47.22-24.23,48.28-55.98
	c0.05-1.59,0.05-3.17,0-4.73L1132.2,179.22z"/>
<g>
	<g>
		<path class="st2" d="M666.86,336.04l37.83-0.35c-1.35,8.29-2.71,16.59-4.06,24.88c-9.87,0.09-19.75,0.18-29.62,0.28
			C669.62,352.58,668.24,344.31,666.86,336.04z"/>
	</g>
	<rect x="657.63" y="358.91" class="st3" width="56.3" height="10.98"/>
	<rect x="672.16" y="369.89" class="st3" width="28.15" height="14.38"/>
	<ellipse class="st3" cx="686.08" cy="441.79" rx="57.21" ry="60.4"/>
	<path class="st7" d="M636.91,426.89c-0.11,1.72-0.17,3.45-0.17,5.21c0,34.96,22.16,63.3,49.49,63.3s49.49-28.34,49.49-63.3
		c0-1.75-0.06-3.49-0.17-5.21H636.91z"/>
</g>
<g>
	<path class="st2" d="M1315.75,355.13l28.1,24.51c-6.32,4.97-12.65,9.94-18.97,14.91c-7.34-6.4-14.67-12.8-22.01-19.2
		C1307.17,368.62,1311.46,361.88,1315.75,355.13z"/>
</g>
<polygon class="st3" points="1328.7,409.85 1287.21,373 1294.27,365.24 1335.75,402.09 "/>
<polygon class="st3" points="1309.43,411.09 1288.68,392.66 1297.92,382.51 1318.66,400.93 "/>
<ellipse transform="matrix(0.825 -0.5652 0.5652 0.825 -29.1432 790.723)" class="st3" cx="1262.01" cy="442.41" rx="57.74" ry="56.3"/>
<path class="st8" d="M1211.37,433.15c0.13,1.63,0.32,3.27,0.57,4.92c4.91,32.84,30.6,56.3,57.39,52.38
	c26.79-3.91,44.52-33.71,39.62-66.55c-0.25-1.65-0.55-3.27-0.9-4.87L1211.37,433.15z"/>
<g>
	<g>
		<path class="st2" d="M820.46,573.77l39.93-0.37c-1.43,8.81-2.86,17.63-4.29,26.44c-10.42,0.1-20.84,0.2-31.27,0.29
			C823.38,591.35,821.92,582.56,820.46,573.77z"/>
	</g>
	<rect x="810.72" y="598.07" class="st3" width="59.43" height="11.67"/>
	<rect x="826.05" y="609.75" class="st3" width="29.71" height="15.29"/>
	<ellipse class="st3" cx="840.75" cy="686.17" rx="60.38" ry="64.2"/>
	<path class="st9" d="M788.85,670.33c-0.12,1.83-0.18,3.67-0.18,5.53c0,37.16,23.39,67.28,52.24,67.28s52.24-30.12,52.24-67.28
		c0-1.86-0.06-3.71-0.18-5.53H788.85z"/>
</g>
<g>
	<g>
		<path class="st2" d="M1077.89,571.68l39.93-0.38c-1.43,8.87-2.86,17.73-4.29,26.6c-10.42,0.1-20.84,0.2-31.27,0.29
			C1080.81,589.36,1079.35,580.52,1077.89,571.68z"/>
	</g>
	<rect x="1068.14" y="596.12" class="st3" width="59.43" height="11.74"/>
	<rect x="1083.48" y="607.87" class="st3" width="29.71" height="15.38"/>
	<ellipse class="st3" cx="1098.18" cy="684.74" rx="60.38" ry="64.58"/>
	<path class="st10" d="M1046.27,668.81c-0.12,1.84-0.18,3.69-0.18,5.57c0,37.38,23.39,67.68,52.24,67.68s52.24-30.3,52.24-67.68
		c0-1.87-0.06-3.73-0.18-5.57H1046.27z"/>
</g>
<g>
	<path class="st2" d="M874.52,908.6l0.96,35.31c-7.36-1.13-14.71-2.26-22.07-3.39c-0.25-9.21-0.5-18.43-0.75-27.64
		C859.95,911.44,867.24,910.02,874.52,908.6z"/>
</g>
<rect x="823.5" y="921.85" transform="matrix(0.0185 0.9998 -0.9998 0.0185 1760.6259 59.9543)" class="st3" width="52.56" height="9.71"/>
<rect x="825.43" y="920.98" transform="matrix(0.0185 0.9998 -0.9998 0.0185 1750.2535 71.7727)" class="st3" width="26.28" height="12.72"/>
<ellipse transform="matrix(0.514 -0.8578 0.8578 0.514 -416.4935 1121.3354)" class="st3" cx="781.35" cy="928.23" rx="53.4" ry="53.42"/>
<path class="st11" d="M735.49,911.36c-0.24,1.49-0.44,2.99-0.58,4.52c-2.86,30.43,15.66,57.01,41.37,59.37
	c25.7,2.36,48.85-20.4,51.71-50.83c0.14-1.53,0.23-3.04,0.27-4.55L735.49,911.36z"/>
<g>
	<path class="st2" d="M1203.82,894.07l3.03,38.3c-8.89-0.91-17.78-1.82-26.67-2.73c-0.79-10-1.58-19.99-2.37-29.99
		C1186.48,897.79,1195.15,895.93,1203.82,894.07z"/>
</g>
<polygon class="st3" points="1171.23,943.63 1167.27,886.6 1178.92,885.99 1182.87,943.02 "/>
<polygon class="st3" points="1155.02,930.63 1153.04,902.12 1168.29,901.32 1170.27,929.83 "/>
<ellipse transform="matrix(0.0234 -0.9997 0.9997 0.0234 148.3162 1990.6597)" class="st3" cx="1093.01" cy="919.42" rx="58.05" ry="64.19"/>
<path class="st12" d="M1044.15,900.91c-0.39,1.51-0.73,3.05-1.02,4.61c-5.7,31.11,12.14,59.99,39.84,64.52
	c27.7,4.52,54.77-17.04,60.47-48.15c0.29-1.56,0.51-3.11,0.68-4.66L1044.15,900.91z"/>
</svg>
