<?xml version="1.0" encoding="utf-8"?>
<!-- Generator: Adobe Illustrator 23.0.5, SVG Export Plug-In . SVG Version: 6.00 Build 0)  -->
<svg version="1.1" xmlns="http://www.w3.org/2000/svg" xmlns:xlink="http://www.w3.org/1999/xlink" x="0px" y="0px"
	 viewBox="0 0 1920 1080" style="enable-background:new 0 0 1920 1080;" xml:space="preserve">
<style type="text/css">
	.st0{fill:#FFFFFF;}
	.st1{fill:#F2623A;stroke:#000000;stroke-width:6;stroke-miterlimit:10;}
	.st2{fill:#F2623A;}
	.st3{fill:#FDFDEE;}
	.st4{fill:#F8C041;}
	.st5{fill:#F1F0F1;}
	.st6{fill:#2E0334;}
	.st7{fill:none;stroke:#2E072F;stroke-width:7;stroke-miterlimit:10;}
	.st8{fill:#79D0CE;}
	.st9{fill:#2D0534;}
	.st10{fill:#FC8468;}
	.st11{fill:#FCFEED;}
	.st12{fill:#F4763F;}
	.st13{fill:#FBFDEC;}
	.st14{fill:#FCFFE5;}
	.st15{fill:#2E072F;}
	.st16{fill:#3E0B3C;}
	.st17{fill:#EACA96;}
	.st18{fill:#FF0031;}
	.st19{font-family:'BerlinSansFBDemi-Bold';}
	.st20{font-size:176.3158px;}
	.st21{letter-spacing:8.54;}
	.st22{font-size:72px;}
</style>
<g id="圖層_1">
</g>
<g id="圖層_2">
	<g>
		<rect x="665" y="262" class="st0" width="589" height="424"/>
		<g>
			<path class="st1" d="M1084.58,699.19c3.04,1.05,7.67,2.86,12.81,5.82c8.31,4.8,9.87,7.96,15.5,8.73c6.61,0.9,9.2-2.82,13.48-1.16
				c5.27,2.03,3.44,8.44,7.41,13.38c7.72,9.61,34.39,9.36,52.57,0c13.08-6.73,19.42-16.97,22.24-22.69
				c4.07-30.75,8.55-102.84-37.07-178.65c-25.73-42.75-58.46-71.86-82.22-89.61c-2.6,14.92-4.87,30.25-6.74,45.97
				C1073.07,560.7,1075.75,634.13,1084.58,699.19z"/>
			<path class="st1" d="M839.74,705.59c-3.04,1.05-7.67,2.86-12.81,5.82c-8.31,4.8-9.87,7.96-15.5,8.73
				c-6.61,0.9-9.2-2.82-13.48-1.16c-5.27,2.03-3.44,8.44-7.41,13.38c-7.72,9.61-34.39,9.36-52.57,0
				c-13.08-6.73-19.42-16.97-22.24-22.69c-4.07-30.75-8.55-102.84,37.07-178.65c25.73-42.75,58.46-71.86,82.22-89.61
				c2.6,14.92,4.87,30.25,6.74,45.97C851.24,567.1,848.57,640.53,839.74,705.59z"/>
			<rect x="833.67" y="444.9" class="st2" width="257.46" height="299.1"/>
			<g>
				<path class="st3" d="M863.88,388.26c-7.76-1.07-15.71-1.06-23.47,0.01c-5.29,0.73-10.75,2.08-14.54,5.36
					c-7.44,6.43-3.87,19.32,6.13,22.15c-6.23,4.25-13.1,9.7-12.34,16.52c0.86,7.71,11.12,11.96,20.08,12.3
					c-5.27,4.93-5.49,13.29-0.48,18.42c5.01,5.13,14.59,6.36,21.11,2.71c-3.32,7.64,0.7,17.13,8.95,21.12
					c8.25,3.99,19.72,1.98,25.52-4.46c-2.15,7.41,4.38,15.44,12.92,17.4c8.55,1.96,17.99-1.41,23.73-7.23
					c3.31,10.11,17.65,16.32,29.01,12.56c1.9-0.63,3.91-1.5,5.85-0.99c1.24,0.32,2.19,1.14,3.24,1.79
					c4.64,2.87,11.35,2.2,16.03-0.61s7.59-7.37,9.41-12.04c7.18,5.05,17.05,7.11,26.1,5.46c4.89-0.89,9.63-2.89,12.82-6.21
					c3.19-3.32,4.58-8.07,2.82-12.1c5.87,2.34,12.06,4.4,18.53,4.6s13.31-1.74,17.27-6.16s4.06-11.49-0.76-15.21
					c6.45-0.09,13.4-1.04,17.94-4.99c4.55-3.95,4.87-11.7-0.77-14.4c8.26-1.63,18.08-4.6,19.65-11.78
					c1.34-6.13-4.49-11.75-10.73-14.9c4.89-6.45,15.08-11.31,13.77-18.93c-1.19-6.93-11.01-9.55-19.05-10.48
					c-76.96-8.94-154.96,0.64-232.56,3.28c-0.45-0.87-0.91-1.75-1.36-2.62"/>
			</g>
			<path class="st4" d="M1071.59,415.8c-4.92,37.21-61.83,61.86-107.84,62.26c-46.03,0.41-105.24-23.23-110.53-62.26
				c-5.56-40.96,50.6-81.45,104.47-83.21C1016.24,330.67,1077.06,374.35,1071.59,415.8z"/>
			<path class="st5" d="M918.06,403c-1.83,0.14-10.44,0.63-16.77-4.07c-7.23-5.37-8.57-15.38-2.19-23.86
				c11.66,4.27,23.33,8.53,34.99,12.8C928.75,392.91,923.4,397.96,918.06,403z"/>
			<ellipse class="st6" cx="914.21" cy="386.41" rx="6.4" ry="5.53"/>
			<path class="st5" d="M1006.63,403c1.89,0.14,10.8,0.63,17.35-4.07c7.47-5.37,8.87-15.38,2.26-23.86
				c-12.07,4.27-24.13,8.53-36.2,12.8C995.57,392.91,1001.1,397.96,1006.63,403z"/>
			<ellipse class="st6" cx="1009.92" cy="387" rx="6.4" ry="5.53"/>
			<g>
				<path class="st7" d="M884.22,395.43c-0.26,2.41-0.71,9.87,4.72,17.46c5.03,7.04,12.18,10.07,14.83,11.06"/>
				<path class="st7" d="M872.43,380.6c-1.49,2.7-10.49,19.72-1.35,38.99c8.58,18.08,26.87,24.95,30.33,26.19"/>
			</g>
			<g>
				<path class="st7" d="M1043.61,395.43c0.26,2.41,0.71,9.87-4.72,17.46c-5.03,7.04-12.18,10.07-14.83,11.06"/>
				<path class="st7" d="M1055.41,380.6c1.49,2.7,10.49,19.72,1.35,38.99c-8.58,18.08-26.87,24.95-30.33,26.19"/>
			</g>
			<path class="st8" d="M1009.58,476.72c-11.41,2.48-26.3,4.72-43.81,4.83c-18.74,0.12-34.6-2.25-46.5-4.83
				c-6.4-5.57-10.01-11.13-12.13-15.7c-10.34-22.23,0.23-51.11,24.94-74.89c19.99,0,39.99,0,59.98,0
				c4.48,4.44,38.6,39.27,26.28,74.89C1016.72,465.7,1014.06,471.09,1009.58,476.72z"/>
			<path class="st9" d="M992.06,411.3c-4.12,10.35-14.56,17.44-26.28,17.88c-12.81,0.49-24.72-7.04-28.98-18.5
				c0-7.61,0-15.21,0-22.82c18.2,0,36.39,0,54.59,0C991.61,395.68,991.83,403.49,992.06,411.3z"/>
			<ellipse class="st10" cx="963.08" cy="393.69" rx="23.59" ry="7.56"/>
			<line class="st7" x1="964.76" y1="430.93" x2="964.76" y2="446.06"/>
			<path class="st7" d="M943.53,448.97c6.37-0.98,14.11-1.75,22.92-1.75c6.47,0,14.25,0.41,22.92,1.75"/>
			<ellipse class="st11" cx="935.44" cy="447.81" rx="8.09" ry="12.8"/>
			<ellipse class="st11" cx="994.08" cy="448.97" rx="7.41" ry="12.8"/>
			<path class="st7" d="M920.28,357.9c6.81-3.35,22.77-10.16,44.48-9.89c21.04,0.26,36.38,7.03,43.13,10.47"/>
			<path class="st7" d="M935.11,372.45c4.21-2.17,15.34-7.23,30.33-6.4c11.16,0.62,19.4,4.23,23.59,6.4"/>
			<path class="st7" d="M892.31,372.16c12.16,5.41,36.76,14.56,69.42,14.55c36.56-0.01,63.49-11.51,75.48-17.46"/>
			<path class="st12" d="M1076.98,345.97c-0.38,11.61-10.49,21.71-24.26,23.86c-12.13-8.15-24.26-16.29-36.39-24.44
				c3.55-16.83,21.29-27.13,37.07-24.44C1065.61,323.03,1077.4,333.04,1076.98,345.97z"/>
			<path class="st13" d="M1057.43,346.12c-0.17,5.31-4.66,9.93-10.78,10.91c-5.39-3.72-10.78-7.45-16.17-11.17
				c1.58-7.69,9.46-12.4,16.47-11.17C1052.37,335.64,1057.62,340.21,1057.43,346.12z"/>
			<path class="st12" d="M852.56,344.23c0.38,11.61,10.49,21.71,24.26,23.86c12.13-8.15,24.26-16.29,36.39-24.44
				c-3.55-16.83-21.29-27.13-37.07-24.44C863.93,321.29,852.13,331.29,852.56,344.23z"/>
			<path class="st13" d="M872.11,344.38c0.17,5.31,4.66,9.93,10.78,10.91c5.39-3.72,10.78-7.45,16.17-11.17
				c-1.58-7.69-9.46-12.4-16.47-11.17C877.16,333.89,871.92,338.46,872.11,344.38z"/>
			<path class="st14" d="M1113.37,319.79c11.42,17.32,3.76,40.04-11.46,52.95c-13.75,11.67-31.1,13.13-37.07,13.38
				c-4.04-5.43-8.09-10.86-12.13-16.29c3.6-0.81,23.79-5.68,35.05-23.28c13.46-21.03,2.53-42.06,1.35-44.23
				C1094.22,304.06,1106.16,308.85,1113.37,319.79z"/>
			<path class="st14" d="M814.22,317.46c-11.42,17.32-3.76,40.04,11.46,52.95c13.75,11.67,31.1,13.13,37.07,13.38
				c4.04-5.43,8.09-10.86,12.13-16.29c-3.6-0.81-23.79-5.68-35.05-23.28c-13.46-21.03-2.53-42.06-1.35-44.23
				C833.37,301.73,821.43,306.52,814.22,317.46z"/>
			<line class="st7" x1="834.35" y1="507.74" x2="835.02" y2="709.09"/>
			<g>
				<g>
					<path class="st15" d="M765.81,722.38c-1.05,4.56,0.5,9.19,3.7,12.55c3.36,3.54,8.29,5.19,13.11,4.58
						c5.19-0.65,9.81-3.51,12.96-7.65c3.31-4.35,4.36-9.96,4.43-15.31c0.08-6.41-1.38-12.93-0.16-19.29c0.3-1.59-0.44-3.24-2.1-3.69
						c-1.47-0.4-3.39,0.5-3.69,2.1c-1.01,5.27-0.55,10.51-0.21,15.82c0.29,4.54,0.4,9.23-1.25,13.55c-1.33,3.47-4.03,6.28-7.49,7.72
						c-3.33,1.38-6.87,1.21-9.77-0.7c-0.59-0.39-1.27-1.01-1.91-1.72c-0.43-0.48-0.92-1.26-1.33-2.09c-0.58-1.2-0.78-3.01-0.49-4.25
						c0.36-1.58-0.49-3.25-2.1-3.69C767.99,719.87,766.18,720.8,765.81,722.38L765.81,722.38z"/>
				</g>
			</g>
			<g>
				<g>
					<path class="st15" d="M738.79,724.3c0.97,7.71,6.83,13.17,13.79,15.95c7.95,3.18,17.23,2.29,25.23-0.21
						c3.67-1.15,2.1-6.94-1.6-5.79c-6.75,2.11-14.16,2.95-20.96,0.61c-2.62-0.9-5.08-2.4-7.03-4.34c-0.98-0.98-1.6-1.76-2.28-2.99
						c-0.38-0.68-0.46-0.83-0.67-1.43c-0.13-0.37-0.24-0.74-0.33-1.12c-0.03-0.11-0.2-1.04-0.16-0.68c-0.2-1.61-1.23-3-3-3
						C740.33,721.3,738.59,722.68,738.79,724.3L738.79,724.3z"/>
				</g>
			</g>
			<g>
				<g>
					<path class="st15" d="M1156.76,718.16c0.05,0.2,0.1,0.41,0.13,0.61c-0.07-0.45,0,0.06,0,0.13c0.02,0.42,0.02,0.83,0,1.24
						c0,0.07-0.07,0.58,0,0.13c-0.03,0.21-0.08,0.41-0.12,0.61c-0.1,0.41-0.22,0.81-0.36,1.21c-0.22,0.58-0.12,0.29-0.06,0.17
						c-0.09,0.19-0.19,0.39-0.29,0.57c-0.2,0.38-0.43,0.75-0.67,1.11c-0.27,0.4-0.99,1.19-1.61,1.73c-0.43,0.38-1.04,0.78-1.75,1.16
						c-0.7,0.37-1.42,0.62-2.37,0.83c-1.6,0.35-3.58,0.17-5.32-0.37c-3.47-1.08-6.34-3.64-7.97-6.82
						c-2.03-3.96-2.13-8.63-1.93-12.98c0.27-5.93,1.01-11.76-0.11-17.66c-0.3-1.59-2.22-2.5-3.69-2.1c-1.67,0.46-2.4,2.09-2.1,3.69
						c1.08,5.65,0.02,11.45-0.14,17.14c-0.16,5.47,0.48,11.24,3.39,16c5.33,8.73,17.53,12.43,25.86,5.66
						c4.01-3.26,6.09-8.6,4.92-13.68c-0.36-1.58-2.18-2.51-3.69-2.1C1157.23,714.91,1156.39,716.57,1156.76,718.16L1156.76,718.16z"
						/>
				</g>
			</g>
			<g>
				<g>
					<path class="st15" d="M1183.57,718.48c0.05-0.43-0.1,0.44-0.12,0.52c-0.09,0.38-0.19,0.75-0.32,1.13
						c-0.23,0.7-0.29,0.8-0.64,1.44c-0.7,1.29-1.35,2.13-2.36,3.13c-1.94,1.94-4.41,3.44-7.03,4.34c-6.81,2.34-14.22,1.5-20.96-0.61
						c-3.69-1.16-5.27,4.63-1.59,5.79c8,2.51,17.28,3.39,25.23,0.21c6.96-2.78,12.82-8.25,13.79-15.95c0.2-1.61-1.52-3-3-3
						C1184.78,715.48,1183.77,716.86,1183.57,718.48L1183.57,718.48z"/>
				</g>
			</g>
			<g>
				<g>
					<path class="st15" d="M799.31,722.82c6.33,1.85,13.07,0.67,18.95-2.08c5.78-2.7,10.56-7.11,15.17-11.43
						c2.82-2.64-1.42-6.88-4.24-4.24c-7.52,7.04-17.15,15.23-28.28,11.96C797.2,715.95,795.61,721.74,799.31,722.82L799.31,722.82z"
						/>
				</g>
			</g>
			<path class="st16" d="M789.12,569.22l-42.96-21.41l10.78-16.13l42.96,21.41c1.91,3.51,1.22,8.13-1.7,11.57
				C794.68,568.84,789.64,569.2,789.12,569.22z"/>
			<path class="st16" d="M805.41,531.34l-37-18.45l10.78-16.13l37,18.45c1.47,3.29,0.52,7.79-2.33,11.26
				C810.41,530.69,805.88,531.29,805.41,531.34z"/>
			<path class="st16" d="M816.49,495.96l-23.7-16.68l10.41-11.02l23.7,16.68c0.52,2.55-0.89,5.8-3.51,8.13
				C820.21,495.89,816.84,495.96,816.49,495.96z"/>
			<path class="st16" d="M781.68,606.24l-53.36-18.97l8.21-17.22l53.36,18.97c2.99,3.46,3.32,8.23,0.89,11.95
				C787.82,605.47,782.26,606.17,781.68,606.24z"/>
			<path class="st16" d="M769.55,645.22l-53.36-18.97l8.21-17.22l53.36,18.97c2.99,3.46,3.32,8.23,0.89,11.95
				C775.69,644.46,770.13,645.16,769.55,645.22z"/>
			<path class="st16" d="M752.33,673.46l-37.65,0.49l-0.32-18.62l37.65-0.49c2.84,2.18,4.49,6.46,4.16,10.7
				C755.77,670.69,752.66,673.21,752.33,673.46z"/>
			<line class="st7" x1="1089.97" y1="501.34" x2="1089.29" y2="702.68"/>
			<path class="st16" d="M1135.19,562.82l42.96-21.41l-10.78-16.13l-42.96,21.41c-1.91,3.51-1.22,8.13,1.7,11.57
				C1129.64,562.44,1134.67,562.8,1135.19,562.82z"/>
			<path class="st16" d="M1118.9,524.94l37-18.45l-10.78-16.13l-37,18.45c-1.47,3.29-0.52,7.79,2.33,11.26
				C1113.9,524.29,1118.44,524.89,1118.9,524.94z"/>
			<path class="st16" d="M1107.82,489.56l23.7-16.68l-10.41-11.02l-23.7,16.68c-0.52,2.55,0.89,5.8,3.51,8.13
				C1104.11,489.49,1107.48,489.56,1107.82,489.56z"/>
			<path class="st16" d="M1142.63,599.83l53.36-18.97l-8.21-17.22l-53.36,18.97c-2.99,3.46-3.32,8.23-0.89,11.95
				C1136.5,599.07,1142.06,599.77,1142.63,599.83z"/>
			<path class="st16" d="M1154.77,638.82l53.36-18.97l-8.21-17.22l-53.36,18.97c-2.99,3.46-3.32,8.23-0.89,11.95
				C1148.63,638.06,1154.19,638.76,1154.77,638.82z"/>
			<path class="st16" d="M1171.98,667.06l37.65,0.49l0.32-18.62l-37.65-0.49c-2.84,2.18-4.49,6.46-4.16,10.7
				C1168.55,664.29,1171.66,666.8,1171.98,667.06z"/>
			<ellipse class="st8" cx="961.05" cy="614.82" rx="95.03" ry="94.27"/>
		</g>
		<g>
			<path class="st17" d="M554,60v968h812V60H554z M1254.5,684h-589V260h589V684z"/>
		</g>
		<text transform="matrix(0.7025 0 0 1 677.8135 223.9277)"><tspan x="0" y="0" class="st18 st19 st20 st21">DANGER</tspan><tspan x="769.44" y="0" class="st18 st19 st20">!</tspan></text>
		<text transform="matrix(0.9253 0 0 1 672.4644 798.5342)"><tspan x="0" y="0" class="st19 st22">There are monsters </tspan><tspan x="0" y="86.4" class="st19 st22">in the forest.</tspan></text>
	</g>
</g>
</svg>
