<?xml version="1.0" encoding="utf-8"?>
<!-- Generator: Adobe Illustrator 23.0.5, SVG Export Plug-In . SVG Version: 6.00 Build 0)  -->
<svg version="1.1" xmlns="http://www.w3.org/2000/svg" xmlns:xlink="http://www.w3.org/1999/xlink" x="0px" y="0px"
	 viewBox="0 0 1920 1080" style="enable-background:new 0 0 1920 1080;" xml:space="preserve">
<style type="text/css">
	.st0{fill:url(#SVGID_1_);}
	.st1{fill:#FDFDFE;}
	.st2{fill:#ACC05F;}
	.st3{fill:#498D54;}
	.st4{fill:#D3702C;}
	.st5{fill:#AA825B;}
	.st6{fill:#C99B69;}
	.st7{fill:#753834;}
	.st8{fill:#992726;}
	.st9{fill:#A9574D;}
	.st10{fill:#86C5E0;}
	.st11{fill:#F4FF64;}
	.st12{fill:#602C2B;}
	.st13{fill:#248E5D;}
</style>
<g id="圖層_1">
</g>
<g id="圖層_2">
	<g>
		<linearGradient id="SVGID_1_" gradientUnits="userSpaceOnUse" x1="958.8442" y1="986.0736" x2="964.6346" y2="-935.9177">
			<stop  offset="0" style="stop-color:#A8DCF6"/>
			<stop  offset="0.9955" style="stop-color:#8ED0F0"/>
		</linearGradient>
		<rect class="st0" width="1922" height="541"/>
		<g>
			<path class="st1" d="M412.61,102.4c6.09-17.38,19.8-30.91,35.6-35.15s33.26,0.93,45.35,13.43c0.82,0.85,1.71,1.77,2.81,1.86
				c0.79,0.06,1.54-0.33,2.26-0.71c15.49-8.08,32.69-11.72,49.65-10.51c7.5,0.53,15.19,2.11,21.49,6.84
				c6.98,5.25,11.72,14.31,12.49,23.9s-2.45,19.5-8.49,26.14c7.66,4.97,15.79,10.52,19.41,19.78c3.96,10.14,1.16,22.68-5.28,30.95
				c-6.44,8.27-15.91,12.71-25.42,14.4c-17.84,3.18-36.74-2.83-50.68-16.08c-1.23-1.17-2.59-2.46-4.18-2.38
				c-1.72,0.09-3.03,1.75-4.17,3.24c-13.03,16.99-32.09,27.61-51.7,28.81c-12.81,0.78-27.42-3.72-33.31-16.89
				c-0.74-1.66-1.42-3.54-2.86-4.39c-1.28-0.77-2.82-0.5-4.24-0.21c-7.7,1.59-15.44,3.38-23.26,3.31
				c-12.13-0.11-24.2-4.88-33.86-13.36c-8.15-7.16-14.9-18.18-13.83-29.95c0.39-4.27,1.79-8.35,3.66-12.06
				c6.42-12.73,18.2-20.91,30.51-24.73c12.31-3.82,25.24-3.76,37.98-3.33"/>
		</g>
		<g>
			<path class="st1" d="M800.61,212.4c6.09-17.38,19.8-30.91,35.6-35.15s33.26,0.93,45.35,13.43c0.82,0.85,1.71,1.77,2.81,1.86
				c0.79,0.06,1.54-0.33,2.26-0.71c15.49-8.08,32.69-11.72,49.65-10.51c7.5,0.53,15.19,2.11,21.49,6.84
				c6.98,5.25,11.72,14.31,12.49,23.9s-2.45,19.5-8.49,26.14c7.66,4.97,15.79,10.52,19.41,19.78c3.96,10.14,1.16,22.68-5.28,30.95
				c-6.44,8.27-15.91,12.71-25.42,14.4c-17.84,3.18-36.74-2.83-50.68-16.08c-1.23-1.17-2.59-2.46-4.18-2.38
				c-1.72,0.09-3.03,1.75-4.17,3.24c-13.03,16.99-32.09,27.61-51.7,28.81c-12.81,0.78-27.42-3.72-33.31-16.89
				c-0.74-1.66-1.42-3.54-2.86-4.39c-1.28-0.77-2.82-0.5-4.24-0.21c-7.7,1.59-15.44,3.38-23.26,3.31
				c-12.13-0.11-24.2-4.88-33.86-13.36c-8.15-7.16-14.9-18.18-13.83-29.95c0.39-4.27,1.79-8.35,3.66-12.06
				c6.42-12.73,18.2-20.91,30.51-24.73c12.31-3.82,25.24-3.76,37.98-3.33"/>
		</g>
		<g>
			<path class="st1" d="M1407.61,118.4c6.09-17.38,19.8-30.91,35.6-35.15c15.8-4.24,33.26,0.93,45.35,13.43
				c0.82,0.85,1.71,1.77,2.81,1.86c0.79,0.06,1.54-0.33,2.26-0.71c15.49-8.08,32.69-11.72,49.65-10.51
				c7.5,0.53,15.19,2.11,21.49,6.84c6.98,5.25,11.72,14.31,12.49,23.9s-2.45,19.5-8.49,26.14c7.66,4.97,15.79,10.52,19.41,19.78
				c3.96,10.14,1.16,22.68-5.28,30.95s-15.91,12.71-25.42,14.4c-17.83,3.18-36.74-2.83-50.68-16.08c-1.23-1.17-2.59-2.46-4.18-2.38
				c-1.72,0.09-3.03,1.75-4.17,3.24c-13.03,16.99-32.09,27.61-51.7,28.81c-12.81,0.78-27.42-3.72-33.31-16.89
				c-0.74-1.66-1.42-3.54-2.86-4.39c-1.28-0.77-2.82-0.5-4.24-0.21c-7.7,1.59-15.44,3.38-23.26,3.31
				c-12.13-0.11-24.2-4.88-33.86-13.36c-8.15-7.16-14.9-18.18-13.83-29.95c0.39-4.27,1.79-8.35,3.66-12.06
				c6.42-12.73,18.2-20.91,30.51-24.73c12.31-3.82,25.24-3.76,37.98-3.33"/>
		</g>
		<path class="st2" d="M1922,1081H2V531c287.6-34.27,612.66-57.4,969-57c349.16,0.39,668.1,23.29,951,57
			C1922,714.33,1922,897.67,1922,1081z"/>
		<path class="st3" d="M840.05,111.6c-53.64,45.18-119.55,70.81-299.04,79.11c-86.52,4-203.59,4.17-343.01-11.3
			c1.26-59.8,2.51-119.61,3.77-179.41H928C912.06,30.32,884.6,74.07,840.05,111.6z"/>
		<path class="st4" d="M398.13,565c-26.83-118.14-40.24-177.22-56.28-266c-5.77-31.94-10.98-62.4-15.68-91.19
			c84.28-13.66,181.68-32.51,285.25-58.81C721.45,121.06,811.69,91.53,883,65c-25.44-4.67-50.88-9.33-76.31-14
			c-64.73,15.04-140.43,30.36-226.69,44c-96.78,15.3-186.89,25.31-266.41,31.95C306.16,76.78,300.56,33.96,296.39,0
			C198.26,0,100.13,0,2,0c0,360,0,720,0,1080h658.04c-43.12-39.21-103.9-100.53-153.69-179C469.12,842.32,449.81,792.6,398.13,565z"
			/>
		<path class="st4" d="M1666,313c-19.03-6.13-54.97-20.54-88-54c-26.34-26.68-40.04-54.52-47-72c8.33-6,16.67-12,25-18
			c8.07,11.65,28.23,37.2,64,51c18.47,7.13,35.19,8.84,47,9C1666.67,257,1666.33,285,1666,313z"/>
		<path class="st4" d="M1922,258c-37.92,29.67-75.84,59.33-113.76,89c-5.75-27-11.49-54-17.24-81c43.67-24.67,87.33-49.33,131-74
			C1922,214,1922,236,1922,258z"/>
		<g>
			<path class="st5" d="M1323.27,821.45c-53.87,21.52-107.74,43.03-161.61,64.55V578.6c52.94-17.82,105.88-35.65,158.82-53.47
				C1321.41,623.9,1322.34,722.68,1323.27,821.45z"/>
			<path class="st6" d="M1128.23,886h-490.4V504.59c85.45-79.22,170.9-158.43,256.35-237.65
				c78.02,79.22,156.04,158.43,234.06,237.65C1128.23,631.73,1128.23,758.86,1128.23,886z"/>
			<rect x="621.1" y="492.85" class="st7" width="33.44" height="393.15"/>
			<rect x="1128.23" y="516.33" class="st7" width="33.44" height="369.67"/>
			<path class="st8" d="M894.17,266.94c-100.31,95.84-200.62,191.68-300.93,287.52c-13.22,7.69-28.55,2.18-33.44-8.8
				c-4.06-9.13,2.82-21.64,5.57-26.41C588.92,478.6,803.82,269.75,855.16,220C868.16,235.65,881.17,251.3,894.17,266.94z"/>
			<path class="st8" d="M1158.88,583.81C1057.64,462.54,956.4,341.27,855.16,220c91.95,0.98,183.9,1.96,275.85,2.93
				c82.66,93.89,165.33,187.77,247.99,281.66C1305.63,531,1232.25,557.4,1158.88,583.81z"/>
			<path class="st9" d="M1013.83,531c-3.24-78.44-56.19-140.83-121.05-140.83S774.96,452.55,771.73,531H1013.83z"/>
			<path class="st10" d="M991.69,510.46c-2.68-55.56-46.53-99.75-100.23-99.75c-53.7,0-97.55,44.19-100.23,99.75H991.69z"/>
			<path class="st9" d="M958.26,886H832.87V633.68c8.1-5.87,30.08-20.12,61.3-20.54c32.89-0.44,56.1,14.76,64.09,20.54
				C958.26,717.79,958.26,801.89,958.26,886z"/>
			<ellipse class="st11" cx="860.73" cy="762.78" rx="13.93" ry="14.67"/>
			<rect x="660.11" y="607.28" class="st9" width="150.46" height="176.04"/>
			<rect x="686.58" y="636.62" class="st10" width="97.52" height="117.36"/>
			<rect x="682.4" y="689.43" class="st9" width="105.88" height="23.47"/>
			<rect x="721.41" y="633.68" class="st9" width="25.08" height="126.16"/>
			<rect x="972.19" y="604.34" class="st9" width="150.46" height="176.04"/>
			<rect x="998.66" y="633.68" class="st10" width="97.52" height="117.36"/>
			<rect x="994.48" y="686.49" class="st9" width="105.88" height="23.47"/>
			<rect x="1033.49" y="630.75" class="st9" width="25.08" height="126.16"/>
			<path class="st12" d="M1181.17,877.2c-6.5,2.93-13,5.87-19.5,8.8c-0.93-100.73-1.86-201.46-2.79-302.19
				c6.5-1.96,13-3.91,19.5-5.87C1179.31,677.69,1180.24,777.44,1181.17,877.2z"/>
		</g>
		<g>
			<path class="st13" d="M146.32,1001.6c-4.8,10.78,1.46,25.25,12.79,28.84c-8.27,5.85-17.53,16.11-11.93,24.54
				c2.12,3.19,5.85,4.86,9.38,6.32c10.26,4.25,20.64,8.21,31.11,11.88c-3.36,1.33-5.33,4.34-6.01,7.81h258.77
				c2.68-2.23,5.62-4.49,9.08-4.63c4.03-0.16,7.38,2.57,10.95,4.63h15.88c5.34-3.07,9.24-8.84,8.58-15.04
				c8.14,4.69,19.11-3.1,20.42-12.4c1.32-9.3-4.14-18.28-10.74-24.97c9.12-1.88,13.89-13.15,11.43-22.13s-10.11-15.62-18.25-20.15
				c9.18-5.55,13.68-17.78,10.29-27.96c-3.39-10.17-14.34-17.26-25.01-16.19c8.92-9.54,2.77-26.48-8.57-32.97
				s-25.29-5.57-38.29-4.32c2.78-8.69-1.69-18.55-8.97-24.06c-7.28-5.51-16.76-7.31-25.89-7.35c-14.73-0.06-29.45,4.13-41.93,11.93
				c0.42-8.66-5.91-16.68-13.86-20.17s-17.1-3.1-25.54-1.07c-17.59,4.23-33.36,15.58-42.97,30.91c-12.91-8.88-31.31-8.89-44.23-0.02
				c-12.92,8.87-19.52,26.05-15.86,41.29c-17.79-9.84-43.61,5.31-43.69,25.64c-0.01,3.34,0.46,6.99-1.41,9.75
				c-2.95,4.36-9.54,3.71-14.2,6.16c-7.96,4.17-7.69,16.6-1.72,23.32C146.07,1001.35,146.2,1001.47,146.32,1001.6z"/>
		</g>
		<path class="st4" d="M1922,949.23c-16.63-28.1-33.37-60.65-47.89-97.23c-41.8-105.34-41.15-183.49-43.06-361
			c-0.71-66.46-2.18-183.51-5.38-339c-95.54,2-191.08,4-286.62,6c-2.87,132.7-9.65,244.56-16.15,329
			c-14.98,194.66-29.42,256.07-51.13,315c-35.12,95.3-83.76,169.15-119.76,217c57.06,19.66,145.31,43.68,257.02,50
			c131.74,7.46,240.73-12.82,312.98-32.33V949.23z"/>
		<g>
			<path class="st13" d="M1922,1081V882.81c-0.88-0.7-1.81-1.37-2.78-1.98c-8.83-5.51-20.32-7.31-31.4-7.35
				c-17.86-0.06-35.71,4.13-50.85,11.93c0.51-8.66-7.17-16.68-16.8-20.17s-20.74-3.1-30.97-1.07
				c-21.33,4.23-40.46,15.58-52.11,30.91c-11.23-6.37-25.87-8.15-39.03-5.39c-8.8-5.4-20.19-7.17-31.16-7.21
				c-17.86-0.06-35.71,4.13-50.85,11.93c0.51-8.66-7.17-16.68-16.8-20.17s-20.74-3.1-30.97-1.07
				c-21.33,4.23-40.46,15.58-52.11,30.91c-15.66-8.88-37.97-8.89-53.63-0.02s-23.67,26.05-19.23,41.29
				c-21.58-9.84-52.88,5.31-52.98,25.64c-0.02,3.34,0.56,6.99-1.71,9.75c-3.58,4.36-11.57,3.71-17.22,6.16
				c-9.65,4.17-9.33,16.6-2.09,23.32c0.14,0.13,0.3,0.25,0.44,0.38c-5.82,10.78,1.77,25.25,15.51,28.84
				c-10.02,5.85-21.25,16.11-14.47,24.54c2.57,3.19,7.09,4.86,11.38,6.32c11.12,3.8,22.36,7.35,33.69,10.69H1922z"/>
		</g>
		<g>
			<path class="st13" d="M1922,0h-651.29c-6.77,13.75-12.52,28.19-11.65,43.32c1.56,26.86,24.28,48.6,49.47,58.06
				c25.19,9.46,52.77,9.32,79.66,10.33c5.32,0.2,11.1,0.63,15.04,4.2c3.22,2.91,4.52,7.31,6.13,11.35
				c13.91,34.98,54.97,49.42,91.68,57.75c69.61,15.8,140.87,24.32,212.25,25.39c29.27,0.44,59.71-0.65,85.81-13.91
				c5.61-2.85,11.03-6.27,17.12-7.86c9.27-2.42,19.04-0.37,28.4,1.68c21.68,4.75,45.43,9.28,65.18-0.84
				c4.56-2.33,8.6-5.3,12.21-8.73V0z"/>
		</g>
	</g>
</g>
</svg>
