<?xml version="1.0" encoding="utf-8"?>
<!-- Generator: Adobe Illustrator 23.0.5, SVG Export Plug-In . SVG Version: 6.00 Build 0)  -->
<svg version="1.1" xmlns="http://www.w3.org/2000/svg" xmlns:xlink="http://www.w3.org/1999/xlink" x="0px" y="0px"
	 viewBox="0 0 1920 1080" style="enable-background:new 0 0 1920 1080;" xml:space="preserve">
<style type="text/css">
	.st0{fill:#CCC9C2;}
	.st1{fill:#7A6C58;}
	.st2{fill:#9B5D39;}
	.st3{fill:#D4B474;}
	.st4{fill:#42403E;}
	.st5{fill:#FEF8ED;}
	.st6{opacity:0.24;fill:#FEF8ED;}
	.st7{fill:#F3F74F;}
	.st8{font-family:'irohamaru-Medium';}
	.st9{font-size:55.0244px;}
	.st10{fill:#3A3838;}
	.st11{fill:#FCE900;}
	.st12{fill:#562E03;}
</style>
<g id="圖層_1">
</g>
<g id="圖層_2">
	<g>
		<rect class="st0" width="1920" height="895"/>
		<rect y="895" class="st1" width="1920" height="185"/>
		<g>
			<g>
				<rect x="261.44" y="49" class="st2" width="1396.56" height="752"/>
				<rect x="292.58" y="85.68" class="st3" width="1334.28" height="678.63"/>
				<g>
					<ellipse class="st4" cx="421.3" cy="69.51" rx="45.22" ry="14.14"/>
					<ellipse class="st5" cx="421.68" cy="69.89" rx="33.34" ry="7.64"/>
					<path class="st6" d="M493.35,171.53c-48.03,0-96.07,0-144.1,0c13.03-33.88,26.06-67.76,39.09-101.64c22.23,0,44.46,0,66.69,0
						C467.8,103.77,480.58,137.65,493.35,171.53z"/>
				</g>
				<g>
					<ellipse class="st4" cx="778.23" cy="68.23" rx="45.22" ry="14.14"/>
					<ellipse class="st5" cx="778.62" cy="68.62" rx="33.34" ry="7.64"/>
					<path class="st6" d="M850.28,170.26c-48.03,0-96.07,0-144.1,0c13.03-33.88,26.06-67.76,39.09-101.64c22.23,0,44.46,0,66.69,0
						C824.73,102.5,837.51,136.38,850.28,170.26z"/>
				</g>
				<g>
					<ellipse class="st4" cx="1135.17" cy="66.2" rx="45.22" ry="14.14"/>
					<ellipse class="st5" cx="1135.55" cy="66.58" rx="33.34" ry="7.64"/>
					<path class="st6" d="M1207.22,168.22c-48.03,0-96.07,0-144.1,0c13.03-33.88,26.06-67.76,39.09-101.64c22.23,0,44.46,0,66.69,0
						C1181.67,100.46,1194.44,134.34,1207.22,168.22z"/>
				</g>
				<g>
					<ellipse class="st4" cx="1492.1" cy="66.96" rx="45.22" ry="14.14"/>
					<ellipse class="st5" cx="1492.48" cy="67.34" rx="33.34" ry="7.64"/>
					<path class="st6" d="M1564.15,168.98c-48.03,0-96.07,0-144.1,0c13.03-33.88,26.06-67.76,39.09-101.64c22.23,0,44.46,0,66.69,0
						C1538.6,101.22,1551.38,135.1,1564.15,168.98z"/>
				</g>
			</g>
			<g>
				<text transform="matrix(1.003 0 0 1 875.835 159.0068)" class="st7 st8 st9">榮譽牆</text>
			</g>
		</g>
		<g>
			<path class="st10" d="M1885.06,714h-199c-9.39,0-17-7.61-17-17l0,0c0-9.39,7.61-17,17-17h199c9.39,0,17,7.61,17,17l0,0
				C1902.06,706.39,1894.45,714,1885.06,714z"/>
			<path class="st10" d="M1890,935h-199c-9.39,0-17-7.61-17-17l0,0c0-9.39,7.61-17,17-17h199c9.39,0,17,7.61,17,17l0,0
				C1907,927.39,1899.39,935,1890,935z"/>
			<rect x="1701.19" y="714" class="st10" width="168.75" height="204"/>
			<circle class="st11" cx="1703.5" cy="696.5" r="10.5"/>
			<circle class="st11" cx="1758.5" cy="696.5" r="10.5"/>
			<circle class="st11" cx="1813.5" cy="697.5" r="10.5"/>
			<circle class="st11" cx="1868.5" cy="697.5" r="10.5"/>
			<rect x="1733" y="787" class="st11" width="107" height="42"/>
		</g>
		<g>
			<path class="st10" d="M239.06,736h-199c-9.39,0-17-7.61-17-17l0,0c0-9.39,7.61-17,17-17h199c9.39,0,17,7.61,17,17l0,0
				C256.06,728.39,248.45,736,239.06,736z"/>
			<path class="st10" d="M244,957H45c-9.39,0-17-7.61-17-17l0,0c0-9.39,7.61-17,17-17h199c9.39,0,17,7.61,17,17l0,0
				C261,949.39,253.39,957,244,957z"/>
			<rect x="55.19" y="736" class="st10" width="168.75" height="204"/>
			<circle class="st11" cx="57.5" cy="718.5" r="10.5"/>
			<circle class="st11" cx="112.5" cy="718.5" r="10.5"/>
			<circle class="st11" cx="167.5" cy="719.5" r="10.5"/>
			<circle class="st11" cx="222.5" cy="719.5" r="10.5"/>
			<rect x="87" y="809" class="st11" width="107" height="42"/>
		</g>
		<g>
			<path class="st11" d="M1853.45,416.07c2.73,74.64-37.95,125.47-67.65,125.65c-29.8,0.18-71.3-50.49-68.95-125.65
				c0-9.69,0-19.38,0-29.07h136.6V416.07z"/>
			<rect x="1771.06" y="526.96" class="st11" width="26.89" height="85.86"/>
			<path class="st11" d="M1850.44,631.6c0.27-1.44,0.42-2.9,0.42-4.39c0-21.53-29.32-38.99-65.48-38.99
				c-36.16,0-65.48,17.45-65.48,38.99c0,1.48,0.14,2.95,0.42,4.39H1850.44z"/>
			<rect x="1704.71" y="631.6" class="st12" width="163.49" height="47.4"/>
			<g>
				<g>
					<path class="st11" d="M1720.92,395.18c-12.06,1.67-24.38,3.55-35.14,9.6c-9.45,5.31-17.49,13.9-20.19,24.6
						c-2.58,10.21-0.3,21.17,4.93,30.17c5.63,9.68,14.48,16.54,24.87,20.49c12.2,4.64,25.69,4.7,38.42,2.61
						c2.33-0.38,3.84-3.39,3.14-5.54c-0.82-2.52-3.04-3.55-5.54-3.14c-0.68,0.11-1.35,0.21-2.03,0.31
						c-0.17,0.03-0.89,0.11-0.03,0.01c-0.34,0.04-0.68,0.09-1.02,0.13c-1.3,0.15-2.6,0.28-3.9,0.37c-2.61,0.19-5.23,0.25-7.84,0.18
						c-1.3-0.04-2.61-0.11-3.91-0.22c-0.61-0.05-1.23-0.11-1.84-0.18c-0.27-0.03-0.54-0.06-0.82-0.1c-0.53-0.07-0.54-0.07-0.02,0
						c-0.2-0.03-0.41-0.06-0.61-0.09c-2.56-0.39-5.09-0.94-7.57-1.66c-1.24-0.36-2.46-0.76-3.67-1.21
						c-0.51-0.19-1.01-0.39-1.51-0.59c0.79,0.32-0.04-0.02-0.23-0.1c-0.37-0.16-0.74-0.33-1.11-0.51c-2.34-1.11-4.6-2.4-6.73-3.88
						c-0.44-0.31-0.88-0.63-1.31-0.95c0.88,0.66-0.57-0.48-0.75-0.63c-0.91-0.77-1.78-1.59-2.61-2.44c-0.75-0.77-1.48-1.57-2.17-2.4
						c-0.31-0.37-0.61-0.74-0.91-1.12c0.67,0.86-0.07-0.11-0.16-0.24c-0.21-0.29-0.42-0.59-0.63-0.88c-1.3-1.88-2.44-3.87-3.42-5.94
						c-0.2-0.43-0.4-0.87-0.59-1.31c0.44,1.02-0.27-0.71-0.35-0.93c-0.41-1.12-0.78-2.26-1.08-3.41c-0.28-1.03-0.51-2.08-0.7-3.13
						c-0.04-0.23-0.08-0.47-0.12-0.7c-0.21-1.14,0.07,0.69-0.01-0.03c-0.07-0.65-0.14-1.29-0.18-1.94
						c-0.07-1.06-0.09-2.11-0.06-3.17c0.02-0.53,0.04-1.05,0.09-1.58c0.02-0.29,0.06-0.58,0.08-0.88c0.1-1.19-0.17,0.98,0.02-0.2
						c0.37-2.24,0.99-4.36,1.77-6.49c-0.3,0.82-0.09,0.19-0.01,0.02c0.13-0.29,0.26-0.58,0.4-0.86c0.25-0.51,0.51-1.02,0.78-1.51
						c0.61-1.1,1.28-2.16,2.01-3.18c0.15-0.2,0.3-0.4,0.44-0.61c-0.54,0.74-0.04,0.05,0.11-0.13c0.36-0.44,0.72-0.87,1.1-1.29
						c0.84-0.94,1.72-1.83,2.65-2.68c0.46-0.43,0.94-0.84,1.42-1.25c0.24-0.2,1.29-1.03,0.57-0.48c1-0.77,2.04-1.49,3.1-2.17
						c5.22-3.33,9.81-5.03,15.88-6.6c6.36-1.65,12.89-2.56,19.39-3.46c2.34-0.32,3.82-3.43,3.14-5.54
						C1725.63,395.76,1723.43,394.84,1720.92,395.18L1720.92,395.18z"/>
				</g>
			</g>
			<g>
				<g>
					<path class="st11" d="M1845.69,403.86c5.75,0.8,11.51,1.6,17.17,2.91c2.89,0.67,5.76,1.48,8.56,2.47
						c0.65,0.23,1.29,0.47,1.93,0.72c0.28,0.11,0.57,0.23,0.85,0.34c-0.6-0.25,0.14,0.06,0.29,0.13c1.15,0.51,2.27,1.06,3.38,1.66
						c2.12,1.14,4.12,2.45,6.05,3.87c0.6,0.44-0.8-0.67,0.13,0.11c0.19,0.16,0.39,0.32,0.58,0.48c0.48,0.4,0.96,0.82,1.42,1.25
						c0.88,0.81,1.72,1.66,2.52,2.54c0.38,0.42,0.75,0.85,1.1,1.28c-0.01-0.01,0.75,0.96,0.35,0.43c-0.4-0.54,0.33,0.46,0.32,0.45
						c0.73,1.02,1.41,2.08,2.01,3.18c0.24,0.44,0.48,0.89,0.7,1.34c0.14,0.28,0.27,0.57,0.4,0.86c0.1,0.22,0.4,1.01,0.07,0.15
						c0.43,1.11,0.82,2.23,1.12,3.38c0.27,1.03,0.47,2.06,0.65,3.11c0.04,0.26,0.24,0.78-0.02-0.15c0.07,0.27,0.07,0.59,0.09,0.88
						c0.06,0.64,0.1,1.29,0.12,1.93c0.03,1.06,0.01,2.12-0.06,3.17c-0.04,0.53-0.08,1.06-0.14,1.58c-0.03,0.27-0.17,1.09,0,0.03
						c-0.06,0.35-0.11,0.7-0.17,1.05c-0.4,2.23-1,4.42-1.78,6.54c-0.08,0.22-0.17,0.45-0.25,0.67c-0.01,0.02-0.45,1.11-0.18,0.46
						c0.27-0.65-0.19,0.44-0.2,0.45c-0.1,0.22-0.2,0.44-0.3,0.65c-0.51,1.09-1.07,2.15-1.68,3.19c-0.54,0.94-1.13,1.85-1.74,2.75
						c-0.34,0.5-0.7,0.98-1.06,1.46c0.09-0.13,0.56-0.7,0.04-0.06c-0.23,0.28-0.45,0.56-0.68,0.84c-1.46,1.74-3.06,3.36-4.78,4.83
						c-0.18,0.15-0.36,0.31-0.55,0.46c-0.01,0.01-0.93,0.74-0.38,0.31c0.55-0.43-0.38,0.28-0.39,0.29
						c-0.19,0.14-0.38,0.28-0.58,0.41c-1.12,0.79-2.28,1.52-3.47,2.21c-1.06,0.61-2.15,1.18-3.25,1.71
						c-0.61,0.29-1.23,0.57-1.85,0.84c0.17-0.07,0.76-0.3-0.05,0.01c-0.38,0.15-0.76,0.3-1.14,0.44c-2.73,1.02-5.56,1.8-8.42,2.37
						c-0.74,0.15-1.47,0.28-2.21,0.4c-0.27,0.04-0.54,0.08-0.81,0.13c-1.09,0.17,0.57-0.05-0.43,0.06c-1.5,0.17-3,0.32-4.51,0.4
						c-2.89,0.16-5.78,0.15-8.67-0.01c-1.51-0.09-3.02-0.21-4.53-0.38c-0.27-0.03-0.55-0.06-0.82-0.09
						c-0.28-0.03-1.25-0.16-0.44-0.05c-0.81-0.11-1.62-0.24-2.43-0.37c-2.31-0.38-4.96,0.6-5.54,3.14
						c-0.49,2.17,0.66,5.13,3.14,5.54c11.45,1.88,23.35,1.99,34.57-1.31c10.82-3.19,20.27-9.48,26.77-18.74
						c6.02-8.58,8.99-19.33,7.54-29.75c-1.53-10.96-8.63-20.03-17.63-26.08c-11.34-7.63-25.12-9.75-38.37-11.59
						c-2.32-0.32-4.95,0.56-5.54,3.14C1842.06,400.45,1843.19,403.52,1845.69,403.86L1845.69,403.86z"/>
				</g>
			</g>
		</g>
		<g>
			<path class="st11" d="M208.45,439.07c2.73,74.64-37.95,125.47-67.65,125.65c-29.8,0.18-71.3-50.49-68.95-125.65
				c0-9.69,0-19.38,0-29.07h136.6V439.07z"/>
			<rect x="126.06" y="549.96" class="st11" width="26.89" height="85.86"/>
			<path class="st11" d="M205.44,654.6c0.27-1.44,0.42-2.9,0.42-4.39c0-21.53-29.32-38.99-65.48-38.99s-65.48,17.45-65.48,38.99
				c0,1.48,0.14,2.95,0.42,4.39H205.44z"/>
			<rect x="59.71" y="654.6" class="st12" width="163.49" height="47.4"/>
			<g>
				<g>
					<path class="st11" d="M75.92,418.18c-12.06,1.67-24.38,3.55-35.14,9.6c-9.45,5.31-17.49,13.9-20.19,24.6
						c-2.58,10.21-0.3,21.17,4.93,30.17c5.63,9.68,14.48,16.54,24.87,20.49c12.2,4.64,25.69,4.7,38.42,2.61
						c2.33-0.38,3.84-3.39,3.14-5.54c-0.82-2.52-3.04-3.55-5.54-3.14c-0.68,0.11-1.35,0.21-2.03,0.31
						c-0.17,0.03-0.89,0.11-0.03,0.01c-0.34,0.04-0.68,0.09-1.02,0.13c-1.3,0.15-2.6,0.28-3.9,0.37c-2.61,0.19-5.23,0.25-7.84,0.18
						c-1.3-0.04-2.61-0.11-3.91-0.22c-0.61-0.05-1.23-0.11-1.84-0.18c-0.27-0.03-0.54-0.06-0.82-0.1c-0.53-0.07-0.54-0.07-0.02,0
						c-0.2-0.03-0.41-0.06-0.61-0.09c-2.56-0.39-5.09-0.94-7.57-1.66c-1.24-0.36-2.46-0.76-3.67-1.21
						c-0.51-0.19-1.01-0.39-1.51-0.59c0.79,0.32-0.04-0.02-0.23-0.1c-0.37-0.16-0.74-0.33-1.11-0.51c-2.34-1.11-4.6-2.4-6.73-3.88
						c-0.44-0.31-0.88-0.63-1.31-0.95c0.88,0.66-0.57-0.48-0.75-0.63c-0.91-0.77-1.78-1.59-2.61-2.44c-0.75-0.77-1.48-1.57-2.17-2.4
						c-0.31-0.37-0.61-0.74-0.91-1.12c0.67,0.86-0.07-0.11-0.16-0.24c-0.21-0.29-0.42-0.59-0.63-0.88c-1.3-1.88-2.44-3.87-3.42-5.94
						c-0.2-0.43-0.4-0.87-0.59-1.31c0.44,1.02-0.27-0.71-0.35-0.93c-0.41-1.12-0.78-2.26-1.08-3.41c-0.28-1.03-0.51-2.08-0.7-3.13
						c-0.04-0.23-0.08-0.47-0.12-0.7c-0.21-1.14,0.07,0.69-0.01-0.03c-0.07-0.65-0.14-1.29-0.18-1.94
						c-0.07-1.06-0.09-2.11-0.06-3.17c0.02-0.53,0.04-1.05,0.09-1.58c0.02-0.29,0.06-0.58,0.08-0.88c0.1-1.19-0.17,0.98,0.02-0.2
						c0.37-2.24,0.99-4.36,1.77-6.49c-0.3,0.82-0.09,0.19-0.01,0.02c0.13-0.29,0.26-0.58,0.4-0.86c0.25-0.51,0.51-1.02,0.78-1.51
						c0.61-1.1,1.28-2.16,2.01-3.18c0.15-0.2,0.3-0.4,0.44-0.61c-0.54,0.74-0.04,0.05,0.11-0.13c0.36-0.44,0.72-0.87,1.1-1.29
						c0.84-0.94,1.72-1.83,2.65-2.68c0.46-0.43,0.94-0.84,1.42-1.25c0.24-0.2,1.29-1.03,0.57-0.48c1-0.77,2.04-1.49,3.1-2.17
						c5.22-3.33,9.81-5.03,15.88-6.6c6.36-1.65,12.89-2.56,19.39-3.46c2.34-0.32,3.82-3.43,3.14-5.54
						C80.63,418.76,78.43,417.84,75.92,418.18L75.92,418.18z"/>
				</g>
			</g>
			<g>
				<g>
					<path class="st11" d="M200.69,426.86c5.75,0.8,11.51,1.6,17.17,2.91c2.89,0.67,5.76,1.48,8.56,2.47
						c0.65,0.23,1.29,0.47,1.93,0.72c0.28,0.11,0.57,0.23,0.85,0.34c-0.6-0.25,0.14,0.06,0.29,0.13c1.15,0.51,2.27,1.06,3.38,1.66
						c2.12,1.14,4.12,2.45,6.05,3.87c0.6,0.44-0.8-0.67,0.13,0.11c0.19,0.16,0.39,0.32,0.58,0.48c0.48,0.4,0.96,0.82,1.42,1.25
						c0.88,0.81,1.72,1.66,2.52,2.54c0.38,0.42,0.75,0.85,1.1,1.28c-0.01-0.01,0.75,0.96,0.35,0.43c-0.4-0.54,0.33,0.46,0.32,0.45
						c0.73,1.02,1.41,2.08,2.01,3.18c0.24,0.44,0.48,0.89,0.7,1.34c0.14,0.28,0.27,0.57,0.4,0.86c0.1,0.22,0.4,1.01,0.07,0.15
						c0.43,1.11,0.82,2.23,1.12,3.38c0.27,1.03,0.47,2.06,0.65,3.11c0.04,0.26,0.24,0.78-0.02-0.15c0.07,0.27,0.07,0.59,0.09,0.88
						c0.06,0.64,0.1,1.29,0.12,1.93c0.03,1.06,0.01,2.12-0.06,3.17c-0.04,0.53-0.08,1.06-0.14,1.58c-0.03,0.27-0.17,1.09,0,0.03
						c-0.06,0.35-0.11,0.7-0.17,1.05c-0.4,2.23-1,4.42-1.78,6.54c-0.08,0.22-0.17,0.45-0.25,0.67c-0.01,0.02-0.45,1.11-0.18,0.46
						c0.27-0.65-0.19,0.44-0.2,0.45c-0.1,0.22-0.2,0.44-0.3,0.65c-0.51,1.09-1.07,2.15-1.68,3.19c-0.54,0.94-1.13,1.85-1.74,2.75
						c-0.34,0.5-0.7,0.98-1.06,1.46c0.09-0.13,0.56-0.7,0.04-0.06c-0.23,0.28-0.45,0.56-0.68,0.84c-1.46,1.74-3.06,3.36-4.78,4.83
						c-0.18,0.15-0.36,0.31-0.55,0.46c-0.01,0.01-0.93,0.74-0.38,0.31c0.55-0.43-0.38,0.28-0.39,0.29
						c-0.19,0.14-0.38,0.28-0.58,0.41c-1.12,0.79-2.28,1.52-3.47,2.21c-1.06,0.61-2.14,1.18-3.25,1.71
						c-0.61,0.29-1.23,0.57-1.85,0.84c0.17-0.07,0.76-0.3-0.05,0.01c-0.38,0.15-0.76,0.3-1.14,0.44c-2.73,1.02-5.56,1.8-8.42,2.37
						c-0.74,0.15-1.47,0.28-2.21,0.4c-0.27,0.04-0.54,0.08-0.81,0.13c-1.09,0.17,0.57-0.05-0.43,0.06c-1.5,0.17-3,0.32-4.51,0.4
						c-2.89,0.16-5.78,0.15-8.67-0.01c-1.51-0.09-3.02-0.21-4.53-0.38c-0.27-0.03-0.55-0.06-0.82-0.09
						c-0.28-0.03-1.25-0.16-0.44-0.05c-0.81-0.11-1.62-0.24-2.43-0.37c-2.31-0.38-4.96,0.6-5.54,3.14
						c-0.49,2.17,0.66,5.13,3.14,5.54c11.45,1.88,23.35,1.99,34.57-1.31c10.82-3.19,20.27-9.48,26.77-18.74
						c6.02-8.58,8.99-19.33,7.54-29.75c-1.53-10.96-8.63-20.03-17.63-26.08c-11.34-7.63-25.12-9.75-38.37-11.59
						c-2.32-0.32-4.95,0.56-5.54,3.14C197.06,423.45,198.19,426.52,200.69,426.86L200.69,426.86z"/>
				</g>
			</g>
		</g>
	</g>
</g>
</svg>
