<?xml version="1.0" encoding="utf-8"?>
<!-- Generator: Adobe Illustrator 23.0.5, SVG Export Plug-In . SVG Version: 6.00 Build 0)  -->
<svg version="1.1" id="圖層_1" xmlns="http://www.w3.org/2000/svg" xmlns:xlink="http://www.w3.org/1999/xlink" x="0px" y="0px"
	 viewBox="0 0 1920 1080" style="enable-background:new 0 0 1920 1080;" xml:space="preserve">
<style type="text/css">
	.st0{fill:none;stroke:#000000;stroke-width:4;stroke-miterlimit:10;}
</style>
<g>
	<g>
		<polygon class="st0" points="618.05,505.17 628.05,527.24 650.4,530.77 634.22,547.95 638.04,572.2 618.05,560.75 598.06,572.2 
			601.88,547.95 585.71,530.77 608.06,527.24 		"/>
		<polygon class="st0" points="703.21,505.8 713.2,527.86 735.55,531.4 719.38,548.58 723.19,572.83 703.21,561.38 683.22,572.83 
			687.03,548.58 670.86,531.4 693.21,527.86 		"/>
		<polygon class="st0" points="788.36,503.92 798.35,525.98 820.7,529.52 804.53,546.7 808.35,570.95 788.36,559.5 768.37,570.95 
			772.19,546.7 756.02,529.52 778.36,525.98 		"/>
		<polygon class="st0" points="873.51,504.55 883.51,526.61 905.85,530.15 889.68,547.32 893.5,571.57 873.51,560.12 853.52,571.57 
			857.34,547.32 841.17,530.15 863.52,526.61 		"/>
		<polygon class="st0" points="958.67,503.29 968.66,525.36 991.01,528.9 974.84,546.07 978.65,570.32 958.67,558.87 938.68,570.32 
			942.49,546.07 926.32,528.9 948.67,525.36 		"/>
	</g>
	<g>
		<polygon class="st0" points="618.05,381.29 628.05,403.36 650.4,406.89 634.22,424.07 638.04,448.32 618.05,436.87 598.06,448.32 
			601.88,424.07 585.71,406.89 608.06,403.36 		"/>
		<polygon class="st0" points="703.21,381.92 713.2,403.98 735.55,407.52 719.38,424.69 723.19,448.95 703.21,437.5 683.22,448.95 
			687.03,424.69 670.86,407.52 693.21,403.98 		"/>
		<polygon class="st0" points="788.36,380.04 798.35,402.1 820.7,405.64 804.53,422.82 808.35,447.07 788.36,435.62 768.37,447.07 
			772.19,422.82 756.02,405.64 778.36,402.1 		"/>
	</g>
	<g>
		<g>
			<polygon class="st0" points="618.05,629.05 628.05,651.12 650.4,654.66 634.22,671.83 638.04,696.08 618.05,684.63 
				598.06,696.08 601.88,671.83 585.71,654.66 608.06,651.12 			"/>
			<polygon class="st0" points="703.21,629.68 713.2,651.74 735.55,655.28 719.38,672.46 723.19,696.71 703.21,685.26 
				683.22,696.71 687.03,672.46 670.86,655.28 693.21,651.74 			"/>
			<polygon class="st0" points="788.36,627.8 798.35,649.86 820.7,653.4 804.53,670.58 808.35,694.83 788.36,683.38 768.37,694.83 
				772.19,670.58 756.02,653.4 778.36,649.86 			"/>
			<polygon class="st0" points="873.51,628.43 883.51,650.49 905.85,654.03 889.68,671.2 893.5,695.45 873.51,684 853.52,695.45 
				857.34,671.2 841.17,654.03 863.52,650.49 			"/>
			<polygon class="st0" points="958.67,627.17 968.66,649.24 991.01,652.78 974.84,669.95 978.65,694.2 958.67,682.75 938.68,694.2 
				942.49,669.95 926.32,652.78 948.67,649.24 			"/>
		</g>
		<polygon class="st0" points="1044.85,627.49 1054.84,649.55 1077.19,653.09 1061.02,670.26 1064.84,694.52 1044.85,683.07 
			1024.86,694.52 1028.68,670.26 1012.51,653.09 1034.85,649.55 		"/>
		<polygon class="st0" points="1130,628.11 1140,650.18 1162.34,653.72 1146.17,670.89 1149.99,695.14 1130,683.69 1110.01,695.14 
			1113.83,670.89 1097.66,653.72 1120.01,650.18 		"/>
	</g>
	<g>
		<polygon class="st0" points="1217.29,751.05 1227.29,773.12 1249.64,776.66 1233.46,793.83 1237.28,818.08 1217.29,806.63 
			1197.3,818.08 1201.12,793.83 1184.95,776.66 1207.3,773.12 		"/>
		<polygon class="st0" points="1302.9,751.49 1312.89,773.55 1335.24,777.09 1319.07,794.26 1322.89,818.51 1302.9,807.06 
			1282.91,818.51 1286.73,794.26 1270.55,777.09 1292.9,773.55 		"/>
		<polygon class="st0" points="618.05,754.07 628.05,776.13 650.4,779.67 634.22,796.85 638.04,821.1 618.05,809.65 598.06,821.1 
			601.88,796.85 585.71,779.67 608.06,776.13 		"/>
		<polygon class="st0" points="703.66,754.5 713.65,776.56 736,780.1 719.83,797.28 723.65,821.53 703.66,810.08 683.67,821.53 
			687.49,797.28 671.32,780.1 693.66,776.56 		"/>
		<polygon class="st0" points="789.26,752.78 799.26,774.84 821.61,778.38 805.44,795.55 809.25,819.81 789.26,808.36 
			769.27,819.81 773.09,795.55 756.92,778.38 779.27,774.84 		"/>
		<polygon class="st0" points="874.87,753.64 884.86,775.7 907.21,779.24 891.04,796.42 894.86,820.67 874.87,809.22 854.88,820.67 
			858.7,796.42 842.53,779.24 864.87,775.7 		"/>
		<polygon class="st0" points="960.48,751.92 970.47,773.98 992.82,777.52 976.65,794.69 980.46,818.94 960.48,807.49 
			940.49,818.94 944.3,794.69 928.13,777.52 950.48,773.98 		"/>
		<polygon class="st0" points="1046.08,752.35 1056.08,774.41 1078.42,777.95 1062.25,795.12 1066.07,819.37 1046.08,807.92 
			1026.09,819.37 1029.91,795.12 1013.74,777.95 1036.09,774.41 		"/>
		<polygon class="st0" points="1131.69,753.21 1141.68,775.27 1164.03,778.81 1147.86,795.98 1151.68,820.24 1131.69,808.79 
			1111.7,820.24 1115.52,795.98 1099.34,778.81 1121.69,775.27 		"/>
	</g>
	<polygon class="st0" points="618.05,258.66 628.05,280.73 650.4,284.27 634.22,301.44 638.04,325.69 618.05,314.24 598.06,325.69 
		601.88,301.44 585.71,284.27 608.06,280.73 	"/>
</g>
</svg>
