<?xml version="1.0" encoding="utf-8"?>
<!-- Generator: Adobe Illustrator 23.0.5, SVG Export Plug-In . SVG Version: 6.00 Build 0)  -->
<svg version="1.1" id="圖層_1" xmlns="http://www.w3.org/2000/svg" xmlns:xlink="http://www.w3.org/1999/xlink" x="0px" y="0px"
	 viewBox="0 0 1920 1080" style="enable-background:new 0 0 1920 1080;" xml:space="preserve">
<style type="text/css">
	.st0{fill:url(#SVGID_1_);}
	.st1{fill:#E8EBCD;}
	.st2{fill:#EDEBD4;}
	.st3{fill:#6D74B8;}
	.st4{fill:url(#SVGID_2_);}
	.st5{fill:#EAFAFD;}
	.st6{fill:#9B5846;}
	.st7{fill:#F2C477;}
	.st8{fill:#87A81D;}
	.st9{fill:#375C28;}
	.st10{fill:#AF512D;}
	.st11{fill:#6B8D11;}
	.st12{fill:none;stroke:#5B4005;stroke-width:3;stroke-miterlimit:10;}
	.st13{fill:#4F6E18;}
</style>
<linearGradient id="SVGID_1_" gradientUnits="userSpaceOnUse" x1="960.0098" y1="795.3916" x2="957.9902" y2="-14.3916">
	<stop  offset="0.011" style="stop-color:#ABDCDC"/>
	<stop  offset="0.2028" style="stop-color:#9DD4D4"/>
	<stop  offset="0.5667" style="stop-color:#77C0BF"/>
	<stop  offset="0.8763" style="stop-color:#52ADAA"/>
</linearGradient>
<rect x="-1" y="-12" class="st0" width="1920" height="805"/>
<g>
	<path class="st1" d="M458.38,190.28c14.32-4.68,29.26-7.45,44.3-8.21c10.06-0.51,20.22-0.13,30.1-2.04
		c7.64-1.48,14.94-4.29,22.36-6.63c31.6-9.93,65.2-11.09,98.31-11.77c19.97-0.41,39.95-0.67,59.92-0.79c16.69-0.1,33.89,0,49.3,6.4
		c3.92,1.63,7.77,3.67,12,4.08c9.68,0.94,17.94-6.72,27.34-9.23c10.67-2.85,22.24,1.13,32.96-1.52c7.1-1.75,13.14-6.23,19.42-9.98
		c18.02-10.77,40.28-15.89,60.39-9.85c9.62,2.89,18.35,8.15,27.78,11.59c11.54,4.21,24.04,5.66,35.13,10.95s21,16.17,19.64,28.38
		c-138.62,11.05-277.92,13.68-416.86,7.86c-38.55-1.61-77.07-3.88-115.55-6.79c-2.05-0.16-4.41-0.49-5.51-2.23
		c-1.09-1.75,1.06-4.71,2.67-3.42"/>
</g>
<g>
	<path class="st1" d="M1934.67,254.36c-22.28-13.98-49.22-18.05-75.37-20.85c-40.63-4.35-86.42-4.74-116.55,22.87
		c-14.81,13.57-23.76,32.31-30.83,51.11c-1.23,3.27-2.55,6.74-5.32,8.87c-2.42,1.85-5.58,2.38-8.61,2.74
		c-27.96,3.32-56.09-2.79-84.21-4.25c-28.12-1.46-58.8,2.82-78.84,22.61c-4.4,4.35-8.33,9.46-13.91,12.14
		c-10.57,5.07-22.88-0.16-34.52-1.57c-23.11-2.81-47.2,12-55.13,33.89c-2.47,6.81-3.43,14.58-0.46,21.18
		c5.48,12.17,21.05,15.27,34.34,16.52c126.71,11.94,255.95,0.27,377.42-37.7c31.36-9.8,63.73-22.41,84.47-47.89
		c20.74-25.48,24.59-67.46-0.1-89.13"/>
</g>
<g>
	<path class="st2" d="M0.53,432.49c44.4-0.67,88.8-1.34,133.2-2.01c28.15-0.43,57.32-0.65,83.08,10.72
		c27.6,12.18,48.25,36.62,62.06,63.44c4,7.77,8.35,16.57,16.63,19.35c5.71,1.92,11.92,0.44,17.83-0.71
		c48.52-9.44,106.79,11.3,122.8,58.07c34.52-5.9,71.11,1.27,100.86,19.75c11.69,7.26,23.07,16.47,36.77,17.84
		c9.42,0.94,18.72-1.99,27.98-3.95c44.68-9.45,90.62,3.71,134.85,15.08c120.61,31.01,244.46,49.4,368.88,54.77
		c133.45,5.76,269.77-3.1,398.12,33.89c-139.91,50.03-293.31,33.98-441.84,38.09c-116.47,3.22-232.19,19.23-348.49,26.26
		c-90.29,5.45-180.81,5.48-271.26,5.51c-136.05,0.04-272.09,0.08-408.14,0.12c-14.15,0-30.62-1.15-38.63-12.81
		c-4.97-7.24-5.15-16.62-5.16-25.4c-0.04-75.01-0.09-150.03-0.13-225.04c-0.02-32.97,0.12-66.83,12.09-97.54"/>
</g>
<g>
	<path class="st3" d="M52.45,787.41c36.88-35.67,73.77-71.34,110.65-107c11.89,12.06,23.77,24.11,35.66,36.17
		c1.79,1.81,3.84,3.75,6.39,3.83c2.51,0.08,4.67-1.68,6.57-3.32c9.28-8.04,19.07-15.99,30.71-19.9c11.64-3.91,25.64-3.02,34.73,5.24
		c6.6,6,11.66,16.02,20.57,15.66c3.69-0.15,6.99-2.21,10.09-4.21c10.05-6.48,20.1-12.95,30.16-19.43
		c16.5,19.46,43.49,25.58,68.51,30.58c17.48,3.49,34.96,6.99,52.44,10.48c3.88,0.77,7.78,1.55,11.73,1.58
		c5.07,0.03,10.06-1.18,14.97-2.48c44.54-11.78,86.98-31.47,124.74-57.87c2.95-2.06,6.57-4.27,9.92-2.95
		c2.15,0.84,3.52,2.93,4.69,4.92c5,8.43,9.23,17.31,12.62,26.51c6.26-2.93,12.53-5.86,18.79-8.8c6.5,3.67,13,7.34,19.5,11.01
		c27.4,24.25,54.8,48.5,82.21,72.76c-236.61,3.5-473.3,26.05-709.55,12.52c3.93-2.75,7.85-5.49,11.78-8.24"/>
</g>
<linearGradient id="SVGID_2_" gradientUnits="userSpaceOnUse" x1="993.2977" y1="990.3606" x2="992.4714" y2="659.0298">
	<stop  offset="0.0957" style="stop-color:#99D2DB"/>
	<stop  offset="0.2088" style="stop-color:#7CC4D2"/>
	<stop  offset="0.4873" style="stop-color:#3AA4BF"/>
	<stop  offset="0.6182" style="stop-color:#2097B7"/>
</linearGradient>
<path class="st4" d="M1987,970H-1V772c314.34-5.28,567.27-9.82,740-13c152.33-2.8,304.73-1.96,457-7c0,0,451.39-14.94,571,1
	c14.34,1.91,37.46,6.21,71,5c38.71-1.4,53.75-8.77,84-6c26.96,2.47,49,11.45,65,20C1987,838,1987,904,1987,970z"/>
<g>
	<g>
		<path class="st5" d="M1252.95,828.23c47.35,1.31,94.72,1.68,142.08,1.09c47.1-0.58,94.18-2.11,141.22-4.57
			c26.6-1.39,53.19-3.09,79.75-5.09c3.83-0.29,3.86-6.29,0-6c-47.16,3.54-94.4,6.14-141.67,7.79c-47.09,1.64-94.21,2.34-141.33,2.1
			c-26.69-0.14-53.37-0.58-80.04-1.32C1249.09,822.13,1249.09,828.13,1252.95,828.23L1252.95,828.23z"/>
	</g>
</g>
<path class="st6" d="M1745.75,889.11c4.37-0.14,8.73-0.27,13.1-0.41c0.64-13.46,1.51-33.68,2.2-58.3
	c1.32-47.24,0.51-59.15,1.6-78.05c2.64-45.9,13.43-81.08,21.3-106.14c16.48-52.51,39.02-94.33,58.93-124.9l0,0
	c-22.77,22.63-52.77,58.31-75.72,108.95C1714.59,746.24,1737.48,855.82,1745.75,889.11z"/>
<path class="st7" d="M1979,1092H1V936c100.2-0.36,252.71-0.97,439-2c358.06-1.98,537.09-2.96,585-4c339.44-7.35,468.2-20.86,743-8
	c79.7,3.73,145.5,8.45,190,12C1965,986.67,1972,1039.33,1979,1092z"/>
<path class="st8" d="M1863,975c-2.26,6.15-21.26,4.17-35,3c-20.42-1.73-71.28-0.82-173,1c-31.69,0.57-26.45,1.72-79,4
	c-60.23,2.61-131.97,1.78-273,0c-35.75-0.45-67.66-0.94-111-6c-31.57-3.68-57.45-8.42-75-12c-1.41-0.87-2.19-2.44-2-4
	c0.23-1.91,1.8-2.88,2-3c15.07-10.65,28.47-16.04,38-19c24.21-7.52,33.31-2.42,61-12c13.29-4.6,14.98-7.09,29-11
	c17.46-4.88,30.98-5.52,38-6c38.32-2.6,40.72-10.76,72-13c49.06-3.52,60.94,15.28,112,10c6.3-0.65,16.11-1.97,32-3
	c0,0,26.83-1.74,50-1c34.09,1.09,47.34,10.44,92,21c32.73,7.74,57.04,10.14,96,14c34.78,3.44,65.26,4.7,90,5
	C1844.75,953.74,1865.59,967.93,1863,975z"/>
<g>
	<path class="st8" d="M1282.93,927.74c0.19-3.48,0.38-6.97,0.57-10.45c0.16-2.86,0.31-5.78-0.39-8.55
		c-1.8-7.11-8.59-11.63-14.91-15.37c-6.32-3.73-13.2-7.98-15.42-14.97c2.75,0.4,5.5,0.79,8.23,1.32c24.2,4.67,46.13,20.09,58.7,41.3
		c1.55,2.61,3,5.5,2.75,8.52c-0.25,3.02-2.91,6.03-5.91,5.54c-2.55-0.41-4.21-3.01-6.66-3.82c-4.85-1.61-10.01,4.3-14.73,2.34
		c-2.15-0.89-3.48-3.23-5.7-3.94c-1.46-0.47-3.05-0.14-4.57-0.29c-1.53-0.15-3.23-1.12-3.24-2.66"/>
</g>
<g>
	<path class="st8" d="M1331.17,935.46c7.28-9.26,15.16-18.48,18.74-29.7c2.96-9.29,2.74-19.26,2.48-29.01
		c1.3-0.57,2.89,0.11,3.78,1.21c0.9,1.11,1.25,2.54,1.54,3.94c1.46,7.1,1.75,14.44,0.85,21.64c1.73-1.54,4.36-1.74,6.56-0.99
		c2.19,0.75,4.01,2.3,5.64,3.96c3.18,3.25,5.82,7.02,7.77,11.13c0.47,1,0.92,2.08,0.76,3.18c-0.18,1.22-1.08,2.2-1.94,3.09
		c-8.41,8.7-17.26,16.99-26.49,24.81c-1.17,0.99-2.37,1.99-3.78,2.61c-3.98,1.75-8.9-0.08-11.62-3.47
		c-2.72-3.39-3.55-7.97-3.32-12.31"/>
</g>
<g>
	<path class="st9" d="M1763.72,898.01c16.08-0.15,32.17-0.29,48.25-0.44c-19.06,10.35-36.25,24.13-50.5,40.48
		c13.46-6.98,29.1-8.13,44.25-8.74c9.74-0.39,19.49-0.62,29.24-0.67c-9.43,6.82-18.87,13.64-28.3,20.45
		c-2.35,1.7-4.74,3.42-7.47,4.39c-3.34,1.19-6.97,1.18-10.52,1.15c-21.87-0.16-43.74-0.38-65.61-0.67
		c-11.3-0.15-22.78-0.35-33.6-3.6c-6.27-1.88-13.34-6.82-11.89-13.21c0.81-3.59,4.1-5.98,7.16-8.02
		c12.58-8.35,25.42-16.29,38.51-23.8c8.55-4.9,17.34-9.68,26.95-11.86s20.27-1.47,28.47,4"/>
</g>
<g>
	<path class="st8" d="M1677.66,943.91c70.72-49.23,153.2-81.44,238.56-93.18c4.15-0.57,9.11-1.72,10.43-5.69
		c0.47-1.39,0.36-2.92,0.08-4.36c-2.79-14.17-19.96-19.54-34.25-21.56c-36.14-5.12-73.2-6.25-108.97,1.02
		c-35.77,7.28-70.3,23.38-96.01,49.3c3.24-22.04,6.47-44.51,2.85-66.49c-5.22-31.76-24.71-60.06-49.82-80.2
		s-55.53-32.73-86.59-41.16c46.05,44.14,72.8,107.75,72.14,171.54c-25.83-17.36-52.25-34.18-80.99-46.12
		c-28.74-11.95-60.09-18.9-91.05-15.77c30.63,18.42,61.25,36.85,91.88,55.27c30.18,18.15,61.94,37.99,77.4,69.64
		c3.49,7.15,6.13,14.88,11.23,21c11.02,13.23,33.29,14.91,46.17,3.49"/>
</g>
<path class="st10" d="M1463,935c-25-0.33-50-0.67-75-1c-2.94-80.09-12.06-173.44-33-276c-14.44-70.74-86.45-290.93-107-338
	c3.33-1.33,6.67-2.67,10-4c29.88,40.67,62.74,91.5,93.34,152.6c18.68,37.3,44.77,94.9,66.66,167.4
	C1438.7,704.53,1461.85,806.87,1463,935z"/>
<g>
	<path class="st11" d="M1262.83,317.15c21.11,0.64,41.63,6.69,61.88,12.69c8.41,2.49,16.82,4.99,25.12,7.81
		c42.88,14.6,82.67,38.19,116.07,68.79c-1.1,0.18-2.2,0.36-3.3,0.54c23.07,23.47,45.09,49.91,52.99,81.86
		c8.46,34.19-0.71,71.22-19.76,100.85c-4.84-17.92-11.39-35.39-19.54-52.07c-3.41-6.98-7.82-14.45-15.25-16.7
		c4.85,17.88,4.46,37.15-1.11,54.83c-27.61-40.11-69.32-70-91.6-113.29c-0.91-1.76-1.9-3.66-3.68-4.53
		c-4.92-2.4-10.24,4.91-15.49,3.36c-1.81-0.53-3.14-2.03-4.36-3.47c-30.96-36.31-57.65-76.26-79.33-118.76
		c-3.39-6.63-6.73-13.66-6.55-21.11c3.07-0.35,6.15-0.69,9.22-1.04"/>
</g>
<g>
	<path class="st11" d="M1264.89,299.11c66.59-10.56,134.42-13.24,201.63-7.96c11.24,0.88,22.48,1.99,33.6,3.88
		c41.87,7.11,81.77,25.5,114.37,52.72c21.37,17.85,40.25,40.7,45.63,68.02c-25.52-12.71-53.34-19.96-80.93-27.13
		c-7.76-2.02-15.66-4.05-23.67-3.76c-3.95,0.14-7.92,0.85-11.82,0.2c-10.58-1.76-16.85-12.33-23.08-21.05
		c-8.32-11.65-18.95-21.65-31.08-29.24c5.78,12.36,10.4,25.25,13.78,38.47c1.23,4.82,2.31,9.82,1.56,14.74
		c-0.74,4.92-3.67,9.8-8.33,11.54c-5.34,1.99-11.23-0.5-16.26-3.18c-12.5-6.67-24.21-14.84-34.78-24.27
		c-3.1-2.77-6.25-5.73-10.23-6.93c-3.57-1.08-7.4-0.6-11.12-0.26c-36.79,3.43-73.39-6.57-108.83-17.03
		c-18.37-5.42-38-11.89-49.33-27.34c-3.05-4.16-5.44-9.25-4.57-14.33s6.15-9.56,11.05-7.98"/>
</g>
<g>
	<path class="st11" d="M1461.31,176.95c1.72-5.67,8.38-7.94,14.15-9.26c52.26-11.86,107.13-12.09,159.49-0.67
		c-18.51,13.4-37.01,26.79-55.52,40.19c-1.78,1.29-3.71,2.63-5.91,2.73c-1.95,0.08-3.79-0.83-5.52-1.73
		c-10.75-5.53-21.5-11.06-32.25-16.59c6.12,9.56,12.25,19.12,18.37,28.68c-12.88,3.85-25.13,9.82-36.11,17.59
		c-2.33,1.65-4.75,3.44-7.58,3.82c-2.11,0.28-4.22-0.25-6.28-0.78c-10.86-2.79-21.73-5.59-32.59-8.38
		c6.45,7.16,12.9,14.32,19.35,21.48c-7.12,4.67-14.24,9.34-21.36,14.01c-3.02,1.98-6.1,3.99-9.59,4.95
		c-9.6,2.64-19.58-3.2-29.51-2.58c-1.48,0.09-3.04,0.37-4.13,1.37c-1.8,1.65-1.63,4.47-2.02,6.88
		c-1.71,10.49-14.67,14.17-25.19,15.63c-32.14,4.45-64.29,8.9-96.43,13.35c-6.43,0.89-13.01,1.78-19.38,0.52s-12.61-5.09-15-11.13
		c-2.71-6.85,0.04-14.54,2.97-21.3c6.43-14.85,13.85-29.28,22.18-43.15c5.81-9.68,12.09-19.12,19.46-27.68
		c9.56-11.11,20.84-20.59,32.07-30.02c24.47-20.55,49.07-41.2,76.54-57.52c27.47-16.32,58.2-28.25,90.11-29.78
		c0.49,13.82-3.4,27.75-10.98,39.32c-0.89,1.36-1.88,2.74-3.31,3.53c-1.65,0.91-3.63,0.91-5.51,0.88
		c-7.85-0.11-15.69-0.22-23.54-0.33c0.68,6.01,9.97,8.85,9.33,14.86c-0.21,1.93-1.47,3.56-2.69,5.07
		c-6.57,8.19-13.15,16.37-19.72,24.56c1.98,0.38,3.96,0.76,5.94,1.14"/>
</g>
<g>
	<path class="st11" d="M1242.74,204.64c-0.91-8.26,2.56-16.31,6.09-23.83c15.79-33.7,34.5-66.55,60.42-93.25
		c25.92-26.7,59.75-46.98,96.71-51.27c-2.08,17.54-11.63,33.14-19.06,49.16c-19.71,42.48-25.47,90.82-48.43,131.64
		c-14.25,25.33-34.52,46.66-54.57,67.69c-7.16,7.51-14.58,15.21-24.06,19.44c-4.93,2.2-11.28,3.17-15.3-0.43
		c-4.09-3.66-3.76-10.04-3.19-15.5c3.23-30.82,3.53-61.94,0.91-92.82"/>
</g>
<g>
	<path class="st11" d="M1249.96,220.61c-26-72.91-88.03-131.97-162.12-154.36c15.72,41.1,49.43,73.35,65.3,114.39
		c-11.07-3.47-22.14-6.95-33.21-10.42c-31.88-10-63.9-20.04-96.92-25.11c-33.02-5.08-67.34-5.03-99.24,4.9
		c16.91-0.41,32.98,6.86,48.09,14.46c37.97,19.1,74.38,41.29,108.75,66.29c4.72,3.43,9.9,7.88,9.67,13.72
		c-39.6-4.94-79.67-6.05-119.48-3.31c-39.74,2.73-82.47,10.97-109.26,40.45c52.91,1.55,106.2,3.14,157.88,14.59
		c5.44,1.21,10.93,2.53,16.5,2.45c12.19-0.16,23.37-6.93,35.48-8.35c0.61,5.42,0.01,10.98-1.75,16.15
		c52.06-4.37,104.42-2.42,156.59,0.36c5.02,0.27,10.8,0.23,14.08-3.58c1.47-1.71,2.17-3.94,2.8-6.11
		c6.61-22.72,9.63-46.49,8.9-70.14c-0.31-10.13-1.63-21.02-8.41-28.56"/>
</g>
<g>
	<path class="st11" d="M1115.98,298.62c-48.86,13.07-98.41,27.76-139.82,56.81c-46.39,32.54-79.72,81.66-98.94,134.97
		c22.26-9.71,44.52-19.42,66.77-29.13c2.86,24.95,11.89,49.16,26.07,69.89c0.63,0.92,1.37,1.91,2.47,2.14
		c0.88,0.18,1.77-0.17,2.58-0.55c9.44-4.44,16.1-13.51,19.65-23.32c3.55-9.81,4.33-20.39,4.63-30.81
		c0.47-16.56-0.2-33.13-0.87-49.69c11.74,5.73,21.76,14.92,28.48,26.12c9.01-10.97,19.25-20.93,30.47-29.63
		c10.62-8.24,22.14-15.38,31.86-24.66c8.2-7.83,14.99-17.06,23.52-24.53c15.08-13.2,34.55-20.04,53.5-26.57
		c43.82-15.12,87.64-30.23,131.47-45.35c-49.16-22.08-105.97-13.65-159.12-4.81c-24.77,4.12-49.54,8.24-74.31,12.37"/>
</g>
<g>
	<path class="st11" d="M1191.43,325.61c-15.4,21.88-45.84,27.27-65.23,45.72c-7.08,6.73-12.46,15.01-17.76,23.21
		c-6.12,9.48-12.22,18.97-18.29,28.48c-19.09,29.88-38.36,60.92-44.29,95.87c-2.66,15.67-2.55,31.67-2.42,47.57
		c0.13,16.44,0.28,33.06,4.25,49.01c2.89,11.64,7.77,22.7,13.36,33.31c8.66,16.45,19.09,31.97,31.04,46.22
		c5.14-23.25,6.64-47.31,4.42-71.02c6.13,5.47,10.84,12.51,13.56,20.25c12.7-83.05,50.97-159.72,89.49-234.39
		c20.94-40.59,42.66-81.81,75.48-113.57c-50,11.7-97.41,34.35-137.93,65.9"/>
</g>
<g>
	<path class="st11" d="M1171.82,439.71c-1,49.83,2.01,100.53,18.58,147.53c16.56,47,48.07,90.34,92.62,112.67
		c11.39-11.9,16.76-28.19,21.19-44.05c5.35-19.17,9.83-38.58,13.4-58.16c0.52-2.86,0.94-6.1-0.81-8.41
		c-1.28-1.69-3.41-2.45-5.41-3.12c-26.27-8.82-52.54-17.64-78.81-26.47c19.48,1.21,38.96,2.43,58.44,3.64c1.3,0.08,2.77,0.1,3.7-0.8
		c0.86-0.83,0.97-2.15,1.02-3.34c0.32-6.9,0.63-13.8,0.95-20.69c0.1-2.18,0.18-4.46-0.79-6.41c-1.23-2.49-3.86-3.9-6.33-5.16
		c-11.22-5.71-22.44-11.41-33.66-17.12c12.58-1.12,25.31-0.68,37.79,1.3c5.11-5.43,3.43-14.69-1.42-20.35
		c-4.85-5.66-11.97-8.72-18.62-12.09c-6.65-3.37-13.44-7.63-16.5-14.43c8.79-4.03,18.15-6.81,27.72-8.22
		c-10.43-52.63-22.45-104.94-36.04-156.84c-19.66,18.72-34.86,42.09-43.99,67.65c-4.41,12.35-7.43,25.2-12.44,37.32
		c-8.14,19.7-21.52,37.56-24.99,58.59"/>
</g>
<path class="st12" d="M1355,467c-4.9,3.63-12.08,8.13-21.5,11.5c-11.62,4.16-21.88,4.92-28.67,4.88"/>
<path class="st12" d="M1374,521c-4.9,3.63-12.08,8.13-21.5,11.5c-11.62,4.16-21.88,4.92-28.67,4.88"/>
<path class="st12" d="M1392,560c-5.37,6.65-13.25,14.88-23.57,21.06c-12.74,7.62-23.99,9.01-31.43,8.94"/>
<path class="st12" d="M1418,636c-6.16,4.88-15.17,10.91-27,15.44c-14.59,5.59-27.48,6.61-36,6.56"/>
<path class="st12" d="M1434,695c-6.06,8.87-14.93,19.84-26.57,28.08c-14.36,10.17-27.05,12.02-35.43,11.92"/>
<path class="st12" d="M1450,777c-6.94,8.2-17.1,18.35-30.43,25.97c-16.44,9.4-30.97,11.12-40.57,11.02"/>
<path class="st12" d="M1458,859c-6.95,5.63-17.14,12.59-30.5,17.82c-16.48,6.45-31.05,7.63-40.67,7.56"/>
<g>
	<path class="st13" d="M1813.54,559.99c-0.23,32.54-0.46,65.08-0.69,97.61c-0.02,2.81-0.03,5.69,0.97,8.32
		c0.84,2.22,2.34,4.12,3.82,5.98c4.57,5.74,9.14,11.49,13.72,17.23c10.29-7.13,11.87-21.45,12.5-33.95
		c0.41-8.06,0.81-16.12,1.22-24.18c0.82-16.3,1.61-32.88-2.29-48.72c-3.91-15.85-13.27-31.14-27.95-38.28
		c-0.77,8.12-1.54,16.25-2.31,24.37"/>
</g>
<g>
	<path class="st13" d="M1834.44,599.65c10.56,23.86,18.32,48.95,23.08,74.6c0.38,2.07,0.85,4.33,2.47,5.68
		c1.67,1.39,4.07,1.4,6.24,1.33c3.53-0.11,7.05-0.22,10.58-0.32c1.36-0.04,2.94-0.19,3.71-1.32c0.7-1.02,0.42-2.38,0.36-3.61
		c-0.28-5.85,4.9-10.44,6.71-16.01c2.06-6.34-0.42-13.18-2.88-19.37c-12.13-30.52-26.06-62.81-53.59-80.71
		c-1.64,16.31-2.82,34.35,7.04,47.44"/>
</g>
<g>
	<path class="st13" d="M1819.64,551.85c3.22-7.75,10.27-13.45,18.04-16.63c7.77-3.18,16.26-4.1,24.65-4.52
		c18.65-0.92,37.42,0.55,55.71,4.36c2.05,0.43,4.18,0.93,5.76,2.29c2.84,2.44,3,6.7,2.93,10.45c-0.62,30.28-2.44,60.53-5.47,90.66
		c-20.17-26.28-41.51-53.53-71.56-67.49c-11.48-5.33-24.38-8.85-33.13-17.99"/>
</g>
<g>
	<path class="st13" d="M1819.29,508.26c29.56-27.73,66.54-47.49,106.02-56.66c1.24-0.29,2.61-0.55,3.72,0.07
		c1.66,0.92,1.83,3.21,1.78,5.11c-0.42,16.42-1.28,32.82-2.58,49.19c-0.1,1.21-0.34,2.63-1.44,3.13c-0.93,0.42-2-0.05-2.91-0.51
		c-10.45-5.29-20.89-10.58-31.34-15.87c2.42,7.48,4.85,14.96,7.27,22.44c0.32,0.99,0.64,2.11,0.19,3.05
		c-0.39,0.83-1.27,1.29-2.09,1.69c-19.02,9.29-39.37,15.46-59.63,21.6c-6.24,1.89-13.69,3.57-18.74-0.56
		c-2.42-1.98-3.77-4.99-4.56-8.02c-2.85-10.92,1.25-23.35,10.04-30.43"/>
</g>
<g>
	<path class="st13" d="M1824.36,520.19c1.67-14.63-5.2-28.73-11.88-41.84c-3.94-7.74-7.91-15.52-13.07-22.51
		c-8.7-11.77-20.74-21.04-34.34-26.44c19.36,28.45,35.03,59.4,46.5,91.84c1.3,3.68,3.47,8.08,7.37,8.07c2.9,0,5.2-2.75,5.72-5.6
		c0.52-2.85-0.29-5.75-1.09-8.54"/>
</g>
<g>
	<path class="st13" d="M1793.75,459.04c-5.16,3.95-10.33,7.9-15.49,11.86c-1.93,1.48-4.07,3.03-6.5,2.94
		c-1.77-0.06-3.37-1-4.92-1.87c-19.61-11.03-42.35-14.8-64.57-18.4c-5.58-0.9-12.11-1.52-16.09,2.5c13.49,11.16,27.16,22.1,41,32.82
		c-5.32,1.15-9.99,4.96-12.18,9.94c27.95,0.02,51.96,18.33,76.39,31.91c7.01,3.9,17.06,6.92,21.98,0.59
		c2.33-2.99,2.48-7.1,2.33-10.89c-0.84-21.56-8.28-42.83-21.08-60.2"/>
</g>
<g>
	<path class="st13" d="M1767.5,506.35c-21.58,1.17-42.85,5.42-64.04,9.65c-21.43,4.28-44.74,9.68-58.18,26.91
		c3.14,2.65,7.79,2.1,11.74,3.25s7.3,6.64,3.97,9.06c12.28,2.64,24.96-0.51,37.27-3.03c38.58-7.89,78.43-9.55,117.53-4.89
		c4.87,0.58,10.47,1.03,14.01-2.36c4.08-3.9,2.9-11.11-0.95-15.23c-3.85-4.13-9.5-5.96-14.89-7.63
		c-18.61-5.77-37.22-11.54-55.84-17.31"/>
</g>
<g>
	<path class="st13" d="M1776.88,538.43c-19.12,5.78-38.23,11.56-57.35,17.33c-13.11,3.96-26.31,7.96-38.38,14.44
		c-13.12,7.04-24.56,16.84-35.16,27.3c6.33-2.05,12.66-4.1,18.99-6.16c-0.9,8.16-1.8,16.32-2.7,24.48
		c15.75-6.72,32.13-11.97,48.86-15.66c-3.19,14.77-2.15,30.43,2.99,44.64c6.53-9,17.83-12.93,26.86-19.42
		c17.37-12.48,25.98-34.15,42.38-47.87c13.86-11.59,32.18-16.61,46.52-27.61c3.9-2.99,7.82-7.78,5.92-12.31
		c-1.48-3.53-5.74-4.85-9.51-5.51c-19.62-3.46-40.32-0.5-58.19,8.32"/>
</g>
<g>
	<g>
		<path class="st5" d="M147.95,918.6c36.09,1.4,72.22,1.79,108.34,1.17c36.11-0.62,72.21-2.25,108.23-4.89
			c20.3-1.49,40.57-3.3,60.81-5.42c1.61-0.17,3-1.26,3-3c0-1.49-1.38-3.17-3-3c-35.92,3.77-71.95,6.54-108.02,8.3
			c-36.08,1.76-72.2,2.51-108.32,2.25c-20.35-0.15-40.7-0.62-61.04-1.4C144.09,912.45,144.1,918.45,147.95,918.6L147.95,918.6z"/>
	</g>
</g>
<g>
	<g>
		<path class="st5" d="M876.95,860.6c36.09,1.4,72.22,1.79,108.34,1.17c36.11-0.62,72.21-2.25,108.23-4.89
			c20.3-1.49,40.57-3.3,60.81-5.42c1.61-0.17,3-1.26,3-3c0-1.49-1.38-3.17-3-3c-35.92,3.77-71.95,6.54-108.02,8.3
			c-36.08,1.76-72.2,2.51-108.32,2.25c-20.35-0.15-40.7-0.62-61.04-1.4C873.09,854.45,873.1,860.45,876.95,860.6L876.95,860.6z"/>
	</g>
</g>
<g>
	<g>
		<path class="st5" d="M490.95,859.83c18.18,1.03,36.4,1.32,54.6,0.85c18.14-0.47,36.26-1.68,54.3-3.62
			c10.34-1.12,20.66-2.47,30.94-4.05c1.6-0.25,2.49-2.26,2.1-3.69c-0.47-1.71-2.08-2.34-3.69-2.1c-17.79,2.73-35.69,4.74-53.65,6.01
			c-18,1.28-36.06,1.82-54.1,1.63c-10.17-0.11-20.34-0.46-30.5-1.03c-1.62-0.09-3,1.44-3,3
			C487.95,858.53,489.33,859.74,490.95,859.83L490.95,859.83z"/>
	</g>
</g>
<g>
	<g>
		<path class="st1" d="M483.48,361.79c2.26-0.21,4.49-0.15,6.75,0.07c-0.43-0.04-0.46-0.07-0.01,0c0.26,0.04,0.52,0.09,0.78,0.13
			c0.59,0.11,1.17,0.23,1.75,0.37c1.1,0.26,2.18,0.58,3.24,0.96c0.5,0.18,0.99,0.37,1.49,0.57c-0.41-0.16-0.34-0.15,0.02,0.02
			c0.24,0.11,0.48,0.22,0.72,0.34c1.02,0.49,2.01,1.03,2.96,1.62c0.51,0.31,1.01,0.64,1.5,0.98c0.22,0.15,0.43,0.31,0.65,0.46
			c0.31,0.22,0.38,0.3,0.04,0.02c0.92,0.76,1.82,1.54,2.66,2.39c1.84,1.84,5.9,1.82,7.07-0.91c0.39-0.9,0.82-1.77,1.32-2.61
			c0.28-0.47,0.58-0.93,0.9-1.37c0.06-0.08,0.54-0.7,0.2-0.28c-0.34,0.43,0.16-0.18,0.22-0.25c0.63-0.74,1.31-1.44,2.04-2.1
			c0.18-0.16,0.36-0.32,0.55-0.48c0.07-0.06,0.68-0.57,0.26-0.22c-0.42,0.34,0.2-0.14,0.28-0.2c0.25-0.18,0.5-0.35,0.75-0.52
			c0.82-0.54,1.67-1.02,2.55-1.45c0.22-0.11,0.45-0.2,0.66-0.31c-0.34,0.17-0.52,0.2-0.06,0.03c0.46-0.17,0.91-0.34,1.38-0.49
			c0.99-0.31,2-0.51,3.02-0.72c0.65-0.14-0.77,0.06-0.11,0.01c0.24-0.02,0.49-0.05,0.73-0.07c0.55-0.04,1.1-0.05,1.65-0.05
			c2.35,0,4.61-2.07,4.5-4.5c-0.11-2.44-1.98-4.5-4.5-4.5c-10.07-0.02-20.1,6.2-24.1,15.54c2.36-0.3,4.71-0.61,7.07-0.91
			c-7.49-7.47-18.34-11.56-28.91-10.57c-2.34,0.22-4.62,1.91-4.5,4.5C479.08,359.54,480.97,362.03,483.48,361.79L483.48,361.79z"/>
	</g>
</g>
<g>
	<g>
		<path class="st1" d="M765.31,338.72c0.24-0.01,0.49-0.01,0.73,0.01c-0.6-0.09-0.65-0.08-0.15,0.03c0.88,0.22-0.61-0.42,0.26,0.08
			c0.76,0.44,1.48,0.91,2.2,1.43c-0.63-0.46,0.08,0.06,0.31,0.24c0.56,0.43,1.11,0.87,1.67,1.29c0.67,0.5,1.36,0.97,2.1,1.37
			c3.46,1.89,7.47,2.64,11.39,2.23c7.91-0.82,15.04-4.85,21.47-9.3c1.93-1.34,3-4.01,1.61-6.16c-1.24-1.92-4.09-3.05-6.16-1.61
			c-2.96,2.05-6.02,3.98-9.26,5.56c-0.38,0.18-0.75,0.36-1.13,0.53c-0.25,0.11-0.51,0.23-0.76,0.34c0.38-0.16,0.42-0.18,0.12-0.06
			c-0.83,0.29-1.65,0.62-2.49,0.88c-0.82,0.25-1.65,0.47-2.5,0.65c-0.44,0.09-0.89,0.17-1.34,0.24c0.8-0.12,0.05-0.02-0.33,0
			c-0.75,0.05-1.5,0.06-2.26,0.02c-0.25-0.01-0.5-0.03-0.74-0.06c0.52,0.08,0.61,0.09,0.28,0.04c-0.42-0.09-0.85-0.16-1.27-0.27
			c-0.36-0.1-0.71-0.22-1.07-0.32c-0.97-0.29,0.51,0.31-0.33-0.12c-0.81-0.42-1.58-0.85-2.32-1.38c-0.17-0.12-1.07-0.81-0.31-0.22
			c-0.31-0.24-0.61-0.47-0.91-0.71c-0.9-0.7-1.79-1.42-2.77-2.01c-1.82-1.09-3.89-1.75-6.03-1.71c-2.35,0.05-4.61,2.03-4.5,4.5
			C760.92,336.62,762.79,338.78,765.31,338.72L765.31,338.72z"/>
	</g>
</g>
<g>
	<g>
		<path class="st1" d="M1768.8,112.85c2.12-0.63,4.26-1.19,6.43-1.64c0.95-0.2,1.9-0.38,2.85-0.54c0.54-0.09,1.09-0.18,1.64-0.26
			c0.27-0.04,0.55-0.08,0.82-0.12c-0.66,0.09-0.12,0.02,0.24-0.03c4.32-0.53,8.69-0.7,13.04-0.53c2.14,0.08,4.28,0.25,6.41,0.5
			c0.26,0.03,1.5,0.2,0.66,0.08c0.55,0.08,1.09,0.16,1.64,0.25c1.09,0.18,2.18,0.37,3.27,0.59c4.27,0.86,8.47,2.06,12.55,3.59
			c0.58,0.22,1.16,0.44,1.74,0.67c0.19,0.08,0.38,0.16,0.58,0.23c0.47,0.18-0.5-0.22,0.26,0.11c1.14,0.5,2.27,1.01,3.39,1.56
			c2.24,1.09,4.42,2.3,6.54,3.59c1.61,0.98,4.17,0.76,5.45-0.7c1.4-1.6,2.86-3.13,4.41-4.58c0.77-0.73,1.56-1.43,2.37-2.12
			c0.4-0.34,0.81-0.68,1.22-1.02c0.13-0.1,1.42-1.12,0.65-0.53c3.26-2.5,6.76-4.69,10.42-6.55c3.7-1.88,6.31-2.93,10.74-4.21
			c2.04-0.59,4.1-1.08,6.18-1.47c0.52-0.1,1.04-0.19,1.57-0.27c0.19-0.03,1.86-0.27,0.77-0.13c1.05-0.14,2.11-0.25,3.16-0.33
			c2.34-0.2,4.62-1.93,4.5-4.5c-0.1-2.27-1.99-4.71-4.5-4.5c-14.46,1.21-28.06,6.72-39.39,15.76c-3.06,2.44-5.88,5.15-8.46,8.1
			c1.82-0.23,3.64-0.47,5.45-0.7c-15.74-9.61-34.81-13.94-53.17-12.03c-5.36,0.55-10.65,1.54-15.81,3.08
			c-2.25,0.67-3.9,3.19-3.14,5.54C1764.01,111.99,1766.39,113.57,1768.8,112.85L1768.8,112.85z"/>
	</g>
</g>
</svg>
