<?xml version="1.0" encoding="utf-8"?>
<!-- Generator: Adobe Illustrator 23.0.5, SVG Export Plug-In . SVG Version: 6.00 Build 0)  -->
<svg version="1.1" id="圖層_1" xmlns="http://www.w3.org/2000/svg" xmlns:xlink="http://www.w3.org/1999/xlink" x="0px" y="0px"
	 viewBox="0 0 1920 1080" style="enable-background:new 0 0 1920 1080;" xml:space="preserve">
<style type="text/css">
	.st0{fill:none;stroke:#000000;stroke-width:4;stroke-miterlimit:10;}
</style>
<g>
	<g>
		<polygon class="st0" points="890.15,384.63 900.15,406.69 922.5,410.23 906.32,427.4 910.14,451.65 890.15,440.2 870.16,451.65 
			873.98,427.4 857.81,410.23 880.16,406.69 		"/>
		<polygon class="st0" points="975.31,385.25 985.3,407.32 1007.65,410.86 991.48,428.03 995.29,452.28 975.31,440.83 
			955.32,452.28 959.13,428.03 942.96,410.86 965.31,407.32 		"/>
		<polygon class="st0" points="1060.46,383.37 1070.45,405.44 1092.8,408.98 1076.63,426.15 1080.45,450.4 1060.46,438.95 
			1040.47,450.4 1044.29,426.15 1028.12,408.98 1050.46,405.44 		"/>
		<polygon class="st0" points="1145.61,384 1155.61,406.06 1177.95,409.6 1161.78,426.78 1165.6,451.03 1145.61,439.58 
			1125.62,451.03 1129.44,426.78 1113.27,409.6 1135.62,406.06 		"/>
		<polygon class="st0" points="1230.76,382.75 1240.76,404.81 1263.11,408.35 1246.94,425.52 1250.75,449.78 1230.76,438.33 
			1210.78,449.78 1214.59,425.52 1198.42,408.35 1220.77,404.81 		"/>
	</g>
	<g>
		<polygon class="st0" points="975.31,507.88 985.3,529.95 1007.65,533.48 991.48,550.66 995.29,574.91 975.31,563.46 
			955.32,574.91 959.13,550.66 942.96,533.48 965.31,529.95 		"/>
		<polygon class="st0" points="1060.46,508.51 1070.45,530.57 1092.8,534.11 1076.63,551.28 1080.45,575.54 1060.46,564.09 
			1040.47,575.54 1044.29,551.28 1028.12,534.11 1050.46,530.57 		"/>
		<polygon class="st0" points="1145.61,506.63 1155.61,528.69 1177.95,532.23 1161.78,549.41 1165.6,573.66 1145.61,562.21 
			1125.62,573.66 1129.44,549.41 1113.27,532.23 1135.62,528.69 		"/>
	</g>
	<polygon class="st0" points="1060.46,629.88 1070.45,651.95 1092.8,655.49 1076.63,672.66 1080.45,696.91 1060.46,685.46 
		1040.47,696.91 1044.29,672.66 1028.12,655.49 1050.46,651.95 	"/>
</g>
</svg>
