<?xml version="1.0" encoding="utf-8"?>
<!-- Generator: Adobe Illustrator 23.0.5, SVG Export Plug-In . SVG Version: 6.00 Build 0)  -->
<svg version="1.1" id="圖層_1" xmlns="http://www.w3.org/2000/svg" xmlns:xlink="http://www.w3.org/1999/xlink" x="0px" y="0px"
	 viewBox="0 0 1920 1080" style="enable-background:new 0 0 1920 1080;" xml:space="preserve">
<style type="text/css">
	.st0{fill:none;stroke:#000000;stroke-width:4;stroke-miterlimit:10;}
</style>
<g>
	<polygon class="st0" points="889.89,509.9 899.88,531.97 922.23,535.51 906.06,552.68 909.88,576.93 889.89,565.48 869.9,576.93 
		873.72,552.68 857.54,535.51 879.89,531.97 	"/>
	<polygon class="st0" points="975.04,510.53 985.04,532.6 1007.38,536.13 991.21,553.31 995.03,577.56 975.04,566.11 955.05,577.56 
		958.87,553.31 942.7,536.13 965.05,532.6 	"/>
	<polygon class="st0" points="1060.19,508.65 1070.19,530.72 1092.54,534.25 1076.37,551.43 1080.18,575.68 1060.19,564.23 
		1040.21,575.68 1044.02,551.43 1027.85,534.25 1050.2,530.72 	"/>
	<polygon class="st0" points="1145.35,509.28 1155.34,531.34 1177.69,534.88 1161.52,552.06 1165.34,576.31 1145.35,564.86 
		1125.36,576.31 1129.18,552.06 1113,534.88 1135.35,531.34 	"/>
	<polygon class="st0" points="1230.5,508.03 1240.49,530.09 1262.84,533.63 1246.67,550.8 1250.49,575.05 1230.5,563.6 
		1210.51,575.05 1214.33,550.8 1198.16,533.63 1220.51,530.09 	"/>
</g>
<g>
	<polygon class="st0" points="975.04,633.16 985.04,655.22 1007.38,658.76 991.21,675.94 995.03,700.19 975.04,688.74 
		955.05,700.19 958.87,675.94 942.7,658.76 965.05,655.22 	"/>
	<polygon class="st0" points="1060.19,633.79 1070.19,655.85 1092.54,659.39 1076.37,676.56 1080.18,700.81 1060.19,689.36 
		1040.21,700.81 1044.02,676.56 1027.85,659.39 1050.2,655.85 	"/>
	<polygon class="st0" points="1145.35,631.91 1155.34,653.97 1177.69,657.51 1161.52,674.68 1165.34,698.94 1145.35,687.49 
		1125.36,698.94 1129.18,674.68 1113,657.51 1135.35,653.97 	"/>
</g>
<g>
	<g>
		<polygon class="st0" points="804.22,386.02 814.21,408.09 836.56,411.63 820.39,428.8 824.21,453.05 804.22,441.6 784.23,453.05 
			788.05,428.8 771.88,411.63 794.23,408.09 		"/>
		<polygon class="st0" points="889.37,386.65 899.37,408.71 921.72,412.25 905.54,429.43 909.36,453.68 889.37,442.23 
			869.38,453.68 873.2,429.43 857.03,412.25 879.38,408.71 		"/>
		<polygon class="st0" points="974.53,384.77 984.52,406.84 1006.87,410.37 990.7,427.55 994.52,451.8 974.53,440.35 954.54,451.8 
			958.35,427.55 942.18,410.37 964.53,406.84 		"/>
		<polygon class="st0" points="1059.68,385.4 1069.67,407.46 1092.02,411 1075.85,428.17 1079.67,452.43 1059.68,440.98 
			1039.69,452.43 1043.51,428.17 1027.34,411 1049.68,407.46 		"/>
		<polygon class="st0" points="1144.83,384.14 1154.83,406.21 1177.18,409.75 1161,426.92 1164.82,451.17 1144.83,439.72 
			1124.84,451.17 1128.66,426.92 1112.49,409.75 1134.84,406.21 		"/>
	</g>
	<polygon class="st0" points="1231.02,384.46 1241.01,406.52 1263.36,410.06 1247.19,427.24 1251,451.49 1231.02,440.04 
		1211.03,451.49 1214.84,427.24 1198.67,410.06 1221.02,406.52 	"/>
	<polygon class="st0" points="1316.17,385.08 1326.16,407.15 1348.51,410.69 1332.34,427.86 1336.16,452.11 1316.17,440.66 
		1296.18,452.11 1300,427.86 1283.83,410.69 1306.17,407.15 	"/>
</g>
<g>
	<polygon class="st0" points="1317.01,259.32 1327.01,281.39 1349.35,284.93 1333.18,302.1 1337,326.35 1317.01,314.9 
		1297.02,326.35 1300.84,302.1 1284.67,284.93 1307.02,281.39 	"/>
	<polygon class="st0" points="1402.62,259.76 1412.61,281.82 1434.96,285.36 1418.79,302.53 1422.61,326.78 1402.62,315.33 
		1382.63,326.78 1386.45,302.53 1370.27,285.36 1392.62,281.82 	"/>
	<polygon class="st0" points="717.77,262.34 727.77,284.4 750.11,287.94 733.94,305.12 737.76,329.37 717.77,317.92 697.78,329.37 
		701.6,305.12 685.43,287.94 707.78,284.4 	"/>
	<polygon class="st0" points="803.38,262.77 813.37,284.83 835.72,288.37 819.55,305.55 823.37,329.8 803.38,318.35 783.39,329.8 
		787.21,305.55 771.03,288.37 793.38,284.83 	"/>
	<polygon class="st0" points="888.98,261.05 898.98,283.11 921.33,286.65 905.15,303.82 908.97,328.08 888.98,316.63 868.99,328.08 
		872.81,303.82 856.64,286.65 878.99,283.11 	"/>
	<polygon class="st0" points="974.59,261.91 984.58,283.97 1006.93,287.51 990.76,304.69 994.58,328.94 974.59,317.49 954.6,328.94 
		958.42,304.69 942.25,287.51 964.59,283.97 	"/>
	<polygon class="st0" points="1060.19,260.19 1070.19,282.25 1092.54,285.79 1076.37,302.96 1080.18,327.21 1060.19,315.76 
		1040.21,327.21 1044.02,302.96 1027.85,285.79 1050.2,282.25 	"/>
	<polygon class="st0" points="1145.8,260.62 1155.79,282.68 1178.14,286.22 1161.97,303.39 1165.79,327.64 1145.8,316.19 
		1125.81,327.64 1129.63,303.39 1113.46,286.22 1135.81,282.68 	"/>
	<polygon class="st0" points="1231.41,261.48 1241.4,283.54 1263.75,287.08 1247.58,304.25 1251.39,328.51 1231.41,317.06 
		1211.42,328.51 1215.23,304.25 1199.06,287.08 1221.41,283.54 	"/>
</g>
<polygon class="st0" points="1060.19,755.16 1070.19,777.23 1092.54,780.76 1076.37,797.94 1080.18,822.19 1060.19,810.74 
	1040.21,822.19 1044.02,797.94 1027.85,780.76 1050.2,777.23 "/>
</svg>
