<?xml version="1.0" encoding="utf-8"?>
<!-- Generator: Adobe Illustrator 23.0.5, SVG Export Plug-In . SVG Version: 6.00 Build 0)  -->
<svg version="1.1" id="圖層_1" xmlns="http://www.w3.org/2000/svg" xmlns:xlink="http://www.w3.org/1999/xlink" x="0px" y="0px"
	 viewBox="0 0 1920 1080" style="enable-background:new 0 0 1920 1080;" xml:space="preserve">
<style type="text/css">
	.st0{fill:none;stroke:#000000;stroke-width:4;stroke-miterlimit:10;}
</style>
<g>
	<polygon class="st0" points="889.48,634.19 899.48,656.25 921.83,659.79 905.66,676.96 909.47,701.22 889.48,689.77 869.5,701.22 
		873.31,676.96 857.14,659.79 879.49,656.25 	"/>
	<polygon class="st0" points="974.64,634.81 984.63,656.88 1006.98,660.42 990.81,677.59 994.63,701.84 974.64,690.39 
		954.65,701.84 958.47,677.59 942.29,660.42 964.64,656.88 	"/>
	<polygon class="st0" points="1059.79,632.93 1069.79,655 1092.13,658.54 1075.96,675.71 1079.78,699.96 1059.79,688.51 
		1039.8,699.96 1043.62,675.71 1027.45,658.54 1049.8,655 	"/>
	<polygon class="st0" points="1144.94,633.56 1154.94,655.62 1177.29,659.16 1161.12,676.34 1164.93,700.59 1144.94,689.14 
		1124.95,700.59 1128.77,676.34 1112.6,659.16 1134.95,655.62 	"/>
	<polygon class="st0" points="1230.1,632.31 1240.09,654.37 1262.44,657.91 1246.27,675.09 1250.09,699.34 1230.1,687.89 
		1210.11,699.34 1213.93,675.09 1197.75,657.91 1220.1,654.37 	"/>
</g>
<g>
	<polygon class="st0" points="974.64,757.44 984.63,779.51 1006.98,783.04 990.81,800.22 994.63,824.47 974.64,813.02 
		954.65,824.47 958.47,800.22 942.29,783.04 964.64,779.51 	"/>
	<polygon class="st0" points="1059.79,758.07 1069.79,780.13 1092.13,783.67 1075.96,800.85 1079.78,825.1 1059.79,813.65 
		1039.8,825.1 1043.62,800.85 1027.45,783.67 1049.8,780.13 	"/>
	<polygon class="st0" points="1144.94,756.19 1154.94,778.25 1177.29,781.79 1161.12,798.97 1164.93,823.22 1144.94,811.77 
		1124.95,823.22 1128.77,798.97 1112.6,781.79 1134.95,778.25 	"/>
</g>
<g>
	<g>
		<polygon class="st0" points="803.82,510.31 813.81,532.37 836.16,535.91 819.99,553.08 823.81,577.33 803.82,565.88 
			783.83,577.33 787.64,553.08 771.47,535.91 793.82,532.37 		"/>
		<polygon class="st0" points="888.97,510.93 898.96,533 921.31,536.53 905.14,553.71 908.96,577.96 888.97,566.51 868.98,577.96 
			872.8,553.71 856.63,536.53 878.97,533 		"/>
		<polygon class="st0" points="974.12,509.05 984.12,531.12 1006.47,534.66 990.29,551.83 994.11,576.08 974.12,564.63 
			954.13,576.08 957.95,551.83 941.78,534.66 964.13,531.12 		"/>
		<polygon class="st0" points="1059.28,509.68 1069.27,531.74 1091.62,535.28 1075.45,552.46 1079.26,576.71 1059.28,565.26 
			1039.29,576.71 1043.1,552.46 1026.93,535.28 1049.28,531.74 		"/>
		<polygon class="st0" points="1144.43,508.43 1154.42,530.49 1176.77,534.03 1160.6,551.2 1164.42,575.46 1144.43,564.01 
			1124.44,575.46 1128.26,551.2 1112.09,534.03 1134.43,530.49 		"/>
	</g>
	<polygon class="st0" points="1230.61,508.74 1240.61,530.8 1262.96,534.34 1246.78,551.52 1250.6,575.77 1230.61,564.32 
		1210.62,575.77 1214.44,551.52 1198.27,534.34 1220.62,530.8 	"/>
	<polygon class="st0" points="1315.77,509.37 1325.76,531.43 1348.11,534.97 1331.94,552.14 1335.75,576.39 1315.77,564.94 
		1295.78,576.39 1299.59,552.14 1283.42,534.97 1305.77,531.43 	"/>
</g>
<g>
	<polygon class="st0" points="1316.61,383.61 1326.6,405.67 1348.95,409.21 1332.78,426.38 1336.6,450.63 1316.61,439.18 
		1296.62,450.63 1300.44,426.38 1284.26,409.21 1306.61,405.67 	"/>
	<polygon class="st0" points="1402.21,384.04 1412.21,406.1 1434.56,409.64 1418.38,426.81 1422.2,451.07 1402.21,439.62 
		1382.22,451.07 1386.04,426.81 1369.87,409.64 1392.22,406.1 	"/>
	<polygon class="st0" points="717.37,386.62 727.36,408.69 749.71,412.22 733.54,429.4 737.36,453.65 717.37,442.2 697.38,453.65 
		701.2,429.4 685.03,412.22 707.37,408.69 	"/>
	<polygon class="st0" points="802.97,387.05 812.97,409.12 835.32,412.65 819.15,429.83 822.96,454.08 802.97,442.63 782.98,454.08 
		786.8,429.83 770.63,412.65 792.98,409.12 	"/>
	<polygon class="st0" points="888.58,385.33 898.57,407.39 920.92,410.93 904.75,428.11 908.57,452.36 888.58,440.91 868.59,452.36 
		872.41,428.11 856.24,410.93 878.58,407.39 	"/>
	<polygon class="st0" points="974.19,386.19 984.18,408.25 1006.53,411.79 990.36,428.97 994.17,453.22 974.19,441.77 954.2,453.22 
		958.01,428.97 941.84,411.79 964.19,408.25 	"/>
	<polygon class="st0" points="1059.79,384.47 1069.79,406.53 1092.13,410.07 1075.96,427.24 1079.78,451.5 1059.79,440.05 
		1039.8,451.5 1043.62,427.24 1027.45,410.07 1049.8,406.53 	"/>
	<polygon class="st0" points="1145.4,384.9 1155.39,406.96 1177.74,410.5 1161.57,427.68 1165.39,451.93 1145.4,440.48 
		1125.41,451.93 1129.22,427.68 1113.05,410.5 1135.4,406.96 	"/>
	<polygon class="st0" points="1231,385.76 1241,407.82 1263.35,411.36 1247.17,428.54 1250.99,452.79 1231,441.34 1211.01,452.79 
		1214.83,428.54 1198.66,411.36 1221.01,407.82 	"/>
</g>
<g>
	<polygon class="st0" points="1402.76,259.82 1412.75,281.88 1435.1,285.42 1418.93,302.6 1422.75,326.85 1402.76,315.4 
		1382.77,326.85 1386.59,302.6 1370.42,285.42 1392.76,281.88 	"/>
	<polygon class="st0" points="1488.5,260.85 1498.5,282.92 1520.84,286.46 1504.67,303.63 1508.49,327.88 1488.5,316.43 
		1468.51,327.88 1472.33,303.63 1456.16,286.46 1478.51,282.92 	"/>
	<polygon class="st0" points="1231.28,258.79 1241.27,280.85 1263.62,284.39 1247.45,301.56 1251.26,325.81 1231.28,314.36 
		1211.29,325.81 1215.1,301.56 1198.93,284.39 1221.28,280.85 	"/>
	<polygon class="st0" points="1317.02,259.13 1327.01,281.19 1349.36,284.73 1333.19,301.91 1337.01,326.16 1317.02,314.71 
		1297.03,326.16 1300.85,301.91 1284.67,284.73 1307.02,281.19 	"/>
	<polygon class="st0" points="631.08,261.89 641.07,283.95 663.42,287.49 647.25,304.66 651.07,328.91 631.08,317.46 611.09,328.91 
		614.91,304.66 598.74,287.49 621.09,283.95 	"/>
	<polygon class="st0" points="716.82,262.23 726.82,284.3 749.17,287.83 732.99,305.01 736.81,329.26 716.82,317.81 696.83,329.26 
		700.65,305.01 684.48,287.83 706.83,284.3 	"/>
	<polygon class="st0" points="802.56,260.51 812.56,282.57 834.91,286.11 818.74,303.29 822.55,327.54 802.56,316.09 782.58,327.54 
		786.39,303.29 770.22,286.11 792.57,282.57 	"/>
	<polygon class="st0" points="888.31,261.54 898.3,283.61 920.65,287.14 904.48,304.32 908.3,328.57 888.31,317.12 868.32,328.57 
		872.13,304.32 855.96,287.14 878.31,283.61 	"/>
	<polygon class="st0" points="974.05,259.47 984.04,281.54 1006.39,285.08 990.22,302.25 994.04,326.5 974.05,315.05 954.06,326.5 
		957.88,302.25 941.71,285.08 964.05,281.54 	"/>
	<polygon class="st0" points="1059.79,260.16 1069.79,282.23 1092.13,285.77 1075.96,302.94 1079.78,327.19 1059.79,315.74 
		1039.8,327.19 1043.62,302.94 1027.45,285.77 1049.8,282.23 	"/>
	<polygon class="st0" points="1145.53,261.2 1155.53,283.26 1177.88,286.8 1161.7,303.97 1165.52,328.23 1145.53,316.78 
		1125.54,328.23 1129.36,303.97 1113.19,286.8 1135.54,283.26 	"/>
</g>
<g>
	<polygon class="st0" points="1488.66,134.25 1498.66,156.32 1521.01,159.86 1504.83,177.03 1508.65,201.28 1488.66,189.83 
		1468.67,201.28 1472.49,177.03 1456.32,159.86 1478.67,156.32 	"/>
	<polygon class="st0" points="1574.44,134.83 1584.43,156.89 1606.78,160.43 1590.61,177.6 1594.43,201.86 1574.44,190.41 
		1554.45,201.86 1558.27,177.6 1542.09,160.43 1564.44,156.89 	"/>
	<polygon class="st0" points="1317.11,135.4 1327.11,157.47 1349.46,161 1333.29,178.18 1337.1,202.43 1317.11,190.98 
		1297.12,202.43 1300.94,178.18 1284.77,161 1307.12,157.47 	"/>
	<polygon class="st0" points="1402.89,136.26 1412.88,158.33 1435.23,161.86 1419.06,179.04 1422.88,203.29 1402.89,191.84 
		1382.9,203.29 1386.72,179.04 1370.55,161.86 1392.89,158.33 	"/>
	<polygon class="st0" points="1145.57,133.97 1155.56,156.03 1177.91,159.57 1161.74,176.74 1165.55,200.99 1145.57,189.54 
		1125.58,200.99 1129.39,176.74 1113.22,159.57 1135.57,156.03 	"/>
	<polygon class="st0" points="1231.34,134.54 1241.33,156.6 1263.68,160.14 1247.51,177.32 1251.33,201.57 1231.34,190.12 
		1211.35,201.57 1215.17,177.32 1199,160.14 1221.34,156.6 	"/>
	<polygon class="st0" points="545.14,137.12 555.14,159.19 577.49,162.73 561.32,179.9 565.13,204.15 545.14,192.7 525.16,204.15 
		528.97,179.9 512.8,162.73 535.15,159.19 	"/>
	<polygon class="st0" points="630.92,137.41 640.91,159.47 663.26,163.01 647.09,180.19 650.91,204.44 630.92,192.99 610.93,204.44 
		614.75,180.19 598.58,163.01 620.92,159.47 	"/>
	<polygon class="st0" points="716.69,135.98 726.69,158.04 749.04,161.58 732.86,178.75 736.68,203 716.69,191.55 696.7,203 
		700.52,178.75 684.35,161.58 706.7,158.04 	"/>
	<polygon class="st0" points="802.47,136.84 812.46,158.9 834.81,162.44 818.64,179.61 822.46,203.86 802.47,192.41 782.48,203.86 
		786.3,179.61 770.12,162.44 792.47,158.9 	"/>
	<polygon class="st0" points="888.24,135.11 898.24,157.18 920.59,160.72 904.41,177.89 908.23,202.14 888.24,190.69 868.25,202.14 
		872.07,177.89 855.9,160.72 878.25,157.18 	"/>
	<polygon class="st0" points="974.02,135.69 984.01,157.75 1006.36,161.29 990.19,178.47 994.01,202.72 974.02,191.27 
		954.03,202.72 957.84,178.47 941.67,161.29 964.02,157.75 	"/>
	<polygon class="st0" points="1059.79,136.55 1069.79,158.61 1092.13,162.15 1075.96,179.33 1079.78,203.58 1059.79,192.13 
		1039.8,203.58 1043.62,179.33 1027.45,162.15 1049.8,158.61 	"/>
</g>
<polygon class="st0" points="1059.79,879.44 1069.79,901.51 1092.13,905.05 1075.96,922.22 1079.78,946.47 1059.79,935.02 
	1039.8,946.47 1043.62,922.22 1027.45,905.05 1049.8,901.51 "/>
</svg>
