<?xml version="1.0" encoding="utf-8"?>
<!-- Generator: Adobe Illustrator 23.0.5, SVG Export Plug-In . SVG Version: 6.00 Build 0)  -->
<svg version="1.1" id="圖層_1" xmlns="http://www.w3.org/2000/svg" xmlns:xlink="http://www.w3.org/1999/xlink" x="0px" y="0px"
	 viewBox="0 0 1920 1080" style="enable-background:new 0 0 1920 1080;" xml:space="preserve">
<style type="text/css">
	.st0{fill:none;stroke:#000000;stroke-width:4;stroke-miterlimit:10;}
</style>
<g>
	<g>
		<polygon class="st0" points="789.54,380.73 799.54,402.79 821.89,406.33 805.72,423.51 809.53,447.76 789.54,436.31 
			769.56,447.76 773.37,423.51 757.2,406.33 779.55,402.79 		"/>
		<polygon class="st0" points="874.7,381.35 884.69,403.42 907.04,406.96 890.87,424.13 894.69,448.38 874.7,436.93 854.71,448.38 
			858.53,424.13 842.35,406.96 864.7,403.42 		"/>
		<polygon class="st0" points="959.85,379.48 969.85,401.54 992.19,405.08 976.02,422.25 979.84,446.5 959.85,435.05 939.86,446.5 
			943.68,422.25 927.51,405.08 949.86,401.54 		"/>
		<polygon class="st0" points="1045,380.1 1055,402.17 1077.35,405.7 1061.18,422.88 1064.99,447.13 1045,435.68 1025.01,447.13 
			1028.83,422.88 1012.66,405.7 1035.01,402.17 		"/>
		<polygon class="st0" points="1130.16,378.85 1140.15,400.91 1162.5,404.45 1146.33,421.63 1150.15,445.88 1130.16,434.43 
			1110.17,445.88 1113.99,421.63 1097.81,404.45 1120.16,400.91 		"/>
	</g>
	<g>
		<polygon class="st0" points="874.7,256.85 884.69,278.91 907.04,282.45 890.87,299.62 894.69,323.88 874.7,312.43 854.71,323.88 
			858.53,299.62 842.35,282.45 864.7,278.91 		"/>
		<polygon class="st0" points="959.85,257.47 969.85,279.54 992.19,283.08 976.02,300.25 979.84,324.5 959.85,313.05 939.86,324.5 
			943.68,300.25 927.51,283.08 949.86,279.54 		"/>
		<polygon class="st0" points="1045,255.59 1055,277.66 1077.35,281.2 1061.18,298.37 1064.99,322.62 1045,311.17 1025.01,322.62 
			1028.83,298.37 1012.66,281.2 1035.01,277.66 		"/>
	</g>
	<g>
		<g>
			<polygon class="st0" points="703.88,504.61 713.87,526.67 736.22,530.21 720.05,547.39 723.87,571.64 703.88,560.19 
				683.89,571.64 687.7,547.39 671.53,530.21 693.88,526.67 			"/>
			<polygon class="st0" points="789.03,505.24 799.02,527.3 821.37,530.84 805.2,548.01 809.02,572.26 789.03,560.81 769.04,572.26 
				772.86,548.01 756.69,530.84 779.03,527.3 			"/>
			<polygon class="st0" points="874.18,503.36 884.18,525.42 906.53,528.96 890.35,546.13 894.17,570.38 874.18,558.93 
				854.19,570.38 858.01,546.13 841.84,528.96 864.19,525.42 			"/>
			<polygon class="st0" points="959.34,503.98 969.33,526.05 991.68,529.59 975.51,546.76 979.32,571.01 959.34,559.56 
				939.35,571.01 943.16,546.76 926.99,529.59 949.34,526.05 			"/>
			<polygon class="st0" points="1044.49,502.73 1054.48,524.79 1076.83,528.33 1060.66,545.51 1064.48,569.76 1044.49,558.31 
				1024.5,569.76 1028.32,545.51 1012.15,528.33 1034.49,524.79 			"/>
		</g>
		<polygon class="st0" points="1130.67,503.04 1140.67,525.11 1163.02,528.65 1146.84,545.82 1150.66,570.07 1130.67,558.62 
			1110.68,570.07 1114.5,545.82 1098.33,528.65 1120.68,525.11 		"/>
		<polygon class="st0" points="1215.83,503.67 1225.82,525.73 1248.17,529.27 1232,546.45 1235.81,570.7 1215.83,559.25 
			1195.84,570.7 1199.65,546.45 1183.48,529.27 1205.83,525.73 		"/>
	</g>
	<g>
		<polygon class="st0" points="1216.67,626.61 1226.66,648.68 1249.01,652.21 1232.84,669.39 1236.66,693.64 1216.67,682.19 
			1196.68,693.64 1200.5,669.39 1184.32,652.21 1206.67,648.68 		"/>
		<polygon class="st0" points="1302.27,627.04 1312.27,649.11 1334.62,652.64 1318.44,669.82 1322.26,694.07 1302.27,682.62 
			1282.28,694.07 1286.1,669.82 1269.93,652.64 1292.28,649.11 		"/>
		<polygon class="st0" points="617.43,629.63 627.42,651.69 649.77,655.23 633.6,672.4 637.42,696.65 617.43,685.2 597.44,696.65 
			601.26,672.4 585.09,655.23 607.43,651.69 		"/>
		<polygon class="st0" points="703.03,630.06 713.03,652.12 735.38,655.66 719.21,672.83 723.02,697.08 703.03,685.63 
			683.04,697.08 686.86,672.83 670.69,655.66 693.04,652.12 		"/>
		<polygon class="st0" points="788.64,628.33 798.63,650.4 820.98,653.94 804.81,671.11 808.63,695.36 788.64,683.91 768.65,695.36 
			772.47,671.11 756.3,653.94 778.64,650.4 		"/>
		<polygon class="st0" points="874.25,629.19 884.24,651.26 906.59,654.8 890.42,671.97 894.23,696.22 874.25,684.77 854.26,696.22 
			858.07,671.97 841.9,654.8 864.25,651.26 		"/>
		<polygon class="st0" points="959.85,627.47 969.85,649.54 992.19,653.07 976.02,670.25 979.84,694.5 959.85,683.05 939.86,694.5 
			943.68,670.25 927.51,653.07 949.86,649.54 		"/>
		<polygon class="st0" points="1045.46,627.9 1055.45,649.97 1077.8,653.51 1061.63,670.68 1065.45,694.93 1045.46,683.48 
			1025.47,694.93 1029.28,670.68 1013.11,653.51 1035.46,649.97 		"/>
		<polygon class="st0" points="1131.06,628.76 1141.06,650.83 1163.41,654.37 1147.23,671.54 1151.05,695.79 1131.06,684.34 
			1111.07,695.79 1114.89,671.54 1098.72,654.37 1121.07,650.83 		"/>
	</g>
	<g>
		<polygon class="st0" points="1302.82,752.46 1312.81,774.53 1335.16,778.07 1318.99,795.24 1322.81,819.49 1302.82,808.04 
			1282.83,819.49 1286.65,795.24 1270.48,778.07 1292.82,774.53 		"/>
		<polygon class="st0" points="1388.56,753.5 1398.56,775.56 1420.9,779.1 1404.73,796.28 1408.55,820.53 1388.56,809.08 
			1368.57,820.53 1372.39,796.28 1356.22,779.1 1378.57,775.56 		"/>
		<polygon class="st0" points="1131.34,751.43 1141.33,773.5 1163.68,777.03 1147.51,794.21 1151.32,818.46 1131.34,807.01 
			1111.35,818.46 1115.16,794.21 1098.99,777.03 1121.34,773.5 		"/>
		<polygon class="st0" points="1217.08,751.78 1227.07,773.84 1249.42,777.38 1233.25,794.55 1237.07,818.8 1217.08,807.35 
			1197.09,818.8 1200.91,794.55 1184.73,777.38 1207.08,773.84 		"/>
		<polygon class="st0" points="531.14,754.53 541.13,776.6 563.48,780.13 547.31,797.31 551.13,821.56 531.14,810.11 511.15,821.56 
			514.97,797.31 498.8,780.13 521.15,776.6 		"/>
		<polygon class="st0" points="616.88,754.88 626.88,776.94 649.23,780.48 633.05,797.65 636.87,821.9 616.88,810.45 596.89,821.9 
			600.71,797.65 584.54,780.48 606.89,776.94 		"/>
		<polygon class="st0" points="702.62,753.15 712.62,775.22 734.97,778.76 718.8,795.93 722.61,820.18 702.62,808.73 682.64,820.18 
			686.45,795.93 670.28,778.76 692.63,775.22 		"/>
		<polygon class="st0" points="788.37,754.19 798.36,776.25 820.71,779.79 804.54,796.96 808.36,821.22 788.37,809.77 
			768.38,821.22 772.19,796.96 756.02,779.79 778.37,776.25 		"/>
		<polygon class="st0" points="874.11,752.12 884.1,774.18 906.45,777.72 890.28,794.9 894.1,819.15 874.11,807.7 854.12,819.15 
			857.94,794.9 841.77,777.72 864.11,774.18 		"/>
		<polygon class="st0" points="959.85,752.81 969.85,774.87 992.19,778.41 976.02,795.59 979.84,819.84 959.85,808.39 
			939.86,819.84 943.68,795.59 927.51,778.41 949.86,774.87 		"/>
		<polygon class="st0" points="1045.59,753.84 1055.59,775.91 1077.94,779.45 1061.76,796.62 1065.58,820.87 1045.59,809.42 
			1025.6,820.87 1029.42,796.62 1013.25,779.45 1035.6,775.91 		"/>
	</g>
	<g>
		<polygon class="st0" points="1388.72,876.54 1398.72,898.6 1421.07,902.14 1404.89,919.32 1408.71,943.57 1388.72,932.12 
			1368.73,943.57 1372.55,919.32 1356.38,902.14 1378.73,898.6 		"/>
		<polygon class="st0" points="1474.5,877.11 1484.49,899.18 1506.84,902.72 1490.67,919.89 1494.49,944.14 1474.5,932.69 
			1454.51,944.14 1458.33,919.89 1442.15,902.72 1464.5,899.18 		"/>
		<polygon class="st0" points="1217.17,877.69 1227.17,899.75 1249.52,903.29 1233.35,920.46 1237.16,944.72 1217.17,933.27 
			1197.18,944.72 1201,920.46 1184.83,903.29 1207.18,899.75 		"/>
		<polygon class="st0" points="1302.95,878.55 1312.94,900.61 1335.29,904.15 1319.12,921.33 1322.94,945.58 1302.95,934.13 
			1282.96,945.58 1286.78,921.33 1270.61,904.15 1292.95,900.61 		"/>
		<polygon class="st0" points="1045.63,876.25 1055.62,898.32 1077.97,901.85 1061.8,919.03 1065.61,943.28 1045.63,931.83 
			1025.64,943.28 1029.45,919.03 1013.28,901.85 1035.63,898.32 		"/>
		<polygon class="st0" points="1131.4,876.83 1141.39,898.89 1163.74,902.43 1147.57,919.6 1151.39,943.85 1131.4,932.4 
			1111.41,943.85 1115.23,919.6 1099.06,902.43 1121.4,898.89 		"/>
		<polygon class="st0" points="445.2,879.41 455.2,901.47 477.55,905.01 461.38,922.19 465.19,946.44 445.2,934.99 425.22,946.44 
			429.03,922.19 412.86,905.01 435.21,901.47 		"/>
		<polygon class="st0" points="530.98,879.7 540.97,901.76 563.32,905.3 547.15,922.47 550.97,946.73 530.98,935.28 510.99,946.73 
			514.81,922.47 498.64,905.3 520.98,901.76 		"/>
		<polygon class="st0" points="616.75,878.26 626.75,900.33 649.1,903.86 632.92,921.04 636.74,945.29 616.75,933.84 596.76,945.29 
			600.58,921.04 584.41,903.86 606.76,900.33 		"/>
		<polygon class="st0" points="702.53,879.12 712.52,901.19 734.87,904.73 718.7,921.9 722.52,946.15 702.53,934.7 682.54,946.15 
			686.36,921.9 670.18,904.73 692.53,901.19 		"/>
		<polygon class="st0" points="788.3,877.4 798.3,899.46 820.64,903 804.47,920.18 808.29,944.43 788.3,932.98 768.31,944.43 
			772.13,920.18 755.96,903 778.31,899.46 		"/>
		<polygon class="st0" points="874.08,877.97 884.07,900.04 906.42,903.58 890.25,920.75 894.07,945 874.08,933.55 854.09,945 
			857.9,920.75 841.73,903.58 864.08,900.04 		"/>
		<polygon class="st0" points="959.85,878.84 969.85,900.9 992.19,904.44 976.02,921.61 979.84,945.86 959.85,934.41 939.86,945.86 
			943.68,921.61 927.51,904.44 949.86,900.9 		"/>
	</g>
	<polygon class="st0" points="959.85,134.22 969.85,156.28 992.19,159.82 976.02,177 979.84,201.25 959.85,189.8 939.86,201.25 
		943.68,177 927.51,159.82 949.86,156.28 	"/>
</g>
</svg>
