<?xml version="1.0" encoding="utf-8"?>
<!-- Generator: Adobe Illustrator 23.0.5, SVG Export Plug-In . SVG Version: 6.00 Build 0)  -->
<svg version="1.1" id="圖層_1" xmlns="http://www.w3.org/2000/svg" xmlns:xlink="http://www.w3.org/1999/xlink" x="0px" y="0px"
	 viewBox="0 0 1920 1080" style="enable-background:new 0 0 1920 1080;" xml:space="preserve">
<style type="text/css">
	.st0{fill:#FFFFFF;stroke:#000000;stroke-width:4;stroke-miterlimit:10;}
</style>
<g>
	
		<image style="overflow:visible;opacity:0.3;" width="1025" height="839" xlink:href="E40E0890.png"  transform="matrix(1 0 0 1 448 123)">
	</image>
	<g>
		
			<image style="overflow:visible;opacity:0.75;" width="879" height="693" xlink:href="E40E0897.png"  transform="matrix(1 0 0 1 521 193)">
		</image>
		<g>
			<g>
				<g>
					<polygon class="st0" points="618,505.2 628,527.2 650.4,530.8 634.2,548 638,572.2 618,560.8 598.1,572.2 601.9,548 
						585.7,530.8 608.1,527.2 					"/>
					<polygon class="st0" points="703.2,505.8 713.2,527.9 735.5,531.4 719.4,548.6 723.2,572.8 703.2,561.4 683.2,572.8 687,548.6 
						670.9,531.4 693.2,527.9 					"/>
					<polygon class="st0" points="788.4,503.9 798.3,526 820.7,529.5 804.5,546.7 808.3,571 788.4,559.5 768.4,571 772.2,546.7 
						756,529.5 778.4,526 					"/>
					<polygon class="st0" points="873.5,504.5 883.5,526.6 905.8,530.2 889.7,547.3 893.5,571.6 873.5,560.1 853.5,571.6 
						857.3,547.3 841.2,530.2 863.5,526.6 					"/>
					<polygon class="st0" points="958.7,503.3 968.7,525.4 991,528.9 974.8,546.1 978.7,570.3 958.7,558.9 938.7,570.3 942.5,546.1 
						926.3,528.9 948.7,525.4 					"/>
				</g>
				<g>
					<polygon class="st0" points="618,381.3 628,403.4 650.4,406.9 634.2,424.1 638,448.3 618,436.9 598.1,448.3 601.9,424.1 
						585.7,406.9 608.1,403.4 					"/>
					<polygon class="st0" points="703.2,381.9 713.2,404 735.5,407.5 719.4,424.7 723.2,449 703.2,437.5 683.2,449 687,424.7 
						670.9,407.5 693.2,404 					"/>
					<polygon class="st0" points="788.4,380 798.3,402.1 820.7,405.6 804.5,422.8 808.3,447.1 788.4,435.6 768.4,447.1 772.2,422.8 
						756,405.6 778.4,402.1 					"/>
				</g>
				<g>
					<g>
						<polygon class="st0" points="618,629 628,651.1 650.4,654.7 634.2,671.8 638,696.1 618,684.6 598.1,696.1 601.9,671.8 
							585.7,654.7 608.1,651.1 						"/>
						<polygon class="st0" points="703.2,629.7 713.2,651.7 735.5,655.3 719.4,672.5 723.2,696.7 703.2,685.3 683.2,696.7 
							687,672.5 670.9,655.3 693.2,651.7 						"/>
						<polygon class="st0" points="788.4,627.8 798.3,649.9 820.7,653.4 804.5,670.6 808.3,694.8 788.4,683.4 768.4,694.8 
							772.2,670.6 756,653.4 778.4,649.9 						"/>
						<polygon class="st0" points="873.5,628.4 883.5,650.5 905.8,654 889.7,671.2 893.5,695.5 873.5,684 853.5,695.5 857.3,671.2 
							841.2,654 863.5,650.5 						"/>
						<polygon class="st0" points="958.7,627.2 968.7,649.2 991,652.8 974.8,670 978.7,694.2 958.7,682.8 938.7,694.2 942.5,670 
							926.3,652.8 948.7,649.2 						"/>
					</g>
					<polygon class="st0" points="1044.8,627.5 1054.8,649.5 1077.2,653.1 1061,670.3 1064.8,694.5 1044.8,683.1 1024.9,694.5 
						1028.7,670.3 1012.5,653.1 1034.8,649.5 					"/>
					<polygon class="st0" points="1130,628.1 1140,650.2 1162.3,653.7 1146.2,670.9 1150,695.1 1130,683.7 1110,695.1 1113.8,670.9 
						1097.7,653.7 1120,650.2 					"/>
				</g>
				<g>
					<polygon class="st0" points="1217.3,751 1227.3,773.1 1249.6,776.7 1233.5,793.8 1237.3,818.1 1217.3,806.6 1197.3,818.1 
						1201.1,793.8 1184.9,776.7 1207.3,773.1 					"/>
					<polygon class="st0" points="1302.9,751.5 1312.9,773.5 1335.2,777.1 1319.1,794.3 1322.9,818.5 1302.9,807.1 1282.9,818.5 
						1286.7,794.3 1270.6,777.1 1292.9,773.5 					"/>
					<polygon class="st0" points="618,754.1 628,776.1 650.4,779.7 634.2,796.8 638,821.1 618,809.7 598.1,821.1 601.9,796.8 
						585.7,779.7 608.1,776.1 					"/>
					<polygon class="st0" points="703.7,754.5 713.7,776.6 736,780.1 719.8,797.3 723.7,821.5 703.7,810.1 683.7,821.5 687.5,797.3 
						671.3,780.1 693.7,776.6 					"/>
					<polygon class="st0" points="789.3,752.8 799.3,774.8 821.6,778.4 805.4,795.5 809.3,819.8 789.3,808.4 769.3,819.8 
						773.1,795.5 756.9,778.4 779.3,774.8 					"/>
					<polygon class="st0" points="874.9,753.6 884.9,775.7 907.2,779.2 891,796.4 894.9,820.7 874.9,809.2 854.9,820.7 858.7,796.4 
						842.5,779.2 864.9,775.7 					"/>
					<polygon class="st0" points="960.5,751.9 970.5,774 992.8,777.5 976.7,794.7 980.5,818.9 960.5,807.5 940.5,818.9 944.3,794.7 
						928.1,777.5 950.5,774 					"/>
					<polygon class="st0" points="1046.1,752.3 1056.1,774.4 1078.4,778 1062.3,795.1 1066.1,819.4 1046.1,807.9 1026.1,819.4 
						1029.9,795.1 1013.7,778 1036.1,774.4 					"/>
					<polygon class="st0" points="1131.7,753.2 1141.7,775.3 1164,778.8 1147.9,796 1151.7,820.2 1131.7,808.8 1111.7,820.2 
						1115.5,796 1099.3,778.8 1121.7,775.3 					"/>
				</g>
				<polygon class="st0" points="618,258.7 628,280.7 650.4,284.3 634.2,301.4 638,325.7 618,314.2 598.1,325.7 601.9,301.4 
					585.7,284.3 608.1,280.7 				"/>
			</g>
		</g>
	</g>
</g>
</svg>
