<?xml version="1.0" encoding="utf-8"?>
<!-- Generator: Adobe Illustrator 23.0.5, SVG Export Plug-In . SVG Version: 6.00 Build 0)  -->
<svg version="1.1" id="圖層_1" xmlns="http://www.w3.org/2000/svg" xmlns:xlink="http://www.w3.org/1999/xlink" x="0px" y="0px"
	 viewBox="0 0 1920 1080" style="enable-background:new 0 0 1920 1080;" xml:space="preserve">
<style type="text/css">
	.st0{fill:none;stroke:#000000;stroke-width:4;stroke-miterlimit:10;}
</style>
<g>
	
		<image style="overflow:visible;opacity:0.3;" width="1022" height="836" xlink:href="24DE594C.png"  transform="matrix(1 0 0 1 448 124)">
	</image>
	<g>
		
			<image style="overflow:visible;opacity:0.75;" width="879" height="693" xlink:href="24DE594B.png"  transform="matrix(1 0 0 1 520 193)">
		</image>
		<g>
			<g>
				<g>
					<polygon class="st0" points="789.1,505 799.1,527 821.4,530.6 805.3,547.8 809.1,572 789.1,560.6 769.1,572 772.9,547.8 
						756.7,530.6 779.1,527 					"/>
					<polygon class="st0" points="874.2,505.6 884.2,527.7 906.6,531.2 890.4,548.4 894.2,572.6 874.2,561.2 854.2,572.6 
						858.1,548.4 841.9,531.2 864.2,527.7 					"/>
					<polygon class="st0" points="959.4,503.7 969.4,525.8 991.7,529.3 975.5,546.5 979.4,570.8 959.4,559.3 939.4,570.8 
						943.2,546.5 927,529.3 949.4,525.8 					"/>
					<polygon class="st0" points="1044.5,504.4 1054.5,526.4 1076.9,530 1060.7,547.1 1064.5,571.4 1044.5,559.9 1024.6,571.4 
						1028.4,547.1 1012.2,530 1034.5,526.4 					"/>
					<polygon class="st0" points="1129.7,503.1 1139.7,525.2 1162,528.7 1145.9,545.9 1149.7,570.1 1129.7,558.7 1109.7,570.1 
						1113.5,545.9 1097.3,528.7 1119.7,525.2 					"/>
				</g>
				<g>
					<polygon class="st0" points="874.2,381.1 884.2,403.2 906.6,406.7 890.4,423.9 894.2,448.1 874.2,436.7 854.2,448.1 
						858.1,423.9 841.9,406.7 864.2,403.2 					"/>
					<polygon class="st0" points="959.4,381.7 969.4,403.8 991.7,407.3 975.5,424.5 979.4,448.8 959.4,437.3 939.4,448.8 
						943.2,424.5 927,407.3 949.4,403.8 					"/>
					<polygon class="st0" points="1044.5,379.9 1054.5,401.9 1076.9,405.5 1060.7,422.6 1064.5,446.9 1044.5,435.4 1024.6,446.9 
						1028.4,422.6 1012.2,405.5 1034.5,401.9 					"/>
				</g>
				<g>
					<g>
						<polygon class="st0" points="703.4,628.9 713.4,650.9 735.8,654.5 719.6,671.6 723.4,695.9 703.4,684.4 683.4,695.9 
							687.2,671.6 671.1,654.5 693.4,650.9 						"/>
						<polygon class="st0" points="788.6,629.5 798.6,651.6 820.9,655.1 804.7,672.3 808.5,696.5 788.6,685.1 768.6,696.5 
							772.4,672.3 756.2,655.1 778.6,651.6 						"/>
						<polygon class="st0" points="873.7,627.6 883.7,649.7 906.1,653.2 889.9,670.4 893.7,694.6 873.7,683.2 853.7,694.6 
							857.5,670.4 841.4,653.2 863.7,649.7 						"/>
						<polygon class="st0" points="958.9,628.2 968.9,650.3 991.2,653.8 975,671 978.9,695.3 958.9,683.8 938.9,695.3 942.7,671 
							926.5,653.8 948.9,650.3 						"/>
						<polygon class="st0" points="1044,627 1054,649 1076.4,652.6 1060.2,669.8 1064,694 1044,682.6 1024,694 1027.8,669.8 
							1011.7,652.6 1034,649 						"/>
					</g>
					<polygon class="st0" points="1130.2,627.3 1140.2,649.4 1162.6,652.9 1146.4,670.1 1150.2,694.3 1130.2,682.9 1110.2,694.3 
						1114,670.1 1097.9,652.9 1120.2,649.4 					"/>
					<polygon class="st0" points="1215.4,627.9 1225.3,650 1247.7,653.5 1231.5,670.7 1235.3,695 1215.4,683.5 1195.4,695 
						1199.2,670.7 1183,653.5 1205.4,650 					"/>
				</g>
				<g>
					<polygon class="st0" points="1216.2,750.9 1226.2,772.9 1248.5,776.5 1232.4,793.6 1236.2,817.9 1216.2,806.5 1196.2,817.9 
						1200,793.6 1183.9,776.5 1206.2,772.9 					"/>
					<polygon class="st0" points="1301.8,751.3 1311.8,773.4 1334.2,776.9 1318,794.1 1321.8,818.3 1301.8,806.9 1281.8,818.3 
						1285.6,794.1 1269.5,776.9 1291.8,773.4 					"/>
					<polygon class="st0" points="617,753.9 627,776 649.3,779.5 633.1,796.7 637,820.9 617,809.5 597,820.9 600.8,796.7 
						584.6,779.5 607,776 					"/>
					<polygon class="st0" points="702.6,754.3 712.6,776.4 734.9,779.9 718.7,797.1 722.5,821.3 702.6,809.9 682.6,821.3 
						686.4,797.1 670.2,779.9 692.6,776.4 					"/>
					<polygon class="st0" points="788.2,752.6 798.2,774.7 820.5,778.2 804.3,795.4 808.2,819.6 788.2,808.2 768.2,819.6 772,795.4 
						755.8,778.2 778.2,774.7 					"/>
					<polygon class="st0" points="873.8,753.5 883.8,775.5 906.1,779 890,796.2 893.8,820.5 873.8,809 853.8,820.5 857.6,796.2 
						841.4,779 863.8,775.5 					"/>
					<polygon class="st0" points="959.4,751.7 969.4,773.8 991.7,777.3 975.5,794.5 979.4,818.8 959.4,807.3 939.4,818.8 
						943.2,794.5 927,777.3 949.4,773.8 					"/>
					<polygon class="st0" points="1045,752.2 1055,774.2 1077.3,777.8 1061.2,794.9 1065,819.2 1045,807.7 1025,819.2 1028.8,794.9 
						1012.7,777.8 1035,774.2 					"/>
					<polygon class="st0" points="1130.6,753 1140.6,775.1 1162.9,778.6 1146.8,795.8 1150.6,820 1130.6,808.6 1110.6,820 
						1114.4,795.8 1098.3,778.6 1120.6,775.1 					"/>
				</g>
				<polygon class="st0" points="959.4,258.5 969.4,280.5 991.7,284.1 975.5,301.3 979.4,325.5 959.4,314 939.4,325.5 943.2,301.3 
					927,284.1 949.4,280.5 				"/>
			</g>
		</g>
	</g>
</g>
</svg>
