<?xml version="1.0" encoding="utf-8"?>
<!-- Generator: Adobe Illustrator 23.0.5, SVG Export Plug-In . SVG Version: 6.00 Build 0)  -->
<svg version="1.1" id="圖層_1" xmlns="http://www.w3.org/2000/svg" xmlns:xlink="http://www.w3.org/1999/xlink" x="0px" y="0px"
	 viewBox="0 0 1920 1080" style="enable-background:new 0 0 1920 1080;" xml:space="preserve">
<style type="text/css">
	.st0{fill:#FFFFFF;stroke:#000000;stroke-width:4;stroke-miterlimit:10;}
	.st1{fill:#FFFFFF;}
	.st2{fill:none;stroke:#000000;stroke-width:4;stroke-miterlimit:10;}
</style>
<g>
	
		<image style="overflow:visible;opacity:0.3;" width="680" height="345" xlink:href="582AB125.png"  transform="matrix(1 0 0 1 276 243)">
	</image>
	<g>
		
			<image style="overflow:visible;opacity:0.75;" width="534" height="199" xlink:href="582AB127.png"  transform="matrix(1 0 0 1 349 313)">
		</image>
		<g>
			<g>
				<polygon class="st0" points="445.8,380.5 455.8,402.6 478.1,406.1 462,423.3 465.8,447.6 445.8,436.1 425.8,447.6 429.6,423.3 
					413.4,406.1 435.8,402.6 				"/>
				<polygon class="st0" points="530.9,381.2 540.9,403.2 563.3,406.8 547.1,423.9 550.9,448.2 530.9,436.7 511,448.2 514.8,423.9 
					498.6,406.8 520.9,403.2 				"/>
				<polygon class="st0" points="616.1,379.3 626.1,401.4 648.4,404.9 632.3,422.1 636.1,446.3 616.1,434.9 596.1,446.3 
					599.9,422.1 583.7,404.9 606.1,401.4 				"/>
				<polygon class="st0" points="701.2,379.9 711.2,402 733.6,405.5 717.4,422.7 721.2,446.9 701.2,435.5 681.3,446.9 685.1,422.7 
					668.9,405.5 691.3,402 				"/>
				<polygon class="st0" points="786.4,378.7 796.4,400.7 818.7,404.3 802.6,421.4 806.4,445.7 786.4,434.2 766.4,445.7 
					770.2,421.4 754,404.3 776.4,400.7 				"/>
			</g>
		</g>
	</g>
</g>
<g>
	
		<image style="overflow:visible;opacity:0.3;" width="508" height="344" xlink:href="582AB122.png"  transform="matrix(1 0 0 1 277 120)">
	</image>
	<g>
		
			<image style="overflow:visible;opacity:0.75;" width="364" height="199" xlink:href="582AB123.png"  transform="matrix(1 0 0 1 349 190)">
		</image>
		<g>
			<g>
				<polygon class="st0" points="445.8,256.7 455.8,278.7 478.1,282.3 462,299.4 465.8,323.7 445.8,312.2 425.8,323.7 429.6,299.4 
					413.4,282.3 435.8,278.7 				"/>
				<polygon class="st0" points="530.9,257.3 540.9,279.4 563.3,282.9 547.1,300.1 550.9,324.3 530.9,312.9 511,324.3 514.8,300.1 
					498.6,282.9 520.9,279.4 				"/>
				<polygon class="st0" points="616.1,255.4 626.1,277.5 648.4,281 632.3,298.2 636.1,322.4 616.1,311 596.1,322.4 599.9,298.2 
					583.7,281 606.1,277.5 				"/>
			</g>
		</g>
	</g>
</g>
<g>
	
		<image style="overflow:visible;opacity:0.3;" width="852" height="345" xlink:href="582AB12D.png"  transform="matrix(1 0 0 1 276 367)">
	</image>
	<g>
		
			<image style="overflow:visible;opacity:0.75;" width="706" height="199" xlink:href="582AB12F.png"  transform="matrix(1 0 0 1 349 437)">
		</image>
		<g>
			<g>
				<g>
					<polygon class="st0" points="445.8,504.4 455.8,526.5 478.1,530 462,547.2 465.8,571.5 445.8,560 425.8,571.5 429.6,547.2 
						413.4,530 435.8,526.5 					"/>
					<polygon class="st0" points="530.9,505 540.9,527.1 563.3,530.7 547.1,547.8 550.9,572.1 530.9,560.6 511,572.1 514.8,547.8 
						498.6,530.7 520.9,527.1 					"/>
					<polygon class="st0" points="616.1,503.2 626.1,525.2 648.4,528.8 632.3,545.9 636.1,570.2 616.1,558.7 596.1,570.2 
						599.9,545.9 583.7,528.8 606.1,525.2 					"/>
					<polygon class="st0" points="701.2,503.8 711.2,525.9 733.6,529.4 717.4,546.6 721.2,570.8 701.2,559.4 681.3,570.8 
						685.1,546.6 668.9,529.4 691.3,525.9 					"/>
					<polygon class="st0" points="786.4,502.5 796.4,524.6 818.7,528.1 802.6,545.3 806.4,569.6 786.4,558.1 766.4,569.6 
						770.2,545.3 754,528.1 776.4,524.6 					"/>
				</g>
				<polygon class="st0" points="872.6,502.9 882.6,524.9 904.9,528.5 888.8,545.6 892.6,569.9 872.6,558.4 852.6,569.9 
					856.4,545.6 840.2,528.5 862.6,524.9 				"/>
				<polygon class="st0" points="957.7,503.5 967.7,525.5 990.1,529.1 973.9,546.3 977.7,570.5 957.7,559.1 937.7,570.5 
					941.6,546.3 925.4,529.1 947.7,525.5 				"/>
			</g>
		</g>
	</g>
</g>
<g>
	
		<image style="overflow:visible;opacity:0.3;" width="1024" height="346" xlink:href="582AB120.png"  transform="matrix(1 0 0 1 277 491)">
	</image>
	<g>
		
			<image style="overflow:visible;opacity:0.75;" width="879" height="200" xlink:href="582AB121.png"  transform="matrix(1 0 0 1 349 561)">
		</image>
		<g>
			<g>
				<polygon class="st0" points="1045,626.4 1055,648.5 1077.4,652 1061.2,669.2 1065,693.5 1045,682 1025,693.5 1028.8,669.2 
					1012.7,652 1035,648.5 				"/>
				<polygon class="st0" points="1130.6,626.8 1140.6,648.9 1163,652.5 1146.8,669.6 1150.6,693.9 1130.6,682.4 1110.6,693.9 
					1114.4,669.6 1098.3,652.5 1120.6,648.9 				"/>
				<polygon class="st0" points="445.8,629.4 455.8,651.5 478.1,655 462,672.2 465.8,696.5 445.8,685 425.8,696.5 429.6,672.2 
					413.4,655 435.8,651.5 				"/>
				<polygon class="st0" points="531.4,629.9 541.4,651.9 563.7,655.5 547.6,672.6 551.4,696.9 531.4,685.4 511.4,696.9 
					515.2,672.6 499,655.5 521.4,651.9 				"/>
				<polygon class="st0" points="617,628.1 627,650.2 649.3,653.8 633.2,670.9 637,695.2 617,683.7 597,695.2 600.8,670.9 
					584.7,653.8 607,650.2 				"/>
				<polygon class="st0" points="702.6,629 712.6,651.1 734.9,654.6 718.8,671.8 722.6,696 702.6,684.6 682.6,696 686.4,671.8 
					670.3,654.6 692.6,651.1 				"/>
				<polygon class="st0" points="788.2,627.3 798.2,649.3 820.5,652.9 804.4,670.1 808.2,694.3 788.2,682.9 768.2,694.3 772,670.1 
					755.9,652.9 778.2,649.3 				"/>
				<polygon class="st0" points="873.8,627.7 883.8,649.8 906.2,653.3 890,670.5 893.8,694.7 873.8,683.3 853.8,694.7 857.6,670.5 
					841.5,653.3 863.8,649.8 				"/>
				<polygon class="st0" points="959.4,628.6 969.4,650.6 991.8,654.2 975.6,671.3 979.4,695.6 959.4,684.2 939.4,695.6 
					943.2,671.3 927.1,654.2 949.4,650.6 				"/>
			</g>
		</g>
	</g>
</g>
<g>
	
		<image style="overflow:visible;opacity:0.3;" width="1197" height="346" xlink:href="582AB126.png"  transform="matrix(1 0 0 1 276 616)">
	</image>
	<g>
		
			<image style="overflow:visible;opacity:0.75;" width="1051" height="200" xlink:href="BE2B9A6E.png"  transform="matrix(1 0 0 1 349 686)">
		</image>
		<g>
			<g>
				<polygon class="st0" points="1217.5,752.3 1227.5,774.3 1249.8,777.9 1233.6,795 1237.4,819.3 1217.5,807.8 1197.5,819.3 
					1201.3,795 1185.1,777.9 1207.5,774.3 				"/>
				<polygon class="st0" points="1303.2,753.3 1313.2,775.4 1335.6,778.9 1319.4,796.1 1323.2,820.3 1303.2,808.9 1283.2,820.3 
					1287,796.1 1270.9,778.9 1293.2,775.4 				"/>
				<polygon class="st0" points="1046,751.2 1056,773.3 1078.3,776.8 1062.2,794 1066,818.3 1046,806.8 1026,818.3 1029.8,794 
					1013.6,776.8 1036,773.3 				"/>
				<polygon class="st0" points="1131.7,751.6 1141.7,773.7 1164.1,777.2 1147.9,794.4 1151.7,818.6 1131.7,807.2 1111.7,818.6 
					1115.6,794.4 1099.4,777.2 1121.7,773.7 				"/>
				<polygon class="st0" points="445.8,754.3 455.8,776.4 478.1,779.9 462,797.1 465.8,821.4 445.8,809.9 425.8,821.4 429.6,797.1 
					413.4,779.9 435.8,776.4 				"/>
				<polygon class="st0" points="531.5,754.7 541.5,776.8 563.9,780.3 547.7,797.5 551.5,821.7 531.5,810.3 511.5,821.7 
					515.3,797.5 499.2,780.3 521.5,776.8 				"/>
				<polygon class="st0" points="617.3,753 627.3,775 649.6,778.6 633.4,795.7 637.3,820 617.3,808.5 597.3,820 601.1,795.7 
					584.9,778.6 607.3,775 				"/>
				<polygon class="st0" points="703,754 713,776.1 735.3,779.6 719.2,796.8 723,821 703,809.6 683,821 686.8,796.8 670.7,779.6 
					693,776.1 				"/>
				<polygon class="st0" points="788.8,751.9 798.7,774 821.1,777.5 804.9,794.7 808.7,819 788.8,807.5 768.8,819 772.6,794.7 
					756.4,777.5 778.8,774 				"/>
				<polygon class="st0" points="874.5,752.6 884.5,774.7 906.8,778.2 890.7,795.4 894.5,819.7 874.5,808.2 854.5,819.7 
					858.3,795.4 842.2,778.2 864.5,774.7 				"/>
				<polygon class="st0" points="960.2,753.7 970.2,775.7 992.6,779.3 976.4,796.4 980.2,820.7 960.2,809.2 940.2,820.7 
					944.1,796.4 927.9,779.3 950.2,775.7 				"/>
			</g>
		</g>
	</g>
</g>
<g>
	
		<image style="overflow:visible;opacity:0.3;" width="1369" height="346" xlink:href="BE2B9A69.png"  transform="matrix(1 0 0 1 276 741)">
	</image>
	<g>
		
			<image style="overflow:visible;opacity:0.75;" width="1223" height="200" xlink:href="BE2B9A6A.png"  transform="matrix(1 0 0 1 349 811)">
		</image>
		<g>
			<g>
				<polygon class="st0" points="1389.3,876.3 1399.3,898.4 1421.6,902 1405.5,919.1 1409.3,943.4 1389.3,931.9 1369.3,943.4 
					1373.1,919.1 1357,902 1379.3,898.4 				"/>
				<polygon class="st0" points="1475.1,876.9 1485.1,899 1507.4,902.5 1491.2,919.7 1495.1,944 1475.1,932.5 1455.1,944 
					1458.9,919.7 1442.7,902.5 1465.1,899 				"/>
				<polygon class="st0" points="1217.8,877.5 1227.7,899.6 1250.1,903.1 1233.9,920.3 1237.7,944.5 1217.8,933.1 1197.8,944.5 
					1201.6,920.3 1185.4,903.1 1207.8,899.6 				"/>
				<polygon class="st0" points="1303.5,878.4 1313.5,900.4 1335.9,904 1319.7,921.1 1323.5,945.4 1303.5,933.9 1283.5,945.4 
					1287.3,921.1 1271.2,904 1293.5,900.4 				"/>
				<polygon class="st0" points="1046.2,876.1 1056.2,898.1 1078.5,901.7 1062.4,918.8 1066.2,943.1 1046.2,931.6 1026.2,943.1 
					1030,918.8 1013.9,901.7 1036.2,898.1 				"/>
				<polygon class="st0" points="1132,876.6 1142,898.7 1164.3,902.2 1148.2,919.4 1152,943.7 1132,932.2 1112,943.7 1115.8,919.4 
					1099.6,902.2 1122,898.7 				"/>
				<polygon class="st0" points="445.8,879.2 455.8,901.3 478.1,904.8 462,922 465.8,946.3 445.8,934.8 425.8,946.3 429.6,922 
					413.4,904.8 435.8,901.3 				"/>
				<polygon class="st0" points="531.6,879.5 541.5,901.6 563.9,905.1 547.7,922.3 551.5,946.5 531.6,935.1 511.6,946.5 
					515.4,922.3 499.2,905.1 521.6,901.6 				"/>
				<polygon class="st0" points="617.3,878.1 627.3,900.1 649.7,903.7 633.5,920.8 637.3,945.1 617.3,933.7 597.3,945.1 
					601.2,920.8 585,903.7 607.3,900.1 				"/>
				<polygon class="st0" points="703.1,878.9 713.1,901 735.5,904.5 719.3,921.7 723.1,946 703.1,934.5 683.1,946 686.9,921.7 
					670.8,904.5 693.1,901 				"/>
				<polygon class="st0" points="788.9,877.2 798.9,899.3 821.2,902.8 805,920 808.9,944.2 788.9,932.8 768.9,944.2 772.7,920 
					756.5,902.8 778.9,899.3 				"/>
				<polygon class="st0" points="874.7,877.8 884.7,899.8 907,903.4 890.8,920.6 894.6,944.8 874.7,933.4 854.7,944.8 858.5,920.6 
					842.3,903.4 864.7,899.8 				"/>
				<polygon class="st0" points="960.4,878.7 970.4,900.7 992.8,904.3 976.6,921.4 980.4,945.7 960.4,934.2 940.4,945.7 
					944.3,921.4 928.1,904.3 950.4,900.7 				"/>
			</g>
		</g>
	</g>
</g>
<g>
	
		<image style="overflow:visible;opacity:0.3;" width="338" height="342" xlink:href="BE2B9A68.png"  transform="matrix(1 0 0 1 277 -1)">
	</image>
	<g>
		
			<image style="overflow:visible;opacity:0.75;" width="194" height="196" xlink:href="BE2B9A66.png"  transform="matrix(1 0 0 1 349 69)">
		</image>
		<g>
			<polygon class="st1" points="445.8,134 455.8,156.1 478.1,159.6 462,176.8 465.8,201.1 445.8,189.6 425.8,201.1 429.6,176.8 
				413.4,159.6 435.8,156.1 			"/>
			<polygon class="st2" points="445.8,134 455.8,156.1 478.1,159.6 462,176.8 465.8,201.1 445.8,189.6 425.8,201.1 429.6,176.8 
				413.4,159.6 435.8,156.1 			"/>
		</g>
	</g>
</g>
</svg>
