<?xml version="1.0" encoding="utf-8"?>
<!-- Generator: Adobe Illustrator 23.0.5, SVG Export Plug-In . SVG Version: 6.00 Build 0)  -->
<svg version="1.1" id="圖層_1" xmlns="http://www.w3.org/2000/svg" xmlns:xlink="http://www.w3.org/1999/xlink" x="0px" y="0px"
	 viewBox="0 0 1920 1080" style="enable-background:new 0 0 1920 1080;" xml:space="preserve">
<style type="text/css">
	.st0{fill:#FFFFFF;stroke:#000000;stroke-width:4;stroke-miterlimit:10;}
	.st1{fill:#FFFFFF;}
	.st2{fill:none;stroke:#000000;stroke-width:4;stroke-miterlimit:10;}
</style>
<g>
	
		<image style="overflow:visible;opacity:0.3;" width="680" height="345" xlink:href="A9C714BC.png"  transform="matrix(1 0 0 1 621 497)">
	</image>
	<g>
		
			<image style="overflow:visible;opacity:0.75;" width="534" height="199" xlink:href="A9C714BD.png"  transform="matrix(1 0 0 1 694 567)">
		</image>
		<g>
			<g>
				<polygon class="st0" points="790.5,634.2 800.5,656.3 822.8,659.8 806.7,677 810.5,701.2 790.5,689.8 770.5,701.2 774.3,677 
					758.1,659.8 780.5,656.3 				"/>
				<polygon class="st0" points="875.6,634.8 885.6,656.9 908,660.4 891.8,677.6 895.6,701.8 875.6,690.4 855.7,701.8 859.5,677.6 
					843.3,660.4 865.6,656.9 				"/>
				<polygon class="st0" points="960.8,632.9 970.8,655 993.1,658.5 977,675.7 980.8,700 960.8,688.5 940.8,700 944.6,675.7 
					928.4,658.5 950.8,655 				"/>
				<polygon class="st0" points="1045.9,633.6 1055.9,655.6 1078.3,659.2 1062.1,676.3 1065.9,700.6 1045.9,689.1 1025.9,700.6 
					1029.8,676.3 1013.6,659.2 1035.9,655.6 				"/>
				<polygon class="st0" points="1131.1,632.3 1141.1,654.4 1163.4,657.9 1147.3,675.1 1151.1,699.3 1131.1,687.9 1111.1,699.3 
					1114.9,675.1 1098.8,657.9 1121.1,654.4 				"/>
			</g>
		</g>
	</g>
</g>
<g>
	
		<image style="overflow:visible;opacity:0.3;" width="509" height="344" xlink:href="A9C714BB.png"  transform="matrix(1 0 0 1 706 621)">
	</image>
	<g>
		
			<image style="overflow:visible;opacity:0.75;" width="364" height="198" xlink:href="A9C714C4.png"  transform="matrix(1 0 0 1 779 691)">
		</image>
		<g>
			<g>
				<polygon class="st0" points="875.6,757.4 885.6,779.5 908,783 891.8,800.2 895.6,824.5 875.6,813 855.7,824.5 859.5,800.2 
					843.3,783 865.6,779.5 				"/>
				<polygon class="st0" points="960.8,758.1 970.8,780.1 993.1,783.7 977,800.8 980.8,825.1 960.8,813.7 940.8,825.1 944.6,800.8 
					928.4,783.7 950.8,780.1 				"/>
				<polygon class="st0" points="1045.9,756.2 1055.9,778.3 1078.3,781.8 1062.1,799 1065.9,823.2 1045.9,811.8 1025.9,823.2 
					1029.8,799 1013.6,781.8 1035.9,778.3 				"/>
			</g>
		</g>
	</g>
</g>
<g>
	
		<image style="overflow:visible;opacity:0.3;" width="851" height="345" xlink:href="A9C714C7.png"  transform="matrix(1 0 0 1 536 373)">
	</image>
	<g>
		
			<image style="overflow:visible;opacity:0.75;" width="706" height="199" xlink:href="A9C714C5.png"  transform="matrix(1 0 0 1 608 443)">
		</image>
		<g>
			<g>
				<g>
					<polygon class="st0" points="704.8,510.3 714.8,532.4 737.2,535.9 721,553.1 724.8,577.3 704.8,565.9 684.8,577.3 688.6,553.1 
						672.5,535.9 694.8,532.4 					"/>
					<polygon class="st0" points="790,510.9 800,533 822.3,536.5 806.1,553.7 810,578 790,566.5 770,578 773.8,553.7 757.6,536.5 
						780,533 					"/>
					<polygon class="st0" points="875.1,509 885.1,531.1 907.5,534.7 891.3,551.8 895.1,576.1 875.1,564.6 855.1,576.1 859,551.8 
						842.8,534.7 865.1,531.1 					"/>
					<polygon class="st0" points="960.3,509.7 970.3,531.7 992.6,535.3 976.4,552.5 980.3,576.7 960.3,565.3 940.3,576.7 
						944.1,552.5 927.9,535.3 950.3,531.7 					"/>
					<polygon class="st0" points="1045.4,508.4 1055.4,530.5 1077.8,534 1061.6,551.2 1065.4,575.5 1045.4,564 1025.4,575.5 
						1029.3,551.2 1013.1,534 1035.4,530.5 					"/>
				</g>
				<polygon class="st0" points="1131.6,508.7 1141.6,530.8 1164,534.3 1147.8,551.5 1151.6,575.8 1131.6,564.3 1111.6,575.8 
					1115.4,551.5 1099.3,534.3 1121.6,530.8 				"/>
				<polygon class="st0" points="1216.8,509.4 1226.8,531.4 1249.1,535 1232.9,552.1 1236.8,576.4 1216.8,564.9 1196.8,576.4 
					1200.6,552.1 1184.4,535 1206.8,531.4 				"/>
			</g>
		</g>
	</g>
</g>
<g>
	
		<image style="overflow:visible;opacity:0.3;" width="1024" height="346" xlink:href="A9C714CB.png"  transform="matrix(1 0 0 1 448 248)">
	</image>
	<g>
		
			<image style="overflow:visible;opacity:0.75;" width="879" height="200" xlink:href="A9C714CC.png"  transform="matrix(1 0 0 1 521 318)">
		</image>
		<g>
			<g>
				<polygon class="st0" points="1217.6,383.6 1227.6,405.7 1249.9,409.2 1233.8,426.4 1237.6,450.6 1217.6,439.2 1197.6,450.6 
					1201.4,426.4 1185.3,409.2 1207.6,405.7 				"/>
				<polygon class="st0" points="1303.2,384 1313.2,406.1 1335.6,409.6 1319.4,426.8 1323.2,451.1 1303.2,439.6 1283.2,451.1 
					1287,426.8 1270.9,409.6 1293.2,406.1 				"/>
				<polygon class="st0" points="618.4,386.6 628.4,408.7 650.7,412.2 634.5,429.4 638.4,453.6 618.4,442.2 598.4,453.6 
					602.2,429.4 586,412.2 608.4,408.7 				"/>
				<polygon class="st0" points="704,387 714,409.1 736.3,412.6 720.2,429.8 724,454.1 704,442.6 684,454.1 687.8,429.8 
					671.6,412.6 694,409.1 				"/>
				<polygon class="st0" points="789.6,385.3 799.6,407.4 821.9,410.9 805.8,428.1 809.6,452.4 789.6,440.9 769.6,452.4 
					773.4,428.1 757.2,410.9 779.6,407.4 				"/>
				<polygon class="st0" points="875.2,386.2 885.2,408.3 907.5,411.8 891.4,429 895.2,453.2 875.2,441.8 855.2,453.2 859,429 
					842.8,411.8 865.2,408.3 				"/>
				<polygon class="st0" points="960.8,384.5 970.8,406.5 993.1,410.1 977,427.2 980.8,451.5 960.8,440 940.8,451.5 944.6,427.2 
					928.4,410.1 950.8,406.5 				"/>
				<polygon class="st0" points="1046.4,384.9 1056.4,407 1078.7,410.5 1062.6,427.7 1066.4,451.9 1046.4,440.5 1026.4,451.9 
					1030.2,427.7 1014.1,410.5 1036.4,407 				"/>
				<polygon class="st0" points="1132,385.8 1142,407.8 1164.3,411.4 1148.2,428.5 1152,452.8 1132,441.3 1112,452.8 1115.8,428.5 
					1099.7,411.4 1122,407.8 				"/>
			</g>
		</g>
	</g>
</g>
<g>
	
		<image style="overflow:visible;opacity:0.3;" width="1197" height="346" xlink:href="A9C714CF.png"  transform="matrix(1 0 0 1 362 123)">
	</image>
	<g>
		
			<image style="overflow:visible;opacity:0.75;" width="1051" height="201" xlink:href="89C5FF8B.png"  transform="matrix(1 0 0 1 435 193)">
		</image>
		<g>
			<g>
				<polygon class="st0" points="1303.8,259.8 1313.8,281.9 1336.1,285.4 1319.9,302.6 1323.8,326.9 1303.8,315.4 1283.8,326.9 
					1287.6,302.6 1271.4,285.4 1293.8,281.9 				"/>
				<polygon class="st0" points="1389.5,260.9 1399.5,282.9 1421.8,286.5 1405.7,303.6 1409.5,327.9 1389.5,316.4 1369.5,327.9 
					1373.3,303.6 1357.2,286.5 1379.5,282.9 				"/>
				<polygon class="st0" points="1132.3,258.8 1142.3,280.9 1164.6,284.4 1148.4,301.6 1152.3,325.8 1132.3,314.4 1112.3,325.8 
					1116.1,301.6 1099.9,284.4 1122.3,280.9 				"/>
				<polygon class="st0" points="1218,259.1 1228,281.2 1250.4,284.7 1234.2,301.9 1238,326.2 1218,314.7 1198,326.2 1201.8,301.9 
					1185.7,284.7 1208,281.2 				"/>
				<polygon class="st0" points="532.1,261.9 542.1,284 564.4,287.5 548.3,304.7 552.1,328.9 532.1,317.5 512.1,328.9 515.9,304.7 
					499.7,287.5 522.1,284 				"/>
				<polygon class="st0" points="617.8,262.2 627.8,284.3 650.2,287.8 634,305 637.8,329.3 617.8,317.8 597.8,329.3 601.7,305 
					585.5,287.8 607.8,284.3 				"/>
				<polygon class="st0" points="703.6,260.5 713.6,282.6 735.9,286.1 719.7,303.3 723.5,327.5 703.6,316.1 683.6,327.5 
					687.4,303.3 671.2,286.1 693.6,282.6 				"/>
				<polygon class="st0" points="789.3,261.5 799.3,283.6 821.7,287.1 805.5,304.3 809.3,328.6 789.3,317.1 769.3,328.6 
					773.1,304.3 757,287.1 779.3,283.6 				"/>
				<polygon class="st0" points="875,259.5 885,281.5 907.4,285.1 891.2,302.3 895,326.5 875,315 855.1,326.5 858.9,302.3 
					842.7,285.1 865,281.5 				"/>
				<polygon class="st0" points="960.8,260.2 970.8,282.2 993.1,285.8 977,302.9 980.8,327.2 960.8,315.7 940.8,327.2 944.6,302.9 
					928.4,285.8 950.8,282.2 				"/>
				<polygon class="st0" points="1046.5,261.2 1056.5,283.3 1078.9,286.8 1062.7,304 1066.5,328.2 1046.5,316.8 1026.5,328.2 
					1030.4,304 1014.2,286.8 1036.5,283.3 				"/>
			</g>
		</g>
	</g>
</g>
<g>
	
		<image style="overflow:visible;opacity:0.3;" width="1368" height="345" xlink:href="89C5FF89.png"  transform="matrix(1 0 0 1 276 -1)">
	</image>
	<g>
		
			<image style="overflow:visible;opacity:0.75;" width="1223" height="200" xlink:href="89C5FF8F.png"  transform="matrix(1 0 0 1 349 69)">
		</image>
		<g>
			<g>
				<polygon class="st0" points="1389.7,134.3 1399.7,156.3 1422,159.9 1405.8,177 1409.7,201.3 1389.7,189.8 1369.7,201.3 
					1373.5,177 1357.3,159.9 1379.7,156.3 				"/>
				<polygon class="st0" points="1475.4,134.8 1485.4,156.9 1507.8,160.4 1491.6,177.6 1495.4,201.9 1475.4,190.4 1455.4,201.9 
					1459.3,177.6 1443.1,160.4 1465.4,156.9 				"/>
				<polygon class="st0" points="1218.1,135.4 1228.1,157.5 1250.5,161 1234.3,178.2 1238.1,202.4 1218.1,191 1198.1,202.4 
					1201.9,178.2 1185.8,161 1208.1,157.5 				"/>
				<polygon class="st0" points="1303.9,136.3 1313.9,158.3 1336.2,161.9 1320.1,179 1323.9,203.3 1303.9,191.8 1283.9,203.3 
					1287.7,179 1271.6,161.9 1293.9,158.3 				"/>
				<polygon class="st0" points="1046.6,134 1056.6,156 1078.9,159.6 1062.7,176.7 1066.6,201 1046.6,189.5 1026.6,201 
					1030.4,176.7 1014.2,159.6 1036.6,156 				"/>
				<polygon class="st0" points="1132.3,134.5 1142.3,156.6 1164.7,160.1 1148.5,177.3 1152.3,201.6 1132.3,190.1 1112.3,201.6 
					1116.2,177.3 1100,160.1 1122.3,156.6 				"/>
				<polygon class="st0" points="446.1,137.1 456.1,159.2 478.5,162.7 462.3,179.9 466.1,204.1 446.1,192.7 426.2,204.1 430,179.9 
					413.8,162.7 436.2,159.2 				"/>
				<polygon class="st0" points="531.9,137.4 541.9,159.5 564.3,163 548.1,180.2 551.9,204.4 531.9,193 511.9,204.4 515.8,180.2 
					499.6,163 521.9,159.5 				"/>
				<polygon class="st0" points="617.7,136 627.7,158 650,161.6 633.9,178.8 637.7,203 617.7,191.6 597.7,203 601.5,178.8 
					585.3,161.6 607.7,158 				"/>
				<polygon class="st0" points="703.5,136.8 713.5,158.9 735.8,162.4 719.6,179.6 723.5,203.9 703.5,192.4 683.5,203.9 
					687.3,179.6 671.1,162.4 693.5,158.9 				"/>
				<polygon class="st0" points="789.2,135.1 799.2,157.2 821.6,160.7 805.4,177.9 809.2,202.1 789.2,190.7 769.3,202.1 
					773.1,177.9 756.9,160.7 779.3,157.2 				"/>
				<polygon class="st0" points="875,135.7 885,157.8 907.4,161.3 891.2,178.5 895,202.7 875,191.3 855,202.7 858.8,178.5 
					842.7,161.3 865,157.8 				"/>
				<polygon class="st0" points="960.8,136.6 970.8,158.6 993.1,162.1 977,179.3 980.8,203.6 960.8,192.1 940.8,203.6 944.6,179.3 
					928.4,162.1 950.8,158.6 				"/>
			</g>
		</g>
	</g>
</g>
<g>
	
		<image style="overflow:visible;opacity:0.3;" width="339" height="343" xlink:href="89C5FF8A.png"  transform="matrix(1 0 0 1 792 744)">
	</image>
	<g>
		
			<image style="overflow:visible;opacity:0.75;" width="194" height="197" xlink:href="89C5FF95.png"  transform="matrix(1 0 0 1 864 814)">
		</image>
		<g>
			<polygon class="st1" points="960.8,879.4 970.8,901.5 993.1,905 977,922.2 980.8,946.5 960.8,935 940.8,946.5 944.6,922.2 
				928.4,905 950.8,901.5 			"/>
			<polygon class="st2" points="960.8,879.4 970.8,901.5 993.1,905 977,922.2 980.8,946.5 960.8,935 940.8,946.5 944.6,922.2 
				928.4,905 950.8,901.5 			"/>
		</g>
	</g>
</g>
</svg>
