<?xml version="1.0" encoding="utf-8"?>
<!-- Generator: Adobe Illustrator 23.0.5, SVG Export Plug-In . SVG Version: 6.00 Build 0)  -->
<svg version="1.1" id="圖層_1" xmlns="http://www.w3.org/2000/svg" xmlns:xlink="http://www.w3.org/1999/xlink" x="0px" y="0px"
	 viewBox="0 0 1920 1080" style="enable-background:new 0 0 1920 1080;" xml:space="preserve">
<style type="text/css">
	.st0{fill:#FFFFFF;stroke:#000000;stroke-width:4;stroke-miterlimit:10;}
	.st1{fill:#FFFFFF;}
	.st2{fill:none;stroke:#000000;stroke-width:4;stroke-miterlimit:10;}
</style>
<g>
	
		<image style="overflow:visible;opacity:0.3;" width="679" height="345" xlink:href="35AA6C2A.png"  transform="matrix(1 0 0 1 621 372)">
	</image>
	<g>
		
			<image style="overflow:visible;opacity:0.75;" width="534" height="199" xlink:href="35AA6C2E.png"  transform="matrix(1 0 0 1 693 442)">
		</image>
		<g>
			<g>
				<polygon class="st0" points="789.9,508.9 799.9,531 822.2,534.5 806.1,551.7 809.9,575.9 789.9,564.5 769.9,575.9 773.7,551.7 
					757.5,534.5 779.9,531 				"/>
				<polygon class="st0" points="875,509.5 885,531.6 907.4,535.1 891.2,552.3 895,576.6 875,565.1 855,576.6 858.9,552.3 
					842.7,535.1 865,531.6 				"/>
				<polygon class="st0" points="960.2,507.6 970.2,529.7 992.5,533.3 976.4,550.4 980.2,574.7 960.2,563.2 940.2,574.7 944,550.4 
					927.8,533.3 950.2,529.7 				"/>
				<polygon class="st0" points="1045.3,508.3 1055.3,530.3 1077.7,533.9 1061.5,551.1 1065.3,575.3 1045.3,563.9 1025.4,575.3 
					1029.2,551.1 1013,533.9 1035.3,530.3 				"/>
				<polygon class="st0" points="1130.5,507 1140.5,529.1 1162.8,532.6 1146.7,549.8 1150.5,574 1130.5,562.6 1110.5,574 
					1114.3,549.8 1098.2,532.6 1120.5,529.1 				"/>
			</g>
		</g>
	</g>
</g>
<g>
	
		<image style="overflow:visible;opacity:0.3;" width="508" height="344" xlink:href="35AA6C29.png"  transform="matrix(1 0 0 1 706 496)">
	</image>
	<g>
		
			<image style="overflow:visible;opacity:0.75;" width="364" height="198" xlink:href="35AA6C2B.png"  transform="matrix(1 0 0 1 778 566)">
		</image>
		<g>
			<g>
				<polygon class="st0" points="875,632.2 885,654.2 907.4,657.8 891.2,674.9 895,699.2 875,687.7 855,699.2 858.9,674.9 
					842.7,657.8 865,654.2 				"/>
				<polygon class="st0" points="960.2,632.8 970.2,654.8 992.5,658.4 976.4,675.6 980.2,699.8 960.2,688.4 940.2,699.8 944,675.6 
					927.8,658.4 950.2,654.8 				"/>
				<polygon class="st0" points="1045.3,630.9 1055.3,653 1077.7,656.5 1061.5,673.7 1065.3,697.9 1045.3,686.5 1025.4,697.9 
					1029.2,673.7 1013,656.5 1035.3,653 				"/>
			</g>
		</g>
	</g>
</g>
<g>
	
		<image style="overflow:visible;opacity:0.3;" width="852" height="345" xlink:href="35AA6C28.png"  transform="matrix(1 0 0 1 534 248)">
	</image>
	<g>
		
			<image style="overflow:visible;opacity:0.75;" width="706" height="199" xlink:href="35AA6C36.png"  transform="matrix(1 0 0 1 607 318)">
		</image>
		<g>
			<g>
				<g>
					<polygon class="st0" points="704.2,385 714.2,407.1 736.6,410.6 720.4,427.8 724.2,452 704.2,440.6 684.2,452 688,427.8 
						671.9,410.6 694.2,407.1 					"/>
					<polygon class="st0" points="789.4,385.6 799.4,407.7 821.7,411.3 805.5,428.4 809.4,452.7 789.4,441.2 769.4,452.7 
						773.2,428.4 757,411.3 779.4,407.7 					"/>
					<polygon class="st0" points="874.5,383.8 884.5,405.8 906.9,409.4 890.7,426.5 894.5,450.8 874.5,439.4 854.5,450.8 
						858.3,426.5 842.2,409.4 864.5,405.8 					"/>
					<polygon class="st0" points="959.7,384.4 969.7,406.5 992,410 975.8,427.2 979.7,451.4 959.7,440 939.7,451.4 943.5,427.2 
						927.3,410 949.7,406.5 					"/>
					<polygon class="st0" points="1044.8,383.1 1054.8,405.2 1077.2,408.8 1061,425.9 1064.8,450.2 1044.8,438.7 1024.8,450.2 
						1028.7,425.9 1012.5,408.8 1034.8,405.2 					"/>
				</g>
				<polygon class="st0" points="1131,383.5 1141,405.5 1163.4,409.1 1147.2,426.2 1151,450.5 1131,439 1111,450.5 1114.8,426.2 
					1098.7,409.1 1121,405.5 				"/>
				<polygon class="st0" points="1216.2,384.1 1226.2,406.1 1248.5,409.7 1232.3,426.9 1236.2,451.1 1216.2,439.7 1196.2,451.1 
					1200,426.9 1183.8,409.7 1206.2,406.1 				"/>
			</g>
		</g>
	</g>
</g>
<g>
	
		<image style="overflow:visible;opacity:0.3;" width="1025" height="346" xlink:href="35AA6C39.png"  transform="matrix(1 0 0 1 448 123)">
	</image>
	<g>
		
			<image style="overflow:visible;opacity:0.75;" width="879" height="200" xlink:href="35AA6C3A.png"  transform="matrix(1 0 0 1 521 193)">
		</image>
		<g>
			<g>
				<polygon class="st0" points="1217,258.3 1227,280.4 1249.3,283.9 1233.2,301.1 1237,325.4 1217,313.9 1197,325.4 1200.8,301.1 
					1184.7,283.9 1207,280.4 				"/>
				<polygon class="st0" points="1302.6,258.8 1312.6,280.8 1335,284.4 1318.8,301.5 1322.6,325.8 1302.6,314.3 1282.6,325.8 
					1286.4,301.5 1270.3,284.4 1292.6,280.8 				"/>
				<polygon class="st0" points="617.8,261.3 627.8,283.4 650.1,286.9 633.9,304.1 637.8,328.4 617.8,316.9 597.8,328.4 
					601.6,304.1 585.4,286.9 607.8,283.4 				"/>
				<polygon class="st0" points="703.4,261.8 713.4,283.8 735.7,287.4 719.5,304.5 723.4,328.8 703.4,317.4 683.4,328.8 
					687.2,304.5 671,287.4 693.4,283.8 				"/>
				<polygon class="st0" points="789,260 799,282.1 821.3,285.6 805.2,302.8 809,327.1 789,315.6 769,327.1 772.8,302.8 
					756.6,285.6 779,282.1 				"/>
				<polygon class="st0" points="874.6,260.9 884.6,283 906.9,286.5 890.8,303.7 894.6,327.9 874.6,316.5 854.6,327.9 858.4,303.7 
					842.3,286.5 864.6,283 				"/>
				<polygon class="st0" points="960.2,259.2 970.2,281.3 992.5,284.8 976.4,302 980.2,326.2 960.2,314.8 940.2,326.2 944,302 
					927.8,284.8 950.2,281.3 				"/>
				<polygon class="st0" points="1045.8,259.6 1055.8,281.7 1078.1,285.2 1062,302.4 1065.8,326.6 1045.8,315.2 1025.8,326.6 
					1029.6,302.4 1013.5,285.2 1035.8,281.7 				"/>
				<polygon class="st0" points="1131.4,260.5 1141.4,282.5 1163.8,286.1 1147.6,303.3 1151.4,327.5 1131.4,316.1 1111.4,327.5 
					1115.2,303.3 1099.1,286.1 1121.4,282.5 				"/>
			</g>
		</g>
	</g>
</g>
<g>
	
		<image style="overflow:visible;opacity:0.3;" width="340" height="342" xlink:href="35AA6C38.png"  transform="matrix(1 0 0 1 790 619)">
	</image>
	<g>
		
			<image style="overflow:visible;opacity:0.75;" width="194" height="196" xlink:href="C1A1A26D.png"  transform="matrix(1 0 0 1 863 689)">
		</image>
		<g>
			<polygon class="st1" points="960.2,754.2 970.2,776.2 992.5,779.8 976.4,796.9 980.2,821.2 960.2,809.7 940.2,821.2 944,796.9 
				927.8,779.8 950.2,776.2 			"/>
			<polygon class="st2" points="960.2,754.2 970.2,776.2 992.5,779.8 976.4,796.9 980.2,821.2 960.2,809.7 940.2,821.2 944,796.9 
				927.8,779.8 950.2,776.2 			"/>
		</g>
	</g>
</g>
</svg>
