<?xml version="1.0" encoding="utf-8"?>
<!-- Generator: Adobe Illustrator 23.0.5, SVG Export Plug-In . SVG Version: 6.00 Build 0)  -->
<svg version="1.1" id="圖層_1" xmlns="http://www.w3.org/2000/svg" xmlns:xlink="http://www.w3.org/1999/xlink" x="0px" y="0px"
	 viewBox="0 0 1920 1080" style="enable-background:new 0 0 1920 1080;" xml:space="preserve">
<style type="text/css">
	.st0{fill:#FFFFFF;stroke:#000000;stroke-width:4;stroke-miterlimit:10;}
</style>
<g>
	
		<image style="overflow:visible;opacity:0.3;" width="680" height="590" xlink:href="22C34209.png"  transform="matrix(1 0 0 1 620 248)">
	</image>
	<g>
		
			<image style="overflow:visible;opacity:0.75;" width="534" height="444" xlink:href="22C3420B.png"  transform="matrix(1 0 0 1 693 318)">
		</image>
		<g>
			<g>
				<g>
					<polygon class="st0" points="789.9,385.1 799.9,407.2 822.3,410.7 806.1,427.9 809.9,452.1 789.9,440.7 769.9,452.1 
						773.7,427.9 757.6,410.7 779.9,407.2 					"/>
					<polygon class="st0" points="875.1,385.8 885.1,407.8 907.4,411.4 891.2,428.5 895,452.8 875.1,441.3 855.1,452.8 858.9,428.5 
						842.7,411.4 865.1,407.8 					"/>
					<polygon class="st0" points="960.2,383.9 970.2,405.9 992.6,409.5 976.4,426.6 980.2,450.9 960.2,439.5 940.2,450.9 944,426.6 
						927.9,409.5 950.2,405.9 					"/>
					<polygon class="st0" points="1045.4,384.5 1055.4,406.6 1077.7,410.1 1061.5,427.3 1065.4,451.5 1045.4,440.1 1025.4,451.5 
						1029.2,427.3 1013,410.1 1035.4,406.6 					"/>
					<polygon class="st0" points="1130.5,383.2 1140.5,405.3 1162.9,408.8 1146.7,426 1150.5,450.3 1130.5,438.8 1110.5,450.3 
						1114.3,426 1098.2,408.8 1120.5,405.3 					"/>
				</g>
				<g>
					<polygon class="st0" points="789.9,508.4 799.9,530.4 822.3,534 806.1,551.2 809.9,575.4 789.9,564 769.9,575.4 773.7,551.2 
						757.6,534 779.9,530.4 					"/>
					<polygon class="st0" points="875.1,509 885.1,531.1 907.4,534.6 891.2,551.8 895,576 875.1,564.6 855.1,576 858.9,551.8 
						842.7,534.6 865.1,531.1 					"/>
					<polygon class="st0" points="960.2,507.1 970.2,529.2 992.6,532.7 976.4,549.9 980.2,574.2 960.2,562.7 940.2,574.2 944,549.9 
						927.9,532.7 950.2,529.2 					"/>
				</g>
				<polygon class="st0" points="789.9,630.4 799.9,652.4 822.3,656 806.1,673.2 809.9,697.4 789.9,686 769.9,697.4 773.7,673.2 
					757.6,656 779.9,652.4 				"/>
			</g>
		</g>
	</g>
</g>
</svg>
