<?xml version="1.0" encoding="utf-8"?>
<!-- Generator: Adobe Illustrator 23.0.5, SVG Export Plug-In . SVG Version: 6.00 Build 0)  -->
<svg version="1.1" id="圖層_1" xmlns="http://www.w3.org/2000/svg" xmlns:xlink="http://www.w3.org/1999/xlink" x="0px" y="0px"
	 viewBox="0 0 1920 1080" style="enable-background:new 0 0 1920 1080;" xml:space="preserve">
<style type="text/css">
	.st0{fill:#FFFFFF;stroke:#000000;stroke-width:4;stroke-miterlimit:10;}
</style>
<g>
	
		<image style="overflow:visible;opacity:0.3;" width="1368" height="1088" xlink:href="98FB01E2.png"  transform="matrix(1 0 0 1 326 -4)">
	</image>
	<g>
		
			<image style="overflow:visible;opacity:0.75;" width="1223" height="942" xlink:href="98FB01E5.png"  transform="matrix(1 0 0 1 398 66)">
		</image>
		<g>
			<g>
				<g>
					<polygon class="st0" points="839.5,377.7 849.5,399.8 871.9,403.3 855.7,420.5 859.5,444.8 839.5,433.3 819.6,444.8 
						823.4,420.5 807.2,403.3 829.5,399.8 					"/>
					<polygon class="st0" points="924.7,378.4 934.7,400.4 957,404 940.9,421.1 944.7,445.4 924.7,433.9 904.7,445.4 908.5,421.1 
						892.3,404 914.7,400.4 					"/>
					<polygon class="st0" points="1009.8,376.5 1019.8,398.5 1042.2,402.1 1026,419.3 1029.8,443.5 1009.8,432 989.9,443.5 
						993.7,419.3 977.5,402.1 999.9,398.5 					"/>
					<polygon class="st0" points="1095,377.1 1105,399.2 1127.3,402.7 1111.2,419.9 1115,444.1 1095,432.7 1075,444.1 1078.8,419.9 
						1062.7,402.7 1085,399.2 					"/>
					<polygon class="st0" points="1180.2,375.9 1190.2,397.9 1212.5,401.5 1196.3,418.6 1200.2,442.9 1180.2,431.4 1160.2,442.9 
						1164,418.6 1147.8,401.5 1170.2,397.9 					"/>
				</g>
				<g>
					<polygon class="st0" points="924.7,253.9 934.7,275.9 957,279.5 940.9,296.6 944.7,320.9 924.7,309.4 904.7,320.9 908.5,296.6 
						892.3,279.5 914.7,275.9 					"/>
					<polygon class="st0" points="1009.8,254.5 1019.8,276.5 1042.2,280.1 1026,297.3 1029.8,321.5 1009.8,310 989.9,321.5 
						993.7,297.3 977.5,280.1 999.9,276.5 					"/>
					<polygon class="st0" points="1095,252.6 1105,274.7 1127.3,278.2 1111.2,295.4 1115,319.6 1095,308.2 1075,319.6 1078.8,295.4 
						1062.7,278.2 1085,274.7 					"/>
				</g>
				<g>
					<g>
						<polygon class="st0" points="753.9,501.6 763.9,523.7 786.2,527.2 770,544.4 773.9,568.6 753.9,557.2 733.9,568.6 
							737.7,544.4 721.5,527.2 743.9,523.7 						"/>
						<polygon class="st0" points="839,502.2 849,524.3 871.4,527.8 855.2,545 859,569.3 839,557.8 819,569.3 822.9,545 
							806.7,527.8 829,524.3 						"/>
						<polygon class="st0" points="924.2,500.4 934.2,522.4 956.5,526 940.3,543.1 944.2,567.4 924.2,555.9 904.2,567.4 908,543.1 
							891.8,526 914.2,522.4 						"/>
						<polygon class="st0" points="1009.3,501 1019.3,523 1041.7,526.6 1025.5,543.8 1029.3,568 1009.3,556.6 989.3,568 
							993.2,543.8 977,526.6 999.3,523 						"/>
						<polygon class="st0" points="1094.5,499.7 1104.5,521.8 1126.8,525.3 1110.7,542.5 1114.5,566.8 1094.5,555.3 1074.5,566.8 
							1078.3,542.5 1062.2,525.3 1084.5,521.8 						"/>
					</g>
					<polygon class="st0" points="1180.7,500 1190.7,522.1 1213,525.7 1196.8,542.8 1200.7,567.1 1180.7,555.6 1160.7,567.1 
						1164.5,542.8 1148.3,525.7 1170.7,522.1 					"/>
					<polygon class="st0" points="1265.8,500.7 1275.8,522.7 1298.2,526.3 1282,543.5 1285.8,567.7 1265.8,556.3 1245.8,567.7 
						1249.7,543.5 1233.5,526.3 1255.8,522.7 					"/>
				</g>
				<g>
					<polygon class="st0" points="1266.7,623.6 1276.7,645.7 1299,649.2 1282.8,666.4 1286.7,690.6 1266.7,679.2 1246.7,690.6 
						1250.5,666.4 1234.3,649.2 1256.7,645.7 					"/>
					<polygon class="st0" points="1352.3,624 1362.3,646.1 1384.6,649.6 1368.4,666.8 1372.3,691.1 1352.3,679.6 1332.3,691.1 
						1336.1,666.8 1319.9,649.6 1342.3,646.1 					"/>
					<polygon class="st0" points="667.4,626.6 677.4,648.7 699.8,652.2 683.6,669.4 687.4,693.7 667.4,682.2 647.4,693.7 
						651.3,669.4 635.1,652.2 657.4,648.7 					"/>
					<polygon class="st0" points="753,627.1 763,649.1 785.4,652.7 769.2,669.8 773,694.1 753,682.6 733,694.1 736.9,669.8 
						720.7,652.7 743,649.1 					"/>
					<polygon class="st0" points="838.6,625.3 848.6,647.4 871,650.9 854.8,668.1 858.6,692.4 838.6,680.9 818.7,692.4 822.5,668.1 
						806.3,650.9 828.6,647.4 					"/>
					<polygon class="st0" points="924.3,626.2 934.2,648.3 956.6,651.8 940.4,669 944.2,693.2 924.3,681.8 904.3,693.2 908.1,669 
						891.9,651.8 914.3,648.3 					"/>
					<polygon class="st0" points="1009.8,624.5 1019.8,646.5 1042.2,650.1 1026,667.3 1029.8,691.5 1009.8,680 989.9,691.5 
						993.7,667.3 977.5,650.1 999.9,646.5 					"/>
					<polygon class="st0" points="1095.5,624.9 1105.4,647 1127.8,650.5 1111.6,667.7 1115.4,691.9 1095.5,680.5 1075.5,691.9 
						1079.3,667.7 1063.1,650.5 1085.5,647 					"/>
					<polygon class="st0" points="1181.1,625.8 1191.1,647.8 1213.4,651.4 1197.2,668.5 1201.1,692.8 1181.1,681.3 1161.1,692.8 
						1164.9,668.5 1148.7,651.4 1171.1,647.8 					"/>
				</g>
				<g>
					<polygon class="st0" points="1352.8,749.5 1362.8,771.5 1385.2,775.1 1369,792.2 1372.8,816.5 1352.8,805 1332.8,816.5 
						1336.7,792.2 1320.5,775.1 1342.8,771.5 					"/>
					<polygon class="st0" points="1438.6,750.5 1448.6,772.6 1470.9,776.1 1454.7,793.3 1458.6,817.5 1438.6,806.1 1418.6,817.5 
						1422.4,793.3 1406.2,776.1 1428.6,772.6 					"/>
					<polygon class="st0" points="1181.3,748.4 1191.3,770.5 1213.7,774 1197.5,791.2 1201.3,815.5 1181.3,804 1161.3,815.5 
						1165.2,791.2 1149,774 1171.3,770.5 					"/>
					<polygon class="st0" points="1267.1,748.8 1277.1,770.8 1299.4,774.4 1283.3,791.5 1287.1,815.8 1267.1,804.3 1247.1,815.8 
						1250.9,791.5 1234.7,774.4 1257.1,770.8 					"/>
					<polygon class="st0" points="581.1,751.5 591.1,773.6 613.5,777.1 597.3,794.3 601.1,818.6 581.1,807.1 561.2,818.6 565,794.3 
						548.8,777.1 571.2,773.6 					"/>
					<polygon class="st0" points="666.9,751.9 676.9,773.9 699.2,777.5 683,794.7 686.9,818.9 666.9,807.5 646.9,818.9 650.7,794.7 
						634.5,777.5 656.9,773.9 					"/>
					<polygon class="st0" points="752.6,750.2 762.6,772.2 785,775.8 768.8,792.9 772.6,817.2 752.6,805.7 732.6,817.2 736.5,792.9 
						720.3,775.8 742.6,772.2 					"/>
					<polygon class="st0" points="838.4,751.2 848.4,773.3 870.7,776.8 854.5,794 858.4,818.2 838.4,806.8 818.4,818.2 822.2,794 
						806,776.8 828.4,773.3 					"/>
					<polygon class="st0" points="924.1,749.1 934.1,771.2 956.5,774.7 940.3,791.9 944.1,816.2 924.1,804.7 904.1,816.2 
						907.9,791.9 891.8,774.7 914.1,771.2 					"/>
					<polygon class="st0" points="1009.8,749.8 1019.8,771.9 1042.2,775.4 1026,792.6 1029.8,816.8 1009.8,805.4 989.9,816.8 
						993.7,792.6 977.5,775.4 999.9,771.9 					"/>
					<polygon class="st0" points="1095.6,750.8 1105.6,772.9 1127.9,776.5 1111.8,793.6 1115.6,817.9 1095.6,806.4 1075.6,817.9 
						1079.4,793.6 1063.3,776.5 1085.6,772.9 					"/>
				</g>
				<g>
					<polygon class="st0" points="1438.7,873.5 1448.7,895.6 1471.1,899.1 1454.9,916.3 1458.7,940.6 1438.7,929.1 1418.7,940.6 
						1422.6,916.3 1406.4,899.1 1428.7,895.6 					"/>
					<polygon class="st0" points="1524.5,874.1 1534.5,896.2 1556.8,899.7 1540.7,916.9 1544.5,941.1 1524.5,929.7 1504.5,941.1 
						1508.3,916.9 1492.2,899.7 1514.5,896.2 					"/>
					<polygon class="st0" points="1267.2,874.7 1277.2,896.8 1299.5,900.3 1283.3,917.5 1287.2,941.7 1267.2,930.3 1247.2,941.7 
						1251,917.5 1234.8,900.3 1257.2,896.8 					"/>
					<polygon class="st0" points="1352.9,875.5 1362.9,897.6 1385.3,901.2 1369.1,918.3 1372.9,942.6 1352.9,931.1 1333,942.6 
						1336.8,918.3 1320.6,901.2 1342.9,897.6 					"/>
					<polygon class="st0" points="1095.6,873.3 1105.6,895.3 1128,898.8 1111.8,916 1115.6,940.3 1095.6,928.8 1075.6,940.3 
						1079.4,916 1063.3,898.8 1085.6,895.3 					"/>
					<polygon class="st0" points="1181.4,873.8 1191.4,895.9 1213.7,899.4 1197.6,916.6 1201.4,940.8 1181.4,929.4 1161.4,940.8 
						1165.2,916.6 1149.1,899.4 1171.4,895.9 					"/>
					<polygon class="st0" points="495.2,876.4 505.2,898.5 527.5,902 511.4,919.2 515.2,943.4 495.2,932 475.2,943.4 479,919.2 
						462.9,902 485.2,898.5 					"/>
					<polygon class="st0" points="581,876.7 591,898.8 613.3,902.3 597.2,919.5 601,943.7 581,932.3 561,943.7 564.8,919.5 
						548.6,902.3 571,898.8 					"/>
					<polygon class="st0" points="666.8,875.3 676.8,897.3 699.1,900.9 682.9,918 686.7,942.3 666.8,930.8 646.8,942.3 650.6,918 
						634.4,900.9 656.8,897.3 					"/>
					<polygon class="st0" points="752.5,876.1 762.5,898.2 784.9,901.7 768.7,918.9 772.5,943.2 752.5,931.7 732.5,943.2 
						736.4,918.9 720.2,901.7 742.5,898.2 					"/>
					<polygon class="st0" points="838.3,874.4 848.3,896.5 870.6,900 854.5,917.2 858.3,941.4 838.3,930 818.3,941.4 822.1,917.2 
						806,900 828.3,896.5 					"/>
					<polygon class="st0" points="924.1,875 934.1,897 956.4,900.6 940.3,917.8 944.1,942 924.1,930.5 904.1,942 907.9,917.8 
						891.7,900.6 914.1,897 					"/>
					<polygon class="st0" points="1009.8,875.8 1019.8,897.9 1042.2,901.4 1026,918.6 1029.8,942.9 1009.8,931.4 989.9,942.9 
						993.7,918.6 977.5,901.4 999.9,897.9 					"/>
				</g>
				<polygon class="st0" points="1009.8,131.2 1019.8,153.3 1042.2,156.8 1026,174 1029.8,198.3 1009.8,186.8 989.9,198.3 
					993.7,174 977.5,156.8 999.9,153.3 				"/>
			</g>
		</g>
	</g>
</g>
</svg>
