<?xml version="1.0" encoding="utf-8"?>
<!-- Generator: Adobe Illustrator 23.0.5, SVG Export Plug-In . SVG Version: 6.00 Build 0)  -->
<svg version="1.1" id="圖層_1" xmlns="http://www.w3.org/2000/svg" xmlns:xlink="http://www.w3.org/1999/xlink" x="0px" y="0px"
	 viewBox="0 0 1920 1080" style="enable-background:new 0 0 1920 1080;" xml:space="preserve">
<style type="text/css">
	.st0{fill:#FFFFFF;stroke:#000000;stroke-width:4;stroke-miterlimit:10;}
</style>
<g>
	
		<image style="overflow:visible;opacity:0.3;" width="679" height="590" xlink:href="C18DC398.png"  transform="matrix(1 0 0 1 621 247)">
	</image>
	<g>
		
			<image style="overflow:visible;opacity:0.75;" width="535" height="444" xlink:href="C18DC399.png"  transform="matrix(1 0 0 1 693 317)">
		</image>
		<g>
			<g>
				<g>
					<polygon class="st0" points="790.2,384.6 800.2,406.7 822.5,410.2 806.3,427.4 810.1,451.6 790.2,440.2 770.2,451.6 774,427.4 
						757.8,410.2 780.2,406.7 					"/>
					<polygon class="st0" points="875.3,385.3 885.3,407.3 907.7,410.9 891.5,428 895.3,452.3 875.3,440.8 855.3,452.3 859.1,428 
						843,410.9 865.3,407.3 					"/>
					<polygon class="st0" points="960.5,383.4 970.4,405.4 992.8,409 976.6,426.1 980.4,450.4 960.5,439 940.5,450.4 944.3,426.1 
						928.1,409 950.5,405.4 					"/>
					<polygon class="st0" points="1045.6,384 1055.6,406.1 1077.9,409.6 1061.8,426.8 1065.6,451 1045.6,439.6 1025.6,451 
						1029.4,426.8 1013.3,409.6 1035.6,406.1 					"/>
					<polygon class="st0" points="1130.8,382.8 1140.8,404.8 1163.1,408.4 1146.9,425.5 1150.8,449.8 1130.8,438.3 1110.8,449.8 
						1114.6,425.5 1098.4,408.4 1120.8,404.8 					"/>
				</g>
				<g>
					<polygon class="st0" points="875.3,507.9 885.3,530 907.7,533.5 891.5,550.7 895.3,574.9 875.3,563.5 855.3,574.9 859.1,550.7 
						843,533.5 865.3,530 					"/>
					<polygon class="st0" points="960.5,508.5 970.4,530.6 992.8,534.1 976.6,551.3 980.4,575.5 960.5,564.1 940.5,575.5 
						944.3,551.3 928.1,534.1 950.5,530.6 					"/>
					<polygon class="st0" points="1045.6,506.6 1055.6,528.7 1077.9,532.2 1061.8,549.4 1065.6,573.7 1045.6,562.2 1025.6,573.7 
						1029.4,549.4 1013.3,532.2 1035.6,528.7 					"/>
				</g>
				<polygon class="st0" points="960.5,629.9 970.4,652 992.8,655.5 976.6,672.7 980.4,696.9 960.5,685.5 940.5,696.9 944.3,672.7 
					928.1,655.5 950.5,652 				"/>
			</g>
		</g>
	</g>
</g>
</svg>
