<?xml version="1.0" encoding="utf-8"?>
<!-- Generator: Adobe Illustrator 23.0.5, SVG Export Plug-In . SVG Version: 6.00 Build 0)  -->
<svg version="1.1" id="圖層_1" xmlns="http://www.w3.org/2000/svg" xmlns:xlink="http://www.w3.org/1999/xlink" x="0px" y="0px"
	 viewBox="0 0 1920 1080" style="enable-background:new 0 0 1920 1080;" xml:space="preserve">
<style type="text/css">
	.st0{fill:#FFFFFF;stroke:#000000;stroke-width:4;stroke-miterlimit:10;}
	.st1{fill:#FFFFFF;}
	.st2{fill:none;stroke:#000000;stroke-width:4;stroke-miterlimit:10;}
</style>
<g>
	
		<image style="overflow:visible;opacity:0.3;" width="680" height="345" xlink:href="6FF16001.png"  transform="matrix(1 0 0 1 620 492)">
	</image>
	<g>
		
			<image style="overflow:visible;opacity:0.75;" width="534" height="200" xlink:href="6FF16003.png"  transform="matrix(1 0 0 1 694 562)">
		</image>
		<g>
			<g>
				<polygon class="st0" points="790.5,629.5 800.5,651.6 822.8,655.2 806.6,672.3 810.5,696.6 790.5,685.1 770.5,696.6 
					774.3,672.3 758.1,655.2 780.5,651.6 				"/>
				<polygon class="st0" points="875.6,630.2 885.6,652.2 908,655.8 891.8,673 895.6,697.2 875.6,685.8 855.6,697.2 859.4,673 
					843.3,655.8 865.6,652.2 				"/>
				<polygon class="st0" points="960.8,628.3 970.8,650.4 993.1,653.9 976.9,671.1 980.8,695.3 960.8,683.9 940.8,695.3 
					944.6,671.1 928.4,653.9 950.8,650.4 				"/>
				<polygon class="st0" points="1045.9,628.9 1055.9,651 1078.3,654.5 1062.1,671.7 1065.9,696 1045.9,684.5 1025.9,696 
					1029.8,671.7 1013.6,654.5 1035.9,651 				"/>
				<polygon class="st0" points="1131.1,627.7 1141.1,649.7 1163.4,653.3 1147.3,670.5 1151.1,694.7 1131.1,683.3 1111.1,694.7 
					1114.9,670.5 1098.7,653.3 1121.1,649.7 				"/>
			</g>
		</g>
	</g>
</g>
<g>
	
		<image style="overflow:visible;opacity:0.3;" width="510" height="344" xlink:href="6FF16006.png"  transform="matrix(1 0 0 1 620 369)">
	</image>
	<g>
		
			<image style="overflow:visible;opacity:0.75;" width="364" height="199" xlink:href="6FF16007.png"  transform="matrix(1 0 0 1 694 439)">
		</image>
		<g>
			<g>
				<polygon class="st0" points="790.5,505.7 800.5,527.7 822.8,531.3 806.6,548.5 810.5,572.7 790.5,561.3 770.5,572.7 
					774.3,548.5 758.1,531.3 780.5,527.7 				"/>
				<polygon class="st0" points="875.6,506.3 885.6,528.4 908,531.9 891.8,549.1 895.6,573.3 875.6,561.9 855.6,573.3 859.4,549.1 
					843.3,531.9 865.6,528.4 				"/>
				<polygon class="st0" points="960.8,504.4 970.8,526.5 993.1,530 976.9,547.2 980.8,571.4 960.8,560 940.8,571.4 944.6,547.2 
					928.4,530 950.8,526.5 				"/>
			</g>
		</g>
	</g>
</g>
<g>
	
		<image style="overflow:visible;opacity:0.3;" width="339" height="342" xlink:href="6FF16002.png"  transform="matrix(1 0 0 1 621 248)">
	</image>
	<g>
		
			<image style="overflow:visible;opacity:0.75;" width="193" height="196" xlink:href="6FF1600D.png"  transform="matrix(1 0 0 1 694 318)">
		</image>
		<g>
			<polygon class="st1" points="790.5,383 800.5,405.1 822.8,408.6 806.6,425.8 810.5,450.1 790.5,438.6 770.5,450.1 774.3,425.8 
				758.1,408.6 780.5,405.1 			"/>
			<polygon class="st2" points="790.5,383 800.5,405.1 822.8,408.6 806.6,425.8 810.5,450.1 790.5,438.6 770.5,450.1 774.3,425.8 
				758.1,408.6 780.5,405.1 			"/>
		</g>
	</g>
</g>
</svg>
