<?xml version="1.0" encoding="utf-8"?>
<!-- Generator: Adobe Illustrator 23.0.5, SVG Export Plug-In . SVG Version: 6.00 Build 0)  -->
<svg version="1.1" id="圖層_1" xmlns="http://www.w3.org/2000/svg" xmlns:xlink="http://www.w3.org/1999/xlink" x="0px" y="0px"
	 viewBox="0 0 1920 1080" style="enable-background:new 0 0 1920 1080;" xml:space="preserve">
<style type="text/css">
	.st0{fill:#FFFFFF;stroke:#000000;stroke-width:4;stroke-miterlimit:10;}
	.st1{fill:#FFFFFF;}
	.st2{fill:none;stroke:#000000;stroke-width:4;stroke-miterlimit:10;}
</style>
<g>
	
		<image style="overflow:visible;opacity:0.3;" width="681" height="345" xlink:href="AFC932D.png"  transform="matrix(1 0 0 1 275 496)">
	</image>
	<g>
		
			<image style="overflow:visible;opacity:0.75;" width="535" height="200" xlink:href="AFC932F.png"  transform="matrix(1 0 0 1 348 566)">
		</image>
		<g>
			<g>
				<polygon class="st0" points="445.2,633.7 455.2,655.7 477.6,659.3 461.4,676.5 465.2,700.7 445.2,689.3 425.2,700.7 429,676.5 
					412.9,659.3 435.2,655.7 				"/>
				<polygon class="st0" points="530.4,634.3 540.4,656.4 562.7,659.9 546.5,677.1 550.4,701.3 530.4,689.9 510.4,701.3 
					514.2,677.1 498,659.9 520.4,656.4 				"/>
				<polygon class="st0" points="615.5,632.4 625.5,654.5 647.9,658 631.7,675.2 635.5,699.5 615.5,688 595.5,699.5 599.3,675.2 
					583.2,658 605.5,654.5 				"/>
				<polygon class="st0" points="700.7,633 710.7,655.1 733,658.7 716.8,675.8 720.7,700.1 700.7,688.6 680.7,700.1 684.5,675.8 
					668.3,658.7 690.7,655.1 				"/>
				<polygon class="st0" points="785.8,631.8 795.8,653.9 818.2,657.4 802,674.6 805.8,698.8 785.8,687.4 765.8,698.8 769.7,674.6 
					753.5,657.4 775.8,653.9 				"/>
			</g>
		</g>
	</g>
</g>
<g>
	
		<image style="overflow:visible;opacity:0.3;" width="510" height="345" xlink:href="AFC932A.png"  transform="matrix(1 0 0 1 276 620)">
	</image>
	<g>
		
			<image style="overflow:visible;opacity:0.75;" width="364" height="199" xlink:href="AFC932B.png"  transform="matrix(1 0 0 1 348 690)">
		</image>
		<g>
			<g>
				<polygon class="st0" points="445.2,756.9 455.2,779 477.6,782.5 461.4,799.7 465.2,824 445.2,812.5 425.2,824 429,799.7 
					412.9,782.5 435.2,779 				"/>
				<polygon class="st0" points="530.4,757.6 540.4,779.6 562.7,783.2 546.5,800.3 550.4,824.6 530.4,813.1 510.4,824.6 
					514.2,800.3 498,783.2 520.4,779.6 				"/>
				<polygon class="st0" points="615.5,755.7 625.5,777.7 647.9,781.3 631.7,798.5 635.5,822.7 615.5,811.3 595.5,822.7 
					599.3,798.5 583.2,781.3 605.5,777.7 				"/>
			</g>
		</g>
	</g>
</g>
<g>
	
		<image style="overflow:visible;opacity:0.3;" width="852" height="345" xlink:href="AFC9335.png"  transform="matrix(1 0 0 1 275 372)">
	</image>
	<g>
		
			<image style="overflow:visible;opacity:0.75;" width="706" height="199" xlink:href="AFC9337.png"  transform="matrix(1 0 0 1 348 443)">
		</image>
		<g>
			<g>
				<g>
					<polygon class="st0" points="445.2,509.8 455.2,531.9 477.6,535.4 461.4,552.6 465.2,576.8 445.2,565.4 425.2,576.8 429,552.6 
						412.9,535.4 435.2,531.9 					"/>
					<polygon class="st0" points="530.4,510.4 540.4,532.5 562.7,536 546.5,553.2 550.4,577.5 530.4,566 510.4,577.5 514.2,553.2 
						498,536 520.4,532.5 					"/>
					<polygon class="st0" points="615.5,508.5 625.5,530.6 647.9,534.2 631.7,551.3 635.5,575.6 615.5,564.1 595.5,575.6 
						599.3,551.3 583.2,534.2 605.5,530.6 					"/>
					<polygon class="st0" points="700.7,509.2 710.7,531.2 733,534.8 716.8,552 720.7,576.2 700.7,564.8 680.7,576.2 684.5,552 
						668.3,534.8 690.7,531.2 					"/>
					<polygon class="st0" points="785.8,507.9 795.8,530 818.2,533.5 802,550.7 805.8,575 785.8,563.5 765.8,575 769.7,550.7 
						753.5,533.5 775.8,530 					"/>
				</g>
				<polygon class="st0" points="872,508.2 882,530.3 904.3,533.8 888.2,551 892,575.3 872,563.8 852,575.3 855.8,551 839.7,533.8 
					862,530.3 				"/>
				<polygon class="st0" points="957.2,508.9 967.2,530.9 989.5,534.5 973.3,551.6 977.2,575.9 957.2,564.4 937.2,575.9 941,551.6 
					924.8,534.5 947.2,530.9 				"/>
			</g>
		</g>
	</g>
</g>
<g>
	
		<image style="overflow:visible;opacity:0.3;" width="1024" height="346" xlink:href="AFC933A.png"  transform="matrix(1 0 0 1 275 248)">
	</image>
	<g>
		
			<image style="overflow:visible;opacity:0.75;" width="879" height="200" xlink:href="AFC933B.png"  transform="matrix(1 0 0 1 348 318)">
		</image>
		<g>
			<g>
				<polygon class="st0" points="1044.5,383.1 1054.4,405.2 1076.8,408.7 1060.6,425.9 1064.4,450.1 1044.5,438.7 1024.5,450.1 
					1028.3,425.9 1012.1,408.7 1034.5,405.2 				"/>
				<polygon class="st0" points="1130.1,383.5 1140.1,405.6 1162.4,409.1 1146.2,426.3 1150.1,450.6 1130.1,439.1 1110.1,450.6 
					1113.9,426.3 1097.7,409.1 1120.1,405.6 				"/>
				<polygon class="st0" points="445.2,386.1 455.2,408.2 477.6,411.7 461.4,428.9 465.2,453.1 445.2,441.7 425.2,453.1 429,428.9 
					412.9,411.7 435.2,408.2 				"/>
				<polygon class="st0" points="530.8,386.5 540.8,408.6 563.2,412.1 547,429.3 550.8,453.6 530.8,442.1 510.8,453.6 514.7,429.3 
					498.5,412.1 520.8,408.6 				"/>
				<polygon class="st0" points="616.4,384.8 626.4,406.9 648.8,410.4 632.6,427.6 636.4,451.9 616.4,440.4 596.4,451.9 
					600.3,427.6 584.1,410.4 606.4,406.9 				"/>
				<polygon class="st0" points="702,385.7 712,407.7 734.4,411.3 718.2,428.5 722,452.7 702,441.3 682,452.7 685.9,428.5 
					669.7,411.3 692,407.7 				"/>
				<polygon class="st0" points="787.6,384 797.6,406 820,409.6 803.8,426.7 807.6,451 787.6,439.5 767.7,451 771.5,426.7 
					755.3,409.6 777.6,406 				"/>
				<polygon class="st0" points="873.2,384.4 883.2,406.5 905.6,410 889.4,427.2 893.2,451.4 873.2,440 853.3,451.4 857.1,427.2 
					840.9,410 863.3,406.5 				"/>
				<polygon class="st0" points="958.8,385.3 968.8,407.3 991.2,410.9 975,428 978.8,452.3 958.8,440.8 938.9,452.3 942.7,428 
					926.5,410.9 948.9,407.3 				"/>
			</g>
		</g>
	</g>
</g>
<g>
	
		<image style="overflow:visible;opacity:0.3;" width="1198" height="346" xlink:href="AFC933D.png"  transform="matrix(1 0 0 1 275 123)">
	</image>
	<g>
		
			<image style="overflow:visible;opacity:0.75;" width="1052" height="200" xlink:href="96814586.png"  transform="matrix(1 0 0 1 348 193)">
		</image>
		<g>
			<g>
				<polygon class="st0" points="1216.9,259.3 1226.9,281.4 1249.2,284.9 1233.1,302.1 1236.9,326.3 1216.9,314.9 1196.9,326.3 
					1200.7,302.1 1184.6,284.9 1206.9,281.4 				"/>
				<polygon class="st0" points="1302.6,260.3 1312.6,282.4 1335,286 1318.8,303.1 1322.6,327.4 1302.6,315.9 1282.7,327.4 
					1286.5,303.1 1270.3,286 1292.6,282.4 				"/>
				<polygon class="st0" points="1045.4,258.3 1055.4,280.3 1077.8,283.9 1061.6,301 1065.4,325.3 1045.4,313.9 1025.4,325.3 
					1029.2,301 1013.1,283.9 1035.4,280.3 				"/>
				<polygon class="st0" points="1131.2,258.6 1141.2,280.7 1163.5,284.2 1147.3,301.4 1151.1,325.6 1131.2,314.2 1111.2,325.6 
					1115,301.4 1098.8,284.2 1121.2,280.7 				"/>
				<polygon class="st0" points="445.2,261.4 455.2,283.4 477.6,287 461.4,304.1 465.2,328.4 445.2,317 425.2,328.4 429,304.1 
					412.9,287 435.2,283.4 				"/>
				<polygon class="st0" points="531,261.7 541,283.8 563.3,287.3 547.1,304.5 551,328.8 531,317.3 511,328.8 514.8,304.5 
					498.6,287.3 521,283.8 				"/>
				<polygon class="st0" points="616.7,260 626.7,282.1 649,285.6 632.9,302.8 636.7,327 616.7,315.6 596.7,327 600.5,302.8 
					584.4,285.6 606.7,282.1 				"/>
				<polygon class="st0" points="702.4,261 712.4,283.1 734.8,286.6 718.6,303.8 722.4,328.1 702.4,316.6 682.5,328.1 686.3,303.8 
					670.1,286.6 692.5,283.1 				"/>
				<polygon class="st0" points="788.2,259 798.2,281 820.5,284.6 804.4,301.7 808.2,326 788.2,314.5 768.2,326 772,301.7 
					755.8,284.6 778.2,281 				"/>
				<polygon class="st0" points="873.9,259.6 883.9,281.7 906.3,285.3 890.1,302.4 893.9,326.7 873.9,315.2 853.9,326.7 
					857.8,302.4 841.6,285.3 863.9,281.7 				"/>
				<polygon class="st0" points="959.7,260.7 969.7,282.8 992,286.3 975.8,303.5 979.7,327.7 959.7,316.3 939.7,327.7 943.5,303.5 
					927.3,286.3 949.7,282.8 				"/>
			</g>
		</g>
	</g>
</g>
<g>
	
		<image style="overflow:visible;opacity:0.3;" width="1369" height="346" xlink:href="96814581.png"  transform="matrix(1 0 0 1 275 -2)">
	</image>
	<g>
		
			<image style="overflow:visible;opacity:0.75;" width="1223" height="200" xlink:href="96814582.png"  transform="matrix(1 0 0 1 348 68)">
		</image>
		<g>
			<g>
				<polygon class="st0" points="1388.7,133.7 1398.7,155.8 1421.1,159.4 1404.9,176.5 1408.7,200.8 1388.7,189.3 1368.7,200.8 
					1372.6,176.5 1356.4,159.4 1378.7,155.8 				"/>
				<polygon class="st0" points="1474.5,134.3 1484.5,156.4 1506.8,159.9 1490.7,177.1 1494.5,201.4 1474.5,189.9 1454.5,201.4 
					1458.3,177.1 1442.2,159.9 1464.5,156.4 				"/>
				<polygon class="st0" points="1217.2,134.9 1227.2,157 1249.5,160.5 1233.4,177.7 1237.2,201.9 1217.2,190.5 1197.2,201.9 
					1201,177.7 1184.8,160.5 1207.2,157 				"/>
				<polygon class="st0" points="1303,135.8 1312.9,157.8 1335.3,161.4 1319.1,178.5 1322.9,202.8 1303,191.3 1283,202.8 
					1286.8,178.5 1270.6,161.4 1293,157.8 				"/>
				<polygon class="st0" points="1045.6,133.5 1055.6,155.5 1078,159.1 1061.8,176.2 1065.6,200.5 1045.6,189 1025.7,200.5 
					1029.5,176.2 1013.3,159.1 1035.6,155.5 				"/>
				<polygon class="st0" points="1131.4,134 1141.4,156.1 1163.8,159.6 1147.6,176.8 1151.4,201.1 1131.4,189.6 1111.4,201.1 
					1115.2,176.8 1099.1,159.6 1121.4,156.1 				"/>
				<polygon class="st0" points="445.2,136.6 455.2,158.7 477.6,162.2 461.4,179.4 465.2,203.6 445.2,192.2 425.2,203.6 429,179.4 
					412.9,162.2 435.2,158.7 				"/>
				<polygon class="st0" points="531,136.9 541,159 563.3,162.5 547.2,179.7 551,203.9 531,192.5 511,203.9 514.8,179.7 
					498.7,162.5 521,159 				"/>
				<polygon class="st0" points="616.8,135.5 626.8,157.5 649.1,161.1 632.9,178.2 636.8,202.5 616.8,191 596.8,202.5 600.6,178.2 
					584.4,161.1 606.8,157.5 				"/>
				<polygon class="st0" points="702.5,136.3 712.5,158.4 734.9,161.9 718.7,179.1 722.5,203.4 702.5,191.9 682.5,203.4 
					686.4,179.1 670.2,161.9 692.5,158.4 				"/>
				<polygon class="st0" points="788.3,134.6 798.3,156.7 820.7,160.2 804.5,177.4 808.3,201.6 788.3,190.2 768.3,201.6 
					772.1,177.4 756,160.2 778.3,156.7 				"/>
				<polygon class="st0" points="874.1,135.2 884.1,157.2 906.4,160.8 890.3,178 894.1,202.2 874.1,190.8 854.1,202.2 857.9,178 
					841.7,160.8 864.1,157.2 				"/>
				<polygon class="st0" points="959.9,136 969.9,158.1 992.2,161.6 976,178.8 979.8,203.1 959.9,191.6 939.9,203.1 943.7,178.8 
					927.5,161.6 949.9,158.1 				"/>
			</g>
		</g>
	</g>
</g>
<g>
	
		<image style="overflow:visible;opacity:0.3;" width="339" height="342" xlink:href="96814580.png"  transform="matrix(1 0 0 1 276 744)">
	</image>
	<g>
		
			<image style="overflow:visible;opacity:0.75;" width="194" height="196" xlink:href="9681459E.png"  transform="matrix(1 0 0 1 348 814)">
		</image>
		<g>
			<polygon class="st1" points="445.2,878.9 455.2,901 477.6,904.5 461.4,921.7 465.2,946 445.2,934.5 425.2,946 429,921.7 
				412.9,904.5 435.2,901 			"/>
			<polygon class="st2" points="445.2,878.9 455.2,901 477.6,904.5 461.4,921.7 465.2,946 445.2,934.5 425.2,946 429,921.7 
				412.9,904.5 435.2,901 			"/>
		</g>
	</g>
</g>
</svg>
