<?xml version="1.0" encoding="utf-8"?>
<!-- Generator: Adobe Illustrator 23.0.5, SVG Export Plug-In . SVG Version: 6.00 Build 0)  -->
<svg version="1.1" id="圖層_1" xmlns="http://www.w3.org/2000/svg" xmlns:xlink="http://www.w3.org/1999/xlink" x="0px" y="0px"
	 viewBox="0 0 1920 1080" style="enable-background:new 0 0 1920 1080;" xml:space="preserve">
<style type="text/css">
	.st0{fill:#FFFFFF;stroke:#000000;stroke-width:4;stroke-miterlimit:10;}
	.st1{fill:#FFFFFF;}
	.st2{fill:none;stroke:#000000;stroke-width:4;stroke-miterlimit:10;}
</style>
<g>
	
		<image style="overflow:visible;opacity:0.3;" width="681" height="345" xlink:href="96DFEA9B.png"  transform="matrix(1 0 0 1 448 372)">
	</image>
	<g>
		
			<image style="overflow:visible;opacity:0.75;" width="535" height="199" xlink:href="96DFEA99.png"  transform="matrix(1 0 0 1 521 442)">
		</image>
		<g>
			<g>
				<polygon class="st0" points="618.3,509 628.3,531 650.7,534.5 634.5,551.7 638.3,576 618.3,564.5 598.3,576 602.1,551.7 
					586,534.5 608.3,531 				"/>
				<polygon class="st0" points="703.5,509.6 713.5,531.6 735.8,535.2 719.6,552.3 723.5,576.6 703.5,565.2 683.5,576.6 
					687.3,552.3 671.1,535.2 693.5,531.6 				"/>
				<polygon class="st0" points="788.6,507.7 798.6,529.8 821,533.3 804.8,550.5 808.6,574.7 788.6,563.3 768.6,574.7 772.4,550.5 
					756.3,533.3 778.6,529.8 				"/>
				<polygon class="st0" points="873.8,508.3 883.8,530.4 906.1,533.9 889.9,551.1 893.8,575.3 873.8,563.9 853.8,575.3 
					857.6,551.1 841.4,533.9 863.8,530.4 				"/>
				<polygon class="st0" points="958.9,507.1 968.9,529.1 991.3,532.7 975.1,549.8 978.9,574.1 958.9,562.7 938.9,574.1 
					942.8,549.8 926.6,532.7 948.9,529.1 				"/>
			</g>
		</g>
	</g>
</g>
<g>
	
		<image style="overflow:visible;opacity:0.3;" width="510" height="344" xlink:href="96DFEA9F.png"  transform="matrix(1 0 0 1 448 496)">
	</image>
	<g>
		
			<image style="overflow:visible;opacity:0.75;" width="365" height="198" xlink:href="96DFEA98.png"  transform="matrix(1 0 0 1 521 566)">
		</image>
		<g>
			<g>
				<polygon class="st0" points="618.3,632.2 628.3,654.3 650.7,657.8 634.5,675 638.3,699.2 618.3,687.8 598.3,699.2 602.1,675 
					586,657.8 608.3,654.3 				"/>
				<polygon class="st0" points="703.5,632.8 713.5,654.9 735.8,658.4 719.6,675.6 723.5,699.9 703.5,688.4 683.5,699.9 
					687.3,675.6 671.1,658.4 693.5,654.9 				"/>
				<polygon class="st0" points="788.6,631 798.6,653 821,656.5 804.8,673.7 808.6,698 788.6,686.5 768.6,698 772.4,673.7 
					756.3,656.5 778.6,653 				"/>
			</g>
		</g>
	</g>
</g>
<g>
	
		<image style="overflow:visible;opacity:0.3;" width="851" height="345" xlink:href="96DFEA96.png"  transform="matrix(1 0 0 1 448 248)">
	</image>
	<g>
		
			<image style="overflow:visible;opacity:0.75;" width="706" height="199" xlink:href="96DFEA97.png"  transform="matrix(1 0 0 1 521 318)">
		</image>
		<g>
			<g>
				<g>
					<polygon class="st0" points="618.3,385.1 628.3,407.1 650.7,410.7 634.5,427.9 638.3,452.1 618.3,440.6 598.3,452.1 
						602.1,427.9 586,410.7 608.3,407.1 					"/>
					<polygon class="st0" points="703.5,385.7 713.5,407.8 735.8,411.3 719.6,428.5 723.5,452.7 703.5,441.3 683.5,452.7 
						687.3,428.5 671.1,411.3 693.5,407.8 					"/>
					<polygon class="st0" points="788.6,383.8 798.6,405.9 821,409.4 804.8,426.6 808.6,450.8 788.6,439.4 768.6,450.8 772.4,426.6 
						756.3,409.4 778.6,405.9 					"/>
					<polygon class="st0" points="873.8,384.4 883.8,406.5 906.1,410 889.9,427.2 893.8,451.5 873.8,440 853.8,451.5 857.6,427.2 
						841.4,410 863.8,406.5 					"/>
					<polygon class="st0" points="958.9,383.2 968.9,405.3 991.3,408.8 975.1,426 978.9,450.2 958.9,438.8 938.9,450.2 942.8,426 
						926.6,408.8 948.9,405.3 					"/>
				</g>
				<polygon class="st0" points="1045.1,383.5 1055.1,405.6 1077.4,409.1 1061.3,426.3 1065.1,450.5 1045.1,439.1 1025.1,450.5 
					1028.9,426.3 1012.8,409.1 1035.1,405.6 				"/>
				<polygon class="st0" points="1130.3,384.1 1140.3,406.2 1162.6,409.7 1146.4,426.9 1150.3,451.2 1130.3,439.7 1110.3,451.2 
					1114.1,426.9 1097.9,409.7 1120.3,406.2 				"/>
			</g>
		</g>
	</g>
</g>
<g>
	
		<image style="overflow:visible;opacity:0.3;" width="1025" height="346" xlink:href="96DFEAA7.png"  transform="matrix(1 0 0 1 448 123)">
	</image>
	<g>
		
			<image style="overflow:visible;opacity:0.75;" width="879" height="200" xlink:href="96DFEAA9.png"  transform="matrix(1 0 0 1 521 193)">
		</image>
		<g>
			<g>
				<polygon class="st0" points="1217.6,258.4 1227.5,280.4 1249.9,284 1233.7,301.1 1237.5,325.4 1217.6,314 1197.6,325.4 
					1201.4,301.1 1185.2,284 1207.6,280.4 				"/>
				<polygon class="st0" points="1303.2,258.8 1313.2,280.9 1335.5,284.4 1319.3,301.6 1323.1,325.8 1303.2,314.4 1283.2,325.8 
					1287,301.6 1270.8,284.4 1293.2,280.9 				"/>
				<polygon class="st0" points="618.3,261.4 628.3,283.5 650.7,287 634.5,304.2 638.3,328.4 618.3,317 598.3,328.4 602.1,304.2 
					586,287 608.3,283.5 				"/>
				<polygon class="st0" points="703.9,261.8 713.9,283.9 736.3,287.4 720.1,304.6 723.9,328.8 703.9,317.4 683.9,328.8 
					687.7,304.6 671.6,287.4 693.9,283.9 				"/>
				<polygon class="st0" points="789.5,260.1 799.5,282.2 821.9,285.7 805.7,302.9 809.5,327.1 789.5,315.7 769.5,327.1 
					773.3,302.9 757.2,285.7 779.5,282.2 				"/>
				<polygon class="st0" points="875.1,261 885.1,283 907.5,286.6 891.3,303.7 895.1,328 875.1,316.5 855.1,328 859,303.7 
					842.8,286.6 865.1,283 				"/>
				<polygon class="st0" points="960.7,259.2 970.7,281.3 993.1,284.8 976.9,302 980.7,326.3 960.7,314.8 940.7,326.3 944.6,302 
					928.4,284.8 950.7,281.3 				"/>
				<polygon class="st0" points="1046.3,259.7 1056.3,281.7 1078.7,285.3 1062.5,302.4 1066.3,326.7 1046.3,315.2 1026.3,326.7 
					1030.2,302.4 1014,285.3 1036.3,281.7 				"/>
				<polygon class="st0" points="1131.9,260.5 1141.9,282.6 1164.3,286.1 1148.1,303.3 1151.9,327.5 1131.9,316.1 1111.9,327.5 
					1115.8,303.3 1099.6,286.1 1121.9,282.6 				"/>
			</g>
		</g>
	</g>
</g>
<g>
	
		<image style="overflow:visible;opacity:0.3;" width="338" height="342" xlink:href="96DFEAAB.png"  transform="matrix(1 0 0 1 449 619)">
	</image>
	<g>
		
			<image style="overflow:visible;opacity:0.75;" width="194" height="197" xlink:href="CE5CE878.png"  transform="matrix(1 0 0 1 521 689)">
		</image>
		<g>
			<polygon class="st1" points="618.3,754.2 628.3,776.3 650.7,779.8 634.5,797 638.3,821.2 618.3,809.8 598.3,821.2 602.1,797 
				586,779.8 608.3,776.3 			"/>
			<polygon class="st2" points="618.3,754.2 628.3,776.3 650.7,779.8 634.5,797 638.3,821.2 618.3,809.8 598.3,821.2 602.1,797 
				586,779.8 608.3,776.3 			"/>
		</g>
	</g>
</g>
</svg>
