<?xml version="1.0" encoding="utf-8"?>
<!-- Generator: Adobe Illustrator 23.0.5, SVG Export Plug-In . SVG Version: 6.00 Build 0)  -->
<svg version="1.1" id="圖層_1" xmlns="http://www.w3.org/2000/svg" xmlns:xlink="http://www.w3.org/1999/xlink" x="0px" y="0px"
	 viewBox="0 0 1920 1080" style="enable-background:new 0 0 1920 1080;" xml:space="preserve">
<style type="text/css">
	.st0{fill:#FFFFFF;stroke:#000000;stroke-width:4;stroke-miterlimit:10;}
</style>
<g>
	
		<image style="overflow:visible;opacity:0.3;" width="679" height="589" xlink:href="B0C1B0BE.png"  transform="matrix(1 0 0 1 619 247)">
	</image>
	<g>
		
			<image style="overflow:visible;opacity:0.75;" width="535" height="444" xlink:href="B0C1B0B9.png"  transform="matrix(1 0 0 1 691 317)">
		</image>
		<g>
			<g>
				<g>
					<polygon class="st0" points="788.3,628.7 798.3,650.8 820.7,654.3 804.5,671.5 808.3,695.8 788.3,684.3 768.4,695.8 
						772.2,671.5 756,654.3 778.3,650.8 					"/>
					<polygon class="st0" points="873.5,629.3 883.5,651.4 905.8,655 889.7,672.1 893.5,696.4 873.5,684.9 853.5,696.4 857.3,672.1 
						841.2,655 863.5,651.4 					"/>
					<polygon class="st0" points="958.7,627.5 968.7,649.5 991,653.1 974.8,670.3 978.6,694.5 958.7,683 938.7,694.5 942.5,670.3 
						926.3,653.1 948.7,649.5 					"/>
					<polygon class="st0" points="1043.8,628.1 1053.8,650.2 1076.2,653.7 1060,670.9 1063.8,695.1 1043.8,683.7 1023.8,695.1 
						1027.6,670.9 1011.5,653.7 1033.8,650.2 					"/>
					<polygon class="st0" points="1129,626.8 1138.9,648.9 1161.3,652.5 1145.1,669.6 1148.9,693.9 1129,682.4 1109,693.9 
						1112.8,669.6 1096.6,652.5 1119,648.9 					"/>
				</g>
				<g>
					<polygon class="st0" points="873.5,504.9 883.5,526.9 905.8,530.5 889.7,547.6 893.5,571.9 873.5,560.4 853.5,571.9 
						857.3,547.6 841.2,530.5 863.5,526.9 					"/>
					<polygon class="st0" points="958.7,505.5 968.7,527.5 991,531.1 974.8,548.3 978.6,572.5 958.7,561 938.7,572.5 942.5,548.3 
						926.3,531.1 948.7,527.5 					"/>
					<polygon class="st0" points="1043.8,503.6 1053.8,525.7 1076.2,529.2 1060,546.4 1063.8,570.6 1043.8,559.2 1023.8,570.6 
						1027.6,546.4 1011.5,529.2 1033.8,525.7 					"/>
				</g>
				<polygon class="st0" points="958.7,382.2 968.7,404.3 991,407.8 974.8,425 978.6,449.3 958.7,437.8 938.7,449.3 942.5,425 
					926.3,407.8 948.7,404.3 				"/>
			</g>
		</g>
	</g>
</g>
</svg>
