<?xml version="1.0" encoding="utf-8"?>
<!-- Generator: Adobe Illustrator 23.0.5, SVG Export Plug-In . SVG Version: 6.00 Build 0)  -->
<svg version="1.1" id="圖層_1" xmlns="http://www.w3.org/2000/svg" xmlns:xlink="http://www.w3.org/1999/xlink" x="0px" y="0px"
	 viewBox="0 0 3840 2160" style="enable-background:new 0 0 3840 2160;" xml:space="preserve">
<style type="text/css">
	.st0{fill:#BEA16E;}
	.st1{fill:#511C0A;}
	.st2{fill:#74391B;}
	.st3{fill:url(#SVGID_1_);}
	.st4{fill:#605A55;}
	.st5{fill:#F3C415;}
	.st6{fill:#F8D183;}
	.st7{fill:#857D75;}
	.st8{fill:#D4C9B6;}
	.st9{fill:#FCCB4F;}
	.st10{fill:#3B190C;}
	.st11{fill:#535655;}
	.st12{fill:#834F31;}
	.st13{fill:#FFFFFF;}
	.st14{fill:none;stroke:#663D28;stroke-width:2;stroke-miterlimit:10;}
	.st15{fill:#96873C;}
</style>
<g>
	<path class="st0" d="M3293.9,832.5c-949.4,1-1898.9,2-2848.4,3C551,745.9,656.5,656.4,762,566.8c745.5,5,1491,10,2236.5,14.9
		C3096.9,665.3,3195.4,748.9,3293.9,832.5z"/>
	<path class="st1" d="M3153.2,811.6c-855.7,3-1711.3,6-2567,9c70.3-80.6,140.7-161.2,211-241.8c722.1,5,1444.1,10,2166.1,14.9
		C3026.6,666.3,3089.9,739,3153.2,811.6z"/>
	<path class="st2" d="M3026.6,584.7c-768.9-5-1537.9-10-2306.8-14.9c-79.7-135.4-159.4-270.7-239.1-406c940.1,0,1880.1,0,2820.2,0
		C3209.5,304.1,3118.1,444.4,3026.6,584.7z"/>
	
		<linearGradient id="SVGID_1_" gradientUnits="userSpaceOnUse" x1="1901.1321" y1="-462.4005" x2="1890.2417" y2="-893.3902" gradientTransform="matrix(1 0 0 1 0 1080)">
		<stop  offset="0" style="stop-color:#582712"/>
		<stop  offset="0.5753" style="stop-color:#2B120A"/>
		<stop  offset="0.8433" style="stop-color:#110603"/>
	</linearGradient>
	<path class="st3" d="M2907.1,498.1c-705.6,1-1411.3,2-2116.9,3c-44.5-97.5-89.1-195.1-133.6-292.6h2468.6
		C3052.4,305.1,2979.7,401.6,2907.1,498.1z"/>
	<path class="st4" d="M480.7,163.7c49.2,0,98.5,0,147.7,0c14.1,23.9,28.1,47.8,42.2,71.7H522.9C508.8,211.5,494.8,187.6,480.7,163.7
		z"/>
	<path class="st4" d="M3300.9,163.7c-49.2,0-98.5,0-147.7,0c-14.1,23.9-28.1,47.8-42.2,71.7h147.7
		C3272.8,211.5,3286.8,187.6,3300.9,163.7z"/>
	<g>
		<path class="st5" d="M736.9,811.7c-11.5-31.6,22.9-65.5,84.9-83.7c16.5-4.8,34.7-8.7,49-14.6c12.4-5.2,21.2-11.7,32.1-17.4
			c27.8-14.7,68-24.1,107.1-33.1c130.1-30,265.5-60.6,413.1-64.9c16.8-0.5,34-0.7,50.1-2.8c24.1-3.3,43.4-10.8,64.9-16.4
			c46.1-12,104.6-15,156-7.9c11,1.5,22,3.4,33.5,3.2c12.4-0.3,23.5-3.1,34.2-5.8c63.5-15.7,133.3-28.2,206.7-30.2
			c73.4-2,151,7.7,200.8,30.7c18.6,8.6,34.3,19.2,59.6,23.6c84.4,14.8,165.1-49.6,248.1-33.4c28.8,5.6,43.2,19.2,65.7,28.7
			c70.8,29.8,203.3,13.9,276,42.8c26,10.3,39.8,24.9,57.8,38c68.6,49.9,174.5,87.1,206.3,143.3c-792.8,9-1563.5,21.6-2356.1,9"/>
	</g>
	<g>
		<rect x="508.8" y="79.8" class="st6" width="2799.1" height="83.6"/>
		<rect x="480.7" y="73.8" class="st7" width="295.4" height="92.6"/>
		<rect x="3012.6" y="76.8" class="st7" width="295.4" height="92.6"/>
		<path class="st8" d="M2746.5,178.3h-58.6c-3.2,0-5.9-1.5-5.9-3.3v-107c0-1.8,2.6-3.3,5.9-3.3h58.6c3.2,0,5.9,1.5,5.9,3.3v107
			C2752.3,176.9,2749.7,178.3,2746.5,178.3z"/>
		<path class="st9" d="M1908.4,41h-35.2c-46.4,0-84.4,16.1-84.4,35.8v110.5c0,19.7,38,35.8,84.4,35.8h35.2
			c46.4,0,84.4-16.1,84.4-35.8V76.8C1992.8,57.1,1954.8,41,1908.4,41z M1943.6,106.7c0,13.1-25.3,23.9-56.3,23.9
			s-56.3-10.8-56.3-23.9V82.8c0-13.1,25.3-23.9,56.3-23.9s56.3,10.8,56.3,23.9V106.7z"/>
		<ellipse class="st10" cx="1887.3" cy="163.4" rx="42.2" ry="17.9"/>
		<path class="st8" d="M1262.5,178.3h-58.6c-3.2,0-5.8-1.5-5.8-3.3v-107c0-1.8,2.6-3.3,5.8-3.3h58.6c3.2,0,5.8,1.5,5.8,3.3v107
			C1268.4,176.9,1265.8,178.3,1262.5,178.3z"/>
	</g>
</g>
<path class="st11" d="M811.2,2127.4H227.5c65.6-94.4,131.3-188.9,196.9-283.3c75,0,150,0,225,0
	C703.4,1938.5,757.3,2032.9,811.2,2127.4z"/>
<path class="st11" d="M3427.5,2100.4h-583.7c65.6-94.4,131.3-188.9,196.9-283.3c75,0,150,0,225.1,0
	C3319.7,1911.5,3373.6,2006,3427.5,2100.4z"/>
<rect x="515.8" y="973.8" class="st12" width="2728.8" height="984.9"/>
<path class="st11" d="M3336.1,825.4c-110.2,0-220.4,0-330.6,0v7.5c-865.1,2-1730.1,4-2595.2,6c0,2.3,0,4.5,0,6.7
	c0,81,0,161.9,0,242.9V2006h267.3v-937.8c134.6-10.2,270.5-19.2,407.9-26.9c665.8-37.5,1306.7-41.7,1920-20.3v991.8h281.3
	c13.5-326.1,27.1-652.2,40.6-978.3c0.5,0,1.1,0,1.6,0.1c2.3-67.5,4.7-134.9,7-202.4c-0.1,0-0.2,0-0.3,0
	C3335.9,829.9,3336,827.6,3336.1,825.4z"/>
<ellipse class="st13" cx="575.6" cy="1112.1" rx="38.7" ry="37.1"/>
<ellipse class="st13" cx="575.6" cy="1435.9" rx="38.7" ry="37.1"/>
<ellipse class="st13" cx="575.6" cy="1820.4" rx="38.7" ry="37.1"/>
<ellipse class="st13" cx="3100.5" cy="1078.4" rx="38.7" ry="37.1"/>
<ellipse class="st13" cx="3100.5" cy="1402.2" rx="38.7" ry="37.1"/>
<ellipse class="st13" cx="3100.5" cy="1786.7" rx="38.7" ry="37.1"/>
<path class="st13" d="M1001.1,980.5H544c-3.9,0-7-4-7-8.8v-63.3c0-4.8,3.2-8.8,7-8.8h457.2c3.9,0,7,4,7,8.8v63.3
	C1008.2,976.6,1005,980.5,1001.1,980.5z"/>
<line class="st14" x1="677.6" y1="1327.8" x2="3012.6" y2="1327.8"/>
<line class="st14" x1="677.6" y1="1624" x2="3005.5" y2="1624"/>
<path class="st15" d="M2560.8,1958.8c-253.2-2.3-506.3-3.9-759.4-4.6c-232.8-0.7-465.5-0.7-698.3,0c0.9-331.9,1.9-663.8,2.8-995.7
	c486.9-2.8,973.7-5.7,1460.6-8.6C2564.6,1286.2,2562.7,1622.5,2560.8,1958.8z"/>
</svg>
