<?xml version="1.0" encoding="utf-8"?>
<!-- Generator: Adobe Illustrator 23.0.5, SVG Export Plug-In . SVG Version: 6.00 Build 0)  -->
<svg version="1.1" id="圖層_1" xmlns="http://www.w3.org/2000/svg" xmlns:xlink="http://www.w3.org/1999/xlink" x="0px" y="0px"
	 viewBox="0 0 1920 1080" style="enable-background:new 0 0 1920 1080;" xml:space="preserve">
<style type="text/css">
	.st0{fill:none;stroke:#000000;stroke-width:4;stroke-miterlimit:10;}
</style>
<g>
	<g>
		<polygon class="st0" points="790.08,504.98 800.07,527.05 822.42,530.59 806.25,547.76 810.07,572.01 790.08,560.56 
			770.09,572.01 773.91,547.76 757.73,530.59 780.08,527.05 		"/>
		<polygon class="st0" points="875.23,505.61 885.22,527.67 907.57,531.21 891.4,548.39 895.22,572.64 875.23,561.19 855.24,572.64 
			859.06,548.39 842.89,531.21 865.24,527.67 		"/>
		<polygon class="st0" points="960.38,503.73 970.38,525.8 992.73,529.33 976.55,546.51 980.37,570.76 960.38,559.31 940.39,570.76 
			944.21,546.51 928.04,529.33 950.39,525.8 		"/>
		<polygon class="st0" points="1045.54,504.36 1055.53,526.42 1077.88,529.96 1061.71,547.13 1065.53,571.39 1045.54,559.94 
			1025.55,571.39 1029.36,547.13 1013.19,529.96 1035.54,526.42 		"/>
		<polygon class="st0" points="1130.69,503.1 1140.68,525.17 1163.03,528.71 1146.86,545.88 1150.68,570.13 1130.69,558.68 
			1110.7,570.13 1114.52,545.88 1098.35,528.71 1120.69,525.17 		"/>
	</g>
	<g>
		<polygon class="st0" points="875.23,381.1 885.22,403.17 907.57,406.71 891.4,423.88 895.22,448.13 875.23,436.68 855.24,448.13 
			859.06,423.88 842.89,406.71 865.24,403.17 		"/>
		<polygon class="st0" points="960.38,381.73 970.38,403.79 992.73,407.33 976.55,424.51 980.37,448.76 960.38,437.31 
			940.39,448.76 944.21,424.51 928.04,407.33 950.39,403.79 		"/>
		<polygon class="st0" points="1045.54,379.85 1055.53,401.91 1077.88,405.45 1061.71,422.63 1065.53,446.88 1045.54,435.43 
			1025.55,446.88 1029.36,422.63 1013.19,405.45 1035.54,401.91 		"/>
	</g>
	<g>
		<g>
			<polygon class="st0" points="704.41,628.86 714.4,650.93 736.75,654.47 720.58,671.64 724.4,695.89 704.41,684.44 684.42,695.89 
				688.24,671.64 672.07,654.47 694.41,650.93 			"/>
			<polygon class="st0" points="789.56,629.49 799.56,651.56 821.9,655.09 805.73,672.27 809.55,696.52 789.56,685.07 
				769.57,696.52 773.39,672.27 757.22,655.09 779.57,651.56 			"/>
			<polygon class="st0" points="874.71,627.61 884.71,649.68 907.06,653.21 890.89,670.39 894.7,694.64 874.71,683.19 
				854.73,694.64 858.54,670.39 842.37,653.21 864.72,649.68 			"/>
			<polygon class="st0" points="959.87,628.24 969.86,650.3 992.21,653.84 976.04,671.02 979.86,695.27 959.87,683.82 
				939.88,695.27 943.7,671.02 927.52,653.84 949.87,650.3 			"/>
			<polygon class="st0" points="1045.02,626.99 1055.02,649.05 1077.36,652.59 1061.19,669.76 1065.01,694.01 1045.02,682.56 
				1025.03,694.01 1028.85,669.76 1012.68,652.59 1035.03,649.05 			"/>
		</g>
		<polygon class="st0" points="1131.2,627.3 1141.2,649.36 1163.55,652.9 1147.38,670.08 1151.19,694.33 1131.2,682.88 
			1111.22,694.33 1115.03,670.08 1098.86,652.9 1121.21,649.36 		"/>
		<polygon class="st0" points="1216.36,627.93 1226.35,649.99 1248.7,653.53 1232.53,670.7 1236.35,694.95 1216.36,683.5 
			1196.37,694.95 1200.19,670.7 1184.01,653.53 1206.36,649.99 		"/>
	</g>
	<g>
		<polygon class="st0" points="1217.2,750.87 1227.19,772.93 1249.54,776.47 1233.37,793.64 1237.19,817.9 1217.2,806.45 
			1197.21,817.9 1201.03,793.64 1184.86,776.47 1207.21,772.93 		"/>
		<polygon class="st0" points="1302.81,751.3 1312.8,773.36 1335.15,776.9 1318.98,794.07 1322.79,818.33 1302.81,806.88 
			1282.82,818.33 1286.63,794.07 1270.46,776.9 1292.81,773.36 		"/>
		<polygon class="st0" points="617.96,753.88 627.95,775.95 650.3,779.48 634.13,796.66 637.95,820.91 617.96,809.46 597.97,820.91 
			601.79,796.66 585.62,779.48 607.97,775.95 		"/>
		<polygon class="st0" points="703.57,754.31 713.56,776.38 735.91,779.91 719.74,797.09 723.55,821.34 703.57,809.89 
			683.58,821.34 687.39,797.09 671.22,779.91 693.57,776.38 		"/>
		<polygon class="st0" points="789.17,752.59 799.17,774.65 821.51,778.19 805.34,795.37 809.16,819.62 789.17,808.17 
			769.18,819.62 773,795.37 756.83,778.19 779.18,774.65 		"/>
		<polygon class="st0" points="874.78,753.45 884.77,775.51 907.12,779.05 890.95,796.23 894.77,820.48 874.78,809.03 
			854.79,820.48 858.61,796.23 842.43,779.05 864.78,775.51 		"/>
		<polygon class="st0" points="960.38,751.73 970.38,773.79 992.73,777.33 976.55,794.51 980.37,818.76 960.38,807.31 
			940.39,818.76 944.21,794.51 928.04,777.33 950.39,773.79 		"/>
		<polygon class="st0" points="1045.99,752.16 1055.98,774.22 1078.33,777.76 1062.16,794.94 1065.98,819.19 1045.99,807.74 
			1026,819.19 1029.82,794.94 1013.65,777.76 1035.99,774.22 		"/>
		<polygon class="st0" points="1131.59,753.02 1141.59,775.08 1163.94,778.62 1147.77,795.8 1151.58,820.05 1131.59,808.6 
			1111.61,820.05 1115.42,795.8 1099.25,778.62 1121.6,775.08 		"/>
	</g>
	<polygon class="st0" points="960.38,258.47 970.38,280.54 992.73,284.08 976.55,301.25 980.37,325.5 960.38,314.05 940.39,325.5 
		944.21,301.25 928.04,284.08 950.39,280.54 	"/>
</g>
</svg>
