<?xml version="1.0" encoding="utf-8"?>
<!-- Generator: Adobe Illustrator 23.0.5, SVG Export Plug-In . SVG Version: 6.00 Build 0)  -->
<svg version="1.1" id="圖層_1" xmlns="http://www.w3.org/2000/svg" xmlns:xlink="http://www.w3.org/1999/xlink" x="0px" y="0px"
	 viewBox="0 0 1920 1080" style="enable-background:new 0 0 1920 1080;" xml:space="preserve">
<style type="text/css">
	.st0{fill:none;stroke:#000000;stroke-width:4;stroke-miterlimit:10;}
</style>
<g>
	<g>
		<polygon class="st0" points="789.34,629.73 799.34,651.79 821.69,655.33 805.52,672.51 809.33,696.76 789.34,685.31 
			769.36,696.76 773.17,672.51 757,655.33 779.35,651.79 		"/>
		<polygon class="st0" points="874.5,630.35 884.49,652.42 906.84,655.96 890.67,673.13 894.49,697.38 874.5,685.93 854.51,697.38 
			858.33,673.13 842.16,655.96 864.5,652.42 		"/>
		<polygon class="st0" points="959.65,628.48 969.65,650.54 991.99,654.08 975.82,671.25 979.64,695.5 959.65,684.05 939.66,695.5 
			943.48,671.25 927.31,654.08 949.66,650.54 		"/>
		<polygon class="st0" points="1044.8,629.1 1054.8,651.17 1077.15,654.7 1060.98,671.88 1064.79,696.13 1044.8,684.68 
			1024.82,696.13 1028.63,671.88 1012.46,654.7 1034.81,651.17 		"/>
		<polygon class="st0" points="1129.96,627.85 1139.95,649.91 1162.3,653.45 1146.13,670.63 1149.95,694.88 1129.96,683.43 
			1109.97,694.88 1113.79,670.63 1097.61,653.45 1119.96,649.91 		"/>
	</g>
	<g>
		<polygon class="st0" points="874.5,505.85 884.49,527.91 906.84,531.45 890.67,548.62 894.49,572.88 874.5,561.43 854.51,572.88 
			858.33,548.62 842.16,531.45 864.5,527.91 		"/>
		<polygon class="st0" points="959.65,506.47 969.65,528.54 991.99,532.08 975.82,549.25 979.64,573.5 959.65,562.05 939.66,573.5 
			943.48,549.25 927.31,532.08 949.66,528.54 		"/>
		<polygon class="st0" points="1044.8,504.59 1054.8,526.66 1077.15,530.2 1060.98,547.37 1064.79,571.62 1044.8,560.17 
			1024.82,571.62 1028.63,547.37 1012.46,530.2 1034.81,526.66 		"/>
	</g>
	<polygon class="st0" points="959.65,383.22 969.65,405.28 991.99,408.82 975.82,426 979.64,450.25 959.65,438.8 939.66,450.25 
		943.48,426 927.31,408.82 949.66,405.28 	"/>
</g>
</svg>
