<?xml version="1.0" encoding="utf-8"?>
<!-- Generator: Adobe Illustrator 23.0.5, SVG Export Plug-In . SVG Version: 6.00 Build 0)  -->
<svg version="1.1" id="圖層_1" xmlns="http://www.w3.org/2000/svg" xmlns:xlink="http://www.w3.org/1999/xlink" x="0px" y="0px"
	 viewBox="0 0 1920 1080" style="enable-background:new 0 0 1920 1080;" xml:space="preserve">
<style type="text/css">
	.st0{fill:none;stroke:#000000;stroke-width:4;stroke-miterlimit:10;}
</style>
<g>
	<g>
		<polygon class="st0" points="789.91,385.12 799.91,407.18 822.25,410.72 806.08,427.9 809.9,452.15 789.91,440.7 769.92,452.15 
			773.74,427.9 757.57,410.72 779.92,407.18 		"/>
		<polygon class="st0" points="875.06,385.75 885.06,407.81 907.41,411.35 891.24,428.52 895.05,452.77 875.06,441.32 
			855.08,452.77 858.89,428.52 842.72,411.35 865.07,407.81 		"/>
		<polygon class="st0" points="960.22,383.87 970.21,405.93 992.56,409.47 976.39,426.64 980.21,450.9 960.22,439.45 940.23,450.9 
			944.05,426.64 927.88,409.47 950.22,405.93 		"/>
		<polygon class="st0" points="1045.37,384.49 1055.37,406.56 1077.71,410.1 1061.54,427.27 1065.36,451.52 1045.37,440.07 
			1025.38,451.52 1029.2,427.27 1013.03,410.1 1035.38,406.56 		"/>
		<polygon class="st0" points="1130.52,383.24 1140.52,405.3 1162.87,408.84 1146.7,426.02 1150.51,450.27 1130.52,438.82 
			1110.54,450.27 1114.35,426.02 1098.18,408.84 1120.53,405.3 		"/>
	</g>
	<g>
		<polygon class="st0" points="789.91,508.37 799.91,530.44 822.25,533.98 806.08,551.15 809.9,575.4 789.91,563.95 769.92,575.4 
			773.74,551.15 757.57,533.98 779.92,530.44 		"/>
		<polygon class="st0" points="875.06,509 885.06,531.06 907.41,534.6 891.24,551.78 895.05,576.03 875.06,564.58 855.08,576.03 
			858.89,551.78 842.72,534.6 865.07,531.06 		"/>
		<polygon class="st0" points="960.22,507.12 970.21,529.19 992.56,532.72 976.39,549.9 980.21,574.15 960.22,562.7 940.23,574.15 
			944.05,549.9 927.88,532.72 950.22,529.19 		"/>
	</g>
	<polygon class="st0" points="789.91,630.38 799.91,652.44 822.25,655.98 806.08,673.15 809.9,697.4 789.91,685.95 769.92,697.4 
		773.74,673.15 757.57,655.98 779.92,652.44 	"/>
</g>
</svg>
