<?xml version="1.0" encoding="utf-8"?>
<!-- Generator: Adobe Illustrator 23.0.5, SVG Export Plug-In . SVG Version: 6.00 Build 0)  -->
<svg version="1.1" id="圖層_1" xmlns="http://www.w3.org/2000/svg" xmlns:xlink="http://www.w3.org/1999/xlink" x="0px" y="0px"
	 viewBox="0 0 1920 1080" style="enable-background:new 0 0 1920 1080;" xml:space="preserve">
<style type="text/css">
	.st0{fill:none;stroke:#000000;stroke-width:4;stroke-miterlimit:10;}
</style>
<g>
	<polygon class="st0" points="545.22,634.68 555.21,656.74 577.56,660.28 561.39,677.45 565.21,701.71 545.22,690.26 525.23,701.71 
		529.04,677.45 512.87,660.28 535.22,656.74 	"/>
	<polygon class="st0" points="630.37,635.3 640.36,657.37 662.71,660.91 646.54,678.08 650.36,702.33 630.37,690.88 610.38,702.33 
		614.2,678.08 598.03,660.91 620.37,657.37 	"/>
	<polygon class="st0" points="715.52,633.42 725.52,655.49 747.87,659.03 731.69,676.2 735.51,700.45 715.52,689 695.53,700.45 
		699.35,676.2 683.18,659.03 705.53,655.49 	"/>
	<polygon class="st0" points="800.68,634.05 810.67,656.11 833.02,659.65 816.85,676.83 820.66,701.08 800.68,689.63 780.69,701.08 
		784.5,676.83 768.33,659.65 790.68,656.11 	"/>
	<polygon class="st0" points="885.83,632.8 895.82,654.86 918.17,658.4 902,675.57 905.82,699.83 885.83,688.38 865.84,699.83 
		869.66,675.57 853.49,658.4 875.83,654.86 	"/>
</g>
<g>
	<polygon class="st0" points="545.22,757.93 555.21,780 577.56,783.53 561.39,800.71 565.21,824.96 545.22,813.51 525.23,824.96 
		529.04,800.71 512.87,783.53 535.22,780 	"/>
	<polygon class="st0" points="630.37,758.56 640.36,780.62 662.71,784.16 646.54,801.33 650.36,825.59 630.37,814.14 610.38,825.59 
		614.2,801.33 598.03,784.16 620.37,780.62 	"/>
	<polygon class="st0" points="715.52,756.68 725.52,778.74 747.87,782.28 731.69,799.46 735.51,823.71 715.52,812.26 695.53,823.71 
		699.35,799.46 683.18,782.28 705.53,778.74 	"/>
</g>
<g>
	<g>
		<polygon class="st0" points="545.22,510.8 555.21,532.86 577.56,536.4 561.39,553.57 565.21,577.82 545.22,566.37 525.23,577.82 
			529.04,553.57 512.87,536.4 535.22,532.86 		"/>
		<polygon class="st0" points="630.37,511.42 640.36,533.49 662.71,537.02 646.54,554.2 650.36,578.45 630.37,567 610.38,578.45 
			614.2,554.2 598.03,537.02 620.37,533.49 		"/>
		<polygon class="st0" points="715.52,509.54 725.52,531.61 747.87,535.15 731.69,552.32 735.51,576.57 715.52,565.12 
			695.53,576.57 699.35,552.32 683.18,535.15 705.53,531.61 		"/>
		<polygon class="st0" points="800.68,510.17 810.67,532.23 833.02,535.77 816.85,552.95 820.66,577.2 800.68,565.75 780.69,577.2 
			784.5,552.95 768.33,535.77 790.68,532.23 		"/>
		<polygon class="st0" points="885.83,508.92 895.82,530.98 918.17,534.52 902,551.69 905.82,575.95 885.83,564.5 865.84,575.95 
			869.66,551.69 853.49,534.52 875.83,530.98 		"/>
	</g>
	<polygon class="st0" points="972.01,509.23 982.01,531.29 1004.35,534.83 988.18,552.01 992,576.26 972.01,564.81 952.02,576.26 
		955.84,552.01 939.67,534.83 962.02,531.29 	"/>
	<polygon class="st0" points="1057.17,509.86 1067.16,531.92 1089.51,535.46 1073.34,552.63 1077.15,576.88 1057.17,565.43 
		1037.18,576.88 1040.99,552.63 1024.82,535.46 1047.17,531.92 	"/>
</g>
<g>
	<polygon class="st0" points="1144.46,384.1 1154.45,406.16 1176.8,409.7 1160.63,426.87 1164.44,451.12 1144.46,439.67 
		1124.47,451.12 1128.28,426.87 1112.11,409.7 1134.46,406.16 	"/>
	<polygon class="st0" points="1230.06,384.53 1240.06,406.59 1262.4,410.13 1246.23,427.3 1250.05,451.56 1230.06,440.11 
		1210.07,451.56 1213.89,427.3 1197.72,410.13 1220.07,406.59 	"/>
	<polygon class="st0" points="545.22,387.11 555.21,409.17 577.56,412.71 561.39,429.89 565.21,454.14 545.22,442.69 525.23,454.14 
		529.04,429.89 512.87,412.71 535.22,409.17 	"/>
	<polygon class="st0" points="630.82,387.54 640.82,409.61 663.16,413.14 646.99,430.32 650.81,454.57 630.82,443.12 610.83,454.57 
		614.65,430.32 598.48,413.14 620.83,409.61 	"/>
	<polygon class="st0" points="716.43,385.82 726.42,407.88 748.77,411.42 732.6,428.6 736.42,452.85 716.43,441.4 696.44,452.85 
		700.26,428.6 684.08,411.42 706.43,407.88 	"/>
	<polygon class="st0" points="802.03,386.68 812.03,408.74 834.38,412.28 818.2,429.46 822.02,453.71 802.03,442.26 782.04,453.71 
		785.86,429.46 769.69,412.28 792.04,408.74 	"/>
	<polygon class="st0" points="887.64,384.96 897.63,407.02 919.98,410.56 903.81,427.73 907.63,451.99 887.64,440.54 867.65,451.99 
		871.47,427.73 855.3,410.56 877.64,407.02 	"/>
	<polygon class="st0" points="973.24,385.39 983.24,407.45 1005.59,410.99 989.42,428.17 993.23,452.42 973.24,440.97 
		953.26,452.42 957.07,428.17 940.9,410.99 963.25,407.45 	"/>
	<polygon class="st0" points="1058.85,386.25 1068.84,408.31 1091.19,411.85 1075.02,429.03 1078.84,453.28 1058.85,441.83 
		1038.86,453.28 1042.68,429.03 1026.51,411.85 1048.86,408.31 	"/>
</g>
<g>
	<polygon class="st0" points="1316.9,260.31 1326.89,282.37 1349.24,285.91 1333.07,303.09 1336.88,327.34 1316.9,315.89 
		1296.91,327.34 1300.72,303.09 1284.55,285.91 1306.9,282.37 	"/>
	<polygon class="st0" points="1402.64,261.34 1412.63,283.41 1434.98,286.95 1418.81,304.12 1422.63,328.37 1402.64,316.92 
		1382.65,328.37 1386.47,304.12 1370.29,286.95 1392.64,283.41 	"/>
	<polygon class="st0" points="1145.41,259.28 1155.41,281.34 1177.75,284.88 1161.58,302.05 1165.4,326.3 1145.41,314.85 
		1125.42,326.3 1129.24,302.05 1113.07,284.88 1135.42,281.34 	"/>
	<polygon class="st0" points="1231.15,259.62 1241.15,281.68 1263.5,285.22 1247.32,302.4 1251.14,326.65 1231.15,315.2 
		1211.16,326.65 1214.98,302.4 1198.81,285.22 1221.16,281.68 	"/>
	<polygon class="st0" points="545.22,262.38 555.21,284.44 577.56,287.98 561.39,305.15 565.21,329.4 545.22,317.95 525.23,329.4 
		529.04,305.15 512.87,287.98 535.22,284.44 	"/>
	<polygon class="st0" points="630.96,262.72 640.95,284.79 663.3,288.32 647.13,305.5 650.95,329.75 630.96,318.3 610.97,329.75 
		614.79,305.5 598.62,288.32 620.96,284.79 	"/>
	<polygon class="st0" points="716.7,261 726.69,283.06 749.04,286.6 732.87,303.78 736.69,328.03 716.7,316.58 696.71,328.03 
		700.53,303.78 684.36,286.6 706.71,283.06 	"/>
	<polygon class="st0" points="802.44,262.03 812.44,284.1 834.79,287.63 818.61,304.81 822.43,329.06 802.44,317.61 782.45,329.06 
		786.27,304.81 770.1,287.63 792.45,284.1 	"/>
	<polygon class="st0" points="888.18,259.96 898.18,282.03 920.53,285.57 904.36,302.74 908.17,326.99 888.18,315.54 868.2,326.99 
		872.01,302.74 855.84,285.57 878.19,282.03 	"/>
	<polygon class="st0" points="973.93,260.65 983.92,282.72 1006.27,286.26 990.1,303.43 993.92,327.68 973.93,316.23 953.94,327.68 
		957.76,303.43 941.58,286.26 963.93,282.72 	"/>
	<polygon class="st0" points="1059.67,261.69 1069.66,283.75 1092.01,287.29 1075.84,304.46 1079.66,328.72 1059.67,317.27 
		1039.68,328.72 1043.5,304.46 1027.33,287.29 1049.67,283.75 	"/>
</g>
<g>
	<polygon class="st0" points="1488.73,134.74 1498.73,156.81 1521.08,160.35 1504.91,177.52 1508.72,201.77 1488.73,190.32 
		1468.74,201.77 1472.56,177.52 1456.39,160.35 1478.74,156.81 	"/>
	<polygon class="st0" points="1574.51,135.32 1584.5,157.38 1606.85,160.92 1590.68,178.09 1594.5,202.35 1574.51,190.9 
		1554.52,202.35 1558.34,178.09 1542.17,160.92 1564.51,157.38 	"/>
	<polygon class="st0" points="1317.19,135.89 1327.18,157.96 1349.53,161.49 1333.36,178.67 1337.17,202.92 1317.19,191.47 
		1297.2,202.92 1301.01,178.67 1284.84,161.49 1307.19,157.96 	"/>
	<polygon class="st0" points="1402.96,136.75 1412.95,158.82 1435.3,162.35 1419.13,179.53 1422.95,203.78 1402.96,192.33 
		1382.97,203.78 1386.79,179.53 1370.62,162.35 1392.97,158.82 	"/>
	<polygon class="st0" points="1145.64,134.46 1155.63,156.52 1177.98,160.06 1161.81,177.23 1165.63,201.48 1145.64,190.03 
		1125.65,201.48 1129.46,177.23 1113.29,160.06 1135.64,156.52 	"/>
	<polygon class="st0" points="1231.41,135.03 1241.41,157.09 1263.75,160.63 1247.58,177.81 1251.4,202.06 1231.41,190.61 
		1211.42,202.06 1215.24,177.81 1199.07,160.63 1221.42,157.09 	"/>
	<polygon class="st0" points="545.22,137.61 555.21,159.68 577.56,163.22 561.39,180.39 565.21,204.64 545.22,193.19 525.23,204.64 
		529.04,180.39 512.87,163.22 535.22,159.68 	"/>
	<polygon class="st0" points="630.99,137.9 640.98,159.96 663.33,163.5 647.16,180.68 650.98,204.93 630.99,193.48 611,204.93 
		614.82,180.68 598.65,163.5 621,159.96 	"/>
	<polygon class="st0" points="716.76,136.46 726.76,158.53 749.11,162.07 732.94,179.24 736.75,203.49 716.76,192.04 696.78,203.49 
		700.59,179.24 684.42,162.07 706.77,158.53 	"/>
	<polygon class="st0" points="802.54,137.33 812.53,159.39 834.88,162.93 818.71,180.1 822.53,204.35 802.54,192.9 782.55,204.35 
		786.37,180.1 770.2,162.93 792.54,159.39 	"/>
	<polygon class="st0" points="888.31,135.6 898.31,157.67 920.66,161.21 904.48,178.38 908.3,202.63 888.31,191.18 868.32,202.63 
		872.14,178.38 855.97,161.21 878.32,157.67 	"/>
	<polygon class="st0" points="974.09,136.18 984.08,158.24 1006.43,161.78 990.26,178.96 994.08,203.21 974.09,191.76 954.1,203.21 
		957.92,178.96 941.74,161.78 964.09,158.24 	"/>
	<polygon class="st0" points="1059.86,137.04 1069.86,159.1 1092.21,162.64 1076.03,179.82 1079.85,204.07 1059.86,192.62 
		1039.87,204.07 1043.69,179.82 1027.52,162.64 1049.87,159.1 	"/>
</g>
<polygon class="st0" points="545.22,879.93 555.21,902 577.56,905.54 561.39,922.71 565.21,946.96 545.22,935.51 525.23,946.96 
	529.04,922.71 512.87,905.54 535.22,902 "/>
</svg>
