<?xml version="1.0" encoding="utf-8"?>
<!-- Generator: Adobe Illustrator 23.0.5, SVG Export Plug-In . SVG Version: 6.00 Build 0)  -->
<svg version="1.1" id="圖層_1" xmlns="http://www.w3.org/2000/svg" xmlns:xlink="http://www.w3.org/1999/xlink" x="0px" y="0px"
	 viewBox="0 0 1920 1080" style="enable-background:new 0 0 1920 1080;" xml:space="preserve">
<style type="text/css">
	.st0{fill:none;stroke:#000000;stroke-width:4;stroke-miterlimit:10;}
</style>
<g>
	<polygon class="st0" points="617.31,508.95 627.3,531.01 649.65,534.55 633.48,551.73 637.3,575.98 617.31,564.53 597.32,575.98 
		601.14,551.73 584.97,534.55 607.31,531.01 	"/>
	<polygon class="st0" points="702.46,509.58 712.46,531.64 734.81,535.18 718.63,552.35 722.45,576.6 702.46,565.15 682.47,576.6 
		686.29,552.35 670.12,535.18 692.47,531.64 	"/>
	<polygon class="st0" points="787.62,507.7 797.61,529.76 819.96,533.3 803.79,550.47 807.6,574.73 787.62,563.28 767.63,574.73 
		771.44,550.47 755.27,533.3 777.62,529.76 	"/>
	<polygon class="st0" points="872.77,508.32 882.76,530.39 905.11,533.93 888.94,551.1 892.76,575.35 872.77,563.9 852.78,575.35 
		856.6,551.1 840.43,533.93 862.77,530.39 	"/>
	<polygon class="st0" points="957.92,507.07 967.92,529.13 990.26,532.67 974.09,549.85 977.91,574.1 957.92,562.65 937.93,574.1 
		941.75,549.85 925.58,532.67 947.93,529.13 	"/>
</g>
<g>
	<polygon class="st0" points="617.31,632.2 627.3,654.27 649.65,657.81 633.48,674.98 637.3,699.23 617.31,687.78 597.32,699.23 
		601.14,674.98 584.97,657.81 607.31,654.27 	"/>
	<polygon class="st0" points="702.46,632.83 712.46,654.89 734.81,658.43 718.63,675.61 722.45,699.86 702.46,688.41 682.47,699.86 
		686.29,675.61 670.12,658.43 692.47,654.89 	"/>
	<polygon class="st0" points="787.62,630.95 797.61,653.02 819.96,656.55 803.79,673.73 807.6,697.98 787.62,686.53 767.63,697.98 
		771.44,673.73 755.27,656.55 777.62,653.02 	"/>
</g>
<g>
	<g>
		<polygon class="st0" points="617.31,385.07 627.3,407.13 649.65,410.67 633.48,427.85 637.3,452.1 617.31,440.65 597.32,452.1 
			601.14,427.85 584.97,410.67 607.31,407.13 		"/>
		<polygon class="st0" points="702.46,385.69 712.46,407.76 734.81,411.3 718.63,428.47 722.45,452.72 702.46,441.27 682.47,452.72 
			686.29,428.47 670.12,411.3 692.47,407.76 		"/>
		<polygon class="st0" points="787.62,383.82 797.61,405.88 819.96,409.42 803.79,426.59 807.6,450.84 787.62,439.39 767.63,450.84 
			771.44,426.59 755.27,409.42 777.62,405.88 		"/>
		<polygon class="st0" points="872.77,384.44 882.76,406.51 905.11,410.04 888.94,427.22 892.76,451.47 872.77,440.02 
			852.78,451.47 856.6,427.22 840.43,410.04 862.77,406.51 		"/>
		<polygon class="st0" points="957.92,383.19 967.92,405.25 990.26,408.79 974.09,425.97 977.91,450.22 957.92,438.77 
			937.93,450.22 941.75,425.97 925.58,408.79 947.93,405.25 		"/>
	</g>
	<polygon class="st0" points="1044.11,383.5 1054.1,405.57 1076.45,409.11 1060.28,426.28 1064.09,450.53 1044.11,439.08 
		1024.12,450.53 1027.93,426.28 1011.76,409.11 1034.11,405.57 	"/>
	<polygon class="st0" points="1129.26,384.13 1139.25,406.19 1161.6,409.73 1145.43,426.91 1149.25,451.16 1129.26,439.71 
		1109.27,451.16 1113.09,426.91 1096.92,409.73 1119.26,406.19 	"/>
</g>
<g>
	<polygon class="st0" points="1216.55,258.37 1226.54,280.43 1248.89,283.97 1232.72,301.15 1236.54,325.4 1216.55,313.95 
		1196.56,325.4 1200.38,301.15 1184.21,283.97 1206.55,280.43 	"/>
	<polygon class="st0" points="1302.15,258.8 1312.15,280.86 1334.5,284.4 1318.33,301.58 1322.14,325.83 1302.15,314.38 
		1282.17,325.83 1285.98,301.58 1269.81,284.4 1292.16,280.86 	"/>
	<polygon class="st0" points="617.31,261.38 627.3,283.45 649.65,286.99 633.48,304.16 637.3,328.41 617.31,316.96 597.32,328.41 
		601.14,304.16 584.97,286.99 607.31,283.45 	"/>
	<polygon class="st0" points="702.92,261.81 712.91,283.88 735.26,287.42 719.09,304.59 722.9,328.84 702.92,317.39 682.93,328.84 
		686.74,304.59 670.57,287.42 692.92,283.88 	"/>
	<polygon class="st0" points="788.52,260.09 798.52,282.16 820.86,285.69 804.69,302.87 808.51,327.12 788.52,315.67 768.53,327.12 
		772.35,302.87 756.18,285.69 778.53,282.16 	"/>
	<polygon class="st0" points="874.13,260.95 884.12,283.02 906.47,286.56 890.3,303.73 894.12,327.98 874.13,316.53 854.14,327.98 
		857.95,303.73 841.78,286.56 864.13,283.02 	"/>
	<polygon class="st0" points="959.73,259.23 969.73,281.29 992.08,284.83 975.9,302.01 979.72,326.26 959.73,314.81 939.74,326.26 
		943.56,302.01 927.39,284.83 949.74,281.29 	"/>
	<polygon class="st0" points="1045.34,259.66 1055.33,281.73 1077.68,285.26 1061.51,302.44 1065.33,326.69 1045.34,315.24 
		1025.35,326.69 1029.17,302.44 1012.99,285.26 1035.34,281.73 	"/>
	<polygon class="st0" points="1130.94,260.52 1140.94,282.59 1163.29,286.12 1147.11,303.3 1150.93,327.55 1130.94,316.1 
		1110.95,327.55 1114.77,303.3 1098.6,286.12 1120.95,282.59 	"/>
</g>
<polygon class="st0" points="617.31,754.21 627.3,776.27 649.65,779.81 633.48,796.98 637.3,821.23 617.31,809.78 597.32,821.23 
	601.14,796.98 584.97,779.81 607.31,776.27 "/>
</svg>
