<?xml version="1.0" encoding="utf-8"?>
<!-- Generator: Adobe Illustrator 23.0.5, SVG Export Plug-In . SVG Version: 6.00 Build 0)  -->
<svg version="1.1" id="圖層_1" xmlns="http://www.w3.org/2000/svg" xmlns:xlink="http://www.w3.org/1999/xlink" x="0px" y="0px"
	 viewBox="0 0 1920 1080" style="enable-background:new 0 0 1920 1080;" xml:space="preserve">
<style type="text/css">
	.st0{fill:none;stroke:#000000;stroke-width:4;stroke-miterlimit:10;}
</style>
<g>
	<polygon class="st0" points="789.46,629.55 799.46,651.61 821.8,655.15 805.63,672.33 809.45,696.58 789.46,685.13 769.47,696.58 
		773.29,672.33 757.12,655.15 779.47,651.61 	"/>
	<polygon class="st0" points="874.61,630.18 884.61,652.24 906.96,655.78 890.79,672.95 894.6,697.2 874.61,685.75 854.63,697.2 
		858.44,672.95 842.27,655.78 864.62,652.24 	"/>
	<polygon class="st0" points="959.77,628.3 969.76,650.36 992.11,653.9 975.94,671.07 979.76,695.33 959.77,683.88 939.78,695.33 
		943.6,671.07 927.42,653.9 949.77,650.36 	"/>
	<polygon class="st0" points="1044.92,628.92 1054.92,650.99 1077.26,654.53 1061.09,671.7 1064.91,695.95 1044.92,684.5 
		1024.93,695.95 1028.75,671.7 1012.58,654.53 1034.93,650.99 	"/>
	<polygon class="st0" points="1130.07,627.67 1140.07,649.73 1162.42,653.27 1146.25,670.45 1150.06,694.7 1130.07,683.25 
		1110.09,694.7 1113.9,670.45 1097.73,653.27 1120.08,649.73 	"/>
</g>
<g>
	<polygon class="st0" points="789.46,505.67 799.46,527.73 821.8,531.27 805.63,548.45 809.45,572.7 789.46,561.25 769.47,572.7 
		773.29,548.45 757.12,531.27 779.47,527.73 	"/>
	<polygon class="st0" points="874.61,506.29 884.61,528.36 906.96,531.9 890.79,549.07 894.6,573.32 874.61,561.87 854.63,573.32 
		858.44,549.07 842.27,531.9 864.62,528.36 	"/>
	<polygon class="st0" points="959.77,504.42 969.76,526.48 992.11,530.02 975.94,547.19 979.76,571.44 959.77,559.99 939.78,571.44 
		943.6,547.19 927.42,530.02 949.77,526.48 	"/>
</g>
<polygon class="st0" points="789.46,383.04 799.46,405.1 821.8,408.64 805.63,425.82 809.45,450.07 789.46,438.62 769.47,450.07 
	773.29,425.82 757.12,408.64 779.47,405.1 "/>
</svg>
