<?xml version="1.0" encoding="utf-8"?>
<!-- Generator: Adobe Illustrator 23.0.5, SVG Export Plug-In . SVG Version: 6.00 Build 0)  -->
<svg version="1.1" id="圖層_1" xmlns="http://www.w3.org/2000/svg" xmlns:xlink="http://www.w3.org/1999/xlink" x="0px" y="0px"
	 viewBox="0 0 1920 1080" style="enable-background:new 0 0 1920 1080;" xml:space="preserve">
<style type="text/css">
	.st0{fill:none;stroke:#000000;stroke-width:4;stroke-miterlimit:10;}
</style>
<g>
	<polygon class="st0" points="445.78,380.54 455.78,402.6 478.12,406.14 461.95,423.32 465.77,447.57 445.78,436.12 425.79,447.57 
		429.61,423.32 413.44,406.14 435.79,402.6 	"/>
	<polygon class="st0" points="530.93,381.16 540.93,403.23 563.28,406.77 547.11,423.94 550.92,448.19 530.93,436.74 510.95,448.19 
		514.76,423.94 498.59,406.77 520.94,403.23 	"/>
	<polygon class="st0" points="616.09,379.29 626.08,401.35 648.43,404.89 632.26,422.06 636.08,446.31 616.09,434.86 596.1,446.31 
		599.92,422.06 583.74,404.89 606.09,401.35 	"/>
	<polygon class="st0" points="701.24,379.91 711.23,401.98 733.58,405.51 717.41,422.69 721.23,446.94 701.24,435.49 681.25,446.94 
		685.07,422.69 668.9,405.51 691.25,401.98 	"/>
	<polygon class="st0" points="786.39,378.66 796.39,400.72 818.74,404.26 802.57,421.44 806.38,445.69 786.39,434.24 766.4,445.69 
		770.22,421.44 754.05,404.26 776.4,400.72 	"/>
</g>
<g>
	<polygon class="st0" points="445.78,256.66 455.78,278.72 478.12,282.26 461.95,299.43 465.77,323.69 445.78,312.24 425.79,323.69 
		429.61,299.43 413.44,282.26 435.79,278.72 	"/>
	<polygon class="st0" points="530.93,257.28 540.93,279.35 563.28,282.89 547.11,300.06 550.92,324.31 530.93,312.86 510.95,324.31 
		514.76,300.06 498.59,282.89 520.94,279.35 	"/>
	<polygon class="st0" points="616.09,255.4 626.08,277.47 648.43,281.01 632.26,298.18 636.08,322.43 616.09,310.98 596.1,322.43 
		599.92,298.18 583.74,281.01 606.09,277.47 	"/>
</g>
<g>
	<g>
		<polygon class="st0" points="445.78,504.42 455.78,526.48 478.12,530.02 461.95,547.2 465.77,571.45 445.78,560 425.79,571.45 
			429.61,547.2 413.44,530.02 435.79,526.48 		"/>
		<polygon class="st0" points="530.93,505.05 540.93,527.11 563.28,530.65 547.11,547.82 550.92,572.07 530.93,560.62 
			510.95,572.07 514.76,547.82 498.59,530.65 520.94,527.11 		"/>
		<polygon class="st0" points="616.09,503.17 626.08,525.23 648.43,528.77 632.26,545.94 636.08,570.19 616.09,558.74 596.1,570.19 
			599.92,545.94 583.74,528.77 606.09,525.23 		"/>
		<polygon class="st0" points="701.24,503.79 711.23,525.86 733.58,529.4 717.41,546.57 721.23,570.82 701.24,559.37 681.25,570.82 
			685.07,546.57 668.9,529.4 691.25,525.86 		"/>
		<polygon class="st0" points="786.39,502.54 796.39,524.6 818.74,528.14 802.57,545.32 806.38,569.57 786.39,558.12 766.4,569.57 
			770.22,545.32 754.05,528.14 776.4,524.6 		"/>
	</g>
	<polygon class="st0" points="872.58,502.85 882.57,524.92 904.92,528.46 888.75,545.63 892.57,569.88 872.58,558.43 852.59,569.88 
		856.41,545.63 840.23,528.46 862.58,524.92 	"/>
	<polygon class="st0" points="957.73,503.48 967.72,525.54 990.07,529.08 973.9,546.26 977.72,570.51 957.73,559.06 937.74,570.51 
		941.56,546.26 925.39,529.08 947.74,525.54 	"/>
</g>
<g>
	<polygon class="st0" points="1045.02,626.42 1055.02,648.49 1077.36,652.02 1061.19,669.2 1065.01,693.45 1045.02,682 
		1025.03,693.45 1028.85,669.2 1012.68,652.02 1035.03,648.49 	"/>
	<polygon class="st0" points="1130.63,626.85 1140.62,648.92 1162.97,652.45 1146.8,669.63 1150.62,693.88 1130.63,682.43 
		1110.64,693.88 1114.45,669.63 1098.28,652.45 1120.63,648.92 	"/>
	<polygon class="st0" points="445.78,629.44 455.78,651.5 478.12,655.04 461.95,672.21 465.77,696.46 445.78,685.01 425.79,696.46 
		429.61,672.21 413.44,655.04 435.79,651.5 	"/>
	<polygon class="st0" points="531.39,629.87 541.38,651.93 563.73,655.47 547.56,672.64 551.38,696.89 531.39,685.44 511.4,696.89 
		515.22,672.64 499.04,655.47 521.39,651.93 	"/>
	<polygon class="st0" points="616.99,628.14 626.99,650.21 649.34,653.75 633.16,670.92 636.98,695.17 616.99,683.72 597,695.17 
		600.82,670.92 584.65,653.75 607,650.21 	"/>
	<polygon class="st0" points="702.6,629 712.59,651.07 734.94,654.61 718.77,671.78 722.59,696.03 702.6,684.58 682.61,696.03 
		686.43,671.78 670.26,654.61 692.6,651.07 	"/>
	<polygon class="st0" points="788.2,627.28 798.2,649.35 820.55,652.88 804.38,670.06 808.19,694.31 788.2,682.86 768.21,694.31 
		772.03,670.06 755.86,652.88 778.21,649.35 	"/>
	<polygon class="st0" points="873.81,627.71 883.8,649.78 906.15,653.32 889.98,670.49 893.8,694.74 873.81,683.29 853.82,694.74 
		857.64,670.49 841.47,653.32 863.81,649.78 	"/>
	<polygon class="st0" points="959.41,628.57 969.41,650.64 991.76,654.18 975.59,671.35 979.4,695.6 959.41,684.15 939.43,695.6 
		943.24,671.35 927.07,654.18 949.42,650.64 	"/>
</g>
<g>
	<polygon class="st0" points="1217.46,752.27 1227.46,774.34 1249.8,777.88 1233.63,795.05 1237.45,819.3 1217.46,807.85 
		1197.47,819.3 1201.29,795.05 1185.12,777.88 1207.47,774.34 	"/>
	<polygon class="st0" points="1303.2,753.31 1313.2,775.37 1335.55,778.91 1319.37,796.09 1323.19,820.34 1303.2,808.89 
		1283.21,820.34 1287.03,796.09 1270.86,778.91 1293.21,775.37 	"/>
	<polygon class="st0" points="1045.98,751.24 1055.97,773.31 1078.32,776.84 1062.15,794.02 1065.97,818.27 1045.98,806.82 
		1025.99,818.27 1029.8,794.02 1013.63,776.84 1035.98,773.31 	"/>
	<polygon class="st0" points="1131.72,751.59 1141.71,773.65 1164.06,777.19 1147.89,794.36 1151.71,818.61 1131.72,807.16 
		1111.73,818.61 1115.55,794.36 1099.38,777.19 1121.72,773.65 	"/>
	<polygon class="st0" points="445.78,754.34 455.78,776.41 478.12,779.94 461.95,797.12 465.77,821.37 445.78,809.92 425.79,821.37 
		429.61,797.12 413.44,779.94 435.79,776.41 	"/>
	<polygon class="st0" points="531.52,754.69 541.52,776.75 563.87,780.29 547.69,797.46 551.51,821.71 531.52,810.26 511.53,821.71 
		515.35,797.46 499.18,780.29 521.53,776.75 	"/>
	<polygon class="st0" points="617.27,752.96 627.26,775.03 649.61,778.57 633.44,795.74 637.25,819.99 617.27,808.54 597.28,819.99 
		601.09,795.74 584.92,778.57 607.27,775.03 	"/>
	<polygon class="st0" points="703.01,754 713,776.06 735.35,779.6 719.18,796.77 723,821.03 703.01,809.58 683.02,821.03 
		686.84,796.77 670.66,779.6 693.01,776.06 	"/>
	<polygon class="st0" points="788.75,751.93 798.74,773.99 821.09,777.53 804.92,794.71 808.74,818.96 788.75,807.51 768.76,818.96 
		772.58,794.71 756.41,777.53 778.76,773.99 	"/>
	<polygon class="st0" points="874.49,752.62 884.49,774.68 906.83,778.22 890.66,795.4 894.48,819.65 874.49,808.2 854.5,819.65 
		858.32,795.4 842.15,778.22 864.5,774.68 	"/>
	<polygon class="st0" points="960.23,753.65 970.23,775.72 992.58,779.26 976.41,796.43 980.22,820.68 960.23,809.23 940.24,820.68 
		944.06,796.43 927.89,779.26 950.24,775.72 	"/>
</g>
<g>
	<polygon class="st0" points="1389.3,876.35 1399.29,898.41 1421.64,901.95 1405.47,919.13 1409.29,943.38 1389.3,931.93 
		1369.31,943.38 1373.13,919.13 1356.96,901.95 1379.3,898.41 	"/>
	<polygon class="st0" points="1475.07,876.92 1485.07,898.99 1507.42,902.53 1491.24,919.7 1495.06,943.95 1475.07,932.5 
		1455.08,943.95 1458.9,919.7 1442.73,902.53 1465.08,898.99 	"/>
	<polygon class="st0" points="1217.75,877.5 1227.74,899.56 1250.09,903.1 1233.92,920.27 1237.74,944.53 1217.75,933.08 
		1197.76,944.53 1201.58,920.27 1185.41,903.1 1207.76,899.56 	"/>
	<polygon class="st0" points="1303.52,878.36 1313.52,900.42 1335.87,903.96 1319.7,921.14 1323.51,945.39 1303.52,933.94 
		1283.54,945.39 1287.35,921.14 1271.18,903.96 1293.53,900.42 	"/>
	<polygon class="st0" points="1046.2,876.06 1056.2,898.13 1078.54,901.66 1062.37,918.84 1066.19,943.09 1046.2,931.64 
		1026.21,943.09 1030.03,918.84 1013.86,901.66 1036.21,898.13 	"/>
	<polygon class="st0" points="1131.98,876.64 1141.97,898.7 1164.32,902.24 1148.15,919.41 1151.96,943.66 1131.98,932.21 
		1111.99,943.66 1115.8,919.41 1099.63,902.24 1121.98,898.7 	"/>
	<polygon class="st0" points="445.78,879.22 455.78,901.28 478.12,904.82 461.95,922 465.77,946.25 445.78,934.8 425.79,946.25 
		429.61,922 413.44,904.82 435.79,901.28 	"/>
	<polygon class="st0" points="531.56,879.51 541.55,901.57 563.9,905.11 547.73,922.28 551.54,946.54 531.56,935.09 511.57,946.54 
		515.38,922.28 499.21,905.11 521.56,901.57 	"/>
	<polygon class="st0" points="617.33,878.07 627.32,900.14 649.67,903.67 633.5,920.85 637.32,945.1 617.33,933.65 597.34,945.1 
		601.16,920.85 584.99,903.67 607.34,900.14 	"/>
	<polygon class="st0" points="703.1,878.93 713.1,901 735.45,904.54 719.28,921.71 723.09,945.96 703.1,934.51 683.11,945.96 
		686.93,921.71 670.76,904.54 693.11,901 	"/>
	<polygon class="st0" points="788.88,877.21 798.87,899.27 821.22,902.81 805.05,919.99 808.87,944.24 788.88,932.79 768.89,944.24 
		772.71,919.99 756.54,902.81 778.88,899.27 	"/>
	<polygon class="st0" points="874.65,877.78 884.65,899.85 907,903.39 890.82,920.56 894.64,944.81 874.65,933.36 854.66,944.81 
		858.48,920.56 842.31,903.39 864.66,899.85 	"/>
	<polygon class="st0" points="960.43,878.65 970.42,900.71 992.77,904.25 976.6,921.42 980.42,945.67 960.43,934.22 940.44,945.67 
		944.26,921.42 928.08,904.25 950.43,900.71 	"/>
</g>
<polygon class="st0" points="445.78,134.03 455.78,156.09 478.12,159.63 461.95,176.81 465.77,201.06 445.78,189.61 425.79,201.06 
	429.61,176.81 413.44,159.63 435.79,156.09 "/>
</svg>
