<?xml version="1.0" encoding="utf-8"?>
<!-- Generator: Adobe Illustrator 23.0.5, SVG Export Plug-In . SVG Version: 6.00 Build 0)  -->
<svg version="1.1" id="圖層_1" xmlns="http://www.w3.org/2000/svg" xmlns:xlink="http://www.w3.org/1999/xlink" x="0px" y="0px"
	 viewBox="0 0 1920 1080" style="enable-background:new 0 0 1920 1080;" xml:space="preserve">
<style type="text/css">
	.st0{fill:#FFFFFF;}
	.st1{fill:#4363FF;}
</style>
<g>
	<g>
		
			<rect x="459" y="244.41" transform="matrix(0.8553 -0.5181 0.5181 0.8553 -107.3926 540.494)" class="st0" width="910.15" height="436.26"/>
		<path d="M1190.13,40.88l225.51,372.29L638.02,884.19L412.52,511.9L1190.13,40.88 M1190.47,39.51L411.14,511.57l226.54,374
			l779.32-472.06L1190.47,39.51L1190.47,39.51z"/>
	</g>
	<g>
		
			<rect x="606.93" y="640.36" transform="matrix(0.8553 -0.5181 0.5181 0.8553 -212.5182 652.4683)" class="st0" width="910.15" height="132.79"/>
		<path d="M1416.67,414.88l68.28,112.72L707.34,998.63L639.06,885.9L1416.67,414.88 M1417.01,413.51L637.68,885.57L707,1000
			l779.32-472.06L1417.01,413.51L1417.01,413.51z"/>
	</g>
	<g>
		
			<rect x="761.88" y="189.94" transform="matrix(0.8553 -0.5181 0.5181 0.8553 -66.1636 579.2009)" class="st1" width="484.23" height="436.26"/>
		<path d="M1097.9,96.75l225.51,372.29L910.09,719.39L684.59,347.1L1097.9,96.75 M1098.24,95.37L683.21,346.76l226.54,374
			l415.02-251.39L1098.24,95.37L1098.24,95.37z"/>
	</g>
	<g>
		
			<rect x="909.81" y="585.89" transform="matrix(0.8553 -0.5181 0.5181 0.8553 -171.2887 691.1758)" class="st1" width="484.23" height="132.79"/>
		<path d="M1324.44,470.75l68.28,112.72L979.41,833.82L911.13,721.1L1324.44,470.75 M1324.78,469.37L909.76,720.77l69.32,114.43
			l415.02-251.39L1324.78,469.37L1324.78,469.37z"/>
	</g>
</g>
</svg>
