<?xml version="1.0" encoding="utf-8"?>
<!-- Generator: Adobe Illustrator 23.0.5, SVG Export Plug-In . SVG Version: 6.00 Build 0)  -->
<svg version="1.1" id="圖層_1" xmlns="http://www.w3.org/2000/svg" xmlns:xlink="http://www.w3.org/1999/xlink" x="0px" y="0px"
	 viewBox="0 0 1920 1080" style="enable-background:new 0 0 1920 1080;" xml:space="preserve">
<style type="text/css">
	.st0{fill:#EF509C;}
	.st1{fill:#ED9051;}
	.st2{fill:#F4D5C1;}
</style>
<g>
	<g>
		<rect x="921.94" y="10.5" class="st0" width="108.11" height="76.05"/>
		<path d="M1029.55,11v75.05H922.44V11H1029.55 M1030.55,10H921.44v77.05h109.11V10L1030.55,10z"/>
	</g>
	<g>
		<rect x="917.48" y="87.55" class="st1" width="117.02" height="856.65"/>
		<path d="M1034,88.05v855.65H917.98V88.05H1034 M1035,87.05H916.98v857.65H1035V87.05L1035,87.05z"/>
	</g>
	<g>
		<polygon class="st2" points="916.07,939.11 1034.13,939.11 975.1,1040.01 		"/>
		<path d="M1033.26,939.61l-58.16,99.41l-58.16-99.41H1033.26 M1035,938.61H915.2L975.1,1041L1035,938.61L1035,938.61z"/>
	</g>
	<g>
		<path d="M974.88,1039.99c8.91-14.19,17.81-28.39,26.72-42.58c-17.07,0-34.14,0-51.21,0
			C958.55,1011.6,966.71,1025.79,974.88,1039.99z"/>
	</g>
</g>
</svg>
