<?xml version="1.0" encoding="utf-8"?>
<!-- Generator: Adobe Illustrator 23.0.5, SVG Export Plug-In . SVG Version: 6.00 Build 0)  -->
<svg version="1.1" id="圖層_1" xmlns="http://www.w3.org/2000/svg" xmlns:xlink="http://www.w3.org/1999/xlink" x="0px" y="0px"
	 viewBox="0 0 1920 1080" style="enable-background:new 0 0 1920 1080;" xml:space="preserve">
<style type="text/css">
	.st0{fill:#D7B993;stroke:#050505;stroke-miterlimit:10;}
	.st1{fill:#412A1C;}
	.st2{fill:#603813;}
	.st3{font-family:'Ravie';}
	.st4{font-size:314.8008px;}
</style>
<g>
	<path class="st0" d="M1223.53,77.28l-20.7,36.22l-20.54-35.93c-50.01,0.32-100.02,0.53-150.03,0.64l-33.97,51.29l-33.9-51.19
		c-67.09,0.04-134.18-0.1-201.27-0.43l-28.89,83.62l-29-83.94c-68.25-0.43-136.51-1.04-204.76-1.85L472.71,115l-28.26-40
		c-12.66-0.17-25.32-0.32-37.98-0.5c-76.66-1.1-153.32-2.43-229.97-4v940H1711c0-313.33,0-626.67,0-940
		C1548.49,73.82,1386,76.08,1223.53,77.28z"/>
	<path class="st0" d="M247,1019c-17.7-4.4-40.05-8.3-66-9c-19.67-0.53-37.2,0.88-52,3c-7.33-315-14.67-630-22-945
		c11.17-3.36,27.8-6.92,48-6c14.06,0.64,25.94,3.26,35,6C209,385,228,702,247,1019z"/>
	<path class="st0" d="M1813,66.85c-17.7,4.4-40.05,8.3-66,9c-19.67,0.53-37.2-0.88-52-3c0.17,317.88,0.33,635.76,0.5,953.65
		c8.81,4.68,30.53,14.68,59,12c19.88-1.87,34.75-9.14,43-14C1802.67,705.28,1807.83,386.07,1813,66.85z"/>
	<path class="st1" d="M243.5,1033c-27,2.67-54,5.33-81,8c-1.33-6.33-2.67-12.67-4-19c-9.33-3-18.67-6-28-9
		c14.42-2.08,31.43-3.47,50.5-3c25.99,0.64,48.35,4.57,66,9C245.83,1023.67,244.67,1028.33,243.5,1033z"/>
	<path class="st1" d="M1699,51c27.33-4.03,54.67-8.06,82-12.09c1.33,6.33,2.67,12.67,4,19c9.33,3,18.67,6,28,9
		c-15.72,3.64-34.58,6.81-56,8.09c-23.75,1.42-44.74,0.15-62-2C1696.33,65.67,1697.67,58.33,1699,51z"/>
</g>
<text transform="matrix(0.2381 0 0 1 271.7808 476.6328)"><tspan x="0" y="0" class="st2 st3 st4">       Tirak umbra exoria </tspan><tspan x="0" y="377.76" class="st2 st3 st4">resuscitare, ventis ignotis!</tspan></text>
</svg>
