<?xml version="1.0" encoding="utf-8"?>
<!-- Generator: Adobe Illustrator 23.0.5, SVG Export Plug-In . SVG Version: 6.00 Build 0)  -->
<svg version="1.1" id="圖層_1" xmlns="http://www.w3.org/2000/svg" xmlns:xlink="http://www.w3.org/1999/xlink" x="0px" y="0px"
	 viewBox="0 0 1920 1080" style="enable-background:new 0 0 1920 1080;" xml:space="preserve">
<style type="text/css">
	.st0{fill:#FFC200;}
	.st1{fill:#FFFFFF;}
	.st2{fill:#4B91AA;}
	.st3{fill:#0076AC;}
	.st4{fill:#9B3C0E;}
	.st5{fill:#FC9371;}
	.st6{fill:#2B0D09;}
	.st7{fill:#FDFCF4;stroke:#050505;stroke-miterlimit:10;}
	.st8{fill:#69250B;}
	.st9{fill:#AE5A3A;}
	.st10{fill:#FEFBF5;}
	.st11{fill:#050505;}
	.st12{fill:#491420;}
	.st13{fill:#EB9B80;}
	.st14{fill:#F4E4BD;}
	.st15{fill:#544118;stroke:#000000;stroke-miterlimit:10;}
	.st16{fill:#FFC200;stroke:#FFC200;stroke-width:0.5;stroke-miterlimit:10;}
	.st17{fill:#FFFFFF;stroke:#FCFCFC;stroke-width:0.5;stroke-miterlimit:10;}
	.st18{fill:#FFFFFF;stroke:#FFFFFF;stroke-width:0.5;stroke-miterlimit:10;}
</style>
<g>
	<rect x="570.23" y="35.25" class="st0" width="843.27" height="1025.25"/>
	<path d="M1413,35.75V1060H570.73V35.75H1413 M1414,34.75H569.73V1061H1414V34.75L1414,34.75z"/>
</g>
<g>
	<rect x="698.58" y="234.07" class="st1" width="593.82" height="388.11"/>
	<path d="M1291.9,234.57v387.11H699.08V234.57H1291.9 M1292.9,233.57H698.08v389.11h594.82V233.57L1292.9,233.57z"/>
</g>
<path class="st2" d="M1104.98,632.01c-10.82,19.62-21.63,39.25-32.45,58.87c-45.97-2.02-91.94-4.05-137.91-6.07
	c-12.05-22.05-24.09-44.11-36.14-66.16c9.14-5.18,19.67-10.04,31.71-13.96c64.36-20.98,127.42-0.89,149.71,7.28
	C1088.27,618.66,1096.63,625.33,1104.98,632.01z"/>
<g>
	<path class="st3" d="M977.74,592.54c-6.44-0.4-12.88-0.8-19.33-1.2c-1.35-0.08-2.81-0.15-3.95,0.45c-1.1,0.57-1.65,1.62-2.14,2.61
		c-2.09,4.18-4.22,8.65-3.27,13.11c0.51,2.39,1.87,4.58,3.21,6.74c7.41,11.87,14.82,23.74,22.23,35.61
		c5.52-4.96,11.04-9.92,16.56-14.87c9.16,8.68,19.82,16.27,31.58,22.48c7.8-8.72,15.59-17.44,23.39-26.16
		c0.68-0.76,1.4-1.55,2.43-1.97c1.23-0.49,2.67-0.38,4.03-0.28c5.6,0.39,11.26,0.19,16.8-0.58c1.11-0.16,2.3-0.37,3.03-1.08
		c1.06-1.02,0.71-2.56,0.21-3.84c-4.01-10.21-13.41-18.26-22.52-25.93c-1.52-1.28-3.1-2.59-5.09-3.33c-2.08-0.77-4.43-0.84-6.7-0.89
		c-22.81-0.53-45.64-0.8-68.46-0.81"/>
</g>
<g>
	<path class="st4" d="M998.21,258.2c40.58-1,80.54-14.45,110.34-37.14c12.75,24.87,16.1,52.95,9.48,79.39
		c21.79-2.15,43.06-7.83,62.22-16.63c4.37,23.76-12.07,46.39-27.83,66.62c8.62-3.31,17.25-6.63,25.87-9.94
		c-5.8,14.54-15.44,28.03-28.05,39.27c-3.1,2.76-6.44,5.47-8.28,8.91c-1.53,2.87-1.9,6.06-2.26,9.18
		c-1.64,14.53-3.28,29.07-4.92,43.6c-0.34,3.01-0.74,6.17-2.82,8.66c-1.55,1.86-3.89,3.16-6.2,4.38
		c-60.41,31.86-135.62,37.23-207.37,37.22c-7.06,0-14.43-0.11-20.66-2.82c-9.75-4.24-14.15-13.56-21.1-20.61
		c-7.28-7.39-17.53-12.38-25.58-19.2c-9.18-7.78-15.22-17.7-19.95-27.82c-8.48-18.14-13.07-38.88-3.87-56.78
		c6.97-13.57,20.9-23.73,34.4-33.41c-13.72-0.52-27.57,1.28-40.43,5.25c3.12-9.89,18.33-12.4,28.7-18.01
		c1.31-0.71,2.68-1.64,2.88-2.92c0.17-1.05-0.48-2.05-1.11-2.97c-3.79-5.53-7.58-11.05-11.37-16.58c13.1,7.8,26.2,15.6,39.3,23.4
		c4.95-16.18,10.89-32.45,21.91-46.46c11.02-14.01,27.84-25.67,47.77-28.73c-3.26,9.13-5.25,18.57-5.93,28.07
		c20.95-10.38,41.91-20.76,62.86-31.14c-3.64,6.43-7.29,12.86-10.93,19.29"/>
</g>
<path class="st5" d="M1083.6,596.81c-36.47,15.26-76.34,1.92-116.52-11.53c-26.46-8.86-62.7-20.98-67.85-43.7
	c-2.86-12.63,3.03-32.34,4.42-37.02c3.17-10.6,6.13-14.62,7.37-24.89c1.66-13.77-2.48-16.44-2.21-27.31
	c0.56-22.64,18.95-27.74,22.12-49.77c1.07-7.43,0.65-18.51-7.37-32.78c30.59-1.38,62.07-2.41,94.4-3.03
	c32.05-0.62,63.28-0.8,93.66-0.61c8.02,14.87,10.77,27.25,11.8,35.81c1.72,14.27-0.73,23.08,5.16,38.24
	c2.46,6.34,3.19,5.58,9.59,17.6c10.62,19.96,16.86,31.71,16.96,44.31c0.05,5.88-1.23,14.02-14.01,33.38
	C1118.6,569.62,1107.17,586.94,1083.6,596.81z"/>
<ellipse transform="matrix(0.7666 -0.6421 0.6421 0.7666 -113.0408 674.4355)" class="st5" cx="871.21" cy="492.71" rx="32.11" ry="43.92"/>
<g>
	<g>
		<g>
			<g>
				<path class="st6" d="M858.52,463.84c14.83,6.52,25.87,19.3,31.41,34.4c0.33,0.9,1.78,0.51,1.45-0.4
					c-4.29-11.72-11.78-22.24-21.97-29.55c-3.17-2.27-6.56-4.18-10.13-5.75C858.4,462.16,857.64,463.45,858.52,463.84L858.52,463.84
					z"/>
			</g>
		</g>
		<g>
			<g>
				<path class="st6" d="M888.27,492.23c-5.95-0.46-14.2-0.99-18.19,4.47c-4.31,5.9-0.81,14.52,3.52,19.3
					c0.65,0.72,1.71-0.35,1.06-1.06c-2.28-2.52-3.96-5.55-4.64-8.9c-0.61-3.04-0.46-6.55,1.68-8.98c3.89-4.42,11.31-3.74,16.56-3.33
					C889.23,493.8,889.22,492.3,888.27,492.23L888.27,492.23z"/>
			</g>
		</g>
	</g>
</g>
<path d="M1113.83,461.45c-13.52,1.21-27.04,2.43-40.56,3.64c-1.34-1.96-9.69-14.66-2.95-27.92c0.51-1.01,8.48-16.13,22.12-15.78
	c12.46,0.32,19.33,13.29,20.65,15.78C1118.9,448.13,1115.09,458.45,1113.83,461.45z"/>
<path class="st7" d="M1113.83,465.1c-13.52,1.21-27.04,2.43-40.56,3.64c-1.34-1.96-9.69-14.66-2.95-27.92
	c0.51-1.01,8.48-16.13,22.12-15.78c12.46,0.32,19.33,13.29,20.65,15.78C1118.9,451.77,1115.09,462.09,1113.83,465.1z"/>
<path class="st8" d="M1119,406.22c-1.92-1.89-8.08-7.46-18.44-9.1c-15.81-2.52-27.52,6.32-28.76,7.28c0-6.47,0-12.95,0-19.42
	c1.39-0.76,13.3-7.04,27.29-3.03c10.87,3.11,15.83,10.38,16.96,12.14C1117.03,398.13,1118.01,402.17,1119,406.22z"/>
<path class="st8" d="M1022.39,405.61c-4.05-0.82-10.2-2.08-17.7-3.64c-21.66-4.52-24.29-5.31-28.76-5.46
	c-7.21-0.25-18.65,1.16-33.19,10.93c11.33-21.93,22.53-27.63,30.97-28.53c7.48-0.79,12.41,2.24,29.5,4.25
	c10.49,1.23,19.24,1.33,25.07,1.21C1026.32,391.45,1024.35,398.53,1022.39,405.61z"/>
<g>
	<path d="M1010.59,472.99c-7.57-2.86-17.24-5.84-28.76-7.89c-8.17-1.45-15.65-2.15-22.12-2.43c-1.16-1.98-7.27-12.89-1.47-24.89
		c3.9-8.07,13.84-17.97,28.02-18.21c18.82-0.32,28.64,16.67,29.5,18.21C1025.31,455,1011.48,471.93,1010.59,472.99z"/>
	<path class="st7" d="M1010.59,476.63c-7.57-2.86-17.24-5.84-28.76-7.89c-8.17-1.45-15.65-2.15-22.12-2.43
		c-1.16-1.98-7.27-12.89-1.47-24.89c3.9-8.07,13.84-17.97,28.02-18.21c18.82-0.32,28.64,16.67,29.5,18.21
		C1025.31,458.64,1011.48,475.57,1010.59,476.63z"/>
</g>
<ellipse class="st9" cx="981.46" cy="452.65" rx="19.54" ry="16.08"/>
<ellipse cx="982.93" cy="455.08" rx="12.91" ry="10.62"/>
<ellipse class="st10" cx="994.73" cy="446.89" rx="6.27" ry="5.46"/>
<ellipse class="st10" cx="965.23" cy="448.4" rx="4.79" ry="3.95"/>
<ellipse class="st9" cx="1086.55" cy="452.35" rx="19.17" ry="15.78"/>
<ellipse cx="1086.55" cy="451.74" rx="11.06" ry="9.1"/>
<ellipse class="st10" cx="1079.54" cy="447.49" rx="5.53" ry="3.64"/>
<g>
	<g>
		<g>
			<path class="st11" d="M1058.69,436.95c-1.63,10.74-2.83,23.07,4.89,31.88c3.94,4.5,9.5,7.12,14.58,10.08
				c2.51,1.46,5.02,3.02,7.17,5c1.18,1.08,2.69,2.63,2.31,4.39c-0.35,1.65-2,2.93-3.15,4.06c-5.76,5.67-11.94,10.92-18.43,15.73
				c-0.77,0.57-0.02,1.87,0.76,1.3c5.74-4.26,11.25-8.83,16.44-13.75c1.29-1.22,2.6-2.45,3.82-3.75c0.94-1,1.86-2.14,2.07-3.54
				c0.42-2.86-2.21-5.13-4.22-6.73c-4.8-3.81-10.53-6.17-15.54-9.67c-5.11-3.57-8.51-8.53-9.77-14.66
				c-1.35-6.56-0.47-13.39,0.52-19.93C1060.28,436.41,1058.83,436,1058.69,436.95L1058.69,436.95z"/>
		</g>
	</g>
	<g>
		<g>
			<path class="st11" d="M1039.31,504.78c3.03-0.2,6.47,0.89,8.31,3.43c0.24,0.33,0.65,0.49,1.03,0.27c0.32-0.19,0.51-0.7,0.27-1.03
				c-2.15-2.97-6.01-4.42-9.61-4.18C1038.35,503.35,1038.34,504.85,1039.31,504.78L1039.31,504.78z"/>
		</g>
	</g>
</g>
<path class="st12" d="M1065.9,563.42c-6.24,1.39-29.89,5.99-54.57-4.25c-34.35-14.25-40.71-44.78-41.3-47.95
	c12.3,5.71,34.23,14.15,63.42,16.39c23.05,1.77,42.11-0.98,54.57-3.64C1080.65,537.12,1073.27,550.27,1065.9,563.42z"/>
<path class="st1" d="M1071.8,544c-12.92,0.97-30.23,1.16-50.15-1.82c-14.98-2.24-27.64-5.71-37.61-9.1
	c-4.18-5.87-8.36-11.73-12.54-17.6c15.44,5.12,36.73,10.59,62.68,12.75c17.47,1.45,32.97,1.05,45.72,0
	C1077.21,533.48,1074.5,538.74,1071.8,544z"/>
<path class="st13" d="M1054.1,563.42c-2.98,1.03-7.84,2.34-14.01,2.43c-7.82,0.11-13.82-1.81-16.96-3.03
	c-4.18-2.23-8.36-4.45-12.54-6.68c5.08-1.68,14.2-4.06,25.81-3.64c9.76,0.35,17.41,2.55,22.12,4.25
	C1057.05,558.97,1055.57,561.2,1054.1,563.42z"/>
<path class="st5" d="M1020.91,653.25c-9.15-10.63-17.87-18.41-24.34-23.67c-12.13-9.87-18.66-12.75-23.6-20.64
	c-6.15-9.82-5.41-20.33-3.69-27.92c17.45,2.43,34.91,4.86,52.36,7.28C1021.4,609.96,1021.16,631.6,1020.91,653.25z"/>
<g>
	<path class="st14" d="M606.26,1027.17V68.58h771.21v958.59H606.26z M697.98,623.95h595.82V233.84H697.98V623.95z"/>
	<path d="M1376.97,69.08v957.59H606.76V69.08H1376.97 M697.48,624.45h1h594.82h1v-1V234.34v-1h-1H698.48h-1v1v389.11V624.45
		 M1377.97,68.08H605.76v959.59h772.21V68.08L1377.97,68.08z M698.48,623.45V234.34h594.82v389.11H698.48L698.48,623.45z"/>
</g>
<path class="st15" d="M1286.79,192.49H700.2c-16.84,0-30.5-13.66-30.5-30.5v-33.56c0-16.84,13.66-30.5,30.5-30.5h586.59
	c16.84,0,30.5,13.66,30.5,30.5v33.56C1317.29,178.83,1303.63,192.49,1286.79,192.49z"/>
<path class="st15" d="M1274.84,742.82H716.14c-10.42,0-18.87-8.45-18.87-18.87v-35.13c0-10.42,8.45-18.87,18.87-18.87h558.69
	c10.42,0,18.87,8.45,18.87,18.87v35.13C1293.7,734.37,1285.25,742.82,1274.84,742.82z"/>
<g>
	<path class="st16" d="M743.58,703.88c0,0.88-0.32,1.61-0.96,2.21c-0.64,0.6-1.45,0.9-2.45,0.9c-0.24,0-0.36,0.11-0.36,0.33v20.67
		c0,1.06-0.12,1.89-0.36,2.49c-0.24,0.6-0.74,1.07-1.49,1.39c-0.88,0.4-2.25,0.64-4.12,0.71c-0.64,0-1.23-0.19-1.76-0.57
		s-0.91-0.87-1.1-1.45c-0.2-0.47-0.15-0.91,0.15-1.31c0.3-0.4,0.73-0.6,1.28-0.6c0.56,0,1.15,0,1.79,0c0.28,0,0.47-0.05,0.57-0.14
		c0.1-0.09,0.15-0.28,0.15-0.57v-4.43c0-0.36-0.2-0.55-0.6-0.55h-6.81c-0.4,0-0.6,0.18-0.6,0.55v6.95c0,0.62-0.24,1.14-0.72,1.56
		c-0.48,0.42-1.05,0.63-1.7,0.63s-1.22-0.21-1.67-0.63c-0.46-0.42-0.69-0.94-0.69-1.56v-23.13c0-0.22-0.12-0.33-0.36-0.33
		c-0.92,0-1.69-0.29-2.33-0.88c-0.64-0.58-0.96-1.28-0.96-2.08v-2.46c0-0.8,0.31-1.49,0.93-2.05c0.62-0.57,1.36-0.85,2.24-0.85
		c0.24,0,0.36-0.11,0.36-0.33v-10.5c0-1.31,0.51-2.43,1.52-3.36c1.02-0.93,2.24-1.39,3.67-1.39h7.59c1.43,0,2.66,0.46,3.67,1.39
		c1.02,0.93,1.52,2.05,1.52,3.36v10.5c0,0.22,0.12,0.33,0.36,0.33c0.92,0,1.68,0.29,2.3,0.88c0.62,0.58,0.93,1.29,0.93,2.13V703.88z
		 M738.62,705.35c0.4,0,0.6-0.18,0.6-0.55v-1.97c0-0.36-0.2-0.55-0.6-0.55h-15.23c-0.4,0-0.6,0.18-0.6,0.55v1.97
		c0,0.36,0.2,0.55,0.6,0.55H738.62z M726.79,686.92c-0.4,0-0.6,0.18-0.6,0.55v10.66c0,0.36,0.2,0.55,0.6,0.55h1.55
		c0.4,0,0.6-0.18,0.6-0.55v-3.45c0-1.31,0.5-2.43,1.49-3.36c1-0.93,2.23-1.39,3.7-1.39h0.84c0.4,0,0.6-0.18,0.6-0.55v-1.91
		c0-0.36-0.2-0.55-0.6-0.55H726.79z M734.32,712.35c0.4,0,0.6-0.18,0.6-0.55v-2.19c0-0.36-0.2-0.55-0.6-0.55h-6.81
		c-0.4,0-0.6,0.18-0.6,0.55v2.19c0,0.37,0.2,0.55,0.6,0.55H734.32z M726.91,718.75c0,0.37,0.2,0.55,0.6,0.55h6.81
		c0.4,0,0.6-0.18,0.6-0.55v-2.3c0-0.36-0.2-0.55-0.6-0.55h-6.81c-0.4,0-0.6,0.18-0.6,0.55V718.75z M732.23,698.13
		c0,0.36,0.2,0.55,0.6,0.55h2.15c0.4,0,0.6-0.18,0.6-0.55v-4.54c0-0.36-0.2-0.55-0.6-0.55h-2.15c-0.4,0-0.6,0.18-0.6,0.55V698.13z
		 M765.02,727.45c-0.08,0.11-0.09,0.22-0.03,0.33c0.06,0.11,0.17,0.16,0.33,0.16h6.21c0.6,0,1.09,0.18,1.49,0.55
		c0.4,0.36,0.6,0.81,0.6,1.34c0,0.53-0.2,0.98-0.6,1.37c-0.4,0.38-0.9,0.57-1.49,0.57h-26.94c-0.6,0-1.1-0.19-1.49-0.57
		c-0.4-0.38-0.6-0.84-0.6-1.37c0-0.53,0.2-0.98,0.6-1.34c0.4-0.36,0.9-0.55,1.49-0.55h5.97c0.16,0,0.29-0.05,0.39-0.16
		c0.1-0.11,0.11-0.24,0.03-0.38c-0.16-0.55-0.38-1.13-0.66-1.75c-0.2-0.4-0.3-0.79-0.3-1.18s0.1-0.77,0.3-1.18
		c0.32-0.8,0.92-1.33,1.79-1.59v-0.05c0-0.04-0.02-0.05-0.06-0.05h-0.6c-1.43,0-2.66-0.46-3.67-1.39s-1.52-2.05-1.52-3.36v-0.98
		c0-1.31,0.51-2.43,1.52-3.36s2.24-1.39,3.67-1.39h13.8c1.43,0,2.66,0.46,3.67,1.39s1.52,2.05,1.52,3.36v0.98
		c0,1.31-0.51,2.43-1.52,3.36s-2.24,1.39-3.67,1.39h-0.96l-0.06,0.05c0,0.04,0.02,0.05,0.06,0.05c0.92,0.22,1.57,0.73,1.97,1.53
		c0.16,0.37,0.24,0.71,0.24,1.04c0,0.44-0.12,0.86-0.36,1.26C765.8,726.12,765.42,726.75,765.02,727.45z M771.12,705.13
		c0.56,0,1.04,0.18,1.43,0.55c0.4,0.37,0.6,0.8,0.6,1.31c0,0.51-0.2,0.95-0.6,1.31c-0.4,0.37-0.88,0.55-1.43,0.55h-25.39
		c-0.56,0-1.04-0.18-1.43-0.55c-0.4-0.36-0.6-0.8-0.6-1.31c0-0.51,0.2-0.95,0.6-1.31c0.4-0.36,0.88-0.55,1.43-0.55H771.12z
		 M766.22,686.1c1.43,0,2.66,0.46,3.67,1.39s1.52,2.05,1.52,3.36v7.16c0,1.31-0.51,2.43-1.52,3.36s-2.24,1.39-3.67,1.39h-15.77
		c-1.43,0-2.66-0.46-3.67-1.39s-1.52-2.05-1.52-3.36v-7.16c0-1.31,0.51-2.43,1.52-3.36s2.24-1.39,3.67-1.39h1.31
		c0.36,0,0.54-0.16,0.54-0.49v-2.52c0-0.51,0.2-0.95,0.6-1.31c0.4-0.36,0.88-0.55,1.43-0.55c0.56,0,1.04,0.18,1.43,0.55
		c0.4,0.37,0.6,0.8,0.6,1.31v2.52c0.04,0.33,0.24,0.49,0.6,0.49h2.45c0.36,0,0.56-0.16,0.6-0.49v-2.46c0-0.55,0.2-1,0.6-1.37
		c0.4-0.36,0.89-0.55,1.46-0.55c0.58,0,1.06,0.18,1.46,0.55c0.4,0.37,0.6,0.82,0.6,1.37v2.46c0,0.33,0.2,0.49,0.6,0.49H766.22z
		 M750.21,689.55c-0.4,0-0.6,0.18-0.6,0.55v2.13c0,0.36,0.2,0.55,0.6,0.55h2.21c0.4,0,0.6-0.18,0.6-0.55v-2.13
		c0-0.36-0.2-0.55-0.6-0.55H750.21z M750.21,696.06c-0.4,0-0.6,0.18-0.6,0.55v2.19c0,0.36,0.2,0.55,0.6,0.55h2.21
		c0.4,0,0.6-0.18,0.6-0.55v-2.19c0-0.36-0.2-0.55-0.6-0.55H750.21z M751.52,714.32c-0.4,0-0.6,0.18-0.6,0.55v2.95
		c0,0.37,0.2,0.55,0.6,0.55h13.44c0.4,0,0.6-0.18,0.6-0.55v-2.95c0-0.36-0.2-0.55-0.6-0.55H751.52z M762.93,722.14
		c0.04-0.15,0.02-0.27-0.06-0.38c-0.08-0.11-0.2-0.16-0.36-0.16h-9.02c-0.12,0-0.22,0.05-0.3,0.16c-0.08,0.11-0.08,0.22,0,0.33
		c1.11,1.79,1.93,3.66,2.45,5.63c0.04,0.11,0,0.18-0.12,0.22h4.3c0.4,0,0.68-0.16,0.84-0.49C761.54,725.77,762.3,724,762.93,722.14z
		 M756.36,692.23c0,0.36,0.2,0.55,0.6,0.55h2.45c0.4,0,0.6-0.18,0.6-0.55v-2.13c0-0.36-0.2-0.55-0.6-0.55h-2.45
		c-0.4,0-0.6,0.18-0.6,0.55V692.23z M760.01,696.6c0-0.36-0.2-0.55-0.6-0.55h-2.45c-0.4,0-0.6,0.18-0.6,0.55v2.19
		c0,0.36,0.2,0.55,0.6,0.55h2.45c0.4,0,0.6-0.18,0.6-0.55V696.6z M766.34,692.77c0.4,0,0.6-0.18,0.6-0.55v-2.13
		c0-0.36-0.2-0.55-0.6-0.55h-2.45c-0.4,0-0.6,0.18-0.6,0.55v2.13c0,0.36,0.2,0.55,0.6,0.55H766.34z M766.34,699.34
		c0.4,0,0.6-0.18,0.6-0.55v-2.19c0-0.36-0.2-0.55-0.6-0.55h-2.45c-0.4,0-0.6,0.18-0.6,0.55v2.19c0,0.36,0.2,0.55,0.6,0.55H766.34z"
		/>
	<path class="st16" d="M806.42,691.3c0,0.36,0.2,0.55,0.6,0.55h19.3c1.43,0,2.63,0.47,3.58,1.42c0.92,0.84,1.37,1.84,1.37,3.01
		c0,0.11,0,0.22,0,0.33c-0.68,10.39-1.35,17.85-2.03,22.37c-0.72,4.81-1.73,7.91-3.05,9.3c-1.39,1.49-3.29,2.35-5.68,2.57
		c-1.04,0.11-2.35,0.16-3.94,0.16c-0.8,0-1.65-0.02-2.57-0.05c-0.88,0-1.65-0.28-2.33-0.85c-0.68-0.57-1.17-1.25-1.49-2.05
		c-0.24-0.62-0.17-1.18,0.21-1.7c0.38-0.51,0.91-0.75,1.58-0.71c1.87,0.07,3.92,0.11,6.15,0.11c1.27,0,2.21-0.27,2.81-0.82
		c1.04-0.91,1.89-3.5,2.57-7.77c0.68-4.19,1.25-10.68,1.73-19.47c0.04-0.15,0-0.27-0.12-0.38c-0.12-0.11-0.26-0.16-0.42-0.16h-17.92
		c-0.4,0-0.62,0.18-0.66,0.55c-0.2,2.3-0.52,4.48-0.96,6.56c-0.44,2.26-1.19,4.69-2.27,7.3c-1.08,2.61-2.41,5.02-4,7.25
		c-1.59,2.22-3.68,4.47-6.27,6.73c-1.87,1.64-3.94,3.15-6.21,4.54c-0.56,0.33-1.16,0.49-1.79,0.49c-0.2,0-0.42-0.02-0.66-0.05
		c-0.88-0.15-1.63-0.51-2.27-1.09c-0.48-0.44-0.72-0.98-0.72-1.64c0-0.84,0.36-1.46,1.08-1.86c2.63-1.6,4.96-3.35,6.99-5.25
		c2.75-2.48,4.86-5.09,6.33-7.82c1.47-2.73,2.57-5.34,3.29-7.82c0.68-2.3,1.13-4.74,1.37-7.33c0.04-0.15,0-0.27-0.12-0.38
		s-0.26-0.16-0.42-0.16h-15.47c-0.8,0-1.47-0.25-2.03-0.77c-0.56-0.51-0.84-1.14-0.84-1.89s0.28-1.38,0.84-1.89
		c0.56-0.51,1.23-0.77,2.03-0.77h15.83c0.4,0,0.6-0.18,0.6-0.55v-8.48c0-0.8,0.29-1.46,0.87-1.97c0.58-0.51,1.28-0.77,2.12-0.77
		c0.84,0,1.54,0.26,2.12,0.79c0.58,0.53,0.87,1.18,0.87,1.94V691.3z"/>
</g>
<polygon class="st16" points="921.79,699.05 910.2,711.25 913.6,727.8 898.51,720.44 883.95,728.8 886.22,712.06 873.82,700.68 
	890.31,697.69 897.21,682.29 905.14,697.19 "/>
<polygon class="st16" points="992.55,699.05 980.96,711.25 984.36,727.8 969.26,720.44 954.71,728.8 956.97,712.06 944.58,700.68 
	961.07,697.69 967.96,682.29 975.89,697.19 "/>
<polygon class="st16" points="1063.3,699.05 1051.71,711.25 1055.11,727.8 1040.02,720.44 1025.46,728.8 1027.73,712.06 
	1015.33,700.68 1031.82,697.69 1038.72,682.29 1046.65,697.19 "/>
<polygon class="st16" points="1134.06,699.05 1122.47,711.25 1125.87,727.8 1110.77,720.44 1096.22,728.8 1098.48,712.06 
	1086.09,700.68 1102.58,697.69 1109.47,682.29 1117.4,697.19 "/>
<polygon class="st16" points="1204.81,699.05 1193.22,711.25 1196.62,727.8 1181.53,720.44 1166.97,728.8 1169.24,712.06 
	1156.84,700.68 1173.33,697.69 1180.23,682.29 1188.16,697.19 "/>
<path class="st15" d="M1274.84,866.06H716.14c-10.42,0-18.87-8.45-18.87-18.87v-35.13c0-10.42,8.45-18.87,18.87-18.87h558.69
	c10.42,0,18.87,8.45,18.87,18.87v35.13C1293.7,857.61,1285.25,866.06,1274.84,866.06z"/>
<g>
	<path class="st16" d="M743.1,826.74c0.64,0.4,0.96,0.97,0.96,1.7c0,0.55-0.22,1-0.66,1.37c-0.6,0.51-1.27,0.77-2.03,0.77
		c-0.08,0-0.14,0-0.18,0c-0.72,0-1.37-0.2-1.97-0.6c-1.79-1.24-3.8-2.55-6.03-3.94c-0.32-0.22-0.6-0.18-0.84,0.11
		c-2.03,2.7-5.04,5.01-9.02,6.94c-0.44,0.22-0.9,0.33-1.37,0.33c-0.24,0-0.5-0.04-0.78-0.11c-0.72-0.14-1.33-0.47-1.85-0.98
		c-0.44-0.4-0.61-0.88-0.51-1.42c0.1-0.55,0.41-0.93,0.93-1.15c4.5-1.97,7.53-4.46,9.08-7.49c0.04-0.11,0.02-0.22-0.06-0.33
		c-0.08-0.11-0.18-0.16-0.3-0.16h-8.24c-0.64,0-1.18-0.2-1.61-0.6c-0.44-0.4-0.66-0.88-0.66-1.45s0.22-1.05,0.66-1.45
		c0.44-0.4,0.98-0.6,1.61-0.6h1.49c0.04,0,0.07-0.04,0.09-0.11c0.02-0.07,0.01-0.11-0.03-0.11l-0.06-0.05
		c-0.96-0.58-1.53-1.4-1.73-2.46c-0.08-0.25-0.12-0.49-0.12-0.71c0-0.8,0.26-1.51,0.78-2.13c1.19-1.71,2.21-3.57,3.05-5.58
		c0.28-0.62,0.74-1.11,1.37-1.48c0.44-0.25,0.9-0.38,1.37-0.38c0.2,0,0.4,0.02,0.6,0.05c0.68,0.15,1.19,0.49,1.55,1.04
		c0.2,0.33,0.28,0.66,0.24,0.98c0,0.26-0.02,0.49-0.06,0.71c-0.04,0.15-0.18,0.51-0.42,1.09c-0.04,0.07-0.03,0.16,0.03,0.25
		c0.06,0.09,0.15,0.14,0.27,0.14h13.14c0.6,0,1.11,0.2,1.55,0.6c0.44,0.4,0.66,0.88,0.66,1.45c0,0.57-0.22,1.06-0.66,1.48
		c-0.44,0.42-0.96,0.63-1.55,0.63h-5.62c-0.4,0-0.6,0.18-0.6,0.55v2.35c0,0.51,0,0.89,0,1.15c0,0.15,0.05,0.27,0.15,0.38
		c0.1,0.11,0.23,0.16,0.39,0.16h7.17c0.64,0,1.17,0.2,1.61,0.6c0.44,0.4,0.66,0.88,0.66,1.45s-0.22,1.05-0.66,1.45
		c-0.44,0.4-0.98,0.6-1.61,0.6h-8.3c-0.2,0-0.33,0.08-0.39,0.25s-0.01,0.3,0.15,0.41C736.81,823.36,739.59,824.8,743.1,826.74z
		 M722.79,817.22c-0.08,0.07-0.1,0.16-0.06,0.27c0.04,0.11,0.12,0.16,0.24,0.16h6.57c0.4,0,0.62-0.2,0.66-0.6c0-0.25,0-0.64,0-1.15
		v-2.3c0-0.36-0.2-0.55-0.6-0.55h-3.11c-0.4,0-0.68,0.15-0.84,0.44C724.82,814.81,723.86,816.05,722.79,817.22z M729.3,855.83
		c-0.8,0-1.46-0.26-2-0.77c-0.54-0.51-0.81-1.11-0.81-1.8v-15.75c0-1.31,0.51-2.43,1.52-3.36s2.24-1.39,3.67-1.39h27.96
		c1.43,0,2.66,0.46,3.67,1.39s1.52,2.05,1.52,3.36v15.59c0,0.73-0.29,1.36-0.87,1.89c-0.58,0.53-1.26,0.79-2.06,0.79h-1.02
		c-0.52,0-0.97-0.16-1.34-0.49c-0.38-0.33-0.57-0.73-0.57-1.2c0-0.15-0.06-0.22-0.18-0.22h-26.52c-0.12,0-0.18,0.07-0.18,0.22
		c0,0.47-0.19,0.88-0.57,1.23c-0.38,0.35-0.83,0.52-1.34,0.52H729.3z M758.99,837.45c0-0.36-0.2-0.55-0.6-0.55H732.7
		c-0.4,0-0.6,0.18-0.6,0.55v3.28c0,0.37,0.2,0.55,0.6,0.55h25.69c0.4,0,0.6-0.18,0.6-0.55V837.45z M732.11,849.1
		c0,0.37,0.2,0.55,0.6,0.55h25.69c0.4,0,0.6-0.18,0.6-0.55v-3.39c0-0.36-0.2-0.55-0.6-0.55H732.7c-0.4,0-0.6,0.18-0.6,0.55V849.1z
		 M747.88,813.61c0-1.31,0.51-2.43,1.52-3.36s2.24-1.39,3.67-1.39h11.71c1.43,0,2.66,0.46,3.67,1.39s1.52,2.05,1.52,3.36v10.45
		c0,1.31-0.51,2.43-1.52,3.36s-2.24,1.39-3.67,1.39h-11.71c-1.43,0-2.66-0.46-3.67-1.39s-1.52-2.05-1.52-3.36V813.61z
		 M763.71,824.22c0.4,0,0.6-0.18,0.6-0.55v-9.68c0-0.36-0.2-0.55-0.6-0.55h-9.92c-0.4,0-0.6,0.18-0.6,0.55v9.68
		c0,0.36,0.2,0.55,0.6,0.55H763.71z"/>
	<path class="st16" d="M806.42,814.54c0,0.36,0.2,0.55,0.6,0.55h19.3c1.43,0,2.63,0.47,3.58,1.42c0.92,0.84,1.37,1.84,1.37,3.01
		c0,0.11,0,0.22,0,0.33c-0.68,10.39-1.35,17.85-2.03,22.37c-0.72,4.81-1.73,7.91-3.05,9.3c-1.39,1.49-3.29,2.35-5.68,2.57
		c-1.04,0.11-2.35,0.16-3.94,0.16c-0.8,0-1.65-0.02-2.57-0.05c-0.88,0-1.65-0.28-2.33-0.85c-0.68-0.57-1.17-1.25-1.49-2.05
		c-0.24-0.62-0.17-1.18,0.21-1.7c0.38-0.51,0.91-0.75,1.58-0.71c1.87,0.07,3.92,0.11,6.15,0.11c1.27,0,2.21-0.27,2.81-0.82
		c1.04-0.91,1.89-3.5,2.57-7.77c0.68-4.19,1.25-10.68,1.73-19.47c0.04-0.15,0-0.27-0.12-0.38c-0.12-0.11-0.26-0.16-0.42-0.16h-17.92
		c-0.4,0-0.62,0.18-0.66,0.55c-0.2,2.3-0.52,4.48-0.96,6.56c-0.44,2.26-1.19,4.69-2.27,7.3c-1.08,2.61-2.41,5.02-4,7.25
		c-1.59,2.22-3.68,4.47-6.27,6.73c-1.87,1.64-3.94,3.15-6.21,4.54c-0.56,0.33-1.16,0.49-1.79,0.49c-0.2,0-0.42-0.02-0.66-0.05
		c-0.88-0.15-1.63-0.51-2.27-1.09c-0.48-0.44-0.72-0.98-0.72-1.64c0-0.84,0.36-1.46,1.08-1.86c2.63-1.6,4.96-3.35,6.99-5.25
		c2.75-2.48,4.86-5.09,6.33-7.82c1.47-2.73,2.57-5.34,3.29-7.82c0.68-2.3,1.13-4.74,1.37-7.33c0.04-0.15,0-0.27-0.12-0.38
		s-0.26-0.16-0.42-0.16h-15.47c-0.8,0-1.47-0.25-2.03-0.77c-0.56-0.51-0.84-1.14-0.84-1.89s0.28-1.38,0.84-1.89
		c0.56-0.51,1.23-0.77,2.03-0.77h15.83c0.4,0,0.6-0.18,0.6-0.55v-8.48c0-0.8,0.29-1.46,0.87-1.97c0.58-0.51,1.28-0.77,2.12-0.77
		c0.84,0,1.54,0.26,2.12,0.79c0.58,0.53,0.87,1.18,0.87,1.94V814.54z"/>
</g>
<polygon class="st16" points="921.79,822.3 910.2,834.49 913.6,851.04 898.51,843.68 883.95,852.04 886.22,835.3 873.82,823.92 
	890.31,820.93 897.21,805.54 905.14,820.43 "/>
<polygon class="st16" points="992.55,822.3 980.96,834.49 984.36,851.04 969.26,843.68 954.71,852.04 956.97,835.3 944.58,823.92 
	961.07,820.93 967.96,805.54 975.89,820.43 "/>
<polygon class="st16" points="1063.3,822.3 1051.71,834.49 1055.11,851.04 1040.02,843.68 1025.46,852.04 1027.73,835.3 
	1015.33,823.92 1031.82,820.93 1038.72,805.54 1046.65,820.43 "/>
<polygon class="st17" points="1134.06,822.3 1122.47,834.49 1125.87,851.04 1110.77,843.68 1096.22,852.04 1098.48,835.3 
	1086.09,823.92 1102.58,820.93 1109.47,805.54 1117.4,820.43 "/>
<polygon class="st17" points="1204.81,822.3 1193.22,834.49 1196.62,851.04 1181.53,843.68 1166.97,852.04 1169.24,835.3 
	1156.84,823.92 1173.33,820.93 1180.23,805.54 1188.16,820.43 "/>
<path class="st15" d="M1274.84,989.3H716.14c-10.42,0-18.87-8.45-18.87-18.87v-35.13c0-10.42,8.45-18.87,18.87-18.87h558.69
	c10.42,0,18.87,8.45,18.87,18.87v35.13C1293.7,980.86,1285.25,989.3,1274.84,989.3z"/>
<g>
	<path class="st16" d="M745.25,939.07c0,0.36,0.2,0.53,0.6,0.53h19.3c1.43,0,2.63,0.46,3.58,1.39c0.92,0.82,1.37,1.8,1.37,2.94
		c0,0.11,0,0.21,0,0.32c-0.68,10.15-1.35,17.43-2.03,21.84c-0.72,4.7-1.73,7.73-3.05,9.08c-1.39,1.46-3.29,2.3-5.68,2.51
		c-1.04,0.11-2.35,0.16-3.94,0.16c-0.8,0-1.65-0.02-2.57-0.05c-0.88,0-1.65-0.28-2.33-0.83c-0.68-0.55-1.17-1.22-1.49-2
		c-0.24-0.61-0.17-1.16,0.21-1.66c0.38-0.5,0.91-0.73,1.58-0.69c1.87,0.07,3.92,0.11,6.15,0.11c1.27,0,2.21-0.27,2.81-0.8
		c1.04-0.89,1.89-3.42,2.57-7.58c0.68-4.09,1.25-10.43,1.73-19.01c0.04-0.14,0-0.27-0.12-0.37c-0.12-0.11-0.26-0.16-0.42-0.16
		h-17.92c-0.4,0-0.62,0.18-0.66,0.53c-0.2,2.24-0.52,4.38-0.96,6.41c-0.44,2.21-1.19,4.58-2.27,7.13c-1.08,2.55-2.41,4.9-4,7.08
		c-1.59,2.17-3.68,4.36-6.27,6.57c-1.87,1.6-3.94,3.08-6.21,4.43c-0.56,0.32-1.16,0.48-1.79,0.48c-0.2,0-0.42-0.02-0.66-0.05
		c-0.88-0.14-1.63-0.5-2.27-1.07c-0.48-0.43-0.72-0.96-0.72-1.6c0-0.82,0.36-1.42,1.08-1.82c2.63-1.57,4.96-3.28,6.99-5.13
		c2.75-2.42,4.86-4.97,6.33-7.64c1.47-2.67,2.57-5.22,3.29-7.64c0.68-2.24,1.13-4.63,1.37-7.16c0.04-0.14,0-0.27-0.12-0.37
		c-0.12-0.11-0.26-0.16-0.42-0.16h-15.47c-0.8,0-1.47-0.25-2.03-0.75c-0.56-0.5-0.84-1.11-0.84-1.84c0-0.73,0.28-1.34,0.84-1.84
		c0.56-0.5,1.23-0.75,2.03-0.75h15.83c0.4,0,0.6-0.18,0.6-0.53v-8.28c0-0.78,0.29-1.42,0.87-1.92c0.58-0.5,1.28-0.75,2.12-0.75
		c0.84,0,1.54,0.26,2.12,0.77c0.58,0.52,0.87,1.15,0.87,1.9V939.07z"/>
	<path class="st16" d="M809.29,973.73c0,0.36,0.2,0.53,0.6,0.53h22.16c0.64,0,1.17,0.19,1.58,0.56c0.42,0.37,0.63,0.83,0.63,1.36
		s-0.21,0.99-0.63,1.36c-0.42,0.37-0.95,0.56-1.58,0.56h-50.72c-0.6,0-1.12-0.19-1.55-0.56c-0.44-0.37-0.66-0.83-0.66-1.36
		s0.22-0.99,0.66-1.36c0.44-0.37,0.96-0.56,1.55-0.56h21.86c0.4,0,0.6-0.18,0.6-0.53v-1.6c0-0.36-0.2-0.53-0.6-0.53h-16.91
		c-0.56,0-1.03-0.16-1.4-0.48c-0.38-0.32-0.57-0.72-0.57-1.2s0.19-0.89,0.57-1.23c0.38-0.34,0.85-0.51,1.4-0.51h16.91
		c0.4,0,0.6-0.18,0.6-0.53v-1.39c0-0.36-0.2-0.53-0.6-0.53h-12.13c-1.43,0-2.66-0.45-3.67-1.36c-1.02-0.91-1.52-2-1.52-3.29v-4.38
		c0-1.28,0.51-2.38,1.52-3.28c1.02-0.91,2.24-1.36,3.67-1.36h31.54c1.43,0,2.66,0.45,3.67,1.36c1.02,0.91,1.52,2,1.52,3.28v4.38
		c0,1.28-0.51,2.38-1.52,3.29c-1.02,0.91-2.24,1.36-3.67,1.36h-12.72c-0.4,0-0.6,0.18-0.6,0.53v1.39c0,0.36,0.2,0.53,0.6,0.53h17.26
		c0.52,0,0.97,0.17,1.34,0.51c0.38,0.34,0.57,0.75,0.57,1.23s-0.19,0.88-0.57,1.2c-0.38,0.32-0.83,0.48-1.34,0.48h-17.26
		c-0.4,0-0.6,0.18-0.6,0.53V973.73z M831.93,946.22c0.56,0,1.05,0.19,1.46,0.56c0.42,0.37,0.63,0.83,0.63,1.36s-0.21,0.97-0.63,1.31
		c-0.42,0.34-0.91,0.51-1.46,0.51h-50.48c-0.56,0-1.05-0.17-1.46-0.51c-0.42-0.34-0.63-0.77-0.63-1.31s0.21-0.99,0.63-1.36
		c0.42-0.37,0.91-0.56,1.46-0.56H831.93z M821,930.95c1.43,0,2.66,0.45,3.67,1.36c1.02,0.91,1.52,2,1.52,3.29v3.9
		c0,1.28-0.5,2.38-1.49,3.28c-1,0.91-2.23,1.36-3.7,1.36h-28.85c-1.43,0-2.66-0.45-3.67-1.36c-1.02-0.91-1.52-2-1.52-3.28v-3.9
		c0-1.28,0.51-2.38,1.52-3.29c1.02-0.91,2.24-1.36,3.67-1.36H821z M791.85,954.93c-0.4,0-0.6,0.18-0.6,0.53v1.44
		c0,0.36,0.2,0.53,0.6,0.53h11.35c0.4,0,0.6-0.18,0.6-0.53v-1.44c0-0.36-0.2-0.53-0.6-0.53H791.85z M791.25,962.3
		c0,0.36,0.2,0.53,0.6,0.53h11.35c0.4,0,0.6-0.18,0.6-0.53v-1.55c0-0.36-0.2-0.53-0.6-0.53h-11.35c-0.4,0-0.6,0.18-0.6,0.53V962.3z
		 M819.81,936.18c0.4,0,0.6-0.18,0.6-0.53v-1.39c0-0.36-0.2-0.53-0.6-0.53h-26.76c-0.4,0-0.6,0.18-0.6,0.53v1.39
		c0,0.36,0.2,0.53,0.6,0.53H819.81z M819.81,941.36c0.4,0,0.6-0.18,0.6-0.53v-1.44c0-0.36-0.2-0.53-0.6-0.53h-26.76
		c-0.4,0-0.6,0.18-0.6,0.53v1.44c0,0.36,0.2,0.53,0.6,0.53H819.81z M821.66,957.44c0.4,0,0.6-0.18,0.6-0.53v-1.44
		c0-0.36-0.2-0.53-0.6-0.53h-11.77c-0.4,0-0.6,0.18-0.6,0.53v1.44c0,0.36,0.2,0.53,0.6,0.53H821.66z M821.66,962.83
		c0.4,0,0.6-0.18,0.6-0.53v-1.55c0-0.36-0.2-0.53-0.6-0.53h-11.77c-0.4,0-0.6,0.18-0.6,0.53v1.55c0,0.36,0.2,0.53,0.6,0.53H821.66z"
		/>
</g>
<polygon class="st16" points="921.79,945.54 910.2,957.73 913.6,974.28 898.51,966.93 883.95,975.29 886.22,958.55 873.82,947.16 
	890.31,944.17 897.21,928.78 905.14,943.67 "/>
<polygon class="st16" points="992.55,945.54 980.96,957.73 984.36,974.28 969.26,966.93 954.71,975.29 956.97,958.55 944.58,947.16 
	961.07,944.17 967.96,928.78 975.89,943.67 "/>
<polygon class="st16" points="1063.3,945.54 1051.71,957.73 1055.11,974.28 1040.02,966.93 1025.46,975.29 1027.73,958.55 
	1015.33,947.16 1031.82,944.17 1038.72,928.78 1046.65,943.67 "/>
<polygon class="st16" points="1134.06,945.54 1122.47,957.73 1125.87,974.28 1110.77,966.93 1096.22,975.29 1098.48,958.55 
	1086.09,947.16 1102.58,944.17 1109.47,928.78 1117.4,943.67 "/>
<polygon class="st18" points="1204.81,945.54 1193.22,957.73 1196.62,974.28 1181.53,966.93 1166.97,975.29 1169.24,958.55 
	1156.84,947.16 1173.33,944.17 1180.23,928.78 1188.16,943.67 "/>
<g>
	<path class="st16" d="M926.84,122.36h23.12c12.78,0,17.63,6.46,17.63,13.13c0,5.78-3.16,9.54-6.74,11.12
		c3.57,1.3,8.25,4.95,8.25,11.69c0,8.78-7.11,15.36-18.37,15.36h-23.9V122.36z M948.64,142.6c5.44,0,7.68-2.37,7.68-5.97
		c0-3.76-2.94-5.7-7.35-5.7h-10.9v11.67H948.64z M938.07,165.1h10.32c6.18,0,8.98-2.51,8.98-7.16c0-4.13-2.75-6.77-9.05-6.77h-10.26
		V165.1z"/>
	<path class="st16" d="M1014.09,154.33c0,11.65-7.19,20.23-19.78,20.23c-12.32,0-19.51-8.52-19.51-20.02
		c0-11.89,7.42-20.28,20.03-20.28C1006.53,134.25,1014.09,142.26,1014.09,154.33z M985.96,154.41c0,7.41,3.29,11.81,8.59,11.81
		c5.38,0,8.38-4.4,8.38-11.74c0-8.06-3.05-11.87-8.53-11.87C989.3,142.6,985.96,146.26,985.96,154.41z"/>
	<path class="st16" d="M1021.64,119.34h11v19.89c1.64-2.48,4.93-4.98,11.37-4.98c10.81,0,16.21,8.66,16.21,19.46
		c0,11.04-5.85,20.84-17.27,20.84c-5.91,0-8.51-1.74-10.44-4.54c0,1.27-0.21,2.67-0.42,3.65h-10.52c0.08-4.18,0.08-8.42,0.08-12.59
		V119.34z M1049.06,153.92c0-6.42-2.46-11.13-8.4-11.13c-6.28,0-8.51,3.97-8.51,11.82c0,6.49,1.98,11.47,8.39,11.47
		C1046.12,166.08,1049.06,161.21,1049.06,153.92z"/>
</g>
</svg>
