<?xml version="1.0" encoding="utf-8"?>
<!-- Generator: Adobe Illustrator 23.0.5, SVG Export Plug-In . SVG Version: 6.00 Build 0)  -->
<svg version="1.1" id="圖層_1" xmlns="http://www.w3.org/2000/svg" xmlns:xlink="http://www.w3.org/1999/xlink" x="0px" y="0px"
	 viewBox="0 0 1920 1080" style="enable-background:new 0 0 1920 1080;" xml:space="preserve">
<style type="text/css">
	.st0{fill:#FFC200;}
	.st1{fill:#FFFFFF;}
	.st2{fill:#F4E4BD;}
	.st3{fill:#544118;stroke:#000000;stroke-miterlimit:10;}
	.st4{fill:#FFC200;stroke:#FFC200;stroke-width:0.5;stroke-miterlimit:10;}
	.st5{fill:#FFFFFF;stroke:#FFFFFF;stroke-width:0.5;stroke-miterlimit:10;}
	.st6{fill:#5A2A16;}
	.st7{fill:#F9D364;}
	.st8{fill:#FBA364;}
	.st9{fill:#FDFFFE;stroke:#000000;stroke-width:2;stroke-miterlimit:10;}
	.st10{fill:#C26A2B;}
	.st11{fill:#FDFFFE;}
	.st12{fill:#FC5406;stroke:#000000;stroke-width:2;stroke-miterlimit:10;}
	.st13{fill:#D5160C;}
</style>
<g>
	<rect x="589.23" y="24.25" class="st0" width="816.27" height="1030.25"/>
	<path d="M1405,24.75V1054H589.73V24.75H1405 M1406,23.75H588.73V1055H1406V23.75L1406,23.75z"/>
</g>
<g>
	<rect x="713.47" y="224.04" class="st1" width="574.8" height="390"/>
	<path d="M1287.77,224.54v389h-573.8v-389H1287.77 M1288.77,223.54h-575.8v391h575.8V223.54L1288.77,223.54z"/>
</g>
<g>
	<path class="st2" d="M624.11,1021.01V57.74h746.52v963.27H624.11z M712.86,615.82h576.8v-392h-576.8V615.82z"/>
	<path d="M1370.13,58.24v962.27H624.61V58.24H1370.13 M712.36,616.32h1h575.8h1v-1v-391v-1h-1h-575.8h-1v1v391V616.32
		 M1371.13,57.24H623.61v964.27h747.52V57.24L1371.13,57.24z M713.36,615.32v-391h575.8v391H713.36L713.36,615.32z"/>
</g>
<path class="st3" d="M1281.88,182.25H716c-16.84,0-30.5-13.66-30.5-30.5v-34.02c0-16.84,13.66-30.5,30.5-30.5h565.88
	c16.84,0,30.5,13.66,30.5,30.5v34.02C1312.38,168.6,1298.72,182.25,1281.88,182.25z"/>
<path class="st3" d="M1270.68,735.27H731.07c-10.42,0-18.87-8.45-18.87-18.87v-35.48c0-10.42,8.45-18.87,18.87-18.87h539.62
	c10.42,0,18.87,8.45,18.87,18.87v35.48C1289.55,726.82,1281.1,735.27,1270.68,735.27z"/>
<g>
	<path class="st4" d="M757.02,696.14c0,0.88-0.31,1.62-0.93,2.23c-0.62,0.6-1.41,0.91-2.37,0.91c-0.23,0-0.35,0.11-0.35,0.33v20.77
		c0,1.06-0.12,1.9-0.35,2.5s-0.71,1.07-1.45,1.4c-0.85,0.4-2.18,0.64-3.99,0.71c-0.62,0-1.19-0.19-1.71-0.58
		c-0.52-0.38-0.88-0.87-1.07-1.46c-0.19-0.48-0.14-0.92,0.14-1.32c0.29-0.4,0.7-0.6,1.24-0.6c0.54,0,1.12,0,1.73,0
		c0.27,0,0.45-0.05,0.55-0.14c0.1-0.09,0.14-0.28,0.14-0.58v-4.45c0-0.37-0.19-0.55-0.58-0.55h-6.59c-0.39,0-0.58,0.18-0.58,0.55
		v6.98c0,0.62-0.23,1.14-0.69,1.57c-0.46,0.42-1.01,0.63-1.65,0.63s-1.18-0.21-1.62-0.63c-0.44-0.42-0.67-0.94-0.67-1.57V699.6
		c0-0.22-0.12-0.33-0.35-0.33c-0.89,0-1.64-0.29-2.26-0.88c-0.62-0.58-0.92-1.28-0.92-2.09v-2.47c0-0.81,0.3-1.49,0.9-2.06
		c0.6-0.57,1.32-0.85,2.17-0.85c0.23,0,0.35-0.11,0.35-0.33v-10.55c0-1.32,0.49-2.45,1.47-3.38c0.98-0.93,2.17-1.4,3.56-1.4h7.34
		c1.39,0,2.57,0.47,3.56,1.4c0.98,0.93,1.47,2.06,1.47,3.38v10.55c0,0.22,0.12,0.33,0.35,0.33c0.89,0,1.63,0.29,2.23,0.88
		c0.6,0.59,0.9,1.3,0.9,2.14V696.14z M752.22,697.62c0.38,0,0.58-0.18,0.58-0.55v-1.98c0-0.37-0.19-0.55-0.58-0.55h-14.75
		c-0.39,0-0.58,0.18-0.58,0.55v1.98c0,0.37,0.19,0.55,0.58,0.55H752.22z M740.77,679.1c-0.39,0-0.58,0.18-0.58,0.55v10.72
		c0,0.37,0.19,0.55,0.58,0.55h1.5c0.39,0,0.58-0.18,0.58-0.55v-3.46c0-1.32,0.48-2.45,1.45-3.38c0.96-0.93,2.16-1.4,3.59-1.4h0.81
		c0.38,0,0.58-0.18,0.58-0.55v-1.92c0-0.37-0.19-0.55-0.58-0.55H740.77z M748.05,704.65c0.38,0,0.58-0.18,0.58-0.55v-2.2
		c0-0.37-0.19-0.55-0.58-0.55h-6.59c-0.39,0-0.58,0.18-0.58,0.55v2.2c0,0.37,0.19,0.55,0.58,0.55H748.05z M740.88,711.08
		c0,0.37,0.19,0.55,0.58,0.55h6.59c0.38,0,0.58-0.18,0.58-0.55v-2.31c0-0.37-0.19-0.55-0.58-0.55h-6.59c-0.39,0-0.58,0.18-0.58,0.55
		V711.08z M746.03,690.37c0,0.37,0.19,0.55,0.58,0.55h2.08c0.38,0,0.58-0.18,0.58-0.55v-4.56c0-0.37-0.19-0.55-0.58-0.55h-2.08
		c-0.39,0-0.58,0.18-0.58,0.55V690.37z M777.78,719.82c-0.08,0.11-0.09,0.22-0.03,0.33c0.06,0.11,0.16,0.17,0.32,0.17h6.01
		c0.58,0,1.06,0.18,1.45,0.55c0.39,0.37,0.58,0.82,0.58,1.35c0,0.53-0.19,0.99-0.58,1.37c-0.39,0.38-0.87,0.58-1.45,0.58H758
		c-0.58,0-1.06-0.19-1.45-0.58c-0.39-0.38-0.58-0.84-0.58-1.37c0-0.53,0.19-0.98,0.58-1.35c0.38-0.37,0.87-0.55,1.45-0.55h5.78
		c0.15,0,0.28-0.06,0.38-0.17c0.1-0.11,0.11-0.24,0.03-0.38c-0.15-0.55-0.37-1.13-0.64-1.76c-0.19-0.4-0.29-0.8-0.29-1.18
		s0.1-0.78,0.29-1.18c0.31-0.81,0.89-1.34,1.73-1.59V714c0-0.04-0.02-0.05-0.06-0.05h-0.58c-1.39,0-2.57-0.47-3.56-1.4
		c-0.98-0.93-1.47-2.06-1.47-3.38v-0.99c0-1.32,0.49-2.45,1.47-3.38c0.98-0.93,2.17-1.4,3.56-1.4h13.36c1.39,0,2.57,0.47,3.56,1.4
		c0.98,0.93,1.47,2.06,1.47,3.38v0.99c0,1.32-0.49,2.45-1.47,3.38c-0.98,0.93-2.17,1.4-3.56,1.4h-0.93l-0.06,0.05
		c0,0.04,0.02,0.06,0.06,0.06c0.89,0.22,1.52,0.73,1.91,1.54c0.15,0.37,0.23,0.71,0.23,1.04c0,0.44-0.12,0.86-0.35,1.26
		C778.53,718.48,778.16,719.13,777.78,719.82z M783.68,697.4c0.54,0,1,0.18,1.39,0.55c0.38,0.37,0.58,0.81,0.58,1.32
		s-0.19,0.95-0.58,1.32c-0.39,0.37-0.85,0.55-1.39,0.55H759.1c-0.54,0-1-0.18-1.39-0.55c-0.39-0.37-0.58-0.81-0.58-1.32
		s0.19-0.95,0.58-1.32c0.39-0.37,0.85-0.55,1.39-0.55H783.68z M778.94,678.28c1.39,0,2.57,0.47,3.56,1.4
		c0.98,0.93,1.47,2.06,1.47,3.38v7.2c0,1.32-0.49,2.45-1.47,3.38c-0.98,0.93-2.17,1.4-3.56,1.4h-15.27c-1.39,0-2.57-0.47-3.56-1.4
		c-0.98-0.93-1.47-2.06-1.47-3.38v-7.2c0-1.32,0.49-2.45,1.47-3.38c0.98-0.93,2.17-1.4,3.56-1.4h1.27c0.35,0,0.52-0.17,0.52-0.5
		v-2.53c0-0.51,0.19-0.95,0.58-1.32c0.38-0.37,0.85-0.55,1.39-0.55c0.54,0,1,0.18,1.39,0.55c0.38,0.37,0.58,0.81,0.58,1.32v2.53
		c0.04,0.33,0.23,0.5,0.58,0.5h2.37c0.35,0,0.54-0.17,0.58-0.5v-2.47c0-0.55,0.19-1.01,0.58-1.37c0.38-0.37,0.86-0.55,1.42-0.55
		c0.56,0,1.03,0.18,1.42,0.55c0.39,0.37,0.58,0.82,0.58,1.37v2.47c0,0.33,0.19,0.5,0.58,0.5H778.94z M763.44,681.74
		c-0.39,0-0.58,0.18-0.58,0.55v2.14c0,0.37,0.19,0.55,0.58,0.55h2.14c0.39,0,0.58-0.18,0.58-0.55v-2.14c0-0.37-0.19-0.55-0.58-0.55
		H763.44z M763.44,688.28c-0.39,0-0.58,0.18-0.58,0.55v2.2c0,0.37,0.19,0.55,0.58,0.55h2.14c0.39,0,0.58-0.18,0.58-0.55v-2.2
		c0-0.37-0.19-0.55-0.58-0.55H763.44z M764.71,706.63c-0.39,0-0.58,0.18-0.58,0.55v2.97c0,0.37,0.19,0.55,0.58,0.55h13.01
		c0.38,0,0.58-0.18,0.58-0.55v-2.97c0-0.37-0.19-0.55-0.58-0.55H764.71z M775.75,714.49c0.04-0.15,0.02-0.28-0.06-0.38
		c-0.08-0.11-0.19-0.17-0.35-0.17h-8.73c-0.12,0-0.21,0.05-0.29,0.17c-0.08,0.11-0.08,0.22,0,0.33c1.08,1.79,1.87,3.68,2.37,5.66
		c0.04,0.11,0,0.18-0.12,0.22h4.16c0.39,0,0.66-0.17,0.81-0.5C774.4,718.14,775.14,716.36,775.75,714.49z M769.39,684.43
		c0,0.37,0.19,0.55,0.58,0.55h2.37c0.39,0,0.58-0.18,0.58-0.55v-2.14c0-0.37-0.19-0.55-0.58-0.55h-2.37c-0.39,0-0.58,0.18-0.58,0.55
		V684.43z M772.92,688.83c0-0.37-0.19-0.55-0.58-0.55h-2.37c-0.39,0-0.58,0.18-0.58,0.55v2.2c0,0.37,0.19,0.55,0.58,0.55h2.37
		c0.39,0,0.58-0.18,0.58-0.55V688.83z M779.05,684.98c0.38,0,0.58-0.18,0.58-0.55v-2.14c0-0.37-0.19-0.55-0.58-0.55h-2.37
		c-0.39,0-0.58,0.18-0.58,0.55v2.14c0,0.37,0.19,0.55,0.58,0.55H779.05z M779.05,691.58c0.38,0,0.58-0.18,0.58-0.55v-2.2
		c0-0.37-0.19-0.55-0.58-0.55h-2.37c-0.39,0-0.58,0.18-0.58,0.55v2.2c0,0.37,0.19,0.55,0.58,0.55H779.05z"/>
	<path class="st4" d="M817.85,683.5c0,0.37,0.19,0.55,0.58,0.55h18.68c1.39,0,2.54,0.48,3.47,1.43c0.89,0.84,1.33,1.85,1.33,3.02
		c0,0.11,0,0.22,0,0.33c-0.66,10.44-1.31,17.93-1.97,22.48c-0.69,4.84-1.68,7.95-2.95,9.34c-1.35,1.5-3.18,2.36-5.49,2.58
		c-1,0.11-2.28,0.17-3.82,0.17c-0.77,0-1.6-0.02-2.49-0.05c-0.85,0-1.6-0.28-2.26-0.85c-0.66-0.57-1.14-1.25-1.45-2.06
		c-0.23-0.62-0.16-1.19,0.2-1.7c0.37-0.51,0.88-0.75,1.53-0.71c1.81,0.07,3.8,0.11,5.96,0.11c1.23,0,2.14-0.28,2.72-0.82
		c1-0.92,1.83-3.52,2.49-7.8c0.65-4.21,1.21-10.73,1.68-19.56c0.04-0.15,0-0.27-0.12-0.38c-0.12-0.11-0.25-0.17-0.4-0.17H818.2
		c-0.39,0-0.6,0.18-0.64,0.55c-0.19,2.31-0.5,4.51-0.93,6.59c-0.42,2.27-1.16,4.72-2.2,7.34c-1.04,2.62-2.33,5.05-3.87,7.28
		c-1.54,2.24-3.57,4.49-6.07,6.76c-1.81,1.65-3.82,3.17-6.01,4.56c-0.54,0.33-1.12,0.5-1.73,0.5c-0.19,0-0.4-0.02-0.64-0.06
		c-0.85-0.15-1.58-0.51-2.2-1.1c-0.46-0.44-0.69-0.99-0.69-1.65c0-0.84,0.35-1.46,1.04-1.87c2.54-1.61,4.8-3.37,6.77-5.28
		c2.66-2.49,4.7-5.11,6.13-7.86c1.43-2.75,2.49-5.37,3.18-7.86c0.65-2.31,1.1-4.76,1.33-7.36c0.04-0.15,0-0.27-0.12-0.38
		c-0.12-0.11-0.25-0.17-0.4-0.17h-14.98c-0.77,0-1.43-0.26-1.97-0.77c-0.54-0.51-0.81-1.14-0.81-1.9s0.27-1.38,0.81-1.9
		c0.54-0.51,1.19-0.77,1.97-0.77h15.32c0.39,0,0.58-0.18,0.58-0.55v-8.52c0-0.81,0.28-1.46,0.84-1.98c0.56-0.51,1.24-0.77,2.05-0.77
		c0.81,0,1.49,0.27,2.05,0.8c0.56,0.53,0.84,1.18,0.84,1.95V683.5z"/>
</g>
<polygon class="st4" points="929.53,691.29 918.31,703.54 921.6,720.17 906.99,712.78 892.9,721.18 895.1,704.36 883.1,692.92 
	899.06,689.92 905.73,674.45 913.41,689.41 "/>
<polygon class="st4" points="998.02,691.29 986.81,703.54 990.1,720.17 975.49,712.78 961.4,721.18 963.59,704.36 951.59,692.92 
	967.55,689.92 974.23,674.45 981.9,689.41 "/>
<polygon class="st4" points="1066.52,691.29 1055.3,703.54 1058.59,720.17 1043.98,712.78 1029.89,721.18 1032.08,704.36 
	1020.08,692.92 1036.04,689.92 1042.72,674.45 1050.39,689.41 "/>
<polygon class="st4" points="1135.01,691.29 1123.79,703.54 1127.08,720.17 1112.47,712.78 1098.38,721.18 1100.57,704.36 
	1088.57,692.92 1104.54,689.92 1111.21,674.45 1118.89,689.41 "/>
<polygon class="st5" points="1203.5,691.29 1192.28,703.54 1195.57,720.17 1180.96,712.78 1166.87,721.18 1169.06,704.36 
	1157.07,692.92 1173.03,689.92 1179.7,674.45 1187.38,689.41 "/>
<path class="st3" d="M1270.68,859.11H731.07c-10.42,0-18.87-8.45-18.87-18.87v-35.48c0-10.42,8.45-18.87,18.87-18.87h539.62
	c10.42,0,18.87,8.45,18.87,18.87v35.48C1289.55,850.66,1281.1,859.11,1270.68,859.11z"/>
<g>
	<path class="st4" d="M756.56,819.59c0.62,0.4,0.93,0.97,0.93,1.7c0,0.55-0.21,1.01-0.64,1.37c-0.58,0.51-1.23,0.77-1.97,0.77
		c-0.08,0-0.14,0-0.17,0c-0.69,0-1.33-0.2-1.91-0.6c-1.73-1.25-3.68-2.56-5.84-3.96c-0.31-0.22-0.58-0.18-0.81,0.11
		c-1.97,2.71-4.88,5.04-8.73,6.98c-0.42,0.22-0.87,0.33-1.33,0.33c-0.23,0-0.48-0.04-0.75-0.11c-0.69-0.15-1.29-0.48-1.79-0.99
		c-0.42-0.4-0.59-0.88-0.49-1.43c0.1-0.55,0.4-0.93,0.9-1.15c4.36-1.98,7.29-4.49,8.79-7.53c0.04-0.11,0.02-0.22-0.06-0.33
		c-0.08-0.11-0.17-0.16-0.29-0.16h-7.98c-0.62,0-1.14-0.2-1.56-0.6c-0.42-0.4-0.64-0.89-0.64-1.46c0-0.57,0.21-1.05,0.64-1.46
		c0.42-0.4,0.94-0.6,1.56-0.6h1.45c0.04,0,0.07-0.04,0.09-0.11c0.02-0.07,0.01-0.11-0.03-0.11l-0.06-0.05
		c-0.93-0.59-1.48-1.41-1.68-2.47c-0.08-0.26-0.12-0.5-0.12-0.71c0-0.81,0.25-1.52,0.75-2.14c1.16-1.72,2.14-3.59,2.95-5.6
		c0.27-0.62,0.71-1.12,1.33-1.48c0.42-0.26,0.87-0.38,1.33-0.38c0.19,0,0.39,0.02,0.58,0.06c0.65,0.15,1.16,0.49,1.5,1.04
		c0.19,0.33,0.27,0.66,0.23,0.99c0,0.26-0.02,0.49-0.06,0.71c-0.04,0.15-0.17,0.51-0.4,1.1c-0.04,0.07-0.03,0.16,0.03,0.25
		c0.06,0.09,0.15,0.14,0.26,0.14h12.72c0.58,0,1.08,0.2,1.5,0.6c0.42,0.4,0.64,0.89,0.64,1.46c0,0.57-0.21,1.06-0.64,1.48
		c-0.42,0.42-0.93,0.63-1.5,0.63h-5.44c-0.39,0-0.58,0.18-0.58,0.55v2.36c0,0.51,0,0.9,0,1.15c0,0.15,0.05,0.28,0.14,0.38
		c0.1,0.11,0.22,0.17,0.38,0.17h6.94c0.62,0,1.14,0.2,1.56,0.6c0.42,0.4,0.64,0.89,0.64,1.46c0,0.57-0.21,1.05-0.64,1.46
		c-0.42,0.4-0.95,0.6-1.56,0.6h-8.04c-0.19,0-0.32,0.08-0.38,0.25c-0.06,0.17-0.01,0.3,0.14,0.41
		C750.46,816.21,753.16,817.65,756.56,819.59z M736.89,810.03c-0.08,0.07-0.1,0.17-0.06,0.27c0.04,0.11,0.12,0.17,0.23,0.17h6.36
		c0.38,0,0.6-0.2,0.64-0.6c0-0.26,0-0.64,0-1.15v-2.31c0-0.37-0.19-0.55-0.58-0.55h-3.01c-0.39,0-0.66,0.15-0.81,0.44
		C738.86,807.62,737.93,808.86,736.89,810.03z M743.2,848.83c-0.77,0-1.42-0.26-1.94-0.77c-0.52-0.51-0.78-1.12-0.78-1.81v-15.83
		c0-1.32,0.49-2.45,1.47-3.38c0.98-0.93,2.17-1.4,3.56-1.4h27.06c1.39,0,2.57,0.47,3.56,1.4c0.98,0.93,1.47,2.06,1.47,3.38v15.66
		c0,0.73-0.28,1.36-0.84,1.9c-0.56,0.53-1.22,0.8-2,0.8h-0.98c-0.5,0-0.94-0.16-1.3-0.49c-0.37-0.33-0.55-0.73-0.55-1.21
		c0-0.15-0.06-0.22-0.17-0.22h-25.68c-0.12,0-0.17,0.07-0.17,0.22c0,0.48-0.18,0.89-0.55,1.24c-0.37,0.35-0.8,0.52-1.3,0.52H743.2z
		 M771.94,830.37c0-0.37-0.19-0.55-0.58-0.55h-24.87c-0.39,0-0.58,0.18-0.58,0.55v3.3c0,0.37,0.19,0.55,0.58,0.55h24.87
		c0.38,0,0.58-0.18,0.58-0.55V830.37z M745.92,842.07c0,0.37,0.19,0.55,0.58,0.55h24.87c0.38,0,0.58-0.18,0.58-0.55v-3.41
		c0-0.37-0.19-0.55-0.58-0.55h-24.87c-0.39,0-0.58,0.18-0.58,0.55V842.07z M761.18,806.41c0-1.32,0.49-2.45,1.48-3.38
		c0.98-0.93,2.17-1.4,3.56-1.4h11.33c1.39,0,2.57,0.47,3.56,1.4c0.98,0.93,1.47,2.06,1.47,3.38v10.5c0,1.32-0.49,2.45-1.47,3.38
		c-0.98,0.93-2.17,1.4-3.56,1.4h-11.33c-1.39,0-2.57-0.47-3.56-1.4c-0.98-0.93-1.48-2.06-1.48-3.38V806.41z M776.51,817.07
		c0.38,0,0.58-0.18,0.58-0.55v-9.73c0-0.37-0.19-0.55-0.58-0.55h-9.6c-0.39,0-0.58,0.18-0.58,0.55v9.73c0,0.37,0.19,0.55,0.58,0.55
		H776.51z"/>
	<path class="st4" d="M817.85,807.34c0,0.37,0.19,0.55,0.58,0.55h18.68c1.39,0,2.54,0.48,3.47,1.43c0.89,0.84,1.33,1.85,1.33,3.02
		c0,0.11,0,0.22,0,0.33c-0.66,10.44-1.31,17.93-1.97,22.48c-0.69,4.84-1.68,7.95-2.95,9.34c-1.35,1.5-3.18,2.36-5.49,2.58
		c-1,0.11-2.28,0.17-3.82,0.17c-0.77,0-1.6-0.02-2.49-0.05c-0.85,0-1.6-0.28-2.26-0.85c-0.66-0.57-1.14-1.25-1.45-2.06
		c-0.23-0.62-0.16-1.19,0.2-1.7c0.37-0.51,0.88-0.75,1.53-0.71c1.81,0.07,3.8,0.11,5.96,0.11c1.23,0,2.14-0.28,2.72-0.82
		c1-0.92,1.83-3.52,2.49-7.8c0.65-4.21,1.21-10.73,1.68-19.56c0.04-0.15,0-0.27-0.12-0.38c-0.12-0.11-0.25-0.17-0.4-0.17H818.2
		c-0.39,0-0.6,0.18-0.64,0.55c-0.19,2.31-0.5,4.51-0.93,6.59c-0.42,2.27-1.16,4.72-2.2,7.34c-1.04,2.62-2.33,5.05-3.87,7.28
		c-1.54,2.24-3.57,4.49-6.07,6.76c-1.81,1.65-3.82,3.17-6.01,4.56c-0.54,0.33-1.12,0.5-1.73,0.5c-0.19,0-0.4-0.02-0.64-0.06
		c-0.85-0.15-1.58-0.51-2.2-1.1c-0.46-0.44-0.69-0.99-0.69-1.65c0-0.84,0.35-1.46,1.04-1.87c2.54-1.61,4.8-3.37,6.77-5.28
		c2.66-2.49,4.7-5.11,6.13-7.86c1.43-2.75,2.49-5.37,3.18-7.86c0.65-2.31,1.1-4.76,1.33-7.36c0.04-0.15,0-0.27-0.12-0.38
		c-0.12-0.11-0.25-0.17-0.4-0.17h-14.98c-0.77,0-1.43-0.26-1.97-0.77c-0.54-0.51-0.81-1.14-0.81-1.9s0.27-1.38,0.81-1.9
		c0.54-0.51,1.19-0.77,1.97-0.77h15.32c0.39,0,0.58-0.18,0.58-0.55v-8.52c0-0.81,0.28-1.46,0.84-1.98c0.56-0.51,1.24-0.77,2.05-0.77
		c0.81,0,1.49,0.27,2.05,0.8c0.56,0.53,0.84,1.18,0.84,1.95V807.34z"/>
</g>
<polygon class="st4" points="929.53,815.13 918.31,827.39 921.6,844.02 906.99,836.62 892.9,845.02 895.1,828.2 883.1,816.77 
	899.06,813.76 905.73,798.29 913.41,813.26 "/>
<polygon class="st4" points="998.02,815.13 986.81,827.39 990.1,844.02 975.49,836.62 961.4,845.02 963.59,828.2 951.59,816.77 
	967.55,813.76 974.23,798.29 981.9,813.26 "/>
<polygon class="st4" points="1066.52,815.13 1055.3,827.39 1058.59,844.02 1043.98,836.62 1029.89,845.02 1032.08,828.2 
	1020.08,816.77 1036.04,813.76 1042.72,798.29 1050.39,813.26 "/>
<polygon class="st4" points="1135.01,815.13 1123.79,827.39 1127.08,844.02 1112.47,836.62 1098.38,845.02 1100.57,828.2 
	1088.57,816.77 1104.54,813.76 1111.21,798.29 1118.89,813.26 "/>
<polygon class="st4" points="1203.5,815.13 1192.28,827.39 1195.57,844.02 1180.96,836.62 1166.87,845.02 1169.06,828.2 
	1157.07,816.77 1173.03,813.76 1179.7,798.29 1187.38,813.26 "/>
<path class="st3" d="M1270.68,982.95H731.07c-10.42,0-18.87-8.45-18.87-18.87V928.6c0-10.42,8.45-18.87,18.87-18.87h539.62
	c10.42,0,18.87,8.45,18.87,18.87v35.48C1289.55,974.51,1281.1,982.95,1270.68,982.95z"/>
<g>
	<path class="st4" d="M758.64,932.47c0,0.36,0.19,0.54,0.58,0.54h18.68c1.39,0,2.54,0.46,3.47,1.4c0.89,0.82,1.33,1.81,1.33,2.95
		c0,0.11,0,0.21,0,0.32c-0.66,10.2-1.31,17.51-1.97,21.95c-0.69,4.72-1.68,7.76-2.95,9.12c-1.35,1.47-3.18,2.31-5.49,2.52
		c-1,0.11-2.28,0.16-3.82,0.16c-0.77,0-1.6-0.02-2.49-0.05c-0.85,0-1.6-0.28-2.26-0.83c-0.66-0.56-1.14-1.23-1.45-2.01
		c-0.23-0.61-0.16-1.16,0.2-1.66c0.37-0.5,0.88-0.73,1.53-0.7c1.81,0.07,3.8,0.11,5.96,0.11c1.23,0,2.14-0.27,2.72-0.8
		c1-0.89,1.83-3.43,2.49-7.62c0.65-4.11,1.21-10.48,1.68-19.1c0.04-0.14,0-0.27-0.12-0.38c-0.12-0.11-0.25-0.16-0.4-0.16h-17.35
		c-0.39,0-0.6,0.18-0.64,0.54c-0.19,2.25-0.5,4.4-0.93,6.44c-0.42,2.22-1.16,4.61-2.2,7.17c-1.04,2.56-2.33,4.93-3.87,7.11
		c-1.54,2.18-3.57,4.38-6.07,6.6c-1.81,1.61-3.82,3.09-6.01,4.45c-0.54,0.32-1.12,0.48-1.73,0.48c-0.19,0-0.4-0.02-0.64-0.05
		c-0.85-0.14-1.58-0.5-2.2-1.07c-0.46-0.43-0.69-0.97-0.69-1.61c0-0.82,0.35-1.43,1.04-1.82c2.54-1.57,4.8-3.29,6.77-5.15
		c2.66-2.43,4.7-4.99,6.13-7.67c1.43-2.68,2.49-5.24,3.18-7.67c0.65-2.25,1.1-4.65,1.33-7.19c0.04-0.14,0-0.27-0.12-0.38
		s-0.25-0.16-0.4-0.16h-14.98c-0.77,0-1.43-0.25-1.97-0.75c-0.54-0.5-0.81-1.12-0.81-1.85c0-0.73,0.27-1.35,0.81-1.85
		c0.54-0.5,1.19-0.75,1.97-0.75h15.32c0.39,0,0.58-0.18,0.58-0.54v-8.32c0-0.79,0.28-1.43,0.84-1.93c0.56-0.5,1.24-0.75,2.05-0.75
		c0.81,0,1.49,0.26,2.05,0.78c0.56,0.52,0.84,1.15,0.84,1.91V932.47z"/>
	<path class="st4" d="M820.63,967.3c0,0.36,0.19,0.54,0.58,0.54h21.45c0.62,0,1.13,0.19,1.53,0.56c0.4,0.38,0.61,0.83,0.61,1.37
		c0,0.54-0.2,0.99-0.61,1.37c-0.4,0.38-0.92,0.56-1.53,0.56h-49.1c-0.58,0-1.08-0.19-1.5-0.56c-0.42-0.38-0.64-0.83-0.64-1.37
		c0-0.54,0.21-0.99,0.64-1.37c0.42-0.38,0.93-0.56,1.5-0.56h21.17c0.38,0,0.58-0.18,0.58-0.54v-1.61c0-0.36-0.19-0.54-0.58-0.54
		h-16.37c-0.54,0-0.99-0.16-1.36-0.48c-0.37-0.32-0.55-0.72-0.55-1.21s0.18-0.89,0.55-1.23c0.37-0.34,0.82-0.51,1.36-0.51h16.37
		c0.38,0,0.58-0.18,0.58-0.54v-1.4c0-0.36-0.19-0.54-0.58-0.54h-11.74c-1.39,0-2.57-0.46-3.56-1.37c-0.98-0.91-1.47-2.01-1.47-3.3
		v-4.4c0-1.29,0.49-2.39,1.47-3.3c0.98-0.91,2.17-1.37,3.56-1.37h30.53c1.39,0,2.57,0.46,3.56,1.37c0.98,0.91,1.47,2.01,1.47,3.3
		v4.4c0,1.29-0.49,2.39-1.47,3.3c-0.98,0.91-2.17,1.37-3.56,1.37h-12.32c-0.39,0-0.58,0.18-0.58,0.54v1.4
		c0,0.36,0.19,0.54,0.58,0.54h16.71c0.5,0,0.93,0.17,1.3,0.51c0.37,0.34,0.55,0.75,0.55,1.23s-0.18,0.89-0.55,1.21
		c-0.37,0.32-0.8,0.48-1.3,0.48h-16.71c-0.39,0-0.58,0.18-0.58,0.54V967.3z M842.55,939.67c0.54,0,1.01,0.19,1.42,0.56
		c0.4,0.38,0.61,0.83,0.61,1.37c0,0.54-0.2,0.98-0.61,1.32s-0.88,0.51-1.42,0.51h-48.87c-0.54,0-1.01-0.17-1.42-0.51
		s-0.61-0.78-0.61-1.32c0-0.54,0.2-0.99,0.61-1.37c0.4-0.38,0.88-0.56,1.42-0.56H842.55z M831.96,924.32c1.39,0,2.57,0.46,3.56,1.37
		c0.98,0.91,1.47,2.01,1.47,3.3v3.92c0,1.29-0.48,2.39-1.45,3.3c-0.96,0.91-2.16,1.37-3.59,1.37h-27.93c-1.39,0-2.57-0.46-3.56-1.37
		c-0.98-0.91-1.47-2.01-1.47-3.3v-3.92c0-1.29,0.49-2.39,1.47-3.3c0.98-0.91,2.17-1.37,3.56-1.37H831.96z M803.74,948.41
		c-0.39,0-0.58,0.18-0.58,0.54v1.45c0,0.36,0.19,0.54,0.58,0.54h10.99c0.38,0,0.58-0.18,0.58-0.54v-1.45c0-0.36-0.19-0.54-0.58-0.54
		H803.74z M803.17,955.82c0,0.36,0.19,0.54,0.58,0.54h10.99c0.38,0,0.58-0.18,0.58-0.54v-1.56c0-0.36-0.19-0.54-0.58-0.54h-10.99
		c-0.39,0-0.58,0.18-0.58,0.54V955.82z M830.81,929.58c0.38,0,0.58-0.18,0.58-0.54v-1.39c0-0.36-0.19-0.54-0.58-0.54H804.9
		c-0.39,0-0.58,0.18-0.58,0.54v1.39c0,0.36,0.19,0.54,0.58,0.54H830.81z M830.81,934.78c0.38,0,0.58-0.18,0.58-0.54v-1.45
		c0-0.36-0.19-0.54-0.58-0.54H804.9c-0.39,0-0.58,0.18-0.58,0.54v1.45c0,0.36,0.19,0.54,0.58,0.54H830.81z M832.6,950.93
		c0.39,0,0.58-0.18,0.58-0.54v-1.45c0-0.36-0.19-0.54-0.58-0.54h-11.39c-0.39,0-0.58,0.18-0.58,0.54v1.45
		c0,0.36,0.19,0.54,0.58,0.54H832.6z M832.6,956.36c0.39,0,0.58-0.18,0.58-0.54v-1.56c0-0.36-0.19-0.54-0.58-0.54h-11.39
		c-0.39,0-0.58,0.18-0.58,0.54v1.56c0,0.36,0.19,0.54,0.58,0.54H832.6z"/>
</g>
<polygon class="st4" points="929.53,938.98 918.31,951.23 921.6,967.86 906.99,960.47 892.9,968.87 895.1,952.05 883.1,940.61 
	899.06,937.6 905.73,922.13 913.41,937.1 "/>
<polygon class="st4" points="998.02,938.98 986.81,951.23 990.1,967.86 975.49,960.47 961.4,968.87 963.59,952.05 951.59,940.61 
	967.55,937.6 974.23,922.13 981.9,937.1 "/>
<polygon class="st4" points="1066.52,938.98 1055.3,951.23 1058.59,967.86 1043.98,960.47 1029.89,968.87 1032.08,952.05 
	1020.08,940.61 1036.04,937.6 1042.72,922.13 1050.39,937.1 "/>
<polygon class="st4" points="1135.01,938.98 1123.79,951.23 1127.08,967.86 1112.47,960.47 1098.38,968.87 1100.57,952.05 
	1088.57,940.61 1104.54,937.6 1111.21,922.13 1118.89,937.1 "/>
<polygon class="st5" points="1203.5,938.98 1192.28,951.23 1195.57,967.86 1180.96,960.47 1166.87,968.87 1169.06,952.05 
	1157.07,940.61 1173.03,937.6 1179.7,922.13 1187.38,937.1 "/>
<g>
	<path class="st4" d="M911.51,151.44l-4,11.91h-10.89l17.39-51.55h13.91l18.15,51.55h-11.64l-4.21-11.91H911.51z M927.84,142.3
		c-3.64-10.88-5.95-17.83-7.19-22.46h-0.07c-1.26,5.08-3.82,13.17-6.74,22.46H927.84z"/>
	<path class="st4" d="M952,108.76h10.65v9.56H952V108.76z M952,124.64h10.65v38.7H952V124.64z"/>
	<path class="st4" d="M972.21,163.34v-54.58h10.65v54.58H972.21z"/>
	<path class="st4" d="M1025.71,150.84c-1.33,6.45-5.83,13.4-17.29,13.4c-11.97,0-18.12-8.34-18.12-19.97
		c0-11.43,6.93-20.53,18.63-20.53c12.97,0,16.57,9.36,16.78,13.74h-10.39c-0.66-3.15-2.43-5.36-6.59-5.36
		c-4.87,0-7.62,4.29-7.62,11.8c0,8.24,2.92,11.99,7.58,11.99c3.66,0,5.62-2.17,6.57-5.08H1025.71z"/>
	<path class="st4" d="M1041.31,146.28c0.01,4.84,2.42,9.57,7.72,9.57c4.43,0,5.7-1.79,6.71-4.13h10.66
		c-1.36,4.74-5.56,12.52-17.64,12.52c-12.67,0-18.16-9.53-18.16-19.69c0-12.14,6.19-20.81,18.54-20.81c13.21,0,17.7,9.62,17.7,19.28
		c0,1.31,0,2.16-0.14,3.26H1041.31z M1056.16,139.7c-0.07-4.51-1.86-8.3-7.05-8.3c-5.1,0-7.15,3.54-7.58,8.3H1056.16z"/>
</g>
<path class="st6" d="M1115.06,441.55c-12.94,0-25.89,0-38.83,0v-48.9c16.78,2.19,33.57,4.38,50.35,6.57
	C1122.74,413.33,1118.9,427.44,1115.06,441.55z"/>
<rect x="947.79" y="281.3" class="st6" width="72.54" height="47.66"/>
<path class="st7" d="M1081.78,614.54c-60.73-0.96-121.47-1.92-182.2-2.88c5.15-10.31,15.64-27.47,35.42-41.5
	c9.18-6.51,24.75-17.26,47.36-18.9c15.24-1.1,26.77,2.43,29.44,3.29c4.49,1.44,15.12,5.34,37.98,26.3
	C1058.44,588.79,1069.72,599.97,1081.78,614.54z"/>
<path class="st6" d="M1104.39,466.2c-14.51,4.66-29.02,9.31-43.52,13.97c-4.47,9.45-6.28,18.64-6.12,26.61
	c-9.34,3.46-18.68,6.92-28.01,10.38c-3.24,9.62-0.55,19.44,6.4,24.65c4.34,3.26,10.92,5.13,16.21,3.29
	c5.84-2.04,10.33-8.68,11.92-18.03c1.51,1.77,3.25,3.15,5.15,4.06c12.04,5.79,32.22-6.3,40.54-21.78
	C1117.95,488.87,1105.34,467.74,1104.39,466.2z"/>
<path class="st8" d="M1124.16,422.51c-9.08-8.75-29.21-3.54-44.96,11.62c-5.06,4.88-9.05,10.19-11.84,15.44
	c-1.74-25.41-3.48-50.82-5.22-76.24c-25.27-45.23-75.6-69.81-123.32-61.64c-54.1,9.27-79.17,56.25-81.93,61.64
	c-5.39,14.6-4.96,25.67-3.41,33.28c1.83,9,5.33,13.76,7.25,25.48c1.56,9.48,1.1,17.54,0.43,23.01c-2.86,6.56-10.3,26.06-1.71,45.61
	c5,11.36,13.22,17.75,24.75,26.71c12.15,9.44,25.97,20.18,45.66,24.24c21.13,4.36,37.45-1.35,65.28-11.09
	c22.04-7.72,41.11-14.65,57.18-32.87c9.18-10.42,14.23-20.95,17.07-28.35c0-0.06-0.01-0.12-0.01-0.18
	c9.86,6.15,28.15,0.65,42.7-13.36C1127.84,450.64,1133.24,431.26,1124.16,422.51z"/>
<g>
	<g>
		<path d="M1120.72,434.87c-1.46-2.83-3.22-6.05-5.53-8.29c-2.29-2.22-5.16,0.74-7.05,2.16c-5.22,3.92-9.92,8.47-14.27,13.32
			c-2.2,2.46-4.32,4.99-6.39,7.57c-1.98,2.47-4.17,4.94-5.85,7.63c-1.32,2.12-2.06,4.94-0.52,7.16c1.34,1.94,3.85,2.2,5.91,1.37
			c2.8-1.14,4.11-3.77,4.33-6.67c0.28-3.69-0.67-7.59-1.17-11.22c-0.13-0.95-1.58-0.55-1.45,0.4c0.39,2.84,0.9,5.7,1.1,8.56
			c0.17,2.49-0.08,5.37-2.28,6.94c-1.83,1.31-4.79,1.47-5.63-1.06c-0.91-2.73,1.34-5.31,2.89-7.31c6.4-8.26,13.12-16.39,21.19-23.09
			c1.22-1.01,2.47-1.99,3.76-2.93c1.09-0.8,3.06-2.78,4.37-1.76c1.12,0.88,1.98,2.48,2.77,3.66c0.93,1.39,1.76,2.84,2.53,4.33
			C1119.86,436.48,1121.16,435.72,1120.72,434.87L1120.72,434.87z"/>
	</g>
</g>
<g>
	<g>
		<path d="M1095.52,443.42c3.4,0.8,6.47,2.84,8.39,5.77c0.53,0.8,1.83,0.05,1.3-0.76c-2.13-3.25-5.51-5.57-9.29-6.46
			C1094.98,441.76,1094.58,443.2,1095.52,443.42L1095.52,443.42z"/>
	</g>
</g>
<g>
	<path d="M1023.75,443.6c-6.78,3.4-15.98,7.21-27.31,9.86c-11.74,2.74-22.06,3.37-29.87,3.29c-1.24-3.19-2.53-7.52-2.99-12.74
		c-0.7-7.95,0.82-14.44,2.13-18.49c1.1-2.38,7.9-16.42,23.47-20.55c14.99-3.97,35.21,2.02,39.68,16.03
		C1032.18,431.38,1025.33,441.39,1023.75,443.6z"/>
	<path class="st9" d="M1023.75,447.71c-6.78,3.4-15.98,7.21-27.31,9.86c-11.74,2.74-22.06,3.37-29.87,3.29
		c-1.24-3.19-2.53-7.52-2.99-12.74c-0.7-7.95,0.82-14.44,2.13-18.49c1.1-2.38,7.9-16.42,23.47-20.55
		c14.99-3.97,35.21,2.02,39.68,16.03C1032.18,435.49,1025.33,445.5,1023.75,447.71z"/>
</g>
<ellipse class="st10" cx="999.64" cy="434.77" rx="18.99" ry="18.29"/>
<ellipse cx="999.64" cy="434.77" rx="13.01" ry="12.53"/>
<ellipse class="st11" cx="989.82" cy="428.4" rx="8.32" ry="6.16"/>
<g>
	<g>
		<g>
			<path d="M1016.26,408.01c0.54-1.18,1.07-2.37,1.61-3.55c0.17-0.38,0.27-0.74,0.15-1.16c-0.1-0.35-0.36-0.73-0.69-0.9
				c-0.35-0.18-0.77-0.28-1.16-0.15c-0.35,0.11-0.74,0.34-0.9,0.69c-0.54,1.18-1.07,2.37-1.61,3.55c-0.17,0.38-0.27,0.74-0.15,1.16
				c0.1,0.35,0.36,0.73,0.69,0.9c0.35,0.18,0.77,0.28,1.16,0.15C1015.71,408.58,1016.1,408.36,1016.26,408.01L1016.26,408.01z"/>
		</g>
	</g>
	<g>
		<g>
			<path d="M1021.86,414.04c3.52-1.23,6.56-3.57,8.56-6.73c0.42-0.66,0.16-1.68-0.54-2.05c-0.74-0.39-1.6-0.17-2.05,0.54
				c-0.21,0.33-0.44,0.66-0.67,0.98c0.12-0.16,0.08-0.1-0.02,0.02c-0.06,0.08-0.12,0.15-0.19,0.23c-0.13,0.15-0.26,0.3-0.39,0.45
				c-0.54,0.59-1.12,1.13-1.74,1.63c-0.13,0.1-0.08,0.06,0.02-0.01c-0.1,0.07-0.19,0.14-0.29,0.21c-0.16,0.12-0.33,0.23-0.49,0.34
				c-0.32,0.21-0.64,0.41-0.98,0.59c-0.35,0.2-0.71,0.38-1.08,0.54c-0.09,0.04-0.18,0.08-0.28,0.12c0.19-0.08,0.11-0.05-0.03,0.01
				c-0.21,0.08-0.41,0.16-0.62,0.23c-0.74,0.26-1.31,1.04-1.05,1.85C1020.25,413.72,1021.07,414.31,1021.86,414.04L1021.86,414.04z"
				/>
		</g>
	</g>
	<g>
		<g>
			<path d="M1029.47,417.93c1.56-0.85,3.12-1.69,4.67-2.54c0.69-0.38,0.97-1.39,0.54-2.05c-0.45-0.7-1.31-0.94-2.05-0.54
				c-1.56,0.85-3.12,1.69-4.67,2.54c-0.69,0.38-0.97,1.39-0.54,2.05C1027.87,418.09,1028.73,418.33,1029.47,417.93L1029.47,417.93z"
				/>
		</g>
	</g>
	<g>
		<g>
			<path d="M1032.41,427.09c1.6-0.77,3.2-1.54,4.81-2.32c0.32-0.16,0.6-0.56,0.69-0.9c0.1-0.36,0.05-0.84-0.15-1.16
				c-0.47-0.73-1.29-0.9-2.05-0.54c-1.6,0.77-3.2,1.54-4.81,2.32c-0.32,0.16-0.6,0.56-0.69,0.9c-0.1,0.36-0.05,0.84,0.15,1.16
				C1030.83,427.28,1031.65,427.45,1032.41,427.09L1032.41,427.09z"/>
		</g>
	</g>
</g>
<path class="st6" d="M1024.6,395.94c-2.79-3-10.01-9.9-21.76-12.74c-16.87-4.07-30.44,3.3-33.28,4.93
	c-2.31,0.85-4.86-0.36-5.55-2.47c-0.63-1.93,0.45-4.14,2.56-4.93c3.07-2.28,11.85-8.16,23.89-7.81
	C1004.72,373.34,1017.85,382.31,1024.6,395.94z"/>
<path class="st6" d="M889.76,393.06c-2.68-0.9-6.74-1.82-11.52-1.23c-13.19,1.62-20.02,13.22-20.91,14.79l0,0
	c3.81-13.8,13.96-22.78,23.89-22.6c2.02,0.04,6.22,0.49,11.09,4.11c0.08,0.25,0.53,1.8-0.43,3.29
	C891.18,392.52,890.11,392.94,889.76,393.06z"/>
<g>
	<path d="M915.37,458.4c-7.53-0.23-16.33-1.01-26.03-2.88c-7.68-1.48-14.54-3.37-20.48-5.34c-3.86-14.1-1.35-27.46,6.4-32.05
		c11.08-6.56,31.8,5.43,38.4,20.96C916.92,446.75,916.22,454.06,915.37,458.4z"/>
	<path class="st9" d="M915.37,462.5c-7.53-0.23-16.33-1.01-26.03-2.88c-7.68-1.48-14.54-3.37-20.48-5.34
		c-3.86-14.1-1.35-27.46,6.4-32.05c11.08-6.56,31.8,5.43,38.4,20.96C916.92,450.86,916.22,458.17,915.37,462.5z"/>
</g>
<g>
	<g>
		<path d="M869.23,415.13c1.33,1.74,2.65,3.47,3.98,5.21c0.19,0.24,0.36,0.43,0.67,0.52c0.27,0.07,0.63,0.04,0.87-0.11
			c0.46-0.3,0.79-1.04,0.4-1.54c-1.33-1.74-2.65-3.47-3.98-5.21c-0.19-0.24-0.36-0.43-0.67-0.52c-0.27-0.07-0.63-0.04-0.87,0.11
			C869.18,413.89,868.85,414.63,869.23,415.13L869.23,415.13z"/>
	</g>
</g>
<g>
	<g>
		<path d="M862.86,422.59c2.63,0.32,5.23,0.87,7.76,1.63c0.58,0.17,1.23-0.21,1.38-0.79c0.16-0.6-0.2-1.21-0.79-1.38
			c-2.74-0.81-5.53-1.37-8.36-1.71c-0.6-0.07-1.13,0.57-1.13,1.13C861.74,422.13,862.25,422.52,862.86,422.59L862.86,422.59z"/>
	</g>
</g>
<g>
	<g>
		<path d="M860.25,429.06c2.38-0.02,4.58,0.25,6.88,0.86c0.57,0.15,1.25-0.19,1.38-0.79c0.13-0.59-0.18-1.22-0.79-1.38
			c-2.43-0.65-4.96-0.97-7.47-0.94c-0.59,0.01-1.15,0.51-1.13,1.13C859.15,428.54,859.62,429.06,860.25,429.06L860.25,429.06z"/>
	</g>
</g>
<g>
	<g>
		<path d="M862.03,434.77c1.16,0.16,2.32,0.31,3.47,0.47c0.26,0.04,0.62-0.15,0.8-0.33c0.2-0.2,0.34-0.52,0.33-0.8
			c-0.01-0.29-0.11-0.59-0.33-0.8c-0.08-0.06-0.15-0.12-0.23-0.18c-0.18-0.1-0.36-0.15-0.57-0.15c-1.16-0.16-2.32-0.31-3.47-0.47
			c-0.26-0.04-0.62,0.15-0.8,0.33c-0.2,0.2-0.34,0.52-0.33,0.8c0.01,0.29,0.11,0.59,0.33,0.8c0.08,0.06,0.15,0.12,0.23,0.18
			C861.64,434.72,861.83,434.77,862.03,434.77L862.03,434.77z"/>
	</g>
</g>
<ellipse class="st10" cx="890.62" cy="442.78" rx="17.07" ry="16.44"/>
<ellipse cx="892.96" cy="441.75" rx="11.73" ry="11.3"/>
<ellipse transform="matrix(0.8847 -0.4662 0.4662 0.8847 -100.056 462.5665)" class="st11" cx="885.02" cy="433.54" rx="6.95" ry="4.44"/>
<path class="st6" d="M1087.94,360.98c-11.53-11.18-25.98-19.07-40.42-26.49c-43.11-22.15-89.02-41.65-137.75-45.07
	c-10.48-0.73-20.22-0.94-30.9,1.93c-6.6,1.78-13.47,5.28-27.22,12.28c-13.98,7.12-20.97,10.69-26.11,14.85
	c-7.36,5.96-8.31,8.9-19.63,21.02c-7.38,7.9-13.79,13.94-17.94,17.72c6.36-2.83,12.9-5.3,19.57-7.37
	c-8.56,22.47-8.33,47.94,0.64,70.26c4.63-8.9,9.39-17.96,16.72-24.97c1.08,3.36,4.18,11.35,12.37,18.06
	c8.77,7.19,18.19,8.66,21.76,9.04c-0.78-14.78-1.57-29.56-2.35-44.35c0.84-0.31,1.68-0.62,2.51-0.92
	c27.06-9.92,54.12-19.84,81.18-29.77c-12.5,13.15-25.06,26.36-35.3,41.21c34.79-17.42,70.91-32.35,107.99-44.64
	c2.69,8.75,5.38,17.5,8.07,26.25c2.88,9.36,5.83,18.87,11.33,27.08c7.19,10.72,18.14,18.38,29.25,25.46
	c0.58,8.09,0.65,17.54-0.42,28.03c-1.44,14.09-4.54,26.03-7.68,35.34c8.19-18.25,16.38-36.49,24.57-54.74
	c0.54,0.13,1.08,0.25,1.62,0.34c7.59,1.24,15.52-2.27,20.47-7.96c4.94-5.69,7.15-13.25,7.3-20.66
	C1107.89,387.16,1099.47,372.15,1087.94,360.98z"/>
<path class="st12" d="M1122.74,414.43c-5.12,0-10.24,0-15.36,0c-48.23-71.74-110.55-116.78-158.3-118.34
	c-27.29-0.89-58.03,5.75-58.03,5.75c-25.26,5.46-45.23,13.8-58.88,20.55c4.87-6.54,13.94-16.88,28.59-25.07
	c20.72-11.58,40.64-12.18,49.5-11.92c13.31-8.63,38.92-22.58,73.39-25.07c4.11-0.3,95.46-5.48,132.28,59.99
	C1138.69,360.84,1126.41,403.17,1122.74,414.43z"/>
<g>
	<g>
		<path d="M934.34,281.49c3.91-6.32,9.65-11.33,16.35-14.51c0.87-0.41,0.11-1.71-0.76-1.3c-6.93,3.29-12.85,8.52-16.89,15.04
			C932.53,281.56,933.83,282.31,934.34,281.49L934.34,281.49z"/>
	</g>
</g>
<g>
	<g>
		<path d="M1060.71,276.2c9.05,9.94,16.28,21.51,21.29,33.99c4.96,12.37,7.79,25.59,8.18,38.91c0.22,7.5-0.32,15.02-1.66,22.41
			c-0.17,0.94,1.27,1.35,1.45,0.4c2.4-13.31,2.3-26.98-0.18-40.27c-2.48-13.33-7.33-26.22-14.25-37.89
			c-3.94-6.65-8.57-12.89-13.78-18.61C1061.12,274.42,1060.07,275.48,1060.71,276.2L1060.71,276.2z"/>
	</g>
</g>
<g>
	<g>
		<path d="M868.88,293.23c1.97-0.25,3.76-1.33,5.68-1.82c2.15-0.55,4.31-1,6.44-1.58c4.58-1.25,9.31-2.11,13.98-2.96
			c9.34-1.7,18.77-2.86,28.25-3.41c18.89-1.11,37.86,0.18,56.47,3.56c9.18,1.67,18.36,3.79,27.26,6.61
			c4.43,1.4,8.84,2.87,13.19,4.51c2.2,0.83,4.39,1.7,6.55,2.62c1.02,0.43,2.03,0.88,3.03,1.34c1.02,0.47,2.08,1.16,3.17,1.44
			c0.36,0.09,0.74,0.05,1.11,0.1c0.61,0.08,1.19,0.41,1.75,0.67c1.12,0.51,2.24,1.03,3.35,1.57c1.98,0.95,3.93,1.94,5.89,2.94
			c4,2.05,7.97,4.15,11.87,6.39c7.27,4.19,14.32,8.77,21.1,13.72c13.46,9.84,25.83,21.17,36.82,33.71c1.38,1.58,2.74,3.17,4.08,4.79
			c0.62,0.74,1.67-0.32,1.06-1.06c-10.73-12.93-22.86-24.66-36.15-34.93c-13.74-10.62-28.66-19.56-44.31-27.04
			c-1.69-0.81-3.64-2.1-5.52-2.26c-1.22-0.11-2.33-0.82-3.45-1.32c-1.08-0.49-2.16-0.97-3.25-1.43c-4.21-1.79-8.49-3.39-12.82-4.87
			c-8.87-3.03-17.87-5.58-27.05-7.51c-18.68-3.92-37.77-5.87-56.86-5.35c-9.26,0.25-18.51,1.07-27.68,2.42
			c-9.39,1.38-18.58,3.51-27.81,5.69c-1.05,0.25-2.1,0.5-3.1,0.89c-1,0.39-1.96,0.95-3.04,1.09
			C867.93,291.85,867.92,293.35,868.88,293.23L868.88,293.23z"/>
	</g>
</g>
<g>
	<g>
		<path d="M934.06,283.93c7.89-1.11,15.75,0.83,23.15,3.45c7.22,2.55,14.3,5.57,21.35,8.55c13.59,5.75,26.99,12.04,39.6,19.73
			c12.73,7.76,24.26,17.12,35.12,27.31c10.73,10.07,21.09,20.61,31.21,31.29c10.95,11.57,21.34,23.89,28.54,38.19
			c0.43,0.86,1.73,0.1,1.3-0.76c-6.53-12.95-15.68-24.33-25.47-34.95c-10.03-10.88-20.53-21.43-31.2-31.68
			c-10.82-10.39-22.24-20.17-34.89-28.29c-12.68-8.13-26.27-14.74-40.08-20.7c-7.83-3.38-15.73-6.72-23.74-9.65
			c-8.1-2.97-16.62-5.15-25.29-3.93C932.71,282.61,933.11,284.06,934.06,283.93L934.06,283.93z"/>
	</g>
</g>
<g>
	<g>
		<g>
			<path d="M925.49,456.89c-0.83,10.85-11.84,16.47-20.88,19.64c-0.47,0.16-0.82,0.88-0.33,1.25c4.65,3.61,9.57,6.83,14.75,9.63
				c0.85,0.46,1.61-0.83,0.76-1.3c-5.06-2.74-9.9-5.87-14.45-9.4c-0.11,0.42-0.22,0.84-0.33,1.25c9.76-3.42,21.09-9.48,21.98-21.09
				C927.07,455.92,925.56,455.93,925.49,456.89L925.49,456.89z"/>
		</g>
	</g>
	<g>
		<g>
			<path d="M929.34,486.22c3.72-0.85,7.53-1.17,11.34-0.97c0.96,0.05,0.96-1.45,0-1.5c-3.94-0.2-7.89,0.15-11.74,1.02
				C928,484.99,928.4,486.44,929.34,486.22L929.34,486.22z"/>
		</g>
	</g>
</g>
<g>
	<g>
		<path d="M906.7,514.73c18.64,4.71,38.47,4.42,56.98-0.78c5.13-1.44,10.14-3.27,15.01-5.45c0.88-0.39,0.12-1.69-0.76-1.3
			c-17.16,7.68-36.31,10.67-55.01,8.85c-5.34-0.52-10.62-1.46-15.82-2.77C906.16,513.05,905.76,514.49,906.7,514.73L906.7,514.73z"
			/>
	</g>
</g>
<g>
	<g>
		<path d="M931.89,530.77c4.57-0.24,9.15-0.48,13.72-0.73c0.96-0.05,0.97-1.55,0-1.5c-4.57,0.24-9.15,0.48-13.72,0.73
			C930.93,529.32,930.92,530.82,931.89,530.77L931.89,530.77z"/>
	</g>
</g>
<g>
	<path class="st13" d="M966.92,555.36c-13.14,2.87-22.01,9.38-24.06,10.86c-4.45,3.23-11.26,9.24-16.77,19.85
		c4.5-1.48,8.99-2.97,13.49-4.45c1.2-0.4,2.54-0.79,3.7-0.28c0.91,0.4,1.48,1.26,2,2.08c3.53,5.54,7.07,11.09,10.6,16.63
		c7.19-6.9,14.93-13.27,23.11-19.05c0.88-0.62,1.89-1.26,2.96-1.1c0.9,0.14,1.6,0.81,2.23,1.44c3.19,3.22,6.38,6.43,9.58,9.65
		c8.76-7.45,17.11-15.33,25.01-23.61c0.69-0.72,1.4-1.49,1.61-2.45c0.39-1.73-0.78-3.32-1.32-4.04c-5-6.73-15.37-8.4-15.37-8.4
		c-4.47-0.72-6.81-0.21-15.79,0.82C970.57,555.3,972.22,554.2,966.92,555.36z"/>
</g>
<path class="st8" d="M985.34,569.34c-9.53,8.22-19.06,16.44-28.59,24.65c2.84-18.63,5.69-37.26,8.53-55.88
	c10.24-0.82,20.48-1.64,30.72-2.47C992.46,546.88,988.9,558.11,985.34,569.34z"/>
</svg>
