<?xml version="1.0" encoding="utf-8"?>
<!-- Generator: Adobe Illustrator 23.0.5, SVG Export Plug-In . SVG Version: 6.00 Build 0)  -->
<svg version="1.1" id="圖層_1" xmlns="http://www.w3.org/2000/svg" xmlns:xlink="http://www.w3.org/1999/xlink" x="0px" y="0px"
	 viewBox="0 0 1920 1080" style="enable-background:new 0 0 1920 1080;" xml:space="preserve">
<style type="text/css">
	.st0{fill:#FFC200;}
	.st1{fill:#FFFFFF;}
	.st2{fill:#AE845D;}
	.st3{fill:#E3B36C;}
	.st4{fill:#D18F62;}
	.st5{fill:#322C26;}
	.st6{fill:#FEB487;}
	.st7{fill:#FFFEFF;stroke:#000000;stroke-miterlimit:10;}
	.st8{fill:#7E5C42;}
	.st9{fill:#FDFFFE;}
	.st10{fill:#F4E4BD;}
	.st11{fill:#544118;stroke:#000000;stroke-miterlimit:10;}
	.st12{fill:#FFC200;stroke:#FFC200;stroke-width:0.5;stroke-miterlimit:10;}
	.st13{fill:#FFFFFF;stroke:#FCFCFC;stroke-width:0.5;stroke-miterlimit:10;}
	.st14{fill:#FFFFFF;stroke:#FFFFFF;stroke-width:0.5;stroke-miterlimit:10;}
</style>
<g>
	<rect x="574.23" y="21.25" class="st0" width="838.27" height="1026.25"/>
	<path d="M1412,21.75V1047H574.73V21.75H1412 M1413,20.75H573.73V1048H1413V20.75L1413,20.75z"/>
</g>
<g>
	<rect x="701.82" y="220.26" class="st1" width="590.3" height="388.49"/>
	<path d="M1291.62,220.76v387.49h-589.3V220.76H1291.62 M1292.62,219.76h-591.3v389.49h591.3V219.76L1292.62,219.76z"/>
</g>
<path class="st2" d="M1131.88,725.63H804.64c5.22-46.24,10.43-92.48,15.65-138.71c1.79-7.12,20.65-77.42,85.4-98.44
	c69.58-22.59,171.06,18.6,209.9,110.19C1121.01,640.98,1126.45,683.3,1131.88,725.63z"/>
<g>
	<path class="st3" d="M905.68,488.44c-8.21,0.18-15.16,5.96-17.89,12.61c-2.73,6.64-2,13.95-0.55,20.88
		c2.4,11.41,6.66,22.46,10.15,33.66c11.5,36.93,14.63,75.78,30.23,111.59c19.76-13.66,24.5-38.97,44.39-52.5
		c10.52,14.13,21.05,28.27,31.57,42.4c5.25-11.05,10.51-22.1,15.76-33.15c2.2-4.63,6.69-10.23,12.19-8.55
		c3.4,1.04,4.83,4.4,5.85,7.36c4.09,11.9,8.18,23.8,12.27,35.7c11.48-8.63,13.86-23.18,12.92-36.25
		c-1.15-15.95-6.04-31.51-10.91-46.93c-1.44-4.55-2.89-9.15-5.41-13.34c-2.2-3.66-5.17-6.94-8.16-10.17
		c-17.39-18.76-36.58-36.79-60.41-49.31c-23.83-12.52-52.97-19.08-80.14-13.5"/>
</g>
<path class="st4" d="M1000.85,647.32c-2.82-4.29-5.65-8.58-8.47-12.86c-2.61-10.25-5.22-20.51-7.82-30.76
	c-14.17-7.99-36.62-22.9-55.41-47.54c-14.52-19.04-21.7-37.13-25.42-49.78c1.96-16.97,3.91-33.93,5.87-50.9
	c3.04,0.75,6.08,1.49,9.13,2.24c4.3,15.67,18.16,56.55,62.58,87.26c20.14,13.92,40.39,21.49,55.41,25.73
	c-14.64,15.53-20.03,28.35-22.16,37.48c-0.87,3.72-2.05,10.22-5.22,19.58C1006.45,636.23,1003.19,642.94,1000.85,647.32z"/>
<g>
	<path class="st5" d="M894.38,382.95c0.34-16.39,0.69-32.79,1.03-49.18c0.21-9.81-0.78-21.53-10.69-26.42
		c7.47-4.94,14.64-10.22,21.48-15.8c-5.25-0.39-10.5-0.78-15.75-1.17c8.17-11.09,25.57-13.19,40.67-15.27
		c1.35-0.19,2.78-0.41,3.77-1.22c1.3-1.06,1.43-2.76,1.6-4.29c0.76-6.87,3.91-13.53,8.95-18.9c1.11,4.46,1.93,8.96,2.46,13.5
		c12.9-11.78,29.29-20.71,47.2-25.71c-0.15,3.18-0.75,6.33-1.77,9.39c16.99-2,33.31-8.03,46.69-17.24c1.2,3.91,2.39,7.81,3.59,11.72
		c0.31,1.02,0.67,2.1,1.59,2.79c1.25,0.94,3.11,0.86,4.76,0.68c7.81-0.84,15.47-2.77,22.58-5.68c-0.15,4.49-1.4,8.95-3.63,13.01
		c22.26,0.47,42.05-11.29,60.04-22.55c3.54,10.52,5.51,21.44,5.84,32.38c0.04,1.45,0.34,3.26,1.94,3.73
		c0.93,0.27,1.95-0.05,2.85-0.4c5.1-2,9.63-5.06,13.09-8.83c3.42,14.35,6.84,29.17,3.46,43.52c-1.7,7.21-5.07,14.07-6.68,21.29
		c-1.38,6.22-1.42,12.6-2.42,18.88c-1.54,9.68-5.32,18.98-9.08,28.2c-0.56,1.38-1.16,2.8-2.35,3.84c-1.73,1.49-4.33,1.88-6.77,2.12
		c-9.49,0.95-19.08,0.88-28.64,0.8c-33.38-0.25-66.76-0.51-100.14-0.76c-10.64-0.08-22.19,0.09-30.56,5.73
		c-7.93,5.35-11.02,14.3-16.84,21.38c-6.61,8.04-17.08,13.66-28.39,15.25c-2.33,0.33-4.76,0.48-7.02-0.11
		c-2.8-0.74-5.01-2.55-6.98-4.41c-9.34-8.83-15.47-20.12-17.35-31.94"/>
</g>
<path class="st6" d="M1083.64,583.56c-11.11,1.51-27.52,2.78-46.94,0.56c-11.68-1.34-79.67-10.25-107.56-55.37
	c-11.55-18.69-11.26-35.57-10.43-61.53c0.78-24.5,6.1-64.4,31.94-111.31c-0.22-13.05-0.43-26.1-0.65-39.15
	c6.34-6.07,19.45-16.65,39.11-20.14c31.13-5.51,65.67,9.06,86.7,36.92c12.39-3.36,24.77-6.71,37.16-10.07
	c4.11,5.76,9.55,14.66,13.04,26.29c3.43,11.44,1.49,13.95,5.21,29.09c4.06,16.51,7.29,17.33,8.47,29.09
	c0.79,7.89-0.52,8.97-1.3,24.05c-1.05,20.26,1.23,20.11,0,31.32c-1.65,15.11-5.61,13.75-12.39,39.15
	c-4.48,16.78-3.46,20.06-8.47,31.88c-4.14,9.77-8.82,16.96-12.39,22.37C1099.88,564.73,1092.89,573.95,1083.64,583.56z"/>
<path class="st5" d="M1060.17,379.4c-5.04-0.22-12.55-0.77-21.51-2.24c-17.77-2.92-23.37-6.55-33.9-6.71
	c-7.18-0.11-17.42,1.39-29.99,8.95c1.11-3.09,13.65-36.92,31.29-36.92c4.38,0,9.87,2.8,20.86,8.39c8.55,4.35,15.2,8.4,19.56,11.19
	c3.37,0.19,8.65,0.28,14.99-0.56c8.15-1.07,11.85-2.85,13.04-1.68C1075.72,361.02,1074.21,365.2,1060.17,379.4z"/>
<path class="st5" d="M1135.79,400.1c-2.34-2.86-9.72-11.11-23.47-15.1c-12.97-3.77-24.03-1.54-28.03-0.56
	c2.17-5.03,4.35-10.07,6.52-15.1c4.07-0.82,11.98-1.93,21.51,0c10.21,2.07,17.03,6.56,20.21,8.95c0.78,0.55,7.81,5.64,7.17,13.42
	C1139.36,395.89,1136.96,398.84,1135.79,400.1z"/>
<g>
	<path d="M1036.7,410.16c-8.4,0.48-19.39,0.38-31.94-1.68c-9.53-1.56-17.64-3.87-24.12-6.15c-0.15-1.18-0.19-3.02,0.65-5.03
		c1.75-4.2,6.11-6.21,8.47-7.27c7.49-3.34,15.13-2.52,22.16-1.68c5.39,0.64,13.55,2.16,22.82,6.15c0.31,0.21,6.17,4.24,5.22,10.07
		C1039.5,407.43,1037.61,409.35,1036.7,410.16z"/>
	<path class="st7" d="M1036.7,411.84c-8.4,0.48-19.39,0.38-31.94-1.68c-9.53-1.56-17.64-3.87-24.12-6.15
		c-0.15-1.18-0.19-3.02,0.65-5.03c1.75-4.2,6.11-6.21,8.47-7.27c7.49-3.34,15.13-2.52,22.16-1.68c5.39,0.64,13.55,2.16,22.82,6.15
		c0.31,0.21,6.17,4.24,5.22,10.07C1039.5,409.11,1037.61,411.03,1036.7,411.84z"/>
	<ellipse class="st8" cx="1012.59" cy="400.66" rx="11.73" ry="10.07"/>
	<ellipse cx="1014.25" cy="401.49" rx="6.81" ry="5.87"/>
	<ellipse class="st9" cx="1009.12" cy="398.51" rx="4.35" ry="2.89"/>
</g>
<g>
	<path d="M1122.12,417.35c-6.67,0.86-15.46,1.32-25.65,0.06c-7.74-0.96-14.4-2.68-19.75-4.46c-0.21-1.08-0.39-2.78,0.12-4.67
		c1.07-3.96,4.39-6.03,6.2-7.13c5.72-3.45,11.89-3.08,17.57-2.66c4.36,0.32,11,1.31,18.71,4.52c0.26,0.18,5.26,3.6,4.96,9.01
		C1124.13,414.69,1122.78,416.55,1122.12,417.35z"/>
	<path class="st7" d="M1122.25,418.89c-6.67,0.86-15.46,1.32-25.65,0.06c-7.74-0.96-14.4-2.68-19.75-4.46
		c-0.21-1.08-0.39-2.78,0.12-4.67c1.07-3.96,4.39-6.03,6.2-7.13c5.72-3.45,11.89-3.08,17.57-2.66c4.36,0.32,11,1.31,18.71,4.52
		c0.26,0.18,5.26,3.6,4.96,9.01C1124.26,416.23,1122.91,418.1,1122.25,418.89z"/>
	
		<ellipse transform="matrix(0.5004 -0.8658 0.8658 0.5004 195.7931 1158.9097)" class="st8" cx="1102.1" cy="409.8" rx="9.24" ry="9.46"/>
	<ellipse transform="matrix(0.5908 -0.8068 0.8068 0.5908 120.3497 1058.2747)" cx="1103.5" cy="410.49" rx="5.38" ry="5.5"/>
	<ellipse transform="matrix(0.9995 -0.031 0.031 0.9995 -12.1283 34.296)" class="st9" cx="1099.16" cy="408" rx="3.49" ry="2.67"/>
</g>
<g>
	<g>
		<path d="M1090.56,359.73c-0.43,3.85-1.03,7.7-2.14,11.42c-1.04,3.49-2.64,6.71-4.48,9.85c-3.5,5.95-7.48,11.68-8.62,18.64
			c-2.45,14.89,5.5,28.73,10,42.4c2.21,6.71,4.13,14.4,2.62,21.47c-0.69,3.24-2.34,6.1-5.16,7.93c-2.72,1.76-5.96,2.78-9.12,3.4
			c-6.38,1.25-13.2,0.65-19.26-1.72c-3.04-1.19-5.6-2.96-8.27-4.79c-2.52-1.73-5.13-2.52-8.15-2.82c-3.18-0.31-6.56-0.07-9.62-1.12
			c-3.79-1.3-5.31-5.12-3.69-8.74c1.52-3.39,4.76-6.09,7.8-8.09c3.32-2.19,7-3.71,10.86-4.64c0.94-0.23,0.54-1.67-0.4-1.45
			c-6.67,1.61-13.36,5.1-17.72,10.53c-1.91,2.38-3.24,5.35-2.52,8.45c0.66,2.87,3.01,4.73,5.74,5.53c2.91,0.85,6.02,0.73,9.01,0.98
			c1.58,0.13,3.18,0.35,4.68,0.89c1.78,0.64,3.29,1.79,4.81,2.88c5.36,3.83,11.77,5.86,18.33,6.19c6.43,0.32,14.05-0.87,19.28-4.88
			c5.52-4.23,5.85-11.91,5.09-18.24c-1.89-15.89-11.87-29.64-13.12-45.67c-0.31-3.98-0.02-8,1.14-11.83
			c1.12-3.67,3.04-7.01,5.02-10.27c1.9-3.14,3.9-6.24,5.4-9.6c1.59-3.53,2.59-7.28,3.24-11.1c0.32-1.86,0.56-3.73,0.77-5.6
			C1092.17,358.77,1090.66,358.78,1090.56,359.73L1090.56,359.73z"/>
	</g>
</g>
<g>
	<g>
		<path d="M1010.06,513.59c18.54,5.71,37.94,8.61,57.33,8.88c5.64,0.08,11.28-0.08,16.9-0.45c0.96-0.06,0.97-1.56,0-1.5
			c-19.45,1.29-39.1-0.09-58.15-4.25c-5.28-1.16-10.52-2.53-15.69-4.12C1009.53,511.86,1009.14,513.31,1010.06,513.59
			L1010.06,513.59z"/>
	</g>
</g>
<ellipse transform="matrix(0.8564 -0.5163 0.5163 0.8564 -87.5612 525.1364)" class="st6" cx="900.28" cy="419.98" rx="25.71" ry="47.36"/>
<g>
	<g>
		<g>
			<path d="M884.1,388.82c6.64,3.39,13.01,7.82,17.98,13.42c2.33,2.62,4.44,5.8,4.77,9.37c0.35,3.84-1.45,7.45-2.63,11
				c-1.41,4.24-1.73,8.64-0.96,13.04c0.17,0.95,1.61,0.55,1.45-0.4c-0.77-4.37-0.27-8.68,1.18-12.86c1.22-3.54,2.85-7.13,2.46-10.97
				c-0.72-7.11-7.05-12.68-12.33-16.81c-3.48-2.72-7.22-5.08-11.15-7.09C884,387.08,883.24,388.38,884.1,388.82L884.1,388.82z"/>
		</g>
	</g>
	<g>
		<g>
			<path d="M907.66,409.06c-6.6,0.17-13.98,3.8-15.46,10.79c-0.69,3.27,0.14,6.49,2.17,9.11c1.25,1.61,2.76,3.04,4.25,4.44
				c1.4,1.32,2.87,2.52,4.56,3.44c0.85,0.46,1.61-0.83,0.76-1.3c-2.87-1.57-5.33-4.05-7.5-6.46c-2.24-2.48-3.47-5.48-2.78-8.84
				c1.3-6.34,8.07-9.53,14.01-9.69C908.62,410.54,908.63,409.04,907.66,409.06L907.66,409.06z"/>
		</g>
	</g>
</g>
<g>
	<g>
		<path d="M968.29,484.79c13.84-13.96,30.54-24.9,48.59-32.63c5.35-2.29,10.83-4.28,16.39-6c0.92-0.28,0.53-1.73-0.4-1.45
			c-19.3,5.96-37.56,15.33-53.35,27.96c-4.3,3.44-8.41,7.13-12.29,11.05C966.55,484.41,967.61,485.47,968.29,484.79L968.29,484.79z"
			/>
	</g>
</g>
<g>
	<g>
		<path d="M1088.04,449.93c11.17,10.84,19.29,24.79,22.33,40.12c0.83,4.21,1.26,8.48,1.3,12.77c0.01,0.96,1.51,0.97,1.5,0
			c-0.13-15.68-5.66-30.98-14.96-43.56c-2.74-3.71-5.79-7.18-9.1-10.39C1088.41,448.19,1087.35,449.25,1088.04,449.93
			L1088.04,449.93z"/>
	</g>
</g>
<g>
	<path class="st10" d="M610.05,1014.14V54.61h766.64v959.53H610.05z M701.22,610.52h592.3V220.04h-592.3V610.52z"/>
	<path d="M1376.19,55.11v958.53H610.55V55.11H1376.19 M700.72,611.02h1h591.3h1v-1V220.54v-1h-1h-591.3h-1v1v389.49V611.02
		 M1377.19,54.11H609.55v960.53h767.64V54.11L1377.19,54.11z M701.72,610.02V220.54h591.3v389.49H701.72L701.72,610.02z"/>
</g>
<path class="st11" d="M1286.36,178.64H703.6c-16.84,0-30.5-13.66-30.5-30.5v-33.66c0-16.84,13.66-30.5,30.5-30.5h582.75
	c16.84,0,30.5,13.66,30.5,30.5v33.66C1316.86,164.98,1303.2,178.64,1286.36,178.64z"/>
<path class="st11" d="M1274.55,729.51H719.39c-10.42,0-18.87-8.45-18.87-18.87v-35.2c0-10.42,8.45-18.87,18.87-18.87h555.16
	c10.42,0,18.87,8.45,18.87,18.87v35.2C1293.41,721.06,1284.97,729.51,1274.55,729.51z"/>
<g>
	<path class="st12" d="M746.55,690.53c0,0.88-0.32,1.62-0.95,2.22c-0.63,0.6-1.45,0.9-2.44,0.9c-0.24,0-0.36,0.11-0.36,0.33v20.69
		c0,1.06-0.12,1.89-0.36,2.49c-0.24,0.6-0.73,1.07-1.48,1.4c-0.87,0.4-2.24,0.64-4.1,0.71c-0.63,0-1.22-0.19-1.75-0.57
		c-0.53-0.38-0.9-0.87-1.1-1.45c-0.2-0.47-0.15-0.91,0.15-1.31c0.3-0.4,0.72-0.6,1.28-0.6c0.55,0,1.15,0,1.78,0
		c0.28,0,0.46-0.05,0.56-0.14c0.1-0.09,0.15-0.28,0.15-0.57v-4.43c0-0.36-0.2-0.55-0.59-0.55h-6.77c-0.4,0-0.59,0.18-0.59,0.55v6.95
		c0,0.62-0.24,1.14-0.71,1.56c-0.48,0.42-1.04,0.63-1.69,0.63s-1.21-0.21-1.66-0.63c-0.46-0.42-0.68-0.94-0.68-1.56v-23.15
		c0-0.22-0.12-0.33-0.36-0.33c-0.91,0-1.68-0.29-2.32-0.88c-0.63-0.58-0.95-1.28-0.95-2.08v-2.46c0-0.8,0.31-1.49,0.92-2.05
		c0.61-0.57,1.36-0.85,2.23-0.85c0.24,0,0.36-0.11,0.36-0.33v-10.51c0-1.31,0.5-2.44,1.51-3.37c1.01-0.93,2.23-1.4,3.65-1.4h7.54
		c1.43,0,2.64,0.46,3.65,1.4c1.01,0.93,1.51,2.05,1.51,3.37V685c0,0.22,0.12,0.33,0.36,0.33c0.91,0,1.67,0.29,2.29,0.88
		c0.61,0.58,0.92,1.3,0.92,2.13V690.53z M741.62,692.01c0.4,0,0.59-0.18,0.59-0.55v-1.97c0-0.36-0.2-0.55-0.59-0.55h-15.14
		c-0.4,0-0.59,0.18-0.59,0.55v1.97c0,0.37,0.2,0.55,0.59,0.55H741.62z M729.86,673.56c-0.4,0-0.59,0.18-0.59,0.55v10.67
		c0,0.37,0.2,0.55,0.59,0.55h1.54c0.4,0,0.59-0.18,0.59-0.55v-3.45c0-1.31,0.49-2.44,1.48-3.37c0.99-0.93,2.22-1.4,3.68-1.4H738
		c0.4,0,0.59-0.18,0.59-0.55v-1.92c0-0.36-0.2-0.55-0.59-0.55H729.86z M737.34,699.01c0.4,0,0.59-0.18,0.59-0.55v-2.19
		c0-0.36-0.2-0.55-0.59-0.55h-6.77c-0.4,0-0.59,0.18-0.59,0.55v2.19c0,0.37,0.2,0.55,0.59,0.55H737.34z M729.98,705.42
		c0,0.37,0.2,0.55,0.59,0.55h6.77c0.4,0,0.59-0.18,0.59-0.55v-2.3c0-0.37-0.2-0.55-0.59-0.55h-6.77c-0.4,0-0.59,0.18-0.59,0.55
		V705.42z M735.26,684.78c0,0.37,0.2,0.55,0.59,0.55H738c0.4,0,0.59-0.18,0.59-0.55v-4.54c0-0.36-0.2-0.55-0.59-0.55h-2.14
		c-0.4,0-0.59,0.18-0.59,0.55V684.78z M767.87,714.12c-0.08,0.11-0.09,0.22-0.03,0.33c0.06,0.11,0.17,0.16,0.33,0.16h6.18
		c0.59,0,1.09,0.18,1.48,0.55c0.4,0.36,0.59,0.81,0.59,1.34c0,0.53-0.2,0.99-0.59,1.37c-0.4,0.38-0.89,0.57-1.48,0.57h-26.78
		c-0.59,0-1.09-0.19-1.48-0.57c-0.4-0.38-0.59-0.84-0.59-1.37c0-0.53,0.2-0.98,0.59-1.34c0.4-0.36,0.89-0.55,1.48-0.55h5.94
		c0.16,0,0.29-0.05,0.39-0.16c0.1-0.11,0.11-0.24,0.03-0.38c-0.16-0.55-0.38-1.13-0.65-1.75c-0.2-0.4-0.3-0.79-0.3-1.18
		c0-0.38,0.1-0.77,0.3-1.18c0.32-0.8,0.91-1.33,1.78-1.59v-0.05c0-0.04-0.02-0.05-0.06-0.05h-0.59c-1.43,0-2.64-0.47-3.65-1.4
		s-1.51-2.05-1.51-3.37v-0.99c0-1.31,0.5-2.44,1.51-3.37s2.23-1.4,3.65-1.4h13.72c1.43,0,2.64,0.47,3.65,1.4
		c1.01,0.93,1.51,2.05,1.51,3.37v0.99c0,1.31-0.5,2.44-1.51,3.37c-1.01,0.93-2.23,1.4-3.65,1.4h-0.95l-0.06,0.05
		c0,0.04,0.02,0.05,0.06,0.05c0.91,0.22,1.56,0.73,1.96,1.53c0.16,0.37,0.24,0.71,0.24,1.04c0,0.44-0.12,0.86-0.36,1.26
		C768.64,712.79,768.26,713.43,767.87,714.12z M773.92,691.79c0.55,0,1.03,0.18,1.43,0.55c0.4,0.37,0.59,0.8,0.59,1.31
		c0,0.51-0.2,0.95-0.59,1.31c-0.4,0.37-0.87,0.55-1.43,0.55h-25.24c-0.55,0-1.03-0.18-1.43-0.55c-0.4-0.37-0.59-0.8-0.59-1.31
		c0-0.51,0.2-0.95,0.59-1.31c0.4-0.36,0.87-0.55,1.43-0.55H773.92z M769.05,672.74c1.43,0,2.64,0.46,3.65,1.4
		c1.01,0.93,1.51,2.05,1.51,3.37v7.17c0,1.31-0.5,2.44-1.51,3.37c-1.01,0.93-2.23,1.4-3.65,1.4h-15.68c-1.43,0-2.64-0.46-3.65-1.4
		c-1.01-0.93-1.51-2.05-1.51-3.37v-7.17c0-1.31,0.5-2.44,1.51-3.37c1.01-0.93,2.23-1.4,3.65-1.4h1.31c0.36,0,0.53-0.16,0.53-0.49
		v-2.52c0-0.51,0.2-0.95,0.59-1.31c0.4-0.36,0.87-0.55,1.43-0.55c0.55,0,1.03,0.18,1.43,0.55c0.4,0.37,0.59,0.8,0.59,1.31v2.52
		c0.04,0.33,0.24,0.49,0.59,0.49h2.44c0.36,0,0.55-0.16,0.59-0.49v-2.46c0-0.55,0.2-1,0.59-1.37c0.4-0.36,0.88-0.55,1.46-0.55
		c0.57,0,1.06,0.18,1.46,0.55c0.4,0.37,0.59,0.82,0.59,1.37v2.46c0,0.33,0.2,0.49,0.59,0.49H769.05z M753.14,676.19
		c-0.4,0-0.59,0.18-0.59,0.55v2.13c0,0.37,0.2,0.55,0.59,0.55h2.2c0.4,0,0.59-0.18,0.59-0.55v-2.13c0-0.36-0.2-0.55-0.59-0.55
		H753.14z M753.14,682.7c-0.4,0-0.59,0.18-0.59,0.55v2.19c0,0.37,0.2,0.55,0.59,0.55h2.2c0.4,0,0.59-0.18,0.59-0.55v-2.19
		c0-0.36-0.2-0.55-0.59-0.55H753.14z M754.45,700.98c-0.4,0-0.59,0.18-0.59,0.55v2.96c0,0.37,0.2,0.55,0.59,0.55h13.36
		c0.4,0,0.59-0.18,0.59-0.55v-2.96c0-0.36-0.2-0.55-0.59-0.55H754.45z M765.79,708.81c0.04-0.15,0.02-0.27-0.06-0.38
		c-0.08-0.11-0.2-0.16-0.36-0.16h-8.97c-0.12,0-0.22,0.05-0.3,0.16c-0.08,0.11-0.08,0.22,0,0.33c1.11,1.79,1.92,3.67,2.43,5.64
		c0.04,0.11,0,0.18-0.12,0.22h4.28c0.4,0,0.67-0.16,0.83-0.49C764.4,712.44,765.15,710.67,765.79,708.81z M759.26,678.87
		c0,0.37,0.2,0.55,0.59,0.55h2.44c0.4,0,0.59-0.18,0.59-0.55v-2.13c0-0.36-0.2-0.55-0.59-0.55h-2.44c-0.4,0-0.59,0.18-0.59,0.55
		V678.87z M762.88,683.25c0-0.36-0.2-0.55-0.59-0.55h-2.44c-0.4,0-0.59,0.18-0.59,0.55v2.19c0,0.37,0.2,0.55,0.59,0.55h2.44
		c0.4,0,0.59-0.18,0.59-0.55V683.25z M769.17,679.42c0.4,0,0.59-0.18,0.59-0.55v-2.13c0-0.36-0.2-0.55-0.59-0.55h-2.44
		c-0.4,0-0.59,0.18-0.59,0.55v2.13c0,0.37,0.2,0.55,0.59,0.55H769.17z M769.17,685.98c0.4,0,0.59-0.18,0.59-0.55v-2.19
		c0-0.36-0.2-0.55-0.59-0.55h-2.44c-0.4,0-0.59,0.18-0.59,0.55v2.19c0,0.37,0.2,0.55,0.59,0.55H769.17z"/>
	<path class="st12" d="M809.02,677.94c0,0.37,0.2,0.55,0.59,0.55h19.18c1.42,0,2.61,0.47,3.56,1.42c0.91,0.84,1.37,1.84,1.37,3.01
		c0,0.11,0,0.22,0,0.33c-0.67,10.4-1.35,17.86-2.02,22.39c-0.71,4.82-1.72,7.92-3.03,9.31c-1.39,1.5-3.27,2.35-5.64,2.57
		c-1.03,0.11-2.34,0.16-3.92,0.16c-0.79,0-1.64-0.02-2.55-0.05c-0.87,0-1.64-0.28-2.32-0.85c-0.67-0.57-1.17-1.25-1.48-2.05
		c-0.24-0.62-0.17-1.19,0.21-1.7c0.38-0.51,0.9-0.75,1.57-0.71c1.86,0.07,3.9,0.11,6.12,0.11c1.27,0,2.2-0.27,2.79-0.82
		c1.03-0.91,1.88-3.5,2.55-7.77c0.67-4.2,1.25-10.69,1.72-19.49c0.04-0.15,0-0.27-0.12-0.38s-0.26-0.16-0.42-0.16h-17.82
		c-0.4,0-0.61,0.18-0.65,0.55c-0.2,2.3-0.52,4.49-0.95,6.57c-0.44,2.26-1.19,4.7-2.26,7.31c-1.07,2.61-2.4,5.03-3.98,7.25
		c-1.58,2.23-3.66,4.47-6.24,6.73c-1.86,1.64-3.92,3.16-6.18,4.54c-0.55,0.33-1.15,0.49-1.78,0.49c-0.2,0-0.42-0.02-0.65-0.05
		c-0.87-0.15-1.62-0.51-2.26-1.09c-0.48-0.44-0.71-0.99-0.71-1.64c0-0.84,0.36-1.46,1.07-1.86c2.61-1.61,4.93-3.36,6.95-5.25
		c2.73-2.48,4.83-5.09,6.29-7.83c1.46-2.74,2.55-5.35,3.27-7.83c0.67-2.3,1.13-4.74,1.37-7.33c0.04-0.15,0-0.27-0.12-0.38
		s-0.26-0.16-0.42-0.16h-15.38c-0.79,0-1.46-0.25-2.02-0.77c-0.55-0.51-0.83-1.14-0.83-1.89c0-0.75,0.28-1.38,0.83-1.89
		c0.55-0.51,1.23-0.77,2.02-0.77h15.74c0.4,0,0.59-0.18,0.59-0.55v-8.48c0-0.8,0.29-1.46,0.86-1.97c0.57-0.51,1.28-0.77,2.11-0.77
		s1.53,0.27,2.11,0.79c0.57,0.53,0.86,1.18,0.86,1.94V677.94z"/>
</g>
<polygon class="st12" points="923.71,685.7 912.18,697.91 915.56,714.47 900.56,707.11 886.09,715.48 888.34,698.72 876.02,687.33 
	892.41,684.33 899.27,668.92 907.15,683.83 "/>
<polygon class="st12" points="994.04,685.7 982.52,697.91 985.9,714.47 970.9,707.11 956.43,715.48 958.68,698.72 946.36,687.33 
	962.75,684.33 969.6,668.92 977.49,683.83 "/>
<polygon class="st12" points="1064.38,685.7 1052.86,697.91 1056.24,714.47 1041.23,707.11 1026.77,715.48 1029.01,698.72 
	1016.69,687.33 1033.09,684.33 1039.94,668.92 1047.82,683.83 "/>
<polygon class="st12" points="1134.71,685.7 1123.19,697.91 1126.57,714.47 1111.57,707.11 1097.1,715.48 1099.35,698.72 
	1087.03,687.33 1103.42,684.33 1110.28,668.92 1118.16,683.83 "/>
<polygon class="st12" points="1205.05,685.7 1193.53,697.91 1196.91,714.47 1181.91,707.11 1167.44,715.48 1169.69,698.72 
	1157.37,687.33 1173.76,684.33 1180.61,668.92 1188.49,683.83 "/>
<path class="st11" d="M1274.55,852.87H719.39c-10.42,0-18.87-8.45-18.87-18.87v-35.2c0-10.42,8.45-18.87,18.87-18.87h555.16
	c10.42,0,18.87,8.45,18.87,18.87V834C1293.41,844.42,1284.97,852.87,1274.55,852.87z"/>
<g>
	<path class="st12" d="M746.07,813.51c0.63,0.4,0.95,0.97,0.95,1.7c0,0.55-0.22,1-0.65,1.37c-0.59,0.51-1.27,0.77-2.02,0.77
		c-0.08,0-0.14,0-0.18,0c-0.71,0-1.37-0.2-1.96-0.6c-1.78-1.24-3.78-2.55-6-3.94c-0.32-0.22-0.59-0.18-0.83,0.11
		c-2.02,2.7-5.01,5.02-8.97,6.95c-0.44,0.22-0.89,0.33-1.37,0.33c-0.24,0-0.5-0.04-0.77-0.11c-0.71-0.15-1.33-0.47-1.84-0.99
		c-0.44-0.4-0.6-0.88-0.5-1.42c0.1-0.55,0.41-0.93,0.92-1.15c4.47-1.97,7.48-4.47,9.03-7.5c0.04-0.11,0.02-0.22-0.06-0.33
		c-0.08-0.11-0.18-0.16-0.3-0.16h-8.2c-0.63,0-1.17-0.2-1.6-0.6c-0.44-0.4-0.65-0.88-0.65-1.45c0-0.57,0.22-1.05,0.65-1.45
		c0.44-0.4,0.97-0.6,1.6-0.6h1.48c0.04,0,0.07-0.04,0.09-0.11c0.02-0.07,0.01-0.11-0.03-0.11l-0.06-0.05
		c-0.95-0.58-1.52-1.4-1.72-2.46c-0.08-0.25-0.12-0.49-0.12-0.71c0-0.8,0.26-1.51,0.77-2.13c1.19-1.71,2.2-3.58,3.03-5.58
		c0.28-0.62,0.73-1.11,1.37-1.48c0.44-0.25,0.89-0.38,1.37-0.38c0.2,0,0.4,0.02,0.59,0.05c0.67,0.15,1.19,0.49,1.54,1.04
		c0.2,0.33,0.28,0.66,0.24,0.99c0,0.26-0.02,0.49-0.06,0.71c-0.04,0.15-0.18,0.51-0.42,1.09c-0.04,0.07-0.03,0.16,0.03,0.25
		c0.06,0.09,0.15,0.14,0.27,0.14h13.06c0.59,0,1.11,0.2,1.54,0.6c0.44,0.4,0.65,0.89,0.65,1.45c0,0.57-0.22,1.06-0.65,1.48
		c-0.44,0.42-0.95,0.63-1.54,0.63h-5.58c-0.4,0-0.59,0.18-0.59,0.55v2.35c0,0.51,0,0.89,0,1.15c0,0.15,0.05,0.27,0.15,0.38
		c0.1,0.11,0.23,0.16,0.39,0.16h7.13c0.63,0,1.17,0.2,1.6,0.6c0.44,0.4,0.65,0.88,0.65,1.45c0,0.57-0.22,1.05-0.65,1.45
		c-0.44,0.4-0.97,0.6-1.6,0.6H738c-0.2,0-0.33,0.08-0.39,0.25c-0.06,0.16-0.01,0.3,0.15,0.41
		C739.82,810.13,742.59,811.57,746.07,813.51z M725.88,803.98c-0.08,0.07-0.1,0.16-0.06,0.27c0.04,0.11,0.12,0.16,0.24,0.16h6.53
		c0.4,0,0.61-0.2,0.65-0.6c0-0.25,0-0.64,0-1.15v-2.3c0-0.36-0.2-0.55-0.59-0.55h-3.09c-0.4,0-0.67,0.15-0.83,0.44
		C727.9,801.57,726.95,802.82,725.88,803.98z M732.35,842.63c-0.79,0-1.46-0.26-1.99-0.77c-0.53-0.51-0.8-1.11-0.8-1.81v-15.77
		c0-1.31,0.5-2.44,1.51-3.37c1.01-0.93,2.23-1.4,3.65-1.4h27.79c1.43,0,2.64,0.46,3.65,1.4s1.51,2.05,1.51,3.37v15.6
		c0,0.73-0.29,1.36-0.86,1.89c-0.57,0.53-1.26,0.79-2.05,0.79h-1.01c-0.51,0-0.96-0.16-1.34-0.49c-0.38-0.33-0.56-0.73-0.56-1.2
		c0-0.15-0.06-0.22-0.18-0.22h-26.37c-0.12,0-0.18,0.07-0.18,0.22c0,0.47-0.19,0.88-0.56,1.23c-0.38,0.35-0.82,0.52-1.34,0.52
		H732.35z M761.87,824.24c0-0.36-0.2-0.55-0.59-0.55h-25.54c-0.4,0-0.59,0.18-0.59,0.55v3.29c0,0.37,0.2,0.55,0.59,0.55h25.54
		c0.4,0,0.59-0.18,0.59-0.55V824.24z M735.15,835.9c0,0.37,0.2,0.55,0.59,0.55h25.54c0.4,0,0.59-0.18,0.59-0.55v-3.39
		c0-0.36-0.2-0.55-0.59-0.55h-25.54c-0.4,0-0.59,0.18-0.59,0.55V835.9z M750.82,800.37c0-1.31,0.5-2.44,1.51-3.37
		c1.01-0.93,2.23-1.4,3.65-1.4h11.64c1.43,0,2.64,0.47,3.65,1.4c1.01,0.93,1.51,2.05,1.51,3.37v10.46c0,1.31-0.5,2.44-1.51,3.37
		c-1.01,0.93-2.23,1.4-3.65,1.4h-11.64c-1.43,0-2.64-0.47-3.65-1.4c-1.01-0.93-1.51-2.05-1.51-3.37V800.37z M766.56,810.99
		c0.4,0,0.59-0.18,0.59-0.55v-9.69c0-0.36-0.2-0.55-0.59-0.55h-9.86c-0.4,0-0.59,0.18-0.59,0.55v9.69c0,0.37,0.2,0.55,0.59,0.55
		H766.56z"/>
	<path class="st12" d="M809.02,801.3c0,0.37,0.2,0.55,0.59,0.55h19.18c1.42,0,2.61,0.47,3.56,1.42c0.91,0.84,1.37,1.84,1.37,3.01
		c0,0.11,0,0.22,0,0.33c-0.67,10.4-1.35,17.86-2.02,22.39c-0.71,4.82-1.72,7.92-3.03,9.31c-1.39,1.5-3.27,2.35-5.64,2.57
		c-1.03,0.11-2.34,0.16-3.92,0.16c-0.79,0-1.64-0.02-2.55-0.05c-0.87,0-1.64-0.28-2.32-0.85c-0.67-0.57-1.17-1.25-1.48-2.05
		c-0.24-0.62-0.17-1.19,0.21-1.7c0.38-0.51,0.9-0.75,1.57-0.71c1.86,0.07,3.9,0.11,6.12,0.11c1.27,0,2.2-0.27,2.79-0.82
		c1.03-0.91,1.88-3.5,2.55-7.77c0.67-4.2,1.25-10.69,1.72-19.49c0.04-0.15,0-0.27-0.12-0.38s-0.26-0.16-0.42-0.16h-17.82
		c-0.4,0-0.61,0.18-0.65,0.55c-0.2,2.3-0.52,4.49-0.95,6.57c-0.44,2.26-1.19,4.7-2.26,7.31c-1.07,2.61-2.4,5.03-3.98,7.25
		c-1.58,2.23-3.66,4.47-6.24,6.73c-1.86,1.64-3.92,3.16-6.18,4.54c-0.55,0.33-1.15,0.49-1.78,0.49c-0.2,0-0.42-0.02-0.65-0.05
		c-0.87-0.15-1.62-0.51-2.26-1.09c-0.48-0.44-0.71-0.99-0.71-1.64c0-0.84,0.36-1.46,1.07-1.86c2.61-1.61,4.93-3.36,6.95-5.25
		c2.73-2.48,4.83-5.09,6.29-7.83c1.46-2.74,2.55-5.35,3.27-7.83c0.67-2.3,1.13-4.74,1.37-7.33c0.04-0.15,0-0.27-0.12-0.38
		s-0.26-0.16-0.42-0.16h-15.38c-0.79,0-1.46-0.25-2.02-0.77c-0.55-0.51-0.83-1.14-0.83-1.89c0-0.75,0.28-1.38,0.83-1.89
		c0.55-0.51,1.23-0.77,2.02-0.77h15.74c0.4,0,0.59-0.18,0.59-0.55v-8.48c0-0.8,0.29-1.46,0.86-1.97c0.57-0.51,1.28-0.77,2.11-0.77
		s1.53,0.27,2.11,0.79c0.57,0.53,0.86,1.18,0.86,1.94V801.3z"/>
</g>
<polygon class="st12" points="923.71,809.06 912.18,821.27 915.56,837.83 900.56,830.47 886.09,838.84 888.34,822.08 876.02,810.69 
	892.41,807.7 899.27,792.29 907.15,807.19 "/>
<polygon class="st12" points="994.04,809.06 982.52,821.27 985.9,837.83 970.9,830.47 956.43,838.84 958.68,822.08 946.36,810.69 
	962.75,807.7 969.6,792.29 977.49,807.19 "/>
<polygon class="st12" points="1064.38,809.06 1052.86,821.27 1056.24,837.83 1041.23,830.47 1026.77,838.84 1029.01,822.08 
	1016.69,810.69 1033.09,807.7 1039.94,792.29 1047.82,807.19 "/>
<polygon class="st13" points="1134.71,809.06 1123.19,821.27 1126.57,837.83 1111.57,830.47 1097.1,838.84 1099.35,822.08 
	1087.03,810.69 1103.42,807.7 1110.28,792.29 1118.16,807.19 "/>
<polygon class="st13" points="1205.05,809.06 1193.53,821.27 1196.91,837.83 1181.91,830.47 1167.44,838.84 1169.69,822.08 
	1157.37,810.69 1173.76,807.7 1180.61,792.29 1188.49,807.19 "/>
<path class="st11" d="M1274.55,976.23H719.39c-10.42,0-18.87-8.45-18.87-18.87v-35.2c0-10.42,8.45-18.87,18.87-18.87h555.16
	c10.42,0,18.87,8.45,18.87,18.87v35.2C1293.41,967.79,1284.97,976.23,1274.55,976.23z"/>
<g>
	<path class="st12" d="M748.21,925.95c0,0.36,0.2,0.54,0.59,0.54h19.18c1.42,0,2.61,0.46,3.56,1.39c0.91,0.82,1.37,1.8,1.37,2.94
		c0,0.11,0,0.21,0,0.32c-0.67,10.16-1.35,17.45-2.02,21.86c-0.71,4.7-1.72,7.73-3.03,9.09c-1.39,1.46-3.27,2.3-5.64,2.51
		c-1.03,0.11-2.34,0.16-3.92,0.16c-0.79,0-1.64-0.02-2.55-0.05c-0.87,0-1.64-0.28-2.32-0.83c-0.67-0.55-1.17-1.22-1.48-2
		c-0.24-0.61-0.17-1.16,0.21-1.66c0.38-0.5,0.9-0.73,1.57-0.7c1.86,0.07,3.9,0.11,6.12,0.11c1.27,0,2.2-0.27,2.79-0.8
		c1.03-0.89,1.88-3.42,2.55-7.59c0.67-4.1,1.25-10.44,1.72-19.03c0.04-0.14,0-0.27-0.12-0.37c-0.12-0.11-0.26-0.16-0.42-0.16h-17.82
		c-0.4,0-0.61,0.18-0.65,0.54c-0.2,2.25-0.52,4.38-0.95,6.42c-0.44,2.21-1.19,4.59-2.26,7.14c-1.07,2.55-2.4,4.91-3.98,7.08
		c-1.58,2.17-3.66,4.37-6.24,6.58c-1.86,1.6-3.92,3.08-6.18,4.44c-0.55,0.32-1.15,0.48-1.78,0.48c-0.2,0-0.42-0.02-0.65-0.05
		c-0.87-0.14-1.62-0.5-2.26-1.07c-0.48-0.43-0.71-0.96-0.71-1.6c0-0.82,0.36-1.42,1.07-1.82c2.61-1.57,4.93-3.28,6.95-5.13
		c2.73-2.42,4.83-4.97,6.29-7.64c1.46-2.67,2.55-5.22,3.27-7.64c0.67-2.25,1.13-4.63,1.37-7.16c0.04-0.14,0-0.27-0.12-0.37
		c-0.12-0.11-0.26-0.16-0.42-0.16h-15.38c-0.79,0-1.46-0.25-2.02-0.75c-0.55-0.5-0.83-1.11-0.83-1.84s0.28-1.34,0.83-1.84
		c0.55-0.5,1.23-0.75,2.02-0.75h15.74c0.4,0,0.59-0.18,0.59-0.54v-8.29c0-0.78,0.29-1.43,0.86-1.92c0.57-0.5,1.28-0.75,2.11-0.75
		s1.53,0.26,2.11,0.77c0.57,0.52,0.86,1.15,0.86,1.9V925.95z"/>
	<path class="st12" d="M811.87,960.64c0,0.36,0.2,0.53,0.59,0.53h22.03c0.63,0,1.16,0.19,1.57,0.56c0.42,0.37,0.62,0.83,0.62,1.36
		c0,0.53-0.21,0.99-0.62,1.36c-0.42,0.37-0.94,0.56-1.57,0.56h-50.42c-0.59,0-1.11-0.19-1.54-0.56c-0.44-0.37-0.65-0.83-0.65-1.36
		c0-0.54,0.22-0.99,0.65-1.36c0.44-0.37,0.95-0.56,1.54-0.56h21.74c0.4,0,0.59-0.18,0.59-0.53v-1.6c0-0.36-0.2-0.54-0.59-0.54
		h-16.81c-0.55,0-1.02-0.16-1.4-0.48c-0.38-0.32-0.56-0.72-0.56-1.2c0-0.48,0.19-0.89,0.56-1.23c0.38-0.34,0.84-0.51,1.4-0.51h16.81
		c0.4,0,0.59-0.18,0.59-0.54v-1.39c0-0.36-0.2-0.53-0.59-0.53h-12.06c-1.43,0-2.64-0.46-3.65-1.36c-1.01-0.91-1.51-2-1.51-3.29
		v-4.38c0-1.28,0.5-2.38,1.51-3.29c1.01-0.91,2.23-1.36,3.65-1.36h31.36c1.43,0,2.64,0.45,3.65,1.36c1.01,0.91,1.51,2,1.51,3.29
		v4.38c0,1.28-0.5,2.38-1.51,3.29c-1.01,0.91-2.23,1.36-3.65,1.36h-12.65c-0.4,0-0.59,0.18-0.59,0.53v1.39
		c0,0.36,0.2,0.54,0.59,0.54h17.16c0.51,0,0.96,0.17,1.34,0.51c0.38,0.34,0.56,0.75,0.56,1.23c0,0.48-0.19,0.88-0.56,1.2
		c-0.38,0.32-0.82,0.48-1.34,0.48h-17.16c-0.4,0-0.59,0.18-0.59,0.54V960.64z M834.38,933.11c0.55,0,1.04,0.19,1.46,0.56
		c0.42,0.37,0.62,0.83,0.62,1.36c0,0.54-0.21,0.97-0.62,1.31c-0.42,0.34-0.9,0.51-1.46,0.51H784.2c-0.56,0-1.04-0.17-1.46-0.51
		c-0.42-0.34-0.62-0.77-0.62-1.31c0-0.53,0.21-0.99,0.62-1.36s0.9-0.56,1.46-0.56H834.38z M823.51,917.82
		c1.43,0,2.64,0.45,3.65,1.36c1.01,0.91,1.51,2,1.51,3.29v3.9c0,1.28-0.5,2.38-1.48,3.29c-0.99,0.91-2.22,1.36-3.68,1.36h-28.68
		c-1.43,0-2.64-0.46-3.65-1.36c-1.01-0.91-1.51-2-1.51-3.29v-3.9c0-1.28,0.5-2.38,1.51-3.29c1.01-0.91,2.23-1.36,3.65-1.36H823.51z
		 M794.53,941.83c-0.4,0-0.59,0.18-0.59,0.54v1.44c0,0.36,0.2,0.53,0.59,0.53h11.28c0.4,0,0.59-0.18,0.59-0.53v-1.44
		c0-0.36-0.2-0.54-0.59-0.54H794.53z M793.94,949.2c0,0.36,0.2,0.54,0.59,0.54h11.28c0.4,0,0.59-0.18,0.59-0.54v-1.55
		c0-0.36-0.2-0.54-0.59-0.54h-11.28c-0.4,0-0.59,0.18-0.59,0.54V949.2z M822.32,923.06c0.4,0,0.59-0.18,0.59-0.53v-1.39
		c0-0.36-0.2-0.54-0.59-0.54h-26.6c-0.4,0-0.59,0.18-0.59,0.54v1.39c0,0.36,0.2,0.53,0.59,0.53H822.32z M822.32,928.25
		c0.4,0,0.59-0.18,0.59-0.53v-1.44c0-0.36-0.2-0.54-0.59-0.54h-26.6c-0.4,0-0.59,0.18-0.59,0.54v1.44c0,0.36,0.2,0.53,0.59,0.53
		H822.32z M824.17,944.34c0.4,0,0.59-0.18,0.59-0.53v-1.44c0-0.36-0.2-0.54-0.59-0.54h-11.7c-0.4,0-0.59,0.18-0.59,0.54v1.44
		c0,0.36,0.2,0.53,0.59,0.53H824.17z M824.17,949.74c0.4,0,0.59-0.18,0.59-0.54v-1.55c0-0.36-0.2-0.54-0.59-0.54h-11.7
		c-0.4,0-0.59,0.18-0.59,0.54v1.55c0,0.36,0.2,0.54,0.59,0.54H824.17z"/>
</g>
<polygon class="st12" points="923.71,932.43 912.18,944.63 915.56,961.2 900.56,953.83 886.09,962.2 888.34,945.45 876.02,934.05 
	892.41,931.06 899.27,915.65 907.15,930.56 "/>
<polygon class="st12" points="994.04,932.43 982.52,944.63 985.9,961.2 970.9,953.83 956.43,962.2 958.68,945.45 946.36,934.05 
	962.75,931.06 969.6,915.65 977.49,930.56 "/>
<polygon class="st12" points="1064.38,932.43 1052.86,944.63 1056.24,961.2 1041.23,953.83 1026.77,962.2 1029.01,945.45 
	1016.69,934.05 1033.09,931.06 1039.94,915.65 1047.82,930.56 "/>
<polygon class="st12" points="1134.71,932.43 1123.19,944.63 1126.57,961.2 1111.57,953.83 1097.1,962.2 1099.35,945.45 
	1087.03,934.05 1103.42,931.06 1110.28,915.65 1118.16,930.56 "/>
<polygon class="st14" points="1205.05,932.43 1193.53,944.63 1196.91,961.2 1181.91,953.83 1167.44,962.2 1169.69,945.45 
	1157.37,934.05 1173.76,931.06 1180.61,915.65 1188.49,930.56 "/>
<g>
	<path class="st12" d="M911.56,149.49l-4.1,11.86h-11.18L914.14,110h14.29l18.63,51.35H935.1l-4.32-11.86H911.56z M928.33,140.39
		c-3.73-10.84-6.11-17.76-7.38-22.37h-0.08c-1.3,5.06-3.92,13.12-6.92,22.37H928.33z"/>
	<path class="st12" d="M952.84,161.35v-54.37h10.93v54.37H952.84z"/>
	<path class="st12" d="M973.59,161.35v-54.37h10.93v54.37H973.59z"/>
	<path class="st12" d="M1026.79,151.39c0,3.67,0.3,9.03,0.53,9.96h-10.45c-0.3-0.76-0.53-2.79-0.55-3.77
		c-1.43,2.17-4.12,4.66-11.1,4.66c-9.52,0-13.54-6.11-13.54-12.09c0-8.78,7.22-12.83,18.8-12.83c1.93,0,4.31,0,5.64,0v-2.36
		c0-2.74-1.01-5.44-6.08-5.44c-4.62,0-5.63,1.91-6.13,4.71h-10.4c0.59-6.85,4.93-12.39,16.94-12.33
		c10.58,0.07,16.33,4.1,16.33,13.28V151.39z M1016.13,143.8c-0.91,0-3.01,0-4.46,0c-6.59,0-9.03,1.96-9.03,5.68
		c0,2.79,1.75,5.14,5.68,5.14c6.95,0,7.8-4.71,7.8-9.81V143.8z"/>
	<path class="st12" d="M1036.75,132.51c0-3.28,0-6.86-0.08-9.71h10.59c0.22,1,0.36,3.67,0.42,4.91c1.34-2.42,4.54-5.81,11.46-5.81
		c7.93,0,13.09,5.23,13.09,14.92v24.52h-10.93v-23.34c0-4.33-1.48-7.47-6.3-7.47c-4.65,0-7.3,2.52-7.3,9.33v21.48h-10.93V132.51z"/>
</g>
</svg>
