<?xml version="1.0" encoding="utf-8"?>
<!-- Generator: Adobe Illustrator 23.0.5, SVG Export Plug-In . SVG Version: 6.00 Build 0)  -->
<svg version="1.1" id="圖層_1" xmlns="http://www.w3.org/2000/svg" xmlns:xlink="http://www.w3.org/1999/xlink" x="0px" y="0px"
	 viewBox="0 0 1920 1080" style="enable-background:new 0 0 1920 1080;" xml:space="preserve">
<style type="text/css">
	.st0{fill:#E0E0E0;}
	.st1{fill:#5B2F04;}
	.st2{fill:#A36335;}
	.st3{fill:#E59941;}
	.st4{fill:#FFF0D9;}
	.st5{fill:#0A0A0A;}
	.st6{fill:#CD3825;}
	.st7{fill:#F8C8A6;}
	.st8{fill:#F8C8A6;stroke:#F8C8A6;stroke-width:0.1;stroke-miterlimit:10;}
	.st9{fill:#85A6B9;}
	.st10{fill:#FFFFFF;}
	.st11{fill:#647F80;}
	.st12{fill:#D34C1A;}
	.st13{fill:#F7F6F5;}
	.st14{fill:#210505;}
	.st15{fill:#3F090B;}
	.st16{fill:#8F6A4C;}
	.st17{fill:#DA742E;}
	.st18{fill:#F2CB89;}
	.st19{fill:#0F0617;}
	.st20{fill:#FCFCFC;}
	.st21{fill:#FFAA2D;}
	.st22{fill:#FE8525;}
	.st23{fill:#0F0613;}
	.st24{fill:#0F0615;}
	.st25{fill:#DC9D56;}
	.st26{fill:#7C6662;}
	.st27{fill:#94CCCE;}
	.st28{fill:#969493;}
	.st29{fill:#F1BB5B;}
	.st30{fill:#FDF3E7;}
	.st31{fill:#E68330;}
	.st32{fill:#FBF4E5;}
	.st33{fill:#5E2720;}
	.st34{fill:none;stroke:#FFFFFF;stroke-miterlimit:10;}
	.st35{fill:#F7B753;}
	.st36{fill:#F8B753;}
	.st37{fill:#FEF3D2;}
	.st38{fill:#010100;}
	.st39{fill:#FDFDFB;stroke:#000000;stroke-width:0.5;stroke-miterlimit:10;}
	.st40{fill:#F09F47;}
	.st41{fill:#050405;}
	.st42{fill:none;stroke:#000000;stroke-miterlimit:10;}
	.st43{fill:#87593A;}
	.st44{fill:#7F8E92;}
	.st45{fill:#F9B622;}
	.st46{fill:#DDEFF4;}
	.st47{fill:#788C8E;}
	.st48{fill:#474143;}
	.st49{fill:#C21824;}
	.st50{fill:#280811;}
	.st51{fill:#A1A9AC;}
	.st52{fill:#26080B;}
	.st53{fill:#889398;}
	.st54{fill:#2C0A0E;}
	.st55{fill:#FDFDFD;}
	.st56{fill:url(#SVGID_1_);}
	.st57{fill:#2A0914;}
	.st58{fill:#FDFBFC;}
	.st59{fill:#290C14;}
	.st60{fill:#2B0C14;}
	.st61{fill:#280E14;}
	.st62{fill:#B2B2B1;}
	.st63{fill:#EEF8FB;}
	.st64{fill:#FAFBFA;}
</style>
<g>
	<rect x="-3" y="-2" class="st0" width="1920" height="960"/>
</g>
<rect y="960" class="st1" width="1920" height="120"/>
<g>
	<g>
		<path class="st2" d="M580,1006c-17.48,4.47-41.46,8.66-70,8c-23.03-0.54-42.71-4.09-58-8c0-297.02,0-594.04,0-891.06
			c17.37-3.25,38.66-5.87,63-5.94c25.2-0.07,47.19,2.61,65,5.94C580,411.96,580,708.98,580,1006z"/>
		<path class="st2" d="M1469,1005c-17.48,4.47-41.46,8.66-70,8c-23.03-0.54-42.71-4.09-58-8c0-297.02,0-594.04,0-891.06
			c17.37-3.25,38.66-5.87,63-5.94c25.2-0.07,47.19,2.61,65,5.94C1469,410.96,1469,707.98,1469,1005z"/>
		<rect x="326" y="138" class="st3" width="1269" height="764"/>
		<rect x="381" y="163" class="st4" width="1159" height="696"/>
	</g>
	<g>
		<g>
			<path class="st2" d="M833.4,221.06c0.23-0.04,0.48-0.07,0.75-0.07c0.46,0,0.91,0.14,1.37,0.41c0.64,0.41,1.03,1,1.16,1.78
				c0.04,0.18,0.07,0.37,0.07,0.55c0,0.64-0.18,1.25-0.55,1.85c-0.46,0.68-1.09,1.16-1.91,1.44l-4.51,1.44
				c-0.46,0.14-0.68,0.43-0.68,0.89v17.91c0,1.73-0.19,3.08-0.58,4.03c-0.39,0.96-1.04,1.66-1.95,2.12c-1.32,0.77-3.3,1.21-5.95,1.3
				c-0.05,0-0.09,0-0.14,0c-0.87,0-1.64-0.27-2.32-0.82c-0.78-0.59-1.3-1.37-1.57-2.32c-0.23-0.78-0.11-1.48,0.34-2.12
				c0.46-0.64,1.05-0.93,1.78-0.89c0.91,0,1.87,0,2.87,0c0.5,0,0.84-0.09,1.03-0.27c0.18-0.18,0.27-0.52,0.27-1.03v-16
				c0-0.18-0.07-0.33-0.21-0.44c-0.14-0.11-0.3-0.13-0.48-0.03l-3.83,1.16c-0.32,0.09-0.62,0.14-0.89,0.14c-0.5,0-1-0.14-1.5-0.41
				c-0.73-0.41-1.21-1.05-1.44-1.91c-0.05-0.27-0.07-0.52-0.07-0.75c0-0.59,0.16-1.16,0.48-1.71c0.46-0.77,1.14-1.28,2.05-1.5
				c0.5-0.14,2.23-0.64,5.2-1.5c0.46-0.14,0.68-0.43,0.68-0.89v-12.51c0-0.46-0.23-0.68-0.68-0.68h-4.38c-0.82,0-1.53-0.3-2.12-0.89
				c-0.59-0.59-0.89-1.31-0.89-2.15c0-0.84,0.3-1.55,0.89-2.12c0.59-0.57,1.3-0.85,2.12-0.85h4.38c0.46,0,0.68-0.23,0.68-0.68v-9.78
				c0-0.82,0.31-1.54,0.92-2.15s1.34-0.92,2.19-0.92c0.84,0,1.57,0.31,2.19,0.92s0.92,1.33,0.92,2.15v9.78
				c0,0.46,0.23,0.68,0.68,0.68h4.44c0.82,0,1.53,0.29,2.12,0.85c0.59,0.57,0.89,1.28,0.89,2.12c0,0.84-0.3,1.56-0.89,2.15
				c-0.59,0.59-1.3,0.89-2.12,0.89h-4.44c-0.46,0-0.68,0.23-0.68,0.68v10.8c0,0.18,0.07,0.32,0.21,0.41
				c0.14,0.09,0.3,0.11,0.48,0.07L833.4,221.06z M839.97,198.95c-0.59-0.57-0.89-1.26-0.89-2.08s0.3-1.51,0.89-2.08
				c0.59-0.57,1.28-0.85,2.05-0.85h28.37c1.64,0,3.03,0.59,4.17,1.78c1.05,1.09,1.57,2.37,1.57,3.83c0,4.47-0.39,9.27-1.16,14.42
				c-0.46,2.87-1.09,4.81-1.91,5.81c-1.09,1.32-2.64,2.1-4.65,2.32c-1,0.09-2.53,0.14-4.58,0.14c-0.05,0-0.09,0-0.14,0
				c-0.87,0-1.65-0.31-2.36-0.92c-0.71-0.62-1.2-1.38-1.47-2.29c-0.18-0.68-0.07-1.32,0.34-1.91c0.41-0.59,0.96-0.87,1.64-0.82
				c1.05,0.05,2.21,0.07,3.49,0.07c1.05,0,1.8-0.27,2.26-0.82c1-1,1.73-6.02,2.19-15.04c0.04-0.18,0-0.34-0.14-0.48
				s-0.3-0.21-0.48-0.21h-11.83c-0.46,0-0.71,0.23-0.75,0.68c-0.73,5.06-2.06,9.39-4,12.99c-1.94,3.6-4.93,6.59-8.99,8.96
				c-0.5,0.27-1,0.41-1.5,0.41c-0.32,0-0.64-0.04-0.96-0.14c-0.87-0.23-1.6-0.73-2.19-1.5c-0.37-0.46-0.55-0.98-0.55-1.57
				c0-0.18,0.02-0.34,0.07-0.48c0.14-0.77,0.52-1.37,1.16-1.78c3.24-1.82,5.63-4.12,7.18-6.9c1.55-2.78,2.62-6.11,3.21-9.98
				c0-0.18-0.06-0.34-0.17-0.48c-0.11-0.14-0.26-0.21-0.44-0.21h-7.38C841.24,199.8,840.56,199.52,839.97,198.95z M844.27,254.69
				c-0.87,0-1.61-0.31-2.22-0.92s-0.92-1.36-0.92-2.22v-19.69c0-1.64,0.58-3.04,1.74-4.2s2.56-1.74,4.2-1.74h22.35
				c1.64,0,3.04,0.58,4.2,1.74s1.74,2.56,1.74,4.2v19.28c0,0.91-0.32,1.69-0.96,2.32c-0.64,0.64-1.41,0.96-2.32,0.96h-0.68
				c-0.68,0-1.28-0.25-1.78-0.75c-0.5-0.5-0.75-1.12-0.75-1.85c-0.05-0.18-0.18-0.27-0.41-0.27h-20.71c-0.23,0-0.34,0.11-0.34,0.34
				c0,0.77-0.27,1.44-0.82,1.98s-1.21,0.82-1.98,0.82H844.27z M868.88,232.41c0-0.46-0.23-0.68-0.68-0.68h-20.03
				c-0.46,0-0.71,0.23-0.75,0.68v12.58c0,0.46,0.25,0.68,0.75,0.68h20.03c0.46,0,0.68-0.23,0.68-0.68V232.41z"/>
			<path class="st2" d="M946.88,227.42c0.5,0.5,0.75,1.09,0.75,1.78s-0.25,1.29-0.75,1.81c-0.5,0.52-1.12,0.79-1.85,0.79h-10.39
				c-0.09,0-0.16,0.06-0.21,0.17c-0.05,0.11-0.02,0.19,0.07,0.24c3.28,2.37,7.27,4.33,11.96,5.88c0.68,0.23,1.12,0.68,1.3,1.37
				c0.04,0.23,0.07,0.43,0.07,0.62c0,0.5-0.16,0.96-0.48,1.37c-0.64,0.78-1.41,1.32-2.32,1.64c-0.41,0.14-0.82,0.21-1.23,0.21
				c-0.5,0-1-0.09-1.5-0.27c-1.91-0.82-3.78-1.75-5.61-2.8c-0.14-0.09-0.27-0.1-0.41-0.03s-0.21,0.19-0.21,0.38
				c-0.64,6.61-1.62,10.62-2.94,12.03c-1.19,1.05-2.76,1.64-4.72,1.78c-0.82,0.04-1.94,0.07-3.35,0.07c-0.64,0-1.34,0-2.12,0
				c-0.78,0-1.47-0.26-2.08-0.79c-0.62-0.52-1.04-1.2-1.26-2.02c-0.18-0.59-0.09-1.14,0.27-1.64c0.36-0.5,0.84-0.73,1.44-0.68
				c1.69,0.09,3.17,0.14,4.44,0.14c1,0,1.75-0.18,2.26-0.55c0.68-0.68,1.21-2.67,1.57-5.95c0.04-0.18,0-0.34-0.14-0.48
				s-0.3-0.21-0.48-0.21h-12.51c-0.46,0-0.8,0.21-1.03,0.62c-1.46,2.78-3.59,5.1-6.39,6.97s-6.62,3.39-11.45,4.58
				c-0.27,0.09-0.55,0.14-0.82,0.14c-0.55,0-1.07-0.14-1.57-0.41c-0.78-0.37-1.41-0.93-1.91-1.71c-0.37-0.55-0.43-1.14-0.21-1.78
				c0.23-0.64,0.68-1.03,1.37-1.16c6.61-1.41,11.21-3.67,13.81-6.77c0.09-0.09,0.1-0.19,0.03-0.31c-0.07-0.11-0.17-0.17-0.31-0.17
				h-9.78c-0.59,0-1.11-0.22-1.54-0.65c-0.43-0.43-0.65-0.97-0.65-1.61c0-0.14-0.07-0.16-0.21-0.07c-1.55,0.78-3.3,1.57-5.26,2.39
				c-0.46,0.18-0.89,0.27-1.3,0.27c-0.37,0-0.75-0.07-1.16-0.21c-0.78-0.27-1.44-0.75-1.98-1.44c-0.32-0.41-0.48-0.84-0.48-1.3
				c0-0.14,0.02-0.3,0.07-0.48c0.14-0.68,0.52-1.14,1.16-1.37c4.33-1.59,8-3.46,11.01-5.61c0.09-0.04,0.11-0.13,0.07-0.24
				c-0.05-0.11-0.14-0.17-0.27-0.17h-9.3c-0.73,0-1.34-0.26-1.85-0.79c-0.5-0.52-0.75-1.13-0.75-1.81s0.25-1.28,0.75-1.78
				c0.5-0.5,1.12-0.75,1.85-0.75h14.9c0.46,0,0.82-0.18,1.09-0.55c0.55-0.73,1.05-1.46,1.5-2.19c0.04-0.14,0.03-0.27-0.03-0.41
				s-0.19-0.21-0.38-0.21h-5.81c-1.64,0-3.04-0.58-4.2-1.74s-1.74-2.56-1.74-4.2v-7.45c0-1.64,0.58-3.04,1.74-4.2
				s2.56-1.74,4.2-1.74h34.45c1.64,0,3.04,0.58,4.2,1.74s1.74,2.56,1.74,4.2v7.45c0,1.64-0.58,3.04-1.74,4.2s-2.56,1.74-4.2,1.74
				h-20.3c-0.46,0-0.8,0.21-1.03,0.62c-0.46,0.87-0.87,1.6-1.23,2.19c-0.09,0.14-0.1,0.26-0.03,0.38c0.07,0.11,0.17,0.17,0.31,0.17
				h33.22C945.76,226.67,946.38,226.92,946.88,227.42z M904.57,203.01c-0.73,0-1.37-0.27-1.91-0.82s-0.82-1.18-0.82-1.91
				c0-0.23-0.11-0.34-0.34-0.34h-12.17c-0.73,0-1.34-0.25-1.85-0.75c-0.5-0.5-0.75-1.1-0.75-1.81c0-0.71,0.25-1.32,0.75-1.85
				c0.5-0.52,1.12-0.79,1.85-0.79h12.03c0.32,0,0.48-0.14,0.48-0.41v-0.68c0-0.87,0.31-1.61,0.92-2.22s1.36-0.92,2.22-0.92
				c0.87,0,1.61,0.32,2.22,0.96c0.62,0.64,0.92,1.37,0.92,2.19v0.68c0,0.27,0.16,0.41,0.48,0.41h15.86c0.32,0,0.48-0.14,0.48-0.41
				v-0.62c0-0.91,0.31-1.67,0.92-2.29s1.37-0.92,2.26-0.92s1.65,0.32,2.29,0.96c0.64,0.64,0.96,1.39,0.96,2.26v0.62
				c0,0.27,0.14,0.41,0.41,0.41h12.24c0.73,0,1.34,0.26,1.85,0.79c0.5,0.52,0.75,1.14,0.75,1.85c0,0.71-0.25,1.31-0.75,1.81
				c-0.5,0.5-1.12,0.75-1.85,0.75h-12.3c-0.23,0-0.34,0.11-0.34,0.34c0,0.73-0.27,1.37-0.82,1.91s-1.19,0.82-1.91,0.82h-0.96
				c-0.73,0-1.37-0.27-1.91-0.82s-0.82-1.18-0.82-1.91c0-0.23-0.11-0.34-0.34-0.34h-16.13c-0.23,0-0.34,0.11-0.34,0.34
				c0,0.73-0.29,1.37-0.85,1.91c-0.57,0.55-1.2,0.82-1.88,0.82H904.57z M900.67,208.07c-0.46,0-0.71,0.23-0.75,0.68v2.32
				c0,0.46,0.25,0.68,0.75,0.68h32.2c0.46,0,0.68-0.23,0.68-0.68v-2.32c0-0.46-0.23-0.68-0.68-0.68H900.67z M900.67,215.52
				c-0.46,0-0.71,0.23-0.75,0.68v2.46c0,0.46,0.25,0.68,0.75,0.68h32.2c0.46,0,0.68-0.23,0.68-0.68v-2.46
				c0-0.46-0.23-0.68-0.68-0.68H900.67z M917.49,236.92c-0.09,0.32,0.02,0.48,0.34,0.48h13.95c0.14,0,0.22-0.04,0.24-0.14
				c0.02-0.09-0.01-0.18-0.1-0.27c-1.73-1.28-3.44-2.85-5.13-4.72c-0.32-0.32-0.71-0.48-1.16-0.48h-18.05
				c-0.46,0-0.84,0.16-1.16,0.48c-1.96,1.87-3.87,3.44-5.74,4.72c-0.09,0.09-0.11,0.18-0.07,0.27c0.04,0.09,0.09,0.14,0.14,0.14
				h9.71c0.32,0,0.52-0.15,0.62-0.44c0.09-0.3,0.16-0.6,0.21-0.92c0.23-0.91,0.69-1.65,1.4-2.22c0.71-0.57,1.49-0.85,2.36-0.85
				c0.87,0,1.57,0.32,2.12,0.96c0.41,0.5,0.62,1.03,0.62,1.57c0,0.18-0.02,0.37-0.07,0.55C917.6,236.35,917.53,236.65,917.49,236.92
				z"/>
			<path class="st2" d="M1012.57,214.16c0.55-0.59,1.21-0.91,1.98-0.96c0.04,0,0.09,0,0.14,0c0.78,0,1.44,0.27,1.98,0.82
				c0.59,0.55,0.89,1.23,0.89,2.05s-0.32,1.53-0.96,2.12c-2.42,2.19-5.15,4.44-8.2,6.77c-0.37,0.27-0.46,0.62-0.27,1.03
				c2.46,6.06,5.45,10.82,8.96,14.29c0.68,0.64,1.03,1.41,1.03,2.32c0,0.82-0.3,1.55-0.89,2.19c-0.59,0.68-1.32,1.07-2.19,1.16
				c-0.09,0-0.21,0-0.34,0c-0.73,0-1.37-0.27-1.91-0.82c-6.93-7.2-11.85-19.16-14.77-35.89c-0.04-0.14-0.14-0.23-0.27-0.27
				c-0.14-0.04-0.25-0.02-0.34,0.07c-1.37,1.46-2.89,2.89-4.58,4.31c-0.37,0.32-0.39,0.64-0.07,0.96c3.01,2.83,5.4,6.19,7.18,10.08
				s2.83,7.65,3.14,11.25c0.09,1.23,0.14,2.42,0.14,3.55c0,2.19-0.21,4.26-0.62,6.22c-0.59,2.96-1.62,5.1-3.08,6.43
				c-1.78,1.82-4.15,2.78-7.11,2.87c-0.55,0-1.14-0.02-1.78-0.07c-0.87,0-1.62-0.32-2.26-0.96c-0.64-0.64-1.07-1.41-1.3-2.32
				c-0.18-0.64-0.07-1.23,0.34-1.78s0.93-0.8,1.57-0.75c0.82,0.05,1.57,0.07,2.26,0.07c1.64,0,2.87-0.59,3.69-1.78
				c0.82-0.87,1.41-2.32,1.78-4.38c0.23-1.14,0.34-2.39,0.34-3.76c0-1.05-0.04-2.12-0.14-3.21c-0.04-0.14-0.14-0.23-0.27-0.27
				c-0.14-0.04-0.27-0.02-0.41,0.07c-5.15,5.06-10.76,9.25-16.82,12.58c-0.55,0.23-1.09,0.34-1.64,0.34c-0.32,0-0.62-0.02-0.89-0.07
				c-0.82-0.23-1.53-0.68-2.12-1.37c-0.46-0.55-0.62-1.16-0.48-1.85s0.52-1.18,1.16-1.5c3.6-1.59,7.17-3.68,10.7-6.25
				c3.53-2.57,6.44-5.21,8.71-7.9c0.27-0.36,0.34-0.75,0.21-1.16c-0.32-0.91-0.75-1.94-1.3-3.08c-0.09-0.18-0.22-0.28-0.38-0.31
				c-0.16-0.02-0.31,0.01-0.45,0.1c-3.01,2.64-6.27,5.13-9.78,7.45c-0.68,0.41-1.39,0.64-2.12,0.68c-0.32,0-0.64-0.04-0.96-0.14
				c-1.05-0.27-1.94-0.84-2.67-1.71c-0.04-0.09-0.11-0.11-0.21-0.07c-0.09,0.05-0.14,0.11-0.14,0.21c-0.37,2.78-1.28,4.67-2.73,5.67
				c-1.09,0.73-2.37,1.19-3.83,1.37c-0.46,0.09-1,0.14-1.64,0.14c-0.04,0-0.09,0-0.14,0c-0.73,0-1.39-0.27-1.98-0.82
				c-0.64-0.55-1.07-1.25-1.3-2.12c-0.14-0.64-0.02-1.22,0.34-1.74c0.37-0.52,0.87-0.79,1.5-0.79c0.23,0,0.46-0.04,0.68-0.14
				c0.82,0,1.53-0.21,2.12-0.62c0.87-0.59,1.3-2.05,1.3-4.38c0-2.83-0.73-5.58-2.19-8.27c-1.37-2.51-2.05-4.9-2.05-7.18
				c0-1.14,0.16-2.23,0.48-3.28c0.87-2.69,1.8-5.81,2.8-9.37c0.04-0.18,0.01-0.34-0.1-0.48c-0.12-0.14-0.24-0.21-0.38-0.21h-6.15
				c-0.46,0-0.68,0.23-0.68,0.68v51.88c0,0.77-0.29,1.45-0.85,2.02c-0.57,0.57-1.24,0.85-2.02,0.85c-0.78,0-1.45-0.29-2.02-0.85
				c-0.57-0.57-0.85-1.24-0.85-2.02v-52.5c0-1.64,0.58-3.04,1.74-4.2s2.56-1.74,4.2-1.74h9.37c0.04,0,0.11,0,0.21,0
				c0.59-0.14,1.14-0.07,1.64,0.21l1.37,0.82c0.59,0.37,1.03,0.88,1.3,1.54c0.27,0.66,0.3,1.33,0.07,2.02
				c-2.32,6.84-4.19,12.05-5.61,15.65c-0.18,0.41-0.14,0.8,0.14,1.16c3.6,4.33,5.4,9,5.4,14.01c0,0.18,0.07,0.31,0.21,0.38
				s0.27,0.08,0.41,0.03c4.69-2.32,8.84-5.13,12.44-8.41c0.37-0.32,0.39-0.66,0.07-1.03c-0.59-0.77-1.25-1.53-1.98-2.26
				c-0.27-0.32-0.62-0.34-1.03-0.07c-1.78,1.23-3.67,2.42-5.67,3.55c-0.55,0.32-1.09,0.46-1.64,0.41c-0.27,0-0.55,0-0.82,0
				c-0.82-0.23-1.53-0.68-2.12-1.37c-0.46-0.55-0.62-1.18-0.48-1.91c0.14-0.73,0.55-1.25,1.23-1.57c5.01-2.46,9.37-5.35,13.06-8.68
				c0.09-0.04,0.11-0.13,0.07-0.24c-0.04-0.11-0.11-0.17-0.21-0.17h-10.53c-0.78,0-1.44-0.27-1.98-0.82s-0.82-1.21-0.82-1.98
				c0-0.77,0.27-1.44,0.82-1.98s1.21-0.82,1.98-0.82h5.47c0.18,0,0.32-0.07,0.41-0.21s0.11-0.3,0.07-0.48
				c-0.59-1.91-1.46-3.96-2.6-6.15c-0.37-0.64-0.42-1.3-0.17-1.98c0.25-0.68,0.72-1.14,1.4-1.37c0.41-0.14,0.81-0.21,1.2-0.21
				c0.39,0,0.79,0.07,1.2,0.21c0.78,0.27,1.37,0.78,1.78,1.5c1.14,2.01,2.05,3.94,2.73,5.81c0.18,0.55,0.14,1.09-0.14,1.64
				s-0.68,0.93-1.23,1.16c-0.04,0-0.07,0.01-0.07,0.03c0,0.02,0.02,0.03,0.07,0.03h13.74c0.04,0,0.07-0.01,0.07-0.03
				c0-0.02-0.02-0.03-0.07-0.03c-0.59-0.23-1-0.63-1.23-1.2c-0.23-0.57-0.18-1.13,0.14-1.67c1-1.87,1.85-3.67,2.53-5.4
				c0.37-0.82,0.96-1.44,1.78-1.85c0.5-0.27,1-0.41,1.5-0.41c0.32,0,0.64,0.05,0.96,0.14c0.82,0.23,1.41,0.73,1.78,1.5
				c0.14,0.37,0.21,0.73,0.21,1.09c0,0.41-0.11,0.8-0.34,1.16c-1.23,2.42-2.35,4.44-3.35,6.08c-0.04,0.14-0.03,0.27,0.04,0.41
				s0.17,0.21,0.31,0.21h6.9c0.78,0,1.44,0.27,1.98,0.82s0.82,1.21,0.82,1.98c0,0.78-0.27,1.44-0.82,1.98s-1.21,0.82-1.98,0.82
				h-11.62c-0.18,0-0.33,0.07-0.44,0.21c-0.12,0.14-0.17,0.3-0.17,0.48c0.73,3.92,1.66,7.72,2.8,11.42c0.04,0.18,0.15,0.3,0.31,0.34
				c0.16,0.05,0.28,0.02,0.38-0.07C1008.84,217.89,1010.84,215.98,1012.57,214.16z"/>
			<path class="st2" d="M1081.82,237.06c0,1.64-0.58,3.04-1.74,4.2s-2.56,1.74-4.21,1.74h-6.77c-0.04,0-0.08,0.02-0.1,0.07
				c-0.02,0.05,0.01,0.09,0.1,0.14c5.51,1.64,11.03,3.53,16.54,5.67c0.78,0.32,1.23,0.89,1.37,1.71c0,0.09,0,0.21,0,0.34
				c0,0.64-0.27,1.18-0.82,1.64c-0.87,0.68-1.87,1.09-3.01,1.23c-0.27,0.04-0.55,0.07-0.82,0.07c-0.82,0-1.62-0.16-2.39-0.48
				c-4.28-1.78-8.71-3.42-13.26-4.92c-1.09-0.36-1.75-1.14-1.98-2.32c0-0.18,0-0.36,0-0.55c0-0.91,0.39-1.64,1.16-2.19
				c0.04-0.04,0.04-0.13,0-0.24c-0.04-0.11-0.09-0.17-0.14-0.17h-19c-0.09,0-0.15,0.05-0.17,0.14c-0.02,0.09,0.01,0.16,0.1,0.21
				c1,0.64,1.48,1.5,1.44,2.6c0,1.32-0.57,2.26-1.71,2.8c-4.28,2-8.86,3.71-13.74,5.13c-0.55,0.18-1.09,0.27-1.64,0.27
				c-1.46,0-2.8-0.62-4.03-1.85c-0.37-0.37-0.55-0.8-0.55-1.3c0-0.14,0.02-0.3,0.07-0.48c0.14-0.68,0.55-1.12,1.23-1.3
				c6.38-1.73,11.58-3.69,15.59-5.88c0.09-0.04,0.13-0.11,0.1-0.21c-0.02-0.09-0.08-0.14-0.17-0.14h-5.61
				c-1.64,0-3.03-0.58-4.17-1.74s-1.71-2.56-1.71-4.2v-18.53c0-1.64,0.58-3.03,1.74-4.17c1.16-1.14,2.54-1.71,4.13-1.71h38.21
				c1.64,0,3.03,0.57,4.17,1.71c1.19,1.14,1.78,2.53,1.78,4.17V237.06z M1073.14,192.96c1.64,0,3.04,0.58,4.21,1.74
				s1.74,2.56,1.74,4.2v4.44c0,1.64-0.57,3.04-1.71,4.2s-2.55,1.74-4.24,1.74h-32.33c-1.69,0-3.1-0.58-4.24-1.74
				s-1.71-2.56-1.71-4.2v-4.44c0-1.64,0.57-3.04,1.71-4.2s2.55-1.74,4.24-1.74H1073.14z M1038.96,217.37
				c-0.46,0-0.68,0.23-0.68,0.68v2.6c0,0.46,0.23,0.68,0.68,0.68h35.34c0.46,0,0.68-0.23,0.68-0.68v-2.6c0-0.46-0.23-0.68-0.68-0.68
				H1038.96z M1038.96,225.78c-0.46,0-0.68,0.23-0.68,0.68v2.67c0,0.46,0.23,0.68,0.68,0.68h35.34c0.46,0,0.68-0.23,0.68-0.68v-2.67
				c0-0.46-0.23-0.68-0.68-0.68H1038.96z M1038.96,234.19c-0.46,0-0.68,0.23-0.68,0.68v2.73c0,0.46,0.23,0.68,0.68,0.68h35.34
				c0.46,0,0.68-0.23,0.68-0.68v-2.73c0-0.46-0.23-0.68-0.68-0.68H1038.96z M1071.5,204.18c0.46,0,0.68-0.23,0.68-0.68v-4.72
				c0-0.46-0.23-0.68-0.68-0.68h-29.46c-0.46,0-0.68,0.23-0.68,0.68v4.72c0,0.46,0.23,0.68,0.68,0.68H1071.5z"/>
		</g>
	</g>
</g>
<rect x="99" y="255" class="st4" width="144" height="133"/>
<g>
	<g>
		<g>
			<path d="M137.38,363.12c0,0.37,0,0.74,0,1.11c-0.01,0.21,0.04,0.4,0.13,0.58c0.06,0.19,0.16,0.35,0.31,0.48
				c0.14,0.15,0.3,0.25,0.48,0.31c0.18,0.09,0.37,0.14,0.58,0.13c0.13-0.02,0.27-0.04,0.4-0.05c0.25-0.07,0.47-0.2,0.66-0.39
				c0.08-0.1,0.16-0.2,0.23-0.3c0.14-0.23,0.2-0.49,0.2-0.76c0-0.37,0-0.74,0-1.11c0.01-0.21-0.04-0.4-0.13-0.58
				c-0.06-0.19-0.16-0.35-0.31-0.48c-0.14-0.15-0.3-0.25-0.48-0.31c-0.18-0.09-0.37-0.14-0.58-0.13c-0.13,0.02-0.27,0.04-0.4,0.05
				c-0.25,0.07-0.47,0.2-0.66,0.39c-0.08,0.1-0.16,0.2-0.23,0.3C137.45,362.59,137.38,362.84,137.38,363.12L137.38,363.12z"/>
		</g>
	</g>
	<g>
		<g>
			<path class="st5" d="M128.45,335.94c0.56,0.65,1.13,1.31,1.69,1.96c0.13,0.15,0.34-0.07,0.21-0.21
				c-0.56-0.65-1.13-1.31-1.69-1.96C128.54,335.58,128.33,335.79,128.45,335.94L128.45,335.94z"/>
		</g>
	</g>
	<g>
		<g>
			<path class="st5" d="M128.57,335.07c0.73,1.12,1.57,2.16,2.5,3.13c0.13,0.14,0.35-0.07,0.21-0.21c-0.91-0.95-1.73-1.97-2.45-3.07
				C128.73,334.76,128.47,334.91,128.57,335.07L128.57,335.07z"/>
		</g>
	</g>
	<g>
		<g>
			<path class="st5" d="M163.18,331.72c-9.87-0.05-19.74,0.08-29.61,0.39c-0.19,0.01-0.19,0.31,0,0.3
				c9.87-0.31,19.74-0.44,29.61-0.39C163.37,332.02,163.37,331.72,163.18,331.72L163.18,331.72z"/>
		</g>
	</g>
	<g>
		<path class="st6" d="M96.54,302.19c-7.3,4.53-11.65,11.26-11.67,18.04c0,2.84,0.67,5.86-1.17,8.4c-1.25,1.73-3.57,3.07-4.39,4.92
			c-0.77,1.76-0.05,3.65,0.88,5.38c0.94,1.76,2.1,3.46,3.45,5.09c0.73,0.88,1.59,1.79,2.91,2.23c1.98,0.67,4.33,0.1,6.38-0.46
			c3.7-1.02,7.47-2.07,10.58-3.8c3.76-2.09,6.31-5.04,8.39-8.05c3.32-4.8,5.66-10.05,5.27-15.37c-0.39-5.31-3.84-10.69-10.19-13.69
			c-4.38-2.06-10.77-2.72-14.72-0.29"/>
	</g>
	<path class="st7" d="M108.21,412.45c-10.6,2.87-20.17,3.21-23.55,0c-0.65-0.62-1.44-1.72,0-10.17c1.35-7.96,2.08-11.97,4.71-13.56
		c6.16-3.73,17.33-0.46,18.84,0V412.45z"/>
	<path class="st7" d="M160.02,412.45c10.6,2.87,20.17,3.21,23.55,0c0.65-0.62,1.44-1.72,0-10.17c-1.35-7.96-2.08-11.97-4.71-13.56
		c-6.16-3.73-17.33-0.46-18.84,0V412.45z"/>
	<g>
		<path class="st7" d="M146.72,359.79c-0.03,1.54-0.06,3.08-0.09,4.61c-0.01,0.45-0.01,0.92,0.19,1.33c0.25,0.5,0.77,0.85,1.21,1.24
			c2.46,2.21,2.06,6.11-0.24,8.46c-2.3,2.35-5.97,3.33-9.49,3.42c-4.54,0.12-9.2-1.14-12.59-3.82c-3.38-2.68-5.33-6.82-4.63-10.78
			c0.05-0.3,0.14-0.63,0.41-0.82c0.74-0.53,1.97,0.42,2.76-0.06c0.36-0.21,0.45-0.63,0.52-1c0.53-2.82,1.06-5.64,1.58-8.46
			c5.02,4.85,13.02,7.16,20.33,5.86"/>
	</g>
	<path class="st8" d="M157.48,360.89c-12.75,3.49-24.97,0.49-26.99,0c-16.21-3.97-26.9-16.06-26.99-30.37
		c8.69-3.35,19.51-6.96,32.39-10.12c14.12-3.47,27.06-5.52,37.78-6.75c0,5.62,0,11.25,0,16.87c0,6.75,0,10.12,0,10.12
		c0.27,7.6,0.92,8.15,0,10.12C170.63,357.3,159.22,360.42,157.48,360.89z"/>
	<g>
		<path class="st7" d="M109.73,336.77c-1.01-0.81-2.03-1.64-3.33-2.22c-1.3-0.58-2.93-0.91-4.41-0.61c-1.45,0.29-2.58,1.14-3.16,2.1
			c-0.58,0.97-0.68,2.04-0.6,3.08c0.18,2.26,1.22,4.53,3.23,6.32c2.01,1.79,5.02,3.08,8.28,3.3c0.81,0.06,1.67,0.04,2.39-0.23
			c0.91-0.35,1.42-1.06,1.54-1.77s-0.09-1.43-0.32-2.13c-1-2.99-2.43-5.92-4.28-8.71"/>
		<g>
			<path class="st7" d="M109.84,336.67c-2.51-2.02-5.84-4-9.11-2.47c-3.08,1.45-3.1,5.1-1.9,7.87c1.27,2.92,3.92,4.93,6.86,5.98
				c2.12,0.76,7.25,2.09,8.1-1.09c0.22-0.8-0.03-1.63-0.28-2.38c-0.32-0.96-0.68-1.91-1.08-2.84c-0.89-2.06-1.98-4.03-3.21-5.91
				c-0.11-0.16-0.37-0.01-0.26,0.15c1.73,2.63,3.17,5.44,4.18,8.42c0.27,0.78,0.59,1.65,0.37,2.48c-0.23,0.85-0.95,1.39-1.77,1.61
				c-1.5,0.4-3.29,0.04-4.76-0.35c-2.77-0.73-5.44-2.28-7.06-4.7c-1.53-2.28-2.52-6.17-0.16-8.25c1.4-1.23,3.38-1.43,5.14-1
				c1.82,0.44,3.3,1.53,4.74,2.69C109.77,337,109.99,336.79,109.84,336.67L109.84,336.67z"/>
		</g>
	</g>
	<g>
		<g>
			<path class="st6" d="M161.82,302.6c-1.04-1.57-2.41-3.1-4.48-4.07c-1.76-0.83-3.89-1.18-5.96-1.51
				c-8.26-1.31-16.63-2.51-25.11-2.54c-8.48-0.03-17.15,1.19-24.26,4.38c-3.32,1.49-6.22,3.46-8.46,5.72
				c1.47,2.07,2.23,4.37,1.94,6.77c-0.07,0.54-0.16,1.07-0.24,1.6c0.35,2.02,0.27,4.08-0.3,6.06c-0.28,0.98-0.58,1.95-0.9,2.91
				c-0.17,0.51-0.47,0.98-0.72,1.46c-0.68,2.99-1.44,5.98-2.29,8.94c-0.05,0.17-0.13,0.32-0.19,0.49c1.02,0.07,2.16-0.32,3.18-0.11
				c1.27,0.26,1.76,1.41,1.32,2.28c-0.43,0.86-1.49,1.5-2.5,2.09l-10.51,6.12c-1.83,1.07-3.75,2.21-4.5,3.79
				c-0.7,1.47-0.29,3.07,0.22,4.57c1.25,3.7,3.18,7.49,7.28,10.02c3.41,2.1,8.48,3.59,9.13,6.72c0.41,1.97-1.2,3.85-2.87,5.46
				c3.76,1.67,8.8,0.47,12.49-1.27c3.68-1.75,7.03-4.06,11.37-4.77c2.15-0.35,4.47-0.3,6.43-1c2.13-0.77,3.47-2.34,3.98-3.97
				c0.51-1.63,0.28-3.32-0.03-4.97c-0.06-0.34-0.14-0.68-0.35-0.99c-0.53-0.74-1.76-1.07-2.83-1.43c-4.29-1.41-7.63-4.14-8.95-7.3
				c-3.1,0.36-6.44,0.7-9.27-0.25c-2.65-0.89-4.36-2.79-5.01-4.78c-0.65-1.99-0.36-4.06,0.12-6.07c0.17-0.72,0.4-1.49,1.14-2.02
				c1.7-1.23,4.87-0.35,6.23,1.06c1.36,1.42,1.73,3.2,3,4.66c1.27,1.46,4.24,2.52,6.16,1.46c0.3-0.17,0.57-0.39,0.63-0.66
				c0.11-0.42-0.29-0.82-0.63-1.17c-2.95-3-4.05-6.85-2.97-10.4c4.39,0.54,9.01,0.15,13.08-1.11c1.97-0.61,3.86-1.43,5.99-1.69
				c2.03-0.25,4.11,0.02,6.18,0.03c8.5,0.02,15.5-4.39,21.56-8.51c1.65-1.12,3.34-2.29,4.16-3.79c0.58-1.05,0.68-2.2,0.65-3.33
				C164.66,308.42,163.66,305.38,161.82,302.6z"/>
		</g>
		<g>
			<path class="st6" d="M158.22,304.61c5.79,1.65,11,4.14,15.97,6.78c1.98,1.05,3.94,2.15,5.49,3.5c3.01,2.64,4.2,6.19,3.53,9.52
				s-3.12,6.45-6.55,8.83c-0.9,0.62-1.88,1.21-2.56,1.95c-0.68,0.74-1.03,1.7-0.55,2.52c0.29,0.49,0.84,0.87,1.36,1.25
				c2.7,1.97,5.06,4.17,6.99,6.54c1.06,1.29,2,2.65,2.41,4.11c0.79,2.8-0.48,5.74-2.8,8.1c-2.32,2.35-5.61,4.17-9.1,5.69
				c-2.09,0.91-4.3,1.73-6.69,2.15c-2.29,0.4-4.68,0.43-7.04,0.42c-3.14-0.01-6.28-0.06-9.41-0.23c-1.25-0.07-2.54-0.16-3.63-0.6
				s-1.9-1.31-1.63-2.16c0.46-1.43,3.2-1.66,5.3-1.81c4.89-0.34,9.45-1.94,13.38-3.97c2.87-1.49,5.54-3.28,7.02-5.55
				c2.95-4.48,0.76-9.66,0.24-14.57c-0.43-4.06,0.31-8.15-0.14-12.2c-0.46-4.06-2.37-8.3-6.96-10.85c-1.02-0.57-2.16-1.04-3.05-1.7
				c-1.12-0.83-1.78-1.92-2.15-3.03c-0.56-1.65-0.52-3.41,0.11-5.05"/>
		</g>
	</g>
	<g>
		<g>
			<path class="st7" d="M100.37,337.72c0.02-0.81,0.23-1.6,0.84-2.17c0.55-0.51,1.37-0.75,2.11-0.74c0.39,0.01,0.82,0.08,1.15,0.32
				c0.14,0.1,0.3,0.26,0.31,0.44c0.01,0.22-0.23,0.33-0.4,0.41c-0.41,0.18-0.88,0.27-1.32,0.36c-0.39,0.08-0.81,0.17-1.21,0.07
				c-0.15-0.03-0.37-0.12-0.2-0.28c0.15-0.13,0.4-0.18,0.59-0.22c0.56-0.12,1.13-0.24,1.7-0.36c0.19-0.04,0.11-0.33-0.08-0.29
				c-0.65,0.14-1.32,0.23-1.96,0.42c-0.3,0.09-0.77,0.31-0.6,0.71c0.16,0.34,0.7,0.36,1.01,0.35c0.58-0.02,1.18-0.18,1.73-0.34
				c0.38-0.11,0.96-0.27,1.02-0.74c0.06-0.44-0.37-0.78-0.73-0.94c-0.87-0.38-1.96-0.21-2.78,0.23c-1.04,0.56-1.46,1.65-1.49,2.78
				C100.06,337.91,100.36,337.91,100.37,337.72L100.37,337.72z"/>
		</g>
	</g>
	<ellipse class="st6" cx="155.31" cy="312.02" rx="18.84" ry="14.67"/>
	<path class="st9" d="M174.15,310.39c-1.36-0.76-22.68-12.28-42.39-6.52c-9.74,2.85-15.14,8.92-18.84,13.04
		c-6.98,7.78-8.84,15.31-9.42,19.57c-0.69,0.16-2.56,0.5-4.71,0c-3.34-0.78-4.55-2.96-4.71-3.26c0.35-3.78,2.61-21.95,23.55-32.61
		c3.93-2,14.38-7.32,28.26-6.52c11.52,0.67,26.39,5.62,28.26,13.04C174.48,308.45,174.34,309.6,174.15,310.39z"/>
	<g>
		<path class="st10" d="M122.34,365.82c-2.58-1.36-9.42-0.05-22.99,2.66c-0.85,0.17-2.52,0.51-4.21,1.43
			c-1.64,0.88-2.69,2.17-3.71,3.42c-2.28,2.82-4.56,5.63-6.85,8.45c-1.16,1.43-2.34,2.92-2.5,4.55c-0.21,2.11,1.37,4.16,3.6,5.61
			c2.23,1.45,5.04,2.37,7.87,3.17c3.45,0.98,7,1.8,10.61,2.46c-1.37,5.55-2.73,11.1-4.1,16.66c22.45,0.72,44.93,0.93,67.41,0.65
			c0.66-0.01,1.38-0.03,1.87-0.34c0.52-0.32,0.6-0.86,0.64-1.34c0.41-4.81-0.31-9.67-2.12-14.32c-0.13-0.34-0.26-0.72-0.02-1.02
			c0.26-0.32,0.82-0.43,1.33-0.53c6.21-1.19,11.86-3.72,15.99-7.14c0.75-0.62,1.47-1.3,1.74-2.09c0.59-1.77-1.42-3.17-3.28-5.16
			c-2.45-2.62-1.03-2.24-4.76-7.33c-3.38-4.61-5.17-5.79-7.08-6.53c-1.63-0.63-3.06-0.84-4.04-0.96c-6.7-0.78-13.41-1.57-20.11-2.35
			c0.71,0.57,2.66,2.28,2.27,4.34c-0.46,2.42-5.15,4.44-9.07,5.05c-4.89,0.76-10.43-0.35-13.78-2.82
			C123.3,369.59,125.49,367.48,122.34,365.82z"/>
	</g>
	<g>
		<g>
			<path class="st9" d="M108.21,366.84c1.9-0.42,3.81-0.83,5.71-1.25c0.24-0.05,0.5-0.11,0.74-0.05c0.37,0.09,0.56,0.42,0.7,0.72
				c3.24,6.74,5.32,13.85,6.17,21.04c0.01,0.11,0.02,0.23-0.05,0.32c-0.08,0.1-0.23,0.15-0.37,0.19c-2.12,0.57-4.25,1.11-6.39,1.61
				c-0.25,0.06-0.51,0.11-0.75,0.04c-0.19-0.06-0.33-0.2-0.45-0.34c-1.15-1.37-0.81-3.19-0.66-4.84c0.32-3.67-0.56-7.32-1.44-10.93
				c-0.57-2.33-1.19-4.75-3-6.62"/>
		</g>
		<g>
			<path class="st9" d="M149.05,366.47c2.45-0.15,4.98-0.3,7.3,0.3c2.6,0.67,4.66,2.22,6,4c1.33,1.78,2.02,3.78,2.55,5.77
				c1.05,3.9,1.59,7.88,1.62,11.86c-2.3,0.08-4.59,0.16-6.89,0.24c-0.17,0.01-0.36,0.01-0.51-0.06c-0.21-0.1-0.25-0.31-0.27-0.49
				c-0.48-3.89-1.09-7.8-2.59-11.55s-3.94-7.36-7.69-10.13"/>
		</g>
		<g>
			<path class="st9" d="M121.34,387.59c15.61-0.12,31.21-0.24,46.82-0.35c1.32,9.02,1.96,18.08,1.93,27.14
				c-7.05,0.63-14.18,0.6-21.28,0.57c-16.21-0.07-32.41-0.13-48.62-0.2c-0.39-0.71,0.04-1.5,0.48-2.2c1.73-2.76,3.69-5.45,5.87-8.05
				c5.7-9.71,7.76-13.7,7.77-14.42c0-0.1-0.03-0.65,0.49-1.12c0.25-0.23,0.62-0.38,0.99-0.51c1.68-0.6,6.26-0.98,6.55-1.01"/>
		</g>
	</g>
	<ellipse class="st11" cx="138.83" cy="377.23" rx="2.35" ry="1.63"/>
	<ellipse class="st11" cx="138.83" cy="383.76" rx="2.35" ry="1.63"/>
	<g>
		<g>
			<path class="st7" d="M146.93,366.24c1.1,1.01,1.97,2.28,2.32,3.75c0.04,0.19,0.33,0.11,0.29-0.08c-0.36-1.52-1.26-2.84-2.4-3.88
				C147,365.89,146.79,366.1,146.93,366.24L146.93,366.24z"/>
		</g>
	</g>
	<g>
		<g>
			<path d="M134.8,351.55c0.49,0.99,1.65,1.5,2.62,1.91c1.21,0.51,2.47,0.88,3.76,1.12c2.61,0.48,5.38,0.44,7.93-0.39
				c0.18-0.06,0.1-0.35-0.08-0.29c-2.41,0.78-5.03,0.86-7.52,0.43c-1.13-0.19-2.24-0.49-3.32-0.89c-1.08-0.4-2.58-0.93-3.13-2.04
				C134.98,351.22,134.72,351.38,134.8,351.55L134.8,351.55z"/>
		</g>
	</g>
	<g>
		<g>
			<path class="st7" d="M100.8,337.93c-0.37-0.89,0.07-1.79,0.74-2.39c0.41-0.36,0.9-0.62,1.41-0.79c0.28-0.09,0.57-0.17,0.87-0.19
				c0.14-0.01,0.29-0.02,0.43,0.02c0.06,0.02,0.13,0.04,0.15,0.1c0.03,0.08-0.06,0.16-0.11,0.22c-0.27,0.27-0.66,0.44-0.98,0.64
				c-0.37,0.23-0.74,0.46-1.1,0.68c0.08,0.04,0.15,0.09,0.23,0.13c0.02-0.34,0.03-0.68,0.05-1.02c0.01-0.15-0.2-0.2-0.28-0.08
				c-0.21,0.33-0.42,0.66-0.62,1c-0.1,0.16,0.16,0.31,0.26,0.15c0.21-0.33,0.42-0.66,0.62-1c-0.09-0.03-0.19-0.05-0.28-0.08
				c-0.02,0.34-0.03,0.68-0.05,1.02c-0.01,0.11,0.13,0.19,0.23,0.13c0.39-0.24,0.78-0.48,1.17-0.72c0.34-0.21,0.75-0.39,1.02-0.69
				c0.19-0.21,0.25-0.51-0.02-0.7c-0.27-0.18-0.64-0.14-0.94-0.09c-1.19,0.19-2.46,0.87-3,2.01c-0.26,0.54-0.31,1.15-0.07,1.71
				C100.58,338.18,100.87,338.1,100.8,337.93L100.8,337.93z"/>
		</g>
	</g>
	<g>
		<g>
			<path class="st7" d="M103.71,335.42c0.22-0.27,0.52-0.5,0.85-0.62c0.31-0.11,0.77-0.11,0.86,0.29c0.04,0.2,0.03,0.42,0.03,0.62
				c0.01,0.26,0.02,0.53,0.03,0.79c0.02,0.51,0.03,1.01,0.05,1.52c0.01,0.19,0.31,0.19,0.3,0c-0.02-0.62-0.04-1.23-0.06-1.85
				c-0.01-0.29-0.02-0.57-0.03-0.86c-0.01-0.2-0.03-0.41-0.16-0.58c-0.25-0.33-0.7-0.35-1.06-0.24c-0.4,0.13-0.76,0.39-1.02,0.71
				C103.37,335.35,103.58,335.56,103.71,335.42L103.71,335.42z"/>
		</g>
	</g>
	<g>
		<g>
			<path class="st7" d="M105.42,335.03c0.87,0.85,1.51,1.95,1.58,3.18c0.01,0.19,0.31,0.19,0.3,0c-0.08-1.31-0.74-2.49-1.67-3.39
				C105.49,334.68,105.28,334.89,105.42,335.03L105.42,335.03z"/>
		</g>
	</g>
	<g>
		<g>
			<path class="st7" d="M104.04,346.24c3.78,1.7,7.88,2.6,12.01,2.84c0.18,0.01,0.19-0.24,0.04-0.29c-2.06-0.74-4.19-1.28-6.36-1.61
				c-1.09-0.17-2.18-0.29-3.28-0.35c-0.34-0.02-1.21-0.11-1.18,0.45c0.03,0.59,1.24,0.83,1.65,0.98c1.03,0.36,2.09,0.65,3.17,0.86
				c2.09,0.42,4.21,0.57,6.34,0.48c0.19-0.01,0.19-0.31,0-0.3c-1.8,0.08-3.6-0.02-5.38-0.31c-0.88-0.14-1.74-0.33-2.6-0.57
				c-0.38-0.11-0.77-0.22-1.14-0.35c-0.38-0.13-0.93-0.24-1.27-0.47c-0.22-0.05-0.31-0.2-0.29-0.46c0.1-0.01,0.2-0.02,0.3-0.03
				c0.21-0.01,0.43,0.02,0.64,0.03c0.47,0.03,0.93,0.07,1.39,0.12c0.95,0.1,1.89,0.24,2.82,0.42c1.74,0.33,3.45,0.8,5.11,1.4
				c0.01-0.1,0.03-0.2,0.04-0.29c-4.08-0.24-8.13-1.13-11.86-2.8C104.01,345.9,103.86,346.16,104.04,346.24L104.04,346.24z"/>
		</g>
	</g>
	<g>
		<g>
			<path class="st7" d="M105.28,334.78c1.74,0.42,2.65,2,3.25,3.56c0.66,1.74,0.81,3.61,0.44,5.44c-0.02,0.08,0.04,0.2,0.14,0.19
				c1.94-0.26,1.64-3.08,1.4-4.47c-0.37-2.11-1.63-3.81-3.55-4.77c-0.15-0.07-0.31,0.11-0.18,0.24c2.84,2.73,5.05,6.12,5.93,9.99
				c0.02,0.08,0.11,0.12,0.18,0.1c1.04-0.23,1.2-1.22,0.82-2.1c-0.6-1.4-1.61-2.73-2.55-3.93c-1.78-2.28-3.99-4.98-7.09-5.18
				c-0.19-0.01-0.19,0.29,0,0.3c2.72,0.18,4.64,2.37,6.27,4.33c0.89,1.08,1.71,2.22,2.43,3.41c0.47,0.79,1.58,2.53,0.03,2.88
				c0.06,0.03,0.12,0.07,0.18,0.1c-0.88-3.92-3.13-7.36-6-10.12c-0.06,0.08-0.12,0.16-0.18,0.24c1.66,0.84,2.84,2.24,3.3,4.06
				c0.2,0.78,0.26,1.59,0.23,2.4c-0.03,0.9-0.1,2.08-1.22,2.23c0.05,0.06,0.1,0.13,0.14,0.19c0.41-1.98,0.22-4.02-0.56-5.89
				c-0.65-1.57-1.6-3.06-3.34-3.48C105.17,334.44,105.09,334.73,105.28,334.78L105.28,334.78z"/>
		</g>
	</g>
	<g>
		<path class="st12" d="M155.44,331.81c3.14-0.53,6.7,0.42,8.5,2.28c-3.02,0.03-6.04,0.04-9.06,0.02c-0.16,0-0.33,0-0.48-0.05
			c-0.36-0.13-0.39-0.48-0.31-0.75c0.14-0.52,0.49-1,0.99-1.4"/>
	</g>
	<g>
		<path class="st12" d="M134.29,331.81c-3.14-0.53-6.7,0.42-8.5,2.28c3.02,0.03,6.04,0.04,9.06,0.02c0.16,0,0.33,0,0.48-0.05
			c0.36-0.13,0.39-0.48,0.31-0.75c-0.14-0.52-0.49-1-0.99-1.4"/>
	</g>
	<g>
		<path class="st13" d="M125.02,343.4c0.19-1.17,1.18-2.2,2.13-3.17c0.74-0.76,1.58-1.57,2.84-1.85c0.53-0.12,1.1-0.13,1.65-0.13
			c1.28-0.01,2.58,0,3.82,0.23c1.24,0.23,2.42,0.7,3.14,1.44c0.93,0.96,0.92,2.22,0.63,3.36c-0.16,0.61-0.41,1.24-1.03,1.69
			c-0.92,0.66-2.4,0.74-3.73,0.7c-2.57-0.08-5.12-0.48-7.5-1.16c-0.95-0.27-1.97-0.67-2.23-1.36"/>
	</g>
	<g>
		<path class="st14" d="M129.71,339.28c-0.37,0.81-0.75,1.64-0.71,2.49c0.04,0.85,0.59,1.74,1.67,2.15
			c0.55,0.21,1.18,0.27,1.79,0.34c1.06,0.11,2.29,0.18,3.04-0.35c0.46-0.33,0.6-0.81,0.69-1.27c0.21-1.06,0.27-2.21-0.54-3.12
			c-0.65-0.73-1.84-1.22-3.08-1.26c-1.24-0.04-2.49,0.37-3.23,1.05"/>
	</g>
	<g>
		<g>
			<path class="st7" d="M133.67,340.09c0.1,0,0.1-0.15,0-0.15C133.57,339.94,133.57,340.09,133.67,340.09L133.67,340.09z"/>
		</g>
	</g>
	<g>
		<g>
			<path class="st15" d="M124.93,343.38c0.23-1.28,1.05-2.31,1.98-3.18c0.95-0.88,2.03-1.67,3.29-2.02c2.63-0.73,5.8-0.15,8.25,0.95
				c0.17,0.08,0.33-0.18,0.15-0.26c-2.56-1.15-5.96-1.79-8.7-0.91c-1.22,0.39-2.27,1.17-3.2,2.03c-0.96,0.9-1.82,1.99-2.06,3.31
				C124.6,343.49,124.89,343.57,124.93,343.38L124.93,343.38z"/>
		</g>
	</g>
	<g>
		<path class="st13" d="M167.35,343.4c-0.19-1.17-1.18-2.2-2.13-3.17c-0.74-0.76-1.58-1.57-2.84-1.85c-0.53-0.12-1.1-0.13-1.65-0.13
			c-1.28-0.01-2.58,0-3.82,0.23c-1.24,0.23-2.42,0.7-3.14,1.44c-0.93,0.96-0.92,2.22-0.63,3.36c0.16,0.61,0.41,1.24,1.03,1.69
			c0.92,0.66,2.4,0.74,3.73,0.7c2.57-0.08,5.12-0.48,7.5-1.16c0.95-0.27,1.97-0.67,2.23-1.36"/>
	</g>
	<g>
		<path class="st14" d="M162.66,339.28c0.37,0.81,0.75,1.64,0.71,2.49c-0.04,0.85-0.59,1.74-1.67,2.15
			c-0.55,0.21-1.18,0.27-1.79,0.34c-1.06,0.11-2.29,0.18-3.04-0.35c-0.46-0.33-0.6-0.81-0.69-1.27c-0.21-1.06-0.27-2.21,0.54-3.12
			c0.65-0.73,1.84-1.22,3.08-1.26c1.24-0.04,2.49,0.37,3.23,1.05"/>
	</g>
	<g>
		<g>
			<path class="st7" d="M158.7,340.09c0.1,0,0.1-0.15,0-0.15C158.61,339.94,158.6,340.09,158.7,340.09L158.7,340.09z"/>
		</g>
	</g>
	<g>
		<g>
			<path class="st15" d="M167.73,343.3c-0.23-1.29-1.04-2.35-1.97-3.23c-0.94-0.9-2.03-1.71-3.29-2.11
				c-2.74-0.88-6.14-0.24-8.7,0.91c-0.18,0.08-0.02,0.34,0.15,0.26c2.45-1.09,5.62-1.68,8.25-0.95c1.26,0.35,2.35,1.14,3.29,2.02
				c0.93,0.87,1.75,1.9,1.98,3.18C167.48,343.57,167.76,343.49,167.73,343.3L167.73,343.3z"/>
		</g>
	</g>
</g>
<g>
	<path class="st16" d="M191.13,322.03c2.23-2.83,3.32-5.38,3.9-7.14c1.09-3.31,1.36-6.57,1.36-6.57c0.27-2.46,0.7-4.91,1.31-7.32
		c0.11-0.42,0.23-0.87,0.57-1.16c0.33-0.28,0.8-0.36,1.24-0.4c4.62-0.48,9.25,0.5,13.89,0.62c5.87,0.15,11.75-1.09,17.58-0.44
		c0.44,0.05,0.92,0.13,1.21,0.45c0.24,0.26,0.3,0.62,0.36,0.97c0.43,2.68,0.87,5.36,1.3,8.04c0.17,1.03,0.34,2.06,0.74,3.02
		c0.43,1.02,1.1,1.91,1.71,2.83c1.2,1.79,2.22,3.7,3.03,5.68c0.45,1.1,0.78,2.51-0.09,3.35c-0.62,0.6-1.61,0.64-2.48,0.55
		c-2.17-0.21-4.27-0.89-6.37-1.46c-0.68-0.18-1.37-0.35-2.05-0.53c-2.33-0.62-8.88-1.46-24.53-2.55"/>
</g>
<g>
	<path class="st17" d="M190.11,322.68c-0.05-3.78,18-6.82,19.46-7.06c3.31-0.54,4.96-0.8,6.86-0.87c8.54-0.32,17.15,2.87,23.98,8.88
		c0.79,0.7,1.58,1.45,2.14,2.4c1.3,2.18,1.3,5.03,1.25,7.69c-0.58-0.22-1.49-0.54-2.61-0.88c-9.91-2.97-14.67-0.41-22.98-2.25
		c-4.6-1.02-3.53-1.89-10.09-4.02c-7.21-2.34-13.41-2.88-17.63-2.96C190.17,323.2,190.12,322.88,190.11,322.68z"/>
</g>
<g>
	<path class="st16" d="M183.64,364.25c2.45-1.24-1.54-8.61,1.45-18.66c0.97-3.26,2.12-4.96,3.03-6.04c0.98-1.17,3.4-3.66,9.11-5.36
		c1.62-0.48,5.94-1.62,17.99-0.48c11.13,1.05,16.79,2.91,20.04,4.17c4.94,1.91,6.57,3.34,7.65,4.47c3.97,4.11,3.91,9.64,3.93,12.18
		c0.07,6.84-2.94,11.95-4.53,14.25c6.72-3.06,11.06-6.92,13.56-9.53c3.21-3.36,5.57-6.26,6.7-10.76c1.04-4.12,0.26-8.82-2.75-11.9
		c-1.31-1.33-2.95-2.3-4.63-3.17c-8.59-4.41-18.53-6.31-28.2-5.39c-4.06,0.39-8.21,1.25-12.16,0.27c-3-0.74-5.62-2.49-8.51-3.56
		c-2.66-0.99-5.51-1.38-8.35-1.6c-3.79-0.28-11.22-0.95-18.35,2.85c-1.74,0.93-11.82,6.3-12.58,16.49
		c-0.63,8.51,5.69,14.41,9.03,17.53C177.95,361.77,181.68,365.25,183.64,364.25z"/>
</g>
<path class="st18" d="M245.32,362.94c-0.8,2.92-2.72,9.54-9.03,14.61c-7.76,6.24-16.88,5.97-21.07,5.84
	c-4.21-0.12-22.67-0.65-30.1-14.61c-6.69-12.56-1.15-29.82,9.03-35.06c3.16-1.63,9.17-1.11,21.07,0
	c15.76,1.47,23.71,2.27,27.09,5.84C249.63,347.29,245.97,360.57,245.32,362.94z"/>
<g>
	<ellipse class="st19" cx="201.66" cy="354.17" rx="5.27" ry="5.84"/>
	<g>
		<g>
			<path class="st20" d="M197.72,353.38c0.58,0,0.58-0.9,0-0.9C197.15,352.48,197.14,353.38,197.72,353.38L197.72,353.38z"/>
		</g>
	</g>
</g>
<g>
	<ellipse class="st19" cx="228.76" cy="354.17" rx="5.27" ry="5.84"/>
	<g>
		<g>
			<path class="st20" d="M225.15,353.38c0.58,0,0.58-0.9,0-0.9C224.57,352.48,224.57,353.38,225.15,353.38L225.15,353.38z"/>
		</g>
	</g>
</g>
<path class="st21" d="M221.23,365.86c-2.01,1.95-4.01,3.9-6.02,5.84c-2.01-1.95-4.01-3.9-6.02-5.84c2.01-2.92,4.01-5.84,6.02-8.77
	C217.22,360.02,219.22,362.94,221.23,365.86z"/>
<ellipse class="st22" cx="194.14" cy="365.86" rx="6.02" ry="5.84"/>
<ellipse class="st22" cx="233.27" cy="367.32" rx="6.02" ry="5.84"/>
<path class="st23" d="M234.78,368.78c0.11,0.18-8.3,8.02-18.06,8.77c-8.46,0.65-15.87-4.2-21.07-8.77c1.72,1.01,3.72,2.03,6.02,2.92
	c5.84,2.28,11.19,2.86,15.05,2.92c2.99-0.31,7.26-1.03,12.04-2.92C232.65,370.16,234.73,368.7,234.78,368.78z"/>
<g>
	<path class="st24" d="M228.37,345.64c0.41-0.72,1.51-0.76,2.26-0.37s1.28,1.07,1.94,1.59c-1.46-0.18-2.89-0.57-4.22-1.16"/>
</g>
<g>
	<path class="st24" d="M199.5,344.83c-0.15-0.61,0.39-1.18,0.96-1.47c0.98-0.49,2.33-0.47,3.03,0.36c0.05,0.06,0.1,0.13,0.08,0.2
		c-0.01,0.07-0.08,0.12-0.15,0.16c-1.21,0.74-2.76,0.96-4.14,0.58"/>
</g>
<g>
	<path class="st24" d="M213.77,377.22c0.48,1.26,0.88,2.54,1.21,3.84c0.14-0.8,0.27-1.6,0.41-2.39c0.07-0.4,0.13-0.84-0.1-1.18
		s-0.88-0.38-1,0.01"/>
</g>
<g>
	<g>
		<path class="st24" d="M222.84,372.11c1.07,1.55,1.77,3.33,2.02,5.2c0.01,0.09,0.16,0.1,0.15,0c-0.25-1.9-0.96-3.7-2.04-5.28
			C222.92,371.95,222.79,372.03,222.84,372.11L222.84,372.11z"/>
	</g>
</g>
<g>
	<g>
		<path class="st24" d="M204.85,371.16c-1.24,1.22-1.96,2.91-1.95,4.65c0,0.1,0.15,0.1,0.15,0c-0.01-1.7,0.69-3.35,1.9-4.54
			C205.03,371.2,204.92,371.09,204.85,371.16L204.85,371.16z"/>
	</g>
</g>
<g>
	<g>
		<path class="st24" d="M207.66,371.89c-0.06,0.59-0.26,1.15-0.59,1.64c-0.05,0.08,0.08,0.16,0.13,0.08
			c0.34-0.51,0.55-1.1,0.61-1.71C207.82,371.8,207.67,371.8,207.66,371.89L207.66,371.89z"/>
	</g>
</g>
<g>
	<g>
		<path class="st24" d="M229.39,370.05c0.32,0.56,0.63,1.12,0.95,1.69c0.05,0.08,0.18,0.01,0.13-0.08
			c-0.32-0.56-0.63-1.12-0.95-1.69C229.48,369.89,229.35,369.96,229.39,370.05L229.39,370.05z"/>
	</g>
</g>
<path class="st25" d="M239.29,383.39c-16.06,0-32.11,0-48.17,0c-3.82,6.48-7.63,12.96-11.45,19.44c2.71,0.64,5.53,1.01,8.44,1.01
	h48.17c3.93,0,7.71-0.64,11.26-1.78C244.79,395.84,242.04,389.62,239.29,383.39z"/>
<rect x="227.25" y="386.31" class="st26" width="6.02" height="11.69"/>
<rect x="197.15" y="386.31" class="st26" width="6.02" height="11.69"/>
<path class="st27" d="M239.29,385.04c-1.2,2.36-4.02,2.31-12.04,5c-10.33,3.47-10.81,5.29-15.05,5c-2.38-0.16-1.87-0.71-12.04-5
	c-6.34-2.67-8.15-3.14-9.03-5c-1.36-2.87,0.49-6.93,3.01-7.5c1.61-0.36,2.41,0.95,6.02,2.5c4.21,1.81,8.08,2.15,12.04,2.5
	c2.9,0.26,5.54,0.49,9.03,0c4.68-0.65,8.48-2.26,9.03-2.5c3.82-1.65,4.54-2.82,6.02-2.5C238.76,378.07,240.74,382.21,239.29,385.04z
	"/>
<g>
	<path class="st26" d="M225.71,398.47c2.93-0.02,5.85-0.03,8.78-0.05c0.19,0,0.4,0,0.55,0.12c0.38,0.31-0.06,0.89-0.1,1.37
		c-0.01,0.18,0.03,0.37-0.05,0.52c-0.13,0.24-0.47,0.26-0.75,0.24c-2.48-0.13-4.96-0.26-7.43-0.38c-0.37-0.02-0.77-0.05-1.05-0.28
		c-0.29-0.23-0.39-0.66-0.23-1c0.16-0.33,0.56-0.53,0.93-0.47"/>
	<g>
		<path class="st26" d="M225.71,398.62c1.84-0.01,3.69-0.02,5.53-0.03c0.89,0,1.78-0.01,2.67-0.01c0.2,0,0.52-0.06,0.72,0
			c0.52,0.17,0.41,0.39,0.33,0.68c-0.09,0.3-0.14,0.56-0.17,0.87c-0.07,0.6-0.79,0.41-1.23,0.39c-0.44-0.02-0.89-0.05-1.33-0.07
			c-0.89-0.05-1.78-0.09-2.67-0.14c-0.89-0.05-1.78-0.09-2.67-0.14c-0.43-0.02-1,0-1.28-0.4c-0.38-0.55,0.17-1.11,0.74-1.05
			c0.19,0.02,0.19-0.28,0-0.3c-1.2-0.12-1.59,1.51-0.45,1.92c0.31,0.11,0.66,0.12,0.99,0.13c0.54,0.03,1.08,0.06,1.62,0.08
			c0.98,0.05,1.97,0.1,2.95,0.15c0.51,0.03,1.02,0.05,1.52,0.08c0.46,0.02,0.94,0.1,1.39,0.06c0.2-0.02,0.41-0.06,0.55-0.21
			c0.22-0.24,0.12-0.56,0.18-0.85c0.09-0.45,0.47-1.07-0.06-1.39c-0.27-0.16-0.64-0.11-0.94-0.11c-0.51,0-1.02,0.01-1.53,0.01
			c-2.29,0.01-4.58,0.02-6.87,0.04C225.52,398.32,225.52,398.62,225.71,398.62L225.71,398.62z"/>
	</g>
</g>
<g>
	<path class="st26" d="M195.61,398.47c2.93-0.02,5.85-0.03,8.78-0.05c0.19,0,0.4,0,0.55,0.12c0.38,0.31-0.06,0.89-0.1,1.37
		c-0.01,0.18,0.03,0.37-0.05,0.52c-0.13,0.24-0.47,0.26-0.75,0.24c-2.48-0.13-4.96-0.26-7.43-0.38c-0.37-0.02-0.77-0.05-1.05-0.28
		c-0.29-0.23-0.39-0.66-0.23-1c0.16-0.33,0.56-0.53,0.93-0.47"/>
	<g>
		<path class="st26" d="M195.61,398.62c1.84-0.01,3.69-0.02,5.53-0.03c0.89,0,1.78-0.01,2.67-0.01c0.2,0,0.52-0.06,0.72,0
			c0.52,0.17,0.41,0.39,0.33,0.68c-0.09,0.3-0.14,0.56-0.17,0.87c-0.07,0.6-0.79,0.41-1.23,0.39c-0.44-0.02-0.89-0.05-1.33-0.07
			c-0.89-0.05-1.78-0.09-2.67-0.14c-0.89-0.05-1.78-0.09-2.67-0.14c-0.43-0.02-1,0-1.28-0.4c-0.38-0.55,0.17-1.11,0.74-1.05
			c0.19,0.02,0.19-0.28,0-0.3c-1.2-0.12-1.59,1.51-0.45,1.92c0.31,0.11,0.66,0.12,0.99,0.13c0.54,0.03,1.08,0.06,1.62,0.08
			c0.98,0.05,1.97,0.1,2.95,0.15c0.51,0.03,1.02,0.05,1.52,0.08c0.46,0.02,0.94,0.1,1.39,0.06c0.2-0.02,0.41-0.06,0.55-0.21
			c0.22-0.24,0.12-0.56,0.18-0.85c0.09-0.45,0.47-1.07-0.06-1.39c-0.27-0.16-0.64-0.11-0.94-0.11c-0.51,0-1.02,0.01-1.53,0.01
			c-2.29,0.01-4.58,0.02-6.87,0.04C195.42,398.32,195.42,398.62,195.61,398.62L195.61,398.62z"/>
	</g>
</g>
<g>
	<g>
		<path class="st28" d="M227.58,403.82c0.44-0.6,0.9-1.18,1.4-1.74c0.44-0.49,0.99-1,1.66-1.15c0.74-0.16,1.27,0.33,1.73,0.85
			c0.49,0.56,0.93,1.16,1.33,1.8c0.1,0.16,0.36,0.01,0.26-0.15c-0.43-0.7-0.93-1.37-1.48-1.98c-0.47-0.52-1.04-0.93-1.77-0.82
			c-0.69,0.1-1.28,0.57-1.75,1.06c-0.6,0.61-1.12,1.3-1.63,1.99C227.2,403.83,227.46,403.97,227.58,403.82L227.58,403.82z"/>
	</g>
</g>
<g>
	<g>
		<path class="st28" d="M197.34,404.11c0.58-0.68,1.15-1.38,1.74-2.05c0.48-0.54,1.11-1.18,1.88-1.18c0.82,0,1.34,0.73,1.7,1.37
			c0.34,0.6,0.64,1.21,1.21,1.64c0.15,0.12,0.3-0.14,0.15-0.26c-1.13-0.85-1.37-3.16-3.16-3.05c-0.73,0.05-1.34,0.56-1.82,1.07
			c-0.67,0.72-1.28,1.49-1.92,2.24C197.01,404.04,197.22,404.25,197.34,404.11L197.34,404.11z"/>
	</g>
</g>
<g>
	<path class="st16" d="M198.38,300.67c-0.28-0.36-0.14-0.87,0.02-1.29c1.8-4.61,5.74-8.13,9.87-11c0.77-0.53,1.57-1.06,2.49-1.27
		c0.65-0.15,1.32-0.12,1.99-0.1c6.12,0.21,12.25,0.44,18.37,0.7c-1.79,4.51-1.31,9.8,1.27,13.94c-2.38,0.33-4.79,0.25-7.19,0.17
		c-7.12-0.23-14.24-0.47-21.36-0.7c-1.96-0.06-4.1-0.2-5.54-1.49"/>
	<g>
		<path class="st16" d="M198.51,300.6c-0.51-1.09,0.86-3,1.43-3.91c0.76-1.21,1.65-2.32,2.63-3.35c1.78-1.87,3.82-3.49,5.94-4.93
			c1.28-0.87,2.48-1.28,4.04-1.24c1.56,0.04,3.11,0.11,4.67,0.16c3.14,0.11,6.29,0.23,9.43,0.36c0.74,0.03,1.49,0.06,2.23,0.09
			c0.38,0.02,1.75-0.17,1.95,0.28c0.1,0.23-0.46,1.49-0.52,1.74c-0.14,0.6-0.24,1.21-0.31,1.82c-0.26,2.28-0.01,4.62,0.71,6.79
			c0.17,0.52,0.37,1.04,0.6,1.54c0.12,0.26,0.82,1.24,0.74,1.44c-0.25,0.66-3.77,0.36-4.45,0.35c-3.12-0.04-6.24-0.19-9.36-0.29
			c-3.39-0.11-6.79-0.22-10.18-0.33c-1.65-0.05-3.31-0.08-4.96-0.17c-1.68-0.09-3.35-0.31-4.69-1.42c-0.15-0.12-0.36,0.09-0.21,0.21
			c1.6,1.32,3.65,1.46,5.64,1.53c3.23,0.12,6.46,0.21,9.69,0.32c3.15,0.1,6.29,0.21,9.44,0.31c3.14,0.1,6.3,0.3,9.43-0.1
			c0.11-0.01,0.19-0.12,0.13-0.23c-2.53-4.18-2.99-9.26-1.25-13.82c0.04-0.1-0.06-0.19-0.14-0.19c-4.14-0.17-8.27-0.34-12.41-0.49
			c-1.99-0.07-3.97-0.16-5.96-0.21c-1.55-0.04-2.74,0.2-4.06,1.05c-2.6,1.69-5.1,3.73-7.13,6.08c-0.94,1.09-1.79,2.27-2.47,3.54
			c-0.49,0.9-1.32,2.18-0.84,3.21C198.34,300.92,198.59,300.77,198.51,300.6L198.51,300.6z"/>
	</g>
</g>
<path class="st3" d="M75.75,226.5v189h189v-189H75.75z M242.25,387.5h-144v-133h144V387.5z"/>
<rect x="1678" y="255" class="st4" width="144" height="133"/>
<g>
	<path class="st29" d="M1807.16,393.62c2.22,0,4.44,0,6.65,0c9.11-11.89,13.2-22.41,9.72-25.97c-1.02-1.04-3.67-2.5-6.79-2.28
		c-3.09,0.22-5.16,2-5.86,2.66C1809.65,376.56,1808.4,385.09,1807.16,393.62z"/>
	<path class="st29" d="M1760.88,393.62c-2.22,0-4.44,0-6.65,0c-9.11-11.89-13.2-22.41-9.72-25.97c1.02-1.04,3.67-2.5,6.79-2.28
		c3.09,0.22,5.16,2,5.86,2.66C1758.4,376.56,1759.64,385.09,1760.88,393.62z"/>
	<path class="st30" d="M1805.61,399.59c6.24,0.04,12.49,0.08,18.73,0.12c0.27-0.44,0.58-1.14,0.55-1.98
		c-0.07-1.93-1.92-3.21-3.17-4.07c-1.11-0.77-3.91-2.71-8.13-2.56c-4.58,0.16-7.35,2.67-7.85,3.14c-0.23,0.27-1.82,2.2-0.96,4.19
		C1805,398.91,1805.3,399.29,1805.61,399.59z"/>
	<g>
		<g>
			<path d="M1815.12,399.34c0.07-1.08,0.12-2.15,0.14-3.23c0.01-0.89-0.07-1.83-0.96-2.28c-0.75-0.38-1.65-0.33-2.38,0.05
				c-0.77,0.41-1.29,1.15-1.57,1.95c-0.18,0.52-0.27,1.07-0.38,1.61c-0.11,0.6-0.23,1.2-0.34,1.8c-0.09,0.47,0.63,0.67,0.72,0.2
				c0.17-0.88,0.32-1.77,0.51-2.65c0.16-0.75,0.42-1.48,1.02-1.99c0.51-0.44,1.21-0.61,1.86-0.4c0.8,0.26,0.78,1.05,0.77,1.75
				c-0.02,1.06-0.07,2.12-0.14,3.18C1814.33,399.83,1815.08,399.82,1815.12,399.34L1815.12,399.34z"/>
		</g>
	</g>
	<g>
		<g>
			<path d="M1819.1,399.4c0.08-0.9,0.13-1.8,0.11-2.7c-0.02-0.78-0.14-1.62-0.65-2.24c-0.5-0.61-1.3-0.77-2.02-0.49
				c-0.77,0.3-1.31,1.01-1.86,1.6c-0.33,0.35,0.2,0.88,0.53,0.53c0.45-0.48,0.91-1.11,1.51-1.39c0.57-0.27,1.12-0.09,1.42,0.46
				c0.32,0.57,0.33,1.26,0.32,1.9c-0.01,0.78-0.04,1.56-0.11,2.34C1818.31,399.88,1819.06,399.88,1819.1,399.4L1819.1,399.4z"/>
		</g>
	</g>
	<g>
		<g>
			<path d="M1822.32,399.64c0.07-1.82,0.03-3.68-1.19-5.15c-0.31-0.37-0.84,0.16-0.53,0.53c1.07,1.29,1.03,3.03,0.97,4.62
				C1821.55,400.12,1822.3,400.12,1822.32,399.64L1822.32,399.64z"/>
		</g>
	</g>
	<path class="st30" d="M1762.33,399.47c-5.51,0.04-11.02,0.07-16.53,0.11c-0.24-0.41-0.51-1.04-0.49-1.8
		c0.06-1.76,1.7-2.92,2.8-3.71c0.98-0.7,3.45-2.47,7.17-2.33c4.04,0.15,6.49,2.43,6.93,2.86c0.2,0.24,1.61,2.01,0.85,3.82
		C1762.87,398.85,1762.6,399.2,1762.33,399.47z"/>
	<g>
		<g>
			<path d="M1754.65,399.25c-0.06-0.84-0.09-1.68-0.11-2.52c-0.01-0.59-0.18-1.5,0.43-1.85c0.5-0.3,1.15-0.19,1.62,0.12
				c0.57,0.38,0.85,1.02,1.01,1.66c0.22,0.89,0.35,1.8,0.52,2.7c0.09,0.47,0.81,0.27,0.72-0.2c-0.17-0.91-0.29-1.84-0.53-2.74
				c-0.21-0.8-0.6-1.54-1.28-2.02c-0.61-0.43-1.44-0.57-2.14-0.3c-0.35,0.13-0.65,0.35-0.84,0.67c-0.22,0.36-0.26,0.78-0.26,1.19
				c-0.01,1.1,0.05,2.2,0.13,3.29C1753.93,399.73,1754.68,399.73,1754.65,399.25L1754.65,399.25z"/>
		</g>
	</g>
	<g>
		<g>
			<path d="M1751.13,399.3c-0.06-0.68-0.09-1.36-0.1-2.04c-0.01-0.59-0.02-1.24,0.26-1.78c0.25-0.48,0.69-0.68,1.2-0.44
				c0.54,0.26,0.94,0.84,1.33,1.27c0.33,0.36,0.86-0.17,0.53-0.53c-0.5-0.54-0.98-1.19-1.68-1.47c-0.68-0.27-1.4-0.08-1.84,0.5
				c-0.44,0.57-0.54,1.33-0.55,2.03c-0.02,0.82,0.03,1.64,0.1,2.46C1750.42,399.78,1751.17,399.78,1751.13,399.3L1751.13,399.3z"/>
		</g>
	</g>
	<g>
		<g>
			<path d="M1748.29,399.52c-0.05-1.43-0.1-3.01,0.84-4.19c0.13-0.16,0.15-0.38,0-0.53c-0.13-0.13-0.4-0.16-0.53,0
				c-1.09,1.36-1.12,3.06-1.06,4.72C1747.56,400,1748.31,400,1748.29,399.52L1748.29,399.52z"/>
		</g>
	</g>
	<g>
		<path class="st31" d="M1805.6,400.3c-14.51-0.08-29.01-0.17-43.52-0.25c-2.34-5.72-4.87-13.59-5.99-23.19
			c-1.07-9.22-0.5-17.14,0.4-23.07c18.5-0.25,37-0.5,55.5-0.75c0.47,6.31,0.53,13.96-0.53,22.56
			C1810.25,385.4,1807.94,393.74,1805.6,400.3z"/>
		<path class="st29" d="M1802.74,400.3c-12.79-0.08-25.59-0.17-38.38-0.25c-2.06-5.72-4.3-13.59-5.28-23.19
			c-0.94-9.22-0.44-17.14,0.35-23.07c16.31-0.25,32.63-0.5,48.94-0.75c0.42,6.31,0.46,13.96-0.47,22.56
			C1806.85,385.4,1804.81,393.74,1802.74,400.3z"/>
		<rect x="1777.92" y="363.57" class="st32" width="10.51" height="36.6"/>
	</g>
	<path class="st33" d="M1825.3,329.01c-0.21,1.61-1.29,9.1-6.92,16.85c-6.35,8.74-18.22,17.5-33.74,17.99
		c-14.37,0.46-30.04-6.23-38-20.15c-7.68-13.43-6.4-30.48,3.46-42.06c10.81-12.7,27.26-13.36,32.21-13.56
		c5.37-0.21,20.41-0.82,32.07,10.14C1827.4,310.45,1825.55,327.06,1825.3,329.01z"/>
	<line class="st34" x1="1797.22" y1="304.56" x2="1804.8" y2="292.14"/>
	<line class="st34" x1="1790.16" y1="302.53" x2="1793.09" y2="288.72"/>
	<line class="st34" x1="1776.32" y1="302.78" x2="1773.13" y2="288.59"/>
	<line class="st34" x1="1768.74" y1="304.05" x2="1761.28" y2="292.27"/>
	<line class="st34" x1="1758.09" y1="302.53" x2="1753.43" y2="296.95"/>
	<line class="st34" x1="1752.76" y1="305.95" x2="1748.11" y2="303.8"/>
	<line class="st34" x1="1758.09" y1="317.86" x2="1743.18" y2="313.3"/>
	<line class="st34" x1="1757.16" y1="322.29" x2="1742.65" y2="320.65"/>
	<line class="st34" x1="1757.16" y1="326.85" x2="1741.98" y2="327.87"/>
	<line class="st34" x1="1758.35" y1="333.06" x2="1743.45" y2="336.23"/>
	<line class="st34" x1="1761.02" y1="337.88" x2="1746.51" y2="343.07"/>
	<line class="st34" x1="1763.41" y1="343.07" x2="1753.83" y2="351.81"/>
	<line class="st34" x1="1767.27" y1="349.41" x2="1762.08" y2="358.53"/>
	<line class="st34" x1="1775.66" y1="353.97" x2="1773.93" y2="363.09"/>
	<line class="st34" x1="1790.43" y1="354.22" x2="1793.09" y2="363.72"/>
	<line class="st34" x1="1799.21" y1="349.79" x2="1804.54" y2="358.53"/>
	<line class="st34" x1="1802.67" y1="342.44" x2="1813.59" y2="352.83"/>
	<line class="st34" x1="1805.34" y1="338.38" x2="1821.31" y2="343.71"/>
	<line class="st34" x1="1807.46" y1="333.19" x2="1823.7" y2="336.86"/>
	<line class="st34" x1="1809.06" y1="326.6" x2="1825.83" y2="327.74"/>
	<line class="st34" x1="1809.06" y1="322.17" x2="1824.23" y2="320.39"/>
	<line class="st34" x1="1808.13" y1="317.86" x2="1823.3" y2="313.3"/>
	<line class="st34" x1="1814.65" y1="305.82" x2="1818.91" y2="303.54"/>
	<line class="st34" x1="1808.8" y1="302.15" x2="1813.05" y2="296.83"/>
	<g>
		<path class="st35" d="M1800.94,343.2c-8.26,7.63-22.09,9.77-32.34,3.55c-12.24-7.43-11.67-22.09-11.58-23.69
			c0.15-2.62,0.6-10.61,7.05-15.96c5.64-4.68,12.56-4.62,18.37-4.56c6.06,0.06,14.39,0.14,20.1,5.32
			C1811.16,315.68,1811.71,333.25,1800.94,343.2z"/>
		<path class="st36" d="M1759.15,314.06c-0.21,0.04-3.79,0.71-6.12-1.65c-2.16-2.18-2.03-5.71-0.13-7.98
			c2.2-2.64,6.18-2.81,8.78-1.39c1.98,1.08,2.79,2.87,3.06,3.55C1762.88,309.07,1761.02,311.57,1759.15,314.06z"/>
		<path class="st36" d="M1807.21,314.06c0.21,0.04,3.79,0.71,6.12-1.65c2.16-2.18,2.03-5.71,0.13-7.98
			c-2.18-2.61-6.15-2.9-8.78-1.39c-2.22,1.26-2.91,3.45-3.07,4.05C1803.48,309.41,1805.34,311.73,1807.21,314.06z"/>
	</g>
	<path class="st32" d="M1802.01,343.58c-0.37,4.94-6.52,8.26-8.12,9.12c-4.65,2.51-9.07,2.54-10.91,2.53
		c-5.02-0.02-8.84-1.58-10.78-2.53c-0.88-0.39-5.94-2.74-7.45-7.98c-0.16-0.57-0.75-2.8-0.13-5.57c0.81-3.64,3.18-5.87,4.53-7.1
		c5.4-4.95,12.41-5.18,13.31-5.19c9.47-0.18,15.83,6.25,17.43,8.87c0.83,1.35,1.33,2.79,1.33,2.79
		C1801.87,340.4,1802.1,342.34,1802.01,343.58z"/>
	<path class="st37" d="M1759.82,312.28c-2.7-0.27-4.73-1.57-5.06-3.17c-0.04-0.19-0.26-1.39,0.53-2.28
		c0.67-0.75,1.66-0.84,2.13-0.89c2.64-0.25,4.72,2.03,5.06,2.41C1761.59,309.67,1760.71,310.97,1759.82,312.28z"/>
	<path class="st37" d="M1806.08,312.28c2.7-0.27,4.73-1.57,5.06-3.17c0.04-0.19,0.26-1.39-0.53-2.28c-0.67-0.75-1.66-0.84-2.13-0.89
		c-2.64-0.25-4.72,2.03-5.06,2.41C1804.3,309.67,1805.19,310.97,1806.08,312.28z"/>
	<path class="st38" d="M1798.28,313.93c-0.87-0.69-2.43-1.75-4.66-2.41c-2.25-0.66-4.19-0.61-5.32-0.51
		c-0.04-0.61-0.07-1.21-0.11-1.82c1.34-0.06,3.49,0.01,5.96,0.8c2.35,0.76,4.04,1.87,5.06,2.66
		C1798.9,313.09,1798.59,313.51,1798.28,313.93z"/>
	<path class="st38" d="M1767.96,313.93c0.87-0.69,2.43-1.75,4.66-2.41c2.25-0.66,4.19-0.61,5.32-0.51c0.04-0.61,0.07-1.21,0.11-1.82
		c-1.34-0.06-3.49,0.01-5.96,0.8c-2.35,0.76-4.04,1.87-5.06,2.66C1767.34,313.09,1767.65,313.51,1767.96,313.93z"/>
	<ellipse class="st39" cx="1793.16" cy="319.19" rx="4.99" ry="4.24"/>
	<ellipse class="st38" cx="1793.22" cy="319.38" rx="1.6" ry="1.52"/>
	<ellipse class="st39" cx="1772.66" cy="319.19" rx="4.99" ry="4.24"/>
	<ellipse class="st38" cx="1772.73" cy="319.38" rx="1.6" ry="1.52"/>
	<path class="st40" d="M1791.09,330.78c-5.41,0.04-10.82,0.08-16.24,0.13c1.29-5.49,2.57-10.98,3.86-16.47h8.65
		C1788.61,319.89,1789.85,325.33,1791.09,330.78z"/>
	<path class="st41" d="M1784.03,336.5l7.07-5.72c-5.41,0.04-10.82,0.08-16.24,0.13c2.44,1.87,4.88,3.74,7.31,5.61
		C1782.72,336.94,1783.49,336.93,1784.03,336.5z"/>
	<line class="st42" x1="1783.24" y1="336.86" x2="1783.24" y2="342.06"/>
	<g>
		<g>
			<path d="M1782.73,341.67c-0.65,1.27-1.9,2.04-3.23,2.45c-0.78,0.24-1.6,0.39-2.41,0.48c-0.84,0.09-1.75,0.23-2.59,0.05
				c-0.94-0.2-1.34,1.25-0.4,1.45c0.99,0.21,1.99,0.11,2.99,0c1-0.11,2.01-0.26,2.97-0.58c1.62-0.53,3.17-1.53,3.97-3.09
				C1784.47,341.57,1783.18,340.82,1782.73,341.67L1782.73,341.67z"/>
		</g>
	</g>
	<g>
		<g>
			<path d="M1782.71,342.43c0.8,1.56,2.34,2.55,3.97,3.09c0.93,0.31,1.91,0.46,2.89,0.57c1.02,0.12,2.05,0.22,3.07,0.01
				c0.94-0.2,0.54-1.64-0.4-1.45c-0.84,0.18-1.74,0.04-2.59-0.05c-0.82-0.09-1.63-0.23-2.41-0.48c-1.33-0.41-2.58-1.18-3.23-2.45
				C1783.56,340.82,1782.27,341.57,1782.71,342.43L1782.71,342.43z"/>
		</g>
	</g>
	<line class="st42" x1="1792.43" y1="336.48" x2="1811.99" y2="330.78"/>
	<line class="st42" x1="1793.76" y1="337.5" x2="1810.79" y2="336.36"/>
	<line class="st42" x1="1795.35" y1="338.76" x2="1805.34" y2="338.38"/>
	<line class="st42" x1="1792.43" y1="341.42" x2="1811.19" y2="342.06"/>
	<line class="st42" x1="1774.86" y1="336.48" x2="1755.29" y2="330.78"/>
	<line class="st42" x1="1773.53" y1="337.5" x2="1756.49" y2="336.36"/>
	<line class="st42" x1="1771.93" y1="338.76" x2="1761.95" y2="338.38"/>
	<line class="st42" x1="1774.86" y1="341.42" x2="1756.09" y2="342.06"/>
	<path class="st30" d="M1777.52,402.87c-6.03,0.04-12.07,0.08-18.1,0.13c-0.26-0.48-0.56-1.24-0.53-2.15
		c0.07-2.1,1.86-3.49,3.06-4.43c1.08-0.84,3.78-2.95,7.85-2.79c4.43,0.18,7.1,2.91,7.59,3.42c0.22,0.29,1.76,2.4,0.93,4.56
		C1778.12,402.13,1777.82,402.55,1777.52,402.87z"/>
	<g>
		<g>
			<path d="M1769.08,402.61c-0.06-0.98-0.1-1.97-0.12-2.95c-0.02-0.69-0.21-1.81,0.43-2.29c0.55-0.42,1.33-0.29,1.86,0.09
				c0.67,0.49,0.97,1.31,1.15,2.09c0.23,1.04,0.37,2.12,0.55,3.17c0.08,0.47,0.8,0.27,0.72-0.2c-0.18-1.07-0.32-2.16-0.56-3.22
				c-0.21-0.94-0.62-1.84-1.41-2.44c-0.68-0.51-1.59-0.66-2.37-0.31c-0.91,0.4-1.13,1.31-1.12,2.22c0.01,1.28,0.06,2.56,0.14,3.84
				C1768.35,403.08,1769.1,403.09,1769.08,402.61L1769.08,402.61z"/>
		</g>
	</g>
	<g>
		<g>
			<path d="M1765.22,402.67c-0.06-0.81-0.1-1.62-0.11-2.44c-0.01-0.7-0.01-1.43,0.26-2.08c0.11-0.26,0.26-0.53,0.51-0.67
				c0.29-0.17,0.64-0.1,0.92,0.06c0.59,0.33,1.01,1,1.43,1.51c0.31,0.37,0.84-0.16,0.53-0.53c-0.51-0.61-1.01-1.37-1.75-1.71
				c-0.79-0.36-1.6-0.12-2.09,0.59c-0.47,0.68-0.55,1.58-0.56,2.38c-0.01,0.96,0.03,1.93,0.11,2.89
				C1764.51,403.15,1765.26,403.15,1765.22,402.67L1765.22,402.67z"/>
		</g>
	</g>
	<g>
		<g>
			<path d="M1762.11,402.93c-0.06-1.76-0.1-3.64,0.99-5.13c0.29-0.39-0.36-0.76-0.65-0.38c-1.17,1.59-1.16,3.62-1.09,5.51
				C1761.38,403.41,1762.13,403.41,1762.11,402.93L1762.11,402.93z"/>
		</g>
	</g>
	<path class="st30" d="M1789.74,402.87c6.03,0.04,12.07,0.08,18.1,0.13c0.26-0.48,0.56-1.24,0.53-2.15
		c-0.07-2.1-1.86-3.49-3.06-4.43c-1.08-0.84-3.78-2.95-7.85-2.79c-4.43,0.18-7.1,2.91-7.59,3.42c-0.22,0.29-1.76,2.4-0.93,4.56
		C1789.14,402.13,1789.44,402.55,1789.74,402.87z"/>
	<g>
		<g>
			<path d="M1798.93,402.61c0.07-1.14,0.11-2.27,0.13-3.41c0.01-0.92,0.02-1.94-0.84-2.51c-0.7-0.47-1.65-0.43-2.36-0.03
				c-0.83,0.46-1.33,1.33-1.59,2.22c-0.34,1.17-0.47,2.43-0.67,3.63c-0.08,0.47,0.64,0.68,0.72,0.2c0.16-0.94,0.3-1.87,0.48-2.81
				c0.15-0.82,0.38-1.67,1-2.26c0.49-0.47,1.21-0.71,1.86-0.41c0.78,0.36,0.67,1.32,0.66,2.03c-0.02,1.12-0.06,2.24-0.13,3.35
				C1798.15,403.09,1798.9,403.09,1798.93,402.61L1798.93,402.61z"/>
		</g>
	</g>
	<g>
		<g>
			<path d="M1802.78,402.67c0.07-0.95,0.12-1.9,0.11-2.84c-0.01-0.82-0.08-1.73-0.56-2.43c-0.48-0.69-1.26-0.95-2.04-0.61
				c-0.77,0.33-1.28,1.11-1.8,1.73c-0.31,0.37,0.22,0.9,0.53,0.53c0.43-0.51,0.85-1.17,1.43-1.51c0.27-0.15,0.6-0.23,0.88-0.08
				c0.27,0.14,0.44,0.42,0.55,0.69c0.27,0.66,0.26,1.39,0.26,2.08c-0.01,0.81-0.04,1.63-0.11,2.44
				C1802,403.15,1802.75,403.15,1802.78,402.67L1802.78,402.67z"/>
		</g>
	</g>
	<g>
		<g>
			<path d="M1805.9,402.93c0.07-1.89,0.08-3.92-1.09-5.51c-0.28-0.38-0.93-0.01-0.65,0.38c1.1,1.49,1.05,3.37,0.99,5.13
				C1805.13,403.41,1805.88,403.41,1805.9,402.93L1805.9,402.93z"/>
		</g>
	</g>
	<g>
		<path class="st29" d="M1832.47,347.93c-1.15,0.47-1.18,3.96-0.25,6.93c0.2,0.64,0.84,2,2.13,4.69c0.82,1.71,1.38,2.86,1.5,3.1
			c3.33,6.89,1.54,12.89,1.54,12.89c-1.22,4.27-4.4,8.05-8.64,9.86c-4.05,1.73-8.69,1.61-13.09,1.1c-0.19-0.02-0.41-0.04-0.56,0.07
			c-0.14,0.1-0.19,0.28-0.23,0.45c-0.16,0.66-0.31,1.32-0.47,1.98c6.83,1.4,14.28-0.29,19.7-4.48c3.34-2.58,5.94-6.11,6.96-10.09
			c0.98-3.86-0.79-7.89-2.17-11.73c-0.75-2.09-1.62-3.91-1.62-3.91c-1.33-2.79-1.53-2.38-2-3.8c-0.08-0.25-1.23-3.78-1.4-5.95
			c-0.02-0.21-0.06-0.83-0.48-1.08C1833.08,347.77,1832.66,347.85,1832.47,347.93z"/>
	</g>
	<path class="st33" d="M1838.74,346.24c1.42-0.42,2.84-0.84,4.26-1.27c-0.17,0.82-0.82,3.28-3.19,5.19
		c-3.28,2.65-7.24,2.12-7.85,2.03c-0.49-0.3-3.37-2.14-3.99-5.7c-0.46-2.61,0.55-4.64,0.93-5.32c1.66,2.32,2.22,2.75,2.4,2.66
		c0.27-0.13-0.43-1.36-0.27-3.04c0.12-1.19,0.62-2.14,1.06-2.79c0.44,0.76,0.89,1.52,1.33,2.28c0.5-0.63,1.31-1.51,2.53-2.28
		c1.75-1.1,3.45-1.41,4.39-1.52c0.32,1.22,0.72,3.51,0,6.21C1839.93,344.21,1839.29,345.4,1838.74,346.24z"/>
</g>
<g>
	<path class="st43" d="M1668.69,325.24c9.11,23.89,13.85,49.03,21.13,73.47c0.1,0.34,0.22,0.7,0.54,0.89
		c0.24,0.14,0.54,0.15,0.83,0.15c1.97,0.01,3.94,0.02,5.9,0.03c0.21,0,0.43,0,0.59-0.13c0.17-0.14,0.19-0.39,0.19-0.6
		c-0.03-2.04-0.8-3.99-1.57-5.9c-3.31-8.09-6.96-16.09-9.45-24.44c-2.02-6.78-3.25-13.73-4.82-20.61
		c-2.24-9.86-5.16-19.59-8.74-29.09c-1.84,0.49-3.6,1.24-5.2,2.22c-0.48,0.29-0.97,0.64-1.16,1.15c-0.59,1.52,1.77,2.63,2.14,4.22"
		/>
</g>
<g>
	<path class="st44" d="M1658.14,306.56c0.25-0.54,1.15-0.47,1.62-0.08c0.47,0.39,0.72,0.98,1.19,1.38c0.55,0.47,1.32,0.62,2.06,0.71
		c3.11,0.39,6.36,0.02,9.19-1.28c2.82-1.3,5.19-3.55,6.31-6.31c1.92,7.14,3.83,14.27,5.75,21.41c-1.92-1.43-4.52-1.9-6.95-1.59
		c-2.43,0.31-4.69,1.35-6.71,2.66c-3.14,2.06-5.72,4.79-7.98,7.7c-3.79-6.66-4.58-14.43-5.29-21.96c-0.07-0.69-0.13-1.4,0.09-2.05
		s0.78-1.27,1.5-1.35"/>
</g>
<g>
	<path class="st45" d="M1695.06,360.64c-2.97-1.98-6.79-4.03-10.01-2.43c-2.05,1.02-3.07,3.21-3.92,5.24
		c-4.92,11.77-9.16,23.79-12.7,35.99c30.18,0.76,60.39,0.75,90.57-0.03c-0.54-5.39-2.3-10.6-4.04-15.76c-1.15-3.4-2.3-6.8-3.44-10.2
		c-0.68-2.01-1.36-4.03-2.42-5.89c-2.96-5.19-8.76-8.68-14.92-9.69c-2.4-0.4-5.06-0.39-7.03,0.95c-0.7,0.48-1.28,1.11-1.98,1.59
		c-1.14,0.8-2.54,1.19-3.9,1.54c-4.37,1.14-8.83,2.12-13.37,2.11c-4.53-0.01-9.18-1.08-12.76-3.7"/>
</g>
<g>
	<path class="st46" d="M1695.4,370.51c6.41,3.97,12.32,8.65,17.58,13.91c3.38-2.03,6.14-4.82,9.08-7.39c2.94-2.57,6.19-5,10.04-6.02
		c0.38-0.1,0.81-0.18,1.14,0.02c0.4,0.24,0.46,0.77,0.45,1.22c-0.01,1.94-0.2,3.89-0.02,5.83c0.33,3.49,1.87,6.77,2.5,10.22
		c0.63,3.5,0.31,7.08-0.02,10.61c-0.02,0.21-0.06,0.45-0.25,0.57c-0.11,0.07-0.25,0.08-0.39,0.08c-12.07,0.47-24.17,0.54-36.25,0.23
		c-0.2-0.01-0.63,0-1.13-0.17c-1.49-0.51-2.71-2.21-3.74-7.63c-0.53-2.8-0.63-4.49-0.84-6.94c-0.81-9.36-2.31-12.98-0.34-14.26
		c0.39-0.25,1.13-0.55,2.52-0.27"/>
</g>
<g>
	<path class="st47" d="M1713.84,386.56c2.96-2.52,6.1-5.08,9.42-7.66c3.32-2.58,6.59-5,9.78-7.26c1.57,7.25,2.66,13.06,3.45,16.92
		c0,0,0.24,1.19-0.15,8.21c-0.02,0.33-0.08,1.05-0.61,1.57c-0.58,0.56-1.52,0.59-2.35,0.58c-6.61-0.08-13.23-0.15-19.84-0.23
		c-0.24,0-0.5-0.02-0.66-0.18c-0.17-0.18-0.16-0.43-0.15-0.51c0.03-0.54,0.04-4.25,0.07-9.45
		C1713.13,387.89,1713.48,387.22,1713.84,386.56z"/>
</g>
<g>
	<g>
		<path class="st48" d="M1719.54,384.99c-0.09,0.12-0.17,0.24-0.26,0.36c-0.02,0.03-0.02,0.08-0.02,0.12
			c0.01,0.03,0.04,0.07,0.07,0.09c0.03,0.02,0.08,0.03,0.12,0.02c0.04-0.01,0.07-0.04,0.09-0.07c0.09-0.12,0.17-0.24,0.26-0.36
			c0.02-0.03,0.02-0.08,0.02-0.12c-0.01-0.03-0.04-0.07-0.07-0.09c-0.03-0.02-0.08-0.03-0.12-0.02
			C1719.59,384.94,1719.56,384.96,1719.54,384.99L1719.54,384.99z"/>
	</g>
</g>
<g>
	<g>
		<path class="st48" d="M1721.24,397.26c1.96-0.46,3.86-1.15,5.66-2.06c0.17-0.09,0.02-0.35-0.15-0.26
			c-1.78,0.89-3.65,1.57-5.58,2.03C1720.97,397.02,1721.05,397.31,1721.24,397.26L1721.24,397.26z"/>
	</g>
</g>
<g>
	<g>
		<path class="st48" d="M1694.38,372.46c0.19,0,0.19-0.3,0-0.3C1694.18,372.16,1694.18,372.46,1694.38,372.46L1694.38,372.46z"/>
	</g>
</g>
<g>
	<g>
		<path class="st48" d="M1732.06,373.91c0.19,0,0.19-0.3,0-0.3C1731.86,373.61,1731.86,373.91,1732.06,373.91L1732.06,373.91z"/>
	</g>
</g>
<g>
	<path class="st49" d="M1697.93,355.07c-2.5,1.29-4.8,2.92-6.81,4.83c5.84,6.46,14.03,10.65,20.27,16.77
		c0.18,0.18,0.38,0.37,0.63,0.43c0.33,0.08,0.66-0.07,0.95-0.22c7.94-3.94,14.71-9.65,21.38-15.32c0.36-0.3,0.75-0.71,0.63-1.14
		c-0.05-0.17-0.17-0.32-0.29-0.46c-1.61-1.87-3.22-3.73-4.82-5.6c-0.25-0.29-0.51-0.59-0.86-0.76c-0.43-0.21-0.94-0.19-1.42-0.16
		c-5.05,0.3-9.97,1.61-15,2.08c-4.75,0.44-9.58,0.13-14.22-0.91"/>
</g>
<g>
	<path class="st50" d="M1696.78,355.46c-0.08,1.17-0.16,2.34-0.25,3.51c-0.03,0.4-0.05,0.81,0.08,1.19c0.15,0.4,0.47,0.73,0.78,1.04
		c4.44,4.39,9.61,8.12,15.26,11.02c0.59,0.3,1.21,0.61,1.88,0.66c1.15,0.09,2.2-0.53,3.16-1.13c4.43-2.76,9.03-5.71,11.51-10.13
		c0.75-1.34,1.29-2.82,1.26-4.33c-0.01-0.62-0.15-1.29-0.63-1.71c-0.52-0.46-1.31-0.51-2.03-0.54c-3.83-0.13-7.7-0.24-11.44,0.51
		c-1.44,0.29-2.86,0.71-4.31,0.96c-4.97,0.85-10.06-0.34-14.95-1.52"/>
</g>
<g>
	<path class="st51" d="M1738.31,325.9c1.36-0.25,2.73,0.64,3.37,1.8c0.63,1.16,0.68,2.52,0.62,3.83c-0.03,0.7-0.1,1.42-0.42,2.05
		c-0.32,0.63-0.93,1.18-1.67,1.25c-0.42,0.04-0.89-0.11-1.06-0.47c-0.07-0.16-0.07-0.34-0.07-0.52c0-1.91,0.01-3.82,0.01-5.72
		c0-0.57,0-1.15-0.22-1.67"/>
	<g>
		<path class="st52" d="M1738.33,325.98c1.3-0.21,2.56,0.56,3.22,1.65c0.69,1.16,0.73,2.58,0.67,3.9c-0.06,1.28-0.44,3.07-2.01,3.22
			c-0.37,0.03-0.77-0.06-0.95-0.4c-0.18-0.34-0.1-0.83-0.1-1.2c0-0.72,0-1.45,0-2.17c0-0.81,0-1.62,0.01-2.43
			c0-0.72,0.04-1.44-0.22-2.13c-0.03-0.09-0.18-0.05-0.14,0.04c0.31,0.85,0.21,1.81,0.21,2.69c0,0.93,0,1.85-0.01,2.78
			c0,0.46,0,0.93,0,1.39c0,0.33-0.06,0.74,0.07,1.06c0.19,0.43,0.71,0.56,1.14,0.52c1.35-0.13,1.97-1.52,2.1-2.7
			c0.16-1.47,0.16-3.13-0.54-4.47c-0.66-1.26-2.05-2.13-3.49-1.9C1738.19,325.85,1738.23,325.99,1738.33,325.98L1738.33,325.98z"/>
	</g>
</g>
<g>
	<path class="st51" d="M1734.95,324.26c0.78-0.82,1.76-1.71,2.92-1.57c0.88,0.1,1.57,0.8,1.88,1.58c0.31,0.78,0.32,1.63,0.33,2.46
		c0.01,2.28,0.02,4.56,0.03,6.84c0,0.39,0,0.79-0.11,1.16c-0.23,0.75-0.95,1.35-1.77,1.47s-1.7-0.24-2.16-0.89
		c-0.34-0.48-0.45-1.06-0.54-1.63c-0.52-3.1-0.8-6.24-0.83-9.38"/>
	<g>
		<path class="st52" d="M1735.01,324.32c0.82-0.86,1.95-1.9,3.24-1.46c1.44,0.48,1.73,2.11,1.76,3.42c0.03,1.29,0.01,2.58,0.02,3.88
			c0.01,1.35,0.15,2.77-0.01,4.11c-0.18,1.46-1.71,2.29-3.05,1.67c-1.31-0.61-1.36-2.19-1.55-3.44c-0.4-2.71-0.61-5.45-0.65-8.19
			c0-0.1-0.15-0.1-0.15,0c0.03,2.71,0.24,5.42,0.63,8.1c0.15,1,0.18,2.3,0.88,3.1c0.51,0.59,1.34,0.88,2.11,0.77
			c2.37-0.35,1.94-3.08,1.94-4.81c-0.01-1.4-0.01-2.81-0.02-4.21c-0.01-1.06,0.06-2.22-0.42-3.2c-0.42-0.86-1.28-1.51-2.27-1.44
			c-1.05,0.07-1.89,0.88-2.58,1.6C1734.83,324.28,1734.94,324.39,1735.01,324.32L1735.01,324.32z"/>
	</g>
</g>
<g>
	<path class="st51" d="M1731.12,326.45c0.73-1.25,2.13-1.99,3.46-2.67c0.21-0.11,0.42-0.21,0.65-0.23c0.46-0.03,0.88,0.32,1.05,0.72
		c0.17,0.41,0.16,0.86,0.14,1.29c-0.12,3.14-0.24,6.29-0.35,9.43c0,0.09-0.01,0.19-0.05,0.28c-0.1,0.22-0.41,0.3-0.66,0.23
		c-0.25-0.07-0.44-0.24-0.62-0.41c-2.37-2.29-3.78-5.43-3.88-8.62"/>
	<g>
		<path class="st52" d="M1731.19,326.48c0.59-0.94,1.48-1.58,2.44-2.11c0.37-0.21,0.76-0.43,1.15-0.61
			c1.07-0.47,1.57,0.52,1.59,1.42c0.04,2.35-0.17,4.74-0.26,7.09c-0.02,0.59-0.04,1.18-0.07,1.77c-0.01,0.25,0.06,0.71-0.04,0.94
			c-0.37,0.89-0.98,0.26-1.33-0.09c-0.74-0.73-1.38-1.56-1.92-2.44c-1.1-1.81-1.72-3.87-1.8-5.98c0-0.1-0.15-0.1-0.15,0
			c0.08,1.98,0.62,3.91,1.58,5.64c0.48,0.86,1.05,1.66,1.71,2.39c0.37,0.41,1.09,1.39,1.78,1.02c0.19-0.1,0.25-0.26,0.28-0.47
			c0.09-0.63,0.05-1.32,0.08-1.96c0.05-1.26,0.09-2.51,0.14-3.77c0.05-1.26,0.1-2.51,0.14-3.77c0.02-0.72-0.01-1.61-0.75-1.98
			c-0.78-0.39-1.81,0.42-2.45,0.79c-0.89,0.52-1.7,1.14-2.25,2.02C1731.01,326.49,1731.14,326.57,1731.19,326.48L1731.19,326.48z"/>
	</g>
</g>
<g>
	<path class="st53" d="M1714.47,290.04c4.56,9.41,11.12,17.96,19.17,24.99c-6.78,0.05-13.56,0.1-20.34,0.14
		c-0.2,0-0.43-0.01-0.56-0.15c-0.12-0.12-0.12-0.3-0.11-0.47c0.02-0.94,0.05-1.88,0.07-2.82c0.17-6.89,0.33-13.77,0.5-20.66
		c0-0.13,0.01-0.27,0.11-0.36c0.2-0.18,0.51,0.02,0.69,0.2c0.75,0.77,1.41,1.62,1.97,2.52"/>
</g>
<g>
	<path class="st54" d="M1692.21,316.57c2.05,0.05,4.09,0.11,6.14,0.16c0.1,0,0.22,0.01,0.3,0.07c0.19,0.15,0.02,0.44-0.15,0.61
		c-0.41,0.41-0.81,0.82-1.22,1.23c-0.21,0.21-0.43,0.43-0.71,0.53c-0.25,0.09-0.52,0.09-0.79,0.09c-0.92-0.01-1.83-0.01-2.75-0.02
		c-0.13,0-0.26,0-0.36-0.08c-0.12-0.09-0.15-0.24-0.17-0.38c-0.1-0.69-0.2-1.38-0.3-2.07"/>
</g>
<path class="st55" d="M1692.46,350.85"/>
<g>
	<linearGradient id="SVGID_1_" gradientUnits="userSpaceOnUse" x1="1695.7068" y1="351.6167" x2="1741.2299" y2="310.4423">
		<stop  offset="0" style="stop-color:#D4ECEF"/>
		<stop  offset="0.0614" style="stop-color:#CFE6E9"/>
		<stop  offset="0.6958" style="stop-color:#9AAFAF"/>
		<stop  offset="1" style="stop-color:#859A98"/>
	</linearGradient>
	<path class="st56" d="M1693.5,317.92c-0.06,11.4-0.12,22.79-0.19,34.19c0,0.57,0,1.15,0.23,1.67c0.24,0.53,0.69,0.94,1.13,1.33
		c5.37,4.79,11.08,9.25,17.07,13.34c0.46,0.31,0.97,0.64,1.54,0.62c0.52-0.02,0.97-0.32,1.39-0.61c6.31-4.44,12.3-9.29,17.89-14.52
		c0.22-0.21,0.44-0.42,0.55-0.69c0.1-0.24,0.09-0.51,0.09-0.77c-0.08-4.75-0.16-9.51-0.24-14.26c-0.11-6.74-0.23-13.52-1.46-20.16
		c-12.55-1.29-25.33,2.14-37.8,0.31"/>
</g>
<g>
	<path class="st57" d="M1715.99,325.23c0.48-1.04,1.55-1.77,2.7-2.13c1.15-0.36,2.38-0.4,3.59-0.39c0.95,0.01,2,0.08,2.69,0.7
		c0.31,0.27,0.52,0.63,0.72,0.98c0.31,0.53,0.62,1.07,0.93,1.6c-1.71-1.34-4.16-1.8-6.28-1.18c-1.08,0.31-2.06,0.87-3.1,1.3
		c-0.18,0.08-0.38,0.15-0.58,0.11c-0.31-0.06-0.49-0.39-0.48-0.69c0.02-0.3,0.18-0.57,0.34-0.83"/>
</g>
<g>
	<path class="st57" d="M1698.18,325.01c0.84-1.3,2.18-2.29,3.72-2.75c1.24-0.37,2.63-0.38,3.84,0.08c1.21,0.46,2.22,1.42,2.58,2.61
		c0.09,0.3,0.13,0.65-0.09,0.88c-0.28,0.31-0.83,0.21-1.17-0.04c-0.33-0.26-0.54-0.63-0.85-0.91c-0.67-0.62-1.7-0.72-2.64-0.73
		c-1.61-0.01-3.36,0.21-4.49,1.29c-0.18,0.17-0.36,0.37-0.62,0.4c-0.24,0.03-0.48-0.13-0.54-0.35c-0.06-0.22,0.07-0.47,0.29-0.55"/>
</g>
<g>
	<path class="st58" d="M1701.65,327.67c-1.16,1.17-1.82,2.76-1.81,4.36c0,0.34,0.03,0.68,0.16,0.99c0.13,0.32,0.36,0.6,0.61,0.86
		c0.73,0.77,1.69,1.43,2.78,1.47c1.38,0.05,2.63-0.94,3.13-2.16c0.5-1.21,0.36-2.58-0.03-3.83c-0.27-0.89-0.76-1.84-1.68-2.18
		c-0.43-0.16-0.89-0.16-1.35-0.16c-0.67,0-1.49,0.09-1.73,0.67"/>
</g>
<g>
	<path class="st58" d="M1718.9,327.77c-0.51,0.15-0.66,0.76-0.68,1.26c-0.04,0.94,0.06,1.89,0.29,2.8c0.23,0.92,0.62,1.83,1.29,2.53
		c0.68,0.7,1.68,1.16,2.68,1.04c1.3-0.16,2.28-1.24,2.7-2.41c0.63-1.74,0.18-3.83-1.27-5.05c-1.46-1.22-3.89-1.33-5.33-0.09"/>
</g>
<g>
	<path class="st59" d="M1710.71,333.08c-0.66,2.31-1.77,4.51-3.27,6.45c1,0.58,1.99,1.17,2.99,1.75c0.41,0.24,0.83,0.48,1.31,0.54
		c0.75,0.09,1.47-0.3,2.13-0.65c1.38-0.73,2.82-1.35,4.31-1.86c0.3-0.1,0.63-0.2,0.92-0.09c0.57,0.21,0.56,0.97,0.42,1.53
		c-0.39,1.53-1.1,3.03-2.29,4.13c-1.2,1.1-2.94,1.74-4.57,1.39c-1.77-0.37-3.07-1.76-4.19-3.11c-0.92-1.11-1.85-2.47-1.41-3.81"/>
</g>
<g>
	<g>
		<path class="st60" d="M1721.85,337.7c1.76-0.62,3.51-1.23,5.27-1.85c0.09-0.03,0.05-0.18-0.04-0.14
			c-1.76,0.62-3.51,1.23-5.27,1.85C1721.72,337.59,1721.76,337.74,1721.85,337.7L1721.85,337.7z"/>
	</g>
</g>
<g>
	<g>
		<path class="st60" d="M1696.93,336.03c1.58,0,3.15,0.14,4.7,0.43c0.09,0.02,0.13-0.13,0.04-0.14c-1.56-0.29-3.15-0.44-4.73-0.43
			C1696.84,335.88,1696.83,336.03,1696.93,336.03L1696.93,336.03z"/>
	</g>
</g>
<g>
	<path class="st20" d="M1703.67,346.34c5.84,0.98,11.85,1.03,17.71,0.17c-2.13,2.51-5.54,4.01-8.96,3.93
		c-3.41-0.07-6.75-1.71-8.76-4.31"/>
	<g>
		<path class="st59" d="M1703.65,346.41c3.27,0.54,6.58,0.81,9.9,0.78c1.71-0.01,3.42-0.1,5.12-0.27c0.45-0.04,0.91-0.09,1.36-0.15
			c0.23-0.03,0.63-0.17,0.87-0.11c0.38,0.09,0.16,0.12-0.12,0.41c-0.26,0.26-0.53,0.51-0.82,0.74c-4.87,3.95-12.32,3.19-16.23-1.72
			c-0.06-0.08-0.17,0.03-0.11,0.11c4.42,5.55,13.16,5.71,17.82,0.38c0.05-0.06,0-0.14-0.07-0.13c-5.87,0.84-11.82,0.78-17.67-0.17
			C1703.6,346.25,1703.56,346.39,1703.65,346.41L1703.65,346.41z"/>
	</g>
</g>
<g>
	<path class="st60" d="M1708.55,352.51c2.71-0.04,5.41-0.09,8.12-0.13c-1.15,0.78-2.31,1.56-3.46,2.34
		c-0.17,0.12-0.36,0.24-0.57,0.25c-0.2,0.01-0.39-0.08-0.57-0.18c-1.28-0.66-2.53-1.36-3.76-2.11"/>
</g>
<g>
	<path class="st61" d="M1703.62,327.18c-0.2,1.53,0.09,3.11,0.84,4.48c0.08,0.14,0.16,0.28,0.29,0.37c0.46,0.31,1.08-0.14,1.35-0.6
		c0.52-0.87,0.66-1.96,0.24-2.87c-0.42-0.91-1.46-1.58-2.52-1.47"/>
</g>
<g>
	<g>
		<path class="st58" d="M1705.11,328.78c0.19,0,0.19-0.3,0-0.3C1704.91,328.48,1704.91,328.78,1705.11,328.78L1705.11,328.78z"/>
	</g>
</g>
<g>
	<path class="st61" d="M1718.47,328.54c0.24-0.34,0.49-0.7,0.86-0.92s0.89-0.28,1.23-0.02c0.21,0.16,0.32,0.41,0.41,0.64
		c0.13,0.31,0.26,0.63,0.39,0.94c0.18,0.42,0.36,0.85,0.38,1.31s-0.14,0.94-0.53,1.21c-0.7,0.48-1.75,0.01-2.19-0.69
		s-0.49-1.56-0.7-2.35"/>
	<g>
		<path class="st61" d="M1718.52,328.57c0.23-0.33,0.47-0.67,0.81-0.88c0.31-0.2,0.76-0.29,1.1-0.1c0.37,0.21,0.5,0.7,0.65,1.06
			c0.16,0.39,0.35,0.78,0.48,1.18c0.23,0.71,0.18,1.72-0.68,1.95c-0.64,0.18-1.36-0.22-1.73-0.73c-0.5-0.7-0.54-1.62-0.76-2.43
			c-0.02-0.07-0.14-0.04-0.12,0.03c0.22,0.84,0.26,1.8,0.81,2.51c0.41,0.53,1.17,0.93,1.85,0.73c0.79-0.24,0.98-1.13,0.81-1.84
			c-0.12-0.51-0.36-0.99-0.56-1.47c-0.15-0.36-0.28-0.82-0.62-1.05c-0.33-0.23-0.78-0.2-1.13-0.03c-0.45,0.21-0.74,0.62-1.01,1.01
			C1718.37,328.57,1718.47,328.63,1718.52,328.57L1718.52,328.57z"/>
	</g>
</g>
<g>
	<g>
		<path class="st10" d="M1719.67,329.14c0.19,0,0.19-0.3,0-0.3C1719.47,328.84,1719.47,329.14,1719.67,329.14L1719.67,329.14z"/>
	</g>
</g>
<g>
	<path class="st53" d="M1713.31,313.11c-0.05,2.39-0.11,4.77-0.16,7.16c7.34-0.15,14.68-0.29,22.02-0.44
		c0.3-0.01,0.64-0.03,0.83-0.25c0.17-0.2,0.16-0.49,0.13-0.75c-0.14-1.33-0.29-2.66-0.43-3.98c-7.39-0.31-14.77-0.63-22.16-0.94"/>
</g>
<g>
	<path class="st55" d="M1691.24,314.83c2.8,0.6,5.67-0.34,8.5-0.76c1.35-0.2,2.71-0.28,4.07-0.36c3.13-0.19,6.26-0.38,9.39-0.21
		c-0.12,2.02-0.23,4.04-0.35,6.06c-0.01,0.22-0.03,0.46-0.19,0.63c-0.2,0.22-0.56,0.23-0.87,0.23c-6.74-0.14-13.49-0.28-20.23-0.41
		c-0.18,0-0.37-0.01-0.49-0.13c-0.12-0.12-0.13-0.3-0.13-0.46c0-1.47,0.01-2.93,0.01-4.4"/>
</g>
<g>
	<path class="st55" d="M1712.39,291.52c-6.71,7.84-13.34,15.73-19.89,23.68c6.36-0.05,12.73-0.1,19.09-0.15
		c0.21,0,0.45-0.01,0.6-0.15c0.16-0.14,0.19-0.37,0.2-0.57c0.54-7.86,0.8-15.74,0.78-23.62c-0.87,0.54-1.48,1.45-1.63,2.43"/>
</g>
<g>
	<path class="st52" d="M1725.8,314.2c0.98-0.07,1.96-0.13,2.95-0.2c-3.34-4.53-6.49-9.17-9.65-13.81c-0.62-0.9-1.23-1.81-1.85-2.71
		c2.89,5.59,5.73,11.21,8.54,16.84"/>
</g>
<g>
	<path class="st52" d="M1716.42,295.13c0.83,1.57,1.19,3.32,1.54,5.04c0.97,4.76,1.94,9.52,2.9,14.27"/>
</g>
<g>
	<path class="st52" d="M1694.52,314.71c4.76-5.67,9.53-11.33,14.29-17c-2.65,5.79-6.8,10.85-10.91,15.83
		c-0.75,0.91-1.89,1.93-3.02,1.47"/>
</g>
<g>
	<path class="st52" d="M1703.5,314.7c0.81-1.42,1.29-2.97,1.77-4.51c1.57-5.07,3.14-10.13,4.72-15.2"/>
</g>
<g>
	<path class="st62" d="M1713.58,287.18c-1.07,1.19-2.15,2.38-3.22,3.57c-0.11,0.12-0.22,0.26-0.19,0.41
		c0.02,0.11,0.11,0.2,0.19,0.28c0.78,0.73,1.56,1.47,2.34,2.2c0.08,0.08,0.18,0.16,0.29,0.17c0.11,0.01,0.22-0.06,0.31-0.13
		c1.32-0.98,2.53-2.07,3.63-3.26c0.07-0.08,0.14-0.16,0.14-0.26c-0.01-0.11-0.1-0.19-0.19-0.26c-1.12-0.87-2.45-1.59-3.16-2.78"/>
</g>
<g>
	<path class="st51" d="M1692.81,335.25c0.03-3.49,0.07-6.98,0.1-10.47c0-0.48,0-0.99-0.26-1.41c-0.36-0.56-1.11-0.78-1.81-0.82
		c-2.2-0.12-4.3,1.2-5.44,2.98c-1.13,1.78-1.42,3.94-1.29,6.02c0.04,0.68,0.13,1.37,0.38,2.01c0.59,1.54,2.11,2.7,3.82,3.02
		s3.54-0.2,4.85-1.27"/>
	<g>
		<path class="st52" d="M1692.89,335.25c0.03-3.44,0.07-6.89,0.1-10.33c0.01-1-0.15-1.88-1.19-2.26c-1.06-0.38-2.33-0.18-3.35,0.23
			c-2.37,0.96-3.82,3.18-4.27,5.64c-0.43,2.39-0.37,5.33,1.65,6.99c2.15,1.76,5.24,1.5,7.36-0.16c0.08-0.06-0.03-0.17-0.11-0.11
			c-1.95,1.53-4.75,1.84-6.84,0.4c-2.2-1.52-2.35-4.42-1.97-6.85c0.37-2.32,1.6-4.46,3.74-5.55c1.03-0.52,2.31-0.81,3.45-0.52
			c1.66,0.42,1.35,2.1,1.34,3.44c-0.03,3.03-0.06,6.06-0.09,9.09C1692.74,335.35,1692.89,335.35,1692.89,335.25L1692.89,335.25z"/>
	</g>
</g>
<g>
	<g>
		<path class="st52" d="M1689.45,322.98c0,4.53,0,9.07,0,13.6c0,0.1,0.15,0.1,0.15,0c0-4.53,0-9.07,0-13.6
			C1689.6,322.88,1689.45,322.88,1689.45,322.98L1689.45,322.98z"/>
	</g>
</g>
<g>
	<path class="st63" d="M1737.42,358.1c2.5,0.01,5,0.24,7.45,0.69c0.42,0.08,0.91,0.22,1.02,0.61c0.07,0.25-0.04,0.5-0.15,0.74
		c-2.93,6.2-6.34,12.19-10.22,17.91c0.94-3.69,1.39-7.48,1.33-11.27c-0.05-3-0.42-6.01-0.17-9"/>
</g>
<ellipse transform="matrix(0.2472 -0.969 0.969 0.2472 926.1592 1969.2573)" class="st64" cx="1730.48" cy="388.56" rx="2.84" ry="1.99"/>
<path class="st3" d="M1654.75,226.5v189h189v-189H1654.75z M1821.25,387.5h-144v-133h144V387.5z"/>
</svg>
