<?xml version="1.0" encoding="utf-8"?>
<!-- Generator: Adobe Illustrator 23.0.5, SVG Export Plug-In . SVG Version: 6.00 Build 0)  -->
<svg version="1.1" id="圖層_1" xmlns="http://www.w3.org/2000/svg" xmlns:xlink="http://www.w3.org/1999/xlink" x="0px" y="0px"
	 viewBox="0 0 1920 1080" style="enable-background:new 0 0 1920 1080;" xml:space="preserve">
<style type="text/css">
	.st0{fill:#030003;}
	.st1{fill:#050003;}
	.st2{fill:#311E33;}
	.st3{fill:#060006;}
	.st4{fill:#6D4C63;}
	.st5{fill:#311E33;stroke:#2E1D2D;stroke-width:3;stroke-miterlimit:10;}
	.st6{fill:#000100;}
	.st7{fill:#FFFFFF;}
	.st8{fill:#2E1D2D;}
</style>
<path class="st0" d="M975.72,549.27c2.79-3.82,0.18-9.16-4.59-9.41c-9.1-0.46-21.74,0.32-35.55,5.64
	c-14.62,5.64-24.8,14.15-31.14,20.79c-3.03,3.18-1.7,8.38,2.5,9.74c11.91,3.83,23.81,7.66,35.72,11.49c2.48,0.8,5.21-0.08,6.74-2.17
	C958.17,573.32,966.94,561.29,975.72,549.27z"/>
<path class="st0" d="M1057.85,557.05c2.79-3.82,0.18-9.16-4.59-9.41c-9.1-0.46-21.74,0.32-35.55,5.64
	c-14.62,5.64-24.8,14.15-31.14,20.79c-3.03,3.18-1.7,8.38,2.5,9.74c11.91,3.83,23.81,7.66,35.72,11.49c2.48,0.8,5.21-0.08,6.74-2.17
	C1040.3,581.1,1049.07,569.08,1057.85,557.05z"/>
<path class="st0" d="M1136.6,574.84c2.79-3.82,0.18-9.16-4.59-9.41c-9.1-0.46-21.74,0.32-35.55,5.64
	c-14.62,5.64-24.8,14.15-31.14,20.79c-3.03,3.18-1.7,8.38,2.5,9.74c11.91,3.83,23.81,7.66,35.72,11.49c2.48,0.8,5.21-0.08,6.74-2.17
	C1119.06,598.89,1127.83,586.86,1136.6,574.84z"/>
<path class="st0" d="M1206.36,599.29c2.79-3.82,0.18-9.16-4.59-9.41c-9.1-0.46-21.74,0.32-35.55,5.64
	c-14.62,5.64-24.8,14.15-31.14,20.79c-3.03,3.18-1.7,8.38,2.5,9.74c11.91,3.83,23.81,7.66,35.72,11.49c2.48,0.8,5.21-0.08,6.74-2.17
	C1188.81,623.35,1197.59,611.32,1206.36,599.29z"/>
<path class="st0" d="M1271.18,627.16c3.15-3.55,1.06-9.11-3.66-9.79c-9.01-1.31-21.68-1.72-35.93,2.29
	c-15.09,4.24-26.04,11.76-32.99,17.78c-3.33,2.88-2.5,8.19,1.55,9.93c11.48,4.93,22.97,9.86,34.45,14.79
	c2.4,1.03,5.19,0.41,6.91-1.53C1251.4,649.45,1261.29,638.31,1271.18,627.16z"/>
<path class="st0" d="M1330.45,672.18c4.19-2.26,4.17-8.19-0.02-10.44c-8-4.3-19.75-8.99-34.53-10.08
	c-15.65-1.16-28.55,2.18-37.17,5.46c-4.13,1.57-5.2,6.83-2,9.85c9.06,8.54,18.13,17.07,27.19,25.61c1.89,1.78,4.73,2.15,7.03,0.91
	C1304.11,686.38,1317.28,679.28,1330.45,672.18z"/>
<path class="st0" d="M1386.45,726.53c4.59-1.3,5.88-7.09,2.29-10.19c-6.86-5.93-17.28-13.05-31.46-17.31
	c-15.01-4.51-28.34-4.05-37.48-2.71c-4.37,0.64-6.59,5.54-4.14,9.18c6.95,10.29,13.9,20.58,20.86,30.87
	c1.45,2.15,4.14,3.12,6.65,2.41C1357.6,734.69,1372.02,730.61,1386.45,726.53z"/>
<path class="st0" d="M1416.79,827.32c4.52,1.52,8.92-2.52,7.76-7.09c-2.22-8.73-6.68-20.45-15.88-31.93
	c-9.74-12.16-20.96-19.28-29.24-23.32c-3.96-1.94-8.61,0.85-8.69,5.21c-0.22,12.37-0.43,24.74-0.65,37.11
	c-0.05,2.58,1.6,4.9,4.08,5.73C1388.37,817.79,1402.58,822.55,1416.79,827.32z"/>
<path class="st0" d="M1402.5,890.17c3.43,3.28,9.15,1.5,10.08-3.12c1.78-8.83,2.83-21.31-0.51-35.58
	c-3.53-15.11-10.58-26.29-16.31-33.45c-2.74-3.43-8.15-2.88-10.11,1.03c-5.56,11.09-11.12,22.17-16.67,33.26
	c-1.16,2.31-0.67,5.1,1.2,6.9C1380.95,869.53,1391.72,879.85,1402.5,890.17z"/>
<path class="st1" d="M726.35,99.89c-21.91-1.64-43.81-3.29-65.72-4.93c-4.1-0.31-6.6,4.38-4.02,7.54
	c9.15,11.23,18.3,22.47,27.45,33.7c1.6,1.96,4.48,2.31,6.51,0.78c12.76-9.59,25.51-19.18,38.27-28.77
	C732.28,105.64,730.66,100.22,726.35,99.89z"/>
<path class="st1" d="M754.48,143.25c-21.91-1.64-43.81-3.29-65.72-4.93c-4.1-0.31-6.6,4.38-4.02,7.54
	c9.15,11.23,18.3,22.47,27.45,33.7c1.6,1.96,4.48,2.31,6.51,0.78c12.76-9.59,25.51-19.18,38.27-28.77
	C760.41,148.99,758.79,143.57,754.48,143.25z"/>
<path class="st1" d="M757.74,217.65c-15.23-15.64-30.46-31.29-45.7-46.93c-2.85-2.93-7.87-1.08-8.08,2.98
	c-0.75,14.4-1.49,28.8-2.24,43.21c-0.13,2.51,1.79,4.67,4.33,4.87c15.98,1.24,31.96,2.48,47.94,3.72
	C758.29,225.83,760.74,220.72,757.74,217.65z"/>
<path class="st1" d="M742.97,343.88c-10.6-19.01-21.2-38.03-31.79-57.04c-1.99-3.56-7.32-3.06-8.59,0.81
	c-4.51,13.72-9.01,27.43-13.52,41.15c-0.79,2.39,0.5,4.97,2.9,5.81c15.1,5.3,30.21,10.6,45.31,15.9
	C741.35,351.93,745.05,347.62,742.97,343.88z"/>
<path class="st1" d="M732.84,408.36c-10.6-19.01-21.2-38.03-31.79-57.04c-1.99-3.56-7.32-3.06-8.59,0.81
	c-4.51,13.72-9.01,27.43-13.52,41.15c-0.79,2.39,0.5,4.97,2.9,5.81c15.1,5.3,30.21,10.6,45.31,15.9
	C731.22,416.4,734.93,412.1,732.84,408.36z"/>
<path class="st1" d="M727.22,465.05c-10.6-19.01-21.2-38.03-31.79-57.04c-1.99-3.56-7.32-3.06-8.59,0.81
	c-4.51,13.72-9.01,27.43-13.52,41.15c-0.79,2.39,0.5,4.97,2.9,5.81c15.1,5.3,30.21,10.6,45.31,15.9
	C725.6,473.1,729.3,468.8,727.22,465.05z"/>
<path class="st1" d="M608.17,103.04c-19.13,2.59-38.25,5.19-57.38,7.78c11.65-14.44,28.86-32.75,52.88-50.03
	c26.67-19.19,52.17-30.23,70.88-36.69c4.88-0.37,9.75-0.74,14.63-1.11c-17.86,7.67-31.37,15.97-40.5,22.23
	c-11.61,7.96-18.92,13.06-25.88,22.23C612.68,80.81,609.4,94.71,608.17,103.04z"/>
<path class="st1" d="M772.44,33.01c-16.45,4.1-44.39,13.37-72.01,35.57c-19.88,15.98-32.69,33.11-40.5,45.58
	c-19.5-7.41-39-14.82-58.5-22.23c26.23-13.53,55.89-27.23,88.88-40.02c29.45-11.42,57.4-20.51,83.26-27.79
	c2.59,0.23,4.49,2.3,4.5,4.45C778.08,31.07,775.51,33.42,772.44,33.01z"/>
<g>
	<path class="st2" d="M1077.09,1013.65c-28.84,3.54-44.95-0.62-81.44-3.81c-18.98-1.66-46.88-3.35-81.49-2.65
		c2.73,4.62,5.45,9.25,8.18,13.87c-26.04,4.41-50.88,15.54-71.39,32c24.15,1.51,48.31,3.03,72.46,4.54
		c2.23,0.14,4.64,0.35,6.29,1.83c1.65,1.48,1.75,4.71-0.32,5.53c29.4,0.93,52.03-25.08,79.84-34.53
		c17.31-5.88,22.47-2.27,46.84-7.07c43.76-8.61,75.3-22.6,75.06-23.34C1130.92,999.42,1109.27,1009.71,1077.09,1013.65z"/>
</g>
<path class="st2" d="M1391.24,889.02c-27.31,51.62-75.37,73.06-118.13,91.16c-101.23,42.85-200.39,41.87-265.52,34.46
	c29.49-0.88,73.69-4.09,126.01-15.56c89.51-19.64,171.41-37.28,205.89-101.17c8.23-15.26,26.54-56.8,6.75-126.74
	c21,5.93,42,11.86,63.01,17.79C1411.43,810.82,1411.95,849.87,1391.24,889.02z"/>
<path class="st3" d="M945.7,973.51c-73.77,9.7-94.16,4.56-96.76-3.34c-2.43-7.4,9.41-21.32,23.63-25.57
	c13.41-4.01,25.12,1.74,28.13,3.34c-1.59-10.29-2.69-22.68-2.25-36.69c0.56-18.1,3.52-33.56,6.75-45.58
	c-8.75-2.03-20.22-5.62-32.63-12.23c-14.3-7.62-24.66-16.5-31.5-23.35c-2.25-18.9-4.5-37.8-6.75-56.7
	c24.23-0.16,49.38,0.17,75.38,1.11c31.31,1.13,61.35,3.05,90.01,5.56C981.71,844.55,963.7,909.03,945.7,973.51z"/>
<path class="st2" d="M1088.59,827.88c-46.02-2.67-92.04-5.35-138.06-8.02c-7.97-0.46-13.77-7.67-12.42-15.45
	c4.03-23.3,8.07-46.6,12.1-69.91c60-4.08,120.01-8.15,180.01-12.23C1116.34,757.47,1102.47,792.67,1088.59,827.88z"/>
<path class="st2" d="M1063.28,755.62c-65.65,5.58-98.47,8.37-133.89,17.79c-17.97,4.78-39.63,11.65-72.01,14.45
	c-27.71,2.4-50.83,0.75-66.38-1.11c0.19-29.83,0.38-59.66,0.56-89.49c0-26.68,0-53.36,0-80.04c8.94-11.21,33.1-38.28,73.69-48.36
	c16.71-4.15,31.58-4.28,42.75-3.34c31.11-1.17,71.06-0.56,117.01,5.56c21.2,2.82,74.8,10.97,141.76,34.46
	c63.63,22.32,108.33,38,154.14,76.71c23.86,20.16,60.8,57.37,88.88,118.95c-83.08-36.09-153.14-46.73-199.14-50.03
	C1159.04,747.48,1113.82,751.32,1063.28,755.62z"/>
<path class="st4" d="M1358.61,879.02c0.14-13.75-1.53-49.03-27-77.82c-16.61-18.77-36.12-26.61-52.88-33.35
	c-27.5-11.05-50.24-12.67-78.76-14.45c-22.04-1.38-52.95-1.68-90.01,3.34c4.5-22.23,9-44.47,13.5-66.7
	c23.98-3.09,79.01-6.82,138.39,21.12c36.96,17.39,61.89,40.6,76.51,56.7c6.44,6.84,22.26,25.47,27,54.47
	C1369.75,849.16,1362.27,870.29,1358.61,879.02z"/>
<path class="st4" d="M944.58,776.74c-20.91,4.03-45.09,7.4-72.01,8.89c-28.08,1.56-53.45,0.75-75.38-1.11
	c1.5-29.65,3-59.29,4.5-88.94c25.07,0.02,52.18-0.94,81.01-3.34c26.05-2.17,50.48-5.26,73.13-8.89
	C952.08,714.48,948.33,745.61,944.58,776.74z"/>
<path class="st3" d="M666.68,974.62c-62.65,5.72-80.3,1.09-82.13-5.56c-1.87-6.8,12.37-17.24,14.63-18.9
	c12.22-8.96,25.18-9.03,29.25-8.89c-25.13-88.94-50.25-177.87-75.38-266.81c50.63,41.5,101.26,83.01,151.89,124.51
	C692.18,857.52,679.43,916.07,666.68,974.62z"/>
<path class="st5" d="M713.09,504.37c4.59,8.52,9.18,17.05,13.78,25.57c-17.6,83.38-35.21,166.76-52.81,250.14
	c-26.49-10.84-92.95-42.28-125.14-111.17c-36.33-77.73-8.92-160.16-2.3-180.1c15.58-46.86,58.54-132.72,71.18-186.77
	c1.51-6.44,3.95-18.3,2.3-33.35c-2.66-24.14-14.33-42.42-22.96-53.36c19-4.47,42.23-8.47,68.89-10.01
	c27.33-1.57,51.43-0.16,71.18,2.22c0.5,14.7,0.74,37.17-1.15,64.48c-4.18,60.44-15.05,87.25-20.67,144.52
	C713.45,436.36,711.46,466.61,713.09,504.37z"/>
<path class="st6" d="M675.68,270.91c-16.88,6.3-33.75,12.6-50.63,18.9c1.43-7.06,4.39-26.63-5.63-47.8
	c-6.83-14.45-16.74-23.35-22.5-27.79c29.25-2.22,58.5-4.45,87.76-6.67C681.68,228.67,678.68,249.79,675.68,270.91z"/>
<path class="st2" d="M737.56,206.43c-42.01-0.28-89.26,1.73-140.64,7.78c-61.13,7.2-115.49,18.63-162.01,31.13
	c-5.36-11.69-10.87-29-6.75-47.8c7.82-35.68,45.05-52.75,104.63-80.04c50.04-22.93,80.95-36.46,118.13-26.68
	c4.85,1.27,24.44,6.8,43.88,23.35C734.13,147.63,737.15,195.87,737.56,206.43z"/>
<ellipse transform="matrix(0.8582 -0.5134 0.5134 0.8582 -6.0779 312.2969)" class="st7" cx="562.14" cy="167.15" rx="16.82" ry="14.48"/>
<ellipse transform="matrix(0.8531 -0.5217 0.5217 0.8531 -4.4227 315.937)" class="st6" cx="558.91" cy="165.82" rx="12.03" ry="9.8"/>
<path class="st6" d="M587.92,145.29c-5.02-1.36-15.2-3.35-27,0c-21.94,6.24-31.2,25.76-32.63,28.9c0,3.34,0,6.67,0,10.01
	c3.42-5.1,11.79-16.05,27-23.35c13.85-6.64,26.47-6.93,32.63-6.67c0.22-0.17,2.25-1.72,2.25-4.45
	C590.17,149.46,590.13,146.92,587.92,145.29z"/>
<g>
	<g>
		<path class="st6" d="M458.79,211.51c0.89-1.51,2.24-2.63,3.63-3.66c1.62-1.21,3.28-2.35,4.98-3.44c3.36-2.14,6.87-4.02,10.49-5.66
			c0.74-0.34,0.91-1.4,0.54-2.05c-0.43-0.76-1.32-0.87-2.05-0.54c-3.84,1.74-7.55,3.75-11.09,6.05c-1.72,1.12-3.41,2.3-5.03,3.55
			c-1.58,1.21-3.04,2.51-4.05,4.24C455.22,211.66,457.82,213.18,458.79,211.51L458.79,211.51z"/>
	</g>
</g>
<g>
	<g>
		<path class="st6" d="M461.24,210.81c-0.1-1.09-0.84,1.79-0.35,1.1c0.32-0.46-0.75,0.83-0.11,0.11c0.29-0.32,0.57-0.64,0.86-0.95
			c0.58-0.63,1.18-1.24,1.8-1.84c1.3-1.27,2.68-2.44,4.09-3.58c0.46-0.37-0.71,0.53-0.23,0.18c0.19-0.14,0.38-0.29,0.57-0.43
			c0.35-0.26,0.69-0.51,1.05-0.75c0.74-0.52,1.5-1.02,2.27-1.51c1.54-0.96,3.13-1.84,4.77-2.64c2.12-1.04,2.87-4.22,1.61-6.16
			c-1.4-2.17-3.89-2.73-6.16-1.61c-3.84,1.88-7.37,4.24-10.69,6.92c-1.52,1.23-2.98,2.54-4.35,3.93c-1.91,1.94-4.39,4.27-4.13,7.24
			c0.21,2.34,1.92,4.62,4.5,4.5C459,215.21,461.46,213.32,461.24,210.81L461.24,210.81z"/>
	</g>
</g>
<path class="st4" d="M630.68,543.28c-5.64,47.87-3.7,126.26,46.13,237.91c-26.07-8.98-84.17-33.48-118.13-92.27
	c-40.22-69.6-22.33-145.27-14.63-177.87c9.96-42.13,21.62-49.43,51.75-132.29c14.88-40.92,25.13-75.14,31.5-97.83
	c11.63-19.27,23.25-38.54,34.88-57.81c6.38,0.74,12.75,1.48,19.13,2.22c-4.13,30.76-8.25,61.51-12.38,92.27
	c-2.94,15.67-7.31,39.2-12.38,67.81C652.92,405.95,634.83,508.07,630.68,543.28z"/>
<g>
	<g>
		<path class="st8" d="M612.18,338.6c17.85-6.2,35.23-13.76,51.93-22.61c1.71-0.9,0.19-3.49-1.51-2.59
			c-16.47,8.73-33.6,16.19-51.21,22.3C609.57,336.34,610.35,339.24,612.18,338.6L612.18,338.6z"/>
	</g>
</g>
<g>
	<g>
		<path class="st8" d="M578.27,418.66c16.43-5.85,32.86-11.71,49.29-17.56c4.69-1.67,9.39-3.34,14.08-5.02
			c1.81-0.64,1.03-3.54-0.8-2.89c-16.43,5.85-32.86,11.71-49.29,17.56c-4.69,1.67-9.39,3.34-14.08,5.02
			C575.66,416.41,576.44,419.31,578.27,418.66L578.27,418.66z"/>
	</g>
</g>
<g>
	<g>
		<path class="st8" d="M547.61,509.85c21.56-9.07,43.36-17.55,65.39-25.41c6.27-2.24,12.57-4.42,18.87-6.56
			c1.82-0.62,1.04-3.52-0.8-2.89c-22.15,7.51-44.1,15.63-65.8,24.36c-6.18,2.49-12.33,5.02-18.47,7.6
			c-0.75,0.32-1.27,0.99-1.05,1.85C545.95,509.5,546.86,510.16,547.61,509.85L547.61,509.85z"/>
	</g>
</g>
<g>
	<g>
		<path class="st8" d="M536.28,593.09c21.76-12.33,44.27-23.35,67.38-32.9c6.54-2.7,13.13-5.29,19.76-7.77
			c1.79-0.67,1.02-3.57-0.8-2.89c-23.68,8.85-46.82,19.14-69.23,30.84c-6.27,3.27-12.47,6.65-18.62,10.14
			C533.09,591.45,534.6,594.05,536.28,593.09L536.28,593.09z"/>
	</g>
</g>
<g>
	<g>
		<path class="st8" d="M554.07,675.73c18.79-12.8,37.58-25.61,56.37-38.41c5.35-3.64,10.7-7.29,16.05-10.93
			c1.59-1.08,0.09-3.68-1.51-2.59c-18.79,12.8-37.58,25.61-56.37,38.41c-5.35,3.64-10.7,7.29-16.05,10.93
			C550.97,674.22,552.47,676.82,554.07,675.73L554.07,675.73z"/>
	</g>
</g>
<g>
	<g>
		<path class="st8" d="M608.28,738.86c13.9-12.07,27.81-24.15,41.71-36.22c1.46-1.27-0.67-3.38-2.12-2.12
			c-13.9,12.07-27.81,24.15-41.71,36.22C604.7,738.01,606.83,740.12,608.28,738.86L608.28,738.86z"/>
	</g>
</g>
<g>
	<g>
		<path class="st4" d="M713.39,593.9c1.93,0,1.93-3,0-3C711.46,590.9,711.46,593.9,713.39,593.9L713.39,593.9z"/>
	</g>
</g>
<path class="st2" d="M770.19,976.85c-64.28,4.85-79.43-0.6-81.01-6.67c-1.74-6.7,12.21-17.51,21.38-22.23
	c10.37-5.34,20.04-5.69,24.75-5.56c-8.93-16.54-18.26-37-25.88-61.14c-10.68-33.87-14.57-64.23-15.75-87.83
	c35.25-2.22,70.51-4.45,105.76-6.67c0.7,28.13-0.64,62.08-6.75,100.05C787.09,921.59,778.76,951.84,770.19,976.85z"/>
<g>
	<path class="st2" d="M799.44,786.75c-6.16,4.55-30.04,21.07-64.13,18.9c-31.85-2.03-52.5-19.11-58.5-24.46
		c14.63-87.83,29.25-175.65,43.88-263.48c10.04,13.17,22.3,27.57,37.13,42.25c18.11,17.93,35.91,32.18,51.75,43.36
		C806.19,664.46,802.82,725.6,799.44,786.75z"/>
	<g>
		<g>
			<path class="st4" d="M712.53,599.7c4.71,0,9.22-4.14,9-9c-0.22-4.88-3.95-9-9-9c-4.71,0-9.22,4.14-9,9
				C703.75,595.57,707.49,599.7,712.53,599.7L712.53,599.7z"/>
		</g>
	</g>
	<g>
		<g>
			<path class="st4" d="M732.35,620.13c4.71,0,9.22-4.14,9-9c-0.22-4.88-3.95-9-9-9c-4.71,0-9.22,4.14-9,9
				C723.57,616.01,727.31,620.13,732.35,620.13L732.35,620.13z"/>
		</g>
	</g>
	<g>
		<g>
			<path class="st4" d="M713.39,635.46c4.71,0,9.22-4.14,9-9c-0.22-4.88-3.95-9-9-9c-4.71,0-9.22,4.14-9,9
				C704.61,631.34,708.35,635.46,713.39,635.46L713.39,635.46z"/>
		</g>
	</g>
	<g>
		<g>
			<path class="st4" d="M684.09,618.43c4.71,0,9.22-4.14,9-9c-0.22-4.88-3.95-9-9-9c-4.71,0-9.22,4.14-9,9
				C675.31,614.31,679.05,618.43,684.09,618.43L684.09,618.43z"/>
		</g>
	</g>
</g>
<path class="st3" d="M1327.11,169.75c-35,2.46-63.5,6.46-84.38,10.01c-13.91,2.36-24.71,4.57-36,12.23
	c-17.95,12.18-25.78,30.42-29.25,41.13c-42.33,2.25-92.77,8.1-148.51,21.12c-48.46,11.32-90.67,25.68-126.01,40.02
	c1.15,10.87,3.05,28.41,5.63,50.03c7.77,65.07,10.27,71.38,6.75,84.49c-6.83,25.43-27.9,40.28-69.76,68.93
	c-22.08,15.11-54.7,34.84-97.88,52.25c-6.75-7.78-13.5-15.56-20.25-23.35c15.4-4.71,38.07-13.41,61.88-30.02
	c15.88-11.07,30.92-21.56,42.75-40.02c23.89-37.27,17.12-79.64,13.5-102.28c-2.55-15.95-8.59-40.99-24.75-68.93
	c49.57-29.48,117.11-62.83,201.39-86.71C1147.03,163.28,1255.71,163.66,1327.11,169.75z"/>
<path class="st2" d="M1515,284.25c-7.99-1.07-164.84-21.03-190.14,27.79c-7.76,14.98-5.63,28.9-5.63,28.9
	c3.19,20.78,22.29,32.88,42.75,46.69c57.76,39,83.1,62.49,83.26,62.26c0.21-0.3-41.29-40.75-103.51-56.7
	c-53.28-13.65-91.53-1.59-102.38,2.22c-18.49,6.5-44.99,15.81-55.13,38.91c-13.61,30.99,12.18,64.15,3.38,70.04
	c-9.08,6.07-32.15-32.08-72.01-47.8c-57.19-22.56-120.99,12.11-151.89,28.9c-70.94,38.55-106.56,98.12-121.51,127.85
	c-14.06-1.37-31.5-4.44-50.63-11.12c-32.84-11.46-56.39-28.59-70.88-41.13c57.34-25.37,101.06-52.26,131.64-73.37
	c36.05-24.89,49.93-39.06,55.13-58.92c4.94-18.89-1.05-31.16-5.63-74.48c-2.73-25.8-3.31-47.08-3.38-61.14
	c62.57-25.61,161.26-57.27,285.77-62.26C1331.08,225.01,1447.45,258.89,1515,284.25z"/>
<g>
	<g>
		<path class="st8" d="M900.65,693.73c0.17,23.54-5.12,47.05-15.34,68.26c-2.92,6.06-6.24,11.92-9.92,17.56
			c-1.06,1.62,1.54,3.13,2.59,1.51c13.14-20.12,21.52-43.19,24.49-67.03c0.84-6.73,1.23-13.51,1.18-20.29
			C903.63,691.8,900.63,691.79,900.65,693.73L900.65,693.73z"/>
	</g>
</g>
<g>
	<g>
		<path class="st8" d="M844.8,698.47c-5.33,23.68-14.71,46.37-27.63,66.91c-3.63,5.76-7.52,11.36-11.69,16.75
			c-0.5,0.65-0.62,1.49,0,2.12c0.51,0.52,1.63,0.64,2.12,0c15.09-19.53,26.84-41.54,34.57-64.99c2.17-6.57,4-13.25,5.52-19.99
			C848.11,697.39,845.22,696.58,844.8,698.47L844.8,698.47z"/>
	</g>
</g>
<path class="st2" d="M1043.74,973.84c-76.57,10.14-96.63,5.5-98.62-1.75c-1.92-7.02,12.08-20.23,26.09-25.37
	c11.35-4.16,21.35-2.52,25.9-1.46c-2.04-11.43-3.6-25.45-3.38-41.49c0.28-20.06,3.27-37.19,6.55-50.38
	c-10.96-3.98-22.03-8.09-33.19-12.32c-6.34-2.4-12.63-4.82-18.87-7.24c-7.77-3.02-12.1-11.43-10.18-19.76c2-8.7,4-17.39,6-26.09
	c43.79,6.81,87.58,13.62,131.37,20.43c9.34,1.45,15.15,11,12.34,20.27L1043.74,973.84z"/>
<g>
	<g>
		<path class="st8" d="M1273.63,761.51c7.23-9.61,14.47-19.22,21.7-28.83c1.16-1.54-1.44-3.04-2.59-1.51
			c-7.23,9.61-14.47,19.22-21.7,28.83C1269.88,761.54,1272.48,763.04,1273.63,761.51L1273.63,761.51z"/>
	</g>
</g>
<g>
	<g>
		<path class="st8" d="M1208.67,748.24c7.65-13.58,13.62-28.09,17.72-43.13c0.51-1.87-2.39-2.66-2.89-0.8
			c-4.03,14.8-9.88,29.05-17.42,42.42C1205.13,748.41,1207.72,749.93,1208.67,748.24L1208.67,748.24z"/>
	</g>
</g>
<g>
	<g>
		<path class="st8" d="M1151.79,688.58c-1.81,19.43-6.81,38.56-14.72,56.39c-0.78,1.75,1.81,3.28,2.59,1.51
			c6.33-14.25,10.88-29.26,13.43-44.65c0.73-4.4,1.29-8.82,1.71-13.26C1154.97,686.66,1151.97,686.67,1151.79,688.58L1151.79,688.58
			z"/>
	</g>
</g>
</svg>
