<?xml version="1.0" encoding="utf-8"?>
<!-- Generator: Adobe Illustrator 23.0.5, SVG Export Plug-In . SVG Version: 6.00 Build 0)  -->
<svg version="1.1" id="圖層_1" xmlns="http://www.w3.org/2000/svg" xmlns:xlink="http://www.w3.org/1999/xlink" x="0px" y="0px"
	 viewBox="0 0 1920 1080" style="enable-background:new 0 0 1920 1080;" xml:space="preserve">
<style type="text/css">
	.st0{fill:url(#SVGID_1_);}
	.st1{fill:#7B857A;}
	.st2{fill:#2E3A30;}
	.st3{fill:#06110B;}
	.st4{fill:#272D2B;}
</style>
<radialGradient id="SVGID_1_" cx="960" cy="530.5" r="900.7114" gradientTransform="matrix(1 -1.040546e-03 6.510171e-04 0.6316 -0.3448 193.9387)" gradientUnits="userSpaceOnUse">
	<stop  offset="0" style="stop-color:#94A88C"/>
	<stop  offset="1" style="stop-color:#818680"/>
</radialGradient>
<rect y="-2" class="st0" width="1920" height="1060"/>
<g>
	<path class="st1" d="M1034.26,912.38c-21.84,0-43.68,0-65.51,0c-37.81,0.87-75.61,1.74-113.42,2.6
		c11.85-2.21,34.23-8.54,55.65-29.5c38.08-37.26,43.46-91.74,44.38-103.23c-0.32-18.31-0.58-46.06,0-79.81
		c1.7-99.88,8.97-149.55,13.38-237.7c1.99-39.79,2.27-80.31,2.82-161.36c0.51-75.16,0.24-175.35-2.82-294.95
		c19.72,0,39.45,0,59.17,0c-5.64,82.53-10.27,141.48-13.38,179.57c-4.09,49.99-11.4,135.07,7.04,182.18
		c1.32,3.37,5.29,12.97,8.45,26.89c6.7,29.44,4.34,54.1,2.82,70.27c-2.94,31.21-5.61,62.46-8.45,93.69
		c-4.8,52.67-1.39,92.15,4.23,157.02c5.01,57.9,7.52,86.85,14.09,104.1c7.35,19.28,33.99,77.59,127.51,105.84
		C1124.9,922.79,1079.58,917.59,1034.26,912.38z"/>
	<g>
		<path class="st1" d="M1001.57,360.35c36.59-25.08,73.18-50.16,109.77-75.24c21.41-14.68,43.98-30.78,55.34-57.52
			c6.72-15.83,8.82-33.94,10.81-51.64c2.22-19.68,4.43-39.36,6.65-59.04c1.5,5.45,1.09,11.46,2.41,16.98
			c1.32,5.52,5.6,10.9,10.09,9.33c4.91-1.71,5.88-9.64,5.82-15.92c-0.23-27.18-1.95-54.33-5.13-81.23c1.85,8.23,3.7,16.46,5.56,24.7
			c3.88-7.6,7.76-15.19,11.63-22.79c-8.76,22.12-11.29,47.89-7.06,71.94c1.42,8.1,3.55,16.79,0.87,24.39
			c-4.35,12.33-19.21,15.54-22.44,28.38c-0.79,3.15-0.75,6.51-0.7,9.8c0.18,11.9,0.37,23.79,0.55,35.69
			c16.05-2.2,32.1-4.41,48.15-6.61c0.3,3.36-1.25,6.85-3.7,8.37c12.23,6.32,26.17,7.49,38.98,3.26c2.4,2.04-0.9,6.26-3.72,7.14
			c-9.75,3.04-20.11,2.99-29.84-0.14c-4.73-1.52-9.38-3.77-14.27-4.04c-3.78-0.21-7.52,0.77-11.22,1.74
			c-5.37,1.41-10.74,2.82-16.11,4.24c-3.81,1-7.7,2.04-11.08,4.43c-5.81,4.1-8.94,9.81-9.88,11.47
			c-7.04,12.5-45.72,62.33-84.2,91.34c-22.49,16.96-39.15,22.45-48.61,46.85c-3.05,7.85-4.33,15.04-4.93,19.95
			c-9.11,2.06-18.22,4.12-27.33,6.19c-0.33-5.69-0.35-14.34-3.69-23.4c-2.72-7.38-5.71-15.14-5.03-23.2
			c0.69-8.06,6.85-15.99,13.2-13.88"/>
	</g>
	<g>
		<path class="st1" d="M999.83,280.16c16.52-24.04,35.13-45.9,55.41-65.08c1.67-1.58,3.4-3.2,4.49-5.41
			c1.76-3.54,1.62-7.98,1.42-12.13c-3.05-62.17-9.75-124.2-8.72-186.47c0.02-1.48,0.12-3.14,1.01-4.14c0.8-0.89,1.99-0.95,3.06-0.93
			c2.44,0.05,4.87,0.3,7.28,0.73c0.98,0.18,2.07,0.46,2.63,1.47c0.37,0.66,0.44,1.51,0.49,2.31c4.47,69.12,8.94,138.24,13.41,207.36
			c0.26,4,0.51,8.11-0.42,11.96c-1.34,5.53-4.92,9.73-8.28,13.74c-26.43,31.49-48.53,67.98-70.5,104.3
			c-2.07-20.67-4.13-41.34-6.2-62c-0.29-2.91-0.57-5.93,0.17-8.72c1.7-6.41,7.82-8.95,13.13-10.6"/>
	</g>
	<g>
		<path class="st1" d="M974.73,386.79c-22-30.11-49.2-54.44-79.26-70.9c-7.85-4.3-16.26-8.4-21.58-16.71
			c-3.47-5.41-5.27-12.11-6.96-18.68c-9.95-38.63-18.27-79.55-12.13-119.36c2.79-18.05,8.52-35.78,7.5-54.11
			c-1.07-19.14-9.38-39-3.05-56.53c-5.88,2.67-9.87,9.71-11.6,17.12s-1.52,15.27-1.31,22.98c0.38,13.65,0.76,27.3,1.14,40.96
			c0.33,11.86-0.27,26-8.47,32.24c-13.23-27.98-18.31-61.67-14.12-93.64c-5.32,6.94-9.71,14.96-12.92,23.65
			c0.94-12.36-0.39-24.97-3.86-36.62c-2.7,7.69-4.08,16.09-4.02,24.47c-4.9-6.52-10.33-12.44-16.18-17.62
			c0.96,15.99,10.97,28.51,17.67,42.26c8.55,17.54,11.94,38.05,15.19,58.11c-11.81-3.8-23.97-5.89-36.17-6.21
			c8.44,9.46,19.09,15.91,30.32,18.36c2.5,0.55,5.26,1.04,6.95,3.37c1.04,1.42,1.51,3.32,1.95,5.15
			c10.26,42.59,20.52,85.17,30.78,127.76c-21.84,0.14-42.42-21.44-45.79-48.01c-5.65,8.82-3.94,21.49-1.95,32.46
			c-5.29-0.76-10.59-1.51-15.88-2.27c14.13,11.65,28.4,23.39,44.25,30.98c11.11,5.32,22.8,8.52,34.11,13.14
			c15.42,6.29,30.28,15.36,42.51,28.53c10.76,11.58,19.2,26,27.55,40.28c12.16,20.81,24.33,41.62,36.49,62.43
			c4.92-22.15,7.32-45.14,7.13-68.1c-0.04-4.47-0.21-9.11-1.83-13.11c-1.63-4-5.1-7.2-8.7-6.55"/>
	</g>
</g>
<g>
	<path class="st1" d="M1715.26,901.38c-21.84,0-43.68,0-65.51,0c-37.81,0.87-75.61,1.74-113.42,2.6
		c11.85-2.21,34.23-8.54,55.65-29.5c38.08-37.26,43.46-91.74,44.38-103.23c-0.32-18.31-0.58-46.06,0-79.81
		c1.7-99.88,8.97-149.55,13.38-237.7c1.99-39.79,2.27-80.31,2.82-161.36c0.51-75.16,0.24-175.35-2.82-294.95
		c19.72,0,39.45,0,59.17,0c-5.64,82.53-10.27,141.48-13.38,179.57c-4.09,49.99-11.4,135.07,7.04,182.18
		c1.32,3.37,5.29,12.97,8.45,26.89c6.7,29.44,4.34,54.1,2.82,70.27c-2.94,31.21-5.61,62.46-8.45,93.69
		c-4.8,52.67-1.39,92.15,4.23,157.02c5.01,57.9,7.52,86.85,14.09,104.1c7.35,19.28,33.99,77.59,127.51,105.84
		C1805.9,911.79,1760.58,906.59,1715.26,901.38z"/>
	<g>
		<path class="st1" d="M1682.57,349.35c36.59-25.08,73.18-50.16,109.77-75.24c21.41-14.68,43.98-30.78,55.34-57.52
			c6.72-15.83,8.82-33.94,10.81-51.64c2.22-19.68,4.43-39.36,6.65-59.04c1.5,5.45,1.09,11.46,2.41,16.98
			c1.32,5.52,5.6,10.9,10.09,9.33c4.91-1.71,5.88-9.64,5.82-15.92c-0.23-27.18-1.95-54.33-5.13-81.23c1.85,8.23,3.7,16.46,5.56,24.7
			c3.88-7.6,7.76-15.19,11.63-22.79c-8.76,22.12-11.29,47.89-7.06,71.94c1.42,8.1,3.55,16.79,0.87,24.39
			c-4.35,12.33-19.21,15.54-22.44,28.38c-0.79,3.15-0.75,6.51-0.7,9.8c0.18,11.9,0.37,23.79,0.55,35.69
			c16.05-2.2,32.1-4.41,48.15-6.61c0.3,3.36-1.25,6.85-3.7,8.37c12.23,6.32,26.17,7.49,38.98,3.26c2.4,2.04-0.9,6.26-3.72,7.14
			c-9.75,3.04-20.11,2.99-29.84-0.14c-4.73-1.52-9.38-3.77-14.27-4.04c-3.78-0.21-7.52,0.77-11.22,1.74
			c-5.37,1.41-10.74,2.82-16.11,4.24c-3.81,1-7.7,2.04-11.08,4.43c-5.81,4.1-8.94,9.81-9.88,11.47
			c-7.04,12.5-45.72,62.33-84.2,91.34c-22.49,16.96-39.15,22.45-48.61,46.85c-3.05,7.85-4.33,15.04-4.93,19.95
			c-9.11,2.06-18.22,4.12-27.33,6.19c-0.33-5.69-0.35-14.34-3.69-23.4c-2.72-7.38-5.71-15.14-5.03-23.2
			c0.69-8.06,6.85-15.99,13.2-13.88"/>
	</g>
	<g>
		<path class="st1" d="M1680.83,269.16c16.52-24.04,35.13-45.9,55.41-65.08c1.67-1.58,3.4-3.2,4.49-5.41
			c1.76-3.54,1.62-7.98,1.42-12.13c-3.05-62.17-9.75-124.2-8.72-186.47c0.02-1.48,0.12-3.14,1.01-4.14c0.8-0.89,1.99-0.95,3.06-0.93
			c2.44,0.05,4.87,0.3,7.28,0.73c0.98,0.18,2.07,0.46,2.63,1.47c0.37,0.66,0.44,1.51,0.49,2.31c4.47,69.12,8.94,138.24,13.41,207.36
			c0.26,4,0.51,8.11-0.42,11.96c-1.34,5.53-4.92,9.73-8.28,13.74c-26.43,31.49-48.53,67.98-70.5,104.3
			c-2.07-20.67-4.13-41.34-6.2-62c-0.29-2.91-0.57-5.93,0.17-8.72c1.7-6.41,7.82-8.95,13.13-10.6"/>
	</g>
	<g>
		<path class="st1" d="M1655.73,375.79c-22-30.11-49.2-54.44-79.26-70.9c-7.85-4.3-16.26-8.4-21.58-16.71
			c-3.47-5.41-5.27-12.11-6.96-18.68c-9.95-38.63-18.27-79.55-12.13-119.36c2.79-18.05,8.52-35.78,7.5-54.11
			c-1.07-19.14-9.38-39-3.05-56.53c-5.88,2.67-9.87,9.71-11.6,17.12s-1.52,15.27-1.31,22.98c0.38,13.65,0.76,27.3,1.14,40.96
			c0.33,11.86-0.27,26-8.47,32.24c-13.23-27.98-18.31-61.67-14.12-93.64c-5.32,6.94-9.71,14.96-12.92,23.65
			c0.94-12.36-0.39-24.97-3.86-36.62c-2.7,7.69-4.08,16.09-4.02,24.47c-4.9-6.52-10.33-12.44-16.18-17.62
			c0.96,15.99,10.97,28.51,17.67,42.26c8.55,17.54,11.94,38.05,15.19,58.11c-11.81-3.8-23.97-5.89-36.17-6.21
			c8.44,9.46,19.09,15.91,30.32,18.36c2.5,0.55,5.26,1.04,6.95,3.37c1.04,1.42,1.51,3.32,1.95,5.15
			c10.26,42.59,20.52,85.17,30.78,127.76c-21.84,0.14-42.42-21.44-45.79-48.01c-5.65,8.82-3.94,21.49-1.95,32.46
			c-5.29-0.76-10.59-1.51-15.88-2.27c14.13,11.65,28.4,23.39,44.25,30.98c11.11,5.32,22.8,8.52,34.11,13.14
			c15.42,6.29,30.28,15.36,42.51,28.53c10.76,11.58,19.2,26,27.55,40.28c12.16,20.81,24.33,41.62,36.49,62.43
			c4.92-22.15,7.32-45.14,7.13-68.1c-0.04-4.47-0.21-9.11-1.83-13.11s-5.1-7.2-8.7-6.55"/>
	</g>
</g>
<g>
	<path class="st1" d="M533.26,908.38c-21.84,0-43.68,0-65.51,0c-37.81,0.87-75.61,1.74-113.42,2.6c11.85-2.21,34.23-8.54,55.65-29.5
		c38.08-37.26,43.46-91.74,44.38-103.23c-0.32-18.31-0.58-46.06,0-79.81c1.7-99.88,8.97-149.55,13.38-237.7
		c1.99-39.79,2.27-80.31,2.82-161.36c0.51-75.16,0.24-175.35-2.82-294.95c19.72,0,39.45,0,59.17,0
		c-5.64,82.53-10.27,141.48-13.38,179.57c-4.09,49.99-11.4,135.07,7.04,182.18c1.32,3.37,5.29,12.97,8.45,26.89
		c6.7,29.44,4.34,54.1,2.82,70.27c-2.94,31.21-5.61,62.46-8.45,93.69c-4.8,52.67-1.39,92.15,4.23,157.02
		c5.01,57.9,7.52,86.85,14.09,104.1c7.35,19.28,33.99,77.59,127.51,105.84C623.9,918.79,578.58,913.59,533.26,908.38z"/>
	<g>
		<path class="st1" d="M500.57,356.35c36.59-25.08,73.18-50.16,109.77-75.24c21.41-14.68,43.98-30.78,55.34-57.52
			c6.72-15.83,8.82-33.94,10.81-51.64c2.22-19.68,4.43-39.36,6.65-59.04c1.5,5.45,1.09,11.46,2.41,16.98
			c1.32,5.52,5.6,10.9,10.09,9.33c4.91-1.71,5.88-9.64,5.82-15.92c-0.23-27.18-1.95-54.33-5.13-81.23c1.85,8.23,3.7,16.46,5.56,24.7
			c3.88-7.6,7.76-15.19,11.63-22.79c-8.76,22.12-11.29,47.89-7.06,71.94c1.42,8.1,3.55,16.79,0.87,24.39
			c-4.35,12.33-19.21,15.54-22.44,28.38c-0.79,3.15-0.75,6.51-0.7,9.8c0.18,11.9,0.37,23.79,0.55,35.69
			c16.05-2.2,32.1-4.41,48.15-6.61c0.3,3.36-1.25,6.85-3.7,8.37c12.23,6.32,26.17,7.49,38.98,3.26c2.4,2.04-0.9,6.26-3.72,7.14
			c-9.75,3.04-20.11,2.99-29.84-0.14c-4.73-1.52-9.38-3.77-14.27-4.04c-3.78-0.21-7.52,0.77-11.22,1.74
			c-5.37,1.41-10.74,2.82-16.11,4.24c-3.81,1-7.7,2.04-11.08,4.43c-5.81,4.1-8.94,9.81-9.88,11.47
			c-7.04,12.5-45.72,62.33-84.2,91.34c-22.49,16.96-39.15,22.45-48.61,46.85c-3.05,7.85-4.33,15.04-4.93,19.95
			c-9.11,2.06-18.22,4.12-27.33,6.19c-0.33-5.69-0.35-14.34-3.69-23.4c-2.72-7.38-5.71-15.14-5.03-23.2
			c0.69-8.06,6.85-15.99,13.2-13.88"/>
	</g>
	<g>
		<path class="st1" d="M498.83,276.16c16.52-24.04,35.13-45.9,55.41-65.08c1.67-1.58,3.4-3.2,4.49-5.41
			c1.76-3.54,1.62-7.98,1.42-12.13c-3.05-62.17-9.75-124.2-8.72-186.47c0.02-1.48,0.12-3.14,1.01-4.14c0.8-0.89,1.99-0.95,3.06-0.93
			c2.44,0.05,4.87,0.3,7.28,0.73c0.98,0.18,2.07,0.46,2.63,1.47c0.37,0.66,0.44,1.51,0.49,2.31c4.47,69.12,8.94,138.24,13.41,207.36
			c0.26,4,0.51,8.11-0.42,11.96c-1.34,5.53-4.92,9.73-8.28,13.74c-26.43,31.49-48.53,67.98-70.5,104.3
			c-2.07-20.67-4.13-41.34-6.2-62c-0.29-2.91-0.57-5.93,0.17-8.72c1.7-6.41,7.82-8.95,13.13-10.6"/>
	</g>
	<g>
		<path class="st1" d="M473.73,382.79c-22-30.11-49.2-54.44-79.26-70.9c-7.85-4.3-16.26-8.4-21.58-16.71
			c-3.47-5.41-5.27-12.11-6.96-18.68c-9.95-38.63-18.27-79.55-12.13-119.36c2.79-18.05,8.52-35.78,7.5-54.11
			c-1.07-19.14-9.38-39-3.05-56.53c-5.88,2.67-9.87,9.71-11.6,17.12s-1.52,15.27-1.31,22.98c0.38,13.65,0.76,27.3,1.14,40.96
			c0.33,11.86-0.27,26-8.47,32.24c-13.23-27.98-18.31-61.67-14.12-93.64c-5.32,6.94-9.71,14.96-12.92,23.65
			c0.94-12.36-0.39-24.97-3.86-36.62c-2.7,7.69-4.08,16.09-4.02,24.47c-4.9-6.52-10.33-12.44-16.18-17.62
			c0.96,15.99,10.97,28.51,17.67,42.26c8.55,17.54,11.94,38.05,15.19,58.11c-11.81-3.8-23.97-5.89-36.17-6.21
			c8.44,9.46,19.09,15.91,30.32,18.36c2.5,0.55,5.26,1.04,6.95,3.37c1.04,1.42,1.51,3.32,1.95,5.15
			c10.26,42.59,20.52,85.17,30.78,127.76c-21.84,0.14-42.42-21.44-45.79-48.01c-5.65,8.82-3.94,21.49-1.95,32.46
			c-5.29-0.76-10.59-1.51-15.88-2.27c14.13,11.65,28.4,23.39,44.25,30.98c11.11,5.32,22.8,8.52,34.11,13.14
			c15.42,6.29,30.28,15.36,42.51,28.53c10.76,11.58,19.2,26,27.55,40.28c12.16,20.81,24.33,41.62,36.49,62.43
			c4.92-22.15,7.32-45.14,7.13-68.1c-0.04-4.47-0.21-9.11-1.83-13.11c-1.63-4-5.1-7.2-8.7-6.55"/>
	</g>
</g>
<path class="st2" d="M1920,1080H0V883c305.63-22.34,611.3-34,917-35c334.28-1.09,668.62,10.58,1003,35
	C1920,948.67,1920,1014.33,1920,1080z"/>
<g>
	<path class="st3" d="M1223.26,908.38c-21.84,0-43.68,0-65.51,0c-37.81,0.87-75.61,1.74-113.42,2.6
		c11.85-2.21,34.23-8.54,55.65-29.5c38.08-37.26,43.46-91.74,44.38-103.23c-0.32-18.31-0.58-46.06,0-79.81
		c1.7-99.88,8.97-149.55,13.38-237.7c1.99-39.79,2.27-80.31,2.82-161.36c0.51-75.16,0.24-175.35-2.82-294.95
		c19.72,0,39.45,0,59.17,0c-5.64,82.53-10.27,141.48-13.38,179.57c-4.09,49.99-11.4,135.07,7.04,182.18
		c1.32,3.37,5.29,12.97,8.45,26.89c6.7,29.44,4.34,54.1,2.82,70.27c-2.94,31.21-5.61,62.46-8.45,93.69
		c-4.8,52.67-1.39,92.15,4.23,157.02c5.01,57.9,7.52,86.85,14.09,104.1c7.35,19.28,33.99,77.59,127.51,105.84
		C1313.9,918.79,1268.58,913.59,1223.26,908.38z"/>
	<g>
		<path class="st3" d="M1190.57,356.35c36.59-25.08,73.18-50.16,109.77-75.24c21.41-14.68,43.98-30.78,55.34-57.52
			c6.72-15.83,8.82-33.94,10.81-51.64c2.22-19.68,4.43-39.36,6.65-59.04c1.5,5.45,1.09,11.46,2.41,16.98
			c1.32,5.52,5.6,10.9,10.09,9.33c4.91-1.71,5.88-9.64,5.82-15.92c-0.23-27.18-1.95-54.33-5.13-81.23c1.85,8.23,3.7,16.46,5.56,24.7
			c3.88-7.6,7.76-15.19,11.63-22.79c-8.76,22.12-11.29,47.89-7.06,71.94c1.42,8.1,3.55,16.79,0.87,24.39
			c-4.35,12.33-19.21,15.54-22.44,28.38c-0.79,3.15-0.75,6.51-0.7,9.8c0.18,11.9,0.37,23.79,0.55,35.69
			c16.05-2.2,32.1-4.41,48.15-6.61c0.3,3.36-1.25,6.85-3.7,8.37c12.23,6.32,26.17,7.49,38.98,3.26c2.4,2.04-0.9,6.26-3.72,7.14
			c-9.75,3.04-20.11,2.99-29.84-0.14c-4.73-1.52-9.38-3.77-14.27-4.04c-3.78-0.21-7.52,0.77-11.22,1.74
			c-5.37,1.41-10.74,2.82-16.11,4.24c-3.81,1-7.7,2.04-11.08,4.43c-5.81,4.1-8.94,9.81-9.88,11.47
			c-7.04,12.5-45.72,62.33-84.2,91.34c-22.49,16.96-39.15,22.45-48.61,46.85c-3.05,7.85-4.33,15.04-4.93,19.95
			c-9.11,2.06-18.22,4.12-27.33,6.19c-0.33-5.69-0.35-14.34-3.69-23.4c-2.72-7.38-5.71-15.14-5.03-23.2
			c0.69-8.06,6.85-15.99,13.2-13.88"/>
	</g>
	<g>
		<path class="st3" d="M1188.83,276.16c16.52-24.04,35.13-45.9,55.41-65.08c1.67-1.58,3.4-3.2,4.49-5.41
			c1.76-3.54,1.62-7.98,1.42-12.13c-3.05-62.17-9.75-124.2-8.72-186.47c0.02-1.48,0.12-3.14,1.01-4.14c0.8-0.89,1.99-0.95,3.06-0.93
			c2.44,0.05,4.87,0.3,7.28,0.73c0.98,0.18,2.07,0.46,2.63,1.47c0.37,0.66,0.44,1.51,0.49,2.31c4.47,69.12,8.94,138.24,13.41,207.36
			c0.26,4,0.51,8.11-0.42,11.96c-1.34,5.53-4.92,9.73-8.28,13.74c-26.43,31.49-48.53,67.98-70.5,104.3
			c-2.07-20.67-4.13-41.34-6.2-62c-0.29-2.91-0.57-5.93,0.17-8.72c1.7-6.41,7.82-8.95,13.13-10.6"/>
	</g>
	<g>
		<path class="st3" d="M1163.73,382.79c-22-30.11-49.2-54.44-79.26-70.9c-7.85-4.3-16.26-8.4-21.58-16.71
			c-3.47-5.41-5.27-12.11-6.96-18.68c-9.95-38.63-18.27-79.55-12.13-119.36c2.79-18.05,8.52-35.78,7.5-54.11
			c-1.07-19.14-9.38-39-3.05-56.53c-5.88,2.67-9.87,9.71-11.6,17.12s-1.52,15.27-1.31,22.98c0.38,13.65,0.76,27.3,1.14,40.96
			c0.33,11.86-0.27,26-8.47,32.24c-13.23-27.98-18.31-61.67-14.12-93.64c-5.32,6.94-9.71,14.96-12.92,23.65
			c0.94-12.36-0.39-24.97-3.86-36.62c-2.7,7.69-4.08,16.09-4.02,24.47c-4.9-6.52-10.33-12.44-16.18-17.62
			c0.96,15.99,10.97,28.51,17.67,42.26c8.55,17.54,11.94,38.05,15.19,58.11c-11.81-3.8-23.97-5.89-36.17-6.21
			c8.44,9.46,19.09,15.91,30.32,18.36c2.5,0.55,5.26,1.04,6.95,3.37c1.04,1.42,1.51,3.32,1.95,5.15
			c10.26,42.59,20.52,85.17,30.78,127.76c-21.84,0.14-42.42-21.44-45.79-48.01c-5.65,8.82-3.94,21.49-1.95,32.46
			c-5.29-0.76-10.59-1.51-15.88-2.27c14.13,11.65,28.4,23.39,44.25,30.98c11.11,5.32,22.8,8.52,34.11,13.14
			c15.42,6.29,30.28,15.36,42.51,28.53c10.76,11.58,19.2,26,27.55,40.28c12.16,20.81,24.33,41.62,36.49,62.43
			c4.92-22.15,7.32-45.14,7.13-68.1c-0.04-4.47-0.21-9.11-1.83-13.11s-5.1-7.2-8.7-6.55"/>
	</g>
</g>
<g>
	<path class="st3" d="M668.26,909.38c-21.84,0-43.68,0-65.51,0c-37.81,0.87-75.61,1.74-113.42,2.6c11.85-2.21,34.23-8.54,55.65-29.5
		c38.08-37.26,43.46-91.74,44.38-103.23c-0.32-18.31-0.58-46.06,0-79.81c1.7-99.88,8.97-149.55,13.38-237.7
		c1.99-39.79,2.27-80.31,2.82-161.36c0.51-75.16,0.24-175.35-2.82-294.95c19.72,0,39.45,0,59.17,0
		c-5.64,82.53-10.27,141.48-13.38,179.57c-4.09,49.99-11.4,135.07,7.04,182.18c1.32,3.37,5.29,12.97,8.45,26.89
		c6.7,29.44,4.34,54.1,2.82,70.27c-2.94,31.21-5.61,62.46-8.45,93.69c-4.8,52.67-1.39,92.15,4.23,157.02
		c5.01,57.9,7.52,86.85,14.09,104.1c7.35,19.28,33.99,77.59,127.51,105.84C758.9,919.79,713.58,914.59,668.26,909.38z"/>
	<g>
		<path class="st3" d="M635.57,357.35c36.59-25.08,73.18-50.16,109.77-75.24c21.41-14.68,43.98-30.78,55.34-57.52
			c6.72-15.83,8.82-33.94,10.81-51.64c2.22-19.68,4.43-39.36,6.65-59.04c1.5,5.45,1.09,11.46,2.41,16.98
			c1.32,5.52,5.6,10.9,10.09,9.33c4.91-1.71,5.88-9.64,5.82-15.92c-0.23-27.18-1.95-54.33-5.13-81.23c1.85,8.23,3.7,16.46,5.56,24.7
			c3.88-7.6,7.76-15.19,11.63-22.79c-8.76,22.12-11.29,47.89-7.06,71.94c1.42,8.1,3.55,16.79,0.87,24.39
			c-4.35,12.33-19.21,15.54-22.44,28.38c-0.79,3.15-0.75,6.51-0.7,9.8c0.18,11.9,0.37,23.79,0.55,35.69
			c16.05-2.2,32.1-4.41,48.15-6.61c0.3,3.36-1.25,6.85-3.7,8.37c12.23,6.32,26.17,7.49,38.98,3.26c2.4,2.04-0.9,6.26-3.72,7.14
			c-9.75,3.04-20.11,2.99-29.84-0.14c-4.73-1.52-9.38-3.77-14.27-4.04c-3.78-0.21-7.52,0.77-11.22,1.74
			c-5.37,1.41-10.74,2.82-16.11,4.24c-3.81,1-7.7,2.04-11.08,4.43c-5.81,4.1-8.94,9.81-9.88,11.47
			c-7.04,12.5-45.72,62.33-84.2,91.34c-22.49,16.96-39.15,22.45-48.61,46.85c-3.05,7.85-4.33,15.04-4.93,19.95
			c-9.11,2.06-18.22,4.12-27.33,6.19c-0.33-5.69-0.35-14.34-3.69-23.4c-2.72-7.38-5.71-15.14-5.03-23.2
			c0.69-8.06,6.85-15.99,13.2-13.88"/>
	</g>
	<g>
		<path class="st3" d="M633.83,277.16c16.52-24.04,35.13-45.9,55.41-65.08c1.67-1.58,3.4-3.2,4.49-5.41
			c1.76-3.54,1.62-7.98,1.42-12.13c-3.05-62.17-9.75-124.2-8.72-186.47c0.02-1.48,0.12-3.14,1.01-4.14c0.8-0.89,1.99-0.95,3.06-0.93
			c2.44,0.05,4.87,0.3,7.28,0.73c0.98,0.18,2.07,0.46,2.63,1.47c0.37,0.66,0.44,1.51,0.49,2.31c4.47,69.12,8.94,138.24,13.41,207.36
			c0.26,4,0.51,8.11-0.42,11.96c-1.34,5.53-4.92,9.73-8.28,13.74c-26.43,31.49-48.53,67.98-70.5,104.3
			c-2.07-20.67-4.13-41.34-6.2-62c-0.29-2.91-0.57-5.93,0.17-8.72c1.7-6.41,7.82-8.95,13.13-10.6"/>
	</g>
	<g>
		<path class="st3" d="M608.73,383.79c-22-30.11-49.2-54.44-79.26-70.9c-7.85-4.3-16.26-8.4-21.58-16.71
			c-3.47-5.41-5.27-12.11-6.96-18.68c-9.95-38.63-18.27-79.55-12.13-119.36c2.79-18.05,8.52-35.78,7.5-54.11
			c-1.07-19.14-9.38-39-3.05-56.53c-5.88,2.67-9.87,9.71-11.6,17.12s-1.52,15.27-1.31,22.98c0.38,13.65,0.76,27.3,1.14,40.96
			c0.33,11.86-0.27,26-8.47,32.24c-13.23-27.98-18.31-61.67-14.12-93.64c-5.32,6.94-9.71,14.96-12.92,23.65
			c0.94-12.36-0.39-24.97-3.86-36.62c-2.7,7.69-4.08,16.09-4.02,24.47c-4.9-6.52-10.33-12.44-16.18-17.62
			c0.96,15.99,10.97,28.51,17.67,42.26c8.55,17.54,11.94,38.05,15.19,58.11c-11.81-3.8-23.97-5.89-36.17-6.21
			c8.44,9.46,19.09,15.91,30.32,18.36c2.5,0.55,5.26,1.04,6.95,3.37c1.04,1.42,1.51,3.32,1.95,5.15
			c10.26,42.59,20.52,85.17,30.78,127.76c-21.84,0.14-42.42-21.44-45.79-48.01c-5.65,8.82-3.94,21.49-1.95,32.46
			c-5.29-0.76-10.59-1.51-15.88-2.27c14.13,11.65,28.4,23.39,44.25,30.98c11.11,5.32,22.8,8.52,34.11,13.14
			c15.42,6.29,30.28,15.36,42.51,28.53c10.76,11.58,19.2,26,27.55,40.28c12.16,20.81,24.33,41.62,36.49,62.43
			c4.92-22.15,7.32-45.14,7.13-68.1c-0.04-4.47-0.21-9.11-1.83-13.11c-1.63-4-5.1-7.2-8.7-6.55"/>
	</g>
</g>
<g>
	<path class="st3" d="M414,1042c-31,0-62,0-93,0c-53.67,1-107.33,2-161,3c16.82-2.55,48.6-9.85,79-34
		c54.06-42.95,61.69-105.75,63-119c-0.45-21.1-0.82-53.09,0-92c2.42-115.13,12.73-172.39,19-274c2.83-45.86,3.22-92.57,4-186
		c0.72-86.63,0.34-202.13-4-340c28,0,56,0,84,0c-8.01,95.14-14.57,163.09-19,207c-5.81,57.62-16.18,155.7,10,210
		c1.87,3.88,7.5,14.95,12,31c9.51,33.93,6.16,62.36,4,81c-4.17,35.98-7.96,72-12,108c-6.82,60.71-1.97,106.22,6,181
		c7.11,66.74,10.67,100.11,20,120c10.43,22.23,48.26,89.44,181,122C542.67,1054,478.33,1048,414,1042z"/>
	<g>
		<path class="st3" d="M367.6,405.66c51.94-28.91,103.88-57.82,155.82-86.73c30.39-16.92,62.44-35.48,78.56-66.3
			c9.55-18.25,12.52-39.12,15.35-59.52c3.15-22.68,6.29-45.37,9.44-68.05c2.13,6.28,1.55,13.21,3.41,19.57
			c1.87,6.37,7.94,12.57,14.33,10.75c6.96-1.98,8.34-11.11,8.27-18.35c-0.33-31.33-2.76-62.63-7.28-93.63
			c2.63,9.49,5.26,18.98,7.89,28.47c5.5-8.76,11.01-17.51,16.51-26.27c-12.44,25.5-16.03,55.21-10.03,82.93
			c2.02,9.34,5.04,19.35,1.23,28.11c-6.18,14.21-27.27,17.91-31.85,32.71c-1.12,3.63-1.06,7.5-0.99,11.3
			c0.26,13.71,0.52,27.43,0.78,41.14c22.79-2.54,45.57-5.08,68.36-7.62c0.42,3.87-1.77,7.9-5.25,9.64
			c17.36,7.28,37.15,8.63,55.33,3.76c3.41,2.35-1.27,7.21-5.29,8.23c-13.83,3.5-28.55,3.44-42.36-0.16
			c-6.72-1.75-13.32-4.34-20.26-4.66c-5.36-0.25-10.68,0.88-15.92,2c-7.62,1.63-15.24,3.26-22.86,4.88
			c-5.41,1.16-10.92,2.35-15.73,5.1c-8.25,4.73-12.69,11.31-14.02,13.22c-9.99,14.4-64.9,71.85-119.53,105.29
			c-31.93,19.55-55.57,25.88-69,54c-4.32,9.05-6.14,17.34-7,23c-12.93,2.38-25.86,4.75-38.79,7.13c-0.47-6.56-0.5-16.53-5.23-26.98
			c-3.86-8.51-8.11-17.45-7.13-26.74c0.98-9.29,9.72-18.43,18.74-16"/>
	</g>
	<g>
		<path class="st3" d="M365.12,313.22c23.45-27.71,49.86-52.91,78.66-75.02c2.37-1.82,4.82-3.69,6.38-6.24
			c2.49-4.09,2.31-9.2,2.02-13.98c-4.33-71.67-13.84-143.17-12.38-214.95c0.03-1.71,0.16-3.62,1.43-4.77
			c1.13-1.03,2.82-1.1,4.35-1.07c3.46,0.06,6.92,0.34,10.34,0.84c1.39,0.2,2.94,0.53,3.74,1.69c0.53,0.76,0.62,1.74,0.69,2.67
			c6.34,79.67,12.69,159.35,19.03,239.02c0.37,4.61,0.72,9.35-0.6,13.78c-1.91,6.37-6.98,11.21-11.76,15.84
			c-37.52,36.3-68.89,78.37-100.08,120.23c-2.93-23.82-5.86-47.65-8.8-71.47c-0.41-3.35-0.81-6.84,0.23-10.05
			c2.41-7.39,11.1-10.32,18.65-12.22"/>
	</g>
	<g>
		<path class="st3" d="M329.5,436.13c-31.24-34.71-69.85-62.76-112.52-81.73c-11.14-4.95-23.08-9.69-30.63-19.26
			c-4.92-6.24-7.48-13.96-9.88-21.54c-14.12-44.53-25.94-91.69-17.21-137.59c3.95-20.8,12.1-41.25,10.65-62.37
			c-1.52-22.06-13.32-44.96-4.33-65.16c-8.34,3.08-14.01,11.19-16.46,19.74c-2.45,8.55-2.16,17.61-1.86,26.49
			c0.54,15.74,1.08,31.47,1.61,47.21c0.47,13.67-0.39,29.98-12.03,37.17c-18.77-32.26-25.99-71.09-20.05-107.94
			c-7.55,8-13.78,17.25-18.33,27.26c1.34-14.24-0.55-28.78-5.48-42.21c-3.84,8.87-5.79,18.55-5.71,28.21
			c-6.95-7.52-14.66-14.34-22.97-20.31c1.36,18.43,15.57,32.87,25.09,48.72c12.14,20.22,16.94,43.86,21.56,66.99
			c-16.76-4.38-34.03-6.79-51.35-7.16c11.98,10.91,27.09,18.34,43.05,21.17c3.55,0.63,7.46,1.2,9.87,3.89
			c1.47,1.64,2.14,3.82,2.76,5.93c14.57,49.09,29.13,98.18,43.7,147.27c-31,0.17-60.22-24.71-65-55.34
			c-8.02,10.17-5.6,24.77-2.77,37.42c-7.51-0.87-15.03-1.74-22.54-2.61c20.06,13.43,40.32,26.96,62.81,35.72
			c15.76,6.14,32.37,9.82,48.42,15.14c21.89,7.25,42.99,17.71,60.35,32.89c15.27,13.35,27.26,29.97,39.11,46.43
			c17.27,23.99,34.53,47.97,51.8,71.96c6.98-25.53,10.4-52.03,10.12-78.5c-0.05-5.16-0.29-10.5-2.6-15.11
			c-2.31-4.61-7.24-8.3-12.34-7.56"/>
	</g>
</g>
<g>
	<path class="st3" d="M1566,1043c-31,0-62,0-93,0c-53.67,1-107.33,2-161,3c16.82-2.55,48.6-9.85,79-34
		c54.06-42.95,61.69-105.75,63-119c-0.45-21.1-0.82-53.09,0-92c2.42-115.13,12.73-172.39,19-274c2.83-45.86,3.22-92.57,4-186
		c0.72-86.63,0.34-202.13-4-340c28,0,56,0,84,0c-8.01,95.14-14.57,163.09-19,207c-5.81,57.62-16.18,155.7,10,210
		c1.87,3.88,7.5,14.95,12,31c9.51,33.93,6.16,62.36,4,81c-4.17,35.98-7.96,72-12,108c-6.82,60.71-1.97,106.22,6,181
		c7.11,66.74,10.67,100.11,20,120c10.43,22.23,48.26,89.44,181,122C1694.67,1055,1630.33,1049,1566,1043z"/>
	<g>
		<path class="st3" d="M1519.6,406.66c51.94-28.91,103.88-57.82,155.82-86.73c30.39-16.92,62.44-35.48,78.56-66.3
			c9.55-18.25,12.52-39.12,15.35-59.52c3.15-22.68,6.29-45.37,9.44-68.05c2.13,6.28,1.55,13.21,3.41,19.57
			c1.87,6.37,7.94,12.57,14.33,10.75c6.96-1.98,8.34-11.11,8.27-18.35c-0.33-31.33-2.76-62.63-7.28-93.63
			c2.63,9.49,5.26,18.98,7.89,28.47c5.5-8.76,11.01-17.51,16.51-26.27c-12.44,25.5-16.03,55.21-10.03,82.93
			c2.02,9.34,5.04,19.35,1.23,28.11c-6.18,14.21-27.27,17.91-31.85,32.71c-1.12,3.63-1.06,7.5-0.99,11.3
			c0.26,13.71,0.52,27.43,0.78,41.14c22.79-2.54,45.57-5.08,68.36-7.62c0.42,3.87-1.77,7.9-5.25,9.64
			c17.36,7.28,37.15,8.63,55.33,3.76c3.41,2.35-1.27,7.21-5.29,8.23c-13.83,3.5-28.55,3.44-42.36-0.16
			c-6.72-1.75-13.32-4.34-20.26-4.66c-5.36-0.25-10.68,0.88-15.92,2c-7.62,1.63-15.24,3.26-22.86,4.88
			c-5.41,1.16-10.92,2.35-15.73,5.1c-8.25,4.73-12.69,11.31-14.02,13.22c-9.99,14.4-64.9,71.85-119.53,105.29
			c-31.93,19.55-55.57,25.88-69,54c-4.32,9.05-6.14,17.34-7,23c-12.93,2.38-25.86,4.75-38.79,7.13c-0.47-6.56-0.5-16.53-5.23-26.98
			c-3.86-8.51-8.11-17.45-7.13-26.74c0.98-9.29,9.72-18.43,18.74-16"/>
	</g>
	<g>
		<path class="st3" d="M1517.12,314.22c23.45-27.71,49.86-52.91,78.66-75.02c2.37-1.82,4.82-3.69,6.38-6.24
			c2.49-4.09,2.31-9.2,2.02-13.98c-4.33-71.67-13.84-143.17-12.38-214.95c0.03-1.71,0.16-3.62,1.43-4.77
			c1.13-1.03,2.82-1.1,4.35-1.07c3.46,0.06,6.92,0.34,10.34,0.84c1.39,0.2,2.94,0.53,3.74,1.69c0.53,0.76,0.62,1.74,0.69,2.67
			c6.34,79.67,12.69,159.35,19.03,239.02c0.37,4.61,0.72,9.35-0.6,13.78c-1.91,6.37-6.98,11.21-11.76,15.84
			c-37.52,36.3-68.89,78.37-100.08,120.23c-2.93-23.82-5.86-47.65-8.8-71.47c-0.41-3.35-0.81-6.84,0.23-10.05
			c2.41-7.39,11.1-10.32,18.65-12.22"/>
	</g>
	<g>
		<path class="st3" d="M1481.5,437.13c-31.24-34.71-69.85-62.76-112.52-81.73c-11.14-4.95-23.08-9.69-30.63-19.26
			c-4.92-6.24-7.48-13.96-9.88-21.54c-14.12-44.53-25.94-91.69-17.21-137.59c3.95-20.8,12.1-41.25,10.65-62.37
			c-1.52-22.06-13.32-44.96-4.33-65.16c-8.34,3.08-14.01,11.19-16.46,19.74s-2.16,17.61-1.86,26.49
			c0.54,15.74,1.08,31.47,1.61,47.21c0.47,13.67-0.39,29.98-12.03,37.17c-18.77-32.26-25.99-71.09-20.05-107.94
			c-7.55,8-13.78,17.25-18.33,27.26c1.34-14.24-0.55-28.78-5.48-42.21c-3.84,8.87-5.79,18.55-5.71,28.21
			c-6.95-7.52-14.66-14.34-22.97-20.31c1.36,18.43,15.57,32.87,25.09,48.72c12.14,20.22,16.94,43.86,21.56,66.99
			c-16.76-4.38-34.03-6.79-51.35-7.16c11.98,10.91,27.09,18.34,43.05,21.17c3.55,0.63,7.46,1.2,9.87,3.89
			c1.47,1.64,2.14,3.82,2.76,5.93c14.57,49.09,29.13,98.18,43.7,147.27c-31,0.17-60.22-24.71-65-55.34
			c-8.02,10.17-5.6,24.77-2.77,37.42c-7.51-0.87-15.03-1.74-22.54-2.61c20.06,13.43,40.32,26.96,62.81,35.72
			c15.76,6.14,32.37,9.82,48.42,15.14c21.89,7.25,42.99,17.71,60.35,32.89c15.27,13.35,27.26,29.97,39.11,46.43
			c17.27,23.99,34.53,47.97,51.8,71.96c6.98-25.53,10.4-52.03,10.12-78.5c-0.05-5.16-0.29-10.5-2.6-15.11
			c-2.31-4.61-7.24-8.3-12.34-7.56"/>
	</g>
</g>
<g>
	<path class="st4" d="M-75.66,908.58c-2.34-19.94,19.55-36.87,42.82-44.86c15.94-5.47,33.7-8.3,50.86-6.1s33.58,9.86,42.27,21.74
		c2.75-12.58,16.49-22.28,31.66-26.73c15.17-4.45,31.75-4.59,47.93-4.63c13.66-0.04,27.65,0,40.48,3.71
		c12.83,3.71,24.46,11.89,26.73,22.51c16.56-5.8,34.54-9.04,52.64-9.51c15.32-0.4,31.56,1.46,43.58,8.97s17.99,21.94,9.91,32.22
		c22.37,0.2,45.23,7.87,58.19,22.26c12.97,14.39,14.01,35.61-0.13,49.29c15.1,5.82,26.08,17.83,28.3,30.97
		c2.23,13.14-4.37,27.01-17,35.75c-2.67,1.85-5.63,3.52-7.64,5.83c-3.11,3.58-3.5,8.15-4.54,12.41
		c-4.57,18.64-24.84,34.23-48.58,37.37c-18.63,2.46-38.43-2.09-56.29,2.76c-8.21,2.23-15.38,6.31-22.95,9.66
		c-17.68,7.82-38.08,11.77-58.34,11.27c-18.6-0.45-37.09-4.54-55.58-2.94c-23.67,2.05-49.93,12.81-69.23,1.81
		c-7.63-4.35-12.19-11.39-19.64-15.93c-14.03-8.57-33.96-6.24-51.13-9.76c-23.16-4.75-41.45-21.7-43.69-40.49
		c-1.41-11.83,2.95-23.93-0.19-35.55c-2.72-10.08-10.87-18.91-13.02-29.07c-2.57-12.13,3.71-24.77,0.15-36.75
		c-1.76-5.91-5.81-11.23-8.46-16.94c-4.87-10.51-4.78-22.39,0.25-32.85"/>
</g>
</svg>
