<?xml version="1.0" encoding="utf-8"?>
<!-- Generator: Adobe Illustrator 23.0.5, SVG Export Plug-In . SVG Version: 6.00 Build 0)  -->
<svg version="1.1" id="圖層_1" xmlns="http://www.w3.org/2000/svg" xmlns:xlink="http://www.w3.org/1999/xlink" x="0px" y="0px"
	 viewBox="0 0 1920 1080" style="enable-background:new 0 0 1920 1080;" xml:space="preserve">
<style type="text/css">
	.st0{fill:#FFFFFF;}
	.st1{fill:#C3752A;stroke:#000000;stroke-miterlimit:10;}
</style>
<g>
	<g>
		<path class="st0" d="M775.84,129.06c21.17-21.77,52.71-25.61,80.94-20.38s54.85,18.21,82.59,26.15
			c49.64,14.23,102.91,11.86,151.41-6.73c64.27-24.63,120.72-76.94,188.22-84.82c-19.4,124.72-34.04,250.38-43.86,376.52
			c-21.11,3.75-42.22,7.51-63.33,11.26c-23.12,4.11-46.46,8.29-68.22,18.03c-12.88,5.76-25.03,13.4-37.82,19.42
			c-42.63,20.07-92.01,21.07-135.24,2.73c-16.55-7.02-32.18-16.73-49.05-22.69c-33.36-11.78-69.25-8.19-104.02-4.16
			c-4.24,0.49-9.36,0.55-11.75-3.44c-1.13-1.88-1.34-4.25-1.49-6.51c-2.38-36.54,3.6-73.08,4.44-109.71
			c0.62-26.93-1.55-53.93-6.45-80.29c-3.92-21.11-9.63-42.15-9.08-63.72s8.91-44.53,26-54.09"/>
		<g>
			<path d="M776.9,130.12c23.68-24.06,59.41-25.4,90.35-17.61c18.46,4.65,36.13,11.88,54.08,18.11
				c17.63,6.13,35.61,10.77,54.16,13.07c37.03,4.59,75.09,0.38,110.25-12.13c31.74-11.3,60.58-29.09,89.69-45.74
				c28.71-16.42,58.5-32.52,91.24-39.07c4.09-0.82,8.2-1.47,12.34-1.97c-0.48-0.63-0.96-1.27-1.45-1.9
				c-7.57,48.68-14.42,97.47-20.53,146.36c-6.13,48.97-11.52,98.04-16.18,147.18c-2.63,27.78-5.03,55.57-7.2,83.39
				c0.37-0.48,0.73-0.96,1.1-1.45c-27.6,4.91-55.32,9.41-82.82,14.86c-12.98,2.57-25.89,5.67-38.34,10.22
				c-12.67,4.63-24.38,11.16-36.24,17.51c-22.82,12.22-47.12,20.17-73.09,21.61c-25.19,1.4-50.67-3.01-73.85-12.99
				c-12.15-5.23-23.67-11.78-35.71-17.24c-11.93-5.41-24.33-9.29-37.3-11.27c-26.23-4-52.79-1.27-78.97,1.71
				c-2.46,0.28-5.02,0.62-7.47,0.06c-3.79-0.87-4.85-4.02-5.18-7.54c-0.63-6.79-0.65-13.69-0.61-20.5
				c0.07-14.16,1.03-28.3,2.1-42.42c2.14-28.34,4.03-56.53,1.97-84.95c-0.99-13.7-2.7-27.36-5.13-40.88
				c-2.46-13.74-5.78-27.33-7.79-41.16c-3.32-22.7-2.88-49.28,12.45-67.96c3.13-3.82,6.84-7.05,11.12-9.5
				c1.67-0.96,0.17-3.55-1.51-2.59c-18.69,10.71-26.02,34.27-26.72,54.6c-0.97,28.05,8.25,55.45,12.03,83.02
				c3.94,28.78,4.22,57.7,2.27,86.65c-0.98,14.49-2.29,28.96-3.08,43.47c-0.79,14.32-1.66,29.22,0.04,43.51
				c0.61,5.1,3.37,8.67,8.6,9.38c5.7,0.78,11.91-0.77,17.58-1.37c13.59-1.45,27.24-2.6,40.91-2.54c13.73,0.06,27.5,1.35,40.82,4.82
				c13.38,3.48,25.73,9.48,38.02,15.67c11.69,5.89,23.41,11.59,35.92,15.55c11.97,3.79,24.38,6.18,36.89,7.19
				c25.5,2.06,51.46-1.82,75.23-11.28c12.49-4.97,24.07-11.74,35.95-17.96c12.36-6.46,25.19-11.46,38.67-15.06
				c13.09-3.51,26.44-5.92,39.77-8.29c14.28-2.54,28.55-5.08,42.83-7.61c7.15-1.27,14.3-2.54,21.45-3.81
				c0.68-0.12,1.05-0.83,1.1-1.45c3.82-49.06,8.37-98.06,13.65-146.98c5.3-49.09,11.32-98.1,18.09-147.01
				c3.79-27.41,7.82-54.79,12.07-82.14c0.13-0.84-0.38-2.03-1.45-1.9c-32.93,3.94-63.22,18.15-91.94,34.03
				c-29.87,16.52-58.74,35.25-90.38,48.33c-34.94,14.45-73.03,20.6-110.74,17.61c-19.06-1.51-37.78-5.46-55.95-11.38
				c-18.41-5.99-36.3-13.52-54.92-18.87c-30.01-8.62-64.96-10.67-91.43,8.79c-3.16,2.32-6.11,4.9-8.86,7.69
				C773.42,129.37,775.54,131.5,776.9,130.12L776.9,130.12z"/>
		</g>
	</g>
	<path class="st1" d="M777.31,1043H744.5V125.61c1.3-1.48,6.61-7.17,15.04-7.74c10.1-0.67,16.74,6.57,17.77,7.74
		C777.31,431.41,777.31,737.2,777.31,1043z"/>
	<g>
		<g>
			<path d="M848.6,364.34c25.67,1.97,51.45-0.84,76.5-6.5c25.58-5.78,50.42-14.43,74.81-23.99c13.83-5.42,27.54-11.16,41.24-16.92
				c0.75-0.32,1.27-0.99,1.05-1.85c-0.19-0.71-1.1-1.36-1.85-1.05c-24.17,10.17-48.41,20.28-73.26,28.69
				c-24.49,8.28-49.68,14.97-75.43,17.79c-14.3,1.57-28.72,1.93-43.06,0.83C846.67,361.19,846.68,364.19,848.6,364.34L848.6,364.34z
				"/>
		</g>
	</g>
	<g>
		<g>
			<path d="M908.98,387.3c20.45-2.08,40.56-6.96,59.69-14.49c5.46-2.15,10.84-4.51,16.13-7.06c1.74-0.84,0.22-3.43-1.51-2.59
				c-18.21,8.78-37.57,15.14-57.47,18.76c-5.58,1.02-11.19,1.81-16.83,2.38C907.08,384.49,907.06,387.5,908.98,387.3L908.98,387.3z"
				/>
		</g>
	</g>
</g>
</svg>
