<?xml version="1.0" encoding="utf-8"?>
<!-- Generator: Adobe Illustrator 23.0.5, SVG Export Plug-In . SVG Version: 6.00 Build 0)  -->
<svg version="1.1" id="圖層_1" xmlns="http://www.w3.org/2000/svg" xmlns:xlink="http://www.w3.org/1999/xlink" x="0px" y="0px"
	 viewBox="0 0 1920 1080" style="enable-background:new 0 0 1920 1080;" xml:space="preserve">
<style type="text/css">
	.st0{fill:#2B2135;}
	.st1{fill:#4EBBB4;}
	.st2{fill:#46B4AF;}
	.st3{fill:#201733;}
	.st4{fill:#272032;}
	.st5{fill:#F8F5E6;}
	.st6{fill:#F55C50;}
	.st7{fill:#F6F6EA;}
	.st8{fill:#211C2E;}
	.st9{fill:#45B8B3;}
	.st10{fill:#47B7B3;}
	.st11{fill:#39989F;}
	.st12{fill:#EE453C;}
	.st13{fill:#F8F5E7;}
	.st14{fill:#2C1E2D;}
	.st15{fill:#F3F1E4;}
	.st16{fill:#48BCB8;}
	.st17{fill:#22324C;}
</style>
<path class="st0" d="M706.49,463.17c-2.48,10.46,23.06,29.04,62.59,42.04c4.51-17.9,9.02-35.81,13.52-53.71
	C740.59,446.51,708.98,452.67,706.49,463.17z"/>
<path class="st0" d="M1211.11,307.77c-9.21-6.07-36.57,9.93-63.69,40.48c15.66,10.62,31.31,21.24,46.97,31.86
	C1214.68,344.38,1220.35,313.86,1211.11,307.77z"/>
<path class="st0" d="M1252.44,404.11c-6.76-8.54-37.96-1.62-73.7,19.19c11.39,14.81,22.78,29.62,34.17,44.43
	C1243.86,439.95,1259.23,412.68,1252.44,404.11z"/>
<path class="st0" d="M734.28,353.51c-6.55,8.69,9.37,35.41,40.43,62.28c11.45-14.77,22.9-29.54,34.35-44.31
	C772.45,351.04,740.85,344.79,734.28,353.51z"/>
<path class="st0" d="M795.11,263.6c-8.39,7.08,4.49,40.99,33.6,80.17c14.61-11.92,29.22-23.84,43.83-35.76
	C836.45,273.83,803.53,256.49,795.11,263.6z"/>
<path class="st0" d="M947.45,200.87c-10.95,2.08-17.51,37.63-12.77,85.56c18.86-3.26,37.71-6.53,56.57-9.79
	C977.88,229.67,958.45,198.79,947.45,200.87z"/>
<path class="st0" d="M1117.48,227.01c-10.83-2.62-32.55,26.82-49.58,72.1c18.5,4.8,37,9.6,55.5,14.4
	C1132.19,265.54,1128.35,229.64,1117.48,227.01z"/>
<path class="st1" d="M975.65,270.52c-94.96,5.85-178.26,68.99-208.62,158.88v437.22v45.07v119.45h147.68V911.69h152.36v125.08
	h147.68V911.69c0-13.15,0-26.29,0-39.44c0-147.62,0-295.23,0-442.85C1180.4,329.19,1080.92,264.03,975.65,270.52z"/>
<g>
	<path class="st2" d="M920.57,1055H758.83c-0.45-7.88,0.01-22.35,9.38-34.93c15.92-21.39,46.2-22.04,69.15-22.54
		c22.8-0.49,46.49-1,64.46,15.78C917.32,1027.78,919.97,1047.09,920.57,1055z"/>
	<path class="st3" d="M789.3,1055h-28.13v-19.16c2.38-1.22,6.89-3.15,12.89-3.38c7.31-0.28,12.79,2.13,15.24,3.38
		C789.3,1042.23,789.3,1048.61,789.3,1055z"/>
	<path class="st3" d="M833.84,1055h-28.13v-19.16c2.38-1.22,6.89-3.15,12.89-3.38c7.31-0.28,12.79,2.13,15.24,3.38
		C833.84,1042.23,833.84,1048.61,833.84,1055z"/>
	<path class="st3" d="M878.38,1055h-28.13v-19.16c2.38-1.22,6.89-3.15,12.89-3.38c7.31-0.28,12.79,2.13,15.24,3.38
		C878.38,1042.23,878.38,1048.61,878.38,1055z"/>
</g>
<g>
	<path class="st2" d="M1057.58,1055h161.74c0.45-7.88-0.01-22.35-9.38-34.93c-15.92-21.39-46.2-22.04-69.15-22.54
		c-22.8-0.49-46.49-1-64.46,15.78C1060.83,1027.78,1058.18,1047.09,1057.58,1055z"/>
	<path class="st3" d="M1188.85,1055h28.13v-19.16c-2.38-1.22-6.89-3.15-12.89-3.38c-7.31-0.28-12.79,2.13-15.24,3.38
		C1188.85,1042.23,1188.85,1048.61,1188.85,1055z"/>
	<path class="st3" d="M1144.31,1055h28.13v-19.16c-2.38-1.22-6.89-3.15-12.89-3.38c-7.31-0.28-12.79,2.13-15.24,3.38
		C1144.31,1042.23,1144.31,1048.61,1144.31,1055z"/>
	<path class="st3" d="M1099.77,1055h28.13v-19.16c-2.38-1.22-6.89-3.15-12.89-3.38c-7.31-0.28-12.79,2.13-15.24,3.38
		C1099.77,1042.23,1099.77,1048.61,1099.77,1055z"/>
</g>
<g>
	<path class="st4" d="M1181.93,721.26c-36.83,72.92-151.95,70.72-196.9,69.86c-47.57-0.91-153.18-2.92-186.35-72.12
		c-22.08-46.04-7.91-113.13,31.64-137.47c36.54-22.49,64.74,9.98,157.05,11.27c98.43,1.37,130.07-34.66,167.6-10.14
		C1193.68,607.95,1204.97,675.64,1181.93,721.26z"/>
	<path class="st5" d="M1002.61,644.63c21.81,0.82,47.51-23.64,43.37-56.34c-11.25,2.18-24.67,4-39.85,4.51
		c-16.59,0.56-31.24-0.58-43.36-2.25C959.92,620.75,982.19,643.86,1002.61,644.63z"/>
	<path class="st5" d="M854.64,600.68c6.51,0.25,11.75-5.38,12.82-6.55c7.1-7.8,5.35-17.85,5.06-19.36c-4.11-1-10.72-2.1-18.75-1.13
		c-6.63,0.8-11.88,2.72-15.38,4.33C837.22,590.65,846.31,600.35,854.64,600.68z"/>
	<path class="st5" d="M1139.01,604.06c-6.51,0.25-11.75-5.38-12.82-6.55c-7.1-7.8-5.35-17.85-5.06-19.36
		c4.11-1,10.72-2.1,18.75-1.13c6.63,0.8,11.88,2.72,15.38,4.33C1156.43,594.03,1147.34,603.73,1139.01,604.06z"/>
	<path class="st5" d="M914.38,644.25c6.39,1.34,14.09-8.48,17.94-13.39c12.16-15.5,12.06-32.81,11.69-39.19
		c-6.25-1.5-12.5-3-18.75-4.51c-7.81-1.88-15.63-3.76-23.44-5.63C901.77,630.71,908.14,642.94,914.38,644.25z"/>
	<path class="st5" d="M1092.12,639.74c-6.39,1.34-14.09-8.48-17.94-13.39c-12.16-15.5-12.06-32.81-11.69-39.19
		c6.25-1.5,12.5-3,18.75-4.51c7.81-1.88,15.63-3.76,23.44-5.63C1104.73,626.2,1098.36,638.44,1092.12,639.74z"/>
	<path class="st5" d="M862.57,742.7c6.28,1.68,9.48,8.58,10.12,10.01c4.27,9.52-0.6,18.57-1.35,19.92
		c-4.23-0.25-10.88-1.16-18.21-4.45c-6.06-2.71-10.44-6.09-13.26-8.65C842.79,747.11,854.54,740.55,862.57,742.7z"/>
	<path class="st5" d="M1136.43,736.45c-6.01,2.41-8.3,9.64-8.75,11.14c-3.01,9.95,2.98,18.35,3.91,19.6
		c4.16-0.76,10.64-2.45,17.5-6.58c5.66-3.41,9.57-7.29,12.05-10.16C1156.62,738.48,1144.13,733.36,1136.43,736.45z"/>
	<path class="st6" d="M1094.03,780.98c-3.6,4.54-16.92,5.6-43.36,7.89c-15.02,1.3-38.61,2.81-69.74,2.25
		c-10.97-0.2-21.96-0.88-43.95-2.25c-30.4-1.89-32.89-2.17-35.16-4.51c-17.29-17.77,23.94-96.88,56.26-94.65
		c16.23,1.11,21.59,22.15,39.85,21.41c17.63-0.71,21.14-20.65,36.33-22.54C1065,684.76,1111.55,758.87,1094.03,780.98z"/>
	<path class="st5" d="M1002.61,733.3c20.94-0.86,46.77,23.19,43.37,56.34c-13.98,0.73-28.45,1.24-43.37,1.48
		c-13.25,0.21-26.15,0.2-38.68,0C959.04,759.09,982.14,734.14,1002.61,733.3z"/>
	<path class="st5" d="M1080.81,724.66c6.39-1.34,14.09,8.48,17.94,13.39c12.16,15.5,12.06,32.81,11.69,39.19
		c-6.25,1.5-12.5,3-18.75,4.51c-7.81,1.88-15.63,3.76-23.44,5.63C1068.2,738.2,1074.57,725.97,1080.81,724.66z"/>
	<path class="st5" d="M918.66,724.66c-6.28-1.31-13.71,8.05-17.94,13.39c-13.23,16.69-13.36,35.5-12.97,42.93
		c4.69,1.68,10.18,3.3,16.41,4.51c10.48,2.03,19.77,2.27,27.07,1.9C931.27,738.2,924.9,725.97,918.66,724.66z"/>
</g>
<g>
	<path class="st7" d="M834.19,451.32c-5.89,33.98,8.14,65.67,35.57,75.33c27.44,9.66,59.43-5.84,77.75-35.44L834.19,451.32z"/>
	<ellipse class="st8" cx="900.64" cy="501.52" rx="24.61" ry="23.66"/>
</g>
<g>
	<path class="st7" d="M1146.41,453.58c5.89,33.98-8.14,65.67-35.57,75.33s-59.43-5.84-77.75-35.44L1146.41,453.58z"/>
	<ellipse class="st8" cx="1079.96" cy="503.78" rx="24.61" ry="23.66"/>
</g>
<path class="st0" d="M646.31,557.86c-8.55,6.9,0.12,36.54,23.44,69.86c14.85-11.64,29.69-23.29,44.54-34.93
	C683.96,564.4,654.9,550.94,646.31,557.86z"/>
<path class="st0" d="M572.48,655.9c-8.55,6.9,0.12,36.54,23.44,69.86c14.85-11.64,29.69-23.29,44.54-34.93
	C610.12,662.44,581.06,648.98,572.48,655.9z"/>
<path class="st0" d="M517.06,762.74c-5.77,9.18,12.39,34.54,45.66,58.84c10.14-15.63,20.27-31.26,30.41-46.89
	C554.88,757.23,522.86,753.52,517.06,762.74z"/>
<g>
	<path class="st9" d="M730.7,952.26c-63.29-3-126.58-6.01-189.87-9.01c-3.19-27.44-17.21-172.66,89.07-287.35
		c49.13-53.02,105.34-79.4,140.64-92.4c-0.39,48.45-0.78,96.91-1.17,145.36c-3.44,1.58-9.06,4.64-14.06,10.14
		c-7.93,8.72-9.8,18.59-10.55,22.54C741.56,758.46,735.66,840.29,730.7,952.26z"/>
	<g>
		<path class="st10" d="M543.13,938.8c0.93,4.99,1.86,9.99,3.46,14.81c3.82,11.48,12.05,22.09,23.68,26.59
			c11.63,4.5,26.64,1.5,33.6-8.52c6.05,10.15,17.42,17.2,29.54,18.29c12.12,1.1,24.66-3.78,32.57-12.67
			c8.52,8.74,21.95,12.75,34.12,10.19c12.17-2.56,22.63-11.6,26.58-22.96c2.32-6.67,2.48-13.82,2.62-20.85
			c0.02-1.09,0.04-2.2-0.37-3.22c-1.16-2.9-4.99-3.64-8.2-3.95c-52-5.01-104.16-10.03-156.4-8.69c-8.02,0.21-16.17,0.58-23.76,3.11
			c0.53,3,1.6,5.91,3.15,8.56"/>
	</g>
	<rect x="598.26" y="934.23" class="st8" width="7.03" height="36.06"/>
	<rect x="659.21" y="944.37" class="st8" width="5.86" height="29.3"/>
</g>
<path class="st11" d="M1449.15,663.79c-33.8,73.37-98.46,120.29-164.08,118.32c-30.67-0.92-55.95-12.35-73.84-23.66
	c0.78-63.48,1.56-126.96,2.34-190.44c8.74,5,17.38,9.07,25.78,12.4c85.44,33.79,174.06,0.84,213.31-16.9
	C1451.5,596.93,1450.32,630.36,1449.15,663.79z"/>
<g>
	<path class="st12" d="M1368.28,720.13c-24.22,1.13-48.44,2.25-72.67,3.38c-17.85-112.16-35.7-224.32-53.55-336.48
		c29.57-3.15,59.14-6.3,88.71-9.46C1343.28,491.76,1355.78,605.94,1368.28,720.13z"/>
	<path class="st13" d="M1342.5,486.87c-28.13,1.88-56.26,3.76-84.39,5.63c-0.78-6.39-1.56-12.77-2.34-19.16
		c28.52-2.63,57.04-5.26,85.56-7.89C1341.72,472.6,1342.11,479.74,1342.5,486.87z"/>
	<path class="st13" d="M1361.25,675.06c-24.33,1.88-48.65,3.76-72.98,5.63c-0.68-6.39-1.35-12.77-2.03-19.16
		c24.67-2.63,49.33-5.26,74-7.89C1360.57,660.78,1360.91,667.92,1361.25,675.06z"/>
	<path class="st14" d="M1372.97,738.16c-9.52-1.97-21.89-3.64-36.33-3.38c-16.19,0.29-29.78,2.92-39.85,5.63
		c-1.56-5.26-3.13-10.52-4.69-15.78c26.18-3,52.35-6.01,78.53-9.01C1371.41,723.13,1372.19,730.65,1372.97,738.16z"/>
	<ellipse class="st14" cx="1340.15" cy="786.05" rx="66.81" ry="60.29"/>
	<path class="st14" d="M1396.41,209.67c-0.52-25.83-1.17-58.59-23.44-91.27c-23.25-34.12-69.88-67.88-128.92-64.23
		c-57.12,3.53-98.61,40.4-117.2,75.5c-13.94,26.31-14.64,50.94-15.24,72.12c-0.72,25.51-1.73,61.18,19.92,95.78
		c20.04,32.02,54.87,55.75,94.15,64.8c0.65,10.33,1.3,20.66,1.95,30.99c14.91-3.75,32.64-7.15,52.74-9.01
		c17.83-1.65,34.01-1.77,48.05-1.13c-1.02-10.14-2.04-20.27-3.06-30.41c11.77-5.41,23.8-12.99,34.71-23.68
		C1398.05,291.87,1397.05,241.88,1396.41,209.67z"/>
	<path class="st15" d="M1364.25,90.52c-0.71,4.28-2.13,10.01-5.1,16.33c-1.85,3.95-4.78,9.13-9.37,14.48
		c-5.74,0.26-16.49,0.01-28.53-4.97c-13.24-5.47-21.23-13.84-24.88-18.22c0.77-4.75,2.41-11.28,6.06-18.39
		c2.69-5.23,5.75-9.35,8.41-12.42c5.32-3.21,15.34-8.29,28.98-9.68c9.97-1.02,18.24,0.31,23.67,1.62c1.36,3.33,3,8.51,3.24,15.01
		C1366.99,81.34,1365.49,87,1364.25,90.52z"/>
	<path class="st15" d="M1366.26,286.93c-4.38-1.02-10.21-2.82-16.54-6.16c-3.95-2.09-9.09-5.3-14.28-10.11
		c0.18-5.52,1.28-15.8,7.38-26.96c6.71-12.26,16.01-19.26,20.84-22.42c4.87,1.11,11.51,3.19,18.59,7.25
		c5.21,2.99,9.25,6.24,12.23,9.03c2.91,5.35,7.39,15.35,7.77,28.53c0.27,9.63-1.75,17.46-3.53,22.56
		c-3.56,1.04-9.06,2.21-15.81,1.93C1375.57,290.27,1369.81,288.39,1366.26,286.93z"/>
	<path class="st15" d="M1406.45,172.78c-0.71,4.28-2.13,10.01-5.1,16.33c-1.85,3.95-4.78,9.13-9.37,14.48
		c-5.74,0.26-16.49,0.01-28.53-4.97c-13.24-5.47-21.23-13.84-24.88-18.22c0.77-4.75,2.41-11.28,6.06-18.39
		c2.69-5.23,5.75-9.35,8.41-12.42c5.32-3.21,15.34-8.29,28.98-9.68c9.97-1.02,18.24,0.31,23.67,1.62c1.36,3.33,3,8.51,3.24,15.01
		C1409.19,163.6,1407.68,169.26,1406.45,172.78z"/>
	<path class="st15" d="M1306.72,166.31c0.98,2.67,2.02,6.38,2.31,10.88c0.18,2.81,0.12,6.65-0.89,11.07
		c-3.39,1.84-9.98,4.85-18.91,5.53c-9.82,0.75-17.42-1.71-21.08-3.15c-1.1-2.96-2.27-7.19-2.4-12.34c-0.1-3.79,0.39-7.06,0.99-9.61
		c2.16-3.4,6.55-9.27,14.35-14.07c5.7-3.51,11.15-5.18,14.87-6.02c1.92,1.51,4.63,4.01,6.92,7.67
		C1305.35,160.23,1306.31,163.93,1306.72,166.31z"/>
	<path class="st15" d="M1316.1,241.81c0.98,2.67,2.02,6.38,2.31,10.88c0.18,2.81,0.12,6.65-0.89,11.07
		c-3.39,1.84-9.98,4.85-18.91,5.53c-9.82,0.75-17.42-1.71-21.08-3.15c-1.1-2.96-2.27-7.19-2.4-12.34c-0.1-3.79,0.39-7.06,0.99-9.61
		c2.16-3.4,6.55-9.27,14.35-14.07c5.7-3.51,11.15-5.18,14.87-6.02c1.92,1.51,4.63,4.01,6.92,7.67
		C1314.73,235.73,1315.69,239.43,1316.1,241.81z"/>
	<path class="st15" d="M1217.87,155.3c1.92,2.15,4.28,5.25,6.24,9.34c1.23,2.56,2.61,6.16,3.32,10.63
		c-2.47,2.89-7.48,7.99-15.56,11.73c-8.88,4.11-16.89,4.45-20.84,4.38c-2.14-2.38-4.81-5.91-6.87-10.68
		c-1.52-3.5-2.29-6.72-2.69-9.3c0.74-3.92,2.63-10.92,8.09-18.11c4-5.25,8.45-8.71,11.6-10.78c2.36,0.74,5.82,2.13,9.33,4.75
		C1214.31,150.11,1216.6,153.22,1217.87,155.3z"/>
	<path class="st15" d="M1231.94,236.43c1.92,2.15,4.28,5.25,6.24,9.34c1.23,2.56,2.61,6.16,3.32,10.63
		c-2.47,2.89-7.48,7.99-15.56,11.73c-8.88,4.11-16.89,4.45-20.84,4.38c-2.14-2.38-4.81-5.91-6.87-10.68
		c-1.52-3.5-2.29-6.72-2.69-9.3c0.74-3.92,2.63-10.92,8.09-18.11c4-5.25,8.45-8.71,11.6-10.78c2.36,0.74,5.82,2.13,9.33,4.75
		C1228.37,231.24,1230.66,234.35,1231.94,236.43z"/>
	<path class="st15" d="M1254.3,59.49c1.66,4.03,3.48,9.65,4.29,16.55c0.5,4.31,0.73,10.19-0.37,17.05
		c-4.8,3.04-14.17,8.1-27.17,9.73c-14.29,1.79-25.6-1.48-31.07-3.45c-1.86-4.47-3.92-10.88-4.55-18.79
		c-0.46-5.82-0.02-10.86,0.63-14.81c2.87-5.37,8.79-14.65,19.78-22.54c8.03-5.77,15.85-8.69,21.22-10.23
		c2.94,2.2,7.1,5.85,10.75,11.31C1251.78,50.25,1253.49,55.86,1254.3,59.49z"/>
	<path class="st15" d="M1162.46,80.82c3.37,2.87,7.65,7.1,11.61,12.89c2.47,3.62,5.45,8.78,7.69,15.37
		c-2.85,4.8-8.83,13.39-19.66,20.49c-11.9,7.81-23.53,9.81-29.33,10.42c-3.76-3.18-8.61-8-12.89-14.78
		c-3.15-4.99-5.13-9.68-6.4-13.48c0.04-6.03,0.95-16.89,7.04-28.7c4.45-8.63,10.05-14.64,14.12-18.34
		c3.65,0.68,9.08,2.13,14.91,5.42C1155.87,73.67,1160.04,77.93,1162.46,80.82z"/>
	<path class="st15" d="M1129.5,162.6c4.1,1.8,9.47,4.64,15.01,9.08c3.46,2.77,7.87,6.87,12.01,12.55
		c-1.27,5.39-4.39,15.28-12.59,25.11c-9.02,10.81-19.54,15.98-24.9,18.19c-4.56-1.98-10.67-5.24-16.81-10.52
		c-4.52-3.89-7.84-7.82-10.21-11.1c-1.8-5.78-4.21-16.43-1.97-29.43c1.64-9.51,5.18-16.82,7.94-21.5c3.7-0.37,9.33-0.51,15.91,1
		C1121.03,157.62,1126.31,160.52,1129.5,162.6z"/>
	<path class="st15" d="M1124.9,256.24c3.5-2.73,8.53-6.09,15.13-8.9c4.12-1.75,9.89-3.73,17.03-4.78c4.46,3.49,12.29,10.57,17.81,22
		c6.07,12.57,6.22,23.92,5.9,29.53c-3.87,3.04-9.62,6.86-17.27,9.81c-5.63,2.17-10.77,3.28-14.88,3.87
		c-6.19-1.02-17.18-3.66-28.3-11.37c-8.13-5.63-13.38-11.93-16.51-16.39c1.3-3.35,3.67-8.27,8-13.26
		C1116.49,261.33,1121.54,258.07,1124.9,256.24z"/>
</g>
<g>
	<path class="st16" d="M1456.18,589.98c-7.43,47.95-63.57,71.49-103.72,72.68c-51.06,1.52-107.5-32.16-111.93-74.37
		c-2.48-23.64,12.11-42.81,16.41-48.45c23.24-30.53,61.92-35.76,89.07-39.44c24.73-3.35,41.2-5.58,59.77,2.25
		C1438.1,516.28,1461.76,554.03,1456.18,589.98z"/>
	<g>
		<g>
			<path class="st17" d="M1307.52,518.71c1.31,0.34,2.59,0.73,3.86,1.2c0.23,0.08,0.46,0.17,0.69,0.26c0.16,0.06,1.29,0.53,0.28,0.1
				c0.67,0.29,1.34,0.59,1.99,0.92c2.3,1.13,4.44,2.5,6.53,3.99c0.96,0.68-0.46-0.39,0.1,0.07c0.24,0.19,0.47,0.38,0.71,0.57
				c0.47,0.38,0.93,0.78,1.38,1.18c0.99,0.89,1.93,1.82,2.84,2.79c0.41,0.44,0.81,0.89,1.2,1.35c0.23,0.27,0.46,0.56,0.69,0.83
				c0.75,0.89-0.36-0.5,0.07,0.08c0.78,1.06,1.54,2.13,2.23,3.26c0.66,1.07,1.26,2.16,1.81,3.28c0.26,0.53,0.51,1.07,0.75,1.62
				c-0.41-0.91-0.07-0.16,0.02,0.08c0.15,0.39,0.3,0.77,0.44,1.17c0.4,1.12,0.75,2.25,1.04,3.4c0.15,0.59,0.28,1.18,0.4,1.78
				c0.07,0.36,0.14,0.73,0.2,1.09c0.03,0.16,0.18,1.4,0.05,0.27c0.29,2.64,0.37,5.28,0.14,7.93c-0.03,0.31-0.06,0.61-0.09,0.92
				c0,0.02-0.17,1.22-0.06,0.5c0.12-0.72-0.08,0.48-0.09,0.5c-0.06,0.37-0.13,0.73-0.2,1.09c-0.26,1.33-0.59,2.65-0.99,3.96
				c-0.36,1.19-0.79,2.35-1.24,3.5c0.35-0.89,0.04-0.1-0.06,0.12c-0.13,0.28-0.25,0.57-0.39,0.85c-0.32,0.67-0.65,1.34-1.01,2
				c-0.59,1.1-1.23,2.16-1.92,3.2c-0.35,0.52-0.7,1.03-1.07,1.53c-0.09,0.12-0.86,1.09-0.21,0.28c-0.24,0.29-0.47,0.58-0.71,0.87
				c-0.85,1.01-1.74,1.97-2.69,2.89c-0.5,0.48-1.01,0.95-1.53,1.41c-0.19,0.17-0.38,0.33-0.58,0.49c-0.14,0.12-1.41,1.1-0.57,0.48
				c-2.13,1.59-4.41,2.98-6.81,4.14c-0.29,0.14-0.57,0.27-0.86,0.4c-0.21,0.1-1.01,0.44-0.15,0.08c-0.59,0.25-1.18,0.48-1.78,0.69
				c-1.32,0.48-2.66,0.9-4.02,1.25c-1.3,0.34-2.62,0.62-3.94,0.84c-0.32,0.05-0.63,0.1-0.95,0.15c0.98-0.15,0.11-0.02-0.14,0.01
				c-0.76,0.09-1.53,0.16-2.3,0.2c-2.76,0.17-5.5,0.05-8.25-0.25c0.94,0.1,0.25,0.04,0.06,0c-0.38-0.06-0.76-0.12-1.14-0.19
				c-0.63-0.11-1.26-0.24-1.88-0.38c-1.37-0.31-2.72-0.69-4.05-1.14c-0.73-0.25-1.44-0.52-2.15-0.8c-1.2-0.47,0.8,0.39-0.36-0.16
				c-0.35-0.17-0.71-0.32-1.06-0.49c-1.4-0.67-2.76-1.42-4.07-2.24c-0.66-0.41-1.3-0.83-1.94-1.27c-0.26-0.18-0.53-0.37-0.79-0.56
				c-0.16-0.11-1.25-0.96-0.47-0.34c-1.21-0.96-2.38-1.97-3.49-3.03c-1.11-1.07-2.18-2.18-3.19-3.35c-0.51-0.58-0.99-1.18-1.48-1.78
				c-0.11-0.13-0.51-0.68,0,0c-0.31-0.41-0.61-0.82-0.91-1.24c-1.78-2.5-3.33-5.14-4.67-7.9c-1.03-2.12-4.22-2.86-6.16-1.61
				c-2.18,1.4-2.72,3.89-1.61,6.16c5.27,10.86,14.19,20.46,25.3,25.43c11.45,5.13,24.83,5.63,36.61,1.16
				c5.9-2.24,11.33-5.5,15.85-9.93c4.46-4.37,7.81-9.65,10.16-15.4c4.58-11.19,4.13-23.89-1.14-34.74
				c-5.76-11.85-17.12-20.87-29.83-24.17c-2.28-0.59-4.99,0.75-5.54,3.14C1303.84,515.52,1305.08,518.07,1307.52,518.71
				L1307.52,518.71z"/>
		</g>
	</g>
	<g>
		<g>
			<path class="st17" d="M1340.05,559.27c19.78-0.66,39.55-1.32,59.33-1.98c2.35-0.08,4.61-2.01,4.5-4.5
				c-0.11-2.37-1.98-4.58-4.5-4.5c-19.78,0.66-39.55,1.32-59.33,1.98c-2.35,0.08-4.61,2.01-4.5,4.5
				C1335.65,557.14,1337.53,559.36,1340.05,559.27L1340.05,559.27z"/>
		</g>
	</g>
	<g>
		<g>
			<path class="st17" d="M1321.85,611.41c22.1-2.61,44.19-5.41,66.25-8.38c6.24-0.84,12.47-1.69,18.7-2.56
				c2.34-0.33,3.82-3.43,3.14-5.54c-0.83-2.57-3.03-3.49-5.54-3.14c-11.06,1.54-20.86,2.86-31.78,4.29
				c-10.84,1.42-21.68,2.79-32.52,4.12c-6.08,0.75-12.16,1.48-18.25,2.2c-2.33,0.28-4.62,1.87-4.5,4.5
				C1317.45,609.11,1319.34,611.71,1321.85,611.41L1321.85,611.41z"/>
		</g>
	</g>
</g>
</svg>
