<?xml version="1.0" encoding="utf-8"?>
<!-- Generator: Adobe Illustrator 23.0.5, SVG Export Plug-In . SVG Version: 6.00 Build 0)  -->
<svg version="1.1" id="圖層_1" xmlns="http://www.w3.org/2000/svg" xmlns:xlink="http://www.w3.org/1999/xlink" x="0px" y="0px"
	 viewBox="0 0 1920 1080" style="enable-background:new 0 0 1920 1080;" xml:space="preserve">
<style type="text/css">
	.st0{fill:#C3752A;stroke:#000000;stroke-miterlimit:10;}
	.st1{fill:#F4E84D;stroke:#000000;stroke-miterlimit:10;}
	.st2{fill:#898989;stroke:#000000;stroke-miterlimit:10;}
</style>
<g>
	<rect x="940.39" y="785.43" class="st0" width="58.38" height="197.38"/>
	<ellipse class="st1" cx="969.58" cy="1003.14" rx="57.21" ry="33.86"/>
	<g>
		<g>
			<path d="M942.39,846.83c8.34,0,16.68,0,25.02,0c1.93,0,1.93-3,0-3c-8.34,0-16.68,0-25.02,0
				C940.46,843.83,940.46,846.83,942.39,846.83L942.39,846.83z"/>
		</g>
	</g>
	<g>
		<g>
			<path d="M942.39,878.44c8.34,0,16.68,0,25.02,0c1.93,0,1.93-3,0-3c-8.34,0-16.68,0-25.02,0
				C940.46,875.44,940.46,878.44,942.39,878.44L942.39,878.44z"/>
		</g>
	</g>
	<g>
		<g>
			<path d="M942.39,910.04c8.34,0,16.68,0,25.02,0c1.93,0,1.93-3,0-3c-8.34,0-16.68,0-25.02,0
				C940.46,907.04,940.46,910.04,942.39,910.04L942.39,910.04z"/>
		</g>
	</g>
	<g>
		<g>
			<path d="M942.39,941.65c8.34,0,16.68,0,25.02,0c1.93,0,1.93-3,0-3c-8.34,0-16.68,0-25.02,0
				C940.46,938.65,940.46,941.65,942.39,941.65L942.39,941.65z"/>
		</g>
	</g>
	<rect x="864.5" y="747.7" class="st1" width="212.5" height="38.7"/>
	<path class="st2" d="M1025.63,747.7H913.54c0-223.19,0-446.37,0-669.56c18.68-13.55,37.36-27.09,56.04-40.64
		c18.68,13.55,37.36,27.09,56.04,40.64C1025.63,301.32,1025.63,524.51,1025.63,747.7z"/>
	<line class="st1" x1="969.58" y1="747.7" x2="969.58" y2="321.97"/>
</g>
</svg>
