<?xml version="1.0" encoding="utf-8"?>
<!-- Generator: Adobe Illustrator 23.0.5, SVG Export Plug-In . SVG Version: 6.00 Build 0)  -->
<svg version="1.1" id="圖層_1" xmlns="http://www.w3.org/2000/svg" xmlns:xlink="http://www.w3.org/1999/xlink" x="0px" y="0px"
	 viewBox="0 0 1920 1080" style="enable-background:new 0 0 1920 1080;" xml:space="preserve">
<style type="text/css">
	.st0{fill:#010101;stroke:#3D3D3B;stroke-miterlimit:10;}
	.st1{fill:#84B866;}
	.st2{fill:#5D7F46;}
	.st3{fill:#010101;}
	.st4{fill:#372D31;}
	.st5{fill:#87B761;}
	.st6{fill:#1A2915;}
	.st7{fill:#F5FEED;stroke:#0D180B;stroke-miterlimit:10;}
	.st8{fill:#000200;}
	.st9{fill:#DBEF91;}
	.st10{fill:#0E6B3B;}
	.st11{fill:#001A09;}
	.st12{fill:#0D180B;}
	.st13{fill:#343635;}
	.st14{fill:#34302F;}
	.st15{fill:#D9A251;}
	.st16{fill:#BB8A55;}
	.st17{fill:#F4EE31;stroke:#47361E;stroke-miterlimit:10;}
	.st18{fill:#C17237;stroke:#47361E;stroke-miterlimit:10;}
	.st19{fill:#874D26;stroke:#47361E;stroke-miterlimit:10;}
	.st20{fill:#C17237;}
	.st21{fill:#47361E;}
	.st22{fill:#F4EE31;stroke:#47361E;stroke-width:2;stroke-miterlimit:10;}
</style>
<g>
	<polygon class="st0" points="1056.62,260.63 1038.66,261.81 1036.38,228.58 1054.34,227.4 	"/>
	<polygon class="st0" points="839.02,261.2 826.55,257.6 838.98,216.25 851.45,219.85 	"/>
	<g>
		<path class="st1" d="M1209.65,659.09c10.05,7.54,15.88,20.17,15.01,32.54c-0.13,1.91-0.44,3.88-1.47,5.51
			c-1.03,1.63-2.94,2.85-4.88,2.59c-0.68-0.09-1.34-0.37-1.82-0.85c-0.94-0.94-1-2.38-1.1-3.69c-0.89-11.68-9.36-21.37-18.14-29.31
			c-1.86-1.68-3.83-3.44-4.65-5.79c-0.82-2.35,0.02-5.46,2.41-6.28c0.9-0.3,1.87-0.25,2.81-0.15c5.89,0.67,11.5,3.51,15.46,7.84"/>
		<g>
			<path class="st2" d="M1209.27,659.74c6.16,4.67,10.74,11.3,13.05,18.67c1.14,3.66,1.73,7.48,1.67,11.31
				c-0.03,2.02-0.12,4.16-0.93,6.04c-0.8,1.86-2.76,3.72-4.96,3.17c-2.28-0.57-1.9-3.61-2.14-5.42c-0.25-1.85-0.68-3.67-1.28-5.44
				c-1.23-3.63-3.11-7.02-5.33-10.14c-2.29-3.21-4.92-6.17-7.72-8.95c-1.39-1.38-2.84-2.72-4.29-4.04c-1.45-1.32-2.97-2.71-3.8-4.51
				c-0.79-1.72-0.72-4.17,0.87-5.44c1.74-1.39,4.85-0.45,6.79,0.07c4.43,1.19,8.44,3.61,11.56,6.97c0.66,0.71,1.72-0.35,1.06-1.06
				c-3.02-3.24-6.84-5.66-11.06-7.01c-3.38-1.08-8.72-2.46-10.63,1.6c-1.79,3.83,0.85,7.38,3.56,9.9c3.39,3.16,6.77,6.28,9.75,9.84
				c3.03,3.62,5.71,7.63,7.4,12.06c0.81,2.13,1.41,4.37,1.69,6.64c0.22,1.81,0.03,4.01,1.43,5.41c1.36,1.36,3.55,1.34,5.19,0.55
				c1.83-0.88,3.01-2.59,3.62-4.48c1.29-3.97,0.86-8.78,0.14-12.82c-1.71-9.6-7.12-18.33-14.88-24.22
				C1209.25,657.86,1208.51,659.17,1209.27,659.74L1209.27,659.74z"/>
		</g>
	</g>
	<g>
		<path class="st1" d="M668.31,661.05c-10.05,7.54-15.88,20.17-15.01,32.54c0.13,1.91,0.44,3.88,1.47,5.51
			c1.03,1.63,2.94,2.85,4.88,2.59c0.68-0.09,1.34-0.37,1.82-0.85c0.94-0.94,1-2.38,1.1-3.69c0.89-11.68,9.36-21.37,18.14-29.31
			c1.86-1.68,3.83-3.44,4.65-5.79s-0.02-5.46-2.41-6.28c-0.9-0.3-1.87-0.25-2.82-0.15c-5.89,0.67-11.5,3.51-15.46,7.84"/>
		<g>
			<path class="st2" d="M667.94,660.41c-6.89,5.23-11.92,12.68-14.17,21.04c-1.11,4.13-1.57,8.5-1.17,12.77
				c0.35,3.72,2.31,8.6,6.87,8.25c2.11-0.16,3.37-1.65,3.68-3.65c0.35-2.19,0.43-4.34,1-6.5c1.18-4.42,3.42-8.47,6.1-12.15
				c2.77-3.8,6.06-7.21,9.49-10.42c2.8-2.62,6.9-5.55,6.66-9.87c-0.1-1.77-0.91-3.61-2.52-4.5c-1.98-1.1-4.67-0.48-6.74,0.01
				c-4.97,1.16-9.53,3.82-13.01,7.55c-0.66,0.71,0.4,1.77,1.06,1.06c2.8-3,6.3-5.28,10.21-6.56c1.86-0.61,3.97-1.17,5.94-1.14
				c2.03,0.03,3.33,1.38,3.53,3.37c0.42,4.02-3.94,6.89-6.5,9.3c-2.88,2.71-5.63,5.57-8.08,8.67c-2.35,2.98-4.43,6.18-5.96,9.67
				c-1.53,3.5-2.2,6.99-2.6,10.76c-0.12,1.16-0.41,2.25-1.6,2.72c-1.07,0.43-2.28,0.1-3.21-0.51c-1.95-1.27-2.59-3.67-2.82-5.86
				c-0.39-3.75-0.08-7.6,0.77-11.27c1.96-8.47,6.87-16.19,13.8-21.45C669.45,661.13,668.71,659.82,667.94,660.41L667.94,660.41z"/>
		</g>
	</g>
	<g>
		<path class="st1" d="M690.53,637.1c-17.68,0.99-32.9,12.61-44.63,25.61c-5.64,6.24-10.92,13.24-12.54,21.42
			c-0.31,1.58-0.17,3.7,1.4,4.17c0.71,0.22,1.49-0.02,2.16-0.34c3.25-1.56,5.1-4.91,7.18-7.82c7.87-10.99,22.04-17.31,35.67-15.93
			c-3.71,4.2-6.33,9.31-7.55,14.73c-0.91,4.04-1.03,8.4,0.62,12.21s5.34,6.95,9.57,7.15c0.39,0.02,0.8,0.01,1.16-0.16
			c1.37-0.66,0.71-2.65,0.11-4.01c-2.74-6.22,0.25-13.62,4.98-18.56c4.73-4.94,10.97-8.18,16.51-12.24s10.67-9.51,11.49-16.24
			c0.25-2.07,0.06-4.22-0.8-6.12c-1.97-4.38-7.02-6.63-11.84-7.45c-8.89-1.51-18.36,0.69-25.62,5.93"/>
		<g>
			<path class="st2" d="M690.53,636.35c-19.1,1.16-35.13,14.06-47.12,28.04c-3.14,3.66-6.07,7.57-8.17,11.93
				c-1.05,2.17-1.9,4.44-2.44,6.79c-0.37,1.6-0.68,3.62,0.43,5.01c2.75,3.46,7.6-2.13,9.14-4.22c1.33-1.81,2.51-3.72,3.97-5.44
				c1.41-1.68,2.98-3.22,4.67-4.62c7.94-6.6,18.48-9.86,28.75-8.87c-0.18-0.43-0.35-0.85-0.53-1.28c-3.67,4.21-6.35,9.22-7.65,14.66
				c-1.28,5.34-1.23,11.44,2.26,15.97c1.36,1.76,3.16,3.2,5.23,4.03c1.6,0.64,4.77,1.54,5.78-0.46c0.97-1.91-0.76-4.26-1.18-6.09
				c-0.6-2.58-0.27-5.27,0.58-7.76c3.86-11.34,16.51-15.49,24.79-22.87c3.74-3.33,7.06-7.55,8.1-12.55
				c1.07-5.13-0.59-9.98-5.02-12.88c-4.81-3.16-11.22-3.79-16.82-3.28c-6.21,0.57-12.21,2.73-17.3,6.35
				c-0.78,0.56-0.03,1.86,0.76,1.3c8.08-5.75,19.37-8.19,28.91-4.87c4.76,1.66,8.45,5.19,8.32,10.53
				c-0.12,4.93-2.93,9.31-6.29,12.71c-7.07,7.17-17.31,10.65-23.47,18.81c-2.67,3.54-4.57,7.99-4.33,12.5
				c0.06,1.06,0.23,2.12,0.53,3.14c0.3,1,0.82,1.92,1.07,2.93c0.16,0.64,0.28,1.2-0.34,1.56c-0.56,0.33-1.37,0.13-1.98,0.01
				c-1.1-0.22-2.15-0.66-3.11-1.25c-5.34-3.28-6.41-9.96-5.39-15.7c1.03-5.82,3.75-11.27,7.63-15.71c0.45-0.51,0.12-1.22-0.53-1.28
				c-8.21-0.79-16.58,1.09-23.76,5.13c-3.55,2-6.83,4.54-9.6,7.53c-2.78,3-4.6,6.89-7.62,9.65c-0.78,0.71-1.74,1.43-2.77,1.74
				c-1.54,0.46-2.05-0.86-2.04-2.14c0.03-2.14,0.93-4.44,1.72-6.4c1.79-4.42,4.55-8.4,7.56-12.07c5.69-6.93,12.26-13.36,19.6-18.53
				c8.19-5.77,17.59-9.92,27.68-10.53C691.49,637.79,691.5,636.29,690.53,636.35L690.53,636.35z"/>
		</g>
	</g>
	<g>
		<path class="st3" d="M887.08,592.16c-26.19,16.8-44.06,43.55-57.65,71.18c-13.59,27.63-23.67,56.88-38.56,83.86
			c-25.54,46.28-65.24,84.94-112.63,109.69c25.3,1.53,51.03-10.34,65.95-30.41c-0.61,7.84-1.23,15.69-1.84,23.53
			c10.55-3.72,19.92-10.57,26.54-19.43c-0.46,6.9-0.92,13.8-1.39,20.7c10.98-3.95,20.43-11.84,26.15-21.83
			c1.26,21.1-2.79,42.49-11.69,61.75c11.07-7.45,26.12-10.4,38.12-4.49c12,5.91,18.52,22.13,11.28,33.22
			c10.99-8.73,21.98-17.46,32.97-26.2c4.44,9.24,6.11,19.74,4.73,29.87c6.39-4.1,12.78-8.2,19.18-12.3
			c3.27,6.34,6.55,12.68,9.82,19.02c8.37-9.35,17.14-18.36,26.29-26.99c3.08-2.91,6.37-5.87,10.48-7.06
			c8.22-2.37,17.03,3.43,20.84,10.94c3.8,7.52,3.83,16.26,3.79,24.65c2.3-5.4,4.61-10.81,6.91-16.21
			c3.95,6.97,8.81,13.44,14.43,19.21c6.24-8.18,12.49-16.36,18.73-24.54c1.72-2.25,3.63-4.64,6.39-5.44
			c2.74-0.79,5.64,0.18,8.32,1.14c11.73,4.2,23.46,8.39,35.19,12.59c1.45-7.75,1.97-15.66,1.54-23.53c5,0.69,9.8,2.73,13.74,5.82
			c0.7-3.95,1.41-7.9,2.11-11.85c14.14,16.11,30.45,30.39,48.37,42.35c-2.88-17.14-7.78-33.94-14.57-49.99
			c7.05,4.64,14.1,9.28,21.15,13.92c0.95-6.29,1.9-12.57,2.86-18.86c23.6,19.4,52.14,32.98,82.29,39.15
			c-9.26-13.45-23.64-22.48-36.25-33c-36.79-30.68-59.01-74.54-79.07-117.6c-16.12-34.6-31.51-69.52-46.14-104.75
			c-8.43-20.29-17.19-41.5-34.09-55.86c-16.28-13.83-38.44-19.56-60-19.94c-21.55-0.38-42.84,4.14-63.9,8.63"/>
	</g>
	<path class="st4" d="M1000,595.81c-17.03,3.32-38.38,6.03-63,5.88c-22.87-0.14-42.82-2.73-59-5.88c2.53-2.69,7.77-8.97,10-18.61
		c2.31-9.96,0.15-18.07-1-21.55c33.33,0,66.67,0,100,0c-0.85,3.94-2.37,13.6,2,24.49C992.17,588.03,997.05,593.15,1000,595.81z"/>
	<g>
		<path class="st3" d="M869.53,160.56c0.01-11.91,3.05-23.82,8.77-34.33c2.99-5.49,6.62-12.54,2.55-17.32
			c-1.43-1.69-3.69-2.78-4.44-4.85c-0.94-2.61,0.97-5.28,2.6-7.53c2.46-3.41,4.52-7.09,6.12-10.95c0.31-0.75,0.61-1.57,0.38-2.35
			c-0.21-0.73-0.84-1.26-1.44-1.75c-4.84-3.91-9.68-7.81-14.52-11.72c-2.73-2.21-5.69-4.51-9.21-4.87c-2.62-0.26-5.2,0.59-7.69,1.43
			c-6.98,2.36-13.96,4.72-20.94,7.08c-0.68,0.23-1.39,0.47-1.92,0.96c-0.82,0.75-1.05,1.91-1.24,2.99
			c-2.47,13.62-6.4,26.99-11.72,39.8c-2.75-17.2-3.99-34.62-3.71-52.03c0.09-5.41,0.41-11.12,3.41-15.67
			c2.21-3.35,5.64-5.71,8.99-7.98c10.85-7.36,21.77-14.76,33.71-20.27c8.03-3.71,16.49-6.53,25.16-8.41
			c6.39-1.38,12.99-2.25,19.49-1.52c11.08,1.25,21.19,7.12,29.31,14.6c8.13,7.48,14.52,16.55,20.85,25.55
			c6.18,8.78,12.36,17.57,18.53,26.35c2.75,3.91,5.5,7.83,8.09,11.85c14.15,21.98,23.14,46.71,32,71.2
			c-7.77,1.93-15.86,2.09-23.87,2.24c-36.51,0.7-73.01,1.39-109.52,2.09c-2.64,0.05-5.44,0.06-7.72-1.25
			c-2.28-1.31-3.68-4.46-2.16-6.58"/>
	</g>
	<g>
		<path class="st3" d="M842.58,205.34c4.66,17.43-6.13,32.1-27.06,81.94c-7.64,18.2-8.2,20.97-8.42,24.22
			c-1.22,17.9,12.78,32.88,19.63,49.52c8.8,21.37,5.63,45.59,10.59,68.12c1.53,6.94,3.97,13.95,8.88,19.18
			c4.03,4.29,9.46,7.1,15.02,9.17c11.09,4.13,22.98,5.64,34.75,7.13c13.94,1.76,27.94,3.52,41.98,3.16
			c24.19-0.61,47.71-7.45,70.9-14.23c4.18-1.22,8.4-2.46,12.19-4.58c12.32-6.89,17.7-21.69,18.78-35.54
			c1.08-13.85-1.12-27.85,0.61-41.64c0.32-2.58,0.83-5.25,2.38-7.36c2.45-3.34,6.86-4.52,10.64-6.31
			c12.05-5.72,18.8-19.19,19.4-32.29c0.59-13.1-4.03-25.9-9.76-37.75c-5.73-11.85-12.64-23.2-17.11-35.56
			c-7.28-20.13-9.24-44.51-26.87-57.07c-11.59-8.26-26.92-8.87-41.24-9.16c-19.03-0.39-48.43-4.63-89.58-1.85
			c-29.63,2-43.56,5.27-46.21,13.33C841.11,200.69,842.01,203.2,842.58,205.34z"/>
	</g>
	<path class="st5" d="M941,398.9c-33.83,1.48-56.54-31.97-61-38.21c-20.48-28.63-19.05-59.65-18-70.53
		c0.33-25.14,0.67-50.29,1-75.43c49,0.65,98,1.31,147,1.96c8.29,30.31,8.33,55.76,7,72.49c-1.77,22.33-3.75,47.21-21,71.51
		C987.98,371.98,969.77,397.64,941,398.9z"/>
	<g>
		<path class="st6" d="M923.93,254.61c-5.92,0.27-12.07,0.51-17.56-1.7c-3.17-1.28-5.98-3.33-9.24-4.38
			c-4.8-1.54-10.17-0.68-14.69,1.53c-4.52,2.21-8.29,5.67-11.59,9.41c3.85-4,9.52-6.24,15.12-5.97c4.66,0.22,9.06,2.06,13.36,3.85
			c4.3,1.78,8.73,3.57,13.4,3.66c4.67,0.09,9.67-1.87,11.82-5.93"/>
	</g>
	<g>
		<path class="st6" d="M953.47,254.61c5.92,0.27,12.07,0.51,17.56-1.7c3.17-1.28,5.98-3.33,9.24-4.38
			c4.8-1.54,10.17-0.68,14.69,1.53c4.52,2.21,8.29,5.67,11.59,9.41c-3.85-4-9.52-6.24-15.12-5.97c-4.66,0.22-9.06,2.06-13.36,3.85
			c-4.3,1.78-8.73,3.57-13.4,3.66c-4.67,0.09-9.67-1.87-11.82-5.93"/>
	</g>
	<g>
		<path class="st7" d="M926,280.36c3.08,11.22-11.39,29.07-28,28.41c-13.72-0.55-22.24-13.46-25-22.04c-0.96-3-4-12.45,1-18.12
			c4.84-5.49,14.27-4.09,22-2.94C904.84,266.98,923.08,269.7,926,280.36z"/>
		<path class="st8" d="M916,270.56c2.09,4.43-5.22,15.11-14.5,15.67c-5.59,0.34-9.63-3.13-10.5-3.92c-5.34-4.83-7.22-13.67-4-16.65
			c1.28-1.19,2.83-0.95,14,0.98C914.02,268.9,915.35,269.18,916,270.56z"/>
		
			<ellipse transform="matrix(0.1672 -0.9859 0.9859 0.1672 482.1775 1113.9467)" class="st9" cx="900.5" cy="271.54" rx="3.43" ry="4"/>
	</g>
	<g>
		<path class="st7" d="M950.62,280.36c-3.08,11.22,11.39,29.07,28,28.41c13.72-0.55,22.24-13.46,25-22.04c0.96-3,4-12.45-1-18.12
			c-4.84-5.49-14.27-4.09-22-2.94C971.78,266.98,953.54,269.7,950.62,280.36z"/>
		<path class="st8" d="M960.62,270.56c-2.09,4.43,5.22,15.11,14.5,15.67c5.59,0.34,9.63-3.13,10.5-3.92
			c5.34-4.83,7.22-13.67,4-16.65c-1.28-1.19-2.83-0.95-14,0.98C962.6,268.9,961.27,269.18,960.62,270.56z"/>
		
			<ellipse transform="matrix(0.9859 -0.1672 0.1672 0.9859 -31.666 167.0744)" class="st9" cx="976.12" cy="271.54" rx="4" ry="3.43"/>
	</g>
	<path class="st10" d="M970.5,356.77c-0.66,6.35-18.45,10.17-32,9.8c-12.53-0.34-29.54-4.48-30-10.78c-0.12-1.66,0.73-5.83,15-11.76
		c10.33,0,20.67,0,31,0C969.74,350.68,970.69,354.97,970.5,356.77z"/>
	<g>
		<g>
			<path class="st11" d="M920.76,357c5.71-4.22,12.04,0.08,18.07,0.86c3.34,0.43,6.5-0.45,9.71-1.28c2.77-0.72,6.17-1.45,8.81,0.08
				c1.67,0.97,3.18-1.62,1.51-2.59c-6.45-3.75-13.36,1.83-20.04,0.78c-3.33-0.53-6.42-2.02-9.76-2.52c-3.39-0.51-7,0.01-9.81,2.08
				C917.71,355.54,919.2,358.14,920.76,357L920.76,357z"/>
		</g>
	</g>
	<g>
		<g>
			<path class="st12" d="M923.79,318.09c-2.07,0.77-3.71,2.31-4.42,4.43c-0.64,1.93-0.38,4.3,1.26,5.65
				c1.85,1.53,4.23,1.21,6.44,1.05c1.11-0.08,2.16-0.09,3.13,0.52c0.8,0.5,1.45,1.23,2.12,1.88c1.56,1.51,3.24,2.67,5.49,2.66
				c2.08,0,4.58-0.55,6.29-1.79c1-0.73,1.45-1.86,2.36-2.63c0.65-0.55,1.5-0.65,2.32-0.67c1.88-0.03,3.75,0.34,5.63,0.01
				c5.27-0.92,5.48-6.88,3.15-10.66c-1.01-1.64-3.61-0.14-2.59,1.51c1.45,2.35,1.85,6.05-1.74,6.28c-2.97,0.2-6.27-0.92-8.76,1.3
				c-0.66,0.58-1.04,1.38-1.63,2.01c-0.59,0.63-1.39,0.96-2.2,1.19c-1.69,0.47-3.53,0.8-5.03-0.3c-1.21-0.89-2.14-2.12-3.36-3.02
				c-1.46-1.08-3.14-1.43-4.94-1.31c-1.33,0.09-4.44,0.87-5.14-0.86c-0.7-1.73,0.87-3.79,2.42-4.36
				C926.38,320.31,925.6,317.41,923.79,318.09L923.79,318.09z"/>
		</g>
	</g>
	<path class="st0" d="M841,220.6c-4.33,12.74-8.67,25.47-13,38.21c-24.99-4.26-45.65-9.4-61-13.72c-29.26-8.23-40.37-17.39-54-26.45
		c-8.01-5.33-12.31-14.49-11-23.51c1.54-10.57,10.54-19.14,22-20.57c26.03-5.1,46.94-4.43,61-2.94c14.52,1.54,29.77,4.82,88,26.45
		c23.31,8.66,42.55,16.19,56,21.55C899.67,219.95,870.33,220.28,841,220.6z"/>
	<path d="M1150,233.34c-16.2,7.85-36.65,15.91-61,21.55c-12.53,2.9-24.29,4.75-35,5.88c-7-25.47-14-50.94-21-76.41
		c11.13-0.58,23.18-0.66,36,0c29.85,1.55,55.82,6.76,77,12.74c8.96,0.91,16.09,7.91,17,16.65
		C1163.9,222.4,1158.47,230.6,1150,233.34z"/>
	<path d="M1055,233.34c-28.73,1.79-69.55,0.93-116-11.76c-27.09-7.4-49.86-17.12-68-26.45c57.67-1.63,115.33-3.27,173-4.9
		C1047.67,204.6,1051.33,218.97,1055,233.34z"/>
	<g>
		<path class="st13" d="M931.39,218.43c35.44,9.34,72,14.61,108.68,15.67"/>
	</g>
	<path class="st14" d="M1035,194.01c-63.33,0.37-126.67,0.75-190,1.12c4.33-13.06,8.67-26.12,13-39.19h166
		C1027.67,168.63,1031.33,181.32,1035,194.01z"/>
	<rect x="912" y="151.05" class="st15" width="52" height="42.12"/>
	<rect x="921" y="157.9" class="st14" width="35" height="27.43"/>
	<rect x="919" y="169.66" class="st15" width="16" height="5.88"/>
	<rect x="920" y="567.4" class="st15" width="30" height="34.29"/>
	<rect x="925" y="574.26" class="st4" width="20" height="9.8"/>
	<rect x="925" y="587.97" class="st4" width="20" height="7.84"/>
	<rect x="901" y="895.58" class="st3" width="21" height="39.19"/>
	<g>
		<path class="st3" d="M922,983.75c-7.67,0.33-15.33,0.65-23,0.98c-0.33-4.57-0.67-9.14-1-13.72c-37.82,20.11-74.38,24.79-92,9.8
			c-2.2-1.87-11.65-9.91-13-22.53c-0.99-9.28,2.28-22.25,11-25.47c6.86-2.53,15.15,1.68,15,2.94c-0.13,1.09-6.55-0.61-10,2.94
			c-3.86,3.97-2.71,13.21,2,18.61c5.47,6.27,14.58,6.04,21,5.88c16.47-0.41,29.11-8.36,36-13.72c-0.33-6.86-0.67-13.72-1-20.57h57
			C923.33,947.18,922.67,965.46,922,983.75z"/>
		<rect x="873" y="931.83" class="st16" width="22" height="17.63"/>
		<rect x="876" y="933.79" class="st3" width="16" height="13.72"/>
	</g>
	<g>
		<path class="st3" d="M952.83,983.75c7.67,0.33,15.33,0.65,23,0.98c0.33-4.57,0.67-9.14,1-13.72c37.82,20.11,74.38,24.79,92,9.8
			c2.2-1.87,11.65-9.91,13-22.53c0.99-9.28-2.28-22.25-11-25.47c-6.86-2.53-15.15,1.68-15,2.94c0.13,1.09,6.55-0.61,10,2.94
			c3.86,3.97,2.71,13.21-2,18.61c-5.47,6.27-14.58,6.04-21,5.88c-16.47-0.41-29.11-8.36-36-13.72c0.33-6.86,0.67-13.72,1-20.57h-57
			C951.5,947.18,952.16,965.46,952.83,983.75z"/>
		
			<rect x="979.83" y="931.83" transform="matrix(-1 -4.398671e-11 4.398671e-11 -1 1981.658 1881.2908)" class="st16" width="22" height="17.63"/>
		
			<rect x="982.83" y="933.79" transform="matrix(-1 -4.399693e-11 4.399693e-11 -1 1981.658 1881.2908)" class="st3" width="16" height="13.72"/>
	</g>
	<path class="st17" d="M1230.17,771.46c-5.99-2.97-15.81-6.89-28.46-7.93c-12.62-1.04-22.86,1.23-29.21,3.17c0-6.61,0-13.22,0-19.83
		c5.71-2.66,16.29-6.65,29.96-6.35c12.07,0.27,21.47,3.78,26.96,6.35C1229.67,755.07,1229.92,763.27,1230.17,771.46z"/>
	<path class="st18" d="M1217,736c-3.43-0.96-7.98-1.83-13.34-1.75c-6.09,0.09-11.16,1.36-14.82,2.63
		c-3.95-157.81-7.9-315.62-11.85-473.43c1.75-6.21,6.55-10.44,11.85-10.52c5.94-0.09,11.32,5.03,12.59,12.27
		C1206.63,422.14,1211.81,579.07,1217,736z"/>
	<path class="st19" d="M1229.79,755.99c-4.84-3.18-13.61-7.99-25.46-9.52c-15.88-2.05-28.27,2.95-33.7,5.55
		c-0.44-2.24-3-16.2,5.24-26.18c8.49-10.28,22.18-8.78,29.96-7.93c8.13,0.89,18.41,2.01,23.96,11.11
		C1236.82,740.51,1230.3,754.92,1229.79,755.99z"/>
	<g>
		<path class="st20" d="M1170.47,764.12c-6.9,5.12-9.62,11.13-13.89,19.25c-19.16,36.42-31.74,33.59-44.18,65.12
			c-9.86,24.99-16.7,51.28-27.65,75.76c-10.94,24.48-26.78,47.71-49.46,60.22c1.75,9.5,9.16,16.94,17.51,20.87
			s17.62,4.93,26.72,5.88c-1.92,11.28,8.66,20.1,17.92,26.03c14.98,9.6,31.24,19.55,48.7,18.14c2.76-0.22,5.63-0.72,8.23,0.28
			c2.41,0.92,4.22,2.99,6.17,4.75c10.22,9.23,26.35,10.13,37.42,2.08c4.33-3.14,8.32-7.64,13.56-7.95c3.11-0.18,6.08,1.19,9.11,1.95
			c9.96,2.51,21.18-2.2,26.8-11.26c1.42-2.29,2.62-4.93,4.85-6.31c3.1-1.92,6.99-0.75,10.52-0.08c7.38,1.42,15.16,0.38,21.98-2.93
			c2.29-1.11,4.55-2.5,7.06-2.79c3.59-0.42,7.01,1.45,10.41,2.76c9.81,3.78,21.12,2.96,30.35-2.22c2.41-1.35,4.77-3.02,7.47-3.46
			c3.18-0.52,6.35,0.73,9.48,1.49c11.1,2.7,23.41-1.07,31.44-9.62c-18.42-7.43-29.54-26.9-39.09-45.17
			c-14.41-27.55-20.98-44.13-53.24-120.45c-3.69-8.73-8.9-20.91-18.06-35.43c-6.68-10.59-13.28-18.97-23.96-32.52
			c-10.18-12.92-15.27-19.38-17.97-21.42C1212.02,754.54,1186.36,752.34,1170.47,764.12z"/>
		<g>
			<path class="st21" d="M1170.09,763.47c-6.74,5.08-10.31,12.22-14.16,19.52c-4.14,7.85-8.79,15.45-14.27,22.45
				c-7.34,9.36-16.32,17.35-22.55,27.57c-4.43,7.27-7.51,15.22-10.44,23.18c-3.61,9.78-6.86,19.68-10.2,29.56
				c-6.36,18.82-13.01,37.7-22.89,55.02c-9.87,17.3-23.04,33.26-40.66,43.06c-0.31,0.17-0.41,0.52-0.34,0.85
				c1.68,8.58,7.71,15.61,15.17,19.91c9.01,5.21,19.63,6.33,29.79,7.4c-0.24-0.32-0.48-0.63-0.72-0.95
				c-1.58,10.23,6.12,18.18,13.72,23.78c4.75,3.49,9.87,6.58,14.95,9.57c5.3,3.12,10.77,5.99,16.53,8.17
				c5.57,2.11,11.44,3.53,17.41,3.72c3.09,0.1,6.12-0.43,9.2-0.43c3.7,0,6.01,1.96,8.57,4.36c7.39,6.93,17.64,9.91,27.6,7.95
				c5.01-0.98,9.45-3.26,13.42-6.42c2.27-1.81,4.45-3.79,7.04-5.14c3.16-1.64,6.23-1.41,9.56-0.42c5.1,1.5,9.83,2.32,15.09,1.07
				c4.76-1.13,9.2-3.65,12.63-7.12c1.78-1.8,3.18-3.85,4.45-6.02c1.65-2.81,3.43-5.28,6.98-5.45c2.91-0.14,5.78,0.88,8.63,1.26
				c3.22,0.43,6.48,0.41,9.7-0.03c2.89-0.4,5.73-1.14,8.44-2.23c2.89-1.16,5.63-3.15,8.73-3.7c3.29-0.58,6.49,1.01,9.45,2.22
				c2.9,1.19,5.89,2.04,9,2.47c5.69,0.79,11.57,0.24,17.01-1.62c2.67-0.91,5.16-2.17,7.6-3.59c3.3-1.93,6.24-3.05,10.1-2.22
				c2.85,0.61,5.58,1.55,8.49,1.89c2.66,0.31,5.34,0.28,7.99-0.07c5.13-0.68,10.09-2.52,14.41-5.37c2.19-1.45,4.19-3.15,6.01-5.04
				c0.42-0.44,0.18-1.04-0.33-1.25c-13.41-5.5-22.73-17.33-30.06-29.38c-5.1-8.38-9.57-17.16-13.96-25.94
				c-6.59-13.19-12.54-26.69-18.36-40.23c-10.49-24.41-20.58-48.99-31.07-73.4c-5.72-13.31-12.48-26.12-20.66-38.1
				c-8.43-12.34-17.97-23.96-27.28-35.64c-2.9-3.64-5.75-7.42-9.05-10.71c-3.71-3.7-8.82-6.24-13.62-8.19
				c-12.18-4.94-26.64-5.87-38.95-0.83C1175.31,760.13,1172.6,761.64,1170.09,763.47c-0.77,0.56-0.02,1.87,0.76,1.3
				c11.07-8.09,25.84-9.23,38.83-5.87c6.59,1.7,13.25,4.59,18.61,8.85c2.8,2.23,5.04,5.29,7.29,8.04
				c9.44,11.6,18.88,23.33,27.57,35.5c8.46,11.86,15.62,24.55,21.54,37.85c6.11,13.72,11.76,27.67,17.6,41.52
				c4.54,10.77,9.08,21.53,13.68,32.28c5.92,13.84,11.93,27.66,18.58,41.17c3.75,7.62,7.62,15.19,11.77,22.59
				c6.63,11.83,14.47,23.78,25.88,31.51c2.7,1.83,5.58,3.35,8.6,4.59c-0.11-0.42-0.22-0.84-0.33-1.25
				c-7.53,7.89-18.91,11.89-29.7,9.66c-2.93-0.6-5.77-1.78-8.79-1.86c-2.83-0.08-5.3,1.09-7.69,2.48
				c-5.38,3.12-10.96,5.25-17.22,5.61c-6.18,0.35-11.78-1.12-17.46-3.42c-2.52-1.03-5.2-1.96-7.97-1.6
				c-2.83,0.37-5.25,1.96-7.79,3.13c-5.79,2.67-12.31,3.7-18.64,2.94c-5-0.6-10.88-3.15-14.96,1.17c-1.68,1.77-2.66,4.07-4.02,6.07
				c-1.52,2.23-3.44,4.21-5.61,5.81c-4.1,3.03-9.11,4.83-14.21,4.9c-2.77,0.04-5.36-0.53-7.99-1.34c-2.64-0.81-5.34-1.61-8.12-1.13
				c-5.25,0.91-8.95,5.29-13.12,8.2c-8.56,5.98-20.24,6.68-29.59,2.12c-2.36-1.15-4.56-2.62-6.51-4.37
				c-1.98-1.78-3.8-3.85-6.32-4.87c-2.56-1.03-5.34-0.67-8.02-0.43c-2.94,0.26-5.9,0.24-8.83-0.09
				c-12.3-1.38-23.52-7.57-33.88-13.98c-8.56-5.29-19.59-11.39-23.08-21.51c-0.85-2.46-1.08-5.03-0.69-7.59
				c0.08-0.52-0.2-0.89-0.72-0.95c-9.72-1.02-19.9-2.08-28.59-6.94c-7.34-4.11-13.28-10.87-14.92-19.27
				c-0.11,0.28-0.23,0.56-0.34,0.85c32.5-18.07,48.69-54.4,60.43-87.88c3.52-10.04,6.8-20.17,10.29-30.22
				c3.17-9.14,6.29-18.44,10.62-27.11c2.87-5.73,6.38-11.07,10.5-15.97c3.72-4.43,7.77-8.56,11.52-12.95
				c5.7-6.66,10.68-13.87,15.03-21.48c4.95-8.66,8.55-18.53,16.77-24.73C1171.61,764.19,1170.86,762.89,1170.09,763.47z"/>
		</g>
	</g>
	<g>
		<g>
			<path class="st21" d="M1228.41,861.1c6.51,19.21,11.73,38.86,15.62,58.77c3.9,19.99,6.46,40.24,7.65,60.58
				c0.68,11.51,0.91,23.03,0.72,34.56c-0.03,1.93,2.97,1.93,3,0c0.34-20.52-0.69-41.05-3.09-61.44c-2.4-20.32-6.12-40.48-11.2-60.3
				c-2.85-11.11-6.12-22.11-9.8-32.97C1230.69,858.49,1227.79,859.27,1228.41,861.1L1228.41,861.1z"/>
		</g>
	</g>
	<g>
		<g>
			<path class="st21" d="M1273.9,948.34c10.39,20.52,16.66,43.12,18.49,66.05c0.52,6.47,0.67,12.96,0.49,19.45
				c-0.05,1.93,2.95,1.93,3,0c0.65-23.45-3.23-47.05-11.49-69.02c-2.31-6.14-4.95-12.15-7.91-17.99
				C1275.62,945.1,1273.03,946.62,1273.9,948.34L1273.9,948.34z"/>
		</g>
	</g>
	<g>
		<g>
			<path class="st21" d="M1267.63,854.1c6.58,23.66,14.15,47.05,22.71,70.07c8.47,22.77,17.9,45.19,28.27,67.17
				c5.86,12.43,12.03,24.72,18.49,36.86c0.91,1.7,3.5,0.19,2.59-1.51c-11.41-21.43-21.89-43.34-31.43-65.66
				c-9.58-22.43-18.19-45.27-25.82-68.43c-4.28-13-8.26-26.1-11.92-39.29C1270.01,851.45,1267.11,852.24,1267.63,854.1
				L1267.63,854.1z"/>
		</g>
	</g>
	<g>
		<g>
			<path class="st21" d="M1196.49,862.51c0.47,12.6,3.3,24.91,5.87,37.2c2.58,12.31,4.5,24.71,5.67,37.23
				c2.36,25.27,2.08,50.7,0.86,76.02c-0.68,14.24-1.66,28.46-2.65,42.68c-0.13,1.93,2.87,1.92,3,0c1.76-25.36,3.51-50.75,3.57-76.18
				c0.06-25.25-1.58-50.58-6.5-75.39c-2.73-13.77-6.29-27.46-6.82-41.56C1199.42,860.58,1196.42,860.58,1196.49,862.51
				L1196.49,862.51z"/>
		</g>
	</g>
	<g>
		<g>
			<path class="st21" d="M1158.39,918.75c3.37,22.37-1.11,44.96-7.03,66.5c-1.7,6.2-3.54,12.37-5.39,18.53
				c-0.56,1.85,2.34,2.64,2.89,0.8c6.59-21.94,13.21-44.34,13.66-67.42c0.13-6.43-0.28-12.85-1.24-19.21
				C1160.99,916.05,1158.1,916.86,1158.39,918.75L1158.39,918.75z"/>
		</g>
	</g>
	<path class="st22" d="M1282.59,843.25c-9.85,5.22-18.45,8.37-24.71,10.31c-24.04,7.45-45.16,6.87-59.91,6.35
		c-7.64-0.27-7.61-0.66-25.46-1.59c-17.87-0.93-20.93-0.7-27.71-1.59c-7.6-0.99-18.46-3.21-31.45-8.73
		c1.23-4.08,3.09-9.03,5.99-14.28c4.18-7.58,8.97-13.03,12.73-16.66c14.93,4.59,38.17,9.7,66.65,7.93
		c27.18-1.69,48.81-9,62.91-15.07c3.73,4.13,7.92,9.38,11.98,15.86C1277.56,832.12,1280.46,838.11,1282.59,843.25z"/>
	<g>
		<path class="st1" d="M1187.43,635.14c17.68,0.99,32.9,12.61,44.63,25.61c5.64,6.24,10.92,13.24,12.54,21.42
			c0.31,1.58,0.17,3.7-1.4,4.17c-0.71,0.22-1.49-0.02-2.16-0.34c-3.25-1.56-5.1-4.91-7.18-7.82c-7.87-10.99-22.04-17.31-35.67-15.93
			c3.71,4.2,6.33,9.31,7.55,14.73c0.91,4.04,1.03,8.4-0.62,12.21c-1.65,3.81-5.34,6.95-9.57,7.15c-0.39,0.02-0.8,0.01-1.16-0.16
			c-1.37-0.66-0.71-2.65-0.11-4.01c2.74-6.22-0.25-13.62-4.98-18.56c-4.73-4.94-10.97-8.18-16.51-12.24s-10.67-9.51-11.49-16.24
			c-0.25-2.07-0.06-4.22,0.8-6.12c1.97-4.38,7.02-6.63,11.84-7.45c8.89-1.51,18.36,0.69,25.62,5.93"/>
		<g>
			<path class="st2" d="M1187.43,635.89c18.15,1.1,33.35,13.23,44.95,26.33c3.17,3.58,6.14,7.37,8.39,11.6
				c0.76,1.44,5.72,12.48,1.45,11.8c-2.1-0.34-3.92-2.54-5.12-4.13c-1.2-1.6-2.25-3.3-3.48-4.88c-2.5-3.22-5.55-6-8.93-8.28
				c-7.72-5.2-17.22-7.71-26.49-6.82c-0.66,0.06-0.98,0.77-0.53,1.28c3.45,3.96,5.96,8.69,7.22,13.79
				c1.27,5.14,1.29,11.21-2.4,15.42c-1.49,1.7-3.46,2.99-5.69,3.45c-0.49,0.1-1.12,0.26-1.62,0.16c-0.96-0.19-0.88-0.84-0.73-1.57
				c0.23-1.07,0.79-2.04,1.1-3.09c1.27-4.26,0.2-8.85-1.88-12.66c-4.96-9.12-15.18-12.98-22.79-19.37
				c-3.6-3.03-6.93-6.78-8.29-11.38c-0.75-2.55-0.93-5.41,0.08-7.91c0.86-2.14,2.57-3.78,4.53-4.93c4.66-2.75,10.6-3.2,15.88-2.66
				c5.8,0.59,11.38,2.73,16.13,6.11c0.79,0.56,1.54-0.74,0.76-1.3c-8.6-6.12-21.07-8.71-31.09-4.64c-4.55,1.85-8.06,5.37-8.38,10.47
				c-0.33,5.17,2.28,10.01,5.63,13.75c7.56,8.45,19.94,11.91,25.85,21.93c1.36,2.31,2.34,4.9,2.56,7.59
				c0.11,1.29,0.04,2.61-0.26,3.88c-0.28,1.21-0.89,2.3-1.22,3.5c-0.56,2.02,0.15,3.85,2.49,3.78c2.22-0.07,4.39-0.99,6.13-2.33
				c5-3.83,6.08-10.32,5.12-16.23c-1.01-6.24-3.95-12.07-8.09-16.81c-0.18,0.43-0.35,0.85-0.53,1.28c9.1-0.88,18.33,1.58,25.89,6.72
				c3.73,2.54,6.98,5.74,9.57,9.45c1.24,1.78,2.41,3.64,3.94,5.2c1.3,1.32,3.28,2.94,5.26,2.79c4.47-0.33,2.08-7.29,1.24-9.58
				c-1.66-4.52-4.29-8.6-7.25-12.37c-5.84-7.43-12.79-14.23-20.47-19.74c-8.53-6.11-18.37-10.44-28.93-11.09
				C1186.46,634.33,1186.47,635.83,1187.43,635.89L1187.43,635.89z"/>
		</g>
	</g>
	<g>
		<path class="st3" d="M908.82,446.88c-16.04-5.25-17.82-16.58-30.52-15.71c-13.69,0.94-24.01,14.62-28.78,22.43
			c-6.47,10.62-10.1,22.61-14.57,34.18c-26.89,69.65-87.6,125.93-160.08,148.38c10.6,2.31,21.5,3.29,32.36,2.92
			c-1.61,9.94-3.23,19.87-4.84,29.81c4.27,1.63,8.93,2.26,13.48,1.81c-3.97,27.07-7.29,57.11,8.65,79.56
			c-2.34-20.83,1.72-42.31,11.51-60.95c-2.93,14.17-1.91,29.11,2.91,42.78c3.51-10.69,4.85-22.05,3.92-33.24
			c5.45,18.39,10.91,36.79,16.36,55.18c4.94-8.35,6.44-18.59,4.09-27.96c2.61,9.45,5.22,18.9,7.83,28.35
			c3.54-9.17,6.21-18.65,7.98-28.3c4.98,5.5,8.62,12.16,10.52,19.27c10.11-8.69,14.21-22.39,15.18-35.54
			c0.96-13.14-0.72-26.36,0.15-39.51c1.31-20,12.58-49.79,16.55-58.69c20.03-44.86,38.56-82.75,52.01-109.4
			c4.86,22.72,10.94,39.34,15,46.04c3.58,5.91,8,9.8,8,9.8s3.14,2.76,7,4.9c14.58,8.06,44.7,2.7,67.68-0.27
			c1.52-0.2,5.07-0.67,8.69-2.98c3.06-1.96,5.15-5.05,7.01-8.14c7.13-11.83,12.24-24.83,15.06-38.29
			c9.82,18.84,19.65,37.68,29.47,56.52c16.07,30.83,32.39,62.37,37.44,96.64c4.41,29.89,0.91,63.29,19.74,87.2
			c3.51-7.17,6.23-14.71,8.08-22.46c2.28,5.09,4.57,10.18,6.85,15.27c3.07-8.72,5.04-17.82,5.87-27.01
			c2.32,7.45,5.82,14.55,10.34,20.96c0.8-6.2,1.6-12.39,2.4-18.59c6.04-9.35,10.43-19.72,12.92-30.52
			c4.32,18.99,4.63,38.84,0.9,57.95c3.98-14.56,7.96-29.13,11.94-43.69c7.11,8.64,11.56,19.36,12.62,30.41
			c3.66-21.05,5.02-42.49,4.06-63.82c3.29,7.28,8.07,13.9,13.99,19.36c-0.15-16.13-2.34-32.25-6.5-47.86
			c10.27-0.02,20.54-0.03,30.81-0.05c-18.32-17.08-45.61-20.23-68.35-31.05c-29.65-14.11-50.92-41.14-66.05-69.83
			c-15.13-28.69-25.16-59.69-39.1-88.95c-1.55-3.26-4.22-11.68-12.21-16.93c-9.07-5.97-19.67-4.8-40.77-0.72
			C927.61,445.53,922.22,451.26,908.82,446.88z"/>
	</g>
	<path class="st5" d="M937,502.74L937,502.74c-4.13-8.61-9.99-19.79-18-32.33c-10.42-16.3-18.39-25.33-15-31.35
		c3.25-5.77,13.46-2.59,19-10.78c2.15-3.18,2.43-6.36,3-12.74c0.69-7.8-0.14-14.27-1-18.61c9.33,0,18.67,0,28,0
		c0.08,3.69,0.31,9.11,1,15.67c0.74,6.98,1.11,10.47,2,12.74c4.47,11.29,16.69,10.05,19,17.63c2.32,7.64-8.34,14.6-21,31.35
		C945.72,485.29,940.37,495.44,937,502.74z"/>
</g>
</svg>
