<?xml version="1.0" encoding="utf-8"?>
<!-- Generator: Adobe Illustrator 23.0.5, SVG Export Plug-In . SVG Version: 6.00 Build 0)  -->
<svg version="1.1" xmlns="http://www.w3.org/2000/svg" xmlns:xlink="http://www.w3.org/1999/xlink" x="0px" y="0px"
	 viewBox="0 0 1920 1080" style="enable-background:new 0 0 1920 1080;" xml:space="preserve">
<style type="text/css">
	.st0{fill:#6F7D7E;}
	.st1{fill:#4F5D5E;}
	.st2{fill:#272F32;}
	.st3{fill:#020202;}
	.st4{fill:#2E4A4B;}
	.st5{fill:#0D2120;}
</style>
<g id="圖層_1">
</g>
<g id="圖層_2">
	<rect y="-3" class="st0" width="1920" height="820"/>
	<path class="st1" d="M161.87,254.18C161.76,169.48,162.6,84.75,164.4,0c-18.58,0-37.16,0-55.75,0
		c1.94,61.76,3.05,125.2,3.21,190.21C65.98,171.55,29.43,157.75,0,147.68V174c11.19,7.68,20.14,16.24,34.6,28.41
		c17.57,14.79,43.12,34.74,77.07,56.29c-0.44,55.23-1.59,111.53-3.53,168.88c0.48-20.95,0.96-41.89,1.44-62.84
		C73.05,354.7,36.53,344.65,0,334.61v29.35c15.05,9.7,30.57,20.35,46.4,32.08c22.54,16.7,42.88,33.45,61.1,49.68
		c-0.5,13.7-1.04,27.45-1.64,41.26c-4.57,106.32-11.57,208.75-20.44,307.05c30.04,0.33,60.08,0.65,90.12,0.98
		c-5.19-105.24-8.91-210.53-11.15-315.85c-1.24-58.11-2.02-116.22-2.35-174.35c15.63-10.58,35.01-21.94,58.1-31.98
		c29.05-12.63,55.62-19.55,77.12-23.47c14.25-12.39,28.49-24.77,42.74-37.16C280.62,226.19,221.25,240.19,161.87,254.18z"/>
	<g>
		<g>
			<g>
				<path class="st1" d="M786.5,161.59c20.96,10.45,30.35,20.34,51.1,37.51c18.22,15.08,44.99,35.62,80.83,57.71
					c0-22.76,0-45.53,0-68.29c-76.38-30.65-127.31-48.25-162.6-57.71c-9.4-2.52-31.36-8.13-54.82-25.01
					C682.11,92.2,669.63,76.6,662,65.41c3.97,11.12,11.72,28.29,26.94,44.25c13.45,14.09,27,21.23,43.67,29.82
					C758.44,152.79,765.56,151.15,786.5,161.59z"/>
			</g>
			<g>
				<path class="st1" d="M970.47,119.27c13.63-16.03,27.25-32.06,40.88-48.09c8.05-14.43,16.1-28.86,24.16-43.28
					c-21.68,12.5-43.36,25.01-65.04,37.51V119.27z"/>
			</g>
			<g>
				<path class="st1" d="M968.87,250.03C968.76,166.71,969.6,83.37,971.4,0c-18.58,0-37.16,0-55.75,0
					c4.25,132.67,4.57,273.14-0.51,420.59c0.48-20.6,0.96-41.21,1.44-61.81c-61.63-16.67-123.26-33.34-184.89-50.02
					c12.7,8.98,25.4,17.95,38.09,26.93c26.14,14.78,54.35,32.54,83.62,53.86c22.54,16.42,42.88,32.9,61.1,48.86
					c-0.5,13.47-1.04,27-1.64,40.59c-4.57,104.58-11.57,205.34-20.44,302.03c30.04,0.32,60.08,0.64,90.12,0.96
					c-5.19-103.52-8.91-207.09-11.15-310.68c-1.24-57.16-2.02-114.32-2.35-171.5c15.63-10.41,35.01-21.58,58.1-31.45
					c29.05-12.42,55.62-19.23,77.12-23.08c14.25-12.18,28.49-24.37,42.74-36.55C1087.62,222.49,1028.25,236.26,968.87,250.03z"/>
			</g>
		</g>
	</g>
	<path class="st1" d="M163.47,124.25c13.63-16.3,27.25-32.6,40.88-48.89c8.05-14.67,16.1-29.34,24.16-44
		c-21.68,12.71-43.36,25.42-65.04,38.14V124.25z"/>
	<path class="st2" d="M1920,1083H0c0-92,0-184,0-276c314.3-22.14,628.63-33.81,943-35c325.62-1.24,651.29,8.76,977,30
		C1920,895.67,1920,989.33,1920,1083z"/>
	<g>
		<path class="st3" d="M283,169c22.56,10.87,32.67,21.15,55,39c19.61,15.68,48.42,37.03,87,60c0-23.67,0-47.33,0-71
			c-82.21-31.86-137.02-50.17-175-60c-10.11-2.62-33.75-8.45-59-26c-20.35-14.15-33.78-30.37-42-42c4.28,11.56,12.61,29.41,29,46
			c14.47,14.65,29.06,22.07,47,31C252.8,159.84,260.46,158.14,283,169z"/>
		<path class="st3" d="M481,125c14.67-16.67,29.33-33.33,44-50c8.67-15,17.33-30,26-45c-23.33,13-46.67,26-70,39V125z"/>
		<path class="st3" d="M479.28,260.94C479.16,174.32,480.06,87.67,482,1c-20,0-40,0-60,0c4.57,137.93,4.92,283.97-0.55,437.26
			c0.52-21.42,1.03-42.84,1.55-64.26c-66.33-17.33-132.67-34.67-199-52c13.67,9.33,27.33,18.67,41,28c28.13,15.37,58.5,33.83,90,56
			c24.26,17.07,46.15,34.21,65.76,50.8c-0.54,14.01-1.12,28.07-1.76,42.2c-4.92,108.73-12.45,213.48-22,314
			c32.33,0.33,64.67,0.67,97,1c-5.59-107.63-9.59-215.29-12-323c-1.33-59.42-2.17-118.85-2.53-178.3
			c16.82-10.82,37.68-22.44,62.53-32.7c31.27-12.92,59.87-19.99,83-24c15.33-12.67,30.67-25.33,46-38
			C607.09,232.31,543.19,246.62,479.28,260.94z"/>
	</g>
	<g>
		<path class="st3" d="M1473,193.94c22.56,12.35,32.67,24.03,55,44.32c19.61,17.82,48.42,42.08,87,68.19c0-26.9,0-53.8,0-80.69
			c-82.21-36.21-137.02-57.01-175-68.19c-10.11-2.98-33.75-9.6-59-29.55c-20.35-16.08-33.78-34.51-42-47.73
			c4.28,13.13,12.61,33.43,29,52.28c14.47,16.65,29.06,25.08,47,35.23C1442.8,183.53,1450.46,181.59,1473,193.94z"/>
		<path class="st3" d="M1671,143.93c14.67-18.94,29.33-37.88,44-56.83c8.67-17.05,17.33-34.1,26-51.14
			c-23.33,14.77-46.67,29.55-70,44.32V143.93z"/>
		<path class="st3" d="M1669.28,298.43c-0.12-98.45,0.78-196.92,2.72-295.43c-20,0-40,0-60,0c4.57,156.76,4.92,322.74-0.55,496.96
			c0.52-24.35,1.03-48.69,1.55-73.04c-66.33-19.7-132.67-39.4-199-59.1c13.67,10.61,27.33,21.22,41,31.82
			c28.13,17.47,58.5,38.45,90,63.65c24.26,19.41,46.15,38.88,65.76,57.74c-0.54,15.92-1.12,31.9-1.76,47.96
			c-4.92,123.57-12.45,242.62-22,356.87c32.33,0.38,64.67,0.76,97,1.14c-5.59-122.32-9.59-244.69-12-367.1
			c-1.33-67.53-2.17-135.08-2.53-202.64c16.82-12.3,37.68-25.5,62.53-37.17c31.27-14.68,59.87-22.72,83-27.28
			c15.33-14.4,30.67-28.79,46-43.19C1797.09,265.89,1733.19,282.16,1669.28,298.43z"/>
	</g>
	<g>
		<g>
			<path class="st4" d="M487.91,882.24c-0.88-5.68-7.17-6.99-11.88-6.06c-4.72,0.93-10.23,2.51-13.74-1.4
				c-3.36-3.74-2.76-10.18-3.73-15.58c-2.66-14.8-21.21-20.52-29.4-9.06c-0.58-8.81-8.78-14.49-16.07-13.86
				c-7.29,0.63-13.72,5.73-19.78,10.66c2.88-8.33-4.43-18.83-11.71-16.82c-8.39,2.32-14.82,16.84-22.46,12.06
				c-4.09-2.55-4.78-9.07-6.42-14.27c-3.96-12.52-16.81-19.69-27.25-15.21c5.23-11.81-5.18-26.56-16.22-27.62
				c-11.04-1.06-21.22,6.6-30.47,13.96c-5.33-10.07-17.06-12.71-26.53-9.29c-9.47,3.43-17.21,11.54-24.63,19.44
				c1.45-7.22,2.91-14.76,1.57-22.02c-1.34-7.26-6.38-14.09-12.53-13.92c-7.06,0.19-11.7,8.71-15.06,16.23
				c0.11-8.35-0.03-17.55-4.61-23.81c-4.83-6.6-13.34-7.62-20.24-4.79c-6.9,2.83-12.59,8.76-18.08,14.55
				c0.03-13.25-14.04-23.08-23.52-16.44c-4.1,2.87-6.91,7.82-10.71,11.24c-9.59,8.63-22.95,5.92-34.62,2.81
				c-3.86-1.03-8.16-2.42-10.16-6.55c-2.39-4.94-0.33-11.17-0.56-16.89c-0.81-19.94-26.59-24.05-32.36-42.76
				c-2-6.47-3.69-12.68-7.08-13.15c-3.59-0.49-6.53,6.15-9.47,10.78C20.8,719.28,5.81,722.48,0,724.49v217.68
				c55.48-3.99,99.85-3.24,131.01-1.67c23.92,1.2,37.02,2.73,66.13,3c45.81,0.42,53.91-2.99,95.06-3c42.83-0.01,47.74,3.69,94.23,5
				c26.13,0.74,58.64,0.53,96.22-2.34c-5.1-16.84-3.95-36.29,3.06-52.09C486.94,888.31,488.39,885.33,487.91,882.24z"/>
		</g>
		<g>
			<path class="st5" d="M482.72,943c-2.35-18.21-4.16-31.61-4.7-36.27c-0.09-0.81-0.36-2.99-1.74-4.41
				c-1.2-1.23-2.92-1.24-4.49-1.18c-11.29,0.4-22.57,0.79-33.86,1.19c4.75-2.22,4.44-11.34,0.55-15.33
				c-3.89-3.98-9.44-4.25-14.53-4.33c-3.82-0.06-7.65-0.11-11.47-0.17c-5.67-0.08-11.33-0.17-17-0.1
				c1.16-9.65,2.32-19.31,3.48-28.96c-10.91,6.33-21.82,12.66-32.72,18.98c3.52-5.88,3.14-14.7-0.86-20.11
				c-4-5.41-11.2-6.85-16.43-3.28c0.62-5.45-2.19-11.2-6.44-13.17c-4.25-1.96-9.51,0.05-12.06,4.62c-2.23,4-2.68,9.76-6.15,12.13
				c-2.39,1.64-5.35,0.99-8.09,0.75c-12.46-1.07-25.04,8.66-29.46,22.8c-12.17-13.41-33.05-12.92-44.78,1.04
				c0.34-5.79,0.62-11.92-1.63-17.04c-2.25-5.12-8.06-8.39-12.01-5.11c2-6.39,4.03-13.18,3.02-19.91
				c-1.01-6.73-6.31-13.01-11.82-11.45c-2.67,0.75-4.8,3.11-6.8,5.38c-8.25,9.37-16.5,18.74-24.75,28.11
				c-1.81-10.61-3.62-21.23-5.44-31.84c-0.67-3.95-2.14-8.78-5.46-9.06c-2.26-0.19-4.14,1.97-5.69,3.96
				c-4.44,5.7-8.88,11.4-13.32,17.1c-1.63-1.78-3.26-3.56-4.89-5.33c-1.85,1.71-4.08,2.81-6.38,3.17c1.36-6.83,1.96-13.88,1.77-20.9
				c-0.06-2.25-0.23-4.61-1.25-6.49c-2.87-5.28-9.58-3.22-14.26-0.39c-10.58,6.41-20.78,13.75-30.48,21.96
				c3.66-14.38,7.33-28.77,10.99-43.15c0.74-2.89,1.48-5.95,0.95-8.9c-1.68-9.33-12.91-9.07-20.13-5.22
				c-10.59,5.65-20.12,14.16-27.7,24.74c-2.13-6.39-1.58-13.57-2.25-20.41c-0.68-6.84-3.34-14.36-8.8-16.36
				c-5.36-1.96-10.86,2.23-15.08,6.67c-4.78,5.02-9.13,10.64-12.95,16.75c0.04-1.98,0.2-14.66-6.24-19.13
				c-5.43-3.77-12.54,0.42-14.64,1.65c-2.66,1.56-4.87,3.72-6.74,6.72V941c136.37,9.22,278.14,11.49,424.86,5
				C444.26,945.14,463.54,944.14,482.72,943z"/>
		</g>
	</g>
	<g>
		<g>
			<path class="st4" d="M487.91,1021.24c-0.88-5.68-7.17-6.99-11.88-6.06c-4.72,0.93-10.23,2.51-13.74-1.4
				c-3.36-3.74-2.76-10.18-3.73-15.58c-2.66-14.8-21.21-20.52-29.4-9.06c-0.58-8.81-8.78-14.49-16.07-13.86
				c-7.29,0.63-13.72,5.73-19.78,10.66c2.88-8.33-4.43-18.83-11.71-16.82c-8.39,2.32-14.82,16.84-22.46,12.06
				c-4.09-2.55-4.78-9.07-6.42-14.27c-3.96-12.52-16.81-19.69-27.25-15.21c5.23-11.81-5.18-26.56-16.22-27.62
				c-11.04-1.06-21.22,6.6-30.47,13.96c-5.33-10.07-17.06-12.71-26.53-9.29c-9.47,3.43-17.21,11.54-24.63,19.44
				c1.45-7.22,2.91-14.76,1.57-22.02c-1.34-7.26-6.38-14.09-12.53-13.92c-7.06,0.19-11.7,8.71-15.06,16.23
				c0.11-8.35-0.03-17.55-4.61-23.81c-4.83-6.6-13.34-7.62-20.24-4.79c-6.9,2.83-12.59,8.76-18.08,14.55
				c0.03-13.25-14.04-23.08-23.52-16.44c-4.1,2.87-6.91,7.82-10.71,11.24c-9.59,8.63-22.95,5.92-34.62,2.81
				c-3.86-1.03-8.16-2.42-10.16-6.55c-2.39-4.94-0.33-11.17-0.56-16.89c-0.81-19.94-26.59-24.05-32.36-42.76
				c-2-6.47-3.69-12.68-7.08-13.15c-3.59-0.49-6.53,6.15-9.47,10.78C20.8,858.28,5.81,861.48,0,863.49v217.68
				c55.48-3.99,99.85-3.24,131.01-1.67c23.92,1.2,37.02,2.73,66.13,3c45.81,0.42,53.91-2.99,95.06-3c42.83-0.01,47.74,3.69,94.23,5
				c26.13,0.74,58.64,0.53,96.22-2.34c-5.1-16.84-3.95-36.29,3.06-52.09C486.94,1027.31,488.39,1024.33,487.91,1021.24z"/>
		</g>
		<g>
			<path class="st5" d="M487.88,1080c-4.16-11.02-7.47-22.5-9.86-34.27c-0.33-1.61-0.69-3.34-1.74-4.41
				c-1.2-1.23-2.92-1.24-4.49-1.18c-11.29,0.4-22.57,0.79-33.86,1.19c4.75-2.22,4.44-11.34,0.55-15.33
				c-3.89-3.98-9.44-4.25-14.53-4.33c-3.82-0.06-7.65-0.11-11.47-0.17c-5.67-0.08-11.33-0.17-17-0.1
				c1.16-9.65,2.32-19.31,3.48-28.96c-10.91,6.33-21.82,12.66-32.72,18.98c3.52-5.88,3.14-14.7-0.86-20.11
				c-4-5.41-11.2-6.85-16.43-3.28c0.62-5.45-2.19-11.2-6.44-13.17c-4.25-1.96-9.51,0.05-12.06,4.62c-2.23,4-2.68,9.76-6.15,12.13
				c-2.39,1.64-5.35,0.99-8.09,0.75c-12.46-1.07-25.04,8.66-29.46,22.8c-12.17-13.41-33.05-12.92-44.78,1.04
				c0.34-5.79,0.62-11.92-1.63-17.04c-2.25-5.12-8.06-8.39-12.01-5.11c2-6.39,4.03-13.18,3.02-19.91
				c-1.01-6.73-6.31-13.01-11.82-11.45c-2.67,0.75-4.8,3.11-6.8,5.38c-8.25,9.37-16.5,18.74-24.75,28.11
				c-1.81-10.61-3.62-21.23-5.44-31.84c-0.67-3.95-2.14-8.78-5.46-9.06c-2.26-0.19-4.14,1.97-5.69,3.96
				c-4.44,5.7-8.88,11.4-13.32,17.1c-1.63-1.78-3.26-3.56-4.89-5.33c-1.85,1.71-4.08,2.81-6.38,3.17c1.36-6.83,1.96-13.88,1.77-20.9
				c-0.06-2.25-0.23-4.61-1.25-6.49c-2.87-5.28-9.58-3.22-14.26-0.39c-10.58,6.41-20.78,13.75-30.48,21.96
				c3.66-14.38,7.33-28.77,10.99-43.15c0.74-2.89,1.48-5.95,0.95-8.9c-1.68-9.33-12.91-9.07-20.13-5.22
				c-10.59,5.65-20.12,14.16-27.7,24.74c-2.13-6.39-1.58-13.57-2.25-20.41c-0.68-6.84-3.34-14.36-8.8-16.36
				c-5.36-1.96-10.86,2.23-15.08,6.67c-4.78,5.02-9.13,10.64-12.95,16.75c0.04-1.98,0.2-14.66-6.24-19.13
				c-5.43-3.77-12.54,0.42-14.64,1.65c-2.66,1.56-4.87,3.72-6.74,6.72V1080H487.88z"/>
		</g>
	</g>
	<g>
		<g>
			<path class="st4" d="M1477.09,882.24c0.8-5.68,6.51-6.99,10.79-6.06c4.28,0.93,9.28,2.51,12.48-1.4
				c3.05-3.74,2.51-10.18,3.39-15.58c2.41-14.8,19.26-20.52,26.69-9.06c0.53-8.81,7.97-14.49,14.59-13.86
				c6.61,0.63,12.45,5.73,17.95,10.66c-2.61-8.33,4.02-18.83,10.63-16.82c7.62,2.32,13.45,16.84,20.39,12.06
				c3.71-2.55,4.34-9.07,5.83-14.27c3.59-12.52,15.26-19.69,24.74-15.21c-4.75-11.81,4.7-26.56,14.73-27.62
				c10.02-1.06,19.26,6.6,27.66,13.96c4.84-10.07,15.49-12.71,24.08-9.29c8.6,3.43,15.62,11.54,22.36,19.44
				c-1.32-7.22-2.64-14.76-1.42-22.02c1.22-7.26,5.79-14.09,11.37-13.92c6.41,0.19,10.62,8.71,13.67,16.23
				c-0.1-8.35,0.03-17.55,4.19-23.81c4.39-6.6,12.11-7.62,18.38-4.79c6.27,2.83,11.43,8.76,16.42,14.55
				c-0.02-13.25,12.74-23.08,21.35-16.44c3.72,2.87,6.27,7.82,9.72,11.24c8.7,8.63,20.83,5.92,31.43,2.81
				c3.51-1.03,7.41-2.42,9.23-6.55c2.17-4.94,0.3-11.17,0.51-16.89c0.74-19.94,24.14-24.05,29.38-42.76
				c1.81-6.47,3.35-12.68,6.43-13.15c3.26-0.49,5.93,6.15,8.59,10.78c8.5,14.78,22.11,17.98,27.39,19.99v217.68
				c-50.36-3.99-90.64-3.24-118.93-1.67c-21.71,1.2-33.61,2.73-60.03,3c-41.59,0.42-48.94-2.99-86.29-3
				c-38.88-0.01-43.33,3.69-85.54,5c-23.72,0.74-53.24,0.53-87.35-2.34c4.63-16.84,3.59-36.29-2.78-52.09
				C1477.97,888.31,1476.65,885.33,1477.09,882.24z"/>
		</g>
		<g>
			<path class="st5" d="M1481.79,943c2.14-18.21,3.77-31.61,4.26-36.27c0.09-0.81,0.32-2.99,1.58-4.41
				c1.09-1.23,2.65-1.24,4.08-1.18c10.24,0.4,20.49,0.79,30.73,1.19c-4.32-2.22-4.03-11.34-0.5-15.33
				c3.53-3.98,8.57-4.25,13.19-4.33c3.47-0.06,6.94-0.11,10.42-0.17c5.14-0.08,10.29-0.17,15.43-0.1
				c-1.05-9.65-2.1-19.31-3.16-28.96c9.9,6.33,19.8,12.66,29.71,18.98c-3.19-5.88-2.85-14.7,0.78-20.11
				c3.63-5.41,10.17-6.85,14.91-3.28c-0.56-5.45,1.99-11.2,5.85-13.17c3.86-1.96,8.64,0.05,10.94,4.62c2.02,4,2.43,9.76,5.58,12.13
				c2.17,1.64,4.85,0.99,7.34,0.75c11.31-1.07,22.73,8.66,26.75,22.8c11.05-13.41,30-12.92,40.65,1.04
				c-0.31-5.79-0.56-11.92,1.48-17.04c2.05-5.12,7.32-8.39,10.91-5.11c-1.81-6.39-3.66-13.18-2.74-19.91
				c0.91-6.73,5.73-13.01,10.73-11.45c2.42,0.75,4.36,3.11,6.17,5.38c7.49,9.37,14.98,18.74,22.46,28.11
				c1.64-10.61,3.29-21.23,4.93-31.84c0.61-3.95,1.94-8.78,4.96-9.06c2.05-0.19,3.75,1.97,5.17,3.96c4.03,5.7,8.06,11.4,12.09,17.1
				c1.48-1.78,2.96-3.56,4.44-5.33c1.68,1.71,3.7,2.81,5.79,3.17c-1.24-6.83-1.78-13.88-1.61-20.9c0.05-2.25,0.21-4.61,1.14-6.49
				c2.61-5.28,8.7-3.22,12.94-0.39c9.61,6.41,18.86,13.75,27.67,21.96c-3.33-14.38-6.65-28.77-9.98-43.15
				c-0.67-2.89-1.34-5.95-0.86-8.9c1.53-9.33,11.72-9.07,18.28-5.22c9.61,5.65,18.27,14.16,25.15,24.74
				c1.94-6.39,1.43-13.57,2.05-20.41c0.62-6.84,3.04-14.36,7.99-16.36c4.86-1.96,9.85,2.23,13.69,6.67
				c4.34,5.02,8.28,10.64,11.75,16.75c-0.04-1.98-0.18-14.66,5.67-19.13c4.93-3.77,11.39,0.42,13.29,1.65
				c2.41,1.56,4.42,3.72,6.12,6.72V941c-122.02,8.4-248.7,10.58-379.68,5C1520.69,945.16,1501.18,944.16,1481.79,943z"/>
		</g>
	</g>
	<g>
		<g>
			<path class="st4" d="M1477.09,1021.24c0.8-5.68,6.51-6.99,10.79-6.06c4.28,0.93,9.28,2.51,12.48-1.4
				c3.05-3.74,2.51-10.18,3.39-15.58c2.41-14.8,19.26-20.52,26.69-9.06c0.53-8.81,7.97-14.49,14.59-13.86
				c6.61,0.63,12.45,5.73,17.95,10.66c-2.61-8.33,4.02-18.83,10.63-16.82c7.62,2.32,13.45,16.84,20.39,12.06
				c3.71-2.55,4.34-9.07,5.83-14.27c3.59-12.52,15.26-19.69,24.74-15.21c-4.75-11.81,4.7-26.56,14.73-27.62
				c10.02-1.06,19.26,6.6,27.66,13.96c4.84-10.07,15.49-12.71,24.08-9.29c8.6,3.43,15.62,11.54,22.36,19.44
				c-1.32-7.22-2.64-14.76-1.42-22.02c1.22-7.26,5.79-14.09,11.37-13.92c6.41,0.19,10.62,8.71,13.67,16.23
				c-0.1-8.35,0.03-17.55,4.19-23.81c4.39-6.6,12.11-7.62,18.38-4.79c6.27,2.83,11.43,8.76,16.42,14.55
				c-0.02-13.25,12.74-23.08,21.35-16.44c3.72,2.87,6.27,7.82,9.72,11.24c8.7,8.63,20.83,5.92,31.43,2.81
				c3.51-1.03,7.41-2.42,9.23-6.55c2.17-4.94,0.3-11.17,0.51-16.89c0.74-19.94,24.14-24.05,29.38-42.76
				c1.81-6.47,3.35-12.68,6.43-13.15c3.26-0.49,5.93,6.15,8.59,10.78c8.5,14.78,22.11,17.98,27.39,19.99v217.68
				c-50.36-3.99-90.64-3.24-118.93-1.67c-21.71,1.2-33.61,2.73-60.03,3c-41.59,0.42-48.94-2.99-86.29-3
				c-38.88-0.01-43.33,3.69-85.54,5c-23.72,0.74-53.24,0.53-87.35-2.34c4.63-16.84,3.59-36.29-2.78-52.09
				C1477.97,1027.31,1476.65,1024.33,1477.09,1021.24z"/>
		</g>
		<g>
			<path class="st5" d="M1477.11,1080c3.78-11.02,6.78-22.5,8.95-34.27c0.3-1.61,0.63-3.34,1.58-4.41c1.09-1.23,2.65-1.24,4.08-1.18
				c10.24,0.4,20.49,0.79,30.73,1.19c-4.32-2.22-4.03-11.34-0.5-15.33c3.53-3.98,8.57-4.25,13.19-4.33
				c3.47-0.06,6.94-0.11,10.42-0.17c5.14-0.08,10.29-0.17,15.43-0.1c-1.05-9.65-2.1-19.31-3.16-28.96
				c9.9,6.33,19.8,12.66,29.71,18.98c-3.19-5.88-2.85-14.7,0.78-20.11c3.63-5.41,10.17-6.85,14.91-3.28
				c-0.56-5.45,1.99-11.2,5.85-13.17c3.86-1.96,8.64,0.05,10.94,4.62c2.02,4,2.43,9.76,5.58,12.13c2.17,1.64,4.85,0.99,7.34,0.75
				c11.31-1.07,22.73,8.66,26.75,22.8c11.05-13.41,30-12.92,40.65,1.04c-0.31-5.79-0.56-11.92,1.48-17.04
				c2.05-5.12,7.32-8.39,10.91-5.11c-1.81-6.39-3.66-13.18-2.74-19.91c0.91-6.73,5.73-13.01,10.73-11.45
				c2.42,0.75,4.36,3.11,6.17,5.38c7.49,9.37,14.98,18.74,22.46,28.11c1.64-10.61,3.29-21.23,4.93-31.84
				c0.61-3.95,1.94-8.78,4.96-9.06c2.05-0.19,3.75,1.97,5.17,3.96c4.03,5.7,8.06,11.4,12.09,17.1c1.48-1.78,2.96-3.56,4.44-5.33
				c1.68,1.71,3.7,2.81,5.79,3.17c-1.24-6.83-1.78-13.88-1.61-20.9c0.05-2.25,0.21-4.61,1.14-6.49c2.61-5.28,8.7-3.22,12.94-0.39
				c9.61,6.41,18.86,13.75,27.67,21.96c-3.33-14.38-6.65-28.77-9.98-43.15c-0.67-2.89-1.34-5.95-0.86-8.9
				c1.53-9.33,11.72-9.07,18.28-5.22c9.61,5.65,18.27,14.16,25.15,24.74c1.94-6.39,1.43-13.57,2.05-20.41
				c0.62-6.84,3.04-14.36,7.99-16.36c4.86-1.96,9.85,2.23,13.69,6.67c4.34,5.02,8.28,10.64,11.75,16.75
				c-0.04-1.98-0.18-14.66,5.67-19.13c4.93-3.77,11.39,0.42,13.29,1.65c2.41,1.56,4.42,3.72,6.12,6.72V1080H1477.11z"/>
		</g>
	</g>
	<g>
		<path class="st3" d="M1020,168c22.56,10.87,32.67,21.15,55,39c19.61,15.68,48.42,37.03,87,60c0-23.67,0-47.33,0-71
			c-82.21-31.86-137.02-50.17-175-60c-10.11-2.62-33.75-8.45-59-26c-20.35-14.15-33.78-30.37-42-42c4.28,11.56,12.61,29.41,29,46
			c14.47,14.65,29.06,22.07,47,31C989.8,158.84,997.46,157.14,1020,168z"/>
		<path class="st3" d="M1218,124c14.67-16.67,29.33-33.33,44-50c8.67-15,17.33-30,26-45c-23.33,13-46.67,26-70,39V124z"/>
		<path class="st3" d="M1216.28,259.94c-0.12-86.62,0.78-173.27,2.72-259.94c-20,0-40,0-60,0c4.57,137.93,4.92,283.97-0.55,437.26
			c0.52-21.42,1.03-42.84,1.55-64.26c-66.33-17.33-132.67-34.67-199-52c13.67,9.33,27.33,18.67,41,28c28.13,15.37,58.5,33.83,90,56
			c24.26,17.07,46.15,34.21,65.76,50.8c-0.54,14.01-1.12,28.07-1.76,42.2c-4.92,108.73-12.45,213.48-22,314
			c32.33,0.33,64.67,0.67,97,1c-5.59-107.63-9.59-215.29-12-323c-1.33-59.42-2.17-118.85-2.53-178.3
			c16.82-10.82,37.68-22.44,62.53-32.7c31.27-12.92,59.87-19.99,83-24c15.33-12.67,30.67-25.33,46-38
			C1344.09,231.31,1280.19,245.62,1216.28,259.94z"/>
	</g>
</g>
</svg>
