<?xml version="1.0" encoding="utf-8"?>
<!-- Generator: Adobe Illustrator 23.0.5, SVG Export Plug-In . SVG Version: 6.00 Build 0)  -->
<svg version="1.1" id="圖層_1" xmlns="http://www.w3.org/2000/svg" xmlns:xlink="http://www.w3.org/1999/xlink" x="0px" y="0px"
	 viewBox="0 0 1920 1080" style="enable-background:new 0 0 1920 1080;" xml:space="preserve">
<style type="text/css">
	.st0{fill:#A86E49;stroke:#000000;stroke-miterlimit:10;}
	.st1{fill:#E2AB65;stroke:#020100;stroke-miterlimit:10;}
	.st2{fill:#885138;stroke:#020202;stroke-miterlimit:10;}
	.st3{fill:#FFFFFF;}
</style>
<g>
	<path class="st0" d="M851.95,780.1C736.34,839.81,620.72,899.53,505.1,959.25V702.67c117.32-56.42,234.64-112.83,351.97-169.25
		C855.36,615.65,853.66,697.87,851.95,780.1z"/>
	<path class="st1" d="M506.81,705.38c-65.62-20.71-131.24-41.41-196.86-62.12c63.92-28.36,127.84-56.72,191.76-85.07
		c92.04,41.56,184.07,83.12,276.11,124.69C687.48,690.37,597.14,697.87,506.81,705.38z"/>
	<path class="st2" d="M730.94,674.77c-76.42-38.71-152.83-77.42-229.25-116.13c1.99-62.12,3.98-124.24,5.97-186.35
		c116.47,53.72,232.94,107.43,349.41,161.15C815.02,580.54,772.98,627.65,730.94,674.77z"/>
	<path class="st0" d="M507.66,959.25C399.99,907.63,292.33,856.02,184.67,804.4c-4.83-84.62-9.66-169.25-14.49-253.87
		c112.21,51.62,224.42,103.23,336.63,154.85C507.09,790,507.37,874.63,507.66,959.25z"/>
	<path class="st3" d="M211.51,521.27"/>
	<path class="st1" d="M857.49,532.97c-117.32-52.82-234.64-105.63-351.97-158.45c25.57-32.11,51.13-64.22,76.7-96.33
		c122.15,50.41,244.3,100.83,366.45,151.24C918.28,463.95,887.89,498.46,857.49,532.97z"/>
	<path class="st1" d="M939.73,627.95c-115.9,58.52-231.8,117.03-347.71,175.55c-28.42-33.77-56.85-67.54-85.27-101.32
		c116.77-56.25,233.54-112.51,350.31-168.76C884.62,564.93,912.18,596.44,939.73,627.95z"/>
	<path class="st1" d="M507.66,372.28c-115.9,58.52-231.8,117.03-347.71,175.55c-28.42-33.77-56.85-67.54-85.27-101.32
		C191.45,390.26,308.22,334,424.99,277.75C452.55,309.26,480.1,340.77,507.66,372.28z"/>
	<path class="st1" d="M154.84,542.43c117.21,54.19,234.42,108.37,351.64,162.56c-28.01,31.04-56.03,62.08-84.04,93.11
		c-107.1-50.71-214.19-101.43-321.29-152.14C119.05,611.45,136.94,576.94,154.84,542.43z"/>
	<path class="st2" d="M502.12,559.08c-52.84,23.41-105.68,46.81-158.51,70.22c-61.08-27.01-122.15-54.02-183.23-81.02
		c115.9-58.52,231.8-117.03,347.71-175.55C506.09,434.85,504.11,496.96,502.12,559.08z"/>
</g>
<g>
	<path class="st0" d="M1748.81,780.1c-115.62,59.72-231.24,119.44-346.85,179.15V702.67c117.32-56.42,234.64-112.83,351.97-169.25
		C1752.22,615.65,1750.52,697.87,1748.81,780.1z"/>
	<path class="st1" d="M1403.66,705.38c-65.62-20.71-131.24-41.41-196.86-62.12c63.92-28.36,127.84-56.72,191.76-85.07
		c92.04,41.56,184.07,83.12,276.11,124.69C1584.33,690.37,1494,697.87,1403.66,705.38z"/>
	<path class="st2" d="M1627.8,674.77c-76.42-38.71-152.83-77.42-229.25-116.13c1.99-62.12,3.98-124.24,5.97-186.35
		c116.47,53.72,232.94,107.43,349.41,161.15C1711.88,580.54,1669.84,627.65,1627.8,674.77z"/>
	<path class="st0" d="M1404.52,959.25c-107.66-51.62-215.33-103.23-322.99-154.85c-4.83-84.62-9.66-169.25-14.49-253.87
		c112.21,51.62,224.42,103.23,336.63,154.85C1403.95,790,1404.23,874.63,1404.52,959.25z"/>
	<path class="st3" d="M1108.37,521.27"/>
	<path class="st1" d="M1754.35,532.97c-117.32-52.82-234.64-105.63-351.97-158.45c25.57-32.11,51.13-64.22,76.7-96.33
		c122.15,50.41,244.3,100.83,366.45,151.24C1815.14,463.95,1784.75,498.46,1754.35,532.97z"/>
	<path class="st1" d="M1836.59,627.95c-115.9,58.52-231.8,117.03-347.71,175.55c-28.42-33.77-56.85-67.54-85.27-101.32
		c116.77-56.25,233.54-112.51,350.31-168.76C1781.48,564.93,1809.04,596.44,1836.59,627.95z"/>
	<path class="st1" d="M1404.52,372.28c-115.9,58.52-231.8,117.03-347.71,175.55c-28.42-33.77-56.85-67.54-85.27-101.32
		c116.77-56.25,233.54-112.51,350.31-168.76C1349.41,309.26,1376.96,340.77,1404.52,372.28z"/>
	<path class="st1" d="M1051.7,542.43c117.21,54.19,234.42,108.37,351.64,162.56c-28.01,31.04-56.03,62.08-84.04,93.11
		c-107.1-50.71-214.19-101.43-321.29-152.14C1015.9,611.45,1033.8,576.94,1051.7,542.43z"/>
	<path class="st2" d="M1398.98,559.08c-52.84,23.41-105.68,46.81-158.51,70.22c-61.08-27.01-122.15-54.02-183.23-81.02
		c115.9-58.52,231.8-117.03,347.71-175.55C1402.95,434.85,1400.97,496.96,1398.98,559.08z"/>
</g>
</svg>
