<?xml version="1.0" encoding="utf-8"?>
<!-- Generator: Adobe Illustrator 23.0.5, SVG Export Plug-In . SVG Version: 6.00 Build 0)  -->
<svg version="1.1" id="圖層_1" xmlns="http://www.w3.org/2000/svg" xmlns:xlink="http://www.w3.org/1999/xlink" x="0px" y="0px"
	 viewBox="0 0 1920 1080" style="enable-background:new 0 0 1920 1080;" xml:space="preserve">
<style type="text/css">
	.st0{fill:#E2AB65;stroke:#020100;stroke-miterlimit:10;}
	.st1{fill:#885138;stroke:#020202;stroke-miterlimit:10;}
	.st2{fill:#FFFFFF;}
	.st3{fill:#FCC75E;}
	.st4{fill:#8AB44D;}
	.st5{fill:#A52A2D;}
	.st6{fill:#9CBAB7;}
	.st7{fill:#6D8888;}
	.st8{fill:#9FBCBD;}
	.st9{fill:#C9DCDA;}
	.st10{fill:#E2494A;}
	.st11{fill:#871218;}
	.st12{fill:#3722D3;}
	.st13{fill:#6CC7F4;}
	.st14{fill:#7F2FA5;}
	.st15{fill:#704E21;}
	.st16{fill:#7AE6F4;}
	.st17{fill:#97C5D3;}
	.st18{fill:#F4E1CE;}
	.st19{fill:#BC8D55;}
	.st20{fill:#4C2A05;}
	.st21{fill:#A86E49;stroke:#000000;stroke-miterlimit:10;}
</style>
<g>
	<path class="st0" d="M1440.12,705.38c-65.62-20.71-131.24-41.41-196.86-62.12c63.92-28.36,127.84-56.72,191.76-85.07
		c92.04,41.56,184.07,83.12,276.11,124.69C1620.8,690.37,1530.46,697.87,1440.12,705.38z"/>
	<path class="st1" d="M1664.26,674.77c-76.42-38.71-152.83-77.42-229.25-116.13c1.99-62.12,3.98-124.24,5.97-186.35
		c116.47,53.72,232.94,107.43,349.41,161.15C1748.34,580.54,1706.3,627.65,1664.26,674.77z"/>
	<path class="st2" d="M1144.83,521.27"/>
	<path class="st0" d="M1790.81,532.97c-117.32-52.82-234.64-105.63-351.97-158.45c25.57-32.11,51.13-64.22,76.7-96.33
		c122.15,50.41,244.3,100.83,366.45,151.24C1851.6,463.95,1821.21,498.46,1790.81,532.97z"/>
	<path class="st0" d="M1440.98,372.28c-115.9,58.52-231.8,117.03-347.71,175.55c-28.42-33.77-56.85-67.54-85.27-101.32
		c116.77-56.25,233.54-112.51,350.31-168.76C1385.87,309.26,1413.42,340.77,1440.98,372.28z"/>
	<path class="st1" d="M1435.44,559.08c-52.84,23.41-105.68,46.81-158.51,70.22c-61.08-27.01-122.15-54.02-183.23-81.02
		c115.9-58.52,231.8-117.03,347.71-175.55C1439.41,434.85,1437.43,496.96,1435.44,559.08z"/>
	<rect x="1242.84" y="433.95" class="st3" width="51.13" height="34.21"/>
	<path class="st4" d="M1307.1,798.04c-25.58,0.63-51.15,1.27-76.73,1.9c-9.09,0.23-16.6-7.43-16.71-17.03
		c-1.07-89.91-2.13-179.83-3.2-269.74c11.13-15.47,22.27-30.95,33.4-46.42c21.1,0.59,29.02,0.82,50.12,1.41
		c10.23,15.9,20.45,31.81,30.68,47.71c-0.53,88.35-1.07,176.69-1.6,265.04C1322.99,790.23,1315.92,797.83,1307.1,798.04z"/>
	<g>
		<path class="st5" d="M1541.96,623c-20.41,7.43-51.64,16.02-90.34,16.2c-39.98,0.19-72.17-8.66-92.89-16.2
			c0-68.72,0-137.44,0-206.16c61.08,0.3,122.15,0.6,183.23,0.9C1541.96,486.16,1541.96,554.58,1541.96,623z"/>
		<path class="st6" d="M1541.96,415.94c0.06,9.41-50.79,19.54-95.87,18.91c-40.24-0.57-87.41-9.87-87.35-18.91
			c0.05-9.14,48.51-17.65,88.63-18.01C1490.72,397.55,1541.91,406.51,1541.96,415.94z"/>
		<path class="st7" d="M1529.18,415.04c0.05,7.16-44.07,14.98-83.52,14.4c-34.56-0.51-75.04-7.6-75-14.4
			c0.05-6.95,42.4-13.33,77.55-13.5C1484.91,401.36,1529.13,407.88,1529.18,415.04z"/>
		<path class="st8" d="M1529.18,418.64c-0.05,5.83-44.81,10.83-80.96,10.8c-33.02-0.02-75.74-4.25-75.85-9.9
			c-0.11-5.53,40.57-12.31,77.55-12.6C1487.55,406.64,1529.23,413.01,1529.18,418.64z"/>
		<path class="st9" d="M1541.96,628.7c0,2.52-1.53,4.75-3.79,5.53c-21.05,7.17-51.71,14.82-89.1,14.88
			c-36.26,0.06-66.14-7.04-86.96-13.88c-2.47-0.81-4.08-3.32-3.86-6.04c0.16-2.06,0.33-4.13,0.49-6.19
			c20.3,7.03,51.62,15.11,90.34,14.4c40.38-0.74,72.55-10.74,92.89-18.91V628.7z"/>
		<path class="st2" d="M1541.96,578.89c-22.81,6.38-53.98,12.56-91.19,12.6c-37.61,0.05-69.09-6.18-92.04-12.6
			c0-32.71,0-65.42,0-98.13c22.71,6.83,54.89,13.77,93.74,13.5c36.82-0.25,67.45-6.88,89.48-13.5
			C1541.96,513.47,1541.96,546.18,1541.96,578.89z"/>
		<ellipse class="st10" cx="1450.35" cy="547.33" rx="39.63" ry="35.16"/>
		<g>
			<g>
				<path class="st11" d="M1436.48,527.64c9.42,1.58,19.03,1.25,28.3-1.07c1.87-0.47,1.08-3.36-0.8-2.89
					c-8.72,2.17-17.84,2.56-26.7,1.07C1435.39,524.43,1434.58,527.32,1436.48,527.64L1436.48,527.64z"/>
			</g>
		</g>
		<g>
			<g>
				<path class="st11" d="M1449.7,525.4c-1.11-9.27,2.56-18.46,9.47-24.68c1.44-1.29-0.69-3.41-2.12-2.12
					c-7.43,6.68-11.55,16.82-10.35,26.8C1446.93,527.3,1449.93,527.32,1449.7,525.4L1449.7,525.4z"/>
			</g>
		</g>
	</g>
	<rect x="1210.45" y="515.87" class="st3" width="114.2" height="88.23"/>
	<g>
		<rect x="1334.02" y="433.95" class="st12" width="51.13" height="34.21"/>
		<path class="st13" d="M1398.28,798.04c-25.58,0.63-51.15,1.27-76.73,1.9c-9.09,0.23-16.6-7.43-16.71-17.03
			c-1.07-89.91-2.13-179.83-3.2-269.74c11.13-15.47,22.27-30.95,33.4-46.42c21.1,0.59,29.02,0.82,50.12,1.41
			c10.23,15.9,20.45,31.81,30.68,47.71c-0.53,88.35-1.07,176.69-1.6,265.04C1414.18,790.23,1407.11,797.83,1398.28,798.04z"/>
		<rect x="1301.64" y="515.87" class="st12" width="114.2" height="88.23"/>
	</g>
	<g>
		<path class="st14" d="M1677.47,669.82c-20.41,7.43-51.64,16.02-90.34,16.2c-39.98,0.19-72.17-8.66-92.89-16.2
			c0-68.72,0-137.44,0-206.16c61.08,0.3,122.15,0.6,183.23,0.9C1677.47,532.97,1677.47,601.39,1677.47,669.82z"/>
		<path class="st6" d="M1677.47,462.75c0.06,9.41-50.79,19.54-95.87,18.91c-40.24-0.57-87.41-9.87-87.35-18.91
			c0.05-9.14,48.51-17.65,88.63-18.01C1626.22,444.36,1677.41,453.32,1677.47,462.75z"/>
		<path class="st7" d="M1664.68,461.85c0.05,7.16-44.07,14.98-83.52,14.4c-34.56-0.51-75.04-7.6-75-14.4
			c0.05-6.95,42.4-13.33,77.55-13.5C1620.42,448.17,1664.63,454.69,1664.68,461.85z"/>
		<path class="st8" d="M1664.68,465.46c-0.05,5.83-44.81,10.83-80.96,10.8c-33.02-0.02-75.74-4.25-75.85-9.9
			c-0.11-5.53,40.57-12.31,77.55-12.6C1623.06,453.46,1664.73,459.82,1664.68,465.46z"/>
		<path class="st9" d="M1677.47,675.52c0,2.52-1.53,4.75-3.79,5.53c-21.05,7.17-51.71,14.82-89.1,14.88
			c-36.26,0.06-66.14-7.04-86.96-13.88c-2.47-0.81-4.08-3.32-3.86-6.04c0.16-2.06,0.33-4.13,0.49-6.19
			c20.3,7.03,51.62,15.11,90.34,14.4c40.38-0.74,72.55-10.74,92.89-18.91V675.52z"/>
		<path class="st2" d="M1677.47,625.7c-22.81,6.38-53.98,12.56-91.19,12.6c-37.61,0.05-69.09-6.18-92.04-12.6
			c0-32.71,0-65.42,0-98.13c22.71,6.83,54.89,13.77,93.74,13.5c36.82-0.25,67.45-6.88,89.48-13.5
			C1677.47,560.28,1677.47,592.99,1677.47,625.7z"/>
		<g>
			<rect x="1570.98" y="548.28" class="st15" width="29.75" height="7.8"/>
			<rect x="1581.8" y="548.28" class="st15" width="5.95" height="22.21"/>
			<ellipse class="st14" cx="1585.85" cy="577.16" rx="12.22" ry="15.38"/>
			<ellipse class="st14" cx="1573.63" cy="595.34" rx="12.22" ry="15.38"/>
			<ellipse class="st14" cx="1604.74" cy="578.56" rx="12.22" ry="15.38"/>
			<ellipse class="st14" cx="1566.97" cy="578.56" rx="12.22" ry="15.38"/>
			<ellipse class="st14" cx="1593.63" cy="595.34" rx="12.22" ry="15.38"/>
			<ellipse class="st14" cx="1584.74" cy="612.12" rx="12.22" ry="15.38"/>
		</g>
	</g>
	<g>
		<rect x="1342.66" y="540.18" class="st16" width="207.83" height="16.55"/>
		<path class="st17" d="M1550.49,805.75c-73.01-0.38-146.01-0.77-219.02-1.15c18.76-22.12,24.68-41.86,26.86-54.27
			c1.75-9.95,1.29-23.95,0.37-51.96c-0.91-27.77-2.11-27.76-1.87-43.49c0.44-28.31,4.4-32.79,2.98-49.27
			c-1-11.63-4.6-28.5-17.16-48.5c69.28,0,138.55,0,207.83,0c-9.54,30.98-12.11,56.2-12.69,73.52c-0.69,20.63,1.48,29.45,0.37,63.12
			c-0.92,27.81-2.68,30.24-2.24,45.03C1536.42,754.73,1539.25,777.74,1550.49,805.75z"/>
		<path class="st18" d="M1535.94,738.78h-176.11c-2.82-24.81-4.3-53-2.98-83.91c0.57-13.36,1.61-26.07,2.98-38.1
			c58.7,0,117.41,0,176.11,0c2.84,16.46,5.07,36.19,5.22,58.5C1541.33,699.73,1538.98,721.19,1535.94,738.78z"/>
		<ellipse class="st19" cx="1414.86" cy="689.32" rx="45.33" ry="46.76"/>
		<ellipse class="st20" cx="1390.61" cy="668.54" rx="6.16" ry="6.35"/>
		<ellipse class="st20" cx="1390.61" cy="698.56" rx="6.16" ry="6.35"/>
		<ellipse class="st20" cx="1405.53" cy="716.65" rx="6.16" ry="6.35"/>
		<ellipse class="st20" cx="1421.2" cy="684.32" rx="6.16" ry="6.35"/>
		<ellipse class="st20" cx="1427.54" cy="657.76" rx="6.16" ry="6.35"/>
		<ellipse class="st20" cx="1433.51" cy="713.57" rx="6.16" ry="6.35"/>
		<ellipse class="st20" cx="1446.57" cy="684.32" rx="6.16" ry="6.35"/>
		<ellipse class="st19" cx="1482.39" cy="698.18" rx="33.77" ry="34.83"/>
		<ellipse class="st20" cx="1471.39" cy="687.98" rx="5.22" ry="5.39"/>
		<ellipse class="st20" cx="1487.43" cy="704.14" rx="5.22" ry="5.39"/>
		<ellipse class="st20" cx="1497.88" cy="687.59" rx="5.22" ry="5.39"/>
		<ellipse class="st20" cx="1497.88" cy="713.76" rx="5.22" ry="5.39"/>
		<ellipse class="st20" cx="1471.01" cy="713.76" rx="5.22" ry="5.39"/>
	</g>
	<path class="st21" d="M1785.27,780.1c-115.62,59.72-231.24,119.44-346.85,179.15V702.67c117.32-56.42,234.64-112.83,351.97-169.25
		C1788.68,615.65,1786.98,697.87,1785.27,780.1z"/>
	<path class="st0" d="M1873.05,627.95c-115.9,58.52-231.8,117.03-347.71,175.55c-28.42-33.77-56.85-67.54-85.27-101.32
		c116.77-56.25,233.54-112.51,350.31-168.76C1817.94,564.93,1845.5,596.44,1873.05,627.95z"/>
	<path class="st21" d="M1440.98,959.25c-107.66-51.62-215.33-103.23-322.99-154.85c-4.83-84.62-9.66-169.25-14.49-253.87
		c112.21,51.62,224.42,103.23,336.63,154.85C1440.41,790,1440.69,874.63,1440.98,959.25z"/>
	<path class="st0" d="M1088.16,542.43c117.21,54.19,234.42,108.37,351.64,162.56c-28.01,31.04-56.03,62.08-84.04,93.11
		c-107.1-50.71-214.19-101.43-321.29-152.14C1052.37,611.45,1070.26,576.94,1088.16,542.43z"/>
</g>
<g>
	<path class="st0" d="M470.35,705.31c-65.62-20.69-131.24-41.38-196.86-62.07c63.92-28.34,127.84-56.67,191.76-85.01
		c92.04,41.53,184.07,83.06,276.11,124.6C651.02,690.32,560.68,697.82,470.35,705.31z"/>
	<path class="st1" d="M694.48,674.73c-76.42-38.68-152.83-77.37-229.25-116.05c1.99-62.07,3.98-124.15,5.97-186.22
		c116.47,53.68,232.94,107.35,349.41,161.03C778.56,580.57,736.52,627.65,694.48,674.73z"/>
	<path class="st2" d="M175.05,521.34"/>
	<path class="st0" d="M821.03,533.04c-117.32-52.78-234.64-105.55-351.97-158.33c25.57-32.09,51.13-64.17,76.7-96.26
		c122.15,50.38,244.3,100.76,366.45,151.13C881.82,464.07,851.43,498.55,821.03,533.04z"/>
	<path class="st0" d="M471.2,372.46c-115.9,58.47-231.8,116.95-347.71,175.42c-28.42-33.75-56.85-67.49-85.27-101.24
		C154.99,390.43,271.76,334.21,388.53,278C416.09,309.49,443.64,340.97,471.2,372.46z"/>
	<path class="st1" d="M465.66,559.13c-52.84,23.39-105.68,46.78-158.51,70.17c-61.08-26.99-122.15-53.98-183.23-80.96
		c115.9-58.47,231.8-116.95,347.71-175.42C469.64,434.98,467.65,497.05,465.66,559.13z"/>
	<rect x="273.06" y="434.08" class="st3" width="51.13" height="34.18"/>
	<path class="st4" d="M337.32,797.91c-25.58,0.63-51.15,1.27-76.73,1.9c-9.09,0.22-16.6-7.43-16.71-17.02
		c-1.07-89.85-2.13-179.7-3.2-269.54c11.13-15.46,22.27-30.93,33.4-46.39c21.1,0.59,29.02,0.82,50.12,1.41
		c10.23,15.89,20.45,31.79,30.68,47.68c-0.53,88.28-1.07,176.56-1.6,264.84C353.21,790.11,346.15,797.69,337.32,797.91z"/>
	<g>
		<path class="st5" d="M572.19,623c-20.41,7.42-51.64,16.01-90.34,16.19c-39.98,0.19-72.17-8.66-92.89-16.19
			c0-68.67,0-137.34,0-206.01c61.08,0.3,122.15,0.6,183.23,0.9C572.19,486.26,572.19,554.63,572.19,623z"/>
		<path class="st6" d="M572.19,416.09c0.06,9.4-50.79,19.53-95.87,18.89c-40.24-0.57-87.41-9.87-87.35-18.89
			c0.05-9.14,48.51-17.63,88.63-17.99C520.94,397.71,572.13,406.66,572.19,416.09z"/>
		<path class="st7" d="M559.4,415.19c0.05,7.16-44.07,14.97-83.52,14.39c-34.56-0.51-75.04-7.6-75-14.39
			c0.05-6.95,42.4-13.32,77.55-13.49C515.14,401.52,559.35,408.03,559.4,415.19z"/>
		<path class="st8" d="M559.4,418.79c-0.05,5.83-44.81,10.82-80.96,10.8c-33.02-0.02-75.74-4.25-75.85-9.9
			c-0.11-5.52,40.57-12.3,77.55-12.59C517.78,406.8,559.45,413.16,559.4,418.79z"/>
		<path class="st9" d="M572.19,628.69c0,2.51-1.53,4.75-3.79,5.52c-21.05,7.17-51.71,14.81-89.1,14.87
			c-36.26,0.06-66.14-7.04-86.96-13.87c-2.47-0.81-4.08-3.31-3.86-6.03c0.16-2.06,0.33-4.12,0.49-6.19
			c20.3,7.02,51.62,15.1,90.34,14.39c40.38-0.74,72.55-10.73,92.89-18.89V628.69z"/>
		<path class="st2" d="M572.19,578.92c-22.81,6.38-53.98,12.55-91.19,12.59c-37.61,0.05-69.09-6.18-92.04-12.59
			c0-32.69,0-65.37,0-98.06c22.71,6.82,54.89,13.76,93.74,13.49c36.82-0.25,67.45-6.87,89.48-13.49
			C572.19,513.55,572.19,546.23,572.19,578.92z"/>
		<ellipse class="st10" cx="480.57" cy="547.38" rx="39.63" ry="35.14"/>
		<g>
			<g>
				<path class="st11" d="M466.7,527.71c9.42,1.58,19.03,1.24,28.3-1.07c1.87-0.47,1.08-3.36-0.8-2.89
					c-8.72,2.17-17.84,2.55-26.7,1.07C465.61,524.5,464.8,527.39,466.7,527.71L466.7,527.71z"/>
			</g>
		</g>
		<g>
			<g>
				<path class="st11" d="M479.93,525.47c-1.11-9.27,2.56-18.45,9.47-24.66c1.44-1.29-0.69-3.41-2.12-2.12
					c-7.43,6.67-11.55,16.81-10.35,26.78C477.15,527.36,480.15,527.39,479.93,525.47L479.93,525.47z"/>
			</g>
		</g>
	</g>
	<rect x="240.67" y="515.95" class="st3" width="114.2" height="88.16"/>
	<g>
		<rect x="364.24" y="434.08" class="st12" width="51.13" height="34.18"/>
		<path class="st13" d="M428.5,797.91c-25.58,0.63-51.15,1.27-76.73,1.9c-9.09,0.22-16.6-7.43-16.71-17.02
			c-1.07-89.85-2.13-179.7-3.2-269.54c11.13-15.46,22.27-30.93,33.4-46.39c21.1,0.59,29.02,0.82,50.12,1.41
			c10.23,15.89,20.45,31.79,30.68,47.68c-0.53,88.28-1.07,176.56-1.6,264.84C444.4,790.11,437.33,797.69,428.5,797.91z"/>
		<rect x="331.86" y="515.95" class="st12" width="114.2" height="88.16"/>
	</g>
	<g>
		<path class="st14" d="M707.69,669.78c-20.41,7.42-51.64,16.01-90.34,16.19c-39.98,0.19-72.17-8.66-92.89-16.19
			c0-68.67,0-137.34,0-206.01c61.08,0.3,122.15,0.6,183.23,0.9C707.69,533.04,707.69,601.41,707.69,669.78z"/>
		<path class="st6" d="M707.69,462.87c0.06,9.4-50.79,19.53-95.87,18.89c-40.24-0.57-87.41-9.87-87.35-18.89
			c0.05-9.14,48.51-17.63,88.63-17.99C656.44,444.49,707.63,453.44,707.69,462.87z"/>
		<path class="st7" d="M694.91,461.97c0.05,7.16-44.07,14.97-83.52,14.39c-34.56-0.51-75.04-7.6-75-14.39
			c0.05-6.95,42.4-13.32,77.55-13.49C650.64,448.3,694.85,454.81,694.91,461.97z"/>
		<path class="st8" d="M694.91,465.57c-0.05,5.83-44.81,10.82-80.96,10.8c-33.02-0.02-75.74-4.25-75.85-9.9
			c-0.11-5.52,40.57-12.3,77.55-12.59C653.28,453.58,694.95,459.94,694.91,465.57z"/>
		<path class="st9" d="M707.69,675.47c0,2.51-1.53,4.75-3.79,5.52c-21.05,7.17-51.71,14.81-89.1,14.87
			c-36.26,0.06-66.14-7.04-86.96-13.87c-2.47-0.81-4.08-3.31-3.86-6.03c0.16-2.06,0.33-4.12,0.49-6.19
			c20.3,7.02,51.62,15.1,90.34,14.39c40.38-0.74,72.55-10.73,92.89-18.89V675.47z"/>
		<path class="st2" d="M707.69,625.7c-22.81,6.38-53.98,12.55-91.19,12.59c-37.61,0.05-69.09-6.18-92.04-12.59
			c0-32.69,0-65.37,0-98.06c22.71,6.82,54.89,13.76,93.74,13.49c36.82-0.25,67.45-6.87,89.48-13.49
			C707.69,560.33,707.69,593.01,707.69,625.7z"/>
		<g>
			<rect x="601.2" y="548.33" class="st15" width="29.75" height="7.8"/>
			<rect x="612.02" y="548.33" class="st15" width="5.95" height="22.19"/>
			<ellipse class="st14" cx="616.07" cy="577.19" rx="12.22" ry="15.37"/>
			<ellipse class="st14" cx="603.85" cy="595.36" rx="12.22" ry="15.37"/>
			<ellipse class="st14" cx="634.96" cy="578.59" rx="12.22" ry="15.37"/>
			<ellipse class="st14" cx="597.19" cy="578.59" rx="12.22" ry="15.37"/>
			<ellipse class="st14" cx="623.85" cy="595.36" rx="12.22" ry="15.37"/>
			<ellipse class="st14" cx="614.96" cy="612.13" rx="12.22" ry="15.37"/>
		</g>
	</g>
	<g>
		<rect x="372.88" y="540.23" class="st16" width="207.83" height="16.54"/>
		<path class="st17" d="M580.71,805.62c-73.01-0.38-146.01-0.77-219.02-1.15c18.76-22.11,24.68-41.83,26.86-54.23
			c1.75-9.94,1.29-23.94,0.37-51.92c-0.91-27.75-2.11-27.74-1.87-43.46c0.44-28.29,4.4-32.76,2.98-49.23
			c-1-11.62-4.6-28.48-17.16-48.46c69.28,0,138.55,0,207.83,0c-9.54,30.96-12.11,56.15-12.69,73.46
			c-0.69,20.62,1.48,29.43,0.37,63.08c-0.92,27.79-2.68,30.22-2.24,45C566.64,754.63,569.47,777.62,580.71,805.62z"/>
		<path class="st18" d="M566.16,738.69H390.04c-2.82-24.79-4.3-52.96-2.98-83.85c0.57-13.35,1.61-26.06,2.98-38.08
			c58.7,0,117.41,0,176.11,0c2.84,16.45,5.07,36.16,5.22,58.46C571.55,699.67,569.2,721.12,566.16,738.69z"/>
		<ellipse class="st19" cx="445.08" cy="689.27" rx="45.33" ry="46.73"/>
		<ellipse class="st20" cx="420.83" cy="668.5" rx="6.16" ry="6.35"/>
		<ellipse class="st20" cx="420.83" cy="698.5" rx="6.16" ry="6.35"/>
		<ellipse class="st20" cx="435.75" cy="716.58" rx="6.16" ry="6.35"/>
		<ellipse class="st20" cx="451.42" cy="684.27" rx="6.16" ry="6.35"/>
		<ellipse class="st20" cx="457.77" cy="657.73" rx="6.16" ry="6.35"/>
		<ellipse class="st20" cx="463.74" cy="713.5" rx="6.16" ry="6.35"/>
		<ellipse class="st20" cx="476.79" cy="684.27" rx="6.16" ry="6.35"/>
		<ellipse class="st19" cx="512.61" cy="698.12" rx="33.77" ry="34.81"/>
		<ellipse class="st20" cx="501.61" cy="687.93" rx="5.22" ry="5.38"/>
		<ellipse class="st20" cx="517.65" cy="704.08" rx="5.22" ry="5.38"/>
		<ellipse class="st20" cx="528.1" cy="687.54" rx="5.22" ry="5.38"/>
		<ellipse class="st20" cx="528.1" cy="713.7" rx="5.22" ry="5.38"/>
		<ellipse class="st20" cx="501.23" cy="713.7" rx="5.22" ry="5.38"/>
	</g>
	<path class="st21" d="M815.49,779.98C699.88,839.65,584.26,899.33,468.64,959V702.61c117.32-56.38,234.64-112.75,351.97-169.13
		C818.9,615.65,817.2,697.82,815.49,779.98z"/>
	<path class="st0" d="M903.27,627.95c-115.9,58.47-231.8,116.95-347.71,175.42c-28.42-33.75-56.85-67.49-85.27-101.24
		c116.77-56.21,233.54-112.43,350.31-168.64C848.16,564.97,875.72,596.46,903.27,627.95z"/>
	<path class="st21" d="M471.2,959c-107.66-51.58-215.33-103.15-322.99-154.73c-4.83-84.56-9.66-169.13-14.49-253.69
		c112.21,51.58,224.42,103.15,336.63,154.73C470.63,789.87,470.91,874.44,471.2,959z"/>
	<path class="st0" d="M118.38,542.48c117.21,54.15,234.42,108.3,351.64,162.44c-28.01,31.01-56.03,62.03-84.04,93.04
		c-107.1-50.68-214.19-101.36-321.29-152.03C82.59,611.45,100.48,576.97,118.38,542.48z"/>
</g>
</svg>
