<?xml version="1.0" encoding="utf-8"?>
<!-- Generator: Adobe Illustrator 23.0.5, SVG Export Plug-In . SVG Version: 6.00 Build 0)  -->
<svg version="1.1" id="圖層_1" xmlns="http://www.w3.org/2000/svg" xmlns:xlink="http://www.w3.org/1999/xlink" x="0px" y="0px"
	 viewBox="0 0 1920 1080" style="enable-background:new 0 0 1920 1080;" xml:space="preserve">
<style type="text/css">
	.st0{fill:#474143;}
	.st1{fill:#B2B2B1;}
	.st2{fill:#87593A;}
	.st3{fill:#7F8E92;}
	.st4{fill:#F9B622;}
	.st5{fill:#DDEFF4;}
	.st6{fill:#788C8E;}
	.st7{fill:#C21824;}
	.st8{fill:#280811;}
	.st9{fill:#A1A9AC;}
	.st10{fill:#26080B;}
	.st11{fill:#889398;}
	.st12{fill:#2C0A0E;}
	.st13{fill:#FDFDFD;}
	.st14{fill:url(#SVGID_1_);}
	.st15{fill:#2A0914;}
	.st16{fill:#FDFBFC;}
	.st17{fill:#290C14;}
	.st18{fill:#2B0C14;}
	.st19{fill:#280E14;}
	.st20{fill:#FFFFFF;}
	.st21{fill:#EEF8FB;}
	.st22{fill:#FAFBFA;}
</style>
<g>
	<g>
		<path class="st0" d="M1164.41,1022.2c17.53-4.12,34.56-10.25,50.67-18.31c0.17-0.09,0.02-0.35-0.15-0.26
			c-16.09,8.04-33.09,14.16-50.6,18.28C1164.14,1021.95,1164.22,1022.24,1164.41,1022.2L1164.41,1022.2z"/>
	</g>
</g>
<g>
	<g>
		<path class="st1" d="M964.76,46.17c-9.67,10.66-19.33,21.31-29,31.97c-0.95,1.05-1.96,2.29-1.73,3.64
			c0.17,0.99,0.96,1.76,1.72,2.47c7.03,6.56,14.06,13.13,21.08,19.69c0.74,0.69,1.58,1.43,2.63,1.49c1.03,0.05,1.95-0.57,2.76-1.17
			c11.85-8.74,22.81-18.55,32.66-29.25c0.63-0.68,1.29-1.46,1.24-2.36c-0.05-0.98-0.92-1.74-1.73-2.36
			c-10.12-7.77-22.09-14.22-28.46-24.92"/>
	</g>
	<g>
		<g>
			<path class="st2" d="M560.28,387.15c82.09,214.02,124.8,439.27,190.38,658.23c0.9,3.02,2.02,6.31,4.84,7.99
				c2.18,1.3,4.91,1.35,7.49,1.37c17.73,0.1,35.46,0.2,53.19,0.3c1.85,0.01,3.89-0.04,5.27-1.19c1.55-1.29,1.71-3.47,1.68-5.41
				c-0.25-18.26-7.18-35.79-14.19-52.83c-29.81-72.51-62.74-144.11-85.16-218.93c-18.19-60.7-29.3-123.03-43.39-184.68
				c-20.19-88.36-46.52-175.48-78.77-260.63c-16.56,4.35-32.41,11.07-46.81,19.87c-4.31,2.63-8.73,5.73-10.49,10.26
				c-5.28,13.64,15.93,23.61,19.27,37.78"/>
		</g>
		<g>
			<path class="st3" d="M465.16,219.79c2.28-4.87,10.33-4.21,14.58-0.68c4.25,3.53,6.53,8.77,10.73,12.34
				c4.95,4.21,11.9,5.57,18.53,6.39c28.05,3.49,57.35,0.14,82.78-11.47c25.44-11.62,46.72-31.78,56.85-56.53
				c17.28,63.94,34.55,127.88,51.83,191.82c-17.34-12.77-40.75-17-62.61-14.21s-42.31,12.06-60.43,23.85
				c-28.31,18.42-51.54,42.94-71.91,68.98c-34.18-59.68-41.26-129.26-47.69-196.72c-0.59-6.16-1.16-12.5,0.77-18.41
				c1.93-5.91,6.99-11.37,13.54-12.09"/>
		</g>
		<g>
			<path class="st4" d="M797.87,704.31c-26.77-17.73-61.2-36.12-90.21-21.8c-18.49,9.13-27.67,28.73-35.33,46.95
				c-44.3,105.46-82.52,213.16-114.44,322.48c271.97,6.82,544.13,6.75,816.1-0.23c-4.89-48.31-20.69-94.98-36.4-141.22
				c-10.35-30.46-20.69-60.93-31.04-91.39c-6.12-18.01-12.29-36.14-21.84-52.79c-26.67-46.48-78.95-77.73-134.44-86.83
				c-21.61-3.54-45.6-3.51-63.38,8.53c-6.34,4.3-11.55,9.91-17.82,14.28c-10.27,7.15-22.85,10.62-35.18,13.82
				c-39.36,10.2-79.61,18.99-120.44,18.9c-40.84-0.09-82.71-9.72-114.97-33.18"/>
		</g>
		<g>
			<path class="st5" d="M800.89,792.79c57.75,35.56,111.03,77.48,158.4,124.63c30.44-18.18,55.37-43.21,81.82-66.23
				c26.45-23.02,55.75-44.76,90.49-53.98c3.41-0.9,7.31-1.62,10.29,0.16c3.64,2.18,4.1,6.91,4.09,10.96
				c-0.06,17.41-1.84,34.86-0.2,52.2c2.96,31.23,16.86,60.64,22.48,91.54c5.7,31.33,2.76,63.41-0.2,95.07
				c-0.18,1.9-0.52,4.06-2.22,5.1c-1.01,0.62-2.28,0.68-3.48,0.73c-108.8,4.18-217.75,4.85-326.6,2.02c-1.79-0.05-5.64,0-10.2-1.55
				c-13.43-4.58-24.39-19.76-33.68-68.32c-4.8-25.12-5.71-40.26-7.61-62.17c-7.28-83.83-20.86-116.31-3.06-127.72
				c3.52-2.26,10.16-4.9,22.71-2.42"/>
		</g>
		<g>
			<path class="st6" d="M967.04,936.55c26.7-22.55,55-45.48,84.92-68.61c29.94-23.13,59.37-44.8,88.1-65.08
				c14.15,64.96,23.97,117,31.07,151.62c0,0,2.18,10.65-1.35,73.54c-0.17,2.96-0.68,9.39-5.52,14.08c-5.2,5.04-13.66,5.3-21.18,5.21
				c-59.61-0.68-119.21-1.37-178.82-2.06c-2.14-0.02-4.54-0.16-5.95-1.64c-1.52-1.59-1.4-3.84-1.37-4.59
				c0.23-4.88,0.38-38.11,0.6-84.63C960.7,948.46,963.87,942.51,967.04,936.55z"/>
		</g>
		<g>
			<g>
				<path class="st0" d="M1019.46,923.14c-0.77,1.08-1.53,2.16-2.3,3.23c-0.11,0.16,0.15,0.31,0.26,0.15
					c0.77-1.08,1.53-2.16,2.3-3.23C1019.83,923.14,1019.57,922.99,1019.46,923.14L1019.46,923.14z"/>
			</g>
		</g>
		<g>
			<g>
				<path class="st0" d="M791.7,809.09c0.19,0,0.19-0.3,0-0.3C791.51,808.79,791.51,809.09,791.7,809.09L791.7,809.09z"/>
			</g>
		</g>
		<g>
			<g>
				<path class="st0" d="M1131.23,822.03c0.19,0,0.19-0.3,0-0.3C1131.03,821.73,1131.03,822.03,1131.23,822.03L1131.23,822.03z"/>
			</g>
		</g>
		<g>
			<path class="st7" d="M823.75,654.44c-22.55,11.53-43.28,26.17-61.33,43.29c52.6,57.86,126.43,95.4,182.62,150.22
				c1.64,1.6,3.4,3.29,5.7,3.84c2.93,0.69,5.93-0.64,8.6-1.96c71.58-35.3,132.58-86.46,192.64-137.22
				c3.21-2.72,6.74-6.32,5.66-10.25c-0.43-1.55-1.53-2.85-2.61-4.1c-14.49-16.73-28.97-33.46-43.46-50.19
				c-2.25-2.6-4.59-5.27-7.78-6.78c-3.88-1.84-8.44-1.7-12.78-1.45c-45.47,2.71-89.83,14.39-135.17,18.59
				c-42.8,3.97-86.31,1.2-128.15-8.16"/>
		</g>
		<g>
			<path class="st8" d="M813.32,657.98c-0.74,10.47-1.47,20.94-2.21,31.41c-0.25,3.59-0.49,7.29,0.75,10.69
				c1.32,3.63,4.19,6.55,7.02,9.32c40.02,39.32,86.59,72.76,137.51,98.75c5.34,2.73,10.92,5.43,16.98,5.92
				c10.32,0.85,19.85-4.74,28.49-10.11c39.88-24.76,81.37-51.15,103.73-90.77c6.77-12,11.65-25.27,11.39-38.83
				c-0.11-5.55-1.31-11.53-5.64-15.33c-4.73-4.14-11.8-4.59-18.27-4.8c-34.47-1.16-69.35-2.19-103.07,4.55
				c-13.01,2.6-25.76,6.35-38.85,8.56c-44.82,7.59-90.61-3.03-134.74-13.59"/>
		</g>
		<g>
			<path class="st9" d="M1187.57,393.14c12.25-2.26,24.63,5.73,30.35,16.13c5.72,10.39,6.13,22.6,5.55,34.28
				c-0.31,6.27-0.92,12.68-3.76,18.37c-2.84,5.68-8.36,10.56-15.03,11.23c-3.74,0.38-8.05-0.97-9.51-4.22
				c-0.66-1.45-0.66-3.08-0.66-4.65c0.04-17.1,0.07-34.19,0.11-51.29c0.01-5.07,0-10.27-1.94-15"/>
			<g>
				<path class="st10" d="M1187.59,393.21c11.38-2,22.76,4.56,28.94,13.9c6.96,10.51,7.46,23.81,6.88,35.99
					c-0.31,6.48-0.88,13.23-3.93,19.08c-2.56,4.89-7,9.04-12.42,10.45c-2.75,0.72-5.79,0.71-8.41-0.51
					c-3.12-1.46-4.04-4.15-4.06-7.42c-0.05-7.11,0.03-14.23,0.05-21.35c0.02-7.97,0.03-15.93,0.05-23.9
					c0.02-7.09,0.74-14.75-1.93-21.49c-0.04-0.09-0.18-0.05-0.14,0.04c2.72,6.86,1.94,14.72,1.92,21.95
					c-0.02,7.64-0.03,15.27-0.05,22.91c-0.02,7.55-0.3,15.16-0.03,22.71c0.09,2.47,0.86,4.62,2.97,6.04c2,1.34,4.55,1.81,6.92,1.64
					c5.25-0.37,9.95-3.52,13.11-7.6c3.91-5.06,5.26-11.48,5.81-17.71c1.12-12.72,1.13-26.77-5.06-38.32
					c-5.78-10.78-18.18-18.74-30.65-16.55C1187.45,393.08,1187.49,393.23,1187.59,393.21L1187.59,393.21z"/>
			</g>
		</g>
		<g>
			<path class="st9" d="M1157.33,378.45c7.02-7.38,15.89-15.32,26.36-14.09c7.89,0.93,14.13,7.17,16.96,14.13
				c2.84,6.96,2.91,14.6,2.94,22.05c0.1,20.43,0.2,40.86,0.3,61.29c0.02,3.5,0.03,7.05-1,10.41c-2.06,6.74-8.55,12.1-15.94,13.18
				s-15.32-2.18-19.47-8.02c-3.05-4.28-4.05-9.52-4.91-14.61c-4.7-27.79-7.21-55.9-7.5-84.03"/>
			<g>
				<path class="st10" d="M1157.39,378.5c5.7-5.98,12.44-12.46,20.91-13.91c8.67-1.49,16.58,3.53,20.81,10.91
					c4.86,8.49,4.39,18.83,4.43,28.28c0.05,10.46,0.1,20.93,0.15,31.39c0.03,5.23,0.05,10.46,0.08,15.7
					c0.02,5.16,0.26,10.38-0.01,15.53c-0.24,4.51-1.49,8.68-4.47,12.14c-2.66,3.08-6.27,5.33-10.2,6.37
					c-8.05,2.13-17.45-1.19-22.01-8.25c-2.49-3.85-3.47-8.4-4.25-12.85c-0.87-5.02-1.65-10.07-2.37-15.11
					c-2.93-20.65-4.66-41.47-5.18-62.32c-0.06-2.53-0.11-5.07-0.13-7.6c0-0.1-0.15-0.1-0.15,0c0.24,22.01,1.82,44,4.74,65.81
					c0.71,5.28,1.49,10.55,2.36,15.81c0.76,4.65,1.44,9.45,3.43,13.77c3.39,7.33,11.17,11.78,19.19,11.53
					c7.45-0.23,14.71-4.88,17.65-11.81c1.94-4.56,1.61-9.7,1.59-14.55c-0.03-5.56-0.05-11.13-0.08-16.69
					c-0.05-11.21-0.11-22.42-0.16-33.63c-0.03-5.26,0.07-10.54-0.18-15.8c-0.24-5.01-0.9-10.07-2.81-14.74
					c-2.85-6.96-8.97-13.06-16.65-14.14c-8.55-1.2-16.18,3.92-22.16,9.45c-1.6,1.48-3.13,3.03-4.64,4.61
					C1157.21,378.46,1157.32,378.57,1157.39,378.5L1157.39,378.5z"/>
			</g>
		</g>
		<g>
			<path class="st9" d="M1122.8,398c6.62-11.16,19.23-17.8,31.21-23.88c1.85-0.94,3.78-1.9,5.88-2.05c4.17-0.29,7.92,2.83,9.49,6.46
				c1.57,3.63,1.44,7.68,1.3,11.6c-1.06,28.16-2.13,56.31-3.19,84.47c-0.03,0.84-0.07,1.7-0.42,2.47c-0.91,1.98-3.7,2.7-5.91,2.1
				c-2.21-0.59-3.97-2.15-5.57-3.7c-21.33-20.49-34.08-48.62-35-77.22"/>
			<g>
				<path class="st10" d="M1122.87,398.03c3.93-6.54,9.83-11.49,16.19-15.57c3.19-2.04,6.51-3.89,9.86-5.65
					c1.7-0.89,3.41-1.77,5.13-2.64c2.06-1.04,4.21-2.11,6.58-2.05c4.11,0.1,7.52,3.35,8.93,7.03c1.57,4.09,1.14,8.67,0.97,12.96
					c-0.36,9.44-0.71,18.88-1.07,28.32c-0.36,9.44-0.71,18.88-1.07,28.32c-0.18,4.72-0.36,9.44-0.53,14.16
					c-0.09,2.32-0.18,4.64-0.26,6.96c-0.04,1.16-0.09,2.32-0.13,3.48c-0.05,1.29,0.06,2.8-0.6,3.95c-1.02,1.77-3.5,2.26-5.36,1.87
					c-2.13-0.45-3.88-1.89-5.43-3.34c-2.84-2.67-5.52-5.52-8.05-8.47c-5.12-5.97-9.64-12.47-13.44-19.36
					c-7.5-13.58-12.26-28.69-13.59-44.17c-0.16-1.86-0.27-3.72-0.33-5.58c0-0.1-0.15-0.1-0.15,0c0.55,16.14,4.8,32.05,12.13,46.43
					c3.73,7.31,8.24,14.22,13.43,20.59c2.64,3.24,5.45,6.33,8.43,9.26c2.41,2.37,5.28,5.32,8.98,4.89c1.27-0.15,2.59-0.69,3.35-1.76
					c1.07-1.5,0.78-3.8,0.84-5.53c0.19-5.05,0.38-10.1,0.57-15.15c0.38-10.19,0.77-20.37,1.15-30.56
					c0.38-10.1,0.76-20.21,1.14-30.31c0.28-7.4,2.04-17.68-5.17-22.53c-3.27-2.2-6.77-1.74-10.18-0.11
					c-3.69,1.77-7.33,3.71-10.9,5.72c-6.81,3.84-13.5,8.31-18.48,14.43c-1.12,1.38-2.14,2.84-3.06,4.36
					C1122.69,398.04,1122.82,398.12,1122.87,398.03L1122.87,398.03z"/>
			</g>
		</g>
		<g>
			<path class="st11" d="M972.8,71.83c41.13,84.3,100.19,160.88,172.72,223.93c-61.1,0.43-122.2,0.86-183.3,1.29
				c-1.8,0.01-3.84-0.07-5.04-1.34c-1.04-1.1-1.06-2.73-1.02-4.19c0.2-8.43,0.41-16.87,0.61-25.3c1.5-61.69,2.99-123.39,4.49-185.08
				c0.03-1.16,0.12-2.46,1.02-3.26c1.78-1.57,4.6,0.15,6.25,1.84c6.76,6.91,12.73,14.51,17.76,22.61"/>
		</g>
		<g>
			<path class="st12" d="M772.15,309.47c18.43,0.48,36.87,0.96,55.3,1.44c0.94,0.02,1.96,0.08,2.68,0.65
				c1.7,1.36,0.2,3.91-1.33,5.45c-3.65,3.67-7.3,7.34-10.96,11.02c-1.88,1.89-3.84,3.83-6.4,4.78c-2.22,0.83-4.69,0.82-7.08,0.81
				c-8.26-0.05-16.51-0.1-24.77-0.15c-1.14-0.01-2.36-0.04-3.26-0.69c-1.06-0.77-1.33-2.15-1.51-3.4
				c-0.91-6.17-1.82-12.34-2.73-18.51"/>
		</g>
		<path class="st13" d="M774.44,616.67"/>
		<g>
			<linearGradient id="SVGID_1_" gradientUnits="userSpaceOnUse" x1="804.081" y1="623.9131" x2="1213.1853" y2="253.8895">
				<stop  offset="0" style="stop-color:#D4ECEF"/>
				<stop  offset="0.0614" style="stop-color:#CFE6E9"/>
				<stop  offset="0.6958" style="stop-color:#9AAFAF"/>
				<stop  offset="1" style="stop-color:#859A98"/>
			</linearGradient>
			<path class="st14" d="M783.8,321.62c-0.56,102.11-1.11,204.21-1.67,306.32c-0.03,5.07-0.02,10.31,2.08,14.99
				c2.13,4.73,6.19,8.42,10.17,11.95c48.4,42.93,99.82,82.88,153.8,119.51c4.15,2.82,8.74,5.74,13.87,5.57
				c4.68-0.16,8.76-2.87,12.51-5.49c56.9-39.76,110.81-83.28,161.21-130.11c1.98-1.84,4-3.76,4.99-6.19
				c0.88-2.18,0.86-4.58,0.82-6.91c-0.73-42.59-1.46-85.17-2.18-127.76c-1.03-60.41-2.09-121.12-13.13-180.65
				c-113.11-11.54-228.2,19.21-340.63,2.81"/>
		</g>
		<g>
			<path class="st15" d="M986.42,387.07c4.37-9.36,13.99-15.88,24.33-19.11c10.34-3.23,21.44-3.57,32.34-3.46
				c8.6,0.09,18.01,0.73,24.27,6.26c2.78,2.45,4.65,5.65,6.47,8.79c2.78,4.79,5.57,9.57,8.35,14.36
				c-15.45-11.97-37.44-16.08-56.62-10.6c-9.75,2.79-18.58,7.81-27.91,11.67c-1.66,0.68-3.46,1.35-5.23,1
				c-2.81-0.55-4.44-3.52-4.3-6.2c0.14-2.68,1.61-5.12,3.04-7.45"/>
		</g>
		<g>
			<path class="st15" d="M826,385.1c7.54-11.61,19.68-20.54,33.52-24.63c11.21-3.31,23.67-3.44,34.57,0.7
				c10.9,4.14,20.01,12.76,23.24,23.35c0.81,2.66,1.15,5.82-0.78,7.91c-2.53,2.76-7.5,1.93-10.51-0.37
				c-3.01-2.3-4.91-5.64-7.69-8.18c-6.06-5.53-15.28-6.46-23.75-6.53c-14.5-0.12-30.27,1.91-40.46,11.57
				c-1.62,1.53-3.27,3.34-5.55,3.61c-2.13,0.25-4.34-1.15-4.88-3.09c-0.54-1.94,0.66-4.18,2.65-4.93"/>
		</g>
		<g>
			<path class="st16" d="M857.26,408.92c-10.45,10.46-16.42,24.75-16.32,39.08c0.02,3.02,0.31,6.09,1.48,8.91
				c1.2,2.9,3.28,5.41,5.49,7.74c6.54,6.89,15.21,12.83,25.05,13.21c12.43,0.48,23.74-8.46,28.21-19.34
				c4.47-10.88,3.21-23.15-0.26-34.35c-2.48-8.01-6.84-16.49-15.13-19.52c-3.84-1.4-8.06-1.44-12.18-1.46
				c-5.99-0.03-13.4,0.79-15.57,6.02"/>
		</g>
		<g>
			<path class="st16" d="M1012.63,409.84c-4.6,1.36-5.91,6.81-6.1,11.32c-0.36,8.44,0.54,16.92,2.64,25.13
				c2.11,8.23,5.57,16.38,11.66,22.63c6.09,6.25,15.16,10.37,24.13,9.3c11.67-1.4,20.52-11.14,24.31-21.57
				c5.64-15.56,1.64-34.34-11.47-45.25c-13.11-10.91-35.08-11.9-48-0.8"/>
		</g>
		<g>
			<path class="st17" d="M938.91,457.43c-5.92,20.74-15.95,40.44-29.42,57.8c8.98,5.23,17.97,10.46,26.95,15.69
				c3.67,2.14,7.49,4.32,11.77,4.84c6.8,0.81,13.23-2.69,19.21-5.84c12.43-6.56,25.45-12.13,38.88-16.63
				c2.68-0.9,5.66-1.75,8.31-0.76c5.11,1.91,5.05,8.67,3.75,13.68c-3.55,13.7-9.89,27.13-20.67,36.96s-26.52,15.55-41.21,12.49
				c-15.97-3.32-27.68-15.79-37.76-27.87c-8.27-9.9-16.7-22.16-12.72-34.17"/>
		</g>
		<g>
			<g>
				<path class="st18" d="M1039.08,498.28c15.82-5.51,31.65-11.03,47.47-16.54c0.09-0.03,0.05-0.18-0.04-0.14
					c-15.82,5.51-31.65,11.03-47.47,16.54C1038.95,498.17,1038.99,498.31,1039.08,498.28L1039.08,498.28z"/>
			</g>
		</g>
		<g>
			<g>
				<path class="st18" d="M814.72,483.27c14.24-0.04,28.46,1.25,42.47,3.85c0.09,0.02,0.13-0.13,0.04-0.14
					c-14.02-2.61-28.25-3.89-42.51-3.85C814.63,483.12,814.63,483.27,814.72,483.27L814.72,483.27z"/>
			</g>
		</g>
		<g>
			<path class="st18" d="M920.9,673.45c24.38-0.4,48.77-0.8,73.15-1.2c-10.41,7-20.81,13.99-31.22,20.99
				c-1.55,1.04-3.21,2.12-5.12,2.22c-1.83,0.09-3.55-0.75-5.16-1.57c-11.53-5.9-22.82-12.21-33.84-18.9"/>
		</g>
		<g>
			<path class="st19" d="M874.99,404.54c-1.82,13.69,0.85,27.88,7.57,40.15c0.68,1.25,1.44,2.51,2.65,3.34
				c4.12,2.82,9.71-1.22,12.2-5.4c4.64-7.78,5.95-17.56,2.13-25.72c-3.81-8.17-13.2-14.13-22.66-13.19"/>
		</g>
		<g>
			<g>
				<path class="st16" d="M888.38,417.73c0.19,0,0.19-0.3,0-0.3C888.19,417.43,888.19,417.73,888.38,417.73L888.38,417.73z"/>
			</g>
		</g>
		<g>
			<path class="st19" d="M1008.76,416.76c2.17-3.09,4.44-6.27,7.76-8.27c3.32-2,8.01-2.5,11.07-0.17c1.88,1.43,2.84,3.63,3.73,5.73
				c1.18,2.8,2.37,5.6,3.55,8.4c1.6,3.78,3.21,7.64,3.42,11.7c0.21,4.06-1.24,8.42-4.73,10.82c-6.3,4.34-15.75,0.1-19.71-6.22
				c-3.96-6.32-4.4-13.97-6.35-21.07"/>
			<g>
				<path class="st19" d="M1008.82,416.79c2.09-2.97,4.27-6.03,7.38-8.03c2.97-1.9,7.05-2.68,10.3-1.05
					c3.29,1.65,4.47,5.66,5.8,8.81c1.58,3.73,3.31,7.43,4.61,11.27c1.17,3.48,1.84,7.22,0.87,10.84c-0.9,3.38-3.19,6.27-6.53,7.47
					c-5.68,2.03-12.29-1.2-15.98-5.53c-5.33-6.26-5.64-15.29-7.7-22.89c-0.02-0.07-0.14-0.04-0.12,0.03
					c2.01,7.44,2.35,16.14,7.3,22.43c3.57,4.53,10.09,7.92,15.92,6.27c6.95-1.97,8.61-9.82,7.11-16.04
					c-1.03-4.28-3.02-8.32-4.73-12.36c-1.38-3.25-2.49-7.5-5.43-9.74c-2.89-2.2-7.05-1.85-10.17-0.36
					c-3.82,1.83-6.38,5.44-8.75,8.81C1008.67,416.79,1008.77,416.85,1008.82,416.79L1008.82,416.79z"/>
			</g>
		</g>
		<g>
			<g>
				<path class="st20" d="M1019.59,420.96c0.19,0,0.19-0.3,0-0.3C1019.39,420.66,1019.39,420.96,1019.59,420.96L1019.59,420.96z"/>
			</g>
		</g>
		<g>
			<path class="st11" d="M962.31,278.5c-0.48,21.38-0.97,42.76-1.45,64.14c66.15-1.31,132.29-2.62,198.44-3.93
				c2.72-0.05,5.79-0.26,7.52-2.23c1.58-1.8,1.4-4.39,1.15-6.71c-1.3-11.9-2.6-23.8-3.9-35.7c-66.57-2.81-133.13-5.61-199.7-8.42"/>
		</g>
		<g>
			<path class="st13" d="M763.42,293.95c25.2,5.34,51.06-3.08,76.58-6.85c12.13-1.79,24.4-2.53,36.65-3.26
				c28.17-1.69,56.42-3.38,84.61-1.93c-1.04,18.11-2.08,36.22-3.13,54.33c-0.11,1.99-0.29,4.13-1.69,5.63
				c-1.84,1.99-5.04,2.08-7.85,2.02c-60.77-1.24-121.54-2.48-182.3-3.72c-1.58-0.03-3.34-0.13-4.44-1.2
				c-1.08-1.05-1.14-2.66-1.13-4.12c0.04-13.14,0.07-26.28,0.11-39.42"/>
		</g>
		<g>
			<path class="st13" d="M953.97,85.08c-60.42,70.22-120.17,140.94-179.24,212.16c57.34-0.44,114.68-0.89,172.02-1.33
				c1.92-0.01,4.03-0.1,5.44-1.32c1.45-1.26,1.67-3.29,1.8-5.14c4.9-70.45,7.24-141.06,7.02-211.67
				c-7.88,4.88-13.37,13.02-14.69,21.79"/>
		</g>
		<g>
			<path class="st10" d="M1074.81,288.27c8.85-0.6,17.7-1.2,26.54-1.8c-30.07-40.55-58.51-82.14-86.95-123.71
				c-5.54-8.11-11.09-16.21-16.63-24.32c26.01,50.13,51.65,100.43,76.92,150.89"/>
		</g>
		<g>
			<path class="st10" d="M990.35,117.44c7.46,14.08,10.69,29.74,13.85,45.18c8.72,42.63,17.44,85.25,26.16,127.88"/>
		</g>
		<g>
			<path class="st10" d="M793,292.84c42.93-50.76,85.87-101.53,128.8-152.29c-23.9,51.91-61.31,97.18-98.33,141.82
				c-6.77,8.16-17.06,17.28-27.18,13.16"/>
		</g>
		<g>
			<path class="st10" d="M873.92,292.79c7.28-12.68,11.64-26.62,15.95-40.44c14.16-45.4,28.33-90.8,42.49-136.19"/>
		</g>
		<g>
			<path class="st9" d="M777.61,476.87c0.31-31.27,0.62-62.54,0.93-93.81c0.04-4.33,0.01-8.91-2.38-12.61
				c-3.26-5.02-10.03-7.02-16.29-7.37c-19.84-1.1-38.78,10.76-49.01,26.73c-10.23,15.96-12.82,35.34-11.64,53.92
				c0.39,6.1,1.17,12.24,3.38,17.99c5.3,13.79,19.02,24.22,34.38,27.02c15.36,2.8,31.86-1.8,43.68-11.41"/>
			<g>
				<path class="st10" d="M777.68,476.87c0.28-27.78,0.55-55.55,0.83-83.33c0.03-3.49,0.07-6.99,0.1-10.48
					c0.02-2.72,0.03-5.48-0.57-8.15c-1.09-4.86-4.51-8.23-9.06-10.03c-4.81-1.9-10.2-2.19-15.31-1.8c-5.1,0.39-10.12,1.61-14.88,3.5
					c-9.7,3.85-18.31,10.42-24.75,18.61c-6.96,8.85-11.23,19.59-13.37,30.58c-2.23,11.5-2.48,23.7-0.82,35.29
					c0.81,5.67,2.4,11.2,5.31,16.16c2.48,4.23,5.75,7.99,9.51,11.13c7.85,6.57,17.75,10.47,27.95,11.15
					c11,0.73,22.21-2.06,31.68-7.67c2.24-1.33,4.37-2.82,6.4-4.46c0.08-0.06-0.03-0.17-0.11-0.11
					c-16.94,13.68-41.89,16.51-60.61,4.77c-8.69-5.45-15.54-13.7-18.43-23.62c-1.71-5.86-2.22-12.01-2.45-18.08
					c-0.22-5.67-0.06-11.36,0.57-17c1.27-11.37,4.54-22.6,10.55-32.4c5.44-8.88,13.25-16.3,22.39-21.3
					c9.06-4.95,19.86-7.67,30.19-6.2c4.98,0.71,10.42,2.62,13.28,7.04c3.26,5.04,2.38,11.86,2.32,17.56
					c-0.26,26.36-0.52,52.73-0.79,79.09c-0.03,3.24-0.06,6.49-0.1,9.73C777.53,476.96,777.68,476.96,777.68,476.87L777.68,476.87z"
					/>
			</g>
		</g>
		<g>
			<g>
				<path class="st10" d="M747.89,366.9c0,31.62,0,63.24,0,94.87c0,8.99,0,17.97,0,26.96c0,0.1,0.15,0.1,0.15,0
					c0-31.62,0-63.24,0-94.87c0-8.99,0-17.97,0-26.96C748.04,366.81,747.89,366.81,747.89,366.9L747.89,366.9z"/>
			</g>
		</g>
		<g>
			<path class="st21" d="M1179.57,681.56c22.51,0.05,45.02,2.11,67.12,6.14c3.76,0.68,8.17,1.97,9.21,5.42
				c0.66,2.2-0.34,4.5-1.33,6.59c-26.36,55.54-57.17,109.22-92.1,160.45c8.51-33.02,12.56-67.04,12-101.01
				c-0.44-26.9-3.74-53.82-1.53-80.64"/>
		</g>
		
			<ellipse transform="matrix(0.2512 -0.9679 0.9679 0.2512 -87.4445 1795.937)" class="st22" cx="1117.03" cy="954.49" rx="25.42" ry="17.97"/>
		<g>
			<path d="M897.78,606.93c36.26,53.62,87.94,51.77,123.37-4.42"/>
		</g>
	</g>
</g>
</svg>
