<?xml version="1.0" encoding="utf-8"?>
<!-- Generator: Adobe Illustrator 23.0.5, SVG Export Plug-In . SVG Version: 6.00 Build 0)  -->
<svg version="1.1" xmlns="http://www.w3.org/2000/svg" xmlns:xlink="http://www.w3.org/1999/xlink" x="0px" y="0px"
	 viewBox="0 0 1920 1080" style="enable-background:new 0 0 1920 1080;" xml:space="preserve">
<style type="text/css">
	.st0{fill:#D5EFEE;}
	.st1{fill:#A3D19B;}
	.st2{fill:#283940;}
	.st3{fill:#445254;}
	.st4{fill:#C3C6C1;}
	.st5{fill:#899293;}
	.st6{fill:#5E7073;}
	.st7{fill:#82968E;}
</style>
<g id="圖層_1">
	<rect x="0" class="st0" width="1920" height="1080"/>
	<path class="st1" d="M1920,1080H0V834.14c277.69-30.89,599.04-52.97,956-53.14c360.24-0.17,684.33,22.03,964,53.14
		C1920,916.09,1920,998.05,1920,1080z"/>
</g>
<g id="圖層_2">
	<rect x="1713.68" y="865.98" class="st2" width="16.17" height="80.02"/>
	<path class="st3" d="M1718.31,447.15l-116.58,418.73c-0.64,2.28,1.08,4.54,3.45,4.54h233.17c2.37,0,4.09-2.26,3.45-4.54
		l-116.58-418.73C1724.24,443.66,1719.29,443.66,1718.31,447.15z"/>
	<rect x="1119.68" y="865.98" class="st2" width="16.17" height="80.02"/>
	<path class="st3" d="M1124.31,447.15l-116.58,418.73c-0.64,2.28,1.08,4.54,3.45,4.54h233.17c2.37,0,4.09-2.26,3.45-4.54
		l-116.58-418.73C1130.24,443.66,1125.29,443.66,1124.31,447.15z"/>
	<g>
		<rect x="1266.65" y="255.88" class="st4" width="208.31" height="682.97"/>
		<rect x="1474.96" y="253.58" class="st5" width="97.94" height="685.27"/>
		<path class="st6" d="M1425.22,940h-104.15v-71.13c0-18.5,15-33.5,33.5-33.5h37.15c18.5,0,33.5,15,33.5,33.5V940z"/>
		<path class="st6" d="M1398.79,707.74h-51.3v-52.04c0-7.46,6.04-13.5,13.5-13.5h24.3c7.46,0,13.5,6.04,13.5,13.5V707.74z"/>
		<path class="st6" d="M1398.79,561.72h-51.3v-52.04c0-7.46,6.04-13.5,13.5-13.5h24.3c7.46,0,13.5,6.04,13.5,13.5V561.72z"/>
		<path class="st6" d="M1395.68,415.7h-51.3v-52.04c0-7.46,6.04-13.5,13.5-13.5h24.3c7.46,0,13.5,6.04,13.5,13.5V415.7z"/>
		<path class="st6" d="M1549.58,707.74h-41.97v-52.04c0-7.46,6.04-13.5,13.5-13.5h14.97c7.46,0,13.5,6.04,13.5,13.5V707.74z"/>
		<path class="st6" d="M1549.58,561.72h-41.97v-52.04c0-7.46,6.04-13.5,13.5-13.5h14.97c7.46,0,13.5,6.04,13.5,13.5V561.72z"/>
		<path class="st6" d="M1546.47,415.7h-41.97v-52.04c0-7.46,6.04-13.5,13.5-13.5h14.97c7.46,0,13.5,6.04,13.5,13.5V415.7z"/>
		<rect x="1248" y="188.04" class="st4" width="228.52" height="67.84"/>
		<rect x="1474.96" y="188.04" class="st5" width="115.04" height="67.84"/>
		<g>
			<rect x="1293.08" y="134" class="st5" width="55.96" height="54.04"/>
			<rect x="1279.09" y="134" class="st4" width="55.96" height="54.04"/>
		</g>
		<g>
			<rect x="1405.01" y="134" class="st5" width="55.96" height="54.04"/>
			<rect x="1391.02" y="134" class="st4" width="55.96" height="54.04"/>
		</g>
		<rect x="1495.17" y="134" class="st5" width="55.96" height="54.04"/>
	</g>
	<g>
		<rect x="1230" y="892" class="st2" width="8" height="54"/>
		<path class="st7" d="M1230.49,618.2l-55.61,272.5c-0.45,2.22,1.24,4.3,3.51,4.3h111.22c2.27,0,3.96-2.08,3.51-4.3l-55.61-272.5
			C1236.73,614.38,1231.27,614.38,1230.49,618.2z"/>
	</g>
	<g>
		<rect x="1602" y="892" class="st2" width="8" height="54"/>
		<path class="st7" d="M1602.49,618.2l-55.61,272.5c-0.45,2.22,1.24,4.3,3.51,4.3h111.22c2.27,0,3.96-2.08,3.51-4.3l-55.61-272.5
			C1608.73,614.38,1603.27,614.38,1602.49,618.2z"/>
	</g>
</g>
</svg>
