<?xml version="1.0" encoding="utf-8"?>
<!-- Generator: Adobe Illustrator 23.0.5, SVG Export Plug-In . SVG Version: 6.00 Build 0)  -->
<svg version="1.1" id="圖層_1" xmlns="http://www.w3.org/2000/svg" xmlns:xlink="http://www.w3.org/1999/xlink" x="0px" y="0px"
	 viewBox="0 0 1920 1080" style="enable-background:new 0 0 1920 1080;" xml:space="preserve">
<style type="text/css">
	.st0{fill:#D6D2CF;stroke:#000000;stroke-miterlimit:10;}
	.st1{fill:#F8B945;stroke:#000000;stroke-miterlimit:10;}
	.st2{font-family:'FranklinGothic-Medium';}
	.st3{font-size:172.18px;}
</style>
<g>
	<path class="st0" d="M1300.14,975.51c-90.68,18.33-201.91,33-329.06,33.05c-127.72,0.05-239.42-14.66-330.38-33.05
		c0.88-196.39,1.76-392.77,2.64-589.16c97.24,7.9,202.4,12.39,314.53,11.5c120.27-0.96,232.54-8.01,335.67-18.68
		C1295.73,577.94,1297.94,776.72,1300.14,975.51z"/>
	<path class="st0" d="M1302.78,1004.25c-99.01,16.85-216.09,29.23-347.56,28.74c-121.54-0.46-230.45-11.83-323.78-27.3
		c-0.86-0.75-8.25-7.49-7.93-18.68c0.3-10.33,6.94-16.37,7.93-17.24c90.42,14.53,196.77,24.9,315.85,23.84
		c129.37-1.14,243.86-15.5,339.63-33.9c1.26,0.44,14.29,5.31,18.5,20.12C1308.96,992.23,1303.7,1002.52,1302.78,1004.25z"/>
	<ellipse class="st1" cx="964.47" cy="632.79" rx="162.55" ry="160.22"/>
	<path class="st0" d="M1308.73,369.82c-4.16,20.97-55.22,25.22-350.21,27.3c-286.21,2.02-336.77-1.29-340.96-21.55
		c-3.98-19.27,33.29-57.33,231.27-140.82c76.21-1.92,152.42-3.83,228.63-5.75C1275.75,311.7,1312.65,350.08,1308.73,369.82z"/>
	<rect x="864.69" y="204.57" class="st0" width="198.23" height="25.87"/>
	<rect x="866.02" y="109.73" class="st0" width="198.23" height="25.87"/>
	<rect x="875.27" y="135.59" class="st0" width="178.41" height="68.97"/>
	<rect x="875.27" y="46.5" class="st1" width="181.05" height="63.23"/>
	<text transform="matrix(0.8751 0 0 1 852.6484 694.2266)" class="st2 st3">OIL</text>
</g>
</svg>
