<?xml version="1.0" encoding="utf-8"?>
<!-- Generator: Adobe Illustrator 23.0.5, SVG Export Plug-In . SVG Version: 6.00 Build 0)  -->
<svg version="1.1" id="圖層_1" xmlns="http://www.w3.org/2000/svg" xmlns:xlink="http://www.w3.org/1999/xlink" x="0px" y="0px"
	 viewBox="0 0 1920 1080" style="enable-background:new 0 0 1920 1080;" xml:space="preserve">
<style type="text/css">
	.st0{fill:#87593A;}
	.st1{fill:#7F8E92;}
	.st2{fill:#F9B622;}
	.st3{fill:#DDEFF4;}
	.st4{fill:#788C8E;}
	.st5{fill:#474143;}
	.st6{fill:#C21824;}
	.st7{fill:#280811;}
	.st8{fill:#A1A9AC;}
	.st9{fill:#26080B;}
	.st10{fill:#889398;}
	.st11{fill:#2C0A0E;}
	.st12{fill:#FDFDFD;}
	.st13{fill:url(#SVGID_1_);}
	.st14{fill:#2A0914;}
	.st15{fill:#290C14;}
	.st16{fill:#2B0C14;}
	.st17{fill:#FDFBFC;}
	.st18{fill:#FFFFFF;}
	.st19{fill:#EEF8FB;}
	.st20{fill:#FAFBFA;}
	.st21{fill:#FE6671;}
</style>
<g>
	<path class="st0" d="M561.83,369.16c81.73,219.77,124.25,451.07,189.55,675.91c0.9,3.1,2.01,6.48,4.82,8.21
		c2.17,1.33,4.89,1.39,7.46,1.4c17.65,0.1,35.31,0.21,52.96,0.31c1.84,0.01,3.87-0.04,5.25-1.23c1.54-1.32,1.7-3.56,1.67-5.56
		c-0.25-18.75-7.15-36.75-14.12-54.25c-29.68-74.46-62.47-147.98-84.79-224.81c-18.11-62.33-29.18-126.34-43.2-189.65
		c-20.1-90.73-46.32-180.19-78.43-267.63c-16.49,4.46-32.27,11.37-46.61,20.4c-4.29,2.7-8.69,5.88-10.44,10.54
		c-5.26,14.01,15.86,24.24,19.19,38.79"/>
</g>
<g>
	<path class="st1" d="M467.13,197.3c2.27-5,10.28-4.33,14.51-0.7c4.23,3.63,6.5,9.01,10.69,12.68c4.93,4.32,11.85,5.72,18.45,6.57
		c27.93,3.59,57.1,0.15,82.42-11.78c25.33-11.93,46.52-32.63,56.6-58.05c17.2,65.66,34.4,131.32,51.61,196.98
		c-17.27-13.12-40.58-17.45-62.34-14.59c-21.77,2.86-42.12,12.38-60.16,24.49c-28.19,18.91-51.31,44.09-71.6,70.83
		c-34.03-61.29-41.08-132.73-47.48-202c-0.58-6.32-1.15-12.83,0.77-18.91c1.92-6.07,6.96-11.67,13.48-12.41"/>
</g>
<g>
	<path class="st2" d="M798.38,694.84c-26.65-18.21-60.94-37.09-89.82-22.39c-18.41,9.37-27.55,29.5-35.17,48.21
		c-44.11,108.29-82.16,218.89-113.94,331.14c270.78,7.01,541.76,6.93,812.54-0.24c-4.87-49.61-20.6-97.53-36.24-145.02
		c-10.3-31.28-20.6-62.56-30.9-93.85c-6.09-18.49-12.23-37.11-21.74-54.21c-26.55-47.73-78.6-79.82-133.85-89.16
		c-21.51-3.64-45.4-3.61-63.1,8.76c-6.31,4.41-11.5,10.18-17.75,14.67c-10.22,7.34-22.75,10.91-35.03,14.19
		c-39.19,10.47-79.26,19.5-119.92,19.41c-40.66-0.09-82.35-9.98-114.47-34.07"/>
</g>
<g>
	<path class="st3" d="M801.39,785.7c57.5,36.52,110.55,79.57,157.7,127.98c30.31-18.67,55.13-44.37,81.46-68.01
		c26.33-23.64,55.51-45.96,90.09-55.43c3.39-0.93,7.28-1.67,10.25,0.17c3.62,2.24,4.08,7.1,4.07,11.25
		c-0.06,17.88-1.83,35.79-0.2,53.6c2.95,32.07,16.79,62.27,22.39,94c5.67,32.17,2.74,65.11-0.2,97.62
		c-0.18,1.95-0.51,4.17-2.21,5.24c-1,0.63-2.27,0.7-3.47,0.75c-108.32,4.29-216.8,4.98-325.17,2.07c-1.78-0.05-5.62,0-10.15-1.6
		c-13.37-4.7-24.29-20.29-33.53-70.15c-4.78-25.79-5.69-41.34-7.58-63.84c-7.25-86.08-20.77-119.44-3.05-131.15
		c3.51-2.32,10.12-5.03,22.61-2.49"/>
</g>
<g>
	<path class="st4" d="M966.81,933.32c26.59-23.16,54.76-46.71,84.55-70.45c29.81-23.76,59.11-46.01,87.71-66.83
		c14.09,66.7,23.87,120.14,30.93,155.69c0,0,2.17,10.94-1.35,75.52c-0.17,3.04-0.68,9.65-5.5,14.46c-5.18,5.18-13.6,5.44-21.09,5.35
		c-59.34-0.7-118.69-1.41-178.03-2.11c-2.13-0.03-4.52-0.16-5.93-1.68c-1.51-1.63-1.4-3.95-1.36-4.71
		c0.23-5.01,0.38-39.14,0.59-86.9C960.5,945.55,963.65,939.43,966.81,933.32z"/>
</g>
<g>
	<g>
		<path class="st5" d="M1019,919.55c-0.76,1.11-1.53,2.21-2.29,3.32c-0.11,0.16,0.15,0.31,0.26,0.15c0.76-1.11,1.53-2.21,2.29-3.32
			C1019.37,919.55,1019.11,919.4,1019,919.55L1019,919.55z"/>
	</g>
</g>
<g>
	<g>
		<path class="st5" d="M1032.9,1030.65c17.49-4.24,34.45-10.55,50.45-18.8c0.17-0.09,0.02-0.35-0.15-0.26
			c-15.98,8.24-32.91,14.53-50.38,18.77C1032.63,1030.4,1032.71,1030.69,1032.9,1030.65L1032.9,1030.65z"/>
	</g>
</g>
<g>
	<g>
		<path class="st5" d="M792.24,802.43c0.19,0,0.19-0.3,0-0.3C792.05,802.13,792.05,802.43,792.24,802.43L792.24,802.43z"/>
	</g>
</g>
<g>
	<g>
		<path class="st5" d="M1130.28,815.71c0.19,0,0.19-0.3,0-0.3C1130.09,815.41,1130.09,815.71,1130.28,815.71L1130.28,815.71z"/>
	</g>
</g>
<g>
	<path class="st6" d="M824.15,643.62c-22.45,11.84-43.1,26.87-61.07,44.45c52.38,59.41,125.88,97.96,181.83,154.26
		c1.64,1.65,3.38,3.38,5.67,3.94c2.92,0.71,5.9-0.66,8.57-2.01c71.27-36.25,132-88.78,191.8-140.9c3.2-2.79,6.71-6.49,5.64-10.52
		c-0.42-1.59-1.53-2.93-2.6-4.21c-14.42-17.18-28.85-34.36-43.27-51.54c-2.24-2.67-4.57-5.41-7.74-6.96
		c-3.86-1.89-8.41-1.75-12.73-1.48c-45.27,2.79-89.44,14.77-134.58,19.09c-42.62,4.08-85.93,1.23-127.59-8.38"/>
</g>
<g>
	<path class="st7" d="M813.76,647.26c-0.73,10.75-1.47,21.5-2.2,32.25c-0.25,3.68-0.49,7.48,0.75,10.98
		c1.32,3.73,4.17,6.72,6.99,9.57c39.84,40.37,86.21,74.72,136.91,101.41c5.32,2.8,10.87,5.57,16.91,6.08
		c10.28,0.87,19.77-4.87,28.37-10.38c39.7-25.43,81.01-52.53,103.28-93.21c6.74-12.32,11.6-25.95,11.34-39.88
		c-0.11-5.7-1.31-11.84-5.62-15.74c-4.7-4.25-11.75-4.71-18.19-4.93c-34.32-1.19-69.04-2.25-102.63,4.67
		c-12.96,2.67-25.65,6.52-38.68,8.79c-44.62,7.79-90.22-3.12-134.16-13.95"/>
</g>
<g>
	<path class="st8" d="M1186.38,375.31c12.19-2.32,24.53,5.89,30.22,16.56c5.69,10.67,6.1,23.2,5.52,35.2
		c-0.31,6.44-0.91,13.02-3.74,18.86s-8.33,10.85-14.96,11.53c-3.72,0.39-8.01-1-9.47-4.33c-0.65-1.49-0.66-3.16-0.66-4.78
		c0.04-17.56,0.07-35.11,0.11-52.67c0.01-5.2,0-10.54-1.93-15.4"/>
	<g>
		<path class="st9" d="M1186.4,375.38c11.59-2.1,23,4.99,29.02,14.59c6.86,10.94,7.23,24.59,6.63,37.09
			c-0.32,6.61-0.93,13.51-4.06,19.47c-2.57,4.89-6.97,9.09-12.42,10.47c-2.78,0.71-5.87,0.63-8.45-0.74
			c-1.14-0.6-2.15-1.47-2.8-2.59c-1.02-1.76-0.95-3.86-0.94-5.82c0.01-7.12,0.03-14.24,0.04-21.37c0.02-8.12,0.03-16.23,0.05-24.35
			c0.02-7.22,0.73-15-1.92-21.88c-0.03-0.09-0.18-0.05-0.14,0.04c2.64,6.86,1.93,14.63,1.91,21.84c-0.02,7.78-0.03,15.57-0.05,23.35
			c-0.02,7.77-0.09,15.53-0.05,23.3c0.01,2.68,0.46,5.2,2.71,6.9c1.92,1.45,4.45,2,6.82,1.89c5.3-0.23,10.06-3.5,13.22-7.6
			c3.88-5.04,5.29-11.43,5.88-17.64c0.65-6.8,0.82-13.76,0.24-20.56c-0.55-6.47-1.94-12.93-4.82-18.79
			c-5.53-11.24-17.98-20.1-30.9-17.76C1186.26,375.25,1186.3,375.4,1186.4,375.38L1186.4,375.38z"/>
	</g>
</g>
<g>
	<path class="st8" d="M1156.28,360.22c6.99-7.57,15.82-15.73,26.24-14.47c7.85,0.96,14.07,7.37,16.89,14.51
		c2.82,7.15,2.9,14.99,2.93,22.64c0.1,20.98,0.2,41.96,0.29,62.94c0.02,3.59,0.03,7.24-1,10.69c-2.05,6.92-8.51,12.43-15.88,13.54
		c-7.36,1.11-15.25-2.24-19.38-8.23c-3.03-4.4-4.03-9.78-4.89-15c-4.68-28.53-7.17-57.4-7.47-86.29"/>
	<g>
		<path class="st9" d="M1156.33,360.28c5.66-6.13,12.46-12.94,21.07-14.33c8.81-1.42,16.59,4.03,20.64,11.57
			c4.71,8.75,4.19,19.26,4.24,28.89c0.05,10.66,0.1,21.31,0.15,31.97c0.02,5.33,0.05,10.66,0.07,15.98
			c0.02,5.23,0.23,10.49,0.01,15.71c-0.2,4.76-1.38,9.23-4.47,12.93c-2.62,3.14-6.21,5.47-10.16,6.54
			c-8.34,2.27-17.85-1.51-22.23-8.99c-2.34-3.99-3.24-8.61-3.99-13.12c-0.87-5.23-1.65-10.47-2.37-15.73
			c-2.86-20.98-4.56-42.12-5.06-63.28c-0.06-2.63-0.11-5.25-0.14-7.88c0-0.1-0.15-0.1-0.15,0c0.24,22.49,1.8,44.97,4.68,67.27
			c0.7,5.38,1.47,10.75,2.32,16.11c0.74,4.68,1.37,9.49,3.2,13.9c3.2,7.7,10.85,12.7,19.21,12.51c7.66-0.17,14.97-5.16,17.83-12.29
			c1.92-4.79,1.54-10.16,1.51-15.21c-0.03-5.66-0.05-11.32-0.08-16.98c-0.05-11.32-0.11-22.64-0.16-33.97
			c-0.03-5.48,0.07-10.97-0.18-16.45c-0.22-4.94-0.83-9.91-2.55-14.57c-2.71-7.3-8.81-13.99-16.82-15.15
			c-8.53-1.24-16.1,4.04-21.98,9.62c-1.63,1.55-3.18,3.16-4.7,4.81C1156.16,360.24,1156.26,360.35,1156.33,360.28L1156.33,360.28z"
			/>
	</g>
</g>
<g>
	<path class="st8" d="M1121.9,380.3c6.59-11.46,19.14-18.28,31.07-24.52c1.85-0.97,3.76-1.95,5.86-2.1c4.15-0.29,7.88,2.9,9.44,6.63
		s1.44,7.89,1.29,11.91c-1.06,28.91-2.12,57.83-3.18,86.74c-0.03,0.86-0.07,1.75-0.42,2.54c-0.91,2.04-3.68,2.77-5.89,2.16
		c-2.2-0.61-3.95-2.21-5.55-3.8c-21.24-21.04-33.93-49.92-34.85-79.3"/>
	<g>
		<path class="st9" d="M1121.96,380.34c3.95-6.78,9.95-11.95,16.45-16.21c3.18-2.08,6.49-3.96,9.84-5.77
			c1.71-0.92,3.42-1.83,5.15-2.73c2.13-1.1,4.4-2.14,6.86-1.84c4.11,0.49,7.2,4.02,8.4,7.79c1.38,4.36,0.88,9.13,0.72,13.62
			c-0.35,9.55-0.7,19.11-1.05,28.66c-0.35,9.64-0.71,19.28-1.06,28.91c-0.17,4.74-0.35,9.47-0.52,14.21
			c-0.09,2.41-0.18,4.82-0.26,7.23c-0.04,1.16-0.09,2.33-0.13,3.49c-0.05,1.32,0.07,2.84-0.6,4.03c-1.05,1.85-3.57,2.34-5.5,1.88
			c-2.14-0.51-3.86-2.04-5.39-3.54c-2.79-2.72-5.42-5.61-7.91-8.6c-5.13-6.17-9.63-12.87-13.41-19.95
			c-7.45-13.93-12.13-29.36-13.46-45.12c-0.16-1.95-0.27-3.9-0.34-5.85c0-0.1-0.15-0.1-0.15,0c0.54,16.51,4.74,32.8,12.05,47.61
			c3.67,7.45,8.13,14.51,13.27,21.04c2.62,3.33,5.43,6.52,8.4,9.54c2.39,2.44,5.3,5.6,9.07,5.15c1.23-0.15,2.48-0.68,3.24-1.69
			c1.17-1.54,0.86-3.93,0.92-5.74c0.19-5.15,0.38-10.3,0.57-15.45c0.38-10.3,0.75-20.6,1.13-30.91c0.38-10.3,0.75-20.6,1.13-30.91
			c0.18-4.81,0.74-9.81,0.09-14.6c-0.48-3.57-1.96-6.99-4.91-9.18c-3.14-2.33-6.61-2.15-10.03-0.52c-3.72,1.77-7.35,3.81-10.91,5.87
			c-6.88,3.97-13.62,8.59-18.63,14.86c-1.17,1.47-2.22,3.01-3.17,4.63C1121.78,380.34,1121.91,380.42,1121.96,380.34L1121.96,380.34
			z"/>
	</g>
</g>
<g>
	<path class="st10" d="M972.54,45.37c40.95,86.56,99.76,165.2,171.96,229.95c-60.83,0.44-121.66,0.89-182.5,1.33
		c-1.79,0.01-3.83-0.07-5.01-1.37c-1.03-1.13-1.05-2.8-1.02-4.31c0.2-8.66,0.41-17.32,0.61-25.98c1.49-63.35,2.98-126.7,4.47-190.05
		c0.03-1.19,0.12-2.52,1.01-3.34c1.77-1.62,4.58,0.15,6.23,1.88c6.73,7.1,12.67,14.9,17.69,23.21"/>
</g>
<g>
	<path class="st11" d="M772.78,289.4c18.35,0.49,36.7,0.98,55.06,1.47c0.94,0.03,1.95,0.08,2.67,0.67c1.69,1.4,0.19,4.02-1.32,5.59
		c-3.64,3.77-7.27,7.54-10.91,11.31c-1.87,1.94-3.83,3.94-6.37,4.91c-2.21,0.85-4.66,0.85-7.05,0.83
		c-8.22-0.05-16.44-0.1-24.66-0.15c-1.13-0.01-2.35-0.04-3.24-0.71c-1.06-0.79-1.32-2.21-1.5-3.49c-0.91-6.33-1.81-12.67-2.72-19"/>
</g>
<path class="st12" d="M775.05,604.85"/>
<g>
	<linearGradient id="SVGID_1_" gradientUnits="userSpaceOnUse" x1="802.4506" y1="610.1227" x2="1215.7317" y2="236.3212">
		<stop  offset="0" style="stop-color:#D4ECEF"/>
		<stop  offset="0.0614" style="stop-color:#CFE6E9"/>
		<stop  offset="0.6958" style="stop-color:#9AAFAF"/>
		<stop  offset="1" style="stop-color:#859A98"/>
	</linearGradient>
	<path class="st13" d="M784.37,301.87c-0.55,104.85-1.11,209.7-1.66,314.55c-0.03,5.21-0.02,10.59,2.07,15.39
		c2.12,4.86,6.17,8.65,10.13,12.27c48.19,44.08,99.38,85.11,153.13,122.72c4.14,2.89,8.71,5.9,13.81,5.72
		c4.66-0.16,8.72-2.95,12.45-5.64c56.65-40.83,110.33-85.51,160.51-133.6c1.97-1.89,3.99-3.86,4.97-6.36
		c0.88-2.24,0.85-4.7,0.81-7.09c-0.72-43.73-1.45-87.46-2.17-131.19c-1.03-62.04-2.08-124.37-13.08-185.5
		c-112.62-11.85-227.21,19.73-339.14,2.89"/>
</g>
<g>
	<path class="st14" d="M986.11,369.08c4.35-9.61,13.93-16.31,24.22-19.63c10.29-3.32,21.34-3.67,32.2-3.56
		c8.56,0.09,17.93,0.75,24.16,6.42c2.77,2.52,4.63,5.8,6.45,9.02c2.77,4.92,5.54,9.83,8.31,14.75
		c-15.38-12.29-37.28-16.52-56.37-10.88c-9.71,2.87-18.5,8.02-27.79,11.98c-1.65,0.7-3.45,1.38-5.21,1.03
		c-2.79-0.56-4.42-3.61-4.28-6.37c0.14-2.75,1.61-5.26,3.03-7.65"/>
</g>
<g>
	<path class="st14" d="M826.39,367.05c7.51-11.93,19.6-21.09,33.38-25.29c11.17-3.4,23.57-3.53,34.42,0.71
		c10.85,4.25,19.92,13.1,23.14,23.97c0.81,2.73,1.14,5.98-0.77,8.13c-2.52,2.83-7.47,1.98-10.47-0.38c-3-2.36-4.89-5.79-7.66-8.4
		c-6.03-5.68-15.22-6.63-23.64-6.71c-14.43-0.13-30.13,1.96-40.28,11.88c-1.61,1.57-3.25,3.42-5.52,3.7
		c-2.12,0.26-4.32-1.18-4.85-3.18c-0.54-2,0.66-4.29,2.64-5.06"/>
</g>
<g>
	<path class="st15" d="M938.81,441.33c-5.9,21.29-15.88,41.52-29.3,59.35c8.95,5.37,17.89,10.74,26.84,16.11
		c3.65,2.19,7.45,4.44,11.72,4.97c6.77,0.84,13.17-2.76,19.12-6c12.37-6.73,25.34-12.45,38.71-17.07c2.67-0.92,5.64-1.8,8.27-0.79
		c5.09,1.96,5.03,8.9,3.74,14.05c-3.53,14.07-9.84,27.86-20.58,37.96c-10.74,10.09-26.4,15.97-41.03,12.83
		c-15.9-3.41-27.56-16.22-37.6-28.62c-8.23-10.17-16.63-22.76-12.66-35.09"/>
</g>
<g>
	<g>
		<path class="st16" d="M1038.54,483.27c15.75-5.66,31.51-11.32,47.26-16.99c0.09-0.03,0.05-0.18-0.04-0.14
			c-15.75,5.66-31.51,11.32-47.26,16.99C1038.41,483.16,1038.45,483.3,1038.54,483.27L1038.54,483.27z"/>
	</g>
</g>
<g>
	<g>
		<path class="st16" d="M815.16,467.86c14.19-0.04,28.35,1.28,42.28,3.95c0.09,0.02,0.13-0.13,0.04-0.14
			c-13.95-2.67-28.12-4-42.32-3.96C815.06,467.71,815.06,467.86,815.16,467.86L815.16,467.86z"/>
	</g>
</g>
<g>
	<path class="st16" d="M928.14,676.52c24.28-0.41,48.55-0.82,72.83-1.23c-10.36,7.18-20.72,14.37-31.08,21.55
		c-1.54,1.07-3.2,2.18-5.1,2.28c-1.82,0.09-3.53-0.77-5.13-1.61c-11.48-6.06-22.72-12.54-33.69-19.41"/>
</g>
<g>
	<g>
		<path class="st17" d="M888.5,400.55c0.19,0,0.19-0.3,0-0.3C888.31,400.25,888.3,400.55,888.5,400.55L888.5,400.55z"/>
	</g>
</g>
<g>
	<g>
		<path class="st18" d="M1019.13,403.87c0.19,0,0.19-0.3,0-0.3C1018.94,403.57,1018.94,403.87,1019.13,403.87L1019.13,403.87z"/>
	</g>
</g>
<g>
	<path class="st10" d="M962.1,257.59c-0.48,21.95-0.96,43.91-1.44,65.86c65.86-1.34,131.71-2.69,197.57-4.03
		c2.7-0.06,5.77-0.27,7.48-2.29c1.57-1.85,1.4-4.51,1.15-6.89c-1.3-12.22-2.59-24.44-3.89-36.66
		c-66.28-2.88-132.55-5.76-198.83-8.65"/>
</g>
<g>
	<path class="st12" d="M764.08,273.46c25.09,5.48,50.84-3.17,76.25-7.04c12.07-1.84,24.29-2.59,36.49-3.35
		c28.05-1.74,56.18-3.47,84.24-1.98c-1.04,18.6-2.08,37.2-3.11,55.79c-0.11,2.04-0.29,4.24-1.68,5.79
		c-1.84,2.04-5.02,2.14-7.82,2.08c-60.5-1.27-121.01-2.54-181.51-3.82c-1.57-0.03-3.32-0.14-4.42-1.23
		c-1.07-1.08-1.13-2.73-1.13-4.23c0.04-13.49,0.07-26.99,0.11-40.48"/>
</g>
<g>
	<path class="st12" d="M953.8,58.98c-60.15,72.1-119.64,144.73-178.46,217.86c57.09-0.45,114.18-0.91,171.27-1.36
		c1.91-0.02,4.01-0.1,5.42-1.35c1.44-1.29,1.67-3.38,1.79-5.28c4.88-72.35,7.21-144.85,6.99-217.35
		c-7.85,5.01-13.31,13.37-14.63,22.37"/>
</g>
<g>
	<path class="st9" d="M1074.11,267.62c8.81-0.62,17.62-1.23,26.43-1.85c-29.94-41.64-58.26-84.34-86.57-127.04
		c-5.52-8.32-11.04-16.65-16.56-24.97c25.9,51.47,51.43,103.12,76.58,154.94"/>
</g>
<g>
	<path class="st9" d="M990.02,92.21c7.42,14.46,10.64,30.54,13.79,46.39c8.68,43.77,17.36,87.54,26.05,131.31"/>
</g>
<g>
	<path class="st9" d="M793.53,272.32c42.75-52.13,85.49-104.25,128.24-156.38c-23.79,53.3-61.05,99.79-97.9,145.63
		c-6.74,8.38-16.99,17.75-27.06,13.52"/>
</g>
<g>
	<path class="st9" d="M874.1,272.26c7.25-13.02,11.59-27.34,15.88-41.53c14.1-46.62,28.2-93.23,42.31-139.85"/>
</g>
<g>
	<path class="st8" d="M778.21,461.29c0.31-32.11,0.62-64.22,0.93-96.33c0.04-4.44,0.01-9.15-2.37-12.94
		c-3.25-5.16-9.98-7.21-16.22-7.57c-19.75-1.13-38.61,11.05-48.8,27.45c-10.18,16.39-12.76,36.28-11.59,55.37
		c0.39,6.26,1.16,12.57,3.37,18.47c5.28,14.16,18.94,24.87,34.23,27.75c15.29,2.88,31.72-1.85,43.48-11.72"/>
	<g>
		<path class="st9" d="M778.28,461.29c0.27-28.28,0.54-56.57,0.82-84.85c0.03-3.49,0.07-6.99,0.1-10.48
			c0.03-2.92,0.1-5.88-0.43-8.76c-0.94-5.06-4.12-8.75-8.81-10.77c-4.71-2.03-10.06-2.37-15.12-2.02
			c-5.28,0.37-10.47,1.65-15.36,3.67c-9.6,3.95-18.05,10.64-24.38,18.85c-7.12,9.24-11.4,20.43-13.52,31.83
			c-2.17,11.7-2.41,24.05-0.8,35.84c0.78,5.71,2.29,11.32,5.09,16.39c2.39,4.33,5.59,8.21,9.3,11.49
			c7.7,6.8,17.54,10.96,27.77,11.76c11.09,0.87,22.39-2.02,31.88-7.78c2.28-1.38,4.44-2.94,6.49-4.65c0.07-0.06-0.03-0.17-0.11-0.11
			c-16.9,14.07-42.05,16.99-60.71,4.65c-8.76-5.79-15.4-14.4-18.13-24.59c-1.6-5.96-2.08-12.19-2.29-18.34
			c-0.2-5.76-0.03-11.55,0.6-17.28c1.27-11.59,4.51-23.06,10.5-33.13c5.37-9.03,13.11-16.67,22.27-21.84
			c9.07-5.11,20.02-7.97,30.43-6.32c5.04,0.8,10.37,2.93,13.07,7.54c1.55,2.65,1.99,5.75,2.11,8.76c0.13,3.17,0.01,6.35-0.02,9.52
			c-0.26,26.87-0.52,53.74-0.78,80.61c-0.03,3.33-0.06,6.65-0.1,9.98C778.13,461.38,778.28,461.38,778.28,461.29L778.28,461.29z"/>
	</g>
</g>
<g>
	<g>
		<path class="st9" d="M748.62,348.37c0,32.56,0,65.13,0,97.69c0,9.14,0,18.28,0,27.41c0,0.1,0.15,0.1,0.15,0
			c0-32.56,0-65.13,0-97.69c0-9.14,0-18.28,0-27.41C748.77,348.27,748.62,348.27,748.62,348.37L748.62,348.37z"/>
	</g>
</g>
<g>
	<path class="st19" d="M1178.42,671.47c22.42,0.06,44.83,2.17,66.83,6.31c3.74,0.7,8.13,2.03,9.17,5.57
		c0.66,2.26-0.34,4.62-1.32,6.77c-26.24,57.03-56.92,112.16-91.7,164.75c8.47-33.9,12.5-68.84,11.95-103.72
		c-0.44-27.62-3.73-55.27-1.53-82.81"/>
</g>
<ellipse transform="matrix(0.2309 -0.973 0.973 0.2309 -67.6067 1817.9382)" class="st20" cx="1116.15" cy="951.73" rx="26.06" ry="17.92"/>
<g>
	<g>
		<path class="st15" d="M850.44,390.94c15.99,10.31,31.97,20.61,47.96,30.92c0-0.86,0-1.73,0-2.59
			c-14.82,9.29-30.95,16.36-47.95,20.53c-1.87,0.46-1.08,3.35,0.8,2.89c17.23-4.23,33.65-11.42,48.67-20.84
			c0.98-0.61,0.96-1.97,0-2.59c-15.99-10.31-31.97-20.61-47.96-30.92C850.32,387.3,848.82,389.9,850.44,390.94L850.44,390.94z"/>
	</g>
</g>
<g>
	<g>
		<path class="st15" d="M1061.68,390.54c-15.87,9.95-31.73,19.91-47.6,29.86c-0.96,0.6-0.98,1.99,0,2.59
			c14.96,9.12,31.25,16.05,48.31,20.13c1.88,0.45,2.68-2.44,0.8-2.89c-16.82-4.02-32.83-10.83-47.59-19.82c0,0.86,0,1.73,0,2.59
			c15.87-9.95,31.73-19.91,47.6-29.86C1064.83,392.11,1063.32,389.51,1061.68,390.54L1061.68,390.54z"/>
	</g>
</g>
<path d="M1021.26,651.77c-4.44,13.46-27.49,12.26-73.6,9.86c-32.69-1.7-41.67-7.28-45.68-16.43c-6.34-14.43,1.5-33.6,2.54-36.14
	c9.89-24.2,33.57-33.5,50.76-32.86C994.18,577.64,1028.09,631.06,1021.26,651.77z"/>
<path class="st21" d="M984.4,663.13c-7.74,0.05-15.78-0.06-24.1-0.38c-6.68-0.26-13.16-0.63-19.45-1.1
	c2.43-10.05,10.8-17.28,20.32-17.84C972.04,643.17,982.25,651.36,984.4,663.13z"/>
</svg>
