<?xml version="1.0" encoding="utf-8"?>
<!-- Generator: Adobe Illustrator 23.0.5, SVG Export Plug-In . SVG Version: 6.00 Build 0)  -->
<svg version="1.1" xmlns="http://www.w3.org/2000/svg" xmlns:xlink="http://www.w3.org/1999/xlink" x="0px" y="0px"
	 viewBox="0 0 1920 1080" style="enable-background:new 0 0 1920 1080;" xml:space="preserve">
<style type="text/css">
	.st0{fill:#B4D2ED;}
	.st1{fill:#FFFFFF;}
	.st2{fill:#60894E;}
	.st3{fill:#5B4938;}
	.st4{fill:#84C16F;}
	.st5{fill:#9FEA83;}
	.st6{fill:#7DAF66;}
	.st7{fill:#51432E;}
	.st8{fill:#91774E;}
	.st9{fill:#D5F0F7;}
	.st10{fill:#4C703E;}
	.st11{fill:#70A05C;}
	.st12{fill:#FFF41F;}
	.st13{fill:#F7A6F5;}
	.st14{fill:#F9F4EA;}
</style>
<g id="圖層_1">
</g>
<g id="圖層_2">
	<rect class="st0" width="1920" height="1080"/>
	<g>
		<path class="st1" d="M344.28,225c-0.82-9.85,9.48-18.68,21.57-22.56c12.09-3.88,25.67-3.89,38.82-3.83
			c15.57,0.07,31.58,0.19,46.01,4.6c14.42,4.4,27.07,14.16,27.71,25.83c0.52,9.49-6.33,20.22,1.35,27.77c2.46,2.41,6.07,4,9.7,5.33
			c17.74,6.48,38.94,8.55,53.18,18.8c10.61,7.64,15.69,19.36,13.08,30.22c-0.7,2.91-1.91,5.9-0.86,8.75
			c1.78,4.85,8.98,7.06,14.96,9.31c19.17,7.23,33.19,21.68,36.45,37.6c3.26,15.91-4.33,32.86-19.72,44.07
			c-14.17,10.32-33.79,15.51-53.35,17.51c-42.98,4.4-86.39-5.21-129.75-4.18c-22.12,0.53-44.35,3.82-66.24,1.36
			c-16.93-1.91-32.87-7.19-47.83-13.44c-7.85-3.28-15.66-6.95-21.18-12.27c-9.94-9.57-10.79-22.64-16.77-33.91
			c-5.96-11.26-17.01-20.61-23.76-31.62c-14.9-24.27-5.23-55.68,22.36-72.59c8.51-5.22,18.33-9.07,28.07-12.89
			c22.52-8.83,45.04-17.66,67.56-26.49"/>
	</g>
	<g>
		<path class="st2" d="M664.46,898.82c33.3-41.87,104.35-45.53,141.78-7.3c9.55-19.62,30.62-33.07,52.43-33.48
			c21.81-0.41,43.37,12.25,53.64,31.5c38.33-34.04,102.31-33.98,140.58,0.12c30.27-45.18,102.89-53.43,142.52-16.19
			c46.9-35.84,117.05-37.5,165.59-3.9c34.72-31.19,86.97-41.38,130.86-25.53c7.21,2.6,14.59,5.9,22.2,4.98
			c7.66-0.93,14.08-5.96,20.58-10.13c40.23-25.87,97.97-20.17,132.36,13.08c2.91,2.81,6.19,6.02,10.24,5.83
			c2.85-0.13,5.3-1.94,7.61-3.6c31.96-22.9,72.79-28.44,111.81-33.3c11.67-1.45,23.33-2.9,35-4.36
			c41.09-5.12,85.76-9.53,121.21,11.88c44.04,26.6,58.17,83.18,64.43,134.24c5.93,48.33,7.71,100.13-15.89,142.72
			c-22.57,40.74-65.37,66.73-109.63,81.24c-55.08,18.05-113.86,20.94-171.82,22.08c-202.17,3.97-404.17-11.52-605.79-27
			c-144.27-11.08-290.26-22.49-427.43-68.56c-15.36-5.16-31.04-11.02-42.87-22.1c-27.73-25.98-25.18-70.11-18.82-107.57
			c4.1-24.15,9.09-48.67,21.3-69.91c12.21-21.23,32.94-38.95,57.3-41.53"/>
	</g>
	<path class="st3" d="M-16.93,627.74l-51.58-19.84c29.74-57,58.93-120.17,85.7-189.5c27.39-70.94,48.57-138.84,65.02-202.32
		c17.19,6.61,34.39,13.23,51.58,19.84c-14.6,63.67-34.93,133.26-63.46,206.57C43.43,511.64,13.4,573.39-16.93,627.74z"/>
	<g>
		<path class="st4" d="M656.7,2.62c-15.1,21.67-44.61,26.69-70.94,28.73c-36.11,2.79-72.39,3.45-108.58,1.97
			c-10.51-0.43-21.5-0.95-31.06,3.43c-9.77,4.48-16.61,13.39-23.82,21.37c-34.73,38.42-87.15,60.16-138.88,57.59
			c-12.27-0.61-26.34-1.9-35.07,6.76c-4.23,4.2-6.32,10.03-8.47,15.59c-9.66,24.96-23.98,49.29-46.39,63.93
			c-7.77,5.08-16.5,8.99-22.89,15.73c-5.47,5.77-8.81,13.19-12.81,20.06c-11.66,20.02-29.78,36.21-50.98,45.54
			c-31.97,14.07-68.39,12.25-103.26,10.16L-86.5-30.5l743,8L656.7,2.62z"/>
	</g>
	
		<ellipse transform="matrix(0.5799 -0.8147 0.8147 0.5799 -177.2813 147.0981)" class="st5" cx="54" cy="245.46" rx="26.54" ry="14"/>
	
		<ellipse transform="matrix(0.5799 -0.8147 0.8147 0.5799 -66.2079 178.5133)" class="st5" cx="140" cy="153.46" rx="26.54" ry="14"/>
	
		<ellipse transform="matrix(0.2065 -0.9784 0.9784 0.2065 256.3342 388.9976)" class="st5" cx="368" cy="36.46" rx="14" ry="26.54"/>
	<ellipse transform="matrix(0.2065 -0.9784 0.9784 0.2065 35.426 128.5997)" class="st5" cx="97" cy="42.46" rx="14" ry="26.54"/>
	<path class="st3" d="M242.81,361.57c-26.54,19.71-58.65,40.87-96.46,60.93c-35.03,18.59-68.04,32.57-97.35,43.17
		c-4.26-7.93-8.52-15.86-12.77-23.79c31.61-12.08,63.18-24.23,94.71-36.47C168.26,390.91,205.55,376.3,242.81,361.57z"/>
	<g>
		<path class="st4" d="M178.05,288.75c-0.44-14.64,8.61-29.12,21.96-35.14s30.19-3.22,40.87,6.8c1.5,1.41,3,3,5,3.46
			c2.06,0.47,4.16-0.39,6.14-1.12c12.49-4.62,26.1-4.94,39.41-5.2c9.72-0.19,19.7-0.34,28.84,2.97c9.14,3.31,17.39,10.9,18.57,20.55
			c0.56,4.6-0.44,9.56,1.66,13.69c3.31,6.5,12.01,7.32,18.78,10.04c12.45,5.01,20.11,19.73,17.08,32.8
			c-3.03,13.07-16.39,22.91-29.78,21.93c9.67,7.7,7.38,23.31,0.96,33.88c-14.17,23.35-44.63,35.43-70.96,28.13
			c-4.94-1.37-9.76-3.35-14.87-3.88c-8.31-0.85-16.45,2.21-24.64,3.85c-15.03,3-33.45-0.55-40.26-14.27
			c-2.73-5.5-3.65-12.54-8.89-15.75c-3.26-2-7.33-1.89-11.15-2.26c-19.56-1.9-36.2-19.99-36.45-39.64
			c-0.08-6.43,1.37-12.82,1.13-19.24c-0.22-5.9-1.87-11.74-1.41-17.63c1.22-15.69,20.24-27.06,34.64-20.71"/>
	</g>
	
		<ellipse transform="matrix(0.5799 -0.8147 0.8147 0.5799 -172.4456 303.5213)" class="st5" cx="208.1" cy="318.98" rx="20.49" ry="9.84"/>
	
		<ellipse transform="matrix(0.4476 -0.8942 0.8942 0.4476 -205.0015 438.1065)" class="st5" cx="252.1" cy="384.98" rx="9.84" ry="20.49"/>
	
		<ellipse transform="matrix(0.4476 -0.8942 0.8942 0.4476 -115.0467 451.7247)" class="st5" cx="308.1" cy="318.98" rx="9.84" ry="20.49"/>
	
		<ellipse transform="matrix(0.4476 -0.8942 0.8942 0.4476 -407.8131 1263.1877)" class="st6" cx="818.51" cy="961.68" rx="18.39" ry="39.94"/>
	
		<ellipse transform="matrix(0.9044 -0.4267 0.4267 0.9044 -291.548 574.1885)" class="st6" cx="1135.51" cy="937.68" rx="39.94" ry="18.39"/>
	
		<ellipse transform="matrix(0.9044 -0.4267 0.4267 0.9044 -342.1461 526.3721)" class="st6" cx="1003.51" cy="1026.68" rx="39.94" ry="18.39"/>
	
		<ellipse transform="matrix(0.9044 -0.4267 0.4267 0.9044 -293.3309 720.2316)" class="st6" cx="1460.51" cy="1014.68" rx="39.94" ry="18.39"/>
	
		<ellipse transform="matrix(0.5668 -0.8239 0.8239 0.5668 -48.0578 1717.96)" class="st6" cx="1609.51" cy="904.68" rx="18.39" ry="39.94"/>
	
		<ellipse transform="matrix(0.9044 -0.4267 0.4267 0.9044 -256.2105 871.898)" class="st6" cx="1817.51" cy="1007.68" rx="39.94" ry="18.39"/>
	<g>
		<g>
			<path class="st7" d="M769.51-39.47c1.31-2.91-0.58-5.93-1.8-8.54c-0.22,0.38-0.43,0.75-0.65,1.13c1.49,0.07,2.75,0.93,3.56,2.16
				c0.28,0.43,0.8,0.47,1.18,0.15c0.56-0.47,1.13-0.93,1.73-1.35c0.28-0.2,0.57-0.4,0.87-0.59c0.1-0.06,0.88-0.46,0.88-0.54
				c-0.49-0.33-0.7-0.29-0.62,0.12c0,0.18-0.01,0.36-0.01,0.55c-0.01,0.36-0.02,0.73-0.03,1.09c-0.02,0.73-0.04,1.46-0.05,2.19
				c-0.01,0.44,0.5,0.91,0.95,0.72c1.75-0.73,3.61-1.01,5.48-0.61c-0.17-0.31-0.35-0.62-0.52-0.92c-0.14,0.56-0.77,0.82-1.2,1.15
				c-0.47,0.36-0.9,0.78-1.27,1.24c-0.79,0.97-1.36,2.07-1.74,3.26c-0.29,0.92,1.15,1.32,1.45,0.4c0.39-1.21,1.02-2.33,1.93-3.23
				c0.81-0.79,1.99-1.22,2.28-2.42c0.09-0.37-0.12-0.84-0.52-0.92c-2.13-0.44-4.28-0.22-6.28,0.61c0.32,0.24,0.63,0.48,0.95,0.72
				c0.03-1.09,0.05-2.19,0.08-3.28c0.02-0.69,0.18-1.77-0.65-2.09c-0.77-0.3-1.71,0.56-2.3,0.95c-0.86,0.58-1.68,1.21-2.47,1.88
				c0.39,0.05,0.79,0.1,1.18,0.15c-1.11-1.69-2.81-2.8-4.86-2.9c-0.61-0.03-0.87,0.65-0.65,1.13c0.92,1.96,2.81,4.79,1.8,7.03
				C767.82-39.36,769.11-38.6,769.51-39.47L769.51-39.47z"/>
		</g>
	</g>
	<g>
		<path class="st8" d="M78.02,396.93c-1.33-1.87-0.88-4.56,1.06-6.3c1.94-1.74,5.2-2.38,7.64-1.51c1.63,0.58,2.92,1.76,4.72,1.95
			c1.22,0.12,2.47-0.23,3.66-0.6c2.59-0.8,5.19-1.7,7.88-1.96c2.7-0.26,5.58,0.22,7.25,1.82c0.48,0.46,0.87,1.01,1.55,1.27
			c0.51,0.19,1.12,0.18,1.7,0.14c3.18-0.2,6.32-1.11,9.5-1.39s6.68,0.21,8.45,2.24c0.39,0.45,0.7,0.97,1.23,1.31
			c0.66,0.42,1.58,0.5,2.45,0.54c3.08,0.14,6.23-0.03,9.22,0.44c2.99,0.47,5.92,1.72,7.16,3.95c0.53,0.95,0.72,2.01,0.91,3.06
			c0.34,1.93,0.69,3.86,1.03,5.8c0.19,1.06,0.38,2.14,0.16,3.23c-0.71,3.57-5.64,5.96-10.02,6.12c-1.47,0.05-2.99-0.06-4.37,0.45
			c-1.1,0.4-1.97,1.15-2.9,1.8c-3.97,2.75-9.63,3.69-14.19,2.35c-1.07-0.31-2.1-0.75-3.27-0.78c-1.94-0.06-3.75,0.97-5.52,1.78
			c-4.92,2.26-11.11,2.99-15.64,0.83c-0.91-0.43-1.75-0.97-2.78-1.19c-3.85-0.82-8.55,3.1-11.83,1.36
			c-1.72-0.92-1.93-2.96-3.34-4.17c-0.72-0.61-1.71-0.97-2.65-1.34c-2.11-0.82-4.19-1.81-5.52-3.36c-1.33-1.55-1.75-3.78-0.46-5.54
			c0.34-0.47,0.8-0.9,1.01-1.41c0.62-1.54-1.23-2.75-2.08-4.11c-0.92-1.47-0.58-3.47,0.81-4.84c1.39-1.38,3.76-2.06,5.75-1.65"/>
	</g>
	
		<ellipse transform="matrix(0.053 -0.9986 0.9986 0.053 -297.5635 479.9095)" class="st9" cx="104.24" cy="396.84" rx="13.67" ry="9.99"/>
	
		<ellipse transform="matrix(0.053 -0.9986 0.9986 0.053 -282.4253 497.0484)" class="st9" cx="120.84" cy="397.43" rx="13.67" ry="9.99"/>
	<g>
		<g>
			<path class="st7" d="M90.84,414.22c0.66-2.68,2.75-5.02,5.54-5.54c2.93-0.54,5.75,1.24,7.07,3.78c0.24,0.46,0.83,0.44,1.18,0.15
				c2.65-2.22,5.75-4.75,9.37-4.9c1.55-0.06,3.18,0.29,4.46,1.21c0.65,0.46,1.13,1.04,1.56,1.71c0.34,0.53,0.64,1.11,1.23,1.4
				c1.25,0.6,2.06-0.66,2.89-1.39c1.32-1.16,2.88-2.07,4.6-2.48c3.29-0.77,6.86,0.86,7.99,4.15c0.31,0.91,1.76,0.52,1.45-0.4
				c-1.06-3.11-3.93-5.22-7.21-5.44c-1.78-0.12-3.58,0.38-5.15,1.19c-0.76,0.39-1.47,0.87-2.13,1.4c-0.41,0.33-0.81,0.68-1.19,1.06
				c-0.41,0.4-0.42,0.62-0.86,0.26c-0.3-0.24-0.47-0.77-0.7-1.09c-0.24-0.33-0.5-0.64-0.79-0.91c-0.53-0.51-1.14-0.94-1.8-1.26
				c-1.44-0.71-3.09-1.01-4.69-0.88c-3.93,0.31-7.18,2.88-10.09,5.32c0.39,0.05,0.79,0.1,1.18,0.15c-1.58-3.05-4.96-5.05-8.43-4.53
				c-3.43,0.52-6.11,3.35-6.92,6.64C89.16,414.76,90.61,415.16,90.84,414.22L90.84,414.22z"/>
		</g>
	</g>
	<g>
		<g>
			<path class="st1" d="M106.97,390.53c0.19,0.19,0.36,0.39,0.52,0.6c-0.08-0.1-0.16-0.2-0.23-0.3c0.34,0.45,0.62,0.93,0.84,1.45
				c-0.05-0.12-0.1-0.24-0.15-0.36c0.24,0.57,0.4,1.17,0.48,1.78c-0.02-0.13-0.04-0.27-0.05-0.4c0.03,0.25,0.05,0.49,0.05,0.74
				c0.02,0.78,0.68,1.54,1.5,1.5c0.8-0.04,1.52-0.66,1.5-1.5c-0.05-2.09-0.86-4.13-2.34-5.62c-0.55-0.56-1.58-0.6-2.12,0
				C106.42,389.01,106.38,389.93,106.97,390.53L106.97,390.53z"/>
		</g>
	</g>
	<g>
		<g>
			<path class="st1" d="M123.72,389.77c0.02,0.02,0.03,0.04,0.05,0.06c-0.08-0.1-0.16-0.2-0.23-0.3c0.33,0.43,0.6,0.9,0.81,1.4
				c-0.05-0.12-0.1-0.24-0.15-0.36c0.23,0.56,0.39,1.14,0.48,1.73c-0.02-0.13-0.04-0.27-0.05-0.4c0.07,0.52,0.08,1.05,0.04,1.57
				c-0.03,0.36,0.19,0.81,0.44,1.06c0.26,0.26,0.69,0.46,1.06,0.44c0.39-0.02,0.79-0.14,1.06-0.44c0.28-0.31,0.4-0.64,0.44-1.06
				c0.09-0.99-0.02-2.02-0.3-2.97c-0.31-1.07-0.83-1.99-1.51-2.86c-0.22-0.28-0.72-0.44-1.06-0.44c-0.37,0-0.81,0.16-1.06,0.44
				c-0.26,0.29-0.46,0.66-0.44,1.06C123.3,389.14,123.46,389.44,123.72,389.77L123.72,389.77z"/>
		</g>
	</g>
	<g>
		<g>
			<path class="st8" d="M114.07,411.5c0.07-0.04,0.14-0.08,0.21-0.12c0.25-0.14-0.34,0.1-0.07,0.03c0.15-0.04,0.3-0.08,0.46-0.11
				c-0.13,0.02-0.27,0.04-0.4,0.05c0.27-0.03,0.53-0.03,0.8,0c-0.13-0.02-0.27-0.04-0.4-0.05c0.3,0.04,0.57,0.13,0.86,0.23
				c-0.42-0.13-0.16-0.07-0.05-0.01c0.07,0.03,0.13,0.07,0.19,0.1c0.14,0.08,0.28,0.16,0.41,0.25c0.06,0.04,0.12,0.08,0.18,0.13
				c0.04,0.03,0.07,0.05,0.11,0.08c-0.05-0.04-0.11-0.08-0.16-0.13c0.14,0.1,0.28,0.22,0.41,0.34c0.25,0.21,0.49,0.44,0.73,0.66
				c0.45,0.42,1.07,0.55,1.64,0.31c0.59-0.25,0.86-0.76,0.92-1.37c0.08-0.77-0.32-1.62-0.88-2.13c-0.56-0.51-1.26-0.77-1.99-0.95
				c-0.76-0.19-1.66,0.24-1.85,1.05c-0.18,0.78,0.23,1.64,1.05,1.85c0.17,0.04,0.34,0.08,0.51,0.14c0.08,0.02,0.17,0.07,0.25,0.09
				c-0.22-0.1-0.26-0.11-0.12-0.04c0.04,0.02,0.08,0.04,0.11,0.07c0.04,0.02,0.07,0.05,0.11,0.07c-0.19-0.16-0.25-0.19-0.16-0.12
				c0.04,0.04,0.23,0.26,0.06,0.05c-0.22-0.28,0.1,0.26-0.04-0.07c-0.11-0.26,0,0.04,0.01,0.11c-0.02-0.13-0.04-0.27-0.05-0.4
				c0.01,0.1,0.01,0.2,0,0.3c0.85-0.35,1.71-0.71,2.56-1.06c-0.95-0.88-1.92-1.71-3.14-2.19c-1.2-0.47-2.67-0.41-3.77,0.28
				c-0.67,0.41-0.99,1.36-0.54,2.05C112.45,411.62,113.36,411.94,114.07,411.5L114.07,411.5z"/>
		</g>
	</g>
	<g>
		<path class="st8" d="M75.91,416.18c-1.37-0.54-3.16-0.01-4.05,0.94c-0.88,0.96-1,2.21-0.75,3.36c0.58,2.67,3.34,5.14,6.88,5.48
			s7.33-2.01,6.95-4.7c-0.47-3.36-5.88-4.71-10.28-5.3"/>
	</g>
	<g>
		<g>
			<path class="st10" d="M1.43,518.71c5.08-12.18,18.85-20.48,32.49-19.58c13.64,0.9,26.09,10.93,29.38,23.67
				c14.18-12.8,39.95-10.48,51.4,4.63c2.75,3.63,5.06,8.07,9.44,9.66c4.7,1.71,9.84-0.55,14.84-1.08
				c18.83-1.98,29.9,19.34,35.3,36.77c20.3-7.94,46.16,9.73,45,30.75c15.79-2.12,30.77,9.5,37.21,23.5
				c6.44,14,6.31,29.86,6.07,45.16c23.04-17.97,63.86-4.55,70.58,23.22c23.66-17.81,55.61-20.58,85.59-22.66
				c6.79-0.47,13.58-0.94,20.37-1.41c11.04-0.77,22.08-1.53,33.11-2.3c21.69-1.5,47.68-1.11,59.69,16.3
				c2.95,4.29,4.77,9.34,8.49,13.04c7.84,7.81,20.79,6.97,31.77,9.51c19.25,4.44,34.4,21.91,35.46,40.89
				c0.38,6.77-0.64,14.29,3.67,19.66c3.44,4.28,9.28,5.87,14.4,8.11c11.29,4.94,20.42,14.24,24.89,25.35
				c2.49,6.2,3.65,13.04,7.75,18.39c3.22,4.21,7.95,7.07,12.12,10.42c15.67,12.57,23.7,33.36,20.37,52.7
				c-1.03,5.96-3.05,12.01-1.71,17.91c1.13,5.01,4.54,9.21,7.04,13.74c7.14,13,6.35,29.69-1.99,42.01c-2.2,3.24-4.9,6.27-6.11,9.96
				c-1.98,6.05,0.44,12.49,1.89,18.67c3.11,13.22,1.75,26.99,0.38,40.48c-0.72,7.07-1.44,14.15-2.16,21.22
				c-0.96,9.41-2,19.11-6.74,27.41c-8.41,14.74-28.82,21.94-45.16,15.93c-4.02-1.48-7.84-3.66-12.1-4.23
				c-6.32-0.86-12.49,1.91-18.32,4.41c-60.73,26.04-129.43,29.5-195.78,25.06s-132.03-16.32-198.47-19.4
				c-63.06-2.92-126.51,2.1-189.24-4.71c-9.86-1.07-20.01-2.54-28.41-7.6c-12.53-7.54-19.04-21.98-20.5-36.1s1.36-28.29,3.59-42.33
				c14.23-89.53,4.51-180.73,3.45-271.29c-0.62-52.95,1.73-105.93,7.05-158.64c2.31-22.91,5.32-46.26,15.69-67.01"/>
		</g>
		
			<ellipse transform="matrix(0.4476 -0.8942 0.8942 0.4476 -395.3097 879.7579)" class="st11" cx="514.42" cy="759.84" rx="14.89" ry="34.57"/>
		
			<ellipse transform="matrix(0.4476 -0.8942 0.8942 0.4476 -520.2623 1017.4855)" class="st11" cx="563.42" cy="929.84" rx="14.89" ry="34.57"/>
		
			<ellipse transform="matrix(0.3324 -0.9431 0.9431 0.3324 -717.5403 626.0269)" class="st11" cx="83.42" cy="819.84" rx="34.57" ry="14.89"/>
		
			<ellipse transform="matrix(0.6125 -0.7904 0.7904 0.6125 -616.3809 618.2226)" class="st11" cx="322.42" cy="937.84" rx="34.57" ry="14.89"/>
		
			<ellipse transform="matrix(0.4476 -0.8942 0.8942 0.4476 -493.6322 442.5941)" class="st11" cx="111.42" cy="620.84" rx="14.89" ry="34.57"/>
		<g>
			
				<ellipse transform="matrix(0.8307 -0.5567 0.5567 0.8307 -526.5375 247.2191)" class="st1" cx="143.18" cy="989.28" rx="6.38" ry="14.29"/>
			
				<ellipse transform="matrix(0.3171 -0.9484 0.9484 0.3171 -852.9473 812.1414)" class="st1" cx="137.48" cy="998.36" rx="6.3" ry="14.47"/>
			
				<ellipse transform="matrix(0.944 -0.33 0.33 0.944 -324.7089 101.7817)" class="st1" cx="137.48" cy="1007.43" rx="14.47" ry="6.3"/>
			
				<ellipse transform="matrix(0.4048 -0.9144 0.9144 0.4048 -840.0351 736.9285)" class="st1" cx="146.03" cy="1013.71" rx="14.25" ry="6.39"/>
			
				<ellipse transform="matrix(0.8803 -0.4745 0.4745 0.8803 -462.5776 195.8423)" class="st1" cx="156.73" cy="1014.41" rx="6.39" ry="14.27"/>
			
				<ellipse transform="matrix(0.3805 -0.9248 0.9248 0.3805 -829.6927 776.2508)" class="st1" cx="164.57" cy="1007.43" rx="6.3" ry="14.46"/>
			
				<ellipse transform="matrix(0.9299 -0.3678 0.3678 0.9299 -354.912 130.3749)" class="st1" cx="164.57" cy="996.26" rx="14.46" ry="6.3"/>
			
				<ellipse transform="matrix(0.2803 -0.9599 0.9599 0.2803 -836.6719 861.2368)" class="st1" cx="156.01" cy="988.59" rx="14.22" ry="6.41"/>
			<ellipse class="st12" cx="151.38" cy="1001.85" rx="5.35" ry="5.23"/>
		</g>
		<g>
			
				<ellipse transform="matrix(0.8307 -0.5567 0.5567 0.8307 -384.774 267.3629)" class="st1" cx="247.18" cy="766.28" rx="6.38" ry="14.29"/>
			
				<ellipse transform="matrix(0.3171 -0.9484 0.9484 0.3171 -570.4378 758.4912)" class="st1" cx="241.48" cy="775.36" rx="6.3" ry="14.47"/>
			
				<ellipse transform="matrix(0.944 -0.33 0.33 0.944 -245.3044 123.6083)" class="st1" cx="241.48" cy="784.43" rx="14.47" ry="6.3"/>
			
				<ellipse transform="matrix(0.4048 -0.9144 0.9144 0.4048 -574.2159 699.2917)" class="st1" cx="250.03" cy="790.71" rx="14.25" ry="6.39"/>
			
				<ellipse transform="matrix(0.8803 -0.4745 0.4745 0.8803 -344.3088 218.4872)" class="st1" cx="260.73" cy="791.41" rx="6.39" ry="14.27"/>
			
				<ellipse transform="matrix(0.3805 -0.9248 0.9248 0.3805 -559.0466 734.2869)" class="st1" cx="268.57" cy="784.43" rx="6.3" ry="14.46"/>
			
				<ellipse transform="matrix(0.9299 -0.3678 0.3678 0.9299 -265.5966 152.9952)" class="st1" cx="268.57" cy="773.26" rx="14.46" ry="6.3"/>
			
				<ellipse transform="matrix(0.2803 -0.9599 0.9599 0.2803 -547.7642 800.5763)" class="st1" cx="260.01" cy="765.59" rx="14.22" ry="6.41"/>
			<ellipse class="st12" cx="255.38" cy="778.85" rx="5.35" ry="5.23"/>
		</g>
	</g>
	<g>
		
			<ellipse transform="matrix(0.8307 -0.5567 0.5567 0.8307 -360.1697 672.2664)" class="st13" cx="925.18" cy="928.28" rx="6.38" ry="14.29"/>
		
			<ellipse transform="matrix(0.3171 -0.9484 0.9484 0.3171 -261.0837 1512.123)" class="st13" cx="919.48" cy="937.36" rx="6.3" ry="14.47"/>
		
			<ellipse transform="matrix(0.944 -0.33 0.33 0.944 -260.7867 356.3911)" class="st13" cx="919.48" cy="946.43" rx="14.47" ry="6.3"/>
		
			<ellipse transform="matrix(0.4048 -0.9144 0.9144 0.4048 -318.7859 1415.6947)" class="st13" cx="928.03" cy="952.71" rx="14.25" ry="6.39"/>
		
			<ellipse transform="matrix(0.8803 -0.4745 0.4745 0.8803 -339.9896 559.6022)" class="st13" cx="938.73" cy="953.41" rx="6.39" ry="14.27"/>
		
			<ellipse transform="matrix(0.3805 -0.9248 0.9248 0.3805 -288.8653 1461.6293)" class="st13" cx="946.57" cy="946.43" rx="6.3" ry="14.46"/>
		
			<ellipse transform="matrix(0.9299 -0.3678 0.3678 0.9299 -277.6533 413.7361)" class="st13" cx="946.57" cy="935.26" rx="14.46" ry="6.3"/>
		
			<ellipse transform="matrix(0.2803 -0.9599 0.9599 0.2803 -215.3191 1567.9851)" class="st13" cx="938.01" cy="927.59" rx="14.22" ry="6.41"/>
		<ellipse class="st12" cx="933.38" cy="940.85" rx="5.35" ry="5.23"/>
	</g>
	<g>
		
			<ellipse transform="matrix(0.8307 -0.5567 0.5567 0.8307 -270.2138 1084.0576)" class="st13" cx="1647.18" cy="986.28" rx="6.38" ry="14.29"/>
		
			<ellipse transform="matrix(0.3171 -0.9484 0.9484 0.3171 176.9492 2236.4644)" class="st13" cx="1641.48" cy="995.36" rx="6.3" ry="14.47"/>
		
			<ellipse transform="matrix(0.944 -0.33 0.33 0.944 -239.4895 597.8675)" class="st13" cx="1641.48" cy="1004.43" rx="14.47" ry="6.3"/>
		
			<ellipse transform="matrix(0.4048 -0.9144 0.9144 0.4048 57.9338 2110.428)" class="st13" cx="1650.03" cy="1010.71" rx="14.25" ry="6.39"/>
		
			<ellipse transform="matrix(0.8803 -0.4745 0.4745 0.8803 -281.0527 909.1416)" class="st13" cx="1660.73" cy="1011.41" rx="6.39" ry="14.27"/>
		
			<ellipse transform="matrix(0.3805 -0.9248 0.9248 0.3805 104.7476 2165.2375)" class="st13" cx="1668.57" cy="1004.43" rx="6.3" ry="14.46"/>
		
			<ellipse transform="matrix(0.9299 -0.3678 0.3678 0.9299 -248.3718 683.3704)" class="st13" cx="1668.57" cy="993.26" rx="14.46" ry="6.3"/>
		
			<ellipse transform="matrix(0.2803 -0.9599 0.9599 0.2803 248.6229 2302.782)" class="st13" cx="1660.01" cy="985.59" rx="14.22" ry="6.41"/>
		<ellipse class="st12" cx="1655.38" cy="998.85" rx="5.35" ry="5.23"/>
	</g>
	<g>
		
			<ellipse transform="matrix(0.8307 -0.5567 0.5567 0.8307 -311.2945 876.9767)" class="st13" cx="1286.18" cy="950.28" rx="6.38" ry="14.29"/>
		
			<ellipse transform="matrix(0.3171 -0.9484 0.9484 0.3171 -35.4286 1869.5135)" class="st13" cx="1280.48" cy="959.36" rx="6.3" ry="14.47"/>
		
			<ellipse transform="matrix(0.944 -0.33 0.33 0.944 -247.8284 476.7372)" class="st13" cx="1280.48" cy="968.43" rx="14.47" ry="6.3"/>
		
			<ellipse transform="matrix(0.4048 -0.9144 0.9144 0.4048 -124.0251 1758.8948)" class="st13" cx="1289.03" cy="974.71" rx="14.25" ry="6.39"/>
		
			<ellipse transform="matrix(0.8803 -0.4745 0.4745 0.8803 -307.1996 733.5336)" class="st13" cx="1299.73" cy="975.41" rx="6.39" ry="14.27"/>
		
			<ellipse transform="matrix(0.3805 -0.9248 0.9248 0.3805 -85.5855 1809.0972)" class="st13" cx="1307.57" cy="968.43" rx="6.3" ry="14.46"/>
		
			<ellipse transform="matrix(0.9299 -0.3678 0.3678 0.9299 -260.4378 548.0626)" class="st13" cx="1307.57" cy="957.26" rx="14.46" ry="6.3"/>
		
			<ellipse transform="matrix(0.2803 -0.9599 0.9599 0.2803 23.3713 1930.3457)" class="st13" cx="1299.01" cy="949.59" rx="14.22" ry="6.41"/>
		<ellipse class="st12" cx="1294.38" cy="962.85" rx="5.35" ry="5.23"/>
	</g>
	<g>
		<path class="st14" d="M1923.34,16.09c-0.54-17.86-2.76-38.67-17.94-48.11c-7.96-4.95-17.8-5.49-27.16-5.75
			c-46.54-1.29-94.68,1.23-136.64,21.4c-41.96,20.17-76.49,61.67-76.07,108.23c-41.6-20.97-93.2-13.59-134.03,8.83
			s-72.7,58.03-101.56,94.6c-6.14,7.78-12.98,16.16-22.66,18.3c-6.35,1.4-12.92-0.16-19.33-1.23c-25.77-4.32-52.82-0.68-76.52,10.31
			c-11.33,5.25-21.93,12.14-33.66,16.42c-16.52,6.04-34.43,6.64-51.89,8.75c-59.9,7.26-116.17,32.88-167.89,63.96
			c-7.3,4.39-15.02,9.03-23.53,9.08c-7.98,0.05-15.33-3.96-22.96-6.29c-35.16-10.75-71.28,14.27-108.04,14.65
			c-19.22,0.2-37.8-6.37-56.8-9.28c-15.8-2.42-33.35-1.72-46.68,6.36c39.1,12.6,80.1,24.87,120.39,17.31
			c16.54-3.1,32.56-9.52,49.38-10.09c27.59-0.95,52.99,13.74,79.67,20.82c37.09,9.84,78.01,5.21,112.49,22.05
			c21.2,10.36,38.43,28.22,60.63,36.21c35.74,12.85,74.98-2.6,109-19.48c8.7-4.32,17.9-8.86,27.59-8.16
			c11.59,0.85,21.14,8.93,30.52,15.79c39.49,28.84,90.89,40.82,139.06,32.42s92.48-37.09,119.87-77.6
			c34.75,30.53,87.65,38.54,129.89,19.67c8.73-3.9,17.48-8.95,27.04-8.76c34.52,0.67,41.94,62.76,76.48,62.8
			c14.56,0.02,26.36-12.29,32.58-25.45c9.48-20.05,10.18-42.97,10.6-65.14C1927.19,231.17,1926.59,123.59,1923.34,16.09z"/>
	</g>
</g>
</svg>
