<?xml version="1.0" encoding="utf-8"?>
<!-- Generator: Adobe Illustrator 23.0.5, SVG Export Plug-In . SVG Version: 6.00 Build 0)  -->
<svg version="1.1" id="圖層_1" xmlns="http://www.w3.org/2000/svg" xmlns:xlink="http://www.w3.org/1999/xlink" x="0px" y="0px"
	 viewBox="0 0 1920 1080" style="enable-background:new 0 0 1920 1080;" xml:space="preserve">
<style type="text/css">
	.st0{fill:#A9E7F7;}
	.st1{fill:#FBC75B;}
	.st2{fill:#A4A907;}
	.st3{fill:#F3A728;}
	.st4{fill:#DB6733;}
	.st5{fill:#FAFBFE;}
	.st6{fill:#C59D83;stroke:#967556;stroke-miterlimit:10;}
	.st7{fill:#F3D9BE;stroke:#967556;stroke-miterlimit:10;}
	.st8{fill:#FAF0E6;stroke:#967556;stroke-miterlimit:10;}
	.st9{fill:#CEB8AA;stroke:#715F55;stroke-miterlimit:10;}
	.st10{fill:#F0D8C0;stroke:#715F55;stroke-miterlimit:10;}
	.st11{fill:#D75577;}
	.st12{fill:#CB3856;}
	.st13{fill:#FFF2DE;stroke:#A1896D;stroke-miterlimit:10;}
	.st14{fill:#713C2C;stroke:#825C47;stroke-miterlimit:10;}
	.st15{fill:#FFE9D4;stroke:#DAC9B9;stroke-miterlimit:10;}
	.st16{fill:#FFFAE7;stroke:#977559;stroke-miterlimit:10;}
	.st17{fill:#783C1A;stroke:#977559;stroke-miterlimit:10;}
	.st18{fill:#918C0A;}
	.st19{fill:#B5C107;}
</style>
<rect class="st0" width="1920" height="1080"/>
<path class="st1" d="M1920,1078H0c-0.67-149.33-1.33-298.67-2-448c233.76-66.64,533.07-129.53,884-150
	c416.67-24.3,771.9,19.04,1038,72C1920,727.33,1920,902.67,1920,1078z"/>
<path class="st2" d="M1920,1080H659c44-134.33,88-268.67,132-403c150.57-39.07,352.92-75.79,593-76c213.16-0.19,395.37,28.47,536,61
	C1920,801.33,1920,940.67,1920,1080z"/>
<g>
	<path class="st3" d="M234.53,150.36l30.29-21.15l-32.55-15.23l16.65-32.74l-36.79,1.96l-2.93-33.98L180.6,69.17l-19.26-29.6
		l-16.17,31.81l-31.79-14.88l2.96,34.31l-37.9,2.02l20.84,32.04l-27.09,18.92l31.32,14.65l-15.42,30.32l34.72-1.85l3.01,34.87
		l26.11-18.23l20.74,31.87l17.38-34.18l32.59,15.25l-2.89-33.48l34.83-1.86L234.53,150.36z M172.02,160.36l-0.48,0.03l-17.89-8.37
		l-6.32-9.71l-1.44-16.67l0.28-0.55l14.87-10.38l9.98-0.53l14.13,6.61l4.21,6.47l1.23,14.26l-4.64,9.12L172.02,160.36z"/>
	<circle class="st4" cx="168.5" cy="137.5" r="54.5"/>
</g>
<path class="st5" d="M648,174c0.17,2.54,1.02,18.76-11,30c-1.9,1.78-10.6,9.92-21,9c-7.86-0.69-14-4-14-4c-3.36-1.81-4.72-3.33-7-3
	c-3.67,0.52-4.4,5.05-8,9c-5.16,5.66-12.83,6.4-19,7c-12.16,1.18-21.21-3.51-24-5c-6.71-3.59-11.88-6.35-14-12
	c-0.94-2.49-1.64-6.5-4-7c-1.21-0.26-2.25,0.54-3,1c-4.59,2.83-10.98,1.09-15,0c-8.52-2.31-13.41-7.98-15-10
	c-2.09-3.27-2.76-6.06-3-8c-0.48-3.98,0.63-6.57-1-8c-1.27-1.11-2.61-0.12-5-1c-2.6-0.96-3.95-3.24-5-5c-2.4-4.05-3.33-9.63-2-14
	c2.35-7.74,12.31-13.48,24-12c-2.54-11.66,0.36-23.09,8-29c5.91-4.58,13.48-4.93,15-5c8.28-0.39,10.18,3.16,16,3
	c10.4-0.29,11.55-13.58,25-20c4.74-2.26,18.81-8.74,37-6c6.61,1,25.3,3.81,36,20c5.9,8.92,6.87,18.11,7,23c1.78,0.08,10.8,0.68,17,8
	c6.62,7.81,6.44,19.04,2,27C659.01,170.96,649.87,173.52,648,174z"/>
<g>
	<path class="st5" d="M1514.08,104.85c3.81-3.07,13.48-11.34,30.14-12.07c12.03-0.53,24.09,2.59,33.49,7.83
		c-0.27-14.04,13.45-27.5,32.24-32.69s41.46-2.19,56.93,6.85c3.15-11.08,19.27-19.02,35.53-19.42c16.25-0.41,31.87,5.64,42.58,14.14
		c10.71,8.5,17.08,19.22,21.63,30.06c1.01,2.42,2.42,3.6,3.37,5.58c6.23,13.05,1.77,26.21-4.08,27.25c-0.8,0.14-1.9,0.18-3,0.78
		c-1.99,1.09-1.49,3.22-1.05,4.95c3.34,13.38-12.36,27.55-31.85,28.72c-3.41,0.21-7.02,0.1-10.03,1.23
		c-1.87,0.7-3.32,1.83-4.82,2.86c-7.22,4.96-16.62,8.38-26.61,9.67c-8.26,1.07-16.9,0.72-24.91,2.48
		c-6.12,1.35-11.57,3.87-17.62,5.36c-8.16,2.02-17.03,2.09-25.69,1.82c-30.8-0.97-63.63-7.04-82.93-23.74
		c-1.43-1.23-2.83-2.56-4.85-3.29c-2.57-0.93-4.94-0.98-5.5-1c-5.84-0.22-16.32-7.39-21.35-13.49
		C1495.3,136.16,1498.89,117.09,1514.08,104.85z"/>
</g>
<g>
	<path class="st5" d="M964.97,129.97c0.26-14.15,14.36-25.39,28.5-25.8c14.14-0.41,27.39,7.83,36.62,18.55
		c1.38-5.3,2.76-10.6,4.13-15.9c1.15-4.42,2.36-8.97,5.14-12.6c2.75-3.59,6.78-5.94,10.8-7.99c9.09-4.64,19.07-8.29,29.26-7.69
		c18.06,1.07,32.64,15.06,43.26,29.71c9.64-8.27,23.71-8.03,36.39-7.36c2.1,0.11,4.23,0.23,6.24,0.86c2.87,0.91,5.31,2.82,7.61,4.77
		c10,8.46,18.94,18.52,24.26,30.5c5.31,11.98,6.71,26.05,1.88,38.23c-3.96,9.98-11.7,18-20.09,24.7
		c-5.6,4.47-11.74,8.55-18.71,10.23c-6.18,1.49-12.65,1-19,0.77c-1.98-0.07-4.06-0.1-5.81,0.81c-2.22,1.15-3.46,3.52-5.06,5.43
		c-4.3,5.11-11.29,6.92-17.87,8c-13.57,2.23-27.45,2.52-41.1,0.86c-11.05-1.34-22.03-3.95-33.16-3.63
		c-8.04,0.24-16.05,2.01-24.06,1.28c-11.98-1.1-22.96-7.84-31.01-16.79s-13.43-19.98-17.66-31.24c-3.45-9.2-6.22-18.79-6.41-28.62
		c-0.19-9.82,2.41-19.96,8.71-27.5"/>
</g>
<g>
	<path class="st6" d="M1543.6,465.65c-8.27,5.98-16.54,11.95-24.81,17.93c1.37-14.18,2.05-30.68,1.15-49
		c-0.9-18.18-3.17-34.41-5.89-48.3c4.27-0.83,9.74-1.49,16.07-1.3c7.24,0.22,13.34,1.48,17.9,2.79
		C1546.55,413.72,1545.08,439.68,1543.6,465.65z"/>
	<path class="st7" d="M1568.33,426.69c-8.1,9.65-16.19,19.31-24.29,28.96c1.33-22.63,2.65-45.26,3.98-67.89
		c8.37-0.63,16.74-1.27,25.11-1.9C1571.53,399.47,1569.93,413.08,1568.33,426.69z"/>
	<path class="st8" d="M1549.54,387.33c-4.85-0.25-10.03-0.33-15.51-0.18c-8.41,0.23-16.15,0.98-23.11,1.99
		c-2.69-7.12-5.38-14.25-8.07-21.37c7.3-1.87,15.41-3.59,24.24-4.94c8.46-1.29,16.38-2.06,23.63-2.47
		C1550.33,369.35,1549.93,378.34,1549.54,387.33z"/>
	<path class="st8" d="M1574.66,385.12c-3.58,0.13-7.26,0.33-11.04,0.62c-5.23,0.4-10.26,0.92-15.08,1.55
		c0.72-8.81,1.44-17.62,2.16-26.43c4.55,0.26,9.56,0.8,14.94,1.76c4.28,0.77,8.25,1.71,11.89,2.73
		C1576.57,371.94,1575.62,378.53,1574.66,385.12z"/>
	<path class="st9" d="M1826.48,680.24c-47.2,3.6-94.41,7.21-141.61,10.81c5.37-46.48,10.75-92.95,16.12-139.43
		c53.91-4.31,107.81-8.62,161.72-12.93c-2.34,24.13-6.93,52.44-15.67,83.39C1840.9,643.86,1833.74,663.3,1826.48,680.24z"/>
	<path class="st10" d="M1687.9,691.18c-64.86-3.51-129.72-7.02-194.57-10.53c-3.88-21.23-6.99-45.9-7.96-73.42
		c-1.06-30.08,0.68-57.01,3.5-79.92c15.51-16.14,31.16-32.8,46.89-49.99c19.31-21.11,37.82-42,55.57-62.63
		c19.64,28.97,42.82,59.75,70.16,91.16c14.35,16.49,28.65,31.78,42.68,45.91c1.2,27.39-0.14,50.44-1.96,67.98
		c-2.74,26.32-7,44.45-8.27,49.69C1691.79,678.26,1689.62,685.67,1687.9,691.18z"/>
	<g>
		<g>
			<path class="st11" d="M1720.5,540.46c-4.23,5.15-8.46,10.31-12.69,15.46c-4.12-2.06-10.82-5.62-18.54-10.82
				c-20.29-13.69-34.88-30.16-68.56-80.08c-8.13-12.05-18.77-28.13-30.95-47.4c0.1-10.01,0.21-20.01,0.31-30.02
				C1633.54,438.56,1677.02,489.51,1720.5,540.46z"/>
			<path class="st12" d="M1881.39,523.5c-19.98,6.67-45.21,13.24-74.81,16.74c-33.8,4-63.22,2.81-86.09,0.23
				c-20.88-13.87-47.86-34.88-74.21-65.31c-27.98-32.33-45.45-63.96-56.22-87.55c63.43-0.89,126.87-1.78,190.3-2.67
				c11.22,23.02,26.59,49.98,47.62,78.16C1846.23,487.54,1864.73,507.53,1881.39,523.5z"/>
		</g>
		<g>
			<path class="st11" d="M1589.75,417.62c-11.64,15.55-21.6,28.09-28.64,36.78c-44.59,55.06-63.41,68.46-75.39,75.77
				c-11.44,6.98-21.47,11.35-27.63,13.8c-3.44-5.16-6.89-10.31-10.33-15.47c21.19-11.12,48.74-28.39,76.47-54.7
				c32.84-31.15,53.42-63.11,65.84-86.2C1589.96,397.61,1589.86,407.62,1589.75,417.62z"/>
			<path class="st11" d="M1871.61,541.08c-20.83,4.43-43.75,8.29-68.55,11.01c-34.96,3.83-66.99,4.64-95.26,3.83
				c4.23-5.15,8.46-10.31,12.69-15.46c24.81,0.88,53.53,0.31,85.23-3.27c28.28-3.19,53.65-8.17,75.67-13.7
				C1878.13,529.36,1874.87,535.22,1871.61,541.08z"/>
		</g>
	</g>
	
		<rect x="1560.26" y="564.47" transform="matrix(0.999 0.0438 -0.0438 0.999 28.8144 -69.1853)" class="st13" width="66" height="117"/>
	
		<rect x="1572.4" y="577.54" transform="matrix(0.999 0.0438 -0.0438 0.999 27.6807 -69.3038)" class="st14" width="46" height="39"/>
	
		<rect x="1573.1" y="627.49" transform="matrix(0.999 0.0438 -0.0438 0.999 29.9757 -69.1528)" class="st15" width="40" height="44"/>
	
		<rect x="1579.1" y="635.49" transform="matrix(0.999 0.0438 -0.0438 0.999 29.9757 -69.1528)" class="st15" width="28" height="28"/>
	
		<rect x="1565.55" y="477.28" transform="matrix(0.999 0.0438 -0.0438 0.999 23.5266 -69.226)" class="st16" width="52" height="50"/>
	<rect x="1576.5" y="489.3" transform="matrix(0.999 0.0438 -0.0438 0.999 23.5718 -69.245)" class="st17" width="31" height="28"/>
	<rect x="1576.5" y="498.3" transform="matrix(0.999 0.0438 -0.0438 0.999 23.5718 -69.245)" class="st16" width="31" height="10"/>
	<path class="st16" d="M1817.16,630.28c-24.41,1.27-48.82,2.53-73.24,3.8l2.72-61.94c24.04-0.28,48.07-0.56,72.11-0.84
		C1818.21,590.96,1817.68,610.62,1817.16,630.28z"/>
	<path class="st14" d="M1810.38,624.98c-19.71,0.47-39.41,0.94-59.12,1.41c1.02-15.64,2.04-31.27,3.06-46.91
		c18.71-0.51,37.41-1.03,56.12-1.54C1810.42,593.62,1810.4,609.3,1810.38,624.98z"/>
	
		<ellipse transform="matrix(0.9999 -0.0101 0.0101 0.9999 -6.0112 18.041)" class="st16" cx="1781.79" cy="603.71" rx="40.36" ry="6.35"/>
	
		<ellipse transform="matrix(0.0488 -0.9988 0.9988 0.0488 1093.942 2353.1052)" class="st16" cx="1782.35" cy="602.23" rx="32.54" ry="7.07"/>
</g>
<g>
	<path class="st18" d="M1651.87,694.03c0.06-13.34,9.68-25.53,21.95-30.79s26.56-4.29,39.06,0.37c12.5,4.66,23.44,12.74,33.47,21.54
		c12.31-16.39,34.81-24.39,54.7-19.44c2.03,0.5,4.06,1.13,6.15,1.15c6.45,0.05,11.35-5.45,15.9-10.04
		c11.36-11.44,26.51-19.68,42.62-20.39c16.1-0.71,32.91,7.02,40.86,21.05c5.7,10.07,6.49,22.09,7.15,33.65
		c1.19,20.94,2.15,43.05-7.52,61.65c-13.71,26.37-44.99,38.42-74.4,42.74c-39.68,5.83-82.71,0.77-114.98-23.05
		c-14.9-11-26.94-25.52-41.93-36.41c-7.33-5.33-15.49-9.89-20.99-17.1c-5.5-7.21-7.46-18.22-1.51-25.05"/>
</g>
<g>
	<g>
		<path class="st18" d="M315.25,584.08c-0.65-11.01,2.94-22.33,9.28-29.23s15.25-9.19,23.01-5.91c-0.52-4.63,1.49-9.28,4.3-11.98
			s6.28-3.79,9.69-4.43c7.09-1.33,14.35-0.98,21.36,1.02c4.73-11.16,14.83-16.37,24.3-16.35c9.47,0.03,18.6,4.36,27.65,8.18
			c1.76,0.74,3.61,1.47,5.41,0.95c1.27-0.37,2.4-1.35,3.54-2.21c11.06-8.39,25.87-6.45,35.55,4.66c1.91,2.19,3.76,4.79,6.2,5.52
			c2.91,0.87,5.8-1.15,8.65-2.27c7.28-2.85,15.45,0.35,21.18,7.11s9.12,16.69,10.27,26.88c0.55,4.92,0.6,10.09-0.76,14.71
			c-3.09,10.53-12.12,14.97-20.22,17.63c-55.54,18.23-113.67,9.23-170.5,1.19c-4.39-0.62-8.94-1.31-12.71-4.42
			c-3.77-3.12-6.5-9.41-5.17-15.13"/>
	</g>
	<g>
		<path class="st18" d="M156.58,638.68c-2.25-7.4-3.53-15.58-0.58-22.73c2.95-7.15,11.39-12.46,18.58-9.61
			c-2.52-8.13-4.83-16.85-2.55-25.05c2.29-8.2,10.95-15.22,19.06-12.62c-5.15-6.02-6.32-15.15-2.86-22.28s11.36-11.86,19.28-11.54
			c2.93,0.12,6.24,0.76,8.5-1.11c1.05-0.87,1.66-2.13,2.33-3.31c7.13-12.52,25.33-17.07,37.52-9.39
			c7.83-10.85,24.41-14.12,35.77-7.05c0.97,0.61,1.94,1.29,3.05,1.54c1.31,0.3,2.68-0.02,4-0.3c7.81-1.63,16.21-1.59,23.45,1.77
			c7.23,3.36,13.01,10.48,13.26,18.45c0.03,1.1,0,2.3,0.67,3.18c1.23,1.6,3.71,0.97,5.71,0.62c4.9-0.84,10.2,1.37,13.04,5.46
			c2.84,4.08,3.07,9.82,0.57,14.12c7.88,0.59,15.38,5.03,19.68,11.66c4.3,6.63,5.31,15.29,2.63,22.73
			c7.52-0.96,14.95,4.53,17.53,11.66c2.58,7.13,0.9,15.31-3.08,21.76c-3.99,6.45-10.04,11.37-16.45,15.42
			c2.64,1.19,0.69,5.25-1.68,6.91c-11.95,8.37-27.69,7.8-42.26,8.56c-26.72,1.39-52.86,8.29-79.49,10.85
			c-8.8,0.85-17.73,1.22-26.44-0.29c-10.12-1.75-19.62-5.95-29-10.12c-13.5-6-27-11.99-40.5-17.99"/>
	</g>
	<g>
		<path class="st18" d="M-6.37,712.73c22.94,19.89,56.16,21.77,86.47,20.05c20.16-1.14,40.25-3.43,60.15-6.85
			c41.44-7.13,82.49-19.38,118.43-41.2c8.53-5.18,17.81-13.2,16.08-23.03c-1.06-6.04-6.06-10.48-10.76-14.41
			c2.96-6.77,2-14.75-0.96-21.52c-2.96-6.77-7.76-12.55-12.61-18.12c-1.35-1.56-2.76-3.2-3.2-5.22c-0.51-2.39,0.44-4.81,0.95-7.2
			c2.31-10.81-4.92-21.84-14.42-27.49c-9.5-5.64-20.84-7.09-31.81-8.42c-2.38-17.1-17.76-31.48-34.99-32.7
			c-5.72-0.4-11.45,0.49-17.18,0.77c-15.1,0.75-30.2-2.71-45.28-1.56c-15.07,1.15-31.36,8.71-35.83,23.15
			c-13.75-4.32-28.89,1.42-40.28,10.24c-3.08,2.38-6,5.01-9.39,6.92c-3.55,2.01-7.52,3.17-11.19,4.96
			c-10.4,5.06-18.1,15.34-20.03,26.75c-1.93,11.41,1.96,23.65,10.13,31.84c-6.89,3.65-10.86,11.68-10.67,19.48s4.12,15.2,9.71,20.63
			c0.83,0.81,1.77,1.75,1.72,2.91c-0.06,1.25-1.24,2.1-2.24,2.84c-7.14,5.29-10.8,14.88-8.99,23.57s8.98,16.04,17.63,18.05"/>
	</g>
	<path class="st19" d="M1927,1080H-3V644c75.77-35.06,192.61-78.88,338.76-91c243.46-20.19,429.92,59.01,506.62,88
		c205.8,77.79,538.17,140.58,1081.6,52C1924.99,822,1925.99,951,1927,1080z"/>
</g>
<g>
	<path class="st18" d="M1429.12,648.94c-0.59-5.12,2.86-10.42,7.78-11.96c4.92-1.53,10.77,0.87,13.19,5.42
		c2.66-3.92,5.68-8.08,10.21-9.46c5.75-1.76,12.56,2.48,13.52,8.42c2.76-3.12,5.79-6.4,9.83-7.39c4.05-0.99,9.21,1.6,9.18,5.77
		c2.81-6.67,10.25-11.07,17.45-10.33c7.2,0.74,13.58,6.56,14.98,13.67c0.38,1.93,0.68,4.28,2.49,5.05c0.93,0.4,2,0.21,3,0.31
		c2.2,0.22,4.16,2,4.59,4.17c0.43,2.17-0.69,4.56-2.64,5.61c1.78,3.92,3.22,8,4.3,12.16c0.45,1.75,0.74,3.9-0.6,5.11
		c-1.18,1.07-3.18,0.91-4.26,2.08c-0.94,1.01-0.81,2.61-1.42,3.85c-0.91,1.86-3.19,2.52-5.21,2.99c-8.94,2.05-17.89,4.1-26.83,6.16
		c-1.9,0.44-3.89,0.87-5.78,0.38c-1.27-0.33-2.41-1.07-3.68-1.43c-3.51-1-7.08,1-10.39,2.55s-7.63,2.55-10.29,0.05
		c-1.04-0.98-1.73-2.44-3.06-2.95c-1.57-0.6-3.25,0.37-4.87,0.83c-6.7,1.9-12.52-4.91-19.21-6.86c-4.71-1.37-10.08-0.33-14.35-2.73
		c-5.51-3.11-6.71-10.37-7.32-16.66c-0.21-2.14-0.38-4.44,0.69-6.3c1.1-1.92,3.24-2.93,5.01-4.26s3.31-3.6,2.46-5.64"/>
</g>
<g>
	<path class="st18" d="M1377.12,648.94c-0.59-5.12,2.86-10.42,7.78-11.96c4.92-1.53,10.77,0.87,13.19,5.42
		c2.66-3.92,5.68-8.08,10.21-9.46c5.75-1.76,12.56,2.48,13.52,8.42c2.76-3.12,5.79-6.4,9.83-7.39c4.05-0.99,9.21,1.6,9.18,5.77
		c2.81-6.67,10.25-11.07,17.45-10.33c7.2,0.74,13.58,6.56,14.98,13.67c0.38,1.93,0.68,4.28,2.49,5.05c0.93,0.4,2,0.21,3,0.31
		c2.2,0.22,4.16,2,4.59,4.17c0.43,2.17-0.69,4.56-2.64,5.61c1.78,3.92,3.22,8,4.3,12.16c0.45,1.75,0.74,3.9-0.6,5.11
		c-1.18,1.07-3.18,0.91-4.26,2.08c-0.94,1.01-0.81,2.61-1.42,3.85c-0.91,1.86-3.19,2.52-5.21,2.99c-8.94,2.05-17.89,4.1-26.83,6.16
		c-1.9,0.44-3.89,0.87-5.78,0.38c-1.27-0.33-2.41-1.07-3.68-1.43c-3.51-1-7.08,1-10.39,2.55s-7.63,2.55-10.29,0.05
		c-1.04-0.98-1.73-2.44-3.06-2.95c-1.57-0.6-3.25,0.37-4.87,0.83c-6.7,1.9-12.52-4.91-19.21-6.86c-4.71-1.37-10.08-0.33-14.35-2.73
		c-5.51-3.11-6.71-10.37-7.32-16.66c-0.21-2.14-0.38-4.44,0.69-6.3c1.1-1.92,3.24-2.93,5.01-4.26s3.31-3.6,2.46-5.64"/>
</g>
</svg>
