<?xml version="1.0" encoding="utf-8"?>
<!-- Generator: Adobe Illustrator 23.0.5, SVG Export Plug-In . SVG Version: 6.00 Build 0)  -->
<svg version="1.1" id="圖層_1" xmlns="http://www.w3.org/2000/svg" xmlns:xlink="http://www.w3.org/1999/xlink" x="0px" y="0px"
	 viewBox="0 0 1920 1080" style="enable-background:new 0 0 1920 1080;" xml:space="preserve">
<style type="text/css">
	.st0{fill:#FDFAEC;}
	.st1{fill:#FBC990;}
	.st2{fill:#261630;}
	.st3{fill:#FBFDFB;}
	.st4{fill:#522537;}
	.st5{fill:#FCFBF7;}
	.st6{fill:#F7C485;stroke:#CD7D58;stroke-miterlimit:10;}
	.st7{fill:#FC9F72;}
	.st8{fill:#C57B52;}
	.st9{fill:#2A182D;}
	.st10{fill:#F5F6D4;}
	.st11{fill:#D07C54;}
	.st12{fill:#D8B564;}
	.st13{fill:#CBAB52;}
</style>
<g>
	<path class="st0" d="M1242.48,1036.89c-20.77-122.55-41.8-139.86-50.8-195.3c-0.78-4.8-2.92-18.87-12.91-30.91
		c-11.57-13.96-27.87-18.2-38.72-19.67c-92.92-0.94-185.85-1.87-278.77-2.81c-10.61,4.4-25.05,12.53-36.14,28.1
		c-8.44,11.85-11.64,23.39-12.91,28.1c-43.74,162.94-46.46,182.67-46.46,182.67c-0.36,2.61-0.72,5.24-1.09,7.87
		C923.85,1042.53,1083.38,1047.49,1242.48,1036.89z"/>
	<g>
		<path class="st1" d="M1056.44,886.55h-101.2c-17.67,0-32-14.33-32-32V791h165.2v63.55
			C1088.44,872.22,1074.11,886.55,1056.44,886.55z"/>
		<path class="st1" d="M1292.35,563.37C1258.03,710,1134.69,806.35,1011,816.29c-25.58,2.06-133.59,7.04-221.98-81.5
			c-7.69-7.71-91.69-94.47-92.92-224.82c-1.76-185.16,164.34-365.92,332.97-356.91c99.1,5.3,166.77,74.41,185.85,95.55
			C1289.15,330.9,1318.3,452.5,1292.35,563.37z"/>
		<path class="st1" d="M1364.62,602.71c-15.78,60.71-106.16,80.13-126.48,56.21c-9.94-11.7-2.32-37.78,12.91-89.93
			c15.7-53.75,23.55-80.63,38.72-84.31C1319.11,477.56,1379.72,544.65,1364.62,602.71z"/>
		<path class="st1" d="M608.81,616.76c16.6,58.74,107.01,79.7,126.48,56.21c7.57-9.13,1.07-20.95-12.91-89.93
			c-15.51-76.56-13.45-91.35-23.71-95.55C671.6,476.39,590.54,552.08,608.81,616.76z"/>
		<path class="st2" d="M918.08,285.15c-17.55,2.09-46.74,8.15-77.44,28.1c-19.88,12.92-34.23,27.65-43.88,39.34
			c4.3,10.3,8.6,20.61,12.91,30.91c10.06-9.52,29.08-24.98,56.79-33.72c23.73-7.49,44.18-6.99,56.79-5.62
			C921.52,324.49,919.8,304.82,918.08,285.15z"/>
		<path class="st2" d="M1070.37,285.15c14.41-0.79,49.23-0.55,85.18,22.48c25.91,16.6,41.26,37.91,49.04,50.59
			c-3.44,8.43-6.88,16.86-10.32,25.29c-15.36-11.08-39.79-25.71-72.27-33.72c-22.22-5.48-41.81-6.28-56.79-5.62
			C1066.93,324.49,1068.65,304.82,1070.37,285.15z"/>
		<path class="st3" d="M925.82,535.26c-28.39,1.87-56.79,3.75-85.18,5.62c-6.62-10.28-16.03-28.37-18.07-52.59
			c-3.05-36.24,13.4-63.89,22.52-77.06c7.05-10.18,17.25-16.88,28.53-18.71c0.12-0.02,0.24-0.04,0.36-0.06
			c14.81-2.41,29.83,3.72,39.54,16.65c12.94,17.24,23.09,46.44,21.82,79.18C934.94,498.8,933.16,515.59,925.82,535.26z"/>
		<path class="st3" d="M1168.45,538.08c-33.56,0-67.11,0-100.67,0c-6.59-20.87-7.76-38.48-7.75-49.78
			c0.04-30.61,10.34-59.47,22.52-77.06c7.05-10.18,17.25-16.88,28.53-18.71c0.12-0.02,0.24-0.04,0.36-0.06
			c14.81-2.41,29.83,3.72,39.54,16.65c18.09,24.09,21.41,62.51,21.82,79.18C1173.11,500.42,1172.54,517.63,1168.45,538.08z"/>
		<path class="st4" d="M902.59,557.75c-14.63-0.94-29.25-1.87-43.88-2.81c-4.88-7.65-14.11-24.42-15.49-47.77
			c-1.43-24.23,6.29-43.6,12.91-55.54c5.05-9.11,14.11-14.87,23.88-14.92c1.44-0.01,2.95,0.06,4.5,0.2
			c0.08,0.01,0.16,0.02,0.24,0.02c10.83,1.09,20.03,9.12,23.83,20.22c4.4,12.84,8.5,31.11,6.9,52.82
			C913.91,531.49,907.37,547.98,902.59,557.75z"/>
		<path class="st4" d="M1140.06,557.75c-14.63-0.94-29.25-1.87-43.88-2.81c-4.88-7.65-14.11-24.42-15.49-47.77
			c-1.43-24.23,6.29-43.6,12.91-55.54c5.05-9.11,14.11-14.87,23.88-14.92c1.44-0.01,2.95,0.06,4.5,0.2
			c0.08,0.01,0.16,0.02,0.24,0.02c10.83,1.09,20.03,9.12,23.83,20.22c4.4,12.84,8.5,31.11,6.9,52.82
			C1151.38,531.49,1144.84,547.98,1140.06,557.75z"/>
		<ellipse class="st5" cx="875.49" cy="465.01" rx="14.2" ry="16.86"/>
		<ellipse class="st5" cx="1115.54" cy="463.6" rx="14.2" ry="15.46"/>
		<ellipse class="st6" cx="998.09" cy="576.01" rx="49.04" ry="49.18"/>
		<ellipse class="st7" cx="836.77" cy="581.63" rx="45.17" ry="35.13"/>
		<ellipse class="st7" cx="1173.62" cy="574.61" rx="41.3" ry="39.34"/>
		<g>
			<g>
				<path class="st8" d="M910.89,675.55c12.51,8.96,27.37,13.7,42.41,16.25c16.08,2.73,32.62,3.77,48.92,3.5
					c16.9-0.28,33.86-2.36,50.09-7.18c13.62-4.05,26.69-10.09,38.42-18.13c11.75-8.05,22.13-18.05,30.29-29.74
					c1.03-1.48,2.03-2.99,2.99-4.52c1.03-1.64-1.56-3.15-2.59-1.51c-7.47,11.89-17.26,22.25-28.54,30.58
					c-11.01,8.13-23.33,14.45-36.3,18.82c-15.63,5.27-32.05,7.82-48.5,8.51c-16.15,0.68-32.53-0.16-48.54-2.39
					c-14.81-2.06-29.65-5.82-42.5-13.71c-1.58-0.97-3.12-2-4.63-3.08C910.83,671.83,909.33,674.44,910.89,675.55L910.89,675.55z"/>
			</g>
		</g>
		<g>
			<path class="st9" d="M1204.01,301.29c12.03,12.17,22.09,26.65,29.58,42.56c1.17,2.48,2.59,5.28,5.09,5.88
				c2.83,0.68,5.58-2.07,6.26-5.14c0.68-3.07-0.15-6.26-1.04-9.27c-3.37-11.41-7.63-22.51-12.74-33.12c-2.04-4.24-5-8.94-9.39-9.02
				c-6.56-0.12-9.08,9.52-14.62,13.34c6.95,7.23,13.91,14.47,20.86,21.7"/>
		</g>
		<g>
			<path class="st9" d="M1036.81,268.29c-24.41,0.1-57.68-2.54-95.5-14.05c-33.46-10.18-60.34-24.23-80.02-36.53
				c2.58-26.23,5.16-52.46,7.74-78.69c62.81,5.62,125.62,11.24,188.43,16.86C1050.58,193.35,1043.7,230.82,1036.81,268.29z"/>
			<path class="st9" d="M1235.56,310.44c-63.67-14.05-127.34-28.1-191.01-42.15c0-37.47,0-74.94,0-112.41
				c59.37,16.86,118.73,33.72,178.1,50.59C1226.96,241.12,1231.26,275.78,1235.56,310.44z"/>
			<path class="st9" d="M734.81,583.04c-9.46-18.74-18.93-37.47-28.39-56.21c-4.87-12.38-12.54-36.59-10.32-67.45
				c3.06-42.62,23.07-71.27,30.97-81.5c8.6-14.99,17.21-29.98,25.81-44.96C746.86,416.3,740.84,499.67,734.81,583.04z"/>
			<path class="st9" d="M1238.15,583.04c9.47-9.55,25.22-27.95,35.74-56.21c11.05-29.67,10.65-54.9,10.32-67.45
				c-1.03-40.08-14.16-70.61-22.84-87.12c-11.19-21.55-22.37-43.09-33.56-64.64C1231.26,399.43,1234.7,491.24,1238.15,583.04z"/>
			<g>
				<path class="st9" d="M748.44,357.38c32.02-51,70.76-96.98,114.67-136.1c3.83-3.41,8.05-7.5,8.12-12.89
					c0.11-7.73-8.9-12.31-15.76-10.28c-6.86,2.02-11.93,8.1-17.11,13.4c-15.95,16.32-35.94,27.17-52.79,42.37
					c-21.47,19.36-37.15,45.09-52.51,70.43c-1.05,1.72-2.12,3.91-1.24,5.74c0.57,1.17,1.78,1.77,2.9,2.29
					c7.18,3.29,14.35,6.59,21.53,9.88"/>
			</g>
		</g>
		<path class="st9" d="M1300.09,414.42c-12.05-0.94-24.09-1.87-36.14-2.81c-20.65-54.33-41.3-108.66-61.95-163
			c19.79,17.8,39.58,35.6,59.37,53.4C1274.28,339.48,1287.19,376.95,1300.09,414.42z"/>
		<path class="st10" d="M1325.91,363.84c-1.8-77.05-41.3-132.65-59.37-157.38c-56.55-77.41-179.38-175.79-330.39-148.95
			c-48.06,8.54-92.3,28.6-130.79,55.95l23.22-34.34L807.8,62.47l-35.6,52.64c-26.84-12.4-36.51-15.19-45.13-9.81
			c-0.61,0.38-7.79,5.01-10.32,14.05c-3.64,12.97,3.79,29.58,15.94,41.73c-26.1-1.49-55.62,11.77-57.24,28.53
			c-1.12,11.61,11.18,24.53,27.7,33c-29.36,47.32-46.71,98.91-48.35,146.86c-1.86,54.28,15.83,120.88,28.39,120.84
			c8.65-0.02,10.76-31.6,28.39-78.69c22.39-59.82,52.66-98.87,69.69-120.84c26.65-34.38,59.36-76.59,113.57-103.98
			c68.33-34.52,157.69-38.88,234.89,2.81c74.62,40.3,109.72,108.4,118.74,126.46c41.42,83,31.33,159.43,46.46,160.19
			C1308.02,476.9,1327.23,420.33,1325.91,363.84z"/>
		<g>
			<path class="st11" d="M698.87,593.58c2.14-6.04-0.97-13.13-5.81-16.9s-10.96-4.9-16.89-5.48c-7.9-0.77-15.87-0.75-23.77,0.07
				c-1.6,0.17-3.38,0.32-4.67-0.72c-2.67-2.15-0.86-6.9,1.71-9.18c5.11-4.52,12.13-5.64,18.69-5.13
				c12.38,0.98,25.04,8.17,29.93,20.59c2.83,7.17,2.85,15.23,4.19,22.89c2.41,13.8,9.07,26.22,15.63,38.32"/>
			<g>
				<path class="st11" d="M700.31,593.98c1.92-5.71-0.17-12.04-4.1-16.4c-4.27-4.74-10.68-6.65-16.81-7.5
					c-7.32-1.01-14.79-1.17-22.16-0.71c-1.74,0.11-3.48,0.28-5.22,0.44c-1.35,0.12-3.24,0.34-3.92-1.15
					c-0.96-2.08,0.93-4.89,2.4-6.23c4.59-4.17,11.28-5.12,17.25-4.71c5.57,0.38,11.07,2.08,15.89,4.89
					c4.9,2.86,9.06,6.93,11.74,11.96c3.24,6.08,3.79,13.09,4.61,19.8c0.98,7.99,2.94,15.61,6.02,23.06
					c3.04,7.36,6.79,14.38,10.58,21.38c0.92,1.7,3.51,0.19,2.59-1.51c-7.04-13-13.95-26.23-15.95-41.08
					c-0.97-7.15-1.34-14.48-4.29-21.17c-2.39-5.43-6.41-9.99-11.24-13.39c-9.49-6.69-23.59-9.62-34.42-4.57
					c-2.69,1.26-5.35,3.11-6.9,5.7c-1.33,2.21-2.13,5.27-0.72,7.64c1.77,2.97,5.28,2.48,8.2,2.21c4.03-0.37,8.08-0.53,12.13-0.49
					c4.21,0.05,8.44,0.28,12.62,0.83c3.76,0.5,7.59,1.36,10.94,3.2c5.89,3.23,10.15,10.26,7.87,17.01
					C696.8,595.02,699.7,595.8,700.31,593.98L700.31,593.98z"/>
			</g>
		</g>
		<g>
			<path class="st11" d="M1266.18,590.59c-1.83-18.71,10.04-37.92,26.65-43.11s36.04,4.23,43.6,21.15
				c-12.17,0.69-24.44-0.73-36.53,0.99s-24.52,7.28-31.07,18.48"/>
		</g>
	</g>
	<g>
		<path class="st12" d="M1161.88,1041.04c-6.41-35.57-12.82-71.14-19.24-106.71c-7.48,9.62-56.6,70.69-139.38,73.07
			c-86.65,2.48-139.94-61.35-147.13-70.26c-4.39,33.75-8.77,67.5-13.16,101.26C949.24,1042.66,1055.62,1044.84,1161.88,1041.04z"/>
	</g>
	<path class="st13" d="M895.15,1040.3c2.52-45.57,4.19-92.13,4.86-139.7c0.46-32.36,0.44-64.22,0-95.55
		c-4.22-4.93-21.21-23.75-38.72-19.67c-7.32,1.71-13.48,7.69-25.81,19.67c-7.87,7.65-13.93,14.61-18.07,19.67
		c-20.51,60.83-40.3,131.15-55.92,210.05C806.02,1036.91,850.57,1038.85,895.15,1040.3z"/>
	<path class="st13" d="M1253.75,1036.13c-15.19-90.86-39.52-166.06-62.06-222.65c-10.9-7.98-32.69-21.33-61.95-22.48
		c-10.94-0.43-20.56,0.94-28.39,2.81c6.37,82.79,12.74,165.59,19.12,248.38C1164.91,1041.22,1209.35,1039.3,1253.75,1036.13z"/>
</g>
</svg>
