<?xml version="1.0" encoding="utf-8"?>
<!-- Generator: Adobe Illustrator 23.0.5, SVG Export Plug-In . SVG Version: 6.00 Build 0)  -->
<svg version="1.1" id="圖層_1" xmlns="http://www.w3.org/2000/svg" xmlns:xlink="http://www.w3.org/1999/xlink" x="0px" y="0px"
	 viewBox="0 0 1920 1080" style="enable-background:new 0 0 1920 1080;" xml:space="preserve">
<style type="text/css">
	.st0{fill:#E8BA8B;}
	.st1{fill:#F4C690;}
	.st2{fill:#737978;}
	.st3{fill:#BA4326;}
	.st4{fill:#E0A46F;}
	.st5{fill:#C5DCDC;}
	.st6{fill:#1F0D0D;}
	.st7{fill:#473D46;}
	.st8{fill:#A1F0F0;}
	.st9{fill:#EA6022;}
</style>
<path class="st0" d="M1115.55,832.56c-59.62-1.14-119.23-2.29-178.85-3.43c-10.11-64.63-20.23-129.26-30.34-193.88
	c69.73,0,139.46,0,209.19,0V832.56z"/>
<path class="st1" d="M1257.67,381.31c-13.13-12.87-39-12.42-52.7,0c-1.06,0.96-1.98,1.94-2.79,2.97
	c0.47-45.77-0.56-101.67-5.19-165.97c-11.79-12.9-89.51-95.18-204.4-85.79c-70.39,5.76-119.21,43.02-138.93,60.05
	c-13.61,43.63-28.85,108.05-30.61,186.91c-14.12-10.58-37.99-10.37-50.44,1.83c-25.33,24.82-6.16,102.04,35.13,135.55
	c4.09,3.32,19.04,15.45,28.91,13.26c4.21,20.51,9,39.05,13.81,55.37c13,20.08,38.18,53.07,79.84,77.21
	c9.32,5.4,35.15,19.44,62.28,24.02c89.14,15.05,166.55-76.44,175.65-87.5c3.37-8.35,8.06-20.73,12.77-36.03
	c3.64-11.83,6.62-23.28,9.09-34.68c0.16,0.12,0.32,0.25,0.49,0.36c9.5,6.2,27.4-8.33,31.94-12.01
	C1263.83,483.35,1283,406.13,1257.67,381.31z"/>
<path class="st2" d="M1166.65,336.7c-34.07-4-68.13-8.01-102.2-12.01c-2.47-2.83-5.77-7.36-7.98-13.73
	c-4.62-13.29-1.29-25.22,0-29.17c10.27,3.66,21.47,7.17,33.53,10.29c15.41,3.99,29.88,6.72,43.11,8.58
	C1144.3,312.68,1155.47,324.69,1166.65,336.7z"/>
<path class="st2" d="M851.3,336.7c34.07-4,68.13-8.01,102.2-12.01c2.47-2.83,5.77-7.36,7.98-13.73c4.62-13.29,1.29-25.22,0-29.17
	c-10.27,3.66-21.47,7.17-33.53,10.29c-15.41,3.99-29.88,6.72-43.11,8.58C873.65,312.68,862.48,324.69,851.3,336.7z"/>
<g>
	<g>
		<path class="st3" d="M957.46,485.12c-3.09,9.73,2.61,19.35,10.29,25.01c8.04,5.93,18.35,9.02,28.15,10.31
			c10.05,1.32,20.39,0.57,30.14-2.25c4.69-1.36,9.34-3.16,13.6-5.56c3.93-2.22,7.75-5.23,9.8-9.35c2.71-5.45,1.86-11.7,1.47-17.55
			c-0.45-6.78-0.9-13.57-1.35-20.35c-0.13-1.92-3.13-1.93-3,0c0.37,5.54,0.74,11.08,1.11,16.63c0.18,2.69,0.37,5.39,0.54,8.08
			c0.16,2.52,0.3,5.1-0.1,7.6c-1.48,9.24-11.31,13.68-19.2,16.44c-17.63,6.17-38.55,5.35-55.08-3.72c-4.42-2.42-8.58-5.65-11.24-10
			c-2.65-4.34-3.77-9.58-2.2-14.51C960.94,484.07,958.05,483.28,957.46,485.12L957.46,485.12z"/>
	</g>
</g>
<g>
	<g>
		<path class="st3" d="M928.44,547.18c19.29,12.13,41.21,19.69,63.82,22.4c22.3,2.67,45.2,0.53,66.59-6.32
			c12.2-3.9,23.91-9.33,34.75-16.16c1.63-1.03,0.13-3.62-1.51-2.59c-18.92,11.92-40.47,19.47-62.68,22.1
			c-21.93,2.59-44.36,0.53-65.41-6.19c-11.97-3.82-23.41-9.14-34.04-15.83C928.31,543.56,926.81,546.15,928.44,547.18L928.44,547.18
			z"/>
	</g>
</g>
<g>
	<g>
		<path class="st3" d="M997.66,591.51c8.97,0,17.94,0,26.91,0c1.93,0,1.93-3,0-3c-8.97,0-17.94,0-26.91,0
			C995.73,588.51,995.72,591.51,997.66,591.51L997.66,591.51z"/>
	</g>
</g>
<g>
	<g>
		<path class="st4" d="M894.72,251.8c12.51-8.01,26.57-13.44,41.26-15.76c15.88-2.5,31.9-0.62,47.72,1.4
			c16.44,2.1,32.89,3.59,49.47,3.73c8.11,0.07,16.22-0.15,24.31-0.61c7.18-0.41,14.36-0.94,21.54-1.16
			c14.12-0.43,28.79,0.27,41.87,6.14c1.63,0.73,3.22,1.54,4.78,2.41c1.69,0.94,3.2-1.65,1.51-2.59c-12.74-7.09-27.31-9.05-41.7-9.06
			c-15.23-0.01-30.41,1.71-45.65,1.87c-16.82,0.17-33.61-0.9-50.29-2.98c-16.3-2.03-32.74-4.55-49.19-2.73
			c-14.9,1.65-29.38,6.41-42.39,13.86c-1.61,0.92-3.2,1.89-4.77,2.89C891.59,250.24,893.09,252.84,894.72,251.8L894.72,251.8z"/>
	</g>
</g>
<g>
	<g>
		<path class="st4" d="M888.33,288.24c13.26-8.23,28.09-13.76,43.52-16.12c16.8-2.58,33.74-0.66,50.48,1.41
			c17.31,2.14,34.62,3.67,52.07,3.82c8.59,0.07,17.18-0.15,25.76-0.62c7.64-0.42,15.27-0.97,22.91-1.19
			c14.93-0.44,30.42,0.27,44.3,6.32c1.7,0.74,3.36,1.56,4.99,2.44c1.7,0.92,3.22-1.67,1.51-2.59c-13.53-7.31-28.93-9.27-44.1-9.27
			c-16.17,0-32.29,1.77-48.47,1.91c-17.69,0.16-35.34-0.94-52.89-3.07c-17.15-2.07-34.44-4.63-51.74-2.79
			c-15.66,1.67-30.92,6.5-44.7,14.13c-1.74,0.97-3.46,1.98-5.15,3.03C885.18,286.66,886.69,289.26,888.33,288.24L888.33,288.24z"/>
	</g>
</g>
<g>
	<g>
		<path class="st3" d="M779.78,415.29c-1.7-6.15,4.14-11.86,10.04-12.05c3.72-0.12,7.29,1.24,10.51,3c2.46,1.34,6.93,3.42,7,6.72
			c0.05,1.93,3.05,1.93,3,0c-0.11-4.4-4.31-6.91-7.7-8.87c-3.98-2.29-8.56-4.12-13.24-3.83c-7.67,0.48-14.68,7.93-12.5,15.83
			C777.4,417.94,780.3,417.16,779.78,415.29L779.78,415.29z"/>
	</g>
</g>
<g>
	<g>
		<path class="st3" d="M819.19,393.32c-0.75,3.2-1.89,6.27-3.5,9.14c-1.59,2.85-3.58,5.45-5.46,8.11
			c-3.61,5.12-6.27,10.67-7.6,16.82c-2.64,12.15-0.51,24.8,4.94,35.88c3.03,6.16,7.07,11.8,11.74,16.83
			c1.32,1.42,3.43-0.71,2.12-2.12c-8-8.62-14.01-19.22-16.15-30.87c-1.09-5.95-1.1-12.17,0.07-18.1c1.17-5.9,3.54-11.26,6.96-16.2
			c2.02-2.92,4.23-5.73,5.97-8.84c1.72-3.09,2.99-6.41,3.8-9.85C822.52,392.24,819.63,391.44,819.19,393.32L819.19,393.32z"/>
	</g>
</g>
<g>
	<g>
		<path class="st3" d="M1198.97,397.71c2.4,15.92,1.93,32.29-1.37,48.05c-0.93,4.46-2.1,8.88-3.47,13.22
			c-0.58,1.85,2.31,2.63,2.89,0.8c4.97-15.72,7.1-32.34,6.27-48.81c-0.24-4.71-0.73-9.4-1.43-14.06
			C1201.57,395.01,1198.68,395.82,1198.97,397.71L1198.97,397.71z"/>
	</g>
</g>
<g>
	<g>
		<path class="st3" d="M1206.83,418.42c4.44-6.03,10.66-11.08,18.02-12.95c7.22-1.83,15.19-0.13,20.71,4.97
			c1.42,1.31,3.54-0.81,2.12-2.12c-4.79-4.43-11.19-6.73-17.7-6.56c-6.61,0.17-12.79,2.89-17.94,6.94c-2.99,2.35-5.55,5.15-7.8,8.2
			C1203.09,418.46,1205.7,419.96,1206.83,418.42L1206.83,418.42z"/>
	</g>
</g>
<path class="st5" d="M835.09,325.05c-9.16,14.18-18.31,28.36-27.47,42.53c-7.97-15.3-17.06-36.84-22.32-63.8
	c-8.3-42.56-3.06-78.27,1.72-99.25c10.22-13.24,25.77-30.11,48.07-44.31c60.7-38.66,128-29.92,128.75-24.81
	c0.81,5.54-74.28,22.15-99.57,54.94c-8.39,10.88-12.02,23.04-12.02,23.04c-4.65,15.6-2.37,28.89-1.72,33.67
	C852.68,262.64,851.21,286.94,835.09,325.05z"/>
<path class="st5" d="M916.99,141.1c-35.13,13.15-70.26,26.31-105.39,39.46c8.15-14.41,19.97-32.11,36.73-49.76
	c23.19-24.43,46.8-39.24,63.87-48.04c18.17-14.76,32.95-15.74,39.92-15.44c35.8,1.55,71.5,45.9,79.84,111.53
	c-7.75-9.03-29.84-32.33-65.47-39.46C945.37,135.16,927.64,138.25,916.99,141.1z"/>
<g>
	<g>
		<path class="st5" d="M892.52,468c2.97-6.63,9.49-9.98,16.13-12.04c3.87-1.2,7.84-2.03,11.78-2.92c4.8-1.08,9.61-2.11,14.47-2.92
			c5.57-0.93,11.2-1.54,16.85-1.64c-0.48-0.63-0.96-1.27-1.45-1.9c-0.86,3.24-3.39,5.65-6.44,6.92c-3.78,1.57-8.05,1.24-12.02,0.87
			c-9.08-0.86-18.12-1.21-27.23-0.66c-1.92,0.12-1.93,3.12,0,3c4.93-0.3,9.87-0.38,14.81-0.22c4.94,0.16,9.83,0.75,14.76,1.07
			c4.19,0.28,8.51,0.02,12.28-1.99c3.24-1.73,5.79-4.61,6.74-8.2c0.25-0.93-0.46-1.92-1.45-1.9c-10.45,0.18-20.76,2.13-30.93,4.4
			c-7.71,1.72-15.98,3.16-22.75,7.48c-3.51,2.24-6.43,5.29-8.14,9.11C889.15,468.23,891.73,469.76,892.52,468L892.52,468z"/>
	</g>
</g>
<g>
	<path class="st5" d="M903.35,52.28c11.65-15.84,32.27-19.69,51-21.24c17.25-1.42,35.93-1.45,50.09,9.22
		c12.8,9.65,19.3,26.09,25.12,41.68c12.11,32.43,24.21,66.27,22.22,101.16c-10.03,2.02-20.05,4.03-30.08,6.05
		c-2.11,0.42-4.34,0.84-6.34,0.02c-2.15-0.88-3.61-3.02-4.83-5.12c-9.25-16.02-11.16-35.57-17.36-53.2
		c-14.69-41.79-56.05-70.91-97.58-68.68c2.54-7.31,7.5-13.61,13.79-17.5"/>
</g>
<g>
	<path class="st5" d="M1014.2,31.36c31.06,4.47,55.03,30.54,76.44,55.12c21.95,25.21,43.9,50.41,65.85,75.62
		c1.31,1.51,2.85,3.13,4.77,3.17c1.09,0.02,2.13-0.48,3.19-0.75c3.18-0.81,6.47,0.5,9.48,1.89c20.47,9.48,38.97,23.84,53.78,41.75
		c3.55,4.29,6.95,8.91,8.7,14.34c1.48,4.6,1.7,9.53,1.89,14.39c0.72,18.34,1.27,36.68,1.65,55.03c0.19,9.07,0.33,18.19-0.99,27.15
		c-2.83,19.14-12.13,36.35-21.27,53.06c-2.43,4.44-5.46,9.35-10.19,10.15c-5.93,1.01-11.01-5.31-12.09-11.65
		c-1.08-6.34,0.47-12.82,0.72-19.26c0.75-19.63-10.48-37.15-20.8-53.37c-4.52-7.11-9.02-14.4-11.48-22.59
		c-6.33-21.04,1.56-44.72-4.76-65.77c-1.15-3.84-2.82-7.6-5.49-10.44c-2.7-2.87-6.25-4.61-9.77-6.17
		c-31.26-13.84-66.3-17.61-99.5-10.71c0.62-10.82,1.22-21.81-0.89-32.41c-1.85-9.31-5.73-17.98-9.29-26.69
		c-11.7-28.63-20.26-58.6-28.79-88.49c-0.64-2.26-0.94-5.4,1.09-6.32c0.95-0.43,2.04-0.12,3.02,0.22c4.96,1.72,9.74,4.03,14.23,6.87
		"/>
</g>
<path class="st6" d="M1209.77,360.72c-7.11-7.64-14.21-15.27-21.32-22.91c-0.27-2.62-0.55-5.27-0.88-7.98
	c-26.85-2.13-50.97-3.1-71.86-3.43c-22.76-0.37-38.28,0.07-55.89,8.58c-9.28,4.48-16.23,9.81-20.76,13.73
	c-1.34,4.42-2.99,10.66-4.29,18.27c-6.43-1.46-14.19-2.64-23.01-2.83c-9.39-0.2-17.67,0.79-24.57,2.15
	c-1.28-7.3-2.88-13.3-4.18-17.59c-4.53-3.92-11.48-9.24-20.76-13.73c-17.61-8.51-33.13-8.95-55.89-8.58
	c-20.89,0.34-45.01,1.3-71.86,3.43c-0.24,1.98-0.45,3.92-0.66,5.85c-7.77,8.34-15.53,16.69-23.3,25.03
	c1.6,8.58,3.19,17.16,4.79,25.74c5.42,1.94,10.84,3.88,16.26,5.82c0.25,8.21,0.74,15.46,1.3,21.63
	c1.43,15.72,3.64,28.31,11.18,41.18c7.15,12.21,16.22,19.76,22.36,24.02c7.41,4.62,18.85,10.26,33.53,12.01
	c34.83,4.15,60.71-16.83,67.07-22.31c6.28-9.76,14.62-25.39,19.16-46.33c2.11-9.72,3.02-18.94,3.19-27.48
	c5.37-1.74,12.43-3.31,20.76-3.41c9.14-0.1,16.82,1.61,22.52,3.47c0.18,8.52,1.09,17.72,3.19,27.42
	c4.54,20.93,12.89,36.57,19.16,46.33c6.36,5.47,32.24,26.46,67.07,22.31c14.68-1.75,26.13-7.39,33.53-12.01
	c6.13-4.26,15.2-11.81,22.36-24.02c7.53-12.86,9.75-25.46,11.18-41.18c0.58-6.33,1.07-13.79,1.32-22.26
	c4.83-1.73,9.66-3.46,14.49-5.19C1206.57,377.88,1208.17,369.3,1209.77,360.72z"/>
<g>
	<g>
		<path class="st5" d="M1161.17,169.78c10.22-16.49,26.29-29.39,44.98-34.89c10.23-3.01,21.75-4.19,31.55,0.84
			c8.61,4.42,14.96,12.34,19.29,20.84c5.84,11.47,8.32,24.32,10.81,36.84c0.38,1.89,3.27,1.09,2.89-0.8
			c-4.16-20.94-9.28-45.59-28.74-57.91c-9.83-6.22-21.55-6.34-32.58-3.77c-9.74,2.27-19.01,6.55-27.19,12.29
			c-9.47,6.65-17.5,15.2-23.59,25.04C1157.56,169.91,1160.15,171.42,1161.17,169.78L1161.17,169.78z"/>
	</g>
</g>
<g>
	<g>
		<path class="st5" d="M1185.52,169.48c-0.03-5.28,1.76-10.27,4.03-14.96c2.25-4.67,4.78-9.23,7.39-13.71
			c5.03-8.62,10.99-17.08,19.24-22.92c4.24-2.99,8.94-5.2,14.06-6.17c1.89-0.36,1.09-3.25-0.8-2.89
			c-9.75,1.85-18.16,8.03-24.57,15.39c-7.16,8.23-12.57,18.05-17.42,27.77c-2.73,5.47-4.96,11.28-4.93,17.48
			C1182.53,171.41,1185.53,171.41,1185.52,169.48L1185.52,169.48z"/>
	</g>
</g>
<g>
	<g>
		<path class="st5" d="M1157.32,64.36c11.04,26.39,18.4,54.34,21.78,82.75c0.95,8.02,1.59,16.08,1.93,24.14c0.08,1.92,3.08,1.93,3,0
			c-1.19-28.77-6.3-57.39-15.27-84.76c-2.54-7.75-5.39-15.4-8.54-22.93c-0.32-0.75-0.99-1.27-1.85-1.05
			C1157.66,62.71,1157.01,63.62,1157.32,64.36L1157.32,64.36z"/>
	</g>
</g>
<path class="st7" d="M1395,1011c-236.33-1.14-472.67-2.29-709-3.43c4.9-32.23,16.78-81.79,49.5-130.4
	c11.85-17.61,22.37-29.04,33.53-41.18c24.32-26.44,44.07-41.43,130.94-108.09c2.18-1.68,20.22-15.52,22.36-17.16
	c-1.14,8.6-0.85,16.09,0,22.31c6.05,43.99,46.53,67.7,54.29,72.06c18.83-4.54,45.15-13.24,73.45-30.88
	c31.96-19.92,53.75-43.32,67.07-60.05c35.45,22.72,74.83,51.88,114.97,89.22C1309.53,875.41,1361.32,951.4,1395,1011z"/>
<path class="st8" d="M1162.43,746.62c-16.17-12.05-31.88-22.83-46.88-32.45c-13.31,16.73-35.11,40.13-67.07,60.05
	c-28.31,17.64-54.63,26.35-73.45,30.88c-7.76-4.36-48.24-28.07-54.29-72.06c-0.85-6.21-1.14-13.71,0-22.31
	c-1.07,0.82-6.12,4.7-11.18,8.58c-12.29,42.56-24.18,97.17-28.96,161.44c-3.58,48.11-2.4,91.22,0.74,127.76
	c92.86,0.45,185.72,0.9,278.58,1.35c-19.05-0.88-38.1-1.77-57.15-2.65C1122.66,920.35,1142.55,833.48,1162.43,746.62z"/>
<path class="st9" d="M1040.5,858.3c0.4-15.65-6.82-26.97-9.58-30.88c-6-16.86-19.96-28.43-35.13-29.17
	c-19.7-0.96-38.81,16.48-41.52,41.18c-0.81,7.88-1.11,19.32,1.6,32.6c2.02,9.89,5.12,17.95,7.94,23.93
	c-8.5,22.33-17.01,44.67-25.51,67c28.21,1.14,56.42,2.29,84.63,3.43c1.44-9.76,2.51-24.15,0-41.18c-1.43-9.68-3.71-18.13-6.16-25.23
	C1022.59,895.91,1039.9,881.81,1040.5,858.3z"/>
</svg>
