<?xml version="1.0" encoding="utf-8"?>
<!-- Generator: Adobe Illustrator 23.0.5, SVG Export Plug-In . SVG Version: 6.00 Build 0)  -->
<svg version="1.1" id="圖層_1" xmlns="http://www.w3.org/2000/svg" xmlns:xlink="http://www.w3.org/1999/xlink" x="0px" y="0px"
	 viewBox="0 0 1920 1080" style="enable-background:new 0 0 1920 1080;" xml:space="preserve">
<style type="text/css">
	.st0{fill:#F9E4C7;}
	.st1{fill:#412824;}
	.st2{fill:#E7925C;}
	.st3{fill:#291411;}
	.st4{fill:#DE6A57;}
	.st5{fill:#FCEDD8;}
	.st6{fill:#AA461A;}
	.st7{fill:#331D29;}
	.st8{fill:#F9FAF6;}
	.st9{fill:#45210F;}
</style>
<path class="st0" d="M1186.48,674.25L1065.42,1055h242.12c-5.44-48.04-15.38-110.38-34.39-177.68
	C1245.68,780.07,1211,713.93,1186.48,674.25z"/>
<g>
	<path class="st0" d="M1107.07,1055H861.24c-71.31-167.94-68.44-313.44,7.8-361.68c13.52-8.56,32.18-15.84,58.53-17.73
		c6.56-6.81,15.63-15.53,27.31-24.82c19.33-15.37,29.27-23.1,42.92-24.82c14.93-1.89,16.63,4.96,35.12,3.55
		c19.74-1.51,25.45-9.9,35.12-7.09c6.68,1.94,15.14,9.19,19.51,35.46c5.99,4.74,16.5,12.16,31.22,17.73
		c38.17,14.45,66.03,1.86,78.04,7.09C1218.88,692.28,1212.41,772.72,1107.07,1055z"/>
	<g>
		<path class="st1" d="M1291.04,622.73c33.37-10.87,57.96-48.17,57.96-92.52c0-52.88-34.94-95.74-78.04-95.74
			c-6.63,0-13.07,1.02-19.22,2.93c-0.93-15.55-1.37-34.32-0.3-56.12c2.28-46.56,9.69-71.96,11.71-88.65
			c10.77-89.27-96.11-233.84-206.81-226.94c-103.14,6.43-193.8,143.36-171.69,239.35c22.06,95.77,148.69,117.44,163.89,239.35
			c4.12,33.08-2.27,54.93,15.61,88.65c27.44,51.73,95.01,99.25,136.57,85.1c2.9-0.99,5.67-2.28,8.3-3.84
			c9.27,4.22,22.58,8.31,38.52,7.38c43.95-2.56,65.39-40.79,66.34-42.55c-6.63,0.48-22.22,0.78-39.02-7.09
			c-14.48-6.78-23.18-16.5-27.86-23.11c0.37-1.5,0.74-3,1.09-4.52L1291.04,622.73z"/>
		<path class="st1" d="M993.91,76.33c93.27,106.52,125.58,421.91-7.8,556.71c-16.48,16.65-59.8,60.44-105.36,53.19
			c-23.08-3.67-43.93-20-54.63-28.37c-18.47-14.46-33.87-26.51-39.02-46.1c-6.54-24.89,9.36-39.54-3.9-60.28
			c-2.41-3.77-2.59-2.74-15.61-17.73c0,0-12.22-14.06-23.41-28.37c-10.3-13.16-35.6-52.47-50.73-99.29
			c-15.5-47.98-52.66-162.99,11.71-241.12c6.24-7.58,35.38-26.33,93.65-63.83c86.09-55.4,113.28-65.48,140.48-60.28
			C946.01,42.15,968.59,47.41,993.91,76.33z"/>
		<g>
			<path class="st1" d="M780.39,529.71c-10.29,6.37-20.66,12.79-29.36,20.88c-8.7,8.09-15.74,18.06-17.93,29.2
				c-3.42,17.33,5.13,34.68,14.95,49.85c-3.81-8.65-7.51-17.43-9.02-26.64c-1.5-9.21-0.66-19,4.23-27.18
				c2.7-4.52,6.53-8.4,10.31-12.22c6.74-6.81,13.49-13.63,20.23-20.44"/>
		</g>
	</g>
	<path class="st2" d="M1216.33,349.36c-0.84-6.06-2.92-20.99-15.61-28.37c-6.83-3.97-15.82-5.22-23.41-3.55
		c-16.18,3.57-25.64,20.34-31.96,37.54c-4.41-2.41-10.28-6.38-14.86-12.71c-5.44-7.53-6.06-14.26-7.8-21.28
		c-2.12-8.55-6.62-16.33-15.61-31.91c-16.01-27.74-28.76-27.24-42.92-49.64c-20.9-33.07-4.26-51.81-27.31-70.92
		c-4.76-3.95-19.01-14.37-39.02-14.18c-12.62,0.12-22.29,4.4-27.31,7.09c-25.12-0.55-72.94,1.54-124.87,24.82
		c-37.26,16.7-62.75,38.09-78.04,53.19c-6.74,9.14-15.62,23.62-19.51,42.55c-6.79,33.08,6.28,57.32,15.61,88.65
		c6.91,23.22,13.94,57.64,11.71,102.83c8.76,19.05,30.53,59.14,78.04,92.19c41.66,28.99,83.35,38.82,105.36,42.55
		c10.45-4.95,25.32-12.16,42.92-21.28c57.31-29.69,86.36-45,105.36-67.37c10.91-12.85,25.66-35.2,31.22-70.92
		c0.07-0.87,0.13-1.74,0.2-2.61C1161.84,447,1222.15,391.22,1216.33,349.36z"/>
	<g>
		<g>
			<path class="st3" d="M1079.75,285.54c-10.23-4.25-42.63-16.27-81.94-7.09c-24.98,5.83-42,17.71-50.73,24.82
				c-1.26-0.46-8.44-3.23-11.71-10.64c-3.02-6.86-0.56-12.89,0-14.18c8.71-5.73,21.77-12.9,39.02-17.73
				c26.72-7.48,49.82-5.51,62.43-3.55c7.35,2.54,17.23,6.84,27.31,14.18C1070.83,276.22,1075.95,281.22,1079.75,285.54z"/>
			<path class="st3" d="M761.22,323.04c2.9-3.03,20.79-21.09,48.88-20.95c14.87,0.08,26.08,5.22,31.63,8.27
				c0.33,0.04,7.94,0.89,11.71-3.55c3.73-4.4,2.44-12.51-4.74-17.25c-6.81-1.89-16.68-3.82-28.54-3.43
				c-18.38,0.61-32.17,6.5-39.48,10.28c-3.91,3.09-8.94,7.8-13.34,14.49C764.41,315.33,762.5,319.54,761.22,323.04z"/>
		</g>
	</g>
	<g>
		<path class="st4" d="M946.09,555.55c9.44-4.79,20.24-11.26,31.28-20.02c20.43-16.19,33.54-33.73,41.63-46.82
			c-49.24,7.28-98.48,14.56-147.73,21.84c8,8.93,20.97,21.23,39.9,31.45C924.26,549.06,936.47,553.13,946.09,555.55z"/>
		<path class="st5" d="M944.78,544.92c8.41-3.73,18.04-8.76,27.91-15.54c18.25-12.54,30.03-26.05,37.31-36.12
			c-43.71,5.93-87.42,11.85-131.13,17.78c7.01,6.78,18.4,16.09,35.09,23.77C925.48,540.12,936.27,543.14,944.78,544.92z"/>
	</g>
	<g>
		<g>
			<path class="st6" d="M891.82,469.55c12.12,7.43,27.99,8.23,40.9,2.36c0.88-0.4,0.12-1.69-0.76-1.3
				c-12.42,5.65-27.75,4.77-39.38-2.36C891.76,467.75,891,469.04,891.82,469.55L891.82,469.55z"/>
		</g>
	</g>
	<path class="st2" d="M1048.54,618.85c-14.57,22.38-31.69,46.26-51.79,70.92c-14.72,18.06-29.45,34.59-43.82,49.64
		c-5.42-5.1-12.69-13.39-15.94-24.82c-7.86-27.67,14.86-48.88,27.89-81.56c7.13-17.89,13.53-44.66,7.97-81.56
		c25.23,0,50.46,0,75.69,0C1048.54,573.94,1048.54,596.39,1048.54,618.85z"/>
	<path class="st7" d="M896.36,1047.91c18.21,0,36.42,0,54.63,0c8.4-103.31,3.38-157.41-3.9-187.93c-1.32-5.54-5.37-21.41-3.9-42.55
		c2.22-32.02,15.81-57.56,27.31-74.46c-9.1-1.18-18.21-2.36-27.31-3.55c-14.71,33.79-29.31,75.48-39.02,124.11
		C889.53,936.76,891.03,1000.46,896.36,1047.91z"/>
	<g>
		<path class="st8" d="M826.84,344.95c-17.06-1.31-32.84,9.92-38.36,25.79c-6.73,19.32,4.87,36.52,6.63,39.05
			c12.44,17.82,40.06,29.39,57.59,16.46c14.77-10.88,15.2-33.85,10.13-48.91C861.96,374.78,852.05,346.88,826.84,344.95z"/>
		<g>
			<path class="st9" d="M850.32,353.61c-5.19-5.07-10.89-6.82-13.89-7.7c-12.13-3.57-28.56-1.56-39.87,9.95
				c-7.73,7.88-9.87,16.95-10.37,19.31c-3.07,14.56,3.04,26.3,4.68,29.23c-0.43-14.28,2.89-28.57,9.5-40.94
				c1.34-2.5,2.85-4.98,5.01-6.76c2.36-1.95,5.34-2.93,8.3-3.61c6.38-1.47,13.4-1.65,19.29,1.51c5.89,3.16,10.14,10.37,8.4,16.89
				c-1.21,4.53-5.11,7.95-9.53,9.11c-4.41,1.15-9.22,0.24-13.37-1.87c-1.44-0.73-2.96-1.63-4.52-1.38
				c-2.82,0.46-3.73,4.09-3.95,7.04c-0.51,6.61-0.58,13.35,0.99,19.82c1.57,6.48,4.94,12.71,10.2,16.64
				c7.6,5.67,17.63,5.69,26.88,5.3c2.36-0.1,4.78-0.22,6.96-1.13c3.7-1.54,6.2-5.12,7.92-8.84c6.42-13.9,2.63-29.96,1.64-33.95
				c-1.66-6.65-4.02-11.53-5.77-15.17C856,361.22,854.12,357.33,850.32,353.61z"/>
		</g>
	</g>
	<g>
		<path class="st8" d="M1006.15,325.73c16.53-4.08,34.26,4.38,42.84,19.09c10.44,17.91,2.45,36.72,1.21,39.5
			c-8.71,19.57-33.58,35.46-53.39,25.61c-16.68-8.29-21.66-30.81-19.65-46.46C977.51,360.82,981.73,331.75,1006.15,325.73z"/>
		<g>
			<path class="st9" d="M984.77,338.09c4.1-5.83,9.36-8.49,12.14-9.85c11.23-5.5,27.79-6.21,41.19,3.27
				c9.17,6.49,13.07,15.06,14.02,17.3c5.9,13.82,2.22,26.36,1.19,29.52c-2.41-14.12-8.5-27.63-17.45-38.72
				c-1.81-2.25-3.79-4.43-6.27-5.83c-2.71-1.53-5.83-2.01-8.88-2.2c-6.57-0.4-13.51,0.57-18.68,4.64
				c-5.17,4.07-7.92,11.86-4.92,17.99c2.09,4.26,6.61,6.99,11.17,7.4c4.57,0.41,9.12-1.27,12.78-4.02c1.27-0.95,2.59-2.09,4.17-2.09
				c2.86-0.01,4.48,3.42,5.28,6.28c1.81,6.41,3.22,13.03,2.95,19.66c-0.26,6.63-2.34,13.31-6.74,18.04
				c-6.35,6.82-16.22,8.48-25.39,9.61c-2.35,0.29-4.74,0.56-7.07,0.03c-3.94-0.91-7.11-4.03-9.54-7.4
				c-9.07-12.62-8.52-29.04-8.33-33.12c0.32-6.81,1.67-12,2.67-15.86C980.69,346.5,981.76,342.37,984.77,338.09z"/>
		</g>
	</g>
</g>
</svg>
