<?xml version="1.0" encoding="utf-8"?>
<!-- Generator: Adobe Illustrator 23.0.5, SVG Export Plug-In . SVG Version: 6.00 Build 0)  -->
<svg version="1.1" id="圖層_1" xmlns="http://www.w3.org/2000/svg" xmlns:xlink="http://www.w3.org/1999/xlink" x="0px" y="0px"
	 viewBox="0 0 1920 1080" style="enable-background:new 0 0 1920 1080;" xml:space="preserve">
<style type="text/css">
	.st0{fill:#9E3D2D;}
	.st1{fill:#5F2F33;}
	.st2{fill:#EFE9CE;}
	.st3{fill:#F8F3D2;}
	.st4{fill:#E89F77;}
	.st5{fill:#FAAC7B;}
	.st6{fill:#251922;}
	.st7{fill:#F67D5B;}
	.st8{fill:#E3674F;}
	.st9{fill:#F9FAF6;}
	.st10{fill:#39110D;}
	.st11{fill:#C46444;}
	.st12{fill:#FBEEC2;}
	.st13{fill:#92483B;}
</style>
<g>
	<path class="st0" d="M1348.52,464.88c1.65-4.61,7.43-4.2,9.78-0.13c2.35,4.07,1.92,9.85,0.43,14.55c-1.49,4.7-3.88,8.85-5.36,13.56
		c-0.42,1.34-0.74,2.95-0.13,4.17c0.4,0.8,1.13,1.23,1.84,1.45c5.09,1.57,9.32-5.21,11.35-11.46c1.9-5.86,3.19-12.05,3.81-18.35
		c0.37-3.79,0.44-7.96-1.27-11.08c-2.21-4.03-6.56-4.87-10.38-4.54c-5.25,0.45-11.29,3.64-12.26,10.33"/>
</g>
<g>
	<path class="st1" d="M1309.91,652.18c-21.67,20.99-36.13,20.1-279.64,38.16c-17.75,1.32-72.16,5.36-142.49-3.82
		c-52.24-6.82-78.78-10.59-99.74-28.62c-59.76-51.41-35.89-174.18-32.06-192.73c201.27,0,402.54,0,603.81,0
		C1367.35,587.61,1326.69,635.93,1309.91,652.18z"/>
	<path class="st2" d="M1173.53,1045.23c-88.93-1.15-177.87-2.29-266.8-3.44c-59.97-92.91-69.4-205.45-25.48-280.56
		c24.25-41.47,59.28-62.14,82.44-72.29c50.96-1.15,101.92-2.29,152.88-3.44c35.5,11.25,55.99,30.65,67.45,44.75
		C1238.37,797.11,1235.76,924.53,1173.53,1045.23z"/>
	<path class="st3" d="M1106.86,792.21c-7.29-8.81-24.06-29.07-28.5-34.42c-15.31-18.48-23.11-27.72-30.28-27.54
		c-9.05,0.23-13.55,9.77-28.5,27.54c-12.7,15.11-24.46,26.06-32.06,32.7c-3.57-1.17-35.31-12.15-46.31-44.75
		c-9.35-27.71,3.06-50.97,5.34-55.08c65.31-1.15,130.62-2.29,195.93-3.44c2.81,2.92,21.88,23.45,17.81,51.64
		C1156.6,764.44,1135.33,785.9,1106.86,792.21z"/>
	<path class="st4" d="M1092.61,709.59c-9.13,2.97-21.22,5.91-35.62,6.88c-21.06,1.42-38.42-1.96-49.87-5.16
		c-18.19-9.8-21.62-17.32-21.37-22.38c0.56-11.69,20.99-15.3,28.5-34.42c3.4-8.66,2.76-16.95,1.78-22.38c24.94,0,49.87,0,74.81,0
		c-1.19,5.2-2.29,13.29,0,22.38c5.23,20.78,23.47,28.18,21.37,39.59C1111.42,698.36,1107.61,704.2,1092.61,709.59z"/>
	<path class="st5" d="M1349.7,375.67c-3.6-1.55-7.23-2.33-10.7-2.63c1.27-10.8,1.82-18.88,2.11-23.19
		c3.07-45.43,8.82-130.39-42.97-201.38C1215.03,34.54,1015.43,0.05,882.2,89.95c-83.01,56.02-127.17,151.51-134.41,247.02
		c-5.72-0.95-12.57-1.05-19.47,1.51c-28.54,10.61-39.59,60.12-28.88,96.8c2.58,8.85,10.57,34.66,37.1,50.09
		c12.6,7.33,25.22,9.9,35.69,10.41c11.92,27.96,27.97,53.28,48.11,74.39c55.64,58.32,131.62,73.3,177.03,77.45
		c18.56,3.09,44.66,5.78,75.63,3.44c11.53-0.87,79.39-6.64,137.5-43.03c33.41-20.92,58.23-48.61,76.69-78.14
		c11.7,1.5,29.18,1.33,47.06-7.92c27.26-14.1,36.51-39.48,39.53-48.19C1386.28,437.68,1377.68,387.68,1349.7,375.67z"/>
	<path class="st1" d="M777.35,403.21c-0.61,39.09,4.99,58.73,0,60.24c-6.01,1.83-21.16-24.55-30.28-48.19
		c-13.62-35.31-14.6-66.6-14.25-82.62c1.18-53.8,20.83-93.37,30.28-111.88c0,0,36.81-72.13,105.09-117.04
		c120.24-79.09,347.89-73.71,439.94,56.8c91.69,129.99-0.74,313.78-5.34,313.26c-3.55-0.4,32.53-111.6-26.72-173.84
		c-23.61-24.8-46.99-25.68-92.62-65.41c-28.71-24.99-48.31-49.77-60.56-67.13c-35.15,29.52-67.82,47.61-90.84,58.52
		c-44.52,21.11-84.97,30.57-94.4,32.7c-57,12.88-71.4,4.37-101.52,22.38c-7.36,4.4-35.83,21.92-49.87,55.08
		C778.1,355.35,777.82,372.77,777.35,403.21z"/>
	<g>
		<path class="st0" d="M715.5,430.47c-1.71-5.07-1.75-10.65-0.13-15.74c1.01-3.18,3.19-6.54,6.61-6.89
			c2.77-0.29,5.38,1.61,6.75,3.95c1.37,2.35,1.77,5.09,2.23,7.74c2.28,13,6.76,25.64,13.2,37.26c2.85,5.14,6.15,10.3,6.7,16.1
			c0.05,0.52,0.07,1.08-0.19,1.54c-0.46,0.84-1.6,1.05-2.58,0.99c-4.52-0.27-7.86-4.02-10.64-7.48
			c-10.77-13.37-21.99-27.86-23.05-44.77"/>
	</g>
	<path class="st6" d="M975.06,315.43c3.16,10.68-6.02,26.13-17.81,29.26c-14.99,3.98-21.22-15.39-46.31-18.93
		c-10.11-1.43-13.07,1.16-53.43,10.33c-13.63,3.1-24.81,5.42-32.06,6.88c16.72-16.55,54.24-48.51,101.52-46.47
		C934.4,296.82,970.01,298.35,975.06,315.43z"/>
	<path class="st6" d="M1121.74,315.43c-3.16,10.68,6.02,26.13,17.81,29.26c14.99,3.98,21.22-15.39,46.31-18.93
		c10.11-1.43,13.07,1.16,53.43,10.33c13.63,3.1,24.81,5.42,32.06,6.88c-16.72-16.55-54.24-48.51-101.52-46.47
		C1162.4,296.82,1126.78,298.35,1121.74,315.43z"/>
	<ellipse class="st7" cx="1048.97" cy="500.46" rx="31.17" ry="24.96"/>
	<ellipse class="st8" cx="879.76" cy="492.72" rx="63.23" ry="27.54"/>
	<g>
		<path class="st9" d="M917.86,372.23c-22.1-3.3-44.15,8.77-53.43,27.54c-11.3,22.84,1.59,44.94,3.56,48.19
			c13.91,22.94,48.46,39.79,73.03,25.82c20.69-11.77,24.26-39.68,19.59-58.52C959.82,412.06,950.53,377.11,917.86,372.23z"/>
		<g>
			<path class="st10" d="M947.38,385.13c-6.11-6.69-13.33-9.39-17.13-10.77c-15.37-5.56-37.08-4.77-53.33,8.11
				c-11.12,8.81-15.09,19.65-16.05,22.46c-5.9,17.41,0.54,32.31,2.29,36.05c1.3-17.42,7.49-34.49,17.73-48.88
				c2.07-2.91,4.37-5.78,7.42-7.73c3.34-2.13,7.35-3.03,11.31-3.57c8.52-1.15,17.7-0.67,24.98,3.77c7.28,4.44,11.89,13.65,8.77,21.4
				c-2.17,5.4-7.71,9.17-13.62,10.13c-5.91,0.96-12.06-0.63-17.2-3.62c-1.78-1.03-3.65-2.28-5.72-2.13
				c-3.74,0.28-5.4,4.61-6.08,8.17c-1.52,7.99-2.5,16.19-1.29,24.23c1.21,8.04,4.79,15.97,11.15,21.28
				c9.18,7.66,22.27,8.69,34.4,9.14c3.1,0.12,6.27,0.21,9.23-0.68c5.03-1.5,8.76-5.61,11.49-9.96c10.19-16.28,7.34-36.21,6.56-41.15
				c-1.3-8.26-3.74-14.44-5.56-19.04C953.81,394.95,951.87,390.04,947.38,385.13z"/>
		</g>
	</g>
	<ellipse class="st8" cx="1212.84" cy="489.27" rx="63.23" ry="27.54"/>
	<g>
		<path class="st9" d="M1179.89,368.79c22.1-3.3,44.15,8.77,53.43,27.54c11.3,22.84-1.59,44.94-3.56,48.19
			c-13.91,22.94-48.46,39.79-73.03,25.82c-20.69-11.77-24.26-39.68-19.59-58.52C1137.93,408.62,1147.22,373.67,1179.89,368.79z"/>
		<g>
			<path class="st10" d="M1150.37,381.69c6.11-6.69,13.33-9.39,17.13-10.77c15.37-5.56,37.08-4.77,53.33,8.11
				c11.12,8.81,15.09,19.65,16.05,22.46c5.9,17.41-0.54,32.31-2.29,36.05c-1.3-17.42-7.49-34.49-17.73-48.88
				c-2.07-2.91-4.37-5.78-7.42-7.73c-3.34-2.13-7.35-3.03-11.31-3.57c-8.52-1.15-17.7-0.66-24.98,3.77
				c-7.28,4.44-11.89,13.65-8.77,21.4c2.17,5.4,7.71,9.17,13.62,10.13c5.91,0.96,12.06-0.63,17.2-3.62
				c1.78-1.03,3.65-2.28,5.72-2.13c3.74,0.28,5.4,4.61,6.08,8.17c1.52,7.99,2.5,16.19,1.29,24.23c-1.21,8.04-4.79,15.97-11.15,21.28
				c-9.18,7.66-22.27,8.69-34.4,9.14c-3.1,0.12-6.27,0.21-9.23-0.68c-5.03-1.5-8.76-5.61-11.49-9.96
				c-10.19-16.28-7.34-36.21-6.56-41.15c1.3-8.26,3.74-14.44,5.56-19.04C1143.94,391.51,1145.88,386.59,1150.37,381.69z"/>
		</g>
	</g>
	<g>
		<g>
			<path class="st11" d="M975.36,557.51c20.68,9.72,42.87,16.46,65.71,18.31c21.3,1.73,43.1-1.04,62.93-9.17
				c10.76-4.41,20.82-10.33,29.72-17.83c1.48-1.25-0.65-3.36-2.12-2.12c-15.54,13.11-34.87,21.14-54.8,24.63
				c-21.39,3.75-43.46,2-64.41-3.45c-12.22-3.18-24.09-7.59-35.51-12.96C975.13,554.11,973.61,556.69,975.36,557.51L975.36,557.51z"
				/>
		</g>
	</g>
	<path class="st12" d="M1340.19,377.39c-7.32-2.84,6.94-33.91,5.34-91.22c-0.6-21.73-1.53-54.87-16.03-89.5
		c-20.58-49.13-58.27-76.83-78.37-91.22c-73.77-52.83-154.25-53.5-181.68-53.36c-82.56,0.43-141.66,31.69-165.65,44.75
		c-17.14,9.34-43.73,24.07-71.25,51.64c-14.84,14.86-58.27,58.37-71.25,123.93c-10.4,52.56,8.06,72.38-12.47,99.83
		c-18.69,25-58.14,40.85-81.93,29.26c-37.39-18.22-30.1-101.3-14.25-151.47c23.03-72.87,76.55-115.54,105.09-137.7
		c90.95-70.61,190.29-81.53,236.89-86.06c42.32-4.12,137.21-12.19,238.67,34.42c35.46,16.29,81.46,37.34,117.56,86.06
		c11.51,15.54,55.78,74.45,42.75,144.58C1384.34,341.29,1349.02,380.81,1340.19,377.39z"/>
	<path class="st13" d="M912.72,1038.34c-14.25-0.57-28.5-1.15-42.75-1.72c-8.54-40.17-15.84-94.4-12.47-158.35
		c3.47-65.79,17.09-120.36,30.28-160.07c19.59-8.61,39.18-17.21,58.78-25.82c-3.63,6.02-8.98,15.47-14.25,27.54
		c-11.47,26.25-17.82,53.96-21.37,135.98c-0.91,20.98-1.97,46.35-1.78,82.62C909.37,979.4,911.07,1013.6,912.72,1038.34z"/>
	<path class="st13" d="M1177.27,1034.9c14.25-0.57,28.5-1.15,42.75-1.72c8.54-40.17,15.84-94.4,12.47-158.35
		c-3.47-65.79-17.09-120.36-30.28-160.07c-19.59-8.61-39.19-17.21-58.78-25.82c3.63,6.02,8.98,15.47,14.25,27.54
		c11.47,26.25,17.82,53.96,21.37,135.98c0.91,20.98,1.97,46.35,1.78,82.62C1180.61,975.95,1178.91,1010.16,1177.27,1034.9z"/>
</g>
<path class="st13" d="M1217.29,1043.6c-57.78,5.84-124.46,9.09-198.25,6.49c-54.35-1.92-104.31-6.73-149.2-12.97
	c-2.93-16.76-5.85-33.52-8.78-50.27c122.3,0.54,244.61,1.08,366.91,1.62c-1.78,9.19-3.56,18.38-5.34,27.57
	S1219.07,1034.41,1217.29,1043.6z"/>
</svg>
