<?xml version="1.0" encoding="utf-8"?>
<!-- Generator: Adobe Illustrator 23.0.5, SVG Export Plug-In . SVG Version: 6.00 Build 0)  -->
<svg version="1.1" id="圖層_1" xmlns="http://www.w3.org/2000/svg" xmlns:xlink="http://www.w3.org/1999/xlink" x="0px" y="0px"
	 viewBox="0 0 1920 1080" style="enable-background:new 0 0 1920 1080;" xml:space="preserve">
<style type="text/css">
	.st0{fill:#F6A9C1;}
	.st1{fill:#DED23E;}
	.st2{fill:#F2E6E8;}
	.st3{fill:#060505;}
	.st4{fill:#CC4681;}
	.st5{fill:#070508;}
	.st6{fill:#F6F5F4;}
	.st7{fill:#0A0607;}
	.st8{fill:#E65691;}
	.st9{fill:#5C0E28;}
	.st10{fill:#1E0613;}
	.st11{fill:#EBD8DA;}
	.st12{fill:#E65E90;}
	.st13{fill:#A3439C;}
	.st14{fill:#A3439C;stroke:#000000;stroke-miterlimit:10;}
	.st15{fill:#D6D342;}
</style>
<path class="st0" d="M1168.01,1062.35c-14.53-16.38-30.33-33.25-47.46-50.4c-15.13-15.14-30.07-29.27-44.67-42.44
	c-24.07-9.66-156-60.2-265.22,2.65c-15.64,9-33.15,21.67-50.25,39.79c-14.93,17.68-29.86,35.37-44.79,53.05
	C866.42,1064.12,1017.22,1063.23,1168.01,1062.35z"/>
<path class="st1" d="M1469.53,290.5c2.09,73.61-33.36,130.04-53.04,156.49c-58.63-44.21-117.25-88.41-175.88-132.62
	c8.92-5.07,75.29-44.26,86.55-122.01c8.93-61.71-20.29-124.06-75.38-161.8C1380.37,77.5,1466.39,180.28,1469.53,290.5z"/>
<path class="st1" d="M425.49,271.93c-2.09,73.61,33.36,130.04,53.04,156.49c58.63-44.21,117.25-88.41,175.88-132.62
	c-8.92-5.07-75.29-44.26-86.55-122.01c-8.93-61.71,20.29-124.06,75.38-161.8C514.64,58.94,428.62,161.71,425.49,271.93z"/>
<path class="st0" d="M1477.9,630.01c-0.54,21.71-3.06,90.71-44.67,159.14c-114.62,188.52-416.16,192.47-503.92,193.62
	c-50.92,0.67-422.98,5.55-512.29-185.67c-27.29-58.44-22.46-122.94-19.54-161.8c1.76-23.53,12.34-138.04,94.92-241.37
	c130.84-163.72,345.88-178.56,410.39-183.02c65.86-4.55,278.79-19.24,435.52,124.66C1362.8,358.08,1481.92,467.45,1477.9,630.01z"/>
<g>
	<path class="st2" d="M1366.23,622.05c-1.48,3.85-27.85,69.1-94.92,79.57c-61.53,9.61-121.54-32.47-136.8-79.57
		c-26.85-82.88,82.35-188.97,156.34-172.41C1348.48,462.55,1393.25,551.77,1366.23,622.05z"/>
	<path class="st3" d="M1131.72,595.53c-5.66-70.86,64.71-133.62,136.8-124.66c56.82,7.06,103.23,57.24,103.3,115.38
		c0,3.63-0.18,7.24-0.53,10.81c14.73-66.92-27.37-143.49-80.43-155.37c-73.99-16.57-183.19,89.53-156.34,172.41
		c0.74,2.27,1.61,4.53,2.55,6.77C1134.27,612.71,1132.41,604.23,1131.72,595.53z"/>
	<path class="st4" d="M1164.73,521.26c-35.8,20.08-45.88,76.38-25.13,116.71c13.27,25.78,42.64,51.87,80.96,53.05
		c49.63,1.53,97.91-39.21,97.71-87.53c-0.22-55.8-64.93-81.7-97.71-87.53C1208.07,513.73,1185.35,509.7,1164.73,521.26z"/>
	<ellipse class="st5" cx="1202.91" cy="596.85" rx="71.19" ry="67.64"/>
	<ellipse class="st6" cx="1235.02" cy="558.39" rx="30.71" ry="29.18"/>
	<ellipse class="st6" cx="1183.37" cy="644.6" rx="9.77" ry="9.28"/>
	<g>
		<path class="st7" d="M1342.32,479.02c8.88-3.9,17.76-7.8,26.63-11.69c-5.6,9.86-14.95,17.74-25.92,21.84
			c-1.51-4.03-2.41-8.27-2.67-12.54"/>
	</g>
	<g>
		<path class="st7" d="M1357.79,496.69c7.04-2.07,14.08-4.13,21.12-6.2c-4.66,5.26-9.32,10.52-13.97,15.78
			c-0.79,0.89-1.71,1.85-2.94,1.93c-4.09,0.26-2.28-7.37-5.87-9.25"/>
	</g>
	<g>
		<path class="st7" d="M1360.76,519.42c7.53-0.01,15.07-0.01,22.6-0.01c-3.14,2.99-6.4,6.05-10.53,7.62s-9.38,1.27-12.37-1.85"/>
	</g>
</g>
<g>
	<path class="st2" d="M497.98,653.88c1.48,3.85,27.85,69.1,94.92,79.57c61.53,9.61,121.54-32.47,136.8-79.57
		c26.85-82.88-82.35-188.97-156.34-172.41C515.73,494.38,470.97,583.6,497.98,653.88z"/>
	<path class="st3" d="M732.49,627.36c5.66-70.86-64.71-133.62-136.8-124.66c-56.82,7.06-103.23,57.24-103.3,115.38
		c0,3.63,0.18,7.24,0.53,10.81c-14.73-66.92,27.37-143.49,80.43-155.37c73.99-16.57,183.19,89.53,156.34,172.41
		c-0.74,2.27-1.61,4.53-2.55,6.77C729.95,644.54,731.8,636.06,732.49,627.36z"/>
	<path class="st4" d="M699.48,553.09c35.8,20.08,45.88,76.38,25.13,116.71c-13.27,25.78-42.64,51.87-80.96,53.05
		c-49.63,1.53-97.91-39.21-97.71-87.53c0.22-55.8,64.93-81.7,97.71-87.53C656.14,545.56,678.87,541.52,699.48,553.09z"/>
	<ellipse class="st5" cx="661.3" cy="628.68" rx="71.19" ry="67.64"/>
	<ellipse class="st6" cx="629.2" cy="590.22" rx="30.71" ry="29.18"/>
	<ellipse class="st6" cx="680.85" cy="676.42" rx="9.77" ry="9.28"/>
	<g>
		<path class="st7" d="M521.89,510.85c-8.88-3.9-17.76-7.8-26.63-11.69c5.6,9.86,14.95,17.74,25.92,21.84
			c1.51-4.03,2.41-8.27,2.67-12.54"/>
	</g>
	<g>
		<path class="st7" d="M506.43,528.52c-7.04-2.07-14.08-4.13-21.12-6.2c4.66,5.26,9.32,10.52,13.97,15.78
			c0.79,0.89,1.71,1.85,2.94,1.93c4.09,0.26,2.28-7.37,5.87-9.25"/>
	</g>
	<g>
		<path class="st7" d="M503.45,551.25c-7.53,0-15.07-0.01-22.6-0.01c3.14,2.99,6.4,6.05,10.53,7.62s9.38,1.27,12.37-1.85"/>
	</g>
</g>
<g>
	<path class="st8" d="M1176.45,406.3c11.51-14.46,26.27-26.95,43.85-34.01c17.58-7.06,38.14-8.31,55.74-1.27
		c-12.96,1.99-25.98,3.99-38.51,7.75c-21.04,6.31-40.09,17.37-58.91,28.33"/>
</g>
<g>
	<path class="st8" d="M594.06,386.99c16.29-5.79,34.18-8.9,51.13-5.2c16.95,3.7,32.66,15.21,37.42,31.1
		c-5.82-2.02-10.55-6.09-15.51-9.63c-21.74-15.5-50.7-21.49-77.25-15.98"/>
</g>
<path class="st8" d="M1000.51,664.49c-2.85,6.33-7.42,10.47-11.17,13.26c-25.31,18.86-58.63,15.91-58.63,15.91
	c-20.56-1.82-56.45-11.93-58.63-31.83c-0.98-8.9,4.78-19.93,13.96-23.87c16.35-7.02,27.34,15.4,53.04,13.26
	c19.93-1.66,29.53-16.48,50.25-13.26c4.03,0.62,8.34,1.91,11.17,5.3C1006.7,650.72,1001.2,662.94,1000.51,664.49z"/>
<ellipse transform="matrix(0.4565 -0.8897 0.8897 0.4565 -102.5073 1163.8129)" class="st9" cx="901.4" cy="665.81" rx="9.39" ry="15.18"/>
<ellipse transform="matrix(0.8897 -0.4565 0.4565 0.8897 -196.8525 516.8334)" class="st9" cx="971.19" cy="665.81" rx="15.18" ry="9.39"/>
<g>
	<path class="st10" d="M1042.38,810.37c-57.52,40.3-134.8,40.28-192.63,13.26c-51.16-23.9-76.65-64.06-86.55-82.22
		c38.13,8.61,64.1,3.68,80.96-2.65c14.16-5.32,18.4-10.3,39.08-18.57c13.85-5.53,37.12-14.84,61.42-15.91
		c43.16-1.92,54.98,23.65,106.09,29.18c22.47,2.43,41.24-0.23,53.04-2.65C1097.44,747.42,1080.96,783.34,1042.38,810.37z"/>
	<path class="st11" d="M860.92,757.32c-2.88-1.38-7.12-3.82-11.17-7.96c-4.89-4.99-7.24-10.15-8.38-13.26
		c13.03-6.19,26.06-12.38,39.08-18.57c-1.18,7.46-3.98,18.16-11.17,29.18C866.57,750.88,863.68,754.4,860.92,757.32z"/>
	<path class="st11" d="M1020.05,757.32c2.88-1.38,7.12-3.82,11.17-7.96c4.89-4.99,7.24-10.15,8.38-13.26
		c-13.03-6.19-26.06-12.38-39.08-18.57c1.18,7.46,3.98,18.16,11.17,29.18C1014.39,750.88,1017.29,754.4,1020.05,757.32z"/>
	<path class="st11" d="M911.17,741.41c-3.53-1.79-8.93-5.05-13.96-10.61c-4.49-4.97-6.99-9.89-8.38-13.26
		c12.1-3.54,24.2-7.07,36.29-10.61c0.61,3.26,1.75,11.84-2.79,21.22C918.94,735.15,913.94,739.38,911.17,741.41z"/>
	<path class="st11" d="M973.18,741.41c3.53-1.79,8.93-5.05,13.96-10.61c4.49-4.97,6.99-9.89,8.38-13.26
		c-12.1-3.54-24.2-7.07-36.29-10.61c-0.61,3.26-1.75,11.84,2.79,21.22C965.4,735.15,970.41,739.38,973.18,741.41z"/>
	<path class="st12" d="M980.96,836.89c-13.05,3.24-47.72,10.32-89.34,0c-13.21-3.27-23.69-7.45-30.71-10.61
		c19.48-20.85,34.42-24.57,44.67-23.87c12.26,0.83,16.1,7.86,30.71,7.96c17.11,0.11,22.41-9.46,36.29-10.61
		c9.79-0.81,24.67,2.49,44.67,23.87C1002.83,830.71,990.08,834.63,980.96,836.89z"/>
</g>
<g>
	<path class="st13" d="M728.31,360.79c-7.42,3.37-15.8,6.21-25.13,7.96c-50.93,9.55-94.05-20.24-106.09-29.18
		c-4.65-15.91-9.31-31.83-13.96-47.74c9.66-13.75,25.64-32.93,50.25-50.4c18.54-13.16,36.37-21.36,50.25-26.52
		c11.63,12.63,32.3,38.56,41.88,76.92C732.75,320.81,730.81,345.49,728.31,360.79z"/>
	<path class="st13" d="M442.25,436.97c8.17-0.93,16.85-2.8,25.7-6.07c48.39-17.86,68.01-64.96,73.13-78.63
		c-5.05-15.81-10.09-31.61-15.13-47.42c-15.91-6.69-40.22-14.76-70.85-16.98c-23.07-1.67-42.76,0.48-57.39,3.18
		c-2.7,16.58-5.53,49,8.01,86.26C415.95,405.47,431.5,425.33,442.25,436.97z"/>
	<g>
		<g>
			<path d="M603.46,316.97c14.95-8.07,31.64-12.87,48.58-14.09c4.82-0.35,9.66-0.4,14.5-0.18c1.93,0.09,1.93-2.91,0-3
				c-17.41-0.8-35,2.07-51.21,8.46c-4.58,1.8-9.05,3.87-13.38,6.21C600.24,315.3,601.76,317.89,603.46,316.97L603.46,316.97z"/>
		</g>
	</g>
	<g>
		<g>
			<path d="M526.63,337.02c-14.59-1.78-29.64,0.06-43.36,5.35c-3.9,1.5-7.69,3.27-11.34,5.31c-1.69,0.94-0.18,3.53,1.51,2.59
				c16.1-8.96,34.92-12.47,53.19-10.24C528.54,340.25,528.53,337.25,526.63,337.02L526.63,337.02z"/>
		</g>
	</g>
	<path class="st14" d="M593.47,363.44h-56.96c-6.6,0-12-5.4-12-12v-50.27c0-6.6,5.4-12,12-12h56.96c6.6,0,12,5.4,12,12v50.27
		C605.47,358.04,600.07,363.44,593.47,363.44z"/>
</g>
<g>
	<g>
		<g>
			<path class="st15" d="M950.63,1009.3h-28.67c-4.4,0-8-3.6-8-8v-29.09c0-4.4,3.6-8,8-8h28.67c4.4,0,8,3.6,8,8v29.09
				C958.63,1005.7,955.03,1009.3,950.63,1009.3z"/>
			<path class="st15" d="M1039.59,1043.78c-14.44-5.13-31.84-12.67-50.25-23.87c-14.62-8.89-26.65-18.13-36.29-26.52
				c-1.86-7.07-3.72-14.15-5.58-21.22c6.25-6.64,15.36-14.64,27.92-21.22c31.86-16.69,63.75-12.66,75.38-10.61
				c4.38,10.74,12.79,35.89,5.58,66.31C1052.45,1023.08,1045.29,1035.61,1039.59,1043.78z"/>
			<path class="st15" d="M833.02,1043.78c14.44-5.13,31.84-12.67,50.25-23.87c14.62-8.89,26.65-18.13,36.29-26.52
				c1.86-7.07,3.72-14.15,5.58-21.22c-6.25-6.64-15.36-14.64-27.92-21.22c-31.86-16.69-63.75-12.66-75.38-10.61
				c-4.38,10.74-12.79,35.89-5.58,66.31C820.16,1023.08,827.31,1035.61,833.02,1043.78z"/>
		</g>
	</g>
	<g>
		<g>
			<path d="M956.31,979.93c12.38-8.42,27.68-12.04,42.54-10.33c0.96,0.11,0.95-1.39,0-1.5c-15.09-1.73-30.72,1.99-43.29,10.54
				C954.76,979.18,955.51,980.48,956.31,979.93L956.31,979.93z"/>
		</g>
	</g>
	<g>
		<g>
			<path d="M871.64,980.25c14.04-5.3,29.78-5.42,43.9-0.33c0.91,0.33,1.3-1.12,0.4-1.45c-14.33-5.17-30.44-5.06-44.69,0.33
				C870.34,979.14,870.73,980.59,871.64,980.25L871.64,980.25z"/>
		</g>
	</g>
	<g>
		<g>
			<path d="M882.68,1004.05c9.22-6.58,19.59-11.37,30.55-14.19c0.93-0.24,0.54-1.69-0.4-1.45c-11.08,2.85-21.6,7.69-30.91,14.34
				C881.14,1003.31,881.89,1004.61,882.68,1004.05L882.68,1004.05z"/>
		</g>
	</g>
	<g>
		<g>
			<path d="M959.5,989.87c11.61,0.96,22.47,5.47,33.09,9.95c0.88,0.37,1.64-0.92,0.76-1.3c-10.88-4.59-21.95-9.18-33.85-10.16
				C958.54,988.29,958.54,989.79,959.5,989.87L959.5,989.87z"/>
		</g>
	</g>
</g>
</svg>
