<?xml version="1.0" encoding="utf-8"?>
<!-- Generator: Adobe Illustrator 23.0.5, SVG Export Plug-In . SVG Version: 6.00 Build 0)  -->
<svg version="1.1" id="圖層_1" xmlns="http://www.w3.org/2000/svg" xmlns:xlink="http://www.w3.org/1999/xlink" x="0px" y="0px"
	 viewBox="0 0 1920 1080" style="enable-background:new 0 0 1920 1080;" xml:space="preserve">
<style type="text/css">
	.st0{fill:#B7ACA5;}
	.st1{fill:#F6B068;}
	.st2{fill:#DC7C44;}
	.st3{fill:#86ACB9;}
	.st4{fill:#DF7022;}
	.st5{fill:#E43933;}
	.st6{fill:#FCDEDA;}
	.st7{fill:#CB6D60;}
	.st8{fill:#FED8B8;}
	.st9{fill:#DE4C35;}
	.st10{fill:#F4FAFA;}
	.st11{fill:#502C1E;}
	.st12{fill:#B59D87;}
	.st13{fill:#2F0600;}
	.st14{fill:#F9863F;}
	.st15{fill:#DE362B;}
	.st16{fill:#AF583E;}
	.st17{fill:#F9E4C4;}
	.st18{fill:#2D2120;}
	.st19{font-family:'Impact';}
	.st20{font-size:48px;}
	.st21{fill:#F49E58;}
</style>
<path class="st0" d="M1763,1080H153c-85.6,0-155-69.4-155-155V155C-2,69.4,67.4,0,153,0h1610c85.6,0,155,69.4,155,155v770
	C1918,1010.6,1848.6,1080,1763,1080z"/>
<g>
	<rect x="1279" y="827" class="st1" width="256" height="179"/>
	<rect x="1240" y="827" class="st2" width="39" height="179"/>
</g>
<g>
	<rect x="1631" y="869" class="st3" width="245" height="29"/>
	<path class="st4" d="M1592,885c13,4.33,26,8.67,39,13c0-9.67,0-19.33,0-29C1618,874.33,1605,879.67,1592,885z"/>
</g>
<rect x="1627" y="948" class="st5" width="248" height="20"/>
<path class="st6" d="M1889.09,968H1875v-20h14.09c3.27,0,5.91,2.65,5.91,5.91v8.17C1895,965.35,1892.35,968,1889.09,968z"/>
<polygon class="st7" points="1597,958 1612,968 1612,948 "/>
<rect x="1612" y="948" class="st8" width="15" height="20"/>
<g>
	<path class="st9" d="M1891,660c8.16,7.68-11.67,41.57-20,54c-5.72,8.53-20.53,30.12-47,44c-39.3,20.61-94.41,19.04-133-11
		c-48.92-38.08-55.2-109.39-44-115c12.99-6.51,40.62,79.84,104,89C1817.92,730.67,1877.7,647.49,1891,660z"/>
	<ellipse class="st10" cx="1770.5" cy="622.5" rx="129.5" ry="104.5"/>
	<path class="st11" d="M1869,651c-6.21,40.85-47.32,58.12-52,60c-19.17,7.69-36,6.14-47,5c-5.8-0.6-86.93-10.08-98-63
		c-7.35-35.16,21.29-65.24,24-68c20.84-21.25,46.45-24.44,59-26c9.09-1.13,61.84-7.7,94,30C1853.02,593.71,1873.97,618.28,1869,651z
		"/>
	<path class="st12" d="M1857,679c-3.17-1.66,14.49-24,10-51c-5.38-32.38-40.38-58.06-73-66c-40.3-9.81-84.48,5.63-106,34
		c-19.55,25.76-16.74,57.35-21,57c-4.04-0.33-10.89-29.12-1-55c14.45-37.79,61.1-60.14,101.5-61c58.42-1.24,120.43,42.08,121.5,86
		C1889.74,653.67,1860.68,680.93,1857,679z"/>
	<path class="st13" d="M1796,714c1.76,3.21,31.76-4.45,52-27c8.84-9.85,12.88-19.26,14-22c1.86-4.55,8.79-22.83,4-43
		c-6.59-27.77-31.3-41.89-42-48c-4.12-2.36-47.02-25.96-92-7c-30.19,12.72-48.83,39.36-46,43c3.32,4.28,33.3-29.56,78-29
		c30.01,0.37,65.1,16.23,77,44c1.74,4.06,6.23,14.92,4,28c-2.43,14.27-11.66,24.1-26,39C1803.64,707.96,1794.98,712.15,1796,714z"/>
	<path class="st14" d="M1919,741c-16-9-32-18-48-27c4-11,8-22,12-33c12.67,7.67,25.33,15.33,38,23
		C1920.33,716.33,1919.67,728.67,1919,741z"/>
	<path class="st15" d="M1918,756c-5.06-0.36-10.41-1-16-2c-22.09-3.96-39.92-12.19-53-20c6.33-6.67,12.67-13.33,19-20
		c16.67,8,33.33,16,50,24C1918,744,1918,750,1918,756z"/>
	<path class="st16" d="M1920,750c-8.44-1.64-18.74-4.36-30-9c-11.44-4.72-20.79-10.14-28-15c3-4,6-8,9-12c16,9,32,18,48,27
		C1919.33,744,1919.67,747,1920,750z"/>
</g>
<g>
	<path class="st17" d="M425.37,983H105V628h320.37c19.13,0,34.63,15.5,34.63,34.63v285.74C460,967.5,444.5,983,425.37,983z"/>
	<rect x="105" y="638" class="st18" width="52" height="7"/>
	<rect x="105" y="658" class="st18" width="52" height="7"/>
	<rect x="105" y="678" class="st18" width="52" height="7"/>
	<rect x="105" y="698" class="st18" width="52" height="7"/>
	<rect x="105" y="718" class="st18" width="52" height="7"/>
	<rect x="105" y="738" class="st18" width="52" height="7"/>
	<rect x="105" y="758" class="st18" width="52" height="7"/>
	<rect x="105" y="778" class="st18" width="52" height="7"/>
	<rect x="105" y="798" class="st18" width="52" height="7"/>
	<rect x="105" y="818" class="st18" width="52" height="7"/>
	<rect x="105" y="838" class="st18" width="52" height="7"/>
	<rect x="105" y="858" class="st18" width="52" height="7"/>
	<rect x="105" y="878" class="st18" width="52" height="7"/>
	<rect x="105" y="898" class="st18" width="52" height="7"/>
	<rect x="105" y="918" class="st18" width="52" height="7"/>
	<rect x="105" y="938" class="st18" width="52" height="7"/>
	<rect x="105" y="958" class="st18" width="52" height="7"/>
	<g>
		<g>
			<path class="st18" d="M105.5,639.67c-2.73-0.06-5.33,1.27-7.09,3.33c-2.01,2.35-2.86,5.37-2.92,8.43
				c-0.05,2.84,0.36,5.96,1.9,8.41c1.33,2.12,3.64,3.82,6.23,2.89c1.8-0.65,1.03-3.55-0.8-2.89c-1.61,0.58-2.71-1.11-3.32-2.39
				c-0.92-1.92-1.08-4.28-1-6.38c0.15-3.92,2.53-8.49,7-8.4C107.43,642.71,107.43,639.71,105.5,639.67L105.5,639.67z"/>
		</g>
	</g>
	<g>
		<g>
			<path class="st18" d="M105.5,659.67c-2.73-0.06-5.33,1.27-7.09,3.33c-2.01,2.35-2.86,5.37-2.92,8.43
				c-0.05,2.84,0.36,5.96,1.9,8.41c1.33,2.12,3.64,3.82,6.23,2.89c1.8-0.65,1.03-3.55-0.8-2.89c-1.61,0.58-2.71-1.11-3.32-2.39
				c-0.92-1.92-1.08-4.28-1-6.38c0.15-3.92,2.53-8.49,7-8.4C107.43,662.71,107.43,659.71,105.5,659.67L105.5,659.67z"/>
		</g>
	</g>
	<g>
		<g>
			<path class="st18" d="M105.5,679.67c-2.73-0.06-5.33,1.27-7.09,3.33c-2.01,2.35-2.86,5.37-2.92,8.43
				c-0.05,2.84,0.36,5.96,1.9,8.41c1.33,2.12,3.64,3.82,6.23,2.89c1.8-0.65,1.03-3.55-0.8-2.89c-1.61,0.58-2.71-1.11-3.32-2.39
				c-0.92-1.92-1.08-4.28-1-6.38c0.15-3.92,2.53-8.49,7-8.4C107.43,682.71,107.43,679.71,105.5,679.67L105.5,679.67z"/>
		</g>
	</g>
	<g>
		<g>
			<path class="st18" d="M105.5,699.67c-2.73-0.06-5.33,1.27-7.09,3.33c-2.01,2.35-2.86,5.37-2.92,8.43
				c-0.05,2.84,0.36,5.96,1.9,8.41c1.33,2.12,3.64,3.82,6.23,2.89c1.8-0.65,1.03-3.55-0.8-2.89c-1.61,0.58-2.71-1.11-3.32-2.39
				c-0.92-1.92-1.08-4.28-1-6.38c0.15-3.92,2.53-8.49,7-8.4C107.43,702.71,107.43,699.71,105.5,699.67L105.5,699.67z"/>
		</g>
	</g>
	<g>
		<g>
			<path class="st18" d="M105.5,719.67c-2.73-0.06-5.33,1.27-7.09,3.33c-2.01,2.35-2.86,5.37-2.92,8.43
				c-0.05,2.84,0.36,5.96,1.9,8.41c1.33,2.12,3.64,3.82,6.23,2.89c1.8-0.65,1.03-3.55-0.8-2.89c-1.61,0.58-2.71-1.11-3.32-2.39
				c-0.92-1.92-1.08-4.28-1-6.38c0.15-3.92,2.53-8.49,7-8.4C107.43,722.71,107.43,719.71,105.5,719.67L105.5,719.67z"/>
		</g>
	</g>
	<g>
		<g>
			<path class="st18" d="M105.5,741.67c-2.73-0.06-5.33,1.27-7.09,3.33c-2.01,2.35-2.86,5.37-2.92,8.43
				c-0.05,2.84,0.36,5.96,1.9,8.41c1.33,2.12,3.64,3.82,6.23,2.89c1.8-0.65,1.03-3.55-0.8-2.89c-1.61,0.58-2.71-1.11-3.32-2.39
				c-0.92-1.92-1.08-4.28-1-6.38c0.15-3.92,2.53-8.49,7-8.4C107.43,744.71,107.43,741.71,105.5,741.67L105.5,741.67z"/>
		</g>
	</g>
	<g>
		<g>
			<path class="st18" d="M105.5,761.67c-2.73-0.06-5.33,1.27-7.09,3.33c-2.01,2.35-2.86,5.37-2.92,8.43
				c-0.05,2.84,0.36,5.96,1.9,8.41c1.33,2.12,3.64,3.82,6.23,2.89c1.8-0.65,1.03-3.55-0.8-2.89c-1.61,0.58-2.71-1.11-3.32-2.39
				c-0.92-1.92-1.08-4.28-1-6.38c0.15-3.92,2.53-8.49,7-8.4C107.43,764.71,107.43,761.71,105.5,761.67L105.5,761.67z"/>
		</g>
	</g>
	<g>
		<g>
			<path class="st18" d="M105.5,781.67c-2.73-0.06-5.33,1.27-7.09,3.33c-2.01,2.35-2.86,5.37-2.92,8.43
				c-0.05,2.84,0.36,5.96,1.9,8.41c1.33,2.12,3.64,3.82,6.23,2.89c1.8-0.65,1.03-3.55-0.8-2.89c-1.61,0.58-2.71-1.11-3.32-2.39
				c-0.92-1.92-1.08-4.28-1-6.38c0.15-3.92,2.53-8.49,7-8.4C107.43,784.71,107.43,781.71,105.5,781.67L105.5,781.67z"/>
		</g>
	</g>
	<g>
		<g>
			<path class="st18" d="M104.5,801.67c-2.73-0.06-5.33,1.27-7.09,3.33c-2.01,2.35-2.86,5.37-2.92,8.43
				c-0.05,2.84,0.36,5.96,1.9,8.41c1.33,2.12,3.64,3.82,6.23,2.89c1.8-0.65,1.03-3.55-0.8-2.89c-1.61,0.58-2.71-1.11-3.32-2.39
				c-0.92-1.92-1.08-4.28-1-6.38c0.15-3.92,2.53-8.49,7-8.4C106.43,804.71,106.43,801.71,104.5,801.67L104.5,801.67z"/>
		</g>
	</g>
	<g>
		<g>
			<path class="st18" d="M105.5,819.67c-2.73-0.06-5.33,1.27-7.09,3.33c-2.01,2.35-2.86,5.37-2.92,8.43
				c-0.05,2.84,0.36,5.96,1.9,8.41c1.33,2.12,3.64,3.82,6.23,2.89c1.8-0.65,1.03-3.55-0.8-2.89c-1.61,0.58-2.71-1.11-3.32-2.39
				c-0.92-1.92-1.08-4.28-1-6.38c0.15-3.92,2.53-8.49,7-8.4C107.43,822.71,107.43,819.71,105.5,819.67L105.5,819.67z"/>
		</g>
	</g>
	<g>
		<g>
			<path class="st18" d="M105.5,839.67c-2.73-0.06-5.33,1.27-7.09,3.33c-2.01,2.35-2.86,5.37-2.92,8.43
				c-0.05,2.84,0.36,5.96,1.9,8.41c1.33,2.12,3.64,3.82,6.23,2.89c1.8-0.65,1.03-3.55-0.8-2.89c-1.61,0.58-2.71-1.11-3.32-2.39
				c-0.92-1.92-1.08-4.28-1-6.38c0.15-3.92,2.53-8.49,7-8.4C107.43,842.71,107.43,839.71,105.5,839.67L105.5,839.67z"/>
		</g>
	</g>
	<g>
		<g>
			<path class="st18" d="M105.5,859.67c-2.73-0.06-5.33,1.27-7.09,3.33c-2.01,2.35-2.86,5.37-2.92,8.43
				c-0.05,2.84,0.36,5.96,1.9,8.41c1.33,2.12,3.64,3.82,6.23,2.89c1.8-0.65,1.03-3.55-0.8-2.89c-1.61,0.58-2.71-1.11-3.32-2.39
				c-0.92-1.92-1.08-4.28-1-6.38c0.15-3.92,2.53-8.49,7-8.4C107.43,862.71,107.43,859.71,105.5,859.67L105.5,859.67z"/>
		</g>
	</g>
	<g>
		<g>
			<path class="st18" d="M104.5,879.67c-2.73-0.06-5.33,1.27-7.09,3.33c-2.01,2.35-2.86,5.37-2.92,8.43
				c-0.05,2.84,0.36,5.96,1.9,8.41c1.33,2.12,3.64,3.82,6.23,2.89c1.8-0.65,1.03-3.55-0.8-2.89c-1.61,0.58-2.71-1.11-3.32-2.39
				c-0.92-1.92-1.08-4.28-1-6.38c0.15-3.92,2.53-8.49,7-8.4C106.43,882.71,106.43,879.71,104.5,879.67L104.5,879.67z"/>
		</g>
	</g>
	<g>
		<g>
			<path class="st18" d="M104.5,899.67c-2.73-0.06-5.33,1.27-7.09,3.33c-2.01,2.35-2.86,5.37-2.92,8.43
				c-0.05,2.84,0.36,5.96,1.9,8.41c1.33,2.12,3.64,3.82,6.23,2.89c1.8-0.65,1.03-3.55-0.8-2.89c-1.61,0.58-2.71-1.11-3.32-2.39
				c-0.92-1.92-1.08-4.28-1-6.38c0.15-3.92,2.53-8.49,7-8.4C106.43,902.71,106.43,899.71,104.5,899.67L104.5,899.67z"/>
		</g>
	</g>
	<g>
		<g>
			<path class="st18" d="M104.5,921.67c-2.73-0.06-5.33,1.27-7.09,3.33c-2.01,2.35-2.86,5.37-2.92,8.43
				c-0.05,2.84,0.36,5.96,1.9,8.41c1.33,2.12,3.64,3.82,6.23,2.89c1.8-0.65,1.03-3.55-0.8-2.89c-1.61,0.58-2.71-1.11-3.32-2.39
				c-0.92-1.92-1.08-4.28-1-6.38c0.15-3.92,2.53-8.49,7-8.4C106.43,924.71,106.43,921.71,104.5,921.67L104.5,921.67z"/>
		</g>
	</g>
	<g>
		<g>
			<path class="st18" d="M104.5,941.67c-2.73-0.06-5.33,1.27-7.09,3.33c-2.01,2.35-2.86,5.37-2.92,8.43
				c-0.05,2.84,0.36,5.96,1.9,8.41c1.33,2.12,3.64,3.82,6.23,2.89c1.8-0.65,1.03-3.55-0.8-2.89c-1.61,0.58-2.71-1.11-3.32-2.39
				c-0.92-1.92-1.08-4.28-1-6.38c0.15-3.92,2.53-8.49,7-8.4C106.43,944.71,106.43,941.71,104.5,941.67L104.5,941.67z"/>
		</g>
	</g>
	<text transform="matrix(1 0 0 1 240.3091 681.6211)" class="st19 st20">NOTE</text>
</g>
<g>
	<path class="st21" d="M490.47,960.24l11.51-20.85c-1.68-1.27-6.17-4.28-12.32-4c-5.2,0.24-8.98,2.7-10.68,4
		C482.81,946.33,486.64,953.29,490.47,960.24z"/>
	<path d="M478.98,939.38l0.1-273l23,0.01l-0.1,273c-1.19-0.94-5.59-4.17-12-4C484.19,935.54,480.25,938.38,478.98,939.38z"/>
</g>
</svg>
