<?xml version="1.0" encoding="utf-8"?>
<!-- Generator: Adobe Illustrator 23.0.5, SVG Export Plug-In . SVG Version: 6.00 Build 0)  -->
<svg version="1.1" id="圖層_1" xmlns="http://www.w3.org/2000/svg" xmlns:xlink="http://www.w3.org/1999/xlink" x="0px" y="0px"
	 viewBox="0 0 1920 1080" style="enable-background:new 0 0 1920 1080;" xml:space="preserve">
<style type="text/css">
	.st0{fill:#341929;}
	.st1{fill:#35182E;}
	.st2{fill:#1D1625;}
	.st3{fill:#DC2516;}
	.st4{fill:#CE250E;}
	.st5{fill:#C53618;}
	.st6{fill:#FEF7EF;}
	.st7{fill:#A33033;}
	.st8{fill:#130002;}
	.st9{fill:#5B0309;}
	.st10{fill:#F5F7EA;}
	.st11{fill:#4F5566;}
	.st12{fill:#416666;}
</style>
<g>
	<g>
		<path class="st0" d="M812.29,307.67c-7.49,11.21-15.77,21.38-24.67,30.3c-2.62-5.36-5.42-10.95-9.58-13.8
			c-4.16-2.85-10.06-1.76-12.19,4.02c-1.12,3.03-1,6.63-0.85,10.04c0.68,15.78,1.37,31.56,2.05,47.34c0.19,4.36,0.23,9.3-1.97,12.38
			c-3.39,4.73-8.99,1.59-13.51-0.53c-15.77-7.38-32.91,1.91-47.55,13c-17.12,12.98-33.22,28.65-47.89,46.62
			c-6.39,7.83-12.68,16.42-16,27.4c-3.39,11.22-3.57,24.56-9.02,34.03c-5.01,8.72-13.29,12.01-21.06,14.45
			c-35.77,11.23-73.63,15.02-105.71,39.96c-2.46,1.92-4.97,4.06-6.51,7.38c-1.44,3.11-1.88,6.91-2.26,10.58
			c-7.26,70.79-3.82,143.71,10.01,212.53c52.23-62.39,105.07-125.36,166.06-169.26c13.96-10.04,28.57-19.32,39.85-34.63
			c25.53-34.65,28.55-92.04,51.85-129.66c6.06-9.78,13.33-17.95,19.49-27.6c23.33-36.57,28.94-91.42,54.31-125.18
			c-6.27-10.04-16.54-14.78-25.81-11.9"/>
	</g>
	<g>
		<path class="st1" d="M1078.14,326.92c13-22.19,38.9-26.28,55.07-8.69c4.65,5.05,8.53,11.58,13.7,15.5
			c5.17,3.92,12.45,4.32,16.17-2.07c2.16-3.71,4.22-9.96,7.39-8.21c1.36,0.76,2.07,2.84,2.62,4.75c5.4,18.85,7.73,39.42,6.76,59.69
			c55.67,4.5,108.38,54.09,132.63,124.8c1.28,3.73,2.57,7.67,4.89,10.22c1.62,1.78,3.61,2.72,5.58,3.53
			c16.41,6.73,33.94,5.99,50.57,11.57c20.73,6.96,39.12,23.37,57.07,39.52c2.84,2.55,5.75,5.21,7.7,9.08
			c4.57,9.07,2.5,21.54-0.05,32.07c-10.64,43.81-26.82,84.94-47.55,120.88c-1.26,2.19-2.69,4.49-4.65,5.07
			c-1.72,0.51-3.46-0.42-5.08-1.37c-19.65-11.45-37.99-27.33-54.11-46.85c-16.7-20.22-32.22-45.27-53.63-52.61
			c-10.63-3.64-22.2-2.63-31.97-9.58c-7.58-5.4-13.16-14.98-18.49-24.29c-19.21-33.5-38.42-67-57.63-100.49
			c-14.66-25.56-29.31-51.12-43.97-76.67c-2.47-4.31-4.94-8.61-7.41-12.92c-1.69-2.94-3.38-5.89-5.03-8.87
			c-9.66-17.38-18.22-35.96-25.55-55.47c-2.84-7.56-5.57-15.76-5-24.27c0.57-8.51,5.75-16.98,11.78-15.9"/>
	</g>
	<path class="st1" d="M1181.31,477.91c-48.58-92.21-95.63-160.55-128.83-204.98c-64.42-1.81-128.83-3.63-193.25-5.44
		c-49.2,63.31-120.93,171.01-176.5,330.14c-35.75,102.36-56.57,153.23-45.09,210.42c1.35,6.71,3.05,13.17,5.09,19.42
		c5.14,29.23,12.51,61.96,23.26,96.67c18.59,60.05,41.02,105.92,59.26,137.86c39.51-1.21,79.02-2.42,118.53-3.63V975.3
		c44.56,10.35,88.06,14.2,121.1,14.14c32.26-0.05,77.83-3.87,124.97-14.74v83.67c39.51,1.21,79.02,2.42,118.53,3.63
		c18.25-31.94,40.67-77.81,59.26-137.86c10.23-33.06,17.42-64.34,22.52-92.49c2.38-6.97,4.35-14.22,5.82-21.78
		C1312.21,726.35,1264.71,636.2,1181.31,477.91z"/>
	<path class="st2" d="M1009.96,260.23c-4.26-0.2-7.9-1.39-10.8-2.76c0.17-2.02,0.34-4.11,0.49-6.31c1.91-27.81,0.36-48.86,0-54.42
		c-1.32-20.39-1.38-60.91,3.86-148.74c-6.09,4.13-15.5,11.82-24.48,25.4c-9.49,14.35-14.32,29-16.75,38.09
		c-15.99,19.35-24.64,38.4-29.63,52.6c-9.02,25.7-9.18,44.47-21.9,79.81c-4.83,13.42-9.57,23.93-12.88,30.84
		c32.21,0.59,64.42,1.18,96.63,1.77v0.05h33.5c0-7.26,0-14.51,0-21.77C1024.85,256.95,1018.41,260.63,1009.96,260.23z"/>
	<path class="st3" d="M825.73,321.91c-7.21-2.69-24.89-10.8-38.65-34.47c-22.96-39.48-15.22-88.22-14.17-94.33
		c0.57-8.39,2.4-22.95,9.02-38.09c10.23-23.4,25.31-33.12,30.92-36.28c-1.03,2.49-20.73,52.22-1.29,101.58
		c16.36,41.54,47.45,49.81,51.53,50.79C850.63,288.05,838.18,304.98,825.73,321.91z"/>
	<path class="st4" d="M1092.9,329.16c8.25-5.41,21.59-16.14,33.01-36.28c21.39-37.71,20.37-80.7,19.81-92.51
		c-0.57-8.39-2.4-22.95-9.02-38.09c-10.23-23.4-25.31-33.12-30.92-36.28c1.06,12.91,6.36,87.03-28.83,132.42
		c-5.2,6.71-12.18,13.94-21.42,19.95C1067.99,295.3,1080.45,312.23,1092.9,329.16z"/>
	<path class="st5" d="M964.87,396.28c-27.48-14.51-54.97-29.02-82.45-43.53c0.9-5.57,2.44-12.51,5.15-19.95
		c4.45-12.21,10.14-20.46,14.17-25.4c7.45,2.16,16.37,5.93,25.77,12.7c25.96,18.7,39.43,48.66,45.09,63.49
		C970.02,387.81,967.44,392.05,964.87,396.28z"/>
	<path class="st5" d="M1044.74,345.49c-26.63,16.93-53.25,33.86-79.88,50.79c-2.86-6.93-5.72-13.86-8.58-20.79
		c7.76-12.57,19-28.2,34.35-42.7c12.8-12.1,24.92-20.08,34.79-25.4c1.34,0.09,9.67,0.87,15.46,10.88
		C1047.67,330.02,1045.01,344.16,1044.74,345.49z"/>
	<path class="st6" d="M941.68,407.16c-14.03,15.68-32.5,18.46-46.38,7.26c-13.23-10.68-17.2-29.95-18.04-34.47
		c-0.46-4-0.77-9.69,0-16.33c1.2-10.36,4.42-17.81,6.44-21.77c11.77,4.41,25.35,10.74,39.94,19.95c12.95,8.18,24.12,17,33.5,25.4
		C951.98,393.86,946.83,400.51,941.68,407.16z"/>
	<path class="st6" d="M1044.74,399.91c-2.81,4.05-9.22,12.21-19.33,16.33c-11.23,4.57-20.63,1.56-24.48,0
		c-4.13-3.38-9.96-9.07-15.46-18.14c-4.44-7.32-7.25-14.48-9.02-19.95c22.76-10.88,45.52-21.77,68.28-32.65
		c1.82,4.44,5.87,15.73,5.15,30.84C1049.37,387.35,1046.54,395.56,1044.74,399.91z"/>
	<ellipse cx="932.66" cy="383.58" rx="7.73" ry="10.88"/>
	<ellipse cx="1002.23" cy="383.58" rx="7.73" ry="10.88"/>
	<path class="st7" d="M864.38,728.23c-6.82-1.93-15.26-5.19-24.48-10.88c-8.39-5.18-15.27-11.05-20.61-16.33
		c-1.99-2.88-47.88-71.05-30.92-143.3c10.75-45.78,40.66-67.36,55.4-78c16.71-12.06,40.06-22.96,126.26-18.14
		c27.13,1.52,64.64,4.83,109.51,12.7c9.02,5.3,30.93,20.22,46.38,54.42c4.13,9.14,21.32,47.19,14.17,92.51
		c-5.8,36.74-24.5,58.67-33.5,68.93c-41.48,47.29-96.98,45.89-193.25,41.72C892.08,730.94,874.87,729.34,864.38,728.23z"/>
	<path class="st8" d="M1123.33,630.28c-6.16,36.39-27.77,56.85-34.79,63.49c-22.3,21.11-41.65,20.43-106.93,19.95
		c-99.88-0.73-115.05,0.43-135.28-19.95c-5.76-5.8-31.98-33.44-36.07-81.63c-2.97-35.01,6.58-71.41,24.48-94.33
		c3.02-3.87,13.17-16.18,42.52-27.21c32.49-12.21,59.5-11.94,81.17-10.88c69.14,3.37,103.88,4.71,122.39,23.58
		C1105.45,528.4,1131.91,579.64,1123.33,630.28z"/>
	<path class="st9" d="M1089.84,693.77c-5.78,4.32-14.57,10.11-25.77,14.51c-17.25,6.78-29.05,5.86-51.53,5.44
		c-36.91-0.69-37.12,1.13-95.34,0c-10.23-0.2,2.51-0.01-28.34-1.81c-12.66-0.74-17.19-0.91-23.19-3.63
		c-9.62-4.35-16.42-12.24-20.61-18.14c9.5-13.66,23.96-32.04,43.8-48.98c21.05-17.97,45.44-38.79,79.88-39.91
		c40.98-1.33,70.62,26.2,81.17,36.28C1070.06,656.81,1082.72,679.1,1089.84,693.77z"/>
	<path class="st10" d="M861.8,606.7c5.68-14.33,11.95-33.2,16.75-56.23c5.44-26.13,7.27-49.35,7.73-67.12
		c-18.9,0.6-37.79,1.21-56.69,1.81c-0.74,13.31-0.84,37.55,6.44,65.3C843.45,578.74,855.02,597.27,861.8,606.7z"/>
	<path class="st10" d="M915.63,576.06c4.29-10.93,9.03-25.31,12.65-42.88c4.11-19.92,5.49-37.63,5.83-51.18
		c-14.28,0.46-28.57,0.91-42.85,1.37c-0.55,10.15-0.63,28.64,4.88,49.81C901.76,554.73,910.51,568.87,915.63,576.06z"/>
	<path class="st10" d="M1009.96,570.42c6.45-11.01,14.24-26.67,20.61-47.16c4.62-14.85,7.36-28.56,9.02-39.91
		c-16.75-0.6-33.5-1.21-50.25-1.81c4.95,14.2,9.98,31.19,14.17,50.79C1006.43,545.96,1008.49,558.76,1009.96,570.42z"/>
	<path class="st10" d="M963.58,563.16c2.5-12.62,5.47-25.97,9.02-39.91c3.78-14.85,7.76-28.61,11.77-41.26
		c-14.28,0.46-28.57,0.91-42.85,1.37c5.12,10.69,11,25.23,15.62,43.53C960.55,540.39,962.48,552.78,963.58,563.16z"/>
	<path class="st10" d="M1079.53,608.51c11.34-0.86,21.4-46.64,25.77-107.02c-1.28-2.5-11.92-22.54-30.92-23.58
		c-16.85-0.92-27.8,13.78-29.63,16.33C1053.47,562.17,1067.78,609.41,1079.53,608.51z"/>
	<path class="st10" d="M864.38,673.81c-2.92,2.13-7.38,6.02-11.6,12.7c-4.34,6.86-6.58,13.75-7.73,18.14
		c3.31,2.54,9.09,6.22,16.75,7.26c6.6,0.89,12.02-0.52,15.46-1.81c0.33-3,1.06-12.1-2.58-21.77
		C871.37,679.52,866.34,675.28,864.38,673.81z"/>
	<path class="st10" d="M895.3,668.37c-1.55,1.15-7.53,5.9-10.31,16.33c-3.38,12.68,0.64,23.7,1.29,25.4
		c9.88,0.6,19.75,1.21,29.63,1.81c0.35-2.7,1.71-15.08-3.87-27.21C906.22,672.03,897.09,668.93,895.3,668.37z"/>
	<path class="st10" d="M941.25,686c-1.88,2.94-4.5,7.76-6.44,14.51c-2.14,7.42-2.55,14.02-2.58,18.14
		c5.58,0.6,11.17,1.21,16.75,1.81c0.28-3.85,0.41-10.46-1.29-18.14C945.95,694.41,943.07,688.95,941.25,686z"/>
	<path class="st10" d="M979.63,663.86c-4.87,5.54-11.05,13.8-16.75,25.4c-4.23,8.61-7.08,16.8-9.02,23.58
		c6.02,2.8,12.92,5.39,20.61,7.26c15.6,3.79,29.32,3.39,39.94,1.81C1002.82,702.56,991.23,683.21,979.63,663.86z"/>
	<path class="st10" d="M1031.86,657.49c-6.87,18.74-13.74,37.49-20.61,56.23c15.89,0,31.78,0,47.67,0
		C1049.9,694.98,1040.88,676.23,1031.86,657.49z"/>
	<path class="st10" d="M1066.65,670.19c-6.01,14.51-12.02,29.02-18.04,43.53c12.02-2.42,24.05-4.84,36.07-7.26
		c-0.68-4.54-2.07-11.15-5.15-18.14C1075.23,678.58,1069.81,672.97,1066.65,670.19z"/>
	<ellipse class="st11" cx="962.93" cy="420.77" rx="14.82" ry="11.79"/>
	<path class="st12" d="M1221.25,809.86c-15.43,49.58-49.48,70.88-81.17,90.7c-18.99,11.88-46.64,25.62-101.78,34.47
		c-56.71,9.1-130,19.79-217.73-18.14c-46.6-20.15-70-30.27-88.9-63.49c-53-93.18-11.19-263.7,11.6-264.84
		c14.47-0.73,7.75,67.59,48.96,114.28c26.22,29.7,69.44,34.31,155.89,43.53c6.32,0.67,30.82,3.19,63.13,1.81
		c33.08-1.41,49.63-2.11,66.99-10.88c27.37-13.82,44.88-38.11,59.26-58.05c35.07-48.62,39-83.52,52.82-81.63
		c19.3,2.64,29.03,73.1,32.21,96.14C1228.15,734.42,1233.24,771.32,1221.25,809.86z"/>
</g>
</svg>
